<?xml version="1.0" encoding="utf-8" standalone="no"?>
<!DOCTYPE svg PUBLIC "-//W3C//DTD SVG 1.1//EN"
  "http://www.w3.org/Graphics/SVG/1.1/DTD/svg11.dtd">
<svg height="72pt" version="1.1" viewBox="0 0 127.00339 72" width="127.00339pt" xmlns="http://www.w3.org/2000/svg" xmlns:xlink="http://www.w3.org/1999/xlink">
 <metadata>
  <rdf:RDF xmlns:cc="http://creativecommons.org/ns#" xmlns:dc="http://purl.org/dc/elements/1.1/" xmlns:rdf="http://www.w3.org/1999/02/22-rdf-syntax-ns#">
   <cc:Work>
    <dc:type rdf:resource="http://purl.org/dc/dcmitype/StillImage"/>
    <dc:date>2022-04-21T17:31:33.625091</dc:date>
    <dc:format>image/svg+xml</dc:format>
    <dc:creator>
     <cc:Agent>
      <dc:title>Matplotlib v3.4.3, https://matplotlib.org/</dc:title>
     </cc:Agent>
    </dc:creator>
   </cc:Work>
  </rdf:RDF>
 </metadata>
 <defs>
  <style type="text/css">*{stroke-linecap:butt;stroke-linejoin:round;}</style>
 </defs>
 <g id="figure_1">
  <g id="patch_1">
   <path d="M 0 72 
L 127.00339 72 
L 127.00339 0 
L 0 0 
z
" style="fill:#ffffff;"/>
  </g>
  <g id="axes_1">
   <g id="line2d_1">
    <path clip-path="url(#pa38e33225f)" d="M 52.264333 64.807041 
L 50.599718 58.773544 
L 48.935103 52.740046 
" style="fill:none;stroke:#808080;stroke-linecap:square;stroke-width:0.587979;"/>
   </g>
   <g id="line2d_2">
    <path clip-path="url(#pa38e33225f)" d="M 117.959468 60.12305 
L 116.071103 57.732325 
L 111.870427 52.419824 
L 106.673615 45.846326 
L 103.22108 41.480568 
L 100.098282 37.528513 
L 99.09799 36.263537 
L 97.632186 34.40983 
L 94.718591 30.724295 
L 91.804996 27.03876 
L 86.734259 20.624377 
L 84.851436 18.243597 
L 81.973862 14.603808 
L 79.096289 10.964019 
L 77.256415 8.636941 
" style="fill:none;stroke:#808080;stroke-linecap:square;stroke-width:0.587979;"/>
   </g>
   <g id="line2d_3">
    <path clip-path="url(#pa38e33225f)" d="M 27.290262 68.727273 
L 22.066087 64.358034 
L 16.841912 59.988796 
L 11.617737 55.619557 
L 6.393562 51.250318 
" style="fill:none;stroke:#808080;stroke-linecap:square;stroke-width:0.587979;"/>
   </g>
   <g id="line2d_4">
    <path clip-path="url(#pa38e33225f)" d="M 41.575608 65.564833 
L 39.471113 59.319512 
L 36.804128 51.403468 
L 34.214727 43.718143 
L 32.439969 38.451388 
L 30.6472 33.128942 
L 28.843348 27.774673 
" style="fill:none;stroke:#808080;stroke-linecap:square;stroke-width:0.587979;"/>
   </g>
   <g id="line2d_5">
    <path clip-path="url(#pa38e33225f)" d="M 58.228683 56.015856 
L 59.216507 53.390435 
L 62.06083 45.826436 
L 64.812328 38.507079 
L 66.455468 34.137343 
L 68.098609 29.767607 
L 70.24051 24.071238 
L 72.892256 17.02039 
L 74.161326 13.647121 
" style="fill:none;stroke:#808080;stroke-linecap:square;stroke-width:0.587979;"/>
   </g>
   <g id="line2d_6">
    <path clip-path="url(#pa38e33225f)" d="M 47.350152 53.40038 
L 47.712446 54.951765 
L 48.07474 56.503151 
L 48.437035 58.054536 
L 48.799329 59.605922 
L 49.161624 61.157307 
L 49.523918 62.708693 
L 49.886213 64.260078 
L 50.248507 65.811464 
" style="fill:none;stroke:#008000;stroke-linecap:square;stroke-width:0.587979;"/>
   </g>
   <g id="line2d_7">
    <path clip-path="url(#pa38e33225f)" d="M 44.785689 56.077514 
L 45.109537 58.596029 
L 45.433385 61.114545 
L 45.757234 63.63306 
L 46.081082 66.151575 
" style="fill:none;stroke:#008000;stroke-linecap:square;stroke-width:0.587979;"/>
   </g>
   <g id="line2d_8">
    <path clip-path="url(#pa38e33225f)" d="M 38.882298 47.005887 
L 39.644294 48.566223 
L 40.40629 50.126558 
L 41.07269 51.936508 
L 41.757101 54.265575 
L 42.111083 55.565358 
L 42.465065 56.865141 
L 42.895939 59.129567 
L 43.326813 61.393993 
L 43.516619 63.635546 
L 43.582428 65.312236 
L 43.648237 66.988925 
" style="fill:none;stroke:#008000;stroke-linecap:square;stroke-width:0.587979;"/>
   </g>
   <g id="line2d_9">
    <path clip-path="url(#pa38e33225f)" d="M 38.882298 47.005887 
L 40.400748 48.495615 
L 42.258633 49.500037 
L 44.079111 50.168326 
L 45.472871 50.409985 
L 46.866631 50.651643 
L 48.613679 51.059379 
L 49.8398 51.729657 
L 50.751424 52.668444 
L 51.549442 54.21784 
L 52.068985 55.816961 
" style="fill:none;stroke:#008000;stroke-linecap:square;stroke-width:0.587979;"/>
   </g>
   <g id="line2d_10">
    <path clip-path="url(#pa38e33225f)" d="M 28.582884 23.488474 
L 30.219097 24.640079 
L 31.184754 25.829475 
L 32.039575 27.872132 
L 32.395635 29.264401 
L 32.751695 30.65667 
L 33.064113 32.330377 
L 33.376531 34.004083 
L 33.72982 35.416241 
L 34.083109 36.8284 
L 34.659455 38.35194 
L 35.235801 39.87548 
L 35.96039 41.39902 
L 36.684979 42.922561 
L 37.783639 44.964224 
L 38.882298 47.005887 
" style="fill:none;stroke:#4169e1;stroke-linecap:square;stroke-width:0.587979;"/>
   </g>
   <g id="line2d_11">
    <path clip-path="url(#pa38e33225f)" d="M 32.485689 25.085605 
L 33.822645 24.453117 
L 35.166529 23.669469 
L 36.981465 22.112116 
L 38.171564 20.998301 
L 39.433706 19.993878 
L 40.586398 19.436971 
L 41.626869 19.214208 
L 42.519097 19.176418 
L 43.188268 19.287799 
L 43.831116 19.429015 
L 44.679702 20.919737 
L 45.528289 22.41046 
L 46.486672 23.774883 
L 47.445055 25.139307 
L 48.403438 26.503731 
L 49.361821 27.868154 
L 50.805457 29.24849 
L 51.963691 30.841643 
L 52.743697 32.309493 
L 53.523704 33.777342 
L 54.097279 35.228285 
L 54.670855 36.679228 
L 54.889755 37.79901 
L 55.024144 39.614927 
L 55.004747 40.505979 
L 54.787232 42.286095 
L 54.394458 44.258144 
L 54.001684 46.230194 
L 53.446812 48.197271 
L 52.89194 50.164349 
L 52.366856 52.471537 
L 52.106392 54.367012 
L 52.068985 55.816961 
L 52.149341 57.374313 
L 52.483233 59.454761 
L 53.07759 61.795762 
L 53.486297 63.17013 
L 53.895004 64.544499 
" style="fill:none;stroke:#4169e1;stroke-linecap:square;stroke-width:0.587979;"/>
   </g>
   <g id="line2d_12">
    <path clip-path="url(#pa38e33225f)" d="M 27.171113 25.976657 
L 25.74341 26.216327 
L 24.315707 26.455996 
L 21.974301 26.939312 
L 20.37688 27.349037 
L 18.778074 28.017326 
L 17.551953 28.910367 
L 16.145724 30.471697 
L 15.473783 31.678994 
L 14.801841 32.88629 
L 14.728412 33.66596 
L 15.056763 34.300437 
L 15.83677 34.783754 
L 16.803812 34.970715 
L 18.140768 35.082097 
L 18.922161 35.26707 
L 19.925224 35.788176 
L 20.667824 36.494256 
L 21.226159 37.385308 
L 21.968759 39.801889 
L 22.433577 41.362225 
L 22.898394 42.922561 
L 23.530158 44.446101 
L 24.161922 45.969641 
L 24.814468 47.249534 
L 25.467013 48.529427 
L 26.762406 50.279708 
L 28.254533 52.022033 
L 29.698169 53.43817 
L 30.999104 55.184473 
L 32.342988 57.374313 
L 33.011466 58.748682 
L 33.679944 60.12305 
L 34.44194 61.284103 
L 35.203936 62.445156 
L 35.965932 63.606209 
L 36.727928 64.767262 
L 38.207586 66.555333 
L 39.099814 67.614452 
L 39.992042 68.673571 
" style="fill:none;stroke:#008000;stroke-linecap:square;stroke-width:0.587979;"/>
   </g>
   <g id="line2d_13">
    <path clip-path="url(#pa38e33225f)" d="M 26.428514 25.085605 
L 24.9447 25.344169 
L 23.460886 25.602734 
L 21.076531 26.237211 
L 19.299002 26.82793 
L 17.514546 27.683181 
L 16.325833 28.685615 
L 15.247955 29.763629 
L 13.978885 31.774463 
L 13.365825 33.01955 
L 12.752764 34.264636 
L 11.712293 36.233702 
L 10.900421 37.38133 
L 10.120415 38.347962 
L 9.036995 39.354374 
L 7.668173 40.354819 
L 6.924188 40.949516 
L 6.249475 41.733165 
L 5.84631 42.584438 
L 5.772881 43.551071 
L 5.990397 44.557482 
L 6.399103 45.524115 
L 7.17911 46.60014 
L 8.294395 47.753734 
L 10.114873 49.165893 
L 11.656876 50.298603 
L 13.198878 51.431313 
L 14.740881 52.565018 
L 16.282884 53.698723 
L 17.431766 54.612151 
L 18.580648 55.525579 
L 19.72953 56.439007 
L 20.878412 57.352435 
L 22.11146 58.423487 
L 23.344508 59.49454 
L 24.384979 60.64714 
L 25.42545 61.79974 
L 26.985463 63.768806 
L 27.988527 65.403728 
L 28.843348 67.446385 
" style="fill:none;stroke:#008000;stroke-linecap:square;stroke-width:0.587979;"/>
   </g>
   <g id="line2d_14">
    <path clip-path="url(#pa38e33225f)" d="M 73.845444 12.006232 
L 71.504038 11.85706 
L 69.014389 11.930652 
L 67.527804 11.930652 
L 66.04122 11.930652 
L 63.85152 11.891867 
L 61.661821 11.853082 
L 60.305468 11.945569 
L 58.949115 12.038055 
L 56.343089 12.451758 
L 55.026222 12.821704 
L 53.709354 13.19165 
L 51.549442 14.08668 
L 49.467115 14.830549 
L 47.57875 15.902596 
L 46.718388 16.761825 
L 46.160052 17.764259 
L 46.017351 18.802494 
L 46.086624 19.958077 
L 46.463465 20.994323 
L 47.573209 22.744604 
L 48.98775 24.507814 
L 50.402292 26.271023 
L 51.707383 27.905944 
L 53.012474 29.540866 
L 53.901931 30.845621 
L 54.791388 32.150376 
L 55.866495 34.006072 
L 56.578615 35.650938 
L 57.016417 37.307738 
L 57.202067 38.793488 
L 57.233932 40.877914 
L 56.937446 43.368087 
L 56.472629 45.52312 
L 56.007811 47.678154 
L 55.487576 49.833187 
L 54.96734 51.988221 
L 54.601582 54.06668 
L 54.447798 55.518617 
L 54.453339 57.03818 
L 54.59604 58.157962 
L 55.096187 59.719292 
L 56.082625 61.427805 
" style="fill:none;stroke:#008000;stroke-linecap:square;stroke-width:0.587979;"/>
   </g>
   <g id="line2d_15">
    <path clip-path="url(#pa38e33225f)" d="M 73.547573 12.970876 
L 72.396266 13.937508 
L 71.69523 14.788781 
L 71.026059 16.051768 
L 70.351346 17.541496 
L 69.831803 18.806472 
L 69.162632 19.920287 
L 68.420032 20.626366 
L 67.676047 21.221064 
L 66.747798 21.964934 
L 65.930384 22.818196 
L 65.191941 23.967812 
L 64.52277 25.342181 
L 63.699814 27.054671 
L 63.22322 28.649814 
L 62.808971 30.845621 
L 62.436286 33.482976 
L 61.879336 36.084531 
L 61.492104 37.383319 
L 61.104871 38.682107 
L 60.460638 40.338907 
L 59.816405 41.995707 
L 59.048175 43.813613 
L 58.279944 45.631518 
L 57.606617 47.566772 
L 57.048975 48.942135 
L 56.491332 50.317498 
L 55.843636 52.600819 
L 55.195939 54.884141 
L 55.004747 56.634422 
L 55.010289 58.191774 
L 55.270753 59.379181 
L 56.120032 61.05587 
" style="fill:none;stroke:#008000;stroke-linecap:square;stroke-width:0.587979;"/>
   </g>
   <g id="line2d_16">
    <path clip-path="url(#pa38e33225f)" d="M 73.733222 12.376178 
L 71.206167 12.413968 
L 68.686038 12.708333 
L 66.412519 13.157837 
L 64.629449 13.788336 
L 63.026487 14.798726 
L 61.785126 16.023923 
L 60.719717 17.334645 
L 59.672319 19.00139 
L 58.874301 20.845152 
L 58.206516 23.03897 
L 57.648181 25.564944 
L 57.33784 27.336109 
L 57.0275 29.107274 
L 56.851548 30.732251 
L 56.833538 33.059329 
L 56.938832 34.131376 
L 57.372477 35.943315 
L 57.871238 37.976028 
L 58.424031 40.283216 
L 58.647088 42.029519 
L 58.583357 44.004552 
L 58.279944 45.631518 
" style="fill:none;stroke:#4169e1;stroke-linecap:square;stroke-width:0.587979;"/>
   </g>
   <g id="line2d_17">
    <path clip-path="url(#pa38e33225f)" d="M 77.500253 13.3627 
L 78.112621 15.134859 
L 78.841366 17.326689 
L 79.36368 19.176418 
L 79.679562 20.817306 
L 79.818107 22.495985 
L 79.75299 24.528698 
L 79.49599 25.919972 
L 79.23899 27.311247 
L 78.827512 28.706499 
L 78.416034 30.101752 
L 77.802974 31.978331 
L 77.189913 33.854911 
L 76.725096 35.322761 
L 76.260278 36.79061 
L 75.786455 38.147078 
L 75.312632 39.503546 
L 74.838809 40.860013 
L 74.364986 42.216481 
L 73.324516 44.668864 
L 72.178751 46.337598 
L 71.228334 47.287324 
L 70.277917 48.23705 
L 68.53641 50.202139 
L 67.047054 52.042917 
L 65.557699 53.883696 
L 64.517228 55.054196 
L 63.476757 56.224697 
L 61.693686 58.00879 
L 59.986815 59.623822 
L 58.279944 61.238854 
" style="fill:none;stroke:#4169e1;stroke-linecap:square;stroke-width:0.587979;"/>
   </g>
   <g id="line2d_18">
    <path clip-path="url(#pa38e33225f)" d="M 73.547573 12.970876 
L 72.730159 14.904141 
L 72.252179 16.385913 
L 71.912745 18.100393 
L 71.727095 19.40117 
L 71.689688 21.183274 
L 71.657823 22.740626 
L 71.541445 24.194553 
L 71.280981 25.753894 
L 70.909681 27.315225 
L 70.388753 29.023738 
L 69.704342 30.843632 
L 69.019931 32.663527 
L 68.406871 34.187067 
L 67.79381 35.710607 
L 67.18075 37.234147 
L 66.56769 38.757687 
L 66.038102 40.206641 
L 65.508515 41.655596 
L 64.978928 43.10455 
L 64.449341 44.553504 
L 63.66587 47.100362 
L 62.8824 49.64722 
L 62.421046 51.317943 
L 61.959692 52.988666 
L 61.439457 54.698173 
L 60.919221 56.407681 
L 60.096266 57.971 
L 59.204038 59.124594 
L 57.425124 60.829129 
" style="fill:none;stroke:#4169e1;stroke-linecap:square;stroke-width:0.587979;"/>
   </g>
   <g id="line2d_19">
    <path clip-path="url(#pa38e33225f)" d="M 78.749927 13.30502 
L 79.716276 14.513311 
L 80.682626 15.721601 
L 81.704393 16.984588 
L 82.72616 18.247575 
L 83.729917 19.455866 
L 84.733673 20.664157 
L 86.293687 22.187697 
L 87.4824 23.412893 
L 88.560278 24.862842 
L 89.89862 26.831908 
L 90.82687 28.727383 
L 91.458634 30.660648 
L 91.91029 32.699328 
L 92.170754 35.115909 
L 92.277433 37.460888 
L 92.245568 39.760121 
L 92.313455 41.249849 
L 92.536512 42.699798 
L 93.020033 44.372509 
L 93.689204 46.007431 
L 94.915325 48.19926 
L 96.289688 50.317498 
L 97.125806 51.524794 
L 97.961923 52.73209 
L 99.154793 54.074636 
L 100.451572 55.110882 
L 102.012971 56.001934 
L 103.945669 56.745803 
L 106.249668 57.525474 
L 107.698846 57.916304 
L 109.148024 58.307133 
L 110.968501 58.899842 
L 112.5299 59.49454 
L 114.127321 60.386587 
L 115.724741 61.278633 
" style="fill:none;stroke:#008000;stroke-linecap:square;stroke-width:0.587979;"/>
   </g>
   <g id="line2d_20">
    <path clip-path="url(#pa38e33225f)" d="M 78.069672 13.617286 
L 78.629046 15.044859 
L 79.188421 16.472432 
L 79.747795 17.900005 
L 80.307169 19.327578 
L 80.884901 20.701947 
L 81.462632 22.076315 
L 82.397809 24.114995 
L 83.363466 26.01047 
L 84.175338 27.909922 
L 84.769695 29.729817 
L 85.258758 32.068829 
L 85.594036 34.632593 
L 85.704872 36.044752 
L 85.815707 37.45691 
L 85.890522 39.574154 
L 85.965336 41.691397 
L 86.336636 44.25715 
L 86.925451 45.931851 
L 87.855086 47.232628 
L 89.043799 48.422023 
L 90.418856 49.462247 
L 91.793912 50.502471 
L 94.023097 51.988221 
L 95.80686 52.899163 
L 97.590623 53.810104 
L 99.021097 54.460493 
L 100.451572 55.110882 
" style="fill:none;stroke:#008000;stroke-linecap:square;stroke-width:0.587979;"/>
   </g>
   <g id="line2d_21">
    <path clip-path="url(#pa38e33225f)" d="M 79.344284 13.491982 
L 80.400687 14.411874 
L 81.457091 15.331766 
L 83.09746 16.465471 
L 84.696266 17.430114 
L 86.479337 18.285365 
L 87.761568 18.861168 
L 89.043799 19.436971 
L 91.013905 20.441393 
L 92.648733 21.70438 
L 93.874854 23.116539 
L 94.729675 24.71367 
L 95.457727 26.300857 
L 96.18578 27.888044 
L 97.005964 29.64827 
L 97.826149 31.408496 
L 98.65811 33.128942 
L 99.490071 34.849389 
L 100.13846 36.247625 
L 100.78685 37.645861 
L 101.534991 39.833712 
L 102.052456 41.378136 
L 102.56992 42.922561 
L 103.430283 45.148202 
L 104.577433 47.232628 
L 105.803554 48.941141 
L 106.732496 50.05595 
L 107.661439 51.17076 
L 109.258859 52.620709 
L 110.782851 53.921486 
L 112.380272 55.445026 
L 113.866857 57.229119 
L 115.22598 59.140506 
L 116.585104 61.051892 
" style="fill:none;stroke:#4169e1;stroke-linecap:square;stroke-width:0.587979;"/>
   </g>
   <g id="line2d_22">
    <path clip-path="url(#pa38e33225f)" d="M 83.543574 3.272727 
L 83.549116 5.090633 
L 83.734766 6.576383 
L 84.18088 8.360476 
L 85.073108 10.329542 
L 86.188393 12.149437 
L 87.557215 13.752535 
L 89.276554 15.246241 
L 91.608262 16.427681 
L 92.927208 17.003483 
L 94.246154 17.579286 
L 95.43556 18.285365 
L 96.624966 18.991445 
L 98.854151 20.292222 
L 99.932029 21.146478 
L 101.009907 22.000735 
" style="fill:none;stroke:#008000;stroke-linecap:square;stroke-width:0.587979;"/>
   </g>
   <g id="line2d_23">
    <path clip-path="url(#pa38e33225f)" d="M 81.723096 12.60093 
L 82.867476 13.632203 
L 84.011855 14.663477 
L 85.215809 15.423258 
L 87.000265 16.204918 
L 88.6725 16.743925 
L 90.344734 17.282932 
L 92.147201 17.93332 
L 93.949668 18.583709 
L 96.289688 19.697524 
L 98.668501 20.737748 
L 101.009907 22.000735 
L 102.346863 23.040959 
L 104.056505 24.71367 
L 105.511225 26.420195 
L 106.310628 27.60959 
L 107.110031 28.798986 
L 107.943377 30.175343 
L 108.776724 31.5517 
L 109.595523 32.795792 
L 110.414322 34.039884 
L 111.233122 35.283976 
L 112.051921 36.528068 
L 113.070917 37.904425 
L 114.089914 39.280783 
L 115.133155 40.93261 
L 116.176397 42.584438 
L 117.121272 44.091072 
L 118.066147 45.597706 
L 118.984006 47.438485 
L 119.901865 49.279263 
L 120.821802 51.650098 
L 121.150153 53.660933 
L 121.230509 55.924364 
L 121.082266 58.450338 
" style="fill:none;stroke:#4169e1;stroke-linecap:square;stroke-width:0.587979;"/>
   </g>
   <g id="line2d_24">
    <path clip-path="url(#pa38e33225f)" d="M 63.365921 57.264921 
L 65.038156 56.875085 
L 66.710391 56.48525 
L 68.23369 56.262487 
L 69.756989 56.039724 
L 71.745106 55.890552 
L 73.733222 55.741381 
L 75.870275 55.648894 
L 78.007327 55.556408 
L 79.772387 55.612098 
L 81.537446 55.667789 
L 83.228385 55.798066 
L 84.919323 55.928342 
L 86.572854 56.17 
L 88.226386 56.411659 
L 90.567791 56.783593 
L 92.463083 56.930776 
L 94.65486 56.930776 
L 96.04862 56.912875 
L 97.44238 56.894975 
L 99.708972 56.857185 
L 102.012971 57.079948 
L 104.204748 57.601054 
L 105.579804 58.130116 
L 106.954861 58.659179 
L 108.329917 59.188241 
L 109.704973 59.717303 
L 111.525451 60.461173 
L 113.569678 61.111561 
L 115.613906 61.76195 
" style="fill:none;stroke:#008000;stroke-linecap:square;stroke-width:0.587979;"/>
   </g>
  </g>
 </g>
 <defs>
  <clipPath id="pa38e33225f">
   <rect height="72" width="127.00339" x="0" y="0"/>
  </clipPath>
 </defs>
</svg>
