<?xml version="1.0" encoding="utf-8" standalone="no"?>
<!DOCTYPE svg PUBLIC "-//W3C//DTD SVG 1.1//EN"
  "http://www.w3.org/Graphics/SVG/1.1/DTD/svg11.dtd">
<svg height="72pt" version="1.1" viewBox="0 0 83.121439 72" width="83.121439pt" xmlns="http://www.w3.org/2000/svg" xmlns:xlink="http://www.w3.org/1999/xlink">
 <metadata>
  <rdf:RDF xmlns:cc="http://creativecommons.org/ns#" xmlns:dc="http://purl.org/dc/elements/1.1/" xmlns:rdf="http://www.w3.org/1999/02/22-rdf-syntax-ns#">
   <cc:Work>
    <dc:type rdf:resource="http://purl.org/dc/dcmitype/StillImage"/>
    <dc:date>2022-04-19T00:32:59.259456</dc:date>
    <dc:format>image/svg+xml</dc:format>
    <dc:creator>
     <cc:Agent>
      <dc:title>Matplotlib v3.4.3, https://matplotlib.org/</dc:title>
     </cc:Agent>
    </dc:creator>
   </cc:Work>
  </rdf:RDF>
 </metadata>
 <defs>
  <style type="text/css">*{stroke-linecap:butt;stroke-linejoin:round;}</style>
 </defs>
 <g id="figure_1">
  <g id="patch_1">
   <path d="M 0 72 
L 83.121439 72 
L 83.121439 0 
L 0 0 
z
" style="fill:#ffffff;"/>
  </g>
  <g id="axes_1">
   <g id="line2d_1">
    <path clip-path="url(#p842bb12fe3)" d="M 20.835035 59.522814 
L 18.543468 53.506792 
L 16.957745 49.342209 
L 15.372023 45.177626 
L 13.33441 39.825939 
L 11.655322 35.419864 
L 10.984583 33.656323 
" style="fill:none;stroke:#808080;stroke-linecap:square;stroke-width:0.4;"/>
   </g>
   <g id="line2d_2">
    <path clip-path="url(#p842bb12fe3)" d="M 25.758767 66.610284 
L 27.127134 63.662415 
L 29.477708 58.595706 
L 31.828282 53.528998 
L 34.627758 47.496321 
L 36.613833 43.216081 
L 38.599908 38.935841 
L 40.585982 34.655601 
L 42.572057 30.375361 
L 46.069161 22.837291 
L 49.566266 15.29922 
L 51.257305 11.655558 
" style="fill:none;stroke:#808080;stroke-linecap:square;stroke-width:0.4;"/>
   </g>
   <g id="line2d_3">
    <path clip-path="url(#p842bb12fe3)" d="M 32.709654 59.154562 
L 35.459833 53.53825 
L 37.345073 49.686405 
L 39.230313 45.834559 
L 41.390421 41.422007 
L 43.550529 37.009456 
L 45.488053 33.052131 
L 47.425578 29.094805 
L 50.307963 23.206469 
L 53.190347 17.318132 
" style="fill:none;stroke:#808080;stroke-linecap:square;stroke-width:0.4;"/>
   </g>
   <g id="line2d_4">
    <path clip-path="url(#p842bb12fe3)" d="M 18.993117 68.727273 
L 11.422281 66.54089 
L 3.851446 64.354507 
" style="fill:none;stroke:#808080;stroke-linecap:square;stroke-width:0.4;"/>
   </g>
   <g id="line2d_5">
    <path clip-path="url(#p842bb12fe3)" d="M 40.957204 61.206782 
L 48.369691 57.561269 
L 55.782178 53.915755 
" style="fill:none;stroke:#808080;stroke-linecap:square;stroke-width:0.4;"/>
   </g>
   <g id="line2d_6">
    <path clip-path="url(#p842bb12fe3)" d="M 49.11811 8.304276 
L 48.292851 10.09835 
L 47.467592 11.892423 
L 46.642333 13.686497 
L 45.817074 15.480571 
L 44.991815 17.274645 
L 44.166555 19.068718 
L 43.341296 20.862792 
L 42.516037 22.656866 
L 41.690778 24.45094 
L 40.865519 26.245013 
L 40.04026 28.039087 
L 39.215001 29.833161 
L 38.389741 31.627234 
L 37.564482 33.421308 
L 36.739223 35.215382 
L 35.913964 37.009456 
" style="fill:none;stroke:#4169e1;stroke-linecap:square;stroke-width:0.4;"/>
   </g>
   <g id="line2d_7">
    <path clip-path="url(#p842bb12fe3)" d="M 35.913964 37.009456 
L 35.060322 38.808734 
L 34.206679 40.608012 
L 33.353037 42.407291 
L 32.499395 44.206569 
L 31.645752 46.005847 
L 30.79211 47.805125 
L 29.938468 49.604404 
L 29.084825 51.403682 
L 28.231183 53.20296 
L 27.377541 55.002239 
L 26.523898 56.801517 
L 25.670256 58.600795 
L 24.816614 60.400074 
L 23.962971 62.199352 
L 23.109329 63.99863 
L 22.255687 65.797908 
" style="fill:none;stroke:#008000;stroke-linecap:square;stroke-width:0.4;"/>
   </g>
   <g id="line2d_8">
    <path clip-path="url(#p842bb12fe3)" d="M 6.984051 32.040824 
L 7.51997 34.054184 
L 8.055889 36.067544 
L 8.591808 38.080903 
L 9.127727 40.094263 
L 9.663646 42.107623 
L 10.199565 44.120983 
L 10.735484 46.134342 
L 11.271402 48.147702 
L 11.807321 50.161062 
L 12.34324 52.174421 
L 12.879159 54.187781 
L 13.415078 56.201141 
L 13.950997 58.2145 
L 14.486916 60.22786 
L 15.022835 62.24122 
L 15.558754 64.254579 
" style="fill:none;stroke:#008000;stroke-linecap:square;stroke-width:0.4;"/>
   </g>
   <g id="line2d_9">
    <path clip-path="url(#p842bb12fe3)" d="M 3.778247 62.411467 
L 5.761708 62.972404 
L 7.745168 63.533341 
L 9.728628 64.094279 
L 11.712088 64.655216 
L 13.695549 65.216153 
L 15.679009 65.77709 
L 17.662469 66.338027 
L 19.64593 66.898964 
" style="fill:none;stroke:#008000;stroke-linecap:square;stroke-width:0.4;"/>
   </g>
   <g id="line2d_10">
    <path clip-path="url(#p842bb12fe3)" d="M 18.9244 31.319124 
L 19.224944 32.906865 
L 19.525488 34.494607 
L 19.826032 36.082348 
L 20.126576 37.670089 
L 20.42712 39.257831 
L 20.727664 40.845572 
L 21.028208 42.433313 
L 21.328752 44.021055 
L 21.629297 45.608796 
L 21.929841 47.196537 
L 22.230385 48.784279 
L 22.530929 50.37202 
L 22.831473 51.959762 
L 23.132017 53.547503 
L 23.432561 55.135244 
L 23.733105 56.722986 
" style="fill:none;stroke:#008000;stroke-linecap:square;stroke-width:0.4;"/>
   </g>
   <g id="line2d_11">
    <path clip-path="url(#p842bb12fe3)" d="M 48.014155 3.272727 
L 46.802082 4.925468 
L 45.590008 6.578209 
L 44.377935 8.230949 
L 43.165862 9.88369 
L 41.953789 11.536431 
L 40.741716 13.189171 
L 39.529643 14.841912 
L 38.31757 16.494653 
" style="fill:none;stroke:#008000;stroke-linecap:square;stroke-width:0.4;"/>
   </g>
   <g id="line2d_12">
    <path clip-path="url(#p842bb12fe3)" d="M 56.02717 21.143145 
L 56.067131 22.525479 
L 56.107091 23.907814 
L 56.147052 25.290148 
L 56.187012 26.672482 
L 54.595501 28.417517 
L 53.00399 30.162552 
L 51.412478 31.907587 
L 49.820967 33.652622 
L 48.229456 35.397658 
L 46.637945 37.142693 
L 45.046434 38.887728 
L 43.454922 40.632763 
" style="fill:none;stroke:#4169e1;stroke-linecap:square;stroke-width:0.4;"/>
   </g>
   <g id="line2d_13">
    <path clip-path="url(#p842bb12fe3)" d="M 42.803603 42.239009 
L 42.868959 43.574618 
L 42.934315 44.910227 
L 42.999671 46.245836 
L 43.065027 47.581444 
L 42.163862 48.840257 
L 41.262696 50.099069 
L 40.361531 51.357882 
L 39.460366 52.616694 
" style="fill:none;stroke:#4169e1;stroke-linecap:square;stroke-width:0.4;"/>
   </g>
   <g id="line2d_14">
    <path clip-path="url(#p842bb12fe3)" d="M 56.351336 51.184396 
L 54.218304 52.280826 
L 52.085271 53.377256 
L 49.952239 54.473685 
L 47.819207 55.570115 
L 45.686175 56.666545 
L 43.553143 57.762975 
L 41.420111 58.859405 
L 39.287079 59.955834 
" style="fill:none;stroke:#008000;stroke-linecap:square;stroke-width:0.4;"/>
   </g>
   <g id="line2d_15">
    <path clip-path="url(#p842bb12fe3)" d="M 79.343192 41.435886 
L 78.129252 41.930552 
L 76.915311 42.425217 
L 75.701371 42.919883 
L 74.48743 43.414549 
L 73.27349 43.909214 
L 72.059549 44.40388 
L 70.845609 44.898546 
L 69.631669 45.393211 
L 68.417728 45.887877 
L 67.203788 46.382542 
L 65.989847 46.877208 
L 64.775907 47.371874 
L 63.561966 47.866539 
L 62.348026 48.361205 
L 61.134085 48.855871 
L 59.920145 49.350536 
" style="fill:none;stroke:#008000;stroke-linecap:square;stroke-width:0.4;"/>
   </g>
   <g id="line2d_16">
    <path clip-path="url(#p842bb12fe3)" d="M 53.568292 13.942793 
L 54.66179 15.99964 
L 55.755289 18.056487 
L 57.23943 18.941958 
L 58.723571 19.827429 
L 60.357283 20.321979 
L 61.990996 20.816529 
L 63.624708 21.311079 
L 65.258421 21.805629 
L 66.892133 22.300179 
L 68.525846 22.794729 
L 70.159558 23.289279 
L 71.793271 23.783829 
L 73.146699 25.736122 
L 74.500128 27.688414 
L 74.81309 29.953444 
L 75.126051 32.218474 
L 74.696196 33.546218 
L 74.26634 34.873962 
L 73.836485 36.201706 
L 73.406629 37.52945 
L 71.584131 38.857194 
L 69.761634 40.184938 
L 68.498956 40.627674 
L 67.236279 41.07041 
L 65.973602 41.513145 
L 64.710924 41.955881 
L 63.448247 42.398616 
L 62.18557 42.841352 
L 60.922892 43.284087 
L 59.660215 43.726823 
L 57.837717 44.826722 
L 56.015219 45.926622 
L 54.192721 47.026521 
L 52.370223 48.126421 
L 50.547726 49.22632 
L 48.725228 50.32622 
L 46.90273 51.426119 
L 45.080232 52.526019 
L 43.609349 53.632395 
L 42.138466 54.738772 
L 40.667584 55.845148 
L 39.196701 56.951524 
L 37.725818 58.057901 
L 36.254935 59.164277 
L 34.784053 60.270653 
L 33.31317 61.377029 
" style="fill:none;stroke:#008000;stroke-linecap:square;stroke-width:0.4;"/>
   </g>
  </g>
 </g>
 <defs>
  <clipPath id="p842bb12fe3">
   <rect height="72" width="83.121439" x="0" y="0"/>
  </clipPath>
 </defs>
</svg>
