<?xml version="1.0" encoding="utf-8" standalone="no"?>
<!DOCTYPE svg PUBLIC "-//W3C//DTD SVG 1.1//EN"
  "http://www.w3.org/Graphics/SVG/1.1/DTD/svg11.dtd">
<svg height="72pt" version="1.1" viewBox="0 0 42.559633 72" width="42.559633pt" xmlns="http://www.w3.org/2000/svg" xmlns:xlink="http://www.w3.org/1999/xlink">
 <metadata>
  <rdf:RDF xmlns:cc="http://creativecommons.org/ns#" xmlns:dc="http://purl.org/dc/elements/1.1/" xmlns:rdf="http://www.w3.org/1999/02/22-rdf-syntax-ns#">
   <cc:Work>
    <dc:type rdf:resource="http://purl.org/dc/dcmitype/StillImage"/>
    <dc:date>2022-04-19T00:33:18.284517</dc:date>
    <dc:format>image/svg+xml</dc:format>
    <dc:creator>
     <cc:Agent>
      <dc:title>Matplotlib v3.4.3, https://matplotlib.org/</dc:title>
     </cc:Agent>
    </dc:creator>
   </cc:Work>
  </rdf:RDF>
 </metadata>
 <defs>
  <style type="text/css">*{stroke-linecap:butt;stroke-linejoin:round;}</style>
 </defs>
 <g id="figure_1">
  <g id="patch_1">
   <path d="M 0 72 
L 42.559633 72 
L 42.559633 0 
L 0 0 
z
" style="fill:#ffffff;"/>
  </g>
  <g id="axes_1">
   <g id="line2d_1">
    <path clip-path="url(#p28d8d746c1)" d="M 30.994421 67.538449 
L 29.391335 65.146952 
L 27.788249 62.755454 
L 26.185163 60.363957 
L 24.582077 57.97246 
L 22.978991 55.580962 
L 21.375905 53.189465 
L 19.772819 50.797967 
L 18.169733 48.40647 
" style="fill:none;stroke:#808080;stroke-linecap:square;stroke-width:0.4;"/>
   </g>
   <g id="line2d_2">
    <path clip-path="url(#p28d8d746c1)" d="M 30.787977 68.727273 
L 28.51269 65.353265 
L 26.237403 61.979257 
L 23.962117 58.605248 
L 21.68683 55.23124 
" style="fill:none;stroke:#808080;stroke-linecap:square;stroke-width:0.4;"/>
   </g>
   <g id="line2d_3">
    <path clip-path="url(#p28d8d746c1)" d="M 25.323093 3.272727 
L 25.586602 4.413652 
L 25.850112 5.554576 
L 26.873938 6.491207 
L 27.897765 7.427839 
L 28.570805 8.685914 
L 29.243845 9.943989 
L 29.609527 10.660746 
L 29.97521 11.377503 
L 30.340892 12.094259 
L 30.706574 12.811016 
L 31.05778 14.156233 
L 31.408987 15.501451 
L 32.784019 15.852904 
L 34.159052 16.204357 
L 34.948951 16.496946 
L 35.73885 16.789535 
L 36.528749 17.082124 
L 37.318648 17.374713 
L 37.479565 18.471778 
L 37.640482 19.568843 
L 37.801399 20.665908 
L 37.962316 21.762973 
L 37.464879 23.094051 
L 36.967442 24.425129 
L 36.470005 25.756208 
L 35.972568 27.087286 
L 35.90669 28.228211 
L 35.840813 29.369135 
L 35.774936 30.510059 
L 35.709058 31.650983 
" style="fill:none;stroke:#008000;stroke-linecap:square;stroke-width:0.4;"/>
   </g>
   <g id="line2d_4">
    <path clip-path="url(#p28d8d746c1)" d="M 36.113554 8.395056 
L 35.597864 9.394014 
L 35.082174 10.392972 
L 34.566904 11.263237 
L 34.051634 12.133502 
L 33.825889 13.035508 
L 33.600143 13.937513 
L 34.018905 14.743143 
L 34.437667 15.548773 
" style="fill:none;stroke:#008000;stroke-linecap:square;stroke-width:0.4;"/>
   </g>
   <g id="line2d_5">
    <path clip-path="url(#p28d8d746c1)" d="M 26.833656 4.077203 
L 27.993434 4.463859 
L 29.153211 4.850515 
L 30.055563 5.188984 
L 30.957915 5.527452 
L 31.860267 5.865921 
L 32.76262 6.204389 
L 33.552099 6.381558 
L 34.341578 6.558728 
L 35.131058 6.735897 
L 35.920537 6.913066 
L 36.983806 7.493051 
L 38.047076 8.073035 
L 38.788091 9.200686 
L 39.529107 10.328337 
L 40.077106 11.294978 
L 40.625105 12.261618 
L 40.399359 13.776502 
L 40.173614 15.291387 
L 39.375952 16.100479 
L 38.57829 16.909572 
" style="fill:none;stroke:#4169e1;stroke-linecap:square;stroke-width:0.4;"/>
   </g>
   <g id="line2d_6">
    <path clip-path="url(#p28d8d746c1)" d="M 35.709058 31.650983 
L 35.892004 32.915407 
L 36.07495 34.17983 
L 36.024598 35.391161 
L 35.974246 36.602491 
L 36.301955 37.914814 
L 36.629663 39.227136 
L 36.705611 40.766259 
L 36.781559 42.305381 
L 37.008563 43.276927 
L 37.235567 44.248473 
L 37.462571 45.220019 
L 37.689575 46.191565 
L 37.815875 47.062118 
L 37.942175 47.932672 
L 38.068475 48.803225 
L 38.194775 49.673779 
L 38.421779 50.607525 
L 38.648783 51.541271 
L 38.875788 52.475016 
L 39.102792 53.408762 
L 38.951735 54.569308 
L 38.800679 55.729854 
L 38.598431 56.588 
L 38.396184 57.446145 
L 37.614047 57.900322 
L 36.831911 58.354499 
" style="fill:none;stroke:#4169e1;stroke-linecap:square;stroke-width:0.4;"/>
   </g>
   <g id="line2d_7">
    <path clip-path="url(#p28d8d746c1)" d="M 18.84697 28.842821 
L 19.087821 30.170148 
L 19.812052 31.075039 
L 20.626498 31.04503 
L 21.440943 31.015021 
L 22.73835 31.015021 
L 24.035756 31.015021 
L 24.639143 31.70927 
L 25.242529 32.40352 
L 26.056975 33.399016 
L 26.871421 34.394511 
L 27.686286 35.148779 
L 28.501151 35.903047 
L 28.742422 36.98857 
L 28.983692 38.074093 
" style="fill:none;stroke:#4169e1;stroke-linecap:square;stroke-width:0.4;"/>
   </g>
   <g id="line2d_8">
    <path clip-path="url(#p28d8d746c1)" d="M 16.977227 52.119524 
L 16.071938 52.31112 
L 15.166649 52.502717 
L 14.261359 52.694314 
L 13.35607 52.885911 
L 11.858514 53.164649 
L 10.360958 53.443388 
L 9.577562 53.512929 
L 8.794167 53.582469 
L 8.010772 53.652009 
L 7.227377 53.72155 
L 6.531049 53.373271 
L 5.834721 53.024992 
L 5.138393 52.676712 
L 4.442065 52.328433 
L 3.544119 51.080746 
L 2.646172 49.833058 
L 2.468261 48.90768 
L 2.29035 47.982302 
L 2.11244 47.056924 
L 1.934529 46.131546 
L 2.196989 45.317549 
L 2.45945 44.503551 
L 2.72191 43.689553 
L 2.984371 42.875555 
L 3.662026 41.652683 
L 4.339682 40.42981 
L 5.017338 39.206938 
L 5.694994 37.984066 
L 6.18257 37.061285 
L 6.670146 36.138504 
L 7.157723 35.215723 
L 7.645299 34.292942 
L 8.341627 33.491929 
L 9.037955 32.690916 
L 9.734283 31.889902 
L 10.430611 31.088889 
L 11.161976 30.531989 
L 11.893341 29.975089 
L 12.624705 29.418188 
L 13.35607 28.861288 
L 14.3136 28.565236 
L 15.271129 28.269185 
L 16.228659 27.973133 
L 17.186189 27.677081 
L 17.377736 26.858755 
L 17.569284 26.040429 
L 17.760832 25.222103 
L 17.95238 24.403777 
L 17.987207 23.51591 
L 18.022034 22.628044 
L 18.056861 21.740177 
L 18.091688 20.852311 
L 17.865313 20.051586 
L 17.638938 19.250862 
L 17.412563 18.450137 
L 17.186189 17.649412 
L 17.412563 16.796172 
L 17.638938 15.942931 
L 17.865313 15.089691 
L 18.091688 14.23645 
L 18.213582 13.400811 
L 18.335476 12.565172 
L 18.45737 11.729533 
L 18.579264 10.893894 
L 18.265822 9.919174 
L 17.95238 8.944454 
L 18.439957 7.795451 
L 18.927533 6.646447 
L 19.658478 5.984515 
L 20.389423 5.322582 
" style="fill:none;stroke:#000000;stroke-linecap:square;stroke-width:0.4;"/>
   </g>
   <g id="line2d_9">
    <path clip-path="url(#p28d8d746c1)" d="M 16.810226 9.787018 
L 15.934099 10.663054 
L 15.057972 11.53909 
L 14.181845 12.77639 
L 13.305718 14.01369 
L 12.996472 14.735064 
L 12.687226 15.456437 
L 12.37798 16.177811 
L 12.068734 16.899184 
L 11.939916 17.672208 
L 11.811099 18.445232 
L 11.682281 19.218256 
L 11.553464 19.991279 
L 11.424646 20.893285 
L 11.295829 21.79529 
L 11.167011 22.697296 
L 11.038194 23.599301 
L 10.677337 24.294994 
L 10.31648 24.990686 
L 9.955623 25.686379 
L 9.594766 26.382071 
L 9.80079 27.516071 
L 10.006814 28.65007 
L 10.625306 29.783492 
" style="fill:none;stroke:#4169e1;stroke-linecap:square;stroke-width:0.4;"/>
   </g>
   <g id="line2d_10">
    <path clip-path="url(#p28d8d746c1)" d="M 20.212352 44.317148 
L 19.233003 43.492474 
L 18.253654 42.667799 
L 17.377527 41.637101 
L 16.5014 40.606403 
L 15.960114 40.013722 
L 15.418829 39.421042 
L 14.877543 38.828361 
L 14.336258 38.235681 
L 13.872389 37.488626 
L 13.40852 36.741572 
L 12.944651 35.994518 
L 12.480782 35.247463 
L 12.171536 34.474151 
L 11.86229 33.700838 
L 11.553044 32.927526 
L 11.243798 32.154214 
" style="fill:none;stroke:#ff0000;stroke-linecap:square;stroke-width:0.4;"/>
   </g>
   <g id="line2d_11">
    <path clip-path="url(#p28d8d746c1)" d="M 22.420292 44.010131 
L 22.830715 44.754084 
L 23.241137 45.498036 
L 23.651559 46.241989 
L 24.061982 46.985941 
L 24.472404 47.729894 
L 24.882826 48.473846 
L 25.293248 49.217799 
L 25.703671 49.961751 
L 26.114093 50.705704 
L 26.524515 51.449656 
L 26.934938 52.193609 
L 27.34536 52.937561 
L 27.755782 53.681514 
L 28.166205 54.425466 
L 28.576627 55.169419 
L 28.987049 55.913371 
L 29.397471 56.657324 
L 29.807894 57.401276 
L 30.218316 58.145229 
L 30.628738 58.889181 
L 31.039161 59.633133 
L 31.449583 60.377086 
L 31.860005 61.121038 
L 32.270428 61.864991 
L 32.68085 62.608943 
L 33.091272 63.352896 
L 33.501694 64.096848 
L 33.912117 64.840801 
L 34.322539 65.584753 
L 34.732961 66.328706 
L 35.143384 67.072658 
L 35.553806 67.816611 
" style="fill:none;stroke:#008000;stroke-linecap:square;stroke-width:0.4;"/>
   </g>
   <g id="line2d_12">
    <path clip-path="url(#p28d8d746c1)" d="M 32.494914 56.194995 
L 32.180004 55.375515 
L 31.865093 54.556035 
L 31.550182 53.736554 
L 31.235272 52.917074 
L 30.920361 52.097594 
L 30.60545 51.278114 
L 30.29054 50.458633 
L 29.975629 49.639153 
L 29.660719 48.819673 
L 29.345808 48.000192 
L 29.030897 47.180712 
L 28.715987 46.361232 
L 28.401076 45.541751 
L 28.086166 44.722271 
L 27.771255 43.902791 
L 27.456344 43.083311 
" style="fill:none;stroke:#008000;stroke-linecap:square;stroke-width:0.4;"/>
   </g>
  </g>
 </g>
 <defs>
  <clipPath id="p28d8d746c1">
   <rect height="72" width="42.559633" x="0" y="0"/>
  </clipPath>
 </defs>
</svg>
