<?xml version="1.0" encoding="utf-8" standalone="no"?>
<!DOCTYPE svg PUBLIC "-//W3C//DTD SVG 1.1//EN"
  "http://www.w3.org/Graphics/SVG/1.1/DTD/svg11.dtd">
<svg height="94.132477pt" version="1.1" viewBox="0 0 72 94.132477" width="72pt" xmlns="http://www.w3.org/2000/svg" xmlns:xlink="http://www.w3.org/1999/xlink">
 <metadata>
  <rdf:RDF xmlns:cc="http://creativecommons.org/ns#" xmlns:dc="http://purl.org/dc/elements/1.1/" xmlns:rdf="http://www.w3.org/1999/02/22-rdf-syntax-ns#">
   <cc:Work>
    <dc:type rdf:resource="http://purl.org/dc/dcmitype/StillImage"/>
    <dc:date>2022-04-21T17:32:27.275779</dc:date>
    <dc:format>image/svg+xml</dc:format>
    <dc:creator>
     <cc:Agent>
      <dc:title>Matplotlib v3.4.3, https://matplotlib.org/</dc:title>
     </cc:Agent>
    </dc:creator>
   </cc:Work>
  </rdf:RDF>
 </metadata>
 <defs>
  <style type="text/css">*{stroke-linecap:butt;stroke-linejoin:round;}</style>
 </defs>
 <g id="figure_1">
  <g id="patch_1">
   <path d="M 0 94.132477 
L 72 94.132477 
L 72 0 
L 0 0 
z
" style="fill:#ffffff;"/>
  </g>
  <g id="axes_1">
   <g id="line2d_1">
    <path clip-path="url(#pf4369dd86b)" d="M 53.568138 15.471822 
L 52.837593 16.634039 
L 52.107049 17.796257 
L 51.376504 18.958474 
L 50.64596 20.120691 
L 49.915415 21.282909 
L 49.18487 22.445126 
L 48.454326 23.607343 
L 47.723781 24.76956 
L 46.993237 25.931778 
L 46.262692 27.093995 
L 45.532148 28.256212 
L 44.801603 29.41843 
L 44.071059 30.580647 
L 43.340514 31.742864 
L 42.60997 32.905081 
L 41.879425 34.067299 
L 41.148881 35.229516 
L 40.418336 36.391733 
L 39.687792 37.553951 
L 38.957247 38.716168 
L 38.226703 39.878385 
L 37.496158 41.040602 
L 36.765613 42.20282 
L 36.035069 43.365037 
L 35.304524 44.527254 
L 34.57398 45.689472 
L 33.843435 46.851689 
L 33.112891 48.013906 
L 32.382346 49.176123 
L 31.651802 50.338341 
L 30.921257 51.500558 
L 30.190713 52.662775 
L 29.460168 53.824993 
L 28.729624 54.98721 
L 27.999079 56.149427 
L 27.268535 57.311644 
L 26.53799 58.473862 
L 25.807446 59.636079 
L 25.076901 60.798296 
L 24.346356 61.960514 
L 23.615812 63.122731 
L 22.885267 64.284948 
L 22.154723 65.447165 
L 21.424178 66.609383 
L 20.693634 67.7716 
L 19.963089 68.933817 
L 19.232545 70.096035 
L 18.502 71.258252 
L 17.771456 72.420469 
L 17.040911 73.582686 
L 16.310367 74.744904 
L 15.579822 75.907121 
L 14.849278 77.069338 
L 14.118733 78.231556 
L 13.388189 79.393773 
L 12.657644 80.55599 
L 11.927099 81.718207 
L 11.196555 82.880425 
L 10.46601 84.042642 
L 9.735466 85.204859 
L 9.004921 86.367077 
L 8.274377 87.529294 
L 7.543832 88.691511 
L 6.813288 89.853729 
" style="fill:none;stroke:#008000;stroke-linecap:square;stroke-width:0.4;"/>
   </g>
   <g id="line2d_2">
    <path clip-path="url(#pf4369dd86b)" d="M 54.134852 22.27271 
L 56.118351 22.910211 
L 58.101851 23.547712 
L 60.08535 24.185212 
L 62.068849 24.822713 
L 61.572741 26.664565 
L 61.076632 28.506417 
L 60.580523 30.348269 
L 60.084415 32.190122 
L 58.525951 33.500778 
L 56.967487 34.811435 
L 55.409023 36.122091 
L 53.85056 37.432748 
L 53.089096 38.902697 
L 52.327632 40.372646 
L 51.566169 41.842596 
L 50.804705 43.312545 
L 50.043241 44.782494 
L 49.281778 46.252443 
L 48.520314 47.722392 
L 47.75885 49.192342 
L 46.589886 50.042122 
L 45.420921 50.891903 
L 44.251956 51.741684 
L 43.082991 52.591465 
L 41.923028 53.538967 
L 40.763064 54.48647 
L 39.6031 55.433972 
L 38.443136 56.381474 
L 37.283173 57.328977 
L 36.123209 58.276479 
L 34.963245 59.223982 
L 33.803281 60.171484 
L 32.643318 61.118986 
L 31.483354 62.066489 
L 30.32339 63.013991 
L 29.163426 63.961493 
L 28.003463 64.908996 
L 26.843499 65.856498 
L 25.683535 66.804 
L 24.523572 67.751503 
" style="fill:none;stroke:#4169e1;stroke-linecap:square;stroke-width:0.4;"/>
   </g>
   <g id="line2d_3">
    <path clip-path="url(#pf4369dd86b)" d="M 62.068849 24.822713 
L 63.272416 25.672494 
L 64.475982 26.522275 
L 66.601627 26.664235 
L 68.727273 26.806195 
L 67.841665 28.506417 
L 66.956057 30.206639 
L 66.07045 31.906861 
L 65.184842 33.607083 
L 64.937021 35.307305 
L 64.689201 37.007527 
L 64.44138 38.707749 
L 64.19356 40.407971 
L 63.945739 42.108193 
L 63.697919 43.808415 
L 63.450098 45.508637 
L 63.202278 47.208859 
L 61.608277 48.590166 
L 60.014277 49.971472 
L 58.420277 51.352779 
L 56.826276 52.734086 
L 55.551169 54.345665 
L 54.276063 55.957244 
L 53.000956 57.568824 
L 51.725849 59.180403 
L 50.450742 60.791982 
L 49.175636 62.403562 
L 47.900529 64.015141 
L 46.625422 65.62672 
L 44.571083 66.494494 
L 42.516745 67.362267 
L 40.462406 68.230041 
L 38.408067 69.097814 
L 36.353729 69.965588 
L 34.29939 70.833361 
L 32.245051 71.701135 
L 30.190713 72.568908 
L 28.36666 73.578477 
L 26.542607 74.588046 
L 24.718555 75.597615 
L 22.894502 76.607183 
L 21.07045 77.616752 
L 19.246397 78.626321 
L 17.422344 79.635889 
L 15.598292 80.645458 
" style="fill:none;stroke:#4169e1;stroke-linecap:square;stroke-width:0.4;"/>
   </g>
   <g id="line2d_4">
    <path clip-path="url(#pf4369dd86b)" d="M 47.616704 4.278749 
L 45.916562 4.491359 
L 44.21642 4.70397 
L 42.516277 4.91658 
L 40.816135 5.12919 
L 38.779564 5.731366 
L 36.742994 6.333542 
L 34.706424 6.935717 
L 32.669853 7.537893 
L 30.633283 8.140069 
L 28.596712 8.742244 
L 26.560142 9.34442 
L 24.523572 9.946596 
L 24.063233 11.611328 
L 23.602895 13.27606 
L 23.142557 14.940792 
L 22.682218 16.605524 
L 22.22188 18.270255 
L 21.761542 19.934987 
L 21.301203 21.599719 
L 20.840865 23.264451 
L 20.061633 24.52179 
L 19.282401 25.779129 
L 18.503169 27.036468 
L 17.723937 28.293807 
L 16.944705 29.551146 
L 16.165473 30.808485 
L 15.386242 32.065824 
L 14.60701 33.323163 
L 14.359189 34.881755 
L 14.111369 36.440346 
L 13.863548 37.998938 
L 13.615728 39.55753 
L 14.430262 40.868187 
L 15.244797 42.178843 
L 16.059331 43.4895 
L 16.873866 44.800156 
L 16.165473 46.677334 
L 15.457081 48.554511 
L 14.748688 50.431688 
L 14.040296 52.308865 
L 12.340153 54.009087 
L 10.640011 55.709309 
L 9.860779 57.126106 
L 9.081547 58.542902 
L 8.302315 59.959699 
L 7.523083 61.376496 
L 6.743851 62.793292 
L 5.964619 64.210089 
L 5.185387 65.626886 
L 4.406156 67.043682 
L 4.122798 68.389664 
L 3.839441 69.735645 
L 3.556084 71.081627 
L 3.272727 72.427608 
L 3.414406 74.375766 
L 3.556084 76.323923 
L 3.697763 78.27208 
L 3.839441 80.220238 
L 4.193404 81.849479 
L 4.547366 83.478721 
L 4.901329 85.107963 
L 5.255292 86.737205 
" style="fill:none;stroke:#4169e1;stroke-linecap:square;stroke-width:0.4;"/>
   </g>
   <g id="line2d_5">
    <path clip-path="url(#pf4369dd86b)" d="M 54.417274 7.820493 
L 53.381337 8.759164 
L 52.345401 9.697835 
L 51.309464 10.636506 
L 50.273527 11.575177 
L 49.237591 12.513849 
L 48.201654 13.45252 
L 47.165718 14.391191 
L 46.129781 15.329862 
L 45.093844 16.268533 
L 44.057908 17.207204 
L 43.021971 18.145875 
L 41.986035 19.084546 
L 40.950098 20.023217 
L 39.914162 20.961888 
L 38.878225 21.90056 
L 37.842288 22.839231 
L 36.983333 24.300266 
L 36.124378 25.761302 
L 35.265423 27.222337 
L 34.406467 28.683372 
L 33.547512 30.144408 
L 32.688557 31.605443 
L 31.829601 33.066479 
L 30.970646 34.527514 
L 30.111691 35.98855 
L 29.252735 37.449585 
L 28.39378 38.91062 
L 27.534825 40.371656 
L 26.675869 41.832691 
L 25.816914 43.293727 
L 24.957959 44.754762 
L 24.099004 46.215798 
L 23.06295 47.792052 
L 22.026897 49.368306 
L 20.990843 50.944561 
L 19.95479 52.520815 
L 18.918736 54.097069 
L 17.882683 55.673324 
L 16.846629 57.249578 
L 15.810576 58.825832 
L 14.774522 60.402087 
L 13.738469 61.978341 
L 12.702415 63.554596 
L 11.666362 65.13085 
L 10.630308 66.707104 
L 9.594255 68.283359 
L 8.558201 69.859613 
L 7.522148 71.435867 
L 7.416006 73.047447 
L 7.309864 74.659026 
L 7.203722 76.270605 
L 7.09758 77.882185 
L 6.991438 79.493764 
L 6.885296 81.105343 
L 6.779154 82.716923 
L 6.673012 84.328502 
" style="fill:none;stroke:#4169e1;stroke-linecap:square;stroke-width:0.4;"/>
   </g>
  </g>
 </g>
 <defs>
  <clipPath id="pf4369dd86b">
   <rect height="94.132477" width="72" x="0" y="0"/>
  </clipPath>
 </defs>
</svg>
