<?xml version="1.0" encoding="utf-8" standalone="no"?>
<!DOCTYPE svg PUBLIC "-//W3C//DTD SVG 1.1//EN"
  "http://www.w3.org/Graphics/SVG/1.1/DTD/svg11.dtd">
<svg height="45.47248pt" version="1.1" viewBox="0 0 72 45.47248" width="72pt" xmlns="http://www.w3.org/2000/svg" xmlns:xlink="http://www.w3.org/1999/xlink">
 <metadata>
  <rdf:RDF xmlns:cc="http://creativecommons.org/ns#" xmlns:dc="http://purl.org/dc/elements/1.1/" xmlns:rdf="http://www.w3.org/1999/02/22-rdf-syntax-ns#">
   <cc:Work>
    <dc:type rdf:resource="http://purl.org/dc/dcmitype/StillImage"/>
    <dc:date>2022-04-19T00:34:06.854790</dc:date>
    <dc:format>image/svg+xml</dc:format>
    <dc:creator>
     <cc:Agent>
      <dc:title>Matplotlib v3.4.3, https://matplotlib.org/</dc:title>
     </cc:Agent>
    </dc:creator>
   </cc:Work>
  </rdf:RDF>
 </metadata>
 <defs>
  <style type="text/css">*{stroke-linecap:butt;stroke-linejoin:round;}</style>
 </defs>
 <g id="figure_1">
  <g id="patch_1">
   <path d="M 0 45.47248 
L 72 45.47248 
L 72 0 
L 0 0 
z
" style="fill:#ffffff;"/>
  </g>
  <g id="axes_1">
   <g id="patch_2">
    <path clip-path="url(#pa322dd4020)" d="M 37.561269 41.150015 
L 37.561269 41.150015 
L 37.061986 40.73031 
L 36.562702 40.310604 
L 36.063419 39.890899 
L 35.564135 39.471193 
L 34.855396 38.875553 
L 34.146657 38.279913 
L 33.437918 37.684273 
L 32.729179 37.088633 
L 32.02044 36.492993 
L 31.311701 35.897353 
L 30.602962 35.301712 
L 29.894223 34.706072 
L 29.185484 34.110432 
L 28.476745 33.514792 
L 27.768006 32.919152 
L 27.059267 32.323512 
L 26.350528 31.727872 
L 25.641789 31.132231 
L 24.93305 30.536591 
L 24.224311 29.940951 
L 23.606622 30.676063 
L 22.988932 31.411175 
L 23.405712 31.761441 
L 23.822492 32.111707 
L 24.239272 32.461973 
L 24.656052 32.812239 
L 25.072832 33.162504 
L 25.489612 33.51277 
L 25.906392 33.863036 
L 26.323172 34.213302 
L 26.739952 34.563568 
L 27.156732 34.913834 
L 27.573512 35.264099 
L 27.990292 35.614365 
L 28.407072 35.964631 
L 28.823852 36.314897 
L 29.240632 36.665163 
L 29.657412 37.015428 
L 30.074191 37.365694 
L 30.490971 37.71596 
L 30.907751 38.066226 
L 31.324531 38.416492 
L 31.741311 38.766758 
L 32.158091 39.117023 
L 32.574871 39.467289 
L 32.991651 39.817555 
L 33.408431 40.167821 
L 33.825211 40.518087 
L 34.241991 40.868352 
L 34.658771 41.218618 
L 35.075551 41.568884 
L 35.492331 41.91915 
L 35.909111 42.269416 
L 36.325891 42.619682 
z
" style="fill:#008000;opacity:0.1;"/>
   </g>
   <g id="patch_3">
    <path clip-path="url(#pa322dd4020)" d="M 37.561269 41.150015 
L 37.561269 41.150015 
L 37.061986 40.73031 
L 36.562702 40.310604 
L 36.063419 39.890899 
L 35.564135 39.471193 
L 34.855396 38.875553 
L 34.146657 38.279913 
L 33.437918 37.684273 
L 32.729179 37.088633 
L 32.02044 36.492993 
L 31.311701 35.897353 
L 30.602962 35.301712 
L 29.894223 34.706072 
L 29.185484 34.110432 
L 28.476745 33.514792 
L 27.768006 32.919152 
L 27.059267 32.323512 
L 26.350528 31.727872 
L 25.641789 31.132231 
L 24.93305 30.536591 
L 24.224311 29.940951 
L 23.606622 30.676063 
L 22.988932 31.411175 
L 23.405712 31.761441 
L 23.822492 32.111707 
L 24.239272 32.461973 
L 24.656052 32.812239 
L 25.072832 33.162504 
L 25.489612 33.51277 
L 25.906392 33.863036 
L 26.323172 34.213302 
L 26.739952 34.563568 
L 27.156732 34.913834 
L 27.573512 35.264099 
L 27.990292 35.614365 
L 28.407072 35.964631 
L 28.823852 36.314897 
L 29.240632 36.665163 
L 29.657412 37.015428 
L 30.074191 37.365694 
L 30.490971 37.71596 
L 30.907751 38.066226 
L 31.324531 38.416492 
L 31.741311 38.766758 
L 32.158091 39.117023 
L 32.574871 39.467289 
L 32.991651 39.817555 
L 33.408431 40.167821 
L 33.825211 40.518087 
L 34.241991 40.868352 
L 34.658771 41.218618 
L 35.075551 41.568884 
L 35.492331 41.91915 
L 35.909111 42.269416 
L 36.325891 42.619682 
z
" style="fill:none;stroke:#008000;stroke-linejoin:miter;stroke-width:0.4;"/>
   </g>
   <g id="patch_4">
    <path clip-path="url(#pa322dd4020)" d="M 50.448066 42.807085 
L 50.448066 42.807085 
L 50.268808 41.834651 
L 50.08955 40.862217 
L 49.386447 40.877276 
L 48.683344 40.892336 
L 47.980241 40.907395 
L 47.277138 40.922454 
L 47.351921 41.640555 
L 47.426704 42.358655 
z
" style="fill:#008000;opacity:0.1;"/>
   </g>
   <g id="patch_5">
    <path clip-path="url(#pa322dd4020)" d="M 50.448066 42.807085 
L 50.448066 42.807085 
L 50.268808 41.834651 
L 50.08955 40.862217 
L 49.386447 40.877276 
L 48.683344 40.892336 
L 47.980241 40.907395 
L 47.277138 40.922454 
L 47.351921 41.640555 
L 47.426704 42.358655 
z
" style="fill:none;stroke:#008000;stroke-linejoin:miter;stroke-width:0.4;"/>
   </g>
   <g id="line2d_1">
    <path clip-path="url(#pa322dd4020)" d="M 54.707007 38.571546 
L 53.185695 36.752729 
L 51.969378 35.299237 
L 50.033829 32.986256 
L 48.307232 30.922588 
L 46.305698 28.530406 
L 45.922987 28.073053 
L 44.133338 25.934089 
L 43.036527 24.623102 
L 41.939716 23.312115 
L 41.352453 22.60991 
" style="fill:none;stroke:#808080;stroke-linecap:square;stroke-width:0.4;"/>
   </g>
   <g id="line2d_2">
    <path clip-path="url(#pa322dd4020)" d="M 46.381214 41.049621 
L 44.257242 39.108657 
L 42.585632 37.581543 
L 40.914021 36.054428 
L 38.891959 34.206609 
L 36.869897 32.358789 
L 34.842703 30.506508 
L 32.815509 28.654226 
L 30.636183 26.663065 
L 28.456858 24.671905 
L 26.097541 22.516208 
L 23.738224 20.360512 
L 22.334951 19.078249 
L 20.931678 17.795986 
L 19.413666 16.409145 
L 17.895653 15.022304 
L 16.37764 13.635464 
L 14.859627 12.248623 
L 12.505809 10.097946 
L 10.151991 7.947269 
L 7.939673 5.92599 
L 5.727355 3.904711 
" style="fill:none;stroke:#808080;stroke-linecap:square;stroke-width:0.4;"/>
   </g>
   <g id="line2d_3">
    <path clip-path="url(#pa322dd4020)" d="M 41.242478 41.114319 
L 39.501951 39.45725 
L 38.224782 38.24108 
L 36.947612 37.02491 
L 35.482021 35.629703 
L 34.016429 34.234496 
L 32.49695 32.787419 
L 30.977471 31.340341 
L 29.31869 29.761077 
L 27.65991 28.181814 
L 26.03119 26.631274 
L 24.40247 25.080734 
L 22.65681 23.418366 
L 20.91115 21.755997 
L 19.00896 19.945268 
L 17.10677 18.134539 
L 15.118067 16.240984 
L 13.129363 14.347429 
L 11.365741 12.668328 
L 9.602119 10.989228 
L 8.237703 9.690232 
L 6.873288 8.391237 
L 5.202411 6.800539 
L 3.272727 4.963317 
" style="fill:none;stroke:#808080;stroke-linecap:square;stroke-width:0.4;"/>
   </g>
   <g id="line2d_4">
    <path clip-path="url(#pa322dd4020)" d="M 53.07572 39.548163 
L 52.000263 38.265133 
L 50.924805 36.982103 
L 49.849347 35.699073 
L 48.77389 34.416043 
L 47.698432 33.133013 
L 46.622974 31.849984 
L 45.547517 30.566954 
L 44.472059 29.283924 
" style="fill:none;stroke:#808080;stroke-linecap:square;stroke-width:0.4;"/>
   </g>
   <g id="line2d_5">
    <path clip-path="url(#pa322dd4020)" d="M 68.214792 34.457038 
L 66.271912 33.342099 
L 64.661887 32.418468 
L 63.051862 31.494837 
L 61.241317 30.455753 
L 59.430773 29.416668 
L 57.951984 28.568054 
L 56.473195 27.71944 
L 54.852173 26.789395 
L 53.231151 25.85935 
L 51.780222 25.026911 
L 50.329294 24.194472 
L 48.394111 23.084275 
L 46.458929 21.974077 
L 44.793917 21.018654 
L 43.128905 20.063232 
L 41.063587 18.878296 
L 38.998268 17.69336 
L 37.522045 16.84642 
L 36.045823 15.999479 
L 34.484187 15.103178 
" style="fill:none;stroke:#808080;stroke-linecap:square;stroke-width:0.4;"/>
   </g>
   <g id="line2d_6">
    <path clip-path="url(#pa322dd4020)" d="M 32.530309 39.577166 
L 31.194303 38.557044 
L 29.858298 37.536923 
L 28.522293 36.516802 
L 27.186287 35.49668 
L 25.850282 34.476559 
L 24.514277 33.456438 
L 23.178272 32.436316 
L 21.842266 31.416195 
" style="fill:none;stroke:#808080;stroke-linecap:square;stroke-width:0.4;"/>
   </g>
   <g id="line2d_7">
    <path clip-path="url(#pa322dd4020)" d="M 4.463383 4.479749 
L 4.69717 5.005218 
L 4.930957 5.530686 
L 5.164745 6.056155 
L 5.398532 6.581623 
L 5.632319 7.107092 
L 5.866106 7.63256 
L 6.099893 8.158028 
L 6.333681 8.683497 
L 6.567468 9.208965 
L 6.801255 9.734434 
L 7.035042 10.259902 
L 7.268829 10.785371 
L 7.502616 11.310839 
L 7.736404 11.836308 
L 7.970191 12.361776 
L 8.203978 12.887245 
L 8.727548 13.485639 
L 9.251117 14.084033 
L 9.774687 14.682427 
L 10.298257 15.280821 
L 10.821826 15.879215 
L 11.345396 16.477609 
L 11.868966 17.076003 
L 12.392535 17.674397 
L 12.888061 18.074581 
L 13.383588 18.474765 
L 13.879114 18.87495 
L 14.37464 19.275134 
L 14.870166 19.675318 
L 15.365692 20.075502 
L 15.861218 20.475687 
L 16.356745 20.875871 
L 16.852271 21.276055 
L 17.347797 21.676239 
L 17.843323 22.076424 
L 18.338849 22.476608 
L 18.834376 22.876792 
L 19.329902 23.276977 
L 19.825428 23.677161 
L 20.320954 24.077345 
L 20.683686 24.586011 
L 21.046418 25.094678 
L 21.40915 25.603344 
L 21.771883 26.11201 
L 22.134615 26.620677 
L 22.497347 27.129343 
L 22.860079 27.638009 
L 23.222811 28.146675 
L 23.742646 28.560873 
L 24.262481 28.975071 
L 24.782316 29.389269 
L 25.302152 29.803466 
L 25.821987 30.217664 
L 26.341822 30.631862 
L 26.861657 31.046059 
L 27.381492 31.460257 
L 27.901327 31.874455 
L 28.421162 32.288653 
L 28.940997 32.70285 
L 29.460832 33.117048 
L 29.980667 33.531246 
L 30.500503 33.945443 
L 31.020338 34.359641 
L 31.540173 34.773839 
L 32.060008 35.188036 
L 32.579843 35.602234 
L 33.099678 36.016432 
L 33.619513 36.43063 
L 34.139348 36.844827 
L 34.659183 37.259025 
L 35.179018 37.673223 
L 35.698854 38.08742 
L 36.218689 38.501618 
L 36.738524 38.915816 
L 37.258359 39.330013 
L 37.778194 39.744211 
L 38.298029 40.158409 
L 38.817864 40.572607 
L 39.337699 40.986804 
L 39.857534 41.401002 
" style="fill:none;stroke:#008000;stroke-linecap:square;stroke-width:0.4;"/>
   </g>
   <g id="line2d_8">
    <path clip-path="url(#pa322dd4020)" d="M 4.434057 3.940965 
L 5.047381 4.523472 
L 5.660706 5.105978 
L 6.274031 5.688485 
L 6.887356 6.270992 
L 7.50068 6.853499 
L 8.114005 7.436006 
L 8.72733 8.018513 
L 9.340655 8.60102 
L 9.95398 9.183527 
L 10.567304 9.766034 
L 11.180629 10.348541 
L 11.793954 10.931048 
L 12.407279 11.513554 
L 13.020603 12.096061 
L 13.633928 12.678568 
L 14.247253 13.261075 
L 14.860578 13.843582 
L 15.473902 14.426089 
L 16.087227 15.008596 
L 16.700552 15.591103 
L 17.313877 16.17361 
L 17.927202 16.756117 
L 18.540526 17.338624 
L 19.153851 17.921131 
L 19.767176 18.503637 
L 20.380501 19.086144 
L 20.993825 19.668651 
L 21.60715 20.251158 
L 22.220475 20.833665 
L 22.8338 21.416172 
L 23.447124 21.998679 
L 24.060449 22.581186 
L 24.673774 23.163693 
L 25.287099 23.7462 
L 25.900424 24.328707 
L 26.513748 24.911213 
L 27.127073 25.49372 
L 27.740398 26.076227 
L 28.353723 26.658734 
L 28.967047 27.241241 
L 29.580372 27.823748 
L 30.193697 28.406255 
L 30.807022 28.988762 
L 31.420346 29.571269 
L 32.033671 30.153776 
L 32.646996 30.736283 
L 33.260321 31.31879 
L 33.873646 31.901296 
L 34.48697 32.483803 
L 35.100295 33.06631 
L 35.71362 33.648817 
L 36.326945 34.231324 
L 36.940269 34.813831 
L 37.553594 35.396338 
L 38.166919 35.978845 
L 38.780244 36.561352 
L 39.393568 37.143859 
L 40.006893 37.726366 
L 40.620218 38.308872 
L 41.233543 38.891379 
L 41.846868 39.473886 
L 42.460192 40.056393 
L 43.073517 40.6389 
L 43.686842 41.221407 
" style="fill:none;stroke:#008000;stroke-linecap:square;stroke-width:0.4;"/>
   </g>
   <g id="line2d_9">
    <path clip-path="url(#pa322dd4020)" d="M 5.181882 4.06088 
L 5.59046 4.437692 
L 5.999038 4.814503 
L 6.407615 5.191314 
L 6.816193 5.568125 
L 7.224771 5.944936 
L 7.633349 6.321747 
L 8.041926 6.698558 
L 8.450504 7.07537 
L 8.859082 7.452181 
L 9.267659 7.828992 
L 9.676237 8.205803 
L 10.084815 8.582614 
L 10.493392 8.959425 
L 10.90197 9.336237 
L 11.310548 9.713048 
L 11.719125 10.089859 
L 12.127703 10.46667 
L 12.536281 10.843481 
L 12.944859 11.220292 
L 13.353436 11.597103 
L 13.762014 11.973915 
L 14.170592 12.350726 
L 14.579169 12.727537 
L 14.987747 13.104348 
L 15.396325 13.481159 
L 15.804902 13.85797 
L 16.21348 14.234781 
L 16.622058 14.611593 
L 17.030635 14.988404 
L 17.439213 15.365215 
L 17.847791 15.742026 
L 18.256369 16.118837 
L 18.989348 16.238474 
L 19.722327 16.358111 
L 20.455306 16.477748 
L 21.188285 16.597385 
L 21.602934 16.963433 
L 22.017584 17.329482 
L 22.432233 17.69553 
L 22.846882 18.061578 
L 23.261531 18.427627 
L 23.67618 18.793675 
L 24.09083 19.159724 
L 24.505479 19.525772 
L 24.920128 19.89182 
L 25.334777 20.257869 
L 25.749426 20.623917 
L 26.164076 20.989965 
L 26.578725 21.356014 
L 26.993374 21.722062 
L 27.408023 22.08811 
L 27.822672 22.454159 
L 28.237322 22.820207 
L 28.651971 23.186255 
L 29.06662 23.552304 
L 29.481269 23.918352 
L 29.895918 24.2844 
L 30.310568 24.650449 
L 30.725217 25.016497 
L 31.139866 25.382546 
L 31.554515 25.748594 
L 31.969164 26.114642 
L 32.383814 26.480691 
L 32.798463 26.846739 
L 33.213112 27.212787 
L 33.627761 27.578836 
L 34.04241 27.944884 
L 34.45706 28.310932 
L 34.871709 28.676981 
L 35.286358 29.043029 
L 35.701007 29.409077 
L 36.115656 29.775126 
L 36.530306 30.141174 
L 36.944955 30.507222 
L 37.359604 30.873271 
L 37.774253 31.239319 
L 38.188902 31.605367 
L 38.603552 31.971416 
L 39.018201 32.337464 
L 39.43285 32.703513 
L 39.847499 33.069561 
L 40.262148 33.435609 
L 40.676798 33.801658 
L 41.091447 34.167706 
L 41.506096 34.533754 
L 41.920745 34.899803 
L 42.335394 35.265851 
L 42.750044 35.631899 
L 43.164693 35.997948 
L 43.579342 36.363996 
L 43.993991 36.730044 
L 44.40864 37.096093 
L 44.82329 37.462141 
L 45.237939 37.828189 
L 45.652588 38.194238 
L 46.067237 38.560286 
L 46.481886 38.926335 
L 46.896536 39.292383 
L 47.311185 39.658431 
L 47.725834 40.02448 
" style="fill:none;stroke:#4169e1;stroke-linecap:square;stroke-width:0.4;"/>
   </g>
   <g id="line2d_10">
    <path clip-path="url(#pa322dd4020)" d="M 4.343878 3.522096 
L 4.983562 2.794513 
L 5.623246 2.066931 
L 6.356409 2.244853 
L 7.173518 2.789494 
L 7.990628 3.334135 
L 8.586322 3.709917 
L 9.182017 4.0857 
L 9.777711 4.461483 
L 10.373406 4.837266 
L 10.9691 5.213049 
L 11.564795 5.588831 
L 12.160489 5.964614 
L 12.756184 6.340397 
L 13.271047 6.608256 
L 13.78591 6.876114 
L 14.300774 7.143973 
L 14.815637 7.411831 
L 15.36166 7.206162 
L 15.907683 7.000492 
L 16.453705 6.794822 
L 16.999728 6.589153 
L 17.545751 6.383483 
L 18.091774 6.177813 
L 18.637796 5.972144 
L 19.183819 5.766474 
L 19.782263 5.758945 
L 20.380707 5.751415 
L 20.979151 5.743885 
L 21.577595 5.736356 
L 22.1984 5.923341 
L 22.819205 6.110326 
L 23.440011 6.297311 
L 24.060816 6.484296 
L 24.548873 6.660091 
L 25.03693 6.835887 
L 25.524987 7.011682 
L 26.013044 7.187477 
L 26.501101 7.363272 
L 26.989158 7.539067 
L 27.477215 7.714863 
L 27.965273 7.890658 
L 28.45333 8.066453 
L 28.941387 8.242248 
L 29.429444 8.418044 
L 29.917501 8.593839 
L 30.405558 8.769634 
L 30.893615 8.945429 
L 31.381672 9.121225 
L 31.869729 9.29702 
L 32.685006 9.065136 
L 33.500283 8.833252 
L 34.315559 8.601368 
L 35.130836 8.369485 
L 35.960959 8.376875 
L 36.791082 8.384265 
L 37.621206 8.391655 
L 38.451329 8.399045 
L 38.817818 8.821679 
L 39.184308 9.244313 
L 39.550797 9.666946 
L 39.917287 10.08958 
L 40.283777 10.512214 
L 40.650266 10.934847 
L 41.016756 11.357481 
L 41.383245 11.780114 
L 42.018989 12.314925 
L 42.654732 12.849736 
L 43.290476 13.384547 
L 43.926219 13.919357 
L 44.561963 14.454168 
L 45.197706 14.988979 
L 45.83345 15.52379 
L 46.469193 16.0586 
L 47.168539 16.750557 
L 47.867884 17.442513 
L 48.567229 18.134469 
L 49.266575 18.826425 
L 49.96592 19.518382 
L 50.665266 20.210338 
L 51.364611 20.902294 
L 52.063956 21.594251 
L 52.538862 22.132756 
L 53.013768 22.671262 
L 53.488674 23.209768 
L 53.96358 23.748274 
L 54.438486 24.28678 
L 54.913392 24.825285 
L 55.388298 25.363791 
L 55.863204 25.902297 
L 56.43168 26.336155 
L 57.000156 26.770014 
L 57.568632 27.203872 
L 58.137107 27.63773 
L 58.705583 28.071589 
L 59.274059 28.505447 
L 59.842535 28.939305 
L 60.411011 29.373164 
L 60.949427 29.541464 
L 61.487843 29.709765 
L 62.026259 29.878065 
L 62.564676 30.046366 
L 63.103092 30.214666 
L 63.641508 30.382967 
L 64.179924 30.551267 
L 64.71834 30.719568 
L 65.279393 31.183335 
L 65.840446 31.647103 
L 66.401498 32.11087 
L 66.962551 32.574638 
L 67.844912 32.87387 
L 68.727273 33.173102 
" style="fill:none;stroke:#008000;stroke-linecap:square;stroke-width:0.4;"/>
   </g>
   <g id="line2d_11">
    <path clip-path="url(#pa322dd4020)" d="M 5.121763 5.048095 
L 5.753841 5.279978 
L 6.385918 5.511862 
L 7.017996 5.743746 
L 7.650074 5.97563 
L 8.282151 6.207514 
L 8.914229 6.439397 
L 9.546307 6.671281 
L 10.178385 6.903165 
L 10.574842 7.254825 
L 10.9713 7.606485 
L 11.367757 7.958145 
L 11.764215 8.309806 
L 12.332599 8.107761 
L 12.900983 7.905717 
L 13.469368 7.703673 
L 14.037752 7.501629 
" style="fill:none;stroke:#008000;stroke-linecap:square;stroke-width:0.4;"/>
   </g>
   <g id="line2d_12">
    <path clip-path="url(#pa322dd4020)" d="M 39.408839 8.788354 
L 40.343804 8.758375 
L 41.27877 8.728396 
L 42.213735 8.698417 
L 43.148701 8.668438 
L 43.717085 8.627304 
L 44.285469 8.58617 
L 44.853853 8.545036 
L 45.422237 8.503902 
L 45.990622 8.462768 
L 46.559006 8.421634 
L 47.12739 8.3805 
L 47.695774 8.339366 
L 48.219344 9.098601 
L 48.742914 9.857836 
L 49.266483 10.61707 
L 49.790053 11.376305 
L 50.313622 12.135539 
L 50.837192 12.894774 
L 51.360762 13.654009 
L 51.884331 14.413243 
L 52.284455 14.953666 
L 52.684578 15.49409 
L 53.084702 16.034513 
L 53.484825 16.574936 
L 53.884948 17.115359 
L 54.285072 17.655782 
L 54.685195 18.196205 
L 55.085319 18.736628 
L 55.485442 19.277051 
L 55.885566 19.817474 
L 56.285689 20.357897 
L 56.685812 20.89832 
L 57.085936 21.438743 
L 57.486059 21.979166 
L 57.886183 22.51959 
L 58.286306 23.060013 
L 58.806118 23.478881 
L 59.32593 23.89775 
L 59.845743 24.316619 
L 60.365555 24.735488 
L 60.885367 25.154357 
L 61.405179 25.573226 
L 61.924991 25.992094 
L 62.444804 26.410963 
L 63.27511 26.762624 
L 64.105417 27.114284 
L 64.935723 27.465944 
L 65.76603 27.817604 
L 66.558578 28.191574 
L 67.351127 28.565544 
L 67.695163 29.48555 
L 68.0392 30.405555 
L 68.383236 31.325561 
L 68.727273 32.245566 
" style="fill:none;stroke:#008000;stroke-linecap:square;stroke-width:0.4;"/>
   </g>
   <g id="line2d_13">
    <path clip-path="url(#pa322dd4020)" d="M 45.870933 9.32658 
L 45.841056 10.05974 
L 45.81118 10.7929 
L 45.781304 11.52606 
L 45.751427 12.25922 
L 45.594347 12.767747 
L 45.437267 13.276274 
L 45.280187 13.784801 
L 45.123107 14.293328 
" style="fill:none;stroke:#008000;stroke-linecap:square;stroke-width:0.4;"/>
   </g>
   <g id="line2d_14">
    <path clip-path="url(#pa322dd4020)" d="M 46.230182 9.446496 
L 46.577976 9.955163 
L 46.92577 10.463829 
L 47.273564 10.972495 
L 47.621358 11.481162 
L 47.969152 11.989828 
L 48.316946 12.498494 
L 48.66474 13.00716 
L 49.012534 13.515827 
L 49.147161 14.140365 
L 49.281788 14.764904 
L 49.416415 15.389442 
L 49.551042 16.013981 
L 49.685669 16.638519 
L 49.820296 17.263057 
L 49.954923 17.887596 
L 50.08955 18.512134 
" style="fill:none;stroke:#4169e1;stroke-linecap:square;stroke-width:0.4;"/>
   </g>
   <g id="line2d_15">
    <path clip-path="url(#pa322dd4020)" d="M 57.418975 33.861363 
L 58.107048 33.831419 
L 58.795121 33.801475 
L 59.483194 33.77153 
L 60.171267 33.741586 
L 60.85934 33.711642 
L 61.547413 33.681698 
L 62.235486 33.651754 
L 62.923559 33.62181 
L 63.611632 33.591866 
L 64.299705 33.561922 
L 64.987778 33.531978 
L 65.675851 33.502034 
L 66.363924 33.472089 
L 67.051996 33.442145 
L 67.740069 33.412201 
L 68.428142 33.382257 
" style="fill:none;stroke:#008000;stroke-linecap:square;stroke-width:0.4;"/>
   </g>
   <g id="line2d_16">
    <path clip-path="url(#pa322dd4020)" d="M 57.778224 29.103771 
L 57.875368 29.649807 
L 57.972513 30.195842 
L 58.069657 30.741878 
L 58.166801 31.287913 
L 57.946164 32.045265 
L 57.725528 32.802617 
L 57.504892 33.55997 
L 57.284256 34.317322 
L 57.06362 35.074674 
L 56.842984 35.832026 
L 56.622348 36.589379 
L 56.401712 37.346731 
L 56.181076 38.104083 
L 55.96044 38.861435 
L 55.739804 39.618788 
L 55.519168 40.37614 
L 55.298532 41.133492 
L 55.077895 41.890844 
L 54.857259 42.648196 
L 54.636623 43.405549 
" style="fill:none;stroke:#008000;stroke-linecap:square;stroke-width:0.4;"/>
   </g>
   <g id="line2d_17">
    <path clip-path="url(#pa322dd4020)" d="M 13.499611 8.488843 
L 14.182139 8.621622 
L 14.864667 8.754401 
L 15.547196 8.88718 
L 16.229724 9.019958 
L 16.912253 9.152737 
L 17.594781 9.285516 
L 18.27731 9.418295 
L 18.959838 9.551074 
L 19.642366 9.683853 
L 20.324895 9.816632 
L 21.007423 9.949411 
L 21.689952 10.08219 
L 22.37248 10.214969 
L 23.055009 10.347748 
L 23.737537 10.480527 
L 24.420065 10.613305 
L 25.227827 10.927457 
L 26.035589 11.241609 
L 26.843351 11.55576 
L 27.651112 11.869912 
L 28.458874 12.184064 
L 29.266636 12.498215 
L 30.074398 12.812367 
L 30.882159 13.126518 
L 31.271102 12.774998 
L 31.660045 12.423477 
L 32.048987 12.071956 
L 32.43793 11.720435 
L 32.565134 11.15948 
L 32.692338 10.598525 
L 32.819541 10.03757 
L 32.946745 9.476615 
" style="fill:none;stroke:#008000;stroke-linecap:square;stroke-width:0.4;"/>
   </g>
   <g id="line2d_18">
    <path clip-path="url(#pa322dd4020)" d="M 21.547535 10.823019 
L 21.728901 11.303588 
L 21.910267 11.784158 
L 22.091633 12.264728 
L 22.272999 12.745298 
L 22.454365 13.225867 
L 22.635731 13.706437 
L 22.817097 14.187007 
L 22.998463 14.667577 
L 23.179829 15.148146 
L 23.361196 15.628716 
L 23.542562 16.109286 
L 23.723928 16.589855 
L 23.905294 17.070425 
L 24.08666 17.550995 
L 24.268026 18.031565 
L 24.449392 18.512134 
" style="fill:none;stroke:#4169e1;stroke-linecap:square;stroke-width:0.4;"/>
   </g>
   <g id="line2d_19">
    <path clip-path="url(#pa322dd4020)" d="M 32.76712 14.742315 
L 32.841903 15.531459 
L 32.916685 16.320603 
L 32.991468 17.109746 
L 33.06625 17.89889 
L 33.141033 18.688034 
L 33.215816 19.477178 
L 33.290598 20.266322 
L 33.365381 21.055466 
L 33.567367 21.904428 
L 33.769353 22.753391 
L 33.971339 23.602353 
L 34.173326 24.451315 
L 34.375312 25.300278 
L 34.577298 26.14924 
L 34.779284 26.998202 
L 34.981271 27.847165 
" style="fill:none;stroke:#000000;stroke-linecap:square;stroke-width:0.4;"/>
   </g>
   <g id="line2d_20">
    <path clip-path="url(#pa322dd4020)" d="M 32.43793 15.789766 
L 31.862031 15.658834 
L 31.286132 15.527903 
L 30.710233 15.396972 
L 30.134334 15.26604 
L 29.558435 15.135109 
L 28.982535 15.004178 
L 28.406636 14.873246 
L 27.830737 14.742315 
L 26.895772 14.787214 
L 25.960806 14.832112 
L 25.025841 14.877011 
L 24.090875 14.92191 
" style="fill:none;stroke:#008000;stroke-linecap:square;stroke-width:0.4;"/>
   </g>
   <g id="line2d_21">
    <path clip-path="url(#pa322dd4020)" d="M 34.05382 15.939242 
L 34.70079 16.217872 
L 35.34776 16.496502 
L 35.99473 16.775132 
L 36.6417 17.053762 
L 37.288671 17.332393 
L 37.935641 17.611023 
L 38.582611 17.889653 
L 39.229581 18.168283 
L 39.876551 18.446913 
L 40.523521 18.725543 
L 41.170491 19.004173 
L 41.817461 19.282803 
L 42.464431 19.561433 
L 43.111401 19.840063 
L 43.758371 20.118693 
L 44.405341 20.397323 
" style="fill:none;stroke:#4169e1;stroke-linecap:square;stroke-width:0.4;"/>
   </g>
   <g id="line2d_22">
    <path clip-path="url(#pa322dd4020)" d="M 35.489352 14.712196 
L 36.293448 14.846893 
L 37.097544 14.981589 
L 37.90164 15.116285 
L 38.705736 15.250981 
L 39.509832 15.385677 
L 40.313928 15.520373 
L 41.118024 15.65507 
L 41.92212 15.789766 
L 42.39336 16.253394 
L 42.8646 16.717022 
L 43.33584 17.18065 
L 43.807081 17.644278 
L 43.979007 18.212763 
L 44.150934 18.781248 
L 44.32286 19.349733 
L 44.494787 19.918217 
" style="fill:none;stroke:#4169e1;stroke-linecap:square;stroke-width:0.4;"/>
   </g>
   <g id="line2d_23">
    <path clip-path="url(#pa322dd4020)" d="M 41.62299 21.743727 
L 42.475657 21.661459 
L 43.328325 21.579191 
L 44.180993 21.496923 
L 45.033661 21.414656 
L 45.809622 21.859704 
L 46.585583 22.304752 
L 47.361544 22.7498 
L 48.137505 23.194848 
L 48.913465 23.639896 
L 49.689426 24.084944 
L 50.465387 24.529993 
L 51.241348 24.975041 
L 52.017309 25.420089 
L 52.79327 25.865137 
L 53.56923 26.310185 
L 54.345191 26.755233 
L 55.121152 27.200282 
L 55.897113 27.64533 
L 56.673074 28.090378 
L 57.449035 28.535426 
" style="fill:none;stroke:#008000;stroke-linecap:square;stroke-width:0.4;"/>
   </g>
   <g id="line2d_24">
    <path clip-path="url(#pa322dd4020)" d="M 50.269174 25.214036 
L 50.674888 25.761954 
L 51.080602 26.309871 
L 51.486316 26.857789 
L 51.89203 27.405707 
L 52.297743 27.953625 
L 52.703457 28.501543 
L 53.109171 29.049461 
L 53.514885 29.597378 
L 53.920599 30.145296 
L 54.326312 30.693214 
L 54.732026 31.241132 
L 55.13774 31.78905 
L 55.543454 32.336967 
L 55.949167 32.884885 
L 56.354881 33.432803 
L 56.760595 33.980721 
" style="fill:none;stroke:#008000;stroke-linecap:square;stroke-width:0.4;"/>
   </g>
   <g id="line2d_25">
    <path clip-path="url(#pa322dd4020)" d="M 44.464727 22.162596 
L 44.8144 22.602973 
L 45.164073 23.04335 
L 45.513745 23.483727 
L 45.863418 23.924104 
L 46.213091 24.364481 
L 46.562763 24.804858 
L 46.912436 25.245235 
L 47.262109 25.685612 
L 47.611781 26.125989 
L 47.961454 26.566366 
L 48.311127 27.006743 
L 48.660799 27.44712 
L 49.010472 27.887497 
L 49.360145 28.327874 
L 49.709817 28.768251 
L 50.05949 29.208628 
L 50.409163 29.649005 
L 50.758835 30.089382 
L 51.108508 30.529759 
L 51.458181 30.970136 
L 51.807853 31.410513 
L 52.157526 31.85089 
L 52.507199 32.291267 
L 52.856871 32.731644 
L 53.206544 33.172021 
L 53.556217 33.612398 
L 53.905889 34.052775 
L 54.255562 34.493152 
L 54.605235 34.933529 
L 54.954907 35.373906 
L 55.30458 35.814283 
L 55.654253 36.25466 
" style="fill:none;stroke:#008000;stroke-linecap:square;stroke-width:0.4;"/>
   </g>
   <g id="line2d_26">
    <path clip-path="url(#pa322dd4020)" d="M 45.123107 28.355831 
L 45.659736 28.982287 
L 46.196365 29.608742 
L 46.732994 30.235198 
L 47.269624 30.861654 
L 47.806253 31.48811 
L 48.342882 32.114565 
L 48.879511 32.741021 
L 49.41614 33.367477 
L 49.952769 33.993933 
L 50.489398 34.620388 
L 51.026027 35.246844 
L 51.562656 35.8733 
L 52.099285 36.499755 
L 52.635915 37.126211 
L 53.172544 37.752667 
L 53.709173 38.379123 
" style="fill:none;stroke:#008000;stroke-linecap:square;stroke-width:0.4;"/>
   </g>
   <g id="line2d_27">
    <path clip-path="url(#pa322dd4020)" d="M 43.268206 29.761914 
L 43.810471 30.401477 
L 44.352737 31.04104 
L 44.895002 31.680602 
L 45.437267 32.320165 
L 45.979533 32.959728 
L 46.521798 33.599291 
L 47.064063 34.238854 
L 47.606328 34.878417 
L 48.148594 35.517979 
L 48.690859 36.157542 
L 49.233124 36.797105 
L 49.77539 37.436668 
L 50.317655 38.076231 
L 50.85992 38.715793 
L 51.402185 39.355356 
L 51.944451 39.994919 
" style="fill:none;stroke:#008000;stroke-linecap:square;stroke-width:0.4;"/>
   </g>
  </g>
 </g>
 <defs>
  <clipPath id="pa322dd4020">
   <rect height="45.47248" width="72" x="0" y="0"/>
  </clipPath>
 </defs>
</svg>
