<?xml version="1.0" encoding="utf-8" standalone="no"?>
<!DOCTYPE svg PUBLIC "-//W3C//DTD SVG 1.1//EN"
  "http://www.w3.org/Graphics/SVG/1.1/DTD/svg11.dtd">
<svg height="72pt" version="1.1" viewBox="0 0 66.307664 72" width="66.307664pt" xmlns="http://www.w3.org/2000/svg" xmlns:xlink="http://www.w3.org/1999/xlink">
 <metadata>
  <rdf:RDF xmlns:cc="http://creativecommons.org/ns#" xmlns:dc="http://purl.org/dc/elements/1.1/" xmlns:rdf="http://www.w3.org/1999/02/22-rdf-syntax-ns#">
   <cc:Work>
    <dc:type rdf:resource="http://purl.org/dc/dcmitype/StillImage"/>
    <dc:date>2022-04-19T00:35:16.815125</dc:date>
    <dc:format>image/svg+xml</dc:format>
    <dc:creator>
     <cc:Agent>
      <dc:title>Matplotlib v3.4.3, https://matplotlib.org/</dc:title>
     </cc:Agent>
    </dc:creator>
   </cc:Work>
  </rdf:RDF>
 </metadata>
 <defs>
  <style type="text/css">*{stroke-linecap:butt;stroke-linejoin:round;}</style>
 </defs>
 <g id="figure_1">
  <g id="patch_1">
   <path d="M 0 72 
L 66.307664 72 
L 66.307664 0 
L 0 0 
z
" style="fill:#ffffff;"/>
  </g>
  <g id="axes_1">
   <g id="patch_2">
    <path clip-path="url(#pa42fd89b8c)" d="M 15.916648 37.624719 
L 15.916648 37.624719 
L 15.592168 37.92329 
L 15.468016 38.295756 
L 15.343864 38.668222 
L 15.02268 39.058852 
L 14.737753 39.432064 
L 14.452825 39.805277 
L 14.364381 40.154106 
L 14.275936 40.502936 
L 14.866299 40.781601 
L 15.456663 41.060267 
L 15.845966 41.20694 
L 16.235269 41.353612 
L 16.624572 41.500285 
L 17.013875 41.646957 
L 17.49913 41.731552 
L 17.984385 41.816147 
L 18.46964 41.900742 
L 18.954896 41.985337 
L 19.341635 42.012208 
L 19.599095 42.030122 
L 20.258676 42.075406 
L 20.918257 42.120689 
L 21.504958 41.985337 
L 22.091659 41.849985 
L 22.458347 41.5284 
L 22.825036 41.206815 
L 23.191724 40.88523 
L 23.558412 40.563645 
L 23.851763 40.15759 
L 23.343984 39.954313 
L 22.836206 39.751037 
L 22.531593 39.593168 
L 22.226981 39.435299 
L 21.922369 39.27743 
L 21.617757 39.119561 
L 21.268007 39.480582 
L 20.918257 39.841603 
L 20.329908 39.76298 
L 19.741559 39.684356 
L 19.565036 39.660968 
L 19.22554 39.615685 
L 18.644424 39.350579 
L 18.063308 39.085474 
L 17.482192 38.820369 
L 16.901076 38.555263 
z
" style="fill:#ff0000;opacity:0.1;"/>
   </g>
   <g id="patch_3">
    <path clip-path="url(#pa42fd89b8c)" d="M 15.916648 37.624719 
L 15.916648 37.624719 
L 15.592168 37.92329 
L 15.468016 38.295756 
L 15.343864 38.668222 
L 15.02268 39.058852 
L 14.737753 39.432064 
L 14.452825 39.805277 
L 14.364381 40.154106 
L 14.275936 40.502936 
L 14.866299 40.781601 
L 15.456663 41.060267 
L 15.845966 41.20694 
L 16.235269 41.353612 
L 16.624572 41.500285 
L 17.013875 41.646957 
L 17.49913 41.731552 
L 17.984385 41.816147 
L 18.46964 41.900742 
L 18.954896 41.985337 
L 19.341635 42.012208 
L 19.599095 42.030122 
L 20.258676 42.075406 
L 20.918257 42.120689 
L 21.504958 41.985337 
L 22.091659 41.849985 
L 22.458347 41.5284 
L 22.825036 41.206815 
L 23.191724 40.88523 
L 23.558412 40.563645 
L 23.851763 40.15759 
L 23.343984 39.954313 
L 22.836206 39.751037 
L 22.531593 39.593168 
L 22.226981 39.435299 
L 21.922369 39.27743 
L 21.617757 39.119561 
L 21.268007 39.480582 
L 20.918257 39.841603 
L 20.329908 39.76298 
L 19.741559 39.684356 
L 19.565036 39.660968 
L 19.22554 39.615685 
L 18.644424 39.350579 
L 18.063308 39.085474 
L 17.482192 38.820369 
L 16.901076 38.555263 
z
" style="fill:none;stroke:#ff0000;stroke-dasharray:1.48,0.64;stroke-dashoffset:0;stroke-linejoin:miter;stroke-width:0.4;"/>
   </g>
   <g id="patch_4">
    <path clip-path="url(#pa42fd89b8c)" d="M 21.463574 28.309827 
L 21.463574 28.309827 
L 21.563647 27.810096 
L 21.663719 27.310364 
L 21.763791 26.810632 
L 21.863864 26.3109 
L 22.038464 26.908165 
L 22.213065 27.50543 
L 22.387665 28.102694 
L 22.562265 28.699959 
L 22.853602 29.02963 
L 23.144938 29.359302 
L 23.396859 29.610474 
L 23.648779 29.861646 
L 23.9007 30.112818 
L 24.152621 30.36399 
L 24.404542 30.615162 
L 24.656462 30.866335 
L 24.908383 31.117507 
L 25.160304 31.368679 
L 25.413186 31.703451 
L 25.666068 32.038223 
L 25.91895 32.372994 
L 26.171832 32.707766 
L 26.395324 32.972125 
L 26.618816 33.236484 
L 26.842309 33.500843 
L 27.065801 33.765202 
L 27.31383 34.153219 
L 27.56186 34.541236 
L 27.809889 34.929253 
L 28.057919 35.31727 
L 28.305948 35.705286 
L 28.553978 36.093303 
L 28.802007 36.48132 
L 29.050037 36.869337 
L 29.222165 37.280493 
L 29.394294 37.691649 
L 29.566422 38.102805 
L 29.73855 38.513961 
L 29.090322 38.565713 
L 28.732881 38.60179 
L 28.375441 38.637868 
L 28.162661 38.277842 
L 27.949881 37.917816 
L 27.792768 37.449434 
L 27.635655 36.981052 
L 27.478542 36.51267 
L 27.321429 36.044288 
L 26.97644 35.561599 
L 26.631451 35.078911 
L 26.367216 34.705449 
L 26.102981 34.331988 
L 25.719355 33.836113 
L 25.335728 33.340237 
L 24.952102 32.844362 
L 24.568475 32.348487 
L 24.295268 31.96781 
L 24.02206 31.587133 
L 23.748852 31.206456 
L 23.475644 30.825779 
L 23.038365 30.858124 
L 22.620404 30.408154 
L 22.202444 29.958184 
L 21.784483 29.508213 
L 21.366523 29.058243 
L 21.351508 28.994548 
z
" style="opacity:0.1;"/>
   </g>
   <g id="patch_5">
    <path clip-path="url(#pa42fd89b8c)" d="M 21.463574 28.309827 
L 21.463574 28.309827 
L 21.563647 27.810096 
L 21.663719 27.310364 
L 21.763791 26.810632 
L 21.863864 26.3109 
L 22.038464 26.908165 
L 22.213065 27.50543 
L 22.387665 28.102694 
L 22.562265 28.699959 
L 22.853602 29.02963 
L 23.144938 29.359302 
L 23.396859 29.610474 
L 23.648779 29.861646 
L 23.9007 30.112818 
L 24.152621 30.36399 
L 24.404542 30.615162 
L 24.656462 30.866335 
L 24.908383 31.117507 
L 25.160304 31.368679 
L 25.413186 31.703451 
L 25.666068 32.038223 
L 25.91895 32.372994 
L 26.171832 32.707766 
L 26.395324 32.972125 
L 26.618816 33.236484 
L 26.842309 33.500843 
L 27.065801 33.765202 
L 27.31383 34.153219 
L 27.56186 34.541236 
L 27.809889 34.929253 
L 28.057919 35.31727 
L 28.305948 35.705286 
L 28.553978 36.093303 
L 28.802007 36.48132 
L 29.050037 36.869337 
L 29.222165 37.280493 
L 29.394294 37.691649 
L 29.566422 38.102805 
L 29.73855 38.513961 
L 29.090322 38.565713 
L 28.732881 38.60179 
L 28.375441 38.637868 
L 28.162661 38.277842 
L 27.949881 37.917816 
L 27.792768 37.449434 
L 27.635655 36.981052 
L 27.478542 36.51267 
L 27.321429 36.044288 
L 26.97644 35.561599 
L 26.631451 35.078911 
L 26.367216 34.705449 
L 26.102981 34.331988 
L 25.719355 33.836113 
L 25.335728 33.340237 
L 24.952102 32.844362 
L 24.568475 32.348487 
L 24.295268 31.96781 
L 24.02206 31.587133 
L 23.748852 31.206456 
L 23.475644 30.825779 
L 23.038365 30.858124 
L 22.620404 30.408154 
L 22.202444 29.958184 
L 21.784483 29.508213 
L 21.366523 29.058243 
L 21.351508 28.994548 
z
" style="fill:none;stroke:#000000;stroke-linejoin:miter;stroke-width:0.4;"/>
   </g>
   <g id="patch_6">
    <path clip-path="url(#pa42fd89b8c)" d="M 30.951139 12.854342 
L 30.951139 12.854342 
L 31.30272 13.154032 
L 31.654301 13.453722 
L 32.005883 13.753411 
L 32.357464 14.053101 
L 32.709045 14.352791 
L 33.060626 14.652481 
L 33.412207 14.952171 
L 33.763789 15.251861 
L 34.224323 15.693122 
L 34.684858 16.134384 
L 35.145393 16.575646 
L 35.605928 17.016908 
L 35.938739 17.33588 
L 36.271551 17.654853 
L 36.604363 17.973825 
L 36.937175 18.292798 
L 37.200953 18.580358 
L 37.46473 18.867919 
L 37.728507 19.155479 
L 37.992285 19.443039 
L 38.256062 19.7306 
L 38.51984 20.01816 
L 38.783617 20.305721 
L 39.047395 20.593281 
L 38.964535 21.112669 
L 38.881675 21.632056 
L 38.798816 22.151444 
L 38.715956 22.670832 
L 38.395276 22.392913 
L 38.074595 22.114994 
L 37.753915 21.837075 
L 37.433234 21.559156 
L 37.112554 21.281237 
L 36.791873 21.003317 
L 36.471193 20.725398 
L 36.150512 20.447479 
L 35.779704 20.095726 
L 35.408896 19.743973 
L 35.038087 19.39222 
L 34.667279 19.040467 
L 34.296471 18.688714 
L 33.925662 18.336961 
L 33.554854 17.985208 
L 33.184046 17.633455 
L 32.813238 17.281702 
L 32.442429 16.929949 
L 32.071621 16.578196 
L 31.700813 16.226443 
L 31.330004 15.87469 
L 30.959196 15.522937 
L 30.588388 15.171184 
L 30.21758 14.819431 
L 30.335506 14.328283 
L 30.453432 13.837135 
z
" style="fill:#ff0000;opacity:0.1;"/>
   </g>
   <g id="patch_7">
    <path clip-path="url(#pa42fd89b8c)" d="M 30.951139 12.854342 
L 30.951139 12.854342 
L 31.30272 13.154032 
L 31.654301 13.453722 
L 32.005883 13.753411 
L 32.357464 14.053101 
L 32.709045 14.352791 
L 33.060626 14.652481 
L 33.412207 14.952171 
L 33.763789 15.251861 
L 34.224323 15.693122 
L 34.684858 16.134384 
L 35.145393 16.575646 
L 35.605928 17.016908 
L 35.938739 17.33588 
L 36.271551 17.654853 
L 36.604363 17.973825 
L 36.937175 18.292798 
L 37.200953 18.580358 
L 37.46473 18.867919 
L 37.728507 19.155479 
L 37.992285 19.443039 
L 38.256062 19.7306 
L 38.51984 20.01816 
L 38.783617 20.305721 
L 39.047395 20.593281 
L 38.964535 21.112669 
L 38.881675 21.632056 
L 38.798816 22.151444 
L 38.715956 22.670832 
L 38.395276 22.392913 
L 38.074595 22.114994 
L 37.753915 21.837075 
L 37.433234 21.559156 
L 37.112554 21.281237 
L 36.791873 21.003317 
L 36.471193 20.725398 
L 36.150512 20.447479 
L 35.779704 20.095726 
L 35.408896 19.743973 
L 35.038087 19.39222 
L 34.667279 19.040467 
L 34.296471 18.688714 
L 33.925662 18.336961 
L 33.554854 17.985208 
L 33.184046 17.633455 
L 32.813238 17.281702 
L 32.442429 16.929949 
L 32.071621 16.578196 
L 31.700813 16.226443 
L 31.330004 15.87469 
L 30.959196 15.522937 
L 30.588388 15.171184 
L 30.21758 14.819431 
L 30.335506 14.328283 
L 30.453432 13.837135 
z
" style="fill:none;stroke:#ff0000;stroke-linejoin:miter;stroke-width:0.4;"/>
   </g>
   <g id="patch_8">
    <path clip-path="url(#pa42fd89b8c)" d="M 41.393467 23.967622 
L 41.393467 23.967622 
L 41.200097 24.295925 
L 41.006727 24.624227 
L 40.813358 24.95253 
L 40.619988 25.280833 
L 40.786257 25.617284 
L 40.952525 25.953735 
L 41.118794 26.290187 
L 41.285062 26.626638 
L 41.451331 26.963089 
L 41.6176 27.299541 
L 41.783868 27.635992 
L 41.950137 27.972443 
L 42.018622 28.633776 
L 42.216753 28.974333 
L 42.414883 29.314889 
L 42.613014 29.655446 
L 42.811145 29.996002 
L 43.009275 30.336559 
L 43.207406 30.677116 
L 43.405537 31.017672 
L 43.603667 31.358229 
L 43.366716 31.864803 
L 43.691196 32.345936 
L 44.015676 32.82707 
L 44.340157 33.308203 
L 44.664637 33.789337 
L 44.989117 34.27047 
L 45.313597 34.751603 
L 45.638077 35.232737 
L 45.962557 35.71387 
L 46.322379 36.136596 
L 46.6822 36.559321 
L 47.194923 36.541158 
L 47.707645 36.522995 
L 47.431691 36.07203 
L 47.155736 35.621065 
L 46.879781 35.170099 
L 46.603827 34.719134 
L 46.345817 34.415339 
L 46.087808 34.111544 
L 45.896773 33.76993 
L 45.705738 33.428316 
L 45.514703 33.086701 
L 45.323668 32.745087 
L 45.132633 32.403473 
L 44.941598 32.061859 
L 44.750564 31.720245 
L 44.559529 31.378631 
L 44.369821 31.070358 
L 44.180114 30.762084 
L 43.990407 30.45381 
L 43.800699 30.145536 
L 43.603209 29.717337 
L 43.40572 29.289138 
L 43.20823 28.860938 
L 43.01074 28.432739 
L 42.814258 28.006654 
L 42.617775 27.58057 
L 42.421292 27.154485 
L 42.22481 26.728401 
L 42.177932 26.373351 
L 42.131055 26.018301 
z
" style="fill:#4169e1;opacity:0.1;"/>
   </g>
   <g id="patch_9">
    <path clip-path="url(#pa42fd89b8c)" d="M 41.393467 23.967622 
L 41.393467 23.967622 
L 41.200097 24.295925 
L 41.006727 24.624227 
L 40.813358 24.95253 
L 40.619988 25.280833 
L 40.786257 25.617284 
L 40.952525 25.953735 
L 41.118794 26.290187 
L 41.285062 26.626638 
L 41.451331 26.963089 
L 41.6176 27.299541 
L 41.783868 27.635992 
L 41.950137 27.972443 
L 42.018622 28.633776 
L 42.216753 28.974333 
L 42.414883 29.314889 
L 42.613014 29.655446 
L 42.811145 29.996002 
L 43.009275 30.336559 
L 43.207406 30.677116 
L 43.405537 31.017672 
L 43.603667 31.358229 
L 43.366716 31.864803 
L 43.691196 32.345936 
L 44.015676 32.82707 
L 44.340157 33.308203 
L 44.664637 33.789337 
L 44.989117 34.27047 
L 45.313597 34.751603 
L 45.638077 35.232737 
L 45.962557 35.71387 
L 46.322379 36.136596 
L 46.6822 36.559321 
L 47.194923 36.541158 
L 47.707645 36.522995 
L 47.431691 36.07203 
L 47.155736 35.621065 
L 46.879781 35.170099 
L 46.603827 34.719134 
L 46.345817 34.415339 
L 46.087808 34.111544 
L 45.896773 33.76993 
L 45.705738 33.428316 
L 45.514703 33.086701 
L 45.323668 32.745087 
L 45.132633 32.403473 
L 44.941598 32.061859 
L 44.750564 31.720245 
L 44.559529 31.378631 
L 44.369821 31.070358 
L 44.180114 30.762084 
L 43.990407 30.45381 
L 43.800699 30.145536 
L 43.603209 29.717337 
L 43.40572 29.289138 
L 43.20823 28.860938 
L 43.01074 28.432739 
L 42.814258 28.006654 
L 42.617775 27.58057 
L 42.421292 27.154485 
L 42.22481 26.728401 
L 42.177932 26.373351 
L 42.131055 26.018301 
z
" style="fill:none;stroke:#4169e1;stroke-linejoin:miter;stroke-width:0.4;"/>
   </g>
   <g id="line2d_1">
    <path clip-path="url(#pa42fd89b8c)" d="M 54.974755 44.562495 
L 54.415155 42.891995 
L 53.784506 41.008515 
L 53.280756 39.663207 
L 52.777007 38.3179 
L 52.276553 36.982296 
L 51.776099 35.646692 
L 51.260446 34.284217 
L 50.744794 32.921741 
L 50.208816 31.505772 
L 49.672838 30.089803 
L 49.078262 28.519075 
L 48.483687 26.948347 
L 47.777961 25.083777 
L 47.072235 23.219206 
L 46.604742 21.98412 
L 46.137249 20.749035 
L 45.55421 19.208662 
L 44.971172 17.668289 
L 44.254092 15.774358 
L 43.816447 14.618145 
L 43.378802 13.461932 
L 42.954707 12.341299 
L 42.530612 11.220665 
" style="fill:none;stroke:#808080;stroke-linecap:square;stroke-width:0.4;"/>
   </g>
   <g id="line2d_2">
    <path clip-path="url(#pa42fd89b8c)" d="M 42.302084 54.859683 
L 41.316925 53.341951 
L 40.511035 52.100646 
L 39.705145 50.85934 
L 38.818684 49.493879 
L 37.932223 48.128418 
L 37.174126 46.986139 
L 36.416029 45.843859 
L 35.559233 44.563242 
L 34.702437 43.282624 
L 34.046976 42.319735 
L 33.391515 41.356847 
L 32.736054 40.393958 
L 32.080594 39.431069 
L 30.983367 37.821278 
L 29.886141 36.211487 
L 29.102042 35.063236 
L 28.317942 33.914985 
L 27.221815 32.309424 
L 26.125687 30.703863 
L 24.875743 28.87313 
L 23.625798 27.042397 
L 22.878505 25.948386 
L 22.131212 24.854375 
L 21.092033 23.332911 
L 20.052855 21.811447 
L 18.999942 20.269581 
L 17.94703 18.727715 
L 17.733151 18.414714 
" style="fill:none;stroke:#808080;stroke-linecap:square;stroke-width:0.4;"/>
   </g>
   <g id="line2d_3">
    <path clip-path="url(#pa42fd89b8c)" d="M 44.943338 54.800964 
L 43.949389 53.218542 
L 43.066224 51.812526 
L 42.183059 50.406509 
L 41.287077 48.98009 
L 40.391094 47.553671 
L 39.505732 46.232249 
L 38.62037 44.910827 
L 37.638323 43.445096 
L 36.656276 41.979365 
L 35.557219 40.339469 
L 34.458161 38.699572 
L 33.396643 37.026833 
L 32.335124 35.354093 
L 31.291367 33.708971 
L 30.631054 32.769719 
L 29.97074 31.830467 
L 28.748629 30.092291 
L 27.526518 28.354115 
L 26.42563 26.678141 
L 25.324741 25.002167 
L 24.506583 23.75912 
L 23.323292 21.961728 
L 22.645033 20.931163 
L 21.877048 19.764749 
" style="fill:none;stroke:#808080;stroke-linecap:square;stroke-width:0.4;"/>
   </g>
   <g id="line2d_4">
    <path clip-path="url(#pa42fd89b8c)" d="M 46.811113 59.402428 
L 45.655656 58.44153 
L 44.708951 57.6543 
" style="fill:none;stroke:#808080;stroke-linecap:square;stroke-width:0.4;"/>
   </g>
   <g id="line2d_5">
    <path clip-path="url(#pa42fd89b8c)" d="M 52.176389 49.988013 
L 52.077506 49.330661 
L 51.874615 47.981621 
L 51.547571 45.806538 
L 51.273631 43.986255 
" style="fill:none;stroke:#808080;stroke-linecap:square;stroke-width:0.4;"/>
   </g>
   <g id="line2d_6">
    <path clip-path="url(#pa42fd89b8c)" d="M 56.067221 44.685407 
L 57.074079 44.155071 
L 58.080938 43.624736 
L 59.087797 43.094401 
L 60.094656 42.564065 
" style="fill:none;stroke:#808080;stroke-linecap:square;stroke-width:0.4;"/>
   </g>
   <g id="line2d_7">
    <path clip-path="url(#pa42fd89b8c)" d="M 18.888974 21.981632 
L 18.770407 22.315036 
L 18.65184 22.648439 
L 18.533273 22.981843 
L 18.414706 23.315246 
L 18.237084 23.814853 
L 18.059462 24.314461 
L 17.897497 24.871792 
L 17.735532 25.429123 
L 17.573566 25.986454 
L 17.411601 26.543785 
L 17.456922 26.971487 
L 17.502243 27.399188 
L 17.547564 27.82689 
L 17.592885 28.254592 
L 17.748441 28.779578 
L 17.903998 29.304564 
L 18.059554 29.82955 
L 18.21511 30.354536 
L 18.279933 30.976557 
L 18.344756 31.598578 
L 18.409579 32.220599 
L 18.474401 32.84262 
L 18.124468 33.348199 
L 17.774535 33.853778 
L 17.562167 34.184196 
L 17.349799 34.514613 
L 17.137432 34.845031 
L 16.925064 35.175449 
L 16.712696 35.505866 
L 16.500328 35.836284 
L 16.28796 36.166702 
L 16.075592 36.497119 
L 15.820147 36.948956 
L 15.564701 37.400792 
L 15.348625 37.764177 
L 15.132549 38.127561 
L 14.916473 38.490946 
L 14.700397 38.854331 
L 14.494118 39.394494 
L 14.287839 39.934657 
L 14.081559 40.474821 
L 13.87528 41.014984 
L 13.845798 41.486476 
L 13.816317 41.957968 
L 13.786835 42.42946 
L 13.757354 42.900952 
L 13.747557 43.382272 
L 13.73776 43.863592 
L 13.727964 44.344912 
L 13.718167 44.826232 
L 13.759917 45.228307 
L 13.798005 45.596792 
L 13.836093 45.965277 
L 14.052169 46.269819 
L 14.268245 46.574361 
L 14.484321 46.878902 
L 14.700397 47.183444 
L 15.230882 47.556656 
L 15.761367 47.929869 
L 16.311445 48.0279 
L 16.861523 48.12593 
L 17.352638 48.381457 
L 17.843753 48.636983 
L 18.216941 48.852949 
L 18.59013 49.068914 
L 19.258135 49.108226 
L 19.769026 48.676295 
L 20.063658 48.224458 
L 20.358291 47.772622 
L 20.869182 47.419065 
L 21.380074 47.065509 
L 21.773039 46.849294 
L 22.166004 46.633079 
L 22.578563 46.279523 
L 22.991121 45.925966 
L 23.158122 45.611721 
L 23.325123 45.297475 
L 23.492124 44.98323 
L 23.659125 44.668985 
L 23.914388 44.217149 
L 24.169651 43.765313 
L 24.759098 43.58841 
L 25.348546 43.411507 
L 25.721827 43.53927 
L 26.095107 43.667033 
L 26.468387 43.794797 
L 26.841668 43.92256 
L 27.065618 44.324385 
L 27.289567 44.726211 
L 27.646093 44.979001 
L 28.002618 45.23179 
L 28.362256 45.150803 
L 28.721895 45.069816 
L 29.081533 44.988828 
L 29.441171 44.907841 
L 29.778835 44.654554 
L 30.197803 44.435603 
" style="fill:none;stroke:#4169e1;stroke-linecap:square;stroke-width:0.4;"/>
   </g>
   <g id="line2d_8">
    <path clip-path="url(#pa42fd89b8c)" d="M 21.549272 25.132045 
L 21.303714 25.505383 
L 21.058157 25.87872 
L 20.812599 26.252057 
L 20.567042 26.625394 
L 20.419726 27.077106 
L 20.27241 27.528818 
L 20.125093 27.980529 
L 19.977777 28.432241 
L 19.869739 28.923389 
L 19.761701 29.414537 
L 19.653663 29.905685 
L 19.545625 30.396833 
L 19.663368 30.829013 
L 19.781112 31.261194 
L 20.151187 31.818773 
L 20.521263 32.376353 
L 20.464864 33.008202 
L 20.408464 33.640052 
L 20.352065 34.271901 
L 20.295665 34.90375 
L 20.374679 35.332447 
L 20.453694 35.761144 
L 20.532708 36.189841 
L 20.611722 36.618538 
L 20.792182 36.9344 
L 20.972642 37.250263 
L 21.153102 37.566125 
L 21.333562 37.881987 
L 21.660789 38.051302 
L 21.988016 38.220616 
L 22.315243 38.38993 
L 22.64247 38.559244 
L 23.257462 38.818751 
L 23.872455 39.078259 
L 24.487447 39.337766 
L 25.102439 39.597273 
L 25.717432 39.85678 
L 26.332424 40.116288 
L 26.947417 40.375795 
L 27.562409 40.635302 
L 27.974235 40.877828 
L 28.386061 41.120354 
L 28.797887 41.36288 
L 29.209713 41.605406 
L 29.62154 41.847932 
L 30.033366 42.090458 
L 30.445192 42.332985 
L 30.857018 42.575511 
L 31.139153 42.80684 
L 31.421287 43.03817 
L 31.703422 43.2695 
L 31.985557 43.500829 
L 32.267692 43.732159 
L 32.549826 43.963489 
L 32.831961 44.194818 
L 33.114096 44.426148 
L 33.322847 44.730752 
L 33.531598 45.035356 
L 33.74035 45.339959 
L 33.949101 45.644563 
L 34.157852 45.949167 
L 34.366604 46.253771 
L 34.575355 46.558375 
L 34.784106 46.862978 
L 34.958982 47.195822 
L 35.133857 47.528666 
L 35.308732 47.861509 
L 35.483607 48.194353 
L 35.658482 48.527196 
L 35.833357 48.86004 
L 36.008232 49.192883 
L 36.183107 49.525727 
L 36.54421 49.864106 
L 36.905313 50.202486 
L 37.266416 50.540865 
L 37.627519 50.879245 
L 37.926547 51.042837 
L 38.225574 51.206428 
L 38.524601 51.37002 
L 38.823628 51.533611 
L 39.122655 51.697203 
L 39.421682 51.860794 
L 39.720709 52.024386 
L 40.019736 52.187978 
" style="fill:none;stroke:#4169e1;stroke-linecap:square;stroke-width:0.4;"/>
   </g>
   <g id="line2d_9">
    <path clip-path="url(#pa42fd89b8c)" d="M 20.364517 38.438323 
L 20.07373 38.780435 
L 19.782943 39.122546 
L 19.705943 39.54154 
L 19.628943 39.960533 
L 19.551943 40.379527 
L 19.474943 40.79852 
L 19.462125 41.435532 
L 19.449307 42.072544 
L 19.436489 42.709556 
L 19.423671 43.346568 
L 19.410853 43.98358 
L 19.398035 44.620592 
L 19.385216 45.257604 
L 19.372398 45.894616 
L 19.552034 46.339237 
L 19.73167 46.783857 
L 19.911306 47.228478 
L 20.090942 47.673099 
" style="fill:none;stroke:#008000;stroke-linecap:square;stroke-width:0.4;"/>
   </g>
   <g id="line2d_10">
    <path clip-path="url(#pa42fd89b8c)" d="M 30.076947 42.642191 
L 29.739924 42.629253 
L 29.4029 42.616315 
L 29.065876 42.603377 
L 28.728853 42.590439 
L 28.340099 42.668316 
L 27.951346 42.746193 
L 27.627232 42.914637 
L 27.303118 43.08308 
" style="fill:none;stroke:#008000;stroke-linecap:square;stroke-width:0.4;"/>
   </g>
   <g id="line2d_11">
    <path clip-path="url(#pa42fd89b8c)" d="M 31.519895 44.603797 
L 30.928067 44.426646 
L 30.336238 44.249494 
L 29.817656 44.171617 
L 29.299074 44.09374 
L 28.897319 44.041988 
L 28.495564 43.990236 
L 28.093809 43.938483 
L 27.692055 43.886731 
" style="fill:none;stroke:#4169e1;stroke-linecap:square;stroke-width:0.4;"/>
   </g>
   <g id="line2d_12">
    <path clip-path="url(#pa42fd89b8c)" d="M 21.666832 25.940175 
L 21.632956 26.369121 
L 21.599079 26.798067 
L 21.48628 27.395954 
L 21.373481 27.993841 
L 21.317082 28.3887 
L 21.260682 28.783559 
L 21.179379 29.186131 
L 21.077933 29.689719 
L 21.259858 30.020012 
L 21.441783 30.350306 
L 21.623708 30.680599 
L 21.805633 31.010892 
L 21.993601 31.341434 
L 22.181569 31.671976 
L 22.369537 32.002518 
L 22.557504 32.333061 
L 22.93344 32.734637 
L 23.309375 33.136214 
L 23.840776 33.291968 
L 24.372176 33.447723 
L 24.618466 33.888362 
L 24.864756 34.329002 
L 25.123955 34.68542 
L 25.383155 35.041839 
L 25.642355 35.398257 
L 25.901554 35.754675 
L 26.089522 36.260005 
L 26.27749 36.765335 
L 26.465457 37.270665 
L 26.653425 37.775995 
L 26.77776 38.376121 
L 26.902096 38.976247 
" style="fill:none;stroke:#000000;stroke-linecap:square;stroke-width:0.4;"/>
   </g>
   <g id="line2d_13">
    <path clip-path="url(#pa42fd89b8c)" d="M 21.945899 23.576992 
L 22.288325 24.057068 
L 22.63075 24.537144 
L 22.973176 25.01722 
L 23.315601 25.497296 
L 23.609965 25.933543 
L 23.904328 26.36979 
L 24.198691 26.806037 
L 24.493055 27.242283 
L 24.787418 27.67853 
L 25.081782 28.114777 
L 25.376145 28.551024 
L 25.670509 28.987271 
L 25.964872 29.423517 
L 26.259235 29.859764 
L 26.553599 30.296011 
L 26.847962 30.732258 
L 27.142326 31.168505 
L 27.436689 31.604751 
L 27.731052 32.040998 
L 28.025416 32.477245 
L 28.319779 32.913492 
L 28.614143 33.349739 
L 28.908506 33.785985 
L 29.20287 34.222232 
L 29.497233 34.658479 
L 29.791596 35.094726 
L 30.08596 35.530973 
L 30.380323 35.967219 
L 30.674687 36.403466 
L 30.96905 36.839713 
L 31.263413 37.27596 
L 31.557777 37.712207 
L 31.85214 38.148453 
L 32.146504 38.5847 
L 32.440867 39.020947 
L 32.73523 39.457194 
L 33.029594 39.893441 
L 33.323957 40.329687 
L 33.618321 40.765934 
L 33.912684 41.202181 
L 34.207048 41.638428 
L 34.501411 42.074675 
L 34.795774 42.510921 
L 35.090138 42.947168 
L 35.384501 43.383415 
L 35.678865 43.819662 
L 35.973228 44.255909 
L 36.267591 44.692155 
L 36.561955 45.128402 
L 36.856318 45.564649 
L 37.150682 46.000896 
L 37.445045 46.437143 
L 37.739409 46.873389 
L 38.033772 47.309636 
L 38.328135 47.745883 
L 38.622499 48.18213 
L 38.916862 48.618377 
L 39.211226 49.054623 
L 39.505589 49.49087 
L 39.799952 49.927117 
L 40.094316 50.363364 
L 40.388679 50.799611 
L 40.683043 51.235857 
L 40.977406 51.672104 
L 41.271769 52.108351 
L 41.566133 52.544598 
L 41.860496 52.980845 
L 42.15486 53.417091 
" style="fill:none;stroke:#000000;stroke-linecap:square;stroke-width:0.4;"/>
   </g>
   <g id="line2d_14">
    <path clip-path="url(#pa42fd89b8c)" d="M 27.22621 45.800566 
L 27.020022 46.203138 
L 26.813834 46.60571 
L 26.725389 47.008407 
L 26.636945 47.411103 
L 26.5485 47.8138 
L 26.460056 48.216497 
L 26.479649 48.687989 
L 26.499242 49.159481 
L 26.631909 49.498358 
L 26.764576 49.837235 
L 26.897243 50.176112 
L 27.02991 50.514989 
L 27.25093 50.947045 
L 27.47195 51.379101 
L 27.69297 51.811157 
L 27.91399 52.243213 
L 28.110473 52.611574 
L 28.306955 52.979935 
L 28.503438 53.348296 
L 28.699921 53.716657 
L 29.230222 53.589018 
L 29.760524 53.461379 
L 30.173083 53.284477 
L 30.585641 53.107574 
L 30.894007 53.058807 
L 30.984466 53.385742 
L 30.794942 53.806477 
L 30.605418 54.227212 
L 30.585641 54.895014 
L 30.728105 55.199555 
L 30.870568 55.504097 
L 31.013032 55.808639 
L 31.155496 56.11318 
L 31.577942 56.221163 
L 32.000389 56.329146 
" style="fill:none;stroke:#4169e1;stroke-linecap:square;stroke-width:0.4;"/>
   </g>
   <g id="line2d_15">
    <path clip-path="url(#pa42fd89b8c)" d="M 27.593905 45.558227 
L 27.885607 45.75914 
L 28.17731 45.960052 
L 28.469012 46.160965 
L 28.760715 46.361878 
L 29.026415 46.621012 
L 29.292115 46.880146 
L 29.557815 47.13928 
L 29.823516 47.398414 
L 30.115127 47.709425 
L 30.406738 48.020435 
L 30.698348 48.331446 
L 30.989959 48.642457 
L 31.417717 48.901964 
L 31.845474 49.161471 
L 31.909289 49.500348 
L 31.973105 49.839225 
L 32.036921 50.178103 
L 32.100736 50.51698 
L 32.198886 51.126063 
L 32.572441 51.557994 
" style="fill:none;stroke:#4169e1;stroke-linecap:square;stroke-width:0.4;"/>
   </g>
   <g id="line2d_16">
    <path clip-path="url(#pa42fd89b8c)" d="M 27.549591 39.512181 
L 27.892108 39.378197 
L 28.234625 39.244214 
L 28.577142 39.11023 
L 28.919659 38.976247 
L 29.284424 38.901853 
L 29.64919 38.82746 
L 30.013955 38.753066 
L 30.378721 38.678672 
L 30.966795 38.59669 
L 31.55487 38.514707 
L 32.142944 38.432725 
L 32.731019 38.350743 
L 33.073444 38.112633 
L 33.41587 37.874523 
L 33.832823 37.755468 
L 34.249776 37.636413 
L 34.66673 37.517359 
L 35.083683 37.398304 
" style="fill:none;stroke:#008000;stroke-linecap:square;stroke-width:0.4;"/>
   </g>
   <g id="line2d_17">
    <path clip-path="url(#pa42fd89b8c)" d="M 25.276765 22.352855 
L 25.602584 22.790058 
L 25.928403 23.227261 
L 26.254223 23.664464 
L 26.580042 24.101667 
L 26.905861 24.53887 
L 27.23168 24.976074 
L 27.557499 25.413277 
L 27.883318 25.85048 
L 28.209138 26.287683 
L 28.534957 26.724886 
L 28.860776 27.162089 
L 29.186595 27.599293 
L 29.512414 28.036496 
L 29.838233 28.473699 
L 30.164053 28.910902 
L 30.489872 29.348105 
L 30.815691 29.785308 
L 31.14151 30.222512 
L 31.467329 30.659715 
L 31.793149 31.096918 
L 32.118968 31.534121 
L 32.444787 31.971324 
L 32.770606 32.408527 
L 33.096425 32.84573 
L 33.422244 33.282934 
L 33.748064 33.720137 
L 34.073883 34.15734 
L 34.399702 34.594543 
L 34.725521 35.031746 
L 35.05134 35.468949 
L 35.377159 35.906153 
L 35.702979 36.343356 
" style="fill:none;stroke:#000000;stroke-linecap:square;stroke-width:0.4;"/>
   </g>
   <g id="line2d_18">
    <path clip-path="url(#pa42fd89b8c)" d="M 22.537728 19.947872 
L 23.087806 19.791123 
L 23.362845 19.51594 
L 23.637884 19.240758 
L 23.871173 18.797879 
L 24.104462 18.355 
L 24.291239 18.021099 
L 24.478017 17.687198 
L 24.797003 17.158231 
L 25.327305 17.079608 
L 25.708001 17.324435 
L 26.088698 17.569263 
L 26.493932 17.825535 
L 26.899166 18.081808 
L 27.154428 18.670987 
L 26.800833 19.183532 
L 26.447237 19.696078 
L 26.223837 20.24694 
L 26.000436 20.797802 
L 26.191975 21.323285 
L 26.655623 21.542237 
L 27.251296 21.408378 
L 27.84697 21.274519 
L 28.427628 21.363841 
L 29.008287 21.453163 
L 29.208615 21.819409 
L 29.408943 22.185655 
L 29.679129 22.652296 
L 29.949316 23.118936 
L 30.219502 23.585576 
L 30.489689 24.052217 
L 30.779469 24.425429 
L 31.069248 24.798642 
L 31.359028 25.171855 
L 31.648808 25.545068 
L 31.938588 25.91828 
L 32.228368 26.291493 
L 32.518147 26.664706 
L 32.807927 27.037918 
L 33.181024 27.404787 
L 33.554122 27.771655 
L 33.927219 28.138523 
L 34.300316 28.505391 
" style="fill:none;stroke:#000000;stroke-linecap:square;stroke-width:0.4;"/>
   </g>
   <g id="line2d_19">
    <path clip-path="url(#pa42fd89b8c)" d="M 35.400472 30.391359 
L 35.754068 30.823291 
L 36.107663 31.255222 
L 36.299202 31.549936 
L 36.49074 31.84465 
L 36.682279 32.139363 
L 36.873817 32.434077 
L 37.065356 32.72879 
L 37.256894 33.023504 
L 37.448433 33.318218 
L 37.639971 33.612931 
L 37.944492 34.025456 
L 38.249012 34.43798 
L 38.553533 34.850505 
L 38.858054 35.263029 
L 38.966092 35.616586 
L 39.07413 35.970143 
L 39.182167 36.3237 
L 39.290205 36.677257 
L 39.634096 36.97197 
L 39.977986 37.266684 
L 40.321877 37.561398 
L 40.665767 37.856111 
L 41.044815 38.20351 
L 41.423864 38.550909 
L 41.802912 38.898308 
L 42.181961 39.245707 
L 42.561009 39.593106 
L 42.940058 39.940504 
L 43.319106 40.287903 
L 43.698155 40.635302 
L 43.904434 40.934867 
L 44.110713 41.234433 
L 44.316992 41.533998 
L 44.523272 41.833564 
L 44.650995 42.339391 
L 44.778717 42.845219 
L 44.90644 43.351047 
L 45.034163 43.856874 
L 45.262554 44.343046 
L 45.490944 44.829218 
L 45.719335 45.31539 
L 45.947725 45.801561 
L 46.176115 46.287733 
L 46.404506 46.773905 
L 46.632896 47.260077 
L 46.861287 47.746249 
" style="fill:none;stroke:#4169e1;stroke-linecap:square;stroke-width:0.4;"/>
   </g>
   <g id="line2d_20">
    <path clip-path="url(#pa42fd89b8c)" d="M 36.684476 38.002908 
L 36.933742 38.374286 
L 37.183007 38.745664 
L 37.432273 39.117042 
L 37.681538 39.488419 
L 37.930804 39.859797 
L 38.18007 40.231175 
L 38.429335 40.602553 
L 38.678601 40.97393 
L 38.927866 41.345308 
L 39.177132 41.716686 
L 39.426397 42.088064 
L 39.675663 42.459441 
L 39.924929 42.830819 
L 40.174194 43.202197 
L 40.42346 43.573575 
L 40.672725 43.944953 
L 40.921991 44.31633 
L 41.171256 44.687708 
L 41.420522 45.059086 
L 41.669788 45.430464 
L 41.919053 45.801841 
L 42.168319 46.173219 
L 42.417584 46.544597 
L 42.66685 46.915975 
L 42.916115 47.287352 
L 43.165381 47.65873 
L 43.414647 48.030108 
L 43.663912 48.401486 
L 43.913178 48.772863 
L 44.162443 49.144241 
L 44.411709 49.515619 
L 44.660974 49.886997 
" style="fill:none;stroke:#4169e1;stroke-linecap:square;stroke-width:0.4;"/>
   </g>
   <g id="line2d_21">
    <path clip-path="url(#pa42fd89b8c)" d="M 18.169332 16.649169 
L 18.108354 16.274215 
L 18.047377 15.89926 
L 17.950509 15.303862 
L 17.853641 14.708463 
L 17.853641 14.223286 
L 17.853641 13.73811 
L 17.853641 13.252933 
L 17.853641 12.767757 
L 18.011578 12.214904 
L 18.169515 11.662052 
L 18.327451 11.109199 
L 18.485388 10.556347 
L 18.643325 10.150167 
L 18.801262 9.743987 
L 18.959199 9.337807 
L 19.117136 8.931627 
L 19.241288 8.615641 
L 19.36544 8.299654 
L 19.489592 7.983667 
L 19.613744 7.66768 
L 19.647621 7.25018 
L 19.681497 6.832679 
L 19.715373 6.415178 
L 19.749249 5.997678 
L 19.862048 5.568981 
L 19.974847 5.140284 
L 20.584072 5.117642 
L 21.193296 5.095001 
L 21.667381 5.523946 
L 22.141467 5.952892 
L 22.434817 6.4943 
L 22.728168 7.035707 
L 23.021518 7.464653 
L 23.314869 7.893598 
L 23.698495 8.096626 
L 24.082121 8.299654 
L 24.646299 8.299654 
L 25.210477 8.299654 
L 25.607837 8.251883 
L 26.005197 8.204111 
L 26.338833 8.164302 
L 26.609661 8.480289 
L 26.880488 8.796276 
L 27.264114 8.886593 
L 27.647741 8.976911 
L 27.983025 8.804984 
L 28.318309 8.633057 
L 28.601222 8.342698 
L 28.884135 8.052338 
L 29.167048 7.761979 
L 29.449961 7.471619 
L 29.74029 7.248314 
L 30.030619 7.025008 
L 30.320948 6.801702 
L 30.611277 6.578397 
L 30.918178 6.507735 
L 31.266921 6.427183 
L 31.615664 6.346632 
L 31.964407 6.26608 
L 32.31315 6.185528 
L 32.661893 6.104976 
L 33.010636 6.024425 
L 33.359379 5.943873 
L 33.708122 5.863321 
L 34.281364 5.967572 
L 34.854606 6.071823 
L 35.427848 6.176073 
L 36.00109 6.280324 
L 36.403028 6.563219 
L 36.804966 6.846115 
L 37.206904 7.12901 
L 37.608842 7.411905 
L 38.003455 7.791587 
L 38.398068 8.171269 
L 38.792681 8.55095 
L 39.187295 8.930632 
L 39.447868 9.287921 
L 39.708441 9.64521 
L 39.969014 10.002499 
L 40.229586 10.359788 
L 40.804843 10.575007 
L 41.380099 10.790227 
L 41.955356 11.005446 
L 42.530612 11.220665 
" style="fill:none;stroke:#008000;stroke-linecap:square;stroke-width:0.4;"/>
   </g>
   <g id="line2d_22">
    <path clip-path="url(#pa42fd89b8c)" d="M 28.433671 18.915317 
L 28.517904 18.474677 
L 28.602137 18.034037 
L 28.751193 17.586804 
L 28.900249 17.139571 
L 29.049305 16.692337 
L 29.19836 16.245104 
L 29.341007 15.817402 
L 29.483654 15.3897 
L 29.626301 14.961999 
L 29.768947 14.534297 
L 29.973029 14.090423 
L 30.177111 13.646548 
L 30.381193 13.202674 
L 30.585275 12.7588 
L 30.669508 12.399147 
L 30.753741 12.039494 
L 30.837974 11.679842 
L 30.922207 11.320189 
L 31.226911 10.970115 
L 31.531614 10.620042 
L 31.745493 10.237872 
L 31.959371 9.855702 
L 32.063381 9.231193 
L 32.166658 8.611162 
L 32.114836 8.047362 
L 32.063015 7.483562 
L 32.114836 7.127019 
L 32.166658 6.770477 
" style="fill:none;stroke:#008000;stroke-linecap:square;stroke-width:0.4;"/>
   </g>
   <g id="line2d_23">
    <path clip-path="url(#pa42fd89b8c)" d="M 27.527983 18.435116 
L 27.798078 18.818281 
L 28.068173 19.201446 
L 28.338268 19.584611 
L 28.608363 19.967777 
L 28.932477 20.527596 
L 29.256591 21.087415 
" style="fill:none;stroke:#008000;stroke-linecap:square;stroke-width:0.4;"/>
   </g>
   <g id="line2d_24">
    <path clip-path="url(#pa42fd89b8c)" d="M 30.022745 20.517643 
L 30.283089 20.812357 
L 30.543433 21.107071 
L 30.803777 21.401784 
L 31.064121 21.696498 
L 31.324465 21.991212 
L 31.584809 22.285925 
L 31.845153 22.580639 
L 32.105497 22.875352 
L 32.513158 23.307533 
L 32.920818 23.739713 
L 33.328478 24.171893 
L 33.736138 24.604074 
L 34.143798 25.036254 
L 34.551459 25.468434 
L 34.959119 25.900615 
L 35.366779 26.332795 
L 35.732689 26.742832 
L 36.098599 27.152868 
L 36.464509 27.562904 
L 36.830419 27.972941 
L 37.196329 28.382977 
L 37.562239 28.793013 
L 37.928149 29.20305 
L 38.294059 29.613086 
L 38.554357 30.128742 
L 38.814655 30.644397 
L 39.074954 31.160053 
L 39.335252 31.675709 
L 39.596099 31.980748 
L 39.856947 32.285787 
L 40.117795 32.590826 
L 40.378642 32.895865 
" style="fill:none;stroke:#000000;stroke-linecap:square;stroke-width:0.4;"/>
   </g>
   <g id="line2d_25">
    <path clip-path="url(#pa42fd89b8c)" d="M 21.788787 19.959317 
L 22.022922 20.306265 
L 22.257058 20.653213 
L 22.491194 21.000161 
L 22.725329 21.347109 
L 22.959465 21.694056 
L 23.193601 22.041004 
L 23.427736 22.387952 
L 23.661872 22.7349 
L 23.896008 23.081848 
L 24.130143 23.428796 
L 24.364279 23.775744 
L 24.598415 24.122692 
L 24.83255 24.469639 
L 25.066686 24.816587 
L 25.300822 25.163535 
L 25.534958 25.510483 
L 25.769093 25.857431 
L 26.003229 26.204379 
L 26.237365 26.551327 
L 26.4715 26.898275 
L 26.705636 27.245223 
L 26.939772 27.59217 
L 27.173907 27.939118 
L 27.408043 28.286066 
L 27.642179 28.633014 
L 27.876314 28.979962 
L 28.11045 29.32691 
L 28.344586 29.673858 
L 28.578721 30.020806 
L 28.812857 30.367753 
L 29.046993 30.714701 
L 29.281128 31.061649 
L 29.628109 31.593353 
L 29.975089 32.125057 
L 30.32207 32.65676 
L 30.66905 33.188464 
L 31.01603 33.720168 
L 31.363011 34.251872 
L 31.709991 34.783575 
L 32.056972 35.315279 
L 32.403952 35.846983 
L 32.750933 36.378687 
L 33.097913 36.91039 
L 33.444893 37.442094 
L 33.791874 37.973798 
L 34.138854 38.505501 
L 34.485835 39.037205 
L 34.832815 39.568909 
L 34.988829 39.806272 
L 35.249116 40.202189 
L 35.509403 40.598105 
L 35.76969 40.994022 
L 36.029977 41.389938 
L 36.290263 41.785855 
L 36.55055 42.181771 
L 36.810837 42.577688 
L 37.071124 42.973604 
L 37.331411 43.369521 
L 37.591697 43.765437 
L 37.851984 44.161354 
L 38.112271 44.55727 
L 38.372558 44.953187 
L 38.632845 45.349103 
L 38.893132 45.74502 
L 39.153418 46.140936 
L 39.413705 46.536853 
L 39.673992 46.932769 
L 39.934279 47.328686 
L 40.194566 47.724602 
L 40.454852 48.120519 
L 40.715139 48.516435 
L 40.975426 48.912352 
L 41.235713 49.308268 
L 41.496 49.704185 
L 41.756287 50.100101 
L 42.016573 50.496018 
L 42.27686 50.891934 
L 42.537147 51.287851 
L 42.797434 51.683767 
L 43.057721 52.079684 
L 43.318007 52.4756 
" style="fill:none;stroke:#000000;stroke-linecap:square;stroke-width:0.4;"/>
   </g>
   <g id="line2d_26">
    <path clip-path="url(#pa42fd89b8c)" d="M 38.818867 23.240603 
L 38.710829 23.662956 
L 38.602791 24.085308 
L 38.494753 24.507661 
L 38.386715 24.930013 
L 37.95438 25.421161 
L 37.522045 25.912309 
L 37.286376 26.19707 
L 37.050706 26.481831 
L 36.815037 26.766593 
L 36.579368 27.051354 
L 36.373089 27.365724 
L 36.166809 27.680093 
L 35.96053 27.994463 
L 35.754251 28.308832 
L 35.577407 28.628053 
L 35.400564 28.947275 
L 35.22372 29.266496 
L 35.046877 29.585717 
L 34.870033 29.904939 
L 34.69319 30.22416 
L 34.516346 30.543381 
L 34.339503 30.862602 
L 34.182344 31.20148 
L 34.025186 31.540357 
L 33.868027 31.879234 
L 33.710868 32.218111 
L 33.55371 32.556988 
L 33.396551 32.895865 
L 33.239392 33.234743 
L 33.082234 33.57362 
L 33.082234 34.074533 
L 33.082234 34.575447 
L 33.082234 35.076361 
L 33.082234 35.577274 
L 33.082234 36.078188 
L 33.082234 36.579102 
L 33.082234 37.080015 
L 33.082234 37.580929 
L 33.018876 38.024803 
L 32.955518 38.468678 
L 32.902598 38.838967 
L 32.849677 39.209256 
L 32.796757 39.579545 
L 32.743837 39.949835 
L 32.690917 40.320124 
L 32.637996 40.690413 
L 32.585076 41.060702 
L 32.532156 41.430992 
L 32.502674 41.882828 
L 32.473193 42.334664 
L 32.443711 42.7865 
L 32.41423 43.238336 
L 32.502628 43.758906 
L 32.591027 44.279476 
L 32.679426 44.800045 
L 32.767825 45.320615 
L 32.856224 45.841184 
L 32.944623 46.361754 
L 33.033022 46.882323 
L 33.12142 47.402893 
L 33.170587 47.746622 
L 33.219753 48.090351 
L 33.26892 48.43408 
L 33.318086 48.777808 
L 33.327883 49.151021 
L 33.337679 49.524234 
L 33.347476 49.897447 
L 33.357273 50.270659 
L 33.278716 50.820526 
L 33.20016 51.370393 
L 33.003677 51.900853 
L 32.807195 52.431312 
L 32.787052 52.829903 
L 32.766909 53.228495 
L 33.0544 53.645 
L 33.090382 54.003409 
L 33.126365 54.361817 
L 33.162347 54.720226 
L 33.198329 55.078635 
L 32.899485 55.569036 
L 32.600641 56.059438 
L 32.526296 56.641898 
L 32.451951 57.224359 
L 32.703918 57.571447 
L 32.955884 57.918535 
L 33.380803 57.944908 
L 33.805722 57.971282 
L 34.230641 57.997656 
L 34.65556 58.024029 
L 34.998992 57.882955 
L 35.342425 57.741881 
L 35.685857 57.600806 
L 36.02929 57.459732 
L 36.3632 57.273125 
L 36.697111 57.086519 
L 37.031022 56.899913 
L 37.364932 56.713306 
L 37.846251 56.458029 
L 38.327569 56.202751 
L 38.808887 55.947474 
L 39.290205 55.692196 
L 39.702856 55.564433 
L 40.115506 55.43667 
L 40.528156 55.308907 
L 40.940806 55.181144 
L 41.471108 55.279423 
L 42.001409 55.377702 
" style="fill:none;stroke:#008000;stroke-linecap:square;stroke-width:0.4;"/>
   </g>
   <g id="line2d_27">
    <path clip-path="url(#pa42fd89b8c)" d="M 38.858054 25.519191 
L 38.956295 25.912122 
L 39.054536 26.305053 
L 39.152777 26.697984 
L 39.251019 27.090915 
L 39.34926 27.483845 
L 39.447501 27.876776 
L 39.545743 28.269707 
L 39.643984 28.662638 
L 39.968189 29.202801 
L 40.292395 29.742964 
L 40.6166 30.283127 
L 40.940806 30.823291 
L 41.117604 31.245643 
L 41.294401 31.667995 
L 41.471199 32.090348 
L 41.647997 32.5127 
L 41.66759 33.180502 
L 41.687183 33.848304 
L 41.903259 34.260829 
L 42.119335 34.673353 
L 42.335411 35.085878 
L 42.551487 35.498402 
L 42.870749 35.729234 
L 43.19001 35.960066 
L 43.509271 36.190898 
L 43.828533 36.42173 
L 44.147794 36.652562 
L 44.467055 36.883395 
L 44.786317 37.114227 
L 45.105578 37.345059 
L 45.419895 37.541493 
L 45.734213 37.737927 
L 46.04853 37.934362 
L 46.362847 38.130796 
L 46.579015 38.474649 
L 46.795182 38.818503 
L 47.01135 39.162356 
L 47.227517 39.506209 
L 47.394518 40.046372 
L 47.561519 40.586536 
L 47.72852 41.126699 
L 47.895521 41.666862 
L 47.90042 42.035161 
L 47.905318 42.40346 
L 47.910216 42.771758 
L 47.915115 43.140057 
L 47.920013 43.508356 
L 47.924911 43.876655 
L 47.92981 44.244953 
L 47.934708 44.613252 
L 47.836467 45.222211 
L 47.738225 45.83117 
L 47.639984 46.440128 
L 47.541743 47.049087 
" style="fill:none;stroke:#4169e1;stroke-linecap:square;stroke-width:0.4;"/>
   </g>
   <g id="line2d_28">
    <path clip-path="url(#pa42fd89b8c)" d="M 41.850156 22.664363 
L 41.610367 23.131003 
L 41.370577 23.597644 
L 41.130788 24.064284 
L 40.890999 24.530924 
L 40.664119 24.913218 
L 40.437239 25.295513 
L 40.210359 25.677807 
L 39.98348 26.060101 
L 39.866835 26.604494 
L 39.750191 27.148887 
L 39.763146 27.50854 
L 39.776102 27.868192 
L 39.789057 28.227845 
L 39.802012 28.587498 
L 39.814968 28.94715 
L 39.827923 29.306803 
L 39.840879 29.666456 
L 39.853834 30.026108 
L 39.620545 30.350057 
L 39.387257 30.674006 
L 39.283613 31.108176 
L 39.17997 31.542347 
L 39.076327 31.976518 
L 38.972684 32.410689 
L 38.90136 32.806045 
L 38.830037 33.201402 
L 38.758714 33.596759 
L 38.68739 33.992116 
" style="fill:none;stroke:#008000;stroke-linecap:square;stroke-width:0.4;"/>
   </g>
   <g id="line2d_29">
    <path clip-path="url(#pa42fd89b8c)" d="M 42.530612 11.220665 
L 42.501497 11.628525 
L 42.472381 12.036384 
L 42.443266 12.444243 
L 42.414151 12.852103 
L 42.385036 13.259962 
L 42.35592 13.667821 
L 42.326805 14.075681 
L 42.29769 14.48354 
L 42.24129 14.878648 
L 42.184891 15.273756 
L 41.90271 15.634777 
L 41.62053 15.995798 
L 41.451331 16.3399 
L 41.282133 16.684002 
L 41.112934 17.028104 
L 40.943736 17.372206 
L 40.718046 17.823545 
L 40.492357 18.274884 
L 40.266667 18.726222 
L 40.040978 19.177561 
L 39.911241 19.516065 
L 39.781504 19.854569 
L 39.651766 20.193073 
L 39.522029 20.531577 
L 39.499323 20.892598 
L 39.476617 21.253619 
L 39.726752 21.561146 
L 39.976887 21.868673 
L 40.582633 21.795026 
" style="fill:none;stroke:#008000;stroke-linecap:square;stroke-width:0.4;"/>
   </g>
   <g id="line2d_30">
    <path clip-path="url(#pa42fd89b8c)" d="M 44.306097 16.13115 
L 44.260959 16.57689 
L 44.215821 17.022631 
L 44.170683 17.468371 
L 44.125546 17.914111 
L 43.956347 18.342808 
L 43.787149 18.771505 
L 43.61795 19.200202 
L 43.448752 19.628899 
L 43.302076 20.035204 
L 43.155401 20.441508 
L 43.189094 20.847563 
L 43.222788 21.253619 
" style="fill:none;stroke:#008000;stroke-linecap:square;stroke-width:0.4;"/>
   </g>
   <g id="line2d_31">
    <path clip-path="url(#pa42fd89b8c)" d="M 44.050102 22.968904 
L 44.214253 23.335119 
L 44.378405 23.701334 
L 44.542556 24.067549 
L 44.706707 24.433764 
L 44.870859 24.799979 
L 45.03501 25.166194 
L 45.199161 25.532409 
L 45.363313 25.898624 
L 45.527464 26.264839 
L 45.691615 26.631054 
L 45.855767 26.997269 
L 46.019918 27.363484 
L 46.184069 27.729699 
L 46.348221 28.095914 
L 46.512372 28.462129 
L 46.676523 28.828344 
L 46.840675 29.194559 
L 47.004826 29.560774 
L 47.168977 29.926989 
L 47.333129 30.293204 
L 47.49728 30.659419 
L 47.661431 31.025634 
L 47.825583 31.391849 
L 47.989734 31.758064 
L 48.153885 32.124279 
L 48.318037 32.490494 
L 48.482188 32.856709 
L 48.646339 33.222924 
L 48.810491 33.589139 
L 48.974642 33.955354 
L 49.138794 34.321569 
L 49.302945 34.687784 
L 49.436745 35.000599 
L 49.570545 35.313413 
L 49.704345 35.626227 
L 49.838145 35.939042 
L 49.971945 36.251856 
L 50.105745 36.564671 
L 50.239545 36.877485 
L 50.373345 37.1903 
L 50.507145 37.503114 
L 50.640945 37.815929 
L 50.774745 38.128743 
L 50.908545 38.441558 
L 51.042345 38.754372 
L 51.176145 39.067187 
L 51.309945 39.380001 
L 51.443745 39.692816 
L 51.577545 40.00563 
L 51.711345 40.318444 
L 51.845145 40.631259 
L 51.978945 40.944073 
L 52.112745 41.256888 
L 52.246545 41.569702 
L 52.380345 41.882517 
L 52.514145 42.195331 
L 52.647945 42.508146 
L 52.781745 42.82096 
L 52.915545 43.133775 
L 53.049345 43.446589 
L 53.183145 43.759404 
L 53.316945 44.072218 
L 53.450745 44.385033 
L 53.584545 44.697847 
" style="fill:none;stroke:#4169e1;stroke-linecap:square;stroke-width:0.4;"/>
   </g>
   <g id="line2d_32">
    <path clip-path="url(#pa42fd89b8c)" d="M 50.627966 43.469728 
L 50.232621 43.974188 
L 49.837275 44.478647 
L 49.441929 44.983106 
L 49.046584 45.487565 
L 48.76715 45.821466 
L 48.487716 46.155367 
L 48.208282 46.489268 
L 47.928848 46.823169 
" style="fill:none;stroke:#008000;stroke-linecap:square;stroke-width:0.4;"/>
   </g>
   <g id="line2d_33">
    <path clip-path="url(#pa42fd89b8c)" d="M 50.573398 44.478896 
L 50.626227 44.812859 
L 50.679056 45.146822 
L 50.731884 45.480785 
L 50.784713 45.814748 
L 50.837542 46.148711 
L 50.890371 46.482675 
L 50.943199 46.816638 
L 50.996028 47.150601 
L 51.048857 47.484564 
L 51.101685 47.818527 
L 51.154514 48.152491 
L 51.207343 48.486454 
L 51.260172 48.820417 
L 51.313 49.15438 
L 51.365829 49.488343 
L 51.418658 49.822307 
" style="fill:none;stroke:#008000;stroke-linecap:square;stroke-width:0.4;"/>
   </g>
   <g id="line2d_34">
    <path clip-path="url(#pa42fd89b8c)" d="M 48.369424 41.29564 
L 48.855045 41.533252 
L 49.340667 41.770864 
L 49.867672 41.781065 
L 50.394678 41.791266 
L 51.05609 41.68826 
" style="fill:none;stroke:#008000;stroke-linecap:square;stroke-width:0.4;"/>
   </g>
   <g id="line2d_35">
    <path clip-path="url(#pa42fd89b8c)" d="M 48.667535 36.39262 
L 48.119838 36.526976 
L 47.57214 36.661333 
L 47.128452 36.681611 
L 46.684764 36.701889 
L 46.241076 36.722167 
L 45.797387 36.742445 
L 45.145863 36.79967 
L 44.49434 36.856896 
L 43.842816 36.914122 
L 43.191292 36.971348 
L 42.734145 37.099858 
L 42.276998 37.228367 
L 41.81985 37.356877 
L 41.362703 37.485387 
L 41.207422 37.529177 
L 40.861334 37.480099 
L 40.515246 37.431022 
L 40.169158 37.381945 
L 39.823071 37.332867 
L 39.476983 37.28379 
L 39.130895 37.234712 
L 38.784807 37.185635 
L 38.43872 37.136557 
" style="fill:none;stroke:#008000;stroke-linecap:square;stroke-width:0.4;"/>
   </g>
   <g id="line2d_36">
    <path clip-path="url(#pa42fd89b8c)" d="M 44.669031 10.895224 
L 45.101183 9.087879 
L 46.20134 8.459389 
L 51.388078 7.20216 
L 53.666946 6.455485 
L 55.49407 5.83645 
L 58.814315 4.333647 
L 60.18951 3.390662 
L 61.564705 3.272727 
L 62.9399 4.294335 
L 63.293679 5.591125 
L 62.821974 8.969944 
L 63.136566 10.973847 
L 62.213116 13.193717 
L 61.329219 14.785096 
L 61.049099 18.944987 
L 60.808073 21.827371 
L 60.97544 24.961363 
L 60.027636 27.514946 
L 59.089491 31.444068 
L 58.215162 34.046853 
L 55.710146 39.537559 
L 55.79859 41.619713 
L 55.710146 42.915881 
L 55.710146 42.915881 
" style="fill:none;stroke:#008000;stroke-linecap:square;stroke-width:0.4;"/>
   </g>
   <g id="line2d_37">
    <path clip-path="url(#pa42fd89b8c)" d="M 45.360841 10.587697 
L 45.944795 10.912889 
L 46.528749 11.238082 
L 46.917595 11.497341 
L 47.30644 11.756599 
L 47.695285 12.015857 
L 48.08413 12.275116 
L 48.213684 12.631534 
L 48.343238 12.987952 
L 48.472792 13.34437 
L 48.602346 13.700788 
L 48.43388 14.154366 
L 48.265414 14.607944 
L 48.109949 14.958018 
L 47.954484 15.308091 
L 48.135952 15.852235 
L 48.317419 16.39638 
L 48.511841 16.675045 
L 48.706264 16.953711 
L 48.900687 17.232376 
L 49.095109 17.511042 
L 49.289532 17.789707 
L 49.483954 18.068373 
L 49.678377 18.347038 
L 49.872799 18.625704 
L 50.102838 18.888197 
L 50.332876 19.150689 
L 50.562915 19.413182 
L 50.792953 19.675675 
L 51.022992 19.938168 
L 51.25303 20.200661 
L 51.483069 20.463154 
L 51.713107 20.725647 
L 51.965028 20.950943 
L 52.216949 21.176239 
L 52.468869 21.401535 
L 52.72079 21.626832 
L 52.972711 21.852128 
L 53.224632 22.077424 
L 53.476552 22.30272 
L 53.728473 22.528016 
L 54.000674 22.994656 
L 54.272875 23.461296 
L 54.545075 23.927937 
L 54.817276 24.394577 
L 54.972787 24.744464 
L 55.128297 25.094351 
L 55.283808 25.444238 
L 55.439318 25.794125 
L 55.594829 26.144012 
L 55.75034 26.493899 
L 55.90585 26.843786 
L 56.061361 27.193673 
L 56.17155 27.582498 
L 56.28174 27.971323 
L 56.39193 28.360149 
L 56.502119 28.748974 
L 56.612309 29.1378 
L 56.722498 29.526625 
L 56.832688 29.915451 
L 56.942877 30.304276 
L 57.202077 30.71904 
L 57.461277 31.133804 
L 57.720476 31.548567 
L 57.979676 31.963331 
" style="fill:none;stroke:#4169e1;stroke-linecap:square;stroke-width:0.4;"/>
   </g>
   <g id="line2d_38">
    <path clip-path="url(#pa42fd89b8c)" d="M 48.45915 24.082074 
L 48.937996 24.176123 
L 49.416843 24.270173 
L 49.895689 24.364222 
L 50.374535 24.458272 
L 50.733715 24.261589 
L 51.092896 24.064906 
L 51.452076 23.868223 
L 51.811257 23.67154 
L 52.409861 23.372347 
L 53.008464 23.073155 
L 53.607068 22.773963 
L 54.205671 22.474771 
L 54.564852 22.329342 
L 54.924032 22.183914 
L 55.283213 22.038485 
L 55.642393 21.893057 
L 56.042408 21.749867 
L 56.442424 21.606678 
L 56.842439 21.463489 
L 57.242454 21.320299 
L 57.588175 21.196393 
L 57.933897 21.072486 
L 58.532501 20.77317 
L 59.131104 20.473853 
L 59.729708 20.174536 
L 60.328311 19.87522 
" style="fill:none;stroke:#008000;stroke-linecap:square;stroke-width:0.4;"/>
   </g>
   <g id="line2d_39">
    <path clip-path="url(#pa42fd89b8c)" d="M 45.045516 57.254714 
L 45.576367 57.605036 
L 46.107218 57.955358 
L 46.364953 58.24833 
L 46.622688 58.541302 
L 46.880422 58.834274 
L 47.138157 59.127246 
" style="fill:none;stroke:#008000;stroke-linecap:square;stroke-width:0.4;"/>
   </g>
   <g id="line2d_40">
    <path clip-path="url(#pa42fd89b8c)" d="M 17.853641 14.708463 
L 15.682261 14.498966 
L 13.65957 14.982152 
L 12.054749 16.373489 
L 10.360384 16.601398 
L 6.962132 17.415748 
L 5.761995 17.654106 
L 5.172547 17.732481 
L 4.622469 18.16491 
L 4.288467 19.618698 
L 3.954648 21.24914 
L 3.366481 23.225177 
L 3.013985 24.238823 
L 3.32583 28.399896 
L 3.522358 29.774998 
L 4.061404 34.949033 
L 3.596657 39.780894 
L 6.768075 45.432205 
L 7.639475 47.26157 
L 7.893547 50.911839 
L 8.552853 54.245624 
L 9.062646 56.156473 
L 9.258946 58.749057 
L 8.768197 60.161294 
L 8.94472 61.027645 
L 10.386935 62.184107 
L 10.90918 63.188298 
L 13.492844 64.833358 
L 17.731961 66.81661 
L 19.284045 67.487833 
L 22.885372 68.381118 
L 25.918767 68.727273 
L 30.280388 67.450761 
L 31.694953 66.80249 
L 34.737229 63.760931 
L 36.909342 61.707888 
L 38.688855 58.552996 
L 40.181976 57.727947 
L 43.050293 56.863587 
L 43.95415 56.156473 
L 43.95415 56.156473 
" style="fill:none;stroke:#008000;stroke-linecap:square;stroke-width:0.4;"/>
   </g>
   <g id="line2d_41">
    <path clip-path="url(#pa42fd89b8c)" d="M 13.759917 45.228307 
L 13.434705 45.545786 
L 13.109492 45.863266 
L 13.070214 46.256135 
L 13.030936 46.649003 
L 12.991658 47.041872 
L 12.952379 47.43474 
L 13.099787 47.906232 
L 13.247195 48.377724 
L 13.394603 48.849217 
L 13.54201 49.320709 
L 13.561604 49.664438 
L 13.581197 50.008166 
L 13.60079 50.351895 
L 13.620384 50.695624 
L 13.365029 51.284927 
L 13.109675 51.87423 
L 12.854321 52.463533 
L 12.598967 53.052836 
L 12.300031 53.486633 
L 12.001096 53.920431 
L 11.70216 54.354229 
L 11.403225 54.788026 
L 10.945711 54.845252 
L 10.488198 54.902478 
L 10.030685 54.959704 
L 9.573171 55.01693 
L 9.201081 55.149047 
L 8.828991 55.281165 
" style="fill:none;stroke:#008000;stroke-linecap:square;stroke-width:0.4;"/>
   </g>
   <g id="line2d_42">
    <path clip-path="url(#pa42fd89b8c)" d="M 50.594273 24.566753 
L 50.967554 24.783465 
L 51.340834 25.000177 
L 51.714114 25.216889 
L 52.087395 25.433601 
L 52.283877 25.708659 
L 52.48036 25.983717 
L 52.676842 26.258775 
L 52.873325 26.533832 
L 53.168141 27.123011 
L 53.462956 27.712189 
L 53.600476 28.036387 
L 53.737995 28.360584 
L 53.875515 28.684782 
L 54.013034 29.008979 
L 54.258592 29.421504 
L 54.504149 29.834028 
L 54.749707 30.246553 
L 54.995264 30.659077 
L 55.064024 31.140397 
L 55.132784 31.621717 
L 55.201543 32.103037 
L 55.270303 32.584357 
L 55.229011 33.129372 
L 55.187718 33.674387 
L 55.146426 34.219402 
L 55.105133 34.764417 
L 55.296443 35.110447 
L 55.487752 35.456478 
L 55.679062 35.802508 
L 55.870372 36.148539 
L 56.061681 36.494569 
L 56.252991 36.840599 
L 56.4443 37.18663 
L 56.63561 37.53266 
" style="fill:none;stroke:#000000;stroke-dasharray:1.48,0.64;stroke-dashoffset:0;stroke-width:0.4;"/>
   </g>
  </g>
 </g>
 <defs>
  <clipPath id="pa42fd89b8c">
   <rect height="72" width="66.307664" x="0" y="0"/>
  </clipPath>
 </defs>
</svg>
