<?xml version="1.0" encoding="utf-8" standalone="no"?>
<!DOCTYPE svg PUBLIC "-//W3C//DTD SVG 1.1//EN"
  "http://www.w3.org/Graphics/SVG/1.1/DTD/svg11.dtd">
<svg height="72pt" version="1.1" viewBox="0 0 63.28322 72" width="63.28322pt" xmlns="http://www.w3.org/2000/svg" xmlns:xlink="http://www.w3.org/1999/xlink">
 <metadata>
  <rdf:RDF xmlns:cc="http://creativecommons.org/ns#" xmlns:dc="http://purl.org/dc/elements/1.1/" xmlns:rdf="http://www.w3.org/1999/02/22-rdf-syntax-ns#">
   <cc:Work>
    <dc:type rdf:resource="http://purl.org/dc/dcmitype/StillImage"/>
    <dc:date>2022-04-19T00:36:38.459182</dc:date>
    <dc:format>image/svg+xml</dc:format>
    <dc:creator>
     <cc:Agent>
      <dc:title>Matplotlib v3.4.3, https://matplotlib.org/</dc:title>
     </cc:Agent>
    </dc:creator>
   </cc:Work>
  </rdf:RDF>
 </metadata>
 <defs>
  <style type="text/css">*{stroke-linecap:butt;stroke-linejoin:round;}</style>
 </defs>
 <g id="figure_1">
  <g id="patch_1">
   <path d="M 0 72 
L 63.28322 72 
L 63.28322 0 
L 0 0 
z
" style="fill:#ffffff;"/>
  </g>
  <g id="axes_1">
   <g id="line2d_1">
    <path clip-path="url(#p5f107b8888)" d="M 21.726953 68.220825 
L 21.381 66.38609 
L 21.862265 63.779791 
L 22.34353 61.173491 
L 22.824795 58.567191 
L 23.30606 55.960892 
L 23.787325 53.354592 
L 24.26859 50.748293 
L 24.749855 48.141993 
L 25.23112 45.535693 
L 25.712385 42.929394 
L 26.19365 40.323094 
L 26.674915 37.716794 
L 27.15618 35.110495 
L 27.637445 32.504195 
L 28.11871 29.897895 
L 28.599975 27.291596 
L 29.08124 24.685296 
L 29.570145 21.807719 
L 30.059049 18.930142 
L 30.547953 16.052565 
L 31.036857 13.174988 
" style="fill:none;stroke:#808080;stroke-linecap:square;stroke-width:0.4;"/>
   </g>
   <g id="line2d_2">
    <path clip-path="url(#p5f107b8888)" d="M 30.131322 68.727273 
L 31.400247 66.819992 
L 32.669172 64.912711 
L 33.938098 63.00543 
L 35.207023 61.098149 
L 36.475949 59.190869 
L 37.744874 57.283588 
L 39.0138 55.376307 
L 40.282725 53.469026 
L 41.551651 51.561745 
L 42.820576 49.654465 
L 44.089502 47.747184 
L 45.358427 45.839903 
L 46.627352 43.932622 
L 47.896278 42.025341 
L 49.165203 40.118061 
L 50.434129 38.21078 
" style="fill:none;stroke:#808080;stroke-linecap:square;stroke-width:0.4;"/>
   </g>
   <g id="line2d_3">
    <path clip-path="url(#p5f107b8888)" d="M 31.990752 8.600282 
L 32.447638 8.290576 
L 32.904524 7.980869 
L 33.36141 7.671163 
L 33.818296 7.361457 
L 34.275183 7.05175 
L 34.732069 6.742044 
L 35.188955 6.432338 
L 35.645841 6.122632 
L 36.249797 6.021986 
L 36.853753 5.921341 
L 37.45771 5.820696 
L 38.061666 5.720051 
L 38.665622 5.619406 
L 39.269578 5.518761 
L 39.873534 5.418116 
L 40.47749 5.317471 
L 40.988581 5.534303 
L 41.499671 5.751136 
L 42.010762 5.967968 
L 42.521853 6.1848 
L 42.924535 6.695797 
L 43.327216 7.206793 
L 43.729898 7.717789 
L 44.13258 8.228786 
L 44.248694 8.964386 
L 44.364809 9.699985 
L 44.480924 10.435585 
L 44.597038 11.171185 
L 44.713153 11.906785 
L 44.829268 12.642385 
L 44.945383 13.377984 
L 45.061497 14.113584 
L 45.665453 14.578144 
L 46.269409 15.042703 
L 46.873366 15.507262 
L 47.477322 15.971822 
L 47.833504 16.413163 
L 48.189687 16.854504 
L 48.545869 17.295845 
L 48.902052 17.737186 
L 49.258235 18.178527 
L 49.614417 18.619867 
L 49.9706 19.061208 
L 50.326782 19.502549 
L 50.187418 20.090972 
L 50.048054 20.679395 
L 49.90869 21.267818 
L 49.769325 21.856241 
L 49.629961 22.444664 
L 49.490597 23.033087 
L 49.351233 23.62151 
L 49.211868 24.209933 
L 49.61455 25.139052 
L 50.017232 26.068171 
L 50.419913 26.99729 
L 50.822595 27.926408 
L 51.163234 28.344531 
L 51.503872 28.762653 
L 51.844511 29.180776 
L 52.18515 29.598898 
L 52.169672 30.257071 
L 52.154195 30.915245 
L 52.138717 31.573418 
L 52.123239 32.231591 
L 52.107762 32.889764 
L 52.092284 33.547938 
L 52.076807 34.206111 
L 52.061329 34.864284 
L 52.169871 35.525016 
L 52.278413 36.185748 
L 52.386955 36.84648 
L 52.495497 37.507212 
L 52.619052 38.260818 
L 52.742607 39.014424 
L 52.804583 39.664731 
L 52.86656 40.315039 
L 52.928536 40.965346 
L 52.990513 41.615653 
L 53.052489 42.265961 
L 53.114466 42.916268 
L 53.176443 43.566575 
L 53.238419 44.216883 
L 52.975102 44.758964 
L 52.711784 45.301044 
L 52.448467 45.843125 
L 52.18515 46.385206 
" style="fill:none;stroke:#008000;stroke-linecap:square;stroke-width:0.4;"/>
   </g>
   <g id="line2d_4">
    <path clip-path="url(#p5f107b8888)" d="M 30.690373 10.024855 
L 25.930466 6.734463 
L 18.36308 15.475989 
L 19.230353 19.006716 
L 19.477994 22.290285 
L 17.557451 26.068171 
L 17.805623 28.979486 
L 15.947256 32.820298 
L 13.066441 34.353288 
L 10.372154 35.97953 
L 6.407248 43.102395 
L 2.87651 46.94245 
L 3.681608 51.89775 
L 6.035787 57.224547 
L 10.929611 61.250349 
L 16.148397 63.820873 
L 19.911631 65.400489 
L 24.433463 68.435383 
L 24.433463 68.435383 
" style="fill:none;stroke:#4169e1;stroke-linecap:square;stroke-width:0.4;"/>
   </g>
   <g id="line2d_5">
    <path clip-path="url(#p5f107b8888)" d="M 23.72402 29.209965 
L 23.983086 30.0174 
L 24.242152 30.824835 
L 24.501218 31.63227 
L 24.760284 32.439705 
L 25.01935 33.24714 
L 25.278417 34.054575 
L 25.537483 34.862009 
L 25.796549 35.669444 
" style="fill:none;stroke:#008000;stroke-linecap:square;stroke-width:0.4;"/>
   </g>
   <g id="line2d_6">
    <path clip-path="url(#p5f107b8888)" d="M 36.63109 27.454078 
L 36.221433 28.148074 
L 35.811777 28.84207 
L 35.40212 29.536066 
L 34.992464 30.230062 
L 34.582807 30.924058 
L 34.173151 31.618054 
L 33.763494 32.31205 
L 33.353838 33.006046 
L 33.293821 33.571251 
L 33.233804 34.136455 
L 33.173787 34.70166 
L 33.11377 35.266864 
L 33.053753 35.832069 
L 32.993736 36.397273 
L 32.933719 36.962478 
L 32.873702 37.527682 
L 32.813685 38.092887 
L 32.753668 38.658091 
L 32.693651 39.223296 
L 32.633634 39.7885 
L 32.573617 40.353705 
L 32.5136 40.918909 
L 32.453583 41.484113 
L 32.393566 42.049318 
L 32.333549 42.614522 
L 32.273532 43.179727 
L 32.213515 43.744931 
L 32.153498 44.310136 
L 32.093481 44.87534 
L 32.033464 45.440545 
L 31.973447 46.005749 
L 31.91343 46.570954 
L 31.853413 47.136158 
L 31.793396 47.701363 
L 31.733379 48.266567 
L 31.673362 48.831772 
L 31.613345 49.396976 
L 31.553328 49.962181 
L 31.493311 50.527385 
L 31.433295 51.09259 
L 31.239726 51.613253 
L 31.046157 52.133915 
L 30.852588 52.654578 
L 30.659019 53.175241 
L 30.46545 53.695904 
L 30.271881 54.216567 
L 30.078313 54.73723 
L 29.884744 55.257893 
L 29.691175 55.778556 
L 29.497606 56.299218 
L 29.304037 56.819881 
L 29.110468 57.340544 
L 28.9169 57.861207 
L 28.723331 58.38187 
L 28.529762 58.902533 
L 28.336193 59.423196 
L 28.142624 59.943859 
L 27.949055 60.464522 
L 27.755487 60.985184 
L 27.561918 61.505847 
L 27.368349 62.02651 
L 27.17478 62.547173 
L 26.981211 63.067836 
L 26.787642 63.588499 
L 26.594074 64.109162 
L 26.400505 64.629825 
L 26.206936 65.150487 
L 26.013367 65.67115 
L 25.819798 66.191813 
L 25.626229 66.712476 
L 25.43266 67.233139 
L 25.239092 67.753802 
" style="fill:none;stroke:#008000;stroke-linecap:square;stroke-width:0.4;"/>
   </g>
   <g id="line2d_7">
    <path clip-path="url(#p5f107b8888)" d="M 48.840408 3.272727 
L 49.405637 3.644413 
L 49.970866 4.016098 
L 50.536095 4.387784 
L 51.101323 4.759469 
L 51.666552 5.131154 
L 52.231781 5.50284 
L 52.79701 5.874525 
L 53.362239 6.246211 
L 53.904285 7.067103 
L 54.446331 7.887995 
L 54.988377 8.708887 
L 55.530423 9.52978 
L 55.538129 10.180182 
L 55.545834 10.830584 
L 55.55354 11.480986 
L 55.561245 12.131388 
L 55.568951 12.78179 
L 55.576656 13.432193 
L 55.584362 14.082595 
L 55.592067 14.732997 
L 55.892983 15.239065 
L 56.193898 15.745134 
L 56.494813 16.251202 
L 56.795728 16.75727 
L 57.096643 17.263339 
L 57.397559 17.769407 
L 57.698474 18.275476 
L 57.999389 18.781544 
L 58.300304 19.287612 
L 58.601219 19.793681 
L 58.902134 20.299749 
L 59.20305 20.805818 
L 59.503965 21.311886 
L 59.80488 21.817954 
L 60.105795 22.324023 
L 60.40671 22.830091 
" style="fill:none;stroke:#008000;stroke-linecap:square;stroke-width:0.4;"/>
   </g>
   <g id="line2d_8">
    <path clip-path="url(#p5f107b8888)" d="M 52.495497 37.507212 
L 51.585445 37.616007 
L 50.675392 37.724802 
L 49.94363 37.81199 
L 49.211868 37.899178 
L 48.685366 38.208884 
L 48.158865 38.518591 
L 47.632363 38.828297 
L 47.105861 39.138003 
L 46.579359 39.447709 
L 46.052857 39.757416 
L 45.526355 40.067122 
L 44.999853 40.376828 
L 44.50776 41.270314 
L 44.015668 42.163799 
L 43.635372 42.854099 
L 43.255076 43.544399 
L 42.874781 44.234699 
L 42.494485 44.925 
L 42.114189 45.6153 
L 41.733894 46.3056 
L 41.353598 46.9959 
L 40.973302 47.6862 
L 40.260871 48.25908 
L 39.548439 48.831961 
L 38.836007 49.404842 
L 38.123576 49.977723 
L 37.411144 50.550604 
L 36.698712 51.123484 
L 35.986281 51.696365 
L 35.273849 52.269246 
" style="fill:none;stroke:#008000;stroke-linecap:square;stroke-width:0.4;"/>
   </g>
   <g id="line2d_9">
    <path clip-path="url(#p5f107b8888)" d="M 30.690373 10.024855 
L 30.442467 10.752684 
L 30.19456 11.480512 
L 29.946654 12.208341 
L 29.698748 12.93617 
L 29.187723 13.021367 
L 28.676699 13.106565 
L 28.165674 13.191763 
L 27.65465 13.27696 
L 27.143626 13.362158 
L 26.632601 13.447356 
L 26.121577 13.532553 
L 25.610553 13.617751 
L 24.975641 13.896562 
L 24.34073 14.175374 
L 23.705819 14.454185 
L 23.070908 14.732997 
L 22.97791 15.569242 
L 22.884912 16.405487 
L 22.791914 17.241731 
L 22.698916 18.077976 
L 22.784142 18.689618 
L 22.869368 19.301259 
L 22.954594 19.912901 
L 23.03982 20.524542 
L 23.125046 21.136184 
L 23.210272 21.747825 
L 23.295498 22.359467 
L 23.380724 22.971108 
L 23.607905 23.681878 
L 23.835086 24.392648 
L 24.077679 25.15232 
L 24.320271 25.911991 
L 24.562863 26.671662 
L 24.805455 27.431333 
L 24.535096 27.875991 
L 24.264738 28.320649 
L 23.994379 28.765307 
L 23.72402 29.209965 
" style="fill:none;stroke:#008000;stroke-linecap:square;stroke-width:0.4;"/>
   </g>
   <g id="line2d_10">
    <path clip-path="url(#p5f107b8888)" d="M 23.72402 29.209965 
L 23.304466 29.900265 
L 22.884912 30.590565 
L 22.482297 31.171217 
L 22.079681 31.751869 
L 21.677066 32.33252 
L 21.274451 32.913172 
L 20.871836 33.493824 
L 20.469221 34.074476 
L 20.066605 34.655128 
L 19.66399 35.23578 
L 19.447172 35.816527 
L 19.230353 36.397273 
L 19.013535 36.97802 
L 18.796717 37.558766 
L 18.579898 38.139513 
L 18.36308 38.72026 
L 18.146262 39.301006 
L 17.929443 39.881753 
L 17.844217 40.586269 
L 17.758991 41.290784 
L 17.673765 41.995299 
L 17.588539 42.699815 
L 17.503313 43.40433 
L 17.418087 44.108846 
L 17.332861 44.813361 
L 17.247635 45.517877 
L 16.999861 46.083081 
L 16.752088 46.648286 
L 16.504314 47.21349 
L 16.256541 47.778695 
L 16.008767 48.343899 
L 15.760994 48.909104 
L 15.513221 49.474308 
L 15.265447 50.039513 
L 15.381628 50.976308 
L 15.49781 51.913103 
L 15.613991 52.849898 
L 15.730172 53.786693 
L 15.846353 54.723488 
L 15.962534 55.660283 
L 16.078715 56.597079 
L 16.194896 57.533874 
L 16.643944 58.137744 
L 17.092992 58.741614 
L 17.54204 59.345485 
L 17.991088 59.949355 
L 18.231156 60.630747 
L 18.471224 61.312139 
L 18.711291 61.99353 
L 18.951359 62.674922 
L 19.191427 63.356314 
L 19.431495 64.037706 
L 19.671563 64.719097 
L 19.911631 65.400489 
" style="fill:none;stroke:#4169e1;stroke-linecap:square;stroke-width:0.4;"/>
   </g>
   <g id="line2d_11">
    <path clip-path="url(#p5f107b8888)" d="M 30.327415 13.479767 
L 30.216049 14.221147 
L 30.104684 14.962528 
L 29.993319 15.703909 
L 29.881954 16.44529 
L 29.770589 17.18667 
L 29.659223 17.928051 
L 29.547858 18.669432 
L 29.436493 19.410813 
L 29.325128 20.152193 
L 29.213763 20.893574 
L 29.102398 21.634955 
L 28.991032 22.376335 
L 28.879667 23.117716 
L 28.768302 23.859097 
L 28.656937 24.600478 
L 28.545572 25.341858 
" style="fill:none;stroke:#4169e1;stroke-linecap:square;stroke-width:0.4;"/>
   </g>
   <g id="line2d_12">
    <path clip-path="url(#p5f107b8888)" d="M 28.545572 25.341858 
L 27.956761 25.223207 
L 27.36795 25.104556 
L 26.77914 24.985905 
L 26.190329 24.867253 
L 25.601518 24.748602 
L 25.012708 24.629951 
L 24.423897 24.5113 
L 23.835086 24.392648 
" style="fill:none;stroke:#008000;stroke-linecap:square;stroke-width:0.4;"/>
   </g>
   <g id="line2d_13">
    <path clip-path="url(#p5f107b8888)" d="M 21.381 66.38609 
L 21.518986 65.426195 
L 21.656972 64.4663 
L 21.794958 63.506405 
L 21.932944 62.54651 
L 22.07093 61.586614 
L 22.208916 60.626719 
L 22.346901 59.666824 
L 22.484887 58.706929 
L 22.622873 57.747034 
L 22.760859 56.787139 
L 22.898845 55.827243 
L 23.036831 54.867348 
L 23.174817 53.907453 
L 23.312803 52.947558 
L 23.450789 51.987663 
L 23.588774 51.027767 
L 23.72676 50.067872 
L 23.864746 49.107977 
L 24.002732 48.148082 
L 24.140718 47.188187 
L 24.278704 46.228291 
L 24.41669 45.268396 
L 24.554676 44.308501 
L 24.692662 43.348606 
L 24.830647 42.388711 
L 24.968633 41.428816 
L 25.106619 40.46892 
L 25.244605 39.509025 
L 25.382591 38.54913 
L 25.520577 37.589235 
L 25.658563 36.62934 
L 25.796549 35.669444 
L 26.279873 35.479148 
L 26.763197 35.288851 
L 26.874596 34.667164 
L 26.985994 34.045477 
L 27.097392 33.42379 
L 27.208791 32.802103 
L 27.320189 32.180416 
L 27.431588 31.558729 
L 27.542986 30.937042 
L 27.654384 30.315355 
L 27.765783 29.693668 
L 27.877181 29.07198 
L 27.98858 28.450293 
L 28.099978 27.828606 
L 28.211376 27.206919 
L 28.322775 26.585232 
L 28.434173 25.963545 
L 28.545572 25.341858 
" style="fill:none;stroke:#4169e1;stroke-linecap:square;stroke-width:0.4;"/>
   </g>
   <g id="line2d_14">
    <path clip-path="url(#p5f107b8888)" d="M 44.13258 8.228786 
L 44.798446 7.702247 
L 45.464312 7.175709 
L 46.130178 6.64917 
L 46.796044 6.122632 
L 47.307135 5.410155 
L 47.818226 4.697679 
L 48.329317 3.985203 
L 48.840408 3.272727 
" style="fill:none;stroke:#008000;stroke-linecap:square;stroke-width:0.4;"/>
   </g>
   <g id="line2d_15">
    <path clip-path="url(#p5f107b8888)" d="M 39.486396 17.017318 
L 39.876324 17.432407 
L 40.266251 17.847497 
L 40.656179 18.262587 
L 41.046106 18.677677 
L 41.031891 19.233594 
L 41.017676 19.789511 
L 41.00346 20.345428 
L 40.989245 20.901345 
L 40.975029 21.457262 
L 40.960814 22.013179 
L 40.946599 22.569096 
L 40.932383 23.125013 
L 40.832609 23.880515 
L 40.732836 24.636016 
L 40.633062 25.391518 
L 40.533289 26.147019 
L 40.023593 26.71137 
L 39.513897 27.275722 
L 39.004201 27.840074 
L 38.494505 28.404425 
L 37.984809 28.968777 
L 37.475113 29.533128 
L 36.965418 30.09748 
L 36.455722 30.661831 
" style="fill:none;stroke:#008000;stroke-linecap:square;stroke-width:0.4;"/>
   </g>
   <g id="line2d_16">
    <path clip-path="url(#p5f107b8888)" d="M 36.63109 27.454078 
L 36.587248 28.256016 
L 36.543406 29.057955 
L 36.499564 29.859893 
L 36.455722 30.661831 
L 36.418788 31.337063 
L 36.381855 32.012295 
L 36.344921 32.687526 
L 36.307988 33.362758 
L 36.271054 34.03799 
L 36.234121 34.713222 
L 36.197187 35.388453 
L 36.160254 36.063685 
L 36.12332 36.738917 
L 36.086387 37.414148 
L 36.049453 38.08938 
L 36.012519 38.764612 
L 35.975586 39.439844 
L 35.938652 40.115075 
L 35.901719 40.790307 
L 35.864785 41.465539 
L 35.827852 42.14077 
L 35.790918 42.816002 
L 35.753985 43.491234 
L 35.717051 44.166466 
L 35.680118 44.841697 
L 35.643184 45.516929 
L 35.606251 46.192161 
L 35.569317 46.867392 
L 35.532384 47.542624 
L 35.49545 48.217856 
L 35.458517 48.893088 
L 35.421583 49.568319 
L 35.38465 50.243551 
L 35.347716 50.918783 
L 35.310783 51.594014 
L 35.273849 52.269246 
" style="fill:none;stroke:#008000;stroke-linecap:square;stroke-width:0.4;"/>
   </g>
   <g id="line2d_17">
    <path clip-path="url(#p5f107b8888)" d="M 35.273849 52.269246 
L 35.070599 52.762805 
L 34.867348 53.256364 
L 34.664097 53.749923 
L 34.460847 54.243481 
L 34.257596 54.73704 
L 34.054345 55.230599 
L 33.851095 55.724158 
L 33.647844 56.217717 
L 33.444594 56.711276 
L 33.241343 57.204835 
L 33.038092 57.698393 
L 32.834842 58.191952 
L 32.631591 58.685511 
L 32.428341 59.17907 
L 32.22509 59.672629 
L 32.021839 60.166188 
L 31.818589 60.659746 
L 31.615338 61.153305 
L 31.412088 61.646864 
L 31.208837 62.140423 
L 31.005586 62.633982 
L 30.802336 63.127541 
L 30.599085 63.621099 
L 30.395835 64.114658 
L 30.192584 64.608217 
L 29.989333 65.101776 
L 29.786083 65.595335 
L 29.582832 66.088894 
L 29.379582 66.582453 
L 29.176331 67.076011 
L 28.97308 67.56957 
L 28.76983 68.063129 
" style="fill:none;stroke:#008000;stroke-linecap:square;stroke-width:0.4;"/>
   </g>
   <g id="line2d_18">
    <path clip-path="url(#p5f107b8888)" d="M 50.675392 37.724802 
L 50.123515 38.532996 
L 49.571638 39.341189 
L 49.019761 40.149382 
L 48.467884 40.957575 
L 48.176418 41.384428 
L 47.884952 41.811281 
L 47.593486 42.238134 
L 47.30202 42.664987 
L 47.010554 43.09184 
L 46.719088 43.518693 
L 46.427622 43.945546 
L 46.136157 44.372399 
L 45.844691 44.799252 
L 45.553225 45.226105 
L 45.261759 45.652959 
L 44.970293 46.079812 
L 44.678827 46.506665 
L 44.387361 46.933518 
L 44.095895 47.360371 
L 43.804429 47.787224 
L 43.512963 48.214077 
L 43.221497 48.64093 
L 42.930031 49.067783 
L 42.638566 49.494636 
L 42.3471 49.921489 
L 42.055634 50.348342 
L 41.764168 50.775195 
L 41.472702 51.202048 
L 41.181236 51.628901 
L 40.88977 52.055754 
L 40.598304 52.482607 
L 40.306838 52.909461 
L 40.015372 53.336314 
L 39.723906 53.763167 
L 39.43244 54.19002 
L 39.140975 54.616873 
L 38.849509 55.043726 
L 38.558043 55.470579 
L 38.266577 55.897432 
L 37.975111 56.324285 
L 37.683645 56.751138 
L 37.392179 57.177991 
L 37.100713 57.604844 
L 36.809247 58.031697 
L 36.517781 58.45855 
L 36.226315 58.885403 
L 35.934849 59.312256 
L 35.643384 59.739109 
L 35.351918 60.165962 
L 35.060452 60.592816 
L 34.768986 61.019669 
L 34.47752 61.446522 
L 34.186054 61.873375 
L 33.894588 62.300228 
L 33.603122 62.727081 
L 33.311656 63.153934 
L 33.02019 63.580787 
L 32.728724 64.00764 
L 32.437259 64.434493 
L 32.145793 64.861346 
L 31.854327 65.288199 
L 31.562861 65.715052 
L 31.271395 66.141905 
L 30.979929 66.568758 
L 30.688463 66.995611 
L 30.396997 67.422464 
L 30.105531 67.849318 
L 29.814065 68.276171 
" style="fill:none;stroke:#008000;stroke-linecap:square;stroke-width:0.4;"/>
   </g>
   <g id="line2d_19">
    <path clip-path="url(#p5f107b8888)" d="M 48.467884 40.957575 
L 47.911357 41.108353 
L 47.35483 41.259131 
L 46.798303 41.409909 
L 46.241776 41.560687 
L 45.685249 41.711465 
L 45.128722 41.862243 
L 44.572195 42.013021 
L 44.015668 42.163799 
" style="fill:none;stroke:#008000;stroke-linecap:square;stroke-width:0.4;"/>
   </g>
  </g>
 </g>
 <defs>
  <clipPath id="p5f107b8888">
   <rect height="72" width="63.28322" x="0" y="0"/>
  </clipPath>
 </defs>
</svg>
