<?xml version="1.0" encoding="utf-8" standalone="no"?>
<!DOCTYPE svg PUBLIC "-//W3C//DTD SVG 1.1//EN"
  "http://www.w3.org/Graphics/SVG/1.1/DTD/svg11.dtd">
<svg height="72pt" version="1.1" viewBox="0 0 117.629518 72" width="117.629518pt" xmlns="http://www.w3.org/2000/svg" xmlns:xlink="http://www.w3.org/1999/xlink">
 <metadata>
  <rdf:RDF xmlns:cc="http://creativecommons.org/ns#" xmlns:dc="http://purl.org/dc/elements/1.1/" xmlns:rdf="http://www.w3.org/1999/02/22-rdf-syntax-ns#">
   <cc:Work>
    <dc:type rdf:resource="http://purl.org/dc/dcmitype/StillImage"/>
    <dc:date>2022-04-19T00:35:22.968739</dc:date>
    <dc:format>image/svg+xml</dc:format>
    <dc:creator>
     <cc:Agent>
      <dc:title>Matplotlib v3.4.3, https://matplotlib.org/</dc:title>
     </cc:Agent>
    </dc:creator>
   </cc:Work>
  </rdf:RDF>
 </metadata>
 <defs>
  <style type="text/css">*{stroke-linecap:butt;stroke-linejoin:round;}</style>
 </defs>
 <g id="figure_1">
  <g id="patch_1">
   <path d="M 0 72 
L 117.629518 72 
L 117.629518 0 
L 0 0 
z
" style="fill:#ffffff;"/>
  </g>
  <g id="axes_1">
   <g id="line2d_1">
    <path clip-path="url(#pfcfb8ea1fb)" d="M 5.346796 19.343976 
L 7.654554 19.001251 
L 9.605502 18.710791 
L 12.89876 18.221551 
L 16.048115 17.752874 
L 18.362655 17.408863 
L 20.677194 17.064852 
L 24.058033 16.562331 
L 27.438871 16.05981 
L 29.850722 15.701234 
L 32.262573 15.342658 
L 34.494841 15.010642 
L 36.727108 14.678627 
L 39.740227 14.230942 
L 42.753345 13.783257 
L 45.855813 13.321863 
L 48.958282 12.860469 
L 50.441545 12.640268 
L 53.435791 12.194725 
" style="fill:none;stroke:#808080;stroke-linecap:square;stroke-width:0.544581;"/>
   </g>
   <g id="line2d_2">
    <path clip-path="url(#pfcfb8ea1fb)" d="M 71.34288 61.35268 
L 72.549248 59.659188 
L 73.755616 57.965697 
L 75.106477 56.068712 
L 76.457338 54.171727 
L 78.064158 51.915737 
L 79.670977 49.659748 
L 80.82751 48.035658 
L 81.984043 46.411568 
L 83.329006 44.523151 
L 84.673969 42.634735 
L 86.144552 40.570243 
L 87.615136 38.505751 
L 89.709398 35.565167 
L 91.843764 32.568034 
" style="fill:none;stroke:#808080;stroke-linecap:square;stroke-width:0.544581;"/>
   </g>
   <g id="line2d_3">
    <path clip-path="url(#pfcfb8ea1fb)" d="M 67.989466 66.034308 
L 68.401418 63.286936 
L 68.81337 60.539564 
L 69.290787 57.355645 
L 69.768203 54.171727 
L 70.12973 51.761939 
L 70.491257 49.352151 
L 70.978699 46.100973 
L 71.466142 42.849795 
L 71.869984 40.15683 
L 72.273827 37.463866 
L 72.67767 34.770901 
L 73.081513 32.077937 
L 73.535633 29.046531 
L 73.735564 27.715043 
L 73.963804 26.193342 
L 74.532929 22.398516 
L 74.864378 20.187509 
L 75.195827 17.976502 
L 75.645229 14.978512 
" style="fill:none;stroke:#808080;stroke-linecap:square;stroke-width:0.544581;"/>
   </g>
   <g id="line2d_4">
    <path clip-path="url(#pfcfb8ea1fb)" d="M 12.876349 57.366784 
L 14.039369 56.089275 
L 15.742321 54.218852 
L 17.445272 52.348428 
L 19.230349 50.388039 
L 21.015426 48.42765 
L 22.800502 46.467261 
L 24.585579 44.506872 
L 26.184142 42.751261 
L 27.782705 40.99565 
L 29.253583 39.380129 
L 30.724462 37.764607 
L 32.540059 35.770374 
L 34.355656 33.776141 
L 36.171253 31.781908 
L 37.98685 29.787675 
L 39.622273 27.991794 
L 41.317115 26.130152 
L 43.011958 24.268511 
L 44.7068 22.40687 
L 46.401642 20.545228 
L 48.579651 18.153005 
L 49.362272 17.293622 
L 50.145482 16.433381 
" style="fill:none;stroke:#808080;stroke-linecap:square;stroke-width:0.544581;"/>
   </g>
   <g id="line2d_5">
    <path clip-path="url(#pfcfb8ea1fb)" d="M 67.546551 60.973112 
L 68.067021 57.459748 
L 68.58749 53.946385 
L 68.940465 51.5653 
L 69.293441 49.184216 
L 69.777639 45.915901 
L 70.261838 42.647587 
L 70.660373 39.958049 
L 71.058908 37.268512 
L 71.457442 34.578975 
L 71.855977 31.889438 
L 72.323073 28.733794 
L 72.504721 27.507694 
L 72.768936 25.726379 
L 73.293829 22.184312 
L 73.797195 18.787047 
L 74.300561 15.389782 
L 74.448002 14.391595 
L 74.943407 11.049166 
" style="fill:none;stroke:#808080;stroke-linecap:square;stroke-width:0.544581;"/>
   </g>
   <g id="line2d_6">
    <path clip-path="url(#pfcfb8ea1fb)" d="M 15.787438 60.530139 
L 18.061579 58.107071 
L 19.661321 56.402012 
L 21.261063 54.696953 
L 23.217025 52.612326 
L 25.172987 50.527699 
L 27.254863 48.30941 
L 29.101128 46.341738 
L 30.947393 44.374066 
L 32.299729 42.932906 
L 33.652064 41.491745 
L 35.5461 39.473093 
L 37.440136 37.454441 
L 38.958786 35.83592 
L 40.345622 34.357917 
L 41.732459 32.879914 
L 43.119295 31.401911 
L 44.506132 29.923908 
L 44.926046 29.476651 
L 45.399629 28.971988 
L 47.361193 26.881363 
L 49.322757 24.790739 
L 51.284322 22.700114 
L 53.245886 20.609489 
" style="fill:none;stroke:#808080;stroke-linecap:square;stroke-width:0.544581;"/>
   </g>
   <g id="line2d_7">
    <path clip-path="url(#pfcfb8ea1fb)" d="M 53.562591 65.021555 
L 53.405418 62.644754 
L 53.248245 60.267954 
L 53.11481 58.249944 
L 52.981376 56.231935 
L 52.847941 54.213925 
L 52.714506 52.195915 
L 52.553795 49.76942 
L 52.393083 47.342924 
L 52.165433 43.896821 
L 51.937783 40.450717 
L 51.792701 38.257703 
L 51.647618 36.064689 
L 51.493394 33.732443 
L 51.33917 31.400197 
L 51.225935 29.687427 
L 51.133341 28.288251 
L 51.031312 26.746844 
" style="fill:none;stroke:#808080;stroke-linecap:square;stroke-width:0.544581;"/>
   </g>
   <g id="line2d_8">
    <path clip-path="url(#pfcfb8ea1fb)" d="M 109.750853 58.694845 
L 109.399942 57.466174 
L 108.599628 54.661396 
L 107.799315 51.856617 
L 107.185957 49.707729 
L 106.5726 47.558841 
L 105.533431 43.919955 
L 104.82807 41.448048 
L 104.122709 38.976141 
L 103.322985 36.174362 
L 102.523261 33.372582 
L 101.678715 30.414005 
L 101.015817 28.091398 
L 100.352919 25.768791 
L 99.690021 23.446184 
L 99.027123 21.123577 
L 98.364226 18.800971 
L 97.701328 16.478364 
L 97.03843 14.155757 
L 96.375532 11.83315 
L 95.909026 10.19835 
L 95.272668 7.968921 
L 94.957143 6.864489 
L 94.705902 5.983685 
L 93.932128 3.272727 
" style="fill:none;stroke:#808080;stroke-linecap:square;stroke-width:0.544581;"/>
   </g>
   <g id="line2d_9">
    <path clip-path="url(#pfcfb8ea1fb)" d="M 105.827724 60.719495 
L 105.405451 59.238921 
L 105.006769 57.841459 
L 104.287548 55.320714 
L 103.568328 52.799969 
L 102.533287 49.170507 
L 101.930545 47.058034 
L 101.327804 44.94556 
L 100.482078 41.979701 
L 99.636353 39.013841 
L 98.843411 36.23391 
L 98.05047 33.453979 
L 97.105663 30.142395 
L 96.401482 27.674344 
L 95.6973 25.206293 
L 94.951245 22.590656 
L 94.20519 19.975019 
L 93.459135 17.359382 
L 92.71308 14.743745 
L 92.238908 13.081527 
L 91.921613 11.96767 
L 91.249869 9.613146 
L 90.578124 7.258623 
" style="fill:none;stroke:#808080;stroke-linecap:square;stroke-width:0.544581;"/>
   </g>
   <g id="line2d_10">
    <path clip-path="url(#pfcfb8ea1fb)" d="M 74.134836 68.727273 
L 74.385487 66.694911 
L 74.636138 64.66255 
" style="fill:none;stroke:#808080;stroke-linecap:square;stroke-width:0.544581;"/>
   </g>
   <g id="line2d_11">
    <path clip-path="url(#pfcfb8ea1fb)" d="M 51.664132 10.549643 
L 50.952292 10.654429 
L 50.240453 10.759215 
L 49.528614 10.864 
L 48.816774 10.968786 
L 48.104935 11.073571 
L 47.393096 11.178357 
L 46.681256 11.283143 
L 45.969417 11.387928 
L 45.257578 11.492714 
L 44.545739 11.597499 
L 43.833899 11.702285 
L 43.12206 11.807071 
L 42.410221 11.911856 
L 41.698381 12.016642 
L 40.986542 12.121427 
L 40.274703 12.226213 
L 39.562863 12.330999 
L 38.851024 12.435784 
L 38.139185 12.54057 
L 37.427345 12.645355 
L 36.715506 12.750141 
L 36.003667 12.854927 
L 35.291828 12.959712 
L 34.579988 13.064498 
L 33.868149 13.169283 
L 33.15631 13.274069 
L 32.44447 13.378855 
L 31.732631 13.48364 
L 31.020792 13.588426 
L 30.308952 13.693211 
L 29.597113 13.797997 
L 28.885274 13.902783 
L 28.173434 14.007568 
L 27.461595 14.112354 
L 26.749756 14.217139 
L 26.037917 14.321925 
L 25.326077 14.426711 
L 24.614238 14.531496 
L 23.902399 14.636282 
L 23.190559 14.741067 
L 22.47872 14.845853 
L 21.766881 14.950639 
L 21.055041 15.055424 
L 20.343202 15.16021 
L 19.631363 15.264995 
L 18.919523 15.369781 
L 18.207684 15.474567 
L 17.495845 15.579352 
L 16.784006 15.684138 
L 16.072166 15.788923 
L 15.360327 15.893709 
L 14.648488 15.998495 
L 13.936648 16.10328 
L 13.224809 16.208066 
L 12.51297 16.312851 
L 11.80113 16.417637 
L 11.089291 16.522423 
L 10.377452 16.627208 
L 9.665612 16.731994 
L 8.953773 16.836779 
L 8.241934 16.941565 
L 7.530095 17.046351 
L 6.818255 17.151136 
L 6.106416 17.255922 
" style="fill:none;stroke:#008000;stroke-linecap:square;stroke-width:0.544581;"/>
   </g>
   <g id="line2d_12">
    <path clip-path="url(#pfcfb8ea1fb)" d="M 46.855173 18.141867 
L 46.360985 18.463493 
L 45.866798 18.78512 
L 45.37261 19.106746 
L 44.878422 19.428372 
L 44.384235 19.749999 
L 43.890047 20.071625 
L 43.395859 20.393251 
L 42.901671 20.714877 
L 42.407484 21.036504 
L 41.913296 21.35813 
L 41.419108 21.679756 
L 40.924921 22.001383 
L 40.430733 22.323009 
L 39.936545 22.644635 
L 39.442357 22.966262 
L 38.94817 23.287888 
L 38.069675 23.859597 
L 37.191181 24.431306 
L 36.312686 25.003014 
L 35.434192 25.574723 
L 34.555697 26.146432 
L 33.677203 26.718141 
L 32.798708 27.289849 
L 31.920214 27.861558 
L 31.041719 28.433267 
L 30.163225 29.004975 
L 29.28473 29.576684 
L 28.406236 30.148393 
L 27.527741 30.720102 
L 26.649247 31.29181 
L 25.770752 31.863519 
L 24.892258 32.435228 
L 24.100938 33.055989 
L 23.309618 33.67675 
L 22.518299 34.297512 
L 21.726979 34.918273 
L 20.904844 35.563025 
L 20.082709 36.207777 
L 19.260575 36.852529 
L 18.43844 37.497281 
L 17.655377 38.201154 
L 16.872314 38.905026 
L 16.089251 39.608898 
L 15.306188 40.31277 
L 14.523125 41.016642 
L 13.740062 41.720515 
L 12.957 42.424387 
L 12.173937 43.128259 
L 11.715246 43.998139 
L 11.256554 44.868019 
L 10.797863 45.737898 
L 10.339172 46.607778 
L 10.354948 47.335427 
L 10.370725 48.063076 
L 10.386501 48.790725 
L 10.402277 49.518373 
L 10.734463 50.135279 
L 11.06665 50.752185 
L 11.398836 51.36909 
L 11.731022 51.985996 
L 12.363842 52.729281 
L 12.996661 53.472567 
L 13.629481 54.215853 
L 14.262301 54.959138 
" style="fill:none;stroke:#008000;stroke-linecap:square;stroke-width:0.544581;"/>
   </g>
   <g id="line2d_13">
    <path clip-path="url(#pfcfb8ea1fb)" d="M 44.703704 16.307429 
L 43.839696 16.519491 
L 42.975687 16.731552 
L 42.111679 16.943613 
L 41.24767 17.155675 
L 40.450748 17.339033 
L 39.653826 17.522391 
L 38.856903 17.705749 
L 38.059981 17.889107 
" style="fill:none;stroke:#008000;stroke-linecap:square;stroke-width:0.544581;"/>
   </g>
   <g id="line2d_14">
    <path clip-path="url(#pfcfb8ea1fb)" d="M 38.94817 23.287888 
L 38.362384 24.041884 
L 37.776598 24.79588 
L 37.190812 25.549875 
L 36.605026 26.303871 
L 36.211209 27.133481 
L 35.817393 27.96309 
L 35.423576 28.7927 
L 35.029759 29.62231 
L 34.835284 30.325968 
L 34.640808 31.029626 
L 34.446332 31.733284 
L 34.251857 32.436942 
L 33.954319 33.513528 
L 33.656782 34.590114 
L 33.359245 35.6667 
L 33.061707 36.743286 
L 33.061707 37.36726 
L 33.061707 37.991234 
L 33.061707 38.615209 
L 33.061707 39.239183 
L 33.061707 39.984182 
L 33.061707 40.729182 
L 33.298499 41.558148 
L 33.53529 42.387115 
L 33.827814 43.411007 
L 34.04765 44.179997 
L 34.267486 44.948987 
L 34.487321 45.717977 
L 34.707157 46.486968 
L 35.065071 47.041219 
L 35.422986 47.59547 
L 35.780901 48.149721 
L 36.138816 48.703972 
L 36.49673 49.258223 
L 36.854645 49.812474 
L 37.21256 50.366726 
L 37.570474 50.920977 
L 37.945271 51.501896 
L 38.320068 52.082816 
L 38.865897 52.505225 
L 39.411726 52.927634 
L 40.119594 53.47578 
L 40.827462 54.023927 
L 41.535329 54.572073 
L 42.243197 55.120219 
L 42.725479 55.443452 
L 43.20776 55.766685 
L 43.690042 56.089918 
L 44.172324 56.413151 
L 44.716679 56.777939 
L 45.261033 57.142727 
L 45.805388 57.507516 
L 46.349743 57.872304 
L 47.030702 58.295355 
L 47.711662 58.718407 
L 48.392621 59.141459 
L 49.073581 59.56451 
L 49.75454 59.987562 
L 50.4355 60.410614 
L 51.116459 60.833665 
L 51.797419 61.256717 
" style="fill:none;stroke:#008000;stroke-linecap:square;stroke-width:0.544581;"/>
   </g>
   <g id="line2d_15">
    <path clip-path="url(#pfcfb8ea1fb)" d="M 33.061707 39.239183 
L 32.492287 40.015884 
L 31.922868 40.792586 
L 31.430505 41.318401 
L 30.938141 41.844217 
L 30.445778 42.370033 
L 29.953415 42.895848 
L 29.461052 43.421664 
L 28.968689 43.94748 
L 28.476326 44.473295 
L 27.983963 44.999111 
L 27.4916 45.524927 
L 26.999236 46.050742 
L 26.506873 46.576558 
L 26.01451 47.102374 
L 25.522147 47.628189 
L 25.029784 48.154005 
L 24.537421 48.679821 
L 24.045058 49.205636 
L 23.552695 49.731452 
L 23.060331 50.257268 
L 22.567968 50.783083 
L 22.075605 51.308899 
L 21.583242 51.834715 
L 21.090879 52.36053 
L 20.598516 52.886346 
L 20.106153 53.412162 
L 19.61379 53.937977 
L 19.121426 54.463793 
L 18.629063 54.989609 
L 18.1367 55.515424 
L 17.644337 56.04124 
L 17.151974 56.567056 
L 16.659611 57.092871 
L 16.167248 57.618687 
" style="fill:none;stroke:#008000;stroke-linecap:square;stroke-width:0.544581;"/>
   </g>
   <g id="line2d_16">
    <path clip-path="url(#pfcfb8ea1fb)" d="M 28.062844 39.527072 
L 27.052131 39.739776 
L 26.041418 39.95248 
L 25.030705 40.165184 
L 24.019993 40.377888 
L 23.054987 40.773522 
L 22.089981 41.169155 
L 21.124975 41.564789 
L 20.159969 41.960422 
L 19.667956 42.506855 
L 19.175943 43.053288 
L 18.68393 43.599721 
L 18.191917 44.146153 
L 17.782324 44.738426 
L 17.372731 45.330698 
L 16.963138 45.92297 
L 16.553545 46.515242 
L 16.551923 47.172418 
L 16.550301 47.829594 
L 16.548679 48.48677 
L 16.547057 49.143946 
L 16.847544 49.775846 
L 17.14803 50.407746 
L 17.448516 51.039645 
L 17.749002 51.671545 
L 18.255317 52.43111 
L 18.761632 53.190675 
" style="fill:none;stroke:#008000;stroke-linecap:square;stroke-width:0.544581;"/>
   </g>
   <g id="line2d_17">
    <path clip-path="url(#pfcfb8ea1fb)" d="M 26.417984 41.488318 
L 25.74565 42.239636 
L 25.073316 42.990955 
L 24.400982 43.742273 
L 23.728648 44.493591 
L 23.056314 45.244909 
L 22.383979 45.996228 
L 21.711645 46.747546 
L 21.039311 47.498864 
" style="fill:none;stroke:#008000;stroke-linecap:square;stroke-width:0.544581;"/>
   </g>
   <g id="line2d_18">
    <path clip-path="url(#pfcfb8ea1fb)" d="M 21.726979 34.918273 
L 21.446545 35.672697 
L 21.166111 36.427121 
L 21.040343 37.118784 
L 20.914576 37.810447 
L 20.788808 38.502109 
L 20.66304 39.193772 
L 20.537272 39.885435 
L 20.411504 40.577097 
L 20.285737 41.26876 
L 20.159969 41.960422 
" style="fill:none;stroke:#008000;stroke-linecap:square;stroke-width:0.544581;"/>
   </g>
   <g id="line2d_19">
    <path clip-path="url(#pfcfb8ea1fb)" d="M 33.827814 43.411007 
L 33.645282 44.030269 
L 33.462749 44.649531 
L 33.280216 45.268793 
L 33.097683 45.888055 
L 32.955254 46.599853 
L 32.812826 47.31165 
L 32.670397 48.023448 
L 32.527968 48.735246 
L 32.164082 49.3363 
L 31.800196 49.937355 
L 31.43631 50.53841 
L 31.072424 51.139464 
L 30.487228 51.629776 
L 29.902032 52.120087 
L 29.316836 52.610399 
L 28.731639 53.10071 
L 28.177996 53.654212 
L 27.624352 54.207713 
L 27.070709 54.761214 
L 26.517065 55.314716 
L 26.121479 55.773539 
L 25.725893 56.232363 
L 25.330307 56.691187 
L 24.934721 57.15001 
" style="fill:none;stroke:#008000;stroke-linecap:square;stroke-width:0.544581;"/>
   </g>
   <g id="line2d_20">
    <path clip-path="url(#pfcfb8ea1fb)" d="M 37.570474 50.920977 
L 36.957117 51.32882 
L 36.102987 52.088171 
L 35.248857 52.847522 
L 34.394728 53.606873 
L 33.540598 54.366223 
L 32.876078 54.682602 
L 32.211558 54.99898 
L 31.547039 55.315358 
L 30.882519 55.631737 
L 30.059942 55.853009 
L 29.237365 56.074281 
L 28.414787 56.295553 
L 27.59221 56.516825 
L 26.927838 56.675121 
L 26.263465 56.833418 
L 25.599093 56.991714 
L 24.934721 57.15001 
L 23.953939 57.244902 
L 22.973157 57.339794 
L 21.992374 57.434686 
L 21.011592 57.529579 
" style="fill:none;stroke:#008000;stroke-linecap:square;stroke-width:0.544581;"/>
   </g>
   <g id="line2d_21">
    <path clip-path="url(#pfcfb8ea1fb)" d="M 42.019085 36.460537 
L 41.25401 36.304383 
L 40.488935 36.148229 
L 39.72386 35.992074 
L 38.958786 35.83592 
L 38.222757 36.017565 
L 37.636823 36.813759 
L 37.05089 37.609952 
L 36.464957 38.406146 
L 35.879023 39.20234 
L 35.29309 39.998534 
L 34.707157 40.794728 
L 34.121223 41.590922 
L 33.53529 42.387115 
" style="fill:none;stroke:#4169e1;stroke-linecap:square;stroke-width:0.544581;"/>
   </g>
   <g id="line2d_22">
    <path clip-path="url(#pfcfb8ea1fb)" d="M 46.132119 24.091579 
L 45.389603 24.613164 
L 44.647086 25.134749 
L 43.90457 25.656335 
L 43.162053 26.17792 
L 42.419537 26.699505 
L 41.677021 27.22109 
L 40.934504 27.742675 
L 40.191988 28.26426 
L 39.449471 28.785845 
L 38.706955 29.307431 
L 37.964439 29.829016 
L 37.221922 30.350601 
L 36.479406 30.872186 
L 35.736889 31.393771 
L 34.994373 31.915356 
L 34.251857 32.436942 
" style="fill:none;stroke:#008000;stroke-linecap:square;stroke-width:0.544581;"/>
   </g>
   <g id="line2d_23">
    <path clip-path="url(#pfcfb8ea1fb)" d="M 46.764939 33.170374 
L 46.190211 33.547372 
L 45.615483 33.92437 
L 44.740269 34.499291 
L 44.059973 34.989603 
L 43.379677 35.479914 
L 42.699381 35.970226 
L 42.019085 36.460537 
L 41.750152 36.998402 
L 41.481218 37.536266 
L 41.212284 38.074131 
L 40.943351 38.611996 
L 40.80494 39.205125 
L 40.666529 39.798254 
L 40.528118 40.391383 
L 40.389707 40.984512 
L 40.251296 41.577641 
L 40.112885 42.17077 
L 39.974475 42.763899 
L 39.836064 43.357028 
L 39.697653 43.950157 
L 39.559242 44.543286 
L 39.420831 45.136415 
L 39.28242 45.729544 
L 39.144009 46.322674 
L 39.005598 46.915803 
L 38.867187 47.508932 
L 38.728776 48.102061 
L 38.814145 48.705257 
L 38.899514 49.308454 
L 38.984883 49.911651 
L 39.070251 50.514847 
L 39.15562 51.118044 
L 39.240989 51.721241 
L 39.326358 52.324437 
L 39.411726 52.927634 
" style="fill:none;stroke:#000000;stroke-linecap:square;stroke-width:0.544581;"/>
   </g>
   <g id="line2d_24">
    <path clip-path="url(#pfcfb8ea1fb)" d="M 50.181458 26.400691 
L 49.533009 27.239083 
L 48.884561 28.077475 
L 48.236112 28.915867 
L 47.587663 29.754259 
L 47.381982 30.608288 
L 47.176301 31.462316 
L 46.97062 32.316345 
L 46.764939 33.170374 
L 46.586977 33.937543 
L 46.409015 34.704712 
L 46.231052 35.471882 
L 46.05309 36.239051 
L 45.875128 37.00622 
L 45.697166 37.77339 
L 45.519204 38.540559 
L 45.341242 39.307728 
L 45.16328 40.074897 
L 44.985318 40.842067 
L 44.807355 41.609236 
L 44.629393 42.376405 
L 44.451431 43.143575 
L 44.273469 43.910744 
L 44.095507 44.677913 
L 43.917545 45.445082 
L 43.917545 46.235921 
L 43.917545 47.02676 
L 43.917545 47.817599 
L 43.917545 48.608437 
L 44.312983 49.52587 
L 44.708422 50.443303 
L 45.103861 51.360736 
L 45.499299 52.278169 
L 46.116195 53.037306 
L 46.733091 53.796443 
L 47.349987 54.555579 
L 47.966884 55.314716 
L 48.758056 56.074281 
L 49.549228 56.833846 
" style="fill:none;stroke:#4169e1;stroke-linecap:square;stroke-width:0.544581;"/>
   </g>
   <g id="line2d_25">
    <path clip-path="url(#pfcfb8ea1fb)" d="M 90.904265 31.557851 
L 90.484867 32.148302 
L 90.06547 32.738754 
L 89.646072 33.329206 
L 89.226674 33.919657 
L 88.807276 34.510109 
L 88.387878 35.10056 
L 87.96848 35.691012 
L 87.549082 36.281463 
L 87.018955 37.027855 
L 86.488829 37.774246 
L 85.958702 38.520638 
L 85.428576 39.267029 
L 84.898449 40.013421 
L 84.368322 40.759813 
L 83.838196 41.506204 
L 83.308069 42.252596 
L 82.734078 43.060624 
L 82.160088 43.868653 
L 81.586097 44.676681 
L 81.012107 45.48471 
L 80.438116 46.292739 
L 79.864126 47.100767 
L 79.290135 47.908796 
L 78.716145 48.716824 
L 78.142154 49.524853 
L 77.568164 50.332882 
L 76.994173 51.14091 
L 76.420183 51.948939 
L 75.846192 52.756967 
L 75.272202 53.564996 
L 74.698211 54.373024 
L 74.12422 55.181053 
L 73.629701 55.877321 
L 73.135182 56.573589 
L 72.640662 57.269857 
L 72.146143 57.966125 
L 71.651623 58.662393 
L 71.157104 59.358661 
L 70.662584 60.054929 
L 70.168065 60.751197 
" style="fill:none;stroke:#008000;stroke-linecap:square;stroke-width:0.544581;"/>
   </g>
   <g id="line2d_26">
    <path clip-path="url(#pfcfb8ea1fb)" d="M 46.925945 23.369285 
L 46.915034 23.957702 
L 46.904124 24.546119 
L 46.893213 25.134535 
L 46.882302 25.722952 
L 46.871392 26.311368 
L 46.860481 26.899785 
L 46.84957 27.488202 
L 46.83866 28.076618 
L 46.827454 28.659251 
L 46.034144 29.220143 
L 45.240834 29.781034 
L 44.447524 30.341926 
L 43.654214 30.902817 
L 42.860904 31.463709 
L 42.067594 32.0246 
L 41.274284 32.585492 
L 40.480974 33.146383 
L 40.100427 33.818767 
L 39.71988 34.491152 
L 39.339333 35.163536 
L 38.958786 35.83592 
" style="fill:none;stroke:#000000;stroke-linecap:square;stroke-width:0.544581;"/>
   </g>
   <g id="line2d_27">
    <path clip-path="url(#pfcfb8ea1fb)" d="M 49.546869 25.621848 
L 48.869817 26.23554 
L 48.192764 26.849233 
L 47.515712 27.462926 
L 46.83866 28.076618 
L 46.685763 28.807587 
L 46.532866 29.538556 
L 46.379969 30.269525 
L 46.227071 31.000494 
L 46.074174 31.731463 
L 45.921277 32.462432 
L 45.76838 33.193401 
L 45.615483 33.92437 
" style="fill:none;stroke:#4169e1;stroke-linecap:square;stroke-width:0.544581;"/>
   </g>
   <g id="line2d_28">
    <path clip-path="url(#pfcfb8ea1fb)" d="M 51.133341 28.288251 
L 51.183619 29.048405 
L 51.233897 29.808559 
L 51.284174 30.568713 
L 51.334452 31.328868 
L 51.38473 32.089022 
L 51.435007 32.849176 
L 51.485285 33.60933 
L 51.535562 34.369484 
L 51.58584 35.129638 
L 51.636118 35.889792 
L 51.686395 36.649947 
L 51.736673 37.410101 
L 51.786951 38.170255 
L 51.837228 38.930409 
L 51.887506 39.690563 
L 51.937783 40.450717 
" style="fill:none;stroke:#000000;stroke-linecap:square;stroke-width:0.544581;"/>
   </g>
   <g id="line2d_29">
    <path clip-path="url(#pfcfb8ea1fb)" d="M 54.814666 17.059712 
L 55.36595 17.943622 
L 55.917235 18.827532 
L 56.468519 19.711442 
L 57.019804 20.595352 
L 57.571088 21.479262 
L 58.122373 22.363172 
L 58.673657 23.247082 
L 59.224942 24.130992 
L 59.009972 24.802841 
L 58.795002 25.47469 
L 58.580032 26.146539 
L 58.365062 26.818388 
L 58.150092 27.490236 
L 57.935122 28.162085 
L 57.720152 28.833934 
L 57.505182 29.505783 
L 57.291981 30.60893 
L 57.078781 31.712077 
L 56.869561 32.795304 
L 56.660341 33.87853 
L 56.451121 34.961756 
L 56.241901 36.044983 
L 56.068657 36.632757 
L 55.895413 37.220531 
L 55.722169 37.808305 
L 55.548925 38.396079 
L 55.375681 38.983853 
L 55.202437 39.571627 
L 55.029193 40.159401 
L 54.855949 40.747175 
L 54.566374 41.72994 
L 54.276798 42.712705 
L 53.987223 43.695469 
L 53.697647 44.678234 
L 53.419278 45.618159 
L 53.215071 46.307679 
L 53.010864 46.9972 
L 52.806657 47.68672 
L 52.602451 48.376241 
L 52.398244 49.065762 
L 52.194037 49.755282 
L 51.98983 50.444803 
L 51.785624 51.134323 
L 51.986955 51.891372 
L 52.188287 52.64842 
L 52.389618 53.405468 
L 52.59095 54.162516 
L 52.792282 54.919564 
L 52.993613 55.676612 
L 53.194945 56.433661 
L 53.396277 57.190709 
L 53.597608 57.947757 
L 53.79894 58.704805 
L 54.000272 59.461853 
L 54.201603 60.218902 
L 54.402935 60.97595 
L 54.604266 61.732998 
L 54.805598 62.490046 
L 55.00693 63.247094 
" style="fill:none;stroke:#008000;stroke-linecap:square;stroke-width:0.544581;"/>
   </g>
   <g id="line2d_30">
    <path clip-path="url(#pfcfb8ea1fb)" d="M 52.109406 26.513791 
L 52.478452 27.421584 
L 52.847499 28.329378 
L 53.216545 29.237172 
L 53.585592 30.144966 
L 53.54077 30.866617 
L 53.495947 31.588268 
L 53.451125 32.309919 
L 53.406303 33.03157 
L 53.36148 33.753221 
L 53.316658 34.474872 
L 53.271836 35.196523 
L 53.227014 35.918174 
L 53.430631 36.521799 
L 53.634248 37.125424 
L 53.837865 37.729049 
L 54.041482 38.332674 
L 54.245099 38.936299 
L 54.448716 39.539925 
L 54.652332 40.14355 
L 54.855949 40.747175 
" style="fill:none;stroke:#ff0000;stroke-linecap:square;stroke-width:0.544581;"/>
   </g>
   <g id="line2d_31">
    <path clip-path="url(#pfcfb8ea1fb)" d="M 53.419278 45.618159 
L 52.670421 46.029858 
L 51.921565 46.441556 
L 51.172708 46.853255 
L 50.423852 47.264954 
L 50.033132 47.836716 
L 49.642411 48.408479 
L 49.251691 48.980241 
L 48.86097 49.552003 
L 48.470249 50.123766 
L 48.079529 50.695528 
L 47.688808 51.26729 
L 47.298088 51.839052 
L 46.907367 52.410815 
L 46.516647 52.982577 
L 46.125926 53.554339 
L 45.735206 54.126102 
L 45.344485 54.697864 
L 44.953765 55.269626 
L 44.563044 55.841388 
L 44.172324 56.413151 
" style="fill:none;stroke:#008000;stroke-linecap:square;stroke-width:0.544581;"/>
   </g>
   <g id="line2d_32">
    <path clip-path="url(#pfcfb8ea1fb)" d="M 72.311277 21.167275 
L 71.806142 21.529707 
L 71.301007 21.892139 
L 70.558269 22.42497 
L 69.815532 22.957801 
L 69.072794 23.490632 
L 68.330057 24.023462 
L 67.587319 24.556293 
L 66.844581 25.089124 
L 66.101844 25.621955 
L 65.359106 26.154786 
L 65.320919 26.775547 
L 65.282732 27.396308 
L 65.244544 28.01707 
L 65.206357 28.637831 
L 65.164483 29.317284 
L 65.12261 29.996737 
L 65.055671 31.086175 
L 64.988733 32.175613 
L 64.921794 33.265052 
L 64.854856 34.35449 
L 64.644088 35.252645 
L 64.43332 36.150799 
L 64.222552 37.048954 
L 64.011784 37.947108 
L 63.801016 38.845263 
L 63.590248 39.743418 
L 63.37948 40.641572 
L 63.168712 41.539727 
L 62.540611 42.207506 
L 61.912509 42.875285 
L 61.284408 43.543064 
L 60.656306 44.210843 
L 60.028204 44.878622 
L 59.400103 45.546401 
L 58.772001 46.21418 
L 58.143899 46.881958 
L 57.791661 47.625887 
L 57.439423 48.369815 
L 57.087185 49.113743 
L 56.734946 49.857671 
L 56.260479 50.859286 
L 55.786012 51.860901 
L 56.281784 52.517488 
L 56.777557 53.174075 
L 57.27333 53.830662 
L 57.769103 54.487248 
L 58.264875 55.143835 
L 58.760648 55.800422 
L 59.256421 56.457009 
L 59.752193 57.113596 
L 60.247966 57.770182 
L 60.743739 58.426769 
L 61.239512 59.083356 
L 61.735284 59.739943 
L 62.231057 60.39653 
L 62.72683 61.053116 
L 63.222602 61.709703 
L 63.718375 62.36629 
L 64.424326 62.712443 
L 65.130277 63.058595 
L 65.836228 63.404748 
L 66.542179 63.750901 
" style="fill:none;stroke:#4169e1;stroke-linecap:square;stroke-width:0.544581;"/>
   </g>
   <g id="line2d_33">
    <path clip-path="url(#pfcfb8ea1fb)" d="M 65.206357 28.637831 
L 64.397786 28.808765 
L 63.589216 28.979699 
L 62.925581 29.420102 
L 62.261946 29.860504 
L 61.598311 30.300906 
L 60.934676 30.741308 
L 60.865673 31.430186 
L 60.774554 32.339051 
L 60.683435 33.247915 
L 60.592316 34.15678 
L 60.501197 35.065645 
L 60.27915 35.835492 
L 60.057103 36.605339 
L 59.835056 37.375185 
L 59.613008 38.145032 
L 59.087453 38.979354 
L 58.561897 39.813676 
L 58.036341 40.647998 
L 57.510785 41.48232 
L 56.985229 42.316643 
L 56.459673 43.150965 
L 55.934117 43.985287 
L 55.408561 44.819609 
L 55.574359 45.449366 
L 55.740157 46.079124 
L 55.905956 46.708882 
L 56.071754 47.33864 
L 56.237552 47.968398 
L 56.40335 48.598156 
L 56.569148 49.227914 
L 56.734946 49.857671 
" style="fill:none;stroke:#4169e1;stroke-linecap:square;stroke-width:0.544581;"/>
   </g>
   <g id="line2d_34">
    <path clip-path="url(#pfcfb8ea1fb)" d="M 60.865673 31.430186 
L 59.91895 31.500659 
L 58.972227 31.571132 
L 58.025504 31.641604 
L 57.078781 31.712077 
" style="fill:none;stroke:#008000;stroke-linecap:square;stroke-width:0.544581;"/>
   </g>
   <g id="line2d_35">
    <path clip-path="url(#pfcfb8ea1fb)" d="M 65.12261 29.996737 
L 65.545915 30.514895 
L 65.96922 31.033053 
L 66.392525 31.551211 
L 66.81583 32.069369 
L 67.294426 32.655215 
L 67.773022 33.241061 
L 68.251618 33.826907 
L 68.730213 34.412753 
L 69.486589 35.048295 
L 70.242965 35.683836 
L 70.999341 36.319377 
L 71.755717 36.954919 
L 72.46845 37.553831 
L 73.181183 38.152744 
L 73.893917 38.751656 
L 74.60665 39.350569 
L 74.926303 40.222376 
L 75.245957 41.094184 
L 75.215473 41.695613 
L 75.18499 42.297043 
L 75.154506 42.898472 
L 75.124023 43.499902 
L 75.093539 44.101331 
L 75.063055 44.702761 
L 75.032572 45.30419 
L 75.002088 45.90562 
L 74.971605 46.507049 
L 74.941121 47.108479 
L 74.910638 47.709908 
L 74.880154 48.311337 
L 74.84967 48.912767 
L 74.819187 49.514196 
L 74.788703 50.115626 
L 74.75822 50.717055 
L 74.59972 51.833055 
L 74.44122 52.949054 
L 74.28272 54.065054 
L 74.12422 55.181053 
" style="fill:none;stroke:#4169e1;stroke-linecap:square;stroke-width:0.544581;"/>
   </g>
   <g id="line2d_36">
    <path clip-path="url(#pfcfb8ea1fb)" d="M 71.301007 21.892139 
L 71.365144 22.754522 
L 71.429281 23.616904 
L 71.493418 24.479287 
L 71.557555 25.34167 
L 70.96484 26.182632 
L 70.372124 27.023594 
L 69.779408 27.864557 
L 69.186693 28.705519 
L 68.593977 29.546482 
L 68.001262 30.387444 
L 67.408546 31.228406 
L 66.81583 32.069369 
" style="fill:none;stroke:#4169e1;stroke-linecap:square;stroke-width:0.544581;"/>
   </g>
   <g id="line2d_37">
    <path clip-path="url(#pfcfb8ea1fb)" d="M 66.81583 32.069369 
L 66.849447 32.866633 
L 66.883064 33.663898 
L 66.91668 34.461163 
L 66.950297 35.258428 
L 66.983914 36.055693 
L 67.017531 36.852958 
L 67.051147 37.650223 
L 67.084764 38.447487 
L 66.947127 39.305586 
L 66.80949 40.163685 
L 66.671854 41.021783 
L 66.534217 41.879882 
L 66.39658 42.737981 
L 66.258943 43.596079 
L 66.121306 44.454178 
L 65.983669 45.312276 
L 65.547242 45.891482 
L 65.110815 46.470688 
L 64.674387 47.049894 
L 64.23796 47.6291 
L 64.223953 48.524256 
L 64.209946 49.419411 
L 64.195939 50.314567 
L 64.181932 51.209723 
L 64.167925 52.104879 
L 64.153918 53.000035 
L 64.139911 53.89519 
L 64.125904 54.790346 
L 64.293029 55.517888 
L 64.460154 56.245429 
L 64.627279 56.972971 
L 64.794405 57.700513 
L 64.96153 58.428054 
L 65.128655 59.155596 
L 65.29578 59.883138 
L 65.462905 60.610679 
" style="fill:none;stroke:#000000;stroke-linecap:square;stroke-width:0.544581;"/>
   </g>
   <g id="line2d_38">
    <path clip-path="url(#pfcfb8ea1fb)" d="M 65.983669 45.312276 
L 66.104719 46.129034 
L 66.225769 46.945791 
L 66.346818 47.762548 
L 66.467868 48.579306 
L 66.616637 49.679883 
L 66.765405 50.780459 
L 66.914174 51.881036 
L 67.062943 52.981613 
L 66.973077 53.630114 
L 66.883211 54.278614 
L 66.793345 54.927115 
L 66.70348 55.575616 
L 66.613614 56.224116 
L 66.523748 56.872617 
L 66.433883 57.521117 
L 66.344017 58.169618 
" style="fill:none;stroke:#000000;stroke-linecap:square;stroke-width:0.544581;"/>
   </g>
   <g id="line2d_39">
    <path clip-path="url(#pfcfb8ea1fb)" d="M 75.024794 14.939955 
L 74.934873 15.545535 
L 74.844952 16.151115 
L 74.755031 16.756694 
L 74.66511 17.362274 
L 74.575189 17.967853 
L 74.485268 18.573433 
L 74.395347 19.179013 
L 74.305426 19.784592 
L 74.215505 20.390172 
L 74.125584 20.995752 
L 74.035663 21.601331 
L 73.945742 22.206911 
L 73.855821 22.812491 
L 73.7659 23.41807 
L 73.675979 24.02365 
L 73.586058 24.629229 
L 73.496137 25.234809 
L 73.406216 25.840389 
L 73.316295 26.445968 
L 73.226374 27.051548 
L 73.136453 27.657128 
L 73.046532 28.262707 
L 72.956611 28.868287 
L 72.86669 29.473867 
L 72.776769 30.079446 
L 72.686848 30.685026 
L 72.596927 31.290606 
L 72.507006 31.896185 
L 72.417085 32.501765 
L 72.327164 33.107344 
L 72.237243 33.712924 
L 72.147322 34.318504 
L 72.049421 34.977607 
L 71.95152 35.636711 
L 71.853618 36.295815 
L 71.755717 36.954919 
" style="fill:none;stroke:#ff0000;stroke-linecap:square;stroke-width:0.544581;"/>
   </g>
   <g id="line2d_40">
    <path clip-path="url(#pfcfb8ea1fb)" d="M 71.755717 36.954919 
L 71.66434 37.55849 
L 71.572963 38.162061 
L 71.481586 38.765633 
L 71.390209 39.369204 
L 71.298832 39.972776 
L 71.207455 40.576347 
L 71.116078 41.179919 
L 71.024701 41.78349 
L 70.933324 42.387062 
L 70.841947 42.990633 
L 70.75057 43.594205 
L 70.659193 44.197776 
L 70.567816 44.801348 
L 70.476439 45.404919 
L 70.385062 46.008491 
L 70.293685 46.612062 
L 70.202308 47.215634 
L 70.110931 47.819205 
L 70.019554 48.422777 
L 69.928177 49.026348 
L 69.8368 49.62992 
L 69.745423 50.233491 
L 69.654046 50.837063 
L 69.562669 51.440634 
L 69.471292 52.044206 
L 69.379915 52.647777 
L 69.288538 53.251349 
L 69.197161 53.85492 
L 69.105784 54.458492 
L 69.014407 55.062063 
L 68.92303 55.665635 
L 68.831653 56.269206 
" style="fill:none;stroke:#4169e1;stroke-linecap:square;stroke-width:0.544581;"/>
   </g>
   <g id="line2d_41">
    <path clip-path="url(#pfcfb8ea1fb)" d="M 72.722935 17.602074 
L 72.006368 17.701572 
L 71.289801 17.801069 
L 70.573235 17.900567 
L 69.856668 18.000064 
L 69.140101 18.099562 
L 68.423535 18.199059 
L 67.706968 18.298557 
L 66.990401 18.398054 
L 66.13406 19.030382 
L 65.277719 19.662711 
L 64.521121 20.221246 
L 63.764524 20.779781 
L 63.007927 21.338316 
L 62.25133 21.896852 
L 61.494733 22.455387 
L 60.738136 23.013922 
L 59.981539 23.572457 
L 59.224942 24.130992 
" style="fill:none;stroke:#008000;stroke-linecap:square;stroke-width:0.544581;"/>
   </g>
   <g id="line2d_42">
    <path clip-path="url(#pfcfb8ea1fb)" d="M 74.540596 9.436643 
L 73.958201 9.594511 
L 73.375806 9.752379 
L 72.793412 9.910246 
L 72.211017 10.068114 
L 71.333149 10.794692 
L 70.455281 11.52127 
L 69.577413 12.247848 
L 68.699545 12.974425 
L 68.193968 13.694149 
L 67.68839 14.413872 
L 67.182813 15.133595 
L 66.677235 15.853318 
L 66.327356 16.805666 
L 65.977477 17.758014 
L 65.627598 18.710363 
L 65.277719 19.662711 
" style="fill:none;stroke:#008000;stroke-linecap:square;stroke-width:0.544581;"/>
   </g>
   <g id="line2d_43">
    <path clip-path="url(#pfcfb8ea1fb)" d="M 76.060425 18.265248 
L 76.16732 18.856449 
L 76.274215 19.44765 
L 76.381111 20.038852 
L 76.488006 20.630053 
L 76.594901 21.221254 
L 76.701796 21.812455 
L 76.808691 22.403657 
L 76.915587 22.994858 
L 77.100184 24.015537 
L 77.284781 25.036216 
L 77.469378 26.056895 
L 77.653975 27.077574 
L 77.929986 27.724468 
L 78.190663 28.335376 
L 78.451339 28.946284 
L 78.852528 29.887065 
L 79.253717 30.827846 
L 79.654906 31.768627 
L 80.056095 32.709408 
L 80.336676 33.367012 
L 80.617258 34.024617 
L 80.89784 34.682221 
L 81.178421 35.339825 
L 81.459003 35.99743 
L 81.739584 36.655034 
L 82.020166 37.312638 
L 82.300747 37.970242 
L 82.552578 39.040831 
L 82.804408 40.111419 
L 83.056239 41.182007 
L 83.308069 42.252596 
" style="fill:none;stroke:#000000;stroke-linecap:square;stroke-width:0.544581;"/>
   </g>
   <g id="line2d_44">
    <path clip-path="url(#pfcfb8ea1fb)" d="M 76.403669 16.164342 
L 76.574701 16.816591 
L 76.745734 17.46884 
L 76.916766 18.121089 
L 77.087799 18.773338 
L 77.809526 18.283348 
L 78.531253 17.793358 
L 79.25298 17.303368 
L 79.974707 16.813378 
L 80.696434 16.323388 
L 81.418161 15.833397 
L 82.139888 15.343407 
L 82.861616 14.853417 
L 83.270324 15.560288 
L 83.679032 16.267159 
L 83.717957 16.843795 
L 83.756882 17.42043 
L 83.79647 18.008097 
L 83.836058 18.595764 
L 83.875646 19.183431 
L 83.915234 19.771098 
L 83.954822 20.358764 
L 83.99441 20.946431 
L 84.033998 21.534098 
L 84.073586 22.121765 
L 84.133743 23.012851 
L 84.469615 23.956631 
L 84.805487 24.900411 
L 85.032473 25.538094 
L 85.25946 26.175778 
L 85.486446 26.813461 
L 85.713433 27.451144 
L 85.940419 28.088828 
L 86.167406 28.726511 
L 86.394392 29.364194 
L 86.621379 30.001878 
L 86.737342 30.786826 
L 86.853305 31.571774 
L 86.969268 32.356722 
L 87.08523 33.141671 
L 87.201193 33.926619 
L 87.317156 34.711567 
L 87.433119 35.496515 
L 87.549082 36.281463 
" style="fill:none;stroke:#008000;stroke-linecap:square;stroke-width:0.544581;"/>
   </g>
   <g id="line2d_45">
    <path clip-path="url(#pfcfb8ea1fb)" d="M 76.915587 22.994858 
L 77.770749 22.298054 
L 78.62591 21.601251 
L 79.481072 20.904447 
L 80.336234 20.207644 
L 81.191396 19.51084 
L 82.046558 18.814037 
L 82.90172 18.117233 
L 83.756882 17.42043 
" style="fill:none;stroke:#008000;stroke-linecap:square;stroke-width:0.544581;"/>
   </g>
   <g id="line2d_46">
    <path clip-path="url(#pfcfb8ea1fb)" d="M 77.929986 27.724468 
L 78.542753 26.943911 
L 79.155521 26.163354 
L 79.817829 25.288976 
L 80.480137 24.414598 
L 81.142445 23.54022 
L 81.804753 22.665842 
L 82.371962 22.529822 
L 82.93917 22.393803 
L 83.506378 22.257784 
L 84.073586 22.121765 
" style="fill:none;stroke:#008000;stroke-linecap:square;stroke-width:0.544581;"/>
   </g>
   <g id="line2d_47">
    <path clip-path="url(#pfcfb8ea1fb)" d="M 84.805487 24.900411 
L 84.358739 25.303327 
L 83.91199 25.706244 
L 83.465242 26.10916 
L 83.018494 26.512077 
L 82.648194 27.286743 
L 82.277894 28.06141 
L 81.907594 28.836076 
L 81.537294 29.610743 
L 81.166994 30.385409 
L 80.796695 31.160075 
L 80.426395 31.934742 
L 80.056095 32.709408 
" style="fill:none;stroke:#008000;stroke-linecap:square;stroke-width:0.544581;"/>
   </g>
   <g id="line2d_48">
    <path clip-path="url(#pfcfb8ea1fb)" d="M 78.451339 28.946284 
L 77.84963 29.433596 
L 77.24792 29.920909 
L 76.646211 30.408222 
L 76.044501 30.895534 
L 75.477145 31.550782 
L 74.90979 32.20603 
L 74.342434 32.861278 
L 73.775079 33.516526 
L 72.9612 33.917515 
L 72.147322 34.318504 
" style="fill:none;stroke:#008000;stroke-linecap:square;stroke-width:0.544581;"/>
   </g>
   <g id="line2d_49">
    <path clip-path="url(#pfcfb8ea1fb)" d="M 80.987926 42.709277 
L 80.461117 43.554952 
L 79.934308 44.400627 
L 79.407499 45.246302 
L 78.88069 46.091977 
L 78.35388 46.937651 
L 77.827071 47.783326 
L 77.300262 48.629001 
L 76.773453 49.474676 
" style="fill:none;stroke:#008000;stroke-linecap:square;stroke-width:0.544581;"/>
   </g>
   <g id="line2d_50">
    <path clip-path="url(#pfcfb8ea1fb)" d="M 94.0778 7.829261 
L 94.279427 8.668938 
L 94.481054 9.508615 
L 94.68268 10.348292 
L 94.884307 11.187969 
L 95.085933 12.027647 
L 95.28756 12.867324 
L 95.489186 13.707001 
L 95.690813 14.546678 
L 95.892439 15.386355 
L 96.094066 16.226032 
L 96.295692 17.065709 
L 96.497319 17.905386 
L 96.698945 18.745064 
L 96.900572 19.584741 
L 97.102198 20.424418 
L 97.303825 21.264095 
L 96.928807 21.867292 
L 96.553789 22.470488 
L 96.178771 23.073685 
L 95.803753 23.676881 
L 95.428735 24.280078 
L 95.053717 24.883275 
L 94.678699 25.486471 
L 94.303681 26.089668 
L 93.878754 26.772977 
L 93.453827 27.456285 
L 93.089351 28.042774 
L 92.724875 28.629263 
L 92.3604 29.215752 
L 91.995924 29.80224 
L 91.450095 30.680046 
L 90.904265 31.557851 
" style="fill:none;stroke:#008000;stroke-linecap:square;stroke-width:0.544581;"/>
   </g>
   <g id="line2d_51">
    <path clip-path="url(#pfcfb8ea1fb)" d="M 89.078347 11.614662 
L 89.404931 12.51935 
L 89.731514 13.424038 
L 90.058097 14.328726 
L 90.384681 15.233414 
L 90.711264 16.138102 
L 91.037848 17.042789 
L 91.364431 17.947477 
L 91.691014 18.852165 
L 92.017598 19.756853 
L 92.344181 20.661541 
L 92.670764 21.566229 
L 92.997348 22.470917 
L 93.323931 23.375604 
L 93.650514 24.280292 
L 93.977098 25.18498 
L 94.303681 26.089668 
" style="fill:none;stroke:#4169e1;stroke-linecap:square;stroke-width:0.544581;"/>
   </g>
   <g id="line2d_52">
    <path clip-path="url(#pfcfb8ea1fb)" d="M 86.408473 13.173206 
L 86.757689 14.212521 
L 87.106904 15.251835 
L 87.45612 16.29115 
L 87.805336 17.330465 
L 88.154551 18.369779 
L 88.503767 19.409094 
L 88.852983 20.448409 
L 89.202198 21.487723 
L 89.551414 22.527038 
L 89.90063 23.566352 
L 90.249845 24.605667 
L 90.599061 25.644982 
L 90.948277 26.684296 
L 91.297492 27.723611 
L 91.646708 28.762926 
L 91.995924 29.80224 
" style="fill:none;stroke:#4169e1;stroke-linecap:square;stroke-width:0.544581;"/>
   </g>
   <g id="line2d_53">
    <path clip-path="url(#pfcfb8ea1fb)" d="M 93.453827 27.456285 
L 93.792869 28.490593 
L 94.131912 29.524901 
L 94.470954 30.559208 
L 94.809996 31.593516 
L 95.149038 32.627823 
L 95.48808 33.662131 
L 95.827122 34.696439 
L 96.166165 35.730746 
L 96.505207 36.765054 
L 96.844249 37.799362 
L 97.183291 38.833669 
L 97.522333 39.867977 
L 97.861376 40.902285 
L 98.200418 41.936592 
L 98.53946 42.9709 
L 98.878502 44.005208 
L 99.217544 45.039515 
L 99.556587 46.073823 
L 99.895629 47.10813 
L 100.234671 48.142438 
L 100.573713 49.176746 
L 100.912755 50.211053 
L 101.251797 51.245361 
L 101.59084 52.279669 
L 101.929882 53.313976 
L 102.268924 54.348284 
L 102.607966 55.382592 
L 102.947008 56.416899 
L 103.286051 57.451207 
L 103.625093 58.485514 
L 103.964135 59.519822 
L 104.303177 60.55413 
" style="fill:none;stroke:#008000;stroke-linecap:square;stroke-width:0.544581;"/>
   </g>
   <g id="line2d_54">
    <path clip-path="url(#pfcfb8ea1fb)" d="M 97.586913 7.871245 
L 98.015231 8.450986 
L 98.443549 9.030727 
L 98.871867 9.610469 
L 99.300185 10.19021 
L 99.728504 10.769952 
L 100.156822 11.349693 
L 100.58514 11.929434 
L 101.013458 12.509176 
L 100.96753 13.240894 
L 100.921602 13.972613 
L 100.875674 14.704332 
L 100.829746 15.43605 
L 100.783818 16.167769 
L 100.737889 16.899487 
L 100.691961 17.631206 
L 100.646033 18.362925 
L 100.557863 19.429336 
L 100.469693 20.495747 
L 100.381523 21.562159 
L 100.293353 22.62857 
L 100.205183 23.694982 
L 100.117012 24.761393 
L 100.028842 25.827804 
L 99.940672 26.894216 
L 100.161098 27.715953 
L 100.381523 28.537691 
L 100.601948 29.359428 
L 100.822374 30.181166 
L 101.042799 31.002904 
L 101.263224 31.824641 
L 101.48365 32.646379 
L 101.704075 33.468116 
L 101.9245 34.289854 
L 102.144926 35.111592 
L 102.365351 35.933329 
L 102.585776 36.755067 
L 102.806202 37.576804 
L 103.026627 38.398542 
L 103.247052 39.22028 
L 103.467478 40.042017 
L 103.687903 40.863755 
L 103.908328 41.685492 
L 104.128754 42.50723 
L 104.349179 43.328968 
L 104.569604 44.150705 
L 104.79003 44.972443 
L 105.010455 45.79418 
L 105.23088 46.615918 
L 105.451306 47.437656 
L 105.671731 48.259393 
L 105.892156 49.081131 
L 106.112582 49.902868 
L 106.333007 50.724606 
L 106.553432 51.546343 
L 106.773858 52.368081 
L 106.994283 53.189819 
L 107.183451 53.894976 
L 107.372618 54.600134 
L 107.561786 55.305291 
L 107.750954 56.010448 
L 107.940122 56.715606 
L 108.129289 57.420763 
L 108.318457 58.125921 
L 108.507625 58.831078 
" style="fill:none;stroke:#008000;stroke-linecap:square;stroke-width:0.544581;"/>
   </g>
   <g id="line2d_55">
    <path clip-path="url(#pfcfb8ea1fb)" d="M 99.576786 7.206358 
L 100.175768 7.319564 
L 100.77475 7.43277 
L 101.373732 7.545977 
L 101.972714 7.659183 
L 102.571696 7.77239 
L 103.170677 7.885596 
L 103.769659 7.998803 
L 104.368641 8.112009 
L 105.198296 8.887854 
L 106.02795 9.663698 
L 106.857605 10.439543 
L 107.687259 11.215387 
L 107.880555 12.088748 
L 108.073851 12.962109 
L 108.267147 13.835469 
L 108.460443 14.70883 
L 108.653739 15.58219 
L 108.847035 16.455551 
L 109.040332 17.328912 
L 109.233628 18.202272 
L 109.426924 19.075633 
L 109.62022 19.948993 
L 109.813516 20.822354 
L 110.006812 21.695715 
L 110.200108 22.569075 
L 110.393404 23.442436 
L 110.5867 24.315796 
L 110.779996 25.189157 
L 110.873916 25.798137 
L 110.967837 26.407117 
L 111.061757 27.016097 
L 111.155678 27.625077 
L 111.249598 28.234058 
L 111.343518 28.843038 
L 111.437439 29.452018 
L 111.531359 30.060998 
L 111.625279 30.669978 
L 111.7192 31.278958 
L 111.81312 31.887938 
L 111.90704 32.496918 
L 112.000961 33.105899 
L 112.094881 33.714879 
L 112.188802 34.323859 
L 112.282722 34.932839 
L 112.170003 36.068224 
L 112.057284 37.203609 
L 111.944564 38.338993 
L 111.831845 39.474378 
L 111.719126 40.609763 
L 111.606407 41.745148 
L 111.493688 42.880533 
L 111.380968 44.015918 
L 110.980959 44.852382 
L 110.58095 45.688846 
L 110.18094 46.52531 
L 109.780931 47.361774 
L 109.4326 48.09028 
L 109.084269 48.818785 
L 108.735938 49.547291 
L 108.387607 50.275796 
L 108.039276 51.004302 
L 107.690945 51.732808 
L 107.342614 52.461313 
L 106.994283 53.189819 
" style="fill:none;stroke:#008000;stroke-linecap:square;stroke-width:0.544581;"/>
   </g>
   <g id="line2d_56">
    <path clip-path="url(#pfcfb8ea1fb)" d="M 105.66141 11.87342 
L 105.66141 12.525616 
L 105.66141 13.177811 
L 105.66141 13.830007 
L 105.66141 14.482203 
L 105.66141 15.134398 
L 105.66141 15.786594 
L 105.66141 16.43879 
L 105.66141 17.090985 
L 105.66141 17.743181 
L 105.66141 18.395377 
L 105.66141 19.047572 
L 105.66141 19.699768 
L 105.66141 20.351963 
L 105.66141 21.004159 
L 105.66141 21.656355 
L 105.66141 22.30855 
L 105.80148 23.333621 
L 105.941549 24.358691 
L 106.081619 25.383761 
L 106.221689 26.408831 
L 106.361758 27.433901 
L 106.501828 28.458971 
L 106.641897 29.484041 
L 106.781967 30.509111 
L 107.018611 31.358321 
L 107.255255 32.20753 
L 107.491899 33.056739 
L 107.728543 33.905948 
L 107.965187 34.755157 
L 108.201831 35.604366 
L 108.438474 36.453576 
L 108.675118 37.302785 
L 108.628674 38.283943 
L 108.58223 39.265102 
L 108.535786 40.24626 
L 108.489342 41.227419 
L 108.442898 42.208577 
L 108.396454 43.189735 
L 108.350009 44.170894 
L 108.303565 45.152052 
L 108.672907 45.704483 
L 109.042248 46.256913 
L 109.41159 46.809344 
L 109.780931 47.361774 
" style="fill:none;stroke:#008000;stroke-linecap:square;stroke-width:0.544581;"/>
   </g>
   <g id="line2d_57">
    <path clip-path="url(#pfcfb8ea1fb)" d="M 77.232291 9.282416 
L 78.244442 9.115766 
L 79.256592 8.949116 
L 80.268743 8.782466 
L 81.280893 8.615816 
L 82.293043 8.449165 
L 83.305194 8.282515 
L 84.317344 8.115865 
L 85.329495 7.949215 
L 86.341645 7.782565 
L 87.353796 7.615914 
L 88.365946 7.449264 
L 89.378096 7.282614 
L 90.390247 7.115964 
L 91.402397 6.949314 
L 92.414548 6.782663 
L 93.426698 6.616013 
" style="fill:none;stroke:#008000;stroke-linecap:square;stroke-width:0.544581;"/>
   </g>
   <g id="line2d_58">
    <path clip-path="url(#pfcfb8ea1fb)" d="M 73.660664 64.564873 
L 73.520004 65.568202 
L 73.379345 66.57153 
L 73.238686 67.574859 
L 73.098026 68.578187 
" style="fill:none;stroke:#008000;stroke-linecap:square;stroke-width:0.544581;"/>
   </g>
  </g>
 </g>
 <defs>
  <clipPath id="pfcfb8ea1fb">
   <rect height="72" width="117.629518" x="0" y="0"/>
  </clipPath>
 </defs>
</svg>
