<?xml version="1.0" encoding="utf-8" standalone="no"?>
<!DOCTYPE svg PUBLIC "-//W3C//DTD SVG 1.1//EN"
  "http://www.w3.org/Graphics/SVG/1.1/DTD/svg11.dtd">
<svg height="72pt" version="1.1" viewBox="0 0 35.835697 72" width="35.835697pt" xmlns="http://www.w3.org/2000/svg" xmlns:xlink="http://www.w3.org/1999/xlink">
 <metadata>
  <rdf:RDF xmlns:cc="http://creativecommons.org/ns#" xmlns:dc="http://purl.org/dc/elements/1.1/" xmlns:rdf="http://www.w3.org/1999/02/22-rdf-syntax-ns#">
   <cc:Work>
    <dc:type rdf:resource="http://purl.org/dc/dcmitype/StillImage"/>
    <dc:date>2022-04-21T17:34:16.785065</dc:date>
    <dc:format>image/svg+xml</dc:format>
    <dc:creator>
     <cc:Agent>
      <dc:title>Matplotlib v3.4.3, https://matplotlib.org/</dc:title>
     </cc:Agent>
    </dc:creator>
   </cc:Work>
  </rdf:RDF>
 </metadata>
 <defs>
  <style type="text/css">*{stroke-linecap:butt;stroke-linejoin:round;}</style>
 </defs>
 <g id="figure_1">
  <g id="patch_1">
   <path d="M 0 72 
L 35.835697 72 
L 35.835697 0 
L 0 0 
z
" style="fill:#ffffff;"/>
  </g>
  <g id="axes_1">
   <g id="line2d_1">
    <path clip-path="url(#pb2bc56b11e)" d="M 12.101107 68.652938 
L 10.794988 67.496642 
L 9.488869 66.340345 
L 8.18275 65.184049 
L 6.876632 64.027752 
" style="fill:none;stroke:#808080;stroke-linecap:square;stroke-width:0.4;"/>
   </g>
   <g id="line2d_2">
    <path clip-path="url(#pb2bc56b11e)" d="M 16.29493 65.034008 
L 15.952318 63.49745 
L 15.609707 61.960892 
L 15.267096 60.424334 
L 14.924485 58.887776 
L 14.581873 57.351218 
L 14.239262 55.81466 
L 13.896651 54.278102 
L 13.55404 52.741544 
L 13.211428 51.204986 
L 12.868817 49.668428 
L 12.526206 48.131869 
L 12.183595 46.595311 
L 11.840983 45.058753 
L 11.498372 43.522195 
L 11.155761 41.985637 
L 10.81315 40.449079 
L 10.470538 38.912521 
L 10.127927 37.375963 
L 9.785316 35.839405 
L 9.442704 34.302847 
L 9.100093 32.766289 
L 8.757482 31.229731 
L 8.414871 29.693173 
L 8.072259 28.156615 
L 7.729648 26.620057 
L 7.387037 25.083499 
L 7.044426 23.54694 
L 6.701814 22.010382 
L 6.359203 20.473824 
L 6.016592 18.937266 
L 5.673981 17.400708 
L 5.331369 15.86415 
L 5.081222 14.742152 
L 4.638363 12.75633 
L 4.195505 10.770508 
" style="fill:none;stroke:#808080;stroke-linecap:square;stroke-width:0.4;"/>
   </g>
   <g id="line2d_3">
    <path clip-path="url(#pb2bc56b11e)" d="M 22.675667 60.585428 
L 22.406553 59.905943 
L 21.702497 58.127845 
L 20.998442 56.349748 
L 20.294387 54.57165 
L 19.590332 52.793553 
L 18.886277 51.015455 
L 18.182222 49.237358 
L 17.478166 47.45926 
L 16.774111 45.681162 
L 16.215238 44.269778 
L 15.656364 42.858394 
L 15.09749 41.44701 
L 14.538616 40.035626 
L 13.979743 38.624242 
L 13.420869 37.212858 
L 12.861995 35.801474 
L 12.303122 34.39009 
L 11.744248 32.978706 
L 11.185374 31.567322 
L 10.6265 30.155938 
L 10.067627 28.744554 
L 9.508753 27.33317 
L 8.949879 25.921786 
L 8.391006 24.510401 
L 7.832132 23.099017 
" style="fill:none;stroke:#808080;stroke-linecap:square;stroke-width:0.4;"/>
   </g>
   <g id="line2d_4">
    <path clip-path="url(#pb2bc56b11e)" d="M 19.946587 61.513858 
L 18.745188 60.259654 
L 17.54379 59.005451 
L 16.342392 57.751248 
L 15.140993 56.497044 
L 13.939595 55.242841 
L 12.738196 53.988638 
L 11.536798 52.734435 
L 10.335399 51.480231 
" style="fill:none;stroke:#808080;stroke-linecap:square;stroke-width:0.4;"/>
   </g>
   <g id="line2d_5">
    <path clip-path="url(#pb2bc56b11e)" d="M 23.961119 60.245187 
L 24.771505 58.350911 
L 25.581891 56.456635 
" style="fill:none;stroke:#808080;stroke-linecap:square;stroke-width:0.4;"/>
   </g>
   <g id="line2d_6">
    <path clip-path="url(#pb2bc56b11e)" d="M 7.216246 63.90303 
L 7.724057 64.184153 
L 8.231867 64.465276 
L 8.632498 64.745901 
L 9.033128 65.026525 
L 9.400297 65.283452 
L 9.767467 65.540379 
L 10.127927 65.879623 
L 10.488387 66.218866 
L 10.848847 66.55811 
L 11.209306 66.897353 
L 11.453549 67.201176 
L 11.697792 67.504998 
L 11.942035 67.808821 
L 12.186279 68.112643 
" style="fill:none;stroke:#008000;stroke-linecap:square;stroke-width:0.4;"/>
   </g>
   <g id="line2d_7">
    <path clip-path="url(#pb2bc56b11e)" d="M 11.9848 55.837016 
L 12.115421 56.318443 
L 12.246042 56.799869 
L 12.369863 57.196235 
L 12.493685 57.592601 
L 12.781587 58.091738 
L 13.06949 58.590875 
L 13.237955 58.978262 
L 13.40642 59.365648 
L 13.574885 59.753034 
L 13.74335 60.14042 
L 13.910831 60.453722 
L 14.078312 60.767023 
L 14.245793 61.080324 
L 14.413274 61.393626 
L 14.643739 61.969591 
L 14.874205 62.545557 
L 15.181253 63.063901 
L 15.488301 63.582245 
" style="fill:none;stroke:#008000;stroke-linecap:square;stroke-width:0.4;"/>
   </g>
   <g id="line2d_8">
    <path clip-path="url(#pb2bc56b11e)" d="M 9.033128 65.026525 
L 9.534676 65.072173 
L 10.036224 65.117821 
L 10.518269 65.131291 
L 10.844642 64.920262 
L 11.171015 64.709232 
L 11.554646 64.325089 
L 11.840939 63.88956 
L 12.292922 63.742638 
L 12.744906 63.595715 
L 13.321069 63.595715 
L 13.762496 63.538094 
L 14.203923 63.480472 
L 14.615826 63.396909 
L 15.027729 63.313345 
L 15.488301 63.582245 
L 15.641826 63.889311 
L 15.79535 64.196376 
L 15.901994 64.54884 
L 16.008637 64.901304 
" style="fill:none;stroke:#008000;stroke-linecap:square;stroke-width:0.4;"/>
   </g>
   <g id="line2d_9">
    <path clip-path="url(#pb2bc56b11e)" d="M 6.640441 64.325089 
L 6.841024 64.664083 
L 7.041607 65.003077 
L 7.340067 65.43212 
L 7.638527 65.861164 
L 8.146338 66.25753 
L 8.654148 66.653896 
L 8.976138 66.858814 
L 9.298127 67.063732 
L 9.620116 67.26865 
L 9.942105 67.473568 
L 10.479619 67.857462 
L 11.017133 68.241356 
L 11.371419 68.484314 
L 11.725706 68.727273 
" style="fill:none;stroke:#008000;stroke-linecap:square;stroke-width:0.4;"/>
   </g>
   <g id="line2d_10">
    <path clip-path="url(#pb2bc56b11e)" d="M 10.146089 51.403403 
L 9.841903 51.744642 
L 9.712356 52.000072 
L 9.672633 52.294915 
L 9.71164 52.743415 
L 9.851923 53.308155 
L 10.040876 53.556102 
L 10.263468 53.885368 
L 10.489997 54.159507 
L 10.716526 54.433646 
L 10.943055 54.707784 
L 11.169583 54.981923 
L 11.577192 55.40947 
L 11.9848 55.837016 
L 12.437858 56.300982 
L 12.802612 56.627254 
L 13.167366 56.953527 
L 13.53212 57.279799 
L 13.896875 57.606071 
L 14.290437 58.018901 
L 14.683999 58.43173 
L 15.077561 58.84456 
L 15.471124 59.257389 
L 15.691837 59.622076 
L 15.912551 59.986763 
L 16.133264 60.35145 
L 16.353977 60.716136 
L 16.507591 61.023326 
L 16.661205 61.330516 
L 16.814818 61.637706 
L 16.968432 61.944896 
L 17.045194 62.511134 
L 17.121956 63.077371 
L 17.198718 63.643609 
L 17.27548 64.209846 
" style="fill:none;stroke:#008000;stroke-linecap:square;stroke-width:0.4;"/>
   </g>
   <g id="line2d_11">
    <path clip-path="url(#pb2bc56b11e)" d="M 7.550134 21.802409 
L 8.102678 21.961554 
L 8.655222 22.120699 
L 8.895171 22.485386 
L 9.135119 22.850073 
L 9.375068 23.214759 
L 9.615017 23.579446 
L 9.776414 23.869799 
L 9.976013 24.229122 
L 10.175613 24.588446 
L 10.375212 24.94777 
L 10.574811 25.307094 
L 10.776468 25.623763 
L 10.978125 25.940431 
L 11.179782 26.2571 
L 11.38144 26.573769 
" style="fill:none;stroke:#4169e1;stroke-linecap:square;stroke-width:0.4;"/>
   </g>
   <g id="line2d_12">
    <path clip-path="url(#pb2bc56b11e)" d="M 8.463406 19.280033 
L 9.00092 19.663927 
L 9.538433 20.047821 
L 9.97986 20.431715 
L 10.421287 20.815609 
L 10.661325 21.08426 
L 10.901363 21.352911 
L 11.141401 21.621562 
L 11.38144 21.890213 
L 11.696361 22.415541 
L 11.957245 22.850073 
L 12.04358 23.262777 
L 12.129915 23.675482 
L 12.21625 24.088187 
L 12.302585 24.500891 
L 12.360201 24.980821 
L 12.417817 25.460751 
L 12.705541 25.912743 
L 12.955331 26.305368 
L 13.16665 26.727427 
L 13.37797 27.149485 
L 13.58911 27.591001 
L 13.800251 28.032516 
L 14.260823 28.41666 
L 14.500772 28.714121 
L 14.740721 29.011583 
L 14.980669 29.309045 
L 15.220618 29.606507 
L 15.68137 30.048022 
L 16.142121 30.489538 
L 16.295824 30.892639 
L 16.449527 31.29574 
L 16.555098 31.622012 
L 16.660668 31.948285 
L 16.766238 32.274557 
L 16.871808 32.60083 
L 16.987041 33.138381 
L 17.102274 33.675932 
L 17.33256 33.982998 
L 17.562846 34.290063 
L 17.946836 34.482135 
L 18.330825 34.674206 
L 18.810722 34.866029 
L 19.29062 35.057851 
L 19.847279 35.192301 
L 20.403939 35.326751 
L 20.69202 35.653024 
L 20.980102 35.979296 
L 21.383237 36.382397 
L 21.786372 36.785498 
L 22.131891 37.025463 
L 22.47741 37.265428 
L 22.822929 37.505393 
L 23.168448 37.745358 
L 23.552437 37.898891 
L 23.936427 38.052423 
L 24.320416 38.205956 
L 24.704406 38.359489 
L 25.117114 38.609057 
L 25.529822 38.858626 
L 25.94253 39.108194 
L 26.355238 39.357763 
L 26.700936 39.626663 
" style="fill:none;stroke:#008000;stroke-linecap:square;stroke-width:0.4;"/>
   </g>
   <g id="line2d_13">
    <path clip-path="url(#pb2bc56b11e)" d="M 8.655222 22.120699 
L 9.039211 22.005456 
L 9.423201 21.890213 
L 9.778382 21.947834 
L 10.133563 22.005456 
L 10.488745 22.063077 
L 10.843926 22.120699 
L 11.270143 22.26812 
L 11.696361 22.415541 
" style="fill:none;stroke:#4169e1;stroke-linecap:square;stroke-width:0.4;"/>
   </g>
   <g id="line2d_14">
    <path clip-path="url(#pb2bc56b11e)" d="M 9.776414 23.869799 
L 10.386932 23.839865 
L 10.99745 23.809932 
L 11.323734 23.982672 
L 11.650017 24.155412 
L 11.976301 24.328152 
L 12.302585 24.500891 
" style="fill:none;stroke:#008000;stroke-linecap:square;stroke-width:0.4;"/>
   </g>
   <g id="line2d_15">
    <path clip-path="url(#pb2bc56b11e)" d="M 12.705541 25.912743 
L 12.254631 26.204842 
L 11.803721 26.496941 
L 11.38144 26.573769 
L 11.362115 26.97687 
L 11.34279 27.379971 
L 11.400406 27.821487 
L 11.458023 28.263002 
L 11.515639 28.704518 
L 11.573255 29.146033 
L 11.669163 29.72175 
L 11.765071 30.297466 
L 12.245147 30.758189 
L 12.725224 31.218911 
L 12.99398 31.46848 
L 13.262737 31.718048 
L 13.531494 31.967617 
L 13.800251 32.217185 
L 14.049772 32.485961 
L 14.299294 32.754736 
L 14.548816 33.023512 
L 14.798337 33.292288 
L 14.903907 33.695389 
L 15.009478 34.09849 
L 15.115048 34.501591 
L 15.220618 34.904692 
L 15.220618 35.365166 
L 15.220618 35.825639 
L 15.220618 36.267154 
L 15.220618 36.70867 
L 15.268662 37.08296 
L 15.316705 37.457251 
L 15.364748 37.831541 
L 15.412792 38.205831 
L 15.508789 38.551373 
L 15.604786 38.896915 
L 15.700784 39.242457 
L 15.796781 39.587999 
L 15.892779 39.933541 
L 15.988776 40.279083 
L 16.084773 40.624625 
L 16.180771 40.970167 
L 16.363103 41.517197 
L 16.545435 42.064228 
L 16.727768 42.611258 
L 16.9101 43.158288 
L 17.045731 43.486681 
L 17.181362 43.815073 
L 17.316993 44.143466 
L 17.452624 44.471859 
L 17.639787 44.92435 
L 17.783739 45.26509 
L 17.92769 45.60583 
L 18.071641 45.946571 
L 18.215593 46.287311 
L 18.359544 46.628051 
L 18.503495 46.968791 
L 18.647446 47.309531 
L 18.791398 47.650272 
L 19.079479 48.091787 
L 19.367561 48.533302 
" style="fill:none;stroke:#4169e1;stroke-linecap:square;stroke-width:0.4;"/>
   </g>
   <g id="line2d_16">
    <path clip-path="url(#pb2bc56b11e)" d="M 19.367561 48.533302 
L 19.559377 49.032439 
L 19.751192 49.531576 
L 19.943366 50.030464 
L 20.365647 50.491187 
L 20.787928 50.951909 
L 21.152772 51.316846 
L 21.517615 51.681782 
L 21.709521 52.046469 
L 21.901426 52.411155 
L 22.093331 52.775842 
L 22.285236 53.140529 
L 22.323707 53.812281 
L 22.362177 54.484033 
L 22.486983 54.944756 
L 22.611788 55.405478 
L 22.736594 55.866201 
L 22.861399 56.326924 
L 22.890208 56.979593 
L 22.919016 57.632263 
L 22.947824 58.284933 
L 22.976632 58.937602 
L 22.976632 59.36016 
L 22.976632 59.782718 
" style="fill:none;stroke:#008000;stroke-linecap:square;stroke-width:0.4;"/>
   </g>
   <g id="line2d_17">
    <path clip-path="url(#pb2bc56b11e)" d="M 18.791398 47.650272 
L 19.348236 47.784722 
L 19.905074 47.919172 
L 20.240752 48.023439 
L 20.57643 48.127707 
L 21.104639 48.29209 
L 21.632848 48.456474 
L 21.853561 48.802078 
L 22.074275 49.147682 
L 22.294988 49.493287 
L 22.515702 49.838891 
L 22.570097 50.38218 
L 22.630934 50.990324 
L 22.611788 51.662325 
L 22.592643 52.334327 
L 22.438939 52.737428 
L 22.285236 53.140529 
" style="fill:none;stroke:#008000;stroke-linecap:square;stroke-width:0.4;"/>
   </g>
   <g id="line2d_18">
    <path clip-path="url(#pb2bc56b11e)" d="M 26.700936 39.626663 
L 26.518514 39.933728 
L 26.336092 40.240794 
L 26.15367 40.547859 
L 25.971249 40.854924 
L 25.788916 41.162114 
L 25.606584 41.469304 
L 25.424252 41.776494 
L 25.241919 42.083684 
L 24.934692 42.678608 
L 24.627464 43.273531 
L 24.569848 43.743857 
L 24.512232 44.214184 
L 24.454616 44.68451 
L 24.396999 45.154836 
L 24.387426 45.53873 
L 24.377853 45.922624 
L 24.368281 46.306518 
L 24.358708 46.690412 
L 24.377853 47.208756 
L 24.396999 47.7271 
L 24.243475 48.264652 
L 24.089951 48.802203 
L 23.709987 49.197197 
L 23.330024 49.592191 
L 22.950061 49.987186 
L 22.570097 50.38218 
" style="fill:none;stroke:#4169e1;stroke-linecap:square;stroke-width:0.4;"/>
   </g>
   <g id="line2d_19">
    <path clip-path="url(#pb2bc56b11e)" d="M 15.220618 35.825639 
L 15.595035 35.998503 
L 15.969451 36.171368 
L 16.343868 36.344232 
L 16.718284 36.517097 
L 17.274944 36.843369 
L 17.831603 37.169642 
L 18.177122 37.706944 
L 18.522641 38.244246 
L 18.925776 38.704968 
L 19.328911 39.165691 
L 19.808809 39.37697 
L 20.288706 39.588249 
L 20.749458 39.780071 
L 21.210209 39.971893 
L 21.613344 40.087136 
L 22.01648 40.202379 
L 22.419615 40.528652 
L 22.82275 40.854924 
L 23.398734 41.181197 
L 23.974718 41.507469 
L 24.396999 41.737955 
L 24.81928 41.968441 
L 25.241919 42.083684 
" style="fill:none;stroke:#008000;stroke-linecap:square;stroke-width:0.4;"/>
   </g>
   <g id="line2d_20">
    <path clip-path="url(#pb2bc56b11e)" d="M 21.210209 39.971893 
L 21.383058 40.394202 
L 21.555907 40.81651 
L 21.440674 41.143032 
L 21.325442 41.469554 
L 21.171917 41.776619 
L 21.018393 42.083684 
L 20.82622 42.467329 
L 20.883836 42.832016 
L 20.941452 43.196702 
L 21.114301 43.657425 
L 21.28715 44.118148 
L 21.268004 44.694113 
L 21.248859 45.270079 
L 21.268004 45.769216 
L 21.28715 46.268353 
L 21.133626 46.748283 
L 20.980102 47.228213 
L 20.778266 47.67796 
L 20.57643 48.127707 
L 20.37012 48.478674 
L 20.163811 48.829642 
L 19.957502 49.180609 
L 19.751192 49.531576 
" style="fill:none;stroke:#4169e1;stroke-linecap:square;stroke-width:0.4;"/>
   </g>
   <g id="line2d_21">
    <path clip-path="url(#pb2bc56b11e)" d="M 20.980102 32.025113 
L 20.960777 32.505043 
L 20.941452 32.984973 
L 20.960777 33.445696 
L 20.980102 33.906418 
L 20.960777 34.30952 
L 20.941452 34.712621 
L 20.960777 35.345958 
L 20.980102 35.979296 
L 20.807253 36.593676 
L 20.634404 37.208056 
L 20.269739 37.764565 
L 19.905074 38.321074 
L 19.616993 38.743383 
L 19.328911 39.165691 
" style="fill:none;stroke:#008000;stroke-linecap:square;stroke-width:0.4;"/>
   </g>
   <g id="line2d_22">
    <path clip-path="url(#pb2bc56b11e)" d="M 19.328911 39.165691 
L 19.156241 39.57852 
L 18.983571 39.99135 
L 18.73396 40.432865 
L 18.484349 40.874381 
L 18.484349 41.488511 
L 18.484349 41.891613 
L 18.484349 42.294714 
L 18.273209 42.851472 
L 18.062068 43.408231 
L 17.757346 43.940045 
L 17.452624 44.471859 
" style="fill:none;stroke:#4169e1;stroke-linecap:square;stroke-width:0.4;"/>
   </g>
   <g id="line2d_23">
    <path clip-path="url(#pb2bc56b11e)" d="M 15.412792 38.205831 
L 15.748738 38.297128 
L 16.084684 38.388424 
L 16.42063 38.479721 
L 16.756576 38.571017 
L 17.39966 38.719685 
L 18.042744 38.868354 
L 18.685827 39.017022 
L 19.328911 39.165691 
" style="fill:none;stroke:#008000;stroke-linecap:square;stroke-width:0.4;"/>
   </g>
   <g id="line2d_24">
    <path clip-path="url(#pb2bc56b11e)" d="M 12.705541 25.912743 
L 13.027172 26.130757 
L 13.348804 26.348771 
L 13.670435 26.566785 
L 13.992067 26.784799 
L 14.491289 27.130528 
L 14.990511 27.476257 
L 15.364838 27.716097 
L 15.739165 27.955937 
L 16.113492 28.195777 
L 16.487819 28.435618 
L 17.006187 28.76189 
L 17.524555 29.088162 
L 18.023419 29.51072 
L 18.637874 29.51072 
L 18.964247 29.702542 
L 19.29062 29.894365 
L 19.636139 30.374295 
L 19.981658 30.854224 
L 20.231269 31.146947 
L 20.48088 31.439669 
L 20.730491 31.732391 
L 20.980102 32.025113 
L 21.421529 32.207457 
L 21.862955 32.3898 
L 22.189328 32.620286 
L 22.515702 32.850772 
L 22.803604 33.253873 
L 23.091507 33.656975 
L 23.475496 33.944833 
L 23.859486 34.232691 
L 24.262621 34.731828 
L 24.665756 35.230965 
L 24.934513 35.499616 
L 25.20327 35.768267 
L 25.472027 36.036918 
L 25.740783 36.305569 
L 26.086481 36.574469 
L 26.432179 36.843369 
L 26.777519 37.342257 
L 27.007984 37.745358 
L 27.238449 38.148459 
L 27.276741 38.570768 
L 27.315033 38.993076 
L 27.007984 39.309869 
L 26.700936 39.626663 
" style="fill:none;stroke:#008000;stroke-linecap:square;stroke-width:0.4;"/>
   </g>
   <g id="line2d_25">
    <path clip-path="url(#pb2bc56b11e)" d="M 4.642837 11.064852 
L 5.18035 11.180095 
L 5.56434 10.757787 
L 5.948329 10.335478 
L 6.217086 10.095638 
L 6.485843 9.855798 
L 6.7546 9.615958 
L 7.023356 9.376118 
L 7.273504 9.046353 
L 7.523652 8.716588 
L 7.868276 8.262601 
L 8.137033 8.003553 
L 8.40579 7.744506 
L 8.674547 7.485458 
L 8.943303 7.226411 
L 9.346439 6.95776 
L 9.749574 6.689109 
L 10.094914 6.112894 
L 10.53652 5.652421 
L 10.978125 5.191948 
L 11.285263 4.990397 
L 11.592401 4.788847 
L 11.899539 4.587296 
L 12.206677 4.385745 
L 12.552196 4.308917 
L 12.897715 4.232088 
L 13.205121 4.577817 
L 13.205121 4.942504 
L 13.205121 5.307191 
L 13.147505 5.748457 
L 13.089888 6.189723 
L 13.224267 6.708067 
L 13.358645 7.226411 
L 13.358645 7.802127 
L 13.358645 8.377844 
L 13.493024 8.934602 
L 13.627402 9.491361 
L 13.800251 10.009455 
L 13.9731 10.52755 
L 14.107478 11.122473 
L 14.241857 11.717397 
L 14.280238 12.149309 
L 14.318619 12.581221 
L 14.357 13.013133 
L 14.395381 13.445044 
L 14.14577 14.001553 
L 13.896159 14.558063 
L 13.737803 14.932353 
L 13.579448 15.306643 
L 13.421093 15.680934 
L 13.262737 16.055224 
" style="fill:none;stroke:#4169e1;stroke-linecap:square;stroke-width:0.4;"/>
   </g>
   <g id="line2d_26">
    <path clip-path="url(#pb2bc56b11e)" d="M 13.262737 16.055224 
L 13.348983 16.669604 
L 13.435228 17.283984 
L 13.464036 17.715771 
L 13.492845 18.147558 
L 13.521653 18.579346 
L 13.550461 19.011133 
L 13.560123 19.366216 
L 13.569786 19.721299 
L 13.579448 20.076382 
L 13.58911 20.431466 
L 13.723489 20.969017 
L 13.857867 21.506568 
L 14.107299 22.005705 
L 14.356731 22.504842 
L 14.625488 23.099766 
L 14.894245 23.694689 
L 15.278234 23.982547 
L 15.662224 24.270405 
L 16.238208 24.500891 
L 16.814192 24.731377 
L 17.062193 24.929935 
L 17.41809 25.21455 
L 17.773987 25.499165 
L 18.042744 25.739006 
L 18.3115 25.978846 
L 18.580257 26.218686 
L 18.849014 26.458526 
L 19.156152 26.688887 
L 19.46329 26.919249 
L 19.770428 27.14961 
L 20.077566 27.379971 
L 20.527044 27.634654 
L 20.976523 27.889336 
L 21.229534 28.032516 
L 21.421529 28.330103 
L 21.613523 28.627689 
L 21.805518 28.925276 
L 21.997513 29.222862 
L 22.218226 29.558738 
L 22.438939 29.894614 
L 22.659653 30.23049 
L 22.880366 30.566366 
L 23.062743 30.859089 
L 23.24512 31.151811 
L 23.427498 31.444533 
L 23.609875 31.737255 
L 23.792252 32.029978 
L 23.974629 32.3227 
L 24.157006 32.615422 
L 24.339383 32.908144 
L 24.790562 33.368867 
L 25.24174 33.82959 
L 25.692919 34.290312 
L 26.144097 34.751035 
L 26.576041 35.086911 
L 27.007984 35.422787 
L 27.439928 35.758663 
L 27.871871 36.094539 
L 28.159863 36.536055 
L 28.447855 36.97757 
L 28.735847 37.419086 
L 29.023839 37.860601 
L 29.263788 38.359613 
L 29.503737 38.858626 
L 29.743685 39.357638 
L 29.983634 39.85665 
L 30.080258 40.461052 
L 30.176881 41.065455 
L 30.233782 41.420912 
L 30.290682 41.776369 
L 30.156304 42.189074 
L 30.021926 42.601779 
L 29.887547 43.014484 
L 29.753169 43.427188 
" style="fill:none;stroke:#008000;stroke-linecap:square;stroke-width:0.4;"/>
   </g>
   <g id="line2d_27">
    <path clip-path="url(#pb2bc56b11e)" d="M 29.753169 43.427188 
L 29.44612 43.964989 
L 29.100601 44.09919 
L 28.755082 44.233391 
L 28.486236 44.559788 
L 28.21739 44.886185 
L 27.948544 45.212582 
L 27.679697 45.538979 
L 27.487792 46.018785 
L 27.295887 46.49859 
L 27.103982 46.978395 
L 26.912076 47.4582 
L 26.76808 47.827751 
L 26.624084 48.197302 
L 26.480088 48.566853 
L 26.336092 48.936404 
L 26.192096 49.305955 
L 26.0481 49.675506 
L 25.904104 50.045056 
L 25.760108 50.414607 
L 25.539305 50.846519 
L 25.318502 51.278431 
L 25.097699 51.710343 
L 24.876897 52.142255 
L 24.76654 52.607779 
L 24.656183 53.073304 
L 24.545826 53.538828 
L 24.43547 54.004353 
L 24.325113 54.469877 
L 24.214756 54.935402 
L 24.1044 55.400926 
L 23.994043 55.866451 
L 23.926854 56.384732 
L 23.859665 56.903014 
L 23.792475 57.421296 
L 23.725286 57.939578 
L 23.658097 58.45786 
L 23.590908 58.976141 
L 23.523719 59.494423 
L 23.456529 60.012705 
" style="fill:none;stroke:#008000;stroke-linecap:square;stroke-width:0.4;"/>
   </g>
   <g id="line2d_28">
    <path clip-path="url(#pb2bc56b11e)" d="M 11.957245 22.850073 
L 12.259551 23.080434 
L 12.561858 23.310795 
L 12.864165 23.541156 
L 13.166471 23.771518 
L 13.51208 24.088187 
L 13.857688 24.404856 
L 14.203297 24.721524 
L 14.548905 25.038193 
L 14.913659 25.191726 
L 15.278413 25.345259 
L 15.643168 25.498791 
L 16.007922 25.652324 
L 16.506965 25.940431 
L 17.006008 26.228539 
L 17.322808 26.593226 
L 17.639608 26.957913 
L 17.956409 27.322599 
L 18.273209 27.687286 
L 18.791577 28.051973 
L 19.309945 28.41666 
L 19.674699 28.5894 
L 20.039453 28.762139 
L 20.404207 28.934879 
L 20.768961 29.107619 
L 21.152593 29.453348 
L 21.363912 29.8562 
L 21.575232 30.259052 
L 22.189328 30.489538 
L 22.534847 30.527952 
L 22.880366 30.566366 
" style="fill:none;stroke:#008000;stroke-linecap:square;stroke-width:0.4;"/>
   </g>
   <g id="line2d_29">
    <path clip-path="url(#pb2bc56b11e)" d="M 20.976523 27.889336 
L 21.410256 27.692275 
L 21.843988 27.495214 
L 22.323886 27.399179 
L 22.803783 27.303143 
L 23.187773 27.283936 
L 23.571762 27.264728 
L 24.032513 27.418386 
L 24.493265 27.572043 
L 24.800313 28.147759 
L 25.299535 28.570317 
L 25.433914 28.944608 
L 25.568292 29.318898 
L 25.702671 29.693188 
L 25.837049 30.067479 
L 25.952192 30.499391 
L 26.067335 30.931302 
L 26.182479 31.363214 
L 26.297622 31.795126 
L 26.470381 32.188624 
L 26.643141 32.582121 
L 26.8159 32.975619 
L 26.98866 33.369117 
L 27.295797 33.676182 
L 27.602935 33.983247 
L 27.910073 34.290312 
L 28.217211 34.597378 
L 28.716433 34.981272 
L 29.215655 35.365166 
L 29.599644 35.691438 
L 29.983634 36.017711 
" style="fill:none;stroke:#008000;stroke-linecap:square;stroke-width:0.4;"/>
   </g>
   <g id="line2d_30">
    <path clip-path="url(#pb2bc56b11e)" d="M 29.983634 36.017711 
L 30.271537 36.488037 
L 30.559439 36.958363 
L 30.847342 37.428689 
L 31.135244 37.899015 
L 31.269623 38.225288 
L 31.404001 38.55156 
L 31.53838 38.877833 
L 31.672758 39.204105 
L 31.519234 39.665077 
L 31.183646 40.015172 
L 30.848057 40.365266 
L 30.512469 40.71536 
L 30.176881 41.065455 
" style="fill:none;stroke:#008000;stroke-linecap:square;stroke-width:0.4;"/>
   </g>
   <g id="line2d_31">
    <path clip-path="url(#pb2bc56b11e)" d="M 7.550134 21.802409 
L 7.632443 21.23218 
L 7.714752 20.661952 
L 7.901916 20.316472 
L 8.089079 19.970992 
L 8.276243 19.625513 
L 8.463406 19.280033 
L 8.943303 19.087961 
L 9.38473 19.280033 
L 9.826157 19.472105 
L 10.200574 19.711945 
L 10.57499 19.951785 
L 10.949407 20.191625 
L 11.323823 20.431466 
L 11.957245 20.412258 
L 12.590666 20.393051 
L 13.089888 20.412258 
L 13.58911 20.431466 
" style="fill:none;stroke:#008000;stroke-linecap:square;stroke-width:0.4;"/>
   </g>
   <g id="line2d_32">
    <path clip-path="url(#pb2bc56b11e)" d="M 8.943303 19.087961 
L 9.240868 18.886411 
L 9.538433 18.68486 
L 9.835998 18.48331 
L 10.133563 18.281759 
L 10.709369 17.93628 
L 11.285174 17.5908 
L 11.621925 17.366301 
L 11.971917 17.133071 
L 12.321909 16.899841 
L 12.792323 16.477532 
L 13.262737 16.055224 
L 13.752297 15.978645 
L 14.241857 15.902066 
L 14.644992 15.729201 
L 15.048127 15.556337 
L 15.403219 15.412407 
L 15.758311 15.268478 
L 16.113402 15.124549 
L 16.468494 14.98062 
" style="fill:none;stroke:#008000;stroke-linecap:square;stroke-width:0.4;"/>
   </g>
   <g id="line2d_33">
    <path clip-path="url(#pb2bc56b11e)" d="M 16.468494 14.98062 
L 16.641343 15.556337 
L 16.814192 16.132053 
L 17.255619 16.362539 
L 17.697046 16.593025 
L 18.109843 16.573818 
L 18.522641 16.554611 
L 18.935439 16.535403 
L 19.348236 16.516196 
L 19.92422 16.477782 
L 20.500204 16.439367 
L 20.757867 16.605996 
L 21.281603 16.94499 
L 21.805339 17.283984 
L 22.342853 17.648671 
L 22.880366 18.013358 
L 23.043553 18.330027 
L 23.206739 18.646695 
L 23.369926 18.963364 
L 23.533113 19.280033 
L 23.744253 19.740756 
L 23.955394 20.201479 
L 24.43547 20.470129 
L 24.915546 20.73878 
L 25.433735 21.161089 
L 25.951924 21.583397 
L 26.374384 22.101492 
L 26.796844 22.619586 
L 27.027219 22.974794 
L 27.257595 23.330002 
L 27.487971 23.68521 
L 27.718347 24.040418 
L 27.987104 24.481809 
L 28.25586 24.9232 
L 28.524617 25.36459 
L 28.793374 25.805981 
L 29.02375 26.08436 
L 29.254126 26.36274 
L 29.484501 26.641119 
L 29.714877 26.919498 
L 29.772404 27.274581 
L 29.829931 27.629665 
L 29.887458 27.984748 
L 29.944984 28.339831 
L 30.031409 28.685311 
L 30.117833 29.03079 
L 30.204258 29.37627 
L 30.290682 29.72175 
L 30.309828 30.278508 
L 30.328974 30.835267 
L 30.279946 31.161539 
L 30.213741 31.603055 
L 30.213741 31.986949 
L 30.213741 32.370843 
L 29.983634 32.792901 
L 30.156304 33.253624 
L 30.328974 33.714347 
L 30.348299 34.079033 
L 30.367623 34.44372 
L 30.290682 34.904443 
L 30.213741 35.365166 
L 30.098688 35.691438 
L 29.983634 36.017711 
L 30.271537 36.488037 
L 30.559439 36.958363 
L 30.847342 37.428689 
L 31.135244 37.899015 
L 31.384855 38.378945 
L 31.634466 38.858875 
L 31.884077 39.338805 
L 32.133688 39.818735 
L 32.340177 40.300161 
L 32.594261 40.893339 
L 32.632732 41.354061 
L 32.671202 41.814784 
L 32.575294 42.313921 
L 32.479386 42.813058 
L 31.941694 43.216159 
L 31.404001 43.61926 
L 30.914531 43.705692 
L 30.425061 43.792125 
L 29.935591 43.878557 
L 29.44612 43.964989 
" style="fill:none;stroke:#008000;stroke-linecap:square;stroke-width:0.4;"/>
   </g>
   <g id="line2d_34">
    <path clip-path="url(#pb2bc56b11e)" d="M 30.213741 32.370843 
L 30.616966 32.850648 
L 31.020191 33.330453 
L 31.423415 33.810258 
L 31.82664 34.290063 
L 32.181732 34.750786 
L 32.536824 35.211508 
L 32.891915 35.672231 
L 33.247007 36.132954 
L 33.535089 36.612883 
L 33.82317 37.092813 
L 34.014986 37.534329 
L 34.206802 37.975844 
L 34.034132 38.493939 
L 33.861462 39.012034 
L 33.621513 39.251998 
L 33.381565 39.491963 
L 33.141616 39.731928 
L 32.901667 39.971893 
L 32.340177 40.300161 
" style="fill:none;stroke:#008000;stroke-linecap:square;stroke-width:0.4;"/>
   </g>
   <g id="line2d_35">
    <path clip-path="url(#pb2bc56b11e)" d="M 21.805339 17.283984 
L 21.680623 17.610257 
L 21.555907 17.936529 
L 21.431191 18.262801 
L 21.306475 18.589074 
L 21.152772 19.049797 
L 20.999069 19.510519 
L 20.826399 19.9902 
L 20.653729 20.46988 
L 20.922485 21.065053 
L 21.191242 21.660226 
L 21.335194 21.996102 
L 21.479145 22.331978 
L 21.623096 22.667854 
L 21.767047 23.00373 
L 22.131802 23.310795 
L 22.496556 23.61786 
L 22.86131 23.924926 
L 23.226064 24.231991 
L 23.610054 24.539181 
L 23.994043 24.846371 
L 24.378032 25.153561 
L 24.762022 25.460751 
L 25.203538 25.652698 
L 25.645054 25.844645 
L 26.086571 26.036592 
L 26.528087 26.228539 
L 26.739227 26.545208 
L 26.950368 26.861877 
L 27.161508 27.178546 
L 27.372649 27.495214 
L 27.603025 27.946334 
L 27.8334 28.397453 
L 28.063776 28.848572 
L 28.294152 29.299691 
L 28.476574 29.683585 
L 28.658996 30.067479 
L 28.841417 30.451373 
L 29.023839 30.835267 
L 29.177363 31.238368 
L 29.330888 31.641469 
L 29.772314 32.006156 
L 30.213741 32.370843 
" style="fill:none;stroke:#008000;stroke-linecap:square;stroke-width:0.4;"/>
   </g>
   <g id="line2d_36">
    <path clip-path="url(#pb2bc56b11e)" d="M 16.468494 14.98062 
L 16.660489 14.539105 
L 16.852484 14.097589 
L 17.236473 13.636867 
L 17.620463 13.176144 
L 18.157976 12.907493 
L 18.69549 12.638842 
L 19.050671 12.744482 
L 19.405852 12.850121 
L 19.761034 12.95576 
L 20.116215 13.0614 
L 20.711345 13.157186 
L 21.306475 13.252973 
L 21.555907 13.809731 
L 21.805339 14.36649 
L 21.997334 14.903792 
L 22.189328 15.441094 
L 22.304561 15.94023 
L 22.419794 16.439367 
L 22.112566 16.861676 
L 21.805339 17.283984 
" style="fill:none;stroke:#008000;stroke-linecap:square;stroke-width:0.4;"/>
   </g>
   <g id="line2d_37">
    <path clip-path="url(#pb2bc56b11e)" d="M 12.897715 4.232088 
L 13.089888 3.694786 
L 13.512169 3.272727 
L 13.93445 3.368514 
L 14.356731 3.4643 
L 14.625488 4.040016 
L 14.990332 4.28971 
L 15.355175 4.539403 
L 15.316705 4.884882 
L 15.278234 5.230362 
L 15.12471 5.767664 
L 15.191899 6.170765 
L 15.259089 6.573866 
L 15.326278 6.976967 
L 15.393467 7.380068 
L 15.700694 7.974992 
L 16.007922 8.569915 
L 16.113492 8.896188 
L 16.219062 9.22246 
L 16.324632 9.548733 
L 16.430203 9.875005 
L 16.603052 10.258899 
L 16.775901 10.642793 
L 17.179036 11.14193 
L 17.582171 11.641067 
L 17.860501 11.890511 
L 18.13883 12.139955 
L 18.41716 12.389398 
L 18.69549 12.638842 
" style="fill:none;stroke:#000000;stroke-linecap:square;stroke-width:0.4;"/>
   </g>
   <g id="line2d_38">
    <path clip-path="url(#pb2bc56b11e)" d="M 15.393467 7.380068 
L 15.239943 7.91737 
L 15.086419 8.454672 
L 15.163181 8.905791 
L 15.239943 9.35691 
L 15.316705 9.808029 
L 15.393467 10.259149 
L 15.585462 10.537403 
L 15.777456 10.815658 
L 15.969451 11.093912 
L 16.161446 11.372167 
L 16.122975 11.947883 
L 16.084505 12.523599 
L 16.151694 12.993925 
L 16.218883 13.464252 
L 16.286072 13.934578 
L 16.353262 14.404904 
L 16.468494 14.98062 
" style="fill:none;stroke:#008000;stroke-linecap:square;stroke-width:0.4;"/>
   </g>
   <g id="line2d_39">
    <path clip-path="url(#pb2bc56b11e)" d="M 21.306475 13.252973 
L 21.843988 13.502666 
L 22.381502 13.752359 
L 22.68855 14.308868 
L 22.995599 14.865377 
L 23.091686 15.479508 
L 23.187773 16.093638 
L 23.07254 16.419911 
L 22.957307 16.746183 
L 22.381323 17.015084 
L 21.805339 17.283984 
" style="fill:none;stroke:#008000;stroke-dasharray:1.48,0.64;stroke-dashoffset:0;stroke-width:0.4;"/>
   </g>
   <g id="line2d_40">
    <path clip-path="url(#pb2bc56b11e)" d="M 20.757867 16.605996 
L 20.741406 17.03454 
L 20.724944 17.463085 
L 20.708482 17.891629 
L 20.69202 18.320174 
L 20.605596 18.675257 
L 20.519171 19.03034 
L 20.432747 19.385423 
L 20.346322 19.740506 
L 20.192798 20.335679 
L 20.039274 20.930852 
L 19.732047 21.180296 
L 19.424819 21.42974 
L 19.021684 21.448947 
L 18.618549 21.468154 
L 18.10036 21.544983 
L 17.582171 21.621811 
L 17.409322 22.005705 
L 17.236473 22.389599 
L 17.447614 22.869529 
L 17.658754 23.349459 
L 17.562846 23.771518 
L 17.466938 24.193577 
L 17.264566 24.561756 
L 17.062193 24.929935 
" style="fill:none;stroke:#008000;stroke-linecap:square;stroke-width:0.4;"/>
   </g>
   <g id="line2d_41">
    <path clip-path="url(#pb2bc56b11e)" d="M 25.951924 21.583397 
L 26.067156 21.957687 
L 26.182389 22.331978 
L 26.297622 22.706268 
L 26.412854 23.080559 
L 26.576041 23.493263 
L 26.739227 23.905968 
L 26.902414 24.318673 
L 27.065601 24.731377 
L 27.324784 25.028839 
L 27.583968 25.326301 
L 27.843152 25.623763 
L 28.102336 25.921224 
L 28.275096 26.343533 
L 28.447855 26.765841 
L 28.620615 27.188149 
L 28.793374 27.610458 
L 28.908562 27.931991 
L 29.02375 28.253524 
L 29.138938 28.575057 
L 29.254126 28.89659 
L 29.369313 29.218123 
L 29.484501 29.539656 
L 29.599689 29.861189 
L 29.714877 30.182722 
L 29.997412 30.67213 
L 30.279946 31.161539 
" style="fill:none;stroke:#008000;stroke-linecap:square;stroke-width:0.4;"/>
   </g>
   <g id="line2d_42">
    <path clip-path="url(#pb2bc56b11e)" d="M 4.02874 11.48741 
L 4.086356 12.005504 
L 4.143972 12.523599 
L 4.230307 12.869079 
L 4.316642 13.214558 
L 4.402977 13.560038 
L 4.489312 13.905518 
L 4.604545 14.404904 
L 5.081222 14.742152 
L 5.418867 15.149244 
L 5.756513 15.556337 
L 5.331369 15.86415 
L 4.83501 16.093638 
L 4.451021 16.477782 
L 4.546929 16.995877 
L 4.642837 17.513971 
L 5.18035 17.821286 
L 5.689145 18.080458 
L 6.19794 18.33963 
L 6.706735 18.598802 
L 7.21553 18.857974 
L 7.839468 19.069004 
L 8.463406 19.280033 
" style="fill:none;stroke:#000000;stroke-linecap:square;stroke-width:0.4;"/>
   </g>
   <g id="line2d_43">
    <path clip-path="url(#pb2bc56b11e)" d="M 7.023356 9.376118 
L 7.368965 9.443218 
L 7.714573 9.510318 
L 8.060181 9.577419 
L 8.40579 9.644519 
L 8.674547 9.855798 
L 8.943303 10.067077 
L 9.065693 10.679711 
L 9.138877 11.045146 
L 9.21206 11.410581 
L 9.202398 11.804079 
L 9.192736 12.197576 
L 9.183073 12.591074 
L 9.173411 12.984571 
L 9.423022 13.502791 
L 9.672633 14.02101 
L 9.922244 14.53923 
L 10.171855 15.057449 
L 10.450185 15.374118 
L 10.728514 15.690787 
L 11.006844 16.007456 
L 11.285174 16.324124 
L 11.707634 16.189674 
L 12.130094 16.055224 
L 12.696415 16.055224 
L 13.262737 16.055224 
" style="fill:none;stroke:#ff0000;stroke-linecap:square;stroke-width:0.4;"/>
   </g>
   <g id="line2d_44">
    <path clip-path="url(#pb2bc56b11e)" d="M 9.173411 12.984571 
L 9.087076 13.454773 
L 9.000741 13.924974 
L 8.914406 14.395176 
L 8.828071 14.865377 
L 9.020066 15.172443 
L 9.21206 15.479508 
L 9.404055 15.786573 
L 9.59605 16.093638 
L 9.999185 16.362539 
L 10.40232 16.631439 
L 10.707221 16.815155 
L 11.012123 16.99887 
L 11.317024 17.182585 
L 11.621925 17.366301 
" style="fill:none;stroke:#000000;stroke-linecap:square;stroke-width:0.4;"/>
   </g>
   <g id="line2d_45">
    <path clip-path="url(#pb2bc56b11e)" d="M 9.065693 10.679711 
L 9.390188 10.900843 
L 9.714682 11.121975 
L 10.039176 11.343106 
L 10.363671 11.564238 
L 10.690044 12.053647 
L 11.016417 12.543056 
L 11.34279 13.032464 
L 11.669163 13.521873 
L 11.957155 13.915371 
L 12.245147 14.308868 
L 12.533139 14.702366 
L 12.821132 15.095863 
L 13.041934 15.575544 
L 13.262737 16.055224 
" style="fill:none;stroke:#ff0000;stroke-dasharray:1.48,0.64;stroke-dashoffset:0;stroke-width:0.4;"/>
   </g>
   <g id="line2d_46">
    <path clip-path="url(#pb2bc56b11e)" d="M 3.798275 10.719622 
L 3.452577 10.259149 
L 3.107237 10.79645 
L 3.068766 11.237716 
L 3.030296 11.678982 
L 2.915242 12.31257 
L 2.800188 12.946157 
L 2.780864 13.387423 
L 2.761539 13.828689 
L 2.910053 14.137999 
L 3.066261 14.463274 
L 3.222469 14.788549 
L 3.183999 15.134028 
L 3.145528 15.479508 
L 3.375994 15.786573 
L 3.606459 16.093638 
L 4.02874 16.28571 
L 4.451021 16.477782 
" style="fill:none;stroke:#000000;stroke-linecap:square;stroke-width:0.4;"/>
   </g>
   <g id="line2d_47">
    <path clip-path="url(#pb2bc56b11e)" d="M 7.445637 23.387374 
L 7.512916 23.771268 
L 7.580195 24.155162 
L 7.647473 24.539056 
L 7.714752 24.92295 
L 7.801087 25.393277 
L 7.887422 25.863603 
L 7.973757 26.333929 
L 8.060092 26.804255 
L 8.163426 27.217459 
L 8.266759 27.630662 
L 8.370093 28.043866 
L 8.473426 28.45707 
L 8.576223 28.868153 
L 8.67902 29.279236 
L 8.781817 29.69032 
L 8.884614 30.101403 
L 9.009866 30.602536 
L 9.135119 31.103668 
" style="fill:none;stroke:#4169e1;stroke-linecap:square;stroke-width:0.4;"/>
   </g>
   <g id="line2d_48">
    <path clip-path="url(#pb2bc56b11e)" d="M 5.18035 17.821286 
L 5.045972 18.282009 
L 4.911593 18.742731 
L 4.546929 19.088211 
L 4.182264 19.433691 
L 4.02874 19.894413 
L 3.875216 20.355136 
L 3.836745 20.911645 
L 3.798275 21.468154 
L 3.759983 22.04387 
L 3.721691 22.619586 
L 3.785749 23.246688 
L 3.830482 23.681718 
L 3.875216 24.116748 
L 4.191926 24.510246 
L 4.508637 24.903743 
L 4.825348 25.297241 
L 5.142059 25.690738 
L 5.439624 25.978721 
L 5.737189 26.266704 
L 6.034754 26.554687 
L 6.332319 26.84267 
L 6.867595 27.24627 
L 7.402872 27.64987 
L 7.938149 28.05347 
L 8.473426 28.45707 
" style="fill:none;stroke:#008000;stroke-linecap:square;stroke-width:0.4;"/>
   </g>
   <g id="line2d_49">
    <path clip-path="url(#pb2bc56b11e)" d="M 9.135119 31.103668 
L 9.480638 31.468355 
L 9.826157 31.833042 
L 10.191001 32.101942 
L 10.555844 32.370843 
L 10.690223 32.908144 
L 10.824601 33.445446 
L 10.930171 33.848547 
L 11.035742 34.251649 
L 11.141312 34.65475 
L 11.246882 35.057851 
L 11.438877 35.499366 
L 11.630872 35.940882 
L 11.822866 36.382397 
L 12.014861 36.823913 
L 12.302764 37.111896 
L 12.590666 37.399878 
L 12.878569 37.687861 
L 13.166471 37.975844 
L 13.329658 38.465253 
L 13.492845 38.954662 
L 13.656031 39.44407 
L 13.819218 39.933479 
L 13.998061 40.477017 
L 14.176904 41.020555 
L 14.355747 41.564093 
L 14.53459 42.107631 
L 14.65698 42.479552 
L 14.77937 42.851472 
L 14.980938 43.456124 
L 15.182505 44.060776 
L 15.384073 44.665427 
L 15.585641 45.270079 
L 15.54717 45.67318 
L 15.5087 46.076281 
L 15.676673 46.503391 
L 15.844646 46.930501 
L 16.012619 47.357612 
L 16.180592 47.784722 
L 16.348565 48.211832 
L 16.516538 48.638942 
L 16.684511 49.066052 
L 16.852484 49.493162 
L 17.178857 49.953885 
L 17.50523 50.414607 
L 17.773987 50.683258 
L 18.042744 50.951909 
L 18.20593 51.412632 
L 18.369117 51.873355 
L 18.532303 52.334077 
L 18.69549 52.7948 
L 18.839441 53.265126 
L 18.983392 53.735452 
L 19.127344 54.205779 
L 19.271295 54.676105 
L 19.405673 55.059999 
L 19.540052 55.443893 
L 19.67443 55.827787 
L 19.808809 56.211681 
L 19.962422 56.816457 
L 20.116036 57.421234 
L 20.26965 58.02601 
L 20.423263 58.630786 
" style="fill:none;stroke:#4169e1;stroke-linecap:square;stroke-width:0.4;"/>
   </g>
   <g id="line2d_50">
    <path clip-path="url(#pb2bc56b11e)" d="M 9.135119 31.103668 
L 9.211881 31.679634 
L 9.288643 32.255599 
L 9.202308 32.620286 
L 9.115973 32.984973 
L 9.029638 33.34966 
L 8.943303 33.714347 
L 9.029638 34.040619 
L 9.115973 34.366892 
L 9.202308 34.693164 
L 9.288643 35.019437 
L 9.400655 35.523812 
L 9.487885 35.916062 
L 9.575115 36.308313 
L 9.662344 36.700563 
L 9.749574 37.092813 
L 9.850939 37.675389 
L 9.952305 38.257965 
L 10.05367 38.840541 
L 10.155035 39.423117 
L 10.223745 39.818735 
L 10.330031 40.43087 
L 10.391853 40.786202 
L 10.453674 41.141535 
L 10.515495 41.496868 
L 10.577316 41.8522 
L 10.639138 42.207533 
L 10.700959 42.562866 
L 10.76278 42.918198 
L 10.824601 43.273531 
L 11.189355 43.763064 
L 11.55411 44.252598 
L 11.918864 44.742131 
L 12.283618 45.231665 
L 12.67718 45.653973 
L 13.070743 46.076281 
L 13.464305 46.49859 
L 13.857867 46.920898 
L 14.030627 47.477532 
L 14.203386 48.034165 
L 14.376146 48.590799 
L 14.548905 49.147433 
L 14.769618 49.608156 
L 14.990332 50.068878 
L 15.211045 50.529601 
L 15.431759 50.990324 
L 15.729324 51.422236 
L 16.026889 51.854147 
L 16.324454 52.286059 
L 16.622018 52.717971 
L 16.737251 53.121197 
L 16.852484 53.524423 
L 16.967716 53.927649 
L 17.082949 54.330875 
" style="fill:none;stroke:#4169e1;stroke-linecap:square;stroke-width:0.4;"/>
   </g>
   <g id="line2d_51">
    <path clip-path="url(#pb2bc56b11e)" d="M 10.335399 51.480231 
L 10.862893 51.336053 
L 11.477347 51.067152 
L 11.688488 50.798501 
L 11.899628 50.52985 
L 12.39885 50.337779 
L 12.619609 50.596951 
L 12.840367 50.856123 
L 13.061125 51.115295 
L 13.281883 51.374467 
L 13.502641 51.633639 
L 13.723399 51.892811 
L 13.944157 52.151983 
L 14.164916 52.411155 
L 14.606432 52.843067 
L 15.047948 53.274979 
L 15.489464 53.706891 
L 15.930981 54.138803 
L 16.506965 54.234839 
L 17.082949 54.330875 
L 17.409322 54.829762 
L 17.735695 55.32865 
L 17.793312 55.94303 
L 17.850928 56.55741 
L 18.110022 56.8646 
L 18.369117 57.17179 
L 18.628211 57.47898 
L 18.887306 57.78617 
L 19.271295 57.997324 
L 19.655284 58.208478 
L 20.039274 58.419632 
L 20.423263 58.630786 
L 20.639235 58.913905 
L 20.855207 59.197024 
L 21.071178 59.480143 
L 21.28715 59.763261 
L 21.503122 60.04638 
L 21.719093 60.329499 
L 21.935065 60.612617 
L 22.151037 60.895736 
" style="fill:none;stroke:#008000;stroke-linecap:square;stroke-width:0.4;"/>
   </g>
   <g id="line2d_52">
    <path clip-path="url(#pb2bc56b11e)" d="M 10.862893 51.336053 
L 11.208412 51.777568 
L 11.553931 52.219084 
L 11.899539 52.487859 
L 12.245147 52.756635 
L 12.590756 53.025411 
L 12.936364 53.294186 
L 13.320264 53.495737 
L 13.704164 53.697288 
L 14.088064 53.898838 
L 14.471964 54.100389 
L 14.836718 54.109992 
L 15.201472 54.119596 
L 15.566226 54.129199 
L 15.930981 54.138803 
" style="fill:none;stroke:#008000;stroke-linecap:square;stroke-width:0.4;"/>
   </g>
   <g id="line2d_53">
    <path clip-path="url(#pb2bc56b11e)" d="M 9.135119 31.103668 
L 8.971933 31.564391 
L 8.808746 32.025113 
L 8.64556 32.485836 
L 8.482373 32.946559 
L 8.0218 33.292288 
L 7.868276 33.599353 
L 7.714752 33.906418 
L 7.484287 34.405555 
L 7.253822 34.904692 
L 6.697162 35.134929 
L 6.140503 35.365166 
L 5.679751 35.365166 
L 5.219 35.365166 
L 4.815864 35.288337 
L 4.412729 35.211508 
L 4.009594 35.13468 
L 3.606459 35.057851 
" style="fill:none;stroke:#4169e1;stroke-linecap:square;stroke-width:0.4;"/>
   </g>
   <g id="line2d_54">
    <path clip-path="url(#pb2bc56b11e)" d="M 9.400655 35.523812 
L 9.29589 35.906459 
L 9.191125 36.289105 
L 9.08636 36.671752 
L 8.981595 37.054399 
L 8.751309 37.572743 
L 8.521022 38.091087 
L 8.269801 38.481467 
L 8.01858 38.871846 
L 7.829627 39.165691 
L 7.656867 39.674432 
L 7.484108 40.183172 
L 7.311348 40.691913 
L 7.138589 41.200653 
L 6.975402 41.757287 
L 6.812216 42.313921 
L 6.649029 42.870555 
L 6.485843 43.427188 
L 6.361127 43.791875 
L 6.236411 44.156562 
L 6.111695 44.521249 
L 5.986979 44.885936 
L 5.8526 45.481108 
L 5.718222 46.076281 
L 5.871746 46.49859 
L 6.02527 46.920898 
L 6.370789 47.170466 
L 6.716308 47.420035 
L 7.061827 47.669603 
L 7.407346 47.919172 
L 7.820143 48.130326 
L 8.232941 48.34148 
L 8.645739 48.552634 
L 9.058536 48.763789 
L 9.476881 48.952867 
L 10.073979 49.223015 
L 10.671077 49.493162 
L 11.084232 49.695212 
L 11.497388 49.897261 
L 11.948119 50.11752 
L 12.39885 50.337779 
" style="fill:none;stroke:#000000;stroke-linecap:square;stroke-width:0.4;"/>
   </g>
   <g id="line2d_55">
    <path clip-path="url(#pb2bc56b11e)" d="M 8.884614 30.101403 
L 8.611294 30.371176 
L 8.337974 30.64095 
L 8.064655 30.910723 
L 7.791335 31.180497 
L 7.485897 31.645959 
L 7.180459 32.111421 
L 6.985065 32.409257 
L 6.764262 32.725926 
L 6.543459 33.042595 
L 6.322656 33.359263 
L 6.101853 33.675932 
L 5.88114 34.098241 
L 5.660426 34.520549 
L 5.439713 34.942857 
L 5.219 35.365166 
" style="fill:none;stroke:#4169e1;stroke-linecap:square;stroke-width:0.4;"/>
   </g>
   <g id="line2d_56">
    <path clip-path="url(#pb2bc56b11e)" d="M 5.219 35.365166 
L 5.132575 35.787474 
L 5.046151 36.209782 
L 4.959726 36.632091 
L 4.873302 37.054399 
L 4.758159 37.447896 
L 4.643016 37.841394 
L 4.527872 38.234892 
L 4.412729 38.628389 
L 4.29016 39.142992 
L 4.167592 39.657594 
L 4.02874 40.240794 
L 3.903934 40.816635 
L 3.779129 41.392476 
L 3.654323 41.968316 
L 3.529518 42.544157 
L 3.454903 42.992408 
L 3.380288 43.440658 
L 3.320524 43.79861 
L 3.260761 44.156562 
L 3.404712 44.530977 
L 3.548664 44.905392 
L 3.692615 45.279807 
L 3.836566 45.654222 
" style="fill:none;stroke:#4169e1;stroke-linecap:square;stroke-width:0.4;"/>
   </g>
   <g id="line2d_57">
    <path clip-path="url(#pb2bc56b11e)" d="M 3.606459 35.057851 
L 3.443272 35.547509 
L 3.280086 36.037167 
L 3.280086 36.478683 
L 3.280086 36.920198 
L 3.184088 37.246471 
L 3.088091 37.572743 
L 2.992094 37.899015 
L 2.896096 38.225288 
L 2.780864 38.580371 
L 2.665631 38.935454 
L 2.550398 39.290538 
L 2.435166 39.645621 
L 2.291214 40.039118 
L 2.147263 40.432616 
L 2.003312 40.826113 
L 1.859361 41.219611 
L 1.744128 41.776369 
L 1.628895 42.333128 
L 1.840036 42.851472 
L 2.051176 43.369816 
L 2.41602 43.907118 
L 2.780864 44.44442 
L 3.044789 44.746871 
L 3.308715 45.049321 
L 3.572641 45.351772 
L 3.836566 45.654222 
" style="fill:none;stroke:#4169e1;stroke-linecap:square;stroke-width:0.4;"/>
   </g>
   <g id="line2d_58">
    <path clip-path="url(#pb2bc56b11e)" d="M 3.836566 45.654222 
L 4.213354 46.189279 
L 4.590141 46.724336 
L 4.966928 47.259393 
L 5.343716 47.79445 
L 5.720503 48.329507 
L 6.097291 48.864564 
L 6.474078 49.399621 
L 6.850865 49.934678 
L 7.249617 50.387356 
L 7.648368 50.840034 
L 8.047119 51.292712 
L 8.445871 51.74539 
L 8.844622 52.198068 
L 9.243374 52.650746 
L 9.642125 53.103424 
L 10.040876 53.556102 
" style="fill:none;stroke:#008000;stroke-linecap:square;stroke-width:0.4;"/>
   </g>
   <g id="line2d_59">
    <path clip-path="url(#pb2bc56b11e)" d="M 8.01858 38.871846 
L 7.669035 38.806118 
L 7.31949 38.740389 
L 6.969945 38.674661 
L 6.6204 38.608932 
L 6.217265 38.743383 
L 5.81413 38.877833 
L 5.402495 39.072773 
L 4.990861 39.267713 
L 4.579226 39.462654 
L 4.167592 39.657594 
" style="fill:none;stroke:#4169e1;stroke-linecap:square;stroke-width:0.4;"/>
   </g>
   <g id="line2d_60">
    <path clip-path="url(#pb2bc56b11e)" d="M 10.155035 39.423117 
L 9.779456 39.630405 
L 9.403876 39.837692 
L 9.250352 40.451823 
L 9.096828 41.065954 
L 9.135209 41.632316 
L 9.17359 42.198678 
L 9.211971 42.76504 
L 9.250352 43.331402 
L 9.240779 43.75371 
L 9.231206 44.176019 
L 9.221633 44.598327 
L 9.21206 45.020635 
L 9.17359 45.653973 
L 9.135119 46.287311 
L 9.096828 46.90194 
L 9.327114 47.285834 
L 9.5574 47.669728 
L 9.51714 48.311298 
L 9.476881 48.952867 
" style="fill:none;stroke:#ff0000;stroke-linecap:square;stroke-width:0.4;"/>
   </g>
   <g id="line2d_61">
    <path clip-path="url(#pb2bc56b11e)" d="M 9.250352 43.331402 
L 9.471155 43.61926 
L 9.691958 43.907118 
L 9.91276 44.194976 
L 10.133563 44.482834 
L 10.267942 44.85725 
L 10.40232 45.231665 
L 10.536699 45.60608 
L 10.671077 45.980495 
L 10.795793 46.556336 
L 10.920509 47.132177 
L 11.045225 47.708018 
L 11.169941 48.283859 
L 11.251803 48.687209 
L 11.333665 49.09056 
L 11.415526 49.49391 
L 11.497388 49.897261 
" style="fill:none;stroke:#ff0000;stroke-linecap:square;stroke-width:0.4;"/>
   </g>
   <g id="line2d_62">
    <path clip-path="url(#pb2bc56b11e)" d="M 9.21206 45.020635 
L 9.480817 45.404529 
L 9.749574 45.788423 
L 9.855144 46.191524 
L 9.960714 46.594625 
L 10.066285 46.997727 
L 10.171855 47.400828 
L 10.29666 47.923911 
L 10.421466 48.446995 
L 10.546271 48.970079 
L 10.671077 49.493162 
" style="fill:none;stroke:#ff0000;stroke-dasharray:1.48,0.64;stroke-dashoffset:0;stroke-width:0.4;"/>
   </g>
   <g id="line2d_63">
    <path clip-path="url(#pb2bc56b11e)" d="M 3.380288 43.440658 
L 3.638398 43.74922 
L 3.896509 44.057782 
L 4.154619 44.366344 
L 4.412729 44.674906 
L 4.739102 45.02525 
L 5.065475 45.375594 
L 5.391849 45.725938 
L 5.718222 46.076281 
" style="fill:none;stroke:#008000;stroke-linecap:square;stroke-width:0.4;"/>
   </g>
   <g id="line2d_64">
    <path clip-path="url(#pb2bc56b11e)" d="M 7.180459 32.111421 
L 7.390795 32.406638 
L 7.60113 32.701854 
L 7.811465 32.997071 
L 8.0218 33.292288 
" style="fill:none;stroke:#008000;stroke-linecap:square;stroke-width:0.4;"/>
   </g>
   <g id="line2d_65">
    <path clip-path="url(#pb2bc56b11e)" d="M 10.330031 40.43087 
L 10.68405 40.839209 
L 11.038068 41.247549 
L 11.392086 41.655888 
L 11.746104 42.064228 
L 11.966818 42.3234 
L 12.187531 42.582572 
L 12.408244 42.841744 
L 12.628958 43.100916 
L 12.897715 43.638467 
L 13.166471 44.176019 
L 13.252896 44.519129 
L 13.33932 44.862238 
L 13.425745 45.205348 
L 13.512169 45.548458 
L 13.598594 45.891568 
L 13.685018 46.234678 
L 13.771443 46.577788 
L 13.857867 46.920898 
" style="fill:none;stroke:#4169e1;stroke-linecap:square;stroke-width:0.4;"/>
   </g>
   <g id="line2d_66">
    <path clip-path="url(#pb2bc56b11e)" d="M 12.014861 36.823913 
L 11.899628 37.466979 
L 11.784396 38.110045 
L 11.966818 38.580371 
L 12.149239 39.050697 
L 12.331661 39.521024 
L 12.514083 39.99135 
L 12.67718 40.375244 
L 12.840277 40.759138 
L 13.003374 41.143032 
L 13.166471 41.526926 
L 13.508501 41.672102 
L 13.850531 41.817278 
L 14.192561 41.962455 
L 14.53459 42.107631 
" style="fill:none;stroke:#000000;stroke-dasharray:1.48,0.64;stroke-dashoffset:0;stroke-width:0.4;"/>
   </g>
   <g id="line2d_67">
    <path clip-path="url(#pb2bc56b11e)" d="M 7.676103 22.5238 
L 7.882479 23.001267 
L 8.088855 23.478733 
L 8.295232 23.9562 
L 8.501608 24.433666 
L 8.707985 24.911133 
L 8.914361 25.388599 
L 9.120738 25.866066 
L 9.327114 26.343533 
L 9.53349 26.820999 
L 9.739867 27.298466 
L 9.946243 27.775932 
L 10.15262 28.253399 
L 10.358996 28.730865 
L 10.565373 29.208332 
L 10.771749 29.685799 
L 10.978125 30.163265 
L 11.167705 30.628758 
L 11.357284 31.094252 
L 11.546863 31.559745 
L 11.736442 32.025238 
L 11.926021 32.490731 
L 12.1156 32.956225 
L 12.305179 33.421718 
L 12.494758 33.887211 
L 12.684338 34.352704 
L 12.873917 34.818198 
L 13.063496 35.283691 
L 13.253075 35.749184 
L 13.442654 36.214678 
L 13.632233 36.680171 
L 13.821812 37.145664 
L 14.011391 37.611157 
L 14.184061 38.115533 
L 14.356731 38.619908 
L 14.529401 39.124283 
L 14.702071 39.628659 
L 14.874741 40.133034 
L 15.047411 40.637409 
L 15.220081 41.141785 
L 15.392751 41.64616 
L 15.565421 42.150535 
L 15.738091 42.65491 
L 15.910761 43.159286 
L 16.083431 43.663661 
L 16.256101 44.168036 
L 16.428771 44.672412 
L 16.601441 45.176787 
L 16.774111 45.681162 
L 16.93978 46.045381 
L 17.10545 46.409601 
L 17.271119 46.77382 
L 17.436788 47.138039 
L 17.602457 47.502258 
L 17.768127 47.866477 
L 17.933796 48.230696 
L 18.099465 48.594915 
L 18.265135 48.959134 
L 18.430804 49.323353 
L 18.596473 49.687572 
L 18.762142 50.051791 
L 18.927812 50.416011 
L 19.093481 50.78023 
L 19.25915 51.144449 
L 19.424819 51.508668 
L 19.611178 52.033498 
L 19.797536 52.558327 
L 19.983894 53.083157 
L 20.170253 53.607987 
L 20.356611 54.132816 
L 20.542969 54.657646 
L 20.729328 55.182476 
L 20.915686 55.707305 
L 21.102044 56.232135 
L 21.288403 56.756965 
L 21.474761 57.281795 
L 21.661119 57.806624 
L 21.847478 58.331454 
L 22.033836 58.856284 
L 22.220194 59.381113 
L 22.406553 59.905943 
" style="fill:none;stroke:#4169e1;stroke-linecap:square;stroke-width:0.4;"/>
   </g>
   <g id="line2d_68">
    <path clip-path="url(#pb2bc56b11e)" d="M 2.910053 14.137999 
L 2.709738 14.593359 
L 2.509423 15.048718 
L 2.309108 15.504078 
L 2.108793 15.959438 
L 2.080074 16.554486 
L 2.051355 17.149534 
L 2.022637 17.744582 
L 1.993918 18.33963 
L 2.109061 18.848246 
L 2.224204 19.356862 
L 2.339347 19.865478 
L 2.45449 20.374094 
L 2.620898 20.733168 
L 2.787305 21.092242 
L 2.953713 21.451317 
L 3.12012 21.810391 
L 3.286527 22.169465 
L 3.452935 22.528539 
L 3.619342 22.887614 
L 3.785749 23.246688 
" style="fill:none;stroke:#ff0000;stroke-dasharray:1.48,0.64;stroke-dashoffset:0;stroke-width:0.4;"/>
   </g>
   <g id="line2d_69">
    <path clip-path="url(#pb2bc56b11e)" d="M 3.452577 10.259149 
L 3.527013 9.706631 
L 3.601449 9.154113 
L 3.729207 8.71584 
L 3.856964 8.277567 
L 4.158287 8.049326 
L 4.45961 7.821085 
L 5.053129 8.012658 
L 5.646649 8.204231 
L 5.984652 8.350405 
L 6.322656 8.496579 
L 6.923154 8.606584 
L 7.523652 8.716588 
" style="fill:none;stroke:#4169e1;stroke-linecap:square;stroke-width:0.4;"/>
   </g>
  </g>
 </g>
 <defs>
  <clipPath id="pb2bc56b11e">
   <rect height="72" width="35.835697" x="0" y="0"/>
  </clipPath>
 </defs>
</svg>
