<?xml version="1.0" encoding="utf-8" standalone="no"?>
<!DOCTYPE svg PUBLIC "-//W3C//DTD SVG 1.1//EN"
  "http://www.w3.org/Graphics/SVG/1.1/DTD/svg11.dtd">
<svg height="72pt" version="1.1" viewBox="0 0 63.346697 72" width="63.346697pt" xmlns="http://www.w3.org/2000/svg" xmlns:xlink="http://www.w3.org/1999/xlink">
 <metadata>
  <rdf:RDF xmlns:cc="http://creativecommons.org/ns#" xmlns:dc="http://purl.org/dc/elements/1.1/" xmlns:rdf="http://www.w3.org/1999/02/22-rdf-syntax-ns#">
   <cc:Work>
    <dc:type rdf:resource="http://purl.org/dc/dcmitype/StillImage"/>
    <dc:date>2022-04-21T17:34:21.676837</dc:date>
    <dc:format>image/svg+xml</dc:format>
    <dc:creator>
     <cc:Agent>
      <dc:title>Matplotlib v3.4.3, https://matplotlib.org/</dc:title>
     </cc:Agent>
    </dc:creator>
   </cc:Work>
  </rdf:RDF>
 </metadata>
 <defs>
  <style type="text/css">*{stroke-linecap:butt;stroke-linejoin:round;}</style>
 </defs>
 <g id="figure_1">
  <g id="patch_1">
   <path d="M 0 72 
L 63.346697 72 
L 63.346697 0 
L 0 0 
z
" style="fill:#ffffff;"/>
  </g>
  <g id="axes_1">
   <g id="line2d_1">
    <path clip-path="url(#pdfc88f3da5)" d="M 31.720725 59.547309 
L 31.505442 58.32325 
L 31.219367 56.696288 
L 30.9892 55.387331 
L 30.759033 54.078374 
L 30.470961 52.4399 
L 30.182889 50.801426 
L 29.869222 49.017619 
L 29.587867 47.387299 
L 29.306511 45.756979 
L 29.099487 44.601389 
L 28.892464 43.4458 
L 28.68544 42.29021 
L 28.478417 41.134621 
L 28.250882 39.864156 
L 28.023347 38.593691 
L 27.795812 37.323226 
L 27.568276 36.052761 
L 27.226656 34.145445 
L 26.885036 32.238129 
L 26.588251 30.581308 
L 26.291466 28.924488 
L 25.994681 27.267667 
L 25.697896 25.610846 
L 25.340483 23.616234 
L 24.98307 21.621622 
L 24.679025 19.924152 
L 24.374979 18.226681 
L 24.070933 16.529211 
L 23.766887 14.83174 
L 23.433526 12.97035 
L 23.100165 11.10896 
L 22.766803 9.24757 
L 22.433442 7.38618 
L 22.115782 5.612925 
" style="fill:none;stroke:#808080;stroke-linecap:square;stroke-width:0.4;"/>
   </g>
   <g id="line2d_2">
    <path clip-path="url(#pdfc88f3da5)" d="M 29.451001 61.911009 
L 29.213573 61.111438 
L 28.78446 59.667461 
L 28.355347 58.223484 
L 27.962538 56.901337 
L 27.569729 55.57919 
L 27.176738 54.256563 
L 26.783748 52.933937 
L 26.459825 51.843939 
L 26.135903 50.753941 
L 25.811981 49.663943 
L 25.488059 48.573946 
L 25.164499 47.484907 
L 24.84094 46.395869 
L 24.517381 45.30683 
L 24.193822 44.217792 
L 23.882062 43.168564 
L 23.570301 42.119336 
L 23.258541 41.070108 
L 22.94678 40.020881 
L 22.521479 38.589374 
L 22.096178 37.157868 
L 21.670877 35.726361 
L 21.245576 34.294855 
L 20.882264 33.072235 
L 20.518952 31.849615 
L 20.15564 30.626995 
L 19.792328 29.404374 
L 19.401516 28.088823 
L 19.010703 26.773271 
L 18.619891 25.457719 
L 18.229079 24.142167 
L 17.815849 22.751311 
L 17.402619 21.360455 
L 16.989389 19.969598 
L 16.576159 18.578742 
L 16.150676 17.146996 
L 15.616282 15.202507 
L 15.524433 14.835577 
L 15.243077 13.708287 
L 14.961721 12.580996 
L 14.680365 11.453706 
L 14.39901 10.326416 
L 14.063924 8.984843 
L 13.728838 7.643271 
L 13.331673 6.052282 
" style="fill:none;stroke:#808080;stroke-linecap:square;stroke-width:0.4;"/>
   </g>
   <g id="line2d_3">
    <path clip-path="url(#pdfc88f3da5)" d="M 41.342367 40.86458 
L 41.52534 39.483196 
L 41.708312 38.101813 
L 41.908346 36.591405 
L 42.156303 34.719822 
L 42.46053 32.763342 
L 42.632611 31.635932 
L 42.804692 30.508522 
L 43.093671 28.610798 
L 43.382651 26.713075 
L 43.598841 25.222812 
L 43.815031 23.732549 
L 44.09076 21.84226 
L 44.366489 19.951971 
L 44.522505 18.852261 
L 44.678521 17.75255 
L 44.834538 16.65284 
L 44.990554 15.553129 
L 45.252306 13.617753 
L 45.514057 11.682378 
L 45.779802 9.842932 
L 46.045547 8.003485 
L 46.262645 6.527852 
L 46.479743 5.052218 
L 46.4674 4.710229 
" style="fill:none;stroke:#808080;stroke-linecap:square;stroke-width:0.4;"/>
   </g>
   <g id="line2d_4">
    <path clip-path="url(#pdfc88f3da5)" d="M 49.034817 18.951428 
L 49.157887 17.122294 
L 49.280958 15.29316 
L 49.363005 14.073898 
L 49.445052 12.854635 
L 49.521108 11.723627 
L 49.597165 10.59262 
L 49.709889 8.917213 
L 49.822613 7.241806 
L 49.897218 6.133582 
L 49.971822 5.025357 
L 50.083639 3.360503 
" style="fill:none;stroke:#808080;stroke-linecap:square;stroke-width:0.4;"/>
   </g>
   <g id="line2d_5">
    <path clip-path="url(#pdfc88f3da5)" d="M 40.96045 40.801266 
L 41.146508 39.417485 
L 41.332565 38.033703 
L 41.571809 36.466217 
L 41.852438 34.62725 
L 42.140329 32.670291 
L 42.300429 31.555831 
L 42.46053 30.441371 
L 42.731539 28.56739 
L 43.002548 26.69341 
L 43.207303 25.326656 
L 43.412057 23.959902 
L 43.708842 21.960253 
L 44.005627 19.960605 
L 44.16246 18.842908 
L 44.319293 17.72521 
L 44.476127 16.607513 
L 44.63296 15.489815 
L 44.912682 13.577223 
L 45.192404 11.664631 
L 45.452159 9.800003 
L 45.711914 7.935376 
L 45.908318 6.485882 
L 46.104723 5.036389 
L 46.194757 4.677134 
" style="fill:none;stroke:#808080;stroke-linecap:square;stroke-width:0.4;"/>
   </g>
   <g id="line2d_6">
    <path clip-path="url(#pdfc88f3da5)" d="M 35.476371 54.843891 
L 35.94324 53.261536 
L 36.175586 52.513286 
L 36.533361 51.281313 
L 36.891137 50.04934 
L 37.263434 48.786909 
L 37.635732 47.524478 
L 38.010933 46.253174 
L 38.386135 44.981869 
L 38.780396 43.645093 
" style="fill:none;stroke:#808080;stroke-linecap:square;stroke-width:0.4;"/>
   </g>
   <g id="line2d_7">
    <path clip-path="url(#pdfc88f3da5)" d="M 57.234069 8.766604 
L 57.756937 7.547341 
L 58.279805 6.328079 
L 58.802673 5.108816 
L 59.325541 3.889553 
" style="fill:none;stroke:#808080;stroke-linecap:square;stroke-width:0.4;"/>
   </g>
   <g id="line2d_8">
    <path clip-path="url(#pdfc88f3da5)" d="M 36.808364 57.645989 
L 36.701267 56.44855 
L 36.594171 55.251111 
" style="fill:none;stroke:#808080;stroke-linecap:square;stroke-width:0.4;"/>
   </g>
   <g id="line2d_9">
    <path clip-path="url(#pdfc88f3da5)" d="M 24.537984 65.722764 
L 23.834413 63.790386 
L 23.130842 61.858009 
L 22.427271 59.925631 
L 21.723699 57.993253 
" style="fill:none;stroke:#808080;stroke-linecap:square;stroke-width:0.4;"/>
   </g>
   <g id="line2d_10">
    <path clip-path="url(#pdfc88f3da5)" d="M 21.700102 68.727273 
L 21.270989 67.525757 
L 20.908312 66.509865 
L 20.228339 64.605187 
L 19.839886 63.517347 
L 19.451434 62.429508 
L 18.792335 60.583586 
L 18.133236 58.737665 
L 17.691054 57.499217 
" style="fill:none;stroke:#808080;stroke-linecap:square;stroke-width:0.4;"/>
   </g>
   <g id="line2d_11">
    <path clip-path="url(#pdfc88f3da5)" d="M 54.917513 12.078087 
L 54.086515 13.756371 
" style="fill:none;stroke:#808080;stroke-linecap:square;stroke-width:0.4;"/>
   </g>
   <g id="line2d_12">
    <path clip-path="url(#pdfc88f3da5)" d="M 50.083639 3.360503 
L 49.703899 3.338559 
L 49.324159 3.316615 
L 48.94442 3.294671 
L 48.56468 3.272727 
L 48.029741 3.319853 
L 47.494802 3.366978 
L 46.959863 3.414103 
L 46.424924 3.461229 
L 46.074228 3.491926 
L 45.656006 3.529099 
L 45.237784 3.566271 
L 44.62225 3.696975 
L 44.006716 3.827679 
L 43.559814 3.923009 
L 43.112912 4.018339 
L 42.66601 4.113668 
L 42.219108 4.208998 
L 41.771117 4.212116 
L 41.323126 4.215234 
L 40.894558 4.217872 
L 40.46599 4.22051 
L 39.911083 4.224347 
L 39.356177 4.228184 
" style="fill:none;stroke:#008000;stroke-linecap:square;stroke-width:0.4;"/>
   </g>
   <g id="line2d_13">
    <path clip-path="url(#pdfc88f3da5)" d="M 48.56468 3.272727 
L 48.801382 3.780194 
L 49.288218 4.150002 
L 49.803009 4.278547 
L 50.317799 4.407092 
L 50.877062 4.415966 
L 51.436325 4.424839 
L 51.778127 4.380472 
L 52.119928 4.336105 
L 52.46173 4.291737 
L 52.803532 4.24737 
L 53.172335 4.159774 
L 53.541138 4.072179 
L 53.909941 3.984583 
L 54.278744 3.896988 
L 54.647547 3.809392 
L 55.01635 3.721797 
L 55.385153 3.634201 
L 55.753956 3.546606 
L 56.133787 3.561235 
L 56.513617 3.575864 
L 56.893447 3.590493 
L 57.273278 3.605123 
L 57.789339 3.829118 
L 58.3054 4.053113 
L 57.998631 4.593555 
L 57.691863 5.133997 
L 57.385094 5.67444 
L 57.078325 6.214882 
" style="fill:none;stroke:#008000;stroke-linecap:square;stroke-width:0.4;"/>
   </g>
   <g id="line2d_14">
    <path clip-path="url(#pdfc88f3da5)" d="M 48.801382 3.780194 
L 48.412204 4.267515 
L 48.343952 4.822467 
L 48.275701 5.377418 
L 48.295123 5.835001 
L 48.314546 6.292585 
L 48.372995 6.857369 
L 48.431445 7.422153 
L 48.304835 7.758146 
L 48.178224 8.094139 
L 48.051614 8.430131 
L 47.925004 8.766124 
L 47.740035 9.17994 
L 47.555067 9.593755 
L 47.370098 10.00757 
L 47.185129 10.421386 
L 47.165707 10.801026 
L 47.146284 11.180667 
L 47.175327 11.57014 
L 47.20437 11.959614 
L 47.233595 12.422113 
L 47.26282 12.884613 
L 47.292044 13.347113 
L 47.321269 13.809612 
L 47.350494 14.272112 
L 47.379718 14.734611 
L 47.408943 15.197111 
L 47.438168 15.659611 
L 47.486815 16.214802 
L 47.535463 16.769993 
L 47.403861 17.065696 
L 47.272259 17.361398 
L 47.104444 17.73936 
L 46.936628 18.117322 
L 46.768813 18.495283 
L 46.600998 18.873245 
" style="fill:none;stroke:#4169e1;stroke-linecap:square;stroke-width:0.4;"/>
   </g>
   <g id="line2d_15">
    <path clip-path="url(#pdfc88f3da5)" d="M 46.600998 18.873245 
L 46.10436 19.126259 
L 45.607721 19.379273 
L 45.398338 19.647036 
L 45.188955 19.914799 
L 44.979572 20.182562 
L 44.770189 20.450325 
L 44.487835 20.669403 
L 44.20548 20.888482 
L 43.923126 21.107561 
L 43.640772 21.32664 
L 43.144134 21.599319 
L 42.647495 21.871998 
L 42.267756 22.232453 
L 41.888016 22.592908 
L 41.615373 22.855514 
L 41.342731 23.118121 
" style="fill:none;stroke:#000000;stroke-linecap:square;stroke-width:0.4;"/>
   </g>
   <g id="line2d_16">
    <path clip-path="url(#pdfc88f3da5)" d="M 41.323126 4.215234 
L 41.254603 4.83146 
L 41.186079 5.447687 
L 41.117555 6.063913 
L 41.049031 6.680139 
L 40.960268 7.16842 
L 40.871505 7.656701 
L 40.809425 8.153855 
L 40.747345 8.651009 
L 40.751793 9.045998 
L 40.75624 9.440987 
L 40.760687 9.835977 
L 40.765134 10.230966 
L 40.805069 10.648259 
L 40.845003 11.065552 
L 40.884937 11.482845 
L 40.924872 11.900137 
L 40.975788 12.221861 
L 41.026704 12.543584 
L 41.077621 12.865307 
L 41.128537 13.18703 
L 41.128537 13.631273 
L 41.128537 14.075516 
L 41.128537 14.519759 
L 41.128537 14.964002 
L 41.128537 15.408246 
L 41.128537 15.852489 
L 41.128537 16.296732 
L 41.128537 16.740975 
L 41.128537 17.185218 
L 41.128537 17.629461 
L 41.128537 18.073704 
L 41.128537 18.517947 
L 41.128537 18.96219 
L 41.128537 19.406433 
L 41.128537 19.850676 
L 41.128537 20.294919 
L 41.155311 20.647819 
L 41.182085 21.000719 
L 41.20886 21.35362 
L 41.235634 21.70652 
L 41.262408 22.05942 
L 41.289182 22.412321 
L 41.315956 22.765221 
L 41.342731 23.118121 
L 41.284281 23.575944 
L 41.225832 24.033767 
L 41.167382 24.49159 
L 41.108933 24.949413 
" style="fill:none;stroke:#4169e1;stroke-linecap:square;stroke-width:0.4;"/>
   </g>
   <g id="line2d_17">
    <path clip-path="url(#pdfc88f3da5)" d="M 49.775418 18.85358 
L 50.301099 18.960781 
L 50.826781 19.067982 
L 51.323419 19.141008 
L 51.820058 19.214034 
L 52.316696 19.287061 
L 52.813334 19.360087 
L 53.271037 19.457455 
L 53.728739 19.554824 
L 54.186441 19.652192 
L 54.644144 19.74956 
L 55.169825 19.88602 
L 55.695507 20.022479 
L 56.085049 20.197551 
L 56.280001 20.567358 
L 56.318846 20.839798 
L 56.182706 21.151568 
L 55.96815 21.268602 
L 55.462072 21.346785 
L 55.116459 21.392351 
L 54.770845 21.437918 
L 54.425231 21.483484 
L 54.079617 21.529051 
L 53.646329 21.66527 
L 53.213041 21.80149 
L 52.812971 21.999824 
L 52.412902 22.198158 
L 52.009383 22.52192 
L 51.605864 22.845682 
L 51.342933 23.157332 
L 51.080001 23.468983 
L 50.81707 23.780633 
L 50.554138 24.092284 
L 50.259577 24.362445 
L 49.965015 24.632606 
L 49.670454 24.902768 
L 49.375893 25.172929 
L 49.081331 25.44309 
L 48.78677 25.713251 
L 48.492208 25.983412 
L 48.197647 26.253573 
L 47.86415 26.621163 
L 47.530652 26.988752 
L 47.197155 27.356342 
L 46.863657 27.723931 
L 46.53016 28.091521 
L 46.196663 28.45911 
L 45.863165 28.8267 
L 45.529668 29.194289 
L 45.2278 29.525365 
L 44.925933 29.856442 
L 44.624065 30.187518 
L 44.322198 30.518594 
L 44.166454 30.907588 
L 44.127608 31.239024 
L 44.186058 31.608832 
L 44.322198 31.784383 
L 44.51715 31.84242 
L 44.770189 31.823234 
L 45.003986 31.745052 
L 45.432373 31.492038 
L 45.86076 31.239024 
L 46.352498 30.893319 
L 46.844235 30.547613 
L 47.335972 30.201907 
L 47.82771 29.856202 
L 48.27561 29.593355 
L 48.72351 29.330509 
L 49.17141 29.067662 
L 49.619311 28.804816 
L 50.223046 28.629505 
L 50.826781 28.454194 
L 51.255531 28.454194 
L 51.703159 28.64893 
L 51.995406 28.979887 
L 51.995406 29.252806 
L 51.800817 29.583762 
L 51.45012 29.856202 
L 50.953482 30.187398 
L 50.456843 30.518594 
L 50.164778 30.878809 
L 49.872712 31.239024 
L 49.648717 31.531129 
L 49.424721 31.823234 
L 49.424721 32.076008 
L 49.424721 32.310076 
L 49.502775 32.446296 
L 49.67776 32.485147 
L 49.853108 32.407444 
L 50.067302 32.29041 
L 50.437602 32.135005 
L 50.865989 31.959454 
L 51.352825 31.764717 
L 51.605864 31.784383 
L 51.742367 31.823234 
L 51.956561 32.037636 
L 51.995406 32.310076 
L 51.703159 32.718735 
L 51.255349 33.098615 
L 50.80754 33.478496 
L 50.49351 33.75837 
L 50.179481 34.038244 
L 49.865452 34.318118 
L 49.551422 34.597992 
L 49.237393 34.877866 
L 48.923363 35.15774 
L 48.609334 35.437614 
L 48.295305 35.717488 
L 47.922826 36.029079 
L 47.550347 36.340669 
L 47.177868 36.65226 
L 46.80539 36.963851 
L 46.432911 37.275441 
L 46.060432 37.587032 
L 45.687953 37.898623 
L 45.315474 38.210213 
L 44.843251 38.346553 
L 44.371027 38.482893 
L 43.898803 38.619232 
L 43.426579 38.755572 
L 42.978588 39.018418 
L 42.530597 39.281265 
L 42.306601 39.70959 
L 42.082606 40.137914 
L 41.712486 40.501247 
L 41.342367 40.86458 
L 40.96045 40.801266 
" style="fill:none;stroke:#008000;stroke-linecap:square;stroke-width:0.4;"/>
   </g>
   <g id="line2d_18">
    <path clip-path="url(#pdfc88f3da5)" d="M 40.081167 38.469223 
L 40.693525 38.672233 
L 41.305882 38.875244 
L 41.918239 39.078254 
L 42.530597 39.281265 
" style="fill:none;stroke:#008000;stroke-linecap:square;stroke-width:0.4;"/>
   </g>
   <g id="line2d_19">
    <path clip-path="url(#pdfc88f3da5)" d="M 40.46599 4.22051 
L 40.349181 4.631447 
L 40.232373 5.042385 
L 40.115565 5.453322 
L 39.998757 5.86426 
L 39.789465 6.185503 
L 39.580173 6.506747 
L 39.37088 6.827991 
L 39.161588 7.149234 
L 38.976528 7.645909 
L 38.791469 8.142583 
L 38.606409 8.639258 
L 38.42135 9.135932 
L 38.324055 9.7494 
L 38.22676 10.362869 
L 38.177932 10.810859 
L 38.129103 11.258849 
L 38.085356 11.585009 
L 38.04161 11.911169 
L 37.997864 12.237329 
L 37.954118 12.563489 
L 38.158509 13.118681 
L 38.3629 13.673872 
L 38.567473 14.04368 
L 38.772046 14.413488 
L 39.141984 14.861478 
L 39.365979 15.104899 
L 39.589975 15.34832 
L 39.716494 15.65985 
L 39.843013 15.971381 
L 39.784564 16.535926 
L 39.531525 17.10095 
L 39.278305 17.324945 
L 39.025085 17.54894 
L 38.820512 17.821619 
L 38.615939 18.094299 
L 38.246001 18.551882 
L 37.876064 19.009465 
L 37.79801 19.613341 
L 37.914909 19.95413 
L 38.031808 20.294919 
L 38.265606 20.625875 
L 38.479799 20.937166 
L 38.509024 21.326879 
L 38.538248 21.716593 
L 38.397026 22.062178 
L 38.255804 22.407764 
L 38.114581 22.75335 
L 37.973359 23.098935 
L 37.700716 23.410706 
L 37.603421 23.800179 
L 37.671491 24.131135 
L 37.739561 24.462092 
L 37.973359 24.812474 
L 38.207156 25.162856 
L 38.518644 25.650177 
L 38.567292 26.00056 
L 38.615939 26.350942 
L 38.518644 26.672305 
L 38.42135 26.993669 
L 38.197354 27.461085 
L 37.973359 27.928501 
L 37.837037 28.425175 
L 37.700716 28.92185 
L 37.720138 29.476801 
L 37.739561 30.031753 
L 37.837037 30.53802 
L 37.934513 31.044287 
L 38.119482 31.550555 
L 38.304451 32.056822 
L 38.557671 32.533831 
L 38.810891 33.01084 
L 39.034887 33.273687 
L 39.258882 33.536533 
L 39.667847 34.033208 
L 40.076811 34.529882 
" style="fill:none;stroke:#4169e1;stroke-linecap:square;stroke-width:0.4;"/>
   </g>
   <g id="line2d_20">
    <path clip-path="url(#pdfc88f3da5)" d="M 39.356177 4.228184 
L 37.876064 5.085313 
L 36.980082 6.409619 
L 36.026013 8.356985 
L 35.724146 10.002654 
L 35.470835 12.013214 
L 35.217705 12.914111 
L 34.273258 15.241358 
L 33.752295 16.696967 
L 31.507621 24.014581 
L 31.059993 28.220606 
L 31.498908 29.01682 
L 33.026579 34.276628 
L 32.965588 35.272855 
L 32.738688 35.834522 
L 32.052906 36.457583 
L 31.62452 36.671506 
L 31.118079 36.613468 
L 29.65757 35.698302 
L 28.722743 35.503565 
L 28.099767 35.523231 
L 27.924418 35.93189 
L 28.119008 36.574617 
L 28.820219 37.869184 
L 29.073439 38.229399 
L 29.71602 40.177246 
L 30.202856 40.819493 
L 31.147485 41.267483 
L 32.121158 41.46222 
L 33.669522 41.676142 
L 35.578022 41.384277 
L 38.070653 40.819493 
L 39.625734 40.727521 
L 40.96045 40.801266 
L 40.96045 40.801266 
" style="fill:none;stroke:#008000;stroke-linecap:square;stroke-width:0.4;"/>
   </g>
   <g id="line2d_21">
    <path clip-path="url(#pdfc88f3da5)" d="M 28.099767 35.523231 
L 27.729738 35.562082 
L 27.35971 35.600934 
L 26.989682 35.639785 
L 26.619654 35.678637 
L 26.288561 35.93189 
L 25.957469 36.185144 
L 25.606954 36.438397 
L 25.256439 36.691651 
L 24.749999 37.022128 
L 24.165868 37.197679 
" style="fill:none;stroke:#008000;stroke-linecap:square;stroke-width:0.4;"/>
   </g>
   <g id="line2d_22">
    <path clip-path="url(#pdfc88f3da5)" d="M 46.4674 4.710229 
L 46.446162 4.085729 
L 46.424924 3.461229 
" style="fill:none;stroke:#008000;stroke-linecap:square;stroke-width:0.4;"/>
   </g>
   <g id="line2d_23">
    <path clip-path="url(#pdfc88f3da5)" d="M 46.194757 4.677134 
L 46.134492 4.08453 
L 46.074228 3.491926 
" style="fill:none;stroke:#008000;stroke-linecap:square;stroke-width:0.4;"/>
   </g>
   <g id="line2d_24">
    <path clip-path="url(#pdfc88f3da5)" d="M 39.180829 40.702939 
L 38.820512 40.897435 
L 38.460195 41.091932 
L 38.109862 41.559588 
L 37.807994 41.851693 
L 37.506126 42.143798 
L 36.946138 42.387699 
L 36.386149 42.631599 
L 35.806737 42.884133 
L 35.227326 43.136667 
L 34.896279 43.28272 
L 34.565232 43.428772 
L 34.234185 43.574825 
L 33.903138 43.720877 
L 33.572092 43.86693 
L 33.241045 44.012982 
L 32.909998 44.159035 
L 32.578951 44.305087 
L 32.06289 44.480878 
L 31.546829 44.656669 
L 31.205935 44.772983 
L 30.86504 44.889297 
L 30.568074 45.049979 
L 30.271107 45.210661 
L 29.974141 45.371343 
L 29.677174 45.532024 
L 29.465522 46.098488 
L 29.32793 46.467576 
L 29.190338 46.836664 
L 29.044214 47.255156 
L 28.898091 47.673648 
L 28.664293 48.219007 
L 28.31396 48.511112 
L 28.080162 48.686663 
" style="fill:none;stroke:#008000;stroke-linecap:square;stroke-width:0.4;"/>
   </g>
   <g id="line2d_25">
    <path clip-path="url(#pdfc88f3da5)" d="M 13.331673 6.052282 
L 13.20116 5.691107 
L 13.070647 5.329933 
L 13.505932 5.178365 
L 13.941216 5.026796 
L 14.408086 4.962284 
L 14.874955 4.897771 
L 15.32349 4.835897 
L 15.772026 4.774022 
L 16.375625 4.747642 
L 16.979224 4.721261 
L 17.582823 4.694881 
L 18.186422 4.6685 
L 18.790021 4.642119 
L 19.39362 4.615739 
L 19.997219 4.589358 
L 20.600818 4.562978 
L 21.024462 4.544511 
L 21.448107 4.526045 
L 21.871752 4.507578 
L 22.295396 4.489112 
L 22.719041 4.470646 
L 23.142686 4.452179 
L 23.56633 4.433713 
L 23.989975 4.415246 
L 24.41362 4.39678 
L 24.837265 4.378314 
L 25.260909 4.359847 
L 25.684554 4.341381 
L 26.108199 4.322914 
L 26.531843 4.304448 
L 26.955488 4.285982 
L 27.379133 4.267515 
L 27.959724 4.240715 
L 28.540315 4.213915 
L 29.120907 4.187114 
L 29.701498 4.160314 
L 30.282089 4.133514 
L 30.862681 4.106713 
L 31.443272 4.079913 
L 32.023863 4.053113 
L 32.604455 4.026313 
L 33.185046 3.999512 
L 33.765637 3.972712 
L 34.346228 3.945912 
L 34.92682 3.919112 
L 35.507411 3.892311 
L 36.088002 3.865511 
L 36.668594 3.838711 
L 37.111684 3.867969 
L 37.554774 3.897228 
L 37.997864 3.926486 
L 38.440954 3.955745 
L 38.898565 4.091964 
L 39.356177 4.228184 
" style="fill:none;stroke:#008000;stroke-linecap:square;stroke-width:0.4;"/>
   </g>
   <g id="line2d_26">
    <path clip-path="url(#pdfc88f3da5)" d="M 14.874955 4.897771 
L 17.320209 6.419211 
L 18.693225 7.266508 
L 19.219088 7.656221 
L 19.627871 8.259617 
L 19.433282 9.077415 
L 18.654198 10.065728 
L 17.261691 11.27195 
L 10.260719 16.419371 
L 10.163062 17.10095 
L 10.358014 17.568126 
L 11.725948 18.181834 
L 13.240187 18.931762 
L 13.51283 19.204202 
L 13.590883 20.022479 
L 10.82452 24.381991 
L 9.471834 26.555511 
L 7.549357 31.379321 
L 7.300493 31.862086 
L 5.498909 32.845362 
L 3.035502 33.575864 
L 2.898999 33.848304 
L 2.879395 34.256963 
L 3.249696 34.880504 
L 4.315944 35.62006 
L 9.678358 38.442482 
L 10.752638 38.852341 
L 13.473803 39.670738 
L 15.713576 39.982029 
L 16.905799 40.488536 
L 17.919406 42.321987 
L 18.751493 43.837911 
L 20.5725 45.395565 
L 21.682676 46.320564 
L 23.055602 47.839606 
L 24.89104 49.849986 
L 27.262234 51.539003 
L 28.547395 52.210629 
L 28.547395 52.210629 
" style="fill:none;stroke:#008000;stroke-linecap:square;stroke-width:0.4;"/>
   </g>
   <g id="line2d_27">
    <path clip-path="url(#pdfc88f3da5)" d="M 20.600818 4.562978 
L 20.644836 4.956408 
L 20.688855 5.349839 
L 20.732873 5.743269 
L 20.776892 6.136699 
L 20.971663 6.623541 
L 21.166433 7.110383 
L 21.575398 7.319749 
L 21.984362 7.529115 
L 22.393326 7.73848 
L 22.802291 7.947846 
L 23.303785 8.220526 
L 23.805279 8.493205 
L 24.306773 8.765884 
L 24.808267 9.038564 
L 25.309761 9.311243 
L 25.811255 9.583922 
L 26.312749 9.856602 
L 26.814243 10.129281 
L 27.235369 10.377558 
L 27.656495 10.625835 
L 28.077621 10.874113 
L 28.498747 11.12239 
L 28.919873 11.370667 
L 29.340999 11.618944 
L 29.762126 11.867222 
L 30.183252 12.115499 
L 30.67027 12.504972 
L 31.157287 12.894446 
L 31.293609 13.205976 
L 31.42993 13.517507 
L 31.537027 14.033607 
L 31.644124 14.549707 
L 31.575872 14.968439 
L 31.507621 15.387171 
L 31.420037 15.72796 
L 31.332454 16.068749 
L 31.244871 16.409539 
L 31.157287 16.750328 
L 30.98684 17.115459 
L 30.816393 17.48059 
L 30.645946 17.845722 
L 30.475499 18.210853 
L 30.032499 18.624668 
L 29.5895 19.038484 
L 29.146501 19.452299 
L 28.703502 19.866115 
L 28.428408 20.102281 
L 28.153315 20.338447 
L 27.878222 20.574613 
L 27.603128 20.810779 
L 27.328035 21.046945 
L 27.052941 21.283112 
L 26.777848 21.519278 
L 26.502755 21.755444 
L 26.288561 22.047069 
L 26.268957 22.378505 
L 26.483151 22.67061 
L 26.775398 22.826496 
L 27.04804 22.904678 
L 27.349908 23.031065 
L 27.651776 23.157452 
L 27.973066 23.517667 
L 28.294356 23.877882 
L 28.528153 24.306207 
L 28.566999 24.62781 
L 28.605844 24.949413 
L 28.498747 25.319221 
L 28.391651 25.689029 
L 28.177457 26.146612 
L 27.963264 26.604195 
L 27.783105 26.949901 
L 27.602947 27.295606 
L 27.422788 27.641312 
L 27.24263 27.987018 
L 27.281657 28.551562 
L 27.320683 29.116107 
L 27.252523 29.529922 
L 27.184362 29.943737 
L 27.116201 30.357553 
L 27.04804 30.771368 
L 26.780208 31.039131 
L 26.512375 31.306894 
L 26.244543 31.574657 
L 25.97671 31.84242 
L 25.791741 32.212468 
L 25.606773 32.582515 
L 25.558125 32.952563 
L 25.509478 33.322611 
L 25.655601 33.702251 
L 25.801725 34.081892 
L 26.132817 34.364164 
L 26.463909 34.646436 
L 26.678103 35.230646 
L 26.619654 35.678637 
L 26.288561 35.93189 
L 25.957469 36.185144 
L 25.606954 36.438397 
L 25.256439 36.691651 
L 25.256439 37.002942 
" style="fill:none;stroke:#4169e1;stroke-linecap:square;stroke-width:0.4;"/>
   </g>
   <g id="line2d_28">
    <path clip-path="url(#pdfc88f3da5)" d="M 19.219088 7.656221 
L 19.578679 7.555255 
L 19.93827 7.45429 
L 20.386443 7.328862 
L 20.834615 7.203434 
L 21.166433 7.110383 
" style="fill:none;stroke:#008000;stroke-linecap:square;stroke-width:0.4;"/>
   </g>
   <g id="line2d_29">
    <path clip-path="url(#pdfc88f3da5)" d="M 20.834615 7.203434 
L 21.020128 7.78021 
L 21.205642 8.356985 
L 21.268901 8.729431 
L 21.332161 9.101877 
L 21.395421 9.474323 
L 21.45868 9.846769 
L 21.52194 10.219215 
L 21.5852 10.591661 
L 21.64846 10.964106 
L 21.711719 11.336552 
L 21.794492 11.940248 
L 21.877265 12.543944 
L 21.960038 13.147639 
L 22.042811 13.751335 
L 22.125584 14.355031 
L 22.208358 14.958726 
L 22.291131 15.562422 
L 22.373904 16.166118 
L 22.427452 16.616446 
L 22.481 17.066775 
L 22.534549 17.517103 
L 22.588097 17.967432 
L 22.641646 18.417761 
L 22.695194 18.868089 
L 22.748742 19.318418 
L 22.802291 19.768746 
L 22.807192 20.202047 
L 22.812093 20.635348 
L 22.816994 21.068649 
L 22.821895 21.501951 
L 22.826796 21.935252 
L 22.831697 22.368553 
L 22.836598 22.801854 
L 22.841499 23.235155 
L 22.870724 23.707367 
L 22.899948 24.17958 
L 22.929173 24.651792 
L 22.958398 25.124005 
L 23.021657 25.467252 
L 23.084917 25.810499 
L 23.148177 26.153747 
L 23.211436 26.496994 
L 23.274696 26.840242 
L 23.337956 27.183489 
L 23.401215 27.526736 
L 23.464475 27.869984 
L 23.515618 28.427393 
L 23.566762 28.984803 
L 23.617905 29.542213 
L 23.669048 30.099623 
L 23.720191 30.657032 
L 23.771334 31.214442 
L 23.822478 31.771852 
L 23.873621 32.329262 
L 23.885783 32.740679 
L 23.897945 33.152096 
L 23.910106 33.563513 
L 23.922268 33.97493 
L 23.93443 34.386348 
L 23.946592 34.797765 
L 23.958754 35.209182 
L 23.970916 35.620599 
L 24.019654 36.014869 
L 24.068392 36.409139 
L 24.11713 36.803409 
L 24.165868 37.197679 
L 23.941872 37.655262 
L 23.717877 38.112845 
L 23.620401 38.658204 
L 23.522924 39.203562 
L 23.649625 39.690404 
L 23.776326 40.177246 
" style="fill:none;stroke:#000000;stroke-linecap:square;stroke-width:0.4;"/>
   </g>
   <g id="line2d_30">
    <path clip-path="url(#pdfc88f3da5)" d="M 23.776326 40.177246 
L 24.360457 40.099063 
L 24.905743 40.001695 
L 25.314889 39.729255 
L 25.645618 39.495667 
" style="fill:none;stroke:#008000;stroke-linecap:square;stroke-width:0.4;"/>
   </g>
   <g id="line2d_31">
    <path clip-path="url(#pdfc88f3da5)" d="M 23.776326 40.177246 
L 23.961295 40.503405 
L 24.146264 40.829565 
L 24.331232 41.155725 
L 24.516201 41.481885 
L 24.72799 41.77393 
L 24.939778 42.065975 
L 25.151566 42.35802 
L 25.363354 42.650066 
L 25.575143 42.942111 
L 25.786931 43.234156 
L 25.998719 43.526201 
L 26.210508 43.818246 
L 26.327361 44.168808 
L 26.444215 44.51937 
L 26.561068 44.869932 
L 26.677921 45.220494 
L 26.794775 45.571056 
L 26.911628 45.921618 
L 27.028482 46.27218 
L 27.145335 46.622742 
L 27.379042 47.138722 
L 27.612749 47.654702 
L 27.846456 48.170682 
L 28.080162 48.686663 
" style="fill:none;stroke:#000000;stroke-linecap:square;stroke-width:0.4;"/>
   </g>
   <g id="line2d_32">
    <path clip-path="url(#pdfc88f3da5)" d="M 19.93827 7.45429 
L 19.967631 7.83489 
L 19.996992 8.215489 
L 20.026353 8.596089 
L 20.055713 8.976689 
L 20.085074 9.357289 
L 20.114435 9.737889 
L 20.143796 10.118489 
L 20.173157 10.499089 
L 20.220647 10.856935 
L 20.268137 11.214782 
L 20.315627 11.572629 
L 20.363117 11.930475 
L 20.410607 12.288322 
L 20.458098 12.646168 
L 20.505588 13.004015 
L 20.553078 13.361862 
L 20.600568 13.719708 
L 20.648058 14.077555 
L 20.695548 14.435402 
L 20.743038 14.793248 
L 20.790529 15.151095 
L 20.838019 15.508941 
L 20.885509 15.866788 
L 20.932999 16.224635 
L 20.957323 16.623881 
L 20.981646 17.023127 
L 21.00597 17.422373 
L 21.030294 17.821619 
L 21.054617 18.220865 
L 21.078941 18.620112 
L 21.103265 19.019358 
L 21.127588 19.418604 
L 21.086202 19.739907 
L 21.044815 20.061211 
L 21.003429 20.382514 
L 20.962042 20.703818 
L 20.920656 21.025122 
L 20.879269 21.346425 
L 20.837883 21.667729 
L 20.796496 21.989032 
L 20.704012 22.558613 
L 20.611527 23.128194 
L 20.519043 23.697774 
L 20.426558 24.267355 
L 20.397334 24.62769 
L 20.368109 24.988025 
L 20.338884 25.34836 
L 20.30966 25.708694 
L 20.353497 26.083419 
L 20.397334 26.458143 
L 20.441171 26.832867 
L 20.485008 27.207591 
L 20.640752 27.811467 
L 20.796496 28.415342 
L 20.893881 28.877842 
L 20.991267 29.340342 
L 21.088652 29.802841 
L 21.186038 30.265341 
L 21.166524 30.615843 
L 21.147011 30.966345 
L 21.127497 31.316847 
L 21.107984 31.667349 
L 20.966852 32.086081 
L 20.825721 32.504812 
L 20.684589 32.923544 
L 20.543457 33.342276 
L 20.455783 33.833914 
L 20.368109 34.325552 
L 20.280435 34.817191 
L 20.192761 35.308829 
L 20.207373 35.74207 
L 20.221986 36.175311 
L 20.236598 36.608552 
L 20.25121 37.041793 
L 20.355902 37.445896 
L 20.460593 37.849998 
L 20.565285 38.254101 
L 20.669977 38.658204 
L 20.774668 39.062306 
L 20.87936 39.466409 
L 20.984051 39.870511 
L 21.088743 40.274614 
L 21.234776 40.647 
L 21.380808 41.019386 
L 21.526841 41.391772 
L 21.672874 41.764158 
L 21.818907 42.136544 
L 21.964939 42.508929 
L 22.110972 42.881315 
L 22.257005 43.253701 
L 22.429857 43.572607 
L 22.602709 43.891512 
L 22.775562 44.210417 
L 22.948414 44.529322 
L 23.121266 44.848228 
L 23.294119 45.167133 
L 23.466971 45.486038 
L 23.639823 45.804944 
L 23.985528 46.096929 
L 24.331232 46.388914 
L 24.676937 46.680899 
L 25.022642 46.972884 
L 25.26606 47.294128 
L 25.509478 47.615371 
L 25.752896 47.936615 
L 25.996314 48.257858 
L 26.234922 48.535454 
L 26.47353 48.81305 
L 26.712138 49.090645 
L 26.950746 49.368241 
L 27.290551 49.631207 
L 27.630356 49.894174 
L 27.970161 50.15714 
L 28.309967 50.420107 
" style="fill:none;stroke:#000000;stroke-linecap:square;stroke-width:0.4;"/>
   </g>
   <g id="line2d_33">
    <path clip-path="url(#pdfc88f3da5)" d="M 38.780396 43.645093 
L 38.207156 43.389921 
L 37.837219 43.565472 
L 37.695996 43.857577 
L 37.554774 44.149682 
L 37.413551 44.441787 
L 37.272329 44.733892 
L 37.153048 45.190246 
L 37.033766 45.6466 
L 36.914485 46.102954 
L 36.795204 46.559308 
L 36.675923 47.015662 
L 36.556641 47.472017 
L 36.43736 47.928371 
L 36.318079 48.384725 
L 36.198798 48.841079 
L 36.079516 49.297433 
L 35.960235 49.753787 
L 35.840954 50.210141 
L 35.721673 50.666495 
L 35.602391 51.12285 
L 35.48311 51.579204 
L 35.363829 52.035558 
L 35.254282 52.427429 
L 35.144734 52.819301 
L 35.035187 53.211173 
L 34.92564 53.603044 
L 34.816093 53.994916 
L 34.706545 54.386787 
L 34.596998 54.778659 
L 34.487451 55.17053 
L 34.487451 55.530745 
L 34.487451 55.89096 
L 34.487451 56.251175 
L 34.487451 56.61139 
L 34.263455 57.176174 
L 34.03946 57.740959 
L 33.679143 57.91603 
L 33.318826 58.091101 
L 32.77354 58.325169 
" style="fill:none;stroke:#008000;stroke-linecap:square;stroke-width:0.4;"/>
   </g>
   <g id="line2d_34">
    <path clip-path="url(#pdfc88f3da5)" d="M 31.546829 44.656669 
L 31.741509 45.084754 
L 31.936189 45.512839 
L 32.130869 45.940923 
L 32.325549 46.369008 
L 32.578769 46.875516 
L 32.83199 47.382023 
L 32.919664 47.751831 
L 33.007338 48.121638 
L 32.987734 48.725514 
L 32.970694 49.13807 
L 32.953653 49.550627 
L 32.936613 49.963183 
L 32.919573 50.375739 
L 32.902533 50.788296 
L 32.885493 51.200852 
L 32.868453 51.613409 
L 32.851412 52.025965 
L 32.834372 52.438521 
L 32.817332 52.851078 
L 32.800292 53.263634 
L 32.783252 53.67619 
L 32.766211 54.088747 
L 32.749171 54.501303 
L 32.732131 54.913859 
L 32.715091 55.326416 
L 32.72453 55.810859 
L 32.736783 56.439437 
L 32.749035 57.068014 
L 32.761288 57.696591 
L 32.77354 58.325169 
" style="fill:none;stroke:#008000;stroke-linecap:square;stroke-width:0.4;"/>
   </g>
   <g id="line2d_35">
    <path clip-path="url(#pdfc88f3da5)" d="M 29.465522 46.098488 
L 29.557371 46.438797 
L 29.64922 46.779107 
L 29.741069 47.119416 
L 29.832918 47.459726 
L 30.013644 47.981671 
L 30.19437 48.503617 
L 30.375096 49.025563 
L 30.555821 49.547509 
L 30.736547 50.069455 
L 30.917273 50.591401 
L 31.097998 51.113347 
L 31.278724 51.635292 
L 31.45945 52.157238 
L 31.640176 52.679184 
L 31.820901 53.20113 
L 32.001627 53.723076 
L 32.182353 54.245022 
L 32.363078 54.766968 
L 32.543804 55.288913 
L 32.72453 55.810859 
" style="fill:none;stroke:#008000;stroke-linecap:square;stroke-width:0.4;"/>
   </g>
   <g id="line2d_36">
    <path clip-path="url(#pdfc88f3da5)" d="M 38.458017 4.748121 
L 38.843202 5.027156 
L 39.228387 5.306191 
L 39.613572 5.585225 
L 39.998757 5.86426 
L 40.242176 6.117514 
L 40.485594 6.370767 
L 41.049031 6.680139 
L 41.338374 6.906773 
L 41.627717 7.133406 
L 42.111467 7.512327 
L 42.595218 7.891248 
L 43.078968 8.270169 
L 43.562719 8.64909 
L 43.987021 8.949109 
L 44.411324 9.249129 
L 44.835627 9.549148 
L 45.259929 9.849167 
L 45.634133 10.113932 
L 46.008336 10.378697 
L 46.382539 10.643462 
L 46.756742 10.908228 
L 47.146284 11.180667 
L 47.555248 11.287868 
L 47.964212 11.395069 
L 48.421824 11.302617 
L 48.879436 11.210165 
L 49.337047 11.117713 
L 49.794659 11.025261 
L 50.281586 10.845154 
L 50.768513 10.665047 
L 51.25544 10.484939 
L 51.742367 10.304832 
L 52.229203 10.109855 
L 52.71604 9.914879 
L 53.03733 9.876027 
L 53.35862 9.837176 
L 53.923328 10.031913 
L 54.488037 10.226649 
" style="fill:none;stroke:#008000;stroke-linecap:square;stroke-width:0.4;"/>
   </g>
   <g id="line2d_37">
    <path clip-path="url(#pdfc88f3da5)" d="M 44.006716 3.827679 
L 43.91523 4.234539 
L 43.823744 4.6414 
L 43.732258 5.04826 
L 43.640772 5.455121 
L 43.582323 5.776724 
L 43.523873 6.098328 
L 43.582323 6.458543 
L 43.640772 6.818757 
L 43.845254 7.217944 
L 44.049736 7.61713 
L 44.254219 8.016316 
L 44.458701 8.415502 
L 44.828638 8.902344 
L 44.99491 9.267835 
L 45.259929 9.849167 
L 45.219632 10.261903 
L 45.179335 10.674639 
L 44.906692 11.005596 
L 44.634049 11.336552 
L 44.590212 11.657916 
L 44.546375 11.979279 
L 44.502538 12.300643 
L 44.458701 12.622006 
L 44.595022 13.235475 
L 44.731344 13.848943 
L 44.926114 14.286861 
L 45.120885 14.724779 
L 45.466499 15.21174 
L 45.812113 15.698702 
L 46.157727 16.185663 
L 46.503341 16.672625 
L 46.8878 17.017011 
L 47.272259 17.361398 
L 47.861654 17.49402 
L 48.451049 17.626643 
L 48.757727 17.762982 
L 49.064404 17.899322 
L 49.371082 18.035662 
L 49.67776 18.172001 
" style="fill:none;stroke:#4169e1;stroke-linecap:square;stroke-width:0.4;"/>
   </g>
   <g id="line2d_38">
    <path clip-path="url(#pdfc88f3da5)" d="M 44.99491 9.267835 
L 44.785255 9.824945 
L 44.575599 10.382055 
L 44.366216 10.630512 
L 44.156833 10.878969 
L 43.94745 11.127426 
L 43.738067 11.375883 
L 43.270653 11.672785 
L 42.803239 11.969686 
L 42.335826 12.266588 
L 41.868412 12.563489 
L 41.587056 12.800435 
L 41.128537 13.18703 
" style="fill:none;stroke:#008000;stroke-linecap:square;stroke-width:0.4;"/>
   </g>
   <g id="line2d_39">
    <path clip-path="url(#pdfc88f3da5)" d="M 20.173157 10.499089 
L 20.022404 10.79611 
L 19.871652 11.093131 
L 19.7209 11.390153 
L 19.570148 11.687174 
L 19.287794 11.998825 
L 19.005439 12.310475 
L 18.723085 12.622126 
L 18.440731 12.933777 
L 17.997641 13.39136 
L 17.554551 13.848943 
L 17.111461 14.306526 
L 16.668371 14.76411 
L 16.317856 15.07588 
L 15.967341 15.387651 
L 15.665474 15.562962 
L 15.363606 15.738273 
L 15.090963 15.952195 
L 15.013273 16.2443 
L 15.149413 16.575257 
L 15.44166 16.731142 
L 15.899271 16.789659 
L 16.356883 16.848176 
L 16.697686 17.052625 
L 17.03849 17.257075 
L 17.379294 17.461524 
L 17.720097 17.665974 
L 18.117989 17.962396 
L 18.206933 18.308701 
L 18.170266 18.800819 
L 17.934291 19.232981 
" style="fill:none;stroke:#4169e1;stroke-linecap:square;stroke-width:0.4;"/>
   </g>
   <g id="line2d_40">
    <path clip-path="url(#pdfc88f3da5)" d="M 46.600998 18.873245 
L 46.542549 19.272431 
L 46.484099 19.671618 
L 46.42565 20.070804 
L 46.367201 20.46999 
L 46.084846 21.000719 
L 45.802492 21.531449 
L 45.520138 22.062178 
L 45.237784 22.592908 
L 44.77037 22.962715 
L 44.302957 23.332523 
L 43.864768 23.342356 
L 43.426579 23.352189 
L 42.842085 23.566111 
L 42.564632 23.780394 
L 42.287178 23.994676 
L 42.009725 24.208958 
L 41.732272 24.42324 
L 41.420603 24.686327 
L 41.108933 24.949413 
" style="fill:none;stroke:#4169e1;stroke-linecap:square;stroke-width:0.4;"/>
   </g>
   <g id="line2d_41">
    <path clip-path="url(#pdfc88f3da5)" d="M 41.108933 24.949413 
L 40.943387 25.5383 
L 40.777841 26.127186 
L 40.612295 26.716073 
L 40.446748 27.30496 
L 40.381038 27.760204 
L 40.315328 28.215449 
L 40.249618 28.670694 
L 40.183908 29.125939 
L 40.118197 29.581184 
L 40.052487 30.036429 
L 39.986777 30.491674 
L 39.921067 30.946919 
L 39.940535 31.394789 
L 39.960003 31.84266 
L 39.979471 32.29053 
L 39.998939 32.738401 
L 40.018407 33.186271 
L 40.037875 33.634141 
L 40.057343 34.082012 
L 40.076811 34.529882 
L 40.13526 35.099463 
L 40.19371 35.669044 
L 40.252159 36.238624 
L 40.310609 36.808205 
L 40.253248 37.22346 
L 40.195888 37.638714 
L 40.138528 38.053968 
L 40.081167 38.469223 
L 39.835571 38.865411 
L 39.589975 39.261599 
L 39.365979 39.660906 
L 39.141984 40.060212 
L 39.180829 40.702939 
" style="fill:none;stroke:#4169e1;stroke-linecap:square;stroke-width:0.4;"/>
   </g>
   <g id="line2d_42">
    <path clip-path="url(#pdfc88f3da5)" d="M 12.071562 18.327887 
L 12.564116 18.376331 
L 13.05667 18.424775 
L 13.549224 18.47322 
L 14.041778 18.521664 
L 14.538326 18.589774 
L 15.034874 18.657884 
L 15.531421 18.725994 
L 16.027969 18.794104 
L 16.504549 18.903823 
L 16.98113 19.013542 
L 17.45771 19.123261 
L 17.934291 19.232981 
L 17.691962 19.802801 
L 17.449633 20.372622 
L 17.316987 20.683733 
L 17.184341 20.994844 
L 17.051696 21.305955 
L 16.91905 21.617066 
L 16.786404 21.928177 
L 16.653759 22.239288 
L 16.521113 22.550399 
L 16.388467 22.86151 
L 16.316495 23.320052 
L 16.244522 23.778595 
L 16.172549 24.237137 
L 16.100577 24.69568 
L 16.074347 25.229527 
L 16.048118 25.763374 
L 16.021888 26.297221 
L 15.995658 26.831068 
L 15.948327 27.228696 
L 15.900996 27.626323 
L 15.853664 28.02395 
L 15.806333 28.421578 
L 15.759002 28.819205 
L 15.711671 29.216832 
L 15.664339 29.61446 
L 15.617008 30.012087 
L 15.485406 30.340645 
L 15.353804 30.669203 
L 15.104759 31.022703 
L 14.855714 31.376203 
L 14.610571 31.69265 
L 14.365428 32.009097 
L 14.120286 32.325544 
L 13.875143 32.641991 
L 13.560751 33.019234 
L 13.246358 33.396476 
L 12.927609 33.815688 
L 12.849556 34.411889 
L 12.935959 35.006171 
L 13.253619 35.257506 
L 13.571279 35.508841 
L 14.09097 35.739792 
L 14.610662 35.970742 
L 15.108571 36.180107 
L 15.60648 36.389473 
L 15.94574 36.807965 
L 16.285001 37.226457 
L 16.4294 37.691955 
L 16.573799 38.157452 
L 16.718198 38.62295 
L 16.862597 39.088447 
L 16.873398 39.438469 
L 16.884198 39.788492 
L 16.894999 40.138514 
L 16.905799 40.488536 
" style="fill:none;stroke:#4169e1;stroke-linecap:square;stroke-width:0.4;"/>
   </g>
   <g id="line2d_43">
    <path clip-path="url(#pdfc88f3da5)" d="M 25.256439 37.002942 
L 25.509478 37.139162 
L 26.03516 37.197679 
L 26.395476 37.197679 
L 26.755793 37.197679 
L 26.892296 37.431267 
L 26.911537 37.723372 
L 26.658499 37.995811 
L 26.307984 38.142103 
L 25.957469 38.288396 
L 25.529082 38.677389 
L 25.412183 39.066863 
L 25.431424 39.339782 
L 25.645618 39.495667 
L 25.97671 39.476002 
L 26.40546 39.300451 
L 27.009195 39.203562 
L 27.359529 39.223228 
L 27.496031 39.359447 
L 27.593326 39.612221 
L 27.456823 39.865475 
L 27.223207 40.108896 
L 26.989591 40.352317 
L 26.794639 40.87801 
L 26.833847 41.228632 
L 27.086886 41.442554 
L 27.398374 41.598919 
L 27.690621 41.744732 
L 27.982868 41.890545 
L 28.440479 42.289731 
L 28.898091 42.688917 
L 29.355703 43.088103 
L 29.813314 43.487289 
L 30.076246 43.837791 
L 30.339177 44.188293 
L 30.602109 44.538795 
L 30.86504 44.889297 
" style="fill:none;stroke:#008000;stroke-linecap:square;stroke-width:0.4;"/>
   </g>
   <g id="line2d_44">
    <path clip-path="url(#pdfc88f3da5)" d="M 28.080162 48.686663 
L 28.137613 49.120024 
L 28.195065 49.553385 
L 28.252516 49.986746 
L 28.309967 50.420107 
L 28.369324 50.867737 
L 28.428681 51.315368 
L 28.488038 51.762998 
L 28.547395 52.210629 
L 28.676455 52.831352 
L 28.805516 53.452075 
L 28.934576 54.072798 
L 29.063637 54.693522 
L 29.192698 55.314245 
L 29.321758 55.934968 
L 29.450819 56.555691 
L 29.57988 57.176414 
L 29.630977 57.517143 
L 29.682075 57.857873 
L 29.733173 58.198602 
L 29.784271 58.539331 
L 29.835369 58.88006 
L 29.886467 59.220789 
L 29.937565 59.561519 
L 29.988662 59.902248 
L 30.073886 60.303892 
L 30.15911 60.705537 
L 30.244333 61.107181 
L 30.329557 61.508826 
L 30.41478 61.91047 
L 30.500004 62.312114 
L 30.585227 62.713759 
L 30.670451 63.115403 
" style="fill:none;stroke:#008000;stroke-linecap:square;stroke-width:0.4;"/>
   </g>
   <g id="line2d_45">
    <path clip-path="url(#pdfc88f3da5)" d="M 57.078325 6.214882 
L 56.653206 6.675343 
L 56.291255 7.068174 
L 55.929305 7.461005 
L 55.548657 7.90228 
L 55.16801 8.343555 
L 55.072531 8.454354 
L 54.897183 8.824401 
L 54.721834 9.194449 
L 54.604936 9.710549 
L 54.488037 10.226649 
L 54.303068 10.684472 
L 54.118099 11.142295 
L 53.913617 11.507307 
L 53.709135 11.872318 
L 53.504653 12.237329 
L 53.300171 12.602341 
L 53.03969 12.972328 
L 52.779209 13.342316 
L 52.518728 13.712304 
L 52.258247 14.082291 
L 51.997766 14.452279 
L 51.737285 14.822267 
L 51.476804 15.192255 
L 51.216323 15.562242 
L 50.875519 15.98589 
L 50.534715 16.409539 
L 50.193912 16.833187 
L 49.853108 17.256835 
L 49.765434 17.714418 
L 49.67776 18.172001 
L 49.726589 18.512791 
L 49.775418 18.85358 
L 49.580465 19.30157 
L 49.172409 19.231542 
" style="fill:none;stroke:#008000;stroke-linecap:square;stroke-width:0.4;"/>
   </g>
   <g id="line2d_46">
    <path clip-path="url(#pdfc88f3da5)" d="M 26.833847 51.315128 
L 26.699159 51.889266 
L 26.564471 52.463403 
L 26.429784 53.03754 
L 26.295096 53.611678 
L 26.435093 54.234769 
L 26.57509 54.857861 
L 26.715088 55.480952 
L 26.855085 56.104043 
L 26.995082 56.727135 
L 27.135079 57.350226 
L 27.275076 57.973318 
L 27.415074 58.596409 
L 27.555071 59.2195 
L 27.695068 59.842592 
L 27.835065 60.465683 
L 27.975062 61.088775 
L 28.11506 61.711866 
L 28.255057 62.334957 
L 28.395054 62.958049 
L 28.535051 63.58114 
" style="fill:none;stroke:#008000;stroke-linecap:square;stroke-width:0.4;"/>
   </g>
   <g id="line2d_47">
    <path clip-path="url(#pdfc88f3da5)" d="M 41.627717 7.133406 
L 41.533689 7.545902 
L 41.439662 7.958399 
L 41.377582 8.588655 
L 41.315503 9.218911 
L 41.324397 9.795926 
L 41.333291 10.372942 
L 41.386477 10.95907 
L 41.439662 11.545199 
L 41.513359 12.172817 
L 41.587056 12.800435 
" style="fill:none;stroke:#4169e1;stroke-linecap:square;stroke-width:0.4;"/>
   </g>
   <g id="line2d_48">
    <path clip-path="url(#pdfc88f3da5)" d="M 59.45442 3.790266 
L 60.048354 3.668436 
L 60.311557 3.707767 
L 60.467301 3.868449 
L 60.467301 4.106833 
L 60.26763 4.511176 
L 60.027842 4.957247 
L 59.788054 5.403319 
L 59.548266 5.849391 
L 59.308479 6.295463 
L 59.068691 6.741534 
L 58.828903 7.187606 
L 58.589115 7.633678 
L 58.349328 8.079749 
L 58.037839 8.32293 
L 57.589848 8.478816 
" style="fill:none;stroke:#008000;stroke-linecap:square;stroke-width:0.4;"/>
   </g>
   <g id="line2d_49">
    <path clip-path="url(#pdfc88f3da5)" d="M 38.780396 43.645093 
L 39.356177 43.911297 
L 39.609579 44.183737 
L 39.534066 44.553545 
L 39.29918 45.047821 
L 39.064293 45.542097 
L 38.893891 46.032536 
L 38.723489 46.522975 
L 38.553088 47.013414 
L 38.382686 47.503853 
L 38.212284 47.994292 
L 38.041882 48.484731 
L 37.871481 48.97517 
L 37.701079 49.465609 
L 37.530677 49.956048 
L 37.360275 50.446487 
L 37.189873 50.936926 
L 37.019472 51.427365 
L 36.84907 51.917804 
L 36.678668 52.408244 
L 36.508266 52.898683 
L 36.337865 53.389122 
L 36.206263 53.963499 
L 36.074661 54.537876 
L 36.074661 55.17077 
L 36.074661 55.803665 
L 36.074661 56.436559 
L 36.074661 57.069453 
L 35.830017 57.383442 
L 35.585374 57.697431 
L 35.340731 58.01142 
L 35.096087 58.325408 
L 34.851444 58.639397 
L 34.6068 58.953386 
L 34.362157 59.267375 
L 34.117513 59.581364 
" style="fill:none;stroke:#008000;stroke-linecap:square;stroke-width:0.4;"/>
   </g>
  </g>
 </g>
 <defs>
  <clipPath id="pdfc88f3da5">
   <rect height="72" width="63.346697" x="0" y="0"/>
  </clipPath>
 </defs>
</svg>
