<?xml version="1.0" encoding="utf-8" standalone="no"?>
<!DOCTYPE svg PUBLIC "-//W3C//DTD SVG 1.1//EN"
  "http://www.w3.org/Graphics/SVG/1.1/DTD/svg11.dtd">
<svg height="42.125578pt" version="1.1" viewBox="0 0 72 42.125578" width="72pt" xmlns="http://www.w3.org/2000/svg" xmlns:xlink="http://www.w3.org/1999/xlink">
 <metadata>
  <rdf:RDF xmlns:cc="http://creativecommons.org/ns#" xmlns:dc="http://purl.org/dc/elements/1.1/" xmlns:rdf="http://www.w3.org/1999/02/22-rdf-syntax-ns#">
   <cc:Work>
    <dc:type rdf:resource="http://purl.org/dc/dcmitype/StillImage"/>
    <dc:date>2022-04-21T17:34:17.982244</dc:date>
    <dc:format>image/svg+xml</dc:format>
    <dc:creator>
     <cc:Agent>
      <dc:title>Matplotlib v3.4.3, https://matplotlib.org/</dc:title>
     </cc:Agent>
    </dc:creator>
   </cc:Work>
  </rdf:RDF>
 </metadata>
 <defs>
  <style type="text/css">*{stroke-linecap:butt;stroke-linejoin:round;}</style>
 </defs>
 <g id="figure_1">
  <g id="patch_1">
   <path d="M 0 42.125578 
L 72 42.125578 
L 72 0 
L 0 0 
z
" style="fill:#ffffff;"/>
  </g>
  <g id="axes_1">
   <g id="line2d_1">
    <path clip-path="url(#pc566fbaa23)" d="M 42.880557 39.222205 
L 45.65888 35.567886 
L 48.437202 31.913567 
L 51.919402 27.323258 
L 54.303526 24.14069 
L 56.68765 20.958123 
L 58.6627 18.393038 
L 60.63775 15.827954 
L 62.559383 13.303934 
L 64.481017 10.779915 
L 66.402651 8.255896 
L 68.324284 5.731877 
" style="fill:none;stroke:#808080;stroke-linecap:square;stroke-width:0.4;"/>
   </g>
   <g id="line2d_2">
    <path clip-path="url(#pc566fbaa23)" d="M 5.96653 23.385989 
L 11.290578 23.653414 
L 16.614625 23.92084 
" style="fill:none;stroke:#808080;stroke-linecap:square;stroke-width:0.4;"/>
   </g>
   <g id="line2d_3">
    <path clip-path="url(#pc566fbaa23)" d="M 23.254471 38.984827 
L 19.089354 37.708795 
" style="fill:none;stroke:#808080;stroke-linecap:square;stroke-width:0.4;"/>
   </g>
   <g id="line2d_4">
    <path clip-path="url(#pc566fbaa23)" d="M 8.726597 34.956413 
L 9.330403 31.787366 
L 9.93421 28.61832 
" style="fill:none;stroke:#808080;stroke-linecap:square;stroke-width:0.4;"/>
   </g>
   <g id="line2d_5">
    <path clip-path="url(#pc566fbaa23)" d="M 30.816593 24.899398 
L 30.857838 26.241035 
L 30.899084 27.582671 
L 31.06677 28.516157 
L 31.234457 29.449644 
L 31.513709 30.896949 
L 31.792961 32.344253 
L 31.792961 33.450515 
L 31.792961 34.556776 
L 32.020149 35.524317 
L 32.540113 36.519902 
L 33.060076 37.515488 
" style="fill:none;stroke:#4169e1;stroke-linecap:square;stroke-width:0.4;"/>
   </g>
   <g id="line2d_6">
    <path clip-path="url(#pc566fbaa23)" d="M 68.324284 5.731877 
L 68.601508 5.357281 
L 68.727273 5.070824 
L 68.688056 4.861491 
L 68.504141 4.689217 
L 68.21069 4.543986 
L 67.873965 4.468866 
L 67.527773 4.398754 
L 67.053112 4.324636 
L 66.39048 4.217466 
L 65.657527 4.052202 
L 65.057101 3.903966 
L 64.678454 3.790786 
L 64.042868 4.816419 
L 63.450556 5.598665 
L 62.413334 6.747494 
L 61.159742 7.968939 
L 59.90615 9.190384 
L 58.652558 10.411829 
L 57.398965 11.633274 
L 56.619865 12.582661 
L 55.840765 13.532048 
L 55.061665 14.481434 
L 54.282565 15.430821 
L 53.503465 16.380208 
L 52.724365 17.329595 
L 51.945265 18.278981 
L 51.166165 19.228368 
L 50.520437 20.103762 
L 49.874708 20.979156 
L 49.251969 21.823125 
L 48.62923 22.667094 
L 48.006491 23.511063 
L 47.383752 24.355032 
L 46.761013 25.199 
L 46.138274 26.042969 
L 45.515535 26.886938 
L 44.892796 27.730907 
L 43.90189 29.185974 
L 42.910984 30.641041 
L 41.920078 32.096108 
L 40.929173 33.551175 
L 40.20501 34.598092 
L 39.480848 35.645009 
L 38.756685 36.691926 
L 38.032523 37.738843 
L 37.135941 39.265274 
" style="fill:none;stroke:#4169e1;stroke-linecap:square;stroke-width:0.4;"/>
   </g>
   <g id="line2d_7">
    <path clip-path="url(#pc566fbaa23)" d="M 64.678454 3.790786 
L 63.829203 3.450244 
L 63.359951 3.256936 
L 62.678387 2.953453 
L 62.199669 2.67501 
L 61.762872 2.385549 
L 61.308496 2.165198 
L 60.768924 1.978901 
L 60.063018 1.914799 
L 59.427432 1.944847 
L 59.037966 1.970888 
L 58.609284 2.088075 
L 58.069712 2.276375 
L 57.323236 2.587871 
L 56.501031 2.939431 
L 55.06082 3.662582 
L 54.233206 4.091265 
L 53.408296 4.431807 
L 52.434633 4.841459 
L 52.022178 5.000713 
L 51.02282 5.26914 
L 50.338551 5.415373 
L 49.635349 5.467456 
L 48.456134 5.510525 
L 47.73941 5.406359 
L 46.776564 5.224069 
L 45.905676 4.982684 
L 45.176781 4.701236 
L 44.587173 4.449836 
L 43.974577 4.140343 
L 43.535076 3.871915 
L 43.080699 3.630531 
L 42.658778 3.445236 
L 42.097569 3.354091 
L 41.620204 3.310021 
L 41.257784 3.370116 
L 40.833159 3.508336 
L 40.276007 3.695635 
L 39.691808 3.913982 
L 39.052165 4.312617 
L 38.582914 4.801395 
L 38.004125 5.567616 
L 37.34014 6.634314 
L 36.856013 7.513714 
L 36.488184 8.235864 
L 36.247473 8.921957 
L 36.109537 10.008687 
L 36.025694 10.87106 
L 36.037865 12.099016 
L 35.991548 13.16296 
L 35.945231 14.226904 
L 35.898915 15.290848 
L 35.852598 16.354792 
L 35.594645 17.252472 
L 35.336692 18.150151 
L 35.078738 19.047831 
L 34.820785 19.94551 
L 34.015484 21.246081 
L 33.210183 22.546652 
L 32.013388 23.723025 
L 30.816593 24.899398 
L 29.896007 25.388928 
L 28.975422 25.878457 
L 28.054836 26.367987 
L 27.134251 26.857516 
L 25.630481 27.796512 
L 24.126712 28.735507 
L 23.542513 29.213268 
L 23.035397 29.695035 
L 22.555326 30.278964 
L 22.287569 30.66558 
L 22.092836 31.028157 
L 21.99547 31.358684 
L 21.957605 31.786365 
L 22.084722 32.288164 
L 22.444437 32.844049 
L 22.821732 33.240681 
L 23.139525 33.513114 
L 23.784577 34.106059 
L 24.324149 34.588827 
L 24.81639 35.078607 
L 25.67646 35.864859 
L 26.114608 36.225433 
L 26.99902 36.668138 
" style="fill:none;stroke:#4169e1;stroke-linecap:square;stroke-width:0.4;"/>
   </g>
   <g id="line2d_8">
    <path clip-path="url(#pc566fbaa23)" d="M 14.352209 28.214677 
L 14.720038 29.389548 
L 14.667974 30.30751 
L 14.61591 31.225472 
L 14.65107 32.296677 
L 14.68623 33.367883 
L 15.301531 34.978448 
L 16.02637 35.73966 
" style="fill:none;stroke:#008000;stroke-linecap:square;stroke-width:0.4;"/>
   </g>
   <g id="line2d_9">
    <path clip-path="url(#pc566fbaa23)" d="M 37.135941 39.265274 
L 37.728253 39.523685 
L 38.271882 39.76507 
L 39.050813 40.049523 
L 39.556577 40.182735 
L 39.939281 40.210779 
L 40.370668 40.185739 
L 40.799351 40.100604 
L 41.364617 39.970397 
L 41.93394 39.826167 
L 42.432942 39.677931 
L 42.637141 39.548725 
L 42.880557 39.222205 
" style="fill:none;stroke:#008000;stroke-linecap:square;stroke-width:0.4;"/>
   </g>
   <g id="line2d_10">
    <path clip-path="url(#pc566fbaa23)" d="M 16.02637 35.73966 
L 16.657899 36.11025 
L 17.526083 36.432763 
L 18.394266 36.725229 
L 19.128571 36.898505 
L 20.264512 36.930556 
L 21.679029 36.8955 
L 22.894756 36.834403 
L 23.980662 36.840413 
L 25.199094 36.860444 
L 26.424288 36.733242 
L 26.99902 36.668138 
L 27.055817 36.673146 
L 27.466919 36.73224 
L 28.020014 36.793338 
L 28.861151 36.849427 
L 29.841577 36.916534 
L 30.547483 36.972623 
L 31.337232 37.062767 
L 32.135096 37.207998 
L 33.060076 37.515488 
L 34.556408 38.132971 
L 36.05274 38.750454 
L 37.135941 39.265274 
" style="fill:none;stroke:#008000;stroke-linecap:square;stroke-width:0.4;"/>
   </g>
   <g id="line2d_11">
    <path clip-path="url(#pc566fbaa23)" d="M 36.247473 8.921957 
L 36.871564 9.71522 
L 37.495656 10.508483 
L 38.302985 10.993255 
L 39.110315 11.478027 
L 40.564049 12.228973 
L 42.017783 12.979918 
L 43.471517 13.730864 
L 44.925251 14.48181 
L 45.829271 15.370225 
L 46.733291 16.258639 
L 47.412151 17.179606 
L 48.091011 18.100572 
L 48.982859 19.539864 
L 49.874708 20.979156 
" style="fill:none;stroke:#008000;stroke-linecap:square;stroke-width:0.4;"/>
   </g>
   <g id="line2d_12">
    <path clip-path="url(#pc566fbaa23)" d="M 36.247473 8.921957 
L 35.23324 8.908936 
L 34.206498 9.275269 
L 33.179756 9.641603 
L 32.153014 10.007936 
L 31.126272 10.374269 
L 30.09953 10.740603 
L 29.072788 11.106936 
L 28.046046 11.473269 
L 27.019304 11.839603 
L 26.018594 12.087247 
L 25.017884 12.334891 
L 24.017174 12.582536 
L 23.016464 12.83018 
L 21.922445 13.088091 
L 20.828426 13.346001 
L 19.734406 13.603912 
L 18.640387 13.861823 
L 17.608574 14.135258 
L 16.576761 14.408694 
L 15.544947 14.682129 
L 14.513134 14.955564 
L 13.481321 15.229 
L 12.449508 15.502435 
L 11.417695 15.775871 
L 10.385882 16.049306 
L 8.961899 16.606694 
L 7.537915 17.164081 
L 6.402651 17.8041 
L 5.267386 18.444119 
L 4.442476 19.310499 
L 4.029345 20.197912 
L 3.616214 21.085325 
L 3.305183 22.182071 
L 3.272727 23.038435 
L 3.39714 23.6444 
L 3.770378 24.083099 
L 4.293722 24.615947 
L 5.253863 24.984534 
L 6.214003 25.353121 
L 7.537239 25.789315 
L 8.860475 26.22551 
L 10.06606 26.611124 
L 11.271645 26.996738 
L 12.451537 27.340285 
L 13.631428 27.683832 
L 14.352209 28.214677 
" style="fill:none;stroke:#008000;stroke-linecap:square;stroke-width:0.4;"/>
   </g>
   <g id="line2d_13">
    <path clip-path="url(#pc566fbaa23)" d="M 58.609284 2.088075 
L 58.629568 2.310429 
L 57.994996 3.168545 
L 57.360425 4.026662 
L 56.725853 4.884778 
L 56.091281 5.742895 
L 55.257581 6.451022 
L 54.423882 7.15915 
L 53.590182 7.867277 
L 52.756483 8.575405 
L 51.340613 9.557469 
L 49.924744 10.539533 
L 48.987593 11.041832 
L 48.050441 11.544132 
L 47.000372 11.681351 
L 45.950303 11.818569 
L 44.715643 11.133478 
L 44.053687 10.448387 
L 43.391731 9.763297 
L 42.066466 9.442786 
L 40.879137 10.127877 
L 39.994726 10.802952 
L 39.110315 11.478027 
" style="fill:none;stroke:#008000;stroke-linecap:square;stroke-width:0.4;"/>
   </g>
  </g>
 </g>
 <defs>
  <clipPath id="pc566fbaa23">
   <rect height="42.125578" width="72" x="0" y="0"/>
  </clipPath>
 </defs>
</svg>
