<?xml version="1.0" encoding="utf-8" standalone="no"?>
<!DOCTYPE svg PUBLIC "-//W3C//DTD SVG 1.1//EN"
  "http://www.w3.org/Graphics/SVG/1.1/DTD/svg11.dtd">
<svg height="82.140608pt" version="1.1" viewBox="0 0 72 82.140608" width="72pt" xmlns="http://www.w3.org/2000/svg" xmlns:xlink="http://www.w3.org/1999/xlink">
 <metadata>
  <rdf:RDF xmlns:cc="http://creativecommons.org/ns#" xmlns:dc="http://purl.org/dc/elements/1.1/" xmlns:rdf="http://www.w3.org/1999/02/22-rdf-syntax-ns#">
   <cc:Work>
    <dc:type rdf:resource="http://purl.org/dc/dcmitype/StillImage"/>
    <dc:date>2022-04-19T00:37:02.738569</dc:date>
    <dc:format>image/svg+xml</dc:format>
    <dc:creator>
     <cc:Agent>
      <dc:title>Matplotlib v3.4.3, https://matplotlib.org/</dc:title>
     </cc:Agent>
    </dc:creator>
   </cc:Work>
  </rdf:RDF>
 </metadata>
 <defs>
  <style type="text/css">*{stroke-linecap:butt;stroke-linejoin:round;}</style>
 </defs>
 <g id="figure_1">
  <g id="patch_1">
   <path d="M 0 82.140608 
L 72 82.140608 
L 72 0 
L 0 0 
z
" style="fill:#ffffff;"/>
  </g>
  <g id="axes_1">
   <g id="line2d_1">
    <path clip-path="url(#p65aff20497)" d="M 41.669058 16.15291 
L 41.286012 17.062277 
L 40.902967 17.971645 
L 40.519921 18.881013 
L 40.136876 19.790381 
L 39.753831 20.699749 
L 39.370785 21.609116 
L 38.98774 22.518484 
L 38.604694 23.427852 
L 38.221649 24.33722 
L 37.838603 25.246587 
L 37.455558 26.155955 
L 37.072513 27.065323 
L 36.689467 27.974691 
L 36.306422 28.884059 
L 35.923376 29.793426 
L 35.540331 30.702794 
L 35.157285 31.612162 
L 34.77424 32.52153 
L 34.391194 33.430897 
L 34.008149 34.340265 
L 33.625104 35.249633 
L 33.242058 36.159001 
L 32.859013 37.068368 
L 32.475967 37.977736 
L 32.092922 38.887104 
L 31.709876 39.796472 
L 31.326831 40.70584 
L 30.943786 41.615207 
L 30.56074 42.524575 
L 30.177695 43.433943 
L 29.794649 44.343311 
L 29.411604 45.252678 
" style="fill:none;stroke:#808080;stroke-linecap:square;stroke-width:0.4;"/>
   </g>
   <g id="line2d_2">
    <path clip-path="url(#p65aff20497)" d="M 46.306714 59.688204 
L 46.948721 59.599268 
L 47.590728 59.510332 
L 48.175526 59.429899 
L 48.729719 59.353546 
L 49.355422 59.267544 
L 49.981125 59.181541 
L 50.606829 59.095538 
L 51.232532 59.009536 
L 51.766773 58.936032 
L 52.301013 58.862528 
L 52.835253 58.789024 
L 53.369494 58.71552 
L 54.339449 58.582201 
L 55.18298 58.466227 
L 55.574494 58.412321 
L 56.54798 58.278492 
L 56.792117 58.244992 
L 57.419527 58.158692 
L 58.046937 58.072391 
L 58.602837 57.995954 
L 59.158737 57.919517 
L 59.714636 57.843079 
L 60.270536 57.766642 
L 60.928551 57.676175 
L 61.908394 57.541496 
L 62.888237 57.406816 
L 63.420065 57.333695 
L 63.951892 57.260574 
L 64.079493 57.243059 
L 64.303383 57.21228 
L 64.841861 57.138265 
L 65.380339 57.064251 
L 65.918817 56.990237 
L 66.457295 56.916223 
L 66.689661 56.884254 
L 67.375574 56.790216 
L 68.061488 56.696178 
" style="fill:none;stroke:#808080;stroke-linecap:square;stroke-width:0.4;"/>
   </g>
   <g id="line2d_3">
    <path clip-path="url(#p65aff20497)" d="M 47.57001 70.374813 
L 48.476871 69.950028 
L 49.114758 69.651506 
L 49.752644 69.352984 
L 50.332381 69.081627 
L 50.912117 68.81027 
L 51.491854 68.538913 
L 52.07159 68.267556 
L 52.99964 67.833079 
L 53.881545 67.420368 
L 54.763451 67.007657 
L 55.460371 66.681459 
L 56.157291 66.355261 
L 56.85421 66.029063 
L 57.55113 65.702865 
L 58.273417 65.364849 
L 58.995704 65.026832 
L 59.717991 64.688816 
L 60.440278 64.350799 
L 61.039437 64.070387 
L 61.638596 63.789975 
L 62.27354 63.492813 
L 62.908484 63.195651 
L 63.426362 62.953288 
L 63.944241 62.710924 
L 64.462119 62.468561 
L 64.979997 62.226197 
L 65.80287 61.841077 
L 66.625743 61.455957 
L 67.448615 61.070837 
L 68.271488 60.685716 
L 68.727273 60.472814 
" style="fill:none;stroke:#808080;stroke-linecap:square;stroke-width:0.4;"/>
   </g>
   <g id="line2d_4">
    <path clip-path="url(#p65aff20497)" d="M 47.104808 68.705434 
L 46.302123 68.617348 
L 45.499439 68.529263 
L 44.749254 68.447299 
L 43.999069 68.365335 
L 43.236524 68.28201 
L 42.645487 68.217476 
L 42.05445 68.152942 
L 41.23352 68.063156 
L 40.412589 67.97337 
L 39.36306 67.858671 
L 38.313531 67.743973 
L 37.398666 67.643813 
L 36.68968 67.566356 
L 35.980695 67.488898 
L 35.634383 67.450977 
L 34.625465 67.3407 
L 33.616547 67.230422 
L 32.911446 67.153305 
L 32.206346 67.076187 
L 31.237097 66.970246 
L 30.206166 66.857503 
L 29.175236 66.74476 
L 28.527108 66.673849 
L 28.125707 66.630147 
" style="fill:none;stroke:#808080;stroke-linecap:square;stroke-width:0.4;"/>
   </g>
   <g id="line2d_5">
    <path clip-path="url(#p65aff20497)" d="M 47.715974 71.688617 
L 48.101837 71.838091 
L 48.909466 72.153789 
L 49.717095 72.469486 
L 50.375817 72.726941 
L 51.034539 72.984397 
L 51.368373 73.114995 
L 51.619573 73.213284 
L 52.340211 73.494886 
" style="fill:none;stroke:#808080;stroke-linecap:square;stroke-width:0.4;"/>
   </g>
   <g id="line2d_6">
    <path clip-path="url(#p65aff20497)" d="M 16.549105 78.406944 
L 17.25091 78.018721 
L 17.800394 77.715607 
L 18.349878 77.412493 
L 18.950685 77.081066 
L 19.551493 76.749639 
L 20.221986 76.379781 
L 20.892479 76.009922 
L 21.745074 75.539565 
L 22.597669 75.069207 
L 23.308656 74.676987 
L 24.019642 74.284767 
L 24.925208 73.785161 
L 25.830774 73.285555 
L 26.392913 72.975469 
L 26.955051 72.665383 
L 27.51719 72.355298 
L 28.079328 72.045212 
L 28.493678 71.816835 
L 28.698263 71.703922 
L 29.215494 71.419429 
" style="fill:none;stroke:#808080;stroke-linecap:square;stroke-width:0.4;"/>
   </g>
   <g id="line2d_7">
    <path clip-path="url(#p65aff20497)" d="M 3.272727 61.188894 
L 4.012531 60.892901 
L 4.752335 60.596908 
L 5.49214 60.300915 
L 6.231944 60.004922 
L 6.971748 59.708929 
L 7.711552 59.412936 
L 8.451356 59.116943 
L 9.19116 58.82095 
L 9.930964 58.524958 
L 10.670768 58.228965 
L 11.410572 57.932972 
L 12.150376 57.636979 
L 12.89018 57.340986 
L 13.629985 57.044993 
L 14.369789 56.749 
L 15.109593 56.453007 
L 15.849397 56.157014 
L 16.589201 55.861021 
L 17.329005 55.565029 
L 18.068809 55.269036 
L 18.808613 54.973043 
L 19.548417 54.67705 
L 20.288221 54.381057 
L 21.028026 54.085064 
L 21.76783 53.789071 
L 22.507634 53.493078 
L 23.247438 53.197085 
L 23.987242 52.901092 
L 24.727046 52.6051 
L 25.46685 52.309107 
L 26.206654 52.013114 
L 26.946458 51.717121 
L 27.259339 51.596896 
" style="fill:none;stroke:#808080;stroke-linecap:square;stroke-width:0.4;"/>
   </g>
   <g id="line2d_8">
    <path clip-path="url(#p65aff20497)" d="M 48.531254 72.10609 
L 48.969029 72.566754 
L 49.406804 73.027419 
" style="fill:none;stroke:#808080;stroke-linecap:square;stroke-width:0.4;"/>
   </g>
   <g id="line2d_9">
    <path clip-path="url(#p65aff20497)" d="M 48.709236 73.068401 
L 49.155016 73.524517 
L 49.600795 73.980633 
L 50.046574 74.436749 
L 50.492353 74.892865 
" style="fill:none;stroke:#808080;stroke-linecap:square;stroke-width:0.4;"/>
   </g>
   <g id="line2d_10">
    <path clip-path="url(#p65aff20497)" d="M 38.625471 63.132053 
L 38.850302 63.02152 
L 39.075134 62.910988 
L 39.330571 62.74689 
L 39.586009 62.582792 
L 39.704899 62.40679 
L 39.823789 62.230789 
L 40.019192 62.050536 
L 40.315829 61.952757 
L 40.612466 61.854979 
L 40.897331 61.79206 
L 41.182197 61.729142 
L 41.426451 61.716388 
L 41.670706 61.703634 
L 41.91496 61.690881 
L 42.159215 61.678127 
L 42.336961 61.629663 
L 42.514708 61.581199 
L 42.633598 61.470666 
L 42.752488 61.360134 
L 42.960134 61.220353 
L 43.16778 61.080572 
L 43.32269 60.976331 
L 43.4776 60.872091 
L 43.657701 60.676534 
L 43.837802 60.480976 
L 43.881356 60.258211 
L 43.92491 60.035446 
L 43.942567 59.827985 
L 43.960223 59.620525 
L 44.073228 59.430069 
L 44.339259 59.362049 
L 44.537017 59.39946 
L 44.734775 59.436871 
L 44.883682 59.517219 
L 45.032589 59.597568 
L 45.181496 59.677916 
L 45.330403 59.758265 
L 45.48343 59.819483 
L 45.692959 59.984431 
L 45.784775 60.147679 
L 45.810672 60.370444 
L 45.748284 60.521788 
L 45.685896 60.673133 
L 45.567006 60.864439 
L 45.448116 61.055745 
L 45.405739 61.21049 
L 45.41751 61.38054 
L 45.429282 61.55059 
" style="fill:none;stroke:#008000;stroke-linecap:square;stroke-width:0.4;"/>
   </g>
   <g id="line2d_11">
    <path clip-path="url(#p65aff20497)" d="M 28.539586 66.407551 
L 28.626811 66.629296 
L 28.714037 66.851041 
L 28.808796 67.064879 
L 28.903554 67.278716 
L 28.998313 67.492554 
L 29.093072 67.706392 
L 29.236682 67.856035 
L 29.359104 68.082202 
L 29.481525 68.308368 
L 29.592175 68.493722 
L 29.702826 68.679076 
L 29.796996 68.835522 
L 29.891166 68.991968 
L 30.066559 69.247043 
L 30.241951 69.502117 
L 30.364373 69.631355 
L 30.486794 69.760593 
L 30.625696 69.597345 
L 30.609216 69.313362 
L 30.479731 69.029379 
L 30.45148 68.805763 
L 30.423229 68.582148 
L 30.503274 68.299015 
L 30.583319 68.015882 
L 30.676312 67.834779 
L 30.769305 67.653676 
L 30.955292 67.514235 
L 31.190718 67.313577 
L 31.287243 67.152029 
L 31.393184 67.001535 
L 31.499126 66.851041 
L 31.679227 66.67589 
L 31.859328 66.500739 
L 32.134776 66.381704 
L 32.358431 66.374052 
L 32.582086 66.366399 
L 32.848117 66.328988 
L 33.011738 66.260118 
L 33.175359 66.191248 
L 33.276592 66.06031 
L 33.309552 65.827342 
L 33.271884 65.58417 
L 33.151816 65.420923 
L 33.09296 65.247472 
L 33.208319 64.985595 
L 33.429619 64.765381 
L 33.65092 64.545166 
L 33.88046 64.410827 
L 34.11 64.276488 
L 34.248902 64.120892 
L 34.387803 63.965296 
L 34.460785 63.788445 
L 34.533767 63.611593 
L 34.649126 63.400731 
L 34.853946 63.169463 
L 35.068184 63.070835 
L 35.267119 63.027472 
L 35.466054 62.984109 
L 35.712663 62.98666 
L 35.959271 62.989211 
L 36.20588 62.991761 
L 36.452489 62.994312 
L 36.627293 63.013868 
L 36.802096 63.033424 
L 36.9769 63.052979 
L 37.151704 63.072535 
L 37.324742 63.086989 
L 37.49778 63.101444 
L 37.670818 63.115898 
L 37.843856 63.130352 
L 38.147556 63.174565 
L 38.380628 63.167763 
L 38.625471 63.132053 
" style="fill:none;stroke:#008000;stroke-linecap:square;stroke-width:0.4;"/>
   </g>
   <g id="line2d_12">
    <path clip-path="url(#p65aff20497)" d="M 54.634438 23.285988 
L 54.548507 23.015184 
L 54.462577 22.744379 
L 54.376646 22.473575 
L 54.290716 22.202771 
L 54.25599 22.022518 
L 54.221265 21.842265 
L 54.18654 21.662012 
L 54.151814 21.48176 
L 54.148283 21.256444 
L 54.144752 21.031128 
L 54.163586 20.845773 
L 54.18242 20.660419 
L 54.20714 20.475915 
L 54.231859 20.291411 
L 54.16594 20.077148 
L 54.067061 19.884992 
L 53.950525 19.728972 
L 53.833989 19.572951 
L 53.717454 19.41693 
L 53.600918 19.26091 
L 53.405514 19.044946 
L 53.21011 18.828983 
L 53.066501 18.568807 
L 52.922891 18.308631 
L 52.812241 18.119025 
L 52.70159 17.92942 
L 52.59094 17.739814 
L 52.48029 17.550209 
L 52.35316 17.409067 
L 52.22603 17.267926 
L 52.0989 17.126785 
L 51.97177 16.985643 
L 51.865828 16.795188 
L 51.759886 16.604732 
L 51.653945 16.414276 
L 51.548003 16.22382 
L 51.45089 16.079703 
L 51.353777 15.935586 
L 51.256663 15.791469 
L 51.15955 15.647352 
L 51.084214 15.365069 
L 51.008878 15.082786 
L 50.974152 14.877451 
L 50.939427 14.672116 
L 50.904702 14.466781 
L 50.869976 14.261446 
L 50.787577 14.077792 
L 50.705178 13.894138 
L 50.622779 13.710485 
L 50.54038 13.526831 
L 50.396711 13.402397 
L 50.253042 13.277963 
L 50.109374 13.153529 
L 49.965705 13.029095 
L 49.804674 12.965837 
L 49.643642 12.902578 
L 49.482611 12.83932 
L 49.321579 12.776061 
L 49.130296 12.702557 
L 48.939012 12.629053 
L 48.747729 12.555549 
L 48.556445 12.482045 
L 48.45274 12.341882 
L 48.349035 12.201718 
L 48.24533 12.061554 
L 48.141624 11.921391 
" style="fill:none;stroke:#008000;stroke-linecap:square;stroke-width:0.4;"/>
   </g>
   <g id="line2d_13">
    <path clip-path="url(#p65aff20497)" d="M 21.646548 52.097522 
L 21.63925 52.407183 
L 21.526363 52.701284 
L 21.413477 52.995385 
L 21.313421 53.157783 
L 21.213365 53.32018 
L 21.113309 53.482578 
L 21.013253 53.644975 
L 20.905074 53.836451 
L 20.796896 54.027927 
L 20.688718 54.219403 
L 20.58054 54.410879 
L 20.400321 54.571832 
L 20.220102 54.732784 
L 20.039884 54.893736 
L 19.859665 55.054688 
L 19.69369 55.260023 
L 19.527715 55.465358 
L 19.361739 55.670693 
L 19.195764 55.876028 
L 19.029789 56.081363 
L 18.863813 56.286699 
L 18.697838 56.492034 
L 18.531863 56.697369 
L 18.431218 56.905255 
L 18.330573 57.113141 
L 18.229929 57.321026 
L 18.129284 57.528912 
L 18.068073 57.756779 
L 18.006863 57.984646 
L 17.997446 58.225266 
L 17.988029 58.465887 
L 18.07749 58.754121 
L 18.166952 59.042355 
L 18.197852 59.207516 
L 18.228752 59.372677 
L 18.259651 59.537838 
L 18.290551 59.702999 
L 18.321451 59.86816 
L 18.35235 60.03332 
L 18.38325 60.198481 
L 18.41415 60.363642 
L 18.453878 60.632448 
L 18.493606 60.901254 
L 18.533334 61.170061 
L 18.573062 61.438867 
L 18.611437 61.599054 
L 18.649811 61.759241 
L 18.670882 62.037867 
L 18.691952 62.316494 
L 18.788477 62.495726 
L 18.885002 62.674959 
L 18.981526 62.854191 
L 19.078051 63.033424 
L 19.24638 63.204324 
L 19.41471 63.375224 
L 19.557731 63.458548 
L 19.700753 63.541872 
L 19.843774 63.625197 
L 19.986795 63.708521 
L 20.146885 63.757836 
L 20.306975 63.80715 
L 20.564766 63.886223 
L 20.822557 63.965296 
L 21.132731 64.020988 
L 21.442905 64.076679 
L 21.753079 64.13237 
L 22.063252 64.188062 
L 22.220841 64.246984 
L 22.378429 64.305906 
L 22.536017 64.364828 
L 22.693606 64.423751 
L 22.851194 64.482673 
L 23.008782 64.541595 
L 23.16637 64.600517 
L 23.323959 64.65944 
L 23.605705 64.763085 
L 23.887451 64.86673 
L 24.169197 64.970376 
L 24.450943 65.074021 
L 24.704967 65.148843 
L 24.958992 65.223665 
L 25.173877 65.30193 
L 25.388762 65.380196 
L 25.603647 65.458461 
L 25.818532 65.536726 
L 25.994278 65.605086 
L 26.170023 65.673447 
L 26.345769 65.741807 
L 26.521514 65.810167 
L 26.769418 65.927161 
L 27.017321 66.044155 
L 27.276525 66.16285 
L 27.511834 66.296169 
L 27.747142 66.429488 
L 27.953611 66.423791 
L 28.160079 66.418094 
L 28.349833 66.412823 
L 28.539586 66.407551 
" style="fill:none;stroke:#008000;stroke-linecap:square;stroke-width:0.4;"/>
   </g>
   <g id="line2d_14">
    <path clip-path="url(#p65aff20497)" d="M 19.760786 42.176818 
L 19.929999 42.026324 
L 20.099211 41.87583 
L 20.268424 41.725336 
L 20.437636 41.574842 
L 20.606848 41.424348 
L 20.776061 41.273854 
L 20.945273 41.12336 
L 21.114486 40.972866 
L 21.323132 40.745211 
L 21.531778 40.517557 
L 21.740425 40.289903 
L 21.949071 40.062249 
L 22.157717 39.834595 
L 22.366363 39.606941 
L 22.57501 39.379287 
L 22.783656 39.151632 
L 22.899898 39.020694 
L 23.016139 38.889756 
L 23.132381 38.758817 
L 23.248622 38.627879 
L 23.364864 38.496941 
L 23.481105 38.366002 
L 23.597347 38.235064 
L 23.713589 38.104126 
L 23.921941 37.87796 
L 24.130293 37.651793 
L 24.338645 37.425627 
L 24.546997 37.199461 
L 24.770651 37.071924 
L 24.994306 36.944386 
L 25.147333 36.776037 
L 25.30036 36.607688 
L 25.414541 36.380671 
L 25.528723 36.153655 
L 25.579928 35.968301 
L 25.631133 35.782946 
L 25.682338 35.597592 
L 25.733544 35.412238 
L 25.755909 35.132081 
L 25.778274 34.851924 
L 25.80064 34.571767 
L 25.823005 34.29161 
L 25.784572 34.014981 
L 25.746139 33.738353 
L 25.707706 33.461724 
L 25.669272 33.185096 
" style="fill:none;stroke:#008000;stroke-linecap:square;stroke-width:0.4;"/>
   </g>
   <g id="line2d_15">
    <path clip-path="url(#p65aff20497)" d="M 64.644515 57.216191 
L 64.571769 57.343558 
L 64.305737 57.508506 
L 64.137408 57.601183 
L 63.969078 57.693861 
L 63.815463 57.754653 
L 63.661847 57.815446 
L 63.508232 57.876239 
L 63.354616 57.937032 
L 63.17915 57.985815 
L 63.003684 58.034598 
L 62.828218 58.083381 
L 62.652753 58.132164 
L 62.477287 58.180947 
L 62.301821 58.22973 
L 62.126355 58.278513 
L 61.950889 58.327296 
L 61.775423 58.376079 
L 61.599957 58.424862 
L 61.424491 58.473645 
L 61.249025 58.522428 
L 61.073559 58.571211 
L 60.898093 58.619994 
L 60.722627 58.668777 
L 60.547161 58.71756 
L 60.371695 58.766343 
L 60.19623 58.815126 
L 60.020764 58.863909 
L 59.845298 58.912692 
L 59.669832 58.961475 
L 59.494366 59.010258 
L 59.3189 59.059041 
L 59.143434 59.107824 
L 58.967968 59.156607 
L 58.792502 59.205391 
L 58.617036 59.254174 
L 58.44157 59.302957 
L 58.266104 59.35174 
L 58.090638 59.400523 
L 57.915172 59.449306 
L 57.739706 59.498089 
L 57.527823 59.536137 
L 57.31594 59.574186 
L 57.104056 59.612235 
L 56.892173 59.650283 
L 56.68029 59.688332 
L 56.468406 59.726381 
L 56.256523 59.764429 
L 56.044639 59.802478 
L 55.87525 59.852983 
L 55.705861 59.903487 
L 55.489799 59.967936 
L 55.273737 60.032385 
L 55.057675 60.096834 
L 54.841613 60.161283 
L 54.642089 60.248221 
L 54.442566 60.335159 
L 54.243042 60.422097 
L 54.043518 60.509035 
L 53.843995 60.595973 
L 53.644471 60.682911 
L 53.444948 60.769849 
L 53.245424 60.856786 
L 53.094457 60.91184 
L 52.943491 60.966894 
L 52.792524 61.021947 
L 52.641557 61.077001 
L 52.49059 61.132055 
L 52.339623 61.187108 
L 52.188656 61.242162 
L 52.037689 61.297215 
L 51.777543 61.391593 
L 51.517398 61.485971 
L 51.316697 61.579073 
L 51.115996 61.672175 
L 50.915296 61.765277 
L 50.714595 61.85838 
L 50.563922 61.931926 
L 50.41325 62.005473 
L 50.262577 62.079019 
L 50.111905 62.152566 
L 49.961232 62.226112 
L 49.810559 62.299659 
L 49.659887 62.373205 
L 49.509214 62.446752 
L 49.268491 62.559835 
L 49.027768 62.672918 
L 48.787045 62.786001 
L 48.546322 62.899084 
L 48.355627 63.007066 
L 48.164932 63.115048 
L 47.974237 63.223029 
L 47.783542 63.331011 
L 47.592846 63.438992 
L 47.402151 63.546974 
L 47.211456 63.654956 
L 47.020761 63.762937 
L 46.85302 63.844561 
L 46.685279 63.926185 
L 46.517538 64.007809 
L 46.349797 64.089433 
L 46.279169 64.106438 
L 46.210719 64.290145 
L 46.142269 64.473852 
L 46.073819 64.657558 
L 46.005369 64.841265 
L 45.936919 65.024972 
L 45.868469 65.208679 
L 45.800019 65.392386 
L 45.731569 65.576093 
L 45.663118 65.7598 
L 45.594668 65.943507 
L 45.526218 66.127214 
L 45.457768 66.310921 
L 45.389318 66.494628 
L 45.320868 66.678334 
L 45.252418 66.862041 
L 45.183968 67.045748 
L 45.137353 67.170735 
L 45.032589 67.407954 
L 44.927824 67.645174 
L 44.81482 67.900248 
" style="fill:none;stroke:#4169e1;stroke-linecap:square;stroke-width:0.4;"/>
   </g>
   <g id="line2d_16">
    <path clip-path="url(#p65aff20497)" d="M 19.700046 43.615949 
L 19.601756 43.430595 
L 19.503466 43.245241 
L 19.46156 43.007171 
L 19.512647 42.719787 
L 19.583746 42.520574 
L 19.654845 42.32136 
L 19.760786 42.176818 
" style="fill:none;stroke:#008000;stroke-linecap:square;stroke-width:0.4;"/>
   </g>
   <g id="line2d_17">
    <path clip-path="url(#p65aff20497)" d="M 27.915942 50.150452 
L 28.13018 50.094336 
L 28.344418 50.038219 
L 28.571604 49.956595 
L 28.79879 49.874972 
L 29.025976 49.793348 
L 29.253162 49.711724 
L 29.487411 49.566756 
L 29.72166 49.421789 
L 29.955909 49.276821 
L 30.190157 49.131854 
L 30.37791 48.951601 
L 30.565662 48.771349 
L 30.753414 48.591096 
L 30.941166 48.410843 
L 31.09125 48.256098 
L 31.241335 48.101352 
L 31.391419 47.946607 
L 31.541503 47.791862 
L 31.641559 47.653696 
L 31.741615 47.515531 
L 31.841671 47.377365 
L 31.941727 47.2392 
L 32.054731 47.031739 
L 32.167736 46.824279 
L 32.332534 46.69334 
L 32.497332 46.562402 
L 32.737467 46.400004 
L 32.977601 46.237607 
L 33.217736 46.075209 
L 33.45787 45.912812 
L 33.633851 45.749564 
L 33.809832 45.586316 
L 33.985813 45.423068 
L 34.161794 45.259821 
L 34.407814 45.060012 
L 34.653834 44.860204 
L 34.859832 44.653593 
L 35.06583 44.446983 
L 35.288307 44.293088 
L 35.510785 44.139192 
L 35.760925 44.083926 
L 36.011065 44.02866 
L 36.261205 43.973394 
L 36.511345 43.918128 
L 36.674966 43.879441 
L 36.838587 43.840755 
L 37.002208 43.802069 
L 37.165829 43.763382 
L 37.37477 43.777412 
L 37.583711 43.791441 
L 37.792651 43.80547 
L 38.001592 43.819499 
L 38.201704 43.847557 
L 38.401816 43.875615 
L 38.601928 43.903674 
L 38.80204 43.931732 
L 39.092791 43.923229 
L 39.383542 43.914727 
L 39.549223 43.890495 
L 39.714904 43.866263 
L 39.880585 43.84203 
L 40.046266 43.817798 
L 40.211947 43.793566 
L 40.377629 43.769334 
L 40.54331 43.745102 
L 40.708991 43.72087 
L 40.872023 43.688135 
L 41.035056 43.655401 
L 41.198088 43.622666 
L 41.361121 43.589932 
L 41.576535 43.598434 
L 41.79195 43.606937 
L 42.036793 43.574627 
L 42.281636 43.542318 
L 42.561793 43.464095 
L 42.776914 43.449003 
L 42.992034 43.433911 
L 43.207155 43.418819 
L 43.422275 43.403727 
L 43.637396 43.388635 
L 43.852516 43.373543 
L 44.067637 43.358451 
L 44.282757 43.34336 
L 44.451675 43.307649 
L 44.620593 43.271939 
L 44.789512 43.236228 
L 44.95843 43.200518 
L 45.138648 43.139937 
L 45.318867 43.079357 
L 45.499085 43.018777 
L 45.679304 42.958197 
L 45.855226 42.913878 
L 46.031148 42.869558 
L 46.20707 42.825239 
L 46.382992 42.78092 
L 46.558914 42.736601 
L 46.734836 42.692281 
L 46.910759 42.647962 
L 47.086681 42.603643 
" style="fill:none;stroke:#008000;stroke-linecap:square;stroke-width:0.4;"/>
   </g>
   <g id="line2d_18">
    <path clip-path="url(#p65aff20497)" d="M 16.025988 42.028705 
L 16.108152 41.864437 
L 16.254705 41.728142 
L 16.401257 41.591847 
L 16.575473 41.460483 
L 16.749688 41.32912 
L 16.923903 41.197756 
L 17.098118 41.066393 
L 17.291168 40.896343 
L 17.484217 40.726293 
L 17.677266 40.556244 
L 17.870316 40.386194 
L 18.016868 40.194888 
L 18.163421 40.003582 
L 18.309974 39.812276 
L 18.456526 39.62097 
L 18.567765 39.504486 
L 18.679004 39.388002 
L 18.790243 39.271517 
L 18.901481 39.155033 
L 19.02096 38.992211 
L 19.140439 38.829388 
L 19.259917 38.666565 
L 19.379396 38.503743 
L 19.543312 38.381434 
L 19.707227 38.259126 
L 19.871142 38.136818 
L 20.035058 38.01451 
L 20.235758 37.836552 
L 20.436459 37.658595 
L 20.634805 37.457086 
L 20.833152 37.255577 
L 21.031498 37.054068 
L 21.229844 36.852559 
L 21.405237 36.656152 
L 21.580629 36.459744 
L 21.657731 36.317328 
L 21.734833 36.174911 
L 21.811935 36.032494 
L 21.889037 35.890078 
L 21.964374 35.726405 
L 22.03971 35.562732 
L 22.115046 35.399059 
L 22.190382 35.235386 
L 22.245708 34.97521 
L 22.301033 34.715034 
L 22.356358 34.454857 
L 22.411683 34.194681 
L 22.352356 33.904491 
L 22.293028 33.614301 
L 22.146181 33.358079 
L 21.999334 33.101856 
L 21.852487 32.845634 
L 21.70564 32.589411 
L 21.551083 32.331701 
L 21.396526 32.07399 
L 21.287642 31.874862 
L 21.178757 31.675734 
L 21.048566 31.433073 
L 20.935562 31.213709 
L 20.8461 30.951832 
L 20.811375 30.763502 
L 20.776649 30.575172 
L 20.741924 30.386842 
L 20.707199 30.198511 
L 20.563 29.964693 
L 20.418802 29.730875 
L 20.274603 29.497056 
L 20.130405 29.263238 
L 19.95619 29.004762 
L 19.781975 28.746286 
L 19.688981 28.58644 
L 19.595988 28.426593 
L 19.502995 28.266746 
L 19.410002 28.106899 
L 19.292289 27.885834 
L 19.174576 27.66477 
L 19.134553 27.481541 
L 19.094531 27.298312 
L 19.054508 27.115084 
L 19.014486 26.931855 
L 18.960338 26.630867 
L 18.90619 26.329879 
" style="fill:none;stroke:#008000;stroke-linecap:square;stroke-width:0.4;"/>
   </g>
   <g id="line2d_19">
    <path clip-path="url(#p65aff20497)" d="M 28.125707 66.630147 
L 28.332646 66.518849 
L 28.539586 66.407551 
" style="fill:none;stroke:#008000;stroke-linecap:square;stroke-width:0.4;"/>
   </g>
   <g id="line2d_20">
    <path clip-path="url(#p65aff20497)" d="M 57.352666 67.573923 
L 57.122655 67.552497 
L 57.004177 67.669916 
L 56.885699 67.787335 
L 56.767221 67.904755 
L 56.648742 68.022174 
L 56.443569 68.111748 
L 56.238395 68.201322 
L 56.033221 68.290895 
L 55.828047 68.380469 
L 55.58238 68.455929 
L 55.336713 68.531388 
L 55.091046 68.606848 
L 54.845379 68.682307 
L 54.6827 68.722397 
L 54.520021 68.762486 
L 54.357341 68.802575 
L 54.194662 68.842664 
L 54.031983 68.882754 
L 53.869303 68.922843 
L 53.706624 68.962932 
L 53.543945 69.003021 
L 53.364315 69.02398 
L 53.184684 69.044938 
L 53.005054 69.065897 
L 52.825424 69.086856 
L 52.645794 69.107814 
L 52.466164 69.128773 
L 52.286534 69.149732 
L 52.106904 69.17069 
L 51.846288 69.201129 
L 51.608154 69.27897 
L 51.370021 69.35681 
L 51.131888 69.43465 
L 50.893754 69.51249 
L 50.726307 69.62332 
L 50.558861 69.73415 
L 50.391414 69.84498 
L 50.223967 69.95581 
L 50.035391 70.052483 
L 49.846815 70.149157 
L 49.658239 70.24583 
L 49.469662 70.342503 
L 49.304393 70.373622 
L 49.081622 70.394113 
L 48.85885 70.414604 
L 48.636078 70.435095 
L 48.413306 70.455586 
L 48.308306 70.464089 
L 48.136563 70.477948 
L 47.96482 70.491807 
L 47.793076 70.505666 
L 47.621333 70.519525 
" style="fill:none;stroke:#000000;stroke-linecap:square;stroke-width:0.4;"/>
   </g>
   <g id="line2d_21">
    <path clip-path="url(#p65aff20497)" d="M 52.340211 73.494886 
L 52.591882 73.496162 
L 52.843552 73.497437 
L 53.050139 73.620851 
L 53.256725 73.744264 
L 53.463311 73.867678 
L 53.669897 73.991091 
L 53.815685 74.263129 
L 53.961473 74.535166 
L 54.10726 74.807203 
L 54.253048 75.07924 
L 54.230918 75.240405 
L 54.208788 75.401569 
L 54.186657 75.562734 
L 54.164527 75.723899 
L 53.91992 75.898115 
L 53.675312 76.072331 
L 53.45101 76.005905 
L 53.226708 75.939479 
L 53.002406 75.873054 
L 52.778104 75.806628 
L 52.553802 75.740202 
L 52.3295 75.673777 
L 52.105197 75.607351 
L 51.880895 75.540925 
L 51.731753 75.432455 
L 51.582611 75.323984 
L 51.433468 75.215514 
L 51.284326 75.107043 
L 51.135184 74.998573 
L 50.986041 74.890102 
L 50.836899 74.781632 
L 50.687756 74.673161 
L 50.573707 74.562629 
L 50.459658 74.452096 
L 50.345609 74.341564 
L 50.23156 74.231032 
L 50.117511 74.120499 
L 50.003461 74.009967 
L 49.889412 73.899435 
L 49.775363 73.788902 
L 49.661314 73.67837 
L 49.547265 73.567838 
L 49.433216 73.457305 
L 49.319166 73.346773 
L 49.205117 73.23624 
L 49.091068 73.125708 
L 48.977019 73.015176 
L 48.86297 72.904643 
L 48.723833 72.778466 
L 48.584696 72.65229 
L 48.445559 72.526113 
L 48.306423 72.399936 
L 48.129618 72.270358 
L 47.952813 72.14061 
L 47.881714 72.00474 
L 47.798844 71.846679 
L 47.715974 71.688617 
" style="fill:none;stroke:#008000;stroke-linecap:square;stroke-width:0.4;"/>
   </g>
   <g id="line2d_22">
    <path clip-path="url(#p65aff20497)" d="M 58.809953 67.727138 
L 58.627792 67.707986 
L 58.445631 67.688834 
L 58.26347 67.669682 
L 58.08131 67.65053 
L 57.899149 67.631378 
L 57.716988 67.612227 
L 57.534827 67.593075 
L 57.352666 67.573923 
L 57.122655 67.552497 
L 56.89335 67.531155 
L 56.664045 67.509814 
L 56.43474 67.488473 
L 56.205435 67.467132 
L 55.958679 67.455462 
L 55.711924 67.443792 
L 55.465168 67.432123 
L 55.218412 67.420453 
L 54.971656 67.408783 
L 54.7249 67.397114 
L 54.478144 67.385444 
L 54.231388 67.373774 
L 53.92045 67.391289 
L 53.609511 67.408805 
L 53.298572 67.42632 
L 52.987633 67.443835 
L 52.676694 67.46135 
L 52.365755 67.478865 
L 52.054816 67.49638 
L 51.743877 67.513895 
L 51.569545 67.524821 
L 51.395212 67.535747 
L 51.220879 67.546672 
L 51.046546 67.557598 
L 50.904819 67.639307 
L 50.763093 67.721016 
L 50.621366 67.802725 
L 50.47964 67.884434 
L 50.302894 68.002831 
L 50.126148 68.121228 
L 49.949402 68.239625 
L 49.772656 68.358022 
L 49.579371 68.45342 
L 49.402389 68.540868 
L 49.225408 68.628317 
L 49.048426 68.715765 
L 48.871445 68.803213 
L 48.705705 68.885007 
L 48.488995 68.943334 
L 48.272286 69.001661 
L 48.055576 69.059988 
L 47.838867 69.118315 
L 47.655352 69.015095 
L 47.471837 68.911875 
L 47.288323 68.808654 
L 47.104808 68.705434 
" style="fill:none;stroke:#4169e1;stroke-linecap:square;stroke-width:0.4;"/>
   </g>
   <g id="line2d_23">
    <path clip-path="url(#p65aff20497)" d="M 30.486794 69.760593 
L 30.640057 69.986887 
L 30.793319 70.21318 
L 30.946581 70.439474 
L 31.099844 70.665768 
L 31.274883 70.724138 
L 31.449922 70.782507 
L 31.624961 70.840877 
L 31.8 70.899246 
L 32.10676 70.875864 
L 32.413521 70.852483 
L 32.574375 70.803296 
L 32.73523 70.754109 
L 32.896085 70.704922 
L 33.05694 70.655735 
L 33.217795 70.606548 
L 33.378649 70.557361 
L 33.539504 70.508174 
L 33.700359 70.458987 
L 33.876222 70.386461 
L 34.052085 70.313935 
L 34.227949 70.241409 
L 34.403812 70.168883 
L 34.579675 70.096356 
L 34.755538 70.02383 
L 34.931401 69.951304 
L 35.107265 69.878778 
L 35.303992 69.76206 
L 35.50072 69.645342 
L 35.697448 69.528624 
L 35.894176 69.411906 
L 36.090904 69.295188 
L 36.287632 69.17847 
L 36.48436 69.061752 
L 36.681087 68.945034 
L 36.874137 68.906901 
L 37.067186 68.868767 
L 37.260235 68.830633 
L 37.453285 68.7925 
" style="fill:none;stroke:#4169e1;stroke-linecap:square;stroke-width:0.4;"/>
   </g>
   <g id="line2d_24">
    <path clip-path="url(#p65aff20497)" d="M 28.539586 66.407551 
L 28.674662 66.288942 
L 28.809737 66.170332 
L 28.944813 66.051722 
L 29.079889 65.933113 
L 29.3099 65.875551 
L 29.539911 65.817989 
L 29.77004 65.760427 
L 30.000169 65.702865 
L 30.176974 65.6669 
L 30.353779 65.630934 
L 30.530583 65.594969 
L 30.707388 65.559003 
L 30.884193 65.523037 
L 31.060998 65.487072 
L 31.237803 65.451106 
L 31.414608 65.415141 
L 31.698414 65.375009 
L 31.98222 65.334877 
L 32.266026 65.294746 
L 32.549832 65.254614 
L 32.833638 65.214482 
L 33.117444 65.17435 
L 33.40125 65.134219 
L 33.685056 65.094087 
L 33.955178 65.07755 
L 34.2253 65.061012 
L 34.495422 65.044475 
L 34.765544 65.027938 
L 35.035666 65.0114 
L 35.305788 64.994863 
L 35.57591 64.978326 
L 35.846031 64.961788 
L 36.117419 64.984086 
L 36.388806 65.006384 
L 36.660193 65.028682 
L 36.931581 65.050979 
L 37.202968 65.073277 
L 37.474355 65.095575 
L 37.745743 65.117873 
L 38.01713 65.14017 
L 38.254837 65.2119 
L 38.492543 65.283629 
L 38.73025 65.355358 
L 38.967957 65.427087 
L 39.205663 65.498816 
L 39.44337 65.570545 
L 39.681077 65.642274 
L 39.918783 65.714003 
L 40.15649 65.785733 
L 40.394197 65.857462 
L 40.631903 65.929191 
L 40.86961 66.00092 
L 41.107317 66.072649 
L 41.345023 66.144378 
L 41.58273 66.216107 
L 41.820437 66.287836 
L 42.011514 66.366782 
L 42.202592 66.445728 
L 42.39367 66.524673 
L 42.584747 66.603619 
L 42.775825 66.682564 
L 42.966902 66.76151 
L 43.15798 66.840456 
L 43.349058 66.919401 
" style="fill:none;stroke:#4169e1;stroke-linecap:square;stroke-width:0.4;"/>
   </g>
   <g id="line2d_25">
    <path clip-path="url(#p65aff20497)" d="M 33.959798 73.729725 
L 34.163913 73.499563 
L 34.368027 73.2694 
L 34.45643 73.092548 
L 34.544832 72.915697 
L 34.633234 72.738845 
L 34.721637 72.561993 
L 34.810039 72.385141 
L 34.898442 72.20829 
L 34.986844 72.031438 
L 35.075247 71.854586 
L 35.215531 71.625848 
L 35.355816 71.39711 
L 35.4961 71.168371 
L 35.636385 70.939633 
L 35.776669 70.710895 
L 35.916953 70.482157 
L 36.057238 70.253419 
L 36.197522 70.02468 
L 36.354493 69.870658 
L 36.511463 69.716635 
L 36.668433 69.562613 
L 36.825404 69.40859 
L 36.982374 69.254567 
L 37.139344 69.100545 
L 37.296314 68.946522 
L 37.453285 68.7925 
L 37.584152 68.685793 
L 37.715019 68.579087 
L 37.845887 68.472381 
L 37.976754 68.365675 
L 38.107622 68.258968 
L 38.238489 68.152262 
L 38.369357 68.045556 
L 38.500224 67.93885 
L 38.716934 67.867131 
L 38.933643 67.795413 
L 39.150353 67.723694 
L 39.367062 67.651976 
L 39.603783 67.668641 
L 39.840504 67.685305 
L 40.147264 67.753665 
L 40.454024 67.822025 
L 40.760784 67.890386 
L 41.067544 67.958746 
L 41.347584 67.832058 
L 41.627623 67.705371 
L 41.802662 67.60534 
L 41.977701 67.505308 
L 42.15274 67.405276 
L 42.32778 67.305244 
L 42.583099 67.208783 
L 42.838419 67.112323 
L 43.093738 67.015862 
L 43.349058 66.919401 
L 43.482044 67.021261 
L 43.61503 67.123121 
L 43.748016 67.224981 
L 43.881003 67.326841 
L 44.013989 67.4287 
L 44.146975 67.53056 
L 44.279961 67.63242 
L 44.412948 67.73428 
L 44.581189 67.794977 
L 44.74943 67.855674 
L 44.917672 67.916371 
L 45.085913 67.977068 
L 45.254154 68.037766 
L 45.422395 68.098463 
L 45.590637 68.15916 
L 45.758878 68.219857 
L 45.927119 68.280554 
L 46.095361 68.341251 
L 46.263602 68.401948 
L 46.431843 68.462646 
L 46.600084 68.523343 
L 46.768326 68.58404 
L 46.936567 68.644737 
L 47.104808 68.705434 
" style="fill:none;stroke:#4169e1;stroke-linecap:square;stroke-width:0.4;"/>
   </g>
   <g id="line2d_26">
    <path clip-path="url(#p65aff20497)" d="M 58.809953 67.727138 
L 58.648569 67.834397 
L 58.487184 67.941656 
L 58.325799 68.048914 
L 58.164415 68.156173 
L 58.00303 68.263432 
L 57.841646 68.370691 
L 57.680261 68.47795 
L 57.518877 68.585209 
L 57.365203 68.687366 
L 57.211528 68.789524 
L 57.057854 68.891681 
L 56.90418 68.993839 
L 56.691943 69.22026 
L 56.479707 69.446681 
L 56.375943 69.632971 
L 56.272179 69.81926 
L 56.168415 70.00555 
L 56.064651 70.191839 
L 56.017507 70.363972 
L 55.970362 70.536105 
L 55.923218 70.708238 
L 55.876074 70.880371 
L 55.762834 71.083155 
L 55.649595 71.28594 
L 55.534059 71.406207 
L 55.418524 71.526475 
L 55.302989 71.646743 
L 55.187453 71.76701 
L 55.060147 71.863684 
L 54.93284 71.960357 
L 54.805534 72.05703 
L 54.678227 72.153704 
L 54.488297 72.24485 
L 54.298367 72.335997 
L 54.108437 72.427144 
L 53.918507 72.51829 
L 53.73511 72.606376 
L 53.57714 72.63707 
L 53.419169 72.667764 
L 53.261198 72.698458 
L 53.103227 72.729152 
L 52.916946 72.665468 
L 52.730665 72.601785 
L 52.544385 72.538101 
L 52.358104 72.474417 
L 52.13645 72.295185 
L 51.914797 72.115953 
L 51.756826 72.021617 
L 51.598855 71.927282 
L 51.440884 71.832947 
L 51.282913 71.738612 
L 51.035363 71.686747 
L 50.787813 71.634882 
L 50.540262 71.583016 
L 50.292712 71.531151 
L 50.073412 71.5005 
L 49.854113 71.469848 
L 49.634814 71.439197 
L 49.415514 71.408545 
L 49.256366 71.386141 
L 49.097219 71.363737 
L 48.938071 71.341333 
L 48.778923 71.318929 
L 48.619775 71.296525 
L 48.460627 71.274121 
L 48.301479 71.251717 
L 48.142331 71.229313 
L 47.951871 71.072357 
L 47.761411 70.915401 
L 47.691372 70.717463 
L 47.621333 70.519525 
L 47.57001 70.374813 
" style="fill:none;stroke:#4169e1;stroke-linecap:square;stroke-width:0.4;"/>
   </g>
   <g id="line2d_27">
    <path clip-path="url(#p65aff20497)" d="M 68.727273 60.472814 
L 68.663914 60.631215 
L 68.600555 60.789617 
L 68.537196 60.948018 
L 68.473837 61.10642 
L 68.410478 61.264821 
L 68.347119 61.423222 
L 68.28376 61.581624 
L 68.220401 61.740025 
L 68.038828 61.952247 
L 67.857256 62.164469 
L 67.675684 62.376691 
L 67.494111 62.588914 
L 67.345528 62.726866 
L 67.196945 62.864819 
L 67.048362 63.002772 
L 66.899779 63.140725 
L 66.751195 63.278678 
L 66.602612 63.416631 
L 66.454029 63.554584 
L 66.305446 63.692537 
L 66.157274 63.774819 
L 66.009103 63.857102 
L 65.860932 63.939385 
L 65.712761 64.021668 
L 65.564589 64.103951 
L 65.416418 64.186234 
L 65.268247 64.268516 
L 65.120076 64.350799 
L 64.959898 64.432678 
L 64.79972 64.514557 
L 64.639542 64.596436 
L 64.479364 64.678315 
L 64.319186 64.760194 
L 64.159008 64.842073 
L 63.99883 64.923952 
L 63.838652 65.005831 
L 63.538543 65.099188 
L 63.238434 65.192546 
L 62.938324 65.285903 
L 62.638215 65.37926 
L 62.39808 65.50599 
L 62.157946 65.63272 
L 61.917811 65.759449 
L 61.677677 65.886179 
L 61.489071 65.992417 
L 61.300466 66.098656 
L 61.11186 66.204895 
L 60.923254 66.311133 
L 60.734649 66.417372 
L 60.546043 66.52361 
L 60.357437 66.629849 
L 60.168832 66.736088 
L 59.998972 66.859969 
L 59.829112 66.98385 
L 59.659252 67.107731 
L 59.489392 67.231613 
L 59.319533 67.355494 
L 59.149673 67.479375 
L 58.979813 67.603256 
L 58.809953 67.727138 
" style="fill:none;stroke:#4169e1;stroke-linecap:square;stroke-width:0.4;"/>
   </g>
   <g id="line2d_28">
    <path clip-path="url(#p65aff20497)" d="M 46.330021 59.566959 
L 46.466804 59.444353 
L 46.721299 59.449114 
L 46.803875 59.588215 
L 46.886451 59.727316 
L 46.969026 59.866417 
L 47.051602 60.005517 
L 47.046894 60.227262 
L 46.921882 60.420609 
L 46.796871 60.613955 
L 46.68834 60.765172 
L 46.579808 60.916389 
L 46.471277 61.067606 
L 46.362746 61.218822 
L 46.091417 61.349846 
L 45.820089 61.480869 
L 45.624685 61.515729 
L 45.429282 61.55059 
L 45.158542 61.649218 
L 44.981384 61.902167 
L 44.804226 62.155117 
L 44.627068 62.408066 
L 44.44991 62.661015 
L 44.341614 62.780049 
L 44.233318 62.899084 
L 44.125022 63.018119 
L 44.016726 63.137154 
L 43.87547 63.325484 
L 43.734215 63.513814 
L 43.592959 63.702144 
L 43.451703 63.890475 
L 43.330459 64.156602 
L 43.209215 64.42273 
L 43.12093 64.618288 
L 43.032645 64.813845 
L 43.020874 65.022156 
L 43.009102 65.230467 
L 43.011457 65.433676 
L 43.013811 65.636886 
L 43.060896 65.943826 
L 43.107981 66.250766 
L 43.230403 66.526246 
L 43.352824 66.801727 
L 43.349058 66.919401 
" style="fill:none;stroke:#008000;stroke-linecap:square;stroke-width:0.4;"/>
   </g>
   <g id="line2d_29">
    <path clip-path="url(#p65aff20497)" d="M 26.850169 44.803067 
L 26.758088 44.662351 
L 26.666007 44.521634 
L 26.573926 44.380918 
L 26.481845 44.240202 
L 26.389764 44.099486 
L 26.297683 43.95877 
L 26.205602 43.818053 
L 26.113521 43.677337 
L 25.872327 43.50648 
L 25.631133 43.335622 
L 25.389939 43.164765 
L 25.148745 42.993907 
L 24.988008 42.953712 
L 24.827271 42.913516 
L 24.666534 42.873321 
L 24.505797 42.833125 
L 24.34506 42.79293 
L 24.184323 42.752734 
L 24.023586 42.712539 
L 23.862849 42.672343 
L 23.695402 42.637164 
L 23.527955 42.601985 
L 23.360508 42.566806 
L 23.193062 42.531627 
L 23.025615 42.496448 
L 22.858168 42.461269 
L 22.690722 42.42609 
L 22.523275 42.390911 
L 22.350619 42.37753 
L 22.177964 42.364149 
L 22.005308 42.350768 
L 21.832653 42.337388 
L 21.659997 42.324007 
L 21.487342 42.310626 
L 21.314686 42.297245 
L 21.142031 42.283864 
L 20.969375 42.270484 
L 20.796719 42.257103 
L 20.624064 42.243722 
L 20.451408 42.230341 
L 20.278753 42.21696 
L 20.106097 42.20358 
L 19.933442 42.190199 
L 19.760786 42.176818 
L 19.496403 42.19986 
L 19.23202 42.222901 
L 18.967636 42.245943 
L 18.703253 42.268985 
L 18.540691 42.266519 
L 18.378129 42.264054 
L 18.215568 42.261588 
L 18.053006 42.259122 
L 17.890445 42.256656 
L 17.727883 42.254191 
L 17.565321 42.251725 
L 17.40276 42.249259 
L 17.240198 42.246793 
L 17.077636 42.244328 
L 16.915075 42.241862 
L 16.752513 42.239396 
L 16.589951 42.236931 
L 16.42739 42.234465 
L 16.264828 42.231999 
L 16.102266 42.229533 
L 15.921812 42.335134 
L 15.741358 42.440735 
L 15.560904 42.546336 
L 15.38045 42.651937 
L 15.199996 42.757538 
L 15.019542 42.863139 
L 14.839088 42.96874 
L 14.658634 43.074341 
L 14.458522 43.188062 
L 14.25841 43.301782 
L 14.058298 43.415503 
L 13.858186 43.529224 
L 13.658074 43.642945 
L 13.457962 43.756665 
L 13.25785 43.870386 
L 13.057738 43.984107 
L 12.940525 44.161767 
L 12.823312 44.339426 
L 12.706099 44.517086 
L 12.588887 44.694745 
L 12.471674 44.872405 
L 12.354461 45.050064 
L 12.237249 45.227724 
L 12.120036 45.405383 
L 12.02769 45.541593 
L 11.935344 45.677803 
L 11.842998 45.814013 
L 11.750652 45.950223 
L 11.658307 46.086433 
L 11.565961 46.222642 
L 11.473615 46.358852 
L 11.381269 46.495062 
L 11.288923 46.631272 
L 11.196577 46.767482 
L 11.104232 46.903692 
L 11.011886 47.039902 
L 10.91954 47.176112 
L 10.827194 47.312321 
L 10.734848 47.448531 
L 10.642502 47.584741 
L 10.502777 47.847723 
L 10.363052 48.110705 
L 10.223326 48.373687 
L 10.083601 48.636669 
L 10.01827 48.854673 
L 9.95294 49.072677 
L 9.887609 49.290681 
L 9.822278 49.508684 
" style="fill:none;stroke:#000000;stroke-linecap:square;stroke-width:0.4;"/>
   </g>
   <g id="line2d_30">
    <path clip-path="url(#p65aff20497)" d="M 26.616862 50.638325 
L 26.460215 50.668041 
L 26.303569 50.697757 
L 26.146922 50.727474 
L 25.990276 50.75719 
L 25.833629 50.786906 
L 25.676982 50.816622 
L 25.520336 50.846338 
L 25.363689 50.876055 
L 25.196243 50.889446 
L 25.028796 50.902837 
L 24.861349 50.916229 
L 24.693902 50.92962 
L 24.526456 50.943012 
L 24.359009 50.956403 
L 24.191562 50.969795 
L 24.024115 50.983186 
L 23.833244 51.023403 
L 23.642372 51.06362 
L 23.451501 51.103836 
L 23.260629 51.144053 
L 22.965876 51.211053 
L 22.671122 51.278052 
L 22.376369 51.345052 
L 22.081616 51.412052 
L 21.898219 51.429567 
L 21.714822 51.447082 
L 21.491756 51.468466 
L 21.26869 51.489849 
L 21.045624 51.511233 
L 20.822557 51.532617 
L 20.526274 51.488744 
L 20.22999 51.444871 
L 19.933707 51.400998 
L 19.637423 51.357125 
L 19.369861 51.267084 
L 19.1023 51.177043 
L 18.834738 51.087001 
L 18.567177 50.99696 
L 18.292434 50.959039 
L 18.017692 50.921118 
L 17.813931 50.991136 
L 17.61017 51.061154 
L 17.406409 51.131172 
L 17.202647 51.20119 
L 16.995002 51.25144 
L 16.787356 51.301689 
L 16.57971 51.351939 
L 16.372065 51.402189 
L 16.164419 51.452438 
L 15.956773 51.502688 
L 15.749127 51.552938 
L 15.541482 51.603188 
L 15.240078 51.573046 
L 14.938673 51.542905 
L 14.637269 51.512764 
L 14.335865 51.482622 
L 14.114859 51.449122 
L 13.893853 51.415623 
L 13.672847 51.382123 
L 13.451841 51.348623 
L 13.230835 51.315123 
L 13.009828 51.281623 
L 12.788822 51.248124 
L 12.567816 51.214624 
L 12.391982 51.209607 
L 12.216149 51.204591 
L 12.040315 51.199574 
L 11.864481 51.194558 
L 11.688647 51.189541 
L 11.512813 51.184525 
L 11.33698 51.179508 
L 11.161146 51.174492 
L 10.856446 51.116696 
L 10.551746 51.058901 
L 10.247046 51.001105 
L 9.942345 50.943309 
L 9.637645 50.885514 
L 9.332945 50.827718 
L 9.028245 50.769922 
L 8.723545 50.712127 
" style="fill:none;stroke:#000000;stroke-linecap:square;stroke-width:0.4;"/>
   </g>
   <g id="line2d_31">
    <path clip-path="url(#p65aff20497)" d="M 27.166346 51.415283 
L 26.263546 50.286832 
L 24.725685 48.885027 
L 20.941565 46.263454 
L 19.623768 45.834929 
L 17.741773 46.350775 
L 17.185932 46.571925 
L 15.836294 48.645597 
L 15.578444 49.010779 
L 14.520204 49.520078 
L 11.955002 49.412861 
L 10.392068 49.356405 
L 9.536589 49.691233 
L 9.250899 49.873781 
L 9.099285 50.309789 
L 8.486 50.848422 
L 7.094397 51.763885 
L 3.561595 55.544601 
L 3.353243 56.094202 
L 3.864824 57.174528 
L 3.553473 60.113711 
L 3.272727 61.188894 
L 3.272727 61.188894 
" style="fill:none;stroke:#000000;stroke-linecap:square;stroke-width:0.4;"/>
   </g>
   <g id="line2d_32">
    <path clip-path="url(#p65aff20497)" d="M 68.727273 60.472814 
L 68.653084 60.328591 
L 68.578895 60.184367 
L 68.504707 60.040144 
L 68.430518 59.89592 
L 68.35633 59.751697 
L 68.282141 59.607473 
L 68.207952 59.46325 
L 68.133764 59.319026 
L 67.913464 59.124744 
L 67.693164 58.930463 
L 67.472864 58.736181 
L 67.252564 58.541899 
L 67.057926 58.43481 
L 66.863287 58.327721 
L 66.668649 58.220632 
L 66.474011 58.113543 
" style="fill:none;stroke:#008000;stroke-linecap:square;stroke-width:0.4;"/>
   </g>
   <g id="line2d_33">
    <path clip-path="url(#p65aff20497)" d="M 25.2036 49.232353 
L 24.933036 49.305135 
L 24.662473 49.377916 
L 24.39191 49.450697 
L 24.121346 49.523479 
L 23.930445 49.546924 
L 23.739544 49.57037 
L 23.548643 49.593816 
L 23.357742 49.617261 
L 23.166841 49.640707 
L 22.97594 49.664152 
L 22.785039 49.687598 
L 22.594138 49.711044 
L 22.363891 49.706792 
L 22.133645 49.702541 
L 21.903398 49.69829 
L 21.673152 49.694039 
L 21.357504 49.688257 
L 21.041857 49.682475 
L 20.726209 49.676694 
L 20.410562 49.670912 
L 20.192881 49.647466 
L 19.9752 49.624021 
L 19.75752 49.600575 
L 19.539839 49.577129 
L 19.322158 49.553684 
L 19.104477 49.530238 
L 18.886797 49.506793 
L 18.669116 49.483347 
L 18.438045 49.486663 
L 18.206975 49.489979 
L 17.975904 49.493295 
L 17.744834 49.496611 
L 17.490338 49.550219 
L 17.235843 49.603827 
L 16.981347 49.657435 
L 16.726852 49.711044 
L 16.451021 49.687173 
L 16.17519 49.663302 
L 15.899359 49.639431 
L 15.623528 49.615561 
L 15.347697 49.59169 
L 15.071866 49.567819 
L 14.796035 49.543948 
L 14.520204 49.520078 
" style="fill:none;stroke:#000000;stroke-linecap:square;stroke-width:0.4;"/>
   </g>
   <g id="line2d_34">
    <path clip-path="url(#p65aff20497)" d="M 68.061488 56.696178 
L 67.943952 56.58097 
L 67.826415 56.465761 
L 67.708879 56.350552 
L 67.591342 56.235344 
L 67.473806 56.120135 
L 67.356269 56.004926 
L 67.238733 55.889717 
L 67.121197 55.774509 
L 66.896718 55.653901 
L 66.672239 55.533293 
L 66.447761 55.412685 
L 66.223282 55.292077 
L 66.005837 55.23611 
L 65.788391 55.180142 
L 65.570946 55.124175 
L 65.353501 55.068207 
L 65.136055 55.012239 
L 64.91861 54.956272 
L 64.701165 54.900304 
L 64.483719 54.844336 
L 64.286609 54.833729 
L 64.089498 54.823123 
L 63.892388 54.812516 
L 63.695278 54.801909 
L 63.498167 54.791302 
L 63.301057 54.780695 
L 63.103946 54.770088 
L 62.906836 54.759482 
L 62.723027 54.747536 
L 62.539218 54.73559 
L 62.35541 54.723644 
L 62.171601 54.711698 
L 61.918694 54.756931 
L 61.665788 54.802164 
L 61.412882 54.847397 
L 61.159975 54.89263 
L 60.907069 54.937864 
L 60.654162 54.983097 
L 60.401256 55.02833 
L 60.14835 55.073563 
L 59.927226 55.133846 
L 59.706102 55.194129 
L 59.484978 55.254411 
L 59.263854 55.314694 
L 59.039435 55.334802 
L 58.815015 55.354911 
L 58.590595 55.375019 
L 58.366175 55.395128 
L 58.128336 55.385073 
L 57.890497 55.375019 
L 57.652658 55.364965 
L 57.414819 55.354911 
L 57.17698 55.344857 
L 56.93914 55.334802 
L 56.701301 55.324748 
L 56.463462 55.314694 
L 56.264939 55.311421 
L 56.066416 55.308147 
L 55.867893 55.304874 
L 55.66937 55.3016 
L 55.470847 55.298327 
L 55.272324 55.295053 
L 55.073801 55.29178 
L 54.875279 55.288506 
L 54.557807 55.283745 
L 54.240335 55.278984 
L 54.072182 55.342922 
L 53.904029 55.406861 
L 53.735876 55.4708 
L 53.567723 55.534738 
L 53.354544 55.752742 
L 53.141366 55.970746 
L 52.922891 56.195892 
L 52.704415 56.421038 
L 52.588468 56.540498 
L 52.472521 56.659958 
L 52.356574 56.779418 
L 52.240626 56.898878 
L 52.091543 57.047926 
L 51.942459 57.196975 
L 51.793376 57.346024 
L 51.644292 57.495072 
L 51.356249 57.612322 
L 51.068205 57.729571 
L 50.791874 57.766429 
L 50.515542 57.803288 
L 50.239211 57.840146 
L 49.96288 57.877004 
L 49.802084 57.897113 
L 49.641288 57.917221 
L 49.480492 57.937329 
L 49.319696 57.957438 
L 49.051781 58.08472 
L 48.783867 58.212002 
L 48.609651 58.433152 
L 48.435436 58.654302 
L 48.24786 58.774909 
L 48.060285 58.895517 
L 47.872709 59.016125 
L 47.685133 59.136733 
L 47.526751 59.353929 
L 47.368368 59.571125 
L 47.209985 59.788321 
L 47.051602 60.005517 
" style="fill:none;stroke:#4169e1;stroke-linecap:square;stroke-width:0.4;"/>
   </g>
   <g id="line2d_35">
    <path clip-path="url(#p65aff20497)" d="M 30.623341 50.886768 
L 30.870539 50.134298 
L 31.194249 49.780594 
L 31.926424 48.98051 
L 33.467876 46.647427 
L 33.69977 46.368545 
L 34.171211 45.985933 
L 34.544361 45.354198 
L 35.757982 44.469514 
L 36.770314 44.173202 
L 37.606076 44.222517 
L 38.407113 44.515428 
L 39.384719 44.53966 
L 40.37292 44.315194 
L 42.281636 43.895171 
L 43.004394 44.016757 
L 43.786597 43.952138 
L 44.548788 43.768484 
L 45.900134 44.115386 
L 46.392174 44.093279 
L 46.714708 43.819499 
L 46.936008 42.86722 
L 47.24677 42.545826 
L 47.40686 42.488009 
L 49.417398 43.239629 
L 49.91756 43.00309 
L 50.662801 42.431893 
L 50.945313 41.573992 
L 51.157196 40.926952 
L 51.317286 40.916749 
L 51.538586 41.361429 
L 51.827454 42.117386 
L 52.460691 42.691814 
L 53.551478 44.331349 
L 53.429057 45.119019 
L 53.842229 45.665389 
L 54.326265 45.867578 
L 55.882431 46.039329 
L 55.882431 46.039329 
" style="fill:none;stroke:#008000;stroke-linecap:square;stroke-width:0.4;"/>
   </g>
   <g id="line2d_36">
    <path clip-path="url(#p65aff20497)" d="M 57.739706 59.498089 
L 57.592742 59.414701 
L 57.445777 59.331312 
L 57.298812 59.247924 
L 57.151848 59.164536 
L 57.004883 59.081148 
L 56.857918 58.99776 
L 56.710954 58.914372 
L 56.563989 58.830983 
L 56.322766 58.680362 
L 56.081542 58.52974 
L 55.840319 58.379119 
L 55.599096 58.228497 
L 55.357872 58.077875 
L 55.116649 57.927254 
L 54.875426 57.776632 
L 54.634202 57.626011 
L 54.392979 57.475389 
L 54.151756 57.324767 
L 53.910532 57.174146 
L 53.669309 57.023524 
L 53.428086 56.872903 
L 53.186862 56.722281 
L 52.945639 56.57166 
L 52.704415 56.421038 
" style="fill:none;stroke:#4169e1;stroke-linecap:square;stroke-width:0.4;"/>
   </g>
   <g id="line2d_37">
    <path clip-path="url(#p65aff20497)" d="M 48.141624 11.921391 
L 48.057106 11.690421 
L 47.972589 11.459451 
L 47.888071 11.228481 
L 47.803553 10.99751 
L 47.673186 10.839109 
L 47.542818 10.680708 
L 47.412451 10.522306 
L 47.282084 10.363905 
L 47.208514 10.061216 
L 47.134943 9.758528 
L 47.061372 9.455839 
L 46.987802 9.153151 
L 46.901871 8.91253 
L 46.815941 8.67191 
L 46.770033 8.474142 
L 46.724125 8.276374 
L 46.591109 8.130386 
L 46.458093 7.984398 
L 46.194416 7.826082 
L 46.062578 7.720481 
L 45.930739 7.61488 
L 45.735865 7.510002 
L 45.540991 7.405124 
L 45.346117 7.300246 
L 45.151244 7.195367 
L 44.974556 7.011671 
L 44.797869 6.827975 
L 44.621182 6.644279 
L 44.444495 6.460582 
L 44.326723 6.22957 
L 44.208951 5.998557 
L 44.091179 5.767544 
L 43.973407 5.536532 
L 43.820027 5.271934 
L 43.666647 5.007337 
L 43.559882 4.847065 
L 43.453116 4.686793 
L 43.34635 4.526521 
L 43.239585 4.366249 
L 43.078965 4.208103 
L 42.918346 4.049957 
L 42.757726 3.89181 
L 42.597107 3.733664 
L 42.667735 3.953878 
L 42.738363 4.174093 
L 42.776031 4.330539 
L 42.813699 4.486985 
L 42.851367 4.64343 
L 42.889035 4.799876 
L 42.926703 4.956322 
L 42.964372 5.112768 
L 43.00204 5.269214 
L 43.039708 5.425659 
L 43.057365 5.636521 
L 43.075022 5.847383 
L 43.092679 6.058245 
L 43.110336 6.269106 
L 43.062073 6.454461 
L 43.013811 6.639815 
L 42.978497 6.853227 
L 42.943183 7.06664 
L 42.973789 7.325115 
L 43.004394 7.583591 
L 43.072668 7.797854 
L 43.140941 8.012116 
L 43.209215 8.226379 
L 43.277488 8.440642 
L 43.303679 8.606866 
L 43.32987 8.773089 
L 43.356062 8.939313 
L 43.382253 9.105537 
L 43.408444 9.27176 
L 43.434635 9.437984 
L 43.460826 9.604208 
L 43.487017 9.770431 
L 43.507617 9.936655 
L 43.528217 10.102879 
L 43.548817 10.269102 
L 43.569416 10.435326 
L 43.534985 10.607714 
L 43.500554 10.780102 
L 43.466123 10.95249 
L 43.431692 11.124878 
L 43.397261 11.297266 
L 43.36283 11.469654 
L 43.328399 11.642042 
L 43.293968 11.81443 
L 43.241291 11.990856 
L 43.188615 12.167283 
L 43.135938 12.34371 
L 43.083262 12.520136 
L 43.030585 12.696563 
L 42.977909 12.872989 
L 42.925232 13.049416 
L 42.872555 13.225843 
L 42.797219 13.439255 
L 42.721883 13.652668 
L 42.633598 13.938351 
L 42.545313 14.224035 
L 42.453497 14.380481 
L 42.394641 14.593043 
L 42.469977 14.853219 
L 42.60417 15.02837 
L 42.738363 15.203522 
L 42.799573 15.317455 
L 42.903161 15.509611 
L 42.929058 15.706869 
L 42.954955 15.904127 
L 42.9526 16.172805 
L 42.881972 16.363261 
L 42.623004 16.405774 
L 42.420538 16.336053 
L 42.229842 16.1541 
L 42.09565 15.939837 
L 42.053273 15.871817 
L 41.895538 15.756184 
" style="fill:none;stroke:#008000;stroke-linecap:square;stroke-width:0.4;"/>
   </g>
   <g id="line2d_38">
    <path clip-path="url(#p65aff20497)" d="M 25.946369 16.681424 
L 25.829009 16.403606 
L 25.711649 16.125787 
L 25.594289 15.847968 
L 25.476929 15.570149 
L 25.421251 15.417338 
L 25.365573 15.264527 
L 25.309894 15.111716 
L 25.254216 14.958905 
L 25.198538 14.806094 
L 25.14286 14.653283 
L 25.087182 14.500472 
L 25.031503 14.347661 
L 24.958109 14.056281 
L 24.884715 13.764901 
L 24.811321 13.47352 
L 24.737927 13.18214 
L 24.72133 12.947641 
L 24.704732 12.713143 
L 24.688134 12.478644 
L 24.671537 12.244145 
L 24.714208 12.028565 
L 24.756879 11.812984 
L 24.79955 11.597404 
L 24.842221 11.381823 
L 24.998485 11.258664 
L 25.154749 11.135506 
L 25.311013 11.012347 
L 25.467277 10.889189 
L 25.723067 10.896288 
L 25.978857 10.903388 
L 26.234648 10.910487 
L 26.490438 10.917587 
L 26.679897 10.936526 
L 26.869356 10.955466 
L 27.058815 10.974405 
L 27.248274 10.993344 
L 27.437733 11.012284 
L 27.627192 11.031223 
L 27.816652 11.050162 
L 28.006111 11.069101 
L 28.138714 11.213601 
L 28.271318 11.358101 
L 28.403922 11.502601 
L 28.536525 11.647101 
L 28.7118 11.741903 
L 28.887075 11.836706 
L 29.100194 11.872247 
L 29.313313 11.907787 
L 29.526433 11.943327 
L 29.739552 11.978868 
L 29.908294 12.032922 
L 30.077035 12.086977 
L 30.245777 12.141031 
L 30.414518 12.195086 
L 30.58326 12.249141 
L 30.752002 12.303195 
L 30.920743 12.35725 
L 31.089485 12.411304 
" style="fill:none;stroke:#4169e1;stroke-linecap:square;stroke-width:0.4;"/>
   </g>
   <g id="line2d_39">
    <path clip-path="url(#p65aff20497)" d="M 31.089485 12.411304 
L 31.310432 12.584925 
L 31.531379 12.758546 
L 31.740084 12.883703 
L 31.94879 13.008859 
L 32.086749 13.154337 
L 32.224709 13.299814 
L 32.498333 13.300877 
L 32.771957 13.30194 
L 33.04558 13.303003 
L 33.319204 13.304066 
" style="fill:none;stroke:#008000;stroke-linecap:square;stroke-width:0.4;"/>
   </g>
   <g id="line2d_40">
    <path clip-path="url(#p65aff20497)" d="M 65.120076 64.350799 
L 64.957985 64.287158 
L 64.795894 64.223517 
L 64.633803 64.159876 
L 64.471713 64.096235 
L 64.163775 64.025154 
L 63.855838 63.954073 
L 63.655667 63.933933 
L 63.455496 63.913793 
L 63.255325 63.893652 
L 63.055154 63.873512 
L 62.854983 63.853372 
L 62.654813 63.833232 
L 62.454642 63.813091 
L 62.254471 63.792951 
L 62.0543 63.772811 
L 61.854129 63.75267 
L 61.653958 63.73253 
L 61.453787 63.71239 
L 61.253616 63.69225 
L 61.053445 63.672109 
L 60.853274 63.651969 
L 60.653103 63.631829 
L 60.451755 63.64014 
L 60.250407 63.648451 
L 60.049059 63.656762 
L 59.847711 63.665074 
L 59.646363 63.673385 
L 59.445015 63.681696 
L 59.243667 63.690007 
L 59.042318 63.698318 
L 58.814191 63.723061 
L 58.586063 63.747803 
L 58.357935 63.772545 
L 58.129807 63.797287 
L 57.938318 63.818076 
L 57.746828 63.838864 
L 57.555339 63.859653 
L 57.363849 63.880442 
L 57.172359 63.90123 
L 56.98087 63.922019 
L 56.78938 63.942807 
L 56.59789 63.963596 
L 56.305344 64.012145 
L 56.012798 64.060694 
L 55.720252 64.109244 
L 55.427706 64.157793 
L 55.135159 64.206342 
L 54.842613 64.254891 
L 54.550067 64.30344 
L 54.257521 64.35199 
L 54.036073 64.411231 
L 53.814626 64.470472 
L 53.593178 64.529713 
L 53.37173 64.588954 
L 53.150283 64.648195 
L 52.928835 64.707436 
L 52.707388 64.766677 
L 52.48594 64.825918 
L 52.217084 64.956198 
L 51.948227 65.086477 
L 51.679371 65.216757 
L 51.410514 65.347036 
L 51.141658 65.477315 
L 50.872801 65.607595 
L 50.603945 65.737874 
L 50.335088 65.868154 
L 50.210313 65.964402 
L 50.003255 66.124121 
L 49.796198 66.28384 
L 49.589141 66.443559 
L 49.382084 66.603279 
L 49.175027 66.762998 
L 48.96797 66.922717 
L 48.760912 67.082436 
L 48.553855 67.242156 
L 48.372724 67.425066 
L 48.191594 67.607975 
L 48.010463 67.790885 
L 47.829332 67.973795 
L 47.648201 68.156705 
L 47.46707 68.339615 
L 47.285939 68.522524 
L 47.104808 68.705434 
" style="fill:none;stroke:#000000;stroke-linecap:square;stroke-width:0.4;"/>
   </g>
   <g id="line2d_41">
    <path clip-path="url(#p65aff20497)" d="M 22.572008 47.346842 
L 22.513034 47.510557 
L 22.45406 47.674272 
L 22.395085 47.837988 
L 22.336111 48.001703 
L 22.253182 48.175792 
L 22.170254 48.34988 
L 22.087325 48.523969 
L 22.004396 48.698057 
L 21.942832 48.873378 
L 21.881268 49.0487 
L 21.819704 49.224021 
L 21.75814 49.399342 
L 21.673152 49.694039 
L 21.658908 49.916209 
L 21.644665 50.138379 
L 21.668325 50.361059 
L 21.691986 50.583739 
L 21.715646 50.806419 
L 21.739306 51.029099 
L 21.727064 51.238091 
L 21.714822 51.447082 
L 21.697754 51.609692 
L 21.680685 51.772302 
L 21.663617 51.934912 
L 21.646548 52.097522 
" style="fill:none;stroke:#008000;stroke-linecap:square;stroke-width:0.4;"/>
   </g>
   <g id="line2d_42">
    <path clip-path="url(#p65aff20497)" d="M 51.548003 16.22382 
L 51.379938 16.315924 
L 51.211874 16.408027 
L 51.043809 16.50013 
L 50.875744 16.592233 
L 50.707679 16.684336 
L 50.539615 16.77644 
L 50.37155 16.868543 
L 50.203485 16.960646 
L 50.051312 17.046521 
L 49.899138 17.132396 
L 49.746965 17.218272 
L 49.594791 17.304147 
L 49.442618 17.390022 
L 49.290444 17.475897 
L 49.138271 17.561772 
L 48.986097 17.647647 
L 48.833924 17.733522 
L 48.68175 17.819398 
L 48.529577 17.905273 
L 48.377404 17.991148 
L 48.22523 18.077023 
L 48.073057 18.162898 
L 47.920883 18.248773 
L 47.76871 18.334648 
L 47.553177 18.443608 
L 47.337645 18.552567 
L 47.122112 18.661527 
L 46.90658 18.770486 
L 46.728951 18.846286 
L 46.551322 18.922085 
L 46.373693 18.997885 
L 46.196064 19.073685 
L 45.921322 18.993166 
L 45.64658 18.912648 
L 45.472482 18.811085 
L 45.298385 18.709523 
L 45.124287 18.607961 
L 44.95019 18.506399 
" style="fill:none;stroke:#000000;stroke-linecap:square;stroke-width:0.4;"/>
   </g>
   <g id="line2d_43">
    <path clip-path="url(#p65aff20497)" d="M 56.044639 59.802478 
L 55.768132 59.753929 
L 55.491624 59.705379 
L 55.202344 59.654535 
L 54.913064 59.60369 
L 54.623785 59.552845 
L 54.334505 59.502 
L 54.054996 59.46884 
L 53.775486 59.43568 
L 53.495977 59.402521 
L 53.216467 59.369361 
L 52.958322 59.39304 
L 52.700178 59.41672 
L 52.442033 59.440399 
L 52.183889 59.464079 
L 51.946991 59.4333 
L 51.710094 59.402521 
L 51.473196 59.371742 
L 51.236299 59.340963 
L 51.061245 59.298046 
L 50.886191 59.25513 
L 50.711137 59.212214 
L 50.536083 59.169297 
L 50.361029 59.126381 
L 50.185975 59.083465 
L 50.010921 59.040549 
L 49.835868 58.997632 
L 49.660814 58.954716 
L 49.48576 58.9118 
L 49.310706 58.868883 
L 49.135652 58.825967 
L 48.960598 58.783051 
L 48.785544 58.740134 
L 48.61049 58.697218 
L 48.435436 58.654302 
" style="fill:none;stroke:#4169e1;stroke-linecap:square;stroke-width:0.4;"/>
   </g>
   <g id="line2d_44">
    <path clip-path="url(#p65aff20497)" d="M 53.97242 29.724073 
L 53.788317 29.516187 
L 53.604214 29.308301 
L 53.42011 29.100415 
L 53.236007 28.892529 
L 53.051904 28.684643 
L 52.867801 28.476757 
L 52.683698 28.268872 
L 52.499595 28.060986 
L 52.333796 27.948455 
L 52.167997 27.835925 
L 52.002199 27.723394 
L 51.8364 27.610864 
L 51.670601 27.498333 
L 51.504802 27.385803 
L 51.339004 27.273273 
L 51.173205 27.160742 
L 50.978978 27.039922 
L 50.784752 26.919101 
L 50.590526 26.798281 
L 50.396299 26.677461 
L 50.281411 26.537701 
L 50.166523 26.397941 
L 50.051635 26.258182 
L 49.936748 26.118422 
L 49.82186 25.978662 
L 49.706972 25.838903 
L 49.592084 25.699143 
L 49.477196 25.559383 
L 49.32205 25.435013 
L 49.166905 25.310643 
L 49.011759 25.186273 
L 48.856613 25.061903 
L 48.701467 24.937533 
L 48.546322 24.813162 
L 48.391176 24.688792 
L 48.23603 24.564422 
L 48.041245 24.415671 
L 47.846459 24.26692 
L 47.651674 24.118169 
L 47.456888 23.969418 
L 47.262102 23.820667 
L 47.067317 23.671916 
L 46.872531 23.523165 
L 46.677746 23.374414 
L 46.465038 23.203556 
L 46.252331 23.032699 
L 46.039624 22.861841 
L 45.826916 22.690984 
L 45.614209 22.520126 
L 45.401501 22.349269 
L 45.188794 22.178411 
L 44.976087 22.007554 
L 44.868909 21.830022 
L 44.761731 21.65249 
L 44.654554 21.474958 
L 44.547376 21.297426 
L 44.550731 21.059569 
L 44.554086 20.821711 
L 44.55744 20.583854 
L 44.560795 20.345997 
L 44.611029 20.170102 
L 44.661263 19.994207 
L 44.711497 19.818311 
L 44.761731 19.642416 
L 44.811965 19.466521 
L 44.862199 19.290626 
L 44.912433 19.11473 
L 44.962667 18.938835 
L 44.956429 18.722617 
L 44.95019 18.506399 
L 44.943009 18.260337 
L 44.935829 18.014275 
L 44.811936 17.85345 
L 44.688043 17.692625 
L 44.56415 17.531801 
L 44.440257 17.370976 
L 44.245471 17.245012 
L 44.050686 17.119047 
L 43.8559 16.993083 
L 43.661115 16.867119 
L 43.466329 16.741154 
L 43.271544 16.61519 
L 43.076758 16.489226 
L 42.881972 16.363261 
" style="fill:none;stroke:#000000;stroke-linecap:square;stroke-width:0.4;"/>
   </g>
   <g id="line2d_45">
    <path clip-path="url(#p65aff20497)" d="M 47.086681 42.603643 
L 47.278317 42.404175 
L 47.469954 42.204706 
L 47.698435 42.005578 
L 47.926916 41.80645 
L 48.155397 41.607321 
L 48.383878 41.408193 
L 48.580458 41.216462 
L 48.777039 41.024731 
L 48.97362 40.833 
L 49.170201 40.641268 
L 49.241535 40.559645 
L 49.376551 40.416803 
L 49.511568 40.273961 
L 49.692846 40.206791 
L 49.874124 40.139622 
L 50.107196 40.013785 
L 50.231383 39.812701 
L 50.35557 39.611617 
L 50.479758 39.410533 
L 50.603945 39.209449 
L 50.751086 39.069158 
L 50.898227 38.928867 
L 51.045369 38.788576 
L 51.19251 38.648285 
L 51.278146 38.501405 
L 51.363782 38.354524 
L 51.449418 38.207644 
L 51.535055 38.060763 
L 51.620691 37.913883 
L 51.706327 37.767002 
L 51.791963 37.620122 
L 51.877599 37.473241 
L 51.934984 37.284273 
L 51.99237 37.095305 
L 52.049755 36.906338 
L 52.10714 36.71737 
L 52.164525 36.528402 
L 52.22191 36.339434 
L 52.279295 36.150466 
L 52.33668 35.961499 
L 52.389945 35.747873 
L 52.44321 35.534248 
L 52.496475 35.320623 
L 52.549741 35.106998 
L 52.603006 34.893373 
L 52.656271 34.679748 
L 52.709536 34.466123 
L 52.762801 34.252498 
L 52.818568 34.074265 
L 52.874334 33.896031 
L 52.930101 33.717798 
L 52.985867 33.539565 
L 53.041634 33.361331 
L 53.0974 33.183098 
L 53.153167 33.004864 
L 53.208933 32.826631 
L 53.2647 32.648397 
L 53.320466 32.470164 
L 53.376233 32.291931 
L 53.431999 32.113697 
L 53.487766 31.935464 
L 53.543533 31.75723 
L 53.599299 31.578997 
L 53.655066 31.400763 
L 53.694735 31.191177 
L 53.734404 30.981591 
L 53.774073 30.772004 
L 53.813743 30.562418 
L 53.853412 30.352832 
L 53.893081 30.143245 
L 53.932751 29.933659 
L 53.97242 29.724073 
L 54.046108 29.429886 
L 54.119797 29.1357 
L 54.193485 28.841514 
L 54.267173 28.547328 
L 54.286596 28.383868 
L 54.306018 28.220407 
L 54.325441 28.056947 
L 54.344864 27.893487 
L 54.364286 27.730026 
L 54.383709 27.566566 
L 54.403132 27.403106 
L 54.422554 27.239645 
L 54.42432 27.071721 
L 54.426086 26.903797 
L 54.427851 26.735873 
L 54.429617 26.567949 
L 54.431383 26.400024 
L 54.433149 26.2321 
L 54.434914 26.064176 
L 54.43668 25.896252 
L 54.456397 25.690917 
L 54.476114 25.485582 
L 54.495831 25.280247 
L 54.515548 25.074912 
L 54.535265 24.869576 
L 54.554981 24.664241 
L 54.574698 24.458906 
L 54.594415 24.253571 
L 54.604421 24.011675 
L 54.614427 23.769779 
L 54.624432 23.527884 
L 54.634438 23.285988 
" style="fill:none;stroke:#4169e1;stroke-linecap:square;stroke-width:0.4;"/>
   </g>
   <g id="line2d_46">
    <path clip-path="url(#p65aff20497)" d="M 64.644515 57.216191 
L 64.230872 56.638617 
L 63.669616 55.648247 
L 61.447519 53.570855 
L 60.911365 53.179889 
L 60.730794 52.223359 
L 60.390603 51.84925 
L 60.374123 51.230268 
L 61.238137 49.66581 
L 61.285222 48.441452 
L 60.875581 48.00655 
L 59.867957 47.166079 
L 59.220536 46.439966 
L 59.165211 45.349097 
L 59.085166 44.921421 
L 58.829729 43.974244 
L 58.935671 43.559323 
L 59.353552 43.057676 
L 59.439482 42.889327 
L 59.385334 42.73118 
L 58.840323 42.073938 
L 58.643742 41.566339 
L 58.773227 41.044286 
L 58.929785 40.585152 
L 58.987464 40.018886 
L 58.796769 39.437316 
L 58.523675 39.130376 
L 58.097554 38.772421 
L 58.06224 38.063314 
L 58.482475 36.690162 
L 58.507195 36.493754 
L 58.032812 36.083934 
L 57.691444 35.787197 
L 57.599628 35.443697 
L 57.666724 34.978611 
L 58.022218 34.414896 
L 58.077543 34.022081 
L 58.06224 32.914206 
L 57.886848 32.450821 
L 57.126422 31.318289 
L 56.795648 29.200319 
L 57.165267 28.259944 
L 57.022246 27.833969 
L 56.694415 27.108707 
L 56.835671 26.637669 
L 56.908653 26.122418 
L 56.673227 25.860542 
L 55.793911 25.406509 
L 55.306579 25.016244 
L 54.959914 24.449553 
L 54.634438 23.285988 
L 54.634438 23.285988 
" style="fill:none;stroke:#008000;stroke-linecap:square;stroke-width:0.4;"/>
   </g>
   <g id="line2d_47">
    <path clip-path="url(#p65aff20497)" d="M 18.90619 26.329879 
L 18.941504 26.159829 
L 19.026257 25.940465 
L 19.18517 25.843537 
L 19.344082 25.746608 
L 19.563028 25.758512 
L 19.687804 25.885199 
L 19.81258 26.011886 
L 20.045652 26.160679 
L 20.278723 26.309473 
L 20.561235 26.365589 
L 20.744867 26.330729 
L 20.928499 26.295869 
L 21.086235 26.209144 
L 21.24397 26.122418 
L 21.388168 25.909856 
L 21.532367 25.697294 
L 21.676565 25.484732 
L 21.820764 25.272169 
L 21.953779 24.997539 
L 22.086795 24.722908 
L 22.193914 24.535854 
L 22.301033 24.348799 
L 22.321632 24.145589 
L 22.342232 23.94238 
L 22.362832 23.73917 
L 22.383432 23.535961 
L 22.422277 23.306394 
L 22.461122 23.076827 
L 22.505265 22.918255 
L 22.549407 22.759684 
L 22.593549 22.601112 
L 22.637692 22.442541 
L 22.738925 22.240182 
L 22.840158 22.037822 
L 23.024968 21.89328 
L 23.209777 21.748738 
L 23.347501 21.609297 
L 23.485225 21.469856 
L 23.62295 21.299806 
L 23.760674 21.129757 
L 23.820707 20.979263 
L 23.880741 20.828768 
L 24.007871 20.599201 
L 24.09851 20.464862 
L 24.189149 20.330523 
L 24.442232 20.213188 
L 24.695315 20.095854 
L 24.87365 20.04824 
L 25.051985 20.000626 
L 25.230321 19.953012 
L 25.408656 19.905398 
L 25.601116 19.873939 
L 25.793577 19.84248 
L 25.986038 19.811021 
L 26.178499 19.779561 
" style="fill:none;stroke:#4169e1;stroke-linecap:square;stroke-width:0.4;"/>
   </g>
   <g id="line2d_48">
    <path clip-path="url(#p65aff20497)" d="M 25.669272 33.185096 
L 25.680543 32.920179 
L 25.691814 32.655263 
L 25.703085 32.390347 
L 25.714356 32.125431 
L 25.725627 31.860514 
L 25.736898 31.595598 
L 25.748169 31.330682 
L 25.75944 31.065765 
L 25.746198 30.870208 
L 25.732955 30.674651 
L 25.719712 30.479094 
L 25.70647 30.283536 
L 25.693227 30.087979 
L 25.679984 29.892422 
L 25.666741 29.696865 
L 25.653499 29.501307 
L 25.63231 29.289383 
L 25.611122 29.077458 
L 25.589934 28.865534 
L 25.568745 28.653609 
L 25.547557 28.441685 
L 25.526369 28.22976 
L 25.50518 28.017836 
L 25.483992 27.805911 
L 25.45221 27.641813 
L 25.420427 27.477715 
L 25.388644 27.313617 
L 25.356862 27.149519 
L 25.327139 26.956725 
L 25.297417 26.763931 
L 25.267694 26.571137 
L 25.237972 26.378343 
L 25.208249 26.185549 
L 25.178527 25.992755 
L 25.148804 25.799961 
L 25.119082 25.607167 
L 25.113785 25.341039 
L 25.108488 25.074912 
L 25.10319 24.808784 
L 25.097893 24.542656 
L 25.120435 24.342125 
L 25.142977 24.141593 
L 25.16552 23.941062 
L 25.188062 23.740531 
L 25.218579 23.468813 
L 25.249096 23.197094 
L 25.279613 22.925376 
L 25.31013 22.653658 
L 25.340647 22.381939 
L 25.371164 22.110221 
L 25.401681 21.838503 
L 25.432198 21.566785 
L 25.486935 21.356773 
L 25.541671 21.146762 
L 25.596408 20.93675 
L 25.651144 20.726739 
L 25.737075 20.589849 
L 25.823005 20.452958 
L 25.911879 20.284609 
L 26.000752 20.11626 
L 26.089625 19.947911 
L 26.178499 19.779561 
" style="fill:none;stroke:#4169e1;stroke-linecap:square;stroke-width:0.4;"/>
   </g>
   <g id="line2d_49">
    <path clip-path="url(#p65aff20497)" d="M 33.319204 13.304066 
L 33.552158 13.266655 
L 33.785112 13.229244 
L 34.019361 13.129765 
L 34.25361 13.030286 
L 34.542595 12.923154 
L 34.831581 12.816023 
L 35.120566 12.708891 
L 35.409552 12.60176 
L 35.642623 12.604311 
L 35.875695 12.606862 
L 36.034019 12.662553 
L 36.192343 12.718244 
L 36.350667 12.773935 
L 36.508991 12.829627 
L 36.657604 12.904449 
L 36.806216 12.979271 
L 36.954829 13.054093 
L 37.103442 13.128914 
L 37.252054 13.203736 
L 37.400667 13.278558 
L 37.54928 13.35338 
L 37.697892 13.428202 
L 37.840914 13.528106 
L 37.983935 13.628011 
L 38.126956 13.727915 
L 38.269977 13.827819 
L 38.457141 13.940477 
L 38.644305 14.053135 
L 38.831468 14.165793 
L 39.018632 14.278451 
L 39.198733 14.366877 
L 39.378834 14.455303 
L 39.558935 14.543729 
L 39.739036 14.632154 
L 39.919136 14.72058 
L 40.099237 14.809006 
L 40.279338 14.897432 
L 40.459439 14.985858 
L 40.614232 15.07726 
L 40.769024 15.168662 
L 40.923817 15.260063 
L 41.078609 15.351465 
L 41.282841 15.452645 
L 41.487073 15.553824 
L 41.691306 15.655004 
L 41.895538 15.756184 
" style="fill:none;stroke:#000000;stroke-linecap:square;stroke-width:0.4;"/>
   </g>
   <g id="line2d_50">
    <path clip-path="url(#p65aff20497)" d="M 26.178499 19.779561 
L 26.306924 19.567254 
L 26.435348 19.354947 
L 26.452064 19.140514 
L 26.468779 18.926081 
L 26.4018 18.708333 
L 26.334822 18.490584 
L 26.267843 18.287885 
L 26.200864 18.085185 
L 26.133885 17.882486 
L 26.066907 17.679787 
L 25.979799 17.388321 
L 25.892692 17.096856 
L 25.91953 16.88914 
L 25.946369 16.681424 
L 26.060256 16.497175 
L 26.174143 16.312927 
L 26.288031 16.128678 
L 26.401918 15.944429 
L 26.578252 15.745555 
L 26.754586 15.546682 
L 26.93092 15.347809 
L 27.107254 15.148936 
L 27.37099 15.0776 
L 27.634726 15.006264 
L 27.898462 14.934928 
L 28.162198 14.863592 
L 28.346919 14.862402 
L 28.53164 14.861212 
L 28.716361 14.860021 
L 28.901083 14.858831 
L 29.085804 14.85764 
L 29.270525 14.85645 
L 29.455246 14.85526 
L 29.639967 14.854069 
L 29.928894 14.825671 
L 30.21782 14.797273 
L 30.506747 14.768874 
L 30.795673 14.740476 
L 30.999375 14.662296 
L 31.203078 14.584115 
L 31.40678 14.505935 
L 31.610482 14.427755 
L 31.868627 14.257195 
L 32.126772 14.086635 
L 32.384916 13.916075 
L 32.643061 13.745515 
L 32.812097 13.635153 
L 32.981133 13.52479 
L 33.150168 13.414428 
L 33.319204 13.304066 
" style="fill:none;stroke:#4169e1;stroke-linecap:square;stroke-width:0.4;"/>
   </g>
   <g id="line2d_51">
    <path clip-path="url(#p65aff20497)" d="M 48.141624 11.921391 
L 47.889719 12.086764 
L 47.637813 12.252138 
L 47.385907 12.417511 
L 47.134001 12.582885 
L 47.039242 12.715566 
L 46.944483 12.848247 
L 46.849724 12.980929 
L 46.754965 13.11361 
L 46.603351 13.326767 
L 46.451737 13.539925 
L 46.191238 13.611006 
L 45.930739 13.682086 
L 45.710469 13.773297 
L 45.490198 13.864507 
L 45.269928 13.955718 
L 45.049657 14.046928 
L 44.829387 14.138139 
L 44.609116 14.229349 
L 44.388846 14.32056 
L 44.168575 14.41177 
L 43.957751 14.584711 
L 43.746928 14.757651 
L 43.536104 14.930592 
L 43.32528 15.103532 
L 43.11422 15.306572 
L 42.903161 15.509611 
" style="fill:none;stroke:#000000;stroke-linecap:square;stroke-width:0.4;"/>
   </g>
   <g id="line2d_52">
    <path clip-path="url(#p65aff20497)" d="M 50.137566 42.843073 
L 50.232972 42.991144 
L 50.328379 43.139215 
L 50.423785 43.287286 
L 50.519191 43.435356 
L 50.65515 43.646558 
L 50.791108 43.85776 
L 50.91406 44.107946 
L 51.037011 44.358132 
L 51.159962 44.608317 
L 51.282913 44.858503 
L 51.324819 45.134876 
L 51.366725 45.41125 
L 51.408631 45.687623 
L 51.450537 45.963997 
L 51.505156 46.184126 
L 51.559774 46.404256 
L 51.625694 46.669958 
L 51.691613 46.935661 
L 51.840667 47.123269 
L 51.989721 47.310876 
L 52.138775 47.498483 
L 52.287829 47.686091 
L 52.436883 47.873698 
L 52.585937 48.061306 
L 52.734991 48.248913 
L 52.884046 48.43652 
L 53.028126 48.635861 
L 53.172207 48.835202 
L 53.316288 49.034543 
L 53.460368 49.233884 
L 53.523933 49.538698 
L 53.587498 49.843512 
L 53.47367 50.111511 
L 53.359841 50.379509 
L 53.297866 50.619067 
L 53.23589 50.858625 
L 53.173914 51.098182 
L 53.111938 51.33774 
L 53.195691 51.510255 
L 53.279443 51.682771 
L 53.363196 51.855286 
L 53.446949 52.027802 
L 53.470374 52.315951 
L 53.493799 52.604101 
L 53.592619 52.795066 
L 53.691439 52.986032 
L 53.790259 53.176998 
L 53.889079 53.367964 
L 53.969477 53.635963 
L 54.049875 53.903961 
L 54.130273 54.17196 
L 54.210671 54.439958 
L 54.218087 54.649714 
L 54.225503 54.859471 
L 54.232919 55.069227 
L 54.240335 55.278984 
" style="fill:none;stroke:#4169e1;stroke-linecap:square;stroke-width:0.4;"/>
   </g>
   <g id="line2d_53">
    <path clip-path="url(#p65aff20497)" d="M 68.061488 56.696178 
L 67.972556 56.849138 
L 67.883624 57.002098 
L 67.794692 57.155058 
L 67.705759 57.308018 
L 67.566034 57.433599 
L 67.426309 57.559181 
L 67.286583 57.684763 
L 67.146858 57.810345 
L 66.978646 57.886144 
L 66.810434 57.961944 
L 66.642222 58.037744 
L 66.474011 58.113543 
L 66.310566 58.054324 
L 66.147122 57.995104 
L 65.983677 57.935884 
L 65.820233 57.876664 
L 65.673268 57.794105 
L 65.526303 57.711546 
L 65.379339 57.628987 
L 65.232374 57.546427 
L 65.085409 57.463868 
L 64.938445 57.381309 
L 64.79148 57.29875 
L 64.644515 57.216191 
L 64.438518 57.173189 
L 64.23252 57.130188 
L 64.026522 57.087187 
L 63.820524 57.044185 
L 63.614527 57.001184 
L 63.408529 56.958183 
L 63.202531 56.915181 
L 62.996533 56.87218 
L 62.804455 56.861722 
L 62.612377 56.851264 
L 62.420299 56.840806 
L 62.228221 56.830348 
L 62.036142 56.81989 
L 61.844064 56.809432 
L 61.651986 56.798974 
L 61.459908 56.788515 
L 61.252203 56.81532 
L 61.044499 56.842124 
L 60.836794 56.868928 
L 60.62909 56.895732 
L 60.421385 56.922536 
L 60.21368 56.94934 
L 60.005976 56.976144 
L 59.798271 57.002948 
L 59.622173 57.048437 
L 59.446074 57.093925 
L 59.21777 57.152932 
L 58.989465 57.211939 
L 58.761161 57.270947 
L 58.532857 57.329954 
L 58.364645 57.325235 
L 58.196433 57.320516 
L 58.028221 57.315797 
L 57.860009 57.311078 
L 57.577086 57.208453 
L 57.294163 57.105828 
L 57.01124 57.003203 
L 56.728316 56.900578 
L 56.53821 56.782479 
L 56.348103 56.664379 
L 56.157997 56.54628 
L 55.967891 56.42818 
L 55.777784 56.31008 
L 55.587678 56.191981 
L 55.397571 56.073881 
L 55.207465 55.955782 
L 54.965682 55.786582 
L 54.7239 55.617383 
L 54.482117 55.448183 
L 54.240335 55.278984 
" style="fill:none;stroke:#4169e1;stroke-linecap:square;stroke-width:0.4;"/>
   </g>
   <g id="line2d_54">
    <path clip-path="url(#p65aff20497)" d="M 18.129284 57.528912 
L 17.894976 57.472392 
L 17.660669 57.415872 
L 17.426361 57.359351 
L 17.192053 57.302831 
L 16.957746 57.246311 
L 16.723438 57.18979 
L 16.48913 57.13327 
L 16.254822 57.07675 
L 16.096704 57.042506 
L 15.938587 57.008262 
L 15.780469 56.974019 
L 15.622351 56.939775 
L 15.464233 56.905531 
L 15.306115 56.871287 
L 15.147997 56.837043 
L 14.989879 56.8028 
L 14.825625 56.767217 
L 14.661371 56.731634 
L 14.497117 56.696051 
L 14.332864 56.660468 
L 14.16861 56.624885 
L 14.004356 56.589302 
L 13.840102 56.553719 
L 13.675848 56.518136 
L 13.511595 56.482553 
L 13.347341 56.446971 
L 13.183087 56.411388 
L 13.018833 56.375805 
L 12.85458 56.340222 
L 12.690326 56.304639 
L 12.526072 56.269056 
L 12.361818 56.233473 
L 12.151671 56.193788 
L 11.941524 56.154102 
L 11.731377 56.114417 
L 11.52123 56.074732 
L 11.311083 56.035046 
L 11.100936 55.995361 
L 10.890789 55.955675 
L 10.680641 55.91599 
L 10.470494 55.876305 
L 10.260347 55.836619 
L 10.0502 55.796934 
L 9.840053 55.757249 
L 9.629906 55.717563 
L 9.419759 55.677878 
L 9.209612 55.638192 
L 8.999464 55.598507 
L 8.743733 55.554698 
L 8.488001 55.510889 
L 8.23227 55.46708 
L 7.976538 55.423271 
L 7.720807 55.379462 
L 7.465076 55.335653 
L 7.209344 55.291844 
L 6.953613 55.248035 
L 6.783105 55.235004 
L 6.612598 55.221974 
L 6.442091 55.208944 
L 6.271583 55.195914 
L 6.101076 55.182884 
L 5.930569 55.169854 
L 5.760062 55.156824 
L 5.589554 55.143794 
L 5.397623 55.138225 
L 5.205692 55.132656 
L 5.013761 55.127087 
L 4.82183 55.121517 
L 4.629899 55.115948 
L 4.437968 55.110379 
L 4.246037 55.10481 
L 4.054106 55.099241 
" style="fill:none;stroke:#000000;stroke-linecap:square;stroke-width:0.4;"/>
   </g>
   <g id="line2d_55">
    <path clip-path="url(#p65aff20497)" d="M 50.714595 61.85838 
L 50.539497 61.752566 
L 50.364399 61.646753 
L 50.189301 61.540939 
L 50.014203 61.435126 
L 49.812855 61.271665 
L 49.611507 61.108205 
L 49.410159 60.944745 
L 49.20881 60.781284 
L 49.04775 60.720874 
L 48.886689 60.660464 
L 48.725628 60.600054 
L 48.564567 60.539644 
L 48.403506 60.479233 
L 48.242446 60.418823 
L 48.081385 60.358413 
L 47.920324 60.298003 
L 47.703144 60.224881 
L 47.485963 60.15176 
L 47.268783 60.078639 
L 47.051602 60.005517 
" style="fill:none;stroke:#4169e1;stroke-linecap:square;stroke-width:0.4;"/>
   </g>
   <g id="line2d_56">
    <path clip-path="url(#p65aff20497)" d="M 14.989879 56.8028 
L 14.812117 56.870894 
L 14.634356 56.938988 
L 14.456595 57.007083 
L 14.278833 57.075177 
L 14.101072 57.143271 
L 13.923311 57.211366 
L 13.745549 57.27946 
L 13.567788 57.347554 
L 13.390027 57.415648 
L 13.212265 57.483743 
L 13.034504 57.551837 
L 12.856743 57.619931 
L 12.678981 57.688026 
L 12.50122 57.75612 
L 12.323459 57.824214 
L 12.145697 57.892309 
L 11.901811 57.989439 
L 11.657924 58.086569 
L 11.414037 58.1837 
L 11.170151 58.28083 
L 10.926264 58.37796 
L 10.682378 58.47509 
L 10.438491 58.572221 
L 10.194604 58.669351 
L 9.950718 58.766481 
L 9.706831 58.863612 
L 9.462945 58.960742 
L 9.219058 59.057872 
L 8.975171 59.155003 
L 8.731285 59.252133 
L 8.487398 59.349263 
L 8.243512 59.446394 
L 8.019739 59.543513 
L 7.795967 59.640633 
L 7.572194 59.737753 
L 7.348422 59.834872 
L 7.12465 59.931992 
L 6.900877 60.029112 
L 6.677105 60.126231 
L 6.453332 60.223351 
L 6.22956 60.320471 
L 6.005788 60.41759 
L 5.782015 60.51471 
L 5.558243 60.61183 
L 5.33447 60.708949 
L 5.110698 60.806069 
L 4.886926 60.903189 
L 4.663153 61.000308 
L 4.468986 61.061909 
L 4.274818 61.12351 
L 4.08065 61.18511 
L 3.886483 61.246711 
" style="fill:none;stroke:#000000;stroke-linecap:square;stroke-width:0.4;"/>
   </g>
   <g id="line2d_57">
    <path clip-path="url(#p65aff20497)" d="M 29.411604 45.252678 
L 29.259371 45.192821 
L 29.107139 45.132963 
L 28.954907 45.073106 
L 28.802674 45.013248 
L 28.650442 44.953391 
L 28.49821 44.893533 
L 28.345977 44.833676 
L 28.193745 44.773818 
L 27.997164 44.546419 
L 27.800584 44.31902 
L 27.604003 44.091621 
L 27.407422 43.864222 
L 27.303217 43.640351 
L 27.199011 43.416481 
L 27.094806 43.19261 
L 26.990601 42.96874 
L 26.886395 42.744869 
L 26.78219 42.520999 
L 26.677984 42.297128 
L 26.573779 42.073258 
L 26.557211 41.813868 
L 26.540643 41.554478 
L 26.524075 41.295089 
L 26.507506 41.035699 
L 26.490938 40.776309 
L 26.47437 40.51692 
L 26.457802 40.25753 
L 26.441234 39.99814 
L 26.448326 39.80981 
L 26.455418 39.62148 
L 26.462511 39.43315 
L 26.469603 39.24482 
L 26.476695 39.05649 
L 26.483787 38.868159 
L 26.49088 38.679829 
L 26.497972 38.491499 
L 26.578487 38.218654 
L 26.659003 37.945809 
L 26.704028 37.793232 
L 26.749054 37.640655 
L 26.794079 37.488078 
L 26.839104 37.335501 
L 26.853288 37.115159 
L 26.867473 36.894817 
L 26.881657 36.674475 
L 26.895842 36.454133 
L 26.829569 36.224353 
L 26.763297 35.994573 
L 26.697024 35.764793 
L 26.630752 35.535014 
L 26.575103 35.371575 
L 26.519454 35.208135 
L 26.463806 35.044696 
L 26.408157 34.881257 
L 26.352508 34.717818 
L 26.296859 34.554379 
L 26.24121 34.39094 
L 26.185561 34.227501 
L 26.056489 33.9669 
L 25.927417 33.706298 
L 25.798345 33.445697 
L 25.669272 33.185096 
" style="fill:none;stroke:#000000;stroke-linecap:square;stroke-width:0.4;"/>
   </g>
   <g id="line2d_58">
    <path clip-path="url(#p65aff20497)" d="M 60.168832 66.736088 
L 59.945883 66.618711 
L 59.722935 66.501334 
L 59.499987 66.383957 
L 59.277038 66.26658 
L 59.11792 66.228064 
L 58.958801 66.189548 
L 58.799683 66.151031 
L 58.640564 66.112515 
L 58.481445 66.073999 
L 58.322327 66.035482 
L 58.163208 65.996966 
L 58.00409 65.95845 
L 57.776315 66.007084 
L 57.548541 66.055718 
L 57.273798 66.114301 
L 56.999056 66.172883 
L 56.819838 66.172883 
L 56.64062 66.172883 
L 56.461402 66.172883 
L 56.282184 66.172883 
L 56.102966 66.172883 
L 55.923748 66.172883 
L 55.74453 66.172883 
L 55.565312 66.172883 
L 55.376059 66.09415 
L 55.186806 66.015417 
L 54.997553 65.936684 
L 54.8083 65.857951 
L 54.619047 65.779217 
L 54.429794 65.700484 
L 54.240541 65.621751 
L 54.051288 65.543018 
L 53.823513 65.536301 
L 53.595738 65.529584 
L 53.367964 65.522867 
L 53.140189 65.51615 
L 52.942725 65.622772 
L 52.745262 65.729393 
L 52.547798 65.836014 
L 52.350335 65.942635 
L 52.151341 66.027915 
L 51.952347 66.113195 
L 51.753353 66.198475 
L 51.55436 66.283755 
L 51.360133 66.286136 
L 51.165907 66.288517 
L 50.97168 66.290897 
L 50.777454 66.293278 
L 50.540615 66.155878 
L 50.30566 66.019668 
L 50.210313 65.964402 
" style="fill:none;stroke:#000000;stroke-linecap:square;stroke-width:0.4;"/>
   </g>
   <g id="line2d_59">
    <path clip-path="url(#p65aff20497)" d="M 28.96453 45.828807 
L 28.735225 45.824386 
L 28.624575 45.933218 
L 28.435057 46.185742 
L 28.245539 46.438266 
L 28.091335 46.695041 
L 27.937131 46.951816 
L 27.881217 47.152475 
L 27.825303 47.353133 
L 27.76939 47.553792 
L 27.713476 47.754451 
L 27.689345 48.04311 
L 27.665214 48.33177 
L 27.641083 48.620429 
L 27.616951 48.909089 
L 27.62578 49.122926 
L 27.634608 49.336764 
L 27.643437 49.550602 
L 27.652265 49.764439 
L 27.734664 50.019514 
L 27.915942 50.150452 
" style="fill:none;stroke:#008000;stroke-linecap:square;stroke-width:0.4;"/>
   </g>
   <g id="line2d_60">
    <path clip-path="url(#p65aff20497)" d="M 21.328723 46.41786 
L 21.298118 46.24781 
L 21.267513 46.07776 
L 21.154861 45.85457 
L 21.04221 45.631379 
L 20.929559 45.408189 
L 20.816907 45.184999 
L 20.69425 44.98621 
L 20.593517 44.852126 
L 20.492785 44.718042 
L 20.392052 44.583958 
L 20.291319 44.449873 
L 20.190586 44.315789 
L 20.089853 44.181705 
L 19.98912 44.047621 
L 19.888387 43.913536 
L 19.794217 43.764743 
L 19.700046 43.615949 
" style="fill:none;stroke:#008000;stroke-linecap:square;stroke-width:0.4;"/>
   </g>
  </g>
 </g>
 <defs>
  <clipPath id="p65aff20497">
   <rect height="82.140608" width="72" x="0" y="0"/>
  </clipPath>
 </defs>
</svg>
