<?xml version="1.0" encoding="utf-8" standalone="no"?>
<!DOCTYPE svg PUBLIC "-//W3C//DTD SVG 1.1//EN"
  "http://www.w3.org/Graphics/SVG/1.1/DTD/svg11.dtd">
<svg height="99.686106pt" version="1.1" viewBox="0 0 72 99.686106" width="72pt" xmlns="http://www.w3.org/2000/svg" xmlns:xlink="http://www.w3.org/1999/xlink">
 <metadata>
  <rdf:RDF xmlns:cc="http://creativecommons.org/ns#" xmlns:dc="http://purl.org/dc/elements/1.1/" xmlns:rdf="http://www.w3.org/1999/02/22-rdf-syntax-ns#">
   <cc:Work>
    <dc:type rdf:resource="http://purl.org/dc/dcmitype/StillImage"/>
    <dc:date>2022-04-21T17:34:33.383319</dc:date>
    <dc:format>image/svg+xml</dc:format>
    <dc:creator>
     <cc:Agent>
      <dc:title>Matplotlib v3.4.3, https://matplotlib.org/</dc:title>
     </cc:Agent>
    </dc:creator>
   </cc:Work>
  </rdf:RDF>
 </metadata>
 <defs>
  <style type="text/css">*{stroke-linecap:butt;stroke-linejoin:round;}</style>
 </defs>
 <g id="figure_1">
  <g id="patch_1">
   <path d="M 0 99.686106 
L 72 99.686106 
L 72 0 
L 0 0 
z
" style="fill:#ffffff;"/>
  </g>
  <g id="axes_1">
   <g id="line2d_1">
    <path clip-path="url(#p508cc2f48f)" d="M 20.140652 52.847644 
L 20.782575 51.301383 
L 21.237629 50.20597 
L 21.692682 49.110558 
L 22.046467 48.258422 
L 22.400252 47.406287 
L 22.74033 46.587392 
L 23.080407 45.768497 
L 23.420485 44.949602 
L 23.760562 44.130708 
L 24.381225 42.636406 
L 25.001888 41.142105 
L 25.370779 40.253598 
L 25.739671 39.36509 
L 26.101848 38.49297 
L 26.464026 37.620851 
L 26.964957 36.414591 
" style="fill:none;stroke:#808080;stroke-linecap:square;stroke-width:0.4;"/>
   </g>
   <g id="line2d_2">
    <path clip-path="url(#p508cc2f48f)" d="M 21.626662 54.505018 
L 22.017 53.758933 
L 22.407339 53.012848 
L 22.926547 52.020822 
L 23.445755 51.028795 
L 24.147544 49.687441 
L 24.849333 48.346087 
L 25.545527 47.015525 
L 26.241721 45.684962 
L 26.994983 44.245418 
L 27.748245 42.805874 
L 28.161243 42.016623 
L 28.574241 41.227372 
L 28.987239 40.43812 
L 29.400237 39.648869 
L 29.813329 38.859485 
L 30.22642 38.0701 
L 30.639511 37.280716 
L 31.052603 36.491331 
L 31.824328 35.016215 
L 32.596053 33.541099 
L 33.207205 32.373476 
L 33.818356 31.205853 
L 34.292152 30.300292 
L 34.765948 29.394732 
L 35.239744 28.489171 
L 35.71354 27.583611 
L 36.27154 26.517376 
L 36.829539 25.45114 
L 37.32096 24.511939 
L 37.81238 23.572738 
L 38.3038 22.633537 
L 38.79522 21.694336 
L 39.234794 20.854325 
L 39.674368 20.014313 
L 40.113941 19.174302 
L 40.553515 18.33429 
L 40.972202 17.53438 
L 41.390888 16.734471 
L 41.932103 15.700077 
" style="fill:none;stroke:#808080;stroke-linecap:square;stroke-width:0.4;"/>
   </g>
   <g id="line2d_3">
    <path clip-path="url(#p508cc2f48f)" d="M 17.13469 53.265984 
L 17.109327 53.041626 
L 16.951923 51.644049 
L 16.838533 50.637234 
L 16.725143 49.630419 
L 16.5959 48.483713 
L 16.466657 47.337007 
L 16.288926 45.76077 
L 16.111194 44.184532 
L 15.989784 43.107505 
L 15.868374 42.030479 
L 15.758528 41.054706 
L 15.648681 40.078934 
L 15.509367 38.844163 
L 15.370054 37.609393 
L 15.189152 36.003712 
L 15.008249 34.39803 
L 14.867071 33.145274 
L 14.725893 31.892517 
L 14.572405 30.530646 
L 14.418918 29.168775 
L 14.257412 27.734693 
L 14.095905 26.300611 
L 13.996036 25.415035 
L 13.896167 24.529459 
L 13.796297 23.643883 
L 13.696428 22.758307 
L 13.555063 21.504218 
L 13.413698 20.250129 
L 13.283803 19.097495 
L 13.153908 17.94486 
L 13.024013 16.792226 
L 12.894117 15.639591 
L 12.79229 14.733897 
L 12.76991 14.535918 
L 12.669948 13.640883 
L 12.569985 12.744715 
L 12.470023 11.848547 
L 12.37006 10.95238 
L 12.270098 10.056212 
L 12.151485 8.992241 
L 12.017394 7.790778 
L 11.883302 6.589315 
L 11.841527 6.215207 
L 11.799006 5.833105 
L 11.7397 5.301786 
" style="fill:none;stroke:#808080;stroke-linecap:square;stroke-width:0.4;"/>
   </g>
   <g id="line2d_4">
    <path clip-path="url(#p508cc2f48f)" d="M 21.81204 57.614593 
L 22.541057 56.898218 
L 23.270075 56.181844 
L 24.142882 55.324512 
L 25.015689 54.467181 
L 25.79879 53.697781 
L 26.581892 52.928381 
L 27.206471 52.314726 
L 27.83105 51.701071 
L 28.455629 51.087416 
L 29.080208 50.473761 
L 30.111911 49.460152 
L 30.974647 48.61228 
L 31.582814 48.014879 
L 32.190981 47.417478 
" style="fill:none;stroke:#808080;stroke-linecap:square;stroke-width:0.4;"/>
   </g>
   <g id="line2d_5">
    <path clip-path="url(#p508cc2f48f)" d="M 58.409129 94.746172 
L 58.139454 93.454379 
L 57.915098 92.37975 
L 57.690742 91.305122 
L 57.490631 90.346269 
L 57.290519 89.387417 
L 57.045835 88.214998 
L 56.80115 87.042579 
L 56.59302 86.045623 
L 56.384889 85.048667 
L 56.092648 83.648026 
L 55.800407 82.247385 
L 55.520101 80.904698 
L 55.239796 79.562012 
L 54.903355 77.949403 
L 54.566914 76.336794 
L 54.334912 75.225927 
L 54.102909 74.11506 
L 53.820366 72.760516 
L 53.537823 71.405972 
L 53.345171 70.483625 
L 53.152519 69.561277 
L 53.070461 69.167451 
L 52.776728 67.716049 
L 52.482995 66.264648 
L 52.283443 65.279016 
L 52.083891 64.293385 
L 51.829135 63.035433 
L 51.57438 61.77748 
L 51.33212 60.637169 
L 51.089861 59.496859 
L 50.860096 58.414769 
" style="fill:none;stroke:#808080;stroke-linecap:square;stroke-width:0.4;"/>
   </g>
   <g id="line2d_6">
    <path clip-path="url(#p508cc2f48f)" d="M 19.160796 52.987002 
L 19.450239 52.154384 
L 19.739683 51.321767 
L 20.029127 50.489149 
L 20.31857 49.656532 
" style="fill:none;stroke:#808080;stroke-linecap:square;stroke-width:0.4;"/>
   </g>
   <g id="line2d_7">
    <path clip-path="url(#p508cc2f48f)" d="M 50.816456 57.895707 
L 50.467892 57.668318 
L 50.119329 57.440928 
L 49.770766 57.213539 
L 49.422203 56.98615 
L 49.073639 56.75876 
L 48.725076 56.531371 
L 48.376513 56.303982 
L 48.02795 56.076592 
L 47.788487 55.915085 
L 47.549025 55.753578 
L 47.309563 55.59207 
L 47.0701 55.430563 
L 46.830638 55.269055 
L 46.591175 55.107548 
L 46.351713 54.946041 
L 46.112251 54.784533 
L 45.840897 54.601609 
L 45.569544 54.418685 
L 45.155054 54.23283 
L 44.740564 54.046975 
L 44.326074 53.86112 
L 43.911584 53.675265 
L 43.646105 53.437284 
L 43.380626 53.199303 
L 43.115148 52.961322 
L 42.849669 52.723341 
L 42.58419 52.485359 
L 42.318711 52.247378 
L 42.053233 52.009397 
L 41.787754 51.771416 
L 41.445998 51.608976 
L 41.104242 51.446536 
L 40.762485 51.284096 
L 40.420729 51.121656 
L 40.078973 50.959216 
L 39.737217 50.796776 
L 39.395461 50.634336 
L 39.053705 50.471896 
" style="fill:none;stroke:#008000;stroke-linecap:square;stroke-width:0.4;"/>
   </g>
   <g id="line2d_8">
    <path clip-path="url(#p508cc2f48f)" d="M 54.346847 69.597249 
L 54.446903 69.854549 
L 54.546959 70.111848 
L 54.647015 70.369147 
L 54.74707 70.626447 
L 54.847126 70.883746 
L 54.947182 71.141045 
L 55.047238 71.398345 
L 55.147293 71.655644 
L 55.222312 71.912943 
L 55.29733 72.170243 
L 55.372349 72.427542 
L 55.447367 72.684842 
L 55.522386 72.942141 
L 55.597404 73.19944 
L 55.672423 73.45674 
L 55.747441 73.714039 
L 55.797469 74.082119 
L 55.847497 74.450198 
L 55.897525 74.818278 
L 55.947553 75.186358 
L 55.997581 75.554437 
L 56.047609 75.922517 
L 56.097636 76.290596 
L 56.147664 76.658676 
L 56.236996 77.07675 
L 56.326329 77.494824 
L 56.415661 77.912898 
L 56.504993 78.330972 
L 56.594325 78.749046 
L 56.683657 79.16712 
L 56.772989 79.585194 
L 56.862322 80.003268 
L 56.94093 80.45355 
L 57.019539 80.903832 
L 57.098147 81.354115 
L 57.176756 81.804397 
L 57.255364 82.254679 
L 57.333973 82.704961 
L 57.412582 83.155244 
L 57.49119 83.605526 
L 57.541218 84.037922 
L 57.591246 84.470318 
L 57.641274 84.902714 
L 57.691302 85.33511 
L 57.741329 85.767507 
L 57.791357 86.199903 
L 57.841385 86.632299 
L 57.891413 87.064695 
L 57.891413 87.557777 
L 57.891413 88.050859 
L 57.891413 88.543942 
L 57.891413 89.037024 
" style="fill:none;stroke:#000000;stroke-dasharray:1.48,0.64;stroke-dashoffset:0;stroke-width:0.4;"/>
   </g>
   <g id="line2d_9">
    <path clip-path="url(#p508cc2f48f)" d="M 50.830629 60.506471 
L 50.501928 60.792315 
L 50.173227 61.078159 
L 49.844526 61.364003 
L 49.515824 61.649846 
L 49.172856 61.985784 
L 48.829888 62.321723 
L 48.486919 62.657661 
L 48.143951 62.993599 
L 47.893812 63.225884 
L 47.643672 63.45817 
L 47.393533 63.690455 
L 47.143394 63.922741 
L 46.893254 64.155026 
L 46.643115 64.387312 
L 46.392975 64.619597 
L 46.142836 64.851883 
" style="fill:none;stroke:#ff0000;stroke-dasharray:1.48,0.64;stroke-dashoffset:0;stroke-width:0.4;"/>
   </g>
   <g id="line2d_10">
    <path clip-path="url(#p508cc2f48f)" d="M 46.112251 54.784533 
L 45.898898 55.058187 
L 45.685545 55.33184 
L 45.463986 55.667778 
L 45.242428 56.003716 
L 45.020869 56.339654 
L 44.79931 56.675592 
L 44.570665 57.082941 
L 44.342019 57.49029 
L 44.113374 57.897639 
L 43.884728 58.304988 
L 43.606008 58.605221 
L 43.327288 58.905453 
L 43.048568 59.205686 
L 42.769848 59.505918 
" style="fill:none;stroke:#4169e1;stroke-linecap:square;stroke-width:0.4;"/>
   </g>
   <g id="line2d_11">
    <path clip-path="url(#p508cc2f48f)" d="M 52.717608 68.425363 
L 52.603099 67.939342 
L 52.488589 67.453321 
L 52.231596 67.224433 
L 51.745585 67.1389 
L 51.474045 67.203183 
L 51.202505 67.267466 
L 50.930965 67.331749 
L 50.659425 67.396032 
L 50.323544 67.503215 
L 49.987662 67.610399 
L 49.651781 67.717582 
L 49.315899 67.824765 
L 48.972838 67.853409 
L 48.629776 67.882053 
L 48.286715 67.910698 
L 47.943653 67.939342 
L 47.6792 67.910698 
L 47.414747 67.882053 
L 47.150294 67.853409 
L 46.885841 67.824765 
L 46.543059 67.653432 
L 46.357308 67.467577 
L 46.171557 67.281721 
L 46.105164 67.127175 
L 45.999979 66.8815 
L 45.957085 66.588462 
L 45.914191 66.295424 
L 45.871296 66.002386 
L 45.828402 65.709348 
L 45.792688 65.373476 
L 45.756973 65.037605 
L 45.721259 64.701733 
L 45.685545 64.365862 
" style="fill:none;stroke:#008000;stroke-linecap:square;stroke-width:0.4;"/>
   </g>
   <g id="line2d_12">
    <path clip-path="url(#p508cc2f48f)" d="M 45.428179 63.422331 
L 45.170906 63.693919 
L 44.913633 63.965507 
L 44.65636 64.237096 
L 44.399087 64.508684 
L 44.091833 64.751694 
L 43.784579 64.994705 
L 43.477325 65.237715 
L 43.170071 65.480726 
L 42.819922 65.737992 
L 42.469774 65.995258 
L 42.119626 66.252524 
L 41.769477 66.50979 
L 41.583679 66.688484 
L 41.397881 66.867178 
L 41.212084 67.045872 
L 41.026286 67.224566 
L 40.840488 67.40326 
L 40.65469 67.581954 
L 40.468892 67.760648 
L 40.283094 67.939342 
L 40.025822 68.110875 
L 39.768549 68.282408 
L 39.511276 68.453941 
L 39.254003 68.625474 
L 39.00391 68.832712 
L 38.753817 69.03995 
L 38.503725 69.247189 
L 38.253632 69.454427 
L 38.017154 69.867439 
L 37.780675 70.28045 
" style="fill:none;stroke:#4169e1;stroke-linecap:square;stroke-width:0.4;"/>
   </g>
   <g id="line2d_13">
    <path clip-path="url(#p508cc2f48f)" d="M 57.122299 73.346326 
L 57.507415 73.558294 
L 57.892532 73.770262 
L 58.043502 74.009675 
L 58.194471 74.249088 
L 58.34544 74.488502 
L 58.49641 74.727915 
L 58.647379 74.967328 
L 58.798349 75.206742 
L 58.949318 75.446155 
L 59.100288 75.685568 
L 59.168219 76.05095 
L 59.236151 76.416332 
L 59.304083 76.781714 
L 59.372014 77.147095 
L 59.439946 77.512477 
L 59.507877 77.877859 
L 59.575809 78.243241 
L 59.643741 78.608622 
L 59.664255 78.974004 
L 59.68477 79.339386 
L 59.705285 79.704768 
L 59.725799 80.070149 
L 59.746314 80.435531 
L 59.766829 80.800913 
L 59.787343 81.166295 
L 59.807858 81.531676 
L 59.882923 81.807728 
L 59.957988 82.083779 
L 60.033054 82.35983 
L 60.108119 82.635882 
L 60.183184 82.911933 
L 60.258249 83.187985 
L 60.333314 83.464036 
L 60.408379 83.740088 
L 60.47356 84.123355 
L 60.538741 84.506623 
L 60.603921 84.889891 
L 60.669102 85.273159 
L 60.734283 85.656427 
L 60.799464 86.039694 
L 60.864644 86.422962 
L 60.929825 86.80623 
L 60.95752 87.0796 
L 60.985215 87.35297 
L 61.01291 87.62634 
L 61.040605 87.899711 
L 61.068299 88.173081 
L 61.095994 88.446451 
L 61.123689 88.719821 
L 61.151384 88.993191 
L 61.179079 89.266561 
L 61.206774 89.539932 
L 61.234468 89.813302 
L 61.262163 90.086672 
L 61.289858 90.360042 
L 61.317553 90.633412 
L 61.345248 90.906782 
L 61.372943 91.180153 
L 61.371171 91.437485 
L 61.369399 91.694818 
L 61.367627 91.952151 
L 61.365856 92.209483 
L 61.276524 92.536428 
L 61.187191 92.863373 
L 61.097859 93.190318 
L 61.008527 93.517263 
" style="fill:none;stroke:#ff0000;stroke-dasharray:1.48,0.64;stroke-dashoffset:0;stroke-width:0.4;"/>
   </g>
   <g id="line2d_14">
    <path clip-path="url(#p508cc2f48f)" d="M 50.816456 57.895707 
L 51.038014 58.057581 
L 51.259573 58.219455 
L 51.44234 58.390788 
L 51.716864 58.648187 
L 51.831187 59.005508 
L 51.94551 59.36283 
L 51.938423 59.634418 
L 51.931336 59.906006 
L 51.924249 60.177594 
L 51.917162 60.449183 
L 51.917162 60.785121 
L 51.917162 61.121059 
L 51.917162 61.456997 
L 51.917162 61.792935 
L 51.929284 62.197086 
L 51.941407 62.601238 
L 51.953529 63.005389 
L 51.965651 63.409541 
L 52.016379 63.82515 
L 52.067106 64.240759 
L 52.117833 64.656369 
L 52.16856 65.071978 
L 52.248614 65.416976 
L 52.328668 65.761973 
L 52.408722 66.106971 
L 52.488776 66.451968 
L 52.56883 66.796966 
L 52.648884 67.141964 
L 52.728938 67.486961 
L 52.808992 67.831959 
" style="fill:none;stroke:#4169e1;stroke-linecap:square;stroke-width:0.4;"/>
   </g>
   <g id="line2d_15">
    <path clip-path="url(#p508cc2f48f)" d="M 53.803768 68.625474 
L 54.075308 68.625474 
L 54.346847 68.625474 
L 54.773553 68.891933 
L 55.200259 69.158391 
L 55.373887 69.620831 
L 55.547516 70.08327 
L 55.711914 70.362053 
L 55.876311 70.640835 
L 56.040708 70.919618 
L 56.205105 71.198401 
L 56.355142 71.505694 
L 56.505179 71.812988 
L 56.655216 72.120282 
L 56.805253 72.427575 
L 56.963776 72.886951 
L 57.122299 73.346326 
L 57.206782 73.77306 
L 57.291265 74.199794 
L 57.312712 74.478576 
L 57.334159 74.757359 
L 57.355607 75.036141 
L 57.377054 75.314924 
L 57.369874 75.686568 
L 57.362694 76.058211 
L 57.355513 76.429855 
L 57.348333 76.801498 
L 57.412675 77.244619 
L 57.477016 77.68774 
L 57.541358 78.130861 
L 57.605699 78.573983 
L 57.677128 79.031359 
L 57.748556 79.488736 
L 57.819985 79.946113 
L 57.891413 80.403489 
L 57.973612 80.71438 
L 58.05581 81.025271 
L 58.138009 81.336162 
L 58.220208 81.647053 
L 58.302406 81.957944 
L 58.384605 82.268835 
L 58.466804 82.579726 
L 58.549002 82.890617 
L 58.60262 83.222957 
L 58.656238 83.555298 
L 58.709856 83.887639 
L 58.763474 84.21998 
L 58.817092 84.552321 
L 58.87071 84.884662 
L 58.924328 85.217002 
L 58.977946 85.549343 
L 58.995803 85.870959 
L 59.01366 86.192575 
L 59.031517 86.514191 
L 59.049374 86.835807 
L 59.067231 87.157423 
L 59.085088 87.479039 
L 59.102945 87.800654 
L 59.120803 88.12227 
L 59.085508 88.424068 
L 59.050213 88.725866 
L 59.014919 89.027664 
L 58.979624 89.329462 
L 58.94433 89.63126 
L 58.909035 89.933058 
L 58.87374 90.234856 
L 58.838446 90.536654 
L 58.806368 90.809508 
L 58.788511 91.120399 
L 58.770654 91.43129 
L 58.752797 91.742181 
L 58.73494 92.053072 
L 58.717083 92.363963 
L 58.699226 92.674854 
L 58.681369 92.985745 
L 58.663511 93.296635 
" style="fill:none;stroke:#4169e1;stroke-linecap:square;stroke-width:0.4;"/>
   </g>
   <g id="line2d_16">
    <path clip-path="url(#p508cc2f48f)" d="M 51.488219 64.308573 
L 51.145157 64.380051 
L 50.802095 64.451528 
L 50.459034 64.523006 
L 50.115972 64.594484 
L 49.801538 64.665961 
L 49.487104 64.737439 
L 49.172669 64.808916 
L 48.858235 64.880394 
L 48.615323 65.016155 
L 48.37241 65.151916 
L 48.129497 65.287676 
L 47.886585 65.423437 
L 47.663907 65.636404 
L 47.44123 65.849372 
L 47.218552 66.062339 
L 46.995874 66.275306 
L 46.773197 66.488274 
L 46.550519 66.701241 
L 46.327841 66.914208 
L 46.105164 67.127175 
" style="fill:none;stroke:#4169e1;stroke-linecap:square;stroke-width:0.4;"/>
   </g>
   <g id="line2d_17">
    <path clip-path="url(#p508cc2f48f)" d="M 51.44234 58.390788 
L 52.463599 57.729703 
L 52.832863 57.793121 
L 56.611576 62.202882 
L 57.80693 63.689456 
L 59.21489 65.363484 
L 59.429269 65.586776 
L 61.055151 65.937103 
L 63.574449 66.088052 
L 64.410609 66.165792 
L 65.71124 67.266267 
L 67.22998 70.734429 
L 67.397921 71.175752 
L 67.083487 78.380001 
L 67.126381 79.451965 
L 68.434286 82.367957 
L 68.727273 83.168533 
L 68.544086 86.101413 
L 67.862299 89.27204 
L 66.138971 90.671782 
L 63.842352 91.519621 
L 62.330792 91.919976 
L 61.365856 92.209483 
L 61.365856 92.209483 
" style="fill:none;stroke:#ff0000;stroke-dasharray:1.48,0.64;stroke-dashoffset:0;stroke-width:0.4;"/>
   </g>
   <g id="line2d_18">
    <path clip-path="url(#p508cc2f48f)" d="M 36.981348 66.397344 
L 37.235078 66.568411 
L 37.488807 66.739478 
L 37.742536 66.910544 
L 37.996266 67.081611 
L 38.367768 67.410421 
L 38.739271 67.739231 
L 38.83224 68.01082 
L 38.925208 68.282408 
L 39.018177 68.553996 
L 39.111146 68.825584 
L 39.218289 69.232933 
L 39.325431 69.640282 
L 39.432574 70.047631 
L 39.539717 70.45498 
L 39.66122 70.848074 
L 39.782722 71.241167 
L 39.904225 71.634261 
L 40.025728 72.027354 
L 40.048667 72.337446 
L 40.071607 72.647537 
L 40.094546 72.957629 
L 40.117485 73.26772 
" style="fill:none;stroke:#008000;stroke-linecap:square;stroke-width:0.4;"/>
   </g>
   <g id="line2d_19">
    <path clip-path="url(#p508cc2f48f)" d="M 53.317756 69.140006 
L 53.378507 69.400869 
L 53.439259 69.661732 
L 53.50001 69.922595 
L 53.560762 70.183459 
L 53.621513 70.444322 
L 53.682265 70.705185 
L 53.743016 70.966048 
L 53.803768 71.226912 
L 53.857339 71.487775 
L 53.91091 71.748638 
L 53.964482 72.009501 
L 54.018053 72.270365 
L 54.071624 72.531228 
L 54.125196 72.792091 
L 54.178767 73.052954 
L 54.232338 73.313818 
L 54.285956 73.58897 
L 54.339574 73.864122 
L 54.393192 74.139274 
L 54.44681 74.414426 
L 54.500428 74.689578 
L 54.554046 74.96473 
L 54.607664 75.239882 
L 54.661282 75.515035 
L 54.754204 75.904531 
L 54.847126 76.294027 
L 54.940048 76.683523 
L 55.032971 77.07302 
L 55.125893 77.462516 
L 55.218815 77.852012 
L 55.311737 78.241509 
L 55.40466 78.631005 
L 55.483268 78.991957 
L 55.561877 79.352909 
L 55.640485 79.71386 
L 55.719094 80.074812 
L 55.797702 80.435764 
L 55.876311 80.796716 
L 55.954919 81.157668 
L 56.033528 81.51862 
L 56.101413 81.936694 
L 56.169298 82.354768 
L 56.237183 82.772842 
L 56.305068 83.190916 
L 56.372953 83.60899 
L 56.440838 84.027064 
L 56.508723 84.445138 
L 56.576608 84.863212 
L 56.598055 85.299205 
L 56.619502 85.735198 
L 56.640949 86.171192 
L 56.662397 86.607185 
L 56.683844 87.043178 
L 56.705291 87.479172 
L 56.726738 87.915165 
L 56.748185 88.351159 
L 56.783899 88.644163 
L 56.819614 88.937168 
L 56.855328 89.230173 
L 56.891042 89.523178 
L 56.926756 89.816183 
L 56.962471 90.109188 
L 56.998185 90.402192 
L 57.033899 90.695197 
L 57.191116 91.152641 
L 57.348333 91.610084 
L 57.50555 92.067527 
L 57.662767 92.524971 
L 57.877146 92.960897 
L 58.091525 93.396824 
L 58.305903 93.832751 
L 58.520282 94.268677 
" style="fill:none;stroke:#000000;stroke-linecap:square;stroke-width:0.4;"/>
   </g>
   <g id="line2d_20">
    <path clip-path="url(#p508cc2f48f)" d="M 41.5979 75.086302 
L 41.919421 75.214935 
L 42.240942 75.343568 
L 42.562463 75.472201 
L 42.883984 75.600834 
L 43.105543 75.800945 
L 43.327102 76.001056 
L 43.54866 76.201166 
L 43.770219 76.401277 
L 44.034672 76.629965 
L 44.299125 76.858654 
L 44.563578 77.087342 
L 44.828031 77.31603 
L 45.013782 77.566168 
L 45.199533 77.816307 
L 45.385285 78.066445 
L 45.571036 78.316583 
L 45.728253 78.616749 
L 45.88547 78.916915 
L 46.042687 79.217081 
L 46.199904 79.517247 
L 46.342854 79.781708 
L 46.485804 80.046168 
L 46.628755 80.310628 
L 46.771705 80.575089 
L 46.950369 80.775199 
L 47.129033 80.97531 
L 47.307698 81.175421 
L 47.486362 81.375531 
L 47.743635 81.482781 
L 48.000908 81.590031 
L 48.25818 81.69728 
L 48.515453 81.80453 
L 48.915676 82.061796 
L 49.315899 82.319062 
L 49.48729 82.562073 
L 49.658681 82.805083 
L 49.887327 83.21956 
L 50.115972 83.634037 
" style="fill:none;stroke:#008000;stroke-linecap:square;stroke-width:0.4;"/>
   </g>
   <g id="line2d_21">
    <path clip-path="url(#p508cc2f48f)" d="M 52.51731 69.054206 
L 52.188516 69.182772 
L 51.859721 69.311339 
L 51.67397 69.525838 
L 51.488219 69.740338 
L 51.488219 70.126303 
L 51.488219 70.512269 
L 51.538293 70.91249 
L 51.588368 71.312712 
L 51.638442 71.712933 
L 51.688517 72.113154 
L 51.724231 72.491925 
L 51.759945 72.870697 
L 51.795659 73.249468 
L 51.831373 73.628239 
L 51.802746 73.949855 
L 51.774119 74.271471 
L 51.745491 74.593087 
L 51.716864 74.914703 
L 51.623989 75.357824 
L 51.531113 75.800945 
L 51.438237 76.244066 
L 51.345362 76.687187 
L 51.252486 77.065959 
L 51.159611 77.44473 
L 51.066735 77.823501 
L 50.973859 78.202272 
L 51.023841 78.480988 
L 51.073822 78.759704 
L 51.123803 79.03842 
L 51.173784 79.317136 
L 51.302467 79.610175 
L 51.43115 79.903213 
L 51.559833 80.196251 
L 51.688517 80.489289 
L 51.809973 80.718011 
L 51.931429 80.946732 
L 52.052885 81.175454 
L 52.174342 81.404176 
L 52.295798 81.632897 
L 52.417254 81.861619 
L 52.538711 82.090341 
L 52.660167 82.319062 
L 52.824564 82.662128 
L 52.988961 83.005194 
L 53.153359 83.34826 
L 53.317756 83.691326 
L 53.374917 83.984297 
L 53.432079 84.277269 
L 53.48924 84.57024 
L 53.546402 84.863212 
L 53.517867 85.363555 
L 53.489333 85.863898 
L 53.460799 86.364241 
L 53.432265 86.864584 
L 53.436322 87.159288 
L 53.440378 87.453991 
L 53.444434 87.748695 
L 53.448491 88.043399 
L 53.452547 88.338102 
L 53.456603 88.632806 
L 53.460659 88.927509 
L 53.464716 89.222213 
" style="fill:none;stroke:#000000;stroke-linecap:square;stroke-width:0.4;"/>
   </g>
   <g id="line2d_22">
    <path clip-path="url(#p508cc2f48f)" d="M 39.053705 50.471896 
L 39.93994 51.558249 
L 41.304726 55.424834 
L 42.183687 57.719045 
L 42.741314 59.177108 
L 42.769848 59.505918 
L 41.283465 60.663549 
L 39.782816 61.757163 
L 39.232556 62.321789 
L 38.0248 64.079951 
L 37.420829 65.238248 
L 36.938454 66.802828 
L 37.038603 68.282275 
L 37.245894 69.154195 
L 37.780675 70.28045 
L 39.14686 72.127276 
L 41.32636 74.743236 
L 44.963614 79.181442 
L 46.228625 80.6894 
L 47.214729 81.84723 
L 48.355719 82.786897 
L 50.28755 83.877047 
L 50.623524 84.484574 
L 52.210056 87.743566 
L 52.861304 88.676039 
L 55.926199 91.531479 
L 56.197832 92.060333 
L 57.176942 94.611743 
L 57.348333 94.840498 
L 57.891413 95.15492 
L 57.891413 95.15492 
" style="fill:none;stroke:#4169e1;stroke-linecap:square;stroke-width:0.4;"/>
   </g>
   <g id="line2d_23">
    <path clip-path="url(#p508cc2f48f)" d="M 46.105164 67.127175 
L 45.709417 67.375915 
L 45.31367 67.624654 
L 45.006416 67.753354 
L 44.699161 67.882053 
L 44.391907 68.010753 
L 44.084653 68.139453 
L 43.798846 68.275213 
L 43.513039 68.410974 
L 43.227232 68.546735 
L 42.941425 68.682496 
L 42.612631 68.925506 
L 42.283836 69.168517 
L 42.155153 69.497327 
L 42.02647 69.826137 
L 41.983669 70.119176 
L 41.940868 70.412214 
L 41.898067 70.705252 
L 41.855266 70.99829 
L 41.87662 71.384189 
L 41.897974 71.770088 
L 41.919328 72.155987 
L 41.940681 72.541886 
L 41.940402 72.928185 
L 41.940122 73.314484 
L 41.939842 73.700783 
L 41.939562 74.087081 
L 41.854147 74.336887 
L 41.768731 74.586692 
L 41.683315 74.836497 
L 41.5979 75.086302 
" style="fill:none;stroke:#4169e1;stroke-linecap:square;stroke-width:0.4;"/>
   </g>
   <g id="line2d_24">
    <path clip-path="url(#p508cc2f48f)" d="M 50.816456 57.895707 
L 50.486542 57.983772 
L 50.156629 58.071837 
L 49.936375 58.259956 
L 49.716122 58.448076 
L 49.430222 58.75537 
L 49.144322 59.062664 
L 48.858422 59.369958 
L 48.572522 59.677251 
L 48.393857 59.898812 
L 48.215193 60.120372 
L 48.036529 60.341933 
L 47.857864 60.563494 
L 47.6792 60.785054 
L 47.500536 61.006615 
L 47.321871 61.228175 
L 47.143207 61.449736 
L 46.928829 61.69631 
L 46.71445 61.942885 
L 46.500071 62.189459 
L 46.285693 62.436033 
L 46.071314 62.682608 
L 45.856936 62.929182 
L 45.642557 63.175757 
L 45.428179 63.422331 
" style="fill:none;stroke:#000000;stroke-linecap:square;stroke-width:0.4;"/>
   </g>
   <g id="line2d_25">
    <path clip-path="url(#p508cc2f48f)" d="M 30.904897 50.421003 
L 30.615546 50.42813 
L 30.326196 50.435258 
L 30.036846 50.442386 
L 29.747495 50.449514 
L 29.486679 50.496877 
L 29.225863 50.54424 
L 28.965046 50.591603 
L 28.70423 50.638966 
L 28.389796 50.838211 
L 28.075361 51.037455 
L 27.760927 51.2367 
L 27.446493 51.435944 
L 27.179895 51.605679 
L 26.913297 51.775413 
L 26.6467 51.945147 
L 26.380102 52.114882 
L 26.113504 52.284616 
L 25.846907 52.45435 
L 25.580309 52.624085 
L 25.313711 52.793819 
L 25.029676 52.968882 
L 24.745641 53.143946 
L 24.461605 53.319009 
L 24.17757 53.494073 
L 23.879175 53.656679 
L 23.580779 53.819286 
L 23.282384 53.981892 
L 22.983988 54.144499 
" style="fill:none;stroke:#4169e1;stroke-linecap:square;stroke-width:0.4;"/>
   </g>
   <g id="line2d_26">
    <path clip-path="url(#p508cc2f48f)" d="M 27.048135 54.683012 
L 26.864342 54.933883 
L 26.680549 55.184754 
L 26.496756 55.435626 
L 26.312963 55.686497 
L 26.061099 55.826587 
L 25.809234 55.966678 
L 25.55737 56.106769 
L 25.305505 56.24686 
L 25.055412 56.432648 
L 24.80532 56.618437 
L 24.555227 56.804225 
L 24.305134 56.990013 
L 23.976433 57.275924 
L 23.647732 57.561834 
L 23.31903 57.847745 
L 22.990329 58.133655 
" style="fill:none;stroke:#008000;stroke-linecap:square;stroke-width:0.4;"/>
   </g>
   <g id="line2d_27">
    <path clip-path="url(#p508cc2f48f)" d="M 32.651256 47.270126 
L 33.108548 47.355926 
L 33.565839 47.441726 
L 33.980235 47.656092 
L 34.394632 47.870458 
L 34.723333 48.113469 
L 35.052035 48.356479 
L 35.380736 48.59949 
L 35.709437 48.8425 
L 36.073946 49.028355 
L 36.438455 49.21421 
L 36.802964 49.400065 
L 37.167472 49.58592 
L 37.403251 49.696667 
L 37.639031 49.807414 
L 37.87481 49.918161 
L 38.110589 50.028908 
L 38.346368 50.139655 
L 38.582147 50.250402 
L 38.817926 50.361149 
L 39.053705 50.471896 
" style="fill:none;stroke:#008000;stroke-linecap:square;stroke-width:0.4;"/>
   </g>
   <g id="line2d_28">
    <path clip-path="url(#p508cc2f48f)" d="M 29.185393 54.041646 
L 29.108556 54.321361 
L 29.031719 54.601076 
L 28.954882 54.880792 
L 28.878045 55.160507 
L 28.756636 55.5107 
L 28.635226 55.860894 
L 28.513816 56.211088 
L 28.392407 56.561281 
L 28.106506 56.904347 
L 27.820606 57.247413 
L 27.420477 57.447523 
L 27.020347 57.647634 
L 26.620217 57.847745 
L 26.220087 58.047855 
L 25.78415 58.226516 
L 25.348213 58.405177 
L 24.912276 58.583837 
L 24.476339 58.762498 
L 24.019048 58.876809 
L 23.561756 58.99112 
L 23.304577 58.891064 
L 23.047397 58.791009 
L 22.811572 58.633798 
L 22.575746 58.476588 
L 22.33992 58.319377 
L 22.104094 58.162166 
" style="fill:none;stroke:#008000;stroke-linecap:square;stroke-width:0.4;"/>
   </g>
   <g id="line2d_29">
    <path clip-path="url(#p508cc2f48f)" d="M 32.508027 47.670347 
L 32.736859 48.084957 
L 32.965691 48.499567 
L 33.165616 48.914044 
L 33.365541 49.328521 
L 33.437156 49.742998 
L 33.508771 50.157475 
L 33.430162 50.414807 
L 33.351553 50.67214 
L 33.272945 50.929473 
L 33.194336 51.186805 
L 33.077496 51.567642 
L 32.960655 51.948478 
L 32.843815 52.329314 
L 32.726974 52.710151 
" style="fill:none;stroke:#008000;stroke-linecap:square;stroke-width:0.4;"/>
   </g>
   <g id="line2d_30">
    <path clip-path="url(#p508cc2f48f)" d="M 32.222313 48.099346 
L 32.129437 48.399512 
L 32.036562 48.699678 
L 31.943686 48.999844 
L 31.850811 49.30001 
L 31.614332 49.580258 
L 31.377854 49.860506 
L 31.141375 50.140754 
L 30.904897 50.421003 
L 30.701568 50.627508 
L 30.49824 50.834014 
L 30.294911 51.040519 
L 30.091583 51.247025 
L 29.888254 51.453531 
L 29.684925 51.660036 
L 29.481597 51.866542 
L 29.278268 52.073048 
L 28.9353 52.423241 
L 28.592332 52.773435 
L 28.249363 53.123628 
L 27.906395 53.473822 
L 27.69183 53.77612 
L 27.477265 54.078417 
L 27.2627 54.380715 
L 27.048135 54.683012 
" style="fill:none;stroke:#008000;stroke-linecap:square;stroke-width:0.4;"/>
   </g>
   <g id="line2d_31">
    <path clip-path="url(#p508cc2f48f)" d="M 31.136153 47.413215 
L 30.793185 47.541848 
L 30.450217 47.670481 
L 30.107248 47.799114 
L 29.76428 47.927747 
L 29.406951 48.134985 
L 29.049623 48.342224 
L 28.692294 48.549462 
L 28.334966 48.7567 
L 28.074149 48.960408 
L 27.813333 49.164116 
L 27.552517 49.367824 
L 27.2917 49.571532 
L 27.030884 49.775239 
L 26.770068 49.978947 
L 26.509251 50.182655 
L 26.248435 50.386363 
L 26.012656 50.554299 
L 25.776877 50.722234 
L 25.541098 50.89017 
L 25.305319 51.058106 
L 25.06954 51.226041 
L 24.833761 51.393977 
L 24.597981 51.561913 
L 24.362202 51.729849 
L 24.076395 51.994309 
L 23.790589 52.258769 
L 23.504782 52.52323 
L 23.218975 52.78769 
" style="fill:none;stroke:#4169e1;stroke-linecap:square;stroke-width:0.4;"/>
   </g>
   <g id="line2d_32">
    <path clip-path="url(#p508cc2f48f)" d="M 39.053705 50.471896 
L 38.636511 50.604859 
L 38.219317 50.737822 
L 37.920548 50.75714 
L 37.62178 50.776459 
L 37.323011 50.795777 
L 37.024243 50.815095 
L 36.731255 50.908023 
L 36.438268 51.00095 
L 36.145281 51.093878 
L 35.852294 51.186805 
L 35.605792 51.315438 
L 35.359289 51.444071 
L 35.112786 51.572704 
L 34.866284 51.701337 
L 34.619781 51.82997 
L 34.373278 51.958604 
L 34.126776 52.087237 
L 33.880273 52.21587 
L 33.591948 52.33944 
L 33.303624 52.46301 
L 33.015299 52.586581 
L 32.726974 52.710151 
L 32.403215 52.848976 
L 32.079456 52.987801 
L 31.790059 53.094984 
L 31.500662 53.202167 
L 31.211265 53.30935 
L 30.921868 53.416533 
L 30.632471 53.523716 
L 30.343074 53.630899 
L 30.053677 53.738083 
L 29.76428 53.845266 
L 29.474836 53.943456 
L 29.185393 54.041646 
L 28.908538 54.135506 
L 28.631683 54.229366 
L 28.354827 54.323226 
L 28.077972 54.417086 
L 27.820513 54.483568 
L 27.563054 54.550049 
L 27.305594 54.616531 
L 27.048135 54.683012 
L 26.677006 54.778804 
L 26.305876 54.874596 
L 25.962815 54.903174 
L 25.619753 54.931752 
L 25.276691 54.960329 
L 24.93363 54.988907 
L 24.504966 55.010357 
L 24.076302 55.031807 
L 23.647638 55.053257 
L 23.218975 55.074707 
L 22.868826 55.088963 
L 22.518678 55.103218 
L 22.168529 55.117474 
L 21.818381 55.131729 
" style="fill:none;stroke:#008000;stroke-linecap:square;stroke-width:0.4;"/>
   </g>
   <g id="line2d_33">
    <path clip-path="url(#p508cc2f48f)" d="M 27.220458 36.549686 
L 27.041794 36.928457 
L 26.86313 37.307228 
L 26.684465 37.686 
L 26.505801 38.064771 
L 26.377165 38.361373 
L 26.248528 38.657975 
L 26.119892 38.954577 
L 25.991255 39.251179 
L 25.862619 39.547781 
L 25.733982 39.844383 
L 25.605346 40.140985 
L 25.47671 40.437587 
L 25.323083 40.819956 
L 25.169455 41.202324 
L 25.015828 41.584693 
L 24.862201 41.967061 
L 24.708574 42.34943 
L 24.554947 42.731798 
L 24.40132 43.114167 
L 24.247693 43.496535 
L 24.089963 43.873375 
L 23.932233 44.250214 
L 23.774503 44.627054 
L 23.616773 45.003893 
L 23.459043 45.380733 
L 23.301313 45.757572 
L 23.143583 46.134412 
L 22.985853 46.511251 
" style="fill:none;stroke:#4169e1;stroke-linecap:square;stroke-width:0.4;"/>
   </g>
   <g id="line2d_34">
    <path clip-path="url(#p508cc2f48f)" d="M 28.992555 36.092176 
L 29.321256 36.192231 
L 29.649957 36.292287 
L 29.978659 36.392342 
L 30.30736 36.492397 
L 30.593633 36.701701 
L 30.879906 36.911004 
L 31.050365 37.035707 
L 31.221849 37.242945 
L 31.393333 37.450184 
L 31.564817 37.657422 
L 31.736301 37.86466 
L 31.872071 38.136249 
L 32.007841 38.407837 
L 32.143611 38.679425 
L 32.279381 38.951013 
L 32.400884 39.301207 
L 32.522387 39.6514 
L 32.64389 40.001594 
L 32.765393 40.351788 
L 32.829734 40.702048 
L 32.894076 41.052308 
L 32.958417 41.402568 
L 33.022759 41.752828 
L 32.979865 42.124472 
L 32.93697 42.496116 
L 32.894076 42.867759 
L 32.851181 43.239403 
L 32.708231 43.525246 
L 32.565281 43.81109 
L 32.422331 44.096934 
L 32.279381 44.382778 
L 32.079363 44.740099 
L 31.879345 45.09742 
L 31.679326 45.454742 
L 31.479308 45.812063 
" style="fill:none;stroke:#4169e1;stroke-linecap:square;stroke-width:0.4;"/>
   </g>
   <g id="line2d_35">
    <path clip-path="url(#p508cc2f48f)" d="M 31.421867 41.438141 
L 31.579084 41.738306 
L 31.736301 42.038472 
L 31.864984 42.367283 
L 31.993667 42.696093 
L 31.907879 43.010514 
L 31.507656 43.067803 
L 31.064725 43.110703 
L 30.621794 43.153603 
L 30.293093 43.167858 
L 29.964391 43.182114 
L 29.63569 43.19637 
L 29.306989 43.210625 
L 28.964021 43.182047 
L 28.621052 43.15347 
L 28.278084 43.124892 
L 27.935116 43.096314 
L 27.599234 43.003387 
L 27.263353 42.910459 
L 26.927471 42.817532 
L 26.59159 42.724604 
L 26.212907 42.653126 
L 25.834225 42.581649 
L 25.455542 42.510171 
L 25.07686 42.438694 
L 24.583761 42.467338 
L 24.090663 42.495982 
L 23.597564 42.524627 
L 23.104465 42.553271 
L 22.768677 42.617554 
L 22.432889 42.681837 
L 22.097101 42.746121 
L 21.761313 42.810404 
L 21.418158 43.153603 
L 21.353816 43.432319 
L 21.289475 43.711035 
L 21.225133 43.989751 
L 21.160792 44.268467 
L 21.153705 44.547183 
L 21.146618 44.825899 
L 21.139531 45.104615 
L 21.132444 45.383331 
L 21.146711 45.683497 
L 21.160978 45.983663 
L 21.175245 46.283829 
L 21.189512 46.583995 
L 21.153798 46.912805 
L 21.118084 47.241615 
L 21.08237 47.570425 
L 21.046655 47.899236 
L 21.08237 48.163629 
L 21.118084 48.428023 
L 21.153798 48.692417 
L 21.189512 48.956811 
L 21.196646 49.228399 
L 21.203779 49.499987 
L 21.210913 49.771576 
L 21.218046 50.043164 
L 21.22518 50.314752 
L 21.232313 50.58634 
L 21.239447 50.857928 
L 21.24658 51.129517 
L 21.175152 51.372527 
L 21.103724 51.615538 
L 21.032295 51.858548 
L 20.960867 52.101559 
L 20.889438 52.344569 
L 20.81801 52.58758 
L 20.746581 52.83059 
L 20.675153 53.073601 
" style="fill:none;stroke:#008000;stroke-linecap:square;stroke-width:0.4;"/>
   </g>
   <g id="line2d_36">
    <path clip-path="url(#p508cc2f48f)" d="M 27.420383 36.006643 
L 27.706284 35.963743 
L 27.992184 35.920843 
L 28.242276 35.963676 
L 28.492369 36.006509 
L 28.742462 36.049343 
L 28.992555 36.092176 
L 29.249734 36.292287 
L 29.506914 36.492397 
L 29.664131 36.864107 
L 29.821348 37.235817 
L 29.942851 37.535983 
L 30.064354 37.836149 
L 30.185857 38.136315 
L 30.30736 38.436481 
L 30.43595 38.779547 
L 30.564539 39.122613 
L 30.693129 39.465679 
L 30.821719 39.808744 
L 30.843166 40.13036 
L 30.864613 40.451976 
L 30.886061 40.773592 
L 30.907508 41.095208 
L 30.857527 41.395374 
L 30.807545 41.69554 
L 30.757564 41.995706 
L 30.707583 42.295872 
L 30.58608 42.56746 
L 30.464577 42.839048 
L 30.343074 43.110636 
L 30.221571 43.382225 
L 30.03582 43.596657 
L 29.850069 43.81109 
L 29.664317 44.025523 
L 29.478566 44.239956 
L 29.199846 44.582955 
L 28.921126 44.925954 
L 28.642406 45.268953 
L 28.363686 45.611953 
L 28.106413 45.76923 
L 27.84914 45.926507 
L 27.591867 46.083785 
L 27.334595 46.241062 
L 26.977359 46.462623 
L 26.620124 46.684183 
L 26.262889 46.905744 
L 25.905653 47.127304 
L 25.705542 47.320287 
L 25.50543 47.51327 
L 25.305319 47.706253 
L 25.105207 47.899236 
L 24.776506 48.113602 
L 24.447805 48.327968 
L 24.119103 48.542334 
L 23.790402 48.7567 
L 23.440254 48.878206 
L 23.090105 48.999711 
L 22.739957 49.121216 
L 22.389808 49.242721 
" style="fill:none;stroke:#008000;stroke-linecap:square;stroke-width:0.4;"/>
   </g>
   <g id="line2d_37">
    <path clip-path="url(#p508cc2f48f)" d="M 30.278639 40.266254 
L 30.150049 40.580676 
L 30.02146 40.895097 
L 29.89287 41.209519 
L 29.76428 41.52394 
L 29.535634 41.959934 
L 29.306989 42.395927 
L 29.078343 42.83192 
L 28.849698 43.267914 
" style="fill:none;stroke:#008000;stroke-linecap:square;stroke-width:0.4;"/>
   </g>
   <g id="line2d_38">
    <path clip-path="url(#p508cc2f48f)" d="M 28.535264 43.839734 
L 28.263724 44.211311 
L 27.992184 44.582888 
L 27.727731 44.868799 
L 27.463278 45.154709 
L 27.198825 45.440619 
L 26.934372 45.72653 
" style="fill:none;stroke:#008000;stroke-linecap:square;stroke-width:0.4;"/>
   </g>
   <g id="line2d_39">
    <path clip-path="url(#p508cc2f48f)" d="M 32.222313 47.127304 
L 32.007934 46.905744 
L 31.793556 46.684183 
L 31.579177 46.462623 
L 31.364799 46.241062 
L 31.100439 46.048079 
L 30.836079 45.855096 
L 30.57172 45.662113 
L 30.30736 45.469131 
L 29.907137 45.383331 
L 29.506914 45.297531 
L 29.121051 45.283276 
L 28.735188 45.26902 
L 28.277897 45.35482 
L 27.820606 45.440619 
L 27.549066 45.590702 
L 27.277526 45.740785 
L 27.005987 45.890868 
L 26.734447 46.040951 
L 26.405839 46.226806 
L 26.077231 46.412661 
L 25.748529 46.512717 
L 25.419828 46.612772 
L 25.091127 46.712827 
L 24.762425 46.812883 
L 24.376563 46.848588 
L 23.9907 46.884294 
L 23.604837 46.919999 
L 23.218975 46.955705 
" style="fill:none;stroke:#008000;stroke-linecap:square;stroke-width:0.4;"/>
   </g>
   <g id="line2d_40">
    <path clip-path="url(#p508cc2f48f)" d="M 35.423724 28.287862 
L 35.230792 28.659505 
L 35.037861 29.031149 
L 34.84493 29.402792 
L 34.651998 29.774436 
L 34.530495 29.995996 
L 34.408992 30.217557 
L 34.28749 30.439117 
L 34.165987 30.660678 
L 34.044484 30.882239 
L 33.922981 31.103799 
L 33.801478 31.32536 
L 33.679975 31.54692 
L 33.479957 31.939947 
L 33.279938 32.332974 
L 33.07992 32.726001 
L 32.879902 33.119028 
L 32.751266 33.362038 
L 32.622629 33.605049 
L 32.493993 33.848059 
L 32.365356 34.09107 
L 32.23672 34.33408 
L 32.108083 34.577091 
L 31.979447 34.820101 
L 31.850811 35.063112 
L 31.729447 35.294098 
L 31.608084 35.525085 
L 31.486721 35.756071 
L 31.365358 35.987058 
L 31.243995 36.218044 
L 31.122632 36.449031 
L 31.001269 36.680018 
L 30.879906 36.911004 
" style="fill:none;stroke:#4169e1;stroke-linecap:square;stroke-width:0.4;"/>
   </g>
   <g id="line2d_41">
    <path clip-path="url(#p508cc2f48f)" d="M 38.85378 42.896204 
L 38.968103 43.239269 
L 39.082426 43.582335 
L 39.103873 43.925401 
L 39.12532 44.268467 
L 39.146767 44.611533 
L 39.168214 44.954598 
L 39.1325 45.35482 
L 39.096786 45.755041 
L 39.061072 46.155262 
L 39.025357 46.555483 
L 38.918122 46.998605 
L 38.810886 47.441726 
L 38.70365 47.884847 
L 38.596414 48.327968 
L 38.582147 48.587765 
L 38.56788 48.847563 
L 38.553613 49.10736 
L 38.539346 49.367158 
L 38.667936 49.643342 
L 38.796525 49.919527 
L 38.925115 50.195712 
L 39.053705 50.471896 
" style="fill:none;stroke:#008000;stroke-linecap:square;stroke-width:0.4;"/>
   </g>
   <g id="line2d_42">
    <path clip-path="url(#p508cc2f48f)" d="M 26.848956 36.092176 
L 26.513074 36.206553 
L 26.177193 36.320931 
L 25.841312 36.435308 
L 25.50543 36.549686 
L 25.190996 36.685513 
L 24.876562 36.821341 
L 24.562127 36.957168 
L 24.247693 37.092995 
L 23.881506 37.36132 
L 23.515319 37.629644 
L 23.149131 37.897968 
L 22.782944 38.166292 
" style="fill:none;stroke:#000000;stroke-dasharray:1.48,0.64;stroke-dashoffset:0;stroke-width:0.4;"/>
   </g>
   <g id="line2d_43">
    <path clip-path="url(#p508cc2f48f)" d="M 26.477827 20.244001 
L 26.534801 20.568281 
L 26.591776 20.892562 
L 26.648751 21.216842 
L 26.705726 21.541123 
L 26.762981 22.02701 
L 26.820235 22.512898 
L 26.798788 22.820258 
L 26.777341 23.127619 
L 26.755894 23.434979 
L 26.734447 23.742339 
L 26.612944 23.98535 
L 26.491441 24.22836 
L 26.369938 24.471371 
L 26.248435 24.714381 
L 26.076951 25.100281 
L 25.905467 25.48618 
L 25.733982 25.872079 
L 25.562498 26.257978 
L 25.376747 26.686843 
L 25.190996 27.115709 
L 25.276785 27.43013 
L 25.362573 27.744552 
L 25.591219 28.173417 
L 25.819864 28.602283 
L 26.062777 28.880999 
L 26.30569 29.159715 
L 26.548602 29.438431 
L 26.791515 29.717147 
L 27.041608 30.103113 
L 27.2917 30.489078 
L 27.541793 30.875044 
L 27.791886 31.26101 
L 27.949429 31.463952 
L 28.106973 31.666893 
L 28.264516 31.869835 
L 28.42206 32.072777 
L 28.579603 32.275719 
L 28.737147 32.47866 
L 28.89469 32.681602 
L 29.052234 32.884544 
" style="fill:none;stroke:#4169e1;stroke-linecap:square;stroke-width:0.4;"/>
   </g>
   <g id="line2d_44">
    <path clip-path="url(#p508cc2f48f)" d="M 29.98845 26.81914 
L 29.676253 26.995936 
L 29.364057 27.172731 
L 29.006728 27.387231 
L 28.6494 27.60173 
L 28.442201 27.880446 
L 28.235003 28.159162 
L 28.027805 28.437878 
L 27.820606 28.716594 
L 27.513352 29.088237 
L 27.206098 29.459881 
L 26.898844 29.831525 
L 26.59159 30.203168 
L 26.373668 30.371137 
L 26.155746 30.539106 
L 25.937824 30.707075 
L 25.719902 30.875044 
L 25.50198 31.043013 
L 25.284058 31.210982 
L 25.066136 31.378951 
L 24.848214 31.54692 
L 24.66237 31.739836 
L 24.476525 31.932753 
L 24.290681 32.125669 
L 24.104836 32.318585 
L 23.947619 32.776095 
L 23.790402 33.233605 
L 23.711793 33.569476 
L 23.633185 33.905348 
L 23.554576 34.241219 
L 23.475968 34.577091 
L 23.304484 34.812973 
L 23.132999 35.048856 
L 22.961515 35.284739 
L 22.790031 35.520622 
L 22.654261 35.74931 
L 22.518491 35.977998 
L 22.382721 36.206687 
L 22.246951 36.435375 
L 22.225504 36.692641 
L 22.204057 36.949907 
L 22.18261 37.207173 
L 22.161163 37.464439 
L 22.18979 37.736027 
L 22.218417 38.007616 
L 22.247045 38.279204 
L 22.275672 38.550792 
L 22.104094 39.022558 
L 21.932517 39.494323 
L 21.78966 39.758717 
L 21.646803 40.023111 
L 21.503946 40.287504 
L 21.36109 40.551898 
L 21.275301 40.980764 
L 21.189512 41.409629 
L 21.246674 41.845623 
L 21.303835 42.281616 
L 21.360996 42.717609 
L 21.418158 43.153603 
" style="fill:none;stroke:#4169e1;stroke-linecap:square;stroke-width:0.4;"/>
   </g>
   <g id="line2d_45">
    <path clip-path="url(#p508cc2f48f)" d="M 47.715007 26.972621 
L 47.55061 27.330009 
L 47.386213 27.687396 
L 47.221816 28.044784 
L 47.057418 28.402172 
L 46.968086 28.6666 
L 46.878754 28.931027 
L 46.789422 29.195454 
L 46.70009 29.459881 
L 46.610758 29.724308 
L 46.521425 29.988735 
L 46.432093 30.253162 
L 46.342761 30.51759 
L 46.14983 30.860655 
L 45.956898 31.203721 
L 45.763967 31.546787 
L 45.571036 31.889853 
L 45.399552 32.204341 
L 45.228067 32.518829 
L 45.056583 32.833317 
L 44.885099 33.147805 
L 44.563485 33.533704 
L 44.24187 33.919603 
L 43.920256 34.305502 
L 43.598641 34.691402 
L 43.255673 35.034467 
L 42.912705 35.377533 
L 42.569736 35.720599 
L 42.226768 36.063665 
" style="fill:none;stroke:#ff0000;stroke-dasharray:1.48,0.64;stroke-dashoffset:0;stroke-width:0.4;"/>
   </g>
   <g id="line2d_46">
    <path clip-path="url(#p508cc2f48f)" d="M 43.570294 19.768638 
L 43.813113 19.840049 
L 44.055933 19.91146 
L 44.341833 20.040093 
L 44.627733 20.168726 
L 44.913633 20.297359 
L 45.199533 20.425992 
L 45.558913 20.605719 
L 45.918294 20.785445 
L 46.114116 20.883502 
L 46.321407 21.026457 
L 46.528699 21.169412 
L 46.73599 21.312368 
L 46.943282 21.455323 
L 47.100499 21.669689 
L 47.257716 21.884055 
L 47.414933 22.098421 
L 47.572151 22.312788 
L 47.914932 22.484387 
L 48.37241 22.541542 
L 48.829888 22.598698 
L 49.087067 22.670242 
L 49.344247 22.741786 
L 49.572892 23.027697 
L 49.572892 23.513718 
L 49.46575 23.756662 
L 49.358607 23.999605 
L 49.251465 24.242549 
L 49.144322 24.485493 
L 49.008552 24.735632 
L 48.872782 24.98577 
L 48.737012 25.235908 
L 48.601242 25.486046 
L 48.536901 25.786279 
L 48.472559 26.086511 
L 48.408217 26.386744 
L 48.343876 26.686977 
L 48.393857 26.937115 
L 48.443838 27.187253 
L 48.49382 27.437391 
L 48.543801 27.68753 
L 48.62959 27.987696 
L 48.715378 28.287862 
L 48.801167 28.588028 
L 48.886956 28.888193 
L 48.901223 29.152587 
L 48.91549 29.416981 
L 48.929757 29.681375 
L 48.944024 29.945769 
L 48.793987 30.253129 
L 48.64395 30.560489 
L 48.493913 30.86785 
L 48.343876 31.17521 
L 48.200926 31.611137 
L 48.057976 32.047064 
L 47.915026 32.48299 
L 47.772076 32.918917 
L 47.643486 33.33346 
L 47.514896 33.748004 
L 47.386306 34.162547 
L 47.257716 34.577091 
L 47.043245 34.791457 
L 46.828773 35.005823 
L 46.550053 35.206 
L 46.271333 35.406178 
L 45.992613 35.606355 
L 45.713893 35.806532 
L 45.485247 35.935165 
L 45.256601 36.063798 
L 45.027956 36.192431 
L 44.79931 36.321064 
L 44.434895 36.406797 
L 44.070479 36.49253 
L 43.706064 36.578264 
L 43.341648 36.663997 
L 43.010056 36.654338 
L 42.678464 36.644678 
L 42.346872 36.635019 
L 42.01528 36.62536 
L 41.559295 36.779107 
L 41.103309 36.932854 
" style="fill:none;stroke:#4169e1;stroke-linecap:square;stroke-width:0.4;"/>
   </g>
   <g id="line2d_47">
    <path clip-path="url(#p508cc2f48f)" d="M 41.103309 36.932854 
L 40.876808 37.094328 
L 40.650307 37.255802 
L 40.423807 37.417276 
L 40.197306 37.57875 
L 39.982927 37.821761 
L 39.768549 38.064771 
L 39.55417 38.307782 
L 39.339792 38.550792 
L 39.246823 38.808125 
L 39.153854 39.065457 
L 39.060885 39.32279 
L 38.967916 39.580123 
L 38.982277 40.023244 
L 38.996637 40.466365 
L 39.003817 40.888036 
L 39.010997 41.309707 
L 39.018177 41.731379 
L 39.025357 42.15305 
L 38.939569 42.524627 
L 38.85378 42.896204 
L 38.482091 43.210625 
L 38.110402 43.525047 
L 37.803148 43.589396 
L 37.495894 43.653746 
L 37.18864 43.718096 
L 36.881386 43.782446 
L 36.402647 43.846796 
L 35.923909 43.911145 
L 35.445171 43.975495 
L 34.966433 44.039845 
L 34.473334 44.104128 
L 33.980235 44.168412 
L 33.487137 44.232695 
L 32.994038 44.296978 
L 32.683194 44.347006 
L 32.37235 44.397033 
L 32.061506 44.447061 
L 31.750662 44.497089 
L 31.439817 44.547116 
L 31.128973 44.597144 
L 30.818129 44.647172 
L 30.507285 44.697199 
" style="fill:none;stroke:#4169e1;stroke-linecap:square;stroke-width:0.4;"/>
   </g>
   <g id="line2d_48">
    <path clip-path="url(#p508cc2f48f)" d="M 41.103309 36.932854 
L 40.635947 36.82707 
L 40.168585 36.721285 
L 39.768455 36.59978 
L 39.368326 36.478275 
L 38.968196 36.35677 
L 38.568066 36.235264 
L 38.146396 36.099437 
L 37.724726 35.963609 
L 37.303056 35.827782 
L 36.881386 35.691955 
L 36.448339 35.442949 
L 36.015293 35.193943 
L 35.738158 35.034601 
L 35.416544 34.77014 
L 35.094929 34.50568 
L 34.773315 34.241219 
L 34.4517 33.976759 
L 34.058751 33.762326 
L 33.665801 33.547893 
L 33.272852 33.33346 
L 32.879902 33.119028 
" style="fill:none;stroke:#008000;stroke-linecap:square;stroke-width:0.4;"/>
   </g>
   <g id="line2d_49">
    <path clip-path="url(#p508cc2f48f)" d="M 45.918294 20.785445 
L 45.759025 21.105995 
L 45.599756 21.426545 
L 45.392465 21.669556 
L 45.185173 21.912566 
L 44.977881 22.155577 
L 44.77059 22.398587 
L 44.513317 22.61302 
L 44.256044 22.827453 
L 43.998771 23.041886 
L 43.741498 23.256318 
L 43.477139 23.334924 
L 43.212779 23.413529 
L 42.948419 23.492135 
L 42.684059 23.57074 
L 42.312464 23.61364 
L 41.940868 23.65654 
L 41.569272 23.69944 
L 41.197677 23.742339 
L 40.983205 23.89955 
L 40.768733 24.056761 
L 40.683131 24.356927 
L 40.597529 24.657093 
L 40.740386 25.000159 
L 40.883242 25.343224 
L 41.119068 25.70774 
L 41.354894 26.072256 
L 41.590719 26.436772 
L 41.826545 26.801287 
L 41.948048 27.087131 
L 42.069551 27.372975 
L 42.191054 27.658819 
L 42.312557 27.944663 
L 42.491221 28.3235 
L 42.669885 28.702338 
L 42.84855 29.081176 
L 43.027214 29.460014 
L 43.098643 29.860235 
L 43.170071 30.260457 
L 43.041388 30.603523 
L 42.912705 30.946588 
L 42.662612 31.068027 
L 42.412519 31.189466 
L 42.162427 31.310904 
L 41.912334 31.432343 
L 41.483577 31.482371 
L 41.05482 31.532398 
L 40.626063 31.582426 
L 40.197306 31.632454 
L 39.725654 31.682481 
L 39.254003 31.732509 
L 38.782352 31.782536 
L 38.3107 31.832564 
L 38.053427 31.896914 
L 37.796154 31.961264 
L 37.538882 32.025614 
L 37.281609 32.089963 
L 37.024429 32.475929 
L 36.767249 32.861895 
L 36.681461 33.262116 
L 36.595672 33.662337 
L 36.450577 34.045239 
L 36.305482 34.42814 
L 36.160388 34.811042 
L 36.015293 35.193943 
" style="fill:none;stroke:#ff0000;stroke-dasharray:1.48,0.64;stroke-dashoffset:0;stroke-width:0.4;"/>
   </g>
   <g id="line2d_50">
    <path clip-path="url(#p508cc2f48f)" d="M 42.912705 30.946588 
L 42.805562 31.210982 
L 42.69842 31.475376 
L 42.591277 31.73977 
L 42.484134 32.004164 
L 42.205414 32.147119 
L 41.926694 32.290074 
L 41.647974 32.433029 
L 41.369254 32.575984 
L 40.961944 32.704617 
L 40.554634 32.83325 
L 40.147324 32.961884 
L 39.740015 33.090517 
L 39.318344 33.204894 
L 38.896674 33.319272 
L 38.475004 33.433649 
L 38.053334 33.548026 
L 37.688919 33.576604 
L 37.324503 33.605182 
L 36.960088 33.63376 
L 36.595672 33.662337 
" style="fill:none;stroke:#ff0000;stroke-dasharray:1.48,0.64;stroke-dashoffset:0;stroke-width:0.4;"/>
   </g>
   <g id="line2d_51">
    <path clip-path="url(#p508cc2f48f)" d="M 42.198048 15.165827 
L 42.962779 17.124233 
L 43.091462 17.738888 
L 43.227326 18.868007 
L 43.598828 20.183115 
L 43.627362 20.597592 
L 43.227139 21.798255 
L 43.055562 22.112677 
L 42.626991 22.312788 
L 41.726489 22.205604 
L 40.997752 21.884055 
L 39.710735 20.63756 
L 39.082426 19.739861 
L 37.638937 19.139595 
L 34.237415 18.25342 
L 31.82209 17.817493 
L 29.506914 17.624443 
L 27.427657 16.881156 
L 26.677379 16.452291 
L 25.291145 16.20928 
L 24.190625 16.223669 
L 23.733334 16.852512 
L 24.016437 17.805902 
L 25.083853 19.082573 
L 28.306431 22.012755 
L 29.321163 24.142561 
L 29.878416 25.000292 
L 30.135782 25.972067 
L 29.907137 27.287308 
L 30.212992 30.214626 
L 30.107062 31.146699 
L 29.308108 32.558665 
L 28.470922 33.755331 
L 28.020531 34.720179 
L 28.020531 34.720179 
" style="fill:none;stroke:#008000;stroke-linecap:square;stroke-width:0.4;"/>
   </g>
   <g id="line2d_52">
    <path clip-path="url(#p508cc2f48f)" d="M 43.084282 17.481621 
L 42.890418 17.732692 
L 42.696555 17.983763 
L 42.502691 18.234834 
L 42.308827 18.485905 
L 42.1034 18.639718 
L 41.897974 18.793532 
L 41.692547 18.947345 
L 41.48712 19.101159 
L 41.116923 19.203212 
L 40.746726 19.305266 
L 40.37653 19.40732 
L 40.006333 19.509374 
L 39.600328 19.704555 
L 39.194324 19.899736 
" style="fill:none;stroke:#4169e1;stroke-linecap:square;stroke-width:0.4;"/>
   </g>
   <g id="line2d_53">
    <path clip-path="url(#p508cc2f48f)" d="M 20.032857 49.670921 
L 19.832745 50.071142 
L 19.632634 50.471363 
L 19.518311 50.757207 
L 19.403988 51.043051 
L 19.289665 51.328895 
L 19.175343 51.614738 
L 19.103914 51.939951 
L 19.032486 52.265164 
L 18.961057 52.590378 
L 18.889629 52.915591 
" style="fill:none;stroke:#008000;stroke-linecap:square;stroke-width:0.4;"/>
   </g>
   <g id="line2d_54">
    <path clip-path="url(#p508cc2f48f)" d="M 40.997752 21.884055 
L 40.804727 22.062716 
L 40.611702 22.241377 
L 40.418678 22.420037 
L 40.225653 22.598698 
L 40.004188 22.791681 
L 39.782722 22.984664 
L 39.561257 23.177646 
L 39.339792 23.370629 
L 39.1325 23.61364 
L 38.925208 23.85665 
L 38.717917 24.099661 
L 38.510625 24.342671 
L 38.346321 24.557104 
L 38.182017 24.771537 
L 38.017713 24.98597 
L 37.853409 25.200402 
L 37.617583 25.421896 
L 37.381758 25.64339 
L 37.145932 25.864884 
L 36.910106 26.086378 
L 36.567045 26.300811 
L 36.223983 26.515244 
L 35.880922 26.729677 
L 35.53786 26.944109 
L 35.323481 27.18712 
L 35.109103 27.43013 
L 34.894724 27.673141 
L 34.680346 27.916151 
L 34.401719 28.266345 
L 34.123092 28.616539 
L 33.844465 28.966732 
L 33.565839 29.316926 
L 33.379994 29.595642 
L 33.19415 29.874358 
L 33.008305 30.153074 
L 32.822461 30.43179 
L 32.422424 30.7177 
L 32.022388 31.003611 
L 31.607805 31.232366 
L 31.193221 31.46112 
L 30.818176 31.58962 
L 30.44313 31.71812 
L 30.068084 31.84662 
L 29.693038 31.97512 
" style="fill:none;stroke:#000000;stroke-linecap:square;stroke-width:0.4;"/>
   </g>
   <g id="line2d_55">
    <path clip-path="url(#p508cc2f48f)" d="M 40.73218 16.077117 
L 40.519853 15.927966 
L 40.307526 15.778816 
L 40.095199 15.629666 
L 39.882871 15.480515 
L 39.618418 15.373266 
L 39.353965 15.266016 
L 39.089512 15.158766 
L 38.825059 15.051516 
L 38.353408 14.922883 
L 37.881757 14.79425 
L 37.410105 14.665617 
L 36.938454 14.536984 
L 36.688361 14.472668 
L 36.438268 14.408351 
L 36.188176 14.344035 
L 35.938083 14.279718 
L 35.68799 14.215402 
L 35.437897 14.151085 
L 35.187805 14.086769 
L 34.937712 14.022452 
L 34.508955 14.036708 
L 34.080198 14.050963 
L 33.651441 14.065219 
L 33.222684 14.079474 
L 32.78684 14.229557 
L 32.350996 14.37964 
L 31.915152 14.529723 
L 31.479308 14.679806 
L 31.114893 14.894239 
L 30.750477 15.108672 
L 30.386062 15.323105 
L 30.021646 15.537537 
L 29.671498 15.75197 
L 29.321349 15.966403 
L 28.971201 16.180836 
L 28.621052 16.395269 
" style="fill:none;stroke:#ff0000;stroke-dasharray:1.48,0.64;stroke-dashoffset:0;stroke-width:0.4;"/>
   </g>
   <g id="line2d_56">
    <path clip-path="url(#p508cc2f48f)" d="M 39.182015 19.888811 
L 39.028528 20.101778 
L 38.875041 20.314746 
L 38.721553 20.527713 
L 38.568066 20.74068 
L 38.275079 20.990818 
L 37.982092 21.240957 
L 37.689105 21.491095 
L 37.396118 21.741233 
L 37.088771 21.927022 
L 36.781423 22.11281 
L 36.474076 22.298599 
L 36.166728 22.484387 
L 35.838027 22.684498 
L 35.509326 22.884608 
L 35.180625 23.084719 
L 34.851923 23.28483 
L 34.551849 23.642151 
L 34.251775 23.999472 
L 34.123186 24.249677 
L 33.994596 24.499882 
L 33.866006 24.750087 
L 33.737416 25.000292 
L 33.422982 25.243169 
L 33.108548 25.486046 
L 32.622536 25.557591 
L 32.136524 25.629135 
L 31.707767 25.843501 
L 31.27901 26.057867 
L 30.95637 26.248185 
L 30.63373 26.438504 
L 30.31109 26.628822 
L 29.98845 26.81914 
" style="fill:none;stroke:#000000;stroke-linecap:square;stroke-width:0.4;"/>
   </g>
   <g id="line2d_57">
    <path clip-path="url(#p508cc2f48f)" d="M 41.369254 15.509026 
L 41.050717 15.793071 
L 40.73218 16.077117 
L 40.521811 16.264704 
L 40.311442 16.452291 
L 40.054169 16.631018 
L 39.796896 16.809745 
L 39.539623 16.988473 
L 39.282351 17.1672 
L 38.989363 17.267255 
L 38.696376 17.367311 
L 38.403389 17.467366 
L 38.110402 17.567421 
L 37.760254 17.603127 
L 37.410105 17.638832 
L 37.059957 17.674538 
L 36.709808 17.710243 
L 36.245337 17.62451 
L 35.780866 17.538777 
L 35.316395 17.453044 
L 34.851923 17.367311 
L 34.387452 17.267189 
L 33.922981 17.167067 
L 33.45851 17.066945 
L 32.994038 16.966823 
L 32.629623 16.938245 
L 32.265207 16.909667 
L 31.900792 16.88109 
L 31.536376 16.852512 
L 31.200495 16.92399 
L 30.864613 16.995467 
L 30.528732 17.066945 
L 30.192851 17.138422 
L 29.824705 17.330939 
L 29.45656 17.523455 
" style="fill:none;stroke:#4169e1;stroke-linecap:square;stroke-width:0.4;"/>
   </g>
   <g id="line2d_58">
    <path clip-path="url(#p508cc2f48f)" d="M 43.113003 18.510686 
L 42.798569 18.868007 
L 42.484134 19.225328 
L 42.326917 19.697094 
L 42.1697 20.168859 
L 41.983762 20.554825 
L 41.797825 20.940791 
L 41.597806 21.176607 
L 41.397788 21.412423 
L 41.19777 21.648239 
L 40.997752 21.884055 
" style="fill:none;stroke:#008000;stroke-linecap:square;stroke-width:0.4;"/>
   </g>
   <g id="line2d_59">
    <path clip-path="url(#p508cc2f48f)" d="M 39.882871 20.883502 
L 39.539903 21.169412 
L 39.196935 21.455323 
L 38.982556 21.726911 
L 38.768178 21.998499 
L 38.553799 22.270087 
L 38.339421 22.541676 
L 38.160756 22.7239 
L 37.982092 22.906125 
L 37.803428 23.088349 
L 37.624764 23.270574 
L 37.446099 23.452799 
L 37.267435 23.635023 
L 37.088771 23.817248 
L 36.910106 23.999472 
L 36.706451 24.199616 
L 36.502796 24.39976 
L 36.299141 24.599904 
L 36.095487 24.800048 
L 35.891832 25.000192 
L 35.688177 25.200336 
L 35.484522 25.40048 
L 35.280867 25.600624 
L 34.944985 25.965073 
L 34.609104 26.329522 
L 34.273223 26.693971 
L 33.937341 27.05842 
" style="fill:none;stroke:#000000;stroke-linecap:square;stroke-width:0.4;"/>
   </g>
   <g id="line2d_60">
    <path clip-path="url(#p508cc2f48f)" d="M 31.707954 18.310575 
L 31.507842 18.625063 
L 31.307731 18.939551 
L 31.107619 19.254039 
L 30.907508 19.568527 
L 30.736024 19.890143 
L 30.564539 20.211759 
L 30.393055 20.533375 
L 30.221571 20.854991 
" style="fill:none;stroke:#ff0000;stroke-dasharray:1.48,0.64;stroke-dashoffset:0;stroke-width:0.4;"/>
   </g>
   <g id="line2d_61">
    <path clip-path="url(#p508cc2f48f)" d="M 33.937341 27.05842 
L 33.594373 27.401486 
L 33.251404 27.744552 
L 33.07992 27.933938 
L 32.908436 28.123323 
L 32.736952 28.312709 
L 32.565468 28.502095 
L 32.393984 28.69148 
L 32.222499 28.880866 
L 32.051015 29.070251 
L 31.879531 29.259637 
L 31.536376 29.474137 
L 31.193221 29.688636 
L 30.948164 29.820133 
L 30.703107 29.951631 
L 30.45805 30.083128 
L 30.212992 30.214626 
" style="fill:none;stroke:#4169e1;stroke-linecap:square;stroke-width:0.4;"/>
   </g>
   <g id="line2d_62">
    <path clip-path="url(#p508cc2f48f)" d="M 38.474818 19.436097 
L 38.240857 19.540682 
L 38.006896 19.645268 
L 37.772936 19.749853 
L 37.538975 19.854438 
L 37.285292 19.940204 
L 37.031609 20.025971 
L 36.777926 20.111737 
L 36.524244 20.197504 
L 36.270561 20.28327 
L 36.016878 20.369037 
L 35.763195 20.454803 
L 35.509512 20.540569 
L 35.066488 20.640625 
L 34.623464 20.74068 
L 34.18044 20.840735 
L 33.737416 20.940791 
L 33.337193 20.955046 
L 32.93697 20.969302 
L 32.536747 20.983557 
L 32.136524 20.997813 
L 31.764929 21.033585 
L 31.393333 21.069357 
L 31.021737 21.105129 
L 30.650142 21.140901 
L 30.264279 21.205185 
L 29.878416 21.269468 
L 29.492554 21.333751 
L 29.106691 21.398034 
L 28.620866 21.512478 
L 28.135041 21.626922 
" style="fill:none;stroke:#ff0000;stroke-linecap:square;stroke-width:0.4;"/>
   </g>
   <g id="line2d_63">
    <path clip-path="url(#p508cc2f48f)" d="M 27.677749 17.024112 
L 27.677749 17.424333 
L 27.677749 17.824554 
L 27.706284 18.181875 
L 27.734818 18.539197 
L 27.842053 18.789335 
L 27.949289 19.039473 
L 28.056525 19.289612 
L 28.163761 19.53975 
L 28.249363 19.982871 
L 28.334966 20.425992 
L 28.284984 20.726225 
L 28.235003 21.026457 
L 28.185022 21.32669 
L 28.135041 21.626922 
" style="fill:none;stroke:#4169e1;stroke-linecap:square;stroke-width:0.4;"/>
   </g>
   <g id="line2d_64">
    <path clip-path="url(#p508cc2f48f)" d="M 13.901202 21.691139 
L 13.929923 22.059252 
L 13.958643 22.427365 
L 14.008624 22.906191 
L 14.058606 23.385018 
L 14.108587 23.863845 
L 14.158568 24.342671 
L 14.198805 24.618556 
L 14.239042 24.894441 
L 14.279279 25.170326 
L 14.319515 25.446211 
L 14.359752 25.722096 
L 14.399989 25.997981 
L 14.440226 26.273865 
L 14.480462 26.54975 
L 14.519627 26.818474 
L 14.558791 27.087198 
L 14.612362 27.501708 
L 14.665934 27.916218 
L 14.719505 28.330728 
L 14.773076 28.745238 
L 14.826648 29.159748 
L 14.880219 29.574258 
L 14.93379 29.988769 
L 14.987362 30.403279 
L 15.021304 30.894096 
L 15.055247 31.384913 
L 15.089189 31.87573 
L 15.123132 32.366548 
L 15.157074 32.857365 
L 15.191017 33.348182 
L 15.224959 33.839 
L 15.258902 34.329817 
L 15.274194 34.587749 
L 15.289487 34.845681 
L 15.306039 35.124597 
L 15.32259 35.403513 
L 15.339142 35.682429 
L 15.355694 35.961345 
L 15.372245 36.24026 
L 15.388797 36.519176 
L 15.405349 36.798092 
L 15.4219 37.077008 
L 15.484004 37.562296 
L 15.546107 38.047584 
L 15.608211 38.532873 
L 15.670314 39.018161 
L 15.709992 39.267067 
L 15.749669 39.515973 
L 15.789346 39.764879 
L 15.829024 40.013785 
L 15.868701 40.26269 
L 15.908378 40.511596 
L 15.948055 40.760502 
L 15.987733 41.009408 
L 15.973466 41.323863 
L 15.959199 41.638318 
L 15.944932 41.952773 
L 15.930664 42.267227 
L 15.916397 42.581682 
L 15.90213 42.896137 
L 15.887863 43.210592 
L 15.873596 43.525047 
L 15.802075 44.011068 
L 15.730553 44.497089 
L 15.659031 44.98311 
L 15.58751 45.469131 
L 15.516081 45.762169 
L 15.444653 46.055207 
L 15.373224 46.348245 
L 15.301796 46.641283 
L 15.097488 46.965031 
L 14.893181 47.288778 
L 14.688873 47.612526 
L 14.484565 47.936273 
L 14.558791 47.756147 
" style="fill:none;stroke:#008000;stroke-linecap:square;stroke-width:0.4;"/>
   </g>
   <g id="line2d_65">
    <path clip-path="url(#p508cc2f48f)" d="M 26.42225 16.435237 
L 26.078163 16.129343 
L 25.734076 15.823448 
L 25.383927 15.637593 
L 25.033779 15.451738 
L 24.68363 15.265883 
L 24.333482 15.080028 
L 24.054855 15.037194 
L 23.776228 14.994361 
L 23.497601 14.951528 
L 23.218975 14.908694 
L 22.933168 14.930144 
L 22.647361 14.951594 
L 22.361554 14.973044 
L 22.075747 14.994494 
L 21.761313 15.137316 
L 21.446878 15.280138 
L 21.332556 15.523149 
L 21.218233 15.766159 
L 21.389437 16.023558 
L 21.689698 16.137869 
L 21.989958 16.25218 
L 22.304206 16.480935 
L 22.618454 16.70969 
L 22.804298 16.931251 
L 22.990143 17.152811 
L 23.175987 17.374372 
L 23.361831 17.595932 
L 23.511868 17.810298 
L 23.661905 18.024665 
L 23.811942 18.239031 
L 23.961979 18.453397 
L 24.390736 18.653641 
L 24.819494 18.853885 
" style="fill:none;stroke:#008000;stroke-linecap:square;stroke-width:0.4;"/>
   </g>
   <g id="line2d_66">
    <path clip-path="url(#p508cc2f48f)" d="M 21.330877 17.914617 
L 21.574629 18.241296 
L 21.818381 18.567974 
L 22.032759 18.832368 
L 22.247138 19.096762 
L 22.461516 19.361156 
L 22.675895 19.62555 
L 22.847379 19.86856 
L 23.018863 20.111571 
L 23.190347 20.354581 
L 23.361831 20.597592 
L 23.547583 20.883502 
L 23.733334 21.169412 
L 23.733334 21.655433 
L 23.576117 21.969855 
L 23.4189 22.284276 
L 23.254596 22.491515 
L 23.090292 22.698753 
L 22.925988 22.905992 
L 22.761684 23.11323 
L 22.595888 23.462424 
L 22.430092 23.811619 
L 22.218604 24.256872 
L 22.04712 24.621387 
L 21.875635 24.985903 
L 21.704151 25.350419 
L 21.532667 25.714935 
L 21.354003 26.086578 
L 21.175338 26.458222 
L 20.996674 26.829865 
L 20.81801 27.201509 
L 20.703687 27.501675 
L 20.589364 27.801841 
L 20.475041 28.102007 
L 20.360719 28.402172 
L 20.267843 28.695211 
L 20.174968 28.988249 
L 20.082092 29.281287 
L 19.989216 29.574325 
L 19.903428 29.903002 
L 19.817639 30.231679 
L 19.846173 30.589134 
L 19.874707 30.946588 
L 19.846173 31.403965 
L 19.817639 31.861342 
L 19.760478 32.197213 
L 19.703316 32.533085 
L 19.646155 32.868956 
L 19.588993 33.204827 
L 19.481851 33.504993 
L 19.374708 33.805159 
L 19.267565 34.105325 
L 19.160423 34.405491 
L 19.103261 34.669952 
L 19.0461 34.934412 
L 18.988939 35.198872 
L 18.931777 35.463333 
L 18.77456 35.935098 
L 18.617343 36.406864 
L 18.474393 36.66413 
L 18.331443 36.921396 
L 18.188493 37.178662 
L 18.045543 37.435928 
" style="fill:none;stroke:#008000;stroke-linecap:square;stroke-width:0.4;"/>
   </g>
   <g id="line2d_67">
    <path clip-path="url(#p508cc2f48f)" d="M 11.929181 4.702786 
L 12.200721 4.616986 
L 12.472261 4.531187 
L 12.872484 4.531187 
L 13.272707 4.731297 
L 13.486992 4.974308 
L 13.701277 5.217318 
L 13.986991 5.446073 
L 14.272704 5.674828 
L 14.715822 5.789139 
L 15.158939 5.90345 
L 15.405442 5.982055 
L 15.651944 6.060661 
L 15.898447 6.139266 
L 16.14495 6.217871 
L 16.391452 6.296477 
L 16.637955 6.375082 
L 16.884458 6.453688 
L 17.13096 6.532293 
L 17.37392 6.607334 
L 17.616879 6.682376 
L 17.859838 6.757417 
L 18.102797 6.832459 
L 18.345756 6.9075 
L 18.588716 6.982542 
L 18.831675 7.057583 
L 19.074634 7.132625 
L 19.346174 7.27558 
L 19.617714 7.418535 
L 19.831999 7.590068 
L 20.046284 7.761601 
L 20.26057 7.933134 
L 20.474855 8.104667 
L 20.717861 8.290522 
L 20.960867 8.476377 
L 21.203873 8.662232 
L 21.446878 8.848087 
L 21.696971 8.962398 
L 21.947064 9.076709 
L 22.197157 9.19102 
L 22.447249 9.305331 
L 22.754503 9.498313 
L 23.061758 9.691296 
L 23.369012 9.884279 
L 23.676266 10.077262 
L 23.933445 10.348784 
L 24.190625 10.620305 
L 24.419271 10.941921 
L 24.647916 11.263537 
L 24.876562 11.585153 
L 25.105207 11.906769 
L 25.376747 12.242707 
L 25.648287 12.578645 
L 25.919827 12.914583 
L 26.191367 13.250521 
L 26.491534 13.586459 
L 26.791701 13.922397 
L 27.091869 14.258335 
L 27.392036 14.594273 
L 27.649215 14.980105 
L 27.906395 15.365938 
L 27.990692 15.811191 
L 28.074988 16.256443 
L 27.876369 16.640278 
L 27.677749 17.024112 
" style="fill:none;stroke:#4169e1;stroke-linecap:square;stroke-width:0.4;"/>
   </g>
   <g id="line2d_68">
    <path clip-path="url(#p508cc2f48f)" d="M 12.98662 12.96461 
L 13.343948 13.09331 
L 13.701277 13.22201 
L 13.979904 13.37922 
L 14.258531 13.536431 
L 14.537157 13.693642 
L 14.815784 13.850853 
L 15.201647 14.093863 
L 15.58751 14.336874 
L 15.944838 14.465573 
L 16.302167 14.594273 
L 16.716564 14.63704 
L 17.13096 14.679806 
L 17.4025 14.708451 
L 17.67404 14.737095 
L 17.94558 14.765739 
L 18.21712 14.794384 
L 18.660051 14.92295 
L 19.102982 15.051516 
L 19.403056 15.223116 
L 19.70313 15.394715 
L 20.046284 15.737781 
L 20.389439 16.080847 
L 20.522971 16.313799 
L 20.656503 16.54675 
L 20.790035 16.779702 
L 20.923567 17.012654 
L 21.127222 17.463635 
L 21.330877 17.914617 
" style="fill:none;stroke:#008000;stroke-linecap:square;stroke-width:0.4;"/>
   </g>
   <g id="line2d_69">
    <path clip-path="url(#p508cc2f48f)" d="M 21.446878 8.848087 
L 21.64699 9.291208 
L 21.847101 9.734329 
L 21.861275 10.020106 
L 21.875449 10.305884 
L 21.775486 10.577538 
L 21.675524 10.849193 
L 21.546841 11.120715 
L 21.418158 11.392237 
L 21.403797 11.749558 
L 21.389437 12.106879 
L 21.461052 12.564389 
L 21.532667 13.021899 
L 21.525487 13.286293 
L 21.518307 13.550687 
L 21.511127 13.815081 
L 21.503946 14.079474 
L 21.489679 14.37964 
L 21.475412 14.679806 
L 21.461145 14.979972 
L 21.446878 15.280138 
" style="fill:none;stroke:#4169e1;stroke-linecap:square;stroke-width:0.4;"/>
   </g>
   <g id="line2d_70">
    <path clip-path="url(#p508cc2f48f)" d="M 21.330877 17.914617 
L 21.131512 18.126852 
L 20.932146 18.339086 
L 20.617898 18.667896 
L 20.303651 18.996707 
L 19.974856 19.125406 
L 19.646061 19.254106 
L 19.367435 19.325517 
L 19.088808 19.396928 
L 18.810181 19.468339 
L 18.531554 19.53975 
L 18.202853 19.718477 
L 17.874152 19.897204 
L 17.54545 20.075932 
L 17.216749 20.254659 
L 16.802352 20.404742 
L 16.387956 20.554825 
L 15.973559 20.704908 
L 15.559162 20.854991 
L 15.144672 21.064028 
L 14.730182 21.273065 
L 14.315692 21.482102 
L 13.901202 21.691139 
" style="fill:none;stroke:#008000;stroke-linecap:square;stroke-width:0.4;"/>
   </g>
   <g id="line2d_71">
    <path clip-path="url(#p508cc2f48f)" d="M 13.415563 14.165274 
L 13.758532 14.308229 
L 14.1015 14.451185 
L 14.530071 14.63704 
L 14.958641 14.822895 
L 15.358864 15.051516 
L 15.759087 15.280138 
L 16.087695 15.494638 
L 16.416303 15.709137 
L 16.730737 15.937759 
L 17.045172 16.16638 
L 17.4025 16.509446 
L 17.759829 16.852512 
L 17.981294 17.002595 
L 18.20276 17.152678 
L 18.424225 17.302761 
L 18.645691 17.452844 
L 18.988659 17.638699 
L 19.331627 17.824554 
L 19.617714 18.196264 
L 19.703316 18.53933 
L 19.788918 18.882396 
L 20.060458 19.211073 
L 20.331998 19.53975 
L 20.510662 19.797083 
L 20.689327 20.054415 
L 20.867991 20.311748 
L 21.046655 20.569081 
L 21.303835 20.797702 
L 21.561015 21.026324 
L 21.746766 21.41229 
L 21.932517 21.798255 
L 22.04684 22.169966 
L 22.161163 22.541676 
L 22.228395 22.859161 
L 22.295627 23.176647 
L 22.362859 23.494133 
L 22.430092 23.811619 
" style="fill:none;stroke:#008000;stroke-linecap:square;stroke-width:0.4;"/>
   </g>
   <g id="line2d_72">
    <path clip-path="url(#p508cc2f48f)" d="M 26.477827 20.244001 
L 26.34905 20.489609 
L 26.220274 20.735218 
L 26.091498 20.980826 
L 25.962721 21.226435 
L 25.662647 21.355134 
L 25.362573 21.483834 
L 25.062499 21.612534 
L 24.762425 21.741233 
L 24.426544 21.876994 
L 24.090663 22.012755 
L 23.754781 22.148516 
L 23.4189 22.284276 
" style="fill:none;stroke:#008000;stroke-linecap:square;stroke-width:0.4;"/>
   </g>
   <g id="line2d_73">
    <path clip-path="url(#p508cc2f48f)" d="M 12.529329 14.079474 
L 12.129292 14.22243 
L 11.729256 14.365385 
L 11.371927 14.436929 
L 11.014599 14.508473 
L 10.757419 14.737095 
L 10.500239 14.965717 
L 10.214526 15.323171 
L 9.928812 15.680626 
L 9.642912 16.066458 
L 9.357012 16.452291 
L 9.199794 16.838256 
L 9.042577 17.224222 
L 9.069433 17.564757 
L 9.096288 17.905291 
L 9.123144 18.245826 
L 9.15 18.58636 
L 9.187486 19.032012 
L 9.224972 19.477665 
L 9.262457 19.923317 
L 9.299943 20.36897 
" style="fill:none;stroke:#000000;stroke-linecap:square;stroke-width:0.4;"/>
   </g>
   <g id="line2d_74">
    <path clip-path="url(#p508cc2f48f)" d="M 11.643467 4.845608 
L 11.321946 4.982168 
L 11.000425 5.118728 
L 10.852906 5.341688 
L 10.705386 5.564647 
L 10.557867 5.787607 
L 10.410348 6.010566 
L 10.06309 5.999109 
L 9.715832 5.987651 
L 9.40317 5.911177 
L 9.090507 5.834704 
L 8.777845 5.75823 
L 8.465182 5.681756 
L 7.99437 5.709268 
L 7.523558 5.73678 
L 7.052746 5.764292 
L 6.581933 5.791804 
L 6.132195 5.884731 
L 5.682457 5.977659 
L 5.232719 6.070586 
L 4.782982 6.163514 
L 4.482814 6.263569 
L 4.182647 6.363624 
L 3.88248 6.46368 
L 3.582313 6.563735 
L 3.42752 6.862302 
L 3.272727 7.160869 
L 3.323268 7.424797 
L 3.373809 7.688724 
L 3.702417 7.949588 
L 4.031025 8.210451 
L 4.337253 8.340883 
L 4.643482 8.471314 
L 4.94971 8.601746 
L 5.255938 8.732177 
L 5.523469 8.799725 
L 5.790999 8.867272 
L 6.058529 8.934819 
L 6.326059 9.002367 
L 6.538293 9.03674 
L 7.01815 9.114546 
L 7.498008 9.192352 
L 7.84023 9.408983 
L 8.182452 9.625614 
L 8.375011 9.812135 
L 8.567569 9.998657 
L 8.760127 10.185178 
L 8.952686 10.371699 
L 9.245952 10.436382 
L 9.539219 10.501065 
L 9.832486 10.565748 
L 10.125753 10.630431 
L 10.422284 10.716164 
L 10.718814 10.801897 
L 11.015345 10.88763 
L 11.311875 10.973363 
L 11.672001 11.175739 
L 12.032127 11.378114 
L 12.120713 11.624655 
L 12.2093 11.871196 
L 12.297886 12.117737 
L 12.386472 12.364279 
" style="fill:none;stroke:#4169e1;stroke-linecap:square;stroke-width:0.4;"/>
   </g>
   <g id="line2d_75">
    <path clip-path="url(#p508cc2f48f)" d="M 22.075747 25.400513 
L 22.039939 25.693485 
L 22.004132 25.986456 
L 21.968324 26.279428 
L 21.932517 26.572399 
L 21.939697 26.85831 
L 21.946877 27.14422 
L 21.954057 27.43013 
L 21.961238 27.716041 
L 21.996952 28.109134 
L 22.032666 28.502228 
L 22.06838 28.895321 
L 22.104094 29.288415 
L 22.143399 29.552842 
L 22.182703 29.817269 
L 22.222007 30.081696 
L 22.261312 30.346123 
L 22.300616 30.61055 
L 22.33992 30.874978 
L 22.379224 31.139405 
L 22.418529 31.403832 
L 22.464967 31.761186 
L 22.511404 32.118541 
L 22.557842 32.475896 
L 22.60428 32.83325 
L 22.650718 33.190605 
L 22.697156 33.54796 
L 22.743593 33.905315 
L 22.790031 34.262669 
" style="fill:none;stroke:#000000;stroke-dasharray:1.48,0.64;stroke-dashoffset:0;stroke-width:0.4;"/>
   </g>
   <g id="line2d_76">
    <path clip-path="url(#p508cc2f48f)" d="M 15.289487 34.845681 
L 15.692881 35.047257 
L 16.096274 35.248834 
L 16.290604 35.421832 
L 16.484934 35.59483 
L 16.679264 35.767829 
L 16.873594 35.940827 
L 17.035847 36.196295 
L 17.198099 36.451762 
L 17.360352 36.70723 
L 17.522604 36.962697 
L 17.673014 37.220696 
L 17.823424 37.478695 
L 17.973834 37.736694 
L 18.124244 37.994692 
L 18.318574 38.300254 
L 18.512905 38.605816 
L 18.707235 38.911378 
L 18.901565 39.216939 
L 19.023441 39.593579 
L 19.145317 39.970219 
L 19.267192 40.346858 
L 19.389068 40.723498 
L 19.503391 40.973636 
L 19.617714 41.223774 
L 19.732037 41.473913 
L 19.846359 41.724051 
L 19.989216 42.017089 
L 20.132073 42.310127 
L 20.27493 42.603165 
L 20.417787 42.896204 
L 20.603538 43.239269 
L 20.789289 43.582335 
L 20.97504 43.925401 
L 21.160792 44.268467 
" style="fill:none;stroke:#008000;stroke-linecap:square;stroke-width:0.4;"/>
   </g>
   <g id="line2d_77">
    <path clip-path="url(#p508cc2f48f)" d="M 6.538293 9.03674 
L 6.518711 9.48559 
L 6.499129 9.93444 
L 6.341912 10.291761 
L 6.184694 10.649083 
L 5.898794 10.97776 
L 5.612894 11.306437 
L 5.32 11.47797 
L 5.027106 11.649503 
L 4.734212 11.821035 
L 4.441319 11.992568 
L 4.241207 12.292734 
L 4.041096 12.5929 
L 4.08399 12.950355 
L 4.126884 13.307809 
L 4.22694 13.543626 
L 4.326996 13.779442 
L 4.427052 14.015258 
L 4.527107 14.251074 
L 4.527107 14.737095 
L 4.341356 15.051516 
L 4.155605 15.365938 
L 4.127071 15.666104 
L 4.098537 15.96627 
L 4.284288 16.195025 
L 4.470039 16.42378 
L 4.670057 16.595313 
L 4.870076 16.766845 
L 5.070094 16.938378 
L 5.270112 17.109911 
L 5.455863 17.302894 
L 5.641615 17.495877 
L 5.827366 17.68886 
L 6.013117 17.881843 
L 6.184601 18.096209 
L 6.356085 18.310575 
L 6.527569 18.524941 
L 6.699054 18.739307 
L 6.956233 19.053862 
L 7.213413 19.368417 
L 7.484953 19.611427 
L 7.756493 19.854438 
L 8.006585 19.925915 
L 8.256678 19.997393 
L 8.506771 20.068871 
L 8.756864 20.140348 
L 9.028404 20.254659 
L 9.299943 20.36897 
L 9.642912 20.626236 
L 9.98588 20.883502 
L 10.151117 21.27493 
L 10.316353 21.666358 
L 10.422657 21.918162 
L 10.52896 22.169966 
L 10.607568 22.412976 
L 10.686177 22.655987 
L 10.764786 22.898997 
L 10.843394 23.142008 
L 10.979071 23.420724 
L 11.114748 23.69944 
L 11.250424 23.978156 
L 11.386101 24.256872 
L 11.593299 24.585615 
L 11.800498 24.914359 
L 12.007696 25.243103 
L 12.214894 25.571846 
" style="fill:none;stroke:#4169e1;stroke-linecap:square;stroke-width:0.4;"/>
   </g>
   <g id="line2d_78">
    <path clip-path="url(#p508cc2f48f)" d="M 19.389068 40.723498 
L 19.253298 41.062966 
L 19.117528 41.402435 
L 18.981759 41.741904 
L 18.845989 42.081372 
L 18.797313 42.553804 
L 18.748637 43.026236 
L 18.866503 43.450038 
L 18.984369 43.873841 
L 19.226629 44.265536 
L 19.468889 44.65723 
L 19.570344 45.023212 
L 19.671798 45.389193 
L 19.558967 45.860159 
L 19.446137 46.331125 
L 19.331068 46.646279 
L 19.215999 46.961434 
L 19.10093 47.276588 
L 18.985861 47.591742 
L 18.871539 47.928346 
L 18.757216 48.26495 
L 18.642893 48.601555 
L 18.52857 48.938159 
L 18.416392 49.21048 
L 18.304214 49.482801 
L 18.192036 49.755122 
L 18.079858 50.027443 
L 17.875457 50.26619 
L 17.671056 50.504937 
L 17.374526 50.58634 
L 17.077995 50.667743 
L 16.960129 50.910088 
L 16.842263 51.152432 
L 16.7865 51.544127 
L 16.730737 51.935821 
L 16.787992 52.418911 
L 16.845247 52.902001 
" style="fill:none;stroke:#008000;stroke-linecap:square;stroke-width:0.4;"/>
   </g>
   <g id="line2d_79">
    <path clip-path="url(#p508cc2f48f)" d="M 10.386103 16.16638 
L 10.507513 16.445163 
L 10.628922 16.723946 
L 10.750332 17.002728 
L 10.871742 17.281511 
L 11.000332 17.73176 
L 11.128921 18.182009 
L 11.257511 18.632258 
L 11.386101 19.082506 
L 11.475433 19.418411 
L 11.564765 19.754316 
L 11.654097 20.090221 
L 11.74343 20.426125 
L 11.832762 20.76203 
L 11.922094 21.097935 
L 12.011426 21.43384 
L 12.100758 21.769744 
L 12.1865 22.123502 
L 12.272242 22.477259 
L 12.357984 22.831017 
L 12.443727 23.184774 
L 12.529469 23.538532 
L 12.615211 23.892289 
L 12.700953 24.246047 
L 12.786695 24.599804 
" style="fill:none;stroke:#4169e1;stroke-dasharray:1.48,0.64;stroke-dashoffset:0;stroke-width:0.4;"/>
   </g>
   <g id="line2d_80">
    <path clip-path="url(#p508cc2f48f)" d="M 13.01534 14.279585 
L 12.998183 14.72204 
L 12.981025 15.164495 
L 12.963867 15.60695 
L 12.946709 16.049405 
L 12.973845 16.494658 
L 13.00098 16.939911 
L 13.028115 17.385163 
L 13.055251 17.830416 
L 13.106351 18.277401 
L 13.157451 18.724386 
L 13.208552 19.17137 
L 13.259652 19.618355 
L 13.339846 19.877453 
L 13.420039 20.136551 
L 13.500233 20.395649 
L 13.580427 20.654747 
L 13.660621 20.913845 
L 13.740814 21.172943 
L 13.821008 21.432041 
L 13.901202 21.691139 
" style="fill:none;stroke:#4169e1;stroke-linecap:square;stroke-width:0.4;"/>
   </g>
   <g id="line2d_81">
    <path clip-path="url(#p508cc2f48f)" d="M 12.214894 25.571846 
L 12.212843 25.861687 
L 12.210792 26.151527 
L 12.20874 26.441368 
L 12.206689 26.731209 
L 12.123045 26.977417 
L 12.039401 27.223625 
L 11.955757 27.469833 
L 11.872113 27.716041 
L 11.729256 28.044851 
L 11.586399 28.373661 
L 11.600573 28.759494 
L 11.614747 29.145326 
L 11.700535 29.617092 
L 11.786324 30.088857 
L 11.714896 30.403279 
L 11.643467 30.7177 
L 11.629107 31.060766 
L 11.614747 31.403832 
L 11.74343 31.76122 
L 11.872113 32.118608 
L 12.000796 32.475996 
L 12.129479 32.833384 
L 12.265155 33.219283 
L 12.400832 33.605182 
L 12.536509 33.991081 
L 12.672186 34.37698 
L 12.757974 34.619991 
L 12.843763 34.863001 
L 12.929552 35.106012 
L 13.01534 35.349022 
L 13.079682 35.64206 
L 13.144023 35.935098 
L 13.208365 36.228137 
L 13.272707 36.521175 
L 13.258346 36.849852 
L 13.243986 37.178529 
L 13.172558 37.650294 
L 13.101129 38.12206 
L 13.058235 38.493637 
L 13.01534 38.865214 
L 13.079682 39.115352 
L 13.144023 39.36549 
L 13.208365 39.615628 
L 13.272707 39.865767 
L 13.365582 40.137355 
L 13.458458 40.408943 
L 13.551333 40.680531 
L 13.644209 40.95212 
L 13.629849 41.21658 
L 13.615488 41.48104 
L 13.601128 41.745501 
L 13.586768 42.009961 
L 13.529606 42.345899 
L 13.472445 42.681837 
L 13.415284 43.017775 
L 13.358122 43.353713 
L 13.336768 43.682457 
L 13.315414 44.011201 
L 13.29406 44.339944 
L 13.272707 44.668688 
L 13.301241 44.975982 
L 13.329775 45.283276 
L 13.358309 45.590569 
L 13.386843 45.897863 
L 13.472632 46.205223 
L 13.55842 46.512584 
L 13.644209 46.819944 
L 13.729998 47.127304 
L 13.91864 47.329547 
L 14.107281 47.531789 
L 14.295923 47.734031 
L 14.484565 47.936273 
L 14.707429 48.375131 
L 14.930294 48.813989 
L 15.080331 49.264238 
L 15.230368 49.714487 
L 15.380405 50.164736 
L 15.530442 50.614985 
L 15.739412 51.023399 
L 15.948382 51.431814 
L 16.157352 51.840229 
L 16.366322 52.248644 
" style="fill:none;stroke:#008000;stroke-linecap:square;stroke-width:0.4;"/>
   </g>
   <g id="line2d_82">
    <path clip-path="url(#p508cc2f48f)" d="M 14.272704 5.674828 
L 14.172742 5.924966 
L 14.072779 6.175105 
L 13.972817 6.425243 
L 13.872855 6.675381 
L 13.815693 6.932647 
L 13.758532 7.189913 
L 13.70137 7.447179 
L 13.644209 7.704446 
L 13.415563 8.076156 
L 13.186918 8.447866 
L 12.886098 8.780806 
L 12.585278 9.113747 
L 12.498743 9.542612 
L 12.412209 9.971478 
L 12.431884 10.274508 
L 12.451559 10.577538 
L 12.471235 10.880569 
L 12.49091 11.183599 
L 12.557676 11.507347 
L 12.624442 11.831094 
L 12.691208 12.154842 
L 12.757974 12.478589 
" style="fill:none;stroke:#000000;stroke-linecap:square;stroke-width:0.4;"/>
   </g>
   <g id="line2d_83">
    <path clip-path="url(#p508cc2f48f)" d="M 12.214894 25.571846 
L 12.586583 25.714801 
L 12.958272 25.857757 
L 13.301241 25.986456 
L 13.644209 26.115156 
L 14.062336 26.332453 
L 14.480462 26.54975 
" style="fill:none;stroke:#008000;stroke-linecap:square;stroke-width:0.4;"/>
   </g>
   <g id="line2d_84">
    <path clip-path="url(#p508cc2f48f)" d="M 13.101129 27.201509 
L 13.147567 27.641033 
L 13.194005 28.080557 
L 13.240443 28.520081 
L 13.28688 28.959604 
L 13.333318 29.399128 
L 13.379756 29.838652 
L 13.426194 30.278176 
L 13.472632 30.7177 
L 13.536926 31.167982 
L 13.601221 31.618265 
L 13.665516 32.068547 
L 13.729811 32.518829 
L 13.794106 32.969111 
L 13.858401 33.419393 
L 13.922696 33.869676 
L 13.986991 34.319958 
L 14.044152 34.745193 
L 14.101314 35.170428 
L 14.158475 35.595663 
L 14.215636 36.020898 
L 14.272798 36.446133 
L 14.329959 36.871368 
L 14.387121 37.296603 
L 14.444282 37.721838 
L 14.469319 38.150637 
L 14.494356 38.579436 
L 14.519394 39.008235 
L 14.544431 39.437034 
L 14.569468 39.865833 
L 14.594505 40.294632 
L 14.619543 40.723431 
L 14.64458 41.15223 
L 14.626676 41.648976 
L 14.608772 42.145722 
L 14.590869 42.642468 
L 14.572965 43.139214 
L 14.555061 43.63596 
L 14.537157 44.132706 
L 14.519254 44.629452 
L 14.50135 45.126198 
" style="fill:none;stroke:#4169e1;stroke-dasharray:1.48,0.64;stroke-dashoffset:0;stroke-width:0.4;"/>
   </g>
  </g>
 </g>
 <defs>
  <clipPath id="p508cc2f48f">
   <rect height="99.686106" width="72" x="0" y="0"/>
  </clipPath>
 </defs>
</svg>
