<?xml version="1.0" encoding="utf-8" standalone="no"?>
<!DOCTYPE svg PUBLIC "-//W3C//DTD SVG 1.1//EN"
  "http://www.w3.org/Graphics/SVG/1.1/DTD/svg11.dtd">
<svg xmlns:xlink="http://www.w3.org/1999/xlink" width="72.105552pt" height="72pt" viewBox="0 0 72.105552 72" xmlns="http://www.w3.org/2000/svg" version="1.1">
 <metadata>
  <rdf:RDF xmlns:dc="http://purl.org/dc/elements/1.1/" xmlns:cc="http://creativecommons.org/ns#" xmlns:rdf="http://www.w3.org/1999/02/22-rdf-syntax-ns#">
   <cc:Work>
    <dc:type rdf:resource="http://purl.org/dc/dcmitype/StillImage"/>
    <dc:date>2022-05-17T23:04:10.554076</dc:date>
    <dc:format>image/svg+xml</dc:format>
    <dc:creator>
     <cc:Agent>
      <dc:title>Matplotlib v3.5.2, https://matplotlib.org/</dc:title>
     </cc:Agent>
    </dc:creator>
   </cc:Work>
  </rdf:RDF>
 </metadata>
 <defs>
  <style type="text/css">*{stroke-linejoin: round; stroke-linecap: butt}</style>
 </defs>
 <g id="figure_1">
  <g id="patch_1">
   <path d="M 0 72 
L 72.105552 72 
L 72.105552 0 
L 0 0 
z
" style="fill: #ffffff"/>
  </g>
  <g id="axes_1">
   <g id="line2d_1">
    <path d="M 27.528728 56.619774 
L 32.11222 55.650804 
L 36.695712 54.681834 
L 41.279203 53.712863 
L 45.862695 52.743893 
L 50.446187 51.774923 
L 55.029679 50.805953 
L 59.613171 49.836983 
L 64.196662 48.868013 
" clip-path="url(#p7165f3bd24)" style="fill: none; stroke: #808080; stroke-width: 0.4; stroke-linecap: square"/>
   </g>
   <g id="line2d_2">
    <path d="M 22.948576 44.650012 
L 24.923446 39.477851 
L 26.898317 34.305691 
L 28.873187 29.13353 
L 30.848058 23.96137 
L 32.822928 18.789209 
L 34.797799 13.617048 
L 36.772669 8.444888 
L 38.747539 3.272727 
" clip-path="url(#p7165f3bd24)" style="fill: none; stroke: #808080; stroke-width: 0.4; stroke-linecap: square"/>
   </g>
   <g id="line2d_3">
    <path d="M 29.175311 62.5543 
L 33.231512 62.721472 
L 37.287713 62.888644 
L 41.343914 63.055817 
L 45.400115 63.222989 
L 49.456316 63.390161 
L 53.512517 63.557334 
L 57.568718 63.724506 
L 61.624919 63.891678 
" clip-path="url(#p7165f3bd24)" style="fill: none; stroke: #808080; stroke-width: 0.4; stroke-linecap: square"/>
   </g>
   <g id="line2d_4">
    <path d="M 29.487038 48.157114 
L 30.970939 43.566261 
L 32.45484 38.975409 
L 33.938742 34.384556 
L 35.422643 29.793704 
L 36.906544 25.202851 
L 38.390446 20.611998 
L 39.874347 16.021146 
L 41.358248 11.430293 
" clip-path="url(#p7165f3bd24)" style="fill: none; stroke: #808080; stroke-width: 0.4; stroke-linecap: square"/>
   </g>
   <g id="line2d_5">
    <path d="M 10.068708 41.631653 
L 8.370912 36.743852 
L 6.673117 31.856051 
L 4.975321 26.96825 
L 3.277525 22.080449 
" clip-path="url(#p7165f3bd24)" style="fill: none; stroke: #808080; stroke-width: 0.4; stroke-linecap: square"/>
   </g>
   <g id="line2d_6">
    <path d="M 10.789019 39.607072 
L 9.228717 35.011406 
L 7.668414 30.41574 
" clip-path="url(#p7165f3bd24)" style="fill: none; stroke: #808080; stroke-width: 0.4; stroke-linecap: square"/>
   </g>
   <g id="line2d_7">
    <path d="M 16.586017 39.436752 
L 16.740489 35.569388 
L 16.89496 31.702023 
L 17.049432 27.834658 
L 17.203903 23.967294 
" clip-path="url(#p7165f3bd24)" style="fill: none; stroke: #808080; stroke-width: 0.4; stroke-linecap: square"/>
   </g>
   <g id="line2d_8">
    <path d="M 31.130281 50.824466 
L 35.8425 48.667702 
L 40.554718 46.510938 
L 45.266936 44.354174 
L 49.979154 42.19741 
L 54.691372 40.040646 
L 59.40359 37.883882 
L 64.115808 35.727118 
L 68.828026 33.570355 
" clip-path="url(#p7165f3bd24)" style="fill: none; stroke: #808080; stroke-width: 0.4; stroke-linecap: square"/>
   </g>
   <g id="line2d_9">
    <path d="M 59.355996 68.727273 
L 57.519524 68.570468 
L 55.683052 68.413663 
L 53.84658 68.256858 
L 52.010107 68.100052 
L 50.173635 67.943247 
L 48.337163 67.786442 
L 46.500691 67.629637 
L 44.664218 67.472832 
L 42.827746 67.316027 
L 40.991274 67.159222 
L 39.154802 67.002417 
L 37.318329 66.845612 
L 35.481857 66.688807 
L 33.645385 66.532002 
L 31.808913 66.375197 
L 29.97244 66.218392 
" clip-path="url(#p7165f3bd24)" style="fill: none; stroke: #4169e1; stroke-width: 0.4; stroke-linecap: square"/>
   </g>
   <g id="line2d_10">
    <path d="M 63.179098 56.902653 
L 62.096614 56.988507 
L 61.01413 57.074361 
L 59.931646 57.160215 
L 58.849162 57.246069 
L 57.766679 57.331923 
L 56.684195 57.417777 
L 55.601711 57.503631 
L 54.519227 57.589485 
L 53.436743 57.675339 
L 52.354259 57.761193 
L 51.271775 57.847047 
L 50.189291 57.932901 
L 49.106807 58.018755 
L 48.024323 58.104609 
L 46.941839 58.190463 
L 45.859355 58.276317 
L 44.776871 58.362171 
L 43.694387 58.448025 
L 42.611903 58.533879 
L 41.529419 58.619733 
L 40.446936 58.705587 
L 39.364452 58.791441 
L 38.281968 58.877295 
L 37.199484 58.963149 
L 36.117 59.049003 
L 35.034516 59.134857 
L 33.952032 59.220711 
L 32.869548 59.306565 
L 31.787064 59.392419 
L 30.70458 59.478273 
L 29.622096 59.564127 
L 28.539612 59.649981 
" clip-path="url(#p7165f3bd24)" style="fill: none; stroke: #4169e1; stroke-width: 0.4; stroke-linecap: square"/>
   </g>
   <g id="line2d_11">
    <path d="M 67.239335 40.180234 
L 66.052374 40.602007 
L 64.865413 41.023779 
L 63.678452 41.445551 
L 62.491491 41.867324 
L 61.30453 42.289096 
L 60.117569 42.710868 
L 58.930608 43.13264 
L 57.743647 43.554413 
L 56.556686 43.976185 
L 55.369725 44.397957 
L 54.182764 44.81973 
L 52.995803 45.241502 
L 51.808842 45.663274 
L 50.621881 46.085047 
L 49.43492 46.506819 
L 48.247959 46.928591 
L 47.060998 47.350364 
L 45.874037 47.772136 
L 44.687076 48.193908 
L 43.500115 48.615681 
L 42.313154 49.037453 
L 41.126193 49.459225 
L 39.939232 49.880997 
L 38.752271 50.30277 
L 37.56531 50.724542 
L 36.378349 51.146314 
L 35.191388 51.568087 
L 34.004427 51.989859 
L 32.817466 52.411631 
L 31.630505 52.833404 
L 30.443544 53.255176 
L 29.256583 53.676948 
" clip-path="url(#p7165f3bd24)" style="fill: none; stroke: #008000; stroke-width: 0.4; stroke-linecap: square"/>
   </g>
   <g id="line2d_12">
    <path d="M 41.266957 4.214668 
L 40.757549 5.616148 
L 40.24814 7.017628 
L 39.738732 8.419108 
L 39.229324 9.820589 
L 38.719915 11.222069 
L 38.210507 12.623549 
L 37.701099 14.025029 
L 37.191691 15.426509 
L 36.682282 16.827989 
L 36.172874 18.229469 
L 35.663466 19.630949 
L 35.154057 21.032429 
L 34.644649 22.433909 
L 34.135241 23.835389 
L 33.625832 25.236869 
L 33.116424 26.638349 
L 32.607016 28.039829 
L 32.097608 29.441309 
L 31.588199 30.842789 
L 31.078791 32.244269 
L 30.569383 33.645749 
L 30.059974 35.047229 
L 29.550566 36.448709 
L 29.041158 37.850189 
L 28.531749 39.251669 
L 28.022341 40.653149 
L 27.512933 42.054629 
L 27.003525 43.456109 
L 26.494116 44.857589 
L 25.984708 46.259069 
L 25.4753 47.660549 
L 24.965891 49.062029 
" clip-path="url(#p7165f3bd24)" style="fill: none; stroke: #008000; stroke-width: 0.4; stroke-linecap: square"/>
   </g>
   <g id="line2d_13">
    <path d="M 24.468242 24.990692 
L 24.12924 26.238468 
L 23.790237 27.486244 
L 23.451235 28.73402 
L 23.112232 29.981796 
L 22.77323 31.229571 
L 22.434227 32.477347 
L 22.095225 33.725123 
L 21.756222 34.972899 
L 21.367121 36.208086 
L 20.97802 37.443273 
L 20.588918 38.67846 
L 20.199817 39.913647 
L 19.810716 41.148834 
L 19.421614 42.384021 
L 19.032513 43.619208 
L 18.643411 44.854395 
" clip-path="url(#p7165f3bd24)" style="fill: none; stroke: #4169e1; stroke-width: 0.4; stroke-linecap: square"/>
   </g>
   <g id="line2d_14">
    <path d="M 12.139462 24.24721 
L 12.202782 25.3504 
L 12.266101 26.453589 
L 12.32942 27.556778 
L 12.39274 28.659968 
L 12.456059 29.763157 
L 12.519379 30.866346 
L 12.582698 31.969536 
L 12.646018 33.072725 
L 12.709337 34.175915 
L 12.772656 35.279104 
L 12.835976 36.382293 
L 12.899295 37.485483 
L 12.962615 38.588672 
L 13.025934 39.691861 
L 13.089254 40.795051 
L 13.152573 41.89824 
" clip-path="url(#p7165f3bd24)" style="fill: none; stroke: #008000; stroke-width: 0.4; stroke-linecap: square"/>
   </g>
  </g>
 </g>
 <defs>
  <clipPath id="p7165f3bd24">
   <rect x="0" y="0" width="72.105552" height="72"/>
  </clipPath>
 </defs>
</svg>
