<?xml version="1.0" encoding="utf-8" standalone="no"?>
<!DOCTYPE svg PUBLIC "-//W3C//DTD SVG 1.1//EN"
  "http://www.w3.org/Graphics/SVG/1.1/DTD/svg11.dtd">
<svg xmlns:xlink="http://www.w3.org/1999/xlink" width="72pt" height="87.460993pt" viewBox="0 0 72 87.460993" xmlns="http://www.w3.org/2000/svg" version="1.1">
 <metadata>
  <rdf:RDF xmlns:dc="http://purl.org/dc/elements/1.1/" xmlns:cc="http://creativecommons.org/ns#" xmlns:rdf="http://www.w3.org/1999/02/22-rdf-syntax-ns#">
   <cc:Work>
    <dc:type rdf:resource="http://purl.org/dc/dcmitype/StillImage"/>
    <dc:date>2022-05-17T17:16:50.640401</dc:date>
    <dc:format>image/svg+xml</dc:format>
    <dc:creator>
     <cc:Agent>
      <dc:title>Matplotlib v3.5.2, https://matplotlib.org/</dc:title>
     </cc:Agent>
    </dc:creator>
   </cc:Work>
  </rdf:RDF>
 </metadata>
 <defs>
  <style type="text/css">*{stroke-linejoin: round; stroke-linecap: butt}</style>
 </defs>
 <g id="figure_1">
  <g id="patch_1">
   <path d="M 0 87.460993 
L 72 87.460993 
L 72 0 
L 0 0 
z
" style="fill: #ffffff"/>
  </g>
  <g id="axes_1">
   <g id="line2d_1">
    <path d="M 67.814389 42.676006 
L 66.842711 42.424867 
L 65.871033 42.173727 
L 64.281283 41.762689 
L 63.043137 41.442672 
L 61.80499 41.122654 
L 60.566844 40.802637 
L 59.328697 40.482619 
L 58.033127 40.147667 
L 56.244869 39.68551 
L 54.960783 39.35353 
L 53.676697 39.02155 
L 52.392612 38.689569 
L 51.108526 38.357589 
L 49.407089 37.917723 
L 47.808488 37.504605 
L 46.541366 37.172774 
L 45.274245 36.840942 
L 43.702617 36.429608 
L 43.466599 36.367789 
L 43.23016 36.30597 
L 41.980634 35.978819 
L 40.731108 35.651669 
L 39.481582 35.324518 
L 38.232056 34.997367 
L 37.296835 34.747714 
L 36.136553 34.438321 
L 34.577991 34.037389 
" clip-path="url(#p260a7bcaac)" style="fill: none; stroke: #808080; stroke-width: 0.4; stroke-linecap: square"/>
   </g>
   <g id="line2d_2">
    <path d="M 57.717453 52.728437 
L 57.137523 52.282627 
L 55.956063 51.374288 
L 54.774603 50.465949 
L 53.593143 49.557611 
L 52.411683 48.649272 
L 51.539048 47.978327 
L 50.666414 47.307382 
L 49.594639 46.483525 
L 48.522864 45.659667 
L 47.743373 45.060349 
L 46.963881 44.461031 
L 46.22801 43.895149 
L 45.381928 43.244861 
L 44.535845 42.594572 
L 44.226072 42.356509 
L 42.95916 41.382413 
L 41.692249 40.408317 
L 40.937624 39.828318 
L 40.182998 39.248319 
L 38.761411 38.155489 
L 38.189067 37.715325 
L 37.655076 37.304882 
L 37.179669 36.939615 
L 36.791503 36.640922 
L 35.937202 35.984392 
L 35.225355 35.447933 
" clip-path="url(#p260a7bcaac)" style="fill: none; stroke: #808080; stroke-width: 0.4; stroke-linecap: square"/>
   </g>
   <g id="line2d_3">
    <path d="M 23.466178 77.502123 
L 23.10035 75.685 
L 22.866861 74.526784 
L 22.633371 73.368569 
L 22.375859 72.089985 
L 22.118346 70.8114 
L 21.864627 69.551243 
L 21.610907 68.291085 
L 21.353184 67.011312 
L 21.095461 65.731539 
L 20.829941 64.41402 
L 20.56442 63.096502 
L 20.358537 62.067423 
L 20.152653 61.038344 
L 19.890715 59.736429 
L 19.628777 58.434514 
L 19.416783 57.381509 
" clip-path="url(#p260a7bcaac)" style="fill: none; stroke: #808080; stroke-width: 0.4; stroke-linecap: square"/>
   </g>
   <g id="line2d_4">
    <path d="M 18.906815 82.509169 
L 18.121212 81.657671 
L 17.335609 80.806173 
L 16.546213 79.950811 
L 15.689805 79.022337 
L 14.801787 78.059683 
L 13.862772 77.042047 
L 13.568171 76.722549 
L 13.335103 76.470518 
L 12.557298 75.62749 
L 11.779492 74.784463 
L 10.967337 73.904136 
L 10.23821 73.113565 
L 9.029882 71.798127 
L 8.12627 70.819722 
L 7.320858 69.948014 
L 6.374257 68.923542 
L 5.502255 67.979612 
L 5.217347 67.671409 
L 4.968685 67.401842 
L 4.630252 67.035683 
L 4.255152 66.629401 
" clip-path="url(#p260a7bcaac)" style="fill: none; stroke: #808080; stroke-width: 0.4; stroke-linecap: square"/>
   </g>
   <g id="line2d_5">
    <path d="M 31.628187 67.298414 
L 31.325578 66.898968 
L 30.434189 65.72292 
L 29.588106 64.606462 
L 28.742024 63.490004 
L 27.807645 62.257784 
L 27.233616 61.500203 
L 26.603953 60.66951 
L 25.978506 59.844463 
L 24.947191 58.483256 
L 24.004805 57.240039 
L 23.482193 56.550519 
L 23.186749 56.16088 
L 22.686475 55.501081 
L 22.355629 55.064187 
L 22.13394 54.771735 
L 21.840182 54.384177 
" clip-path="url(#p260a7bcaac)" style="fill: none; stroke: #808080; stroke-width: 0.4; stroke-linecap: square"/>
   </g>
   <g id="line2d_6">
    <path d="M 46.166477 47.337103 
L 44.93539 46.980158 
L 44.190669 46.764088 
L 43.237746 46.487686 
L 42.392717 46.24249 
L 41.657268 46.029095 
L 40.378556 45.658181 
L 39.291187 45.342844 
L 38.321406 45.061389 
L 37.401357 44.794498 
L 36.278164 44.468759 
L 35.68854 44.297865 
L 34.777132 44.033499 
L 33.865723 43.769134 
L 32.470687 43.364338 
L 32.207274 43.287956 
L 31.852404 43.185122 
L 30.04223 42.659957 
L 28.751296 42.285476 
L 27.001391 41.777847 
L 26.030767 41.496392 
L 25.830573 41.438139 
L 25.629115 41.379887 
L 25.060564 41.214937 
" clip-path="url(#p260a7bcaac)" style="fill: none; stroke: #808080; stroke-width: 0.4; stroke-linecap: square"/>
   </g>
   <g id="line2d_7">
    <path d="M 37.383234 70.822991 
L 36.920892 69.904027 
L 36.458549 68.985063 
L 35.873983 67.823281 
L 35.289417 66.661499 
L 34.704851 65.499717 
L 34.120285 64.337935 
L 33.682071 63.467008 
L 33.243857 62.59608 
L 32.805643 61.725152 
L 32.36743 60.854224 
L 31.929216 59.983296 
L 31.491002 59.112368 
L 31.052788 58.241441 
L 30.614574 57.370513 
L 30.137691 56.422868 
L 29.660808 55.475224 
L 29.117967 54.396066 
L 28.575125 53.316907 
L 28.009525 52.193168 
" clip-path="url(#p260a7bcaac)" style="fill: none; stroke: #808080; stroke-width: 0.4; stroke-linecap: square"/>
   </g>
   <g id="line2d_8">
    <path d="M 38.580183 69.370838 
L 38.151136 68.529742 
L 37.335188 66.929877 
L 36.759894 65.801977 
L 36.1846 64.674077 
L 35.423863 63.182543 
L 34.663126 61.69101 
L 33.812619 60.023531 
L 32.962111 58.356051 
L 32.269229 56.997518 
L 31.576348 55.638985 
L 31.079235 54.664443 
L 30.582122 53.689902 
L 30.157289 52.789216 
L 29.732457 51.88853 
L 28.956126 50.428947 
L 28.506849 49.584582 
L 28.057572 48.740217 
" clip-path="url(#p260a7bcaac)" style="fill: none; stroke: #808080; stroke-width: 0.4; stroke-linecap: square"/>
   </g>
   <g id="line2d_9">
    <path d="M 52.797741 4.67245 
L 52.264172 5.471342 
L 51.352341 6.836711 
L 50.440511 8.20208 
L 49.87923 9.042581 
L 49.31795 9.883082 
L 48.75667 10.723584 
L 48.195389 11.564085 
L 47.334556 12.85322 
L 46.473722 14.142355 
L 45.624689 15.413807 
L 44.775656 16.685258 
L 44.090572 17.710919 
L 43.405487 18.73658 
L 42.484385 20.115918 
L 41.563282 21.495255 
L 40.793484 22.647973 
L 40.023686 23.80069 
L 39.106798 25.173637 
L 38.18991 26.546585 
L 37.157121 28.092953 
L 36.124331 29.63932 
L 35.153285 31.093554 
L 34.451342 32.125159 
L 33.749399 33.156765 
" clip-path="url(#p260a7bcaac)" style="fill: none; stroke: #808080; stroke-width: 0.4; stroke-linecap: square"/>
   </g>
   <g id="line2d_10">
    <path d="M 45.043705 69.592554 
L 44.709066 68.227929 
L 44.374426 66.863303 
L 44.005648 65.164765 
L 43.682598 63.787211 
L 43.359548 62.409657 
L 43.036288 61.030988 
L 42.713027 59.652319 
L 42.389767 58.27365 
L 42.066507 56.894982 
L 41.75747 55.576794 
L 41.448434 54.258607 
L 41.139398 52.94042 
L 40.830362 51.622233 
L 40.585283 50.577253 
L 40.340203 49.532274 
L 39.969739 47.952321 
" clip-path="url(#p260a7bcaac)" style="fill: none; stroke: #808080; stroke-width: 0.4; stroke-linecap: square"/>
   </g>
   <g id="line2d_11">
    <path d="M 42.796898 68.505074 
L 42.839149 67.396492 
L 42.881401 66.28791 
L 42.923652 65.179328 
L 42.965904 64.070746 
" clip-path="url(#p260a7bcaac)" style="fill: none; stroke: #808080; stroke-width: 0.4; stroke-linecap: square"/>
   </g>
   <g id="line2d_12">
    <path d="M 4.255152 66.629401 
L 4.379431 66.974644 
L 4.503709 67.319887 
L 4.627987 67.66513 
L 4.752265 68.010373 
L 4.876544 68.355616 
L 5.000822 68.700859 
L 5.1251 69.046102 
L 5.249378 69.391345 
L 5.392886 69.662398 
L 5.536393 69.933451 
L 5.679901 70.204504 
L 5.823408 70.475556 
L 5.966915 70.746609 
L 6.110423 71.017662 
L 6.25393 71.288715 
L 6.397438 71.559767 
L 6.683399 71.889073 
L 6.96936 72.218378 
L 7.160914 72.43898 
L 7.352468 72.659582 
L 7.544022 72.880184 
L 7.735576 73.100785 
L 7.927129 73.321387 
L 8.118683 73.541989 
L 8.310237 73.762591 
L 8.501791 73.983193 
L 8.812724 74.270183 
L 9.123657 74.557174 
L 9.434589 74.844164 
L 9.745522 75.131155 
L 10.056455 75.418145 
L 10.367387 75.705136 
L 10.67832 75.992126 
L 10.989253 76.279117 
L 11.244289 76.574057 
L 11.499326 76.868998 
L 11.754362 77.163939 
L 12.009399 77.45888 
L 12.264435 77.75382 
L 12.519471 78.048761 
L 12.774508 78.343702 
L 13.029544 78.638643 
L 13.260716 78.861845 
L 13.491887 79.085047 
L 13.723058 79.30825 
L 13.954229 79.531452 
L 14.185401 79.754655 
L 14.416572 79.977857 
L 14.647743 80.20106 
L 14.878914 80.424262 
L 15.261548 80.687327 
L 15.644182 80.950393 
L 16.026815 81.213458 
L 16.409449 81.476523 
L 16.792083 81.739589 
L 17.174717 82.002654 
L 17.55735 82.265719 
L 17.939984 82.528784 
" clip-path="url(#p260a7bcaac)" style="fill: none; stroke: #000000; stroke-width: 0.4; stroke-linecap: square"/>
   </g>
   <g id="line2d_13">
    <path d="M 3.336368 67.669625 
L 3.432039 68.163881 
L 3.527711 68.658136 
L 3.623383 69.152391 
L 3.719054 69.646646 
L 3.862562 69.917662 
L 4.006069 70.188677 
L 4.149576 70.459693 
L 4.293084 70.730708 
L 4.436591 71.001724 
L 4.580099 71.27274 
L 4.723606 71.543755 
L 4.867113 71.814771 
L 5.10624 72.245238 
L 5.345366 72.675705 
L 5.584492 73.106172 
L 5.823619 73.536639 
L 6.062745 73.967106 
L 6.301871 74.397574 
L 6.540998 74.828041 
L 6.780124 75.258508 
L 7.059131 75.609286 
L 7.338138 75.960065 
L 7.617145 76.310843 
L 7.896152 76.661622 
L 8.175159 77.0124 
L 8.454166 77.363179 
L 8.733173 77.713957 
L 9.01218 78.064736 
L 9.299142 78.303876 
L 9.586104 78.543016 
L 9.873067 78.782156 
L 10.160029 79.021297 
L 10.446991 79.260437 
L 10.733953 79.499577 
L 11.020915 79.738717 
L 11.307877 79.977857 
L 11.531093 80.193109 
L 11.754309 80.408361 
L 11.977526 80.623614 
L 12.200742 80.838866 
L 12.423958 81.054118 
L 12.647174 81.26937 
L 12.87039 81.484622 
L 13.093606 81.699874 
L 13.524023 81.954952 
L 13.95444 82.21003 
L 14.384857 82.465108 
L 14.815274 82.720186 
L 15.150124 82.911513 
L 15.484975 83.10284 
L 15.819826 83.294167 
L 16.154676 83.485494 
L 16.521347 83.485494 
L 16.888018 83.485494 
L 17.254689 83.485494 
L 17.62136 83.485494 
" clip-path="url(#p260a7bcaac)" style="fill: none; stroke: #4169e1; stroke-width: 0.4; stroke-linecap: square"/>
   </g>
   <g id="line2d_14">
    <path d="M 3.719054 65.820107 
L 3.607472 65.293976 
L 3.495891 64.767845 
L 3.384309 64.241715 
L 3.272727 63.715584 
L 3.272727 63.38078 
L 3.272727 63.045977 
L 3.272727 62.711173 
L 3.272727 62.37637 
L 3.416129 61.977741 
L 3.559531 61.579112 
L 3.702933 61.180483 
L 3.846335 60.781854 
L 3.958023 60.367325 
L 4.06971 59.952795 
L 4.181397 59.538266 
L 4.293084 59.123737 
L 4.516247 58.804908 
L 4.739411 58.486079 
L 4.962574 58.16725 
L 5.185738 57.848422 
L 5.568424 57.433892 
L 5.951111 57.019363 
L 6.333797 56.604833 
L 6.716483 56.190304 
L 7.16281 56.158354 
L 7.609137 56.126404 
L 8.119316 56.349607 
L 8.629494 56.572809 
L 8.980149 56.987413 
L 9.330805 57.402017 
" clip-path="url(#p260a7bcaac)" style="fill: none; stroke: #008000; stroke-width: 0.4; stroke-linecap: square"/>
   </g>
   <g id="line2d_15">
    <path d="M 25.114089 42.383258 
L 26.07502 44.448251 
L 26.38943 47.931517 
L 26.293758 48.601124 
L 25.975134 48.951828 
L 25.241792 49.079627 
L 23.90239 48.808426 
L 21.861677 48.760724 
L 19.103953 49.948363 
L 18.641716 50.163541 
L 15.907384 52.99362 
L 14.265478 53.822753 
L 13.404539 54.635912 
L 12.631264 55.648198 
L 11.331795 56.604833 
L 10.25549 57.178814 
L 9.330805 57.402017 
L 8.055359 58.796958 
L 7.577106 59.53834 
L 7.226451 60.941454 
L 7.513466 62.31247 
L 10.582438 66.202835 
L 12.551608 68.371034 
L 13.445315 70.08993 
L 13.635605 71.017662 
L 13.34859 73.026484 
L 13.476293 74.174594 
L 15.022738 75.872537 
L 15.732162 76.51822 
L 17.254583 77.857434 
L 18.8967 79.507527 
L 21.096725 81.444573 
L 21.096725 81.444573 
" clip-path="url(#p260a7bcaac)" style="fill: none; stroke: #008000; stroke-width: 0.4; stroke-linecap: square"/>
   </g>
   <g id="line2d_16">
    <path d="M 6.96936 72.218378 
L 7.368905 72.112275 
L 7.768449 72.006172 
L 8.154613 72.032401 
L 8.540776 72.058629 
L 8.92694 72.084858 
L 9.313103 72.111086 
L 9.628461 72.156633 
L 9.943819 72.20218 
L 10.259177 72.247727 
L 10.574535 72.293274 
L 10.917288 72.508452 
L 11.260041 72.72363 
L 11.602794 72.938808 
L 11.945547 73.153985 
L 12.328234 73.409138 
L 12.71092 73.66429 
L 13.093606 73.919442 
L 13.476293 74.174594 
" clip-path="url(#p260a7bcaac)" style="fill: none; stroke: #008000; stroke-width: 0.4; stroke-linecap: square"/>
   </g>
   <g id="line2d_17">
    <path d="M 13.507902 71.814771 
L 13.762992 71.950297 
L 14.018081 72.085824 
L 14.27317 72.22135 
L 14.528259 72.356876 
L 14.843143 72.596017 
L 15.158027 72.835157 
L 15.472911 73.074297 
L 15.787794 73.313437 
L 16.102678 73.552577 
L 16.417562 73.791717 
L 16.732446 74.030857 
L 17.04733 74.269998 
L 17.326337 74.445424 
L 17.605344 74.62085 
L 17.884351 74.796277 
L 18.163358 74.971703 
L 18.585767 75.218831 
L 19.008176 75.465958 
L 19.430585 75.713086 
L 19.852994 75.960214 
L 20.124099 76.239217 
L 20.395204 76.51822 
L 20.666308 76.797223 
L 20.937413 77.076226 
L 21.24824 77.498705 
L 21.559068 77.921185 
L 21.869895 78.343665 
L 22.180722 78.766144 
" clip-path="url(#p260a7bcaac)" style="fill: none; stroke: #008000; stroke-width: 0.4; stroke-linecap: square"/>
   </g>
   <g id="line2d_18">
    <path d="M 18.801028 58.135523 
L 18.689447 58.418502 
L 18.577865 58.70148 
L 18.466283 58.984458 
L 18.354701 59.267436 
L 18.24312 59.550414 
L 18.131538 59.833393 
L 18.019956 60.116371 
L 17.908374 60.399349 
L 17.756859 60.821829 
L 17.605344 61.244308 
L 17.453829 61.666788 
L 17.302314 62.089268 
L 17.194683 62.356345 
L 17.087053 62.623423 
L 16.979422 62.8905 
L 16.871792 63.157578 
L 16.764161 63.424656 
L 16.656531 63.691733 
L 16.5489 63.958811 
L 16.441269 64.225888 
L 16.2985 64.640641 
L 16.15573 65.055393 
L 16.01296 65.470145 
L 15.87019 65.884898 
L 15.77199 66.170811 
L 15.548721 66.57739 
L 15.325452 66.983969 
L 15.102183 67.390548 
L 14.878914 67.797127 
L 14.544169 68.115956 
L 14.209424 68.434785 
L 13.874679 68.753614 
L 13.539933 69.072442 
L 13.166098 69.410961 
" clip-path="url(#p260a7bcaac)" style="fill: none; stroke: #008000; stroke-width: 0.4; stroke-linecap: square"/>
   </g>
   <g id="line2d_19">
    <path d="M 15.87019 65.884898 
L 15.893476 66.251354 
L 15.916761 66.61781 
L 15.940047 66.984266 
L 15.963333 67.350722 
L 16.210414 67.805078 
L 16.457496 68.259433 
L 16.704577 68.713788 
L 16.951658 69.168143 
L 17.146953 69.487009 
L 17.342247 69.805875 
L 17.537542 70.124741 
L 17.732836 70.443607 
L 17.92813 70.762472 
L 18.123425 71.081338 
L 18.318719 71.400204 
L 18.514014 71.71907 
L 18.741181 71.99811 
L 18.968348 72.277151 
L 19.195516 72.556191 
L 19.422683 72.835231 
L 19.64985 73.114271 
L 19.877018 73.393311 
L 20.104185 73.672351 
L 20.331352 73.951392 
L 20.450942 74.23437 
L 20.570531 74.517348 
L 20.690121 74.800326 
L 20.80971 75.083304 
L 20.9293 75.366283 
L 21.048889 75.649261 
L 21.168479 75.932239 
L 21.288068 76.215217 
L 21.435527 76.48627 
L 21.582986 76.757323 
L 21.730444 77.028375 
L 21.877903 77.299428 
L 22.025361 77.570481 
L 22.17282 77.841534 
L 22.320279 78.112586 
L 22.467737 78.383639 
" clip-path="url(#p260a7bcaac)" style="fill: none; stroke: #008000; stroke-width: 0.4; stroke-linecap: square"/>
   </g>
   <g id="line2d_20">
    <path d="M 19.183715 58.230927 
L 19.183715 58.517955 
L 19.183715 58.804982 
L 19.183715 59.09201 
L 19.183715 59.379037 
L 19.187666 59.670003 
L 19.191617 59.960969 
L 19.195568 60.251934 
L 19.19952 60.5429 
L 19.203471 60.833865 
L 19.207422 61.124831 
L 19.211373 61.415797 
L 19.215324 61.706762 
L 19.251201 62.073441 
L 19.287078 62.44012 
L 19.322955 62.8068 
L 19.358832 63.173479 
L 19.394709 63.540158 
L 19.430585 63.906837 
L 19.466462 64.273516 
L 19.502339 64.640195 
L 19.554179 64.986961 
L 19.606018 65.333727 
L 19.657858 65.680494 
L 19.709698 66.02726 
L 19.761537 66.374026 
L 19.813377 66.720792 
L 19.865217 67.067558 
L 19.917057 67.414325 
L 20.000716 67.729215 
L 20.084376 68.044106 
L 20.168036 68.358997 
L 20.251696 68.673888 
L 20.335356 68.988779 
L 20.419016 69.303669 
L 20.502676 69.61856 
L 20.586336 69.933451 
L 20.682008 70.280217 
L 20.777679 70.626983 
L 20.873351 70.973749 
L 20.969023 71.320516 
L 21.064694 71.667282 
L 21.160366 72.014048 
L 21.256037 72.360814 
L 21.351709 72.707581 
L 21.391537 73.106209 
L 21.431365 73.504838 
L 21.471193 73.903467 
L 21.511021 74.302096 
L 21.701521 74.716402 
L 21.892022 75.130709 
L 22.115607 75.617088 
L 22.339192 76.103467 
L 22.562777 76.589846 
L 22.786362 77.076226 
" clip-path="url(#p260a7bcaac)" style="fill: none; stroke: #4169e1; stroke-width: 0.4; stroke-linecap: square"/>
   </g>
   <g id="line2d_21">
    <path d="M 20.235681 57.689119 
L 20.363225 57.976072 
L 20.49077 58.263025 
L 20.618315 58.549979 
L 20.745859 58.836932 
L 20.873404 59.123885 
L 21.000948 59.410839 
L 21.128493 59.697792 
L 21.256037 59.984745 
L 21.315832 60.287673 
L 21.375627 60.590602 
L 21.435422 60.89353 
L 21.495216 61.196458 
L 21.555011 61.499386 
L 21.614806 61.802314 
L 21.674601 62.105242 
L 21.734395 62.408171 
L 21.782231 62.810738 
L 21.830067 63.213304 
L 21.877903 63.615871 
L 21.925739 64.018438 
L 21.973574 64.421005 
L 22.02141 64.823572 
L 22.069246 65.226138 
L 22.117082 65.628705 
L 22.164918 65.939621 
L 22.212753 66.250537 
L 22.260589 66.561452 
L 22.308425 66.872368 
L 22.356261 67.183283 
L 22.404097 67.494199 
L 22.451932 67.805115 
L 22.499768 68.11603 
L 22.527637 68.430921 
L 22.555506 68.745812 
L 22.583375 69.060703 
L 22.611245 69.375593 
L 22.639114 69.690484 
L 22.666983 70.005375 
L 22.694852 70.320266 
L 22.722721 70.635156 
L 22.794475 71.017736 
L 22.866228 71.400316 
L 22.937982 71.782895 
L 23.009736 72.165475 
L 23.073482 72.723555 
L 23.137228 73.281636 
L 23.200974 73.839716 
L 23.26472 74.397797 
L 23.376301 74.915903 
L 23.487883 75.434009 
L 23.599465 75.952115 
L 23.711046 76.470221 
" clip-path="url(#p260a7bcaac)" style="fill: none; stroke: #4169e1; stroke-width: 0.4; stroke-linecap: square"/>
   </g>
   <g id="line2d_22">
    <path d="M 31.650103 69.136342 
L 31.434948 69.327669 
L 31.219792 69.518996 
L 31.004636 69.710323 
L 30.78948 69.90165 
L 30.406899 69.925575 
L 30.024318 69.9495 
L 29.641737 69.973425 
L 29.259156 69.99735 
L 28.916403 70.092977 
L 28.57365 70.188603 
L 28.230897 70.284229 
L 27.888144 70.379856 
L 27.46563 70.483507 
L 27.043115 70.587158 
L 26.620601 70.690808 
L 26.198087 70.794459 
L 25.903169 70.993737 
L 25.608252 71.193014 
L 25.313335 71.392291 
L 25.018418 71.591568 
L 24.715598 71.910472 
L 24.412779 72.229375 
L 24.364943 72.580153 
L 24.317107 72.930932 
L 24.269271 73.28171 
L 24.221435 73.632489 
L 24.18951 74.102819 
L 24.157584 74.573149 
L 24.125659 75.043479 
L 24.093733 75.513809 
" clip-path="url(#p260a7bcaac)" style="fill: none; stroke: #008000; stroke-width: 0.4; stroke-linecap: square"/>
   </g>
   <g id="line2d_23">
    <path d="M 21.319678 56.094603 
L 21.566865 56.564933 
L 21.814052 57.035263 
L 22.061238 57.505593 
L 22.308425 57.975923 
L 22.467843 58.262914 
L 22.62726 58.549904 
L 22.786678 58.836895 
L 22.946095 59.123885 
L 23.105513 59.410876 
L 23.26493 59.697866 
L 23.424348 59.984857 
L 23.583765 60.271847 
L 23.771052 60.57875 
L 23.958339 60.885654 
L 24.145625 61.192557 
L 24.332912 61.49946 
L 24.520199 61.806364 
L 24.707485 62.113267 
L 24.894772 62.42017 
L 25.082058 62.727074 
L 25.35311 62.946301 
L 25.624162 63.165528 
L 25.895214 63.384756 
L 26.166266 63.603983 
L 26.437318 63.82321 
L 26.70837 64.042437 
L 26.979422 64.261665 
L 27.250474 64.480892 
L 27.481593 64.731995 
L 27.712711 64.983097 
L 27.94383 65.2342 
L 28.174948 65.485303 
L 28.406067 65.736406 
L 28.637185 65.987508 
L 28.868304 66.238611 
L 29.099423 66.489714 
L 29.370422 66.62524 
L 29.641421 66.760767 
L 29.91242 66.896293 
L 30.18342 67.031819 
L 30.454419 67.167346 
L 30.725418 67.302872 
L 30.996418 67.438398 
L 31.267417 67.573925 
" clip-path="url(#p260a7bcaac)" style="fill: none; stroke: #4169e1; stroke-width: 0.4; stroke-linecap: square"/>
   </g>
   <g id="line2d_24">
    <path d="M 22.65908 54.308984 
L 22.86233 54.556111 
L 23.065579 54.803239 
L 23.268829 55.050367 
L 23.472078 55.297494 
L 23.675328 55.544622 
L 23.878577 55.791749 
L 24.081827 56.038877 
L 24.285076 56.286005 
L 24.687466 56.639681 
L 25.089855 56.993357 
L 25.492245 57.347033 
L 25.894635 57.70071 
L 26.142032 57.918117 
L 26.38943 58.135523 
L 26.628556 58.478277 
L 26.867682 58.821031 
L 27.106809 59.163785 
L 27.345935 59.506539 
L 27.585061 59.849293 
L 27.824188 60.192047 
L 28.063314 60.534801 
L 28.30244 60.877555 
L 28.533611 61.248246 
L 28.764783 61.618938 
L 28.995954 61.989629 
L 29.227125 62.36032 
L 29.458296 62.731012 
L 29.689468 63.101703 
L 29.920639 63.472394 
L 30.15181 63.843086 
L 30.402895 64.229715 
L 30.653981 64.616344 
L 30.905066 65.002973 
L 31.156151 65.389602 
L 31.407236 65.776231 
L 31.658322 66.16286 
L 31.909407 66.54949 
L 32.160492 66.936119 
" clip-path="url(#p260a7bcaac)" style="fill: none; stroke: #4169e1; stroke-width: 0.4; stroke-linecap: square"/>
   </g>
   <g id="line2d_25">
    <path d="M 27.760442 52.826218 
L 27.840098 53.344399 
L 27.919754 53.862579 
L 27.99941 54.380759 
L 28.079066 54.89894 
L 28.25845 55.209818 
L 28.437835 55.520697 
L 28.617219 55.831575 
L 28.796603 56.142454 
L 28.975987 56.453332 
L 29.155372 56.764211 
L 29.334756 57.075089 
L 29.51414 57.385968 
L 29.657595 57.724783 
L 29.801049 58.063599 
L 29.944504 58.402415 
L 30.087959 58.741231 
L 30.231414 59.080047 
L 30.374868 59.418863 
L 30.518323 59.757679 
L 30.661778 60.096495 
L 30.841109 60.511024 
L 31.020441 60.925554 
L 31.199772 61.340083 
L 31.379104 61.754613 
L 31.558436 62.169142 
L 31.737767 62.583671 
L 31.917099 62.998201 
L 32.09643 63.41273 
L 32.212016 63.679771 
L 32.327601 63.946811 
L 32.443187 64.213852 
L 32.558773 64.480892 
L 32.674358 64.747932 
L 32.789944 65.014973 
L 32.90553 65.282013 
L 33.021115 65.549054 
L 33.196496 65.851982 
L 33.371876 66.15491 
L 33.547256 66.457838 
L 33.722637 66.760767 
L 33.898017 67.063695 
L 34.073397 67.366623 
L 34.248778 67.669551 
L 34.424158 67.972479 
" clip-path="url(#p260a7bcaac)" style="fill: none; stroke: #4169e1; stroke-width: 0.4; stroke-linecap: square"/>
   </g>
   <g id="line2d_26">
    <path d="M 27.569098 49.25498 
L 27.752434 49.701384 
L 27.935769 50.147789 
L 28.119105 50.594194 
L 28.30244 51.040599 
L 28.577443 51.526867 
L 28.852447 52.013134 
L 29.12745 52.499402 
L 29.402453 52.98567 
L 29.677456 53.471938 
L 29.952459 53.958205 
L 30.227462 54.444473 
L 30.502466 54.930741 
L 30.662568 55.299389 
L 30.82267 55.668037 
L 30.982773 56.036685 
L 31.142875 56.405333 
L 31.302978 56.773981 
L 31.46308 57.142629 
L 31.623182 57.511277 
L 31.783285 57.879925 
L 31.987693 58.350404 
L 32.192102 58.820883 
L 32.387396 59.2713 
L 32.582691 59.721717 
L 32.777985 60.172134 
L 32.973279 60.622551 
L 33.168574 61.072968 
L 33.363868 61.523386 
L 33.559163 61.973803 
L 33.754457 62.42422 
L 33.901916 62.675323 
L 34.049374 62.926425 
L 34.196833 63.177528 
L 34.344291 63.428631 
L 34.49175 63.679733 
L 34.639208 63.930836 
L 34.786667 64.181939 
L 34.934126 64.433042 
L 35.229043 64.712045 
L 35.52396 64.991048 
L 35.818877 65.270051 
L 36.113794 65.549054 
" clip-path="url(#p260a7bcaac)" style="fill: none; stroke: #4169e1; stroke-width: 0.4; stroke-linecap: square"/>
   </g>
   <g id="line2d_27">
    <path d="M 28.398112 50.17959 
L 28.699562 50.637438 
L 29.001012 51.095285 
L 29.302461 51.553132 
L 29.603911 52.01098 
L 29.874068 52.421125 
L 30.144224 52.831271 
L 30.360381 53.077767 
L 30.576537 53.324263 
L 30.792694 53.570759 
L 31.008851 53.817255 
L 31.225007 54.063751 
L 31.441164 54.310247 
L 31.657321 54.556743 
L 31.873477 54.803239 
L 32.064768 55.142018 
L 32.256058 55.480797 
L 32.447349 55.819575 
L 32.63864 56.158354 
L 32.82993 56.497133 
L 33.021221 56.835912 
L 33.212511 57.174691 
L 33.403802 57.513469 
L 33.565195 57.832354 
L 33.726588 58.151238 
L 33.887981 58.470123 
L 34.049374 58.789007 
L 34.210767 59.107892 
L 34.37216 59.426776 
L 34.533554 59.745661 
L 34.694947 60.064545 
L 34.85634 60.38343 
L 35.017733 60.702314 
L 35.179126 61.021199 
L 35.340519 61.340083 
L 35.501912 61.658968 
L 35.663306 61.977852 
L 35.824699 62.296737 
L 35.986092 62.615621 
L 36.169691 63.062843 
L 36.35329 63.510065 
L 36.536888 63.957288 
L 36.720487 64.40451 
L 36.904086 64.851732 
L 37.087685 65.298954 
L 37.271284 65.746176 
L 37.454883 66.193398 
L 37.661609 66.662094 
L 37.868336 67.130789 
L 38.075062 67.599485 
L 38.281789 68.06818 
" clip-path="url(#p260a7bcaac)" style="fill: none; stroke: #4169e1; stroke-width: 0.4; stroke-linecap: square"/>
   </g>
   <g id="line2d_28">
    <path d="M 29.603911 52.01098 
L 29.970161 52.187372 
L 30.33641 52.363764 
L 30.59308 52.487328 
L 30.849749 52.610892 
L 31.106419 52.734456 
L 31.363088 52.85802 
L 31.554432 53.073272 
L 31.745775 53.288524 
L 31.937118 53.503776 
L 32.128461 53.719028 
L 32.319804 53.93428 
L 32.511148 54.149532 
L 32.702491 54.364785 
L 32.893834 54.580037 
L 33.128956 54.93479 
L 33.364079 55.289544 
L 33.599201 55.644298 
L 33.834324 55.999051 
L 34.069446 56.353805 
L 34.304569 56.708559 
L 34.539691 57.063312 
L 34.774814 57.418066 
L 34.926223 57.677119 
L 35.077633 57.936172 
L 35.229043 58.195225 
L 35.380453 58.454278 
L 35.531862 58.713331 
L 35.683272 58.972384 
L 35.834682 59.231437 
L 35.986092 59.49049 
L 36.13355 59.757568 
L 36.281009 60.024645 
L 36.428468 60.291723 
L 36.575926 60.5588 
L 36.723385 60.825878 
L 36.870843 61.092956 
L 37.018302 61.360033 
L 37.165761 61.627111 
L 37.26944 62.129316 
L 37.373119 62.631522 
L 37.476799 63.133727 
L 37.580478 63.635933 
L 37.653865 63.91984 
L 37.727252 64.203747 
L 37.800639 64.487653 
L 37.874025 64.77156 
L 37.947412 65.055467 
L 38.020799 65.339374 
L 38.094186 65.623281 
L 38.167573 65.907188 
L 38.196127 66.447436 
L 38.224681 66.987684 
L 38.253235 67.527932 
L 38.281789 68.06818 
" clip-path="url(#p260a7bcaac)" style="fill: none; stroke: #4169e1; stroke-width: 0.4; stroke-linecap: square"/>
   </g>
   <g id="line2d_29">
    <path d="M 28.87647 48.489672 
L 29.103216 48.707822 
L 29.329962 48.925971 
L 29.638998 49.223476 
L 29.948034 49.52098 
L 30.25707 49.818484 
L 30.566106 50.115988 
L 30.981666 50.502357 
L 31.22132 50.7253 
L 31.460973 50.948242 
L 31.700626 51.171184 
L 31.940279 51.394127 
L 32.179932 51.617069 
L 32.419585 51.840011 
L 32.659238 52.062954 
L 32.898892 52.285896 
L 33.30813 52.666915 
L 33.678752 53.061495 
L 34.049374 53.456074 
L 34.419996 53.850654 
L 34.790618 54.245233 
L 35.16124 54.639812 
L 35.531862 55.034392 
L 35.902485 55.428971 
L 36.273107 55.823551 
L 36.599949 56.262005 
L 36.926792 56.70046 
L 37.253635 57.138914 
L 37.580478 57.577369 
L 37.824714 57.979044 
L 38.068951 58.380719 
L 38.305496 58.769763 
L 38.542041 59.158807 
L 38.778586 59.547851 
L 39.01513 59.936895 
L 39.200995 60.441552 
L 39.386859 60.94621 
L 39.535635 61.350411 
L 39.68441 61.754613 
L 39.764172 62.312619 
L 39.843933 62.870625 
L 39.923695 63.428631 
L 40.003456 63.986637 
L 40.164559 64.368548 
L 40.325663 64.750459 
L 40.486766 65.13237 
L 40.64787 65.514281 
L 40.864079 66.02726 
L 40.91987 66.393976 
L 40.975661 66.760692 
L 41.031452 67.127408 
L 41.087242 67.494125 
L 41.143033 67.860841 
L 41.198824 68.227557 
L 41.254615 68.594273 
L 41.310406 68.96099 
" clip-path="url(#p260a7bcaac)" style="fill: none; stroke: #4169e1; stroke-width: 0.4; stroke-linecap: square"/>
   </g>
   <g id="line2d_30">
    <path d="M 32.898892 52.285896 
L 33.310027 52.395417 
L 33.721162 52.504938 
L 34.024824 52.585927 
L 34.328487 52.666915 
L 34.806634 52.874069 
L 35.284781 53.081222 
L 35.747124 53.32835 
L 36.209466 53.575477 
L 36.671808 53.822605 
L 37.134151 54.069732 
L 37.492814 54.460337 
L 37.851477 54.850941 
L 38.21014 55.241545 
L 38.568803 55.632149 
L 38.839803 55.990878 
L 39.110802 56.349607 
L 39.381801 56.708336 
L 39.652801 57.067064 
L 39.883972 57.449718 
L 40.115143 57.832372 
L 40.346314 58.215026 
L 40.577486 58.59768 
L 40.625216 59.028185 
L 40.672946 59.458689 
L 40.720677 59.889193 
L 40.768407 60.319697 
L 40.788374 60.622626 
L 40.808341 60.925554 
L 40.828307 61.228482 
L 40.848274 61.53141 
L 40.868241 61.834338 
L 40.888208 62.137267 
L 40.908174 62.440195 
L 40.928141 62.743123 
L 40.920555 63.123548 
L 40.913495 63.486512 
L 40.906436 63.849476 
L 40.899376 64.21244 
L 40.892317 64.575404 
L 40.885257 64.938368 
L 40.878198 65.301332 
L 40.871138 65.664296 
L 40.864079 66.02726 
" clip-path="url(#p260a7bcaac)" style="fill: none; stroke: #4169e1; stroke-width: 0.4; stroke-linecap: square"/>
   </g>
   <g id="line2d_31">
    <path d="M 21.160366 53.559725 
L 20.873351 53.368324 
L 20.586336 53.176923 
L 20.299532 53.304573 
L 20.012728 53.432223 
L 19.661862 53.719177 
L 19.310996 54.00613 
L 18.768997 54.037931 
L 18.226999 54.069732 
L 17.955999 53.782779 
L 17.685 53.495826 
L 17.444346 53.210581 
L 17.203692 52.925337 
L 16.963038 52.640093 
L 16.722384 52.354848 
" clip-path="url(#p260a7bcaac)" style="fill: none; stroke: #008000; stroke-width: 0.4; stroke-linecap: square"/>
   </g>
   <g id="line2d_32">
    <path d="M 22.467737 53.272623 
L 22.30832 53.00157 
L 22.148902 52.730518 
L 21.989485 52.459465 
L 21.830067 52.188412 
L 21.447381 51.789858 
L 21.064694 51.391303 
L 20.650188 51.184001 
L 20.235681 50.976699 
L 19.77376 50.842139 
L 19.311839 50.707579 
L 18.849918 50.573018 
L 18.387997 50.438458 
" clip-path="url(#p260a7bcaac)" style="fill: none; stroke-dasharray: 1.48,0.64; stroke-dashoffset: 0; stroke: #4169e1; stroke-width: 0.4"/>
   </g>
   <g id="line2d_33">
    <path d="M 21.830067 52.188412 
L 22.02141 51.949309 
L 22.212753 51.710206 
L 22.356261 51.231852 
L 22.499768 50.753497 
L 22.643065 50.450643 
L 22.786362 50.147789 
L 22.690795 49.801023 
L 22.595229 49.454257 
L 22.499663 49.107491 
L 22.404097 48.760724 
" clip-path="url(#p260a7bcaac)" style="fill: none; stroke: #008000; stroke-width: 0.4; stroke-linecap: square"/>
   </g>
   <g id="line2d_34">
    <path d="M 26.835757 48.999679 
L 26.620601 49.334557 
L 26.405445 49.669435 
L 26.19029 50.004313 
L 25.975134 50.339191 
L 25.90338 50.689895 
L 25.831626 51.040599 
L 25.759873 51.391303 
L 25.688119 51.742007 
L 25.576537 52.132612 
L 25.464956 52.523216 
L 25.353374 52.91382 
L 25.241792 53.304424 
L 25.284149 53.589892 
L 25.326506 53.875359 
L 25.397522 54.353528 
L 25.468538 54.831697 
L 25.539554 55.309865 
L 25.61057 55.788034 
L 25.681586 56.266203 
L 25.752603 56.744372 
L 25.823619 57.222541 
L 25.894635 57.70071 
" clip-path="url(#p260a7bcaac)" style="fill: none; stroke: #008000; stroke-width: 0.4; stroke-linecap: square"/>
   </g>
   <g id="line2d_35">
    <path d="M 40.290471 47.979367 
L 40.162874 48.393897 
L 40.035276 48.808426 
L 39.907679 49.222956 
L 39.780082 49.637485 
L 39.68441 50.195491 
L 39.588739 50.753497 
L 39.740254 51.08035 
L 39.891769 51.407204 
L 40.043284 51.734057 
L 40.194799 52.06091 
L 40.561365 52.47544 
L 40.92793 52.889969 
L 41.294496 53.304499 
L 41.661061 53.719028 
L 41.848401 53.942231 
L 42.03574 54.165433 
L 42.223079 54.388635 
L 42.410419 54.611838 
L 42.597758 54.83504 
L 42.785097 55.058243 
L 42.972436 55.281445 
L 43.159776 55.504647 
L 43.271358 55.8156 
L 43.382939 56.126553 
L 43.494521 56.437506 
L 43.606103 56.748459 
L 43.550259 57.123088 
L 43.494416 57.497717 
L 43.438572 57.872347 
L 43.382729 58.246976 
L 43.171524 58.701368 
L 42.960319 59.155761 
L 42.749115 59.610153 
L 42.53791 60.064545 
L 42.326706 60.518938 
L 42.115501 60.97333 
L 41.904297 61.427722 
L 41.693092 61.882114 
L 41.804779 62.312619 
L 41.916466 62.743123 
L 41.852668 63.054001 
L 41.788869 63.36488 
L 41.725071 63.675758 
L 41.661272 63.986637 
L 41.597473 64.297515 
L 41.533675 64.608394 
L 41.469876 64.919272 
L 41.406077 65.230151 
L 41.449909 65.67258 
L 41.493741 66.11501 
L 41.537573 66.55744 
L 41.581405 66.99987 
L 41.625237 67.442299 
L 41.669069 67.884729 
L 41.712901 68.327159 
L 41.756733 68.769588 
" clip-path="url(#p260a7bcaac)" style="fill: none; stroke: #008000; stroke-width: 0.4; stroke-linecap: square"/>
   </g>
   <g id="line2d_36">
    <path d="M 42.745058 63.31703 
L 42.633477 63.771385 
L 42.521895 64.22574 
L 42.410313 64.680095 
L 42.298731 65.13445 
L 42.298731 65.59683 
L 42.298731 66.05921 
L 42.298731 66.521589 
L 42.298731 66.983969 
L 42.298731 67.446349 
L 42.298731 67.908728 
L 42.298731 68.371108 
L 42.298731 68.833488 
" clip-path="url(#p260a7bcaac)" style="fill: none; stroke: #008000; stroke-width: 0.4; stroke-linecap: square"/>
   </g>
   <g id="line2d_37">
    <path d="M 40.928141 48.266469 
L 41.302714 48.688949 
L 41.677287 49.111429 
L 42.051861 49.533908 
L 42.426434 49.956388 
L 42.613721 50.211503 
L 42.801007 50.466618 
L 42.988294 50.721733 
L 43.175581 50.976848 
L 43.362867 51.231963 
L 43.550154 51.487078 
L 43.73744 51.742193 
L 43.924727 51.997308 
L 44.060227 52.288274 
L 44.195726 52.579239 
L 44.331226 52.870205 
L 44.466726 53.161171 
L 44.602225 53.452136 
L 44.737725 53.743102 
L 44.873225 54.034067 
L 45.008724 54.325033 
L 45.048605 54.715637 
L 45.088486 55.106242 
L 45.128366 55.496846 
L 45.168247 55.88745 
L 45.208128 56.278054 
L 45.248009 56.668659 
L 45.287889 57.059263 
L 45.32777 57.449867 
L 45.291893 57.736857 
L 45.256016 58.023848 
L 45.22014 58.310838 
L 45.184263 58.597829 
L 45.148386 58.884819 
L 45.112509 59.17181 
L 45.076632 59.4588 
L 45.040755 59.745791 
L 44.909259 60.247996 
L 44.777764 60.750202 
L 44.646268 61.252407 
L 44.514772 61.754613 
L 44.383276 62.256818 
L 44.251781 62.759023 
L 44.120285 63.261229 
L 43.988789 63.763434 
L 43.980781 64.162026 
L 43.972774 64.560618 
L 43.964766 64.959209 
L 43.956758 65.357801 
L 43.94875 65.756393 
L 43.940743 66.154984 
L 43.932735 66.553576 
L 43.924727 66.952168 
L 43.968559 67.267059 
L 44.012391 67.581949 
L 44.056223 67.89684 
L 44.100055 68.211731 
L 44.143887 68.526622 
L 44.187719 68.841512 
L 44.231551 69.156403 
L 44.275382 69.471294 
" clip-path="url(#p260a7bcaac)" style="fill: none; stroke: #008000; stroke-width: 0.4; stroke-linecap: square"/>
   </g>
   <g id="line2d_38">
    <path d="M 33.721162 52.504938 
L 33.992477 52.354105 
L 34.263792 52.203273 
L 34.535108 52.05244 
L 34.806423 51.901608 
L 35.141274 51.646455 
L 35.476124 51.391303 
L 35.938467 51.136151 
L 36.400809 50.880999 
L 36.847136 50.610095 
L 37.293463 50.339191 
L 37.70797 50.29134 
L 38.122477 50.24349 
L 38.489042 50.370992 
L 38.855608 50.498494 
L 39.222173 50.625995 
L 39.588739 50.753497 
" clip-path="url(#p260a7bcaac)" style="fill: none; stroke: #4169e1; stroke-width: 0.4; stroke-linecap: square"/>
   </g>
   <g id="line2d_39">
    <path d="M 29.329962 48.925971 
L 29.623088 48.856722 
L 29.916214 48.787473 
L 30.20934 48.718224 
L 30.502466 48.648975 
L 30.869136 48.656999 
L 31.235807 48.665024 
L 31.602478 48.673048 
L 31.969149 48.681073 
L 32.287984 48.645185 
L 32.606819 48.609297 
L 32.925654 48.57341 
L 33.244489 48.537522 
L 33.563324 48.501634 
L 33.88216 48.465747 
L 34.200995 48.429859 
L 34.51983 48.393971 
L 34.894403 48.433797 
L 35.268976 48.473623 
L 35.64355 48.513448 
L 36.018123 48.553274 
L 36.352868 48.776476 
L 36.687613 48.999679 
L 37.022358 49.222881 
L 37.357104 49.446084 
L 37.73979 49.844787 
L 38.122477 50.24349 
" clip-path="url(#p260a7bcaac)" style="fill: none; stroke: #000000; stroke-width: 0.4; stroke-linecap: square"/>
   </g>
   <g id="line2d_40">
    <path d="M 28.780798 48.106869 
L 29.019977 47.772065 
L 29.259156 47.437262 
L 29.306781 47.022807 
L 29.354406 46.608352 
L 29.195094 46.082147 
L 29.035782 45.555942 
L 28.852447 45.213188 
L 28.669111 44.870434 
L 28.485776 44.52768 
L 28.30244 44.184926 
L 28.135015 43.858073 
L 27.96759 43.531219 
L 27.800164 43.204366 
L 27.632739 42.877513 
L 27.592911 42.494859 
L 27.553083 42.112205 
L 27.513255 41.729551 
L 27.473427 41.346897 
" clip-path="url(#p260a7bcaac)" style="fill: none; stroke: #008000; stroke-width: 0.4; stroke-linecap: square"/>
   </g>
   <g id="line2d_41">
    <path d="M 25.241792 40.326585 
L 25.767775 40.342486 
L 26.293758 40.358387 
L 26.57914 40.397655 
L 26.864521 40.436923 
L 27.149903 40.476192 
L 27.435285 40.51546 
L 27.720666 40.554729 
L 28.006048 40.593997 
L 28.29143 40.633266 
L 28.576811 40.672534 
L 28.844439 40.709091 
L 29.270904 40.820729 
L 29.69737 40.932367 
L 30.123836 41.044006 
L 30.550301 41.155644 
L 30.976767 41.267283 
L 31.403233 41.378921 
L 31.829698 41.490559 
L 32.256164 41.602198 
L 32.642696 41.725724 
L 33.029228 41.849251 
L 33.415761 41.972778 
L 33.802293 42.096304 
L 34.188825 42.219831 
L 34.575357 42.343358 
L 34.961889 42.466884 
L 35.348422 42.590411 
L 35.667257 42.78575 
L 35.986092 42.981089 
L 36.304927 43.176429 
L 36.623762 43.371768 
L 36.942597 43.567107 
L 37.261432 43.762446 
L 37.580267 43.957786 
L 37.899102 44.153125 
L 38.377355 44.352402 
L 38.855608 44.551679 
L 39.33386 44.750957 
L 39.812113 44.950234 
L 40.099075 45.06581 
L 40.386037 45.181387 
L 40.672999 45.296963 
L 40.959961 45.412539 
L 41.246923 45.528116 
L 41.533885 45.643692 
L 41.820848 45.759269 
L 42.10781 45.874845 
L 42.574051 45.998409 
L 43.040292 46.121972 
L 43.506533 46.245536 
L 43.972774 46.3691 
L 44.439015 46.492664 
L 44.905256 46.616228 
L 45.371497 46.739791 
L 45.837738 46.863355 
" clip-path="url(#p260a7bcaac)" style="fill: none; stroke: #008000; stroke-width: 0.4; stroke-linecap: square"/>
   </g>
   <g id="line2d_42">
    <path d="M 33.435833 34.309036 
L 33.148818 34.338683 
L 32.861803 34.368329 
L 32.574788 34.397975 
L 32.287773 34.427622 
L 31.809626 34.618874 
L 31.331479 34.810127 
L 31.06048 35.033329 
L 30.78948 35.256532 
L 30.518481 35.479734 
L 30.247482 35.702937 
L 30.024266 35.926139 
L 29.801049 36.149342 
L 29.577833 36.372544 
L 29.354617 36.595746 
L 29.131401 36.818949 
L 28.908185 37.042151 
L 28.684969 37.265354 
L 28.461752 37.488556 
L 28.286425 37.727733 
L 28.111097 37.966911 
L 27.935769 38.206088 
L 27.760442 38.445265 
L 27.816285 38.780069 
L 27.872129 39.114873 
L 27.927972 39.449676 
L 27.983816 39.78448 
L 28.280314 40.228507 
L 28.576811 40.672534 
" clip-path="url(#p260a7bcaac)" style="fill: none; stroke: #008000; stroke-width: 0.4; stroke-linecap: square"/>
   </g>
   <g id="line2d_43">
    <path d="M 34.966157 33.675688 
L 35.268976 33.632445 
L 35.571796 33.589201 
L 35.874615 33.545957 
L 36.177435 33.502714 
L 36.560121 33.152009 
L 36.942808 32.801305 
L 37.293463 32.386702 
L 37.644119 31.972098 
L 37.962954 31.860497 
L 38.281789 31.748895 
L 38.600624 31.637294 
L 38.919459 31.525693 
L 39.445547 31.461942 
L 39.971636 31.398191 
L 40.497724 31.33444 
L 41.023813 31.270689 
L 41.350603 31.246764 
L 41.677393 31.222839 
L 42.004183 31.198914 
L 42.330973 31.174989 
L 42.657763 31.151064 
L 42.984553 31.127138 
L 43.311344 31.103213 
L 43.638134 31.079288 
L 43.925043 31.047413 
L 44.211953 31.015537 
L 44.498862 30.983662 
L 44.785771 30.951786 
L 45.200067 30.696783 
L 45.614363 30.441779 
L 46.092721 30.154677 
L 46.571079 29.867575 
L 46.826063 29.644373 
L 47.081047 29.421171 
L 47.336031 29.197968 
L 47.591014 28.974766 
L 47.941775 28.815388 
L 48.292536 28.656011 
L 48.643297 28.496634 
L 48.994057 28.337257 
L 49.398238 28.33956 
L 49.802419 28.341863 
L 50.2066 28.344167 
L 50.610781 28.34647 
L 50.876091 28.67897 
L 51.1414 29.011471 
L 51.40671 29.343971 
L 51.672019 29.676471 
L 52.022675 30.027176 
L 52.37333 30.37788 
L 52.723985 30.728584 
L 53.074641 31.079288 
L 53.361655 31.557643 
L 53.64867 32.035997 
L 54.038311 32.440199 
L 54.427951 32.8444 
L 54.739622 33.301207 
L 55.051292 33.758014 
L 55.258545 34.172544 
L 55.465798 34.587073 
L 55.673052 35.001603 
L 55.880305 35.416132 
L 55.983879 35.774861 
L 56.087453 36.13359 
L 56.191027 36.492318 
L 56.294601 36.851047 
L 56.398175 37.209776 
L 56.501749 37.568505 
L 56.605323 37.927234 
L 56.708897 38.285962 
L 56.812524 38.636704 
L 56.91615 38.987445 
L 57.019777 39.338187 
L 57.123404 39.688928 
L 57.22703 40.039669 
L 57.330657 40.390411 
L 57.434284 40.741152 
L 57.53791 41.091893 
L 57.609611 41.378884 
L 57.681312 41.665874 
L 57.753013 41.952865 
L 57.824714 42.239855 
L 57.896415 42.526846 
L 57.968116 42.813836 
L 58.039818 43.100827 
L 58.111519 43.387817 
L 58.135436 43.730571 
L 58.159354 44.073325 
L 58.183272 44.416079 
L 58.20719 44.758833 
L 58.231108 45.101587 
L 58.255026 45.444341 
L 58.278944 45.787095 
L 58.302862 46.129848 
L 58.294907 46.608166 
L 58.286952 47.086483 
L 58.278997 47.564801 
L 58.271041 48.043118 
L 58.263086 48.521436 
L 58.255131 48.999753 
L 58.247176 49.478071 
L 58.239221 49.956388 
L 58.239221 50.434668 
L 58.239221 50.912949 
L 58.239221 51.391229 
L 58.239221 51.869509 
" clip-path="url(#p260a7bcaac)" style="fill: none; stroke: #008000; stroke-width: 0.4; stroke-linecap: square"/>
   </g>
   <g id="line2d_44">
    <path d="M 36.177435 33.502714 
L 36.703523 33.566539 
L 37.229612 33.630364 
L 37.7557 33.694189 
L 38.281789 33.758014 
L 38.696295 33.78989 
L 39.110802 33.821765 
L 39.525309 33.853641 
L 39.939815 33.885516 
L 40.370127 33.885516 
L 40.800438 33.885516 
L 41.23075 33.885516 
L 41.661061 33.885516 
L 42.027732 33.773915 
L 42.394403 33.662314 
L 42.761074 33.550713 
L 43.127745 33.439111 
L 43.366924 33.168059 
L 43.606103 32.897006 
L 43.845282 32.625953 
L 44.084461 32.3549 
L 44.259788 32.004122 
L 44.435116 31.653343 
L 44.610444 31.302565 
L 44.785771 30.951786 
" clip-path="url(#p260a7bcaac)" style="fill: none; stroke: #008000; stroke-width: 0.4; stroke-linecap: square"/>
   </g>
   <g id="line2d_45">
    <path d="M 34.72466 34.418408 
L 35.132212 34.518567 
L 35.539765 34.618726 
L 35.922451 34.666576 
L 36.305138 34.714426 
L 36.655793 34.714426 
L 37.006448 34.714426 
L 37.357104 34.714426 
L 37.707759 34.714426 
L 37.994774 34.714426 
L 38.281789 34.714426 
L 38.592616 34.802102 
L 38.903443 34.889779 
L 39.214271 34.977455 
L 39.525098 35.065131 
L 39.991392 35.144856 
L 40.457685 35.224582 
L 40.923979 35.304308 
L 41.390273 35.384034 
L 41.856566 35.463759 
L 42.32286 35.543485 
L 42.789154 35.623211 
L 43.255447 35.702937 
L 43.797446 35.718837 
L 44.339445 35.734738 
L 44.714018 35.862314 
L 45.088591 35.98989 
L 45.463164 36.117466 
L 45.837738 36.245042 
L 46.204356 36.412444 
L 46.570974 36.579846 
L 46.937592 36.747248 
L 47.30421 36.91465 
L 47.670829 37.082051 
L 48.037447 37.249453 
L 48.404065 37.416855 
L 48.770683 37.584257 
L 49.085514 37.64407 
L 49.400346 37.703883 
L 49.715177 37.763696 
L 50.030008 37.823508 
L 50.344839 37.883321 
L 50.65967 37.943134 
L 50.974502 38.002947 
L 51.289333 38.06276 
L 51.580246 38.150436 
L 51.871159 38.238112 
L 52.162073 38.325788 
L 52.452986 38.413464 
L 52.743899 38.50114 
L 53.034813 38.588816 
L 53.325726 38.676492 
L 53.616639 38.764168 
L 54.102794 38.887732 
L 54.588949 39.011296 
L 55.075104 39.13486 
L 55.561259 39.258424 
L 56.047414 39.381987 
L 56.533569 39.505551 
L 57.019724 39.629115 
L 57.505879 39.752679 
L 57.960214 39.880181 
L 58.414549 40.007682 
L 58.868884 40.135184 
L 59.323218 40.262686 
L 59.66987 40.370312 
L 60.016521 40.477938 
L 60.363173 40.585564 
L 60.709824 40.69319 
L 61.056476 40.800816 
L 61.403127 40.908442 
L 61.749779 41.016068 
L 62.09643 41.123694 
L 62.550765 41.219395 
L 63.0051 41.315096 
L 63.459434 41.410796 
L 63.913769 41.506497 
L 64.360043 41.626049 
L 64.806318 41.7456 
L 65.252592 41.865152 
L 65.698866 41.984703 
L 66.145141 42.104255 
L 66.591415 42.223806 
L 67.037689 42.343358 
L 67.483963 42.462909 
" clip-path="url(#p260a7bcaac)" style="fill: none; stroke: #008000; stroke-width: 0.4; stroke-linecap: square"/>
   </g>
   <g id="line2d_46">
    <path d="M 37.707759 34.714426 
L 38.010684 34.977529 
L 38.313609 35.240631 
L 38.616534 35.503734 
L 38.919459 35.766836 
L 39.262212 35.926288 
L 39.604965 36.085739 
L 39.947718 36.245191 
L 40.290471 36.404642 
L 40.673052 36.476344 
L 41.055633 36.548045 
L 41.438214 36.619746 
L 41.820795 36.691447 
L 42.147532 36.755198 
L 42.47427 36.818949 
L 42.801007 36.8827 
L 43.127745 36.946451 
L 43.661736 37.090002 
L 44.195726 37.233553 
L 44.729717 37.377104 
L 45.263708 37.520655 
L 45.558625 37.536555 
L 45.853542 37.552456 
L 46.14846 37.568356 
L 46.443377 37.584257 
L 46.738294 37.727733 
L 47.033211 37.87121 
L 47.328128 38.014687 
L 47.623045 38.158163 
L 47.92597 38.34949 
L 48.228895 38.540817 
L 48.53182 38.732144 
L 48.834745 38.923471 
L 49.130821 39.010256 
L 49.426898 39.09704 
L 49.741097 39.189174 
L 50.055296 39.281309 
L 50.369495 39.373443 
L 50.683694 39.465577 
L 51.066275 39.664854 
L 51.448856 39.864131 
L 51.831437 40.063409 
L 52.214018 40.262686 
L 52.401304 40.497851 
L 52.588591 40.733016 
L 52.775878 40.968181 
L 52.963164 41.203346 
L 53.150451 41.438511 
L 53.337738 41.673676 
L 53.525024 41.908841 
L 53.712311 42.144006 
L 53.847811 42.57451 
L 53.98331 43.005014 
L 54.11881 43.435519 
L 54.254309 43.866023 
L 54.326063 44.256627 
L 54.397817 44.647232 
L 54.469571 45.037836 
L 54.541324 45.42844 
L 54.652906 45.723418 
L 54.764488 46.018396 
L 54.876069 46.313374 
L 54.987651 46.608352 
L 55.162979 46.935205 
L 55.338307 47.262058 
L 55.513634 47.588912 
L 55.688962 47.915765 
L 55.8802 48.32227 
L 56.071438 48.728775 
L 56.262675 49.135279 
L 56.453913 49.541784 
L 56.692987 49.773011 
L 56.932061 50.004238 
L 57.171134 50.235465 
L 57.410208 50.466692 
L 57.617461 50.817397 
L 57.824714 51.168101 
L 58.031968 51.518805 
L 58.239221 51.869509 
" clip-path="url(#p260a7bcaac)" style="fill: none; stroke: #008000; stroke-width: 0.4; stroke-linecap: square"/>
   </g>
   <g id="line2d_47">
    <path d="M 46.63472 46.735853 
L 47.176719 46.831554 
L 47.455726 47.182333 
L 47.734733 47.533111 
L 48.01374 47.88389 
L 48.292747 48.234668 
L 48.372403 48.521621 
L 48.452059 48.808575 
L 48.531715 49.095528 
L 48.611371 49.382481 
L 48.88237 49.796936 
L 49.15337 50.211392 
L 49.376533 50.450569 
L 49.599697 50.689746 
L 49.82286 50.928923 
L 50.046024 51.168101 
L 50.420597 51.431203 
L 50.79517 51.694306 
L 51.169743 51.957408 
L 51.544317 52.220511 
L 51.88707 52.300162 
L 52.229823 52.379814 
L 52.572576 52.459465 
L 52.915329 52.539116 
L 53.234164 52.666693 
L 53.552999 52.794269 
L 53.871834 52.921845 
L 54.190669 53.049421 
L 54.660808 53.033446 
L 55.130948 53.017471 
L 55.601087 53.001496 
L 56.071227 52.985521 
L 56.382054 52.993546 
L 56.692882 53.00157 
L 57.003709 53.009595 
L 57.314536 53.01762 
" clip-path="url(#p260a7bcaac)" style="fill: none; stroke: #008000; stroke-width: 0.4; stroke-linecap: square"/>
   </g>
   <g id="line2d_48">
    <path d="M 49.426898 39.09704 
L 49.433641 39.48861 
L 49.440384 39.880181 
L 49.480212 40.24686 
L 49.52004 40.613539 
L 49.559869 40.980218 
L 49.599697 41.346897 
L 49.663442 41.729551 
L 49.727188 42.112205 
L 49.790934 42.494859 
L 49.85468 42.877513 
L 49.950352 43.204366 
L 50.046024 43.531219 
L 50.141695 43.858073 
L 50.237367 44.184926 
L 50.428605 44.52768 
L 50.619842 44.870434 
L 50.81108 45.213188 
L 51.002318 45.555942 
L 51.081974 46.113948 
L 51.16163 46.671954 
L 51.249347 46.970907 
L 51.337063 47.26986 
L 51.42478 47.568813 
L 51.512496 47.867766 
L 51.600213 48.166719 
L 51.687929 48.465672 
L 51.775646 48.764625 
L 51.863362 49.063578 
L 52.006764 49.605684 
L 52.150166 50.147789 
L 52.293569 50.689895 
L 52.436971 51.232 
L 52.55656 51.558779 
L 52.67615 51.885558 
L 52.795739 52.212337 
L 52.915329 52.539116 
" clip-path="url(#p260a7bcaac)" style="fill: none; stroke: #000000; stroke-width: 0.4; stroke-linecap: square"/>
   </g>
   <g id="line2d_49">
    <path d="M 34.633203 35.807554 
L 34.923589 36.100302 
L 35.213976 36.393051 
L 35.504362 36.6858 
L 35.794749 36.978549 
L 36.209255 37.297378 
L 36.623762 37.616207 
L 37.038269 37.935035 
L 37.452775 38.253864 
L 37.596283 38.604643 
L 37.73979 38.955421 
L 37.883298 39.3062 
L 38.026805 39.656978 
L 38.080225 39.97759 
L 38.133645 40.298202 
L 38.187065 40.618814 
L 38.240486 40.939426 
L 38.281789 41.187594 
L 38.409281 41.474547 
L 38.536772 41.761501 
L 38.664264 42.048454 
L 38.791756 42.335407 
L 39.206263 42.65431 
L 39.62077 42.973213 
L 39.955515 43.06884 
L 40.29026 43.164466 
L 40.625005 43.260092 
L 40.95975 43.355719 
L 41.078392 43.654189 
L 41.197033 43.952659 
L 41.315674 44.251129 
L 41.434315 44.549599 
L 41.673916 44.972822 
L 41.913516 45.396044 
L 42.153117 45.819267 
L 42.392717 46.24249 
" clip-path="url(#p260a7bcaac)" style="fill: none; stroke: #ff0000; stroke-width: 0.4; stroke-linecap: square"/>
   </g>
   <g id="line2d_50">
    <path d="M 34.041472 35.926139 
L 34.168964 36.316743 
L 34.296456 36.707348 
L 34.423947 37.097952 
L 34.551439 37.488556 
L 34.814536 37.887185 
L 35.077633 38.285814 
L 35.34073 38.684443 
L 35.603827 39.083071 
L 35.818983 39.330199 
L 36.034138 39.577327 
L 36.249294 39.824454 
L 36.46445 40.071582 
L 36.908459 40.288543 
L 37.352468 40.505504 
L 37.796477 40.722465 
L 38.240486 40.939426 
" clip-path="url(#p260a7bcaac)" style="fill: none; stroke-dasharray: 1.48,0.64; stroke-dashoffset: 0; stroke: #ff0000; stroke-width: 0.4"/>
   </g>
   <g id="line2d_51">
    <path d="M 45.837738 36.245042 
L 46.156573 35.910239 
L 46.475408 35.575435 
L 46.698571 35.368133 
L 46.921735 35.160831 
L 47.352046 34.905828 
L 47.782358 34.650824 
L 48.164939 34.555124 
L 48.54752 34.459423 
L 48.930101 34.363722 
L 49.312682 34.268022 
L 49.830762 34.180346 
L 50.348843 34.092669 
L 50.866924 34.004993 
L 51.385004 33.917317 
L 51.783496 33.805716 
L 52.181987 33.694115 
L 52.580478 33.582514 
L 52.978969 33.470913 
L 53.341215 33.314284 
L 53.70346 33.157656 
L 54.065706 33.001028 
L 54.427951 32.8444 
" clip-path="url(#p260a7bcaac)" style="fill: none; stroke: #008000; stroke-width: 0.4; stroke-linecap: square"/>
   </g>
   <g id="line2d_52">
    <path d="M 54.427951 32.8444 
L 54.787457 32.711252 
L 55.146963 32.578103 
L 55.497619 32.578103 
L 55.848274 32.578103 
L 56.198929 32.578103 
L 56.549585 32.578103 
L 56.836494 32.705642 
L 57.123404 32.833181 
L 57.410313 32.96072 
L 57.697223 33.088259 
L 57.984132 33.215797 
L 58.271041 33.343336 
L 58.557951 33.470875 
L 58.84486 33.598414 
L 59.177077 33.799178 
L 59.509293 33.999941 
L 59.84151 34.200704 
L 60.173726 34.401468 
L 60.375184 34.523322 
L 60.59034 34.7226 
L 60.805496 34.921877 
L 61.020652 35.121154 
L 61.235807 35.320431 
L 61.450963 35.519709 
L 61.666119 35.718986 
L 61.881274 35.918263 
L 62.09643 36.11754 
L 62.375437 36.460294 
L 62.654444 36.803048 
L 62.933451 37.145802 
L 63.212458 37.488556 
L 63.547204 37.751659 
L 63.881949 38.014761 
L 64.216694 38.277864 
L 64.551439 38.540966 
L 64.822333 38.843894 
L 65.093227 39.146822 
L 65.364121 39.449751 
L 65.635015 39.752679 
L 65.841952 40.008574 
L 66.051207 40.267553 
L 66.260463 40.526531 
L 66.469718 40.78551 
L 66.678973 41.044489 
L 66.888229 41.303468 
L 67.097484 41.562446 
L 67.306739 41.821425 
L 67.515994 42.080404 
" clip-path="url(#p260a7bcaac)" style="fill: none; stroke: #008000; stroke-width: 0.4; stroke-linecap: square"/>
   </g>
   <g id="line2d_53">
    <path d="M 34.406035 33.202237 
L 34.63373 32.926652 
L 34.861424 32.651067 
L 35.089118 32.375482 
L 35.316812 32.099897 
L 35.627639 31.91652 
L 35.938467 31.733143 
L 36.249294 31.549767 
L 36.560121 31.36639 
L 36.855039 31.206939 
L 37.149956 31.047487 
L 37.444873 30.888035 
L 37.73979 30.728584 
L 38.154297 30.640908 
L 38.568803 30.553232 
L 38.98331 30.465556 
L 39.397817 30.37788 
L 39.684726 30.298154 
L 39.971636 30.218428 
L 40.258545 30.138702 
L 40.545455 30.058977 
L 41.010747 29.845582 
L 41.277005 29.723579 
L 41.543263 29.601575 
L 41.809521 29.479572 
L 42.075779 29.357568 
L 42.314852 29.174192 
L 42.553926 28.990815 
L 42.793 28.807438 
L 43.032073 28.624061 
L 43.398744 28.45666 
L 43.765415 28.289258 
L 44.132086 28.121856 
L 44.498757 27.954454 
L 44.849412 27.795003 
L 45.200067 27.635551 
L 45.550723 27.4761 
L 45.901378 27.316648 
L 46.092721 27.077545 
L 46.284065 26.838442 
L 46.475408 26.599339 
L 46.666751 26.360236 
L 47.001391 25.929732 
L 47.336031 25.499228 
L 47.654866 25.419427 
L 47.973701 25.339627 
L 48.292536 25.339627 
L 48.611371 25.339627 
L 49.121339 25.148523 
L 49.567666 25.244224 
L 49.822649 25.490014 
L 50.077633 25.735804 
L 50.22114 26.207472 
L 50.364648 26.679139 
L 50.426181 27.095972 
L 50.487714 27.512805 
L 50.549248 27.929637 
L 50.610781 28.34647 
" clip-path="url(#p260a7bcaac)" style="fill: none; stroke: #008000; stroke-width: 0.4; stroke-linecap: square"/>
   </g>
   <g id="line2d_54">
    <path d="M 41.010747 29.845582 
L 41.125595 29.548152 
L 41.240443 29.250722 
L 41.355291 28.953292 
L 41.47014 28.655863 
L 41.788975 28.241408 
L 42.10781 27.826952 
L 42.362793 27.627675 
L 42.617777 27.428398 
L 42.872761 27.229121 
L 43.127745 27.029843 
L 43.391579 26.841266 
L 43.655414 26.652688 
L 44.06107 26.362911 
L 44.466726 26.073134 
L 44.801471 25.818056 
L 45.136216 25.562978 
L 45.470961 25.307901 
L 45.805707 25.052823 
L 46.060796 24.813645 
L 46.315885 24.574468 
L 46.570974 24.335291 
L 46.826063 24.096113 
L 47.001391 23.705509 
L 47.176719 23.314905 
L 47.352046 22.924301 
L 47.527374 22.533697 
L 47.671513 22.215239 
L 47.815653 21.896782 
L 47.975176 21.544443 
L 48.134699 21.192104 
L 48.292747 20.843778 
L 48.400219 20.561431 
L 48.540671 20.193563 
L 48.681123 19.825695 
L 48.821575 19.457827 
L 48.962026 19.089959 
L 49.129452 18.834882 
L 49.296877 18.579804 
L 49.464302 18.324726 
L 49.631728 18.069648 
L 49.982383 17.894296 
L 50.333038 17.718944 
L 50.827201 17.766646 
L 51.321364 17.814347 
L 51.847347 18.005749 
L 52.37333 18.19715 
L 52.833565 18.305036 
L 53.352594 18.426445 
L 53.871623 18.547854 
L 54.262212 18.667406 
L 54.652801 18.786957 
L 55.043389 18.906509 
L 55.433978 19.02606 
L 55.673052 19.257287 
L 55.912125 19.488514 
L 56.151199 19.719741 
L 56.390273 19.950968 
L 56.725018 20.229971 
L 57.059763 20.508974 
L 57.394508 20.787977 
L 57.729254 21.06698 
L 58.040081 21.417759 
L 58.350908 21.768537 
L 58.661736 22.119316 
L 58.972563 22.470094 
L 59.195726 22.701247 
L 59.41889 22.9324 
L 59.642053 23.163552 
L 59.865217 23.394705 
L 60.024529 23.769334 
L 60.183841 24.143964 
L 60.343153 24.518593 
L 60.502466 24.893223 
L 60.722468 25.340965 
L 60.942471 25.788707 
L 61.184811 26.281625 
L 61.427151 26.774543 
L 61.56265 27.081483 
L 61.69815 27.388424 
L 61.833649 27.695364 
L 61.969149 28.002305 
L 62.104649 28.309245 
L 62.240148 28.616185 
L 62.375648 28.923126 
L 62.511148 29.230066 
L 62.774139 29.612646 
L 63.037131 29.995226 
L 63.300122 30.377805 
L 63.563114 30.760385 
L 63.834113 30.983662 
L 64.105112 31.206939 
L 64.376112 31.430215 
L 64.647111 31.653492 
L 65.053504 31.90857 
L 65.459898 32.163648 
L 65.866292 32.418726 
L 66.272685 32.673803 
L 66.671176 32.944856 
L 67.069667 33.215909 
L 67.324651 33.582588 
L 67.579635 33.949267 
L 67.834619 34.315946 
L 68.089603 34.682625 
L 68.201184 35.049304 
L 68.312766 35.415983 
L 68.424348 35.782663 
L 68.53593 36.149342 
L 68.583765 36.603771 
L 68.631601 37.0582 
L 68.679437 37.51263 
L 68.727273 37.967059 
L 68.727273 38.493116 
L 68.727273 39.019172 
L 68.663527 39.441652 
L 68.599781 39.864131 
L 68.536035 40.286611 
L 68.472289 40.709091 
L 68.344797 41.235296 
L 68.217305 41.761501 
" clip-path="url(#p260a7bcaac)" style="fill: none; stroke: #008000; stroke-width: 0.4; stroke-linecap: square"/>
   </g>
   <g id="line2d_55">
    <path d="M 47.815653 21.896782 
L 48.165676 21.960087 
L 48.515699 22.023392 
L 49.009862 22.151043 
L 49.504025 22.278693 
L 49.819067 22.389551 
L 50.134109 22.500409 
L 50.447676 22.590017 
L 50.761242 22.679625 
L 51.138028 22.92549 
L 51.514814 23.171354 
L 51.8916 23.417218 
L 52.268386 23.663083 
L 52.575842 23.720147 
L 52.883298 23.77721 
L 53.393476 23.72936 
L 53.903654 23.68151 
L 54.413622 23.68151 
L 54.923589 23.68151 
L 55.274245 23.825061 
L 55.6249 23.968612 
L 55.832259 24.223764 
L 56.039617 24.478916 
L 56.421882 24.849533 
L 56.772748 25.206181 
L 57.123614 25.56283 
L 57.251106 26.025284 
L 57.378598 26.487738 
L 57.521895 26.854343 
L 57.665192 27.220947 
L 58.016058 27.635551 
L 58.366924 28.050155 
L 58.542251 28.305233 
L 58.717579 28.560311 
L 58.892907 28.815388 
L 59.068235 29.070466 
L 59.227547 29.365444 
L 59.386859 29.660422 
L 59.546171 29.9554 
L 59.705483 30.250378 
L 60.024318 30.680882 
L 60.343153 31.111386 
L 60.570321 31.334589 
L 60.797488 31.557791 
L 61.024655 31.780994 
L 61.251823 32.004196 
L 61.47899 32.227399 
L 61.706158 32.450601 
L 61.933325 32.673803 
L 62.160492 32.897006 
L 62.495237 33.176009 
L 62.829983 33.455012 
L 63.164728 33.734015 
L 63.499473 34.013018 
L 63.746449 34.483348 
L 63.993425 34.953678 
L 64.240401 35.424008 
L 64.487377 35.894338 
L 64.790197 36.356643 
L 65.093016 36.818949 
L 65.228516 37.281329 
L 65.364016 37.743708 
L 65.499515 38.206088 
L 65.635015 38.668468 
L 65.686749 39.003494 
L 65.738484 39.338521 
L 65.790218 39.673547 
L 65.841952 40.008574 
" clip-path="url(#p260a7bcaac)" style="fill: none; stroke: #008000; stroke-width: 0.4; stroke-linecap: square"/>
   </g>
   <g id="line2d_56">
    <path d="M 52.268386 23.663083 
L 52.273022 24.102801 
L 52.277658 24.542518 
L 52.484806 24.988923 
L 52.691954 25.435328 
L 52.87529 25.69843 
L 53.058625 25.961533 
L 53.241961 26.224635 
L 53.425296 26.487738 
L 53.823787 26.726841 
L 54.222278 26.965944 
L 54.525098 27.236997 
L 54.827918 27.508049 
L 55.146753 27.763127 
L 55.465588 28.018205 
L 55.784423 28.273283 
L 56.103258 28.528361 
L 56.334429 28.815388 
L 56.5656 29.102416 
L 56.796772 29.389444 
L 57.027943 29.676471 
L 57.306845 30.027176 
L 57.585746 30.37788 
L 57.864648 30.728584 
L 58.14355 31.079288 
L 58.350803 31.461942 
L 58.558056 31.844596 
L 58.76531 32.22725 
L 58.972563 32.609904 
L 59.272854 33.057795 
L 59.573145 33.505686 
L 59.873435 33.953577 
L 60.173726 34.401468 
" clip-path="url(#p260a7bcaac)" style="fill: none; stroke: #008000; stroke-width: 0.4; stroke-linecap: square"/>
   </g>
   <g id="line2d_57">
    <path d="M 54.827918 27.508049 
L 55.067097 27.029695 
L 55.306276 26.55134 
L 55.481603 26.025284 
L 55.656931 25.499228 
L 55.911915 25.084624 
L 56.421882 24.849533 
" clip-path="url(#p260a7bcaac)" style="fill: none; stroke: #008000; stroke-width: 0.4; stroke-linecap: square"/>
   </g>
   <g id="line2d_58">
    <path d="M 57.123614 25.56283 
L 57.665192 25.403527 
L 58.17537 25.403527 
L 58.685548 25.403527 
L 58.972458 25.435402 
L 59.259367 25.467278 
L 59.546276 25.499153 
L 59.833186 25.531029 
L 60.110507 25.595448 
L 60.387828 25.659868 
L 60.665149 25.724287 
L 60.942471 25.788707 
" clip-path="url(#p260a7bcaac)" style="fill: none; stroke: #4169e1; stroke-width: 0.4; stroke-linecap: square"/>
   </g>
   <g id="line2d_59">
    <path d="M 52.268386 23.663083 
L 52.575842 23.449094 
L 52.883298 23.235105 
L 53.281789 22.964201 
L 53.68028 22.693297 
L 54.206263 22.533845 
L 54.732246 22.374394 
L 55.051081 22.398319 
L 55.369916 22.422244 
L 55.688751 22.446169 
L 56.007586 22.470094 
L 56.334324 22.493945 
L 56.661061 22.517796 
L 56.987799 22.541647 
L 57.314536 22.565498 
L 57.713027 22.685123 
L 58.111519 22.804749 
L 58.51001 22.924375 
L 58.908501 23.044001 
L 59.386859 23.219353 
L 59.865217 23.394705 
" clip-path="url(#p260a7bcaac)" style="fill: none; stroke: #008000; stroke-width: 0.4; stroke-linecap: square"/>
   </g>
   <g id="line2d_60">
    <path d="M 50.761242 22.679625 
L 50.810975 22.119093 
L 50.9784 21.871965 
L 51.145825 21.624838 
L 51.313251 21.37771 
L 51.480676 21.130582 
L 51.672019 20.732028 
L 51.863362 20.333473 
L 52.022675 19.791368 
L 52.181987 19.249262 
L 52.344881 19.013206 
L 52.507776 18.777149 
L 52.670671 18.541093 
L 52.833565 18.305036 
" clip-path="url(#p260a7bcaac)" style="fill: none; stroke: #008000; stroke-width: 0.4; stroke-linecap: square"/>
   </g>
   <g id="line2d_61">
    <path d="M 50.134109 22.500409 
L 49.946559 22.851857 
L 49.759009 23.203304 
L 49.679353 23.697559 
L 49.599697 24.191814 
L 49.605808 24.582493 
L 49.611919 24.973171 
L 49.844776 25.354488 
L 50.077633 25.735804 
" clip-path="url(#p260a7bcaac)" style="fill: none; stroke: #008000; stroke-width: 0.4; stroke-linecap: square"/>
   </g>
   <g id="line2d_62">
    <path d="M 43.655414 26.652688 
L 43.921988 26.260672 
L 44.188562 25.868656 
L 44.455135 25.47664 
L 44.721709 25.084624 
L 44.976904 24.70197 
L 45.232098 24.319316 
L 45.279934 24.000413 
L 45.32777 23.68151 
L 45.32777 23.354731 
L 45.32777 23.027952 
L 45.32777 22.701173 
L 45.32777 22.374394 
L 45.216188 22.079416 
L 45.104607 21.784438 
L 44.993025 21.48946 
L 44.881443 21.194482 
L 44.642264 20.907529 
L 44.403085 20.620575 
L 44.163906 20.333622 
L 43.924727 20.046669 
L 43.637818 19.68794 
L 43.350908 19.329211 
L 43.063999 18.970482 
L 42.777089 18.611754 
L 42.745269 18.260901 
L 42.713449 17.910048 
L 42.856851 17.407842 
L 43.000253 16.905637 
L 43.143655 16.403432 
L 43.287057 15.901226 
L 43.574072 15.446871 
L 43.861087 14.992516 
L 44.148101 14.538161 
L 44.435116 14.083806 
L 44.646321 13.77289 
L 44.857525 13.461974 
L 45.06873 13.151059 
L 45.279934 12.840143 
L 45.491139 12.529227 
L 45.702343 12.218312 
L 45.913548 11.907396 
L 46.124752 11.59648 
L 46.332006 11.301577 
L 46.539259 11.006673 
L 46.746512 10.71177 
L 46.953766 10.416866 
L 47.192734 9.986362 
L 47.431702 9.555858 
L 47.702702 9.213029 
L 47.973701 8.870201 
L 48.2447 8.527373 
L 48.515699 8.184545 
L 48.691027 7.801891 
L 48.866355 7.419237 
L 49.041682 7.036583 
L 49.21701 6.653929 
L 49.472099 6.263325 
L 49.727188 5.87272 
L 49.982278 5.482116 
L 50.237367 5.091512 
L 50.46053 4.900185 
L 50.683694 4.708858 
L 50.906857 4.517531 
L 51.130021 4.326204 
L 51.480676 4.238528 
L 51.831331 4.150852 
L 52.181987 4.063176 
L 52.532642 3.9755 
" clip-path="url(#p260a7bcaac)" style="fill: none; stroke: #008000; stroke-width: 0.4; stroke-linecap: square"/>
   </g>
   <g id="line2d_63">
    <path d="M 33.658785 33.479829 
L 33.822207 33.139898 
L 33.985628 32.799968 
L 34.14905 32.460037 
L 34.312471 32.120107 
L 34.475892 31.780176 
L 34.639314 31.440246 
L 34.802735 31.100316 
L 34.966157 30.760385 
L 35.253066 30.361831 
L 35.539976 29.963276 
L 35.826885 29.564721 
L 36.113794 29.166167 
L 36.400704 28.767612 
L 36.687613 28.369058 
L 36.974523 27.970503 
L 37.261432 27.571949 
L 37.418848 27.334778 
L 37.576263 27.097607 
L 37.733679 26.860435 
L 37.891095 26.623264 
L 38.04851 26.386093 
L 38.205926 26.148922 
L 38.363341 25.911751 
L 38.520757 25.67458 
L 38.678173 25.437408 
L 38.835588 25.200237 
L 38.993004 24.963066 
L 39.150419 24.725895 
L 39.307835 24.488724 
L 39.465251 24.251553 
L 39.622666 24.014382 
L 39.780082 23.77721 
L 40.086958 23.302905 
L 40.393834 22.8286 
L 40.70071 22.354295 
L 41.007586 21.87999 
L 41.314462 21.405685 
L 41.621339 20.931379 
L 41.928215 20.457074 
L 42.235091 19.982769 
L 42.498135 19.580202 
L 42.761179 19.177636 
L 43.024223 18.775069 
L 43.287268 18.372502 
L 43.550312 17.969935 
L 43.813356 17.567368 
L 44.0764 17.164801 
L 44.339445 16.762235 
L 44.543748 16.4547 
L 44.748051 16.147165 
L 44.952354 15.83963 
L 45.156657 15.532095 
L 45.318208 15.289054 
L 45.479759 15.046013 
L 45.641311 14.802972 
L 45.802862 14.559931 
L 45.964413 14.31689 
L 46.125964 14.073849 
L 46.287515 13.830808 
L 46.449066 13.587767 
L 46.610618 13.344726 
L 46.772169 13.101685 
L 46.93372 12.858644 
L 47.095271 12.615603 
L 47.256822 12.372562 
L 47.418374 12.129521 
L 47.579925 11.88648 
L 47.741476 11.643439 
L 48.005732 11.245776 
L 48.193019 10.958786 
L 48.380305 10.671795 
L 48.567592 10.384805 
L 48.754878 10.097814 
L 48.942165 9.810824 
L 49.129452 9.523833 
L 49.316738 9.236843 
L 49.504025 8.949853 
L 49.711173 8.630949 
L 49.918321 8.312046 
L 50.085746 8.072943 
L 50.253171 7.83384 
L 50.420597 7.594737 
L 50.588022 7.355634 
L 50.847062 6.984943 
L 51.106103 6.614252 
L 51.365143 6.24356 
L 51.624183 5.872869 
L 51.883224 5.502178 
L 52.142264 5.131486 
L 52.401304 4.760795 
L 52.660345 4.390103 
" clip-path="url(#p260a7bcaac)" style="fill: none; stroke: #008000; stroke-width: 0.4; stroke-linecap: square"/>
   </g>
   <g id="line2d_64">
    <path d="M 45.32777 23.68151 
L 45.511105 23.402507 
L 45.694441 23.123504 
L 45.877776 22.844501 
L 46.061112 22.565498 
L 46.013276 22.055342 
L 45.96544 21.545186 
L 45.869769 21.082806 
L 45.774097 20.620427 
L 45.678425 20.158047 
L 45.582754 19.695667 
L 45.479074 19.376839 
L 45.375395 19.05801 
L 45.271716 18.739181 
L 45.168036 18.420352 
L 45.05656 17.878247 
L 44.945084 17.336141 
L 44.997977 16.88513 
L 45.05087 16.434118 
L 45.103764 15.983107 
L 45.156657 15.532095 
" clip-path="url(#p260a7bcaac)" style="fill: none; stroke: #008000; stroke-width: 0.4; stroke-linecap: square"/>
   </g>
   <g id="line2d_65">
    <path d="M 48.134699 21.192104 
L 48.149871 20.651188 
L 48.165044 20.110271 
L 48.069372 19.552265 
L 47.973701 18.994259 
L 48.045455 18.667406 
L 48.117208 18.340552 
L 48.188962 18.013699 
L 48.260716 17.686845 
L 48.388208 17.328117 
L 48.515699 16.969388 
L 48.643191 16.610659 
L 48.770683 16.25193 
L 48.969929 15.949002 
L 49.169174 15.646074 
L 49.36842 15.343146 
L 49.567666 15.040217 
L 49.790829 14.705414 
L 50.013992 14.37061 
L 50.269187 14.147408 
L 50.524382 13.924205 
L 50.620053 13.445999 
L 50.731529 13.174947 
L 50.843006 12.903894 
L 51.193661 12.489439 
L 51.544317 12.074984 
L 51.783496 11.803931 
L 52.022675 11.532878 
L 52.309689 11.245776 
L 52.469002 11.086473 
L 52.70797 10.895072 
L 52.946938 10.703671 
L 53.04261 10.352967 
L 53.106672 9.810861 
L 52.946938 9.332655 
L 52.803641 8.918051 
L 52.660345 8.503448 
L 52.596493 7.993292 
L 52.532642 7.483136 
L 52.500822 7.020831 
L 52.469002 6.558525 
L 52.469002 6.271423 
L 52.469002 5.984322 
L 52.660345 5.585767 
L 52.851688 5.187212 
" clip-path="url(#p260a7bcaac)" style="fill: none; stroke: #008000; stroke-width: 0.4; stroke-linecap: square"/>
   </g>
   <g id="line2d_66">
    <path d="M 49.631728 18.069648 
L 49.663548 17.718795 
L 49.695368 17.367942 
L 49.85468 16.985288 
L 50.013992 16.602634 
L 50.42871 16.31583 
L 50.731529 16.092627 
L 51.034349 15.869425 
L 51.448856 15.614273 
L 51.863362 15.359121 
L 51.990644 14.944517 
L 51.958823 14.593813 
L 51.927003 14.243108 
L 51.910987 13.860454 
L 51.894972 13.477801 
L 51.927003 12.935695 
L 51.959034 12.39359 
L 52.046698 12.106636 
L 52.134362 11.819683 
L 52.222026 11.53273 
L 52.309689 11.245776 
" clip-path="url(#p260a7bcaac)" style="fill: none; stroke: #008000; stroke-width: 0.4; stroke-linecap: square"/>
   </g>
   <g id="line2d_67">
    <path d="M 48.770683 16.25193 
L 48.770683 15.869276 
L 48.770683 15.486622 
L 48.850339 15.056267 
L 48.929995 14.625911 
L 49.089518 14.211307 
L 49.249041 13.796704 
L 49.424369 13.270647 
L 49.599697 12.744591 
L 49.679353 12.266236 
L 49.759009 11.787882 
L 49.727188 11.373278 
L 49.695368 10.958674 
L 49.663548 10.448519 
L 49.631728 9.938363 
L 49.703376 9.531784 
L 49.775024 9.125205 
L 49.846673 8.718626 
L 49.918321 8.312046 
" clip-path="url(#p260a7bcaac)" style="fill: none; stroke: #4169e1; stroke-width: 0.4; stroke-linecap: square"/>
   </g>
   <g id="line2d_68">
    <path d="M 47.973701 18.994259 
L 47.814389 18.579804 
L 47.655076 18.165349 
L 47.57542 17.607194 
L 47.495764 17.049039 
L 47.479749 16.618684 
L 47.463733 16.188328 
L 47.527374 15.741923 
L 47.591014 15.295518 
L 47.686686 14.976615 
L 47.782358 14.657712 
L 47.766553 14.179358 
L 47.750748 13.701003 
L 47.74843 13.186612 
L 47.746112 12.672221 
L 47.743794 12.15783 
L 47.741476 11.643439 
" clip-path="url(#p260a7bcaac)" style="fill: none; stroke: #008000; stroke-width: 0.4; stroke-linecap: square"/>
   </g>
  </g>
 </g>
 <defs>
  <clipPath id="p260a7bcaac">
   <rect x="0" y="0" width="72" height="87.460993"/>
  </clipPath>
 </defs>
</svg>
