<?xml version="1.0" encoding="utf-8" standalone="no"?>
<!DOCTYPE svg PUBLIC "-//W3C//DTD SVG 1.1//EN"
  "http://www.w3.org/Graphics/SVG/1.1/DTD/svg11.dtd">
<svg xmlns:xlink="http://www.w3.org/1999/xlink" width="100.411542pt" height="72pt" viewBox="0 0 100.411542 72" xmlns="http://www.w3.org/2000/svg" version="1.1">
 <metadata>
  <rdf:RDF xmlns:dc="http://purl.org/dc/elements/1.1/" xmlns:cc="http://creativecommons.org/ns#" xmlns:rdf="http://www.w3.org/1999/02/22-rdf-syntax-ns#">
   <cc:Work>
    <dc:type rdf:resource="http://purl.org/dc/dcmitype/StillImage"/>
    <dc:date>2022-05-17T23:05:50.447394</dc:date>
    <dc:format>image/svg+xml</dc:format>
    <dc:creator>
     <cc:Agent>
      <dc:title>Matplotlib v3.5.2, https://matplotlib.org/</dc:title>
     </cc:Agent>
    </dc:creator>
   </cc:Work>
  </rdf:RDF>
 </metadata>
 <defs>
  <style type="text/css">*{stroke-linejoin: round; stroke-linecap: butt}</style>
 </defs>
 <g id="figure_1">
  <g id="patch_1">
   <path d="M 0 72 
L 100.411542 72 
L 100.411542 0 
L 0 0 
z
" style="fill: #ffffff"/>
  </g>
  <g id="axes_1">
   <g id="line2d_1">
    <path d="M 4.564161 24.955488 
L 9.931944 22.245143 
L 15.299726 19.534798 
L 20.667509 16.824453 
L 26.035291 14.114108 
L 31.403074 11.403763 
L 36.770857 8.693418 
L 42.138639 5.983072 
L 47.506422 3.272727 
" clip-path="url(#p6aea4e0487)" style="fill: none; stroke: #808080; stroke-width: 0.464868; stroke-linecap: square"/>
   </g>
   <g id="line2d_2">
    <path d="M 5.106478 26.086852 
L 10.481829 23.336009 
L 15.85718 20.585167 
L 21.23253 17.834324 
L 26.607881 15.083481 
L 31.983231 12.332638 
L 37.358582 9.581795 
L 42.733932 6.830953 
L 48.109283 4.08011 
" clip-path="url(#p6aea4e0487)" style="fill: none; stroke: #808080; stroke-width: 0.464868; stroke-linecap: square"/>
   </g>
   <g id="line2d_3">
    <path d="M 27.899266 34.560082 
L 32.510896 29.175819 
L 37.11222 23.837838 
L 40.596706 19.788926 
L 44.713681 15.004628 
L 48.808756 10.475744 
L 53.773343 4.909777 
" clip-path="url(#p6aea4e0487)" style="fill: none; stroke: #808080; stroke-width: 0.464868; stroke-linecap: square"/>
   </g>
   <g id="line2d_4">
    <path d="M 82.84207 66.987372 
L 79.496706 60.346609 
L 76.399958 54.199531 
L 73.420432 47.961602 
L 70.125307 41.291698 
L 66.712959 34.397234 
L 64.853493 30.639735 
L 62.994027 26.882235 
L 61.080458 22.934461 
L 59.166889 18.986686 
L 57.243015 15.000343 
L 55.319141 11.013999 
" clip-path="url(#p6aea4e0487)" style="fill: none; stroke: #808080; stroke-width: 0.464868; stroke-linecap: square"/>
   </g>
   <g id="line2d_5">
    <path d="M 73.935698 64.728073 
L 71.796701 60.42289 
L 69.657703 56.117708 
L 67.605657 51.826239 
L 65.55361 47.534769 
L 62.616595 41.478544 
" clip-path="url(#p6aea4e0487)" style="fill: none; stroke: #808080; stroke-width: 0.464868; stroke-linecap: square"/>
   </g>
   <g id="line2d_6">
    <path d="M 95.847381 35.952003 
L 92.006074 36.581967 
L 88.164766 37.211931 
L 84.323459 37.841895 
L 80.482152 38.471859 
" clip-path="url(#p6aea4e0487)" style="fill: none; stroke: #808080; stroke-width: 0.464868; stroke-linecap: square"/>
   </g>
   <g id="line2d_7">
    <path d="M 86.474694 64.959488 
L 84.091267 59.332667 
L 81.707841 53.705845 
L 79.324414 48.079024 
L 76.940987 42.452203 
" clip-path="url(#p6aea4e0487)" style="fill: none; stroke: #808080; stroke-width: 0.464868; stroke-linecap: square"/>
   </g>
   <g id="line2d_8">
    <path d="M 44.926228 41.396263 
L 49.217749 42.621907 
L 53.50927 43.847552 
L 57.800791 45.073196 
L 62.092312 46.29884 
" clip-path="url(#p6aea4e0487)" style="fill: none; stroke: #808080; stroke-width: 0.464868; stroke-linecap: square"/>
   </g>
   <g id="line2d_9">
    <path d="M 44.405809 46.29884 
L 48.421341 47.584909 
L 52.436872 48.870979 
L 56.452404 50.157048 
L 60.467936 51.443118 
" clip-path="url(#p6aea4e0487)" style="fill: none; stroke: #808080; stroke-width: 0.464868; stroke-linecap: square"/>
   </g>
   <g id="line2d_10">
    <path d="M 95.785549 35.624593 
L 91.944242 36.254557 
L 88.102935 36.884521 
L 84.261627 37.514485 
L 80.42032 38.144449 
" clip-path="url(#p6aea4e0487)" style="fill: none; stroke: #808080; stroke-width: 0.464868; stroke-linecap: square"/>
   </g>
   <g id="line2d_11">
    <path d="M 61.470128 48.861551 
L 59.377343 48.274013 
L 57.284559 47.686475 
L 55.191774 47.098937 
L 53.098989 46.511399 
L 51.006204 45.923861 
L 48.91342 45.336324 
L 46.820635 44.748786 
L 44.72785 44.161248 
" clip-path="url(#p6aea4e0487)" style="fill: none; stroke: #008000; stroke-width: 0.464868; stroke-linecap: square"/>
   </g>
   <g id="line2d_12">
    <path d="M 62.643646 50.169476 
L 63.681102 52.172504 
L 64.718557 54.175533 
L 65.756013 56.178561 
L 66.793469 58.18159 
L 67.830925 60.184618 
L 68.86838 62.187646 
L 69.905836 64.190675 
L 70.943292 66.193703 
" clip-path="url(#p6aea4e0487)" style="fill: none; stroke: #008000; stroke-width: 0.464868; stroke-linecap: square"/>
   </g>
   <g id="line2d_13">
    <path d="M 64.287344 40.554597 
L 65.212086 42.199789 
L 66.136827 43.84498 
L 67.061568 45.490172 
L 67.986309 47.135364 
L 68.911051 48.780555 
L 69.835792 50.425747 
L 70.760533 52.070939 
L 71.685275 53.716131 
L 73.083577 55.366893 
L 74.48188 57.017656 
" clip-path="url(#p6aea4e0487)" style="fill: none; stroke: #008000; stroke-width: 0.464868; stroke-linecap: square"/>
   </g>
   <g id="line2d_14">
    <path d="M 53.301875 11.943089 
L 54.225167 13.305011 
L 55.148459 14.666933 
L 56.071751 16.028855 
L 56.995044 17.390778 
L 57.987252 19.027398 
L 58.979461 20.664019 
L 59.97167 22.30064 
L 60.963879 23.937261 
L 61.862696 25.504243 
L 62.761513 27.071225 
L 63.66033 28.638206 
L 64.559147 30.205188 
L 65.457964 31.77217 
L 66.356781 33.339152 
L 67.255598 34.906134 
L 68.154415 36.473116 
L 68.998485 37.997029 
L 69.842555 39.520942 
L 70.686625 41.044855 
L 71.530695 42.568767 
L 72.139997 44.649791 
L 72.432732 46.195775 
L 72.725468 47.741758 
L 73.018203 49.287741 
L 73.310938 50.833724 
L 73.603674 52.379707 
L 73.896409 53.92569 
L 74.189145 55.471673 
L 74.48188 57.017656 
L 75.004553 58.623422 
L 75.527226 60.229187 
L 76.049899 61.834952 
L 76.572572 63.440718 
L 77.169636 64.762356 
L 77.7667 66.083995 
L 78.363765 67.405634 
L 78.960829 68.727273 
" clip-path="url(#p6aea4e0487)" style="fill: none; stroke: #008000; stroke-width: 0.464868; stroke-linecap: square"/>
   </g>
   <g id="line2d_15">
    <path d="M 60.963879 23.937261 
L 59.937856 25.772299 
L 58.911833 27.607337 
L 58.300921 28.767842 
L 57.690008 29.928347 
L 57.079096 31.088852 
L 56.468184 32.249357 
L 55.539417 33.421862 
L 54.610651 34.594366 
L 53.193669 35.400891 
L 51.776688 36.207417 
L 49.724642 36.62225 
L 47.672595 37.037084 
L 46.116814 37.385921 
L 44.561033 37.734758 
L 43.005252 38.083595 
L 41.449471 38.432432 
L 40.04666 39.232958 
L 38.643848 40.033484 
" clip-path="url(#p6aea4e0487)" style="fill: none; stroke: #008000; stroke-width: 0.464868; stroke-linecap: square"/>
   </g>
   <g id="line2d_16">
    <path d="M 56.995044 17.390778 
L 56.411022 18.391221 
L 55.827 19.391663 
L 55.242978 20.392106 
L 54.658957 21.392549 
L 54.074935 22.392992 
L 53.490913 23.393435 
L 52.906892 24.393877 
L 52.32287 25.39432 
L 51.284287 26.59168 
L 50.245704 27.789041 
L 49.207121 28.986401 
L 48.168538 30.183761 
L 46.824983 30.965431 
L 45.481427 31.7471 
L 44.137871 32.52877 
L 42.794315 33.310439 
L 41.184109 34.710074 
L 39.573903 36.109708 
L 37.963697 37.509342 
L 36.353491 38.908977 
" clip-path="url(#p6aea4e0487)" style="fill: none; stroke: #4169e1; stroke-width: 0.464868; stroke-linecap: square"/>
   </g>
   <g id="line2d_17">
    <path d="M 51.269151 11.312268 
L 50.215271 12.910105 
L 49.161391 14.507942 
L 48.107512 16.10578 
L 47.053632 17.703617 
L 45.999752 19.301454 
L 44.945872 20.899291 
L 43.891992 22.497129 
L 42.838113 24.094966 
L 41.714994 25.783869 
L 40.591875 27.472773 
L 39.468757 29.161676 
L 38.345638 30.85058 
L 37.222519 32.539483 
L 36.099401 34.228387 
L 34.976282 35.91729 
L 33.853163 37.606194 
" clip-path="url(#p6aea4e0487)" style="fill: none; stroke: #4169e1; stroke-width: 0.464868; stroke-linecap: square"/>
   </g>
   <g id="line2d_18">
    <path d="M 49.130798 6.687389 
L 48.042459 7.654834 
L 46.954121 8.622279 
L 45.865783 9.589723 
L 44.777445 10.557168 
L 43.689107 11.524613 
L 42.600768 12.492058 
L 41.51243 13.459502 
L 40.424092 14.426947 
L 39.024501 15.964145 
L 37.62491 17.501343 
L 36.225319 19.038541 
L 34.825728 20.575739 
L 34.08294 21.500114 
L 33.340152 22.42449 
L 32.597364 23.348866 
L 31.854576 24.273242 
L 31.111788 25.197617 
L 30.369 26.121993 
L 29.626212 27.046369 
L 28.883424 27.970745 
L 27.967861 29.335238 
L 27.052297 30.699731 
L 26.136734 32.064225 
L 25.221171 33.428718 
" clip-path="url(#p6aea4e0487)" style="fill: none; stroke: #4169e1; stroke-width: 0.464868; stroke-linecap: square"/>
   </g>
   <g id="line2d_19">
    <path d="M 48.785569 5.92629 
L 47.379779 6.709567 
L 45.973989 7.492843 
L 44.568198 8.27612 
L 43.162408 9.059397 
L 41.756618 9.842673 
L 40.350828 10.62595 
L 38.945037 11.409227 
L 37.539247 12.192503 
L 36.133457 12.97578 
L 34.727666 13.759057 
L 33.321876 14.542333 
L 31.916086 15.32561 
L 30.510295 16.108887 
L 29.104505 16.892163 
L 27.698715 17.67544 
L 26.292924 18.458717 
L 25.044693 19.107215 
L 23.796461 19.755714 
L 22.548229 20.404213 
L 21.299998 21.052711 
L 20.051766 21.70121 
L 18.803534 22.349709 
L 17.555303 22.998207 
L 16.307071 23.646706 
L 15.058839 24.295205 
L 13.810608 24.943703 
L 12.562376 25.592202 
L 11.314144 26.240701 
L 10.065913 26.889199 
L 8.817681 27.537698 
L 7.569449 28.186197 
L 6.321218 28.834695 
" clip-path="url(#p6aea4e0487)" style="fill: none; stroke: #008000; stroke-width: 0.464868; stroke-linecap: square"/>
   </g>
   <g id="line2d_20">
    <path d="M 71.530695 42.568767 
L 72.781503 42.035655 
L 74.032311 41.502543 
L 75.621906 41.019142 
L 77.038887 40.846009 
L 78.90415 41.226558 
L 80.627714 42.016799 
" clip-path="url(#p6aea4e0487)" style="fill: none; stroke: #008000; stroke-width: 0.464868; stroke-linecap: square"/>
   </g>
  </g>
 </g>
 <defs>
  <clipPath id="p6aea4e0487">
   <rect x="0" y="0" width="100.411542" height="72"/>
  </clipPath>
 </defs>
</svg>
