<?xml version="1.0" encoding="utf-8" standalone="no"?>
<!DOCTYPE svg PUBLIC "-//W3C//DTD SVG 1.1//EN"
  "http://www.w3.org/Graphics/SVG/1.1/DTD/svg11.dtd">
<svg height="63.427361pt" version="1.1" viewBox="0 0 72 63.427361" width="72pt" xmlns="http://www.w3.org/2000/svg" xmlns:xlink="http://www.w3.org/1999/xlink">
 <metadata>
  <rdf:RDF xmlns:cc="http://creativecommons.org/ns#" xmlns:dc="http://purl.org/dc/elements/1.1/" xmlns:rdf="http://www.w3.org/1999/02/22-rdf-syntax-ns#">
   <cc:Work>
    <dc:type rdf:resource="http://purl.org/dc/dcmitype/StillImage"/>
    <dc:date>2022-04-21T17:35:20.390811</dc:date>
    <dc:format>image/svg+xml</dc:format>
    <dc:creator>
     <cc:Agent>
      <dc:title>Matplotlib v3.4.3, https://matplotlib.org/</dc:title>
     </cc:Agent>
    </dc:creator>
   </cc:Work>
  </rdf:RDF>
 </metadata>
 <defs>
  <style type="text/css">*{stroke-linecap:butt;stroke-linejoin:round;}</style>
 </defs>
 <g id="figure_1">
  <g id="patch_1">
   <path d="M 0 63.427361 
L 72 63.427361 
L 72 0 
L 0 0 
z
" style="fill:#ffffff;"/>
  </g>
  <g id="axes_1">
   <g id="line2d_1">
    <path clip-path="url(#p778697e4e5)" d="M 34.013193 35.722804 
L 33.433366 34.963218 
L 32.964296 34.347795 
L 32.495227 33.732372 
L 32.032438 33.124989 
L 31.56965 32.517607 
L 31.077059 31.871297 
L 30.584468 31.224988 
L 30.098956 30.587833 
L 29.613444 29.950678 
L 29.277914 29.510386 
L 28.942383 29.070093 
L 28.606853 28.6298 
L 28.271322 28.189507 
L 27.85198 27.639321 
L 27.432639 27.089134 
L 27.013297 26.538947 
L 26.593955 25.98876 
L 26.014184 25.228019 
L 25.434413 24.467278 
L 24.854643 23.706537 
L 24.274872 22.945796 
L 23.91188 22.469503 
L 23.548888 21.993209 
L 23.185896 21.516915 
L 22.822905 21.040621 
L 22.459913 20.564327 
L 22.096921 20.088033 
L 21.733929 19.611739 
L 21.370937 19.135445 
L 20.826392 18.420835 
L 20.281847 17.706225 
L 19.939009 17.25642 
L 19.596171 16.806614 
L 19.253332 16.356809 
L 18.910494 15.907003 
L 18.516216 15.389573 
L 18.121937 14.872144 
L 17.680501 14.292304 
" style="fill:none;stroke:#808080;stroke-linecap:square;stroke-width:0.4;"/>
   </g>
   <g id="line2d_2">
    <path clip-path="url(#p778697e4e5)" d="M 41.613528 59.845053 
L 41.467372 58.850951 
L 41.387786 58.309003 
L 41.308199 57.767055 
L 41.210458 57.102198 
L 41.112716 56.437341 
L 41.064073 56.106027 
L 40.933104 55.214297 
L 40.802134 54.322567 
L 40.693203 53.581289 
L 40.584271 52.840011 
L 40.48356 52.153502 
L 40.377255 51.430374 
L 40.270949 50.707246 
L 40.179716 50.079843 
L 40.088483 49.45244 
L 39.997249 48.825037 
L 39.906016 48.197633 
L 39.795828 47.453609 
L 39.685641 46.709585 
L 39.575453 45.965561 
L 39.465265 45.221538 
L 39.389047 44.702755 
L 39.312829 44.183972 
L 39.236611 43.665189 
L 39.160393 43.146406 
L 39.084974 42.633156 
L 39.009555 42.119906 
L 38.934137 41.606655 
L 38.858718 41.093405 
L 38.731631 40.228024 
L 38.604544 39.362643 
L 38.420707 38.357556 
L 38.237099 37.352309 
L 38.128738 36.759096 
L 38.020377 36.165883 
" style="fill:none;stroke:#808080;stroke-linecap:square;stroke-width:0.4;"/>
   </g>
   <g id="line2d_3">
    <path clip-path="url(#p778697e4e5)" d="M 35.65151 34.903355 
L 36.59136 34.911873 
L 37.531211 34.92039 
" style="fill:none;stroke:#808080;stroke-linecap:square;stroke-width:0.4;"/>
   </g>
   <g id="line2d_4">
    <path clip-path="url(#p778697e4e5)" d="M 38.074272 34.854159 
L 38.092313 34.480814 
L 38.133876 33.623473 
L 38.158997 33.105327 
L 38.184117 32.587181 
L 38.229334 31.651748 
L 38.274551 30.716315 
L 38.313031 29.921464 
L 38.351511 29.126612 
L 38.386908 28.394967 
L 38.422306 27.663321 
L 38.447141 27.149554 
L 38.471976 26.635786 
L 38.496811 26.122018 
L 38.521646 25.60825 
L 38.560012 24.81722 
L 38.598378 24.026189 
L 38.623498 23.506929 
L 38.648619 22.987668 
L 38.673739 22.468408 
L 38.69886 21.949148 
L 38.731402 21.275136 
L 38.763945 20.601124 
L 38.771253 20.451308 
L 38.815271 19.92158 
L 38.859289 19.391851 
L 38.903307 18.862123 
L 38.947325 18.332394 
L 38.991343 17.802626 
L 39.035361 17.272858 
L 39.079379 16.74309 
L 39.123397 16.213321 
L 39.172668 15.620387 
L 39.221938 15.027452 
L 39.271209 14.434518 
L 39.320479 13.841583 
L 39.395384 12.940619 
L 39.406346 12.807202 
L 39.417536 12.673466 
" style="fill:none;stroke:#808080;stroke-linecap:square;stroke-width:0.4;"/>
   </g>
   <g id="line2d_5">
    <path clip-path="url(#p778697e4e5)" d="M 43.456691 58.492253 
L 43.559685 57.563109 
L 43.642811 56.812199 
L 43.725937 56.061289 
L 43.810205 55.300429 
L 43.894473 54.539569 
L 43.990502 53.672197 
L 44.086531 52.804826 
L 44.19238 51.849333 
L 44.298229 50.893839 
L 44.371935 50.227708 
L 44.445641 49.561578 
L 44.519347 48.895447 
L 44.593053 48.229316 
L 44.704383 47.224468 
L 44.815712 46.219619 
L 44.926128 45.221776 
L 45.036545 44.223933 
L 45.135771 43.328064 
L 45.234997 42.432194 
L 45.320178 41.662975 
L 45.40536 40.893757 
L 45.51669 39.888272 
L 45.628019 38.882787 
L 45.688194 38.339565 
L 45.74837 37.796344 
L 45.808545 37.253122 
L 45.86872 36.709901 
L 45.945566 36.015271 
L 46.022412 35.320642 
" style="fill:none;stroke:#808080;stroke-linecap:square;stroke-width:0.4;"/>
   </g>
   <g id="line2d_6">
    <path clip-path="url(#p778697e4e5)" d="M 3.272727 22.461642 
L 3.417285 21.847731 
L 3.561842 21.233821 
L 3.681222 20.726461 
L 3.800601 20.219102 
L 3.919981 19.711742 
L 4.039361 19.204383 
L 4.181063 18.602254 
L 4.322766 18.000125 
L 4.464469 17.397996 
L 4.606171 16.795867 
L 4.726921 16.282856 
L 4.847671 15.769844 
L 4.968421 15.256833 
L 5.089171 14.743821 
L 5.225907 14.162748 
L 5.362642 13.581674 
L 5.499378 13.000601 
L 5.636114 12.419528 
L 5.781356 11.802274 
L 5.918434 11.219927 
L 6.055513 10.63758 
L 6.192591 10.055233 
L 6.329669 9.472886 
L 6.461038 8.914699 
L 6.592407 8.356511 
L 6.723776 7.798324 
L 6.855145 7.240137 
L 7.013633 6.566524 
L 7.161502 5.938523 
L 7.30937 5.310523 
L 7.454042 4.695578 
L 7.598713 4.080633 
L 7.739502 3.481847 
L 7.880292 2.883062 
" style="fill:none;stroke:#808080;stroke-linecap:square;stroke-width:0.4;"/>
   </g>
   <g id="line2d_7">
    <path clip-path="url(#p778697e4e5)" d="M 51.249312 41.78278 
L 51.245201 41.259699 
L 51.241091 40.736617 
L 51.234582 39.894401 
L 51.228074 39.052185 
L 51.221908 38.253433 
L 51.215742 37.454681 
L 51.209347 36.642555 
L 51.202953 35.83043 
L 51.196559 35.009229 
L 51.190164 34.188029 
L 51.182742 33.232854 
L 51.17532 32.277679 
L 51.168926 31.454488 
L 51.162532 30.631297 
L 51.156708 29.882776 
L 51.150885 29.134254 
L 51.142949 28.107395 
L 51.135013 27.080536 
L 51.127078 26.053677 
L 51.119142 25.026819 
L 51.111491 24.054369 
L 51.103841 23.08192 
L 51.097675 22.279506 
L 51.091509 21.477093 
L 51.085343 20.674997 
L 51.080091 20.011254 
" style="fill:none;stroke:#808080;stroke-linecap:square;stroke-width:0.4;"/>
   </g>
   <g id="line2d_8">
    <path clip-path="url(#p778697e4e5)" d="M 41.122536 13.243912 
L 41.194472 12.785231 
L 41.336631 11.877739 
L 41.478791 10.970247 
L 41.609417 10.135912 
L 41.740044 9.301577 
L 41.853543 8.576379 
" style="fill:none;stroke:#808080;stroke-linecap:square;stroke-width:0.4;"/>
   </g>
   <g id="line2d_9">
    <path clip-path="url(#p778697e4e5)" d="M 52.193388 41.634397 
L 52.8061 40.830073 
L 53.297664 40.183843 
L 53.789227 39.537614 
L 54.220387 38.97067 
L 54.651547 38.403726 
L 55.148134 37.75073 
L 55.644722 37.097734 
L 56.249442 36.302803 
L 56.754707 35.638423 
L 57.259973 34.974044 
L 57.816393 34.242398 
L 58.372813 33.510753 
L 58.948873 32.753475 
L 59.524932 31.996197 
L 59.966369 31.415721 
L 60.407805 30.835244 
L 60.982267 30.079956 
L 61.556728 29.324668 
L 62.161904 28.528862 
L 62.767081 27.733055 
L 63.086455 27.313141 
L 63.405828 26.893227 
L 63.725202 26.473313 
L 64.044575 26.053399 
L 64.385929 25.604549 
L 64.727283 25.155698 
L 65.068637 24.706848 
L 65.409991 24.257998 
L 65.742838 23.820332 
L 66.075685 23.382666 
L 66.408532 22.945 
L 66.74138 22.507335 
L 67.301454 21.770754 
L 67.861527 21.034173 
L 68.32306 20.426153 
" style="fill:none;stroke:#808080;stroke-linecap:square;stroke-width:0.4;"/>
   </g>
   <g id="line2d_10">
    <path clip-path="url(#p778697e4e5)" d="M 40.905814 60.544299 
L 40.84621 60.097877 
L 40.767194 59.504823 
L 40.69777 58.984846 
L 40.628346 58.464869 
L 40.564174 57.982147 
" style="fill:none;stroke:#808080;stroke-linecap:square;stroke-width:0.4;"/>
   </g>
   <g id="line2d_11">
    <path clip-path="url(#p778697e4e5)" d="M 40.564174 57.982147 
L 40.700282 58.055065 
L 40.83639 58.127982 
L 40.998531 58.341482 
L 41.015659 58.602027 
L 41.032787 58.862573 
L 40.968729 59.058958 
L 40.904672 59.255342 
L 40.921571 59.486036 
L 41.024109 59.767836 
L 41.126646 59.9643 
L 41.147999 60.122315 
L 41.169351 60.28033 
L 41.037582 60.412315 
L 40.905814 60.544299 
" style="fill:none;stroke:#008000;stroke-dasharray:1.48,0.64;stroke-dashoffset:0;stroke-width:0.4;"/>
   </g>
   <g id="line2d_12">
    <path clip-path="url(#p778697e4e5)" d="M 3.272727 22.461642 
L 4.352454 22.397799 
L 5.836564 22.249894 
L 7.20866 22.129213 
L 7.855171 21.534249 
L 8.024164 21.552398 
L 8.223416 21.905604 
L 8.456009 22.377738 
L 10.197548 24.113914 
L 10.146279 25.210705 
L 10.310305 25.76929 
L 10.848455 26.799294 
L 10.915082 26.963279 
L 10.166946 27.496231 
L 9.910717 27.61922 
L 9.910717 28.17279 
L 10.976513 28.685205 
L 11.786194 29.043903 
L 14.625044 30.612113 
L 15.704999 31.187494 
L 16.50623 31.891676 
L 17.013208 33.026757 
L 17.851092 33.656111 
L 21.606842 35.048235 
L 22.784082 35.209992 
L 23.772918 35.39149 
L 26.625812 35.927229 
L 27.405691 36.305748 
L 28.342002 36.92149 
L 29.54893 38.082124 
L 30.859195 40.070646 
L 31.514955 40.37776 
L 31.688858 40.39989 
L 31.908549 40.164101 
L 31.84118 38.1474 
L 32.127782 37.225579 
L 32.539702 36.352516 
L 32.954477 35.532868 
L 32.954477 35.532868 
" style="fill:none;stroke:#008000;stroke-linecap:square;stroke-width:0.4;"/>
   </g>
   <g id="line2d_13">
    <path clip-path="url(#p778697e4e5)" d="M 38.074272 34.854159 
L 38.060227 35.092416 
L 38.046182 35.330672 
L 38.048238 35.494498 
L 38.050293 35.658325 
L 38.035335 35.912104 
L 38.020377 36.165883 
L 38.097965 36.377233 
L 38.175553 36.588583 
L 38.253141 36.799933 
L 38.33073 37.011284 
L 38.408318 37.222634 
L 38.485906 37.433984 
L 38.563494 37.645334 
L 38.641083 37.856684 
L 38.688441 38.083159 
L 38.735798 38.309634 
L 38.783156 38.536109 
L 38.830514 38.762584 
L 38.877872 38.989059 
L 38.92523 39.215534 
L 38.972588 39.442008 
L 39.019946 39.668483 
L 39.085088 39.943298 
L 39.15023 40.218113 
L 39.215373 40.492928 
L 39.280515 40.767743 
L 39.345657 41.042557 
L 39.410799 41.317372 
L 39.475941 41.592187 
L 39.541083 41.867002 
L 39.602543 42.098392 
L 39.664003 42.329783 
L 39.725462 42.561173 
L 39.786922 42.792564 
L 39.848382 43.023954 
L 39.909841 43.255345 
L 39.971301 43.486736 
L 40.032761 43.718126 
L 40.045692 43.948959 
L 40.058623 44.179793 
L 40.071555 44.410626 
L 40.084486 44.641459 
L 40.097418 44.872293 
L 40.110349 45.103126 
L 40.12328 45.333959 
L 40.136212 45.564792 
L 40.171966 45.753077 
L 40.20772 45.941362 
L 40.243474 46.129646 
L 40.279228 46.317931 
L 40.314981 46.506216 
L 40.350735 46.6945 
L 40.386489 46.882785 
L 40.422243 47.07107 
L 40.457997 47.259354 
L 40.493751 47.447639 
L 40.529505 47.635924 
L 40.565259 47.824208 
L 40.601013 48.012493 
L 40.636767 48.200778 
L 40.672521 48.389062 
L 40.708275 48.577347 
L 40.737078 48.801752 
L 40.765881 49.026157 
L 40.794684 49.250563 
L 40.823487 49.474968 
L 40.85229 49.699373 
L 40.881093 49.923778 
L 40.909896 50.148184 
L 40.938699 50.372589 
L 41.017686 50.555062 
L 41.096673 50.737536 
L 41.17566 50.920009 
L 41.254647 51.102483 
L 41.333634 51.284956 
L 41.412621 51.46743 
L 41.491608 51.649903 
L 41.570595 51.832377 
L 41.645214 52.004761 
L 41.719834 52.177144 
L 41.794453 52.349528 
L 41.869072 52.521912 
L 41.913319 52.735013 
L 41.957565 52.948114 
L 42.001812 53.161216 
L 42.046058 53.374317 
L 42.090305 53.587419 
L 42.134551 53.80052 
L 42.178797 54.013621 
L 42.223044 54.226723 
L 42.219433 54.392967 
L 42.215822 54.559211 
L 42.212211 54.725455 
L 42.208599 54.891699 
L 42.204988 55.057943 
L 42.201377 55.224188 
L 42.197766 55.390432 
L 42.194155 55.556676 
L 42.190544 55.72292 
L 42.186933 55.889164 
L 42.183322 56.055408 
L 42.179711 56.221652 
L 42.1761 56.387897 
L 42.172489 56.554141 
L 42.168878 56.720385 
L 42.165267 56.886629 
L 42.130783 57.071531 
L 42.096299 57.256432 
L 42.061816 57.441333 
L 42.027332 57.626235 
L 41.992848 57.811136 
L 41.958365 57.996038 
L 41.923881 58.180939 
L 41.889397 58.365841 
L 41.854914 58.550742 
L 41.82043 58.735644 
L 41.785946 58.920545 
L 41.751463 59.105447 
L 41.716979 59.290348 
L 41.682495 59.47525 
L 41.648012 59.660151 
L 41.613528 59.845053 
" style="fill:none;stroke:#4169e1;stroke-linecap:square;stroke-width:0.4;"/>
   </g>
   <g id="line2d_14">
    <path clip-path="url(#p778697e4e5)" d="M 46.041595 35.133731 
L 45.88796 35.086565 
L 45.734325 35.039399 
L 45.58069 34.992234 
L 45.427055 34.945068 
L 45.257377 34.87629 
L 45.087699 34.807511 
L 44.918021 34.738733 
L 44.748344 34.669955 
L 44.552403 34.678074 
L 44.383867 34.756564 
L 44.146821 34.947138 
L 43.919594 35.150766 
L 43.692367 35.354394 
L 43.487692 35.509783 
L 43.283017 35.665171 
L 43.078341 35.820559 
L 42.873666 35.975947 
L 42.723171 36.165724 
L 42.59871 36.292932 
L 42.474249 36.42014 
L 42.331062 36.5249 
L 42.187875 36.629659 
L 42.00735 36.737205 
L 41.826824 36.844751 
L 41.647441 36.940834 
L 41.468057 37.036916 
L 41.248823 37.127506 
L 41.066814 37.160781 
L 40.802134 37.088182 
L 40.669909 36.985651 
L 40.49475 36.793485 
L 40.388159 36.662735 
L 40.281568 36.531985 
L 40.174977 36.401234 
L 40.068386 36.270484 
L 39.935818 36.130618 
L 39.80325 35.990753 
L 39.664516 35.875406 
L 39.525782 35.760059 
L 39.335666 35.639777 
L 39.145549 35.519494 
L 38.942872 35.411312 
L 38.740195 35.303129 
L 38.50783 35.300263 
L 38.275465 35.297398 
L 38.157855 35.101252 
L 38.074272 34.854159 
" style="fill:none;stroke:#008000;stroke-linecap:square;stroke-width:0.4;"/>
   </g>
   <g id="line2d_15">
    <path clip-path="url(#p778697e4e5)" d="M 42.873666 35.975947 
L 42.87575 36.255379 
L 42.877834 36.534811 
L 42.879917 36.814242 
L 42.882001 37.093674 
L 42.884085 37.373106 
L 42.886169 37.652538 
L 42.888253 37.93197 
L 42.890337 38.211402 
L 42.88694 38.504187 
L 42.883543 38.796973 
L 42.880146 39.089758 
L 42.876749 39.382544 
L 42.873352 39.675329 
L 42.869955 39.968115 
L 42.866558 40.2609 
L 42.863161 40.553686 
L 42.887525 40.736289 
L 42.911889 40.918892 
L 42.936253 41.101495 
L 42.960617 41.284098 
L 42.984981 41.4667 
L 43.009345 41.649303 
L 43.033709 41.831906 
L 43.058073 42.014509 
L 43.082438 42.197112 
L 43.106802 42.379715 
L 43.131166 42.562318 
L 43.15553 42.744921 
L 43.179894 42.927524 
L 43.204258 43.110126 
L 43.228622 43.292729 
L 43.252986 43.475332 
L 43.269015 43.671627 
L 43.285043 43.867922 
L 43.301072 44.064217 
L 43.317101 44.260512 
L 43.333129 44.456807 
L 43.349158 44.653101 
L 43.365186 44.849396 
L 43.381215 45.045691 
L 43.397244 45.241986 
L 43.413272 45.438281 
L 43.429301 45.634576 
L 43.44533 45.830871 
L 43.461358 46.027165 
L 43.477387 46.22346 
L 43.493415 46.419755 
L 43.509444 46.61605 
L 43.515724 46.908199 
L 43.522004 47.200347 
L 43.525573 47.366124 
L 43.529141 47.5319 
L 43.532709 47.697677 
L 43.536277 47.863453 
L 43.539846 48.02923 
L 43.543414 48.195006 
L 43.546982 48.360783 
L 43.55055 48.526559 
L 43.591371 48.678007 
L 43.632192 48.829455 
L 43.673013 48.980902 
L 43.713834 49.13235 
L 43.757395 49.293868 
L 43.800956 49.455385 
L 43.844518 49.616903 
L 43.888079 49.77842 
L 43.952907 49.96782 
L 44.017735 50.157219 
L 44.082563 50.346618 
L 44.147392 50.536017 
L 44.21222 50.725416 
L 44.277048 50.914815 
L 44.341876 51.104214 
L 44.406704 51.293613 
L 44.416981 51.534497 
L 44.427257 51.77538 
L 44.437534 52.016264 
L 44.44781 52.257147 
L 44.400481 52.493931 
L 44.353152 52.730714 
L 44.305822 52.967498 
L 44.258493 53.204282 
L 44.237911 53.425085 
L 44.217329 53.645888 
L 44.196748 53.866691 
L 44.176166 54.087494 
L 44.155584 54.308297 
L 44.135003 54.529101 
L 44.114421 54.749904 
L 44.093839 54.970707 
L 44.073257 55.19151 
L 44.052676 55.412313 
L 44.032094 55.633116 
L 44.011512 55.853919 
L 43.990931 56.074722 
L 43.970349 56.295525 
L 43.949767 56.516329 
L 43.929185 56.737132 
L 43.863187 56.982473 
L 43.797188 57.227814 
L 43.754626 57.385869 
L 43.712064 57.543924 
L 43.669502 57.701979 
L 43.62694 57.860033 
L 43.584377 58.018088 
L 43.541815 58.176143 
L 43.499253 58.334198 
L 43.456691 58.492253 
" style="fill:none;stroke:#4169e1;stroke-linecap:square;stroke-width:0.4;"/>
   </g>
   <g id="line2d_16">
    <path clip-path="url(#p778697e4e5)" d="M 50.341318 52.196011 
L 50.187055 52.259137 
L 50.032792 52.322263 
L 49.878529 52.38539 
L 49.724267 52.448516 
L 49.515081 52.533932 
L 49.305895 52.619348 
L 49.09671 52.704763 
L 48.887524 52.790179 
L 48.723184 52.89052 
L 48.558845 52.990862 
L 48.394505 53.091204 
L 48.230165 53.191545 
L 48.065825 53.291887 
L 47.901486 53.392228 
L 47.737146 53.49257 
L 47.572806 53.592911 
L 47.372127 53.814968 
L 47.171448 54.037025 
L 46.970769 54.259082 
L 46.770091 54.481139 
L 46.616399 54.681862 
L 46.462706 54.882585 
L 46.309014 55.083307 
L 46.155322 55.28403 
L 46.136139 55.465529 
L 46.116956 55.647027 
L 46.097773 55.828525 
L 46.078591 56.010024 
L 46.010308 56.176556 
L 45.942026 56.343089 
L 45.807574 56.437023 
L 45.673122 56.530956 
L 45.53867 56.624889 
L 45.404218 56.718823 
L 45.241962 56.733788 
L 45.079706 56.748754 
L 44.91745 56.76372 
L 44.755195 56.778685 
L 44.503304 56.889654 
L 44.251414 57.000623 
L 44.024301 57.114218 
L 43.797188 57.227814 
" style="fill:none;stroke:#008000;stroke-linecap:square;stroke-width:0.4;"/>
   </g>
   <g id="line2d_17">
    <path clip-path="url(#p778697e4e5)" d="M 47.653877 35.345797 
L 47.699608 35.545843 
L 47.745339 35.74589 
L 47.791069 35.945936 
L 47.8368 36.145982 
L 47.882531 36.346028 
L 47.928262 36.546075 
L 47.973993 36.746121 
L 48.019723 36.946167 
L 48.16311 37.163567 
L 48.306497 37.380967 
L 48.449884 37.598367 
L 48.593271 37.815767 
L 48.736658 38.033167 
L 48.880045 38.250567 
L 49.023432 38.467967 
L 49.166819 38.685367 
L 49.302641 38.948062 
L 49.438463 39.210757 
L 49.574285 39.473452 
L 49.710108 39.736147 
L 49.818754 39.875057 
L 49.9274 40.013967 
L 50.036047 40.152877 
L 50.144693 40.291787 
L 50.307691 40.442757 
L 50.470689 40.593727 
L 50.633687 40.744697 
L 50.796685 40.895667 
L 51.015976 41.048747 
L 51.235267 41.201826 
L 51.454558 41.354906 
L 51.673849 41.507985 
" style="fill:none;stroke:#008000;stroke-linecap:square;stroke-width:0.4;"/>
   </g>
   <g id="line2d_18">
    <path clip-path="url(#p778697e4e5)" d="M 51.080091 20.011254 
L 50.914866 20.014419 
L 50.749641 20.017583 
L 50.584417 20.020747 
L 50.419192 20.023911 
L 50.253967 20.027076 
L 50.088743 20.03024 
L 49.923518 20.033404 
L 49.758293 20.036569 
L 49.531923 20.118084 
L 49.305553 20.199599 
L 49.079182 20.281114 
L 48.852812 20.362629 
L 48.67771 20.525699 
L 48.502609 20.688769 
L 48.327507 20.851839 
L 48.152406 21.014909 
L 48.025661 21.196088 
L 47.898916 21.377268 
L 47.772172 21.558448 
L 47.645427 21.739628 
L 47.553366 21.922301 
L 47.461305 22.104973 
L 47.369244 22.287646 
L 47.277183 22.470319 
L 47.185122 22.652991 
L 47.093061 22.835664 
L 47.001 23.018336 
L 46.908939 23.201009 
L 46.848535 23.439544 
L 46.788132 23.678079 
L 46.727728 23.916614 
L 46.667325 24.155149 
L 46.655078 24.366957 
L 46.642832 24.578764 
L 46.630586 24.790572 
L 46.61834 25.00238 
L 46.606093 25.214188 
L 46.593847 25.425996 
L 46.581601 25.637803 
L 46.569355 25.849611 
L 46.551599 26.156765 
L 46.533843 26.46392 
L 46.516088 26.771074 
L 46.498332 27.078228 
L 46.524751 27.300165 
L 46.551171 27.522103 
L 46.57759 27.74404 
L 46.60401 27.965978 
L 46.630429 28.187915 
L 46.656848 28.409853 
L 46.683268 28.63179 
L 46.709687 28.853728 
L 46.736106 29.075665 
L 46.762526 29.297603 
L 46.788945 29.51954 
L 46.815365 29.741478 
L 46.841784 29.963415 
L 46.868203 30.185353 
L 46.894623 30.40729 
L 46.921042 30.629228 
L 46.951829 30.825005 
L 46.982616 31.020782 
L 47.013403 31.21656 
L 47.04419 31.412337 
L 47.074977 31.608115 
L 47.105764 31.803892 
L 47.136551 31.99967 
L 47.167338 32.195447 
L 47.198125 32.391225 
L 47.228912 32.587002 
L 47.259699 32.782779 
L 47.290485 32.978557 
L 47.321272 33.174334 
L 47.352059 33.370112 
L 47.382846 33.565889 
L 47.413633 33.761667 
L 47.443664 33.959683 
L 47.473694 34.157699 
L 47.503725 34.355716 
L 47.533755 34.553732 
L 47.563786 34.751748 
L 47.593816 34.949765 
L 47.623847 35.147781 
L 47.653877 35.345797 
" style="fill:none;stroke:#000000;stroke-linecap:square;stroke-width:0.4;"/>
   </g>
   <g id="line2d_19">
    <path clip-path="url(#p778697e4e5)" d="M 67.735011 40.400527 
L 67.342674 40.666247 
L 66.228978 41.156889 
L 63.343826 42.022072 
L 62.67345 42.40083 
L 60.587646 43.342074 
L 60.118234 43.374075 
L 59.115011 43.993239 
L 59.228167 44.298602 
L 59.401157 44.629598 
L 59.157716 45.048 
L 58.654163 45.389662 
L 57.627532 46.284338 
L 57.21133 46.551252 
L 57.027722 46.939881 
L 56.976567 47.960412 
L 56.643606 48.323408 
L 55.734471 48.568909 
L 55.171085 48.933975 
L 54.902067 49.576782 
L 54.773953 49.941769 
L 54.951167 50.28773 
L 55.815542 51.34464 
L 56.327772 51.667118 
L 56.609579 51.735419 
L 57.236908 52.175154 
L 57.416177 52.32895 
L 57.497248 52.82011 
L 57.621024 53.447713 
L 58.07365 54.259201 
L 58.018042 55.200684 
L 57.791843 55.792226 
L 56.942541 56.876917 
L 56.573269 57.028405 
L 55.239254 57.295319 
L 55.042971 57.256949 
L 54.581895 56.69319 
L 53.945831 56.569365 
L 52.09536 56.639815 
L 51.107267 56.855424 
L 50.654868 57.214122 
L 50.543881 58.10235 
L 49.971818 59.263939 
L 49.930255 59.628847 
L 49.930255 59.628847 
" style="fill:none;stroke:#008000;stroke-linecap:square;stroke-width:0.4;"/>
   </g>
   <g id="line2d_20">
    <path clip-path="url(#p778697e4e5)" d="M 59.139446 40.050267 
L 59.150008 40.314474 
L 59.16057 40.578682 
L 59.171132 40.842889 
L 59.181694 41.107097 
L 59.192257 41.371304 
L 59.202819 41.635512 
L 59.213381 41.899719 
L 59.223943 42.163927 
L 59.248093 42.360192 
L 59.272243 42.556457 
L 59.296393 42.752722 
L 59.320543 42.948987 
L 59.344693 43.145252 
L 59.368843 43.341517 
L 59.392993 43.537782 
L 59.417142 43.734047 
" style="fill:none;stroke:#4169e1;stroke-linecap:square;stroke-width:0.4;"/>
   </g>
   <g id="line2d_21">
    <path clip-path="url(#p778697e4e5)" d="M 61.185857 37.927532 
L 61.049264 38.073606 
L 60.912671 38.219681 
L 60.776078 38.365755 
L 60.639485 38.511829 
L 60.502892 38.657904 
L 60.366299 38.803978 
L 60.229706 38.950052 
L 60.093113 39.096127 
L 59.973905 39.215394 
L 59.854697 39.334662 
L 59.735488 39.453929 
L 59.61628 39.573197 
L 59.497071 39.692464 
L 59.377863 39.811732 
L 59.258655 39.930999 
L 59.139446 40.050267 
L 58.967371 40.222372 
L 58.795295 40.394477 
L 58.623219 40.566582 
L 58.451143 40.738687 
L 58.335296 40.840929 
L 58.219449 40.943171 
L 58.103602 41.045413 
L 57.987755 41.147655 
L 57.871908 41.249897 
L 57.756061 41.35214 
L 57.640214 41.454382 
L 57.524367 41.556624 
L 57.40852 41.658866 
L 57.292672 41.761108 
L 57.176825 41.86335 
L 57.060978 41.965592 
L 56.945131 42.067834 
L 56.829284 42.170076 
L 56.713437 42.272318 
L 56.59759 42.37456 
L 56.481743 42.476803 
L 56.365896 42.579045 
L 56.250049 42.681287 
L 56.134201 42.783529 
L 56.018354 42.885771 
L 55.902507 42.988013 
L 55.78666 43.090255 
L 55.670813 43.192497 
L 55.554966 43.294739 
L 55.439119 43.396981 
L 55.323272 43.499223 
L 55.207425 43.601466 
L 55.091578 43.703708 
L 54.97573 43.80595 
L 54.859883 43.908192 
L 54.744036 44.010434 
L 54.466626 44.134259 
L 54.189215 44.258084 
L 53.911804 44.381909 
L 53.634393 44.505733 
L 53.44656 44.710715 
L 53.258727 44.915697 
L 53.070894 45.120679 
L 52.883061 45.32566 
L 52.793426 45.543438 
L 52.703791 45.761217 
L 52.614157 45.978995 
L 52.524522 46.196773 
L 52.434887 46.414551 
L 52.345253 46.632329 
L 52.255618 46.850107 
L 52.165983 47.067885 
L 52.125391 47.311316 
L 52.084798 47.554747 
L 52.044206 47.798178 
L 52.003613 48.041608 
L 51.964134 48.202808 
L 51.924655 48.364007 
L 51.885176 48.525206 
L 51.845696 48.686405 
L 51.806217 48.847604 
L 51.766738 49.008804 
L 51.727259 49.170003 
L 51.68778 49.331202 
L 51.610934 49.627968 
L 51.534087 49.924734 
L 51.457241 50.221499 
L 51.380395 50.518265 
L 51.303549 50.682688 
L 51.226703 50.847111 
L 51.149857 51.011535 
L 51.073011 51.175958 
L 50.99194 51.314748 
L 50.91087 51.453539 
L 50.829799 51.592329 
L 50.748728 51.73112 
L 50.646876 51.847343 
L 50.545023 51.963565 
L 50.443171 52.079788 
L 50.341318 52.196011 
" style="fill:none;stroke:#000000;stroke-linecap:square;stroke-width:0.4;"/>
   </g>
   <g id="line2d_22">
    <path clip-path="url(#p778697e4e5)" d="M 55.418637 50.936826 
L 55.341791 51.197292 
L 55.264945 51.457758 
L 55.141169 51.598738 
L 55.017393 51.739717 
L 54.842349 51.854985 
L 54.667304 51.970252 
L 54.461344 51.964919 
L 54.255385 51.959585 
L 54.049425 51.954252 
L 53.843465 51.948918 
L 53.637505 51.943585 
L 53.431545 51.938251 
L 53.225585 51.932918 
L 53.019625 51.927584 
L 52.754946 51.951067 
L 52.490267 51.974551 
L 52.225588 51.998034 
L 51.960908 52.021517 
L 51.781639 52.059927 
L 51.60237 52.098336 
L 51.4231 52.136745 
L 51.243831 52.175154 
L 51.018203 52.180368 
L 50.792575 52.185582 
L 50.566947 52.190796 
L 50.341318 52.196011 
" style="fill:none;stroke:#008000;stroke-linecap:square;stroke-width:0.4;"/>
   </g>
   <g id="line2d_23">
    <path clip-path="url(#p778697e4e5)" d="M 53.796535 30.097628 
L 53.506279 30.003695 
L 53.348362 30.003695 
L 53.190445 30.003695 
L 52.900188 30.003695 
L 52.703791 30.084812 
L 52.507394 30.165929 
L 52.33235 30.289794 
L 52.157305 30.413658 
L 51.960908 30.51189 
L 51.764511 30.610123 
L 51.51696 30.748873 
L 51.269408 30.887624 
" style="fill:none;stroke:#008000;stroke-linecap:square;stroke-width:0.4;"/>
   </g>
   <g id="line2d_24">
    <path clip-path="url(#p778697e4e5)" d="M 51.269408 30.887624 
L 51.085914 30.990155 
L 50.90242 31.092685 
L 50.770708 31.192111 
L 50.638997 31.291537 
L 50.507285 31.390964 
L 50.375574 31.49039 
L 50.146748 31.613617 
L 49.972789 31.689401 
L 49.798829 31.765185 
L 49.624869 31.840968 
L 49.450909 31.916752 
L 49.299387 32.038467 
L 49.147864 32.160182 
L 48.996342 32.281898 
L 48.844819 32.403613 
L 48.693297 32.525328 
L 48.541774 32.647044 
L 48.390251 32.768759 
L 48.238729 32.890474 
L 48.032455 33.108272 
L 47.826181 33.326071 
L 47.619907 33.543869 
L 47.413633 33.761667 
" style="fill:none;stroke:#008000;stroke-linecap:square;stroke-width:0.4;"/>
   </g>
   <g id="line2d_25">
    <path clip-path="url(#p778697e4e5)" d="M 51.080091 20.011254 
L 51.110692 20.165508 
L 51.141294 20.319762 
L 51.171895 20.474016 
L 51.202496 20.628269 
L 51.233098 20.782523 
L 51.263699 20.936777 
L 51.2943 21.09103 
L 51.324902 21.245284 
L 51.343057 21.460933 
L 51.361212 21.676582 
L 51.379368 21.89223 
L 51.397523 22.107879 
L 51.365551 22.34916 
L 51.33358 22.590442 
L 51.313027 22.767661 
L 51.292474 22.944881 
L 51.27192 23.122101 
L 51.251367 23.29932 
L 51.230814 23.47654 
L 51.210261 23.65376 
L 51.189708 23.830979 
L 51.169155 24.008199 
L 51.148601 24.185418 
L 51.128048 24.362638 
L 51.107495 24.539858 
L 51.086942 24.717077 
L 51.066389 24.894297 
L 51.045835 25.071517 
L 51.025282 25.248736 
L 51.004729 25.425956 
L 51.001004 25.611713 
L 50.997279 25.79747 
L 50.993553 25.983227 
L 50.989828 26.168985 
L 50.986103 26.354742 
L 50.982378 26.540499 
L 50.978652 26.726256 
L 50.974927 26.912014 
L 50.971202 27.097771 
L 50.967477 27.283528 
L 50.963751 27.469285 
L 50.960026 27.655042 
L 50.956301 27.8408 
L 50.952575 28.026557 
L 50.94885 28.212314 
L 50.945125 28.398071 
L 50.95396 28.616029 
L 50.962795 28.833986 
L 50.97163 29.051943 
L 50.980465 29.2699 
L 50.9893 29.487858 
L 50.998135 29.705815 
L 51.00697 29.923772 
L 51.015805 30.141729 
L 51.02464 30.359687 
L 51.033475 30.577644 
L 51.04231 30.795601 
L 51.051145 31.013558 
L 51.05998 31.231516 
L 51.068815 31.449473 
L 51.07765 31.66743 
L 51.086485 31.885387 
L 51.080548 32.061194 
L 51.07461 32.237001 
L 51.068672 32.412807 
L 51.062735 32.588614 
L 51.056797 32.764421 
L 51.05086 32.940227 
L 51.044922 33.116034 
L 51.038984 33.291841 
" style="fill:none;stroke:#4169e1;stroke-linecap:square;stroke-width:0.4;"/>
   </g>
   <g id="line2d_26">
    <path clip-path="url(#p778697e4e5)" d="M 51.080091 20.011254 
L 51.035673 20.243978 
L 50.991255 20.476702 
L 50.946838 20.709426 
L 50.90242 20.94215 
L 50.881068 21.241065 
L 50.859715 21.53998 
L 50.812785 21.843114 
L 50.765856 22.146248 
L 50.663375 22.334155 
L 50.560895 22.522061 
L 50.458414 22.709968 
L 50.355934 22.897875 
L 50.270524 23.119971 
L 50.185114 23.342068 
L 50.174438 23.540641 
L 50.163762 23.739215 
L 50.153086 23.937789 
L 50.142409 24.136362 
L 50.00162 24.401047 
L 49.860831 24.665732 
L 49.707139 24.896347 
L 49.553447 25.126961 
L 49.399755 25.357576 
L 49.246063 25.58819 
L 49.182005 25.793172 
L 49.117948 25.998153 
L 49.053891 26.203135 
L 48.989833 26.408117 
L 48.872452 26.512717 
L 48.75507 26.617318 
L 48.637689 26.721918 
L 48.520307 26.826518 
L 48.370954 27.091283 
L 48.221601 27.356048 
L 48.208813 27.586662 
L 48.196024 27.817276 
L 48.242954 28.035075 
L 48.289883 28.252873 
L 48.336813 28.470671 
L 48.383743 28.688469 
L 48.531041 28.846484 
L 48.678338 29.004499 
L 48.825636 29.162514 
L 48.972934 29.320529 
L 49.104303 29.479579 
L 49.235672 29.638629 
L 49.367041 29.797678 
L 49.49841 29.956728 
L 49.629779 30.115778 
L 49.761148 30.274828 
L 49.892517 30.433878 
L 50.023886 30.592928 
L 50.111808 30.817293 
L 50.19973 31.041659 
L 50.287652 31.266024 
L 50.375574 31.49039 
L 50.462753 31.712924 
L 50.549933 31.935459 
L 50.637113 32.157993 
L 50.724293 32.380528 
L 50.802965 32.608356 
L 50.881638 32.836184 
L 50.960311 33.064012 
L 51.038984 33.291841 
L 51.081661 33.525639 
L 51.124337 33.759438 
L 51.167014 33.993236 
L 51.20969 34.227035 
L 51.252366 34.460833 
L 51.295043 34.694632 
L 51.337719 34.928431 
L 51.380395 35.162229 
L 51.431607 35.399252 
L 51.482819 35.636274 
L 51.53403 35.873297 
L 51.585242 36.110319 
" style="fill:none;stroke:#4169e1;stroke-linecap:square;stroke-width:0.4;"/>
   </g>
   <g id="line2d_27">
    <path clip-path="url(#p778697e4e5)" d="M 62.303493 23.166938 
L 62.171268 23.288574 
L 62.045436 23.4766 
L 61.984005 23.637082 
L 61.922574 23.797565 
L 61.750841 23.992119 
L 61.604114 24.158253 
L 61.457387 24.324388 
L 61.264188 24.475318 
L 61.070988 24.626249 
L 60.842277 24.704341 
L 60.613565 24.782433 
L 60.329247 24.879471 
L 60.044928 24.976509 
L 59.860806 25.005206 
L 59.676683 25.033903 
L 59.492561 25.062601 
L 59.308439 25.091298 
L 59.124317 25.119996 
L 58.940195 25.148693 
L 58.756073 25.177391 
L 58.57195 25.206088 
L 58.415946 25.230507 
L 58.259942 25.254925 
L 58.103938 25.279344 
L 57.947933 25.303763 
L 57.791929 25.328182 
L 57.635925 25.3526 
L 57.47992 25.377019 
L 57.323916 25.401438 
L 57.167912 25.425856 
L 57.011908 25.450275 
L 56.855903 25.474694 
L 56.699899 25.499112 
L 56.543895 25.523531 
L 56.38789 25.54795 
L 56.231886 25.572368 
L 56.075882 25.596787 
L 55.920077 25.641624 
L 55.764273 25.686462 
L 55.608468 25.731299 
L 55.452664 25.776136 
L 55.296859 25.820973 
L 55.141055 25.865811 
L 54.985251 25.910648 
L 54.829446 25.955485 
L 54.633106 26.057976 
L 54.436766 26.160467 
L 54.240426 26.262958 
L 54.044087 26.365449 
L 53.822112 26.544798 
L 53.600138 26.724147 
L 53.574504 26.907755 
L 53.548869 27.091363 
L 53.523235 27.27497 
L 53.497601 27.458578 
L 53.536024 27.66356 
L 53.574447 27.868542 
L 53.61287 28.073524 
L 53.651293 28.278505 
L 53.719632 28.513378 
L 53.787971 28.748252 
L 53.85631 28.983125 
L 53.92465 29.217998 
L 53.892621 29.437906 
L 53.860592 29.657813 
L 53.828564 29.877721 
L 53.796535 30.097628 
L 53.718633 30.307944 
L 53.640731 30.518259 
L 53.562828 30.728574 
L 53.484926 30.938889 
L 53.407024 31.149205 
L 53.329122 31.35952 
L 53.251219 31.569835 
L 53.173317 31.78015 
L 53.074062 32.050786 
L 52.974808 32.321421 
L 52.875553 32.592057 
L 52.776298 32.862692 
L 52.677044 33.133328 
L 52.577789 33.403964 
L 52.478534 33.674599 
L 52.37928 33.945235 
L 52.280025 34.21587 
L 52.18077 34.486506 
L 52.081516 34.757141 
L 51.982261 35.027777 
L 51.883006 35.298413 
L 51.783751 35.569048 
L 51.684497 35.839684 
L 51.585242 36.110319 
L 51.579918 36.333978 
L 51.574594 36.557637 
L 51.569271 36.781296 
L 51.563947 37.004955 
L 51.558623 37.228614 
L 51.553299 37.452273 
L 51.547975 37.675932 
L 51.542651 37.899591 
L 51.537327 38.12325 
L 51.532004 38.346909 
L 51.52668 38.570568 
L 51.521356 38.794226 
L 51.516032 39.017885 
L 51.510708 39.241544 
L 51.505384 39.465203 
L 51.500061 39.688862 
L 51.521784 39.916253 
L 51.543508 40.143643 
L 51.565231 40.371033 
L 51.586955 40.598424 
L 51.608678 40.825814 
L 51.630402 41.053205 
L 51.652126 41.280595 
L 51.673849 41.507985 
" style="fill:none;stroke:#4169e1;stroke-linecap:square;stroke-width:0.4;"/>
   </g>
   <g id="line2d_28">
    <path clip-path="url(#p778697e4e5)" d="M 51.673849 41.507985 
L 51.609478 41.774183 
L 51.545106 42.040381 
L 51.480735 42.306578 
L 51.416363 42.572776 
L 51.351992 42.838973 
L 51.287621 43.105171 
L 51.223249 43.371369 
L 51.158878 43.637566 
L 51.053257 43.851941 
L 50.947637 44.066316 
L 50.842017 44.280691 
L 50.736396 44.495066 
L 50.615646 44.603766 
L 50.494896 44.712466 
L 50.374146 44.821166 
L 50.253397 44.929867 
L 49.957602 45.008396 
L 49.661808 45.086926 
L 49.366013 45.165456 
L 49.070219 45.243986 
L 48.908705 45.246991 
L 48.747192 45.249996 
L 48.585678 45.253001 
L 48.424164 45.256006 
L 48.262651 45.259011 
L 48.101137 45.262016 
L 47.939623 45.265022 
L 47.778109 45.268027 
L 47.529987 45.297281 
L 47.281865 45.326536 
L 47.033742 45.355791 
L 46.78562 45.385045 
L 46.5508 45.479616 
L 46.31598 45.574186 
L 46.08116 45.668756 
L 45.84634 45.763326 
L 45.686367 45.878076 
L 45.526395 45.992826 
L 45.366423 46.107576 
L 45.206451 46.222326 
L 45.049448 46.451746 
L 44.892444 46.681167 
L 44.823762 46.872914 
L 44.75508 47.064662 
L 44.686399 47.256409 
L 44.617717 47.448156 
L 44.549035 47.639904 
L 44.480353 47.831651 
L 44.411671 48.023399 
L 44.342989 48.215146 
L 44.23577 48.367828 
L 44.128551 48.520509 
L 44.021332 48.673191 
L 43.914113 48.825872 
L 43.813973 48.979111 
L 43.713834 49.13235 
" style="fill:none;stroke:#4169e1;stroke-linecap:square;stroke-width:0.4;"/>
   </g>
   <g id="line2d_29">
    <path clip-path="url(#p778697e4e5)" d="M 46.022412 35.320642 
L 46.041595 35.133731 
" style="fill:none;stroke:#008000;stroke-linecap:square;stroke-width:0.4;"/>
   </g>
   <g id="line2d_30">
    <path clip-path="url(#p778697e4e5)" d="M 46.041595 35.133731 
L 46.288461 35.18428 
L 46.535328 35.234828 
L 46.812795 35.251864 
L 47.113785 35.266829 
L 47.414775 35.281795 
L 47.653877 35.345797 
L 47.824468 35.401361 
L 48.06357 35.503892 
L 48.227881 35.561525 
L 48.392193 35.619159 
L 48.528871 35.698206 
L 48.66555 35.777254 
L 48.88113 35.956603 
L 49.09671 36.135952 
L 49.31229 36.315301 
L 49.52787 36.49465 
L 49.779646 36.6697 
L 50.031422 36.844751 
L 50.138185 37.0241 
L 50.244947 37.203449 
L 50.361186 37.471557 
L 50.441344 37.65608 
L 50.53703 37.900307 
L 50.73023 38.057287 
L 50.866109 38.138882 
L 51.001989 38.220477 
L 51.158878 38.274767 
L 51.315767 38.329057 
L 51.481791 38.359307 
L 51.647815 38.389557 
L 51.913408 38.395607 
L 52.070411 38.380482 
L 52.227415 38.365357 
L 52.432718 38.305017 
L 52.595659 38.217452 
L 52.7586 38.129887 
L 53.036296 38.051237 
L 53.217392 38.027197 
L 53.386385 38.099637 
L 53.501254 38.214427 
L 53.546471 38.386532 
L 53.591688 38.558637 
L 53.703361 38.803182 
L 53.815033 39.047727 
L 53.851343 39.234957 
L 53.784888 39.355797 
L 53.651978 39.452437 
L 53.386385 39.476477 
L 53.114855 39.530927 
L 52.878722 39.650334 
L 52.750664 39.752824 
L 52.622606 39.855315 
L 52.494549 39.957806 
L 52.366491 40.060297 
L 52.193616 40.228979 
L 52.020741 40.397661 
L 51.941725 40.61116 
L 51.86271 40.82466 
L 51.809386 41.042458 
L 51.756062 41.260256 
L 51.673849 41.507985 
" style="fill:none;stroke:#008000;stroke-linecap:square;stroke-width:0.4;"/>
   </g>
   <g id="line2d_31">
    <path clip-path="url(#p778697e4e5)" d="M 44.368795 45.00358 
L 44.417894 45.206094 
L 44.379528 45.419594 
L 44.341162 45.633093 
L 44.277105 45.872225 
L 44.213048 46.111357 
" style="fill:none;stroke:#008000;stroke-linecap:square;stroke-width:0.4;"/>
   </g>
   <g id="line2d_32">
    <path clip-path="url(#p778697e4e5)" d="M 44.213048 46.111357 
L 44.126667 46.247481 
L 44.040287 46.383605 
L 43.953906 46.519729 
L 43.867526 46.655852 
L 43.781146 46.791976 
L 43.694765 46.9281 
L 43.608385 47.064224 
L 43.522004 47.200347 
L 43.417868 47.481232 
L 43.313732 47.762117 
L 43.209596 48.043001 
L 43.10546 48.323886 
L 42.985452 48.503554 
L 42.865445 48.683221 
L 42.745437 48.862888 
L 42.625429 49.042556 
L 42.527117 49.19265 
L 42.428804 49.342745 
L 42.330491 49.492839 
L 42.232179 49.642933 
L 42.154305 49.844691 
L 42.076431 50.046449 
L 41.998557 50.248207 
L 41.920684 50.449964 
L 41.877294 50.611442 
L 41.833904 50.77292 
L 41.790514 50.934398 
L 41.747124 51.095876 
L 41.702991 51.280001 
L 41.658859 51.464126 
L 41.614727 51.648252 
L 41.570595 51.832377 
" style="fill:none;stroke:#008000;stroke-linecap:square;stroke-width:0.4;"/>
   </g>
   <g id="line2d_33">
    <path clip-path="url(#p778697e4e5)" d="M 44.678463 43.433938 
L 44.516093 43.685807 
L 44.484121 43.841672 
L 44.452149 43.997538 
L 44.420178 44.153404 
L 44.388206 44.309269 
L 44.383353 44.482847 
L 44.378501 44.656425 
L 44.373648 44.830003 
L 44.368795 45.00358 
" style="fill:none;stroke:#008000;stroke-linecap:square;stroke-width:0.4;"/>
   </g>
   <g id="line2d_34">
    <path clip-path="url(#p778697e4e5)" d="M 52.193388 41.634397 
L 51.974725 41.447327 
L 51.756062 41.260256 
L 51.600314 41.121505 
L 51.444567 40.982755 
L 51.346369 40.961421 
L 51.120055 41.03402 
L 50.872504 41.115057 
L 50.622783 41.159875 
L 50.373062 41.204692 
L 50.185228 41.262405 
L 49.997395 41.320119 
L 49.77976 41.349891 
L 49.598321 41.324338 
L 49.416882 41.298785 
L 49.187429 41.271003 
L 48.957976 41.243221 
L 48.728522 41.215439 
L 48.499069 41.187657 
L 48.285544 41.106619 
L 48.14898 41.021204 
L 48.012416 40.935788 
L 47.863063 40.871627 
L 47.747736 40.867487 
L 47.63241 40.918593 
L 47.448802 41.132093 
L 47.322914 41.322149 
L 47.197026 41.512204 
L 47.071137 41.70226 
L 46.945249 41.892316 
L 46.797952 42.046032 
L 46.650654 42.199749 
L 46.447863 42.379098 
L 46.245071 42.558447 
L 46.134084 42.680162 
L 46.023097 42.801878 
L 45.933348 42.86588 
L 45.673008 42.964112 
L 45.436076 43.062344 
L 45.199143 43.160576 
L 44.938803 43.297257 
L 44.678463 43.433938 
" style="fill:none;stroke:#008000;stroke-linecap:square;stroke-width:0.4;"/>
   </g>
   <g id="line2d_35">
    <path clip-path="url(#p778697e4e5)" d="M 39.346285 19.690926 
L 39.202527 19.881021 
L 39.058769 20.071117 
L 38.915011 20.261213 
L 38.771253 20.451308 
" style="fill:none;stroke:#4169e1;stroke-linecap:square;stroke-width:0.4;"/>
   </g>
   <g id="line2d_36">
    <path clip-path="url(#p778697e4e5)" d="M 39.74867 17.847125 
L 39.980807 18.032365 
L 40.212944 18.217605 
L 40.434918 18.354286 
L 40.656892 18.490967 
L 40.921571 18.593418 
L 41.18625 18.695869 
L 41.378366 18.804768 
L 41.570481 18.913667 
L 41.762596 19.022566 
L 41.954711 19.131465 
L 42.072891 19.235548 
L 42.191072 19.339631 
L 42.309253 19.443714 
L 42.427434 19.547797 
L 42.545614 19.65188 
L 42.663795 19.755963 
L 42.781976 19.860046 
L 42.900157 19.964128 
" style="fill:none;stroke:#ff0000;stroke-linecap:square;stroke-width:0.4;"/>
   </g>
   <g id="line2d_37">
    <path clip-path="url(#p778697e4e5)" d="M 42.948571 21.220129 
L 42.782547 21.458704 
L 42.616523 21.697279 
L 42.450499 21.935854 
L 42.284475 22.174428 
L 42.082197 22.364643 
L 41.87992 22.554859 
L 41.677643 22.745074 
L 41.475365 22.935289 
L 41.308228 23.062716 
L 41.141091 23.190143 
L 40.973953 23.31757 
L 40.806816 23.444997 
L 40.639679 23.572424 
L 40.472542 23.699851 
L 40.305404 23.827278 
L 40.138267 23.954705 
" style="fill:none;stroke:#008000;stroke-linecap:square;stroke-width:0.4;"/>
   </g>
   <g id="line2d_38">
    <path clip-path="url(#p778697e4e5)" d="M 44.588714 19.259628 
L 44.398711 19.402678 
L 44.208709 19.545727 
L 44.084933 19.674885 
L 43.961157 19.804044 
L 43.837381 19.933202 
L 43.713606 20.06236 
L 43.602618 20.206485 
L 43.491631 20.350609 
L 43.380644 20.494733 
L 43.269657 20.638857 
L 43.189385 20.784175 
L 43.109114 20.929493 
L 43.028842 21.074811 
L 42.948571 21.220129 
" style="fill:none;stroke:#4169e1;stroke-linecap:square;stroke-width:0.4;"/>
   </g>
   <g id="line2d_39">
    <path clip-path="url(#p778697e4e5)" d="M 42.193813 13.691131 
L 42.262494 13.907576 
L 42.331176 14.12402 
L 42.399858 14.340465 
L 42.46854 14.55691 
L 42.537222 14.773355 
L 42.605904 14.989799 
L 42.674586 15.206244 
L 42.743267 15.422689 
L 42.762879 15.665761 
L 42.78249 15.908834 
L 42.802101 16.151906 
L 42.821712 16.394979 
L 42.841323 16.638051 
L 42.860934 16.881124 
L 42.880545 17.124196 
L 42.900157 17.367269 
L 42.900157 17.529573 
L 42.900157 17.691876 
L 42.900157 17.85418 
L 42.900157 18.016484 
L 42.900157 18.178787 
L 42.900157 18.341091 
L 42.900157 18.503395 
L 42.900157 18.665699 
L 42.900157 18.828002 
L 42.900157 18.990306 
L 42.900157 19.15261 
L 42.900157 19.314914 
L 42.900157 19.477217 
L 42.900157 19.639521 
L 42.900157 19.801825 
L 42.900157 19.964128 
L 42.906208 20.121129 
L 42.91226 20.278129 
L 42.918312 20.435129 
L 42.924364 20.592129 
L 42.930415 20.749129 
L 42.936467 20.906129 
L 42.942519 21.063129 
L 42.948571 21.220129 
L 42.921395 21.449629 
L 42.894219 21.679129 
L 42.867043 21.908629 
L 42.839867 22.138129 
L 42.812691 22.367629 
L 42.785516 22.597129 
L 42.75834 22.826628 
L 42.731164 23.056128 
L 42.780977 23.214661 
L 42.83079 23.373193 
L 42.880603 23.531726 
L 42.930415 23.690258 
L 42.980228 23.848791 
L 43.030041 24.007323 
L 43.079854 24.165856 
L 43.129667 24.324388 
L 43.144754 24.479139 
L 43.15984 24.633891 
L 43.174927 24.788642 
L 43.190013 24.943393 
L 43.2051 25.098144 
L 43.220187 25.252896 
L 43.235273 25.407647 
L 43.25036 25.562398 
L 43.265446 25.717149 
L 43.280533 25.871901 
L 43.29562 26.026652 
L 43.310706 26.181403 
L 43.325793 26.336154 
L 43.340879 26.490905 
L 43.355966 26.645657 
L 43.371053 26.800408 
L 43.377104 27.093293 
L 43.383156 27.386178 
L 43.389208 27.679063 
L 43.39526 27.971948 
L 43.401311 28.264833 
L 43.407363 28.557718 
L 43.413415 28.850603 
L 43.419467 29.143488 
L 43.399841 29.307304 
L 43.380216 29.471121 
L 43.36059 29.634937 
L 43.340965 29.798753 
L 43.32134 29.962569 
L 43.301714 30.126386 
L 43.282089 30.290202 
L 43.262463 30.454018 
L 43.242838 30.617834 
L 43.223213 30.78165 
L 43.203587 30.945467 
L 43.183962 31.109283 
L 43.164336 31.273099 
L 43.144711 31.436915 
L 43.125085 31.600731 
L 43.10546 31.764548 
L 43.060528 32.032915 
L 43.015597 32.301281 
L 42.970665 32.569648 
L 42.925734 32.838015 
L 42.880802 33.106382 
L 42.835871 33.374749 
L 42.790939 33.643116 
L 42.746008 33.911482 
" style="fill:none;stroke:#ff0000;stroke-linecap:square;stroke-width:0.4;"/>
   </g>
   <g id="line2d_40">
    <path clip-path="url(#p778697e4e5)" d="M 38.771253 20.451308 
L 39.048606 20.524704 
L 39.32596 20.598099 
" style="fill:none;stroke:#008000;stroke-linecap:square;stroke-width:0.4;"/>
   </g>
   <g id="line2d_41">
    <path clip-path="url(#p778697e4e5)" d="M 39.607995 14.267308 
L 39.64933 14.42003 
L 39.690665 14.572751 
L 39.731999 14.725472 
L 39.773334 14.878194 
L 39.797341 15.044746 
L 39.821349 15.211299 
L 39.845356 15.377852 
L 39.869363 15.544404 
L 39.89337 15.710957 
L 39.917378 15.87751 
L 39.941385 16.044062 
L 39.965392 16.210615 
L 39.950434 16.378222 
L 39.935476 16.54583 
L 39.920518 16.713437 
L 39.905559 16.881044 
L 39.866337 17.122564 
L 39.827115 17.364085 
L 39.787893 17.605605 
L 39.74867 17.847125 
L 39.703339 18.126298 
L 39.658008 18.405471 
L 39.619043 18.566153 
L 39.580077 18.726835 
L 39.541112 18.887517 
L 39.502146 19.048199 
L 39.463181 19.20888 
L 39.424216 19.369562 
L 39.38525 19.530244 
L 39.346285 19.690926 
L 39.341204 19.917719 
L 39.336122 20.144512 
L 39.331041 20.371306 
L 39.32596 20.598099 
" style="fill:none;stroke:#ff0000;stroke-linecap:square;stroke-width:0.4;"/>
   </g>
   <g id="line2d_42">
    <path clip-path="url(#p778697e4e5)" d="M 44.721168 13.400733 
L 44.727476 13.674613 
L 44.733785 13.948492 
L 44.740094 14.222372 
L 44.746402 14.496251 
L 44.752711 14.770131 
L 44.75902 15.04401 
L 44.765328 15.31789 
L 44.771637 15.591769 
L 44.800326 15.869569 
L 44.829015 16.147369 
L 44.857704 16.425169 
L 44.886392 16.702969 
L 44.915081 16.980769 
L 44.94377 17.258569 
L 44.972459 17.536369 
L 45.001148 17.814169 
L 44.983449 18.082635 
L 44.96575 18.351101 
L 44.948052 18.619568 
L 44.930353 18.888034 
L 44.947424 19.154948 
L 44.964494 19.421862 
L 44.981565 19.688776 
L 44.998635 19.95569 
L 45.077765 20.24768 
L 45.156895 20.539669 
L 45.236025 20.831659 
L 45.315154 21.123648 
L 45.333253 21.418046 
L 45.351351 21.712443 
L 45.369449 22.006841 
L 45.387547 22.301238 
L 45.405645 22.595636 
L 45.423744 22.890033 
L 45.441842 23.184431 
L 45.45994 23.478829 
L 45.541468 23.747573 
L 45.622995 24.016318 
L 45.704523 24.285063 
L 45.78605 24.553808 
L 45.89464 24.813478 
L 46.003229 25.073148 
L 46.14476 25.267264 
L 46.286292 25.46138 
L 46.427823 25.655496 
L 46.569355 25.849611 
" style="fill:none;stroke:#ff0000;stroke-linecap:square;stroke-width:0.4;"/>
   </g>
   <g id="line2d_43">
    <path clip-path="url(#p778697e4e5)" d="M 39.417536 12.673466 
L 38.86123 12.16145 
L 38.475515 12.183739 
L 36.808425 12.457419 
L 36.506522 12.493719 
L 36.823611 12.702044 
L 37.659669 12.889195 
L 38.402437 13.085499 
L 38.601575 13.13979 
L 39.22936 13.985349 
L 40.255877 14.619479 
L 40.741388 14.688655 
L 41.194928 14.570761 
L 41.591947 14.105313 
L 42.193813 13.691131 
L 43.555689 13.27265 
L 44.962782 13.42959 
L 46.993435 13.75577 
L 48.33059 14.374814 
L 49.136446 14.91529 
L 50.754437 16.304389 
L 51.128733 17.017009 
L 51.122567 17.167939 
L 50.718127 16.914319 
L 47.743512 16.837262 
L 46.697469 17.095499 
L 46.360397 17.858907 
L 45.698585 18.674535 
L 45.293117 18.83255 
L 44.930353 18.888034 
L 44.635758 19.127166 
L 44.588714 19.259628 
L 44.588714 19.259628 
" style="fill:none;stroke:#000000;stroke-linecap:square;stroke-width:0.4;"/>
   </g>
   <g id="line2d_44">
    <path clip-path="url(#p778697e4e5)" d="M 40.84758 8.16355 
L 40.741902 8.329645 
L 40.636225 8.49574 
L 40.530547 8.661835 
L 40.42487 8.82793 
L 40.261814 9.0755 
L 40.098759 9.32307 
L 40.017289 9.477065 
L 39.935818 9.63106 
L 39.854348 9.785055 
L 39.772877 9.93905 
L 39.658179 10.18666 
L 39.543481 10.43427 
L 39.428783 10.68188 
L 39.314085 10.92949 
L 39.241635 11.137855 
L 39.169185 11.34622 
L 39.096735 11.554584 
L 39.024285 11.762949 
L 38.942758 11.9622 
L 38.86123 12.16145 
" style="fill:none;stroke:#ff0000;stroke-linecap:square;stroke-width:0.4;"/>
   </g>
   <g id="line2d_45">
    <path clip-path="url(#p778697e4e5)" d="M 38.86123 12.16145 
L 38.796316 12.406035 
L 38.731402 12.65062 
L 38.666489 12.895205 
L 38.601575 13.13979 
L 38.503491 13.42362 
L 38.405406 13.70745 
L 38.307322 13.99128 
L 38.209238 14.27511 
L 38.10807 14.51671 
L 38.006903 14.758309 
L 37.905736 14.999909 
L 37.804569 15.241509 
L 37.712536 15.507229 
L 37.620503 15.772949 
L 37.528471 16.038669 
L 37.436438 16.304389 
L 37.335271 16.518764 
L 37.234104 16.733139 
L 37.132937 16.947514 
L 37.031769 17.161889 
L 36.944247 17.392902 
L 36.856725 17.623914 
L 36.769202 17.854926 
L 36.68168 18.085939 
L 36.533697 18.312414 
L 36.385715 18.538889 
L 36.347977 18.742676 
L 36.310239 18.946464 
L 36.272501 19.150252 
L 36.234763 19.354039 
L 36.160829 19.539757 
L 36.086894 19.725474 
L 36.01296 19.911191 
L 35.939026 20.096909 
L 35.865091 20.269014 
L 35.791157 20.441119 
L 35.717223 20.613224 
L 35.643288 20.785329 
L 35.602524 21.035964 
L 35.561761 21.286599 
L 35.520997 21.537234 
L 35.480233 21.787869 
L 35.457596 21.94262 
L 35.434959 22.097371 
L 35.412322 22.252122 
L 35.389685 22.406874 
L 35.367048 22.561625 
L 35.344411 22.716376 
L 35.321774 22.871127 
L 35.299137 23.025879 
L 35.260628 23.18668 
L 35.22212 23.347481 
L 35.183611 23.508282 
L 35.145102 23.669083 
L 35.106594 23.829885 
L 35.068085 23.990686 
L 35.029576 24.151487 
L 34.991068 24.312288 
L 34.923157 24.458741 
L 34.855245 24.605193 
L 34.787334 24.751646 
L 34.719423 24.898098 
L 34.651512 25.044551 
L 34.583601 25.191003 
L 34.51569 25.337455 
L 34.447779 25.483908 
L 34.317951 25.707358 
L 34.188124 25.930808 
L 34.058296 26.154258 
L 33.928469 26.377708 
L 33.804693 26.649438 
L 33.680917 26.921168 
L 33.557141 27.192898 
L 33.433366 27.464628 
" style="fill:none;stroke:#ff0000;stroke-linecap:square;stroke-width:0.4;"/>
   </g>
   <g id="line2d_46">
    <path clip-path="url(#p778697e4e5)" d="M 38.771253 20.451308 
L 38.653186 20.548903 
L 38.519533 20.659355 
L 38.385881 20.769806 
L 38.252228 20.880257 
L 38.118575 20.990709 
L 37.991774 21.208109 
L 37.864972 21.425509 
L 37.73817 21.642909 
L 37.611369 21.860309 
L 37.558558 22.091301 
L 37.505748 22.322294 
L 37.452938 22.553286 
L 37.400128 22.784279 
L 37.347318 23.015271 
L 37.294507 23.246264 
L 37.241697 23.477256 
L 37.188887 23.708249 
L 37.169247 24.001154 
L 37.149607 24.294059 
L 37.129968 24.586964 
L 37.110328 24.879869 
L 37.090688 25.172774 
L 37.071049 25.465678 
L 37.051409 25.758583 
L 37.031769 26.051488 
L 37.062285 26.331995 
L 37.092801 26.612501 
L 37.123316 26.893008 
L 37.153832 27.173514 
L 37.184348 27.454021 
L 37.214864 27.734528 
L 37.24538 28.015034 
L 37.275895 28.295541 
L 37.338982 28.449854 
L 37.402069 28.604167 
L 37.465156 28.758481 
L 37.528243 28.912794 
L 37.591329 29.067108 
L 37.654416 29.221421 
L 37.717503 29.375735 
L 37.78059 29.530048 
" style="fill:none;stroke:#000000;stroke-linecap:square;stroke-width:0.4;"/>
   </g>
   <g id="line2d_47">
    <path clip-path="url(#p778697e4e5)" d="M 37.531211 34.92039 
L 37.723041 34.910997 
L 37.898656 34.882578 
L 38.074272 34.854159 
" style="fill:none;stroke:#008000;stroke-linecap:square;stroke-width:0.4;"/>
   </g>
   <g id="line2d_48">
    <path clip-path="url(#p778697e4e5)" d="M 40.138267 23.954705 
L 40.009025 24.182383 
L 39.879782 24.410062 
L 39.75054 24.637741 
L 39.621298 24.86542 
L 39.492055 25.093099 
L 39.362813 25.320778 
L 39.233571 25.548457 
L 39.104328 25.776136 
L 38.975086 26.003815 
L 38.845844 26.231494 
L 38.716601 26.459173 
L 38.587359 26.686852 
L 38.458117 26.914531 
L 38.328874 27.14221 
L 38.199632 27.369889 
L 38.07039 27.597568 
L 38.034165 27.839128 
L 37.99794 28.080688 
L 37.961715 28.322248 
L 37.92549 28.563808 
L 37.889265 28.805368 
L 37.85304 29.046928 
L 37.816815 29.288488 
L 37.78059 29.530048 
L 37.783587 29.822953 
L 37.786584 30.115858 
L 37.789582 30.408763 
L 37.792579 30.701668 
L 37.795577 30.994573 
L 37.798574 31.287478 
L 37.801571 31.580383 
L 37.804569 31.873287 
L 37.798916 32.061592 
L 37.793264 32.249897 
L 37.787612 32.438201 
L 37.78196 32.626506 
L 37.775737 32.832045 
L 37.769514 33.037584 
L 37.763291 33.243123 
L 37.757068 33.448662 
L 37.750845 33.6542 
L 37.744622 33.859739 
L 37.738399 34.065278 
L 37.732176 34.270817 
L 37.729892 34.430862 
L 37.727608 34.590907 
L 37.725325 34.750952 
L 37.723041 34.910997 
" style="fill:none;stroke:#4169e1;stroke-linecap:square;stroke-width:0.4;"/>
   </g>
   <g id="line2d_49">
    <path clip-path="url(#p778697e4e5)" d="M 39.32596 20.598099 
L 39.350966 20.832614 
L 39.375973 21.067129 
L 39.40429 21.334043 
L 39.432608 21.600957 
L 39.460926 21.867871 
L 39.489244 22.134785 
L 39.570371 22.362275 
L 39.651499 22.589765 
L 39.732627 22.817255 
L 39.813755 23.044745 
L 39.894883 23.272235 
L 39.976011 23.499725 
L 40.057139 23.727215 
L 40.138267 23.954705 
L 40.196173 24.217101 
L 40.254078 24.479498 
L 40.311984 24.741894 
L 40.36989 25.004291 
L 40.427796 25.266687 
L 40.485701 25.529084 
L 40.543607 25.79148 
L 40.601513 26.053877 
L 40.659418 26.316273 
L 40.717324 26.57867 
L 40.77523 26.841066 
L 40.833136 27.103462 
L 40.891041 27.365859 
L 40.948947 27.628255 
L 41.006853 27.890652 
L 41.064758 28.153048 
L 41.141861 28.420679 
L 41.218964 28.688309 
L 41.296067 28.95594 
L 41.37317 29.22357 
L 41.450273 29.491201 
L 41.527376 29.758831 
L 41.604479 30.026462 
L 41.681582 30.294092 
L 41.745611 30.526816 
L 41.80964 30.75954 
L 41.873668 30.992264 
L 41.937697 31.224988 
L 42.001726 31.457712 
L 42.065755 31.690436 
L 42.129784 31.92316 
L 42.193813 32.155884 
L 42.262837 32.375333 
L 42.331861 32.594783 
L 42.400886 32.814233 
L 42.46991 33.033683 
L 42.538935 33.253133 
L 42.607959 33.472583 
L 42.676983 33.692033 
L 42.746008 33.911482 
L 42.761965 34.16954 
L 42.777922 34.427598 
L 42.79388 34.685657 
L 42.809837 34.943715 
L 42.825794 35.201773 
L 42.841751 35.459831 
L 42.857709 35.717889 
L 42.873666 35.975947 
" style="fill:none;stroke:#000000;stroke-linecap:square;stroke-width:0.4;"/>
   </g>
   <g id="line2d_50">
    <path clip-path="url(#p778697e4e5)" d="M 41.064758 28.153048 
L 41.007409 28.418788 
L 40.95006 28.684528 
L 40.892711 28.950268 
L 40.835362 29.216008 
L 40.778013 29.481748 
L 40.720664 29.747488 
L 40.663315 30.013228 
L 40.605966 30.278968 
L 40.497291 30.514488 
L 40.388616 30.750008 
L 40.279941 30.985528 
L 40.171266 31.221048 
L 40.062591 31.456568 
L 39.953916 31.692088 
L 39.845242 31.927608 
L 39.736567 32.163128 
L 39.627892 32.398648 
L 39.519217 32.634168 
L 39.410542 32.869688 
L 39.301867 33.105208 
L 39.193192 33.340728 
L 39.084517 33.576248 
L 38.975842 33.811768 
L 38.867168 34.047288 
L 38.793205 34.203551 
L 38.719242 34.359815 
L 38.645279 34.516079 
L 38.571316 34.672343 
L 38.497353 34.828606 
L 38.42339 34.98487 
L 38.349427 35.141134 
L 38.275465 35.297398 
L 38.162879 35.477861 
L 38.050293 35.658325 
" style="fill:none;stroke:#000000;stroke-linecap:square;stroke-width:0.4;"/>
   </g>
   <g id="line2d_51">
    <path clip-path="url(#p778697e4e5)" d="M 17.680501 14.292304 
L 17.658349 14.021569 
L 17.636197 13.750834 
L 17.806789 13.631268 
L 17.966932 13.654751 
L 18.127076 13.678235 
L 18.287219 13.701718 
L 18.447363 13.725202 
L 18.735564 13.791393 
L 19.023765 13.857584 
L 19.311966 13.923775 
L 19.600167 13.989966 
" style="fill:none;stroke:#ff0000;stroke-linecap:square;stroke-width:0.4;"/>
   </g>
   <g id="line2d_52">
    <path clip-path="url(#p778697e4e5)" d="M 18.276543 12.119578 
L 21.879799 17.39931 
L 23.253008 20.534256 
L 25.63986 24.296845 
L 29.919822 29.879303 
L 32.410531 33.027573 
L 33.02961 34.743708 
L 33.864583 35.596512 
L 34.013193 35.722804 
L 34.013193 35.722804 
" style="fill:none;stroke:#ff0000;stroke-linecap:square;stroke-width:0.4;"/>
   </g>
   <g id="line2d_53">
    <path clip-path="url(#p778697e4e5)" d="M 29.373429 35.24852 
L 29.568484 35.232739 
L 29.76354 35.216957 
L 29.958595 35.201176 
L 30.15365 35.185394 
L 30.348705 35.169612 
L 30.543761 35.153831 
L 30.738816 35.138049 
L 30.933871 35.122268 
L 31.214594 35.125293 
L 31.495316 35.128318 
L 31.776038 35.131343 
L 32.05676 35.134367 
L 32.281189 35.233993 
L 32.505618 35.333618 
L 32.730047 35.433243 
L 32.954477 35.532868 
" style="fill:none;stroke:#4169e1;stroke-linecap:square;stroke-width:0.4;"/>
   </g>
   <g id="line2d_54">
    <path clip-path="url(#p778697e4e5)" d="M 32.954477 35.532868 
L 33.219156 35.580352 
L 33.483835 35.627836 
L 33.748514 35.67532 
L 34.013193 35.722804 
" style="fill:none;stroke:#008000;stroke-linecap:square;stroke-width:0.4;"/>
   </g>
   <g id="line2d_55">
    <path clip-path="url(#p778697e4e5)" d="M 32.954477 35.532868 
L 33.117989 35.42182 
L 33.2815 35.310771 
L 33.41875 35.217634 
L 33.620514 35.191046 
L 33.822277 35.164458 
L 34.017532 35.174966 
L 34.301851 35.272879 
L 34.58617 35.370793 
L 34.755277 35.379311 
L 34.924384 35.387828 
L 35.122608 35.396107 
L 35.320832 35.404386 
L 35.481718 35.386953 
L 35.642603 35.369519 
L 35.773458 35.459313 
" style="fill:none;stroke:#008000;stroke-linecap:square;stroke-width:0.4;"/>
   </g>
   <g id="line2d_56">
    <path clip-path="url(#p778697e4e5)" d="M 22.621255 19.197696 
L 22.861784 19.326695 
L 23.102314 19.455694 
L 23.342843 19.584693 
L 23.583372 19.713693 
L 23.823901 19.842692 
L 24.06443 19.971691 
L 24.30496 20.10069 
L 24.545489 20.229689 
L 24.77951 20.34434 
L 25.01353 20.45899 
L 25.247551 20.573641 
L 25.481572 20.688291 
L 25.715592 20.802942 
L 25.949613 20.917592 
L 26.183634 21.032242 
L 26.417654 21.146893 
L 26.665092 21.268051 
L 26.912529 21.389209 
L 27.166132 21.519064 
L 27.419736 21.648919 
L 27.673339 21.778774 
L 27.926942 21.908629 
L 28.180546 22.038484 
L 28.434149 22.168339 
L 28.687752 22.298194 
L 28.941356 22.428048 
L 29.086255 22.542798 
L 29.231155 22.657548 
L 29.376055 22.772298 
L 29.520955 22.887048 
L 29.564231 23.086179 
L 29.607507 23.28531 
L 29.650783 23.484441 
L 29.694058 23.683571 
L 29.7282 23.84087 
L 29.762341 23.998169 
L 29.798566 24.158214 
L 29.834791 24.318259 
L 29.871016 24.478303 
L 29.90724 24.638348 
L 29.943465 24.798393 
L 29.97969 24.958438 
L 30.015915 25.118483 
L 30.05214 25.278528 
L 30.184994 25.556308 
L 30.317847 25.834088 
L 30.450701 26.111868 
L 30.583554 26.389648 
L 30.800904 26.516498 
L 31.018254 26.643348 
L 31.235603 26.770198 
L 31.452953 26.897048 
L 31.646667 26.952572 
L 31.840381 27.008096 
L 32.034094 27.06362 
L 32.227808 27.119145 
L 32.378503 27.16233 
L 32.529197 27.205516 
L 32.679892 27.248701 
L 32.830587 27.291886 
L 32.981281 27.335072 
L 33.131976 27.378257 
L 33.282671 27.421443 
L 33.433366 27.464628 
L 33.468834 27.62542 
L 33.504303 27.786211 
L 33.539771 27.947002 
L 33.57524 28.107793 
L 33.610708 28.268585 
L 33.646177 28.429376 
L 33.681645 28.590167 
L 33.717113 28.750958 
L 33.752582 28.911749 
L 33.78805 29.072541 
L 33.823519 29.233332 
L 33.858987 29.394123 
L 33.894456 29.554914 
L 33.929924 29.715706 
L 33.965393 29.876497 
L 34.000861 30.037288 
L 34.040112 30.259226 
L 34.079363 30.481163 
L 34.118614 30.703101 
L 34.157865 30.925038 
L 34.197116 31.146976 
L 34.236367 31.368913 
L 34.275617 31.590851 
L 34.314868 31.812788 
L 34.405416 32.093633 
L 34.495965 32.374478 
L 34.586513 32.655323 
L 34.677061 32.936167 
L 34.74049 33.192813 
L 34.80392 33.449458 
L 34.867349 33.706103 
L 34.930778 33.962748 
L 34.948877 34.125818 
L 34.966975 34.288888 
L 34.985073 34.451957 
L 35.003171 34.615027 
L 34.96549 34.841662 
L 34.92781 35.068296 
L 34.75699 35.219544 
L 34.58617 35.370793 
L 34.442926 35.458796 
L 34.299682 35.546799 
L 34.156438 35.634801 
L 34.013193 35.722804 
" style="fill:none;stroke:#000000;stroke-linecap:square;stroke-width:0.4;"/>
   </g>
   <g id="line2d_57">
    <path clip-path="url(#p778697e4e5)" d="M 33.433366 27.464628 
L 33.578265 27.691103 
L 33.723165 27.917578 
L 33.868065 28.144053 
L 34.012965 28.370528 
L 34.118643 28.512443 
L 34.22432 28.654358 
L 34.329998 28.796273 
L 34.435675 28.938188 
L 34.541353 29.080103 
L 34.64703 29.222018 
L 34.752708 29.363933 
L 34.858385 29.505848 
L 35.009309 29.696083 
L 35.160232 29.886318 
L 35.311155 30.076553 
L 35.462078 30.266788 
L 35.613001 30.457023 
L 35.763924 30.647258 
L 35.914847 30.837493 
L 36.06577 31.027728 
L 36.280294 31.227575 
L 36.494818 31.427422 
L 36.709341 31.62727 
L 36.923865 31.827117 
L 37.138389 32.026964 
L 37.352913 32.226811 
L 37.567436 32.426659 
L 37.78196 32.626506 
" style="fill:none;stroke:#008000;stroke-linecap:square;stroke-width:0.4;"/>
   </g>
   <g id="line2d_58">
    <path clip-path="url(#p778697e4e5)" d="M 27.636229 33.451846 
L 27.769768 33.586517 
L 27.903306 33.721188 
L 28.036845 33.855859 
L 28.170383 33.99053 
L 28.303922 34.125201 
L 28.43746 34.259872 
L 28.570999 34.394543 
L 28.704537 34.529214 
L 28.87176 34.70904 
L 29.038983 34.888867 
L 29.206206 35.068694 
L 29.373429 35.24852 
L 29.423042 35.437462 
L 29.472655 35.626403 
L 29.522268 35.815345 
L 29.571881 36.004286 
L 29.683439 36.281588 
L 29.794997 36.558891 
L 29.906555 36.836193 
L 30.018113 37.113496 
L 30.097215 37.248147 
L 30.176316 37.382798 
L 30.255417 37.517449 
L 30.334518 37.6521 
L 30.413619 37.786751 
L 30.49272 37.921402 
L 30.571822 38.056053 
L 30.650923 38.190705 
L 30.770588 38.411249 
L 30.890253 38.631793 
L 31.009918 38.852338 
L 31.129583 39.072882 
L 31.180224 39.226081 
L 31.230865 39.37928 
L 31.281506 39.532479 
L 31.332146 39.685678 
L 31.421324 39.864231 
L 31.510502 40.042784 
L 31.59968 40.221337 
L 31.688858 40.39989 
L 31.794364 40.665928 
L 31.899871 40.931967 
L 31.963243 41.185627 
L 32.026615 41.439287 
L 32.089987 41.692947 
L 32.15336 41.946606 
L 32.147308 42.194177 
L 32.141256 42.441747 
L 32.189556 42.622927 
L 32.237856 42.804107 
L 32.406963 42.973187 
L 32.57607 43.142267 
L 32.81757 43.232857 
L 33.059069 43.323447 
L 33.285497 43.311387 
L 33.511924 43.299327 
L 33.738352 43.287266 
L 33.964779 43.275206 
L 34.236424 43.317476 
L 34.508068 43.359746 
L 34.646916 43.504666 
L 34.785764 43.649587 
L 34.924612 43.794507 
L 35.06346 43.939427 
L 35.132942 44.150817 
L 35.202423 44.362206 
L 35.271904 44.573596 
L 35.341385 44.784986 
L 35.365535 44.942006 
L 35.389685 45.099026 
L 35.413835 45.256046 
L 35.437985 45.413066 
L 35.474181 45.690806 
L 35.510378 45.968547 
L 35.62205 46.107457 
L 35.733722 46.246367 
L 35.845394 46.385276 
L 35.957067 46.524186 
L 36.171391 46.678181 
L 36.385715 46.832176 
L 36.600038 46.986171 
L 36.814362 47.140166 
L 37.028743 47.282101 
L 37.243124 47.424036 
L 37.457505 47.565971 
L 37.671886 47.707906 
L 37.819812 47.883036 
L 37.967738 48.058166 
L 38.115664 48.233296 
L 38.263589 48.408426 
L 38.323936 48.559396 
L 38.384282 48.710366 
L 38.444629 48.861336 
L 38.504975 49.012306 
L 38.722268 49.205586 
L 38.93956 49.398866 
L 39.08446 49.486431 
L 39.22936 49.573996 
L 39.37426 49.661561 
L 39.51916 49.749126 
L 39.705623 49.830959 
L 39.892086 49.912793 
L 40.153739 50.027742 
L 40.415392 50.142691 
L 40.677046 50.25764 
L 40.938699 50.372589 
" style="fill:none;stroke:#4169e1;stroke-linecap:square;stroke-width:0.4;"/>
   </g>
   <g id="line2d_59">
    <path clip-path="url(#p778697e4e5)" d="M 66.610296 20.297353 
L 66.711863 21.845303 
L 66.490031 23.469833 
L 65.612896 25.497918 
L 64.598826 27.080138 
L 63.40323 29.03051 
L 61.282229 33.220037 
L 61.119402 34.542587 
L 61.566091 36.197247 
L 61.425644 37.291094 
L 61.185857 37.927532 
L 60.367841 38.265652 
L 59.558845 38.292837 
L 58.964345 37.981782 
L 57.995434 37.184622 
L 57.580431 37.003044 
L 56.350438 36.780072 
L 55.408817 36.974864 
L 54.824679 37.715426 
L 53.959933 38.881672 
L 52.788744 40.364227 
L 52.341199 41.112112 
L 52.193388 41.634397 
L 52.193388 41.634397 
" style="fill:none;stroke:#008000;stroke-linecap:square;stroke-width:0.4;"/>
   </g>
   <g id="line2d_60">
    <path clip-path="url(#p778697e4e5)" d="M 68.32306 20.426153 
L 68.364338 20.678977 
L 68.405616 20.931801 
L 68.446893 21.184625 
L 68.488171 21.437449 
L 68.457769 21.603992 
L 68.427368 21.770535 
L 68.396966 21.937077 
L 68.366565 22.10362 
L 68.336163 22.270163 
L 68.305761 22.436705 
L 68.27536 22.603248 
L 68.244958 22.769791 
L 68.214557 22.936333 
L 68.184155 23.102876 
L 68.153754 23.269419 
L 68.123352 23.435961 
L 68.09295 23.602504 
L 68.062549 23.769047 
L 68.032147 23.935589 
L 68.001746 24.102132 
L 67.964393 24.300168 
L 67.927041 24.498205 
L 67.889688 24.696241 
L 67.852336 24.894277 
L 67.814983 25.092313 
L 67.777631 25.290349 
L 67.740278 25.488386 
L 67.702925 25.686422 
L 67.665573 25.884458 
L 67.62822 26.082494 
L 67.590868 26.280531 
L 67.553515 26.478567 
L 67.516163 26.676603 
L 67.47881 26.874639 
L 67.441458 27.072675 
L 67.404105 27.270712 
L 67.32626 27.451971 
L 67.248415 27.633231 
L 67.17057 27.81449 
L 67.092725 27.99575 
L 67.014879 28.177009 
L 66.937034 28.358269 
L 66.859189 28.539529 
L 66.781344 28.720788 
L 66.633932 28.960676 
L 66.48652 29.200565 
L 66.339108 29.440453 
L 66.191696 29.680341 
" style="fill:none;stroke:#008000;stroke-linecap:square;stroke-width:0.4;"/>
   </g>
   <g id="line2d_61">
    <path clip-path="url(#p778697e4e5)" d="M 68.326029 20.130661 
L 68.06135 20.207559 
L 67.897039 20.254526 
L 67.732728 20.301493 
L 67.568416 20.348459 
L 67.404105 20.395426 
L 67.169342 20.399725 
L 66.889819 20.348539 
L 66.610296 20.297353 
L 66.332828 20.263123 
L 66.076827 20.395426 
L 65.874036 20.465956 
L 65.671244 20.536485 
L 65.517552 20.613224 
L 65.321155 20.754124 
L 65.129097 20.993415 
L 65.033068 21.136465 
L 64.937039 21.279514 
L 64.762109 21.381885 
L 64.604192 21.480118 
L 64.446275 21.57835 
L 64.271231 21.744882 
L 64.096186 21.911415 
L 63.959622 21.996831 
L 63.823057 22.082246 
L 63.686493 22.167662 
L 63.549929 22.253078 
L 63.447505 22.374793 
L 63.345082 22.496508 
L 63.157249 22.645926 
L 62.969416 22.795344 
L 62.796541 22.876541 
L 62.623666 22.957737 
L 62.41448 23.064407 
L 62.303493 23.166938 
" style="fill:none;stroke:#008000;stroke-linecap:square;stroke-width:0.4;"/>
   </g>
   <g id="line2d_62">
    <path clip-path="url(#p778697e4e5)" d="M 66.191696 29.680341 
L 66.057159 29.915294 
L 65.922621 30.150247 
L 65.788083 30.3852 
L 65.653546 30.620153 
L 65.519008 30.855106 
L 65.384471 31.090058 
L 65.249933 31.325011 
L 65.115395 31.559964 
L 65.018795 31.728726 
L 64.922195 31.897487 
L 64.838441 32.058279 
L 64.754687 32.21907 
L 64.670933 32.379861 
L 64.587179 32.540652 
L 64.503425 32.701443 
L 64.41967 32.862235 
L 64.335916 33.023026 
L 64.252162 33.183817 
L 64.168408 33.344608 
L 64.084654 33.5054 
L 64.0009 33.666191 
L 63.917145 33.826982 
L 63.833391 33.987773 
L 63.749637 34.148565 
L 63.665883 34.309356 
L 63.582129 34.470147 
L 63.530803 34.729817 
L 63.479477 34.989487 
L 63.428151 35.249157 
L 63.376825 35.508827 
L 63.307458 35.708117 
L 63.238091 35.907407 
L 63.168724 36.106697 
L 63.099357 36.305987 
L 63.008924 36.507466 
L 62.91849 36.708945 
L 62.797568 36.978486 
L 62.676647 37.248027 
L 62.519758 37.417187 
L 62.362869 37.586347 
L 62.181773 37.658787 
L 62.000676 37.731227 
L 61.796971 37.780303 
L 61.593267 37.82938 
L 61.389562 37.878456 
L 61.185857 37.927532 
" style="fill:none;stroke:#008000;stroke-linecap:square;stroke-width:0.4;"/>
   </g>
   <g id="line2d_63">
    <path clip-path="url(#p778697e4e5)" d="M 60.613565 24.782433 
L 60.618333 24.954677 
L 60.6231 25.126921 
L 60.627867 25.299166 
L 60.632634 25.47141 
L 60.637401 25.643654 
L 60.642169 25.815899 
L 60.646936 25.988143 
L 60.651703 26.160387 
L 60.579139 26.455044 
L 60.506575 26.7497 
L 60.434011 27.044356 
L 60.361447 27.339012 
L 60.291023 27.511953 
L 60.2206 27.684894 
L 60.150177 27.857835 
L 60.079754 28.030776 
L 60.009331 28.203717 
L 59.938908 28.376658 
L 59.868484 28.549599 
L 59.798061 28.722539 
L 59.683534 28.947303 
L 59.569008 29.172066 
L 59.454481 29.39683 
L 59.339954 29.621593 
L 59.264906 29.763309 
L 59.189859 29.905025 
L 59.114811 30.046741 
L 59.039763 30.188457 
L 58.964716 30.330173 
L 58.889668 30.471889 
L 58.814621 30.613605 
L 58.739573 30.755321 
L 58.642716 30.942153 
L 58.545859 31.128985 
L 58.449002 31.315817 
L 58.352146 31.502649 
L 58.255289 31.689481 
L 58.158432 31.876312 
L 58.061575 32.063144 
L 57.964718 32.249976 
L 57.845738 32.490462 
L 57.726758 32.730947 
L 57.666412 32.874355 
L 57.606065 33.017762 
L 57.545719 33.16117 
L 57.485373 33.304577 
L 57.425026 33.447985 
L 57.36468 33.591392 
L 57.304333 33.7348 
L 57.243987 33.878208 
L 57.186724 34.111688 
L 57.12946 34.345168 
L 57.072197 34.578648 
L 57.014933 34.812128 
L 56.986159 35.036135 
L 56.957385 35.260143 
L 56.92861 35.48415 
L 56.899836 35.708157 
L 56.942084 35.949677 
L 56.984332 36.191197 
L 57.014477 36.481117 
L 56.984332 36.656247 
L 56.85165 36.811635 
" style="fill:none;stroke:#4169e1;stroke-linecap:square;stroke-width:0.4;"/>
   </g>
   <g id="line2d_64">
    <path clip-path="url(#p778697e4e5)" d="M 61.750841 23.992119 
L 61.882724 24.147626 
L 62.014607 24.303134 
L 62.14649 24.458641 
L 62.278372 24.614149 
L 62.423272 24.879869 
L 62.568172 25.145589 
L 62.580161 25.417359 
L 62.592151 25.689128 
L 62.543851 25.906528 
L 62.495551 26.123929 
L 62.326558 26.280988 
L 62.157565 26.438048 
L 61.91618 26.498388 
L 61.831683 26.715868 
L 61.837735 26.890998 
L 61.843787 27.066128 
L 61.873932 27.259328 
L 61.904076 27.452528 
L 61.831626 27.615598 
L 61.759176 27.778668 
L 61.686727 27.941738 
L 61.614277 28.104808 
L 61.517677 28.310108 
L 61.421077 28.515408 
L 61.372777 28.757008 
L 61.324477 28.998608 
L 61.273208 29.146553 
L 61.221939 29.294498 
L 61.170671 29.442443 
L 61.119402 29.590388 
L 61.034848 29.859133 
L 60.950295 30.127878 
L 60.865741 30.396623 
L 60.781188 30.665368 
L 60.597023 30.880499 
L 60.412858 31.095631 
L 60.228693 31.310762 
L 60.044528 31.525893 
L 59.860363 31.741025 
L 59.676198 31.956156 
L 59.492033 32.171287 
L 59.307868 32.386418 
L 59.123703 32.60155 
L 58.939538 32.816681 
L 58.755373 33.031812 
L 58.571208 33.246944 
L 58.387043 33.462075 
L 58.202878 33.677206 
L 58.018713 33.892337 
L 57.834548 34.107469 
L 57.629645 34.283634 
L 57.424741 34.459799 
L 57.219837 34.635963 
L 57.014933 34.812128 
" style="fill:none;stroke:#4169e1;stroke-linecap:square;stroke-width:0.4;"/>
   </g>
   <g id="line2d_65">
    <path clip-path="url(#p778697e4e5)" d="M 63.621865 28.622078 
L 63.357414 28.638676 
L 63.092963 28.655274 
L 62.828512 28.671871 
L 62.564062 28.688469 
L 62.436004 28.778143 
L 62.307946 28.867818 
L 62.179888 28.957492 
L 62.051831 29.047167 
L 61.979267 29.196624 
L 61.906703 29.346082 
L 61.834138 29.495539 
L 61.761574 29.644997 
L 61.668286 29.903075 
L 61.574997 30.161153 
L 61.499978 30.377996 
L 61.424959 30.594838 
L 61.34994 30.811681 
L 61.274921 31.028524 
L 61.266357 31.276253 
L 61.257793 31.523983 
L 61.180947 31.660584 
L 61.104101 31.797186 
L 61.014467 32.010765 
L 60.924832 32.224344 
L 60.852325 32.365244 
L 60.779818 32.506144 
L 60.673055 32.638526 
L 60.566293 32.770908 
L 60.41694 32.937441 
L 60.267587 33.103974 
L 60.182177 33.279024 
L 60.096767 33.454075 
L 59.949527 33.720989 
L 59.802286 33.987903 
L 59.655045 34.254817 
L 59.507805 34.521731 
L 59.335615 34.737459 
L 59.163425 34.953188 
L 59.051753 35.122307 
L 58.940081 35.291427 
L 58.828408 35.460547 
L 58.716736 35.629667 
L 58.68054 35.877237 
L 58.644343 36.124807 
L 58.571893 36.275777 
L 58.499443 36.426747 
L 58.426993 36.577717 
L 58.354543 36.728687 
L 58.221747 36.813227 
L 58.088951 36.897767 
L 57.956155 36.982307 
L 57.823358 37.066848 
" style="fill:none;stroke:#008000;stroke-linecap:square;stroke-width:0.4;"/>
   </g>
   <g id="line2d_66">
    <path clip-path="url(#p778697e4e5)" d="M 62.91849 36.708945 
L 63.077434 36.917987 
L 63.236379 37.127029 
L 63.395323 37.33607 
L 63.554268 37.545112 
L 63.554268 37.703127 
L 63.554268 37.861142 
L 63.673704 38.117309 
L 63.827396 38.177092 
L 63.981089 38.236875 
L 64.113428 38.32659 
L 64.245768 38.416304 
L 64.416359 38.587135 
L 64.493319 38.868935 
L 64.483842 39.05927 
L 64.474365 39.249604 
L 64.453926 39.486269 
L 64.433487 39.722933 
L 64.501769 39.910879 
L 64.570051 40.098826 
L 64.702391 40.265358 
L 64.83473 40.431891 
L 64.97552 40.530043 
L 65.116309 40.628196 
L 65.18893 40.786211 
L 65.261551 40.944226 
L 65.270001 41.176432 
L 65.27845 41.408639 
" style="fill:none;stroke:#4169e1;stroke-linecap:square;stroke-width:0.4;"/>
   </g>
   <g id="line2d_67">
    <path clip-path="url(#p778697e4e5)" d="M 65.115395 31.559964 
L 65.189158 31.713461 
L 65.262921 31.866959 
L 65.336684 32.020456 
L 65.410447 32.173954 
L 65.484211 32.327451 
L 65.557974 32.480949 
L 65.631737 32.634446 
L 65.7055 32.787944 
L 65.782289 32.992925 
L 65.859078 33.197907 
L 65.935866 33.402889 
L 66.012655 33.607871 
L 66.123643 33.868357 
L 66.23463 34.128843 
L 66.345617 34.389329 
L 66.456604 34.649815 
L 66.567591 34.910301 
L 66.678578 35.170787 
L 66.789565 35.431273 
L 66.900552 35.691759 
L 66.976314 35.907407 
L 67.052075 36.123056 
L 67.127836 36.338705 
L 67.203598 36.554353 
L 67.272965 36.710219 
L 67.342331 36.866085 
L 67.411698 37.021951 
L 67.481065 37.177816 
L 67.609066 37.27175 
L 67.737067 37.365683 
L 67.890702 37.416948 
L 68.044336 37.468214 
L 68.197971 37.519479 
L 68.351606 37.570744 
L 68.488171 37.724461 
L 68.624735 37.878177 
L 68.676004 38.117309 
L 68.727273 38.356441 
L 68.710259 38.621206 
L 68.693246 38.885971 
L 68.548118 39.150735 
L 68.402989 39.4155 
L 68.22372 39.646115 
L 68.044451 39.876729 
L 67.889731 40.138628 
L 67.735011 40.400527 
" style="fill:none;stroke:#008000;stroke-linecap:square;stroke-width:0.4;"/>
   </g>
   <g id="line2d_68">
    <path clip-path="url(#p778697e4e5)" d="M 47.653877 35.345797 
L 47.61357 35.544331 
L 47.573263 35.742865 
L 47.532956 35.941398 
L 47.492649 36.139932 
L 47.452342 36.338466 
L 47.412035 36.537 
L 47.371728 36.735533 
L 47.331421 36.934067 
L 47.297023 37.103525 
L 47.262625 37.272984 
L 47.228226 37.442442 
L 47.193828 37.6119 
L 47.15943 37.781358 
L 47.125032 37.950816 
L 47.090634 38.120274 
L 47.056236 38.289733 
L 46.919786 38.527551 
L 46.783336 38.76537 
L 46.646886 39.003188 
L 46.510435 39.241007 
L 46.359484 39.488617 
L 46.208532 39.736227 
L 46.057581 39.983837 
L 45.906629 40.231447 
L 45.749683 40.376367 
L 45.592736 40.521287 
L 45.43579 40.666207 
L 45.278844 40.811127 
L 45.188296 41.058737 
L 45.097747 41.306347 
L 45.007199 41.553957 
L 44.916651 41.801567 
L 44.886878 42.005613 
L 44.857104 42.20966 
L 44.827331 42.413706 
L 44.797557 42.617752 
L 44.767783 42.821799 
L 44.73801 43.025845 
L 44.708236 43.229891 
L 44.678463 43.433938 
" style="fill:none;stroke:#4169e1;stroke-linecap:square;stroke-width:0.4;"/>
   </g>
   <g id="line2d_69">
    <path clip-path="url(#p778697e4e5)" d="M 34.677061 32.936167 
L 34.829383 33.146801 
L 34.981705 33.357435 
L 35.134026 33.568068 
L 35.286348 33.778702 
L 35.457111 33.904676 
L 35.627873 34.03065 
L 35.798636 34.156625 
L 35.969399 34.282599 
L 36.208501 34.316749 
L 36.447602 34.350899 
L 36.605576 34.400016 
L 36.76355 34.449132 
L 36.921524 34.498248 
L 37.079498 34.547364 
L 37.305355 34.733877 
L 37.531211 34.92039 
" style="fill:none;stroke:#008000;stroke-linecap:square;stroke-width:0.4;"/>
   </g>
   <g id="line2d_70">
    <path clip-path="url(#p778697e4e5)" d="M 33.553031 11.316845 
L 33.659793 11.551679 
L 33.766555 11.786512 
L 33.873318 12.021346 
L 33.98008 12.256179 
L 34.035573 12.427011 
L 34.091067 12.597842 
L 34.146561 12.768673 
L 34.202054 12.939505 
L 34.197772 13.127411 
L 34.19349 13.315318 
L 34.189208 13.503224 
L 34.184927 13.691131 
L 34.129433 13.930263 
L 34.073939 14.169395 
L 34.018446 14.408527 
L 33.962952 14.647659 
L 33.886106 14.839824 
L 33.80926 15.03199 
L 33.732414 15.224155 
L 33.655568 15.416321 
L 33.578722 15.608486 
L 33.501876 15.800651 
L 33.42503 15.992817 
L 33.348184 16.184982 
L 33.254267 16.325882 
L 33.160351 16.466782 
L 33.066434 16.607682 
L 32.972518 16.748582 
L 32.912742 16.979197 
L 32.852967 17.209811 
L 32.793191 17.440425 
L 32.733416 17.67104 
L 32.635217 17.922988 
L 32.537019 18.174937 
L 32.43882 18.426885 
L 32.340622 18.678833 
L 32.216846 18.8667 
L 32.09307 19.054567 
L 32.02456 19.259628 
L 31.928988 19.509188 
L 31.833415 19.758749 
L 31.642956 19.991751 
L 31.452496 20.224754 
L 31.363918 20.381674 
L 31.27534 20.538595 
L 31.186761 20.695515 
L 31.098183 20.852436 
L 31.009604 21.009356 
L 30.921026 21.166277 
L 30.832447 21.323197 
L 30.743869 21.480118 
L 30.620036 21.655208 
L 30.496203 21.830298 
L 30.37237 22.005388 
L 30.248537 22.180478 
L 30.178086 22.372644 
L 30.107634 22.564809 
L 30.037182 22.756974 
L 29.966731 22.94914 
L 29.898562 23.132748 
L 29.830394 23.316356 
L 29.762226 23.499964 
L 29.694058 23.683571 
" style="fill:none;stroke:#ff0000;stroke-linecap:square;stroke-width:0.4;"/>
   </g>
   <g id="line2d_71">
    <path clip-path="url(#p778697e4e5)" d="M 37.834713 12.910369 
L 37.752615 13.067111 
L 37.670516 13.223852 
L 37.588418 13.380593 
L 37.506319 13.537335 
L 37.425248 13.682533 
L 37.344177 13.827732 
L 37.344177 14.071163 
L 37.344177 14.314594 
L 37.344177 14.519575 
L 37.344177 14.724557 
L 37.258768 14.929539 
L 37.173358 15.13452 
L 37.102906 15.328815 
L 37.032454 15.52311 
L 36.962003 15.717405 
L 36.891551 15.9117 
L 36.821099 16.105994 
L 36.750648 16.300289 
L 36.680196 16.494584 
L 36.609744 16.688879 
L 36.532955 16.878895 
L 36.456166 17.068911 
L 36.379377 17.258927 
L 36.302588 17.448943 
L 36.18515 17.609068 
L 36.067711 17.769192 
L 35.950273 17.929317 
L 35.832834 18.089441 
L 35.664184 18.290164 
L 35.495534 18.490887 
L 35.326884 18.69161 
L 35.158233 18.892333 
L 34.996035 19.005491 
L 34.833836 19.118649 
L 34.671637 19.231806 
L 34.509438 19.344964 
L 34.237394 19.371393 
L 33.96535 19.397822 
L 33.693306 19.42425 
L 33.421262 19.450679 
L 33.23714 19.428032 
L 33.053018 19.405384 
L 32.868896 19.382737 
L 32.684773 19.360089 
L 32.537818 19.428867 
L 32.390863 19.497646 
L 32.112139 19.628197 
L 31.833415 19.758749 
" style="fill:none;stroke:#ff0000;stroke-linecap:square;stroke-width:0.4;"/>
   </g>
   <g id="line2d_72">
    <path clip-path="url(#p778697e4e5)" d="M 34.509438 19.344964 
L 34.554141 19.593649 
L 34.598845 19.842334 
L 34.643548 20.091018 
L 34.688251 20.339703 
L 34.74854 20.514992 
L 34.74854 20.796951 
L 34.769893 20.950668 
L 34.791245 21.104384 
L 34.705835 21.292251 
L 34.560707 21.390483 
L 34.415579 21.488715 
L 34.167913 21.582648 
L 33.920247 21.676582 
L 33.75194 21.78962 
L 33.583632 21.902658 
L 33.488688 22.073251 
L 33.393744 22.243844 
L 33.298799 22.414436 
L 33.203855 22.585029 
L 33.125411 22.778269 
L 33.046966 22.971509 
L 32.968521 23.164749 
L 32.890077 23.357989 
L 32.802497 23.575429 
L 32.714918 23.792868 
L 32.627339 24.010308 
L 32.539759 24.227748 
L 32.485408 24.399853 
L 32.431056 24.571958 
L 32.376704 24.744063 
L 32.322352 24.916168 
L 32.319384 25.103398 
L 32.316415 25.290628 
L 32.313446 25.477858 
L 32.310477 25.665088 
L 32.328575 25.831143 
L 32.346674 25.997198 
L 32.364772 26.163253 
L 32.38287 26.329308 
L 32.344105 26.526767 
L 32.305339 26.724226 
L 32.266573 26.921686 
L 32.227808 27.119145 
" style="fill:none;stroke:#ff0000;stroke-linecap:square;stroke-width:0.4;"/>
   </g>
  </g>
 </g>
 <defs>
  <clipPath id="p778697e4e5">
   <rect height="63.427361" width="72" x="0" y="0"/>
  </clipPath>
 </defs>
</svg>
