<?xml version="1.0" encoding="utf-8" standalone="no"?>
<!DOCTYPE svg PUBLIC "-//W3C//DTD SVG 1.1//EN"
  "http://www.w3.org/Graphics/SVG/1.1/DTD/svg11.dtd">
<svg height="64.249083pt" version="1.1" viewBox="0 0 72 64.249083" width="72pt" xmlns="http://www.w3.org/2000/svg" xmlns:xlink="http://www.w3.org/1999/xlink">
 <metadata>
  <rdf:RDF xmlns:cc="http://creativecommons.org/ns#" xmlns:dc="http://purl.org/dc/elements/1.1/" xmlns:rdf="http://www.w3.org/1999/02/22-rdf-syntax-ns#">
   <cc:Work>
    <dc:type rdf:resource="http://purl.org/dc/dcmitype/StillImage"/>
    <dc:date>2022-04-19T00:38:34.736454</dc:date>
    <dc:format>image/svg+xml</dc:format>
    <dc:creator>
     <cc:Agent>
      <dc:title>Matplotlib v3.4.3, https://matplotlib.org/</dc:title>
     </cc:Agent>
    </dc:creator>
   </cc:Work>
  </rdf:RDF>
 </metadata>
 <defs>
  <style type="text/css">*{stroke-linecap:butt;stroke-linejoin:round;}</style>
 </defs>
 <g id="figure_1">
  <g id="patch_1">
   <path d="M 0 64.249083 
L 72 64.249083 
L 72 0 
L 0 0 
z
" style="fill:#ffffff;"/>
  </g>
  <g id="axes_1">
   <g id="line2d_1">
    <path clip-path="url(#p2b9425a330)" d="M 47.359649 58.824285 
L 46.838225 57.309753 
L 46.487775 56.291956 
L 46.137324 55.274159 
L 45.660211 53.888825 
L 45.183097 52.50349 
L 44.717172 51.150866 
L 44.251248 49.798241 
L 43.759141 48.369184 
L 43.267033 46.940126 
L 42.866678 45.777023 
L 42.466323 44.613921 
L 42.060374 43.435696 
L 41.592659 42.077647 
L 41.505382 41.823856 
" style="fill:none;stroke:#808080;stroke-linecap:square;stroke-width:0.4;"/>
   </g>
   <g id="line2d_2">
    <path clip-path="url(#p2b9425a330)" d="M 61.39467 55.790948 
L 61.33201 54.149849 
L 61.288147 53.000882 
L 61.244285 51.851916 
L 61.204675 50.815874 
L 61.165065 49.779832 
L 61.108447 48.29538 
L 61.051828 46.810929 
L 60.98693 45.11082 
L 60.922032 43.410711 
L 60.845497 41.408979 
L 60.768962 39.407246 
L 60.722638 38.193599 
L 60.676314 36.979952 
L 60.62999 35.766304 
L 60.583666 34.552657 
L 60.536895 33.328737 
L 60.490123 32.104817 
L 60.443352 30.880896 
L 60.39658 29.656976 
L 60.355851 28.590524 
L 60.315122 27.524073 
L 60.274393 26.457622 
L 60.233663 25.391171 
L 60.193382 24.335157 
L 60.1531 23.279144 
L 60.112818 22.22313 
L 60.072537 21.167117 
L 60.032591 20.122116 
L 59.992645 19.077116 
L 59.952699 18.032115 
L 59.912753 16.987115 
L 59.865758 15.751688 
L 59.818762 14.516262 
L 59.780047 13.504793 
L 59.741332 12.493325 
L 59.702617 11.481856 
L 59.663902 10.470388 
L 59.600346 8.805126 
L 59.536791 7.139865 
L 59.490243 5.918574 
" style="fill:none;stroke:#808080;stroke-linecap:square;stroke-width:0.4;"/>
   </g>
   <g id="line2d_3">
    <path clip-path="url(#p2b9425a330)" d="M 44.325098 61.32867 
L 43.928324 60.182333 
L 43.531549 59.035997 
L 43.134775 57.88966 
L 42.738001 56.743324 
" style="fill:none;stroke:#808080;stroke-linecap:square;stroke-width:0.4;"/>
   </g>
   <g id="line2d_4">
    <path clip-path="url(#p2b9425a330)" d="M 10.046758 34.275853 
L 10.397656 33.824486 
L 10.748554 33.373118 
L 11.356359 32.59136 
L 12.260906 31.428093 
L 13.165453 30.264827 
L 14.173613 28.968089 
L 15.181773 27.671351 
L 16.206941 26.352588 
L 17.232109 25.033824 
L 18.23915 23.73873 
L 19.246191 22.443637 
L 20.346104 21.028715 
L 21.446017 19.613793 
L 22.267986 18.556711 
L 23.089956 17.499629 
L 24.113781 16.182838 
L 25.137606 14.866047 
L 26.230358 13.460495 
L 27.323109 12.054942 
L 27.985518 11.202751 
L 28.647928 10.35056 
L 29.310337 9.498369 
L 29.972746 8.646178 
L 30.83276 7.540112 
L 31.692773 6.434047 
L 32.639392 5.216044 
L 32.971044 4.789661 
" style="fill:none;stroke:#808080;stroke-linecap:square;stroke-width:0.4;"/>
   </g>
   <g id="line2d_5">
    <path clip-path="url(#p2b9425a330)" d="M 52.155403 58.47154 
L 52.141528 56.833729 
L 52.12631 55.083158 
L 52.118702 54.197517 
L 52.106841 52.804786 
L 52.09498 51.412054 
L 52.079763 49.62943 
L 52.064545 47.846807 
L 52.049775 46.128288 
L 52.035005 44.40977 
L 52.022473 42.958193 
L 52.009941 41.506616 
L 51.993157 39.52806 
L 51.976373 37.549504 
L 51.96026 35.671215 
L 51.944148 33.792926 
L 51.934972 32.725817 
L 51.925797 31.658709 
L 51.913937 30.27847 
L 51.902076 28.89823 
L 51.892677 27.804987 
L 51.883278 26.711743 
L 51.873879 25.618499 
L 51.86448 24.525255 
L 51.849933 22.80838 
L 51.835387 21.091505 
L 51.825317 19.920184 
L 51.815246 18.748863 
L 51.806295 17.705095 
L 51.801372 17.136036 
L 51.784364 15.158302 
L 51.767356 13.180568 
L 51.756838 11.956812 
L 51.74632 10.733056 
L 51.732445 9.092943 
" style="fill:none;stroke:#808080;stroke-linecap:square;stroke-width:0.4;"/>
   </g>
   <g id="line2d_6">
    <path clip-path="url(#p2b9425a330)" d="M 43.391906 10.946083 
L 43.441587 11.326442 
L 43.494848 11.731128 
L 43.606742 12.583894 
L 43.76026 13.752914 
L 43.993222 15.527319 
L 44.226184 17.301724 
L 44.450866 19.013668 
L 44.675548 20.725611 
L 44.814296 21.782447 
L 44.953044 22.839282 
L 45.091792 23.896117 
L 45.23054 24.952953 
L 45.396254 26.214926 
L 45.561968 27.476898 
L 45.727682 28.738871 
L 45.893397 30.000844 
L 46.114946 31.688296 
L 46.336495 33.375748 
L 46.479495 34.464471 
L 46.622494 35.553195 
L 46.765494 36.641919 
L 46.908494 37.730642 
L 47.051718 38.821914 
L 47.194941 39.913185 
L 47.357187 41.148612 
L 47.519432 42.384039 
L 47.681678 43.619465 
L 47.843924 44.854892 
L 48.097474 46.786766 
L 48.351025 48.71864 
L 48.60189 50.629475 
L 48.852755 52.54031 
L 48.994412 53.619418 
L 49.136069 54.698525 
L 49.277726 55.777633 
L 49.419384 56.856741 
L 49.590357 58.158574 
L 49.687033 58.894965 
" style="fill:none;stroke:#808080;stroke-linecap:square;stroke-width:0.4;"/>
   </g>
   <g id="line2d_7">
    <path clip-path="url(#p2b9425a330)" d="M 38.933623 39.017682 
L 39.24547 39.062309 
L 39.557317 39.106937 
L 39.869164 39.151564 
L 40.181011 39.196191 
L 40.524972 39.240243 
L 40.868932 39.284295 
L 41.345151 39.443079 
L 41.715295 39.725143 
L 41.918045 39.998495 
L 42.120796 40.271847 
L 42.377704 40.43096 
L 42.634611 40.590073 
L 43.152119 40.458739 
L 43.669626 40.327405 
L 44.187133 40.196071 
L 44.70464 40.064737 
L 45.117863 39.949512 
L 45.531086 39.834287 
L 45.944308 39.719061 
L 46.357531 39.603836 
" style="fill:none;stroke:#008000;stroke-linecap:square;stroke-width:0.4;"/>
   </g>
   <g id="line2d_8">
    <path clip-path="url(#p2b9425a330)" d="M 51.293823 14.740137 
L 51.735466 15.071513 
L 52.17711 15.402889 
L 52.618753 15.734265 
L 53.060397 16.06564 
L 53.082999 16.635357 
L 53.105602 17.205073 
L 53.087979 17.606266 
L 53.070356 18.007459 
L 53.052732 18.408652 
L 53.035109 18.809845 
L 53.017486 19.211038 
L 52.999863 19.612232 
L 52.982239 20.013425 
L 52.964616 20.414618 
L 52.946993 20.718831 
L 52.92937 21.023044 
L 52.911747 21.327257 
L 52.894123 21.63147 
L 52.8765 21.935683 
L 52.858877 22.239896 
L 52.841254 22.544109 
L 52.82363 22.848323 
L 52.858877 23.315635 
L 52.894123 23.782947 
L 52.92937 24.250259 
L 52.964616 24.717571 
L 53.176319 25.211347 
L 53.388021 25.705123 
L 53.669993 26.004939 
L 53.951964 26.304755 
L 54.304652 26.604571 
L 54.657341 26.904388 
L 54.851364 27.168863 
L 55.045387 27.433339 
L 55.133559 27.768496 
L 55.221731 28.103652 
L 55.301064 28.476203 
L 55.380396 28.848754 
L 55.459729 29.221305 
L 55.539061 29.593856 
L 55.618394 29.966408 
L 55.697726 30.338959 
L 55.777058 30.71151 
L 55.856391 31.084061 
L 55.935723 31.456612 
L 56.015056 31.829163 
L 56.094388 32.201714 
L 56.173721 32.574265 
L 56.253053 32.946817 
L 56.332386 33.319368 
L 56.411718 33.691919 
L 56.491051 34.06447 
L 56.526409 34.575834 
L 56.561767 35.087198 
L 56.50873 35.475118 
L 56.455692 35.863038 
L 56.329812 36.196057 
L 56.203932 36.529077 
L 56.078052 36.862096 
L 55.952172 37.195116 
" style="fill:none;stroke:#4169e1;stroke-linecap:square;stroke-width:0.4;"/>
   </g>
   <g id="line2d_9">
    <path clip-path="url(#p2b9425a330)" d="M 55.952172 37.195116 
L 56.245556 37.391212 
L 56.538941 37.587309 
L 56.832326 37.783406 
L 57.12571 37.979503 
L 57.566571 38.050019 
L 58.007431 38.120535 
L 58.320397 38.291729 
L 58.633363 38.462924 
L 58.946329 38.634118 
L 59.259295 38.805312 
" style="fill:none;stroke:#008000;stroke-linecap:square;stroke-width:0.4;"/>
   </g>
   <g id="line2d_10">
    <path clip-path="url(#p2b9425a330)" d="M 56.297251 16.129417 
L 56.451552 16.411563 
L 56.605853 16.693709 
L 56.760154 16.975855 
L 56.914456 17.258001 
L 56.94959 17.592993 
L 56.984725 17.927985 
L 56.984725 18.236677 
L 56.984725 18.545369 
L 56.738111 19.074321 
L 56.491274 19.418189 
L 56.244437 19.762057 
L 55.909428 20.079461 
L 55.574419 20.396865 
L 55.327359 20.74961 
L 55.327359 21.225962 
L 55.415531 21.508026 
L 55.838936 21.79009 
L 56.244437 22.036978 
L 56.649939 22.283866 
L 57.178972 22.477826 
L 57.619832 22.760219 
L 57.857829 23.143783 
L 58.095827 23.527347 
L 58.333824 23.910911 
L 58.571822 24.294475 
" style="fill:none;stroke:#4169e1;stroke-linecap:square;stroke-width:0.4;"/>
   </g>
   <g id="line2d_11">
    <path clip-path="url(#p2b9425a330)" d="M 55.952172 37.195116 
L 55.833788 37.675413 
L 55.715405 38.155711 
L 55.644912 38.667075 
L 55.574419 39.178439 
L 55.415754 39.672379 
L 55.25709 40.16632 
L 55.107152 40.510188 
L 54.957215 40.854056 
L 54.807278 41.197924 
L 54.657341 41.541792 
L 54.569169 41.9473 
L 54.480996 42.352808 
L 54.480996 42.828996 
L 54.480996 43.305184 
L 54.534034 43.728444 
L 54.587071 44.151704 
L 54.666404 44.574965 
L 54.745736 44.998225 
L 54.825069 45.421485 
L 54.904401 45.844745 
L 55.010029 46.409037 
L 55.115656 46.973329 
L 55.098201 47.537621 
L 55.080745 48.101913 
L 55.02782 48.591292 
L 54.974894 49.080672 
L 54.921969 49.570051 
L 54.869043 50.05943 
L 54.816117 50.548809 
L 54.763192 51.038188 
L 54.710266 51.527567 
L 54.657341 52.016946 
L 54.516355 52.598991 
L 54.375369 53.181035 
L 54.287197 53.586707 
L 54.199025 53.99238 
L 54.163667 54.450816 
L 54.128308 54.909251 
L 54.101901 55.350182 
L 54.075495 55.791112 
L 54.049088 56.232042 
L 54.022681 56.672972 
L 53.916941 56.981582 
L 53.811202 57.290193 
L 53.705463 57.598803 
L 53.599723 57.907413 
" style="fill:none;stroke:#4169e1;stroke-linecap:square;stroke-width:0.4;"/>
   </g>
   <g id="line2d_12">
    <path clip-path="url(#p2b9425a330)" d="M 33.145598 4.33139 
L 32.817162 4.70392 
L 32.488727 5.076451 
L 32.160292 5.448981 
L 31.831856 5.821512 
L 31.503421 6.194042 
L 31.174986 6.566573 
L 30.846551 6.939104 
L 30.518115 7.311634 
L 30.18968 7.684165 
L 29.861245 8.056695 
L 29.532809 8.429226 
L 29.204374 8.801756 
L 28.875939 9.174287 
L 28.547503 9.546818 
L 28.219068 9.919348 
L 27.890633 10.291879 
L 27.58645 10.666649 
L 27.282268 11.041419 
L 26.978086 11.416189 
L 26.673903 11.790959 
L 26.369721 12.165729 
L 26.065538 12.5405 
L 25.761356 12.91527 
L 25.457174 13.29004 
L 25.182741 13.641644 
L 24.908308 13.993248 
L 24.633876 14.344851 
L 24.359443 14.696455 
L 24.08501 15.048059 
L 23.810577 15.399663 
L 23.536145 15.751267 
L 23.261712 16.102871 
L 22.987279 16.454475 
L 22.712847 16.806078 
L 22.438414 17.157682 
L 22.163981 17.509286 
L 21.889548 17.86089 
L 21.615116 18.212494 
L 21.340683 18.564098 
L 21.06625 18.915702 
L 20.791818 19.267305 
L 20.517385 19.618909 
L 20.242952 19.970513 
L 19.968519 20.322117 
L 19.694087 20.673721 
L 19.419654 21.025325 
L 19.145221 21.376928 
L 18.870789 21.728532 
L 18.596356 22.080136 
L 18.321923 22.43174 
L 18.04749 22.783344 
L 17.773058 23.134948 
L 17.498625 23.486552 
L 17.224192 23.838155 
L 16.94976 24.189759 
L 16.675327 24.541363 
L 16.395397 24.900682 
L 16.115468 25.260001 
L 15.835538 25.61932 
L 15.555609 25.97864 
L 15.275679 26.337959 
L 14.99575 26.697278 
L 14.71582 27.056597 
L 14.435891 27.415916 
L 14.155961 27.775235 
L 13.876032 28.134554 
L 13.596103 28.493873 
L 13.316173 28.853192 
L 13.036244 29.212511 
L 12.756314 29.571831 
L 12.476385 29.93115 
L 12.196455 30.290469 
L 11.971605 30.616708 
L 11.746755 30.942947 
L 11.521905 31.269186 
L 11.297055 31.595425 
L 11.072205 31.921664 
L 10.847356 32.247903 
L 10.622506 32.574142 
L 10.397656 32.900381 
L 10.181142 33.32134 
L 9.964628 33.742299 
L 9.748114 34.163258 
L 9.5316 34.584217 
L 9.315086 35.005176 
L 9.098573 35.426135 
L 8.882059 35.847094 
L 8.665545 36.268053 
" style="fill:none;stroke:#008000;stroke-linecap:square;stroke-width:0.4;"/>
   </g>
   <g id="line2d_13">
    <path clip-path="url(#p2b9425a330)" d="M 27.268505 51.76184 
L 27.64402 52.193483 
L 28.066977 52.405195 
L 28.375579 52.462479 
L 28.684181 52.519763 
L 28.992783 52.577047 
L 29.301386 52.634331 
L 29.733406 52.652001 
L 30.165427 52.669671 
L 30.597448 52.687341 
L 31.029468 52.705011 
L 31.540822 52.696135 
L 32.052175 52.687259 
L 32.563528 52.678383 
L 33.074881 52.669507 
L 33.564191 52.687177 
L 34.053501 52.704847 
L 34.542811 52.722517 
L 35.032122 52.740187 
L 35.342906 52.773267 
L 35.65369 52.806347 
L 35.964474 52.839427 
L 36.275258 52.872507 
L 36.586042 52.905587 
L 36.896826 52.938667 
L 37.20761 52.971747 
L 37.518394 53.004827 
L 37.950415 53.088575 
L 38.382436 53.172323 
L 38.814456 53.256071 
L 39.246477 53.339819 
L 39.590326 53.445593 
L 39.934174 53.551367 
L 40.278023 53.657141 
L 40.621872 53.762915 
L 41.027485 53.926055 
L 41.433099 54.089195 
L 41.838713 54.252335 
L 42.244327 54.415475 
L 42.588175 54.583054 
L 42.932024 54.750632 
L 43.275873 54.91821 
L 43.619721 55.085788 
L 43.998816 55.332676 
L 44.377911 55.579564 
L 44.757007 55.967484 
L 45.136102 56.355404 
L 45.399051 56.656289 
L 45.662001 56.957173 
L 45.924951 57.258058 
L 46.1879 57.558942 
L 46.468529 58.070471 
L 46.749158 58.581999 
" style="fill:none;stroke:#008000;stroke-linecap:square;stroke-width:0.4;"/>
   </g>
   <g id="line2d_14">
    <path clip-path="url(#p2b9425a330)" d="M 33.145598 4.33139 
L 33.445248 4.516473 
L 33.744899 4.701557 
L 34.194711 4.974909 
L 34.644523 5.248261 
L 34.988259 5.539201 
L 35.331996 5.830141 
L 35.63187 6.165298 
L 35.931745 6.500454 
L 36.293161 6.905962 
L 36.654577 7.31147 
L 37.0424 7.63775 
L 37.430222 7.96403 
L 37.862355 8.237382 
L 38.294487 8.510734 
L 38.708941 8.695982 
L 39.123394 8.881231 
L 39.634747 9.048727 
L 40.146101 9.216223 
L 40.604416 9.322079 
L 41.062732 9.427935 
L 41.565357 9.507327 
L 42.067983 9.586719 
L 42.621184 9.61006 
L 42.989314 9.84725 
L 43.357443 10.08444 
" style="fill:none;stroke:#008000;stroke-linecap:square;stroke-width:0.4;"/>
   </g>
   <g id="line2d_15">
    <path clip-path="url(#p2b9425a330)" d="M 68.321771 32.494709 
L 68.273321 32.812195 
L 68.224871 33.129681 
L 68.176421 33.447168 
L 68.127971 33.764654 
L 68.048751 34.35541 
L 67.96953 34.946166 
L 67.951851 35.475282 
L 67.934172 36.004399 
L 67.92522 36.489299 
L 67.916269 36.974199 
L 67.872183 37.274015 
L 67.828097 37.573831 
L 67.616842 38.137958 
L 67.519718 38.429063 
L 67.422595 38.720167 
L 67.387684 39.196191 
L 67.52867 39.566687 
L 67.722469 39.884091 
L 67.916269 40.201496 
L 68.127971 40.607168 
L 68.189737 40.951036 
L 68.251502 41.294904 
L 68.251502 41.894536 
L 68.251502 42.494168 
L 68.234969 42.806086 
L 68.218437 43.118004 
L 68.201905 43.429923 
L 68.185373 43.741841 
L 68.16884 44.053759 
L 68.152308 44.365677 
L 68.135776 44.677595 
L 68.119244 44.989513 
L 68.102711 45.301431 
L 68.086179 45.613349 
L 68.069647 45.925267 
L 68.053115 46.237185 
L 68.036582 46.549103 
L 68.02005 46.861021 
L 68.003518 47.172939 
L 67.986986 47.484858 
L 67.947263 47.859628 
L 67.907541 48.234398 
L 67.867819 48.609168 
L 67.828097 48.983938 
L 67.748876 49.292466 
L 67.669656 49.600994 
L 67.440498 50.130275 
L 67.175982 50.55337 
L 66.911466 50.976466 
L 66.691035 51.311622 
L 66.470605 51.646779 
L 66.100462 52.096503 
L 65.730318 52.546227 
L 65.351223 52.898971 
L 64.972128 53.251715 
L 64.645847 53.533779 
L 64.319565 53.815843 
L 63.843794 54.18634 
L 63.552871 54.415558 
L 63.261948 54.644776 
L 62.971025 54.873993 
L 62.680102 55.103211 
L 62.362325 55.508884 
" style="fill:none;stroke:#4169e1;stroke-linecap:square;stroke-width:0.4;"/>
   </g>
   <g id="line2d_16">
    <path clip-path="url(#p2b9425a330)" d="M 41.997266 20.097049 
L 41.701923 20.233725 
L 41.40658 20.370401 
L 41.111238 20.507077 
L 40.815895 20.643754 
L 40.520552 20.78043 
L 40.225209 20.917106 
L 39.929866 21.053782 
L 39.634524 21.190458 
L 39.237749 21.428552 
L 38.840975 21.666646 
L 38.444201 21.90474 
L 38.047427 22.142834 
L 37.747664 22.336876 
L 37.447901 22.530919 
L 37.148139 22.724961 
L 36.848376 22.919003 
L 36.566293 23.051241 
L 36.284209 23.183479 
L 36.002126 23.315717 
L 35.720043 23.447955 
L 35.389397 23.637518 
L 35.058752 23.827081 
L 34.728107 24.016644 
L 34.397462 24.206207 
L 34.066817 24.39577 
L 33.736171 24.585333 
L 33.405526 24.774896 
L 33.074881 24.964459 
L 32.722249 25.184924 
L 32.369616 25.405389 
L 32.016984 25.625854 
L 31.664352 25.846319 
L 31.31172 26.066784 
L 30.959087 26.28725 
L 30.606455 26.507715 
L 30.253823 26.72818 
L 29.848209 26.975068 
L 29.442595 27.221956 
L 29.036981 27.468844 
L 28.631368 27.715732 
L 28.340445 27.84797 
L 28.049522 27.980208 
L 27.758599 28.112446 
L 27.467676 28.244684 
L 26.991457 28.385716 
L 26.515238 28.526748 
L 26.180229 28.60614 
L 25.84522 28.685532 
L 25.510211 28.764924 
L 25.175202 28.844316 
L 24.831354 28.9016 
L 24.487505 28.958884 
L 24.143656 29.016168 
L 23.799808 29.073452 
L 23.478002 29.104354 
L 23.156196 29.135256 
L 22.834391 29.166158 
L 22.512585 29.19706 
L 22.212711 29.272014 
L 21.912836 29.346968 
L 21.612962 29.421922 
L 21.313087 29.496877 
L 20.854772 29.593856 
L 20.396456 29.690836 
L 19.999682 29.68196 
L 19.602907 29.673084 
L 19.055972 29.549805 
L 18.624063 29.408608 
L 18.192155 29.267412 
" style="fill:none;stroke:#008000;stroke-linecap:square;stroke-width:0.4;"/>
   </g>
   <g id="line2d_17">
    <path clip-path="url(#p2b9425a330)" d="M 33.145598 4.33139 
L 32.740096 4.401906 
L 32.334594 4.472422 
L 31.946547 4.648794 
L 31.558501 4.825166 
L 31.13532 4.94861 
L 30.712139 5.072054 
L 30.23592 5.089642 
L 29.759701 5.10723 
L 29.460051 5.177746 
L 29.1604 5.248261 
L 28.70186 5.459974 
L 28.243321 5.671686 
L 27.908312 5.742202 
L 27.573303 5.812718 
L 27.008912 5.847894 
L 26.47988 5.988926 
L 26.250722 6.200638 
L 26.021564 6.41235 
L 25.774727 6.641568 
L 25.52789 6.870786 
L 25.281053 7.100004 
L 25.034216 7.329222 
L 24.575677 7.681966 
L 24.117138 8.03471 
L 23.852621 8.219876 
L 23.588105 8.405043 
L 23.323589 8.590209 
L 23.059073 8.775375 
L 22.697545 8.995799 
L 22.336017 9.216223 
L 21.97449 9.436647 
L 21.612962 9.657071 
L 21.083929 9.903959 
L 20.554897 10.150847 
L 20.131716 10.344807 
L 19.708535 10.538767 
L 19.42634 10.785655 
L 19.144144 11.032543 
L 18.685829 11.314935 
L 18.385954 11.473555 
L 18.08608 11.632175 
L 17.715712 11.685103 
L 17.345345 11.738031 
L 16.939843 11.826299 
L 16.534341 11.914568 
L 16.199332 12.073188 
L 15.864323 12.231807 
L 15.35297 12.514036 
L 14.841617 12.796264 
L 14.594556 13.09608 
L 14.347495 13.395896 
L 14.153696 13.748476 
L 13.959896 14.101056 
L 13.783552 14.559656 
L 13.607208 15.018256 
L 13.510196 15.326866 
L 13.413185 15.635476 
L 13.316173 15.944087 
L 13.219161 16.252697 
L 13.183803 16.746473 
L 13.148445 17.240249 
L 13.148445 17.839881 
L 13.148445 18.439513 
L 13.007459 18.721742 
L 12.866473 19.00397 
L 12.690129 19.39189 
L 12.654771 19.920842 
L 12.637092 20.467546 
L 12.619412 21.01425 
L 12.584278 21.419922 
L 12.549143 21.825595 
L 12.460971 22.231102 
L 12.372799 22.63661 
L 12.196455 23.042283 
L 12.020111 23.447955 
L 11.826088 23.888803 
L 11.632064 24.329651 
L 11.561572 24.647055 
L 11.491079 24.964459 
L 11.491079 25.334791 
L 11.491079 25.705123 
L 11.45572 26.146135 
L 11.420362 26.587148 
L 11.314511 26.939728 
L 11.20866 27.292308 
L 10.89133 27.715732 
L 10.697306 28.050724 
L 10.503283 28.385716 
L 10.291581 28.685532 
L 10.079878 28.985348 
L 9.815362 29.205772 
L 9.550846 29.426196 
L 9.28633 29.64662 
L 9.021814 29.867044 
" style="fill:none;stroke:#008000;stroke-linecap:square;stroke-width:0.4;"/>
   </g>
   <g id="line2d_18">
    <path clip-path="url(#p2b9425a330)" d="M 27.467676 28.244684 
L 27.996708 28.359252 
L 28.52574 28.47382 
L 28.984056 28.791388 
L 29.301386 28.914832 
L 29.618716 29.038276 
L 29.931793 29.122024 
L 30.244871 29.205772 
L 30.557949 29.28952 
L 30.871027 29.373268 
L 31.285257 29.435072 
L 31.699486 29.496877 
L 32.096261 29.510109 
L 32.493035 29.523341 
L 32.889809 29.536573 
L 33.286583 29.549805 
L 33.833295 29.58498 
L 34.380006 29.620156 
L 34.926494 29.726012 
L 35.261727 29.902549 
L 35.402713 30.219788 
L 35.38481 30.466676 
L 35.19101 30.784245 
L 34.979308 31.013381 
L 34.485634 31.295773 
L 34.181507 31.405985 
L 33.877381 31.516197 
L 33.573254 31.626409 
L 33.269128 31.736621 
L 32.766503 31.992221 
L 32.263877 32.247821 
L 31.858375 32.565389 
L 31.452873 32.882958 
L 31.020853 33.222388 
L 30.588832 33.561818 
L 30.156811 33.901248 
L 29.724791 34.240678 
L 29.460274 34.452308 
L 29.195758 34.663938 
L 28.931242 34.875568 
L 28.666726 35.087198 
L 28.384307 35.510294 
L 28.331493 35.88079 
L 28.543196 36.26871 
L 28.860525 36.498175 
L 29.2573 36.63033 
L 29.654074 36.762486 
L 29.962676 36.78895 
L 30.271278 36.815414 
L 30.57988 36.841878 
L 30.888483 36.868342 
L 31.205812 36.930147 
L 31.523142 36.991951 
L 31.946323 37.141859 
L 32.369505 37.291767 
L 32.819204 37.459263 
L 33.268904 37.626759 
L 33.718604 37.794255 
L 34.168304 37.961751 
L 34.498949 38.027911 
L 34.829594 38.094071 
L 35.16024 38.160231 
L 35.490885 38.226391 
L 35.816942 38.243979 
L 36.143 38.261567 
L 36.619218 38.261567 
L 37.095437 38.261567 
L 37.659828 38.367423 
L 38.170957 38.596559 
L 38.470832 38.728879 
L 38.770706 38.861199 
L 38.933623 39.017682 
L 39.211566 39.284295 
L 39.317194 39.689967 
L 39.317194 40.042711 
L 39.317194 40.395455 
L 39.317194 40.71286 
L 39.317194 41.030264 
L 39.317194 41.347668 
L 39.317194 41.665072 
L 39.281835 42.061868 
L 39.246477 42.458664 
L 39.163005 43.008327 
L 39.079532 43.55799 
" style="fill:none;stroke:#4169e1;stroke-linecap:square;stroke-width:0.4;"/>
   </g>
   <g id="line2d_19">
    <path clip-path="url(#p2b9425a330)" d="M 8.665545 36.268053 
L 8.734471 36.594908 
L 8.803398 36.921764 
L 8.872324 37.248619 
L 8.94125 37.575474 
L 9.13684 38.104591 
L 9.33243 38.633707 
L 9.528132 38.893416 
L 9.723833 39.153125 
L 9.919535 39.412834 
L 10.115237 39.672544 
L 10.556097 40.025123 
L 10.996957 40.377703 
L 11.332078 40.580539 
L 11.667199 40.783375 
L 12.00232 40.986212 
L 12.337441 41.189048 
L 12.690129 41.409472 
L 13.042817 41.629896 
L 13.395505 41.85032 
L 13.748194 42.070744 
L 14.030389 42.37056 
L 14.312584 42.670376 
L 14.524063 43.058296 
L 14.735542 43.446216 
L 14.850232 43.746032 
L 14.964923 44.045848 
L 15.079614 44.345664 
L 15.194305 44.645481 
L 15.317723 44.980555 
L 15.441142 45.315629 
L 15.56456 45.650703 
L 15.687979 45.985777 
L 15.917137 46.303181 
L 16.146294 46.620585 
L 16.481304 46.955741 
L 16.816313 47.290898 
L 17.204359 47.537786 
L 17.592406 47.784674 
L 18.103759 47.996222 
L 18.615112 48.207769 
L 19.011886 48.304749 
L 19.40866 48.401729 
L 19.805435 48.498709 
L 20.202209 48.595689 
L 20.554897 48.675082 
L 20.907585 48.754474 
L 21.260274 48.833866 
L 21.612962 48.913258 
L 22.159673 49.107218 
L 22.706385 49.301178 
L 23.014987 49.45988 
L 23.323589 49.618582 
L 23.632191 49.777284 
L 23.940793 49.935986 
L 24.201281 50.058279 
L 24.56818 50.230542 
L 24.935079 50.402805 
L 25.301977 50.575068 
L 25.668876 50.74733 
L 25.959799 50.906032 
L 26.250722 51.064734 
L 26.541645 51.223436 
L 26.832568 51.382138 
L 27.268505 51.76184 
" style="fill:none;stroke:#008000;stroke-linecap:square;stroke-width:0.4;"/>
   </g>
   <g id="line2d_20">
    <path clip-path="url(#p2b9425a330)" d="M 41.997266 20.097049 
L 42.244103 20.441 
L 42.49094 20.78495 
L 42.737777 21.1289 
L 42.984614 21.47285 
L 43.099305 21.851976 
L 43.213996 22.231102 
L 43.328686 22.610228 
L 43.443377 22.989354 
L 43.575635 23.359687 
L 43.707893 23.730019 
L 43.840151 24.100351 
L 43.97241 24.470683 
L 44.078149 24.876355 
L 44.183888 25.282027 
L 44.289628 25.6877 
L 44.395367 26.093372 
L 44.518785 26.604736 
L 44.642204 27.1161 
L 44.765622 27.627464 
L 44.889041 28.138828 
L 44.977213 28.703202 
L 45.065385 29.267576 
L 45.153557 29.831951 
L 45.241729 30.396325 
L 45.285815 30.766657 
L 45.329901 31.136989 
L 45.373987 31.507321 
L 45.418073 31.877653 
L 45.462159 32.247985 
L 45.506245 32.618317 
L 45.550331 32.988649 
L 45.594417 33.358982 
L 45.628181 33.682878 
L 45.661945 34.006775 
L 45.695709 34.330672 
L 45.729473 34.654569 
L 45.763237 34.978465 
L 45.797 35.302362 
L 45.830764 35.626259 
L 45.864528 35.950156 
L 45.898292 36.274052 
L 45.932056 36.597949 
L 45.96582 36.921846 
L 45.999584 37.245742 
L 46.033347 37.569639 
L 46.067111 37.893536 
L 46.100875 38.217433 
L 46.134639 38.541329 
L 46.246085 39.072583 
L 46.357531 39.603836 
" style="fill:none;stroke:#000000;stroke-linecap:square;stroke-width:0.4;"/>
   </g>
   <g id="line2d_21">
    <path clip-path="url(#p2b9425a330)" d="M 59.259295 38.805312 
L 59.171123 39.177124 
L 59.082951 39.548935 
L 58.941965 40.007536 
L 58.906607 40.571663 
L 58.968372 40.90682 
L 59.030137 41.241976 
L 59.109582 41.603432 
L 59.189026 41.964888 
L 59.281562 42.33522 
L 59.374098 42.705552 
L 59.466634 43.075884 
L 59.55917 43.446216 
L 59.656069 44.001796 
L 59.752969 44.557377 
L 59.770648 44.874781 
L 59.788327 45.192185 
L 59.806007 45.509589 
L 59.823686 45.826993 
L 59.847911 46.331823 
L 59.872136 46.836653 
L 59.896361 47.341483 
L 59.920585 47.846313 
L 59.94481 48.351144 
L 59.969035 48.855974 
L 59.99326 49.360804 
L 60.017485 49.865634 
L 59.991078 50.429926 
L 59.964672 50.994218 
L 59.885227 51.452819 
L 59.805783 51.911419 
L 59.585576 52.272875 
L 59.36537 52.634331 
L 59.030361 53.110519 
L 58.695352 53.586707 
L 58.430836 53.877647 
L 58.16632 54.168587 
L 57.901804 54.459527 
L 57.637287 54.750467 
L 57.328685 54.992999 
L 57.020083 55.235532 
L 56.711481 55.478064 
L 56.402879 55.720596 
L 56.091255 55.850944 
L 55.779632 55.981291 
L 55.468009 56.111639 
L 55.156385 56.241987 
L 54.872959 56.349733 
L 54.589533 56.45748 
L 54.306107 56.565226 
L 54.022681 56.672972 
" style="fill:none;stroke:#4169e1;stroke-linecap:square;stroke-width:0.4;"/>
   </g>
   <g id="line2d_22">
    <path clip-path="url(#p2b9425a330)" d="M 51.025279 8.987087 
L 51.085253 9.557132 
L 51.145228 10.127177 
L 51.205203 10.697222 
L 51.265178 11.267267 
L 51.270269 11.612944 
L 51.27536 11.95862 
L 51.280452 12.304296 
L 51.285543 12.649972 
L 51.290634 12.995648 
L 51.295725 13.341324 
L 51.300816 13.687 
L 51.305907 14.032677 
L 51.299865 14.386407 
L 51.293823 14.740137 
L 51.285851 15.21162 
L 51.277878 15.683104 
L 51.269906 16.154587 
L 51.261933 16.62607 
L 51.253961 17.097553 
L 51.245988 17.569036 
L 51.238016 18.040519 
L 51.230044 18.512002 
L 51.222071 18.983485 
L 51.214099 19.454968 
L 51.206126 19.926451 
L 51.198154 20.397934 
L 51.190182 20.869417 
L 51.182209 21.3409 
L 51.174237 21.812383 
L 51.166264 22.283866 
L 51.169565 22.595794 
L 51.172866 22.907723 
L 51.176167 23.219651 
L 51.179468 23.531579 
L 51.182769 23.843508 
L 51.18607 24.155436 
L 51.18937 24.467365 
L 51.192671 24.779293 
L 51.195972 25.091221 
L 51.199273 25.40315 
L 51.202574 25.715078 
L 51.205875 26.027006 
L 51.209176 26.338935 
L 51.212476 26.650863 
L 51.215777 26.962791 
L 51.219078 27.27472 
L 51.222379 27.586648 
L 51.22568 27.898576 
L 51.228981 28.210505 
L 51.232282 28.522433 
L 51.235582 28.834361 
L 51.238883 29.14629 
L 51.242184 29.458218 
L 51.245485 29.770146 
L 51.248786 30.082075 
L 51.252087 30.394003 
L 51.255388 30.705931 
L 51.258688 31.01786 
L 51.261989 31.329788 
L 51.26529 31.641716 
L 51.268591 31.953645 
L 51.271892 32.265573 
L 51.272773 32.61691 
L 51.273654 32.968247 
L 51.274535 33.319583 
L 51.275416 33.67092 
L 51.276298 34.022257 
L 51.277179 34.373594 
L 51.27806 34.72493 
L 51.278941 35.076267 
L 51.279822 35.427604 
L 51.280703 35.778941 
L 51.281585 36.130277 
L 51.282466 36.481614 
L 51.283347 36.832951 
L 51.284228 37.184288 
L 51.285109 37.535624 
L 51.28599 37.886961 
L 51.286872 38.238298 
L 51.287753 38.589635 
L 51.288634 38.940971 
L 51.289515 39.292308 
L 51.290396 39.643645 
L 51.291277 39.994982 
L 51.292159 40.346318 
L 51.29304 40.697655 
L 51.293921 41.048992 
L 51.294802 41.400329 
L 51.295683 41.751665 
L 51.296564 42.103002 
L 51.297445 42.454339 
L 51.298327 42.805675 
L 51.299208 43.157012 
L 51.300089 43.508349 
" style="fill:none;stroke:#4169e1;stroke-linecap:square;stroke-width:0.4;"/>
   </g>
   <g id="line2d_23">
    <path clip-path="url(#p2b9425a330)" d="M 57.549115 7.11751 
L 57.725459 7.426202 
L 57.901804 7.734894 
L 58.201678 8.122814 
L 58.536463 8.581415 
L 58.747942 9.013387 
L 58.959421 9.445358 
L 59.021186 9.762927 
L 59.082951 10.080495 
L 59.127037 10.450827 
L 59.171123 10.821159 
L 59.167766 11.369836 
L 59.164409 11.918513 
L 59.161724 12.371607 
L 59.159039 12.8247 
L 59.156353 13.277794 
L 59.153668 13.730888 
L 59.077244 14.264442 
L 59.000821 14.797997 
L 58.924398 15.331551 
L 58.847975 15.865105 
L 58.839918 16.396317 
L 58.831862 16.927529 
L 58.823806 17.458741 
L 58.815749 17.989954 
L 58.807693 18.521166 
L 58.799637 19.052378 
L 58.79158 19.58359 
L 58.783524 20.114802 
L 58.757061 20.637261 
L 58.730598 21.15972 
L 58.704136 21.682179 
L 58.677673 22.204638 
L 58.65121 22.727098 
L 58.624747 23.249557 
L 58.598284 23.772016 
L 58.571822 24.294475 
L 58.576241 24.598688 
L 58.580661 24.902901 
L 58.585081 25.207114 
L 58.589501 25.511327 
L 58.593921 25.815541 
L 58.59834 26.119754 
L 58.60276 26.423967 
L 58.60718 26.72818 
L 58.644608 27.186698 
L 58.682037 27.645216 
L 58.719465 28.103734 
L 58.756893 28.562252 
L 58.794322 29.02077 
L 58.83175 29.479289 
L 58.869179 29.937807 
L 58.906607 30.396325 
L 58.937461 30.739104 
L 58.968316 31.081883 
L 58.999171 31.424662 
L 59.030025 31.767441 
L 59.06088 32.11022 
L 59.091735 32.452999 
L 59.122589 32.795778 
L 59.153444 33.138558 
L 59.184298 33.481337 
L 59.215153 33.824116 
L 59.246008 34.166895 
L 59.276862 34.509674 
L 59.307717 34.852453 
L 59.338572 35.195232 
L 59.369426 35.538011 
L 59.400281 35.88079 
L 59.40912 36.299612 
L 59.41796 36.718434 
L 59.4268 37.137256 
L 59.435639 37.556078 
L 59.391553 37.868387 
L 59.347467 38.180695 
L 59.303381 38.493004 
L 59.259295 38.805312 
" style="fill:none;stroke:#000000;stroke-linecap:square;stroke-width:0.4;"/>
   </g>
   <g id="line2d_24">
    <path clip-path="url(#p2b9425a330)" d="M 66.699763 16.817153 
L 67.052451 16.887669 
L 67.40514 16.958185 
L 67.616842 17.152145 
L 67.757828 17.425497 
L 67.898813 17.698849 
L 68.009029 18.055949 
L 68.119244 18.413049 
L 68.229459 18.770149 
L 68.339674 19.127249 
L 68.392487 19.532922 
L 68.445301 19.938594 
L 68.445301 20.344102 
L 68.445301 20.74961 
L 68.418894 21.11123 
L 68.392487 21.47285 
L 68.427846 21.878523 
L 68.60419 22.336794 
L 68.665731 22.63661 
L 68.727273 22.936426 
L 68.718489 23.361906 
L 68.709705 23.787385 
L 68.700922 24.212864 
L 68.692138 24.638343 
L 68.683355 25.063822 
L 68.674571 25.489301 
L 68.665787 25.914781 
L 68.657004 26.34026 
L 68.639324 26.67969 
L 68.621645 27.01912 
L 68.603966 27.35855 
L 68.586287 27.69798 
L 68.595238 28.041848 
L 68.60419 28.385716 
L 68.60419 28.839878 
L 68.60419 29.29404 
L 68.60419 29.748203 
L 68.60419 30.202365 
L 68.621645 30.731317 
L 68.639101 31.260269 
L 68.612694 31.621889 
L 68.586287 31.983509 
L 68.321771 32.494709 
" style="fill:none;stroke:#4169e1;stroke-linecap:square;stroke-width:0.4;"/>
   </g>
   <g id="line2d_25">
    <path clip-path="url(#p2b9425a330)" d="M 66.699763 16.817153 
L 66.347075 17.143269 
L 65.994387 17.469385 
L 65.730094 17.654633 
L 65.465802 17.839881 
L 65.016214 18.139697 
L 64.566626 18.439513 
L 64.191895 18.646705 
L 63.817164 18.853897 
L 63.442432 19.061089 
L 63.067701 19.268281 
L 62.723964 19.462241 
L 62.380228 19.656201 
L 62.133167 19.920842 
L 62.186428 20.185482 
L 62.485855 20.414618 
L 62.962074 20.74961 
L 63.367576 21.190458 
L 63.539444 21.494712 
L 63.711312 21.798966 
L 63.883181 22.10322 
L 64.055049 22.407474 
L 64.1609 22.707291 
L 64.266752 23.007107 
L 64.266752 23.500883 
L 64.231393 23.809411 
L 64.196035 24.117939 
L 64.072728 24.523611 
L 63.949422 24.929283 
L 63.773078 25.282027 
L 63.596733 25.634771 
L 63.420389 26.110795 
L 63.393982 26.437075 
L 63.367576 26.763356 
L 63.393982 27.107224 
L 63.420389 27.451092 
L 63.446796 27.768496 
L 63.473203 28.0859 
L 63.649547 28.438644 
L 63.84357 28.747336 
L 64.037594 29.056028 
L 64.372379 29.426196 
L 64.901411 29.620156 
L 65.165927 29.796693 
L 65.201286 30.219788 
L 65.271779 30.731235 
L 65.342272 31.242681 
L 65.412764 31.754127 
L 65.483257 32.265573 
L 65.509664 32.688833 
L 65.536071 33.112093 
L 65.412988 33.658798 
L 65.289458 33.985078 
L 65.165927 34.311358 
L 64.989583 34.677252 
L 64.813239 35.043146 
L 64.636895 35.40904 
L 64.460551 35.774934 
L 64.196035 36.295174 
L 63.931519 36.815414 
L 63.89907 37.209416 
L 63.866621 37.603418 
" style="fill:none;stroke:#4169e1;stroke-linecap:square;stroke-width:0.4;"/>
   </g>
   <g id="line2d_26">
    <path clip-path="url(#p2b9425a330)" d="M 43.725349 56.743324 
L 43.87081 57.082795 
L 44.016272 57.422266 
L 44.161733 57.761737 
L 44.307195 58.101208 
L 44.452656 58.440679 
L 44.598118 58.78015 
L 44.743579 59.119622 
L 44.889041 59.459093 
L 45.021299 59.820631 
L 45.153557 60.182169 
L 45.285815 60.543707 
L 45.418073 60.905245 
" style="fill:none;stroke:#008000;stroke-linecap:square;stroke-width:0.4;"/>
   </g>
   <g id="line2d_27">
    <path clip-path="url(#p2b9425a330)" d="M 43.357443 10.08444 
L 43.105571 10.295084 
L 42.853699 10.505728 
L 42.601826 10.716372 
L 42.349954 10.927016 
L 42.085438 11.173904 
L 41.820922 11.420792 
L 41.609443 11.755784 
L 41.397965 12.090775 
L 41.274434 12.496448 
L 41.150904 12.90212 
L 41.09809 13.360556 
L 41.045276 13.818992 
L 41.045276 14.16286 
L 41.045276 14.506728 
L 41.045276 14.850596 
L 41.045276 15.194464 
L 41.089362 15.49428 
L 41.133449 15.794096 
L 41.177535 16.093912 
L 41.221621 16.393729 
L 41.265707 16.693545 
L 41.309793 16.993361 
L 41.353879 17.293177 
L 41.397965 17.592993 
L 41.472877 17.906 
L 41.54779 18.219007 
L 41.622703 18.532014 
L 41.697615 18.845021 
L 41.772528 19.158028 
L 41.847441 19.471035 
L 41.922353 19.784042 
L 41.997266 20.097049 
" style="fill:none;stroke:#4169e1;stroke-linecap:square;stroke-width:0.4;"/>
   </g>
   <g id="line2d_28">
    <path clip-path="url(#p2b9425a330)" d="M 33.145598 4.33139 
L 33.3573 4.895517 
L 33.321942 5.407046 
L 33.286583 5.918574 
L 33.163053 6.500454 
L 33.039523 7.082334 
L 32.898537 7.664378 
L 32.757551 8.246423 
L 32.548226 8.614741 
L 32.338902 8.98306 
L 32.129577 9.351378 
L 31.920252 9.719697 
L 31.710928 10.088015 
L 31.501603 10.456334 
L 31.292278 10.824652 
L 31.082953 11.192971 
L 30.873629 11.561289 
L 30.664304 11.929608 
L 30.454979 12.297926 
L 30.245655 12.666245 
L 30.03633 13.034563 
L 29.827005 13.402882 
L 29.617681 13.7712 
L 29.408356 14.139519 
L 29.01091 14.510015 
L 28.613465 14.880512 
L 28.216019 15.251008 
L 27.818573 15.621505 
L 27.421128 15.992001 
L 27.023682 16.362498 
L 26.626237 16.732994 
L 26.228791 17.103491 
L 25.836269 17.515409 
L 25.443746 17.927327 
L 25.288438 18.205282 
L 25.13313 18.483236 
L 24.977822 18.761191 
L 24.822514 19.039146 
" style="fill:none;stroke:#008000;stroke-linecap:square;stroke-width:0.4;"/>
   </g>
   <g id="line2d_29">
    <path clip-path="url(#p2b9425a330)" d="M 33.145598 4.33139 
L 32.898537 3.784357 
L 32.175705 3.449529 
L 31.699486 3.273157 
L 28.490382 2.920413 
L 26.47988 3.202477 
L 25.201609 3.581685 
L 23.341044 4.33139 
L 21.260274 4.701557 
L 18.015811 5.17791 
L 17.416062 5.636181 
L 15.370425 8.03471 
L 13.571626 9.621895 
L 9.939116 13.695712 
L 8.7752 15.018256 
L 6.376652 18.227801 
L 5.741992 18.757082 
L 4.189806 19.673954 
L 3.696132 20.343937 
L 3.272727 22.672115 
L 3.361123 23.730183 
L 3.449519 24.047587 
L 4.507584 24.788251 
L 7.152745 25.458235 
L 8.563498 26.72818 
L 8.986903 28.244684 
L 8.995407 30.246252 
L 8.951545 32.089201 
L 8.933865 33.306053 
L 8.665545 36.268053 
L 8.665545 36.268053 
" style="fill:none;stroke:#008000;stroke-linecap:square;stroke-width:0.4;"/>
   </g>
   <g id="line2d_30">
    <path clip-path="url(#p2b9425a330)" d="M 48.478136 9.266521 
L 48.297092 9.594116 
L 48.116048 9.921711 
L 47.833629 10.450663 
L 47.516299 10.927016 
L 47.251783 11.279431 
L 46.978539 11.596999 
L 46.705296 11.914568 
L 46.370063 12.231807 
L 45.999919 12.566799 
L 45.700045 12.919543 
L 45.523701 13.431072 
L 45.435529 13.783816 
L 45.347356 14.13656 
L 45.241729 14.52448 
L 45.136102 14.9124 
L 44.986164 15.176876 
L 44.836227 15.441352 
L 44.659883 15.697116 
L 44.483539 15.95288 
L 44.254381 16.393729 
L 44.122123 16.816989 
L 43.989865 17.240249 
L 43.945779 17.548941 
L 43.901693 17.857633 
L 43.796065 18.157449 
L 43.496191 18.598298 
L 43.222276 18.966657 
L 42.948361 19.335017 
L 42.710587 19.525525 
L 42.472813 19.716033 
L 42.23504 19.906541 
L 41.997266 20.097049 
" style="fill:none;stroke:#008000;stroke-linecap:square;stroke-width:0.4;"/>
   </g>
   <g id="line2d_31">
    <path clip-path="url(#p2b9425a330)" d="M 59.259295 38.805312 
L 59.087427 39.145564 
L 58.915558 39.485816 
L 58.74369 39.826068 
L 58.571822 40.16632 
L 58.360119 40.642344 
L 58.192727 40.90682 
L 58.025334 41.171295 
L 57.787225 41.391719 
L 57.549115 41.612144 
L 57.355092 41.9473 
L 57.161069 42.282456 
L 56.984725 42.776232 
L 56.808381 43.270008 
L 56.649716 43.54336 
L 56.491051 43.816712 
L 56.332386 44.090065 
L 56.173721 44.363417 
L 55.953291 44.654357 
L 55.732861 44.945297 
L 55.486247 45.492001 
L 55.3936 45.862333 
L 55.300952 46.232665 
L 55.208304 46.602997 
L 55.115656 46.973329 
" style="fill:none;stroke:#4169e1;stroke-linecap:square;stroke-width:0.4;"/>
   </g>
   <g id="line2d_32">
    <path clip-path="url(#p2b9425a330)" d="M 44.70464 40.064737 
L 44.583124 40.483231 
L 44.461608 40.901724 
L 44.340091 41.320217 
L 44.218575 41.738711 
L 44.280452 42.068607 
L 44.342329 42.398503 
L 44.404206 42.7284 
L 44.466084 43.058296 
L 44.562983 43.613794 
L 44.659883 44.169292 
L 44.756783 44.72479 
L 44.853683 45.280289 
L 44.946274 45.716781 
L 45.038866 46.153273 
L 45.131458 46.589765 
L 45.22405 47.026257 
L 45.316642 47.462749 
L 45.409234 47.899242 
L 45.501825 48.335734 
L 45.594417 48.772226 
L 45.700268 49.160228 
L 45.80612 49.54823 
L 45.911971 49.936232 
L 46.017822 50.324235 
L 46.149968 50.615175 
L 46.282115 50.906115 
L 46.414261 51.197055 
L 46.546407 51.487994 
L 46.758109 51.981771 
L 46.969812 52.475547 
L 47.057984 52.837085 
L 47.146156 53.198623 
L 47.234328 53.560161 
L 47.3225 53.921699 
L 47.463486 54.247979 
L 47.604472 54.57426 
L 47.745457 54.90054 
L 47.886443 55.22682 
L 48.062787 55.755772 
L 48.239131 56.284724 
L 48.327303 56.575746 
L 48.415475 56.866768 
L 48.503647 57.15779 
L 48.591819 57.448812 
" style="fill:none;stroke:#4169e1;stroke-linecap:square;stroke-width:0.4;"/>
   </g>
   <g id="line2d_33">
    <path clip-path="url(#p2b9425a330)" d="M 43.357443 10.08444 
L 43.687417 10.295084 
L 44.017391 10.505728 
L 44.347365 10.716372 
L 44.677338 10.927016 
L 45.206371 11.120975 
L 45.735403 11.314935 
L 46.105659 11.403122 
L 46.475914 11.491308 
L 46.846169 11.579494 
L 47.216425 11.66768 
L 47.701371 11.826299 
L 48.186318 11.984919 
L 48.49492 12.161291 
L 48.803522 12.337664 
L 49.173665 12.655232 
L 49.358961 12.972636 
L 49.544257 13.29004 
L 49.817501 13.61632 
L 50.090744 13.9426 
L 50.319902 14.145272 
L 50.54906 14.347944 
L 50.752706 14.452814 
L 51.023265 14.596476 
L 51.293823 14.740137 
L 51.685114 14.853719 
L 52.076406 14.967301 
L 52.467697 15.080882 
L 52.858989 15.194464 
L 53.37907 15.379712 
L 53.89915 15.56496 
L 54.190073 15.648708 
L 54.480996 15.732456 
L 54.771919 15.816204 
L 55.062842 15.899952 
L 55.380396 15.979345 
L 55.69795 16.058737 
L 56.297251 16.129417 
L 56.826284 16.040984 
L 57.134886 15.988056 
L 57.443488 15.935128 
L 57.769545 15.873488 
L 58.095603 15.811849 
L 58.471789 15.838477 
L 58.847975 15.865105 
" style="fill:none;stroke:#008000;stroke-linecap:square;stroke-width:0.4;"/>
   </g>
   <g id="line2d_34">
    <path clip-path="url(#p2b9425a330)" d="M 51.300089 43.508349 
L 51.305823 43.970442 
L 51.311558 44.432535 
L 51.317293 44.894629 
L 51.323027 45.356722 
L 51.328762 45.818815 
L 51.334496 46.280908 
L 51.340231 46.743002 
L 51.345965 47.205095 
L 51.3517 47.667188 
L 51.357434 48.129281 
L 51.363169 48.591375 
L 51.368903 49.053468 
L 51.374638 49.515561 
L 51.380373 49.977654 
L 51.386107 50.439748 
L 51.391842 50.901841 
L 51.397576 51.363934 
L 51.403311 51.826027 
L 51.409045 52.288121 
L 51.41478 52.750214 
L 51.420514 53.212307 
L 51.426249 53.6744 
L 51.431983 54.136494 
L 51.437718 54.598587 
L 51.443452 55.06068 
L 51.449187 55.522773 
L 51.454922 55.984866 
L 51.460656 56.44696 
L 51.466391 56.909053 
L 51.472125 57.371146 
L 51.47786 57.833239 
L 51.483594 58.295333 
" style="fill:none;stroke:#4169e1;stroke-linecap:square;stroke-width:0.4;"/>
   </g>
   <g id="line2d_35">
    <path clip-path="url(#p2b9425a330)" d="M 42.096627 40.914545 
L 42.204045 41.267454 
L 42.311463 41.620362 
L 42.267824 41.968504 
L 42.224186 42.316646 
L 42.089242 42.614407 
L 41.954299 42.912169 
L 41.819355 43.20993 
L 41.684412 43.507691 
L 41.692133 43.853861 
L 41.699853 44.20003 
L 41.707574 44.546199 
L 41.715295 44.892369 
L 41.803467 45.412609 
L 41.891639 45.932849 
L 41.979811 46.453089 
L 42.067983 46.973329 
L 42.200241 47.423053 
L 42.332499 47.872778 
L 42.464757 48.322502 
L 42.597015 48.772226 
L 42.76452 49.027908 
L 42.932024 49.28359 
L 43.099529 49.539272 
L 43.267033 49.794954 
L 43.425698 50.068306 
L 43.584363 50.341658 
L 43.743028 50.61501 
L 43.901693 50.888362 
L 44.033951 51.214642 
L 44.166209 51.540923 
L 44.298467 51.867203 
L 44.430725 52.193483 
L 44.596048 52.663014 
L 44.76137 53.132545 
L 44.926693 53.602076 
L 45.092016 54.071607 
L 45.257338 54.541138 
L 45.422661 55.01067 
L 45.587983 55.480201 
L 45.753306 55.949732 
L 45.861955 56.352034 
L 45.970603 56.754337 
L 46.079252 57.15664 
L 46.1879 57.558942 
" style="fill:none;stroke:#4169e1;stroke-linecap:square;stroke-width:0.4;"/>
   </g>
   <g id="line2d_36">
    <path clip-path="url(#p2b9425a330)" d="M 59.164409 11.918513 
L 59.640852 11.937251 
L 60.117294 11.95599 
L 60.411126 12.04097 
L 60.704959 12.125951 
L 61.128364 12.372839 
L 61.533865 12.549211 
L 61.939367 12.725583 
L 62.265649 12.840316 
L 62.59193 12.955048 
L 62.979753 13.113668 
L 63.367576 13.272288 
L 63.86125 13.404608 
L 64.354924 13.536928 
L 64.875004 13.67796 
L 65.395085 13.818992 
L 65.668329 13.951312 
L 65.941573 14.083632 
L 66.206089 14.33052 
L 66.45315 14.771368 
L 66.576233 15.247392 
L 66.593912 15.66194 
L 66.611591 16.076489 
L 66.655677 16.446821 
L 66.699763 16.817153 
" style="fill:none;stroke:#4169e1;stroke-linecap:square;stroke-width:0.4;"/>
   </g>
   <g id="line2d_37">
    <path clip-path="url(#p2b9425a330)" d="M 46.357531 39.603836 
L 46.450011 39.955018 
L 46.542491 40.306201 
L 46.634971 40.657384 
L 46.727451 41.008566 
L 46.81993 41.359749 
L 46.91241 41.710932 
L 47.00489 42.062114 
L 47.09737 42.413297 
L 47.37867 42.826777 
L 47.659971 43.240257 
L 47.941271 43.653737 
L 48.222571 44.067217 
L 48.311023 44.601757 
L 48.399475 45.136298 
L 48.487926 45.670838 
L 48.576378 46.205379 
L 48.66483 46.73992 
L 48.753282 47.27446 
L 48.841734 47.809001 
L 48.930185 48.343541 
L 48.998105 48.758665 
L 49.066024 49.173789 
L 49.133943 49.588912 
L 49.201863 50.004036 
L 49.269782 50.41916 
L 49.337701 50.834284 
L 49.405621 51.249407 
L 49.47354 51.664531 
L 49.513206 52.048095 
L 49.552872 52.431659 
L 49.592539 52.815223 
L 49.632205 53.198787 
L 49.671871 53.582351 
L 49.711537 53.965916 
L 49.751204 54.34948 
L 49.79087 54.733044 
L 49.830536 55.116608 
L 49.870202 55.500172 
L 49.909869 55.883736 
L 49.949535 56.2673 
L 49.989201 56.650864 
L 50.028867 57.034428 
L 50.068534 57.417992 
L 50.1082 57.801557 
" style="fill:none;stroke:#4169e1;stroke-linecap:square;stroke-width:0.4;"/>
   </g>
   <g id="line2d_38">
    <path clip-path="url(#p2b9425a330)" d="M 57.549115 7.11751 
L 57.258192 7.399738 
L 56.967269 7.681966 
L 56.552816 8.069886 
L 56.138362 8.457806 
L 55.887162 8.656204 
L 55.635961 8.854602 
L 55.38476 9.053 
L 55.133559 9.251398 
L 54.904401 9.498286 
L 54.675244 9.745175 
L 54.375369 10.106795 
L 54.075495 10.468415 
L 53.864016 10.732891 
L 53.652537 10.997367 
L 53.37907 11.279595 
L 53.105602 11.561824 
L 52.753138 11.817423 
L 52.400673 12.073023 
L 52.047985 12.425767 
L 51.809876 12.725583 
L 51.571766 13.0254 
L 51.286662 13.430086 
L 51.001557 13.834772 
L 50.703025 14.308494 
L 50.404494 14.782217 
L 50.146915 15.039789 
L 49.889336 15.297361 
L 49.451721 15.549674 
L 49.014105 15.801986 
L 48.57649 16.054299 
L 48.138875 16.306611 
L 47.613647 16.595085 
L 47.088419 16.88356 
L 46.812937 17.025167 
L 46.537455 17.166774 
L 46.261974 17.308381 
L 45.986492 17.449989 
L 45.71101 17.591596 
L 45.435529 17.733203 
L 45.160047 17.87481 
L 44.884565 18.016418 
L 44.537472 18.161888 
L 44.190378 18.307358 
L 43.843284 18.452828 
L 43.496191 18.598298 
" style="fill:none;stroke:#008000;stroke-linecap:square;stroke-width:0.4;"/>
   </g>
   <g id="line2d_39">
    <path clip-path="url(#p2b9425a330)" d="M 24.822514 19.039146 
L 24.681416 19.37422 
L 24.540319 19.709294 
L 24.399221 20.044368 
L 24.258123 20.379442 
L 24.134593 20.961322 
L 24.011063 21.543202 
L 23.949409 21.957668 
L 23.887756 22.372134 
L 23.826103 22.786601 
L 23.764449 23.201067 
L 23.676277 23.562605 
L 23.588105 23.924143 
L 23.499933 24.285681 
L 23.411761 24.647219 
L 23.253096 25.052727 
L 23.094431 25.458235 
L 22.776878 25.881495 
L 22.459324 26.304755 
L 22.036143 26.604571 
L 21.612962 26.904388 
L 21.269113 27.098348 
L 20.925264 27.292308 
L 20.581416 27.486268 
L 20.237567 27.680228 
L 19.920125 27.87427 
L 19.602684 28.068312 
L 19.285242 28.262354 
L 18.9678 28.456396 
L 18.579977 28.861904 
L 18.192155 29.267412 
L 17.76875 29.532052 
L 17.345345 29.796693 
L 16.992657 29.973065 
L 16.639968 30.149437 
L 16.28728 30.325809 
L 15.934592 30.502181 
L 15.440918 30.784245 
L 14.947244 31.066309 
L 14.682728 31.330785 
L 14.418212 31.595261 
L 14.100882 31.895077 
L 13.783552 32.194893 
L 13.465998 32.336089 
L 13.148445 32.477285 
L 12.778077 32.582977 
L 12.40771 32.688669 
L 11.914036 33.006237 
L 11.632064 33.464838 
L 11.385227 33.923274 
L 11.13839 34.38171 
L 10.909009 34.787382 
L 10.679627 35.193054 
L 10.176107 35.461804 
L 9.672586 35.730553 
L 9.169065 35.999303 
L 8.665545 36.268053 
" style="fill:none;stroke:#4169e1;stroke-linecap:square;stroke-width:0.4;"/>
   </g>
   <g id="line2d_40">
    <path clip-path="url(#p2b9425a330)" d="M 42.634611 40.590073 
L 42.365619 40.752309 
L 42.096627 40.914545 
L 41.598254 41.215512 
L 41.09988 41.516478 
L 40.698295 41.946067 
L 40.296709 42.375656 
L 39.895123 42.805244 
L 39.493538 43.234833 
L 39.079532 43.55799 
L 38.821506 43.759346 
L 38.563479 43.960703 
L 38.305453 44.16206 
L 38.047427 44.363417 
L 37.760923 44.557418 
L 37.47442 44.751419 
L 37.187917 44.94542 
L 36.901414 45.139421 
L 36.614911 45.333422 
L 36.328407 45.527423 
L 36.041904 45.721424 
L 35.755401 45.915425 
L 35.433595 46.11822 
L 35.11179 46.321015 
L 34.789984 46.52381 
L 34.468178 46.726605 
L 34.146373 46.9294 
L 33.824567 47.132196 
L 33.502762 47.334991 
L 33.180956 47.537786 
L 32.850311 47.722952 
L 32.519666 47.908118 
L 32.18902 48.093284 
L 31.858375 48.27845 
L 31.52773 48.463616 
L 31.197085 48.648782 
L 30.86644 48.833948 
L 30.535794 49.019114 
L 30.14786 49.274796 
L 29.759925 49.530478 
L 29.37199 49.78616 
L 28.984056 50.041842 
L 28.7107 50.253472 
L 28.437344 50.465102 
L 28.163989 50.676732 
L 27.890633 50.888362 
L 27.579569 51.325101 
L 27.268505 51.76184 
" style="fill:none;stroke:#008000;stroke-linecap:square;stroke-width:0.4;"/>
   </g>
   <g id="line2d_41">
    <path clip-path="url(#p2b9425a330)" d="M 68.321771 32.494709 
L 68.11902 32.750473 
L 67.916269 33.006237 
L 67.665068 33.261919 
L 67.413867 33.517601 
L 67.162666 33.773283 
L 66.911466 34.028965 
L 66.673356 34.346534 
L 66.435247 34.664102 
L 66.223768 35.034434 
L 66.01229 35.404766 
L 65.756501 35.81915 
L 65.500713 36.233534 
L 65.271555 36.559814 
L 65.042397 36.886095 
L 64.786832 37.062467 
L 64.531268 37.238839 
L 64.198944 37.421128 
L 63.866621 37.603418 
L 63.394094 37.784639 
L 62.921568 37.96586 
L 62.449042 38.147081 
L 61.976516 38.328302 
L 61.541698 38.447637 
L 61.10688 38.566972 
L 60.612087 38.643734 
L 60.117294 38.720496 
L 59.688295 38.762904 
L 59.259295 38.805312 
" style="fill:none;stroke:#008000;stroke-linecap:square;stroke-width:0.4;"/>
   </g>
   <g id="line2d_42">
    <path clip-path="url(#p2b9425a330)" d="M 63.866621 37.603418 
L 64.004697 37.991338 
L 64.142774 38.379258 
L 64.25366 38.729043 
L 64.364546 39.078829 
L 64.475433 39.428614 
L 64.586319 39.7784 
L 64.692954 40.179305 
L 64.799588 40.580211 
L 64.906223 40.981116 
L 65.012857 41.382021 
L 65.11524 41.723588 
L 65.217622 42.065155 
L 65.320005 42.406722 
L 65.422387 42.748289 
L 65.413883 43.140647 
L 65.405379 43.533005 
L 65.251862 43.865696 
L 65.098344 44.198386 
L 64.859563 44.642029 
L 64.620782 45.085671 
L 64.544024 45.409814 
L 64.467265 45.733958 
L 64.544024 46.237267 
L 64.620782 46.740577 
L 64.535296 47.175672 
L 64.449809 47.610767 
L 64.245268 48.10668 
L 64.040727 48.602593 
L 64.002347 48.948105 
L 63.963968 49.293617 
L 63.925588 49.639128 
L 63.887209 49.98464 
L 63.934092 50.295962 
L 63.980976 50.607285 
L 64.027859 50.918607 
L 64.074742 51.229929 
L 63.993731 51.583988 
L 63.912721 51.938047 
L 63.83171 52.292107 
L 63.750699 52.646166 
L 63.616874 52.953296 
L 63.48305 53.260427 
L 63.349225 53.567558 
L 63.215401 53.874689 
L 63.081576 54.181819 
L 62.947751 54.48895 
L 62.813927 54.796081 
L 62.680102 55.103211 
" style="fill:none;stroke:#4169e1;stroke-linecap:square;stroke-width:0.4;"/>
   </g>
   <g id="line2d_43">
    <path clip-path="url(#p2b9425a330)" d="M 43.357443 10.08444 
L 43.811507 10.012609 
L 44.26557 9.940778 
L 44.695241 10.009815 
L 45.056657 10.009815 
L 45.418073 10.009815 
L 45.762034 9.939299 
L 46.105994 9.868783 
L 46.405645 9.780597 
L 46.705296 9.692411 
L 47.004946 9.604225 
L 47.304597 9.516039 
L 47.891366 9.39128 
L 48.478136 9.266521 
L 48.923024 9.188444 
L 49.367913 9.110367 
L 49.861587 9.030974 
L 50.355261 8.951582 
L 50.69027 8.969335 
L 51.025279 8.987087 
" style="fill:none;stroke:#008000;stroke-linecap:square;stroke-width:0.4;"/>
   </g>
   <g id="line2d_44">
    <path clip-path="url(#p2b9425a330)" d="M 58.847975 15.865105 
L 59.238707 15.838477 
L 59.629439 15.811849 
L 60.026213 15.8559 
L 60.422987 15.899952 
L 60.863847 15.961757 
L 61.304708 16.023561 
L 61.69253 16.080845 
L 62.080353 16.138129 
L 62.468176 16.195413 
L 62.855999 16.252697 
L 63.327742 16.332089 
L 63.799484 16.411481 
L 64.271227 16.490873 
L 64.74297 16.570265 
L 65.086707 16.640781 
L 65.430444 16.711297 
L 65.747773 16.737761 
L 66.065103 16.764225 
L 66.382433 16.790689 
L 66.699763 16.817153 
" style="fill:none;stroke:#008000;stroke-linecap:square;stroke-width:0.4;"/>
   </g>
  </g>
 </g>
 <defs>
  <clipPath id="p2b9425a330">
   <rect height="64.249083" width="72" x="0" y="0"/>
  </clipPath>
 </defs>
</svg>
