<?xml version="1.0" encoding="utf-8" standalone="no"?>
<!DOCTYPE svg PUBLIC "-//W3C//DTD SVG 1.1//EN"
  "http://www.w3.org/Graphics/SVG/1.1/DTD/svg11.dtd">
<svg height="72pt" version="1.1" viewBox="0 0 37.459827 72" width="37.459827pt" xmlns="http://www.w3.org/2000/svg" xmlns:xlink="http://www.w3.org/1999/xlink">
 <metadata>
  <rdf:RDF xmlns:cc="http://creativecommons.org/ns#" xmlns:dc="http://purl.org/dc/elements/1.1/" xmlns:rdf="http://www.w3.org/1999/02/22-rdf-syntax-ns#">
   <cc:Work>
    <dc:type rdf:resource="http://purl.org/dc/dcmitype/StillImage"/>
    <dc:date>2022-04-21T17:35:35.008211</dc:date>
    <dc:format>image/svg+xml</dc:format>
    <dc:creator>
     <cc:Agent>
      <dc:title>Matplotlib v3.4.3, https://matplotlib.org/</dc:title>
     </cc:Agent>
    </dc:creator>
   </cc:Work>
  </rdf:RDF>
 </metadata>
 <defs>
  <style type="text/css">*{stroke-linecap:butt;stroke-linejoin:round;}</style>
 </defs>
 <g id="figure_1">
  <g id="patch_1">
   <path d="M 0 72 
L 37.459827 72 
L 37.459827 0 
L 0 0 
z
" style="fill:#ffffff;"/>
  </g>
  <g id="axes_1">
   <g id="line2d_1">
    <path clip-path="url(#p90a37016cc)" d="M 34.445809 38.104074 
L 33.825017 37.156249 
L 33.204226 36.208424 
L 32.707281 35.449776 
L 32.210337 34.691127 
L 31.35503 33.385365 
L 30.499724 32.079602 
L 29.690755 30.844611 
L 28.881785 29.609619 
L 28.026904 28.30444 
L 27.172023 26.999261 
L 26.386717 25.800433 
L 25.601411 24.601605 
L 24.929182 23.575037 
L 24.135658 22.363572 
L 23.342133 21.152106 
L 22.71114 20.188727 
L 22.080146 19.225348 
L 21.543383 18.406233 
L 21.00662 17.587118 
L 20.272469 16.466254 
L 19.538317 15.345391 
L 18.865805 14.318823 
L 18.193293 13.292256 
L 17.278756 11.895892 
L 16.914018 11.339057 
L 16.548996 10.781833 
" style="fill:none;stroke:#808080;stroke-linecap:square;stroke-width:0.4;"/>
   </g>
   <g id="line2d_2">
    <path clip-path="url(#p90a37016cc)" d="M 29.439519 62.813624 
L 29.523548 61.872798 
L 29.607576 60.931973 
L 29.747293 59.370346 
L 29.861221 58.094914 
L 29.975148 56.819482 
L 30.096586 55.462197 
L 30.218023 54.104912 
L 30.302902 53.154949 
L 30.387781 52.204985 
L 30.522255 50.70052 
L 30.656729 49.196054 
L 30.773632 47.887959 
L 30.890535 46.579864 
L 31.019908 45.132754 
L 31.149281 43.685644 
L 31.238978 42.682214 
L 31.328674 41.678783 
L 31.384221 41.055843 
" style="fill:none;stroke:#808080;stroke-linecap:square;stroke-width:0.4;"/>
   </g>
   <g id="line2d_3">
    <path clip-path="url(#p90a37016cc)" d="M 27.472145 63.421787 
L 27.260019 62.451409 
L 27.047893 61.481031 
L 26.804451 60.366583 
L 26.475988 58.863284 
L 26.251747 57.837203 
L 26.027505 56.811122 
L 25.803264 55.785041 
L 25.579022 54.75896 
L 25.3156 53.553715 
L 25.052179 52.348471 
L 24.695518 50.716463 
L 24.338857 49.084454 
L 24.022864 47.638511 
L 23.706871 46.192568 
L 23.382093 44.705601 
L 23.165857 43.716363 
L 22.949622 42.727126 
L 22.733387 41.737888 
L 22.517151 40.748651 
L 22.169134 39.155916 
L 21.977696 38.280029 
L 21.786258 37.404142 
" style="fill:none;stroke:#808080;stroke-linecap:square;stroke-width:0.4;"/>
   </g>
   <g id="line2d_4">
    <path clip-path="url(#p90a37016cc)" d="M 25.961331 67.267914 
L 25.686573 65.84851 
L 25.411815 64.429106 
L 25.137057 63.009702 
L 24.862299 61.590298 
L 24.581874 60.142216 
L 24.301448 58.694134 
L 24.093856 57.621974 
L 23.886264 56.549814 
L 23.678673 55.477654 
L 23.471081 54.405494 
L 23.146303 52.727796 
L 22.821524 51.050097 
L 22.643336 50.129686 
L 22.465147 49.209275 
L 22.286958 48.288865 
L 22.108769 47.368454 
L 21.906279 46.322444 
L 21.703788 45.276434 
L 21.501298 44.230425 
L 21.298808 43.184415 
L 21.104394 42.180401 
L 20.909981 41.176387 
L 20.715567 40.172373 
L 20.521154 39.16836 
L 20.299533 38.023873 
L 20.077913 36.879387 
L 19.856293 35.734901 
L 19.634673 34.590414 
L 19.427507 33.520296 
L 19.22034 32.450177 
L 19.013174 31.380059 
L 18.806007 30.30994 
L 18.633911 29.421221 
L 18.461816 28.532501 
L 18.28972 27.643782 
L 18.117624 26.755063 
L 17.905569 25.659863 
L 17.693514 24.564664 
L 17.481459 23.469464 
L 17.269403 22.374265 
L 16.977925 20.868633 
L 16.686446 19.363001 
L 16.366911 17.712911 
L 16.047376 16.062821 
L 15.875988 15.177893 
L 15.704601 14.292965 
L 15.533214 13.408037 
L 15.361827 12.523109 
L 15.135106 11.351889 
" style="fill:none;stroke:#808080;stroke-linecap:square;stroke-width:0.4;"/>
   </g>
   <g id="line2d_5">
    <path clip-path="url(#p90a37016cc)" d="M 27.255626 63.474671 
L 27.049168 62.536178 
L 26.84271 61.597686 
L 26.603519 60.511236 
L 26.249267 58.901392 
L 26.024742 57.880852 
L 25.800217 56.860312 
L 25.575692 55.839772 
L 25.351167 54.819232 
L 25.090296 53.633819 
L 24.829425 52.448406 
L 24.465962 50.796372 
L 24.1025 49.144337 
L 23.78424 47.697811 
L 23.46598 46.251284 
L 23.149137 44.811757 
L 22.932476 43.826991 
L 22.715816 42.842226 
L 22.499155 41.85746 
L 22.282495 40.872694 
L 21.925125 39.248074 
L 21.711724 38.279057 
L 21.498322 37.31004 
L 21.298878 36.40353 
L 21.099435 35.497021 
L 20.899991 34.590512 
L 20.700547 33.684002 
L 20.481619 32.688738 
L 20.262691 31.693473 
L 19.984107 30.427568 
L 19.705524 29.161663 
L 19.495806 28.208783 
L 19.286089 27.255903 
L 19.04201 26.146802 
L 18.79793 25.037701 
L 18.55385 23.9286 
L 18.309771 22.8195 
L 18.182807 22.242444 
" style="fill:none;stroke:#808080;stroke-linecap:square;stroke-width:0.4;"/>
   </g>
   <g id="line2d_6">
    <path clip-path="url(#p90a37016cc)" d="M 25.26728 64.664555 
L 24.71068 64.472852 
L 24.353877 64.349586 
L 23.732944 64.135718 
L 22.529904 63.721202 
L 21.696137 63.438313 
L 20.862369 63.155424 
L 19.300118 62.612393 
L 17.737866 62.069362 
L 16.768562 61.735242 
L 15.799257 61.401122 
L 14.829953 61.067001 
L 13.860649 60.732881 
L 12.279693 60.1881 
L 10.698737 59.64332 
L 9.174036 59.117593 
L 8.317313 58.822455 
L 7.3281 58.481432 
L 6.338886 58.14041 
" style="fill:none;stroke:#808080;stroke-linecap:square;stroke-width:0.4;"/>
   </g>
   <g id="line2d_7">
    <path clip-path="url(#p90a37016cc)" d="M 24.689424 65.747506 
L 23.064648 65.990781 
L 21.439871 66.234056 
L 19.815094 66.477331 
L 18.190317 66.720606 
L 16.56554 66.963881 
L 14.940763 67.207156 
L 13.315986 67.450431 
L 11.691209 67.693706 
" style="fill:none;stroke:#808080;stroke-linecap:square;stroke-width:0.4;"/>
   </g>
   <g id="line2d_8">
    <path clip-path="url(#p90a37016cc)" d="M 30.968187 62.509542 
L 31.219139 61.065349 
L 31.470092 59.621155 
" style="fill:none;stroke:#808080;stroke-linecap:square;stroke-width:0.4;"/>
   </g>
   <g id="line2d_9">
    <path clip-path="url(#p90a37016cc)" d="M 17.954668 44.890305 
L 17.65823 45.300738 
L 17.361792 45.71117 
L 17.266782 46.053262 
L 17.171772 46.395354 
L 17.076761 46.737446 
L 16.981751 47.079537 
L 16.901902 47.364565 
L 16.822054 47.649593 
L 16.742206 47.934621 
L 16.662357 48.219649 
L 16.502731 48.611028 
L 16.343105 49.002407 
L 16.183479 49.393785 
L 16.023853 49.785164 
L 16.007416 49.838437 
L 15.88612 50.227968 
L 15.764824 50.6175 
L 15.643528 51.007032 
L 15.522232 51.396563 
L 15.442384 51.68548 
L 15.362536 51.974396 
L 15.282687 52.263313 
L 15.202839 52.552229 
L 15.134468 52.88285 
L 15.066098 53.213471 
L 14.997727 53.544091 
L 14.929356 53.874712 
L 14.982494 54.30031 
L 15.035632 54.725907 
L 15.246695 55.040974 
L 15.457759 55.356041 
L 15.668822 55.671107 
L 15.879885 55.986174 
" style="fill:none;stroke:#4169e1;stroke-dasharray:1.48,0.64;stroke-dashoffset:0;stroke-width:0.4;"/>
   </g>
   <g id="line2d_10">
    <path clip-path="url(#p90a37016cc)" d="M 18.501917 22.651905 
L 18.593172 23.081294 
L 18.684428 23.510683 
L 18.775683 23.940072 
L 18.866938 24.36946 
L 18.956245 24.701977 
L 19.045552 25.034493 
L 19.134859 25.36701 
L 19.224166 25.699526 
L 19.313473 26.032042 
L 19.40278 26.364559 
L 19.492087 26.697075 
L 19.581394 27.029592 
L 19.674491 27.346894 
L 19.767589 27.664197 
L 19.860686 27.981499 
L 19.953783 28.298802 
L 20.046881 28.616104 
L 20.139978 28.933407 
L 20.233076 29.25071 
L 20.326173 29.568012 
L 20.407899 29.910007 
L 20.489625 30.252002 
L 20.571351 30.593996 
L 20.653077 30.935991 
L 20.734803 31.277985 
L 20.816529 31.61998 
L 20.898255 31.961975 
L 20.979981 32.303969 
L 21.090224 32.752412 
L 21.200467 33.200855 
L 21.31071 33.649297 
L 21.420954 34.09774 
L 21.555853 34.503506 
L 21.690752 34.909272 
L 21.775347 35.356257 
L 21.859943 35.803241 
L 21.944538 36.250226 
L 22.029134 36.69721 
" style="fill:none;stroke:#4169e1;stroke-linecap:square;stroke-width:0.4;"/>
   </g>
   <g id="line2d_11">
    <path clip-path="url(#p90a37016cc)" d="M 19.554187 37.854043 
L 19.351909 38.252615 
L 19.149631 38.651188 
L 18.947353 39.04976 
L 18.745076 39.448332 
L 18.652262 39.747553 
L 18.559448 40.046774 
L 18.447079 40.408795 
L 18.33471 40.770815 
L 18.296734 41.257268 
L 18.258758 41.743721 
L 18.258758 42.028749 
L 18.258758 42.313777 
L 18.258758 42.598805 
L 18.258758 42.883833 
L 18.175155 43.362703 
L 18.091551 43.841573 
L 18.007948 44.168403 
L 17.924345 44.495232 
L 17.954668 44.890305 
L 18.159851 45.32368 
L 18.365034 45.757054 
L 18.425824 46.099049 
L 18.486613 46.441044 
L 18.471451 46.78683 
L 18.456289 47.132616 
L 18.441127 47.478401 
L 18.425965 47.824187 
L 18.353769 48.287892 
L 18.281572 48.751598 
L 18.209376 49.215303 
L 18.137179 49.679008 
L 18.025058 49.967827 
L 17.912938 50.256646 
L 17.800817 50.545465 
L 17.688696 50.834285 
L 17.576575 51.123104 
L 17.464455 51.411923 
L 17.352334 51.700742 
L 17.240213 51.989562 
L 17.14329 52.24421 
L 17.046366 52.498859 
L 16.949443 52.753508 
L 16.85252 53.008157 
L 16.755596 53.262806 
L 16.658673 53.517455 
L 16.56175 53.772104 
L 16.464826 54.026753 
L 16.343176 54.41434 
L 16.221526 54.801928 
L 16.099876 55.189515 
L 15.978226 55.577103 
L 15.879885 55.986174 
L 15.784662 56.382219 
L 15.689439 56.778264 
" style="fill:none;stroke:#4169e1;stroke-linecap:square;stroke-width:0.4;"/>
   </g>
   <g id="line2d_12">
    <path clip-path="url(#p90a37016cc)" d="M 16.96333 23.508544 
L 17.055364 23.944154 
L 17.147399 24.379765 
L 17.239434 24.815376 
L 17.331468 25.250986 
L 17.405578 25.5208 
L 17.479687 25.790614 
L 17.553797 26.060429 
L 17.627906 26.330243 
L 17.702016 26.600057 
L 17.776125 26.869871 
L 17.850235 27.139685 
L 17.924345 27.409499 
L 17.996541 27.713532 
L 18.068738 28.017565 
L 18.140934 28.321598 
L 18.213131 28.625631 
L 18.285327 28.929664 
L 18.357524 29.233697 
L 18.42972 29.53773 
L 18.501917 29.841763 
L 18.58552 30.157122 
L 18.669124 30.47248 
L 18.752727 30.787838 
L 18.836331 31.103197 
L 18.965562 31.437609 
L 19.094793 31.772021 
L 19.224024 32.106433 
L 19.353255 32.440845 
L 19.452092 32.828432 
L 19.550928 33.21602 
L 19.649764 33.603607 
L 19.748601 33.991195 
L 19.817042 34.424472 
L 19.885484 34.85775 
L 19.953925 35.291027 
L 20.022367 35.724304 
L 20.106608 36.168956 
L 20.190849 36.613607 
L 20.27509 37.058259 
L 20.359331 37.50291 
" style="fill:none;stroke:#4169e1;stroke-linecap:square;stroke-width:0.4;"/>
   </g>
   <g id="line2d_13">
    <path clip-path="url(#p90a37016cc)" d="M 19.420705 50.487818 
L 19.658479 50.844297 
L 19.896253 51.200777 
L 20.134027 51.557256 
L 20.371801 51.913736 
L 20.535253 52.286158 
L 20.698705 52.65858 
L 20.862157 53.031002 
L 21.025608 53.403424 
L 21.151014 53.787221 
L 21.276419 54.171017 
L 21.401824 54.554813 
L 21.527229 54.938609 
L 21.636268 55.312003 
L 21.745307 55.685398 
L 21.854346 56.058792 
L 21.963384 56.432187 
" style="fill:none;stroke:#000000;stroke-dasharray:1.48,0.64;stroke-dashoffset:0;stroke-width:0.4;"/>
   </g>
   <g id="line2d_14">
    <path clip-path="url(#p90a37016cc)" d="M 18.559448 40.046774 
L 18.286603 40.246838 
L 18.013758 40.446902 
L 17.740913 40.646966 
L 17.468068 40.84703 
L 17.255233 41.265045 
L 17.042399 41.68306 
L 16.9284 42.108658 
L 16.814402 42.534256 
L 16.700404 42.959853 
L 16.586405 43.385451 
L 16.489482 43.742708 
L 16.392559 44.099965 
L 16.295635 44.457222 
L 16.198712 44.814479 
L 16.101789 45.171736 
L 16.004865 45.528993 
L 15.907942 45.88625 
L 15.811019 46.243507 
L 15.765391 46.536118 
L 15.719763 46.828728 
L 15.674136 47.121339 
L 15.628508 47.413949 
L 15.628508 47.755944 
L 15.628508 48.097939 
L 15.723235 48.533063 
L 15.817962 48.968188 
L 15.912689 49.403312 
L 16.007416 49.838437 
" style="fill:none;stroke:#000000;stroke-dasharray:1.48,0.64;stroke-dashoffset:0;stroke-width:0.4;"/>
   </g>
   <g id="line2d_15">
    <path clip-path="url(#p90a37016cc)" d="M 8.812416 57.779167 
L 9.172336 57.438339 
L 9.532256 57.097511 
L 9.722277 56.687078 
L 9.912297 56.276646 
L 10.033877 56.002895 
L 10.155456 55.729144 
L 10.398898 55.486112 
L 10.611733 55.516442 
L 10.922624 55.784749 
L 11.170034 55.939512 
L 11.417443 56.094275 
L 11.782323 56.238539 
L 12.147203 56.382802 
L 12.3453 56.424021 
L 12.649107 56.487015 
L 12.952913 56.550008 
L 13.462186 56.489348 
L 13.971459 56.428687 
L 14.472513 56.4108 
L 14.973567 56.392913 
" style="fill:none;stroke:#008000;stroke-linecap:square;stroke-width:0.4;"/>
   </g>
   <g id="line2d_16">
    <path clip-path="url(#p90a37016cc)" d="M 8.022009 38.42021 
L 8.236119 38.684823 
L 8.450228 38.949436 
L 8.664338 39.21405 
L 8.878448 39.478663 
L 9.182538 39.729472 
L 9.486628 39.980281 
L 9.927601 40.238867 
L 10.16325 40.596027 
L 10.398898 40.953187 
L 10.642057 41.08248 
L 10.885215 41.211773 
L 11.212119 41.416989 
L 11.539023 41.622205 
L 11.865926 41.827421 
L 12.19283 42.032638 
" style="fill:none;stroke:#008000;stroke-linecap:square;stroke-width:0.4;"/>
   </g>
   <g id="line2d_17">
    <path clip-path="url(#p90a37016cc)" d="M 12.572872 67.799863 
L 13.059331 67.91399 
L 13.54579 68.028118 
L 13.853635 68.10025 
L 14.16148 68.172382 
L 14.469325 68.244514 
L 14.77717 68.316646 
L 15.092666 68.388875 
L 15.408163 68.461104 
L 15.72366 68.533333 
L 16.039157 68.605562 
L 16.404037 68.63599 
L 16.768916 68.666418 
L 17.133796 68.696845 
L 17.498675 68.727273 
L 17.795113 68.698789 
L 18.091551 68.670306 
L 18.38799 68.641823 
L 18.684428 68.613339 
L 18.980866 68.584856 
L 19.277304 68.556373 
L 19.573742 68.527889 
L 19.87018 68.499406 
L 20.183728 68.432864 
L 20.497277 68.366322 
L 20.810825 68.299779 
L 21.124374 68.233237 
L 21.437922 68.166695 
L 21.751471 68.100153 
L 22.065019 68.033611 
L 22.378568 67.967069 
L 22.678832 67.875883 
L 22.979096 67.784697 
L 23.27936 67.693512 
L 23.579624 67.602326 
L 23.879888 67.511141 
L 24.180152 67.419955 
L 24.480416 67.328769 
L 24.78068 67.237584 
" style="fill:none;stroke:#008000;stroke-linecap:square;stroke-width:0.4;"/>
   </g>
   <g id="line2d_18">
    <path clip-path="url(#p90a37016cc)" d="M 20.158966 38.749178 
L 20.029735 39.228048 
L 19.900504 39.706919 
L 19.839714 39.984364 
L 19.778925 40.261809 
L 19.718135 40.539255 
L 19.657345 40.8167 
L 19.611718 41.154903 
L 19.56609 41.493107 
L 19.520462 41.83131 
L 19.474835 42.169513 
L 19.455847 42.500134 
L 19.436859 42.830755 
L 19.417871 43.161375 
L 19.398883 43.491996 
L 19.43693 43.818826 
L 19.474976 44.145655 
L 19.513023 44.472484 
L 19.55107 44.799314 
L 19.570058 45.240174 
L 19.589046 45.681034 
L 19.608034 46.121894 
L 19.627021 46.562754 
L 19.611789 46.950342 
L 19.596556 47.337929 
L 19.581323 47.725516 
L 19.56609 48.113104 
L 19.550928 48.610931 
L 19.535766 49.108757 
L 19.520604 49.606584 
L 19.505442 50.104411 
L 19.420705 50.487818 
L 19.312658 50.977285 
L 19.204611 51.466751 
L 19.096564 51.956218 
L 18.988518 52.445684 
L 18.961878 52.768722 
L 18.935238 53.09176 
L 18.908598 53.414798 
L 18.881959 53.737837 
L 18.881959 54.041918 
L 18.881959 54.346 
L 18.988376 54.589226 
L 19.094793 54.832453 
L 19.353255 55.052737 
L 19.611718 55.273021 
L 20.018399 55.463072 
L 20.42508 55.653123 
L 20.831762 55.843174 
L 21.238443 56.033225 
L 21.600914 56.232706 
L 21.963384 56.432187 
L 22.196411 56.560507 
L 22.429438 56.688828 
L 22.662465 56.817149 
L 22.895492 56.94547 
L 23.334906 57.16731 
L 23.774321 57.389149 
L 24.213735 57.610989 
L 24.653149 57.832829 
" style="fill:none;stroke:#4169e1;stroke-linecap:square;stroke-width:0.4;"/>
   </g>
   <g id="line2d_19">
    <path clip-path="url(#p90a37016cc)" d="M 12.31441 67.43512 
L 12.49692 67.085543 
L 12.755382 66.933502 
L 13.025181 66.872647 
L 13.294979 66.811792 
L 13.564777 66.750936 
L 13.834576 66.690081 
L 14.188048 66.61027 
L 14.541521 66.530458 
L 14.894994 66.450646 
L 15.248466 66.370834 
L 15.601939 66.291023 
L 15.955412 66.211211 
L 16.308884 66.131399 
L 16.662357 66.051588 
L 17.084271 65.971776 
L 17.506185 65.891964 
L 17.9281 65.812152 
L 18.350014 65.732341 
L 18.635045 65.698122 
L 18.920076 65.663903 
L 19.205107 65.629684 
L 19.490138 65.595465 
L 19.77517 65.561246 
L 20.060201 65.527027 
L 20.345232 65.492808 
L 20.630263 65.45859 
L 20.909272 65.443035 
L 21.188281 65.427481 
L 21.46729 65.411927 
L 21.746299 65.396373 
L 22.138527 65.374403 
L 22.530754 65.352433 
L 22.808205 65.356224 
L 23.085655 65.360016 
L 23.363105 65.363807 
L 23.640555 65.367598 
L 23.918005 65.37139 
L 24.195455 65.375181 
L 24.472906 65.378972 
L 24.750356 65.382764 
" style="fill:none;stroke:#008000;stroke-linecap:square;stroke-width:0.4;"/>
   </g>
   <g id="line2d_20">
    <path clip-path="url(#p90a37016cc)" d="M 30.573125 42.002307 
L 30.500858 42.344302 
L 30.428591 42.686296 
L 30.356323 43.028291 
L 30.284056 43.370286 
L 30.161626 43.792286 
L 30.039197 44.214287 
L 29.916767 44.636288 
L 29.794338 45.058289 
L 29.681969 45.445585 
L 29.5696 45.83288 
L 29.392864 46.32502 
L 29.216128 46.81716 
L 29.039391 47.3093 
L 28.862655 47.80144 
L 28.685919 48.293579 
L 28.509182 48.785719 
L 28.332446 49.277859 
L 28.15571 49.769999 
L 28.106327 50.115882 
L 28.056944 50.461765 
L 28.007561 50.807648 
L 27.958179 51.153531 
L 27.96576 51.55259 
L 27.973341 51.951649 
L 27.980922 52.350707 
L 27.988503 52.749766 
L 27.996084 53.148824 
L 28.003665 53.547883 
L 28.011246 53.946941 
L 28.018827 54.346 
L 28.022653 54.707048 
L 28.026479 55.068096 
L 28.030304 55.429145 
L 28.03413 55.790193 
L 28.037956 56.151242 
L 28.041782 56.51229 
L 28.045608 56.873338 
L 28.049434 57.234387 
L 28.053225 57.507992 
L 28.057015 57.781597 
L 28.060806 58.055203 
L 28.064596 58.328808 
L 28.068387 58.602414 
L 28.072177 58.876019 
L 28.075968 59.149625 
L 28.079758 59.42323 
L 28.119647 59.852716 
L 28.159536 60.282202 
L 28.199424 60.711688 
L 28.239313 61.141175 
L 28.279202 61.570661 
L 28.319091 62.000147 
L 28.358979 62.429633 
L 28.398868 62.859119 
" style="fill:none;stroke:#4169e1;stroke-linecap:square;stroke-width:0.4;"/>
   </g>
   <g id="line2d_21">
    <path clip-path="url(#p90a37016cc)" d="M 30.709725 45.08823 
L 31.089908 45.232494 
L 31.470092 45.376758 
L 31.857643 45.376758 
L 32.245195 45.376758 
L 32.598668 45.251353 
L 32.95214 45.125949 
L 33.305613 45.000544 
L 33.659086 44.87514 
L 33.970757 44.681395 
L 34.282427 44.48765 
L 34.594098 44.293905 
L 34.905769 44.100159 
L 35.080628 43.883472 
L 35.255487 43.666785 
L 35.430346 43.450097 
L 35.605205 43.23341 
L 35.681156 42.914163 
L 35.757108 42.594916 
L 35.726713 42.233965 
L 35.696318 41.873014 
L 35.665923 41.512063 
L 35.635529 41.151112 
L 35.538605 40.707433 
L 35.445012 40.278724 
L 35.351418 39.850016 
L 35.257825 39.421307 
L 35.164232 38.992599 
" style="fill:none;stroke:#008000;stroke-linecap:square;stroke-width:0.4;"/>
   </g>
   <g id="line2d_22">
    <path clip-path="url(#p90a37016cc)" d="M 21.055932 37.198828 
L 20.707632 37.350869 
L 20.359331 37.50291 
L 19.956759 37.678476 
L 19.554187 37.854043 
L 19.140421 38.034858 
L 18.760379 38.228506 
L 18.51715 38.352501 
L 18.27392 38.476496 
L 18.030691 38.600491 
L 17.787462 38.724486 
L 17.544232 38.848481 
L 17.301003 38.972476 
L 17.057773 39.096471 
L 16.814544 39.220466 
L 16.533268 39.429473 
L 16.251992 39.638481 
L 15.970715 39.847488 
L 15.689439 40.056496 
L 15.507 40.299722 
L 15.32456 40.542949 
L 15.14212 40.786175 
L 14.95968 41.029401 
L 14.870373 41.337226 
L 14.781066 41.64505 
L 14.691759 41.952874 
L 14.602452 42.260699 
L 14.513146 42.568523 
L 14.423839 42.876347 
L 14.334532 43.184172 
L 14.245225 43.491996 
L 14.180609 43.940439 
L 14.115994 44.388881 
L 14.051378 44.837324 
L 13.986762 45.285767 
L 13.887926 45.582169 
L 13.78909 45.87857 
L 13.690254 46.174972 
L 13.591417 46.471374 
L 13.469767 46.771567 
L 13.348117 47.07176 
L 13.226467 47.371953 
L 13.104817 47.672147 
L 12.917205 48.136435 
L 12.81603 48.386855 
L 12.81603 48.68316 
L 12.81603 48.979464 
L 12.90346 49.416533 
L 12.990889 49.853602 
L 13.078319 50.290671 
L 13.165748 50.727739 
L 13.199969 51.09637 
L 13.234189 51.465001 
L 13.26841 51.833632 
L 13.302631 52.202263 
L 13.359311 52.655664 
L 13.415992 53.109064 
L 13.469838 53.5403 
L 13.591417 53.97348 
L 13.712997 54.406661 
L 13.82324 54.729699 
L 13.933483 55.052737 
L 14.043726 55.375775 
L 14.153969 55.698813 
L 14.328828 55.919292 
L 14.503687 56.13977 
L 14.738627 56.266341 
L 14.973567 56.392913 
L 15.331503 56.585588 
L 15.689439 56.778264 
L 16.004865 57.010117 
L 16.320291 57.241969 
L 16.635717 57.473822 
L 16.951143 57.705674 
L 17.293209 57.880463 
L 17.635275 58.055251 
L 17.977341 58.23004 
L 18.319406 58.404829 
L 18.748902 58.583409 
L 19.178397 58.761988 
L 19.607892 58.940568 
L 20.037387 59.119148 
L 20.371872 59.370055 
L 20.706356 59.620961 
L 21.040841 59.871867 
L 21.375326 60.122773 
L 21.559643 60.312776 
L 21.743961 60.502778 
L 21.928278 60.692781 
L 22.112595 60.882783 
L 22.296913 61.072785 
L 22.48123 61.262788 
L 22.665547 61.45279 
L 22.849865 61.642793 
L 23.112117 61.94877 
L 23.37437 62.254747 
L 23.636623 62.560725 
L 23.898876 62.866702 
L 24.161128 63.172679 
L 24.423381 63.478656 
L 24.685634 63.784634 
L 24.947887 64.090611 
" style="fill:none;stroke:#4169e1;stroke-linecap:square;stroke-width:0.4;"/>
   </g>
   <g id="line2d_23">
    <path clip-path="url(#p90a37016cc)" d="M 16.859605 26.870551 
L 16.920536 27.23335 
L 16.981467 27.596148 
L 17.042399 27.958946 
L 17.10333 28.321744 
L 17.118492 28.621937 
L 17.133654 28.92213 
L 17.148816 29.222324 
L 17.163978 29.522517 
L 17.190618 29.7847 
L 17.217257 30.046882 
L 17.243897 30.309065 
L 17.270537 30.571248 
L 17.270537 31.027176 
L 17.270537 31.483104 
L 17.202095 32.000082 
L 17.133654 32.51706 
L 17.042399 32.95024 
L 16.951143 33.38342 
L 16.981609 33.869873 
L 17.012075 34.356326 
L 16.996771 34.873109 
L 16.928471 35.146666 
L 16.860171 35.420223 
L 16.829564 35.754635 
L 16.973957 36.028192 
L 17.11835 36.301749 
L 17.365406 36.526018 
L 17.612461 36.750288 
L 17.859516 36.974558 
L 18.106572 37.198828 
L 18.270024 37.456248 
L 18.433476 37.713667 
L 18.596927 37.971087 
L 18.760379 38.228506 
" style="fill:none;stroke:#4169e1;stroke-linecap:square;stroke-width:0.4;"/>
   </g>
   <g id="line2d_24">
    <path clip-path="url(#p90a37016cc)" d="M 21.055932 38.657798 
L 21.071165 38.954297 
L 21.086398 39.250796 
L 21.101631 39.547295 
L 21.116864 39.843794 
L 21.166246 40.174415 
L 21.215629 40.505036 
L 21.265012 40.835656 
L 21.314395 41.166277 
L 21.339121 41.449361 
L 21.363848 41.732444 
L 21.388575 42.015528 
L 21.413302 42.298612 
L 21.438029 42.581695 
L 21.462755 42.864779 
L 21.487482 43.147863 
L 21.512209 43.430947 
L 21.508383 43.719814 
L 21.504557 44.008682 
L 21.500731 44.29755 
L 21.496905 44.586418 
L 21.493079 44.875286 
L 21.489253 45.164154 
L 21.485428 45.453021 
L 21.481602 45.741889 
L 21.523403 46.258672 
L 21.565205 46.775456 
L 21.607007 47.292239 
L 21.648809 47.809022 
L 21.70014 48.067462 
L 21.751471 48.325903 
L 21.802802 48.584343 
L 21.854133 48.842783 
L 21.905464 49.101223 
L 21.956795 49.359664 
L 22.008126 49.618104 
L 22.059457 49.876544 
L 22.156381 50.152094 
L 22.253304 50.427643 
L 22.350228 50.703193 
L 22.447151 50.978743 
L 22.544074 51.254292 
L 22.640998 51.529842 
L 22.737921 51.805392 
L 22.834844 52.080942 
L 22.945052 52.360234 
L 23.05526 52.639526 
L 23.165468 52.918819 
L 23.275676 53.198111 
L 23.385883 53.477403 
L 23.496091 53.756696 
L 23.606299 54.035988 
L 23.716507 54.315281 
L 23.805814 54.638367 
L 23.895121 54.961454 
L 23.984428 55.284541 
L 24.073734 55.607628 
L 24.163041 55.930714 
L 24.252348 56.253801 
L 24.341655 56.576888 
L 24.430962 56.899975 
L 24.542056 57.366402 
L 24.653149 57.832829 
L 24.728003 58.147555 
L 24.802856 58.462281 
L 24.877709 58.777008 
L 24.952563 59.091734 
L 25.027416 59.406461 
L 25.10227 59.721187 
L 25.177123 60.035914 
L 25.251977 60.35064 
L 25.337493 60.797236 
L 25.42301 61.243831 
L 25.508526 61.690427 
L 25.594042 62.137023 
L 25.679559 62.583618 
L 25.765075 63.030214 
L 25.850592 63.476809 
L 25.936108 63.923405 
" style="fill:none;stroke:#000000;stroke-linecap:square;stroke-width:0.4;"/>
   </g>
   <g id="line2d_25">
    <path clip-path="url(#p90a37016cc)" d="M 32.503657 59.696981 
L 32.480843 60.099831 
L 32.45803 60.502681 
L 32.38973 60.913113 
L 32.32143 61.323546 
L 32.180792 61.562981 
L 32.040154 61.802416 
L 31.899516 62.041851 
L 31.758878 62.281286 
" style="fill:none;stroke:#008000;stroke-linecap:square;stroke-width:0.4;"/>
   </g>
   <g id="line2d_26">
    <path clip-path="url(#p90a37016cc)" d="M 31.789202 41.348648 
L 31.842481 41.652536 
L 31.895761 41.956423 
L 31.956409 42.412545 
L 32.100802 42.640606 
L 32.245195 42.868668 
L 32.541775 43.066204 
L 32.838355 43.26374 
L 33.24121 43.294265 
L 33.644065 43.32479 
L 34.092548 43.339566 
L 34.541031 43.354343 
L 34.807075 43.32411 
L 35.073118 43.293876 
L 35.339161 43.263643 
L 35.605205 43.23341 
" style="fill:none;stroke:#008000;stroke-linecap:square;stroke-width:0.4;"/>
   </g>
   <g id="line2d_27">
    <path clip-path="url(#p90a37016cc)" d="M 13.415992 53.109064 
L 13.231781 53.406827 
L 13.04757 53.70459 
L 12.863358 54.002353 
L 12.679147 54.300115 
L 12.542406 54.596614 
L 12.405665 54.893113 
L 12.367689 55.311128 
L 12.329713 55.729144 
L 12.337507 56.076582 
L 12.3453 56.424021 
L 12.322203 56.920389 
L 12.299106 57.416758 
L 12.356991 57.738046 
L 12.414875 58.059334 
L 12.47276 58.380623 
L 12.530645 58.701911 
" style="fill:none;stroke:#008000;stroke-linecap:square;stroke-width:0.4;"/>
   </g>
   <g id="line2d_28">
    <path clip-path="url(#p90a37016cc)" d="M 8.01209 58.465489 
L 8.216564 58.298283 
L 8.421038 58.131077 
L 8.616727 57.955122 
L 8.812416 57.779167 
L 9.145696 57.75603 
L 9.478976 57.732894 
L 9.815374 57.83244 
L 10.151772 57.931986 
L 10.48817 58.031532 
L 10.824567 58.131077 
L 11.227423 58.267953 
L 11.630278 58.404829 
L 12.033133 58.541704 
L 12.435989 58.67858 
L 12.530645 58.701911 
L 13.012499 58.821483 
L 13.494352 58.941054 
L 13.976206 59.060626 
L 14.458059 59.180198 
L 14.731719 59.261905 
L 15.005379 59.343613 
L 15.279038 59.42532 
L 15.552698 59.507027 
L 15.826358 59.588735 
L 16.100017 59.670442 
L 16.373677 59.752149 
L 16.647337 59.833857 
L 17.12997 59.989689 
L 17.612603 60.145521 
L 18.095236 60.301353 
L 18.577869 60.457185 
L 18.916179 60.631974 
L 19.25449 60.806763 
L 19.592801 60.981551 
L 19.931111 61.15634 
L 20.176254 61.296958 
L 20.421396 61.437576 
L 20.666539 61.578195 
L 20.911681 61.718813 
L 21.156823 61.859431 
L 21.401966 62.00005 
L 21.647108 62.140668 
L 21.892251 62.281286 
L 22.302687 62.486503 
L 22.713123 62.691719 
L 23.12356 62.896935 
L 23.533996 63.102151 
L 23.887469 63.349266 
L 24.240941 63.596381 
L 24.594414 63.843496 
L 24.947887 64.090611 
" style="fill:none;stroke:#4169e1;stroke-linecap:square;stroke-width:0.4;"/>
   </g>
   <g id="line2d_29">
    <path clip-path="url(#p90a37016cc)" d="M 17.331468 25.250986 
L 17.247794 25.505586 
L 17.16412 25.760187 
L 17.080445 26.014787 
L 16.996771 26.269387 
L 16.928188 26.569969 
L 16.859605 26.870551 
L 16.753612 27.333673 
L 16.651021 27.713678 
L 16.54843 28.093683 
L 16.445838 28.473688 
L 16.343247 28.853693 
L 16.191202 29.20327 
L 16.039157 29.552847 
L 15.887112 29.902424 
L 15.735067 30.252002 
L 15.442384 30.563569 
L 15.149701 30.875136 
L 14.857018 31.186703 
L 14.564335 31.49827 
L 14.374314 31.79088 
L 14.184293 32.083491 
L 13.994273 32.376101 
L 13.804252 32.668712 
L 13.697835 32.957531 
L 13.591417 33.24635 
L 13.485 33.535169 
L 13.378583 33.823989 
L 13.294979 34.272431 
L 13.211376 34.720874 
L 13.127772 35.169317 
L 13.044169 35.617759 
L 12.907357 35.955963 
L 12.770544 36.294166 
L 12.633732 36.632369 
L 12.49692 36.970573 
L 12.337294 37.289819 
L 12.177668 37.609066 
L 12.018042 37.928313 
L 11.858416 38.24756 
L 11.805208 38.517423 
L 11.751999 38.787285 
L 11.69879 39.057148 
L 11.645582 39.327011 
L 11.672151 39.623413 
L 11.69872 39.919815 
L 11.725288 40.216216 
L 11.751857 40.512618 
L 11.862101 40.892623 
L 11.972344 41.272628 
L 12.082587 41.652633 
L 12.19283 42.032638 
L 12.263114 42.517535 
L 12.333397 43.002432 
L 12.403681 43.48733 
L 12.473965 43.972227 
L 12.513853 44.384215 
L 12.553742 44.796203 
L 12.593631 45.208191 
L 12.63352 45.620179 
L 12.66898 45.934711 
L 12.704441 46.249243 
L 12.739902 46.563775 
L 12.775362 46.878307 
L 12.810823 47.192839 
L 12.846284 47.507371 
L 12.881744 47.821903 
L 12.917205 48.136435 
" style="fill:none;stroke:#4169e1;stroke-linecap:square;stroke-width:0.4;"/>
   </g>
   <g id="line2d_30">
    <path clip-path="url(#p90a37016cc)" d="M 16.96333 23.508544 
L 16.770262 23.78842 
L 16.577195 24.068295 
L 16.384128 24.348171 
L 16.19106 24.628047 
L 15.966819 25.065018 
L 15.742577 25.50199 
L 15.518336 25.938961 
L 15.294094 26.375933 
L 15.039458 26.774991 
L 14.784821 27.17405 
L 14.530185 27.573108 
L 14.275549 27.972167 
L 14.106429 28.215345 
L 13.937309 28.458523 
L 13.768189 28.7017 
L 13.599069 28.944878 
L 13.429949 29.188056 
L 13.260829 29.431234 
L 13.091709 29.674412 
L 12.922589 29.917589 
L 12.738237 30.160816 
L 12.553884 30.404042 
L 12.369531 30.647269 
L 12.185178 30.890495 
L 12.000826 31.133722 
L 11.816473 31.376948 
L 11.63212 31.620174 
L 11.447767 31.863401 
L 11.221967 32.19441 
L 10.996167 32.52542 
L 10.770367 32.85643 
L 10.544566 33.187439 
L 10.327339 33.505714 
L 10.110112 33.823989 
L 9.961857 34.091907 
L 9.813603 34.359826 
L 9.665348 34.627744 
L 9.517094 34.895663 
L 9.368839 35.163581 
L 9.220585 35.4315 
L 9.07233 35.699418 
L 8.924076 35.967336 
L 8.811318 36.273946 
L 8.698559 36.580555 
L 8.585801 36.887164 
L 8.473042 37.193773 
L 8.360284 37.500382 
L 8.247525 37.806992 
L 8.134767 38.113601 
L 8.022009 38.42021 
L 7.951158 38.612302 
L 7.871345 38.925814 
L 7.791532 39.239325 
L 7.711719 39.552836 
L 7.631906 39.866348 
L 7.552093 40.179859 
L 7.47228 40.49337 
L 7.392467 40.806881 
L 7.312654 41.120393 
L 7.261359 41.443431 
L 7.210063 41.766469 
L 7.158767 42.089507 
L 7.107472 42.412545 
L 7.056176 42.735583 
L 7.00488 43.058621 
L 6.953585 43.38166 
L 6.902289 43.704698 
L 6.869981 44.041054 
L 6.837673 44.37741 
L 6.805366 44.713767 
L 6.773058 45.050123 
L 6.74075 45.386479 
L 6.708442 45.722836 
L 6.676134 46.059192 
L 6.643827 46.395548 
L 6.604788 46.693505 
L 6.565749 46.991463 
L 6.526711 47.28942 
L 6.487672 47.587377 
L 6.4317 48.015211 
L 6.375729 48.443044 
L 6.319757 48.870878 
L 6.263785 49.298711 
L 6.242849 49.560943 
L 6.221912 49.823174 
L 6.200976 50.085406 
L 6.18004 50.347637 
L 6.159104 50.609869 
L 6.138167 50.8721 
L 6.117231 51.134332 
L 6.096295 51.396563 
L 6.115318 51.666426 
L 6.134341 51.936289 
L 6.153365 52.206152 
L 6.172388 52.476014 
L 6.191411 52.745877 
L 6.210435 53.01574 
L 6.229458 53.285603 
L 6.248481 53.555465 
L 6.366306 54.011491 
L 6.48413 54.467516 
L 6.601954 54.923541 
L 6.719778 55.379566 
L 6.940194 55.683648 
L 7.160609 55.98773 
L 7.381025 56.291811 
L 7.601441 56.595893 
L 7.904184 56.891711 
L 8.206928 57.18753 
L 8.509672 57.483349 
L 8.812416 57.779167 
" style="fill:none;stroke:#4169e1;stroke-linecap:square;stroke-width:0.4;"/>
   </g>
   <g id="line2d_31">
    <path clip-path="url(#p90a37016cc)" d="M 7.206095 58.67858 
L 7.517766 58.796402 
L 7.829437 58.914224 
L 8.141108 59.032046 
L 8.452779 59.149868 
L 8.802497 59.313282 
L 9.152214 59.476697 
L 9.501932 59.640112 
L 9.851649 59.803526 
L 10.11578 59.953623 
L 10.37991 60.10372 
L 10.64404 60.253816 
L 10.908171 60.403913 
L 11.172301 60.554009 
L 11.436431 60.704106 
L 11.700562 60.854202 
L 11.964692 61.004299 
L 12.409349 61.190559 
L 12.854006 61.376818 
L 13.298663 61.563078 
L 13.74332 61.749338 
L 14.065336 61.868375 
L 14.387351 61.987412 
L 14.709366 62.106449 
L 15.031381 62.225486 
L 15.353396 62.344523 
L 15.675411 62.46356 
L 15.997426 62.582597 
L 16.319441 62.701634 
L 16.747236 62.885464 
L 17.175031 63.069293 
L 17.602825 63.253123 
L 18.03062 63.436952 
L 18.289082 63.562357 
L 18.547545 63.687761 
L 18.806007 63.813166 
L 19.064469 63.93857 
L 19.3495 64.094402 
L 19.634532 64.250234 
L 19.919563 64.406067 
L 20.204594 64.561899 
L 20.59002 64.770517 
L 20.975446 64.979136 
L 21.360873 65.187755 
L 21.746299 65.396373 
" style="fill:none;stroke:#008000;stroke-linecap:square;stroke-width:0.4;"/>
   </g>
   <g id="line2d_32">
    <path clip-path="url(#p90a37016cc)" d="M 21.164759 28.348575 
L 21.441642 28.52803 
L 21.718525 28.707485 
L 21.995409 28.886939 
L 22.272292 29.066394 
L 22.498447 29.237391 
L 22.724601 29.408389 
L 22.950756 29.579386 
L 23.17691 29.750383 
L 23.403065 29.921381 
L 23.629219 30.092378 
L 23.855374 30.263375 
L 24.081528 30.434373 
L 24.46157 30.742148 
L 24.841611 31.049924 
L 25.221653 31.3577 
L 25.601694 31.665476 
L 25.867738 31.878372 
L 26.133781 32.091268 
L 26.399824 32.304164 
L 26.665867 32.51706 
L 26.997447 32.846125 
L 27.329027 33.17519 
L 27.660607 33.504256 
L 27.992187 33.833321 
" style="fill:none;stroke:#ff0000;stroke-dasharray:1.48,0.64;stroke-dashoffset:0;stroke-width:0.4;"/>
   </g>
   <g id="line2d_33">
    <path clip-path="url(#p90a37016cc)" d="M 22.523386 32.980959 
L 22.90867 33.167997 
L 23.293955 33.355034 
L 23.657276 33.460413 
L 24.020597 33.565791 
L 24.529869 33.656977 
L 25.039142 33.748163 
L 25.366046 33.751954 
L 25.69295 33.755745 
L 26.019853 33.759537 
L 26.346757 33.763328 
L 26.692578 33.767119 
L 27.038399 33.77091 
L 27.38422 33.774702 
L 27.73004 33.778493 
L 27.992187 33.833321 
L 28.332411 33.904675 
L 28.672634 33.976029 
L 29.100004 34.134292 
L 29.527373 34.292554 
L 29.954743 34.450817 
L 30.382113 34.609079 
L 30.729351 34.799908 
L 31.076588 34.990737 
L 31.423826 35.181565 
L 31.771064 35.372394 
L 32.10144 35.600164 
L 32.431815 35.827933 
L 32.76219 36.055703 
L 33.092566 36.283473 
" style="fill:none;stroke:#000000;stroke-linecap:square;stroke-width:0.4;"/>
   </g>
   <g id="line2d_34">
    <path clip-path="url(#p90a37016cc)" d="M 16.367619 20.871355 
L 16.020878 21.085223 
L 15.674136 21.299091 
L 15.446139 21.451132 
L 15.218142 21.603173 
L 14.990146 21.755214 
L 14.762149 21.907255 
L 14.420084 22.27958 
L 14.078018 22.651905 
L 13.863908 23.121831 
L 13.649798 23.591758 
L 13.454534 24.019883 
L 13.294908 24.483491 
L 13.135282 24.947099 
L 12.975656 25.410707 
L 12.81603 25.874315 
L 12.7077 26.125124 
L 12.59937 26.375933 
L 12.49104 26.626742 
L 12.382709 26.877551 
L 12.274379 27.12836 
L 12.166049 27.379169 
L 12.057719 27.629978 
L 11.949388 27.880787 
L 11.797379 28.125909 
L 11.645369 28.371031 
L 11.49336 28.616153 
L 11.34135 28.861275 
L 11.189341 29.106397 
L 11.037331 29.351519 
L 10.885321 29.596641 
L 10.733312 29.841763 
L 10.500356 30.298469 
L 10.2674 30.755175 
L 10.034444 31.211881 
L 9.801487 31.668586 
" style="fill:none;stroke:#4169e1;stroke-linecap:square;stroke-width:0.4;"/>
   </g>
   <g id="line2d_35">
    <path clip-path="url(#p90a37016cc)" d="M 15.707294 18.266441 
L 15.493184 18.475643 
L 15.279074 18.684845 
L 15.088982 18.901435 
L 14.898891 19.118025 
L 14.708799 19.334615 
L 14.518707 19.551205 
L 14.336338 19.878035 
L 14.153969 20.204864 
L 14.001924 20.65321 
L 13.849879 21.101555 
L 13.811904 21.367529 
L 13.773928 21.633503 
L 13.735952 21.899478 
L 13.697976 22.165452 
L 13.685932 22.522028 
L 13.673887 22.878605 
L 13.661843 23.235182 
L 13.649798 23.591758 
" style="fill:none;stroke:#4169e1;stroke-linecap:square;stroke-width:0.4;"/>
   </g>
   <g id="line2d_36">
    <path clip-path="url(#p90a37016cc)" d="M 14.397128 10.948261 
L 14.385721 11.214235 
L 14.374314 11.48021 
L 14.362907 11.746184 
L 14.3515 12.012158 
L 14.381895 12.376998 
L 14.41229 12.741837 
L 14.442685 13.106677 
L 14.47308 13.471517 
L 14.547189 13.732339 
L 14.621299 13.993161 
L 14.695408 14.253982 
L 14.769518 14.514804 
L 14.853405 14.808776 
L 14.97881 15.317977 
L 15.104215 15.827177 
L 15.22962 16.336378 
L 15.355025 16.845579 
L 15.443093 17.200794 
L 15.53116 17.55601 
L 15.619227 17.911225 
L 15.707294 18.266441 
L 15.795715 18.624184 
L 15.867203 18.90508 
L 15.938691 19.185977 
L 16.010179 19.466873 
L 16.081667 19.74777 
L 16.153155 20.028666 
L 16.224643 20.309562 
L 16.296131 20.590459 
L 16.367619 20.871355 
L 16.464826 21.253596 
L 16.527139 21.535464 
L 16.589452 21.817333 
L 16.651765 22.099201 
L 16.714078 22.38107 
L 16.776391 22.662938 
L 16.838704 22.944807 
L 16.901017 23.226675 
L 16.96333 23.508544 
" style="fill:none;stroke:#4169e1;stroke-linecap:square;stroke-width:0.4;"/>
   </g>
   <g id="line2d_37">
    <path clip-path="url(#p90a37016cc)" d="M 23.517559 37.071285 
L 23.814351 37.201939 
L 24.111143 37.332593 
L 24.407936 37.463247 
L 24.704728 37.593901 
L 24.982178 37.704092 
L 25.259629 37.814283 
L 25.537079 37.924473 
L 25.814529 38.034664 
L 26.091979 38.144855 
L 26.369429 38.255045 
L 26.646879 38.365236 
L 26.92433 38.475427 
L 27.178966 38.581875 
L 27.433602 38.688323 
L 27.688239 38.794771 
L 27.942875 38.901219 
L 28.197511 39.007667 
L 28.452148 39.114115 
L 28.706784 39.220563 
L 28.96142 39.327011 
L 29.233167 39.40867 
L 29.504914 39.490328 
L 29.776661 39.571987 
L 30.048407 39.653646 
L 30.320154 39.735305 
L 30.591901 39.816963 
L 30.863648 39.898622 
L 31.135394 39.980281 
L 31.595284 40.086729 
L 32.055174 40.193177 
L 32.515064 40.299625 
L 32.974954 40.406073 
L 33.295411 40.443743 
L 33.615867 40.481413 
L 33.936323 40.519083 
L 34.25678 40.556753 
L 34.577236 40.594423 
L 34.897692 40.632093 
L 35.218149 40.669763 
L 35.538605 40.707433 
" style="fill:none;stroke:#4169e1;stroke-linecap:square;stroke-width:0.4;"/>
   </g>
   <g id="line2d_38">
    <path clip-path="url(#p90a37016cc)" d="M 20.774515 8.465835 
L 21.188989 8.551966 
L 21.603464 8.638096 
L 21.953111 8.782457 
L 22.302758 8.926818 
L 22.652405 9.071179 
L 23.002051 9.21554 
L 23.42772 9.496777 
L 23.85339 9.778013 
L 24.279059 10.05925 
L 24.704728 10.340487 
L 24.936586 10.555181 
L 25.168444 10.769876 
L 25.400302 10.98457 
L 25.63216 11.199265 
L 25.864018 11.413959 
L 26.095876 11.628654 
L 26.327734 11.843348 
L 26.559592 12.058043 
L 26.772426 12.346813 
L 26.985261 12.635584 
L 27.198096 12.924354 
L 27.41093 13.213125 
L 27.623765 13.501896 
L 27.836599 13.790666 
L 28.049434 14.079437 
L 28.262269 14.368208 
L 28.45608 14.662714 
L 28.649891 14.95722 
L 28.843703 15.251726 
L 29.037514 15.546232 
L 29.231325 15.840738 
L 29.425136 16.135245 
L 29.618948 16.429751 
L 29.812759 16.724257 
L 30.042704 17.085208 
L 30.272649 17.446159 
L 30.502594 17.80711 
L 30.732539 18.168061 
L 30.962484 18.529013 
L 31.192429 18.889964 
L 31.422374 19.250915 
L 31.652319 19.611866 
L 31.870857 19.997558 
L 32.089395 20.38325 
L 32.307933 20.768941 
L 32.526471 21.154633 
L 32.745009 21.540325 
L 32.963547 21.926017 
L 33.182085 22.311709 
L 33.400623 22.6974 
L 33.60779 22.950105 
L 33.814957 23.20281 
L 34.022123 23.455514 
L 34.22929 23.708219 
L 34.436456 23.960924 
L 34.643623 24.213628 
L 34.850789 24.466333 
L 35.057956 24.719038 
" style="fill:none;stroke:#ff0000;stroke-dasharray:1.48,0.64;stroke-dashoffset:0;stroke-width:0.4;"/>
   </g>
   <g id="line2d_39">
    <path clip-path="url(#p90a37016cc)" d="M 21.690752 34.909272 
L 21.947089 34.990445 
L 22.203426 35.071618 
L 22.459762 35.15279 
L 22.716099 35.233963 
L 22.780148 35.250295 
L 23.178398 35.35266 
L 23.576648 35.455025 
L 23.974898 35.55739 
L 24.373148 35.659755 
L 24.783656 35.724304 
L 25.194163 35.788854 
L 25.60467 35.853403 
L 26.015177 35.917952 
L 26.425684 35.990182 
L 26.836192 36.062411 
L 27.246699 36.13464 
L 27.657206 36.206869 
L 28.067643 36.370284 
L 28.478079 36.533698 
L 28.888515 36.697113 
L 29.298952 36.860528 
L 29.755087 37.012569 
L 30.211222 37.164609 
L 30.667356 37.31665 
L 31.123491 37.468691 
L 31.438917 37.540872 
L 31.754343 37.613052 
L 32.069769 37.685233 
L 32.385195 37.757413 
L 32.700621 37.829594 
L 33.016047 37.901774 
L 33.331473 37.973955 
L 33.646899 38.046135 
" style="fill:none;stroke:#4169e1;stroke-linecap:square;stroke-width:0.4;"/>
   </g>
   <g id="line2d_40">
    <path clip-path="url(#p90a37016cc)" d="M 24.383918 23.059421 
L 24.570538 23.329964 
L 24.757157 23.600507 
L 24.943777 23.87105 
L 25.130397 24.141594 
L 25.411674 24.567191 
L 25.69295 24.992789 
L 25.974226 25.418387 
L 26.255502 25.843984 
L 26.411302 26.096689 
L 26.567102 26.349394 
L 26.722902 26.602098 
L 26.878702 26.854803 
L 27.034502 27.107508 
L 27.190302 27.360212 
L 27.346102 27.612917 
L 27.501902 27.865622 
L 27.643957 28.10389 
L 27.786012 28.342159 
L 27.928067 28.580427 
L 28.070122 28.818696 
L 28.234495 29.094586 
L 28.398868 29.370476 
L 28.573727 29.613654 
L 28.748586 29.856831 
L 28.923445 30.100009 
L 29.098303 30.343187 
L 29.273162 30.586365 
L 29.448021 30.829543 
L 29.62288 31.072721 
L 29.797739 31.315898 
L 29.958427 31.552709 
L 30.135978 31.813822 
L 30.31353 32.074936 
L 30.491081 32.33605 
L 30.668632 32.597163 
L 30.846183 32.858277 
L 31.023734 33.11939 
L 31.201285 33.380504 
L 31.378836 33.641617 
L 31.521352 33.863943 
L 31.663867 34.086269 
L 31.806383 34.308594 
L 31.948899 34.53092 
L 32.091414 34.753246 
L 32.23393 34.975572 
L 32.376445 35.197897 
L 32.518961 35.420223 
L 32.805763 35.851848 
L 33.092566 36.283473 
L 33.287404 36.576861 
L 33.482243 36.870249 
L 33.677082 37.163637 
L 33.87192 37.457025 
" style="fill:none;stroke:#000000;stroke-linecap:square;stroke-width:0.4;"/>
   </g>
   <g id="line2d_41">
    <path clip-path="url(#p90a37016cc)" d="M 19.763904 12.635487 
L 20.10597 12.620321 
L 20.448036 12.605156 
L 20.790102 12.589991 
L 21.132167 12.574826 
L 21.603393 12.726769 
L 22.074619 12.878713 
L 22.545846 13.030657 
L 23.017072 13.1826 
L 23.416172 13.364971 
L 23.815272 13.547343 
L 24.214373 13.729714 
L 24.613473 13.912085 
L 24.982178 14.269342 
L 25.350884 14.626599 
L 25.719589 14.983856 
L 26.088295 15.341113 
L 26.257415 15.589978 
L 26.426535 15.838843 
L 26.595655 16.087708 
L 26.764775 16.336572 
L 26.933894 16.585437 
L 27.103014 16.834302 
L 27.272134 17.083167 
L 27.441254 17.332031 
L 27.541968 17.577105 
L 27.642682 17.822178 
L 27.743396 18.067252 
L 27.84411 18.312325 
L 27.944823 18.557399 
L 28.045537 18.802472 
L 28.146251 19.047546 
L 28.246965 19.292619 
L 28.441662 19.6037 
L 28.636359 19.914781 
L 28.850681 20.257067 
L 29.065004 20.599354 
L 29.279326 20.94164 
L 29.493649 21.283926 
L 29.733088 21.633552 
L 29.972527 21.983178 
L 30.211966 22.332804 
L 30.451404 22.68243 
L 30.690843 23.032055 
L 30.930282 23.381681 
L 31.169721 23.731307 
L 31.40916 24.080933 
L 31.637192 24.422928 
L 31.865224 24.764922 
L 32.093256 25.106917 
L 32.321288 25.448911 
L 32.54932 25.790906 
L 32.777352 26.132901 
L 33.005384 26.474895 
L 33.233416 26.81689 
L 33.500593 27.217504 
L 33.76777 27.618118 
L 34.034947 28.018732 
L 34.302124 28.419346 
L 34.419452 28.595107 
L 34.503056 29.035869 
L 34.586659 29.476632 
L 34.610181 29.748342 
L 34.633704 30.020052 
L 34.657226 30.291762 
L 34.680748 30.563471 
L 34.717307 30.985375 
L 34.753866 31.407278 
L 34.875445 31.855624 
L 34.997025 32.303969 
L 35.057814 32.721984 
L 35.118604 33.139999 
L 35.12243 33.539058 
L 35.126256 33.938116 
L 35.130082 34.337175 
L 35.133908 34.736234 
L 35.133908 35.23513 
L 35.133908 35.734026 
L 35.133908 36.134543 
L 35.080699 36.52981 
L 35.02749 36.925077 
L 34.974282 37.320344 
L 34.921073 37.715612 
" style="fill:none;stroke:#000000;stroke-linecap:square;stroke-width:0.4;"/>
   </g>
   <g id="line2d_42">
    <path clip-path="url(#p90a37016cc)" d="M 22.652334 16.891463 
L 23.051434 16.982649 
L 23.450534 17.073834 
L 23.849635 17.16502 
L 24.248735 17.256205 
L 24.533766 17.400566 
L 24.818797 17.544927 
L 25.103829 17.689288 
L 25.38886 17.833649 
L 25.76132 18.076876 
L 26.133781 18.320102 
L 26.506241 18.563329 
L 26.878702 18.806555 
L 27.318116 19.083612 
L 27.75753 19.360668 
L 28.196945 19.637725 
L 28.636359 19.914781 
" style="fill:none;stroke:#ff0000;stroke-linecap:square;stroke-width:0.4;"/>
   </g>
   <g id="line2d_43">
    <path clip-path="url(#p90a37016cc)" d="M 7.776583 9.854423 
L 7.751927 10.122341 
L 7.727271 10.39026 
L 7.702615 10.658178 
L 7.677959 10.926097 
L 7.649406 11.355388 
L 7.620854 11.78468 
L 7.592301 12.213972 
L 7.563748 12.643264 
L 7.537179 13.044169 
L 7.51061 13.445075 
L 7.484042 13.84598 
L 7.457473 14.246886 
L 7.449892 14.727603 
L 7.442311 15.208321 
L 7.43473 15.689038 
L 7.427149 16.169755 
" style="fill:none;stroke:#ff0000;stroke-dasharray:1.48,0.64;stroke-dashoffset:0;stroke-width:0.4;"/>
   </g>
   <g id="line2d_44">
    <path clip-path="url(#p90a37016cc)" d="M 29.356766 26.649684 
L 29.721645 26.873857 
L 30.086525 27.098029 
L 30.451404 27.322202 
L 30.816284 27.546375 
L 31.192571 27.70979 
L 31.568857 27.873204 
L 31.945144 28.036619 
L 32.32143 28.200034 
L 32.560834 28.36724 
L 32.800237 28.534446 
L 33.039641 28.701652 
L 33.279044 28.868858 
L 33.522274 29.119667 
L 33.765503 29.370476 
L 34.008732 29.621285 
L 34.251962 29.872094 
L 34.466355 30.217783 
L 34.680748 30.563471 
" style="fill:none;stroke:#4169e1;stroke-linecap:square;stroke-width:0.4;"/>
   </g>
   <g id="line2d_45">
    <path clip-path="url(#p90a37016cc)" d="M 16.343247 10.310156 
L 16.350757 9.960579 
L 16.358267 9.611002 
L 16.517964 9.367775 
L 16.677661 9.124549 
L 17.004565 8.926818 
L 17.331468 8.729087 
L 17.802624 8.653261 
L 18.273779 8.577435 
L 18.547474 8.600183 
L 18.821169 8.622931 
L 19.094864 8.645679 
L 19.368559 8.668427 
L 19.817042 8.729282 
L 20.265525 8.790137 
L 20.615243 8.683592 
L 20.774515 8.465835 
L 20.904029 8.288519 
L 20.957167 7.825008 
L 21.010305 7.361498 
L 21.033119 7.072678 
L 21.055932 6.783859 
L 21.078746 6.49504 
L 21.10156 6.206221 
L 21.257431 5.917402 
L 21.413302 5.628582 
L 21.569173 5.339763 
L 21.725044 5.050944 
L 21.97968 4.686201 
L 22.234316 4.321459 
L 22.488953 3.956717 
L 22.743589 3.591974 
L 22.964075 3.440128 
L 23.184562 3.288281 
L 23.503814 3.280504 
L 23.823066 3.272727 
L 24.294363 3.500983 
L 24.613615 3.911221 
L 24.932866 4.321459 
L 25.092492 4.731891 
L 25.252118 5.142324 
L 25.411744 5.552756 
L 25.57137 5.963189 
L 25.721502 6.318453 
L 25.871634 6.673717 
L 26.021766 7.028981 
L 26.171898 7.384245 
L 26.32203 7.73951 
L 26.472162 8.094774 
L 26.622294 8.450038 
L 26.772426 8.805302 
L 26.903535 9.054167 
L 27.034644 9.303032 
L 27.165752 9.551897 
L 27.296861 9.800761 
L 27.42797 10.049626 
L 27.559078 10.298491 
L 27.690187 10.547356 
L 27.821296 10.79622 
L 27.937207 11.043238 
L 28.053118 11.290256 
L 28.16903 11.537274 
L 28.284941 11.784291 
L 28.400852 12.031309 
L 28.516763 12.278327 
L 28.632675 12.525344 
L 28.748586 12.772362 
L 28.86641 13.099094 
L 28.984234 13.425827 
L 29.102059 13.752559 
L 29.219883 14.079291 
L 29.432717 14.322518 
L 29.645552 14.565744 
L 30.063711 14.710202 
L 30.48187 14.85466 
L 30.785818 14.968594 
L 31.089767 15.082527 
L 31.355881 15.378832 
L 31.621995 15.675136 
L 31.808261 15.94879 
L 31.994526 16.222444 
L 32.180792 16.496099 
L 32.367058 16.769753 
L 32.587473 17.11933 
L 32.807889 17.468907 
L 33.028304 17.818484 
L 33.24872 18.168061 
L 33.396939 18.475837 
L 33.545158 18.783613 
L 33.693377 19.091389 
L 33.841596 19.399164 
L 33.91769 19.885617 
L 33.993783 20.37207 
L 34.069735 20.72923 
L 34.145686 21.08639 
L 34.312893 21.359947 
L 34.4801 21.633503 
L 34.951397 21.785544 
L 35.362046 22.028576 
L 35.529253 22.484699 
L 35.468322 22.948404 
L 35.40739 23.412109 
L 35.320032 23.738841 
L 35.232673 24.065573 
L 35.145315 24.392305 
L 35.057956 24.719038 
L 35.08077 25.152218 
L 35.103584 25.585398 
L 35.057956 25.93517 
L 35.012328 26.284942 
L 34.959474 26.706651 
L 34.90662 27.12836 
L 34.755496 27.451106 
L 34.604372 27.773853 
L 34.453248 28.096599 
L 34.302124 28.419346 
" style="fill:none;stroke:#4169e1;stroke-linecap:square;stroke-width:0.4;"/>
   </g>
   <g id="line2d_46">
    <path clip-path="url(#p90a37016cc)" d="M 20.17427 21.390471 
L 20.366204 21.593743 
L 20.558137 21.797015 
L 20.750071 22.000287 
L 20.942005 22.203559 
L 21.133939 22.406831 
L 21.325872 22.610103 
L 21.517806 22.813375 
L 21.70974 23.016647 
L 21.991016 23.28651 
L 22.272292 23.556373 
L 22.553568 23.826235 
L 22.834844 24.096098 
L 23.053382 24.280365 
L 23.27192 24.464632 
L 23.490459 24.648899 
L 23.708997 24.833166 
L 23.927535 25.017432 
L 24.146073 25.201699 
L 24.364611 25.385966 
L 24.583149 25.570233 
L 24.780786 25.756444 
L 24.978423 25.942655 
L 25.17606 26.128866 
L 25.373698 26.315077 
L 25.571335 26.501289 
L 25.768972 26.6875 
L 25.966609 26.873711 
L 26.164247 27.059922 
L 26.422284 27.295371 
L 26.680321 27.530821 
L 26.938358 27.76627 
L 27.196395 28.00172 
L 27.414827 28.205964 
L 27.633259 28.410208 
L 27.851691 28.614452 
L 28.070122 28.818696 
" style="fill:none;stroke:#000000;stroke-linecap:square;stroke-width:0.4;"/>
   </g>
   <g id="line2d_47">
    <path clip-path="url(#p90a37016cc)" d="M 22.880472 36.666491 
L 23.17691 36.833697 
L 23.473348 37.000903 
L 23.517559 37.071285 
L 23.677822 37.32501 
L 23.838086 37.578736 
L 23.967317 37.816227 
L 24.096548 38.053718 
L 24.225779 38.291209 
L 24.355011 38.528699 
L 24.484242 38.76619 
L 24.613473 39.003681 
L 24.742704 39.241172 
L 24.871935 39.478663 
L 25.160792 39.889095 
L 25.449649 40.299528 
L 25.738506 40.70996 
L 26.027364 41.120393 
L 26.260709 41.354141 
L 26.494055 41.587889 
L 26.727401 41.821637 
L 26.960747 42.055385 
L 27.194093 42.289134 
L 27.427438 42.522882 
L 27.660784 42.75663 
L 27.89413 42.990378 
L 28.131656 43.248867 
L 28.369182 43.507356 
L 28.606708 43.765845 
L 28.844234 44.024333 
L 29.08176 44.282822 
L 29.319286 44.541311 
L 29.556812 44.7998 
L 29.794338 45.058289 
" style="fill:none;stroke:#4169e1;stroke-linecap:square;stroke-width:0.4;"/>
   </g>
   <g id="line2d_48">
    <path clip-path="url(#p90a37016cc)" d="M 20.609575 24.865635 
L 20.945406 25.144441 
L 21.281237 25.423247 
L 21.617068 25.702054 
L 21.952898 25.98086 
L 22.283557 26.326646 
L 22.614216 26.672432 
L 22.944875 27.018218 
L 23.275534 27.364004 
L 23.579624 27.641449 
L 23.883714 27.918894 
L 24.187804 28.19634 
L 24.491894 28.473785 
L 24.90233 28.713123 
L 25.312766 28.952461 
L 25.723203 29.191799 
L 26.133639 29.431137 
L 26.432026 29.600238 
L 26.730412 29.76934 
L 27.028799 29.938442 
L 27.327185 30.107543 
L 27.625572 30.276645 
L 27.923958 30.445747 
L 28.222344 30.614848 
L 28.520731 30.78395 
L 28.880155 30.97614 
L 29.239579 31.168329 
L 29.599003 31.360519 
L 29.958427 31.552709 
" style="fill:none;stroke:#000000;stroke-linecap:square;stroke-width:0.4;"/>
   </g>
   <g id="line2d_49">
    <path clip-path="url(#p90a37016cc)" d="M 16.567418 14.848828 
L 16.833461 15.09497 
L 17.099504 15.341113 
L 17.365547 15.587256 
L 17.631591 15.833399 
L 17.811196 16.120663 
L 17.990802 16.407927 
L 18.170408 16.69519 
L 18.350014 16.982454 
L 18.547616 17.461227 
L 18.745217 17.94 
L 18.942819 18.418773 
L 19.140421 18.897546 
L 19.269652 19.209162 
L 19.398883 19.520778 
L 19.528114 19.832393 
L 19.657345 20.144009 
L 19.786577 20.455625 
L 19.915808 20.76724 
L 20.045039 21.078856 
L 20.17427 21.390471 
L 20.250292 21.816069 
L 20.326315 22.241667 
L 20.402337 22.667264 
L 20.47836 23.092862 
L 20.511164 23.536055 
L 20.543967 23.979248 
L 20.576771 24.422441 
L 20.609575 24.865635 
L 20.630263 25.14483 
L 20.615101 25.425969 
L 20.599939 25.707109 
L 20.584777 25.988248 
L 20.569615 26.269387 
L 20.618998 26.550624 
L 20.668381 26.831861 
L 20.717763 27.113097 
L 20.767146 27.394334 
L 20.965952 27.871454 
L 21.164759 28.348575 
L 21.308018 28.692319 
L 21.451278 29.036064 
L 21.622311 29.503463 
L 21.793343 29.970862 
L 21.964376 30.438261 
L 22.135409 30.90566 
L 22.23042 31.407278 
L 22.32543 31.908896 
L 22.42044 32.410515 
L 22.515451 32.912133 
L 22.523386 32.980959 
L 22.555481 33.264626 
L 22.587576 33.548293 
L 22.619672 33.83196 
L 22.651767 34.115627 
L 22.683862 34.399294 
L 22.715957 34.682961 
L 22.748053 34.966628 
L 22.780148 35.250295 
" style="fill:none;stroke:#000000;stroke-linecap:square;stroke-width:0.4;"/>
   </g>
   <g id="line2d_50">
    <path clip-path="url(#p90a37016cc)" d="M 17.40742 11.465044 
L 17.616074 11.886462 
L 17.824729 12.307879 
L 18.033383 12.729297 
L 18.242038 13.150714 
L 18.470034 13.508069 
L 18.698031 13.865423 
L 18.926028 14.222777 
L 19.154024 14.580131 
L 19.407598 14.92932 
L 19.661171 15.278508 
L 19.914745 15.627697 
L 20.168319 15.976885 
L 20.298046 16.300895 
L 20.427773 16.624905 
L 20.5575 16.948916 
L 20.687227 17.272926 
L 20.771326 17.548233 
L 20.855426 17.823539 
L 20.939525 18.098846 
L 21.023625 18.374153 
L 21.107724 18.649459 
L 21.191823 18.924766 
L 21.275923 19.200073 
L 21.360022 19.475379 
L 21.537361 19.777225 
L 21.714699 20.079071 
L 21.892038 20.380916 
L 22.069377 20.682762 
L 22.329114 20.93571 
L 22.588852 21.188658 
L 22.848589 21.441605 
L 23.108327 21.694553 
L 23.427225 22.03577 
L 23.746122 22.376987 
L 24.06502 22.718204 
L 24.383918 23.059421 
" style="fill:none;stroke:#4169e1;stroke-linecap:square;stroke-width:0.4;"/>
   </g>
   <g id="line2d_51">
    <path clip-path="url(#p90a37016cc)" d="M 15.613488 11.222012 
L 15.841484 11.480404 
L 16.069481 11.738796 
L 16.175898 12.065431 
L 16.282316 12.392066 
L 16.317953 12.699161 
L 16.353591 13.006256 
L 16.389229 13.313351 
L 16.424867 13.620447 
L 16.460504 13.927542 
L 16.496142 14.234637 
L 16.53178 14.541732 
L 16.567418 14.848828 
L 16.601709 15.143188 
L 16.662499 15.464282 
L 16.723288 15.785376 
L 16.784078 16.10647 
L 16.844868 16.427564 
L 16.905657 16.748657 
L 16.966447 17.069751 
L 17.027237 17.390845 
L 17.088026 17.711939 
L 17.158345 18.002654 
L 17.228664 18.293369 
L 17.298983 18.584084 
L 17.369302 18.874799 
L 17.439621 19.165513 
L 17.509941 19.456228 
L 17.58026 19.746943 
L 17.650579 20.037658 
L 17.75317 20.478421 
L 17.855761 20.919184 
L 17.958353 21.359947 
L 18.060944 21.800709 
" style="fill:none;stroke:#000000;stroke-linecap:square;stroke-width:0.4;"/>
   </g>
   <g id="line2d_52">
    <path clip-path="url(#p90a37016cc)" d="M 14.990004 10.811386 
L 14.724032 10.454226 
L 14.458059 10.097066 
L 14.09318 9.899529 
L 13.7283 9.701993 
L 13.455597 9.609446 
L 13.182894 9.5169 
L 12.910191 9.424353 
L 12.637487 9.331807 
L 12.273954 9.321599 
L 11.910421 9.311392 
L 11.546887 9.301185 
L 11.183354 9.290977 
L 10.867042 9.221616 
L 10.55073 9.152255 
L 10.234419 9.082893 
L 9.918107 9.013532 
L 9.601796 8.944171 
L 9.285484 8.874809 
L 8.969172 8.805448 
L 8.652861 8.736087 
L 8.194033 8.80783 
L 7.735206 8.879573 
L 7.468525 8.956565 
L 7.009981 9.088775 
L 6.741317 9.126299 
L 6.472652 9.163823 
L 6.195627 9.057083 
L 5.918602 8.950344 
L 5.632933 8.867518 
L 5.347264 8.784693 
L 5.061595 8.701868 
L 4.775927 8.619042 
L 4.436199 8.719755 
L 4.096471 8.820467 
L 3.756743 8.92118 
L 3.417016 9.021892 
L 3.12908 9.203291 
L 2.841144 9.38469 
L 2.553208 9.56609 
L 2.265272 9.747489 
L 2.029623 10.112231 
L 1.793975 10.476974 
L 1.748347 10.773473 
L 1.702719 11.069972 
L 1.839602 11.526094 
L 2.200373 11.819677 
L 2.561143 12.113259 
L 2.905263 12.296992 
L 3.249384 12.480724 
L 3.593504 12.664456 
L 3.937625 12.848188 
L 4.268283 13.098997 
L 4.598942 13.349806 
L 4.929601 13.600615 
L 5.26026 13.851424 
L 5.530129 14.250386 
L 5.799998 14.649347 
L 6.069867 15.048308 
L 6.339737 15.44727 
L 6.662815 15.834857 
L 6.985892 16.222444 
L 7.30897 16.610032 
L 7.632048 16.997619 
L 7.810662 17.408052 
L 7.989276 17.818484 
L 8.16789 18.228917 
L 8.346504 18.639349 
L 8.428194 18.899636 
L 8.509885 19.159924 
L 8.591575 19.420211 
L 8.673266 19.680498 
L 8.754956 19.940786 
L 8.836647 20.201073 
L 8.918337 20.46136 
L 9.000028 20.721647 
L 9.091283 21.075016 
L 9.182538 21.428384 
L 9.273794 21.781753 
L 9.365049 22.135121 
L 9.410677 22.553137 
L 9.456304 22.971152 
L 9.501932 23.389167 
L 9.54756 23.807182 
L 9.562722 24.206143 
L 9.577884 24.605104 
L 9.593046 25.004066 
L 9.608207 25.403027 
L 9.661416 25.866635 
L 9.714625 26.330243 
L 9.767833 26.793851 
L 9.821042 27.257458 
L 9.790718 27.599453 
L 9.760394 27.941448 
L 9.646325 28.27586 
L 9.532256 28.610272 
L 9.418187 28.944684 
L 9.304118 29.279096 
L 9.25098 29.63645 
L 9.197842 29.993804 
L 9.311911 30.411819 
L 9.42598 30.829834 
L 9.613734 31.24921 
L 9.801487 31.668586 
L 9.987257 32.0483 
L 10.173027 32.428013 
L 10.358797 32.807726 
L 10.544566 33.187439 
" style="fill:none;stroke:#008000;stroke-linecap:square;stroke-width:0.4;"/>
   </g>
   <g id="line2d_53">
    <path clip-path="url(#p90a37016cc)" d="M 17.665882 10.826551 
L 17.988889 11.069777 
L 18.311896 11.313004 
L 18.634903 11.55623 
L 18.95791 11.799456 
L 19.159409 12.008464 
L 19.360907 12.217472 
L 19.562406 12.426479 
L 19.763904 12.635487 
L 19.877903 12.893878 
L 19.991901 13.15227 
L 20.105899 13.410661 
L 20.219898 13.669053 
L 20.375698 13.953984 
L 20.531498 14.238915 
L 20.687298 14.523845 
L 20.843098 14.808776 
L 21.069252 15.069112 
L 21.295407 15.329448 
L 21.521561 15.589784 
L 21.747716 15.850119 
L 21.97387 16.110455 
L 22.200025 16.370791 
L 22.426179 16.631127 
L 22.652334 16.891463 
L 22.817663 17.134641 
L 22.982993 17.377819 
L 23.148322 17.620996 
L 23.313651 17.864174 
L 23.478981 18.107352 
L 23.64431 18.35053 
L 23.80964 18.593708 
L 23.974969 18.836886 
L 24.151705 19.097173 
L 24.328442 19.35746 
L 24.505178 19.617747 
L 24.681914 19.878035 
L 24.858651 20.138322 
L 25.035387 20.398609 
L 25.212123 20.658896 
L 25.38886 20.919184 
L 25.533288 21.141461 
L 25.677717 21.363738 
L 25.822145 21.586015 
L 25.966574 21.808292 
L 26.111002 22.030569 
L 26.255431 22.252846 
L 26.39986 22.475123 
L 26.544288 22.6974 
L 26.692507 22.915935 
L 26.840726 23.134469 
L 26.988945 23.353003 
L 27.137164 23.571538 
L 27.285383 23.790072 
L 27.433602 24.008607 
L 27.581821 24.227141 
L 27.73004 24.445675 
L 27.933381 24.721176 
L 28.136722 24.996677 
L 28.340062 25.272179 
L 28.543403 25.54768 
L 28.746744 25.823181 
L 28.950084 26.098682 
L 29.153425 26.374183 
L 29.356766 26.649684 
" style="fill:none;stroke:#ff0000;stroke-linecap:square;stroke-width:0.4;"/>
   </g>
   <g id="line2d_54">
    <path clip-path="url(#p90a37016cc)" d="M 29.356766 26.649684 
L 29.599995 27.101821 
L 29.843225 27.553957 
L 30.086454 28.006094 
L 30.329683 28.458231 
L 30.546344 28.880037 
L 30.763005 29.301844 
L 30.979665 29.72365 
L 31.196326 30.145456 
L 31.424358 30.474181 
L 31.65239 30.802906 
L 31.880422 31.131632 
L 32.108454 31.460357 
L 32.336486 31.789082 
L 32.564518 32.117807 
L 32.79255 32.446532 
L 33.020582 32.775257 
L 33.233275 33.133972 
L 33.445968 33.492687 
L 33.658661 33.851403 
L 33.871353 34.210118 
L 34.186992 34.591095 
L 34.502631 34.972072 
L 34.818269 35.353049 
L 35.133908 35.734026 
" style="fill:none;stroke:#000000;stroke-linecap:square;stroke-width:0.4;"/>
   </g>
   <g id="line2d_55">
    <path clip-path="url(#p90a37016cc)" d="M 7.468525 8.956565 
L 7.732656 9.35961 
L 7.996786 9.762654 
L 8.407293 10.013463 
L 8.8178 10.264272 
L 9.099006 10.397259 
L 9.380211 10.530246 
L 9.661416 10.663233 
L 9.942621 10.79622 
L 10.242885 10.914042 
L 10.543149 11.031864 
L 10.843413 11.149686 
L 11.143677 11.267508 
L 11.599812 11.472627 
L 12.055947 11.677746 
L 12.390361 11.951497 
L 12.622184 12.259273 
L 12.854006 12.567049 
L 13.085829 12.874824 
L 13.317651 13.1826 
L 13.477348 13.39919 
L 13.637045 13.61578 
L 13.796742 13.832371 
L 13.956438 14.048961 
L 14.362978 14.281883 
L 14.769518 14.514804 
" style="fill:none;stroke:#008000;stroke-linecap:square;stroke-width:0.4;"/>
   </g>
   <g id="line2d_56">
    <path clip-path="url(#p90a37016cc)" d="M 16.814544 39.220466 
L 16.359613 39.47283 
L 15.904683 39.725195 
L 15.449752 39.977559 
L 14.994822 40.229923 
L 14.510205 40.391491 
L 14.025588 40.553059 
L 13.599778 40.714432 
L 13.173967 40.875805 
L 12.909695 41.037373 
L 12.645423 41.198941 
L 12.419126 41.615789 
L 12.19283 42.032638 
" style="fill:none;stroke:#008000;stroke-linecap:square;stroke-width:0.4;"/>
   </g>
   <g id="line2d_57">
    <path clip-path="url(#p90a37016cc)" d="M 12.19283 42.032638 
L 11.963842 42.202954 
L 11.734853 42.373271 
L 11.367848 42.578974 
L 11.000843 42.784676 
L 10.560295 43.019542 
L 10.119747 43.254408 
L 9.782004 43.584737 
L 9.44426 43.915066 
L 9.106516 44.245395 
L 8.768772 44.575724 
L 8.482465 44.928121 
L 8.196159 45.280517 
L 7.909852 45.632914 
L 7.623546 45.98531 
L 7.417938 46.286281 
L 7.21233 46.587252 
L 7.006722 46.888223 
L 6.801114 47.189193 
L 6.487672 47.587377 
" style="fill:none;stroke:#008000;stroke-linecap:square;stroke-width:0.4;"/>
   </g>
  </g>
 </g>
 <defs>
  <clipPath id="p90a37016cc">
   <rect height="72" width="37.459827" x="0" y="0"/>
  </clipPath>
 </defs>
</svg>
