<?xml version="1.0" encoding="utf-8" standalone="no"?>
<!DOCTYPE svg PUBLIC "-//W3C//DTD SVG 1.1//EN"
  "http://www.w3.org/Graphics/SVG/1.1/DTD/svg11.dtd">
<svg height="72pt" version="1.1" viewBox="0 0 35.527595 72" width="35.527595pt" xmlns="http://www.w3.org/2000/svg" xmlns:xlink="http://www.w3.org/1999/xlink">
 <metadata>
  <rdf:RDF xmlns:cc="http://creativecommons.org/ns#" xmlns:dc="http://purl.org/dc/elements/1.1/" xmlns:rdf="http://www.w3.org/1999/02/22-rdf-syntax-ns#">
   <cc:Work>
    <dc:type rdf:resource="http://purl.org/dc/dcmitype/StillImage"/>
    <dc:date>2022-04-21T17:35:36.356060</dc:date>
    <dc:format>image/svg+xml</dc:format>
    <dc:creator>
     <cc:Agent>
      <dc:title>Matplotlib v3.4.3, https://matplotlib.org/</dc:title>
     </cc:Agent>
    </dc:creator>
   </cc:Work>
  </rdf:RDF>
 </metadata>
 <defs>
  <style type="text/css">*{stroke-linecap:butt;stroke-linejoin:round;}</style>
 </defs>
 <g id="figure_1">
  <g id="patch_1">
   <path d="M 0 72 
L 35.527595 72 
L 35.527595 0 
L 0 0 
z
" style="fill:#ffffff;"/>
  </g>
  <g id="axes_1">
   <g id="line2d_1">
    <path clip-path="url(#pe7409289d5)" d="M 6.288189 68.727273 
L 6.566711 66.456555 
L 6.845233 64.185838 
L 7.123755 61.915121 
L 7.402277 59.644404 
" style="fill:none;stroke:#808080;stroke-linecap:square;stroke-width:0.4;"/>
   </g>
   <g id="line2d_2">
    <path clip-path="url(#pe7409289d5)" d="M 10.225445 65.885258 
L 10.724494 61.843221 
L 11.223542 57.801183 
" style="fill:none;stroke:#808080;stroke-linecap:square;stroke-width:0.4;"/>
   </g>
   <g id="line2d_3">
    <path clip-path="url(#pe7409289d5)" d="M 19.193997 66.365819 
L 20.096151 63.369437 
" style="fill:none;stroke:#808080;stroke-linecap:square;stroke-width:0.4;"/>
   </g>
   <g id="line2d_4">
    <path clip-path="url(#pe7409289d5)" d="M 9.341908 67.824958 
L 9.817328 64.679722 
L 10.292749 61.534486 
L 10.787501 58.261069 
L 11.282254 54.987653 
L 11.818892 51.435824 
L 12.35553 47.883995 
L 12.797478 44.958824 
L 13.239426 42.033653 
L 13.681374 39.108482 
L 14.123321 36.183311 
L 14.497071 33.713432 
L 14.830545 31.505886 
L 15.16402 29.29834 
L 15.497495 27.090794 
L 15.830969 24.883248 
L 16.303168 21.758686 
L 16.775366 18.634124 
L 17.335274 14.930225 
L 17.92597 11.021421 
" style="fill:none;stroke:#808080;stroke-linecap:square;stroke-width:0.4;"/>
   </g>
   <g id="line2d_5">
    <path clip-path="url(#pe7409289d5)" d="M 17.552221 63.109401 
L 17.802819 61.85149 
L 18.402107 58.842704 
L 19.001395 55.833917 
L 19.660468 52.525584 
L 20.319541 49.217251 
L 20.640307 47.606501 
L 21.165131 44.96985 
L 21.689955 42.333199 
L 22.181128 39.868374 
L 22.6723 37.403549 
L 23.162041 34.942859 
L 23.734479 32.069603 
L 24.306917 29.196348 
L 25.051193 25.460288 
L 25.79547 21.724229 
L 26.255676 19.413082 
L 26.715882 17.101935 
L 27.176087 14.790788 
L 27.636293 12.479642 
L 28.106344 10.119566 
L 28.576394 7.75949 
L 29.013509 5.516109 
L 29.450624 3.272727 
" style="fill:none;stroke:#808080;stroke-linecap:square;stroke-width:0.4;"/>
   </g>
   <g id="line2d_6">
    <path clip-path="url(#pe7409289d5)" d="M 15.601135 15.742491 
L 15.531504 16.6811 
L 15.461874 17.619709 
L 15.392243 18.558318 
L 15.322613 19.496928 
L 15.131084 20.68914 
L 14.939556 21.881353 
L 14.748027 23.073566 
L 14.556498 24.265778 
L 14.395489 25.048986 
L 14.23448 25.832194 
L 14.07347 26.615402 
L 13.912461 27.39861 
L 13.751452 28.181818 
L 13.590442 28.965026 
L 13.429433 29.748234 
L 13.268423 30.531442 
L 13.207564 31.440763 
L 13.146704 32.350083 
L 13.085845 33.259404 
L 13.024985 34.168725 
L 12.964126 35.078045 
L 12.903266 35.987366 
L 12.842407 36.896686 
L 12.781547 37.806007 
L 13.024985 38.69362 
L 13.268423 39.581232 
L 13.590442 40.442887 
L 13.912461 41.304543 
L 14.23448 42.166198 
L 14.556498 43.027853 
L 14.696117 43.96784 
L 14.661034 44.837995 
L 14.31306 45.638316 
L 13.749572 46.218113 
" style="fill:none;stroke:#4169e1;stroke-linecap:square;stroke-width:0.4;"/>
   </g>
   <g id="line2d_7">
    <path clip-path="url(#pe7409289d5)" d="M 28.627946 21.850112 
L 28.634032 22.48504 
L 28.640118 23.119968 
L 28.646204 23.754896 
L 28.65229 24.389824 
L 28.55384 25.04221 
L 28.455391 25.694596 
L 28.203182 26.279217 
L 27.950973 26.863837 
L 27.698763 27.448458 
L 27.446554 28.033079 
L 27.181905 28.796072 
L 26.917255 29.559065 
L 26.652605 30.322058 
L 26.387956 31.085051 
L 26.123306 31.848045 
L 25.858657 32.611038 
L 25.594007 33.374031 
L 25.329357 34.137024 
L 24.849641 34.949291 
L 24.369924 35.761557 
L 24.166761 36.401539 
L 23.963597 37.041521 
L 23.760434 37.681502 
L 23.55727 38.321484 
L 23.151301 38.825935 
L 22.745332 39.330385 
L 21.902248 39.816459 
L 21.059164 40.302533 
L 20.21608 40.788606 
L 19.372996 41.27468 
" style="fill:none;stroke:#4169e1;stroke-linecap:square;stroke-width:0.4;"/>
   </g>
   <g id="line2d_8">
    <path clip-path="url(#pe7409289d5)" d="M 31.352306 4.639982 
L 31.332796 5.303337 
L 31.313285 5.966692 
L 31.293774 6.630047 
L 31.274263 7.293401 
L 31.254752 7.956756 
L 31.235241 8.620111 
L 31.21573 9.283466 
L 31.19622 9.946821 
L 31.176709 10.610176 
L 31.157198 11.273531 
L 31.137687 11.936886 
L 31.118176 12.600241 
L 31.098665 13.263596 
L 31.079154 13.926951 
L 31.059643 14.590306 
L 31.040133 15.253661 
L 30.886373 15.88767 
L 30.732613 16.521679 
L 30.578853 17.155688 
L 30.425093 17.789697 
L 30.148182 18.534199 
L 29.871271 19.2787 
L 29.59436 20.023201 
L 29.317449 20.767702 
L 28.972697 21.308907 
L 28.627946 21.850112 
L 27.916963 22.497444 
L 27.20598 23.144777 
" style="fill:none;stroke:#4169e1;stroke-linecap:square;stroke-width:0.4;"/>
   </g>
   <g id="line2d_9">
    <path clip-path="url(#pe7409289d5)" d="M 17.92597 11.021421 
L 17.372506 11.797852 
L 16.819042 12.574284 
L 16.645055 13.192213 
L 16.471069 13.810142 
L 16.297082 14.428071 
L 16.123095 15.046 
L 15.601135 15.742491 
L 14.83502 16.404066 
L 14.208346 16.778269 
L 13.581671 17.152472 
L 12.954997 17.526675 
L 12.328322 17.900879 
L 11.553795 18.831907 
L 10.779267 19.762936 
L 10.00474 20.693964 
L 9.230212 21.624993 
L 8.586533 22.286568 
L 7.942854 22.948142 
L 7.472803 23.67909 
L 7.002752 24.410038 
L 6.698096 25.00178 
L 6.393441 25.593522 
L 6.088785 26.185264 
L 5.784129 26.777006 
L 5.436155 27.830012 
L 5.088182 28.883018 
L 4.740208 29.936025 
L 4.392235 30.989031 
L 4.357151 31.96761 
L 4.322067 32.94619 
L 4.112997 33.647734 
L 3.903926 34.349279 
L 3.799212 35.186125 
L 3.694498 36.022971 
L 3.589784 36.859817 
L 3.485069 37.696663 
L 3.165378 38.632057 
L 2.845686 39.56745 
L 2.537808 40.25659 
L 2.22993 40.94573 
L 1.934582 41.917877 
L 1.639234 42.890025 
L 1.627063 43.530006 
L 1.614891 44.169988 
L 1.811789 44.80951 
L 2.230288 45.277207 
L 2.648787 45.744903 
L 3.239483 45.991156 
L 3.891754 45.929593 
L 4.544026 45.86803 
L 5.307097 45.591225 
L 6.070169 45.31442 
L 6.83324 45.037616 
L 7.596312 44.760811 
L 8.519229 44.539367 
L 9.442147 44.317923 
L 10.057544 44.231551 
L 10.672942 44.145179 
L 11.398961 44.16034 
L 12.12498 44.175501 
L 12.617584 44.643198 
L 13.183578 45.430655 
L 13.749572 46.218113 
L 13.835849 46.919658 
L 13.922127 47.621203 
L 13.885253 48.630104 
L 13.848379 49.639005 
L 13.736058 50.510538 
L 13.623736 51.382071 
L 13.511414 52.253604 
L 13.399093 53.125136 
L 13.286771 53.996669 
L 13.174449 54.868202 
L 13.062127 55.739735 
L 12.949806 56.611267 
L 12.919734 57.819101 
L 12.889662 59.026934 
L 12.964305 59.673347 
L 13.038947 60.319761 
L 13.11359 60.966175 
L 13.188232 61.612588 
L 13.407326 62.583357 
L 13.626421 63.554126 
L 13.845515 64.524895 
L 14.06461 65.495664 
" style="fill:none;stroke:#008000;stroke-linecap:square;stroke-width:0.4;"/>
   </g>
   <g id="line2d_10">
    <path clip-path="url(#pe7409289d5)" d="M 29.450624 3.272727 
L 28.695697 3.846092 
L 27.94077 4.419457 
L 27.185843 4.992821 
L 26.430916 5.566186 
L 25.675988 6.139551 
L 24.921061 6.712916 
L 24.166134 7.28628 
L 23.411207 7.859645 
L 22.88504 8.191926 
L 22.358874 8.524206 
L 21.832707 8.856487 
L 21.30654 9.188767 
L 20.780373 9.521047 
L 20.254207 9.853328 
L 19.72804 10.185608 
L 19.201873 10.517889 
L 18.563922 10.769655 
L 17.92597 11.021421 
L 18.4533 12.000459 
L 18.980631 12.979498 
L 19.522281 13.43479 
L 20.063931 13.890082 
L 20.703672 14.65319 
L 21.343414 15.416298 
L 21.940375 15.988514 
L 22.537335 16.56073 
L 23.134296 17.132947 
L 23.731257 17.705163 
L 24.531023 18.259232 
L 25.330789 18.8133 
L 26.007763 19.453282 
L 26.684736 20.093264 
L 27.20598 20.776891 
L 27.20598 21.960834 
L 27.20598 23.144777 
L 26.927458 24.014931 
L 26.405498 24.885086 
L 25.81337 25.615575 
L 24.96062 26.37271 
L 24.10787 27.129846 
L 23.550826 27.913628 
L 23.124451 28.779418 
L 22.698076 29.645208 
L 22.271701 30.510998 
L 21.845326 31.376787 
L 21.566804 32.281858 
L 21.288282 33.186929 
L 21.131479 34.161374 
L 20.974676 35.135818 
L 20.737682 35.99219 
L 20.500688 36.848561 
L 20.263694 37.704933 
L 20.026699 38.561305 
L 19.863273 39.239649 
L 19.699848 39.917992 
L 19.536422 40.596336 
L 19.372996 41.27468 
L 19.239105 42.326767 
L 19.014551 43.019009 
L 18.789997 43.71125 
L 18.565443 44.403492 
L 18.340889 45.095733 
L 18.116335 45.787975 
L 17.891781 46.480216 
L 17.667228 47.172457 
L 17.442674 47.864699 
L 17.356396 48.670763 
L 17.270119 49.476828 
L 17.183842 50.282892 
L 17.097564 51.088957 
L 16.900666 51.679779 
L 16.703767 52.270602 
L 16.383896 52.818239 
L 16.064026 53.365876 
L 15.744155 53.913513 
L 15.424284 54.46115 
L 14.722609 55.125481 
L 14.020934 55.789812 
L 13.48537 56.20054 
L 12.949806 56.611267 
" style="fill:none;stroke:#4169e1;stroke-linecap:square;stroke-width:0.4;"/>
   </g>
   <g id="line2d_11">
    <path clip-path="url(#pe7409289d5)" d="M 29.450624 3.272727 
L 30.401465 3.956354 
L 31.352306 4.639982 
L 31.70923 5.193591 
L 32.066153 5.7472 
L 32.349329 6.350428 
L 32.632505 6.953655 
L 32.829404 7.99977 
L 33.026302 9.045885 
L 33.081613 9.716648 
L 33.136924 10.387412 
L 33.192234 11.058175 
L 33.247545 11.728938 
L 33.413835 12.670304 
L 33.580125 13.611669 
L 33.746414 14.553035 
L 33.912704 15.494401 
L 33.820341 16.165164 
L 33.727977 16.835927 
L 33.635614 17.50669 
L 33.543251 18.177454 
L 33.198857 19.3591 
L 32.780358 20.331247 
L 32.361859 21.303394 
L 31.893957 22.103256 
L 31.426054 22.903118 
L 31.047651 23.684603 
L 30.669247 24.466089 
L 30.290844 25.247574 
L 29.912441 26.029059 
L 29.534037 26.810544 
L 29.155634 27.592029 
L 28.777231 28.373514 
L 28.398827 29.154999 
L 28.217323 29.856544 
L 28.035818 30.558089 
L 27.854313 31.259634 
L 27.672809 31.961178 
L 27.491304 32.662723 
L 27.309799 33.364268 
L 27.128295 34.065813 
L 26.94679 34.767358 
L 26.694402 35.893413 
L 26.442013 37.019468 
L 26.189625 38.145523 
L 25.937237 39.271579 
L 25.56492 40.256016 
L 25.192602 41.240453 
L 24.820285 42.224889 
L 24.447968 43.209326 
L 24.07565 44.193763 
L 23.703333 45.1782 
L 23.331016 46.162637 
L 22.958698 47.147074 
L 22.534113 48.100844 
L 22.109528 49.054614 
L 21.684943 50.008385 
L 21.260358 50.962155 
L 20.804986 51.82358 
L 20.349613 52.685005 
L 19.814228 53.269626 
L 19.278843 53.854247 
L 18.743457 54.438868 
L 18.208072 55.023488 
L 17.851149 55.552748 
L 17.494225 56.082008 
L 17.014509 56.562109 
L 16.534792 57.04221 
L 16.28849 57.632114 
L 16.165339 58.247746 
L 16.177511 59.219893 
L 16.189683 60.19204 
L 16.411283 60.782863 
L 16.632883 61.373686 
L 17.092552 62.241544 
L 17.552221 63.109401 
" style="fill:none;stroke:#4169e1;stroke-linecap:square;stroke-width:0.4;"/>
   </g>
  </g>
 </g>
 <defs>
  <clipPath id="pe7409289d5">
   <rect height="72" width="35.527595" x="0" y="0"/>
  </clipPath>
 </defs>
</svg>
