<?xml version="1.0" encoding="utf-8" standalone="no"?>
<!DOCTYPE svg PUBLIC "-//W3C//DTD SVG 1.1//EN"
  "http://www.w3.org/Graphics/SVG/1.1/DTD/svg11.dtd">
<svg height="72pt" version="1.1" viewBox="0 0 81.597114 72" width="81.597114pt" xmlns="http://www.w3.org/2000/svg" xmlns:xlink="http://www.w3.org/1999/xlink">
 <metadata>
  <rdf:RDF xmlns:cc="http://creativecommons.org/ns#" xmlns:dc="http://purl.org/dc/elements/1.1/" xmlns:rdf="http://www.w3.org/1999/02/22-rdf-syntax-ns#">
   <cc:Work>
    <dc:type rdf:resource="http://purl.org/dc/dcmitype/StillImage"/>
    <dc:date>2022-04-21T17:35:42.168369</dc:date>
    <dc:format>image/svg+xml</dc:format>
    <dc:creator>
     <cc:Agent>
      <dc:title>Matplotlib v3.4.3, https://matplotlib.org/</dc:title>
     </cc:Agent>
    </dc:creator>
   </cc:Work>
  </rdf:RDF>
 </metadata>
 <defs>
  <style type="text/css">*{stroke-linecap:butt;stroke-linejoin:round;}</style>
 </defs>
 <g id="figure_1">
  <g id="patch_1">
   <path d="M 0 72 
L 81.597114 72 
L 81.597114 0 
L 0 0 
z
" style="fill:#ffffff;"/>
  </g>
  <g id="axes_1">
   <g id="line2d_1">
    <path clip-path="url(#p9c4a91ad76)" d="M 43.7096 44.381043 
L 43.391669 43.456008 
L 43.073738 42.530973 
L 42.755806 41.605938 
L 42.437875 40.680903 
L 42.119943 39.755868 
L 41.802012 38.830832 
L 41.484081 37.905797 
L 41.166149 36.980762 
L 40.848218 36.055727 
L 40.530287 35.130692 
L 40.212355 34.205657 
L 39.894424 33.280622 
L 39.576492 32.355586 
L 39.258561 31.430551 
L 38.94063 30.505516 
L 38.622698 29.580481 
L 38.269792 28.92331 
L 37.916885 28.26614 
L 37.563978 27.608969 
L 37.211072 26.951798 
L 36.858165 26.294627 
L 36.505259 25.637456 
L 36.152352 24.980286 
L 35.799445 24.323115 
L 35.446539 23.665944 
L 35.093632 23.008773 
L 34.740726 22.351603 
L 34.387819 21.694432 
L 34.034912 21.037261 
L 33.682006 20.38009 
L 33.329099 19.72292 
L 32.976193 19.065749 
" style="fill:none;stroke:#808080;stroke-linecap:square;stroke-width:0.4;"/>
   </g>
   <g id="line2d_2">
    <path clip-path="url(#p9c4a91ad76)" d="M 47.840434 43.468323 
L 47.308294 42.421496 
L 46.908192 41.634481 
L 46.508089 40.847466 
L 46.010337 39.868022 
L 45.512586 38.888578 
L 44.915659 37.714398 
L 44.318733 36.540218 
L 43.828375 35.575437 
L 43.338018 34.610656 
L 42.757288 33.468108 
L 42.176558 32.325561 
L 41.668948 31.327005 
L 41.161337 30.32845 
L 40.800376 29.618209 
L 40.439416 28.907968 
L 40.078455 28.197727 
L 39.717494 27.487486 
L 39.10484 26.282333 
L 38.492187 25.07718 
L 38.104642 24.331353 
L 37.717098 23.585525 
L 37.366289 22.894066 
L 37.01548 22.202606 
L 36.648358 21.478855 
L 36.281235 20.755105 
L 35.810361 19.826898 
L 35.439013 19.095075 
L 35.067665 18.363251 
L 34.701012 17.640489 
L 34.334359 16.917727 
L 33.683678 15.635306 
L 33.075954 14.437237 
L 32.46823 13.239168 
L 32.107797 12.528763 
L 31.747365 11.818357 
L 31.386932 11.107951 
L 31.026499 10.397545 
L 30.644119 9.643645 
L 30.261738 8.889745 
L 29.854183 8.086502 
L 29.446628 7.283259 
L 29.039072 6.480015 
L 28.631517 5.676772 
L 28.360869 5.14298 
" style="fill:none;stroke:#808080;stroke-linecap:square;stroke-width:0.4;"/>
   </g>
   <g id="line2d_3">
    <path clip-path="url(#p9c4a91ad76)" d="M 76.435157 60.683475 
L 75.402096 59.643567 
L 74.766673 59.004004 
L 74.131251 58.364441 
L 73.501579 57.730644 
L 72.871907 57.096847 
L 72.236485 56.45712 
L 71.601062 55.817392 
L 70.957189 55.169262 
L 70.313316 54.521132 
L 69.730474 53.934454 
L 69.147631 53.347776 
L 68.205647 52.399634 
L 67.263663 51.451493 
L 66.953111 51.138796 
L 66.231894 50.412739 
L 65.510676 49.686681 
L 64.833119 49.004613 
L 64.155562 48.322544 
L 63.388571 47.550356 
L 62.62158 46.778169 
L 61.839332 45.990824 
L 61.057084 45.20348 
L 60.163338 44.30361 
L 59.269591 43.403741 
L 58.448847 42.577515 
L 57.628102 41.751289 
L 56.826606 40.944504 
L 56.02511 40.137719 
L 55.297906 39.405566 
L 54.570703 38.673413 
L 54.036509 38.135666 
L 53.502315 37.597919 
L 52.968121 37.060172 
L 52.433927 36.522425 
" style="fill:none;stroke:#808080;stroke-linecap:square;stroke-width:0.4;"/>
   </g>
   <g id="line2d_4">
    <path clip-path="url(#p9c4a91ad76)" d="M 46.517243 51.423156 
L 46.212325 50.707972 
L 45.907407 49.992788 
L 45.564696 49.188639 
L 45.221986 48.38449 
L 44.767425 47.318222 
L 44.312865 46.251954 
L 43.990282 45.495171 
L 43.6677 44.738388 
L 43.345118 43.981605 
L 43.022536 43.224821 
L 42.676364 42.412599 
L 42.330191 41.600377 
L 41.984018 40.788156 
L 41.637846 39.975934 
L 41.189505 38.924329 
L 40.741165 37.872724 
L 40.271699 36.771199 
L 39.802232 35.669674 
L 39.237699 34.345407 
L 38.673166 33.021139 
L 38.207455 31.928511 
L 37.741745 30.835883 
L 37.323626 29.854874 
L 36.905508 28.873864 
L 36.48739 27.892855 
L 36.069271 26.911846 
L 35.76001 26.186201 
L 35.450749 25.460555 
L 35.141488 24.73491 
L 34.832228 24.009264 
L 34.478074 23.178343 
L 34.12392 22.347422 
L 33.769767 21.516501 
L 33.415613 20.68558 
L 32.894623 19.462963 
L 32.373633 18.240347 
L 31.927522 17.193684 
L 31.481412 16.147022 
L 31.127258 15.316101 
L 30.773105 14.48518 
L 30.418951 13.654258 
L 30.064797 12.823337 
L 29.641339 11.829807 
L 29.21788 10.836277 
L 28.794422 9.842746 
L 28.370963 8.849216 
L 28.021387 8.028839 
L 27.67181 7.208462 
L 27.322234 6.388084 
L 26.972658 5.567707 
L 26.47784 4.406872 
" style="fill:none;stroke:#808080;stroke-linecap:square;stroke-width:0.4;"/>
   </g>
   <g id="line2d_5">
    <path clip-path="url(#p9c4a91ad76)" d="M 77.888155 58.870556 
L 77.176708 57.877643 
L 76.465261 56.884731 
L 75.753814 55.891818 
L 75.042367 54.898906 
L 74.330921 53.905993 
L 73.619474 52.913081 
L 72.908027 51.920168 
L 72.19658 50.927256 
" style="fill:none;stroke:#808080;stroke-linecap:square;stroke-width:0.4;"/>
   </g>
   <g id="line2d_6">
    <path clip-path="url(#p9c4a91ad76)" d="M 77.661637 58.738755 
L 76.868239 57.675123 
L 76.074841 56.611491 
" style="fill:none;stroke:#808080;stroke-linecap:square;stroke-width:0.4;"/>
   </g>
   <g id="line2d_7">
    <path clip-path="url(#p9c4a91ad76)" d="M 52.012112 36.260471 
L 51.66588 36.44944 
L 51.319649 36.63841 
L 51.137027 36.789486 
L 50.954404 36.940563 
L 50.800126 37.129367 
L 50.645847 37.318172 
L 50.491569 37.506977 
L 50.337291 37.695781 
" style="fill:none;stroke:#008000;stroke-linecap:square;stroke-width:0.4;"/>
   </g>
   <g id="line2d_8">
    <path clip-path="url(#p9c4a91ad76)" d="M 65.593067 46.994652 
L 65.817883 46.995887 
L 66.042699 46.997123 
L 66.267514 46.998358 
L 66.49233 46.999594 
L 66.857575 47.018376 
L 67.22282 47.037157 
L 67.471519 47.078098 
L 67.720219 47.119038 
L 67.968919 47.159979 
L 68.217619 47.20092 
L 68.463149 47.370943 
L 68.70868 47.540966 
L 68.78403 47.880682 
L 68.721121 48.176575 
L 68.658213 48.472467 
L 68.488266 48.711685 
L 68.318319 48.950904 
L 68.070441 49.259153 
L 67.822563 49.567402 
" style="fill:none;stroke:#4169e1;stroke-linecap:square;stroke-width:0.4;"/>
   </g>
   <g id="line2d_9">
    <path clip-path="url(#p9c4a91ad76)" d="M 49.852097 34.702257 
L 50.165466 34.733066 
L 50.478835 34.763874 
L 50.792204 34.794682 
L 51.105572 34.825491 
L 51.539946 34.913468 
L 51.97432 35.001445 
L 52.301772 35.209196 
L 52.629225 35.416947 
L 52.773997 35.63104 
L 52.918768 35.845134 
L 53.06354 36.059228 
L 53.208312 36.273322 
L 53.346863 36.468469 
L 53.485414 36.663617 
L 53.623966 36.858764 
L 53.762517 37.053912 
L 54.014268 37.242716 
L 54.266019 37.431521 
L 54.59981 37.576337 
L 54.9336 37.721153 
L 55.119333 37.856496 
L 55.305066 37.991838 
L 55.490798 38.127181 
L 55.676531 38.262524 
L 55.821302 38.476536 
L 55.966074 38.690547 
L 56.110846 38.904558 
L 56.255617 39.11857 
L 56.416175 39.376652 
L 56.576732 39.634734 
L 56.73729 39.892817 
L 56.897847 40.150899 
L 57.096197 40.380644 
L 57.294546 40.610389 
L 57.492896 40.840134 
L 57.691245 41.06988 
L 58.024919 41.283891 
L 58.358592 41.497902 
L 58.670259 41.595435 
L 58.981926 41.692967 
L 59.293593 41.7905 
L 59.605259 41.888033 
L 60.014458 41.95731 
L 60.423657 42.026588 
L 60.832855 42.095866 
L 61.242054 42.165144 
L 61.497033 42.253285 
L 61.752011 42.341427 
L 62.00699 42.429569 
L 62.261969 42.51771 
L 62.438136 42.684521 
L 62.614304 42.851331 
L 62.790471 43.018141 
L 62.966638 43.184952 
L 63.190163 43.468241 
L 63.413687 43.75153 
L 63.637212 44.034819 
L 63.860737 44.318108 
L 64.021235 44.506913 
L 64.181734 44.695717 
L 64.342233 44.884522 
L 64.502732 45.073327 
" style="fill:none;stroke:#008000;stroke-linecap:square;stroke-width:0.4;"/>
   </g>
   <g id="line2d_10">
    <path clip-path="url(#p9c4a91ad76)" d="M 52.012112 36.260471 
L 51.933476 36.687011 
L 51.85484 37.113551 
L 51.875262 37.366114 
L 51.895684 37.618678 
L 51.916106 37.871241 
L 51.936528 38.123804 
L 52.008943 38.43543 
L 52.081358 38.747057 
L 52.153773 39.058683 
L 52.226188 39.370309 
L 52.311162 39.70706 
L 52.396135 40.043811 
L 52.481109 40.380562 
L 52.566082 40.717313 
L 52.578758 41.088661 
L 52.591433 41.46001 
L 52.619777 41.702358 
L 52.648121 41.944707 
L 52.676465 42.187055 
L 52.704809 42.429404 
L 52.786614 42.662362 
L 52.868418 42.89532 
L 52.950223 43.128277 
L 53.032027 43.361235 
L 53.205202 43.575247 
L 53.378376 43.789258 
L 53.55155 44.003269 
L 53.724725 44.217281 
L 54.008048 44.459629 
L 54.291371 44.701978 
L 54.574693 44.944327 
L 54.858016 45.186675 
L 55.097268 45.447888 
L 55.33652 45.7091 
L 55.575772 45.970313 
L 55.815023 46.231525 
L 55.937789 46.467613 
L 56.060554 46.703701 
L 56.18332 46.939789 
L 56.306085 47.175878 
L 56.425682 47.56296 
L 56.545278 47.950042 
L 56.664875 48.337124 
L 56.784471 48.724207 
L 56.885289 49.064088 
L 56.986107 49.403969 
L 57.1246 49.61172 
L 57.263092 49.819471 
L 57.401585 50.027221 
L 57.540077 50.234972 
L 57.72267 50.463152 
L 57.905263 50.691332 
L 58.087856 50.919512 
L 58.270449 51.147692 
L 58.453042 51.375872 
L 58.635636 51.604052 
L 58.818229 51.832232 
L 59.000822 52.060412 
L 59.290424 52.381429 
L 59.580026 52.702447 
L 59.869628 53.023464 
L 60.15923 53.344481 
L 60.385865 53.696965 
L 60.612499 54.04945 
L 60.839134 54.401935 
L 61.065769 54.754419 
L 61.232606 54.993555 
L 61.399442 55.232691 
L 61.566279 55.471827 
L 61.733115 55.710963 
L 61.90629 55.852566 
L 62.079464 55.99417 
L 62.252639 56.135773 
L 62.425813 56.277376 
L 62.796926 56.497648 
L 63.168039 56.71792 
L 63.334876 56.897334 
L 63.501712 57.076748 
L 63.668549 57.256162 
L 63.835385 57.435575 
" style="fill:none;stroke:#008000;stroke-linecap:square;stroke-width:0.4;"/>
   </g>
   <g id="line2d_11">
    <path clip-path="url(#p9c4a91ad76)" d="M 54.858016 45.186675 
L 55.172793 45.145735 
L 55.487571 45.104794 
L 55.802348 45.063853 
L 56.117125 45.022913 
L 56.507486 44.985185 
L 56.897847 44.947457 
L 57.288209 44.909729 
L 57.67857 44.872001 
L 57.906789 44.857832 
L 58.135008 44.843664 
L 58.363228 44.829495 
L 58.591447 44.815327 
L 58.819666 44.801158 
L 59.047886 44.786989 
L 59.276105 44.772821 
L 59.504324 44.758652 
L 59.792371 44.826324 
L 60.080418 44.893995 
L 60.368465 44.961667 
L 60.656512 45.029338 
L 60.944559 45.097009 
L 61.232606 45.164681 
L 61.520653 45.232352 
L 61.8087 45.300024 
L 62.04 45.32832 
L 62.2713 45.356616 
L 62.5026 45.384912 
L 62.7339 45.413208 
L 62.9652 45.441504 
L 63.196501 45.4698 
L 63.427801 45.498096 
L 63.659101 45.526391 
L 63.901522 45.517001 
L 64.143942 45.50761 
L 64.386363 45.498219 
L 64.628784 45.488828 
L 64.993911 45.545503 
L 65.359038 45.602177 
L 65.610907 45.643035 
L 65.862776 45.683893 
L 66.114644 45.724752 
L 66.366513 45.76561 
L 66.652946 45.93242 
L 66.939379 46.09923 
L 67.225812 46.266041 
L 67.512245 46.432851 
L 67.688589 46.624868 
L 67.864932 46.816885 
L 68.041275 47.008902 
L 68.217619 47.20092 
" style="fill:none;stroke:#ff0000;stroke-dasharray:1.48,0.64;stroke-dashoffset:0;stroke-width:0.4;"/>
   </g>
   <g id="line2d_12">
    <path clip-path="url(#p9c4a91ad76)" d="M 46.72733 48.152521 
L 47.277544 49.303141 
L 48.535538 50.017831 
L 50.328606 50.872888 
L 50.488694 51.562865 
L 49.808437 54.527722 
L 50.047865 57.158794 
L 49.619594 58.73233 
L 49.468543 59.084732 
L 49.468543 61.325344 
L 49.625932 62.162443 
L 50.072981 63.566286 
L 51.01743 63.868274 
L 52.629225 64.711634 
L 53.107611 65.227634 
L 53.945022 65.284308 
L 54.813769 65.171124 
L 55.903048 64.925481 
L 57.552753 64.900439 
L 57.955555 64.648699 
L 58.761394 63.490501 
L 59.113963 63.654263 
L 59.662534 64.694171 
L 60.574825 65.800473 
L 61.053328 66.876791 
L 61.585351 67.949813 
L 62.010335 68.488054 
L 62.526513 68.727273 
L 64.040014 68.466143 
L 64.6539 68.097924 
L 65.610907 66.788814 
L 67.273052 66.209549 
L 68.450474 66.146615 
L 68.696005 66.071159 
L 69.092704 65.467017 
L 69.741037 63.818025 
L 72.574266 59.361513 
L 72.574266 59.361513 
" style="fill:none;stroke:#008000;stroke-linecap:square;stroke-width:0.4;"/>
   </g>
   <g id="line2d_13">
    <path clip-path="url(#p9c4a91ad76)" d="M 64.502732 45.073327 
L 64.682185 45.340882 
L 64.861639 45.608437 
L 65.041092 45.875993 
L 65.220546 46.143548 
L 65.313676 46.356324 
L 65.406807 46.5691 
L 65.499937 46.781876 
L 65.593067 46.994652 
L 65.7494 47.351832 
L 65.872165 47.565843 
L 65.99493 47.779854 
L 66.117696 47.993866 
L 66.240461 48.207877 
L 66.451428 48.418758 
L 66.662394 48.62964 
L 66.873361 48.840521 
L 67.084327 49.051402 
L 67.268886 49.180402 
L 67.453445 49.309402 
L 67.638004 49.438402 
L 67.822563 49.567402 
L 68.003542 49.693601 
L 68.356111 49.788003 
L 68.70868 49.882405 
L 69.023457 49.992541 
L 69.338235 50.102677 
L 69.653012 50.212813 
L 69.967789 50.322949 
L 70.203872 50.426825 
L 70.439955 50.5307 
L 70.676038 50.634576 
L 70.91212 50.738451 
L 71.094743 50.876924 
L 71.277365 51.015397 
L 71.459988 51.15387 
L 71.64261 51.292344 
L 71.801583 51.467021 
L 71.960556 51.641698 
L 72.119529 51.816375 
L 72.278502 51.991052 
L 72.437475 52.165729 
L 72.596448 52.340406 
L 72.755421 52.515084 
L 72.914394 52.689761 
L 73.095403 52.954104 
L 73.276411 53.218446 
L 73.45742 53.482789 
L 73.638428 53.747132 
L 73.819437 54.011475 
L 74.000446 54.275818 
L 74.181454 54.540161 
L 74.362463 54.804503 
L 74.539686 55.102867 
L 74.71691 55.401231 
L 74.894133 55.699595 
L 75.071357 55.997959 
L 75.24858 56.296323 
L 75.425804 56.594687 
L 75.603028 56.893051 
L 75.780251 57.191414 
L 75.91311 57.478411 
L 76.045969 57.765407 
L 76.178828 58.052403 
L 76.311687 58.339399 
L 76.444546 58.626395 
L 76.577405 58.913391 
L 76.710264 59.200387 
L 76.843123 59.487383 
" style="fill:none;stroke:#4169e1;stroke-linecap:square;stroke-width:0.4;"/>
   </g>
   <g id="line2d_14">
    <path clip-path="url(#p9c4a91ad76)" d="M 46.72733 48.152521 
L 47.050616 48.191567 
L 47.373902 48.230613 
L 47.697188 48.269659 
L 48.020475 48.308705 
L 48.266005 48.349645 
L 48.511536 48.390586 
L 48.757067 48.431527 
L 49.002598 48.472467 
L 49.248129 48.57 
L 49.49366 48.667532 
L 49.739191 48.765065 
L 49.984722 48.862597 
L 50.315284 49.051484 
L 50.645847 49.240371 
L 50.97641 49.429258 
L 51.306973 49.618145 
L 51.640646 49.766009 
L 51.97432 49.913873 
L 52.307993 50.061737 
L 52.641666 50.209601 
L 53.032027 50.348074 
L 53.422388 50.486547 
L 53.81275 50.62502 
L 54.203111 50.763493 
L 54.45498 50.842162 
L 54.706848 50.92083 
L 54.958717 50.999499 
L 55.210586 51.078167 
L 55.462396 51.229244 
L 55.714205 51.380321 
L 55.966015 51.531397 
L 56.217825 51.682474 
L 56.408282 51.869754 
L 56.598739 52.057035 
L 56.789195 52.244316 
L 56.979652 52.431596 
L 57.170108 52.618877 
L 57.360565 52.806157 
L 57.551022 52.993438 
L 57.741478 53.180718 
L 57.999626 53.533203 
L 58.257774 53.885688 
L 58.515922 54.238172 
L 58.774069 54.590657 
L 59.092015 54.89594 
L 59.409962 55.201224 
L 59.727908 55.506507 
L 60.045854 55.81179 
L 60.256761 56.041536 
L 60.467669 56.271281 
L 60.678577 56.501026 
L 60.889485 56.730771 
L 61.198041 56.938357 
L 61.506598 57.145943 
L 61.821375 57.190096 
L 62.136152 57.23425 
L 62.476163 57.265717 
L 62.816174 57.297185 
L 63.070977 57.331782 
L 63.32578 57.36638 
L 63.580583 57.400978 
L 63.835385 57.435575 
L 64.077806 57.470173 
L 64.320227 57.504771 
L 64.562647 57.539368 
L 64.805068 57.573966 
L 65.236332 57.58657 
L 65.667595 57.599173 
L 66.098859 57.611776 
L 66.530122 57.62438 
L 66.770958 57.657454 
L 67.011794 57.690527 
L 67.252631 57.723601 
L 67.493467 57.756675 
L 67.734303 57.789749 
L 67.975139 57.822822 
L 68.215975 57.855896 
L 68.456812 57.88897 
L 68.796764 58.01797 
L 69.136716 58.14697 
L 69.476668 58.27597 
L 69.816621 58.40497 
L 70.027558 58.494676 
L 70.238495 58.584383 
L 70.449432 58.67409 
L 70.660369 58.763797 
L 70.871306 58.853504 
L 71.082243 58.943211 
L 71.29318 59.032918 
L 71.504117 59.122625 
L 71.771654 59.182347 
L 72.039192 59.242069 
L 72.306729 59.301791 
L 72.574266 59.361513 
L 72.822496 59.376835 
L 73.070726 59.392157 
L 73.321245 59.407644 
L 73.571764 59.42313 
L 73.822283 59.438617 
L 74.072802 59.454103 
L 74.369387 59.557073 
L 74.665973 59.660042 
L 74.955281 59.91903 
L 75.24459 60.178019 
L 75.533899 60.437007 
L 75.823207 60.695996 
" style="fill:none;stroke:#008000;stroke-linecap:square;stroke-width:0.4;"/>
   </g>
   <g id="line2d_15">
    <path clip-path="url(#p9c4a91ad76)" d="M 31.67624 5.511033 
L 31.921654 5.877769 
L 32.167067 6.244504 
L 32.308729 6.496326 
L 32.45039 6.748148 
L 32.592052 6.999969 
L 32.733713 7.251791 
L 32.8502 7.459542 
L 32.966686 7.667293 
L 33.083172 7.875044 
L 33.199658 8.082795 
L 33.382163 8.340959 
L 33.564669 8.599124 
L 33.59002 8.951691 
L 33.605747 9.187779 
L 33.621474 9.423867 
L 33.637201 9.659955 
L 33.652928 9.896043 
L 33.583682 10.185675 
L 33.514436 10.475307 
L 33.514436 10.872027 
L 33.514436 11.268748 
L 33.54278 11.555167 
L 33.571124 11.841587 
L 33.599468 12.128006 
L 33.627812 12.414425 
L 33.673819 12.581153 
L 33.734674 12.800766 
L 33.795529 13.020379 
L 33.856383 13.239992 
L 33.917238 13.459605 
L 34.080964 13.733421 
L 34.24469 14.007237 
L 34.408417 14.281053 
L 34.572143 14.554869 
L 34.685461 14.80043 
L 34.798778 15.045992 
L 34.912095 15.291553 
L 35.025413 15.537114 
L 35.085211 15.792066 
L 35.145009 16.047018 
L 35.204808 16.30197 
L 35.264606 16.556922 
L 35.346469 16.82769 
L 35.428332 17.098458 
L 35.510196 17.369226 
L 35.592059 17.639995 
L 35.843927 17.879213 
L 36.120912 17.904255 
L 36.511274 17.790906 
L 36.782038 17.545428 
L 37.052803 17.299949 
L 37.355022 16.997796 
L 37.657241 16.695642 
L 37.927888 16.525619 
L 38.198536 16.355597 
L 38.532326 16.128899 
L 38.866117 15.902202 
" style="fill:none;stroke:#4169e1;stroke-linecap:square;stroke-width:0.4;"/>
   </g>
   <g id="line2d_16">
    <path clip-path="url(#p9c4a91ad76)" d="M 40.087433 20.271396 
L 39.854813 20.510944 
L 39.622192 20.750492 
L 39.496258 21.11558 
L 39.370323 21.480668 
L 39.370323 21.795507 
L 39.370323 22.110346 
L 39.450602 22.43161 
L 39.511163 22.673794 
L 39.571724 22.915977 
L 39.659867 23.186746 
L 39.748009 23.457514 
L 39.836151 23.728282 
L 39.924294 23.99905 
L 39.936911 24.263393 
L 39.949527 24.527736 
L 39.962144 24.792078 
L 39.974761 25.056421 
L 40.025112 25.33971 
L 40.075462 25.623 
L 40.125812 25.906289 
L 40.176162 26.189578 
L 40.358785 26.542145 
L 40.541407 26.894712 
L 40.724029 27.247279 
L 40.906652 27.599846 
L 41.045144 27.820159 
L 41.183637 28.040472 
L 41.32213 28.260785 
L 41.460622 28.481098 
L 41.599115 28.701411 
L 41.737607 28.921725 
L 41.8761 29.142038 
L 42.014592 29.362351 
L 42.127968 29.633037 
L 42.241345 29.903722 
L 42.354721 30.174408 
L 42.468097 30.445094 
L 42.593972 30.803674 
L 42.719848 31.162254 
L 42.845724 31.520835 
L 42.971599 31.879415 
L 43.006222 32.140628 
L 43.040846 32.40184 
L 43.075469 32.663053 
L 43.110092 32.924265 
L 43.144715 33.185478 
L 43.179338 33.44669 
L 43.213961 33.707903 
L 43.248584 33.969116 
L 43.32276 34.353974 
L 43.396936 34.738832 
" style="fill:none;stroke:#4169e1;stroke-linecap:square;stroke-width:0.4;"/>
   </g>
   <g id="line2d_17">
    <path clip-path="url(#p9c4a91ad76)" d="M 35.843927 17.879213 
L 35.98242 18.124692 
L 36.120912 18.370171 
L 36.341327 18.741519 
L 36.561741 19.112868 
L 36.763142 19.446653 
L 36.964543 19.780438 
L 37.109374 20.007053 
L 37.254204 20.233668 
L 37.399034 20.460283 
L 37.543865 20.686898 
L 37.730126 20.860545 
L 37.916386 21.034193 
L 38.101591 21.206852 
L 38.286795 21.379511 
L 38.601572 21.618729 
L 38.91635 21.857947 
L 39.183476 22.144779 
L 39.450602 22.43161 
" style="fill:none;stroke:#ff0000;stroke-linecap:square;stroke-width:0.4;"/>
   </g>
   <g id="line2d_18">
    <path clip-path="url(#p9c4a91ad76)" d="M 34.357362 16.741443 
L 34.506887 17.054058 
L 34.656412 17.366673 
L 34.805937 17.679288 
L 34.955462 17.991902 
L 35.061797 18.191828 
L 35.168131 18.391753 
L 35.274465 18.591678 
L 35.380799 18.791603 
L 35.487133 18.991529 
L 35.593467 19.191454 
L 35.699801 19.391379 
L 35.806135 19.591304 
L 35.960384 19.891933 
L 36.114633 20.192563 
L 36.268882 20.493192 
L 36.423131 20.793821 
L 36.57738 21.09445 
L 36.731629 21.39508 
L 36.885878 21.695709 
L 37.040127 21.996338 
L 37.184312 22.264429 
L 37.328497 22.53252 
L 37.472682 22.800611 
L 37.616867 23.068702 
L 37.761052 23.336792 
L 37.905236 23.604883 
L 38.049421 23.872974 
L 38.193606 24.141065 
L 38.359973 24.51505 
L 38.52634 24.889034 
L 38.692707 25.263019 
L 38.859075 25.637003 
L 38.977263 25.998467 
L 39.095451 26.35993 
L 39.213639 26.721394 
L 39.331827 27.082857 
" style="fill:none;stroke:#ff0000;stroke-linecap:square;stroke-width:0.4;"/>
   </g>
   <g id="line2d_19">
    <path clip-path="url(#p9c4a91ad76)" d="M 42.468097 30.445094 
L 42.751361 30.539249 
L 43.034625 30.633404 
L 43.317889 30.727559 
L 43.601154 30.821714 
L 43.783776 31.010519 
L 43.966398 31.199323 
L 44.149021 31.388128 
L 44.331643 31.576932 
L 44.495311 31.898032 
L 44.658979 32.219132 
L 44.822646 32.540231 
L 44.986314 32.861331 
L 45.131144 33.176087 
L 45.275975 33.490844 
L 45.420805 33.8056 
L 45.565635 34.120357 
L 45.785991 34.435114 
L 46.006347 34.74987 
L 46.226703 35.064627 
L 46.447058 35.379383 
L 46.618648 35.758969 
L 46.790238 36.138556 
L 46.961828 36.518142 
L 47.133418 36.897728 
L 47.211966 37.171997 
L 47.290513 37.446266 
L 47.369061 37.720535 
L 47.447608 37.994804 
L 47.526156 38.269073 
L 47.604703 38.543342 
L 47.683251 38.817611 
L 47.761799 39.09188 
L 47.8571 39.364296 
L 47.952402 39.636711 
L 48.047704 39.909127 
L 48.143005 40.181543 
L 48.238307 40.453958 
L 48.333609 40.726374 
L 48.42891 40.99879 
L 48.524212 41.271205 
" style="fill:none;stroke:#4169e1;stroke-linecap:square;stroke-width:0.4;"/>
   </g>
   <g id="line2d_20">
    <path clip-path="url(#p9c4a91ad76)" d="M 37.833995 12.08756 
L 38.095282 12.144234 
L 38.35657 12.200908 
L 38.617857 12.257583 
L 38.879144 12.314257 
L 39.140432 12.370931 
L 39.401719 12.427605 
L 39.663006 12.48428 
L 39.924294 12.540954 
L 40.311515 12.635398 
L 40.698737 12.729841 
L 41.085959 12.824284 
L 41.47318 12.918728 
L 41.860402 13.013171 
L 42.247624 13.107615 
L 42.634845 13.202058 
L 43.022067 13.296502 
L 43.431295 13.457051 
L 43.840523 13.617601 
L 44.249751 13.778151 
L 44.658979 13.938701 
L 45.068206 14.099251 
L 45.477434 14.2598 
L 45.886662 14.42035 
L 46.29589 14.5809 
L 46.607542 14.731997 
L 46.919195 14.883094 
L 47.230847 15.034191 
L 47.542499 15.185288 
L 47.854151 15.336386 
L 48.165804 15.487483 
L 48.477456 15.63858 
L 48.789108 15.789677 
L 49.10076 15.940774 
L 49.412413 16.091872 
L 49.724065 16.242969 
L 50.035717 16.394066 
L 50.34737 16.545163 
L 50.659022 16.69626 
L 50.970674 16.847357 
L 51.282326 16.998455 
L 51.452332 17.262839 
L 51.622337 17.527223 
L 51.792343 17.791607 
L 51.962348 18.055991 
L 52.132354 18.320375 
L 52.302359 18.584759 
L 52.472365 18.849143 
L 52.64237 19.113527 
L 52.721064 19.412591 
L 52.799759 19.711655 
L 52.878453 20.010719 
L 52.957147 20.309783 
L 53.035842 20.608847 
L 53.114536 20.907911 
L 53.19323 21.206975 
L 53.271924 21.506039 
L 53.221574 21.789328 
L 53.171224 22.072618 
L 53.120874 22.355907 
L 53.070523 22.639196 
L 53.020173 22.922485 
L 52.969823 23.205774 
L 52.919473 23.489064 
L 52.869122 23.772353 
L 52.763346 23.977962 
L 52.657569 24.183571 
L 52.551793 24.38918 
L 52.446016 24.594789 
L 52.340239 24.800398 
L 52.234463 25.006007 
L 52.128686 25.211617 
L 52.022909 25.417226 
L 51.894452 25.666988 
L 51.765994 25.91675 
L 51.637536 26.166513 
L 51.509079 26.416275 
L 51.317038 26.605121 
L 51.124996 26.793967 
L 50.932955 26.982812 
L 50.740914 27.171658 
L 50.548873 27.360504 
L 50.356832 27.54935 
L 50.164791 27.738195 
L 49.97275 27.927041 
L 49.764982 28.12536 
L 49.557214 28.323679 
L 49.349446 28.521998 
L 49.141677 28.720317 
L 48.933909 28.918635 
L 48.726141 29.116954 
L 48.518373 29.315273 
L 48.310605 29.513592 
" style="fill:none;stroke:#ff0000;stroke-dasharray:1.48,0.64;stroke-dashoffset:0;stroke-width:0.4;"/>
   </g>
   <g id="line2d_21">
    <path clip-path="url(#p9c4a91ad76)" d="M 28.792309 5.400979 
L 28.93086 5.652801 
L 29.069411 5.904623 
L 29.207963 6.156445 
L 29.346514 6.408266 
L 29.485006 6.701029 
L 29.623499 6.993791 
L 29.761992 7.286554 
L 29.900484 7.579316 
L 30.038977 7.913019 
L 30.177469 8.246722 
L 30.315962 8.580425 
L 30.454454 8.914128 
L 30.585905 9.267107 
L 30.717355 9.620085 
L 30.848806 9.973064 
L 30.980257 10.326043 
L 31.193042 10.71329 
L 31.405828 11.100537 
L 31.618613 11.487784 
L 31.831399 11.875031 
L 31.95836 12.095138 
L 32.085322 12.315245 
L 32.212283 12.535353 
L 32.339244 12.75546 
L 32.466205 12.975567 
L 32.593167 13.195674 
L 32.720128 13.415781 
L 32.847089 13.635889 
L 33.018151 14.004684 
L 33.189213 14.373478 
L 33.360275 14.742273 
L 33.531336 15.111068 
L 33.63459 15.314865 
L 33.737843 15.518662 
L 33.841096 15.722459 
L 33.944349 15.926256 
L 34.047603 16.130053 
L 34.150856 16.333849 
L 34.254109 16.537646 
L 34.357362 16.741443 
L 34.382948 17.121359 
L 34.408534 17.501274 
L 34.219574 17.727972 
L 34.030614 17.954669 
" style="fill:none;stroke:#4169e1;stroke-linecap:square;stroke-width:0.4;"/>
   </g>
   <g id="line2d_22">
    <path clip-path="url(#p9c4a91ad76)" d="M 40.201513 17.753673 
L 40.46594 17.86072 
L 40.730367 17.967766 
L 40.994794 18.074813 
L 41.259221 18.18186 
L 41.523648 18.288907 
L 41.788075 18.395954 
L 42.052502 18.503001 
L 42.316929 18.610048 
L 42.653771 18.764296 
L 42.990613 18.918544 
L 43.327455 19.072792 
L 43.664297 19.22704 
L 44.001139 19.381288 
L 44.337981 19.535536 
L 44.674823 19.689784 
L 45.011665 19.844032 
L 45.329611 20.051783 
L 45.647557 20.259534 
L 45.965503 20.467285 
L 46.283449 20.675036 
L 46.601395 20.882787 
L 46.919341 21.090537 
L 47.237287 21.298288 
L 47.555233 21.506039 
L 47.854283 21.748388 
L 48.153334 21.990736 
L 48.452384 22.233085 
L 48.751434 22.475434 
L 49.050484 22.717782 
L 49.349534 22.960131 
L 49.648584 23.202479 
L 49.947634 23.444828 
L 50.207043 23.691378 
L 50.466453 23.937927 
L 50.725862 24.184477 
L 50.985272 24.431027 
L 51.244681 24.677577 
L 51.50409 24.924126 
L 51.7635 25.170676 
L 52.022909 25.417226 
" style="fill:none;stroke:#ff0000;stroke-dasharray:1.48,0.64;stroke-dashoffset:0;stroke-width:0.4;"/>
   </g>
   <g id="line2d_23">
    <path clip-path="url(#p9c4a91ad76)" d="M 52.022909 25.417226 
L 52.291092 25.704798 
L 52.559275 25.992371 
L 52.827457 26.279944 
L 53.09564 26.567517 
L 53.24361 26.775226 
L 53.39158 26.982936 
L 53.53955 27.190646 
L 53.68752 27.398355 
L 53.835489 27.606065 
L 53.983459 27.813775 
L 54.131429 28.021484 
L 54.279399 28.229194 
L 54.361233 28.446377 
L 54.443067 28.66356 
L 54.524901 28.880743 
L 54.606735 29.097926 
L 54.688568 29.315109 
L 54.770402 29.532291 
L 54.852236 29.749474 
L 54.93407 29.966657 
L 54.88372 30.388172 
L 54.833369 30.809688 
L 54.783019 31.231203 
L 54.732669 31.652718 
L 54.556384 32.011545 
L 54.3801 32.370373 
L 54.203815 32.7292 
L 54.02753 33.088028 
L 53.895317 33.286305 
L 53.763104 33.484583 
L 53.63089 33.682861 
L 53.498677 33.881139 
L 53.366463 34.079416 
L 53.23425 34.277694 
L 53.102036 34.475972 
L 52.969823 34.674249 
" style="fill:none;stroke:#ff0000;stroke-dasharray:1.48,0.64;stroke-dashoffset:0;stroke-width:0.4;"/>
   </g>
   <g id="line2d_24">
    <path clip-path="url(#p9c4a91ad76)" d="M 34.572143 14.554869 
L 34.808226 14.775223 
L 35.044309 14.995578 
L 35.280392 15.215932 
L 35.516475 15.436286 
L 35.83759 15.732179 
L 36.158705 16.028072 
L 36.385339 16.26103 
L 36.611974 16.493987 
L 36.722181 16.695478 
L 36.832389 16.896968 
L 36.942596 17.098458 
L 37.052803 17.299949 
" style="fill:none;stroke:#4169e1;stroke-linecap:square;stroke-width:0.4;"/>
   </g>
   <g id="line2d_25">
    <path clip-path="url(#p9c4a91ad76)" d="M 29.925601 4.771301 
L 30.02947 5.060934 
L 30.133339 5.350566 
L 30.237209 5.640198 
L 30.341078 5.92983 
L 30.448117 6.238326 
L 30.555155 6.546822 
L 30.662193 6.855318 
L 30.769231 7.163814 
L 30.854264 7.447103 
L 30.939296 7.730392 
L 31.024328 8.013682 
L 31.10936 8.296971 
L 31.203781 8.61494 
L 31.298203 8.932909 
L 31.392624 9.250879 
L 31.487045 9.568848 
L 31.61298 9.902468 
L 31.738914 10.236089 
L 31.864848 10.56971 
L 31.990783 10.90333 
L 32.16073 11.205648 
L 32.330676 11.507966 
L 32.607779 11.772391 
L 32.884881 12.036816 
L 33.082116 12.172901 
L 33.27935 12.308985 
L 33.476585 12.445069 
L 33.673819 12.581153 
" style="fill:none;stroke:#4169e1;stroke-linecap:square;stroke-width:0.4;"/>
   </g>
   <g id="line2d_26">
    <path clip-path="url(#p9c4a91ad76)" d="M 33.652928 9.896043 
L 33.942589 10.072327 
L 34.23225 10.24861 
L 34.443157 10.355698 
L 34.654065 10.462786 
L 34.864973 10.569874 
L 35.075881 10.676962 
L 35.33397 10.846821 
L 35.592059 11.016679 
L 35.862002 11.140901 
L 36.131945 11.265123 
L 36.401888 11.389345 
L 36.671831 11.513567 
" style="fill:none;stroke:#008000;stroke-linecap:square;stroke-width:0.4;"/>
   </g>
   <g id="line2d_27">
    <path clip-path="url(#p9c4a91ad76)" d="M 37.052803 17.299949 
L 37.191296 17.526481 
L 37.329788 17.753014 
L 37.449385 18.017439 
L 37.568981 18.281864 
L 37.682357 18.659803 
L 37.845966 18.974477 
L 38.00981 19.327044 
L 38.066498 19.572523 
L 38.123186 19.818002 
L 38.097952 20.076166 
L 38.072719 20.334331 
L 37.994552 20.684262 
L 37.916386 21.034193 
" style="fill:none;stroke:#000000;stroke-linecap:square;stroke-width:0.4;"/>
   </g>
   <g id="line2d_28">
    <path clip-path="url(#p9c4a91ad76)" d="M 39.331827 27.082857 
L 39.442034 27.341022 
L 39.552242 27.599187 
L 39.662449 27.857351 
L 39.772656 28.115516 
L 39.980454 28.499468 
L 40.188251 28.88342 
L 40.396049 29.267372 
L 40.603846 29.651324 
L 40.789579 29.994253 
L 40.975311 30.337182 
L 41.161044 30.680111 
L 41.346776 31.02304 
L 41.456954 31.260693 
L 41.567132 31.498346 
L 41.67731 31.735999 
L 41.787488 31.973653 
L 41.897666 32.211306 
L 42.007844 32.448959 
L 42.118022 32.686612 
L 42.228199 32.924265 
L 42.401315 33.213815 
L 42.574431 33.503365 
L 42.747547 33.792915 
L 42.920662 34.082464 
L 43.158799 34.410648 
L 43.396936 34.738832 
L 43.536015 34.930437 
L 43.675095 35.122042 
L 43.814174 35.313648 
L 43.953253 35.505253 
L 44.107473 35.804276 
L 44.261693 36.103299 
L 44.415912 36.402322 
L 44.570132 36.701345 
L 44.674031 36.910619 
L 44.77793 37.119894 
L 44.881828 37.329169 
L 44.985727 37.538444 
L 45.089626 37.747719 
L 45.193525 37.956994 
L 45.297423 38.166268 
L 45.401322 38.375543 
L 45.516224 38.594291 
L 45.631126 38.813039 
L 45.746028 39.031787 
L 45.86093 39.250535 
L 45.975831 39.469283 
L 46.090733 39.688031 
L 46.205635 39.906779 
L 46.320537 40.125527 
L 46.512549 40.481225 
L 46.704561 40.836922 
L 46.896572 41.192619 
L 47.088584 41.548316 
L 47.249141 41.782798 
L 47.409699 42.01728 
L 47.570256 42.251761 
L 47.730814 42.486243 
L 47.891371 42.720725 
L 48.051929 42.955207 
L 48.212486 43.189688 
L 48.373044 43.42417 
" style="fill:none;stroke:#000000;stroke-linecap:square;stroke-width:0.4;"/>
   </g>
   <g id="line2d_29">
    <path clip-path="url(#p9c4a91ad76)" d="M 40.087433 20.271396 
L 40.247991 20.510614 
L 40.408548 20.749833 
L 40.569106 20.989051 
L 40.729663 21.228269 
L 40.924844 21.465922 
L 41.120024 21.703576 
L 41.315205 21.941229 
L 41.510385 22.178882 
L 41.705566 22.416535 
L 41.900747 22.654188 
L 42.095927 22.891841 
L 42.291108 23.129495 
L 42.446941 23.313645 
L 42.602775 23.497795 
L 42.758608 23.681946 
L 42.914442 23.866096 
L 43.070275 24.050246 
L 43.226109 24.234397 
L 43.381942 24.418547 
L 43.537776 24.602697 
L 43.81793 24.854519 
L 44.098084 25.106341 
L 44.378238 25.358163 
L 44.658392 25.609984 
L 44.847235 25.987593 
L 45.036077 26.365202 
L 45.155733 26.635888 
L 45.275388 26.906574 
L 45.395043 27.17726 
L 45.514698 27.447945 
L 45.697262 27.658909 
L 45.879826 27.869872 
L 46.062389 28.080836 
L 46.244953 28.291799 
L 46.416514 28.477474 
L 46.588074 28.663148 
L 46.759635 28.848822 
L 46.931195 29.034497 
L 47.102756 29.220171 
L 47.274317 29.405845 
L 47.445877 29.591519 
L 47.617438 29.777194 
L 47.796891 30.129596 
L 47.976345 30.481998 
L 48.155798 30.8344 
L 48.335252 31.186802 
L 48.549328 31.564494 
L 48.763405 31.942185 
L 48.977482 32.319877 
L 49.191558 32.697568 
L 49.298597 33.002852 
L 49.405635 33.308135 
L 49.512673 33.613418 
L 49.619711 33.918702 
L 49.735904 34.310479 
L 49.852097 34.702257 
L 49.959605 35.064709 
L 50.028851 35.373123 
L 50.098098 35.681537 
L 50.167344 35.98995 
L 50.23659 36.298364 
L 50.261765 36.647718 
L 50.28694 36.997072 
L 50.312116 37.346427 
L 50.337291 37.695781 
L 50.299557 37.94126 
L 50.261824 38.186739 
L 50.224091 38.432218 
L 50.186357 38.677696 
L 50.003735 39.080677 
L 49.821113 39.483658 
L 49.553517 39.770077 
L 49.285921 40.056497 
L 49.018325 40.342916 
L 48.750729 40.629336 
L 48.637471 40.95027 
L 48.524212 41.271205 
L 48.524212 41.585962 
L 48.524212 41.900718 
L 48.524212 42.215475 
L 48.524212 42.530232 
L 48.48642 42.753716 
L 48.448628 42.977201 
L 48.410836 43.200685 
L 48.373044 43.42417 
" style="fill:none;stroke:#000000;stroke-linecap:square;stroke-width:0.4;"/>
   </g>
   <g id="line2d_30">
    <path clip-path="url(#p9c4a91ad76)" d="M 28.137638 4.62006 
L 28.389507 4.500451 
L 28.641376 4.380842 
L 28.981269 4.292865 
L 29.358955 4.393692 
L 29.642278 4.582497 
L 29.925601 4.771301 
L 30.265612 5.01052 
L 30.605622 5.249738 
L 30.964529 5.350566 
L 31.323436 5.451393 
L 31.67624 5.511033 
L 31.990783 5.564742 
L 32.34969 5.646458 
L 32.708597 5.728175 
L 32.99814 5.86047 
L 33.287683 5.992765 
L 33.558448 6.238244 
L 33.829213 6.483722 
L 34.112536 6.760833 
L 34.395859 7.037944 
L 34.575312 7.324364 
L 34.754766 7.610783 
L 34.934219 7.897203 
L 35.113673 8.183622 
L 35.225406 8.389808 
L 35.337139 8.595994 
L 35.448871 8.802179 
L 35.560604 9.008365 
L 35.672337 9.214551 
L 35.78407 9.420737 
L 35.895803 9.626922 
L 36.007536 9.833108 
L 36.13664 10.176284 
L 36.265743 10.519461 
L 36.394846 10.862637 
L 36.523949 11.205813 
L 36.671831 11.513567 
L 36.823704 11.830054 
L 36.975576 12.14654 
L 37.127448 12.463027 
L 37.279321 12.779513 
L 37.449326 13.09114 
L 37.619332 13.402766 
L 37.789337 13.714392 
L 37.959342 14.026019 
L 38.072689 14.260542 
L 38.186036 14.495065 
L 38.299383 14.729587 
L 38.41273 14.96411 
L 38.526076 15.198633 
L 38.639423 15.433156 
L 38.75277 15.667679 
L 38.866117 15.902202 
L 38.991992 16.226432 
L 39.117868 16.550662 
L 39.243744 16.874891 
L 39.369619 17.199121 
L 39.431002 17.430473 
L 39.492385 17.661824 
L 39.553767 17.893176 
L 39.61515 18.124527 
L 39.676533 18.355878 
L 39.737916 18.58723 
L 39.799298 18.818581 
L 39.860681 19.049933 
L 39.917369 19.355299 
L 39.974057 19.660664 
L 40.030745 19.96603 
L 40.087433 20.271396 
" style="fill:none;stroke:#000000;stroke-linecap:square;stroke-width:0.4;"/>
   </g>
   <g id="line2d_31">
    <path clip-path="url(#p9c4a91ad76)" d="M 40.730367 23.621111 
L 40.881447 23.866631 
L 41.032527 24.112151 
L 41.183608 24.357671 
L 41.334688 24.603191 
L 41.485768 24.848712 
L 41.636848 25.094232 
L 41.787928 25.339752 
L 41.939008 25.585272 
L 42.118462 25.881164 
L 42.297915 26.177057 
L 42.477369 26.47295 
L 42.656822 26.768842 
L 42.836276 27.064735 
L 43.015729 27.360627 
L 43.195183 27.65652 
L 43.374636 27.952413 
L 43.528885 28.153862 
L 43.683134 28.355311 
L 43.837383 28.55676 
L 43.991632 28.758209 
L 44.145881 28.959658 
L 44.30013 29.161108 
L 44.454379 29.362557 
L 44.608628 29.564006 
L 44.721183 29.761048 
L 44.833737 29.95809 
L 44.946292 30.155132 
L 45.058846 30.352174 
L 45.171401 30.549216 
L 45.283956 30.746258 
L 45.39651 30.943301 
L 45.509065 31.140343 
L 45.582243 31.427874 
L 45.655421 31.715406 
L 45.728599 32.002937 
L 45.801777 32.290469 
L 45.874955 32.578 
L 45.948133 32.865532 
L 46.021311 33.153063 
L 46.094489 33.440595 
" style="fill:none;stroke:#ff0000;stroke-dasharray:1.48,0.64;stroke-dashoffset:0;stroke-width:0.4;"/>
   </g>
   <g id="line2d_32">
    <path clip-path="url(#p9c4a91ad76)" d="M 52.869122 37.318172 
L 53.17762 37.620325 
L 53.486118 37.922478 
L 53.794617 38.224631 
L 54.103115 38.526785 
L 54.399025 38.832068 
L 54.694935 39.137351 
L 54.990846 39.442635 
L 55.286756 39.747918 
L 55.582667 40.053202 
L 55.878577 40.358485 
L 56.174488 40.663769 
L 56.470398 40.969052 
L 56.641959 41.134297 
L 56.813519 41.299542 
L 56.98508 41.464787 
L 57.156641 41.630033 
L 57.328201 41.795278 
L 57.499762 41.960523 
L 57.671322 42.125768 
L 57.842883 42.291013 
L 58.014444 42.456258 
L 58.186004 42.621504 
L 58.357565 42.786749 
L 58.529125 42.951994 
L 58.700686 43.117239 
L 58.872247 43.282484 
L 59.043807 43.447729 
L 59.215368 43.612974 
L 59.399457 43.800234 
L 59.583547 43.987494 
L 59.767636 44.174754 
L 59.951726 44.362014 
L 60.135815 44.549274 
L 60.319905 44.736534 
L 60.503994 44.923794 
L 60.688083 45.111054 
L 60.872173 45.298314 
L 61.056262 45.485574 
L 61.240352 45.672834 
L 61.424441 45.860094 
L 61.608531 46.047354 
L 61.79262 46.234614 
L 61.97671 46.421874 
L 62.160799 46.609134 
L 62.442215 46.866105 
L 62.723631 47.123075 
L 63.005046 47.380045 
L 63.286462 47.637015 
L 63.567878 47.893986 
L 63.849293 48.150956 
L 64.130709 48.407926 
L 64.412125 48.664896 
L 64.577406 48.860661 
L 64.742688 49.056427 
L 64.907969 49.252192 
L 65.073251 49.447957 
L 65.238532 49.643723 
L 65.403814 49.839488 
L 65.569095 50.035253 
L 65.734377 50.231018 
L 65.985893 50.41072 
L 66.23741 50.590422 
L 66.488926 50.770124 
L 66.740443 50.949826 
L 66.991959 51.129529 
L 67.243476 51.309231 
L 67.494993 51.488933 
L 67.746509 51.668635 
L 67.905189 51.838905 
L 68.063868 52.009175 
L 68.222548 52.179445 
L 68.381228 52.349715 
L 68.532337 52.714803 
L 68.683447 53.079891 
L 68.834556 53.444979 
L 68.985665 53.810067 
L 69.067529 54.187758 
L 69.149392 54.56545 
L 69.231255 54.943141 
L 69.313118 55.320833 
L 69.445332 55.515898 
L 69.577545 55.710963 
L 69.709759 55.906028 
L 69.841972 56.101093 
L 70.087503 56.315104 
L 70.333034 56.529116 
L 70.578565 56.743127 
L 70.824095 56.957139 
L 71.214457 57.146108 
L 71.604818 57.335077 
L 71.831453 57.586817 
L 72.058088 57.838556 
L 72.184667 58.032756 
L 72.311247 58.226956 
L 72.437827 58.421156 
L 72.564407 58.615357 
L 72.690987 58.809557 
L 72.817567 59.003757 
L 72.944147 59.197957 
L 73.070726 59.392157 
" style="fill:none;stroke:#008000;stroke-linecap:square;stroke-width:0.4;"/>
   </g>
   <g id="line2d_33">
    <path clip-path="url(#p9c4a91ad76)" d="M 39.20601 36.37382 
L 39.35712 36.779848 
L 39.508229 37.185877 
L 39.659339 37.591906 
L 39.810448 37.997934 
L 39.909623 38.249715 
L 40.008798 38.501495 
L 40.107972 38.753276 
L 40.207147 39.005056 
L 40.306322 39.256837 
L 40.405497 39.508618 
L 40.504671 39.760398 
L 40.603846 40.012179 
L 40.696712 40.24353 
L 40.789579 40.474882 
L 40.882445 40.706233 
L 40.975311 40.937585 
L 41.068178 41.168936 
L 41.161044 41.400287 
L 41.25391 41.631639 
L 41.346776 41.86299 
L 41.42861 42.072306 
L 41.510444 42.281622 
L 41.592278 42.490938 
L 41.674112 42.700254 
L 41.755946 42.909571 
L 41.83778 43.118887 
L 41.919613 43.328203 
L 42.001447 43.537519 
L 42.081726 43.770394 
L 42.162005 44.003269 
L 42.242283 44.236145 
L 42.322562 44.46902 
L 42.402841 44.701896 
L 42.48312 44.934771 
L 42.563398 45.167646 
L 42.643677 45.400522 
" style="fill:none;stroke:#000000;stroke-dasharray:1.48,0.64;stroke-dashoffset:0;stroke-width:0.4;"/>
   </g>
   <g id="line2d_34">
    <path clip-path="url(#p9c4a91ad76)" d="M 32.028575 41.359512 
L 32.371696 41.488512 
L 32.714817 41.617512 
L 33.057938 41.746512 
L 33.40106 41.875511 
L 33.671766 41.932186 
L 33.942472 41.98886 
L 34.213178 42.045534 
L 34.483884 42.102209 
L 34.878118 42.12478 
L 35.272352 42.14735 
L 35.365541 42.152622 
L 35.633724 42.158554 
L 35.901906 42.164485 
L 36.170089 42.170416 
L 36.438272 42.176347 
L 36.743014 42.205013 
L 37.047756 42.23368 
L 37.352499 42.262347 
L 37.657241 42.291013 
L 38.063329 42.388628 
L 38.469418 42.486243 
L 38.875506 42.583858 
L 39.281594 42.681473 
L 39.483054 42.884446 
L 39.684514 43.087419 
L 39.885973 43.290392 
L 40.087433 43.493365 
L 40.288893 43.696338 
L 40.490353 43.899312 
L 40.691812 44.102285 
L 40.893272 44.305258 
L 41.069557 44.479935 
L 41.245841 44.654612 
L 41.422126 44.829289 
L 41.59841 45.003966 
L 41.774695 45.178644 
L 41.95098 45.353321 
L 42.127264 45.527998 
L 42.303549 45.702675 
L 42.565188 45.926407 
L 42.826828 46.150138 
L 43.088467 46.37387 
L 43.350107 46.597602 
L 43.611746 46.821334 
L 43.873385 47.045065 
L 44.135025 47.268797 
L 44.396664 47.492529 
L 44.687997 47.575028 
L 44.979331 47.657527 
L 45.270664 47.740026 
L 45.561997 47.822525 
L 45.85333 47.905024 
L 46.144663 47.987523 
L 46.435996 48.070022 
L 46.72733 48.152521 
" style="fill:none;stroke:#008000;stroke-linecap:square;stroke-width:0.4;"/>
   </g>
   <g id="line2d_35">
    <path clip-path="url(#p9c4a91ad76)" d="M 33.035815 19.868415 
L 32.998023 20.189515 
L 32.960231 20.510614 
L 32.917157 20.819357 
L 32.874084 21.128101 
L 32.797561 21.43635 
L 32.721038 21.744599 
" style="fill:none;stroke:#4169e1;stroke-linecap:square;stroke-width:0.4;"/>
   </g>
   <g id="line2d_36">
    <path clip-path="url(#p9c4a91ad76)" d="M 33.829213 26.956988 
L 33.759966 27.347283 
L 33.69072 27.737577 
L 33.659266 28.109091 
L 33.627812 28.480604 
L 33.715954 28.748159 
L 33.804096 29.015715 
L 33.892239 29.28327 
L 33.980381 29.550826 
L 34.150328 29.855945 
L 34.320275 30.161063 
L 34.490221 30.466182 
L 34.660168 30.771301 
L 34.845901 31.076584 
L 35.031633 31.381867 
L 35.217366 31.687151 
L 35.403099 31.992434 
L 35.510137 32.231653 
L 35.617175 32.470871 
L 35.724213 32.710089 
L 35.831252 32.949308 
L 35.872213 33.201129 
L 35.913174 33.452951 
L 35.954135 33.704773 
L 35.995096 33.956595 
L 35.96992 34.309161 
L 35.944745 34.661728 
L 35.91957 35.014295 
L 35.894395 35.366862 
L 35.925849 35.615471 
L 35.957303 35.864081 
L 35.988758 36.11269 
L 36.020212 36.361299 
L 36.180769 36.688659 
L 36.341327 37.016019 
L 36.501884 37.343379 
L 36.662442 37.670739 
L 36.747415 38.057821 
L 36.832389 38.444903 
L 36.917362 38.831986 
L 37.002335 39.219068 
L 37.043296 39.599972 
L 37.084257 39.980876 
L 37.125218 40.36178 
L 37.166179 40.742684 
L 37.273217 40.940962 
L 37.380256 41.13924 
L 37.487294 41.337517 
L 37.594332 41.535795 
L 37.80524 41.679005 
L 38.016148 41.822215 
L 38.227056 41.965424 
L 38.437963 42.108634 
L 38.648871 42.251844 
L 38.859779 42.395053 
L 39.070687 42.538263 
L 39.281594 42.681473 
" style="fill:none;stroke:#000000;stroke-linecap:square;stroke-width:0.4;"/>
   </g>
   <g id="line2d_37">
    <path clip-path="url(#p9c4a91ad76)" d="M 27.860653 4.897171 
L 27.62768 5.054673 
L 27.394708 5.212175 
L 27.281332 5.451393 
L 27.167956 5.690612 
L 27.074062 6.044167 
L 27.013971 6.270205 
L 26.953879 6.496243 
L 26.884633 6.801609 
L 26.815386 7.106975 
L 26.74614 7.412341 
L 26.676894 7.717707 
L 26.649313 8.030898 
L 26.621732 8.34409 
L 26.60131 8.574082 
L 26.664336 8.863714 
L 26.727361 9.153346 
L 26.922542 9.304423 
L 27.117723 9.455499 
L 27.495408 9.530955 
L 27.910886 9.46802 
L 28.1313 9.310683 
L 28.351715 9.153346 
L 28.565791 8.983323 
L 28.779868 8.8133 
L 28.993945 8.712473 
L 29.208021 8.611645 
L 29.547915 8.649538 
L 29.812224 8.876235 
L 29.887809 9.14066 
L 29.963393 9.405085 
L 30.02636 9.833191 
L 30.089327 10.261296 
L 30.152294 10.689401 
L 30.215261 11.117506 
L 30.249884 11.441736 
L 30.284508 11.765966 
L 30.319131 12.090196 
L 30.353754 12.414425 
L 30.382098 12.792199 
L 30.410442 13.169973 
L 30.438786 13.547747 
L 30.46713 13.925521 
L 30.41678 14.284348 
L 30.366429 14.643176 
L 30.259391 14.926382 
L 30.152353 15.209589 
L 29.982289 15.4867 
L 29.812224 15.763811 
L 29.749316 15.990509 
L 29.686407 16.217206 
L 29.736875 16.607336 
L 29.950952 16.859075 
L 30.253053 16.997796 
L 30.511142 16.966328 
L 30.769231 16.934861 
L 31.077788 16.85924 
L 31.386345 16.783619 
L 31.770368 16.651489 
L 32.154392 16.519359 
L 32.418819 16.412271 
L 32.683246 16.305183 
L 33.023374 16.305183 
L 33.313035 16.368118 
L 33.50176 16.645229 
L 33.50176 16.909489 
L 33.419956 17.199121 
L 33.338151 17.488753 
L 33.19649 17.715368 
L 33.054828 17.941983 
L 32.913167 18.168598 
L 32.771505 18.395213 
" style="fill:none;stroke:#008000;stroke-linecap:square;stroke-width:0.4;"/>
   </g>
   <g id="line2d_38">
    <path clip-path="url(#p9c4a91ad76)" d="M 32.771505 18.395213 
L 32.557429 18.684845 
L 32.343352 18.974477 
L 32.097821 19.185358 
L 31.85229 19.396239 
L 31.606759 19.60712 
L 31.361228 19.818002 
L 31.026264 20.051865 
L 30.6913 20.285729 
L 30.356336 20.519593 
L 30.021372 20.753457 
L 29.667981 21.014258 
L 29.31459 21.275058 
L 28.961199 21.535859 
L 28.607809 21.79666 
L 28.395962 21.933897 
L 28.184115 22.071135 
L 27.972269 22.208372 
L 27.760422 22.34561 
L 27.548575 22.482847 
L 27.336729 22.620085 
L 27.124882 22.757322 
L 26.913035 22.89456 
L 26.636813 23.047696 
L 26.360591 23.200832 
L 26.084369 23.353968 
L 25.808146 23.507104 
L 25.476175 23.584537 
L 25.144204 23.66197 
L 24.812232 23.739403 
L 24.480261 23.816835 
L 24.296934 23.859671 
L 23.982157 23.894351 
L 23.66738 23.929031 
L 23.352603 23.963711 
L 23.037826 23.998391 
L 22.798515 23.960498 
L 22.559205 23.922606 
L 22.238207 23.689812 
L 21.91721 23.457019 
L 21.671562 23.242843 
L 21.425913 23.028667 
L 21.136487 22.991104 
L 20.834151 23.19243 
L 20.771243 23.412701 
L 20.708334 23.632973 
L 20.752347 24.042215 
L 20.796359 24.451456 
L 20.930157 24.760117 
L 21.063955 25.068778 
L 21.197753 25.377438 
L 21.331551 25.686099 
L 21.55666 25.95036 
L 21.781769 26.21462 
L 22.006878 26.478881 
L 22.231987 26.743141 
L 22.447589 26.838614 
L 22.663192 26.934087 
L 22.878794 27.02956 
L 23.094397 27.125034 
" style="fill:none;stroke:#008000;stroke-linecap:square;stroke-width:0.4;"/>
   </g>
   <g id="line2d_39">
    <path clip-path="url(#p9c4a91ad76)" d="M 30.177469 21.039465 
L 30.246716 21.311757 
L 30.315962 21.584049 
L 30.385208 21.856341 
L 30.454454 22.128633 
L 30.523701 22.400925 
L 30.592947 22.673217 
L 30.662193 22.945509 
L 30.731439 23.217801 
L 30.847926 23.54512 
L 30.964412 23.872439 
L 31.080898 24.199758 
L 31.197385 24.527077 
L 31.313871 24.854395 
L 31.430357 25.181714 
L 31.546844 25.509033 
L 31.66333 25.836352 
" style="fill:none;stroke:#ff0000;stroke-dasharray:1.48,0.64;stroke-dashoffset:0;stroke-width:0.4;"/>
   </g>
   <g id="line2d_40">
    <path clip-path="url(#p9c4a91ad76)" d="M 33.778745 18.722738 
L 33.904679 18.987163 
L 34.030614 19.251588 
L 34.156548 19.516013 
L 34.282482 19.780438 
L 34.386352 20.104668 
L 34.490221 20.428898 
L 34.594091 20.753128 
L 34.69796 21.077357 
L 34.811307 21.299236 
L 34.924654 21.521114 
L 35.038 21.742992 
L 35.151347 21.964871 
L 35.264694 22.186749 
L 35.378041 22.408627 
L 35.491388 22.630505 
L 35.604734 22.852384 
L 35.735363 23.069608 
L 35.865992 23.286832 
L 35.996621 23.504056 
L 36.12725 23.72128 
L 36.257879 23.938504 
L 36.388508 24.155728 
L 36.519137 24.372952 
L 36.649766 24.590176 
L 36.777256 24.83409 
L 36.904745 25.078004 
L 37.032235 25.321917 
L 37.159724 25.565831 
L 37.287213 25.809745 
L 37.414703 26.053658 
L 37.542192 26.297572 
L 37.669682 26.541486 
L 37.779889 26.749237 
L 37.890096 26.956988 
L 38.000303 27.164739 
L 38.110511 27.372489 
L 38.220718 27.58024 
L 38.330925 27.787991 
L 38.441132 27.995742 
L 38.551339 28.203493 
" style="fill:none;stroke:#000000;stroke-linecap:square;stroke-width:0.4;"/>
   </g>
   <g id="line2d_41">
    <path clip-path="url(#p9c4a91ad76)" d="M 32.242651 29.978849 
L 32.333933 30.266751 
L 32.425215 30.554653 
L 32.516497 30.842555 
L 32.607779 31.130458 
L 32.699061 31.41836 
L 32.790343 31.706262 
L 32.881624 31.994164 
L 32.972906 32.282066 
L 33.052246 32.530717 
L 33.131586 32.779367 
L 33.210926 33.028017 
L 33.290265 33.276668 
L 33.369605 33.525318 
L 33.448945 33.773968 
L 33.528285 34.022618 
L 33.607625 34.271269 
L 33.671531 34.570292 
L 33.735437 34.869315 
L 33.799343 35.168337 
L 33.863249 35.46736 
L 33.927155 35.766383 
L 33.991061 36.065406 
L 34.054967 36.364429 
L 34.118873 36.663452 
L 34.158221 36.897934 
L 34.197568 37.132415 
L 34.236915 37.366897 
L 34.276262 37.601379 
L 34.315609 37.835861 
L 34.354956 38.070342 
L 34.394303 38.304824 
L 34.433651 38.539306 
" style="fill:none;stroke:#ff0000;stroke-dasharray:1.48,0.64;stroke-dashoffset:0;stroke-width:0.4;"/>
   </g>
   <g id="line2d_42">
    <path clip-path="url(#p9c4a91ad76)" d="M 26.621732 8.34409 
L 26.484413 8.540061 
L 26.347094 8.736032 
L 26.209775 8.932003 
L 26.072456 9.127974 
L 25.96976 9.362909 
L 25.867064 9.597844 
L 25.808146 9.73261 
L 25.751458 10.05997 
L 25.69477 10.38733 
L 25.707329 10.645413 
L 25.719887 10.903495 
L 25.732445 11.161577 
L 25.745003 11.419659 
L 25.786962 11.69224 
L 25.82892 11.96482 
L 25.870879 12.237401 
L 25.912837 12.509981 
L 25.921288 12.565667 
L 25.9827 12.790716 
L 26.044112 13.015766 
L 26.105524 13.240816 
L 26.166936 13.465866 
L 26.228348 13.690915 
L 26.28976 13.915965 
L 26.351172 14.141015 
L 26.412584 14.366065 
L 26.434591 14.784779 
L 26.456597 15.203493 
L 26.478603 15.622208 
L 26.500609 16.040922 
L 26.434473 16.39975 
L 26.368337 16.758577 
L 26.302201 17.117405 
L 26.236065 17.476232 
L 26.075508 17.808699 
L 25.936252 18.097014 
L 25.796997 18.385328 
L 25.657741 18.673642 
L 25.518486 18.961956 
L 25.383103 19.172837 
L 25.247721 19.383718 
L 25.112339 19.594599 
L 24.976956 19.80548 
L 24.841574 20.016362 
L 24.706192 20.227243 
L 24.570809 20.438124 
L 24.435427 20.649005 
L 24.256032 21.051903 
L 24.076637 21.454802 
L 23.897243 21.8577 
L 23.717848 22.260598 
L 23.65802 22.543888 
L 23.598193 22.827177 
L 23.538365 23.110466 
L 23.478537 23.393755 
L 23.41871 23.677044 
L 23.358882 23.960333 
L 23.299055 24.243623 
L 23.239227 24.526912 
L 23.221123 24.851677 
L 23.203019 25.176442 
L 23.184916 25.501207 
L 23.166812 25.825973 
L 23.148708 26.150738 
L 23.130604 26.475503 
L 23.1125 26.800268 
L 23.094397 27.125034 
" style="fill:none;stroke:#000000;stroke-linecap:square;stroke-width:0.4;"/>
   </g>
   <g id="line2d_43">
    <path clip-path="url(#p9c4a91ad76)" d="M 33.580161 25.818888 
L 33.26867 25.948877 
L 32.957179 26.078865 
L 32.708127 26.12895 
L 32.459075 26.179034 
L 32.257322 26.360919 
L 32.055569 26.542804 
L 32.010618 26.93244 
L 31.965666 27.322076 
L 31.962497 27.655779 
L 31.959329 27.989482 
L 31.95616 28.323185 
L 31.952991 28.656887 
L 31.930926 28.927573 
L 31.908861 29.198259 
L 31.886796 29.468945 
L 31.864731 29.73963 
L 31.789206 29.988075 
L 31.71368 30.236519 
L 31.638155 30.484964 
L 31.56263 30.733408 
L 31.471318 31.02304 
L 31.380007 31.312672 
L 31.288696 31.602304 
L 31.197385 31.891936 
L 31.039996 32.247551 
L 30.882608 32.603166 
L 30.725219 32.958781 
L 30.56783 33.314396 
L 30.485967 33.597685 
L 30.404104 33.880974 
L 30.322241 34.164263 
L 30.240378 34.447552 
L 30.228758 34.812064 
L 30.217139 35.176575 
L 30.20552 35.541086 
L 30.193901 35.905598 
" style="fill:none;stroke:#4169e1;stroke-linecap:square;stroke-width:0.4;"/>
   </g>
   <g id="line2d_44">
    <path clip-path="url(#p9c4a91ad76)" d="M 38.551339 28.203493 
L 38.708728 28.55606 
L 38.866117 28.908627 
L 39.023505 29.261194 
L 39.180894 29.613761 
L 39.283208 29.870196 
L 39.385522 30.12663 
L 39.487837 30.383065 
L 39.590151 30.6395 
L 39.692465 30.895935 
L 39.79478 31.152369 
L 39.897094 31.408804 
L 39.999408 31.665239 
L 40.098554 31.959525 
L 40.197699 32.253812 
L 40.296844 32.548098 
L 40.39599 32.842384 
L 40.495135 33.13667 
L 40.594281 33.430957 
L 40.693426 33.725243 
L 40.792572 34.019529 
L 40.951545 34.401957 
L 41.110518 34.784385 
L 41.269491 35.166813 
L 41.428464 35.549242 
L 41.587437 35.93167 
L 41.74641 36.314098 
L 41.905383 36.696526 
L 42.064356 37.078954 
L 42.150136 37.310285 
L 42.235916 37.541615 
L 42.321697 37.772946 
L 42.407477 38.004277 
L 42.493257 38.235608 
L 42.579037 38.466939 
L 42.664818 38.69827 
L 42.750598 38.929601 
L 42.836378 39.160931 
L 42.922159 39.392262 
L 43.007939 39.623593 
L 43.093719 39.854924 
L 43.1795 40.086255 
L 43.26528 40.317586 
L 43.35106 40.548917 
L 43.43684 40.780247 
L 43.550187 41.06193 
L 43.663534 41.343613 
L 43.776881 41.625296 
L 43.890227 41.906979 
L 44.003574 42.188662 
L 44.116921 42.470345 
L 44.230268 42.752027 
L 44.343615 43.03371 
L 44.455377 43.230423 
L 44.567139 43.427135 
L 44.678902 43.623848 
L 44.790664 43.820561 
L 44.902426 44.017273 
L 45.014188 44.213986 
L 45.125951 44.410698 
L 45.237713 44.607411 
L 45.35731 44.878097 
L 45.476906 45.148782 
L 45.530425 45.413208 
L 45.583945 45.677633 
L 45.637464 45.942058 
L 45.690983 46.206483 
" style="fill:none;stroke:#4169e1;stroke-linecap:square;stroke-width:0.4;"/>
   </g>
   <g id="line2d_45">
    <path clip-path="url(#p9c4a91ad76)" d="M 32.721038 21.744599 
L 33.111399 21.83274 
L 33.50176 21.920882 
L 33.703278 22.065698 
L 33.904797 22.210514 
L 34.074333 22.458052 
L 34.243869 22.705591 
L 34.413405 22.953129 
L 34.582941 23.200667 
L 34.684287 23.417067 
L 34.785633 23.633468 
L 34.886979 23.849868 
L 34.988325 24.066268 
L 35.089671 24.282669 
L 35.191017 24.499069 
L 35.292363 24.715469 
L 35.393709 24.93187 
L 35.538598 25.293127 
L 35.683487 25.654385 
L 35.828376 26.015642 
L 35.973265 26.3769 
L 36.118154 26.738157 
L 36.263043 27.099415 
L 36.407932 27.460672 
L 36.552821 27.82193 
L 36.669308 28.041419 
L 36.785794 28.260909 
L 36.90228 28.480398 
L 37.018767 28.699887 
L 37.135253 28.919377 
L 37.251739 29.138866 
L 37.368226 29.358356 
L 37.484712 29.577845 
L 37.59442 29.811997 
L 37.704129 30.046149 
L 37.813837 30.280302 
L 37.923546 30.514454 
L 38.033254 30.748606 
L 38.142962 30.982758 
L 38.252671 31.216911 
L 38.362379 31.451063 
L 38.476958 31.749633 
L 38.591538 32.048202 
L 38.706117 32.346772 
L 38.820696 32.645342 
L 38.935275 32.943912 
L 39.049854 33.242482 
L 39.164433 33.541052 
L 39.279012 33.839621 
L 39.429564 34.204874 
L 39.580116 34.570127 
L 39.730668 34.93538 
L 39.88122 35.300632 
L 40.031772 35.665885 
L 40.182324 36.031138 
L 40.332876 36.396391 
L 40.483428 36.761643 
L 40.624004 37.082125 
L 40.76458 37.402607 
L 40.905155 37.723089 
L 41.045731 38.04357 
L 41.186307 38.364052 
L 41.326883 38.684534 
L 41.467459 39.005015 
L 41.608034 39.325497 
L 41.792564 39.678888 
L 41.977094 40.032278 
L 42.161623 40.385669 
L 42.346153 40.73906 
L 42.530682 41.09245 
L 42.715212 41.445841 
L 42.899742 41.799232 
L 43.084271 42.152622 
" style="fill:none;stroke:#000000;stroke-linecap:square;stroke-width:0.4;"/>
   </g>
   <g id="line2d_46">
    <path clip-path="url(#p9c4a91ad76)" d="M 27.870042 14.22339 
L 27.997503 14.477271 
L 28.124963 14.731153 
L 28.257235 14.976796 
L 28.389507 15.22244 
L 28.471311 15.543539 
L 28.553116 15.864639 
L 28.555639 16.107811 
L 28.558163 16.350983 
L 28.560686 16.594156 
L 28.563209 16.837328 
" style="fill:none;stroke:#4169e1;stroke-linecap:square;stroke-width:0.4;"/>
   </g>
   <g id="line2d_47">
    <path clip-path="url(#p9c4a91ad76)" d="M 28.922586 17.465359 
L 29.197458 17.596665 
L 29.472331 17.727972 
L 29.648615 18.105581 
L 29.831238 18.319757 
L 30.01386 18.533933 
L 30.360092 18.798358 
L 30.706323 19.062783 
L 30.863712 19.323996 
L 31.0211 19.585208 
L 31.178489 19.846421 
L 31.335877 20.107634 
L 31.480708 20.334248 
L 31.625538 20.560863 
L 31.770368 20.787478 
L 31.915199 21.014093 
L 32.116658 21.196719 
L 32.318118 21.379346 
L 32.519578 21.561972 
L 32.721038 21.744599 
L 32.846972 21.939746 
L 32.972906 22.134893 
L 33.098841 22.330041 
L 33.224775 22.525188 
L 33.319196 22.880886 
L 33.413618 23.236583 
L 33.508039 23.59228 
L 33.602461 23.947977 
L 33.611909 24.187195 
L 33.621357 24.426414 
L 33.630805 24.665632 
L 33.640253 24.90485 
L 33.62523 25.13336 
L 33.610207 25.361869 
L 33.595184 25.590379 
L 33.580161 25.818888 
L 33.577344 25.861724 
L 33.640311 26.13554 
L 33.703278 26.409356 
L 33.766246 26.683172 
L 33.829213 26.956988 
" style="fill:none;stroke:#000000;stroke-linecap:square;stroke-width:0.4;"/>
   </g>
   <g id="line2d_48">
    <path clip-path="url(#p9c4a91ad76)" d="M 33.829213 26.956988 
L 34.125094 27.259141 
L 34.420975 27.561294 
L 34.720025 27.74392 
L 35.019075 27.926547 
L 35.318125 28.109173 
L 35.617175 28.291799 
L 35.834421 28.471213 
L 36.051666 28.650627 
L 36.268912 28.830041 
L 36.486157 29.009454 
L 36.684448 29.264406 
L 36.882739 29.519358 
L 37.08103 29.77431 
L 37.279321 30.029263 
L 37.471391 30.397316 
L 37.663461 30.76537 
L 37.855532 31.133423 
L 38.047602 31.501477 
L 38.104232 31.734434 
L 38.160861 31.967392 
L 38.21749 32.20035 
L 38.27412 32.433308 
L 38.27412 32.760668 
L 38.27412 33.088028 
L 38.230107 33.503365 
L 38.186095 33.918702 
L 38.274237 34.265008 
L 38.362379 34.611315 
L 38.45369 34.863136 
L 38.545002 35.114958 
L 38.636313 35.36678 
L 38.727624 35.618602 
L 38.746403 36.046625 
L 38.765181 36.474647 
L 38.718 36.827132 
L 38.670819 37.179616 
L 38.623637 37.532101 
L 38.576456 37.884586 
L 38.6048 38.26862 
L 38.633144 38.652654 
L 38.661488 39.036689 
L 38.689832 39.420723 
L 38.718147 39.642601 
L 38.746461 39.86448 
L 38.774776 40.086358 
L 38.803091 40.308236 
L 38.831405 40.530114 
L 38.85972 40.751993 
L 38.888035 40.973871 
L 38.91635 41.195749 
L 39.007661 41.56718 
L 39.098972 41.938611 
L 39.190283 42.310042 
L 39.281594 42.681473 
" style="fill:none;stroke:#4169e1;stroke-linecap:square;stroke-width:0.4;"/>
   </g>
   <g id="line2d_49">
    <path clip-path="url(#p9c4a91ad76)" d="M 26.964677 35.697023 
L 27.308267 35.664814 
L 27.651858 35.632605 
L 27.995449 35.600397 
L 28.339039 35.568188 
L 28.625531 35.612259 
L 28.912023 35.65633 
L 29.198515 35.7004 
L 29.485006 35.744471 
L 29.839454 35.825035 
L 30.193901 35.905598 
L 30.536083 36.095061 
L 30.878265 36.284525 
L 31.220447 36.473988 
L 31.56263 36.663452 
L 31.754671 36.855428 
L 31.946712 37.047404 
L 32.138753 37.23938 
L 32.330794 37.431356 
L 32.522835 37.623332 
L 32.714876 37.815308 
L 32.906917 38.007284 
L 33.098958 38.19926 
L 33.256347 38.416443 
L 33.413735 38.633626 
L 33.571124 38.850808 
L 33.728512 39.067991 
L 33.885901 39.285174 
L 34.043289 39.502357 
L 34.200678 39.71954 
L 34.358067 39.936723 
L 34.616214 40.25461 
L 34.874362 40.572497 
L 35.13251 40.890383 
L 35.390658 41.20827 
L 35.648747 41.497902 
L 35.906836 41.787534 
L 36.172554 41.981941 
L 36.438272 42.176347 
" style="fill:none;stroke:#000000;stroke-linecap:square;stroke-width:0.4;"/>
   </g>
   <g id="line2d_50">
    <path clip-path="url(#p9c4a91ad76)" d="M 23.094397 27.125034 
L 23.380888 27.223555 
L 23.66738 27.322076 
L 23.887736 27.388223 
L 24.108092 27.454371 
L 24.328447 27.520518 
L 24.548803 27.586666 
L 24.766049 27.6496 
L 24.983294 27.712535 
L 25.20054 27.77547 
L 25.417785 27.838405 
L 25.653868 27.800595 
L 25.889951 27.762784 
L 26.126034 27.724974 
L 26.362117 27.687164 
L 26.752478 27.583288 
L 27.142839 27.479413 
L 27.5332 27.375537 
L 27.923562 27.271662 
L 28.139193 27.20086 
L 28.354825 27.130058 
L 28.570457 27.059257 
L 28.786089 26.988455 
L 29.00172 26.917653 
L 29.217352 26.846852 
L 29.432984 26.77605 
L 29.648615 26.705248 
L 30.051594 26.576166 
L 30.454572 26.447084 
L 30.85755 26.318001 
L 31.260528 26.188919 
L 31.638214 26.226812 
L 31.846891 26.384808 
L 32.055569 26.542804 
" style="fill:none;stroke:#008000;stroke-linecap:square;stroke-width:0.4;"/>
   </g>
   <g id="line2d_51">
    <path clip-path="url(#p9c4a91ad76)" d="M 25.867064 9.597844 
L 26.146045 9.816304 
L 26.425025 10.034763 
L 26.604479 10.211047 
L 26.783932 10.38733 
L 26.963386 10.563614 
L 27.142839 10.739897 
L 27.265605 10.928784 
L 27.38837 11.117671 
L 27.511135 11.306558 
L 27.633901 11.495445 
L 27.816523 11.892 
L 27.999146 12.288556 
L 28.024262 12.723004 
L 28.049379 13.157452 
L 28.030483 13.566693 
L 28.011586 13.975934 
L 27.870042 14.22339 
L 27.739413 14.452229 
L 27.608784 14.681068 
L 27.577213 14.913861 
L 27.545641 15.146654 
L 27.677913 15.562156 
L 27.810185 15.977658 
L 28.093508 16.311443 
L 28.376831 16.645229 
L 28.563209 16.837328 
L 28.779868 17.06073 
L 28.922586 17.465359 
L 28.781981 17.766688 
L 28.641376 18.068017 
L 28.345377 18.389117 
L 28.049379 18.710216 
L 27.781783 18.930488 
L 27.514187 19.15076 
L 27.246591 19.371032 
L 26.978995 19.591304 
L 26.739802 19.799055 
L 26.500609 20.006806 
L 26.349441 20.32181 
L 26.239293 20.573632 
L 26.129144 20.825453 
L 26.018996 21.077275 
L 25.908847 21.329097 
L 25.786082 21.517901 
L 25.663316 21.706706 
L 25.540551 21.89551 
L 25.417785 22.084315 
L 25.216267 22.267024 
L 25.014748 22.449732 
L 24.844802 22.720418 
L 24.674855 22.991104 
L 24.577558 23.40397 
L 24.480261 23.816835 
" style="fill:none;stroke:#4169e1;stroke-linecap:square;stroke-width:0.4;"/>
   </g>
   <g id="line2d_52">
    <path clip-path="url(#p9c4a91ad76)" d="M 23.094397 27.125034 
L 23.180954 27.48592 
L 23.267512 27.846807 
L 23.35407 28.207694 
L 23.440628 28.568581 
L 23.540272 28.945613 
L 23.639916 29.322646 
L 23.739561 29.699678 
L 23.839205 30.076711 
L 23.935915 30.442952 
L 24.032625 30.809193 
L 24.123907 31.094048 
L 24.215189 31.378902 
L 24.306471 31.663756 
L 24.397752 31.948611 
L 24.489034 32.233465 
L 24.580316 32.518319 
L 24.671598 32.803173 
L 24.76288 33.088028 
L 24.964339 33.440512 
L 25.165799 33.792997 
L 25.367259 34.145481 
L 25.568719 34.497966 
L 25.817418 34.71519 
L 26.066118 34.932414 
L 26.314818 35.149638 
L 26.563518 35.366862 
L 26.764097 35.531943 
L 26.964677 35.697023 
L 27.204398 35.894559 
L 27.444119 36.092096 
L 27.68384 36.289632 
L 27.923562 36.487168 
L 28.077811 36.70118 
L 28.23206 36.915191 
L 28.386309 37.129203 
L 28.540558 37.343214 
L 28.694807 37.557226 
L 28.849056 37.771237 
L 29.003305 37.985248 
L 29.157554 38.19926 
L 29.352734 38.438478 
L 29.547915 38.677696 
L 29.743096 38.916915 
L 29.938276 39.156133 
L 30.133457 39.395351 
L 30.328637 39.63457 
L 30.523818 39.873788 
L 30.718999 40.113006 
L 30.882696 40.268819 
L 31.046393 40.424633 
L 31.21009 40.580446 
L 31.373787 40.736259 
L 31.537484 40.892072 
L 31.701181 41.047885 
L 31.864878 41.203698 
L 32.028575 41.359512 
L 32.248931 41.690002 
L 32.469286 42.020492 
L 32.689642 42.350983 
L 32.909998 42.681473 
L 33.078419 42.908047 
L 33.24684 43.13462 
L 33.415261 43.361194 
L 33.583682 43.587768 
L 33.752103 43.814341 
L 33.920524 44.040915 
L 34.088945 44.267489 
L 34.257366 44.494062 
L 34.603656 44.752145 
L 34.949946 45.010227 
L 35.296236 45.268309 
L 35.642526 45.526391 
L 35.89909 45.724669 
L 36.155653 45.922947 
L 36.412216 46.121225 
L 36.66878 46.319502 
L 36.925343 46.51778 
L 37.181906 46.716058 
L 37.43847 46.914335 
L 37.695033 47.112613 
L 37.96524 47.328149 
L 38.235447 47.543684 
L 38.505655 47.759219 
L 38.775862 47.974755 
L 39.046069 48.19029 
L 39.316276 48.405825 
L 39.586483 48.621361 
L 39.85669 48.836896 
L 39.936265 48.90049 
L 40.326626 49.083034 
L 40.716987 49.265578 
L 41.113686 49.322252 
L 41.510385 49.378927 
L 41.78115 49.322252 
L 42.051915 49.265578 
L 42.250206 49.142839 
L 42.448497 49.020099 
L 42.646787 48.89736 
L 42.845078 48.77462 
L 43.039026 48.614359 
L 43.232975 48.454097 
L 43.426923 48.293836 
L 43.620871 48.133575 
L 43.814819 47.973313 
L 44.008768 47.813052 
L 44.202716 47.65279 
L 44.396664 47.492529 
" style="fill:none;stroke:#000000;stroke-linecap:square;stroke-width:0.4;"/>
   </g>
   <g id="line2d_53">
    <path clip-path="url(#p9c4a91ad76)" d="M 27.048946 38.482631 
L 27.167956 38.690547 
L 27.281332 38.967493 
L 27.394708 39.24444 
L 27.445058 39.622049 
L 27.495408 39.999658 
L 27.608784 40.264083 
L 27.722161 40.528508 
L 27.911003 40.717313 
L 28.099846 40.906117 
L 28.288689 41.113868 
L 28.477532 41.321619 
L 28.502648 41.762163 
L 28.401948 42.089523 
L 28.301247 42.416883 
L 28.276131 42.763189 
L 28.251014 43.109496 
L 28.395727 43.487105 
L 28.54044 43.864714 
L 28.760855 44.116453 
L 28.981269 44.368193 
L 29.182729 44.506666 
L 29.384189 44.645139 
L 29.585648 44.783612 
L 29.787108 44.922085 
L 29.966092 45.102158 
L 30.145076 45.282231 
L 30.32406 45.462303 
L 30.503044 45.642376 
L 30.605622 45.652261 
" style="fill:none;stroke:#4169e1;stroke-linecap:square;stroke-width:0.4;"/>
   </g>
   <g id="line2d_54">
    <path clip-path="url(#p9c4a91ad76)" d="M 25.241501 32.181568 
L 25.49959 32.285361 
L 25.757679 32.389154 
L 26.015768 32.492948 
L 26.273857 32.596741 
L 26.472207 32.7479 
L 26.670556 32.899058 
L 26.868906 33.050217 
L 27.067255 33.201376 
L 27.319124 33.459459 
L 27.570992 33.717541 
L 27.822861 33.975623 
L 28.07473 34.233706 
L 28.251014 34.422551 
L 28.427299 34.611397 
L 28.603583 34.800243 
L 28.779868 34.989088 
L 28.956153 35.177934 
L 29.132437 35.36678 
L 29.308722 35.555626 
L 29.485006 35.744471 
" style="fill:none;stroke:#ff0000;stroke-dasharray:1.48,0.64;stroke-dashoffset:0;stroke-width:0.4;"/>
   </g>
   <g id="line2d_55">
    <path clip-path="url(#p9c4a91ad76)" d="M 26.075508 17.808699 
L 25.708854 17.843956 
L 25.342201 17.879213 
L 24.964281 17.96719 
L 24.794334 18.124527 
L 24.624387 18.281864 
L 24.448103 18.464573 
L 24.271818 18.647282 
L 23.868781 18.785672 
L 23.491096 18.886335 
L 23.11341 18.986998 
L 22.760841 19.087826 
L 22.408272 19.188653 
L 22.219311 19.333469 
L 22.030351 19.478285 
L 21.885638 19.748971 
L 21.740925 20.019657 
L 21.703133 20.428733 
L 21.665341 20.83781 
L 21.551965 21.177855 
L 21.438589 21.517901 
L 21.209137 21.754319 
L 20.979686 21.990736 
L 20.736972 22.182342 
L 20.494258 22.373947 
L 20.324898 22.689116 
L 20.155538 23.004284 
L 20.135937 23.362782 
L 20.116337 23.72128 
L 20.182473 24.058113 
L 20.248609 24.394946 
L 20.314745 24.73178 
L 20.380881 25.068613 
L 20.459576 25.301488 
L 20.53827 25.534364 
L 20.616964 25.767239 
L 20.695659 26.000114 
L 20.720834 26.283404 
L 20.746009 26.566693 
L 20.771184 26.849982 
L 20.796359 27.133271 
L 20.821534 27.407087 
L 20.846709 27.680903 
L 20.871884 27.954719 
L 20.89706 28.228535 
L 20.953748 28.593706 
L 21.010436 28.958876 
L 21.067124 29.324046 
L 21.123812 29.689217 
L 21.255967 30.098458 
L 21.388121 30.507699 
L 21.403907 30.762486 
L 21.419693 31.017274 
L 21.435479 31.272061 
L 21.451265 31.526848 
L 21.583419 31.885676 
L 21.715574 32.244503 
L 21.917445 32.62722 
L 22.119315 33.009936 
L 22.320012 33.390181 
L 22.515193 33.6766 
L 22.710373 33.96302 
L 22.905554 34.249439 
L 23.100734 34.535859 
L 23.308532 34.731006 
L 23.516329 34.926154 
L 23.724127 35.121301 
L 23.931924 35.316449 
L 24.246702 35.511514 
L 24.561479 35.706579 
L 24.725088 36.046625 
L 24.687296 36.373985 
L 24.649504 36.701345 
L 24.542465 36.946823 
L 24.435427 37.192302 
L 24.347402 37.594953 
L 24.347402 37.934999 
" style="fill:none;stroke:#4169e1;stroke-linecap:square;stroke-width:0.4;"/>
   </g>
   <g id="line2d_56">
    <path clip-path="url(#p9c4a91ad76)" d="M 29.485006 35.744471 
L 29.673849 35.980477 
L 29.862692 36.216483 
L 30.051535 36.452488 
L 30.240378 36.688494 
L 30.399351 36.864777 
L 30.558324 37.041061 
L 30.717297 37.217344 
L 30.87627 37.393628 
L 31.035243 37.569911 
L 31.194216 37.746195 
L 31.353189 37.922478 
L 31.512162 38.098762 
L 31.713651 38.344241 
L 31.91514 38.589719 
L 32.116629 38.835198 
L 32.318118 39.080677 
L 32.519607 39.326156 
L 32.721096 39.571635 
L 32.922585 39.817114 
L 33.124074 40.062593 
L 33.311391 40.240441 
L 33.498709 40.41829 
L 33.686026 40.596138 
L 33.873343 40.773987 
L 34.06066 40.951836 
L 34.247977 41.129684 
L 34.435294 41.307533 
L 34.622611 41.485381 
L 34.808343 41.652192 
L 34.994076 41.819002 
L 35.179809 41.985812 
L 35.365541 42.152622 
" style="fill:none;stroke:#000000;stroke-linecap:square;stroke-width:0.4;"/>
   </g>
   <g id="line2d_57">
    <path clip-path="url(#p9c4a91ad76)" d="M 23.839205 30.076711 
L 24.038669 30.181245 
L 24.238134 30.28578 
L 24.437598 30.390314 
L 24.637063 30.494849 
L 24.958178 30.551193 
L 25.279293 30.607538 
L 25.631862 30.632745 
L 25.984431 30.657952 
L 26.393571 30.582826 
L 26.802711 30.507699 
L 27.035683 30.460416 
L 27.268656 30.413132 
L 27.501629 30.365849 
L 27.734601 30.318565 
L 28.150196 30.186435 
L 28.565791 30.054305 
L 28.968711 29.903228 
L 29.37163 29.752151 
L 29.661291 29.588389 
L 29.950952 29.424627 
L 30.341078 29.223301 
L 30.504922 29.261194 
L 30.681207 29.399585 
L 30.668531 29.60091 
L 30.548934 29.846554 
L 30.429338 30.092197 
L 30.243605 30.328038 
L 30.057873 30.563879 
L 29.87214 30.79972 
L 29.686407 31.035561 
L 29.4755 31.296856 
L 29.264592 31.558151 
L 29.053684 31.819446 
L 28.842777 32.080741 
L 28.631869 32.338823 
L 28.420961 32.596905 
L 28.210053 32.854988 
L 27.999146 33.11307 
L 27.725271 33.352288 
L 27.451396 33.591507 
L 27.177521 33.830725 
L 26.903646 34.069943 
L 26.717913 34.217889 
L 26.532181 34.365836 
L 26.346448 34.513782 
L 26.160716 34.661728 
L 25.952859 35.039337 
L 25.745003 35.416947 
L 25.641134 35.687632 
L 25.537264 35.958318 
L 25.433395 36.229004 
L 25.329526 36.499689 
L 25.172137 36.845996 
L 25.014748 37.192302 
L 24.781776 37.444042 
L 24.548803 37.695781 
L 24.347402 37.934999 
L 24.334727 38.186739 
L 24.397635 38.388394 
L 24.674855 38.476371 
L 25.008528 38.39449 
L 25.342201 38.312608 
L 25.543602 38.155271 
L 25.745003 37.997934 
L 25.915067 37.853118 
L 26.085132 37.708302 
L 26.500609 37.569911 
L 26.853178 37.708302 
L 27.092371 37.997934 
L 27.054579 38.26862 
L 27.016787 38.539306 
L 26.947541 38.781654 
L 26.878295 39.024003 
L 26.809049 39.266351 
L 26.739802 39.5087 
L 26.657998 39.751049 
L 26.576193 39.993397 
L 26.494389 40.235746 
L 26.412584 40.478094 
L 26.229962 40.701579 
L 26.04734 40.925064 
L 25.864717 41.148548 
L 25.682095 41.372033 
L 25.480635 41.592387 
L 25.279175 41.812741 
L 25.077716 42.033096 
L 24.876256 42.25345 
L 24.731426 42.454858 
L 24.586595 42.656266 
L 24.441765 42.857674 
L 24.296934 43.059082 
L 24.089196 43.392703 
L 23.881457 43.726323 
" style="fill:none;stroke:#008000;stroke-linecap:square;stroke-width:0.4;"/>
   </g>
   <g id="line2d_58">
    <path clip-path="url(#p9c4a91ad76)" d="M 25.912837 12.509981 
L 25.715662 12.839977 
L 25.518486 13.169973 
L 25.379993 13.591735 
L 25.241501 14.013498 
L 25.112397 14.202385 
L 24.983294 14.391271 
L 24.854191 14.580158 
L 24.725088 14.769045 
L 24.489005 14.99566 
L 24.252922 15.222275 
L 24.016839 15.44889 
L 23.780756 15.675505 
L 23.652592 15.845857 
L 23.492621 16.058304 
L 23.332651 16.27075 
L 23.17268 16.483196 
L 23.012709 16.695642 
L 22.899333 16.982062 
L 22.785957 17.268481 
L 22.672581 17.554901 
L 22.559205 17.84132 
L 22.426992 18.250561 
L 22.294778 18.659803 
L 22.162565 19.069044 
L 22.030351 19.478285 
" style="fill:none;stroke:#000000;stroke-linecap:square;stroke-width:0.4;"/>
   </g>
   <g id="line2d_59">
    <path clip-path="url(#p9c4a91ad76)" d="M 22.119315 33.009936 
L 22.081523 33.24347 
L 22.043731 33.477005 
L 22.005939 33.710539 
L 21.968147 33.944073 
L 21.917797 34.321683 
L 21.867446 34.699292 
L 21.785583 34.951113 
L 21.70372 35.202935 
L 21.621857 35.454757 
L 21.539994 35.706579 
L 21.388884 36.074838 
L 21.237775 36.443098 
L 21.086665 36.811357 
L 20.935556 37.179616 
L 20.784446 37.547876 
L 20.633337 37.916135 
L 20.482227 38.284395 
L 20.331118 38.652654 
L 20.217801 38.954807 
L 20.104483 39.256961 
L 19.991166 39.559114 
L 19.877848 39.861267 
L 19.82116 40.150817 
L 19.764472 40.440366 
L 19.707784 40.729916 
L 19.651096 41.019466 
L 19.600746 41.416021 
L 19.550396 41.812577 
L 19.500045 42.209132 
L 19.449695 42.605687 
L 19.455739 42.96921 
L 19.461784 43.332733 
L 19.467828 43.696256 
L 19.473873 44.059779 
" style="fill:none;stroke:#000000;stroke-linecap:square;stroke-width:0.4;"/>
   </g>
   <g id="line2d_60">
    <path clip-path="url(#p9c4a91ad76)" d="M 27.074062 6.044167 
L 25.524706 7.195282 
L 25.216149 7.340098 
L 24.426038 7.277163 
L 23.730289 7.088358 
L 22.603452 6.288493 
L 21.627549 5.328407 
L 21.073462 4.840497 
L 20.330531 4.135363 
L 19.732431 3.568785 
L 19.24759 3.342087 
L 18.995721 3.272727 
L 15.7628 3.653714 
L 14.034401 4.179516 
L 12.523424 4.242451 
L 10.91157 4.969744 
L 10.672319 5.098826 
L 9.879038 6.345332 
L 9.727987 6.71042 
L 8.645163 7.302205 
L 8.02805 8.271929 
L 7.12151 9.85848 
L 6.756265 10.072327 
L 6.441488 10.110219 
L 6.277645 10.286503 
L 5.786583 12.011445 
L 4.187463 15.288505 
L 3.815998 16.538141 
L 3.718408 17.293688 
L 3.822336 18.395377 
L 3.866407 19.097216 
L 3.809719 20.693158 
L 3.904199 21.237742 
L 4.304008 22.493721 
L 5.361716 24.457881 
L 5.623032 25.03072 
L 5.988219 26.0128 
L 6.164503 26.277225 
L 6.894758 26.780704 
L 8.16666 27.032608 
L 9.22425 27.158643 
L 9.740663 27.473317 
L 10.26312 28.294847 
L 12.359815 32.936786 
L 14.569652 36.263766 
L 16.667579 38.99443 
L 17.978916 41.142288 
L 19.675508 44.415476 
L 20.084942 44.937984 
L 20.708334 45.438415 
L 22.767061 46.074023 
L 23.868781 46.21884 
L 26.802711 46.256567 
L 27.193072 46.130698 
L 27.997737 45.380422 
L 27.997737 45.380422 
" style="fill:none;stroke:#4169e1;stroke-linecap:square;stroke-width:0.4;"/>
   </g>
   <g id="line2d_61">
    <path clip-path="url(#p9c4a91ad76)" d="M 24.426038 7.277163 
L 24.361486 7.642251 
L 24.296934 8.007339 
L 24.259172 8.372509 
L 24.221409 8.737679 
L 24.183646 9.10285 
L 24.145884 9.46802 
L 24.108121 9.833191 
L 24.070358 10.198361 
L 24.032596 10.563531 
L 23.994833 10.928702 
L 23.963349 11.175808 
L 23.931866 11.422913 
L 23.900382 11.670019 
L 23.868899 11.917125 
L 23.837415 12.164231 
L 23.805931 12.411336 
L 23.774448 12.658442 
L 23.742964 12.905548 
L 23.711481 13.152654 
L 23.679997 13.399759 
L 23.648513 13.646865 
L 23.61703 13.893971 
L 23.585546 14.141077 
L 23.554063 14.388182 
L 23.522579 14.635288 
L 23.491096 14.882394 
L 23.541563 15.285375 
L 23.597078 15.565616 
L 23.652592 15.845857 
" style="fill:none;stroke:#4169e1;stroke-linecap:square;stroke-width:0.4;"/>
   </g>
   <g id="line2d_62">
    <path clip-path="url(#p9c4a91ad76)" d="M 25.090333 10.991637 
L 24.958119 11.350464 
L 24.825906 11.709292 
L 24.693692 12.068119 
L 24.561479 12.426946 
L 24.476447 12.829927 
L 24.391415 13.232908 
L 24.306382 13.635889 
L 24.22135 14.038869 
L 24.202513 14.268614 
L 24.183676 14.49836 
L 24.164838 14.728105 
L 24.146001 14.95785 
" style="fill:none;stroke:#000000;stroke-dasharray:1.48,0.64;stroke-dashoffset:0;stroke-width:0.4;"/>
   </g>
   <g id="line2d_63">
    <path clip-path="url(#p9c4a91ad76)" d="M 22.874686 34.674249 
L 22.777096 34.888261 
L 22.679506 35.102272 
L 22.581915 35.316284 
L 22.484325 35.530295 
L 22.386735 35.744307 
L 22.289145 35.958318 
L 22.191554 36.172329 
L 22.093964 36.386341 
L 21.996374 36.625559 
L 21.898783 36.864777 
L 21.801193 37.103996 
L 21.703603 37.343214 
L 21.606012 37.582432 
L 21.508422 37.821651 
L 21.410832 38.060869 
L 21.313241 38.300087 
L 21.206203 38.671518 
L 21.099165 39.042949 
L 20.992127 39.41438 
L 20.885088 39.785811 
L 20.815842 40.132035 
L 20.746596 40.478259 
L 20.677349 40.824483 
L 20.608103 41.170707 
L 20.734037 41.497902 
L 20.859972 41.825098 
L 21.061431 41.963653 
L 21.262891 42.102209 
L 21.464351 42.240764 
L 21.665811 42.37932 
" style="fill:none;stroke:#ff0000;stroke-dasharray:1.48,0.64;stroke-dashoffset:0;stroke-width:0.4;"/>
   </g>
   <g id="line2d_64">
    <path clip-path="url(#p9c4a91ad76)" d="M 23.931924 35.316449 
L 23.894308 35.552454 
L 23.856692 35.78846 
L 23.819076 36.024466 
L 23.78146 36.260471 
L 23.668084 36.461962 
L 23.554708 36.663452 
L 23.441332 36.864942 
L 23.327956 37.066433 
L 23.139113 37.299308 
L 22.95027 37.532183 
L 22.761428 37.765059 
L 22.572585 37.997934 
L 22.471826 38.224549 
L 22.371066 38.451164 
L 22.270307 38.677779 
L 22.169548 38.904394 
L 22.075127 39.225411 
L 21.980705 39.546428 
L 21.886284 39.867445 
L 21.791862 40.188462 
L 21.817037 40.446545 
L 21.842213 40.704627 
L 21.867388 40.962709 
L 21.892563 41.220791 
L 21.949251 41.504081 
L 22.005939 41.78737 
L 22.062627 42.070659 
L 22.119315 42.353948 
L 22.270366 42.530232 
L 22.421417 42.706515 
L 22.572467 42.882798 
L 22.723518 43.059082 
L 23.013003 43.225892 
L 23.302487 43.392703 
L 23.591972 43.559513 
L 23.881457 43.726323 
L 24.265656 43.899394 
L 24.649856 44.072465 
L 25.034055 44.245536 
L 25.418255 44.418606 
L 25.648058 44.51305 
L 25.877862 44.607493 
L 26.107666 44.701937 
L 26.33747 44.79638 
L 26.567273 44.890824 
L 26.797077 44.985267 
L 27.026881 45.079711 
L 27.256685 45.174154 
L 27.627211 45.277288 
L 27.997737 45.380422 
L 28.395375 45.4913 
L 28.793013 45.602177 
L 29.220521 45.612227 
L 29.648029 45.622277 
L 30.075536 45.632326 
L 30.503044 45.642376 
L 30.780381 45.71602 
L 31.057719 45.789663 
L 31.335056 45.863307 
L 31.612393 45.936951 
L 31.88973 46.010594 
L 32.167067 46.084238 
L 32.444405 46.157882 
L 32.721742 46.231525 
L 33.014513 46.313365 
L 33.307284 46.395205 
L 33.600055 46.477045 
L 33.892825 46.558885 
L 34.185596 46.640725 
L 34.478367 46.722565 
L 34.771138 46.804405 
L 35.063909 46.886245 
L 35.296852 46.983819 
L 35.529796 47.081393 
L 35.762739 47.178967 
L 35.995682 47.27654 
L 36.228626 47.374114 
L 36.461569 47.471688 
L 36.694512 47.569262 
L 36.927456 47.666835 
L 37.166707 47.761237 
L 37.405959 47.85564 
L 37.645211 47.950042 
L 37.884463 48.044444 
L 38.130991 48.143501 
L 38.37752 48.242557 
L 38.624048 48.341614 
L 38.870577 48.44067 
L 39.117105 48.539727 
L 39.363634 48.638783 
L 39.610162 48.73784 
L 39.85669 48.836896 
" style="fill:none;stroke:#000000;stroke-linecap:square;stroke-width:0.4;"/>
   </g>
   <g id="line2d_65">
    <path clip-path="url(#p9c4a91ad76)" d="M 21.766511 34.069943 
L 21.52412 34.230452 
L 21.281729 34.39096 
L 21.039337 34.551469 
L 20.796946 34.711977 
L 20.554555 34.872486 
L 20.312163 35.032995 
L 20.069772 35.193503 
L 19.827381 35.354012 
L 19.58185 35.549159 
L 19.336319 35.744307 
L 19.090788 35.939454 
L 18.845257 36.134601 
L 18.599726 36.329749 
L 18.354195 36.524896 
L 18.108665 36.720044 
L 17.863134 36.915191 
L 17.672824 37.113798 
L 17.482514 37.312406 
L 17.292204 37.511013 
L 17.101894 37.70962 
L 16.911584 37.908227 
L 16.721274 38.106835 
L 16.530964 38.305442 
L 16.340655 38.504049 
" style="fill:none;stroke:#ff0000;stroke-dasharray:1.48,0.64;stroke-dashoffset:0;stroke-width:0.4;"/>
   </g>
   <g id="line2d_66">
    <path clip-path="url(#p9c4a91ad76)" d="M 24.108678 38.551827 
L 23.982803 38.898051 
L 23.856927 39.244275 
L 23.731052 39.590499 
L 23.605176 39.936723 
L 23.510696 40.314414 
L 23.416216 40.692106 
L 23.321736 41.069797 
L 23.227256 41.447489 
L 23.170626 41.774849 
L 23.113997 42.102209 
L 23.057367 42.429569 
L 23.000738 42.756929 
" style="fill:none;stroke:#ff0000;stroke-dasharray:1.48,0.64;stroke-dashoffset:0;stroke-width:0.4;"/>
   </g>
   <g id="line2d_67">
    <path clip-path="url(#p9c4a91ad76)" d="M 22.673285 16.01621 
L 22.408858 16.060281 
L 22.144432 16.104351 
L 21.880005 16.148422 
L 21.615578 16.192493 
L 21.351151 16.236564 
L 21.086724 16.280635 
L 20.822297 16.324706 
L 20.55787 16.368777 
L 20.265099 16.475782 
L 19.972328 16.582788 
L 19.679557 16.689794 
L 19.386787 16.796799 
L 19.094016 16.903805 
L 18.801245 17.010811 
L 18.508474 17.117817 
L 18.215703 17.224822 
L 17.989039 17.360206 
L 17.762374 17.49559 
L 17.53571 17.630974 
L 17.309046 17.766359 
L 17.082382 17.901743 
L 16.855718 18.037127 
L 16.629054 18.172511 
L 16.402389 18.307895 
L 16.237123 18.504628 
L 16.071856 18.701361 
L 15.906589 18.898094 
L 15.741322 19.094827 
L 15.576055 19.291561 
L 15.410788 19.488294 
L 15.245522 19.685027 
L 15.080255 19.88176 
L 14.914988 20.078493 
L 14.749721 20.275226 
L 14.584454 20.47196 
L 14.419188 20.668693 
L 14.253921 20.865426 
L 14.088654 21.062159 
L 13.923387 21.258892 
L 13.75812 21.455625 
L 13.547183 21.817583 
L 13.336246 22.179541 
L 13.125309 22.541499 
L 12.914372 22.903456 
L 12.703435 23.265414 
L 12.492498 23.627372 
L 12.281561 23.98933 
L 12.070624 24.351287 
L 11.950176 24.58025 
L 11.829729 24.809213 
L 11.709282 25.038175 
L 11.588834 25.267138 
L 11.468387 25.4961 
L 11.347939 25.725063 
L 11.227492 25.954025 
L 11.107044 26.182988 
L 10.986597 26.41195 
L 10.866149 26.640913 
L 10.745702 26.869876 
L 10.625255 27.098838 
L 10.504807 27.327801 
L 10.38436 27.556763 
L 10.263912 27.785726 
L 10.143465 28.014688 
" style="fill:none;stroke:#ff0000;stroke-dasharray:1.48,0.64;stroke-dashoffset:0;stroke-width:0.4;"/>
   </g>
   <g id="line2d_68">
    <path clip-path="url(#p9c4a91ad76)" d="M 20.255534 27.801171 
L 20.000555 27.842112 
L 19.745576 27.883052 
L 19.490597 27.923993 
L 19.235618 27.964934 
L 18.98064 28.005874 
L 18.725661 28.046815 
L 18.470682 28.087755 
L 18.215703 28.128696 
L 17.989039 28.182199 
L 17.762374 28.235702 
L 17.53571 28.289205 
L 17.309046 28.342708 
L 17.082382 28.39621 
L 16.855718 28.449713 
L 16.629054 28.503216 
L 16.402389 28.556719 
L 16.04982 28.77073 
L 15.697251 28.984742 
L 15.344682 29.198753 
L 14.992113 29.412765 
L 14.815828 29.595185 
L 14.639543 29.777606 
L 14.463259 29.960026 
L 14.286974 30.142446 
L 14.11069 30.324867 
L 13.934405 30.507287 
L 13.75812 30.689708 
L 13.581836 30.872128 
L 13.429083 31.13021 
L 13.276331 31.388293 
L 13.123578 31.646375 
L 12.970825 31.904457 
L 12.818073 32.16254 
L 12.66532 32.420622 
L 12.512568 32.678704 
L 12.359815 32.936786 
" style="fill:none;stroke:#ff0000;stroke-dasharray:1.48,0.64;stroke-dashoffset:0;stroke-width:0.4;"/>
   </g>
  </g>
 </g>
 <defs>
  <clipPath id="p9c4a91ad76">
   <rect height="72" width="81.597114" x="0" y="0"/>
  </clipPath>
 </defs>
</svg>
