<?xml version="1.0" encoding="utf-8" standalone="no"?>
<!DOCTYPE svg PUBLIC "-//W3C//DTD SVG 1.1//EN"
  "http://www.w3.org/Graphics/SVG/1.1/DTD/svg11.dtd">
<svg height="72pt" version="1.1" viewBox="0 0 65.735283 72" width="65.735283pt" xmlns="http://www.w3.org/2000/svg" xmlns:xlink="http://www.w3.org/1999/xlink">
 <metadata>
  <rdf:RDF xmlns:cc="http://creativecommons.org/ns#" xmlns:dc="http://purl.org/dc/elements/1.1/" xmlns:rdf="http://www.w3.org/1999/02/22-rdf-syntax-ns#">
   <cc:Work>
    <dc:type rdf:resource="http://purl.org/dc/dcmitype/StillImage"/>
    <dc:date>2022-04-21T17:35:49.758876</dc:date>
    <dc:format>image/svg+xml</dc:format>
    <dc:creator>
     <cc:Agent>
      <dc:title>Matplotlib v3.4.3, https://matplotlib.org/</dc:title>
     </cc:Agent>
    </dc:creator>
   </cc:Work>
  </rdf:RDF>
 </metadata>
 <defs>
  <style type="text/css">*{stroke-linecap:butt;stroke-linejoin:round;}</style>
 </defs>
 <g id="figure_1">
  <g id="patch_1">
   <path d="M 0 72 
L 65.735283 72 
L 65.735283 0 
L 0 0 
z
" style="fill:#ffffff;"/>
  </g>
  <g id="axes_1">
   <g id="line2d_1">
    <path clip-path="url(#p9237aced0b)" d="M 12.523372 63.420873 
L 11.946863 64.027834 
L 11.370355 64.634796 
L 10.793846 65.241758 
L 10.217338 65.848719 
" style="fill:none;stroke:#808080;stroke-linecap:square;stroke-width:0.4;"/>
   </g>
   <g id="line2d_2">
    <path clip-path="url(#p9237aced0b)" d="M 12.827641 68.445111 
L 13.111473 67.797831 
L 13.395304 67.150552 
L 13.679135 66.503272 
L 13.962966 65.855993 
L 14.246797 65.208713 
L 14.530628 64.561434 
L 14.814459 63.914154 
L 15.098291 63.266875 
L 15.338109 62.588558 
L 15.577928 61.91024 
" style="fill:none;stroke:#808080;stroke-linecap:square;stroke-width:0.4;"/>
   </g>
   <g id="line2d_3">
    <path clip-path="url(#p9237aced0b)" d="M 11.043435 63.615 
L 11.628255 63.092311 
" style="fill:none;stroke:#808080;stroke-linecap:square;stroke-width:0.4;"/>
   </g>
   <g id="line2d_4">
    <path clip-path="url(#p9237aced0b)" d="M 2.987967 33.167596 
L 3.377783 32.949391 
L 4.334142 32.415415 
L 4.707431 32.20674 
L 5.310235 31.870153 
L 5.913039 31.533565 
L 6.663604 31.114398 
L 7.414168 30.69523 
L 8.164732 30.276063 
L 8.915297 29.856896 
L 9.874281 29.321415 
L 10.833265 28.785935 
L 11.437041 28.44872 
L 12.040817 28.111505 
L 12.874205 27.646063 
L 13.707593 27.180621 
L 14.540981 26.715179 
L 15.374369 26.249738 
L 16.110109 25.838847 
L 16.845848 25.427957 
L 17.581588 25.017066 
L 18.317328 24.606176 
L 18.956294 24.249335 
L 19.595261 23.892494 
L 20.234227 23.535653 
L 20.873193 23.178813 
L 21.52611 22.814197 
L 22.179026 22.449581 
L 22.831942 22.084965 
L 23.484858 21.720349 
L 24.269932 21.281807 
L 25.055006 20.843264 
L 25.565168 20.558343 
L 26.07533 20.273423 
L 26.585493 19.988502 
L 27.095655 19.703581 
L 28.025379 19.184403 
L 28.955102 18.665225 
L 29.784699 18.201852 
L 30.614296 17.73848 
L 31.443892 17.275107 
L 32.273489 16.811735 
L 32.776774 16.53067 
L 33.280058 16.249605 
L 33.783342 15.968541 
L 34.286627 15.687476 
L 34.789911 15.406411 
L 35.293196 15.125347 
L 35.79648 14.844282 
L 36.299765 14.563218 
L 36.822054 14.271493 
L 37.344343 13.979769 
L 37.866632 13.688045 
L 38.388921 13.396321 
L 38.91121 13.104597 
L 39.4335 12.812873 
L 39.955789 12.521149 
L 40.478078 12.229425 
L 41.129293 11.865749 
L 41.780508 11.502074 
L 42.644517 11.020267 
" style="fill:none;stroke:#808080;stroke-linecap:square;stroke-width:0.4;"/>
   </g>
   <g id="line2d_5">
    <path clip-path="url(#p9237aced0b)" d="M 55.503558 42.564968 
L 55.474394 42.092691 
L 55.440079 41.511814 
L 55.405764 40.930937 
L 55.36931 40.3125 
L 55.332855 39.694064 
L 55.296401 39.075628 
L 55.259947 38.457192 
L 55.209155 37.595532 
L 55.158362 36.733872 
L 55.10757 35.872212 
L 55.056777 35.010552 
L 55.014296 34.289534 
L 54.971815 33.568517 
L 54.929334 32.847499 
L 54.886852 32.126481 
L 54.851176 31.521902 
L 54.8155 30.917323 
L 54.780358 30.321585 
L 54.745216 29.725847 
L 54.710075 29.130109 
L 54.674933 28.534372 
L 54.631723 27.80144 
L 54.588513 27.068509 
L 54.545302 26.335578 
L 54.502092 25.602646 
L 54.450279 24.723179 
L 54.398466 23.843712 
L 54.346652 22.964244 
L 54.294839 22.084777 
L 54.257656 21.4538 
L 54.220473 20.822823 
L 54.18329 20.191846 
L 54.146106 19.56087 
L 54.104549 18.856155 
L 54.062991 18.151439 
L 54.021434 17.446724 
L 53.979876 16.742009 
L 53.932048 15.931013 
L 53.884221 15.120017 
L 53.836393 14.309021 
L 53.788565 13.498025 
L 53.738453 12.647652 
L 53.688341 11.797278 
L 53.638229 10.946905 
L 53.588117 10.096531 
L 53.539754 9.276255 
L 53.491392 8.455979 
L 53.44303 7.635703 
L 53.394667 6.815427 
L 53.360498 6.236055 
L 53.326328 5.656682 
L 53.292158 5.07731 
L 53.257989 4.497937 
L 53.217938 3.813726 
" style="fill:none;stroke:#808080;stroke-linecap:square;stroke-width:0.4;"/>
   </g>
   <g id="line2d_6">
    <path clip-path="url(#p9237aced0b)" d="M 13.86663 68.727273 
L 14.145625 68.195178 
L 14.42462 67.663083 
L 14.703615 67.130989 
L 14.98261 66.598894 
L 15.360346 65.878378 
L 15.738083 65.157862 
L 16.11582 64.437345 
L 16.493557 63.716829 
L 16.871293 62.996313 
L 17.24903 62.275797 
L 17.626767 61.555281 
L 18.004504 60.834765 
L 18.428148 60.017624 
L 18.805812 59.289301 
L 19.183476 58.560978 
L 19.56114 57.832656 
L 19.938804 57.104333 
L 20.316467 56.37601 
L 20.694131 55.647688 
L 21.071795 54.919365 
L 21.449459 54.191042 
L 21.827123 53.46272 
L 22.204787 52.734397 
L 22.58245 52.006074 
L 22.960114 51.277752 
L 23.337778 50.549429 
L 23.715442 49.821107 
L 24.093106 49.092784 
L 24.47077 48.364461 
L 24.632139 48.046935 
L 24.903661 47.512834 
L 25.175183 46.978733 
L 25.446705 46.444631 
L 25.718227 45.91053 
L 25.989749 45.376429 
L 26.26127 44.842328 
L 26.532792 44.308227 
L 26.804314 43.774126 
L 27.075836 43.240024 
L 27.347358 42.705923 
L 27.61888 42.171822 
L 27.890401 41.637721 
L 28.161923 41.10362 
L 28.433445 40.569518 
L 28.704967 40.035417 
L 28.976489 39.501316 
L 29.304478 38.965083 
L 29.62294 38.358592 
L 29.941403 37.7521 
L 30.259865 37.145609 
L 30.578328 36.539117 
L 30.89679 35.932626 
L 31.215253 35.326135 
L 31.533715 34.719643 
L 31.852178 34.113152 
L 32.17064 33.50666 
L 32.489103 32.900169 
L 32.807565 32.293678 
L 33.126028 31.687186 
L 33.44449 31.080695 
L 33.762952 30.474203 
L 34.081415 29.867712 
L 34.399877 29.261221 
L 34.750419 28.601463 
L 35.100962 27.941706 
L 35.621234 26.962541 
L 36.141506 25.983377 
L 36.503956 25.301235 
L 36.866406 24.619093 
L 37.228857 23.93695 
L 37.591307 23.254808 
L 38.094178 22.290692 
L 38.59705 21.326576 
L 38.951577 20.646817 
L 39.306105 19.967057 
L 39.660633 19.287298 
L 40.01516 18.607539 
L 40.277824 18.103974 
L 40.540487 17.600409 
L 40.803151 17.096844 
L 41.065814 16.593279 
L 41.370619 16.00889 
L 41.675423 15.424501 
L 41.980227 14.840112 
L 42.285032 14.255724 
L 42.760587 13.344027 
L 43.236142 12.432331 
L 43.309633 12.291626 
L 43.693616 11.555246 
" style="fill:none;stroke:#808080;stroke-linecap:square;stroke-width:0.4;"/>
   </g>
   <g id="line2d_7">
    <path clip-path="url(#p9237aced0b)" d="M 52.159118 5.993521 
L 52.012087 6.221821 
L 51.865056 6.450121 
L 51.718024 6.678422 
L 51.570993 6.906722 
L 51.423962 7.135022 
L 51.276931 7.363323 
L 51.129899 7.591623 
L 50.982868 7.819924 
L 50.818606 7.973765 
L 50.654344 8.127605 
L 50.490082 8.281446 
L 50.32582 8.435287 
L 50.161559 8.589128 
L 49.997297 8.742969 
L 49.833035 8.89681 
L 49.668773 9.050651 
L 49.478434 9.17057 
L 49.288095 9.290489 
L 49.097757 9.410408 
L 48.907418 9.530326 
L 48.717079 9.650245 
L 48.526741 9.770164 
L 48.336402 9.890083 
L 48.146063 10.010002 
L 48.078259 10.205571 
L 48.010454 10.401141 
L 47.94265 10.59671 
L 47.874845 10.79228 
L 47.807041 10.98785 
L 47.739236 11.183419 
L 47.671432 11.378989 
L 47.603627 11.574558 
L 47.649948 11.875468 
L 47.696269 12.176378 
L 47.74259 12.477288 
L 47.788911 12.778198 
L 47.812242 12.93019 
L 47.848744 13.138801 
L 47.885247 13.347413 
L 47.92175 13.556025 
L 47.958252 13.764637 
" style="fill:none;stroke:#008000;stroke-linecap:square;stroke-width:0.4;"/>
   </g>
   <g id="line2d_8">
    <path clip-path="url(#p9237aced0b)" d="M 47.958252 13.764637 
L 49.345353 14.463395 
L 50.177137 14.870084 
L 54.591526 18.16561 
L 54.737537 18.520006 
L 52.234359 19.33351 
L 50.930666 19.719382 
L 50.278746 20.079138 
L 49.546069 21.257666 
L 49.332326 22.795919 
L 49.75218 24.109822 
L 49.314148 24.735594 
L 47.515068 25.160436 
L 45.947156 24.960446 
L 45.507909 25.106229 
L 43.953363 25.865997 
L 43.118906 25.548973 
L 42.597467 25.632242 
L 41.194667 26.826477 
L 40.428112 27.154913 
L 39.677061 26.841902 
L 38.842798 25.194327 
L 37.810031 24.645302 
L 37.176679 25.885153 
L 35.231224 27.494511 
L 34.003452 28.427025 
L 33.3152 29.532598 
L 34.092108 33.307423 
L 34.212066 33.787098 
L 34.024255 34.97594 
L 33.273399 35.997743 
L 31.8967 36.477293 
L 29.628238 36.151615 
L 27.328572 36.498361 
L 27.568075 37.273522 
L 31.124847 41.899567 
L 29.859017 43.311239 
L 27.453779 44.151846 
L 26.03528 47.843026 
L 27.036551 50.70001 
L 26.744529 52.576825 
L 24.593279 54.146179 
L 20.717608 55.07979 
L 19.229967 55.509507 
L 16.961432 57.581751 
L 17.349109 59.914603 
L 16.98243 61.710344 
L 15.515665 63.864792 
L 13.64499 68.007697 
L 13.64499 68.007697 
" style="fill:none;stroke:#008000;stroke-linecap:square;stroke-width:0.4;"/>
   </g>
   <g id="line2d_9">
    <path clip-path="url(#p9237aced0b)" d="M 53.052291 4.538318 
L 52.960086 4.797781 
L 52.867882 5.057245 
L 52.775678 5.316708 
L 52.683473 5.576172 
L 52.421296 5.784846 
L 52.159118 5.993521 
L 52.00883 6.004306 
L 51.684535 6.041049 
L 51.36024 6.077793 
L 51.035945 6.114537 
L 50.71165 6.151281 
L 50.508285 6.250351 
L 50.30492 6.349421 
L 50.101555 6.448491 
L 49.89819 6.547561 
L 49.720878 6.704004 
L 49.543565 6.860448 
L 49.366253 7.016891 
L 49.188941 7.173334 
L 49.019454 7.295886 
L 48.849967 7.418438 
L 48.68048 7.540991 
L 48.510993 7.663543 
L 48.341506 7.786095 
L 48.172019 7.908648 
L 48.002532 8.0312 
L 47.833045 8.153752 
L 47.668783 8.252823 
L 47.504521 8.351893 
L 47.340259 8.450963 
L 47.175997 8.550033 
L 47.011735 8.649103 
L 46.847473 8.748174 
L 46.683211 8.847244 
L 46.51895 8.946314 
L 46.37814 9.128841 
L 46.23733 9.311369 
L 46.09652 9.493896 
L 45.95571 9.676424 
L 45.804499 9.811987 
L 45.653288 9.94755 
L 45.502076 10.083113 
L 45.350865 10.218676 
L 45.199654 10.354239 
L 45.048442 10.489802 
L 44.897231 10.625366 
L 44.74602 10.760929 
" style="fill:none;stroke:#008000;stroke-linecap:square;stroke-width:0.4;"/>
   </g>
   <g id="line2d_10">
    <path clip-path="url(#p9237aced0b)" d="M 54.502092 29.794695 
L 54.399292 29.515354 
L 54.296491 29.236014 
L 54.193691 28.956674 
L 54.090891 28.677334 
L 53.916179 28.416647 
L 53.741467 28.155961 
L 53.566755 27.895275 
L 53.392043 27.634588 
L 53.21733 27.373902 
L 53.042618 27.113216 
L 52.867906 26.85253 
L 52.693194 26.591843 
L 52.578486 26.401509 
L 52.463777 26.211176 
L 52.349068 26.020842 
L 52.234359 25.830508 
L 52.119651 25.640174 
L 52.004942 25.44984 
L 51.890233 25.259506 
L 51.775525 25.069172 
L 51.67383 24.890595 
L 51.572135 24.712018 
L 51.470441 24.533441 
L 51.368746 24.354864 
L 51.267052 24.176286 
L 51.165357 23.997709 
L 51.063662 23.819132 
L 50.961968 23.640555 
L 50.860273 23.461978 
L 50.758578 23.283401 
L 50.656884 23.104824 
L 50.555189 22.926246 
L 50.453495 22.747669 
L 50.3518 22.569092 
L 50.250105 22.390515 
L 50.148411 22.211938 
L 50.096257 21.953822 
L 50.044104 21.695707 
L 49.99195 21.437591 
L 49.939796 21.179476 
L 49.887643 20.92136 
L 49.835489 20.663245 
L 49.783336 20.405129 
L 49.731182 20.147014 
L 49.626899 19.925392 
L 49.522616 19.703769 
L 49.418334 19.482146 
L 49.314051 19.260524 
L 49.209768 19.038901 
L 49.105485 18.817279 
L 49.001202 18.595656 
L 48.896919 18.374034 
L 48.883869 18.199376 
L 48.870818 18.024717 
L 48.857768 17.850059 
L 48.844717 17.675401 
L 48.831667 17.500743 
L 48.818616 17.326084 
L 48.805566 17.151426 
L 48.792515 16.976768 
L 48.753412 16.786434 
L 48.714309 16.5961 
L 48.675206 16.405766 
L 48.636103 16.215432 
L 48.597 16.025098 
L 48.557897 15.834765 
L 48.518794 15.644431 
L 48.479691 15.454097 
L 48.420878 15.263606 
L 48.362066 15.073115 
L 48.303253 14.882625 
L 48.244441 14.692134 
L 48.172894 14.46026 
L 48.101346 14.228385 
L 48.029799 13.996511 
L 47.958252 13.764637 
" style="fill:none;stroke:#008000;stroke-linecap:square;stroke-width:0.4;"/>
   </g>
   <g id="line2d_11">
    <path clip-path="url(#p9237aced0b)" d="M 48.244441 14.692134 
L 48.130437 14.899492 
L 48.016433 15.106849 
L 47.902429 15.314207 
L 47.788425 15.521565 
L 47.674421 15.728923 
L 47.560417 15.93628 
L 47.446413 16.143638 
L 47.332409 16.350996 
L 47.308957 16.635164 
L 47.285505 16.919332 
L 47.262053 17.203501 
L 47.238601 17.487669 
L 47.215149 17.771838 
L 47.191697 18.056006 
L 47.168245 18.340174 
L 47.144792 18.624343 
L 47.163044 18.952842 
L 47.181295 19.281341 
L 47.199546 19.60984 
L 47.217798 19.93834 
L 47.236049 20.266839 
L 47.2543 20.595338 
L 47.272552 20.923837 
L 47.290803 21.252336 
L 47.369009 21.440068 
L 47.447215 21.6278 
L 47.525421 21.815532 
L 47.603627 22.003263 
L 47.681833 22.190995 
L 47.760039 22.378727 
L 47.838245 22.566459 
L 47.916452 22.75419 
L 48.033785 22.88585 
L 48.151118 23.01751 
L 48.268452 23.14917 
L 48.385785 23.28083 
L 48.503119 23.41249 
L 48.620452 23.54415 
L 48.737785 23.67581 
L 48.855119 23.807469 
L 48.972452 23.939129 
L 49.089786 24.070789 
L 49.207119 24.202449 
L 49.324452 24.334109 
L 49.441786 24.465769 
L 49.559119 24.597429 
L 49.676453 24.729089 
L 49.793786 24.860749 
L 49.826388 25.035422 
L 49.85899 25.210096 
L 49.891592 25.38477 
L 49.924194 25.559444 
L 49.956796 25.734118 
L 49.989398 25.908792 
L 50.022 26.083466 
L 50.054602 26.25814 
L 50.087204 26.432814 
L 50.119807 26.607488 
L 50.152409 26.782162 
L 50.185011 26.956835 
L 50.217613 27.131509 
L 50.250215 27.306183 
L 50.282817 27.480857 
L 50.315419 27.655531 
L 50.357997 27.854988 
L 50.400576 28.054445 
L 50.443154 28.253903 
L 50.485732 28.45336 
L 50.521797 28.622155 
L 50.557863 28.790951 
L 50.593928 28.959746 
L 50.629993 29.128542 
L 50.666058 29.297337 
L 50.702123 29.466133 
L 50.738189 29.634928 
L 50.774254 29.803724 
L 50.815969 29.996629 
L 50.857685 30.189533 
L 50.8994 30.382438 
L 50.941116 30.575343 
L 50.982832 30.768248 
L 51.024547 30.961152 
L 51.066263 31.154057 
L 51.107978 31.346962 
L 51.149694 31.539866 
L 51.191409 31.732771 
L 51.233125 31.925676 
L 51.274841 32.11858 
L 51.316556 32.311485 
L 51.358272 32.50439 
L 51.399987 32.697295 
L 51.441703 32.890199 
L 51.559036 33.153503 
L 51.67637 33.416808 
L 51.793703 33.680112 
L 51.911036 33.943416 
L 52.02837 34.20672 
L 52.145703 34.470024 
L 52.263037 34.733328 
L 52.38037 34.996632 
L 52.497703 35.259936 
L 52.615037 35.52324 
L 52.73237 35.786544 
L 52.849704 36.049849 
L 52.967037 36.313153 
L 53.08437 36.576457 
L 53.201704 36.839761 
L 53.319037 37.103065 
L 53.394655 37.350725 
L 53.470273 37.598385 
L 53.545891 37.846044 
L 53.621509 38.093704 
L 53.697126 38.341364 
L 53.772744 38.589024 
L 53.848362 38.836684 
L 53.92398 39.084343 
L 53.999598 39.332003 
L 54.075215 39.579663 
L 54.150833 39.827323 
L 54.226451 40.074983 
L 54.302069 40.322642 
L 54.377687 40.570302 
L 54.453305 40.817962 
L 54.528922 41.065622 
" style="fill:none;stroke:#4169e1;stroke-linecap:square;stroke-width:0.4;"/>
   </g>
   <g id="line2d_12">
    <path clip-path="url(#p9237aced0b)" d="M 22.593435 57.74854 
L 22.702943 57.90492 
L 22.812451 58.061301 
L 22.921959 58.217681 
L 23.031467 58.374062 
L 23.010615 58.624277 
L 22.989763 58.874492 
L 22.968912 59.124707 
L 22.94806 59.374921 
L 22.927208 59.625136 
L 22.906357 59.875351 
L 22.885505 60.125566 
L 22.864653 60.375781 
L 22.8125 60.589535 
L 22.760346 60.803288 
L 22.708193 61.017041 
L 22.656039 61.230795 
L 22.603885 61.444548 
L 22.551732 61.658301 
L 22.499578 61.872055 
L 22.447425 62.085808 
L 22.395295 62.273477 
L 22.343166 62.461146 
L 22.291037 62.648815 
L 22.238908 62.836484 
L 22.186778 63.024153 
L 22.134649 63.211822 
L 22.08252 63.399491 
L 22.03039 63.58716 
L 21.795724 63.774829 
L 21.561057 63.962498 
L 21.32639 64.150167 
L 21.091723 64.337836 
" style="fill:none;stroke:#008000;stroke-linecap:square;stroke-width:0.4;"/>
   </g>
   <g id="line2d_13">
    <path clip-path="url(#p9237aced0b)" d="M 55.279778 28.94846 
L 55.350183 29.224822 
L 55.420588 29.501184 
L 55.490993 29.777546 
L 55.561398 30.053908 
L 55.631803 30.330269 
L 55.702208 30.606631 
L 55.772613 30.882993 
L 55.843018 31.159355 
L 55.87952 31.425246 
L 55.916023 31.691136 
L 55.952526 31.957027 
L 55.989028 32.222918 
L 56.025531 32.488808 
L 56.062033 32.754699 
L 56.098536 33.020589 
L 56.135039 33.28648 
L 56.08551 33.547166 
L 56.035981 33.807853 
L 55.986452 34.068539 
L 55.936923 34.329225 
L 55.887394 34.589911 
L 55.837865 34.850598 
L 55.788337 35.111284 
L 55.738808 35.37197 
L 55.577146 35.601399 
L 55.415485 35.830828 
L 55.253823 36.060257 
L 55.092162 36.289686 
" style="fill:none;stroke:#4169e1;stroke-linecap:square;stroke-width:0.4;"/>
   </g>
   <g id="line2d_14">
    <path clip-path="url(#p9237aced0b)" d="M 53.527652 3.272727 
L 54.069893 3.293545 
L 56.739884 4.712129 
L 59.284765 7.778164 
L 60.338189 9.024504 
L 62.517898 12.992892 
L 62.703011 14.856917 
L 62.288578 16.721129 
L 61.819195 17.448511 
L 60.588386 18.496743 
L 59.446378 20.553641 
L 58.606914 22.868811 
L 58.194959 23.989777 
L 56.875736 26.028209 
L 55.772588 28.109153 
L 54.04909 30.366794 
L 53.131226 31.284259 
L 51.274913 31.711985 
L 49.251544 32.733944 
L 48.688305 32.952902 
L 48.571263 33.343163 
L 46.395881 34.951612 
L 49.89819 35.956108 
L 51.473053 38.484718 
L 52.688091 39.798652 
L 53.465096 40.377335 
L 54.779143 41.941452 
L 54.779143 41.941452 
" style="fill:none;stroke:#4169e1;stroke-linecap:square;stroke-width:0.4;"/>
   </g>
   <g id="line2d_15">
    <path clip-path="url(#p9237aced0b)" d="M 53.548455 4.670244 
L 53.673613 4.933595 
L 53.798772 5.196946 
L 53.923931 5.460297 
L 54.04909 5.723649 
L 54.174249 5.987 
L 54.299408 6.250351 
L 54.424567 6.513702 
L 54.549726 6.777053 
L 54.640982 6.977827 
L 54.732239 7.178601 
L 54.823495 7.379375 
L 54.914752 7.580149 
L 55.006009 7.780923 
L 55.097265 7.981696 
L 55.188522 8.18247 
L 55.279778 8.383244 
L 55.285003 8.57618 
L 55.290229 8.769116 
L 55.295454 8.962052 
L 55.300679 9.154988 
L 55.305904 9.347924 
L 55.311129 9.540861 
L 55.316354 9.733797 
L 55.321579 9.926733 
L 55.285076 10.096187 
L 55.248574 10.26564 
L 55.212071 10.435094 
L 55.175568 10.604548 
L 55.139066 10.774002 
L 55.102563 10.943456 
L 55.066061 11.11291 
L 55.029558 11.282364 
L 55.045185 11.543113 
L 55.060811 11.803862 
L 55.076438 12.064611 
L 55.092064 12.32536 
L 55.107691 12.586109 
L 55.123318 12.846858 
L 55.138944 13.107607 
L 55.154571 13.368356 
L 55.204124 13.655158 
L 55.253677 13.94196 
L 55.303231 14.228762 
L 55.352784 14.515563 
L 55.402337 14.802365 
L 55.45189 15.089167 
L 55.501443 15.375969 
L 55.550996 15.662771 
L 55.618777 15.988668 
L 55.686557 16.314565 
L 55.754337 16.640462 
L 55.822117 16.966359 
L 55.889898 17.292256 
L 55.957678 17.618153 
L 56.025458 17.94405 
L 56.093238 18.269947 
L 56.13499 18.587975 
L 56.176742 18.906003 
L 56.218494 19.224031 
L 56.260246 19.542059 
L 56.359304 19.865354 
L 56.458362 20.188649 
L 56.55742 20.511943 
L 56.656477 20.835238 
L 56.729483 21.14292 
L 56.802488 21.450602 
L 56.875493 21.758284 
L 56.948498 22.065966 
L 56.927647 22.290159 
L 56.906795 22.514353 
L 56.885943 22.738546 
L 56.865092 22.962739 
L 56.84424 23.186933 
L 56.823388 23.411126 
L 56.802537 23.635319 
L 56.781685 23.859513 
L 56.685203 24.000311 
L 56.588721 24.14111 
L 56.49224 24.281909 
L 56.395758 24.422708 
L 56.299276 24.563507 
L 56.202795 24.704305 
L 56.106313 24.845104 
L 56.009831 24.985903 
L 55.874271 25.267438 
L 55.73871 25.548973 
L 55.60315 25.830508 
L 55.46759 26.112043 
L 55.433687 26.284099 
L 55.399785 26.456155 
L 55.365883 26.628211 
L 55.331981 26.800267 
L 55.298078 26.972323 
L 55.264176 27.144379 
L 55.230274 27.316435 
L 55.196372 27.488491 
L 55.201597 27.660579 
L 55.206822 27.832666 
L 55.212047 28.004754 
L 55.217272 28.176841 
L 55.222497 28.348928 
L 55.227722 28.521016 
L 55.232947 28.693103 
L 55.238172 28.865191 
" style="fill:none;stroke:#4169e1;stroke-linecap:square;stroke-width:0.4;"/>
   </g>
   <g id="line2d_16">
    <path clip-path="url(#p9237aced0b)" d="M 53.047819 4.46182 
L 53.93895 17.814146 
L 54.641338 28.864089 
L 55.071164 42.129059 
L 55.071164 42.129059 
" style="fill:none;stroke:#4169e1;stroke-linecap:square;stroke-width:0.4;"/>
   </g>
   <g id="line2d_17">
    <path clip-path="url(#p9237aced0b)" d="M 27.829207 15.162153 
L 27.829207 15.464505 
L 27.829207 15.766858 
L 27.717087 15.959794 
L 27.604966 16.15273 
L 27.492846 16.345666 
L 27.380725 16.538602 
L 27.268605 16.731538 
L 27.156484 16.924474 
L 27.044364 17.11741 
L 26.932243 17.310346 
L 26.820123 17.503282 
L 26.708002 17.696218 
L 26.595882 17.889154 
L 26.483762 18.08209 
L 26.371641 18.275026 
L 26.259521 18.467962 
L 26.1474 18.660898 
L 26.03528 18.853835 
L 25.925772 18.982892 
L 25.816264 19.11195 
L 25.706756 19.241008 
L 25.597248 19.370065 
L 25.48774 19.499123 
L 25.378232 19.628181 
L 25.268724 19.757239 
L 25.159216 19.886296 
L 25.049708 20.015354 
L 24.9402 20.144412 
L 24.830692 20.27347 
L 24.721184 20.402527 
L 24.611677 20.531585 
L 24.502169 20.660643 
L 24.392661 20.789701 
L 24.283153 20.918758 
L 24.141043 21.037376 
L 23.998933 21.155994 
L 23.856823 21.274611 
L 23.714713 21.393229 
L 23.572603 21.511847 
L 23.430493 21.630465 
L 23.288383 21.749082 
L 23.146273 21.8677 
L 23.004163 21.986318 
L 22.862053 22.104936 
L 22.719943 22.223553 
L 22.577833 22.342171 
L 22.435723 22.460789 
L 22.293613 22.579407 
L 22.151503 22.698024 
L 22.009393 22.816642 
L 21.903798 22.97307 
L 21.798202 23.129497 
L 21.692607 23.285924 
L 21.587012 23.442352 
L 21.481417 23.598779 
L 21.375822 23.755207 
L 21.270227 23.911634 
L 21.164631 24.068062 
L 21.059036 24.224489 
L 20.953441 24.380917 
L 20.847846 24.537344 
L 20.742251 24.693771 
L 20.636655 24.850199 
L 20.53106 25.006626 
L 20.425465 25.163054 
L 20.31987 25.319481 
L 20.186545 25.599386 
L 20.053221 25.87929 
L 19.919896 26.159195 
L 19.786571 26.4391 
L 19.711282 26.597173 
L 19.635992 26.755246 
L 19.560702 26.91332 
L 19.485412 27.071393 
L 19.378529 27.279974 
L 19.271646 27.488554 
L 19.164763 27.697134 
L 19.05788 27.905715 
L 18.950996 28.114295 
L 18.844113 28.322875 
L 18.73723 28.531456 
L 18.630347 28.740036 
L 18.502563 28.883406 
L 18.374779 29.026775 
L 18.246996 29.170145 
L 18.119212 29.313515 
L 17.991429 29.456884 
L 17.863645 29.600254 
L 17.735862 29.743623 
L 17.608078 29.886993 
L 17.308232 30.017352 
L 17.008385 30.147711 
L 16.708538 30.27807 
L 16.408692 30.408428 
L 16.108845 30.538787 
L 15.808998 30.669146 
L 15.509152 30.799505 
L 15.209305 30.929864 
L 15.027813 31.085492 
L 14.84632 31.24112 
" style="fill:none;stroke:#000000;stroke-linecap:square;stroke-width:0.4;"/>
   </g>
   <g id="line2d_18">
    <path clip-path="url(#p9237aced0b)" d="M 34.962922 13.952243 
L 34.756957 14.207756 
L 34.550992 14.463269 
L 34.345026 14.718783 
L 34.139061 14.974296 
L 33.933096 15.229809 
L 33.72713 15.485323 
L 33.521165 15.740836 
L 33.3152 15.996349 
L 33.240056 16.233804 
L 33.164912 16.471259 
L 33.089768 16.708714 
L 33.014624 16.946169 
L 32.928106 17.219741 
L 32.841589 17.493312 
L 32.755071 17.766884 
L 32.668554 18.040456 
L 32.609887 18.200786 
L 32.55122 18.361117 
L 32.492554 18.521448 
L 32.433887 18.681778 
L 32.37522 18.842109 
L 32.316553 19.00244 
L 32.257887 19.162771 
L 32.19922 19.323101 
L 32.140553 19.483432 
L 32.081887 19.643763 
L 32.02322 19.804093 
L 31.964553 19.964424 
L 31.905887 20.124755 
L 31.84722 20.285085 
L 31.788553 20.445416 
L 31.729886 20.605747 
L 31.620366 20.741325 
L 31.510846 20.876904 
L 31.401326 21.012483 
L 31.291806 21.148062 
L 31.182286 21.283641 
L 31.072766 21.419219 
L 30.963246 21.554798 
L 30.853726 21.690377 
L 30.744206 21.825956 
L 30.634686 21.961535 
L 30.525166 22.097114 
L 30.415645 22.232692 
L 30.306125 22.368271 
L 30.196605 22.50385 
L 30.087085 22.639429 
L 29.977565 22.775008 
L 29.827642 22.930134 
L 29.677719 23.08526 
L 29.527795 23.240387 
L 29.377872 23.395513 
L 29.227949 23.550639 
L 29.078025 23.705766 
L 28.928102 23.860892 
L 28.778179 24.016018 
L 28.628255 24.171145 
L 28.478332 24.326271 
L 28.328409 24.481398 
L 28.178485 24.636524 
L 28.028562 24.79165 
L 27.878639 24.946777 
L 27.728716 25.101903 
L 27.578792 25.257029 
L 27.434082 25.393894 
L 27.289371 25.530758 
L 27.144661 25.667622 
L 26.999951 25.804486 
L 26.85524 25.94135 
L 26.71053 26.078215 
L 26.56582 26.215079 
L 26.421109 26.351943 
L 26.276399 26.488807 
L 26.131688 26.625671 
L 25.986978 26.762536 
L 25.842268 26.8994 
L 25.697557 27.036264 
L 25.552847 27.173128 
L 25.408137 27.309993 
L 25.263426 27.446857 
L 25.018334 27.665846 
L 24.773241 27.884835 
L 24.528148 28.103824 
L 24.283056 28.322813 
L 24.037963 28.541802 
L 23.79287 28.760791 
L 23.547778 28.97978 
L 23.302685 29.198769 
" style="fill:none;stroke:#4169e1;stroke-linecap:square;stroke-width:0.4;"/>
   </g>
   <g id="line2d_19">
    <path clip-path="url(#p9237aced0b)" d="M 21.091723 64.337836 
L 20.943088 64.489012 
L 20.794453 64.640188 
L 20.645817 64.791365 
L 20.497182 64.942541 
L 20.348547 65.093717 
L 20.199912 65.244893 
L 20.051276 65.396069 
L 19.902641 65.547245 
L 19.746205 65.648886 
L 19.589768 65.750527 
L 19.433332 65.852168 
L 19.276895 65.953809 
L 19.120459 66.05545 
L 18.964023 66.157091 
L 18.807586 66.258732 
L 18.65115 66.360373 
L 18.492089 66.430757 
L 18.333027 66.50114 
L 18.173966 66.571524 
L 18.014905 66.641908 
L 17.855844 66.712292 
L 17.696783 66.782675 
L 17.537722 66.853059 
L 17.378661 66.923443 
L 17.201373 66.96514 
L 17.024084 67.006837 
L 16.846796 67.048535 
L 16.669508 67.090232 
L 16.49222 67.131929 
L 16.314932 67.173626 
L 16.137644 67.215324 
L 15.960356 67.257021 
L 15.835148 67.277838 
" style="fill:none;stroke:#4169e1;stroke-linecap:square;stroke-width:0.4;"/>
   </g>
   <g id="line2d_20">
    <path clip-path="url(#p9237aced0b)" d="M 19.798431 63.816401 
L 19.532475 64.018413 
L 19.266518 64.220426 
L 19.000562 64.422438 
L 18.734605 64.62445 
L 18.468649 64.826462 
L 18.202692 65.028475 
L 17.936736 65.230487 
L 17.670779 65.432499 
L 17.404823 65.634511 
L 17.138866 65.836524 
L 16.87291 66.038536 
L 16.606953 66.240548 
L 16.340997 66.442561 
L 16.07504 66.644573 
L 15.809084 66.846585 
L 15.543127 67.048597 
" style="fill:none;stroke:#4169e1;stroke-linecap:square;stroke-width:0.4;"/>
   </g>
   <g id="line2d_21">
    <path clip-path="url(#p9237aced0b)" d="M 22.593435 57.74854 
L 22.403097 57.964864 
L 22.212758 58.181188 
L 22.022419 58.397513 
L 21.83208 58.613837 
L 21.641742 58.830161 
L 21.451403 59.046485 
L 21.261064 59.262809 
L 21.070726 59.479133 
L 20.99772 59.661598 
L 20.924715 59.844063 
L 20.85171 60.026527 
L 20.778705 60.208992 
L 20.713525 60.388855 
L 20.648345 60.568717 
L 20.583165 60.74858 
L 20.517985 60.928442 
L 20.452805 61.108305 
L 20.387626 61.288167 
L 20.322446 61.46803 
L 20.257266 61.647893 
L 20.194711 61.934632 
L 20.132156 62.221371 
L 20.069601 62.50811 
L 20.007045 62.794849 
L 19.954892 63.050237 
L 19.902738 63.305625 
L 19.850585 63.561013 
L 19.798431 63.816401 
" style="fill:none;stroke:#008000;stroke-linecap:square;stroke-width:0.4;"/>
   </g>
   <g id="line2d_22">
    <path clip-path="url(#p9237aced0b)" d="M 42.493063 10.927969 
L 42.336651 11.027039 
L 42.180239 11.126109 
L 42.023826 11.225179 
L 41.867414 11.324249 
L 41.695327 11.392031 
L 41.52324 11.459812 
L 41.351152 11.527594 
L 41.179065 11.595376 
L 41.006977 11.663157 
L 40.83489 11.730939 
L 40.662803 11.79872 
L 40.490715 11.866502 
L 40.222146 11.861298 
L 39.953577 11.856093 
L 39.685008 11.850889 
L 39.416439 11.845685 
L 39.14787 11.84048 
L 38.879301 11.835276 
L 38.610732 11.830072 
L 38.342163 11.824867 
L 38.117922 11.835276 
L 37.893681 11.845685 
L 37.66944 11.856093 
L 37.445199 11.866502 
L 37.220958 11.876911 
L 36.996717 11.887319 
L 36.772476 11.897728 
L 36.548235 11.908136 
L 36.250989 12.041129 
L 35.953743 12.174121 
L 35.656497 12.307113 
L 35.359251 12.440106 
L 35.062004 12.573098 
L 34.764758 12.70609 
L 34.467512 12.839083 
L 34.170266 12.972075 
L 33.940824 13.037254 
L 33.711382 13.102434 
L 33.48194 13.167613 
L 33.252499 13.232793 
L 33.023057 13.297972 
L 32.793615 13.363151 
L 32.564174 13.428331 
L 32.334732 13.49351 
L 32.175683 13.559991 
L 32.016634 13.626471 
L 31.857585 13.692952 
L 31.698536 13.759432 
L 31.539487 13.825913 
L 31.380438 13.892393 
L 31.221389 13.958874 
L 31.06234 14.025354 
L 30.903291 14.091835 
L 30.744242 14.158315 
L 30.585193 14.224796 
L 30.426144 14.291276 
L 30.267095 14.357757 
L 30.108046 14.424237 
L 29.948997 14.490718 
L 29.789948 14.557198 
L 29.544856 14.632817 
L 29.299763 14.708437 
L 29.05467 14.784056 
L 28.809578 14.859676 
L 28.564485 14.935295 
L 28.319392 15.010914 
L 28.0743 15.086534 
L 27.829207 15.162153 
" style="fill:none;stroke:#4169e1;stroke-linecap:square;stroke-width:0.4;"/>
   </g>
   <g id="line2d_23">
    <path clip-path="url(#p9237aced0b)" d="M 27.829207 15.162153 
L 27.640169 15.212989 
L 27.45113 15.263826 
L 27.262092 15.314662 
L 27.073053 15.365498 
L 26.884015 15.416334 
L 26.694976 15.46717 
L 26.505938 15.518006 
L 26.316899 15.568843 
L 26.127861 15.619679 
L 25.938822 15.670515 
L 25.749784 15.721351 
L 25.560745 15.772187 
L 25.371707 15.823024 
L 25.182668 15.87386 
L 24.99363 15.924696 
L 24.804591 15.975532 
L 24.633804 16.049835 
L 24.463017 16.124137 
L 24.29223 16.19844 
L 24.121443 16.272743 
L 23.950655 16.347045 
L 23.779868 16.421348 
L 23.609081 16.495651 
L 23.438294 16.569953 
L 23.267507 16.644256 
L 23.09672 16.718558 
L 22.925932 16.792861 
L 22.755145 16.867164 
L 22.584358 16.941466 
L 22.413571 17.015769 
L 22.242784 17.090072 
L 22.071997 17.164374 
L 21.885571 17.267363 
L 21.699145 17.370353 
L 21.512719 17.473342 
L 21.326293 17.576331 
L 21.139867 17.67932 
L 20.953441 17.782309 
L 20.767015 17.885298 
L 20.580589 17.988287 
L 20.394163 18.091276 
L 20.207737 18.194265 
L 20.021311 18.297254 
L 19.834885 18.400244 
L 19.648459 18.503233 
L 19.462033 18.606222 
L 19.275607 18.709211 
L 19.089181 18.8122 
L 18.802361 18.989492 
L 18.515541 19.166783 
L 18.22872 19.344075 
L 17.9419 19.521367 
L 17.65508 19.698659 
L 17.368259 19.87595 
L 17.081439 20.053242 
L 16.794618 20.230534 
L 16.657734 20.343932 
L 16.520849 20.457329 
L 16.383964 20.570727 
L 16.247079 20.684125 
L 16.110194 20.797523 
L 15.973309 20.91092 
L 15.836424 21.024318 
L 15.699539 21.137716 
L 15.562654 21.251114 
L 15.425769 21.364511 
L 15.288884 21.477909 
L 15.151999 21.591307 
L 15.015115 21.704705 
L 14.87823 21.818102 
L 14.741345 21.9315 
L 14.60446 22.044898 
L 14.414121 22.258683 
L 14.223782 22.472467 
L 14.033444 22.686252 
L 13.843105 22.900037 
L 13.652766 23.113821 
L 13.462428 23.327606 
L 13.272089 23.541391 
L 13.08175 23.755175 
L 12.886187 24.002851 
L 12.690623 24.250526 
L 12.495059 24.498202 
L 12.299495 24.745877 
L 12.103932 24.993553 
L 11.908368 25.241228 
L 11.712804 25.488904 
L 11.51724 25.736579 
L 11.381656 25.973815 
L 11.246071 26.21105 
L 11.110486 26.448286 
L 10.974901 26.685521 
L 10.839317 26.922757 
L 10.703732 27.159992 
L 10.568147 27.397228 
L 10.432562 27.634463 
L 10.334671 27.937442 
L 10.23678 28.240421 
L 10.138889 28.543401 
L 10.040997 28.84638 
L 9.943106 29.149359 
L 9.845215 29.452338 
L 9.747324 29.755318 
L 9.649433 30.058297 
L 9.589696 30.354379 
L 9.52996 30.650461 
L 9.470224 30.946543 
L 9.410488 31.242624 
" style="fill:none;stroke:#000000;stroke-linecap:square;stroke-width:0.4;"/>
   </g>
   <g id="line2d_24">
    <path clip-path="url(#p9237aced0b)" d="M 22.071997 17.164374 
L 21.949462 17.383395 
L 21.826928 17.602415 
L 21.704394 17.821435 
L 21.58186 18.040456 
L 21.459326 18.259476 
L 21.336792 18.478496 
L 21.214257 18.697517 
L 21.091723 18.916537 
L 20.958739 19.119882 
L 20.825755 19.323227 
L 20.69277 19.526571 
L 20.559786 19.729916 
L 20.426802 19.933261 
L 20.293817 20.136605 
L 20.160833 20.33995 
L 20.027849 20.543295 
L 19.853161 20.736231 
L 19.678473 20.929167 
L 19.503785 21.122103 
L 19.329098 21.315039 
L 19.15441 21.507975 
L 18.979722 21.700911 
L 18.805034 21.893847 
L 18.630347 22.086783 
L 18.46346 22.243195 
L 18.296573 22.399607 
L 18.129687 22.556019 
L 17.9628 22.71243 
L 17.795914 22.868842 
L 17.629027 23.025254 
L 17.46214 23.181666 
L 17.295254 23.338077 
L 17.125767 23.531013 
L 16.95628 23.723949 
L 16.786793 23.916886 
L 16.617306 24.109822 
L 16.447819 24.302758 
L 16.278332 24.495694 
L 16.108845 24.68863 
L 15.939358 24.881566 
L 15.806398 25.069266 
L 15.673438 25.256967 
L 15.540478 25.444667 
L 15.407518 25.632367 
L 15.274558 25.820068 
L 15.141598 26.007768 
L 15.008638 26.195469 
L 14.875678 26.383169 
L 14.776596 26.542214 
L 14.677514 26.701259 
L 14.578432 26.860305 
L 14.47935 27.01935 
L 14.380267 27.178395 
L 14.281185 27.337441 
L 14.182103 27.496486 
L 14.083021 27.655531 
L 14.023042 27.832792 
L 13.963063 28.010052 
L 13.903084 28.187312 
L 13.843105 28.364573 
L 13.783126 28.541833 
L 13.723147 28.719094 
L 13.663168 28.896354 
L 13.603189 29.073614 
L 13.405025 29.334332 
L 13.206861 29.59505 
L 13.008696 29.855767 
L 12.810532 30.116485 
L 12.539363 30.231199 
L 12.268193 30.345914 
L 11.997024 30.460628 
L 11.725855 30.575343 
L 11.454685 30.690057 
L 11.183516 30.804772 
L 10.912346 30.919486 
L 10.641177 31.034201 
L 10.333505 31.086307 
L 10.025833 31.138413 
L 9.718161 31.190519 
L 9.410488 31.242624 
" style="fill:none;stroke:#4169e1;stroke-linecap:square;stroke-width:0.4;"/>
   </g>
   <g id="line2d_25">
    <path clip-path="url(#p9237aced0b)" d="M 3.800066 33.651409 
L 4.075318 33.809044 
L 4.350571 33.966678 
L 4.625823 34.124313 
L 4.901075 34.281947 
L 5.09399 34.330166 
L 5.286905 34.378384 
L 5.47982 34.426602 
L 5.672734 34.474821 
L 5.984344 34.524356 
L 6.295953 34.573891 
L 6.607562 34.623426 
L 6.919171 34.672961 
L 7.041705 34.815704 
L 7.164239 34.958446 
L 7.286773 35.101189 
L 7.409308 35.243931 
L 7.531842 35.386674 
L 7.654376 35.529417 
L 7.77691 35.672159 
L 7.899444 35.814902 
L 8.113259 36.072986 
L 8.327074 36.33107 
L 8.54089 36.589154 
L 8.754705 36.847238 
L 8.937218 37.123569 
L 9.119731 37.399899 
L 9.302244 37.67623 
L 9.484757 37.952561 
L 9.522572 38.257546 
L 9.560387 38.562532 
L 9.598202 38.867518 
L 9.636017 39.172503 
L 9.746011 39.307471 
L 9.856005 39.442438 
L 9.965999 39.577406 
L 10.075993 39.712373 
L 10.185987 39.847341 
L 10.295981 39.982308 
L 10.405975 40.117276 
L 10.515969 40.252243 
L 10.529336 40.548011 
L 10.542702 40.84378 
L 10.556069 41.139548 
L 10.569435 41.435317 
L 10.77805 41.589064 
L 10.986664 41.74281 
L 11.195278 41.896557 
L 11.403892 42.050304 
L 11.466496 42.321431 
L 11.5291 42.592557 
L 11.460566 42.798723 
L 11.392033 43.004889 
L 11.348093 43.220837 
L 11.304154 43.436785 
L 11.410697 43.596301 
L 11.51724 43.755816 
L 11.718369 43.858022 
L 11.919498 43.960227 
L 12.120627 44.062432 
L 12.321757 44.164638 
L 12.402247 44.364785 
L 12.482738 44.564931 
L 12.563228 44.765078 
L 12.643719 44.965225 
L 12.69281 45.258799 
L 12.741901 45.552373 
L 12.790993 45.845947 
L 12.840084 46.13952 
L 12.993046 46.249375 
L 13.146007 46.35923 
L 13.298968 46.469086 
L 13.451929 46.578941 
L 13.60489 46.688796 
L 13.757851 46.798651 
L 13.910812 46.908506 
L 14.063774 47.018361 
L 14.162856 47.180071 
L 14.261938 47.341781 
L 14.36102 47.503491 
L 14.460102 47.665201 
L 14.559184 47.826911 
L 14.658266 47.988622 
L 14.757348 48.150332 
L 14.85643 48.312042 
L 14.840585 48.540154 
L 14.824739 48.768266 
L 14.808894 48.996379 
L 14.793049 49.224491 
L 14.777203 49.452603 
L 14.761358 49.680715 
L 14.745513 49.908828 
L 14.729667 50.13694 
L 14.634109 50.391638 
L 14.538551 50.646336 
L 14.442993 50.901034 
L 14.347435 51.155732 
L 14.422433 51.327789 
L 14.497431 51.499845 
L 14.572429 51.671901 
L 14.647427 51.843957 
L 14.881462 51.819691 
L 15.115497 51.795425 
L 15.349532 51.771159 
L 15.583567 51.746893 
L 15.758886 51.87675 
L 15.934206 52.006607 
L 16.109526 52.136465 
L 16.284845 52.266322 
L 16.440091 52.433236 
L 16.595336 52.600151 
L 16.750582 52.767065 
L 16.905828 52.93398 
L 17.132572 52.988594 
L 17.359316 53.043208 
L 17.58606 53.097822 
L 17.812804 53.152436 
L 17.997942 53.266993 
L 18.18308 53.381551 
L 18.368218 53.496109 
L 18.553356 53.610667 
L 18.561327 53.609162 
" style="fill:none;stroke:#4169e1;stroke-linecap:square;stroke-width:0.4;"/>
   </g>
   <g id="line2d_26">
    <path clip-path="url(#p9237aced0b)" d="M 19.381203 55.371357 
L 19.498536 55.108069 
L 19.615869 54.84478 
L 19.733203 54.581492 
L 19.850536 54.318203 
L 19.96787 54.054915 
L 20.085203 53.791627 
L 20.202536 53.528338 
L 20.31987 53.26505 
L 20.325071 53.059134 
L 20.330271 52.853219 
L 20.335472 52.647303 
L 20.340673 52.441388 
L 20.345874 52.235472 
L 20.351074 52.029557 
L 20.356275 51.823641 
L 20.361476 51.617726 
L 20.306722 51.427423 
L 20.251968 51.237121 
L 20.197214 51.046818 
L 20.14246 50.856515 
L 20.087706 50.666213 
L 20.032952 50.47591 
L 19.978198 50.285608 
L 19.923444 50.095305 
L 19.751381 49.907636 
L 19.579318 49.719967 
L 19.407255 49.532298 
L 19.235192 49.344629 
L 19.021377 49.099587 
L 18.807562 48.854545 
L 18.593747 48.609503 
L 18.379932 48.364461 
L 18.338228 48.109011 
L 18.296525 47.85356 
L 18.254821 47.598109 
L 18.213118 47.342659 
L 18.252221 47.170603 
L 18.291324 46.998547 
L 18.330427 46.826491 
L 18.36953 46.654435 
L 18.408633 46.482378 
L 18.447736 46.310322 
L 18.486839 46.138266 
L 18.525942 45.96621 
L 18.591122 45.773306 
L 18.656302 45.580401 
L 18.721482 45.387496 
L 18.786661 45.194591 
L 18.851841 45.001687 
L 18.917021 44.808782 
L 18.982201 44.615877 
L 19.047381 44.422973 
L 19.109985 44.188402 
L 19.172588 43.953831 
L 19.235192 43.719261 
L 19.297796 43.48469 
L 19.422955 43.20836 
L 19.548113 42.932029 
L 19.673272 42.655698 
L 19.798431 42.379368 
L 19.986145 42.123917 
L 20.173859 41.868467 
L 20.361573 41.613016 
L 20.549287 41.357565 
L 20.7266 41.102052 
L 20.903912 40.846539 
L 21.081224 40.591025 
L 21.258537 40.335512 
L 21.446251 40.069653 
L 21.633965 39.803794 
L 21.821679 39.537934 
L 22.009393 39.272075 
L 21.998991 39.052992 
L 21.98859 38.833909 
L 22.035543 38.578458 
L 22.082495 38.323008 
L 22.129448 38.067557 
L 22.176401 37.812107 
L 22.358914 37.577473 
L 22.541427 37.34284 
L 22.723941 37.108207 
L 22.906454 36.873573 
L 23.028988 36.730204 
L 23.151522 36.586834 
L 23.274056 36.443465 
L 23.396591 36.300095 
L 23.519125 36.156725 
L 23.641659 36.013356 
L 23.764193 35.869986 
L 23.886727 35.726616 
L 24.06404 35.507659 
L 24.241352 35.288701 
L 24.418665 35.069743 
L 24.595977 34.850786 
L 24.726337 34.569188 
L 24.856696 34.287591 
L 24.987056 34.005993 
L 25.117416 33.724395 
L 25.127817 33.547198 
L 25.138219 33.37 
" style="fill:none;stroke:#008000;stroke-linecap:square;stroke-width:0.4;"/>
   </g>
   <g id="line2d_27">
    <path clip-path="url(#p9237aced0b)" d="M 11.642448 33.661944 
L 11.663299 33.93307 
L 11.684151 34.204196 
L 11.705003 34.475322 
L 11.725855 34.746449 
L 11.725855 34.975815 
L 11.725855 35.205181 
L 11.681526 35.421568 
L 11.637198 35.637955 
L 11.59287 35.854342 
L 11.548542 36.070729 
L 11.504214 36.287115 
L 11.459886 36.503502 
L 11.415558 36.719889 
L 11.37123 36.936276 
L 11.389481 37.168276 
L 11.407732 37.400276 
L 11.425984 37.632275 
L 11.444235 37.864275 
L 11.462486 38.096275 
L 11.480738 38.328275 
L 11.498989 38.560275 
L 11.51724 38.792274 
L 11.574595 39.021703 
L 11.631949 39.251132 
L 11.689303 39.480561 
L 11.746658 39.70999 
" style="fill:none;stroke:#008000;stroke-linecap:square;stroke-width:0.4;"/>
   </g>
   <g id="line2d_28">
    <path clip-path="url(#p9237aced0b)" d="M 43.953363 25.865997 
L 43.849056 26.020246 
L 43.744749 26.174495 
L 43.632616 26.336142 
L 43.520483 26.497789 
L 43.408351 26.659437 
L 43.296218 26.821084 
L 43.184086 26.982732 
L 43.071953 27.144379 
L 42.95982 27.306027 
L 42.847688 27.467674 
L 42.826836 27.643649 
L 42.805984 27.819624 
L 42.785133 27.995599 
L 42.764281 28.171574 
L 42.743429 28.347549 
L 42.722577 28.523524 
L 42.701726 28.699499 
L 42.680874 28.875474 
L 42.660022 29.051449 
L 42.639171 29.227424 
L 42.618319 29.403399 
L 42.597467 29.579374 
L 42.576615 29.755349 
L 42.555764 29.931324 
L 42.534912 30.107299 
L 42.51406 30.283274 
L 42.43323 30.439686 
L 42.352399 30.596097 
L 42.271568 30.752509 
L 42.190737 30.908921 
L 42.109907 31.065333 
L 42.029076 31.221744 
L 41.948245 31.378156 
L 41.867414 31.534568 
L 41.768332 31.753557 
L 41.66925 31.972546 
L 41.570168 32.191535 
L 41.471086 32.410524 
L 41.372004 32.629513 
L 41.272922 32.848502 
L 41.17384 33.067491 
L 41.074758 33.28648 
L 40.936573 33.497663 
L 40.798387 33.708845 
L 40.660202 33.920028 
L 40.522017 34.13121 
L 40.383832 34.342393 
L 40.245647 34.553575 
L 40.107462 34.764758 
L 39.969277 34.97594 
L 39.80239 35.088021 
L 39.635504 35.200102 
L 39.468617 35.312183 
L 39.30173 35.424264 
L 39.134844 35.536345 
L 38.967957 35.648426 
L 38.801071 35.760507 
L 38.634184 35.872588 
L 38.498599 36.013356 
L 38.363015 36.154123 
L 38.22743 36.294891 
L 38.091845 36.435658 
L 37.956261 36.576425 
L 37.820676 36.717193 
L 37.685091 36.85796 
L 37.549506 36.998728 
L 37.410981 37.122064 
L 37.272456 37.2454 
L 37.13393 37.368736 
L 36.995405 37.492072 
L 36.836708 37.655538 
L 36.678012 37.819004 
L 36.519315 37.98247 
L 36.360619 38.145936 
L 36.224912 38.334796 
L 36.052849 38.573944 
L 35.880786 38.813092 
L 35.846884 39.039887 
L 35.812982 39.266683 
L 35.77908 39.493478 
L 35.745177 39.720274 
L 35.711275 39.947069 
L 35.677373 40.173865 
L 35.643471 40.40066 
L 35.609568 40.627456 
" style="fill:none;stroke:#000000;stroke-dasharray:1.48,0.64;stroke-dashoffset:0;stroke-width:0.4;"/>
   </g>
   <g id="line2d_29">
    <path clip-path="url(#p9237aced0b)" d="M 39.614652 12.304417 
L 39.484268 12.41653 
L 39.353884 12.528642 
L 39.2235 12.640754 
L 39.093116 12.752867 
L 38.962732 12.864979 
L 38.832348 12.977091 
L 38.701964 13.089204 
L 38.57158 13.201316 
L 38.415144 13.287375 
L 38.258708 13.373435 
L 38.102271 13.459494 
L 37.945835 13.545553 
L 37.789398 13.631613 
L 37.632962 13.717672 
L 37.476525 13.803732 
L 37.320089 13.889791 
L 37.291412 14.12966 
L 37.262735 14.369529 
L 37.234057 14.609398 
L 37.20538 14.849267 
L 37.176703 15.089136 
L 37.148026 15.329005 
L 37.119349 15.568874 
L 37.090672 15.808743 
L 36.962912 16.043376 
L 36.835153 16.27801 
L 36.707394 16.512643 
L 36.579635 16.747276 
L 36.451875 16.98191 
L 36.324116 17.216543 
L 36.196357 17.451176 
L 36.068598 17.68581 
L 35.922563 17.847457 
L 35.776528 18.009104 
L 35.630493 18.170752 
L 35.484458 18.332399 
L 35.338423 18.494047 
L 35.192388 18.655694 
L 35.046353 18.817342 
L 34.900318 18.978989 
L 34.806461 19.153679 
L 34.712604 19.328368 
L 34.618747 19.503058 
L 34.52489 19.677747 
L 34.431033 19.852437 
L 34.337177 20.027127 
L 34.24332 20.201816 
L 34.149463 20.376506 
L 34.058206 20.561604 
L 33.966949 20.746702 
L 33.875693 20.9318 
L 33.784436 21.116899 
L 33.693179 21.301997 
L 33.601923 21.487095 
L 33.510666 21.672193 
L 33.41941 21.857292 
L 33.221245 22.097129 
L 33.023081 22.336967 
L 32.824917 22.576804 
L 32.626753 22.816642 
L 32.428589 23.05648 
L 32.230425 23.296317 
L 32.032261 23.536155 
L 31.834096 23.775993 
L 31.664609 24.000217 
L 31.495122 24.224442 
L 31.325635 24.448667 
L 31.156149 24.672891 
L 30.986662 24.897116 
L 30.817175 25.121341 
L 30.647688 25.345565 
L 30.478201 25.56979 
L 30.372605 25.704052 
L 30.26701 25.838314 
L 30.161415 25.972576 
L 30.05582 26.106838 
L 29.950225 26.2411 
L 29.844629 26.375362 
L 29.739034 26.509625 
L 29.633439 26.643887 
L 29.527844 26.778149 
L 29.422249 26.912411 
L 29.316653 27.046673 
L 29.211058 27.180935 
L 29.105463 27.315197 
L 28.999868 27.449459 
L 28.894273 27.583721 
L 28.788677 27.717983 
L 28.595714 27.973496 
L 28.402751 28.22901 
L 28.209787 28.484523 
L 28.016824 28.740036 
" style="fill:none;stroke:#000000;stroke-linecap:square;stroke-width:0.4;"/>
   </g>
   <g id="line2d_30">
    <path clip-path="url(#p9237aced0b)" d="M 37.090672 15.808743 
L 37.168878 15.986003 
L 37.247084 16.163264 
L 37.32529 16.340524 
L 37.403496 16.517785 
L 37.465176 16.687019 
L 37.526856 16.856253 
L 37.588536 17.025488 
L 37.650217 17.194722 
L 37.711897 17.363957 
L 37.773577 17.533191 
L 37.835257 17.702426 
L 37.896938 17.87166 
L 37.958618 18.040895 
L 38.020298 18.210129 
L 38.081978 18.379364 
L 38.143659 18.548598 
L 38.205339 18.717832 
L 38.267019 18.887067 
L 38.328699 19.056301 
L 38.390379 19.225536 
L 38.548614 19.520615 
L 38.706849 19.815693 
L 38.865084 20.110772 
L 39.023319 20.405851 
L 39.181554 20.700929 
L 39.339788 20.996008 
L 39.498023 21.291087 
L 39.656258 21.586165 
L 39.694365 21.905447 
L 39.727514 22.183847 
L 39.760662 22.462247 
L 39.656355 22.657754 
L 39.552048 22.85326 
L 39.447741 23.048767 
L 39.343434 23.244274 
L 39.239127 23.439781 
L 39.13482 23.635288 
L 39.030512 23.830795 
L 38.926205 24.026302 
L 38.647162 24.181052 
L 38.368118 24.335802 
L 38.089075 24.490552 
L 37.810031 24.645302 
L 37.551937 24.600094 
L 37.293842 24.554885 
L 37.035747 24.509676 
L 36.777653 24.464468 
L 36.563886 24.500961 
L 36.35012 24.537454 
L 36.136353 24.573947 
L 35.922587 24.61044 
L 35.614623 24.676779 
L 35.306659 24.743118 
L 34.998696 24.809458 
L 34.690732 24.875797 
" style="fill:none;stroke:#4169e1;stroke-linecap:square;stroke-width:0.4;"/>
   </g>
   <g id="line2d_31">
    <path clip-path="url(#p9237aced0b)" d="M 38.390379 19.225536 
L 36.548235 20.230534 
L 35.492283 23.372094 
L 35.145241 24.27009 
L 34.002188 25.650504 
L 31.907102 27.613708 
L 30.201928 28.50534 
L 29.290917 28.823462 
L 26.369101 29.761839 
L 25.738009 30.830793 
L 25.232124 32.853832 
L 25.138219 33.37 
L 22.903805 34.480464 
L 21.941734 35.001836 
L 21.237734 35.580645 
L 20.353675 35.492046 
L 18.558265 34.825329 
L 16.794667 33.521239 
L 15.90898 32.40231 
L 15.692443 31.689569 
L 15.692443 31.689569 
" style="fill:none;stroke:#4169e1;stroke-linecap:square;stroke-width:0.4;"/>
   </g>
   <g id="line2d_32">
    <path clip-path="url(#p9237aced0b)" d="M 35.609568 40.627456 
L 35.531362 40.893378 
L 35.453156 41.1593 
L 35.37495 41.425222 
L 35.296744 41.691143 
L 35.103781 41.904897 
L 34.910817 42.11865 
L 34.717854 42.332403 
L 34.52489 42.546157 
L 34.428433 42.707773 
L 34.331976 42.869389 
L 34.235518 43.031005 
L 34.139061 43.192621 
L 34.042604 43.354237 
L 33.946146 43.515853 
L 33.849689 43.677469 
L 33.753231 43.839085 
L 33.698465 43.9994 
L 33.643699 44.159715 
L 33.588933 44.320031 
L 33.534167 44.480346 
L 33.479401 44.640661 
L 33.424635 44.800976 
L 33.369869 44.961291 
L 33.315102 45.121606 
L 33.260336 45.281921 
L 33.20557 45.442236 
L 33.150804 45.602551 
L 33.096038 45.762866 
L 33.041272 45.923181 
L 32.986506 46.083496 
L 32.93174 46.243811 
L 32.876974 46.404126 
L 32.746614 46.657005 
L 32.616254 46.909885 
L 32.485895 47.162765 
L 32.355535 47.415645 
L 32.225175 47.668525 
L 32.094816 47.921404 
L 31.964456 48.174284 
L 31.834096 48.427164 
L 31.721988 48.672175 
L 31.60988 48.917185 
L 31.497771 49.162196 
L 31.385663 49.407206 
L 31.273555 49.652217 
L 31.161447 49.897228 
L 31.049338 50.142238 
L 30.93723 50.387249 
L 30.733841 50.58796 
L 30.530451 50.788671 
L 30.327062 50.989382 
L 30.123673 51.190094 
L 29.920284 51.390805 
L 29.716894 51.591516 
L 29.513505 51.792227 
L 29.310116 51.992938 
L 29.067624 52.07116 
L 28.825132 52.149381 
L 28.582639 52.227603 
L 28.340147 52.305825 
L 28.097655 52.384046 
L 27.855162 52.462268 
L 27.61267 52.540489 
L 27.370178 52.618711 
L 27.112059 52.829831 
L 26.85394 53.04095 
L 26.595821 53.25207 
L 26.337702 53.46319 
L 26.079583 53.67431 
L 25.821465 53.88543 
L 25.563346 54.09655 
L 25.305227 54.307669 
L 25.13574 54.464081 
L 24.966253 54.620493 
L 24.796766 54.776905 
L 24.627279 54.933316 
L 24.457792 55.089728 
L 24.288305 55.24614 
L 24.118818 55.402552 
L 23.949331 55.558963 
L 23.805921 55.770083 
L 23.662511 55.981203 
L 23.5191 56.192323 
L 23.37569 56.403443 
L 23.23228 56.614563 
L 23.08887 56.825682 
L 22.94546 57.036802 
L 22.802049 57.247922 
L 22.697742 57.498231 
L 22.593435 57.74854 
" style="fill:none;stroke:#008000;stroke-linecap:square;stroke-width:0.4;"/>
   </g>
   <g id="line2d_33">
    <path clip-path="url(#p9237aced0b)" d="M 47.788911 12.778198 
L 47.632766 12.979725 
L 47.476621 13.181251 
L 47.320477 13.382777 
L 47.164332 13.584304 
L 47.008187 13.78583 
L 46.852042 13.987356 
L 46.695897 14.188883 
L 46.539753 14.390409 
L 46.495425 14.664169 
L 46.451096 14.937929 
L 46.406768 15.211688 
L 46.36244 15.485448 
L 46.318112 15.759208 
L 46.273784 16.032968 
L 46.229456 16.306727 
L 46.185128 16.580487 
L 46.176002 16.756462 
L 46.166876 16.932437 
L 46.157751 17.108412 
L 46.148625 17.284387 
L 46.139499 17.460362 
L 46.130374 17.636337 
L 46.121248 17.812312 
L 46.112122 17.988287 
L 46.102997 18.164262 
L 46.093871 18.340237 
L 46.084745 18.516212 
L 46.07562 18.692187 
L 46.066494 18.868162 
L 46.057369 19.044137 
L 46.048243 19.220112 
L 46.039117 19.396087 
L 45.997608 19.619465 
L 45.956099 19.842843 
L 45.91459 20.066222 
L 45.873081 20.2896 
L 45.831572 20.512978 
L 45.790063 20.736356 
L 45.748554 20.959734 
L 45.707045 21.183113 
L 45.654065 21.468033 
L 45.601085 21.752954 
L 45.721044 21.940686 
L 45.841002 22.128418 
L 45.96096 22.31615 
L 46.080918 22.503881 
L 46.047016 22.71243 
L 46.013113 22.920979 
L 45.979211 23.129528 
L 45.945309 23.338077 
L 45.911407 23.546626 
L 45.877504 23.755175 
L 45.843602 23.963724 
L 45.8097 24.172273 
L 45.789772 24.378628 
L 45.769843 24.584982 
L 45.749915 24.791337 
L 45.729987 24.997691 
L 45.707337 25.221163 
L 45.684687 25.444636 
L 45.755079 25.61409 
L 45.825472 25.783543 
L 45.895865 25.952997 
L 45.966258 26.122451 
L 46.03665 26.291905 
L 46.107043 26.461359 
L 46.177436 26.630813 
L 46.247829 26.800267 
L 46.318221 26.969721 
L 46.388614 27.139175 
L 46.459007 27.308629 
L 46.5294 27.478083 
L 46.599792 27.647537 
L 46.670185 27.81699 
L 46.740578 27.986444 
L 46.810971 28.155898 
L 46.884511 28.324631 
L 46.958051 28.493364 
L 47.031591 28.662097 
L 47.10513 28.83083 
L 47.201345 29.05148 
L 47.297559 29.272131 
L 47.393774 29.492782 
L 47.489988 29.713432 
L 47.586202 29.934083 
L 47.682417 30.154733 
L 47.778631 30.375384 
L 47.874845 30.596035 
L 47.918371 30.76773 
L 47.961898 30.939426 
L 48.005424 31.111121 
L 48.04895 31.282817 
L 48.092476 31.454512 
L 48.136002 31.626208 
L 48.179528 31.797903 
L 48.223054 31.969599 
L 48.26658 32.141295 
L 48.310107 32.31299 
L 48.353633 32.484686 
L 48.397159 32.656381 
L 48.440685 32.828077 
L 48.484211 32.999772 
L 48.527737 33.171468 
L 48.571263 33.343163 
" style="fill:none;stroke:#4169e1;stroke-linecap:square;stroke-width:0.4;"/>
   </g>
   <g id="line2d_34">
    <path clip-path="url(#p9237aced0b)" d="M 43.953363 25.865997 
L 44.177531 25.908008 
L 44.401699 25.950019 
L 44.625867 25.99203 
L 44.850035 26.034041 
L 44.996532 26.140384 
L 45.143028 26.246728 
L 45.17365 26.436215 
L 45.204271 26.625703 
L 45.184659 26.809829 
L 45.165047 26.993955 
L 45.145434 27.178082 
L 45.125822 27.362208 
L 45.10621 27.546334 
L 45.086597 27.730461 
L 45.066985 27.914587 
L 45.047373 28.098713 
L 45.014224 28.30488 
L 44.981075 28.511046 
L 44.947926 28.717212 
L 44.914777 28.923379 
L 44.960685 29.121739 
L 45.006593 29.320098 
L 45.052501 29.518458 
L 45.098409 29.716818 
L 45.144316 29.915178 
L 45.190224 30.113538 
L 45.236132 30.311898 
L 45.28204 30.510257 
L 45.327948 30.708617 
L 45.373855 30.906977 
L 45.419763 31.105337 
L 45.465671 31.303697 
L 45.511579 31.502057 
L 45.557486 31.700416 
L 45.603394 31.898776 
L 45.649302 32.097136 
L 45.707944 32.42413 
L 45.766587 32.751125 
L 45.825229 33.078119 
L 45.883872 33.405113 
L 45.942514 33.732108 
L 46.001156 34.059102 
L 46.059799 34.386096 
L 46.118441 34.713091 
L 46.257161 34.832351 
L 46.395881 34.951612 
" style="fill:none;stroke:#008000;stroke-linecap:square;stroke-width:0.4;"/>
   </g>
   <g id="line2d_35">
    <path clip-path="url(#p9237aced0b)" d="M 42.764281 11.991656 
L 42.620871 12.234128 
L 42.47746 12.476599 
L 42.33405 12.71907 
L 42.19064 12.961541 
L 42.04723 13.204012 
L 41.90382 13.446483 
L 41.76041 13.688954 
L 41.616999 13.931426 
L 41.51923 14.11132 
L 41.42146 14.291213 
L 41.32369 14.471107 
L 41.22592 14.651001 
L 41.128151 14.830895 
L 41.030381 15.010789 
L 40.932611 15.190683 
L 40.834841 15.370577 
L 40.737072 15.550471 
L 40.639302 15.730365 
L 40.541532 15.910259 
L 40.443763 16.090152 
L 40.345993 16.270046 
L 40.248223 16.44994 
L 40.150453 16.629834 
L 40.052684 16.809728 
L 39.932726 17.062639 
L 39.812767 17.31555 
L 39.692809 17.568462 
L 39.572851 17.821373 
L 39.452893 18.074284 
L 39.332935 18.327195 
L 39.212977 18.580106 
L 39.093019 18.833017 
L 38.917359 18.931147 
L 38.741699 19.029277 
L 38.566039 19.127406 
L 38.390379 19.225536 
" style="fill:none;stroke:#000000;stroke-linecap:square;stroke-width:0.4;"/>
   </g>
   <g id="line2d_36">
    <path clip-path="url(#p9237aced0b)" d="M 9.484757 37.952561 
L 9.624109 38.112264 
L 9.763461 38.271968 
L 9.902812 38.431672 
L 10.042164 38.591375 
L 10.181516 38.751079 
L 10.320867 38.910782 
L 10.460219 39.070486 
L 10.599571 39.23019 
L 10.886342 39.35014 
L 11.173114 39.47009 
L 11.459886 39.59004 
L 11.746658 39.70999 
L 12.046529 39.756892 
L 12.346399 39.803794 
L 12.64627 39.850695 
L 12.946141 39.897597 
L 13.246012 39.944498 
L 13.545883 39.9914 
L 13.845754 40.038302 
L 14.145625 40.085203 
L 14.356815 40.121727 
L 14.568006 40.158252 
L 14.779196 40.194776 
L 14.990387 40.2313 
L 15.201577 40.267825 
L 15.412767 40.304349 
L 15.623958 40.340873 
L 15.835148 40.377398 
L 16.085466 40.288736 
L 16.335784 40.200074 
L 16.586101 40.111413 
L 16.836419 40.022751 
L 17.086737 39.93409 
L 17.337055 39.845428 
L 17.587372 39.756767 
L 17.83769 39.668105 
L 18.022804 39.498683 
L 18.207917 39.32926 
L 18.393031 39.159837 
L 18.578144 38.990415 
L 18.763258 38.820992 
L 18.948372 38.65157 
L 19.133485 38.482147 
L 19.318599 38.312725 
L 19.521186 38.060284 
L 19.723773 37.807843 
L 19.832188 37.672813 
L 19.940602 37.537783 
L 20.049016 37.402752 
L 20.157431 37.267722 
L 20.265845 37.132692 
L 20.374259 36.997662 
L 20.482673 36.862632 
L 20.591088 36.727602 
L 20.752749 36.440862 
L 20.914411 36.154123 
L 21.076072 35.867384 
L 21.237734 35.580645 
" style="fill:none;stroke:#4169e1;stroke-linecap:square;stroke-width:0.4;"/>
   </g>
   <g id="line2d_37">
    <path clip-path="url(#p9237aced0b)" d="M 29.478874 28.766873 
L 29.296118 28.763518 
L 29.113361 28.760164 
L 28.930605 28.756809 
L 28.747849 28.753455 
L 28.565093 28.7501 
L 28.382336 28.746745 
L 28.19958 28.743391 
L 28.016824 28.740036 
L 27.810859 28.807818 
L 27.604893 28.875599 
L 27.398928 28.943381 
L 27.192963 29.011162 
L 26.986997 29.078944 
L 26.781032 29.146726 
L 26.575067 29.214507 
L 26.369101 29.282289 
L 26.14486 29.31618 
L 25.92062 29.35007 
L 25.696379 29.383961 
L 25.472138 29.417852 
L 25.247897 29.451743 
L 25.023656 29.485633 
L 24.799415 29.519524 
L 24.575174 29.553415 
L 24.257052 29.464753 
L 23.938929 29.376092 
L 23.620807 29.28743 
L 23.302685 29.198769 
L 23.122772 29.261346 
L 22.942859 29.323923 
L 22.762946 29.386501 
L 22.583034 29.449078 
L 22.403121 29.511655 
L 22.223208 29.574232 
L 22.043295 29.63681 
L 21.863382 29.699387 
L 21.581787 29.814101 
L 21.300192 29.928816 
L 21.018596 30.04353 
L 20.737001 30.158245 
L 20.455406 30.272959 
L 20.173811 30.387674 
L 19.892215 30.502388 
L 19.61062 30.617103 
L 19.448958 30.66924 
L 19.287297 30.721377 
L 19.125635 30.773515 
L 18.963974 30.825652 
L 18.802312 30.877789 
L 18.640651 30.929926 
L 18.478989 30.982064 
L 18.317328 31.034201 
L 18.155666 31.086338 
L 17.994005 31.138475 
L 17.832343 31.190613 
L 17.670682 31.24275 
L 17.50902 31.294887 
L 17.347359 31.347024 
L 17.185697 31.399162 
L 17.024036 31.451299 
L 16.854573 31.469545 
L 16.68511 31.487792 
L 16.515648 31.506038 
L 16.346185 31.524285 
L 16.176722 31.542531 
L 16.00726 31.560778 
L 15.837797 31.579024 
L 15.668334 31.597271 
L 15.462831 31.508233 
L 15.257327 31.419195 
L 15.051824 31.330157 
L 14.84632 31.24112 
L 14.631484 31.148069 
L 14.416649 31.055018 
L 14.280991 31.157944 
L 14.145333 31.260871 
L 14.009676 31.363797 
L 13.874018 31.466724 
L 13.73836 31.56965 
L 13.602703 31.672577 
L 13.467045 31.775503 
L 13.331388 31.878429 
L 13.206958 31.972734 
L 13.011394 32.183885 
L 12.81583 32.395036 
L 12.620267 32.606188 
L 12.424703 32.817339 
L 12.229139 33.02849 
L 12.033575 33.239641 
L 11.838011 33.450792 
L 11.642448 33.661944 
L 11.334776 33.693232 
L 11.027104 33.724521 
L 10.719431 33.755809 
L 10.411759 33.787098 
L 10.104087 33.818387 
L 9.796415 33.849675 
L 9.488743 33.880964 
L 9.181071 33.912253 
L 8.902076 33.880964 
L 8.623081 33.849675 
L 8.344086 33.818387 
L 8.065091 33.787098 
L 7.786097 33.755809 
L 7.507102 33.724521 
L 7.228107 33.693232 
L 6.949112 33.661944 
L 6.70154 33.631047 
L 6.453969 33.60015 
L 6.206397 33.569253 
L 5.958826 33.538357 
L 5.711254 33.50746 
L 5.463683 33.476563 
L 5.216111 33.445666 
L 4.96854 33.41477 
L 4.720968 33.383873 
L 4.473397 33.352976 
L 4.225825 33.322079 
L 3.978253 33.291183 
L 3.730682 33.260286 
L 3.48311 33.229389 
L 3.235539 33.198493 
L 2.987967 33.167596 
" style="fill:none;stroke:#4169e1;stroke-linecap:square;stroke-width:0.4;"/>
   </g>
   <g id="line2d_38">
    <path clip-path="url(#p9237aced0b)" d="M 9.410488 31.242624 
L 9.118467 31.372983 
L 8.826446 31.503342 
L 8.534425 31.633701 
L 8.242404 31.76406 
L 7.992086 31.842281 
L 7.741768 31.920503 
L 7.491451 31.998724 
L 7.241133 32.076946 
L 6.990815 32.155167 
L 6.740497 32.233389 
L 6.49018 32.311611 
L 6.239862 32.389832 
L 5.919164 32.452378 
L 5.598465 32.514924 
L 5.277767 32.57747 
L 4.957069 32.640016 
L 4.63637 32.702562 
L 4.315672 32.765108 
L 3.994974 32.827653 
L 3.674275 32.890199 
L 3.502698 32.959548 
L 3.331121 33.028898 
L 3.159544 33.098247 
L 2.987967 33.167596 
" style="fill:none;stroke:#008000;stroke-linecap:square;stroke-width:0.4;"/>
   </g>
   <g id="line2d_39">
    <path clip-path="url(#p9237aced0b)" d="M 18.561327 53.609162 
L 18.844502 53.554422 
L 19.127677 53.499683 
L 19.410852 53.444944 
L 19.694027 53.390204 
L 20.006948 53.327627 
L 20.31987 53.26505 
" style="fill:none;stroke:#008000;stroke-linecap:square;stroke-width:0.4;"/>
   </g>
   <g id="line2d_40">
    <path clip-path="url(#p9237aced0b)" d="M 33.014624 16.946169 
L 32.820494 17.060507 
L 32.626364 17.174846 
L 32.432234 17.289184 
L 32.238104 17.403522 
L 32.043974 17.517861 
L 31.849845 17.632199 
L 31.655715 17.746537 
L 31.461585 17.860875 
L 31.344251 18.019921 
L 31.226918 18.178966 
L 31.109585 18.338011 
L 30.992251 18.497056 
L 30.874918 18.656102 
L 30.757584 18.815147 
L 30.640251 18.974192 
L 30.522918 19.133238 
L 30.405584 19.292283 
L 30.288251 19.451328 
L 30.170917 19.610373 
L 30.053584 19.769419 
L 29.936251 19.928464 
L 29.818917 20.087509 
L 29.701584 20.246554 
L 29.58425 20.4056 
L 29.396536 20.5933 
L 29.208822 20.781001 
L 29.021108 20.968701 
L 28.833394 21.156401 
L 28.64568 21.344102 
L 28.457966 21.531802 
L 28.270252 21.719502 
L 28.082538 21.907203 
L 27.853072 22.115783 
L 27.623606 22.324364 
L 27.39414 22.532944 
L 27.164674 22.741524 
L 26.935208 22.950105 
L 26.705742 23.158685 
L 26.476276 23.367265 
L 26.24681 23.575846 
L 26.006943 23.763546 
L 25.767075 23.951247 
L 25.527208 24.138947 
L 25.28734 24.326647 
L 25.047472 24.514348 
L 24.807605 24.702048 
L 24.567737 24.889749 
L 24.32787 25.077449 
L 24.103629 25.171315 
L 23.879388 25.265181 
L 23.655147 25.359047 
L 23.430906 25.452912 
L 23.206665 25.546778 
L 22.982424 25.640644 
L 22.758183 25.73451 
L 22.533942 25.828376 
L 22.362232 25.866546 
L 22.190521 25.904716 
L 22.01881 25.942887 
L 21.8471 25.981057 
L 21.675389 26.019227 
L 21.503678 26.057397 
L 21.331967 26.095568 
L 21.160257 26.133738 
L 20.988546 26.171908 
L 20.816835 26.210078 
L 20.645125 26.248249 
L 20.473414 26.286419 
L 20.301703 26.324589 
L 20.129993 26.362759 
L 19.958282 26.400929 
L 19.786571 26.4391 
" style="fill:none;stroke:#000000;stroke-dasharray:1.48,0.64;stroke-dashoffset:0;stroke-width:0.4;"/>
   </g>
   <g id="line2d_41">
    <path clip-path="url(#p9237aced0b)" d="M 44.14409 11.645287 
L 44.24813 11.787089 
L 44.35217 11.928891 
L 44.45621 12.070693 
L 44.56025 12.212495 
L 44.66429 12.354297 
L 44.768329 12.496099 
L 44.872369 12.637901 
L 44.976409 12.779703 
L 45.01838 12.961196 
L 45.060351 13.142689 
L 45.102321 13.324182 
L 45.144292 13.505675 
L 45.186263 13.687167 
L 45.228234 13.86866 
L 45.270204 14.050153 
L 45.312175 14.231646 
L 45.23917 14.440258 
L 45.166164 14.648869 
L 45.093159 14.857481 
L 45.020154 15.066093 
L 44.968 15.378916 
L 44.915847 15.69174 
L 44.863693 16.004563 
L 44.81154 16.317387 
L 44.715034 16.507156 
L 44.618528 16.696926 
L 44.522022 16.886696 
L 44.425516 17.076465 
L 44.32901 17.266235 
L 44.232504 17.456004 
L 44.135998 17.645774 
L 44.039492 17.835543 
L 43.939608 18.133193 
L 43.839724 18.430842 
L 43.739839 18.728492 
L 43.639955 19.026141 
L 43.416273 19.254693 
L 43.192591 19.483244 
L 42.968909 19.711795 
L 42.745228 19.940346 
L 42.49768 20.092337 
L 42.250133 20.244329 
L 42.002586 20.39632 
L 41.755039 20.548311 
L 41.507491 20.700302 
L 41.259944 20.852293 
L 41.012397 21.004285 
L 40.76485 21.156276 
L 40.493243 21.34639 
L 40.293523 21.486155 
L 40.093804 21.625919 
L 39.894084 21.765683 
L 39.694365 21.905447 
" style="fill:none;stroke:#4169e1;stroke-linecap:square;stroke-width:0.4;"/>
   </g>
   <g id="line2d_42">
    <path clip-path="url(#p9237aced0b)" d="M 43.977082 12.479734 
L 44.10229 12.771677 
L 44.227497 13.063621 
L 44.14409 13.31393 
L 44.060684 13.564239 
L 43.945926 13.877125 
L 43.831169 14.190011 
L 43.716412 14.502898 
L 43.601654 14.815784 
L 43.586028 14.99828 
L 43.570401 15.180776 
L 43.554774 15.363272 
L 43.539148 15.545768 
L 43.523521 15.728264 
L 43.507895 15.91076 
L 43.492268 16.093256 
L 43.476641 16.275752 
L 43.343949 16.537285 
L 43.211256 16.798818 
L 43.078563 17.060351 
L 42.945871 17.321883 
L 42.90791 17.493563 
L 42.869949 17.665243 
L 42.831988 17.836923 
L 42.794027 18.008603 
L 42.756067 18.180283 
L 42.718106 18.351963 
L 42.680145 18.523642 
L 42.642184 18.695322 
L 42.43357 18.945569 
L 42.224955 19.195815 
L 42.016341 19.446061 
L 41.807727 19.696307 
L 41.643416 19.902568 
L 41.479106 20.108828 
L 41.314795 20.315088 
L 41.150485 20.521349 
L 40.986174 20.727609 
L 40.821864 20.93387 
L 40.657553 21.14013 
L 40.493243 21.34639 
" style="fill:none;stroke:#4169e1;stroke-linecap:square;stroke-width:0.4;"/>
   </g>
   <g id="line2d_43">
    <path clip-path="url(#p9237aced0b)" d="M 45.707045 21.183113 
L 45.579456 21.315353 
L 45.451867 21.447592 
L 45.324278 21.579832 
L 45.196689 21.712072 
L 45.0691 21.844312 
L 44.94151 21.976552 
L 44.813921 22.108792 
L 44.686332 22.241032 
L 44.488168 22.470461 
L 44.290004 22.69989 
L 44.09184 22.929319 
L 43.893676 23.158748 
L 43.711162 23.382941 
L 43.528649 23.607134 
L 43.346136 23.831328 
L 43.163623 24.055521 
L 42.981109 24.279714 
L 42.798596 24.503908 
L 42.616083 24.728101 
L 42.43357 24.952294 
L 42.183252 25.171315 
L 41.932934 25.390335 
L 41.682617 25.609356 
L 41.432299 25.828376 
L 41.347288 26.007204 
L 41.262277 26.186032 
L 41.177266 26.36486 
L 41.092256 26.543688 
L 41.007245 26.722516 
L 40.922234 26.901344 
L 40.837223 27.080172 
L 40.752212 27.259 
L 40.706864 27.450368 
L 40.661515 27.641737 
L 40.616166 27.833105 
L 40.570817 28.024474 
L 40.525468 28.215842 
L 40.480119 28.407211 
L 40.434771 28.598579 
L 40.389422 28.789948 
L 40.316416 28.988088 
L 40.243411 29.186228 
L 40.170406 29.384369 
L 40.097401 29.582509 
L 40.003519 29.759769 
L 39.909638 29.93703 
L 39.815757 30.11429 
L 39.721875 30.291551 
L 39.627994 30.468811 
L 39.534113 30.646071 
L 39.440231 30.823332 
L 39.34635 31.000592 
L 39.195139 31.130951 
L 39.043927 31.26131 
L 38.892716 31.391669 
L 38.741505 31.522027 
L 38.590293 31.652386 
L 38.439082 31.782745 
L 38.287871 31.913104 
L 38.136659 32.043463 
L 37.813336 32.137329 
L 37.490013 32.231194 
L 37.16669 32.32506 
L 36.843367 32.418926 
L 36.624351 32.606595 
L 36.405336 32.794264 
L 36.18632 32.981933 
L 35.967304 33.169602 
" style="fill:none;stroke:#4169e1;stroke-linecap:square;stroke-width:0.4;"/>
   </g>
   <g id="line2d_44">
    <path clip-path="url(#p9237aced0b)" d="M 34.28964 28.209572 
L 34.270976 28.396363 
L 34.252312 28.583154 
L 34.233647 28.769945 
L 34.214983 28.956737 
L 34.267136 29.196574 
L 34.31929 29.436412 
L 34.371443 29.676249 
L 34.423597 29.916087 
L 34.486201 30.145516 
L 34.548804 30.374945 
L 34.611408 30.604374 
L 34.674012 30.833803 
L 34.752218 30.985011 
L 34.830424 31.136218 
L 34.90863 31.287425 
L 34.986836 31.438633 
L 35.065042 31.58984 
L 35.143248 31.741048 
L 35.221454 31.892255 
L 35.29966 32.043463 
L 35.466571 32.324998 
L 35.633482 32.606533 
L 35.800393 32.888067 
L 35.967304 33.169602 
L 35.946452 33.346863 
L 35.9256 33.524123 
L 35.904749 33.701383 
L 35.883897 33.878644 
L 35.840687 34.21172 
L 35.797477 34.544797 
L 35.754266 34.877873 
L 35.711056 35.21095 
L 35.641915 35.36802 
L 35.572774 35.52509 
L 35.503633 35.68216 
L 35.434492 35.83923 
L 35.36535 35.996301 
L 35.296209 36.153371 
L 35.227068 36.310441 
L 35.157927 36.467511 
L 35.054422 36.71666 
L 34.950917 36.965809 
L 34.847412 37.214958 
L 34.743906 37.464107 
L 34.640401 37.713256 
L 34.536896 37.962405 
L 34.433391 38.211554 
L 34.329886 38.460703 
L 34.179549 38.641757 
L 34.029213 38.822811 
L 33.878876 39.003865 
L 33.72854 39.184918 
L 33.578203 39.365972 
L 33.427867 39.547026 
L 33.277531 39.72808 
L 33.127194 39.909134 
" style="fill:none;stroke:#008000;stroke-linecap:square;stroke-width:0.4;"/>
   </g>
   <g id="line2d_45">
    <path clip-path="url(#p9237aced0b)" d="M 32.968546 36.103836 
L 32.967282 36.326179 
L 32.966019 36.548523 
L 32.964755 36.756946 
L 32.963491 36.96537 
L 32.984343 37.236496 
L 33.005195 37.507623 
L 33.026046 37.778749 
L 33.046898 38.049875 
L 33.056935 38.282282 
L 33.066972 38.51469 
L 33.077009 38.747097 
L 33.087046 38.979505 
L 33.097083 39.211912 
L 33.10712 39.444319 
L 33.117157 39.676727 
L 33.127194 39.909134 
L 33.066243 40.168221 
L 33.005292 40.427309 
L 32.796677 40.677555 
L 32.588063 40.927801 
L 32.379449 41.178048 
L 32.170835 41.428294 
L 32.036368 41.542475 
L 31.901901 41.656657 
L 31.767434 41.770839 
L 31.632967 41.88502 
L 31.498501 41.999202 
L 31.364034 42.113383 
L 31.229567 42.227565 
L 31.0951 42.341746 
L 30.960633 42.455928 
L 30.826167 42.570109 
L 30.6917 42.684291 
L 30.557233 42.798472 
L 30.422766 42.912654 
L 30.288299 43.026835 
L 30.153833 43.141017 
L 30.019366 43.255198 
" style="fill:none;stroke:#4169e1;stroke-linecap:square;stroke-width:0.4;"/>
   </g>
   <g id="line2d_46">
    <path clip-path="url(#p9237aced0b)" d="M 32.966019 36.548523 
L 32.673366 36.715312 
L 32.380713 36.882101 
L 32.08806 37.04889 
L 31.795407 37.215679 
L 31.482509 37.304309 
L 31.169612 37.392939 
L 30.856715 37.48157 
L 30.543818 37.5702 
L 30.230921 37.65883 
L 29.918024 37.74746 
L 29.605126 37.83609 
L 29.292229 37.924721 
L 29.09929 38.028995 
L 28.906351 38.13327 
L 28.713412 38.237544 
L 28.520473 38.341819 
L 28.327534 38.446093 
L 28.134595 38.550368 
L 27.941656 38.654642 
L 27.748717 38.758917 
L 27.576629 38.915328 
L 27.404542 39.07174 
L 27.232455 39.228152 
L 27.060367 39.384564 
L 26.88828 39.540975 
L 26.716192 39.697387 
L 26.544105 39.853799 
L 26.372018 40.010211 
L 26.309463 40.177063 
L 26.246908 40.343914 
L 26.184352 40.510766 
L 26.121797 40.677618 
L 26.100897 41.011196 
L 26.079997 41.344774 
L 25.933986 41.553323 
L 25.787975 41.761872 
L 25.704569 42.074758 
L 25.621162 42.387645 
L 25.621162 42.596194 
L 25.621162 42.804743 
L 25.610736 42.992412 
L 25.60031 43.180081 
L 25.589884 43.36775 
L 25.579458 43.555419 
L 25.569033 43.743088 
L 25.558607 43.930757 
L 25.548181 44.118426 
L 25.537755 44.306095 
L 25.422998 44.618918 
L 25.30824 44.931742 
L 25.193483 45.244565 
L 25.078726 45.557389 
L 24.984869 45.880621 
L 24.891012 46.203853 
L 24.797155 46.527085 
L 24.703298 46.850318 
L 24.685508 47.149472 
L 24.667719 47.448626 
L 24.649929 47.747781 
L 24.632139 48.046935 
L 24.578455 48.267523 
L 24.52477 48.488111 
L 24.471085 48.708699 
L 24.417401 48.929287 
L 24.363716 49.149875 
L 24.310032 49.370463 
L 24.256347 49.591051 
L 24.202662 49.811638 
L 24.087929 50.072293 
L 23.973196 50.332948 
L 23.858463 50.593603 
L 23.74373 50.854258 
L 23.628997 51.114913 
L 23.514264 51.375568 
L 23.399531 51.636223 
L 23.284798 51.896878 
L 23.117936 52.147124 
L 22.951074 52.39737 
L 22.784211 52.647617 
L 22.617349 52.897863 
L 22.513066 53.059479 
L 22.408783 53.221095 
L 22.3045 53.382711 
L 22.200218 53.544327 
L 22.095935 53.705943 
L 21.991652 53.867559 
L 21.887369 54.029176 
L 21.783086 54.190792 
L 21.717177 54.369306 
L 21.651268 54.547821 
L 21.58536 54.726335 
L 21.519451 54.904849 
" style="fill:none;stroke:#4169e1;stroke-linecap:square;stroke-width:0.4;"/>
   </g>
   <g id="line2d_47">
    <path clip-path="url(#p9237aced0b)" d="M 29.292229 37.924721 
L 29.245301 38.2219 
L 29.198372 38.519079 
L 29.151444 38.816258 
L 29.104515 39.113437 
L 29.057587 39.410617 
L 29.010658 39.707796 
L 28.96373 40.004975 
L 28.916801 40.302154 
L 28.859447 40.46377 
L 28.802093 40.625386 
L 28.744738 40.787003 
L 28.687384 40.948619 
L 28.630029 41.110235 
L 28.572675 41.271851 
L 28.515321 41.433467 
L 28.457966 41.595083 
L 28.259802 41.855801 
L 28.061638 42.116518 
L 27.863474 42.377236 
L 27.66531 42.637953 
L 27.585633 42.90549 
L 27.505957 43.173027 
L 27.426281 43.440563 
L 27.346604 43.7081 
L 27.266928 43.975636 
L 27.187252 44.243173 
L 27.107575 44.510709 
L 27.027899 44.778246 
L 26.948222 45.045782 
L 26.868546 45.313319 
L 26.78887 45.580855 
L 26.709193 45.848392 
L 26.629517 46.115928 
L 26.549841 46.383465 
L 26.470164 46.651002 
L 26.390488 46.918538 
" style="fill:none;stroke:#4169e1;stroke-linecap:square;stroke-width:0.4;"/>
   </g>
   <g id="line2d_48">
    <path clip-path="url(#p9237aced0b)" d="M 26.03528 47.843026 
L 25.9213 48.105813 
L 25.80732 48.3686 
L 25.693341 48.631386 
L 25.579361 48.894173 
L 25.516806 49.14442 
L 25.454251 49.394666 
L 25.391696 49.644912 
L 25.329141 49.895158 
L 25.30824 50.176631 
L 25.28734 50.458103 
L 25.26644 50.739575 
L 25.245539 51.021047 
L 25.26644 51.281765 
L 25.28734 51.542482 
L 25.30824 51.8032 
L 25.329141 52.063918 
L 25.302651 52.288926 
L 25.276161 52.513935 
L 25.249671 52.738943 
L 25.223181 52.963952 
L 25.196691 53.18896 
L 25.170201 53.413968 
L 25.143711 53.638977 
L 25.117221 53.863985 
" style="fill:none;stroke:#008000;stroke-linecap:square;stroke-width:0.4;"/>
   </g>
   <g id="line2d_49">
    <path clip-path="url(#p9237aced0b)" d="M 19.381203 55.371357 
L 19.408033 55.618406 
L 19.434863 55.865454 
L 19.461693 56.112502 
L 19.488523 56.359551 
L 19.43637 56.552456 
L 19.384216 56.74536 
L 19.332063 56.938265 
L 19.279909 57.13117 
L 19.227755 57.324074 
L 19.175602 57.516979 
L 19.123448 57.709884 
L 19.071295 57.902789 
L 18.990901 58.167143 
L 18.910508 58.431497 
L 18.830115 58.695852 
L 18.749721 58.960206 
L 18.669328 59.22456 
L 18.588935 59.488915 
L 18.508541 59.753269 
L 18.428148 60.017624 
L 18.382301 60.187799 
L 18.336454 60.357974 
L 18.290607 60.528149 
L 18.24476 60.698324 
L 18.198913 60.868499 
L 18.153066 61.038674 
L 18.107219 61.208849 
L 18.061372 61.379024 
L 18.015525 61.549199 
L 17.969678 61.719374 
L 17.923831 61.889549 
L 17.877984 62.059724 
L 17.832137 62.229899 
L 17.78629 62.400074 
L 17.740443 62.570249 
L 17.694596 62.740424 
L 17.538159 62.975026 
L 17.381723 63.209628 
L 17.225286 63.444229 
L 17.06885 63.678831 
L 16.912414 63.913433 
L 16.755977 64.148035 
L 16.599541 64.382637 
L 16.443104 64.617239 
L 16.260542 64.864946 
L 16.077981 65.112653 
L 15.895419 65.36036 
L 15.712857 65.608067 
L 15.530295 65.855773 
L 15.347733 66.10348 
L 15.165172 66.351187 
L 14.98261 66.598894 
" style="fill:none;stroke:#4169e1;stroke-linecap:square;stroke-width:0.4;"/>
   </g>
   <g id="line2d_50">
    <path clip-path="url(#p9237aced0b)" d="M 14.982999 62.198171 
L 14.753533 62.375431 
L 14.524067 62.552692 
L 14.2946 62.729952 
L 14.065134 62.907213 
L 14.012981 63.10529 
L 13.960827 63.303368 
L 13.908674 63.501446 
L 13.85652 63.699523 
L 13.77829 63.902837 
L 13.700059 64.10615 
L 13.621829 64.309463 
L 13.543599 64.512777 
L 13.465368 64.71609 
L 13.387138 64.919403 
L 13.308908 65.122717 
L 13.230677 65.32603 
L 13.152471 65.638822 
L 13.074265 65.951614 
L 12.996059 66.264407 
L 12.917853 66.577199 
L 12.839647 66.889991 
L 12.761441 67.202783 
L 12.683235 67.515575 
L 12.605029 67.828368 
" style="fill:none;stroke:#008000;stroke-linecap:square;stroke-width:0.4;"/>
   </g>
  </g>
 </g>
 <defs>
  <clipPath id="p9237aced0b">
   <rect height="72" width="65.735283" x="0" y="0"/>
  </clipPath>
 </defs>
</svg>
