<?xml version="1.0" encoding="utf-8" standalone="no"?>
<!DOCTYPE svg PUBLIC "-//W3C//DTD SVG 1.1//EN"
  "http://www.w3.org/Graphics/SVG/1.1/DTD/svg11.dtd">
<svg xmlns:xlink="http://www.w3.org/1999/xlink" width="53.282395pt" height="72pt" viewBox="0 0 53.282395 72" xmlns="http://www.w3.org/2000/svg" version="1.1">
 <metadata>
  <rdf:RDF xmlns:dc="http://purl.org/dc/elements/1.1/" xmlns:cc="http://creativecommons.org/ns#" xmlns:rdf="http://www.w3.org/1999/02/22-rdf-syntax-ns#">
   <cc:Work>
    <dc:type rdf:resource="http://purl.org/dc/dcmitype/StillImage"/>
    <dc:date>2022-05-17T14:50:49.140613</dc:date>
    <dc:format>image/svg+xml</dc:format>
    <dc:creator>
     <cc:Agent>
      <dc:title>Matplotlib v3.5.2, https://matplotlib.org/</dc:title>
     </cc:Agent>
    </dc:creator>
   </cc:Work>
  </rdf:RDF>
 </metadata>
 <defs>
  <style type="text/css">*{stroke-linejoin: round; stroke-linecap: butt}</style>
 </defs>
 <g id="figure_1">
  <g id="patch_1">
   <path d="M 0 72 
L 53.282395 72 
L 53.282395 0 
L 0 0 
z
" style="fill: #ffffff"/>
  </g>
  <g id="axes_1">
   <g id="line2d_1">
    <path d="M 27.754064 3.815738 
L 28.718009 4.74224 
L 29.317733 5.318283 
L 29.964212 5.940247 
L 31.400894 7.320332 
L 33.023439 8.879877 
L 34.645984 10.439422 
L 36.268529 11.998966 
L 37.891075 13.558511 
L 39.223859 14.8395 
L 39.925172 15.513833 
L 42.528402 18.015388 
L 44.46726 19.878865 
L 46.586785 21.916364 
L 48.87197 24.111771 
L 50.047753 25.242103 
" clip-path="url(#pb6e6b429b6)" style="fill: none; stroke: #808080; stroke-width: 0.4; stroke-linecap: square"/>
   </g>
   <g id="line2d_2">
    <path d="M 45.557615 46.024751 
L 43.053666 43.606984 
L 41.077 41.697987 
L 39.100335 39.78899 
L 36.958876 37.721078 
L 34.817417 35.653166 
L 32.675957 33.585254 
L 30.534498 31.517342 
L 28.986125 30.022451 
L 27.437751 28.52756 
L 25.259062 26.423595 
L 23.080372 24.31963 
L 20.802402 22.119792 
L 18.524432 19.919954 
" clip-path="url(#pb6e6b429b6)" style="fill: none; stroke: #808080; stroke-width: 0.4; stroke-linecap: square"/>
   </g>
   <g id="line2d_3">
    <path d="M 32.196871 63.16665 
L 30.882846 65.946961 
L 29.568821 68.727273 
" clip-path="url(#pb6e6b429b6)" style="fill: none; stroke: #808080; stroke-width: 0.4; stroke-linecap: square"/>
   </g>
   <g id="line2d_4">
    <path d="M 33.886372 61.078395 
L 33.571214 60.122083 
L 33.028634 58.475327 
L 32.419675 56.628365 
L 31.810715 54.781404 
L 31.20291 52.936859 
L 30.595105 51.092315 
L 29.9873 49.24777 
L 29.379495 47.403225 
L 28.592177 45.013656 
L 27.783213 42.559231 
L 26.974249 40.104807 
L 26.28044 37.999633 
L 26.072066 37.368 
" clip-path="url(#pb6e6b429b6)" style="fill: none; stroke: #808080; stroke-width: 0.4; stroke-linecap: square"/>
   </g>
   <g id="line2d_5">
    <path d="M 44.026269 47.519239 
L 42.050758 45.664221 
L 40.075248 43.809203 
L 38.404505 42.239789 
L 36.733763 40.670376 
L 35.390012 39.40852 
L 34.04626 38.146665 
L 32.702509 36.884809 
L 31.358758 35.622954 
L 29.180934 33.577802 
L 27.00311 31.532649 
L 25.459499 30.082875 
L 23.915888 28.633101 
L 22.372276 27.183327 
L 20.828665 25.733552 
L 19.002941 24.019121 
" clip-path="url(#pb6e6b429b6)" style="fill: none; stroke: #808080; stroke-width: 0.4; stroke-linecap: square"/>
   </g>
   <g id="line2d_6">
    <path d="M 26.072066 37.368 
L 25.650123 36.972424 
L 25.116779 37.293075 
L 25.116779 37.986541 
L 25.116779 38.680008 
L 25.116779 39.373474 
L 25.116779 40.066941 
L 25.227892 40.88045 
L 25.339006 41.693959 
L 25.450119 42.507468 
L 25.561233 43.320977 
L 25.672346 44.134486 
L 25.783459 44.947995 
L 25.894573 45.761504 
L 26.005686 46.575013 
L 26.485855 47.49084 
L 26.966024 48.406667 
L 27.446193 49.322494 
L 27.926362 50.238321 
L 28.406531 51.154148 
L 28.8867 52.069976 
L 29.366868 52.985803 
L 29.847037 53.90163 
L 30.260538 54.768513 
L 30.674039 55.635397 
L 31.08754 56.50228 
L 31.501041 57.369164 
L 31.914541 58.236048 
L 32.328042 59.102931 
L 32.741543 59.969815 
L 33.155044 60.836698 
L 33.404111 61.441342 
L 33.653178 62.045985 
" clip-path="url(#pb6e6b429b6)" style="fill: none; stroke: #008000; stroke-width: 0.4; stroke-linecap: square"/>
   </g>
   <g id="line2d_7">
    <path d="M 25.650123 36.972424 
L 25.098885 36.616728 
L 24.547647 36.261032 
L 24.369865 35.62094 
L 24.192084 34.980848 
L 24.351972 34.411653 
L 24.51186 33.842459 
L 25.134384 33.949208 
L 25.756908 34.055957 
L 26.450429 34.411653 
L 27.14395 34.76735 
L 27.695188 35.389717 
L 28.246426 36.012085 
L 28.388709 36.758926 
L 28.530992 37.505767 
L 28.468798 38.092686 
L 28.406603 38.679605 
L 28.344408 39.266524 
L 28.282214 39.853443 
L 28.406747 40.484672 
L 28.531281 41.115902 
L 28.655815 41.747132 
L 28.780348 42.378362 
L 29.162607 43.027518 
L 29.544866 43.676673 
L 29.927126 44.325829 
L 30.309385 44.974984 
L 30.665092 45.44176 
L 31.0208 45.908536 
L 31.376507 46.375312 
L 31.732214 46.842087 
L 32.087922 47.308863 
L 32.443629 47.775639 
L 32.799336 48.242415 
L 33.155044 48.70919 
L 33.555196 49.109197 
L 33.955349 49.509205 
L 34.355502 49.909212 
L 34.755655 50.309219 
L 35.293617 50.469343 
L 35.831579 50.629466 
L 36.369542 50.78959 
L 36.907504 50.949714 
L 37.445466 51.109837 
L 37.983429 51.269961 
L 38.521391 51.430085 
L 39.059353 51.590209 
L 39.753019 52.105827 
L 40.446684 52.621446 
L 41.140349 53.137064 
L 41.834015 53.652683 
L 42.296362 54.106064 
L 42.75871 54.559446 
L 43.221057 55.012828 
L 43.683405 55.46621 
" clip-path="url(#pb6e6b429b6)" style="fill: none; stroke: #008000; stroke-width: 0.4; stroke-linecap: square"/>
   </g>
   <g id="line2d_8">
    <path d="M 16.616743 20.88835 
L 16.814439 21.876484 
L 17.012134 22.864619 
L 17.20983 23.852753 
L 17.407525 24.840888 
L 17.815181 25.693068 
L 18.222838 26.545249 
L 18.630495 27.397429 
L 19.038151 28.249609 
L 19.470339 28.805309 
L 19.902527 29.361009 
L 20.334715 29.916709 
L 20.766903 30.472409 
L 21.149884 30.880069 
L 21.532865 31.28773 
L 21.915845 31.695391 
L 22.298826 32.103052 
L 22.852084 32.537904 
L 23.405343 32.972755 
L 23.958601 33.407607 
L 24.51186 33.842459 
" clip-path="url(#pb6e6b429b6)" style="fill: none; stroke: #4169e1; stroke-width: 0.4; stroke-linecap: square"/>
   </g>
   <g id="line2d_9">
    <path d="M 19.038151 25.186513 
L 19.738851 25.772778 
L 20.439551 26.359042 
L 21.140252 26.945306 
L 21.840952 27.53157 
L 22.541652 28.117835 
L 23.242352 28.704099 
L 23.943053 29.290363 
L 24.643753 29.876628 
L 25.344453 30.462892 
L 26.045153 31.049156 
L 26.745854 31.63542 
L 27.446554 32.221685 
L 28.147254 32.807949 
L 28.847954 33.394213 
L 29.548654 33.980477 
L 30.249355 34.566742 
L 30.950055 35.153006 
L 31.650755 35.73927 
L 32.351455 36.325535 
L 33.052156 36.911799 
L 33.752856 37.498063 
L 34.453556 38.084327 
L 35.154256 38.670592 
L 35.854956 39.256856 
L 36.555657 39.84312 
L 37.256357 40.429384 
L 37.957057 41.015649 
L 38.657757 41.601913 
L 39.358458 42.188177 
L 40.059158 42.774442 
L 40.759858 43.360706 
L 41.460558 43.94697 
" clip-path="url(#pb6e6b429b6)" style="fill: none; stroke: #4169e1; stroke-width: 0.4; stroke-linecap: square"/>
   </g>
   <g id="line2d_10">
    <path d="M 28.82133 3.511201 
L 29.526865 3.940514 
L 30.232399 4.369826 
L 30.937933 4.799139 
L 31.643468 5.228452 
L 32.349002 5.657765 
L 33.054537 6.087078 
L 33.760071 6.516391 
L 34.465605 6.945703 
L 35.17114 7.375016 
L 35.876674 7.804329 
L 36.582208 8.233642 
L 37.287743 8.662955 
L 37.993277 9.092268 
L 38.698812 9.52158 
L 39.404346 9.950893 
L 40.10988 10.380206 
L 40.819131 10.551911 
L 41.528381 10.723616 
L 42.237631 10.895321 
L 42.946881 11.067026 
L 43.656131 11.238731 
L 44.365382 11.410436 
L 45.074632 11.582141 
L 45.783882 11.753846 
L 46.500492 12.276312 
L 47.217101 12.798779 
L 47.933711 13.321246 
L 48.650321 13.843712 
L 49.00877 14.679981 
L 49.367219 15.51625 
L 49.725668 16.352518 
L 50.084117 17.188787 
L 50.263197 18.054664 
L 50.442278 18.92054 
L 50.621358 19.786417 
L 50.800438 20.652293 
L 50.807942 21.212223 
L 50.815446 21.772152 
L 50.822949 22.332082 
L 50.830453 22.892011 
L 50.837957 23.451941 
L 50.845461 24.01187 
L 50.852964 24.571799 
L 50.860468 25.131729 
" clip-path="url(#pb6e6b429b6)" style="fill: none; stroke: #000000; stroke-width: 0.4; stroke-linecap: square"/>
   </g>
   <g id="line2d_11">
    <path d="M 29.358715 3.272727 
L 29.948519 3.440706 
L 30.538322 3.608685 
L 31.128125 3.776664 
L 31.717928 3.944643 
L 32.307731 4.112621 
L 32.897535 4.2806 
L 33.487338 4.448579 
L 34.077141 4.616558 
L 34.666944 4.784537 
L 35.256748 4.952516 
L 35.846551 5.120494 
L 36.436354 5.288473 
L 37.026157 5.456452 
L 37.61596 5.624431 
L 38.205764 5.79241 
L 38.795567 5.960389 
L 39.631804 5.691502 
L 40.468041 5.422615 
L 41.304278 5.153728 
L 42.140515 4.884841 
L 43.125961 4.869936 
L 44.111408 4.855032 
L 45.096854 4.840127 
L 46.082301 4.825222 
L 47.127633 5.093908 
L 48.172966 5.362593 
L 48.695487 5.616576 
L 49.218009 5.870558 
L 49.740531 6.124541 
L 50.263053 6.378523 
L 50.800438 7.154368 
L 50.173585 7.423456 
L 49.546732 7.692545 
L 48.949317 8.140488 
L 48.351902 8.588432 
L 48.381628 9.603556 
L 48.411354 10.61868 
L 48.530837 11.365521 
L 48.650321 12.112362 
L 48.650321 12.978037 
L 48.650321 13.843712 
" clip-path="url(#pb6e6b429b6)" style="fill: none; stroke: #4169e1; stroke-width: 0.4; stroke-linecap: square"/>
   </g>
   <g id="line2d_12">
    <path d="M 27.567047 5.064502 
L 28.07099 5.728965 
L 28.574933 6.393428 
L 29.078875 7.057891 
L 29.582818 7.722354 
L 30.086761 8.386817 
L 30.590704 9.05128 
L 31.094647 9.715743 
L 31.59859 10.380206 
L 32.102532 11.044669 
L 32.606475 11.709132 
L 33.110418 12.373595 
L 33.614361 13.038058 
L 34.118304 13.702521 
L 34.622246 14.366984 
L 35.126189 15.031447 
L 35.630132 15.69591 
L 36.427191 16.340131 
L 37.224249 16.984352 
L 38.021308 17.628573 
L 38.818367 18.272794 
L 39.615426 18.917015 
L 40.412484 19.561236 
L 41.209543 20.205457 
L 42.006602 20.849678 
L 42.797383 21.488562 
L 43.305042 21.876786 
L 43.8127 22.265011 
L 44.320359 22.653235 
L 44.828018 23.04146 
L 45.335676 23.429684 
L 45.843335 23.817909 
L 46.350993 24.206133 
L 46.858652 24.594358 
L 47.530672 24.848139 
L 48.202692 25.10192 
L 48.874712 25.355701 
L 49.546732 25.609482 
" clip-path="url(#pb6e6b429b6)" style="fill: none; stroke: #4169e1; stroke-width: 0.4; stroke-linecap: square"/>
   </g>
   <g id="line2d_13">
    <path d="M 23.983133 17.06955 
L 24.931349 17.517393 
L 25.879565 17.965236 
L 26.827782 18.413079 
L 27.775998 18.860922 
L 28.724214 19.308765 
L 29.67243 19.756607 
L 30.620647 20.20445 
L 31.568863 20.652293 
L 32.397524 20.689655 
L 33.226185 20.727018 
L 34.054846 20.76438 
L 34.883507 20.801742 
L 35.712168 20.839104 
L 36.54083 20.876466 
L 37.369491 20.913829 
L 38.198152 20.951191 
L 39.150264 20.925813 
L 40.102377 20.900435 
L 41.054489 20.875057 
L 42.006602 20.849678 
" clip-path="url(#pb6e6b429b6)" style="fill: none; stroke: #4169e1; stroke-width: 0.4; stroke-linecap: square"/>
   </g>
   <g id="line2d_14">
    <path d="M 33.241048 9.782411 
L 33.9889 10.414547 
L 34.736751 11.046683 
L 35.484602 11.678819 
L 36.232454 12.310956 
L 36.980305 12.943092 
L 37.728156 13.575228 
L 38.476007 14.207364 
L 39.223859 14.8395 
" clip-path="url(#pb6e6b429b6)" style="fill: none; stroke: #008000; stroke-width: 0.4; stroke-linecap: square"/>
   </g>
   <g id="line2d_15">
    <path d="M 19.038151 28.249609 
L 18.811162 29.142475 
L 18.584173 30.035341 
L 18.357184 30.928207 
L 18.130195 31.821073 
L 18.413895 32.71696 
L 18.697596 33.612847 
L 18.981296 34.508735 
L 19.264996 35.404622 
L 19.539027 36.287417 
L 19.813059 37.170212 
L 20.087091 38.053008 
L 20.361123 38.935803 
L 20.619425 39.768043 
L 20.877728 40.600284 
L 20.862793 41.257194 
L 20.847857 41.914104 
L 20.832922 42.571014 
L 20.817987 43.227924 
L 20.803051 43.884834 
L 20.788116 44.541744 
L 20.77318 45.198654 
L 20.758245 45.855564 
L 20.803051 46.557289 
L 20.847857 47.259013 
L 20.892664 47.960738 
L 20.93747 48.662462 
L 20.982276 49.364187 
L 21.027082 50.065911 
L 21.071888 50.767636 
L 21.116694 51.469361 
L 21.236177 52.066551 
L 21.35566 52.663742 
L 21.475143 53.260933 
L 21.594626 53.858124 
L 22.012673 54.410602 
L 22.430719 54.963079 
L 22.848765 55.515556 
L 23.266812 56.068033 
L 23.77447 56.605404 
L 24.282129 57.142775 
L 24.789788 57.650337 
L 25.297446 58.157899 
L 26.133828 58.815313 
L 27.089403 59.02438 
L 28.044979 59.233447 
L 28.940813 59.322875 
L 29.836648 59.412302 
L 30.732482 59.50173 
L 31.628316 59.591158 
" clip-path="url(#pb6e6b429b6)" style="fill: none; stroke: #000000; stroke-width: 0.4; stroke-linecap: square"/>
   </g>
   <g id="line2d_16">
    <path d="M 18.130195 31.821073 
L 17.319211 31.649268 
L 16.508227 31.477462 
L 15.697244 31.305656 
L 14.88626 31.13385 
L 13.969934 30.940091 
L 13.053609 30.746331 
L 12.432095 30.693762 
L 11.810581 30.641193 
L 11.189068 30.588624 
L 10.567554 30.536055 
L 9.949647 30.484091 
L 9.331741 30.432126 
L 8.713835 30.380161 
L 8.095929 30.328197 
L 7.244828 30.656702 
L 6.393728 30.985207 
L 5.542628 31.313713 
L 4.691528 31.642218 
L 4.258618 32.179589 
L 3.825709 32.71696 
L 3.392799 33.254332 
L 2.959889 33.791703 
L 2.825399 34.508332 
L 2.690908 35.224961 
L 2.556418 35.94159 
L 2.421927 36.658219 
L 2.421927 37.569011 
L 2.421927 38.479803 
L 2.421927 39.390594 
L 2.421927 40.301386 
L 2.54141 41.033121 
L 2.660893 41.764856 
L 2.780376 42.496592 
L 2.899859 43.228327 
L 3.07158 43.907594 
L 3.243301 44.586861 
L 3.415022 45.266128 
L 3.586742 45.945395 
L 3.758463 46.624662 
L 3.930184 47.303928 
L 4.101905 47.983195 
L 4.273626 48.662462 
L 4.527455 49.297015 
L 4.781284 49.931569 
L 5.035114 50.566122 
L 5.288943 51.200675 
L 5.542772 51.835228 
L 5.796602 52.469781 
L 6.050431 53.104334 
L 6.30426 53.738888 
L 6.886668 54.291365 
L 7.469076 54.843842 
L 8.051483 55.396319 
L 8.633891 55.948796 
L 9.380227 56.575595 
L 10.126563 57.202394 
L 10.574625 57.650337 
L 11.022686 58.098281 
L 11.470747 58.546224 
L 11.918809 58.994168 
L 12.710167 59.233044 
L 13.501526 59.471921 
L 14.292885 59.710797 
L 15.084244 59.949673 
L 15.920336 60.337797 
L 16.756429 60.725921 
L 17.592522 61.114045 
L 18.428614 61.502169 
L 19.20511 61.457455 
L 19.981605 61.412741 
L 20.758101 61.368027 
L 21.534596 61.323313 
L 22.012384 61.62201 
L 22.490172 61.920706 
L 22.96796 62.219402 
L 23.445748 62.518098 
L 23.938543 62.980745 
L 24.431339 63.443392 
L 24.924134 63.906038 
L 25.416929 64.368685 
L 25.834976 64.936067 
L 26.253022 65.503449 
L 26.671068 66.07083 
L 27.089115 66.638212 
L 27.709041 67.160477 
L 28.328968 67.682742 
L 28.948894 68.205008 
L 29.568821 68.727273 
" clip-path="url(#pb6e6b429b6)" style="fill: none; stroke: #008000; stroke-width: 0.4; stroke-linecap: square"/>
   </g>
   <g id="line2d_17">
    <path d="M 14.88626 31.13385 
L 14.776012 32.014833 
L 14.665764 32.895816 
L 14.964472 33.881533 
L 15.26318 34.867251 
L 15.561887 35.882375 
L 15.860595 36.897498 
L 16.054683 37.554509 
L 16.24877 38.21152 
L 16.442858 38.868531 
L 16.636946 39.525541 
L 16.96538 40.481047 
L 17.293814 41.436553 
L 17.159468 42.078457 
L 17.025122 42.720362 
L 16.890775 43.362267 
L 16.756429 44.004171 
L 16.636946 44.601362 
L 16.517463 45.198553 
L 16.39798 45.795744 
L 16.278497 46.392935 
L 16.24877 47.348441 
L 16.219044 48.303946 
L 16.427995 48.871328 
L 16.636946 49.43871 
L 16.845897 50.006092 
L 17.054848 50.573473 
L 17.278951 51.111046 
L 17.503054 51.648619 
L 17.727157 52.186191 
L 17.951259 52.723764 
L 18.294557 53.24623 
L 18.637854 53.768697 
L 18.981151 54.291163 
L 19.324449 54.81363 
L 19.77251 55.246669 
L 20.220571 55.679708 
L 20.668633 56.112747 
L 21.116694 56.545786 
L 21.474855 57.351842 
L 21.833015 58.157899 
L 21.758411 58.949253 
L 21.683806 59.740606 
L 21.609201 60.53196 
L 21.534596 61.323313 
" clip-path="url(#pb6e6b429b6)" style="fill: none; stroke: #000000; stroke-width: 0.4; stroke-linecap: square"/>
   </g>
   <g id="line2d_18">
    <path d="M 10.567554 30.536055 
L 10.114009 31.021462 
L 9.660464 31.506868 
L 9.206919 31.992275 
L 8.753374 32.477681 
L 8.529271 33.119787 
L 8.305168 33.761893 
L 8.081065 34.404 
L 7.856962 35.046106 
L 7.453924 35.688212 
L 7.050885 36.330318 
L 6.647846 36.972424 
L 6.244807 37.61453 
L 6.065583 38.570036 
L 5.886358 39.525541 
L 5.97597 40.092923 
L 6.065583 40.660305 
L 6.155195 41.227687 
L 6.244807 41.795069 
L 6.588249 42.690754 
L 6.93169 43.58644 
L 7.275132 44.482126 
L 7.618574 45.377811 
L 7.864899 45.930289 
L 8.111225 46.482766 
L 8.35755 47.035243 
L 8.603876 47.58772 
L 8.850201 48.140197 
L 9.096527 48.692674 
L 9.342852 49.245152 
L 9.589178 49.797629 
L 10.425415 50.379915 
L 11.261652 50.962201 
L 12.097889 51.544488 
L 12.934126 52.126774 
L 13.635872 52.544707 
L 14.337619 52.96264 
L 15.039365 53.380573 
L 15.741112 53.798506 
L 16.636946 54.052287 
L 17.53278 54.306068 
L 18.428614 54.559849 
L 19.324449 54.81363 
" clip-path="url(#pb6e6b429b6)" style="fill: none; stroke: #4169e1; stroke-width: 0.4; stroke-linecap: square"/>
   </g>
   <g id="line2d_19">
    <path d="M 18.130195 31.821073 
L 18.846949 32.000331 
L 19.563703 32.179589 
L 20.280457 32.358847 
L 20.997211 32.538105 
L 21.803577 33.015858 
L 22.609944 33.493611 
L 22.132011 33.941554 
L 21.654079 34.389498 
L 21.50487 34.956678 
L 21.35566 35.523859 
L 21.146421 36.538982 
L 20.937181 37.554106 
L 20.649152 38.244955 
L 20.361123 38.935803 
" clip-path="url(#pb6e6b429b6)" style="fill: none; stroke: #000000; stroke-width: 0.4; stroke-linecap: square"/>
   </g>
  </g>
 </g>
 <defs>
  <clipPath id="pb6e6b429b6">
   <rect x="0" y="0" width="53.282395" height="72"/>
  </clipPath>
 </defs>
</svg>
