<?xml version="1.0" encoding="utf-8" standalone="no"?>
<!DOCTYPE svg PUBLIC "-//W3C//DTD SVG 1.1//EN"
  "http://www.w3.org/Graphics/SVG/1.1/DTD/svg11.dtd">
<svg height="72pt" version="1.1" viewBox="0 0 115.332974 72" width="115.332974pt" xmlns="http://www.w3.org/2000/svg" xmlns:xlink="http://www.w3.org/1999/xlink">
 <metadata>
  <rdf:RDF xmlns:cc="http://creativecommons.org/ns#" xmlns:dc="http://purl.org/dc/elements/1.1/" xmlns:rdf="http://www.w3.org/1999/02/22-rdf-syntax-ns#">
   <cc:Work>
    <dc:type rdf:resource="http://purl.org/dc/dcmitype/StillImage"/>
    <dc:date>2022-04-21T17:35:53.025338</dc:date>
    <dc:format>image/svg+xml</dc:format>
    <dc:creator>
     <cc:Agent>
      <dc:title>Matplotlib v3.4.3, https://matplotlib.org/</dc:title>
     </cc:Agent>
    </dc:creator>
   </cc:Work>
  </rdf:RDF>
 </metadata>
 <defs>
  <style type="text/css">*{stroke-linecap:butt;stroke-linejoin:round;}</style>
 </defs>
 <g id="figure_1">
  <g id="patch_1">
   <path d="M 0 72 
L 115.332974 72 
L 115.332974 0 
L 0 0 
z
" style="fill:#ffffff;"/>
  </g>
  <g id="axes_1">
   <g id="line2d_1">
    <path clip-path="url(#p0851553343)" d="M 35.404865 53.764955 
L 35.2686 51.457559 
L 35.132335 49.150162 
L 35.023425 47.31021 
L 34.914515 45.470259 
L 34.785919 43.293028 
L 34.657323 41.115797 
L 34.513388 38.679929 
L 34.369453 36.244061 
L 34.274988 34.647154 
L 34.180522 33.050247 
L 34.086057 31.45334 
L 33.991591 29.856433 
L 33.88217 28.004618 
L 33.772749 26.152802 
L 33.65553 24.167939 
L 33.538311 22.183076 
L 33.421092 20.198213 
L 33.303873 18.21335 
L 33.124146 15.173769 
L 32.944419 12.134189 
L 32.851232 10.557111 
L 32.758045 8.980034 
L 32.664857 7.402957 
L 32.57167 5.82588 
L 32.494462 4.522186 
" style="fill:none;stroke:#808080;stroke-linecap:square;stroke-width:0.533949;"/>
   </g>
   <g id="line2d_2">
    <path clip-path="url(#p0851553343)" d="M 5.242408 65.986328 
L 6.915813 64.375523 
L 8.589219 62.764718 
L 10.262624 61.153913 
L 11.936029 59.543108 
" style="fill:none;stroke:#808080;stroke-linecap:square;stroke-width:0.533949;"/>
   </g>
   <g id="line2d_3">
    <path clip-path="url(#p0851553343)" d="M 42.638947 50.813169 
L 42.252648 48.619328 
L 41.86635 46.425488 
L 41.553937 44.651975 
L 41.241523 42.878463 
L 40.900732 40.943259 
L 40.559941 39.008056 
L 40.258009 37.293186 
L 39.956078 35.578316 
L 39.622445 33.68379 
L 39.288812 31.789264 
L 38.931403 29.760503 
L 38.573994 27.731743 
L 38.230902 25.782642 
L 37.88781 23.833541 
L 37.603519 22.219346 
L 37.319228 20.605152 
L 37.130041 19.530604 
" style="fill:none;stroke:#808080;stroke-linecap:square;stroke-width:0.533949;"/>
   </g>
   <g id="line2d_4">
    <path clip-path="url(#p0851553343)" d="M 47.794022 50.688426 
L 47.713234 47.704098 
L 47.646763 45.24857 
L 47.580548 42.802871 
L 47.514333 40.357173 
L 47.438402 37.548773 
L 47.362472 34.740372 
L 47.314153 32.957707 
L 47.265834 31.175042 
L 47.215981 29.33543 
L 47.166127 27.495817 
L 47.116274 25.651459 
L 47.066421 23.807101 
L 46.989468 20.966837 
L 46.912515 18.126573 
L 46.86394 16.343569 
L 46.837863 15.373425 
" style="fill:none;stroke:#808080;stroke-linecap:square;stroke-width:0.533949;"/>
   </g>
   <g id="line2d_5">
    <path clip-path="url(#p0851553343)" d="M 49.124463 54.699846 
L 50.718487 54.325619 
L 52.31251 53.951391 
L 54.86755 53.352085 
L 57.506446 52.73244 
L 60.315098 52.072797 
L 63.171302 51.402306 
L 65.858261 50.771814 
" style="fill:none;stroke:#808080;stroke-linecap:square;stroke-width:0.533949;"/>
   </g>
   <g id="line2d_6">
    <path clip-path="url(#p0851553343)" d="M 51.452479 57.485535 
L 53.750327 56.864535 
L 55.55987 56.375395 
L 57.369413 55.886255 
L 59.097402 55.419149 
L 60.82539 54.952043 
L 63.758802 54.159521 
" style="fill:none;stroke:#808080;stroke-linecap:square;stroke-width:0.533949;"/>
   </g>
   <g id="line2d_7">
    <path clip-path="url(#p0851553343)" d="M 61.950282 47.279703 
L 62.232784 45.654322 
L 62.515285 44.028941 
L 63.031202 41.05885 
L 63.360233 39.165679 
L 63.689264 37.272509 
L 64.0027 35.468489 
L 64.316136 33.664468 
L 64.625992 31.881803 
L 64.935849 30.099139 
L 65.419808 27.314127 
L 65.903768 24.529116 
L 66.289811 22.307819 
L 66.675853 20.086521 
L 67.08286 17.743532 
L 67.489866 15.400543 
L 67.920393 12.92332 
L 68.35092 10.446097 
L 68.642881 8.765125 
L 68.934842 7.084152 
L 69.339292 4.757434 
L 69.495754 3.857119 
" style="fill:none;stroke:#808080;stroke-linecap:square;stroke-width:0.533949;"/>
   </g>
   <g id="line2d_8">
    <path clip-path="url(#p0851553343)" d="M 65.858261 46.489893 
L 66.136544 44.683669 
L 66.414827 42.877446 
L 66.69311 41.071222 
L 66.971393 39.264999 
L 67.141661 38.158587 
L 67.599799 35.185445 
L 68.057937 32.212303 
L 68.33916 30.386589 
L 68.620383 28.560874 
L 68.924104 26.588045 
L 69.278445 24.288444 
L 69.638411 21.951218 
L 69.998376 19.613991 
L 70.385442 17.100159 
L 70.778643 14.550396 
L 71.079807 12.594515 
L 71.380972 10.638635 
L 71.685204 8.665127 
L 71.76548 8.144463 
L 71.845245 7.624477 
L 72.156636 5.603513 
" style="fill:none;stroke:#808080;stroke-linecap:square;stroke-width:0.533949;"/>
   </g>
   <g id="line2d_9">
    <path clip-path="url(#p0851553343)" d="M 73.880789 50.999605 
L 74.402586 48.449502 
L 74.924383 45.8994 
L 75.408342 43.534717 
L 75.892302 41.170033 
L 76.198196 39.675157 
L 76.50409 38.180281 
L 76.809984 36.685406 
L 77.115878 35.19053 
L 77.587566 32.885845 
L 78.059254 30.58116 
L 78.624512 27.819538 
L 79.189771 25.057916 
L 79.754773 22.296632 
L 80.319776 19.535349 
L 80.715789 17.600316 
L 81.111803 15.665282 
L 81.507816 13.730248 
L 81.903829 11.795214 
L 82.366569 9.533579 
L 82.788915 7.468888 
L 83.211261 5.404196 
L 83.605996 3.475434 
" style="fill:none;stroke:#808080;stroke-linecap:square;stroke-width:0.533949;"/>
   </g>
   <g id="line2d_10">
    <path clip-path="url(#p0851553343)" d="M 79.126879 51.204345 
L 79.432134 49.516593 
L 79.737389 47.828841 
L 80.175074 45.405176 
L 80.601511 43.045916 
L 80.973492 40.989021 
L 81.345474 38.932126 
L 81.70186 36.960314 
L 82.058246 34.988501 
L 82.500534 32.542464 
L 82.942821 30.096427 
L 83.364144 27.765641 
L 83.785468 25.434855 
L 84.09085 23.745577 
L 84.396233 22.0563 
L 84.701616 20.367022 
L 85.006998 18.677745 
L 85.34012 16.834743 
L 85.673242 14.99174 
L 85.97006 13.349411 
L 86.266878 11.707081 
L 86.646785 9.605442 
L 86.943347 7.964807 
L 87.23991 6.324172 
" style="fill:none;stroke:#808080;stroke-linecap:square;stroke-width:0.533949;"/>
   </g>
   <g id="line2d_11">
    <path clip-path="url(#p0851553343)" d="M 82.230048 50.133187 
L 83.145813 47.594271 
L 84.061577 45.055354 
L 84.924677 42.662536 
L 85.787776 40.269718 
L 86.391128 38.596542 
L 86.994479 36.923365 
L 87.648195 35.110871 
L 88.301911 33.298376 
L 89.028745 31.283853 
L 89.755579 29.26933 
L 90.548116 27.071422 
" style="fill:none;stroke:#808080;stroke-linecap:square;stroke-width:0.533949;"/>
   </g>
   <g id="line2d_12">
    <path clip-path="url(#p0851553343)" d="M 86.191715 58.751265 
L 87.030654 56.652167 
L 87.869594 54.55307 
L 88.708534 52.453973 
L 89.547474 50.354876 
" style="fill:none;stroke:#808080;stroke-linecap:square;stroke-width:0.533949;"/>
   </g>
   <g id="line2d_13">
    <path clip-path="url(#p0851553343)" d="M 29.826933 5.217761 
L 24.445601 5.967741 
L 20.979653 6.204175 
L 19.088812 6.834667 
L 16.357879 8.619705 
L 13.207158 11.770808 
L 11.132498 16.182048 
L 10.581045 17.757769 
L 10.686376 18.912993 
L 12.471887 19.437725 
L 19.469805 19.661024 
L 22.029894 19.858053 
L 22.659834 20.803113 
L 22.449683 22.798992 
L 20.034232 25.63485 
L 15.386637 28.968999 
L 13.732278 30.465909 
L 12.997008 32.250946 
L 13.417308 33.40617 
L 15.097489 34.561394 
L 18.800046 35.638315 
L 21.714924 36.662355 
L 22.332592 39.170086 
L 22.869984 42.75372 
L 25.626993 45.903976 
L 26.966127 47.164451 
L 29.778869 48.963048 
L 32.988903 53.99817 
L 32.988903 53.99817 
" style="fill:none;stroke:#008000;stroke-linecap:square;stroke-width:0.533949;"/>
   </g>
   <g id="line2d_14">
    <path clip-path="url(#p0851553343)" d="M 29.826933 5.217761 
L 29.442935 5.936725 
L 29.058938 6.655689 
L 28.674941 7.374653 
L 28.290943 8.093617 
L 28.181266 8.669619 
L 28.071589 9.245621 
L 27.961912 9.821622 
L 27.852235 10.397624 
L 27.742558 10.973626 
L 27.632881 11.549628 
L 27.523204 12.125629 
L 27.413527 12.701631 
L 27.454624 13.291361 
L 27.495721 13.881092 
L 27.536818 14.470822 
L 27.577915 15.060552 
L 27.619012 15.650282 
L 27.660109 16.240013 
L 27.701206 16.829743 
L 27.742302 17.419473 
L 27.797269 18.187419 
L 27.852235 18.955365 
L 27.907201 19.72331 
L 27.962168 20.491256 
L 27.907201 21.177001 
L 27.852235 21.862746 
L 27.797269 22.54849 
L 27.742302 23.234235 
L 27.495465 23.91998 
L 27.248628 24.605724 
L 27.001791 25.291469 
L 26.754954 25.977213 
L 26.672632 26.443472 
L 26.59031 26.909731 
L 26.507989 27.37599 
L 26.425667 27.842249 
L 26.535472 28.500367 
L 26.645277 29.158485 
L 26.755081 29.816604 
L 26.864886 30.474722 
L 27.015724 31.036995 
L 27.166562 31.599269 
L 27.3174 32.161542 
L 27.468238 32.723815 
L 27.619076 33.286089 
L 27.769913 33.848362 
L 27.920751 34.410635 
L 28.071589 34.972908 
L 28.099008 35.480353 
L 28.126428 35.987797 
L 28.153847 36.495241 
L 28.181266 37.002685 
L 28.208685 37.51013 
L 28.236105 38.017574 
L 28.263524 38.525018 
L 28.290943 39.032462 
L 28.290943 39.910066 
L 28.290943 40.78767 
L 28.290943 41.665274 
L 28.290943 42.542878 
L 28.376205 43.053119 
L 28.461467 43.56336 
L 28.546728 44.073601 
L 28.63199 44.583841 
L 28.717252 45.094082 
L 28.802514 45.604323 
L 28.887775 46.114564 
L 28.973037 46.624805 
L 29.174495 47.209365 
L 29.375953 47.793926 
L 29.577411 48.378487 
L 29.778869 48.963048 
" style="fill:none;stroke:#000000;stroke-linecap:square;stroke-width:0.533949;"/>
   </g>
   <g id="line2d_15">
    <path clip-path="url(#p0851553343)" d="M 46.427789 15.025638 
L 45.680375 15.27936 
L 44.93296 15.533082 
L 44.185546 15.786804 
L 43.438131 16.040526 
L 42.690717 16.294248 
L 41.943303 16.54797 
L 41.195888 16.801693 
L 40.448474 17.055415 
L 40.156513 17.233037 
L 39.620144 17.560147 
L 39.083775 17.887257 
L 38.641488 18.157081 
L 38.1992 18.426904 
L 37.568366 18.756048 
L 36.937531 19.085192 
L 36.306697 19.414336 
L 35.675862 19.743479 
L 35.286496 20.218552 
L 34.89713 20.693624 
L 34.507764 21.168696 
L 34.118397 21.643768 
L 34.337751 22.110027 
L 34.557105 22.576286 
L 34.77646 23.042545 
L 34.995814 23.508804 
L 34.666783 24.057603 
L 34.337751 24.606402 
L 33.706917 25.127405 
L 33.076082 25.648409 
L 32.445248 26.169412 
L 31.814413 26.690415 
L 31.293256 26.964814 
L 30.772098 27.239214 
L 30.25094 27.513614 
L 29.729783 27.788013 
L 29.345786 28.391387 
L 28.961788 28.994761 
L 29.126176 29.707624 
L 29.290564 30.420486 
L 29.784494 30.914371 
L 30.278424 31.408257 
L 30.689776 31.627573 
L 31.101129 31.846889 
L 31.512482 32.066205 
L 31.923834 32.285522 
L 32.527442 32.943809 
L 33.131049 33.602097 
L 33.59724 33.958698 
L 34.063431 34.315299 
L 34.529622 34.671899 
L 34.995814 35.0285 
L 35.105618 35.604417 
L 35.215423 36.180334 
L 35.325228 36.756251 
L 35.435033 37.332168 
L 35.27039 38.155197 
L 35.105746 38.978227 
L 34.570911 39.5816 
L 34.036076 40.184974 
L 33.501241 40.788348 
L 32.966405 41.391722 
L 32.760601 41.803067 
L 32.554797 42.214412 
L 32.348993 42.625758 
L 32.143189 43.037103 
L 32.033512 43.722847 
L 31.923834 44.408592 
L 32.390154 45.094336 
L 32.856473 45.780081 
L 33.597112 46.301084 
L 34.337751 46.822088 
L 35.03723 46.959203 
L 35.736709 47.096318 
L 36.436187 47.233433 
L 37.135666 47.370548 
L 37.62934 47.466477 
L 38.123015 47.562407 
L 38.616689 47.658337 
L 39.110363 47.754266 
L 39.823392 48.028835 
L 40.53642 48.303404 
L 41.002739 48.961353 
L 41.469058 49.619302 
L 41.469058 50.222676 
L 41.469058 50.82605 
L 41.469058 51.429424 
L 41.469058 52.032798 
L 41.0439 52.238555 
L 40.618742 52.444312 
L 40.193584 52.650069 
L 39.768425 52.855827 
L 39.343395 53.198699 
L 38.918365 53.541571 
L 38.493334 53.884444 
L 38.068304 54.227316 
L 37.601985 54.364431 
L 37.135666 54.501546 
L 36.669347 54.638661 
L 36.203028 54.775776 
L 35.489744 54.665949 
" style="fill:none;stroke:#008000;stroke-linecap:square;stroke-width:0.533949;"/>
   </g>
   <g id="line2d_16">
    <path clip-path="url(#p0851553343)" d="M 33.899043 4.419138 
L 34.721877 4.748282 
L 35.54471 5.077425 
L 36.367543 5.406569 
L 37.190376 5.735713 
L 37.025733 6.558403 
L 36.86109 7.381094 
L 36.477092 8.066838 
L 36.093095 8.752583 
L 35.709098 9.438327 
L 35.3251 10.124072 
L 34.927361 10.686345 
L 34.529622 11.248619 
L 34.131883 11.810892 
L 33.734144 12.373165 
L 33.336405 12.935439 
L 32.938666 13.497712 
L 32.540927 14.059985 
L 32.143189 14.622259 
L 31.923834 15.198345 
L 31.70448 15.774432 
L 31.485126 16.350518 
L 31.265772 16.926605 
L 31.402933 17.502522 
L 31.540093 18.078439 
L 31.677253 18.654356 
L 31.814413 19.230273 
L 32.390409 19.833647 
L 32.966405 20.43702 
L 33.542401 21.040394 
L 34.118397 21.643768 
" style="fill:none;stroke:#000000;stroke-linecap:square;stroke-width:0.533949;"/>
   </g>
   <g id="line2d_17">
    <path clip-path="url(#p0851553343)" d="M 39.083775 17.887257 
L 39.08785 18.557663 
L 39.091924 19.228069 
L 39.095999 19.898475 
L 39.100073 20.568881 
L 39.104148 21.239287 
L 39.108222 21.909694 
L 39.112297 22.5801 
L 39.116371 23.250506 
L 39.120446 23.920912 
L 39.12452 24.591318 
L 39.128595 25.261724 
L 39.132669 25.93213 
L 39.136744 26.602536 
L 39.140819 27.272942 
L 39.144893 27.943348 
L 39.148968 28.613754 
L 39.153042 29.28416 
L 39.157117 29.954566 
L 39.161191 30.624972 
L 39.165266 31.295378 
L 39.16934 31.965784 
L 39.173415 32.63619 
L 39.177489 33.306596 
L 39.181564 33.977002 
L 39.185639 34.647409 
L 39.189713 35.317815 
L 39.193788 35.988221 
L 39.197862 36.658627 
L 39.201937 37.329033 
L 39.206011 37.999439 
L 39.210086 38.669845 
L 39.21416 39.340251 
L 39.354708 39.881932 
L 39.495256 40.423612 
L 39.635803 40.965293 
L 39.776351 41.506973 
L 39.916899 42.048654 
L 40.057446 42.590335 
L 40.197994 43.132015 
L 40.338541 43.673696 
L 40.859699 44.119362 
L 41.380857 44.565028 
L 41.902014 45.010695 
L 42.423172 45.456361 
L 42.944329 45.902027 
L 43.465487 46.347693 
L 43.986644 46.793359 
L 44.507802 47.239026 
L 44.771832 47.83901 
L 45.035862 48.438994 
L 45.299892 49.038978 
L 45.563923 49.638962 
L 45.827953 50.238947 
L 46.091983 50.838931 
L 46.356013 51.438915 
L 46.620043 52.038899 
L 46.97643 52.655832 
L 47.332816 53.272765 
" style="fill:none;stroke:#4169e1;stroke-linecap:square;stroke-width:0.533949;"/>
   </g>
   <g id="line2d_18">
    <path clip-path="url(#p0851553343)" d="M 32.795626 3.821187 
L 33.652845 3.869152 
L 34.510065 3.917117 
L 35.367284 3.965082 
L 36.224503 4.013047 
L 36.766177 3.961607 
L 37.307851 3.910168 
L 37.849525 3.858729 
L 38.391199 3.807289 
L 38.932873 3.75585 
L 39.474547 3.704411 
L 40.016221 3.652971 
L 40.557895 3.601532 
L 41.106472 3.608396 
L 41.655049 3.615261 
L 42.203626 3.622125 
L 42.752203 3.628989 
L 43.30078 3.635853 
L 43.849356 3.642718 
L 44.397933 3.649582 
L 44.94651 3.656446 
L 45.549989 3.701021 
L 46.153468 3.745596 
L 46.756948 3.790171 
L 47.360427 3.834746 
L 47.963906 3.879321 
L 48.567385 3.923897 
L 49.170865 3.968472 
L 49.774344 4.013047 
L 50.645241 4.013047 
L 51.516138 4.013047 
L 52.387035 4.013047 
L 53.257931 4.013047 
" style="fill:none;stroke:#008000;stroke-linecap:square;stroke-width:0.533949;"/>
   </g>
   <g id="line2d_19">
    <path clip-path="url(#p0851553343)" d="M 69.385821 3.272727 
L 68.799535 3.317302 
L 68.213249 3.361877 
L 67.626963 3.406453 
L 67.040676 3.451028 
L 66.45439 3.495603 
L 65.868104 3.540178 
L 65.281817 3.584753 
L 64.695531 3.629328 
L 63.886376 3.70475 
L 63.07722 3.780172 
L 62.268064 3.855593 
L 61.458909 3.931015 
L 60.636075 3.855593 
L 59.813242 3.780172 
L 58.990409 3.70475 
L 58.167576 3.629328 
L 57.66016 3.715004 
L 57.152744 3.800679 
L 56.645328 3.886355 
L 56.137912 3.972031 
L 55.630496 4.057707 
L 55.12308 4.143382 
L 54.615664 4.229058 
L 54.108248 4.314734 
L 53.55622 4.455323 
L 53.004191 4.595913 
L 52.452163 4.736502 
L 51.900135 4.877092 
L 51.348107 5.017681 
L 50.796079 5.158271 
L 50.24405 5.29886 
L 49.692022 5.43945 
L 48.989156 5.765204 
L 48.28629 6.090958 
L 47.583424 6.416712 
L 46.880558 6.742466 
L 46.177692 7.06822 
L 45.474826 7.393975 
L 44.77196 7.719729 
L 44.069094 8.045483 
L 43.609646 8.292341 
L 43.150197 8.539199 
L 42.690749 8.786056 
L 42.231301 9.032914 
L 41.771853 9.279772 
L 41.312404 9.52663 
L 40.852956 9.773488 
L 40.393508 10.020346 
L 39.93406 10.267204 
L 39.474611 10.514062 
L 39.015163 10.76092 
L 38.555715 11.007778 
L 38.096266 11.254635 
L 37.636818 11.501493 
L 37.17737 11.748351 
L 36.717922 11.995209 
L 36.375085 12.461299 
L 36.032249 12.927388 
L 36.553534 12.954845 
L 37.074819 12.982302 
L 37.760492 12.790273 
L 38.446166 12.598244 
L 39.131839 12.406215 
L 39.817512 12.214186 
L 40.400411 12.214186 
L 40.983309 12.214186 
L 41.566208 12.214186 
L 42.149107 12.214186 
" style="fill:none;stroke:#008000;stroke-linecap:square;stroke-width:0.533949;"/>
   </g>
   <g id="line2d_20">
    <path clip-path="url(#p0851553343)" d="M 73.253406 6.591284 
L 72.499217 6.618741 
L 71.745028 6.646198 
L 70.881034 6.454169 
L 70.017039 6.26214 
L 69.153045 6.070111 
L 68.289051 5.878082 
L 67.767894 5.847236 
L 67.246736 5.816389 
L 66.725579 5.785542 
L 66.204421 5.754696 
L 65.683263 5.723849 
L 65.162106 5.693002 
L 64.640948 5.662156 
L 64.119791 5.631309 
L 63.595182 5.699867 
L 63.070573 5.768424 
L 62.545964 5.836982 
L 62.021355 5.905539 
L 61.496746 5.974097 
L 60.972137 6.042654 
L 60.447528 6.111212 
L 59.922919 6.179769 
L 59.065828 6.289597 
L 58.208736 6.399424 
L 57.351645 6.509252 
L 56.494554 6.61908 
L 55.664818 6.790431 
L 54.835082 6.961783 
L 54.005346 7.133134 
L 53.17561 7.304485 
L 52.380132 7.558208 
L 51.584654 7.81193 
L 50.789176 8.065652 
L 49.993698 8.319374 
L 49.397121 8.531911 
L 48.800545 8.744447 
L 48.203968 8.956984 
L 47.607392 9.169521 
L 46.873655 9.484936 
L 46.139919 9.800352 
L 45.406182 10.115767 
L 44.672445 10.431183 
L 44.055288 10.657617 
L 43.438131 10.884052 
L 42.820975 11.110487 
L 42.203818 11.336921 
L 42.149107 12.214186 
L 42.683942 12.262151 
L 43.218777 12.310116 
L 43.753613 12.358081 
L 44.288448 12.406046 
L 44.741025 12.49867 
L 45.193603 12.591295 
L 45.64618 12.68392 
L 46.098758 12.776544 
L 46.551335 12.869169 
L 47.003913 12.961794 
L 47.45649 13.054419 
L 47.909068 13.147043 
L 48.402998 13.256871 
" style="fill:none;stroke:#008000;stroke-linecap:square;stroke-width:0.533949;"/>
   </g>
   <g id="line2d_21">
    <path clip-path="url(#p0851553343)" d="M 40.156513 17.233037 
L 39.619122 16.821862 
L 39.08173 16.410686 
L 38.544338 15.99951 
L 38.006946 15.588335 
L 37.300693 15.553929 
L 36.594439 15.519523 
L 35.888186 15.485117 
L 35.181932 15.450711 
L 34.564775 15.36868 
L 33.947618 15.286648 
L 34.098456 14.792763 
L 34.249294 14.298877 
L 34.695033 13.956005 
L 35.140771 13.613133 
L 35.58651 13.27026 
L 36.032249 12.927388 
" style="fill:none;stroke:#008000;stroke-linecap:square;stroke-width:0.533949;"/>
   </g>
   <g id="line2d_22">
    <path clip-path="url(#p0851553343)" d="M 65.518748 6.097738 
L 65.0353 6.282902 
L 64.551852 6.468067 
L 64.068404 6.653231 
L 63.584955 6.838396 
L 63.101507 7.023561 
L 62.618059 7.208725 
L 62.134611 7.39389 
L 61.651163 7.579054 
L 61.181393 7.668205 
L 60.711622 7.757355 
L 60.241852 7.846505 
L 59.772081 7.935655 
L 59.302311 8.024805 
L 58.83254 8.113956 
L 58.36277 8.203106 
L 57.893 8.292256 
L 57.310165 8.566486 
L 56.72733 8.840716 
L 56.144495 9.114946 
L 55.56166 9.389176 
L 54.978825 9.663406 
L 54.39599 9.937636 
L 53.813155 10.211866 
L 53.23032 10.486096 
L 52.983355 11.171841 
L 52.73639 11.857586 
L 53.271353 12.296557 
L 53.806316 12.735529 
L 54.341279 13.1745 
L 54.876243 13.613472 
" style="fill:none;stroke:#008000;stroke-linecap:square;stroke-width:0.533949;"/>
   </g>
   <g id="line2d_23">
    <path clip-path="url(#p0851553343)" d="M 65.875134 11.309126 
L 66.166584 11.72403 
L 66.458033 12.138934 
L 66.749482 12.553839 
L 67.040932 12.968743 
L 67.332381 13.383647 
L 67.623831 13.798551 
L 67.91528 14.213456 
L 68.20673 14.62836 
L 68.371245 15.115127 
L 68.535761 15.601894 
L 68.700276 16.088661 
L 68.864792 16.575427 
L 68.796275 17.439472 
L 68.727759 18.303517 
L 68.782598 18.790284 
L 68.837436 19.277051 
L 68.892275 19.763818 
L 68.947113 20.250585 
L 68.686598 20.641422 
L 68.426084 21.032259 
L 68.165569 21.423096 
L 67.905054 21.813933 
" style="fill:none;stroke:#4169e1;stroke-linecap:square;stroke-width:0.533949;"/>
   </g>
   <g id="line2d_24">
    <path clip-path="url(#p0851553343)" d="M 67.712799 6.591284 
L 67.270512 7.177624 
L 66.828225 7.763965 
L 66.385938 8.350305 
L 65.94365 8.936646 
L 65.501363 9.522986 
L 65.059076 10.109327 
L 64.616789 10.695667 
L 64.174501 11.282008 
L 64.153921 12.08419 
L 64.133341 12.886372 
L 64.11276 13.688554 
L 64.09218 14.490737 
L 64.119599 14.950216 
L 64.147018 15.409695 
L 64.174437 15.869175 
L 64.201857 16.328654 
L 64.229276 16.788134 
L 64.256695 17.247613 
L 64.284114 17.707092 
L 64.311534 18.166572 
L 65.000722 18.211062 
L 65.68991 18.255553 
L 66.379099 18.300043 
L 67.068287 18.344533 
L 67.757476 18.389024 
L 68.446664 18.433514 
L 69.135852 18.478004 
L 69.825041 18.522495 
" style="fill:none;stroke:#4169e1;stroke-linecap:square;stroke-width:0.533949;"/>
   </g>
   <g id="line2d_25">
    <path clip-path="url(#p0851553343)" d="M 74.268366 7.16754 
L 74.146641 7.700661 
L 74.024916 8.233783 
L 73.903191 8.766904 
L 73.781467 9.300026 
L 73.659742 9.833148 
L 73.538017 10.366269 
L 73.416292 10.899391 
L 73.294567 11.432512 
L 73.172842 11.965634 
L 73.051117 12.498755 
L 72.929392 13.031877 
L 72.807668 13.564998 
L 72.685943 14.09812 
L 72.564218 14.631241 
L 72.442493 15.164363 
L 72.320768 15.697484 
L 72.190511 16.513565 
L 72.060253 17.329645 
L 71.929996 18.145725 
L 71.799738 18.961805 
L 71.950576 19.68865 
L 72.101414 20.415496 
L 72.252252 21.142341 
L 72.40309 21.869186 
L 72.553928 22.596031 
L 72.704765 23.322877 
L 72.855603 24.049722 
L 73.006441 24.776567 
L 73.287664 25.187912 
L 73.568887 25.599257 
L 73.850111 26.010602 
L 74.131334 26.421947 
" style="fill:none;stroke:#000000;stroke-linecap:square;stroke-width:0.533949;"/>
   </g>
   <g id="line2d_26">
    <path clip-path="url(#p0851553343)" d="M 78.10834 8.511233 
L 77.92318 9.149013 
L 77.73802 9.786793 
L 77.55286 10.424573 
L 77.3677 11.062352 
L 77.182541 11.700132 
L 76.997381 12.337912 
L 76.812221 12.975692 
L 76.627061 13.613472 
L 76.503642 14.230574 
L 76.380224 14.847676 
L 76.256805 15.464779 
L 76.133387 16.081881 
L 76.009968 16.698983 
L 75.886549 17.316086 
L 75.763131 17.933188 
L 75.639712 18.550291 
L 75.670583 19.098835 
L 75.701453 19.64738 
L 75.732324 20.195925 
L 75.763195 20.74447 
L 75.794065 21.293015 
L 75.824936 21.84156 
L 75.855807 22.390105 
L 75.886677 22.938649 
L 76.016935 23.65863 
L 76.147192 24.378611 
L 76.277449 25.098593 
L 76.407707 25.818574 
" style="fill:none;stroke:#000000;stroke-linecap:square;stroke-width:0.533949;"/>
   </g>
   <g id="line2d_27">
    <path clip-path="url(#p0851553343)" d="M 75.392747 26.806344 
L 75.372231 27.361753 
L 75.351714 27.917162 
L 75.331198 28.472571 
L 75.310681 29.02798 
L 75.290165 29.58339 
L 75.269648 30.138799 
L 75.249132 30.694208 
L 75.228615 31.249617 
L 75.317712 31.969598 
L 75.406808 32.689579 
L 75.495905 33.40956 
L 75.585001 34.129541 
L 75.794129 34.619782 
L 76.003257 35.110023 
L 76.212385 35.600265 
L 76.421512 36.090506 
L 76.63064 36.580747 
L 76.839768 37.070989 
L 77.048896 37.56123 
L 77.258023 38.051471 
L 77.127766 38.795435 
L 76.997508 39.539398 
L 76.867251 40.283362 
L 76.736994 41.027325 
L 76.606736 41.771289 
L 76.476479 42.515252 
L 76.346221 43.259215 
L 76.215964 44.003179 
" style="fill:none;stroke:#008000;stroke-linecap:square;stroke-width:0.533949;"/>
   </g>
   <g id="line2d_28">
    <path clip-path="url(#p0851553343)" d="M 87.708786 5.398095 
L 88.079041 5.679274 
L 88.449297 5.960453 
L 88.819553 6.241632 
L 89.189809 6.522811 
L 89.560065 6.80399 
L 89.93032 7.085169 
L 90.300576 7.366348 
L 90.670832 7.647527 
L 91.178312 8.072601 
L 91.685792 8.497674 
L 92.193272 8.922748 
L 92.700752 9.347821 
L 93.455069 9.608492 
L 94.209386 9.869164 
L 94.963703 10.129835 
L 95.71802 10.390506 
L 96.328274 10.938966 
L 96.938528 11.487426 
L 97.548782 12.035886 
L 98.159037 12.584346 
L 98.817354 12.892982 
L 99.475672 13.201618 
L 100.13399 13.510254 
L 100.792308 13.81889 
L 101.539722 13.956005 
L 102.287136 14.09312 
L 103.034551 14.230235 
L 103.781965 14.36735 
L 104.395671 14.566243 
L 105.009376 14.765136 
L 105.623082 14.964029 
L 106.236787 15.162922 
L 106.850493 15.361815 
L 107.464198 15.560708 
L 108.077904 15.759601 
L 108.691609 15.958495 
L 109.391088 16.315095 
L 110.090566 16.671696 
L 109.953534 17.466929 
L 109.199345 17.384559 
L 108.445156 17.302188 
L 107.875934 17.446252 
L 107.306713 17.590316 
L 106.737492 17.73438 
L 106.168271 17.878444 
L 105.510017 18.104709 
L 104.851763 18.330974 
L 104.193509 18.55724 
L 103.535256 18.783505 
L 102.877002 19.00977 
L 102.218748 19.236035 
L 101.560494 19.4623 
L 100.90224 19.688566 
L 100.305536 19.990253 
L 99.708832 20.29194 
L 99.112127 20.593627 
L 98.515423 20.895313 
L 97.966846 21.073614 
L 97.418269 21.251914 
L 96.869693 21.430215 
L 96.321116 21.608515 
L 95.772539 21.786815 
L 95.223962 21.965116 
L 94.675385 22.143416 
L 94.126808 22.321717 
L 93.567941 22.496542 
L 93.009074 22.671368 
L 92.450207 22.846194 
L 91.89134 23.02102 
L 91.332473 23.195846 
L 90.773606 23.370672 
L 90.214739 23.545498 
L 89.655872 23.720324 
" style="fill:none;stroke:#008000;stroke-linecap:square;stroke-width:0.533949;"/>
   </g>
   <g id="line2d_29">
    <path clip-path="url(#p0851553343)" d="M 94.017387 23.501346 
L 93.779945 24.166456 
L 93.542504 24.831566 
L 93.305062 25.496675 
L 93.06762 26.161785 
L 92.830178 26.826894 
L 92.592736 27.492004 
L 92.355295 28.157114 
L 92.117853 28.822223 
L 91.880411 29.487333 
L 91.642969 30.152442 
L 91.405527 30.817552 
L 91.168086 31.482661 
L 90.930644 32.147771 
L 90.693202 32.812881 
L 90.45576 33.47799 
L 90.218318 34.1431 
L 89.980877 34.808209 
L 89.743435 35.473319 
L 89.505993 36.138429 
L 89.268551 36.803538 
L 89.03111 37.468648 
L 88.793668 38.133757 
L 88.556226 38.798867 
L 88.318784 39.463976 
L 88.081342 40.129086 
L 87.843901 40.794196 
L 87.606459 41.459305 
L 87.369017 42.124415 
L 87.131575 42.789524 
L 86.894133 43.454634 
L 86.656692 44.119744 
L 86.41925 44.784853 
" style="fill:none;stroke:#000000;stroke-dasharray:1.975611,0.854318;stroke-dashoffset:0;stroke-width:0.533949;"/>
   </g>
   <g id="line2d_30">
    <path clip-path="url(#p0851553343)" d="M 88.092783 27.12159 
L 87.907639 27.659839 
L 87.722495 28.198087 
L 87.537351 28.736336 
L 87.352208 29.274584 
L 87.167064 29.812833 
L 86.98192 30.351081 
L 86.796776 30.88933 
L 86.611632 31.427578 
L 86.426488 31.965827 
L 86.241344 32.504075 
L 86.0562 33.042324 
L 85.871056 33.580572 
L 85.685913 34.118821 
L 85.500769 34.657069 
L 85.315625 35.195318 
L 85.130481 35.733566 
L 84.945337 36.271815 
L 84.760193 36.810063 
L 84.575049 37.348312 
L 84.389905 37.88656 
L 84.204762 38.424809 
L 84.019618 38.963057 
L 83.834474 39.501306 
L 83.64933 40.039555 
L 83.464186 40.577803 
L 83.279042 41.116052 
L 83.093898 41.6543 
L 82.908754 42.192549 
L 82.723611 42.730797 
L 82.538467 43.269046 
L 82.353323 43.807294 
L 82.168179 44.345543 
" style="fill:none;stroke:#008000;stroke-linecap:square;stroke-width:0.533949;"/>
   </g>
   <g id="line2d_31">
    <path clip-path="url(#p0851553343)" d="M 87.873429 6.71467 
L 88.168202 7.132964 
L 88.462975 7.551259 
L 88.757748 7.969553 
L 89.052521 8.387847 
L 89.505162 8.778684 
L 89.957804 9.169521 
L 90.410445 9.560358 
L 90.863086 9.951195 
L 91.301922 10.324914 
L 91.740758 10.698633 
L 92.179594 11.072352 
L 92.61843 11.446071 
L 93.057266 11.81979 
L 93.496102 12.193509 
L 93.934938 12.567228 
L 94.373773 12.940947 
L 94.977253 13.537541 
L 95.580732 14.134136 
L 96.184211 14.73073 
L 96.78769 15.327325 
L 96.595436 16.123236 
L 95.950924 16.383738 
L 95.306412 16.644239 
L 94.661899 16.904741 
L 94.017387 17.165242 
L 93.290553 17.562859 
L 92.563719 17.960476 
L 91.836885 18.358092 
L 91.110051 18.755709 
L 90.688281 19.126038 
L 90.26651 19.496367 
L 89.844739 19.866697 
L 89.422968 20.237026 
L 89.001198 20.607355 
L 88.579427 20.977684 
L 88.157656 21.348013 
L 87.735885 21.718343 
L 87.447887 22.362902 
L 87.159889 23.007461 
L 86.871891 23.65202 
L 86.583893 24.29658 
L 86.295895 24.941139 
L 86.007897 25.585698 
L 85.719899 26.230258 
L 85.431901 26.874817 
" style="fill:none;stroke:#4169e1;stroke-linecap:square;stroke-width:0.533949;"/>
   </g>
   <g id="line2d_32">
    <path clip-path="url(#p0851553343)" d="M 90.479089 10.555247 
L 90.348768 11.021506 
L 90.218446 11.487765 
L 90.088125 11.954024 
L 89.957804 12.420283 
L 89.827482 12.886542 
L 89.697161 13.3528 
L 89.56684 13.819059 
L 89.436518 14.285318 
L 89.23097 15.080552 
L 89.025421 15.875785 
L 89.066582 16.712373 
L 89.107743 17.548961 
L 88.792262 17.960476 
L 88.47678 18.37199 
L 87.914334 18.714693 
L 87.351888 19.057396 
L 86.775892 19.660939 
L 86.199896 20.264483 
L 85.6239 20.868026 
L 85.047904 21.471569 
L 84.581585 22.177822 
L 84.115266 22.884075 
L 83.648946 23.590327 
L 83.182627 24.29658 
" style="fill:none;stroke:#000000;stroke-linecap:square;stroke-width:0.533949;"/>
   </g>
   <g id="line2d_33">
    <path clip-path="url(#p0851553343)" d="M 85.404801 7.674645 
L 85.27448 8.377508 
L 85.144159 9.080371 
L 85.013837 9.783234 
L 84.883516 10.486096 
L 84.753195 11.188959 
L 84.622873 11.891822 
L 84.492552 12.594685 
L 84.362231 13.297548 
L 84.286812 14.195829 
L 84.211393 15.094111 
L 84.135974 15.992392 
L 84.060555 16.890673 
L 83.875395 17.415236 
L 83.690235 17.939798 
L 83.505075 18.464361 
L 83.319915 18.988923 
L 83.134756 19.513486 
L 82.949596 20.038048 
L 82.764436 20.56261 
L 82.579276 21.087173 
L 82.531276 21.611735 
L 82.483277 22.136298 
L 82.435277 22.66086 
L 82.387277 23.185423 
L 82.339278 23.709985 
L 82.291278 24.234547 
L 82.243278 24.75911 
L 82.195279 25.283672 
" style="fill:none;stroke:#000000;stroke-linecap:square;stroke-width:0.533949;"/>
   </g>
   <g id="line2d_34">
    <path clip-path="url(#p0851553343)" d="M 70.071494 26.49042 
L 70.469297 27.21735 
L 70.8671 27.94428 
L 71.264903 28.67121 
L 71.662706 29.39814 
L 71.854705 30.275744 
L 72.046703 31.153348 
L 71.847802 31.701978 
L 71.6489 32.250607 
L 71.449999 32.799237 
L 71.251098 33.347867 
L 71.484257 33.807176 
L 71.717417 34.266486 
L 71.950576 34.725796 
L 72.183736 35.185106 
L 72.368832 35.69255 
L 72.553928 36.199995 
L 72.739024 36.707439 
L 72.924119 37.214883 
" style="fill:none;stroke:#008000;stroke-linecap:square;stroke-width:0.533949;"/>
   </g>
   <g id="line2d_35">
    <path clip-path="url(#p0851553343)" d="M 48.841706 12.886033 
L 49.297735 12.982048 
L 49.753764 13.078062 
L 50.209792 13.174076 
L 50.665821 13.270091 
L 51.12185 13.366105 
L 51.577879 13.46212 
L 52.033908 13.558134 
L 52.489937 13.654148 
L 53.31277 13.880414 
L 54.135603 14.106679 
L 54.958436 14.332944 
L 55.78127 14.559209 
L 56.154977 14.850642 
L 56.528684 15.142075 
L 56.902391 15.433508 
L 57.276098 15.724941 
L 57.649806 16.016374 
L 58.023513 16.307807 
L 58.39722 16.59924 
L 58.770927 16.890673 
L 59.165215 17.452947 
L 59.559502 18.01522 
L 59.95379 18.577493 
L 60.348077 19.139767 
L 60.742365 19.70204 
L 61.136653 20.264313 
L 61.53094 20.826586 
L 61.925228 21.38886 
L 62.264677 21.851729 
L 62.604126 22.314598 
L 62.943575 22.777467 
L 63.283024 23.240336 
L 63.622473 23.703206 
L 63.961922 24.166075 
L 64.301371 24.628944 
L 64.64082 25.091813 
L 64.98027 25.554682 
L 65.319719 26.017551 
L 65.659168 26.48042 
L 65.998617 26.94329 
L 66.338066 27.406159 
L 66.677515 27.869028 
L 67.016964 28.331897 
L 67.356413 28.794766 
L 67.517541 29.264415 
L 67.678669 29.734064 
L 67.839797 30.203712 
L 68.000925 30.673361 
L 68.162053 31.143009 
L 68.323181 31.612658 
L 68.48431 32.082307 
L 68.645438 32.551955 
L 68.796275 33.021689 
L 68.947113 33.491422 
L 69.097951 33.961155 
L 69.248789 34.430889 
L 69.399627 34.900622 
L 69.550465 35.370356 
L 69.701303 35.840089 
L 69.85214 36.309822 
L 70.496781 36.700659 
L 71.141421 37.091497 
L 71.786061 37.482334 
L 72.430701 37.873171 
L 72.883214 38.449088 
L 73.335728 39.025005 
L 73.788241 39.600922 
L 74.240755 40.176839 
L 74.329979 40.71852 
L 74.419204 41.2602 
L 74.508428 41.801881 
L 74.597653 42.343562 
" style="fill:none;stroke:#008000;stroke-linecap:square;stroke-width:0.533949;"/>
   </g>
   <g id="line2d_36">
    <path clip-path="url(#p0851553343)" d="M 43.657486 22.856618 
L 43.644623 23.543146 
L 43.63176 24.229675 
L 43.618897 24.916203 
L 43.606034 25.602732 
L 43.593172 26.28926 
L 43.580309 26.975789 
L 43.567446 27.662317 
L 43.554583 28.348846 
L 43.541721 29.035374 
L 43.528858 29.721903 
L 43.515995 30.408431 
L 43.503132 31.09496 
L 43.49027 31.781488 
L 43.477407 32.468017 
L 43.464544 33.154545 
L 43.451681 33.841074 
L 43.438819 34.527602 
L 43.425956 35.214131 
L 43.413093 35.900659 
L 43.40023 36.587188 
L 43.387368 37.273716 
L 43.374505 37.960245 
L 43.361642 38.646773 
L 43.348779 39.333302 
L 43.335916 40.01983 
L 43.323054 40.706359 
L 43.310191 41.392887 
L 43.297328 42.079416 
L 43.284465 42.765944 
L 43.271603 43.452473 
L 43.25874 44.139002 
L 43.245877 44.82553 
" style="fill:none;stroke:#4169e1;stroke-linecap:square;stroke-width:0.533949;"/>
   </g>
   <g id="line2d_37">
    <path clip-path="url(#p0851553343)" d="M 51.831363 31.331649 
L 51.437076 31.794518 
L 51.042788 32.257387 
L 50.6485 32.720256 
L 50.254213 33.183125 
L 49.859925 33.645994 
L 49.465638 34.108863 
L 49.07135 34.571733 
L 48.677062 35.034602 
L 48.114744 35.535097 
L 47.552426 36.035592 
L 46.990107 36.536088 
L 46.427789 37.036583 
L 45.86547 37.537078 
L 45.303152 38.037573 
L 44.740834 38.538069 
L 44.178515 39.038564 
" style="fill:none;stroke:#008000;stroke-linecap:square;stroke-width:0.533949;"/>
   </g>
   <g id="line2d_38">
    <path clip-path="url(#p0851553343)" d="M 52.325293 31.304531 
L 52.82587 31.777569 
L 53.326448 32.250607 
L 53.827025 32.723646 
L 54.327602 33.196684 
L 54.828179 33.669722 
L 55.328756 34.142761 
L 55.829333 34.615799 
L 56.32991 35.088838 
L 56.837262 35.651196 
L 57.344615 36.213554 
L 57.851967 36.775912 
L 58.359319 37.33827 
L 58.05074 38.147401 
L 57.742162 38.956532 
L 57.433583 39.765663 
L 57.125005 40.574795 
L 56.672427 40.873007 
L 56.21985 41.17122 
L 55.767272 41.469432 
L 55.314695 41.767645 
L 54.862117 42.065857 
L 54.40954 42.364069 
L 53.956963 42.662282 
L 53.504385 42.960494 
L 53.003808 43.121677 
L 52.503231 43.282859 
L 52.002654 43.444041 
L 51.502076 43.605223 
L 51.001499 43.766405 
L 50.500922 43.927588 
L 50.000345 44.08877 
L 49.499768 44.249952 
L 49.163834 44.880783 
L 48.8279 45.511614 
L 48.491967 46.142444 
L 48.156033 46.773275 
L 48.197194 47.630202 
L 48.238354 48.487128 
L 48.279515 49.344055 
L 48.320676 50.200982 
" style="fill:none;stroke:#008000;stroke-linecap:square;stroke-width:0.533949;"/>
   </g>
   <g id="line2d_39">
    <path clip-path="url(#p0851553343)" d="M 49.472157 16.142218 
L 48.978483 16.696272 
L 48.484808 17.250325 
L 47.991134 17.804378 
L 47.497459 18.358431 
L 47.435846 19.133326 
L 47.374232 19.908221 
L 47.312619 20.683116 
L 47.251006 21.458011 
L 47.51152 22.219007 
L 47.772035 22.980004 
L 48.03255 23.741001 
L 48.293065 24.501998 
L 48.478225 25.040289 
L 48.663385 25.57858 
L 48.848545 26.116871 
L 49.033705 26.655162 
L 49.218864 27.193453 
L 49.404024 27.731743 
L 49.589184 28.270034 
L 49.774344 28.808325 
L 50.199502 29.233399 
L 50.62466 29.658472 
L 51.049819 30.083546 
L 51.474977 30.508619 
" style="fill:none;stroke:#008000;stroke-linecap:square;stroke-width:0.533949;"/>
   </g>
   <g id="line2d_40">
    <path clip-path="url(#p0851553343)" d="M 49.472157 16.142218 
L 49.56389 16.59888 
L 49.655623 17.055542 
L 49.747356 17.512204 
L 49.839089 17.968865 
L 49.930822 18.425527 
L 50.022555 18.882189 
L 50.114288 19.33885 
L 50.206021 19.795512 
L 50.297754 20.252174 
L 50.389488 20.708835 
L 50.481221 21.165497 
L 50.572954 21.622159 
L 50.664687 22.07882 
L 50.75642 22.535482 
L 50.848153 22.992144 
L 50.939886 23.448805 
L 51.031619 23.905467 
L 51.123352 24.362129 
L 51.215085 24.818791 
L 51.306818 25.275452 
L 51.398551 25.732114 
L 51.490284 26.188776 
L 51.582017 26.645437 
L 51.67375 27.102099 
L 51.765483 27.558761 
L 51.857217 28.015422 
L 51.94895 28.472084 
L 52.040683 28.928746 
L 52.132416 29.385407 
L 52.224149 29.842069 
L 52.315882 30.298731 
L 52.407615 30.755393 
" style="fill:none;stroke:#008000;stroke-linecap:square;stroke-width:0.533949;"/>
   </g>
   <g id="line2d_41">
    <path clip-path="url(#p0851553343)" d="M 51.612009 15.890022 
L 52.050845 16.157303 
L 52.489681 16.424584 
L 52.928517 16.691865 
L 53.367353 16.959146 
L 53.518191 17.480319 
L 53.669028 18.001491 
L 53.819866 18.522664 
L 53.970704 19.043837 
L 53.88851 19.859917 
L 53.806316 20.675997 
L 53.724123 21.492077 
L 53.641929 22.308158 
L 53.847605 22.849838 
L 54.053281 23.391519 
L 54.258958 23.9332 
L 54.464634 24.47488 
L 54.605182 24.961732 
L 54.745729 25.448583 
L 54.886277 25.935435 
L 55.026825 26.422286 
L 55.167372 26.909138 
L 55.30792 27.39599 
L 55.448468 27.882841 
L 55.589015 28.369693 
L 55.856433 28.94561 
L 56.123851 29.521527 
L 56.391268 30.097444 
L 56.658686 30.673361 
L 57.022231 31.379613 
L 57.385775 32.085866 
L 57.74932 32.792118 
L 58.112865 33.498371 
L 58.681958 33.96463 
L 59.251052 34.430889 
L 59.820145 34.897148 
L 60.389238 35.363407 
L 60.793816 35.912036 
L 61.198394 36.460666 
L 61.602972 37.009295 
L 62.007549 37.557925 
L 61.760712 38.2435 
L 61.513875 38.929075 
L 61.267038 39.61465 
L 61.020201 40.300226 
L 60.478463 40.752756 
L 59.936725 41.205286 
L 59.394987 41.657817 
L 58.853249 42.110347 
L 58.510412 42.610843 
L 58.167576 43.111338 
L 57.824739 43.611833 
L 57.481903 44.112328 
L 57.440742 44.897477 
L 57.399581 45.682626 
L 57.35842 46.467775 
L 57.317259 47.252924 
L 57.276098 48.038072 
L 57.234938 48.823221 
L 57.193777 49.60837 
L 57.152616 50.393519 
" style="fill:none;stroke:#008000;stroke-linecap:square;stroke-width:0.533949;"/>
   </g>
   <g id="line2d_42">
    <path clip-path="url(#p0851553343)" d="M 53.888382 16.822201 
L 54.649602 17.267952 
L 55.410822 17.713702 
L 56.172042 18.159453 
L 56.933262 18.605204 
L 57.735515 18.886383 
L 58.537768 19.167562 
L 59.34002 19.448741 
L 60.142273 19.72992 
" style="fill:none;stroke:#008000;stroke-linecap:square;stroke-width:0.533949;"/>
   </g>
   <g id="line2d_43">
    <path clip-path="url(#p0851553343)" d="M 60.115174 20.47024 
L 60.032852 21.131917 
L 59.95053 21.793595 
L 59.868209 22.455272 
L 59.785887 23.11695 
L 59.703565 23.778627 
L 59.621243 24.440305 
L 59.538922 25.101982 
L 59.4566 25.76366 
L 59.59376 26.233393 
L 59.730921 26.703126 
L 59.868081 27.17286 
L 60.005241 27.642593 
L 60.142401 28.112327 
L 60.279561 28.58206 
L 60.416721 29.051793 
L 60.553882 29.521527 
L 60.934428 30.272354 
L 61.314974 31.023182 
L 61.69552 31.77401 
L 62.076066 32.524837 
L 62.456612 33.275665 
L 62.837158 34.026493 
L 63.217704 34.77732 
L 63.59825 35.528148 
L 63.910279 35.929239 
L 64.222309 36.33033 
L 64.534339 36.731421 
L 64.846369 37.132513 
L 65.158399 37.533604 
L 65.470429 37.934695 
L 65.782458 38.335786 
L 66.094488 38.736877 
L 65.916167 39.395165 
L 65.737846 40.053452 
L 65.559525 40.71174 
L 65.381204 41.370028 
L 64.88753 42.014418 
L 64.393855 42.658807 
L 63.776699 42.850836 
L 63.159542 43.042865 
L 62.542385 43.234894 
L 61.925228 43.426923 
L 61.26691 43.934367 
L 60.608592 44.441811 
L 60.409819 44.969764 
L 60.211045 45.497716 
L 60.012271 46.025668 
L 59.813498 46.55362 
L 59.868209 47.170553 
L 59.922919 47.787486 
" style="fill:none;stroke:#008000;stroke-linecap:square;stroke-width:0.533949;"/>
   </g>
   <g id="line2d_44">
    <path clip-path="url(#p0851553343)" d="M 66.341453 28.314779 
L 65.779135 28.733073 
L 65.216817 29.151367 
L 64.654498 29.569661 
L 64.09218 29.987955 
L 63.756118 30.611837 
L 63.420056 31.235719 
L 63.083995 31.859601 
L 62.747933 32.483483 
" style="fill:none;stroke:#008000;stroke-linecap:square;stroke-width:0.533949;"/>
   </g>
   <g id="line2d_45">
    <path clip-path="url(#p0851553343)" d="M 81.509606 26.861258 
L 81.441089 27.38921 
L 81.372573 27.917162 
L 81.304057 28.445114 
L 81.235541 28.973067 
L 81.362347 29.418733 
L 81.489153 29.864399 
L 81.615959 30.310065 
L 81.742765 30.755731 
L 81.869571 31.201398 
L 81.996377 31.647064 
L 82.123183 32.09273 
L 82.249989 32.538396 
L 81.698025 33.086941 
L 81.146061 33.635486 
L 80.594096 34.184031 
L 80.042132 34.732576 
L 79.490168 35.281121 
L 78.938204 35.829666 
L 78.386239 36.37821 
L 77.834275 36.926755 
" style="fill:none;stroke:#008000;stroke-linecap:square;stroke-width:0.533949;"/>
   </g>
   <g id="line2d_46">
    <path clip-path="url(#p0851553343)" d="M 62.446258 52.779219 
L 61.743391 52.9729 
L 61.040525 53.166581 
L 60.337659 53.360263 
L 59.634793 53.553944 
L 58.931927 53.747625 
L 58.229061 53.941307 
L 57.526195 54.134988 
L 56.823329 54.328669 
L 56.120463 54.522351 
L 55.417597 54.716032 
L 54.714731 54.909713 
L 54.011865 55.103395 
L 53.308999 55.297076 
L 52.606133 55.490757 
L 51.903267 55.684439 
L 51.200401 55.87812 
" style="fill:none;stroke:#008000;stroke-linecap:square;stroke-width:0.533949;"/>
   </g>
   <g id="line2d_47">
    <path clip-path="url(#p0851553343)" d="M 13.430602 60.773584 
L 12.936896 61.27069 
L 12.44319 61.767795 
L 11.949483 62.264901 
L 11.455777 62.762006 
L 10.962071 63.259112 
L 10.468364 63.756217 
L 9.974658 64.253323 
L 9.480952 64.750428 
L 8.987245 65.247534 
L 8.493539 65.74464 
L 7.999833 66.241745 
L 7.506126 66.738851 
L 7.01242 67.235956 
L 6.518713 67.733062 
L 6.025007 68.230167 
L 5.531301 68.727273 
" style="fill:none;stroke:#008000;stroke-linecap:square;stroke-width:0.533949;"/>
   </g>
  </g>
 </g>
 <defs>
  <clipPath id="p0851553343">
   <rect height="72" width="115.332974" x="0" y="0"/>
  </clipPath>
 </defs>
</svg>
