<?xml version="1.0" encoding="utf-8" standalone="no"?>
<!DOCTYPE svg PUBLIC "-//W3C//DTD SVG 1.1//EN"
  "http://www.w3.org/Graphics/SVG/1.1/DTD/svg11.dtd">
<svg height="103.154251pt" version="1.1" viewBox="0 0 72 103.154251" width="72pt" xmlns="http://www.w3.org/2000/svg" xmlns:xlink="http://www.w3.org/1999/xlink">
 <metadata>
  <rdf:RDF xmlns:cc="http://creativecommons.org/ns#" xmlns:dc="http://purl.org/dc/elements/1.1/" xmlns:rdf="http://www.w3.org/1999/02/22-rdf-syntax-ns#">
   <cc:Work>
    <dc:type rdf:resource="http://purl.org/dc/dcmitype/StillImage"/>
    <dc:date>2022-04-21T17:35:54.148726</dc:date>
    <dc:format>image/svg+xml</dc:format>
    <dc:creator>
     <cc:Agent>
      <dc:title>Matplotlib v3.4.3, https://matplotlib.org/</dc:title>
     </cc:Agent>
    </dc:creator>
   </cc:Work>
  </rdf:RDF>
 </metadata>
 <defs>
  <style type="text/css">*{stroke-linecap:butt;stroke-linejoin:round;}</style>
 </defs>
 <g id="figure_1">
  <g id="patch_1">
   <path d="M 0 103.154251 
L 72 103.154251 
L 72 0 
L 0 0 
z
" style="fill:#ffffff;"/>
  </g>
  <g id="axes_1">
   <g id="line2d_1">
    <path clip-path="url(#p7058314d47)" d="M 56.290638 91.409461 
L 55.503881 87.456146 
L 53.932628 79.552925 
L 52.361376 71.649704 
L 50.985682 64.737795 
L 49.609988 57.825887 
L 48.303248 51.254928 
L 46.996508 44.683969 
L 45.784722 38.587783 
L 45.273782 36.025544 
L 44.104951 30.146713 
L 42.93612 24.267883 
L 41.767289 18.389053 
L 40.598458 12.510223 
L 39.29624 5.969097 
" style="fill:none;stroke:#808080;stroke-linecap:square;stroke-width:0.4;"/>
   </g>
   <g id="line2d_2">
    <path clip-path="url(#p7058314d47)" d="M 42.818559 94.863285 
L 40.810972 85.582626 
L 39.421714 79.15998 
L 38.032455 72.737335 
L 36.387726 65.131593 
L 34.742998 57.525851 
L 33.211309 50.442614 
L 31.67962 43.359378 
L 30.533397 38.061868 
L 29.387174 32.764357 
L 28.240951 27.466847 
L 27.094727 22.169336 
L 25.193398 13.376236 
L 24.508378 10.210515 
" style="fill:none;stroke:#808080;stroke-linecap:square;stroke-width:0.4;"/>
   </g>
   <g id="line2d_3">
    <path clip-path="url(#p7058314d47)" d="M 20.45025 87.09133 
L 19.238464 79.912627 
L 18.026677 72.733925 
" style="fill:none;stroke:#808080;stroke-linecap:square;stroke-width:0.4;"/>
   </g>
   <g id="line2d_4">
    <path clip-path="url(#p7058314d47)" d="M 22.52566 95.649174 
L 21.802206 89.977471 
" style="fill:none;stroke:#808080;stroke-linecap:square;stroke-width:0.4;"/>
   </g>
   <g id="line2d_5">
    <path clip-path="url(#p7058314d47)" d="M 16.211259 97.505647 
L 17.079404 96.179352 
L 18.040242 94.716676 
L 18.680047 93.390381 
L 19.136728 92.064085 
L 19.184205 90.693466 
L 19.00108 89.321143 
L 16.794544 79.685043 
L 14.588008 70.048944 
L 12.381472 60.412845 
L 10.174935 50.776745 
L 9.582607 49.861295 
" style="fill:none;stroke:#808080;stroke-linecap:square;stroke-width:0.4;"/>
   </g>
   <g id="line2d_6">
    <path clip-path="url(#p7058314d47)" d="M 15.343113 98.465421 
L 14.153935 97.277211 
L 13.376221 96.453816 
L 12.598508 95.401986 
L 12.096611 94.121718 
L 11.010582 88.892185 
L 9.924552 83.662651 
L 8.838523 78.433117 
L 7.752493 73.203584 
L 6.666464 67.97405 
L 5.580434 62.744516 
L 4.494405 57.514983 
L 3.408375 52.285449 
L 3.317943 51.141562 
L 3.272727 49.861295 
" style="fill:none;stroke:#808080;stroke-linecap:square;stroke-width:0.4;"/>
   </g>
   <g id="line2d_7">
    <path clip-path="url(#p7058314d47)" d="M 29.699164 86.394087 
L 28.533158 81.364648 
L 27.367153 76.33521 
L 26.201148 71.305771 
L 25.035143 66.276332 
" style="fill:none;stroke:#808080;stroke-linecap:square;stroke-width:0.4;"/>
   </g>
   <g id="line2d_8">
    <path clip-path="url(#p7058314d47)" d="M 47.482579 37.798484 
L 46.777211 39.891917 
L 48.894446 40.62709 
L 51.011681 41.362264 
L 53.128916 42.097437 
L 55.24615 42.83261 
L 56.77897 44.318087 
L 58.311789 45.803564 
L 59.844608 47.28904 
L 61.377427 48.774517 
L 62.910246 50.259993 
L 64.443066 51.74547 
L 65.975885 53.230946 
L 67.508704 54.716423 
L 68.587103 57.181491 
L 68.657188 59.059273 
L 68.727273 60.937055 
L 68.514758 63.862406 
L 67.280364 66.23968 
L 66.04597 68.616954 
L 64.9947 70.468739 
L 63.94343 72.320523 
L 62.89216 74.172308 
L 61.84089 76.024093 
L 60.697493 78.218958 
L 59.554096 80.413824 
L 58.410699 82.608689 
L 57.267301 84.803555 
L 56.754101 86.425625 
L 56.2409 88.047694 
L 55.7277 89.669764 
L 55.214499 91.291834 
" style="fill:none;stroke:#008000;stroke-linecap:square;stroke-width:0.4;"/>
   </g>
   <g id="line2d_9">
    <path clip-path="url(#p7058314d47)" d="M 30.809214 8.674535 
L 31.313513 11.131932 
L 31.817811 13.589329 
L 32.32211 16.046726 
L 32.826409 18.504123 
L 33.330707 20.961521 
L 33.835006 23.418918 
L 34.339305 25.876315 
L 34.843603 28.333712 
L 35.347902 30.791109 
L 35.852201 33.248506 
L 36.356499 35.705903 
L 36.860798 38.1633 
L 37.365096 40.620697 
L 37.869395 43.078094 
L 38.373694 45.535492 
L 38.877992 47.992889 
" style="fill:none;stroke:#4169e1;stroke-linecap:square;stroke-width:0.4;"/>
   </g>
   <g id="line2d_10">
    <path clip-path="url(#p7058314d47)" d="M 46.777211 39.891917 
L 49.212088 41.677642 
L 51.646964 43.463368 
L 53.208043 45.776714 
L 54.769123 48.090059 
L 55.78422 50.088879 
L 56.799317 52.087698 
L 58.731166 53.911781 
L 60.663016 55.735863 
L 62.529302 56.329968 
L 64.395589 56.924074 
L 66.491346 57.052782 
L 68.587103 57.181491 
" style="fill:none;stroke:#008000;stroke-linecap:square;stroke-width:0.4;"/>
   </g>
   <g id="line2d_11">
    <path clip-path="url(#p7058314d47)" d="M 38.925469 4.68883 
L 39.988043 5.466196 
L 42.359617 7.203336 
L 43.444234 8.522386 
L 44.52885 9.841436 
L 45.613467 11.160487 
L 46.698083 12.479537 
L 48.464895 14.703383 
L 50.231706 16.92723 
L 51.540707 19.088 
L 52.849707 21.248771 
L 52.929966 22.857203 
L 53.010224 24.465634 
L 52.359115 27.304043 
L 51.708006 30.142452 
L 50.651649 32.05646 
L 49.595293 33.970468 
L 48.538936 35.884476 
L 47.482579 37.798484 
L 46.562436 39.069375 
L 45.642292 40.340266 
L 44.722148 41.611157 
L 43.802005 42.882048 
L 42.571002 44.159758 
L 41.339998 45.437468 
L 40.108995 46.715179 
L 38.877992 47.992889 
" style="fill:none;stroke:#4169e1;stroke-linecap:square;stroke-width:0.4;"/>
   </g>
   <g id="line2d_12">
    <path clip-path="url(#p7058314d47)" d="M 31.528147 77.333341 
L 31.941307 79.227318 
L 32.354468 81.121295 
L 32.767628 83.015272 
L 33.180788 84.90925 
" style="fill:none;stroke:#008000;stroke-linecap:square;stroke-width:0.4;"/>
   </g>
   <g id="line2d_13">
    <path clip-path="url(#p7058314d47)" d="M 22.338014 69.987573 
L 22.71698 71.973394 
L 23.095946 73.959214 
L 23.474911 75.945035 
L 23.853877 77.930856 
L 24.232843 79.916676 
L 24.611809 81.902497 
L 24.990775 83.888317 
L 25.369741 85.874138 
" style="fill:none;stroke:#008000;stroke-linecap:square;stroke-width:0.4;"/>
   </g>
   <g id="line2d_14">
    <path clip-path="url(#p7058314d47)" d="M 20.949886 10.166191 
L 18.862041 11.084199 
L 16.774197 12.002207 
L 14.686352 12.920215 
L 12.598508 13.838223 
L 11.426286 15.253165 
L 10.254063 16.668108 
L 10.58753 18.26972 
L 10.920998 19.871333 
L 11.254465 21.472946 
L 11.587932 23.074558 
L 11.95192 24.567067 
L 12.315908 26.059575 
L 13.438393 27.685054 
L 14.560878 29.310534 
L 16.828456 31.240311 
L 19.159336 32.832547 
L 21.433696 33.495695 
L 23.699013 33.815335 
L 25.96433 34.134976 
" style="fill:none;stroke:#4169e1;stroke-linecap:square;stroke-width:0.4;"/>
   </g>
   <g id="line2d_15">
    <path clip-path="url(#p7058314d47)" d="M 44.120777 75.439363 
L 42.386747 77.393433 
L 40.652717 79.347503 
L 38.918687 81.301572 
L 37.184657 83.255642 
" style="fill:none;stroke:#008000;stroke-linecap:square;stroke-width:0.4;"/>
   </g>
   <g id="line2d_16">
    <path clip-path="url(#p7058314d47)" d="M 43.802005 42.882048 
L 45.97689 44.651579 
L 46.525556 47.400808 
L 47.074223 50.150037 
L 47.62289 52.899266 
L 48.171557 55.648495 
L 48.720223 58.397724 
L 49.26889 61.146953 
L 49.817557 63.896182 
L 50.366224 66.645411 
L 50.91489 69.39464 
L 51.463557 72.143869 
L 52.012224 74.893098 
L 52.560891 77.642327 
L 53.109558 80.391556 
L 53.658224 83.140785 
L 54.206891 85.890014 
L 54.755558 88.639243 
L 55.214499 91.291834 
" style="fill:none;stroke:#008000;stroke-linecap:square;stroke-width:0.4;"/>
   </g>
   <g id="line2d_17">
    <path clip-path="url(#p7058314d47)" d="M 43.218719 34.728229 
L 40.521591 35.546509 
L 39.122158 37.65699 
L 39.061117 40.240964 
L 39.000075 42.824939 
L 38.939034 45.408914 
L 38.877992 47.992889 
L 39.205666 49.708293 
L 39.53334 51.423698 
L 39.861014 53.139103 
L 40.188688 54.854507 
L 40.516363 56.569912 
L 40.844037 58.285317 
L 41.171711 60.000721 
L 41.499385 61.716126 
L 41.827059 63.431531 
L 42.154733 65.146935 
L 42.482407 66.86234 
L 42.810081 68.577745 
L 43.137755 70.293149 
L 43.465429 72.008554 
L 43.793103 73.723959 
L 44.120777 75.439363 
L 44.598652 77.236383 
L 45.076528 79.033403 
L 45.554404 80.830422 
L 46.032279 82.627442 
L 46.510155 84.424461 
L 46.98803 86.221481 
L 47.465906 88.0185 
L 47.943782 89.81552 
L 49.179306 91.086411 
L 50.414831 92.357302 
L 52.814665 91.824568 
L 55.214499 91.291834 
" style="fill:none;stroke:#008000;stroke-linecap:square;stroke-width:0.4;"/>
   </g>
   <g id="line2d_18">
    <path clip-path="url(#p7058314d47)" d="M 42.359617 7.203336 
L 42.257881 9.043613 
L 42.156146 10.883891 
L 42.05441 12.724169 
L 41.952674 14.564446 
L 42.478592 17.136488 
L 43.004509 19.708529 
L 43.530427 22.280571 
L 44.056344 24.852612 
L 44.582262 27.424654 
L 45.108179 29.996695 
L 45.634097 32.568737 
L 46.160014 35.140779 
L 47.482579 37.798484 
" style="fill:none;stroke:#4169e1;stroke-linecap:square;stroke-width:0.4;"/>
   </g>
   <g id="line2d_19">
    <path clip-path="url(#p7058314d47)" d="M 19.159336 32.832547 
L 19.046296 35.839726 
L 19.44349 37.362174 
L 19.840683 38.884623 
L 20.237876 40.407071 
L 20.63507 41.929519 
L 21.032263 43.451967 
L 21.429457 44.974416 
L 21.82665 46.496864 
L 22.223844 48.019312 
L 22.621037 49.541761 
L 23.018231 51.064209 
L 23.415424 52.586657 
L 23.812618 54.109105 
L 24.209811 55.631554 
L 24.607005 57.154002 
L 25.004198 58.67645 
L 25.401392 60.198899 
L 26.681567 61.341933 
L 27.961742 62.484968 
L 29.241918 63.628003 
L 30.522093 64.771038 
L 31.826572 66.319803 
L 33.131051 67.868569 
" style="fill:none;stroke:#008000;stroke-linecap:square;stroke-width:0.4;"/>
   </g>
   <g id="line2d_20">
    <path clip-path="url(#p7058314d47)" d="M 38.925469 4.68883 
L 36.752845 5.038303 
L 34.740737 6.136162 
L 32.683413 7.462458 
L 30.809214 8.674535 
L 28.40938 8.492127 
L 26.009546 8.309719 
L 24.40212 8.446951 
L 22.794695 8.584183 
L 20.949886 10.166191 
L 21.263288 11.66424 
L 21.576691 13.162289 
L 21.890094 14.660338 
L 22.203497 16.158387 
L 22.516899 17.656437 
L 22.830302 19.154486 
L 23.143705 20.652535 
L 23.457108 22.150584 
L 23.77051 23.648633 
L 24.083913 25.146682 
L 24.397316 26.644731 
L 24.710719 28.14278 
L 25.024121 29.640829 
L 25.337524 31.138878 
L 25.650927 32.636927 
L 25.96433 34.134976 
L 26.404054 36.21232 
L 26.843779 38.289665 
L 27.283504 40.367009 
L 27.723228 42.444354 
L 28.162953 44.521698 
L 28.602678 46.599042 
L 29.042402 48.676387 
L 29.482127 50.753731 
L 29.921852 52.831076 
L 30.361577 54.90842 
L 30.801301 56.985764 
L 31.241026 59.063109 
L 31.680751 61.140453 
L 32.120475 63.217798 
L 32.5602 65.295142 
L 32.999925 67.372486 
L 33.131051 67.868569 
L 33.637752 69.791953 
L 34.144452 71.715337 
L 34.651153 73.638721 
L 35.157854 75.562105 
L 35.664554 77.48549 
L 36.171255 79.408874 
L 36.677956 81.332258 
L 37.184657 83.255642 
L 37.705205 85.728382 
L 38.225753 88.201122 
L 38.746301 90.673862 
L 39.266849 93.146602 
L 40.476375 95.459947 
L 42.502047 95.4071 
" style="fill:none;stroke:#4169e1;stroke-linecap:square;stroke-width:0.4;"/>
   </g>
  </g>
 </g>
 <defs>
  <clipPath id="p7058314d47">
   <rect height="103.154251" width="72" x="0" y="0"/>
  </clipPath>
 </defs>
</svg>
