<?xml version="1.0" encoding="utf-8" standalone="no"?>
<!DOCTYPE svg PUBLIC "-//W3C//DTD SVG 1.1//EN"
  "http://www.w3.org/Graphics/SVG/1.1/DTD/svg11.dtd">
<svg height="72pt" version="1.1" viewBox="0 0 34.078093 72" width="34.078093pt" xmlns="http://www.w3.org/2000/svg" xmlns:xlink="http://www.w3.org/1999/xlink">
 <metadata>
  <rdf:RDF xmlns:cc="http://creativecommons.org/ns#" xmlns:dc="http://purl.org/dc/elements/1.1/" xmlns:rdf="http://www.w3.org/1999/02/22-rdf-syntax-ns#">
   <cc:Work>
    <dc:type rdf:resource="http://purl.org/dc/dcmitype/StillImage"/>
    <dc:date>2022-04-21T17:36:06.796892</dc:date>
    <dc:format>image/svg+xml</dc:format>
    <dc:creator>
     <cc:Agent>
      <dc:title>Matplotlib v3.4.3, https://matplotlib.org/</dc:title>
     </cc:Agent>
    </dc:creator>
   </cc:Work>
  </rdf:RDF>
 </metadata>
 <defs>
  <style type="text/css">*{stroke-linecap:butt;stroke-linejoin:round;}</style>
 </defs>
 <g id="figure_1">
  <g id="patch_1">
   <path d="M 0 72 
L 34.078093 72 
L 34.078093 0 
L 0 0 
z
" style="fill:#ffffff;"/>
  </g>
  <g id="axes_1">
   <g id="line2d_1">
    <path clip-path="url(#p4a2bb913a4)" d="M 26.742338 67.142923 
L 28.437137 64.958734 
" style="fill:none;stroke:#808080;stroke-linecap:square;stroke-width:0.4;"/>
   </g>
   <g id="line2d_2">
    <path clip-path="url(#p4a2bb913a4)" d="M 26.042841 67.971984 
L 26.749483 64.189393 
L 27.1839 61.86205 
L 27.618318 59.534707 
L 28.146334 56.708522 
L 28.674351 53.882337 
L 29.169144 51.233119 
L 29.663936 48.5839 
L 30.158729 45.934242 
L 30.653521 43.284584 
" style="fill:none;stroke:#808080;stroke-linecap:square;stroke-width:0.4;"/>
   </g>
   <g id="line2d_3">
    <path clip-path="url(#p4a2bb913a4)" d="M 19.928135 64.556498 
L 21.15422 61.336861 
" style="fill:none;stroke:#808080;stroke-linecap:square;stroke-width:0.4;"/>
   </g>
   <g id="line2d_4">
    <path clip-path="url(#p4a2bb913a4)" d="M 19.046439 67.238651 
L 18.689188 65.84488 
L 17.787487 62.32708 
L 16.885786 58.809279 
L 16.307039 56.550878 
L 15.728293 54.292477 
L 15.068093 51.716591 
L 14.489704 49.459947 
L 13.911315 47.203302 
L 13.332925 44.946658 
L 12.754536 42.690013 
L 12.23688 40.670494 
L 11.719223 38.650975 
L 11.201567 36.631456 
L 10.68391 34.611938 
L 10.000846 31.94691 
L 9.317782 29.281883 
L 8.679732 26.792065 
L 8.041682 24.302247 
L 7.403632 21.812429 
L 6.765582 19.322611 
L 5.839588 15.710399 
L 4.913593 12.098188 
L 4.384505 10.033 
L 3.855416 7.967812 
L 3.32597 5.902186 
L 2.796524 3.836559 
" style="fill:none;stroke:#808080;stroke-linecap:square;stroke-width:0.4;"/>
   </g>
   <g id="line2d_5">
    <path clip-path="url(#p4a2bb913a4)" d="M 17.225889 67.142923 
L 16.526749 64.14109 
L 15.827609 61.139256 
L 15.187772 58.391235 
L 14.547936 55.643214 
L 13.968118 53.154713 
L 13.388299 50.666213 
L 12.866892 48.426914 
L 12.345484 46.187615 
L 11.824076 43.948315 
L 11.302669 41.709016 
L 10.833062 39.692352 
L 10.363456 37.675687 
L 9.89385 35.659022 
L 9.424243 33.642358 
L 8.954816 31.626791 
L 8.485388 29.611224 
L 8.01596 27.595657 
L 7.546532 25.58009 
L 6.84775 22.580013 
L 6.148967 19.579937 
" style="fill:none;stroke:#808080;stroke-linecap:square;stroke-width:0.4;"/>
   </g>
   <g id="line2d_6">
    <path clip-path="url(#p4a2bb913a4)" d="M 7.704437 18.247642 
L 7.870916 19.296484 
L 8.037395 20.345325 
L 8.203874 21.394166 
L 8.370353 22.443008 
L 8.689914 23.480432 
L 9.009475 24.517856 
L 9.329036 25.55528 
L 9.648597 26.592704 
L 9.736123 27.297494 
L 9.82365 28.002283 
L 9.911176 28.707073 
L 9.998703 29.411863 
L 10.230737 30.278469 
L 10.462772 31.145075 
L 10.694806 32.011681 
L 10.926841 32.878287 
L 11.320531 33.792098 
L 11.714222 34.705909 
" style="fill:none;stroke:#4169e1;stroke-linecap:square;stroke-width:0.4;"/>
   </g>
   <g id="line2d_7">
    <path clip-path="url(#p4a2bb913a4)" d="M 28.437137 64.958734 
L 29.055895 65.708753 
L 29.204512 65.993303 
L 29.254527 66.327036 
L 29.130203 66.612464 
L 28.647915 67.008552 
L 28.337821 67.11921 
L 27.731209 67.193861 
L 26.742338 67.142923 
" style="fill:none;stroke:#008000;stroke-linecap:square;stroke-width:0.4;"/>
   </g>
   <g id="line2d_8">
    <path clip-path="url(#p4a2bb913a4)" d="M 30.653521 43.284584 
L 30.087279 43.866419 
L 29.521036 44.448255 
L 29.144493 45.061268 
L 28.890845 45.455599 
L 28.57575 45.788453 
L 28.382835 46.190688 
L 28.207782 47.276196 
L 28.032729 48.361704 
L 27.857676 49.447212 
L 27.682623 50.53272 
L 27.384675 51.373198 
L 27.384675 52.082379 
L 27.384675 52.79156 
L 27.174612 53.648725 
L 27.017064 54.296868 
L 26.859517 54.945011 
L 26.579432 55.802176 
L 26.044985 56.682175 
" style="fill:none;stroke:#008000;stroke-linecap:square;stroke-width:0.4;"/>
   </g>
   <g id="line2d_9">
    <path clip-path="url(#p4a2bb913a4)" d="M 11.482009 36.311337 
L 11.866053 36.818961 
L 12.250098 37.326586 
L 12.683443 37.803252 
L 13.116789 38.279918 
L 13.550134 38.756584 
L 13.983479 39.23325 
L 14.317688 40.019277 
L 14.651896 40.805305 
L 14.986104 41.591332 
L 15.320312 42.377359 
L 15.660772 42.953047 
L 16.001233 43.528735 
L 16.341693 44.104423 
L 16.682153 44.680111 
L 16.917581 45.286538 
L 17.153009 45.892964 
L 17.344853 46.530568 
L 17.536697 47.168172 
L 17.728541 47.805777 
L 17.920384 48.443381 
L 18.270669 49.216234 
L 18.620953 49.989088 
L 18.971238 50.761941 
L 19.321522 51.534795 
L 19.79881 51.937469 
L 20.276097 52.340143 
L 20.753384 52.742818 
L 21.230671 53.145492 
L 21.83246 53.587577 
L 22.43425 54.029663 
L 23.036039 54.471748 
L 23.637828 54.913833 
L 24.239617 55.355919 
L 24.841406 55.798004 
L 25.443195 56.24009 
L 26.044985 56.682175 
" style="fill:none;stroke:#008000;stroke-linecap:square;stroke-width:0.4;"/>
   </g>
   <g id="line2d_10">
    <path clip-path="url(#p4a2bb913a4)" d="M 6.71128 18.329319 
L 7.704437 18.247642 
L 8.352491 18.089998 
L 9.000544 17.932353 
L 9.854016 17.630238 
L 10.707489 17.328122 
L 11.560961 17.026007 
L 12.414433 16.723891 
L 13.184845 16.505209 
L 13.955257 16.286527 
L 14.725668 16.067844 
L 15.49608 15.849162 
L 15.986228 15.796467 
L 16.319186 16.059062 
L 16.205223 16.715548 
L 16.09126 17.372035 
L 15.794027 18.194948 
L 15.3739 19.000296 
L 14.936089 19.534268 
L 14.498278 20.068239 
L 14.060467 20.602211 
L 13.622656 21.136182 
L 13.255045 21.954705 
L 12.887434 22.773227 
L 12.519822 23.591749 
L 12.152211 24.410271 
L 12.13024 25.075759 
L 12.108269 25.741248 
L 12.086298 26.406736 
L 12.064327 27.072224 
L 11.884988 28.07891 
L 11.705648 29.085596 
L 11.526308 30.092281 
L 11.346968 31.098967 
L 11.438781 32.000703 
L 11.530595 32.902438 
L 11.622408 33.804174 
L 11.714222 34.705909 
L 11.598115 35.508623 
L 11.482009 36.311337 
" style="fill:none;stroke:#008000;stroke-linecap:square;stroke-width:0.4;"/>
   </g>
   <g id="line2d_11">
    <path clip-path="url(#p4a2bb913a4)" d="M 28.890845 45.455599 
L 29.440297 46.440109 
L 29.989749 47.424619 
L 30.602613 48.392004 
L 31.215477 49.359388 
L 31.828341 50.326772 
L 32.441205 51.294156 
L 32.529089 51.731521 
L 32.476215 52.186451 
L 32.354036 52.624694 
L 31.881035 53.394913 
L 31.104372 53.948645 
L 30.327708 54.502377 
L 29.622495 55.00561 
L 29.333479 55.763533 
L 29.044463 56.521457 
L 29.019813 57.282673 
L 28.995163 58.04389 
L 28.970512 58.805107 
L 28.945862 59.566324 
L 28.846546 60.234666 
L 28.512159 61.126083 
L 28.20278 61.671032 
L 27.893401 62.215982 
L 27.447552 62.686281 
L 27.001703 63.15658 
L 26.121615 63.739074 
L 25.241527 64.321569 
L 24.36144 64.904063 
L 23.481352 65.486557 
" style="fill:none;stroke:#4169e1;stroke-linecap:square;stroke-width:0.4;"/>
   </g>
   <g id="line2d_12">
    <path clip-path="url(#p4a2bb913a4)" d="M 26.044985 56.682175 
L 25.726853 57.40936 
L 25.408721 58.136545 
L 25.090589 58.86373 
L 24.772457 59.590915 
L 24.537207 60.513289 
L 24.301957 61.435663 
L 24.066708 62.358038 
L 23.831458 63.280412 
L 23.656405 64.383485 
L 23.481352 65.486557 
L 23.370783 66.296736 
L 23.260214 67.106915 
L 23.149645 67.917094 
L 23.039075 68.727273 
" style="fill:none;stroke:#008000;stroke-linecap:square;stroke-width:0.4;"/>
   </g>
   <g id="line2d_13">
    <path clip-path="url(#p4a2bb913a4)" d="M 6.148967 19.579937 
L 5.608089 19.659857 
L 5.222973 19.869757 
L 4.925025 20.220175 
L 4.714962 20.841971 
L 4.504898 21.463767 
L 4.364856 22.479015 
L 4.224814 23.494264 
L 3.979739 23.879812 
L 3.839697 24.789672 
L 3.883282 25.927874 
L 3.926866 27.066077 
L 4.13693 28.125237 
L 4.346993 29.184398 
L 4.859291 29.96801 
L 5.371589 30.751622 
L 5.883887 31.535234 
L 6.396185 32.318846 
L 6.868828 32.844035 
L 7.34147 33.369224 
L 7.823045 33.859284 
L 8.304619 34.349343 
L 9.021979 34.927227 
L 9.636986 35.273254 
L 10.251994 35.619282 
L 10.867001 35.965309 
L 11.482009 36.311337 
" style="fill:none;stroke:#008000;stroke-linecap:square;stroke-width:0.4;"/>
   </g>
   <g id="line2d_14">
    <path clip-path="url(#p4a2bb913a4)" d="M 12.064327 27.072224 
L 12.65915 27.048073 
L 13.253973 27.023921 
L 13.848796 26.999769 
L 14.443619 26.975618 
L 14.898756 27.063442 
L 15.248862 27.326037 
L 15.800458 28.00887 
L 16.352053 28.691704 
L 16.675901 29.45336 
L 16.999749 30.215016 
L 17.323597 30.976672 
L 17.647445 31.738328 
L 18.102761 32.302818 
L 18.558077 32.867309 
L 19.013394 33.431799 
L 19.46871 33.996289 
L 19.793808 34.604912 
L 20.118906 35.213534 
" style="fill:none;stroke:#008000;stroke-linecap:square;stroke-width:0.4;"/>
   </g>
   <g id="line2d_15">
    <path clip-path="url(#p4a2bb913a4)" d="M 24.408061 35.825669 
L 24.942151 36.267864 
L 25.476241 36.710059 
L 26.010331 37.152254 
L 26.544421 37.59445 
L 27.017064 38.075726 
L 27.489707 38.557003 
L 28.050234 39.546344 
L 28.610761 40.535684 
L 28.829398 41.419635 
L 29.048036 42.303587 
L 29.004451 42.925382 
L 28.960867 43.547178 
L 28.802962 44.571209 
L 28.890845 45.455599 
" style="fill:none;stroke:#008000;stroke-linecap:square;stroke-width:0.4;"/>
   </g>
   <g id="line2d_16">
    <path clip-path="url(#p4a2bb913a4)" d="M 1.994853 6.120868 
L 1.928405 6.752325 
L 2.02772 7.420667 
L 2.213491 8.052124 
L 2.399261 8.68358 
L 2.585032 9.315037 
L 2.770802 9.946493 
L 2.857257 10.57795 
L 2.943712 11.209406 
L 2.943712 12.199625 
L 2.943712 13.189843 
L 2.887981 13.815152 
L 2.832249 14.440461 
L 2.776518 15.065769 
L 2.720787 15.691078 
L 2.733291 16.632115 
L 2.745795 17.573152 
L 2.900038 18.361485 
L 3.054281 19.149817 
L 3.208524 19.93815 
L 3.362767 20.726482 
L 3.51701 21.514815 
L 3.671253 22.303147 
L 3.825496 23.09148 
L 3.979739 23.879812 
" style="fill:none;stroke:#4169e1;stroke-linecap:square;stroke-width:0.4;"/>
   </g>
   <g id="line2d_17">
    <path clip-path="url(#p4a2bb913a4)" d="M 2.796524 3.836559 
L 2.167763 3.891888 
L 1.697621 4.338036 
L 1.549004 4.931728 
L 1.672613 5.575479 
L 1.994853 6.120868 
L 2.514296 6.516956 
L 3.158062 6.71456 
L 3.801828 6.739151 
L 4.420944 6.689969 
L 5.04006 6.640788 
L 5.640599 6.448892 
L 6.241138 6.256996 
L 6.841676 6.0651 
L 7.442215 5.873204 
L 8.141713 5.470749 
L 8.84121 5.068294 
L 9.540707 4.66584 
L 10.240204 4.263385 
L 11.131545 3.867298 
L 12.022886 3.47121 
L 12.654506 3.371969 
L 13.286126 3.272727 
L 13.830576 3.644224 
L 14.177109 4.164144 
L 14.301433 4.783305 
L 14.276425 5.451647 
L 14.078151 6.033483 
L 13.879877 6.615319 
L 13.539416 7.138422 
L 13.198956 7.661525 
L 12.858496 8.184629 
L 12.518036 8.707732 
L 12.177576 9.230835 
L 11.837116 9.753938 
L 11.496656 10.277042 
L 11.156196 10.800145 
L 10.679623 11.809246 
L 10.20305 12.818346 
L 9.726478 13.827447 
L 9.249905 14.836548 
L 8.842817 15.455929 
L 8.43573 16.075309 
L 8.028643 16.69469 
L 7.621555 17.314071 
L 7.166418 17.821695 
L 6.71128 18.329319 
L 6.220417 19.081973 
L 6.148967 19.579937 
" style="fill:none;stroke:#008000;stroke-linecap:square;stroke-width:0.4;"/>
   </g>
   <g id="line2d_18">
    <path clip-path="url(#p4a2bb913a4)" d="M 11.482009 36.311337 
L 11.977158 36.263912 
L 12.87886 36.386427 
L 13.780561 36.508942 
L 14.402177 36.780319 
L 15.023794 37.051696 
L 15.899059 37.156206 
L 16.809334 36.928742 
L 17.816067 36.316167 
L 18.8228 35.703593 
L 19.470853 35.458563 
L 20.118906 35.213534 
L 20.74481 35.217705 
L 21.370714 35.221877 
L 21.996617 35.226049 
L 22.622521 35.23022 
L 23.515291 35.527945 
L 24.408061 35.825669 
" style="fill:none;stroke:#008000;stroke-linecap:square;stroke-width:0.4;"/>
   </g>
   <g id="line2d_19">
    <path clip-path="url(#p4a2bb913a4)" d="M 12.064327 27.072224 
L 12.31226 27.782723 
L 12.720955 28.376854 
L 13.12965 28.970985 
L 13.414379 29.565116 
L 13.699108 30.159247 
L 13.860049 30.809366 
L 14.020991 31.459486 
L 14.181932 32.109605 
L 14.342874 32.759724 
L 14.689407 33.700322 
L 15.035941 34.64092 
L 15.580748 35.458124 
L 16.125556 36.275329 
L 16.809334 36.928742 
" style="fill:none;stroke:#4169e1;stroke-dasharray:1.48,0.64;stroke-dashoffset:0;stroke-width:0.4;"/>
   </g>
   <g id="line2d_20">
    <path clip-path="url(#p4a2bb913a4)" d="M 21.15422 61.336861 
L 20.396133 60.986442 
L 19.976006 61.021572 
L 19.258646 61.546761 
L 18.908183 62.10708 
L 18.55772 62.667399 
L 18.487699 63.543006 
L 18.662752 63.980371 
L 19.363678 64.50556 
L 19.928135 64.556498 
" style="fill:none;stroke:#008000;stroke-linecap:square;stroke-width:0.4;"/>
   </g>
  </g>
 </g>
 <defs>
  <clipPath id="p4a2bb913a4">
   <rect height="72" width="34.078093" x="0" y="0"/>
  </clipPath>
 </defs>
</svg>
