<?xml version="1.0" encoding="utf-8" standalone="no"?>
<!DOCTYPE svg PUBLIC "-//W3C//DTD SVG 1.1//EN"
  "http://www.w3.org/Graphics/SVG/1.1/DTD/svg11.dtd">
<svg height="72pt" version="1.1" viewBox="0 0 32.353455 72" width="32.353455pt" xmlns="http://www.w3.org/2000/svg" xmlns:xlink="http://www.w3.org/1999/xlink">
 <metadata>
  <rdf:RDF xmlns:cc="http://creativecommons.org/ns#" xmlns:dc="http://purl.org/dc/elements/1.1/" xmlns:rdf="http://www.w3.org/1999/02/22-rdf-syntax-ns#">
   <cc:Work>
    <dc:type rdf:resource="http://purl.org/dc/dcmitype/StillImage"/>
    <dc:date>2022-04-19T00:39:32.695047</dc:date>
    <dc:format>image/svg+xml</dc:format>
    <dc:creator>
     <cc:Agent>
      <dc:title>Matplotlib v3.4.3, https://matplotlib.org/</dc:title>
     </cc:Agent>
    </dc:creator>
   </cc:Work>
  </rdf:RDF>
 </metadata>
 <defs>
  <style type="text/css">*{stroke-linecap:butt;stroke-linejoin:round;}</style>
 </defs>
 <g id="figure_1">
  <g id="patch_1">
   <path d="M 0 72 
L 32.353455 72 
L 32.353455 0 
L 0 0 
z
" style="fill:#ffffff;"/>
  </g>
  <g id="axes_1">
   <g id="line2d_1">
    <path clip-path="url(#p378d2aca63)" d="M 19.288935 68.727273 
L 20.260843 65.477843 
L 21.232752 62.228414 
L 22.20466 58.978984 
L 23.176569 55.729554 
" style="fill:none;stroke:#808080;stroke-linecap:square;stroke-width:0.4;"/>
   </g>
   <g id="line2d_2">
    <path clip-path="url(#p378d2aca63)" d="M 10.690744 59.924533 
L 10.500137 54.045021 
L 10.30953 48.165509 
L 10.118923 42.285997 
L 9.928316 36.406485 
L 9.737709 30.526973 
L 9.547101 24.647461 
L 9.356494 18.767948 
L 9.165887 12.888436 
" style="fill:none;stroke:#808080;stroke-linecap:square;stroke-width:0.4;"/>
   </g>
   <g id="line2d_3">
    <path clip-path="url(#p378d2aca63)" d="M 9.737834 60.030877 
L 9.64128 56.483493 
L 9.544727 52.936108 
L 9.448173 49.388724 
L 9.35162 45.84134 
L 9.255066 42.293955 
L 9.158513 38.746571 
L 9.06196 35.199186 
L 8.965406 31.651802 
L 8.868853 28.104418 
L 8.772299 24.557033 
L 8.675746 21.009649 
L 8.579193 17.462265 
L 8.482639 13.91488 
L 8.386086 10.367496 
L 8.289532 6.820112 
L 8.192979 3.272727 
" style="fill:none;stroke:#808080;stroke-linecap:square;stroke-width:0.4;"/>
   </g>
   <g id="line2d_4">
    <path clip-path="url(#p378d2aca63)" d="M 21.477729 54.148391 
L 21.276748 55.716961 
L 21.075766 57.28553 
L 20.686803 58.975136 
L 20.29784 60.664741 
L 19.97587 61.63023 
L 19.6539 62.595719 
L 19.331931 63.561208 
L 19.009961 64.526697 
L 18.607749 65.471896 
L 18.205537 66.417096 
L 17.803324 67.362295 
L 17.401112 68.307495 
" style="fill:none;stroke:#008000;stroke-linecap:square;stroke-width:0.4;"/>
   </g>
   <g id="line2d_5">
    <path clip-path="url(#p378d2aca63)" d="M 10.20479 4.810513 
L 10.597753 6.401471 
L 10.990716 7.992428 
L 11.243442 9.000595 
L 11.496168 10.008761 
L 11.748894 11.016927 
L 12.00162 12.025093 
L 12.144607 13.544689 
L 12.287594 15.064284 
L 12.43058 16.58388 
L 12.573567 18.103475 
L 12.701055 19.504833 
L 12.828543 20.906191 
L 12.956031 22.307549 
L 13.083519 23.708907 
L 13.090143 25.106767 
L 13.096767 26.504627 
L 13.103392 27.902487 
L 13.110016 29.300347 
L 13.116641 30.698207 
L 13.123265 32.096067 
L 13.129889 33.493927 
L 13.136514 34.891787 
L 13.123265 35.944379 
L 13.110016 36.996972 
L 13.096767 38.049565 
L 13.083519 39.102158 
L 13.016275 40.469933 
L 12.949031 41.837709 
L 12.881788 43.205485 
L 12.814544 44.573261 
L 12.694055 45.579328 
L 12.573567 46.585396 
L 12.506573 48.086801 
L 12.439579 49.588206 
L 12.526571 50.674381 
L 12.613563 51.760556 
L 12.700555 52.846731 
L 12.787546 53.932906 
L 12.955281 55.079598 
L 13.123015 56.226291 
L 13.290749 57.372984 
L 13.458483 58.519677 
L 13.203507 59.753124 
L 12.948531 60.986571 
L 12.74755 62.032517 
L 12.546569 63.078463 
L 12.345588 64.12441 
L 12.144607 65.170356 
" style="fill:none;stroke:#008000;stroke-linecap:square;stroke-width:0.4;"/>
   </g>
   <g id="line2d_6">
    <path clip-path="url(#p378d2aca63)" d="M 10.990716 7.992428 
L 10.038805 8.314258 
L 9.086895 8.636088 
L 7.585036 9.266454 
L 6.083177 9.89682 
L 5.399242 10.91618 
L 4.715306 11.935541 
L 4.379838 13.276031 
L 4.044369 14.616521 
L 3.82989 16.118626 
L 3.61541 17.620731 
L 3.40093 19.122836 
L 3.18645 20.62494 
L 2.938473 22.247381 
L 2.690497 23.869822 
L 2.44252 25.492263 
L 2.194543 27.114704 
L 2.01356 28.321565 
L 1.832578 29.528426 
L 1.651595 30.735287 
L 1.470612 31.942148 
L 1.738586 33.65834 
L 2.006561 35.374531 
L 2.75749 37.037551 
L 3.50842 38.70057 
L 3.850388 39.719581 
L 4.192355 40.738591 
L 4.534323 41.757602 
L 4.876291 42.776612 
L 5.010278 44.466218 
L 5.144266 46.155823 
L 5.057274 47.161541 
L 4.970282 48.167258 
L 4.88329 49.172976 
L 4.796299 50.178693 
L 4.608316 51.73397 
L 4.420334 53.289246 
L 4.312844 54.92498 
L 4.205354 56.560714 
L 4.285847 58.277605 
L 4.366339 59.994496 
L 4.862792 61.02645 
L 5.359246 62.058404 
L 6.16367 62.68877 
L 6.968094 63.319136 
" style="fill:none;stroke:#4169e1;stroke-linecap:square;stroke-width:0.4;"/>
   </g>
   <g id="line2d_7">
    <path clip-path="url(#p378d2aca63)" d="M 10.660747 3.577766 
L 11.975123 3.845724 
L 13.289499 4.113682 
L 14.522883 4.408926 
L 15.756267 4.704169 
L 17.177633 5.052585 
L 18.599 5.401 
L 19.537911 6.13841 
L 20.476823 6.87582 
L 21.120262 8.377924 
L 21.763702 9.880029 
L 21.763702 11.220519 
L 21.763702 12.56101 
L 21.456981 13.7119 
L 21.150259 14.862791 
L 20.843538 16.013682 
L 20.536817 17.164572 
L 20.023865 18.081087 
L 19.510914 18.997602 
L 18.759984 19.695133 
L 18.009055 20.392663 
L 16.777671 21.221724 
L 15.546287 22.050785 
L 14.314903 22.879846 
L 13.083519 23.708907 
" style="fill:none;stroke:#008000;stroke-linecap:square;stroke-width:0.4;"/>
   </g>
   <g id="line2d_8">
    <path clip-path="url(#p378d2aca63)" d="M 19.510914 18.997602 
L 20.959277 19.588089 
L 22.407641 20.178577 
L 23.891501 21.081099 
L 25.089389 21.894068 
L 25.894063 22.484206 
L 26.698737 23.074343 
L 27.503411 23.664481 
L 28.308086 24.254619 
L 29.11251 25.381022 
L 29.916934 26.507426 
L 30.158412 27.714287 
L 30.399889 28.921148 
L 30.641366 30.128009 
L 30.882843 31.33487 
L 30.70386 32.324846 
L 30.524877 33.314822 
L 30.345894 34.304798 
L 30.166911 35.294773 
L 29.335489 36.796178 
L 28.504067 38.297584 
L 27.73314 39.0217 
L 26.962212 39.745817 
L 26.191285 40.469933 
L 25.420358 41.19405 
L 24.44145 42.414204 
L 23.462542 43.634358 
L 22.577125 44.975548 
L 21.691708 46.316738 
L 21.316244 47.791557 
L 20.940779 49.266376 
L 21.075266 50.39278 
L 21.209754 51.519183 
L 21.343741 52.833787 
L 21.477729 54.148391 
" style="fill:none;stroke:#008000;stroke-linecap:square;stroke-width:0.4;"/>
   </g>
   <g id="line2d_9">
    <path clip-path="url(#p378d2aca63)" d="M 23.891501 21.081099 
L 24.038988 22.133691 
L 24.186474 23.186284 
L 24.33396 24.238877 
L 24.481446 25.29147 
L 24.588686 26.297187 
L 24.695926 27.302905 
L 24.803166 28.308622 
L 24.910406 29.31434 
L 24.856911 30.990652 
L 24.803416 32.666965 
L 24.199972 34.35587 
L 23.596529 36.044776 
L 23.174069 36.96339 
L 22.751609 37.882004 
L 22.329148 38.800617 
L 21.906688 39.719231 
L 21.839695 41.476001 
L 21.772701 43.232771 
L 21.732205 44.774754 
L 21.691708 46.316738 
" style="fill:none;stroke:#4169e1;stroke-linecap:square;stroke-width:0.4;"/>
   </g>
   <g id="line2d_10">
    <path clip-path="url(#p378d2aca63)" d="M 21.906688 39.719231 
L 20.279841 40.361491 
L 18.652994 41.003751 
L 17.285123 41.620124 
L 15.917252 42.236498 
L 15.141575 42.820689 
L 14.365898 43.40488 
L 13.590221 43.98907 
L 12.814544 44.573261 
" style="fill:none;stroke:#008000;stroke-linecap:square;stroke-width:0.4;"/>
   </g>
   <g id="line2d_11">
    <path clip-path="url(#p378d2aca63)" d="M 20.940779 49.266376 
L 19.662899 50.511717 
L 18.38502 51.757058 
L 17.707583 52.561632 
L 17.030147 53.366206 
L 16.352711 54.17078 
L 15.675275 54.975354 
L 15.121077 55.861434 
L 14.566879 56.747515 
L 14.012681 57.633596 
L 13.458483 58.519677 
" style="fill:none;stroke:#008000;stroke-linecap:square;stroke-width:0.4;"/>
   </g>
  </g>
 </g>
 <defs>
  <clipPath id="p378d2aca63">
   <rect height="72" width="32.353455" x="0" y="0"/>
  </clipPath>
 </defs>
</svg>
