<?xml version="1.0" encoding="utf-8" standalone="no"?>
<!DOCTYPE svg PUBLIC "-//W3C//DTD SVG 1.1//EN"
  "http://www.w3.org/Graphics/SVG/1.1/DTD/svg11.dtd">
<svg height="103.009711pt" version="1.1" viewBox="0 0 72 103.009711" width="72pt" xmlns="http://www.w3.org/2000/svg" xmlns:xlink="http://www.w3.org/1999/xlink">
 <metadata>
  <rdf:RDF xmlns:cc="http://creativecommons.org/ns#" xmlns:dc="http://purl.org/dc/elements/1.1/" xmlns:rdf="http://www.w3.org/1999/02/22-rdf-syntax-ns#">
   <cc:Work>
    <dc:type rdf:resource="http://purl.org/dc/dcmitype/StillImage"/>
    <dc:date>2022-04-19T00:40:24.055142</dc:date>
    <dc:format>image/svg+xml</dc:format>
    <dc:creator>
     <cc:Agent>
      <dc:title>Matplotlib v3.4.3, https://matplotlib.org/</dc:title>
     </cc:Agent>
    </dc:creator>
   </cc:Work>
  </rdf:RDF>
 </metadata>
 <defs>
  <style type="text/css">*{stroke-linecap:butt;stroke-linejoin:round;}</style>
 </defs>
 <g id="figure_1">
  <g id="patch_1">
   <path d="M 0 103.009711 
L 72 103.009711 
L 72 0 
L 0 0 
z
" style="fill:#ffffff;"/>
  </g>
  <g id="axes_1">
   <g id="line2d_1">
    <path clip-path="url(#p3b41ee42d0)" d="M 21.105085 92.659073 
L 21.495047 90.129824 
L 21.730859 88.598962 
L 21.966671 87.0681 
L 22.249232 85.234638 
L 22.531792 83.401177 
L 22.814352 81.567715 
L 23.096912 79.734253 
L 23.457879 77.393411 
L 23.818846 75.052568 
L 24.169457 72.777221 
L 24.520069 70.501874 
L 24.84553 68.389417 
L 25.170992 66.276959 
L 25.503851 64.117719 
L 25.83671 61.958479 
L 26.192055 59.654425 
L 26.547401 57.35037 
L 26.93115 54.860248 
L 27.314899 52.370125 
L 27.698649 49.880215 
L 28.082398 47.390306 
L 28.457863 44.954409 
L 28.833327 42.518512 
L 29.063666 41.024226 
L 29.294004 39.529939 
L 29.524342 38.035653 
L 29.754681 36.541367 
L 30.156774 33.932161 
L 30.558868 31.322955 
L 30.831072 29.556265 
L 31.103277 27.789575 
L 31.452409 25.526137 
L 31.747691 23.610167 
" style="fill:none;stroke:#808080;stroke-linecap:square;stroke-width:0.4;"/>
   </g>
   <g id="line2d_2">
    <path clip-path="url(#p3b41ee42d0)" d="M 25.576341 92.616969 
L 25.592318 92.059828 
L 25.660665 89.635627 
L 25.729012 87.211426 
L 25.772505 85.668443 
L 25.815999 84.12546 
L 25.869552 82.232669 
L 25.923105 80.339878 
L 25.966303 78.800085 
L 26.009501 77.260292 
L 26.059208 75.506787 
" style="fill:none;stroke:#808080;stroke-linecap:square;stroke-width:0.4;"/>
   </g>
   <g id="line2d_3">
    <path clip-path="url(#p3b41ee42d0)" d="M 27.864634 93.058003 
L 27.948662 91.095038 
L 28.032691 89.132073 
" style="fill:none;stroke:#808080;stroke-linecap:square;stroke-width:0.4;"/>
   </g>
   <g id="line2d_4">
    <path clip-path="url(#p3b41ee42d0)" d="M 31.642952 95.682095 
L 31.464539 94.296473 
L 31.286127 92.91085 
" style="fill:none;stroke:#808080;stroke-linecap:square;stroke-width:0.4;"/>
   </g>
   <g id="line2d_5">
    <path clip-path="url(#p3b41ee42d0)" d="M 33.637146 94.548249 
L 33.628862 93.670859 
L 33.616435 92.33372 
L 33.604008 90.996582 
L 33.583889 88.875618 
L 33.563769 86.754655 
L 33.540987 84.3077 
L 33.518205 81.860746 
L 33.504446 80.391658 
L 33.490688 78.922571 
L 33.47693 77.453484 
L 33.463172 75.984397 
L 33.438614 73.37115 
L 33.414057 70.757904 
L 33.397636 69.018221 
L 33.381215 67.278537 
L 33.364794 65.538854 
L 33.348373 63.799171 
L 33.332691 62.128705 
L 33.31701 60.458239 
L 33.301328 58.787773 
L 33.285647 57.117307 
L 33.271741 55.637374 
L 33.257835 54.157442 
L 33.243929 52.67751 
L 33.230023 51.197577 
L 33.211087 49.176559 
L 33.192151 47.155541 
L 33.172623 45.076895 
L 33.153095 42.998248 
L 33.134455 40.997432 
L 33.115815 38.996615 
L 33.092441 36.498625 
L 33.069067 34.000634 
L 33.046285 31.596422 
L 33.023502 29.19221 
L 33.009004 27.630514 
L 32.994507 26.068818 
L 32.986222 25.205462 
" style="fill:none;stroke:#808080;stroke-linecap:square;stroke-width:0.4;"/>
   </g>
   <g id="line2d_6">
    <path clip-path="url(#p3b41ee42d0)" d="M 45.204065 98.327451 
L 45.211166 96.286019 
L 45.216787 94.580572 
L 45.222409 92.875125 
L 45.230989 90.380112 
L 45.23957 87.885098 
L 45.247558 85.501513 
L 45.255547 83.117928 
L 45.262056 81.245551 
L 45.268565 79.373175 
L 45.273891 77.801803 
L 45.279217 76.230432 
L 45.284543 74.65906 
L 45.289868 73.087689 
L 45.29475 71.637847 
L 45.299632 70.188004 
L 45.304514 68.738162 
L 45.309396 67.288319 
L 45.313834 65.952244 
L 45.318272 64.616169 
L 45.32271 63.280094 
L 45.327148 61.944019 
L 45.333658 60.046337 
L 45.340167 58.148655 
L 45.34786 55.972828 
L 45.350818 55.016757 
" style="fill:none;stroke:#808080;stroke-linecap:square;stroke-width:0.4;"/>
   </g>
   <g id="line2d_7">
    <path clip-path="url(#p3b41ee42d0)" d="M 68.727273 54.566366 
L 67.495843 53.410831 
L 66.334388 52.321003 
L 65.172932 51.231176 
L 64.011477 50.141349 
L 62.850021 49.051521 
L 61.076549 47.387328 
L 59.303077 45.723136 
L 57.529606 44.058943 
L 55.756134 42.39475 
L 54.410792 41.132251 
L 53.065451 39.869753 
L 51.490511 38.391841 
L 49.915571 36.913929 
L 48.059993 35.172863 
L 46.204416 33.431797 
L 44.348839 31.690732 
L 42.493262 29.949666 
L 41.144074 28.683553 
L 39.794887 27.417439 
L 39.058159 26.725904 
L 38.249238 25.966746 
L 36.880523 24.682345 
L 35.747915 23.619099 
" style="fill:none;stroke:#808080;stroke-linecap:square;stroke-width:0.4;"/>
   </g>
   <g id="line2d_8">
    <path clip-path="url(#p3b41ee42d0)" d="M 53.964318 97.359472 
L 54.991594 96.279533 
L 56.01887 95.199594 
L 57.046147 94.119655 
L 58.073423 93.039716 
" style="fill:none;stroke:#808080;stroke-linecap:square;stroke-width:0.4;"/>
   </g>
   <g id="line2d_9">
    <path clip-path="url(#p3b41ee42d0)" d="M 31.729347 22.668131 
L 32.235293 22.502265 
L 32.635315 22.628579 
L 32.9735 22.900557 
L 33.311684 23.172535 
L 33.648537 22.884821 
L 33.98539 22.597107 
L 34.322244 22.309392 
L 34.659097 22.021678 
L 34.94432 21.622429 
L 35.229543 21.22318 
L 35.514766 20.823931 
L 35.799989 20.424682 
L 36.176341 20.242123 
L 36.552694 20.059563 
L 36.929046 19.877004 
L 37.305398 19.694445 
L 37.590473 19.363669 
L 37.875549 19.032893 
L 38.160624 18.702117 
L 38.445699 18.371341 
L 38.982711 17.877995 
L 39.519723 17.384649 
L 39.826841 17.10225 
L 40.133959 16.819852 
L 40.453355 16.546066 
L 40.772752 16.272281 
L 41.092148 15.998495 
L 41.411545 15.724709 
L 41.894116 15.132693 
L 42.376688 14.540678 
L 42.717091 14.300491 
L 43.057495 14.060303 
L 43.397899 13.820116 
L 43.738302 13.579929 
L 44.160367 13.26053 
L 44.582432 12.94113 
L 45.004497 12.621731 
L 45.426562 12.302332 
L 46.11092 12.074159 
L 46.795278 11.845987 
L 47.194561 11.845987 
L 47.593843 11.845987 
L 47.993126 11.845987 
L 48.392409 11.845987 
L 48.825865 11.83461 
L 49.259321 11.823233 
L 49.692777 11.811857 
L 50.126233 11.80048 
L 50.565015 11.809199 
L 51.003797 11.817917 
L 51.677799 11.80048 
L 52.316592 11.823233 
L 52.955385 11.845987 
L 53.594179 11.845987 
L 54.232972 11.845987 
L 54.620863 12.051406 
L 55.008755 12.256825 
L 55.521949 12.325298 
L 56.035143 12.393771 
L 56.548338 12.462244 
L 57.061532 12.530717 
L 57.700621 12.804184 
L 58.271067 12.781431 
L 58.841513 12.758677 
L 59.503089 12.82715 
L 60.164664 12.895623 
L 60.734814 12.964096 
L 61.304964 13.03257 
L 61.96654 13.169516 
L 62.628115 13.306462 
L 63.107432 13.511668 
L 63.586749 13.716875 
" style="fill:none;stroke:#4169e1;stroke-linecap:square;stroke-width:0.4;"/>
   </g>
   <g id="line2d_10">
    <path clip-path="url(#p3b41ee42d0)" d="M 65.229444 55.285546 
L 65.089791 55.653004 
L 65.272642 56.200363 
L 65.363771 56.747935 
L 65.454901 57.295507 
L 65.687754 57.637659 
L 65.920607 57.979812 
L 66.007298 58.458911 
L 66.093989 58.938009 
L 66.098132 59.531726 
L 66.102866 60.170099 
L 66.171361 60.626444 
L 66.239856 61.082789 
L 66.308351 61.539135 
L 66.376846 61.99548 
L 66.374626 62.440342 
L 66.372407 62.885204 
L 66.370188 63.330066 
L 66.367969 63.774929 
L 66.233346 64.219791 
L 66.098723 64.664653 
L 65.964101 65.109515 
L 65.829478 65.554377 
L 65.513484 66.194452 
L 65.316431 66.593382 
L 65.119379 66.992311 
L 64.922326 67.391241 
L 64.725274 67.790171 
L 64.430879 68.257893 
L 64.136484 68.725615 
L 63.842088 69.193337 
L 63.547693 69.661059 
L 63.319574 70.071685 
L 63.091455 70.482311 
L 62.863336 70.892936 
L 62.635216 71.303562 
L 62.31582 71.80552 
L 61.996423 72.307479 
L 61.677027 72.809437 
L 61.35763 73.311396 
L 61.015451 73.858968 
L 60.673272 74.40654 
L 60.331093 74.954111 
L 59.988915 75.501683 
L 59.715083 75.912309 
L 59.441251 76.322934 
L 59.167419 76.73356 
L 58.893587 77.144186 
L 58.457912 77.680381 
L 58.022237 78.216576 
L 57.586561 78.752771 
L 57.150886 79.288966 
L 56.788144 79.711075 
L 56.425402 80.133183 
L 56.06266 80.555292 
L 55.699917 80.977401 
L 55.332589 81.581962 
L 54.965261 82.186524 
L 54.597933 82.791086 
L 54.230605 83.395648 
L 53.776585 83.886123 
L 53.322566 84.376599 
L 52.868546 84.867074 
L 52.414527 85.35755 
L 52.092911 85.893745 
L 51.771296 86.42994 
L 51.44968 86.966135 
L 51.128064 87.50233 
L 50.83145 87.935815 
L 50.534836 88.369301 
L 50.238222 88.802786 
L 49.941608 89.236271 
L 49.553716 89.69251 
L 49.165825 90.148749 
L 48.777933 90.604988 
L 48.390042 91.061227 
L 48.070645 91.357873 
L 47.751248 91.654519 
L 47.431852 91.951164 
L 47.112455 92.24781 
L 46.75208 92.681189 
L 46.391705 93.114568 
L 45.900109 93.431097 
L 45.408514 93.747625 
L 44.916918 94.064153 
L 44.425323 94.380682 
" style="fill:none;stroke:#008000;stroke-linecap:square;stroke-width:0.4;"/>
   </g>
   <g id="line2d_11">
    <path clip-path="url(#p3b41ee42d0)" d="M 39.519723 17.384649 
L 40.237515 17.490123 
L 40.955307 17.595597 
L 41.685525 17.504158 
L 42.118981 17.435684 
L 42.552437 17.367211 
L 43.05424 17.253231 
L 43.556044 17.139251 
L 44.012282 16.956798 
L 44.449289 16.729689 
L 44.886295 16.50258 
L 45.247854 16.227624 
L 45.609413 15.952669 
L 45.974226 15.747462 
L 46.339039 15.542256 
L 46.932268 15.29133 
L 47.525496 15.040404 
L 48.079965 14.768638 
L 48.757518 14.675072 
L 49.396015 14.492619 
L 50.103451 14.492619 
L 50.810887 14.492619 
L 51.358255 14.492619 
L 52.088473 14.629565 
L 52.669571 14.478159 
" style="fill:none;stroke:#000000;stroke-linecap:square;stroke-width:0.4;"/>
   </g>
   <g id="line2d_12">
    <path clip-path="url(#p3b41ee42d0)" d="M 46.839067 55.470126 
L 47.295306 55.926471 
L 47.664853 56.13189 
L 48.0344 56.337309 
L 48.668459 56.360063 
L 49.302519 56.382816 
L 50.032737 56.565269 
L 50.717095 56.565269 
L 51.401452 56.565269 
L 51.994681 56.519762 
L 52.587909 56.474255 
L 53.044148 56.474255 
L 53.500386 56.474255 
L 53.956625 56.474255 
L 54.412863 56.474255 
L 54.9194 56.725181 
L 55.425938 56.976107 
L 56.15586 57.158561 
L 56.885783 57.341014 
L 57.294237 57.512196 
L 57.702692 57.683379 
L 58.111147 57.854561 
L 58.519602 58.025744 
L 59.00099 58.105594 
L 59.482377 58.185444 
L 59.963765 58.265293 
L 60.445153 58.345143 
L 61.033648 58.367897 
L 61.622142 58.39065 
L 62.3065 58.436157 
L 62.990857 58.481664 
L 63.292058 58.755556 
L 63.593258 59.029448 
L 63.811318 59.371601 
L 64.029377 59.713754 
" style="fill:none;stroke:#008000;stroke-linecap:square;stroke-width:0.4;"/>
   </g>
   <g id="line2d_13">
    <path clip-path="url(#p3b41ee42d0)" d="M 46.795278 53.597111 
L 46.886703 53.186486 
L 46.978128 52.77586 
L 46.978128 52.319515 
L 46.978128 51.863169 
L 47.030794 51.089977 
L 47.258913 50.656385 
L 47.487032 50.222793 
L 47.890605 49.672882 
L 48.301279 49.125523 
L 48.552181 48.760405 
L 48.803082 48.395286 
L 49.122627 47.893434 
L 49.513773 47.575098 
L 49.904919 47.256762 
L 50.171798 46.57033 
L 50.445778 45.8856 
L 50.589573 45.112407 
L 50.608805 44.586525 
L 50.628036 44.060644 
L 50.745499 43.605575 
L 50.862961 43.150505 
L 51.03871 42.463648 
L 51.158244 42.129364 
" style="fill:none;stroke:#008000;stroke-linecap:square;stroke-width:0.4;"/>
   </g>
   <g id="line2d_14">
    <path clip-path="url(#p3b41ee42d0)" d="M 41.59262 57.44989 
L 40.955307 57.475833 
L 40.453503 57.475833 
L 39.815006 57.247448 
L 39.228583 57.295507 
L 38.856373 57.932178 
L 38.514342 58.319838 
L 38.172311 58.707498 
L 37.781756 59.211051 
" style="fill:none;stroke:#008000;stroke-linecap:square;stroke-width:0.4;"/>
   </g>
   <g id="line2d_15">
    <path clip-path="url(#p3b41ee42d0)" d="M 52.587909 56.474255 
L 52.499147 57.019488 
L 52.72697 57.703793 
L 53.274338 58.205645 
L 53.913427 58.205645 
L 54.598081 58.205645 
L 55.008459 58.205645 
L 55.418837 58.205645 
L 56.05763 58.365345 
L 56.696423 58.525044 
L 57.17574 58.890163 
L 57.655056 59.255282 
L 58.248285 59.460701 
L 58.841513 59.66612 
L 59.48001 59.848573 
L 59.981814 60.350425 
L 60.32414 60.624105 
L 60.666467 60.897785 
L 60.712032 61.308623 
L 60.803161 61.764968 
L 60.848726 62.129874 
L 61.076845 62.5405 
L 61.304964 62.951126 
L 61.350529 63.361964 
L 61.397573 63.878914 
L 61.444617 64.395864 
" style="fill:none;stroke:#4169e1;stroke-linecap:square;stroke-width:0.4;"/>
   </g>
   <g id="line2d_16">
    <path clip-path="url(#p3b41ee42d0)" d="M 62.735814 62.789937 
L 63.038789 63.042565 
L 63.495619 63.589924 
L 63.792086 63.886569 
L 64.088552 64.183215 
L 64.271107 64.548334 
L 64.453661 64.913453 
L 64.750127 65.209886 
L 65.046594 65.506319 
L 65.280039 65.850385 
L 65.513484 66.194452 
" style="fill:none;stroke:#008000;stroke-linecap:square;stroke-width:0.4;"/>
   </g>
   <g id="line2d_17">
    <path clip-path="url(#p3b41ee42d0)" d="M 54.106929 17.202621 
L 54.324101 17.77805 
L 54.438013 18.416848 
L 54.551924 19.055646 
L 54.666132 19.625972 
L 54.780339 20.196297 
L 54.803122 20.721115 
L 54.825904 21.245933 
L 55.145449 21.861978 
L 55.464993 22.478023 
L 55.67033 23.230801 
L 55.875667 23.98358 
L 56.082631 24.360607 
L 56.289595 24.737634 
L 56.49656 25.114661 
L 56.703524 25.491688 
L 56.791399 26.17493 
L 56.879273 26.858172 
L 56.993333 27.257421 
L 57.107393 27.65667 
L 57.221452 28.055919 
L 57.335512 28.455168 
L 57.358294 29.162439 
L 57.381077 29.86971 
L 57.403859 30.599735 
L 57.426641 31.32976 
L 57.472206 31.968771 
L 57.517771 32.607782 
L 57.517771 33.007031 
L 57.517771 33.40628 
L 57.517771 33.805528 
L 57.517771 34.204777 
L 57.415102 34.638263 
L 57.312434 35.071748 
L 57.209765 35.505234 
L 57.107097 35.938719 
L 56.94762 36.531798 
L 56.788144 37.124877 
L 56.810926 37.649695 
L 56.833709 38.174513 
L 56.856491 38.767592 
L 56.879273 39.360671 
L 56.859746 40.023498 
L 56.840218 40.686326 
L 56.996736 41.118642 
L 57.153253 41.550958 
L 57.335512 42.235476 
L 57.517771 42.919993 
L 57.970459 43.548585 
L 58.209525 43.880317 
L 58.521969 44.19759 
" style="fill:none;stroke:#008000;stroke-linecap:square;stroke-width:0.4;"/>
   </g>
   <g id="line2d_18">
    <path clip-path="url(#p3b41ee42d0)" d="M 37.403629 29.278971 
L 37.742405 29.597307 
L 38.081181 29.915642 
L 38.309301 30.508721 
L 38.53742 31.1018 
L 38.765539 31.695091 
L 38.993658 32.288383 
L 39.381254 32.767481 
L 39.76885 33.24658 
L 39.996969 33.611486 
L 40.225088 33.976392 
L 40.544633 34.523964 
L 40.864177 35.071536 
L 41.297633 35.482161 
L 41.73109 35.892787 
L 42.141763 36.029733 
L 42.552437 36.166679 
L 42.894468 36.577305 
L 43.236499 36.987931 
L 43.836533 37.492334 
L 44.494853 37.628005 
L 45.153174 37.763675 
L 45.609413 38.037567 
L 46.065651 38.311459 
L 46.499107 38.516666 
L 46.932564 38.721872 
L 47.240569 39.007035 
L 47.548574 39.292198 
L 47.85658 39.57736 
L 48.164585 39.862523 
L 48.669939 40.297178 
L 49.175293 40.731833 
L 49.76497 41.187115 
L 50.354648 41.642397 
L 50.856452 41.870357 
L 51.158244 42.129364 
L 51.494949 42.418141 
" style="fill:none;stroke:#000000;stroke-linecap:square;stroke-width:0.4;"/>
   </g>
   <g id="line2d_19">
    <path clip-path="url(#p3b41ee42d0)" d="M 28.323831 89.190339 
L 28.320577 89.668375 
L 28.317322 90.14641 
L 28.317322 90.876648 
L 28.29454 91.332993 
L 28.271757 91.789338 
L 28.278267 92.521702 
L 28.271757 93.157949 
" style="fill:none;stroke:#008000;stroke-linecap:square;stroke-width:0.4;"/>
   </g>
   <g id="line2d_20">
    <path clip-path="url(#p3b41ee42d0)" d="M 33.311684 23.172535 
L 33.790113 23.390713 
L 34.268542 23.608892 
L 34.737503 23.910216 
L 35.206465 24.21154 
L 35.753832 23.98358 
L 36.278714 23.93786 
L 36.803595 23.89214 
L 37.328181 23.686934 
L 37.852766 23.481727 
L 38.468777 23.276308 
L 39.084788 23.070889 
L 39.746363 22.819963 
L 40.407939 22.569037 
L 40.865952 22.432729 
L 41.323966 22.296421 
L 41.78198 22.160112 
L 42.239994 22.023804 
L 42.925831 21.800523 
L 43.647173 21.565333 
L 44.172054 21.565333 
L 44.696936 21.565333 
L 45.175957 21.588086 
L 45.654977 21.610839 
L 46.385196 21.930239 
L 47.160387 21.930239 
L 47.662486 21.930239 
L 48.164585 21.930239 
L 48.643606 21.907485 
L 49.122627 21.884732 
L 49.510518 21.679312 
L 49.89841 21.473893 
L 50.422995 21.131741 
L 50.947581 20.789588 
L 51.198482 20.447436 
L 51.449384 20.105283 
L 51.654721 19.717411 
L 51.860058 19.329539 
L 52.11451 18.919976 
L 52.368962 18.510414 
L 52.593531 18.121478 
L 52.8181 17.732543 
L 53.418133 17.552216 
L 54.106929 17.202621 
" style="fill:none;stroke:#4169e1;stroke-linecap:square;stroke-width:0.4;"/>
   </g>
   <g id="line2d_21">
    <path clip-path="url(#p3b41ee42d0)" d="M 51.494949 42.418141 
L 52.179602 42.326702 
L 52.567494 42.463648 
L 52.955385 42.600594 
L 53.366059 42.600594 
L 53.776733 42.600594 
L 54.278536 42.691821 
L 54.780339 42.783047 
L 55.213796 42.942747 
L 55.647252 43.102446 
L 56.331905 43.330406 
L 56.788144 43.444599 
L 57.244382 43.558792 
L 57.970459 43.548585 
" style="fill:none;stroke:#4169e1;stroke-linecap:square;stroke-width:0.4;"/>
   </g>
   <g id="line2d_22">
    <path clip-path="url(#p3b41ee42d0)" d="M 54.106929 17.202621 
L 54.557842 17.14797 
L 55.008755 17.093319 
L 55.442211 16.956586 
L 55.875667 16.819852 
L 56.514164 16.728413 
L 57.107393 16.774133 
L 57.700621 16.819852 
L 58.430839 16.865359 
L 58.978207 16.865359 
L 59.57114 16.865359 
L 60.119099 16.865359 
L 60.803161 17.002305 
L 61.2594 16.888113 
L 61.715638 16.77392 
L 62.042284 16.228687 
L 62.674272 15.998601 
L 62.85653 15.63327 
L 63.410999 15.133544 
L 63.723443 14.629565 
L 63.769007 14.127713 
L 63.586749 13.716875 
" style="fill:none;stroke:#4169e1;stroke-linecap:square;stroke-width:0.4;"/>
   </g>
   <g id="line2d_23">
    <path clip-path="url(#p3b41ee42d0)" d="M 44.466154 55.744018 
L 44.32946 56.29159 
L 44.192766 56.839161 
L 44.055776 57.569186 
L 43.918786 58.299211 
L 43.918786 58.732696 
L 43.918786 59.166182 
L 43.918786 59.599667 
L 43.918786 60.033153 
L 43.918786 60.603584 
L 43.918786 61.174016 
L 43.918786 61.744447 
L 43.918786 62.314879 
L 43.918786 62.771118 
L 43.918786 63.227357 
L 43.918786 63.683596 
L 43.918786 64.139835 
L 43.918786 64.710266 
L 43.918786 65.280698 
L 43.918786 65.851129 
L 43.918786 66.421561 
L 43.96435 66.991886 
L 44.009915 67.562211 
L 44.05548 68.132537 
L 44.101044 68.702862 
L 44.215252 69.136347 
L 44.32946 69.569833 
L 44.443667 70.003318 
L 44.557875 70.436804 
L 44.557875 70.961516 
L 44.557875 71.486228 
L 44.557875 72.01094 
L 44.557875 72.535652 
L 44.559354 73.060045 
L 44.560833 73.584438 
L 44.562313 74.018136 
L 44.563792 74.451834 
L 44.565272 74.885532 
L 44.566751 75.31923 
L 44.543969 75.980888 
L 44.521186 76.642546 
L 44.498404 77.304204 
L 44.475622 77.965862 
L 44.474438 78.576112 
L 44.473255 79.186363 
L 44.472071 79.796613 
L 44.470888 80.406863 
L 44.469704 81.017113 
L 44.468521 81.627363 
L 44.467337 82.237613 
L 44.466154 82.847863 
L 44.32946 83.623608 
L 44.192766 84.399352 
L 44.238404 84.867074 
L 44.284043 85.334796 
L 44.329681 85.802518 
L 44.37532 86.27024 
L 44.420959 86.737962 
L 44.466597 87.205684 
L 44.512236 87.673406 
L 44.557875 88.141128 
L 44.557875 88.66584 
L 44.557875 89.190552 
L 44.557875 89.715264 
L 44.557875 90.239976 
L 44.557875 90.878774 
L 44.557875 91.517572 
L 44.557875 92.156371 
L 44.557875 92.795169 
L 44.491599 93.587925 
L 44.425323 94.380682 
L 44.389966 94.804492 
L 44.354609 95.228301 
L 44.319252 95.652111 
L 44.283895 96.075921 
L 44.283895 96.760439 
L 44.283895 97.444957 
L 44.197204 97.835168 
L 44.110512 98.22538 
" style="fill:none;stroke:#008000;stroke-linecap:square;stroke-width:0.4;"/>
   </g>
   <g id="line2d_24">
    <path clip-path="url(#p3b41ee42d0)" d="M 42.925831 21.800523 
L 43.195373 22.162026 
L 43.464914 22.52353 
L 43.647469 22.934156 
L 43.830023 23.344781 
L 44.240697 23.89214 
L 44.582728 24.143279 
L 44.924759 24.394418 
L 45.563848 24.576871 
L 46.202345 24.667885 
L 46.544672 24.96453 
L 46.886999 25.261176 
L 47.137901 25.831501 
L 47.388802 26.401827 
L 47.479931 27.040625 
L 47.711601 27.47528 
L 47.943271 27.909935 
L 48.072864 28.546607 
L 48.232636 28.934479 
L 48.392409 29.322351 
L 48.757518 30.006656 
L 49.213756 30.371562 
L 49.761124 30.87384 
L 50.178899 31.332312 
L 50.309084 31.740598 
L 50.696679 31.900298 
L 51.084275 32.059997 
L 51.403819 32.288383 
L 51.632235 32.881249 
L 51.837571 33.246367 
L 52.042908 33.611486 
L 52.567494 33.930885 
L 53.092079 34.250284 
L 53.418133 34.754263 
L 53.685012 35.345428 
L 53.776733 35.938719 
L 53.776733 36.714038 
L 53.776733 37.216316 
L 53.93976 37.582498 
L 54.102787 37.94868 
L 54.259009 38.403749 
L 54.41523 38.858818 
L 54.711845 39.452003 
L 55.008459 40.045188 
L 55.305073 40.638374 
L 55.601687 41.231559 
L 56.10349 41.733411 
L 56.650858 42.098742 
L 56.879273 42.326702 
L 57.244382 42.646101 
L 57.517771 42.919993 
" style="fill:none;stroke:#4169e1;stroke-linecap:square;stroke-width:0.4;"/>
   </g>
   <g id="line2d_25">
    <path clip-path="url(#p3b41ee42d0)" d="M 37.442092 51.817662 
L 37.373745 52.251042 
L 37.305398 52.684421 
L 37.339572 53.254852 
L 37.373745 53.825284 
L 37.407919 54.395715 
L 37.442092 54.966147 
L 37.521979 55.684795 
L 37.601865 56.403443 
L 37.681751 57.122091 
L 37.761637 57.840739 
L 37.771697 58.525895 
L 37.781756 59.211051 
L 37.788118 59.632734 
L 37.794479 60.054418 
L 37.80084 60.476101 
L 37.807202 60.897785 
L 37.818593 61.33127 
L 37.829984 61.764755 
L 37.841375 62.198241 
L 37.852766 62.631726 
L 37.864157 63.065212 
L 37.875549 63.498697 
L 37.88694 63.932183 
L 37.898331 64.365668 
L 37.944044 65.050186 
L 37.989756 65.734704 
L 38.035469 66.419222 
L 38.081181 67.10374 
L 38.081181 67.639828 
L 38.081181 68.175917 
L 38.081181 68.712006 
L 38.081181 69.248095 
L 38.103964 69.710102 
L 38.126746 70.172109 
L 38.149528 70.634116 
L 38.172311 71.096123 
L 38.195093 71.55813 
L 38.217875 72.020137 
L 38.240658 72.482144 
L 38.26344 72.944151 
L 38.286222 73.406158 
L 38.309005 73.868165 
L 38.331787 74.330172 
L 38.354569 74.792179 
L 38.377352 75.254186 
L 38.400134 75.716193 
L 38.422916 76.1782 
L 38.445699 76.640207 
L 38.468555 77.199156 
L 38.491411 77.758104 
L 38.514268 78.317053 
L 38.537124 78.876001 
L 38.55998 79.43495 
L 38.582837 79.993898 
L 38.605693 80.552847 
L 38.628549 81.111795 
L 38.63994 81.579517 
L 38.651332 82.047239 
L 38.662723 82.514961 
L 38.674114 82.982683 
L 38.685505 83.450405 
L 38.696896 83.918127 
L 38.708287 84.385849 
L 38.719679 84.853571 
L 38.788174 85.606455 
L 38.856669 86.35934 
L 38.925163 87.112225 
L 38.993658 87.865109 
L 39.016441 88.549521 
L 39.039223 89.233932 
L 39.062005 89.918344 
L 39.084788 90.602755 
L 39.10757 91.287167 
L 39.130352 91.971579 
L 39.153135 92.65599 
L 39.175917 93.340402 
L 39.187308 93.830983 
L 39.198699 94.321565 
L 39.210091 94.812147 
L 39.221482 95.302729 
L 39.084788 95.850088 
" style="fill:none;stroke:#4169e1;stroke-linecap:square;stroke-width:0.4;"/>
   </g>
   <g id="line2d_26">
    <path clip-path="url(#p3b41ee42d0)" d="M 37.852766 23.481727 
L 38.354569 23.75562 
L 38.765243 24.257472 
L 38.833886 24.827797 
L 38.902529 25.398122 
L 38.53742 26.105394 
L 38.172311 26.812665 
L 37.944191 27.314517 
L 37.716072 27.816369 
L 37.55985 28.54767 
L 37.403629 29.278971 
L 37.379071 29.757538 
L 37.354514 30.236105 
L 37.329956 30.714672 
L 37.305398 31.193239 
L 37.305398 31.809071 
L 37.305398 32.424903 
L 37.220778 32.828937 
L 37.136158 33.23297 
L 37.015441 33.8101 
L 36.894725 34.38723 
L 36.689388 35.048782 
L 36.484051 35.710334 
L 36.373394 36.281935 
L 36.262737 36.853536 
L 36.168057 37.559532 
L 36.073377 38.265527 
L 36.061986 38.676259 
L 36.050595 39.086991 
L 36.039203 39.497723 
L 36.027812 39.908455 
L 36.084842 40.41036 
L 36.141872 40.912266 
L 36.198902 41.414171 
L 36.255931 41.916076 
L 36.312961 42.417982 
L 36.369991 42.919887 
L 36.427021 43.421792 
L 36.484051 43.923698 
L 36.523994 44.362872 
L 36.563937 44.802045 
L 36.60388 45.241219 
L 36.643823 45.680393 
L 36.683766 46.119567 
L 36.723709 46.558741 
L 36.763652 46.997915 
L 36.803595 47.437088 
L 36.883407 47.98466 
L 36.96322 48.532232 
L 37.043032 49.079804 
L 37.122844 49.627375 
L 37.202656 50.174947 
L 37.282468 50.722519 
L 37.36228 51.270091 
L 37.442092 51.817662 
L 37.717552 52.308776 
L 37.993011 52.799889 
L 38.26847 53.291003 
L 38.543929 53.782116 
L 38.988776 54.124269 
L 39.433624 54.466421 
L 39.878471 54.808574 
L 40.323319 55.150726 
L 40.776302 55.446309 
L 41.229286 55.741891 
L 41.571317 56.084044 
L 41.913348 56.426197 
" style="fill:none;stroke:#000000;stroke-linecap:square;stroke-width:0.4;"/>
   </g>
   <g id="line2d_27">
    <path clip-path="url(#p3b41ee42d0)" d="M 46.199978 54.55786 
L 46.569526 54.261215 
L 46.939073 53.964569 
L 47.568694 53.64517 
L 48.257786 53.257298 
L 48.946877 52.869426 
L 49.39424 52.823919 
L 49.850478 52.641253 
L 50.306717 52.458587 
L 50.721829 52.298888 
L 51.136941 52.139188 
L 51.636525 51.990972 
L 52.136109 51.842755 
L 52.635693 51.694539 
L 53.135277 51.546322 
L 53.865495 51.363444 
L 54.321734 51.317937 
L 54.777972 51.27243 
L 55.325636 51.317937 
L 55.8733 51.363444 
L 56.009994 51.865509 
L 56.146688 52.367573 
L 56.648787 52.915145 
L 57.150886 53.462717 
L 57.789679 53.59945 
L 58.428472 53.736184 
L 58.884711 53.91885 
L 59.340949 54.101515 
L 59.979742 54.147022 
L 60.618536 54.192529 
L 61.302893 54.375195 
L 61.987251 54.55786 
L 62.626044 54.740313 
L 63.264837 54.922767 
L 63.862504 55.082466 
L 64.46017 55.242166 
L 65.089791 55.653004 
" style="fill:none;stroke:#008000;stroke-linecap:square;stroke-width:0.4;"/>
   </g>
   <g id="line2d_28">
    <path clip-path="url(#p3b41ee42d0)" d="M 31.729347 22.668131 
L 31.265416 22.194774 
L 30.801485 21.721417 
L 31.031675 21.129189 
L 31.261865 20.536961 
L 31.58999 20.173118 
L 31.918115 19.809275 
L 32.24624 19.445432 
L 32.574365 19.08159 
L 33.166114 18.549116 
L 33.757863 18.016642 
L 33.79396 17.587941 
L 33.830056 17.15924 
L 33.605783 16.715654 
L 33.38151 16.272068 
L 33.23239 15.776595 
L 33.083269 15.281122 
L 33.004566 14.705268 
" style="fill:none;stroke:#008000;stroke-linecap:square;stroke-width:0.4;"/>
   </g>
   <g id="line2d_29">
    <path clip-path="url(#p3b41ee42d0)" d="M 44.012282 56.06129 
L 43.380294 56.063417 
L 42.604511 56.063417 
L 41.913348 56.426197 
L 41.692034 56.976107 
L 41.59262 57.44989 
L 41.548239 57.658286 
L 41.58256 58.114525 
L 41.616882 58.570764 
L 41.651203 59.027003 
L 41.685525 59.483242 
L 41.913348 60.076533 
L 42.141763 60.487372 
L 42.324022 60.989224 
L 42.369587 61.399637 
L 42.601256 61.743065 
L 42.832926 62.086494 
L 43.099805 62.586219 
L 43.308692 62.929648 
L 43.51758 63.273076 
L 43.718183 63.706456 
L 43.918786 64.139835 
" style="fill:none;stroke:#008000;stroke-linecap:square;stroke-width:0.4;"/>
   </g>
   <g id="line2d_30">
    <path clip-path="url(#p3b41ee42d0)" d="M 58.521969 44.19759 
L 58.890332 44.540806 
L 59.258696 44.884022 
L 59.551908 45.407777 
L 59.84512 45.931532 
L 60.255793 46.387664 
L 60.666467 46.843797 
L 61.076549 47.506837 
L 61.2594 47.80242 
L 61.670074 48.304272 
L 62.080747 48.806124 
L 62.343188 49.114146 
L 62.605629 49.422169 
L 62.86807 49.730191 
L 63.13051 50.038214 
L 63.426977 50.517312 
L 63.723443 50.996411 
L 63.997275 51.39566 
L 64.271107 51.794909 
L 64.544938 52.194158 
L 64.81877 52.593407 
L 64.864335 53.277712 
L 64.955464 54.00795 
L 64.978247 54.441329 
L 65.001029 54.874708 
L 65.229444 55.285546 
L 65.640118 55.285546 
L 66.011736 55.059713 
L 66.23305 54.783694 
L 66.689289 54.23591 
L 66.940191 53.893757 
L 67.191092 53.551604 
L 67.422762 53.210515 
L 67.654432 52.869426 
L 68.2018 52.595533 
L 68.466903 52.18512 
" style="fill:none;stroke:#008000;stroke-linecap:square;stroke-width:0.4;"/>
   </g>
   <g id="line2d_31">
    <path clip-path="url(#p3b41ee42d0)" d="M 65.454901 57.295507 
L 65.318206 57.706132 
L 65.181512 58.116758 
L 64.893479 58.516007 
L 64.605445 58.915256 
L 64.317411 59.314505 
L 64.029377 59.713754 
L 63.883955 60.204335 
L 63.738532 60.694917 
L 63.59311 61.185499 
L 63.447688 61.676081 
L 63.091751 62.233009 
L 62.735814 62.789937 
L 62.544087 63.090623 
L 62.26922 63.416934 
L 61.994352 63.743244 
L 61.719485 64.069554 
L 61.444617 64.395864 
L 61.08365 64.82414 
L 60.625193 65.086549 
L 60.166735 65.348958 
L 59.708278 65.611367 
L 59.24982 65.873777 
L 58.864148 66.044853 
L 58.478475 66.215929 
L 58.092803 66.387005 
L 57.70713 66.558082 
L 57.205327 66.786254 
L 56.703524 67.014427 
L 56.201721 67.2426 
L 55.699917 67.470772 
L 54.969699 67.790171 
L 54.239481 68.109571 
L 53.827624 68.400475 
L 53.258065 68.802594 
L 52.688507 69.204714 
L 52.323397 69.50136 
L 51.958288 69.798005 
L 51.593179 70.094651 
L 51.22807 70.391297 
L 50.680702 70.893149 
L 50.133334 71.395001 
L 49.631235 71.805627 
L 49.129136 72.216252 
L 48.71861 72.444425 
L 48.308084 72.672598 
L 47.897558 72.90077 
L 47.487032 73.128943 
L 47.030794 73.174663 
L 46.574555 73.220382 
L 46.071125 73.311396 
L 45.567694 73.40241 
L 45.064264 73.493424 
L 44.560833 73.584438 
" style="fill:none;stroke:#008000;stroke-linecap:square;stroke-width:0.4;"/>
   </g>
   <g id="line2d_32">
    <path clip-path="url(#p3b41ee42d0)" d="M 25.621905 75.303069 
L 25.632557 75.90997 
L 25.446452 76.366315 
L 25.260347 76.82266 
L 25.241115 77.462522 
L 25.221883 78.102383 
L 25.253541 78.571487 
L 25.2852 79.040592 
L 25.130162 79.653872 
L 25.081342 80.223134 
L 25.032523 80.792396 
L 24.827186 81.453948 
L 24.621849 82.115499 
L 24.621849 82.663071 
L 24.621849 83.210643 
L 24.621849 83.758215 
L 24.621849 84.305786 
L 24.507642 84.876112 
L 24.393434 85.446437 
L 24.302305 86.062482 
L 24.211176 86.678527 
L 24.165611 87.385798 
L 24.120046 88.093069 
L 24.100518 88.733143 
L 24.080991 89.373218 
L 24.080991 90.057523 
L 24.080991 90.741828 
L 24.07315 91.32555 
L 24.065309 91.909272 
L 24.057469 92.492994 
L 24.049628 93.076717 
" style="fill:none;stroke:#008000;stroke-linecap:square;stroke-width:0.4;"/>
   </g>
   <g id="line2d_33">
    <path clip-path="url(#p3b41ee42d0)" d="M 25.2852 79.040592 
L 25.632557 79.547016 
L 25.979913 80.05344 
L 26.32727 80.559864 
L 26.674627 81.066288 
L 27.051127 81.442677 
L 27.427627 81.819066 
L 27.804128 82.195455 
L 28.180628 82.571845 
L 28.640121 83.074973 
L 29.099614 83.578101 
L 29.347261 84.010417 
L 29.594908 84.442733 
L 30.005286 84.921831 
L 30.415664 85.40093 
L 30.940546 85.902995 
L 31.465427 86.40506 
L 31.898883 86.884158 
L 32.332339 87.363257 
L 32.560459 87.842356 
L 32.788578 88.321454 
L 32.799969 88.880403 
L 32.81136 89.439351 
L 32.822751 89.9983 
L 32.834143 90.557248 
L 32.856925 90.990628 
L 32.879707 91.424007 
L 32.879707 92.199751 
L 32.879707 92.610377 
L 32.879707 93.021002 
L 32.925272 93.796747 
L 32.925272 94.344531 
" style="fill:none;stroke:#008000;stroke-linecap:square;stroke-width:0.4;"/>
   </g>
   <g id="line2d_34">
    <path clip-path="url(#p3b41ee42d0)" d="M 26.674627 53.140766 
L 26.492368 53.642618 
L 26.412482 54.121823 
L 26.332596 54.601028 
L 26.25271 55.080233 
L 26.172824 55.559438 
L 26.07193 56.107542 
L 25.971037 56.655645 
L 25.870144 57.203748 
L 25.769251 57.751852 
L 25.705638 58.150835 
L 25.642025 58.549818 
L 25.578412 58.948801 
L 25.514799 59.347784 
L 25.451186 59.746767 
L 25.387573 60.145751 
L 25.32396 60.544734 
L 25.260347 60.943717 
L 25.216705 61.380073 
L 25.173064 61.816429 
L 25.129422 62.252785 
L 25.085781 62.689142 
L 25.03637 63.185252 
L 24.986959 63.681363 
L 24.897309 64.229466 
L 24.807659 64.77757 
L 24.718009 65.325673 
L 24.628359 65.873777 
L 24.569627 66.54628 
L 24.510896 67.218783 
L 24.452165 67.891286 
L 24.393434 68.563789 
L 24.255853 69.325286 
L 24.118271 70.086783 
L 24.008501 70.695173 
L 23.898732 71.303562 
L 23.81315 71.737047 
L 23.727569 72.170533 
L 23.641987 72.604018 
L 23.556405 73.037504 
L 23.470823 73.470989 
L 23.385242 73.904475 
L 23.29966 74.33796 
L 23.214078 74.771446 
L 23.096616 75.523161 
L 22.979154 76.274876 
" style="fill:none;stroke:#4169e1;stroke-linecap:square;stroke-width:0.4;"/>
   </g>
   <g id="line2d_35">
    <path clip-path="url(#p3b41ee42d0)" d="M 10.937061 49.992281 
L 10.937061 50.311681 
L 11.074051 50.813745 
L 11.211041 51.31581 
L 11.418449 51.864445 
L 11.625857 52.41308 
L 11.714915 52.913869 
L 11.803973 53.414658 
L 12.054875 54.07621 
L 12.305776 54.737762 
L 12.568069 55.15987 
L 12.830362 55.581979 
L 13.092655 56.004088 
L 13.354948 56.426197 
L 13.697274 57.042241 
L 14.039601 57.658286 
L 14.062383 58.137385 
L 14.085166 58.616484 
L 14.107948 59.255282 
L 14.130731 59.89408 
L 14.176295 60.646858 
L 14.22186 61.399637 
L 14.22186 62.175381 
L 14.22186 62.951126 
L 14.153513 63.61289 
L 14.085166 64.274654 
L 13.993741 64.822226 
L 13.902315 65.369798 
L 13.816808 65.889832 
L 13.7313 66.409865 
L 13.645792 66.929899 
L 13.560284 67.449933 
L 13.434834 68.212067 
L 13.309383 68.974202 
L 13.218253 69.681474 
L 13.127124 70.388745 
L 13.127124 71.027543 
L 13.127124 71.666342 
L 13.172689 72.259633 
L 13.218253 72.852924 
L 13.537502 73.423249 
L 13.856751 73.993575 
L 14.141974 74.358587 
L 14.427197 74.7236 
L 14.71242 75.088612 
L 14.997643 75.453624 
L 15.499446 75.932723 
L 16.001249 76.411822 
L 16.219013 76.777472 
L 16.436777 77.143122 
L 16.65454 77.508773 
L 16.872304 77.874423 
L 17.350289 78.27314 
L 17.828274 78.671858 
L 18.30626 79.070575 
L 18.784245 79.469292 
L 19.033963 80.062371 
L 19.283681 80.65545 
L 19.557365 81.294248 
L 19.831049 81.933046 
L 19.831049 82.559086 
L 19.831049 82.976091 
L 19.831049 83.393096 
L 19.831049 83.791175 
L 19.831049 84.299407 
L 19.831049 84.807639 
L 19.853831 85.252607 
L 19.876614 85.697576 
L 19.899396 86.142544 
L 19.922178 86.587513 
L 20.010941 87.224822 
L 20.099703 87.862132 
L 20.150594 88.230015 
L 20.241871 88.777587 
L 20.333148 89.325159 
L 20.424425 89.872731 
L 20.515703 90.420302 
L 20.515703 90.853682 
L 20.515703 91.287061 
L 20.476647 92.065357 
L 20.561267 92.656096 
" style="fill:none;stroke:#4169e1;stroke-linecap:square;stroke-width:0.4;"/>
   </g>
   <g id="line2d_36">
    <path clip-path="url(#p3b41ee42d0)" d="M 5.740913 47.622093 
L 5.736179 48.167326 
L 5.530842 48.532232 
L 5.325505 48.897138 
L 4.937909 49.262257 
L 4.550313 49.627375 
L 4.641443 50.266174 
L 4.641443 50.996411 
L 4.641443 51.452756 
L 4.732572 51.863169 
L 5.052117 52.501968 
L 5.234375 52.935559 
L 5.416634 53.369151 
L 5.603627 53.964569 
L 5.555991 54.374132 
L 5.508355 54.783694 
L 5.282307 55.218349 
L 5.056259 55.653004 
L 5.259229 56.062354 
L 5.462199 56.471704 
L 5.715467 56.906359 
L 5.968736 57.341014 
L 6.285913 57.773329 
L 6.603091 58.205645 
L 7.150459 58.661991 
L 7.355796 59.072616 
L 7.561133 59.483242 
L 7.561133 60.258986 
L 7.287449 60.738085 
L 7.013765 61.217184 
L 6.810795 61.674592 
L 6.607825 62.132001 
L 6.537111 62.587283 
L 6.466397 63.042565 
L 6.466397 63.818309 
L 6.443319 64.297408 
L 6.42024 64.776507 
L 6.466101 65.506531 
L 6.511962 66.236556 
L 6.717298 66.921074 
L 6.922635 67.605592 
L 7.196319 67.924991 
L 7.470003 68.24439 
L 7.834817 68.540823 
L 8.19963 68.837256 
L 8.564739 69.111148 
L 8.929848 69.385041 
L 9.18075 69.468824 
L 9.61391 69.613001 
L 10.029318 70.071898 
L 10.371349 70.52803 
L 10.71338 70.984163 
L 11.213112 71.462198 
L 11.712844 71.940234 
L 12.169082 72.442086 
L 12.590999 72.829958 
L 13.012917 73.21783 
L 13.434834 73.605703 
L 13.856751 73.993575 
" style="fill:none;stroke:#000000;stroke-linecap:square;stroke-width:0.4;"/>
   </g>
   <g id="line2d_37">
    <path clip-path="url(#p3b41ee42d0)" d="M 24.386333 83.169814 
L 24.047853 83.715047 
L 23.709372 84.26028 
L 23.298698 84.899078 
L 23.047797 85.264197 
L 22.796895 85.629315 
L 22.70547 86.085448 
L 22.614045 86.54158 
L 22.043895 86.952419 
L 21.473744 87.363257 
L 21.1542 87.821729 
" style="fill:none;stroke:#008000;stroke-linecap:square;stroke-width:0.4;"/>
   </g>
   <g id="line2d_38">
    <path clip-path="url(#p3b41ee42d0)" d="M 31.465427 35.208482 
L 31.96723 35.664827 
L 32.149489 35.984226 
L 32.332339 36.668531 
L 32.491816 37.079157 
L 32.651292 37.489783 
L 32.719935 37.946128 
L 32.788578 38.402473 
L 32.788578 38.904325 
L 32.788578 39.406178 
L 32.788578 39.862523 
L 32.788578 40.318868 
L 32.788578 40.906365 
L 32.788578 41.493861 
L 32.788578 42.081358 
L 32.788578 42.668855 
L 32.788578 43.256351 
L 32.788578 43.843848 
L 32.788578 44.431345 
L 32.788578 45.018841 
L 32.788578 45.65764 
L 32.788578 46.296438 
L 32.788578 46.935236 
L 32.788578 47.574034 
L 32.799969 48.144466 
L 32.81136 48.714898 
L 32.822751 49.285329 
L 32.834143 49.855761 
L 32.834143 50.631292 
L 32.834143 51.406824 
L 32.879707 51.635209 
" style="fill:none;stroke:#000000;stroke-linecap:square;stroke-width:0.4;"/>
   </g>
   <g id="line2d_39">
    <path clip-path="url(#p3b41ee42d0)" d="M 5.740913 47.622093 
L 6.285913 47.666537 
L 6.830914 47.710981 
L 7.264075 47.864088 
L 7.606697 47.984873 
L 7.871801 48.07291 
L 8.428045 48.25834 
L 8.815641 48.509478 
L 9.203236 48.760617 
L 9.659475 49.262469 
L 9.800903 49.675434 
L 10.186427 49.833858 
L 10.571952 49.992281 
L 10.937061 49.992281 
L 11.575558 49.992281 
L 12.169082 50.357613 
L 12.533896 50.585785 
L 12.898709 50.813958 
L 13.218253 51.201618 
L 13.537798 51.589277 
L 13.952614 52.048174 
L 14.317723 52.550026 
L 14.769228 52.77586 
L 15.366894 52.914932 
L 15.866626 53.096322 
L 16.366358 53.277712 
L 16.868162 53.734057 
L 17.27854 54.144683 
L 17.688918 54.555309 
L 17.871768 55.057161 
L 18.510265 55.240039 
L 18.875374 55.057161 
L 19.512096 55.057161 
L 19.968335 55.057161 
L 20.378417 55.057161 
L 20.834655 55.37656 
L 20.971941 56.106797 
L 20.971941 56.882542 
L 21.290894 57.429901 
L 21.542091 57.79502 
L 21.793289 58.160138 
L 21.99833 58.639237 
L 22.203371 59.118336 
L 22.65961 59.711627 
L 23.070283 60.350425 
L 23.350772 60.900336 
L 23.803756 61.195706 
L 24.25674 61.491076 
L 24.667414 62.084367 
L 25.085781 62.689142 
" style="fill:none;stroke:#008000;stroke-linecap:square;stroke-width:0.4;"/>
   </g>
   <g id="line2d_40">
    <path clip-path="url(#p3b41ee42d0)" d="M 27.046837 50.451179 
L 27.455736 51.020972 
L 27.864634 51.590766 
L 28.273533 52.160559 
L 28.682431 52.730353 
L 28.841908 53.414658 
L 29.001384 54.098963 
L 29.012775 54.623782 
L 29.024166 55.1486 
L 29.035558 55.673418 
L 29.046949 56.198237 
L 28.989993 56.677335 
L 28.933037 57.156434 
L 28.876081 57.635533 
L 28.819125 58.114631 
L 28.682135 58.776183 
L 28.545146 59.437735 
L 28.385521 59.95107 
L 28.225897 60.464405 
L 28.066273 60.977741 
L 27.906648 61.491076 
L 27.748651 62.221739 
L 27.590654 62.952401 
L 27.432657 63.683064 
L 27.27466 64.413727 
L 27.183383 65.006912 
L 27.092106 65.600097 
L 27.000828 66.193282 
L 26.909551 66.786467 
L 26.951861 67.515429 
L 26.994171 68.24439 
L 26.906297 68.907005 
L 26.818422 69.56962 
L 26.629062 70.251799 
" style="fill:none;stroke:#4169e1;stroke-linecap:square;stroke-width:0.4;"/>
   </g>
   <g id="line2d_41">
    <path clip-path="url(#p3b41ee42d0)" d="M 28.180628 82.571845 
L 27.952213 83.302082 
L 27.45041 83.712495 
L 27.131161 84.16884 
L 26.811913 84.625186 
L 26.811913 85.035811 
L 26.811913 85.446437 
L 26.857477 86.062482 
L 26.903042 86.678527 
L 26.903042 87.157625 
L 26.903042 87.636724 
L 26.65214 88.115823 
L 26.401239 88.594921 
L 26.179925 89.144832 
L 26.199156 89.600114 
L 26.218388 90.055396 
L 26.218388 90.602755 
L 26.218388 91.150115 
L 26.088203 91.928411 
L 25.972812 92.646527 
L 25.857421 93.364644 
" style="fill:none;stroke:#008000;stroke-linecap:square;stroke-width:0.4;"/>
   </g>
   <g id="line2d_42">
    <path clip-path="url(#p3b41ee42d0)" d="M 16.274637 40.912159 
L 15.823133 41.370631 
L 15.43317 41.939893 
L 15.043208 42.509155 
L 14.917757 43.18219 
L 14.792306 43.855225 
L 14.666855 44.52826 
L 14.541404 45.201294 
L 14.518622 45.726113 
L 14.49584 46.250931 
L 14.49584 46.798503 
L 14.49584 47.346074 
L 14.404414 47.9164 
L 14.312989 48.486725 
L 14.176295 49.148277 
L 14.039601 49.809828 
L 13.993741 50.380154 
L 13.94788 50.950479 
L 13.950247 51.499327 
L 13.952614 52.048174 
" style="fill:none;stroke:#000000;stroke-dasharray:1.48,0.64;stroke-dashoffset:0;stroke-width:0.4;"/>
   </g>
   <g id="line2d_43">
    <path clip-path="url(#p3b41ee42d0)" d="M 61.076549 47.506837 
L 61.44225 47.391581 
L 61.989618 47.094936 
L 62.536986 46.79829 
L 63.267204 46.79829 
L 63.83765 46.775537 
L 64.408096 46.752783 
L 64.795988 46.912483 
L 65.183879 47.072182 
L 65.503128 47.368828 
L 65.822377 47.665474 
L 66.372112 48.172004 
" style="fill:none;stroke:#008000;stroke-linecap:square;stroke-width:0.4;"/>
   </g>
   <g id="line2d_44">
    <path clip-path="url(#p3b41ee42d0)" d="M 15.366894 52.914932 
L 15.408317 53.551604 
L 15.499446 54.00795 
L 15.590575 54.464295 
L 15.727565 54.943393 
L 15.864555 55.422492 
L 16.058353 56.015677 
L 16.252151 56.608862 
L 16.445949 57.202047 
L 16.639746 57.795232 
L 16.93858 58.503567 
L 17.237413 59.211901 
L 17.281942 59.610619 
L 17.326471 60.009336 
L 17.371 60.408053 
L 17.415529 60.806771 
L 17.449703 61.365719 
L 17.483876 61.924668 
L 17.51805 62.483616 
L 17.552223 63.042565 
L 17.552223 63.47605 
L 17.552223 63.909536 
L 17.552223 64.343021 
L 17.552223 64.776507 
L 17.495268 65.175755 
L 17.438312 65.575004 
L 17.381356 65.974253 
L 17.3244 66.373502 
L 17.244514 67.000924 
L 17.164628 67.628345 
L 17.084742 68.255767 
L 17.004856 68.883188 
L 16.799519 69.282437 
L 16.594182 69.681686 
L 16.388845 70.080935 
L 16.183508 70.480184 
L 15.938524 70.866142 
L 15.69354 71.252101 
L 15.458024 71.622961 
L 15.070428 72.261972 
L 14.682832 72.900983 
L 14.269792 73.447279 
L 13.856751 73.993575 
" style="fill:none;stroke:#4169e1;stroke-linecap:square;stroke-width:0.4;"/>
   </g>
   <g id="line2d_45">
    <path clip-path="url(#p3b41ee42d0)" d="M 31.729347 22.668131 
L 31.498269 23.416444 
L 31.267191 24.164757 
L 31.160972 24.553267 
L 31.054753 24.941777 
L 30.999425 25.410031 
L 30.944096 25.878284 
L 30.888768 26.346538 
L 30.833439 26.814791 
L 30.786099 27.316218 
L 30.738759 27.817645 
L 30.691419 28.319072 
L 30.644079 28.820499 
L 30.518629 29.493534 
L 30.393178 30.166569 
L 30.267727 30.839603 
L 30.142276 31.512638 
L 30.052774 32.106355 
L 29.963272 32.700071 
L 29.87377 33.293788 
L 29.784268 33.887505 
L 29.714959 34.400574 
L 29.645651 34.913644 
L 29.576342 35.426713 
L 29.507034 35.939782 
L 29.437725 36.452852 
L 29.368416 36.965921 
L 29.299108 37.478991 
L 29.229799 37.99206 
L 29.161378 38.431234 
L 29.092957 38.870408 
L 29.024536 39.309582 
L 28.956115 39.748755 
L 28.887694 40.187929 
L 28.819273 40.627103 
L 28.750852 41.066277 
L 28.682431 41.505451 
L 28.556907 42.052969 
L 28.431382 42.600488 
L 28.305857 43.148007 
L 28.180332 43.695525 
L 28.054807 44.243044 
L 27.929283 44.790562 
L 27.803758 45.338081 
L 27.678233 45.8856 
L 27.599309 46.456297 
L 27.520384 47.026994 
L 27.44146 47.597692 
L 27.362535 48.168389 
L 27.283611 48.739086 
L 27.204686 49.309784 
L 27.125761 49.880481 
L 27.046837 50.451179 
L 26.953784 51.123575 
L 26.860732 51.795972 
L 26.767679 52.468369 
L 26.674627 53.140766 
" style="fill:none;stroke:#4169e1;stroke-linecap:square;stroke-width:0.4;"/>
   </g>
   <g id="line2d_46">
    <path clip-path="url(#p3b41ee42d0)" d="M 68.2018 52.595533 
L 68.058005 53.277712 
L 67.973976 53.736184 
L 67.830181 54.464295 
L 67.6818 54.989007 
L 67.533419 55.513719 
L 67.385038 56.038431 
L 67.236657 56.563143 
L 67.152629 57.295507 
L 67.099963 57.932178 
L 66.849505 58.332065 
L 66.599047 58.731952 
L 66.34859 59.131839 
L 66.098132 59.531726 
" style="fill:none;stroke:#008000;stroke-linecap:square;stroke-width:0.4;"/>
   </g>
   <g id="line2d_47">
    <path clip-path="url(#p3b41ee42d0)" d="M 20.834655 35.299921 
L 20.44706 35.459621 
L 20.059464 35.61932 
L 19.560916 35.894063 
L 19.062367 36.168806 
L 18.697554 36.351471 
L 18.33274 36.534137 
L 17.988047 36.943699 
L 17.643353 37.353262 
L 17.212264 37.879143 
L 16.781174 38.405025 
L 16.530273 39.020857 
L 16.279371 39.636689 
L 16.277004 40.274424 
L 16.274637 40.912159 
L 16.274637 41.368505 
L 16.274637 41.82485 
L 16.229073 42.235476 
L 16.183508 42.646101 
L 16.183508 43.17092 
L 16.183508 43.695738 
L 16.34328 44.174837 
L 16.503052 44.653935 
L 16.664896 45.111344 
L 16.826739 45.568752 
L 17.009294 46.025097 
L 17.191848 46.481443 
L 17.189481 46.936512 
L 17.187114 47.391581 
" style="fill:none;stroke:#4169e1;stroke-linecap:square;stroke-width:0.4;"/>
   </g>
   <g id="line2d_48">
    <path clip-path="url(#p3b41ee42d0)" d="M 32.879707 51.635209 
L 32.90249 52.330998 
L 32.925272 53.026786 
L 32.948054 53.722574 
L 32.970837 54.418363 
L 32.966029 54.994748 
L 32.961221 55.571134 
L 32.956413 56.14752 
L 32.951605 56.723905 
L 32.946797 57.300291 
L 32.941989 57.876677 
L 32.937181 58.453063 
L 32.932373 59.029448 
L 32.942876 59.696476 
L 32.95338 60.363503 
L 32.963884 61.030531 
L 32.974387 61.697558 
L 32.984891 62.364586 
L 32.995394 63.031613 
L 33.005898 63.698641 
L 33.016401 64.365668 
L 33.016401 65.084369 
L 33.016401 65.803071 
L 33.016401 66.521772 
L 33.016401 67.240473 
L 33.016401 67.959174 
L 33.016401 68.677876 
L 33.016401 69.396577 
L 33.016401 70.115278 
L 33.026165 70.816967 
L 33.035929 71.518657 
L 33.045693 72.220346 
L 33.055457 72.922035 
L 33.065221 73.623725 
L 33.074984 74.325414 
L 33.084748 75.027103 
L 33.094512 75.728792 
L 33.101021 76.207253 
L 33.107531 76.685714 
L 33.107531 77.199049 
L 33.107531 77.712384 
L 33.107531 78.22572 
L 33.107531 78.739055 
L 33.107531 79.25239 
L 33.107531 79.765725 
L 33.107531 80.279061 
L 33.107531 80.792396 
L 33.107531 81.363997 
L 33.107531 81.935598 
L 33.107531 82.516768 
L 33.107531 83.097939 
L 33.107531 83.679109 
L 33.107531 84.26028 
L 33.107531 84.779303 
L 33.107531 85.298327 
L 33.107531 85.81735 
L 33.107531 86.336374 
L 33.107531 86.855398 
L 33.107531 87.374421 
L 33.107531 87.893445 
L 33.107531 88.412468 
L 33.130387 88.920115 
L 33.153243 89.427762 
L 33.1761 89.935409 
L 33.198956 90.443056 
L 33.221812 90.950703 
L 33.244669 91.45835 
L 33.267525 91.965996 
L 33.290381 92.473643 
L 33.290381 92.941365 
L 33.290381 93.409087 
L 33.290381 93.876809 
L 33.290381 94.344531 
" style="fill:none;stroke:#4169e1;stroke-linecap:square;stroke-width:0.4;"/>
   </g>
   <g id="line2d_49">
    <path clip-path="url(#p3b41ee42d0)" d="M 63.769007 15.176924 
L 63.703915 15.748525 
L 63.638823 16.320127 
L 63.635568 16.843669 
L 63.632313 17.367211 
L 63.70066 17.983256 
L 63.769007 18.599301 
L 63.940171 19.02141 
L 64.111334 19.443518 
L 64.282498 19.865627 
L 64.453661 20.287736 
L 65.024107 20.835308 
L 65.594553 21.382879 
L 65.868237 21.782128 
L 66.141921 22.181377 
L 66.415605 22.580626 
L 66.689289 22.979875 
L 66.712071 23.379124 
L 66.734854 23.778373 
L 66.757636 24.177622 
L 66.780418 24.576871 
L 66.79181 24.998873 
L 66.803201 25.420876 
L 66.814592 25.842878 
L 66.825983 26.26488 
L 66.837522 26.721226 
L 66.849061 27.177571 
L 66.8606 27.633916 
L 66.872139 28.090261 
L 66.771098 28.547138 
L 66.670057 29.004015 
L 66.569016 29.460892 
L 66.467975 29.917769 
L 66.194291 30.62504 
L 65.920607 31.332312 
L 65.690712 31.810879 
L 65.460818 32.289446 
L 65.230923 32.768013 
L 65.001029 33.24658 
L 64.658702 33.543013 
L 64.316375 33.839446 
L 64.046242 34.365328 
L 63.776108 34.891209 
L 63.498874 35.369245 
L 63.22164 35.84728 
L 63.118971 36.337755 
L 63.016303 36.828231 
L 62.913634 37.318706 
L 62.810966 37.809182 
L 62.856604 38.265474 
L 62.902243 38.721766 
L 62.947882 39.178058 
L 62.99352 39.63435 
L 63.039159 40.090642 
L 63.084798 40.546934 
L 63.130436 41.003226 
L 63.176075 41.459519 
L 63.312769 42.16679 
L 63.449463 42.874061 
L 63.70214 43.228335 
L 63.954817 43.582608 
L 64.207494 43.936882 
L 64.46017 44.291156 
L 64.798947 44.951644 
L 65.137723 45.612133 
L 65.331669 46.022758 
L 65.525615 46.433384 
L 65.71956 46.84401 
L 65.913506 47.254635 
L 66.142809 47.71332 
L 66.372112 48.172004 
L 66.643724 48.714685 
L 66.860452 49.17103 
L 67.077181 49.627375 
L 67.293909 50.083721 
L 67.510637 50.540066 
L 67.749703 50.95133 
L 67.98877 51.362593 
L 68.227837 51.773857 
L 68.466903 52.18512 
" style="fill:none;stroke:#008000;stroke-linecap:square;stroke-width:0.4;"/>
   </g>
   <g id="line2d_50">
    <path clip-path="url(#p3b41ee42d0)" d="M 24.074481 23.025382 
L 23.709372 23.344781 
L 23.344263 23.66418 
L 22.979154 23.98358 
L 22.614045 24.302979 
L 22.09301 24.509461 
L 21.571975 24.715943 
L 21.108635 24.89627 
L 20.606832 25.398122 
L 20.108284 25.467659 
L 19.609735 25.537195 
L 19.291374 25.590357 
L 18.514999 25.719648 
L 18.170601 26.12921 
L 17.826203 26.538773 
L 17.438312 27.017871 
L 17.05042 27.49697 
L 16.616964 27.816369 
L 16.183508 28.135768 
L 15.658922 28.523641 
L 15.134337 28.911513 
L 14.657683 29.095242 
L 14.181029 29.278971 
L 13.633365 29.347444 
L 13.085702 29.415917 
L 12.581532 29.505867 
L 12.077361 29.595818 
L 11.783262 30.281612 
L 11.489163 30.967406 
L 11.304241 31.376755 
L 11.11932 31.786105 
L 10.937061 32.379396 
L 10.754802 32.972688 
L 10.298564 33.47454 
L 9.979019 33.930885 
L 10.070149 34.38723 
L 10.161278 34.843576 
L 10.298268 35.505127 
L 10.435258 36.166679 
L 10.59503 36.554551 
L 10.754802 36.942424 
L 11.02819 37.535715 
L 11.215183 37.902748 
L 11.485908 38.289556 
L 11.756633 38.676365 
" style="fill:none;stroke:#008000;stroke-linecap:square;stroke-width:0.4;"/>
   </g>
   <g id="line2d_51">
    <path clip-path="url(#p3b41ee42d0)" d="M 31.729347 22.668131 
L 31.473933 23.015069 
L 31.21852 23.362006 
L 30.963106 23.708943 
L 30.707692 24.05588 
L 30.452279 24.402817 
L 30.196865 24.749755 
L 29.941451 25.096692 
L 29.686038 25.443629 
L 29.309685 25.637565 
L 28.933333 25.831501 
L 28.556981 26.025437 
L 28.180628 26.219374 
L 27.792737 26.401827 
L 27.404845 26.58428 
L 26.88026 27.063591 
L 26.355674 27.542902 
L 26.130809 27.977345 
L 25.905945 28.411787 
L 25.605928 28.730123 
L 25.305911 29.048459 
L 24.781326 29.459085 
L 24.25674 29.86971 
L 23.758192 30.121912 
L 23.259643 30.374114 
L 23.005487 30.874903 
L 22.751331 31.375692 
L 22.614341 31.991737 
L 22.477351 32.607782 
L 22.161357 33.110697 
L 21.845363 33.613613 
L 21.522564 34.160121 
L 21.199765 34.70663 
L 20.834655 35.299921 
L 20.496175 35.985502 
L 20.157695 36.671083 
L 19.950582 37.12679 
L 19.74347 37.582498 
L 19.536358 38.038205 
L 19.329246 38.493912 
L 19.170657 38.973011 
L 19.012068 39.45211 
L 18.989286 40.159381 
L 18.966504 40.866652 
L 18.670037 41.528204 
L 18.373571 42.189756 
L 18.373571 42.828554 
L 18.373571 43.467353 
L 18.350789 43.969205 
L 18.328006 44.471057 
L 18.179773 44.881789 
L 18.03154 45.292521 
L 17.883307 45.703253 
L 17.735074 46.113985 
L 17.461094 46.752783 
L 17.187114 47.391581 
L 17.004856 48.098853 
L 16.822597 48.806124 
L 16.753954 49.422169 
L 16.685311 50.038214 
L 16.505124 50.586849 
L 16.324936 51.135484 
L 16.048885 51.613519 
L 15.772834 52.091555 
L 15.36216 52.410954 
L 15.366894 52.914932 
" style="fill:none;stroke:#4169e1;stroke-linecap:square;stroke-width:0.4;"/>
   </g>
   <g id="line2d_52">
    <path clip-path="url(#p3b41ee42d0)" d="M 10.298564 33.47454 
L 10.02488 33.862412 
L 9.751196 34.250284 
L 9.248801 34.752137 
L 8.792858 35.003063 
L 8.336916 35.253989 
L 7.697827 35.664827 
L 7.301355 36.167104 
L 7.013765 36.531585 
L 6.787717 36.875014 
L 6.561668 37.218442 
L 6.283546 37.626729 
L 5.920804 37.833211 
L 5.558062 38.039694 
L 5.122535 38.15261 
L 4.687007 38.265527 
L 3.956789 38.44798 
L 3.272727 38.541546 
" style="fill:none;stroke:#008000;stroke-linecap:square;stroke-width:0.4;"/>
   </g>
   <g id="line2d_53">
    <path clip-path="url(#p3b41ee42d0)" d="M 30.833439 26.814791 
L 30.512415 27.133659 
L 30.191391 27.452526 
L 29.870368 27.771394 
L 29.549344 28.090261 
L 28.933333 28.546607 
L 28.317322 29.002952 
L 28.089203 29.390824 
L 27.861084 29.778696 
L 27.632964 30.166569 
L 27.404845 30.554441 
L 27.224066 30.988458 
L 27.043286 31.422475 
L 26.862507 31.856492 
L 26.681728 32.290509 
L 26.486155 32.73484 
L 26.290582 33.17917 
L 26.095009 33.623501 
L 25.899436 34.067831 
L 25.751054 34.501317 
L 25.602673 34.934802 
L 25.454292 35.368288 
L 25.305911 35.801773 
L 25.237564 36.258012 
L 25.169217 36.714251 
L 25.10087 37.17049 
L 25.032523 37.626729 
L 25.032523 38.025978 
L 25.032523 38.425227 
L 25.032523 38.824476 
L 25.032523 39.223725 
L 25.066697 39.874006 
L 25.10087 40.524287 
L 25.135044 41.174569 
L 25.169217 41.82485 
L 25.214782 42.349562 
L 25.260347 42.874274 
L 25.305911 43.398986 
L 25.351476 43.923698 
L 25.374406 44.653723 
L 25.397336 45.383747 
L 25.420267 46.113772 
L 25.443197 46.843797 
L 25.374554 47.368615 
L 25.305911 47.893434 
L 25.305911 48.623458 
L 25.305911 49.353483 
L 25.328694 49.969528 
L 25.351476 50.585573 
L 25.556813 51.224371 
L 25.76215 51.863169 
L 26.03613 52.593407 
L 26.355378 52.867086 
L 26.674627 53.140766 
" style="fill:none;stroke:#4169e1;stroke-linecap:square;stroke-width:0.4;"/>
   </g>
   <g id="line2d_54">
    <path clip-path="url(#p3b41ee42d0)" d="M 24.118271 70.086783 
L 23.709372 70.480184 
L 23.344263 70.959283 
L 22.979154 71.438382 
L 22.728252 72.122899 
L 22.477351 72.807417 
L 22.206921 73.401559 
L 21.936492 73.995701 
L 21.564874 74.632373 
L 21.336755 75.225664 
L 21.108635 75.818956 
L 20.652397 76.320808 
L 20.196158 76.82266 
L 19.73992 77.461458 
L 19.707965 77.696223 
L 19.603226 78.465163 
L 19.603226 79.012947 
L 19.46594 79.697252 
L 19.374811 80.176351 
L 19.283681 80.65545 
" style="fill:none;stroke:#4169e1;stroke-linecap:square;stroke-width:0.4;"/>
   </g>
   <g id="line2d_55">
    <path clip-path="url(#p3b41ee42d0)" d="M 7.301355 36.167104 
L 7.378874 36.486078 
L 7.53835 36.965177 
L 7.697827 37.444276 
L 7.743391 38.105828 
L 7.788956 38.767379 
L 7.788956 39.002144 
L 7.788956 39.56928 
L 7.788956 40.136415 
L 7.673565 40.740339 
L 7.558174 41.344263 
L 7.468524 41.812729 
L 7.378874 42.281195 
L 7.316149 42.648228 
L 7.233304 43.130516 
L 7.150459 43.612805 
L 7.104894 43.878191 
L 7.104894 44.653935 
L 7.104894 45.42968 
L 7.37769 46.150561 
L 7.520302 46.52695 
L 7.690726 47.117264 
L 7.743391 47.300142 
L 7.871801 48.07291 
" style="fill:none;stroke:#000000;stroke-dasharray:1.48,0.64;stroke-dashoffset:0;stroke-width:0.4;"/>
   </g>
   <g id="line2d_56">
    <path clip-path="url(#p3b41ee42d0)" d="M 25.621905 75.303069 
L 25.248068 75.455432 
L 24.87423 75.607795 
L 24.500393 75.760158 
L 24.126555 75.912521 
L 23.552855 76.093699 
L 22.979154 76.274876 
L 22.876486 76.674231 
L 22.773817 77.073586 
L 22.671149 77.472941 
L 22.56848 77.872297 
L 22.500133 78.374149 
L 22.431786 78.876001 
L 22.431786 79.3551 
L 22.431786 79.834198 
L 22.431786 80.313297 
L 22.431786 80.792396 
L 22.387849 81.215036 
L 22.343911 81.637677 
L 22.299974 82.060317 
L 22.256037 82.482957 
L 22.130586 83.167369 
L 22.005135 83.85178 
L 21.879684 84.536192 
L 21.754233 85.220603 
L 21.571679 85.768175 
L 21.389124 86.315747 
L 21.271662 86.862255 
L 21.1542 87.408764 
L 21.1542 87.821729 
L 21.1542 88.321454 
L 21.239412 88.773547 
L 21.324624 89.225639 
L 21.409836 89.677731 
L 21.495047 90.129824 
L 21.803645 90.548743 
L 22.112242 90.967662 
L 22.480605 91.630489 
L 22.848969 92.293317 
L 23.187746 92.588687 
L 23.526522 92.884056 
" style="fill:none;stroke:#008000;stroke-linecap:square;stroke-width:0.4;"/>
   </g>
   <g id="line2d_57">
    <path clip-path="url(#p3b41ee42d0)" d="M 7.871801 48.07291 
L 7.834521 48.395286 
L 7.834521 48.851631 
L 7.834521 49.273527 
L 7.834521 49.76985 
L 7.834521 50.266174 
L 7.857599 50.950692 
L 7.880677 51.635209 
L 7.939852 52.052002 
L 8.017371 52.593407 
L 8.175368 52.986383 
L 8.417985 53.589456 
L 8.660602 54.192529 
L 8.795225 54.807511 
L 8.929848 55.422492 
L 9.249097 56.084044 
L 9.568345 56.745596 
L 9.682553 57.384394 
L 9.796761 58.023192 
L 9.818655 58.153759 
L 9.933455 58.844444 
L 10.093079 59.540338 
L 10.252703 60.236233 
L 10.412327 60.932127 
L 10.571952 61.628022 
L 10.571952 62.095744 
L 10.571952 62.563466 
L 10.571952 63.031188 
L 10.571952 63.49891 
L 10.549169 64.251688 
L 10.526387 65.004466 
L 10.446501 65.460812 
L 10.366615 65.917157 
L 10.286729 66.373502 
L 10.206843 66.829847 
L 10.001802 67.445892 
L 9.796761 68.061937 
L 9.705335 68.837469 
L 9.61391 69.613001 
" style="fill:none;stroke:#ff0000;stroke-dasharray:1.48,0.64;stroke-dashoffset:0;stroke-width:0.4;"/>
   </g>
   <g id="line2d_58">
    <path clip-path="url(#p3b41ee42d0)" d="M 20.005615 22.076116 
L 19.449371 22.176593 
L 18.893127 22.277069 
L 18.336883 22.377546 
L 17.780639 22.478023 
L 17.235342 22.707259 
L 16.690045 22.936495 
L 16.256663 23.153237 
L 15.823281 23.36998 
L 15.389899 23.586723 
L 14.956516 23.803466 
L 14.523134 24.020208 
L 14.089752 24.236951 
L 13.65637 24.453694 
L 13.222987 24.670437 
L 12.673253 25.057033 
L 12.123518 25.443629 
L 11.712844 25.922728 
L 11.30217 26.401827 
L 10.731724 26.880925 
L 10.161278 27.360024 
L 9.61391 27.793616 
L 9.066542 28.227208 
L 8.633086 28.797533 
L 8.19963 29.367858 
L 7.814105 30.00772 
L 7.428581 30.647581 
L 7.210817 31.103395 
L 6.993054 31.559208 
L 6.77529 32.015022 
L 6.557526 32.470836 
L 6.172002 32.905491 
L 5.786477 33.340146 
L 5.442079 33.726742 
L 5.097681 34.113338 
L 4.869562 34.444114 
L 4.641443 34.77489 
L 4.413324 35.105666 
L 4.185204 35.436442 
L 3.957085 35.984014 
L 3.728966 36.531585 
L 3.500847 37.079157 
L 3.272727 37.626729 
L 3.272727 38.084137 
L 3.272727 38.541546 
L 3.272727 39.269657 
L 3.29551 39.976928 
L 3.318292 40.684199 
L 3.392409 41.089137 
L 3.466525 41.494074 
L 3.540642 41.899011 
L 3.614758 42.303949 
L 3.688875 42.708886 
L 3.762991 43.113823 
L 3.837108 43.51876 
L 3.911224 43.923698 
L 4.002354 44.608003 
L 4.344681 45.246801 
L 4.687007 45.8856 
L 4.892344 46.273472 
L 5.097681 46.661344 
L 5.419297 47.141719 
L 5.740913 47.622093 
" style="fill:none;stroke:#4169e1;stroke-linecap:square;stroke-width:0.4;"/>
   </g>
   <g id="line2d_59">
    <path clip-path="url(#p3b41ee42d0)" d="M 31.729347 22.668131 
L 32.066644 23.199329 
L 32.403941 23.730527 
L 32.345358 24.313398 
L 32.286775 24.89627 
L 32.298166 25.592058 
L 32.309557 26.287847 
L 32.320948 26.983635 
L 32.332339 27.679423 
L 32.423469 28.409661 
L 32.514598 29.139898 
L 32.434786 29.567642 
L 32.354974 29.995386 
L 32.275162 30.42313 
L 32.19535 30.850874 
L 32.115537 31.278618 
L 32.035725 31.706362 
L 31.955913 32.134106 
L 31.876101 32.561849 
L 31.670764 33.155141 
L 31.465427 33.748432 
L 31.465427 34.478457 
L 31.465427 35.208482 
L 31.398707 35.859295 
L 31.331988 36.510108 
L 31.265268 37.160921 
L 31.198548 37.811734 
L 31.556556 38.493912 
L 31.83024 38.881785 
L 32.103924 39.269657 
L 32.560163 39.771509 
L 32.788578 40.318868 
" style="fill:none;stroke:#4169e1;stroke-linecap:square;stroke-width:0.4;"/>
   </g>
   <g id="line2d_60">
    <path clip-path="url(#p3b41ee42d0)" d="M 32.879707 51.635209 
L 32.514598 52.319515 
L 32.149489 53.00382 
L 32.117091 53.563406 
L 32.084692 54.122993 
L 32.052294 54.682579 
L 32.019896 55.242166 
L 32.00673 55.926046 
L 31.993563 56.609926 
L 31.980397 57.293805 
L 31.96723 57.977685 
L 31.922479 58.417125 
L 31.877728 58.856565 
L 31.832977 59.296004 
L 31.788226 59.735444 
L 31.743475 60.174884 
L 31.698724 60.614323 
L 31.653973 61.053763 
L 31.609222 61.493202 
L 31.618838 62.108716 
L 31.628454 62.724229 
L 31.63807 63.339742 
L 31.647686 63.955255 
L 31.579339 64.62829 
L 31.510992 65.301325 
L 31.442645 65.97436 
L 31.374298 66.647394 
L 31.362907 67.423033 
L 31.351515 68.198671 
L 31.340124 68.974309 
L 31.328733 69.749947 
L 31.362907 70.229045 
L 31.39708 70.708144 
L 31.431254 71.187243 
L 31.465427 71.666342 
L 31.465427 72.099827 
L 31.465427 72.533312 
L 31.465427 72.966798 
L 31.465427 73.400283 
L 31.579339 73.788156 
L 31.69325 74.176028 
L 31.96723 74.700846 
L 32.24121 75.225664 
L 32.667861 75.477228 
L 33.094512 75.728792 
" style="fill:none;stroke:#4169e1;stroke-linecap:square;stroke-width:0.4;"/>
   </g>
   <g id="line2d_61">
    <path clip-path="url(#p3b41ee42d0)" d="M 24.393434 68.563789 
L 24.918316 68.928695 
L 25.443197 69.293601 
L 25.785228 69.590247 
L 26.127259 69.886893 
L 26.629062 70.251799 
L 26.857181 70.799371 
L 27.085301 71.346942 
L 27.31342 71.894514 
L 27.541539 72.442086 
L 27.792441 73.058131 
L 28.043342 73.674176 
L 28.294244 74.176028 
L 28.545146 74.67788 
L 28.955819 75.156979 
L 29.366493 75.636077 
L 29.620945 75.956752 
L 29.875397 76.277427 
L 30.142276 76.959606 
L 30.64763 77.530995 
L 31.152984 78.102383 
L 31.282577 78.602109 
L 31.69325 79.1954 
L 31.898587 79.720218 
L 32.103924 80.245037 
L 32.354826 80.667677 
L 32.605727 81.090317 
L 32.856629 81.512958 
L 33.107531 81.935598 
" style="fill:none;stroke:#008000;stroke-linecap:square;stroke-width:0.4;"/>
   </g>
   <g id="line2d_62">
    <path clip-path="url(#p3b41ee42d0)" d="M 28.187137 23.073441 
L 27.843331 23.323835 
L 27.499525 23.57423 
L 27.155719 23.824624 
L 26.811913 24.075019 
L 26.195902 24.257472 
L 25.579891 24.439925 
L 25.032227 24.485432 
L 24.484564 24.530939 
L 24.165315 24.896057 
L 23.846066 25.261176 
L 23.800502 25.717521 
L 23.754937 26.173867 
L 23.579188 26.541324 
L 23.119399 26.836694 
L 22.65961 27.132064 
L 22.180589 27.405744 
L 21.701568 27.679423 
L 21.480254 28.046881 
L 21.063071 28.5011 
L 20.561267 28.774567 
L 20.127811 28.911513 
L 19.694355 29.048459 
L 18.966504 29.048459 
L 18.487483 29.276632 
L 18.008462 29.504804 
L 17.620866 29.80145 
L 17.233271 30.098095 
L 16.756321 30.441311 
L 16.279371 30.784527 
L 15.934973 31.057144 
L 15.590575 31.32976 
L 15.202684 31.603652 
L 14.814792 31.877544 
L 14.475128 32.334953 
L 14.135465 32.792361 
L 13.81592 33.522599 
L 13.565018 33.955978 
L 13.314117 34.389357 
L 12.855511 34.661973 
L 12.396906 34.93459 
L 12.123222 35.299708 
L 11.849538 35.664827 
L 11.781191 36.257906 
L 11.712844 36.850984 
L 11.712844 37.091278 
L 11.712844 37.518703 
L 11.712844 37.946128 
L 11.756633 38.676365 
L 11.803973 39.45211 
L 11.530289 40.022435 
L 11.256605 40.59276 
L 11.096833 41.049105 
L 10.937061 41.505451 
L 10.777289 41.961796 
L 10.617516 42.418141 
L 10.571952 42.919993 
L 10.526387 43.421846 
L 10.298564 44.106151 
L 10.389693 44.790881 
L 10.480822 45.26998 
L 10.571952 45.749079 
L 10.800071 46.296438 
L 11.02819 46.843797 
L 11.119615 47.277389 
L 11.211041 47.710981 
L 11.256605 48.395286 
L 11.256605 48.851631 
L 11.256605 49.307976 
L 10.937061 49.992281 
" style="fill:none;stroke:#4169e1;stroke-linecap:square;stroke-width:0.4;"/>
   </g>
   <g id="line2d_63">
    <path clip-path="url(#p3b41ee42d0)" d="M 53.827624 68.400475 
L 53.867862 68.700735 
L 54.052044 69.089139 
L 54.236226 69.477543 
L 54.420408 69.865947 
L 54.60459 70.254351 
L 54.875019 70.960346 
L 55.145449 71.666342 
L 55.556122 72.168406 
L 55.966796 72.670471 
L 56.126569 73.26355 
L 56.286341 73.856629 
L 56.286341 74.44992 
L 56.286341 75.043211 
L 56.423035 75.727517 
L 56.559729 76.411822 
L 56.742283 76.98236 
L 56.924838 77.552898 
L 56.924838 78.145764 
L 57.037862 78.717365 
L 57.150886 79.288966 
" style="fill:none;stroke:#4169e1;stroke-dasharray:1.48,0.64;stroke-dashoffset:0;stroke-width:0.4;"/>
   </g>
   <g id="line2d_64">
    <path clip-path="url(#p3b41ee42d0)" d="M 33.311684 23.172535 
L 33.588031 23.592518 
L 33.864378 24.0125 
L 34.558499 24.278311 
L 34.840468 24.7253 
L 35.122436 25.172289 
L 35.373338 25.697107 
L 35.624239 26.221925 
L 35.803243 26.882414 
L 35.982248 27.542902 
L 36.210367 28.044755 
L 36.438486 28.546607 
L 36.529615 29.139685 
L 36.620745 29.732764 
L 36.620745 30.348809 
L 36.620745 30.964854 
L 36.734952 31.580899 
L 36.84916 32.196943 
L 36.992659 32.714957 
L 37.136158 33.23297 
" style="fill:none;stroke:#000000;stroke-dasharray:1.48,0.64;stroke-dashoffset:0;stroke-width:0.4;"/>
   </g>
   <g id="line2d_65">
    <path clip-path="url(#p3b41ee42d0)" d="M 56.703524 25.491688 
L 57.107097 25.945481 
L 57.609196 26.35632 
L 58.111295 26.767158 
L 58.384979 27.075074 
L 58.658663 27.38299 
L 58.932347 27.690906 
L 59.206031 27.998822 
L 59.414918 28.342251 
L 59.623805 28.685679 
L 59.688898 29.186468 
L 59.75399 29.687257 
L 59.913467 30.280549 
L 60.072943 30.87384 
L 60.438052 31.466919 
L 60.803161 32.059997 
L 61.236617 32.539096 
L 61.670074 33.018195 
L 62.035183 33.497293 
L 62.400292 33.976392 
L 62.514204 34.409984 
L 62.628115 34.843576 
L 62.924877 35.345428 
L 63.22164 35.84728 
" style="fill:none;stroke:#ff0000;stroke-dasharray:1.48,0.64;stroke-dashoffset:0;stroke-width:0.4;"/>
   </g>
   <g id="line2d_66">
    <path clip-path="url(#p3b41ee42d0)" d="M 38.446882 5.027177 
L 39.062597 4.940947 
L 39.678312 4.854718 
L 40.294027 4.768489 
L 40.909742 4.68226 
L 41.411693 4.73925 
L 41.913644 4.79624 
L 42.415595 4.85323 
L 42.917546 4.91022 
L 43.464914 4.91022 
L 44.012282 4.91022 
L 44.514085 4.933186 
L 45.015888 4.956152 
L 45.677464 5.047378 
L 46.339039 5.138605 
L 46.932268 5.344024 
L 47.525496 5.549443 
L 47.890605 5.959856 
L 48.199498 6.453628 
L 48.508391 6.947399 
L 48.659287 7.527081 
L 48.810183 8.106763 
L 49.051913 8.55524 
L 49.293642 9.003717 
L 49.507412 9.355492 
L 49.721181 9.707267 
L 49.93495 10.059042 
L 50.14872 10.410817 
L 50.362489 10.762592 
L 50.576258 11.114367 
L 50.790028 11.466142 
L 51.003797 11.817917 
L 51.424235 12.432261 
L 51.844672 13.046604 
L 52.050897 13.404493 
L 52.257122 13.762382 
L 52.463346 14.12027 
L 52.669571 14.478159 
L 52.995033 15.146941 
L 53.320495 15.815723 
L 53.713712 16.509172 
L 54.106929 17.202621 
" style="fill:none;stroke:#008000;stroke-linecap:square;stroke-width:0.4;"/>
   </g>
   <g id="line2d_67">
    <path clip-path="url(#p3b41ee42d0)" d="M 33.004566 14.705268 
L 33.022023 13.924208 
L 33.03948 13.143147 
L 33.274108 12.437152 
L 33.508737 11.731156 
L 33.754164 11.312025 
L 33.999592 10.892893 
L 34.24502 10.473761 
L 34.490448 10.05463 
L 34.764132 9.685683 
L 35.037816 9.316737 
L 35.3115 8.94779 
L 35.585184 8.578844 
L 36.045269 8.124413 
L 36.505354 7.669981 
L 36.965439 7.21555 
L 37.425523 6.761118 
L 37.662223 6.3069 
L 37.898923 5.852681 
L 38.0942 5.53796 
L 38.446882 5.027177 
" style="fill:none;stroke:#008000;stroke-linecap:square;stroke-width:0.4;"/>
   </g>
   <g id="line2d_68">
    <path clip-path="url(#p3b41ee42d0)" d="M 55.579792 19.114763 
L 56.150239 19.171753 
L 56.720685 19.228743 
L 57.125589 19.274462 
L 57.530493 19.320182 
L 57.935397 19.365902 
L 58.340302 19.411621 
L 58.956312 19.514118 
L 59.572323 19.616615 
L 60.165848 19.343148 
L 60.576521 19.400138 
L 60.987195 19.457128 
L 61.614449 19.582591 
L 62.241703 19.708054 
L 62.869253 19.970463 
L 63.496803 20.232872 
L 63.987067 20.803198 
L 64.477331 21.373523 
L 64.71122 21.903976 
L 64.945109 22.43443 
L 65.178998 22.964883 
L 65.412886 23.495337 
L 65.515555 23.957317 
L 65.618223 24.419298 
L 65.720892 24.881278 
L 65.82356 25.343259 
L 65.874894 25.879454 
L 65.926229 26.415649 
L 65.977563 26.951844 
L 66.028897 27.488039 
L 65.943389 27.972773 
L 65.857882 28.457507 
L 65.772374 28.942241 
L 65.686866 29.426975 
L 65.595589 29.94031 
L 65.504312 30.453645 
L 65.413034 30.96698 
L 65.321757 31.480315 
" style="fill:none;stroke:#4169e1;stroke-linecap:square;stroke-width:0.4;"/>
   </g>
   <g id="line2d_69">
    <path clip-path="url(#p3b41ee42d0)" d="M 56.24196 20.985651 
L 56.641094 21.008404 
L 57.040229 21.031158 
L 57.65624 21.099631 
L 58.272251 21.168104 
L 58.99093 21.30505 
L 59.709609 21.441996 
L 60.154456 21.498986 
L 60.599304 21.555976 
L 61.044151 21.612966 
L 61.488998 21.669956 
L 61.922455 21.738429 
L 62.355911 21.806902 
L 62.789367 21.875375 
L 63.222823 21.943848 
L 63.679062 22.422947 
L 64.1353 22.902046 
L 64.511653 23.51809 
L 64.888005 24.134135 
" style="fill:none;stroke:#4169e1;stroke-linecap:square;stroke-width:0.4;"/>
   </g>
   <g id="line2d_70">
    <path clip-path="url(#p3b41ee42d0)" d="M 57.085794 21.396489 
L 57.268052 21.966814 
L 57.633162 22.263247 
L 58.340302 22.194774 
L 58.808079 22.263247 
L 59.275857 22.33172 
L 60.006075 22.43443 
L 60.736294 22.537139 
L 61.363548 22.719593 
L 61.990802 22.902046 
L 62.572491 23.232928 
L 63.15418 23.56381 
L 63.713087 23.962953 
L 64.271994 24.362095 
L 64.682668 24.738697 
L 65.093342 25.115299 
" style="fill:none;stroke:#008000;stroke-linecap:square;stroke-width:0.4;"/>
   </g>
   <g id="line2d_71">
    <path clip-path="url(#p3b41ee42d0)" d="M 31.729347 22.668131 
L 31.229911 22.940003 
L 30.730475 23.211875 
L 30.231039 23.483748 
L 29.731602 23.75562 
L 29.13867 23.390288 
L 28.662904 23.231865 
L 28.187137 23.073441 
L 27.704566 22.843992 
L 27.221995 22.614544 
L 26.674627 22.614544 
L 26.127259 22.614544 
L 25.625456 22.75149 
L 25.123653 22.888436 
L 24.599067 22.956909 
L 24.074481 23.025382 
L 23.712627 22.730012 
L 23.350772 22.434643 
L 22.963177 22.137997 
L 22.575581 21.841351 
L 22.070227 21.748849 
L 21.564874 21.656346 
L 20.929631 21.840075 
L 20.294389 22.023804 
L 20.005615 22.076116 
" style="fill:none;stroke:#008000;stroke-linecap:square;stroke-width:0.4;"/>
   </g>
  </g>
 </g>
 <defs>
  <clipPath id="p3b41ee42d0">
   <rect height="103.009711" width="72" x="0" y="0"/>
  </clipPath>
 </defs>
</svg>
