<?xml version="1.0" encoding="utf-8" standalone="no"?>
<!DOCTYPE svg PUBLIC "-//W3C//DTD SVG 1.1//EN"
  "http://www.w3.org/Graphics/SVG/1.1/DTD/svg11.dtd">
<svg height="72pt" version="1.1" viewBox="0 0 57.790606 72" width="57.790606pt" xmlns="http://www.w3.org/2000/svg" xmlns:xlink="http://www.w3.org/1999/xlink">
 <metadata>
  <rdf:RDF xmlns:cc="http://creativecommons.org/ns#" xmlns:dc="http://purl.org/dc/elements/1.1/" xmlns:rdf="http://www.w3.org/1999/02/22-rdf-syntax-ns#">
   <cc:Work>
    <dc:type rdf:resource="http://purl.org/dc/dcmitype/StillImage"/>
    <dc:date>2022-04-19T00:40:59.543316</dc:date>
    <dc:format>image/svg+xml</dc:format>
    <dc:creator>
     <cc:Agent>
      <dc:title>Matplotlib v3.4.3, https://matplotlib.org/</dc:title>
     </cc:Agent>
    </dc:creator>
   </cc:Work>
  </rdf:RDF>
 </metadata>
 <defs>
  <style type="text/css">*{stroke-linecap:butt;stroke-linejoin:round;}</style>
 </defs>
 <g id="figure_1">
  <g id="patch_1">
   <path d="M 0 72 
L 57.790606 72 
L 57.790606 0 
L 0 0 
z
" style="fill:#ffffff;"/>
  </g>
  <g id="axes_1">
   <g id="patch_2">
    <path clip-path="url(#pfc1ae61891)" d="M 24.56898 3.927419 
L 24.56898 3.927419 
L 25.366423 4.169273 
L 26.163867 4.411128 
L 25.769213 5.151629 
L 25.629294 5.628664 
L 25.489375 6.105699 
L 25.254977 6.624049 
L 25.020578 7.1424 
L 24.786179 7.66075 
L 24.55178 8.179101 
L 24.584552 8.61482 
L 24.617324 9.05054 
L 24.499892 9.59654 
L 24.38246 10.14254 
L 24.265028 10.68854 
L 24.147597 11.23454 
L 24.030165 11.780541 
L 23.912733 12.326541 
L 23.795301 12.872541 
L 23.67787 13.418541 
L 23.348759 13.805159 
L 23.019647 14.191776 
L 22.690536 14.578394 
L 22.361425 14.965012 
L 21.921448 15.635435 
L 21.481471 16.305858 
L 21.041495 16.976282 
L 20.601518 17.646705 
L 20.162006 17.604277 
L 19.722494 17.561849 
L 19.282981 17.519421 
L 18.843469 17.476994 
L 18.403957 17.434566 
L 17.964445 17.392138 
L 17.524933 17.34971 
L 17.085421 17.307282 
L 17.501226 17.156004 
L 17.917031 17.004726 
L 18.446258 16.664667 
L 18.975486 16.324609 
L 19.466828 15.984551 
L 19.958171 15.644493 
L 20.279379 15.134087 
L 20.600588 14.623682 
L 20.865085 14.151414 
L 21.129583 13.679146 
L 21.375254 13.055282 
L 21.620925 12.431418 
L 21.932721 11.902262 
L 22.244516 11.373106 
L 22.556312 10.84395 
L 22.868108 10.314794 
L 22.98153 9.785638 
L 23.094953 9.256482 
L 23.189433 8.831409 
L 23.283913 8.406336 
L 23.378393 7.981263 
L 23.472872 7.55619 
L 23.746899 6.809651 
L 24.020926 6.063112 
L 24.294953 5.316573 
L 24.56898 4.570034 
z
" style="fill:#4169e1;opacity:0.1;"/>
   </g>
   <g id="patch_3">
    <path clip-path="url(#pfc1ae61891)" d="M 24.56898 3.927419 
L 24.56898 3.927419 
L 25.366423 4.169273 
L 26.163867 4.411128 
L 25.769213 5.151629 
L 25.629294 5.628664 
L 25.489375 6.105699 
L 25.254977 6.624049 
L 25.020578 7.1424 
L 24.786179 7.66075 
L 24.55178 8.179101 
L 24.584552 8.61482 
L 24.617324 9.05054 
L 24.499892 9.59654 
L 24.38246 10.14254 
L 24.265028 10.68854 
L 24.147597 11.23454 
L 24.030165 11.780541 
L 23.912733 12.326541 
L 23.795301 12.872541 
L 23.67787 13.418541 
L 23.348759 13.805159 
L 23.019647 14.191776 
L 22.690536 14.578394 
L 22.361425 14.965012 
L 21.921448 15.635435 
L 21.481471 16.305858 
L 21.041495 16.976282 
L 20.601518 17.646705 
L 20.162006 17.604277 
L 19.722494 17.561849 
L 19.282981 17.519421 
L 18.843469 17.476994 
L 18.403957 17.434566 
L 17.964445 17.392138 
L 17.524933 17.34971 
L 17.085421 17.307282 
L 17.501226 17.156004 
L 17.917031 17.004726 
L 18.446258 16.664667 
L 18.975486 16.324609 
L 19.466828 15.984551 
L 19.958171 15.644493 
L 20.279379 15.134087 
L 20.600588 14.623682 
L 20.865085 14.151414 
L 21.129583 13.679146 
L 21.375254 13.055282 
L 21.620925 12.431418 
L 21.932721 11.902262 
L 22.244516 11.373106 
L 22.556312 10.84395 
L 22.868108 10.314794 
L 22.98153 9.785638 
L 23.094953 9.256482 
L 23.189433 8.831409 
L 23.283913 8.406336 
L 23.378393 7.981263 
L 23.472872 7.55619 
L 23.746899 6.809651 
L 24.020926 6.063112 
L 24.294953 5.316573 
L 24.56898 4.570034 
z
" style="fill:none;stroke:#4169e1;stroke-linejoin:miter;stroke-width:0.4;"/>
   </g>
   <g id="line2d_1">
    <path clip-path="url(#pfc1ae61891)" d="M 21.974673 59.075338 
L 22.137369 57.648365 
L 22.351199 55.774548 
L 22.652419 53.13417 
L 22.930397 50.695921 
L 23.208375 48.257671 
L 23.403843 46.544985 
L 23.599311 44.832299 
L 23.7849 43.204945 
L 23.97049 41.577591 
L 24.15608 39.950238 
L 24.34167 38.322884 
L 24.525284 36.71444 
L 24.708898 35.105996 
L 24.949689 32.993186 
L 25.190479 30.880375 
L 25.450793 28.598806 
L 25.711107 26.317238 
L 25.998847 23.79445 
L 26.286586 21.271663 
L 26.457185 19.776995 
L 26.627783 18.282328 
L 26.889957 15.982008 
L 27.15213 13.681689 
L 27.407795 11.440482 
L 27.663461 9.199276 
L 27.919126 6.958069 
L 28.174792 4.716863 
" style="fill:none;stroke:#808080;stroke-linecap:square;stroke-width:0.4;"/>
   </g>
   <g id="line2d_2">
    <path clip-path="url(#pfc1ae61891)" d="M 32.744229 68.727273 
L 35.425927 68.258501 
L 38.107625 67.789729 
" style="fill:none;stroke:#808080;stroke-linecap:square;stroke-width:0.4;"/>
   </g>
   <g id="line2d_3">
    <path clip-path="url(#pfc1ae61891)" d="M 15.614648 57.355342 
L 15.626734 56.234739 
L 15.646722 54.344396 
L 15.670429 52.101283 
L 15.699715 49.324882 
L 15.729 46.548481 
L 15.746199 44.93813 
L 15.763399 43.327779 
L 15.785246 41.24961 
L 15.807094 39.171441 
L 15.834288 36.609562 
L 15.861481 34.047684 
L 15.882167 32.107127 
L 15.902853 30.16657 
L 15.922376 28.319768 
L 15.9419 26.472965 
L 15.963515 24.422763 
L 15.98513 22.372562 
L 16.005119 20.498109 
" style="fill:none;stroke:#808080;stroke-linecap:square;stroke-width:0.4;"/>
   </g>
   <g id="line2d_4">
    <path clip-path="url(#pfc1ae61891)" d="M 24.274732 60.841099 
L 25.221159 58.929145 
L 25.913199 57.53141 
L 26.605238 56.133675 
L 27.297278 54.73594 
L 27.989318 53.338205 
L 28.82883 51.642999 
L 29.668342 49.947792 
L 30.575722 48.11402 
L 31.346902 46.556744 
" style="fill:none;stroke:#808080;stroke-linecap:square;stroke-width:0.4;"/>
   </g>
   <g id="line2d_5">
    <path clip-path="url(#pfc1ae61891)" d="M 32.678221 66.388816 
L 33.326682 63.655637 
L 33.775723 61.76307 
L 34.224765 59.870502 
L 34.661023 58.032281 
L 35.097281 56.194059 
L 35.680198 53.73547 
L 36.184556 51.609946 
L 36.688914 49.484423 
L 37.187229 47.384325 
L 37.685544 45.284227 
L 38.188043 43.166331 
L 38.690542 41.048435 
L 39.128427 39.202586 
L 39.599084 37.219443 
L 40.06974 35.236299 
L 40.403384 33.829665 
L 40.737027 32.423032 
L 41.07067 31.016398 
L 41.404314 29.609765 
L 41.933309 27.380317 
L 42.462304 25.15087 
L 42.844407 23.541472 
L 43.226046 21.932075 
" style="fill:none;stroke:#808080;stroke-linecap:square;stroke-width:0.4;"/>
   </g>
   <g id="line2d_6">
    <path clip-path="url(#pfc1ae61891)" d="M 37.939815 67.543107 
L 37.241616 67.543107 
L 36.693098 67.593321 
L 35.994899 67.593321 
L 35.54609 67.618111 
L 35.097281 67.6429 
L 34.29914 67.6429 
L 33.815467 67.92607 
L 33.331795 68.20924 
L 32.803265 68.5404 
L 32.533654 68.707568 
" style="fill:none;stroke:#008000;stroke-linecap:square;stroke-width:0.4;"/>
   </g>
   <g id="line2d_7">
    <path clip-path="url(#pfc1ae61891)" d="M 27.16747 16.770181 
L 27.117325 17.487322 
L 27.067179 18.204464 
L 27.017034 18.921606 
L 26.966889 19.638747 
L 26.916743 20.355889 
L 26.866598 21.07303 
L 26.816453 21.790172 
L 26.766308 22.507314 
L 26.716162 23.224455 
L 26.666017 23.941597 
L 26.615872 24.658738 
L 26.565727 25.37588 
L 26.515581 26.093022 
L 26.465436 26.810163 
L 26.415291 27.527305 
L 26.365145 28.244446 
L 26.315 28.961588 
L 26.264855 29.67873 
L 26.21471 30.395871 
L 26.164564 31.113013 
L 26.114419 31.830154 
L 26.064274 32.547296 
L 26.014128 33.264438 
L 25.963983 33.981579 
L 25.913838 34.698721 
L 25.863693 35.415863 
L 25.813547 36.133004 
L 25.763402 36.850146 
L 25.713257 37.567287 
L 25.663111 38.284429 
L 25.612966 39.001571 
L 25.562821 39.718712 
" style="fill:none;stroke:#4169e1;stroke-linecap:square;stroke-width:0.4;"/>
   </g>
   <g id="line2d_8">
    <path clip-path="url(#pfc1ae61891)" d="M 28.244518 4.392059 
L 28.729353 4.566538 
L 29.214188 4.741016 
L 29.798499 4.951408 
L 30.382811 5.161799 
L 30.967123 5.37219 
L 31.551434 5.582581 
L 32.28868 5.771997 
L 32.874386 5.856852 
L 33.460093 5.941708 
L 33.885427 6.064701 
L 34.310761 6.187694 
L 34.915526 6.452113 
L 35.350157 6.867811 
L 35.605241 7.349772 
L 35.860326 7.831733 
L 36.11541 8.313694 
L 36.370494 8.795655 
L 36.559687 9.305425 
L 36.578281 9.607981 
L 36.521569 9.891469 
L 36.313783 10.213094 
L 35.690425 10.628792 
L 35.189378 10.994434 
L 34.688332 11.360076 
L 34.187286 11.725718 
L 33.68624 12.09136 
L 33.185194 12.457002 
L 32.684148 12.822644 
L 32.183102 13.188287 
L 31.682056 13.553929 
L 31.003381 14.049079 
L 30.363752 14.539939 
L 29.724124 15.030799 
L 29.084496 15.521658 
L 28.444867 16.012518 
L 27.797569 16.39993 
L 27.150271 16.787343 
L 26.502972 17.174755 
L 25.855674 17.562167 
L 25.176534 17.881885 
L 24.497393 18.201604 
L 23.818253 18.521322 
L 23.139113 18.84104 
L 22.459973 19.160759 
L 21.780832 19.480477 
L 21.101692 19.800195 
L 20.422552 20.119914 
L 19.690187 20.35287 
L 18.957822 20.585825 
L 18.485538 20.661465 
L 17.994195 20.680533 
L 17.370372 20.642396 
L 17.052882 20.523534 
L 16.577228 20.6273 
L 16.101574 20.731065 
L 15.62592 20.834831 
L 15.150267 20.938596 
" style="fill:none;stroke:#008000;stroke-linecap:square;stroke-width:0.4;"/>
   </g>
   <g id="line2d_9">
    <path clip-path="url(#pfc1ae61891)" d="M 27.16747 16.770181 
L 27.590712 17.20447 
L 28.013955 17.63876 
L 28.437197 18.073049 
L 28.86044 18.507338 
L 29.450329 18.841994 
L 30.040219 19.176649 
L 30.469447 19.353511 
L 30.898674 19.530374 
L 31.327901 19.707236 
L 31.757129 19.884098 
L 32.186356 20.06096 
L 32.615583 20.237822 
L 33.044811 20.414684 
L 33.474038 20.591546 
L 34.039058 20.824502 
L 34.604079 21.057458 
L 35.410122 21.304397 
L 36.216166 21.551337 
L 36.656259 21.637623 
L 37.096352 21.723908 
L 37.536445 21.810194 
L 37.976538 21.89648 
L 38.424998 21.813372 
L 38.873459 21.730265 
L 39.321919 21.647157 
L 39.770379 21.564049 
L 40.21884 21.480941 
L 40.6673 21.397834 
L 41.11576 21.314726 
L 41.564221 21.231618 
L 42.337028 21.088285 
L 43.109834 20.944952 
" style="fill:none;stroke:#008000;stroke-linecap:square;stroke-width:0.4;"/>
   </g>
   <g id="line2d_10">
    <path clip-path="url(#pfc1ae61891)" d="M 18.485538 20.661465 
L 18.521309 21.246506 
L 18.557081 21.831547 
L 18.592852 22.416588 
L 18.628623 23.00163 
L 18.664395 23.586671 
L 18.700166 24.171712 
L 18.735937 24.756753 
L 18.771709 25.341795 
L 18.80748 25.926836 
L 18.843252 26.511877 
L 18.879023 27.096919 
L 18.914794 27.68196 
L 18.950566 28.267001 
L 18.986337 28.852042 
L 19.022108 29.437084 
L 19.05788 30.022125 
L 19.093651 30.607166 
L 19.129422 31.192208 
L 19.165194 31.777249 
L 19.200965 32.36229 
L 19.236737 32.947331 
L 19.272508 33.532373 
L 19.308279 34.117414 
L 19.344051 34.702455 
L 19.379822 35.287496 
L 19.415593 35.872538 
L 19.451365 36.457579 
L 19.487136 37.04262 
L 19.522907 37.627662 
L 19.558679 38.212703 
L 19.59445 38.797744 
L 19.630222 39.382785 
L 19.665993 39.967827 
L 19.701764 40.552868 
L 19.737536 41.137909 
L 19.773307 41.72295 
L 19.809078 42.307992 
L 19.84485 42.893033 
L 19.880621 43.478074 
L 19.916393 44.063116 
L 19.952164 44.648157 
L 19.987935 45.233198 
L 20.023707 45.818239 
L 20.059478 46.403281 
L 20.095249 46.988322 
L 20.131021 47.573363 
L 20.166792 48.158405 
L 20.202563 48.743446 
L 20.238335 49.328487 
L 20.274106 49.913528 
L 20.309878 50.49857 
L 20.345649 51.083611 
L 20.38142 51.668652 
L 20.417192 52.253693 
L 20.452963 52.838735 
L 20.488734 53.423776 
L 20.524506 54.008817 
L 20.560277 54.593859 
L 20.596048 55.1789 
L 20.63182 55.763941 
L 20.667591 56.348982 
L 20.703363 56.934024 
L 20.739134 57.519065 
L 20.774905 58.104106 
" style="fill:none;stroke:#4169e1;stroke-linecap:square;stroke-width:0.4;"/>
   </g>
   <g id="line2d_11">
    <path clip-path="url(#pfc1ae61891)" d="M 33.474038 20.591546 
L 33.252887 21.074778 
L 33.031737 21.558011 
L 32.810586 22.041243 
L 32.589436 22.524475 
L 32.368285 23.007708 
L 32.147135 23.49094 
L 31.925984 23.974173 
L 31.704833 24.457405 
L 31.483683 24.940637 
L 31.262532 25.42387 
L 31.041382 25.907102 
L 30.820231 26.390334 
L 30.599081 26.873567 
L 30.37793 27.356799 
L 30.156779 27.840031 
L 29.935629 28.323264 
" style="fill:none;stroke:#4169e1;stroke-linecap:square;stroke-width:0.4;"/>
   </g>
   <g id="line2d_12">
    <path clip-path="url(#pfc1ae61891)" d="M 29.935629 28.323264 
L 29.910062 28.911851 
L 29.884496 29.500437 
L 29.869911 29.984027 
L 29.855327 30.467617 
L 29.840742 30.951207 
L 29.826158 31.434797 
L 29.811573 31.918387 
L 29.796988 32.401977 
L 29.782404 32.885567 
L 29.767819 33.369157 
L 29.753235 33.852746 
L 29.73865 34.336336 
L 29.724066 34.819926 
L 29.709481 35.303516 
L 29.694897 35.787106 
L 29.680312 36.270696 
L 29.665728 36.754286 
L 29.651143 37.237876 
" style="fill:none;stroke:#4169e1;stroke-linecap:square;stroke-width:0.4;"/>
   </g>
   <g id="line2d_13">
    <path clip-path="url(#pfc1ae61891)" d="M 18.485538 20.661465 
L 18.964794 20.976098 
L 19.444051 21.290731 
L 19.923307 21.605365 
L 20.402563 21.919998 
L 21.138357 22.194031 
L 21.87415 22.468064 
L 22.609944 22.742097 
L 23.345737 23.01613 
L 24.08153 23.290163 
L 24.817324 23.564196 
L 25.553117 23.838229 
L 26.288911 24.112262 
L 26.766308 24.589614 
L 27.243705 25.066967 
L 27.656256 25.696552 
L 28.068807 26.326136 
L 28.295768 26.722924 
L 28.522729 27.119712 
L 28.74969 27.516499 
L 28.976651 27.913287 
L 29.203612 28.310075 
L 29.430573 28.706862 
L 29.657535 29.10365 
L 29.884496 29.500437 
" style="fill:none;stroke:#4169e1;stroke-linecap:square;stroke-width:0.4;"/>
   </g>
   <g id="line2d_14">
    <path clip-path="url(#pfc1ae61891)" d="M 23.567236 10.435562 
L 24.146435 10.8484 
L 24.725633 11.261237 
L 25.160409 11.40453 
L 25.595186 11.547823 
L 26.029962 11.691116 
L 26.464739 11.83441 
L 26.899515 11.977703 
L 27.334292 12.120996 
L 27.769068 12.264289 
L 28.203844 12.407583 
L 28.638621 12.550876 
L 29.073397 12.694169 
L 29.508174 12.837462 
L 29.94295 12.980756 
L 30.377727 13.124049 
L 30.812503 13.267342 
L 31.24728 13.410635 
L 31.682056 13.553929 
" style="fill:none;stroke:#008000;stroke-linecap:square;stroke-width:0.4;"/>
   </g>
   <g id="line2d_15">
    <path clip-path="url(#pfc1ae61891)" d="M 25.606052 3.554308 
L 25.478626 3.984387 
L 25.3512 4.414465 
L 25.223774 4.844543 
L 25.096348 5.274622 
L 24.968922 5.7047 
L 24.841496 6.134779 
L 24.71407 6.564857 
L 24.586644 6.994935 
L 24.459218 7.425014 
L 24.331792 7.855092 
L 24.204366 8.28517 
L 24.07694 8.715249 
L 23.949514 9.145327 
L 23.822088 9.575406 
L 23.694662 10.005484 
L 23.567236 10.435562 
L 23.365028 11.152227 
L 23.16282 11.868892 
L 22.934813 12.389944 
L 22.706806 12.910996 
L 22.478799 13.432048 
L 22.250792 13.9531 
L 21.963168 14.322079 
L 21.675545 14.691058 
L 21.387921 15.060037 
L 21.100298 15.429016 
L 20.812674 15.797995 
L 20.52505 16.166975 
L 20.237427 16.535954 
L 19.949803 16.904933 
L 19.76677 17.374499 
L 19.583737 17.844066 
L 19.400704 18.313632 
L 19.217671 18.783199 
L 19.034637 19.252765 
L 18.851604 19.722332 
L 18.668571 20.191898 
L 18.485538 20.661465 
" style="fill:none;stroke:#4169e1;stroke-linecap:square;stroke-width:0.4;"/>
   </g>
   <g id="line2d_16">
    <path clip-path="url(#pfc1ae61891)" d="M 28.244518 4.392059 
L 27.584902 4.182622 
L 26.925285 3.973184 
L 26.265668 3.763746 
L 25.606052 3.554308 
L 24.85579 3.31595 
L 24.291467 3.294338 
L 23.727143 3.272727 
L 23.292977 3.294338 
L 22.858811 3.31595 
L 22.403029 3.533015 
L 21.947247 3.75008 
L 21.382692 4.20614 
L 20.818136 4.662199 
L 20.307967 5.237438 
L 19.797799 5.812677 
L 19.28763 6.387915 
L 18.777461 6.963154 
L 18.278216 7.332133 
L 17.778972 7.701112 
L 17.366537 8.005099 
L 16.954102 8.309086 
L 16.541667 8.613072 
L 16.129233 8.917059 
L 15.760145 9.318614 
L 15.391057 9.720169 
L 15.021969 10.121724 
L 14.652881 10.523278 
L 14.403259 10.892257 
L 14.153636 11.261237 
L 13.904014 11.630216 
L 13.654392 11.999195 
L 13.404769 12.368174 
L 13.155147 12.737153 
L 12.905524 13.106132 
L 12.655902 13.475111 
L 12.449626 13.865861 
L 12.243351 14.25661 
L 12.037076 14.647359 
L 11.8308 15.038108 
L 11.570486 15.667693 
L 11.310172 16.297277 
L 11.353403 16.992013 
L 11.700643 17.469366 
L 12.264734 17.639713 
L 12.828825 17.81006 
L 13.392916 17.980407 
L 13.957006 18.150754 
L 14.510638 18.43297 
L 15.06427 18.715187 
" style="fill:none;stroke:#000000;stroke-linecap:square;stroke-width:0.4;"/>
   </g>
   <g id="line2d_17">
    <path clip-path="url(#pfc1ae61891)" d="M 19.949803 16.904933 
L 19.324004 17.218772 
L 18.698205 17.532611 
L 18.072406 17.846449 
L 17.446607 18.160288 
L 16.851023 18.299013 
L 16.255438 18.437738 
L 15.659854 18.576462 
L 15.06427 18.715187 
L 15.085769 19.271039 
L 15.107268 19.826892 
L 15.128767 20.382744 
L 15.150267 20.938596 
" style="fill:none;stroke:#008000;stroke-linecap:square;stroke-width:0.4;"/>
   </g>
   <g id="line2d_18">
    <path clip-path="url(#pfc1ae61891)" d="M 11.700643 17.469366 
L 11.331671 18.142332 
L 10.9627 18.815298 
L 10.593728 19.488263 
L 10.224756 20.161229 
L 9.855669 20.486986 
L 9.486581 20.812743 
L 8.856947 21.181722 
L 8.227312 21.550701 
L 7.597911 22.006443 
L 6.968509 22.462184 
L 6.49088 23.048229 
L 6.01325 23.634273 
L 5.779897 24.014137 
L 5.546545 24.394001 
L 5.313192 24.773866 
L 5.079839 25.15373 
L 4.846486 25.533594 
L 4.613133 25.913458 
L 4.379781 26.293322 
L 4.146428 26.673187 
L 3.820803 27.313577 
L 3.495178 27.953967 
L 3.169554 28.594357 
L 2.843929 29.234747 
L 2.735387 29.690807 
L 2.626846 30.146866 
L 2.782453 30.856857 
L 2.93806 31.566848 
L 3.093668 32.276839 
L 3.249275 32.986829 
" style="fill:none;stroke:#008000;stroke-linecap:square;stroke-width:0.4;"/>
   </g>
   <g id="line2d_19">
    <path clip-path="url(#pfc1ae61891)" d="M 15.150267 20.938596 
L 14.528767 21.351751 
L 13.907268 21.764906 
L 13.404304 21.93271 
L 12.901341 22.100515 
L 12.290068 22.52956 
L 11.678795 22.958606 
L 11.279492 23.365405 
L 10.88019 23.772203 
L 10.584083 24.125928 
L 10.287976 24.479652 
L 9.844047 25.087943 
L 9.358748 25.721341 
L 8.873449 26.354739 
L 8.463454 26.734842 
L 8.05346 27.114944 
L 7.630101 27.581651 
L 7.206743 28.048357 
L 6.783384 28.515063 
L 6.360025 28.981769 
L 5.839049 29.557008 
L 5.318073 30.132247 
L 4.797096 30.707485 
L 4.27612 31.282724 
L 3.820106 31.977142 
L 3.364092 32.67156 
L 3.249275 32.986829 
L 3.016852 33.626902 
L 2.973621 34.408082 
L 3.125626 34.885753 
L 3.27763 35.363424 
L 3.907148 35.846338 
L 4.536666 36.329253 
L 5.166184 36.812167 
L 5.795702 37.295082 
L 6.42522 37.777996 
L 7.054738 38.260911 
L 7.684256 38.743825 
L 8.313774 39.22674 
L 9.056249 39.607796 
L 9.798725 39.988852 
L 10.541201 40.369908 
L 11.283676 40.750964 
L 11.613252 40.92004 
L 12.30076 41.271221 
L 12.988267 41.622403 
L 13.727605 41.999963 
L 14.466943 42.377523 
L 15.032079 42.507031 
L 15.597216 42.636539 
L 16.162353 42.766047 
L 16.72749 42.895556 
L 17.254858 43.016324 
L 17.782226 43.137092 
L 18.232662 43.234819 
L 18.683097 43.332546 
L 19.133533 43.430273 
L 19.583969 43.528001 
L 20.034405 43.625728 
L 20.484841 43.723455 
L 20.935277 43.821182 
L 21.385713 43.918909 
L 21.830803 44.049052 
L 22.275894 44.179196 
L 22.720984 44.30934 
L 23.166074 44.439484 
L 23.860554 44.700089 
L 24.555034 44.960695 
L 25.089259 45.082893 
L 25.623483 45.205092 
L 26.157708 45.32729 
L 26.691932 45.449489 
L 27.169445 45.536251 
L 27.646959 45.623014 
L 28.124472 45.709776 
L 28.601985 45.796539 
L 29.426971 45.850726 
L 30.251957 45.904913 
L 31.076942 45.959099 
L 31.901928 46.013286 
" style="fill:none;stroke:#008000;stroke-linecap:square;stroke-width:0.4;"/>
   </g>
   <g id="line2d_20">
    <path clip-path="url(#pfc1ae61891)" d="M 43.109834 20.944952 
L 43.68113 20.849291 
L 44.252426 20.75363 
L 44.823722 20.657969 
L 45.395018 20.562307 
L 46.22012 20.60553 
L 46.87137 20.909358 
L 47.131683 21.343488 
L 47.131683 22.082082 
L 47.082875 22.657321 
L 47.034066 23.232559 
L 46.985257 23.807798 
L 46.936448 24.383037 
L 46.887639 24.958276 
L 46.83883 25.533515 
L 46.790022 26.108753 
L 46.741213 26.683992 
L 46.589208 27.270036 
L 46.437203 27.856081 
L 46.285199 28.442125 
L 46.133194 29.02817 
L 46.003037 29.657754 
L 45.87288 30.287339 
L 45.87288 30.786303 
L 45.87288 31.285267 
L 45.916343 31.719397 
L 45.959806 32.153528 
L 46.176889 32.805041 
L 46.524129 33.152409 
L 46.87137 33.499777 
L 47.414077 33.803605 
L 47.956785 34.107433 
L 48.686129 34.535525 
L 49.415473 34.963617 
L 50.049407 34.760376 
L 50.683341 34.557136 
L 51.317275 34.353895 
L 51.951209 34.150655 
L 52.624073 34.172584 
L 53.296938 34.194513 
L 53.796183 34.324498 
L 54.295428 34.454483 
L 54.643133 34.802169 
L 54.881831 35.279521 
L 55.12053 35.756874 
L 55.163761 36.581913 
L 55.055219 37.059583 
L 54.946677 37.537254 
L 54.599437 38.10137 
L 54.252197 38.665485 
L 53.894033 38.915126 
L 53.535869 39.164767 
L 53.177705 39.414408 
L 52.819541 39.664049 
L 52.461377 39.913689 
L 52.103213 40.16333 
L 51.745049 40.412971 
L 51.386885 40.662612 
L 50.778518 41.14505 
L 50.17015 41.627488 
L 49.561783 42.109926 
L 48.953416 42.592364 
L 48.617448 42.858848 
L 48.28148 43.125333 
L 47.945513 43.391818 
L 47.609545 43.658303 
L 47.066837 43.907944 
L 46.524129 44.157585 
L 45.981422 44.407226 
L 45.438714 44.656867 
L 44.700538 44.917154 
L 43.962362 45.177442 
L 43.452194 45.31855 
L 42.942025 45.459659 
L 42.431856 45.600767 
L 41.921688 45.741875 
L 41.281362 45.882984 
L 40.641036 46.024092 
L 40.000711 46.1652 
L 39.360385 46.306308 
L 38.801524 46.315684 
L 38.242662 46.325059 
L 37.683801 46.334435 
L 37.12494 46.34381 
L 36.798618 46.349531 
L 36.062883 46.439154 
L 35.327147 46.528777 
L 34.591412 46.618399 
L 33.855677 46.708022 
L 33.073805 46.708022 
L 32.422556 46.491275 
L 31.901928 46.013286 
" style="fill:none;stroke:#008000;stroke-linecap:square;stroke-width:0.4;"/>
   </g>
   <g id="line2d_21">
    <path clip-path="url(#pfc1ae61891)" d="M 41.564221 21.231618 
L 41.52099 21.848808 
L 41.477759 22.465998 
L 41.401989 22.976403 
L 41.156086 23.505242 
L 40.891588 23.892654 
L 40.627091 24.280066 
L 40.220815 24.790153 
L 39.81454 25.300241 
L 39.460211 25.758525 
L 39.105882 26.216809 
L 38.751553 26.675093 
L 38.397224 27.133378 
L 37.934237 27.842097 
L 37.47125 28.550817 
L 37.234876 29.146078 
L 36.998502 29.741339 
L 36.800129 30.478343 
L 36.601755 31.215348 
L 36.403382 31.952353 
L 36.205009 32.689358 
L 35.926799 33.478802 
L 35.648588 34.268245 
L 35.370378 35.057689 
L 35.092167 35.847133 
L 34.938362 36.283806 
L 34.784556 36.720479 
L 34.63075 37.157152 
L 34.476944 37.593825 
L 34.323138 38.030498 
L 34.169332 38.467171 
L 34.015526 38.903843 
L 33.86172 39.340516 
L 33.653701 40.172229 
L 33.445682 41.003942 
L 33.313434 41.561383 
L 33.181185 42.118824 
L 33.048936 42.676266 
L 32.916687 43.233707 
L 32.662998 43.928602 
L 32.409308 44.623497 
L 32.155618 45.318391 
L 31.901928 46.013286 
" style="fill:none;stroke:#4169e1;stroke-linecap:square;stroke-width:0.4;"/>
   </g>
   <g id="line2d_22">
    <path clip-path="url(#pfc1ae61891)" d="M 45.87288 31.285267 
L 45.4827 31.505748 
L 45.092519 31.72623 
L 44.702339 31.946712 
L 44.312159 32.167194 
L 43.921979 32.387675 
L 43.531798 32.608157 
L 43.141618 32.828639 
L 42.751438 33.04912 
L 42.361258 33.269602 
L 41.971077 33.490084 
L 41.580897 33.710566 
L 41.190717 33.931047 
L 40.800537 34.151529 
L 40.410356 34.372011 
L 40.020176 34.592492 
L 39.629996 34.812974 
L 39.062767 34.942244 
L 38.495539 35.071514 
L 37.92831 35.200784 
L 37.361082 35.330053 
L 36.793853 35.459323 
L 36.226625 35.588593 
L 35.659396 35.717863 
L 35.092167 35.847133 
L 34.412039 36.020976 
L 33.731911 36.194818 
L 33.051783 36.368661 
L 32.371655 36.542504 
L 31.691527 36.716347 
L 31.011399 36.89019 
L 30.331271 37.064033 
L 29.651143 37.237876 
L 29.21349 37.349745 
L 28.775838 37.461615 
L 28.330747 37.613529 
L 27.885657 37.765443 
L 27.440567 37.917357 
L 26.995477 38.069271 
L 26.604774 38.373098 
L 26.21407 38.676926 
L 25.888446 39.197819 
L 25.562821 39.718712 
L 25.345738 40.326368 
L 25.128655 40.934023 
L 24.998498 41.737451 
L 24.868341 42.540878 
L 24.835801 43.01839 
L 24.803262 43.495902 
L 24.770723 43.973413 
L 24.738184 44.450925 
L 24.555034 44.960695 
L 24.506778 45.387357 
L 24.458521 45.814018 
L 24.410264 46.24068 
L 24.362007 46.667342 
L 24.31375 47.094004 
L 24.265493 47.520666 
L 24.217236 47.947328 
L 24.16898 48.37399 
L 24.120723 48.800652 
L 24.072466 49.227314 
L 24.024209 49.653976 
L 23.975952 50.080638 
L 23.927695 50.5073 
L 23.879439 50.933961 
L 23.831182 51.360623 
L 23.782925 51.787285 
L 23.679787 52.584992 
L 23.576649 53.382699 
L 23.473512 54.180406 
L 23.370374 54.978112 
L 23.267236 55.775819 
L 23.164098 56.573526 
L 23.060961 57.371233 
L 22.957823 58.16894 
" style="fill:none;stroke:#008000;stroke-linecap:square;stroke-width:0.4;"/>
   </g>
   <g id="line2d_23">
    <path clip-path="url(#pfc1ae61891)" d="M 11.283676 40.750964 
L 11.326791 41.229111 
L 11.369905 41.707259 
L 11.41302 42.185406 
L 11.456134 42.663553 
L 11.499248 43.141701 
L 11.542363 43.619848 
L 11.585477 44.097995 
L 11.628592 44.576143 
L 11.671706 45.05429 
L 11.714821 45.532438 
L 11.757935 46.010585 
L 11.80105 46.488732 
L 11.844164 46.96688 
L 11.887279 47.445027 
L 11.930393 47.923174 
L 11.973508 48.401322 
L 12.016971 49.008977 
L 12.060434 49.616633 
L 12.038586 50.181066 
L 12.016738 50.745499 
L 11.930045 51.244781 
L 11.843351 51.744063 
L 11.778272 52.264956 
L 11.713194 52.785849 
L 11.756425 53.350282 
L 11.799655 53.914715 
L 12.038586 54.348528 
L 12.277517 54.782341 
L 12.928767 55.303551 
L 13.580016 55.824762 
L 13.981643 56.10682 
L 14.38327 56.388878 
L 14.784897 56.670935 
L 15.186525 56.952993 
" style="fill:none;stroke:#4169e1;stroke-linecap:square;stroke-width:0.4;"/>
   </g>
   <g id="line2d_24">
    <path clip-path="url(#pfc1ae61891)" d="M 17.052882 20.523534 
L 17.042713 21.22266 
L 17.032545 21.921786 
L 17.022376 22.620911 
L 17.012208 23.320037 
L 17.002039 24.019163 
L 16.991871 24.718288 
L 16.981702 25.417414 
L 16.971534 26.11654 
L 16.961365 26.815665 
L 16.951197 27.514791 
L 16.941028 28.213917 
L 16.93086 28.913042 
L 16.920691 29.612168 
L 16.910523 30.311294 
L 16.900354 31.010419 
L 16.890186 31.709545 
L 16.880017 32.408671 
L 16.869849 33.107796 
L 16.85968 33.806922 
L 16.849512 34.506048 
L 16.839343 35.205173 
L 16.829175 35.904299 
L 16.819006 36.603425 
L 16.808838 37.30255 
L 16.798669 38.001676 
L 16.788501 38.700802 
L 16.778332 39.399927 
L 16.768164 40.099053 
L 16.757995 40.798179 
L 16.747827 41.497304 
L 16.737658 42.19643 
L 16.72749 42.895556 
" style="fill:none;stroke:#4169e1;stroke-linecap:square;stroke-width:0.4;"/>
   </g>
   <g id="line2d_25">
    <path clip-path="url(#pfc1ae61891)" d="M 16.72749 42.895556 
L 16.74174 43.3742 
L 16.755991 43.852844 
L 16.770241 44.331488 
L 16.784491 44.810131 
L 16.798742 45.288775 
L 16.812992 45.767419 
L 16.827243 46.246063 
L 16.841493 46.724707 
L 16.855744 47.203351 
L 16.869994 47.681995 
L 16.884244 48.160639 
L 16.898495 48.639283 
L 16.912745 49.117927 
L 16.926996 49.596571 
L 16.941246 50.075215 
L 16.955497 50.553859 
L 16.969747 51.032503 
L 16.983998 51.511147 
L 16.998248 51.989791 
L 17.012498 52.468435 
L 17.026749 52.947079 
L 17.040999 53.425723 
L 17.05525 53.904367 
L 17.0695 54.383011 
L 17.083751 54.861654 
L 17.098001 55.340298 
L 17.112252 55.818942 
L 17.126502 56.297586 
L 17.140752 56.77623 
L 17.155003 57.254874 
L 17.169253 57.733518 
L 17.183504 58.212162 
" style="fill:none;stroke:#4169e1;stroke-linecap:square;stroke-width:0.4;"/>
   </g>
   <g id="line2d_26">
    <path clip-path="url(#pfc1ae61891)" d="M 41.477759 22.465998 
L 41.672995 22.855317 
L 41.86823 23.244636 
L 42.151786 23.924753 
L 42.255679 24.435158 
L 42.359573 24.945563 
L 42.387928 25.673034 
L 42.416284 26.400504 
L 42.32192 27.175329 
L 42.199084 27.709093 
L 42.076249 28.242857 
L 41.953413 28.776622 
L 41.830578 29.310386 
L 41.681769 29.832471 
L 41.53296 30.354556 
L 41.384151 30.876641 
L 41.235342 31.398725 
L 41.086533 31.92081 
L 40.937724 32.442895 
L 40.788915 32.96498 
L 40.640107 33.487065 
L 40.41332 34.247588 
L 40.186533 35.00811 
L 39.959746 35.768633 
L 39.732959 36.529156 
L 39.506172 37.289679 
L 39.279386 38.050202 
L 39.052599 38.810725 
L 38.825812 39.571248 
L 38.719507 39.994533 
L 38.613203 40.417818 
L 38.506898 40.841103 
L 38.400594 41.264388 
L 38.294289 41.687673 
L 38.187985 42.110959 
L 38.08168 42.534244 
L 37.975376 42.957529 
L 37.869071 43.380814 
L 37.762767 43.804099 
L 37.656462 44.227384 
L 37.550158 44.65067 
L 37.443853 45.073955 
L 37.337549 45.49724 
L 37.231244 45.920525 
L 37.12494 46.34381 
" style="fill:none;stroke:#4169e1;stroke-linecap:square;stroke-width:0.4;"/>
   </g>
   <g id="line2d_27">
    <path clip-path="url(#pfc1ae61891)" d="M 37.12494 46.34381 
L 36.907508 46.900139 
L 36.690076 47.456468 
L 36.472644 48.012797 
L 36.255213 48.569126 
L 35.994666 49.003257 
L 35.73412 49.437387 
L 35.473574 49.871518 
L 35.213027 50.305648 
L 34.795131 50.853714 
L 34.377234 51.40178 
L 33.959337 51.949846 
L 33.541441 52.497912 
L 33.123544 53.045978 
L 32.705647 53.594044 
L 32.287751 54.142109 
L 31.869854 54.690175 
L 31.425461 55.421777 
L 31.052306 56.035789 
L 30.67915 56.649801 
L 30.305995 57.263813 
L 29.93284 57.877824 
L 29.559685 58.491836 
L 29.186529 59.105848 
L 28.813374 59.71986 
L 28.440219 60.333872 
" style="fill:none;stroke:#4169e1;stroke-linecap:square;stroke-width:0.4;"/>
   </g>
   <g id="line2d_28">
    <path clip-path="url(#pfc1ae61891)" d="M 31.425461 55.421777 
L 31.637779 55.959395 
L 31.850098 56.497013 
L 32.062416 57.034631 
L 32.274735 57.572249 
L 32.487053 58.109867 
L 32.699372 58.647484 
L 32.91169 59.185102 
L 33.124009 59.72272 
L 33.336327 60.260338 
L 33.548646 60.797956 
L 33.760964 61.335574 
L 33.973283 61.873191 
L 34.185601 62.410809 
L 34.39792 62.948427 
L 34.610238 63.486045 
L 34.822557 64.023663 
L 34.822557 64.848066 
L 34.561778 65.542802 
L 34.258001 65.846629 
L 33.954224 66.150457 
L 33.346205 66.454285 
L 32.738186 66.758113 
" style="fill:none;stroke:#008000;stroke-linecap:square;stroke-width:0.4;"/>
   </g>
   <g id="line2d_29">
    <path clip-path="url(#pfc1ae61891)" d="M 33.073805 46.708022 
L 32.847861 47.160248 
L 32.621917 47.612474 
L 32.395973 48.0647 
L 32.170028 48.516926 
L 31.944084 48.969152 
L 31.71814 49.421377 
L 31.492195 49.873603 
L 31.266251 50.325829 
L 31.040307 50.778055 
L 30.814362 51.230281 
L 30.588418 51.682507 
L 30.362474 52.134733 
L 30.13653 52.586959 
L 29.910585 53.039184 
L 29.684641 53.49141 
L 29.458697 53.943636 
L 29.232752 54.395862 
L 29.006808 54.848088 
L 28.780864 55.300314 
L 28.55492 55.75254 
L 28.328975 56.204765 
L 28.103031 56.656991 
L 27.877087 57.109217 
L 27.651142 57.561443 
L 27.425198 58.013669 
L 27.199254 58.465895 
L 26.973309 58.918121 
L 26.747365 59.370347 
L 26.521421 59.822572 
L 26.295477 60.274798 
L 26.069532 60.727024 
L 25.843588 61.17925 
" style="fill:none;stroke:#4169e1;stroke-linecap:square;stroke-width:0.4;"/>
   </g>
   <g id="line2d_30">
    <path clip-path="url(#pfc1ae61891)" d="M 29.214188 4.741016 
L 28.969795 5.17753 
L 28.725402 5.614044 
L 28.481009 6.050559 
L 28.236616 6.487073 
L 27.992223 6.923587 
L 27.74783 7.360101 
L 27.503437 7.796615 
L 27.259045 8.233129 
L 26.994547 8.970451 
L 26.994547 9.442719 
L 27.088911 9.839348 
L 27.095419 10.453678 
L 27.101927 11.068007 
L 27.025459 11.674392 
L 26.948992 12.280776 
L 26.872525 12.88716 
L 26.796058 13.493544 
L 26.888911 14.312704 
L 26.981764 15.131863 
L 27.074617 15.951022 
L 27.16747 16.770181 
" style="fill:none;stroke:#000000;stroke-linecap:square;stroke-width:0.4;"/>
   </g>
   <g id="line2d_31">
    <path clip-path="url(#pfc1ae61891)" d="M 23.727143 3.272727 
L 23.438416 3.689974 
L 23.149688 4.107221 
L 22.860961 4.524468 
L 22.572233 4.941714 
L 22.283505 5.358961 
L 21.994778 5.776208 
L 21.70605 6.193454 
L 21.417323 6.610701 
L 21.128595 7.027948 
L 20.839868 7.445195 
L 20.55114 7.862441 
L 20.262412 8.279688 
L 19.973685 8.696935 
L 19.684957 9.114182 
L 19.39623 9.531428 
L 19.107502 9.948675 
L 18.743702 10.411647 
L 18.379902 10.874619 
L 18.016101 11.337591 
L 17.652301 11.800563 
L 17.288501 12.263535 
L 16.924701 12.726506 
L 16.5609 13.189478 
L 16.1971 13.65245 
L 15.917088 14.214738 
L 15.637077 14.777026 
L 15.357065 15.339314 
L 15.077053 15.901602 
L 14.797042 16.46389 
L 14.51703 17.026178 
L 14.237018 17.588466 
L 13.957006 18.150754 
" style="fill:none;stroke:#ff0000;stroke-dasharray:1.48,0.64;stroke-dashoffset:0;stroke-width:0.4;"/>
   </g>
   <g id="line2d_32">
    <path clip-path="url(#pfc1ae61891)" d="M 49.415473 34.963617 
L 49.283573 35.556335 
L 49.151673 36.149054 
L 49.019772 36.741772 
L 48.887872 37.33449 
L 48.488802 37.583655 
L 48.089731 37.832819 
L 47.990254 38.630526 
L 48.164804 39.254072 
L 48.339354 39.877618 
L 48.937611 40.475739 
L 48.941562 41.004895 
L 48.945513 41.534051 
L 48.949464 42.063207 
L 48.953416 42.592364 
" style="fill:none;stroke:#4169e1;stroke-dasharray:1.48,0.64;stroke-dashoffset:0;stroke-width:0.4;"/>
   </g>
   <g id="line2d_33">
    <path clip-path="url(#pfc1ae61891)" d="M 13.907268 21.764906 
L 13.680888 22.561342 
L 13.454508 23.357777 
L 13.228128 24.154213 
L 13.001748 24.950648 
L 12.763514 25.389546 
L 12.52528 25.828444 
L 12.287047 26.267341 
L 12.048813 26.706239 
L 11.948522 27.164523 
L 11.848232 27.622807 
L 11.747941 28.081091 
L 11.647651 28.539376 
L 11.87682 29.226802 
L 12.105989 29.914228 
L 12.678912 30.54413 
L 13.251835 31.174033 
L 13.165838 31.632317 
L 13.079842 32.090601 
L 12.979551 32.749424 
L 12.879261 33.408247 
L 12.77897 34.067071 
L 12.678679 34.725894 
L 12.764676 35.441923 
L 12.850673 36.157952 
L 12.564095 36.759569 
L 12.277517 37.361187 
L 12.478098 38.163025 
L 12.678679 38.964863 
L 12.756076 39.629248 
L 12.833473 40.293633 
L 12.91087 40.958018 
L 12.988267 41.622403 
" style="fill:none;stroke:#4169e1;stroke-dasharray:1.48,0.64;stroke-dashoffset:0;stroke-width:0.4;"/>
   </g>
  </g>
 </g>
 <defs>
  <clipPath id="pfc1ae61891">
   <rect height="72" width="57.790606" x="0" y="0"/>
  </clipPath>
 </defs>
</svg>
