<?xml version="1.0" encoding="utf-8" standalone="no"?>
<!DOCTYPE svg PUBLIC "-//W3C//DTD SVG 1.1//EN"
  "http://www.w3.org/Graphics/SVG/1.1/DTD/svg11.dtd">
<svg xmlns:xlink="http://www.w3.org/1999/xlink" width="72pt" height="58.116379pt" viewBox="0 0 72 58.116379" xmlns="http://www.w3.org/2000/svg" version="1.1">
 <metadata>
  <rdf:RDF xmlns:dc="http://purl.org/dc/elements/1.1/" xmlns:cc="http://creativecommons.org/ns#" xmlns:rdf="http://www.w3.org/1999/02/22-rdf-syntax-ns#">
   <cc:Work>
    <dc:type rdf:resource="http://purl.org/dc/dcmitype/StillImage"/>
    <dc:date>2022-05-17T17:19:07.204375</dc:date>
    <dc:format>image/svg+xml</dc:format>
    <dc:creator>
     <cc:Agent>
      <dc:title>Matplotlib v3.5.2, https://matplotlib.org/</dc:title>
     </cc:Agent>
    </dc:creator>
   </cc:Work>
  </rdf:RDF>
 </metadata>
 <defs>
  <style type="text/css">*{stroke-linejoin: round; stroke-linecap: butt}</style>
 </defs>
 <g id="figure_1">
  <g id="patch_1">
   <path d="M 0 58.116379 
L 72 58.116379 
L 72 0 
L 0 0 
z
" style="fill: #ffffff"/>
  </g>
  <g id="axes_1">
   <g id="patch_2">
    <path d="M 10.656135 23.022862 
L 10.656135 23.022862 
L 10.212187 23.397531 
L 9.768239 23.7722 
L 9.324292 24.146869 
L 8.880344 24.521538 
L 8.436396 24.896206 
L 7.992449 25.270875 
L 7.548501 25.645544 
L 7.104553 26.020213 
L 6.799092 26.518605 
L 6.493631 27.016997 
L 6.18817 27.51539 
L 5.882709 28.013782 
L 5.577248 28.512174 
L 5.271787 29.010566 
L 4.966326 29.508958 
L 4.660865 30.007351 
L 4.66584 30.427796 
L 4.670815 30.848242 
L 4.67579 31.268687 
L 4.680765 31.689133 
L 4.68574 32.109578 
L 4.690716 32.530024 
L 4.695691 32.950469 
L 4.700666 33.370915 
L 5.175555 33.821003 
L 5.650444 34.271092 
L 6.125333 34.721181 
L 6.600222 35.171269 
L 6.878456 34.705071 
L 7.15669 34.238873 
L 7.434924 33.772675 
L 7.713158 33.306478 
L 7.991392 32.84028 
L 8.269626 32.374082 
L 8.54786 31.907884 
L 8.826094 31.441686 
L 9.104328 30.975488 
L 9.382562 30.50929 
L 9.660796 30.043092 
L 9.93903 29.576894 
L 10.217264 29.110697 
L 10.495499 28.644499 
L 10.773733 28.178301 
L 11.051967 27.712103 
L 11.127957 27.259001 
L 11.203947 26.8059 
L 11.279938 26.352798 
L 11.355928 25.899697 
L 11.431919 25.446595 
L 11.507909 24.993494 
L 11.5839 24.540392 
L 11.65989 24.087291 
z
" clip-path="url(#p19cbad304f)" style="opacity: 0.1"/>
   </g>
   <g id="patch_3">
    <path d="M 10.656135 23.022862 
L 10.656135 23.022862 
L 10.212187 23.397531 
L 9.768239 23.7722 
L 9.324292 24.146869 
L 8.880344 24.521538 
L 8.436396 24.896206 
L 7.992449 25.270875 
L 7.548501 25.645544 
L 7.104553 26.020213 
L 6.799092 26.518605 
L 6.493631 27.016997 
L 6.18817 27.51539 
L 5.882709 28.013782 
L 5.577248 28.512174 
L 5.271787 29.010566 
L 4.966326 29.508958 
L 4.660865 30.007351 
L 4.66584 30.427796 
L 4.670815 30.848242 
L 4.67579 31.268687 
L 4.680765 31.689133 
L 4.68574 32.109578 
L 4.690716 32.530024 
L 4.695691 32.950469 
L 4.700666 33.370915 
L 5.175555 33.821003 
L 5.650444 34.271092 
L 6.125333 34.721181 
L 6.600222 35.171269 
L 6.878456 34.705071 
L 7.15669 34.238873 
L 7.434924 33.772675 
L 7.713158 33.306478 
L 7.991392 32.84028 
L 8.269626 32.374082 
L 8.54786 31.907884 
L 8.826094 31.441686 
L 9.104328 30.975488 
L 9.382562 30.50929 
L 9.660796 30.043092 
L 9.93903 29.576894 
L 10.217264 29.110697 
L 10.495499 28.644499 
L 10.773733 28.178301 
L 11.051967 27.712103 
L 11.127957 27.259001 
L 11.203947 26.8059 
L 11.279938 26.352798 
L 11.355928 25.899697 
L 11.431919 25.446595 
L 11.507909 24.993494 
L 11.5839 24.540392 
L 11.65989 24.087291 
L 10.656135 23.022862 
z
" clip-path="url(#p19cbad304f)" style="fill: none; stroke-dasharray: 1.48,0.64; stroke-dashoffset: 0; stroke: #000000; stroke-width: 0.4; stroke-linejoin: miter"/>
   </g>
   <g id="patch_4">
    <path d="M 42.561484 28.323236 
L 42.561484 28.323236 
L 42.203 28.540019 
L 41.844516 28.756802 
L 41.486032 28.973585 
L 41.127548 29.190368 
L 40.769064 29.407151 
L 40.41058 29.623935 
L 40.052096 29.840718 
L 39.693612 30.057501 
L 39.335128 30.274284 
L 38.976644 30.491067 
L 38.61816 30.70785 
L 38.259676 30.924633 
L 37.901192 31.141416 
L 37.542708 31.358199 
L 37.184224 31.574983 
L 36.82574 31.791766 
L 37.159144 32.219792 
L 37.492547 32.647818 
L 37.825951 33.075845 
L 38.159355 33.503871 
L 38.498415 33.27596 
L 38.837476 33.048048 
L 39.176536 32.820137 
L 39.515597 32.592226 
L 39.854657 32.364314 
L 40.193718 32.136403 
L 40.532778 31.908491 
L 40.871839 31.68058 
L 41.210899 31.452669 
L 41.549959 31.224757 
L 41.88902 30.996846 
L 42.22808 30.768934 
L 42.567141 30.541023 
L 42.906201 30.313111 
L 43.245262 30.0852 
L 43.584322 29.857289 
z
" clip-path="url(#p19cbad304f)" style="fill: #4169e1; opacity: 0.1"/>
   </g>
   <g id="patch_5">
    <path d="M 42.561484 28.323236 
L 42.561484 28.323236 
L 42.203 28.540019 
L 41.844516 28.756802 
L 41.486032 28.973585 
L 41.127548 29.190368 
L 40.769064 29.407151 
L 40.41058 29.623935 
L 40.052096 29.840718 
L 39.693612 30.057501 
L 39.335128 30.274284 
L 38.976644 30.491067 
L 38.61816 30.70785 
L 38.259676 30.924633 
L 37.901192 31.141416 
L 37.542708 31.358199 
L 37.184224 31.574983 
L 36.82574 31.791766 
L 37.159144 32.219792 
L 37.492547 32.647818 
L 37.825951 33.075845 
L 38.159355 33.503871 
L 38.498415 33.27596 
L 38.837476 33.048048 
L 39.176536 32.820137 
L 39.515597 32.592226 
L 39.854657 32.364314 
L 40.193718 32.136403 
L 40.532778 31.908491 
L 40.871839 31.68058 
L 41.210899 31.452669 
L 41.549959 31.224757 
L 41.88902 30.996846 
L 42.22808 30.768934 
L 42.567141 30.541023 
L 42.906201 30.313111 
L 43.245262 30.0852 
L 43.584322 29.857289 
L 42.561484 28.323236 
z
" clip-path="url(#p19cbad304f)" style="fill: none; stroke-dasharray: 1.48,0.64; stroke-dashoffset: 0; stroke: #4169e1; stroke-width: 0.4; stroke-linejoin: miter"/>
   </g>
   <g id="patch_6">
    <path d="M 47.40797 19.073046 
L 47.40797 19.073046 
L 47.196764 19.51497 
L 46.985558 19.956895 
L 46.774353 20.398819 
L 46.563147 20.840744 
L 46.351941 21.282669 
L 46.140736 21.724593 
L 45.92953 22.166518 
L 45.718324 22.608442 
L 45.635041 23.319973 
L 45.551759 24.031504 
L 45.468476 24.743034 
L 45.385193 25.454565 
L 45.132278 25.824229 
L 44.879363 26.193892 
L 44.626447 26.563556 
L 44.373532 26.933219 
L 44.120617 27.302883 
L 43.867702 27.672546 
L 43.614786 28.04221 
L 43.361871 28.411874 
L 43.639935 28.89005 
L 43.917998 29.368227 
L 44.227855 28.870709 
L 44.537712 28.373192 
L 44.847569 27.875674 
L 45.157426 27.378157 
L 45.467283 26.880639 
L 45.77714 26.383122 
L 46.086997 25.885604 
L 46.396854 25.388087 
L 46.706711 24.890569 
L 47.016568 24.393052 
L 47.326425 23.895534 
L 47.636282 23.398017 
L 47.946139 22.900499 
L 48.255996 22.402982 
L 48.565853 21.905464 
L 48.87571 21.407947 
z
" clip-path="url(#p19cbad304f)" style="fill: #4169e1; opacity: 0.1"/>
   </g>
   <g id="patch_7">
    <path d="M 47.40797 19.073046 
L 47.40797 19.073046 
L 47.196764 19.51497 
L 46.985558 19.956895 
L 46.774353 20.398819 
L 46.563147 20.840744 
L 46.351941 21.282669 
L 46.140736 21.724593 
L 45.92953 22.166518 
L 45.718324 22.608442 
L 45.635041 23.319973 
L 45.551759 24.031504 
L 45.468476 24.743034 
L 45.385193 25.454565 
L 45.132278 25.824229 
L 44.879363 26.193892 
L 44.626447 26.563556 
L 44.373532 26.933219 
L 44.120617 27.302883 
L 43.867702 27.672546 
L 43.614786 28.04221 
L 43.361871 28.411874 
L 43.639935 28.89005 
L 43.917998 29.368227 
L 44.227855 28.870709 
L 44.537712 28.373192 
L 44.847569 27.875674 
L 45.157426 27.378157 
L 45.467283 26.880639 
L 45.77714 26.383122 
L 46.086997 25.885604 
L 46.396854 25.388087 
L 46.706711 24.890569 
L 47.016568 24.393052 
L 47.326425 23.895534 
L 47.636282 23.398017 
L 47.946139 22.900499 
L 48.255996 22.402982 
L 48.565853 21.905464 
L 48.87571 21.407947 
L 47.40797 19.073046 
z
" clip-path="url(#p19cbad304f)" style="fill: none; stroke-dasharray: 1.48,0.64; stroke-dashoffset: 0; stroke: #4169e1; stroke-width: 0.4; stroke-linejoin: miter"/>
   </g>
   <g id="patch_8">
    <path d="M 25.565253 51.120986 
L 25.565253 51.120986 
L 25.758262 51.660684 
L 25.951271 52.200382 
L 26.14428 52.74008 
L 26.337288 53.279778 
L 25.999523 53.514979 
L 25.661757 53.750179 
L 25.031616 53.965748 
L 24.401475 54.181316 
L 23.771334 54.396884 
L 23.141192 54.612452 
L 22.511051 54.828021 
L 21.88091 55.043589 
L 21.250768 55.259157 
L 20.620627 55.474725 
L 20.499997 54.823453 
L 20.379366 54.17218 
L 20.258735 53.520907 
L 20.138105 52.869635 
L 20.561743 52.681183 
L 20.985381 52.492731 
L 21.409019 52.304278 
L 21.832657 52.115826 
L 22.256296 51.927374 
L 22.679934 51.738922 
L 23.103572 51.55047 
L 23.52721 51.362018 
z
" clip-path="url(#p19cbad304f)" style="fill: #008000; opacity: 0.1"/>
   </g>
   <g id="patch_9">
    <path d="M 25.565253 51.120986 
L 25.565253 51.120986 
L 25.758262 51.660684 
L 25.951271 52.200382 
L 26.14428 52.74008 
L 26.337288 53.279778 
L 25.999523 53.514979 
L 25.661757 53.750179 
L 25.031616 53.965748 
L 24.401475 54.181316 
L 23.771334 54.396884 
L 23.141192 54.612452 
L 22.511051 54.828021 
L 21.88091 55.043589 
L 21.250768 55.259157 
L 20.620627 55.474725 
L 20.499997 54.823453 
L 20.379366 54.17218 
L 20.258735 53.520907 
L 20.138105 52.869635 
L 20.561743 52.681183 
L 20.985381 52.492731 
L 21.409019 52.304278 
L 21.832657 52.115826 
L 22.256296 51.927374 
L 22.679934 51.738922 
L 23.103572 51.55047 
L 23.52721 51.362018 
L 25.565253 51.120986 
z
" clip-path="url(#p19cbad304f)" style="fill: none; stroke: #008000; stroke-width: 0.4; stroke-linejoin: miter"/>
   </g>
   <g id="line2d_1">
    <path d="M 21.062258 54.052247 
L 22.283966 53.591079 
L 23.505674 53.129911 
L 24.727382 52.668742 
L 25.94909 52.207574 
" clip-path="url(#p19cbad304f)" style="fill: none; stroke: #808080; stroke-width: 0.4; stroke-linecap: square"/>
   </g>
   <g id="line2d_2">
    <path d="M 20.978293 52.818318 
L 21.696897 52.554738 
" clip-path="url(#p19cbad304f)" style="fill: none; stroke: #808080; stroke-width: 0.4; stroke-linecap: square"/>
   </g>
   <g id="line2d_3">
    <path d="M 19.253754 50.829803 
L 20.73894 49.643692 
L 21.805942 48.791916 
L 22.872943 47.940139 
L 23.952484 47.07845 
L 25.032025 46.21676 
L 26.923948 44.706422 
L 28.6414 42.977599 
" clip-path="url(#p19cbad304f)" style="fill: none; stroke: #808080; stroke-width: 0.4; stroke-linecap: square"/>
   </g>
   <g id="line2d_4">
    <path d="M 14.930137 45.679491 
L 16.045662 44.302887 
L 17.567925 42.425169 
L 18.524245 41.245084 
L 19.480566 40.064998 
L 20.276455 39.083181 
L 21.072344 38.101364 
L 21.868233 37.119547 
L 22.664122 36.13773 
L 24.195381 34.248349 
L 25.726639 32.358969 
L 26.596269 31.285987 
L 27.4659 30.213005 
L 28.33553 29.140024 
L 29.205161 28.067042 
L 30.198284 26.841569 
L 31.191407 25.616095 
L 32.184531 24.390622 
L 33.177654 23.165149 
L 34.680833 21.310757 
" clip-path="url(#p19cbad304f)" style="fill: none; stroke: #808080; stroke-width: 0.4; stroke-linecap: square"/>
   </g>
   <g id="line2d_5">
    <path d="M 4.859871 40.173463 
L 5.612551 39.024478 
L 6.365231 37.875494 
L 7.110823 36.831475 
L 7.856416 35.787456 
L 8.723047 34.516206 
L 9.589679 33.244956 
L 10.739554 31.423609 
L 11.861077 29.670683 
L 12.464094 28.345007 
L 13.103095 27.291852 
" clip-path="url(#p19cbad304f)" style="fill: none; stroke: #808080; stroke-width: 0.4; stroke-linecap: square"/>
   </g>
   <g id="line2d_6">
    <path d="M 33.441542 6.618295 
L 34.114347 8.001508 
L 34.738627 9.284421 
L 35.362907 10.567334 
L 36.077422 12.03588 
L 36.791936 13.504426 
L 37.524988 15.011071 
L 38.25804 16.517717 
L 38.909036 17.855833 
" clip-path="url(#p19cbad304f)" style="fill: none; stroke: #808080; stroke-width: 0.4; stroke-linecap: square"/>
   </g>
   <g id="line2d_7">
    <path d="M 68.331986 20.535566 
L 66.062769 20.051558 
L 64.223187 19.676209 
L 62.383605 19.30086 
L 60.558199 18.928232 
L 58.732793 18.555604 
L 56.766174 18.154208 
L 54.799556 17.752812 
L 52.943617 17.373769 
L 52.083801 17.198438 
" clip-path="url(#p19cbad304f)" style="fill: none; stroke: #808080; stroke-width: 0.4; stroke-linecap: square"/>
   </g>
   <g id="line2d_8">
    <path d="M 45.06024 2.82787 
L 45.300684 4.734357 
L 45.496964 6.114071 
L 45.693244 7.493785 
L 45.889252 8.873305 
L 46.085259 10.252826 
L 46.27636 11.597551 
L 46.46746 12.942277 
L 46.609764 13.944504 
" clip-path="url(#p19cbad304f)" style="fill: none; stroke: #808080; stroke-width: 0.4; stroke-linecap: square"/>
   </g>
   <g id="line2d_9">
    <path d="M 12.478269 42.021246 
L 13.411691 40.066165 
L 14.083951 38.470688 
L 14.829816 36.526103 
L 15.642743 34.492492 
L 16.445856 32.386182 
L 17.295313 30.134087 
L 17.746485 28.927177 
L 18.197657 27.720267 
L 18.562411 26.687716 
L 18.93807 25.655555 
" clip-path="url(#p19cbad304f)" style="fill: none; stroke: #808080; stroke-width: 0.4; stroke-linecap: square"/>
   </g>
   <g id="line2d_10">
    <path d="M 49.871832 18.352671 
L 49.86638 19.004624 
L 49.860927 19.656577 
L 50.050665 20.048448 
L 50.240402 20.44032 
L 50.43014 20.832191 
L 50.619877 21.224063 
L 50.999353 21.743837 
L 51.378828 22.263611 
L 51.873617 22.576953 
L 52.368407 22.890294 
L 52.749927 22.863518 
L 53.131446 22.836743 
L 53.512966 22.809967 
L 53.894486 22.783191 
L 54.276005 22.756415 
L 54.657525 22.729639 
L 55.039045 22.702863 
L 55.420564 22.676087 
" clip-path="url(#p19cbad304f)" style="fill: none; stroke: #4169e1; stroke-width: 0.4; stroke-linecap: square"/>
   </g>
   <g id="line2d_11">
    <path d="M 51.394639 17.861276 
L 51.695875 18.338967 
L 51.99711 18.816657 
L 52.298346 19.294348 
L 52.599582 19.772039 
L 52.95016 20.16391 
L 53.300738 20.555782 
L 53.651316 20.947653 
L 54.001895 21.339525 
L 54.356562 21.673665 
L 54.71123 22.007806 
L 55.065897 22.341946 
L 55.420564 22.676087 
" clip-path="url(#p19cbad304f)" style="fill: none; stroke: #4169e1; stroke-width: 0.4; stroke-linecap: square"/>
   </g>
   <g id="line2d_12">
    <path d="M 55.420564 22.676087 
L 55.861786 22.754422 
L 56.303008 22.832758 
L 56.744229 22.911093 
L 57.185451 22.989429 
L 57.672062 22.968824 
L 58.158673 22.94822 
L 58.645285 22.927616 
L 59.131896 22.907011 
L 59.597925 22.775027 
L 60.063955 22.643042 
L 60.529984 22.511058 
L 60.996013 22.379073 
L 61.490939 22.292379 
L 61.985865 22.205686 
L 62.480791 22.118992 
L 62.975717 22.032298 
L 63.346878 22.032298 
L 63.718038 22.032298 
L 64.089198 22.032298 
L 64.460359 22.032298 
L 64.963463 21.995268 
L 65.466568 21.958239 
L 65.969672 21.921209 
L 66.472776 21.88418 
L 67.116139 21.686106 
L 67.759502 21.488032 
L 68.12671 21.192768 
L 68.493917 20.897503 
" clip-path="url(#p19cbad304f)" style="fill: none; stroke: #008000; stroke-width: 0.4; stroke-linecap: square"/>
   </g>
   <g id="line2d_13">
    <path d="M 51.884794 16.422081 
L 52.469273 16.087163 
L 53.053752 15.752245 
L 53.442223 15.51996 
L 53.830695 15.287675 
L 54.219166 15.05539 
L 54.607637 14.823105 
L 54.936952 14.544363 
L 55.266266 14.265621 
L 55.595581 13.986879 
L 55.924896 13.708137 
L 56.351396 13.484308 
L 56.777897 13.260479 
L 57.204397 13.036649 
L 57.630898 12.81282 
" clip-path="url(#p19cbad304f)" style="fill: none; stroke: #4169e1; stroke-width: 0.4; stroke-linecap: square"/>
   </g>
   <g id="line2d_14">
    <path d="M 53.559174 17.677781 
L 53.869406 18.088118 
L 54.179637 18.498456 
L 54.562656 19.051081 
L 54.945675 19.603705 
L 55.241186 19.844446 
L 55.536697 20.085186 
L 55.832208 20.325927 
L 56.127718 20.566667 
L 56.727191 20.760854 
L 57.326663 20.95504 
L 57.900919 20.993041 
L 58.475175 21.031043 
L 59.049431 21.069044 
L 59.623687 21.107046 
L 60.248785 21.107046 
L 60.873883 21.107046 
L 61.399342 21.338359 
L 61.9248 21.569672 
L 62.450259 21.800985 
L 62.975717 22.032298 
" clip-path="url(#p19cbad304f)" style="fill: none; stroke: #008000; stroke-width: 0.4; stroke-linecap: square"/>
   </g>
   <g id="line2d_15">
    <path d="M 52.346053 17.038657 
L 52.816717 17.018441 
L 53.28738 16.998226 
L 53.758044 16.97801 
L 54.228707 16.957795 
L 54.645939 16.822894 
L 55.063171 16.687994 
L 55.480403 16.553094 
L 55.897634 16.418194 
L 56.41805 16.389231 
L 56.938465 16.360268 
L 57.483142 16.347633 
L 58.02782 16.334999 
L 58.572498 16.322364 
L 59.117175 16.309729 
L 59.59002 16.436368 
L 60.062864 16.563007 
L 60.535709 16.689646 
L 61.008553 16.816285 
L 61.54478 17.141484 
L 62.081006 17.466683 
L 62.617233 17.791882 
L 63.15346 18.117081 
L 63.505674 18.417788 
L 63.857888 18.718495 
" clip-path="url(#p19cbad304f)" style="fill: none; stroke: #4169e1; stroke-width: 0.4; stroke-linecap: square"/>
   </g>
   <g id="line2d_16">
    <path d="M 51.26324 15.789955 
L 51.419583 15.290688 
L 51.575926 14.791421 
L 51.732268 14.292154 
L 51.888611 13.792887 
L 52.201024 13.328317 
L 52.513436 12.863748 
L 52.944026 12.753922 
L 53.374616 12.644097 
L 53.805206 12.534272 
L 54.235795 12.424447 
L 54.65807 12.39908 
L 55.080345 12.373714 
L 55.50262 12.348347 
L 55.924896 12.32298 
L 56.351396 12.44544 
L 56.777897 12.5679 
L 57.204397 12.69036 
L 57.630898 12.81282 
" clip-path="url(#p19cbad304f)" style="fill: none; stroke: #008000; stroke-width: 0.4; stroke-linecap: square"/>
   </g>
   <g id="line2d_17">
    <path d="M 51.842812 9.942205 
L 52.225831 9.903912 
L 52.60885 9.865619 
L 52.991869 9.827326 
L 53.374888 9.789033 
L 54.092674 9.907411 
L 54.81046 10.025789 
L 55.177804 10.28762 
L 55.545148 10.549451 
L 55.912492 10.811281 
L 56.279836 11.073112 
L 56.617601 11.508039 
L 56.955367 11.942966 
L 57.293132 12.377893 
L 57.630898 12.81282 
" clip-path="url(#p19cbad304f)" style="fill: none; stroke: #008000; stroke-width: 0.4; stroke-linecap: square"/>
   </g>
   <g id="line2d_18">
    <path d="M 61.937613 14.383805 
L 62.300731 14.24871 
L 62.66385 14.113616 
L 63.026968 13.978521 
L 63.390086 13.843426 
L 63.808136 13.733601 
L 64.226186 13.623776 
L 64.644235 13.513951 
L 65.062285 13.404126 
L 65.661757 13.378856 
L 66.26123 13.353587 
L 66.632799 13.42959 
L 67.004369 13.505593 
L 67.291428 13.89416 
L 67.578488 14.282727 
L 67.654547 14.772566 
L 67.730605 15.262406 
L 67.662998 15.963343 
L 67.59539 16.66428 
L 67.696802 17.095027 
L 67.798213 17.525775 
L 68.030478 17.876341 
L 68.262743 18.226906 
L 68.495008 18.577472 
L 68.727273 18.928038 
L 68.685836 19.611286 
L 68.644399 20.294534 
" clip-path="url(#p19cbad304f)" style="fill: none; stroke: #008000; stroke-width: 0.4; stroke-linecap: square"/>
   </g>
   <g id="line2d_19">
    <path d="M 57.630898 12.81282 
L 58.175575 12.977557 
L 58.720253 13.142295 
L 59.264931 13.307033 
L 59.809608 13.47177 
L 60.341609 13.699779 
L 60.873611 13.927788 
L 61.405612 14.155796 
L 61.937613 14.383805 
L 62.490741 14.818829 
L 63.04387 15.253853 
L 63.596999 15.688877 
L 64.150127 16.123901 
L 64.703256 16.558925 
L 65.256384 16.993949 
L 65.809513 17.428973 
L 66.362641 17.863997 
L 66.860839 18.151098 
L 67.359036 18.438198 
L 67.857233 18.725298 
L 68.355431 19.012399 
L 68.499915 19.653466 
L 68.644399 20.294534 
" clip-path="url(#p19cbad304f)" style="fill: none; stroke: #008000; stroke-width: 0.4; stroke-linecap: square"/>
   </g>
   <g id="line2d_20">
    <path d="M 51.288321 8.554715 
L 51.679791 8.123385 
L 52.071261 7.692054 
L 52.488356 7.402038 
L 52.905452 7.112022 
L 53.273477 6.560369 
L 53.259301 6.065281 
L 53.245125 5.570194 
L 53.181334 5.174046 
L 53.117543 4.777898 
L 52.665008 4.310995 
L 51.943678 4.36756 
L 51.222349 4.424125 
L 50.840556 4.424125 
L 50.458764 4.424125 
L 50.076972 4.424125 
L 49.69518 4.424125 
L 49.274404 4.328684 
L 48.853628 4.233243 
L 48.432852 4.137802 
L 48.012077 4.042361 
L 47.548774 3.745347 
L 47.08547 3.448334 
L 46.622167 3.15132 
L 46.158864 2.854306 
L 45.470248 2.641654 
" clip-path="url(#p19cbad304f)" style="fill: none; stroke: #008000; stroke-width: 0.4; stroke-linecap: square"/>
   </g>
   <g id="line2d_21">
    <path d="M 43.583777 16.171719 
L 43.834034 16.289514 
L 43.963934 16.953032 
L 44.093833 17.616551 
L 44.223732 18.280069 
L 44.353632 18.943588 
L 44.365354 19.389983 
L 44.377076 19.836379 
L 44.388798 20.282774 
L 44.400521 20.729169 
L 44.327461 21.154863 
L 44.254401 21.580557 
L 44.23859 22.270609 
L 44.124774 22.960563 
L 44.010959 23.650517 
L 43.897144 24.340472 
L 43.783328 25.030426 
L 43.619762 25.393141 
L 43.456195 25.755855 
L 43.292628 26.11857 
L 43.129061 26.481284 
L 42.759264 26.89376 
L 42.389466 27.306236 
L 42.019669 27.718712 
L 41.649872 28.131188 
L 41.187659 28.429951 
L 40.725446 28.728714 
L 40.263234 29.027477 
L 39.801021 29.32624 
L 39.37343 29.566592 
L 38.945839 29.806944 
L 38.518248 30.047296 
L 38.090657 30.287648 
L 37.715816 30.423034 
L 37.340976 30.55842 
L 36.966135 30.693806 
L 36.591294 30.829192 
L 35.925032 30.84484 
L 35.25877 30.860488 
L 34.592507 30.876135 
L 33.926245 30.891783 
L 33.464986 30.91608 
L 33.003728 30.940378 
L 32.345371 30.974978 
L 31.687015 31.009578 
L 31.174369 31.036499 
L 30.661723 31.063421 
L 30.149078 31.090343 
L 29.636432 31.117265 
L 29.268747 31.291964 
L 28.901063 31.466664 
L 28.533378 31.641364 
L 28.165693 31.816063 
L 27.798009 31.990763 
L 27.430324 32.165463 
L 27.062639 32.340162 
L 26.694955 32.514862 
L 26.180878 32.759199 
L 25.666801 33.003535 
L 25.152724 33.247872 
L 24.638647 33.492208 
L 24.12457 33.736545 
L 23.610493 33.980881 
L 23.096416 34.225218 
L 22.582339 34.469555 
" clip-path="url(#p19cbad304f)" style="fill: none; stroke: #008000; stroke-width: 0.4; stroke-linecap: square"/>
   </g>
   <g id="line2d_22">
    <path d="M 17.186269 25.479446 
L 17.282228 24.855872 
L 17.247879 24.379251 
L 17.21353 23.902629 
L 17.179181 23.426008 
L 17.144832 22.949386 
L 17.041785 22.399677 
L 16.938737 21.849969 
L 16.83569 21.30026 
L 16.732643 20.750551 
L 16.578073 20.35557 
L 16.423502 19.960588 
L 16.183059 19.651523 
L 15.736521 19.496796 
L 15.349958 19.556859 
L 14.963395 19.616923 
L 14.534032 19.831714 
L 14.104669 20.046504 
L 13.82129 20.308432 
L 13.53791 20.57036 
L 13.25453 20.832288 
L 12.971151 21.094216 
L 12.412979 21.278878 
L 11.854807 21.46354 
L 11.296635 21.648202 
L 10.738463 21.832863 
L 10.287564 22.142026 
L 9.836665 22.451188 
L 9.385766 22.760351 
L 8.934866 23.069513 
L 8.591376 23.400155 
L 8.247886 23.730797 
L 7.904395 24.061438 
L 7.560905 24.39208 
L 7.217414 24.722722 
L 6.873924 25.053363 
L 6.530434 25.384005 
L 6.186943 25.714646 
L 5.970081 26.060304 
L 5.753219 26.405962 
L 5.536356 26.751619 
L 5.319494 27.097277 
L 5.102631 27.442934 
L 4.885769 27.788592 
L 4.668907 28.134249 
L 4.452044 28.479907 
L 4.258763 28.883538 
L 4.065481 29.28717 
L 3.8722 29.690802 
L 3.678918 30.094433 
L 3.541522 30.609736 
L 3.404126 31.12504 
L 3.447199 31.605938 
L 3.490271 32.086836 
L 3.627667 32.619244 
L 3.765063 33.151653 
L 4.091379 33.589593 
L 4.417695 34.027533 
L 4.6839 34.358174 
L 4.950105 34.688816 
L 5.21631 35.019458 
L 5.482515 35.350099 
L 5.731546 35.736528 
L 5.980576 36.122957 
L 6.229607 36.509386 
L 6.478637 36.895815 
" clip-path="url(#p19cbad304f)" style="fill: none; stroke: #008000; stroke-width: 0.4; stroke-linecap: square"/>
   </g>
   <g id="line2d_23">
    <path d="M 13.363166 26.964903 
L 13.521826 26.854884 
L 13.624328 27.229456 
L 13.72683 27.604027 
L 13.54861 28.065584 
L 13.37039 28.527141 
L 13.192171 28.988698 
L 13.013951 29.450255 
L 12.835731 29.911812 
L 12.657511 30.373369 
L 12.479292 30.834927 
L 12.301072 31.296484 
L 12.112152 31.67436 
L 11.923233 32.052236 
L 11.734313 32.430112 
L 11.545393 32.807988 
L 11.356473 33.185864 
L 11.167554 33.56374 
L 10.978634 33.941617 
L 10.789714 34.319493 
L 10.544909 34.715641 
L 10.189697 35.290813 
L 9.834484 35.865986 
L 9.479271 36.441158 
L 9.124059 37.016331 
L 8.716096 37.325494 
L 8.308133 37.634656 
L 7.90017 37.943819 
L 7.492207 38.252981 
L 6.95489 38.490903 
L 6.417573 38.728825 
L 6.093846 39.12371 
L 5.77012 39.518594 
L 5.446394 39.913479 
L 5.122668 40.308363 
" clip-path="url(#p19cbad304f)" style="fill: none; stroke: #4169e1; stroke-width: 0.4; stroke-linecap: square"/>
   </g>
   <g id="line2d_24">
    <path d="M 52.505803 17.432861 
L 53.032488 17.555321 
L 53.559174 17.677781 
L 54.029326 17.786926 
L 54.499479 17.89607 
L 54.969631 18.005215 
L 55.439784 18.11436 
L 55.909936 18.223505 
L 56.380088 18.332649 
L 56.850241 18.441794 
L 57.320393 18.550939 
L 57.790546 18.660084 
L 58.260698 18.769229 
L 58.730851 18.878373 
L 59.201003 18.987518 
L 59.671156 19.096663 
L 60.141308 19.205808 
L 60.611461 19.314952 
L 61.081613 19.424097 
L 61.71966 19.237103 
L 62.357707 19.050109 
L 62.995754 18.863114 
L 63.633801 18.67612 
L 63.857888 18.718495 
L 64.52047 18.843288 
L 65.183052 18.96808 
L 65.845634 19.092872 
L 66.508216 19.217665 
L 66.950392 19.341291 
L 67.392567 19.464917 
L 67.834743 19.588543 
L 68.276919 19.712169 
L 68.644399 20.294534 
" clip-path="url(#p19cbad304f)" style="fill: none; stroke: #4169e1; stroke-width: 0.4; stroke-linecap: square"/>
   </g>
   <g id="line2d_25">
    <path d="M 48.049697 14.705311 
L 48.365517 14.234812 
L 48.681338 13.764313 
L 48.997158 13.293815 
L 49.312978 12.823316 
L 49.616122 12.339891 
L 49.919266 11.856467 
L 49.97079 11.282655 
L 50.022313 10.708843 
L 49.790185 10.209284 
L 49.558056 9.709726 
L 49.325927 9.210167 
L 49.093799 8.710609 
L 48.744447 8.273544 
L 48.395096 7.836479 
L 48.045744 7.399414 
L 47.696393 6.962348 
L 47.263758 6.421193 
L 46.831124 5.880037 
L 46.724397 5.474947 
L 46.617669 5.069858 
L 46.510942 4.664768 
L 46.404215 4.259679 
L 46.148641 3.871403 
L 45.893068 3.483128 
L 45.637495 3.094852 
L 45.381922 2.706577 
" clip-path="url(#p19cbad304f)" style="fill: none; stroke: #008000; stroke-width: 0.4; stroke-linecap: square"/>
   </g>
   <g id="line2d_26">
    <path d="M 47.071567 14.471665 
L 47.193425 13.821461 
L 47.315282 13.171258 
L 47.244948 12.674907 
L 47.174614 12.178555 
L 47.104281 11.682204 
L 47.033947 11.185853 
L 46.936011 10.677159 
L 46.838076 10.168464 
L 46.74014 9.65977 
L 46.642204 9.151076 
L 46.544269 8.642381 
L 46.446333 8.133687 
L 46.348397 7.624992 
L 46.250462 7.116298 
L 46.152526 6.607604 
L 46.05459 6.098909 
L 45.956655 5.590215 
L 45.858719 5.081521 
L 45.760783 4.572826 
L 45.662848 4.064132 
L 45.564912 3.555437 
L 45.466977 3.046743 
L 45.278329 2.755172 
" clip-path="url(#p19cbad304f)" style="fill: none; stroke: #008000; stroke-width: 0.4; stroke-linecap: square"/>
   </g>
   <g id="line2d_27">
    <path d="M 51.288321 8.554715 
L 50.83933 8.35567 
L 50.390339 8.156624 
L 49.941348 7.957578 
L 49.492357 7.758532 
L 49.043366 7.559486 
L 48.594375 7.36044 
L 48.145384 7.161394 
L 47.696393 6.962348 
" clip-path="url(#p19cbad304f)" style="fill: none; stroke: #008000; stroke-width: 0.4; stroke-linecap: square"/>
   </g>
   <g id="line2d_28">
    <path d="M 44.497025 12.912731 
L 44.521492 12.502977 
L 44.545959 12.093222 
L 44.570426 11.683468 
L 44.594893 11.273713 
L 44.619359 10.863959 
L 44.643826 10.454204 
L 44.668293 10.044449 
L 44.69276 9.634695 
L 44.677801 9.248144 
L 44.662841 8.861594 
L 44.647881 8.475044 
L 44.632922 8.088493 
L 44.617962 7.701943 
L 44.603003 7.315393 
L 44.588043 6.928842 
L 44.573084 6.542292 
L 44.558124 6.155741 
L 44.543165 5.769191 
L 44.528205 5.382641 
L 44.513246 4.99609 
L 44.498286 4.60954 
L 44.483326 4.222989 
L 44.468367 3.836439 
L 44.453407 3.449889 
L 44.692215 3.114582 
L 44.931022 2.779275 
" clip-path="url(#p19cbad304f)" style="fill: none; stroke: #008000; stroke-width: 0.4; stroke-linecap: square"/>
   </g>
   <g id="line2d_29">
    <path d="M 43.954528 15.891422 
L 44.06848 15.251132 
L 44.007824 14.709684 
L 43.947168 14.168237 
L 43.886512 13.626789 
L 43.825856 13.085342 
L 43.513307 12.429793 
L 43.200758 11.774244 
L 42.888209 11.118695 
L 42.57566 10.463145 
L 42.424224 10.120647 
L 42.272789 9.778148 
L 42.121353 9.435649 
L 41.969917 9.09315 
L 41.818482 8.750651 
L 41.667046 8.408152 
L 41.51561 8.065654 
L 41.364175 7.723155 
L 41.305836 7.591753 
L 40.965344 7.357039 
L 40.624853 7.122324 
L 40.284361 6.887609 
L 39.943869 6.652894 
L 39.603378 6.41818 
L 39.262886 6.183465 
L 38.922394 5.94875 
L 38.581903 5.714035 
L 38.059579 5.755439 
L 37.537256 5.796842 
L 37.014932 5.838245 
L 36.492609 5.879648 
L 35.970285 5.921051 
L 35.447962 5.962454 
L 34.925638 6.003857 
L 34.403315 6.04526 
L 33.785032 6.102408 
" clip-path="url(#p19cbad304f)" style="fill: none; stroke: #008000; stroke-width: 0.4; stroke-linecap: square"/>
   </g>
   <g id="line2d_30">
    <path d="M 41.364175 7.723155 
L 41.731928 7.13146 
L 42.09968 6.539765 
L 42.467433 5.94807 
L 42.835186 5.356375 
L 43.202939 4.76468 
L 43.570692 4.172985 
L 43.938444 3.58129 
L 44.306197 2.989595 
L 44.823068 2.641654 
" clip-path="url(#p19cbad304f)" style="fill: none; stroke: #008000; stroke-width: 0.4; stroke-linecap: square"/>
   </g>
   <g id="line2d_31">
    <path d="M 41.839609 17.491953 
L 41.986819 16.777409 
L 42.069693 16.160736 
L 42.152567 15.544063 
L 42.235441 14.927391 
L 42.318315 14.310718 
L 42.106632 13.813686 
L 41.894949 13.316655 
L 41.683266 12.819623 
L 41.471584 12.322592 
L 41.069482 11.787753 
L 40.66738 11.252914 
L 40.265278 10.718076 
L 39.863176 10.183237 
L 39.685979 9.947648 
L 39.414526 9.669246 
L 39.143073 9.390844 
L 38.87162 9.112442 
L 38.600168 8.834041 
L 38.328715 8.555639 
L 38.057262 8.277237 
L 37.785809 7.998835 
L 37.514356 7.720433 
L 37.044579 7.535869 
L 36.574801 7.351304 
L 36.105024 7.16674 
L 35.635246 6.982175 
L 35.165468 6.797611 
L 34.695691 6.613046 
L 34.225913 6.428482 
L 33.756135 6.243917 
" clip-path="url(#p19cbad304f)" style="fill: none; stroke: #4169e1; stroke-width: 0.4; stroke-linecap: square"/>
   </g>
   <g id="line2d_32">
    <path d="M 41.346728 17.827843 
L 41.363357 17.441219 
L 41.379986 17.054596 
L 41.195156 16.37232 
L 40.896101 15.976561 
L 40.597046 15.580801 
L 40.297992 15.185042 
L 39.998937 14.789283 
L 39.981967 14.213527 
L 39.964997 13.637772 
L 39.948027 13.062016 
L 39.931057 12.48626 
L 39.914087 11.910504 
L 39.897116 11.334749 
L 39.880146 10.758993 
L 39.863176 10.183237 
" clip-path="url(#p19cbad304f)" style="fill: none; stroke: #008000; stroke-width: 0.4; stroke-linecap: square"/>
   </g>
   <g id="line2d_33">
    <path d="M 36.958229 15.033425 
L 37.066865 14.492658 
L 37.1755 13.951891 
L 37.284136 13.411124 
L 37.392772 12.870356 
L 37.515174 12.342224 
L 37.637577 11.814092 
L 37.759979 11.285959 
L 37.882382 10.757827 
L 37.550886 10.122785 
L 37.219391 9.487743 
L 36.892802 9.170125 
L 36.566214 8.852507 
L 36.239625 8.534889 
L 35.913037 8.217271 
L 35.630884 7.978814 
L 35.348731 7.740357 
L 35.066579 7.501901 
L 34.784426 7.263444 
L 34.502273 7.024988 
L 34.22012 6.786531 
L 33.937967 6.548075 
L 33.655814 6.309618 
" clip-path="url(#p19cbad304f)" style="fill: none; stroke: #008000; stroke-width: 0.4; stroke-linecap: square"/>
   </g>
   <g id="line2d_34">
    <path d="M 38.646784 19.176456 
L 38.575087 18.65746 
L 38.503391 18.138463 
L 38.397617 17.937085 
L 38.217694 17.574127 
L 38.03777 17.21117 
L 37.857847 16.848212 
L 37.677923 16.485255 
L 37.498 16.122298 
L 37.318076 15.75934 
L 37.138153 15.396383 
L 36.958229 15.033425 
L 36.710834 14.534353 
L 36.463439 14.03528 
L 36.216045 13.536208 
L 35.96865 13.037135 
L 35.721255 12.538063 
L 35.47386 12.03899 
L 35.226465 11.539918 
L 34.97907 11.040845 
L 34.729972 10.538371 
L 34.480873 10.035897 
L 34.231774 9.533422 
L 33.982676 9.030948 
L 33.733577 8.528474 
L 33.484478 8.026 
L 33.23538 7.523526 
L 32.986281 7.021051 
L 33.255076 6.336443 
" clip-path="url(#p19cbad304f)" style="fill: none; stroke: #4169e1; stroke-width: 0.4; stroke-linecap: square"/>
   </g>
   <g id="line2d_35">
    <path d="M 37.243926 19.776704 
L 37.251559 19.173346 
L 37.015205 18.860053 
L 36.778851 18.54676 
L 36.542497 18.233467 
L 36.306143 17.920174 
L 36.069789 17.60688 
L 35.833434 17.293587 
L 35.59708 16.980294 
L 35.360726 16.667001 
L 35.176577 16.165304 
L 34.992428 15.663608 
L 34.808279 15.161911 
L 34.62413 14.660214 
L 34.605729 14.154047 
L 34.587328 13.647879 
L 34.568926 13.141712 
L 34.550525 12.635545 
L 34.657661 12.23687 
L 34.764798 11.838195 
L 34.871934 11.43952 
L 34.97907 11.040845 
" clip-path="url(#p19cbad304f)" style="fill: none; stroke: #4169e1; stroke-width: 0.4; stroke-linecap: square"/>
   </g>
   <g id="line2d_36">
    <path d="M 34.329165 20.354792 
L 34.044286 19.983525 
L 33.759407 19.612258 
L 33.701886 19.244101 
L 33.644365 18.875944 
L 33.586844 18.507786 
L 33.529323 18.139629 
L 33.471802 17.771472 
L 33.414281 17.403315 
L 33.35676 17.035158 
L 33.299239 16.667001 
L 33.2302 16.126234 
L 33.161161 15.585467 
L 33.092122 15.044699 
L 33.023083 14.503932 
L 32.954045 13.963165 
L 32.885006 13.422398 
L 32.815967 12.881631 
L 32.746928 12.340863 
L 32.641018 11.770259 
L 32.535109 11.199654 
L 32.429199 10.629049 
L 32.32329 10.058445 
L 32.383128 9.335834 
L 32.442966 8.613224 
L 32.502804 7.890614 
L 32.562643 7.168003 
L 32.769827 6.753389 
L 32.977012 6.338775 
" clip-path="url(#p19cbad304f)" style="fill: none; stroke: #4169e1; stroke-width: 0.4; stroke-linecap: square"/>
   </g>
   <g id="line2d_37">
    <path d="M 31.408406 21.280044 
L 30.99649 20.90489 
L 30.584574 20.529735 
L 30.48548 19.881572 
L 30.386386 19.23341 
L 30.287292 18.585247 
L 30.188197 17.937085 
L 30.287155 17.545893 
L 30.386113 17.154702 
L 30.485071 16.763511 
L 30.584029 16.37232 
L 30.682987 15.981129 
L 30.781945 15.589937 
L 30.880903 15.198746 
L 30.979861 14.807555 
L 31.117802 14.365727 
L 31.255744 13.9239 
L 31.143019 13.541942 
L 31.030294 13.159984 
L 30.917569 12.778026 
L 30.804844 12.396067 
L 30.692119 12.014109 
L 30.579395 11.632151 
L 30.46667 11.250193 
L 30.353945 10.868235 
L 30.381479 10.279261 
L 30.409013 9.690288 
L 30.818611 9.271494 
L 31.22821 8.852701 
L 31.637808 8.433908 
L 32.047407 8.015115 
L 32.08421 7.637627 
L 32.121012 7.26014 
L 32.367998 6.831725 
L 32.614984 6.40331 
" clip-path="url(#p19cbad304f)" style="fill: none; stroke: #008000; stroke-width: 0.4; stroke-linecap: square"/>
   </g>
   <g id="line2d_38">
    <path d="M 34.329165 20.354792 
L 33.736916 20.525361 
L 33.144668 20.69593 
L 32.55242 20.866499 
L 31.960171 21.037069 
L 31.408406 21.280044 
L 31.044333 21.440311 
L 30.680261 21.600578 
L 30.316188 21.760845 
L 29.952116 21.921112 
L 29.743704 22.240771 
L 29.535293 22.56043 
L 29.326882 22.880089 
L 29.11847 23.199749 
L 28.910059 23.519408 
L 28.701647 23.839067 
L 28.493236 24.158726 
L 28.284824 24.478385 
L 28.076413 24.798044 
L 27.868002 25.117703 
L 27.65959 25.437362 
L 27.451179 25.757021 
L 27.242767 26.076681 
L 27.034356 26.39634 
L 26.825944 26.715999 
L 26.617533 27.035658 
L 26.403124 27.430688 
L 26.188715 27.825718 
L 25.974306 28.220749 
L 25.759897 28.615779 
L 25.545489 29.010809 
L 25.33108 29.405839 
L 25.116671 29.80087 
L 24.902262 30.1959 
L 24.564088 30.818793 
L 24.225913 31.441686 
L 23.887739 32.064579 
L 23.549564 32.687472 
L 23.307758 33.132993 
L 23.065952 33.578513 
L 22.824145 34.024034 
L 22.582339 34.469555 
L 22.330446 34.933347 
L 21.983139 35.370509 
L 21.635832 35.807672 
L 21.288525 36.244834 
L 20.941218 36.681996 
L 20.68769 37.001072 
L 20.434161 37.320148 
L 20.180632 37.639224 
L 19.927104 37.9583 
L 19.673575 38.277376 
L 19.420046 38.596452 
L 19.166518 38.915528 
L 18.912989 39.234604 
L 18.623612 39.598825 
L 18.334235 39.963046 
L 18.044858 40.327267 
L 17.755481 40.691488 
L 17.466104 41.055708 
L 17.176727 41.419929 
L 16.88735 41.78415 
L 16.597973 42.148371 
L 16.308596 42.512592 
L 16.019219 42.876813 
L 15.729842 43.241034 
L 15.440465 43.605255 
L 15.151088 43.969476 
L 14.861711 44.333696 
L 14.572334 44.697917 
L 14.282957 45.062138 
" clip-path="url(#p19cbad304f)" style="fill: none; stroke: #008000; stroke-width: 0.4; stroke-linecap: square"/>
   </g>
   <g id="line2d_39">
    <path d="M 13.368618 26.745642 
L 13.459671 26.519383 
L 13.839895 26.412619 
L 14.22012 26.305855 
L 14.600345 26.199092 
L 14.98057 26.092328 
L 15.360794 25.985565 
L 15.741019 25.878801 
L 16.121244 25.772037 
L 16.501469 25.665274 
L 17.186269 25.479446 
L 17.827996 25.304892 
L 18.469723 25.130338 
L 18.864601 24.791824 
L 19.259478 24.45331 
L 19.654356 24.114796 
L 20.049234 23.776282 
L 20.462921 23.51309 
L 20.876609 23.249899 
L 21.290297 22.986707 
L 21.703985 22.723516 
L 22.167697 22.930337 
L 22.631409 23.137158 
L 23.095121 23.343979 
L 23.558833 23.5508 
L 23.605858 23.948795 
L 23.652884 24.346789 
L 23.699909 24.744784 
L 23.746935 25.142778 
L 23.79396 25.540773 
L 23.840986 25.938767 
L 23.888011 26.336762 
L 23.935037 26.734757 
L 23.910945 27.106801 
L 23.886853 27.478846 
L 23.862761 27.850891 
L 23.838669 28.222935 
L 23.814577 28.59498 
L 23.790484 28.967025 
L 23.766392 29.33907 
L 23.7423 29.711114 
L 23.718208 30.083159 
L 23.694116 30.455204 
L 23.670024 30.827248 
L 23.645932 31.199293 
L 23.62184 31.571338 
L 23.597748 31.943383 
L 23.573656 32.315427 
L 23.549564 32.687472 
" clip-path="url(#p19cbad304f)" style="fill: none; stroke: #008000; stroke-width: 0.4; stroke-linecap: square"/>
   </g>
   <g id="line2d_40">
    <path d="M 16.501469 25.665274 
L 16.623871 26.094272 
L 16.746274 26.52327 
L 16.719558 27.171627 
L 16.692842 27.819984 
L 16.666126 28.468341 
L 16.63941 29.116698 
L 16.507875 29.768554 
L 16.37634 30.42041 
L 16.244805 31.072265 
L 16.11327 31.724121 
L 15.887548 32.125226 
L 15.661826 32.52633 
L 15.436103 32.927435 
L 15.210381 33.32854 
L 14.627197 33.501927 
L 14.044013 33.675315 
L 13.460829 33.848703 
L 12.877645 34.02209 
L 12.294461 34.195478 
L 11.711277 34.368865 
L 11.128093 34.542253 
L 10.544909 34.715641 
" clip-path="url(#p19cbad304f)" style="fill: none; stroke-dasharray: 1.48,0.64; stroke-dashoffset: 0; stroke: #000000; stroke-width: 0.4"/>
   </g>
   <g id="line2d_41">
    <path d="M 15.210381 33.32854 
L 15.063103 33.707777 
L 14.915824 34.087013 
L 14.768546 34.46625 
L 14.621268 34.845487 
L 14.473989 35.224724 
L 14.326711 35.603961 
L 14.179433 35.983197 
L 14.032155 36.362434 
L 13.587116 36.769856 
L 13.142078 37.177278 
L 12.69704 37.5847 
L 12.252002 37.992122 
L 11.88534 38.086154 
L 11.518677 38.180186 
L 11.152015 38.274217 
L 10.785353 38.368249 
L 10.41869 38.462281 
L 10.052028 38.556312 
L 9.685366 38.650344 
L 9.318703 38.744376 
L 8.794199 38.939874 
L 8.269694 39.135373 
L 7.74519 39.330871 
L 7.220686 39.526369 
L 6.696181 39.721868 
L 6.171677 39.917366 
L 5.647173 40.112865 
L 5.122668 40.308363 
" clip-path="url(#p19cbad304f)" style="fill: none; stroke: #4169e1; stroke-width: 0.4; stroke-linecap: square"/>
   </g>
   <g id="line2d_42">
    <path d="M 19.601606 26.054813 
L 19.466936 26.505096 
L 19.332266 26.955379 
L 19.197596 27.405662 
L 19.062926 27.855945 
L 18.928255 28.306228 
L 18.793585 28.756511 
L 18.658915 29.206794 
L 18.524245 29.657076 
L 18.404535 30.118269 
L 18.284824 30.579462 
L 18.165114 31.040654 
L 18.045403 31.501847 
L 17.925693 31.963039 
L 17.805982 32.424232 
L 17.686272 32.885425 
L 17.566561 33.346617 
L 17.446851 33.80781 
L 17.327141 34.269002 
L 17.20743 34.730195 
L 17.08772 35.191388 
L 16.968009 35.65258 
L 16.848299 36.113773 
L 16.728588 36.574965 
L 16.608878 37.036158 
L 16.239285 37.640342 
L 15.869692 38.244526 
L 15.500099 38.84871 
L 15.130506 39.452893 
L 14.760913 40.057077 
L 14.39132 40.661261 
L 14.021727 41.265445 
L 13.652134 41.869629 
L 13.241036 42.147594 
L 12.829938 42.425558 
" clip-path="url(#p19cbad304f)" style="fill: none; stroke: #008000; stroke-width: 0.4; stroke-linecap: square"/>
   </g>
   <g id="line2d_43">
    <path d="M 19.382971 25.379534 
L 19.848592 25.69793 
L 19.924105 26.303717 
L 19.999618 26.909505 
L 20.075132 27.515292 
L 20.150645 28.12108 
L 20.226158 28.726867 
L 20.301672 29.332655 
L 20.377185 29.938443 
L 20.452699 30.54423 
L 20.528212 31.150018 
L 20.603725 31.755805 
L 20.679239 32.361593 
L 20.754752 32.96738 
L 20.830265 33.573168 
L 20.905779 34.178955 
L 20.981292 34.784743 
L 21.056805 35.390531 
L 20.999012 36.036263 
L 20.941218 36.681996 
" clip-path="url(#p19cbad304f)" style="fill: none; stroke: #008000; stroke-width: 0.4; stroke-linecap: square"/>
   </g>
   <g id="line2d_44">
    <path d="M 29.952116 21.921112 
L 29.602287 22.109807 
L 29.252459 22.298502 
L 28.90263 22.487197 
L 28.552801 22.675892 
L 28.202973 22.864588 
L 27.853144 23.053283 
L 27.503316 23.241978 
L 27.153487 23.430673 
L 26.747296 23.923622 
L 26.341105 24.416572 
L 25.934914 24.909521 
L 25.528723 25.402471 
L 25.450415 26.00165 
L 25.372108 26.600828 
L 25.2938 27.200007 
L 25.215493 27.799185 
L 25.137185 28.398364 
L 25.058877 28.997543 
L 24.98057 29.596721 
L 24.902262 30.1959 
" clip-path="url(#p19cbad304f)" style="fill: none; stroke: #008000; stroke-width: 0.4; stroke-linecap: square"/>
   </g>
   <g id="line2d_45">
    <path d="M 34.329165 20.354792 
L 34.018115 20.934241 
L 33.707065 21.51369 
L 33.451492 21.853759 
L 33.195919 22.193828 
L 32.940346 22.533897 
L 32.684773 22.873966 
L 32.429199 23.214036 
L 32.173626 23.554105 
L 31.918053 23.894174 
L 31.66248 24.234243 
L 31.571223 24.615326 
L 31.479966 24.99641 
L 31.38871 25.377493 
L 31.297453 25.758577 
L 31.206196 26.13966 
L 31.11494 26.520743 
L 31.023683 26.901827 
L 30.932426 27.28291 
L 30.585528 27.739413 
L 30.23863 28.195917 
L 29.891732 28.65242 
L 29.544834 29.108923 
L 29.22547 29.469499 
L 28.906106 29.830075 
L 28.586742 30.190652 
L 28.267377 30.551228 
L 27.874272 31.042136 
L 27.481166 31.533045 
L 27.08806 32.023953 
L 26.694955 32.514862 
" clip-path="url(#p19cbad304f)" style="fill: none; stroke: #4169e1; stroke-width: 0.4; stroke-linecap: square"/>
   </g>
   <g id="line2d_46">
    <path d="M 37.774428 19.549667 
L 37.887834 20.235831 
L 37.728084 20.947848 
L 37.568333 21.659864 
L 37.408583 22.371881 
L 37.248833 23.083898 
L 37.016091 23.558575 
L 36.783349 24.033253 
L 36.550607 24.507931 
L 36.317865 24.982609 
L 36.085123 25.457286 
L 35.852381 25.931964 
L 35.619639 26.406642 
L 35.386897 26.88132 
L 35.181484 27.221389 
L 34.976072 27.561458 
L 34.770659 27.901527 
L 34.565246 28.241596 
L 34.359833 28.581665 
L 34.154421 28.921734 
L 33.949008 29.261803 
L 33.743595 29.601872 
L 33.22945 29.953799 
L 32.715305 30.305725 
L 32.20116 30.657651 
L 31.687015 31.009578 
" clip-path="url(#p19cbad304f)" style="fill: none; stroke: #008000; stroke-width: 0.4; stroke-linecap: square"/>
   </g>
   <g id="line2d_47">
    <path d="M 39.219813 18.931148 
L 39.452078 19.391247 
L 39.684343 19.851346 
L 39.782892 20.554518 
L 39.881441 21.257691 
L 39.97999 21.960863 
L 40.078539 22.664035 
L 40.115069 23.371484 
L 40.151599 24.078933 
L 40.188129 24.786381 
L 40.224659 25.49383 
L 40.20176 26.105449 
L 40.17886 26.717068 
L 40.155961 27.328687 
L 40.133062 27.940306 
L 39.967041 28.633273 
L 39.801021 29.32624 
" clip-path="url(#p19cbad304f)" style="fill: none; stroke: #008000; stroke-width: 0.4; stroke-linecap: square"/>
   </g>
   <g id="line2d_48">
    <path d="M 28.785884 43.284721 
L 28.505878 43.535229 
L 28.225872 43.785737 
L 27.945866 44.036245 
L 27.66586 44.286754 
L 27.385854 44.537262 
L 27.105848 44.78777 
L 26.825842 45.038278 
L 26.545836 45.288786 
L 26.26583 45.539294 
L 25.985824 45.789803 
L 25.705818 46.040311 
L 25.425812 46.290819 
L 25.145806 46.541327 
L 24.8658 46.791835 
L 24.585794 47.042343 
L 24.305788 47.292852 
L 23.935173 47.519305 
L 23.564558 47.745759 
L 23.193943 47.972212 
L 22.823327 48.198666 
L 22.452712 48.425119 
L 22.082097 48.651573 
L 21.711482 48.878026 
L 21.340866 49.10448 
L 20.970251 49.330934 
L 20.599636 49.557387 
L 20.229021 49.783841 
L 19.858406 50.010294 
L 19.48779 50.236748 
L 19.117175 50.463201 
L 18.74656 50.689655 
L 18.375945 50.916108 
" clip-path="url(#p19cbad304f)" style="fill: none; stroke: #4169e1; stroke-width: 0.4; stroke-linecap: square"/>
   </g>
   <g id="line2d_49">
    <path d="M 28.920554 43.400961 
L 29.035051 44.034642 
L 29.270451 44.469277 
L 29.505851 44.903912 
L 29.741251 45.338548 
L 29.976651 45.773183 
L 29.967655 46.271964 
L 29.958658 46.770745 
L 29.835166 47.355442 
L 29.711673 47.940139 
L 29.42952 48.516089 
L 29.147367 49.09204 
L 28.865214 49.66799 
L 28.583061 50.24394 
" clip-path="url(#p19cbad304f)" style="fill: none; stroke: #ff0000; stroke-width: 0.4; stroke-linecap: square"/>
   </g>
   <g id="line2d_50">
    <path d="M 32.465048 38.655349 
L 32.561961 39.154422 
L 32.658875 39.653494 
L 32.755788 40.152567 
L 32.852701 40.651639 
L 32.752994 41.189588 
L 32.653286 41.727537 
L 32.553578 42.265485 
L 32.453871 42.803434 
L 32.354163 43.341383 
L 32.254455 43.879332 
L 32.154748 44.41728 
L 32.05504 44.955229 
L 31.867211 45.61865 
L 31.679382 46.282072 
L 31.488213 46.679532 
L 31.297044 47.076992 
L 31.105875 47.474452 
L 30.914707 47.871912 
L 30.723538 48.269372 
L 30.532369 48.666832 
L 30.3412 49.064292 
L 30.150032 49.461752 
" clip-path="url(#p19cbad304f)" style="fill: none; stroke: #008000; stroke-width: 0.4; stroke-linecap: square"/>
   </g>
   <g id="line2d_51">
    <path d="M 35.006877 36.033153 
L 34.968166 36.399367 
L 34.929455 36.76558 
L 34.890744 37.131793 
L 34.852033 37.498006 
L 34.813323 37.86422 
L 34.774612 38.230433 
L 34.735901 38.596646 
L 34.69719 38.96286 
L 34.757982 39.535019 
L 34.818775 40.107179 
L 34.879567 40.679339 
L 34.940359 41.251498 
L 34.733175 41.84572 
L 34.52599 42.439942 
L 34.318805 43.034164 
L 34.111621 43.628386 
L 33.955414 43.978028 
L 33.799208 44.327671 
L 33.643002 44.677313 
L 33.486795 45.026955 
L 33.330589 45.376598 
L 33.174383 45.72624 
L 33.018176 46.075882 
L 32.86197 46.425525 
L 32.425383 46.967264 
L 31.988796 47.509003 
L 31.552208 48.050742 
L 31.115621 48.592481 
L 30.632827 49.027116 
L 30.150032 49.461752 
L 29.789094 49.786756 
L 29.407711 49.930404 
L 29.026327 50.074051 
L 28.583061 50.24394 
L 28.210129 50.386615 
L 27.837196 50.529291 
L 27.464264 50.671966 
L 27.091332 50.814642 
L 26.651882 50.762159 
L 26.212432 50.709676 
L 25.772983 50.657193 
L 25.333533 50.60471 
L 24.923117 50.637877 
L 24.5127 50.671043 
L 24.102284 50.704209 
L 23.691867 50.737375 
L 23.281451 50.770542 
L 22.871034 50.803708 
L 22.460618 50.836874 
L 22.050201 50.87004 
L 21.639785 50.903206 
L 21.229368 50.936373 
L 20.818952 50.969539 
L 20.408535 51.002705 
L 19.998119 51.035871 
L 19.587702 51.069037 
L 19.177286 51.102204 
L 18.76687 51.13537 
L 18.266355 51.048676 
" clip-path="url(#p19cbad304f)" style="fill: none; stroke: #008000; stroke-width: 0.4; stroke-linecap: square"/>
   </g>
   <g id="line2d_52">
    <path d="M 28.637038 42.311262 
L 28.252656 42.173252 
L 27.868274 42.035242 
L 27.494797 42.187393 
L 27.121319 42.339545 
L 26.747841 42.491696 
L 26.374364 42.643848 
L 26.000886 42.795999 
L 25.627408 42.948151 
L 25.253931 43.100302 
L 24.880453 43.252454 
L 24.441003 43.651857 
L 24.001554 44.051261 
L 23.562104 44.450665 
L 23.122655 44.850069 
L 22.683205 45.249473 
L 22.243755 45.648877 
L 21.804306 46.04828 
L 21.364856 46.447684 
L 20.878518 46.746253 
L 20.546477 47.041614 
L 20.214436 47.336976 
L 19.882395 47.632337 
L 19.550355 47.927699 
L 19.218314 48.223061 
L 18.886273 48.518422 
L 18.554233 48.813784 
L 18.222192 49.109145 
L 18.133593 49.694037 
L 18.044995 50.278928 
" clip-path="url(#p19cbad304f)" style="fill: none; stroke: #4169e1; stroke-width: 0.4; stroke-linecap: square"/>
   </g>
   <g id="line2d_53">
    <path d="M 28.695377 42.125045 
L 28.311268 41.77516 
L 27.927158 41.425275 
L 27.342407 41.307188 
L 26.757655 41.189102 
L 26.172904 41.071016 
L 25.588152 40.95293 
L 24.985545 40.905987 
L 24.382937 40.859044 
L 23.78033 40.812101 
L 23.177722 40.765158 
L 22.47861 40.986266 
L 21.779498 41.207374 
L 21.080386 41.428482 
L 20.381274 41.64959 
L 20.043713 42.123782 
L 19.706152 42.597974 
L 19.368591 43.072166 
L 19.03103 43.546357 
L 18.693469 44.020549 
L 18.355908 44.494741 
L 18.018347 44.968933 
L 17.680786 45.443124 
" clip-path="url(#p19cbad304f)" style="fill: none; stroke: #4169e1; stroke-width: 0.4; stroke-linecap: square"/>
   </g>
   <g id="line2d_54">
    <path d="M 30.030628 41.540348 
L 29.976106 41.088802 
L 29.921583 40.637255 
L 29.341194 40.3071 
L 28.760804 39.976944 
L 28.180414 39.646788 
L 27.600025 39.316633 
L 26.958842 39.062383 
L 26.31766 38.808133 
L 25.7539 38.791513 
L 25.19014 38.774893 
L 24.626379 38.758274 
L 24.062619 38.741654 
L 23.49327 38.852257 
L 22.923921 38.96286 
L 22.354572 39.073462 
L 21.785223 39.184065 
L 21.254176 39.371837 
L 20.778878 39.653786 
L 20.30358 39.935735 
L 19.828282 40.217684 
L 19.352984 40.499634 
L 19.024078 41.005412 
L 18.695173 41.511191 
L 18.366267 42.01697 
L 18.037361 42.522748 
L 17.843807 43.208329 
L 17.650253 43.89391 
L 17.657886 44.281214 
L 17.665519 44.668517 
L 17.673153 45.055821 
L 17.680786 45.443124 
L 17.69353 46.086962 
L 17.706275 46.7308 
L 17.719019 47.374637 
L 17.731764 48.018475 
L 17.744509 48.662312 
L 17.757253 49.30615 
L 17.769998 49.949988 
L 17.782742 50.593825 
" clip-path="url(#p19cbad304f)" style="fill: none; stroke: #008000; stroke-width: 0.4; stroke-linecap: square"/>
   </g>
   <g id="line2d_55">
    <path d="M 29.184442 42.543741 
L 29.607535 42.042045 
L 30.030628 41.540348 
L 30.217639 41.319143 
L 30.498974 40.985586 
L 30.744733 40.694306 
L 30.990493 40.403026 
L 31.236252 40.111747 
L 31.482011 39.820467 
L 31.72777 39.529188 
L 31.973529 39.237908 
L 32.219289 38.946629 
L 32.465048 38.655349 
L 32.8129 38.294967 
L 33.160752 37.934586 
L 33.622283 37.459228 
L 34.083814 36.983869 
L 34.545346 36.508511 
L 35.006877 36.033153 
L 35.299798 35.693181 
L 35.592719 35.353209 
L 35.88564 35.013238 
L 36.17856 34.673266 
L 36.211819 34.142606 
L 36.245078 33.611947 
L 36.012949 33.321736 
L 35.78082 33.031526 
L 35.548692 32.741316 
L 35.316563 32.451105 
L 34.738354 32.073423 
L 34.160146 31.695742 
L 33.581937 31.31806 
L 33.003728 30.940378 
" clip-path="url(#p19cbad304f)" style="fill: none; stroke: #008000; stroke-width: 0.4; stroke-linecap: square"/>
   </g>
   <g id="line2d_56">
    <path d="M 30.217639 41.319143 
L 30.23754 40.887618 
L 30.257441 40.456092 
L 30.277341 40.024567 
L 30.297242 39.593042 
L 30.181246 39.145286 
L 30.06525 38.69753 
L 29.949253 38.249774 
L 29.833257 37.802018 
L 29.230786 37.393041 
L 28.628315 36.984064 
L 28.240321 36.884687 
L 27.852326 36.78531 
L 27.464332 36.685932 
L 27.076338 36.586555 
L 26.688344 36.487178 
L 26.30035 36.387801 
L 25.912355 36.288424 
L 25.524361 36.189047 
" clip-path="url(#p19cbad304f)" style="fill: none; stroke: #008000; stroke-width: 0.4; stroke-linecap: square"/>
   </g>
   <g id="line2d_57">
    <path d="M 30.498974 40.985586 
L 30.528689 40.612569 
L 30.558404 40.239552 
L 30.588118 39.866536 
L 30.617833 39.493519 
L 30.572239 39.060973 
L 30.526644 38.628428 
L 30.48105 38.195882 
L 30.435456 37.763336 
L 30.389862 37.33079 
L 30.344267 36.898245 
L 30.298673 36.465699 
L 30.253079 36.033153 
L 29.915858 35.5853 
L 29.578638 35.137447 
L 28.948633 35.154164 
L 28.318628 35.17088 
L 27.682898 35.40025 
L 27.047169 35.629619 
L 26.411439 35.858988 
L 25.775709 36.088357 
L 25.524361 36.189047 
L 25.092886 36.361657 
L 24.66141 36.534267 
L 24.229934 36.706877 
L 23.798458 36.879487 
L 23.366983 37.052097 
L 22.935507 37.224707 
L 22.504031 37.397317 
L 22.072556 37.569927 
L 21.67761 37.778012 
L 21.282664 37.986096 
L 20.887718 38.194181 
L 20.492772 38.402266 
L 20.097827 38.61035 
L 19.702881 38.818435 
L 19.307935 39.026519 
L 18.912989 39.234604 
" clip-path="url(#p19cbad304f)" style="fill: none; stroke: #008000; stroke-width: 0.4; stroke-linecap: square"/>
   </g>
   <g id="line2d_58">
    <path d="M 35.178077 20.776598 
L 35.458321 20.478418 
L 35.722209 20.19851 
L 36.102638 20.093059 
L 36.483067 19.987607 
L 36.863497 19.882155 
L 37.243926 19.776704 
L 37.774428 19.549667 
L 38.210606 19.363062 
L 38.646784 19.176456 
L 39.219813 18.931148 
L 39.816832 18.675731 
L 40.199306 18.463759 
L 40.58178 18.251787 
L 40.964254 18.039815 
L 41.346728 17.827843 
L 41.529377 17.726376 
L 41.839609 17.491953 
L 42.275651 17.161894 
L 42.711693 16.831836 
L 43.147735 16.501777 
L 43.583777 16.171719 
L 43.954528 15.891422 
L 44.101739 15.779459 
L 44.679675 15.648835 
L 45.257611 15.518211 
L 45.747766 15.530262 
L 46.237922 15.542314 
L 46.728077 15.554366 
L 47.218232 15.566417 
L 47.60166 15.487304 
L 47.985088 15.408191 
L 48.368516 15.329078 
L 48.751944 15.249965 
L 49.284899 14.912909 
L 49.817855 14.575853 
L 50.046576 14.243851 
L 50.275297 13.911848 
L 50.504018 13.579846 
L 50.732739 13.247844 
L 50.913344 12.838575 
L 51.093949 12.429307 
L 51.274554 12.020038 
L 51.455159 11.610769 
L 51.489508 11.234059 
L 51.523857 10.85735 
L 51.558206 10.48064 
L 51.592555 10.10393 
" clip-path="url(#p19cbad304f)" style="fill: none; stroke: #008000; stroke-width: 0.4; stroke-linecap: square"/>
   </g>
   <g id="line2d_59">
    <path d="M 35.458321 20.478418 
L 34.972528 20.223391 
L 34.329165 20.354792 
" clip-path="url(#p19cbad304f)" style="fill: none; stroke: #008000; stroke-width: 0.4; stroke-linecap: square"/>
   </g>
   <g id="line2d_60">
    <path d="M 13.465123 27.231594 
L 13.330453 27.746703 
L 13.195783 28.261812 
L 12.872466 28.779836 
L 12.549148 29.297861 
L 12.156861 29.387665 
L 11.764573 29.477469 
L 11.174642 29.708004 
L 10.584711 29.93854 
L 10.219411 30.279872 
L 9.854112 30.621205 
L 9.62948 30.99704 
L 9.404848 31.372875 
L 9.180217 31.74871 
L 8.955585 32.124546 
L 8.748128 32.492119 
L 8.54067 32.859693 
L 8.333213 33.227267 
L 8.125756 33.594841 
L 7.918298 33.962415 
L 7.710841 34.329989 
L 7.503384 34.697563 
L 7.295927 35.065137 
L 7.165618 35.469255 
L 7.03531 35.873372 
L 6.905002 36.27749 
L 6.774693 36.681607 
L 6.541406 37.072604 
L 6.308119 37.463601 
L 6.074832 37.854598 
L 5.841545 38.245595 
L 5.608257 38.636592 
L 5.37497 39.027588 
L 5.141683 39.418585 
L 4.908396 39.809582 
" clip-path="url(#p19cbad304f)" style="fill: none; stroke: #000000; stroke-width: 0.4; stroke-linecap: square"/>
   </g>
   <g id="line2d_61">
    <path d="M 18.464816 19.995577 
L 18.310518 19.296583 
L 18.15622 18.59759 
L 17.933769 18.28211 
L 17.711318 17.966631 
L 17.488867 17.651151 
L 17.266416 17.335671 
L 16.935193 16.981703 
L 16.603971 16.627736 
L 16.272748 16.273769 
L 15.941525 15.919801 
L 15.424108 15.425102 
L 14.906692 14.930403 
L 14.389275 15.129838 
L 14.214532 15.542897 
L 14.039788 15.955956 
L 13.865044 16.369015 
L 13.6903 16.782074 
L 13.218137 17.272303 
L 12.745974 17.762531 
L 12.278445 18.193667 
L 11.810917 18.624804 
L 11.400228 18.867682 
L 10.989539 19.110561 
L 10.578849 19.35344 
L 10.16816 19.596319 
L 9.76415 19.868646 
L 9.36014 20.140973 
L 8.95613 20.413301 
L 8.55212 20.685628 
L 8.248158 21.121235 
L 7.944196 21.556843 
L 7.558451 22.081087 
L 7.172706 22.605332 
L 6.786961 23.129577 
L 6.401216 23.653822 
L 5.961221 24.180983 
L 5.521226 24.708143 
L 5.218355 25.136364 
L 4.915484 25.564585 
L 4.748645 25.949264 
L 4.581807 26.333943 
L 4.414969 26.718623 
L 4.248131 27.103302 
L 4.058393 27.577397 
L 3.868656 28.051492 
L 3.696911 28.634245 
L 3.525165 29.216999 
L 3.448016 29.707032 
L 3.370867 30.197066 
L 3.321797 30.579413 
L 3.272727 30.96176 
L 3.404126 31.12504 
" clip-path="url(#p19cbad304f)" style="fill: none; stroke: #008000; stroke-width: 0.4; stroke-linecap: square"/>
   </g>
  </g>
 </g>
 <defs>
  <clipPath id="p19cbad304f">
   <rect x="0" y="0" width="72" height="58.116379"/>
  </clipPath>
 </defs>
</svg>
