<?xml version="1.0" encoding="utf-8" standalone="no"?>
<!DOCTYPE svg PUBLIC "-//W3C//DTD SVG 1.1//EN"
  "http://www.w3.org/Graphics/SVG/1.1/DTD/svg11.dtd">
<svg height="72pt" version="1.1" viewBox="0 0 88.202678 72" width="88.202678pt" xmlns="http://www.w3.org/2000/svg" xmlns:xlink="http://www.w3.org/1999/xlink">
 <metadata>
  <rdf:RDF xmlns:cc="http://creativecommons.org/ns#" xmlns:dc="http://purl.org/dc/elements/1.1/" xmlns:rdf="http://www.w3.org/1999/02/22-rdf-syntax-ns#">
   <cc:Work>
    <dc:type rdf:resource="http://purl.org/dc/dcmitype/StillImage"/>
    <dc:date>2022-04-21T17:37:00.413221</dc:date>
    <dc:format>image/svg+xml</dc:format>
    <dc:creator>
     <cc:Agent>
      <dc:title>Matplotlib v3.4.3, https://matplotlib.org/</dc:title>
     </cc:Agent>
    </dc:creator>
   </cc:Work>
  </rdf:RDF>
 </metadata>
 <defs>
  <style type="text/css">*{stroke-linecap:butt;stroke-linejoin:round;}</style>
 </defs>
 <g id="figure_1">
  <g id="patch_1">
   <path d="M 0 72 
L 88.202678 72 
L 88.202678 0 
L 0 0 
z
" style="fill:#ffffff;"/>
  </g>
  <g id="axes_1">
   <g id="line2d_1">
    <path clip-path="url(#p6d7c8df3bf)" d="M 56.11885 61.418983 
L 54.064447 60.253556 
L 52.298029 59.251408 
L 50.53161 58.24926 
L 49.438425 57.629044 
L 48.34524 57.008827 
L 47.252055 56.388611 
L 46.158869 55.768395 
L 45.064218 55.147366 
L 43.969566 54.526338 
L 42.874915 53.905309 
L 41.780263 53.28428 
L 39.868973 52.199816 
L 37.957683 51.115351 
L 36.107978 50.065952 
L 34.258273 49.016554 
L 32.408568 47.967155 
L 30.558863 46.917756 
L 29.425403 46.274659 
L 28.291943 45.631562 
L 27.158483 44.988465 
L 26.025023 44.345368 
L 24.776897 43.637284 
L 23.528772 42.929201 
L 22.280646 42.221117 
L 21.03252 41.513033 
L 19.890849 40.865198 
L 18.749178 40.217362 
L 17.607506 39.569527 
L 16.465835 38.921691 
L 15.323968 38.273856 
L 14.182101 37.62602 
L 13.040235 36.978184 
L 11.898368 36.330349 
L 9.806819 35.143801 
" style="fill:none;stroke:#808080;stroke-linecap:square;stroke-width:0.408346;"/>
   </g>
   <g id="line2d_2">
    <path clip-path="url(#p6d7c8df3bf)" d="M 58.273352 52.489819 
L 58.728105 51.342263 
L 59.365462 49.734385 
L 59.907802 48.365875 
L 60.450143 46.997364 
L 60.907437 45.843445 
L 61.364731 44.689526 
L 61.822025 43.535607 
L 62.279319 42.381688 
L 62.795657 41.078977 
L 63.311995 39.776265 
L 63.850229 38.418045 
L 64.388464 37.059824 
L 65.215269 34.973482 
L 66.042074 32.88714 
L 66.718729 31.179616 
L 67.395383 29.472092 
L 67.509951 29.182901 
L 68.130495 27.617265 
L 68.751039 26.051628 
L 69.437664 24.318651 
L 70.12429 22.585674 
L 70.89342 20.64501 
L 71.66255 18.704347 
L 72.380066 16.893927 
L 73.097581 15.083508 
L 73.811383 13.282024 
L 74.525184 11.48054 
L 75.229992 9.701802 
L 75.934799 7.923063 
L 76.465996 6.582714 
L 76.997192 5.242364 
" style="fill:none;stroke:#808080;stroke-linecap:square;stroke-width:0.408346;"/>
   </g>
   <g id="line2d_3">
    <path clip-path="url(#p6d7c8df3bf)" d="M 56.656889 68.727273 
L 55.391803 68.45988 
L 54.126717 68.192487 
L 52.861631 67.925094 
L 51.596545 67.657701 
L 50.331459 67.390308 
L 49.066373 67.122915 
L 47.801287 66.855522 
L 46.536201 66.588129 
" style="fill:none;stroke:#808080;stroke-linecap:square;stroke-width:0.408346;"/>
   </g>
   <g id="line2d_4">
    <path clip-path="url(#p6d7c8df3bf)" d="M 40.926674 57.553903 
L 41.367741 57.386021 
L 41.808807 57.218138 
L 42.489959 57.218138 
L 43.17111 57.218138 
L 43.847569 57.477137 
L 44.524028 57.736136 
L 45.200487 57.995135 
L 45.876946 58.254134 
L 46.382091 58.502843 
L 46.887236 58.751552 
L 47.392381 59.000262 
L 47.897526 59.248971 
L 48.402671 59.49768 
L 48.907815 59.74639 
L 49.41296 59.995099 
L 49.918105 60.243808 
L 50.571396 60.539091 
L 51.224688 60.834374 
L 51.877979 61.129657 
L 52.53127 61.42494 
L 52.897067 61.862246 
L 53.262863 62.299552 
L 53.628659 62.736858 
L 53.994455 63.174164 
L 54.293388 63.412178 
L 54.59232 63.650191 
L 54.891252 63.888205 
L 55.190185 64.126218 
" style="fill:none;stroke:#4169e1;stroke-linecap:square;stroke-width:0.408346;"/>
   </g>
   <g id="line2d_5">
    <path clip-path="url(#p6d7c8df3bf)" d="M 9.798607 33.925301 
L 10.364898 33.925301 
L 10.931188 33.925301 
L 11.497478 33.925301 
L 12.063768 33.925301 
L 12.708848 34.190664 
L 13.353928 34.456026 
L 13.999008 34.721388 
L 14.644088 34.98675 
L 15.06883 35.203778 
L 15.493572 35.420807 
L 15.918314 35.637835 
L 16.343056 35.854863 
L 16.762519 36.211342 
L 17.181982 36.567821 
L 17.601446 36.9243 
L 18.020909 37.280778 
L 18.393255 37.315438 
L 18.7656 37.350097 
L 19.137946 37.384757 
L 19.510292 37.419417 
L 19.956051 37.636445 
L 20.40181 37.853473 
L 20.847569 38.070501 
L 21.293329 38.28753 
L 21.576425 38.818254 
L 21.859521 39.348978 
L 22.49942 39.32163 
L 23.139319 39.294281 
L 23.768465 39.294281 
L 24.397611 39.294281 
L 24.895766 39.601614 
L 25.393922 39.908946 
L 25.892077 40.216279 
L 26.390233 40.523612 
L 26.835992 40.908387 
L 27.281751 41.293162 
L 27.72751 41.677937 
L 28.173269 42.062712 
L 28.571813 42.461297 
L 28.970357 42.859882 
L 29.368901 43.258466 
L 29.767445 43.657051 
L 30.029671 43.940149 
L 30.291896 44.223247 
L 30.554122 44.506345 
L 30.816347 44.789443 
L 31.078573 45.072541 
L 31.340799 45.355639 
L 31.603024 45.638737 
L 31.86525 45.921836 
L 32.22176 46.383241 
L 32.578269 46.844646 
L 32.934779 47.306051 
L 33.291288 47.767456 
L 33.578001 48.378601 
L 33.864714 48.989747 
L 34.151428 49.600892 
L 34.438141 50.212037 
" style="fill:none;stroke:#4169e1;stroke-linecap:square;stroke-width:0.408346;"/>
   </g>
   <g id="line2d_6">
    <path clip-path="url(#p6d7c8df3bf)" d="M 46.843931 66.164091 
L 47.345214 66.255614 
L 47.846498 66.347137 
L 48.345533 66.38464 
L 48.844568 66.422142 
L 49.343604 66.459645 
L 49.842639 66.497148 
L 50.340892 66.54318 
L 50.839145 66.589212 
L 51.337398 66.635244 
L 51.835651 66.681277 
L 52.399009 66.717561 
L 52.962366 66.753845 
L 53.525724 66.790129 
L 54.089081 66.826413 
L 54.493686 66.897763 
L 54.898291 66.969113 
L 55.302895 67.040463 
L 55.7075 67.111813 
L 56.282099 67.475468 
L 56.856698 67.839122 
" style="fill:none;stroke:#4169e1;stroke-linecap:square;stroke-width:0.408346;"/>
   </g>
   <g id="line2d_7">
    <path clip-path="url(#p6d7c8df3bf)" d="M 8.707671 34.932053 
L 8.476971 35.288532 
L 8.246271 35.64501 
L 8.015571 36.001489 
L 7.784871 36.357968 
L 7.617027 36.840359 
L 7.449183 37.322749 
L 7.281339 37.805139 
L 7.113495 38.28753 
L 7.108314 38.80458 
L 7.103133 39.32163 
L 7.097952 39.83868 
L 7.092771 40.35573 
L 7.176644 40.79615 
L 7.260517 41.236569 
L 7.344391 41.676989 
L 7.428264 42.117409 
L 7.412525 42.628096 
L 7.396787 43.138783 
L 7.381048 43.649469 
L 7.36531 44.160156 
L 7.024441 44.593265 
L 6.683572 45.026374 
L 6.342703 45.459483 
L 6.001834 45.892592 
L 5.708181 46.333011 
L 5.414527 46.773431 
L 5.120873 47.213851 
L 4.82722 47.654271 
L 4.622718 48.102002 
L 4.418216 48.549733 
L 4.213714 48.997464 
L 4.009213 49.445195 
L 4.281947 49.717868 
L 4.554681 49.990541 
L 4.827415 50.263214 
L 5.10015 50.535887 
L 5.477676 50.640813 
L 5.855203 50.74574 
L 6.23273 50.850666 
L 6.610256 50.955592 
L 6.974684 51.161654 
L 7.339112 51.367716 
L 7.703539 51.573778 
L 8.067967 51.77984 
L 8.432395 51.985902 
L 8.796822 52.191963 
L 9.16125 52.398025 
L 9.525678 52.604087 
L 10.076327 52.967877 
L 10.626977 53.331667 
L 11.177626 53.695456 
L 11.728275 54.059246 
L 12.063914 54.300441 
L 12.399554 54.541637 
L 12.735193 54.782832 
L 13.070832 55.024027 
L 13.406471 55.265222 
L 13.74211 55.506417 
L 14.077749 55.747613 
L 14.413388 55.988808 
L 15.037353 56.296141 
L 15.661318 56.603473 
L 16.285283 56.910806 
L 16.909248 57.218138 
L 17.433699 57.532647 
L 17.958151 57.847155 
L 18.482602 58.161663 
L 19.007053 58.476172 
L 19.345283 58.762993 
L 19.683512 59.049814 
L 20.021742 59.336635 
L 20.359971 59.623457 
L 20.698201 59.910278 
L 21.036431 60.197099 
L 21.37466 60.48392 
L 21.71289 60.770742 
L 22.315935 60.889207 
L 22.918981 61.007672 
L 23.522027 61.126137 
L 24.125072 61.244602 
L 24.598545 61.388182 
L 25.072017 61.531762 
L 25.54549 61.675342 
L 26.018962 61.818922 
L 26.492435 61.962502 
L 26.965907 62.106082 
L 27.43938 62.249662 
L 27.912852 62.393241 
L 28.596447 62.618258 
L 29.280042 62.843274 
L 29.963638 63.06829 
L 30.647233 63.293306 
L 31.035855 63.369124 
L 31.424476 63.444942 
L 31.813098 63.52076 
L 32.20172 63.596577 
L 32.590342 63.672395 
L 32.978964 63.748213 
L 33.367585 63.824031 
L 33.756207 63.899848 
L 34.146442 64.026098 
L 34.536677 64.152349 
L 34.926912 64.278599 
L 35.317146 64.404849 
L 35.707381 64.531099 
L 36.097616 64.657349 
L 36.487851 64.783599 
L 36.878086 64.909849 
L 37.444473 65.188885 
L 38.010861 65.467922 
L 38.577249 65.746958 
L 39.143637 66.025995 
L 39.814817 66.134577 
L 40.485998 66.243158 
L 41.157178 66.35174 
L 41.828358 66.460322 
L 42.496606 66.460322 
L 43.164854 66.460322 
L 43.668483 66.460322 
L 44.0595 66.43162 
L 44.450517 66.402917 
L 44.860107 66.190898 
L 45.269697 65.978879 
L 45.864629 65.730576 
L 46.459561 65.482273 
" style="fill:none;stroke:#4169e1;stroke-linecap:square;stroke-width:0.408346;"/>
   </g>
   <g id="line2d_8">
    <path clip-path="url(#p6d7c8df3bf)" d="M 9.043554 36.861615 
L 9.227039 37.441485 
L 9.410523 38.021355 
L 9.594008 38.601226 
L 9.777493 39.181096 
L 10.092163 39.453769 
L 10.406834 39.726442 
L 10.721505 39.999115 
L 11.036176 40.271789 
L 11.384914 40.411781 
L 11.733652 40.551773 
L 12.08239 40.691765 
L 12.431128 40.831757 
L 12.779866 40.971749 
L 13.128604 41.111741 
L 13.477343 41.251733 
L 13.826081 41.391725 
L 14.324236 41.552161 
L 14.822391 41.712597 
L 15.320547 41.873032 
L 15.818702 42.033468 
L 16.159571 42.502184 
L 16.50044 42.9709 
L 16.841309 43.439617 
L 17.182178 43.908333 
L 17.664595 44.034244 
L 18.147012 44.160156 
L 18.629429 44.286068 
L 19.111846 44.411979 
L 19.610001 44.635371 
L 20.108157 44.858762 
L 20.606312 45.082154 
L 21.104467 45.305546 
L 21.529209 45.711306 
L 21.953951 46.117066 
L 22.378694 46.522827 
L 22.803436 46.928587 
L 23.139026 47.494918 
L 23.474616 48.06125 
L 23.810206 48.627581 
L 24.145796 49.193913 
L 24.832813 49.354349 
L 25.519829 49.514784 
L 26.206846 49.67522 
L 26.893862 49.835656 
L 27.360541 49.905923 
L 27.827219 49.97619 
L 28.293898 50.046456 
L 28.760577 50.116723 
L 29.342703 50.528847 
L 29.924829 50.94097 
L 30.506955 51.353094 
L 31.089082 51.765218 
L 31.466608 52.331414 
L 31.844135 52.89761 
L 32.221662 53.463806 
L 32.599189 54.030002 
L 32.959364 54.378222 
L 33.319539 54.726442 
L 33.679715 55.074662 
L 34.03989 55.422883 
L 34.400065 55.771103 
L 34.760241 56.119323 
L 35.120416 56.467543 
L 35.480591 56.815763 
L 35.884414 57.406735 
L 36.288237 57.997707 
L 36.692059 58.58868 
L 37.095882 59.179652 
L 37.39804 59.69589 
L 37.700198 60.212127 
L 38.002357 60.728365 
L 38.304515 61.244602 
L 38.701006 61.67893 
L 39.097497 62.113257 
L 39.459187 62.228879 
L 39.820878 62.344501 
L 40.182569 62.460123 
L 40.544259 62.575746 
L 40.998621 62.620965 
L 41.452982 62.666185 
L 41.826208 62.913947 
L 42.199433 63.161708 
L 42.552424 63.500451 
L 42.905414 63.839194 
L 43.258405 64.177937 
L 43.611395 64.51668 
L 43.883347 64.761192 
L 44.155299 65.005704 
L 44.427252 65.250217 
L 44.699204 65.494729 
L 44.98445 65.736804 
L 45.269697 65.978879 
" style="fill:none;stroke:#4169e1;stroke-linecap:square;stroke-width:0.408346;"/>
   </g>
   <g id="line2d_9">
    <path clip-path="url(#p6d7c8df3bf)" d="M 76.983897 4.615243 
L 76.981551 3.671312 
L 77.262301 3.404867 
L 77.82302 3.272727 
L 78.494395 3.440609 
L 80.444787 5.651238 
L 82.534625 11.251056 
L 82.941039 13.172901 
L 82.542495 14.838319 
L 81.924786 16.385948 
L 81.582255 17.630443 
L 81.661241 22.153513 
L 82.861711 27.883033 
L 83.472333 31.162151 
L 84.193465 34.035779 
L 83.516371 41.118849 
L 81.936761 45.751923 
L 80.925542 48.229132 
L 80.106118 49.943696 
L 75.316993 57.612255 
L 74.745277 58.545965 
L 73.087024 62.019704 
L 72.321511 64.616597 
L 71.93939 66.591378 
L 71.248463 67.326269 
L 69.936211 67.284569 
L 67.85952 66.13918 
L 66.936721 64.797206 
L 62.72024 61.11666 
L 60.811442 58.84118 
L 59.988352 57.030083 
L 59.028797 55.372518 
L 58.714028 54.143187 
L 58.714028 54.143187 
" style="fill:none;stroke:#4169e1;stroke-linecap:square;stroke-width:0.408346;"/>
   </g>
   <g id="line2d_10">
    <path clip-path="url(#p6d7c8df3bf)" d="M 34.438141 50.212037 
L 34.693279 50.778775 
L 34.948418 51.345512 
L 35.14246 51.709438 
L 35.336502 52.073363 
L 35.530544 52.437288 
L 35.724586 52.801213 
L 36.269957 53.262618 
L 36.815327 53.724023 
L 37.360698 54.185429 
L 37.906069 54.646834 
L 38.308816 55.060311 
L 38.711563 55.473789 
L 39.114311 55.887266 
L 39.517058 56.300744 
L 39.869462 56.614034 
L 40.221866 56.927323 
L 40.57427 57.240613 
L 40.926674 57.553903 
L 41.241247 57.875722 
L 41.55582 58.197541 
L 41.870393 58.519361 
L 42.184966 58.84118 
L 42.497388 59.061051 
L 42.80981 59.280923 
L 43.122233 59.500794 
L 43.434655 59.720666 
L 43.655384 60.059815 
L 43.876113 60.398964 
L 44.096842 60.738113 
L 44.317571 61.077262 
L 44.576327 61.559517 
L 44.835082 62.041772 
L 45.093837 62.524027 
L 45.352593 63.006282 
L 45.561103 63.414344 
L 45.769612 63.822406 
L 45.978122 64.230468 
L 46.186632 64.63853 
L 46.323097 65.060401 
L 46.459561 65.482273 
L 46.891537 65.463589 
L 47.323513 65.444906 
L 47.755489 65.426222 
L 48.187465 65.407538 
L 48.904198 65.447614 
L 49.620932 65.487689 
L 50.332583 65.401581 
L 51.044233 65.315474 
L 51.430558 65.237355 
L 51.816883 65.159235 
L 52.203207 65.081116 
L 52.589532 65.002997 
L 52.976639 64.946539 
L 53.363745 64.890082 
L 53.750852 64.833625 
L 54.137958 64.777168 
L 54.626534 64.66994 
L 55.115109 64.562712 
L 55.603685 64.455484 
L 56.09226 64.348256 
" style="fill:none;stroke:#4169e1;stroke-linecap:square;stroke-width:0.408346;"/>
   </g>
   <g id="line2d_11">
    <path clip-path="url(#p6d7c8df3bf)" d="M 9.442 35.489855 
L 10.029307 35.909289 
L 10.616615 36.328724 
L 11.101671 36.636531 
L 11.586727 36.944337 
L 12.071784 37.252144 
L 12.55684 37.55995 
L 13.041896 37.867757 
L 13.526953 38.175563 
L 14.012009 38.48337 
L 14.497065 38.791176 
L 15.016238 39.098374 
L 15.535411 39.405571 
L 16.054583 39.712768 
L 16.573756 40.019965 
L 17.140046 40.292638 
L 17.706336 40.565312 
L 18.272626 40.837985 
L 18.838916 41.110658 
L 19.470848 41.43945 
L 20.10278 41.768241 
L 20.734712 42.097033 
L 21.366644 42.425825 
L 21.998576 42.754617 
L 22.630508 43.083409 
L 23.26244 43.4122 
L 23.894372 43.740992 
L 24.279426 43.977652 
L 24.66448 44.214312 
L 25.049534 44.450971 
L 25.434588 44.687631 
L 26.011044 45.042147 
L 26.587501 45.396662 
L 27.163957 45.751178 
L 27.740414 46.105694 
L 28.31687 46.460209 
L 28.893327 46.814725 
L 29.469783 47.169241 
L 30.04624 47.523756 
L 30.396835 47.739295 
L 30.747431 47.954834 
L 31.098026 48.170373 
L 31.448622 48.385912 
L 31.799217 48.601451 
L 32.149813 48.81699 
L 32.500408 49.032529 
L 32.851003 49.248068 
L 33.247788 49.489061 
L 33.644572 49.730053 
L 34.041356 49.971045 
L 34.438141 50.212037 
L 34.827056 50.448087 
L 35.215971 50.684138 
L 35.604886 50.920188 
L 35.993801 51.156239 
L 36.382716 51.392289 
L 36.771631 51.62834 
L 37.160546 51.86439 
L 37.549461 52.10044 
L 38.024058 52.334799 
L 38.498655 52.569157 
L 38.973251 52.803515 
L 39.447848 53.037873 
L 39.922445 53.272231 
L 40.397041 53.506589 
L 40.871638 53.740947 
L 41.346235 53.975305 
L 41.83916 54.289949 
L 42.332086 54.604592 
L 42.825011 54.919236 
L 43.317937 55.23388 
L 43.810862 55.548523 
L 44.303788 55.863167 
L 44.796714 56.177811 
L 45.289639 56.492454 
L 45.884816 56.8138 
L 46.479992 57.135145 
L 47.075168 57.456491 
L 47.670345 57.777836 
L 48.265521 58.099181 
L 48.860698 58.420527 
L 49.455874 58.741872 
L 50.051051 59.063218 
L 50.515139 59.329054 
L 50.979227 59.59489 
L 51.443315 59.860726 
L 51.907403 60.126561 
L 52.371491 60.392397 
L 52.835579 60.658233 
L 53.299667 60.924069 
L 53.763755 61.189905 
L 54.309126 61.54652 
L 54.854497 61.903134 
L 55.399867 62.259748 
L 55.945238 62.616362 
" style="fill:none;stroke:#4169e1;stroke-linecap:square;stroke-width:0.408346;"/>
   </g>
   <g id="line2d_12">
    <path clip-path="url(#p6d7c8df3bf)" d="M 30.04624 47.523756 
L 30.139106 47.892014 
L 30.231973 48.260271 
L 30.324839 48.628529 
L 30.417706 48.996787 
L 30.648406 49.353266 
L 30.879106 49.709744 
L 31.109806 50.066223 
L 31.340505 50.422702 
L 31.655176 50.611434 
L 31.969847 50.800166 
L 32.284518 50.988898 
L 32.599189 51.17763 
L 32.91904 51.373809 
L 33.238892 51.569987 
L 33.558744 51.766165 
L 33.878596 51.962344 
L 34.424064 52.213896 
L 34.969532 52.465449 
L 35.347059 52.633331 
L 35.724586 52.801213 
" style="fill:none;stroke:#008000;stroke-linecap:square;stroke-width:0.408346;"/>
   </g>
   <g id="line2d_13">
    <path clip-path="url(#p6d7c8df3bf)" d="M 68.761596 30.372157 
L 68.866389 31.072929 
L 68.824452 31.471379 
L 68.782515 31.869828 
L 68.740579 32.268277 
L 68.698642 32.666727 
L 68.572735 33.337985 
L 68.446828 34.009243 
L 68.300001 34.638394 
L 68.153174 35.267546 
L 68.006347 35.896698 
L 67.85952 36.52585 
L 67.724424 36.874883 
L 67.589328 37.223915 
L 67.454231 37.572948 
L 67.319135 37.92198 
L 67.287365 38.421836 
L 67.255595 38.921691 
L 67.223825 39.421547 
L 67.192055 39.921402 
L 67.086187 40.45673 
L 66.980319 40.992057 
L 66.874451 41.527385 
L 66.768583 42.062712 
L 66.687643 42.600747 
L 66.606702 43.138783 
L 66.525762 43.676818 
L 66.444821 44.214853 
L 66.358016 44.683569 
L 66.27121 45.152285 
L 66.184404 45.621002 
L 66.097599 46.089718 
L 66.080589 46.520796 
L 66.06358 46.951874 
L 66.046571 47.382952 
L 66.029562 47.81403 
L 65.954291 48.245243 
L 65.87902 48.676457 
L 65.803749 49.10767 
L 65.728479 49.538884 
L 65.651448 50.08423 
L 65.574418 50.629576 
L 65.497388 51.174922 
L 65.420357 51.720269 
L 65.293472 52.361741 
L 65.166588 53.003213 
L 65.021716 53.620045 
L 64.876844 54.236876 
" style="fill:none;stroke:#4169e1;stroke-linecap:square;stroke-width:0.408346;"/>
   </g>
   <g id="line2d_14">
    <path clip-path="url(#p6d7c8df3bf)" d="M 77.906697 4.447361 
L 77.822824 5.139604 
L 77.738951 5.831847 
L 77.655078 6.52409 
L 77.571205 7.216333 
L 77.655078 7.80365 
L 77.738951 8.390967 
L 77.822824 8.978284 
L 77.906697 9.5656 
L 78.014227 9.967773 
L 78.121756 10.369945 
L 78.229286 10.772118 
L 78.336816 11.174291 
L 78.444345 11.576463 
L 78.551875 11.978636 
L 78.659405 12.380808 
L 78.766934 12.782981 
L 78.745917 13.202415 
L 78.7249 13.62185 
L 78.703883 14.041285 
L 78.682866 14.460719 
L 78.661653 14.914949 
L 78.64044 15.369178 
L 78.619228 15.823408 
L 78.598015 16.277637 
L 78.870358 16.73119 
L 79.142701 17.184743 
L 79.574775 17.562207 
L 80.006848 17.939671 
L 79.586114 18.408928 
L 79.16538 18.878186 
L 78.913663 19.171845 
L 78.661946 19.465503 
L 78.410229 19.759161 
L 78.158512 20.05282 
L 77.952251 20.658008 
L 77.745989 21.263196 
L 77.333467 21.595711 
L 76.920944 21.928226 
L 76.407148 22.416709 
L 75.893352 22.905192 
L 75.473791 23.492779 
" style="fill:none;stroke:#4169e1;stroke-linecap:square;stroke-width:0.408346;"/>
   </g>
   <g id="line2d_15">
    <path clip-path="url(#p6d7c8df3bf)" d="M 59.7338 29.539786 
L 59.559602 30.012564 
L 59.385404 30.485342 
L 59.280514 30.883927 
L 59.175623 31.282511 
L 59.070733 31.681096 
L 58.965843 32.079681 
L 58.844432 32.431963 
L 58.723022 32.784244 
L 58.601611 33.136526 
L 58.4802 33.488808 
L 58.39183 33.95441 
L 58.30346 34.420012 
L 58.215091 34.885614 
L 58.126721 35.351217 
L 58.121442 35.721505 
L 58.116163 36.091794 
L 58.110885 36.462082 
L 58.105606 36.832371 
L 58.021733 37.188849 
L 57.93786 37.545328 
L 57.853987 37.901807 
L 57.770114 38.258286 
L 57.728079 38.971514 
L 57.686045 39.684743 
L 57.497282 40.271924 
L 57.308518 40.859105 
L 57.119755 41.446287 
L 56.930991 42.033468 
L 56.910072 42.411068 
L 56.889153 42.788667 
L 56.868233 43.166267 
L 56.847314 43.543866 
L 56.726685 43.949626 
L 56.606057 44.355387 
L 56.485428 44.761147 
L 56.364799 45.166907 
L 56.115819 45.818534 
L 55.866839 46.47016 
L 55.617859 47.121787 
L 55.368879 47.773413 
" style="fill:none;stroke:#4169e1;stroke-linecap:square;stroke-width:0.408346;"/>
   </g>
   <g id="line2d_16">
    <path clip-path="url(#p6d7c8df3bf)" d="M 37.488072 48.709221 
L 38.074597 49.035508 
L 38.661122 49.361795 
L 38.89192 49.676303 
L 39.122718 49.990812 
L 39.353515 50.30532 
L 39.584313 50.619828 
L 40.108666 50.997428 
L 40.63302 51.375027 
L 41.157373 51.752627 
L 41.681727 52.130226 
L 42.206081 52.318958 
L 42.730434 52.50769 
L 43.254788 52.696422 
L 43.779141 52.885154 
L 44.261656 53.01093 
L 44.744171 53.136707 
L 45.226685 53.262483 
L 45.7092 53.388259 
L 46.212537 53.805392 
L 46.715873 54.222525 
L 47.219209 54.639658 
L 47.722546 55.056791 
L 48.22598 55.310781 
L 48.729414 55.56477 
L 49.232848 55.818759 
L 49.736282 56.072749 
L 50.397101 56.35165 
L 51.057919 56.630551 
L 51.603192 56.966044 
L 52.148465 57.301538 
L 52.532492 57.461161 
L 52.91652 57.620785 
L 53.300547 57.780408 
L 53.684574 57.940032 
L 54.068602 58.099655 
L 54.452629 58.259279 
L 54.836657 58.418902 
L 55.220684 58.578526 
" style="fill:none;stroke:#000000;stroke-linecap:square;stroke-width:0.408346;"/>
   </g>
   <g id="line2d_17">
    <path clip-path="url(#p6d7c8df3bf)" d="M 61.231003 30.485342 
L 61.059054 30.991425 
L 60.887104 31.497509 
L 60.715154 32.003592 
L 60.543205 32.509676 
L 60.479762 32.955579 
L 60.41632 33.401482 
L 60.352877 33.847385 
L 60.289435 34.293288 
L 60.225992 34.739191 
L 60.16255 35.185095 
L 60.099107 35.630998 
L 60.035665 36.076901 
L 59.929846 36.509942 
L 59.824027 36.942983 
L 59.718208 37.376024 
L 59.612389 37.809066 
L 59.50657 38.242107 
L 59.400751 38.675148 
L 59.294932 39.108189 
L 59.189114 39.54123 
L 59.049325 40.150751 
L 58.909537 40.760271 
L 58.769748 41.369792 
L 58.62996 41.979313 
L 58.611924 42.361989 
L 58.593888 42.744666 
L 58.575853 43.127342 
L 58.557817 43.510019 
L 58.539781 43.892695 
L 58.521746 44.275372 
L 58.50371 44.658048 
L 58.485674 45.040725 
L 58.227701 45.648485 
L 57.969728 46.256246 
L 57.711754 46.864006 
L 57.453781 47.471767 
L 57.305586 48.067342 
L 57.15739 48.662918 
L 57.009195 49.258493 
L 56.860999 49.854069 
L 56.823853 50.248592 
L 56.786706 50.643115 
" style="fill:none;stroke:#4169e1;stroke-linecap:square;stroke-width:0.408346;"/>
   </g>
   <g id="line2d_18">
    <path clip-path="url(#p6d7c8df3bf)" d="M 33.291288 47.767456 
L 33.710849 47.641815 
L 34.13041 47.516174 
L 34.738735 47.788712 
L 35.347059 48.06125 
L 35.955384 48.333788 
L 36.563708 48.606325 
L 37.02589 48.657773 
L 37.488072 48.709221 
L 38.15847 48.783685 
L 38.828868 48.858149 
L 39.348041 48.892808 
L 39.867214 48.927468 
L 40.386386 48.962127 
L 40.905559 48.996787 
L 41.576739 48.996787 
L 42.247919 48.996787 
L 42.615035 49.08066 
L 42.982151 49.164534 
L 43.349267 49.248407 
L 43.716383 49.33228 
L 44.083499 49.416154 
L 44.450615 49.500027 
L 44.817731 49.5839 
L 45.184847 49.667774 
L 45.58339 49.856506 
L 45.981934 50.045238 
L 46.380478 50.23397 
L 46.779022 50.422702 
L 47.282358 50.548614 
L 47.785695 50.674525 
L 48.289031 50.800437 
L 48.792368 50.926348 
L 49.272243 51.081098 
L 49.752118 51.235847 
L 50.231994 51.390597 
L 50.711869 51.545346 
L 51.393411 51.765218 
" style="fill:none;stroke:#000000;stroke-linecap:square;stroke-width:0.408346;"/>
   </g>
   <g id="line2d_19">
    <path clip-path="url(#p6d7c8df3bf)" d="M 61.902379 28.303957 
L 61.545772 28.492824 
L 61.189165 28.681692 
L 60.832557 28.870559 
L 60.47595 29.059427 
L 60.104875 29.299606 
L 59.7338 29.539786 
L 59.39166 29.761012 
L 59.049521 29.982237 
L 58.792623 30.331405 
L 58.535724 30.680573 
L 58.278826 31.02974 
L 58.021928 31.378908 
L 57.814787 31.686715 
L 57.607646 31.994521 
L 57.400505 32.302328 
L 57.193364 32.610134 
L 56.986223 32.917941 
L 56.779081 33.225747 
L 56.57194 33.533554 
L 56.364799 33.84136 
L 56.197004 34.229385 
L 56.029209 34.617409 
L 55.861414 35.005434 
L 55.693619 35.393458 
L 55.525824 35.781482 
L 55.358029 36.169507 
L 55.190234 36.557531 
L 55.022438 36.945556 
L 54.956894 37.413798 
L 54.89135 37.88204 
L 54.825806 38.350283 
L 54.760262 38.818525 
L 54.694717 39.286767 
L 54.629173 39.755009 
L 54.563629 40.223252 
L 54.498085 40.691494 
L 54.487576 41.121421 
L 54.477068 41.551348 
L 54.466559 41.981276 
L 54.456051 42.411203 
L 54.445542 42.84113 
L 54.435033 43.271057 
L 54.424525 43.700985 
L 54.414016 44.130912 
L 54.587041 44.78836 
L 54.760066 45.445808 
L 54.933091 46.103257 
L 55.106116 46.760705 
L 55.237498 47.267059 
L 55.368879 47.773413 
L 55.531151 48.399722 
L 55.693423 49.026031 
L 55.966744 49.430302 
L 56.240065 49.834573 
L 56.513386 50.238844 
L 56.786706 50.643115 
L 56.911343 51.049823 
L 57.03598 51.456531 
L 57.160616 51.863239 
L 57.285253 52.269947 
" style="fill:none;stroke:#4169e1;stroke-linecap:square;stroke-width:0.408346;"/>
   </g>
   <g id="line2d_20">
    <path clip-path="url(#p6d7c8df3bf)" d="M 51.393411 51.765218 
L 51.917765 51.62658 
L 52.326769 51.276464 
L 52.735772 50.926348 
L 53.178599 50.432992 
L 53.621425 49.939635 
L 54.015375 49.52724 
L 54.409324 49.114846 
" style="fill:none;stroke:#008000;stroke-linecap:square;stroke-width:0.408346;"/>
   </g>
   <g id="line2d_21">
    <path clip-path="url(#p6d7c8df3bf)" d="M 75.473791 23.492779 
L 75.358441 23.842895 
L 75.243091 24.19301 
L 74.991374 24.507654 
L 74.739657 24.822298 
L 74.487939 25.136941 
L 74.236222 25.451585 
L 74.04218 25.863709 
L 73.848138 26.275832 
L 73.654096 26.687956 
L 73.460054 27.100079 
L 73.360442 27.48499 
L 73.260831 27.8699 
L 73.161219 28.254811 
L 73.061608 28.639721 
L 72.767954 29.122112 
L 72.474301 29.604502 
L 72.180647 30.086893 
L 71.886993 30.569283 
L 71.755905 31.065348 
L 71.624817 31.561412 
L 71.493728 32.057477 
L 71.36264 32.553542 
L 71.36264 33.098888 
L 71.36264 33.644234 
L 71.36264 34.18958 
L 71.36264 34.734927 
L 71.299686 35.427034 
L 71.236732 36.119142 
L 71.173779 36.81125 
L 71.110825 37.503358 
L 70.801433 37.993059 
L 70.492041 38.48276 
L 70.182649 38.972462 
L 69.873257 39.462163 
L 69.83132 39.965539 
L 69.789384 40.468915 
L 69.747447 40.97229 
L 69.705511 41.475666 
L 69.83132 41.958057 
L 69.95713 42.440447 
L 70.08294 42.922837 
L 70.208749 43.405228 
L 70.229766 43.908604 
L 70.250784 44.411979 
L 70.271801 44.915355 
L 70.292818 45.418731 
L 70.119695 45.91466 
L 69.946572 46.410589 
L 69.77345 46.906519 
L 69.600327 47.402448 
L 69.380087 47.77998 
L 69.159847 48.157511 
L 68.939606 48.535043 
L 68.719366 48.912575 
L 68.499126 49.290107 
L 68.278886 49.667638 
L 68.058646 50.04517 
L 67.838405 50.422702 
L 67.662741 50.761919 
L 67.487077 51.101135 
L 67.311412 51.440352 
L 67.135748 51.779569 
L 66.960084 52.118786 
L 66.78442 52.458002 
L 66.608755 52.797219 
L 66.433091 53.136436 
L 66.044029 53.411546 
L 65.654968 53.686656 
L 65.265906 53.961766 
L 64.876844 54.236876 
L 64.37038 54.375108 
L 63.863915 54.51334 
L 63.35745 54.651572 
L 62.850986 54.789804 
L 62.293885 54.865081 
L 61.736784 54.940357 
L 61.179682 55.015633 
L 60.622581 55.090909 
L 60.27135 54.853979 
L 59.920119 54.617048 
L 59.568889 54.380118 
L 59.217658 54.143187 
" style="fill:none;stroke:#000000;stroke-linecap:square;stroke-width:0.408346;"/>
   </g>
   <g id="line2d_22">
    <path clip-path="url(#p6d7c8df3bf)" d="M 21.859521 39.348978 
L 22.362955 39.684472 
L 22.866389 40.019965 
L 22.955541 40.404876 
L 23.044693 40.789786 
L 23.133845 41.174697 
L 23.222997 41.559607 
L 23.642558 42.062983 
L 24.062119 42.566359 
L 24.405236 43.096677 
L 24.748353 43.626995 
L 25.09147 44.157313 
L 25.434588 44.687631 
" style="fill:none;stroke:#008000;stroke-linecap:square;stroke-width:0.408346;"/>
   </g>
   <g id="line2d_23">
    <path clip-path="url(#p6d7c8df3bf)" d="M 75.830398 6.65799 
L 75.5996 7.287277 
L 75.368803 7.916564 
L 75.138005 8.545852 
L 74.907207 9.175139 
L 74.781495 9.636544 
L 74.655783 10.097949 
L 74.401427 10.723581 
L 74.147071 11.349213 
L 73.892714 11.974845 
L 73.638358 12.600477 
L 73.384001 13.226108 
L 73.129645 13.85174 
L 72.875288 14.477372 
L 72.620932 15.103004 
L 72.464916 15.492856 
L 72.308901 15.882708 
L 72.152885 16.27256 
L 71.996869 16.662412 
L 71.840853 17.052265 
L 71.684838 17.442117 
L 71.528822 17.831969 
L 71.372806 18.221821 
L 71.216791 18.611673 
L 71.060775 19.001525 
L 70.904759 19.391378 
L 70.748743 19.78123 
L 70.592728 20.171082 
L 70.436712 20.560934 
L 70.280696 20.950786 
L 70.124681 21.340638 
L 69.980884 21.815447 
L 69.837088 22.290256 
L 69.693291 22.765064 
L 69.549495 23.239873 
L 69.405698 23.714682 
L 69.261902 24.18949 
L 69.118106 24.664299 
L 68.974309 25.139108 
L 68.769856 25.637677 
L 68.565403 26.136246 
L 68.36095 26.634816 
L 68.156498 27.133385 
L 67.952045 27.631954 
L 67.747592 28.130524 
L 67.543139 28.629093 
L 67.338686 29.127663 
L 67.170011 29.576138 
L 67.001336 30.024614 
L 66.832661 30.473089 
L 66.663986 30.921565 
L 66.495311 31.37004 
L 66.326637 31.818516 
L 66.157962 32.266991 
L 65.989287 32.715467 
L 65.814062 33.230892 
L 65.638838 33.746317 
L 65.463614 34.261743 
L 65.288389 34.777168 
L 65.113165 35.292593 
L 64.93794 35.808019 
L 64.762716 36.323444 
L 64.587492 36.838869 
L 64.440616 37.345088 
L 64.29374 37.851307 
L 64.146865 38.357526 
L 63.999989 38.863745 
L 63.853113 39.369964 
L 63.706237 39.876182 
L 63.559362 40.382401 
L 63.412486 40.88862 
L 63.215902 41.301556 
L 63.019319 41.714492 
L 62.822735 42.127428 
L 62.626151 42.540364 
L 62.429568 42.9533 
L 62.232984 43.366236 
L 62.0364 43.779172 
L 61.839817 44.192108 
L 61.696411 44.556439 
L 61.553006 44.92077 
L 61.4096 45.285102 
L 61.266195 45.649433 
L 61.122789 46.013765 
L 60.979384 46.378096 
L 60.835979 46.742427 
L 60.692573 47.106759 
L 60.561876 47.447938 
L 60.431178 47.789118 
L 60.300481 48.130298 
L 60.169784 48.471478 
L 60.039086 48.812658 
L 59.908389 49.153838 
L 59.777692 49.495018 
L 59.646994 49.836198 
L 59.519865 50.217317 
L 59.392736 50.598437 
L 59.265606 50.979556 
L 59.138477 51.360676 
L 59.011348 51.741795 
L 58.884218 52.122915 
L 58.757089 52.504035 
L 58.62996 52.885154 
" style="fill:none;stroke:#ff0000;stroke-linecap:square;stroke-width:0.408346;"/>
   </g>
   <g id="line2d_24">
    <path clip-path="url(#p6d7c8df3bf)" d="M 66.747859 33.30847 
L 66.705923 33.832831 
L 66.663986 34.357192 
L 66.62205 34.881553 
L 66.580113 35.405914 
L 66.370333 35.888304 
L 66.160552 36.370695 
L 65.950772 36.853085 
L 65.740991 37.335475 
L 65.410582 37.699401 
L 65.080173 38.063326 
L 64.749764 38.427251 
L 64.419354 38.791176 
L 64.324973 39.200118 
L 64.230591 39.60906 
L 64.136209 40.018002 
L 64.041828 40.426944 
L 63.947446 40.835886 
L 63.853064 41.244828 
L 63.758683 41.65377 
L 63.664301 42.062712 
L 63.632824 42.440244 
L 63.601347 42.817776 
L 63.56987 43.195307 
L 63.538394 43.572839 
L 63.506917 43.950371 
L 63.47544 44.327903 
L 63.443963 44.705435 
L 63.412486 45.082966 
L 63.286628 45.42902 
L 63.160769 45.775074 
L 63.034911 46.121128 
L 62.909052 46.467182 
L 62.783193 46.813236 
L 62.657335 47.159289 
L 62.531476 47.505343 
L 62.405618 47.851397 
L 62.065433 48.357616 
L 61.725249 48.863835 
L 61.385064 49.370054 
L 61.044879 49.876273 
L 60.844483 50.503394 
L 60.644087 51.130515 
L 60.443691 51.757636 
L 60.243295 52.384757 
L 59.898223 52.970449 
L 59.55315 53.556141 
" style="fill:none;stroke:#ff0000;stroke-linecap:square;stroke-width:0.408346;"/>
   </g>
   <g id="line2d_25">
    <path clip-path="url(#p6d7c8df3bf)" d="M 76.394244 4.964005 
L 75.995407 5.187667 
L 75.59657 5.411329 
L 75.09294 5.819662 
L 74.801242 6.133764 
L 74.220973 6.284858 
L 73.677459 6.716749 
L 73.133946 7.148639 
L 72.799431 7.644974 
L 72.464916 8.14131 
L 72.29414 8.476397 
L 72.123363 8.811485 
L 71.952586 9.146572 
L 71.78181 9.481659 
L 71.530142 9.775318 
L 71.278473 10.068976 
L 71.026805 10.362634 
L 70.775137 10.656293 
L 70.523469 10.949951 
L 70.271801 11.24361 
L 70.020133 11.537268 
L 69.768464 11.830926 
L 69.433656 12.306818 
L 69.098848 12.78271 
L 68.76404 13.258602 
L 68.429232 13.734493 
L 68.187974 14.131183 
L 67.946717 14.527872 
L 67.70546 14.924561 
L 67.464202 15.321251 
L 67.376321 15.702235 
L 67.28844 16.083219 
L 67.200559 16.464203 
L 67.112678 16.845187 
L 66.92284 17.30226 
L 66.733001 17.759333 
L 66.543162 18.216406 
L 66.353324 18.673478 
L 66.163485 19.130551 
L 65.973646 19.587624 
L 65.783808 20.044696 
L 65.593969 20.501769 
L 65.368254 21.077375 
L 65.14254 21.65298 
L 64.916826 22.228586 
L 64.691111 22.804192 
L 64.465397 23.379797 
L 64.239682 23.955403 
L 64.013968 24.531009 
L 63.788253 25.106614 
L 63.552519 25.506282 
L 63.316785 25.90595 
L 63.08105 26.305618 
L 62.845316 26.705286 
L 62.609582 27.104953 
L 62.373848 27.504621 
L 62.138113 27.904289 
L 61.902379 28.303957 
L 61.760636 28.681827 
L 61.618892 29.059697 
L 61.477148 29.437568 
L 61.335405 29.815438 
L 61.231003 30.485342 
" style="fill:none;stroke:#000000;stroke-linecap:square;stroke-width:0.408346;"/>
   </g>
   <g id="line2d_26">
    <path clip-path="url(#p6d7c8df3bf)" d="M 78.766934 12.782981 
L 78.593909 13.111299 
L 78.420884 13.439617 
L 78.247859 13.767935 
L 78.074834 14.096252 
L 77.665831 14.656221 
L 77.256827 15.216189 
L 77.047047 15.845476 
L 76.837266 16.474764 
L 76.748114 16.99046 
L 76.658963 17.506156 
L 76.569811 18.021852 
L 76.480659 18.537548 
L 76.230701 18.831748 
L 75.980744 19.125948 
L 75.730786 19.420148 
L 75.480829 19.714348 
L 75.267725 20.058506 
L 75.054621 20.402664 
L 74.841516 20.746823 
L 74.628412 21.090981 
L 74.327916 21.57811 
L 74.027419 22.065239 
L 73.785575 22.443245 
L 73.543732 22.821251 
L 73.292112 23.303776 
L 73.040493 23.786302 
L 72.788874 24.268828 
L 72.537254 24.751354 
L 72.311735 25.283026 
L 72.086216 25.814698 
L 71.860698 26.34637 
L 71.635179 26.878042 
L 71.50409 27.311151 
L 71.373002 27.74426 
L 71.241913 28.177368 
L 71.110825 28.610477 
L 70.984918 29.134838 
L 70.85901 29.659199 
L 70.733103 30.18356 
L 70.607195 30.707921 
L 70.355478 31.00158 
L 70.103761 31.295238 
L 69.852044 31.588896 
L 69.600327 31.882555 
L 69.149485 32.274641 
L 68.698642 32.666727 
" style="fill:none;stroke:#008000;stroke-linecap:square;stroke-width:0.408346;"/>
   </g>
   <g id="line2d_27">
    <path clip-path="url(#p6d7c8df3bf)" d="M 50.711869 51.545346 
L 51.047948 51.77456 
L 51.384027 52.003773 
L 51.720106 52.232986 
L 52.056185 52.462199 
L 52.310835 52.755858 
L 52.565484 53.049516 
L 52.820134 53.343175 
L 53.074784 53.636833 
L 53.289452 53.974493 
L 53.50412 54.312153 
L 53.718788 54.649812 
L 53.933457 54.987472 
L 54.14617 55.555834 
L 54.358883 56.124197 
L 54.500822 56.582894 
L 54.642761 57.041591 
L 54.7847 57.500289 
L 54.926639 57.958986 
L 55.220684 58.578526 
L 55.583645 59.088671 
L 55.946607 59.598816 
L 56.309568 60.108961 
L 56.672529 60.619106 
" style="fill:none;stroke:#008000;stroke-linecap:square;stroke-width:0.408346;"/>
   </g>
   <g id="line2d_28">
    <path clip-path="url(#p6d7c8df3bf)" d="M 77.571205 7.216333 
L 77.49261 7.72702 
L 77.414016 8.237707 
L 77.335422 8.748393 
L 77.256827 9.25908 
L 77.201743 9.643449 
L 77.146658 10.027818 
L 77.091574 10.412187 
L 77.036489 10.796556 
L 76.981405 11.180925 
L 76.92632 11.565294 
L 76.871236 11.949662 
L 76.816151 12.334031 
L 76.71654 12.802883 
L 76.616928 13.271734 
L 76.517317 13.740586 
L 76.417705 14.209438 
L 76.040081 14.733798 
L 75.662456 15.258159 
L 75.284832 15.78252 
L 74.907207 16.306881 
L 74.707935 16.726384 
L 74.508663 17.145886 
L 74.309391 17.565388 
L 74.110119 17.984891 
L 73.910848 18.404393 
L 73.711576 18.823895 
L 73.512304 19.243398 
L 73.313032 19.6629 
L 73.142646 20.015791 
L 72.972261 20.368682 
L 72.801875 20.721573 
L 72.631489 21.074464 
L 72.461104 21.427355 
L 72.290718 21.780246 
L 72.120333 22.133137 
L 71.949947 22.486028 
L 71.719149 22.947433 
L 71.488352 23.408838 
L 71.257554 23.870243 
L 71.026756 24.331648 
L 70.87206 24.670933 
L 70.717364 25.010217 
L 70.562668 25.349502 
L 70.407972 25.688786 
L 70.253276 26.028071 
L 70.09858 26.367355 
L 69.943884 26.706639 
L 69.789188 27.045924 
L 69.621442 27.507329 
L 69.453696 27.968734 
L 69.28595 28.430139 
L 69.118203 28.891545 
L 69.029052 29.261698 
L 68.9399 29.631851 
L 68.850748 30.002004 
L 68.761596 30.372157 
L 68.342035 30.875533 
L 67.922474 31.378908 
L 67.502913 31.630731 
L 67.083352 31.882555 
L 66.536319 32.299011 
L 65.989287 32.715467 
" style="fill:none;stroke:#4169e1;stroke-linecap:square;stroke-width:0.408346;"/>
   </g>
   <g id="line2d_29">
    <path clip-path="url(#p6d7c8df3bf)" d="M 29.037416 59.06051 
L 29.466264 59.098283 
L 29.895112 59.136057 
L 30.32396 59.17383 
L 30.752807 59.211604 
L 31.333076 59.161239 
L 31.913345 59.110874 
L 32.380024 59.22433 
L 32.846702 59.337786 
L 33.313381 59.451242 
L 33.780059 59.564698 
L 34.385549 59.867427 
L 34.991038 60.170157 
L 35.495646 60.649433 
L 36.000253 61.12871 
L 36.681404 61.355621 
L 37.362555 61.582533 
L 37.627469 61.923036 
L 37.892383 62.263539 
L 38.157297 62.604042 
L 38.422211 62.944545 
L 38.724956 63.171592 
L 39.0277 63.398639 
L 39.330445 63.625686 
L 39.63319 63.852733 
L 40.024207 64.004098 
L 40.415224 64.155462 
L 40.80624 64.306827 
L 41.197257 64.458192 
L 41.487392 64.69783 
L 41.777526 64.937468 
L 42.067661 65.177107 
L 42.357795 65.416745 
L 42.761324 65.938533 
L 43.164854 66.460322 
" style="fill:none;stroke:#4169e1;stroke-linecap:square;stroke-width:0.408346;"/>
   </g>
  </g>
 </g>
 <defs>
  <clipPath id="p6d7c8df3bf">
   <rect height="72" width="88.202678" x="0" y="0"/>
  </clipPath>
 </defs>
</svg>
