<?xml version="1.0" encoding="utf-8" standalone="no"?>
<!DOCTYPE svg PUBLIC "-//W3C//DTD SVG 1.1//EN"
  "http://www.w3.org/Graphics/SVG/1.1/DTD/svg11.dtd">
<svg height="98.111119pt" version="1.1" viewBox="0 0 72 98.111119" width="72pt" xmlns="http://www.w3.org/2000/svg" xmlns:xlink="http://www.w3.org/1999/xlink">
 <metadata>
  <rdf:RDF xmlns:cc="http://creativecommons.org/ns#" xmlns:dc="http://purl.org/dc/elements/1.1/" xmlns:rdf="http://www.w3.org/1999/02/22-rdf-syntax-ns#">
   <cc:Work>
    <dc:type rdf:resource="http://purl.org/dc/dcmitype/StillImage"/>
    <dc:date>2022-04-21T17:37:27.749961</dc:date>
    <dc:format>image/svg+xml</dc:format>
    <dc:creator>
     <cc:Agent>
      <dc:title>Matplotlib v3.4.3, https://matplotlib.org/</dc:title>
     </cc:Agent>
    </dc:creator>
   </cc:Work>
  </rdf:RDF>
 </metadata>
 <defs>
  <style type="text/css">*{stroke-linecap:butt;stroke-linejoin:round;}</style>
 </defs>
 <g id="figure_1">
  <g id="patch_1">
   <path d="M 0 98.111119 
L 72 98.111119 
L 72 0 
L 0 0 
z
" style="fill:#ffffff;"/>
  </g>
  <g id="axes_1">
   <g id="line2d_1">
    <path clip-path="url(#p207e8b1e2e)" d="M 6.243512 23.114872 
L 7.80459 27.523412 
L 9.365667 31.931953 
L 10.926745 36.340494 
L 12.487822 40.749035 
L 14.0489 45.157575 
L 15.609978 49.566116 
L 17.171055 53.974657 
L 18.732133 58.383197 
L 20.293211 62.791738 
L 21.854288 67.200279 
L 23.415366 71.60882 
L 24.976443 76.01736 
L 26.537521 80.425901 
L 28.098599 84.834442 
L 29.659676 89.242982 
L 31.220754 93.651523 
" style="fill:none;stroke:#808080;stroke-linecap:square;stroke-width:0.4;"/>
   </g>
   <g id="line2d_2">
    <path clip-path="url(#p207e8b1e2e)" d="M 59.181848 30.092044 
L 60.543458 30.886872 
L 61.905068 31.681701 
L 63.266677 32.476529 
L 64.628287 33.271358 
L 65.625445 34.239121 
L 66.622604 35.206884 
L 67.619762 36.174647 
L 68.616921 37.14241 
L 68.672097 38.829488 
L 68.727273 40.516565 
L 67.718135 42.12014 
L 66.708998 43.723714 
L 66.006413 44.463389 
L 65.303828 45.203064 
L 64.601243 45.942739 
L 63.898659 46.682414 
L 63.196074 47.422089 
L 62.493489 48.161764 
L 61.790904 48.901439 
L 61.08832 49.641114 
L 59.712916 50.795471 
L 58.337513 51.949828 
L 56.962109 53.104185 
L 55.586705 54.258542 
L 54.987394 55.433775 
L 54.388082 56.609008 
L 53.788771 57.784241 
L 53.189459 58.959474 
L 51.882663 59.512555 
L 50.575866 60.065636 
L 49.269069 60.618717 
L 47.962272 61.171798 
" style="fill:none;stroke:#008000;stroke-linecap:square;stroke-width:0.4;"/>
   </g>
   <g id="line2d_3">
    <path clip-path="url(#p207e8b1e2e)" d="M 15.218302 29.594116 
L 16.310384 29.953516 
L 17.402467 30.312915 
L 18.49455 30.672315 
L 19.586633 31.031714 
L 20.678716 31.391114 
L 21.770798 31.750514 
L 22.862881 32.109913 
L 23.954964 32.469313 
L 24.805471 33.160535 
L 25.655978 33.851758 
L 26.506485 34.54298 
L 27.356991 35.234203 
L 27.61708 36.3749 
L 27.877169 37.515598 
L 28.137258 38.656295 
L 28.397347 39.796993 
L 28.657436 40.93769 
L 28.917525 42.078388 
L 29.177613 43.219085 
L 29.437702 44.359783 
L 29.520648 45.355251 
L 29.603593 46.35072 
L 29.686538 47.346189 
L 29.769483 48.341657 
L 29.852429 49.337126 
L 29.935374 50.332595 
L 30.018319 51.328063 
L 30.101265 52.323532 
L 30.550295 53.408818 
L 30.999324 54.494104 
L 31.448354 55.579391 
L 31.897384 56.664677 
L 32.512668 57.452676 
L 33.127951 58.240675 
L 33.743235 59.028673 
L 34.358518 59.816672 
L 34.973802 60.604671 
L 35.589085 61.39267 
L 36.204368 62.180669 
L 36.819652 62.968667 
" style="fill:none;stroke:#000000;stroke-linecap:square;stroke-width:0.4;"/>
   </g>
   <g id="line2d_4">
    <path clip-path="url(#p207e8b1e2e)" d="M 3.272727 26.46944 
L 3.666763 27.5305 
L 4.060798 28.59156 
L 4.454834 29.65262 
L 4.848869 30.71368 
L 5.242905 31.77474 
L 5.63694 32.8358 
L 6.030976 33.89686 
L 6.425011 34.95792 
L 6.501967 36.081221 
L 6.578923 37.204522 
L 6.655879 38.327823 
L 6.732835 39.451124 
L 6.80979 40.574425 
L 6.886746 41.697726 
L 6.963702 42.821027 
L 7.040658 43.944328 
L 7.506386 44.91222 
L 7.972114 45.880111 
L 8.437841 46.848003 
L 8.903569 47.815895 
L 9.369297 48.783787 
L 9.835025 49.751679 
L 10.300753 50.719571 
L 10.766481 51.687463 
L 11.088642 53.318872 
L 11.410804 54.95028 
L 11.732966 56.581689 
L 12.055127 58.213098 
L 12.377289 59.844507 
L 12.699451 61.475915 
L 13.021613 63.107324 
L 13.343774 64.738733 
L 14.138016 65.727243 
L 14.932258 66.715753 
L 15.7265 67.704263 
L 16.520742 68.692773 
L 17.314984 69.681283 
L 18.109226 70.669793 
L 18.903468 71.658303 
L 19.69771 72.646813 
" style="fill:none;stroke:#000000;stroke-linecap:square;stroke-width:0.4;"/>
   </g>
   <g id="line2d_5">
    <path clip-path="url(#p207e8b1e2e)" d="M 12.59164 14.938756 
L 13.600778 13.486983 
L 14.609915 12.035209 
L 15.619053 10.583436 
L 16.62819 9.131662 
L 17.837703 8.302299 
L 19.047216 7.472935 
L 20.256729 6.643571 
L 21.466242 5.814207 
L 22.772676 5.475554 
L 24.07911 5.136902 
L 25.385543 4.798249 
L 26.691977 4.459596 
L 28.420216 4.708302 
L 30.148455 4.957008 
L 31.876693 5.205715 
L 33.604932 5.454421 
L 34.863087 5.917555 
L 36.121242 6.38069 
L 37.379397 6.843824 
L 38.637551 7.306959 
L 39.895706 7.770093 
L 41.153861 8.233228 
L 42.412016 8.696362 
L 43.670171 9.159497 
L 45.066265 9.927006 
L 46.46236 10.694516 
L 47.858455 11.462025 
L 49.254549 12.229535 
L 49.899235 13.805533 
L 50.543922 15.38153 
L 51.188608 16.957528 
L 51.833295 18.533525 
L 52.501939 19.445877 
L 53.170583 20.358229 
L 53.839228 21.270581 
L 54.507872 22.182933 
L 55.074877 23.593212 
L 55.641881 25.003491 
L 56.208886 26.413771 
L 56.77589 27.82405 
L 56.742857 29.386388 
L 56.709825 30.948726 
L 56.676792 32.511065 
L 56.643759 34.073403 
L 56.524695 35.801459 
L 56.405631 37.529515 
L 56.286568 39.257571 
L 56.167504 40.985627 
L 56.037913 42.561883 
L 55.908323 44.138138 
L 55.778732 45.714393 
L 55.649141 47.290649 
L 54.714056 48.818451 
L 53.77897 50.346254 
L 52.843884 51.874057 
L 51.908798 53.40186 
L 51.284077 54.355834 
L 50.659356 55.309809 
L 50.034634 56.263783 
L 49.409913 57.217758 
L 48.785191 58.171733 
L 48.16047 59.125707 
L 47.535748 60.079682 
L 46.911027 61.033657 
L 46.5689 62.288269 
L 46.226774 63.542882 
L 45.884647 64.797495 
L 45.54252 66.052107 
L 45.200394 67.30672 
L 44.858267 68.561333 
L 44.51614 69.815945 
L 44.174014 71.070558 
" style="fill:none;stroke:#008000;stroke-linecap:square;stroke-width:0.4;"/>
   </g>
   <g id="line2d_6">
    <path clip-path="url(#p207e8b1e2e)" d="M 30.592039 44.387617 
L 31.621868 44.822917 
L 32.651696 45.258217 
L 33.681525 45.693517 
L 34.711353 46.128818 
L 35.072537 47.331627 
L 35.433721 48.534437 
L 35.794906 49.737246 
L 36.15609 50.940056 
L 36.369533 52.426365 
L 36.582977 53.912673 
L 36.79642 55.398982 
L 37.009863 56.885291 
L 37.223307 58.3716 
L 37.43675 59.857908 
L 37.650194 61.344217 
L 37.863637 62.830526 
" style="fill:none;stroke:#000000;stroke-linecap:square;stroke-width:0.4;"/>
   </g>
   <g id="line2d_7">
    <path clip-path="url(#p207e8b1e2e)" d="M 9.770411 24.616902 
L 11.491753 24.188303 
L 13.213095 23.759703 
L 14.934436 23.331104 
L 16.655778 22.902505 
L 17.929542 23.64218 
L 19.203306 24.381855 
L 20.47707 25.12153 
L 21.750833 25.861205 
L 23.105546 25.543171 
L 24.460259 25.225136 
L 25.814971 24.907102 
L 27.169684 24.589067 
L 28.181544 24.703111 
L 29.193404 24.817155 
L 30.205264 24.931199 
L 31.217124 25.045243 
L 32.228984 25.159287 
L 33.240844 25.273331 
L 34.252704 25.387375 
L 35.264564 25.501419 
L 36.646864 26.524593 
L 38.029165 27.547768 
L 39.9095 27.575602 
L 40.932432 26.66325 
L 41.955363 25.750898 
L 43.213518 26.006563 
L 44.471673 26.262228 
L 45.729828 26.517892 
L 46.987983 26.773557 
L 48.289334 27.160662 
L 49.590686 27.547768 
L 50.892038 27.934873 
L 52.19339 28.321978 
L 53.002152 29.524788 
L 53.810914 30.727597 
L 54.619676 31.930407 
L 55.428438 33.133216 
" style="fill:none;stroke:#4169e1;stroke-linecap:square;stroke-width:0.4;"/>
   </g>
   <g id="line2d_8">
    <path clip-path="url(#p207e8b1e2e)" d="M 7.641784 25.63956 
L 8.130835 27.020395 
L 8.619885 28.401229 
L 9.108936 29.782063 
L 9.597987 31.162897 
L 10.087037 32.543731 
L 10.576088 33.924566 
L 11.065138 35.3054 
L 11.554189 36.686234 
L 12.043239 38.067068 
L 12.53229 39.447902 
L 13.02134 40.828736 
L 13.510391 42.209571 
L 13.999441 43.590405 
L 14.488492 44.971239 
L 14.977542 46.352073 
L 15.466593 47.732907 
L 15.955644 49.113742 
L 16.444694 50.494576 
L 16.933745 51.87541 
L 17.422795 53.256244 
L 17.911846 54.637078 
L 18.400896 56.017912 
L 18.889947 57.398747 
L 19.378997 58.779581 
L 19.868048 60.160415 
L 20.357098 61.541249 
L 20.846149 62.922083 
L 21.335199 64.302917 
L 21.82425 65.683752 
L 22.3133 67.064586 
L 22.802351 68.44542 
L 23.291402 69.826254 
" style="fill:none;stroke:#000000;stroke-linecap:square;stroke-width:0.4;"/>
   </g>
   <g id="line2d_9">
    <path clip-path="url(#p207e8b1e2e)" d="M 9.244788 27.133343 
L 10.571913 28.1426 
L 11.899038 29.151857 
L 12.645727 30.002097 
L 13.392416 30.852337 
L 14.139105 31.702576 
L 14.885794 32.552816 
L 15.632484 33.403056 
L 16.379173 34.253296 
L 17.125862 35.103535 
L 17.872551 35.953775 
L 18.640657 37.173852 
L 19.408763 38.39393 
L 20.176869 39.614007 
L 20.944975 40.834084 
L 21.713081 42.054162 
L 22.481188 43.274239 
L 23.249294 44.494316 
L 24.0174 45.714393 
L 24.364336 46.82906 
L 24.711273 47.943728 
L 25.058209 49.058395 
L 25.405145 50.173062 
L 25.752082 51.287729 
L 26.099018 52.402396 
L 26.445954 53.517063 
L 26.792891 54.63173 
L 27.139827 55.746398 
L 27.486764 56.861065 
L 27.8337 57.975732 
L 28.180636 59.090399 
L 28.527573 60.205066 
L 28.874509 61.319733 
L 29.221446 62.4344 
L 29.568382 63.549067 
" style="fill:none;stroke:#000000;stroke-linecap:square;stroke-width:0.4;"/>
   </g>
   <g id="line2d_10">
    <path clip-path="url(#p207e8b1e2e)" d="M 6.590539 18.035598 
L 7.890076 17.558546 
L 9.189613 17.081494 
L 10.489149 16.604442 
L 11.788686 16.127391 
L 13.371725 16.286408 
L 14.954764 16.445425 
L 16.537803 16.604442 
L 18.120842 16.76346 
L 19.510403 16.549289 
L 20.899963 16.335118 
L 22.289524 16.120947 
L 23.679085 15.906777 
L 25.158306 15.388231 
L 26.637527 14.869685 
L 28.116749 14.35114 
L 29.59597 13.832594 
L 30.67081 14.022667 
L 31.745651 14.21274 
L 32.820491 14.402814 
L 33.895331 14.592887 
L 34.970172 14.78296 
L 36.045012 14.973034 
L 37.119852 15.163107 
L 38.194693 15.35318 
L 39.929828 15.775079 
L 41.664964 16.196977 
L 43.4001 16.618875 
L 45.135235 17.040773 
L 46.53859 17.455455 
L 47.941944 17.870137 
L 49.345299 18.284819 
L 50.748653 18.699501 
" style="fill:none;stroke:#4169e1;stroke-linecap:square;stroke-width:0.4;"/>
   </g>
  </g>
 </g>
 <defs>
  <clipPath id="p207e8b1e2e">
   <rect height="98.111119" width="72" x="0" y="0"/>
  </clipPath>
 </defs>
</svg>
