<?xml version="1.0" encoding="utf-8" standalone="no"?>
<!DOCTYPE svg PUBLIC "-//W3C//DTD SVG 1.1//EN"
  "http://www.w3.org/Graphics/SVG/1.1/DTD/svg11.dtd">
<svg height="72pt" version="1.1" viewBox="0 0 57.910835 72" width="57.910835pt" xmlns="http://www.w3.org/2000/svg" xmlns:xlink="http://www.w3.org/1999/xlink">
 <metadata>
  <rdf:RDF xmlns:cc="http://creativecommons.org/ns#" xmlns:dc="http://purl.org/dc/elements/1.1/" xmlns:rdf="http://www.w3.org/1999/02/22-rdf-syntax-ns#">
   <cc:Work>
    <dc:type rdf:resource="http://purl.org/dc/dcmitype/StillImage"/>
    <dc:date>2022-04-21T17:37:30.576224</dc:date>
    <dc:format>image/svg+xml</dc:format>
    <dc:creator>
     <cc:Agent>
      <dc:title>Matplotlib v3.4.3, https://matplotlib.org/</dc:title>
     </cc:Agent>
    </dc:creator>
   </cc:Work>
  </rdf:RDF>
 </metadata>
 <defs>
  <style type="text/css">*{stroke-linecap:butt;stroke-linejoin:round;}</style>
 </defs>
 <g id="figure_1">
  <g id="patch_1">
   <path d="M 0 72 
L 57.910835 72 
L 57.910835 0 
L 0 0 
z
" style="fill:#ffffff;"/>
  </g>
  <g id="axes_1">
   <g id="line2d_1">
    <path clip-path="url(#p098a1469e3)" d="M 33.495276 23.652883 
L 32.980367 24.34756 
L 32.415179 25.110083 
L 31.634558 26.163652 
L 30.927614 27.11742 
L 30.220669 28.071188 
L 29.513725 29.024957 
L 28.80678 29.978725 
L 27.612911 31.589806 
L 26.526024 33.056347 
L 25.439137 34.522889 
L 24.501621 35.78786 
L 23.564106 37.052832 
L 22.571539 38.39204 
L 21.578973 39.731249 
L 20.574845 41.086189 
L 19.570718 42.44113 
L 18.568977 43.792629 
L 17.567235 45.144128 
L 16.640546 46.394351 
L 15.713857 47.644574 
L 14.898003 48.74534 
L 14.08215 49.846107 
L 13.247946 50.9717 
L 12.413743 52.097294 
L 11.725607 53.025743 
L 11.037472 53.954192 
L 10.3553 54.874529 
L 9.673129 55.794866 
L 8.990957 56.715203 
L 8.308786 57.63554 
" style="fill:none;stroke:#808080;stroke-linecap:square;stroke-width:0.4;"/>
   </g>
   <g id="line2d_2">
    <path clip-path="url(#p098a1469e3)" d="M 12.319422 61.838019 
L 13.278041 60.591238 
L 14.502004 58.99933 
L 15.261339 58.011394 
L 16.020673 57.023457 
L 16.796156 56.014872 
L 17.571639 55.006287 
L 18.70275 53.534829 
L 19.833861 52.063371 
L 20.548788 51.133448 
L 21.263715 50.203524 
L 22.013874 49.227755 
L 22.764034 48.251987 
L 23.514193 47.276218 
L 24.264352 46.300449 
L 25.152139 45.145603 
L 26.147825 43.85015 
" style="fill:none;stroke:#808080;stroke-linecap:square;stroke-width:0.4;"/>
   </g>
   <g id="line2d_3">
    <path clip-path="url(#p098a1469e3)" d="M 11.791668 51.425232 
L 11.511643 51.802314 
L 10.581284 53.055487 
L 9.915352 53.952471 
L 9.249421 54.849456 
L 8.206391 56.254543 
L 7.12556 57.710268 
" style="fill:none;stroke:#808080;stroke-linecap:square;stroke-width:0.4;"/>
   </g>
   <g id="line2d_4">
    <path clip-path="url(#p098a1469e3)" d="M 38.842547 25.416862 
L 38.23919 27.125778 
L 38.164321 27.338164 
L 38.108903 27.494995 
L 37.713088 28.616287 
L 37.317272 29.737579 
L 36.921457 30.858871 
L 36.525641 31.980163 
L 35.8676 33.844189 
L 35.209559 35.708216 
L 34.534636 37.619931 
L 33.859713 39.531646 
L 33.186074 41.439674 
L 32.512435 43.347701 
L 31.794939 45.380358 
L 31.077444 47.413015 
L 30.434633 49.234023 
L 29.791823 51.055032 
L 29.098733 53.018123 
L 28.405643 54.981213 
L 27.793294 56.715695 
L 27.180946 58.450176 
L 26.546393 60.247586 
L 25.91184 62.044997 
L 25.343716 63.654112 
L 24.775591 65.263226 
L 24.118284 67.125041 
" style="fill:none;stroke:#808080;stroke-linecap:square;stroke-width:0.4;"/>
   </g>
   <g id="line2d_5">
    <path clip-path="url(#p098a1469e3)" d="M 23.669436 67.04048 
L 24.367114 65.040517 
L 24.915971 63.467291 
L 25.464828 61.894065 
L 26.093875 60.09051 
L 26.722923 58.286954 
L 27.319307 56.5773 
L 27.915691 54.867646 
L 28.609882 52.877762 
L 29.304073 50.887877 
L 29.936056 49.076209 
L 30.56804 47.264542 
L 30.992298 46.048241 
L 31.491793 44.616606 
L 31.991287 43.184971 
L 32.66199 41.262194 
L 33.332693 39.339417 
L 33.995872 37.437781 
L 34.659051 35.536144 
L 35.309201 33.672118 
L 35.959351 31.808091 
L 36.35168 30.683358 
L 36.744009 29.558624 
L 37.136338 28.433891 
L 37.528667 27.309157 
L 37.596563 27.114962 
L 37.680608 26.87357 
L 38.049081 25.817297 
L 38.417555 24.761023 
" style="fill:none;stroke:#808080;stroke-linecap:square;stroke-width:0.4;"/>
   </g>
   <g id="line2d_6">
    <path clip-path="url(#p098a1469e3)" d="M 8.02142 57.409389 
L 8.408978 56.8858 
L 9.011601 56.072147 
L 9.897186 54.87625 
L 10.78277 53.680353 
L 11.6634 52.491338 
L 12.54403 51.302324 
L 13.489344 50.025798 
L 14.434659 48.749273 
L 15.379974 47.472748 
L 16.325288 46.196223 
L 17.150684 45.081691 
L 17.976079 43.967159 
L 18.783308 42.876963 
L 19.590537 41.786766 
L 20.363083 40.743521 
L 21.13563 39.700276 
L 21.873311 38.703982 
L 22.610992 37.707687 
L 22.966621 37.227853 
L 24.248204 35.496814 
L 24.996345 34.486754 
L 25.744486 33.476694 
L 26.44932 32.524892 
L 27.154154 31.57309 
L 28.330774 29.983641 
L 29.014689 29.060108 
L 29.698604 28.136576 
L 30.382519 27.213043 
L 31.066433 26.28951 
L 31.840448 25.244299 
L 32.488947 24.368209 
L 33.225894 23.373143 
" style="fill:none;stroke:#808080;stroke-linecap:square;stroke-width:0.4;"/>
   </g>
   <g id="line2d_7">
    <path clip-path="url(#p098a1469e3)" d="M 9.225933 24.078637 
L 11.049491 23.832574 
L 12.87305 23.586512 
L 14.696609 23.34045 
L 16.520168 23.094387 
" style="fill:none;stroke:#808080;stroke-linecap:square;stroke-width:0.4;"/>
   </g>
   <g id="line2d_8">
    <path clip-path="url(#p098a1469e3)" d="M 52.225772 45.499579 
L 51.979695 45.972038 
L 51.733617 46.444498 
L 51.684439 46.867794 
L 51.63526 47.29109 
L 51.802614 47.832378 
L 51.969969 48.373666 
L 52.142186 48.841209 
L 52.314404 49.308752 
L 52.486621 49.776295 
L 52.658838 50.243838 
L 52.708109 50.603099 
L 52.757379 50.962359 
L 52.80665 51.32162 
L 52.85592 51.680881 
L 52.767334 52.049974 
L 52.678749 52.419068 
L 52.590163 52.788161 
L 52.501577 53.157255 
L 52.412991 53.526348 
L 52.324405 53.895442 
L 52.235819 54.264535 
L 52.147233 54.633629 
L 51.940517 55.194582 
L 51.733801 55.755535 
L 51.527085 56.316489 
L 51.320369 56.877442 
L 51.034839 57.14317 
L 50.749309 57.408897 
L 50.158613 57.605796 
L 49.567918 57.802695 
L 49.011721 57.960141 
L 48.455524 58.117586 
L 47.899327 58.275032 
L 47.34313 58.432477 
L 47.013375 58.528469 
L 46.683621 58.62446 
L 46.353866 58.720451 
L 46.024112 58.816443 
L 45.694357 58.912434 
L 45.364603 59.008425 
L 45.034848 59.104417 
L 44.705094 59.200408 
L 44.370385 59.286505 
L 44.035676 59.372603 
L 43.700967 59.4587 
L 43.366258 59.544797 
L 43.031549 59.630894 
L 42.69684 59.716991 
L 42.36213 59.803089 
L 42.027421 59.889186 
L 41.709962 60.034341 
L 41.392502 60.179495 
L 41.075042 60.32465 
L 40.757582 60.469805 
L 40.440122 60.614959 
L 40.122663 60.760114 
L 39.805203 60.905268 
L 39.487743 61.050423 
L 39.192441 61.215305 
L 38.897139 61.380186 
L 38.601837 61.545067 
L 38.306536 61.709949 
L 38.011234 61.87483 
L 37.715932 62.039712 
L 37.42063 62.204593 
L 37.125328 62.369475 
L 36.583903 62.674533 
L 36.042478 62.979591 
L 35.501053 63.284649 
L 34.959628 63.589708 
L 34.526562 63.860352 
L 34.093495 64.130996 
L 33.660429 64.40164 
L 33.227362 64.672284 
L 32.882744 64.780689 
L 32.538126 64.889094 
L 32.103958 64.882211 
L 31.574369 64.907776 
" style="fill:none;stroke:#4169e1;stroke-linecap:square;stroke-width:0.4;"/>
   </g>
   <g id="line2d_9">
    <path clip-path="url(#p098a1469e3)" d="M 53.309539 45.775385 
L 53.545891 46.30684 
L 53.782242 46.838296 
L 53.920053 47.182808 
L 54.057864 47.527319 
L 54.195674 47.871831 
L 54.333485 48.216343 
L 54.530383 48.728133 
L 54.727282 49.239923 
L 54.92418 49.751713 
L 55.121079 50.263503 
L 55.16044 50.844245 
L 55.199801 51.424986 
L 55.239163 52.005728 
L 55.278524 52.586469 
L 55.140714 53.216374 
L 55.002903 53.846279 
L 54.865092 54.476183 
L 54.727282 55.106088 
L 54.510657 55.706495 
L 54.294032 56.306902 
L 54.077407 56.907309 
L 53.860782 57.507716 
L 53.651588 57.786717 
L 53.442395 58.065719 
L 53.233202 58.344721 
L 53.024009 58.623723 
L 52.5358 58.926323 
L 52.047591 59.228923 
L 51.559382 59.531523 
L 51.071172 59.834123 
L 50.622554 60.030469 
L 50.173936 60.226815 
L 49.725317 60.423161 
L 49.276699 60.619507 
L 48.82808 60.815853 
L 48.379462 61.012199 
L 47.930843 61.208545 
L 47.482225 61.404891 
L 47.063839 61.567314 
L 46.645452 61.729737 
L 46.227066 61.89216 
L 45.80868 62.054584 
L 45.390293 62.217007 
L 44.971907 62.37943 
L 44.553521 62.541853 
L 44.135134 62.704277 
L 43.775836 62.792832 
L 43.416537 62.881387 
L 43.057239 62.969943 
L 42.697941 63.058498 
L 42.338642 63.147054 
L 41.979344 63.235609 
L 41.620045 63.324164 
L 41.260747 63.41272 
L 40.699687 63.481671 
L 40.138627 63.550623 
L 39.577568 63.619574 
L 39.016508 63.688526 
L 38.632528 63.767187 
L 38.248549 63.845848 
L 37.864569 63.92451 
L 37.48059 64.003171 
L 37.116428 64.268899 
L 36.752267 64.534626 
L 36.388106 64.800354 
L 36.023944 65.066082 
L 35.48252 65.203862 
L 34.941095 65.341642 
L 34.39967 65.479422 
L 33.858245 65.617202 
L 33.474357 65.656656 
L 33.090469 65.696109 
L 32.706581 65.735563 
L 32.322693 65.775016 
L 31.919079 66.089907 
L 31.515465 66.404798 
L 31.11185 66.719689 
L 30.708236 67.03458 
L 30.373527 67.359304 
L 30.038818 67.684027 
L 29.704109 68.008751 
L 29.3694 68.333475 
L 28.916515 68.530374 
L 28.46363 68.727273 
L 28.050198 68.668277 
L 27.636766 68.609281 
L 27.223335 68.451835 
L 26.809903 68.29439 
L 26.396471 68.136944 
L 25.983039 67.979499 
" style="fill:none;stroke:#4169e1;stroke-linecap:square;stroke-width:0.4;"/>
   </g>
   <g id="line2d_10">
    <path clip-path="url(#p098a1469e3)" d="M 51.241463 47.488235 
L 50.827848 47.743884 
L 50.591863 48.118017 
L 50.72949 48.747798 
L 50.886936 49.269421 
L 51.044381 49.791044 
L 50.965842 50.10618 
L 50.611314 50.145511 
L 50.316058 49.919114 
L 50.020802 49.692717 
L 49.587736 49.37758 
L 49.213757 49.37758 
L 48.938136 49.673052 
L 48.938136 50.263503 
L 49.223483 50.834289 
L 49.50883 51.405075 
L 49.873083 51.926943 
L 50.237336 52.448812 
L 50.325968 52.832531 
L 50.414599 53.216251 
L 50.286698 53.639547 
L 50.158797 54.062843 
L 49.686093 54.397153 
L 49.243118 54.30866 
L 48.800142 54.220166 
L 48.376801 54.16117 
L 47.95346 54.102174 
L 47.500759 54.141504 
L 47.048057 54.180835 
L 46.555903 54.495972 
L 46.457179 55.047092 
L 46.565445 55.381649 
L 46.673712 55.716205 
L 46.801797 56.070426 
L 46.929882 56.424648 
L 46.595173 56.818446 
L 46.240829 56.749617 
L 45.886485 56.680789 
L 45.4336 56.651291 
L 44.980715 56.621793 
L 44.616462 56.621793 
L 44.252209 56.621793 
L 43.838777 56.720119 
L 43.425346 56.818446 
L 43.051367 57.015345 
L 42.677388 57.212244 
L 42.303318 57.414059 
L 41.929247 57.615875 
L 41.555177 57.81769 
L 41.181107 58.019506 
L 40.802082 58.29015 
L 40.423057 58.560793 
L 40.044032 58.831437 
L 39.665007 59.102081 
L 39.202396 59.392391 
L 38.739786 59.6827 
L 38.277175 59.973009 
L 37.814565 60.263319 
L 37.499536 60.435575 
L 37.184508 60.60783 
L 36.869479 60.780086 
L 36.554451 60.952342 
L 36.239423 61.124598 
L 35.924394 61.296854 
L 35.609366 61.46911 
L 35.294337 61.641366 
L 34.83659 61.926759 
L 34.378842 62.212152 
L 33.921094 62.497545 
L 33.463347 62.782938 
L 32.941648 63.156825 
L 32.41995 63.530712 
" style="fill:none;stroke:#4169e1;stroke-linecap:square;stroke-width:0.4;"/>
   </g>
   <g id="line2d_11">
    <path clip-path="url(#p098a1469e3)" d="M 19.485206 27.979745 
L 19.263718 28.299613 
L 19.04223 28.619482 
L 18.820742 28.939351 
L 18.599255 29.25922 
L 18.377767 29.579088 
L 18.156279 29.898957 
L 17.934791 30.218826 
L 17.713303 30.538695 
L 17.472135 30.917682 
L 17.230966 31.29667 
L 16.989798 31.675657 
L 16.748629 32.054645 
L 16.50746 32.433633 
L 16.266292 32.81262 
L 16.025123 33.191608 
L 15.783955 33.570595 
L 15.500948 34.001205 
L 15.217941 34.431814 
L 14.934933 34.862423 
L 14.651926 35.293032 
L 14.368919 35.723641 
L 14.085912 36.15425 
L 13.802905 36.584859 
L 13.519898 37.015468 
L 13.350066 37.33042 
L 13.180234 37.645373 
L 13.010402 37.960325 
L 12.84057 38.275278 
L 12.670738 38.59023 
L 12.500907 38.905182 
L 12.331075 39.220135 
L 12.161243 39.535087 
" style="fill:none;stroke:#000000;stroke-linecap:square;stroke-width:0.4;"/>
   </g>
   <g id="line2d_12">
    <path clip-path="url(#p098a1469e3)" d="M 10.626793 51.956687 
L 10.036097 52.074679 
L 9.445402 52.192671 
L 8.874525 52.468231 
L 8.303648 52.743792 
L 7.909851 53.13759 
L 7.516054 53.531388 
L 7.29952 54.062843 
L 7.082987 54.594298 
L 7.023899 55.22408 
L 6.964811 55.853862 
L 6.984446 56.306656 
L 7.004081 56.75945 
" style="fill:none;stroke:#008000;stroke-linecap:square;stroke-width:0.4;"/>
   </g>
   <g id="line2d_13">
    <path clip-path="url(#p098a1469e3)" d="M 22.793761 42.153525 
L 22.419691 42.301138 
L 22.04562 42.44875 
L 21.67155 42.596363 
L 21.297479 42.743976 
L 20.874138 43.108153 
L 20.450798 43.47233 
L 20.027457 43.836507 
L 19.604116 44.200685 
L 19.262617 44.604684 
L 18.921118 45.008683 
L 18.57962 45.412683 
L 18.238121 45.816682 
L 17.861023 46.268985 
L 17.483925 46.721287 
L 17.106826 47.173589 
L 16.729728 47.625892 
L 16.520076 47.89334 
L 16.310424 48.160789 
L 16.100772 48.428237 
L 15.891121 48.695685 
L 15.681469 48.963134 
L 15.471817 49.230582 
L 15.262165 49.49803 
L 15.052513 49.765479 
L 14.812308 50.060766 
L 14.572103 50.356053 
L 14.331897 50.65134 
L 14.091692 50.946627 
L 13.851487 51.241914 
L 13.611282 51.537201 
L 13.371077 51.832488 
L 13.130872 52.127775 
L 12.839469 52.655789 
L 12.548067 53.183803 
L 12.256664 53.711817 
L 11.965262 54.239831 
L 11.768455 54.790951 
L 11.571649 55.342072 
L 11.374842 55.893193 
L 11.178035 56.444313 
L 11.10913 56.774076 
L 11.040225 57.103839 
L 10.971319 57.433602 
L 10.902414 57.763365 
L 10.833509 58.093128 
L 10.764603 58.42289 
L 10.695698 58.752653 
L 10.626793 59.082416 
" style="fill:none;stroke:#4169e1;stroke-linecap:square;stroke-width:0.4;"/>
   </g>
   <g id="line2d_14">
    <path clip-path="url(#p098a1469e3)" d="M 14.858367 22.900684 
L 14.508978 22.900684 
L 14.159588 22.900684 
L 13.810199 22.900684 
L 13.46081 22.900684 
L 12.953792 22.930182 
L 12.446773 22.95968 
L 11.939755 22.989178 
L 11.432737 23.018676 
L 10.930765 23.126958 
L 10.428793 23.23524 
L 9.926821 23.343522 
L 9.42485 23.451805 
" style="fill:none;stroke:#008000;stroke-linecap:square;stroke-width:0.4;"/>
   </g>
   <g id="line2d_15">
    <path clip-path="url(#p098a1469e3)" d="M 17.614946 27.211814 
L 17.206377 27.516995 
L 16.797808 27.822176 
L 16.389239 28.127358 
L 15.98067 28.432539 
L 15.751796 28.715535 
L 15.522922 28.998531 
L 15.294048 29.281528 
L 15.065175 29.564524 
L 14.836301 29.84752 
L 14.607427 30.130516 
L 14.378553 30.413513 
L 14.149679 30.696509 
L 13.94333 31.053557 
L 13.736981 31.410606 
L 13.530633 31.767654 
L 13.324284 32.124703 
L 13.117935 32.481751 
L 12.911586 32.8388 
L 12.705237 33.195848 
L 12.498888 33.552897 
L 12.402779 33.897347 
L 12.306669 34.241797 
L 12.210559 34.586248 
L 12.11445 34.930698 
L 12.01834 35.275149 
L 11.922231 35.619599 
L 11.826121 35.964049 
L 11.730011 36.3085 
L 11.722763 36.650676 
L 11.715515 36.992853 
L 11.708266 37.335029 
L 11.701018 37.677206 
L 11.69377 38.019383 
L 11.686521 38.361559 
L 11.679273 38.703736 
L 11.672025 39.045912 
L 11.692348 39.404927 
L 11.71267 39.763942 
L 11.732993 40.122957 
L 11.753316 40.481972 
L 11.773639 40.840987 
L 11.793962 41.200002 
L 11.814285 41.559017 
L 11.834608 41.918032 
L 11.887457 42.547691 
L 11.940306 43.17735 
L 11.993154 43.807009 
L 12.046003 44.436668 
L 12.17473 45.02798 
L 12.303458 45.619292 
L 12.432185 46.210603 
L 12.560912 46.801915 
L 12.700466 47.11404 
L 12.84002 47.426166 
L 12.979574 47.738291 
L 13.119128 48.050417 
L 13.258681 48.362542 
L 13.398235 48.674668 
L 13.537789 48.986794 
L 13.677343 49.298919 
" style="fill:none;stroke:#000000;stroke-linecap:square;stroke-width:0.4;"/>
   </g>
   <g id="line2d_16">
    <path clip-path="url(#p098a1469e3)" d="M 27.558227 43.295097 
L 27.558227 43.659274 
L 27.558227 44.023451 
L 27.558227 44.387628 
L 27.558227 44.751805 
L 27.558227 45.273428 
L 27.558227 45.79505 
L 27.558227 46.316673 
L 27.558227 46.838296 
L 27.577862 47.33042 
L 27.597497 47.822545 
L 27.617132 48.31467 
L 27.636766 48.806794 
L 27.656493 49.180804 
L 27.67622 49.554814 
L 27.695946 49.928824 
L 27.715673 50.302834 
L 27.782651 50.729079 
L 27.84963 51.155325 
" style="fill:none;stroke:#4169e1;stroke-linecap:square;stroke-width:0.4;"/>
   </g>
   <g id="line2d_17">
    <path clip-path="url(#p098a1469e3)" d="M 36.53555 26.404553 
L 36.407603 26.803205 
L 36.279656 27.201858 
L 36.151708 27.600511 
L 36.023761 27.999164 
L 35.895814 28.397817 
L 35.767866 28.79647 
L 35.639919 29.195123 
L 35.511972 29.593776 
L 35.216624 30.085901 
L 34.921276 30.578025 
L 34.625929 31.07015 
L 34.330581 31.562275 
L 33.946693 32.024901 
L 33.562805 32.487528 
L 33.178917 32.950155 
L 32.79503 33.412781 
L 32.499728 33.712985 
L 32.204426 34.013188 
L 31.909124 34.313391 
L 31.613822 34.613595 
L 31.31852 34.913798 
L 31.023218 35.214002 
L 30.727917 35.514205 
L 30.432615 35.814409 
L 30.078179 36.277035 
L 29.723744 36.739662 
L 29.369308 37.202289 
L 29.014872 37.664915 
L 28.877062 38.058713 
L 28.739251 38.452511 
L 28.601441 38.846309 
L 28.46363 39.240107 
L 28.37509 39.633783 
L 28.28655 40.027458 
L 28.19801 40.421133 
L 28.10947 40.814808 
" style="fill:none;stroke:#000000;stroke-linecap:square;stroke-width:0.4;"/>
   </g>
   <g id="line2d_18">
    <path clip-path="url(#p098a1469e3)" d="M 18.344186 47.074771 
L 18.22601 47.507654 
L 18.107834 47.940537 
L 18.020303 48.395298 
L 17.932772 48.850058 
L 17.912037 49.315635 
L 17.891301 49.781211 
L 17.892402 50.411239 
L 17.893503 51.041266 
L 17.816615 51.396471 
L 17.739728 51.751676 
L 17.451445 52.149407 
L 17.163162 52.547138 
L 16.985898 52.881695 
L 16.808634 53.216251 
" style="fill:none;stroke:#008000;stroke-linecap:square;stroke-width:0.4;"/>
   </g>
   <g id="line2d_19">
    <path clip-path="url(#p098a1469e3)" d="M 33.660429 17.388495 
L 35.057986 16.285762 
L 36.047433 14.957001 
L 37.519033 13.327852 
L 40.048894 10.015474 
L 40.865849 8.843913 
L 41.825844 6.407871 
L 42.460855 3.371054 
L 42.04724 3.272727 
L 41.39764 3.764852 
L 39.482972 6.028699 
L 38.405077 6.914745 
L 34.856225 8.799789 
L 33.837417 9.286997 
L 32.479038 9.788831 
L 30.451332 11.560677 
L 25.736045 13.544416 
L 21.889368 15.456438 
L 19.386665 16.487577 
L 16.970117 17.142309 
L 14.415437 17.622143 
L 8.570874 19.556043 
L 6.245205 20.360785 
L 4.207499 21.246831 
L 3.498811 21.896769 
L 2.839027 23.968511 
L 2.632311 25.105658 
L 2.849211 26.306226 
L 3.651393 27.443127 
L 5.13272 28.885333 
L 5.428159 30.637021 
L 5.782503 32.054399 
L 5.979401 32.979653 
L 5.5267 34.928732 
L 5.270714 35.853739 
L 5.447977 36.877811 
L 7.234377 39.481008 
L 8.400904 40.736147 
L 8.400904 40.736147 
" style="fill:none;stroke:#4169e1;stroke-linecap:square;stroke-width:0.4;"/>
   </g>
   <g id="line2d_20">
    <path clip-path="url(#p098a1469e3)" d="M 24.604934 43.846217 
L 24.329312 44.141566 
L 24.053691 44.436914 
L 23.77807 44.732263 
L 23.502449 45.027611 
L 23.148105 45.431119 
L 22.793761 45.834627 
L 22.439417 46.238135 
L 22.085073 46.641643 
L 21.706507 47.158349 
L 21.327941 47.675055 
L 20.949375 48.191761 
L 20.570808 48.708468 
L 20.386021 49.025878 
L 20.201234 49.343289 
L 20.016447 49.660699 
L 19.831659 49.97811 
L 19.646872 50.295521 
L 19.462085 50.612931 
L 19.277297 50.930342 
L 19.09251 51.247752 
L 18.787345 51.798996 
L 18.48218 52.350239 
L 18.177015 52.901483 
L 17.87185 53.452726 
L 17.48787 53.905398 
L 17.10389 54.358069 
L 16.719911 54.81074 
L 16.335931 55.263411 
L 16.104626 55.534055 
L 15.873321 55.804699 
L 15.642015 56.075343 
L 15.41071 56.345987 
L 15.179405 56.616631 
L 14.9481 56.887275 
L 14.716794 57.157919 
L 14.485489 57.428563 
L 14.170461 57.743515 
L 13.855432 58.058467 
L 13.540404 58.37342 
L 13.225376 58.688372 
L 12.910347 59.003325 
L 12.595319 59.318277 
L 12.28029 59.633229 
L 11.965262 59.948182 
" style="fill:none;stroke:#4169e1;stroke-linecap:square;stroke-width:0.4;"/>
   </g>
   <g id="line2d_21">
    <path clip-path="url(#p098a1469e3)" d="M 40.237168 27.546616 
L 40.670235 27.832009 
L 41.103301 28.117402 
L 41.536368 28.402795 
L 41.969435 28.688188 
L 42.373049 29.013034 
L 42.776663 29.337881 
L 43.180278 29.662727 
L 43.583892 29.987574 
L 44.036777 30.460033 
L 44.489662 30.932493 
L 44.72583 31.483613 
L 44.961998 32.034734 
L 45.153942 32.398972 
L 45.345886 32.763211 
L 45.53783 33.12745 
L 45.729773 33.491688 
L 45.921717 33.855927 
L 46.113661 34.220166 
L 46.305605 34.584404 
L 46.497549 34.948643 
L 46.674813 35.401314 
L 46.852076 35.853985 
L 47.02934 36.306656 
L 47.206604 36.759327 
L 47.088428 37.251452 
L 46.970252 37.743577 
L 46.584346 37.924743 
L 46.19844 38.10591 
L 45.84015 38.074446 
L 45.481861 38.042981 
L 45.123572 38.011517 
L 44.765283 37.980052 
L 44.341988 37.925911 
L 43.918693 37.87177 
L 43.495398 37.817629 
L 43.072103 37.763488 
L 42.648808 37.709347 
L 42.225513 37.655205 
L 41.802218 37.601064 
L 41.378923 37.546923 
L 40.82768 37.822729 
L 40.729139 38.157286 
L 40.630598 38.491842 
L 40.86695 38.924971 
L 41.103301 39.358099 
L 41.339561 39.663158 
L 41.575821 39.968216 
L 41.812081 40.273274 
L 42.048341 40.578333 
L 42.363231 41.149364 
L 42.678122 41.720396 
L 42.717575 42.17319 
L 42.757028 42.625984 
L 42.52086 42.881879 
L 42.284692 43.137774 
L 41.792354 43.19677 
L 41.300016 43.255766 
L 40.650325 43.186814 
L 40.000633 43.117863 
L 39.350942 43.048911 
L 38.70125 42.97996 
L 38.351815 42.945545 
L 38.00238 42.911131 
L 37.652945 42.876717 
L 37.303509 42.842303 
L 36.954074 42.807888 
L 36.604639 42.773474 
L 36.255204 42.73906 
L 35.905769 42.704645 
L 35.369252 42.640672 
L 34.832736 42.576698 
L 34.29622 42.512724 
L 33.759704 42.44875 
L 33.223187 42.384777 
L 32.686671 42.320803 
L 32.150155 42.256829 
L 31.613639 42.192855 
L 31.160937 42.212521 
L 30.708236 42.232186 
L 30.319394 42.301076 
L 29.930551 42.369966 
L 29.541709 42.438856 
L 29.152866 42.507746 
L 28.764024 42.576636 
L 28.375182 42.645526 
L 27.986339 42.714417 
L 27.597497 42.783307 
L 27.144612 42.901299 
L 26.691727 43.01929 
" style="fill:none;stroke:#4169e1;stroke-linecap:square;stroke-width:0.4;"/>
   </g>
   <g id="line2d_22">
    <path clip-path="url(#p098a1469e3)" d="M 31.80962 63.96384 
L 31.465093 64.067206 
L 31.120567 64.170572 
L 30.77604 64.273938 
L 30.431514 64.377304 
L 30.061664 64.521475 
L 29.691814 64.665647 
L 29.321964 64.809818 
L 28.952114 64.953989 
L 28.623094 65.188744 
L 28.294073 65.423499 
L 27.965053 65.658254 
L 27.636032 65.893008 
L 27.281597 66.134154 
L 26.927161 66.3753 
L 26.572726 66.616446 
L 26.21829 66.857592 
L 25.775314 67.231479 
L 25.332339 67.605366 
" style="fill:none;stroke:#008000;stroke-linecap:square;stroke-width:0.4;"/>
   </g>
   <g id="line2d_23">
    <path clip-path="url(#p098a1469e3)" d="M 38.66198 27.310141 
L 38.500785 27.769065 
L 38.339589 28.227989 
L 38.178393 28.686913 
L 38.017198 29.145837 
L 37.856002 29.604761 
L 37.694806 30.063685 
L 37.53361 30.522609 
L 37.372415 30.981533 
L 37.211219 31.440457 
L 37.050023 31.899381 
L 36.888827 32.358305 
L 36.727632 32.817229 
L 36.566436 33.276153 
L 36.40524 33.735077 
L 36.244045 34.194001 
L 36.082849 34.652926 
L 35.921653 35.11185 
L 35.760457 35.570774 
L 35.599262 36.029698 
L 35.438066 36.488622 
L 35.27687 36.947546 
L 35.115675 37.40647 
L 34.954479 37.865394 
L 34.793283 38.324318 
L 34.632087 38.783242 
L 34.470892 39.242166 
L 34.309696 39.70109 
L 34.1485 40.160014 
L 33.987304 40.618938 
L 33.826109 41.077862 
L 33.664913 41.536786 
L 33.503717 41.995711 
" style="fill:none;stroke:#000000;stroke-linecap:square;stroke-width:0.4;"/>
   </g>
   <g id="line2d_24">
    <path clip-path="url(#p098a1469e3)" d="M 39.409938 24.554046 
L 39.685559 24.357147 
L 39.96118 24.160248 
L 40.335342 24.160248 
L 40.709504 24.160248 
L 41.122936 24.357147 
L 41.536368 24.554046 
L 41.930165 24.829852 
L 42.323962 25.105658 
L 42.717713 25.632259 
L 43.111464 26.158859 
L 43.505215 26.685459 
L 43.898966 27.21206 
L 44.292717 27.73866 
L 44.686468 28.265261 
L 45.08022 28.791861 
L 45.473971 29.318461 
L 45.838224 29.800753 
L 46.202477 30.283045 
L 46.56673 30.765337 
L 46.930983 31.247629 
L 47.285327 31.700423 
L 47.63967 32.153217 
L 47.994014 32.606011 
L 48.348358 33.058805 
L 48.589527 33.295035 
L 48.830695 33.531265 
L 49.071864 33.767494 
L 49.313032 34.003724 
L 49.554201 34.239954 
L 49.795369 34.476183 
L 50.036538 34.712413 
L 50.277706 34.948643 
L 50.651777 35.361983 
L 51.025847 35.775324 
L 51.399918 36.188664 
L 51.773988 36.602005 
L 52.157876 37.113795 
L 52.541764 37.625585 
L 52.925651 38.137375 
L 53.309539 38.649165 
L 53.49662 39.003509 
L 53.683701 39.357854 
L 53.870783 39.712198 
L 54.057864 40.066543 
L 54.077498 40.460341 
L 54.097133 40.854139 
L 54.116768 41.247937 
L 54.136403 41.641735 
L 54.077407 42.025577 
L 54.018411 42.40942 
L 53.959414 42.793262 
L 53.900418 43.177105 
L 53.644432 43.787221 
L 53.388446 44.397338 
" style="fill:none;stroke:#008000;stroke-linecap:square;stroke-width:0.4;"/>
   </g>
   <g id="line2d_25">
    <path clip-path="url(#p098a1469e3)" d="M 27.794212 51.996018 
L 27.430051 52.261745 
L 27.065889 52.527473 
L 26.701728 52.793201 
L 26.337567 53.058928 
L 25.933952 53.354154 
L 25.530338 53.64938 
L 25.126724 53.944605 
L 24.723109 54.239831 
L 24.3884 54.485893 
L 24.053691 54.731956 
L 23.718982 54.978018 
L 23.384273 55.22408 
L 22.970841 55.519306 
L 22.557409 55.814531 
L 22.183431 55.913104 
L 21.809452 56.011676 
L 21.336933 55.932769 
L 20.864413 55.853862 
L 20.254083 55.73587 
L 19.643752 55.617878 
L 19.072692 55.558882 
L 18.501631 55.499886 
L 18.068564 55.499886 
L 17.635498 55.499886 
" style="fill:none;stroke:#008000;stroke-linecap:square;stroke-width:0.4;"/>
   </g>
   <g id="line2d_26">
    <path clip-path="url(#p098a1469e3)" d="M 50.120261 41.95638 
L 49.815096 42.271394 
L 49.509931 42.586408 
L 49.204766 42.901421 
L 48.899601 43.216435 
L 48.604299 43.580612 
L 48.308997 43.94479 
L 48.013695 44.308967 
L 47.718393 44.673144 
L 47.423091 45.037321 
L 47.127789 45.401498 
L 46.832488 45.765675 
L 46.537186 46.129853 
L 46.163115 46.582585 
L 45.789045 47.035318 
L 45.414974 47.48805 
L 45.040904 47.940783 
L 44.666834 48.393515 
L 44.292763 48.846248 
L 43.918693 49.29898 
L 43.544622 49.751713 
L 43.310817 50.017471 
L 43.077011 50.28323 
L 42.843206 50.548988 
L 42.6094 50.814747 
L 42.375595 51.080505 
L 42.14179 51.346263 
L 41.907984 51.612022 
L 41.674179 51.87778 
L 41.440373 52.143538 
L 41.206568 52.409297 
L 40.972762 52.675055 
L 40.738957 52.940814 
L 40.505151 53.206572 
L 40.271346 53.47233 
L 40.03754 53.738089 
L 39.803735 54.003847 
L 39.537977 54.313883 
L 39.272219 54.623919 
L 39.006461 54.933955 
L 38.740703 55.243991 
L 38.474945 55.554027 
L 38.209187 55.864063 
L 37.943429 56.1741 
L 37.677672 56.484136 
L 37.431571 56.732625 
L 37.185471 56.981115 
L 36.939371 57.229605 
L 36.693271 57.478095 
L 36.447171 57.726584 
L 36.201071 57.975074 
L 35.95497 58.223564 
L 35.70887 58.472054 
L 35.46277 58.720544 
L 35.21667 58.969033 
L 34.97057 59.217523 
L 34.72447 59.466013 
L 34.478369 59.714503 
L 34.232269 59.962992 
L 33.986169 60.211482 
L 33.740069 60.459972 
L 33.538262 60.774924 
L 33.336455 61.089877 
L 33.134647 61.404829 
L 32.93284 61.719781 
L 32.731033 62.034734 
L 32.529226 62.349686 
L 32.327419 62.664639 
L 32.125611 62.979591 
" style="fill:none;stroke:#000000;stroke-linecap:square;stroke-width:0.4;"/>
   </g>
   <g id="line2d_27">
    <path clip-path="url(#p098a1469e3)" d="M 33.307002 42.743976 
L 33.009544 43.174892 
L 32.712086 43.605809 
L 32.414628 44.036725 
L 32.11717 44.467641 
L 31.835952 44.862791 
L 31.554734 45.257941 
L 31.273516 45.653091 
L 30.992298 46.048241 
L 30.814025 46.42262 
L 30.635752 46.796999 
L 30.457479 47.171377 
L 30.279206 47.545756 
L 30.100934 47.920134 
L 29.922661 48.294513 
L 29.744388 48.668891 
L 29.566115 49.04327 
L 29.379125 49.604223 
L 29.192136 50.165176 
L 29.005147 50.72613 
L 28.818157 51.287083 
L 28.596669 51.912071 
L 28.375182 52.53706 
L 28.153694 53.162048 
L 27.932206 53.787037 
L 27.710718 54.412025 
L 27.48923 55.037014 
L 27.267742 55.662002 
L 27.046254 56.286991 
L 26.883809 56.754472 
L 26.721363 57.221954 
L 26.558917 57.689435 
L 26.396471 58.156917 
L 26.234025 58.624399 
L 26.071579 59.09188 
L 25.909134 59.559362 
L 25.746688 60.026843 
L 25.667965 60.666581 
L 25.589242 61.306318 
L 25.51052 61.946056 
L 25.431797 62.585793 
L 25.490885 63.137037 
L 25.549973 63.68828 
L 25.609061 64.239524 
L 25.668149 64.790767 
" style="fill:none;stroke:#4169e1;stroke-linecap:square;stroke-width:0.4;"/>
   </g>
   <g id="line2d_28">
    <path clip-path="url(#p098a1469e3)" d="M 32.754659 22.506886 
L 32.395361 22.536384 
L 32.036062 22.565882 
L 31.676764 22.59538 
L 31.317465 22.624878 
L 30.933577 22.811944 
L 30.54969 22.999011 
L 30.165802 23.186077 
L 29.781914 23.373143 
L 29.548131 23.614289 
L 29.314349 23.855435 
L 29.080566 24.096581 
L 28.846784 24.337727 
L 28.613001 24.578873 
L 28.379219 24.820019 
L 28.145436 25.061165 
L 27.911654 25.302311 
L 27.562173 25.787061 
L 27.212692 26.271812 
L 26.86321 26.756562 
L 26.513729 27.241312 
L 26.164248 27.726062 
L 25.814767 28.210812 
L 25.465286 28.695562 
L 25.115805 29.180313 
L 24.900476 29.497139 
L 24.685147 29.813966 
L 24.469818 30.130793 
L 24.254489 30.44762 
L 24.03916 30.764446 
L 23.823831 31.081273 
L 23.608502 31.3981 
L 23.393173 31.714927 
L 23.177844 32.031753 
L 22.962515 32.34858 
L 22.747186 32.665407 
L 22.531857 32.982234 
L 22.316528 33.29906 
L 22.101199 33.615887 
L 21.88587 33.932714 
L 21.670541 34.249541 
L 21.455212 34.566367 
L 21.239882 34.883194 
L 21.024553 35.200021 
L 20.809224 35.516848 
L 20.593895 35.833674 
L 20.378566 36.150501 
L 20.163237 36.467328 
L 19.947908 36.784155 
L 19.732579 37.100981 
L 19.51725 37.417808 
L 19.301921 37.734635 
L 19.086592 38.051462 
L 18.871263 38.368288 
L 18.655934 38.685115 
L 18.440605 39.001942 
L 18.225276 39.318769 
L 18.087465 39.663158 
L 17.949655 40.007547 
L 17.949655 40.617909 
L 17.949655 41.228271 
L 17.979107 41.680942 
L 18.008559 42.133614 
L 18.038011 42.586285 
L 18.067463 43.038956 
" style="fill:none;stroke:#4169e1;stroke-linecap:square;stroke-width:0.4;"/>
   </g>
   <g id="line2d_29">
    <path clip-path="url(#p098a1469e3)" d="M 45.51324 31.444283 
L 45.847949 31.857746 
L 46.182658 32.271209 
L 46.517367 32.684673 
L 46.852076 33.098136 
L 47.088336 33.432815 
L 47.324596 33.767494 
L 47.560856 34.102174 
L 47.797116 34.436853 
L 48.072737 34.987973 
L 48.348358 35.539094 
L 48.623979 36.090215 
L 48.899601 36.641335 
L 49.057138 37.13346 
L 49.214675 37.625585 
L 49.372212 38.117709 
L 49.529749 38.609834 
L 49.736465 39.101959 
L 49.943181 39.594083 
L 50.149897 40.086208 
L 50.356613 40.578333 
L 50.563328 41.070457 
L 50.770044 41.562582 
L 50.97676 42.054706 
L 51.183476 42.546831 
L 51.547637 43.01929 
L 51.911799 43.49175 
L 52.27596 43.964209 
L 52.640121 44.436668 
" style="fill:none;stroke:#008000;stroke-linecap:square;stroke-width:0.4;"/>
   </g>
   <g id="line2d_30">
    <path clip-path="url(#p098a1469e3)" d="M 37.847962 43.574836 
L 37.421502 43.780461 
L 36.995041 43.986087 
L 36.568581 44.191712 
L 36.14212 44.397338 
L 35.807411 44.554906 
L 35.472702 44.712475 
L 35.137993 44.870043 
L 34.803284 45.027611 
L 34.31113 45.303172 
L 33.818975 45.578732 
L 33.464448 45.99195 
L 33.10992 46.405167 
L 32.913114 46.857961 
L 32.716307 47.310755 
L 32.5195 47.763549 
L 32.322693 48.216343 
L 32.174974 48.649472 
L 32.027254 49.0826 
L 31.879534 49.515729 
L 31.731814 49.948858 
L 31.554643 50.283414 
L 31.377471 50.61797 
L 31.200299 50.952527 
L 31.023127 51.287083 
L 30.717962 51.552811 
L 30.412796 51.818538 
L 30.107631 52.084266 
L 29.802466 52.349994 
" style="fill:none;stroke:#4169e1;stroke-linecap:square;stroke-width:0.4;"/>
   </g>
   <g id="line2d_31">
    <path clip-path="url(#p098a1469e3)" d="M 32.636483 20.951359 
L 32.287002 21.005562 
L 31.937521 21.059764 
L 31.58804 21.113967 
L 31.238559 21.168169 
L 30.874489 21.246831 
L 30.51042 21.325492 
L 30.087079 21.640629 
L 29.663738 21.955765 
L 29.225717 22.315026 
L 28.787696 22.674287 
L 28.349675 23.033548 
L 27.911654 23.392809 
L 27.692597 23.648704 
L 27.473541 23.904599 
L 27.254484 24.160494 
L 27.035428 24.416389 
L 26.816371 24.672284 
L 26.597315 24.928179 
L 26.378258 25.184074 
L 26.159202 25.439969 
L 25.834402 25.651617 
L 25.509602 25.863265 
L 25.184802 26.074913 
L 24.860002 26.286561 
L 24.466205 26.493292 
L 24.072408 26.700024 
L 23.678611 26.906756 
L 23.284815 27.113487 
L 22.900927 27.226686 
L 22.517039 27.339884 
L 22.133151 27.453083 
L 21.749263 27.566281 
L 21.138933 27.802265 
L 20.942035 28.196063 
L 20.745136 28.589861 
L 20.577782 29.141105 
L 20.410427 29.692348 
L 20.243072 30.243592 
L 20.075718 30.794835 
L 19.952679 31.117162 
L 19.829641 31.439489 
L 19.706602 31.761816 
L 19.583563 32.084143 
L 19.460525 32.40647 
L 19.337486 32.728797 
L 19.214448 33.051124 
L 19.091409 33.373451 
L 18.926532 33.686006 
L 18.761654 33.998562 
L 18.596777 34.311118 
L 18.4319 34.623673 
L 18.267023 34.936229 
L 18.102146 35.248785 
L 17.937268 35.56134 
L 17.772391 35.873896 
L 17.427865 36.346355 
L 17.083338 36.818815 
L 16.738812 37.291274 
L 16.394285 37.763733 
L 16.098937 38.152492 
L 15.80359 38.541251 
L 15.508242 38.93001 
L 15.212894 39.318769 
L 15.015996 39.737025 
L 14.819097 40.155282 
L 14.622199 40.573539 
L 14.4253 40.991796 
L 14.356395 41.488837 
L 14.28749 41.985878 
L 14.218584 42.482919 
L 14.149679 42.97996 
L 14.115272 43.39834 
L 14.080866 43.816719 
L 14.046459 44.235099 
L 14.012052 44.653479 
L 13.977554 45.081568 
L 13.943055 45.509658 
L 13.908556 45.937747 
L 13.874058 46.365836 
L 13.859286 46.936745 
L 13.844514 47.507654 
L 13.829742 48.078563 
L 13.81497 48.649472 
" style="fill:none;stroke:#4169e1;stroke-linecap:square;stroke-width:0.4;"/>
   </g>
   <g id="line2d_32">
    <path clip-path="url(#p098a1469e3)" d="M 30.786041 28.255059 
L 30.431514 28.078071 
L 29.978629 28.097737 
L 29.745454 28.410861 
L 29.51228 28.723985 
L 29.279105 29.037109 
L 29.04593 29.350233 
L 28.812755 29.663357 
L 28.579581 29.976482 
L 28.346406 30.289606 
L 28.113231 30.60273 
L 27.880057 30.915854 
L 27.646882 31.228978 
L 27.413707 31.542102 
L 27.180533 31.855226 
L 26.947358 32.168351 
L 26.714183 32.481475 
L 26.481009 32.794599 
L 26.247834 33.107723 
L 26.014659 33.420847 
L 25.781485 33.733971 
L 25.54831 34.047095 
L 25.315135 34.36022 
L 25.08196 34.673344 
L 24.848786 34.986468 
L 24.615611 35.299592 
L 24.382436 35.612716 
L 24.149262 35.92584 
L 23.916087 36.238964 
L 23.682912 36.552089 
L 23.449738 36.865213 
L 23.216563 37.178337 
L 22.983388 37.491461 
L 22.750214 37.804585 
L 22.517039 38.117709 
L 22.257405 38.469596 
L 21.997772 38.821482 
L 21.738138 39.173368 
L 21.478505 39.525255 
L 21.218871 39.877141 
L 20.959238 40.229027 
L 20.699604 40.580914 
L 20.439971 40.9328 
L 20.180337 41.284686 
L 19.920704 41.636573 
L 19.66107 41.988459 
L 19.401437 42.340345 
L 19.141803 42.692232 
L 18.88217 43.044118 
L 18.622536 43.396004 
L 18.362903 43.747891 
" style="fill:none;stroke:#4169e1;stroke-linecap:square;stroke-width:0.4;"/>
   </g>
   <g id="line2d_33">
    <path clip-path="url(#p098a1469e3)" d="M 33.128638 20.597383 
L 33.246813 20.090387 
L 33.364989 19.58339 
L 33.483165 19.076394 
L 33.601341 18.569397 
L 33.463347 17.95928 
L 33.148456 17.762381 
L 32.833565 17.565482 
L 32.370771 17.55565 
L 31.907977 17.545817 
L 31.58804 17.732883 
L 31.268103 17.91995 
L 30.948166 18.107016 
L 30.628229 18.294083 
L 30.315724 18.530312 
L 30.003218 18.766542 
L 29.690713 19.002772 
L 29.378208 19.239001 
L 29.065703 19.475231 
L 28.753197 19.711461 
L 28.440692 19.94769 
L 28.128187 20.18392 
L 27.724573 20.64163 
L 27.320958 21.099341 
L 26.917344 21.557051 
L 26.513729 22.014761 
L 26.144614 22.295238 
L 25.775498 22.575715 
L 25.406382 22.856191 
L 25.037266 23.136668 
L 24.490887 23.436933 
L 23.944507 23.737198 
L 23.398127 24.037462 
L 22.851748 24.337727 
L 22.482173 24.553308 
L 22.112599 24.768889 
L 21.742841 24.874591 
L 21.373083 24.980292 
L 21.023143 24.942436 
L 20.673203 24.90458 
L 20.299224 24.833785 
L 19.925246 24.76299 
L 19.506859 24.600997 
L 19.088473 24.439004 
L 18.662746 24.307492 
L 18.23702 24.17598 
L 17.805422 24.086503 
L 17.373823 23.997026 
L 16.967181 23.942946 
L 16.560539 23.888866 
L 15.997919 23.891816 
L 15.4353 23.894766 
L 14.958926 23.913448 
L 14.482553 23.93213 
L 14.010951 23.987193 
L 13.539349 24.042256 
L 13.182528 24.098855 
L 12.825707 24.155454 
L 12.468885 24.212054 
L 12.112064 24.268653 
L 11.755243 24.325252 
L 11.398422 24.381851 
L 11.041601 24.438451 
L 10.68478 24.49505 
L 10.143355 24.598416 
L 9.60193 24.701782 
L 9.060505 24.805147 
L 8.51908 24.908513 
L 7.928384 25.09558 
L 7.337689 25.282646 
L 7.032524 25.538541 
L 6.727359 25.794436 
L 6.619092 26.188234 
L 6.510825 26.582032 
L 6.491191 27.152818 
L 6.471556 27.723604 
L 6.555233 28.348715 
L 6.63891 28.973827 
L 6.722588 29.598938 
L 6.806265 30.224049 
L 6.914532 30.735839 
L 7.022798 31.247629 
L 7.214742 31.754503 
L 7.406686 32.261377 
L 7.59863 32.76825 
L 7.790574 33.275124 
L 7.982518 33.781998 
L 8.174462 34.288871 
L 8.366406 34.795745 
L 8.558349 35.302619 
L 8.587893 35.657086 
L 8.617437 36.011553 
L 8.597757 36.461828 
L 8.578076 36.912102 
L 8.558395 37.362377 
L 8.538715 37.812651 
L 8.519034 38.262925 
L 8.499353 38.7132 
L 8.479673 39.163474 
L 8.459992 39.613749 
L 8.499445 39.978049 
L 8.538898 40.342349 
L 8.637302 40.748376 
L 8.735705 41.154403 
L 8.834108 41.560431 
L 8.932512 41.966458 
L 9.030915 42.372486 
L 9.129318 42.778513 
L 9.227722 43.184541 
L 9.326125 43.590568 
L 9.567339 44.146666 
L 9.808554 44.702765 
L 10.049768 45.258863 
L 10.290983 45.814962 
L 10.532197 46.37106 
L 10.773411 46.927158 
L 11.014626 47.483257 
L 11.25584 48.039355 
L 11.437921 48.339559 
L 11.620002 48.639762 
L 11.802082 48.939965 
L 11.984163 49.240169 
L 12.166243 49.540372 
L 12.348324 49.840576 
L 12.530405 50.140779 
L 12.712485 50.440983 
" style="fill:none;stroke:#4169e1;stroke-linecap:square;stroke-width:0.4;"/>
   </g>
   <g id="line2d_34">
    <path clip-path="url(#p098a1469e3)" d="M 49.293397 40.185026 
L 48.879966 40.421256 
L 48.466534 40.657485 
L 48.053102 40.893715 
L 47.63967 41.129945 
L 47.196695 41.464501 
L 46.753719 41.799057 
L 46.310743 42.133614 
L 45.867768 42.46817 
L 45.611827 42.699483 
L 45.355887 42.930797 
L 45.099946 43.16211 
L 44.844006 43.393423 
L 44.588065 43.624737 
L 44.332125 43.85605 
L 44.076184 44.087363 
L 43.820244 44.318677 
L 43.613528 44.594298 
L 43.406812 44.86992 
L 43.200096 45.145542 
L 42.99338 45.421164 
L 42.786664 45.696785 
L 42.579948 45.972407 
L 42.373232 46.248029 
L 42.166517 46.523651 
L 41.915485 46.902577 
L 41.664453 47.281503 
L 41.413421 47.660429 
L 41.162389 48.039355 
L 40.911358 48.418281 
L 40.660326 48.797208 
L 40.409294 49.176134 
L 40.158262 49.55506 
L 39.808781 49.978294 
L 39.4593 50.401529 
L 39.109819 50.824764 
L 38.760338 51.247998 
L 38.410857 51.671233 
L 38.061376 52.094467 
L 37.711895 52.517702 
L 37.362414 52.940936 
L 37.042523 53.28047 
L 36.722631 53.620005 
L 36.40274 53.959539 
L 36.082849 54.299073 
L 35.762958 54.638607 
L 35.443066 54.978141 
L 35.123175 55.317675 
L 34.803284 55.657209 
L 34.611294 55.942602 
L 34.419304 56.227995 
L 34.227315 56.513388 
L 34.035325 56.798781 
L 33.843335 57.084174 
L 33.651345 57.369567 
L 33.459356 57.65496 
L 33.267366 57.940353 
L 33.06065 58.225807 
L 32.853934 58.511261 
L 32.647218 58.796716 
L 32.440502 59.08217 
L 32.233786 59.367625 
L 32.02707 59.653079 
L 31.820355 59.938534 
L 31.613639 60.223988 
L 31.219933 60.70628 
L 30.826228 61.188572 
L 30.432523 61.670864 
L 30.038818 62.153156 
L 29.871463 62.507378 
L 29.704109 62.861599 
L 29.536754 63.215821 
L 29.3694 63.570042 
" style="fill:none;stroke:#4169e1;stroke-linecap:square;stroke-width:0.4;"/>
   </g>
   <g id="line2d_35">
    <path clip-path="url(#p098a1469e3)" d="M 51.0653 43.964209 
L 50.80936 44.308721 
L 50.553419 44.653233 
L 50.297479 44.997745 
L 50.041538 45.342256 
L 49.785598 45.686768 
L 49.529657 46.03128 
L 49.273717 46.375792 
L 49.017776 46.720304 
L 48.732292 47.113979 
L 48.446807 47.507654 
L 48.161323 47.901329 
L 47.875839 48.295004 
L 47.590354 48.68868 
L 47.30487 49.082355 
L 47.019385 49.47603 
L 46.733901 49.869705 
L 46.497641 50.204384 
L 46.261381 50.539063 
L 46.025121 50.873742 
L 45.788861 51.208422 
L 45.552602 51.543101 
L 45.316342 51.87778 
L 45.080082 52.212459 
L 44.843822 52.547138 
L 44.499296 52.891589 
L 44.154769 53.236039 
L 43.810243 53.58049 
L 43.465716 53.92494 
L 43.12119 54.26939 
L 42.776663 54.613841 
L 42.432137 54.958291 
L 42.08761 55.302741 
L 41.762765 55.681668 
L 41.437919 56.060594 
L 41.113073 56.43952 
L 40.788227 56.818446 
L 40.463381 57.197372 
L 40.138536 57.576298 
L 39.81369 57.955225 
L 39.488844 58.334151 
" style="fill:none;stroke:#000000;stroke-linecap:square;stroke-width:0.4;"/>
   </g>
   <g id="line2d_36">
    <path clip-path="url(#p098a1469e3)" d="M 34.291311 24.829852 
L 33.976329 25.381095 
L 33.661346 25.932339 
L 33.346364 26.483583 
L 33.031381 27.034826 
L 32.819711 27.339946 
L 32.60804 27.645066 
L 32.39637 27.950185 
L 32.184699 28.255305 
L 31.973029 28.560425 
L 31.761358 28.865545 
L 31.549688 29.170664 
L 31.338017 29.475784 
L 31.005786 29.918715 
L 30.673554 30.361645 
L 30.341322 30.804576 
L 30.00909 31.247506 
L 29.676859 31.690437 
L 29.344627 32.133368 
L 29.012395 32.576298 
L 28.680163 33.019229 
L 28.347931 33.46216 
L 28.0157 33.90509 
L 27.683468 34.348021 
L 27.351236 34.790951 
L 27.019004 35.233882 
L 26.686773 35.676813 
L 26.354541 36.119743 
L 26.022309 36.562674 
L 25.830365 36.860419 
L 25.638421 37.158164 
L 25.446477 37.45591 
L 25.254533 37.753655 
L 25.062589 38.0514 
L 24.870646 38.349145 
L 24.678702 38.646891 
L 24.486758 38.944636 
L 24.294814 39.242381 
L 24.10287 39.540126 
L 23.910926 39.837872 
L 23.718982 40.135617 
L 23.527038 40.433362 
L 23.335094 40.731107 
L 23.14315 41.028853 
L 22.951206 41.326598 
" style="fill:none;stroke:#4169e1;stroke-linecap:square;stroke-width:0.4;"/>
   </g>
   <g id="line2d_37">
    <path clip-path="url(#p098a1469e3)" d="M 21.158751 25.51863 
L 20.784406 25.991089 
L 20.430245 26.503371 
L 20.114987 27.015161 
L 19.701739 27.48762 
L 19.327761 27.566281 
L 18.953415 27.448289 
L 18.599255 27.172483 
L 18.1071 26.798351 
L 17.851114 26.52279 
L 17.595127 26.24723 
L 17.299871 25.961837 
L 17.004615 25.676444 
L 16.610818 25.380973 
L 16.286018 25.203739 
L 15.961219 25.026505 
L 15.546686 24.833048 
L 15.132153 24.63959 
" style="fill:none;stroke:#008000;stroke-linecap:square;stroke-width:0.4;"/>
   </g>
  </g>
 </g>
 <defs>
  <clipPath id="p098a1469e3">
   <rect height="72" width="57.910835" x="0" y="0"/>
  </clipPath>
 </defs>
</svg>
