<?xml version="1.0" encoding="utf-8" standalone="no"?>
<!DOCTYPE svg PUBLIC "-//W3C//DTD SVG 1.1//EN"
  "http://www.w3.org/Graphics/SVG/1.1/DTD/svg11.dtd">
<svg xmlns:xlink="http://www.w3.org/1999/xlink" width="72pt" height="122.88293pt" viewBox="0 0 72 122.88293" xmlns="http://www.w3.org/2000/svg" version="1.1">
 <metadata>
  <rdf:RDF xmlns:dc="http://purl.org/dc/elements/1.1/" xmlns:cc="http://creativecommons.org/ns#" xmlns:rdf="http://www.w3.org/1999/02/22-rdf-syntax-ns#">
   <cc:Work>
    <dc:type rdf:resource="http://purl.org/dc/dcmitype/StillImage"/>
    <dc:date>2022-05-17T22:52:36.783551</dc:date>
    <dc:format>image/svg+xml</dc:format>
    <dc:creator>
     <cc:Agent>
      <dc:title>Matplotlib v3.5.2, https://matplotlib.org/</dc:title>
     </cc:Agent>
    </dc:creator>
   </cc:Work>
  </rdf:RDF>
 </metadata>
 <defs>
  <style type="text/css">*{stroke-linejoin: round; stroke-linecap: butt}</style>
 </defs>
 <g id="figure_1">
  <g id="patch_1">
   <path d="M 0 122.88293 
L 72 122.88293 
L 72 0 
L 0 0 
z
" style="fill: #ffffff"/>
  </g>
  <g id="axes_1">
   <g id="line2d_1">
    <path d="M 66.768431 117.297342 
L 66.19325 112.211208 
L 65.618069 107.125074 
L 65.042888 102.038941 
L 64.467707 96.952807 
L 63.892525 91.866673 
L 63.317344 86.780539 
L 62.742163 81.694405 
L 62.166982 76.608271 
L 61.591801 71.522137 
L 61.016619 66.436004 
L 60.441438 61.34987 
L 59.866257 56.263736 
L 59.291076 51.177602 
L 58.715895 46.091468 
L 58.140713 41.005334 
L 57.565532 35.919201 
" clip-path="url(#p2e0bd5a80b)" style="fill: none; stroke: #808080; stroke-width: 0.4; stroke-linecap: square"/>
   </g>
   <g id="line2d_2">
    <path d="M 38.058826 110.495456 
L 36.220262 104.940306 
L 34.381698 99.385156 
L 32.543134 93.830005 
L 30.70457 88.274855 
L 28.866006 82.719705 
L 27.027442 77.164555 
L 25.188878 71.609405 
L 23.350314 66.054254 
L 21.51175 60.499104 
L 19.673186 54.943954 
L 17.834622 49.388804 
L 15.996058 43.833653 
L 14.157494 38.278503 
L 12.31893 32.723353 
L 10.480366 27.168203 
L 8.641802 21.613052 
" clip-path="url(#p2e0bd5a80b)" style="fill: none; stroke: #808080; stroke-width: 0.4; stroke-linecap: square"/>
   </g>
   <g id="line2d_3">
    <path d="M 65.411649 74.722313 
L 65.366494 68.271969 
L 65.32134 61.821624 
L 65.276186 55.37128 
L 65.231031 48.920935 
" clip-path="url(#p2e0bd5a80b)" style="fill: none; stroke: #808080; stroke-width: 0.4; stroke-linecap: square"/>
   </g>
   <g id="line2d_4">
    <path d="M 60.749993 46.275365 
L 60.574079 47.755637 
L 60.398165 49.23591 
L 60.222251 50.716182 
L 60.046337 52.196454 
L 59.870423 53.676726 
L 59.694509 55.156999 
L 59.518595 56.637271 
L 59.342681 58.117543 
L 59.166767 59.597815 
L 58.990853 61.078088 
L 58.814939 62.55836 
L 58.639025 64.038632 
L 58.46311 65.518904 
L 58.287196 66.999177 
L 58.111282 68.479449 
L 57.935368 69.959721 
L 57.121783 72.112868 
L 56.308197 74.266016 
L 55.494611 76.419163 
L 54.681025 78.572311 
L 53.86744 80.725458 
L 53.053854 82.878605 
L 52.240268 85.031753 
L 51.426682 87.1849 
L 50.613097 89.338047 
L 49.799511 91.491195 
L 48.985925 93.644342 
L 48.172339 95.797489 
L 47.358754 97.950637 
L 46.545168 100.103784 
L 45.731582 102.256932 
L 44.917996 104.410079 
" clip-path="url(#p2e0bd5a80b)" style="fill: none; stroke: #008000; stroke-width: 0.4; stroke-linecap: square"/>
   </g>
   <g id="line2d_5">
    <path d="M 63.014165 47.627828 
L 62.961216 49.915498 
L 62.908267 52.203167 
L 62.855318 54.490836 
L 62.802369 56.778506 
L 62.74942 59.066175 
L 62.696471 61.353844 
L 62.643522 63.641514 
L 62.590573 65.929183 
L 62.74055 67.552545 
L 62.890527 69.175907 
L 63.040505 70.799269 
L 63.190482 72.422631 
L 63.340459 74.045993 
L 63.490436 75.669355 
L 63.640413 77.292717 
L 63.79039 78.916079 
L 63.940368 80.539441 
L 64.090345 82.162803 
L 64.240322 83.786165 
L 64.390299 85.409527 
L 64.540276 87.032889 
L 64.690253 88.656251 
L 64.84023 90.279613 
L 64.990208 91.902975 
L 64.752878 94.2099 
L 64.515549 96.516825 
L 64.278219 98.823749 
L 64.04089 101.130674 
L 63.80356 103.437599 
L 63.566231 105.744523 
L 63.328902 108.051448 
L 63.091572 110.358373 
" clip-path="url(#p2e0bd5a80b)" style="fill: none; stroke: #008000; stroke-width: 0.4; stroke-linecap: square"/>
   </g>
   <g id="line2d_6">
    <path d="M 68.129514 50.402003 
L 68.173862 52.71564 
L 68.21821 55.029278 
L 68.262559 57.342915 
L 68.306907 59.656553 
L 68.351255 61.97019 
L 68.395603 64.283828 
L 68.439951 66.597465 
L 68.484299 68.911103 
L 68.514671 70.488976 
L 68.545042 72.06685 
L 68.575414 73.644724 
L 68.605786 75.222597 
L 68.636158 76.800471 
L 68.666529 78.378344 
L 68.696901 79.956218 
L 68.727273 81.534092 
" clip-path="url(#p2e0bd5a80b)" style="fill: none; stroke: #008000; stroke-width: 0.4; stroke-linecap: square"/>
   </g>
   <g id="line2d_7">
    <path d="M 9.02884 17.571209 
L 9.201932 15.273293 
L 9.375024 12.975378 
L 10.546888 10.94951 
L 11.718753 8.923642 
L 13.988299 7.923074 
L 16.257846 6.922505 
L 17.82965 6.588276 
L 19.401453 6.254046 
L 20.973257 5.919817 
L 22.54506 5.585588 
L 24.122777 5.83573 
L 25.700494 6.085872 
L 27.27821 6.336014 
L 28.855927 6.586156 
L 30.446007 7.483558 
L 32.036088 8.380961 
L 33.626168 9.278363 
L 35.216248 10.175765 
L 36.516588 11.519396 
L 37.816928 12.863026 
L 39.117267 14.206657 
L 40.417607 15.550287 
L 41.175018 16.954333 
L 41.93243 18.358379 
L 42.689841 19.762425 
L 43.447253 21.166471 
L 46.197371 21.998865 
L 48.94749 22.831258 
L 49.889282 23.97739 
L 50.831074 25.123521 
L 51.772866 26.269652 
L 52.714658 27.415783 
L 53.419927 28.930061 
L 54.125196 30.44434 
L 54.830465 31.958618 
L 55.535734 33.472896 
" clip-path="url(#p2e0bd5a80b)" style="fill: none; stroke: #008000; stroke-width: 0.4; stroke-linecap: square"/>
   </g>
   <g id="line2d_8">
    <path d="M 14.000125 23.375353 
L 16.050888 23.524272 
L 18.101651 23.673191 
L 20.152414 23.822111 
L 22.203177 23.97103 
L 24.25394 24.119949 
L 26.304703 24.268869 
L 28.355466 24.417788 
L 30.406228 24.566707 
L 31.895518 24.171356 
L 33.384807 23.776004 
L 34.874096 23.380652 
L 36.363386 22.985301 
L 37.852675 22.589949 
L 39.341964 22.194597 
L 40.831253 21.799246 
L 42.320543 21.403894 
" clip-path="url(#p2e0bd5a80b)" style="fill: none; stroke: #008000; stroke-width: 0.4; stroke-linecap: square"/>
   </g>
   <g id="line2d_9">
    <path d="M 32.739206 25.937543 
L 34.248116 27.810693 
L 35.757026 29.683844 
L 37.265936 31.556995 
L 38.774846 33.430146 
L 40.283756 35.303296 
L 41.792666 37.176447 
L 43.301576 39.049598 
L 44.810486 40.922749 
L 46.319396 42.795899 
L 47.828306 44.66905 
L 49.337216 46.542201 
L 50.846126 48.415352 
L 52.355036 50.288502 
L 53.863945 52.161653 
L 55.372855 54.034804 
L 56.881765 55.907955 
" clip-path="url(#p2e0bd5a80b)" style="fill: none; stroke: #008000; stroke-width: 0.4; stroke-linecap: square"/>
   </g>
   <g id="line2d_10">
    <path d="M 11.424174 22.503389 
L 12.323969 25.066152 
L 13.223765 27.628916 
L 14.123561 30.19168 
L 15.023357 32.754444 
L 15.923152 35.317208 
L 16.822948 37.879972 
L 17.722744 40.442736 
L 18.62254 43.005499 
L 19.522335 45.568263 
L 20.422131 48.131027 
L 21.321927 50.693791 
L 22.221722 53.256555 
L 23.121518 55.819319 
L 24.021314 58.382082 
L 24.92111 60.944846 
L 25.820905 63.50761 
L 26.720701 66.070374 
L 27.620497 68.633138 
L 28.520293 71.195902 
L 29.420088 73.758666 
L 30.319884 76.321429 
L 31.21968 78.884193 
L 32.119476 81.446957 
L 33.019271 84.009721 
L 33.919067 86.572485 
L 34.818863 89.135249 
L 35.718658 91.698012 
L 36.618454 94.260776 
L 37.51825 96.82354 
L 38.418046 99.386304 
L 39.317841 101.949068 
L 40.217637 104.511832 
" clip-path="url(#p2e0bd5a80b)" style="fill: none; stroke: #4169e1; stroke-width: 0.4; stroke-linecap: square"/>
   </g>
   <g id="line2d_11">
    <path d="M 18.494065 28.317425 
L 19.626688 29.929923 
L 20.759311 31.542421 
L 21.891934 33.154919 
L 23.024557 34.767416 
L 24.15718 36.379914 
L 25.289804 37.992412 
L 26.422427 39.60491 
L 27.55505 41.217408 
L 28.428707 43.39405 
L 29.302364 45.570692 
L 30.176022 47.747335 
L 31.049679 49.923977 
L 31.923336 52.100619 
L 32.796993 54.277262 
L 33.670651 56.453904 
L 34.544308 58.630546 
L 35.417965 60.807189 
L 36.291622 62.983831 
L 37.165279 65.160473 
L 38.038937 67.337116 
L 38.912594 69.513758 
L 39.786251 71.6904 
L 40.659908 73.867043 
L 41.533566 76.043685 
L 42.031339 78.147811 
L 42.529113 80.251937 
L 43.026887 82.356063 
L 43.52466 84.460189 
L 44.022434 86.564314 
L 44.520207 88.66844 
L 45.017981 90.772566 
L 45.515755 92.876692 
" clip-path="url(#p2e0bd5a80b)" style="fill: none; stroke: #008000; stroke-width: 0.4; stroke-linecap: square"/>
   </g>
   <g id="line2d_12">
    <path d="M 10.527536 38.960476 
L 10.933926 41.184197 
L 11.340316 43.407917 
L 11.746705 45.631638 
L 12.153095 47.855359 
L 12.929321 49.914791 
L 13.705547 51.974223 
L 14.481772 54.033656 
L 15.257998 56.093088 
L 15.382711 57.753459 
L 15.507423 59.41383 
L 15.632135 61.074201 
L 15.756847 62.734572 
L 15.881559 64.394943 
L 16.006271 66.055314 
L 16.130984 67.715685 
L 16.255696 69.376056 
L 16.380408 71.036427 
L 16.50512 72.696798 
L 16.629832 74.357169 
L 16.754545 76.01754 
L 16.879257 77.677911 
L 17.003969 79.338282 
L 17.128681 80.998653 
L 17.253393 82.659024 
L 17.772669 84.302613 
L 18.291945 85.946202 
L 19.328346 87.020258 
L 20.364747 88.094315 
L 21.768834 89.049306 
L 23.172922 90.004298 
L 24.577009 90.95929 
L 25.981096 91.914281 
L 26.987394 93.499221 
L 27.993693 95.084161 
L 28.306548 97.883773 
L 28.619404 100.683386 
" clip-path="url(#p2e0bd5a80b)" style="fill: none; stroke: #4169e1; stroke-width: 0.4; stroke-linecap: square"/>
   </g>
   <g id="line2d_13">
    <path d="M 6.814123 82.49085 
L 7.560784 84.853774 
L 8.307444 87.216698 
L 9.054105 89.579622 
L 9.800765 91.942546 
L 10.969673 92.942407 
L 12.138581 93.942269 
L 13.307489 94.942131 
L 14.476397 95.941992 
L 15.645305 96.941854 
L 16.814213 97.941716 
L 17.983121 98.941577 
L 19.152029 99.941439 
L 20.320937 100.941301 
L 21.489845 101.941163 
L 22.658753 102.941024 
L 23.827661 103.940886 
L 24.996569 104.940748 
L 26.165477 105.940609 
L 27.334385 106.940471 
L 28.503293 107.940333 
" clip-path="url(#p2e0bd5a80b)" style="fill: none; stroke: #4169e1; stroke-width: 0.4; stroke-linecap: square"/>
   </g>
   <g id="line2d_14">
    <path d="M 3.272727 34.937004 
L 3.437487 37.352659 
L 3.602247 39.768315 
L 3.767007 42.18397 
L 3.931767 44.599625 
L 4.096527 47.01528 
L 4.261286 49.430936 
L 4.426046 51.846591 
L 4.590806 54.262246 
L 4.755566 56.677901 
L 4.920326 59.093556 
L 5.085086 61.509212 
L 5.249845 63.924867 
L 5.414605 66.340522 
L 5.579365 68.756177 
L 5.744125 71.171833 
L 5.908885 73.587488 
" clip-path="url(#p2e0bd5a80b)" style="fill: none; stroke: #4169e1; stroke-width: 0.4; stroke-linecap: square"/>
   </g>
  </g>
 </g>
 <defs>
  <clipPath id="p2e0bd5a80b">
   <rect x="0" y="0" width="72" height="122.88293"/>
  </clipPath>
 </defs>
</svg>
