<?xml version="1.0" encoding="utf-8" standalone="no"?>
<!DOCTYPE svg PUBLIC "-//W3C//DTD SVG 1.1//EN"
  "http://www.w3.org/Graphics/SVG/1.1/DTD/svg11.dtd">
<svg height="60.985861pt" version="1.1" viewBox="0 0 72 60.985861" width="72pt" xmlns="http://www.w3.org/2000/svg" xmlns:xlink="http://www.w3.org/1999/xlink">
 <metadata>
  <rdf:RDF xmlns:cc="http://creativecommons.org/ns#" xmlns:dc="http://purl.org/dc/elements/1.1/" xmlns:rdf="http://www.w3.org/1999/02/22-rdf-syntax-ns#">
   <cc:Work>
    <dc:type rdf:resource="http://purl.org/dc/dcmitype/StillImage"/>
    <dc:date>2022-04-19T00:42:46.660141</dc:date>
    <dc:format>image/svg+xml</dc:format>
    <dc:creator>
     <cc:Agent>
      <dc:title>Matplotlib v3.4.3, https://matplotlib.org/</dc:title>
     </cc:Agent>
    </dc:creator>
   </cc:Work>
  </rdf:RDF>
 </metadata>
 <defs>
  <style type="text/css">*{stroke-linecap:butt;stroke-linejoin:round;}</style>
 </defs>
 <g id="figure_1">
  <g id="patch_1">
   <path d="M 0 60.985861 
L 72 60.985861 
L 72 0 
L 0 0 
z
" style="fill:#ffffff;"/>
  </g>
  <g id="axes_1">
   <g id="line2d_1">
    <path clip-path="url(#p01fe80cf09)" d="M 37.242202 54.519358 
L 37.283145 54.133129 
L 37.343963 53.560528 
L 37.40478 52.987926 
L 37.474097 52.33623 
L 37.543414 51.684533 
L 37.628654 50.881733 
L 37.713893 50.078933 
L 37.800809 49.261265 
L 37.887725 48.443596 
L 37.999782 47.389765 
L 38.111839 46.335933 
L 38.172895 45.761603 
L 38.233952 45.187273 
L 38.335713 44.229134 
L 38.444537 43.204088 
L 38.553361 42.179042 
L 38.616872 41.581848 
L 38.680383 40.984654 
L 38.743894 40.387459 
L 38.807404 39.790265 
L 38.91132 38.811553 
L 39.015236 37.83284 
L 39.105983 36.979125 
L 39.19673 36.12541 
L 39.258744 35.541658 
L 39.320758 34.957906 
L 39.382773 34.374153 
L 39.444787 33.790401 
L 39.507699 33.198652 
L 39.570611 32.606904 
L 39.633524 32.015156 
L 39.696436 31.423407 
L 39.785387 30.586116 
L 39.874338 29.748826 
L 39.963289 28.911535 
L 40.05224 28.074244 
L 40.111261 27.518413 
L 40.170283 26.962582 
L 40.232477 26.377533 
L 40.29467 25.792484 
L 40.356864 25.207435 
L 40.419058 24.622386 
L 40.484065 24.010712 
L 40.549073 23.399038 
L 40.61408 22.787365 
L 40.679087 22.175691 
L 40.742059 21.582517 
L 40.805031 20.989342 
L 40.872014 20.358997 
L 40.938997 19.728651 
L 41.005979 19.098306 
L 41.072962 18.46796 
L 41.178434 17.475331 
L 41.283906 16.482701 
L 41.29923 16.338513 
L 41.38016 15.577984 
" style="fill:none;stroke:#808080;stroke-linecap:square;stroke-width:0.4;"/>
   </g>
   <g id="line2d_2">
    <path clip-path="url(#p01fe80cf09)" d="M 31.156898 44.980673 
L 31.355392 45.839402 
L 31.556998 46.712221 
L 31.758604 47.58504 
L 31.954704 48.433655 
L 32.150803 49.28227 
L 32.359114 50.183702 
L 32.567424 51.085134 
L 32.73515 51.811518 
L 32.902876 52.537902 
L 33.092271 53.357558 
L 33.281666 54.177215 
L 33.471061 54.996871 
L 33.660456 55.816528 
L 33.840753 56.597285 
" style="fill:none;stroke:#808080;stroke-linecap:square;stroke-width:0.4;"/>
   </g>
   <g id="line2d_3">
    <path clip-path="url(#p01fe80cf09)" d="M 24.626959 46.841973 
L 24.630311 46.441048 
L 24.6351 45.878993 
L 24.641565 45.135234 
L 24.647431 44.461148 
L 24.653297 43.787063 
L 24.659642 43.042785 
L 24.665987 42.298507 
L 24.67341 41.450324 
L 24.680832 40.602142 
L 24.686699 39.92503 
L 24.692565 39.247919 
L 24.699987 38.387634 
L 24.70741 37.527349 
L 24.715311 36.597651 
L 24.723213 35.667952 
L 24.729438 34.9471 
L 24.735664 34.226249 
L 24.741111 33.599015 
L 24.746558 32.971782 
L 24.752005 32.344548 
L 24.757452 31.717315 
L 24.764396 30.900252 
L 24.77134 30.083189 
L 24.780199 29.05797 
L 24.787023 28.267531 
L 24.793847 27.477093 
" style="fill:none;stroke:#808080;stroke-linecap:square;stroke-width:0.4;"/>
   </g>
   <g id="line2d_4">
    <path clip-path="url(#p01fe80cf09)" d="M 56.46951 57.859185 
L 56.606947 57.16297 
L 56.744385 56.466755 
L 56.858716 55.888276 
L 56.973047 55.309796 
L 57.148675 54.42038 
L 57.324302 53.530964 
L 57.469641 52.795503 
L 57.614979 52.060043 
L 57.813473 51.055225 
L 58.011967 50.050406 
L 58.165446 49.272848 
L 58.318925 48.495289 
L 58.44481 47.858245 
L 58.570694 47.2212 
L 58.696578 46.584155 
L 58.822462 45.947111 
L 58.944516 45.329213 
L 59.066569 44.711316 
L 59.188622 44.093418 
L 59.310675 43.475521 
L 59.443743 42.801781 
L 59.57681 42.128041 
L 59.709878 41.454301 
L 59.842945 40.780561 
L 59.967273 40.15108 
L 60.091601 39.521599 
L 60.215929 38.892118 
L 60.340257 38.262637 
L 60.53468 37.278652 
L 60.729103 36.294666 
L 60.839603 35.735118 
L 60.950104 35.17557 
L 61.079041 34.523268 
L 61.207978 33.870966 
L 61.341824 33.192731 
L 61.542233 32.178404 
" style="fill:none;stroke:#808080;stroke-linecap:square;stroke-width:0.4;"/>
   </g>
   <g id="line2d_5">
    <path clip-path="url(#p01fe80cf09)" d="M 34.730502 56.602125 
L 35.076609 56.064102 
L 35.422716 55.526078 
" style="fill:none;stroke:#808080;stroke-linecap:square;stroke-width:0.4;"/>
   </g>
   <g id="line2d_6">
    <path clip-path="url(#p01fe80cf09)" d="M 51.3489 48.326898 
L 51.413803 48.502767 
L 51.478705 48.678636 
L 51.543608 48.854505 
L 51.60851 49.030374 
L 51.673413 49.206243 
L 51.738315 49.382112 
L 51.803218 49.557982 
L 51.86812 49.733851 
L 51.933023 49.90972 
L 51.997926 50.085589 
L 52.062828 50.261458 
L 52.127731 50.437327 
L 52.192633 50.613196 
L 52.257536 50.789065 
L 52.322438 50.964934 
L 52.387341 51.140804 
L 52.49398 51.44221 
L 52.60062 51.743617 
L 52.707259 52.045023 
L 52.813899 52.34643 
L 52.920538 52.647836 
L 53.027177 52.949243 
L 53.133817 53.25065 
L 53.240456 53.552056 
L 53.356374 53.830296 
L 53.472292 54.108536 
L 53.588209 54.386775 
L 53.704127 54.665015 
L 53.820045 54.943255 
L 53.935962 55.221494 
L 54.05188 55.499734 
L 54.167798 55.777974 
L 54.283715 56.033025 
L 54.399633 56.288076 
L 54.515551 56.543128 
L 54.631468 56.798179 
L 54.747386 57.05323 
L 54.863304 57.308282 
L 54.979221 57.563333 
L 55.095139 57.818384 
" style="fill:none;stroke:#000000;stroke-linecap:square;stroke-width:0.4;"/>
   </g>
   <g id="line2d_7">
    <path clip-path="url(#p01fe80cf09)" d="M 61.233837 32.468162 
L 58.496319 37.242562 
L 56.166293 41.462351 
L 53.880263 45.044577 
L 49.570359 50.218949 
L 47.413266 51.924327 
L 45.990289 52.760407 
L 45.359611 54.429802 
L 46.642936 56.028465 
L 47.48393 56.720402 
L 48.851807 57.173171 
L 48.851807 57.173171 
" style="fill:none;stroke:#000000;stroke-linecap:square;stroke-width:0.4;"/>
   </g>
   <g id="line2d_8">
    <path clip-path="url(#p01fe80cf09)" d="M 51.930733 36.880926 
L 51.884342 37.057119 
L 51.837951 37.233312 
L 51.79156 37.409505 
L 51.745169 37.585699 
L 51.698778 37.761892 
L 51.652387 37.938085 
L 51.605996 38.114279 
L 51.559605 38.290472 
L 51.443688 38.51771 
L 51.32777 38.744948 
L 51.211852 38.972186 
L 51.095935 39.199424 
L 50.980017 39.426662 
L 50.864099 39.653901 
L 50.748182 39.881139 
L 50.632264 40.108377 
L 50.504763 40.326322 
L 50.377263 40.544268 
L 50.249763 40.762213 
L 50.122262 40.980159 
L 49.994762 41.198104 
L 49.867261 41.41605 
L 49.739761 41.633995 
L 49.61226 41.85194 
L 49.48476 42.069886 
L 49.357259 42.287831 
L 49.229759 42.505777 
L 49.102258 42.723722 
L 48.974758 42.941668 
L 48.847258 43.159613 
L 48.719757 43.377559 
L 48.592257 43.595504 
L 48.443895 43.85518 
L 48.295534 44.114856 
L 48.147172 44.374532 
L 47.998811 44.634208 
L 47.850449 44.893884 
L 47.702088 45.15356 
L 47.553726 45.413236 
L 47.405365 45.672912 
L 47.256285 45.905013 
L 47.107205 46.137113 
L 46.958126 46.369214 
L 46.809046 46.601314 
L 46.659966 46.833415 
L 46.510886 47.065515 
L 46.361807 47.297616 
L 46.212727 47.529717 
L 46.023332 47.682505 
L 45.833937 47.835294 
L 45.644542 47.988083 
L 45.455147 48.140871 
L 45.265752 48.29366 
L 45.076357 48.446449 
L 44.886962 48.599238 
L 44.697567 48.752026 
L 44.614123 48.900417 
L 44.530679 49.048808 
L 44.447235 49.197199 
L 44.363791 49.34559 
L 44.280347 49.493981 
L 44.196903 49.642372 
L 44.113459 49.790763 
L 44.030015 49.939154 
L 43.946571 50.087545 
L 43.863127 50.235936 
L 43.779683 50.384327 
L 43.696239 50.532717 
L 43.612795 50.681108 
L 43.529351 50.829499 
L 43.445907 50.97789 
L 43.362463 51.126281 
L 43.302185 51.348873 
L 43.241906 51.571465 
L 43.181628 51.794056 
L 43.12135 52.016648 
L 43.061071 52.23924 
L 43.000793 52.461832 
L 42.940514 52.684424 
L 42.880236 52.907015 
L 42.880236 53.208422 
L 42.880236 53.509828 
L 42.880236 53.811235 
L 42.880236 54.112642 
L 42.880236 54.414048 
L 42.880236 54.715455 
L 42.880236 55.016861 
L 42.880236 55.318268 
L 43.000763 55.448106 
L 43.12129 55.577944 
L 43.241817 55.707782 
L 43.362343 55.83762 
L 43.48287 55.967458 
L 43.603397 56.097296 
L 43.723924 56.227134 
L 43.844451 56.356972 
L 44.015319 56.459234 
L 44.186188 56.561497 
L 44.357056 56.66376 
L 44.527925 56.766022 
L 44.698794 56.868285 
L 44.869662 56.970547 
L 45.040531 57.07281 
L 45.211399 57.175072 
L 45.443923 57.225836 
L 45.676447 57.2766 
L 45.908971 57.327364 
L 46.141494 57.378128 
L 46.374018 57.428892 
L 46.606542 57.479656 
L 46.839065 57.53042 
L 47.071589 57.581183 
L 47.382229 57.544099 
L 47.69287 57.507015 
L 48.00351 57.469931 
L 48.31415 57.432847 
L 48.62479 57.395762 
L 48.93543 57.358678 
L 49.246071 57.321594 
L 49.556711 57.28451 
" style="fill:none;stroke:#008000;stroke-linecap:square;stroke-width:0.4;"/>
   </g>
   <g id="line2d_9">
    <path clip-path="url(#p01fe80cf09)" d="M 55.001998 42.966715 
L 53.982832 40.902965 
L 53.080512 37.251768 
L 52.412721 36.509911 
L 51.047778 37.146782 
L 49.649373 38.531627 
L 47.550943 41.964058 
L 46.231358 44.163059 
L 45.072885 45.711682 
L 40.877341 49.642394 
L 39.78826 52.379711 
L 39.022898 54.984423 
L 38.540671 55.13276 
L 38.540671 55.13276 
" style="fill:none;stroke:#4169e1;stroke-linecap:square;stroke-width:0.4;"/>
   </g>
   <g id="line2d_10">
    <path clip-path="url(#p01fe80cf09)" d="M 62.198291 32.245484 
L 62.268776 32.426108 
L 62.33926 32.606731 
L 62.409745 32.787355 
L 62.480229 32.967978 
L 62.550714 33.148602 
L 62.621198 33.329225 
L 62.691682 33.509849 
L 62.762167 33.690472 
L 62.822445 33.92696 
L 62.882724 34.163447 
L 62.943002 34.399935 
L 63.00328 34.636422 
L 63.063559 34.87291 
L 63.123837 35.109398 
L 63.184115 35.345885 
L 63.244394 35.582373 
L 63.31859 35.758588 
L 63.392785 35.934803 
L 63.466981 36.111017 
L 63.541177 36.287232 
L 63.615372 36.463447 
L 63.689568 36.639662 
L 63.763764 36.815877 
L 63.837959 36.992092 
L 63.944614 37.133524 
L 64.051268 37.274956 
L 64.157923 37.416389 
L 64.264577 37.557821 
L 64.371232 37.699253 
L 64.477886 37.840685 
L 64.58454 37.982117 
L 64.691195 38.12355 
L 64.797849 38.264982 
L 64.904504 38.406414 
L 65.011158 38.547846 
L 65.117813 38.689279 
L 65.224467 38.830711 
L 65.331121 38.972143 
L 65.437776 39.113575 
L 65.54443 39.255007 
L 65.636255 39.43146 
L 65.728079 39.607913 
L 65.819903 39.784365 
L 65.911727 39.960818 
L 66.003552 40.137271 
L 66.095376 40.313723 
L 66.1872 40.490176 
L 66.279024 40.666628 
L 66.39587 40.837981 
L 66.512715 41.009333 
L 66.629561 41.180686 
L 66.746406 41.352038 
L 66.863252 41.523391 
L 66.980097 41.694743 
L 67.096943 41.866096 
L 67.213788 42.037448 
L 67.111788 42.283207 
L 67.009788 42.528965 
L 66.907787 42.774724 
L 66.805787 43.020482 
L 66.703787 43.266241 
L 66.601786 43.512 
L 66.499786 43.757758 
L 66.397785 44.003517 
L 66.192827 44.240242 
L 65.987869 44.476967 
L 65.78291 44.713693 
L 65.577952 44.950418 
L 65.372993 45.187143 
L 65.168035 45.423869 
L 64.963076 45.660594 
L 64.758118 45.897319 
L 64.614829 45.987631 
L 64.471541 46.077943 
L 64.328252 46.168254 
L 64.184964 46.258566 
L 64.041676 46.348878 
L 63.898387 46.43919 
L 63.755099 46.529501 
L 63.611811 46.619813 
L 63.468522 46.710125 
L 63.325234 46.800437 
L 63.181946 46.890748 
L 63.038657 46.98106 
L 62.895369 47.071372 
L 62.75208 47.161684 
L 62.608792 47.251995 
L 62.465504 47.342307 
" style="fill:none;stroke:#000000;stroke-linecap:square;stroke-width:0.4;"/>
   </g>
   <g id="line2d_11">
    <path clip-path="url(#p01fe80cf09)" d="M 24.539564 27.20324 
L 20.149059 30.348873 
L 18.916854 31.360822 
L 12.532433 36.018826 
L 8.565164 37.921467 
L 7.178671 38.744429 
L 5.868469 39.551854 
L 3.272727 43.409996 
L 3.272727 43.409996 
" style="fill:none;stroke:#ff0000;stroke-linecap:square;stroke-width:0.4;"/>
   </g>
   <g id="line2d_12">
    <path clip-path="url(#p01fe80cf09)" d="M 62.094615 32.651768 
L 62.154893 32.925362 
L 62.215172 33.198955 
L 62.27545 33.472548 
L 62.335729 33.746142 
L 62.396007 34.019735 
L 62.456285 34.293329 
L 62.516564 34.566922 
L 62.576842 34.840515 
L 62.565244 35.012084 
L 62.553647 35.183653 
L 62.542049 35.355221 
L 62.530451 35.52679 
L 62.518853 35.698358 
L 62.507256 35.869927 
L 62.495658 36.041495 
L 62.48406 36.213064 
L 62.472462 36.384632 
L 62.460865 36.556201 
L 62.449267 36.72777 
L 62.437669 36.899338 
L 62.426071 37.070907 
L 62.414474 37.242475 
L 62.402876 37.414044 
L 62.391278 37.585612 
L 62.422794 37.799171 
L 62.45431 38.012729 
L 62.485826 38.226288 
L 62.517342 38.439846 
L 62.548858 38.653405 
L 62.580374 38.866963 
L 62.61189 39.080521 
L 62.643406 39.29408 
L 62.639724 39.576707 
L 62.636043 39.859333 
L 62.632362 40.14196 
L 62.62868 40.424587 
L 62.624999 40.707214 
L 62.621318 40.98984 
L 62.617636 41.272467 
L 62.613955 41.555094 
L 62.602357 41.726673 
L 62.590759 41.898252 
L 62.579162 42.069832 
L 62.567564 42.241411 
L 62.555966 42.412991 
L 62.544368 42.58457 
L 62.532771 42.756149 
L 62.521173 42.927729 
L 62.509575 43.099308 
L 62.497977 43.270887 
L 62.48638 43.442467 
L 62.474782 43.614046 
L 62.463184 43.785626 
L 62.451586 43.957205 
L 62.439989 44.128784 
L 62.428391 44.300364 
L 62.427463 44.518547 
L 62.426535 44.73673 
L 62.425607 44.954913 
L 62.42468 45.173096 
L 62.423752 45.391279 
L 62.422824 45.609463 
L 62.421896 45.827646 
L 62.420968 46.045829 
L 62.420968 46.305505 
L 62.420968 46.565181 
L 62.420968 46.824857 
L 62.420968 47.084533 
L 62.268417 47.255993 
L 62.115865 47.427454 
L 61.963314 47.598915 
L 61.810762 47.770375 
L 61.65821 47.941836 
L 61.505659 48.113296 
L 61.353107 48.284757 
L 61.200555 48.456217 
L 61.048004 48.627678 
L 60.895452 48.799138 
L 60.742901 48.970599 
L 60.590349 49.142059 
L 60.437797 49.31352 
L 60.285246 49.48498 
L 60.132694 49.656441 
L 59.980143 49.827901 
" style="fill:none;stroke:#ff0000;stroke-linecap:square;stroke-width:0.4;"/>
   </g>
   <g id="line2d_13">
    <path clip-path="url(#p01fe80cf09)" d="M 38.720489 55.208831 
L 38.832456 55.343077 
L 38.944423 55.477324 
L 39.05639 55.61157 
L 39.168356 55.745817 
L 39.280323 55.880064 
L 39.39229 56.01431 
L 39.504257 56.148557 
L 39.616224 56.282803 
L 39.763179 56.496578 
L 39.910134 56.710353 
L 40.057089 56.924127 
L 40.204043 57.137902 
L 40.455812 57.239473 
L 40.70758 57.341044 
L 40.959349 57.442615 
L 41.211117 57.544186 
L 41.359449 57.469974 
L 41.50778 57.395762 
L 41.656112 57.321551 
L 41.804443 57.247339 
L 42.017722 57.136043 
L 42.231001 57.024747 
L 42.44428 56.913451 
L 42.657559 56.802155 
L 42.805232 56.876583 
L 42.952905 56.951011 
L 43.100578 57.025439 
L 43.248251 57.099867 
L 43.395925 57.174294 
L 43.543598 57.248722 
L 43.691271 57.32315 
L 43.838944 57.397578 
L 43.997272 57.452988 
L 44.1556 57.508398 
L 44.313928 57.563808 
L 44.472256 57.619219 
L 44.630584 57.674629 
L 44.788912 57.730039 
L 44.94724 57.785449 
L 45.105568 57.840859 
L 45.271797 57.855015 
L 45.438027 57.86917 
L 45.604256 57.883325 
L 45.770486 57.89748 
L 45.936715 57.911635 
L 46.102945 57.92579 
L 46.269174 57.939945 
L 46.435404 57.9541 
L 46.71357 58.019019 
L 46.991737 58.083938 
L 47.269903 58.148857 
L 47.54807 58.213776 
L 47.809116 58.157675 
L 48.070163 58.101573 
L 48.33121 58.045471 
L 48.592257 57.989369 
L 48.749896 57.910533 
L 48.907536 57.831696 
L 49.065176 57.75286 
L 49.222815 57.674024 
L 49.380455 57.595187 
L 49.538095 57.516351 
L 49.695734 57.437515 
L 49.853374 57.358678 
L 50.08892 57.368187 
L 50.324467 57.377696 
L 50.560014 57.387204 
L 50.79556 57.396713 
L 51.031107 57.406222 
L 51.266654 57.415731 
L 51.5022 57.42524 
L 51.737747 57.434748 
L 51.979788 57.490159 
L 52.22183 57.545569 
L 52.463871 57.600979 
L 52.705912 57.656389 
L 52.947954 57.711799 
L 53.189995 57.76721 
L 53.432036 57.82262 
L 53.674078 57.87803 
L 53.966191 57.891948 
L 54.258305 57.905865 
L 54.550419 57.919782 
L 54.842533 57.9337 
L 55.134646 57.947617 
L 55.42676 57.961534 
L 55.718874 57.975452 
L 56.010988 57.989369 
" style="fill:none;stroke:#008000;stroke-linecap:square;stroke-width:0.4;"/>
   </g>
   <g id="line2d_14">
    <path clip-path="url(#p01fe80cf09)" d="M 61.79029 32.616499 
L 61.315485 36.444992 
L 61.223676 39.324983 
L 60.668106 44.607086 
L 60.31757 47.835294 
L 60.068136 49.063936 
L 59.794579 50.013409 
L 58.192024 51.536196 
L 57.849029 52.231763 
L 56.707751 53.659116 
L 56.298372 56.33843 
L 56.381876 57.618354 
L 56.381876 57.618354 
" style="fill:none;stroke:#ff0000;stroke-linecap:square;stroke-width:0.4;"/>
   </g>
   <g id="line2d_15">
    <path clip-path="url(#p01fe80cf09)" d="M 58.117798 38.403713 
L 58.152576 38.58224 
L 58.187355 38.760767 
L 58.222133 38.939295 
L 58.256911 39.117822 
L 58.291689 39.296349 
L 58.326468 39.474876 
L 58.361246 39.653404 
L 58.396024 39.831931 
L 58.430803 40.010458 
L 58.465581 40.188985 
L 58.500359 40.367513 
L 58.535137 40.54604 
L 58.569916 40.724567 
L 58.604694 40.903094 
L 58.639472 41.081622 
L 58.674251 41.260149 
L 58.67889 41.434051 
L 58.683529 41.607954 
L 58.688168 41.781856 
L 58.692807 41.955759 
L 58.697446 42.129662 
L 58.702085 42.303564 
L 58.706724 42.477467 
L 58.711363 42.651369 
L 58.716003 42.825272 
L 58.720642 42.999174 
L 58.725281 43.173077 
L 58.72992 43.346979 
L 58.734559 43.520882 
L 58.739198 43.694784 
L 58.743837 43.868687 
L 58.748476 44.042589 
L 58.737342 44.316064 
L 58.726209 44.589538 
L 58.715075 44.863013 
L 58.703941 45.136487 
L 58.692807 45.409962 
L 58.681673 45.683437 
L 58.670539 45.956911 
L 58.659406 46.230386 
L 58.648272 46.50386 
L 58.637138 46.777335 
L 58.626004 47.050809 
L 58.61487 47.324284 
L 58.603736 47.597758 
L 58.592602 47.871233 
L 58.581469 48.144707 
L 58.570335 48.418182 
L 58.537891 48.619898 
L 58.505447 48.821613 
L 58.473003 49.023329 
L 58.44056 49.225045 
L 58.408116 49.42676 
L 58.375672 49.628476 
L 58.343228 49.830192 
L 58.310785 50.031908 
L 58.278341 50.233623 
L 58.245897 50.435339 
L 58.213453 50.637055 
L 58.181009 50.83877 
L 58.148566 51.040486 
L 58.116122 51.242202 
L 58.083678 51.443917 
L 58.051234 51.645633 
" style="fill:none;stroke:#000000;stroke-linecap:square;stroke-width:0.4;"/>
   </g>
   <g id="line2d_16">
    <path clip-path="url(#p01fe80cf09)" d="M 30.996714 45.135926 
L 30.885615 45.395602 
L 30.936616 45.590359 
L 30.987616 45.785116 
L 31.038616 45.979873 
L 31.089616 46.17463 
L 31.128779 46.332238 
L 31.167942 46.489846 
L 31.207105 46.647453 
L 31.246268 46.805061 
L 31.285431 46.962669 
L 31.324594 47.120277 
L 31.363757 47.277885 
L 31.40292 47.435493 
L 31.442083 47.593101 
L 31.481246 47.750709 
L 31.520409 47.908317 
L 31.559572 48.065925 
L 31.598735 48.223533 
L 31.637898 48.381141 
L 31.677061 48.538749 
L 31.716224 48.696357 
L 31.771055 48.877304 
L 31.825886 49.058252 
L 31.880718 49.2392 
L 31.935549 49.420148 
L 31.99038 49.601095 
L 32.045211 49.782043 
L 32.100042 49.962991 
L 32.154873 50.143938 
L 32.21596 50.345567 
L 32.277046 50.547197 
L 32.338133 50.748826 
L 32.399219 50.950455 
L 32.460306 51.152084 
L 32.521392 51.353714 
L 32.582479 51.555343 
L 32.643565 51.756972 
L 32.692231 52.005065 
L 32.740897 52.253157 
L 32.789562 52.50125 
L 32.838228 52.749343 
L 32.886894 52.997435 
L 32.935559 53.245528 
L 32.984225 53.49362 
L 33.032891 53.741713 
L 33.069405 53.917712 
L 33.105919 54.093711 
L 33.147791 54.295469 
L 33.189662 54.497228 
L 33.231534 54.698987 
L 33.273406 54.900746 
L 33.315277 55.102505 
L 33.357149 55.304264 
L 33.399021 55.506023 
L 33.440892 55.707782 
L 33.501171 55.944291 
L 33.561449 56.1808 
L 33.621727 56.417309 
L 33.682006 56.653819 
" style="fill:none;stroke:#4169e1;stroke-linecap:square;stroke-width:0.4;"/>
   </g>
   <g id="line2d_17">
    <path clip-path="url(#p01fe80cf09)" d="M 56.300228 41.705332 
L 56.310434 41.913769 
L 56.32064 42.122206 
L 56.330846 42.330642 
L 56.341052 42.539079 
L 56.351258 42.747516 
L 56.361464 42.955952 
L 56.37167 43.164389 
L 56.381876 43.372826 
L 56.395793 43.655712 
L 56.409711 43.938598 
L 56.423628 44.221484 
L 56.437545 44.50437 
L 56.451463 44.787256 
L 56.46538 45.070142 
L 56.479297 45.353028 
L 56.493215 45.635914 
L 56.627689 45.92805 
L 56.762163 46.220185 
L 56.896637 46.512321 
L 57.031111 46.804456 
L 57.165585 47.096592 
L 57.300059 47.388727 
L 57.434533 47.680863 
L 57.569007 47.972998 
L 57.65709 48.139942 
L 57.745173 48.306886 
L 57.833256 48.47383 
L 57.921339 48.640774 
L 58.009423 48.807718 
L 58.097506 48.974661 
L 58.185589 49.141605 
L 58.273672 49.308549 
" style="fill:none;stroke:#ff0000;stroke-linecap:square;stroke-width:0.4;"/>
   </g>
   <g id="line2d_18">
    <path clip-path="url(#p01fe80cf09)" d="M 67.510691 42.074446 
L 67.581325 42.283466 
L 67.652947 42.495425 
L 67.724568 42.707384 
L 67.79619 42.919344 
L 67.867812 43.131303 
L 67.939434 43.343262 
L 68.011055 43.555221 
L 68.082677 43.767181 
L 68.154299 43.97914 
L 68.225921 44.191099 
L 68.297542 44.403058 
L 68.369164 44.615018 
L 68.440786 44.826977 
L 68.512408 45.038936 
L 68.584029 45.250895 
L 68.655651 45.462855 
L 68.727273 45.674814 
L 68.629911 45.888113 
L 68.53255 46.101412 
L 68.435189 46.314711 
L 68.337828 46.52801 
L 68.240466 46.741309 
L 68.143105 46.954609 
L 68.045744 47.167908 
L 67.948383 47.381207 
L 67.819475 47.617478 
L 67.690568 47.85375 
L 67.561661 48.090021 
L 67.432754 48.326293 
L 67.303847 48.562564 
L 67.17494 48.798835 
L 67.046033 49.035107 
L 66.917125 49.271378 
L 66.796539 49.41978 
L 66.675952 49.568182 
L 66.555365 49.716584 
L 66.434779 49.864985 
L 66.314192 50.013387 
L 66.193605 50.161789 
L 66.073018 50.31019 
L 65.952432 50.458592 
L 65.739123 50.611619 
L 65.525814 50.764645 
L 65.312505 50.917672 
L 65.099196 51.070698 
L 64.885887 51.223724 
L 64.672579 51.376751 
L 64.45927 51.529777 
L 64.245961 51.682804 
L 63.99093 51.743076 
L 63.735899 51.803349 
L 63.480868 51.863622 
L 63.225837 51.923894 
L 62.970807 51.984167 
L 62.715776 52.04444 
L 62.460745 52.104712 
L 62.205714 52.164985 
L 61.932157 52.248468 
L 61.658599 52.331951 
L 61.385042 52.415433 
L 61.111485 52.498916 
L 60.837927 52.582399 
L 60.56437 52.665881 
L 60.290813 52.749364 
L 60.017255 52.832847 
L 59.771503 52.939496 
L 59.52575 53.046146 
L 59.279998 53.152796 
L 59.034245 53.259445 
L 58.788492 53.366095 
L 58.54274 53.472744 
L 58.296987 53.579394 
L 58.051234 53.686043 
L 57.869202 53.755371 
L 57.68717 53.824699 
L 57.505137 53.894026 
L 57.323105 53.963354 
L 57.141073 54.032681 
L 56.95904 54.102009 
L 56.777008 54.171337 
L 56.594976 54.240664 
" style="fill:none;stroke:#000000;stroke-linecap:square;stroke-width:0.4;"/>
   </g>
   <g id="line2d_19">
    <path clip-path="url(#p01fe80cf09)" d="M 41.538668 15.385216 
L 42.602249 15.35267 
L 45.240371 14.569017 
L 45.499922 14.977203 
L 44.609693 16.31258 
L 45.09192 16.42392 
L 46.187107 15.711107 
L 47.141176 14.685002 
L 48.586031 12.751285 
L 49.357559 9.857592 
L 49.691334 8.846679 
L 49.942624 8.438623 
L 51.680461 6.342716 
L 54.318733 3.968461 
L 55.270767 3.432599 
L 55.96741 3.105929 
L 57.332682 3.476944 
L 59.469303 2.790583 
L 59.75124 2.772085 
L 59.675159 3.551026 
L 59.321749 4.900516 
L 58.983305 6.27784 
L 58.5938 7.001242 
L 59.009224 7.743099 
L 59.098294 9.412495 
L 59.354253 10.284276 
L 59.548976 10.942759 
L 59.632479 11.860918 
L 59.176231 13.085216 
L 59.044481 14.244465 
L 57.684895 19.449093 
L 57.488317 20.207893 
L 57.617134 21.619125 
L 57.313378 23.351992 
L 57.414091 26.143444 
L 56.562891 28.174561 
L 56.151178 28.833044 
L 55.535345 29.287477 
L 54.900985 29.630614 
L 52.834849 31.726651 
L 51.513514 32.088417 
L 50.489739 32.58458 
L 47.99052 35.311178 
L 47.099364 36.178141 
L 46.111924 37.217061 
L 45.583425 38.292849 
L 45.088149 41.705851 
L 44.988004 42.280873 
L 43.086332 44.768325 
L 41.698133 46.528529 
L 40.492745 48.309263 
L 38.985785 51.462524 
L 38.007683 54.003636 
L 37.933458 54.634328 
L 37.265906 54.968172 
L 37.265906 54.968172 
" style="fill:none;stroke:#4169e1;stroke-linecap:square;stroke-width:0.4;"/>
   </g>
   <g id="line2d_20">
    <path clip-path="url(#p01fe80cf09)" d="M 40.789468 15.867397 
L 40.631798 16.034362 
L 40.474129 16.201328 
L 40.316459 16.368293 
L 40.15879 16.535259 
L 39.940303 16.600826 
L 39.721816 16.666393 
L 39.50333 16.731961 
L 39.284843 16.797528 
L 38.980039 16.888985 
L 38.675235 16.980442 
L 38.508317 16.998984 
L 38.341399 17.017526 
L 38.174481 17.036069 
L 38.007564 17.054611 
L 37.840646 17.073153 
L 37.673728 17.091695 
L 37.50681 17.110237 
L 37.339892 17.128779 
L 37.154448 17.105591 
L 36.969003 17.082402 
L 36.783559 17.059214 
L 36.598115 17.036025 
L 36.41267 17.012837 
L 36.227226 16.989648 
L 36.041782 16.96646 
L 35.856338 16.943272 
L 35.624562 16.989648 
L 35.392787 17.036025 
L 35.161011 17.082402 
L 34.929236 17.128779 
L 34.822596 17.263263 
L 34.715957 17.397748 
L 34.609317 17.532232 
L 34.502678 17.666716 
L 34.396038 17.801201 
L 34.289399 17.935685 
L 34.182759 18.07017 
L 34.07612 18.204654 
L 33.984325 18.343763 
L 33.892531 18.482872 
L 33.800737 18.621981 
L 33.708942 18.76109 
L 33.617148 18.900199 
L 33.525354 19.039308 
L 33.433559 19.178417 
L 33.341765 19.317526 
L 33.154465 19.438115 
L 32.967165 19.558703 
L 32.779865 19.679292 
L 32.592565 19.799881 
L 32.312633 19.710909 
L 32.032701 19.621937 
L 31.752768 19.532965 
L 31.472836 19.443993 
L 31.192903 19.355021 
L 30.912971 19.266049 
L 30.633039 19.177077 
L 30.353106 19.088106 
L 30.109718 18.988393 
L 29.86633 18.888681 
L 29.622942 18.788968 
L 29.379554 18.689256 
L 29.156996 18.568753 
L 28.934439 18.448251 
L 28.83187 18.642144 
L 28.729301 18.836037 
L 28.626732 19.029929 
L 28.524163 19.223822 
L 28.421594 19.417714 
L 28.319025 19.611607 
L 28.216456 19.805499 
L 28.113887 19.999392 
L 28.011318 20.193285 
L 27.908749 20.387177 
L 27.80618 20.58107 
L 27.703611 20.774962 
L 27.601042 20.968855 
L 27.498473 21.162747 
L 27.395904 21.35664 
L 27.293335 21.550533 
L 27.190766 21.744425 
L 27.088197 21.938318 
L 26.985628 22.13221 
L 26.883059 22.326103 
L 26.78049 22.519995 
L 26.677921 22.713888 
L 26.575352 22.907781 
L 26.472783 23.101673 
L 26.370214 23.295566 
L 26.267645 23.489458 
L 26.165076 23.683351 
L 26.062506 23.877243 
L 25.959937 24.071136 
L 25.857368 24.265028 
L 25.754799 24.458921 
L 25.65223 24.652814 
L 25.591967 24.805257 
L 25.531704 24.9577 
L 25.47144 25.110143 
L 25.411177 25.262585 
L 25.350913 25.415028 
L 25.29065 25.567471 
L 25.230386 25.719914 
L 25.170123 25.872357 
L 25.10986 26.0248 
L 25.049596 26.177243 
L 24.989333 26.329686 
L 24.929069 26.482129 
L 24.868806 26.634572 
L 24.808542 26.787015 
L 24.748279 26.939458 
L 24.688016 27.091901 
" style="fill:none;stroke:#4169e1;stroke-linecap:square;stroke-width:0.4;"/>
   </g>
   <g id="line2d_21">
    <path clip-path="url(#p01fe80cf09)" d="M 35.529984 17.054611 
L 35.585624 17.249368 
L 35.641263 17.444125 
L 35.696902 17.638882 
L 35.752541 17.833639 
L 35.808181 18.028396 
L 35.86382 18.223153 
L 35.919459 18.41791 
L 35.975099 18.612667 
L 36.01682 18.881635 
L 36.058542 19.150604 
L 36.100264 19.419573 
L 36.141986 19.688541 
L 36.183708 19.95751 
L 36.22543 20.226479 
L 36.267152 20.495447 
L 36.308874 20.764416 
L 36.371472 20.917443 
L 36.43407 21.070469 
L 36.496668 21.223495 
L 36.559266 21.376522 
L 36.621864 21.529548 
L 36.684462 21.682575 
L 36.74706 21.835601 
L 36.809658 21.988628 
L 36.872256 22.141654 
L 36.934854 22.294681 
L 36.997452 22.447707 
L 37.06005 22.600734 
L 37.122648 22.75376 
L 37.185245 22.906786 
L 37.247843 23.059813 
L 37.310441 23.212839 
L 37.430983 23.407596 
L 37.551525 23.602353 
L 37.672067 23.79711 
L 37.792609 23.991867 
L 37.91315 24.186624 
L 38.033692 24.381381 
L 38.154234 24.576138 
L 38.274776 24.770895 
L 38.395318 24.965652 
L 38.515859 25.160409 
L 38.636401 25.355166 
L 38.756943 25.549923 
L 38.877485 25.74468 
L 38.998027 25.939437 
L 39.118568 26.134194 
L 39.23911 26.328951 
L 39.327193 26.468071 
L 39.415276 26.607191 
L 39.503359 26.746311 
L 39.591443 26.885431 
L 39.679526 27.024551 
L 39.767609 27.163671 
L 39.855692 27.30279 
L 39.943775 27.44191 
L 40.031858 27.58103 
L 40.119941 27.72015 
L 40.208024 27.85927 
L 40.296107 27.99839 
L 40.38419 28.13751 
L 40.472273 28.276629 
L 40.560356 28.415749 
L 40.648439 28.554869 
L 40.823678 28.823816 
L 40.998916 29.092763 
L 41.174154 29.36171 
L 41.349392 29.630657 
L 41.524631 29.899605 
L 41.699869 30.168552 
L 41.875107 30.437499 
L 42.050346 30.706446 
L 42.12731 30.891932 
L 42.204274 31.077418 
L 42.281238 31.262904 
L 42.358202 31.448389 
L 42.435167 31.633875 
L 42.512131 31.819361 
L 42.589095 32.004847 
L 42.666059 32.190333 
L 42.743023 32.375819 
L 42.819988 32.561305 
L 42.896952 32.746791 
L 42.973916 32.932277 
L 43.05088 33.117763 
L 43.127844 33.303249 
L 43.204809 33.488735 
L 43.281773 33.674221 
L 43.355953 33.864342 
L 43.430134 34.054464 
L 43.504315 34.244585 
L 43.578496 34.434707 
L 43.652676 34.624828 
L 43.726857 34.81495 
L 43.801038 35.005071 
L 43.875218 35.195193 
L 43.949399 35.385314 
L 44.02358 35.575436 
L 44.097761 35.765557 
L 44.171941 35.955679 
L 44.246122 36.1458 
L 44.320303 36.335922 
L 44.394484 36.526043 
L 44.468664 36.716165 
L 44.588293 36.906297 
L 44.707922 37.096429 
L 44.827551 37.286561 
L 44.94718 37.476694 
L 45.066809 37.666826 
L 45.186438 37.856958 
L 45.306067 38.04709 
L 45.425696 38.237223 
" style="fill:none;stroke:#000000;stroke-linecap:square;stroke-width:0.4;"/>
   </g>
   <g id="line2d_22">
    <path clip-path="url(#p01fe80cf09)" d="M 36.234649 28.962882 
L 36.049204 29.027801 
L 35.86376 29.09272 
L 35.678316 29.157639 
L 35.492871 29.222558 
L 35.307427 29.287477 
L 35.121983 29.352396 
L 34.936538 29.417315 
L 34.751094 29.482234 
L 34.546195 29.621343 
L 34.341297 29.760452 
L 34.136398 29.899561 
L 33.9315 30.03867 
L 33.726601 30.177779 
L 33.521702 30.316888 
L 33.316804 30.455998 
L 33.111905 30.595107 
L 32.9311 30.808427 
L 32.750295 31.021748 
L 32.569489 31.235069 
L 32.388684 31.448389 
L 32.207879 31.66171 
L 32.027074 31.875031 
L 31.846268 32.088352 
L 31.665463 32.301672 
L 31.597074 32.487158 
L 31.528685 32.672644 
L 31.460295 32.85813 
L 31.391906 33.043616 
L 31.323517 33.229102 
L 31.255127 33.414588 
L 31.186738 33.600074 
L 31.118349 33.78556 
" style="fill:none;stroke:#ff0000;stroke-linecap:square;stroke-width:0.4;"/>
   </g>
   <g id="line2d_23">
    <path clip-path="url(#p01fe80cf09)" d="M 35.715548 36.085646 
L 35.557909 35.839866 
L 35.400269 35.594086 
L 35.242629 35.348306 
L 35.08499 35.102525 
L 34.92735 34.856745 
L 34.76971 34.610965 
L 34.612071 34.365185 
L 34.454431 34.119404 
L 34.30146 33.91073 
L 34.14849 33.702056 
L 33.995519 33.493381 
L 33.842549 33.284707 
L 33.689578 33.076032 
L 33.536607 32.867358 
L 33.383637 32.658684 
L 33.230666 32.450009 
L 33.076738 32.208875 
L 32.922809 31.967742 
L 32.768881 31.726608 
L 32.614953 31.485474 
L 32.461024 31.24434 
L 32.307096 31.003206 
L 32.153167 30.762072 
L 31.999239 30.520938 
L 31.83699 30.353994 
L 31.674741 30.18705 
L 31.512493 30.020107 
L 31.350244 29.853163 
L 31.187995 29.686219 
L 31.025746 29.519275 
L 30.863497 29.352331 
L 30.701249 29.185387 
" style="fill:none;stroke:#008000;stroke-linecap:square;stroke-width:0.4;"/>
   </g>
   <g id="line2d_24">
    <path clip-path="url(#p01fe80cf09)" d="M 30.923686 33.822731 
L 30.951491 33.985028 
L 30.979295 34.147326 
L 31.0071 34.309623 
L 31.034905 34.471921 
L 31.062709 34.634218 
L 31.090514 34.796516 
L 31.118319 34.958813 
L 31.146123 35.121111 
L 31.183236 35.417871 
L 31.220349 35.714631 
L 31.257462 36.011391 
L 31.294575 36.308152 
L 31.276018 36.502909 
L 31.257462 36.697666 
L 31.238905 36.892423 
L 31.220349 37.08718 
L 31.201793 37.281937 
L 31.183236 37.476694 
L 31.16468 37.671451 
L 31.146123 37.866208 
L 31.127597 38.070257 
L 31.10907 38.274307 
L 31.090544 38.478357 
L 31.072017 38.682406 
L 31.053491 38.886456 
L 31.034965 39.090506 
L 31.016438 39.294555 
L 30.997912 39.498605 
L 31.002551 39.758281 
L 31.00719 40.017957 
L 31.011829 40.277633 
L 31.016468 40.537309 
L 31.021107 40.796985 
L 31.025746 41.056661 
L 31.030385 41.316337 
L 31.035024 41.576013 
L 31.053551 41.812501 
L 31.072077 42.048988 
L 31.090604 42.285476 
L 31.10913 42.521963 
L 31.127657 42.758451 
L 31.146183 42.994938 
L 31.16471 43.231426 
L 31.183236 43.467914 
L 31.275958 43.653421 
L 31.368681 43.838929 
L 31.461403 44.024436 
L 31.554125 44.209944 
L 31.739689 44.46962 
" style="fill:none;stroke:#4169e1;stroke-linecap:square;stroke-width:0.4;"/>
   </g>
   <g id="line2d_25">
    <path clip-path="url(#p01fe80cf09)" d="M 31.823013 44.617957 
L 32.024679 44.673626 
L 32.226346 44.729296 
L 32.428012 44.784965 
L 32.629678 44.840635 
L 32.88001 44.914803 
L 33.130342 44.988972 
L 33.380674 45.06314 
L 33.631006 45.137309 
L 33.760841 45.276439 
L 33.890676 45.41557 
L 34.02051 45.554701 
L 34.150345 45.693831 
L 34.28018 45.832962 
L 34.410015 45.972093 
L 34.53985 46.111223 
L 34.669685 46.250354 
L 34.754057 46.412652 
L 34.838429 46.574949 
L 34.922801 46.737247 
L 35.007172 46.899544 
L 35.091544 47.061842 
L 35.175916 47.224139 
L 35.260288 47.386437 
L 35.34466 47.548734 
L 35.427176 47.738866 
L 35.509692 47.928999 
L 35.592208 48.119131 
L 35.674724 48.309263 
L 35.75724 48.499396 
L 35.839756 48.689528 
L 35.922273 48.87966 
L 36.004789 49.069792 
L 36.099367 49.338718 
L 36.193944 49.607643 
L 36.288522 49.876569 
L 36.3831 50.145494 
L 36.359007 50.433005 
L 36.334913 50.720516 
L 36.31082 51.008027 
L 36.286726 51.295537 
L 36.262633 51.583048 
L 36.23854 51.870559 
L 36.214446 52.15807 
L 36.190353 52.44558 
L 36.245962 52.714549 
L 36.301572 52.983518 
L 36.357181 53.252486 
L 36.41279 53.521455 
L 36.516467 53.646193 
L 36.620143 53.770931 
L 36.72382 53.895669 
L 36.827496 54.020406 
L 36.931172 54.145144 
L 37.034849 54.269882 
L 37.138525 54.39462 
L 37.242202 54.519358 
" style="fill:none;stroke:#008000;stroke-linecap:square;stroke-width:0.4;"/>
   </g>
   <g id="line2d_26">
    <path clip-path="url(#p01fe80cf09)" d="M 36.457326 35.454955 
L 36.44248 35.682172 
L 36.427635 35.909388 
L 36.41279 36.136605 
L 36.397945 36.363821 
L 36.3831 36.591038 
L 36.368255 36.818254 
L 36.35341 37.045471 
L 36.338565 37.272687 
L 36.322343 37.448902 
L 36.306121 37.625117 
L 36.289899 37.801332 
L 36.273677 37.977547 
L 36.257455 38.153762 
L 36.241233 38.329977 
L 36.225011 38.506191 
L 36.208789 38.682406 
L 36.192568 38.858621 
L 36.176346 39.034836 
L 36.160124 39.211051 
L 36.143902 39.387266 
L 36.12768 39.563481 
L 36.111458 39.739696 
L 36.095236 39.915911 
L 36.079014 40.092125 
L 36.048755 40.315171 
L 36.018497 40.538217 
L 35.988238 40.761262 
L 35.957979 40.984308 
L 35.92772 41.207354 
L 35.897461 41.430399 
L 35.867202 41.653445 
L 35.836943 41.87649 
L 35.806684 42.099536 
L 35.776425 42.322582 
L 35.746166 42.545627 
L 35.715907 42.768673 
L 35.685649 42.991718 
L 35.65539 43.214764 
L 35.625131 43.43781 
L 35.594872 43.660855 
L 35.562548 43.838929 
L 35.530224 44.017002 
L 35.4979 44.195076 
L 35.465576 44.373149 
L 35.433251 44.551222 
L 35.400927 44.729296 
L 35.368603 44.907369 
L 35.336279 45.085443 
L 35.303955 45.263516 
L 35.271631 45.44159 
L 35.239307 45.619663 
L 35.206983 45.797736 
L 35.174659 45.97581 
L 35.142335 46.153883 
L 35.110011 46.331957 
L 35.077687 46.51003 
" style="fill:none;stroke:#000000;stroke-linecap:square;stroke-width:0.4;"/>
   </g>
   <g id="line2d_27">
    <path clip-path="url(#p01fe80cf09)" d="M 33.527329 19.540032 
L 33.609845 19.827542 
L 33.692361 20.115053 
L 33.774878 20.402564 
L 33.857394 20.690075 
L 33.93991 20.977586 
L 34.022426 21.265096 
L 34.104942 21.552607 
L 34.187458 21.840118 
L 34.238922 21.99778 
L 34.290386 22.155442 
L 34.341851 22.313104 
L 34.393315 22.470766 
L 34.444779 22.628428 
L 34.496243 22.78609 
L 34.547707 22.943752 
L 34.599171 23.101414 
L 34.650635 23.259076 
L 34.702099 23.416738 
L 34.753563 23.5744 
L 34.805027 23.732062 
L 34.856491 23.889724 
L 34.907956 24.047386 
L 34.95942 24.205048 
L 35.010884 24.36271 
L 35.156701 24.503656 
L 35.302519 24.644602 
L 35.448336 24.785547 
L 35.594153 24.926493 
L 35.61271 25.112001 
L 35.631266 25.297509 
L 35.649823 25.483016 
L 35.668379 25.668524 
L 35.728628 25.960659 
L 35.788876 26.252795 
L 35.849124 26.54493 
L 35.909373 26.837066 
L 35.969621 27.129201 
L 36.02987 27.421337 
L 36.090118 27.713472 
L 36.150367 28.005608 
L 36.171437 28.244926 
L 36.192508 28.484245 
L 36.213578 28.723564 
L 36.234649 28.962882 
L 36.241413 29.233666 
L 36.248177 29.50445 
L 36.254941 29.775234 
L 36.261705 30.046018 
L 36.303248 30.234594 
L 36.34479 30.423171 
L 36.386332 30.611747 
L 36.427875 30.800323 
L 36.469417 30.9889 
L 36.51096 31.177476 
L 36.552502 31.366052 
L 36.594044 31.554628 
L 36.651749 31.816811 
L 36.709453 32.078994 
L 36.70019 32.241302 
L 36.690927 32.403611 
L 36.681664 32.565919 
L 36.6724 32.728227 
L 36.663137 32.890536 
L 36.653874 33.052844 
L 36.644611 33.215152 
L 36.635347 33.377461 
L 36.626084 33.539769 
L 36.616821 33.702077 
L 36.607558 33.864386 
L 36.598294 34.026694 
L 36.589031 34.189002 
L 36.579768 34.351311 
L 36.570505 34.513619 
L 36.561241 34.675927 
" style="fill:none;stroke:#4169e1;stroke-linecap:square;stroke-width:0.4;"/>
   </g>
   <g id="line2d_28">
    <path clip-path="url(#p01fe80cf09)" d="M 29.301018 18.352991 
L 28.460772 19.774942 
L 28.033915 21.171954 
L 27.93808 22.647067 
L 28.225585 24.177245 
L 28.999806 25.716846 
L 30.144796 27.627331 
L 30.052134 29.537904 
L 29.773907 31.74515 
L 30.701249 33.377547 
L 29.189829 42.266934 
L 28.799217 43.268575 
L 27.034264 45.285732 
L 26.06532 46.074053 
L 24.924819 46.769706 
L 24.924819 46.769706 
" style="fill:none;stroke:#000000;stroke-linecap:square;stroke-width:0.4;"/>
   </g>
   <g id="line2d_29">
    <path clip-path="url(#p01fe80cf09)" d="M 36.568664 32.413012 
L 36.403849 32.618207 
L 36.239033 32.823402 
L 36.074218 33.028597 
L 35.909403 33.233792 
L 35.744588 33.438987 
L 35.579772 33.644182 
L 35.414957 33.849377 
L 35.250142 34.054572 
L 35.085326 34.259767 
L 34.920511 34.464962 
L 34.755696 34.670157 
L 34.59088 34.875352 
L 34.426065 35.080547 
L 34.26125 35.285742 
L 34.096435 35.490937 
L 33.931619 35.696132 
L 33.766804 35.901327 
L 33.601989 36.106522 
L 33.437173 36.311717 
L 33.272358 36.516912 
L 33.107543 36.722107 
L 32.942728 36.927303 
L 32.777912 37.132498 
L 32.613097 37.337693 
L 32.448282 37.542888 
L 32.283466 37.748083 
L 32.118651 37.953278 
L 31.953836 38.158473 
L 31.78902 38.363668 
L 31.624205 38.568863 
L 31.45939 38.774058 
L 31.294575 38.979253 
" style="fill:none;stroke:#ff0000;stroke-linecap:square;stroke-width:0.4;"/>
   </g>
   <g id="line2d_30">
    <path clip-path="url(#p01fe80cf09)" d="M 32.156789 20.096554 
L 32.044373 20.231039 
L 31.931957 20.365523 
L 31.819541 20.500007 
L 31.707125 20.634492 
L 31.594709 20.768976 
L 31.482294 20.90346 
L 31.369878 21.037945 
L 31.257462 21.172429 
L 31.138102 21.464565 
L 31.018743 21.7567 
L 30.899383 22.048836 
L 30.780023 22.340971 
L 30.660664 22.633107 
L 30.541304 22.925242 
L 30.421945 23.217378 
L 30.302585 23.509513 
L 30.171613 23.778482 
L 30.040641 24.04745 
L 29.909668 24.316419 
L 29.778696 24.585388 
L 29.647724 24.854356 
L 29.516751 25.123325 
L 29.385779 25.392294 
L 29.254807 25.661262 
" style="fill:none;stroke:#ff0000;stroke-linecap:square;stroke-width:0.4;"/>
   </g>
   <g id="line2d_31">
    <path clip-path="url(#p01fe80cf09)" d="M 31.563463 44.877633 
L 31.804576 45.044641 
L 32.04569 45.21165 
L 32.114049 45.406407 
L 32.182409 45.601164 
L 32.250768 45.795921 
L 32.319128 45.990678 
L 32.387487 46.185435 
L 32.455846 46.380192 
L 32.524206 46.574949 
L 32.592565 46.769706 
L 32.653771 46.941275 
L 32.714978 47.112843 
L 32.776184 47.284412 
L 32.83739 47.45598 
L 32.898596 47.627549 
L 32.959802 47.799117 
L 33.021009 47.970686 
L 33.082215 48.142255 
L 33.201814 48.3602 
L 33.321413 48.578145 
L 33.441012 48.796091 
L 33.560611 49.014036 
L 33.68021 49.231982 
L 33.799809 49.449927 
L 33.919408 49.667873 
L 34.039007 49.885818 
L 34.137536 50.063222 
L 34.236064 50.240625 
L 34.334593 50.418029 
L 34.433121 50.595432 
L 34.53165 50.772836 
L 34.630178 50.950239 
L 34.728707 51.127643 
L 34.827235 51.305046 
L 34.908345 51.451049 
L 34.989454 51.597052 
L 35.070564 51.743055 
L 35.151673 51.889058 
L 35.229011 52.058833 
L 35.303746 52.223097 
L 35.37848 52.387361 
L 35.453215 52.551625 
L 35.527949 52.715889 
L 35.602683 52.880153 
L 35.677418 53.044417 
L 35.752152 53.208681 
L 35.826887 53.372945 
L 35.973363 53.632665 
L 36.119838 53.892384 
L 36.266314 54.152103 
L 36.41279 54.411822 
L 36.542625 54.532368 
L 36.67246 54.652913 
L 36.802295 54.773458 
L 36.93213 54.894004 
" style="fill:none;stroke:#008000;stroke-linecap:square;stroke-width:0.4;"/>
   </g>
   <g id="line2d_32">
    <path clip-path="url(#p01fe80cf09)" d="M 36.457326 34.712925 
L 36.368315 34.926246 
L 36.279304 35.139566 
L 36.190293 35.352887 
L 36.101282 35.566208 
L 36.012271 35.779529 
L 35.92326 35.992849 
L 35.834249 36.20617 
L 35.745239 36.419491 
L 35.66178 36.586424 
L 35.578321 36.753357 
L 35.494862 36.92029 
L 35.411403 37.087223 
L 35.327944 37.254156 
L 35.244485 37.421089 
L 35.161026 37.588022 
L 35.077567 37.754955 
L 34.994108 37.921888 
L 34.910649 38.088821 
L 34.82719 38.255754 
L 34.743731 38.422687 
L 34.660272 38.58962 
L 34.576814 38.756553 
L 34.493355 38.923486 
L 34.409896 39.090419 
L 34.317637 39.227216 
L 34.225379 39.364013 
L 34.133121 39.500809 
L 34.040863 39.637606 
L 33.948604 39.774403 
L 33.856346 39.911199 
L 33.764088 40.047996 
L 33.67183 40.184793 
L 33.579571 40.32159 
L 33.487313 40.458386 
L 33.395055 40.595183 
L 33.302797 40.73198 
L 33.210538 40.868776 
L 33.11828 41.005573 
L 33.026022 41.14237 
L 32.933764 41.279166 
L 32.84812 41.443787 
L 32.762476 41.608408 
L 32.676832 41.773028 
L 32.591188 41.937649 
L 32.505545 42.10227 
L 32.419901 42.26689 
L 32.334257 42.431511 
L 32.248613 42.596132 
L 32.162969 42.760752 
L 32.077326 42.925373 
L 31.991682 43.089994 
L 31.906038 43.254614 
L 31.820394 43.419235 
L 31.73475 43.583856 
L 31.649107 43.748476 
L 31.563463 43.913097 
" style="fill:none;stroke:#000000;stroke-linecap:square;stroke-width:0.4;"/>
   </g>
   <g id="line2d_33">
    <path clip-path="url(#p01fe80cf09)" d="M 33.861105 22.062796 
L 33.725733 22.192634 
L 33.590361 22.322472 
L 33.454989 22.45231 
L 33.319617 22.582148 
L 33.184245 22.711986 
L 33.048873 22.841824 
L 32.913501 22.971662 
L 32.778129 23.1015 
L 32.672657 23.314799 
L 32.567185 23.528098 
L 32.461713 23.741398 
L 32.35624 23.954697 
L 32.250768 24.167996 
L 32.145296 24.381295 
L 32.039824 24.594594 
L 31.934352 24.807893 
L 31.835823 25.076862 
L 31.737295 25.34583 
L 31.638766 25.614799 
L 31.540237 25.883768 
L 31.441709 26.152736 
L 31.34318 26.421705 
L 31.244652 26.690674 
L 31.146123 26.959642 
L 31.034875 27.256424 
L 30.923626 27.553206 
L 30.812377 27.849988 
L 30.701129 28.14677 
L 30.58988 28.443552 
L 30.478632 28.740334 
L 30.367383 29.037115 
L 30.256134 29.333897 
" style="fill:none;stroke:#ff0000;stroke-linecap:square;stroke-width:0.4;"/>
   </g>
   <g id="line2d_34">
    <path clip-path="url(#p01fe80cf09)" d="M 34.899545 24.882234 
L 34.736369 25.007426 
L 34.573192 25.132618 
L 34.410015 25.257809 
L 34.246839 25.383001 
L 34.083662 25.508193 
L 33.920485 25.633384 
L 33.757309 25.758576 
L 33.594132 25.883768 
L 33.478215 26.03217 
L 33.362297 26.180571 
L 33.246379 26.328973 
L 33.130462 26.477375 
L 33.014544 26.625776 
L 32.898626 26.774178 
L 32.782708 26.92258 
L 32.666791 27.070982 
L 32.550903 27.367742 
L 32.435015 27.664502 
L 32.319128 27.961262 
L 32.20324 28.258023 
L 32.087352 28.554783 
L 31.971464 28.851543 
L 31.855577 29.148303 
L 31.739689 29.445063 
L 31.619132 29.672302 
L 31.498575 29.89954 
L 31.378019 30.126778 
L 31.257462 30.354016 
L 31.136905 30.581254 
L 31.016348 30.808492 
L 30.895791 31.03573 
L 30.775235 31.262968 
L 30.752069 31.453079 
L 30.728904 31.64319 
L 30.705738 31.8333 
L 30.682572 32.023411 
L 30.659407 32.213522 
L 30.636241 32.403632 
L 30.613076 32.593743 
L 30.58991 32.783854 
" style="fill:none;stroke:#ff0000;stroke-linecap:square;stroke-width:0.4;"/>
   </g>
   <g id="line2d_35">
    <path clip-path="url(#p01fe80cf09)" d="M 38.227487 17.284377 
L 38.195028 17.476822 
L 38.162569 17.669267 
L 38.130111 17.861711 
L 38.097652 18.054156 
L 38.065193 18.246601 
L 38.032734 18.439045 
L 38.000276 18.63149 
L 37.967817 18.823934 
L 37.935358 19.016379 
L 37.902899 19.208824 
L 37.870441 19.401268 
L 37.837982 19.593713 
L 37.805523 19.786158 
L 37.773064 19.978602 
L 37.740606 20.171047 
L 37.708147 20.363492 
L 37.69423 20.613897 
L 37.680312 20.864301 
L 37.666395 21.114706 
L 37.652478 21.365111 
L 37.63856 21.615516 
L 37.624643 21.865921 
L 37.610726 22.116326 
L 37.596809 22.366731 
L 37.571316 22.549899 
L 37.545823 22.733068 
L 37.520331 22.916236 
L 37.494838 23.099404 
L 37.469346 23.282572 
L 37.443853 23.46574 
L 37.41836 23.648908 
L 37.392868 23.832077 
L 37.367375 24.015245 
L 37.341882 24.198413 
L 37.31639 24.381581 
L 37.290897 24.564749 
L 37.265405 24.747918 
L 37.239912 24.931086 
L 37.214419 25.114254 
L 37.188927 25.297422 
L 37.163434 25.48059 
L 37.137942 25.663759 
L 37.112449 25.846927 
L 37.086956 26.030095 
L 37.061464 26.213263 
L 37.035971 26.396431 
L 37.010479 26.579599 
L 36.984986 26.762768 
L 36.959493 26.945936 
L 36.934001 27.129104 
L 36.908508 27.312272 
L 36.883016 27.49544 
L 36.857523 27.678609 
L 36.83203 27.861777 
L 36.806538 28.044945 
L 36.781045 28.228113 
" style="fill:none;stroke:#ff0000;stroke-linecap:square;stroke-width:0.4;"/>
   </g>
   <g id="line2d_36">
    <path clip-path="url(#p01fe80cf09)" d="M 34.592586 17.952239 
L 34.657504 18.202644 
L 34.722421 18.453049 
L 34.787339 18.703454 
L 34.852256 18.953859 
L 34.917174 19.204264 
L 34.982091 19.454669 
L 35.047009 19.705074 
L 35.111926 19.955479 
L 35.204649 20.238343 
L 35.297371 20.521208 
L 35.390093 20.804072 
L 35.482815 21.086936 
L 35.575537 21.369801 
L 35.668259 21.652665 
L 35.760982 21.93553 
L 35.853704 22.218394 
L 35.904704 22.482717 
L 35.955704 22.747039 
L 36.006704 23.011361 
L 36.057704 23.275684 
L 36.108705 23.540006 
L 36.159705 23.804328 
L 36.210705 24.068651 
L 36.261705 24.332973 
L 36.303427 24.578732 
L 36.345149 24.82449 
L 36.386871 25.070249 
L 36.428593 25.316007 
L 36.470315 25.561766 
L 36.512037 25.807525 
L 36.553759 26.053283 
L 36.595481 26.299042 
L 36.595421 26.493572 
L 36.595361 26.688102 
L 36.595301 26.882632 
L 36.595242 27.077162 
L 36.595182 27.271692 
L 36.595122 27.466222 
L 36.595062 27.660753 
L 36.595002 27.855283 
L 36.594942 28.049813 
L 36.594882 28.244343 
L 36.594823 28.438873 
L 36.594763 28.633403 
L 36.594703 28.827933 
L 36.594643 29.022463 
L 36.594583 29.216993 
L 36.594523 29.411523 
L 36.594463 29.679412 
L 36.594404 29.9473 
L 36.594344 30.215188 
L 36.594284 30.483076 
L 36.594224 30.750964 
L 36.594164 31.018852 
L 36.594104 31.28674 
L 36.594044 31.554628 
" style="fill:none;stroke:#4169e1;stroke-linecap:square;stroke-width:0.4;"/>
   </g>
   <g id="line2d_37">
    <path clip-path="url(#p01fe80cf09)" d="M 36.781045 28.228113 
L 36.734415 28.523966 
L 36.687784 28.819818 
L 36.641154 29.115671 
L 36.594523 29.411523 
L 36.67261 29.689763 
L 36.750696 29.968003 
L 36.828783 30.246243 
L 36.906869 30.524482 
L 36.984956 30.802722 
L 37.063043 31.080962 
L 37.141129 31.359202 
L 37.219216 31.637441 
L 37.265607 31.878575 
L 37.311998 32.119709 
L 37.358389 32.360843 
L 37.40478 32.601977 
L 37.460419 32.782816 
L 37.516058 32.963656 
L 37.571698 33.144496 
L 37.627337 33.325335 
L 37.682976 33.506175 
L 37.738615 33.687015 
L 37.794255 33.867854 
L 37.849894 34.048694 
L 37.914782 34.271286 
L 37.979669 34.493877 
L 38.044557 34.716469 
L 38.109444 34.939061 
L 38.174332 35.161653 
L 38.239219 35.384244 
L 38.304107 35.606836 
L 38.368994 35.829428 
L 38.491856 36.109969 
L 38.614717 36.390511 
L 38.737579 36.671052 
L 38.86044 36.951593 
L 38.983301 37.232134 
L 39.106163 37.512676 
L 39.229024 37.793217 
L 39.351885 38.073758 
L 39.474747 38.3543 
L 39.597608 38.634841 
L 39.720469 38.915382 
L 39.843331 39.195923 
L 39.966192 39.476465 
L 40.089053 39.757006 
L 40.211915 40.037547 
L 40.334776 40.318089 
L 40.483168 40.577808 
L 40.631559 40.837527 
L 40.77995 41.097246 
L 40.928342 41.356965 
L 41.034981 41.509992 
L 41.141621 41.663018 
L 41.24826 41.816045 
L 41.3549 41.969071 
L 41.461539 42.122098 
L 41.568178 42.275124 
L 41.674818 42.428151 
L 41.781457 42.581177 
L 41.81851 42.803726 
L 41.855563 43.026274 
L 41.892616 43.248823 
L 41.929669 43.471371 
L 42.096617 43.721798 
L 42.263565 43.972224 
L 42.430513 44.222651 
L 42.59746 44.473078 
L 42.724003 44.757044 
L 42.850546 45.041011 
" style="fill:none;stroke:#000000;stroke-linecap:square;stroke-width:0.4;"/>
   </g>
   <g id="line2d_38">
    <path clip-path="url(#p01fe80cf09)" d="M 36.781045 28.228113 
L 36.936979 28.421962 
L 37.092912 28.615812 
L 37.248846 28.809661 
L 37.40478 29.003511 
L 37.474336 29.188996 
L 37.543893 29.374482 
L 37.613449 29.559968 
L 37.683006 29.745454 
L 37.752563 29.93094 
L 37.822119 30.116426 
L 37.891676 30.301912 
L 37.961232 30.487398 
L 38.030759 30.719239 
L 38.100286 30.951081 
L 38.169812 31.182922 
L 38.239339 31.414763 
L 38.308866 31.646604 
L 38.378392 31.878445 
L 38.447919 32.110287 
L 38.517446 32.342128 
L 38.603224 32.536896 
L 38.689003 32.731664 
L 38.774781 32.926431 
L 38.86056 33.121199 
L 38.946338 33.315967 
L 39.032117 33.510735 
L 39.117895 33.705503 
L 39.203674 33.90027 
L 39.289452 34.095038 
L 39.37523 34.289806 
L 39.461009 34.484574 
L 39.546787 34.679342 
L 39.632566 34.874109 
L 39.718344 35.068877 
L 39.804123 35.263645 
L 39.889901 35.458413 
L 40.038233 35.708796 
L 40.186564 35.95918 
L 40.334896 36.209563 
L 40.483227 36.459946 
L 40.715063 36.654746 
L 40.946898 36.849547 
L 41.178733 37.044347 
L 41.410569 37.239147 
L 41.55893 37.355068 
L 41.707292 37.470988 
L 41.855653 37.586909 
L 42.004015 37.70283 
L 42.152376 37.81875 
L 42.300737 37.934671 
L 42.449099 38.050591 
L 42.59746 38.166512 
L 42.745792 38.333434 
L 42.894123 38.500357 
L 43.042455 38.667279 
L 43.190786 38.834201 
L 43.283509 39.010416 
L 43.376231 39.186631 
L 43.468953 39.362846 
L 43.561675 39.539061 
L 43.654397 39.715275 
L 43.747119 39.89149 
L 43.839842 40.067705 
L 43.932564 40.24392 
L 43.978925 40.41551 
L 44.025286 40.5871 
L 44.071647 40.758691 
L 44.118008 40.930281 
L 44.164369 41.101871 
L 44.21073 41.273461 
L 44.257091 41.445051 
L 44.303452 41.616641 
L 44.384322 41.908907 
L 44.465192 42.201172 
L 44.546062 42.493437 
L 44.626932 42.785702 
" style="fill:none;stroke:#000000;stroke-linecap:square;stroke-width:0.4;"/>
   </g>
   <g id="line2d_39">
    <path clip-path="url(#p01fe80cf09)" d="M 36.457326 34.712925 
L 36.457326 34.898432 
L 36.457326 35.08394 
L 36.457326 35.269448 
L 36.457326 35.454955 
L 36.534035 35.71971 
L 36.610745 35.984464 
L 36.687455 36.249219 
L 36.764165 36.513973 
L 36.840875 36.778728 
L 36.917584 37.043482 
L 36.994294 37.308237 
L 37.071004 37.572992 
L 37.094184 37.756154 
L 37.117365 37.939317 
L 37.140545 38.12248 
L 37.163726 38.305643 
L 37.186907 38.488806 
L 37.210087 38.671968 
L 37.233268 38.855131 
L 37.256448 39.038294 
L 37.279629 39.221457 
L 37.302809 39.404619 
L 37.32599 39.587782 
L 37.34917 39.770945 
L 37.372351 39.954108 
L 37.395531 40.137271 
L 37.418712 40.320433 
L 37.441893 40.503596 
L 37.474336 40.726188 
L 37.50678 40.94878 
L 37.539224 41.171371 
L 37.571668 41.393963 
L 37.604111 41.616555 
L 37.636555 41.839147 
L 37.668999 42.061739 
L 37.701443 42.28433 
L 37.672276 42.453533 
L 37.64311 42.622735 
L 37.613943 42.791937 
L 37.584777 42.961139 
L 37.55561 43.130341 
L 37.526444 43.299543 
L 37.497277 43.468746 
L 37.468111 43.637948 
L 37.438944 43.80715 
L 37.409778 43.976352 
L 37.380611 44.145554 
L 37.351445 44.314756 
L 37.322279 44.483959 
L 37.293112 44.653161 
L 37.263946 44.822363 
L 37.234779 44.991565 
L 37.209668 45.167607 
L 37.184557 45.343649 
L 37.159446 45.519691 
L 37.134335 45.695733 
L 37.109224 45.871775 
L 37.084113 46.047817 
L 37.059002 46.223859 
L 37.033891 46.399901 
L 37.0385 46.654672 
L 37.043109 46.909442 
L 37.047719 47.164212 
L 37.052328 47.418983 
L 37.056937 47.673753 
L 37.061546 47.928523 
L 37.066155 48.183294 
L 37.070764 48.438064 
L 37.1024 48.685314 
L 37.134036 48.932563 
L 37.165671 49.179813 
L 37.197307 49.427063 
L 37.228943 49.674313 
L 37.260578 49.921563 
L 37.292214 50.168812 
L 37.32385 50.416062 
L 37.321306 50.648379 
L 37.318762 50.880695 
L 37.316218 51.113012 
L 37.313674 51.345329 
L 37.31113 51.577645 
L 37.308586 51.809962 
L 37.306042 52.042279 
L 37.303498 52.274595 
L 37.300954 52.506912 
L 37.29841 52.739229 
L 37.295866 52.971545 
L 37.293322 53.203862 
L 37.290778 53.436179 
L 37.288234 53.668495 
L 37.285689 53.900812 
L 37.283145 54.133129 
" style="fill:none;stroke:#000000;stroke-linecap:square;stroke-width:0.4;"/>
   </g>
   <g id="line2d_40">
    <path clip-path="url(#p01fe80cf09)" d="M 37.071004 37.572992 
L 37.265726 37.739914 
L 37.460449 37.906836 
L 37.655171 38.073758 
L 37.849894 38.240681 
L 37.979669 38.481814 
L 38.109444 38.722948 
L 38.239219 38.964082 
L 38.368994 39.205216 
L 38.445495 39.406932 
L 38.521995 39.608647 
L 38.598495 39.810363 
L 38.674996 40.012079 
L 38.751496 40.213795 
L 38.827996 40.41551 
L 38.904496 40.617226 
L 38.980997 40.818942 
L 39.057497 41.020657 
L 39.133997 41.222373 
L 39.210497 41.424089 
L 39.286998 41.625804 
L 39.363498 41.82752 
L 39.439998 42.029236 
L 39.516499 42.230952 
L 39.592999 42.432667 
L 39.611555 42.748013 
L 39.630112 43.063358 
L 39.648668 43.378704 
L 39.667224 43.69405 
L 39.722864 43.870264 
L 39.778503 44.046479 
L 39.834142 44.222694 
L 39.889782 44.398909 
L 39.945421 44.575124 
L 40.00106 44.751339 
L 40.056699 44.927554 
L 40.112339 45.103769 
L 40.12455 45.341402 
L 40.136761 45.579035 
L 40.149212 45.821897 
L 40.161663 46.06476 
L 40.174114 46.307623 
L 40.186564 46.550486 
L 40.140203 46.745264 
L 40.093842 46.940043 
L 40.047481 47.134821 
L 40.00112 47.3296 
L 39.954759 47.524379 
L 39.908398 47.719157 
L 39.862037 47.913936 
L 39.815676 48.108715 
L 39.746119 48.261741 
L 39.676563 48.414767 
L 39.607006 48.567794 
L 39.537449 48.72082 
L 39.467893 48.873847 
L 39.398336 49.026873 
L 39.32878 49.1799 
L 39.259223 49.332926 
L 39.083057 49.57406 
L 38.906891 49.815194 
L 38.730725 50.056328 
L 38.554558 50.297462 
L 38.44328 50.547845 
L 38.332001 50.798228 
L 38.220723 51.048612 
L 38.109444 51.298995 
L 38.044557 51.605048 
L 37.979669 51.911101 
L 37.914782 52.217154 
L 37.849894 52.523207 
L 37.826698 52.717964 
L 37.803503 52.912721 
L 37.780307 53.107478 
L 37.757112 53.302235 
L 37.733916 53.496992 
L 37.710721 53.691749 
L 37.687525 53.886506 
L 37.66433 54.081263 
" style="fill:none;stroke:#000000;stroke-linecap:square;stroke-width:0.4;"/>
   </g>
   <g id="line2d_41">
    <path clip-path="url(#p01fe80cf09)" d="M 32.175226 44.324741 
L 32.407031 44.334012 
L 32.638836 44.343283 
L 32.870642 44.352554 
L 33.102447 44.361825 
L 33.334253 44.371096 
L 33.566058 44.380367 
L 33.797864 44.389638 
L 34.029669 44.398909 
L 34.312475 44.449911 
L 34.59528 44.500912 
L 34.878086 44.551914 
L 35.160891 44.602916 
L 35.443697 44.653917 
L 35.726503 44.704919 
L 36.009308 44.75592 
L 36.292114 44.806922 
L 36.52778 44.853083 
L 36.763446 44.899244 
L 36.999113 44.945404 
L 37.234779 44.991565 
L 37.484572 45.040492 
L 37.734365 45.089419 
L 37.984159 45.138346 
L 38.233952 45.187273 
L 38.471803 45.236243 
L 38.709654 45.285213 
L 38.947505 45.334184 
L 39.185357 45.383154 
L 39.423208 45.432124 
L 39.661059 45.481094 
L 39.89891 45.530064 
L 40.136761 45.579035 
" style="fill:none;stroke:#008000;stroke-linecap:square;stroke-width:0.4;"/>
   </g>
   <g id="line2d_42">
    <path clip-path="url(#p01fe80cf09)" d="M 35.516815 52.806049 
L 35.386082 53.059934 
L 35.255349 53.313818 
L 35.124617 53.567702 
L 34.993884 53.821587 
L 34.882665 54.062721 
L 34.771446 54.303854 
L 34.660228 54.544988 
L 34.549009 54.786122 
L 34.49337 54.962337 
L 34.43773 55.138552 
L 34.382091 55.314767 
L 34.326452 55.490982 
L 34.270812 55.667197 
L 34.215173 55.843412 
L 34.159534 56.019626 
L 34.103895 56.195841 
" style="fill:none;stroke:#008000;stroke-linecap:square;stroke-width:0.4;"/>
   </g>
   <g id="line2d_43">
    <path clip-path="url(#p01fe80cf09)" d="M 30.506346 45.140766 
L 30.413564 45.363358 
L 30.320782 45.58595 
L 30.320782 45.864211 
L 30.320782 46.142473 
L 30.38573 46.420691 
L 30.450677 46.698909 
L 30.515625 46.977127 
L 30.580572 47.255345 
L 30.64546 47.533607 
L 30.710347 47.811868 
L 30.775235 48.090129 
L 30.840122 48.368391 
L 30.85404 48.54923 
L 30.867957 48.73007 
L 30.881874 48.910909 
L 30.895791 49.091749 
L 30.909709 49.272589 
L 30.923626 49.453428 
L 30.937543 49.634268 
L 30.951461 49.815107 
L 30.969957 49.991322 
L 30.988454 50.167537 
L 31.00695 50.343752 
L 31.025447 50.519967 
L 31.053281 50.686911 
L 31.081116 50.853855 
L 31.108951 51.020799 
L 31.136785 51.187742 
L 31.16462 51.354686 
L 31.192455 51.52163 
L 31.220289 51.688574 
L 31.248124 51.855518 
L 31.359402 51.994605 
L 31.470681 52.133693 
L 31.581959 52.27278 
L 31.693238 52.411868 
L 31.860126 52.430453 
L 32.027014 52.449038 
L 32.193902 52.467624 
L 32.36079 52.486209 
L 32.583287 52.439832 
L 32.805784 52.393455 
L 33.028282 52.347078 
L 33.250779 52.300701 
L 33.473336 52.254324 
L 33.695893 52.207948 
L 33.91845 52.161571 
L 34.141007 52.115194 
L 34.413008 52.101103 
L 34.685009 52.087013 
L 34.95701 52.072923 
L 35.229011 52.058833 
" style="fill:none;stroke:#008000;stroke-linecap:square;stroke-width:0.4;"/>
   </g>
   <g id="line2d_44">
    <path clip-path="url(#p01fe80cf09)" d="M 32.154873 50.143938 
L 32.345406 50.228653 
L 32.535938 50.313367 
L 32.726471 50.398082 
L 32.917003 50.482796 
L 33.168891 50.55221 
L 33.420779 50.621624 
L 33.610115 50.698213 
L 33.79945 50.774802 
L 33.988785 50.851391 
L 34.17812 50.92798 
L 34.340399 51.022246 
L 34.502678 51.116513 
L 34.664956 51.21078 
L 34.827235 51.305046 
" style="fill:none;stroke:#008000;stroke-linecap:square;stroke-width:0.4;"/>
   </g>
   <g id="line2d_45">
    <path clip-path="url(#p01fe80cf09)" d="M 29.987007 45.177937 
L 29.783066 45.372694 
L 29.579125 45.567451 
L 29.375184 45.762208 
L 29.171243 45.956965 
L 29.050686 46.235183 
L 28.930129 46.513401 
L 28.809573 46.791619 
L 28.689016 47.069838 
L 28.592163 47.271164 
L 28.495311 47.472491 
L 28.358832 47.755853 
L 28.28293 47.913698 
L 28.207028 48.071544 
L 28.132803 48.32197 
L 28.058577 48.572397 
L 27.984351 48.822824 
L 27.910126 49.07325 
L 27.808185 49.379303 
L 27.706245 49.685356 
L 27.604304 49.991409 
L 27.502364 50.297462 
L 27.437416 50.57568 
L 27.372469 50.853898 
L 27.307522 51.132116 
L 27.242574 51.410334 
L 27.177687 51.651468 
L 27.112799 51.892602 
L 27.047911 52.133736 
L 26.983024 52.37487 
L 26.964467 52.569627 
L 26.945911 52.764384 
L 26.927355 52.959141 
L 26.908798 53.153898 
L 26.871745 53.385739 
L 26.834692 53.61758 
L 26.797639 53.849421 
L 26.760586 54.081263 
L 26.881083 54.303854 
L 27.00158 54.526446 
L 27.122077 54.749038 
L 27.242574 54.97163 
L 27.45729 55.145943 
L 27.672005 55.320256 
L 27.886721 55.494569 
L 28.101436 55.668882 
L 28.276345 55.835718 
L 28.451255 56.002554 
L 28.626164 56.16939 
L 28.801073 56.336225 
L 28.986427 56.351137 
L 29.171782 56.366048 
L 29.357136 56.38096 
L 29.542491 56.395871 
L 29.727845 56.410783 
L 29.9132 56.425694 
L 30.098554 56.440606 
L 30.283909 56.455517 
L 30.540766 56.489144 
L 30.797622 56.52277 
L 31.054479 56.556397 
L 31.311335 56.590023 
L 31.582558 56.576106 
L 31.853781 56.562189 
L 32.125004 56.548271 
L 32.396226 56.534354 
L 32.667449 56.520436 
L 32.938672 56.506519 
L 33.209895 56.492602 
L 33.481118 56.478684 
" style="fill:none;stroke:#008000;stroke-linecap:square;stroke-width:0.4;"/>
   </g>
   <g id="line2d_46">
    <path clip-path="url(#p01fe80cf09)" d="M 28.689016 47.069838 
L 28.828129 47.264638 
L 28.967242 47.459438 
L 29.106355 47.654238 
L 29.245469 47.849039 
L 29.375244 48.015961 
L 29.505019 48.182883 
L 29.634794 48.349805 
L 29.764569 48.516727 
L 29.848013 48.665108 
L 29.931457 48.813488 
L 30.014901 48.961868 
L 30.098345 49.110248 
L 30.144736 49.277213 
L 30.191127 49.444179 
L 30.237518 49.611144 
L 30.283909 49.77811 
L 30.302406 50.009951 
L 30.320902 50.241792 
L 30.339399 50.473633 
L 30.357895 50.705475 
L 30.348617 50.900232 
L 30.339339 51.094989 
L 30.330061 51.289746 
L 30.320782 51.484503 
L 30.265173 51.651425 
L 30.209564 51.818347 
L 30.153954 51.985269 
L 30.098345 52.152192 
" style="fill:none;stroke:#008000;stroke-linecap:square;stroke-width:0.4;"/>
   </g>
   <g id="line2d_47">
    <path clip-path="url(#p01fe80cf09)" d="M 28.495311 47.472491 
L 28.488128 47.705715 
L 28.480945 47.93894 
L 28.473762 48.172164 
L 28.466579 48.405388 
L 28.503631 48.646522 
L 28.540684 48.887656 
L 28.577737 49.12879 
L 28.61479 49.369924 
L 28.665791 49.560056 
L 28.716791 49.750188 
L 28.767791 49.940321 
L 28.818791 50.130453 
L 28.869791 50.320585 
L 28.920791 50.510718 
L 28.971792 50.70085 
L 29.022792 50.890982 
L 29.106236 51.095032 
L 29.18968 51.299081 
L 29.273124 51.503131 
L 29.356568 51.707181 
L 29.542012 51.818433 
L 29.727456 51.929686 
L 29.912901 52.040939 
L 30.098345 52.152192 
" style="fill:none;stroke:#008000;stroke-linecap:square;stroke-width:0.4;"/>
   </g>
   <g id="line2d_48">
    <path clip-path="url(#p01fe80cf09)" d="M 30.098345 52.152192 
L 30.098345 52.449038 
L 30.098345 52.745885 
L 30.042676 53.061144 
L 29.987007 53.376403 
L 29.931397 53.589745 
L 29.875788 53.803088 
L 29.820178 54.01643 
L 29.764569 54.229772 
L 29.802819 54.413897 
L 29.841069 54.598021 
L 29.87932 54.782146 
L 29.91757 54.96627 
L 30.101817 55.218037 
L 30.286064 55.469803 
L 30.470311 55.72157 
L 30.654558 55.973336 
L 30.818752 56.127508 
L 30.982947 56.28168 
L 31.147141 56.435852 
L 31.311335 56.590023 
" style="fill:none;stroke:#4169e1;stroke-linecap:square;stroke-width:0.4;"/>
   </g>
   <g id="line2d_49">
    <path clip-path="url(#p01fe80cf09)" d="M 27.242574 51.410334 
L 27.400184 51.540172 
L 27.557794 51.67001 
L 27.715403 51.799848 
L 27.873013 51.929686 
L 28.030683 52.050232 
L 28.188352 52.170777 
L 28.346022 52.291322 
L 28.503691 52.411868 
L 28.661301 52.495372 
L 28.818911 52.578876 
L 28.97652 52.662381 
L 29.13413 52.745885 
L 29.347349 52.903514 
L 29.560568 53.061144 
L 29.773787 53.218774 
L 29.987007 53.376403 
" style="fill:none;stroke:#008000;stroke-linecap:square;stroke-width:0.4;"/>
   </g>
   <g id="line2d_50">
    <path clip-path="url(#p01fe80cf09)" d="M 28.358832 47.755853 
L 28.115922 47.858029 
L 27.873013 47.960205 
L 27.771043 48.117878 
L 27.669072 48.27555 
L 27.567102 48.433223 
L 27.465131 48.590896 
L 27.363161 48.748569 
L 27.26119 48.906241 
L 27.15922 49.063914 
L 27.05725 49.221587 
L 26.87827 49.465012 
L 26.69929 49.708436 
L 26.520311 49.951861 
L 26.341331 50.195286 
L 26.23574 50.339041 
L 26.130148 50.482796 
L 26.06523 50.659011 
L 26.000313 50.835226 
L 25.935395 51.011441 
L 25.870478 51.187656 
L 25.80556 51.363871 
L 25.740643 51.540086 
L 25.675725 51.716301 
L 25.610808 51.892515 
L 25.583003 52.073377 
L 25.555198 52.254238 
L 25.527394 52.435099 
L 25.499589 52.61596 
L 25.471784 52.796822 
L 25.44398 52.977683 
L 25.416175 53.158544 
L 25.38837 53.339405 
L 25.392261 53.561306 
L 25.396152 53.783206 
L 25.400043 54.005106 
L 25.403934 54.227006 
L 25.407825 54.448906 
L 25.411715 54.670807 
L 25.415606 54.892707 
L 25.419497 55.114607 
L 25.458525 55.29938 
L 25.497554 55.484153 
L 25.536582 55.668926 
L 25.57561 55.853698 
L 25.611765 56.02477 
L 25.64792 56.195841 
L 25.888974 56.31643 
L 26.130028 56.437018 
L 26.371082 56.557607 
L 26.612135 56.678196 
L 26.878659 56.62888 
L 27.145183 56.579564 
L 27.411707 56.530248 
L 27.678231 56.480932 
L 27.944754 56.431616 
L 28.211278 56.3823 
L 28.477802 56.332984 
L 28.744326 56.283668 
" style="fill:none;stroke:#4169e1;stroke-linecap:square;stroke-width:0.4;"/>
   </g>
   <g id="line2d_51">
    <path clip-path="url(#p01fe80cf09)" d="M 26.341331 50.195286 
L 26.353423 50.434129 
L 26.365515 50.672972 
L 26.377606 50.911815 
L 26.389698 51.150658 
L 26.389698 51.447418 
L 26.389698 51.744179 
L 26.389698 51.920393 
L 26.389698 52.096608 
L 26.389698 52.272823 
L 26.389698 52.449038 
L 26.389698 52.625253 
L 26.389698 52.801468 
L 26.389698 52.977683 
L 26.389698 53.153898 
L 26.361893 53.316195 
L 26.334088 53.478493 
L 26.306284 53.64079 
L 26.278479 53.803088 
L 26.250674 53.965385 
L 26.22287 54.127683 
L 26.195065 54.28998 
L 26.16726 54.452278 
L 26.093304 54.627455 
L 26.019348 54.802633 
L 25.945392 54.97781 
L 25.871435 55.152988 
L 25.797479 55.328166 
L 25.723523 55.503343 
L 25.649567 55.678521 
L 25.57561 55.853698 
" style="fill:none;stroke:#4169e1;stroke-linecap:square;stroke-width:0.4;"/>
   </g>
   <g id="line2d_52">
    <path clip-path="url(#p01fe80cf09)" d="M 39.284843 16.797528 
L 39.343325 17.094504 
L 39.401808 17.391481 
L 39.460291 17.688457 
L 39.518773 17.985433 
L 39.555886 18.189483 
L 39.592999 18.393533 
L 39.630112 18.597582 
L 39.667224 18.801632 
L 39.704337 19.005682 
L 39.74145 19.209731 
L 39.778563 19.413781 
L 39.815676 19.617831 
L 39.89912 19.807941 
L 39.982564 19.998052 
L 40.066008 20.188163 
L 40.149452 20.378273 
L 40.232896 20.568384 
L 40.316339 20.758495 
L 40.399783 20.948605 
L 40.483227 21.138716 
L 40.608408 21.298701 
L 40.733589 21.458686 
L 40.85877 21.618672 
L 40.983951 21.778657 
L 41.109132 21.938642 
L 41.234313 22.098627 
L 41.359494 22.258612 
L 41.484675 22.418597 
L 41.609856 22.578582 
L 41.735036 22.738568 
L 41.860217 22.898553 
L 41.985398 23.058538 
L 42.110579 23.218523 
L 42.23576 23.378508 
L 42.360941 23.538493 
L 42.486122 23.698478 
L 42.625205 23.92107 
L 42.764288 24.143662 
L 42.903372 24.366254 
L 43.042455 24.588846 
L 43.181538 24.811437 
L 43.320621 25.034029 
L 43.459705 25.256621 
L 43.598788 25.479213 
L 43.666025 25.671657 
L 43.733262 25.864102 
L 43.800499 26.056547 
L 43.867736 26.248991 
L 43.934973 26.441436 
L 44.00221 26.633881 
L 44.069447 26.826325 
L 44.136684 27.01877 
L 44.203921 27.211214 
L 44.271158 27.403659 
L 44.338395 27.596104 
L 44.405632 27.788548 
L 44.472869 27.980993 
L 44.540106 28.173438 
L 44.607343 28.365882 
L 44.674581 28.558327 
L 44.720942 28.783231 
L 44.767303 29.008135 
L 44.813664 29.233039 
L 44.860025 29.457944 
L 44.906386 29.682848 
L 44.952747 29.907752 
L 44.999108 30.132656 
L 45.045469 30.35756 
L 45.09183 30.582464 
L 45.138191 30.807368 
L 45.184552 31.032273 
L 45.230914 31.257177 
L 45.277275 31.482081 
L 45.323636 31.706985 
L 45.369997 31.931889 
L 45.416358 32.156793 
L 45.439538 32.332997 
L 45.462719 32.509201 
L 45.485899 32.685406 
L 45.50908 32.86161 
L 45.532261 33.037814 
L 45.555441 33.214018 
L 45.578622 33.390222 
L 45.601802 33.566426 
L 45.624983 33.74263 
L 45.648163 33.918834 
L 45.671344 34.095038 
L 45.694524 34.271242 
L 45.717705 34.447446 
L 45.740885 34.62365 
L 45.764066 34.799855 
L 45.787246 34.976059 
L 45.848692 35.221407 
L 45.910138 35.466755 
L 45.971583 35.712103 
L 46.033029 35.957451 
L 46.094475 36.202799 
L 46.15592 36.448147 
L 46.217366 36.693495 
L 46.278812 36.938843 
" style="fill:none;stroke:#000000;stroke-linecap:square;stroke-width:0.4;"/>
   </g>
   <g id="line2d_53">
    <path clip-path="url(#p01fe80cf09)" d="M 41.824556 15.397663 
L 41.96753 15.577379 
L 42.110504 15.757095 
L 42.253478 15.936811 
L 42.396453 16.116527 
L 42.539427 16.296243 
L 42.682401 16.475959 
L 42.825375 16.655674 
L 42.968349 16.83539 
L 43.051793 16.976833 
L 43.135237 17.118276 
L 43.218681 17.259719 
L 43.302125 17.401162 
L 43.385569 17.542605 
L 43.469013 17.684048 
L 43.552457 17.825491 
L 43.635901 17.966934 
L 43.719345 18.108377 
L 43.802789 18.249821 
L 43.886233 18.391264 
L 43.969677 18.532707 
L 44.053121 18.67415 
L 44.136564 18.815593 
L 44.220008 18.957036 
L 44.303452 19.098479 
L 44.377663 19.283025 
L 44.451874 19.46757 
L 44.526084 19.652116 
L 44.600295 19.836662 
L 44.674506 20.021208 
L 44.748716 20.205754 
L 44.822927 20.3903 
L 44.897138 20.574846 
L 44.971348 20.759392 
L 45.045559 20.943937 
L 45.11977 21.128483 
L 45.19398 21.313029 
L 45.268191 21.497575 
L 45.342402 21.682121 
L 45.416612 21.866667 
L 45.490823 22.051213 
L 45.583365 22.281325 
L 45.675908 22.511437 
L 45.759382 22.798927 
L 45.842856 23.086416 
L 45.92633 23.373905 
L 46.009804 23.661394 
L 46.093278 23.948883 
L 46.176751 24.236373 
L 46.260225 24.523862 
L 46.343699 24.811351 
L 46.403948 25.061777 
L 46.464196 25.312204 
L 46.524445 25.562631 
L 46.584693 25.813057 
L 46.644941 26.063484 
L 46.70519 26.31391 
L 46.765438 26.564337 
L 46.825687 26.814763 
L 46.751521 27.102231 
L 46.677355 27.389698 
L 46.60319 27.677166 
L 46.529024 27.964634 
L 46.515107 28.173308 
L 46.501189 28.381982 
L 46.487272 28.590657 
L 46.473355 28.799331 
L 46.459437 29.008006 
L 46.44552 29.21668 
L 46.431603 29.425354 
L 46.417685 29.634029 
L 46.440881 29.902997 
L 46.464076 30.171966 
L 46.487272 30.440935 
L 46.510467 30.709903 
L 46.533663 30.978872 
L 46.556858 31.247841 
L 46.580054 31.516809 
L 46.603249 31.785778 
L 46.644971 31.994453 
L 46.686693 32.203127 
L 46.728415 32.411801 
L 46.770137 32.620476 
L 46.811859 32.82915 
L 46.853581 33.037824 
L 46.895303 33.246499 
L 46.937025 33.455173 
L 46.947171 33.625359 
L 46.957318 33.795544 
L 46.967464 33.96573 
L 46.97761 34.135915 
L 46.987756 34.306101 
L 46.997902 34.476286 
L 47.008048 34.646472 
L 47.018195 34.816657 
L 47.028341 34.986842 
L 47.038487 35.157028 
L 47.048633 35.327213 
L 47.058779 35.497399 
L 47.068925 35.667584 
L 47.079072 35.83777 
L 47.089218 36.007955 
L 47.099364 36.178141 
" style="fill:none;stroke:#000000;stroke-linecap:square;stroke-width:0.4;"/>
   </g>
   <g id="line2d_54">
    <path clip-path="url(#p01fe80cf09)" d="M 42.384361 15.422213 
L 42.604524 15.599293 
L 42.824687 15.776372 
L 43.044849 15.953451 
L 43.265012 16.130531 
L 43.515374 16.311392 
L 43.765736 16.492253 
L 44.016098 16.673114 
L 44.266459 16.853976 
L 44.516821 17.034837 
L 44.767183 17.215698 
L 45.017545 17.396559 
L 45.267907 17.57742 
L 45.453366 17.623787 
L 45.638825 17.670153 
L 45.824284 17.716519 
L 46.009744 17.762885 
L 46.195203 17.809251 
L 46.380662 17.855617 
L 46.566122 17.901983 
L 46.751581 17.948349 
L 46.93704 17.994715 
L 47.1225 18.041081 
L 47.307959 18.087447 
L 47.493418 18.133813 
L 47.678877 18.18018 
L 47.864337 18.226546 
L 48.049796 18.272912 
L 48.235255 18.319278 
L 48.504203 18.365655 
L 48.773152 18.412032 
L 49.0421 18.458408 
L 49.311048 18.504785 
" style="fill:none;stroke:#4169e1;stroke-linecap:square;stroke-width:0.4;"/>
   </g>
   <g id="line2d_55">
    <path clip-path="url(#p01fe80cf09)" d="M 46.429178 15.480476 
L 46.704531 15.392606 
L 46.979885 15.304737 
L 47.255238 15.216867 
L 47.530591 15.128997 
L 47.720674 15.119726 
L 47.910758 15.110455 
L 48.100841 15.101184 
L 48.290925 15.091913 
L 48.481008 15.082642 
L 48.671091 15.073371 
L 48.861175 15.0641 
L 49.051258 15.054829 
L 49.278454 15.059454 
L 49.505651 15.064078 
L 49.732847 15.068703 
L 49.960043 15.073328 
L 50.187239 15.077952 
L 50.414436 15.082577 
L 50.641632 15.087202 
L 50.868828 15.091827 
L 51.086746 15.11039 
L 51.304664 15.128954 
L 51.522582 15.147518 
L 51.7405 15.166082 
L 51.958418 15.184645 
L 52.176336 15.203209 
L 52.394254 15.221773 
L 52.612172 15.240336 
L 52.881121 15.30988 
L 53.150069 15.379424 
L 53.419017 15.448968 
L 53.687965 15.518511 
L 53.956913 15.588055 
L 54.225861 15.657599 
L 54.49481 15.727142 
L 54.763758 15.796686 
L 54.95848 15.875523 
L 55.153203 15.954359 
L 55.347925 16.033195 
L 55.542648 16.112032 
L 55.73737 16.190868 
L 55.932093 16.269705 
L 56.126815 16.348541 
L 56.321538 16.427377 
L 56.442095 16.589675 
L 56.562651 16.751972 
L 56.683208 16.91427 
L 56.803765 17.076567 
L 56.924322 17.238865 
L 57.044879 17.401162 
L 57.165435 17.56346 
L 57.285992 17.725757 
L 57.434743 17.948436 
L 57.583493 18.171114 
L 57.732244 18.393792 
L 57.880994 18.61647 
" style="fill:none;stroke:#ff0000;stroke-linecap:square;stroke-width:0.4;"/>
   </g>
   <g id="line2d_56">
    <path clip-path="url(#p01fe80cf09)" d="M 48.586031 12.751285 
L 48.822895 12.640853 
L 49.059758 12.530422 
L 49.296622 12.41999 
L 49.533485 12.309559 
L 49.723599 12.226098 
L 49.913712 12.142637 
L 50.103825 12.059176 
L 50.293939 11.975715 
L 50.484052 11.892253 
L 50.674165 11.808792 
L 50.864279 11.725331 
L 51.054392 11.64187 
L 51.318671 11.618682 
L 51.58295 11.595493 
L 51.84723 11.572305 
L 52.111509 11.549116 
L 52.375788 11.525928 
L 52.640067 11.502739 
L 52.904346 11.479551 
L 53.168625 11.456363 
L 53.386543 11.47028 
L 53.604461 11.484197 
L 53.822379 11.498115 
L 54.040297 11.512032 
L 54.258215 11.525949 
L 54.476133 11.539867 
L 54.694051 11.553784 
L 54.911969 11.567702 
L 55.078887 11.627974 
L 55.245805 11.688247 
L 55.412723 11.74852 
L 55.579641 11.808792 
L 55.746559 11.869065 
L 55.913477 11.929338 
L 56.080394 11.98961 
L 56.247312 12.049883 
L 56.340064 12.188992 
L 56.432817 12.328101 
L 56.525569 12.46721 
L 56.618321 12.606319 
L 56.711073 12.745428 
L 56.803825 12.884537 
L 56.896577 13.023646 
L 56.989329 13.162755 
L 56.998607 13.39464 
L 57.007885 13.626524 
L 57.017164 13.858409 
L 57.026442 14.090293 
L 57.026442 14.266508 
L 57.026442 14.442723 
L 57.026442 14.618938 
L 57.026442 14.795153 
L 57.165555 15.054829 
L 57.304668 15.314505 
L 57.443781 15.574181 
L 57.582895 15.833857 
L 57.771452 16.088519 
L 57.960009 16.343181 
L 58.148566 16.597844 
L 58.337123 16.852506 
" style="fill:none;stroke:#000000;stroke-linecap:square;stroke-width:0.4;"/>
   </g>
   <g id="line2d_57">
    <path clip-path="url(#p01fe80cf09)" d="M 49.311048 18.504785 
L 49.450131 18.592893 
L 49.589214 18.681 
L 49.728298 18.769108 
L 49.867381 18.857215 
L 50.006464 18.945323 
L 50.145547 19.03343 
L 50.284631 19.121537 
L 50.423714 19.209645 
L 50.618466 19.302399 
L 50.813219 19.395152 
L 51.007971 19.487906 
L 51.202724 19.58066 
L 51.397476 19.673414 
L 51.592229 19.766168 
L 51.786981 19.858921 
L 51.981734 19.951675 
L 52.204291 20.058325 
L 52.426848 20.164974 
L 52.649405 20.271624 
L 52.871962 20.378273 
L 53.094519 20.484923 
L 53.317076 20.591573 
L 53.539634 20.698222 
L 53.762191 20.804872 
L 53.910552 20.906896 
L 54.058914 21.008921 
L 54.207275 21.110946 
L 54.355636 21.212971 
L 54.503998 21.314996 
L 54.652359 21.417021 
L 54.800721 21.519045 
L 54.949082 21.62107 
L 55.143865 21.704531 
L 55.338647 21.787993 
L 55.533429 21.871454 
L 55.728212 21.954915 
L 55.943047 22.010887 
L 56.157882 22.066859 
L 56.372718 22.122831 
L 56.587553 22.178803 
L 56.802388 22.234775 
L 57.017224 22.290747 
L 57.232059 22.34672 
L 57.446894 22.402692 
" style="fill:none;stroke:#ff0000;stroke-linecap:square;stroke-width:0.4;"/>
   </g>
   <g id="line2d_58">
    <path clip-path="url(#p01fe80cf09)" d="M 49.311048 18.504785 
L 49.468658 18.439866 
L 49.626267 18.374947 
L 49.783877 18.310028 
L 49.941487 18.245109 
L 50.247488 18.152399 
L 50.553489 18.059688 
L 50.85949 17.966978 
L 51.165491 17.874267 
L 51.337048 17.86035 
L 51.508605 17.846432 
L 51.680162 17.832515 
L 51.851719 17.818598 
L 52.023276 17.80468 
L 52.194833 17.790763 
L 52.36639 17.776845 
L 52.537947 17.762928 
L 52.718782 17.78147 
L 52.899617 17.800012 
L 53.080452 17.818554 
L 53.261287 17.837096 
L 53.442123 17.855639 
L 53.622958 17.874181 
L 53.803793 17.892723 
L 53.984628 17.911265 
L 54.146907 17.962267 
L 54.309186 18.013268 
L 54.471464 18.06427 
L 54.633743 18.115271 
L 54.796022 18.166273 
L 54.958301 18.217275 
L 55.120579 18.268276 
L 55.282858 18.319278 
L 55.432985 18.389891 
L 55.583113 18.460505 
L 55.73324 18.531118 
L 55.883367 18.601732 
L 56.033495 18.672345 
L 56.183622 18.742959 
L 56.333749 18.813572 
L 56.483877 18.884185 
L 56.634004 18.954799 
L 56.784131 19.025412 
L 56.934258 19.096026 
L 57.084386 19.166639 
L 57.234513 19.237253 
L 57.38464 19.307866 
L 57.534768 19.37848 
L 57.684895 19.449093 
" style="fill:none;stroke:#ff0000;stroke-linecap:square;stroke-width:0.4;"/>
   </g>
   <g id="line2d_59">
    <path clip-path="url(#p01fe80cf09)" d="M 49.311048 18.504785 
L 49.422326 18.745919 
L 49.533605 18.987053 
L 49.644884 19.228187 
L 49.756162 19.469321 
L 49.885967 19.594534 
L 50.015772 19.719748 
L 50.145577 19.844961 
L 50.275382 19.970174 
L 50.405187 20.095387 
L 50.534992 20.220601 
L 50.664798 20.345814 
L 50.794603 20.471027 
L 50.970799 20.6287 
L 51.146995 20.786373 
L 51.323191 20.944046 
L 51.499387 21.101718 
L 51.675583 21.259391 
L 51.851779 21.417064 
L 52.027975 21.574737 
L 52.204171 21.732409 
L 52.371059 21.806578 
L 52.537947 21.880746 
L 52.760504 21.992042 
L 52.983061 22.103338 
L 53.205618 22.214634 
L 53.428175 22.32593 
L 53.678567 22.409391 
L 53.928959 22.492852 
L 54.179351 22.576313 
L 54.429742 22.659774 
L 54.587412 22.715422 
L 54.745082 22.77107 
L 54.902751 22.826718 
L 55.060421 22.882366 
L 55.21809 22.938014 
L 55.37576 22.993662 
L 55.533429 23.04931 
L 55.691099 23.104958 
L 55.802378 23.299715 
L 55.913656 23.494472 
L 56.024935 23.689229 
L 56.136213 23.883986 
L 56.292446 24.069191 
L 56.448679 24.254396 
L 56.604912 24.439601 
L 56.761145 24.624806 
L 56.917378 24.810011 
L 57.073611 24.995216 
L 57.229844 25.180421 
L 57.386077 25.365626 
" style="fill:none;stroke:#ff0000;stroke-linecap:square;stroke-width:0.4;"/>
   </g>
   <g id="line2d_60">
    <path clip-path="url(#p01fe80cf09)" d="M 45.490823 22.051213 
L 45.680876 22.057718 
L 45.87093 22.064222 
L 46.060983 22.070727 
L 46.251037 22.077232 
L 46.44109 22.083737 
L 46.631144 22.090242 
L 46.821197 22.096747 
L 47.011251 22.103252 
L 47.192086 22.140358 
L 47.372921 22.177463 
L 47.553756 22.214569 
L 47.734592 22.251675 
L 47.915427 22.288781 
L 48.096262 22.325887 
L 48.277097 22.362993 
L 48.457932 22.400098 
L 48.708264 22.520644 
L 48.958596 22.641189 
L 49.208928 22.761734 
L 49.45926 22.88228 
L 49.603012 22.988951 
L 49.746764 23.095622 
L 49.890517 23.202293 
L 50.034269 23.308964 
L 50.178021 23.415636 
L 50.321773 23.522307 
L 50.465526 23.628978 
L 50.609278 23.735649 
L 50.813279 23.809817 
L 51.017279 23.883986 
L 51.22128 23.958154 
L 51.425281 24.032323 
L 51.596838 24.111159 
L 51.768395 24.189996 
L 51.939952 24.268832 
L 52.111509 24.347668 
L 52.283066 24.426505 
L 52.454623 24.505341 
L 52.62618 24.584178 
L 52.797737 24.663014 
L 53.024933 24.806769 
L 53.252129 24.950525 
L 53.479325 25.09428 
L 53.706521 25.238036 
L 53.933718 25.381791 
L 54.160914 25.525546 
L 54.38811 25.669302 
L 54.615306 25.813057 
L 54.721946 25.942895 
L 54.828585 26.072733 
L 54.935225 26.202571 
L 55.041864 26.332409 
L 55.148504 26.462247 
L 55.255143 26.592085 
L 55.361783 26.721923 
L 55.468422 26.851761 
L 55.572548 27.083192 
L 55.676673 27.314622 
L 55.780798 27.546053 
L 55.884924 27.777484 
L 55.989049 28.008914 
L 56.093174 28.240345 
L 56.1973 28.471775 
L 56.301425 28.703206 
" style="fill:none;stroke:#ff0000;stroke-linecap:square;stroke-width:0.4;"/>
   </g>
   <g id="line2d_61">
    <path clip-path="url(#p01fe80cf09)" d="M 46.343699 24.811351 
L 46.505978 24.820644 
L 46.668257 24.829936 
L 46.830535 24.839229 
L 46.992814 24.848522 
L 47.155093 24.857814 
L 47.317372 24.867107 
L 47.47965 24.8764 
L 47.641929 24.885692 
L 47.929374 25.02478 
L 48.216819 25.163867 
L 48.504263 25.302955 
L 48.791708 25.442042 
L 48.916904 25.590444 
L 49.0421 25.738845 
L 49.167296 25.887247 
L 49.292492 26.035649 
L 49.417687 26.184051 
L 49.542883 26.332452 
L 49.668079 26.480854 
L 49.793275 26.629256 
L 49.867441 26.796178 
L 49.941607 26.9631 
L 50.015772 27.130022 
L 50.089938 27.296945 
L 50.164104 27.463867 
L 50.23827 27.630789 
L 50.312435 27.797711 
L 50.386601 27.964634 
L 50.539602 28.075929 
L 50.692602 28.187225 
L 50.845603 28.298521 
L 50.998603 28.409817 
L 51.151604 28.521113 
L 51.304604 28.632409 
L 51.457605 28.743705 
L 51.610605 28.855001 
L 51.758997 28.952379 
L 51.907388 29.049758 
L 52.05578 29.147136 
L 52.204171 29.244515 
L 52.352562 29.341893 
L 52.500954 29.439272 
L 52.649345 29.53665 
L 52.797737 29.634029 
L 52.922094 29.783922 
L 53.046452 29.933814 
L 53.17081 30.083707 
L 53.295168 30.2336 
L 53.419526 30.383493 
L 53.543884 30.533386 
L 53.668241 30.683279 
L 53.792599 30.833172 
" style="fill:none;stroke:#ff0000;stroke-linecap:square;stroke-width:0.4;"/>
   </g>
   <g id="line2d_62">
    <path clip-path="url(#p01fe80cf09)" d="M 24.23069 27.417101 
L 24.245595 27.620027 
L 24.2605 27.822953 
L 24.275405 28.025879 
L 24.29031 28.228805 
L 24.305215 28.431731 
L 24.32012 28.634656 
L 24.335025 28.837582 
L 24.34993 29.040508 
L 24.340652 29.309477 
L 24.331373 29.578446 
L 24.322095 29.847414 
L 24.312817 30.116383 
L 24.303539 30.385352 
L 24.294261 30.65432 
L 24.284982 30.923289 
L 24.275704 31.192258 
L 24.284982 31.489018 
L 24.294261 31.785778 
L 24.303539 32.082538 
L 24.312817 32.379299 
L 24.322095 32.676059 
L 24.331373 32.972819 
L 24.340652 33.269579 
L 24.34993 33.56634 
L 24.359208 33.81212 
L 24.368486 34.0579 
L 24.377765 34.30368 
L 24.387043 34.54946 
L 24.396321 34.795241 
L 24.405599 35.041021 
L 24.414877 35.286801 
L 24.424156 35.532581 
L 24.463558 35.833999 
L 24.50296 36.135416 
L 24.542363 36.436833 
L 24.581765 36.738251 
L 24.621168 37.039668 
L 24.66057 37.341086 
L 24.699973 37.642503 
L 24.739375 37.94392 
L 24.778777 38.245338 
L 24.81818 38.546755 
L 24.857582 38.848172 
L 24.896985 39.14959 
L 24.936387 39.451007 
L 24.97579 39.752424 
L 25.015192 40.053842 
L 25.054594 40.355259 
L 25.008862 40.538973 
L 24.963129 40.722687 
L 24.917397 40.906401 
L 24.871664 41.090115 
L 24.825932 41.273829 
L 24.780199 41.457542 
L 24.734466 41.641256 
L 24.688734 41.82497 
L 24.643001 42.008684 
L 24.597269 42.192398 
L 24.551536 42.376112 
L 24.505804 42.559826 
L 24.460071 42.743539 
L 24.414339 42.927253 
L 24.368606 43.110967 
L 24.322873 43.294681 
" style="fill:none;stroke:#ff0000;stroke-linecap:square;stroke-width:0.4;"/>
   </g>
   <g id="line2d_63">
    <path clip-path="url(#p01fe80cf09)" d="M 25.054594 27.074439 
L 25.240039 27.334115 
L 25.425483 27.593791 
L 25.536702 27.881302 
L 25.64792 28.168813 
L 25.759139 28.456324 
L 25.870358 28.743834 
L 25.851861 29.022053 
L 25.833365 29.300271 
L 25.814868 29.578489 
L 25.796372 29.856707 
L 25.768537 30.05611 
L 25.740703 30.255514 
L 25.712868 30.454917 
L 25.685033 30.65432 
L 25.657199 30.853724 
L 25.629364 31.053127 
L 25.601529 31.25253 
L 25.573695 31.451934 
L 25.573695 31.642044 
L 25.573695 31.832155 
L 25.573695 32.022266 
L 25.573695 32.212376 
L 25.573695 32.402487 
L 25.573695 32.592598 
L 25.573695 32.782708 
L 25.573695 32.972819 
L 25.615417 33.223224 
L 25.657139 33.473629 
L 25.698861 33.724034 
L 25.740583 33.974439 
L 25.782305 34.224844 
L 25.824027 34.475249 
L 25.865749 34.725654 
L 25.907471 34.976059 
L 25.932971 35.154597 
L 25.958471 35.333135 
L 25.983971 35.511673 
L 26.009471 35.690211 
L 26.034971 35.868749 
L 26.060471 36.047287 
L 26.085971 36.225825 
L 26.111471 36.404363 
L 26.136972 36.582901 
L 26.162472 36.761439 
L 26.187972 36.939977 
L 26.213472 37.118515 
L 26.238972 37.297053 
L 26.264472 37.475591 
L 26.289972 37.65413 
L 26.315472 37.832668 
L 26.296916 38.055259 
L 26.278359 38.277851 
L 26.259803 38.500443 
L 26.241247 38.723035 
L 26.241247 38.945627 
L 26.241247 39.168218 
L 26.241247 39.39081 
L 26.241247 39.613402 
L 26.213442 39.789595 
L 26.185637 39.965788 
L 26.157833 40.141982 
L 26.130028 40.318175 
L 26.102223 40.494368 
L 26.074418 40.670562 
L 26.046614 40.846755 
L 26.018809 41.022948 
L 26.074418 41.217748 
L 26.130028 41.412549 
L 26.185637 41.607349 
L 26.241247 41.802149 
L 26.167081 42.098909 
L 26.092915 42.395669 
L 26.018749 42.69243 
L 25.944584 42.98919 
L 25.902862 43.165405 
L 25.86114 43.34162 
L 25.819418 43.517835 
L 25.777696 43.69405 
L 25.735974 43.870264 
L 25.694252 44.046479 
L 25.65253 44.222694 
L 25.610808 44.398909 
L 25.530267 44.618454 
L 25.449726 44.837998 
L 25.369185 45.057543 
L 25.288645 45.277088 
L 25.208104 45.496632 
L 25.127563 45.716177 
L 25.047022 45.935722 
L 24.966481 46.155266 
" style="fill:none;stroke:#ff0000;stroke-linecap:square;stroke-width:0.4;"/>
   </g>
   <g id="line2d_64">
    <path clip-path="url(#p01fe80cf09)" d="M 24.34993 33.56634 
L 24.572427 33.70547 
L 24.794924 33.844601 
L 25.017422 33.983732 
L 25.239919 34.122862 
L 25.430002 34.108945 
L 25.620086 34.095027 
L 25.810169 34.08111 
L 26.000253 34.067193 
L 26.190336 34.053275 
L 26.38042 34.039358 
L 26.570503 34.02544 
L 26.760586 34.011523 
L 26.969196 34.006898 
L 27.177806 34.002274 
L 27.386416 33.997649 
L 27.595026 33.993024 
L 27.803636 33.988399 
L 28.012246 33.983775 
L 28.220856 33.97915 
L 28.429466 33.974525 
L 28.608864 33.960738 
L 28.788263 33.94695 
L 28.967661 33.933162 
L 29.14706 33.919374 
L 29.39368 33.900357 
L 29.584931 33.890654 
L 29.776182 33.88095 
L 29.967433 33.871247 
L 30.158683 33.861544 
L 30.349934 33.85184 
L 30.541185 33.842137 
L 30.732435 33.832434 
L 30.923686 33.822731 
" style="fill:none;stroke:#4169e1;stroke-linecap:square;stroke-width:0.4;"/>
   </g>
   <g id="line2d_65">
    <path clip-path="url(#p01fe80cf09)" d="M 25.054594 27.074439 
L 25.351257 27.074439 
L 25.64792 27.074439 
L 25.944584 27.074439 
L 26.241247 27.074439 
L 26.338608 27.204277 
L 26.435969 27.334115 
L 26.53333 27.463953 
L 26.630692 27.593791 
L 26.728053 27.723629 
L 26.825414 27.853467 
L 26.922775 27.983305 
L 27.020137 28.113143 
L 27.05722 28.293983 
L 27.094302 28.474823 
L 27.131385 28.655662 
L 27.168468 28.836502 
L 27.205551 29.017341 
L 27.242634 29.198181 
L 27.279717 29.379021 
L 27.3168 29.55986 
L 27.349244 29.76391 
L 27.381687 29.96796 
L 27.414131 30.172009 
L 27.446575 30.376059 
L 27.479019 30.580109 
L 27.511462 30.784158 
L 27.543906 30.988208 
L 27.57635 31.192258 
L 27.641267 31.35918 
L 27.706185 31.526102 
L 27.771102 31.693024 
L 27.83602 31.859947 
L 27.900937 32.026869 
L 27.965855 32.193791 
L 28.030772 32.360713 
L 28.09569 32.527635 
L 28.234743 32.740978 
L 28.373796 32.95432 
L 28.51285 33.167662 
L 28.651903 33.381005 
L 28.775692 33.515597 
L 28.899481 33.65019 
L 29.023271 33.784782 
L 29.14706 33.919374 
" style="fill:none;stroke:#000000;stroke-linecap:square;stroke-width:0.4;"/>
   </g>
   <g id="line2d_66">
    <path clip-path="url(#p01fe80cf09)" d="M 3.272727 43.409996 
L 3.424531 43.610848 
L 3.576334 43.811699 
L 3.728137 44.01255 
L 3.879941 44.213402 
L 4.176604 44.324654 
L 4.473267 44.435907 
L 4.714261 44.435907 
L 4.955254 44.435907 
L 5.196248 44.435907 
L 5.437242 44.435907 
L 5.733905 44.408115 
L 6.030568 44.380324 
L 6.327231 44.352532 
L 6.623894 44.324741 
L 6.869557 44.324741 
L 7.11522 44.324741 
L 7.360883 44.324741 
L 7.606546 44.324741 
L 7.852209 44.324741 
L 8.097871 44.324741 
L 8.343534 44.324741 
L 8.589197 44.324741 
L 8.820973 44.310823 
L 9.052748 44.296906 
L 9.284524 44.282988 
L 9.516299 44.269071 
L 9.748075 44.255154 
L 9.97985 44.241236 
L 10.211625 44.227319 
L 10.443401 44.213402 
L 10.68631 44.203504 
L 10.92922 44.193606 
L 11.172129 44.183708 
L 11.415038 44.17381 
L 11.626402 44.165166 
L 11.837765 44.156522 
L 12.049129 44.147877 
L 12.260492 44.139233 
L 12.482989 44.106774 
L 12.705487 44.074314 
L 12.927984 44.041855 
L 13.150481 44.009395 
L 13.372978 43.976936 
L 13.595476 43.944476 
L 13.817973 43.912017 
L 14.04047 43.879557 
L 14.323216 43.874911 
L 14.605962 43.870264 
L 14.888707 43.865618 
L 15.171453 43.860972 
L 15.454199 43.856325 
L 15.736945 43.851679 
L 16.01969 43.847033 
L 16.302436 43.842386 
L 16.552768 43.865575 
L 16.8031 43.888763 
L 17.053432 43.911952 
L 17.303764 43.93514 
L 17.554096 43.958329 
L 17.804427 43.981517 
L 18.054759 44.004706 
L 18.305091 44.027894 
L 18.504423 44.046436 
L 18.703755 44.064978 
L 18.903086 44.08352 
L 19.102418 44.102062 
L 19.30175 44.120605 
L 19.501081 44.139147 
L 19.700413 44.157689 
L 19.899745 44.176231 
L 20.081014 44.202531 
L 20.262283 44.228832 
L 20.443552 44.255132 
L 20.624821 44.281432 
L 20.806091 44.307733 
L 20.98736 44.334033 
L 21.168629 44.360334 
L 21.349898 44.386634 
L 21.531167 44.412935 
L 21.712436 44.439235 
L 21.893705 44.465535 
L 22.074975 44.491836 
L 22.256244 44.518136 
L 22.437513 44.544437 
L 22.618782 44.570737 
L 22.800051 44.597037 
L 23.011355 44.73297 
L 23.222658 44.868902 
L 23.433962 45.004834 
L 23.645265 45.140766 
L 23.775041 45.307775 
L 23.904816 45.474784 
L 24.08619 45.71635 
L 24.267563 45.957916 
L 24.448937 46.199482 
L 24.630311 46.441048 
" style="fill:none;stroke:#4169e1;stroke-linecap:square;stroke-width:0.4;"/>
   </g>
   <g id="line2d_67">
    <path clip-path="url(#p01fe80cf09)" d="M 18.213147 31.88588 
L 18.282464 32.148365 
L 18.351782 32.41085 
L 18.421099 32.673336 
L 18.490416 32.935821 
L 18.601694 33.204747 
L 18.712973 33.473672 
L 18.824252 33.742598 
L 18.93553 34.011523 
L 18.995779 34.317576 
L 19.056027 34.623629 
L 19.116275 34.929682 
L 19.176524 35.235735 
L 19.236772 35.541788 
L 19.297021 35.84784 
L 19.357269 36.153893 
L 19.417518 36.459946 
L 19.491684 36.714998 
L 19.565849 36.970049 
L 19.640015 37.2251 
L 19.714181 37.480151 
L 19.788347 37.735203 
L 19.862512 37.990254 
L 19.936678 38.245305 
L 20.010844 38.500357 
L 20.089649 38.718302 
L 20.168454 38.936247 
L 20.247258 39.154193 
L 20.326063 39.372138 
L 20.404868 39.590084 
L 20.483673 39.808029 
L 20.562478 40.025975 
L 20.641283 40.24392 
L 20.718112 40.421583 
L 20.794942 40.599246 
L 20.871771 40.776909 
L 20.948601 40.954571 
L 21.02543 41.132234 
L 21.10226 41.309897 
L 21.179089 41.48756 
L 21.255919 41.665223 
L 21.369502 41.799729 
L 21.483085 41.934235 
L 21.596668 42.068741 
L 21.710251 42.203246 
L 21.823835 42.337752 
L 21.937418 42.472258 
L 22.051001 42.606764 
L 22.164584 42.74127 
L 22.232405 42.896912 
L 22.300225 43.052553 
L 22.368046 43.208194 
L 22.435867 43.363836 
L 22.526913 43.672136 
L 22.617959 43.980437 
L 22.709005 44.288737 
L 22.800051 44.597037 
" style="fill:none;stroke:#ff0000;stroke-linecap:square;stroke-width:0.4;"/>
   </g>
   <g id="line2d_68">
    <path clip-path="url(#p01fe80cf09)" d="M 14.234893 34.903273 
L 14.371672 35.153354 
L 14.508451 35.403435 
L 14.645229 35.653516 
L 14.782008 35.903596 
L 14.833308 36.152424 
L 14.884607 36.401251 
L 14.935907 36.650079 
L 14.987206 36.898906 
L 15.038506 37.147733 
L 15.089805 37.396561 
L 15.141104 37.645388 
L 15.192404 37.894215 
L 15.196744 38.067361 
L 15.201084 38.240508 
L 15.205423 38.413654 
L 15.209763 38.5868 
L 15.214103 38.759946 
L 15.218443 38.933092 
L 15.222783 39.106238 
L 15.227122 39.279385 
L 15.264205 39.506623 
L 15.301288 39.733861 
L 15.338371 39.961099 
L 15.375454 40.188337 
L 15.412537 40.415575 
L 15.44962 40.642813 
L 15.486703 40.870051 
L 15.523785 41.097289 
L 15.572451 41.268858 
L 15.621117 41.440427 
L 15.669782 41.611995 
L 15.718448 41.783564 
L 15.767114 41.955132 
L 15.815779 42.126701 
L 15.864445 42.298269 
L 15.913111 42.469838 
L 15.961776 42.641406 
L 16.010442 42.812975 
L 16.059108 42.984544 
L 16.107773 43.156112 
L 16.156439 43.327681 
L 16.205105 43.499249 
L 16.25377 43.670818 
L 16.302436 43.842386 
" style="fill:none;stroke:#ff0000;stroke-linecap:square;stroke-width:0.4;"/>
   </g>
   <g id="line2d_69">
    <path clip-path="url(#p01fe80cf09)" d="M 7.615405 38.475288 
L 7.729078 38.722689 
L 7.842751 38.97009 
L 7.956424 39.217491 
L 8.070097 39.464892 
L 8.246263 39.733861 
L 8.422429 40.002829 
L 8.598595 40.271798 
L 8.774761 40.540767 
L 8.941589 40.781901 
L 9.108417 41.023035 
L 9.275245 41.264168 
L 9.442073 41.505302 
L 9.54147 41.678859 
L 9.640866 41.852416 
L 9.740263 42.025973 
L 9.839659 42.199529 
L 9.939056 42.373086 
L 10.038452 42.546643 
L 10.137849 42.7202 
L 10.237245 42.893756 
L 10.384469 43.053763 
L 10.531694 43.21377 
L 10.678918 43.373777 
L 10.826142 43.533783 
L 10.973366 43.69379 
L 11.12059 43.853797 
L 11.267814 44.013804 
L 11.415038 44.17381 
" style="fill:none;stroke:#4169e1;stroke-linecap:square;stroke-width:0.4;"/>
   </g>
  </g>
 </g>
 <defs>
  <clipPath id="p01fe80cf09">
   <rect height="60.985861" width="72" x="0" y="0"/>
  </clipPath>
 </defs>
</svg>
