<?xml version="1.0" encoding="utf-8" standalone="no"?>
<!DOCTYPE svg PUBLIC "-//W3C//DTD SVG 1.1//EN"
  "http://www.w3.org/Graphics/SVG/1.1/DTD/svg11.dtd">
<svg height="72pt" version="1.1" viewBox="0 0 114.917022 72" width="114.917022pt" xmlns="http://www.w3.org/2000/svg" xmlns:xlink="http://www.w3.org/1999/xlink">
 <metadata>
  <rdf:RDF xmlns:cc="http://creativecommons.org/ns#" xmlns:dc="http://purl.org/dc/elements/1.1/" xmlns:rdf="http://www.w3.org/1999/02/22-rdf-syntax-ns#">
   <cc:Work>
    <dc:type rdf:resource="http://purl.org/dc/dcmitype/StillImage"/>
    <dc:date>2022-04-21T17:37:56.884077</dc:date>
    <dc:format>image/svg+xml</dc:format>
    <dc:creator>
     <cc:Agent>
      <dc:title>Matplotlib v3.4.3, https://matplotlib.org/</dc:title>
     </cc:Agent>
    </dc:creator>
   </cc:Work>
  </rdf:RDF>
 </metadata>
 <defs>
  <style type="text/css">*{stroke-linecap:butt;stroke-linejoin:round;}</style>
 </defs>
 <g id="figure_1">
  <g id="patch_1">
   <path d="M 0 72 
L 114.917022 72 
L 114.917022 0 
L 0 0 
z
" style="fill:#ffffff;"/>
  </g>
  <g id="axes_1">
   <g id="patch_2">
    <path clip-path="url(#p54ac13f13f)" d="M 73.454024 55.138199 
L 73.454024 55.138199 
L 73.033112 55.079121 
L 72.6122 55.020043 
L 72.191288 54.960965 
L 71.770376 54.901887 
L 71.675308 55.228563 
L 71.58024 55.555239 
L 71.485172 55.881915 
L 71.390104 56.208592 
L 71.295035 56.535268 
L 71.199967 56.861944 
L 71.104899 57.18862 
L 71.009831 57.515296 
L 70.914763 57.841972 
L 70.819694 58.168648 
L 70.724626 58.495324 
L 70.629558 58.822001 
L 70.53449 59.148677 
L 70.439422 59.475353 
L 70.344353 59.802029 
L 70.249285 60.128705 
L 70.528046 60.385292 
L 70.806807 60.641878 
L 71.085567 60.898465 
L 71.364328 61.155052 
L 71.643089 61.411639 
L 71.92185 61.668225 
L 72.20061 61.924812 
L 72.479371 62.181399 
L 72.593814 61.749443 
L 72.708256 61.317487 
L 72.822699 60.885531 
L 72.937142 60.453575 
z
" style="fill:#008000;opacity:0.1;"/>
   </g>
   <g id="patch_3">
    <path clip-path="url(#p54ac13f13f)" d="M 73.454024 55.138199 
L 73.454024 55.138199 
L 73.033112 55.079121 
L 72.6122 55.020043 
L 72.191288 54.960965 
L 71.770376 54.901887 
L 71.675308 55.228563 
L 71.58024 55.555239 
L 71.485172 55.881915 
L 71.390104 56.208592 
L 71.295035 56.535268 
L 71.199967 56.861944 
L 71.104899 57.18862 
L 71.009831 57.515296 
L 70.914763 57.841972 
L 70.819694 58.168648 
L 70.724626 58.495324 
L 70.629558 58.822001 
L 70.53449 59.148677 
L 70.439422 59.475353 
L 70.344353 59.802029 
L 70.249285 60.128705 
L 70.528046 60.385292 
L 70.806807 60.641878 
L 71.085567 60.898465 
L 71.364328 61.155052 
L 71.643089 61.411639 
L 71.92185 61.668225 
L 72.20061 61.924812 
L 72.479371 62.181399 
L 72.593814 61.749443 
L 72.708256 61.317487 
L 72.822699 60.885531 
L 72.937142 60.453575 
z
" style="fill:none;stroke:#008000;stroke-linejoin:miter;stroke-width:0.532023;"/>
   </g>
   <g id="line2d_1">
    <path clip-path="url(#p54ac13f13f)" d="M 82.713572 64.723495 
L 83.467759 63.846066 
L 84.221947 62.968637 
L 84.975963 62.091209 
L 85.729978 61.21378 
L 86.662016 60.129404 
L 87.594054 59.045028 
L 87.906451 58.681472 
L 88.977504 57.435127 
L 90.048557 56.188782 
L 90.91839 55.176885 
L 92.042884 53.868316 
L 93.167378 52.559747 
L 94.337065 51.198975 
L 95.506752 49.838203 
L 96.693794 48.45669 
L 97.880836 47.075177 
L 98.912023 45.875442 
L 99.94321 44.675707 
L 101.163245 43.255974 
L 102.383279 41.836241 
L 103.121658 40.97699 
L 103.860037 40.117739 
L 104.873697 38.938279 
L 105.887356 37.758819 
L 107.23558 36.189935 
L 107.506394 35.875319 
L 108.481047 34.740837 
" style="fill:none;stroke:#808080;stroke-linecap:square;stroke-width:0.532023;"/>
   </g>
   <g id="line2d_2">
    <path clip-path="url(#p54ac13f13f)" d="M 80.915137 63.58342 
L 81.626022 62.754233 
L 82.336907 61.925045 
L 83.231313 60.881919 
L 84.125719 59.838792 
L 84.914102 58.919182 
L 85.702485 57.999571 
L 86.692775 56.844349 
L 87.683065 55.689126 
L 88.601527 54.617801 
L 89.51999 53.546475 
L 90.575922 52.314813 
L 91.631853 51.08315 
L 92.665961 49.876889 
L 93.700069 48.670629 
L 94.707715 47.495131 
L 95.71536 46.319633 
L 97.029217 44.787104 
L 98.343074 43.254575 
L 99.662946 41.715055 
L 100.982817 40.175535 
L 102.174155 38.785632 
L 103.365493 37.395729 
L 104.363172 36.231884 
L 105.360851 35.068038 
L 106.569545 33.658093 
L 107.787517 32.237428 
" style="fill:none;stroke:#808080;stroke-linecap:square;stroke-width:0.532023;"/>
   </g>
   <g id="line2d_3">
    <path clip-path="url(#p54ac13f13f)" d="M 79.433912 62.455464 
L 79.821918 61.514879 
" style="fill:none;stroke:#808080;stroke-linecap:square;stroke-width:0.532023;"/>
   </g>
   <g id="line2d_4">
    <path clip-path="url(#p54ac13f13f)" d="M 77.435461 62.85491 
L 77.988085 61.438672 
L 78.540709 60.022435 
" style="fill:none;stroke:#808080;stroke-linecap:square;stroke-width:0.532023;"/>
   </g>
   <g id="line2d_5">
    <path clip-path="url(#p54ac13f13f)" d="M 73.192146 62.220085 
L 73.297825 61.048782 
L 73.403504 59.877478 
L 73.530663 58.467999 
L 73.657821 57.05852 
L 73.815567 55.522962 
L 73.973312 53.987404 
L 74.110609 52.538539 
L 74.247906 51.089675 
L 74.388639 49.607718 
L 74.529373 48.125761 
L 74.685056 46.482767 
" style="fill:none;stroke:#808080;stroke-linecap:square;stroke-width:0.532023;"/>
   </g>
   <g id="line2d_6">
    <path clip-path="url(#p54ac13f13f)" d="M 73.180118 42.1695 
L 73.066019 41.635819 
L 72.630243 39.598972 
L 72.355134 38.313708 
L 72.080025 37.028444 
L 71.838423 35.89909 
L 71.596822 34.769736 
L 71.184932 32.844287 
L 70.773041 30.918838 
L 70.507383 29.676921 
L 70.241724 28.435004 
L 69.871934 26.706947 
L 69.502143 24.97889 
L 69.203836 23.584559 
L 68.905529 22.190229 
L 68.688328 21.175534 
L 68.43951 20.011689 
L 68.07075 18.28806 
L 67.70199 16.564431 
L 67.385125 15.083639 
L 67.160707 14.034687 
L 66.93629 12.985734 
L 66.697953 11.871761 
L 66.459617 10.757788 
L 66.103573 9.092887 
" style="fill:none;stroke:#808080;stroke-linecap:square;stroke-width:0.532023;"/>
   </g>
   <g id="line2d_7">
    <path clip-path="url(#p54ac13f13f)" d="M 78.599477 56.649287 
L 79.009649 55.582856 
L 79.419822 54.516424 
L 80.102182 52.74269 
L 80.784542 50.968956 
L 81.393357 49.386788 
L 82.002171 47.80462 
L 82.538127 46.411221 
L 83.074083 45.017822 
L 83.570861 43.726499 
L 84.067638 42.435176 
L 84.797425 40.538159 
L 85.527212 38.641142 
L 86.261295 36.732472 
L 86.995378 34.823803 
L 87.649557 33.123246 
L 88.303736 31.422689 
L 88.838317 30.033019 
L 89.372899 28.643349 
L 89.774049 27.600456 
L 90.1752 26.557563 
L 90.576351 25.514669 
L 90.977502 24.471776 
L 91.50332 23.104945 
L 92.029137 21.738114 
L 92.572311 20.325838 
L 93.115484 18.913563 
L 93.607965 17.633309 
L 94.100447 16.353056 
L 94.592929 15.072802 
L 95.08541 13.792549 
L 95.807464 11.915108 
L 95.961773 11.514264 
" style="fill:none;stroke:#808080;stroke-linecap:square;stroke-width:0.532023;"/>
   </g>
   <g id="line2d_8">
    <path clip-path="url(#p54ac13f13f)" d="M 6.175472 20.608294 
L 7.267317 20.645115 
L 8.359849 20.681704 
L 9.452382 20.718293 
L 10.665543 20.758843 
L 11.776977 20.796131 
L 12.888412 20.833419 
L 14.840811 20.899138 
L 16.687015 20.961129 
L 18.371694 21.017527 
L 20.056373 21.073925 
L 22.124589 21.143374 
L 23.210076 21.179962 
L 24.295564 21.216551 
L 25.360774 21.252207 
L 26.425985 21.287864 
L 27.577113 21.32655 
L 28.728242 21.365236 
L 29.866654 21.403456 
L 31.005067 21.441676 
L 32.177159 21.481061 
L 33.349252 21.520446 
L 34.480447 21.5582 
L 35.611643 21.595954 
L 36.870856 21.638369 
L 38.130069 21.680784 
L 39.458704 21.725296 
L 40.787339 21.769809 
L 42.05291 21.812224 
L 43.318481 21.854638 
L 45.27363 21.920358 
L 46.384205 21.957646 
L 47.49478 21.994934 
" style="fill:none;stroke:#808080;stroke-linecap:square;stroke-width:0.532023;"/>
   </g>
   <g id="line2d_9">
    <path clip-path="url(#p54ac13f13f)" d="M 108.03015 68.727273 
L 107.837607 67.311268 
L 107.645065 65.895264 
L 107.452523 64.47926 
L 107.259981 63.063255 
" style="fill:none;stroke:#808080;stroke-linecap:square;stroke-width:0.532023;"/>
   </g>
   <g id="line2d_10">
    <path clip-path="url(#p54ac13f13f)" d="M 108.39616 35.171046 
L 108.090185 35.466435 
L 107.784209 35.761824 
L 107.478234 36.057213 
L 107.172259 36.352603 
L 106.866284 36.647992 
L 106.560308 36.943381 
L 106.254333 37.238771 
L 105.948358 37.53416 
L 105.642383 37.829549 
L 105.336408 38.124939 
L 105.030432 38.420328 
L 104.724457 38.715717 
L 104.418482 39.011107 
L 104.112507 39.306496 
L 103.806531 39.601885 
L 103.500556 39.897275 
L 103.246776 40.170117 
L 102.992996 40.442958 
L 102.739216 40.7158 
L 102.485436 40.988642 
L 102.231656 41.261484 
L 101.977876 41.534326 
L 101.724095 41.807168 
L 101.470315 42.08001 
L 101.216535 42.352851 
L 100.962755 42.625693 
L 100.708975 42.898535 
L 100.455195 43.171377 
L 100.201415 43.444219 
L 99.947635 43.717061 
L 99.693855 43.989903 
L 99.440075 44.262744 
L 99.201631 44.536562 
L 98.963187 44.81038 
L 98.724743 45.084198 
L 98.4863 45.358015 
L 98.247856 45.631833 
L 98.009412 45.905651 
L 97.770968 46.179469 
L 97.532525 46.453286 
L 97.294081 46.727104 
L 97.055637 47.000922 
L 96.817193 47.27474 
L 96.57875 47.548557 
L 96.340306 47.822375 
L 96.101862 48.096193 
L 95.863419 48.370011 
L 95.624975 48.643828 
L 95.386531 48.917646 
L 95.148087 49.191464 
L 94.909644 49.465282 
L 94.6712 49.739099 
L 94.432756 50.012917 
L 94.194312 50.286735 
L 93.955869 50.560553 
L 93.717425 50.83437 
L 93.478981 51.108188 
L 93.240537 51.382006 
L 93.002094 51.655824 
L 92.76365 51.929641 
L 92.525206 52.203459 
L 92.286762 52.477277 
L 92.048319 52.751095 
L 91.809875 53.024912 
L 91.571431 53.29873 
L 91.332987 53.572548 
L 91.094544 53.846366 
L 90.8561 54.120183 
L 90.617656 54.394001 
L 90.379212 54.667819 
L 90.140769 54.941636 
L 89.902325 55.215454 
L 89.663881 55.489272 
L 89.425437 55.76309 
L 89.186994 56.036907 
L 88.94855 56.310725 
L 88.710106 56.584543 
L 88.471663 56.858361 
L 88.233219 57.132178 
L 87.994775 57.405996 
L 87.756331 57.679814 
L 87.517888 57.953632 
L 87.279444 58.227449 
L 87.041 58.501267 
L 86.802556 58.775085 
L 86.564113 59.048903 
L 86.325669 59.32272 
L 86.087225 59.596538 
L 85.848781 59.870356 
L 85.610338 60.144174 
L 85.371894 60.417991 
L 85.13345 60.691809 
L 84.895006 60.965627 
L 84.656563 61.239445 
L 84.418119 61.513262 
L 84.179675 61.78708 
" style="fill:none;stroke:#000000;stroke-linecap:square;stroke-width:0.532023;"/>
   </g>
   <g id="line2d_11">
    <path clip-path="url(#p54ac13f13f)" d="M 107.075086 32.909074 
L 106.756502 33.249558 
L 106.437918 33.590043 
L 106.119335 33.930527 
L 105.800751 34.271011 
L 105.461354 34.661047 
L 105.121956 35.051084 
L 104.782559 35.44112 
L 104.443162 35.831156 
L 104.103764 36.221192 
L 103.764367 36.611229 
L 103.42497 37.001265 
L 103.085573 37.391301 
L 102.746175 37.781337 
L 102.406778 38.171374 
L 102.067381 38.56141 
L 101.727983 38.951446 
L 101.388586 39.341482 
L 101.049189 39.731519 
L 100.709791 40.121555 
L 100.370394 40.511591 
L 100.141691 40.777733 
L 99.912988 41.043875 
L 99.684286 41.310016 
L 99.455583 41.576158 
L 99.22688 41.8423 
L 98.998177 42.108441 
L 98.769474 42.374583 
L 98.540772 42.640725 
L 98.312069 42.906867 
L 98.083366 43.173008 
L 97.854663 43.43915 
L 97.62596 43.705292 
L 97.397258 43.971433 
L 97.168555 44.237575 
L 96.939852 44.503717 
L 96.711149 44.769859 
L 96.482446 45.036 
L 96.253744 45.302142 
L 96.025041 45.568284 
L 95.796338 45.834425 
L 95.567635 46.100567 
L 95.338932 46.366709 
L 95.11023 46.63285 
L 94.881527 46.898992 
L 94.652824 47.165134 
L 94.424121 47.431276 
L 94.195419 47.697417 
L 93.966716 47.963559 
L 93.738013 48.229701 
L 93.50931 48.495842 
L 93.280607 48.761984 
L 93.051905 49.028126 
L 92.647618 49.502555 
L 92.243331 49.976984 
L 91.839044 50.451413 
L 91.434757 50.925842 
L 91.03047 51.400271 
L 90.626184 51.8747 
L 90.221897 52.349129 
L 89.81761 52.823558 
L 89.551952 53.157517 
L 89.286293 53.491476 
L 89.020635 53.825435 
L 88.754977 54.159394 
L 88.4394 54.530903 
L 88.123824 54.902411 
L 87.808247 55.27392 
L 87.492671 55.645429 
L 87.177094 56.016938 
L 86.861518 56.388447 
L 86.545941 56.759956 
L 86.230364 57.131465 
L 85.914788 57.502974 
L 85.599211 57.874483 
L 85.283635 58.245991 
L 84.968058 58.6175 
L 84.652482 58.989009 
L 84.336905 59.360518 
L 84.021328 59.732027 
L 83.705752 60.103536 
" style="fill:none;stroke:#4169e1;stroke-linecap:square;stroke-width:0.532023;"/>
   </g>
   <g id="line2d_12">
    <path clip-path="url(#p54ac13f13f)" d="M 106.303543 31.739169 
L 106.081187 31.976063 
L 105.858832 32.212957 
L 105.636476 32.449851 
L 105.41412 32.686746 
L 105.191765 32.92364 
L 104.969409 33.160534 
L 104.747053 33.397428 
L 104.524698 33.634322 
L 104.267266 33.932741 
L 104.009835 34.23116 
L 103.752403 34.529579 
L 103.494971 34.827998 
L 103.23754 35.126417 
L 102.980108 35.424836 
L 102.722677 35.723255 
L 102.465245 36.021674 
L 102.207813 36.320092 
L 101.950382 36.618511 
L 101.69295 36.91693 
L 101.435519 37.215349 
L 101.178087 37.513768 
L 100.920655 37.812187 
L 100.663224 38.110606 
L 100.405792 38.409025 
L 100.114616 38.679012 
L 99.82344 38.948999 
L 99.532265 39.218986 
L 99.241089 39.488973 
L 98.926801 39.729013 
L 98.612513 39.969054 
L 98.298225 40.209094 
L 97.983938 40.449134 
L 97.591378 40.749068 
L 97.198819 41.049002 
L 96.80626 41.348936 
L 96.413701 41.648869 
" style="fill:none;stroke:#4169e1;stroke-linecap:square;stroke-width:0.532023;"/>
   </g>
   <g id="line2d_13">
    <path clip-path="url(#p54ac13f13f)" d="M 106.899126 31.152352 
L 106.529851 30.827482 
L 106.160575 30.502612 
L 105.739749 30.067044 
L 105.318923 29.631476 
L 105.027232 29.321288 
L 104.73554 29.0111 
L 104.443849 28.700912 
L 104.152158 28.390724 
L 103.782882 27.955156 
L 103.413607 27.519588 
L 102.925765 27.199612 
L 102.437923 26.879636 
L 102.040295 26.618622 
L 101.707964 26.389768 
L 101.375634 26.160914 
L 101.043303 25.93206 
L 100.710973 25.703206 
L 100.304839 25.415274 
L 99.898705 25.127342 
L 99.49257 24.839411 
L 99.086436 24.551479 
L 98.613888 24.248748 
L 98.141339 23.946018 
L 97.690957 23.717164 
L 97.240576 23.48831 
L 96.863911 23.3331 
L 96.487247 23.177889 
L 95.970365 23.177889 
L 95.556928 23.340557 
L 95.173046 23.724622 
L 94.877489 24.167414 
L 94.818377 24.625122 
L 94.877489 24.942768 
L 94.9366 25.260413 
L 95.089835 25.749583 
L 95.24307 26.238752 
L 95.396304 26.727921 
L 95.549539 27.217091 
L 95.702773 27.70626 
L 95.856008 28.19543 
L 96.009243 28.684599 
L 96.162477 29.173768 
L 96.284309 29.598267 
L 96.406141 30.022765 
L 96.527972 30.447263 
L 96.649804 30.871762 
L 96.682281 31.349978 
L 96.714758 31.828194 
L 96.670424 32.40429 
L 96.648257 32.899053 
L 96.626091 33.393816 
L 96.574368 33.895803 
L 96.522645 34.39779 
L 96.441367 34.826133 
L 96.360089 35.254477 
L 96.208701 35.633764 
L 96.057314 36.013051 
L 95.905926 36.392338 
L 95.754539 36.771624 
L 95.497129 37.152659 
L 95.239719 37.533694 
L 94.821814 37.935004 
L 94.403909 38.336314 
L 94.015045 38.593367 
L 93.62618 38.85042 
L 93.245735 39.221899 
L 93.015303 39.526028 
L 92.784872 39.830157 
L 92.665102 40.309305 
L 92.545332 40.788453 
L 92.404771 41.125908 
" style="fill:none;stroke:#4169e1;stroke-linecap:square;stroke-width:0.532023;"/>
   </g>
   <g id="line2d_14">
    <path clip-path="url(#p54ac13f13f)" d="M 75.735317 46.685519 
L 75.679299 47.143868 
L 75.62328 47.602217 
L 75.567262 48.060565 
L 75.511243 48.518914 
L 75.455225 48.977263 
L 75.399206 49.435612 
L 75.343188 49.89396 
L 75.287169 50.352309 
L 75.249022 50.941748 
L 75.210874 51.531186 
L 75.172726 52.120625 
L 75.134579 52.710063 
L 75.096431 53.299502 
L 75.058284 53.888941 
L 75.020136 54.478379 
L 74.981989 55.067818 
L 74.922619 55.568174 
L 74.86325 56.068529 
L 74.803881 56.568885 
L 74.744511 57.069241 
L 74.72329 57.484825 
L 74.702068 57.900409 
L 74.680846 58.315993 
L 74.659625 58.731578 
L 74.638403 59.147162 
L 74.617181 59.562746 
L 74.595959 59.97833 
L 74.574738 60.393915 
L 74.506862 60.877258 
L 74.438987 61.360601 
L 74.371112 61.843944 
L 74.303237 62.327287 
" style="fill:none;stroke:#008000;stroke-linecap:square;stroke-width:0.532023;"/>
   </g>
   <g id="line2d_15">
    <path clip-path="url(#p54ac13f13f)" d="M 96.413701 41.648869 
L 96.03446 41.945424 
L 95.655218 42.241978 
L 95.275976 42.538533 
L 94.896734 42.835088 
L 94.443603 43.19037 
L 93.990472 43.545653 
L 93.537341 43.900936 
L 93.08421 44.256219 
L 92.829291 44.459612 
L 92.574373 44.663006 
L 92.319454 44.866399 
L 92.064536 45.069792 
L 91.809617 45.273186 
L 91.554699 45.476579 
L 91.29978 45.679972 
L 91.044862 45.883366 
L 90.632885 46.223151 
L 90.220909 46.562936 
L 89.808932 46.902721 
L 89.396956 47.242506 
L 89.02622 47.572037 
L 88.655484 47.901568 
L 88.284748 48.231099 
L 87.914012 48.56063 
L 87.599896 48.823276 
L 87.28578 49.085922 
L 86.971664 49.348568 
L 86.657548 49.611214 
L 86.425828 49.935618 
L 86.194107 50.260022 
L 85.962386 50.584425 
L 85.730666 50.908829 
L 85.52979 51.243487 
L 85.328913 51.578145 
L 85.128037 51.912804 
L 84.927161 52.247462 
L 84.680061 52.803516 
L 84.432961 53.35957 
L 84.22693 53.874375 
L 84.020899 54.38918 
L 83.814868 54.883476 
L 83.608836 55.377773 
L 83.392667 55.882323 
L 83.176497 56.386874 
L 82.991086 56.731786 
L 82.805676 57.076698 
L 82.620265 57.42161 
L 82.434854 57.766523 
" style="fill:none;stroke:#4169e1;stroke-linecap:square;stroke-width:0.532023;"/>
   </g>
   <g id="line2d_16">
    <path clip-path="url(#p54ac13f13f)" d="M 79.354868 61.269712 
L 79.222898 61.570345 
L 79.090928 61.870978 
L 78.958958 62.171611 
L 78.826988 62.472244 
" style="fill:none;stroke:#008000;stroke-linecap:square;stroke-width:0.532023;"/>
   </g>
   <g id="line2d_17">
    <path clip-path="url(#p54ac13f13f)" d="M 96.057314 11.021599 
L 94.225543 4.943687 
L 93.56913 4.520004 
L 91.970198 4.438088 
L 90.392401 4.631402 
L 89.926554 4.753053 
L 88.909973 5.542156 
L 88.406923 6.182691 
L 87.205017 8.575519 
L 86.866329 10.232729 
L 86.453407 12.684169 
L 85.81813 14.592605 
L 85.320322 15.966428 
L 85.177354 17.649739 
L 85.129756 19.85741 
L 85.071589 21.533148 
L 84.867792 29.749282 
L 84.621637 31.223665 
L 83.811603 32.690008 
L 82.678603 34.201446 
L 79.443535 38.04174 
L 78.930089 38.894233 
L 77.866082 41.302792 
L 77.400063 42.891019 
L 76.91308 46.882213 
L 76.701035 48.237624 
L 76.796575 49.084524 
L 77.272904 49.783204 
L 78.321103 50.619383 
L 78.321103 50.619383 
" style="fill:none;stroke:#008000;stroke-linecap:square;stroke-width:0.532023;"/>
   </g>
   <g id="line2d_18">
    <path clip-path="url(#p54ac13f13f)" d="M 77.253315 50.446927 
L 77.242747 50.989464 
L 77.232179 51.532002 
L 77.221611 52.074539 
L 77.211044 52.617077 
L 77.221525 53.215313 
L 77.232007 53.813549 
L 77.274451 54.300388 
L 77.316894 54.787227 
L 77.406936 55.353769 
L 77.496978 55.92031 
" style="fill:none;stroke:#008000;stroke-linecap:square;stroke-width:0.532023;"/>
   </g>
   <g id="line2d_19">
    <path clip-path="url(#p54ac13f13f)" d="M 108.776948 36.416458 
L 108.83606 36.756243 
L 108.791726 37.051749 
L 108.703059 37.391068 
L 108.599957 37.701489 
L 108.518679 38.018902 
L 108.437401 38.336314 
L 108.341344 38.639044 
L 108.245288 38.941775 
L 107.97963 39.370118 
L 107.750744 39.643252 
L 107.521859 39.916385 
L 107.152412 40.389008 
L 106.833055 40.721219 
L 106.513698 41.05343 
L 106.194341 41.385641 
L 105.874984 41.717852 
L 105.555627 42.050063 
L 105.23627 42.382274 
L 104.916913 42.714485 
L 104.597556 43.046696 
L 104.26892 43.55614 
L 103.940284 44.065585 
L 103.611648 44.57503 
L 103.283012 45.084474 
L 103.009793 45.450011 
L 102.736574 45.815548 
L 102.463355 46.181085 
L 102.190136 46.546622 
L 101.928 46.845624 
L 101.665865 47.144626 
L 101.403729 47.443627 
L 101.141593 47.742629 
L 100.916402 48.037901 
L 100.691212 48.333174 
L 100.466021 48.628447 
L 100.24083 48.92372 
L 100.052498 49.252319 
L 99.864166 49.580917 
L 99.675833 49.909516 
L 99.487501 50.238115 
L 99.198989 50.638493 
L 98.910477 51.038871 
L 98.621964 51.439248 
L 98.333452 51.839626 
L 97.95 52.317842 
L 97.566548 52.796058 
L 97.183096 53.274274 
L 96.799645 53.752491 
L 96.482178 54.080973 
L 96.164711 54.409455 
L 95.847244 54.737937 
L 95.529778 55.06642 
L 95.094088 55.424499 
L 94.658398 55.782578 
L 94.222708 56.140658 
L 93.787018 56.498737 
L 93.421523 56.760801 
L 93.056029 57.022864 
L 92.690534 57.284927 
L 92.325039 57.546991 
L 92.059209 57.753705 
L 91.793379 57.960419 
L 91.527549 58.167134 
L 91.261718 58.373848 
L 90.995888 58.580562 
L 90.730058 58.787276 
L 90.464228 58.993991 
L 90.198398 59.200705 
L 89.901165 59.460962 
L 89.603932 59.721219 
L 89.306699 59.981477 
L 89.009466 60.241734 
L 88.712233 60.501991 
L 88.415 60.762248 
L 88.117767 61.022505 
L 87.820533 61.282763 
L 87.370152 61.696191 
L 86.91977 62.10962 
" style="fill:none;stroke:#000000;stroke-linecap:square;stroke-width:0.532023;"/>
   </g>
   <g id="line2d_20">
    <path clip-path="url(#p54ac13f13f)" d="M 77.916945 59.716675 
L 77.771143 60.098758 
L 77.62534 60.480842 
L 77.479537 60.862925 
L 77.333734 61.245009 
L 77.187932 61.627092 
L 77.042129 62.009176 
L 76.896326 62.391259 
L 76.750523 62.773343 
" style="fill:none;stroke:#008000;stroke-linecap:square;stroke-width:0.532023;"/>
   </g>
   <g id="line2d_21">
    <path clip-path="url(#p54ac13f13f)" d="M 97.983938 40.449134 
L 97.626734 40.507105 
L 97.26953 40.565076 
L 96.912326 40.623047 
L 96.555122 40.681018 
L 96.197919 40.738989 
L 95.840715 40.796959 
L 95.483511 40.85493 
L 95.126307 40.912901 
L 94.602036 40.994235 
L 94.077765 41.075569 
L 93.597827 41.119849 
L 93.11789 41.164128 
L 92.76133 41.145018 
L 92.404771 41.125908 
L 92.067113 41.211437 
L 91.729456 41.296966 
L 91.23474 41.400206 
L 90.740025 41.503447 
L 90.208365 41.584781 
L 89.676704 41.666115 
L 89.115489 41.791728 
L 88.554273 41.917341 
L 88.081724 42.009629 
L 87.609175 42.101916 
L 87.136627 42.194203 
L 86.664078 42.286491 
L 86.232083 42.360251 
L 85.800087 42.434011 
L 85.368092 42.507771 
L 84.936097 42.58153 
L 84.606172 42.640725 
L 84.276247 42.699919 
L 83.784109 42.788478 
L 83.400056 42.862354 
L 83.016003 42.936231 
L 82.484343 43.113348 
L 81.923127 43.334744 
L 81.450578 43.615335 
" style="fill:none;stroke:#008000;stroke-linecap:square;stroke-width:0.532023;"/>
   </g>
   <g id="line2d_22">
    <path clip-path="url(#p54ac13f13f)" d="M 94.403909 38.336314 
L 94.041507 38.465423 
L 93.679105 38.594532 
L 93.088334 38.720145 
L 92.497562 38.845759 
L 91.940041 38.986054 
L 91.382519 39.126349 
L 90.824998 39.266645 
L 90.267476 39.40694 
L 89.809662 39.523231 
L 89.351849 39.639523 
L 88.894035 39.755814 
L 88.436221 39.872105 
L 87.978408 39.988397 
L 87.520594 40.104688 
L 87.06278 40.220979 
L 86.604967 40.337271 
L 86.036362 40.514388 
L 85.467757 40.691505 
L 85.061537 40.905677 
L 84.655317 41.119849 
L 84.378403 41.304423 
L 84.10149 41.488998 
L 83.824576 41.673572 
L 83.547663 41.858147 
L 83.155533 42.12895 
L 82.927679 42.286491 
L 82.565793 42.552166 
L 82.203906 42.817842 
L 81.805247 43.186991 
L 81.450578 43.615335 
" style="fill:none;stroke:#008000;stroke-linecap:square;stroke-width:0.532023;"/>
   </g>
   <g id="line2d_23">
    <path clip-path="url(#p54ac13f13f)" d="M 81.450578 43.615335 
L 81.00621 44.025967 
L 80.651541 44.380667 
L 80.356327 44.77918 
L 80.045992 45.296083 
L 79.913162 45.591355 
L 79.780333 45.886628 
L 79.529109 46.462725 
L 79.418447 46.757998 
L 79.307785 47.05327 
L 79.196951 47.37814 
L 79.086116 47.70301 
L 79.012227 48.101757 
L 78.938338 48.500503 
L 78.87957 49.076134 
L 78.820458 49.666679 
L 78.80568 49.984325 
L 78.790902 50.30197 
L 78.857231 50.64898 
L 78.92356 50.99599 
L 79.093505 51.283805 
L 79.263451 51.57162 
L 79.440614 51.844753 
L 79.617777 52.117886 
L 79.913334 52.634789 
L 80.06833 52.944977 
L 80.223326 53.255164 
L 80.378322 53.602174 
L 80.533318 53.949184 
L 80.695875 54.303418 
L 80.909982 54.790723 
L 81.12409 55.278028 
L 81.345758 55.757875 
L 81.567426 56.237723 
L 81.781534 56.621554 
L 81.995641 57.005385 
L 82.215248 57.385954 
L 82.434854 57.766523 
L 82.576962 58.183447 
L 82.71907 58.600371 
L 82.815127 59.028482 
L 82.911183 59.456592 
L 82.99985 59.870021 
L 83.088517 60.386923 
L 83.118073 60.785437 
L 83.103295 61.332169 
L 83.014628 61.952079 
L 82.918572 62.291631 
L 82.822516 62.631183 
L 82.684531 62.951858 
L 82.546547 63.272533 
L 82.202188 63.78291 
" style="fill:none;stroke:#4169e1;stroke-linecap:square;stroke-width:0.532023;"/>
   </g>
   <g id="line2d_24">
    <path clip-path="url(#p54ac13f13f)" d="M 90.813914 47.092889 
L 90.951383 47.393056 
L 90.939011 47.64335 
L 90.888835 47.843306 
L 90.726278 48.068431 
L 90.507531 48.305908 
L 90.288784 48.543384 
L 89.84476 48.930944 
L 89.400736 49.318505 
L 89.056893 49.656192 
L 88.713049 49.99388 
L 88.43794 50.256526 
L 88.162831 50.519172 
L 87.906451 50.850334 
L 87.650072 51.181496 
L 87.393693 51.575349 
L 87.137314 51.969201 
L 86.893479 52.363054 
L 86.649644 52.756906 
L 86.374535 53.200864 
L 86.099425 53.644822 
L 85.886864 54.076195 
L 85.674304 54.507569 
L 85.505561 54.907713 
L 85.336818 55.307858 
L 85.136629 55.714062 
L 84.93644 56.120266 
L 84.836432 56.308103 
L 84.686247 56.420433 
L 84.511318 56.545347 
L 84.361134 56.607804 
L 84.198577 56.59522 
L 84.061108 56.583101 
" style="fill:none;stroke:#000000;stroke-linecap:square;stroke-width:0.532023;"/>
   </g>
   <g id="line2d_25">
    <path clip-path="url(#p54ac13f13f)" d="M 92.414393 42.693394 
L 92.100965 42.712038 
L 91.626011 42.74886 
L 91.292305 42.778457 
L 90.9586 42.808054 
L 90.333461 42.857926 
L 89.977074 42.932968 
L 89.620686 43.00801 
L 89.195564 43.258304 
L 88.895367 43.477137 
L 88.59517 43.69597 
L 88.244968 43.95209 
L 87.894767 44.208211 
L 87.594741 44.452213 
L 87.294716 44.696215 
L 86.881966 45.039962 
L 86.469216 45.383709 
L 86.094099 45.70252 
L 85.718981 46.02133 
L 85.343863 46.346433 
L 84.968745 46.671537 
L 84.643632 47.03416 
L 84.355979 47.390492 
L 84.068326 47.746824 
L 83.78703 48.178197 
L 83.505735 48.60957 
L 83.186808 49.134629 
L 82.86788 49.659688 
L 82.548953 50.172395 
L 82.230025 50.685103 
L 81.973646 51.09154 
L 81.717267 51.497977 
L 81.548524 51.791618 
L 81.379782 52.08526 
L 81.254685 52.379134 
L 81.129589 52.673009 
L 80.95466 53.248173 
L 80.825267 53.775795 
L 80.695875 54.303418 
" style="fill:none;stroke:#4169e1;stroke-linecap:square;stroke-width:0.532023;"/>
   </g>
   <g id="line2d_26">
    <path clip-path="url(#p54ac13f13f)" d="M 109.00549 36.328366 
L 109.318231 36.540906 
L 109.530964 36.778616 
L 109.693521 37.053614 
L 109.693521 37.341196 
L 109.643345 37.766277 
L 109.543336 38.304153 
L 109.468416 38.541863 
L 109.330603 38.916605 
L 109.193135 39.304399 
L 108.980402 39.791937 
L 108.836747 40.085811 
L 108.693092 40.379686 
L 108.480359 40.867224 
L 108.505448 41.304889 
L 108.492732 41.842766 
L 108.49909 42.242678 
L 108.505448 42.642589 
L 108.455443 42.992862 
L 108.405439 43.343134 
L 108.280343 43.637008 
L 108.155246 43.930883 
L 107.905053 44.324735 
L 107.65486 44.718588 
L 107.48921 44.993585 
L 107.32356 45.268583 
L 107.157911 45.54358 
L 106.992261 45.818578 
L 106.692064 46.34387 
L 106.391866 46.869162 
L 106.085483 47.350408 
L 105.7791 47.831653 
L 105.497804 48.156756 
L 105.216509 48.481859 
L 104.860121 48.80067 
L 104.503734 49.119481 
L 104.134802 49.444584 
L 103.765871 49.769687 
L 103.340749 50.150955 
L 102.915627 50.532223 
L 102.534151 50.863618 
L 102.152676 51.195013 
L 101.777558 51.532701 
L 101.40244 51.870389 
L 101.142968 52.098543 
L 100.883496 52.326698 
L 100.624024 52.554853 
L 100.364552 52.783008 
L 100.026894 53.076882 
L 99.689237 53.370757 
L 99.239027 53.720796 
L 98.995192 54.008378 
L 98.751356 54.29596 
L 98.457517 54.614771 
L 98.163678 54.933582 
L 97.832206 55.346078 
L 97.500735 55.758574 
L 97.297539 56.030542 
L 97.094343 56.30251 
L 96.891147 56.574478 
L 96.687951 56.846446 
L 96.403219 57.319768 
L 96.118487 57.79309 
L 95.937201 58.124253 
L 95.755914 58.455415 
L 95.499535 58.830623 
L 95.243155 59.205832 
L 94.949316 59.51835 
L 94.655477 59.830869 
L 94.286545 60.131036 
L 93.917614 60.431202 
L 93.479948 60.731136 
L 93.042282 61.03107 
L 92.59843 61.324944 
L 92.154578 61.618819 
L 91.66055 61.875173 
L 91.166521 62.131526 
L 90.622489 62.362711 
L 90.078457 62.593895 
L 89.634605 62.743978 
L 89.190753 62.894062 
L 88.640534 63.037853 
L 88.090316 63.181644 
L 87.72757 63.256686 
L 87.364825 63.331727 
L 87.020981 63.406769 
L 86.677138 63.481811 
L 86.333294 63.581789 
L 85.98945 63.681767 
L 85.657979 63.856786 
L 85.326508 64.031806 
L 85.038854 64.225703 
L 84.751201 64.419599 
L 84.488636 64.669427 
L 84.226071 64.919256 
L 83.813321 65.319634 
L 83.438375 65.682257 
" style="fill:none;stroke:#ff0000;stroke-linecap:square;stroke-width:0.532023;"/>
   </g>
   <g id="line2d_27">
    <path clip-path="url(#p54ac13f13f)" d="M 102.437923 26.879636 
L 102.303547 26.577954 
L 102.169172 26.276273 
L 102.034796 25.974591 
L 101.900421 25.67291 
L 101.719134 25.266473 
L 101.537847 24.860035 
L 101.337658 24.478535 
L 101.137469 24.097034 
L 100.88109 23.759579 
L 100.624711 23.422124 
L 100.318328 23.103081 
L 100.011944 22.784037 
L 99.593009 22.433998 
L 99.174073 22.083958 
L 98.874047 21.896354 
L 98.574022 21.70875 
L 98.309738 21.507396 
L 98.04786 21.308139 
L 97.785983 21.108882 
L 97.417223 20.746025 
L 97.048463 20.383168 
L 96.72335 20.064358 
L 96.398236 19.745547 
L 96.072951 19.476842 
L 95.747666 19.208137 
L 95.372548 18.901677 
L 94.99743 18.595218 
L 94.716135 18.370093 
L 94.43484 18.144968 
L 94.15973 17.957364 
L 93.884621 17.769759 
L 93.409323 17.369848 
L 93.146758 17.157307 
L 92.884193 16.944767 
L 92.546363 16.519686 
L 92.22125 16.044266 
L 92.021233 15.712871 
L 91.821216 15.381476 
L 91.483387 14.868768 
L 91.308458 14.574894 
L 91.133529 14.281019 
L 90.867183 13.92026 
L 90.745867 13.756193 
L 90.545678 13.474671 
L 90.34549 13.193148 
L 90.07038 12.899273 
L 89.795271 12.605399 
L 89.52652 12.330401 
L 89.257769 12.055403 
L 88.945027 11.811634 
L 88.632286 11.567865 
L 88.307173 11.41149 
L 87.982059 11.255114 
L 87.370839 11.147678 
L 86.759619 11.040243 
" style="fill:none;stroke:#008000;stroke-linecap:square;stroke-width:0.532023;"/>
   </g>
   <g id="line2d_28">
    <path clip-path="url(#p54ac13f13f)" d="M 96.057314 11.021599 
L 96.602721 11.242063 
L 96.965295 11.554349 
L 97.290408 11.8671 
L 97.615521 12.179852 
L 97.846813 12.542475 
L 98.078104 12.905099 
L 98.234474 13.230202 
L 98.390845 13.555305 
L 98.490853 13.874116 
L 98.590862 14.192927 
L 98.57849 14.680931 
L 98.503569 15.218341 
L 98.465937 15.556029 
L 98.428305 15.893717 
L 98.315924 16.381255 
L 98.253376 16.831505 
L 98.353385 17.406669 
L 98.365757 17.882089 
L 98.365757 18.382212 
L 98.403561 18.957376 
L 98.403561 19.407626 
L 98.441021 20.032663 
L 98.465765 20.582658 
L 98.453393 20.995621 
L 98.378473 21.320491 
L 98.309738 21.507396 
L 98.228288 21.733453 
L 97.990811 22.108195 
L 97.665698 22.35849 
L 97.403132 22.558446 
L 97.040215 22.783571 
L 96.590005 22.996111 
L 96.280185 23.087 
L 95.970365 23.177889 
" style="fill:none;stroke:#008000;stroke-linecap:square;stroke-width:0.532023;"/>
   </g>
   <g id="line2d_29">
    <path clip-path="url(#p54ac13f13f)" d="M 66.106666 8.445944 
L 66.619424 8.283276 
L 67.194731 8.121074 
L 67.644941 8.070735 
L 68.095151 7.783153 
L 68.257708 7.445699 
L 68.38246 6.995448 
L 68.695202 6.657994 
L 69.007943 6.332658 
L 69.370517 6.23268 
L 69.73309 6.132702 
L 70.133296 6.076304 
L 70.533502 6.019906 
L 71.002442 5.894992 
L 71.471382 5.770078 
L 71.849679 5.666837 
L 72.227975 5.563597 
L 72.606272 5.460356 
L 72.984569 5.357116 
L 73.522243 5.244553 
L 74.059917 5.13199 
L 74.60395 5.15716 
L 75.147982 5.182329 
L 75.460552 5.369933 
L 75.773121 5.557537 
L 76.154597 5.688744 
L 76.536072 5.81995 
L 76.879916 5.932513 
L 77.223759 6.045076 
L 77.648881 6.045076 
L 78.074003 6.045076 
L 78.505483 6.013847 
L 78.936963 5.982618 
L 79.324625 5.907577 
L 79.712286 5.832535 
L 80.162496 5.813658 
L 80.612706 5.794781 
L 80.987824 5.813658 
L 81.362942 5.832535 
L 81.975708 5.907577 
L 82.551015 6.082363 
L 83.038685 6.282785 
L 83.332524 6.407699 
L 83.626364 6.532614 
L 84.139122 6.883119 
L 84.514411 7.170701 
L 85.002082 7.420529 
L 85.582887 7.658239 
L 85.720356 7.725357 
L 85.876039 7.801331 
L 86.281571 7.98544 
L 86.599811 8.132726 
L 86.933001 8.293064 
L 87.266191 8.453402 
" style="fill:none;stroke:#008000;stroke-linecap:square;stroke-width:0.532023;"/>
   </g>
   <g id="line2d_30">
    <path clip-path="url(#p54ac13f13f)" d="M 68.095151 7.783153 
L 68.562201 7.628875 
L 69.100047 7.566418 
L 69.675353 7.478792 
L 70.044285 7.422627 
L 70.413217 7.366462 
L 70.73833 7.385106 
L 71.063444 7.40375 
L 71.438561 7.460148 
L 71.813679 7.516545 
L 72.326437 7.604172 
L 72.763931 7.741671 
L 73.045398 7.897813 
L 73.326866 8.053956 
L 73.814536 8.379292 
L 74.145835 8.623061 
L 74.477135 8.86683 
L 74.746058 9.110832 
L 75.014981 9.354834 
L 75.296276 9.592311 
L 75.577572 9.829788 
L 75.833951 10.142539 
L 76.09033 10.455291 
L 76.403071 10.930244 
L 76.546898 11.224118 
L 76.690725 11.517993 
L 76.840737 11.830744 
L 76.99075 12.143496 
L 77.134577 12.462307 
L 77.278403 12.781117 
L 77.42223 13.118805 
L 77.566056 13.456493 
L 77.697339 13.769011 
L 77.828622 14.08153 
L 77.941174 14.394048 
L 78.053727 14.706566 
L 78.185009 15.013025 
L 78.316292 15.319485 
L 78.460118 15.638295 
L 78.603945 15.957106 
L 78.729042 16.250981 
L 78.854138 16.544855 
L 78.98164 17.031927 
L 79.083023 17.464932 
L 79.119796 18.036367 
L 79.05553 18.617125 
L 79.046251 19.059451 
L 79.064465 19.464956 
L 79.129075 20.055036 
L 79.207433 20.409969 
L 79.28579 20.764902 
L 79.423946 21.363838 
L 79.506942 21.681949 
L 79.589939 22.000061 
L 79.700602 22.479209 
L 79.801985 23.050645 
L 79.857316 23.594581 
L 79.912647 24.166016 
L 79.940313 24.548449 
L 79.967978 24.930882 
L 79.986365 25.355031 
L 80.004751 25.77918 
L 79.981725 26.180024 
L 79.958699 26.580868 
L 79.903368 26.926479 
L 79.848037 27.27209 
L 79.746654 27.645434 
L 79.64527 28.018779 
L 79.497835 28.35064 
L 79.3504 28.682501 
L 79.202965 28.991291 
L 79.05553 29.300081 
L 78.778874 29.816051 
L 78.594666 30.194056 
L 78.456166 30.525917 
L 78.299452 30.903922 
L 78.096686 31.355571 
L 77.893919 31.751754 
L 77.700432 32.120437 
L 77.442335 32.572086 
" style="fill:none;stroke:#4169e1;stroke-linecap:square;stroke-width:0.532023;"/>
   </g>
   <g id="line2d_31">
    <path clip-path="url(#p54ac13f13f)" d="M 65.901494 8.651959 
L 65.842383 9.065854 
L 65.798049 9.390724 
L 65.753715 9.715594 
L 65.576724 10.217581 
L 65.340278 10.778762 
L 65.177893 11.133229 
L 65.015509 11.487697 
L 64.808618 11.96032 
L 64.601728 12.432942 
L 64.380231 12.89065 
L 64.158735 13.348358 
L 63.952016 13.658546 
L 63.745298 13.968734 
L 63.553357 14.249325 
L 63.361416 14.529915 
L 63.117753 14.73663 
L 62.87409 14.943344 
L 62.630427 15.150058 
L 62.386763 15.356772 
L 61.914043 15.593084 
L 61.441323 15.829395 
L 61.145937 15.954892 
L 60.850551 16.080389 
L 60.555165 16.205886 
L 60.259779 16.331382 
L 59.979257 16.479135 
L 59.698735 16.626888 
L 59.418213 16.774641 
L 59.137691 16.922394 
L 58.66497 17.217667 
L 58.19225 17.51294 
L 57.734479 17.79353 
L 57.276708 18.074121 
L 56.894546 18.373356 
L 56.512383 18.67259 
L 56.26786 18.880703 
L 56.023338 19.088816 
L 55.735856 19.296928 
L 55.448375 19.505041 
L 55.045248 19.96135 
L 54.787494 20.184378 
L 54.52974 20.407406 
L 54.26391 20.61412 
L 53.99808 20.820834 
L 53.643583 20.968587 
L 53.289085 21.11634 
L 52.846093 21.21958 
L 52.4031 21.322821 
L 52.004269 21.367333 
L 51.605438 21.411846 
L 51.132889 21.456125 
L 50.66034 21.500404 
L 50.158236 21.544684 
L 49.656132 21.588963 
L 49.227917 21.603645 
L 48.799702 21.618327 
L 48.326981 21.662606 
L 47.854261 21.706885 
" style="fill:none;stroke:#008000;stroke-linecap:square;stroke-width:0.532023;"/>
   </g>
   <g id="line2d_32">
    <path clip-path="url(#p54ac13f13f)" d="M 47.885878 22.149678 
L 48.154973 22.454506 
L 48.441939 22.696411 
L 48.728905 22.938315 
L 49.024721 23.144563 
L 49.320536 23.350812 
L 49.616352 23.55706 
L 49.912167 23.763308 
L 50.423207 24.104025 
L 50.934247 24.444743 
L 51.373631 24.713681 
L 51.813015 24.982619 
L 52.324055 25.215668 
L 52.835095 25.448717 
L 53.382049 25.654965 
L 53.929002 25.861213 
L 54.46702 25.995682 
L 55.005038 26.130151 
L 55.4891 26.228731 
L 55.973162 26.327311 
L 56.556029 26.434979 
L 57.138896 26.542648 
L 57.739634 26.668028 
L 58.340372 26.793408 
L 58.887154 26.883132 
L 59.433936 26.972856 
L 59.882256 27.062579 
L 60.330575 27.152303 
L 60.725111 27.286772 
L 61.119646 27.421241 
L 61.550095 27.564566 
L 61.980543 27.707891 
L 62.384014 27.734925 
L 62.787485 27.761959 
L 63.235633 27.744014 
L 63.683781 27.726069 
L 64.176949 27.636346 
L 64.670118 27.546622 
L 65.001933 27.465987 
L 65.333749 27.385352 
L 65.808875 27.367407 
L 66.284001 27.349462 
L 66.692627 27.371835 
L 67.101252 27.394208 
L 67.476885 27.448042 
L 67.852519 27.501876 
L 68.321631 27.571325 
L 68.790742 27.640773 
L 69.253496 27.673633 
L 69.71625 27.706493 
" style="fill:none;stroke:#008000;stroke-linecap:square;stroke-width:0.532023;"/>
   </g>
   <g id="line2d_33">
    <path clip-path="url(#p54ac13f13f)" d="M 69.71625 27.706493 
L 69.81351 27.713951 
L 70.436586 27.759628 
L 70.85621 27.756366 
L 71.275833 27.753103 
L 71.599743 27.686917 
L 71.923654 27.620731 
L 72.036378 27.57785 
L 72.597594 27.362979 
L 72.970994 27.326624 
L 73.344393 27.290268 
L 73.747692 27.382788 
L 74.15099 27.475309 
L 74.520953 27.623994 
L 74.890916 27.772679 
L 75.367932 28.175853 
L 75.574135 28.444792 
L 75.780338 28.71373 
L 75.920556 28.995486 
L 76.060774 29.277242 
L 76.311311 29.821644 
L 76.539853 30.333419 
L 76.703097 30.730767 
L 76.866341 31.128115 
L 77.182175 31.596077 
L 77.323768 31.933532 
L 77.383051 32.252809 
L 77.442335 32.572086 
L 77.250566 33.106699 
L 77.035427 33.590975 
L 76.874073 33.904658 
L 76.712719 34.218342 
L 76.443625 34.594949 
L 76.264572 35.061046 
L 76.174873 35.473543 
L 76.049433 35.993242 
L 75.977606 36.602897 
L 75.977606 36.98836 
L 75.977606 37.373823 
L 75.977606 37.750429 
L 75.977606 38.127036 
L 75.959563 38.467753 
L 75.94152 38.808471 
L 75.852165 39.399949 
L 75.798381 39.85719 
L 75.744596 40.314432 
L 75.717618 40.699895 
L 75.69064 41.085357 
L 75.654726 41.524654 
L 75.618812 41.963951 
L 75.592006 42.412104 
L 75.5652 42.860257 
L 75.547157 43.272753 
L 75.529114 43.68525 
L 75.529114 44.124546 
L 75.529114 44.563843 
L 75.529114 44.994051 
L 75.529114 45.424259 
L 75.529114 45.782922 
L 75.529114 46.141584 
" style="fill:none;stroke:#4169e1;stroke-linecap:square;stroke-width:0.532023;"/>
   </g>
   <g id="line2d_34">
    <path clip-path="url(#p54ac13f13f)" d="M 74.139649 46.442217 
L 74.087239 46.93561 
L 74.034829 47.429003 
L 73.982419 47.922397 
L 73.930009 48.41579 
L 73.8776 48.909183 
L 73.82519 49.402577 
L 73.77278 49.89597 
L 73.72037 50.389364 
L 73.66796 50.882757 
L 73.61555 51.37615 
L 73.56314 51.869544 
L 73.51073 52.362937 
L 73.45832 52.856331 
L 73.40591 53.349724 
L 73.3535 53.843117 
L 73.30109 54.336511 
" style="fill:none;stroke:#008000;stroke-linecap:square;stroke-width:0.532023;"/>
   </g>
   <g id="line2d_35">
    <path clip-path="url(#p54ac13f13f)" d="M 84.990053 28.729577 
L 84.651536 28.961694 
L 84.31302 29.19381 
L 83.945291 29.427092 
L 83.577562 29.660374 
L 83.299704 29.839589 
L 83.021845 30.018803 
L 82.708073 30.233907 
L 82.394301 30.449011 
L 82.11627 30.655259 
L 81.83824 30.861508 
L 81.587359 31.184047 
L 81.354006 31.560654 
L 80.977686 31.97315 
L 80.618892 32.385647 
L 80.358905 32.600751 
L 80.098917 32.815855 
L 79.803016 32.986213 
L 79.507114 33.156572 
L 79.112579 33.273096 
L 78.718044 33.389621 
L 78.36853 33.506145 
L 78.019016 33.622669 
L 77.498697 33.74805 
L 77.175989 33.855718 
L 76.712719 34.218342 
" style="fill:none;stroke:#008000;stroke-linecap:square;stroke-width:0.532023;"/>
   </g>
   <g id="line2d_36">
    <path clip-path="url(#p54ac13f13f)" d="M 67.644941 8.070735 
L 67.848738 8.221285 
L 67.932025 8.564566 
L 68.015312 8.907847 
L 68.098598 9.251128 
L 68.181885 9.594408 
L 68.265172 9.937689 
L 68.348458 10.28097 
L 68.431745 10.624251 
L 68.515032 10.967532 
L 68.598319 11.310813 
L 68.681605 11.654093 
L 68.764892 11.997374 
L 68.848179 12.340655 
L 68.931465 12.683936 
L 69.014752 13.027217 
L 69.098039 13.370498 
L 69.181325 13.713779 
L 69.264612 14.057059 
L 69.347899 14.40034 
L 69.431185 14.743621 
L 69.514472 15.086902 
L 69.597759 15.430183 
L 69.681046 15.773464 
L 69.764332 16.116744 
L 69.847619 16.460025 
L 69.930906 16.803306 
L 70.014192 17.146587 
L 70.097479 17.489868 
L 70.180766 17.833149 
L 70.264052 18.17643 
L 70.347339 18.51971 
L 70.430626 18.862991 
L 70.513913 19.206272 
L 70.60621 19.677002 
L 70.698507 20.147731 
L 70.790805 20.61846 
L 70.883102 21.08919 
L 70.975399 21.559919 
L 71.067697 22.030649 
L 71.159994 22.501378 
L 71.252291 22.972107 
L 71.344589 23.442837 
L 71.436886 23.913566 
L 71.529183 24.384295 
L 71.621481 24.855025 
L 71.713778 25.325754 
L 71.806075 25.796484 
L 71.898373 26.267213 
L 71.99067 26.737942 
L 72.013524 27.157896 
L 72.036378 27.57785 
L 71.924685 28.152082 
L 71.679991 28.627968 
L 71.415707 29.004575 
L 71.197476 29.275378 
L 70.920132 29.632408 
L 70.668908 29.949355 
L 70.384692 30.346004 
" style="fill:none;stroke:#000000;stroke-linecap:square;stroke-width:0.532023;"/>
   </g>
   <g id="line2d_37">
    <path clip-path="url(#p54ac13f13f)" d="M 66.604647 9.056998 
L 66.532132 9.255089 
L 66.452744 9.55246 
L 66.413221 9.816737 
L 66.419751 10.061438 
L 66.446214 10.339232 
L 66.485736 10.610035 
L 66.578528 11.13859 
L 66.666894 11.605328 
L 66.755261 12.072066 
L 66.843627 12.538805 
L 66.931994 13.005543 
L 67.02036 13.472282 
L 67.108727 13.93902 
L 67.197094 14.405759 
L 67.28546 14.872497 
L 67.364462 15.273792 
L 67.443463 15.675088 
L 67.522465 16.076383 
L 67.601466 16.477679 
L 67.680468 16.878974 
L 67.75947 17.28027 
L 67.838471 17.681565 
L 67.917473 18.08286 
L 67.996474 18.484156 
L 68.075476 18.885451 
L 68.154477 19.286747 
L 68.233479 19.688042 
L 68.31248 20.089338 
L 68.391482 20.490633 
L 68.470483 20.891928 
L 68.549485 21.293224 
L 68.628486 21.694519 
L 68.707488 22.095815 
L 68.78649 22.49711 
L 68.865491 22.898406 
L 68.944493 23.299701 
L 69.023494 23.700996 
L 69.102496 24.102292 
L 69.181497 24.503587 
L 69.260499 24.904883 
L 69.3395 25.306178 
L 69.418502 25.707474 
L 69.497503 26.108769 
L 69.576505 26.510064 
L 69.655506 26.91136 
L 69.734508 27.312655 
L 69.81351 27.713951 
L 69.884907 28.042957 
L 69.956305 28.371964 
L 70.027703 28.700971 
L 70.099101 29.029977 
L 70.170499 29.358984 
L 70.241896 29.68799 
L 70.313294 30.016997 
L 70.384692 30.346004 
L 70.461911 30.738341 
L 70.539129 31.130679 
L 70.616348 31.523016 
L 70.693567 31.915354 
L 70.770786 32.307692 
L 70.848004 32.700029 
L 70.925223 33.092367 
L 71.002442 33.484705 
L 71.079661 33.877042 
L 71.156879 34.26938 
L 71.234098 34.661717 
L 71.311317 35.054055 
L 71.388536 35.446393 
L 71.465754 35.83873 
L 71.542973 36.231068 
L 71.620192 36.623405 
L 71.734463 37.0098 
L 71.848734 37.396195 
L 72.109924 37.886064 
L 72.322313 38.228878 
L 72.534702 38.571693 
L 72.659799 38.860208 
L 72.784895 39.148722 
L 72.920989 39.475223 
L 73.057083 39.801725 
L 73.187679 40.133819 
L 73.318274 40.465914 
L 73.568811 40.955316 
L 73.699406 41.401838 
L 73.688408 41.684759 
" style="fill:none;stroke:#000000;stroke-linecap:square;stroke-width:0.532023;"/>
   </g>
   <g id="line2d_38">
    <path clip-path="url(#p54ac13f13f)" d="M 75.852165 39.399949 
L 75.745971 39.641387 
L 75.561076 39.852995 
L 75.296792 40.031511 
L 74.919784 40.183459 
L 74.701896 40.31583 
L 74.41768 40.573116 
L 74.219381 40.890529 
L 74.047545 41.214466 
L 73.928635 41.458701 
L 73.822784 41.610649 
L 73.688408 41.684759 
" style="fill:none;stroke:#008000;stroke-linecap:square;stroke-width:0.532023;"/>
   </g>
   <g id="line2d_39">
    <path clip-path="url(#p54ac13f13f)" d="M 74.531091 46.120143 
L 74.267066 45.877889 
L 74.00304 45.635635 
L 73.739014 45.393381 
L 73.474988 45.151126 
L 73.192146 44.813672 
L 73.061551 44.367616 
L 73.0942 43.910375 
L 73.246446 43.453133 
L 73.442339 42.985171 
L 73.64923 42.462676 
L 73.769171 42.092594 
L 73.769171 41.85302 
L 73.688408 41.684759 
" style="fill:none;stroke:#008000;stroke-linecap:square;stroke-width:0.532023;"/>
   </g>
   <g id="line2d_40">
    <path clip-path="url(#p54ac13f13f)" d="M 47.71851 22.489463 
L 47.342877 22.494823 
L 46.967244 22.500184 
L 46.545258 22.484744 
L 46.123272 22.469305 
L 45.701286 22.453865 
L 45.2793 22.438426 
L 44.857314 22.422986 
L 44.435328 22.407547 
L 44.013342 22.392107 
L 43.591357 22.376668 
L 43.097543 22.358592 
L 42.60373 22.340516 
L 42.109917 22.32244 
L 41.616103 22.304364 
L 41.12229 22.286288 
L 40.628477 22.268213 
L 40.134663 22.250137 
L 39.64085 22.232061 
L 39.147037 22.213985 
L 38.653223 22.195909 
L 38.15941 22.177833 
L 37.665597 22.159758 
L 37.171783 22.141682 
L 36.67797 22.123606 
L 36.184157 22.10553 
L 35.690343 22.087454 
L 35.19653 22.069378 
L 34.702717 22.051302 
L 34.208904 22.033227 
L 33.71509 22.015151 
L 33.221277 21.997075 
L 32.727464 21.978999 
L 32.23365 21.960923 
L 31.739837 21.942847 
L 31.246024 21.924772 
L 30.75221 21.906696 
L 30.258397 21.88862 
L 29.764584 21.870544 
L 29.27077 21.852468 
L 28.776957 21.834392 
L 28.283144 21.816316 
L 27.78933 21.798241 
L 27.473152 21.786646 
L 27.156974 21.775052 
L 26.840796 21.763458 
L 26.524618 21.751864 
L 26.20844 21.74027 
L 25.892262 21.728676 
L 25.576084 21.717081 
L 25.259906 21.705487 
L 24.704877 21.781927 
L 24.116854 21.923155 
L 23.605127 22.119382 
L 23.295543 22.290818 
L 22.98596 22.462255 
L 22.676376 22.633691 
L 22.366792 22.805128 
L 22.057208 22.976564 
L 21.747624 23.148001 
L 21.438041 23.319437 
L 21.128457 23.490874 
L 20.818873 23.66231 
L 20.509289 23.833747 
L 20.199705 24.005183 
L 19.890122 24.17662 
L 19.580538 24.348056 
L 19.270954 24.519493 
L 18.96137 24.690929 
L 18.651786 24.862366 
L 18.096757 25.123847 
L 17.759271 25.210774 
L 17.421785 25.297701 
L 17.035326 25.330561 
L 16.648868 25.363421 
L 16.243335 25.352468 
L 15.837802 25.341514 
L 15.43227 25.330561 
L 15.026737 25.319608 
L 14.548174 25.271833 
L 14.069611 25.224058 
L 13.591048 25.176283 
L 13.112486 25.128508 
L 12.740633 25.09122 
L 12.196257 24.976793 
L 11.651881 24.862366 
L 11.189299 24.720905 
L 10.726716 24.579445 
L 10.18234 24.323557 
L 9.637964 24.06767 
L 9.17521 23.801062 
L 8.712456 23.534454 
L 8.364145 23.262253 
L 8.015834 22.990052 
L 7.700171 22.717851 
L 7.384509 22.44565 
L 7.074173 22.189996 
L 6.763838 21.934341 
L 6.4645 21.683814 
L 6.165162 21.433286 
L 5.920295 21.221212 
L 5.675429 21.009137 
L 5.510811 20.771894 
" style="fill:none;stroke:#4169e1;stroke-linecap:square;stroke-width:0.532023;"/>
   </g>
   <g id="line2d_41">
    <path clip-path="url(#p54ac13f13f)" d="M 26.43114 20.975112 
L 25.964949 20.884107 
L 25.498758 20.793101 
L 25.032568 20.702096 
L 24.566377 20.61109 
L 24.049151 20.503189 
L 23.531925 20.395287 
L 23.014699 20.287385 
L 22.497473 20.179484 
L 21.985832 20.111201 
L 21.474191 20.042917 
L 20.962549 19.974634 
L 20.450908 19.906351 
L 20.052936 19.866616 
L 19.654964 19.826881 
L 19.256992 19.787146 
L 18.859021 19.747411 
L 18.495244 19.735992 
L 18.131467 19.724573 
L 17.767691 19.713153 
L 17.403914 19.701734 
L 16.9037 19.701734 
L 16.403486 19.701734 
L 15.903272 19.701734 
L 15.403058 19.701734 
L 14.902757 19.679012 
L 14.402457 19.656289 
L 13.902157 19.633567 
L 13.401857 19.610845 
L 13.066476 19.639277 
L 12.731096 19.667709 
L 12.395715 19.696141 
L 12.060335 19.724573 
L 11.724954 19.753005 
L 11.389573 19.781436 
L 11.054193 19.809868 
L 10.718812 19.8383 
L 10.298158 19.895164 
L 9.877504 19.952028 
L 9.456849 20.008892 
L 9.036195 20.065756 
L 8.501786 20.213509 
L 7.967376 20.361262 
L 7.535381 20.656768 
L 7.103385 20.952274 
L 6.67139 21.134052 
L 6.239395 21.134052 
L 5.675429 21.009137 
" style="fill:none;stroke:#4169e1;stroke-linecap:square;stroke-width:0.532023;"/>
   </g>
   <g id="line2d_42">
    <path clip-path="url(#p54ac13f13f)" d="M 65.850974 8.421707 
L 65.478434 8.159294 
L 65.160882 8.062812 
L 64.843329 7.96633 
L 64.401539 7.931838 
L 63.959749 7.897347 
L 63.435306 7.897347 
L 62.910863 7.897347 
L 62.579563 7.99045 
L 62.248264 8.083553 
L 61.916964 8.176656 
L 61.585665 8.269759 
L 61.178414 8.387216 
L 60.771163 8.504672 
L 60.391491 8.611642 
L 60.01182 8.718611 
L 59.632149 8.82558 
L 59.252477 8.93255 
L 58.855622 9.056765 
L 58.458767 9.18098 
L 58.061912 9.305195 
L 57.665058 9.42941 
L 57.216394 9.498392 
L 56.767731 9.567375 
L 56.401892 9.536379 
L 56.036054 9.505384 
L 55.670215 9.474388 
L 55.304376 9.443393 
L 54.790158 9.412281 
L 54.275939 9.381169 
L 53.76172 9.350057 
L 53.247501 9.318945 
L 52.771258 9.318945 
L 52.295015 9.318945 
L 51.818772 9.318945 
L 51.342529 9.318945 
L 50.914572 9.294824 
L 50.486614 9.270704 
L 50.058657 9.246583 
L 49.6307 9.222463 
L 49.282131 9.198225 
L 48.933562 9.173988 
L 48.584993 9.149751 
L 48.236424 9.125514 
L 47.867234 9.080652 
L 47.498045 9.03579 
L 47.128856 8.990929 
L 46.759666 8.946067 
L 46.376558 8.904701 
L 45.99345 8.863334 
L 45.610342 8.821968 
L 45.227234 8.780602 
L 44.833816 8.739236 
L 44.440398 8.69787 
L 44.046979 8.656504 
L 43.653561 8.615137 
" style="fill:none;stroke:#008000;stroke-linecap:square;stroke-width:0.532023;"/>
   </g>
   <g id="line2d_43">
    <path clip-path="url(#p54ac13f13f)" d="M 47.854261 21.706885 
L 47.744286 21.5582 
L 47.675208 21.185555 
L 47.60613 20.81291 
L 47.571677 20.412649 
L 47.537224 20.012388 
L 47.50277 19.612127 
L 47.468317 19.211865 
L 47.419946 18.859845 
L 47.371574 18.507825 
L 47.323202 18.155805 
L 47.27483 17.803785 
L 47.171299 17.489751 
L 47.067768 17.175718 
L 46.964237 16.861685 
L 46.860706 16.547652 
L 46.736468 16.192136 
L 46.612231 15.83662 
L 46.487994 15.481104 
L 46.363756 15.125588 
L 46.267185 14.71146 
L 46.170613 14.297333 
L 46.073869 13.786723 
L 45.977126 13.276113 
L 45.825395 12.77902 
L 45.673664 12.281927 
L 45.494095 11.840299 
L 45.314527 11.398672 
L 45.155922 10.846579 
L 44.997318 10.294487 
L 44.859162 9.990824 
L 44.721006 9.687162 
L 44.486278 9.390258 
L 44.25155 9.093354 
L 43.952556 8.854245 
L 43.653561 8.615137 
" style="fill:none;stroke:#4169e1;stroke-linecap:square;stroke-width:0.532023;"/>
   </g>
   <g id="line2d_44">
    <path clip-path="url(#p54ac13f13f)" d="M 43.653561 8.615137 
L 43.185824 8.436156 
L 42.889063 8.318932 
L 42.592303 8.201709 
L 42.302416 8.063744 
L 42.012529 7.925779 
L 41.729515 7.787581 
L 41.446501 7.649383 
L 41.122075 7.51841 
L 40.797649 7.387436 
L 40.397271 7.263221 
L 39.996894 7.139006 
L 39.644974 7.083774 
L 39.293054 7.028541 
L 38.913469 7.0353 
L 38.533883 7.042058 
L 37.926444 7.118032 
L 37.319004 7.194006 
L 36.946292 7.245743 
L 36.57358 7.29748 
L 36.200868 7.349216 
L 35.828156 7.400953 
L 35.22759 7.552901 
L 34.627023 7.704849 
L 34.312993 7.794573 
L 33.998963 7.884296 
L 33.684933 7.97402 
L 33.370903 8.063744 
L 32.972287 8.186269 
L 32.57367 8.308795 
L 32.175054 8.43132 
L 31.776438 8.553846 
L 31.377822 8.676371 
L 30.979205 8.798896 
L 30.580589 8.921422 
L 30.181973 9.043947 
L 29.881733 9.149169 
L 29.581493 9.25439 
L 29.281252 9.359612 
L 28.981012 9.464833 
L 28.680772 9.570055 
L 28.380532 9.675276 
L 28.080292 9.780498 
L 27.780051 9.885719 
L 27.462585 10.003059 
L 27.145118 10.120399 
L 26.827651 10.23774 
L 26.510184 10.35508 
L 26.199505 10.434433 
L 25.888826 10.513786 
L 25.578147 10.593139 
L 25.267467 10.672492 
L 24.667073 10.817448 
L 24.066678 10.962405 
L 23.55581 11.010879 
L 23.044942 11.059353 
L 22.644651 11.062732 
L 22.244359 11.066111 
L 21.844067 11.069491 
L 21.443776 11.07287 
L 20.870875 11.062499 
L 20.297974 11.052128 
L 19.725073 11.041758 
L 19.152173 11.031387 
L 18.817436 11.024512 
L 18.4827 11.017637 
L 18.147964 11.010762 
L 17.813227 11.003887 
L 17.475054 10.997129 
L 17.136881 10.990371 
L 16.76417 10.935138 
L 16.391458 10.879905 
L 15.783846 10.741474 
L 15.204072 10.672492 
L 14.610551 10.700458 
L 14.272378 10.727958 
L 13.934205 10.755457 
L 13.326593 10.893422 
L 12.98842 10.983146 
L 12.650247 11.07287 
L 12.284409 11.183335 
L 11.91857 11.2938 
L 11.442413 11.452506 
L 10.966256 11.611212 
L 10.66245 11.721678 
L 10.358644 11.832143 
L 9.806707 12.03909 
L 9.440869 12.156547 
L 9.07503 12.274003 
L 8.667779 12.41896 
L 8.260528 12.563916 
L 7.963768 12.674381 
L 7.667007 12.784846 
L 7.280376 13.060776 
L 7.10098 13.336706 
L 6.907492 13.695601 
L 6.810921 14.068479 
L 6.741843 14.482373 
L 6.686683 14.83451 
L 6.631524 15.186647 
L 6.596985 15.593783 
L 6.562446 16.000919 
L 6.521034 16.504771 
L 6.479621 17.008622 
L 6.417588 17.484974 
L 6.355556 17.961326 
L 6.189906 18.485685 
L 5.913594 18.982545 
L 5.637625 19.424406 
L 5.444482 19.769318 
L 5.306326 20.031731 
L 5.223501 20.363126 
" style="fill:none;stroke:#4169e1;stroke-linecap:square;stroke-width:0.532023;"/>
   </g>
   <g id="line2d_45">
    <path clip-path="url(#p54ac13f13f)" d="M 84.276247 42.699919 
L 83.716749 42.5517 
L 83.48374 42.414201 
L 83.155533 42.12895 
L 82.856539 41.830647 
L 82.515273 41.447515 
L 82.343265 41.127772 
L 82.171258 40.808029 
L 82.042209 40.503901 
L 81.91316 40.199772 
L 81.784111 39.904732 
L 81.655063 39.609692 
L 81.433738 39.056901 
L 81.277024 38.752772 
L 81.120309 38.448643 
L 80.884379 38.095808 
L 80.648448 37.742972 
L 80.272471 37.563524 
L 79.766586 37.630642 
" style="fill:none;stroke:#008000;stroke-linecap:square;stroke-width:0.532023;"/>
   </g>
   <g id="line2d_46">
    <path clip-path="url(#p54ac13f13f)" d="M 92.761502 4.441234 
L 92.456493 4.073716 
L 92.151485 3.706198 
L 91.830495 3.537704 
L 91.509506 3.369209 
L 90.89966 3.320968 
L 90.289815 3.272727 
L 89.936692 3.30081 
L 89.583569 3.328892 
L 89.230447 3.356974 
L 88.877324 3.385057 
L 88.596458 3.581633 
L 88.315593 3.77821 
L 88.034727 3.974787 
L 87.753861 4.171363 
L 87.501091 4.444263 
L 87.24832 4.717164 
L 86.995549 4.990064 
L 86.742779 5.262964 
L 86.558227 5.519667 
L 86.373675 5.77637 
L 86.189124 6.033074 
L 86.004572 6.289777 
L 85.82002 6.779412 
L 85.635469 7.269048 
L 85.582887 7.658239 
" style="fill:none;stroke:#008000;stroke-linecap:square;stroke-width:0.532023;"/>
   </g>
   <g id="line2d_47">
    <path clip-path="url(#p54ac13f13f)" d="M 85.720356 7.725357 
L 85.653855 8.34783 
L 85.587355 8.970304 
L 85.394727 9.395618 
L 85.202099 9.820932 
L 84.925271 10.025549 
L 84.648443 10.230165 
L 84.371616 10.434782 
L 84.094788 10.639399 
L 83.693551 11.088717 
L 83.292315 11.538035 
L 83.03542 11.88318 
L 82.778526 12.228326 
L 82.553936 12.781816 
L 82.329347 13.335307 
L 82.273156 13.816786 
L 82.216966 14.298265 
L 82.233033 14.671493 
L 82.249099 15.04472 
L 82.265166 15.417948 
L 82.281233 15.791175 
L 82.261128 16.228491 
L 82.241023 16.665807 
L 82.220918 17.103123 
L 82.200813 17.540439 
L 82.21688 17.941633 
L 82.232947 18.342826 
L 82.249013 18.74402 
L 82.26508 19.145213 
L 82.232947 19.715018 
L 82.200813 20.284822 
L 81.992205 20.86255 
L 81.783596 21.440278 
L 81.639168 21.753204 
L 81.49474 22.06613 
L 81.350312 22.379056 
L 81.205884 22.691983 
L 81.061456 23.004909 
L 80.917028 23.317835 
L 80.7726 23.630761 
L 80.628172 23.943688 
L 80.298075 24.437285 
L 79.967978 24.930882 
" style="fill:none;stroke:#4169e1;stroke-linecap:square;stroke-width:0.532023;"/>
   </g>
   <g id="line2d_48">
    <path clip-path="url(#p54ac13f13f)" d="M 43.591357 22.376668 
L 43.187714 22.750478 
L 42.784072 23.124288 
L 42.380429 23.498098 
L 41.976787 23.871909 
L 41.648537 23.893058 
L 41.320288 23.914207 
L 40.992038 23.935356 
L 40.663789 23.956505 
L 40.335539 23.977655 
L 40.00729 23.998804 
L 39.679041 24.019953 
L 39.350791 24.041102 
L 38.895469 24.030557 
L 38.440147 24.020011 
L 37.984825 24.009466 
L 37.529503 23.99892 
L 37.074181 23.988375 
L 36.618859 23.977829 
L 36.163536 23.967284 
L 35.708214 23.956738 
L 35.199967 23.893174 
L 34.691719 23.82961 
L 34.183472 23.766046 
L 33.675224 23.702482 
L 33.166977 23.638918 
L 32.658729 23.575354 
L 32.150482 23.51179 
L 31.642234 23.448226 
L 31.292806 23.358269 
L 30.943378 23.268312 
L 30.593949 23.178355 
L 30.244521 23.088399 
L 29.895093 22.998442 
L 29.545665 22.908485 
L 29.196237 22.818528 
L 28.846808 22.728571 
L 28.582439 22.495989 
L 28.318069 22.263406 
L 28.0537 22.030823 
L 27.78933 21.798241 
" style="fill:none;stroke:#4169e1;stroke-dasharray:1.968486,0.851237;stroke-dashoffset:0;stroke-width:0.532023;"/>
   </g>
   <g id="line2d_49">
    <path clip-path="url(#p54ac13f13f)" d="M 95.666559 9.748687 
L 95.210507 9.903548 
L 94.754454 10.058408 
L 94.298402 10.213269 
L 93.84235 10.36813 
L 93.451165 10.675405 
L 93.059981 10.98268 
L 92.668796 11.289955 
L 92.277612 11.59723 
L 91.977243 12.030351 
L 91.676874 12.463472 
L 91.376505 12.896593 
L 91.076136 13.329714 
L 90.867183 13.92026 
L 90.683706 14.244664 
L 90.500228 14.569068 
L 90.31675 14.893471 
L 90.133272 15.217875 
L 89.949795 15.542279 
L 89.766317 15.866683 
L 89.582839 16.191087 
L 89.399361 16.515491 
L 89.249177 16.906663 
L 89.098992 17.297836 
L 88.948808 17.689008 
L 88.798623 18.08018 
L 88.648439 18.471353 
L 88.498254 18.862525 
L 88.34807 19.253698 
L 88.197885 19.64487 
L 88.058182 20.175755 
L 87.91848 20.70664 
L 87.778777 21.237525 
L 87.639075 21.76841 
L 87.429435 22.180557 
L 87.219795 22.592704 
L 87.010156 23.004851 
L 86.800516 23.416997 
L 86.362592 23.738605 
L 85.924668 24.060212 
L 85.486745 24.381819 
L 85.048821 24.703427 
" style="fill:none;stroke:#000000;stroke-dasharray:1.968486,0.851237;stroke-dashoffset:0;stroke-width:0.532023;"/>
   </g>
   <g id="line2d_50">
    <path clip-path="url(#p54ac13f13f)" d="M 13.401857 19.610845 
L 13.383771 19.955699 
L 13.365686 20.300553 
L 13.3476 20.645407 
L 13.329514 20.990261 
L 13.311429 21.335114 
L 13.293343 21.679968 
L 13.275257 22.024822 
L 13.257171 22.369676 
L 13.239086 22.71453 
L 13.221 23.059384 
L 13.202914 23.404238 
L 13.184828 23.749092 
L 13.166743 24.093946 
L 13.148657 24.4388 
L 13.130571 24.783654 
L 13.112486 25.128508 
" style="fill:none;stroke:#008000;stroke-linecap:square;stroke-width:0.532023;"/>
   </g>
  </g>
 </g>
 <defs>
  <clipPath id="p54ac13f13f">
   <rect height="72" width="114.917022" x="0" y="0"/>
  </clipPath>
 </defs>
</svg>
