<?xml version="1.0" encoding="utf-8" standalone="no"?>
<!DOCTYPE svg PUBLIC "-//W3C//DTD SVG 1.1//EN"
  "http://www.w3.org/Graphics/SVG/1.1/DTD/svg11.dtd">
<svg height="54.152027pt" version="1.1" viewBox="0 0 72 54.152027" width="72pt" xmlns="http://www.w3.org/2000/svg" xmlns:xlink="http://www.w3.org/1999/xlink">
 <metadata>
  <rdf:RDF xmlns:cc="http://creativecommons.org/ns#" xmlns:dc="http://purl.org/dc/elements/1.1/" xmlns:rdf="http://www.w3.org/1999/02/22-rdf-syntax-ns#">
   <cc:Work>
    <dc:type rdf:resource="http://purl.org/dc/dcmitype/StillImage"/>
    <dc:date>2022-04-21T17:38:01.230594</dc:date>
    <dc:format>image/svg+xml</dc:format>
    <dc:creator>
     <cc:Agent>
      <dc:title>Matplotlib v3.4.3, https://matplotlib.org/</dc:title>
     </cc:Agent>
    </dc:creator>
   </cc:Work>
  </rdf:RDF>
 </metadata>
 <defs>
  <style type="text/css">*{stroke-linecap:butt;stroke-linejoin:round;}</style>
 </defs>
 <g id="figure_1">
  <g id="patch_1">
   <path d="M 0 54.152027 
L 72 54.152027 
L 72 0 
L 0 0 
z
" style="fill:#ffffff;"/>
  </g>
  <g id="axes_1">
   <g id="line2d_1">
    <path clip-path="url(#p3ccb51e33e)" d="M 57.389781 35.351843 
L 56.62987 34.86992 
L 55.86996 34.387996 
L 55.110049 33.906072 
L 54.350139 33.424148 
L 53.590228 32.942224 
L 52.830318 32.4603 
L 52.070407 31.978376 
L 51.310497 31.496453 
L 50.550586 31.014529 
L 49.790675 30.532605 
L 49.030765 30.050681 
L 48.270854 29.568757 
L 47.510944 29.086833 
L 46.751033 28.60491 
L 45.991123 28.122986 
L 45.231212 27.641062 
L 44.120696 26.955361 
L 43.010179 26.26966 
L 41.762699 25.498326 
L 40.515219 24.726992 
L 39.838245 24.293333 
L 39.16127 23.859673 
L 38.484296 23.426014 
L 37.807321 22.992354 
L 37.087513 22.539842 
L 36.367704 22.087331 
L 35.647896 21.634819 
L 34.928087 21.182308 
L 34.175756 20.717846 
L 33.423426 20.253384 
L 32.671095 19.788922 
L 31.918764 19.324461 
L 31.138935 18.856484 
L 30.359105 18.388508 
L 29.579276 17.920531 
L 28.799447 17.452554 
L 28.110486 17.030909 
L 27.421525 16.609264 
L 26.732564 16.187618 
L 26.043603 15.765973 
L 25.220939 15.214089 
L 24.398276 14.662205 
L 23.177942 13.884097 
L 21.957607 13.10599 
L 21.152042 12.622612 
L 20.346477 12.139234 
L 19.540912 11.655857 
L 18.735347 11.172479 
L 17.710499 10.534962 
L 16.685651 9.897446 
L 15.81319 9.359173 
L 14.94073 8.820901 
L 14.068269 8.282629 
L 13.195809 7.744357 
L 11.879406 6.918193 
L 10.563003 6.092029 
L 9.366642 5.355076 
L 8.170281 4.618123 
L 7.347618 4.186125 
L 6.524954 3.754127 
" style="fill:none;stroke:#808080;stroke-linecap:square;stroke-width:0.4;"/>
   </g>
   <g id="line2d_2">
    <path clip-path="url(#p3ccb51e33e)" d="M 58.211211 32.53312 
L 57.414812 31.578762 
L 56.618413 30.624405 
L 55.642216 29.629275 
L 54.922495 28.840687 
L 54.202775 28.052099 
L 53.627069 27.424807 
L 53.051363 26.797515 
L 52.331643 26.043308 
L 51.611922 25.289101 
L 50.806357 24.452712 
L 50.000792 23.616323 
L 49.099423 22.721525 
L 48.198054 21.826726 
L 47.296685 20.931928 
L 46.395315 20.03713 
" style="fill:none;stroke:#808080;stroke-linecap:square;stroke-width:0.4;"/>
   </g>
   <g id="line2d_3">
    <path clip-path="url(#p3ccb51e33e)" d="M 63.060113 31.239427 
L 63.30619 30.429622 
L 63.792349 29.012208 
L 64.124799 27.904862 
L 64.457249 26.797515 
L 64.748451 25.734775 
L 65.039653 24.672034 
L 65.293309 23.849321 
L 65.546965 23.026607 
L 65.906737 21.531868 
L 66.266509 20.03713 
" style="fill:none;stroke:#808080;stroke-linecap:square;stroke-width:0.4;"/>
   </g>
   <g id="line2d_4">
    <path clip-path="url(#p3ccb51e33e)" d="M 52.860637 38.796069 
L 51.722974 38.631705 
L 50.924284 38.525367 
L 50.125593 38.419029 
L 48.662179 38.244185 
L 47.198765 38.069341 
L 45.7283 37.915074 
L 44.257836 37.760808 
L 42.738543 37.599895 
L 41.219251 37.438982 
L 40.345733 37.342869 
L 39.472215 37.246755 
L 38.598697 37.150642 
L 37.725179 37.054529 
L 36.367704 36.907164 
L 35.01023 36.759799 
L 34.187655 36.677553 
L 33.365079 36.595308 
L 32.542504 36.513062 
L 31.719929 36.430816 
L 30.900614 36.351957 
L 30.0813 36.273098 
L 28.737751 36.211238 
" style="fill:none;stroke:#808080;stroke-linecap:square;stroke-width:0.4;"/>
   </g>
   <g id="line2d_5">
    <path clip-path="url(#p3ccb51e33e)" d="M 61.077753 27.551595 
L 60.303212 26.824867 
L 59.576793 26.234384 
L 58.850375 25.643902 
L 58.123956 25.053419 
L 57.397537 24.462937 
L 56.538032 23.814045 
L 55.678528 23.165153 
L 54.954401 22.554221 
L 54.230274 21.943289 
L 53.327142 21.209659 
L 52.42401 20.476029 
L 51.520878 19.7424 
L 50.617746 19.00877 
L 49.781509 18.340323 
L 48.945273 17.671876 
L 47.872479 16.821684 
L 46.799684 15.971491 
L 45.891353 15.279016 
L 44.983021 14.586541 
L 44.175869 13.933496 
L 43.368717 13.28045 
L 42.561566 12.627405 
L 41.754414 11.974359 
L 40.979873 11.439602 
" style="fill:none;stroke:#808080;stroke-linecap:square;stroke-width:0.4;"/>
   </g>
   <g id="line2d_6">
    <path clip-path="url(#p3ccb51e33e)" d="M 63.168345 31.740953 
L 63.929137 31.007323 
L 64.909564 29.96516 
L 65.99928 28.826884 
L 66.574986 28.22362 
L 67.150692 27.620357 
L 67.723049 27.006741 
L 68.295405 26.393124 
L 68.727273 25.899266 
" style="fill:none;stroke:#808080;stroke-linecap:square;stroke-width:0.4;"/>
   </g>
   <g id="line2d_7">
    <path clip-path="url(#p3ccb51e33e)" d="M 60.703703 31.034675 
L 60.549994 29.887963 
" style="fill:none;stroke:#808080;stroke-linecap:square;stroke-width:0.4;"/>
   </g>
   <g id="line2d_8">
    <path clip-path="url(#p3ccb51e33e)" d="M 33.631074 11.89205 
L 33.939551 11.569713 
L 34.303025 11.336587 
L 34.700696 11.083012 
L 35.077566 10.891041 
L 35.314124 10.784703 
L 35.550682 10.678365 
L 35.9688 10.561802 
L 36.338972 10.520647 
L 36.736643 10.500198 
L 37.16851 10.589409 
L 37.607076 10.705972 
L 37.853857 10.798507 
L 38.100639 10.891041 
L 38.340546 10.945872 
L 38.580452 11.000702 
L 38.991872 11.048759 
L 39.276376 11.083012 
L 39.56088 11.117265 
L 39.81436 11.171968 
L 40.164084 10.932196 
L 40.369794 10.695619 
L 40.575504 10.459043 
L 40.918178 10.308227 
L 41.271251 10.119707 
L 41.624325 9.931187 
L 41.877805 9.759666 
L 42.165658 9.557471 
L 42.453511 9.355275 
L 42.789486 9.115248 
L 42.933677 9.012489 
" style="fill:none;stroke:#008000;stroke-linecap:square;stroke-width:0.4;"/>
   </g>
   <g id="line2d_9">
    <path clip-path="url(#p3ccb51e33e)" d="M 32.225478 9.916106 
L 32.391791 10.098107 
L 32.558104 10.280109 
L 32.724417 10.46211 
L 32.89073 10.644112 
L 33.075816 10.956096 
L 33.260902 11.268081 
L 33.445988 11.580065 
L 33.631074 11.89205 
L 33.847008 12.176555 
L 34.062942 12.46106 
L 34.278876 12.745565 
L 34.49481 13.03007 
L 34.817036 13.24952 
L 35.139262 13.46897 
L 35.40323 13.616399 
L 35.667198 13.763828 
L 35.931166 13.911257 
L 36.195134 14.058686 
L 36.448613 14.223177 
L 36.702093 14.387669 
L 36.876955 14.668787 
L 37.051818 14.949905 
L 37.22668 15.231024 
L 37.401542 15.512142 
L 37.452926 15.837802 
L 37.504309 16.163462 
L 37.555693 16.489122 
L 37.607076 16.814782 
L 37.624263 17.150731 
L 37.641449 17.48668 
L 37.658636 17.822628 
L 37.675822 18.158577 
L 37.723768 18.456822 
L 37.771714 18.755067 
L 37.819661 19.053312 
L 37.867607 19.351556 
L 38.069879 19.721822 
L 38.272152 20.092088 
L 38.474425 20.462354 
L 38.676697 20.832619 
L 38.882319 21.069132 
L 39.087941 21.305645 
L 39.293563 21.542157 
L 39.499184 21.77867 
L 39.711681 22.015246 
L 39.924177 22.251823 
L 40.136674 22.488399 
L 40.34917 22.724975 
L 40.506846 22.978614 
L 40.664522 23.232254 
L 40.822197 23.485893 
L 40.979873 23.739532 
L 41.164959 24.123537 
L 41.350045 24.507542 
L 41.535131 24.891548 
L 41.720217 25.275553 
L 41.971934 25.510212 
L 42.292971 25.80932 
L 42.614007 26.108427 
L 42.935043 26.407535 
L 43.256079 26.706642 
L 43.577116 27.00575 
L 43.898152 27.304857 
L 44.219188 27.603965 
L 44.540224 27.903073 
L 44.753338 28.101689 
L 44.966451 28.300306 
L 45.236368 28.551804 
L 45.506285 28.803303 
L 45.776203 29.054801 
L 46.04612 29.306299 
L 46.316037 29.557798 
L 46.585954 29.809296 
L 46.855871 30.060794 
L 47.125789 30.312292 
L 47.35459 30.571108 
L 47.583392 30.829923 
L 47.812193 31.088738 
L 48.040995 31.347554 
L 48.125782 31.725488 
L 48.210569 32.103423 
L 48.064968 32.533631 
" style="fill:none;stroke:#4169e1;stroke-linecap:square;stroke-width:0.4;"/>
   </g>
   <g id="line2d_10">
    <path clip-path="url(#p3ccb51e33e)" d="M 43.452271 21.095141 
L 43.850999 21.313569 
L 44.249727 21.531996 
L 44.534231 21.651882 
L 44.818735 21.771768 
L 45.206005 21.91581 
L 45.593276 22.059852 
L 45.939475 22.186639 
L 46.285674 22.313427 
L 46.648972 22.423216 
L 47.012269 22.533005 
L 47.344719 22.635764 
L 47.677169 22.738523 
L 47.899977 22.916818 
L 48.122786 23.095113 
L 48.516931 23.34364 
L 48.911076 23.592167 
L 49.305221 23.840693 
L 49.699366 24.08922 
L 49.97347 24.253839 
L 50.247574 24.418459 
L 50.586898 24.61388 
L 50.926223 24.809302 
L 51.308381 24.990984 
L 51.69054 25.172666 
L 52.072699 25.354348 
L 52.454857 25.53603 
L 52.81648 25.68512 
L 53.178103 25.834211 
L 53.539726 25.983301 
L 53.901349 26.132392 
L 54.218375 26.272983 
L 54.535401 26.413574 
L 54.852427 26.554165 
L 55.169453 26.694756 
L 55.453869 26.859312 
L 55.738284 27.023867 
L 56.0227 27.188423 
L 56.307116 27.352978 
L 56.694386 27.544949 
L 57.081657 27.736919 
L 57.432968 27.947742 
L 57.784279 28.158565 
L 58.13559 28.369388 
L 58.486901 28.58021 
L 58.678685 28.68297 
" style="fill:none;stroke:#4169e1;stroke-linecap:square;stroke-width:0.4;"/>
   </g>
   <g id="line2d_11">
    <path clip-path="url(#p3ccb51e33e)" d="M 45.195605 25.995379 
L 45.582347 26.254962 
L 45.969089 26.514544 
L 46.225962 26.722507 
L 46.482835 26.93047 
L 46.739708 27.138433 
L 46.996581 27.346396 
L 47.253454 27.554359 
L 47.510327 27.762322 
L 47.7672 27.970285 
L 48.024073 28.178248 
L 48.280946 28.386211 
L 48.537819 28.594174 
L 48.794692 28.802136 
L 49.051565 29.010099 
L 49.308438 29.218062 
L 49.565311 29.426025 
L 49.822184 29.633988 
L 50.079057 29.841951 
L 50.316474 29.995755 
L 50.553891 30.149558 
L 50.791308 30.303362 
L 51.028725 30.457165 
L 51.266142 30.610968 
L 51.503559 30.764772 
L 51.740976 30.918575 
L 51.978393 31.072379 
L 52.21581 31.226182 
L 52.453227 31.379986 
L 52.690644 31.533789 
L 52.928061 31.687593 
L 53.165478 31.841396 
L 53.402895 31.995199 
L 53.640312 32.149003 
L 53.877729 32.302806 
L 54.144517 32.501807 
L 54.411305 32.700807 
L 54.678094 32.899807 
L 54.944882 33.098807 
L 55.184569 33.250358 
L 55.424255 33.401909 
L 55.663941 33.55346 
L 55.903628 33.705011 
L 56.143314 33.856561 
L 56.383001 34.008112 
L 56.622687 34.159663 
L 56.862374 34.311214 
" style="fill:none;stroke:#008000;stroke-linecap:square;stroke-width:0.4;"/>
   </g>
   <g id="line2d_12">
    <path clip-path="url(#p3ccb51e33e)" d="M 45.593276 22.059852 
L 45.694104 22.27534 
L 45.794931 22.490827 
L 45.895759 22.706315 
L 45.996587 22.921803 
L 46.109666 23.178925 
L 46.222745 23.436047 
L 46.335824 23.693169 
L 46.448902 23.950291 
L 46.561981 24.207412 
L 46.67506 24.464534 
L 46.788139 24.721656 
L 46.901217 24.978778 
L 47.240542 25.215291 
L 47.579866 25.451803 
L 47.919191 25.688316 
L 48.258515 25.924828 
L 48.59784 26.161341 
L 48.937164 26.397853 
L 49.276489 26.634366 
L 49.615813 26.870878 
L 49.859157 27.049141 
L 50.102501 27.227405 
L 50.345846 27.405668 
L 50.58919 27.583931 
L 50.832534 27.762194 
L 51.075878 27.940457 
L 51.319222 28.11872 
L 51.562566 28.296983 
L 51.802473 28.440993 
L 52.04238 28.585003 
L 52.282287 28.729013 
L 52.522193 28.873023 
L 52.7621 29.017033 
L 53.002007 29.161043 
L 53.241914 29.305053 
L 53.481821 29.449063 
L 53.708066 29.562175 
L 53.934312 29.675287 
L 54.160558 29.788399 
L 54.386803 29.901511 
L 54.578588 29.997368 
L 54.935011 30.257973 
L 55.291434 30.518578 
L 55.519486 30.653385 
L 55.747539 30.788193 
L 55.975591 30.923001 
L 56.203644 31.057808 
L 56.431696 31.192616 
L 56.659749 31.327424 
L 56.887801 31.462231 
L 57.115854 31.597039 
" style="fill:none;stroke:#4169e1;stroke-linecap:square;stroke-width:0.4;"/>
   </g>
   <g id="line2d_13">
    <path clip-path="url(#p3ccb51e33e)" d="M 44.33187 9.293415 
L 44.490515 9.306707 
L 44.771053 9.330352 
L 45.051591 9.353997 
L 45.332128 9.377642 
L 45.612666 9.401287 
L 46.051408 9.524624 
L 46.49015 9.64796 
L 46.846573 9.894889 
L 47.202996 10.141818 
L 47.442903 10.422873 
L 47.682809 10.703927 
L 47.922716 10.984981 
L 48.162623 11.266036 
L 48.423154 11.547154 
L 48.683684 11.828272 
L 48.944215 12.109391 
L 49.204746 12.390509 
L 49.417242 12.671627 
L 49.629739 12.952745 
L 49.842235 13.233864 
L 50.054732 13.514982 
L 50.23973 13.809776 
L 50.424727 14.10457 
L 50.609725 14.399364 
L 50.794723 14.694157 
L 51.062129 14.982177 
L 51.329534 15.270197 
L 51.596939 15.558217 
L 51.864345 15.846237 
L 52.069966 15.969638 
L 52.275588 16.093039 
L 52.48121 16.216439 
L 52.686832 16.33984 
L 53.002095 16.511233 
L 53.317358 16.682627 
L 53.632622 16.85402 
L 53.947885 17.025413 
L 54.18788 17.272214 
L 54.427875 17.519016 
L 54.66787 17.765817 
L 54.907865 18.012618 
L 55.072327 18.218328 
L 55.236789 18.424039 
L 55.401251 18.629749 
L 55.565714 18.835459 
L 55.70964 19.089162 
L 55.853567 19.342865 
L 55.997493 19.596568 
L 56.141419 19.850271 
L 56.230525 20.076495 
L 56.319631 20.302719 
L 56.408737 20.528943 
L 56.497842 20.755167 
L 56.717213 20.99513 
L 56.936585 21.235093 
L 57.155956 21.475057 
L 57.375327 21.71502 
L 57.649518 21.886414 
L 57.92371 22.057807 
L 58.197902 22.2292 
L 58.472094 22.400593 
L 58.698251 22.537734 
L 58.924409 22.674874 
L 59.150567 22.812014 
L 59.376724 22.949154 
L 59.609844 23.134287 
L 59.842965 23.31942 
L 60.076085 23.504553 
L 60.309205 23.689686 
L 60.542238 23.888494 
L 60.77527 24.087303 
L 61.008302 24.286111 
L 61.241334 24.48492 
L 61.364725 24.800355 
L 61.488116 25.115791 
L 61.698849 25.436146 
L 61.909583 25.756502 
L 62.120317 26.076858 
L 62.33105 26.397214 
" style="fill:none;stroke:#000000;stroke-linecap:square;stroke-width:0.4;"/>
   </g>
   <g id="line2d_14">
    <path clip-path="url(#p3ccb51e33e)" d="M 29.626517 39.486499 
L 30.010438 39.513978 
L 30.39436 39.541457 
L 30.750783 39.431669 
L 31.107205 39.32188 
L 31.347112 39.212219 
L 31.587019 39.102558 
L 31.826926 38.992897 
L 32.066833 38.883236 
L 32.354862 38.718616 
L 32.642891 38.553997 
L 32.862174 38.334675 
L 33.081457 38.115353 
L 33.300916 37.799917 
L 33.520375 37.484482 
L 33.767157 37.319863 
L 34.10983 37.004428 
L 34.452504 36.702796 
L 34.795178 36.401164 
L 35.227133 36.322305 
L 35.659089 36.243446 
L 36.091045 36.164588 
L 36.523 36.085729 
L 36.834914 36.14401 
L 37.146829 36.202292 
L 37.458743 36.260573 
L 37.770657 36.318854 
L 38.21623 36.406276 
L 38.661802 36.493699 
L 39.107375 36.581121 
L 39.552948 36.668543 
L 39.99852 36.755965 
L 40.444093 36.843387 
L 40.889666 36.930809 
L 41.335238 37.018231 
L 41.691705 37.052516 
L 42.048172 37.086801 
L 42.404639 37.121086 
L 42.761106 37.155371 
L 43.117573 37.189656 
L 43.47404 37.223941 
L 43.830507 37.258226 
L 44.186974 37.292511 
L 44.543397 37.278772 
L 44.89982 37.265032 
L 45.256243 37.251293 
L 45.612666 37.237553 
L 45.890647 37.310916 
L 46.168629 37.384279 
L 46.523201 37.4779 
L 46.877773 37.571521 
L 47.232345 37.665142 
L 47.586917 37.758763 
L 47.819994 37.899322 
L 48.05307 38.039881 
L 48.286146 38.18044 
L 48.519222 38.320999 
L 48.752299 38.461558 
L 48.985375 38.602117 
L 49.218451 38.742676 
L 49.451527 38.883236 
L 49.883307 38.986059 
L 50.315086 39.088882 
L 50.746865 39.191705 
L 51.178645 39.294528 
L 51.514532 39.280789 
L 51.850419 39.267049 
L 52.186306 39.25331 
L 52.522193 39.23957 
" style="fill:none;stroke:#008000;stroke-linecap:square;stroke-width:0.4;"/>
   </g>
   <g id="line2d_15">
    <path clip-path="url(#p3ccb51e33e)" d="M 47.093354 13.158392 
L 47.339783 13.333619 
L 47.586212 13.508847 
L 47.956737 13.772391 
L 48.327262 14.035936 
L 48.553419 14.392462 
L 48.779577 14.748988 
L 49.005734 15.105514 
L 49.231892 15.46204 
L 49.478673 15.743159 
L 49.725455 16.024277 
L 49.972236 16.305395 
L 50.219018 16.586513 
L 50.513833 16.915624 
L 50.808649 17.244735 
L 51.103465 17.573846 
L 51.39828 17.902957 
L 51.754703 18.197815 
L 52.111126 18.492673 
L 52.467549 18.787531 
L 52.823972 19.082388 
L 53.084414 19.288035 
L 53.344857 19.493681 
L 53.6053 19.699328 
L 53.865742 19.904974 
L 54.016543 20.144937 
L 54.167344 20.384901 
L 54.318145 20.624864 
L 54.468946 20.864828 
L 54.674568 21.001968 
L 54.88019 21.139108 
L 55.085812 21.276248 
L 55.291434 21.413388 
L 55.54509 21.701345 
L 55.798746 21.989301 
L 56.052402 22.277257 
L 56.306058 22.565213 
L 56.525429 22.777761 
L 56.7448 22.990309 
L 56.964171 23.202857 
L 57.183542 23.415405 
L 57.43711 23.559383 
L 57.690678 23.703361 
L 57.944246 23.84734 
L 58.197814 23.991318 
L 58.437721 24.210704 
L 58.677628 24.43009 
L 58.917534 24.649475 
L 59.157441 24.868861 
L 59.376812 24.971749 
L 59.596183 25.074636 
L 59.815554 25.177523 
L 60.034925 25.28041 
L 60.308148 25.554179 
L 60.58137 25.827948 
" style="fill:none;stroke:#4169e1;stroke-linecap:square;stroke-width:0.4;"/>
   </g>
   <g id="line2d_16">
    <path clip-path="url(#p3ccb51e33e)" d="M 49.740614 7.579738 
L 49.938744 7.393519 
L 50.136875 7.207299 
L 50.479636 6.994751 
L 50.822398 6.782203 
L 51.16516 6.569655 
L 51.507922 6.357107 
L 51.740954 6.267959 
L 51.973986 6.178812 
L 52.207018 6.089664 
L 52.44005 6.000517 
L 52.734778 5.931946 
L 53.029506 5.863376 
L 53.324233 5.794806 
L 53.618961 5.726236 
L 54.085025 5.808546 
L 54.551089 5.890856 
L 54.866441 6.089664 
L 55.181792 6.288473 
L 55.497144 6.487281 
L 55.812495 6.68609 
L 56.107223 6.878061 
L 56.40195 7.070031 
L 56.696678 7.262002 
L 56.991405 7.453973 
L 57.258722 7.68026 
L 57.52604 7.906548 
L 57.793357 8.132836 
L 58.060674 8.359124 
L 58.417097 8.64708 
L 58.77352 8.935036 
L 59.075122 9.209316 
L 59.376724 9.483597 
L 59.500115 9.853735 
L 59.623506 10.223873 
L 59.664665 10.539308 
L 59.705825 10.854743 
L 59.746984 11.170178 
L 59.788144 11.485614 
L 59.812117 11.739285 
L 59.83609 11.992956 
L 59.860063 12.246627 
L 59.884036 12.500298 
L 59.908009 12.753969 
L 59.931982 13.00764 
L 59.955955 13.261311 
L 59.979928 13.514982 
L 60.021088 13.919501 
L 60.062248 14.32402 
L 60.103407 14.728538 
L 60.144567 15.133057 
L 60.315904 15.421013 
L 60.487241 15.708969 
L 60.658577 15.996926 
L 60.829914 16.284882 
L 61.037784 16.572326 
L 61.245653 16.859771 
L 61.453522 17.147216 
L 61.661391 17.434661 
L 61.869261 17.722106 
L 62.07713 18.009551 
L 62.284999 18.296996 
L 62.492869 18.58444 
L 62.563025 18.859807 
L 62.633181 19.135174 
L 62.703338 19.410541 
L 62.773494 19.685908 
L 62.843651 19.961274 
L 62.913807 20.236641 
L 62.983964 20.512008 
L 63.05412 20.787375 
L 63.018116 21.041269 
L 62.982113 21.295164 
L 62.946109 21.549059 
L 62.910105 21.802954 
L 62.874102 22.056848 
L 62.838098 22.310743 
L 62.802095 22.564638 
L 62.766091 22.818532 
L 62.815051 23.164802 
L 62.86401 23.511071 
L 62.91297 23.857341 
L 62.96193 24.20361 
L 63.010889 24.54988 
L 63.059849 24.896149 
L 63.108809 25.242418 
L 63.157768 25.588688 
L 62.960387 25.890064 
L 62.763006 26.19144 
L 62.565625 26.492816 
L 62.368244 26.794192 
L 62.170863 27.095569 
L 61.973482 27.396945 
L 61.776101 27.698321 
L 61.57872 27.999697 
" style="fill:none;stroke:#4169e1;stroke-linecap:square;stroke-width:0.4;"/>
   </g>
   <g id="line2d_17">
    <path clip-path="url(#p3ccb51e33e)" d="M 27.434393 6.3295 
L 27.666543 6.411809 
L 27.898694 6.494119 
L 28.118153 6.68609 
L 28.337613 6.878061 
L 28.680463 7.138665 
L 29.023313 7.39927 
L 29.256345 7.742057 
L 29.489377 8.084843 
L 29.64009 8.304293 
L 29.790803 8.523743 
L 29.914194 8.78422 
L 30.037584 9.044697 
L 30.202399 9.277056 
L 30.367214 9.509414 
" style="fill:none;stroke:#008000;stroke-linecap:square;stroke-width:0.4;"/>
   </g>
   <g id="line2d_18">
    <path clip-path="url(#p3ccb51e33e)" d="M 5.466614 3.257968 
L 5.398044 3.552826 
L 5.329474 3.847684 
L 5.260904 4.142542 
L 5.192334 4.437399 
L 5.123764 4.677363 
L 5.055194 4.917326 
L 4.986624 5.15729 
L 4.918054 5.397253 
L 4.726094 5.685209 
L 4.534133 5.973165 
L 4.218782 6.137657 
L 3.90343 6.302148 
L 3.752541 6.590104 
L 3.601652 6.878061 
L 3.622187 7.207171 
L 3.642723 7.536282 
L 3.663259 7.865393 
L 3.683795 8.194504 
L 3.711293 8.434468 
L 3.738792 8.674431 
L 3.76629 8.914394 
L 3.793789 9.154358 
L 3.752541 9.59313 
L 3.711293 10.031902 
L 3.49201 10.415843 
L 3.272727 10.799785 
L 3.409867 11.211333 
L 3.752541 11.430655 
L 4.095215 11.649977 
L 4.355745 11.828272 
L 4.616276 12.006567 
L 4.698595 12.239693 
L 4.780914 12.472818 
L 4.863234 12.705944 
L 4.945553 12.93907 
L 4.995614 13.189002 
L 5.045676 13.438935 
L 5.095737 13.688867 
L 5.145798 13.9388 
L 5.525666 14.220493 
L 5.905533 14.502187 
L 6.234457 14.584496 
L 6.563381 14.666806 
L 6.693647 14.947924 
L 6.823912 15.229043 
L 6.954177 15.510161 
L 7.084443 15.791279 
L 7.399971 16.079235 
L 7.715498 16.367191 
L 7.907459 16.586641 
L 8.09942 16.806091 
L 8.303719 17.034999 
L 8.508019 17.263907 
L 8.784767 17.573974 
L 9.011277 17.847615 
L 9.237787 18.121257 
L 9.442968 18.369208 
L 9.614393 18.568017 
L 9.785818 18.766825 
L 9.957243 18.965634 
L 10.128668 19.164442 
L 10.416697 19.260428 
L 10.704727 19.356413 
L 11.006329 19.411372 
L 11.307931 19.46633 
L 11.534177 19.685716 
L 11.760422 19.905102 
L 11.986668 20.124488 
L 12.212914 20.343874 
L 12.418624 20.666083 
L 12.624334 20.988292 
L 12.830043 21.310501 
L 13.035753 21.632711 
L 13.22084 21.913829 
L 13.405926 22.194947 
L 13.591012 22.476065 
L 13.776098 22.757184 
L 13.892614 22.97657 
L 14.00913 23.195955 
L 14.125646 23.415341 
L 14.242162 23.634727 
L 14.598761 23.826698 
L 14.95536 24.018669 
L 15.394103 24.183288 
L 15.832845 24.347908 
L 16.10025 24.375323 
L 16.367655 24.402738 
L 16.635061 24.430153 
L 16.902466 24.457569 
L 17.154888 24.441848 
L 17.40731 24.426127 
" style="fill:none;stroke:#4169e1;stroke-linecap:square;stroke-width:0.4;"/>
   </g>
   <g id="line2d_19">
    <path clip-path="url(#p3ccb51e33e)" d="M 6.443869 2.904701 
L 6.679104 2.811975 
L 6.91434 2.719249 
L 7.149576 2.626522 
L 7.384811 2.533796 
L 7.714969 2.497626 
L 8.045128 2.461456 
L 8.456195 2.681417 
L 8.867262 2.901378 
L 9.210112 3.038518 
L 9.552962 3.175658 
L 9.964206 3.257968 
L 10.37545 3.340278 
L 10.800619 3.422587 
L 11.225788 3.504897 
L 11.554889 3.724219 
L 11.883989 3.943541 
L 12.110235 4.019013 
L 12.336481 4.094485 
L 12.562726 4.169957 
L 12.788972 4.245429 
L 13.063164 4.307097 
L 13.337356 4.368765 
L 13.611547 4.430434 
L 13.885739 4.492102 
L 14.338231 4.615567 
L 14.790722 4.739031 
L 15.215891 4.889847 
L 15.64106 5.040663 
L 15.833021 5.218958 
L 16.024982 5.397253 
L 16.148372 5.602899 
L 16.271763 5.808546 
L 16.463548 5.945558 
L 16.778899 5.904531 
L 17.09425 5.863504 
L 17.423351 5.760617 
L 17.752452 5.65773 
L 18.081552 5.554843 
L 18.410653 5.451956 
L 18.657435 5.383386 
L 18.904216 5.314816 
L 19.150997 5.246245 
L 19.397779 5.177675 
L 19.86402 5.177675 
L 20.33026 5.177675 
L 20.611327 5.205155 
L 20.892393 5.232634 
L 21.173459 5.260113 
L 21.454526 5.287592 
L 21.687646 5.342423 
L 21.920767 5.397253 
L 22.153887 5.452084 
L 22.387007 5.506914 
L 22.74343 5.616575 
L 23.099853 5.726236 
L 23.387882 5.945686 
L 23.675911 6.165136 
L 23.950015 6.439289 
L 24.224119 6.713441 
L 24.498399 6.809554 
L 24.772679 6.905668 
L 25.142851 6.782203 
L 25.513023 6.658738 
L 25.787303 6.590168 
L 26.061583 6.521598 
L 26.335863 6.453028 
L 26.610143 6.384458 
L 27.022268 6.356979 
L 27.434393 6.3295 
L 27.84405 6.302148 
L 28.255293 6.288473 
L 28.666537 6.274797 
L 29.050458 6.233642 
L 29.43438 6.192487 
L 29.859373 6.356979 
L 30.284366 6.52147 
L 30.668287 6.576429 
L 31.052208 6.631387 
L 31.449879 6.617584 
L 31.84755 6.60378 
L 32.286292 6.576429 
L 32.725034 6.549077 
L 32.985565 6.603908 
L 33.246095 6.658738 
L 33.506626 6.713569 
L 33.767157 6.768399 
L 34.068759 6.946695 
L 34.370361 7.12499 
L 34.685713 7.303285 
L 35.001064 7.48158 
L 35.316415 7.577565 
L 35.631767 7.67355 
L 36.05676 7.742057 
L 36.481753 7.810563 
L 36.84505 7.892809 
L 37.208348 7.975054 
L 37.571645 8.0573 
L 37.934943 8.139546 
L 38.271976 8.381618 
" style="fill:none;stroke:#4169e1;stroke-linecap:square;stroke-width:0.4;"/>
   </g>
   <g id="line2d_20">
    <path clip-path="url(#p3ccb51e33e)" d="M 49.740614 7.579738 
L 49.966067 7.900797 
L 50.191519 8.221856 
L 50.603644 8.401557 
L 51.015769 8.581258 
L 51.412558 8.785498 
L 51.809348 8.989738 
L 51.967023 9.174871 
L 52.124699 9.360004 
L 52.282375 9.545137 
L 52.44005 9.73027 
L 52.536031 10.011388 
L 52.632011 10.292507 
L 52.727992 10.573625 
L 52.823972 10.854743 
L 52.967898 11.122122 
L 53.111825 11.3895 
L 53.255751 11.656879 
L 53.399678 11.924258 
L 53.564228 12.129968 
L 53.728778 12.335678 
L 53.893329 12.541389 
L 54.057879 12.747099 
L 54.229216 12.987062 
L 54.400553 13.227026 
L 54.57189 13.466989 
L 54.743226 13.706953 
L 54.914563 13.912663 
L 55.0859 14.118373 
L 55.257237 14.324083 
L 55.428574 14.529794 
L 55.579463 14.87258 
L 55.730352 15.215367 
L 56.004456 15.393662 
L 56.278559 15.571957 
L 56.559626 15.757026 
L 56.840692 15.942095 
L 57.121759 16.127164 
L 57.402825 16.312233 
L 57.690678 16.545359 
L 57.978531 16.778484 
L 58.266384 17.01161 
L 58.554237 17.244735 
L 58.746198 17.42303 
L 58.938158 17.601325 
L 59.130119 17.77962 
L 59.32208 17.957915 
L 59.472881 18.149886 
L 59.623682 18.341857 
L 59.774483 18.533828 
L 59.925284 18.725798 
L 60.117245 19.054909 
L 60.309205 19.38402 
L 60.370901 19.637659 
L 60.432596 19.891298 
L 60.494291 20.144937 
L 60.555987 20.398577 
L 60.699913 20.645442 
L 60.84384 20.892307 
L 60.987766 21.139172 
L 61.131693 21.386037 
L 61.364725 21.79733 
L 61.597757 22.208623 
L 61.95418 22.414397 
L 62.310603 22.620171 
L 62.538347 22.719352 
L 62.766091 22.818532 
" style="fill:none;stroke:#000000;stroke-linecap:square;stroke-width:0.4;"/>
   </g>
   <g id="line2d_21">
    <path clip-path="url(#p3ccb51e33e)" d="M 30.065083 40.227031 
L 30.531323 40.240706 
L 30.997564 40.254382 
L 31.244345 40.26122 
L 31.491127 40.268058 
L 31.737908 40.274896 
L 31.98469 40.281733 
L 32.416557 40.350303 
L 32.848425 40.418874 
L 33.280292 40.487444 
L 33.71216 40.556014 
L 34.171438 40.617746 
L 34.630716 40.679478 
L 35.089993 40.741211 
L 35.549271 40.802943 
L 35.892033 40.830358 
L 36.234795 40.857773 
L 36.577557 40.885189 
L 36.920318 40.912604 
L 37.242545 40.926343 
L 37.564771 40.940083 
L 37.886997 40.953823 
L 38.209223 40.967562 
L 38.565734 40.994977 
L 38.922245 41.022393 
L 39.278756 41.049808 
L 39.635267 41.077223 
L 39.902584 41.056646 
L 40.169901 41.036068 
L 40.437218 41.015491 
L 40.704536 40.994914 
L 41.081582 41.015491 
L 41.458629 41.036068 
L 41.835676 41.056646 
L 42.212723 41.077223 
L 42.630841 41.090899 
L 43.048959 41.104575 
L 43.467077 41.11825 
L 43.885196 41.131926 
L 44.193673 41.125088 
L 44.502149 41.11825 
L 44.810626 41.111412 
L 45.119103 41.104575 
L 45.509811 41.104575 
L 45.900519 41.104575 
L 46.291227 41.104575 
L 46.681934 41.104575 
L 47.058981 41.070321 
L 47.436028 41.036068 
L 47.813075 41.001815 
L 48.190122 40.967562 
L 48.642437 40.898928 
L 49.094752 40.830294 
L 49.348408 40.830294 
L 49.602064 40.830294 
L 49.85572 40.830294 
L 50.109376 40.830294 
L 50.424727 40.912604 
L 50.740079 40.994914 
L 51.014183 40.830294 
L 51.288286 40.665675 
L 51.521407 40.487444 
L 51.754527 40.309213 
L 51.987647 40.130981 
L 52.220768 39.95275 
L 52.398979 39.760779 
L 52.57719 39.568809 
" style="fill:none;stroke:#4169e1;stroke-linecap:square;stroke-width:0.4;"/>
   </g>
   <g id="line2d_22">
    <path clip-path="url(#p3ccb51e33e)" d="M 30.065083 40.227031 
L 30.328169 40.581384 
L 30.591256 40.935737 
L 30.854343 41.290091 
L 31.117429 41.644444 
L 31.176569 41.913996 
L 31.235708 42.183547 
L 31.294848 42.453099 
L 31.353987 42.72265 
L 31.497913 42.969451 
L 31.64184 43.216253 
L 31.785766 43.463054 
L 31.929693 43.709855 
L 32.149152 44.080121 
L 32.368611 44.450387 
L 32.519412 44.745244 
L 32.670213 45.040102 
L 32.821014 45.33496 
L 32.971816 45.629818 
L 33.060921 45.897197 
L 33.150027 46.164575 
L 33.239133 46.431954 
L 33.328238 46.699333 
L 33.684838 46.918782 
L 34.041437 47.138232 
L 34.274469 47.405611 
L 34.507501 47.67299 
L 34.740533 47.940368 
L 34.973565 48.207747 
L 35.131241 48.420295 
L 35.288917 48.632843 
L 35.446593 48.845391 
L 35.604268 49.05794 
L 35.899084 49.270488 
L 36.1939 49.483036 
L 36.488715 49.695584 
L 36.783531 49.908132 
L 37.085133 50.086363 
L 37.386735 50.264594 
L 37.688338 50.442826 
L 37.98994 50.621057 
L 38.229847 50.765035 
L 38.469753 50.909013 
L 38.70966 51.052991 
L 38.949567 51.196969 
L 39.182687 51.320369 
L 39.415808 51.44377 
L 39.648928 51.567171 
L 39.882048 51.690571 
L 40.279543 51.457574 
L 40.677037 51.224576 
L 41.03346 51.005126 
L 41.389883 50.785676 
L 41.533897 50.579966 
L 41.677912 50.374255 
L 41.821927 50.168545 
L 41.965941 49.962835 
L 42.089332 49.537739 
L 42.212723 49.112642 
L 42.219509 48.845264 
L 42.226296 48.577885 
L 42.233082 48.310506 
L 42.239869 48.043128 
L 42.377009 47.659186 
L 42.514149 47.275245 
L 42.815751 46.973613 
L 43.117353 46.671981 
L 43.261367 46.459433 
L 43.405382 46.246885 
L 43.549397 46.034337 
L 43.693411 45.821789 
L 43.878497 45.664071 
L 44.063583 45.506353 
L 44.24867 45.348636 
L 44.433756 45.190918 
L 44.728483 44.957793 
L 45.023211 44.724667 
L 45.317938 44.491541 
L 45.612666 44.258416 
L 45.749806 43.860799 
L 45.886946 43.463182 
L 46.1473 43.16155 
L 46.407655 42.859918 
L 46.647649 42.825601 
L 46.887644 42.791284 
L 47.127639 42.756967 
L 47.367634 42.72265 
L 47.758342 42.58551 
L 48.14905 42.44837 
L 48.539758 42.311229 
L 48.930466 42.174089 
L 49.197783 42.037013 
L 49.4651 41.899937 
L 49.732417 41.76286 
L 49.999735 41.625784 
L 50.184821 41.468066 
L 50.369907 41.310349 
L 50.554993 41.152631 
L 50.740079 40.994914 
" style="fill:none;stroke:#008000;stroke-linecap:square;stroke-width:0.4;"/>
   </g>
   <g id="line2d_23">
    <path clip-path="url(#p3ccb51e33e)" d="M 7.67143 4.881667 
L 7.523361 5.177675 
L 7.27658 5.424604 
L 7.029798 5.671533 
L 7.112118 6.137657 
L 7.194437 6.60378 
L 7.180688 6.974046 
L 7.166938 7.344312 
L 7.372648 7.659747 
L 7.578358 7.975182 
L 7.386398 8.249463 
L 7.194437 8.523743 
L 7.057297 8.907684 
L 6.920157 9.291626 
L 7.112118 9.483597 
L 7.304078 9.675567 
L 7.537199 9.771553 
L 7.770319 9.867538 
L 8.003439 9.963523 
L 8.23656 10.059509 
L 8.538162 10.333661 
L 8.839764 10.607814 
L 9.072796 10.991883 
L 9.305828 11.375952 
L 9.367612 11.807887 
L 9.429395 12.239821 
L 9.491179 12.671755 
L 9.552962 13.103689 
L 9.676353 13.473891 
L 9.799744 13.844093 
L 9.923134 14.214295 
L 10.046525 14.584496 
L 10.135631 14.97534 
L 10.224737 15.366183 
L 10.313842 15.757026 
L 10.402948 16.147869 
L 10.498928 16.39467 
L 10.594909 16.641472 
L 10.690889 16.888273 
L 10.786869 17.135074 
" style="fill:none;stroke:#4169e1;stroke-linecap:square;stroke-width:0.4;"/>
   </g>
   <g id="line2d_24">
    <path clip-path="url(#p3ccb51e33e)" d="M 11.384081 5.598426 
L 11.579038 5.867978 
L 11.773995 6.137529 
L 11.938634 6.3295 
L 12.103272 6.52147 
L 12.384339 6.651773 
L 12.665405 6.782075 
L 12.946471 6.912378 
L 13.227538 7.04268 
L 13.529316 7.138665 
L 13.831095 7.234651 
L 14.077876 7.508931 
L 14.324658 7.783211 
L 14.640009 7.810563 
L 14.95536 7.837914 
L 15.181606 7.913322 
L 15.407852 7.98873 
L 15.634098 8.064138 
L 15.860343 8.139546 
L 16.161945 8.34532 
L 16.463548 8.551094 
L 16.744614 8.681333 
L 17.02568 8.811571 
L 17.306747 8.94181 
L 17.587813 9.072048 
L 17.944324 9.195449 
L 18.300835 9.318849 
L 18.657346 9.44225 
L 19.013857 9.565651 
L 19.370369 9.682213 
L 19.72688 9.798776 
L 20.083391 9.915339 
L 20.439902 10.031902 
L 20.700432 10.141691 
L 20.960963 10.251479 
L 21.194083 10.388556 
L 21.427204 10.525632 
L 21.660324 10.662708 
L 21.893444 10.799785 
L 22.11969 10.923249 
L 22.345936 11.046714 
L 22.572181 11.170178 
L 22.798427 11.293643 
L 23.195921 11.430783 
L 23.593416 11.567923 
L 23.963764 11.622754 
L 24.334113 11.677584 
L 24.580894 11.540444 
L 24.827676 11.403304 
L 25.033209 11.019362 
L 25.238743 10.635421 
L 25.307313 10.37488 
L 25.375883 10.114339 
L 25.444453 9.853798 
L 25.513023 9.593258 
L 25.636414 9.236668 
L 25.759804 8.880077 
L 25.949385 8.725363 
L 26.138966 8.570649 
L 26.328547 8.415935 
L 26.518128 8.261221 
" style="fill:none;stroke:#4169e1;stroke-linecap:square;stroke-width:0.4;"/>
   </g>
   <g id="line2d_25">
    <path clip-path="url(#p3ccb51e33e)" d="M 28.536095 33.838572 
L 28.894457 33.710762 
L 29.252819 33.582952 
L 29.611181 33.455142 
L 29.969543 33.327332 
L 30.179836 33.440412 
L 30.390129 33.553492 
L 30.600422 33.666572 
L 30.810715 33.779652 
L 31.021008 33.892732 
L 31.231301 34.005812 
L 31.441594 34.118892 
L 31.651887 34.231972 
L 31.888842 34.144901 
L 32.125796 34.05783 
L 32.36275 33.97076 
L 32.599704 33.883689 
L 32.836659 33.796618 
L 33.073613 33.709548 
L 33.310567 33.622477 
L 33.547521 33.535407 
L 33.780642 33.631392 
L 34.013762 33.727377 
L 34.246882 33.823363 
L 34.480003 33.919348 
L 34.809015 33.823363 
L 35.138028 33.727377 
L 35.46704 33.631392 
L 35.796053 33.535407 
L 36.090868 33.528505 
L 36.385684 33.521603 
L 36.6805 33.514701 
L 36.975315 33.5078 
L 37.263257 33.487222 
L 37.551198 33.466645 
L 37.839139 33.446067 
L 38.12708 33.42549 
L 38.449218 33.370659 
L 38.771356 33.315829 
L 39.093493 33.260998 
L 39.415631 33.206168 
L 39.648752 33.089605 
L 39.881872 32.973042 
L 40.114992 32.85648 
L 40.348113 32.739917 
" style="fill:none;stroke:#4169e1;stroke-linecap:square;stroke-width:0.4;"/>
   </g>
   <g id="line2d_26">
    <path clip-path="url(#p3ccb51e33e)" d="M 66.285899 19.246752 
L 66.532681 19.534708 
L 66.779462 19.822664 
L 66.827496 20.05579 
L 66.875531 20.288915 
L 66.923565 20.522041 
L 66.971599 20.755167 
L 67.022718 21.055648 
L 67.073837 21.35613 
L 67.13236 21.700194 
L 67.190882 22.044259 
L 67.234069 22.369855 
L 67.277256 22.695451 
L 67.320442 23.021047 
L 67.363629 23.346644 
L 67.355168 23.360703 
L 67.338158 23.631085 
L 67.321147 23.901467 
L 67.304137 24.171849 
L 67.287127 24.442231 
L 67.279371 24.632668 
L 67.273025 24.786807 
L 67.170258 25.033609 
L 67.067491 25.28041 
L 66.964724 25.527211 
L 66.861958 25.774012 
L 66.711157 26.068806 
L 66.560355 26.3636 
L 66.409554 26.658394 
L 66.258753 26.953188 
L 65.991436 27.241144 
L 65.724119 27.5291 
L 65.456802 27.817056 
L 65.189485 28.105012 
L 64.942703 28.317561 
L 64.695922 28.530109 
L 64.44914 28.742657 
L 64.202359 28.955205 
L 63.953638 29.213765 
L 63.704918 29.472325 
L 63.456198 29.730884 
L 63.207477 29.989444 
" style="fill:none;stroke:#008000;stroke-linecap:square;stroke-width:0.4;"/>
   </g>
   <g id="line2d_27">
    <path clip-path="url(#p3ccb51e33e)" d="M 66.285899 19.246752 
L 66.004392 19.14591 
L 65.722885 19.045068 
L 65.488619 18.961097 
L 65.254353 18.877125 
L 64.836235 18.849646 
L 64.418116 18.822167 
L 64.034195 19.069096 
L 63.9725 19.439362 
L 63.910804 19.809628 
L 63.9725 20.186667 
L 64.034195 20.563707 
L 64.226156 20.95455 
L 64.418116 21.345393 
L 64.489507 21.694954 
L 64.560897 22.044515 
L 64.580023 22.297323 
L 64.599148 22.550131 
L 64.618274 22.80294 
L 64.637399 23.055748 
L 64.606728 23.430998 
L 64.576056 23.806249 
L 64.543093 24.100595 
L 64.510131 24.394942 
L 64.461127 24.832819 
L 64.369113 25.210114 
L 64.258237 25.66499 
L 64.147362 26.119866 
L 64.089897 26.395617 
L 64.032432 26.671367 
L 63.974967 26.947117 
L 63.917503 27.222867 
L 63.861977 27.487179 
L 63.806451 27.75149 
L 63.750925 28.015801 
L 63.695399 28.280112 
L 63.573419 28.707445 
L 63.451438 29.134778 
L 63.329458 29.562111 
L 63.207477 29.989444 
" style="fill:none;stroke:#008000;stroke-linecap:square;stroke-width:0.4;"/>
   </g>
   <g id="line2d_28">
    <path clip-path="url(#p3ccb51e33e)" d="M 65.722885 19.045068 
L 65.559789 19.332609 
L 65.396693 19.620149 
L 65.233597 19.90769 
L 65.070501 20.195231 
L 64.907405 20.482771 
L 64.744308 20.770312 
L 64.581212 21.057853 
L 64.418116 21.345393 
" style="fill:none;stroke:#008000;stroke-linecap:square;stroke-width:0.4;"/>
   </g>
   <g id="line2d_29">
    <path clip-path="url(#p3ccb51e33e)" d="M 31.117429 41.644444 
L 31.51933 41.790595 
L 31.921232 41.936746 
L 32.323133 42.082897 
L 32.725034 42.229048 
L 33.026636 42.434694 
L 33.328238 42.64034 
L 33.547698 42.928296 
L 33.767157 43.216253 
L 34.013938 43.408223 
L 34.26072 43.600194 
L 34.589644 43.559039 
L 34.918568 43.517884 
L 35.329988 43.531688 
L 35.741408 43.545491 
L 36.138903 43.737462 
L 36.536397 43.929433 
L 36.735232 44.093988 
L 36.934068 44.258544 
L 37.132903 44.423099 
L 37.331738 44.587655 
L 37.71566 44.710991 
L 38.099581 44.834328 
L 38.346363 44.800075 
L 38.593144 44.765822 
L 38.839926 44.731569 
L 39.086707 44.697316 
L 39.402058 44.615006 
L 39.71741 44.532696 
L 40.032761 44.450387 
L 40.348113 44.368077 
L 40.629179 44.299571 
L 40.910245 44.231064 
L 41.191312 44.162558 
L 41.472378 44.094052 
L 41.808266 44.025482 
L 42.144153 43.956912 
L 42.48004 43.888342 
L 42.815927 43.819772 
L 43.14494 43.751202 
L 43.473952 43.682631 
L 43.802965 43.614061 
L 44.131977 43.545491 
L 44.385633 43.545491 
L 44.639289 43.545491 
L 44.892945 43.545491 
L 45.146601 43.545491 
L 45.516774 43.504336 
L 45.886946 43.463182 
" style="fill:none;stroke:#4169e1;stroke-linecap:square;stroke-width:0.4;"/>
   </g>
   <g id="line2d_30">
    <path clip-path="url(#p3ccb51e33e)" d="M 28.536095 33.838572 
L 28.519173 34.221747 
L 28.502251 34.604921 
L 28.488502 34.961384 
L 28.474753 35.317846 
L 28.488502 35.619605 
L 28.502251 35.921365 
L 28.543323 36.236672 
L 28.584394 36.55198 
L 28.776355 36.82626 
L 28.968316 37.100541 
L 29.036886 37.374821 
L 29.105455 37.649102 
L 29.174025 37.923382 
L 29.242595 38.197662 
L 29.338576 38.519872 
L 29.434556 38.842081 
L 29.530537 39.16429 
L 29.626517 39.486499 
L 29.8458 39.856765 
L 30.065083 40.227031 
" style="fill:none;stroke:#008000;stroke-linecap:square;stroke-width:0.4;"/>
   </g>
   <g id="line2d_31">
    <path clip-path="url(#p3ccb51e33e)" d="M 31.651887 34.231972 
L 31.735969 34.610417 
L 31.820051 34.988863 
L 31.881747 35.221988 
L 31.943442 35.455114 
L 32.005137 35.688239 
L 32.066833 35.921365 
L 32.224508 36.113336 
L 32.382184 36.305306 
L 32.53986 36.497277 
L 32.697536 36.689248 
L 32.964941 36.846902 
L 33.232346 37.004555 
L 33.499752 37.162209 
L 33.767157 37.319863 
" style="fill:none;stroke:#008000;stroke-linecap:square;stroke-width:0.4;"/>
   </g>
   <g id="line2d_32">
    <path clip-path="url(#p3ccb51e33e)" d="M 17.40731 24.426127 
L 17.830012 24.579755 
L 18.252713 24.733383 
L 18.506369 24.966508 
L 18.760025 25.199634 
L 19.013681 25.43276 
L 19.267337 25.665885 
L 19.370192 25.905848 
L 19.473047 26.145812 
L 19.575902 26.385775 
L 19.678757 26.625739 
L 19.994109 26.913695 
L 20.30946 27.201651 
L 20.535706 27.441614 
L 20.761951 27.681578 
L 20.988197 27.921541 
L 21.214443 28.161504 
L 21.52292 28.360377 
L 21.831396 28.559249 
L 22.139873 28.758122 
L 22.44835 28.956994 
L 22.715755 29.032402 
L 22.983161 29.10781 
L 23.250566 29.183218 
L 23.517971 29.258626 
L 23.901893 29.334034 
L 24.285814 29.409442 
L 24.669735 29.48485 
L 25.053657 29.560258 
L 25.252404 29.745391 
L 25.451151 29.930524 
L 25.649898 30.115657 
L 25.848646 30.300789 
L 26.054356 30.506436 
L 26.260066 30.712082 
L 26.465775 30.917729 
L 26.671485 31.123375 
L 26.794876 31.356501 
L 26.918267 31.589626 
L 27.041658 31.822752 
L 27.165048 32.055877 
L 27.357009 32.343833 
L 27.54897 32.631789 
L 27.74093 32.919746 
L 27.932891 33.207702 
L 28.234493 33.523137 
L 28.536095 33.838572 
" style="fill:none;stroke:#008000;stroke-linecap:square;stroke-width:0.4;"/>
   </g>
   <g id="line2d_33">
    <path clip-path="url(#p3ccb51e33e)" d="M 40.348113 32.739917 
L 40.567484 32.863317 
L 40.786855 32.986718 
L 41.006226 33.110119 
L 41.225597 33.233519 
L 41.595064 33.429452 
L 41.964531 33.625385 
L 42.198268 33.786042 
L 42.432006 33.946699 
L 42.671912 34.063262 
L 42.911819 34.179825 
L 43.151726 34.296388 
L 43.391633 34.412951 
L 43.638414 34.419788 
L 43.885196 34.426626 
L 44.131977 34.433464 
L 44.378759 34.440302 
L 44.844823 34.412823 
L 45.310887 34.385344 
L 45.585079 34.529386 
L 45.859271 34.673428 
L 46.133463 34.817469 
L 46.407655 34.961511 
L 46.791576 35.139743 
L 47.175497 35.317974 
L 47.559419 35.496205 
L 47.94334 35.674436 
" style="fill:none;stroke:#008000;stroke-linecap:square;stroke-width:0.4;"/>
   </g>
   <g id="line2d_34">
    <path clip-path="url(#p3ccb51e33e)" d="M 17.40731 24.426127 
L 17.589047 24.141494 
L 17.770784 23.856861 
L 17.942121 23.644313 
L 18.113458 23.431765 
L 18.49544 23.496437 
L 18.877423 23.561109 
L 19.213222 23.716654 
L 19.549021 23.872199 
L 19.88482 24.027743 
L 20.220619 24.183288 
L 20.481149 24.293013 
L 20.74168 24.402738 
L 21.002211 24.512463 
L 21.262741 24.622188 
L 21.619164 24.512399 
L 21.975587 24.40261 
L 22.236118 24.21064 
L 22.496649 24.018669 
L 22.894319 23.840502 
L 23.29199 23.662334 
L 23.566182 23.710327 
L 23.840374 23.75832 
L 24.114565 23.806312 
L 24.388757 23.854305 
L 24.697234 23.922875 
L 25.005711 23.991445 
L 25.314188 24.060015 
L 25.622664 24.128586 
L 26.047833 24.169613 
L 26.473003 24.21064 
L 26.870497 24.169613 
L 27.267991 24.128586 
L 27.528522 24.142261 
L 27.789053 24.155937 
L 28.049583 24.169613 
L 28.310114 24.183288 
L 28.639215 24.485048 
L 28.968316 24.786807 
L 29.242507 24.985616 
L 29.516699 25.184425 
L 29.790891 25.383233 
L 30.065083 25.582042 
L 30.339363 25.787752 
L 30.613643 25.993462 
L 30.887923 26.199173 
L 31.162202 26.404883 
L 31.381574 26.562537 
L 31.600945 26.72019 
L 31.820316 26.877844 
L 32.039687 27.035498 
L 32.279594 27.193215 
L 32.5195 27.350933 
L 32.759407 27.508651 
L 32.999314 27.666368 
L 33.307791 27.830924 
L 33.616268 27.995479 
L 33.924744 28.160035 
L 34.233221 28.32459 
L 34.459467 28.441153 
L 34.685713 28.557716 
L 34.911958 28.674278 
L 35.138204 28.790841 
L 35.458667 29.027034 
L 35.779131 29.263227 
L 35.979552 29.410976 
L 36.179974 29.558724 
L 36.399345 29.688963 
L 36.618716 29.819201 
L 36.838087 29.94944 
L 37.057458 30.079678 
L 37.324864 30.251071 
L 37.592269 30.422465 
L 37.859674 30.593858 
L 38.12708 30.765251 
L 38.298417 30.964124 
L 38.469753 31.162996 
L 38.64109 31.361869 
L 38.812427 31.560741 
L 39.004388 31.725297 
L 39.196348 31.889852 
L 39.388309 32.054407 
L 39.58027 32.218963 
L 39.964191 32.47944 
L 40.348113 32.739917 
" style="fill:none;stroke:#008000;stroke-linecap:square;stroke-width:0.4;"/>
   </g>
   <g id="line2d_35">
    <path clip-path="url(#p3ccb51e33e)" d="M 47.94334 35.674436 
L 48.256753 35.758279 
L 48.701664 35.877398 
L 48.95629 35.945553 
L 49.210915 36.013708 
L 49.465541 36.081863 
L 49.720166 36.150017 
L 49.974792 36.218172 
L 50.229418 36.286327 
L 50.484043 36.354481 
L 50.738669 36.422636 
L 51.128055 36.418546 
L 51.51744 36.414456 
L 51.830985 36.411165 
L 52.14453 36.407874 
L 52.458074 36.404583 
L 52.771619 36.401292 
L 53.085164 36.398001 
L 53.398708 36.39471 
L 53.712253 36.391419 
L 54.025797 36.388127 
L 54.365827 36.345311 
L 54.705857 36.302495 
L 55.055405 36.048792 
L 55.404953 35.795089 
L 55.654819 35.651686 
L 55.904686 35.508283 
L 56.154552 35.36488 
L 56.404418 35.221477 
" style="fill:none;stroke:#008000;stroke-linecap:square;stroke-width:0.4;"/>
   </g>
   <g id="line2d_36">
    <path clip-path="url(#p3ccb51e33e)" d="M 10.786869 17.135074 
L 10.999454 17.244799 
L 11.212039 17.354524 
L 11.424623 17.464249 
L 11.637208 17.573974 
L 11.849704 17.704212 
L 12.062201 17.834451 
L 12.274697 17.964689 
L 12.487194 18.094928 
L 12.76826 18.355469 
L 13.049326 18.616009 
L 13.330393 18.87655 
L 13.611459 19.137091 
L 13.80342 19.438723 
L 13.995381 19.740355 
L 14.269661 19.808989 
L 14.543941 19.877623 
L 14.927862 19.904974 
L 15.311783 19.932325 
L 15.538029 20.014635 
L 15.764275 20.096945 
L 15.99052 20.179254 
L 16.216766 20.261564 
L 16.438517 20.42286 
L 16.660268 20.584157 
L 16.882018 20.745453 
L 17.103769 20.906749 
L 17.423527 21.139108 
L 17.670309 21.296826 
L 17.91709 21.454543 
L 18.163872 21.612261 
L 18.410653 21.769979 
L 18.780825 21.865964 
L 19.150997 21.961949 
L 19.52117 22.057935 
L 19.891342 22.15392 
L 20.199907 22.236166 
L 20.508472 22.318412 
L 20.817037 22.400657 
L 21.125601 22.482903 
L 21.578093 22.386918 
L 22.030584 22.290932 
L 22.366471 22.181271 
L 22.702359 22.07161 
L 23.038246 21.961949 
L 23.374133 21.852288 
L 23.764929 21.790556 
L 24.155725 21.728824 
L 24.546521 21.667091 
L 24.937317 21.605359 
L 25.204634 21.605359 
L 25.471951 21.605359 
L 25.739269 21.605359 
L 26.006586 21.605359 
L 26.356222 21.687669 
L 26.705859 21.769979 
L 27.055495 21.852288 
L 27.405131 21.934598 
L 27.693072 22.037421 
L 27.981013 22.140244 
L 28.268955 22.243068 
L 28.556896 22.345891 
L 28.913407 22.503544 
L 29.269918 22.661198 
L 29.626429 22.818852 
L 29.98294 22.976506 
L 30.277755 23.16854 
L 30.572571 23.360575 
L 30.867387 23.552609 
L 31.162202 23.744644 
L 31.45693 23.96403 
L 31.751658 24.183416 
L 32.046385 24.402802 
L 32.341113 24.622188 
L 32.560484 24.800419 
L 32.779855 24.97865 
L 32.999226 25.156881 
L 33.218597 25.335113 
L 33.458504 25.479091 
L 33.698411 25.623069 
L 33.938317 25.767047 
L 34.178224 25.911025 
L 34.438755 25.972757 
L 34.699286 26.034489 
L 34.959816 26.096222 
L 35.220347 26.157954 
L 35.487664 26.185369 
L 35.754981 26.212784 
L 36.022298 26.2402 
L 36.289616 26.267615 
L 36.536485 26.30877 
L 36.783355 26.349925 
L 37.030224 26.391079 
L 37.277094 26.432234 
L 37.71566 26.610529 
L 38.154226 26.788824 
L 38.565646 27.008146 
L 38.977065 27.227468 
L 39.388309 27.309778 
L 39.799553 27.392088 
L 40.060083 27.563481 
L 40.320614 27.734874 
L 40.581145 27.906268 
L 40.841676 28.077661 
" style="fill:none;stroke:#4169e1;stroke-linecap:square;stroke-width:0.4;"/>
   </g>
   <g id="line2d_37">
    <path clip-path="url(#p3ccb51e33e)" d="M 40.841676 28.077661 
L 41.114986 28.328552 
L 41.388296 28.579443 
L 41.661607 28.830335 
L 41.934917 29.081226 
L 42.136926 29.26655 
L 42.437206 29.472069 
L 42.737486 29.677588 
L 43.037766 29.883106 
L 43.338046 30.088625 
L 43.763039 30.294271 
L 44.188032 30.499918 
L 44.613025 30.705564 
L 45.038018 30.91121 
L 45.305335 30.983231 
L 45.572652 31.055252 
L 45.839969 31.127273 
L 46.107286 31.199294 
L 46.378041 31.326146 
L 46.648795 31.452997 
L 46.91955 31.579849 
L 47.190304 31.7067 
L 47.498781 31.9466 
L 47.807258 32.186499 
L 48.064968 32.533631 
L 48.326204 32.885684 
L 48.58744 33.237737 
L 48.848675 33.58979 
L 49.109911 33.941843 
L 49.349818 34.198933 
L 49.589725 34.456023 
L 49.829632 34.713113 
L 50.069539 34.970202 
L 50.250526 35.150734 
L 50.431514 35.331266 
L 50.612502 35.511798 
L 50.793489 35.692329 
L 50.974477 35.872861 
L 51.155465 36.053393 
L 51.336453 36.233925 
L 51.51744 36.414456 
" style="fill:none;stroke:#008000;stroke-linecap:square;stroke-width:0.4;"/>
   </g>
   <g id="line2d_38">
    <path clip-path="url(#p3ccb51e33e)" d="M 6.488994 3.067531 
L 6.760454 3.225824 
L 7.031914 3.384117 
L 7.303373 3.542409 
L 7.574833 3.700702 
L 7.9547 3.723325 
L 8.334567 3.745947 
L 8.624183 3.890756 
L 8.913798 4.035565 
L 9.114749 4.261533 
L 9.30671 4.426024 
L 9.49867 4.590516 
L 9.759201 4.933303 
L 9.985535 5.125273 
L 10.280262 5.194035 
L 10.637038 5.200681 
L 11.00721 5.358399 
L 11.384081 5.598426 
L 11.606889 5.71844 
L 11.829697 5.838453 
L 12.165673 5.913861 
L 12.584143 5.913861 
L 13.016011 6.050874 
L 13.249043 6.129733 
L 13.482075 6.208591 
L 13.728857 6.301126 
L 13.975638 6.39366 
L 14.21907 6.428041 
L 14.462503 6.462422 
L 14.71281 6.551506 
L 14.963116 6.640589 
L 15.319539 6.740026 
L 15.675962 6.839462 
L 16.123342 6.931996 
L 16.570721 7.024531 
L 17.018101 7.117065 
L 17.46548 7.2096 
L 17.780655 7.278106 
L 18.192075 7.355176 
L 18.603495 7.432245 
L 19.014915 7.509314 
L 19.426335 7.586384 
L 19.813694 7.627475 
L 20.201052 7.668566 
L 20.588411 7.709657 
L 20.97577 7.750748 
L 21.225989 7.74391 
L 21.476207 7.737072 
L 21.726426 7.730234 
L 21.976645 7.723396 
L 22.374316 7.839959 
L 22.771986 7.956522 
L 23.176531 8.134817 
L 23.581077 8.313112 
L 23.889554 8.292535 
L 24.19803 8.271957 
L 24.506507 8.25138 
L 24.814984 8.230802 
L 25.154308 8.217063 
L 25.493633 8.203323 
L 25.832957 8.189584 
L 26.172282 8.175844 
L 26.518128 8.261221 
L 26.95546 8.369348 
L 27.392792 8.477476 
L 27.663547 8.58375 
L 27.934301 8.690024 
L 28.205056 8.796298 
L 28.47581 8.902572 
L 28.856294 9.022586 
L 29.236778 9.142599 
L 29.617263 9.262613 
L 29.997747 9.382627 
L 30.367214 9.509414 
L 30.641846 9.603738 
L 30.916479 9.698062 
L 31.243728 9.752573 
L 31.570978 9.807084 
L 31.898228 9.861595 
L 32.225478 9.916106 
" style="fill:none;stroke:#4169e1;stroke-linecap:square;stroke-width:0.4;"/>
   </g>
   <g id="line2d_39">
    <path clip-path="url(#p3ccb51e33e)" d="M 32.225478 9.916106 
L 32.393642 9.745352 
L 32.561806 9.574597 
L 32.740017 9.351697 
L 32.918229 9.128796 
L 33.192509 8.889024 
L 33.394693 8.741531 
L 33.596878 8.594039 
L 33.953301 8.477476 
L 34.36472 8.477476 
L 34.666146 8.546238 
L 34.933552 8.6628 
L 35.200957 8.779363 
L 35.433989 8.878672 
L 35.667021 8.97798 
L 36.044244 8.991783 
L 36.434864 8.840968 
L 36.770839 8.614744 
L 36.976373 8.491279 
L 37.332796 8.354267 
L 37.586452 8.30621 
L 37.840108 8.258154 
L 38.271976 8.381618 
" style="fill:none;stroke:#008000;stroke-linecap:square;stroke-width:0.4;"/>
   </g>
   <g id="line2d_40">
    <path clip-path="url(#p3ccb51e33e)" d="M 38.271976 8.381618 
L 38.607951 8.450124 
L 38.943926 8.518631 
L 39.252403 8.51518 
L 39.56088 8.511729 
L 39.886455 8.556335 
L 40.21203 8.60094 
L 40.61305 8.652448 
L 41.01407 8.703955 
L 41.336296 8.727856 
L 41.658522 8.751756 
L 41.83973 8.778085 
L 42.179583 8.827164 
L 42.55663 8.919826 
L 42.933677 9.012489 
L 43.283225 9.08272 
L 43.632774 9.152952 
L 43.982322 9.223184 
L 44.33187 9.293415 
L 44.789121 9.188611 
L 45.246372 9.083807 
L 45.561503 9.011626 
L 45.876634 8.939445 
L 46.191765 8.867264 
L 46.506896 8.795084 
L 46.822027 8.722903 
L 47.137158 8.650722 
L 47.452289 8.578542 
L 47.76742 8.506361 
L 47.986174 8.402707 
L 48.204928 8.299053 
L 48.58885 8.119224 
L 48.972771 7.939395 
L 49.356693 7.759567 
L 49.740614 7.579738 
" style="fill:none;stroke:#008000;stroke-linecap:square;stroke-width:0.4;"/>
   </g>
   <g id="line2d_41">
    <path clip-path="url(#p3ccb51e33e)" d="M 44.490515 9.306707 
L 44.827196 9.48283 
L 45.228039 9.665598 
L 45.628883 9.848367 
L 45.85504 10.146931 
L 46.081198 10.445495 
L 46.148975 10.68974 
L 46.216751 10.933985 
L 46.284528 11.17823 
L 46.352305 11.422475 
L 46.406597 11.856774 
L 46.460889 12.291073 
L 46.460889 12.689073 
L 46.460889 13.087074 
L 46.298013 13.403787 
L 46.135137 13.7205 
L 45.995001 13.914963 
L 45.854864 14.109426 
L 45.714728 14.303889 
L 45.574591 14.498352 
L 45.529289 14.914502 
L 45.483987 15.330652 
L 45.502143 15.774025 
L 45.520299 16.217398 
L 45.457017 16.642622 
L 45.393735 17.067846 
L 45.203714 17.492942 
L 45.013692 17.918039 
L 44.859982 18.307093 
L 44.706273 18.696146 
L 44.647486 18.949466 
L 44.588699 19.202785 
L 44.529912 19.456105 
L 44.471125 19.709425 
L 44.310541 20.141295 
L 44.149957 20.573165 
" style="fill:none;stroke:#008000;stroke-linecap:square;stroke-width:0.4;"/>
   </g>
   <g id="line2d_42">
    <path clip-path="url(#p3ccb51e33e)" d="M 46.241958 19.568322 
L 45.980458 19.693928 
L 45.718958 19.819533 
L 45.457458 19.945138 
L 45.195958 20.070744 
L 44.934457 20.196349 
L 44.672957 20.321954 
L 44.411457 20.44756 
L 44.149957 20.573165 
L 43.921508 20.693179 
L 43.693059 20.813192 
L 43.452271 21.095141 
L 43.256079 21.325072 
L 43.059888 21.555002 
L 42.933324 21.844492 
L 42.806761 22.133982 
L 42.788605 22.459642 
L 42.770449 22.785302 
L 42.888022 23.138185 
L 43.005596 23.491069 
L 43.132336 23.726239 
L 43.259076 23.96141 
L 43.44901 24.205719 
L 43.638943 24.450028 
L 43.828877 24.694337 
L 44.01881 24.938646 
L 44.313009 25.202829 
L 44.607208 25.467013 
L 44.901406 25.731196 
L 45.195605 25.995379 
" style="fill:none;stroke:#008000;stroke-linecap:square;stroke-width:0.4;"/>
   </g>
   <g id="line2d_43">
    <path clip-path="url(#p3ccb51e33e)" d="M 46.901217 24.978778 
L 47.339783 25.006513 
L 47.778349 25.034248 
L 48.216915 25.061982 
L 48.655481 25.089717 
L 48.942805 25.184233 
L 49.230129 25.278748 
L 49.517453 25.373264 
L 49.804777 25.467779 
L 50.054599 25.629523 
L 50.304422 25.791267 
L 50.554244 25.95301 
L 50.804066 26.114754 
L 51.053888 26.276498 
L 51.30371 26.438241 
L 51.553532 26.599985 
L 51.803354 26.761729 
L 52.053177 26.923472 
L 52.302999 27.085216 
L 52.552821 27.24696 
L 52.802643 27.408703 
L 53.052465 27.570447 
L 53.302287 27.73219 
L 53.552109 27.893934 
L 53.801931 28.055678 
L 53.87504 28.286407 
L 53.948149 28.517136 
L 54.021258 28.747865 
L 54.094367 28.978594 
L 54.167476 29.209323 
L 54.240585 29.440053 
L 54.313694 29.670782 
L 54.386803 29.901511 
" style="fill:none;stroke:#008000;stroke-linecap:square;stroke-width:0.4;"/>
   </g>
   <g id="line2d_44">
    <path clip-path="url(#p3ccb51e33e)" d="M 7.331577 4.300131 
L 7.67143 4.881667 
L 7.934781 5.424604 
L 8.42852 6.01432 
L 9.031901 6.68609 
L 9.744747 6.741048 
L 10.677228 7.070031 
L 12.103272 8.139546 
L 12.528441 8.976063 
L 12.679331 9.181709 
L 13.364678 9.538299 
L 13.885739 10.251352 
L 14.352156 11.183982 
L 15.339282 12.006695 
L 16.107125 12.431664 
L 16.943537 12.91159 
L 18.136373 13.706953 
L 19.617414 14.035936 
L 20.632039 15.46204 
L 22.098978 16.874597 
L 22.387007 17.135074 
L 26.116403 18.191041 
L 26.884246 18.451518 
L 27.77548 18.588658 
L 28.227971 18.616137 
L 29.701785 19.150831 
L 30.833014 19.308612 
L 33.122705 20.014763 
L 33.856263 20.302719 
L 35.686411 21.413388 
L 36.927369 22.167596 
L 37.8528 23.100098 
L 38.418612 23.623496 
L 41.971934 25.510212 
L 41.971934 25.510212 
" style="fill:none;stroke:#000000;stroke-linecap:square;stroke-width:0.4;"/>
   </g>
   <g id="line2d_45">
    <path clip-path="url(#p3ccb51e33e)" d="M 32.971816 45.629818 
L 33.305764 45.674775 
L 33.639712 45.719732 
L 33.97366 45.764689 
L 34.307608 45.809647 
L 34.641556 45.854604 
L 34.975504 45.899561 
L 35.309453 45.944518 
L 35.643401 45.989475 
L 35.937379 46.016635 
L 36.231358 46.043795 
L 36.525336 46.070954 
L 36.819314 46.098114 
L 37.113293 46.125274 
L 37.407271 46.152433 
L 37.70125 46.179593 
L 37.995228 46.206753 
L 38.332173 46.195441 
L 38.669118 46.18413 
L 39.006062 46.172819 
L 39.343007 46.161508 
L 39.679952 46.150197 
L 40.016897 46.138885 
L 40.353841 46.127574 
L 40.690786 46.116263 
L 41.066114 46.079454 
L 41.441443 46.042644 
L 41.816771 46.005835 
L 42.192099 45.969026 
L 42.567427 45.932216 
L 42.942755 45.895407 
L 43.318083 45.858598 
L 43.693411 45.821789 
" style="fill:none;stroke:#000000;stroke-dasharray:1.48,0.64;stroke-dashoffset:0;stroke-width:0.4;"/>
   </g>
   <g id="line2d_46">
    <path clip-path="url(#p3ccb51e33e)" d="M 29.969543 33.327332 
L 30.281722 33.003845 
L 30.5939 32.680357 
L 30.906079 32.35687 
L 31.218257 32.033383 
L 31.436482 31.817767 
L 31.654708 31.602152 
L 31.872933 31.386536 
L 32.091158 31.17092 
L 32.309384 30.955305 
L 32.527609 30.739689 
L 32.745834 30.524074 
L 32.96406 30.308458 
L 33.315943 30.177804 
L 33.667827 30.04715 
L 34.019711 29.916496 
L 34.371595 29.785843 
L 34.723479 29.655189 
L 35.075363 29.524535 
L 35.427247 29.393881 
L 35.779131 29.263227 
" style="fill:none;stroke:#4169e1;stroke-dasharray:1.48,0.64;stroke-dashoffset:0;stroke-width:0.4;"/>
   </g>
   <g id="line2d_47">
    <path clip-path="url(#p3ccb51e33e)" d="M 4.616276 12.006567 
L 4.914441 11.953654 
L 5.212606 11.900741 
L 5.51077 11.847827 
L 5.808935 11.794914 
L 6.255786 11.83658 
L 6.702637 11.878246 
L 7.014463 12.106898 
L 7.326289 12.33555 
L 7.440601 12.582352 
L 7.554914 12.829153 
L 7.669227 13.075954 
L 7.783539 13.322755 
L 7.897852 13.569557 
L 8.012165 13.816358 
L 8.126477 14.063159 
L 8.24079 14.30996 
L 8.365415 14.585327 
L 8.490039 14.860694 
L 8.614664 15.136061 
L 8.739289 15.411428 
L 8.749689 15.827194 
L 8.760089 16.24296 
L 8.697071 16.498197 
L 8.634054 16.753433 
L 8.571037 17.00867 
L 8.508019 17.263907 
" style="fill:none;stroke:#000000;stroke-dasharray:1.48,0.64;stroke-dashoffset:0;stroke-width:0.4;"/>
   </g>
   <g id="line2d_48">
    <path clip-path="url(#p3ccb51e33e)" d="M 40.164084 10.932196 
L 40.457578 11.036361 
L 40.751071 11.140526 
L 41.044565 11.244692 
L 41.338059 11.348857 
L 41.631552 11.453022 
L 41.925046 11.557187 
L 42.21854 11.661352 
L 42.512033 11.765518 
L 42.673411 11.960204 
L 42.834788 12.154891 
L 42.996166 12.349578 
L 43.157543 12.544264 
L 43.31892 12.738951 
L 43.480298 12.933638 
L 43.641675 13.128324 
L 43.803053 13.323011 
L 43.926443 13.761783 
L 44.049834 14.200555 
L 44.241707 14.474835 
L 44.433579 14.749116 
L 44.625452 15.023396 
L 44.817324 15.297677 
L 44.993068 15.527607 
L 45.168812 15.757537 
L 45.344555 15.987468 
L 45.520299 16.217398 
" style="fill:none;stroke:#000000;stroke-linecap:square;stroke-width:0.4;"/>
   </g>
   <g id="line2d_49">
    <path clip-path="url(#p3ccb51e33e)" d="M 45.520299 16.217398 
L 45.740904 16.38697 
L 45.961509 16.556542 
L 46.182114 16.726114 
L 46.402719 16.895686 
L 46.623324 17.065258 
L 46.843929 17.23483 
L 47.064534 17.404402 
L 47.285139 17.573974 
L 47.53192 17.889345 
L 47.778702 18.204717 
L 48.025483 18.520088 
L 48.272265 18.835459 
L 48.367628 19.064303 
L 48.462991 19.293147 
L 48.558355 19.521991 
L 48.653718 19.750835 
L 48.820824 20.151903 
L 49.129301 20.357549 
L 49.437778 20.563196 
L 49.746255 20.768842 
L 50.054732 20.974489 
L 50.397405 21.152784 
L 50.740079 21.331079 
L 51.082753 21.509374 
L 51.425426 21.687669 
L 51.64136 21.848773 
L 51.857294 22.009878 
L 52.073227 22.170983 
L 52.289161 22.332087 
L 52.505095 22.493192 
L 52.721029 22.654296 
L 52.936963 22.815401 
L 53.152896 22.976506 
L 53.385928 23.147963 
L 53.618961 23.31942 
L 53.851993 23.490877 
L 54.085025 23.662334 
L 54.328369 23.81315 
L 54.571713 23.963966 
L 54.815057 24.114782 
L 55.058402 24.265598 
L 55.301746 24.416414 
L 55.54509 24.56723 
L 55.788434 24.718046 
L 56.031778 24.868861 
L 56.347129 25.115727 
L 56.662481 25.362592 
L 56.977832 25.609457 
L 57.293184 25.856322 
L 57.560501 26.061968 
L 57.827818 26.267615 
L 58.095135 26.473261 
L 58.362452 26.678908 
L 58.602359 26.891456 
L 58.842266 27.104004 
L 59.082173 27.316552 
L 59.32208 27.5291 
L 59.747073 27.734874 
L 60.172065 27.940649 
" style="fill:none;stroke:#4169e1;stroke-linecap:square;stroke-width:0.4;"/>
   </g>
   <g id="line2d_50">
    <path clip-path="url(#p3ccb51e33e)" d="M 41.877805 9.759666 
L 42.214397 9.96854 
L 42.55099 10.177414 
L 42.887582 10.386287 
L 43.224174 10.595161 
L 43.560766 10.804034 
L 43.897359 11.012908 
L 44.233951 11.221782 
L 44.570543 11.430655 
L 44.803663 11.691196 
L 45.036784 11.951737 
L 45.269904 12.212278 
L 45.503024 12.472818 
L 45.736056 12.58248 
L 45.969089 12.692141 
L 46.250155 12.808703 
L 46.531222 12.925266 
L 46.812288 13.041829 
L 47.093354 13.158392 
" style="fill:none;stroke:#4169e1;stroke-linecap:square;stroke-width:0.4;"/>
   </g>
   <g id="line2d_51">
    <path clip-path="url(#p3ccb51e33e)" d="M 46.352305 11.422475 
L 46.538008 11.663461 
L 46.723711 11.904447 
L 46.909414 12.145433 
L 47.095117 12.386419 
L 47.217891 12.667026 
L 47.340665 12.947633 
L 47.463438 13.22824 
L 47.586212 13.508847 
" style="fill:none;stroke:#008000;stroke-linecap:square;stroke-width:0.4;"/>
   </g>
   <g id="line2d_52">
    <path clip-path="url(#p3ccb51e33e)" d="M 60.448813 29.816134 
L 60.344107 29.829937 
L 60.234466 29.910457 
L 60.181232 29.999669 
L 60.169245 30.152274 
L 60.190045 30.320217 
L 60.222479 30.505286 
L 60.258439 30.736622 
L 60.303212 30.891016 
L 60.351158 30.997354 
L 60.412854 31.046945 
L 60.539417 31.132577 
" style="fill:none;stroke:#008000;stroke-linecap:square;stroke-width:0.4;"/>
   </g>
   <g id="line2d_53">
    <path clip-path="url(#p3ccb51e33e)" d="M 67.073837 21.35613 
L 66.913605 21.546055 
L 66.753374 21.735981 
L 66.593142 21.925907 
L 66.43291 22.115833 
L 66.272679 22.305758 
L 66.112447 22.495684 
L 65.952215 22.68561 
L 65.791984 22.875536 
L 65.631752 23.065461 
L 65.47152 23.255387 
L 65.311289 23.445313 
L 65.151057 23.635239 
L 64.990826 23.825164 
L 64.830594 24.01509 
L 64.670362 24.205016 
L 64.510131 24.394942 
" style="fill:none;stroke:#4169e1;stroke-linecap:square;stroke-width:0.4;"/>
   </g>
   <g id="line2d_54">
    <path clip-path="url(#p3ccb51e33e)" d="M 67.363629 23.346644 
L 67.057356 23.54967 
L 66.751082 23.752696 
L 66.444809 23.955722 
L 66.138535 24.158749 
L 65.914669 24.291032 
L 65.690803 24.423316 
L 65.295953 24.656697 
L 65.064243 24.795051 
L 64.832533 24.933406 
L 64.600823 25.07176 
L 64.369113 25.210114 
" style="fill:none;stroke:#008000;stroke-linecap:square;stroke-width:0.4;"/>
   </g>
   <g id="line2d_55">
    <path clip-path="url(#p3ccb51e33e)" d="M 67.279371 24.632668 
L 66.882229 24.58033 
L 66.485087 24.527992 
L 66.087945 24.475654 
L 65.690803 24.423316 
" style="fill:none;stroke:#008000;stroke-linecap:square;stroke-width:0.4;"/>
   </g>
   <g id="line2d_56">
    <path clip-path="url(#p3ccb51e33e)" d="M 8.839764 10.607814 
L 9.086215 10.810617 
L 9.332666 11.013419 
L 9.579117 11.216222 
L 9.825568 11.419024 
L 10.072019 11.621827 
L 10.318469 11.82463 
L 10.56492 12.027432 
L 10.811371 12.230235 
L 11.057822 12.433038 
L 11.304273 12.63584 
L 11.550724 12.838643 
L 11.797175 13.041445 
L 12.043626 13.244248 
L 12.290077 13.447051 
L 12.536528 13.649853 
L 12.782979 13.852656 
L 13.048974 14.12029 
L 13.314969 14.387925 
L 13.580964 14.655559 
L 13.846959 14.923193 
L 14.07012 15.061707 
L 14.293281 15.200221 
L 14.516442 15.338736 
L 14.739603 15.47725 
L 14.962764 15.615764 
L 15.185925 15.754278 
L 15.409086 15.892792 
L 15.632247 16.031306 
L 15.884713 16.318016 
L 16.137179 16.604726 
L 16.389645 16.891436 
L 16.642112 17.178146 
L 16.894578 17.464856 
L 17.147044 17.751566 
L 17.39951 18.038276 
L 17.651976 18.324986 
L 17.891619 18.530441 
L 18.131261 18.735895 
L 18.370904 18.94135 
L 18.610546 19.146805 
L 18.948593 19.202434 
L 19.286639 19.258063 
L 19.624686 19.313693 
L 19.962732 19.369322 
L 20.300779 19.424951 
L 20.638825 19.480581 
L 20.976872 19.53621 
L 21.314918 19.591839 
L 21.644415 19.685971 
L 21.973913 19.780104 
L 22.30341 19.874236 
L 22.632907 19.968368 
L 22.962405 20.0625 
L 23.291902 20.156632 
L 23.621399 20.250764 
L 23.950896 20.344896 
L 24.207858 20.502454 
L 24.464819 20.660012 
L 24.72178 20.81757 
L 24.978741 20.975128 
L 25.235702 21.132686 
L 25.492663 21.290243 
L 25.749625 21.447801 
L 26.006586 21.605359 
" style="fill:none;stroke:#ff0000;stroke-dasharray:1.48,0.64;stroke-dashoffset:0;stroke-width:0.4;"/>
   </g>
   <g id="line2d_57">
    <path clip-path="url(#p3ccb51e33e)" d="M 10.786869 17.135074 
L 10.951772 16.954319 
L 11.116675 16.773563 
L 11.281578 16.592808 
L 11.446481 16.412053 
L 11.611384 16.231297 
L 11.776287 16.050542 
L 11.94119 15.869786 
L 12.106093 15.689031 
L 12.438895 15.572213 
L 12.771697 15.455394 
L 13.040513 15.322344 
L 13.309328 15.189294 
L 13.578144 15.056243 
L 13.846959 14.923193 
" style="fill:none;stroke:#4169e1;stroke-linecap:square;stroke-width:0.4;"/>
   </g>
   <g id="line2d_58">
    <path clip-path="url(#p3ccb51e33e)" d="M 9.237787 18.121257 
L 9.510392 18.024313 
L 9.782998 17.927369 
L 10.055603 17.830425 
L 10.328209 17.733481 
L 10.557539 17.434278 
L 10.786869 17.135074 
" style="fill:none;stroke:#008000;stroke-linecap:square;stroke-width:0.4;"/>
   </g>
   <g id="line2d_59">
    <path clip-path="url(#p3ccb51e33e)" d="M 41.971934 25.510212 
L 41.894463 25.808457 
L 41.816991 26.106702 
L 41.739519 26.404947 
L 41.662048 26.703192 
L 41.652617 27.065917 
L 41.643186 27.428642 
L 41.633756 27.791367 
L 41.624325 28.154091 
L 41.701973 28.385875 
L 41.779621 28.617659 
L 41.857269 28.849442 
L 41.934917 29.081226 
" style="fill:none;stroke:#008000;stroke-linecap:square;stroke-width:0.4;"/>
   </g>
   <g id="line2d_60">
    <path clip-path="url(#p3ccb51e33e)" d="M 46.241958 19.568322 
L 46.671006 19.760293 
L 46.924838 20.059624 
L 47.066208 20.127364 
L 47.464232 20.059624 
L 47.862255 19.991885 
L 48.257986 19.87136 
L 48.653718 19.750835 
" style="fill:none;stroke:#008000;stroke-linecap:square;stroke-width:0.4;"/>
   </g>
   <g id="line2d_61">
    <path clip-path="url(#p3ccb51e33e)" d="M 45.195605 25.995379 
L 45.266819 26.241414 
L 45.338033 26.487448 
L 45.262941 26.816431 
L 45.177097 27.039332 
L 45.091252 27.262233 
L 44.919915 27.666624 
L 44.926966 28.078172 
L 44.966451 28.300306 
" style="fill:none;stroke:#008000;stroke-linecap:square;stroke-width:0.4;"/>
   </g>
   <g id="line2d_62">
    <path clip-path="url(#p3ccb51e33e)" d="M 46.168629 37.384279 
L 46.485258 37.195919 
L 46.801888 37.007559 
L 47.118517 36.819199 
L 47.435147 36.630839 
L 47.751776 36.442479 
L 48.068405 36.254119 
L 48.385035 36.065758 
L 48.701664 35.877398 
" style="fill:none;stroke:#008000;stroke-linecap:square;stroke-width:0.4;"/>
   </g>
  </g>
 </g>
 <defs>
  <clipPath id="p3ccb51e33e">
   <rect height="54.152027" width="72" x="0" y="0"/>
  </clipPath>
 </defs>
</svg>
