<?xml version="1.0" encoding="utf-8" standalone="no"?>
<!DOCTYPE svg PUBLIC "-//W3C//DTD SVG 1.1//EN"
  "http://www.w3.org/Graphics/SVG/1.1/DTD/svg11.dtd">
<svg height="72pt" version="1.1" viewBox="0 0 73.011685 72" width="73.011685pt" xmlns="http://www.w3.org/2000/svg" xmlns:xlink="http://www.w3.org/1999/xlink">
 <metadata>
  <rdf:RDF xmlns:cc="http://creativecommons.org/ns#" xmlns:dc="http://purl.org/dc/elements/1.1/" xmlns:rdf="http://www.w3.org/1999/02/22-rdf-syntax-ns#">
   <cc:Work>
    <dc:type rdf:resource="http://purl.org/dc/dcmitype/StillImage"/>
    <dc:date>2022-04-21T17:38:22.367258</dc:date>
    <dc:format>image/svg+xml</dc:format>
    <dc:creator>
     <cc:Agent>
      <dc:title>Matplotlib v3.4.3, https://matplotlib.org/</dc:title>
     </cc:Agent>
    </dc:creator>
   </cc:Work>
  </rdf:RDF>
 </metadata>
 <defs>
  <style type="text/css">*{stroke-linecap:butt;stroke-linejoin:round;}</style>
 </defs>
 <g id="figure_1">
  <g id="patch_1">
   <path d="M 0 72 
L 73.011685 72 
L 73.011685 0 
L 0 0 
z
" style="fill:#ffffff;"/>
  </g>
  <g id="axes_1">
   <g id="patch_2">
    <path clip-path="url(#pec1fee8987)" d="M 42.859678 26.565139 
L 42.859678 26.565139 
L 42.450305 26.615777 
L 42.040933 26.666416 
L 41.63156 26.717054 
L 41.222187 26.767692 
L 40.812704 26.680265 
L 40.403221 26.592839 
L 39.993738 26.505412 
L 39.584255 26.417985 
L 39.032314 26.022402 
L 38.480373 25.626818 
L 38.075307 25.829371 
L 38.369941 26.454918 
L 38.912826 26.841269 
L 39.455711 27.227619 
L 39.936423 27.597956 
L 40.417135 27.968293 
L 40.897847 28.33863 
L 41.378559 28.708967 
L 41.859271 29.079304 
L 42.339984 29.44964 
L 42.820696 29.819977 
L 43.301408 30.190314 
L 43.78212 30.510013 
L 44.262832 30.829711 
L 44.743544 31.14941 
L 45.224256 31.469109 
L 45.704968 31.788807 
L 46.18568 32.108506 
L 46.666392 32.428204 
L 47.147104 32.747903 
L 47.719861 33.15272 
L 48.292618 33.557537 
L 48.865376 33.962354 
L 49.438133 34.367171 
L 50.010891 34.771988 
L 50.583648 35.176805 
L 51.156405 35.581622 
L 51.729163 35.986439 
L 52.08343 36.27613 
L 52.437697 36.56582 
L 52.791964 36.855511 
L 53.146231 37.145202 
L 53.367095 36.92476 
L 53.192281 36.501477 
L 53.017466 36.078193 
L 52.842652 35.65491 
L 52.667838 35.231627 
L 52.240023 34.891298 
L 51.812208 34.550969 
L 51.384393 34.21064 
L 50.956578 33.870311 
L 50.708105 33.3873 
L 50.459632 32.90429 
L 50.21116 32.42128 
L 49.962687 31.938269 
L 49.737294 31.570241 
L 49.511902 31.202212 
L 49.28651 30.834184 
L 49.061117 30.466155 
L 48.421603 30.245424 
L 47.78209 30.024694 
L 47.142576 29.803963 
L 46.503062 29.583233 
L 46.144268 29.201355 
L 45.785473 28.819476 
L 45.426678 28.437598 
L 45.067883 28.05572 
z
" style="opacity:0.1;"/>
   </g>
   <g id="patch_3">
    <path clip-path="url(#pec1fee8987)" d="M 42.859678 26.565139 
L 42.859678 26.565139 
L 42.450305 26.615777 
L 42.040933 26.666416 
L 41.63156 26.717054 
L 41.222187 26.767692 
L 40.812704 26.680265 
L 40.403221 26.592839 
L 39.993738 26.505412 
L 39.584255 26.417985 
L 39.032314 26.022402 
L 38.480373 25.626818 
L 38.075307 25.829371 
L 38.369941 26.454918 
L 38.912826 26.841269 
L 39.455711 27.227619 
L 39.936423 27.597956 
L 40.417135 27.968293 
L 40.897847 28.33863 
L 41.378559 28.708967 
L 41.859271 29.079304 
L 42.339984 29.44964 
L 42.820696 29.819977 
L 43.301408 30.190314 
L 43.78212 30.510013 
L 44.262832 30.829711 
L 44.743544 31.14941 
L 45.224256 31.469109 
L 45.704968 31.788807 
L 46.18568 32.108506 
L 46.666392 32.428204 
L 47.147104 32.747903 
L 47.719861 33.15272 
L 48.292618 33.557537 
L 48.865376 33.962354 
L 49.438133 34.367171 
L 50.010891 34.771988 
L 50.583648 35.176805 
L 51.156405 35.581622 
L 51.729163 35.986439 
L 52.08343 36.27613 
L 52.437697 36.56582 
L 52.791964 36.855511 
L 53.146231 37.145202 
L 53.367095 36.92476 
L 53.192281 36.501477 
L 53.017466 36.078193 
L 52.842652 35.65491 
L 52.667838 35.231627 
L 52.240023 34.891298 
L 51.812208 34.550969 
L 51.384393 34.21064 
L 50.956578 33.870311 
L 50.708105 33.3873 
L 50.459632 32.90429 
L 50.21116 32.42128 
L 49.962687 31.938269 
L 49.737294 31.570241 
L 49.511902 31.202212 
L 49.28651 30.834184 
L 49.061117 30.466155 
L 48.421603 30.245424 
L 47.78209 30.024694 
L 47.142576 29.803963 
L 46.503062 29.583233 
L 46.144268 29.201355 
L 45.785473 28.819476 
L 45.426678 28.437598 
L 45.067883 28.05572 
z
" style="fill:none;stroke:#000000;stroke-dasharray:1.48,0.64;stroke-dashoffset:0;stroke-linejoin:miter;stroke-width:0.4;"/>
   </g>
   <g id="line2d_1">
    <path clip-path="url(#pec1fee8987)" d="M 54.071654 38.451119 
L 52.719078 37.469517 
L 51.544078 36.61718 
L 50.369078 35.764843 
L 49.095572 34.84066 
L 47.822066 33.916477 
L 46.22919 32.761176 
L 44.760219 31.695033 
L 43.291248 30.62889 
L 42.000735 29.692877 
L 40.710223 28.756864 
L 39.32496 27.751602 
L 37.939696 26.74634 
L 36.580495 25.760122 
" style="fill:none;stroke:#808080;stroke-linecap:square;stroke-width:0.4;"/>
   </g>
   <g id="line2d_2">
    <path clip-path="url(#pec1fee8987)" d="M 55.061128 36.694508 
L 55.172002 34.321005 
L 55.261452 32.402525 
L 55.350902 30.484044 
L 55.449629 28.368782 
L 55.548355 26.25352 
L 55.647302 24.134795 
L 55.74625 22.01607 
L 55.849173 19.813092 
L 55.952096 17.610115 
L 56.052147 15.46571 
L 56.152199 13.321306 
L 56.261748 10.974637 
L 56.371297 8.627968 
L 56.444624 7.054 
L 56.517951 5.480033 
L 56.619991 3.297541 
" style="fill:none;stroke:#808080;stroke-linecap:square;stroke-width:0.4;"/>
   </g>
   <g id="line2d_3">
    <path clip-path="url(#pec1fee8987)" d="M 55.481654 36.694508 
L 55.59562 34.288112 
L 55.686395 32.374537 
L 55.777171 30.460961 
L 55.875456 28.384363 
L 55.97374 26.307764 
L 56.074897 24.172304 
L 56.176053 22.036845 
L 56.279638 19.850025 
L 56.383224 17.663206 
L 56.486147 15.492256 
L 56.58907 13.321306 
L 56.700164 10.979542 
L 56.811259 8.637778 
L 56.885028 7.080257 
L 56.958797 5.522736 
L 57.065254 3.272727 
" style="fill:none;stroke:#808080;stroke-linecap:square;stroke-width:0.4;"/>
   </g>
   <g id="line2d_4">
    <path clip-path="url(#pec1fee8987)" d="M 57.733149 34.715723 
L 57.86876 32.999651 
L 58.004371 31.283579 
L 58.139981 29.567508 
L 58.275592 27.851436 
L 58.449634 25.650189 
L 58.623675 23.448943 
L 58.78579 21.396005 
L 58.947904 19.343066 
L 59.136744 16.953982 
L 59.325583 14.564899 
L 59.496091 12.404913 
L 59.662623 10.298595 
" style="fill:none;stroke:#808080;stroke-linecap:square;stroke-width:0.4;"/>
   </g>
   <g id="line2d_5">
    <path clip-path="url(#pec1fee8987)" d="M 61.369907 37.18906 
L 63.672642 36.364422 
L 65.975377 35.539784 
L 68.000265 34.814403 
" style="fill:none;stroke:#808080;stroke-linecap:square;stroke-width:0.4;"/>
   </g>
   <g id="line2d_6">
    <path clip-path="url(#pec1fee8987)" d="M 55.704286 41.357838 
L 56.458759 40.231967 
" style="fill:none;stroke:#808080;stroke-linecap:square;stroke-width:0.4;"/>
   </g>
   <g id="line2d_7">
    <path clip-path="url(#pec1fee8987)" d="M 21.758707 67.435783 
L 21.942466 65.212463 
L 22.126225 62.989144 
L 22.309985 60.765824 
L 22.493744 58.542505 
L 22.654313 56.599499 
L 22.814882 54.656493 
L 22.98296 52.622309 
L 23.151038 50.588126 
L 23.324637 48.487579 
L 23.498237 46.387032 
L 23.692598 44.034592 
L 23.886959 41.682153 
L 24.081541 39.329713 
L 24.276122 36.977274 
L 24.45679 34.791031 
L 24.637457 32.604789 
L 24.786762 30.795664 
L 24.946226 28.866508 
" style="fill:none;stroke:#808080;stroke-linecap:square;stroke-width:0.4;"/>
   </g>
   <g id="line2d_8">
    <path clip-path="url(#pec1fee8987)" d="M 25.756799 29.756355 
L 27.913543 29.037466 
L 30.070287 28.318577 
L 32.227031 27.599687 
L 34.383774 26.880798 
" style="fill:none;stroke:#808080;stroke-linecap:square;stroke-width:0.4;"/>
   </g>
   <g id="line2d_9">
    <path clip-path="url(#pec1fee8987)" d="M 24.946226 28.866508 
L 24.39804 28.996926 
L 24.302405 29.527257 
L 24.206771 30.057587 
" style="fill:none;stroke:#008000;stroke-linecap:square;stroke-width:0.4;"/>
   </g>
   <g id="line2d_10">
    <path clip-path="url(#pec1fee8987)" d="M 22.294524 30.762771 
L 21.609071 30.914685 
L 20.923617 31.0666 
L 20.238164 31.218514 
L 19.55271 31.370429 
L 18.894865 31.411834 
L 18.237019 31.453239 
L 17.579173 31.494644 
L 16.921328 31.536049 
L 16.258844 31.738458 
L 15.596361 31.940866 
L 14.933877 32.143274 
L 14.271393 32.345683 
L 13.866548 32.681395 
L 13.461703 33.017108 
L 13.056858 33.35282 
L 12.652013 33.688533 
L 12.4698 34.271954 
L 12.287587 34.855375 
L 12.105373 35.438796 
L 11.92316 36.022217 
L 12.181461 36.718601 
L 12.439762 37.414984 
L 12.698064 38.111367 
L 12.956365 38.80775 
L 13.255361 39.129757 
L 13.554356 39.451764 
L 13.853352 39.773771 
L 14.152347 40.095778 
L 14.451343 40.417785 
L 14.750338 40.739792 
L 15.049334 41.061799 
L 15.34833 41.383806 
L 15.730149 41.715046 
L 16.111969 42.046286 
L 16.493789 42.377526 
L 16.875609 42.708766 
L 17.257429 43.040006 
L 17.639249 43.371247 
L 18.021069 43.702487 
L 18.402888 44.033727 
L 18.636342 44.370088 
L 18.869796 44.70645 
L 19.10325 45.042812 
L 19.336704 45.379173 
L 19.570158 45.715535 
L 19.803612 46.051897 
L 20.037066 46.388258 
L 20.27052 46.72462 
" style="fill:none;stroke:#008000;stroke-linecap:square;stroke-width:0.4;"/>
   </g>
   <g id="line2d_11">
    <path clip-path="url(#pec1fee8987)" d="M 23.808773 40.256782 
L 23.493047 40.773118 
L 23.177321 41.289454 
L 22.861594 41.805791 
L 22.545868 42.322127 
L 22.223848 42.818843 
L 21.901827 43.315559 
L 21.579806 43.812275 
L 21.257785 44.308991 
L 21.010969 44.912898 
L 20.764153 45.516805 
L 20.517337 46.120713 
L 20.27052 46.72462 
" style="fill:none;stroke:#008000;stroke-linecap:square;stroke-width:0.4;"/>
   </g>
   <g id="line2d_12">
    <path clip-path="url(#pec1fee8987)" d="M 24.206771 30.057587 
L 24.185347 30.821632 
L 24.163923 31.585677 
L 24.179273 32.189152 
L 24.194623 32.792626 
L 24.209973 33.396101 
L 24.225324 33.999575 
L 24.171764 34.676049 
L 24.118204 35.352524 
L 24.064644 36.028998 
L 24.011085 36.705472 
L 23.985796 37.149386 
L 23.960507 37.5933 
L 23.935218 38.037213 
L 23.909929 38.481127 
L 23.88464 38.925041 
L 23.859351 39.368954 
L 23.834062 39.812868 
L 23.808773 40.256782 
L 23.82716 40.739792 
L 23.845547 41.222802 
L 23.863934 41.705813 
L 23.882321 42.188823 
L 23.900708 42.671834 
L 23.919095 43.154844 
L 23.937482 43.637854 
L 23.955869 44.120865 
L 23.923678 44.585409 
L 23.891487 45.049953 
L 23.859296 45.514497 
L 23.827105 45.979041 
L 23.794913 46.443585 
L 23.762722 46.908129 
L 23.730531 47.372673 
L 23.69834 47.837217 
L 23.65229 48.495081 
L 23.60624 49.152944 
L 23.56019 49.810808 
L 23.514139 50.468672 
" style="fill:none;stroke:#4169e1;stroke-linecap:square;stroke-width:0.4;"/>
   </g>
   <g id="line2d_13">
    <path clip-path="url(#pec1fee8987)" d="M 12.371073 56.421183 
L 12.378031 57.024369 
L 12.384988 57.627555 
L 12.391945 58.230741 
L 12.398902 58.833927 
L 12.203768 59.575466 
L 12.008635 60.317006 
L 11.813501 61.058545 
L 11.618367 61.800084 
L 11.442669 62.354507 
L 11.266971 62.908931 
L 11.091273 63.463354 
L 10.915575 64.017777 
" style="fill:none;stroke:#008000;stroke-linecap:square;stroke-width:0.4;"/>
   </g>
   <g id="line2d_14">
    <path clip-path="url(#pec1fee8987)" d="M 5.056035 52.59461 
L 4.82998 53.153073 
L 4.603925 53.711535 
L 4.37787 54.269998 
L 4.151815 54.828461 
L 3.943539 55.498443 
L 3.735264 56.168425 
L 3.526988 56.838407 
L 3.318713 57.50839 
L 3.344775 57.905272 
L 3.370837 58.302154 
L 3.396899 58.699036 
L 3.422961 59.095918 
L 3.780762 59.596818 
L 4.138563 60.097718 
L 4.496364 60.598617 
L 4.854164 61.099517 
L 5.34868 61.476779 
L 5.843196 61.854041 
L 6.337713 62.231302 
L 6.832229 62.608564 
L 7.365727 62.680121 
L 7.899226 62.751678 
L 8.432725 62.823235 
L 8.966223 62.894792 
L 9.453561 63.175539 
L 9.940899 63.456285 
L 10.428237 63.737031 
L 10.915575 64.017777 
" style="fill:none;stroke:#4169e1;stroke-linecap:square;stroke-width:0.4;"/>
   </g>
   <g id="line2d_15">
    <path clip-path="url(#pec1fee8987)" d="M 26.255954 48.775539 
L 25.913227 48.98718 
L 25.5705 49.198822 
L 25.227773 49.410463 
L 24.885046 49.622105 
L 24.54232 49.833747 
L 24.199593 50.045388 
L 23.856866 50.25703 
L 23.514139 50.468672 
L 23.256501 50.790534 
L 22.998862 51.112397 
L 22.741223 51.43426 
L 22.483585 51.756122 
L 22.231191 52.163608 
L 21.978798 52.571094 
L 21.726405 52.97858 
L 21.474012 53.386066 
L 21.221619 53.793552 
L 20.969226 54.201038 
L 20.716833 54.608524 
L 20.464439 55.01601 
" style="fill:none;stroke:#008000;stroke-linecap:square;stroke-width:0.4;"/>
   </g>
   <g id="line2d_16">
    <path clip-path="url(#pec1fee8987)" d="M 35.982393 25.405222 
L 36.439473 25.306398 
L 36.896552 25.207574 
L 37.353632 25.10875 
L 37.810711 25.009926 
L 38.279938 24.986844 
L 38.749165 24.963761 
L 39.218392 24.940678 
L 39.687619 24.917595 
L 40.07866 24.965925 
L 40.469701 25.014255 
L 40.860742 25.062584 
L 41.251783 25.110914 
L 41.642824 25.159244 
L 42.033865 25.207574 
L 42.424906 25.255904 
L 42.815947 25.304234 
L 43.423214 25.73199 
L 44.030482 26.159745 
L 44.637749 26.587501 
L 45.245017 27.015256 
L 45.741852 27.309708 
L 46.238687 27.60416 
L 46.735522 27.898611 
L 47.232357 28.193063 
L 47.775243 28.551858 
L 48.318128 28.910654 
L 48.861014 29.269449 
L 49.403899 29.628245 
L 49.684508 30.028445 
L 49.965116 30.428645 
L 50.245725 30.828846 
L 50.526334 31.229046 
L 50.806942 31.629246 
L 51.087551 32.029447 
L 51.368159 32.429647 
L 51.648768 32.829848 
L 51.892603 33.170249 
L 52.136437 33.51065 
L 52.380272 33.851051 
L 52.624106 34.191452 
L 52.867941 34.531853 
L 53.111776 34.872254 
L 53.35561 35.212656 
L 53.599445 35.553057 
L 53.964866 35.838419 
L 54.330286 36.123782 
L 54.695707 36.409145 
L 55.061128 36.694508 
" style="fill:none;stroke:#4169e1;stroke-linecap:square;stroke-width:0.4;"/>
   </g>
   <g id="line2d_17">
    <path clip-path="url(#pec1fee8987)" d="M 53.599445 35.553057 
L 53.7514 35.973887 
L 53.903355 36.394718 
L 54.05531 36.815549 
L 54.207265 37.23638 
L 54.139459 37.843749 
L 54.071654 38.451119 
" style="fill:none;stroke:#008000;stroke-linecap:square;stroke-width:0.4;"/>
   </g>
   <g id="line2d_18">
    <path clip-path="url(#pec1fee8987)" d="M 22.294524 30.762771 
L 22.055328 31.275789 
L 21.816131 31.788807 
L 21.576935 32.301825 
L 21.337738 32.814844 
L 21.273356 33.353037 
L 21.208974 33.89123 
L 21.144592 34.429423 
L 21.08021 34.967616 
L 21.015828 35.505809 
L 20.951446 36.044002 
L 20.887064 36.582195 
L 20.822682 37.120388 
L 20.795074 37.727541 
L 20.767466 38.334695 
L 20.739858 38.941848 
L 20.71225 39.549001 
L 20.684642 40.156154 
L 20.657033 40.763308 
L 20.629425 41.370461 
L 20.601817 41.977614 
L 20.560405 42.57099 
L 20.518993 43.164366 
L 20.477581 43.757741 
L 20.436169 44.351117 
L 20.394757 44.944493 
L 20.353345 45.537868 
L 20.311932 46.131244 
L 20.27052 46.72462 
" style="fill:none;stroke:#4169e1;stroke-linecap:square;stroke-width:0.4;"/>
   </g>
   <g id="line2d_19">
    <path clip-path="url(#pec1fee8987)" d="M 20.27052 46.72462 
L 20.287251 47.312946 
L 20.303981 47.901272 
L 20.320712 48.489599 
L 20.337442 49.077925 
L 20.354173 49.666251 
L 20.370903 50.254578 
L 20.387634 50.842904 
L 20.404364 51.43123 
L 20.411874 51.879328 
L 20.419383 52.327425 
L 20.426892 52.775522 
L 20.434402 53.22362 
L 20.441911 53.671717 
L 20.449421 54.119815 
L 20.45693 54.567912 
L 20.464439 55.01601 
L 20.449365 55.55276 
L 20.434291 56.08951 
L 20.419217 56.626261 
L 20.404143 57.163011 
L 20.389069 57.699762 
L 20.373995 58.236512 
L 20.358921 58.773262 
L 20.343847 59.310013 
L 20.30354 59.762871 
L 20.263232 60.215729 
L 20.222924 60.668588 
L 20.182616 61.121446 
L 20.138388 61.617152 
L 20.09416 62.112858 
L 20.049932 62.608564 
L 20.005704 63.10427 
L 19.961475 63.599976 
L 19.917247 64.095682 
L 19.873019 64.591388 
L 19.828791 65.087094 
L 19.870203 65.547021 
L 19.911615 66.006949 
L 19.953027 66.466876 
L 19.994439 66.926804 
L 20.325736 67.347202 
L 20.657033 67.7676 
L 21.20787 67.601691 
L 21.758707 67.435783 
" style="fill:none;stroke:#008000;stroke-linecap:square;stroke-width:0.4;"/>
   </g>
   <g id="line2d_20">
    <path clip-path="url(#pec1fee8987)" d="M 26.255954 48.775539 
L 26.412436 49.359681 
L 26.568919 49.943824 
L 26.725402 50.527966 
L 26.881884 51.112109 
L 26.973874 51.549097 
L 27.065864 51.986086 
L 27.157855 52.423075 
L 27.249845 52.860064 
L 27.162382 53.315519 
L 27.07492 53.770974 
L 26.987457 54.226429 
L 26.899995 54.681884 
L 26.679241 55.091174 
L 26.458487 55.500463 
L 26.237732 55.909752 
L 26.016978 56.319041 
L 25.400545 56.746941 
L 24.784111 57.174841 
L 24.167678 57.602741 
L 23.551245 58.030641 
L 23.068213 58.361737 
L 22.585182 58.692833 
L 22.102151 59.023929 
L 21.61912 59.355024 
L 21.259994 59.79663 
L 20.900868 60.238235 
L 20.541742 60.679841 
L 20.182616 61.121446 
" style="fill:none;stroke:#4169e1;stroke-linecap:square;stroke-width:0.4;"/>
   </g>
   <g id="line2d_21">
    <path clip-path="url(#pec1fee8987)" d="M 64.282229 24.807951 
L 64.106089 25.373915 
L 63.929949 25.93988 
L 63.75381 26.505845 
L 63.57767 27.07181 
L 63.554866 27.517382 
L 63.532062 27.962955 
L 63.509257 28.408528 
L 63.486453 28.854101 
L 63.463649 29.299673 
L 63.440845 29.745246 
L 63.41804 30.190819 
L 63.395236 30.636392 
L 63.284693 31.176388 
L 63.17415 31.716384 
L 63.063608 32.256381 
L 62.953065 32.796377 
L 62.754618 33.157409 
L 62.556171 33.51844 
L 62.357724 33.879472 
L 62.159277 34.240503 
L 61.96083 34.601535 
L 61.762383 34.962566 
L 61.563936 35.323598 
L 61.365489 35.684629 
" style="fill:none;stroke:#000000;stroke-linecap:square;stroke-width:0.4;"/>
   </g>
   <g id="line2d_22">
    <path clip-path="url(#pec1fee8987)" d="M 34.954489 26.162919 
L 35.22306 26.611594 
L 35.491632 27.060268 
L 35.760203 27.508943 
L 36.028775 27.957617 
L 36.529696 28.530074 
L 37.030617 29.102531 
L 37.531538 29.674987 
L 38.032459 30.247444 
L 38.52046 30.644326 
L 39.00846 31.041209 
L 39.496461 31.438091 
L 39.984462 31.834973 
L 40.563458 32.257824 
L 41.142455 32.680674 
L 41.721452 33.103525 
L 42.300449 33.526375 
L 42.677796 33.770333 
L 43.055143 34.014291 
L 43.432491 34.258248 
L 43.809838 34.502206 
L 44.187185 34.746164 
L 44.564533 34.990122 
L 44.94188 35.234079 
L 45.319227 35.478037 
L 45.691716 35.718749 
L 46.064204 35.959461 
L 46.436692 36.200172 
L 46.809181 36.440884 
L 47.181669 36.681596 
L 47.554157 36.922307 
L 47.926646 37.163019 
L 48.299134 37.403731 
L 48.930144 37.780993 
L 49.561155 38.158254 
L 50.192165 38.535516 
L 50.823176 38.912778 
L 51.288317 38.994145 
L 51.753458 39.075512 
L 52.218599 39.15688 
L 52.68374 39.238247 
L 53.030718 39.041465 
L 53.377697 38.844683 
L 53.724675 38.647901 
L 54.071654 38.451119 
" style="fill:none;stroke:#4169e1;stroke-linecap:square;stroke-width:0.4;"/>
   </g>
   <g id="line2d_23">
    <path clip-path="url(#pec1fee8987)" d="M 51.170375 23.235426 
L 51.378871 23.717571 
L 51.587368 24.199715 
L 51.795864 24.68186 
L 52.00436 25.164005 
L 52.10767 25.577767 
L 52.210979 25.991528 
L 52.314289 26.40529 
L 52.417598 26.819051 
L 52.520907 27.232813 
L 52.624217 27.646575 
L 52.727526 28.060336 
L 52.830836 28.474098 
L 52.918519 28.856409 
L 53.006202 29.23872 
L 53.093886 29.621031 
L 53.181569 30.003342 
L 53.269252 30.385653 
L 53.356936 30.767964 
L 53.444619 31.150276 
L 53.532302 31.532587 
L 53.743228 32.069842 
L 53.954154 32.607097 
L 54.45132 33.028505 
L 54.948487 33.449913 
L 55.445653 33.871321 
L 55.942819 34.292728 
L 56.236349 34.603482 
L 56.529878 34.914236 
" style="fill:none;stroke:#008000;stroke-linecap:square;stroke-width:0.4;"/>
   </g>
   <g id="line2d_24">
    <path clip-path="url(#pec1fee8987)" d="M 39.687619 24.917595 
L 40.301402 24.466612 
L 40.915185 24.015629 
L 41.528968 23.564646 
L 42.142751 23.113663 
L 42.623463 22.603098 
L 43.104175 22.092532 
L 43.584887 21.581966 
L 44.065599 21.071401 
L 44.470444 20.592863 
L 44.875289 20.114325 
L 45.280134 19.635787 
L 45.684979 19.157248 
L 46.072376 18.905356 
L 46.459773 18.653463 
L 47.232578 18.58912 
L 48.005384 18.524776 
L 48.538993 18.819083 
L 49.072602 19.113391 
L 49.238251 19.541291 
L 49.403899 19.969191 
L 49.569548 20.397091 
L 49.735196 20.82499 
L 50.093991 21.427599 
L 50.452786 22.030208 
L 50.81158 22.632817 
L 51.170375 23.235426 
L 51.578202 23.552383 
L 51.986028 23.869341 
L 52.393855 24.186299 
L 52.801682 24.503256 
L 53.209508 24.820214 
L 53.617335 25.137171 
L 54.025162 25.454129 
L 54.432988 25.771086 
" style="fill:none;stroke:#4169e1;stroke-linecap:square;stroke-width:0.4;"/>
   </g>
   <g id="line2d_25">
    <path clip-path="url(#pec1fee8987)" d="M 44.28293 18.445717 
L 44.827141 18.497654 
L 45.371351 18.54959 
L 45.915562 18.601527 
L 46.459773 18.653463 
" style="fill:none;stroke:#008000;stroke-linecap:square;stroke-width:0.4;"/>
   </g>
   <g id="line2d_26">
    <path clip-path="url(#pec1fee8987)" d="M 52.335215 15.043293 
L 52.344492 15.737945 
L 52.353768 16.432597 
L 52.363044 17.127249 
L 52.372321 17.821901 
L 52.413733 18.396954 
L 52.455145 18.972008 
L 52.496557 19.547062 
L 52.537969 20.122115 
L 52.715047 20.598201 
L 52.892126 21.074286 
L 53.069204 21.550372 
L 53.246282 22.026457 
L 53.423361 22.502543 
L 53.600439 22.978628 
L 53.777517 23.454714 
L 53.954595 23.930799 
L 54.074194 24.390871 
L 54.193792 24.850943 
L 54.31339 25.311014 
L 54.432988 25.771086 
L 54.607803 26.433422 
L 54.782617 27.095758 
L 54.957432 27.758094 
L 55.132246 28.42043 
L 55.256482 29.029964 
L 55.380719 29.639497 
L 55.504955 30.249031 
L 55.629192 30.858565 
L 55.753428 31.468099 
L 55.877664 32.077632 
L 56.001901 32.687166 
L 56.126137 33.2967 
L 56.227072 33.701084 
L 56.328007 34.105468 
L 56.428943 34.509852 
L 56.529878 34.914236 
L 56.633905 35.331028 
L 56.737932 35.747819 
L 56.84196 36.16461 
L 56.945987 36.581401 
" style="fill:none;stroke:#008000;stroke-linecap:square;stroke-width:0.4;"/>
   </g>
   <g id="line2d_27">
    <path clip-path="url(#pec1fee8987)" d="M 35.982393 25.405222 
L 36.457197 25.015048 
L 36.932001 24.624874 
L 37.406805 24.234701 
L 37.881609 23.844527 
L 38.356413 23.454353 
L 38.831216 23.064179 
L 39.30602 22.674006 
L 39.780824 22.283832 
L 40.343588 21.804068 
L 40.906351 21.324303 
L 41.469114 20.844539 
L 42.031877 20.364774 
L 42.594641 19.88501 
L 43.157404 19.405246 
L 43.720167 18.925481 
L 44.28293 18.445717 
L 44.715549 18.102503 
L 45.148168 17.759288 
L 45.580786 17.416074 
L 46.013405 17.07286 
L 46.446024 16.729645 
L 46.878643 16.386431 
L 47.311261 16.043216 
L 47.74388 15.700002 
L 48.387922 15.400789 
L 49.031963 15.101577 
L 49.676004 14.802364 
L 50.320046 14.503152 
L 50.865803 14.445156 
L 51.411559 14.38716 
L 51.873387 14.715226 
L 52.335215 15.043293 
" style="fill:none;stroke:#008000;stroke-linecap:square;stroke-width:0.4;"/>
   </g>
   <g id="line2d_28">
    <path clip-path="url(#pec1fee8987)" d="M 6.811467 57.519931 
L 7.194391 57.423993 
L 7.577316 57.328054 
L 7.96024 57.232116 
L 8.343164 57.136177 
L 8.726088 57.040239 
L 9.109012 56.9443 
L 9.491936 56.848362 
L 9.874861 56.752424 
L 10.498914 56.669613 
L 11.122967 56.586803 
L 11.74702 56.503993 
L 12.371073 56.421183 
" style="fill:none;stroke:#008000;stroke-linecap:square;stroke-width:0.4;"/>
   </g>
   <g id="line2d_29">
    <path clip-path="url(#pec1fee8987)" d="M 5.056035 52.59461 
L 5.115889 53.356347 
L 5.175743 54.118084 
L 5.305391 54.575703 
L 5.435038 55.033322 
L 5.564686 55.490941 
L 5.694334 55.94856 
L 5.973617 56.341403 
L 6.2529 56.734246 
L 6.532184 57.127088 
L 6.811467 57.519931 
L 7.031393 57.882766 
L 7.251319 58.245601 
L 7.471245 58.608436 
L 7.691171 58.971271 
L 7.911097 59.334105 
L 8.131023 59.69694 
L 8.350949 60.059775 
L 8.570875 60.42261 
L 8.863963 60.872006 
L 9.15705 61.321402 
L 9.450138 61.770798 
L 9.743225 62.220194 
L 10.036313 62.669589 
L 10.3294 63.118985 
L 10.622488 63.568381 
L 10.915575 64.017777 
L 11.273431 64.430889 
L 11.631287 64.844002 
L 11.989143 65.257114 
L 12.346999 65.670227 
L 12.704855 66.083339 
L 13.062711 66.496451 
L 13.420567 66.909564 
L 13.778423 67.322676 
L 14.324843 67.673825 
L 14.871262 68.024974 
L 15.417681 68.376124 
L 15.9641 68.727273 
L 16.718795 68.597287 
L 17.47349 68.467301 
L 18.228184 68.337315 
L 18.982879 68.20733 
L 19.401418 68.097397 
L 19.819956 67.987465 
L 20.238495 67.877532 
L 20.657033 67.7676 
" style="fill:none;stroke:#4169e1;stroke-linecap:square;stroke-width:0.4;"/>
   </g>
   <g id="line2d_30">
    <path clip-path="url(#pec1fee8987)" d="M 57.065254 3.272727 
L 57.385618 3.653596 
L 57.705982 4.034464 
L 58.026347 4.415333 
L 58.346711 4.796201 
L 58.607 5.485804 
L 58.867289 6.175406 
L 59.127578 6.865009 
L 59.387867 7.554612 
L 59.456556 8.240608 
L 59.525245 8.926603 
L 59.593934 9.612599 
L 59.662623 10.298595 
L 59.810436 10.720003 
L 59.95825 11.141411 
L 60.106064 11.562819 
L 60.253877 11.984227 
L 60.401691 12.405634 
L 60.549505 12.827042 
L 60.697319 13.24845 
L 60.845132 13.669858 
L 60.981737 14.193624 
L 61.118342 14.71739 
L 61.254947 15.241157 
L 61.391552 15.764923 
L 61.528156 16.288689 
L 61.664761 16.812455 
L 61.801366 17.336221 
L 61.937971 17.859988 
L 62.237242 18.217773 
L 62.536514 18.575559 
L 62.835786 18.933344 
L 63.135057 19.29113 
L 63.798645 19.674883 
L 64.462233 20.058637 
L 65.125821 20.442391 
L 65.789409 20.826145 
L 66.082166 21.105881 
L 66.374922 21.385617 
L 66.667678 21.665354 
L 66.960434 21.94509 
L 67.25319 22.224826 
L 67.545946 22.504562 
L 67.838702 22.784299 
L 68.131459 23.064035 
L 68.307157 23.604031 
L 68.482854 24.144028 
L 68.658552 24.684024 
L 68.83425 25.224021 
L 68.970855 25.874527 
L 69.10746 26.525033 
L 69.244065 27.175539 
L 69.380669 27.826044 
L 69.458745 28.307468 
L 69.536821 28.788891 
L 69.614896 29.270315 
L 69.692972 29.751738 
L 69.647474 30.181081 
L 69.601976 30.610423 
L 69.556478 31.039766 
L 69.51098 31.469109 
L 69.185646 31.800926 
L 68.860312 32.132743 
L 68.534978 32.46456 
L 68.209645 32.796377 
L 67.663115 33.076114 
L 67.116585 33.35585 
L 66.570056 33.635586 
L 66.023526 33.915322 
L 65.441271 34.136486 
L 64.859017 34.357649 
L 64.276762 34.578813 
L 63.694508 34.799976 
L 63.112253 35.021139 
L 62.529999 35.242303 
L 61.947744 35.463466 
L 61.365489 35.684629 
L 60.721669 35.857896 
L 60.077848 36.031162 
L 59.434028 36.204428 
L 58.790207 36.377695 
L 58.329152 36.428621 
L 57.868097 36.479548 
L 57.407042 36.530475 
L 56.945987 36.581401 
L 56.21382 36.637955 
L 55.481654 36.694508 
" style="fill:none;stroke:#008000;stroke-linecap:square;stroke-width:0.4;"/>
   </g>
   <g id="line2d_31">
    <path clip-path="url(#pec1fee8987)" d="M 61.937971 17.859988 
L 62.111902 18.590274 
L 62.285833 19.32056 
L 62.459764 20.050847 
L 62.633695 20.781133 
L 62.753514 21.25794 
L 62.873333 21.734747 
L 62.993152 22.211553 
L 63.112971 22.68836 
L 63.405285 23.218258 
L 63.6976 23.748156 
L 63.989914 24.278053 
L 64.282229 24.807951 
L 64.847753 25.204689 
L 65.413277 25.601427 
L 65.978801 25.998165 
L 66.544325 26.394903 
L 66.82405 26.772308 
L 67.103775 27.149714 
L 67.3835 27.52712 
L 67.663225 27.904526 
L 67.702208 28.41841 
L 67.741191 28.932294 
L 67.780173 29.446178 
L 67.819156 29.960062 
L 67.585039 30.61706 
L 67.350923 31.274058 
L 67.116806 31.931056 
L 66.88269 32.588054 
L 66.667899 32.919871 
L 66.453108 33.251688 
L 66.238317 33.583505 
L 66.023526 33.915322 
" style="fill:none;stroke:#4169e1;stroke-linecap:square;stroke-width:0.4;"/>
   </g>
   <g id="line2d_32">
    <path clip-path="url(#pec1fee8987)" d="M 35.45276 25.7959 
L 36.029216 26.080109 
L 36.605673 26.364318 
L 36.946026 26.566726 
L 37.286378 26.769135 
L 37.626731 26.971543 
L 37.967083 27.173952 
L 38.499588 27.541475 
L 39.032093 27.908999 
L 39.564598 28.276522 
L 40.097103 28.644046 
L 40.629607 29.01157 
L 41.162112 29.379093 
L 41.694617 29.746617 
L 42.227122 30.11414 
L 42.760786 30.495946 
L 43.29445 30.877753 
L 43.828115 31.259559 
L 44.361779 31.641365 
L 44.895443 32.023171 
L 45.429108 32.404977 
L 45.962772 32.786783 
L 46.496436 33.16859 
L 46.975989 33.453808 
L 47.455541 33.739027 
L 47.935094 34.024245 
L 48.414646 34.309464 
L 48.894199 34.594682 
L 49.373751 34.879901 
L 49.853304 35.165119 
L 50.332856 35.450338 
L 50.664098 35.679147 
L 50.99534 35.907957 
L 51.326582 36.136766 
L 51.657823 36.365576 
L 51.989065 36.594386 
L 52.320307 36.823195 
L 52.651549 37.052005 
L 52.982791 37.280814 
L 53.42452 37.561561 
L 53.86625 37.842307 
L 54.071654 38.451119 
" style="fill:none;stroke:#4169e1;stroke-linecap:square;stroke-width:0.4;"/>
   </g>
   <g id="line2d_33">
    <path clip-path="url(#pec1fee8987)" d="M 57.065254 3.272727 
L 57.180656 3.768866 
L 57.296057 4.265005 
L 57.411459 4.761144 
L 57.526861 5.257283 
L 57.524597 5.721899 
L 57.522333 6.186515 
L 57.520069 6.651131 
L 57.517806 7.115747 
L 57.515542 7.580363 
L 57.513278 8.04498 
L 57.511014 8.509596 
L 57.50875 8.974212 
L 57.453534 9.411273 
L 57.398318 9.848334 
L 57.343102 10.285395 
L 57.287885 10.722456 
L 57.232669 11.159517 
L 57.177453 11.596578 
L 57.122237 12.033639 
L 57.067021 12.4707 
L 56.998001 13.060685 
L 56.92898 13.65067 
L 56.85996 14.240656 
L 56.79094 14.830641 
L 56.72192 15.420626 
L 56.652899 16.010612 
L 56.583879 16.600597 
L 56.514859 17.190582 
L 56.445839 17.780568 
L 56.376819 18.370553 
L 56.307798 18.960539 
L 56.238778 19.550524 
L 56.169758 20.140509 
L 56.100738 20.730495 
L 56.031717 21.32048 
L 55.962697 21.910465 
L 55.910794 22.317338 
L 55.858891 22.724211 
L 55.806988 23.131084 
L 55.755084 23.537957 
L 55.703181 23.944829 
L 55.651278 24.351702 
L 55.599375 24.758575 
L 55.547472 25.165448 
L 55.495568 25.572321 
L 55.443665 25.979193 
L 55.391762 26.386066 
L 55.339859 26.792939 
L 55.287956 27.199812 
L 55.236052 27.606684 
L 55.184149 28.013557 
L 55.132246 28.42043 
" style="fill:none;stroke:#008000;stroke-linecap:square;stroke-width:0.4;"/>
   </g>
   <g id="line2d_34">
    <path clip-path="url(#pec1fee8987)" d="M 23.808773 40.256782 
L 24.160168 40.515455 
L 24.511564 40.774128 
L 24.86296 41.032801 
L 25.214356 41.291474 
L 25.799647 41.795259 
L 26.384939 42.299044 
" style="fill:none;stroke:#008000;stroke-linecap:square;stroke-width:0.4;"/>
   </g>
   <g id="line2d_35">
    <path clip-path="url(#pec1fee8987)" d="M 63.112971 22.68836 
L 62.907567 23.16798 
L 62.702163 23.647601 
L 62.496758 24.127221 
L 62.291354 24.606841 
L 62.08595 25.086461 
L 61.880546 25.566081 
L 61.675142 26.045701 
L 61.469738 26.525321 
L 61.251799 27.140048 
L 61.033861 27.754776 
L 60.815923 28.369503 
L 60.597985 28.984231 
L 60.380046 29.598958 
L 60.162108 30.213685 
L 59.94417 30.828413 
L 59.726232 31.44314 
L 59.477096 31.852213 
L 59.227961 32.261286 
L 58.978826 32.670359 
L 58.72969 33.079432 
L 58.480555 33.488505 
L 58.231419 33.897577 
L 57.982284 34.30665 
L 57.733149 34.715723 
L 57.536358 35.182143 
L 57.339568 35.648562 
L 57.142777 36.114982 
L 56.945987 36.581401 
" style="fill:none;stroke:#000000;stroke-linecap:square;stroke-width:0.4;"/>
   </g>
   <g id="line2d_36">
    <path clip-path="url(#pec1fee8987)" d="M 56.619991 3.297541 
L 56.100848 3.418583 
L 55.581706 3.539624 
L 55.062563 3.660665 
L 54.543421 3.781706 
L 54.207596 4.039369 
L 53.871771 4.297032 
L 53.535946 4.554696 
L 53.200122 4.812359 
L 53.075996 5.396646 
L 52.95187 5.980933 
L 52.827744 6.565219 
L 52.703618 7.149506 
L 52.673691 7.59342 
L 52.643763 8.037333 
L 52.613836 8.481247 
L 52.583909 8.925161 
L 52.553982 9.369074 
L 52.524055 9.812988 
L 52.494128 10.256902 
L 52.4642 10.700816 
L 52.448077 11.243625 
L 52.431954 11.786435 
L 52.415831 12.329244 
L 52.399708 12.872054 
L 52.383585 13.414864 
L 52.367462 13.957673 
L 52.351339 14.500483 
L 52.335215 15.043293 
" style="fill:none;stroke:#008000;stroke-linecap:square;stroke-width:0.4;"/>
   </g>
   <g id="line2d_37">
    <path clip-path="url(#pec1fee8987)" d="M 24.011085 36.705472 
L 24.486717 37.042339 
L 24.962349 37.379205 
L 25.437981 37.716072 
L 25.913613 38.052938 
L 26.026806 38.562494 
L 26.14 39.07205 
L 26.253193 39.581606 
L 26.366386 40.091162 
L 26.371024 40.643132 
L 26.375662 41.195103 
L 26.3803 41.747074 
L 26.384939 42.299044 
L 26.384939 42.694628 
L 26.384939 43.090212 
L 26.384939 43.485796 
L 26.384939 43.881379 
L 26.384939 44.276963 
L 26.384939 44.672547 
L 26.384939 45.068131 
L 26.384939 45.463715 
L 26.375773 46.024918 
L 26.366607 46.586122 
L 26.357441 47.147326 
L 26.348275 47.70853 
L 26.302114 48.242034 
L 26.255954 48.775539 
" style="fill:none;stroke:#008000;stroke-linecap:square;stroke-width:0.4;"/>
   </g>
   <g id="line2d_38">
    <path clip-path="url(#pec1fee8987)" d="M 11.92316 36.022217 
L 11.708369 36.507897 
L 11.493578 36.993576 
L 11.278787 37.479255 
L 11.063996 37.964935 
L 10.849205 38.450614 
L 10.634414 38.936294 
L 10.419623 39.421973 
L 10.204833 39.907652 
L 9.977121 40.475781 
L 9.74941 41.04391 
L 9.521698 41.612038 
L 9.293987 42.180167 
L 9.066275 42.748296 
L 8.838563 43.316425 
L 8.610852 43.884553 
L 8.38314 44.452682 
L 8.1186 44.956323 
L 7.854059 45.459964 
L 7.589518 45.963604 
L 7.324978 46.467245 
L 7.060437 46.970886 
L 6.795896 47.474527 
L 6.531356 47.978167 
L 6.266815 48.481808 
L 6.115467 48.995908 
L 5.96412 49.510009 
L 5.812772 50.024109 
L 5.661425 50.538209 
L 5.510077 51.052309 
L 5.35873 51.56641 
L 5.207382 52.08051 
L 5.056035 52.59461 
L 5.540998 52.318336 
L 6.025962 52.042062 
L 6.510926 51.765788 
L 6.995889 51.489514 
L 7.480853 51.213241 
L 7.965817 50.936967 
L 8.45078 50.660693 
L 8.935744 50.384419 
L 9.413916 50.000593 
L 9.892088 49.616767 
L 10.37026 49.232941 
L 10.848432 48.849115 
L 11.326604 48.465289 
L 11.804776 48.081464 
L 12.282948 47.697638 
L 12.761121 47.313812 
L 13.359664 46.819548 
L 13.958207 46.325285 
L 14.335665 46.598529 
L 14.713123 46.871773 
L 14.739185 47.379021 
L 14.765247 47.886268 
L 14.589549 48.504314 
L 14.413851 49.12236 
L 14.238153 49.740405 
L 14.062455 50.358451 
L 13.886757 50.976496 
L 13.71106 51.594542 
L 13.535362 52.212587 
L 13.359664 52.830633 
L 13.151499 53.422566 
L 12.943334 54.014499 
L 12.735169 54.606432 
L 12.527004 55.198365 
L 12.449039 55.809774 
L 12.371073 56.421183 
L 12.829754 56.248783 
L 13.288435 56.076382 
L 13.747116 55.903981 
L 14.205797 55.731581 
L 14.664477 55.55918 
L 15.123158 55.386779 
L 15.581839 55.214379 
L 16.04052 55.041978 
L 16.638952 54.794846 
L 17.237385 54.547715 
L 17.835818 54.300583 
L 18.434251 54.053451 
L 18.941798 54.294091 
L 19.449345 54.534731 
L 19.956892 54.77537 
L 20.464439 55.01601 
" style="fill:none;stroke:#008000;stroke-linecap:square;stroke-width:0.4;"/>
   </g>
   <g id="line2d_39">
    <path clip-path="url(#pec1fee8987)" d="M 13.958207 46.325285 
L 14.300879 46.140405 
L 14.64355 45.955525 
L 14.986222 45.770645 
L 15.328894 45.585766 
L 15.671565 45.400886 
L 16.014237 45.216006 
L 16.356908 45.031126 
L 16.69958 44.846246 
L 17.102879 44.878706 
L 17.506178 44.911167 
L 17.909477 44.943627 
L 18.312776 44.976088 
L 18.802212 45.413221 
L 19.291648 45.850354 
L 19.781084 46.287487 
L 20.27052 46.72462 
" style="fill:none;stroke:#008000;stroke-linecap:square;stroke-width:0.4;"/>
   </g>
  </g>
 </g>
 <defs>
  <clipPath id="pec1fee8987">
   <rect height="72" width="73.011685" x="0" y="0"/>
  </clipPath>
 </defs>
</svg>
