<?xml version="1.0" encoding="utf-8" standalone="no"?>
<!DOCTYPE svg PUBLIC "-//W3C//DTD SVG 1.1//EN"
  "http://www.w3.org/Graphics/SVG/1.1/DTD/svg11.dtd">
<svg height="72pt" version="1.1" viewBox="0 0 206.400737 72" width="206.400737pt" xmlns="http://www.w3.org/2000/svg" xmlns:xlink="http://www.w3.org/1999/xlink">
 <metadata>
  <rdf:RDF xmlns:cc="http://creativecommons.org/ns#" xmlns:dc="http://purl.org/dc/elements/1.1/" xmlns:rdf="http://www.w3.org/1999/02/22-rdf-syntax-ns#">
   <cc:Work>
    <dc:type rdf:resource="http://purl.org/dc/dcmitype/StillImage"/>
    <dc:date>2022-04-19T00:43:34.273335</dc:date>
    <dc:format>image/svg+xml</dc:format>
    <dc:creator>
     <cc:Agent>
      <dc:title>Matplotlib v3.4.3, https://matplotlib.org/</dc:title>
     </cc:Agent>
    </dc:creator>
   </cc:Work>
  </rdf:RDF>
 </metadata>
 <defs>
  <style type="text/css">*{stroke-linecap:butt;stroke-linejoin:round;}</style>
 </defs>
 <g id="figure_1">
  <g id="patch_1">
   <path d="M 0 72 
L 206.400737 72 
L 206.400737 0 
L 0 0 
z
" style="fill:#ffffff;"/>
  </g>
  <g id="axes_1">
   <g id="line2d_1">
    <path clip-path="url(#pde8fcc4c15)" d="M 146.366206 61.665113 
L 147.26297 60.369467 
L 148.159734 59.073821 
L 149.50955 57.123396 
L 150.859365 55.172972 
L 152.440735 52.888041 
L 154.022104 50.603111 
L 155.603474 48.31818 
L 157.184844 46.033249 
L 158.090228 44.722722 
L 158.995613 43.412195 
L 160.016654 41.934414 
L 161.037696 40.456634 
L 161.902313 39.205147 
L 162.76693 37.953659 
L 163.631547 36.702172 
L 164.496164 35.450685 
L 165.360781 34.199198 
L 166.225398 32.94771 
L 167.090015 31.696223 
L 167.954632 30.444736 
L 168.957715 28.992998 
L 169.960798 27.54126 
L 170.96388 26.089522 
L 171.966963 24.637783 
" style="fill:none;stroke:#808080;stroke-linecap:square;stroke-width:0.955559;"/>
   </g>
   <g id="line2d_2">
    <path clip-path="url(#pde8fcc4c15)" d="M 130.25271 65.601547 
L 130.438528 64.30299 
L 130.850393 61.423129 
L 131.159291 59.263396 
L 131.497404 56.900176 
L 131.835516 54.536957 
L 132.143218 52.385473 
L 132.450919 50.233989 
L 132.75862 48.082505 
L 133.066322 45.931021 
L 133.307095 44.261724 
L 133.547869 42.592428 
L 133.788642 40.923131 
L 134.029415 39.253834 
L 134.094547 38.803513 
" style="fill:none;stroke:#808080;stroke-linecap:square;stroke-width:0.955559;"/>
   </g>
   <g id="line2d_3">
    <path clip-path="url(#pde8fcc4c15)" d="M 60.235196 58.336872 
L 59.3698 56.342774 
L 58.661249 54.709063 
L 57.952698 53.075352 
L 57.144054 51.211304 
L 56.33541 49.347256 
L 55.71857 47.925119 
L 55.101731 46.502982 
L 54.735841 45.659922 
L 54.457114 45.017437 
L 53.729885 43.341023 
L 53.002656 41.664609 
L 52.141811 39.680217 
L 51.280965 37.695824 
L 50.384201 35.628614 
L 49.487437 33.561403 
L 48.517399 31.324675 
L 47.547362 29.087947 
L 46.434848 26.52383 
L 45.976049 25.466609 
L 45.793583 25.045402 
" style="fill:none;stroke:#808080;stroke-linecap:square;stroke-width:0.955559;"/>
   </g>
   <g id="line2d_4">
    <path clip-path="url(#pde8fcc4c15)" d="M 38.547634 66.688531 
L 38.248793 64.246699 
L 37.970066 61.969856 
L 37.691339 59.693013 
L 37.438712 57.629038 
L 37.186086 55.565063 
L 36.933459 53.502058 
L 36.680833 51.439053 
L 36.35158 48.749415 
L 36.022328 46.059777 
L 35.761081 43.986096 
L 35.499834 41.912416 
L 35.28576 40.173565 
L 35.071686 38.434714 
L 34.751054 35.828218 
L 34.430422 33.221721 
L 34.271902 31.932869 
" style="fill:none;stroke:#808080;stroke-linecap:square;stroke-width:0.955559;"/>
   </g>
   <g id="line2d_5">
    <path clip-path="url(#pde8fcc4c15)" d="M 94.427167 29.73302 
L 95.498974 29.715551 
L 97.848998 29.677377 
L 99.947354 29.643732 
L 102.04571 29.610088 
L 104.259484 29.574178 
L 106.473258 29.538269 
L 109.244486 29.493302 
L 112.015715 29.448334 
L 114.88488 29.402073 
L 117.754046 29.355811 
L 119.222872 29.332033 
L 120.691697 29.308256 
L 122.160522 29.284478 
L 123.629347 29.2607 
L 125.462386 29.231099 
L 127.295424 29.201498 
L 129.128462 29.171897 
L 130.961501 29.142296 
L 132.642364 29.115122 
L 134.323228 29.087947 
L 136.004092 29.060773 
L 137.684956 29.033598 
L 138.913367 29.013541 
" style="fill:none;stroke:#808080;stroke-linecap:square;stroke-width:0.955559;"/>
   </g>
   <g id="line2d_6">
    <path clip-path="url(#pde8fcc4c15)" d="M 109.513875 68.727273 
L 109.776319 68.118432 
L 110.505224 66.427784 
L 111.469994 64.189762 
L 112.434763 61.95174 
L 113.051603 60.520868 
L 113.668442 59.089996 
L 114.362626 57.479901 
L 115.05681 55.869806 
L 115.733993 54.298856 
L 116.411175 52.727905 
L 117.064412 51.212598 
L 117.717649 49.697291 
L 118.446554 48.006319 
L 119.175459 46.315348 
L 119.902928 44.627934 
" style="fill:none;stroke:#808080;stroke-linecap:square;stroke-width:0.955559;"/>
   </g>
   <g id="line2d_7">
    <path clip-path="url(#pde8fcc4c15)" d="M 10.362665 43.253029 
L 10.892821 42.963814 
L 12.570931 42.048936 
L 14.559856 40.963893 
L 16.636421 39.831618 
L 18.928976 38.58094 
L 19.343715 38.355132 
L 20.246465 37.862754 
L 21.257929 37.311498 
L 23.473139 36.103199 
L 25.68835 34.8949 
L 25.919665 34.768732 
L 26.225211 34.602449 
L 28.336976 33.450764 
L 30.448742 32.299079 
L 32.574157 31.139629 
L 34.85857 29.894127 
L 37.142984 28.648625 
L 39.521264 27.351361 
L 40.861262 26.620559 
L 42.201259 25.889756 
" style="fill:none;stroke:#808080;stroke-linecap:square;stroke-width:0.955559;"/>
   </g>
   <g id="line2d_8">
    <path clip-path="url(#pde8fcc4c15)" d="M 54.824919 62.512701 
L 54.477707 61.69811 
L 53.736111 59.957319 
L 52.994515 58.216527 
L 52.209816 56.374477 
L 51.425118 54.532428 
L 50.797263 53.058206 
L 50.169409 51.583984 
L 49.593516 50.232372 
L 49.017624 48.880759 
" style="fill:none;stroke:#808080;stroke-linecap:square;stroke-width:0.955559;"/>
   </g>
   <g id="line2d_9">
    <path clip-path="url(#pde8fcc4c15)" d="M 91.271611 32.608999 
L 91.198817 31.251563 
L 91.13129 29.991179 
L 91.022816 27.970877 
L 90.914343 25.950575 
L 90.791501 23.664674 
L 90.66866 21.378773 
L 90.557553 19.308974 
L 90.446445 17.239176 
L 90.318336 14.85687 
L 90.190227 12.474563 
L 90.060681 10.058289 
L 89.931135 7.642014 
L 89.860735 6.334399 
L 89.748669 4.249719 
L 89.696468 3.272727 
" style="fill:none;stroke:#808080;stroke-linecap:square;stroke-width:0.955559;"/>
   </g>
   <g id="line2d_10">
    <path clip-path="url(#pde8fcc4c15)" d="M 147.296733 62.127728 
L 149.948473 61.298256 
L 151.346898 60.860874 
L 154.078616 60.006815 
L 156.220553 59.336832 
L 158.36249 58.666849 
L 160.638523 57.95481 
L 162.914555 57.242771 
L 165.177657 56.534937 
L 167.440759 55.827103 
L 169.807067 55.086919 
L 172.173374 54.346735 
L 174.55812 53.601051 
L 176.942866 52.855367 
L 179.335274 52.107095 
L 181.727682 51.358823 
L 184.412467 50.518999 
L 187.097251 49.679174 
L 189.826575 48.825439 
L 192.555898 47.971704 
L 194.716034 47.296221 
L 196.87617 46.620738 
" style="fill:none;stroke:#808080;stroke-linecap:square;stroke-width:0.955559;"/>
   </g>
   <g id="line2d_11">
    <path clip-path="url(#pde8fcc4c15)" d="M 63.032525 61.563531 
L 64.618683 61.024892 
L 66.204842 60.486253 
L 68.845567 59.589168 
L 71.486291 58.692082 
L 73.982863 57.84417 
L 76.479435 56.996258 
L 77.871275 56.523452 
L 79.263115 56.050647 
L 80.654955 55.577841 
L 82.046795 55.105036 
L 83.465335 54.623172 
L 84.883874 54.141308 
L 86.302413 53.659444 
L 87.720953 53.17758 
L 89.225936 52.666439 
L 90.730919 52.155298 
L 92.235902 51.644157 
L 93.740885 51.133015 
L 95.169362 50.647755 
L 96.597839 50.162494 
L 98.026316 49.677233 
L 99.454793 49.191973 
L 100.994976 48.668862 
L 102.535159 48.145751 
L 104.075342 47.62264 
L 105.615525 47.099529 
L 107.092253 46.597931 
L 108.56898 46.096333 
L 110.045707 45.594735 
L 111.522434 45.093138 
L 112.935107 44.572453 
L 114.34778 44.051768 
L 115.760453 43.531084 
L 117.173125 43.010399 
L 118.709956 42.452349 
L 120.246787 41.894299 
L 121.783618 41.33625 
L 123.320449 40.7782 
L 124.900501 40.204622 
L 126.480554 39.631044 
L 128.060607 39.057466 
L 129.640659 38.483888 
L 131.377436 37.853372 
L 133.114213 37.222857 
L 135.247769 36.448381 
" style="fill:none;stroke:#808080;stroke-linecap:square;stroke-width:0.955559;"/>
   </g>
   <g id="line2d_12">
    <path clip-path="url(#pde8fcc4c15)" d="M 58.730452 62.292716 
L 60.389884 60.830464 
" style="fill:none;stroke:#808080;stroke-linecap:square;stroke-width:0.955559;"/>
   </g>
   <g id="line2d_13">
    <path clip-path="url(#pde8fcc4c15)" d="M 59.62554 58.004306 
L 58.790316 56.110819 
L 57.955092 54.217332 
L 57.119869 52.323845 
L 56.284645 50.430358 
" style="fill:none;stroke:#808080;stroke-linecap:square;stroke-width:0.955559;"/>
   </g>
   <g id="line2d_14">
    <path clip-path="url(#pde8fcc4c15)" d="M 49.79011 23.542388 
L 49.965759 23.954809 
L 50.141407 24.36723 
L 50.317056 24.779651 
L 50.492705 25.192072 
L 50.668353 25.604493 
L 50.844002 26.016914 
L 51.019651 26.429335 
L 51.1953 26.841756 
L 51.370948 27.254178 
L 51.546597 27.666599 
L 51.722246 28.07902 
L 51.897894 28.491441 
L 52.073543 28.903862 
L 52.249192 29.316283 
L 52.424841 29.728704 
L 52.600489 30.141125 
L 52.776138 30.553546 
L 52.951787 30.965967 
L 53.127435 31.378388 
L 53.303084 31.790809 
L 53.478733 32.20323 
L 53.654382 32.615651 
L 53.83003 33.028072 
L 54.005679 33.440493 
L 54.181328 33.852914 
L 54.356976 34.265335 
L 54.532625 34.677756 
L 54.708274 35.090177 
L 54.883923 35.502598 
L 55.059571 35.915019 
L 55.23522 36.32744 
L 55.410869 36.739861 
L 55.586517 37.152282 
L 55.762166 37.564703 
L 55.937815 37.977124 
L 56.113463 38.389545 
L 56.289112 38.801966 
L 56.464761 39.214387 
L 56.64041 39.626808 
L 56.816058 40.039229 
L 56.991707 40.45165 
L 57.167356 40.864071 
L 57.343004 41.276492 
L 57.518653 41.688913 
L 57.694302 42.101334 
L 57.869951 42.513755 
L 58.045599 42.926176 
L 58.221248 43.338597 
L 58.396897 43.751018 
L 58.572545 44.163439 
L 58.748194 44.57586 
L 58.923843 44.988281 
L 59.099492 45.400702 
L 59.27514 45.813123 
L 59.450789 46.225544 
L 59.626438 46.637965 
L 59.802086 47.050386 
L 59.977735 47.462807 
L 60.153384 47.875228 
L 60.329033 48.287649 
L 60.504681 48.70007 
L 60.68033 49.112491 
L 60.855979 49.524912 
L 61.031627 49.937333 
L 61.100621 50.407753 
L 61.169614 50.878173 
L 61.238608 51.348592 
L 61.307601 51.819012 
L 61.376594 52.289432 
L 61.445588 52.759852 
L 61.514581 53.230271 
L 61.583574 53.700691 
L 61.652568 54.171111 
L 61.721561 54.641531 
L 61.790554 55.111951 
L 61.859548 55.58237 
L 61.928541 56.05279 
L 61.997534 56.52321 
L 62.066528 56.99363 
L 62.135521 57.464049 
" style="fill:none;stroke:#000000;stroke-linecap:square;stroke-width:0.955559;"/>
   </g>
   <g id="line2d_15">
    <path clip-path="url(#pde8fcc4c15)" d="M 40.812892 28.325764 
L 40.828516 29.197616 
L 40.844141 30.069468 
L 40.859765 30.941319 
L 40.87539 31.813171 
L 40.891014 32.685023 
L 40.906639 33.556874 
L 40.922263 34.428726 
L 40.937888 35.300578 
L 41.179619 35.731327 
L 41.42135 36.162077 
L 41.663081 36.592827 
L 41.904812 37.023576 
L 42.361935 37.370376 
L 42.819057 37.717176 
L 43.276179 38.063975 
L 43.733301 38.410775 
L 44.190423 38.757575 
L 44.647545 39.104374 
L 45.104668 39.451174 
L 45.56179 39.797973 
L 45.949709 40.138829 
L 46.337628 40.479684 
L 46.725548 40.820539 
L 47.113467 41.161394 
L 47.501386 41.502249 
L 47.889305 41.843104 
L 48.277225 42.18396 
L 48.665144 42.524815 
L 49.053063 42.86567 
L 49.440983 43.206525 
L 49.828902 43.54738 
L 50.216821 43.888235 
L 50.60474 44.229091 
L 50.99266 44.569946 
L 51.380579 44.910801 
L 51.768498 45.251656 
L 52.185152 45.408072 
L 52.601806 45.564488 
L 53.01846 45.720903 
L 53.435114 45.877319 
L 53.851768 46.033735 
L 54.268422 46.19015 
L 54.685076 46.346566 
L 55.101731 46.502982 
" style="fill:none;stroke:#4169e1;stroke-linecap:square;stroke-width:0.955559;"/>
   </g>
   <g id="line2d_16">
    <path clip-path="url(#pde8fcc4c15)" d="M 43.140886 40.449517 
L 43.111014 40.986539 
L 43.081142 41.52356 
L 43.05127 42.060582 
L 43.021397 42.597604 
L 42.991525 43.134626 
L 42.961653 43.671647 
L 42.931781 44.208669 
L 42.901909 44.745691 
L 43.045133 45.187278 
L 43.188358 45.628865 
L 43.331583 46.070453 
L 43.474808 46.51204 
L 43.618033 46.953627 
L 43.761258 47.395214 
L 43.904482 47.836801 
L 44.047707 48.278389 
L 44.190932 48.719976 
L 44.334157 49.161563 
L 44.477382 49.60315 
L 44.620607 50.044737 
L 44.763831 50.486325 
L 44.907056 50.927912 
L 45.050281 51.369499 
L 45.193506 51.811086 
L 45.399408 52.410747 
L 45.605311 53.010408 
L 45.811213 53.610069 
L 46.017116 54.20973 
L 46.223019 54.809391 
L 46.428921 55.409051 
L 46.634824 56.008712 
L 46.840726 56.608373 
L 47.046629 57.208034 
L 47.252531 57.807695 
L 47.458434 58.407356 
L 47.664336 59.007017 
L 47.870239 59.606677 
L 48.076141 60.206338 
L 48.282044 60.805999 
L 48.487946 61.40566 
" style="fill:none;stroke:#4169e1;stroke-linecap:square;stroke-width:0.955559;"/>
   </g>
   <g id="line2d_17">
    <path clip-path="url(#pde8fcc4c15)" d="M 45.793583 25.045402 
L 46.293149 24.857526 
L 46.792715 24.669649 
L 47.292281 24.481772 
L 47.791847 24.293895 
L 48.291412 24.106019 
L 48.790978 23.918142 
L 49.290544 23.730265 
L 49.79011 23.542388 
L 50.460857 23.324992 
L 51.131604 23.107595 
L 51.802351 22.890198 
L 52.473098 22.672801 
L 53.143846 22.455405 
L 53.814593 22.238008 
L 54.48534 22.020611 
L 55.156087 21.803214 
L 55.826834 21.585817 
L 56.497581 21.368421 
L 57.168329 21.151024 
L 57.839076 20.933627 
L 58.509823 20.71623 
L 59.18057 20.498834 
L 59.851317 20.281437 
L 60.522064 20.06404 
L 61.20236 19.87495 
L 61.882655 19.68586 
L 62.562951 19.49677 
L 63.243246 19.30768 
L 63.967662 19.326606 
L 64.692077 19.345531 
L 65.416492 19.364456 
L 66.140907 19.383381 
L 66.865323 19.402306 
L 67.589738 19.421231 
L 68.314153 19.440157 
L 69.038569 19.459082 
L 69.659958 19.572633 
L 70.281347 19.686184 
L 70.902736 19.799735 
L 71.524126 19.913286 
L 72.20029 19.913245 
L 72.876455 19.913205 
L 73.55262 19.913164 
L 74.228785 19.913124 
L 74.90495 19.913084 
L 75.581115 19.913043 
L 76.25728 19.913003 
L 76.933444 19.912962 
L 77.609609 19.912922 
L 78.285774 19.912881 
L 78.961939 19.912841 
L 79.638104 19.9128 
L 80.314269 19.91276 
L 80.990433 19.91272 
L 81.666598 19.912679 
L 82.342763 19.912639 
L 82.972533 19.903904 
L 83.602304 19.895169 
L 84.194479 19.88692 
L 84.786655 19.87867 
L 85.37883 19.870421 
L 85.971006 19.862172 
L 86.547257 19.848018 
L 87.123509 19.833865 
L 87.699761 19.819711 
L 88.276013 19.805558 
L 88.852264 19.791404 
L 89.428516 19.777251 
L 90.004768 19.763098 
L 90.581019 19.748944 
L 91.063045 19.71902 
L 91.545071 19.689095 
L 92.027096 19.659171 
L 92.509122 19.629246 
L 92.991147 19.599322 
L 93.473173 19.569398 
L 93.955199 19.539473 
L 94.437224 19.509549 
L 95.079745 19.572552 
L 95.722267 19.635555 
L 96.364788 19.698558 
L 97.007309 19.761561 
L 97.64983 19.824564 
L 98.292352 19.887567 
L 98.934873 19.95057 
L 99.577394 20.013573 
L 100.270381 20.329801 
L 100.963367 20.646029 
L 101.656354 20.962258 
L 102.349341 21.278486 
" style="fill:none;stroke:#008000;stroke-linecap:square;stroke-width:0.955559;"/>
   </g>
   <g id="line2d_18">
    <path clip-path="url(#pde8fcc4c15)" d="M 82.443335 9.9855 
L 82.51577 10.604854 
L 82.588206 11.224208 
L 82.660641 11.843563 
L 82.733077 12.462917 
L 82.805513 13.082271 
L 82.877948 13.701626 
L 82.950384 14.32098 
L 83.022819 14.940335 
L 83.095255 15.559689 
L 83.16769 16.179043 
L 83.240126 16.798398 
L 83.312561 17.417752 
L 83.384997 18.037106 
L 83.457432 18.656461 
L 83.529868 19.275815 
L 83.602304 19.895169 
L 83.825926 20.352932 
L 84.049548 20.810694 
L 84.27317 21.268457 
L 84.496793 21.72622 
L 84.720415 22.183982 
L 84.944037 22.641745 
L 85.16766 23.099507 
L 85.391282 23.55727 
L 85.614904 24.015032 
L 85.838527 24.472795 
L 86.062149 24.930557 
L 86.285771 25.38832 
L 86.509393 25.846083 
L 86.733016 26.303845 
L 86.956638 26.761608 
L 87.18026 27.21937 
L 87.44911 27.575956 
L 87.71796 27.932542 
L 87.986809 28.289127 
L 88.255659 28.645713 
L 88.524508 29.002299 
L 88.793358 29.358884 
L 89.062208 29.71547 
L 89.331057 30.072056 
L 89.761959 30.344125 
L 90.192861 30.616195 
L 90.623762 30.888264 
L 91.054664 31.160334 
L 91.163138 31.884666 
L 91.271611 32.608999 
" style="fill:none;stroke:#000000;stroke-linecap:square;stroke-width:0.955559;"/>
   </g>
   <g id="line2d_19">
    <path clip-path="url(#pde8fcc4c15)" d="M 94.057446 4.392062 
L 94.574912 4.63081 
L 95.092377 4.869558 
L 95.221803 5.357245 
L 95.351229 5.844932 
L 95.480655 6.332619 
L 95.610081 6.820306 
L 95.739508 7.307993 
L 95.868934 7.79568 
L 95.99836 8.283367 
L 96.127786 8.771054 
L 96.466138 9.447993 
L 96.80449 10.124931 
L 97.142842 10.80187 
L 97.481193 11.478808 
L 97.829602 11.75751 
L 98.178011 12.036211 
L 98.52642 12.314913 
L 98.874829 12.593614 
L 99.223238 12.872315 
L 99.571647 13.151017 
L 99.920056 13.429718 
L 100.268465 13.708419 
L 100.626812 14.205973 
L 100.985158 14.703527 
L 101.343504 15.201081 
L 101.701851 15.698635 
" style="fill:none;stroke:#000000;stroke-linecap:square;stroke-width:0.955559;"/>
   </g>
   <g id="line2d_20">
    <path clip-path="url(#pde8fcc4c15)" d="M 97.481193 11.478808 
L 97.043347 11.856988 
L 96.605501 12.235168 
L 96.167656 12.613348 
L 95.72981 12.991528 
L 95.620618 13.469105 
L 95.511425 13.946682 
L 95.402233 14.42426 
L 95.293041 14.901837 
L 95.183849 15.379415 
L 95.074657 15.856992 
L 94.965465 16.334569 
L 94.856273 16.812147 
L 94.751511 17.486497 
L 94.646749 18.160848 
L 94.541986 18.835198 
L 94.437224 19.509549 
L 94.340005 20.358836 
L 94.242786 21.208123 
L 94.145566 22.05741 
L 94.048347 22.906697 
L 93.951128 23.755984 
L 93.853909 24.605271 
L 93.756689 25.454558 
L 93.65947 26.303845 
" style="fill:none;stroke:#008000;stroke-linecap:square;stroke-width:0.955559;"/>
   </g>
   <g id="line2d_21">
    <path clip-path="url(#pde8fcc4c15)" d="M 136.259712 23.741022 
L 135.513206 23.611619 
L 134.766701 23.482216 
L 134.020196 23.352813 
L 133.273691 23.22341 
L 132.527186 23.094008 
L 131.780681 22.964605 
L 131.034176 22.835202 
L 130.28767 22.705799 
L 129.491418 22.526657 
L 128.695166 22.347515 
L 127.898914 22.168373 
L 127.102662 21.989231 
L 126.306409 21.810089 
L 125.510157 21.630947 
L 124.713905 21.451805 
L 123.917653 21.272663 
L 123.290576 21.173103 
L 122.6635 21.073544 
L 122.036424 20.973985 
L 121.409347 20.874425 
L 120.782271 20.774866 
L 120.155195 20.675307 
L 119.528119 20.575747 
L 118.901042 20.476188 
L 118.084855 20.496084 
L 117.268668 20.515979 
L 116.452481 20.535875 
L 115.636294 20.555771 
L 114.820108 20.575667 
L 114.003921 20.595562 
L 113.187734 20.615458 
L 112.371547 20.635354 
L 111.734593 20.854368 
L 111.097639 21.073382 
L 110.460685 21.292397 
L 109.823731 21.511411 
" style="fill:none;stroke:#4169e1;stroke-linecap:square;stroke-width:0.955559;"/>
   </g>
   <g id="line2d_22">
    <path clip-path="url(#pde8fcc4c15)" d="M 136.339211 20.317023 
L 135.851498 19.99853 
L 135.363786 19.680037 
L 134.876073 19.361544 
L 134.38836 19.043052 
L 133.900648 18.724559 
L 133.412935 18.406066 
L 132.925222 18.087573 
L 132.437509 17.769081 
L 131.661132 17.420744 
L 130.884755 17.072408 
L 130.108377 16.724072 
L 129.332 16.375736 
L 128.555623 16.027399 
L 127.779245 15.679063 
L 127.002868 15.330727 
L 126.226491 14.98239 
L 125.80846 14.833092 
L 125.390429 14.683793 
L 124.972398 14.534495 
L 124.554367 14.385196 
L 124.136336 14.235898 
L 123.718305 14.086599 
L 123.300274 13.937301 
L 122.882243 13.788002 
L 122.464213 13.638704 
L 122.046182 13.489405 
L 121.628151 13.340107 
L 121.21012 13.190808 
L 120.792089 13.04151 
L 120.374058 12.892211 
L 119.956027 12.742912 
L 119.537996 12.593614 
L 118.965695 12.533886 
L 118.393395 12.474159 
L 117.821094 12.414431 
L 117.248793 12.354704 
L 116.676493 12.294976 
L 116.104192 12.235249 
L 115.531891 12.175521 
L 114.959591 12.115794 
L 114.38729 12.056066 
L 113.81499 11.996339 
L 113.242689 11.936611 
L 112.670388 11.876884 
L 112.098088 11.817156 
L 111.525787 11.757429 
L 110.953486 11.697701 
L 110.381186 11.637974 
L 109.63468 11.926623 
L 108.888175 12.215272 
L 108.14167 12.503922 
L 107.395165 12.792571 
L 106.64866 13.08122 
L 105.902155 13.369869 
L 105.155649 13.658518 
L 104.409144 13.947168 
L 103.772071 14.50457 
L 103.134997 15.061973 
L 102.497923 15.619376 
L 101.86085 16.176779 
" style="fill:none;stroke:#008000;stroke-linecap:square;stroke-width:0.955559;"/>
   </g>
   <g id="line2d_23">
    <path clip-path="url(#pde8fcc4c15)" d="M 136.020734 30.189812 
L 135.215008 30.00232 
L 134.409283 29.814827 
L 133.603557 29.627335 
L 132.797831 29.439842 
L 131.992106 29.252349 
L 131.18638 29.064857 
L 130.380654 28.877364 
L 129.574929 28.689872 
L 128.769203 28.502379 
L 127.963477 28.314887 
L 127.157751 28.127394 
L 126.352026 27.939901 
L 125.5463 27.752409 
L 124.740574 27.564916 
L 123.934849 27.377424 
L 123.129123 27.189931 
L 122.323397 27.002438 
L 121.517672 26.814946 
L 120.711946 26.627453 
L 119.90622 26.439961 
L 119.100494 26.252468 
L 118.294769 26.064976 
L 117.489043 25.877483 
L 116.683317 25.68999 
L 115.877592 25.502498 
L 115.071866 25.315005 
L 114.26614 25.127513 
L 113.460415 24.94002 
L 112.654689 24.752527 
L 111.848963 24.565035 
L 111.043237 24.377542 
L 110.237512 24.19005 
L 109.607562 24.337812 
L 108.977612 24.485573 
L 108.347662 24.633335 
L 107.717713 24.781097 
L 107.087763 24.928859 
L 106.457813 25.076621 
L 105.827863 25.224383 
L 105.197913 25.372145 
L 104.513547 25.714253 
L 103.829181 26.056362 
L 103.144815 26.398471 
L 102.460449 26.74058 
L 101.776082 27.207239 
L 101.091716 27.673898 
L 100.40735 28.140557 
L 99.722984 28.607216 
L 99.163015 29.042656 
L 98.603046 29.478097 
L 98.043078 29.913537 
L 97.483109 30.348978 
L 96.876566 30.457838 
L 96.270023 30.566698 
L 95.66348 30.675558 
L 95.056937 30.784418 
L 94.279183 30.566698 
L 93.501429 30.348978 
" style="fill:none;stroke:#008000;stroke-linecap:square;stroke-width:0.955559;"/>
   </g>
   <g id="line2d_24">
    <path clip-path="url(#pde8fcc4c15)" d="M 95.649831 3.754753 
L 96.087797 3.754753 
L 96.525763 3.754753 
L 96.963728 3.754753 
L 97.401694 3.754753 
L 97.839659 3.754753 
L 98.277625 3.754753 
L 98.715591 3.754753 
L 99.153556 3.754753 
L 99.720888 3.874208 
L 100.28822 3.993663 
L 100.855552 4.113118 
L 101.422884 4.232573 
L 101.990216 4.352028 
L 102.557548 4.471483 
L 103.12488 4.590938 
L 103.692212 4.710393 
L 104.209797 4.859691 
L 104.727382 5.00899 
L 105.244967 5.158288 
L 105.762552 5.307587 
L 106.280136 5.456885 
L 106.797721 5.606184 
L 107.315306 5.755483 
L 107.832891 5.904781 
L 108.569459 6.123795 
L 109.306027 6.34281 
L 110.042594 6.561824 
L 110.779162 6.780838 
L 111.336497 6.999691 
L 111.893831 7.218543 
L 112.451166 7.437396 
L 113.008501 7.656249 
L 113.406716 8.432666 
L 113.804932 9.209083 
L 114.203148 9.9855 
L 114.601364 10.761917 
" style="fill:none;stroke:#008000;stroke-linecap:square;stroke-width:0.955559;"/>
   </g>
   <g id="line2d_25">
    <path clip-path="url(#pde8fcc4c15)" d="M 88.801859 3.834336 
L 88.872259 4.688273 
L 88.942659 5.54221 
L 89.013059 6.396148 
L 89.083459 7.250085 
L 89.153859 8.104023 
L 89.22426 8.95796 
L 89.29466 9.811898 
L 89.36506 10.665835 
L 89.43546 11.519773 
L 89.50586 12.37371 
L 89.57626 13.227647 
L 89.646661 14.081585 
L 89.717061 14.935522 
L 89.787461 15.78946 
L 89.857861 16.643397 
L 89.928261 17.497335 
L 89.998661 18.351272 
L 90.069062 19.20521 
L 90.139462 20.059147 
L 90.209862 20.913084 
L 90.280262 21.767022 
L 90.350662 22.620959 
L 90.421062 23.474897 
L 90.491463 24.328834 
L 90.561863 25.182772 
L 90.632263 26.036709 
L 90.702663 26.890647 
L 90.773063 27.744584 
L 90.843463 28.598521 
L 90.913864 29.452459 
L 90.984264 30.306396 
L 91.054664 31.160334 
" style="fill:none;stroke:#000000;stroke-linecap:square;stroke-width:0.955559;"/>
   </g>
   <g id="line2d_26">
    <path clip-path="url(#pde8fcc4c15)" d="M 87.368952 4.551227 
L 86.791623 5.118578 
L 86.214293 5.685929 
L 85.636964 6.253279 
L 85.059635 6.82063 
L 84.482306 7.38798 
L 83.904976 7.955331 
L 83.327647 8.522681 
L 82.750318 9.090032 
L 82.212858 9.557823 
L 81.675398 10.025615 
L 81.137939 10.493406 
L 80.600479 10.961197 
L 80.063019 11.428988 
L 79.525559 11.89678 
L 78.9881 12.364571 
L 78.45064 12.832362 
L 78.077387 13.195661 
L 77.704135 13.558959 
L 77.330882 13.922258 
L 76.957629 14.285556 
L 76.584377 14.648855 
L 76.211124 15.012153 
L 75.837872 15.375452 
L 75.464619 15.73875 
L 75.091367 16.102049 
L 74.718114 16.465347 
L 74.344861 16.828645 
L 73.971609 17.191944 
L 73.598356 17.555242 
L 73.225104 17.918541 
L 72.851851 18.281839 
L 72.478599 18.645138 
L 72.001362 19.279212 
L 71.524126 19.913286 
" style="fill:none;stroke:#008000;stroke-linecap:square;stroke-width:0.955559;"/>
   </g>
   <g id="line2d_27">
    <path clip-path="url(#pde8fcc4c15)" d="M 71.524126 19.913286 
L 71.270242 20.276908 
L 71.016358 20.64053 
L 70.762475 21.004152 
L 70.508591 21.367774 
L 70.254708 21.731396 
L 70.000824 22.095018 
L 69.74694 22.45864 
L 69.493057 22.822262 
L 69.239173 23.185884 
L 68.98529 23.549506 
L 68.731406 23.913128 
L 68.477522 24.27675 
L 68.223639 24.640372 
L 67.969755 25.003994 
L 67.715872 25.367616 
L 67.461988 25.731237 
L 67.143511 26.358275 
L 66.825034 26.985313 
L 66.506557 27.61235 
L 66.18808 28.239388 
L 65.869603 28.866426 
L 65.551126 29.493463 
L 65.23265 30.120501 
L 64.914173 30.747539 
L 64.476207 31.444211 
L 64.038241 32.140884 
L 63.600276 32.837556 
L 63.16231 33.534229 
L 62.724344 34.230901 
L 62.286379 34.927574 
L 61.848413 35.624246 
L 61.410447 36.320919 
L 61.464325 36.843221 
L 61.518203 37.365523 
L 61.57208 37.887826 
L 61.625958 38.410128 
L 61.679836 38.93243 
L 61.733713 39.454732 
L 61.787591 39.977035 
L 61.841469 40.499337 
L 61.806807 41.100656 
L 61.772146 41.701974 
L 61.737485 42.303293 
L 61.702824 42.904612 
L 61.668162 43.505931 
L 61.633501 44.10725 
L 61.59884 44.708569 
L 61.564178 45.309887 
" style="fill:none;stroke:#008000;stroke-linecap:square;stroke-width:0.955559;"/>
   </g>
   <g id="line2d_28">
    <path clip-path="url(#pde8fcc4c15)" d="M 123.700705 29.703258 
L 123.18119 29.70898 
L 122.661674 29.714702 
L 122.142159 29.720424 
L 121.622643 29.726146 
L 121.103128 29.731868 
L 120.583612 29.73759 
L 120.064097 29.743312 
L 119.544581 29.749034 
L 119.025066 29.754756 
L 118.50555 29.760478 
L 117.986035 29.7662 
L 117.466519 29.771922 
L 116.947004 29.777644 
L 116.427488 29.783366 
L 115.907973 29.789088 
L 115.388457 29.79481 
L 114.868942 29.800532 
L 114.349426 29.806254 
L 113.829911 29.811976 
L 113.310395 29.817698 
L 112.79088 29.82342 
L 112.271364 29.829142 
L 111.751849 29.834864 
L 111.232333 29.840586 
L 110.712818 29.846309 
L 110.193302 29.852031 
L 109.673787 29.857753 
L 109.154271 29.863475 
L 108.634756 29.869197 
L 108.11524 29.874919 
L 107.595725 29.880641 
L 107.076209 29.886363 
" style="fill:none;stroke:#008000;stroke-linecap:square;stroke-width:0.955559;"/>
   </g>
   <g id="line2d_29">
    <path clip-path="url(#pde8fcc4c15)" d="M 135.378991 31.809936 
L 134.84662 32.090417 
L 134.314249 32.370897 
L 133.781877 32.651378 
L 133.249506 32.931859 
L 132.717135 33.212339 
L 132.184763 33.49282 
L 131.652392 33.773301 
L 131.120021 34.053781 
L 130.513178 34.168222 
L 129.906336 34.282663 
L 129.299494 34.397103 
L 128.692652 34.511544 
L 128.085809 34.625984 
L 127.478967 34.740425 
L 126.872125 34.854866 
L 126.265283 34.969306 
L 125.595523 35.106716 
L 124.925764 35.244126 
L 124.256005 35.381535 
L 123.586245 35.518945 
L 122.916486 35.656355 
L 122.246726 35.793764 
L 121.576967 35.931174 
L 120.907208 36.068584 
L 120.21452 36.320434 
L 119.521833 36.572284 
L 118.829145 36.824134 
L 118.136458 37.075985 
L 117.443771 37.327835 
L 116.751083 37.579685 
L 116.058396 37.831535 
L 115.365709 38.083386 
L 114.632972 38.415385 
L 113.900236 38.747384 
L 113.1675 39.079383 
L 112.434763 39.411382 
L 111.702027 39.743382 
L 110.96929 40.075381 
L 110.236554 40.40738 
L 109.503817 40.739379 
L 108.937024 40.951195 
L 108.370231 41.163012 
L 107.803438 41.374828 
L 107.236645 41.586644 
L 106.669852 41.79846 
L 106.103058 42.010277 
L 105.536265 42.222093 
L 104.969472 42.433909 
L 104.491472 42.614204 
L 104.013473 42.794498 
L 103.535473 42.974793 
L 103.057473 43.155088 
L 102.579473 43.335382 
L 102.101474 43.515677 
L 101.623474 43.695971 
L 101.145474 43.876266 
L 100.667474 44.05656 
L 100.189475 44.236855 
L 99.711475 44.417149 
L 99.233475 44.597444 
L 98.755475 44.777738 
L 98.277475 44.958033 
L 97.799476 45.138328 
L 97.321476 45.318622 
L 96.843476 45.498917 
L 96.365476 45.679211 
L 95.887477 45.859506 
L 95.409477 46.0398 
L 94.931477 46.220095 
L 94.453477 46.400389 
L 93.975478 46.580684 
L 93.497478 46.760979 
L 93.019478 46.941273 
L 92.541478 47.121568 
L 92.063479 47.301862 
L 91.585479 47.482157 
L 91.107479 47.662451 
L 90.629479 47.842746 
L 90.15148 48.02304 
L 89.67348 48.203335 
L 89.07448 48.288903 
L 88.47548 48.37447 
L 87.87648 48.460038 
L 87.27748 48.545606 
L 86.560727 48.48147 
L 85.843974 48.417335 
L 85.127221 48.3532 
L 84.410469 48.289064 
L 83.693716 48.224929 
L 82.976963 48.160794 
L 82.260211 48.096659 
L 81.543458 48.032523 
L 81.104864 48.33201 
L 80.666269 48.631497 
L 80.227675 48.930983 
L 79.789081 49.23047 
L 79.350487 49.529957 
L 78.911893 49.829443 
L 78.473298 50.12893 
L 78.034704 50.428417 
L 77.59611 50.727904 
L 77.157516 51.02739 
L 76.718921 51.326877 
L 76.280327 51.626364 
L 75.841733 51.92585 
L 75.403139 52.225337 
L 74.964545 52.524824 
L 74.52595 52.82431 
L 74.172932 53.097067 
L 73.819913 53.369824 
L 73.466895 53.642581 
L 73.113876 53.915338 
L 72.760858 54.188095 
L 72.407839 54.460852 
L 72.054821 54.733609 
L 71.701802 55.006366 
L 71.348784 55.279123 
L 70.995765 55.55188 
L 70.642747 55.824637 
L 70.289728 56.097394 
L 69.93671 56.370151 
L 69.583691 56.642907 
L 69.230673 56.915664 
L 68.877654 57.188421 
" style="fill:none;stroke:#008000;stroke-linecap:square;stroke-width:0.955559;"/>
   </g>
   <g id="line2d_30">
    <path clip-path="url(#pde8fcc4c15)" d="M 117.200902 42.340739 
L 116.897152 41.80485 
L 116.593401 41.26896 
L 116.289651 40.733071 
L 115.985901 40.197181 
L 115.574994 39.446645 
L 115.164087 38.696108 
L 114.681582 38.267461 
L 114.199077 37.838814 
L 113.895327 37.347569 
L 113.591577 36.856323 
L 113.287826 36.365078 
L 112.984076 35.873832 
L 112.403514 35.239597 
L 111.822952 34.605361 
L 111.24239 33.971125 
L 110.661828 33.33689 
L 110.2866 33.100163 
L 109.911372 32.863437 
L 109.536144 32.626711 
L 109.160916 32.389984 
L 108.785688 32.153258 
L 108.41046 31.916532 
L 108.035232 31.679805 
L 107.660004 31.443079 
L 107.177619 31.273399 
L 106.695234 31.10372 
L 106.212849 30.93404 
L 105.730464 30.764361 
" style="fill:none;stroke:#4169e1;stroke-linecap:square;stroke-width:0.955559;"/>
   </g>
   <g id="line2d_31">
    <path clip-path="url(#pde8fcc4c15)" d="M 46.791159 25.889756 
L 46.968618 26.302531 
L 47.146078 26.715306 
L 47.323537 27.128081 
L 47.500997 27.540855 
L 47.678457 27.95363 
L 47.855916 28.366405 
L 48.033376 28.77918 
L 48.210835 29.191955 
L 48.388295 29.60473 
L 48.565755 30.017504 
L 48.743214 30.430279 
L 48.920674 30.843054 
L 49.098133 31.255829 
L 49.275593 31.668604 
L 49.453053 32.081379 
L 49.630512 32.494154 
L 49.807972 32.906928 
L 49.985431 33.319703 
L 50.162891 33.732478 
L 50.340351 34.145253 
L 50.51781 34.558028 
L 50.69527 34.970803 
L 50.872729 35.383577 
L 51.050189 35.796352 
L 51.227649 36.209127 
L 51.405108 36.621902 
L 51.582568 37.034677 
L 51.760027 37.447452 
L 51.937487 37.860227 
L 52.114947 38.273001 
L 52.292406 38.685776 
L 52.469866 39.098551 
L 52.647325 39.511326 
L 52.824785 39.924101 
L 53.002245 40.336876 
L 53.179704 40.74965 
L 53.357164 41.162425 
L 53.534623 41.5752 
L 53.712083 41.987975 
L 53.889543 42.40075 
L 54.067002 42.813525 
L 54.244462 43.2263 
L 54.421921 43.639074 
L 54.599381 44.051849 
L 54.776841 44.464624 
L 54.9543 44.877399 
L 55.13176 45.290174 
L 55.309219 45.702949 
L 55.486679 46.115723 
L 55.664139 46.528498 
L 55.841598 46.941273 
L 56.019058 47.354048 
L 56.196517 47.766823 
L 56.373977 48.179598 
L 56.551437 48.592373 
L 56.728896 49.005147 
L 56.906356 49.417922 
L 57.083815 49.830697 
L 57.261275 50.243472 
L 57.438735 50.656247 
L 57.616194 51.069022 
L 57.793654 51.481796 
L 57.971113 51.894571 
L 58.148573 52.307346 
L 58.502011 53.062816 
L 58.855448 53.818286 
L 59.208886 54.573756 
L 59.562323 55.329226 
L 59.915761 56.084696 
L 60.269198 56.840166 
L 60.622636 57.595636 
L 60.976074 58.351106 
" style="fill:none;stroke:#4169e1;stroke-linecap:square;stroke-width:0.955559;"/>
   </g>
   <g id="line2d_32">
    <path clip-path="url(#pde8fcc4c15)" d="M 55.86847 51.406055 
L 56.199398 52.167591 
L 56.530327 52.929127 
L 56.861256 53.690663 
L 57.192184 54.452198 
L 57.533649 55.2401 
L 57.875114 56.028001 
L 58.216579 56.815903 
L 58.558043 57.603804 
" style="fill:none;stroke:#008000;stroke-linecap:square;stroke-width:0.955559;"/>
   </g>
   <g id="line2d_33">
    <path clip-path="url(#pde8fcc4c15)" d="M 60.667654 61.244553 
L 60.278537 61.584074 
L 59.889421 61.923595 
L 59.500304 62.263116 
L 59.111188 62.602636 
" style="fill:none;stroke:#008000;stroke-linecap:square;stroke-width:0.955559;"/>
   </g>
   <g id="line2d_34">
    <path clip-path="url(#pde8fcc4c15)" d="M 75.015878 58.204234 
L 74.74194 58.955417 
L 74.527387 59.729893 
L 74.336301 60.206743 
L 74.098281 60.730824 
L 73.454623 60.647359 
L 72.810964 60.563894 
L 72.036083 60.48043 
L 71.261202 60.396965 
L 70.641489 60.403111 
L 70.021776 60.409258 
" style="fill:none;stroke:#4169e1;stroke-linecap:square;stroke-width:0.955559;"/>
   </g>
   <g id="line2d_35">
    <path clip-path="url(#pde8fcc4c15)" d="M 137.254413 35.270168 
L 137.837011 34.94569 
L 138.419608 34.621213 
L 139.002205 34.296735 
L 139.584802 33.972257 
L 140.16716 33.681101 
L 140.749518 33.389945 
L 141.515778 33.006912 
L 142.156683 32.906949 
L 142.797588 32.806985 
L 143.438493 32.707021 
L 144.079398 32.607057 
L 144.687018 32.815073 
L 145.294639 33.023088 
L 145.902259 33.231103 
L 146.50988 33.439118 
L 146.926055 33.780418 
L 147.34223 34.121718 
L 147.758405 34.463018 
L 148.17458 34.804318 
L 148.823866 35.312062 
L 149.473152 35.819807 
L 150.122438 36.327551 
L 150.771724 36.835295 
L 151.367012 37.448665 
L 151.962301 38.062034 
L 152.462286 38.43245 
L 152.962271 38.802866 
" style="fill:none;stroke:#008000;stroke-linecap:square;stroke-width:0.955559;"/>
   </g>
   <g id="line2d_36">
    <path clip-path="url(#pde8fcc4c15)" d="M 152.962271 38.802866 
L 153.521641 38.96009 
L 154.081011 39.117314 
L 154.640381 39.274539 
L 155.199751 39.431763 
L 155.707398 40.022649 
L 156.215046 40.613535 
L 156.722693 41.204421 
L 157.23034 41.795306 
L 157.334384 42.240614 
L 157.438428 42.685921 
L 157.542472 43.131229 
L 157.646516 43.576536 
L 157.750559 44.021844 
L 157.854603 44.467151 
L 157.958647 44.912459 
L 158.062691 45.357767 
L 158.012764 45.886215 
L 157.962837 46.414664 
L 157.912911 46.943113 
L 157.862984 47.471562 
L 157.813057 48.000011 
L 157.763131 48.52846 
L 157.713204 49.056908 
L 157.663278 49.585357 
" style="fill:none;stroke:#008000;stroke-linecap:square;stroke-width:0.955559;"/>
   </g>
   <g id="line2d_37">
    <path clip-path="url(#pde8fcc4c15)" d="M 157.663278 49.585357 
L 157.596709 50.197109 
L 157.53014 50.808861 
L 157.463571 51.420613 
L 157.397002 52.032365 
L 157.330433 52.644117 
L 157.263864 53.255869 
L 157.197295 53.867621 
L 157.130727 54.479373 
L 156.714551 55.103418 
L 156.298376 55.727463 
L 155.882201 56.351508 
L 155.466026 56.975554 
L 154.951135 57.461219 
L 154.436244 57.946884 
L 153.921353 58.432549 
L 153.406462 58.918214 
L 152.891571 59.403879 
L 152.37668 59.889544 
L 151.861789 60.375209 
L 151.346898 60.860874 
L 150.850505 61.145075 
L 150.354112 61.429276 
L 149.857719 61.713477 
L 149.361326 61.997678 
L 148.864933 62.281879 
L 148.36854 62.56608 
L 147.872147 62.850281 
L 147.375754 63.134482 
" style="fill:none;stroke:#008000;stroke-linecap:square;stroke-width:0.955559;"/>
   </g>
   <g id="line2d_38">
    <path clip-path="url(#pde8fcc4c15)" d="M 140.749518 33.389945 
L 140.836082 34.171376 
L 140.922645 34.952808 
L 141.009208 35.734239 
L 141.095772 36.51567 
L 141.285062 37.164626 
L 141.474352 37.813581 
L 141.663643 38.462536 
L 141.852933 39.111491 
L 142.326099 39.787621 
L 142.799264 40.463751 
L 143.27243 41.139881 
L 143.745596 41.816011 
L 143.948415 42.255414 
L 144.151235 42.694818 
L 144.354054 43.134221 
L 144.556874 43.573625 
L 144.759693 44.013028 
L 144.962513 44.452432 
L 145.165333 44.891835 
L 145.368152 45.331239 
L 145.374917 45.865268 
L 145.381681 46.399298 
L 145.388446 46.933327 
L 145.395211 47.467356 
L 145.401975 48.001386 
L 145.40874 48.535415 
L 145.415505 49.069444 
L 145.422269 49.603474 
L 145.30733 50.279442 
L 145.192391 50.95541 
L 145.077452 51.631378 
L 144.962513 52.307346 
L 144.847574 52.983314 
L 144.732635 53.659282 
L 144.617696 54.33525 
L 144.502757 55.011219 
L 144.320231 55.531741 
L 144.137706 56.052264 
L 143.95518 56.572787 
L 143.772654 57.09331 
L 143.590129 57.613833 
L 143.407603 58.134356 
L 143.225078 58.654879 
L 143.042552 59.175402 
L 143.015493 59.716144 
L 142.988435 60.256886 
L 142.961376 60.797628 
L 142.934318 61.33837 
" style="fill:none;stroke:#4169e1;stroke-linecap:square;stroke-width:0.955559;"/>
   </g>
   <g id="line2d_39">
    <path clip-path="url(#pde8fcc4c15)" d="M 136.49821 39.922847 
L 136.525269 40.531283 
L 136.552327 41.139719 
L 136.579386 41.748155 
L 136.606444 42.356591 
L 136.633503 42.965027 
L 136.660562 43.573463 
L 136.68762 44.181899 
L 136.714679 44.790335 
L 136.674121 45.317611 
L 136.633563 45.844887 
L 136.593005 46.372163 
L 136.552447 46.89944 
L 136.511889 47.426716 
L 136.471331 47.953992 
L 136.430773 48.481268 
L 136.390215 49.008544 
L 136.349657 49.53582 
L 136.309099 50.063096 
L 136.268542 50.590373 
L 136.227984 51.117649 
L 136.187426 51.644925 
L 136.146868 52.172201 
L 136.10631 52.699477 
L 136.065752 53.226753 
L 136.011665 53.699923 
L 135.957578 54.173092 
L 135.90349 54.646262 
L 135.849403 55.119432 
L 135.795316 55.592601 
L 135.741229 56.065771 
L 135.687142 56.53894 
L 135.633054 57.01211 
L 135.578967 57.48528 
L 135.52488 57.958449 
L 135.470793 58.431619 
L 135.416706 58.904788 
L 135.362618 59.377958 
L 135.308531 59.851127 
L 135.254444 60.324297 
L 135.200357 60.797467 
L 135.071888 61.284183 
L 134.94342 61.770899 
L 134.814952 62.257616 
L 134.686483 62.744332 
L 134.558015 63.231049 
L 134.429547 63.717765 
L 134.301078 64.204482 
L 134.17261 64.691198 
" style="fill:none;stroke:#4169e1;stroke-linecap:square;stroke-width:0.955559;"/>
   </g>
   <g id="line2d_40">
    <path clip-path="url(#pde8fcc4c15)" d="M 129.520931 41.004655 
L 129.429668 41.640104 
L 129.338406 42.275553 
L 129.247143 42.911001 
L 129.15588 43.54645 
L 129.064617 44.181899 
L 128.973354 44.817348 
L 128.882092 45.452797 
L 128.790829 46.088246 
L 128.699566 46.723694 
L 128.608303 47.359143 
L 128.51704 47.994592 
L 128.425778 48.630041 
L 128.334515 49.26549 
L 128.243252 49.900939 
L 128.151989 50.536387 
L 128.060726 51.171836 
L 127.989757 51.722769 
L 127.918789 52.273701 
L 127.84782 52.824634 
L 127.776851 53.375567 
L 127.705882 53.926499 
L 127.634913 54.477432 
L 127.563944 55.028364 
L 127.492975 55.579297 
L 127.422006 56.13023 
L 127.351038 56.681162 
L 127.280069 57.232095 
L 127.2091 57.783027 
L 127.138131 58.33396 
L 127.067162 58.884893 
L 126.996193 59.435825 
L 126.925224 59.986758 
L 126.979282 60.703245 
L 127.033339 61.419732 
L 127.087396 62.13622 
L 127.141453 62.852707 
L 127.195511 63.569195 
L 127.249568 64.285682 
L 127.303625 65.002169 
L 127.357683 65.718657 
" style="fill:none;stroke:#4169e1;stroke-linecap:square;stroke-width:0.955559;"/>
   </g>
   <g id="line2d_41">
    <path clip-path="url(#pde8fcc4c15)" d="M 122.111194 43.654178 
L 122.030078 44.137538 
L 121.948962 44.620898 
L 121.867847 45.104258 
L 121.786731 45.587618 
L 121.705615 46.070978 
L 121.624499 46.554338 
L 121.543383 47.037698 
L 121.462267 47.521059 
L 121.381151 48.004419 
L 121.300036 48.487779 
L 121.21892 48.971139 
L 121.137804 49.454499 
L 121.056688 49.937859 
L 120.975572 50.421219 
L 120.894456 50.904579 
L 120.813341 51.387939 
L 120.735577 51.884805 
L 120.657814 52.381672 
L 120.58005 52.878538 
L 120.502287 53.375405 
L 120.424523 53.872271 
L 120.34676 54.369138 
L 120.268997 54.866004 
L 120.191233 55.362871 
L 120.11347 55.859737 
L 120.035706 56.356604 
L 119.957943 56.85347 
L 119.880179 57.350337 
L 119.802416 57.847203 
L 119.724652 58.34407 
L 119.646889 58.840936 
L 119.569125 59.337803 
L 119.555656 60.142203 
L 119.542187 60.946603 
L 119.528717 61.751004 
L 119.515248 62.555404 
L 119.501778 63.359805 
L 119.488309 64.164205 
L 119.47484 64.968605 
L 119.46137 65.773006 
" style="fill:none;stroke:#000000;stroke-linecap:square;stroke-width:0.955559;"/>
   </g>
   <g id="line2d_42">
    <path clip-path="url(#pde8fcc4c15)" d="M 116.702833 47.602259 
L 116.496631 48.122782 
L 116.290429 48.643305 
L 116.084227 49.163828 
L 115.878026 49.684351 
L 115.671824 50.204873 
L 115.465622 50.725396 
L 115.25942 51.245919 
L 115.053218 51.766442 
L 114.847016 52.286965 
L 114.640815 52.807488 
L 114.434613 53.328011 
L 114.228411 53.848534 
L 114.022209 54.369057 
L 113.816007 54.88958 
L 113.609805 55.410103 
L 113.403604 55.930626 
L 113.09261 56.647194 
L 112.781616 57.363762 
L 112.470622 58.08033 
L 112.159628 58.796899 
L 111.848634 59.513467 
L 111.53764 60.230035 
L 111.226646 60.946603 
L 110.915652 61.663172 
L 110.699303 62.352646 
L 110.482954 63.042121 
L 110.266606 63.731595 
L 110.050257 64.42107 
L 109.833908 65.110544 
L 109.617559 65.800019 
L 109.40121 66.489493 
L 109.184862 67.178968 
" style="fill:none;stroke:#000000;stroke-linecap:square;stroke-width:0.955559;"/>
   </g>
   <g id="line2d_43">
    <path clip-path="url(#pde8fcc4c15)" d="M 109.887905 48.737769 
L 109.874376 49.183966 
L 109.860847 49.630163 
L 109.847318 50.07636 
L 109.833788 50.522557 
L 109.820259 50.968755 
L 109.80673 51.414952 
L 109.7932 51.861149 
L 109.779671 52.307346 
L 109.556558 52.827869 
L 109.333444 53.348392 
L 109.110331 53.868915 
L 108.887217 54.389438 
L 108.664104 54.909961 
L 108.44099 55.430484 
L 108.217877 55.951007 
L 107.994764 56.47153 
L 107.724358 57.113691 
L 107.453951 57.755853 
L 107.183545 58.398014 
L 106.913139 59.040176 
L 106.642733 59.682338 
L 106.372327 60.324499 
L 106.101921 60.966661 
L 105.831515 61.608822 
L 105.696342 62.379416 
L 105.561169 63.15001 
L 105.425996 63.920604 
L 105.290823 64.691198 
L 105.520581 65.23194 
L 105.750339 65.772682 
L 105.980098 66.313424 
L 106.209856 66.854167 
" style="fill:none;stroke:#000000;stroke-linecap:square;stroke-width:0.955559;"/>
   </g>
   <g id="line2d_44">
    <path clip-path="url(#pde8fcc4c15)" d="M 105.615046 49.765874 
L 105.418992 50.164678 
L 105.222937 50.563481 
L 105.026882 50.962284 
L 104.830827 51.361088 
L 104.634772 51.759891 
L 104.438717 52.158695 
L 104.242662 52.557498 
L 104.046607 52.956301 
L 103.843788 53.422718 
L 103.640968 53.889134 
L 103.438149 54.35555 
L 103.235329 54.821967 
L 103.03251 55.288383 
L 102.82969 55.7548 
L 102.626871 56.221216 
L 102.424051 56.687632 
L 102.234761 57.228374 
L 102.045471 57.769117 
L 101.85618 58.309859 
L 101.66689 58.850601 
" style="fill:none;stroke:#000000;stroke-linecap:square;stroke-width:0.955559;"/>
   </g>
   <g id="line2d_45">
    <path clip-path="url(#pde8fcc4c15)" d="M 101.66689 58.850601 
L 101.734537 59.688808 
L 101.802183 60.527015 
L 101.869829 61.365222 
L 101.937476 62.203428 
L 102.113237 62.649626 
L 102.288998 63.095823 
L 102.464759 63.54202 
L 102.64052 63.988217 
L 102.816281 64.434414 
L 102.992042 64.880612 
L 103.167803 65.326809 
L 103.343564 65.773006 
" style="fill:none;stroke:#008000;stroke-linecap:square;stroke-width:0.955559;"/>
   </g>
   <g id="line2d_46">
    <path clip-path="url(#pde8fcc4c15)" d="M 91.757708 52.552565 
L 92.206808 52.84275 
L 92.655909 53.132936 
L 93.105009 53.423122 
L 93.554109 53.713308 
L 94.0341 53.875547 
L 94.51409 54.037786 
L 94.99408 54.200024 
L 95.47407 54.362263 
L 95.95406 54.524502 
L 96.434051 54.686741 
L 96.914041 54.84898 
L 97.394031 55.011219 
L 97.826729 55.186964 
L 98.259426 55.362709 
L 98.692124 55.538454 
L 99.124822 55.714199 
L 99.557519 55.889945 
L 99.990217 56.06569 
L 100.422915 56.241435 
L 100.855612 56.41718 
L 101.247722 56.741658 
L 101.639832 57.066136 
L 102.031941 57.390613 
L 102.424051 57.715091 
L 102.816161 58.039569 
L 103.208271 58.364046 
L 103.60038 58.688524 
L 103.99249 59.013001 
L 104.377835 59.242853 
L 104.76318 59.472705 
L 105.148526 59.702557 
L 105.533871 59.932409 
L 105.919216 60.16226 
L 106.304561 60.392112 
L 106.689906 60.621964 
L 107.075251 60.851816 
L 107.602594 61.135693 
L 108.129937 61.419571 
L 108.657279 61.703448 
L 109.184622 61.987326 
L 109.711965 62.271203 
L 110.239308 62.555081 
L 110.76665 62.838958 
L 111.293993 63.122836 
L 111.889042 63.393288 
L 112.484091 63.66374 
" style="fill:none;stroke:#008000;stroke-linecap:square;stroke-width:0.955559;"/>
   </g>
   <g id="line2d_47">
    <path clip-path="url(#pde8fcc4c15)" d="M 87.225757 53.875709 
L 87.029702 54.409738 
L 86.833647 54.943767 
L 86.637592 55.477797 
L 86.441537 56.011826 
L 86.245483 56.545855 
L 86.049428 57.079885 
L 85.853373 57.613914 
L 85.657318 58.147943 
L 85.330221 58.728153 
L 85.003123 59.308363 
L 84.676026 59.888573 
L 84.348928 60.468783 
L 83.932394 60.821406 
L 83.51586 61.174029 
L 83.099326 61.526652 
L 82.682791 61.879274 
L 82.047274 61.892862 
L 81.411757 61.906449 
L 80.77624 61.920036 
L 80.140723 61.933624 
" style="fill:none;stroke:#4169e1;stroke-linecap:square;stroke-width:0.955559;"/>
   </g>
   <g id="line2d_48">
    <path clip-path="url(#pde8fcc4c15)" d="M 134.029415 39.253834 
L 133.918951 39.938901 
L 133.808487 40.623968 
L 133.698023 41.309035 
L 133.587558 41.994101 
L 133.477094 42.679168 
L 133.36663 43.364235 
L 133.256166 44.049302 
L 133.145702 44.734368 
L 133.035237 45.419435 
L 132.924773 46.104502 
L 132.814309 46.789569 
L 132.703845 47.474635 
L 132.593381 48.159702 
L 132.482916 48.844769 
L 132.372452 49.529835 
L 132.261988 50.214902 
L 132.151524 50.899969 
L 132.04106 51.585036 
L 131.930595 52.270102 
L 131.820131 52.955169 
L 131.709667 53.640236 
L 131.599203 54.325303 
L 131.488738 55.010369 
L 131.378274 55.695436 
L 131.26781 56.380503 
L 131.157346 57.065569 
L 131.046882 57.750636 
L 130.936417 58.435703 
L 130.825953 59.12077 
L 130.715489 59.805836 
L 130.605025 60.490903 
L 130.494561 61.17597 
L 130.413505 61.676274 
L 130.332449 62.176577 
L 130.251393 62.676881 
L 130.170337 63.177185 
L 129.872693 63.66374 
L 129.575048 64.150294 
" style="fill:none;stroke:#4169e1;stroke-linecap:square;stroke-width:0.955559;"/>
   </g>
   <g id="line2d_49">
    <path clip-path="url(#pde8fcc4c15)" d="M 145.438552 62.428589 
L 144.927672 62.620833 
L 144.416792 62.813078 
L 143.905912 63.005322 
L 143.395032 63.197566 
L 142.884152 63.38981 
L 142.373272 63.582054 
L 141.862391 63.774298 
L 141.351511 63.966542 
L 140.656848 64.282285 
L 139.962186 64.598028 
L 139.267523 64.913771 
L 138.57286 65.229514 
L 138.115857 65.465351 
L 137.658855 65.701187 
L 137.201853 65.937024 
L 136.74485 66.172861 
L 136.162852 66.304366 
L 135.580853 66.435872 
L 134.998854 66.567378 
L 134.416856 66.698883 
L 133.578758 66.658768 
L 132.740661 66.618653 
L 131.902564 66.578539 
L 131.064467 66.538424 
" style="fill:none;stroke:#008000;stroke-linecap:square;stroke-width:0.955559;"/>
   </g>
   <g id="line2d_50">
    <path clip-path="url(#pde8fcc4c15)" d="M 170.857801 23.537212 
L 170.214621 23.570372 
L 169.571442 23.603531 
L 168.928262 23.636691 
L 168.285082 23.66985 
L 167.641902 23.70301 
L 166.998723 23.736169 
L 166.355543 23.769329 
L 165.712363 23.802488 
L 165.374191 24.30635 
L 165.036019 24.810213 
L 164.697846 25.314075 
L 164.359674 25.817937 
L 164.021502 26.3218 
L 163.68333 26.825662 
L 163.345158 27.329524 
L 163.006985 27.833387 
L 162.542799 28.483151 
L 162.078613 29.132915 
L 161.614427 29.782679 
L 161.150241 30.432443 
L 160.789141 30.841032 
L 160.42804 31.249622 
L 160.060834 31.664681 
L 159.693628 32.079741 
L 159.326422 32.494801 
L 158.959215 32.90986 
L 158.592009 33.32492 
L 158.224803 33.739979 
L 157.857596 34.155039 
L 157.49039 34.570099 
L 157.032849 34.861821 
L 156.575308 35.153544 
L 156.117766 35.445266 
L 155.660225 35.736989 
L 155.202684 36.028711 
L 154.745143 36.320434 
L 154.287602 36.612156 
L 153.83006 36.903879 
L 153.591322 37.275103 
L 153.352584 37.646328 
L 153.113846 38.017552 
L 152.875108 38.388776 
L 152.962271 38.802866 
L 152.95377 39.521537 
L 152.945269 40.240208 
L 152.936768 40.958879 
L 152.928268 41.67755 
L 152.822189 42.188044 
L 152.716109 42.698538 
L 152.61003 43.209032 
L 152.503951 43.719527 
L 152.397872 44.230021 
L 152.291793 44.740515 
L 152.185714 45.251009 
L 152.079634 45.761503 
L 151.801147 46.437795 
L 151.522659 47.114087 
L 151.244171 47.790378 
L 150.965684 48.46667 
L 150.687196 49.142961 
L 150.408708 49.819253 
L 150.13022 50.495545 
L 149.851733 51.171836 
L 149.440586 51.662435 
L 149.02944 52.153033 
L 148.618293 52.643632 
L 148.207146 53.13423 
L 148.140817 53.929896 
L 148.074488 54.725562 
L 148.008158 55.521227 
L 147.941829 56.316893 
L 147.749545 56.780964 
L 147.557262 57.245035 
L 147.364979 57.709106 
L 147.172695 58.173177 
L 146.980412 58.637248 
L 146.788128 59.101319 
L 146.595845 59.56539 
L 146.403561 60.029461 
" style="fill:none;stroke:#008000;stroke-linecap:square;stroke-width:0.955559;"/>
   </g>
   <g id="line2d_51">
    <path clip-path="url(#pde8fcc4c15)" d="M 160.42804 31.249622 
L 160.501673 31.899224 
L 160.575306 32.548826 
L 160.648939 33.198428 
L 160.722572 33.848031 
L 160.722572 34.338306 
L 160.722572 34.828581 
L 160.722572 35.318856 
L 160.722572 35.809131 
L 160.650256 36.283554 
L 160.57794 36.757977 
L 160.505624 37.2324 
L 160.433309 37.706823 
L 160.095555 38.148896 
L 159.757802 38.590968 
L 159.420049 39.033041 
L 159.082296 39.475113 
L 158.68839 39.845044 
L 158.294484 40.214974 
L 157.900579 40.584904 
L 157.506673 40.954835 
L 157.281584 41.340455 
" style="fill:none;stroke:#008000;stroke-linecap:square;stroke-width:0.955559;"/>
   </g>
   <g id="line2d_52">
    <path clip-path="url(#pde8fcc4c15)" d="M 173.176217 40.631328 
L 172.52753 41.201347 
L 171.878843 41.771367 
L 171.456202 42.095683 
L 171.033562 42.419998 
L 170.610922 42.744314 
L 170.188281 43.06863 
L 169.578745 43.334068 
L 168.969209 43.599505 
L 168.359673 43.864943 
L 167.750137 44.130381 
L 166.944127 44.405685 
L 166.138116 44.68099 
L 165.33953 45.029407 
L 164.540943 45.377824 
" style="fill:none;stroke:#008000;stroke-linecap:square;stroke-width:0.955559;"/>
   </g>
   <g id="line2d_53">
    <path clip-path="url(#pde8fcc4c15)" d="M 174.041613 33.357594 
L 173.392686 33.495084 
L 172.743759 33.632575 
L 172.134343 33.947347 
L 171.524926 34.26212 
L 171.131739 34.871284 
L 170.738552 35.480448 
L 170.600984 35.922844 
L 170.463416 36.36524 
L 170.325849 36.807635 
L 170.188281 37.250031 
L 169.932542 38.016743 
L 169.676802 38.783455 
L 169.460573 39.530433 
L 169.244344 40.277411 
L 168.772615 40.985244 
L 168.261376 41.299693 
L 167.750137 41.614142 
L 167.415975 42.036804 
L 167.081814 42.459466 
L 166.747653 42.882128 
L 166.413491 43.30479 
L 165.784439 43.855076 
L 165.155388 44.405362 
L 164.848165 44.891593 
L 164.540943 45.377824 
L 164.140332 46.012221 
L 163.739722 46.646619 
L 163.375988 47.177332 
L 163.012253 47.708046 
L 162.648519 48.238759 
L 162.284785 48.769472 
L 161.822754 49.310053 
L 161.360723 49.850633 
L 160.898692 50.391214 
L 160.436661 50.931794 
L 159.768338 51.48208 
L 159.100016 52.032365 
" style="fill:none;stroke:#008000;stroke-linecap:square;stroke-width:0.955559;"/>
   </g>
   <g id="line2d_54">
    <path clip-path="url(#pde8fcc4c15)" d="M 173.454466 24.907588 
L 173.710684 25.362116 
L 173.966902 25.816643 
L 174.28945 26.51089 
L 174.611998 27.205136 
L 174.653184 27.775479 
L 174.694371 28.345822 
L 174.636662 28.891578 
L 174.578953 29.437335 
L 174.89288 30.106671 
L 175.206807 30.776007 
L 175.289659 31.313353 
L 175.372511 31.850698 
L 175.033441 32.354722 
L 174.694371 32.858746 
L 174.55381 33.594401 
L 174.413249 34.330056 
L 174.132367 35.10712 
L 173.851484 35.884184 
L 173.636452 36.520523 
L 173.421421 37.156861 
L 173.450395 37.603139 
L 173.479369 38.049418 
L 173.508343 38.495696 
L 173.537318 38.941974 
L 173.652975 39.685878 
L 173.768632 40.429783 
L 173.88429 41.173687 
L 173.999947 41.917592 
L 174.109498 42.409404 
L 174.21905 42.901215 
L 174.328601 43.393027 
L 174.438152 43.884839 
L 174.547704 44.37665 
L 174.657255 44.868462 
L 174.766806 45.360274 
L 174.876357 45.852085 
L 175.008657 46.492629 
L 175.140957 47.133173 
L 175.273256 47.773718 
L 175.405556 48.414262 
L 175.554258 48.82738 
L 175.702961 49.240499 
L 175.851663 49.653617 
L 176.000365 50.066736 
L 176.041791 50.6704 
L 176.083217 51.274064 
L 175.587064 51.918491 
L 174.89288 52.439014 
L 174.198696 52.959536 
L 173.472185 53.27075 
L 172.693952 53.60461 
L 171.871539 53.871099 
L 171.049127 54.137588 
L 170.226714 54.404077 
L 169.404301 54.670566 
L 168.581888 54.937055 
L 167.759475 55.203543 
L 166.937063 55.470032 
L 166.11465 55.736521 
L 165.259072 55.906039 
L 164.403495 56.075557 
L 163.547917 56.245075 
L 162.69234 56.414592 
L 162.192235 56.453818 
L 161.692131 56.493043 
L 161.192026 56.532268 
L 160.691921 56.571493 
L 160.191817 56.610719 
L 159.691712 56.649944 
L 159.191608 56.689169 
L 158.691503 56.728394 
" style="fill:none;stroke:#008000;stroke-linecap:square;stroke-width:0.955559;"/>
   </g>
   <g id="line2d_55">
    <path clip-path="url(#pde8fcc4c15)" d="M 36.334579 28.217713 
L 35.698104 27.915072 
L 35.061629 27.612431 
L 34.425154 27.30979 
L 33.788679 27.00715 
L 33.016552 26.809001 
L 32.244425 26.610853 
L 31.472298 26.412705 
L 30.700171 26.214557 
L 30.209765 26.318888 
L 29.719358 26.423219 
L 29.228951 26.52755 
L 28.738545 26.631881 
L 28.269091 26.350107 
L 27.799636 26.068332 
L 27.330182 25.786557 
L 26.860728 25.504783 
L 26.51639 25.097972 
L 26.172052 24.691162 
L 25.827713 24.284352 
L 25.483375 23.877542 
L 25.264273 23.449704 
L 25.04517 23.021865 
L 24.826068 22.594027 
L 24.606965 22.166189 
L 24.283579 21.727999 
L 23.960193 21.289808 
L 23.636808 20.851618 
L 23.313422 20.413428 
L 22.666531 20.329963 
L 22.019639 20.246498 
L 21.372748 20.163033 
L 20.725857 20.079568 
L 19.911944 20.257012 
L 19.098032 20.434456 
L 18.28412 20.611899 
L 17.470208 20.789343 
L 16.958969 21.258752 
L 16.44773 21.728161 
L 15.93649 22.197569 
L 15.425251 22.666978 
L 15.226981 23.094816 
L 15.028711 23.522654 
L 14.830441 23.950493 
L 14.632172 24.378331 
L 14.86181 25.025183 
L 15.091449 25.672036 
L 15.321087 26.318888 
L 15.550726 26.965741 
L 15.926313 27.675192 
L 16.301901 28.384643 
L 16.677488 29.094094 
L 17.053075 29.803545 
L 17.40783 30.46075 
L 17.762584 31.117954 
L 18.117339 31.775159 
L 18.472093 32.432364 
L 18.785063 33.22528 
L 19.098032 34.018195 
L 19.411002 34.811111 
L 19.723971 35.604027 
L 19.850644 36.157548 
L 19.977316 36.711069 
L 20.103988 37.264589 
L 20.230661 37.81811 
" style="fill:none;stroke:#4169e1;stroke-linecap:square;stroke-width:0.955559;"/>
   </g>
   <g id="line2d_56">
    <path clip-path="url(#pde8fcc4c15)" d="M 25.933074 36.118404 
L 26.188814 36.61984 
L 26.444553 37.121276 
L 26.700292 37.622712 
L 26.956032 38.124148 
L 27.303962 38.656317 
L 27.651892 39.188486 
L 27.999822 39.720655 
L 28.347752 40.252824 
L 28.869647 40.477824 
L 29.391542 40.702823 
L 29.913437 40.927822 
L 30.435332 41.152821 
L 31.192613 41.275592 
L 31.949894 41.398363 
L 32.707175 41.521134 
L 33.464455 41.643905 
L 34.274775 41.779131 
" style="fill:none;stroke:#008000;stroke-linecap:square;stroke-width:0.955559;"/>
   </g>
   <g id="line2d_57">
    <path clip-path="url(#pde8fcc4c15)" d="M 30.435332 41.152821 
L 30.496873 41.603143 
L 30.558413 42.053465 
L 30.722081 42.565091 
L 30.88575 43.076718 
L 31.049418 43.588344 
L 31.213087 44.099971 
L 30.803856 44.631817 
L 30.394625 45.163662 
L 29.93415 45.317166 
L 29.473676 45.47067 
L 29.013201 45.624175 
L 28.552727 45.777679 
L 28.122903 45.532137 
L 27.693078 45.286595 
L 27.263254 45.041053 
L 26.83343 44.795511 
L 26.608341 44.386275 
L 26.383252 43.977038 
L 26.158163 43.567802 
L 25.933074 43.158565 
L 25.564671 42.616206 
L 25.196267 42.073846 
L 24.827863 41.531486 
L 24.45946 40.989127 
L 24.183127 40.620814 
L 23.906795 40.252501 
L 23.630462 39.884188 
L 23.354129 39.515875 
L 22.985726 39.12702 
L 22.617322 38.738164 
L 22.248919 38.349309 
L 21.880515 37.960453 
" style="fill:none;stroke:#000000;stroke-linecap:square;stroke-width:0.955559;"/>
   </g>
   <g id="line2d_58">
    <path clip-path="url(#pde8fcc4c15)" d="M 25.725226 35.473977 
L 25.165677 35.764082 
L 24.606127 36.054187 
L 24.046577 36.344292 
L 23.487028 36.634397 
L 22.927478 36.924502 
L 22.367928 37.214607 
L 21.808379 37.504712 
L 21.248829 37.794817 
" style="fill:none;stroke:#ff0000;stroke-linecap:square;stroke-width:0.955559;"/>
   </g>
   <g id="line2d_59">
    <path clip-path="url(#pde8fcc4c15)" d="M 21.248829 37.794817 
L 20.739745 37.806464 
L 20.230661 37.81811 
L 19.836037 37.827168 
L 19.05948 38.025478 
L 18.282923 38.223788 
L 17.523128 38.643377 
L 16.763333 39.062965 
L 16.357933 39.278259 
L 15.952534 39.493553 
L 15.547134 39.708847 
L 15.141735 39.924141 
L 14.685331 40.119863 
L 14.228927 40.315585 
L 13.772523 40.511307 
L 13.316119 40.707028 
L 12.726578 40.933645 
L 12.137036 41.160262 
L 11.547495 41.386879 
L 10.957953 41.613495 
L 10.169903 41.902711 
L 9.381852 42.191926 
" style="fill:none;stroke:#4169e1;stroke-linecap:square;stroke-width:0.955559;"/>
   </g>
   <g id="line2d_60">
    <path clip-path="url(#pde8fcc4c15)" d="M 31.356282 33.535523 
L 31.4981 34.097616 
L 31.639918 34.65971 
L 31.781736 35.221804 
L 31.923554 35.783897 
L 32.065372 36.345991 
L 32.20719 36.908084 
L 32.349008 37.470178 
L 32.490826 38.032272 
L 32.869047 38.757089 
L 33.247268 39.481907 
L 33.62549 40.206725 
L 34.003711 40.931542 
L 34.139243 41.355337 
L 34.274775 41.779131 
L 34.408991 42.198477 
L 34.543206 42.617823 
L 34.677421 43.037169 
L 34.811637 43.456515 
L 34.945852 43.875861 
L 35.080067 44.295207 
L 35.214282 44.714554 
L 35.348498 45.1339 
L 35.548144 45.916463 
L 35.747791 46.699027 
L 35.947438 47.481591 
L 36.147085 48.264154 
L 36.346731 49.046718 
L 36.546378 49.829282 
L 36.746025 50.611845 
L 36.945672 51.394409 
L 37.006074 51.880276 
L 37.066477 52.366144 
L 37.12688 52.852011 
L 37.187283 53.337878 
L 37.247686 53.823745 
L 37.308089 54.309612 
L 37.368492 54.79548 
L 37.428894 55.281347 
L 37.489297 55.767214 
L 37.5497 56.253081 
L 37.610103 56.738949 
L 37.670506 57.224816 
L 37.730909 57.710683 
L 37.791312 58.19655 
L 37.851714 58.682418 
L 37.912117 59.168285 
L 38.027715 60.019189 
L 38.143312 60.870094 
L 38.25891 61.720998 
L 38.374508 62.571903 
L 38.490105 63.422808 
L 38.605703 64.273712 
L 38.7213 65.124617 
L 38.836898 65.975521 
" style="fill:none;stroke:#000000;stroke-linecap:square;stroke-width:0.955559;"/>
   </g>
   <g id="line2d_61">
    <path clip-path="url(#pde8fcc4c15)" d="M 34.886347 31.644947 
L 35.411714 32.044155 
L 35.937081 32.443363 
L 36.462449 32.842571 
L 36.987816 33.241778 
L 37.350293 33.488614 
L 37.71277 33.73545 
L 38.075247 33.982286 
L 38.437724 34.229122 
L 38.800201 34.475958 
L 39.162678 34.722794 
L 39.525155 34.96963 
L 39.887632 35.216466 
L 40.391927 35.668243 
L 40.896222 36.120021 
L 41.400517 36.571799 
L 41.904812 37.023576 
L 42.361935 37.370376 
L 42.819057 37.717176 
L 43.276179 38.063975 
L 43.733301 38.410775 
L 44.190423 38.757575 
L 44.647545 39.104374 
L 45.104668 39.451174 
L 45.56179 39.797973 
L 46.097513 39.598208 
L 46.633237 39.398442 
L 47.168961 39.198676 
L 47.704685 38.998911 
L 48.240408 38.799145 
L 48.776132 38.59938 
L 49.311856 38.399614 
L 49.847579 38.199848 
" style="fill:none;stroke:#008000;stroke-linecap:square;stroke-width:0.955559;"/>
   </g>
   <g id="line2d_62">
    <path clip-path="url(#pde8fcc4c15)" d="M 49.471154 48.800529 
L 49.651539 49.219572 
L 49.831925 49.638615 
L 50.01231 50.057658 
L 50.192696 50.4767 
L 50.373081 50.895743 
L 50.553467 51.314786 
L 50.733852 51.733829 
L 50.914238 52.152871 
L 51.094623 52.571914 
L 51.275009 52.990957 
L 51.455394 53.41 
L 51.63578 53.829043 
L 51.816165 54.248085 
L 51.99655 54.667128 
L 52.176936 55.086171 
L 52.357321 55.505214 
L 52.537707 55.924257 
L 52.718092 56.343299 
L 52.898478 56.762342 
L 53.078863 57.181385 
L 53.259249 57.600428 
L 53.439634 58.019471 
L 53.62002 58.438513 
L 53.800405 58.857556 
L 53.98079 59.276599 
L 54.161176 59.695642 
L 54.341561 60.114685 
L 54.521947 60.533727 
L 54.702332 60.95277 
L 54.882718 61.371813 
L 55.063103 61.790856 
L 55.243489 62.209899 
" style="fill:none;stroke:#008000;stroke-linecap:square;stroke-width:0.955559;"/>
   </g>
   <g id="line2d_63">
    <path clip-path="url(#pde8fcc4c15)" d="M 196.43126 45.784796 
L 195.834295 45.757298 
L 195.23733 45.7298 
L 194.640366 45.702302 
L 194.043401 45.674803 
L 193.446436 45.647305 
L 192.849472 45.619807 
L 192.252507 45.592309 
L 191.655542 45.564811 
L 191.164178 45.633637 
L 190.672814 45.702463 
L 190.181449 45.771289 
L 189.690085 45.840116 
L 189.19872 45.908942 
L 188.707356 45.977768 
L 188.215991 46.046594 
L 187.724627 46.11542 
L 187.191897 46.32206 
L 186.659166 46.5287 
L 186.126436 46.735341 
L 185.593705 46.941981 
L 185.060975 47.148621 
L 184.528244 47.355261 
L 183.995514 47.561901 
L 183.462783 47.768541 
L 182.645399 48.053228 
L 181.828015 48.337914 
L 181.01063 48.6226 
L 180.193246 48.907286 
L 179.403399 49.136977 
L 178.613553 49.366667 
L 177.823706 49.596357 
L 177.033859 49.826047 
L 176.446233 50.119791 
" style="fill:none;stroke:#008000;stroke-linecap:square;stroke-width:0.955559;"/>
   </g>
   <g id="line2d_64">
    <path clip-path="url(#pde8fcc4c15)" d="M 197.018886 48.981046 
L 196.660779 49.348388 
L 196.302672 49.715731 
L 195.944565 50.083073 
L 195.586458 50.450415 
L 195.182255 50.836036 
L 194.778053 51.221656 
L 194.373851 51.607277 
L 193.969649 51.992897 
L 193.290071 52.36024 
L 192.610494 52.727582 
L 191.930917 53.094924 
L 191.25134 53.462266 
L 190.562544 53.857107 
L 189.873748 54.251947 
L 189.184952 54.646788 
L 188.496155 55.041628 
L 187.715408 54.958972 
L 186.934661 54.876316 
L 186.153913 54.79366 
L 185.373166 54.711004 
L 184.702688 54.481476 
L 184.03221 54.251947 
L 183.361732 54.022419 
L 182.691255 53.792891 
L 182.103509 53.508204 
L 181.515763 53.223518 
L 180.928018 52.938832 
L 180.340272 52.654146 
" style="fill:none;stroke:#008000;stroke-linecap:square;stroke-width:0.955559;"/>
   </g>
   <g id="line2d_65">
    <path clip-path="url(#pde8fcc4c15)" d="M 196.21096 47.437917 
L 195.587565 47.622741 
L 194.964171 47.807564 
L 194.340776 47.992388 
L 193.717381 48.177212 
L 193.093987 48.362035 
L 192.470592 48.546859 
L 191.847197 48.731683 
L 191.223803 48.916506 
L 190.600408 49.10133 
L 189.977013 49.286154 
L 189.353619 49.470977 
L 188.730224 49.655801 
L 188.106829 49.840625 
L 187.483435 50.025448 
L 186.86004 50.210272 
L 186.236645 50.395096 
L 185.613251 50.579919 
L 184.989856 50.764743 
L 184.366461 50.949567 
L 183.743067 51.13439 
L 183.119672 51.319214 
L 182.496277 51.504038 
L 181.872883 51.688861 
L 181.249488 51.873685 
L 180.626093 52.058509 
L 180.002699 52.243332 
L 179.379304 52.428156 
L 178.755909 52.612979 
L 178.132515 52.797803 
L 177.50912 52.982627 
L 176.885725 53.16745 
L 176.262331 53.352274 
L 175.564794 53.331893 
L 174.867258 53.311512 
L 174.169722 53.291131 
L 173.472185 53.27075 
" style="fill:none;stroke:#008000;stroke-linecap:square;stroke-width:0.955559;"/>
   </g>
   <g id="line2d_66">
    <path clip-path="url(#pde8fcc4c15)" d="M 91.44833 34.890371 
L 90.95062 35.403615 
L 90.45291 35.916859 
L 89.9552 36.430103 
L 89.45749 36.943347 
L 88.757559 37.161067 
L 88.057628 37.378787 
L 87.357697 37.596508 
L 86.657767 37.814228 
L 86.175621 38.171946 
L 85.693476 38.529664 
L 85.21133 38.887382 
L 84.729185 39.2451 
L 84.24704 39.602818 
L 83.764894 39.960536 
L 83.282749 40.318254 
L 82.800604 40.675972 
L 82.131802 41.010316 
L 81.463001 41.344661 
L 80.794199 41.679005 
L 80.125397 42.01335 
L 79.456596 42.347695 
L 78.787794 42.682039 
L 78.118993 43.016384 
L 77.450191 43.350728 
L 77.053592 43.747348 
L 76.656992 44.143968 
L 76.260392 44.540588 
L 75.863793 44.937207 
L 75.467193 45.333827 
L 75.070594 45.730447 
L 74.673994 46.127066 
L 74.277395 46.523686 
L 73.810754 46.959127 
L 73.344113 47.394567 
L 72.877473 47.830008 
L 72.410832 48.265448 
L 71.944192 48.700889 
L 71.477551 49.136329 
L 71.010911 49.57177 
L 70.54427 50.007211 
L 69.953292 50.364848 
L 69.362314 50.722485 
L 68.771335 51.080122 
L 68.180357 51.437759 
L 67.698212 51.686698 
L 67.216066 51.935636 
L 66.733921 52.184575 
L 66.251776 52.433514 
L 65.505151 52.433514 
L 64.913933 52.993181 
L 64.322715 53.552848 
L 63.871699 54.283813 
L 63.420683 55.014777 
L 62.969667 55.745741 
L 62.518651 56.476706 
" style="fill:none;stroke:#008000;stroke-linecap:square;stroke-width:0.955559;"/>
   </g>
   <g id="line2d_67">
    <path clip-path="url(#pde8fcc4c15)" d="M 135.25639 37.290146 
L 122.953093 41.666389 
L 118.076834 43.553567 
L 116.876678 44.078619 
L 116.238767 45.091197 
L 114.663623 46.253881 
L 106.945825 48.476051 
L 101.047656 48.053875 
L 94.825742 49.540147 
L 88.017639 51.917116 
L 82.782884 53.796813 
L 71.414933 57.280297 
L 65.019773 59.868031 
L 62.525356 60.805878 
L 62.525356 60.805878 
" style="fill:none;stroke:#4169e1;stroke-linecap:square;stroke-width:0.955559;"/>
   </g>
   <g id="line2d_68">
    <path clip-path="url(#pde8fcc4c15)" d="M 42.924418 40.031546 
L 42.189287 40.374625 
L 41.454156 40.717704 
L 40.719025 41.060783 
L 39.983894 41.403863 
L 39.518151 41.673344 
L 39.052408 41.942826 
L 38.586666 42.212307 
L 38.120923 42.481788 
L 37.87584 42.886172 
L 37.630756 43.290556 
L 37.385673 43.69494 
L 37.140589 44.099324 
L 36.837318 44.422022 
L 36.534046 44.744721 
L 36.230775 45.067419 
L 35.927503 45.390117 
L 35.613516 45.706588 
L 35.299529 46.023059 
L 34.985542 46.33953 
L 34.671555 46.656001 
L 34.357568 46.972471 
L 34.04358 47.288942 
L 33.729593 47.605413 
L 33.415606 47.921884 
L 32.827382 48.436584 
L 32.239157 48.951283 
L 31.650933 49.465983 
L 31.062708 49.980683 
L 30.437727 50.434078 
L 29.812746 50.887473 
L 29.187765 51.340869 
L 28.562784 51.794264 
L 27.839865 52.112757 
L 27.116946 52.431249 
L 26.394028 52.749742 
L 25.671109 53.068235 
L 24.948071 52.945787 
L 24.225032 52.82334 
L 23.501994 52.700893 
L 22.778955 52.578445 
" style="fill:none;stroke:#4169e1;stroke-linecap:square;stroke-width:0.955559;"/>
   </g>
  </g>
 </g>
 <defs>
  <clipPath id="pde8fcc4c15">
   <rect height="72" width="206.400737" x="0" y="0"/>
  </clipPath>
 </defs>
</svg>
