<?xml version="1.0" encoding="utf-8" standalone="no"?>
<!DOCTYPE svg PUBLIC "-//W3C//DTD SVG 1.1//EN"
  "http://www.w3.org/Graphics/SVG/1.1/DTD/svg11.dtd">
<svg height="72pt" version="1.1" viewBox="0 0 130.822283 72" width="130.822283pt" xmlns="http://www.w3.org/2000/svg" xmlns:xlink="http://www.w3.org/1999/xlink">
 <metadata>
  <rdf:RDF xmlns:cc="http://creativecommons.org/ns#" xmlns:dc="http://purl.org/dc/elements/1.1/" xmlns:rdf="http://www.w3.org/1999/02/22-rdf-syntax-ns#">
   <cc:Work>
    <dc:type rdf:resource="http://purl.org/dc/dcmitype/StillImage"/>
    <dc:date>2022-04-19T00:43:45.272882</dc:date>
    <dc:format>image/svg+xml</dc:format>
    <dc:creator>
     <cc:Agent>
      <dc:title>Matplotlib v3.4.3, https://matplotlib.org/</dc:title>
     </cc:Agent>
    </dc:creator>
   </cc:Work>
  </rdf:RDF>
 </metadata>
 <defs>
  <style type="text/css">*{stroke-linecap:butt;stroke-linejoin:round;}</style>
 </defs>
 <g id="figure_1">
  <g id="patch_1">
   <path d="M 0 72 
L 130.822283 72 
L 130.822283 0 
L 0 0 
z
" style="fill:#ffffff;"/>
  </g>
  <g id="axes_1">
   <g id="patch_2">
    <path clip-path="url(#p5af3cd9ca4)" d="M 93.190504 55.350902 
L 93.190504 55.350902 
L 93.535372 55.580447 
L 93.88024 55.809992 
L 94.225109 56.039538 
L 94.569977 56.269083 
L 94.914845 56.498628 
L 95.259714 56.728173 
L 95.604582 56.957719 
L 95.94945 57.187264 
L 96.294318 57.416809 
L 96.639187 57.646354 
L 96.984055 57.8759 
L 97.328923 58.105445 
L 97.673791 58.33499 
L 98.01866 58.564535 
L 98.363528 58.794081 
L 98.708396 59.023626 
L 99.053264 59.253171 
L 99.398133 59.482716 
L 99.743001 59.712262 
L 100.087869 59.941807 
L 100.432738 60.171352 
L 100.777606 60.400897 
L 101.122474 60.630443 
L 101.467342 60.859988 
L 101.812211 61.089533 
L 102.157079 61.319078 
L 102.501947 61.548624 
L 102.846815 61.778169 
L 103.191684 62.007714 
L 103.536552 62.237259 
L 103.88142 62.466805 
L 104.226289 62.69635 
L 103.924939 62.728764 
L 103.62359 62.761179 
L 103.322241 62.793594 
L 103.020891 62.826008 
L 102.719542 62.858423 
L 102.418193 62.890837 
L 102.116844 62.923252 
L 101.815494 62.955666 
L 101.357081 63.108447 
L 100.898668 63.261228 
L 100.440254 63.414009 
L 99.981841 63.56679 
L 99.523428 63.719571 
L 99.065015 63.872352 
L 98.606601 64.025133 
L 98.148188 64.177914 
L 97.65579 64.194896 
L 97.163393 64.211877 
L 96.670995 64.228859 
L 96.178597 64.24584 
L 95.949391 64.054877 
L 95.720184 63.863915 
L 95.490977 63.672952 
L 95.261771 63.481989 
L 95.032564 63.291026 
L 94.803358 63.100063 
L 94.574151 62.9091 
L 94.344944 62.718138 
L 94.115738 62.527175 
L 93.886531 62.336212 
L 93.657324 62.145249 
L 93.428118 61.954286 
L 93.198911 61.763323 
L 92.969704 61.57236 
L 92.740498 61.381398 
L 92.511291 61.190435 
L 92.341527 60.723601 
L 92.171764 60.256767 
L 92.002 59.789934 
L 91.832236 59.3231 
L 91.662473 58.856266 
L 91.492709 58.389433 
L 91.322946 57.922599 
L 91.153182 57.455765 
z
" style="opacity:0.1;"/>
   </g>
   <g id="patch_3">
    <path clip-path="url(#p5af3cd9ca4)" d="M 93.190504 55.350902 
L 93.190504 55.350902 
L 93.535372 55.580447 
L 93.88024 55.809992 
L 94.225109 56.039538 
L 94.569977 56.269083 
L 94.914845 56.498628 
L 95.259714 56.728173 
L 95.604582 56.957719 
L 95.94945 57.187264 
L 96.294318 57.416809 
L 96.639187 57.646354 
L 96.984055 57.8759 
L 97.328923 58.105445 
L 97.673791 58.33499 
L 98.01866 58.564535 
L 98.363528 58.794081 
L 98.708396 59.023626 
L 99.053264 59.253171 
L 99.398133 59.482716 
L 99.743001 59.712262 
L 100.087869 59.941807 
L 100.432738 60.171352 
L 100.777606 60.400897 
L 101.122474 60.630443 
L 101.467342 60.859988 
L 101.812211 61.089533 
L 102.157079 61.319078 
L 102.501947 61.548624 
L 102.846815 61.778169 
L 103.191684 62.007714 
L 103.536552 62.237259 
L 103.88142 62.466805 
L 104.226289 62.69635 
L 103.924939 62.728764 
L 103.62359 62.761179 
L 103.322241 62.793594 
L 103.020891 62.826008 
L 102.719542 62.858423 
L 102.418193 62.890837 
L 102.116844 62.923252 
L 101.815494 62.955666 
L 101.357081 63.108447 
L 100.898668 63.261228 
L 100.440254 63.414009 
L 99.981841 63.56679 
L 99.523428 63.719571 
L 99.065015 63.872352 
L 98.606601 64.025133 
L 98.148188 64.177914 
L 97.65579 64.194896 
L 97.163393 64.211877 
L 96.670995 64.228859 
L 96.178597 64.24584 
L 95.949391 64.054877 
L 95.720184 63.863915 
L 95.490977 63.672952 
L 95.261771 63.481989 
L 95.032564 63.291026 
L 94.803358 63.100063 
L 94.574151 62.9091 
L 94.344944 62.718138 
L 94.115738 62.527175 
L 93.886531 62.336212 
L 93.657324 62.145249 
L 93.428118 61.954286 
L 93.198911 61.763323 
L 92.969704 61.57236 
L 92.740498 61.381398 
L 92.511291 61.190435 
L 92.341527 60.723601 
L 92.171764 60.256767 
L 92.002 59.789934 
L 91.832236 59.3231 
L 91.662473 58.856266 
L 91.492709 58.389433 
L 91.322946 57.922599 
L 91.153182 57.455765 
z
" style="fill:none;stroke:#000000;stroke-linejoin:miter;stroke-width:0.605659;"/>
   </g>
   <g id="line2d_1">
    <path clip-path="url(#p5af3cd9ca4)" d="M 23.293614 41.047486 
L 24.232359 40.842318 
L 25.171103 40.63715 
L 26.109847 40.431983 
L 27.048592 40.226815 
L 28.509564 39.907476 
L 29.970536 39.588136 
L 31.244139 39.309809 
L 32.517743 39.031482 
L 33.585382 38.798118 
L 34.653022 38.564755 
L 35.720662 38.331392 
L 36.788301 38.098028 
L 37.827852 37.870752 
L 38.867402 37.643477 
L 39.906952 37.416201 
L 40.946502 37.188925 
L 41.924255 36.975214 
L 42.902008 36.761502 
L 43.879762 36.54779 
L 44.857515 36.334078 
L 45.933304 36.099006 
L 47.009094 35.863934 
L 48.084883 35.628861 
L 49.160673 35.393789 
L 50.701562 35.056934 
L 52.242451 34.720079 
L 53.333275 34.481589 
L 54.424098 34.243099 
L 55.514921 34.004609 
L 56.605745 33.766119 
L 57.558732 33.557854 
L 58.511719 33.349589 
L 59.464706 33.141325 
L 60.417692 32.93306 
L 62.189153 32.545794 
L 63.960614 32.158528 
L 65.044553 31.92164 
L 66.128493 31.684752 
L 67.212432 31.447864 
L 68.296372 31.210976 
L 69.408322 30.967894 
L 70.520272 30.724812 
L 71.632221 30.481729 
L 72.744171 30.238647 
L 74.584629 29.836642 
L 75.915836 29.545498 
L 77.247042 29.254355 
L 77.85979 29.120638 
L 78.534572 28.973251 
L 80.026719 28.647076 
L 81.518867 28.320901 
L 82.913691 28.015873 
" style="fill:none;stroke:#808080;stroke-linecap:square;stroke-width:0.605659;"/>
   </g>
   <g id="line2d_2">
    <path clip-path="url(#p5af3cd9ca4)" d="M 50.35072 21.940521 
L 51.856002 22.086626 
L 53.622241 22.257724 
L 55.388479 22.428821 
L 56.852933 22.570869 
L 58.317387 22.712916 
L 60.073655 22.883159 
L 61.829923 23.053402 
L 63.24706 23.19075 
L 64.664197 23.328098 
L 65.922213 23.450067 
L 67.180228 23.572035 
L 68.438244 23.694004 
L 69.696259 23.815972 
L 70.823797 23.925338 
L 71.951334 24.034704 
L 73.078872 24.144069 
L 74.20641 24.253435 
L 75.287896 24.358102 
L 76.85727 24.510188 
L 78.426645 24.662275 
L 79.519684 24.768223 
L 80.612723 24.874171 
L 81.331815 24.944234 
L 82.413618 25.0489 
" style="fill:none;stroke:#808080;stroke-linecap:square;stroke-width:0.605659;"/>
   </g>
   <g id="line2d_3">
    <path clip-path="url(#p5af3cd9ca4)" d="M 20.382114 38.744397 
L 21.907653 37.831876 
L 23.257217 37.049868 
L 24.60678 36.267861 
L 25.848892 35.539895 
L 27.091003 34.811929 
L 28.492948 33.989977 
L 29.894892 33.168025 
L 31.403498 32.283701 
L 32.912104 31.399376 
L 34.021997 30.748735 
L 35.131889 30.098095 
L 36.241782 29.447454 
L 37.351675 28.796813 
L 38.946844 27.86165 
L 39.903787 27.300724 
L 40.86073 26.739797 
L 42.05141 26.041736 
L 43.24209 25.343675 
L 44.712082 24.481993 
L 46.182075 23.62031 
" style="fill:none;stroke:#808080;stroke-linecap:square;stroke-width:0.605659;"/>
   </g>
   <g id="line2d_4">
    <path clip-path="url(#p5af3cd9ca4)" d="M 15.102864 38.852054 
L 15.40639 37.781893 
L 15.709915 36.711732 
L 16.144947 35.178475 
L 16.579978 33.645219 
L 16.999501 32.166432 
L 17.419024 30.687644 
L 17.899316 28.994398 
L 18.379607 27.301151 
L 18.682895 26.231951 
L 18.986183 25.162752 
L 19.289471 24.093552 
L 19.592759 23.024352 
L 19.968763 21.698933 
L 20.344767 20.373514 
L 20.765081 18.89195 
L 21.185396 17.410386 
L 21.494143 16.321642 
L 21.802891 15.232897 
L 22.175888 13.918372 
L 22.548886 12.603847 
L 22.870135 11.470886 
" style="fill:none;stroke:#808080;stroke-linecap:square;stroke-width:0.605659;"/>
   </g>
   <g id="line2d_5">
    <path clip-path="url(#p5af3cd9ca4)" d="M 5.946467 40.694183 
L 6.793743 39.011403 
L 7.641018 37.328623 
L 8.329251 35.961978 
L 9.017484 34.595334 
L 9.807789 33.025551 
L 10.598094 31.455768 
L 11.046261 30.565676 
L 11.494427 29.675584 
L 11.942594 28.785492 
L 12.39076 27.8954 
L 13.070132 26.546057 
L 13.749503 25.196715 
L 14.430773 23.843741 
L 15.112043 22.490767 
L 15.627624 21.466745 
" style="fill:none;stroke:#808080;stroke-linecap:square;stroke-width:0.605659;"/>
   </g>
   <g id="line2d_6">
    <path clip-path="url(#p5af3cd9ca4)" d="M 19.510152 9.328428 
L 19.879509 7.814503 
L 20.248867 6.300578 
L 20.618225 4.786653 
L 20.987582 3.272727 
" style="fill:none;stroke:#808080;stroke-linecap:square;stroke-width:0.605659;"/>
   </g>
   <g id="line2d_7">
    <path clip-path="url(#p5af3cd9ca4)" d="M 12.544264 41.97325 
L 13.051616 40.539106 
L 13.689684 38.735853 
L 14.205107 37.279067 
L 14.72053 35.822281 
L 15.273617 34.258906 
L 15.826704 32.695531 
L 16.269648 31.443806 
L 16.712592 30.192081 
L 17.206652 28.795318 
L 17.700711 27.398555 
L 17.946633 26.703911 
" style="fill:none;stroke:#808080;stroke-linecap:square;stroke-width:0.605659;"/>
   </g>
   <g id="line2d_8">
    <path clip-path="url(#p5af3cd9ca4)" d="M 12.589207 43.793591 
L 13.591727 42.735178 
L 14.594246 41.676766 
" style="fill:none;stroke:#808080;stroke-linecap:square;stroke-width:0.605659;"/>
   </g>
   <g id="line2d_9">
    <path clip-path="url(#p5af3cd9ca4)" d="M 10.299633 41.634045 
L 10.873688 40.446828 
L 11.447743 39.259612 
L 12.021798 38.072395 
L 12.595854 36.885179 
" style="fill:none;stroke:#808080;stroke-linecap:square;stroke-width:0.605659;"/>
   </g>
   <g id="line2d_10">
    <path clip-path="url(#p5af3cd9ca4)" d="M 26.351655 42.205225 
L 27.431242 41.948471 
L 28.78951 41.625714 
L 30.147777 41.302957 
L 31.496391 40.98255 
L 32.845006 40.662142 
L 34.33288 40.308626 
L 35.820755 39.95511 
L 37.340597 39.59369 
L 38.985932 39.202793 
L 40.631266 38.811896 
L 42.287995 38.418222 
L 43.944723 38.024548 
L 45.380692 37.683207 
L 46.594477 37.394413 
L 47.753348 37.119076 
L 48.912219 36.84374 
L 50.071091 36.568403 
L 51.229962 36.293066 
L 52.398882 36.015273 
L 53.567802 35.737479 
L 54.736723 35.459686 
L 55.905643 35.181893 
L 57.202667 34.873661 
L 58.499692 34.565429 
L 59.440731 34.341785 
L 60.38177 34.11814 
L 61.322808 33.894496 
L 62.263847 33.670851 
" style="fill:none;stroke:#808080;stroke-linecap:square;stroke-width:0.605659;"/>
   </g>
   <g id="line2d_11">
    <path clip-path="url(#p5af3cd9ca4)" d="M 110.370538 66.502791 
L 109.736367 65.741716 
L 109.102197 64.980641 
L 108.468026 64.219567 
L 107.833855 63.458492 
L 107.199684 62.697418 
L 106.565514 61.936343 
L 105.931343 61.175269 
L 105.297172 60.414194 
L 104.663002 59.65312 
L 104.028831 58.892045 
L 103.39466 58.130971 
L 102.76049 57.369896 
L 102.126319 56.608822 
L 101.492148 55.847747 
L 100.857978 55.086673 
L 100.223807 54.325598 
L 99.456705 53.382479 
L 98.689604 52.439359 
L 97.922502 51.49624 
L 97.155401 50.553121 
L 96.3883 49.610001 
L 95.621198 48.666882 
L 94.854097 47.723762 
L 94.086995 46.780643 
L 93.319894 45.837524 
L 92.552792 44.894404 
L 91.785691 43.951285 
L 91.018589 43.008166 
L 90.251488 42.065046 
L 89.484387 41.121927 
L 88.717285 40.178808 
L 87.950184 39.235688 
" style="fill:none;stroke:#808080;stroke-linecap:square;stroke-width:0.605659;"/>
   </g>
   <g id="line2d_12">
    <path clip-path="url(#p5af3cd9ca4)" d="M 124.875815 35.931219 
L 123.361671 35.359612 
L 121.767451 34.757246 
L 120.830764 34.40373 
L 119.894077 34.050214 
L 118.339737 33.463227 
L 116.785396 32.876241 
L 116.422369 32.739106 
L 115.852982 32.523793 
L 114.068545 31.850083 
L 112.284108 31.176372 
L 111.296227 30.803311 
L 110.308345 30.43025 
L 109.320464 30.057189 
L 108.332583 29.684128 
L 106.596254 29.028361 
L 104.859925 28.372594 
L 103.750032 27.953501 
L 102.64014 27.534408 
L 101.530247 27.115315 
L 100.420354 26.696222 
L 98.628163 26.019308 
L 96.835972 25.342393 
L 95.537206 24.851956 
L 94.238441 24.361519 
L 92.918787 23.863179 
L 91.599133 23.364838 
L 90.669488 23.013779 
L 89.739843 22.662719 
L 88.810198 22.311659 
L 87.880553 21.960599 
L 86.971402 21.617336 
L 86.06225 21.274073 
" style="fill:none;stroke:#808080;stroke-linecap:square;stroke-width:0.605659;"/>
   </g>
   <g id="line2d_13">
    <path clip-path="url(#p5af3cd9ca4)" d="M 76.207651 32.466546 
L 75.726884 32.462061 
L 75.246118 32.457575 
L 74.916323 32.189714 
L 74.586528 31.921854 
L 74.21543 31.695005 
L 73.844332 31.468157 
L 73.359926 31.488877 
L 72.87552 31.509596 
L 72.512156 31.691241 
L 72.148792 31.872885 
L 71.785428 32.054529 
L 71.422064 32.236174 
L 71.0587 32.417818 
L 70.695337 32.599462 
L 70.331973 32.781107 
L 69.968609 32.962751 
L 69.605245 33.144395 
L 69.241881 33.32604 
L 68.878517 33.507684 
L 68.515154 33.689328 
L 68.15179 33.870973 
L 67.788426 34.052617 
L 67.425062 34.234261 
L 67.061698 34.415906 
L 66.757619 34.647774 
L 66.45354 34.879642 
L 66.149461 35.11151 
L 65.845382 35.343378 
L 65.495014 35.765889 
L 65.144647 36.1884 
L 64.721959 36.332797 
L 64.29927 36.477194 
L 63.752988 36.384489 
L 63.206706 36.291784 
" style="fill:none;stroke:#ff0000;stroke-linecap:square;stroke-width:0.605659;"/>
   </g>
   <g id="line2d_14">
    <path clip-path="url(#p5af3cd9ca4)" d="M 77.987024 41.006901 
L 77.657229 41.237594 
L 77.294359 41.282985 
L 76.93149 41.328376 
L 76.568621 41.373767 
L 76.205752 41.419158 
L 75.723403 41.571672 
L 75.241054 41.724186 
L 74.758705 41.8767 
L 74.276357 42.029214 
L 73.864034 42.07044 
L 73.451711 42.111666 
L 73.039388 42.152891 
L 72.627066 42.194117 
L 72.266293 42.132278 
L 71.905521 42.07044 
L 71.544748 42.008601 
L 71.183976 41.946763 
L 70.823203 41.884924 
L 70.462431 41.823085 
L 70.101658 41.761247 
L 69.740886 41.699408 
L 69.386285 41.563395 
L 69.031684 41.427382 
L 68.677084 41.291369 
L 68.322483 41.155356 
L 67.967882 41.019343 
L 67.613282 40.88333 
L 67.258681 40.747317 
L 66.90408 40.611304 
L 66.339204 40.50824 
L 65.774327 40.405175 
L 65.209451 40.302111 
L 64.644574 40.199047 
L 64.38073 40.038255 
L 64.116886 39.877464 
L 63.853043 39.716673 
L 63.589199 39.555882 
L 63.325355 39.395091 
L 63.061511 39.2343 
L 62.797667 39.073509 
L 62.533823 38.912717 
L 62.219181 38.697831 
L 61.904539 38.482944 
L 61.589896 38.268058 
L 61.275254 38.053171 
L 60.960612 37.838284 
L 60.645969 37.623398 
L 60.331327 37.408511 
L 60.016685 37.193625 
L 59.629286 37.431153 
L 59.241888 37.668682 
" style="fill:none;stroke:#008000;stroke-linecap:square;stroke-width:0.605659;"/>
   </g>
   <g id="line2d_15">
    <path clip-path="url(#p5af3cd9ca4)" d="M 82.913691 28.015873 
L 83.275769 27.974861 
L 83.710959 28.133356 
L 83.882503 28.568683 
L 83.61854 28.977523 
L 81.184483 30.158331 
L 80.030043 30.771805 
L 79.673662 31.431417 
L 80.043019 32.183306 
L 81.540706 32.783536 
L 82.55003 32.961683 
L 85.292914 32.790799 
L 88.884813 32.979198 
L 91.131818 32.494529 
L 91.523489 32.463556 
L 91.791566 32.649392 
L 91.812139 33.20562 
L 88.706979 37.235972 
L 82.885641 43.937347 
L 81.44259 45.367433 
L 78.698045 46.181535 
L 73.644619 46.655577 
L 72.392221 46.99553 
L 70.784392 48.149851 
L 62.826588 49.881333 
L 58.711392 49.247514 
L 56.023698 48.273742 
L 53.027138 45.466892 
L 49.471656 42.856106 
L 41.112586 38.609719 
L 38.23155 37.375189 
L 38.23155 37.375189 
" style="fill:none;stroke:#000000;stroke-linecap:square;stroke-width:0.605659;"/>
   </g>
   <g id="line2d_16">
    <path clip-path="url(#p5af3cd9ca4)" d="M 83.20234 27.677523 
L 83.579136 27.586527 
L 83.955931 27.495532 
L 84.280187 27.507493 
L 84.604443 27.519455 
L 85.077297 27.741604 
L 85.270442 28.219439 
L 85.463587 28.697273 
L 85.656733 29.175107 
L 85.849878 29.652942 
L 86.081557 29.846041 
L 86.313236 30.03914 
L 86.65585 30.097027 
L 86.998463 30.154913 
L 87.46198 30.077588 
L 87.925497 30.000263 
L 88.412988 29.812077 
L 88.90048 29.623891 
L 89.387972 29.435705 
L 89.875464 29.24752 
L 90.283356 29.030283 
L 90.691247 28.813047 
L 91.099139 28.595811 
L 91.507031 28.378574 
L 91.759362 28.191457 
L 92.011693 28.004339 
L 92.264024 27.817221 
L 92.516355 27.630103 
" style="fill:none;stroke:#4169e1;stroke-linecap:square;stroke-width:0.605659;"/>
   </g>
   <g id="line2d_17">
    <path clip-path="url(#p5af3cd9ca4)" d="M 81.989505 19.15084 
L 81.690569 18.920146 
L 81.391633 18.689453 
L 80.880325 18.615118 
L 80.369016 18.540784 
L 79.844612 18.696181 
L 79.320208 18.851579 
L 78.795804 19.006977 
L 78.271401 19.162374 
L 77.746997 19.317772 
L 77.222593 19.473169 
L 76.698189 19.628567 
L 76.173785 19.783965 
L 75.649381 19.939362 
L 75.124977 20.09476 
L 74.600573 20.250158 
L 74.076169 20.405555 
L 73.551765 20.560953 
L 73.027361 20.71635 
L 72.502957 20.871748 
L 71.978554 21.027146 
L 71.568802 21.279627 
L 71.159051 21.532108 
L 70.7493 21.784589 
L 70.339549 22.03707 
L 69.929798 22.289551 
L 69.520047 22.542032 
L 69.110296 22.794513 
L 68.700544 23.046994 
L 68.365606 23.160419 
L 68.030668 23.273843 
L 67.69573 23.387267 
L 67.360792 23.500691 
L 66.969042 23.480078 
L 66.577292 23.459465 
L 66.185542 23.438853 
L 65.793792 23.41824 
L 65.49359 23.352529 
L 65.193388 23.286819 
L 64.893186 23.221109 
L 64.592984 23.155399 
L 64.292782 23.089689 
L 63.99258 23.023978 
L 63.692378 22.958268 
L 63.392176 22.892558 
L 63.091974 22.826848 
L 62.791772 22.761137 
L 62.49157 22.695427 
L 62.191369 22.629717 
L 61.891167 22.564007 
L 61.590965 22.498297 
L 61.290763 22.432586 
L 60.990561 22.366876 
L 60.627217 22.354006 
L 60.263873 22.341137 
L 59.900529 22.328267 
L 59.537184 22.315397 
L 59.17384 22.302528 
L 58.810496 22.289658 
L 58.447152 22.276788 
L 58.083808 22.263918 
L 57.733322 22.240101 
L 57.382836 22.216285 
L 57.03235 22.192468 
L 56.681864 22.168651 
L 56.331377 22.144834 
L 55.980891 22.121017 
L 55.630405 22.0972 
L 55.279919 22.073383 
L 54.97944 22.012666 
L 54.678961 21.951948 
L 54.378482 21.891231 
L 54.078003 21.830514 
L 53.777524 21.769797 
L 53.477045 21.70908 
L 53.176567 21.648362 
L 52.876088 21.587645 
L 52.560694 21.600034 
L 52.2453 21.612423 
L 51.929906 21.624812 
L 51.614512 21.637201 
L 51.299117 21.649591 
L 50.983723 21.66198 
L 50.668329 21.674369 
L 50.352935 21.686758 
" style="fill:none;stroke:#ff0000;stroke-linecap:square;stroke-width:0.605659;"/>
   </g>
   <g id="line2d_18">
    <path clip-path="url(#p5af3cd9ca4)" d="M 66.249238 31.182781 
L 65.948067 31.22187 
L 65.646896 31.26096 
L 65.345724 31.30005 
L 65.044553 31.339139 
L 64.743382 31.378229 
L 64.442211 31.417319 
L 64.141039 31.456409 
L 63.839868 31.495498 
L 63.538697 31.534588 
L 63.237526 31.573678 
L 62.936354 31.612767 
L 62.635183 31.651857 
L 62.334012 31.690947 
L 62.032841 31.730037 
L 61.731669 31.769126 
L 61.430498 31.808216 
L 60.989769 31.780928 
L 60.549041 31.75364 
L 60.108312 31.726352 
L 59.667583 31.699064 
L 59.226854 31.671776 
L 58.786126 31.644488 
L 58.345397 31.6172 
L 57.904668 31.589912 
L 57.56979 31.433633 
L 57.234911 31.277354 
L 56.900032 31.121075 
L 56.565153 30.964797 
L 56.230275 30.808518 
L 55.895396 30.652239 
L 55.560517 30.49596 
L 55.225639 30.339682 
L 54.89076 30.183403 
L 54.555881 30.027124 
L 54.221003 29.870846 
L 53.886124 29.714567 
L 53.551245 29.558288 
L 53.216367 29.402009 
L 52.881488 29.245731 
L 52.546609 29.089452 
L 52.156758 28.66833 
L 51.766907 28.247207 
L 51.377056 27.826085 
L 50.987205 27.404963 
" style="fill:none;stroke:#000000;stroke-linecap:square;stroke-width:0.605659;"/>
   </g>
   <g id="line2d_19">
    <path clip-path="url(#p5af3cd9ca4)" d="M 66.249238 31.182781 
L 65.73425 30.987572 
L 65.219262 30.792364 
L 64.704274 30.597156 
L 64.189286 30.401948 
L 63.674298 30.206739 
L 63.15931 30.011531 
L 62.644322 29.816323 
L 62.129334 29.621115 
L 61.614346 29.425906 
L 61.099358 29.230698 
L 60.58437 29.03549 
L 60.069382 28.840282 
L 59.554394 28.645073 
L 59.039406 28.449865 
L 58.524418 28.254657 
L 58.00943 28.059449 
L 57.570541 28.018543 
L 57.131652 27.977638 
L 56.692763 27.936733 
L 56.253874 27.895827 
L 55.814985 27.854922 
L 55.376096 27.814017 
L 54.937207 27.773111 
L 54.498318 27.732206 
L 54.059429 27.6913 
L 53.620539 27.650395 
L 53.18165 27.60949 
L 52.742761 27.568584 
L 52.303872 27.527679 
L 51.864983 27.486774 
L 51.426094 27.445868 
L 50.987205 27.404963 
" style="fill:none;stroke:#000000;stroke-linecap:square;stroke-width:0.605659;"/>
   </g>
   <g id="line2d_20">
    <path clip-path="url(#p5af3cd9ca4)" d="M 82.200612 20.962637 
L 81.85341 20.708447 
L 81.399863 20.725108 
L 80.989518 20.986774 
L 80.579173 21.24844 
L 80.100939 21.339223 
L 79.622705 21.430005 
L 79.332552 21.442874 
L 79.042399 21.455744 
L 78.752246 21.468614 
L 78.462093 21.481483 
L 78.17194 21.494353 
L 77.881787 21.507223 
L 77.591634 21.520093 
L 77.301481 21.532962 
L 76.99123 21.602063 
L 76.680979 21.671165 
L 76.370728 21.740266 
L 76.060477 21.809367 
L 75.557951 22.025268 
L 75.055426 22.24117 
L 74.5529 22.457071 
L 74.050374 22.672972 
L 73.547849 22.888873 
L 73.045323 23.104774 
L 72.542797 23.320676 
L 72.040271 23.536577 
L 71.700111 23.763372 
L 71.359951 23.990167 
L 71.01979 24.216962 
L 70.67963 24.443757 
L 70.33947 24.670552 
L 69.99931 24.897347 
L 69.659149 25.124142 
L 69.318989 25.350938 
L 68.888665 25.505534 
L 68.458341 25.660131 
L 68.028018 25.814727 
L 67.597694 25.969324 
L 67.16737 26.123921 
L 66.737046 26.278517 
L 66.306723 26.433114 
L 65.876399 26.58771 
" style="fill:none;stroke:#000000;stroke-linecap:square;stroke-width:0.605659;"/>
   </g>
   <g id="line2d_21">
    <path clip-path="url(#p5af3cd9ca4)" d="M 80.043019 32.183306 
L 80.103629 32.68421 
L 80.16424 33.185114 
L 79.978769 33.566399 
L 79.793299 33.947683 
L 79.834445 34.442393 
L 80.226274 34.751693 
L 80.684964 34.823891 
L 81.143654 34.896089 
L 81.602345 34.968288 
L 82.061035 35.040486 
L 82.452547 35.349359 
L 82.452547 35.906014 
L 82.148468 36.318271 
L 81.844389 36.730529 
L 81.54031 37.142787 
L 81.236231 37.555044 
L 80.930649 37.918173 
L 80.625066 38.281301 
L 80.319484 38.64443 
L 80.013901 39.007558 
L 79.760541 39.257476 
L 79.507182 39.507394 
L 79.253822 39.757312 
L 79.000462 40.007229 
L 78.747103 40.257147 
L 78.493743 40.507065 
L 78.240383 40.756983 
L 77.987024 41.006901 
" style="fill:none;stroke:#4169e1;stroke-linecap:square;stroke-width:0.605659;"/>
   </g>
   <g id="line2d_22">
    <path clip-path="url(#p5af3cd9ca4)" d="M 78.244023 30.873481 
L 78.616704 31.101824 
L 78.989385 31.330168 
L 79.331523 31.380792 
L 79.673662 31.431417 
" style="fill:none;stroke:#008000;stroke-linecap:square;stroke-width:0.605659;"/>
   </g>
   <g id="line2d_23">
    <path clip-path="url(#p5af3cd9ca4)" d="M 70.913209 29.444036 
L 70.385837 29.250403 
L 69.858466 29.05677 
L 69.331095 28.863137 
L 68.803724 28.669504 
L 68.437808 28.40928 
L 68.071893 28.149056 
L 67.705977 27.888832 
L 67.340061 27.628607 
L 66.974146 27.368383 
L 66.60823 27.108159 
L 66.242315 26.847935 
L 65.876399 26.58771 
" style="fill:none;stroke:#000000;stroke-linecap:square;stroke-width:0.605659;"/>
   </g>
   <g id="line2d_24">
    <path clip-path="url(#p5af3cd9ca4)" d="M 82.913691 28.015873 
L 83.149801 27.887283 
L 83.20234 27.677523 
L 82.882673 27.582255 
L 82.450015 27.624549 
L 82.041886 27.809638 
L 81.633757 27.994726 
L 81.225628 28.179815 
L 80.817499 28.364904 
L 80.344962 28.579363 
L 79.872425 28.793823 
L 79.629668 29.004971 
L 79.386911 29.21612 
L 79.144154 29.427268 
L 78.901397 29.638417 
L 78.737054 29.947183 
L 78.57271 30.255949 
L 78.408367 30.564715 
L 78.244023 30.873481 
L 77.882657 31.210549 
L 77.521291 31.547618 
L 77.159925 31.884687 
L 76.798559 32.221755 
L 76.503105 32.344151 
L 76.207651 32.466546 
L 75.709477 32.365298 
L 75.42241 31.909465 
L 75.266058 31.385919 
L 75.109706 30.862373 
L 75.069629 30.446538 
L 75.029552 30.030702 
L 74.989475 29.614867 
L 74.949398 29.199031 
L 74.909321 28.783196 
L 74.869244 28.36736 
L 74.829167 27.951525 
L 74.78909 27.535689 
L 74.628623 27.054651 
L 74.459611 26.86027 
L 74.25705 26.852153 
L 73.969983 27.037562 
L 73.587886 27.338372 
L 73.205789 27.639181 
L 72.823692 27.93999 
L 72.441596 28.240799 
L 72.059499 28.541608 
L 71.677402 28.842418 
L 71.295305 29.143227 
L 70.913209 29.444036 
L 70.598685 29.636174 
L 70.284161 29.828311 
L 69.969638 30.020449 
L 69.655114 30.212587 
L 69.229379 30.333861 
L 68.803645 30.455135 
L 68.37791 30.576409 
L 67.952176 30.697684 
L 67.526441 30.818958 
L 67.100707 30.940232 
L 66.674973 31.061506 
L 66.249238 31.182781 
" style="fill:none;stroke:#ff0000;stroke-linecap:square;stroke-width:0.605659;"/>
   </g>
   <g id="line2d_25">
    <path clip-path="url(#p5af3cd9ca4)" d="M 46.559978 26.384786 
L 46.030668 26.420351 
L 45.501358 26.455916 
L 44.972049 26.491481 
L 44.442739 26.527047 
L 43.913429 26.562612 
L 43.38412 26.598177 
L 42.85481 26.633742 
L 42.3255 26.669307 
L 42.050777 26.821341 
L 41.776053 26.973374 
L 41.50133 27.125407 
L 41.226606 27.277441 
L 40.951883 27.429474 
L 40.677159 27.581508 
L 40.402435 27.733541 
L 40.127712 27.885574 
L 39.8628 28.036059 
L 39.597888 28.186544 
L 39.332976 28.337028 
L 39.068064 28.487513 
L 38.803152 28.637998 
L 38.53824 28.788482 
L 38.273328 28.938967 
L 38.008416 29.089452 
L 37.743504 29.239937 
L 37.478592 29.390421 
L 37.21368 29.540906 
L 36.948768 29.691391 
L 36.683856 29.841875 
L 36.418944 29.99236 
L 36.154032 30.142845 
L 35.88912 30.293329 
L 35.655324 30.4907 
L 35.421528 30.688071 
L 35.187732 30.885442 
L 34.953936 31.082813 
L 34.72014 31.280184 
L 34.486344 31.477555 
L 34.252548 31.674926 
L 34.018752 31.872297 
L 33.784957 32.069668 
L 33.551161 32.267039 
L 33.317365 32.46441 
L 33.083569 32.661781 
L 32.849773 32.859152 
L 32.615977 33.056523 
L 32.382181 33.253894 
L 32.148385 33.451265 
" style="fill:none;stroke:#4169e1;stroke-linecap:square;stroke-width:0.605659;"/>
   </g>
   <g id="line2d_26">
    <path clip-path="url(#p5af3cd9ca4)" d="M 36.054017 19.793363 
L 35.786 20.070356 
L 35.517982 20.347348 
L 35.249964 20.62434 
L 34.981947 20.901332 
L 34.713929 21.178325 
L 34.445911 21.455317 
L 34.177893 21.732309 
L 33.909876 22.009301 
L 33.641858 22.286294 
L 33.37384 22.563286 
L 33.105823 22.840278 
L 32.837805 23.11727 
L 32.569787 23.394263 
L 32.30177 23.671255 
L 32.033752 23.948247 
L 31.765734 24.225239 
L 31.433328 24.691646 
L 31.100922 25.158052 
L 30.768516 25.624459 
L 30.43611 26.090865 
L 30.103704 26.557272 
L 29.771298 27.023678 
L 29.438892 27.490085 
L 29.106486 27.956491 
L 28.835917 28.185796 
L 28.565347 28.415101 
L 28.294778 28.644406 
L 28.024208 28.873711 
L 27.753639 29.103016 
L 27.483069 29.332321 
L 27.2125 29.561626 
L 26.941931 29.790931 
" style="fill:none;stroke:#4169e1;stroke-linecap:square;stroke-width:0.605659;"/>
   </g>
   <g id="line2d_27">
    <path clip-path="url(#p5af3cd9ca4)" d="M 37.043402 21.421888 
L 36.814057 21.656372 
L 36.584712 21.890857 
L 36.355366 22.125342 
L 36.126021 22.359827 
L 35.896676 22.594312 
L 35.667331 22.828797 
L 35.437986 23.063282 
L 35.208641 23.297767 
L 35.013117 23.532886 
L 34.817593 23.768005 
L 34.622069 24.003124 
L 34.426545 24.238243 
L 34.231021 24.473362 
L 34.035497 24.708481 
L 33.839973 24.9436 
L 33.644449 25.178719 
L 33.448926 25.413838 
L 33.253402 25.648957 
L 33.057878 25.884076 
L 32.862354 26.119195 
L 32.66683 26.354314 
L 32.471306 26.589433 
L 32.275782 26.824552 
L 32.080258 27.059671 
L 31.884734 27.29479 
L 31.68921 27.529909 
L 31.493686 27.765028 
L 31.298162 28.000147 
L 31.102638 28.235266 
L 30.907114 28.470385 
L 30.711591 28.705504 
L 30.516067 28.940623 
L 30.320543 29.175742 
L 30.125019 29.410861 
L 29.929495 29.64598 
L 29.733971 29.881099 
L 29.538447 30.116218 
L 29.342923 30.351337 
L 29.147399 30.586456 
L 28.951875 30.821575 
L 28.756351 31.056694 
L 28.560827 31.291813 
L 28.365303 31.526932 
L 28.169779 31.762051 
L 27.974256 31.99717 
L 27.778732 32.232289 
L 27.583208 32.467408 
L 27.387684 32.702527 
L 27.19216 32.937646 
L 26.996636 33.172765 
L 26.801112 33.407884 
L 26.605588 33.643003 
L 26.410064 33.878122 
L 26.21454 34.113241 
L 26.019016 34.34836 
L 25.823492 34.583479 
L 25.627968 34.818598 
L 25.432444 35.053717 
L 25.236921 35.288836 
L 25.041397 35.523955 
L 24.845873 35.759074 
L 24.650349 35.994193 
L 24.454825 36.229312 
L 24.259301 36.464431 
L 24.063777 36.69955 
L 23.868253 36.934669 
L 23.672729 37.169788 
L 23.477205 37.404907 
L 23.281681 37.640026 
L 23.086157 37.875145 
L 22.890633 38.110264 
L 22.695109 38.345383 
" style="fill:none;stroke:#4169e1;stroke-linecap:square;stroke-width:0.605659;"/>
   </g>
   <g id="line2d_28">
    <path clip-path="url(#p5af3cd9ca4)" d="M 43.096182 22.568092 
L 42.799066 22.582777 
L 42.50195 22.597463 
L 42.204834 22.612148 
L 41.907718 22.626833 
L 41.610602 22.641519 
L 41.313486 22.656204 
L 41.01637 22.670889 
L 40.719254 22.685575 
L 40.422138 22.70026 
L 40.125022 22.714945 
L 39.827906 22.729631 
L 39.530789 22.744316 
L 39.233673 22.759001 
L 38.936557 22.773687 
L 38.639441 22.788372 
L 38.342325 22.803057 
L 38.017594 22.457765 
L 37.692864 22.112473 
L 37.368133 21.76718 
L 37.043402 21.421888 
L 36.796056 21.014757 
L 36.54871 20.607625 
L 36.301363 20.200494 
L 36.054017 19.793363 
L 35.791162 19.633587 
L 35.528308 19.47381 
L 35.265453 19.314034 
L 35.002598 19.154257 
L 34.650094 19.069776 
L 34.297591 18.985296 
L 33.945087 18.900815 
L 33.592583 18.816334 
" style="fill:none;stroke:#008000;stroke-linecap:square;stroke-width:0.605659;"/>
   </g>
   <g id="line2d_29">
    <path clip-path="url(#p5af3cd9ca4)" d="M 52.546609 29.089452 
L 52.23444 29.137379 
L 51.92227 29.185307 
L 51.6101 29.233235 
L 51.297931 29.281162 
L 50.985761 29.32909 
L 50.673591 29.377018 
L 50.361422 29.424945 
L 50.049252 29.472873 
L 49.737082 29.5208 
L 49.424913 29.568728 
L 49.112743 29.616656 
L 48.800573 29.664583 
L 48.488403 29.712511 
L 48.176234 29.760438 
L 47.864064 29.808366 
L 47.551894 29.856294 
L 47.184911 29.988248 
L 46.817927 30.120203 
L 46.450943 30.252157 
L 46.083959 30.384112 
L 45.716975 30.516066 
L 45.349991 30.648021 
L 44.983008 30.779975 
L 44.616024 30.911929 
L 44.247022 31.094348 
L 43.878021 31.276767 
L 43.509019 31.459185 
L 43.140018 31.641604 
L 42.771016 31.824023 
L 42.402015 32.006441 
L 42.033013 32.18886 
L 41.664012 32.371279 
L 41.29501 32.553697 
L 40.926008 32.736116 
L 40.557007 32.918535 
L 40.188005 33.100953 
L 39.819004 33.283372 
L 39.450002 33.465791 
L 39.081001 33.648209 
L 38.711999 33.830628 
L 38.446573 33.992447 
L 38.181147 34.154266 
L 37.91572 34.316085 
L 37.650294 34.477904 
L 37.384868 34.639723 
L 37.119441 34.801543 
L 36.854015 34.963362 
L 36.588589 35.125181 
L 36.323162 35.287 
L 36.057736 35.448819 
L 35.79231 35.610638 
L 35.526883 35.772457 
L 35.261457 35.934276 
L 34.996031 36.096096 
L 34.730605 36.257915 
L 34.465178 36.419734 
L 34.199752 36.581553 
L 33.934326 36.743372 
L 33.668899 36.905191 
L 33.403473 37.06701 
L 33.138047 37.228829 
L 32.87262 37.390648 
L 32.607194 37.552468 
L 32.341768 37.714287 
L 32.076341 37.876106 
L 31.810915 38.037925 
L 31.545489 38.199744 
L 31.280062 38.361563 
L 31.014636 38.523382 
L 30.74921 38.685201 
L 30.483783 38.847021 
L 30.218357 39.00884 
" style="fill:none;stroke:#000000;stroke-linecap:square;stroke-width:0.605659;"/>
   </g>
   <g id="line2d_30">
    <path clip-path="url(#p5af3cd9ca4)" d="M 50.987205 27.404963 
L 50.438193 27.501139 
L 49.889181 27.597314 
L 49.340169 27.69349 
L 48.791157 27.789666 
L 48.242145 27.885841 
L 47.693133 27.982017 
L 47.144121 28.078192 
L 46.59511 28.174368 
L 46.281773 28.331047 
L 45.968436 28.487727 
L 45.655099 28.644406 
L 45.341762 28.801085 
L 44.797538 28.817533 
L 44.253313 28.83398 
L 43.709088 28.850428 
L 43.164863 28.866875 
L 42.90098 29.004998 
L 42.637096 29.14312 
L 42.373213 29.281242 
L 42.10933 29.419365 
L 41.845446 29.557487 
L 41.581563 29.695609 
L 41.317679 29.833732 
L 41.053796 29.971854 
L 40.789913 30.109976 
L 40.526029 30.248099 
L 40.262146 30.386221 
L 39.998263 30.524343 
L 39.734379 30.662466 
L 39.470496 30.800588 
L 39.206612 30.93871 
L 38.942729 31.076833 
L 38.532464 31.26646 
L 38.122198 31.456088 
L 37.711933 31.645716 
L 37.301667 31.835344 
L 36.891402 32.024972 
L 36.481136 32.214599 
L 36.070871 32.404227 
L 35.660605 32.593855 
L 35.355498 32.946357 
L 35.05039 33.298858 
L 34.745282 33.65136 
L 34.440175 34.003862 
L 34.135067 34.356363 
L 33.829959 34.708865 
L 33.524851 35.061366 
L 33.219744 35.413868 
L 32.815729 35.710672 
L 32.411715 36.007476 
L 32.0077 36.30428 
L 31.603685 36.601084 
L 31.197535 36.941197 
L 30.791384 37.281309 
L 30.385233 37.621422 
L 29.979082 37.961534 
L 29.572931 38.301647 
L 29.16678 38.64176 
L 28.760629 38.981872 
L 28.354478 39.321985 
" style="fill:none;stroke:#4169e1;stroke-linecap:square;stroke-width:0.605659;"/>
   </g>
   <g id="line2d_31">
    <path clip-path="url(#p5af3cd9ca4)" d="M 57.904668 31.589912 
L 57.5019 31.701093 
L 57.099132 31.812274 
L 56.696363 31.923456 
L 56.293595 32.034637 
L 55.890827 32.145819 
L 55.488058 32.257 
L 55.08529 32.368181 
L 54.682522 32.479363 
L 54.279753 32.590544 
L 53.876985 32.701726 
L 53.474217 32.812907 
L 53.071448 32.924088 
L 52.66868 33.03527 
L 52.265912 33.146451 
L 51.863143 33.257633 
L 51.460375 33.368814 
L 51.128483 33.426541 
L 50.796592 33.484267 
L 50.4647 33.541994 
L 50.132808 33.599721 
L 49.800917 33.657448 
L 49.469025 33.715174 
L 49.137133 33.772901 
L 48.805242 33.830628 
L 48.269246 33.836822 
L 47.73325 33.843017 
L 47.197254 33.849212 
L 46.661258 33.855406 
L 46.125263 33.861601 
L 45.589267 33.867795 
L 45.053271 33.87399 
L 44.517275 33.880184 
L 44.212168 33.964718 
L 43.90706 34.049253 
L 43.601952 34.133787 
L 43.296844 34.218321 
L 42.991737 34.302855 
L 42.686629 34.387389 
L 42.381521 34.471923 
L 42.076413 34.556458 
L 41.836109 34.732628 
L 41.595805 34.908799 
L 41.355501 35.08497 
L 41.115197 35.26114 
L 40.874893 35.437311 
L 40.634589 35.613482 
L 40.394285 35.789653 
L 40.153981 35.965823 
L 39.913677 36.141994 
L 39.673374 36.318165 
L 39.43307 36.494335 
L 39.192766 36.670506 
L 38.952462 36.846677 
L 38.712158 37.022847 
L 38.471854 37.199018 
L 38.23155 37.375189 
" style="fill:none;stroke:#ff0000;stroke-linecap:square;stroke-width:0.605659;"/>
   </g>
   <g id="line2d_32">
    <path clip-path="url(#p5af3cd9ca4)" d="M 50.987205 27.404963 
L 50.67185 27.061593 
L 50.356496 26.718223 
L 50.041142 26.374853 
L 49.725787 26.031483 
L 49.410433 25.688113 
L 49.095078 25.344743 
L 48.779724 25.001373 
L 48.464369 24.658003 
L 48.150004 24.307584 
L 47.835638 23.957165 
L 47.521273 23.606746 
L 47.206908 23.256327 
L 46.818322 23.120261 
L 46.429737 22.984194 
L 46.041152 22.848128 
L 45.652567 22.712062 
" style="fill:none;stroke:#008000;stroke-linecap:square;stroke-width:0.605659;"/>
   </g>
   <g id="line2d_33">
    <path clip-path="url(#p5af3cd9ca4)" d="M 44.794847 24.369636 
L 44.521706 24.552589 
L 44.248565 24.735542 
L 43.975424 24.918494 
L 43.702283 25.101447 
L 43.429142 25.2844 
L 43.156001 25.467352 
L 42.88286 25.650305 
L 42.609719 25.833258 
L 42.46761 26.251283 
L 42.3255 26.669307 
" style="fill:none;stroke:#008000;stroke-linecap:square;stroke-width:0.605659;"/>
   </g>
   <g id="line2d_34">
    <path clip-path="url(#p5af3cd9ca4)" d="M 50.987205 27.404963 
L 50.519811 27.146661 
L 50.052417 26.888359 
L 49.585023 26.630058 
L 49.117629 26.371756 
L 48.650235 26.113454 
L 48.182841 25.855152 
L 47.715447 25.59685 
L 47.248053 25.338548 
L 46.941402 25.217434 
L 46.634751 25.09632 
L 46.328101 24.975206 
L 46.02145 24.854092 
L 45.714799 24.732978 
L 45.408149 24.611864 
L 45.101498 24.49075 
L 44.794847 24.369636 
L 44.338729 24.318104 
L 43.88261 24.266572 
L 43.426491 24.21504 
L 42.970373 24.163507 
L 42.514254 24.111975 
L 42.058135 24.060443 
L 41.602017 24.008911 
L 41.145898 23.957379 
L 40.702716 23.874927 
L 40.259535 23.792476 
L 39.816353 23.710024 
L 39.373172 23.627573 
L 39.11546 23.421444 
L 38.857748 23.215315 
L 38.600037 23.009186 
L 38.342325 22.803057 
" style="fill:none;stroke:#008000;stroke-linecap:square;stroke-width:0.605659;"/>
   </g>
   <g id="line2d_35">
    <path clip-path="url(#p5af3cd9ca4)" d="M 81.989505 19.15084 
L 81.929687 18.63776 
L 81.869868 18.124681 
L 81.647209 17.811323 
L 81.42455 17.497964 
L 80.99569 17.299952 
L 80.56683 17.101941 
L 80.21844 17.023601 
L 79.870051 16.945261 
L 79.521662 16.866922 
L 79.173272 16.788582 
L 78.824883 16.710242 
L 78.476494 16.631903 
L 78.128104 16.553563 
L 77.779715 16.475224 
L 77.429268 16.473194 
L 77.078822 16.471165 
L 76.728375 16.469136 
L 76.377929 16.467107 
L 76.027482 16.465077 
L 75.677035 16.463048 
L 75.326589 16.461019 
L 74.976142 16.45899 
L 74.557648 16.539358 
L 74.139153 16.619727 
L 73.720659 16.700096 
L 73.302164 16.780465 
L 72.88367 16.860834 
L 72.465175 16.941203 
L 72.046681 17.021572 
L 71.628186 17.101941 
L 71.133415 17.30604 
L 70.638643 17.51014 
L 70.143872 17.714239 
L 69.6491 17.918339 
L 69.154329 18.122438 
L 68.659557 18.326538 
L 68.164786 18.530637 
L 67.670015 18.734737 
L 67.338598 18.812543 
L 67.007181 18.890348 
L 66.675764 18.968154 
L 66.344347 19.045959 
L 66.01293 19.123765 
L 65.681513 19.201571 
L 65.350096 19.279376 
L 65.018679 19.357182 
L 64.72182 19.384243 
L 64.424961 19.411304 
L 64.128102 19.438365 
L 63.831243 19.465426 
L 63.534385 19.492487 
L 63.237526 19.519548 
L 62.940667 19.546609 
L 62.643808 19.573671 
L 62.346949 19.600732 
L 62.05009 19.627793 
L 61.753231 19.654854 
L 61.456372 19.681915 
L 61.159513 19.708976 
L 60.862654 19.736037 
L 60.565796 19.763098 
L 60.268937 19.790159 
L 59.972078 19.81722 
L 59.675219 19.844281 
L 59.37836 19.871342 
L 59.081501 19.898404 
L 58.784642 19.925465 
L 58.487783 19.952526 
L 58.190924 19.979587 
L 57.894065 20.006648 
L 57.597206 20.033709 
L 57.300348 20.06077 
L 57.003489 20.087831 
L 56.70663 20.114892 
L 56.409771 20.141953 
L 56.112912 20.169014 
L 55.816053 20.196075 
L 55.519194 20.223137 
L 55.170805 20.350659 
L 54.822415 20.478181 
L 54.474026 20.605703 
L 54.125637 20.733225 
L 53.813249 20.94683 
L 53.500862 21.160435 
L 53.188475 21.37404 
L 52.876088 21.587645 
" style="fill:none;stroke:#ff0000;stroke-linecap:square;stroke-width:0.605659;"/>
   </g>
   <g id="line2d_36">
    <path clip-path="url(#p5af3cd9ca4)" d="M 65.876399 26.58771 
L 65.556851 26.513002 
L 65.237303 26.438294 
L 64.917755 26.363585 
L 64.598206 26.288877 
L 64.278658 26.214169 
L 63.95911 26.13946 
L 63.639562 26.064752 
L 63.320014 25.990044 
L 62.802059 25.943638 
L 62.284104 25.897232 
L 61.766148 25.850827 
L 61.248193 25.804421 
L 60.730238 25.758015 
L 60.212283 25.71161 
L 59.694328 25.665204 
L 59.176372 25.618798 
L 58.864539 25.515734 
L 58.552706 25.412669 
L 58.240872 25.309605 
L 57.929039 25.206541 
L 57.617205 25.103476 
L 57.305372 25.000412 
L 56.993539 24.897347 
L 56.681705 24.794283 
L 56.192117 24.523699 
L 55.702528 24.253115 
L 55.212939 23.982531 
L 54.72335 23.711947 
L 54.233762 23.441362 
L 53.744173 23.170778 
L 53.254584 22.900194 
L 52.764996 22.62961 
L 52.463488 22.511754 
L 52.16198 22.393897 
L 51.860473 22.276041 
L 51.558965 22.158184 
L 51.257458 22.040327 
L 50.95595 21.922471 
L 50.654443 21.804614 
L 50.352935 21.686758 
" style="fill:none;stroke:#000000;stroke-linecap:square;stroke-width:0.605659;"/>
   </g>
   <g id="line2d_37">
    <path clip-path="url(#p5af3cd9ca4)" d="M 63.206706 36.291784 
L 62.714546 36.247889 
L 62.222386 36.203993 
L 61.730225 36.160097 
L 61.238065 36.116201 
L 60.921089 36.087898 
L 60.604112 36.059596 
L 60.287135 36.031293 
L 59.970159 36.00299 
L 59.427675 35.893411 
L 58.885191 35.783832 
L 58.510294 35.708002 
L 58.135398 35.632172 
L 57.759157 35.436296 
L 57.382915 35.240421 
L 57.006673 35.044545 
L 56.630432 34.848669 
L 56.355629 34.697971 
L 56.080827 34.547273 
L 55.806024 34.396574 
L 55.531221 34.245876 
L 55.184652 34.236905 
L 54.838082 34.227933 
L 54.491513 34.218962 
L 54.144943 34.20999 
L 53.798374 34.201019 
L 53.451804 34.192047 
L 53.105235 34.183076 
L 52.758666 34.174105 
L 52.434093 33.972782 
L 52.10952 33.771459 
L 51.784948 33.570137 
L 51.460375 33.368814 
" style="fill:none;stroke:#4169e1;stroke-linecap:square;stroke-width:0.605659;"/>
   </g>
   <g id="line2d_38">
    <path clip-path="url(#p5af3cd9ca4)" d="M 86.06225 21.274073 
L 86.492732 21.13256 
L 86.923214 20.991046 
L 87.353696 20.849533 
L 87.784178 20.70802 
L 88.21466 20.566507 
L 88.645143 20.424993 
L 89.075625 20.28348 
L 89.506107 20.141967 
L 89.786685 19.948921 
L 90.067264 19.755876 
L 90.347843 19.56283 
L 90.628422 19.369785 
L 90.909001 19.176739 
L 91.18958 18.983694 
L 91.470158 18.790648 
L 91.750737 18.597603 
L 92.215164 18.482149 
L 92.679591 18.366696 
L 93.144018 18.251242 
L 93.608445 18.135789 
L 94.072871 18.020335 
L 94.537298 17.904882 
L 95.001725 17.789428 
L 95.466152 17.673975 
L 95.737196 17.485415 
L 96.00824 17.296855 
L 96.279285 17.108295 
L 96.550329 16.919736 
L 96.821373 16.731176 
L 97.092417 16.542616 
L 97.363461 16.354056 
L 97.634506 16.165496 
L 98.141304 16.02409 
L 98.648103 15.882683 
L 99.154901 15.741277 
L 99.6617 15.59987 
L 100.203788 15.700051 
L 100.745877 15.800232 
L 101.287965 15.900413 
L 101.830053 16.000593 
L 102.130572 16.203865 
L 102.43109 16.407137 
L 102.731609 16.610409 
L 103.032127 16.813681 
L 103.332646 17.016953 
L 103.633164 17.220224 
L 103.933683 17.423496 
L 104.234201 17.626768 
L 104.53472 17.83004 
L 104.835238 18.033312 
L 105.135756 18.236584 
L 105.436275 18.439855 
L 105.736793 18.643127 
L 106.037312 18.846399 
L 106.33783 19.049671 
L 106.638349 19.252943 
L 106.912321 19.582909 
L 107.186292 19.912875 
L 107.460264 20.242842 
L 107.734236 20.572808 
L 108.008208 20.902774 
L 108.28218 21.23274 
L 108.556152 21.562707 
L 108.830124 21.892673 
L 109.087914 22.137197 
L 109.345705 22.381722 
L 109.603496 22.626246 
L 109.861287 22.87077 
L 110.119077 23.115294 
L 110.376868 23.359819 
L 110.634659 23.604343 
L 110.892449 23.848867 
L 111.15024 24.093392 
L 111.408031 24.337916 
L 111.665821 24.58244 
L 111.923612 24.826965 
L 112.181403 25.071489 
L 112.439194 25.316013 
L 112.696984 25.560537 
L 112.954775 25.805062 
L 113.196385 26.132038 
L 113.437994 26.459013 
L 113.679604 26.785989 
L 113.921213 27.112965 
L 114.162823 27.439941 
L 114.404432 27.766917 
L 114.646042 28.093892 
L 114.887652 28.420868 
L 115.250046 28.691933 
L 115.612441 28.962998 
L 115.974835 29.234062 
L 116.33723 29.505127 
L 116.699624 29.776192 
L 117.062019 30.047257 
L 117.424413 30.318321 
L 117.786808 30.589386 
L 117.95764 30.878073 
L 118.128472 31.16676 
L 118.299304 31.455447 
L 118.470135 31.744134 
L 118.573275 32.208405 
L 118.676415 32.672675 
L 118.779555 33.136946 
L 118.882695 33.601216 
L 118.985835 34.065487 
L 119.088975 34.529757 
L 119.192116 34.994027 
L 119.295256 35.458298 
" style="fill:none;stroke:#000000;stroke-linecap:square;stroke-width:0.605659;"/>
   </g>
   <g id="line2d_39">
    <path clip-path="url(#p5af3cd9ca4)" d="M 84.397768 24.13937 
L 84.54589 24.349557 
L 84.879483 24.473021 
L 85.213076 24.596485 
L 85.586153 24.660993 
L 85.959229 24.725502 
L 86.332306 24.790011 
L 86.705382 24.85452 
L 86.98786 24.950375 
L 87.270338 25.04623 
L 87.552816 25.142085 
L 87.835294 25.237941 
L 88.117771 25.333796 
L 88.400249 25.429651 
L 88.682727 25.525506 
L 88.965205 25.621361 
L 89.247683 25.717217 
L 89.530161 25.813072 
L 89.812639 25.908927 
L 90.095116 26.004782 
L 90.377594 26.100638 
L 90.660072 26.196493 
L 90.94255 26.292348 
L 91.225028 26.388203 
L 91.54786 26.698678 
L 91.870691 27.009153 
L 92.193523 27.319628 
L 92.516355 27.630103 
L 92.871628 28.065643 
L 93.226902 28.501184 
L 93.582175 28.936724 
L 93.937448 29.372265 
L 94.271041 29.446172 
L 94.709713 29.236412 
L 95.09901 29.085073 
L 95.488307 28.933734 
L 95.877604 28.782395 
L 96.266901 28.631056 
L 96.61355 28.469784 
L 96.960199 28.308512 
L 97.306847 28.14724 
L 97.653496 27.985969 
L 98.115034 28.137521 
L 98.576573 28.289074 
L 99.038112 28.440627 
L 99.499651 28.592179 
L 99.762545 28.834007 
L 100.025439 29.075835 
L 100.288334 29.317662 
L 100.551228 29.55949 
L 100.814122 29.801317 
L 101.077017 30.043145 
L 101.339911 30.284972 
L 101.602805 30.5268 
L 101.865699 30.768627 
L 102.128594 31.010455 
L 102.391488 31.252282 
L 102.654382 31.49411 
L 102.917277 31.735937 
L 103.180171 31.977765 
L 103.443065 32.219592 
L 103.70596 32.46142 
L 104.048029 32.612799 
L 104.390098 32.764178 
L 104.732167 32.915558 
L 105.074236 33.066937 
L 105.416306 33.218316 
L 105.758375 33.369695 
L 106.100444 33.521074 
L 106.442513 33.672453 
L 106.784582 33.823833 
L 107.126652 33.975212 
L 107.468721 34.126591 
L 107.81079 34.27797 
L 108.152859 34.429349 
L 108.494928 34.580728 
L 108.836998 34.732108 
L 109.179067 34.883487 
L 109.521136 35.034866 
L 109.863205 35.186245 
L 110.205275 35.337624 
L 110.547344 35.489003 
L 110.889413 35.640383 
L 111.231482 35.791762 
L 111.573551 35.943141 
L 111.915621 36.09452 
L 112.25769 36.245899 
L 112.599759 36.397279 
L 112.941828 36.548658 
L 113.283897 36.700037 
L 113.625967 36.851416 
L 113.968036 37.002795 
L 114.310105 37.154174 
L 114.652174 37.305554 
" style="fill:none;stroke:#ff0000;stroke-linecap:square;stroke-width:0.605659;"/>
   </g>
   <g id="line2d_40">
    <path clip-path="url(#p5af3cd9ca4)" d="M 89.986873 39.481334 
L 90.471516 39.59604 
L 90.956159 39.710746 
L 91.440803 39.825452 
L 91.925446 39.940157 
L 92.486367 39.954255 
L 93.047287 39.968353 
L 93.608207 39.982451 
L 94.169127 39.996549 
L 94.499081 40.10976 
L 94.829034 40.22297 
L 95.220309 40.519881 
L 95.611584 40.816792 
L 96.00286 41.113703 
L 96.394135 41.410614 
L 96.903228 41.552021 
L 97.412321 41.693427 
L 97.883751 41.589722 
L 98.35518 41.486017 
L 98.82661 41.382311 
L 99.298039 41.278606 
L 99.613868 41.167852 
L 99.929698 41.057098 
L 100.245527 40.946344 
L 100.561356 40.835589 
L 100.877185 40.724835 
L 101.193014 40.614081 
L 101.508844 40.503327 
L 101.824673 40.392573 
L 102.197037 40.147461 
L 102.569402 39.902349 
L 102.941766 39.657238 
L 103.31413 39.412126 
L 103.677158 39.327325 
L 104.040185 39.242524 
L 104.403213 39.157722 
L 104.766241 39.072921 
L 105.10561 39.103573 
L 105.444979 39.134226 
L 105.784348 39.164878 
L 106.123717 39.19553 
L 106.463086 39.226183 
L 106.802455 39.256835 
L 107.141824 39.287487 
L 107.481193 39.31814 
L 107.787606 39.299289 
L 108.09402 39.280438 
L 108.400433 39.261588 
L 108.706846 39.242737 
L 109.01326 39.223886 
L 109.319673 39.205036 
L 109.626086 39.186185 
L 109.932499 39.167335 
L 110.262453 39.016423 
L 110.592406 38.865511 
L 110.922359 38.714599 
L 111.252312 38.563687 
L 111.656089 38.346985 
L 112.059866 38.130282 
L 112.463643 37.91358 
L 112.867421 37.696878 
L 113.313609 37.599047 
L 113.759797 37.501216 
L 114.205986 37.403385 
L 114.652174 37.305554 
" style="fill:none;stroke:#000000;stroke-linecap:square;stroke-width:0.605659;"/>
   </g>
   <g id="line2d_41">
    <path clip-path="url(#p5af3cd9ca4)" d="M 86.06225 21.274073 
L 86.108618 21.593412 
L 86.154985 21.912752 
L 86.548714 22.103501 
L 86.942442 22.29425 
L 87.244226 22.467698 
L 87.546011 22.641145 
L 87.984405 22.695828 
L 88.4228 22.750511 
L 88.861195 22.805193 
L 89.299589 22.859876 
L 89.737984 22.914559 
L 90.176378 22.969242 
L 90.614773 23.023925 
L 91.053167 23.078608 
L 91.491562 23.133291 
L 91.929956 23.187974 
L 92.368351 23.242656 
L 92.806745 23.297339 
L 93.24514 23.352022 
L 93.683535 23.406705 
L 94.121929 23.461388 
L 94.560324 23.516071 
L 94.92799 23.658799 
L 95.295656 23.801527 
L 95.663323 23.944255 
L 96.030989 24.086984 
L 96.398655 24.229712 
L 96.766321 24.37244 
L 97.133988 24.515168 
L 97.501654 24.657896 
L 97.86932 24.800624 
L 98.236987 24.943353 
L 98.604653 25.086081 
L 98.972319 25.228809 
L 99.339985 25.371537 
L 99.707652 25.514265 
L 100.075318 25.656993 
L 100.442984 25.799722 
L 100.810651 25.94245 
L 101.178317 26.085178 
L 101.545983 26.227906 
L 101.913649 26.370634 
L 102.281316 26.513362 
L 102.648982 26.656091 
L 103.016648 26.798819 
L 103.384315 26.941547 
L 103.751981 27.084275 
L 104.119647 27.227003 
L 104.487314 27.369732 
L 104.85498 27.51246 
L 105.222646 27.655188 
L 105.590312 27.797916 
L 105.957979 27.940644 
L 106.325645 28.083372 
L 106.588045 28.226061 
L 106.850444 28.368749 
L 107.112844 28.511437 
L 107.375244 28.654125 
L 107.637644 28.796813 
L 107.900044 28.939501 
L 108.162443 29.082189 
L 108.424843 29.224877 
L 108.687243 29.367566 
L 108.949643 29.510254 
L 109.212042 29.652942 
L 109.474442 29.79563 
L 109.736842 29.938318 
L 109.999242 30.081006 
L 110.261642 30.223694 
L 110.524041 30.366382 
L 110.786441 30.50907 
L 111.048841 30.651759 
L 111.311241 30.794447 
L 111.57364 30.937135 
L 111.83604 31.079823 
L 112.09844 31.222511 
L 112.36084 31.365199 
L 112.623239 31.507887 
L 112.885639 31.650575 
L 113.148039 31.793264 
L 113.410439 31.935952 
L 113.672839 32.07864 
L 113.935238 32.221328 
L 114.197638 32.364016 
L 114.460038 32.506704 
L 114.722438 32.649392 
L 115.008239 32.824949 
L 115.29404 33.000506 
L 115.579841 33.176062 
L 115.865642 33.351619 
L 116.151443 33.527175 
L 116.437244 33.702732 
L 116.723045 33.878288 
L 117.008847 34.053845 
L 117.294648 34.229402 
L 117.580449 34.404958 
L 117.86625 34.580515 
L 118.152051 34.756071 
L 118.437852 34.931628 
L 118.723653 35.107185 
L 119.009454 35.282741 
L 119.295256 35.458298 
" style="fill:none;stroke:#ff0000;stroke-linecap:square;stroke-width:0.605659;"/>
   </g>
   <g id="line2d_42">
    <path clip-path="url(#p5af3cd9ca4)" d="M 119.295256 35.458298 
L 119.541336 35.754675 
L 119.787416 36.051052 
L 120.033496 36.347428 
L 120.279576 36.643805 
L 120.605731 36.941784 
L 120.931886 37.239763 
L 121.238972 37.384694 
L 121.546058 37.529625 
L 121.853144 37.674556 
L 122.16023 37.819487 
" style="fill:none;stroke:#4169e1;stroke-linecap:square;stroke-width:0.605659;"/>
   </g>
   <g id="line2d_43">
    <path clip-path="url(#p5af3cd9ca4)" d="M 80.817499 28.364904 
L 80.284827 28.310648 
L 79.752154 28.256392 
L 79.358268 27.993658 
L 78.964381 27.730924 
L 78.7365 27.35263 
L 78.508619 26.974335 
L 78.516373 26.603517 
L 78.524127 26.232699 
L 78.717193 25.925749 
L 78.910259 25.618798 
L 79.103325 25.311848 
L 79.296392 25.004897 
L 79.518022 24.528558 
L 79.739652 24.052219 
L 79.961283 23.57588 
L 80.182913 23.099541 
L 80.281978 22.636766 
L 80.381043 22.173991 
L 80.480108 21.711216 
L 80.579173 21.24844 
" style="fill:none;stroke:#4169e1;stroke-linecap:square;stroke-width:0.605659;"/>
   </g>
   <g id="line2d_44">
    <path clip-path="url(#p5af3cd9ca4)" d="M 83.20234 27.677523 
L 83.113403 27.188795 
L 83.024466 26.700067 
L 82.933709 26.254807 
L 82.842952 25.809547 
L 82.752196 25.364288 
L 82.661439 24.919028 
L 82.596398 24.360665 
L 82.531356 23.802301 
L 82.490013 23.447343 
L 82.44867 23.092385 
L 82.407327 22.737427 
L 82.365984 22.382469 
L 82.324641 22.027511 
L 82.283298 21.672553 
L 82.241955 21.317595 
L 82.200612 20.962637 
L 82.147835 20.509688 
L 82.095059 20.056738 
L 82.042282 19.603789 
L 81.989505 19.15084 
" style="fill:none;stroke:#000000;stroke-linecap:square;stroke-width:0.605659;"/>
   </g>
   <g id="line2d_45">
    <path clip-path="url(#p5af3cd9ca4)" d="M 84.816816 23.829216 
L 84.471829 23.929183 
L 84.397768 24.13937 
" style="fill:none;stroke:#008000;stroke-linecap:square;stroke-width:0.605659;"/>
   </g>
   <g id="line2d_46">
    <path clip-path="url(#p5af3cd9ca4)" d="M 84.397768 24.13937 
L 84.131906 24.201316 
L 83.687063 24.121 
L 83.242219 24.040685 
L 82.886788 23.921493 
L 82.531356 23.802301 
" style="fill:none;stroke:#008000;stroke-linecap:square;stroke-width:0.605659;"/>
   </g>
   <g id="line2d_47">
    <path clip-path="url(#p5af3cd9ca4)" d="M 83.955931 27.495532 
L 84.295696 27.298588 
L 84.63546 27.101644 
L 84.878771 26.929906 
L 85.122082 26.758167 
L 85.365393 26.586429 
L 85.608703 26.41469 
L 85.948468 25.958857 
L 86.288233 25.503024 
L 86.496807 25.178772 
L 86.705382 24.85452 
" style="fill:none;stroke:#008000;stroke-linecap:square;stroke-width:0.605659;"/>
   </g>
   <g id="line2d_48">
    <path clip-path="url(#p5af3cd9ca4)" d="M 86.06225 21.274073 
L 85.853359 21.582946 
L 85.644468 21.891819 
L 85.430276 22.289978 
L 85.216083 22.688138 
L 85.00189 23.086298 
L 84.787698 23.484457 
L 84.816816 23.829216 
" style="fill:none;stroke:#008000;stroke-linecap:square;stroke-width:0.605659;"/>
   </g>
   <g id="line2d_49">
    <path clip-path="url(#p5af3cd9ca4)" d="M 59.241888 37.668682 
L 58.943902 37.83775 
L 58.645915 38.006819 
L 58.347929 38.175887 
L 58.049943 38.344955 
L 57.776168 38.81211 
L 57.502394 39.279264 
L 57.421924 39.60939 
L 57.341453 39.939517 
L 57.260983 40.269643 
L 57.180512 40.59977 
L 57.196575 40.945916 
L 57.212637 41.292063 
L 57.228699 41.63821 
L 57.244762 41.984357 
L 57.349445 42.274219 
L 57.454128 42.564081 
L 57.558811 42.853943 
L 57.663494 43.143805 
L 57.768177 43.433667 
L 57.87286 43.723529 
L 57.977543 44.013391 
L 58.082226 44.303253 
L 58.23925 44.625316 
L 58.396275 44.947378 
L 58.553299 45.269441 
L 58.710324 45.591504 
L 58.867348 45.913567 
L 59.024372 46.23563 
L 59.181397 46.557693 
L 59.338421 46.879756 
L 59.370705 47.185852 
L 59.402988 47.491948 
L 59.080789 47.846105 
L 58.758748 47.846105 
L 58.436708 47.846105 
L 58.13069 47.789766 
L 57.824672 47.733428 
L 57.518655 47.67709 
L 57.212637 47.620751 
L 56.906619 47.564413 
L 56.600602 47.508075 
L 56.294584 47.451737 
L 55.988566 47.395398 
L 55.706721 47.222271 
L 55.424877 47.049145 
L 55.143032 46.876018 
L 54.861187 46.702891 
L 54.579342 46.529764 
L 54.297497 46.356637 
L 54.015652 46.18351 
L 53.733808 46.010384 
" style="fill:none;stroke:#000000;stroke-linecap:square;stroke-width:0.605659;"/>
   </g>
   <g id="line2d_50">
    <path clip-path="url(#p5af3cd9ca4)" d="M 33.592583 18.816334 
L 33.21377 19.022463 
L 32.834957 19.228592 
L 32.456143 19.434721 
L 32.07733 19.640849 
L 31.698517 19.846978 
L 31.319704 20.053107 
L 30.940891 20.259236 
L 30.562078 20.465365 
L 30.252777 20.872496 
L 29.943475 21.279627 
L 29.634174 21.686758 
L 29.324873 22.093889 
L 29.175939 22.574954 
L 29.027005 23.056019 
L 28.878071 23.537084 
L 28.729137 24.018149 
L 28.580203 24.499214 
L 28.431269 24.98028 
L 28.282335 25.461345 
L 28.133402 25.94241 
L 27.984468 26.423475 
L 27.835534 26.90454 
L 27.6866 27.385605 
L 27.537666 27.86667 
L 27.388732 28.347735 
L 27.239798 28.8288 
L 27.090864 29.309865 
L 26.941931 29.790931 
L 26.65332 30.247031 
L 26.36471 30.703131 
L 26.0761 31.159231 
L 25.78749 31.615331 
L 25.49888 32.071431 
L 25.21027 32.527531 
L 24.92166 32.983631 
L 24.63305 33.439731 
L 24.379413 33.714453 
L 24.125777 33.989176 
L 23.87214 34.263899 
L 23.618503 34.538622 
L 23.364867 34.813344 
L 23.11123 35.088067 
L 22.857594 35.36279 
L 22.603957 35.637512 
L 22.35032 35.912235 
L 22.096684 36.186958 
L 21.843047 36.46168 
L 21.58941 36.736403 
L 21.335774 37.011126 
L 21.082137 37.285849 
L 20.828501 37.560571 
L 20.574864 37.835294 
" style="fill:none;stroke:#008000;stroke-linecap:square;stroke-width:0.605659;"/>
   </g>
   <g id="line2d_51">
    <path clip-path="url(#p5af3cd9ca4)" d="M 38.342325 22.803057 
L 38.051104 23.055538 
L 37.759883 23.30802 
L 37.468662 23.560501 
L 37.17744 23.812982 
L 36.886219 24.065463 
L 36.594998 24.317944 
L 36.303777 24.570425 
L 36.012555 24.822906 
L 35.639875 25.259835 
L 35.267194 25.696764 
L 34.894513 26.133693 
L 34.521832 26.570622 
L 34.149151 27.007551 
L 33.77647 27.44448 
L 33.403789 27.881409 
L 33.031109 28.318338 
L 32.943161 28.611885 
L 32.855213 28.905431 
L 32.767265 29.198978 
L 32.679317 29.492524 
L 32.591369 29.786071 
L 32.503421 30.079618 
L 32.415473 30.373164 
L 32.327525 30.666711 
L 32.305133 31.01478 
L 32.28274 31.36285 
L 32.260348 31.710919 
L 32.237955 32.058988 
L 32.215563 32.407058 
L 32.19317 32.755127 
L 32.170778 33.103196 
L 32.148385 33.451265 
" style="fill:none;stroke:#4169e1;stroke-linecap:square;stroke-width:0.605659;"/>
   </g>
   <g id="line2d_52">
    <path clip-path="url(#p5af3cd9ca4)" d="M 50.352935 21.686758 
L 49.842655 21.711216 
L 49.332375 21.735673 
L 48.822095 21.760131 
L 48.311815 21.784589 
L 47.979409 21.900523 
L 47.647003 22.016457 
L 47.314597 22.132391 
L 46.982191 22.248325 
L 46.649785 22.364259 
L 46.317379 22.480193 
L 45.984973 22.596128 
L 45.652567 22.712062 
L 45.333019 22.694065 
L 45.013471 22.676069 
L 44.693923 22.658073 
L 44.374375 22.640077 
L 44.054827 22.622081 
L 43.735278 22.604084 
L 43.41573 22.586088 
L 43.096182 22.568092 
L 42.601332 22.289765 
L 42.106481 22.011437 
L 41.768932 21.684195 
L 41.431383 21.356952 
L 41.093834 21.029709 
L 40.756284 20.702466 
L 40.418735 20.375223 
L 40.081186 20.04798 
L 39.743637 19.720738 
L 39.406088 19.393495 
L 38.890665 19.135674 
L 38.375241 18.877852 
L 37.980959 18.803144 
L 37.586677 18.728436 
L 37.192395 18.653727 
L 36.798113 18.579019 
L 36.403831 18.504311 
L 36.009549 18.429602 
L 35.615267 18.354894 
L 35.220984 18.280186 
L 34.813884 18.414223 
L 34.406784 18.54826 
L 33.999683 18.682297 
L 33.592583 18.816334 
" style="fill:none;stroke:#008000;stroke-linecap:square;stroke-width:0.605659;"/>
   </g>
   <g id="line2d_53">
    <path clip-path="url(#p5af3cd9ca4)" d="M 50.987205 27.404963 
L 50.433802 27.277441 
L 49.880398 27.149919 
L 49.326995 27.022396 
L 48.773591 26.894874 
L 48.220188 26.767352 
L 47.666785 26.63983 
L 47.113381 26.512308 
L 46.559978 26.384786 
" style="fill:none;stroke:#008000;stroke-linecap:square;stroke-width:0.605659;"/>
   </g>
   <g id="line2d_54">
    <path clip-path="url(#p5af3cd9ca4)" d="M 22.870135 11.470886 
L 22.491599 11.386299 
L 22.080463 11.591787 
L 21.666637 11.93505 
L 21.252811 12.278313 
L 21.018441 12.472694 
L 20.784072 12.667074 
L 20.533086 12.829093 
L 20.2821 12.991113 
L 20.031114 13.153132 
L 19.780128 13.315152 
L 19.529142 13.477171 
L 19.278156 13.63919 
L 19.02717 13.80121 
L 18.776184 13.963229 
L 18.610179 14.326785 
L 18.444174 14.69034 
L 18.539124 15.133357 
L 18.744692 15.496913 
L 18.95026 15.860468 
L 19.234795 16.152894 
L 19.51933 16.445319 
L 19.601621 16.747784 
L 19.683911 17.050248 
L 19.617446 17.364248 
L 19.550981 17.678247 
L 19.139845 17.852121 
L 18.641829 17.935214 
L 18.143814 18.018306 
L 17.645798 18.101398 
L 17.147782 18.184491 
L 16.831597 18.421592 
L 16.673663 18.816761 
L 16.839668 19.287013 
L 17.005673 19.757264 
L 17.171678 20.227515 
L 17.337684 20.697767 
L 17.570866 21.170047 
L 17.804049 21.642328 
L 18.037232 22.114609 
L 18.270414 22.586889 
L 18.503597 23.05917 
L 18.73678 23.53145 
L 18.969962 24.003731 
L 19.203145 24.476012 
L 19.343988 24.852063 
L 19.484832 25.228115 
L 19.625675 25.604166 
L 19.766518 25.980218 
" style="fill:none;stroke:#008000;stroke-linecap:square;stroke-width:0.605659;"/>
   </g>
   <g id="line2d_55">
    <path clip-path="url(#p5af3cd9ca4)" d="M 33.031109 28.318338 
L 32.83735 28.543077 
L 32.643592 28.767816 
L 32.449833 28.992555 
L 32.256075 29.217294 
L 32.062316 29.442034 
L 31.868558 29.666773 
L 31.674799 29.891512 
L 31.481041 30.116251 
L 31.287283 30.34099 
L 31.093524 30.565729 
L 30.899766 30.790468 
L 30.706007 31.015207 
L 30.512249 31.239947 
L 30.31849 31.464686 
L 30.124732 31.689425 
L 29.930973 31.914164 
L 29.584384 32.371519 
L 29.237795 32.828874 
L 28.891206 33.286229 
L 28.544616 33.743584 
L 28.198027 34.200939 
L 27.851438 34.658294 
L 27.504849 35.115649 
L 27.158259 35.573004 
L 26.81167 36.030359 
L 26.465081 36.487714 
L 26.118492 36.945069 
L 25.771903 37.402423 
L 25.425313 37.859778 
L 25.078724 38.317133 
L 24.732135 38.774488 
L 24.385546 39.231843 
" style="fill:none;stroke:#4169e1;stroke-linecap:square;stroke-width:0.605659;"/>
   </g>
   <g id="line2d_56">
    <path clip-path="url(#p5af3cd9ca4)" d="M 19.510152 9.328428 
L 19.487126 9.627689 
L 19.464101 9.926949 
L 19.441075 10.22621 
L 19.41805 10.525471 
L 19.337817 10.95519 
L 19.257583 11.38491 
L 19.17735 11.81463 
L 19.097117 12.24435 
L 19.016884 12.67407 
L 18.936651 13.103789 
L 18.856417 13.533509 
L 18.776184 13.963229 
" style="fill:none;stroke:#008000;stroke-linecap:square;stroke-width:0.605659;"/>
   </g>
   <g id="line2d_57">
    <path clip-path="url(#p5af3cd9ca4)" d="M 15.627624 21.466745 
L 16.036861 21.865332 
L 16.036861 22.155834 
L 16.036861 22.446337 
L 15.771356 22.899073 
L 15.50585 23.351809 
L 15.240345 23.804544 
L 14.974839 24.25728 
L 14.709334 24.710016 
L 14.443828 25.162752 
L 14.178323 25.615487 
L 13.912818 26.068223 
L 13.778621 26.481869 
L 13.644424 26.895515 
L 13.510227 27.309161 
L 13.376031 27.722807 
L 13.227908 28.077712 
L 13.079785 28.432617 
L 12.931662 28.787521 
L 12.783539 29.142426 
L 12.635416 29.497331 
L 12.487294 29.852235 
L 12.339171 30.20714 
L 12.191048 30.562045 
L 11.99541 30.888967 
L 11.799772 31.215889 
L 11.604135 31.542812 
L 11.408497 31.869734 
L 11.212859 32.196657 
L 11.017222 32.523579 
L 10.821584 32.850501 
L 10.625946 33.177424 
L 10.441505 33.596624 
L 10.257064 34.015823 
L 10.072622 34.435023 
L 9.888181 34.854223 
L 9.664572 35.088975 
L 9.440964 35.323727 
L 9.228591 35.765248 
L 9.016218 36.20677 
L 8.803846 36.648291 
L 8.591473 37.089813 
L 8.401414 37.631942 
L 8.211354 38.174071 
L 8.021295 38.716201 
L 7.831236 39.25833 
L 7.551764 39.738941 
L 7.272293 40.219553 
L 6.940837 40.33821 
L 6.60938 40.456868 
L 6.277924 40.575525 
L 5.946467 40.694183 
" style="fill:none;stroke:#008000;stroke-linecap:square;stroke-width:0.605659;"/>
   </g>
   <g id="line2d_58">
    <path clip-path="url(#p5af3cd9ca4)" d="M 13.919148 21.886265 
L 13.75702 22.263598 
L 13.594892 22.640931 
L 13.432763 23.018264 
L 13.270635 23.395598 
L 12.996703 23.85378 
L 12.722771 24.311963 
L 12.493624 24.821998 
L 12.264476 25.332034 
L 12.035329 25.842069 
L 11.806182 26.352104 
L 11.577034 26.862139 
L 11.347887 27.372175 
L 11.11874 27.88221 
L 10.889592 28.392245 
L 10.738661 28.639546 
L 10.587729 28.886848 
L 10.436797 29.134149 
L 10.285865 29.38145 
L 10.134933 29.628751 
L 9.984002 29.876052 
L 9.83307 30.123353 
L 9.682138 30.370654 
L 9.52547 30.90723 
L 9.592568 31.337644 
L 9.659666 31.768058 
L 9.8665 32.136954 
L 10.073334 32.50585 
L 10.34964 32.841637 
L 10.625946 33.177424 
" style="fill:none;stroke:#008000;stroke-linecap:square;stroke-width:0.605659;"/>
   </g>
   <g id="line2d_59">
    <path clip-path="url(#p5af3cd9ca4)" d="M 19.766518 25.980218 
L 19.370258 26.36727 
L 19.216122 26.628082 
L 19.061985 26.888893 
L 18.907849 27.149705 
L 18.753713 27.410517 
L 18.658841 27.69899 
L 18.56397 27.987464 
L 18.469098 28.275937 
L 18.374227 28.564411 
L 18.346533 28.856943 
L 18.318839 29.149475 
L 18.291145 29.442007 
L 18.263451 29.734539 
L 18.164663 30.145515 
L 18.065875 30.556491 
L 17.967087 30.967467 
L 17.868299 31.378443 
L 17.769511 31.789419 
L 17.670723 32.200395 
L 17.571934 32.611371 
L 17.473146 33.022347 
L 17.299229 33.484801 
L 17.125311 33.947256 
L 16.951393 34.409711 
L 16.777475 34.872166 
L 16.692495 35.158663 
L 16.607514 35.445161 
L 16.522533 35.731659 
L 16.437552 36.018156 
L 16.352572 36.304654 
L 16.267591 36.591152 
L 16.18261 36.877649 
L 16.097629 37.164147 
L 16.121367 37.583026 
L 16.145105 38.001906 
" style="fill:none;stroke:#008000;stroke-linecap:square;stroke-width:0.605659;"/>
   </g>
   <g id="line2d_60">
    <path clip-path="url(#p5af3cd9ca4)" d="M 20.79325 8.802106 
L 20.929662 9.1223 
L 21.066075 9.442493 
L 21.073987 9.774436 
L 21.0819 10.106378 
L 21.089812 10.43832 
L 21.097725 10.770262 
L 21.136496 11.147275 
L 21.175268 11.524287 
L 21.214039 11.9013 
L 21.252811 12.278313 
L 21.20217 12.581098 
L 21.15153 12.883883 
L 21.10089 13.186668 
L 21.05025 13.489453 
L 20.943549 13.785884 
L 20.836848 14.082314 
L 20.730148 14.378744 
L 20.623447 14.675174 
L 20.516746 14.971605 
L 20.410046 15.268035 
L 20.303345 15.564465 
L 20.196644 15.860896 
L 20.035228 16.315233 
L 19.873812 16.769571 
L 19.712396 17.223909 
L 19.550981 17.678247 
L 19.329034 18.14476 
L 19.107087 18.611273 
L 18.88514 19.077787 
L 18.663193 19.5443 
L 18.331816 19.832667 
L 18.000438 20.121033 
L 17.669061 20.4094 
L 17.337684 20.697767 
L 16.910169 20.890011 
L 16.482654 21.082256 
L 16.055139 21.2745 
L 15.627624 21.466745 
" style="fill:none;stroke:#008000;stroke-linecap:square;stroke-width:0.605659;"/>
   </g>
   <g id="line2d_61">
    <path clip-path="url(#p5af3cd9ca4)" d="M 39.373172 23.627573 
L 39.191816 23.912308 
L 39.01046 24.197043 
L 38.829105 24.481779 
L 38.647749 24.766514 
L 38.398742 25.066843 
L 38.149734 25.367172 
L 37.900726 25.6675 
L 37.651718 25.967829 
L 37.377015 26.215824 
L 37.102311 26.463819 
L 36.827607 26.711815 
L 36.552903 26.95981 
L 36.278199 27.207806 
L 36.003496 27.455801 
L 35.728792 27.703796 
L 35.454088 27.951792 
L 35.179384 28.199787 
L 34.904681 28.447782 
L 34.629977 28.695778 
L 34.355273 28.943773 
L 34.080569 29.191769 
L 33.805865 29.439764 
L 33.531162 29.687759 
L 33.256458 29.935755 
L 33.024225 30.118494 
L 32.791991 30.301233 
L 32.559758 30.483972 
L 32.327525 30.666711 
" style="fill:none;stroke:#4169e1;stroke-dasharray:2.240937,0.969054;stroke-dashoffset:0;stroke-width:0.605659;"/>
   </g>
   <g id="line2d_62">
    <path clip-path="url(#p5af3cd9ca4)" d="M 32.148385 33.451265 
L 31.892019 33.667647 
L 31.635652 33.884029 
L 31.379286 34.100411 
L 31.122919 34.316793 
L 30.827089 34.650737 
L 30.531259 34.984682 
L 30.235428 35.318627 
L 29.939598 35.652572 
L 29.643768 35.986516 
L 29.347938 36.320461 
L 29.052107 36.654406 
L 28.756277 36.98835 
L 28.460447 37.322295 
L 28.164617 37.65624 
L 27.868786 37.990184 
L 27.572956 38.324129 
L 27.277126 38.658074 
L 26.981295 38.992018 
L 26.685465 39.325963 
L 26.389635 39.659908 
" style="fill:none;stroke:#4169e1;stroke-linecap:square;stroke-width:0.605659;"/>
   </g>
   <g id="line2d_63">
    <path clip-path="url(#p5af3cd9ca4)" d="M 17.946633 26.703911 
L 17.867508 26.329248 
L 17.567147 26.092147 
L 17.278577 26.036823 
L 16.990006 25.981499 
L 16.701436 25.926176 
L 16.412865 25.870852 
L 16.049205 26.02892 
L 15.867374 26.384572 
L 15.685544 26.740224 
L 15.412878 27.143297 
L 15.140212 27.546369 
L 14.867545 27.949442 
L 14.594879 28.352515 
L 14.420961 28.724187 
L 14.247043 29.09586 
L 14.158106 29.435705 
L 14.069169 29.775551 
L 13.980232 30.115397 
L 13.891295 30.455242 
L 13.802358 30.795088 
L 13.713421 31.134933 
L 13.624484 31.474779 
L 13.535547 31.814624 
L 13.326023 32.166325 
L 13.116499 32.518025 
L 12.906975 32.869726 
L 12.697451 33.221426 
L 12.610492 33.513958 
L 12.523533 33.806491 
L 12.436574 34.099023 
L 12.349615 34.391555 
L 12.503831 34.814386 
L 12.658046 35.237217 
L 12.812262 35.660048 
L 12.966477 36.082879 
L 13.013873 36.482 
L 13.06127 36.881121 
L 13.108666 37.280241 
L 13.156062 37.679362 
L 13.053278 37.959932 
L 12.950494 38.240503 
L 12.84771 38.521073 
L 12.744926 38.801643 
L 12.491962 39.240387 
L 12.238998 39.679132 
L 11.986034 40.117877 
L 11.73307 40.556621 
L 11.622452 40.951791 
L 11.511835 41.34696 
L 11.401218 41.742129 
L 11.2906 42.137298 
" style="fill:none;stroke:#008000;stroke-linecap:square;stroke-width:0.605659;"/>
   </g>
   <g id="line2d_64">
    <path clip-path="url(#p5af3cd9ca4)" d="M 17.946633 26.703911 
L 17.679031 27.008085 
L 17.411428 27.312258 
L 17.186119 27.699524 
L 16.960809 28.08679 
L 16.735499 28.474056 
L 16.51019 28.861322 
L 16.28488 29.248588 
L 16.05957 29.635853 
L 15.83426 30.023119 
L 15.608951 30.410385 
L 15.415291 30.874762 
L 15.221632 31.339139 
L 15.027972 31.803517 
L 14.834313 32.267894 
L 14.640653 32.732271 
L 14.446993 33.196648 
L 14.253334 33.661026 
L 14.059674 34.125403 
L 13.946723 34.569648 
L 13.833771 35.013893 
L 13.72082 35.458138 
L 13.607868 35.902383 
L 13.494917 36.346627 
L 13.381965 36.790872 
L 13.269013 37.235117 
L 13.156062 37.679362 
" style="fill:none;stroke:#008000;stroke-linecap:square;stroke-width:0.605659;"/>
   </g>
   <g id="line2d_65">
    <path clip-path="url(#p5af3cd9ca4)" d="M 18.532794 8.816631 
L 18.402396 9.089298 
L 18.271997 9.361964 
L 18.141598 9.634631 
L 18.011199 9.907298 
L 17.916328 10.211685 
L 17.821457 10.516072 
L 17.726585 10.820459 
L 17.631714 11.124846 
L 17.505271 11.429126 
L 17.378829 11.733407 
L 17.252386 12.037687 
L 17.125944 12.341967 
L 16.99151 12.839987 
L 16.857076 13.338007 
L 16.722641 13.836027 
L 16.588207 14.334047 
L 16.509161 14.721313 
L 16.430115 15.108579 
L 16.351068 15.495845 
L 16.272022 15.883111 
L 16.141584 16.288266 
L 16.011145 16.693421 
L 15.880707 17.098576 
L 15.750269 17.503732 
L 15.61983 17.908887 
L 15.489392 18.314042 
L 15.358954 18.719197 
L 15.228516 19.124353 
L 15.094002 19.468257 
L 14.959489 19.812161 
L 14.824976 20.156065 
L 14.690463 20.499969 
L 14.497634 20.846543 
L 14.304805 21.193117 
L 14.111976 21.539691 
L 13.919148 21.886265 
" style="fill:none;stroke:#008000;stroke-linecap:square;stroke-width:0.605659;"/>
   </g>
   <g id="line2d_66">
    <path clip-path="url(#p5af3cd9ca4)" d="M 38.23155 37.375189 
L 37.844428 37.441673 
L 37.457307 37.508158 
L 37.070186 37.574642 
L 36.683065 37.641127 
L 36.295943 37.707612 
L 35.908822 37.774096 
L 35.521701 37.840581 
L 35.13458 37.907065 
L 34.827316 37.975926 
L 34.520052 38.044787 
L 34.212788 38.113648 
L 33.905524 38.182509 
L 33.59826 38.25137 
L 33.290996 38.320231 
L 32.983732 38.389092 
L 32.676468 38.457952 
L 32.369204 38.526813 
L 32.061941 38.595674 
L 31.754677 38.664535 
L 31.447413 38.733396 
L 31.140149 38.802257 
L 30.832885 38.871118 
L 30.525621 38.939979 
L 30.218357 39.00884 
L 29.752387 39.087126 
L 29.286418 39.165412 
L 28.820448 39.243698 
L 28.354478 39.321985 
L 27.863267 39.406465 
L 27.372056 39.490946 
L 26.880846 39.575427 
L 26.389635 39.659908 
L 25.90697 39.72228 
L 25.424304 39.784653 
L 24.941639 39.847026 
L 24.458974 39.909398 
L 23.976309 39.971771 
L 23.493643 40.034144 
L 23.010978 40.096516 
L 22.528313 40.158889 
" style="fill:none;stroke:#008000;stroke-linecap:square;stroke-width:0.605659;"/>
   </g>
   <g id="line2d_67">
    <path clip-path="url(#p5af3cd9ca4)" d="M 20.987582 3.272727 
L 21.394287 3.332109 
L 21.765702 3.490177 
L 22.137117 3.648245 
L 22.334772 4.0118 
L 22.532428 4.375356 
L 22.595728 4.802566 
L 22.516602 5.197735 
L 22.425687 5.600808 
L 22.334772 6.00388 
L 22.243857 6.406953 
L 22.152942 6.810026 
L 22.026658 7.189815 
L 21.829002 7.569178 
L 21.631347 7.94854 
L 21.362637 8.256772 
L 21.093927 8.565004 
L 20.79325 8.802106 
L 20.453485 8.983884 
L 20.113721 9.165661 
L 19.765885 9.307922 
L 19.510152 9.328428 
" style="fill:none;stroke:#4169e1;stroke-linecap:square;stroke-width:0.605659;"/>
   </g>
   <g id="line2d_68">
    <path clip-path="url(#p5af3cd9ca4)" d="M 20.987582 3.272727 
L 20.7127 3.472021 
L 20.437819 3.671314 
L 20.162937 3.870608 
L 19.888055 4.069901 
L 19.625359 4.416582 
L 19.362662 4.763263 
L 19.278789 5.119609 
L 19.194916 5.475956 
L 19.111043 5.832302 
L 19.02717 6.188649 
L 18.943297 6.544995 
L 18.859424 6.901342 
L 18.775551 7.257688 
L 18.691678 7.614035 
L 18.651957 7.914684 
L 18.612236 8.215333 
L 18.572515 8.515982 
L 18.532794 8.816631 
" style="fill:none;stroke:#4169e1;stroke-linecap:square;stroke-width:0.605659;"/>
   </g>
   <g id="line2d_69">
    <path clip-path="url(#p5af3cd9ca4)" d="M 22.870135 11.470886 
L 23.270351 11.63109 
L 23.670568 11.791294 
L 23.947191 12.075816 
L 24.223813 12.360337 
L 24.306816 12.656821 
L 24.389818 12.953305 
L 24.472821 13.249788 
L 24.555823 13.546272 
L 24.579561 13.941441 
L 24.603299 14.336611 
L 24.555823 14.75549 
L 24.508348 15.174369 
L 24.373993 15.458998 
L 24.239638 15.743627 
L 24.105283 16.028255 
L 23.970928 16.312884 
L 23.745658 16.534179 
L 23.520388 16.755473 
L 23.295118 16.976768 
L 23.069848 17.198063 
L 22.860323 17.522102 
L 22.650799 17.84614 
L 22.441275 18.170179 
L 22.231751 18.494218 
L 22.255488 18.798605 
L 22.279226 19.102992 
L 22.302964 19.407379 
L 22.326701 19.711766 
L 22.425529 20.00024 
L 22.524357 20.288713 
L 22.623184 20.577187 
L 22.722012 20.86566 
L 22.627062 21.245023 
L 22.532111 21.624385 
L 22.314753 21.881352 
L 22.097396 22.138319 
L 21.880038 22.395286 
L 21.662681 22.652252 
L 21.56773 23.063228 
L 21.615205 23.466301 
L 21.662681 23.869373 
L 21.710156 24.272446 
L 21.757631 24.675519 
L 21.662681 25.086495 
L 21.441446 25.403057 
L 20.895955 25.561125 
L 20.350464 25.719193 
L 20.058491 25.849705 
L 19.766518 25.980218 
" style="fill:none;stroke:#4169e1;stroke-linecap:square;stroke-width:0.605659;"/>
   </g>
   <g id="line2d_70">
    <path clip-path="url(#p5af3cd9ca4)" d="M 91.225028 26.388203 
L 91.528751 26.286581 
L 91.832474 26.184958 
L 92.136197 26.083336 
L 92.43992 25.981713 
L 92.743643 25.88009 
L 93.047366 25.778468 
L 93.351089 25.676845 
L 93.654812 25.575223 
L 94.03683 25.660131 
L 94.418847 25.745039 
L 94.800865 25.829947 
L 95.182883 25.914855 
L 95.530956 26.330744 
L 95.879028 26.746632 
L 96.227101 27.162521 
L 96.575174 27.57841 
L 96.859551 27.964661 
L 97.143928 28.350913 
L 97.428305 28.737164 
L 97.712682 29.123415 
L 97.997058 29.509666 
L 98.281435 29.895917 
L 98.565812 30.282169 
L 98.850189 30.66842 
L 99.206728 30.982419 
L 99.563268 31.296418 
L 99.851917 31.364345 
L 100.140567 31.432271 
L 100.429216 31.500198 
L 100.717866 31.568124 
L 101.040381 31.466234 
L 101.362897 31.364345 
L 101.621835 31.207292 
L 101.880773 31.050239 
L 102.139711 30.893186 
L 102.398649 30.736133 
L 102.657587 30.57908 
L 102.916525 30.422026 
L 103.175463 30.264973 
L 103.434401 30.10792 
L 103.731517 30.039994 
L 104.028633 29.972068 
L 104.325749 29.904141 
L 104.622865 29.836215 
L 105.030361 29.96363 
L 105.437857 30.091046 
L 105.845353 30.218461 
L 106.25285 30.345876 
L 106.711302 30.464641 
L 107.169755 30.583405 
L 107.619663 30.566423 
L 108.06957 30.549442 
L 108.519477 30.53246 
L 108.969384 30.515479 
L 109.325924 30.583405 
L 109.682463 30.651331 
L 110.039002 30.719258 
L 110.395542 30.787184 
L 110.718215 31.143691 
L 111.040889 31.500198 
L 111.057822 31.975469 
L 111.074754 32.45074 
L 111.312447 32.892261 
L 111.55014 33.333783 
L 111.872735 33.427128 
L 112.195329 33.520473 
L 112.517923 33.613819 
L 112.840518 33.707164 
L 113.214069 33.851454 
L 113.58762 33.995745 
L 113.961172 34.140035 
L 114.334723 34.284325 
L 114.606361 34.52196 
L 114.877998 34.759596 
L 115.149636 34.997231 
L 115.421274 35.234867 
L 115.557053 35.778064 
L 115.692832 36.321262 
L 115.896659 36.576093 
L 116.100486 36.830923 
L 116.54715 37.138835 
L 116.993813 37.446746 
L 117.440476 37.754658 
L 117.887139 38.06257 
" style="fill:none;stroke:#ff0000;stroke-linecap:square;stroke-width:0.605659;"/>
   </g>
   <g id="line2d_71">
    <path clip-path="url(#p5af3cd9ca4)" d="M 103.294824 30.844858 
L 103.625252 30.87284 
L 103.95568 30.900822 
L 104.286107 30.928804 
L 104.616535 30.956787 
L 104.928784 31.0618 
L 105.241033 31.166814 
L 105.553282 31.271827 
L 105.86553 31.376841 
L 106.177779 31.481854 
L 106.490028 31.586868 
L 106.802277 31.691881 
L 107.114526 31.796895 
L 107.426774 31.901908 
L 107.739023 32.006922 
L 108.051272 32.111936 
L 108.363521 32.216949 
L 108.67577 32.321963 
L 108.988018 32.426976 
L 109.300267 32.53199 
L 109.612516 32.637003 
L 109.872958 32.798008 
L 110.133399 32.959013 
L 110.39384 33.120018 
L 110.654282 33.281022 
L 110.914723 33.442027 
L 111.175165 33.603032 
L 111.435606 33.764037 
L 111.696047 33.925041 
L 111.956489 34.086046 
L 112.21693 34.247051 
L 112.477372 34.408056 
L 112.737813 34.56906 
L 112.998254 34.730065 
L 113.258696 34.89107 
L 113.519137 35.052075 
L 113.779579 35.213079 
L 114.257892 35.490125 
L 114.736205 35.767171 
L 115.214519 36.044216 
L 115.692832 36.321262 
" style="fill:none;stroke:#ff0000;stroke-dasharray:2.240937,0.969054;stroke-dashoffset:0;stroke-width:0.605659;"/>
   </g>
   <g id="line2d_72">
    <path clip-path="url(#p5af3cd9ca4)" d="M 96.394135 41.410614 
L 96.167282 41.922732 
L 95.94043 42.43485 
L 95.713577 42.946968 
L 95.486724 43.459086 
L 95.324755 43.727828 
L 95.162785 43.996569 
L 95.000815 44.265311 
L 94.838845 44.534053 
L 94.676875 44.802795 
L 94.514906 45.071536 
L 94.352936 45.340278 
L 94.190966 45.60902 
L 94.028996 45.877762 
L 93.867027 46.146503 
L 93.705057 46.415245 
L 93.543087 46.683987 
L 93.381117 46.952729 
L 93.219147 47.22147 
L 93.057178 47.490212 
L 92.895208 47.758954 
L 92.827041 48.043476 
L 92.758875 48.327998 
L 92.690708 48.612519 
L 92.622541 48.897041 
L 92.554375 49.181563 
L 92.486208 49.466085 
L 92.418042 49.750607 
L 92.349875 50.035129 
L 92.415075 50.580462 
L 92.480274 51.125796 
L 92.545473 51.671129 
L 92.610673 52.216463 
L 92.930814 52.500984 
L 93.250956 52.785506 
L 93.571097 53.070028 
L 93.891239 53.35455 
L 94.21138 53.639072 
L 94.531522 53.923594 
L 94.851664 54.208115 
L 95.171805 54.492637 
L 95.410408 54.704533 
L 95.649011 54.916429 
L 95.887614 55.128326 
L 96.126216 55.340222 
L 96.364819 55.552118 
L 96.603422 55.764014 
L 96.842025 55.97591 
L 97.080627 56.187806 
L 97.31923 56.399702 
L 97.557833 56.611599 
L 97.796436 56.823495 
L 98.035039 57.035391 
L 98.273641 57.247287 
L 98.512244 57.459183 
L 98.750847 57.671079 
L 98.98945 57.882975 
L 99.326584 58.089051 
L 99.663717 58.295126 
L 100.000851 58.501202 
L 100.337985 58.707277 
L 100.675119 58.913352 
L 101.012252 59.119428 
L 101.349386 59.325503 
L 101.68652 59.531579 
L 102.023654 59.737654 
L 102.360787 59.943729 
L 102.697921 60.149805 
L 103.035055 60.35588 
L 103.372189 60.561956 
L 103.709322 60.768031 
L 104.046456 60.974106 
L 104.38359 61.180182 
L 104.639521 61.482433 
L 104.895452 61.784684 
L 105.151384 62.086935 
L 105.407315 62.389186 
L 105.663246 62.691437 
L 105.919178 62.993688 
L 106.175109 63.295939 
L 106.43104 63.59819 
L 106.686971 63.900441 
L 106.942903 64.202692 
L 107.198834 64.504943 
L 107.454765 64.807194 
L 107.710696 65.109445 
L 107.966628 65.411696 
L 108.222559 65.713947 
L 108.47849 66.016198 
L 108.875067 66.323149 
L 109.271644 66.630099 
L 109.636095 66.587805 
L 110.000547 66.545512 
L 110.370538 66.502791 
" style="fill:none;stroke:#000000;stroke-linecap:square;stroke-width:0.605659;"/>
   </g>
   <g id="line2d_73">
    <path clip-path="url(#p5af3cd9ca4)" d="M 62.826588 49.881333 
L 64.055248 51.073249 
L 66.670027 51.854188 
L 73.563357 54.230651 
L 74.531141 54.604032 
L 75.804427 55.215049 
L 77.485447 56.675039 
L 79.081408 57.405141 
L 84.938827 59.560949 
L 88.402465 60.918943 
L 90.202213 61.64034 
L 93.02078 63.600753 
L 96.119293 65.875593 
L 100.423203 67.437099 
L 102.749293 68.132917 
L 105.958186 68.727273 
L 108.742769 67.912583 
L 110.000547 66.545512 
L 110.000547 66.545512 
" style="fill:none;stroke:#008000;stroke-linecap:square;stroke-width:0.605659;"/>
   </g>
   <g id="line2d_74">
    <path clip-path="url(#p5af3cd9ca4)" d="M 79.796781 45.918533 
L 79.993882 46.155475 
L 80.190984 46.392416 
L 80.388085 46.629357 
L 80.585187 46.866299 
L 80.782288 47.10324 
L 80.97939 47.340181 
L 81.176491 47.577123 
L 81.373593 47.814064 
L 81.882923 47.966792 
L 82.392254 48.119519 
L 82.901584 48.272247 
L 83.410915 48.424974 
L 83.792933 48.620209 
L 84.17495 48.815444 
L 84.556968 49.010679 
L 84.938986 49.205914 
L 85.321003 49.401149 
L 85.703021 49.596384 
L 86.085039 49.791619 
L 86.467056 49.986854 
L 86.7472 50.249962 
L 87.027344 50.51307 
L 87.307487 50.776178 
L 87.587631 51.039286 
L 87.867775 51.302393 
L 88.147918 51.565501 
L 88.428062 51.828609 
L 88.708205 52.091717 
L 88.911954 52.58397 
L 89.115702 53.076223 
L 89.31945 53.568475 
L 89.523198 54.060728 
L 89.565648 54.374781 
L 89.608099 54.688833 
L 89.65055 55.002886 
L 89.693001 55.316939 
L 89.735452 55.630991 
L 89.777902 55.945044 
L 89.820353 56.259097 
L 89.862804 56.57315 
L 89.896749 57.082384 
L 89.930694 57.591618 
L 89.964638 58.100852 
L 89.998583 58.610087 
L 90.11743 59.03452 
L 90.236276 59.458953 
L 90.355123 59.883386 
L 90.473969 60.307819 
L 90.677717 60.630309 
L 90.881465 60.952799 
L 91.085213 61.275289 
L 91.288961 61.597779 
L 91.492709 61.92027 
L 91.696457 62.24276 
L 91.900205 62.56525 
L 92.103953 62.88774 
" style="fill:none;stroke:#ff0000;stroke-linecap:square;stroke-width:0.605659;"/>
   </g>
   <g id="line2d_75">
    <path clip-path="url(#p5af3cd9ca4)" d="M 122.16023 37.819487 
L 121.977134 38.317614 
L 121.794037 38.815741 
L 121.610941 39.313868 
L 121.427845 39.811994 
L 121.259901 40.056786 
L 121.091957 40.301577 
L 120.924013 40.546368 
L 120.75607 40.79116 
L 120.588126 41.035951 
L 120.420182 41.280742 
L 120.252238 41.525534 
L 120.084295 41.770325 
L 119.964657 42.07546 
L 119.845019 42.380594 
L 119.725381 42.685729 
L 119.605744 42.990864 
L 119.486106 43.295998 
L 119.366468 43.601133 
L 119.246831 43.906268 
L 119.127193 44.211402 
L 118.880519 44.682775 
L 118.633846 45.154148 
L 118.387172 45.625521 
L 118.140499 46.096894 
L 117.893825 46.568266 
L 117.647152 47.039639 
L 117.400478 47.511012 
L 117.153804 47.982385 
L 116.894589 48.477521 
L 116.635374 48.972657 
L 116.452674 49.416849 
L 116.269973 49.86104 
L 116.087272 50.305232 
L 115.904572 50.749424 
L 115.721871 51.193615 
L 115.53917 51.637807 
L 115.35647 52.081998 
L 115.173769 52.52619 
L 115.035339 52.782676 
L 114.896909 53.039162 
L 114.758479 53.295648 
L 114.620049 53.552134 
L 114.481619 53.808621 
L 114.343189 54.065107 
L 114.204759 54.321593 
L 114.066329 54.578079 
L 113.873026 55.076847 
L 113.679722 55.575614 
L 113.486419 56.074382 
L 113.293115 56.57315 
L 113.225068 57.048421 
L 113.15702 57.523692 
L 113.15702 57.846235 
L 113.15702 58.168779 
L 113.15702 58.491322 
L 113.15702 58.813866 
L 113.055185 59.085465 
L 112.953351 59.357063 
L 112.851516 59.628662 
L 112.749682 59.900261 
L 112.647847 60.171859 
L 112.546013 60.443458 
L 112.444179 60.715057 
L 112.342344 60.986656 
L 112.248936 61.394054 
L 112.155529 61.801452 
L 112.062121 62.20885 
L 111.968714 62.616248 
L 111.875306 63.023646 
L 111.781899 63.431044 
L 111.688491 63.838442 
L 111.595083 64.24584 
L 111.442015 64.527959 
L 111.288947 64.810078 
L 111.135879 65.092197 
L 110.982811 65.374315 
L 110.829742 65.656434 
L 110.676674 65.938553 
L 110.523606 66.220672 
L 110.370538 66.502791 
" style="fill:none;stroke:#008000;stroke-linecap:square;stroke-width:0.605659;"/>
   </g>
   <g id="line2d_76">
    <path clip-path="url(#p5af3cd9ca4)" d="M 104.766241 39.072921 
L 104.639798 39.424729 
L 104.513356 39.776536 
L 104.386913 40.128343 
L 104.260471 40.480151 
L 104.226526 41.023455 
L 104.192581 41.566759 
L 104.158636 42.110064 
L 104.124691 42.653368 
L 104.218059 43.009874 
L 104.311428 43.366381 
L 104.404796 43.722888 
L 104.498164 44.079395 
L 104.591532 44.435901 
L 104.6849 44.792408 
L 104.778268 45.148915 
L 104.871636 45.505421 
L 105.049905 45.91282 
L 105.228175 46.320218 
L 105.406445 46.727616 
L 105.584714 47.135014 
L 105.762984 47.542412 
L 105.941254 47.94981 
L 106.119523 48.357208 
L 106.297793 48.764606 
L 106.594909 49.010732 
L 106.892025 49.256859 
L 107.189141 49.502985 
L 107.486257 49.749111 
L 107.783373 49.995238 
L 108.080489 50.241364 
L 108.377605 50.48749 
L 108.674721 50.733617 
L 108.937893 50.979797 
L 109.201064 51.225976 
L 109.464235 51.472156 
L 109.727406 51.718336 
L 109.990577 51.964515 
L 110.253749 52.210695 
L 110.51692 52.456875 
L 110.780091 52.703055 
L 111.119698 53.161344 
L 111.459304 53.619634 
L 111.798911 54.077923 
L 112.138517 54.536213 
L 112.282842 54.79083 
L 112.427167 55.045447 
L 112.571491 55.300064 
L 112.715816 55.554681 
L 112.860141 55.809298 
L 113.004466 56.063915 
L 113.148791 56.318532 
L 113.293115 56.57315 
" style="fill:none;stroke:#4169e1;stroke-linecap:square;stroke-width:0.605659;"/>
   </g>
   <g id="line2d_77">
    <path clip-path="url(#p5af3cd9ca4)" d="M 87.950184 39.235688 
L 87.57323 39.223726 
L 87.315598 39.582155 
" style="fill:none;stroke:#008000;stroke-linecap:square;stroke-width:0.605659;"/>
   </g>
   <g id="line2d_78">
    <path clip-path="url(#p5af3cd9ca4)" d="M 87.315598 39.582155 
L 87.380164 39.848734 
L 87.755535 39.994413 
L 88.130906 40.140092 
L 88.417894 40.05465 
L 88.704882 39.969208 
L 88.99187 39.883766 
L 89.278858 39.798324 
L 89.632865 39.639829 
L 89.986873 39.481334 
" style="fill:none;stroke:#008000;stroke-linecap:square;stroke-width:0.605659;"/>
   </g>
   <g id="line2d_79">
    <path clip-path="url(#p5af3cd9ca4)" d="M 87.315598 39.582155 
L 86.956843 39.638547 
L 86.598088 39.694939 
" style="fill:none;stroke:#008000;stroke-linecap:square;stroke-width:0.605659;"/>
   </g>
   <g id="line2d_80">
    <path clip-path="url(#p5af3cd9ca4)" d="M 60.016685 37.193625 
L 59.733811 36.841176 
L 59.450938 36.488728 
L 59.168064 36.13628 
L 58.885191 35.783832 
" style="fill:none;stroke:#008000;stroke-linecap:square;stroke-width:0.605659;"/>
   </g>
   <g id="line2d_81">
    <path clip-path="url(#p5af3cd9ca4)" d="M 76.798559 32.221755 
L 76.635838 32.493301 
L 76.473116 32.764846 
L 76.310395 33.036391 
L 76.147673 33.307936 
L 75.984952 33.579482 
L 75.82223 33.851027 
L 75.659509 34.122572 
L 75.496788 34.394118 
L 75.259688 34.616748 
L 75.022589 34.839377 
L 74.785489 35.062007 
L 74.54839 35.284637 
L 74.31129 35.507267 
L 74.074191 35.729897 
L 73.837092 35.952526 
L 73.599992 36.175156 
L 73.187749 36.504962 
L 72.775505 36.834768 
L 72.561233 37.263687 
L 72.627066 37.741735 
L 72.866183 37.931416 
L 73.1053 38.121097 
L 73.43102 38.234468 
L 73.75674 38.347839 
L 74.08246 38.46121 
L 74.40818 38.574581 
L 74.7339 38.687952 
L 75.059619 38.801322 
L 75.385339 38.914693 
L 75.711059 39.028064 
L 75.977 39.184743 
L 76.242941 39.341423 
L 76.508881 39.498102 
L 76.774822 39.654781 
L 77.040762 39.81146 
L 77.306703 39.96814 
L 77.572644 40.124819 
L 77.838584 40.281498 
L 78.053173 40.627538 
L 77.987024 41.006901 
" style="fill:none;stroke:#000000;stroke-linecap:square;stroke-width:0.605659;"/>
   </g>
   <g id="line2d_82">
    <path clip-path="url(#p5af3cd9ca4)" d="M 61.238065 36.116201 
L 60.93272 36.385557 
L 60.627375 36.654913 
L 60.32203 36.924269 
L 60.016685 37.193625 
" style="fill:none;stroke:#4169e1;stroke-linecap:square;stroke-width:0.605659;"/>
   </g>
   <g id="line2d_83">
    <path clip-path="url(#p5af3cd9ca4)" d="M 93.937448 29.372265 
L 93.701338 29.869858 
L 93.465227 30.36745 
L 93.229117 30.865043 
L 92.993007 31.362636 
L 92.69779 31.823382 
L 92.402573 32.284128 
L 92.107356 32.744874 
L 91.812139 33.20562 
" style="fill:none;stroke:#008000;stroke-linecap:square;stroke-width:0.605659;"/>
   </g>
   <g id="line2d_84">
    <path clip-path="url(#p5af3cd9ca4)" d="M 88.093242 37.959612 
L 88.218102 38.28066 
L 88.342962 38.601709 
L 88.621009 38.790215 
L 88.899056 38.978721 
L 89.177103 39.167228 
L 89.45515 39.355734 
L 89.986873 39.481334 
" style="fill:none;stroke:#4169e1;stroke-linecap:square;stroke-width:0.605659;"/>
   </g>
   <g id="line2d_85">
    <path clip-path="url(#p5af3cd9ca4)" d="M 114.652174 37.305554 
L 115.056545 37.400181 
L 115.460915 37.494808 
L 115.865286 37.589435 
L 116.269657 37.684062 
L 116.674027 37.778689 
L 117.078398 37.873316 
L 117.482768 37.967943 
L 117.887139 38.06257 
L 118.387212 38.200986 
L 118.715266 38.208569 
L 119.04332 38.216152 
L 119.371374 38.223735 
L 119.699428 38.231318 
L 120.265967 38.219142 
L 120.832505 38.206967 
L 121.164436 38.110097 
L 121.496367 38.013227 
L 121.828299 37.916357 
L 122.16023 37.819487 
L 122.603253 37.646788 
L 123.046277 37.474088 
L 123.4893 37.301388 
L 123.932323 37.128689 
L 124.168196 36.829321 
L 124.404069 36.529954 
L 124.639942 36.230587 
L 124.875815 35.931219 
" style="fill:none;stroke:#000000;stroke-linecap:square;stroke-width:0.605659;"/>
   </g>
  </g>
 </g>
 <defs>
  <clipPath id="p5af3cd9ca4">
   <rect height="72" width="130.822283" x="0" y="0"/>
  </clipPath>
 </defs>
</svg>
