<?xml version="1.0" encoding="utf-8" standalone="no"?>
<!DOCTYPE svg PUBLIC "-//W3C//DTD SVG 1.1//EN"
  "http://www.w3.org/Graphics/SVG/1.1/DTD/svg11.dtd">
<svg height="87.005063pt" version="1.1" viewBox="0 0 72 87.005063" width="72pt" xmlns="http://www.w3.org/2000/svg" xmlns:xlink="http://www.w3.org/1999/xlink">
 <metadata>
  <rdf:RDF xmlns:cc="http://creativecommons.org/ns#" xmlns:dc="http://purl.org/dc/elements/1.1/" xmlns:rdf="http://www.w3.org/1999/02/22-rdf-syntax-ns#">
   <cc:Work>
    <dc:type rdf:resource="http://purl.org/dc/dcmitype/StillImage"/>
    <dc:date>2022-04-19T00:43:37.007683</dc:date>
    <dc:format>image/svg+xml</dc:format>
    <dc:creator>
     <cc:Agent>
      <dc:title>Matplotlib v3.4.3, https://matplotlib.org/</dc:title>
     </cc:Agent>
    </dc:creator>
   </cc:Work>
  </rdf:RDF>
 </metadata>
 <defs>
  <style type="text/css">*{stroke-linecap:butt;stroke-linejoin:round;}</style>
 </defs>
 <g id="figure_1">
  <g id="patch_1">
   <path d="M 0 87.005063 
L 72 87.005063 
L 72 0 
L 0 0 
z
" style="fill:#ffffff;"/>
  </g>
  <g id="axes_1">
   <g id="line2d_1">
    <path clip-path="url(#p79f7ce224d)" d="M 61.140327 81.790721 
L 59.59459 80.136227 
L 58.048853 78.481732 
L 56.503116 76.827237 
L 54.957379 75.172743 
L 53.411642 73.518248 
L 51.865905 71.863753 
L 50.320168 70.209258 
L 48.774431 68.554764 
L 47.228694 66.900269 
L 45.682957 65.245774 
L 44.13722 63.59128 
L 42.591483 61.936785 
L 41.045746 60.28229 
L 39.500009 58.627796 
L 37.954272 56.973301 
L 36.408535 55.318806 
L 34.862798 53.664311 
L 33.317061 52.009817 
L 31.771324 50.355322 
L 30.225587 48.700827 
L 28.67985 47.046333 
L 27.134113 45.391838 
L 25.588376 43.737343 
L 24.042639 42.082849 
L 22.496902 40.428354 
L 20.951165 38.773859 
L 19.405428 37.119364 
L 17.859691 35.46487 
L 16.313954 33.810375 
L 14.768217 32.15588 
L 13.22248 30.501386 
L 11.676743 28.846891 
" style="fill:none;stroke:#808080;stroke-linecap:square;stroke-width:0.4;"/>
   </g>
   <g id="line2d_2">
    <path clip-path="url(#p79f7ce224d)" d="M 68.727273 77.648714 
L 67.571913 75.55659 
L 66.416554 73.464465 
L 65.261195 71.372341 
L 64.105836 69.280216 
L 62.950476 67.188092 
L 61.795117 65.095967 
L 60.639758 63.003843 
L 59.484399 60.911718 
" style="fill:none;stroke:#808080;stroke-linecap:square;stroke-width:0.4;"/>
   </g>
   <g id="line2d_3">
    <path clip-path="url(#p79f7ce224d)" d="M 59.705008 83.050287 
L 57.941499 81.208878 
L 56.17799 79.367468 
L 54.414481 77.526059 
L 52.650973 75.68465 
L 50.887464 73.843241 
L 49.123955 72.001831 
L 47.360446 70.160422 
L 45.596938 68.319013 
L 43.833429 66.477603 
L 42.06992 64.636194 
L 40.306411 62.794785 
L 38.542902 60.953375 
L 36.779394 59.111966 
L 35.015885 57.270557 
L 33.252376 55.429148 
L 31.488867 53.587738 
L 29.725359 51.746329 
L 27.96185 49.90492 
L 26.198341 48.06351 
L 24.434832 46.222101 
L 22.671324 44.380692 
L 20.907815 42.539282 
L 19.144306 40.697873 
L 17.380797 38.856464 
L 15.617289 37.015055 
L 13.85378 35.173645 
L 12.090271 33.332236 
L 10.326762 31.490827 
L 8.563254 29.649417 
L 6.799745 27.808008 
L 5.036236 25.966599 
L 3.272727 24.12519 
" style="fill:none;stroke:#808080;stroke-linecap:square;stroke-width:0.4;"/>
   </g>
   <g id="line2d_4">
    <path clip-path="url(#p79f7ce224d)" d="M 9.425262 62.593365 
L 10.007424 63.139709 
L 10.589586 63.686052 
L 11.171749 64.232395 
L 11.753911 64.778738 
L 12.336073 65.325082 
L 12.918235 65.871425 
L 13.500397 66.417768 
L 14.082559 66.964111 
L 14.664722 67.510455 
L 15.246884 68.056798 
L 15.829046 68.603141 
L 16.411208 69.149484 
L 16.99337 69.695828 
L 17.575532 70.242171 
L 18.157694 70.788514 
L 18.739857 71.334858 
L 19.326501 71.719998 
L 19.913146 72.105139 
L 20.499791 72.49028 
L 21.086435 72.875421 
L 21.67308 73.260562 
L 22.259725 73.645703 
L 22.846369 74.030844 
L 23.433014 74.415985 
L 24.019659 74.801126 
L 24.606304 75.186267 
L 25.192948 75.571407 
L 25.779593 75.956548 
L 26.366238 76.341689 
L 26.952882 76.72683 
L 27.539527 77.111971 
L 28.126172 77.497112 
L 28.717185 77.774771 
L 29.308199 78.052429 
L 29.899213 78.330088 
L 30.490227 78.607747 
L 31.260542 78.813779 
L 32.030857 79.019811 
L 32.801172 79.225842 
L 33.571487 79.431874 
L 34.379025 79.456585 
L 35.186562 79.481295 
L 35.994099 79.506006 
L 36.801636 79.530716 
L 37.537453 79.4838 
L 38.273269 79.436883 
L 39.009086 79.389967 
L 39.744903 79.34305 
L 40.49865 79.296134 
L 41.252396 79.249217 
L 42.006143 79.202301 
L 42.75989 79.155384 
L 43.513637 79.108468 
L 44.267384 79.061551 
L 45.02113 79.014635 
L 45.774877 78.967718 
" style="fill:none;stroke:#000000;stroke-linecap:square;stroke-width:0.4;"/>
   </g>
   <g id="line2d_5">
    <path clip-path="url(#p79f7ce224d)" d="M 10.910513 55.86277 
L 11.507513 56.246701 
L 12.104513 56.630631 
L 12.701513 57.014562 
L 13.298513 57.398492 
L 13.895513 57.782422 
L 14.492513 58.166353 
L 15.089513 58.550283 
L 15.686513 58.934214 
L 16.283512 59.318144 
L 16.880512 59.702074 
L 17.477512 60.086005 
L 18.074512 60.469935 
L 18.671512 60.853866 
L 19.268512 61.237796 
L 19.865512 61.621727 
L 20.462512 62.005657 
L 21.059512 62.389587 
L 21.656512 62.773518 
L 22.253512 63.157448 
L 22.850512 63.541379 
L 23.447511 63.925309 
L 24.044511 64.30924 
L 24.641511 64.69317 
L 25.238511 65.0771 
L 25.835511 65.461031 
L 26.432511 65.844961 
L 27.029511 66.228892 
L 27.626511 66.612822 
L 28.223511 66.996753 
L 28.820511 67.380683 
L 29.417511 67.764613 
L 30.014511 68.148544 
L 30.617043 68.562194 
L 31.219575 68.975843 
L 31.822107 69.389493 
L 32.424639 69.803143 
L 33.027171 70.216793 
L 33.629704 70.630442 
L 34.232236 71.044092 
L 34.834768 71.457742 
L 35.4373 71.871392 
L 36.039832 72.285041 
L 36.642364 72.698691 
L 37.244896 73.112341 
L 37.847429 73.525991 
L 38.449961 73.939641 
L 39.052493 74.35329 
L 39.655025 74.76694 
L 40.420007 75.292037 
L 41.184988 75.817135 
L 41.94997 76.342232 
L 42.714951 76.867329 
L 43.479933 77.392426 
L 44.244914 77.917524 
L 45.009896 78.442621 
L 45.774877 78.967718 
" style="fill:none;stroke:#ff0000;stroke-linecap:square;stroke-width:0.4;"/>
   </g>
   <g id="line2d_6">
    <path clip-path="url(#p79f7ce224d)" d="M 13.025816 32.078618 
L 12.837663 32.664657 
L 12.64951 33.250696 
L 12.461357 33.836734 
L 12.273204 34.422773 
L 12.165396 35.125351 
L 12.057588 35.82793 
L 11.94978 36.530508 
L 11.841973 37.233087 
L 11.788296 37.886912 
L 11.734619 38.540738 
L 11.680942 39.194563 
L 11.627265 39.848389 
L 11.573588 40.502214 
L 11.519911 41.156039 
L 11.466234 41.809865 
L 11.412557 42.46369 
L 11.453978 43.254592 
L 11.495399 44.045494 
L 11.53682 44.836395 
L 11.578241 45.627297 
L 11.619662 46.418199 
L 11.661083 47.2091 
L 11.702503 48.000002 
L 11.743924 48.790904 
L 11.732576 49.501997 
L 11.721228 50.213091 
L 11.70988 50.924184 
L 11.698532 51.635278 
L 11.501527 52.692151 
L 11.304522 53.749024 
L 11.107518 54.805897 
L 10.910513 55.86277 
L 10.700572 56.542141 
L 10.49063 57.221512 
L 10.280689 57.900882 
L 10.070747 58.580253 
L 9.881459 59.192004 
L 9.692172 59.803755 
L 9.625444 60.501157 
L 9.558717 61.19856 
L 9.491989 61.895963 
L 9.425262 62.593365 
" style="fill:none;stroke:#008000;stroke-linecap:square;stroke-width:0.4;"/>
   </g>
   <g id="line2d_7">
    <path clip-path="url(#p79f7ce224d)" d="M 45.774877 78.967718 
L 46.539972 78.918214 
L 47.305067 78.868709 
L 48.070162 78.819205 
L 48.835257 78.769701 
L 49.600352 78.720196 
L 50.365447 78.670692 
L 51.130542 78.621187 
L 51.895637 78.571683 
L 53.113525 78.652493 
L 54.331413 78.733303 
L 55.513894 79.010795 
L 56.696375 79.288286 
L 57.488933 79.677977 
L 58.281491 80.067668 
L 58.966467 80.672072 
L 59.651444 81.276477 
" style="fill:none;stroke:#008000;stroke-linecap:square;stroke-width:0.4;"/>
   </g>
   <g id="line2d_8">
    <path clip-path="url(#p79f7ce224d)" d="M 4.087981 23.73049 
L 4.540093 24.312688 
L 4.992205 24.894887 
L 5.444317 25.477085 
L 5.896429 26.059284 
L 6.362159 26.55199 
L 6.827888 27.044697 
L 7.293618 27.537404 
L 7.759348 28.03011 
L 8.673104 28.782443 
L 9.58686 29.534777 
L 10.119771 29.942332 
L 10.652682 30.349888 
L 11.185593 30.757444 
L 11.718504 31.164999 
L 12.37216 31.621809 
L 13.025816 32.078618 
" style="fill:none;stroke:#008000;stroke-linecap:square;stroke-width:0.4;"/>
   </g>
   <g id="line2d_9">
    <path clip-path="url(#p79f7ce224d)" d="M 11.743924 48.790904 
L 12.666759 48.979071 
L 13.589594 49.167237 
L 14.512429 49.355404 
L 15.435264 49.543571 
L 16.465225 50.045127 
L 17.495187 50.546682 
L 18.525149 51.048238 
L 19.555111 51.549793 
L 20.191063 51.934976 
L 20.827016 52.320158 
L 21.462968 52.705341 
L 22.098921 53.090524 
L 22.734873 53.475706 
L 23.370826 53.860889 
L 24.006779 54.246072 
L 24.642731 54.631254 
L 25.292075 55.168623 
L 25.941418 55.705992 
L 26.590762 56.243361 
L 27.240105 56.78073 
L 27.889448 57.318099 
L 28.538792 57.855468 
L 29.188135 58.392838 
L 29.837479 58.930207 
L 30.450962 59.409389 
L 31.064445 59.888572 
L 31.677928 60.367754 
L 32.291411 60.846937 
L 32.904895 61.326119 
L 33.518378 61.805302 
L 34.131861 62.284485 
L 34.745344 62.763667 
L 35.309576 63.229326 
L 35.873808 63.694984 
L 36.43804 64.160643 
L 37.002272 64.626302 
" style="fill:none;stroke:#000000;stroke-linecap:square;stroke-width:0.4;"/>
   </g>
   <g id="line2d_10">
    <path clip-path="url(#p79f7ce224d)" d="M 37.002272 64.626302 
L 37.46769 65.062095 
L 37.933107 65.497888 
L 38.398525 65.933681 
L 38.863943 66.369474 
L 39.32936 66.805267 
L 39.794778 67.241061 
L 40.260196 67.676854 
L 40.725613 68.112647 
L 41.191031 68.54844 
L 41.656449 68.984233 
L 42.121866 69.420026 
L 42.587284 69.85582 
L 43.052702 70.291613 
L 43.518119 70.727406 
L 43.983537 71.163199 
L 44.448955 71.598992 
L 44.914372 72.034785 
L 45.37979 72.470579 
L 45.845208 72.906372 
L 46.310625 73.342165 
L 46.776043 73.777958 
L 47.24146 74.213751 
L 47.706878 74.649545 
L 48.172296 75.085338 
L 48.637713 75.521131 
L 49.103131 75.956924 
L 49.568549 76.392717 
L 50.033966 76.82851 
L 50.499384 77.264304 
L 50.964802 77.700097 
L 51.430219 78.13589 
L 51.895637 78.571683 
" style="fill:none;stroke:#4169e1;stroke-linecap:square;stroke-width:0.4;"/>
   </g>
   <g id="line2d_11">
    <path clip-path="url(#p79f7ce224d)" d="M 13.025816 32.078618 
L 13.817607 32.923887 
L 14.609399 33.769156 
L 15.401191 34.614425 
L 16.192982 35.459694 
L 16.984774 36.304963 
L 17.776565 37.150232 
L 18.568357 37.995501 
L 19.360149 38.840769 
L 20.15194 39.686038 
L 20.943732 40.531307 
L 21.735523 41.376576 
L 22.527315 42.221845 
L 23.319107 43.067114 
L 24.110898 43.912383 
L 24.90269 44.757652 
L 25.694482 45.60292 
L 26.486273 46.448189 
L 27.278065 47.293458 
L 28.069856 48.138727 
L 28.861648 48.983996 
L 29.65344 49.829265 
L 30.445231 50.674534 
L 31.237023 51.519803 
L 32.028814 52.365071 
L 32.820606 53.21034 
L 33.612398 54.055609 
L 34.404189 54.900878 
L 35.195981 55.746147 
L 35.987772 56.591416 
L 36.779564 57.436685 
L 37.571356 58.281953 
L 38.363147 59.127222 
" style="fill:none;stroke:#4169e1;stroke-linecap:square;stroke-width:0.4;"/>
   </g>
   <g id="line2d_12">
    <path clip-path="url(#p79f7ce224d)" d="M 38.363147 59.127222 
L 39.028406 59.819387 
L 39.693666 60.511551 
L 40.358925 61.203715 
L 41.024184 61.895879 
L 41.689444 62.588043 
L 42.354703 63.280208 
L 43.019962 63.972372 
L 43.685221 64.664536 
L 44.350481 65.3567 
L 45.01574 66.048864 
L 45.680999 66.741029 
L 46.346259 67.433193 
L 47.011518 68.125357 
L 47.676777 68.817521 
L 48.342036 69.509685 
L 49.007296 70.20185 
L 49.672555 70.894014 
L 50.337814 71.586178 
L 51.003073 72.278342 
L 51.668333 72.970506 
L 52.333592 73.662671 
L 52.998851 74.354835 
L 53.664111 75.046999 
L 54.32937 75.739163 
L 54.994629 76.431327 
L 55.659888 77.123492 
L 56.325148 77.815656 
L 56.990407 78.50782 
L 57.655666 79.199984 
L 58.320926 79.892148 
L 58.986185 80.584312 
L 59.651444 81.276477 
" style="fill:none;stroke:#008000;stroke-linecap:square;stroke-width:0.4;"/>
   </g>
   <g id="line2d_13">
    <path clip-path="url(#p79f7ce224d)" d="M 12.273204 34.422773 
L 12.410971 35.052222 
L 12.548738 35.681671 
L 12.686505 36.31112 
L 12.824272 36.940568 
L 12.962039 37.570017 
L 13.099806 38.199466 
L 13.237573 38.828915 
L 13.37534 39.458364 
L 13.621596 40.183816 
L 13.867852 40.909269 
L 14.114107 41.634721 
L 14.360363 42.360173 
L 14.566446 43.336571 
L 14.772529 44.312968 
L 14.978612 45.289365 
L 15.184696 46.265762 
L 15.247338 47.085214 
L 15.30998 47.904666 
L 15.372622 48.724119 
L 15.435264 49.543571 
" style="fill:none;stroke:#008000;stroke-linecap:square;stroke-width:0.4;"/>
   </g>
   <g id="line2d_14">
    <path clip-path="url(#p79f7ce224d)" d="M 10.070747 58.580253 
L 10.647235 59.195009 
L 11.223723 59.809765 
L 11.800211 60.424522 
L 12.376699 61.039278 
L 12.926122 61.497465 
L 13.475545 61.955652 
L 14.024967 62.413839 
L 14.57439 62.872026 
L 15.123813 63.330213 
L 15.673235 63.7884 
L 16.222658 64.246587 
L 16.77208 64.704774 
L 17.321503 65.162961 
L 17.870926 65.621148 
L 18.420348 66.079335 
L 18.969771 66.537522 
L 19.519194 66.995709 
L 20.068616 67.453896 
L 20.618039 67.912083 
L 21.167461 68.37027 
L 22.116851 68.952469 
L 23.066241 69.534667 
L 24.01563 70.116866 
L 24.96502 70.699064 
L 25.79775 71.191604 
L 26.63048 71.684143 
L 27.46321 72.176683 
L 28.295941 72.669222 
L 29.093264 73.099151 
L 29.890588 73.52908 
L 30.687912 73.959008 
L 31.485236 74.388937 
L 32.541979 74.675779 
L 33.598723 74.96262 
L 34.727187 75.03408 
L 35.855651 75.10554 
L 36.805495 75.02089 
L 37.755338 74.93624 
L 38.705182 74.85159 
L 39.655025 74.76694 
" style="fill:none;stroke:#ff0000;stroke-dasharray:1.48,0.64;stroke-dashoffset:0;stroke-width:0.4;"/>
   </g>
   <g id="line2d_15">
    <path clip-path="url(#p79f7ce224d)" d="M 58.74722 62.709571 
L 58.836644 63.605158 
L 58.926068 64.500746 
L 59.275365 65.333722 
L 59.624662 66.166698 
L 59.97396 66.999674 
L 60.323257 67.832651 
L 60.950131 68.853794 
L 61.577005 69.874937 
L 62.203879 70.89608 
L 62.830753 71.917223 
L 63.394985 72.848707 
L 63.959217 73.780191 
L 64.523449 74.711675 
L 65.087681 75.64316 
L 65.821682 76.503017 
L 66.555683 77.362874 
L 67.415422 77.971954 
" style="fill:none;stroke:#008000;stroke-linecap:square;stroke-width:0.4;"/>
   </g>
   <g id="line2d_16">
    <path clip-path="url(#p79f7ce224d)" d="M 16.009028 27.456427 
L 16.886924 27.277443 
L 17.76482 27.098459 
L 18.588699 27.313507 
L 19.412577 27.528555 
L 20.056474 27.981858 
L 20.70037 28.435161 
L 21.344266 28.888465 
L 21.988163 29.341768 
" style="fill:none;stroke:#4169e1;stroke-linecap:square;stroke-width:0.4;"/>
   </g>
   <g id="line2d_17">
    <path clip-path="url(#p79f7ce224d)" d="M 21.988163 29.341768 
L 22.427791 29.775036 
L 22.86742 30.208304 
L 23.307049 30.641572 
L 23.746678 31.074839 
L 24.185626 31.594427 
L 24.624574 32.114015 
L 25.063522 32.633602 
L 25.50247 33.15319 
L 26.00406 33.618848 
L 26.50565 34.084507 
L 27.00724 34.550165 
L 27.50883 35.015824 
L 28.296848 35.499681 
L 29.084867 35.983539 
L 29.595308 36.341674 
L 30.10575 36.699808 
L 30.616192 37.057943 
L 31.126633 37.416078 
L 31.950512 38.186443 
L 32.77439 38.956808 
L 33.598723 39.762904 
L 34.423055 40.568999 
L 34.933497 40.945166 
L 35.443939 41.321332 
L 35.95438 41.697499 
L 36.464822 42.073666 
" style="fill:none;stroke:#000000;stroke-linecap:square;stroke-width:0.4;"/>
   </g>
   <g id="line2d_18">
    <path clip-path="url(#p79f7ce224d)" d="M 13.626816 28.961761 
L 14.222369 28.585428 
L 14.817922 28.209094 
L 15.413475 27.83276 
L 16.009028 27.456427 
L 16.77696 26.766871 
L 17.544892 26.077316 
L 18.312824 25.38776 
L 19.080756 24.698205 
L 19.848688 24.00865 
L 20.61662 23.319094 
L 21.384552 22.629539 
L 22.152484 21.939983 
L 22.636144 21.492106 
L 23.119804 21.044229 
L 23.603464 20.596352 
L 24.087124 20.148475 
L 24.570784 19.700598 
L 25.054444 19.252721 
L 25.538103 18.804844 
L 26.021763 18.356967 
L 26.595074 17.497109 
L 27.168384 16.637252 
L 27.562394 15.634141 
L 27.956403 14.63103 
L 28.189268 13.484665 
L 28.422133 12.3383 
L 28.60098 11.137839 
L 28.779827 9.937378 
L 28.869478 9.292569 
L 28.959129 8.647759 
L 29.04878 8.00295 
L 29.13843 7.358141 
L 29.227854 6.408791 
L 29.317278 5.459442 
L 29.711287 4.491727 
L 30.463899 3.990172 
L 31.502485 3.954776 
L 32.398538 4.778903 
L 32.756687 5.33422 
L 33.114836 5.889538 
L 33.472985 6.444855 
L 33.831134 7.000173 
L 34.2433 7.770371 
L 34.655466 8.540569 
L 35.067633 9.310768 
L 35.479799 10.080966 
L 35.775306 10.869196 
L 36.070813 11.657427 
L 36.36632 12.445657 
L 36.661826 13.233887 
L 36.822971 13.99507 
L 36.984115 14.756252 
L 37.145259 15.517434 
L 37.306404 16.278617 
L 37.485478 17.174371 
L 37.664553 18.070125 
L 37.843627 18.965879 
L 38.022701 19.861633 
L 38.201776 20.954236 
L 38.38085 22.046839 
L 38.559925 23.139443 
L 38.738999 24.232046 
L 38.864737 25.360713 
L 38.990475 26.48938 
L 39.008178 27.456761 
L 39.025881 28.424142 
L 38.954161 29.104848 
L 38.88244 29.785555 
L 38.81072 30.466261 
L 38.738999 31.146967 
L 38.577855 31.890285 
L 38.416711 32.633602 
L 38.255566 33.376919 
L 38.094422 34.120237 
L 37.906496 34.827824 
L 37.71857 35.535411 
L 37.530644 36.242999 
L 37.342718 36.950586 
L 37.217207 37.586547 
L 37.091696 38.222507 
L 36.966185 38.858467 
L 36.840674 39.494428 
L 36.746711 40.139237 
L 36.652748 40.784047 
L 36.558785 41.428856 
L 36.464822 42.073666 
" style="fill:none;stroke:#4169e1;stroke-linecap:square;stroke-width:0.4;"/>
   </g>
   <g id="line2d_19">
    <path clip-path="url(#p79f7ce224d)" d="M 36.464822 42.073666 
L 36.388562 42.745523 
L 36.312302 43.41738 
L 36.236042 44.089238 
L 36.159783 44.761095 
L 36.177713 45.764206 
L 36.195643 46.767317 
L 36.213573 47.770428 
L 36.231503 48.77354 
L 36.276442 49.722889 
L 36.321381 50.672238 
L 36.36632 51.621587 
L 36.411258 52.570936 
L 36.583524 53.363508 
L 36.755789 54.156079 
L 36.928055 54.94865 
L 37.100321 55.741221 
L 37.416027 56.587722 
L 37.731734 57.434222 
L 38.04744 58.280722 
L 38.363147 59.127222 
" style="fill:none;stroke:#008000;stroke-linecap:square;stroke-width:0.4;"/>
   </g>
   <g id="line2d_20">
    <path clip-path="url(#p79f7ce224d)" d="M 27.956403 14.63103 
L 28.592355 14.662419 
L 29.228308 14.693808 
L 29.864261 14.725197 
L 30.500213 14.756586 
L 31.556957 15.105872 
L 32.6137 15.455157 
L 33.240574 15.974411 
L 33.867448 16.493664 
L 34.153876 17.102744 
L 34.440305 17.711823 
L 34.512025 18.732966 
L 34.583746 19.754109 
L 34.494095 20.381054 
L 34.404444 21.007998 
L 34.314794 21.634943 
L 34.225143 22.261887 
L 34.17158 23.336792 
L 34.118016 24.411697 
L 34.494322 25.378744 
L 34.870628 26.345792 
L 35.425782 26.990935 
L 35.980935 27.636078 
L 36.357241 28.513634 
L 36.733547 29.391189 
L 36.788018 30.606676 
L 36.840674 31.791443 
L 36.840674 32.481165 
L 36.840674 33.170888 
L 36.840674 33.86061 
L 36.840674 34.550332 
L 36.840674 35.168344 
L 36.840674 35.786356 
L 36.840674 36.404368 
L 36.840674 37.02238 
L 36.840674 37.640392 
L 36.840674 38.258404 
L 36.840674 38.876416 
L 36.840674 39.494428 
" style="fill:none;stroke:#4169e1;stroke-linecap:square;stroke-width:0.4;"/>
   </g>
   <g id="line2d_21">
    <path clip-path="url(#p79f7ce224d)" d="M 22.152484 21.939983 
L 22.81885 22.332512 
L 23.485216 22.725041 
L 24.151582 23.11757 
L 24.817947 23.510099 
L 25.484313 23.902628 
L 26.150679 24.295157 
L 26.817044 24.687686 
L 27.48341 25.080215 
L 28.147052 25.475833 
L 28.810695 25.871451 
L 29.474337 26.267069 
L 30.137979 26.662687 
L 30.801621 27.058304 
L 31.465263 27.453922 
L 32.128905 27.84954 
L 32.792548 28.245158 
L 33.791415 28.835538 
L 34.790283 29.425917 
L 35.789151 30.016297 
L 36.788018 30.606676 
" style="fill:none;stroke:#000000;stroke-linecap:square;stroke-width:0.4;"/>
   </g>
   <g id="line2d_22">
    <path clip-path="url(#p79f7ce224d)" d="M 13.626816 28.961761 
L 14.334035 29.749825 
L 15.041254 30.537888 
L 15.963635 31.039443 
L 16.886016 31.540999 
L 17.907353 31.540999 
L 18.92869 31.540999 
L 19.693559 30.991191 
L 20.458427 30.441383 
L 21.223295 29.891576 
L 21.988163 29.341768 
L 22.683126 28.897314 
L 23.378089 28.452859 
L 24.073052 28.008405 
L 24.768015 27.563951 
L 25.663614 26.793919 
L 26.559214 26.023888 
L 27.021312 25.552052 
L 27.48341 25.080215 
L 28.183821 24.384649 
L 28.884231 23.689083 
L 29.584641 22.993517 
L 30.285051 22.297951 
L 30.714921 21.715753 
L 31.14479 21.133554 
L 31.57466 20.551356 
L 32.004529 19.969157 
L 32.6137 19.234522 
L 33.222871 18.499887 
L 33.831588 18.105855 
L 34.440305 17.711823 
" style="fill:none;stroke:#008000;stroke-linecap:square;stroke-width:0.4;"/>
   </g>
   <g id="line2d_23">
    <path clip-path="url(#p79f7ce224d)" d="M 36.464822 42.073666 
L 37.167729 42.763388 
L 37.870636 43.45311 
L 38.573543 44.142833 
L 39.276449 44.832555 
L 39.966192 45.764039 
L 40.655935 46.695523 
L 41.345678 47.627008 
L 42.035421 48.558492 
L 42.715859 49.337539 
L 43.396296 50.116586 
L 44.220175 50.806476 
L 45.044054 51.496365 
L 45.680006 51.890397 
L 46.315959 52.284428 
L 47.345921 52.64273 
L 48.375882 53.001032 
L 49.083328 53.377198 
L 49.790775 53.753365 
L 50.498221 54.129532 
L 51.205667 54.505698 
L 51.743117 55.016103 
L 52.280568 55.526508 
L 52.818018 56.036912 
L 53.355468 56.547317 
L 53.691375 57.129515 
L 54.027281 57.711714 
L 54.363187 58.293912 
L 54.699094 58.876111 
L 54.927419 59.512071 
L 55.155745 60.148032 
L 55.384071 60.783992 
L 55.612396 61.419952 
L 55.916755 62.432079 
L 56.221113 63.444207 
L 56.525472 64.456334 
L 56.82983 65.468461 
L 57.206136 66.426826 
L 57.582442 67.385191 
L 57.958748 68.343556 
L 58.335054 69.301921 
L 58.738028 70.081136 
L 59.141003 70.86035 
L 59.543977 71.639564 
L 59.946951 72.418779 
L 60.349925 73.197993 
L 60.752899 73.977207 
L 61.155874 74.756421 
L 61.558848 75.535636 
L 61.773783 76.278953 
L 61.988717 77.02227 
L 62.203652 77.765588 
L 62.418587 78.508905 
L 62.329163 79.297302 
L 62.239739 80.0857 
" style="fill:none;stroke:#4169e1;stroke-linecap:square;stroke-width:0.4;"/>
   </g>
   <g id="line2d_24">
    <path clip-path="url(#p79f7ce224d)" d="M 45.044054 51.496365 
L 45.223355 52.517174 
L 45.402656 53.537983 
L 45.769884 54.308349 
L 46.137111 55.078714 
L 46.504339 55.849079 
L 46.871566 56.619445 
L 47.44465 57.353913 
L 48.017733 58.088381 
L 48.590817 58.82285 
L 49.163901 59.557318 
L 49.571414 60.085754 
L 49.978928 60.614191 
L 50.386441 61.142628 
L 50.793955 61.671064 
L 51.201468 62.199501 
L 51.608982 62.727937 
L 52.016495 63.256374 
L 52.424009 63.78481 
L 53.086743 64.60877 
L 53.749477 65.432731 
L 54.412212 66.256691 
L 55.074946 67.080651 
L 55.862964 67.752509 
L 56.650983 68.424366 
L 57.493018 68.863144 
L 58.335054 69.301921 
" style="fill:none;stroke:#008000;stroke-linecap:square;stroke-width:0.4;"/>
   </g>
   <g id="line2d_25">
    <path clip-path="url(#p79f7ce224d)" d="M 37.100321 55.741221 
L 37.664553 55.432341 
L 38.228785 55.12346 
L 38.793017 54.814579 
L 39.357249 54.505698 
L 40.145494 54.214516 
L 40.933739 53.923333 
L 41.721984 53.63215 
L 42.51023 53.340968 
L 43.197476 52.960293 
L 43.884723 52.579618 
L 44.464388 52.037992 
L 45.044054 51.496365 
" style="fill:none;stroke:#008000;stroke-linecap:square;stroke-width:0.4;"/>
   </g>
  </g>
 </g>
 <defs>
  <clipPath id="p79f7ce224d">
   <rect height="87.005063" width="72" x="0" y="0"/>
  </clipPath>
 </defs>
</svg>
