<?xml version="1.0" encoding="utf-8" standalone="no"?>
<!DOCTYPE svg PUBLIC "-//W3C//DTD SVG 1.1//EN"
  "http://www.w3.org/Graphics/SVG/1.1/DTD/svg11.dtd">
<svg xmlns:xlink="http://www.w3.org/1999/xlink" width="72pt" height="29.552024pt" viewBox="0 0 72 29.552024" xmlns="http://www.w3.org/2000/svg" version="1.1">
 <metadata>
  <rdf:RDF xmlns:dc="http://purl.org/dc/elements/1.1/" xmlns:cc="http://creativecommons.org/ns#" xmlns:rdf="http://www.w3.org/1999/02/22-rdf-syntax-ns#">
   <cc:Work>
    <dc:type rdf:resource="http://purl.org/dc/dcmitype/StillImage"/>
    <dc:date>2022-05-17T22:15:30.398426</dc:date>
    <dc:format>image/svg+xml</dc:format>
    <dc:creator>
     <cc:Agent>
      <dc:title>Matplotlib v3.5.2, https://matplotlib.org/</dc:title>
     </cc:Agent>
    </dc:creator>
   </cc:Work>
  </rdf:RDF>
 </metadata>
 <defs>
  <style type="text/css">*{stroke-linejoin: round; stroke-linecap: butt}</style>
 </defs>
 <g id="figure_1">
  <g id="patch_1">
   <path d="M 0 29.552024 
L 72 29.552024 
L 72 0 
L 0 0 
z
" style="fill: #ffffff"/>
  </g>
  <g id="axes_1">
   <g id="line2d_1">
    <path d="M 58.618351 27.220334 
L 58.403027 23.174624 
L 58.264457 20.428903 
L 58.125886 17.683182 
L 57.938379 13.983015 
L 57.78281 10.914762 
" clip-path="url(#p811d25b6d0)" style="fill: none; stroke: #808080; stroke-width: 0.4; stroke-linecap: square"/>
   </g>
   <g id="line2d_2">
    <path d="M 36.778877 23.416431 
L 36.777847 20.871242 
L 36.776817 16.910274 
L 36.775787 14.541144 
L 36.774756 12.172015 
L 36.772696 7.566713 
" clip-path="url(#p811d25b6d0)" style="fill: none; stroke: #808080; stroke-width: 0.4; stroke-linecap: square"/>
   </g>
   <g id="line2d_3">
    <path d="M 22.319163 16.558155 
L 20.362698 14.617851 
L 17.142102 11.423946 
L 14.931161 9.231606 
L 12.720221 7.039266 
L 9.43987 3.785457 
L 7.600854 1.962038 
" clip-path="url(#p811d25b6d0)" style="fill: none; stroke: #808080; stroke-width: 0.4; stroke-linecap: square"/>
   </g>
   <g id="line2d_4">
    <path d="M 47.352447 26.30205 
L 47.989148 22.299806 
L 48.625849 18.297563 
L 49.262551 14.295319 
L 49.899252 10.293075 
" clip-path="url(#p811d25b6d0)" style="fill: none; stroke: #808080; stroke-width: 0.4; stroke-linecap: square"/>
   </g>
   <g id="line2d_5">
    <path d="M 32.340513 22.308207 
L 32.517202 19.574906 
L 32.693892 16.841604 
" clip-path="url(#p811d25b6d0)" style="fill: none; stroke: #808080; stroke-width: 0.4; stroke-linecap: square"/>
   </g>
   <g id="line2d_6">
    <path d="M 29.500083 20.427076 
L 29.734983 16.449306 
" clip-path="url(#p811d25b6d0)" style="fill: none; stroke: #808080; stroke-width: 0.4; stroke-linecap: square"/>
   </g>
   <g id="line2d_7">
    <path d="M 68.727273 27.075688 
L 68.525599 24.058755 
L 68.323926 21.041823 
L 68.122252 18.02489 
L 67.920578 15.007957 
" clip-path="url(#p811d25b6d0)" style="fill: none; stroke: #808080; stroke-width: 0.4; stroke-linecap: square"/>
   </g>
   <g id="line2d_8">
    <path d="M 5.674266 1.343274 
L 4.933508 1.548555 
L 3.95476 2.010984 
L 3.272727 2.975292 
L 3.390177 4.269072 
L 4.017091 5.483954 
L 4.644005 6.698836 
L 5.359263 7.590273 
L 6.074522 8.48171 
L 6.789781 9.373147 
L 7.50504 10.264584 
L 8.523968 10.832942 
L 9.542896 11.401299 
L 10.258155 11.86172 
L 10.973414 12.32214 
L 11.688672 12.782561 
L 12.403931 13.242981 
L 13.442434 13.90923 
L 14.480937 14.57548 
L 15.156789 14.95755 
L 15.83264 15.339621 
L 16.508491 15.721691 
L 17.184342 16.103762 
L 17.977901 16.476153 
L 18.771459 16.848544 
L 19.565018 17.220935 
L 20.358577 17.593326 
L 21.455805 17.965534 
L 22.553033 18.337742 
" clip-path="url(#p811d25b6d0)" style="fill: none; stroke: #008000; stroke-width: 0.4; stroke-linecap: square"/>
   </g>
   <g id="line2d_9">
    <path d="M 6.627257 2.409857 
L 7.282503 3.393159 
L 8.013989 4.269072 
L 8.60201 5.131105 
L 9.190032 5.993138 
L 9.778053 6.855171 
L 10.366075 7.717204 
L 11.117972 8.32953 
L 11.869869 8.941857 
L 12.621767 9.554183 
L 13.373664 10.16651 
L 14.125562 10.778836 
L 14.877459 11.391163 
L 15.629356 12.003489 
L 16.381254 12.615816 
L 17.133151 13.228142 
L 17.885049 13.840469 
L 18.636946 14.452795 
L 19.388843 15.065122 
L 20.140741 15.677448 
L 20.892638 16.289775 
L 21.644536 16.902101 
L 22.396433 17.514428 
" clip-path="url(#p811d25b6d0)" style="fill: none; stroke: #4169e1; stroke-width: 0.4; stroke-linecap: square"/>
   </g>
   <g id="line2d_10">
    <path d="M 8.174709 1.712195 
L 8.845409 2.090613 
L 9.516109 2.46903 
L 10.186809 2.847448 
L 10.857509 3.225866 
L 11.686612 3.912479 
L 12.515714 4.599092 
L 13.344817 5.285705 
L 14.17392 5.972318 
L 15.003022 6.658931 
L 15.832125 7.345544 
L 16.661227 8.032156 
L 17.49033 8.718769 
L 18.195672 9.554594 
L 18.901015 10.390419 
L 19.606357 11.226244 
L 20.3117 12.062069 
L 21.017042 12.897894 
L 21.722385 13.733719 
L 22.427727 14.569544 
L 23.13307 15.405369 
" clip-path="url(#p811d25b6d0)" style="fill: none; stroke: #008000; stroke-width: 0.4; stroke-linecap: square"/>
   </g>
   <g id="line2d_11">
    <path d="M 8.662023 1.445549 
L 9.364146 1.741416 
L 10.066269 2.037283 
L 10.768392 2.333151 
L 11.470515 2.629018 
L 12.172637 2.924885 
L 12.87476 3.220752 
L 13.576883 3.51662 
L 14.279006 3.812487 
L 15.456079 4.083333 
L 16.633153 4.35418 
L 17.810226 4.625026 
L 18.987299 4.895872 
L 19.746602 4.993856 
L 20.505904 5.091839 
L 21.265206 5.189822 
L 22.024509 5.287805 
L 22.783811 5.385788 
L 23.543114 5.483771 
L 24.302416 5.581755 
L 25.061718 5.679738 
L 25.992302 6.071671 
L 26.922885 6.463603 
L 27.853468 6.855536 
L 28.784052 7.247469 
L 29.482569 7.877191 
" clip-path="url(#p811d25b6d0)" style="fill: none; stroke: #008000; stroke-width: 0.4; stroke-linecap: square"/>
   </g>
   <g id="line2d_12">
    <path d="M 29.482569 7.877191 
L 28.8572 8.415231 
L 28.231832 8.953272 
L 27.606463 9.491312 
L 26.981095 10.029352 
L 26.481418 11.009184 
L 25.981741 11.989016 
L 25.482065 12.968847 
L 24.982388 13.948679 
L 24.493014 15.182921 
L 24.00364 16.417162 
" clip-path="url(#p811d25b6d0)" style="fill: none; stroke: #008000; stroke-width: 0.4; stroke-linecap: square"/>
   </g>
   <g id="line2d_13">
    <path d="M 39.262837 7.992616 
L 39.163867 8.96496 
L 39.064898 9.937304 
L 38.965928 10.909648 
L 38.866959 11.881992 
L 38.76799 12.854336 
L 38.66902 13.82668 
L 38.570051 14.799024 
L 38.471081 15.771368 
L 38.372112 16.743712 
L 38.273142 17.716056 
L 38.174173 18.6884 
L 38.075203 19.660744 
L 37.976234 20.633087 
L 37.877264 21.605431 
L 37.778295 22.577775 
L 37.679326 23.550119 
" clip-path="url(#p811d25b6d0)" style="fill: none; stroke: #008000; stroke-width: 0.4; stroke-linecap: square"/>
   </g>
   <g id="line2d_14">
    <path d="M 56.32499 10.73505 
L 56.289189 11.735793 
L 56.253387 12.736537 
L 56.217585 13.73728 
L 56.181784 14.738024 
L 56.145982 15.738768 
L 56.110181 16.739511 
L 56.074379 17.740255 
L 56.038578 18.740998 
L 55.980368 19.885201 
L 55.922158 21.029403 
L 55.863948 22.173606 
L 55.805739 23.317809 
L 55.747529 24.462011 
L 55.689319 25.606214 
L 55.631109 26.750417 
L 55.5729 27.894619 
" clip-path="url(#p811d25b6d0)" style="fill: none; stroke: #4169e1; stroke-width: 0.4; stroke-linecap: square"/>
   </g>
   <g id="line2d_15">
    <path d="M 60.001992 12.456194 
L 60.053312 13.440728 
L 60.104632 14.425263 
L 60.155951 15.409798 
L 60.207271 16.394333 
L 60.258591 17.378867 
L 60.309911 18.363402 
L 60.361231 19.347937 
L 60.412551 20.332472 
L 60.463871 21.317007 
L 60.515191 22.301541 
L 60.566511 23.286076 
L 60.61783 24.270611 
L 60.66915 25.255146 
L 60.72047 26.23968 
L 60.77179 27.224215 
L 60.82311 28.20875 
" clip-path="url(#p811d25b6d0)" style="fill: none; stroke: #4169e1; stroke-width: 0.4; stroke-linecap: square"/>
   </g>
   <g id="line2d_16">
    <path d="M 29.482569 7.877191 
L 30.132663 8.463447 
L 30.782758 9.049702 
L 31.424482 9.862881 
L 32.066206 10.676059 
L 32.70793 11.489237 
L 33.349653 12.302416 
L 33.991377 13.115594 
L 34.633101 13.928772 
L 35.274825 14.741951 
L 35.916549 15.555129 
L 35.994849 16.338995 
L 36.073149 17.12286 
L 36.151448 17.906726 
L 36.229748 18.690591 
L 36.249323 19.856345 
L 36.268898 21.022098 
L 36.288473 22.187852 
L 36.308048 23.353605 
" clip-path="url(#p811d25b6d0)" style="fill: none; stroke: #008000; stroke-width: 0.4; stroke-linecap: square"/>
   </g>
   <g id="line2d_17">
    <path d="M 35.410691 6.519124 
L 34.370127 6.589256 
L 33.329563 6.659387 
L 32.367815 6.963838 
L 31.406066 7.268289 
L 30.444317 7.57274 
L 29.482569 7.877191 
" clip-path="url(#p811d25b6d0)" style="fill: none; stroke: #008000; stroke-width: 0.4; stroke-linecap: square"/>
   </g>
   <g id="line2d_18">
    <path d="M 45.659728 9.605641 
L 45.436869 10.501004 
L 45.214011 11.396368 
L 44.991153 12.291732 
L 44.768294 13.187095 
L 44.545436 14.082459 
L 44.322578 14.977823 
L 44.099719 15.873186 
L 43.876861 16.76855 
L 43.654003 17.663914 
L 43.431144 18.559277 
L 43.208286 19.454641 
L 42.985428 20.350005 
L 42.762569 21.245368 
L 42.539711 22.140732 
L 42.316852 23.036096 
L 42.093994 23.931459 
" clip-path="url(#p811d25b6d0)" style="fill: none; stroke: #008000; stroke-width: 0.4; stroke-linecap: square"/>
   </g>
   <g id="line2d_19">
    <path d="M 54.190289 9.796311 
L 53.935686 10.842941 
L 53.681083 11.889571 
L 53.426479 12.936202 
L 53.171876 13.982832 
L 52.917273 15.029462 
L 52.66267 16.076093 
L 52.408066 17.122723 
L 52.153463 18.169353 
L 51.89886 19.215984 
L 51.644257 20.262614 
L 51.389653 21.309245 
L 51.13505 22.355875 
L 50.880447 23.402505 
L 50.625844 24.449136 
L 50.37124 25.495766 
L 50.116637 26.542396 
" clip-path="url(#p811d25b6d0)" style="fill: none; stroke: #008000; stroke-width: 0.4; stroke-linecap: square"/>
   </g>
   <g id="line2d_20">
    <path d="M 65.273838 14.626617 
L 65.335525 15.417286 
L 65.397211 16.207955 
L 65.458898 16.998623 
L 65.520585 17.789292 
L 65.582272 18.579961 
L 65.643959 19.370629 
L 65.705646 20.161298 
L 65.767333 20.951967 
L 65.82902 21.742635 
L 65.890706 22.533304 
L 65.952393 23.323973 
L 66.01408 24.114641 
L 66.075767 24.90531 
L 66.137454 25.695979 
L 66.199141 26.486647 
L 66.260828 27.277316 
" clip-path="url(#p811d25b6d0)" style="fill: none; stroke: #008000; stroke-width: 0.4; stroke-linecap: square"/>
   </g>
  </g>
 </g>
 <defs>
  <clipPath id="p811d25b6d0">
   <rect x="0" y="0" width="72" height="29.552024"/>
  </clipPath>
 </defs>
</svg>
