<?xml version="1.0" encoding="utf-8" standalone="no"?>
<!DOCTYPE svg PUBLIC "-//W3C//DTD SVG 1.1//EN"
  "http://www.w3.org/Graphics/SVG/1.1/DTD/svg11.dtd">
<svg xmlns:xlink="http://www.w3.org/1999/xlink" width="72pt" height="208.176977pt" viewBox="0 0 72 208.176977" xmlns="http://www.w3.org/2000/svg" version="1.1">
 <metadata>
  <rdf:RDF xmlns:dc="http://purl.org/dc/elements/1.1/" xmlns:cc="http://creativecommons.org/ns#" xmlns:rdf="http://www.w3.org/1999/02/22-rdf-syntax-ns#">
   <cc:Work>
    <dc:type rdf:resource="http://purl.org/dc/dcmitype/StillImage"/>
    <dc:date>2022-05-17T14:53:18.183712</dc:date>
    <dc:format>image/svg+xml</dc:format>
    <dc:creator>
     <cc:Agent>
      <dc:title>Matplotlib v3.5.2, https://matplotlib.org/</dc:title>
     </cc:Agent>
    </dc:creator>
   </cc:Work>
  </rdf:RDF>
 </metadata>
 <defs>
  <style type="text/css">*{stroke-linejoin: round; stroke-linecap: butt}</style>
 </defs>
 <g id="figure_1">
  <g id="patch_1">
   <path d="M 0 208.176977 
L 72 208.176977 
L 72 0 
L 0 0 
z
" style="fill: #ffffff"/>
  </g>
  <g id="axes_1">
   <g id="line2d_1">
    <path d="M 23.375969 198.714387 
L 25.491265 198.646775 
L 27.606561 198.579163 
L 29.721856 198.511552 
L 31.837152 198.44394 
L 33.952448 198.376328 
L 36.067743 198.308717 
L 38.183039 198.241105 
L 40.298334 198.173493 
L 42.41363 198.105882 
L 44.528926 198.03827 
L 46.644221 197.970658 
L 48.759517 197.903047 
L 50.874812 197.835435 
L 52.990108 197.767823 
L 55.105404 197.700212 
L 57.220699 197.6326 
" clip-path="url(#p79686f69dd)" style="fill: none; stroke: #808080; stroke-width: 0.4; stroke-linecap: square"/>
   </g>
   <g id="line2d_2">
    <path d="M 35.000941 162.430203 
L 36.189688 163.914798 
L 37.378436 165.399393 
L 38.567184 166.883988 
L 39.755931 168.368583 
L 40.944679 169.853178 
L 42.133427 171.337773 
L 43.322174 172.822368 
L 44.510922 174.306963 
L 45.699669 175.791558 
L 46.888417 177.276153 
L 48.077165 178.760748 
L 49.265912 180.245343 
L 50.45466 181.729938 
L 51.643408 183.214533 
L 52.832155 184.699128 
L 54.020903 186.183723 
" clip-path="url(#p79686f69dd)" style="fill: none; stroke: #808080; stroke-width: 0.4; stroke-linecap: square"/>
   </g>
   <g id="line2d_3">
    <path d="M 26.483611 194.251963 
L 28.232842 194.356203 
L 29.982072 194.460443 
L 31.731303 194.564684 
L 33.480534 194.668924 
L 35.229765 194.773164 
L 36.978996 194.877404 
L 38.728226 194.981644 
L 40.477457 195.085884 
L 42.226688 195.190125 
L 43.975919 195.294365 
L 45.725149 195.398605 
L 47.47438 195.502845 
L 49.223611 195.607085 
L 50.972842 195.711325 
L 52.722072 195.815565 
L 54.471303 195.919806 
" clip-path="url(#p79686f69dd)" style="fill: none; stroke: #808080; stroke-width: 0.4; stroke-linecap: square"/>
   </g>
   <g id="line2d_4">
    <path d="M 35.587438 156.435633 
L 36.812041 158.249674 
L 38.036643 160.063715 
L 39.261246 161.877756 
L 40.485849 163.691797 
L 41.710451 165.505839 
L 42.935054 167.31988 
L 44.159657 169.133921 
L 45.384259 170.947962 
L 46.608862 172.762003 
L 47.833465 174.576044 
L 49.058067 176.390086 
L 50.28267 178.204127 
L 51.507273 180.018168 
L 52.731875 181.832209 
L 53.956478 183.64625 
L 55.181081 185.460291 
" clip-path="url(#p79686f69dd)" style="fill: none; stroke: #808080; stroke-width: 0.4; stroke-linecap: square"/>
   </g>
   <g id="line2d_5">
    <path d="M 34.866065 150.035235 
L 36.256173 149.871549 
L 37.646281 149.707863 
L 39.036389 149.544177 
L 40.426497 149.380492 
L 41.816605 149.216806 
L 43.206713 149.05312 
L 44.596821 148.889434 
L 45.986929 148.725748 
" clip-path="url(#p79686f69dd)" style="fill: none; stroke: #808080; stroke-width: 0.4; stroke-linecap: square"/>
   </g>
   <g id="line2d_6">
    <path d="M 54.40356 39.866474 
L 56.312575 40.571841 
L 58.221589 41.277208 
" clip-path="url(#p79686f69dd)" style="fill: none; stroke: #808080; stroke-width: 0.4; stroke-linecap: square"/>
   </g>
   <g id="line2d_7">
    <path d="M 50.805238 42.468224 
L 53.115524 42.52641 
L 55.425811 42.584595 
L 57.736097 42.642781 
L 60.046383 42.700966 
" clip-path="url(#p79686f69dd)" style="fill: none; stroke: #808080; stroke-width: 0.4; stroke-linecap: square"/>
   </g>
   <g id="line2d_8">
    <path d="M 25.880025 13.698573 
L 27.363662 14.270739 
L 28.847298 14.842904 
L 30.330935 15.41507 
L 31.814571 15.987235 
L 33.298207 16.559401 
L 34.781844 17.131566 
L 36.26548 17.703732 
L 37.749116 18.275897 
L 39.232753 18.848063 
L 40.716389 19.420228 
L 42.200025 19.992394 
L 43.683662 20.56456 
L 45.167298 21.136725 
L 46.650935 21.708891 
L 48.134571 22.281056 
L 49.618207 22.853222 
" clip-path="url(#p79686f69dd)" style="fill: none; stroke: #808080; stroke-width: 0.4; stroke-linecap: square"/>
   </g>
   <g id="line2d_9">
    <path d="M 3.272727 32.582162 
L 5.802416 32.456129 
L 7.813045 32.355932 
L 9.823675 32.255735 
L 10.439466 32.225067 
L 12.365569 32.128862 
L 13.504387 32.072147 
L 15.357254 31.979722 
L 17.827743 31.85663 
L 19.348303 31.78101 
L 20.868862 31.70539 
L 22.305505 31.633761 
L 23.742149 31.562132 
L 25.55199 31.471808 
L 27.361831 31.381484 
L 29.059987 31.296831 
L 30.758144 31.212179 
L 32.4563 31.127526 
L 34.154456 31.042874 
L 36.267616 30.937636 
L 38.380776 30.832398 
L 39.660572 30.768541 
L 41.67883 30.668134 
L 43.104488 30.597136 
L 44.530146 30.526137 
L 46.092816 30.448206 
L 47.655486 30.370275 
L 47.787921 30.363554 
L 48.505633 30.327844 
L 49.150108 30.295916 
L 50.503751 30.228278 
L 51.831151 30.1619 
L 53.420979 30.082919 
L 55.477686 29.980412 
L 57.534393 29.877905 
" clip-path="url(#p79686f69dd)" style="fill: none; stroke: #808080; stroke-width: 0.4; stroke-linecap: square"/>
   </g>
   <g id="line2d_10">
    <path d="M 5.254367 39.771949 
L 7.513694 39.629111 
L 10.045518 39.469049 
L 12.577343 39.308986 
L 14.717661 39.17371 
L 16.857978 39.038435 
L 18.466421 38.936557 
L 20.074863 38.83468 
L 22.394609 38.688062 
L 24.292638 38.56833 
L 26.597127 38.422551 
L 28.901615 38.276772 
L 30.750057 38.159929 
L 32.5985 38.043086 
L 34.446942 37.926242 
L 36.295385 37.809399 
L 38.143827 37.692555 
L 39.99227 37.575712 
L 41.840712 37.458868 
L 43.689154 37.342025 
L 45.436135 37.231535 
L 47.183115 37.121046 
L 49.587387 36.968966 
L 51.991659 36.816885 
L 54.475575 36.659764 
L 56.274126 36.546123 
L 58.072676 36.432483 
" clip-path="url(#p79686f69dd)" style="fill: none; stroke: #808080; stroke-width: 0.4; stroke-linecap: square"/>
   </g>
   <g id="line2d_11">
    <path d="M 6.54698 43.456326 
L 8.277177 43.587611 
L 10.007374 43.718896 
L 12.126027 43.879694 
L 14.244679 44.040491 
L 16.363331 44.201289 
L 18.481983 44.362087 
L 20.100496 44.484969 
L 21.719008 44.607852 
L 24.041195 44.783878 
L 25.595016 44.90172 
L 27.148837 45.019561 
L 29.801195 45.220794 
L 31.222886 45.328763 
L 32.644577 45.436732 
L 33.958551 45.536298 
L 35.869396 45.681236 
L 37.75583 45.824494 
L 39.596491 45.964392 
L 41.69836 46.123614 
L 43.139275 46.233263 
L 44.710184 46.352364 
L 46.281093 46.471466 
L 47.756796 46.583636 
L 49.32801 46.702737 
L 50.899224 46.821839 
L 52.859504 46.970558 
L 54.589701 47.102053 
L 56.104158 47.216954 
L 57.618614 47.331854 
L 59.247502 47.455367 
" clip-path="url(#p79686f69dd)" style="fill: none; stroke: #808080; stroke-width: 0.4; stroke-linecap: square"/>
   </g>
   <g id="line2d_12">
    <path d="M 9.767527 53.742755 
L 10.828226 53.607479 
L 12.642034 53.375997 
L 14.455842 53.144516 
L 16.121043 52.93194 
L 17.786243 52.719363 
L 18.67911 52.605513 
L 20.886561 52.323618 
L 22.6578 52.097598 
L 24.42904 51.871578 
L 26.20028 51.645558 
L 27.971519 51.419538 
L 30.579021 51.08681 
L 33.186523 50.754082 
L 34.597839 50.573854 
L 36.009154 50.393626 
L 38.299606 50.101229 
L 40.059097 49.876889 
L 41.818589 49.65255 
L 43.446256 49.444805 
L 45.073922 49.23706 
L 47.108048 48.977431 
L 49.526662 48.668649 
" clip-path="url(#p79686f69dd)" style="fill: none; stroke: #808080; stroke-width: 0.4; stroke-linecap: square"/>
   </g>
   <g id="line2d_13">
    <path d="M 9.767527 65.547466 
L 12.203916 64.557263 
L 14.640305 63.56706 
L 17.076694 62.576858 
L 19.513083 61.586655 
L 21.949472 60.596453 
L 24.385861 59.60625 
L 26.82225 58.616047 
L 29.25864 57.625845 
L 31.695029 56.635642 
L 34.131418 55.645439 
L 36.567807 54.655237 
L 39.004196 53.665034 
L 41.440585 52.674831 
L 43.876974 51.684629 
L 46.313363 50.694426 
L 48.749752 49.704223 
" clip-path="url(#p79686f69dd)" style="fill: none; stroke: #808080; stroke-width: 0.4; stroke-linecap: square"/>
   </g>
   <g id="line2d_14">
    <path d="M 37.973706 84.952833 
L 38.752448 83.841218 
L 39.007552 83.476561 
L 39.509218 82.761111 
L 40.302606 81.628911 
L 41.122848 80.457851 
L 41.94309 79.28679 
L 42.913465 77.901683 
L 43.88384 76.516575 
L 44.689739 75.366205 
L 45.495639 74.215835 
L 46.301538 73.065465 
L 47.107438 71.915095 
L 48.057978 70.558345 
L 49.008519 69.201595 
L 50.146116 67.577444 
L 51.283713 65.953293 
L 51.478398 65.6756 
L 52.489358 64.232307 
L 53.500318 62.789014 
L 54.063013 61.986181 
L 55.110896 60.490374 
L 56.158779 58.994568 
L 56.963458 57.845983 
L 57.768137 56.697398 
L 58.74431 55.304099 
L 59.720483 53.910799 
L 60.508684 52.785741 
L 61.296885 51.660682 
L 61.473261 51.409456 
L 62.014596 50.636031 
" clip-path="url(#p79686f69dd)" style="fill: none; stroke: #808080; stroke-width: 0.4; stroke-linecap: square"/>
   </g>
   <g id="line2d_15">
    <path d="M 49.504692 22.196167 
L 49.750032 21.505924 
L 50.016732 20.756025 
L 50.283433 20.006126 
L 50.031685 19.396125 
L 49.779936 18.786123 
L 49.528188 18.176121 
L 49.27644 17.566119 
L 48.748837 17.035203 
L 48.221233 16.504288 
L 47.69363 15.973372 
L 47.166027 15.442456 
L 46.519263 15.032427 
L 45.872498 14.622398 
L 45.225734 14.21237 
L 44.57897 13.802341 
L 44.182581 13.551324 
L 43.786192 13.300308 
L 43.283687 13.056223 
L 42.781182 12.812138 
L 42.278678 12.568054 
L 41.776173 12.323969 
L 41.273668 12.079884 
L 40.771163 11.835799 
L 40.268659 11.591715 
L 39.766154 11.34763 
L 39.374495 11.160838 
L 38.982835 10.974046 
L 38.591176 10.787254 
L 38.199517 10.600462 
L 37.807858 10.41367 
L 37.416198 10.226878 
L 37.024539 10.040086 
L 36.63288 9.853293 
L 36.168137 9.755618 
L 35.703395 9.657942 
L 35.238652 9.560266 
L 34.77391 9.46259 
L 34.321983 9.545037 
L 33.870057 9.627484 
L 33.418131 9.70993 
L 32.966205 9.792377 
L 32.508786 10.022651 
L 32.051367 10.252924 
L 31.593948 10.483198 
L 31.136529 10.713472 
L 30.67911 10.943745 
L 30.221691 11.174019 
L 29.764272 11.404292 
L 29.306853 11.634566 
L 28.72829 11.901757 
L 28.209688 12.141535 
L 27.691087 12.381314 
L 27.172486 12.621093 
L 26.653884 12.860871 
" clip-path="url(#p79686f69dd)" style="fill: none; stroke: #4169e1; stroke-width: 0.4; stroke-linecap: square"/>
   </g>
   <g id="line2d_16">
    <path d="M 49.750032 21.505924 
L 49.205302 21.327036 
L 48.660572 21.148147 
L 48.115842 20.969258 
L 47.571113 20.790369 
L 47.026383 20.611481 
L 46.481653 20.432592 
L 45.936923 20.253703 
L 45.392193 20.074815 
L 44.847463 19.895926 
L 44.302734 19.717037 
L 43.758004 19.538149 
L 43.213274 19.35926 
L 42.668544 19.180371 
L 42.123814 19.001482 
L 41.579085 18.822594 
L 41.034355 18.643705 
L 40.570985 18.49152 
L 40.107616 18.339334 
L 39.644247 18.187149 
L 39.180877 18.034964 
L 38.502683 17.701605 
L 37.824488 17.368247 
L 37.146294 17.034888 
L 36.468099 16.70153 
L 36.026243 16.343963 
L 35.584387 15.986395 
L 35.14253 15.628828 
L 34.700674 15.271261 
L 34.258818 14.913693 
L 33.816961 14.556126 
L 33.375105 14.198559 
L 32.933249 13.840991 
L 32.489104 13.547753 
L 32.044959 13.254516 
L 31.600814 12.961278 
L 31.156669 12.66804 
L 30.549574 12.476469 
L 29.942479 12.284898 
L 29.335385 12.093328 
L 28.72829 11.901757 
" clip-path="url(#p79686f69dd)" style="fill: none; stroke: #000000; stroke-width: 0.4; stroke-linecap: square"/>
   </g>
   <g id="line2d_17">
    <path d="M 55.817012 28.898205 
L 55.049943 28.970674 
L 54.282873 29.043143 
L 53.515804 29.115613 
L 52.748735 29.188082 
L 51.981666 29.260551 
L 51.214596 29.33302 
L 50.447527 29.405489 
L 49.680458 29.477959 
L 49.229752 29.676461 
L 48.779046 29.874964 
L 48.217266 30.12262 
L 47.655486 30.370275 
L 47.027489 30.747325 
L 46.399491 31.124375 
L 45.744946 31.34945 
L 45.090401 31.574525 
L 44.435855 31.799599 
L 43.78131 32.024674 
L 43.138818 31.918071 
L 42.496325 31.811468 
L 41.853833 31.704864 
L 41.211341 31.598261 
L 40.646815 31.305759 
L 40.082289 31.013256 
L 39.517762 30.720753 
L 38.953236 30.428251 
L 38.255664 30.066535 
L 37.621869 29.95405 
L 36.988074 29.841565 
L 36.354278 29.72908 
L 35.720483 29.616595 
L 35.134901 29.590759 
L 34.54932 29.564922 
L 33.963738 29.539085 
L 33.378156 29.513248 
L 32.814851 29.614495 
L 32.105989 29.741684 
L 31.397127 29.868872 
L 30.688264 29.996061 
L 29.979402 30.12325 
L 29.249027 30.240881 
L 28.518652 30.358512 
L 27.788277 30.476143 
L 27.057902 30.593775 
L 26.622683 30.645606 
L 26.187463 30.697437 
L 25.752244 30.749268 
L 25.317025 30.8011 
L 24.881805 30.852931 
L 24.446586 30.904762 
L 24.011367 30.956593 
L 23.576147 31.008425 
L 23.046408 31.270574 
L 22.550998 31.516024 
L 22.055588 31.761474 
L 21.560178 32.006924 
L 21.064768 32.252375 
L 20.644196 32.372947 
L 20.223624 32.493519 
L 19.803051 32.614091 
L 19.382479 32.734663 
L 18.961907 32.855234 
L 18.541335 32.975806 
L 18.120763 33.096378 
L 17.700191 33.21695 
L 17.104539 33.387936 
L 16.702505 33.613221 
L 16.30047 33.838505 
L 15.898436 34.06379 
L 15.496402 34.289075 
L 15.033948 34.602058 
L 14.571494 34.915041 
L 14.10904 35.228024 
L 13.646586 35.541007 
L 13.092893 35.76167 
L 12.539199 35.982334 
L 11.985505 36.202997 
L 11.431812 36.423661 
L 10.849282 36.309181 
L 10.266751 36.1947 
L 9.684221 36.08022 
L 9.101691 35.96574 
L 8.690197 35.693297 
L 8.278703 35.420855 
L 7.867209 35.148413 
L 7.455715 34.87597 
L 6.883408 34.457645 
L 6.3111 34.039319 
L 5.738792 33.620993 
L 5.166484 33.202667 
" clip-path="url(#p79686f69dd)" style="fill: none; stroke: #008000; stroke-width: 0.4; stroke-linecap: square"/>
   </g>
   <g id="line2d_18">
    <path d="M 38.953236 30.428251 
L 38.783039 30.017802 
L 38.612842 29.607353 
L 38.442645 29.196904 
L 38.272448 28.786455 
L 38.10225 28.376006 
L 37.932053 27.965558 
L 37.761856 27.555109 
L 37.591659 27.14466 
L 37.312142 26.632859 
L 37.032626 26.121058 
L 36.753109 25.609258 
L 36.473592 25.097457 
L 36.171494 24.54438 
L 35.869396 23.991303 
L 35.41747 23.750475 
L 34.965544 23.509646 
L 34.513617 23.268817 
L 34.061691 23.027988 
L 33.56979 22.765838 
L 33.083687 22.202784 
L 32.597584 21.63973 
L 32.111481 21.076675 
L 31.625378 20.513621 
L 31.283001 19.970312 
L 30.940623 19.427003 
L 30.598245 18.883694 
L 30.255868 18.340385 
L 29.791736 18.125708 
L 29.327603 17.911031 
L 28.863471 17.696354 
L 28.399339 17.481677 
L 27.87021 17.122797 
L 27.341081 16.763916 
L 26.811952 16.405036 
L 26.282823 16.046156 
L 25.927324 15.453799 
L 25.571825 14.861442 
" clip-path="url(#p79686f69dd)" style="fill: none; stroke: #008000; stroke-width: 0.4; stroke-linecap: square"/>
   </g>
   <g id="line2d_19">
    <path d="M 43.786192 13.300308 
L 43.0311 13.540822 
L 42.276008 13.781335 
L 41.520915 14.021849 
L 40.765823 14.262363 
L 40.312829 14.70369 
L 39.859835 15.145017 
L 39.40684 15.586344 
L 38.953846 16.027671 
L 38.542962 16.301584 
L 38.132079 16.575496 
L 37.721195 16.849409 
L 37.310312 17.123322 
L 36.899428 17.397234 
L 36.488544 17.671147 
L 36.077661 17.94506 
L 35.666777 18.218972 
L 35.124984 18.328621 
L 34.583191 18.438271 
L 34.041399 18.54792 
L 33.499606 18.657569 
L 32.743446 18.835276 
L 31.987285 19.012983 
L 31.471888 19.193631 
L 30.956491 19.374279 
L 30.441093 19.554927 
L 29.925696 19.735575 
L 29.61185 20.185724 
L 29.298004 20.635873 
L 28.984158 21.086023 
L 28.670312 21.536172 
L 28.320915 22.081057 
L 27.971519 22.625941 
L 27.548125 22.919074 
L 27.12473 23.212207 
L 26.701335 23.50534 
L 26.27794 23.798472 
L 26.059911 24.156355 
L 25.841882 24.514237 
L 25.623853 24.87212 
L 25.405823 25.230002 
L 25.187794 25.587884 
L 24.969765 25.945767 
L 24.751736 26.303649 
L 24.533706 26.661532 
L 24.237101 27.418677 
L 23.940496 28.175823 
L 23.643891 28.932969 
L 23.347285 29.690115 
L 23.196847 30.480345 
L 23.046408 31.270574 
" clip-path="url(#p79686f69dd)" style="fill: none; stroke: #008000; stroke-width: 0.4; stroke-linecap: square"/>
   </g>
   <g id="line2d_20">
    <path d="M 41.034355 18.643705 
L 40.520483 19.012773 
L 40.006612 19.381841 
L 39.49274 19.750909 
L 38.978868 20.119977 
L 38.338055 20.577793 
L 37.697241 21.035609 
L 37.056427 21.493426 
L 36.415613 21.951242 
L 35.827133 22.220429 
L 35.238652 22.489615 
L 34.650172 22.758802 
L 34.061691 23.027988 
L 33.566891 23.043742 
L 33.072092 23.059496 
L 32.577292 23.07525 
L 32.082492 23.091005 
L 31.664132 22.939344 
L 31.245772 22.787684 
L 30.827413 22.636024 
L 30.409053 22.484364 
L 29.695613 22.419036 
L 28.982174 22.353709 
L 28.476847 22.489825 
L 27.971519 22.625941 
" clip-path="url(#p79686f69dd)" style="fill: none; stroke: #008000; stroke-width: 0.4; stroke-linecap: square"/>
   </g>
   <g id="line2d_21">
    <path d="M 49.859275 25.168876 
L 49.270337 25.12886 
L 48.681399 25.088845 
L 48.09246 25.048829 
L 47.503522 25.008813 
L 46.823649 25.016375 
L 46.143776 25.023937 
L 45.463903 25.031499 
L 44.784031 25.039061 
L 44.242085 25.039061 
L 43.70014 25.039061 
L 43.158195 25.039061 
L 42.616249 25.039061 
L 41.848417 25.046361 
L 41.080585 25.05366 
L 40.312753 25.06096 
L 39.544921 25.068259 
L 38.777088 25.075559 
L 38.009256 25.082858 
L 37.241424 25.090157 
L 36.473592 25.097457 
" clip-path="url(#p79686f69dd)" style="fill: none; stroke: #4169e1; stroke-width: 0.4; stroke-linecap: square"/>
   </g>
   <g id="line2d_22">
    <path d="M 49.903827 23.776626 
L 49.881551 24.472751 
L 49.859275 25.168876 
L 49.739352 25.811226 
L 49.619428 26.453577 
L 49.43588 26.900785 
L 49.252333 27.347994 
L 49.068786 27.795202 
L 48.885238 28.242411 
L 48.832142 29.058687 
L 48.779046 29.874964 
" clip-path="url(#p79686f69dd)" style="fill: none; stroke: #008000; stroke-width: 0.4; stroke-linecap: square"/>
   </g>
   <g id="line2d_23">
    <path d="M 57.945734 35.497315 
L 57.136154 35.548122 
L 56.326573 35.59893 
L 55.516993 35.649737 
L 54.707413 35.700544 
L 53.897832 35.751351 
L 53.088252 35.802159 
L 52.278671 35.852966 
L 51.469091 35.903773 
L 50.65951 35.95458 
L 49.84993 36.005388 
L 49.04035 36.056195 
L 48.230769 36.107002 
L 47.421189 36.157809 
L 46.611608 36.208616 
L 45.802028 36.259424 
L 44.992448 36.310231 
L 44.182867 36.361038 
L 43.373287 36.411845 
L 42.563706 36.462653 
L 41.754126 36.51346 
L 40.944545 36.564267 
L 40.134965 36.615074 
L 39.325385 36.665881 
L 38.515804 36.716689 
L 37.706224 36.767496 
L 36.896643 36.818303 
L 36.087063 36.86911 
L 35.277483 36.919918 
L 34.467902 36.970725 
L 33.658322 37.021532 
L 32.848741 37.072339 
L 32.039161 37.123147 
L 31.585099 37.151662 
L 31.131036 37.180177 
L 30.676974 37.208692 
L 30.222912 37.237207 
L 29.768849 37.265722 
L 29.314787 37.294237 
L 28.860725 37.322752 
L 28.406662 37.351267 
L 27.9526 37.379782 
L 27.498538 37.408297 
L 27.044476 37.436812 
L 26.590413 37.465327 
L 26.136351 37.493842 
L 25.682289 37.522357 
L 25.228226 37.550872 
L 24.774164 37.579388 
L 24.282187 37.610266 
L 23.79021 37.641144 
L 23.298233 37.672022 
L 22.806256 37.7029 
L 22.314278 37.733778 
L 21.822301 37.764657 
L 21.330324 37.795535 
L 20.838347 37.826413 
L 20.357489 37.856595 
L 19.876631 37.886778 
L 19.395772 37.91696 
L 18.914914 37.947143 
L 18.434056 37.977325 
L 17.953198 38.007507 
L 17.472339 38.03769 
L 16.991481 38.067872 
L 16.510623 38.098054 
L 16.029765 38.128237 
L 15.548907 38.158419 
L 15.068048 38.188602 
L 14.58719 38.218784 
L 14.106332 38.248966 
L 13.625474 38.279149 
L 13.144615 38.309331 
L 12.663757 38.339514 
L 12.182899 38.369696 
L 11.702041 38.399878 
L 11.221182 38.430061 
L 10.740324 38.460243 
L 10.259466 38.490425 
L 9.778608 38.520608 
L 9.29775 38.55079 
L 8.816891 38.580973 
L 8.336033 38.611155 
L 7.855175 38.641337 
L 7.374317 38.67152 
L 6.893458 38.701702 
L 6.4126 38.731884 
L 5.931742 38.762067 
L 5.450884 38.792249 
" clip-path="url(#p79686f69dd)" style="fill: none; stroke: #4169e1; stroke-width: 0.4; stroke-linecap: square"/>
   </g>
   <g id="line2d_24">
    <path d="M 32.039161 37.123147 
L 31.686103 36.628255 
L 31.333045 36.133364 
L 30.782403 36.059424 
L 30.231761 35.985485 
L 29.681119 35.911545 
L 29.130477 35.837606 
L 28.621182 35.698339 
L 28.111888 35.559072 
L 27.602594 35.419805 
L 27.093299 35.280538 
L 26.634355 35.280538 
L 26.17541 35.280538 
L 25.716465 35.280538 
L 25.257521 35.280538 
L 24.759669 35.280538 
L 24.261818 35.280538 
L 23.763967 35.280538 
L 23.266116 35.280538 
L 22.570375 35.022589 
L 21.874634 34.764641 
L 21.178894 34.506693 
L 20.483153 34.248744 
L 19.787413 33.990796 
L 19.091672 33.732847 
L 18.395931 33.474899 
L 17.700191 33.21695 
" clip-path="url(#p79686f69dd)" style="fill: none; stroke: #008000; stroke-width: 0.4; stroke-linecap: square"/>
   </g>
   <g id="line2d_25">
    <path d="M 49.087247 40.26516 
L 48.511583 40.245625 
L 47.935919 40.22609 
L 47.360254 40.206554 
L 46.78459 40.187019 
L 46.208926 40.167484 
L 45.633261 40.147949 
L 45.057597 40.128414 
L 44.481933 40.108878 
L 43.696631 40.294148 
L 42.911329 40.479417 
L 42.126027 40.664686 
L 41.340725 40.849955 
L 40.748659 40.820967 
L 40.156592 40.79198 
L 39.564526 40.762992 
L 38.97246 40.734004 
L 38.380394 40.705017 
L 37.788328 40.676029 
L 37.196262 40.647041 
L 36.604196 40.618053 
L 35.964221 40.53881 
L 35.324247 40.459566 
L 34.684272 40.380323 
L 34.044298 40.301079 
L 33.404323 40.221836 
L 32.764348 40.142592 
L 32.124374 40.063349 
L 31.484399 39.984105 
L 30.883255 39.864164 
L 30.282111 39.744222 
L 29.680966 39.62428 
L 29.079822 39.504338 
L 28.541615 39.263719 
L 28.003408 39.0231 
L 27.4652 38.782482 
L 26.926993 38.541863 
L 26.388786 38.301244 
L 25.850579 38.060625 
L 25.312371 37.820006 
L 24.774164 37.579388 
" clip-path="url(#p79686f69dd)" style="fill: none; stroke: #008000; stroke-width: 0.4; stroke-linecap: square"/>
   </g>
   <g id="line2d_26">
    <path d="M 49.396669 43.755866 
L 48.904768 43.890932 
L 48.412867 44.025997 
L 47.920966 44.161063 
L 47.429065 44.296129 
L 46.842568 44.390917 
L 46.256071 44.485704 
L 45.669574 44.580492 
L 45.083077 44.67528 
L 44.49658 44.770067 
L 43.910083 44.864855 
L 43.323586 44.959643 
L 42.737088 45.05443 
L 42.024717 44.768859 
L 41.312346 44.483289 
L 40.599975 44.197718 
L 39.887603 43.912147 
L 39.075143 43.891457 
L 38.262683 43.870766 
L 37.450223 43.850076 
L 36.637762 43.829385 
L 36.010909 43.728664 
L 35.384056 43.627942 
L 34.757203 43.52722 
L 34.13035 43.426498 
L 33.503497 43.325777 
L 32.876643 43.225055 
L 32.24979 43.124333 
L 31.622937 43.023612 
L 30.996923 43.069509 
L 30.370909 43.115406 
L 29.744895 43.161303 
L 29.118881 43.2072 
L 28.685874 43.126224 
L 28.252867 43.045247 
L 27.81986 42.964271 
L 27.386853 42.883294 
L 26.953846 42.802318 
L 26.520839 42.721341 
L 26.087832 42.640365 
L 25.654825 42.559388 
L 25.203051 42.174566 
L 24.751278 41.789744 
L 24.299504 41.404922 
L 23.84773 41.0201 
L 23.48445 40.43709 
L 23.12117 39.854081 
L 22.757889 39.271071 
L 22.394609 38.688062 
L 22.005544 38.472649 
L 21.616478 38.257237 
L 21.227413 38.041825 
L 20.838347 37.826413 
" clip-path="url(#p79686f69dd)" style="fill: none; stroke: #008000; stroke-width: 0.4; stroke-linecap: square"/>
   </g>
   <g id="line2d_27">
    <path d="M 58.55054 40.536972 
L 58.048493 40.366879 
L 57.546446 40.196787 
L 57.044399 40.026694 
L 56.542352 39.856602 
L 56.040305 39.686509 
L 55.538258 39.516416 
L 55.036211 39.346324 
L 54.534164 39.176231 
" clip-path="url(#p79686f69dd)" style="fill: none; stroke: #008000; stroke-width: 0.4; stroke-linecap: square"/>
   </g>
   <g id="line2d_28">
    <path d="M 59.229803 43.876858 
L 58.797406 44.175977 
L 58.36501 44.475097 
L 57.932613 44.774216 
L 57.500216 45.073335 
L 56.935232 44.969253 
L 56.370248 44.86517 
L 55.805264 44.761087 
L 55.24028 44.657005 
L 54.758754 44.486229 
L 54.277228 44.315454 
L 53.795702 44.144679 
L 53.314177 43.973904 
L 52.720509 43.816362 
L 52.12684 43.65882 
L 51.533172 43.501278 
L 50.939504 43.343736 
" clip-path="url(#p79686f69dd)" style="fill: none; stroke: #008000; stroke-width: 0.4; stroke-linecap: square"/>
   </g>
   <g id="line2d_29">
    <path d="M 58.881322 46.378201 
L 58.444348 46.367672 
L 58.007374 46.357143 
L 57.570401 46.346614 
L 57.133427 46.336085 
L 56.696453 46.325556 
L 56.259479 46.315027 
L 55.822505 46.304498 
L 55.385531 46.293969 
L 54.948557 46.28344 
L 54.511583 46.272911 
L 54.074609 46.262382 
L 53.637635 46.251853 
L 53.200661 46.241324 
L 52.763687 46.230795 
L 52.326713 46.220266 
L 51.889739 46.209737 
L 51.268684 46.275589 
L 50.647629 46.341442 
L 50.026573 46.407294 
L 49.405518 46.473146 
L 48.784463 46.538999 
L 48.163408 46.604851 
L 47.542352 46.670704 
L 46.921297 46.736556 
L 46.300242 46.802409 
L 45.679186 46.868261 
L 45.058131 46.934114 
L 44.437076 46.999966 
L 43.81602 47.065819 
L 43.194965 47.131671 
L 42.57391 47.197524 
L 41.952854 47.263376 
L 41.172816 47.19046 
L 40.392778 47.117545 
L 39.61274 47.044629 
L 38.832702 46.971714 
L 38.052664 46.898798 
L 37.272626 46.825883 
L 36.492587 46.752967 
L 35.712549 46.680051 
L 34.932511 46.607136 
L 34.152473 46.53422 
L 33.372435 46.461305 
L 32.592397 46.388389 
L 31.812359 46.315473 
L 31.03232 46.242558 
L 30.252282 46.169642 
L 29.472244 46.096727 
L 28.711621 46.04416 
L 27.950998 45.991594 
L 27.190375 45.939027 
L 26.429752 45.886461 
L 25.669129 45.833894 
L 24.908506 45.781328 
L 24.147883 45.728762 
L 23.38726 45.676195 
L 22.626637 45.623629 
L 21.866014 45.571062 
L 21.105391 45.518496 
L 20.344768 45.465929 
L 19.584145 45.413363 
L 18.823522 45.360796 
L 18.062899 45.30823 
L 17.302276 45.255664 
L 16.828837 45.431428 
L 16.355397 45.607192 
L 15.881958 45.782956 
L 15.408519 45.95872 
L 14.935079 46.134484 
L 14.46164 46.310248 
L 13.988201 46.486012 
L 13.514762 46.661777 
L 13.148582 46.412966 
L 12.782403 46.164155 
L 12.416224 45.915344 
L 12.050045 45.666533 
L 11.683865 45.417722 
L 11.317686 45.168911 
L 10.951507 44.9201 
L 10.585327 44.671289 
L 10.106395 44.602023 
L 9.627463 44.532757 
L 9.148531 44.463491 
L 8.669599 44.394225 
L 8.190668 44.324959 
L 7.711736 44.255693 
L 7.232804 44.186427 
L 6.753872 44.117162 
" clip-path="url(#p79686f69dd)" style="fill: none; stroke: #4169e1; stroke-width: 0.4; stroke-linecap: square"/>
   </g>
   <g id="line2d_30">
    <path d="M 47.487654 48.103599 
L 46.779021 48.297218 
L 46.070388 48.490837 
L 45.361755 48.684456 
L 44.653121 48.878074 
L 43.944488 49.071693 
L 43.235855 49.265312 
L 42.527222 49.458931 
L 41.818589 49.65255 
L 41.366662 49.84265 
L 40.914736 50.032751 
L 40.46281 50.222851 
L 40.010884 50.412951 
L 39.558957 50.603052 
L 39.107031 50.793152 
L 38.655105 50.983253 
L 38.203179 51.173353 
L 37.596236 51.428781 
L 36.989294 51.684209 
L 36.381132 51.835554 
L 35.772969 51.986899 
L 35.164806 52.138244 
L 34.556643 52.289589 
L 33.948481 52.440934 
L 33.340318 52.59228 
L 32.732155 52.743625 
L 32.123992 52.89497 
L 31.578614 53.264195 
L 31.033236 53.633421 
L 30.487858 54.002646 
L 29.942479 54.371872 
L 29.397101 54.741097 
L 28.851723 55.110322 
L 28.306345 55.479548 
L 27.760966 55.848773 
L 27.170426 55.965039 
L 26.579886 56.081305 
L 25.989345 56.197571 
L 25.398805 56.313837 
L 24.808264 56.430102 
L 24.217724 56.546368 
L 23.627184 56.662634 
L 23.036643 56.7789 
L 22.588226 56.590165 
L 22.139809 56.40143 
L 21.691392 56.212695 
L 21.242975 56.02396 
L 20.684094 55.788802 
L 20.125213 55.553645 
L 19.566332 55.318488 
L 19.007451 55.08333 
L 18.267463 54.818975 
L 17.527476 54.55462 
L 16.787489 54.290265 
L 16.047502 54.02591 
L 15.345124 54.07333 
L 14.642746 54.12075 
L 13.940369 54.16817 
L 13.237991 54.21559 
L 12.535613 54.26301 
L 11.833236 54.31043 
L 11.130858 54.35785 
L 10.428481 54.40527 
" clip-path="url(#p79686f69dd)" style="fill: none; stroke: #4169e1; stroke-width: 0.4; stroke-linecap: square"/>
   </g>
   <g id="line2d_31">
    <path d="M 38.203179 51.173353 
L 37.619657 51.048633 
L 37.036135 50.923912 
L 36.452613 50.799191 
L 35.869091 50.674471 
L 35.285569 50.54975 
L 34.702047 50.42503 
L 34.118525 50.300309 
L 33.535003 50.175589 
L 32.775715 50.23808 
L 32.016427 50.300572 
L 31.257139 50.363063 
L 30.497851 50.425555 
L 29.738563 50.488046 
L 28.979275 50.550538 
L 28.219987 50.61303 
L 27.460699 50.675521 
L 26.857724 50.646954 
L 26.254749 50.618386 
L 25.651774 50.589818 
L 25.048798 50.561251 
L 24.445823 50.532683 
L 23.842848 50.504116 
L 23.239873 50.475548 
L 22.636898 50.446981 
L 21.899199 50.298314 
L 21.1615 50.149647 
L 20.423802 50.00098 
L 19.686103 49.852313 
L 18.948404 49.703646 
L 18.210706 49.554979 
L 17.473007 49.406312 
L 16.735308 49.257645 
L 16.329307 49.183653 
L 15.923306 49.109661 
L 15.517305 49.035669 
L 15.111303 48.961677 
L 14.705302 48.887684 
L 14.299301 48.813692 
L 13.893299 48.7397 
L 13.487298 48.665708 
L 13.068938 49.14474 
L 12.650579 49.623772 
L 12.232219 50.102804 
L 11.813859 50.581836 
L 11.395499 51.060868 
L 10.977139 51.5399 
L 10.558779 52.018932 
L 10.14042 52.497965 
" clip-path="url(#p79686f69dd)" style="fill: none; stroke: #4169e1; stroke-width: 0.4; stroke-linecap: square"/>
   </g>
   <g id="line2d_32">
    <path d="M 47.988099 51.052361 
L 47.708735 51.789657 
L 47.429371 52.526952 
L 47.150006 53.264248 
L 46.870642 54.001543 
L 46.479441 54.264953 
L 46.088239 54.528363 
L 45.608849 54.851219 
L 45.12946 55.174074 
L 44.711863 55.390327 
L 44.294266 55.606579 
L 43.876669 55.822831 
L 43.459072 56.039084 
L 43.062378 56.601718 
L 42.665683 57.164352 
L 42.268989 57.726986 
L 41.872295 58.289621 
L 41.151532 58.634637 
L 40.430769 58.979654 
L 39.710006 59.32467 
L 38.989243 59.669687 
L 38.389777 59.79698 
L 37.790312 59.924274 
L 37.190846 60.051568 
L 36.59138 60.178862 
L 36.269981 60.469946 
L 35.948582 60.761031 
L 35.627184 61.052116 
L 35.305785 61.343201 
L 34.984387 61.634285 
L 34.662988 61.92537 
L 34.341589 62.216455 
L 34.020191 62.507539 
L 33.644247 62.969557 
L 33.268303 63.431575 
L 32.892359 63.893592 
L 32.516414 64.35561 
L 31.823268 64.537203 
L 31.130121 64.718796 
L 30.436974 64.900389 
L 29.743827 65.081982 
L 29.091418 65.001951 
L 28.439008 64.92192 
L 27.786599 64.841889 
L 27.134189 64.761857 
L 26.627947 64.787064 
L 26.121704 64.812271 
L 25.615461 64.837477 
L 25.109218 64.862684 
L 24.653172 65.348333 
L 24.197127 65.833982 
L 23.741081 66.319631 
L 23.285035 66.805279 
L 22.92679 67.290928 
L 22.568544 67.776577 
L 22.210299 68.262226 
L 21.852053 68.747875 
L 21.061106 68.88315 
L 20.270159 69.018426 
L 19.660165 68.888192 
L 19.050172 68.757957 
L 18.440178 68.627723 
L 17.830184 68.497488 
L 17.138258 68.199839 
L 16.446332 67.90219 
L 15.754406 67.604541 
L 15.062479 67.306892 
L 14.535181 67.210267 
L 14.007883 67.113641 
L 13.381106 66.998951 
L 12.965111 66.890877 
L 12.549116 66.782803 
L 12.133121 66.67473 
L 11.717127 66.566656 
L 11.301132 66.458582 
L 10.885137 66.350509 
L 10.469142 66.242435 
L 10.053147 66.134361 
" clip-path="url(#p79686f69dd)" style="fill: none; stroke: #4169e1; stroke-width: 0.4; stroke-linecap: square"/>
   </g>
   <g id="line2d_33">
    <path d="M 47.988099 51.052361 
L 47.523786 51.239888 
L 47.059472 51.427416 
L 46.595159 51.614943 
L 46.130846 51.80247 
L 45.666532 51.989997 
L 45.202219 52.177525 
L 44.737905 52.365052 
L 44.273592 52.552579 
L 43.809278 52.740106 
L 43.344965 52.927633 
L 42.880652 53.115161 
L 42.416338 53.302688 
L 41.952025 53.490215 
L 41.487711 53.677742 
L 41.023398 53.86527 
L 40.559085 54.052797 
L 40.094771 54.240324 
L 39.630458 54.427851 
L 39.166144 54.615379 
L 38.701831 54.802906 
L 38.237517 54.990433 
L 37.773204 55.17796 
L 37.308891 55.365488 
L 36.844577 55.553015 
L 36.380264 55.740542 
L 35.91595 55.928069 
L 35.451637 56.115597 
L 34.987324 56.303124 
L 34.52301 56.490651 
L 34.058697 56.678178 
L 33.594383 56.865705 
L 33.13007 57.053233 
L 32.665757 57.24076 
L 32.201443 57.428287 
L 31.73713 57.615814 
L 31.272816 57.803342 
L 30.808503 57.990869 
L 30.344189 58.178396 
L 29.879876 58.365923 
L 29.415563 58.553451 
L 28.951249 58.740978 
L 28.486936 58.928505 
L 28.022622 59.116032 
L 27.558309 59.30356 
L 27.093996 59.491087 
L 26.629682 59.678614 
L 26.165369 59.866141 
L 25.701055 60.053669 
L 25.236742 60.241196 
L 24.772428 60.428723 
L 24.308115 60.61625 
L 23.843802 60.803778 
L 23.379488 60.991305 
L 22.915175 61.178832 
L 22.450861 61.366359 
L 21.986548 61.553886 
L 21.522235 61.741414 
L 21.057921 61.928941 
L 20.593608 62.116468 
L 20.129294 62.303995 
L 19.664981 62.491523 
L 19.200668 62.67905 
L 18.736354 62.866577 
L 18.272041 63.054104 
L 17.830947 63.646356 
L 17.389854 64.238609 
L 16.94876 64.830861 
L 16.507667 65.423113 
L 15.882721 65.845745 
L 15.257775 66.268377 
L 14.632829 66.691009 
L 14.007883 67.113641 
" clip-path="url(#p79686f69dd)" style="fill: none; stroke: #4169e1; stroke-width: 0.4; stroke-linecap: square"/>
   </g>
   <g id="line2d_34">
    <path d="M 21.242975 56.02396 
L 20.683942 56.375593 
L 20.124908 56.727226 
L 19.694876 56.966007 
L 19.264844 57.204788 
L 18.834812 57.443569 
L 18.404781 57.68235 
L 17.974749 57.92113 
L 17.544717 58.159911 
L 17.114685 58.398692 
L 16.684654 58.637473 
L 16.273007 58.724856 
L 15.86136 58.812239 
L 15.449714 58.899622 
L 15.038067 58.987006 
L 14.626421 59.224526 
L 14.214774 59.462047 
L 13.803128 59.699567 
L 13.391481 59.937088 
L 12.979835 60.174608 
L 12.568188 60.412129 
L 12.156542 60.649649 
L 11.744895 60.88717 
" clip-path="url(#p79686f69dd)" style="fill: none; stroke: #4169e1; stroke-width: 0.4; stroke-linecap: square"/>
   </g>
   <g id="line2d_35">
    <path d="M 61.473261 51.409456 
L 61.104183 51.769281 
L 60.735105 52.129107 
L 60.366027 52.488932 
L 59.996949 52.848758 
L 59.62787 53.208583 
L 59.258792 53.568408 
L 58.889714 53.928234 
L 58.520636 54.288059 
L 58.357686 54.874167 
L 58.194736 55.460275 
L 58.031786 56.046383 
L 57.868837 56.632491 
L 57.705887 57.218599 
L 57.542937 57.804707 
L 57.379987 58.390815 
L 57.217038 58.976923 
L 57.533935 59.471499 
L 57.850833 59.966075 
L 58.16773 60.460652 
L 58.484628 60.955228 
L 59.047324 61.277978 
L 59.610019 61.600729 
L 60.172715 61.92348 
L 60.73541 62.24623 
L 61.126306 62.767483 
L 61.517203 63.288737 
L 61.908099 63.80999 
L 62.298996 64.331243 
L 62.40412 64.741377 
L 62.509243 65.151511 
L 62.614367 65.561644 
L 62.719491 65.971778 
L 62.824615 66.381912 
L 62.929739 66.792046 
L 63.034863 67.20218 
L 63.139987 67.612313 
L 63.102912 68.415777 
L 63.065836 69.21924 
L 63.02876 70.022703 
L 62.991685 70.826166 
L 62.52679 71.184521 
L 62.061894 71.542876 
L 61.596999 71.901231 
L 61.132104 72.259586 
L 60.711303 72.922942 
L 60.290502 73.586298 
L 60.323153 74.120837 
L 60.355804 74.655377 
L 60.388455 75.189916 
L 60.421106 75.724455 
L 60.453757 76.258994 
L 60.486408 76.793534 
L 60.519059 77.328073 
L 60.55171 77.862612 
L 60.147235 78.009441 
L 59.742759 78.15627 
L 59.338284 78.303099 
L 58.933808 78.449928 
L 58.53391 78.995758 
L 58.134011 79.541588 
L 57.734113 80.087417 
L 57.334215 80.633247 
L 56.546472 80.819882 
L 55.758729 81.006516 
L 54.970985 81.193151 
L 54.183242 81.379785 
L 53.435321 81.424107 
L 52.6874 81.468429 
L 52.27972 81.659474 
L 51.872041 81.85052 
L 51.464361 82.041566 
L 51.056682 82.232611 
L 50.425022 82.52879 
L 49.820826 82.928526 
L 49.216631 83.328262 
L 48.535537 83.351998 
L 47.854444 83.375734 
L 47.425556 83.224284 
L 46.996669 83.072834 
L 46.567781 82.921384 
L 46.138894 82.769934 
L 45.67705 82.77298 
L 45.215207 82.776025 
L 44.753363 82.779071 
L 44.291519 82.782117 
L 43.879873 82.88725 
L 43.468226 82.992383 
L 43.05658 83.097516 
L 42.644933 83.202649 
L 42.191939 83.560899 
L 41.738945 83.919149 
L 41.28595 84.277399 
L 40.832956 84.635649 
L 40.063064 84.635649 
L 39.293172 84.635649 
L 38.633439 84.794241 
L 37.973706 84.952833 
" clip-path="url(#p79686f69dd)" style="fill: none; stroke: #008000; stroke-width: 0.4; stroke-linecap: square"/>
   </g>
   <g id="line2d_36">
    <path d="M 57.500216 45.073335 
L 57.358932 45.511249 
L 57.217648 45.949163 
L 57.076364 46.387076 
L 56.935079 46.82499 
L 56.793795 47.262903 
L 56.652511 47.700817 
L 56.511227 48.138731 
L 56.369943 48.576644 
L 56.405493 49.180765 
L 56.441043 49.784885 
L 56.476592 50.389005 
L 56.512142 50.993125 
L 56.675016 51.384039 
L 56.837889 51.774953 
L 57.000763 52.165866 
L 57.163636 52.55678 
L 57.32651 52.947694 
L 57.489383 53.338607 
L 57.652257 53.729521 
L 57.81513 54.120435 
L 57.721907 54.609024 
L 57.628684 55.097614 
L 57.535461 55.586204 
L 57.442238 56.074793 
L 57.404552 56.559917 
L 57.366866 57.045041 
L 57.32918 57.530164 
L 57.291494 58.015288 
L 57.254266 58.496105 
L 57.217038 58.976923 
" clip-path="url(#p79686f69dd)" style="fill: none; stroke: #008000; stroke-width: 0.4; stroke-linecap: square"/>
   </g>
   <g id="line2d_37">
    <path d="M 58.484628 60.955228 
L 58.486154 61.459992 
L 58.48768 61.964755 
L 58.438856 62.389173 
L 58.390032 62.813591 
L 58.341208 63.238008 
L 58.292384 63.662426 
L 58.615232 64.03559 
L 58.93808 64.408754 
L 59.260928 64.781918 
L 59.583776 65.155082 
L 59.619326 65.605231 
L 59.654876 66.05538 
L 59.690426 66.50553 
L 59.725976 66.955679 
L 59.608951 67.648653 
L 59.491926 68.341627 
L 59.374901 69.034601 
L 59.257877 69.727574 
L 59.042289 70.279286 
L 58.826701 70.830997 
L 58.611113 71.382708 
L 58.395524 71.93442 
L 58.158423 72.526567 
L 57.921322 73.118714 
L 57.359237 73.326039 
L 56.797152 73.533364 
L 56.235067 73.740689 
L 55.672982 73.948014 
L 55.285137 74.303323 
L 54.897292 74.658632 
L 54.509447 75.013942 
L 54.121602 75.369251 
L 53.831405 75.97043 
L 53.541208 76.57161 
L 53.251011 77.172789 
L 52.960814 77.773969 
L 52.713185 78.144087 
L 52.465556 78.514205 
L 52.217928 78.884323 
L 51.970299 79.254441 
L 51.741894 79.998984 
L 51.51349 80.743526 
L 51.285086 81.488069 
L 51.056682 82.232611 
" clip-path="url(#p79686f69dd)" style="fill: none; stroke: #4169e1; stroke-width: 0.4; stroke-linecap: square"/>
   </g>
   <g id="line2d_38">
    <path d="M 52.441449 47.792296 
L 52.434374 48.264528 
L 52.427298 48.736759 
L 52.420223 49.208991 
L 52.413147 49.681222 
L 52.406071 50.153454 
L 52.398996 50.625685 
L 52.39192 51.097917 
L 52.384844 51.570148 
L 52.377769 52.04238 
L 52.370693 52.514611 
L 52.363617 52.986843 
L 52.356542 53.459074 
L 52.349466 53.931306 
L 52.34239 54.403537 
L 52.335315 54.875769 
L 52.328239 55.348 
L 52.321163 55.820232 
L 52.314088 56.292463 
L 52.307012 56.764695 
L 52.299936 57.236926 
L 52.292861 57.709158 
L 52.285785 58.181389 
L 52.278709 58.653621 
L 52.271634 59.125852 
L 52.264558 59.598084 
L 52.257483 60.070315 
L 52.250407 60.542547 
L 52.243331 61.014778 
L 52.236256 61.48701 
L 52.22918 61.959242 
L 52.222104 62.431473 
L 52.215029 62.903705 
" clip-path="url(#p79686f69dd)" style="fill: none; stroke: #008000; stroke-width: 0.4; stroke-linecap: square"/>
   </g>
   <g id="line2d_39">
    <path d="M 52.215029 62.903705 
L 52.204272 63.621281 
L 52.193516 64.338858 
L 52.182759 65.056434 
L 52.172003 65.774011 
L 52.161246 66.491587 
L 52.15049 67.209164 
L 52.139733 67.926741 
L 52.128976 68.644317 
L 52.11822 69.361894 
L 52.107463 70.07947 
L 52.096707 70.797047 
L 52.08595 71.514623 
L 52.075194 72.2322 
L 52.064437 72.949777 
L 52.053681 73.667353 
L 52.042924 74.38493 
L 52.033846 74.993619 
L 52.024768 75.602308 
L 52.01569 76.210997 
L 52.006612 76.819686 
L 51.997533 77.428375 
L 51.988455 78.037063 
L 51.979377 78.645752 
L 51.970299 79.254441 
" clip-path="url(#p79686f69dd)" style="fill: none; stroke: #4169e1; stroke-width: 0.4; stroke-linecap: square"/>
   </g>
   <g id="line2d_40">
    <path d="M 57.291494 58.015288 
L 56.817597 58.612004 
L 56.3437 59.208719 
L 55.869803 59.805435 
L 55.395906 60.402151 
L 54.922009 60.998867 
L 54.448112 61.595583 
L 53.974215 62.192298 
L 53.500318 62.789014 
L 52.722645 62.892256 
L 51.944971 62.995499 
L 51.167298 63.098741 
L 50.389625 63.201984 
L 49.912676 63.547945 
L 49.435728 63.893907 
L 48.958779 64.239869 
L 48.481831 64.585831 
L 47.890451 65.014764 
L 47.138258 65.03535 
L 46.386065 65.055935 
L 46.307336 65.617624 
L 46.228608 66.179313 
L 46.149879 66.741002 
L 46.071151 67.302691 
L 45.92712 67.909017 
L 45.78309 68.515343 
L 45.639059 69.121669 
L 45.495029 69.727995 
L 45.087349 70.346294 
L 44.679669 70.964593 
L 44.27199 71.582892 
L 43.86431 72.201191 
L 43.702657 72.580446 
L 43.541004 72.959702 
L 43.379352 73.338957 
L 43.217699 73.718213 
L 43.056046 74.097469 
L 42.894393 74.476724 
L 42.73274 74.85598 
L 42.571087 75.235235 
L 42.360992 75.59233 
L 42.150896 75.949425 
L 41.940801 76.306519 
L 41.730706 76.663614 
L 41.487807 77.076479 
L 41.244908 77.489343 
L 41.002009 77.902208 
L 40.75911 78.315072 
L 40.532079 78.800826 
L 40.305048 79.28658 
L 40.078017 79.772334 
L 39.850985 80.258088 
L 39.532104 80.939928 
L 39.213223 81.621769 
" clip-path="url(#p79686f69dd)" style="fill: none; stroke: #4169e1; stroke-width: 0.4; stroke-linecap: square"/>
   </g>
   <g id="line2d_41">
    <path d="M 48.481831 64.585831 
L 48.395931 65.04391 
L 48.310032 65.501989 
L 48.224132 65.960068 
L 48.138233 66.418147 
L 48.052333 66.876226 
L 47.966434 67.334305 
L 47.880534 67.792384 
L 47.794634 68.250463 
L 47.708735 68.708542 
L 47.622835 69.166621 
L 47.536936 69.6247 
L 47.451036 70.082779 
L 47.365137 70.540858 
L 47.279237 70.998937 
L 47.193338 71.457016 
L 47.107438 71.915095 
L 46.874914 72.637266 
L 46.64239 73.359438 
L 46.409866 74.081609 
L 46.177343 74.803781 
L 45.617699 75.36652 
L 45.058055 75.929259 
L 44.59911 75.929259 
L 44.140165 75.929259 
L 43.681221 75.929259 
L 43.222276 75.929259 
L 42.849383 76.112848 
L 42.476491 76.296437 
L 42.103598 76.480025 
L 41.730706 76.663614 
" clip-path="url(#p79686f69dd)" style="fill: none; stroke: #4169e1; stroke-width: 0.4; stroke-linecap: square"/>
   </g>
   <g id="line2d_42">
    <path d="M 52.042924 74.38493 
L 51.31972 74.581332 
L 50.596516 74.777734 
L 50.242467 75.055664 
L 49.888417 75.333594 
L 49.534367 75.611524 
L 49.180318 75.889454 
L 48.826268 76.167384 
L 48.472219 76.445314 
L 48.118169 76.723244 
L 47.76412 77.001174 
L 47.41007 77.279104 
L 47.05602 77.557034 
L 46.701971 77.834964 
L 46.347921 78.112894 
L 45.993872 78.390824 
L 45.639822 78.668754 
L 45.285772 78.946683 
L 44.931723 79.224613 
L 44.303268 79.350332 
L 43.674812 79.47605 
L 43.046357 79.601768 
L 42.417902 79.727487 
L 41.776173 79.860137 
L 41.134444 79.992787 
L 40.492715 80.125437 
L 39.850985 80.258088 
" clip-path="url(#p79686f69dd)" style="fill: none; stroke: #008000; stroke-width: 0.4; stroke-linecap: square"/>
   </g>
   <g id="line2d_43">
    <path d="M 46.088239 54.528363 
L 46.107769 55.219026 
L 46.127298 55.909689 
L 46.143471 56.48133 
L 46.159644 57.05297 
L 46.175817 57.624611 
L 46.19199 58.196251 
L 46.208163 58.767891 
L 46.224336 59.339532 
L 46.240509 59.911172 
L 46.256682 60.482812 
L 46.272854 61.054453 
L 46.289027 61.626093 
L 46.3052 62.197734 
L 46.321373 62.769374 
L 46.337546 63.341014 
L 46.353719 63.912655 
L 46.369892 64.484295 
L 46.386065 65.055935 
" clip-path="url(#p79686f69dd)" style="fill: none; stroke: #008000; stroke-width: 0.4; stroke-linecap: square"/>
   </g>
   <g id="line2d_44">
    <path d="M 66.627845 51.767811 
L 67.152702 52.370776 
L 67.677559 52.973741 
L 68.202416 53.576706 
L 68.727273 54.179671 
L 68.021024 54.233734 
L 67.314774 54.287797 
L 66.608525 54.34186 
L 65.902276 54.395923 
L 65.196027 54.449986 
L 64.489777 54.504049 
L 63.783528 54.558112 
L 63.077279 54.612175 
L 62.37103 54.666238 
L 61.664781 54.720301 
L 60.958531 54.774365 
L 60.252282 54.828428 
L 59.546033 54.882491 
L 58.839784 54.936554 
L 58.133535 54.990617 
L 57.427285 55.04468 
L 56.721036 55.098743 
L 56.014787 55.152806 
L 55.308538 55.206869 
L 54.602289 55.260932 
L 53.896039 55.314995 
L 53.18979 55.369059 
L 52.483541 55.423122 
L 51.777292 55.477185 
L 51.071043 55.531248 
L 50.364793 55.585311 
L 49.658544 55.639374 
L 48.952295 55.693437 
L 48.246046 55.7475 
L 47.539797 55.801563 
L 46.833547 55.855626 
L 46.127298 55.909689 
" clip-path="url(#p79686f69dd)" style="fill: none; stroke: #008000; stroke-width: 0.4; stroke-linecap: square"/>
   </g>
  </g>
 </g>
 <defs>
  <clipPath id="p79686f69dd">
   <rect x="0" y="0" width="72" height="208.176977"/>
  </clipPath>
 </defs>
</svg>
