<?xml version="1.0" encoding="utf-8" standalone="no"?>
<!DOCTYPE svg PUBLIC "-//W3C//DTD SVG 1.1//EN"
  "http://www.w3.org/Graphics/SVG/1.1/DTD/svg11.dtd">
<svg height="72pt" version="1.1" viewBox="0 0 82.981562 72" width="82.981562pt" xmlns="http://www.w3.org/2000/svg" xmlns:xlink="http://www.w3.org/1999/xlink">
 <metadata>
  <rdf:RDF xmlns:cc="http://creativecommons.org/ns#" xmlns:dc="http://purl.org/dc/elements/1.1/" xmlns:rdf="http://www.w3.org/1999/02/22-rdf-syntax-ns#">
   <cc:Work>
    <dc:type rdf:resource="http://purl.org/dc/dcmitype/StillImage"/>
    <dc:date>2022-04-19T00:44:22.862020</dc:date>
    <dc:format>image/svg+xml</dc:format>
    <dc:creator>
     <cc:Agent>
      <dc:title>Matplotlib v3.4.3, https://matplotlib.org/</dc:title>
     </cc:Agent>
    </dc:creator>
   </cc:Work>
  </rdf:RDF>
 </metadata>
 <defs>
  <style type="text/css">*{stroke-linecap:butt;stroke-linejoin:round;}</style>
 </defs>
 <g id="figure_1">
  <g id="patch_1">
   <path d="M 0 72 
L 82.981562 72 
L 82.981562 0 
L 0 0 
z
" style="fill:#ffffff;"/>
  </g>
  <g id="axes_1">
   <g id="line2d_1">
    <path clip-path="url(#pc87e530aa6)" d="M 55.362289 58.286216 
L 54.91129 56.500252 
L 54.478048 54.784175 
L 54.044805 53.068098 
L 53.56572 51.170182 
L 53.086636 49.272266 
L 52.828934 48.251449 
L 52.571232 47.230632 
L 52.31353 46.209815 
L 52.055828 45.188997 
L 51.790136 44.136523 
L 51.524445 43.084048 
L 51.258753 42.031574 
L 50.993061 40.979099 
L 50.744963 39.996183 
L 50.496866 39.013267 
L 50.248768 38.030352 
L 50.000671 37.047436 
L 49.626184 35.564682 
L 49.146938 33.666109 
L 48.667691 31.767536 
L 48.387875 30.658976 
L 48.10806 29.550416 
L 47.828244 28.441856 
L 47.548428 27.333296 
L 47.198638 25.947597 
L 46.848848 24.561897 
L 46.598329 23.569451 
L 46.34781 22.577005 
L 46.097291 21.584559 
L 45.846773 20.592113 
L 45.404491 18.839887 
L 44.962209 17.087662 
L 44.903776 16.85631 
L 44.469242 15.134756 
" style="fill:none;stroke:#808080;stroke-linecap:square;stroke-width:0.4;"/>
   </g>
   <g id="line2d_2">
    <path clip-path="url(#pc87e530aa6)" d="M 48.071418 48.295594 
L 47.682404 46.868488 
L 47.208161 45.129407 
L 46.791868 43.602398 
L 46.375574 42.07539 
L 45.912146 40.375525 
L 45.448719 38.67566 
L 45.165191 37.635564 
L 44.881662 36.595468 
L 44.598134 35.555371 
L 44.314605 34.515275 
L 43.912193 33.039094 
L 43.509781 31.562912 
L 43.077185 29.975875 
L 42.644588 28.388838 
L 42.145003 26.556209 
L 41.645418 24.72358 
L 41.146802 22.894237 
L 40.648186 21.064894 
L 40.281285 19.719067 
L 39.914385 18.373241 
" style="fill:none;stroke:#808080;stroke-linecap:square;stroke-width:0.4;"/>
   </g>
   <g id="line2d_3">
    <path clip-path="url(#pc87e530aa6)" d="M 41.24801 46.51182 
L 39.942472 45.69245 
L 38.824661 44.990508 
L 37.70685 44.288566 
L 36.136588 43.302912 
L 34.566326 42.317258 
L 33.143276 41.423837 
L 31.720227 40.530417 
L 30.791677 39.947437 
L 29.863127 39.364457 
L 28.934577 38.781478 
L 28.006028 38.198498 
L 27.061498 37.60555 
L 26.116968 37.012602 
L 25.172438 36.419653 
L 24.227908 35.826705 
L 23.179506 35.168361 
L 22.131105 34.510017 
L 21.001833 33.801064 
L 19.872562 33.092112 
L 18.74329 32.383159 
L 17.614019 31.674207 
L 16.68095 31.088379 
L 15.74788 30.502551 
L 14.814811 29.916723 
L 13.881741 29.330895 
L 13.134705 28.862057 
L 12.950044 28.745943 
" style="fill:none;stroke:#808080;stroke-linecap:square;stroke-width:0.4;"/>
   </g>
   <g id="line2d_4">
    <path clip-path="url(#pc87e530aa6)" d="M 55.015888 58.597752 
L 54.906771 58.184562 
L 54.747614 57.581645 
L 54.345363 56.056828 
L 54.033345 54.874437 
L 53.721326 53.692046 
L 53.347162 52.273922 
L 52.972998 50.855798 
L 52.670503 49.709337 
L 52.368008 48.562875 
L 52.081332 47.476881 
L 51.794656 46.390887 
" style="fill:none;stroke:#808080;stroke-linecap:square;stroke-width:0.4;"/>
   </g>
   <g id="line2d_5">
    <path clip-path="url(#pc87e530aa6)" d="M 60.651269 60.556354 
L 60.574757 60.18216 
L 60.291633 58.793612 
L 60.041921 57.568719 
L 59.792209 56.343826 
L 59.568163 55.244906 
L 59.344116 54.145986 
L 58.978023 52.351696 
L 58.593529 50.466706 
L 58.291034 48.982638 
L 58.056818 47.79477 
L 57.822602 46.606902 
L 57.438753 44.724103 
L 57.223746 43.669986 
L 57.008739 42.615868 
L 56.793732 41.56175 
L 56.578725 40.507632 
L 56.297214 39.128724 
L 56.099479 38.159063 
L 55.901743 37.189401 
L 55.704008 36.21974 
L 55.506272 35.250079 
L 55.116612 33.339675 
L 54.973274 32.636857 
L 54.660126 31.093199 
L 54.310981 29.407136 
L 53.961837 27.721073 
L 53.722375 26.535506 
L 53.482914 25.349938 
L 53.243452 24.164371 
L 53.00399 22.978803 
L 52.739186 21.66803 
L 52.474382 20.357256 
L 52.209578 19.046483 
L 51.944774 17.735709 
L 51.709428 16.569969 
L 51.474083 15.404228 
L 51.361414 14.846881 
L 51.156737 13.833841 
L 51.059242 13.351421 
L 50.917195 12.647726 
L 50.824864 12.190719 
" style="fill:none;stroke:#808080;stroke-linecap:square;stroke-width:0.4;"/>
   </g>
   <g id="line2d_6">
    <path clip-path="url(#pc87e530aa6)" d="M 61.865123 61.385364 
L 62.04365 60.918279 
L 62.136303 60.675973 
L 62.376814 60.046767 
L 62.826521 58.870291 
L 63.276228 57.693816 
L 63.783561 56.366611 
L 64.290893 55.039406 
L 64.802584 53.700809 
L 65.314275 52.362212 
L 65.991903 50.589393 
L 66.52135 49.20435 
L 67.132151 47.606359 
L 67.742951 46.008368 
L 68.010257 45.309931 
L 68.693696 43.521338 
L 69.122742 42.398976 
L 69.551787 41.276614 
L 70.106738 39.824751 
L 70.661689 38.372888 
L 71.215994 36.922558 
L 71.561748 36.018184 
L 72.248415 34.222142 
L 72.462454 33.662166 
L 72.965105 32.347229 
L 73.279222 31.52523 
L 73.381883 31.256634 
" style="fill:none;stroke:#808080;stroke-linecap:square;stroke-width:0.4;"/>
   </g>
   <g id="line2d_7">
    <path clip-path="url(#pc87e530aa6)" d="M 61.492896 59.905239 
L 61.479902 58.8945 
L 61.466908 57.883761 
L 61.453914 56.873021 
L 61.44092 55.862282 
" style="fill:none;stroke:#808080;stroke-linecap:square;stroke-width:0.4;"/>
   </g>
   <g id="line2d_8">
    <path clip-path="url(#pc87e530aa6)" d="M 54.167805 68.727273 
L 53.842389 67.573144 
L 53.444335 66.162249 
L 53.000439 64.587919 
L 52.543953 62.969334 
L 52.131049 61.504983 
" style="fill:none;stroke:#808080;stroke-linecap:square;stroke-width:0.4;"/>
   </g>
   <g id="line2d_9">
    <path clip-path="url(#pc87e530aa6)" d="M 62.722891 48.815697 
L 62.419831 49.049459 
L 62.116771 49.28322 
L 61.813712 49.516982 
L 61.510652 49.750743 
L 60.97378 49.958434 
L 60.436908 50.166125 
L 60.125212 50.20074 
L 59.813516 50.235355 
L 59.501821 50.26997 
L 59.190125 50.304585 
L 58.878268 50.3392 
" style="fill:none;stroke:#008000;stroke-linecap:square;stroke-width:0.4;"/>
   </g>
   <g id="line2d_10">
    <path clip-path="url(#pc87e530aa6)" d="M 57.004542 13.096846 
L 56.966004 13.414626 
L 56.927466 13.732406 
L 56.888928 14.050186 
L 56.850389 14.367966 
L 56.811851 14.685746 
L 56.773313 15.003525 
L 56.734775 15.321305 
L 56.696236 15.639085 
L 56.678884 16.037378 
L 56.661532 16.435671 
L 56.64418 16.833964 
L 56.626827 17.232257 
L 56.609515 17.656566 
L 56.592203 18.080874 
L 56.574891 18.505183 
L 56.557579 18.929492 
L 56.540268 19.353801 
L 56.522956 19.77811 
L 56.505644 20.202419 
L 56.488332 20.626728 
L 56.532923 20.930651 
L 56.577514 21.234574 
L 56.622106 21.538497 
L 56.666697 21.84242 
L 56.711289 22.146343 
L 56.75588 22.450265 
L 56.800471 22.754188 
L 56.845063 23.058111 
" style="fill:none;stroke:#000000;stroke-dasharray:1.48,0.64;stroke-dashoffset:0;stroke-width:0.4;"/>
   </g>
   <g id="line2d_11">
    <path clip-path="url(#pc87e530aa6)" d="M 70.204234 35.19005 
L 70.057062 35.482252 
L 69.90989 35.774454 
L 69.762719 36.066656 
L 69.615547 36.358858 
L 69.468375 36.65106 
L 69.321203 36.943262 
L 69.174032 37.235464 
L 69.02686 37.527666 
L 68.89696 37.804696 
L 68.76706 38.081726 
L 68.63716 38.358757 
L 68.50726 38.635787 
L 68.377359 38.912818 
L 68.247459 39.189848 
L 68.117559 39.466879 
L 67.987659 39.743909 
L 67.658611 40.142202 
L 67.329563 40.540495 
L 67.000515 40.938788 
L 66.671467 41.33708 
L 66.469696 41.695062 
L 66.267925 42.053044 
L 66.066154 42.411025 
L 65.864384 42.769007 
L 65.662613 43.126988 
L 65.460842 43.48497 
L 65.259071 43.842952 
L 65.0573 44.200933 
L 64.834787 44.405721 
L 64.612274 44.610509 
L 64.389761 44.815297 
L 64.167248 45.020084 
L 63.944735 45.224872 
L 63.722222 45.42966 
L 63.499709 45.634448 
L 63.277196 45.839236 
L 63.13862 46.324066 
L 63.000044 46.808897 
L 62.861468 47.293728 
L 62.722891 47.778558 
L 62.861468 48.349927 
L 63.000044 48.921295 
L 63.13862 49.492663 
L 63.277196 50.064032 
L 63.233896 50.367024 
L 63.190596 50.670015 
L 63.147296 50.973007 
L 63.103996 51.275999 
L 63.060696 51.578991 
L 63.017396 51.881982 
L 62.974096 52.184974 
L 62.930796 52.487966 
L 62.774948 52.868951 
L 62.6191 53.249937 
L 62.463252 53.630922 
L 62.307405 54.011907 
L 62.116893 54.254322 
L 61.92638 54.496738 
L 61.735868 54.739153 
L 61.545356 54.981568 
L 61.354844 55.223984 
L 61.164332 55.466399 
L 60.97382 55.708814 
L 60.783308 55.95123 
" style="fill:none;stroke:#4169e1;stroke-linecap:square;stroke-width:0.4;"/>
   </g>
   <g id="line2d_12">
    <path clip-path="url(#pc87e530aa6)" d="M 73.650804 32.114563 
L 73.700197 32.444502 
L 73.749591 32.774441 
L 73.798984 33.10438 
L 73.848378 33.434319 
L 73.897771 33.764258 
L 73.947165 34.094197 
L 73.996558 34.424136 
L 74.045952 34.754075 
L 74.095345 35.084014 
L 74.144739 35.413953 
L 74.194132 35.743892 
L 74.243526 36.073831 
L 74.292919 36.40377 
L 74.342313 36.733709 
L 74.391706 37.063648 
L 74.4411 37.393587 
L 74.477419 37.833396 
L 74.513737 38.273205 
L 74.550056 38.713014 
L 74.586375 39.152823 
L 74.604454 39.610707 
L 74.622532 40.06859 
L 74.640611 40.526473 
L 74.65869 40.984357 
L 74.558934 41.492191 
L 74.459178 42.000026 
L 74.105514 42.344424 
L 73.75185 42.688822 
L 73.530871 42.940439 
L 73.309891 43.192056 
L 73.088912 43.443673 
L 72.867932 43.69529 
L 72.91208 44.110014 
L 72.956227 44.524738 
L 73.000375 44.939462 
L 73.044522 45.354186 
L 73.46017 45.544679 
L 73.875818 45.735171 
L 74.291467 45.925664 
L 74.707115 46.116157 
L 75.119292 46.169832 
L 75.53147 46.223507 
L 75.943647 46.277183 
L 76.355825 46.330858 
L 76.768003 46.384533 
L 77.18018 46.438209 
L 77.592358 46.491884 
L 78.004535 46.545559 
L 78.30582 46.940347 
L 78.607104 47.335134 
L 78.908388 47.729922 
L 79.209673 48.124709 
L 78.949953 48.626848 
L 78.690234 49.128986 
L 78.430514 49.631124 
L 78.170795 50.133262 
L 78.058206 50.444908 
L 77.945618 50.756553 
L 77.83303 51.068199 
L 77.720442 51.379844 
L 77.607854 51.69149 
L 77.495266 52.003135 
L 77.382678 52.314781 
L 77.270089 52.626426 
L 77.044994 53.128565 
L 76.819898 53.630703 
L 76.594802 54.132841 
L 76.369707 54.634979 
L 76.135895 54.842779 
L 75.902083 55.05058 
L 75.66827 55.25838 
L 75.434458 55.46618 
L 75.200646 55.67398 
L 74.966834 55.88178 
L 74.733022 56.089581 
L 74.49921 56.297381 
L 74.19615 56.505181 
L 73.89309 56.712981 
L 73.59003 56.920781 
L 73.28697 57.128582 
L 72.98391 57.336382 
L 72.68085 57.544182 
L 72.377791 57.751982 
L 72.074731 57.959782 
L 71.685071 58.098298 
L 71.295411 58.236813 
L 70.905751 58.375328 
L 70.516091 58.513843 
L 70.126431 58.652359 
L 69.736771 58.790874 
L 69.347111 58.929389 
L 68.957451 59.067904 
L 68.574248 58.910055 
L 68.191044 58.752206 
L 67.807841 58.594356 
L 67.424638 58.436507 
L 67.013348 58.267375 
L 66.602058 58.098243 
" style="fill:none;stroke:#008000;stroke-linecap:square;stroke-width:0.4;"/>
   </g>
   <g id="line2d_13">
    <path clip-path="url(#pc87e530aa6)" d="M 73.87937 36.23902 
L 73.74493 36.609598 
L 73.61049 36.980177 
L 73.47605 37.350756 
L 73.34161 37.721335 
L 73.20717 38.091914 
L 73.07273 38.462493 
L 72.93829 38.833072 
L 72.80385 39.20365 
L 72.66941 39.574229 
L 72.53497 39.944808 
L 72.40053 40.315387 
L 72.26609 40.685966 
L 72.13165 41.056545 
L 71.99721 41.427124 
L 71.86277 41.797702 
L 71.72833 42.168281 
L 71.633094 42.687727 
L 71.537859 43.207173 
L 71.442623 43.726619 
L 71.347387 44.246064 
L 71.252151 44.76551 
L 71.156915 45.284956 
L 71.061679 45.804401 
L 70.966443 46.323847 
L 70.879843 46.68747 
L 70.793243 47.051093 
L 70.706643 47.414716 
L 70.620043 47.778339 
L 70.533443 48.141962 
L 70.446843 48.505585 
L 70.360243 48.869208 
L 70.273643 49.232831 
L 70.187043 49.570493 
L 70.100443 49.908154 
L 70.013843 50.245816 
L 69.927243 50.583478 
L 69.840642 50.921139 
L 69.754042 51.258801 
L 69.667442 51.596463 
L 69.580842 51.934124 
L 69.468294 52.289093 
L 69.355747 52.644063 
L 69.243199 52.999032 
L 69.130651 53.354001 
L 69.018103 53.70897 
L 68.905555 54.063939 
L 68.793008 54.418909 
L 68.68046 54.773878 
L 68.559236 55.241291 
L 68.438012 55.708705 
L 68.316788 56.176118 
L 68.195564 56.643532 
L 67.953116 56.903255 
L 67.710668 57.162978 
L 67.46822 57.422701 
L 67.225772 57.682423 
L 66.810124 57.890224 
L 66.394476 58.098024 
L 65.978828 58.305824 
L 65.56318 58.513624 
L 65.338004 58.842577 
L 65.112827 59.17153 
L 64.887651 59.500484 
L 64.662475 59.829437 
L 64.385403 60.054544 
L 64.108331 60.279652 
L 63.831259 60.50476 
L 63.554187 60.729868 
" style="fill:none;stroke:#4169e1;stroke-linecap:square;stroke-width:0.4;"/>
   </g>
   <g id="line2d_14">
    <path clip-path="url(#pc87e530aa6)" d="M 44.199354 15.393274 
L 44.367348 14.913154 
L 44.535342 14.433033 
L 44.703337 13.952913 
L 44.871331 13.472793 
L 45.039326 12.992672 
L 45.20732 12.512552 
L 45.375315 12.032432 
L 45.543309 11.552311 
L 45.777121 11.266572 
L 46.010933 10.980833 
L 46.244746 10.695094 
L 46.478558 10.409355 
L 46.71237 10.123616 
L 46.946182 9.837877 
L 47.179994 9.552138 
L 47.413806 9.266399 
L 47.682242 9.119176 
L 47.950678 8.971952 
L 48.219114 8.824728 
L 48.48755 8.677504 
L 48.755986 8.530281 
L 49.024422 8.383057 
L 49.292858 8.235833 
L 49.561294 8.088609 
L 49.968266 8.019379 
L 50.375238 7.950149 
L 50.78221 7.880919 
L 51.189182 7.811688 
L 51.596154 7.742458 
L 52.003126 7.673228 
L 52.410098 7.603998 
L 52.81707 7.534768 
L 53.059518 7.820507 
L 53.301966 8.106246 
L 53.544413 8.391984 
L 53.786861 8.677723 
L 54.029309 8.963462 
L 54.271757 9.249201 
L 54.514205 9.53494 
L 54.756653 9.820679 
L 54.981789 10.158341 
L 55.206925 10.496003 
L 55.432061 10.833664 
L 55.657197 11.171326 
L 55.882333 11.508988 
L 56.107469 11.846649 
L 56.332605 12.184311 
L 56.557741 12.521973 
L 57.008013 12.833728 
L 57.458285 13.145483 
L 57.908557 13.457238 
L 58.358829 13.768993 
L 58.739813 14.054732 
L 59.120796 14.340471 
L 59.50178 14.62621 
L 59.882764 14.911949 
L 60.263748 15.197688 
L 60.644732 15.483427 
L 61.025715 15.769166 
L 61.406699 16.054905 
L 61.701123 16.522428 
L 61.995547 16.989951 
L 62.289972 17.457474 
L 62.584396 17.924997 
L 62.844196 18.39263 
L 63.103996 18.860262 
L 63.363796 19.327895 
L 63.623597 19.795527 
L 63.87468 20.029289 
L 64.125764 20.26305 
L 64.376848 20.496812 
L 64.627931 20.730574 
L 64.879015 20.964335 
L 65.130099 21.198097 
L 65.381183 21.431858 
L 65.632266 21.66562 
L 65.848766 22.003281 
L 66.065267 22.340943 
L 66.281767 22.678605 
L 66.498267 23.016266 
L 66.714767 23.353928 
L 66.931267 23.69159 
L 67.147768 24.029251 
L 67.364268 24.366913 
L 67.64134 24.695976 
L 67.918411 25.025038 
L 68.195483 25.354101 
L 68.472555 25.683163 
L 68.749627 26.012226 
L 69.026699 26.341289 
L 69.30377 26.670351 
L 69.580842 26.999414 
L 69.676118 27.484245 
L 69.771395 27.969075 
L 69.866671 28.453906 
L 69.961947 28.938736 
L 70.057223 29.423567 
L 70.1525 29.908398 
L 70.247776 30.393228 
L 70.343052 30.878059 
L 70.43393 31.442636 
L 70.524807 32.007213 
L 70.615685 32.57179 
L 70.706562 33.136366 
" style="fill:none;stroke:#008000;stroke-linecap:square;stroke-width:0.4;"/>
   </g>
   <g id="line2d_15">
    <path clip-path="url(#pc87e530aa6)" d="M 61.780863 17.249783 
L 61.517633 17.455447 
L 61.254403 17.661111 
L 60.991172 17.866776 
L 60.727942 18.07244 
L 60.464712 18.278104 
L 60.201481 18.483768 
L 59.938251 18.689432 
L 59.675021 18.895096 
L 59.501821 19.146165 
L 59.32862 19.397235 
L 59.15542 19.648304 
L 58.98222 19.899373 
L 58.80902 20.150442 
L 58.63582 20.401511 
L 58.46262 20.65258 
L 58.289419 20.903649 
L 58.194184 21.206696 
L 58.098948 21.509742 
L 58.003712 21.812789 
L 57.908476 22.115835 
L 57.81324 22.418882 
L 57.718004 22.721928 
L 57.622768 23.024975 
L 57.527533 23.328021 
" style="fill:none;stroke:#000000;stroke-dasharray:1.48,0.64;stroke-dashoffset:0;stroke-width:0.4;"/>
   </g>
   <g id="line2d_16">
    <path clip-path="url(#pc87e530aa6)" d="M 56.973228 23.604942 
L 56.64418 24.03796 
L 56.315132 24.470977 
L 55.986084 24.903995 
L 55.657036 25.337012 
L 55.483916 25.76992 
L 55.310797 26.202828 
L 55.137677 26.635736 
L 54.964558 27.068644 
L 54.774974 27.515573 
L 54.58539 27.962503 
L 54.395806 28.409432 
L 54.206222 28.856361 
L 54.197102 29.195666 
L 54.187982 29.534971 
L 54.178862 29.874276 
L 54.169742 30.21358 
L 54.160622 30.552885 
L 54.151502 30.89219 
L 54.142382 31.231495 
L 54.133262 31.570799 
L 54.11595 31.8825 
L 54.098638 32.1942 
L 54.081326 32.5059 
L 54.064014 32.817601 
L 54.046702 33.129301 
L 54.02939 33.441001 
L 54.012078 33.752702 
L 53.994766 34.064402 
" style="fill:none;stroke:#008000;stroke-linecap:square;stroke-width:0.4;"/>
   </g>
   <g id="line2d_17">
    <path clip-path="url(#pc87e530aa6)" d="M 51.673916 13.386474 
L 51.769193 13.776113 
L 51.864469 14.165752 
L 51.959745 14.555391 
L 52.055021 14.94503 
L 52.150298 15.334669 
L 52.245574 15.724308 
L 52.34085 16.113947 
L 52.436126 16.503587 
L 52.51405 16.849902 
L 52.591974 17.196217 
L 52.669898 17.542533 
L 52.747822 17.888848 
L 52.825746 18.235164 
L 52.90367 18.581479 
L 52.981594 18.927795 
L 53.059518 19.27411 
L 53.115771 19.659422 
L 53.172025 20.044734 
L 53.228279 20.430047 
L 53.284533 20.815359 
L 53.340786 21.200671 
L 53.39704 21.585983 
L 53.453294 21.971295 
L 53.509547 22.356607 
L 53.6135 22.694324 
L 53.717452 23.03204 
L 53.821405 23.369757 
L 53.925357 23.707473 
" style="fill:none;stroke:#ff0000;stroke-linecap:square;stroke-width:0.4;"/>
   </g>
   <g id="line2d_18">
    <path clip-path="url(#pc87e530aa6)" d="M 43.679915 15.743369 
L 43.211443 15.621887 
L 42.742971 15.500406 
L 42.274499 15.378924 
L 41.806028 15.257443 
L 41.337556 15.135961 
L 40.869084 15.01448 
L 40.400613 14.892998 
L 39.932141 14.771517 
L 39.503539 14.927394 
L 39.074938 15.083272 
L 38.646336 15.239149 
L 38.217734 15.395027 
L 37.789132 15.550904 
L 37.36053 15.706782 
L 36.931929 15.862659 
L 36.503327 16.018537 
L 36.122303 16.442791 
L 35.741279 16.867045 
L 35.360254 17.291299 
L 34.97923 17.715554 
L 34.442358 17.767476 
L 33.905486 17.819399 
L 33.481202 17.758823 
L 33.056918 17.698246 
L 32.632635 17.63767 
L 32.208351 17.577093 
L 31.801419 17.715663 
L 31.394488 17.854233 
L 30.987556 17.992803 
L 30.580625 18.131373 
L 30.346812 18.373788 
L 30.113 18.616204 
L 29.879188 18.858619 
L 29.645376 19.101034 
L 29.37694 19.378065 
L 29.108504 19.655095 
L 28.840068 19.932126 
L 28.571632 20.209156 
L 28.155984 20.235117 
L 27.740336 20.261079 
L 27.324688 20.28704 
L 26.90904 20.313001 
L 26.441415 20.642064 
L 25.973791 20.971127 
L 25.748696 21.248267 
L 25.5236 21.525407 
L 25.298504 21.802547 
L 25.073409 22.079687 
L 24.917561 22.339409 
L 24.761713 22.599132 
L 24.605865 22.858855 
L 24.450017 23.118578 
L 24.068912 23.37841 
L 23.687808 23.638243 
L 23.471348 23.854697 
L 23.254888 24.071151 
L 23.038428 24.287605 
L 22.821968 24.504059 
L 22.681697 24.986699 
L 22.541426 25.469338 
L 22.401155 25.951978 
L 22.260884 26.434618 
" style="fill:none;stroke:#008000;stroke-linecap:square;stroke-width:0.4;"/>
   </g>
   <g id="line2d_19">
    <path clip-path="url(#pc87e530aa6)" d="M 33.895156 21.139382 
L 33.582572 21.089596 
L 33.269989 21.039809 
L 32.957405 20.990023 
L 32.644822 20.940236 
L 32.332238 20.890449 
L 32.019655 20.840663 
L 31.707071 20.790876 
L 31.394488 20.74109 
L 31.04381 20.634068 
L 30.693132 20.527045 
L 30.342454 20.420023 
L 29.991776 20.313001 
L 29.714624 20.442918 
L 29.437471 20.572834 
L 29.160319 20.70275 
L 28.883166 20.832666 
L 28.458882 21.014505 
L 28.034599 21.196344 
L 27.610315 21.378183 
L 27.186031 21.560022 
L 26.882971 21.793783 
L 26.579911 22.027545 
L 26.276851 22.261306 
L 25.973791 22.495068 
L 25.679367 22.979899 
L 25.384943 23.464729 
L 25.038704 23.897637 
L 24.692465 24.330545 
L 24.467289 24.581724 
L 24.242113 24.832902 
L 24.016936 25.084081 
L 23.79176 25.33526 
L 23.696201 25.62182 
L 23.600642 25.908381 
L 23.514769 26.16646 
L 23.439428 26.49262 
L 23.364086 26.81878 
L 23.288745 27.14494 
L 23.213404 27.4711 
L 23.138063 27.797259 
L 23.062721 28.123419 
L 22.98738 28.449579 
L 22.912039 28.775739 
" style="fill:none;stroke:#4169e1;stroke-linecap:square;stroke-width:0.4;"/>
   </g>
   <g id="line2d_20">
    <path clip-path="url(#pc87e530aa6)" d="M 47.37894 31.569047 
L 47.534869 32.088492 
L 47.690797 32.607938 
L 47.846726 33.127384 
L 48.002654 33.64683 
L 48.106526 34.079738 
L 48.210398 34.512646 
L 48.314269 34.945554 
L 48.418141 35.378462 
L 48.522093 35.672909 
L 48.626046 35.967357 
" style="fill:none;stroke:#000000;stroke-linecap:square;stroke-width:0.4;"/>
   </g>
   <g id="line2d_21">
    <path clip-path="url(#pc87e530aa6)" d="M 66.117162 23.535712 
L 65.874714 24.003345 
L 65.632266 24.470977 
L 65.389818 24.93861 
L 65.14737 25.406243 
L 65.026147 25.821843 
L 64.904923 26.237443 
L 64.783699 26.653044 
L 64.662475 27.068644 
L 64.662475 27.501552 
L 64.662475 27.93446 
L 64.662475 28.367368 
L 64.662475 28.800276 
" style="fill:none;stroke:#000000;stroke-linecap:square;stroke-width:0.4;"/>
   </g>
   <g id="line2d_22">
    <path clip-path="url(#pc87e530aa6)" d="M 22.025215 34.997695 
L 22.094544 35.335302 
L 22.163872 35.672909 
L 22.233201 36.010516 
L 22.302529 36.348123 
L 22.415037 36.685839 
L 22.527544 37.023556 
L 22.640052 37.361272 
L 22.752559 37.698989 
L 22.908488 38.07132 
L 23.064416 38.443652 
L 23.220345 38.815983 
L 23.376273 39.188315 
L 23.575381 39.482653 
L 23.774488 39.776991 
L 23.973596 40.071329 
L 24.172703 40.365667 
L 24.363256 40.685966 
L 24.553808 41.006265 
L 24.744361 41.326564 
L 24.934913 41.646864 
L 25.107952 41.993453 
" style="fill:none;stroke:#000000;stroke-linecap:square;stroke-width:0.4;"/>
   </g>
   <g id="line2d_23">
    <path clip-path="url(#pc87e530aa6)" d="M 45.8203 17.232257 
L 45.915577 17.717142 
L 46.010853 18.202027 
L 46.106129 18.686913 
L 46.201405 19.171798 
L 46.296681 19.656684 
L 46.391958 20.141569 
L 46.487234 20.626454 
L 46.58251 21.11134 
L 46.686422 21.483671 
L 46.790334 21.856003 
L 46.894246 22.228334 
L 46.998158 22.600666 
L 47.10207 22.972997 
L 47.205982 23.345329 
L 47.309894 23.71766 
L 47.413806 24.089992 
L 47.552302 24.644162 
L 47.690797 25.198333 
L 47.829293 25.752503 
L 47.967788 26.306674 
" style="fill:none;stroke:#000000;stroke-linecap:square;stroke-width:0.4;"/>
   </g>
   <g id="line2d_24">
    <path clip-path="url(#pc87e530aa6)" d="M 39.395269 18.176066 
L 39.3646 18.014383 
L 39.461531 18.522546 
L 39.558461 19.030709 
L 39.655392 19.538872 
L 39.752323 20.047035 
L 39.849254 20.555198 
L 39.946184 21.063361 
L 40.043115 21.571524 
L 40.140046 22.079687 
L 40.244644 22.539761 
L 40.349242 22.999835 
L 40.45384 23.459909 
L 40.558438 23.919984 
L 40.663036 24.380058 
L 40.767634 24.840132 
L 40.872232 25.300206 
L 40.97683 25.760281 
L 41.104854 26.188807 
L 41.232877 26.617333 
L 41.360901 27.04586 
L 41.488925 27.474386 
L 41.616948 27.902912 
L 41.744972 28.331438 
L 41.872996 28.759965 
L 42.001019 29.188491 
L 42.129043 29.617017 
L 42.257066 30.045544 
L 42.38509 30.47407 
L 42.513114 30.902596 
L 42.641137 31.331123 
L 42.769161 31.759649 
L 42.897185 32.188175 
L 43.025208 32.616702 
L 43.088847 32.909999 
L 43.152485 33.203296 
L 43.216124 33.496594 
L 43.279763 33.789891 
L 43.343401 34.083188 
L 43.40704 34.376486 
L 43.470678 34.669783 
L 43.534317 34.96308 
L 43.638229 35.300742 
L 43.742141 35.638404 
L 43.846053 35.976065 
L 43.949965 36.313727 
L 44.053877 36.651388 
L 44.157789 36.98905 
L 44.261701 37.326712 
L 44.365613 37.664373 
L 44.473883 38.053958 
L 44.582153 38.443542 
L 44.690424 38.833126 
L 44.798694 39.222711 
L 44.906964 39.612295 
L 45.015234 40.001879 
L 45.123505 40.391464 
L 45.231775 40.781048 
L 45.383305 41.296221 
L 45.534835 41.811395 
L 45.686365 42.326569 
L 45.837895 42.841742 
L 45.989425 43.356916 
L 46.140955 43.87209 
L 46.292485 44.387263 
L 46.444015 44.902437 
L 46.56088 45.326636 
L 46.677746 45.750836 
L 46.794612 46.175035 
L 46.911477 46.599235 
L 47.028343 47.023434 
L 47.145209 47.447633 
L 47.262075 47.871833 
L 47.37894 48.296032 
" style="fill:none;stroke:#000000;stroke-linecap:square;stroke-width:0.4;"/>
   </g>
   <g id="line2d_25">
    <path clip-path="url(#pc87e530aa6)" d="M 31.32185 22.025792 
L 31.276815 22.331249 
L 31.23178 22.636705 
L 31.186744 22.942161 
L 31.141709 23.247618 
L 31.096674 23.553074 
L 31.051639 23.858531 
L 31.006603 24.163987 
L 30.961568 24.469444 
L 30.996192 24.802778 
L 31.030816 25.136113 
L 31.06544 25.469448 
L 31.100064 25.802783 
L 31.134687 26.136117 
L 31.169311 26.469452 
L 31.203935 26.802787 
L 31.238559 27.136122 
L 31.359783 27.491036 
L 31.481007 27.845951 
L 31.602231 28.200865 
L 31.723455 28.555779 
L 31.870667 28.954072 
L 32.017879 29.352365 
L 32.165091 29.750658 
L 32.312303 30.148951 
L 32.485503 30.478014 
L 32.658703 30.807076 
L 32.831904 31.136139 
L 33.005104 31.465201 
L 33.165269 31.776902 
L 33.325435 32.088602 
L 33.485601 32.400302 
L 33.645767 32.712003 
L 33.805932 33.023703 
L 33.966098 33.335403 
L 34.126264 33.647104 
L 34.28643 33.958804 
L 33.94011 34.426327 
L 33.593791 34.89385 
L 33.247471 35.361373 
L 32.901151 35.828896 
L 32.667339 36.04535 
L 32.433527 36.261804 
L 32.199715 36.478258 
L 31.965903 36.694712 
L 31.732091 36.963089 
L 31.498279 37.231465 
L 31.264466 37.499842 
L 31.030654 37.768219 
L 30.73623 38.166512 
L 30.441806 38.564804 
L 30.268687 38.937026 
L 30.095567 39.309248 
L 29.922448 39.68147 
L 29.749328 40.053692 
L 29.783872 40.607972 
L 29.818415 41.162252 
L 29.991615 41.681698 
L 30.164815 42.201144 
" style="fill:none;stroke:#000000;stroke-linecap:square;stroke-width:0.4;"/>
   </g>
   <g id="line2d_26">
    <path clip-path="url(#pc87e530aa6)" d="M 42.94902 16.39755 
L 43.061164 16.736855 
L 43.173308 17.07616 
L 43.285452 17.415465 
L 43.397597 17.754769 
L 43.509741 18.094074 
L 43.621885 18.433379 
L 43.73403 18.772684 
L 43.846174 19.111989 
L 43.958318 19.451293 
L 44.070462 19.790598 
L 44.182607 20.129903 
L 44.294751 20.469208 
L 44.406895 20.808512 
L 44.519039 21.147817 
L 44.631184 21.487122 
L 44.743328 21.826427 
L 44.821272 22.153298 
L 44.899216 22.48017 
L 44.97716 22.807042 
L 45.055104 23.133914 
L 45.133048 23.460786 
L 45.210993 23.787657 
L 45.288937 24.114529 
L 45.366881 24.441401 
L 45.444825 24.768273 
L 45.522769 25.095145 
L 45.600713 25.422017 
L 45.678657 25.748888 
L 45.756601 26.07576 
L 45.834545 26.402632 
L 45.912489 26.729504 
L 45.990434 27.056376 
L 46.189541 27.558514 
L 46.388649 28.060652 
L 46.587756 28.56279 
L 46.786864 29.064928 
L 47.029312 29.549978 
" style="fill:none;stroke:#000000;stroke-linecap:square;stroke-width:0.4;"/>
   </g>
   <g id="line2d_27">
    <path clip-path="url(#pc87e530aa6)" d="M 52.955565 35.865264 
L 52.955565 36.419325 
L 52.955565 36.973386 
L 52.955565 37.527447 
L 52.955565 38.081507 
L 52.998865 38.384554 
L 53.042165 38.6876 
L 53.085465 38.990647 
L 53.128765 39.293694 
L 53.172065 39.59674 
L 53.215365 39.899787 
L 53.258665 40.202833 
L 53.301966 40.50588 
L 53.310601 40.834888 
L 53.319237 41.163895 
L 53.327873 41.492903 
L 53.336509 41.821911 
L 53.345145 42.150919 
L 53.35378 42.479927 
L 53.362416 42.808935 
L 53.371052 43.137943 
L 53.411245 43.606013 
L 53.451437 44.074084 
L 53.49163 44.542155 
L 53.531823 45.010226 
L 53.578957 45.561877 
" style="fill:none;stroke:#4169e1;stroke-linecap:square;stroke-width:0.4;"/>
   </g>
   <g id="line2d_28">
    <path clip-path="url(#pc87e530aa6)" d="M 53.855948 35.518675 
L 54.174746 35.848395 
L 54.493544 36.178114 
L 54.895149 36.558004 
L 55.276173 36.696465 
L 55.657197 36.834925 
L 56.038221 36.973386 
L 56.419245 37.111846 
L 56.748293 37.233109 
L 57.077341 37.354371 
L 57.406389 37.475633 
L 57.735437 37.596896 
L 58.012509 37.873926 
L 58.289581 38.150957 
L 58.566653 38.427987 
L 58.843725 38.705018 
L 59.051468 39.224463 
L 59.259211 39.743909 
L 59.259211 40.211432 
L 59.259211 40.678955 
L 59.259211 41.146478 
L 59.259211 41.614001 
L 59.224587 41.960372 
L 59.189963 42.306742 
L 59.15534 42.653112 
L 59.120716 42.999482 
L 59.086172 43.345633 
L 59.051629 43.691784 
L 58.930405 44.21134 
L 58.809181 44.730895 
L 58.687957 45.25045 
L 58.566733 45.770005 
L 58.460925 46.249688 
L 58.355116 46.72937 
L 58.249307 47.209052 
L 58.143499 47.688734 
L 58.076107 48.109374 
L 58.008716 48.530013 
L 57.941324 48.950652 
L 57.873933 49.371291 
L 57.74488 49.840567 
L 57.615828 50.309843 
L 57.486775 50.779119 
L 57.357722 51.248394 
L 57.504046 51.627627 
L 57.650371 52.00686 
L 57.796695 52.386092 
L 57.943019 52.765325 
L 58.098948 53.250046 
L 58.254876 53.734767 
L 58.410805 54.219488 
L 58.566733 54.704209 
L 58.670605 54.998657 
L 58.774477 55.293104 
L 58.878348 55.587552 
L 58.98222 55.881999 
" style="fill:none;stroke:#008000;stroke-linecap:square;stroke-width:0.4;"/>
   </g>
   <g id="line2d_29">
    <path clip-path="url(#pc87e530aa6)" d="M 12.469345 28.427835 
L 12.710017 28.211381 
L 12.95069 27.994927 
L 13.191362 27.778473 
L 13.432034 27.562019 
L 13.878836 27.211267 
L 14.325637 26.860515 
L 14.614008 26.652277 
L 14.902379 26.444039 
L 15.19075 26.2358 
L 15.479121 26.027562 
L 15.769187 25.876066 
L 16.059253 25.72457 
L 16.349319 25.573074 
L 16.639385 25.421578 
L 16.929451 25.270082 
L 17.219517 25.118587 
L 17.509582 24.967091 
L 17.799648 24.815595 
L 18.146049 24.348072 
L 18.492449 23.880549 
L 19.029321 23.759286 
L 19.566193 23.638024 
L 20.103065 23.516761 
L 20.639937 23.395499 
L 20.891021 23.724562 
L 21.142104 24.053624 
L 21.393188 24.382687 
L 21.644272 24.711749 
L 21.80012 25.144657 
L 21.955967 25.577565 
L 22.111815 26.010473 
L 22.267663 26.443381 
L 22.33219 26.829734 
L 22.396716 27.216087 
L 22.461242 27.60244 
L 22.525769 27.988793 
L 22.590295 28.375146 
L 22.654821 28.761498 
L 22.719348 29.147851 
L 22.783874 29.534204 
" style="fill:none;stroke:#008000;stroke-linecap:square;stroke-width:0.4;"/>
   </g>
   <g id="line2d_30">
    <path clip-path="url(#pc87e530aa6)" d="M 62.584396 19.172017 
L 62.1861 19.518387 
L 61.787804 19.864758 
L 61.389508 20.211128 
L 60.991213 20.557498 
L 60.818012 21.094251 
L 60.644812 21.631005 
L 60.471612 22.167758 
L 60.298412 22.704511 
L 60.13409 23.259229 
L 59.969768 23.813947 
L 59.856937 24.194495 
L 59.744107 24.575042 
" style="fill:none;stroke:#4169e1;stroke-linecap:square;stroke-width:0.4;"/>
   </g>
   <g id="line2d_31">
    <path clip-path="url(#pc87e530aa6)" d="M 52.40126 35.482307 
L 52.028953 35.594916 
L 51.656645 35.707524 
L 51.284337 35.820133 
L 50.91203 35.932742 
L 50.548358 36.175157 
L 50.184686 36.417572 
L 49.821014 36.659987 
L 49.457342 36.902403 
L 49.491966 37.361272 
L 49.52659 37.820141 
L 49.561214 38.279011 
L 49.595838 38.73788 
L 49.595838 39.291941 
L 49.595838 39.846002 
L 49.595838 40.400063 
L 49.595838 40.954123 
L 49.491926 41.460643 
L 49.388013 41.967163 
L 49.284101 42.473683 
L 49.180189 42.980203 
L 49.076277 43.486723 
L 48.972365 43.993243 
L 48.868453 44.499762 
L 48.764541 45.006282 
L 48.799165 45.421883 
L 48.833789 45.837483 
L 48.868413 46.253083 
L 48.903037 46.668684 
L 49.128213 47.18813 
L 49.35339 47.707575 
L 49.578566 48.227021 
L 49.803742 48.746467 
" style="fill:none;stroke:#4169e1;stroke-linecap:square;stroke-width:0.4;"/>
   </g>
   <g id="line2d_32">
    <path clip-path="url(#pc87e530aa6)" d="M 54.063852 47.293509 
L 54.1262 47.709054 
L 54.188547 48.1246 
L 54.250894 48.540145 
L 54.313241 48.955691 
L 54.375589 49.371237 
L 54.437936 49.786782 
L 54.500283 50.202328 
L 54.56263 50.617874 
L 54.657866 50.956412 
L 54.753102 51.29495 
L 54.848338 51.633488 
L 54.943574 51.972026 
L 55.038809 52.310564 
L 55.134045 52.649101 
L 55.229281 52.987639 
L 55.324517 53.326177 
L 55.442351 53.861178 
L 55.560186 54.396179 
L 55.67802 54.931179 
L 55.795854 55.46618 
L 55.986326 56.002933 
L 56.176797 56.539687 
L 56.367269 57.07644 
L 56.557741 57.613193 
" style="fill:none;stroke:#008000;stroke-linecap:square;stroke-width:0.4;"/>
   </g>
   <g id="line2d_33">
    <path clip-path="url(#pc87e530aa6)" d="M 54.973274 32.636857 
L 55.245907 32.796569 
L 55.51854 32.95628 
L 55.743716 33.233311 
L 55.968893 33.510341 
L 56.194069 33.787371 
L 56.419245 34.064402 
L 56.696317 34.35874 
L 56.973389 34.653078 
L 57.250461 34.947416 
L 57.527533 35.241754 
L 57.746615 35.758625 
L 57.965698 36.275497 
L 58.184781 36.792368 
L 58.403864 37.30924 
L 58.622947 37.826111 
L 58.84203 38.342983 
L 59.061113 38.859854 
L 59.280195 39.376726 
" style="fill:none;stroke:#4169e1;stroke-linecap:square;stroke-width:0.4;"/>
   </g>
   <g id="line2d_34">
    <path clip-path="url(#pc87e530aa6)" d="M 42.876382 33.958804 
L 42.64257 34.144915 
L 42.408758 34.331026 
L 42.174946 34.517137 
L 41.941134 34.703248 
L 41.707321 34.889359 
L 41.473509 35.07547 
L 41.239697 35.261581 
L 41.005885 35.447692 
L 40.850037 35.828677 
L 40.694189 36.209662 
L 40.538342 36.590648 
L 40.382494 36.971633 
L 40.469094 37.274625 
L 40.555694 37.577617 
L 40.642294 37.880608 
L 40.728894 38.1836 
L 41.049306 38.374093 
L 41.369718 38.564585 
L 41.690131 38.755078 
L 42.010543 38.945571 
L 42.51271 39.110102 
L 43.014878 39.274633 
L 43.517045 39.439165 
L 44.019213 39.603696 
L 44.209765 39.837457 
L 44.400317 40.071219 
L 44.59087 40.304981 
L 44.781422 40.538742 
L 44.573598 40.824426 
L 44.365774 41.11011 
L 44.15795 41.395795 
L 43.950126 41.681479 
L 43.68169 42.001888 
L 43.413254 42.322297 
L 43.144818 42.642705 
L 42.876382 42.963114 
L 43.084125 43.430637 
L 43.291869 43.89816 
L 43.577617 44.084271 
L 43.863365 44.270382 
L 44.149113 44.456493 
L 44.434861 44.642604 
L 44.720609 44.828715 
L 45.006356 45.014826 
L 45.292104 45.200937 
L 45.577852 45.387048 
L 45.759769 45.638118 
L 45.941686 45.889187 
L 46.123602 46.140256 
L 46.305519 46.391325 
" style="fill:none;stroke:#4169e1;stroke-linecap:square;stroke-width:0.4;"/>
   </g>
   <g id="line2d_35">
    <path clip-path="url(#pc87e530aa6)" d="M 59.39803 25.752394 
L 59.32862 26.098545 
L 59.15542 26.444915 
L 58.98222 26.791285 
L 58.80902 27.137655 
L 58.63582 27.484026 
L 58.427996 27.847703 
L 58.220172 28.211381 
L 58.012348 28.575059 
L 57.804524 28.938736 
L 57.752628 29.319722 
L 57.700733 29.700707 
L 57.648837 30.081692 
L 57.596942 30.462678 
L 57.596942 30.912893 
L 57.596942 31.363109 
L 57.596942 31.813324 
L 57.596942 32.26354 
L 57.735437 32.713755 
L 57.873933 33.163971 
L 58.012428 33.614186 
L 58.150924 34.064402 
L 58.272148 34.42797 
L 58.393372 34.791538 
L 58.514596 35.155106 
L 58.63582 35.518675 
L 58.687796 35.904863 
L 58.739772 36.291052 
L 58.791748 36.67724 
L 58.843725 37.063429 
L 58.895701 37.449617 
L 58.947677 37.835806 
L 58.999653 38.221994 
L 59.051629 38.608183 
" style="fill:none;stroke:#008000;stroke-linecap:square;stroke-width:0.4;"/>
   </g>
   <g id="line2d_36">
    <path clip-path="url(#pc87e530aa6)" d="M 64.801293 30.046858 
L 64.662717 30.497074 
L 64.52414 30.947289 
L 64.385564 31.397505 
L 64.246988 31.84772 
L 64.00454 32.246013 
L 63.762092 32.644306 
L 63.519644 33.042599 
L 63.277196 33.440892 
L 63.000044 33.856492 
L 62.722891 34.272093 
L 62.445819 34.739616 
L 62.168748 35.207139 
L 61.891676 35.674662 
L 61.614604 36.142185 
L 61.49338 36.575093 
L 61.372156 37.008001 
L 61.250932 37.440909 
L 61.129708 37.873817 
L 60.904693 38.24582 
L 60.67185 38.630529 
L 60.439006 39.015239 
L 60.206162 39.399949 
L 59.973319 39.784658 
L 59.683899 40.262917 
L 59.394478 40.741175 
" style="fill:none;stroke:#4169e1;stroke-linecap:square;stroke-width:0.4;"/>
   </g>
   <g id="line2d_37">
    <path clip-path="url(#pc87e530aa6)" d="M 38.685358 38.11437 
L 38.490528 38.478048 
L 38.295698 38.841725 
L 38.100868 39.205403 
L 37.906038 39.569081 
L 37.711208 39.932759 
L 37.516378 40.296436 
L 37.321548 40.660114 
L 37.126718 41.023792 
L 37.109447 41.421975 
L 37.092175 41.820158 
L 37.074904 42.218342 
L 37.057632 42.616525 
L 37.005656 43.075394 
L 36.95368 43.534264 
L 36.901703 43.993133 
L 36.849727 44.452002 
" style="fill:none;stroke:#4169e1;stroke-linecap:square;stroke-width:0.4;"/>
   </g>
   <g id="line2d_38">
    <path clip-path="url(#pc87e530aa6)" d="M 48.175693 26.514364 
L 48.660589 26.306564 
L 49.145485 26.098764 
L 49.630381 25.890964 
L 50.115277 25.683163 
L 50.427053 25.492671 
L 50.738829 25.302178 
L 51.050606 25.111685 
L 51.362382 24.921193 
L 51.708702 24.782623 
L 52.055021 24.644053 
L 52.401341 24.505483 
L 52.74766 24.366913 
L 53.197932 24.17642 
L 53.648204 23.985928 
L 54.098476 23.795435 
L 54.548748 23.604942 
L 55.07529 23.342043 
L 55.435572 23.161956 
L 55.795854 22.98187 
" style="fill:none;stroke:#008000;stroke-linecap:square;stroke-width:0.4;"/>
   </g>
   <g id="line2d_39">
    <path clip-path="url(#pc87e530aa6)" d="M 56.28075 23.0511 
L 56.54051 23.198269 
L 56.80027 23.345438 
L 57.060029 23.492607 
L 57.319789 23.639776 
L 57.579549 23.786945 
L 57.839309 23.934114 
L 58.099069 24.081283 
L 58.358829 24.228452 
L 58.791748 24.505592 
L 59.224668 24.782732 
L 59.657588 25.059872 
L 60.090507 25.337012 
L 60.523508 25.56212 
L 60.956508 25.787228 
L 61.389508 26.012336 
L 61.822509 26.237443 
L 62.255428 26.635736 
L 62.688348 27.034029 
L 63.121268 27.432322 
L 63.554187 27.830615 
L 63.900588 28.246106 
L 64.246988 28.661597 
L 64.593388 29.077087 
L 64.939789 29.492578 
L 65.21686 29.856256 
L 65.493932 30.219934 
L 65.771004 30.583611 
L 66.048076 30.947289 
L 66.221276 31.276352 
L 66.394476 31.605415 
L 66.567676 31.934477 
L 66.740876 32.26354 
L 67.017948 32.644416 
L 67.29502 33.025291 
L 67.572092 33.406167 
L 67.849164 33.787043 
L 68.26691 33.896146 
L 68.684657 34.005249 
L 69.156397 34.038221 
L 69.628137 34.071193 
L 70.099878 34.104165 
L 70.571618 34.137137 
" style="fill:none;stroke:#008000;stroke-linecap:square;stroke-width:0.4;"/>
   </g>
   <g id="line2d_40">
    <path clip-path="url(#pc87e530aa6)" d="M 58.705229 41.475541 
L 58.462781 41.787186 
L 58.220333 42.098832 
L 57.977885 42.410478 
L 57.735437 42.722123 
L 57.466436 43.1122 
L 57.197435 43.502278 
L 56.928434 43.892355 
L 56.659433 44.282432 
L 56.834732 44.661446 
L 56.81395 44.993466 
L 56.793167 45.325486 
L 56.772385 45.657506 
L 56.751602 45.989527 
L 56.73082 46.321547 
L 56.710038 46.653567 
L 56.689255 46.985587 
L 56.668473 47.317608 
L 56.621702 47.653133 
L 56.574932 47.988659 
L 56.528161 48.324184 
L 56.481391 48.65971 
L 56.43462 48.995236 
L 56.38785 49.330761 
L 56.341079 49.666287 
L 56.294309 50.001812 
L 56.489139 50.244228 
L 56.683969 50.486643 
L 56.878799 50.729058 
L 57.073629 50.971474 
L 57.268459 51.213889 
L 57.463289 51.456304 
L 57.658119 51.69872 
L 57.852949 51.941135 
" style="fill:none;stroke:#008000;stroke-linecap:square;stroke-width:0.4;"/>
   </g>
   <g id="line2d_41">
    <path clip-path="url(#pc87e530aa6)" d="M 34.477224 20.914165 
L 34.545403 21.205628 
L 34.613581 21.49709 
L 34.681759 21.788553 
L 34.749938 22.080015 
L 34.818116 22.371478 
L 34.886295 22.66294 
L 34.954473 22.954403 
L 35.022651 23.245865 
L 35.09083 23.537328 
L 35.159008 23.82879 
L 35.227187 24.120253 
L 35.295365 24.411715 
L 35.363543 24.703178 
L 35.431722 24.99464 
L 35.4999 25.286103 
L 35.568078 25.577565 
L 35.702296 25.939052 
L 35.836514 26.300539 
L 35.970732 26.662026 
L 36.10495 27.023513 
L 36.239169 27.385 
L 36.373387 27.746487 
L 36.507605 28.107974 
L 36.641823 28.469461 
L 36.776041 28.830948 
L 36.910259 29.192435 
L 37.044477 29.553921 
L 37.178695 29.915408 
L 37.312913 30.276895 
L 37.447131 30.638382 
L 37.581349 30.999869 
L 37.715567 31.361356 
L 37.793491 31.729306 
L 37.871414 32.097256 
L 37.949338 32.465206 
L 38.027262 32.833156 
L 38.105186 33.201105 
L 38.18311 33.569055 
L 38.261034 33.937005 
L 38.338958 34.304955 
L 38.451546 34.815747 
L 38.564134 35.326539 
L 38.676722 35.837331 
L 38.789311 36.348123 
L 38.940841 36.672804 
L 39.092371 36.997485 
L 39.2439 37.322166 
L 39.39543 37.646847 
L 39.54696 37.971528 
L 39.69849 38.296209 
L 39.85002 38.62089 
L 40.00155 38.945571 
L 40.127092 39.24429 
L 40.252634 39.54301 
L 40.378176 39.84173 
L 40.503718 40.140449 
L 40.62926 40.439169 
L 40.754801 40.737889 
L 40.880343 41.036608 
L 41.005885 41.335328 
L 41.109797 41.629666 
L 41.213709 41.924004 
L 41.317621 42.218342 
L 41.421533 42.51268 
L 41.525445 42.807018 
L 41.629357 43.101356 
L 41.733269 43.395694 
L 41.837181 43.690032 
L 41.988711 43.980098 
L 42.140241 44.270163 
L 42.291771 44.560229 
L 42.443301 44.850295 
L 42.594831 45.140361 
L 42.746361 45.430427 
L 42.897891 45.720493 
L 43.049421 46.010559 
L 43.187997 46.348165 
L 43.326573 46.685772 
L 43.46515 47.023379 
L 43.603726 47.360986 
" style="fill:none;stroke:#ff0000;stroke-linecap:square;stroke-width:0.4;"/>
   </g>
   <g id="line2d_42">
    <path clip-path="url(#pc87e530aa6)" d="M 40.00155 47.880651 
L 40.365222 48.313559 
L 40.728894 48.746467 
L 41.092566 49.179375 
L 41.456238 49.612283 
L 41.741986 49.707474 
L 42.027734 49.802666 
L 42.313482 49.897857 
L 42.59923 49.993049 
L 42.884978 50.088241 
L 43.170726 50.183432 
L 43.456473 50.278624 
L 43.742221 50.373815 
L 44.010657 50.53402 
L 44.279093 50.694224 
L 44.547529 50.854428 
L 44.815965 51.014633 
L 45.084401 51.174837 
L 45.352837 51.335042 
L 45.621274 51.495246 
L 45.88971 51.655451 
L 46.12784 51.832908 
L 46.36597 52.010365 
L 46.6041 52.187822 
L 46.84223 52.365279 
L 47.08036 52.542737 
L 47.31849 52.720194 
L 47.55662 52.897651 
L 47.79475 53.075108 
L 48.058868 53.282909 
L 48.322986 53.490709 
L 48.587104 53.698509 
L 48.851222 53.906309 
L 49.11534 54.114109 
L 49.379458 54.32191 
L 49.643577 54.52971 
L 49.907695 54.73751 
L 50.210755 55.083771 
L 50.513814 55.430031 
L 50.816874 55.776292 
L 51.119934 56.122553 
L 51.353666 56.460159 
L 51.587397 56.797766 
L 51.821128 57.135373 
L 52.05486 57.47298 
L 52.31466 57.715395 
L 52.57446 57.957811 
L 52.834261 58.200226 
L 53.094061 58.442641 
L 53.310521 58.69371 
L 53.52698 58.94478 
L 53.74344 59.195849 
L 53.9599 59.446918 
" style="fill:none;stroke:#008000;stroke-linecap:square;stroke-width:0.4;"/>
   </g>
   <g id="line2d_43">
    <path clip-path="url(#pc87e530aa6)" d="M 48.626046 8.329601 
L 48.660589 7.844551 
L 48.695132 7.359501 
L 48.833789 6.822748 
L 48.972446 6.285995 
L 49.336118 6.04347 
L 49.69979 5.800945 
L 49.942238 5.524024 
L 50.184686 5.247103 
L 50.063462 4.744746 
L 49.942238 4.242389 
L 49.87299 3.896018 
L 49.803742 3.549648 
L 50.150062 3.480418 
L 50.496381 3.411188 
L 50.842701 3.341957 
L 51.189021 3.272727 
L 51.630657 3.341957 
L 52.072293 3.411188 
L 52.513929 3.480418 
L 52.955565 3.549648 
L 53.267261 3.809481 
L 53.578957 4.069313 
L 53.890652 4.329145 
L 54.202348 4.588978 
L 54.384184 4.935348 
L 54.56602 5.281718 
L 54.747856 5.628088 
L 54.929692 5.974459 
L 55.050916 6.268797 
L 55.17214 6.563135 
L 55.293364 6.857473 
L 55.414588 7.151811 
L 55.624268 7.623715 
L 55.833948 8.09562 
L 56.04952 8.301339 
L 56.265092 8.507058 
L 56.480664 8.712777 
L 56.696236 8.918496 
L 56.964672 9.100335 
L 57.233108 9.282173 
L 57.501544 9.464012 
L 57.76998 9.645851 
L 58.228888 9.888266 
L 58.687796 10.130682 
L 59.146704 10.373097 
L 59.605611 10.615512 
L 59.761459 11.005151 
L 59.917307 11.394791 
L 60.073155 11.78443 
L 60.229003 12.174069 
L 60.428191 12.520439 
L 60.627379 12.866809 
L 60.826568 13.213179 
L 61.025756 13.559549 
L 61.207592 13.810619 
L 61.389428 14.061688 
L 61.571264 14.312757 
L 61.7531 14.563826 
L 62.012819 15.031349 
L 62.272539 15.498872 
L 62.218868 15.861235 
L 62.165196 16.223599 
L 62.111525 16.585962 
L 62.057854 16.948325 
" style="fill:none;stroke:#008000;stroke-linecap:square;stroke-width:0.4;"/>
   </g>
   <g id="line2d_44">
    <path clip-path="url(#pc87e530aa6)" d="M 10.075858 30.282591 
L 9.785792 30.465033 
L 9.495726 30.647474 
L 9.20566 30.829916 
L 8.915595 31.012357 
L 8.625529 31.194798 
L 8.335463 31.37724 
L 8.045397 31.559681 
L 7.755331 31.742122 
L 7.417567 32.071185 
L 7.079802 32.400248 
L 6.742038 32.72931 
L 6.404273 33.058373 
L 6.10993 33.39598 
L 5.815586 33.733587 
L 5.521243 34.071193 
L 5.2269 34.4088 
L 5.044983 34.703248 
L 4.863066 34.997695 
L 4.68115 35.292143 
L 4.499233 35.58659 
L 4.317397 35.984774 
L 4.135561 36.382957 
L 3.953725 36.78114 
L 3.771889 37.179324 
L 3.806594 37.612232 
L 3.841298 38.04514 
L 3.876003 38.478048 
L 3.910708 38.910956 
L 4.075191 39.309248 
L 4.239675 39.707541 
L 4.404158 40.105834 
L 4.568642 40.504127 
L 4.819726 40.83308 
L 5.07081 41.162033 
L 5.321893 41.490986 
L 5.572977 41.819939 
L 5.979989 42.114387 
L 6.387002 42.408834 
L 6.794014 42.703282 
L 7.201026 42.997729 
L 7.482456 43.127591 
L 7.763886 43.257452 
L 8.045316 43.387314 
L 8.326746 43.517175 
L 8.608176 43.647037 
L 8.889606 43.776898 
L 9.171036 43.90676 
L 9.452467 44.036621 
L 9.937362 44.192389 
L 10.422258 44.348157 
L 10.907154 44.503925 
L 11.39205 44.659693 
L 11.920205 44.729033 
L 12.448361 44.798372 
L 12.976516 44.867712 
L 13.504672 44.937052 
L 13.846714 44.850459 
L 14.188756 44.763867 
L 14.530798 44.677274 
L 14.87284 44.590682 
L 15.214882 44.504089 
L 15.556924 44.417497 
L 15.898966 44.330904 
L 16.241008 44.244312 
L 16.596892 44.134989 
L 16.952775 44.025667 
L 17.308659 43.916344 
L 17.664542 43.807022 
L 18.020426 43.6977 
L 18.376309 43.588377 
L 18.732193 43.479055 
L 19.088077 43.369732 
" style="fill:none;stroke:#4169e1;stroke-linecap:square;stroke-width:0.4;"/>
   </g>
   <g id="line2d_45">
    <path clip-path="url(#pc87e530aa6)" d="M 56.419245 11.723634 
L 56.419245 11.308034 
L 56.419245 10.892433 
L 56.852165 11.031113 
L 57.285085 11.169792 
L 57.588145 11.342977 
L 57.891204 11.516163 
L 58.194264 11.689348 
L 58.497324 11.862533 
L 58.705068 12.260826 
L 58.912811 12.659118 
L 59.241859 12.884226 
L 59.570907 13.109334 
L 59.899955 13.334442 
L 60.229003 13.559549 
L 60.384931 13.810619 
L 60.54086 14.061688 
L 60.696789 14.312757 
L 60.852717 14.563826 
L 60.954006 14.939225 
L 61.055295 15.314623 
L 61.156584 15.690022 
L 61.257873 16.065421 
" style="fill:none;stroke:#008000;stroke-linecap:square;stroke-width:0.4;"/>
   </g>
   <g id="line2d_46">
    <path clip-path="url(#pc87e530aa6)" d="M 9.736237 30.690962 
L 9.405494 31.092322 
L 9.074751 31.493682 
L 8.744009 31.895042 
L 8.413266 32.296402 
L 8.066865 32.66008 
L 7.720465 33.023758 
L 7.469381 33.274827 
L 7.218298 33.525896 
L 6.967214 33.776965 
L 6.71613 34.028034 
L 6.655518 34.322372 
L 6.594906 34.61671 
L 6.534294 34.911048 
L 6.473682 35.205386 
L 6.664154 35.707524 
L 6.854626 36.209662 
L 7.226933 36.313617 
L 7.599241 36.417572 
L 7.971549 36.521527 
L 8.343856 36.625482 
L 8.837469 36.815975 
L 9.331081 37.006467 
L 9.824694 37.19696 
L 10.318306 37.387453 
L 10.638718 37.499952 
L 10.95913 37.612451 
L 11.279542 37.72495 
L 11.599955 37.837449 
L 12.032874 37.612451 
L 12.465794 37.387453 
" style="fill:none;stroke:#4169e1;stroke-linecap:square;stroke-width:0.4;"/>
   </g>
   <g id="line2d_47">
    <path clip-path="url(#pc87e530aa6)" d="M 9.538986 30.704983 
L 9.66368 31.20504 
L 9.788375 31.705097 
L 9.913069 32.205154 
L 10.037764 32.705211 
L 10.236952 33.02551 
L 10.43614 33.34581 
L 10.635328 33.666109 
L 10.834517 33.986408 
L 10.990364 34.332779 
L 11.146212 34.679149 
L 11.30206 35.025519 
L 11.457908 35.371889 
L 11.786956 35.657573 
L 12.116004 35.943258 
L 12.445052 36.228942 
L 12.7741 36.514626 
L 13.111784 36.679157 
L 13.449467 36.843689 
L 13.787151 37.00822 
L 14.124835 37.172751 
L 14.315388 37.544973 
L 14.50594 37.917195 
L 14.696492 38.289417 
L 14.887045 38.661639 
L 15.02554 39.224463 
L 15.164036 39.787287 
L 15.302531 40.350112 
L 15.441027 40.912936 
L 15.570968 41.250543 
L 15.700908 41.58815 
L 15.830848 41.925756 
L 15.960789 42.263363 
L 16.22184 42.412942 
L 16.482891 42.562521 
L 16.743942 42.7121 
L 17.004994 42.861679 
L 17.266045 43.011258 
L 17.527096 43.160837 
L 17.788147 43.310416 
L 18.049198 43.459995 
" style="fill:none;stroke:#000000;stroke-linecap:square;stroke-width:0.4;"/>
   </g>
   <g id="line2d_48">
    <path clip-path="url(#pc87e530aa6)" d="M 19.185249 44.105851 
L 19.574909 44.209696 
L 19.964569 44.313542 
L 20.354229 44.417387 
L 20.743889 44.521232 
L 21.194161 44.547194 
L 21.644433 44.573155 
L 22.094705 44.599116 
L 22.544977 44.625078 
L 23.125109 44.573155 
L 23.705241 44.521232 
L 24.285372 44.46931 
L 24.865504 44.417387 
L 25.281152 44.408733 
L 25.6968 44.40008 
L 26.112448 44.391426 
L 26.528096 44.382772 
L 27.08224 44.200933 
L 27.636383 44.019094 
L 28.190527 43.837255 
L 28.744671 43.655417 
L 29.238283 43.612148 
L 29.731895 43.568879 
L 30.225508 43.52561 
L 30.71912 43.482341 
" style="fill:none;stroke:#4169e1;stroke-dasharray:1.48,0.64;stroke-dashoffset:0;stroke-width:0.4;"/>
   </g>
   <g id="line2d_49">
    <path clip-path="url(#pc87e530aa6)" d="M 43.811631 15.708315 
L 41.525647 17.371155 
L 39.037247 18.193702 
L 32.026676 21.925288 
L 29.541424 22.28913 
L 27.186031 23.813071 
L 25.515004 26.523128 
L 23.272321 28.92121 
L 22.544977 30.116088 
L 21.964644 32.540296 
L 20.812976 35.934494 
L 19.297636 37.977826 
L 17.903601 40.64434 
L 17.695696 42.652893 
L 18.734897 43.484094 
L 25.315857 42.722123 
L 29.524071 42.652893 
L 31.965903 42.860584 
L 36.113546 44.687516 
L 39.343374 46.453709 
L 42.824487 47.535924 
L 45.664614 48.202648 
L 49.180109 49.406016 
L 51.362382 49.925571 
L 51.362382 49.925571 
" style="fill:none;stroke:#008000;stroke-linecap:square;stroke-width:0.4;"/>
   </g>
   <g id="line2d_50">
    <path clip-path="url(#pc87e530aa6)" d="M 9.012445 36.779278 
L 8.980847 37.102042 
L 8.94925 37.424806 
L 8.917653 37.74757 
L 8.886055 38.070334 
L 8.854458 38.393098 
L 8.822861 38.715862 
L 8.791263 39.038626 
L 8.759666 39.36139 
L 8.725042 39.698997 
L 8.690418 40.036604 
L 8.655794 40.374211 
L 8.62117 40.711818 
L 8.569194 41.283186 
L 8.517218 41.854554 
L 8.529647 42.240798 
L 8.542076 42.627041 
L 8.659668 42.969468 
L 8.77726 43.311894 
L 8.894852 43.654321 
L 9.012445 43.996748 
" style="fill:none;stroke:#008000;stroke-linecap:square;stroke-width:0.4;"/>
   </g>
   <g id="line2d_51">
    <path clip-path="url(#pc87e530aa6)" d="M 18.457906 44.278927 
L 18.674365 44.590572 
L 18.890825 44.902218 
L 19.107285 45.213863 
L 19.323745 45.525509 
L 19.800005 45.629464 
L 20.276265 45.733419 
L 20.752525 45.837373 
L 21.228785 45.941328 
L 21.609729 46.027866 
L 21.990672 46.114404 
L 22.371616 46.200942 
L 22.752559 46.287479 
L 23.168207 46.382781 
L 23.583855 46.478082 
L 23.999503 46.573383 
L 24.415151 46.668684 
L 24.87414 46.582037 
L 25.333128 46.495389 
L 25.792117 46.408742 
L 26.251105 46.322095 
L 26.523859 46.122948 
L 26.796613 45.923802 
L 27.069367 45.724655 
L 27.342121 45.525509 
L 27.614875 45.326362 
L 27.887629 45.127216 
L 28.160382 44.92807 
L 28.433136 44.728923 
L 28.77082 44.633732 
L 29.108504 44.53854 
L 29.446188 44.443348 
L 29.783872 44.348157 
L 30.335917 44.230728 
L 30.887962 44.1133 
L 31.411921 44.002006 
" style="fill:none;stroke:#008000;stroke-linecap:square;stroke-width:0.4;"/>
   </g>
   <g id="line2d_52">
    <path clip-path="url(#pc87e530aa6)" d="M 56.659433 44.282432 
L 56.445072 44.514879 
L 56.230711 44.747326 
L 56.016349 44.979773 
L 55.801988 45.21222 
L 55.487064 45.525728 
L 55.17214 45.839236 
L 54.791196 46.081651 
L 54.410253 46.324066 
L 54.029309 46.566482 
L 53.648366 46.808897 
" style="fill:none;stroke:#008000;stroke-linecap:square;stroke-width:0.4;"/>
   </g>
  </g>
 </g>
 <defs>
  <clipPath id="pc87e530aa6">
   <rect height="72" width="82.981562" x="0" y="0"/>
  </clipPath>
 </defs>
</svg>
