<?xml version="1.0" encoding="utf-8" standalone="no"?>
<!DOCTYPE svg PUBLIC "-//W3C//DTD SVG 1.1//EN"
  "http://www.w3.org/Graphics/SVG/1.1/DTD/svg11.dtd">
<svg height="72pt" version="1.1" viewBox="0 0 61.351367 72" width="61.351367pt" xmlns="http://www.w3.org/2000/svg" xmlns:xlink="http://www.w3.org/1999/xlink">
 <metadata>
  <rdf:RDF xmlns:cc="http://creativecommons.org/ns#" xmlns:dc="http://purl.org/dc/elements/1.1/" xmlns:rdf="http://www.w3.org/1999/02/22-rdf-syntax-ns#">
   <cc:Work>
    <dc:type rdf:resource="http://purl.org/dc/dcmitype/StillImage"/>
    <dc:date>2022-04-19T00:44:30.264795</dc:date>
    <dc:format>image/svg+xml</dc:format>
    <dc:creator>
     <cc:Agent>
      <dc:title>Matplotlib v3.4.3, https://matplotlib.org/</dc:title>
     </cc:Agent>
    </dc:creator>
   </cc:Work>
  </rdf:RDF>
 </metadata>
 <defs>
  <style type="text/css">*{stroke-linecap:butt;stroke-linejoin:round;}</style>
 </defs>
 <g id="figure_1">
  <g id="patch_1">
   <path d="M 0 72 
L 61.351367 72 
L 61.351367 0 
L 0 0 
z
" style="fill:#ffffff;"/>
  </g>
  <g id="axes_1">
   <g id="line2d_1">
    <path clip-path="url(#p3c72bbb412)" d="M 56.586598 64.162483 
L 56.214339 63.705675 
L 55.84208 63.248867 
L 55.482661 62.806869 
L 55.123241 62.364871 
L 54.631696 61.760401 
L 54.140151 61.155931 
L 53.685302 60.596659 
L 53.230454 60.037387 
L 52.997434 59.750401 
L 52.639923 59.311146 
L 52.282412 58.87189 
L 51.914491 58.41958 
L 51.54657 57.96727 
L 51.006182 57.302901 
L 50.465795 56.638533 
L 49.991427 56.055455 
L 49.517059 55.472378 
L 49.109752 54.971688 
L 48.702444 54.470998 
L 48.285854 53.958899 
L 47.869264 53.4468 
L 47.482777 52.971562 
L 47.096291 52.496324 
L 46.597719 51.883077 
L 46.099147 51.269831 
" style="fill:none;stroke:#808080;stroke-linecap:square;stroke-width:0.4;"/>
   </g>
   <g id="line2d_2">
    <path clip-path="url(#p3c72bbb412)" d="M 43.984097 50.477548 
L 43.183363 49.914217 
L 42.382629 49.350886 
L 41.722088 48.886069 
L 41.061547 48.421253 
L 40.322147 47.900816 
L 39.582748 47.38038 
L 39.169888 47.089829 
L 38.757028 46.799277 
L 38.344168 46.508726 
L 37.931309 46.218174 
L 37.472903 45.895534 
L 37.014498 45.572894 
L 36.556093 45.250254 
L 36.097688 44.927614 
L 35.4106 44.444039 
L 34.723513 43.960463 
L 34.121617 43.536895 
L 33.519722 43.113327 
L 33.084784 42.807198 
L 32.649845 42.501068 
L 32.214907 42.194939 
L 31.779968 41.888809 
L 31.329805 41.571984 
L 30.879641 41.255158 
L 30.429477 40.938333 
L 29.979314 40.621507 
L 29.417021 40.225749 
L 28.854728 39.829991 
L 28.292436 39.434234 
L 27.730143 39.038476 
L 27.177003 38.649191 
L 26.623863 38.259906 
L 26.070723 37.87062 
L 25.517583 37.481335 
L 25.060349 37.159463 
L 24.603115 36.837591 
L 24.145881 36.515719 
L 23.688647 36.193847 
L 23.083672 35.768085 
L 22.478697 35.342324 
L 21.873721 34.916562 
L 21.268746 34.4908 
L 20.715476 34.10135 
L 20.162206 33.7119 
L 19.608936 33.322451 
L 19.055665 32.933001 
L 18.456156 32.511024 
L 17.856646 32.089047 
L 17.257136 31.66707 
L 16.657626 31.245093 
L 16.013656 30.79185 
L 15.369685 30.338607 
L 14.725714 29.885365 
L 14.081743 29.432122 
L 13.497849 29.021115 
L 12.913955 28.610109 
L 12.33006 28.199102 
L 11.746166 27.788095 
L 11.16353 27.378021 
L 10.580894 26.967947 
L 9.998258 26.557873 
L 9.415621 26.147799 
L 8.797807 25.712932 
L 8.179992 25.278064 
L 7.562177 24.843197 
L 6.944363 24.40833 
L 6.404322 24.02815 
L 5.864282 23.64797 
L 5.324242 23.267791 
L 4.784201 22.887611 
L 4.285586 22.536612 
L 3.786971 22.185614 
L 3.288355 21.834616 
L 2.78974 21.483617 
" style="fill:none;stroke:#808080;stroke-linecap:square;stroke-width:0.4;"/>
   </g>
   <g id="line2d_3">
    <path clip-path="url(#p3c72bbb412)" d="M 25.185491 29.347869 
L 24.744437 29.184191 
L 24.450516 29.074486 
L 23.654293 28.777846 
L 23.114426 28.576704 
L 22.574559 28.375561 
L 22.034692 28.174419 
L 21.494826 27.973276 
L 21.027311 27.799121 
L 20.559797 27.624965 
L 20.092282 27.45081 
L 19.624768 27.276655 
L 18.760096 26.954454 
L 17.895425 26.632252 
L 17.068404 26.324094 
L 16.241383 26.015935 
L 15.509358 25.74321 
L 14.777332 25.470485 
L 14.162771 25.241423 
L 13.548209 25.012361 
L 12.814448 24.738978 
L 12.080688 24.465595 
L 11.375295 24.202744 
L 10.669903 23.939893 
L 10.108868 23.730907 
L 9.547834 23.52192 
L 8.94108 23.29582 
L 8.334326 23.06972 
L 7.627503 22.806375 
L 6.920679 22.54303 
L 6.213855 22.279685 
L 5.507031 22.01634 
L 5.015833 21.833244 
L 4.524635 21.650148 
" style="fill:none;stroke:#808080;stroke-linecap:square;stroke-width:0.4;"/>
   </g>
   <g id="line2d_4">
    <path clip-path="url(#p3c72bbb412)" d="M 44.647588 50.045313 
L 44.184498 49.289671 
L 43.870797 48.776256 
L 43.557097 48.26284 
L 43.263176 47.781787 
L 42.969255 47.300735 
L 42.649569 46.777556 
L 42.329882 46.254377 
L 41.961354 45.651223 
L 41.579118 45.025471 
L 41.191764 44.391381 
L 40.80441 43.757291 
L 40.38461 43.070323 
L 39.96481 42.383356 
L 39.618577 41.816624 
L 39.272344 41.249892 
L 38.904249 40.647397 
L 38.536154 40.044902 
L 38.111843 39.350255 
L 37.687532 38.655608 
L 37.392223 38.172362 
L 37.096914 37.689115 
L 36.772716 37.158476 
L 36.448519 36.627837 
L 36.072182 36.011848 
L 35.695846 35.395859 
L 35.241865 34.652723 
L 34.787884 33.909587 
L 34.404434 33.28197 
L 34.020983 32.654352 
L 33.603613 31.971005 
L 33.186242 31.287658 
" style="fill:none;stroke:#808080;stroke-linecap:square;stroke-width:0.4;"/>
   </g>
   <g id="line2d_5">
    <path clip-path="url(#p3c72bbb412)" d="M 45.832119 50.005381 
L 45.559887 49.609788 
" style="fill:none;stroke:#808080;stroke-linecap:square;stroke-width:0.4;"/>
   </g>
   <g id="line2d_6">
    <path clip-path="url(#p3c72bbb412)" d="M 32.752127 31.655167 
L 32.666762 31.201211 
L 32.552855 30.585113 
L 32.438947 29.969014 
L 32.411707 29.821572 
L 32.272641 29.068782 
L 32.133575 28.315992 
L 31.980369 27.487067 
L 31.827162 26.658143 
L 31.771987 26.359309 
L 31.606635 25.464561 
L 31.536191 25.082572 
" style="fill:none;stroke:#808080;stroke-linecap:square;stroke-width:0.4;"/>
   </g>
   <g id="line2d_7">
    <path clip-path="url(#p3c72bbb412)" d="M 31.2853 23.578966 
L 31.176164 22.983163 
L 31.067028 22.38736 
L 30.972771 21.870708 
L 30.878513 21.354056 
L 30.784255 20.837405 
L 30.689998 20.320753 
L 30.577999 19.706903 
L 30.466 19.093054 
L 30.354002 18.479204 
L 30.242003 17.865355 
L 30.14228 17.318809 
L 30.042557 16.772262 
L 29.942834 16.225716 
L 29.843111 15.67917 
L 29.749157 15.164109 
L 29.655203 14.649048 
L 29.561249 14.133987 
L 29.467295 13.618926 
L 29.370261 13.08708 
L 29.273227 12.555235 
L 29.176193 12.023389 
L 29.07916 11.491543 
L 28.985336 10.97725 
L 28.891512 10.462957 
L 28.797688 9.948664 
L 28.703864 9.434371 
L 28.603837 8.88596 
L 28.503811 8.337549 
L 28.403784 7.789138 
L 28.303757 7.240727 
L 28.207157 6.711294 
L 28.110557 6.181862 
L 28.013957 5.65243 
L 27.917357 5.122998 
L 27.773173 4.331592 
L 27.628989 3.540186 
" style="fill:none;stroke:#808080;stroke-linecap:square;stroke-width:0.4;"/>
   </g>
   <g id="line2d_8">
    <path clip-path="url(#p3c72bbb412)" d="M 45.496557 50.638813 
L 44.863647 51.159853 
L 43.97488 52.518347 
L 43.872511 52.802124 
L 43.579306 54.025709 
L 43.179069 54.621183 
L 43.011461 55.849431 
L 42.647704 57.453854 
L 41.292007 59.296308 
L 40.403218 60.343462 
L 40.043452 60.86527 
L 37.842647 65.145432 
L 37.504048 66.153723 
L 36.855045 67.429911 
L 36.516533 68.388945 
L 36.855045 68.727273 
L 37.9556 67.288832 
L 40.494873 66.330018 
L 41.087399 65.751657 
L 41.842241 65.34279 
L 42.872092 64.933758 
L 43.231858 64.806885 
L 44.70606 64.073622 
L 45.108162 63.847961 
L 45.348035 63.678687 
L 46.681175 63.996062 
L 47.582284 64.153487 
L 48.208297 64.233352 
L 48.208297 64.233352 
" style="fill:none;stroke:#4169e1;stroke-linecap:square;stroke-width:0.4;"/>
   </g>
   <g id="line2d_9">
    <path clip-path="url(#p3c72bbb412)" d="M 48.208297 64.233352 
L 48.297739 64.094137 
L 48.387182 63.954923 
L 48.476625 63.815708 
L 48.566068 63.676493 
L 48.655511 63.537279 
L 48.744953 63.398064 
L 48.834396 63.25885 
L 48.923839 63.119635 
L 49.096045 62.942847 
L 49.26825 62.766059 
L 49.440456 62.58927 
L 49.612662 62.412482 
L 49.775541 62.347318 
L 49.938421 62.282154 
L 50.1013 62.216989 
L 50.26418 62.151825 
L 50.399125 62.068121 
L 50.53407 61.984417 
L 50.669015 61.900712 
L 50.80396 61.817008 
L 50.953783 61.730671 
L 51.103606 61.644334 
" style="fill:none;stroke:#008000;stroke-linecap:square;stroke-width:0.4;"/>
   </g>
   <g id="line2d_10">
    <path clip-path="url(#p3c72bbb412)" d="M 51.103606 61.644334 
L 51.312552 61.577579 
L 51.521498 61.510824 
L 51.730443 61.444069 
L 51.939389 61.377314 
L 52.215352 61.30074 
L 52.491315 61.224167 
L 52.675319 61.231846 
L 52.859323 61.239525 
L 53.043327 61.247205 
L 53.227331 61.254884 
L 53.411292 61.247205 
L 53.595252 61.239525 
L 53.779213 61.231846 
L 53.963174 61.224167 
L 54.241652 61.19323 
L 54.515099 61.162952 
L 54.75276 61.216542 
L 54.990421 61.270133 
L 55.228083 61.323723 
L 55.465744 61.377314 
L 55.676424 61.446866 
L 55.887105 61.516419 
L 56.097786 61.585971 
L 56.308467 61.655523 
L 56.450395 61.700941 
L 56.592324 61.746359 
L 56.734253 61.791776 
L 56.876181 61.837194 
L 57.029475 61.944484 
L 57.182768 62.051775 
L 57.336061 62.159066 
L 57.489355 62.266356 
L 57.550689 62.411934 
L 57.612024 62.557511 
L 57.673359 62.703088 
L 57.734694 62.848666 
L 57.887987 63.093855 
L 58.04128 63.339043 
L 58.301974 63.446334 
L 58.562668 63.553625 
" style="fill:none;stroke:#008000;stroke-linecap:square;stroke-width:0.4;"/>
   </g>
   <g id="line2d_11">
    <path clip-path="url(#p3c72bbb412)" d="M 46.900401 47.725948 
L 47.042721 47.553137 
L 47.18504 47.380325 
L 47.327359 47.207514 
L 47.469678 47.034702 
L 47.611997 46.861891 
L 47.754316 46.689079 
L 47.896635 46.516268 
L 48.038954 46.343456 
L 48.231156 46.2179 
L 48.423358 46.092343 
L 48.615561 45.966787 
L 48.807763 45.841231 
L 49.005648 45.807003 
L 49.203532 45.772775 
L 49.401417 45.738548 
L 49.599301 45.70432 
L 49.799095 45.763286 
L 49.998888 45.822252 
L 50.198681 45.881218 
L 50.398474 45.940184 
L 50.530708 46.089519 
L 50.662942 46.238853 
L 50.795176 46.388188 
L 50.92741 46.537523 
L 51.059644 46.686858 
L 51.191878 46.836192 
L 51.324112 46.985527 
L 51.456346 47.134862 
L 51.640914 47.332686 
L 51.825482 47.53051 
L 52.01005 47.728334 
L 52.194618 47.926158 
L 52.379186 48.123982 
L 52.563754 48.321806 
L 52.748322 48.51963 
L 52.93289 48.717454 
L 53.058465 48.874386 
L 53.184041 49.031318 
L 53.309617 49.18825 
L 53.435192 49.345181 
L 53.560768 49.502113 
L 53.686344 49.659045 
L 53.811919 49.815977 
L 53.937495 49.972909 
L 54.06307 50.12984 
L 54.188646 50.286772 
L 54.314222 50.443704 
L 54.439797 50.600636 
L 54.565373 50.757568 
L 54.690949 50.914499 
L 54.816524 51.071431 
L 54.9421 51.228363 
L 55.016317 51.362463 
L 55.090535 51.496562 
L 55.164753 51.630662 
L 55.23897 51.764761 
L 55.313188 51.898861 
L 55.387405 52.032961 
L 55.461623 52.16706 
L 55.53584 52.30116 
L 55.610058 52.435259 
L 55.684276 52.569359 
L 55.758493 52.703459 
L 55.832711 52.837558 
L 55.906928 52.971658 
L 55.981146 53.105758 
L 56.055363 53.239857 
L 56.129581 53.373957 
L 56.204514 53.563855 
L 56.279448 53.753753 
L 56.354381 53.94365 
L 56.429314 54.133548 
L 56.504248 54.323446 
L 56.579181 54.513344 
L 56.654114 54.703242 
L 56.729047 54.89314 
" style="fill:none;stroke:#ff0000;stroke-linecap:square;stroke-width:0.4;"/>
   </g>
   <g id="line2d_12">
    <path clip-path="url(#p3c72bbb412)" d="M 34.64422 15.361467 
L 34.391464 15.456635 
L 34.138708 15.551804 
L 33.885952 15.646972 
L 33.633196 15.74214 
L 33.380439 15.837309 
L 33.127683 15.932477 
L 32.874927 16.027645 
L 32.622171 16.122814 
" style="fill:none;stroke:#008000;stroke-linecap:square;stroke-width:0.4;"/>
   </g>
   <g id="line2d_13">
    <path clip-path="url(#p3c72bbb412)" d="M 5.149607 21.308968 
L 5.292902 21.383622 
L 5.436197 21.458275 
L 5.579492 21.532929 
L 5.722787 21.607583 
L 5.866082 21.682236 
L 6.009377 21.75689 
L 6.152672 21.831544 
L 6.295967 21.906197 
L 6.473573 21.955976 
L 6.651179 22.005754 
L 6.828785 22.055532 
L 7.006391 22.105311 
L 7.183997 22.155089 
L 7.361603 22.204867 
L 7.539209 22.254645 
L 7.716815 22.304424 
L 7.894421 22.354202 
L 8.072027 22.40398 
L 8.249633 22.453758 
L 8.427239 22.503537 
L 8.604845 22.553315 
L 8.782451 22.603093 
L 8.960057 22.652871 
L 9.137663 22.70265 
L 9.393304 22.757803 
L 9.648945 22.812957 
L 9.904586 22.868111 
L 10.160226 22.923265 
L 10.415867 22.978418 
L 10.671508 23.033572 
L 10.927149 23.088726 
L 11.182789 23.14388 
L 11.440827 23.22683 
L 11.698864 23.30978 
L 11.956901 23.39273 
L 12.214939 23.47568 
L 12.472976 23.55863 
L 12.731013 23.64158 
L 12.98905 23.72453 
L 13.247088 23.80748 
L 13.505125 23.89043 
L 13.763162 23.97338 
L 14.0212 24.05633 
L 14.279237 24.13928 
L 14.537274 24.22223 
L 14.795312 24.305181 
L 15.053349 24.388131 
L 15.311386 24.471081 
L 15.541456 24.539111 
L 15.771527 24.607141 
L 16.001597 24.675171 
L 16.231667 24.743202 
L 16.461737 24.811232 
L 16.691807 24.879262 
L 16.921877 24.947293 
L 17.151948 25.015323 
L 17.382018 25.083353 
L 17.612088 25.151384 
L 17.842158 25.219414 
L 18.072228 25.287444 
L 18.302298 25.355474 
L 18.532369 25.423505 
L 18.762439 25.491535 
L 18.992509 25.559565 
L 19.231265 25.629556 
L 19.470022 25.699548 
L 19.708778 25.769539 
L 19.947534 25.83953 
L 20.186291 25.909521 
L 20.425047 25.979513 
L 20.663803 26.049504 
L 20.90256 26.119495 
L 21.141316 26.189487 
L 21.380072 26.259478 
L 21.618829 26.329469 
L 21.857585 26.39946 
L 22.096341 26.469452 
L 22.335098 26.539443 
L 22.573854 26.609434 
L 22.812611 26.679425 
" style="fill:none;stroke:#4169e1;stroke-linecap:square;stroke-width:0.4;"/>
   </g>
   <g id="line2d_14">
    <path clip-path="url(#p3c72bbb412)" d="M 36.638682 47.867247 
L 36.891829 47.810969 
L 37.144975 47.754691 
L 37.398122 47.698412 
L 37.651269 47.642134 
L 37.921462 47.634564 
L 38.191656 47.626995 
L 38.461849 47.619425 
L 38.732043 47.611856 
L 38.919474 47.664157 
L 39.106905 47.716459 
L 39.294336 47.76876 
L 39.481766 47.821062 
L 39.669197 47.873363 
L 39.856628 47.925664 
L 40.044059 47.977966 
L 40.23149 48.030267 
L 40.439828 48.081636 
L 40.648167 48.133005 
L 40.856505 48.184374 
L 41.064844 48.235743 
L 41.273182 48.287112 
L 41.48152 48.338481 
L 41.689859 48.38985 
L 41.898197 48.441219 
L 42.061836 48.528708 
L 42.225475 48.616197 
L 42.389113 48.703686 
L 42.552752 48.791175 
L 42.716391 48.878664 
L 42.880029 48.966154 
L 43.043668 49.053643 
L 43.207307 49.141132 
L 43.322429 49.26954 
L 43.437551 49.397949 
L 43.552672 49.526358 
L 43.667794 49.654767 
L 43.782916 49.783175 
L 43.898038 49.911584 
L 44.01316 50.039993 
L 44.128282 50.168401 
L 44.330938 50.295219 
L 44.533594 50.422037 
" style="fill:none;stroke:#008000;stroke-linecap:square;stroke-width:0.4;"/>
   </g>
   <g id="line2d_15">
    <path clip-path="url(#p3c72bbb412)" d="M 4.524635 21.650148 
L 5.258613 22.905164 
L 7.201456 25.014555 
L 13.105365 29.125485 
L 17.398674 31.336147 
L 19.403373 31.3684 
L 20.53492 31.235247 
L 23.315564 30.211597 
L 25.185491 29.347869 
L 25.185491 29.347869 
" style="fill:none;stroke:#4169e1;stroke-linecap:square;stroke-width:0.4;"/>
   </g>
   <g id="line2d_16">
    <path clip-path="url(#p3c72bbb412)" d="M 51.101177 55.73874 
L 51.244949 55.896659 
L 51.388722 56.054578 
L 51.532494 56.212497 
L 51.676266 56.370416 
L 51.820038 56.528335 
L 51.96381 56.686254 
L 52.107582 56.844173 
L 52.251355 57.002093 
L 52.407424 57.195775 
L 52.563494 57.389458 
L 52.719563 57.583141 
L 52.875632 57.776823 
L 53.031702 57.970506 
L 53.187771 58.164189 
L 53.343841 58.357871 
L 53.49991 58.551554 
L 53.649256 58.729083 
L 53.798602 58.906612 
L 53.947949 59.08414 
L 54.097295 59.261669 
L 54.246641 59.439198 
L 54.395987 59.616727 
L 54.545333 59.794255 
L 54.694679 59.971784 
L 54.791062 60.147475 
L 54.887445 60.323167 
L 54.983828 60.498858 
L 55.080211 60.674549 
L 55.176594 60.85024 
L 55.272977 61.025931 
L 55.369361 61.201623 
L 55.465744 61.377314 
" style="fill:none;stroke:#ff0000;stroke-linecap:square;stroke-width:0.4;"/>
   </g>
   <g id="line2d_17">
    <path clip-path="url(#p3c72bbb412)" d="M 11.077818 14.676035 
L 11.359072 14.712073 
L 11.640327 14.748111 
L 11.921582 14.784149 
L 12.202836 14.820187 
L 12.484091 14.856224 
L 12.765346 14.892262 
L 13.046601 14.9283 
L 13.327855 14.964338 
L 13.471508 15.010002 
L 13.615161 15.055667 
L 13.758814 15.101331 
L 13.902467 15.146995 
L 14.04612 15.19266 
L 14.189773 15.238324 
L 14.333425 15.283988 
L 14.477078 15.329653 
L 14.620731 15.375317 
L 14.764384 15.420981 
L 14.908037 15.466646 
L 15.05169 15.51231 
L 15.195343 15.557975 
L 15.338996 15.603639 
L 15.482648 15.649303 
L 15.626301 15.694968 
L 15.785179 15.74539 
L 15.944058 15.795813 
L 16.102936 15.846236 
L 16.261814 15.896659 
L 16.420692 15.947081 
L 16.57957 15.997504 
L 16.738448 16.047927 
L 16.897326 16.09835 
L 17.056204 16.148773 
L 17.215082 16.199195 
L 17.373961 16.249618 
L 17.532839 16.300041 
L 17.691717 16.350464 
L 17.850595 16.400886 
L 18.009473 16.451309 
L 18.168351 16.501732 
L 18.406511 16.484975 
L 18.644671 16.468217 
L 18.882831 16.45146 
L 19.120991 16.434703 
L 19.359151 16.417945 
L 19.597311 16.401188 
L 19.835471 16.384431 
L 20.07363 16.367673 
" style="fill:none;stroke:#4169e1;stroke-linecap:square;stroke-width:0.4;"/>
   </g>
   <g id="line2d_18">
    <path clip-path="url(#p3c72bbb412)" d="M 20.07363 16.367673 
L 20.004813 16.525209 
L 19.935996 16.682744 
L 19.867179 16.840279 
L 19.798362 16.997814 
L 19.729545 17.155349 
L 19.660727 17.312884 
L 19.59191 17.47042 
L 19.523093 17.627955 
L 19.466009 17.812505 
L 19.408925 17.997054 
L 19.351842 18.181604 
L 19.294758 18.366154 
L 19.237674 18.550704 
L 19.18059 18.735254 
L 19.123507 18.919804 
L 19.066423 19.104353 
L 18.973206 19.248943 
L 18.87999 19.393533 
L 18.786773 19.538124 
L 18.693556 19.682714 
L 18.60034 19.827304 
L 18.507123 19.971894 
L 18.413907 20.116484 
L 18.32069 20.261074 
L 18.225522 20.516026 
L 18.130353 20.770979 
L 18.035185 21.025931 
L 17.940016 21.280884 
L 17.962876 21.520587 
L 17.985735 21.760291 
L 18.008595 21.999995 
L 18.031454 22.239698 
L 18.099252 22.448301 
L 18.16705 22.656903 
L 18.234848 22.865505 
L 18.302645 23.074108 
" style="fill:none;stroke:#008000;stroke-linecap:square;stroke-width:0.4;"/>
   </g>
   <g id="line2d_19">
    <path clip-path="url(#p3c72bbb412)" d="M 27.031605 3.39033 
L 27.060754 3.660038 
L 27.089903 3.929745 
L 27.119052 4.199453 
L 27.148201 4.469161 
L 27.195417 4.719588 
L 27.242632 4.970015 
L 27.289848 5.220442 
L 27.337064 5.470869 
L 27.384279 5.721297 
L 27.431495 5.971724 
L 27.47871 6.222151 
L 27.525926 6.472578 
L 27.513824 6.639411 
L 27.501722 6.806243 
L 27.489619 6.973076 
L 27.477517 7.139908 
L 27.465415 7.306741 
L 27.453313 7.473574 
L 27.441211 7.640406 
L 27.429109 7.807239 
L 27.525015 8.039537 
L 27.620921 8.271836 
L 27.716827 8.504134 
L 27.812733 8.736433 
L 28.002896 8.958694 
L 28.180741 9.166364 
L 28.358585 9.374034 
L 28.452279 9.557623 
L 28.545973 9.741213 
L 28.639667 9.924803 
L 28.73336 10.108393 
L 28.771106 10.318627 
L 28.808852 10.528862 
L 28.846598 10.739096 
L 28.884344 10.94933 
L 28.92209 11.159565 
L 28.959836 11.369799 
L 28.997582 11.580033 
L 29.035327 11.790268 
L 29.073073 12.000502 
L 29.110819 12.210736 
L 29.148565 12.42097 
L 29.186311 12.631205 
L 29.224057 12.841439 
L 29.261803 13.051673 
L 29.299549 13.261908 
L 29.337295 13.472142 
L 29.37504 13.682376 
L 29.412786 13.892611 
L 29.450532 14.102845 
L 29.488278 14.313079 
L 29.526024 14.523314 
L 29.56377 14.733548 
L 29.601516 14.943782 
L 29.639262 15.154016 
L 29.677008 15.364251 
L 29.714753 15.574485 
L 29.752499 15.784719 
L 29.790245 15.994954 
L 29.827991 16.205188 
L 29.865737 16.415422 
L 29.903483 16.625657 
L 29.941229 16.835891 
L 29.978975 17.046125 
L 30.016721 17.256359 
L 30.054466 17.466594 
L 30.092212 17.676828 
L 30.129958 17.887062 
L 30.167704 18.097297 
L 30.20545 18.307531 
L 30.243196 18.517765 
L 30.280942 18.728 
L 30.318688 18.938234 
L 30.356433 19.148468 
L 30.394179 19.358702 
L 30.431925 19.568937 
L 30.469671 19.779171 
L 30.507417 19.989405 
L 30.545163 20.19964 
L 30.582909 20.409874 
L 30.620655 20.620108 
L 30.658401 20.830343 
L 30.696146 21.040577 
L 30.733892 21.250811 
L 30.771638 21.461045 
L 30.809384 21.67128 
L 30.84713 21.881514 
L 30.884876 22.091748 
L 30.922622 22.301983 
L 30.960368 22.512217 
L 30.998114 22.722451 
L 31.035859 22.932686 
L 31.073605 23.14292 
L 31.111351 23.353154 
L 31.149097 23.563388 
" style="fill:none;stroke:#ff0000;stroke-linecap:square;stroke-width:0.4;"/>
   </g>
   <g id="line2d_20">
    <path clip-path="url(#p3c72bbb412)" d="M 25.400813 3.358735 
L 25.392528 3.591445 
L 25.384243 3.824155 
L 25.375958 4.056865 
L 25.367673 4.289575 
L 25.359388 4.522285 
L 25.351103 4.754995 
L 25.342818 4.987705 
L 25.334534 5.220415 
L 25.319308 5.498241 
L 25.304083 5.776066 
L 25.288858 6.053892 
L 25.273633 6.331718 
L 25.34785 6.48012 
L 25.422068 6.628523 
L 25.496285 6.776925 
L 25.570503 6.925327 
L 25.64472 7.073729 
L 25.718938 7.222132 
L 25.793156 7.370534 
L 25.867373 7.518936 
L 25.998653 7.678775 
L 26.129933 7.838614 
L 26.261212 7.998453 
L 26.392492 8.158292 
L 26.523772 8.318131 
L 26.655051 8.47797 
L 26.786331 8.637809 
L 26.917611 8.797648 
L 26.978511 8.976493 
L 27.039412 9.155338 
L 27.100313 9.334184 
L 27.161214 9.513029 
L 27.222115 9.691874 
L 27.283016 9.870719 
L 27.343917 10.049564 
L 27.404818 10.22841 
L 27.434314 10.422476 
L 27.46381 10.616543 
L 27.493306 10.810609 
L 27.522803 11.004676 
L 27.552299 11.198743 
L 27.581795 11.392809 
L 27.611291 11.586876 
L 27.640787 11.780943 
L 27.670284 11.975009 
L 27.69978 12.169076 
L 27.729276 12.363143 
L 27.758772 12.557209 
L 27.788268 12.751276 
L 27.817764 12.945343 
L 27.847261 13.139409 
L 27.876757 13.333476 
L 27.825789 13.599179 
L 27.774821 13.864883 
L 27.723854 14.130586 
L 27.672886 14.39629 
" style="fill:none;stroke:#ff0000;stroke-linecap:square;stroke-width:0.4;"/>
   </g>
   <g id="line2d_21">
    <path clip-path="url(#p3c72bbb412)" d="M 43.709609 53.876841 
L 43.77654 54.108179 
L 43.84347 54.339518 
L 43.9104 54.570857 
L 43.977331 54.802195 
L 44.044261 55.033534 
L 44.111191 55.264872 
L 44.178121 55.496211 
L 44.245052 55.72755 
L 44.301561 55.892312 
L 44.35807 56.057074 
L 44.414579 56.221836 
L 44.471088 56.386597 
L 44.527597 56.551359 
L 44.584106 56.716121 
L 44.640615 56.880883 
L 44.697124 57.045645 
L 44.753633 57.210407 
L 44.810142 57.375169 
L 44.866651 57.539931 
L 44.92316 57.704693 
L 44.979669 57.869455 
L 45.036178 58.034217 
L 45.092687 58.198979 
L 45.149196 58.363741 
L 45.22992 58.584301 
L 45.310644 58.804861 
L 45.391368 59.025421 
L 45.472093 59.245981 
L 45.493651 59.504225 
L 45.515209 59.762469 
L 45.536767 60.020712 
L 45.558326 60.278956 
L 45.604066 60.420172 
L 45.649807 60.561389 
L 45.695548 60.702606 
L 45.741289 60.843822 
L 45.787029 60.985039 
L 45.83277 61.126256 
L 45.878511 61.267472 
L 45.924252 61.408689 
L 46.109904 61.529748 
L 46.295556 61.650806 
L 46.481209 61.771865 
L 46.666861 61.892923 
L 46.914716 61.884037 
L 47.16257 61.875151 
L 47.328118 61.878003 
L 47.493665 61.880856 
L 47.659212 61.883708 
L 47.82476 61.88656 
L 47.990307 61.889413 
L 48.155854 61.892265 
L 48.321401 61.895117 
L 48.486949 61.89797 
L 48.776575 61.887849 
L 49.066201 61.877729 
L 49.355828 61.867609 
L 49.645454 61.857489 
L 49.935081 61.847369 
L 50.224707 61.837248 
L 50.514334 61.827128 
L 50.80396 61.817008 
" style="fill:none;stroke:#ff0000;stroke-linecap:square;stroke-width:0.4;"/>
   </g>
   <g id="line2d_22">
    <path clip-path="url(#p3c72bbb412)" d="M 6.295967 21.906197 
L 6.457676 22.127471 
L 6.619384 22.348744 
L 6.781093 22.570017 
L 6.942801 22.791291 
L 7.12713 22.890847 
L 7.31146 22.990404 
L 7.495789 23.08996 
L 7.680119 23.189517 
L 7.864448 23.289073 
L 8.048777 23.38863 
L 8.233107 23.488186 
L 8.417436 23.587743 
L 8.619246 23.666428 
L 8.821057 23.745113 
L 9.022867 23.823799 
L 9.224677 23.902484 
L 9.426487 23.981169 
L 9.628298 24.059855 
L 9.830108 24.13854 
L 10.031918 24.217225 
L 10.233728 24.295911 
L 10.435538 24.374596 
L 10.637349 24.453281 
L 10.839159 24.531966 
L 11.040969 24.610652 
L 11.242779 24.689337 
L 11.44459 24.768022 
L 11.6464 24.846708 
L 11.908764 24.943576 
L 12.171128 25.040445 
L 12.433492 25.137314 
L 12.695856 25.234183 
L 12.95822 25.331051 
L 13.220585 25.42792 
L 13.482949 25.524789 
L 13.745313 25.621658 
L 14.007677 25.718527 
L 14.270041 25.815395 
L 14.532405 25.912264 
L 14.794769 26.009133 
L 15.057134 26.106002 
L 15.319498 26.20287 
L 15.581862 26.299739 
L 15.844226 26.396608 
L 16.112652 26.494135 
L 16.381078 26.591662 
L 16.649504 26.689189 
L 16.91793 26.786716 
L 17.186356 26.884243 
L 17.454782 26.98177 
L 17.723208 27.079297 
L 17.991634 27.176824 
L 18.26006 27.274351 
L 18.528486 27.371878 
L 18.796912 27.469405 
L 19.065338 27.566932 
L 19.333764 27.664459 
L 19.60219 27.761986 
L 19.870617 27.859513 
L 20.139043 27.95704 
L 20.344887 28.031035 
L 20.550731 28.105031 
L 20.756575 28.179026 
L 20.96242 28.253022 
L 21.168264 28.327017 
L 21.374108 28.401013 
L 21.579952 28.475008 
L 21.785797 28.549003 
L 21.991641 28.622999 
L 22.197485 28.696994 
L 22.403329 28.77099 
L 22.609174 28.844985 
L 22.815018 28.918981 
L 23.020862 28.992976 
L 23.226706 29.066972 
L 23.432551 29.140967 
L 23.651668 29.16683 
L 23.870786 29.192693 
L 24.089903 29.218555 
L 24.309021 29.244418 
L 24.528138 29.270281 
L 24.747256 29.296144 
L 24.966374 29.322006 
L 25.185491 29.347869 
" style="fill:none;stroke:#4169e1;stroke-linecap:square;stroke-width:0.4;"/>
   </g>
   <g id="line2d_23">
    <path clip-path="url(#p3c72bbb412)" d="M 27.628989 3.540186 
L 28.6031 3.781947 
L 30.096344 4.643042 
L 30.724157 4.826358 
L 32.298277 5.001994 
L 33.78124 5.611757 
L 34.694602 6.225332 
L 35.527023 7.457283 
L 35.58222 8.937685 
L 35.110607 12.469446 
L 33.826569 19.741721 
L 33.487189 20.981282 
L 32.184196 22.799628 
L 31.2853 23.578966 
L 31.2853 23.578966 
" style="fill:none;stroke:#000000;stroke-linecap:square;stroke-width:0.4;"/>
   </g>
   <g id="line2d_24">
    <path clip-path="url(#p3c72bbb412)" d="M 2.78974 21.483617 
L 2.997601 21.450377 
L 3.205462 21.417136 
L 3.413323 21.383896 
L 3.621185 21.350656 
L 3.847047 21.425529 
L 4.07291 21.500402 
L 4.298773 21.575275 
L 4.524635 21.650148 
L 4.510841 21.477254 
L 4.497048 21.30436 
L 4.583194 21.035366 
L 4.66934 20.766371 
L 4.809252 20.670846 
L 4.949163 20.575322 
L 5.089075 20.479797 
L 5.228986 20.384272 
L 5.368898 20.288747 
L 5.50881 20.193222 
L 5.648721 20.097697 
L 5.788633 20.002172 
L 5.93529 19.82862 
L 6.081946 19.655068 
L 6.228603 19.481516 
L 6.37526 19.307964 
L 6.521917 19.134412 
L 6.668573 18.96086 
L 6.81523 18.787308 
L 6.961887 18.613756 
L 7.098448 18.485279 
L 7.235008 18.356802 
L 7.371569 18.228325 
L 7.50813 18.099847 
L 7.644691 17.97137 
L 7.781251 17.842893 
L 7.917812 17.714415 
L 8.054373 17.585938 
L 8.190934 17.457461 
L 8.327495 17.328984 
L 8.464055 17.200506 
L 8.600616 17.072029 
L 8.737177 16.943552 
L 8.873738 16.815074 
L 9.010298 16.686597 
L 9.146859 16.55812 
L 9.267544 16.44049 
L 9.388229 16.322859 
L 9.508914 16.205229 
L 9.629599 16.087599 
L 9.750284 15.969968 
L 9.870969 15.852338 
L 9.991654 15.734708 
L 10.112338 15.617078 
L 10.233023 15.499447 
L 10.353708 15.381817 
L 10.474393 15.264187 
L 10.595078 15.146557 
L 10.715763 15.028926 
L 10.836448 14.911296 
L 10.957133 14.793666 
L 11.077818 14.676035 
L 11.205627 14.49708 
L 11.333437 14.318126 
L 11.461246 14.139171 
L 11.589056 13.960216 
L 11.716865 13.781261 
L 11.844675 13.602306 
L 11.972484 13.423351 
L 12.100294 13.244396 
L 12.185063 13.109858 
L 12.269832 12.975319 
L 12.354601 12.840781 
L 12.43937 12.706242 
L 12.524139 12.571704 
L 12.608908 12.437166 
L 12.693677 12.302627 
L 12.778446 12.168089 
L 12.863215 12.03355 
L 12.947984 11.899012 
L 13.032753 11.764473 
L 13.117522 11.629935 
L 13.20229 11.495397 
L 13.287059 11.360858 
L 13.371828 11.22632 
L 13.456597 11.091781 
L 13.615356 10.857727 
L 13.774115 10.623674 
L 13.932874 10.38962 
L 14.091633 10.155566 
L 14.280018 10.0022 
L 14.468403 9.848833 
L 14.656788 9.695467 
L 14.845173 9.5421 
L 14.987796 9.48286 
L 15.130419 9.42362 
L 15.273041 9.36438 
L 15.415664 9.305139 
" style="fill:none;stroke:#008000;stroke-linecap:square;stroke-width:0.4;"/>
   </g>
   <g id="line2d_25">
    <path clip-path="url(#p3c72bbb412)" d="M 32.752127 31.655167 
L 32.80123 31.924737 
L 32.850332 32.194308 
L 32.899435 32.463879 
L 32.948537 32.733449 
L 32.99764 33.00302 
L 33.046742 33.27259 
L 33.095845 33.542161 
L 33.144947 33.811731 
L 33.150326 34.037722 
L 33.155705 34.263712 
L 33.161083 34.489703 
L 33.166462 34.715693 
L 33.171841 34.941684 
L 33.177219 35.167675 
L 33.182598 35.393665 
L 33.187977 35.619656 
L 33.186632 35.768977 
L 33.185287 35.918298 
L 33.183943 36.067619 
L 33.182598 36.21694 
L 33.181253 36.366261 
L 33.179909 36.515582 
L 33.178564 36.664903 
L 33.177219 36.814224 
L 33.175875 36.963545 
L 33.17453 37.112866 
L 33.173185 37.262187 
L 33.171841 37.411509 
L 33.170496 37.56083 
L 33.169151 37.710151 
L 33.167807 37.859472 
L 33.166462 38.008793 
L 33.131479 38.291254 
L 33.096495 38.573714 
L 33.061512 38.856175 
L 33.026529 39.138636 
L 32.991545 39.421097 
L 32.956562 39.703557 
L 32.921579 39.986018 
L 32.886595 40.268479 
L 32.885294 40.477795 
L 32.883993 40.68711 
L 32.882691 40.896426 
L 32.88139 41.105741 
L 32.946086 41.275042 
L 33.010783 41.444343 
L 33.075479 41.613644 
L 33.140176 41.782945 
L 33.204872 41.952246 
L 33.269568 42.121547 
L 33.334265 42.290848 
L 33.398961 42.460149 
L 33.469253 42.59902 
L 33.539545 42.737892 
L 33.609837 42.876764 
L 33.680129 43.015636 
L 33.750421 43.154507 
L 33.820713 43.293379 
L 33.891005 43.432251 
L 33.961297 43.571123 
L 34.031589 43.709994 
L 34.101881 43.848866 
L 34.172173 43.987738 
L 34.242465 44.12661 
L 34.312757 44.265481 
L 34.383049 44.404353 
L 34.453341 44.543225 
L 34.523633 44.682097 
L 34.60067 44.834256 
L 34.677707 44.986416 
L 34.837529 45.197569 
L 34.99735 45.408722 
L 35.157172 45.619875 
L 35.316993 45.831028 
L 35.476815 46.042181 
L 35.636636 46.253334 
L 35.796458 46.464487 
L 35.95628 46.67564 
L 36.04158 46.824591 
L 36.12688 46.973542 
L 36.212181 47.122493 
L 36.297481 47.271444 
L 36.382781 47.420395 
L 36.468082 47.569345 
L 36.553382 47.718296 
L 36.638682 47.867247 
" style="fill:none;stroke:#008000;stroke-linecap:square;stroke-width:0.4;"/>
   </g>
   <g id="line2d_26">
    <path clip-path="url(#p3c72bbb412)" d="M 4.524635 21.650148 
L 4.680878 21.564853 
L 4.837121 21.479558 
L 4.993364 21.394263 
L 5.149607 21.308968 
L 5.335281 21.264565 
L 5.520955 21.220163 
L 5.706629 21.17576 
L 5.892303 21.131357 
L 6.077977 21.086954 
L 6.263652 21.042551 
L 6.449326 20.998149 
L 6.635 20.953746 
L 6.832104 20.905325 
L 7.029207 20.856905 
L 7.226311 20.808484 
L 7.423415 20.760063 
L 7.620519 20.711643 
L 7.817623 20.663222 
L 8.014727 20.614801 
L 8.211831 20.566381 
L 8.408934 20.51796 
L 8.606038 20.469539 
L 8.803142 20.421119 
L 9.000246 20.372698 
L 9.19735 20.324277 
L 9.394454 20.275857 
L 9.591557 20.227436 
L 9.788661 20.179015 
L 9.935318 20.145363 
L 10.081975 20.111712 
L 10.228631 20.07806 
L 10.375288 20.044408 
L 10.521945 20.010756 
L 10.668602 19.977105 
L 10.815258 19.943453 
L 10.961915 19.909801 
L 11.206798 19.911145 
L 11.451682 19.912489 
L 11.696565 19.913833 
L 11.941448 19.915177 
L 12.186332 19.916521 
L 12.431215 19.917864 
L 12.676098 19.919208 
L 12.920982 19.920552 
L 13.15643 19.97439 
L 13.391879 20.028227 
L 13.627328 20.082064 
L 13.862777 20.135902 
L 14.098226 20.189739 
L 14.333675 20.243576 
L 14.569124 20.297413 
L 14.804573 20.351251 
L 15.049434 20.472309 
L 15.294296 20.593368 
L 15.539157 20.714426 
L 15.784019 20.835485 
L 15.971038 21.007693 
L 16.158057 21.179901 
L 16.345075 21.352109 
L 16.532094 21.524317 
L 16.719113 21.696525 
L 16.906132 21.868733 
L 17.09315 22.040942 
L 17.280169 22.21315 
L 17.407979 22.320769 
L 17.535788 22.428389 
L 17.663598 22.536009 
L 17.791407 22.643629 
L 17.919217 22.751249 
L 18.047026 22.858868 
L 18.174836 22.966488 
L 18.302645 23.074108 
L 18.460743 23.149434 
L 18.61884 23.224759 
L 18.776937 23.300085 
L 18.935035 23.37541 
L 19.093132 23.450736 
L 19.251229 23.526062 
L 19.409327 23.601387 
L 19.567424 23.676713 
L 19.725521 23.752038 
L 19.883619 23.827364 
L 20.041716 23.90269 
L 20.199813 23.978015 
L 20.357911 24.053341 
L 20.516008 24.128667 
L 20.674105 24.203992 
L 20.832203 24.279318 
L 21.017855 24.440747 
L 21.203507 24.602177 
L 21.38916 24.763607 
L 21.574812 24.925036 
L 21.729537 25.144335 
L 21.884262 25.363634 
L 22.038987 25.582932 
L 22.193711 25.802231 
L 22.348436 26.021529 
L 22.503161 26.240828 
L 22.657886 26.460127 
L 22.812611 26.679425 
L 22.910859 26.790473 
L 23.009107 26.901521 
L 23.107355 27.012569 
L 23.205604 27.123617 
L 23.303852 27.234665 
L 23.4021 27.345713 
L 23.500349 27.456761 
L 23.598597 27.56781 
L 23.697778 27.679063 
L 23.796959 27.790317 
L 23.89614 27.901571 
L 23.99532 28.012824 
L 24.094501 28.124078 
L 24.193682 28.235332 
L 24.292863 28.346586 
L 24.392044 28.457839 
L 24.491225 28.569093 
L 24.590406 28.680347 
L 24.689587 28.791601 
L 24.788768 28.902854 
L 24.887948 29.014108 
L 24.987129 29.125362 
L 25.08631 29.236615 
L 25.185491 29.347869 
" style="fill:none;stroke:#4169e1;stroke-linecap:square;stroke-width:0.4;"/>
   </g>
   <g id="line2d_27">
    <path clip-path="url(#p3c72bbb412)" d="M 27.672886 14.39629 
L 27.705234 14.571336 
L 27.737583 14.746383 
L 27.769931 14.92143 
L 27.802279 15.096477 
L 27.834627 15.271523 
L 27.866975 15.44657 
L 27.899324 15.621617 
L 27.931672 15.796663 
L 27.96402 15.97171 
L 27.996368 16.146757 
L 28.028716 16.321803 
L 28.061064 16.49685 
L 28.093413 16.671897 
L 28.125761 16.846944 
L 28.158109 17.02199 
L 28.190457 17.197037 
L 28.239928 17.350198 
L 28.2894 17.503358 
L 28.338871 17.656519 
L 28.388342 17.80968 
L 28.437813 17.96284 
L 28.487284 18.116001 
L 28.536755 18.269162 
L 28.586227 18.422323 
L 28.635698 18.575483 
L 28.685169 18.728644 
L 28.73464 18.881805 
L 28.784111 19.034965 
L 28.833582 19.188126 
L 28.883053 19.341287 
L 28.932525 19.494448 
L 28.981996 19.647608 
L 29.040034 19.796957 
L 29.098072 19.946305 
L 29.15611 20.095654 
L 29.214148 20.245002 
L 29.272186 20.394351 
L 29.330224 20.543699 
L 29.388262 20.693048 
L 29.4463 20.842396 
L 29.504338 20.991745 
L 29.562376 21.141093 
L 29.620414 21.290442 
L 29.678453 21.43979 
L 29.736491 21.589139 
L 29.794529 21.738487 
L 29.852567 21.887836 
L 29.910605 22.037184 
L 29.980311 22.218169 
L 30.050018 22.399153 
L 30.119724 22.580138 
L 30.18943 22.761122 
L 30.259137 22.942106 
L 30.328843 23.123091 
L 30.39855 23.304075 
L 30.468256 23.48506 
" style="fill:none;stroke:#4169e1;stroke-linecap:square;stroke-width:0.4;"/>
   </g>
   <g id="line2d_28">
    <path clip-path="url(#p3c72bbb412)" d="M 22.731409 4.015424 
L 22.624572 4.181846 
L 22.517736 4.348267 
L 22.410899 4.514688 
L 22.304062 4.681109 
L 22.197225 4.84753 
L 22.090388 5.013952 
L 21.983551 5.180373 
L 21.876714 5.346794 
L 21.83902 5.632025 
L 21.801326 5.917256 
L 21.763631 6.202486 
L 21.725937 6.487717 
L 21.806661 6.68683 
L 21.887385 6.885943 
L 21.968109 7.085056 
L 22.048833 7.284169 
L 22.129557 7.483282 
L 22.210281 7.682395 
L 22.291005 7.881509 
L 22.371729 8.080622 
L 22.452454 8.243423 
L 22.533178 8.406224 
L 22.613902 8.569024 
L 22.694626 8.731825 
L 22.77535 8.894626 
L 22.856074 9.057427 
L 22.936798 9.220228 
L 23.017522 9.383029 
L 23.098246 9.54583 
L 23.17897 9.708631 
L 23.259694 9.871432 
L 23.340419 10.034233 
L 23.421143 10.197034 
L 23.501867 10.359835 
L 23.582591 10.522636 
L 23.663315 10.685437 
L 23.838232 10.868396 
L 24.013148 11.051355 
L 24.188065 11.234314 
L 24.362982 11.417273 
L 24.537898 11.600233 
L 24.712815 11.783192 
L 24.887732 11.966151 
L 25.062648 12.14911 
L 25.225788 12.289559 
L 25.388928 12.430007 
L 25.552068 12.570456 
L 25.715208 12.710905 
L 25.878348 12.851354 
L 26.041487 12.991802 
L 26.204627 13.132251 
L 26.367767 13.2727 
L 26.530907 13.413149 
L 26.694047 13.553597 
L 26.857187 13.694046 
L 27.020327 13.834495 
L 27.183467 13.974944 
L 27.346606 14.115392 
L 27.509746 14.255841 
L 27.672886 14.39629 
" style="fill:none;stroke:#000000;stroke-linecap:square;stroke-width:0.4;"/>
   </g>
   <g id="line2d_29">
    <path clip-path="url(#p3c72bbb412)" d="M 2.78974 21.483617 
L 2.887641 22.051665 
L 3.690631 23.283588 
L 4.583758 25.554107 
L 5.416114 27.74564 
L 5.77254 29.213372 
L 6.976765 31.827073 
L 7.178597 32.61804 
L 7.902468 35.714659 
L 8.828127 36.715545 
L 12.680176 39.138142 
L 14.799237 39.895485 
L 15.135624 39.997729 
L 17.337079 39.504938 
L 18.990622 39.8055 
L 22.179614 41.319664 
L 23.264206 41.909379 
L 25.316294 43.130715 
L 26.375141 43.471182 
L 29.206514 43.758388 
L 30.702057 44.1655 
L 31.607676 44.59543 
L 32.494383 45.888842 
L 33.400176 46.788691 
L 34.648298 47.795062 
L 35.447471 47.9662 
L 36.258095 47.935702 
L 36.638682 47.867247 
L 36.638682 47.867247 
" style="fill:none;stroke:#008000;stroke-linecap:square;stroke-width:0.4;"/>
   </g>
   <g id="line2d_30">
    <path clip-path="url(#p3c72bbb412)" d="M 27.628989 3.540186 
L 26.272555 3.294229 
L 24.9003 3.481865 
L 20.752173 4.583226 
L 17.239243 6.975325 
L 16.921769 7.264916 
L 15.415664 9.305139 
L 16.763737 11.517913 
L 20.320986 16.538922 
L 26.999679 21.253458 
L 28.7426 22.863037 
L 29.910388 23.420883 
L 31.2853 23.578966 
L 31.2853 23.578966 
" style="fill:none;stroke:#4169e1;stroke-linecap:square;stroke-width:0.4;"/>
   </g>
   <g id="line2d_31">
    <path clip-path="url(#p3c72bbb412)" d="M 31.962845 4.886256 
L 32.002209 5.095434 
L 32.041573 5.304613 
L 32.080938 5.513791 
L 32.120302 5.72297 
L 32.159666 5.932148 
L 32.199031 6.141326 
L 32.238395 6.350505 
L 32.27776 6.559683 
L 32.311051 6.807025 
L 32.344343 7.054367 
L 32.377634 7.301708 
L 32.410926 7.54905 
L 32.444218 7.796392 
L 32.477509 8.043734 
L 32.510801 8.291075 
L 32.544093 8.538417 
L 32.577384 8.785759 
L 32.610676 9.0331 
L 32.643968 9.280442 
L 32.677259 9.527784 
L 32.710551 9.775126 
L 32.743842 10.022467 
L 32.777134 10.269809 
L 32.810426 10.517151 
L 32.827549 10.685547 
L 32.844672 10.853943 
L 32.861795 11.022339 
L 32.878918 11.190734 
L 32.896041 11.35913 
L 32.913164 11.527526 
L 32.930287 11.695922 
L 32.947409 11.864318 
L 32.964532 12.032714 
L 32.981655 12.20111 
L 32.998778 12.369506 
L 33.015901 12.537901 
L 33.033024 12.706297 
L 33.050147 12.874693 
L 33.06727 13.043089 
L 33.084393 13.211485 
L 33.048239 13.42837 
L 33.012084 13.645255 
L 32.97593 13.86214 
L 32.939775 14.079025 
L 32.903621 14.295911 
L 32.867466 14.512796 
L 32.831312 14.729681 
L 32.795157 14.946566 
L 32.773534 15.093597 
L 32.751911 15.240628 
L 32.730287 15.387659 
L 32.708664 15.53469 
L 32.687041 15.681721 
L 32.665417 15.828752 
L 32.643794 15.975783 
L 32.622171 16.122814 
L 32.594496 16.310956 
L 32.566822 16.499099 
L 32.527816 16.661777 
L 32.488809 16.824454 
L 32.449803 16.987132 
L 32.410796 17.149809 
L 32.371789 17.312487 
L 32.332783 17.475164 
L 32.293776 17.637842 
L 32.25477 17.800519 
L 32.215763 17.963197 
L 32.176757 18.125875 
L 32.13775 18.288552 
L 32.098744 18.45123 
L 32.059737 18.613907 
L 32.020731 18.776585 
L 31.981724 18.939262 
L 31.942718 19.10194 
L 31.89136 19.35116 
L 31.840002 19.600381 
L 31.788644 19.849601 
L 31.737286 20.098822 
L 31.685927 20.348042 
L 31.634569 20.597262 
L 31.583211 20.846483 
L 31.531853 21.095703 
L 31.560157 21.354852 
L 31.58846 21.614 
L 31.616763 21.873149 
L 31.645067 22.132298 
L 31.67337 22.391446 
L 31.701673 22.650595 
L 31.729977 22.909744 
L 31.75828 23.168892 
" style="fill:none;stroke:#ff0000;stroke-linecap:square;stroke-width:0.4;"/>
   </g>
   <g id="line2d_32">
    <path clip-path="url(#p3c72bbb412)" d="M 45.920955 48.242435 
L 46.165817 48.113313 
L 46.410678 47.984192 
L 46.65554 47.85507 
L 46.900401 47.725948 
L 47.110301 47.771695 
L 47.320201 47.817441 
L 47.530101 47.863188 
L 47.740001 47.908935 
L 47.91815 48.108761 
L 48.096298 48.308587 
L 48.274446 48.508413 
L 48.452594 48.708239 
L 48.528699 48.921285 
L 48.604803 49.13433 
L 48.680908 49.347375 
L 48.757012 49.560421 
L 48.833117 49.773466 
L 48.909221 49.986512 
L 48.985326 50.199557 
L 49.06143 50.412603 
L 49.138489 50.579998 
L 49.215548 50.747392 
L 49.292606 50.914787 
L 49.369665 51.082182 
L 49.446724 51.249577 
L 49.523783 51.416972 
L 49.600841 51.584367 
L 49.6779 51.751761 
L 49.754959 51.919156 
L 49.832018 52.086551 
L 49.909076 52.253946 
L 49.986135 52.421341 
L 50.063194 52.588736 
L 50.140253 52.75613 
L 50.217311 52.923525 
L 50.29437 53.09092 
L 50.344796 53.256409 
L 50.395221 53.421897 
L 50.445646 53.587386 
L 50.496072 53.752875 
L 50.546497 53.918364 
L 50.596923 54.083852 
L 50.647348 54.249341 
L 50.697774 54.41483 
L 50.748199 54.580319 
L 50.798625 54.745807 
L 50.84905 54.911296 
L 50.899476 55.076785 
L 50.949901 55.242273 
L 51.000326 55.407762 
L 51.050752 55.573251 
L 51.101177 55.73874 
L 51.186413 55.99531 
L 51.271648 56.251881 
L 51.356883 56.508451 
L 51.442118 56.765022 
L 51.527354 57.021593 
L 51.612589 57.278163 
L 51.697824 57.534734 
L 51.783059 57.791304 
L 51.825872 57.976759 
L 51.868685 58.162214 
L 51.911498 58.347669 
L 51.954311 58.533124 
L 51.997124 58.718579 
L 52.039936 58.904034 
L 52.082749 59.089488 
L 52.125562 59.274943 
L 52.263283 59.522436 
L 52.401004 59.769928 
L 52.538725 60.017421 
L 52.676447 60.264914 
L 52.814168 60.512406 
L 52.951889 60.759899 
L 53.08961 61.007391 
L 53.227331 61.254884 
" style="fill:none;stroke:#ff0000;stroke-linecap:square;stroke-width:0.4;"/>
   </g>
   <g id="line2d_33">
    <path clip-path="url(#p3c72bbb412)" d="M 33.144947 33.811731 
L 33.363869 34.004427 
L 33.582792 34.197122 
L 33.801714 34.389817 
L 34.020636 34.582513 
L 34.124871 34.764169 
L 34.229105 34.945825 
L 34.333339 35.127482 
L 34.437574 35.309138 
L 34.541808 35.490794 
L 34.646042 35.672451 
L 34.750276 35.854107 
L 34.854511 36.035764 
L 34.958745 36.21742 
L 35.062979 36.399076 
L 35.167214 36.580733 
L 35.271448 36.762389 
L 35.375682 36.944045 
L 35.479916 37.125702 
L 35.584151 37.307358 
L 35.688385 37.489015 
L 35.826583 37.713579 
L 35.964781 37.938143 
L 36.10298 38.162708 
L 36.241178 38.387272 
L 36.378379 38.610136 
L 36.515579 38.833 
L 36.65278 39.055864 
L 36.78998 39.278728 
L 36.868395 39.444121 
L 36.946809 39.609514 
L 37.025223 39.774906 
L 37.103637 39.940299 
L 37.182052 40.105692 
L 37.260466 40.271084 
L 37.33888 40.436477 
L 37.417295 40.60187 
L 37.495709 40.767263 
L 37.574123 40.932655 
L 37.652537 41.098048 
L 37.730952 41.263441 
L 37.809366 41.428834 
L 37.88778 41.594226 
L 37.966194 41.759619 
L 38.044609 41.925012 
L 38.134496 42.11144 
L 38.224384 42.297869 
L 38.314271 42.484297 
L 38.404158 42.670726 
L 38.494046 42.857154 
L 38.583933 43.043583 
L 38.673821 43.230011 
L 38.763708 43.41644 
L 38.853596 43.602868 
L 38.943483 43.789297 
L 39.03337 43.975725 
L 39.123258 44.162154 
L 39.213145 44.348582 
L 39.303033 44.535011 
L 39.39292 44.721439 
L 39.482808 44.907868 
L 39.570515 45.044696 
L 39.658223 45.181525 
L 39.745931 45.318353 
L 39.833639 45.455182 
L 39.921346 45.59201 
L 40.009054 45.728839 
L 40.096762 45.865667 
L 40.184469 46.002496 
L 40.338544 46.242967 
L 40.492618 46.483439 
L 40.580466 46.6058 
L 40.668315 46.728161 
L 40.756164 46.850523 
L 40.844013 46.972884 
L 40.931861 47.095245 
L 41.01971 47.217606 
L 41.107559 47.339968 
L 41.195407 47.462329 
L 41.283256 47.58469 
L 41.371105 47.707052 
L 41.458954 47.829413 
L 41.546802 47.951774 
L 41.634651 48.074135 
L 41.7225 48.196497 
L 41.810349 48.318858 
L 41.898197 48.441219 
" style="fill:none;stroke:#008000;stroke-linecap:square;stroke-width:0.4;"/>
   </g>
   <g id="line2d_34">
    <path clip-path="url(#p3c72bbb412)" d="M 25.185491 29.347869 
L 25.37071 29.375185 
L 25.555928 29.402502 
L 25.741147 29.429818 
L 25.926366 29.457134 
L 26.136743 29.546077 
L 26.34712 29.63502 
L 26.557497 29.723962 
L 26.767874 29.812905 
L 26.978251 29.901848 
L 27.188628 29.99079 
L 27.399005 30.079733 
L 27.609383 30.168676 
L 27.792953 30.394227 
L 27.976523 30.619779 
L 28.074077 30.887512 
L 28.171632 31.155245 
L 28.269186 31.422978 
L 28.36674 31.690711 
L 28.430808 31.899149 
L 28.494875 32.107587 
L 28.558943 32.316025 
L 28.62301 32.524463 
L 28.687077 32.732901 
L 28.751145 32.941338 
L 28.815212 33.149776 
L 28.87928 33.358214 
L 28.952912 33.511169 
L 29.026544 33.664124 
L 29.100176 33.817079 
L 29.173808 33.970034 
L 29.24744 34.122989 
L 29.321072 34.275944 
L 29.394704 34.428899 
L 29.468336 34.581854 
L 29.65581 34.803676 
L 29.843284 35.025498 
L 29.923618 35.23964 
L 30.003951 35.453783 
L 30.051753 35.73298 
L 30.099554 36.012177 
L 30.147355 36.291374 
L 30.195156 36.570571 
L 30.236277 36.822973 
L 30.277398 37.075375 
L 30.31852 37.327777 
L 30.359641 37.580179 
L 30.400762 37.83258 
L 30.441883 38.084982 
L 30.483004 38.337384 
L 30.524125 38.589786 
L 30.568109 38.781933 
L 30.612093 38.97408 
L 30.656077 39.166226 
L 30.700061 39.358373 
L 30.744045 39.55052 
L 30.788029 39.742667 
L 30.832013 39.934814 
L 30.875997 40.126961 
L 30.965874 40.396613 
L 31.05575 40.666266 
L 31.145627 40.935919 
L 31.235504 41.205572 
L 31.313929 41.385295 
L 31.392354 41.565018 
L 31.470779 41.74474 
L 31.549204 41.924463 
L 31.627629 42.104186 
L 31.706054 42.283909 
L 31.784479 42.463632 
L 31.862905 42.643355 
L 31.987222 42.842193 
L 32.11154 43.041032 
L 32.235858 43.239871 
L 32.360175 43.43871 
L 32.582004 43.585933 
L 32.803833 43.733156 
L 33.025661 43.880379 
L 33.24749 44.027602 
L 33.407008 44.109413 
L 33.566526 44.191225 
L 33.726043 44.273037 
L 33.885561 44.354849 
L 34.045079 44.436661 
L 34.204597 44.518473 
L 34.364115 44.600285 
L 34.523633 44.682097 
" style="fill:none;stroke:#008000;stroke-linecap:square;stroke-width:0.4;"/>
   </g>
   <g id="line2d_35">
    <path clip-path="url(#p3c72bbb412)" d="M 56.729047 54.89314 
L 56.755941 55.16751 
L 56.782835 55.44188 
L 56.809728 55.71625 
L 56.836622 55.99062 
L 56.85009 56.283832 
L 56.863559 56.577044 
L 56.877027 56.870256 
L 56.890496 57.163467 
L 56.903964 57.456679 
L 56.917433 57.749891 
L 56.930901 58.043103 
L 56.94437 58.336315 
L 56.955127 58.573029 
L 56.965884 58.809743 
L 56.976642 59.046457 
L 56.987399 59.283171 
L 56.998157 59.519885 
L 57.008914 59.756599 
L 57.019672 59.993314 
L 57.030429 60.230028 
L 57.087795 60.484569 
L 57.14516 60.73911 
L 57.202526 60.993651 
L 57.259892 61.248192 
L 57.317258 61.502733 
L 57.374623 61.757274 
L 57.431989 62.011815 
L 57.489355 62.266356 
" style="fill:none;stroke:#4169e1;stroke-linecap:square;stroke-width:0.4;"/>
   </g>
   <g id="line2d_36">
    <path clip-path="url(#p3c72bbb412)" d="M 29.645486 4.468283 
L 29.631215 4.654451 
L 29.616944 4.840619 
L 29.602673 5.026787 
L 29.588402 5.212955 
L 29.519542 5.403237 
L 29.450681 5.593519 
L 29.381821 5.783801 
L 29.31296 5.974082 
L 29.2441 6.164364 
L 29.175239 6.354646 
L 29.106379 6.544928 
L 29.037518 6.73521 
L 28.972854 6.874178 
L 28.90819 7.013145 
L 28.843526 7.152113 
L 28.778863 7.291081 
L 28.714199 7.430049 
L 28.649535 7.569016 
L 28.584871 7.707984 
L 28.520207 7.846952 
L 28.455543 7.985919 
L 28.390879 8.124887 
L 28.326216 8.263855 
L 28.261552 8.402823 
L 28.196888 8.54179 
L 28.132224 8.680758 
L 28.06756 8.819726 
L 28.002896 8.958694 
L 27.928136 9.117408 
L 27.853377 9.276123 
L 27.778617 9.434837 
L 27.703857 9.593552 
L 27.629097 9.752266 
L 27.554338 9.910981 
L 27.479578 10.069695 
L 27.404818 10.22841 
" style="fill:none;stroke:#ff0000;stroke-linecap:square;stroke-width:0.4;"/>
   </g>
   <g id="line2d_37">
    <path clip-path="url(#p3c72bbb412)" d="M 30.547202 4.817801 
L 30.519657 5.042859 
L 30.492113 5.267917 
L 30.464569 5.492975 
L 30.437025 5.718033 
L 30.409481 5.943091 
L 30.381936 6.168149 
L 30.354392 6.393207 
L 30.326848 6.618265 
L 30.260568 6.857612 
L 30.194289 7.096959 
L 30.128009 7.336306 
L 30.061729 7.575653 
L 29.99545 7.815 
L 29.92917 8.054347 
L 29.86289 8.293694 
L 29.796611 8.533042 
L 29.661405 8.781851 
L 29.5262 9.03066 
L 29.390995 9.279469 
L 29.25579 9.528278 
L 29.125182 9.673307 
L 28.994575 9.818335 
L 28.863968 9.963364 
L 28.73336 10.108393 
" style="fill:none;stroke:#ff0000;stroke-linecap:square;stroke-width:0.4;"/>
   </g>
  </g>
 </g>
 <defs>
  <clipPath id="p3c72bbb412">
   <rect height="72" width="61.351367" x="0" y="0"/>
  </clipPath>
 </defs>
</svg>
