<?xml version="1.0" encoding="utf-8" standalone="no"?>
<!DOCTYPE svg PUBLIC "-//W3C//DTD SVG 1.1//EN"
  "http://www.w3.org/Graphics/SVG/1.1/DTD/svg11.dtd">
<svg height="72pt" version="1.1" viewBox="0 0 109.213477 72" width="109.213477pt" xmlns="http://www.w3.org/2000/svg" xmlns:xlink="http://www.w3.org/1999/xlink">
 <metadata>
  <rdf:RDF xmlns:cc="http://creativecommons.org/ns#" xmlns:dc="http://purl.org/dc/elements/1.1/" xmlns:rdf="http://www.w3.org/1999/02/22-rdf-syntax-ns#">
   <cc:Work>
    <dc:type rdf:resource="http://purl.org/dc/dcmitype/StillImage"/>
    <dc:date>2022-04-19T00:45:35.956819</dc:date>
    <dc:format>image/svg+xml</dc:format>
    <dc:creator>
     <cc:Agent>
      <dc:title>Matplotlib v3.4.3, https://matplotlib.org/</dc:title>
     </cc:Agent>
    </dc:creator>
   </cc:Work>
  </rdf:RDF>
 </metadata>
 <defs>
  <style type="text/css">*{stroke-linecap:butt;stroke-linejoin:round;}</style>
 </defs>
 <g id="figure_1">
  <g id="patch_1">
   <path d="M 0 72 
L 109.213477 72 
L 109.213477 0 
L 0 0 
z
" style="fill:#ffffff;"/>
  </g>
  <g id="axes_1">
   <g id="line2d_1">
    <path clip-path="url(#p42c49490cf)" d="M 66.375594 3.432097 
L 67.878228 7.496018 
L 69.267301 11.107675 
L 70.656374 14.719331 
L 71.819147 17.658513 
L 72.981919 20.597695 
L 74.233155 23.730167 
L 75.48439 26.862638 
L 76.503977 29.514309 
L 77.523563 32.16598 
L 78.730772 35.199384 
L 79.937982 38.232788 
L 81.675146 42.598219 
L 83.41231 46.96365 
L 84.864748 50.613534 
L 86.317185 54.263417 
L 87.29974 56.732029 
L 88.282295 59.20064 
L 90.038386 63.670523 
" style="fill:none;stroke:#808080;stroke-linecap:square;stroke-width:0.505618;"/>
   </g>
   <g id="line2d_2">
    <path clip-path="url(#p42c49490cf)" d="M 68.242778 61.417814 
L 70.406004 62.734227 
L 72.56923 64.05064 
L 74.732456 65.367054 
L 76.895682 66.683467 
" style="fill:none;stroke:#808080;stroke-linecap:square;stroke-width:0.505618;"/>
   </g>
   <g id="line2d_3">
    <path clip-path="url(#p42c49490cf)" d="M 4.964249 16.213958 
L 5.562916 15.502718 
L 6.161584 14.791478 
L 6.760251 14.080238 
L 7.358919 13.368998 
L 8.415793 12.906504 
L 9.472667 12.444009 
L 10.529541 11.981515 
L 11.586416 11.51902 
L 12.64329 11.056526 
L 13.700164 10.594031 
L 14.757039 10.131537 
L 15.813913 9.669042 
L 16.870787 9.206548 
L 17.927662 8.744053 
L 18.984536 8.281559 
L 20.04141 7.819064 
L 21.098284 7.35657 
L 22.155159 6.894075 
L 23.212033 6.431581 
L 24.268907 5.969086 
L 25.033083 5.960472 
L 25.797258 5.951857 
L 26.561433 5.943243 
L 27.325608 5.934628 
L 28.089784 5.926013 
L 28.853959 5.917399 
L 29.618134 5.908784 
L 30.38231 5.90017 
L 31.538808 6.004891 
L 32.695305 6.109611 
L 33.851803 6.214332 
L 35.008301 6.319053 
L 36.164799 6.423774 
L 37.321297 6.528495 
L 38.477795 6.633215 
L 39.634293 6.737936 
L 40.964836 6.760146 
L 42.29538 6.782355 
L 43.625923 6.804565 
L 44.956467 6.826774 
L 46.28701 6.848983 
L 47.617554 6.871193 
L 48.948097 6.893402 
L 50.278641 6.915612 
L 51.179522 6.699844 
L 52.080403 6.484076 
L 52.981285 6.268308 
L 53.882166 6.05254 
L 54.783047 5.836772 
L 55.683928 5.621004 
L 56.58481 5.405236 
L 57.485691 5.189468 
L 58.386572 4.9737 
L 59.287454 4.757932 
L 60.188335 4.542164 
L 61.089216 4.326396 
L 61.990098 4.110628 
L 62.890979 3.89486 
L 63.79186 3.679092 
L 64.692742 3.463325 
" style="fill:none;stroke:#008000;stroke-linecap:square;stroke-width:0.505618;"/>
   </g>
   <g id="line2d_4">
    <path clip-path="url(#p42c49490cf)" d="M 73.066679 35.561196 
L 73.788217 35.381568 
L 74.509756 35.201941 
L 75.231294 35.022314 
L 75.952832 34.842687 
L 76.67437 34.66306 
L 77.395909 34.483433 
L 78.117447 34.303806 
L 78.838985 34.124178 
L 79.560523 33.944551 
L 80.282062 33.764924 
L 81.0036 33.585297 
L 81.725138 33.40567 
L 82.446676 33.226043 
L 83.168215 33.046415 
L 83.889753 32.866788 
L 84.611291 32.687161 
" style="fill:none;stroke:#008000;stroke-linecap:square;stroke-width:0.505618;"/>
   </g>
   <g id="line2d_5">
    <path clip-path="url(#p42c49490cf)" d="M 93.464986 45.693001 
L 92.272537 45.222498 
L 91.080088 44.751995 
L 89.887639 44.281491 
L 88.69519 43.810988 
L 87.502742 43.340485 
L 86.310293 42.869981 
L 85.117844 42.399478 
L 83.925395 41.928975 
L 82.732946 41.458471 
L 81.540498 40.987968 
L 80.348049 40.517465 
L 79.1556 40.046961 
L 77.963151 39.576458 
L 76.770702 39.105955 
L 75.578254 38.635451 
L 74.385805 38.164948 
" style="fill:none;stroke:#008000;stroke-linecap:square;stroke-width:0.505618;"/>
   </g>
   <g id="line2d_6">
    <path clip-path="url(#p42c49490cf)" d="M 73.408187 52.99923 
L 73.406747 52.057012 
L 73.405307 51.114794 
L 73.403867 50.172575 
L 73.402427 49.230357 
L 73.400987 48.288139 
L 73.399547 47.345921 
L 73.398106 46.403703 
L 73.396666 45.461485 
L 73.395226 44.519267 
L 73.393786 43.577049 
L 73.392346 42.634831 
L 73.390906 41.692613 
L 73.389466 40.750394 
L 73.388026 39.808176 
L 73.386586 38.865958 
L 73.385146 37.92374 
" style="fill:none;stroke:#4169e1;stroke-linecap:square;stroke-width:0.505618;"/>
   </g>
   <g id="line2d_7">
    <path clip-path="url(#p42c49490cf)" d="M 88.590064 63.146111 
L 87.422971 62.552312 
L 86.255878 61.958512 
L 85.088785 61.364713 
L 83.921692 60.770914 
L 82.754599 60.177115 
L 81.587506 59.583315 
L 80.420413 58.989516 
L 79.253321 58.395717 
L 78.086228 57.801917 
L 76.919135 57.208118 
L 75.752042 56.614319 
L 74.584949 56.020519 
L 73.417856 55.42672 
L 72.250763 54.832921 
L 71.083671 54.239121 
L 69.916578 53.645322 
" style="fill:none;stroke:#008000;stroke-linecap:square;stroke-width:0.505618;"/>
   </g>
   <g id="line2d_8">
    <path clip-path="url(#p42c49490cf)" d="M 79.087093 56.057401 
L 79.900591 55.656958 
L 80.71409 55.256515 
L 81.527588 54.856072 
L 82.341087 54.45563 
L 83.154585 54.055187 
L 83.968084 53.654744 
L 84.781582 53.254302 
L 85.595081 52.853859 
L 86.408579 52.453416 
L 87.222078 52.052974 
L 88.035576 51.652531 
L 88.849075 51.252088 
L 89.662573 50.851646 
L 90.476072 50.451203 
L 91.28957 50.05076 
L 92.103069 49.650317 
L 92.58262 49.018291 
L 93.062171 48.386265 
L 93.541722 47.754238 
L 94.021273 47.122212 
L 94.500824 46.490185 
L 94.980375 45.858159 
L 95.459926 45.226132 
L 95.939478 44.594106 
L 96.419029 43.962079 
L 96.89858 43.330053 
L 97.378131 42.698027 
L 97.857682 42.066 
L 98.337233 41.433974 
L 98.816784 40.801947 
L 99.296335 40.169921 
L 99.775886 39.537894 
L 98.900104 39.090341 
L 98.024321 38.642787 
L 97.148539 38.195234 
L 96.272756 37.74768 
L 95.396974 37.300126 
L 94.521191 36.852573 
L 93.645409 36.405019 
L 92.769626 35.957466 
L 91.893844 35.509912 
L 91.018061 35.062358 
L 90.142279 34.614805 
L 89.266496 34.167251 
L 88.390713 33.719698 
L 87.514931 33.272144 
L 86.639148 32.82459 
L 85.763366 32.377037 
L 86.918732 32.008831 
L 88.074099 31.640626 
L 89.229465 31.272421 
L 90.384831 30.904215 
L 91.540198 30.53601 
L 92.695564 30.167805 
L 93.850931 29.799599 
L 95.006297 29.431394 
L 96.161663 29.063188 
L 97.31703 28.694983 
L 98.472396 28.326778 
L 99.627763 27.958572 
L 100.783129 27.590367 
L 101.938495 27.222162 
L 103.093862 26.853956 
L 104.249228 26.485751 
L 103.320214 25.965445 
L 102.391199 25.445138 
L 101.462184 24.924832 
L 100.53317 24.404526 
L 99.604155 23.884219 
L 98.675141 23.363913 
L 97.746126 22.843607 
L 96.817112 22.3233 
L 95.888097 21.802994 
L 94.959083 21.282688 
L 94.030068 20.762382 
L 93.101053 20.242075 
L 92.172039 19.721769 
L 91.243024 19.201463 
L 90.31401 18.681156 
L 89.384995 18.16085 
L 88.776221 17.718041 
L 88.167448 17.275232 
L 87.558674 16.832424 
L 86.9499 16.389615 
L 86.341126 15.946806 
L 85.732352 15.503997 
L 85.123579 15.061188 
L 84.514805 14.618379 
L 83.906031 14.17557 
L 83.297257 13.732762 
L 82.688483 13.289953 
L 82.07971 12.847144 
L 81.470936 12.404335 
L 80.862162 11.961526 
L 80.253388 11.518717 
L 79.644615 11.075908 
L 79.035841 10.6331 
L 78.427067 10.190291 
L 77.818293 9.747482 
L 77.209519 9.304673 
L 76.600746 8.861864 
L 75.991972 8.419055 
L 75.383198 7.976246 
L 74.774424 7.533438 
L 74.16565 7.090629 
L 73.556877 6.64782 
L 72.948103 6.205011 
L 72.339329 5.762202 
L 71.730555 5.319393 
L 71.121782 4.876584 
L 70.513008 4.433776 
L 69.904234 3.990967 
L 68.878065 3.631847 
L 67.851895 3.272727 
" style="fill:none;stroke:#4169e1;stroke-linecap:square;stroke-width:0.505618;"/>
   </g>
   <g id="line2d_9">
    <path clip-path="url(#p42c49490cf)" d="M 68.459203 52.104392 
L 68.36894 50.948694 
L 68.278677 49.792996 
L 68.188414 48.637298 
L 68.098151 47.481601 
L 68.007888 46.325903 
L 67.917625 45.170205 
L 67.827362 44.014507 
L 67.737099 42.858809 
L 67.646836 41.703112 
L 67.556573 40.547414 
L 67.46631 39.391716 
L 67.376047 38.236018 
L 67.285784 37.08032 
L 67.195521 35.924623 
L 67.105258 34.768925 
L 67.014995 33.613227 
" style="fill:none;stroke:#4169e1;stroke-linecap:square;stroke-width:0.505618;"/>
   </g>
   <g id="line2d_10">
    <path clip-path="url(#p42c49490cf)" d="M 67.014995 33.613227 
L 66.965903 32.701059 
L 66.916812 31.788891 
L 66.86772 30.876723 
L 66.818628 29.964555 
L 66.769536 29.052387 
L 66.720445 28.140219 
L 66.671353 27.22805 
L 66.622261 26.315882 
L 66.573169 25.403714 
L 66.524078 24.491546 
L 66.474986 23.579378 
L 66.425894 22.66721 
L 66.376802 21.755042 
L 66.327711 20.842874 
L 66.278619 19.930706 
L 66.229527 19.018538 
L 66.180435 18.10637 
L 66.131343 17.194202 
L 66.082252 16.282034 
L 66.03316 15.369865 
L 65.984068 14.457697 
L 65.934976 13.545529 
L 65.885885 12.633361 
L 65.836793 11.721193 
L 65.787701 10.809025 
L 65.738609 9.896857 
L 65.689518 8.984689 
L 65.640426 8.072521 
L 65.591334 7.160353 
L 65.542242 6.248185 
L 65.493151 5.336017 
L 65.444059 4.423849 
" style="fill:none;stroke:#000000;stroke-linecap:square;stroke-width:0.505618;"/>
   </g>
   <g id="line2d_11">
    <path clip-path="url(#p42c49490cf)" d="M 21.383783 25.248484 
L 21.417522 24.439253 
L 21.451262 23.630022 
L 20.927479 22.55724 
L 20.403696 21.484457 
L 19.879914 20.411675 
L 19.356131 19.338892 
L 18.484258 18.196385 
L 17.612384 17.053878 
L 16.77713 16.50645 
L 15.941876 15.959021 
L 15.106621 15.411592 
L 14.271367 14.864164 
L 13.436113 14.316735 
L 12.600859 13.769306 
L 11.765605 13.221877 
L 10.93035 12.674449 
" style="fill:none;stroke:#4169e1;stroke-linecap:square;stroke-width:0.505618;"/>
   </g>
   <g id="line2d_12">
    <path clip-path="url(#p42c49490cf)" d="M 61.145997 60.217159 
L 60.079325 59.590146 
L 59.012653 58.963134 
L 57.945981 58.336121 
L 56.879309 57.709109 
L 55.812637 57.082096 
L 54.745965 56.455084 
L 53.679293 55.828071 
L 52.612621 55.201059 
L 51.545949 54.574046 
L 50.479276 53.947034 
L 49.412604 53.320021 
L 48.345932 52.693009 
L 47.27926 52.065996 
L 46.212588 51.438984 
L 45.145916 50.811971 
L 44.079244 50.184959 
L 43.012572 49.557946 
L 41.9459 48.930934 
L 40.879228 48.303921 
L 39.812556 47.676909 
L 38.745884 47.049896 
L 37.679212 46.422884 
L 36.61254 45.795871 
L 35.545868 45.168859 
L 34.479195 44.541846 
L 33.412523 43.914834 
L 32.345851 43.287821 
L 31.279179 42.660809 
L 30.212507 42.033796 
L 29.145835 41.406784 
L 28.079163 40.779771 
L 27.012491 40.152759 
" style="fill:none;stroke:#4169e1;stroke-linecap:square;stroke-width:0.505618;"/>
   </g>
   <g id="line2d_13">
    <path clip-path="url(#p42c49490cf)" d="M 61.889085 61.307978 
L 60.711603 61.715689 
L 59.534121 62.123401 
L 58.356639 62.531112 
L 57.179157 62.938823 
L 56.001675 63.346534 
L 54.824193 63.754246 
L 53.646711 64.161957 
L 52.469228 64.569668 
L 51.88383 63.701481 
L 51.298432 62.833295 
L 50.713034 61.965108 
L 50.127637 61.096921 
L 49.542239 60.228735 
L 48.956841 59.360548 
L 48.371443 58.492361 
L 47.786045 57.624175 
L 46.729427 57.903071 
L 45.67281 58.181968 
L 45.00111 57.470458 
L 44.329409 56.758949 
L 43.657708 56.04744 
L 42.986007 55.335931 
L 41.867261 55.307664 
L 40.748514 55.279398 
L 39.629767 55.251131 
L 38.51102 55.222864 
L 37.821061 54.7671 
L 37.131102 54.311336 
L 36.441143 53.855571 
L 35.751184 53.399807 
L 35.061225 52.944043 
L 34.371266 52.488278 
L 33.681307 52.032514 
L 32.991347 51.57675 
L 32.301388 51.120985 
L 31.611429 50.665221 
L 30.92147 50.209457 
L 30.231511 49.753692 
L 29.541552 49.297928 
L 28.851593 48.842164 
L 28.161634 48.386399 
L 27.471675 47.930635 
L 27.046847 46.760063 
L 26.62202 45.589492 
L 26.197192 44.418921 
L 25.772365 43.248349 
L 25.347537 42.077778 
L 24.92271 40.907206 
L 24.497882 39.736635 
L 24.073055 38.566064 
L 23.648227 37.395492 
L 23.223399 36.224921 
L 22.798572 35.05435 
L 22.373744 33.883778 
L 21.948917 32.713207 
L 21.524089 31.542635 
L 21.099262 30.372064 
L 20.674434 29.201493 
" style="fill:none;stroke:#008000;stroke-linecap:square;stroke-width:0.505618;"/>
   </g>
   <g id="line2d_14">
    <path clip-path="url(#p42c49490cf)" d="M 48.431206 56.325529 
L 48.604018 54.908971 
L 48.776829 53.492414 
L 48.780943 52.184077 
L 48.785058 50.875739 
L 48.562872 50.15427 
L 47.690587 49.303581 
L 46.497367 49.120522 
L 45.789664 49.357422 
L 45.193053 49.836607 
L 44.596443 50.315793 
L 43.66244 51.290315 
L 42.728436 52.264838 
L 41.930213 53.368579 
L 41.13199 54.47232 
" style="fill:none;stroke:#008000;stroke-linecap:square;stroke-width:0.505618;"/>
   </g>
   <g id="line2d_15">
    <path clip-path="url(#p42c49490cf)" d="M 32.688928 50.606534 
L 32.960488 49.97121 
L 33.610588 49.13129 
L 33.824544 48.10831 
L 33.532411 47.408377 
L 33.240278 46.708443 
L 32.67247 46.132344 
L 32.104661 45.556245 
L 30.960816 45.114749 
L 30.022698 45.044755 
L 29.08458 44.974762 
L 28.146462 44.904769 
L 27.208344 44.834775 
" style="fill:none;stroke:#008000;stroke-linecap:square;stroke-width:0.505618;"/>
   </g>
   <g id="line2d_16">
    <path clip-path="url(#p42c49490cf)" d="M 77.994267 63.818047 
L 77.268255 63.321094 
L 76.542242 62.824142 
L 75.816229 62.327189 
L 75.090216 61.830236 
L 74.131937 61.371241 
L 73.173658 60.912247 
L 72.215378 60.453252 
L 71.257099 59.994257 
L 70.14329 59.671211 
L 69.02948 59.348165 
L 68.03129 59.238867 
L 67.033099 59.12957 
L 65.651844 59.55276 
L 64.270588 59.975951 
L 63.421345 60.441676 
L 62.572101 60.907401 
" style="fill:none;stroke:#008000;stroke-linecap:square;stroke-width:0.505618;"/>
   </g>
   <g id="line2d_17">
    <path clip-path="url(#p42c49490cf)" d="M 76.042324 68.727273 
L 75.220185 68.284767 
L 74.398046 67.842261 
L 73.575907 67.399755 
L 72.753767 66.957249 
L 71.931628 66.514743 
L 71.109489 66.072237 
L 70.28735 65.629731 
L 69.465211 65.187225 
L 68.643072 64.744719 
L 67.820933 64.302213 
L 66.998794 63.859707 
L 66.176655 63.417201 
L 65.354516 62.974695 
L 64.532377 62.532189 
L 63.710238 62.089683 
L 62.888099 61.647177 
" style="fill:none;stroke:#008000;stroke-linecap:square;stroke-width:0.505618;"/>
   </g>
   <g id="line2d_18">
    <path clip-path="url(#p42c49490cf)" d="M 68.738993 53.959754 
L 67.72887 53.562138 
L 66.718747 53.164522 
L 65.708625 52.766906 
L 64.698502 52.36929 
L 63.518448 51.71889 
L 62.338395 51.06849 
L 61.429078 50.735753 
L 60.519762 50.403015 
L 59.697675 50.362634 
L 58.875587 50.322254 
L 58.03951 50.543002 
" style="fill:none;stroke:#008000;stroke-linecap:square;stroke-width:0.505618;"/>
   </g>
   <g id="line2d_19">
    <path clip-path="url(#p42c49490cf)" d="M 62.939942 39.822175 
L 61.770586 40.263672 
L 60.60123 40.705168 
L 59.431874 41.146664 
L 58.262519 41.588161 
L 57.093163 42.029657 
L 55.923807 42.471154 
L 54.754451 42.91265 
L 53.585095 43.354147 
" style="fill:none;stroke:#008000;stroke-linecap:square;stroke-width:0.505618;"/>
   </g>
   <g id="line2d_20">
    <path clip-path="url(#p42c49490cf)" d="M 63.369501 39.267612 
L 62.571278 39.072439 
L 61.773055 38.877265 
L 60.974832 38.682091 
L 60.176609 38.486917 
L 59.378385 38.291744 
L 58.580162 38.09657 
L 57.781939 37.901396 
L 56.983716 37.706222 
L 56.185492 37.511049 
L 55.387269 37.315875 
L 54.589046 37.120701 
L 53.790823 36.925527 
L 52.9926 36.730354 
L 52.194376 36.53518 
L 51.396153 36.340006 
L 50.59793 36.144832 
" style="fill:none;stroke:#008000;stroke-linecap:square;stroke-width:0.505618;"/>
   </g>
   <g id="line2d_21">
    <path clip-path="url(#p42c49490cf)" d="M 63.288033 58.923897 
L 62.686331 58.232713 
L 62.084629 57.541529 
L 61.482928 56.850344 
L 60.881226 56.15916 
L 60.279524 55.467976 
L 59.677822 54.776792 
L 59.07612 54.085607 
L 58.474418 53.394423 
L 57.872716 52.703239 
L 57.271014 52.012054 
L 56.669312 51.32087 
L 56.06761 50.629686 
L 55.465909 49.938502 
L 54.864207 49.247317 
L 54.262505 48.556133 
L 53.660803 47.864949 
L 53.253771 47.177466 
L 52.846739 46.489983 
L 52.439707 45.802501 
L 52.032674 45.115018 
L 51.625642 44.427535 
L 51.21861 43.740052 
L 50.811578 43.05257 
L 50.404546 42.365087 
L 49.997514 41.677604 
L 49.590482 40.990122 
L 49.18345 40.302639 
L 48.776417 39.615156 
L 48.369385 38.927674 
L 47.962353 38.240191 
L 47.555321 37.552708 
L 47.148289 36.865225 
" style="fill:none;stroke:#4169e1;stroke-linecap:square;stroke-width:0.505618;"/>
   </g>
   <g id="line2d_22">
    <path clip-path="url(#p42c49490cf)" d="M 47.148289 36.865225 
L 46.058807 36.44439 
L 44.969325 36.023555 
L 43.879843 35.60272 
L 42.79036 35.181885 
L 41.700878 34.76105 
L 40.611396 34.340216 
L 39.521914 33.919381 
L 38.432432 33.498546 
L 37.34295 33.077711 
L 36.253468 32.656876 
L 35.163986 32.236041 
L 34.074503 31.815206 
L 32.985021 31.394371 
L 31.895539 30.973536 
L 30.806057 30.552701 
L 29.716575 30.131866 
L 28.627093 29.711031 
L 27.537611 29.290196 
L 26.448129 28.869361 
L 25.358647 28.448526 
L 24.269164 28.027691 
L 23.179682 27.606856 
L 22.0902 27.186021 
L 21.000718 26.765186 
L 19.911236 26.344351 
L 18.821754 25.923516 
L 17.732272 25.502681 
L 16.64279 25.081846 
L 15.553307 24.661011 
L 14.463825 24.240176 
L 13.374343 23.819341 
L 12.284861 23.398506 
L 11.678273 22.981103 
L 11.071685 22.563701 
L 10.465097 22.146298 
L 9.858509 21.728895 
L 9.251921 21.311493 
L 8.645334 20.89409 
L 8.038746 20.476688 
L 7.432158 20.059285 
L 6.875664 19.310895 
L 6.319171 18.562504 
L 5.762678 17.814114 
L 5.206185 17.065723 
" style="fill:none;stroke:#008000;stroke-linecap:square;stroke-width:0.505618;"/>
   </g>
   <g id="line2d_23">
    <path clip-path="url(#p42c49490cf)" d="M 44.598089 44.79924 
L 43.955293 44.348456 
L 43.312497 43.897672 
L 42.669701 43.446888 
L 42.026905 42.996104 
L 41.384109 42.54532 
L 40.741313 42.094536 
L 40.098517 41.643752 
L 39.455721 41.192968 
L 38.812925 40.742184 
L 38.170129 40.2914 
L 37.527333 39.840616 
L 36.884537 39.389832 
L 36.241741 38.939047 
L 35.598945 38.488263 
L 34.956149 38.037479 
L 34.313353 37.586695 
L 33.670557 37.135911 
L 33.027761 36.685127 
L 32.384965 36.234343 
L 31.742169 35.783559 
L 31.099373 35.332775 
L 30.456577 34.881991 
L 29.813781 34.431207 
L 29.170985 33.980423 
L 28.528189 33.529639 
L 27.885393 33.078855 
L 27.242597 32.628071 
L 26.599801 32.177287 
L 25.957005 31.726503 
L 25.314209 31.275718 
L 24.671413 30.824934 
L 24.028617 30.37415 
" style="fill:none;stroke:#000000;stroke-dasharray:1.870786,0.808989;stroke-dashoffset:0;stroke-width:0.505618;"/>
   </g>
  </g>
 </g>
 <defs>
  <clipPath id="p42c49490cf">
   <rect height="72" width="109.213477" x="0" y="0"/>
  </clipPath>
 </defs>
</svg>
