<?xml version="1.0" encoding="utf-8" standalone="no"?>
<!DOCTYPE svg PUBLIC "-//W3C//DTD SVG 1.1//EN"
  "http://www.w3.org/Graphics/SVG/1.1/DTD/svg11.dtd">
<svg height="33.507889pt" version="1.1" viewBox="0 0 72 33.507889" width="72pt" xmlns="http://www.w3.org/2000/svg" xmlns:xlink="http://www.w3.org/1999/xlink">
 <metadata>
  <rdf:RDF xmlns:cc="http://creativecommons.org/ns#" xmlns:dc="http://purl.org/dc/elements/1.1/" xmlns:rdf="http://www.w3.org/1999/02/22-rdf-syntax-ns#">
   <cc:Work>
    <dc:type rdf:resource="http://purl.org/dc/dcmitype/StillImage"/>
    <dc:date>2022-04-19T00:45:46.413428</dc:date>
    <dc:format>image/svg+xml</dc:format>
    <dc:creator>
     <cc:Agent>
      <dc:title>Matplotlib v3.4.3, https://matplotlib.org/</dc:title>
     </cc:Agent>
    </dc:creator>
   </cc:Work>
  </rdf:RDF>
 </metadata>
 <defs>
  <style type="text/css">*{stroke-linecap:butt;stroke-linejoin:round;}</style>
 </defs>
 <g id="figure_1">
  <g id="patch_1">
   <path d="M 0 33.507889 
L 72 33.507889 
L 72 0 
L 0 0 
z
" style="fill:#ffffff;"/>
  </g>
  <g id="axes_1">
   <g id="line2d_1">
    <path clip-path="url(#p063abc3566)" d="M 45.216368 31.456601 
L 45.691745 30.176656 
L 46.534224 27.624814 
L 47.376703 25.072973 
L 48.794208 21.493831 
L 50.211713 17.914689 
L 50.902347 16.040903 
L 51.592981 14.167117 
L 52.279086 12.30587 
L 52.965191 10.444623 
L 53.651296 8.583377 
L 54.337401 6.72213 
" style="fill:none;stroke:#808080;stroke-linecap:square;stroke-width:0.4;"/>
   </g>
   <g id="line2d_2">
    <path clip-path="url(#p063abc3566)" d="M 38.056374 31.984803 
L 36.908911 31.107976 
L 34.227041 28.614961 
L 31.545171 26.121946 
L 30.301834 24.54957 
L 29.058498 22.977193 
L 27.815162 21.404817 
L 26.571826 19.83244 
L 25.32849 18.260064 
L 24.085154 16.687687 
L 22.841818 15.115311 
L 21.598482 13.542934 
" style="fill:none;stroke:#808080;stroke-linecap:square;stroke-width:0.4;"/>
   </g>
   <g id="line2d_3">
    <path clip-path="url(#p063abc3566)" d="M 21.167967 13.007301 
L 20.154879 13.339518 
L 19.14179 13.671734 
L 18.128701 14.00395 
L 17.115613 14.336166 
L 16.36836 14.579755 
L 15.621107 14.823344 
L 14.873855 15.066933 
L 14.126602 15.310523 
L 13.379349 15.554112 
L 12.632097 15.797701 
L 11.884844 16.04129 
L 11.137591 16.284879 
L 10.100561 16.666169 
L 9.063531 17.047459 
L 8.026501 17.428749 
L 6.989471 17.810039 
L 6.41423 18.191948 
L 5.838989 18.573858 
L 5.263747 18.955767 
L 4.688506 19.337676 
L 4.016852 19.990343 
L 3.345199 20.64301 
L 3.272727 21.066563 
L 3.527887 21.609626 
L 3.783046 22.15269 
L 4.038206 22.695754 
L 4.293365 23.238817 
L 4.951646 23.728008 
L 5.650693 23.838231 
L 6.349739 23.948453 
L 7.048785 24.058676 
L 7.747831 24.168899 
L 8.451407 24.453125 
L 9.154983 24.737351 
L 9.759773 25.52439 
L 10.03456 26.114515 
L 10.309348 26.70464 
L 10.770921 27.16225 
L 11.493477 27.410406 
L 12.216034 27.658562 
L 12.93859 27.906718 
L 13.661146 28.154874 
L 14.757275 28.503654 
L 15.853404 28.852435 
L 16.949532 29.201216 
L 18.045661 29.549996 
L 18.626942 29.699462 
L 19.208222 29.848929 
L 19.789502 29.998395 
L 20.370783 30.147861 
L 20.952063 30.297328 
L 21.533344 30.446794 
L 22.114624 30.59626 
L 22.695904 30.745727 
L 23.371441 30.872049 
L 24.046977 30.998372 
L 24.722513 31.124695 
L 25.398049 31.251017 
L 26.039938 31.358144 
L 26.681827 31.46527 
L 27.015713 31.52162 
L 27.622445 31.477732 
L 28.229176 31.433845 
L 28.835908 31.389957 
L 29.442639 31.346069 
L 30.049371 31.302181 
L 30.656103 31.258293 
L 31.262834 31.214405 
L 31.869566 31.170518 
" style="fill:none;stroke:#008000;stroke-linecap:square;stroke-width:0.4;"/>
   </g>
   <g id="line2d_4">
    <path clip-path="url(#p063abc3566)" d="M 17.115613 14.336166 
L 16.409449 14.973817 
L 15.703285 15.611468 
L 14.997121 16.249118 
L 14.290957 16.886769 
L 14.150112 17.511416 
L 14.009267 18.136063 
L 13.868423 18.76071 
L 13.727578 19.385357 
L 13.561498 20.28231 
L 13.395418 21.179263 
L 13.21273 21.777128 
L 13.030042 22.374993 
L 12.847354 22.972858 
L 12.664666 23.570724 
L 12.664666 24.700197 
L 12.664666 25.82967 
L 12.913786 26.410971 
L 13.162906 26.992272 
L 13.412026 27.573573 
L 13.661146 28.154874 
" style="fill:none;stroke:#000000;stroke-linecap:square;stroke-width:0.4;"/>
   </g>
   <g id="line2d_5">
    <path clip-path="url(#p063abc3566)" d="M 23.03928 13.537361 
L 24.034251 13.634116 
L 25.029222 13.73087 
L 26.024193 13.827625 
L 27.019164 13.924379 
L 28.112704 14.030577 
L 29.206245 14.136775 
L 29.786663 14.214565 
L 30.36708 14.292356 
L 30.947498 14.370146 
L 31.527915 14.447937 
L 32.108333 14.525728 
L 32.688751 14.603518 
L 33.269168 14.681309 
L 33.849586 14.759099 
L 34.638359 15.294577 
L 35.427131 15.830055 
L 36.215904 16.365533 
L 37.004677 16.901011 
" style="fill:none;stroke:#008000;stroke-linecap:square;stroke-width:0.4;"/>
   </g>
   <g id="line2d_6">
    <path clip-path="url(#p063abc3566)" d="M 23.692385 12.741652 
L 24.506178 12.392872 
L 25.31997 12.044091 
L 26.133763 11.695311 
L 26.947555 11.34653 
L 27.851506 10.774982 
L 28.755456 10.203434 
L 29.659406 9.631886 
L 30.563357 9.060338 
L 31.15499 8.856147 
L 31.746624 8.651956 
L 32.338257 8.447766 
L 32.92989 8.243575 
L 33.952685 7.930245 
L 34.97548 7.616916 
L 35.609173 7.550503 
L 36.242865 7.484091 
L 36.876558 7.417679 
L 37.510251 7.351266 
L 38.340435 7.602983 
L 39.17062 7.854699 
L 40.000805 8.106416 
L 40.83099 8.358132 
L 41.720921 8.977051 
L 42.610851 9.59597 
" style="fill:none;stroke:#008000;stroke-linecap:square;stroke-width:0.4;"/>
   </g>
   <g id="line2d_7">
    <path clip-path="url(#p063abc3566)" d="M 37.004677 16.901011 
L 37.111658 17.790843 
L 37.144874 18.953445 
L 37.17809 20.116047 
L 37.211306 21.278649 
L 37.244522 22.441251 
L 37.294346 23.388051 
L 37.34417 24.334852 
L 37.393995 25.281653 
L 37.443819 26.228453 
L 37.427211 26.926014 
L 37.410603 27.623576 
L 37.393995 28.321137 
L 37.377387 29.018698 
L 37.408877 30.071077 
L 37.440368 31.123456 
" style="fill:none;stroke:#4169e1;stroke-linecap:square;stroke-width:0.4;"/>
   </g>
   <g id="line2d_8">
    <path clip-path="url(#p063abc3566)" d="M 21.598482 13.542934 
L 22.394803 14.157209 
L 23.191125 14.771484 
L 23.772406 15.452481 
L 24.353686 16.133477 
L 24.934966 16.814474 
L 25.516247 17.495471 
L 26.064311 18.093336 
L 26.612375 18.691202 
L 27.16044 19.289067 
L 27.708504 19.886932 
L 28.323001 20.567929 
L 28.937497 21.248926 
L 29.551994 21.929923 
L 30.16649 22.610919 
L 30.482042 23.208785 
L 30.797594 23.80665 
L 31.113147 24.404515 
L 31.428699 25.002381 
L 31.545171 26.121946 
L 31.653015 27.156677 
L 31.760859 28.191408 
L 32.380748 28.901199 
L 33.000636 29.61099 
L 33.620525 30.320781 
L 34.240414 31.030572 
" style="fill:none;stroke:#4169e1;stroke-linecap:square;stroke-width:0.4;"/>
   </g>
   <g id="line2d_9">
    <path clip-path="url(#p063abc3566)" d="M 40.430672 12.148431 
L 40.731558 12.845373 
L 41.032443 13.542315 
L 41.333329 14.239257 
L 41.634214 14.936199 
L 41.935099 15.633141 
L 42.235985 16.330083 
L 42.53687 17.027024 
L 42.837756 17.723966 
L 42.875285 18.522152 
L 42.912815 19.320338 
L 42.950345 20.118524 
L 42.987875 20.91671 
L 42.914972 22.052065 
L 42.842069 23.187421 
L 42.769167 24.322777 
L 42.696264 25.458133 
L 42.703382 26.165292 
L 42.710499 26.872451 
L 42.717617 27.57961 
L 42.724735 28.28677 
L 42.889521 29.18589 
L 43.054307 30.08501 
" style="fill:none;stroke:#4169e1;stroke-linecap:square;stroke-width:0.4;"/>
   </g>
   <g id="line2d_10">
    <path clip-path="url(#p063abc3566)" d="M 54.389167 4.178958 
L 53.789337 3.51499 
L 53.189507 2.851022 
L 52.589678 2.187054 
L 51.989848 1.523086 
L 51.021623 1.543985 
L 50.053397 1.564884 
L 49.085172 1.585783 
L 48.116946 1.606682 
L 47.432567 2.149126 
L 46.748187 2.69157 
L 46.063808 3.234015 
L 45.379428 3.776459 
L 44.974797 4.25729 
L 44.570165 4.738121 
L 44.165534 5.218952 
L 43.760902 5.699783 
L 43.667293 6.414683 
L 43.573685 7.129583 
L 43.480076 7.844482 
L 43.386467 8.559382 
L 43.463252 9.388529 
L 43.540037 10.217676 
" style="fill:none;stroke:#008000;stroke-linecap:square;stroke-width:0.4;"/>
   </g>
   <g id="line2d_11">
    <path clip-path="url(#p063abc3566)" d="M 42.610851 9.59597 
L 43.540037 10.217676 
L 44.332477 11.027937 
L 45.124916 11.838198 
L 46.136495 12.342869 
L 47.148074 12.84754 
L 48.111338 13.198333 
L 49.074603 13.549126 
L 49.981789 14.184765 
L 50.888974 14.820403 
" style="fill:none;stroke:#008000;stroke-linecap:square;stroke-width:0.4;"/>
   </g>
   <g id="line2d_12">
    <path clip-path="url(#p063abc3566)" d="M 54.945643 6.699219 
L 54.693719 7.251416 
L 54.441795 7.803613 
L 54.189871 8.35581 
L 53.937946 8.908007 
L 53.655179 9.662847 
L 53.372411 10.417687 
L 53.089644 11.172527 
L 52.806876 11.927367 
L 52.533815 12.51842 
L 52.260753 13.109474 
L 51.574864 13.964939 
L 50.888974 14.820403 
" style="fill:none;stroke:#4169e1;stroke-linecap:square;stroke-width:0.4;"/>
   </g>
   <g id="line2d_13">
    <path clip-path="url(#p063abc3566)" d="M 54.193322 5.741272 
L 53.484569 6.18015 
L 52.775817 6.619028 
L 52.067065 7.057907 
L 51.358312 7.496785 
L 50.87668 8.011674 
L 50.395048 8.526562 
L 49.913415 9.041451 
L 49.431783 9.55634 
L 49.132839 10.652375 
L 48.833895 11.748409 
L 49.25535 12.448757 
L 49.676805 13.149105 
L 50.28289 13.984754 
L 50.888974 14.820403 
" style="fill:none;stroke:#4169e1;stroke-linecap:square;stroke-width:0.4;"/>
   </g>
   <g id="line2d_14">
    <path clip-path="url(#p063abc3566)" d="M 55.410667 6.16792 
L 56.417501 6.079835 
L 57.424335 5.99175 
L 58.431168 5.903665 
L 59.438002 5.815579 
L 60.36007 5.768673 
L 61.282138 5.721766 
L 62.204207 5.67486 
L 63.126275 5.627953 
L 63.523573 6.18255 
L 63.920871 6.737146 
L 64.318169 7.291743 
L 64.715467 7.84634 
L 65.112766 8.400936 
L 65.510064 8.955533 
L 65.907362 9.51013 
L 66.30466 10.064727 
L 66.547633 10.669094 
L 66.790606 11.273461 
L 67.033579 11.877828 
L 67.276552 12.482195 
L 67.519525 13.086563 
L 67.762498 13.69093 
L 68.005471 14.295297 
L 68.248444 14.899664 
L 68.368151 15.783304 
L 68.487859 16.666943 
L 68.607566 17.550582 
L 68.727273 18.434222 
L 68.354132 19.004996 
L 67.980991 19.57577 
L 67.60785 20.146544 
L 67.234709 20.717318 
L 66.366563 21.158673 
L 65.498416 21.600028 
L 64.63027 22.041384 
L 63.762124 22.482739 
L 62.936253 22.788793 
L 62.110382 23.094847 
L 61.284511 23.4009 
L 60.45864 23.706954 
L 59.777819 24.188637 
L 59.096999 24.670319 
L 58.416178 25.152002 
L 57.735357 25.633684 
L 57.054537 26.115367 
L 56.373716 26.597049 
L 55.692896 27.078732 
L 55.012075 27.560414 
L 54.397579 27.909195 
L 53.783082 28.257975 
L 53.168586 28.606756 
L 52.554089 28.955537 
L 51.889769 29.104925 
L 51.225448 29.254314 
L 50.561128 29.403703 
L 49.896807 29.553092 
L 49.132839 29.553092 
L 48.36887 29.553092 
L 47.83612 29.946922 
L 47.303369 30.340751 
L 47.268859 30.343228 
" style="fill:none;stroke:#008000;stroke-linecap:square;stroke-width:0.4;"/>
   </g>
   <g id="line2d_15">
    <path clip-path="url(#p063abc3566)" d="M 54.945643 6.699219 
L 55.738945 6.859908 
L 56.532247 7.020598 
L 57.059821 7.553135 
L 57.587395 8.085672 
L 58.204696 9.037117 
L 58.821996 9.988561 
L 58.517012 11.026544 
L 58.212029 12.064526 
L 57.907045 13.102508 
L 57.602062 14.14049 
L 57.203685 14.75492 
L 56.805309 15.369349 
L 56.406932 15.983779 
L 56.008556 16.598209 
L 55.925516 17.511726 
L 55.842476 18.425243 
L 55.759435 19.33876 
L 55.676395 20.252277 
L 55.606512 21.272766 
L 55.536629 22.293255 
L 55.167802 22.94747 
L 54.798975 23.601685 
L 54.149105 23.893806 
L 53.499236 24.185927 
L 52.849367 24.478049 
L 52.199497 24.77017 
" style="fill:none;stroke:#008000;stroke-linecap:square;stroke-width:0.4;"/>
   </g>
   <g id="line2d_16">
    <path clip-path="url(#p063abc3566)" d="M 58.821996 9.988561 
L 59.082008 10.516686 
L 59.342021 11.044811 
L 59.602033 11.572935 
L 59.862046 12.10106 
L 60.122058 12.629185 
L 60.382071 13.15731 
L 60.642083 13.685434 
L 60.902095 14.213559 
L 61.247413 14.964683 
L 61.59273 15.715808 
L 61.938047 16.466932 
L 62.283364 17.218057 
L 62.543485 18.202321 
L 62.803605 19.186585 
L 62.637093 20.00087 
L 62.120088 20.577991 
L 61.603083 21.155113 
L 61.086078 21.732234 
L 60.569072 22.309355 
L 59.84781 22.470896 
L 59.126548 22.632437 
L 58.405286 22.793979 
L 57.684024 22.95552 
L 56.962761 23.117061 
L 56.241499 23.278603 
L 55.520237 23.440144 
L 54.798975 23.601685 
" style="fill:none;stroke:#008000;stroke-linecap:square;stroke-width:0.4;"/>
   </g>
   <g id="line2d_17">
    <path clip-path="url(#p063abc3566)" d="M 21.598482 13.542934 
L 21.519108 14.34917 
L 21.439735 15.155406 
L 21.464108 15.823553 
L 21.48848 16.491701 
L 21.512853 17.159849 
L 21.537226 17.827997 
L 21.725306 18.751112 
L 21.913387 19.674227 
L 22.101467 20.597342 
L 22.289547 21.520458 
L 22.417235 22.322204 
L 22.544923 23.12395 
L 22.67261 23.925697 
L 22.800298 24.727443 
L 22.860906 25.310447 
L 22.921515 25.893451 
L 22.982123 26.476454 
L 23.042731 27.059458 
L 23.273518 28.031028 
L 23.504305 29.002598 
L 23.977741 29.564703 
L 24.451177 30.126808 
L 24.924613 30.688912 
L 25.398049 31.251017 
" style="fill:none;stroke:#000000;stroke-linecap:square;stroke-width:0.4;"/>
   </g>
   <g id="line2d_18">
    <path clip-path="url(#p063abc3566)" d="M 27.019164 13.924379 
L 27.684455 13.745577 
L 28.349746 13.566774 
L 29.015037 13.387972 
L 29.680328 13.20917 
L 30.345619 13.030368 
L 31.01091 12.851565 
L 31.676201 12.672763 
L 32.341492 12.493961 
L 33.473425 12.529412 
L 34.605358 12.564862 
L 35.737291 12.600313 
L 36.869224 12.635764 
L 37.759586 12.513931 
L 38.649948 12.392098 
L 39.54031 12.270264 
L 40.430672 12.148431 
L 41.208014 11.665742 
L 41.985355 11.183054 
L 42.762696 10.700365 
L 43.540037 10.217676 
" style="fill:none;stroke:#008000;stroke-linecap:square;stroke-width:0.4;"/>
   </g>
   <g id="line2d_19">
    <path clip-path="url(#p063abc3566)" d="M 54.389167 4.178958 
L 53.330568 4.003716 
L 52.271969 3.828474 
L 51.360469 4.009134 
L 50.44897 4.189794 
L 49.53747 4.370454 
L 48.625971 4.551114 
L 47.792982 5.211212 
L 46.959993 5.87131 
L 46.912973 6.767024 
L 46.865953 7.662738 
L 47.211702 8.25983 
L 47.55745 8.856921 
L 47.903199 9.454012 
L 48.248948 10.051104 
L 48.541421 10.899756 
L 48.833895 11.748409 
" style="fill:none;stroke:#008000;stroke-linecap:square;stroke-width:0.4;"/>
   </g>
   <g id="line2d_20">
    <path clip-path="url(#p063abc3566)" d="M 50.888974 14.820403 
L 51.528922 15.042629 
L 52.16887 15.264854 
L 52.808817 15.48708 
L 53.448765 15.709306 
L 54.088713 15.931531 
L 54.72866 16.153757 
L 55.368608 16.375983 
L 56.008556 16.598209 
" style="fill:none;stroke:#008000;stroke-linecap:square;stroke-width:0.4;"/>
   </g>
   <g id="line2d_21">
    <path clip-path="url(#p063abc3566)" d="M 50.888974 14.820403 
L 51.050633 15.456738 
L 51.212291 16.093073 
L 51.37395 16.729408 
L 51.535608 17.365743 
L 51.697267 18.002077 
L 51.858925 18.638412 
L 52.020584 19.274747 
L 52.182242 19.911082 
L 52.39146 20.777073 
L 52.600678 21.643065 
L 52.809896 22.509056 
L 53.019114 23.375047 
L 52.609306 24.072609 
L 52.199497 24.77017 
L 51.705787 25.159974 
L 51.212076 25.549779 
L 50.718365 25.939583 
L 50.224654 26.329388 
L 49.843748 26.803252 
L 49.462842 27.277117 
L 49.081936 27.750982 
L 48.701031 28.224847 
L 48.534951 28.888969 
L 48.36887 29.553092 
" style="fill:none;stroke:#008000;stroke-linecap:square;stroke-width:0.4;"/>
   </g>
   <g id="line2d_22">
    <path clip-path="url(#p063abc3566)" d="M 50.888974 14.820403 
L 50.493833 15.844607 
L 50.098692 16.868812 
L 49.703551 17.893016 
L 49.308409 18.91722 
L 48.913268 19.941424 
L 48.518127 20.965629 
L 48.122986 21.989833 
L 47.727844 23.014037 
L 47.682334 23.785287 
L 47.636824 24.556536 
L 47.591314 25.327785 
L 47.545803 26.099035 
L 47.75157 26.962549 
L 47.957337 27.826063 
L 48.163104 28.689578 
L 48.36887 29.553092 
" style="fill:none;stroke:#008000;stroke-linecap:square;stroke-width:0.4;"/>
   </g>
   <g id="line2d_23">
    <path clip-path="url(#p063abc3566)" d="M 25.996801 29.268866 
L 26.339314 30.367068 
L 26.681827 31.46527 
" style="fill:none;stroke:#008000;stroke-linecap:square;stroke-width:0.4;"/>
   </g>
  </g>
 </g>
 <defs>
  <clipPath id="p063abc3566">
   <rect height="33.507889" width="72" x="0" y="0"/>
  </clipPath>
 </defs>
</svg>
