<?xml version="1.0" encoding="utf-8" standalone="no"?>
<!DOCTYPE svg PUBLIC "-//W3C//DTD SVG 1.1//EN"
  "http://www.w3.org/Graphics/SVG/1.1/DTD/svg11.dtd">
<svg height="72pt" version="1.1" viewBox="0 0 62.5101 72" width="62.5101pt" xmlns="http://www.w3.org/2000/svg" xmlns:xlink="http://www.w3.org/1999/xlink">
 <metadata>
  <rdf:RDF xmlns:cc="http://creativecommons.org/ns#" xmlns:dc="http://purl.org/dc/elements/1.1/" xmlns:rdf="http://www.w3.org/1999/02/22-rdf-syntax-ns#">
   <cc:Work>
    <dc:type rdf:resource="http://purl.org/dc/dcmitype/StillImage"/>
    <dc:date>2022-04-19T00:46:09.732827</dc:date>
    <dc:format>image/svg+xml</dc:format>
    <dc:creator>
     <cc:Agent>
      <dc:title>Matplotlib v3.4.3, https://matplotlib.org/</dc:title>
     </cc:Agent>
    </dc:creator>
   </cc:Work>
  </rdf:RDF>
 </metadata>
 <defs>
  <style type="text/css">*{stroke-linecap:butt;stroke-linejoin:round;}</style>
 </defs>
 <g id="figure_1">
  <g id="patch_1">
   <path d="M 0 72 
L 62.5101 72 
L 62.5101 0 
L 0 0 
z
" style="fill:#ffffff;"/>
  </g>
  <g id="axes_1">
   <g id="line2d_1">
    <path clip-path="url(#pf4dfc7f857)" d="M 57.502977 61.863807 
L 55.982585 60.656834 
L 54.462194 59.449861 
L 52.941802 58.242888 
L 51.421411 57.035915 
" style="fill:none;stroke:#808080;stroke-linecap:square;stroke-width:0.4;"/>
   </g>
   <g id="line2d_2">
    <path clip-path="url(#pf4dfc7f857)" d="M 55.889654 62.640812 
L 54.697957 61.637396 
L 53.506259 60.633981 
L 52.314561 59.630565 
L 51.122863 58.62715 
" style="fill:none;stroke:#808080;stroke-linecap:square;stroke-width:0.4;"/>
   </g>
   <g id="line2d_3">
    <path clip-path="url(#pf4dfc7f857)" d="M 59.668732 61.891136 
L 58.93937 61.186225 
L 58.111237 60.386131 
L 57.283103 59.586037 
L 56.317377 58.653066 
L 55.522397 57.884778 
L 54.727416 57.11649 
L 53.457646 55.889962 
L 52.409468 54.877123 
L 51.361289 53.864283 
L 50.275663 52.815162 
L 49.190037 51.76604 
L 48.098914 50.711971 
L 47.007792 49.657901 
L 45.545117 48.244308 
L 44.082442 46.830715 
L 43.160862 45.940269 
L 42.239283 45.049823 
L 41.317703 44.159377 
L 40.396123 43.268932 
L 38.912492 41.835312 
L 37.42886 40.401693 
L 36.567746 39.569676 
L 35.706632 38.737659 
L 34.845517 37.905641 
L 33.984403 37.073624 
L 32.786092 35.91542 
L 31.997209 35.15314 
L 31.208327 34.39086 
L 30.419445 33.62858 
L 29.630562 32.8663 
L 28.721694 31.987987 
L 27.812826 31.109675 
L 26.451327 29.794091 
L 25.476325 28.851931 
L 24.501323 27.909771 
L 23.526321 26.967611 
L 22.551319 26.025451 
L 21.149625 24.670758 
L 19.969522 23.530459 
L 19.160112 22.748271 
L 18.162779 21.784672 
L 17.106441 20.763822 
L 16.050103 19.742972 
L 14.993765 18.722122 
L 13.937427 17.701272 
" style="fill:none;stroke:#808080;stroke-linecap:square;stroke-width:0.4;"/>
   </g>
   <g id="line2d_4">
    <path clip-path="url(#pf4dfc7f857)" d="M 56.619016 66.866042 
L 55.708946 65.912809 
L 54.910186 65.075962 
L 53.788144 63.900323 
L 52.908993 62.979132 
L 52.029842 62.05794 
L 51.123035 61.108006 
L 50.216228 60.158071 
L 49.146921 59.037799 
L 48.077614 57.917526 
L 46.656166 56.428306 
L 45.234717 54.939085 
L 43.853808 53.492273 
L 42.472898 52.04546 
L 41.133902 50.642469 
L 39.794907 49.239478 
L 38.652938 48.042989 
L 37.51097 46.8465 
L 36.369001 45.650011 
L 35.227032 44.453523 
L 34.469327 43.65979 
L 33.711622 42.866057 
L 32.558488 41.657789 
L 31.405354 40.44952 
L 30.25222 39.241251 
L 29.099086 38.032983 
L 28.25618 37.149722 
L 27.413274 36.266462 
L 26.653422 35.470374 
L 25.89357 34.674285 
L 25.133717 33.878197 
L 24.373865 33.082108 
L 23.419476 32.082227 
L 22.465087 31.082345 
L 21.463632 30.032988 
L 20.462176 28.98363 
L 19.529174 28.006013 
L 18.596171 27.028396 
L 17.663168 26.050778 
L 16.730165 25.073161 
L 16.227548 24.546362 
L 15.427758 23.708336 
L 14.627968 22.870311 
L 13.828177 22.032286 
L 13.028387 21.194261 
L 12.205922 20.33244 
L 11.383458 19.47062 
L 11.033034 19.103557 
" style="fill:none;stroke:#808080;stroke-linecap:square;stroke-width:0.4;"/>
   </g>
   <g id="line2d_5">
    <path clip-path="url(#pf4dfc7f857)" d="M 54.912591 67.943671 
L 53.039886 67.168551 
L 51.624965 66.582852 
L 50.210044 65.997153 
L 48.633997 65.34478 
L 47.05795 64.692407 
L 45.994569 64.25219 
L 44.931188 63.811974 
L 43.867807 63.371757 
L 42.804427 62.931541 
L 41.079621 62.217676 
L 39.354816 61.503812 
L 37.827725 60.8717 
L 36.300634 60.239588 
L 34.755678 59.599937 
L 33.210723 58.960287 
L 31.767115 58.362808 
L 30.323508 57.765329 
L 29.099086 57.258438 
L 27.874665 56.751547 
L 26.650244 56.244656 
L 25.425823 55.737765 
L 24.163783 55.215443 
L 22.901743 54.69312 
L 21.466466 54.09894 
L 20.03119 53.504759 
L 18.595913 52.910579 
L 17.160637 52.316399 
L 15.750354 51.732585 
L 15.2017 51.505468 
L 14.652703 51.27835 
" style="fill:none;stroke:#808080;stroke-linecap:square;stroke-width:0.4;"/>
   </g>
   <g id="line2d_6">
    <path clip-path="url(#pf4dfc7f857)" d="M 58.005938 56.688171 
L 58.52642 54.876887 
" style="fill:none;stroke:#808080;stroke-linecap:square;stroke-width:0.4;"/>
   </g>
   <g id="line2d_7">
    <path clip-path="url(#pf4dfc7f857)" d="M 39.032564 46.538572 
L 39.24402 46.849563 
L 39.455477 47.160553 
L 39.666933 47.471544 
L 39.87839 47.782534 
L 40.150312 48.072792 
L 40.422233 48.36305 
L 40.763038 48.704197 
L 41.104185 49.06325 
L 41.334365 49.312042 
L 41.564889 49.551882 
L 41.822897 49.892558 
L 42.099113 50.325588 
L 42.278963 50.643411 
L 42.458813 50.961234 
L 42.607829 51.318755 
L 42.756845 51.676277 
L 42.90586 52.033798 
L 43.054876 52.391319 
" style="fill:none;stroke:#4169e1;stroke-linecap:square;stroke-width:0.4;"/>
   </g>
   <g id="line2d_8">
    <path clip-path="url(#pf4dfc7f857)" d="M 37.632931 46.89951 
L 37.897724 47.17787 
L 38.162517 47.45623 
L 38.42731 47.73459 
L 38.692103 48.01295 
L 39.056097 48.422892 
L 39.420091 48.832834 
L 39.774809 49.219923 
L 40.129527 49.607012 
L 40.498159 50.003289 
L 40.83003 50.380719 
L 41.055744 50.615728 
L 41.281458 50.850738 
L 41.507172 51.085748 
L 41.732886 51.320758 
L 42.053421 51.585571 
L 42.373955 51.850384 
L 42.71871 52.130747 
L 43.063465 52.41111 
L 43.303093 52.650596 
L 43.542721 52.890082 
L 43.782349 53.129568 
L 44.021977 53.369054 
L 44.402118 53.729521 
L 44.782258 54.089987 
L 45.079431 54.425244 
L 45.376604 54.760501 
L 45.73596 55.18882 
L 46.095316 55.617139 
L 46.509984 55.995039 
L 46.924652 56.37294 
L 47.320768 56.815159 
L 47.716884 57.257378 
L 47.942684 57.524547 
L 48.168484 57.791716 
L 48.394284 58.058885 
L 48.620083 58.326054 
L 48.852754 58.60465 
L 49.085425 58.883246 
L 49.318096 59.161841 
L 49.550767 59.440437 
L 49.817192 59.833652 
L 50.083617 60.226866 
L 50.306239 60.555291 
L 50.52972 60.787945 
L 50.753201 61.020599 
L 50.976682 61.253252 
L 51.200163 61.485906 
L 51.660867 61.914225 
L 52.121571 62.342544 
L 52.41986 62.619608 
L 52.71815 62.896672 
L 53.016439 63.173736 
L 53.314728 63.450801 
L 53.599791 63.897025 
L 53.884854 64.343249 
L 54.169917 64.789473 
L 54.454979 65.235698 
L 54.837868 65.714199 
L 55.220758 66.1927 
L 55.529783 66.474712 
L 55.838809 66.756724 
" style="fill:none;stroke:#4169e1;stroke-linecap:square;stroke-width:0.4;"/>
   </g>
   <g id="line2d_9">
    <path clip-path="url(#pf4dfc7f857)" d="M 15.751041 24.083174 
L 15.944461 24.290972 
L 16.229953 24.585942 
L 16.533997 24.917665 
L 16.792348 25.203211 
L 17.050356 25.493469 
L 17.308364 25.783727 
L 17.552458 26.064796 
L 17.796552 26.345866 
L 18.091492 26.649788 
L 18.386432 26.953711 
L 18.699752 27.257869 
L 19.013072 27.562027 
L 19.284822 27.843096 
L 19.556572 28.124166 
L 19.948222 28.506543 
L 20.339872 28.88892 
L 20.75454 29.30805 
L 21.169207 29.72718 
L 21.482012 30.036993 
L 21.794817 30.346805 
L 22.107621 30.656618 
L 22.420426 30.96643 
L 22.735807 31.36742 
L 22.952245 31.639065 
L 23.168683 31.910711 
L 23.399035 32.173403 
L 23.629387 32.436096 
L 23.915051 32.680177 
L 24.200715 32.924257 
L 24.486379 33.219227 
L 24.772043 33.514196 
L 25.002566 33.749089 
L 25.23309 33.983981 
L 25.491098 34.274238 
L 25.749106 34.564496 
L 25.970182 34.817883 
L 26.191258 35.071269 
L 26.412334 35.324656 
L 26.63341 35.578042 
L 26.863848 35.81529 
L 27.094286 36.052539 
L 27.324724 36.289787 
L 27.555161 36.527035 
L 27.856886 36.821887 
L 28.158611 37.116739 
L 28.460336 37.411591 
L 28.762061 37.706443 
L 29.033897 37.9828 
L 29.305733 38.259157 
L 29.577569 38.535515 
L 29.849405 38.811872 
L 30.195019 39.14819 
L 30.540633 39.484507 
L 30.886247 39.820824 
L 31.23186 40.157142 
L 31.565879 40.514192 
L 31.899898 40.871242 
L 32.233917 41.228292 
L 32.567936 41.585342 
L 32.805975 41.840437 
L 33.044014 42.095531 
L 33.282053 42.350626 
L 33.520092 42.605721 
L 33.758131 42.860815 
L 33.99617 43.11591 
L 34.234209 43.371005 
L 34.472248 43.626099 
L 34.870081 44.038397 
L 35.267915 44.450695 
L 35.518966 44.731765 
L 35.770017 45.012834 
L 36.021068 45.293904 
L 36.272119 45.574973 
L 36.569807 45.872299 
L 36.867496 46.169625 
L 36.981899 46.284126 
L 37.307415 46.591818 
L 37.632931 46.89951 
" style="fill:none;stroke:#ff0000;stroke-linecap:square;stroke-width:0.4;"/>
   </g>
   <g id="line2d_10">
    <path clip-path="url(#pf4dfc7f857)" d="M 10.836179 18.7233 
L 10.689138 18.822252 
L 10.555496 18.932512 
L 10.50946 19.024867 
L 10.500184 19.181304 
L 10.605998 19.351878 
L 10.76575 19.499363 
L 11.020666 19.701978 
L 11.389298 19.858887 
L 11.745562 20.061502 
L 12.101826 20.264117 
L 12.413085 20.518328 
L 12.724343 20.772539 
L 13.039724 21.080467 
L 13.355106 21.388395 
L 13.631494 21.729306 
L 13.907882 22.070218 
L 14.216564 22.388276 
L 14.525245 22.706335 
L 14.787891 23.001069 
L 15.050537 23.295803 
L 15.400789 23.689489 
L 15.751041 24.083174 
L 15.489426 24.28414 
L 15.22781 24.485106 
L 14.682936 24.807405 
L 14.256587 25.204625 
L 13.830239 25.601844 
" style="fill:none;stroke:#008000;stroke-linecap:square;stroke-width:0.4;"/>
   </g>
   <g id="line2d_11">
    <path clip-path="url(#pf4dfc7f857)" d="M 9.698333 47.754734 
L 9.758025 48.159257 
L 9.817717 48.56378 
L 9.877409 48.968303 
L 9.937102 49.372827 
L 10.128117 49.80998 
L 10.319132 50.247134 
L 10.510147 50.684288 
L 10.701162 51.121441 
L 10.931514 51.701721 
L 11.161866 52.282001 
L 11.304784 52.83024 
L 11.447702 53.378478 
L 11.559872 53.827059 
L 11.672042 54.275639 
L 11.708115 54.707727 
L 11.744188 55.139815 
L 11.780261 55.571904 
L 11.816334 56.003992 
L 11.864603 56.576026 
L 11.912872 57.14806 
L 11.932455 57.467886 
L 11.952037 57.787711 
L 11.97162 58.107536 
L 11.991202 58.427362 
L 12.04222 58.864869 
L 12.093237 59.302376 
L 12.057508 59.75826 
L 12.021778 60.214144 
" style="fill:none;stroke:#4169e1;stroke-linecap:square;stroke-width:0.4;"/>
   </g>
   <g id="line2d_12">
    <path clip-path="url(#pf4dfc7f857)" d="M 16.30416 61.858152 
L 16.511666 61.993857 
L 17.020296 62.325816 
L 17.528925 62.657775 
L 17.932513 62.822694 
L 18.336102 62.987613 
L 18.73969 63.152533 
L 19.143278 63.317452 
L 19.59505 63.486965 
L 20.046821 63.656479 
L 20.498593 63.825992 
L 20.950364 63.995505 
L 21.314015 64.115896 
L 21.677665 64.236287 
L 22.041315 64.356678 
L 22.404966 64.477069 
L 22.778064 64.546335 
L 23.151162 64.615601 
L 23.54745 64.698532 
L 23.943737 64.781463 
L 24.330921 64.974654 
L 24.708485 65.168316 
L 25.160257 65.315801 
L 25.510337 65.306613 
L 25.860417 65.297425 
L 26.454419 65.213551 
" style="fill:none;stroke:#4169e1;stroke-linecap:square;stroke-width:0.4;"/>
   </g>
   <g id="line2d_13">
    <path clip-path="url(#pf4dfc7f857)" d="M 10.500184 19.181304 
L 10.309169 19.583236 
L 10.20576 20.2104 
L 10.131724 20.582882 
L 10.057689 20.955364 
L 10.030204 21.18578 
L 10.074523 21.370018 
L 10.240459 21.932157 
L 10.479915 22.420318 
L 10.737923 22.862772 
L 10.811786 23.34198 
L 10.756474 23.922496 
L 10.645851 24.503011 
L 10.548282 25.058082 
L 10.490565 25.508076 
L 10.489191 26.059849 
L 10.535227 26.548481 
L 10.62455 27.01261 
L 10.710438 27.534226 
L 10.761628 27.852285 
L 10.812817 28.170343 
L 10.858681 28.49971 
L 10.904546 28.829078 
" style="fill:none;stroke:#4169e1;stroke-linecap:square;stroke-width:0.4;"/>
   </g>
   <g id="line2d_14">
    <path clip-path="url(#pf4dfc7f857)" d="M 6.296819 38.556954 
L 6.080381 38.86606 
L 5.863943 39.175166 
L 5.518329 39.58605 
L 5.172716 39.996935 
L 4.928621 40.210623 
L 4.684527 40.424311 
L 4.242204 40.737657 
L 3.79988 41.051004 
L 3.514216 41.373539 
L 3.228552 41.696074 
L 2.915232 42.17481 
L 2.887576 42.635642 
L 2.85992 43.096473 
L 2.850644 43.547881 
L 2.841368 43.999288 
L 2.887404 44.496873 
L 2.93344 44.994458 
L 3.117756 45.353746 
L 3.302072 45.713034 
L 3.514044 45.99858 
L 3.726016 46.284126 
L 4.01168 46.763334 
L 4.297344 47.242542 
L 4.573732 47.65696 
L 4.85012 48.071379 
L 5.062092 48.449279 
L 5.274064 48.82718 
L 5.412343 49.241834 
L 5.550623 49.656488 
L 5.615039 50.043341 
L 5.679455 50.430194 
L 5.670351 50.771106 
L 5.661247 51.112017 
L 5.762595 51.498871 
L 5.863943 51.885724 
L 6.057363 52.208259 
L 6.250783 52.530794 
L 6.499687 52.880894 
L 6.748591 53.230994 
L 7.034255 53.691589 
L 7.319919 54.152185 
L 7.513339 54.511473 
L 7.706759 54.870762 
L 7.928007 55.156543 
L 8.149254 55.442324 
L 8.250602 55.764624 
L 8.35195 56.086923 
L 8.517886 56.695239 
L 8.757342 57.155599 
L 8.987694 57.386015 
L 9.218046 57.616431 
L 9.697302 57.855799 
L 10.176558 58.132392 
L 10.703224 58.437728 
L 10.979784 58.594166 
L 11.270085 58.746363 
L 11.706054 59.035207 
L 12.093237 59.302376 
" style="fill:none;stroke:#4169e1;stroke-linecap:square;stroke-width:0.4;"/>
   </g>
   <g id="line2d_15">
    <path clip-path="url(#pf4dfc7f857)" d="M 5.172716 39.996935 
L 5.269082 40.344207 
L 5.365448 40.69148 
L 5.462159 41.095061 
L 5.558869 41.498642 
L 5.628438 41.90128 
L 5.698007 42.303919 
L 5.799355 42.727761 
L 5.900703 43.151603 
L 5.992947 43.557069 
L 6.085191 43.962535 
L 6.250955 44.367765 
L 6.416719 44.772995 
L 6.545723 45.104718 
L 6.674727 45.436441 
L 6.859043 45.814342 
L 7.043359 46.192242 
L 7.255331 46.459411 
L 7.467303 46.72658 
L 7.725311 47.039691 
L 7.983319 47.352802 
L 8.333399 47.647772 
L 8.683479 47.942742 
L 9.019988 48.309805 
L 9.356498 48.676868 
L 9.6468 49.024847 
L 9.937102 49.372827 
" style="fill:none;stroke:#4169e1;stroke-linecap:square;stroke-width:0.4;"/>
   </g>
   <g id="line2d_16">
    <path clip-path="url(#pf4dfc7f857)" d="M 5.274064 48.82718 
L 5.820999 48.93367 
L 6.201827 48.990921 
L 6.582655 49.048171 
L 7.163259 49.112726 
L 7.743862 49.17728 
L 8.061305 49.197541 
L 8.378748 49.217803 
L 8.69619 49.238064 
L 9.013633 49.258326 
L 9.475367 49.315576 
L 9.937102 49.372827 
L 10.436971 49.368115 
L 10.936839 49.363403 
L 11.303066 49.340314 
L 11.669293 49.317225 
L 12.05287 49.539631 
L 12.436446 49.762036 
" style="fill:none;stroke:#008000;stroke-linecap:square;stroke-width:0.4;"/>
   </g>
   <g id="line2d_17">
    <path clip-path="url(#pf4dfc7f857)" d="M 17.478079 47.435733 
L 17.966439 47.394267 
L 18.454799 47.352802 
L 18.998299 47.306625 
L 19.316257 47.311337 
L 19.634215 47.316049 
L 20.058159 47.385079 
L 20.482102 47.45411 
L 20.957579 47.721279 
L 21.169551 47.970071 
L 21.381523 48.218863 
L 21.529079 48.513833 
L 21.676634 48.808803 
L 21.916091 49.324765 
L 22.035819 49.637875 
L 22.155547 49.950986 
L 22.312894 50.328651 
L 22.470241 50.706316 
L 22.672937 51.203901 
L 22.838701 51.535624 
L 23.004465 51.867347 
L 23.179677 52.143705 
L 23.354888 52.420062 
L 23.741729 52.880894 
L 24.193157 53.322877 
L 24.552512 53.608423 
L 24.911868 53.893969 
L 25.381848 54.308623 
L 25.607734 54.589692 
L 25.83362 54.870762 
" style="fill:none;stroke:#ff0000;stroke-linecap:square;stroke-width:0.4;"/>
   </g>
   <g id="line2d_18">
    <path clip-path="url(#pf4dfc7f857)" d="M 9.355811 46.625273 
L 9.581868 46.989037 
L 9.807926 47.352802 
L 10.11197 47.730703 
L 10.416014 48.108603 
L 10.659764 48.365642 
L 10.903515 48.62268 
L 11.286404 48.969953 
L 11.669293 49.317225 
" style="fill:none;stroke:#008000;stroke-linecap:square;stroke-width:0.4;"/>
   </g>
   <g id="line2d_19">
    <path clip-path="url(#pf4dfc7f857)" d="M 14.678813 51.076206 
L 15.201185 51.250785 
L 15.723557 51.425364 
L 16.221192 51.609602 
L 16.718828 51.793841 
L 17.124392 51.931901 
L 17.529956 52.069962 
L 17.999764 52.235824 
L 18.469572 52.401686 
L 18.921172 52.604536 
L 19.372771 52.807387 
L 19.815095 53.010002 
L 20.257419 53.212617 
L 20.607499 53.406044 
L 20.957579 53.59947 
L 21.335487 53.737767 
L 21.713395 53.876063 
L 22.321482 54.060302 
L 22.782186 54.207786 
L 23.037446 54.30344 
" style="fill:none;stroke:#4169e1;stroke-linecap:square;stroke-width:0.4;"/>
   </g>
   <g id="line2d_20">
    <path clip-path="url(#pf4dfc7f857)" d="M 14.678813 51.076206 
L 14.266894 51.528556 
L 13.992739 51.810332 
L 13.718584 52.092109 
L 13.451816 52.378361 
L 13.185047 52.664614 
L 12.883752 52.940971 
L 12.582456 53.217329 
L 12.310191 53.518895 
L 12.037925 53.820462 
L 11.672042 54.275639 
" style="fill:none;stroke:#008000;stroke-linecap:square;stroke-width:0.4;"/>
   </g>
   <g id="line2d_21">
    <path clip-path="url(#pf4dfc7f857)" d="M 14.678813 51.076206 
L 14.901264 50.828828 
L 15.123714 50.581449 
L 15.353722 50.322526 
L 15.583731 50.063603 
L 15.795187 49.777586 
L 16.006644 49.491569 
L 16.198346 49.159374 
L 16.390048 48.82718 
L 16.652694 48.312632 
L 16.91534 47.798084 
" style="fill:none;stroke:#008000;stroke-linecap:square;stroke-width:0.4;"/>
   </g>
   <g id="line2d_22">
    <path clip-path="url(#pf4dfc7f857)" d="M 19.933793 58.558826 
L 20.106256 58.190349 
L 20.278719 57.821873 
L 20.452385 57.470359 
L 20.626051 57.118846 
L 20.945898 56.607596 
L 21.12695 56.338071 
L 21.308003 56.068546 
L 21.658083 55.626563 
L 22.044923 55.202485 
L 22.294342 54.955577 
L 22.543761 54.70867 
L 22.790603 54.506055 
L 23.037446 54.30344 
L 23.474445 54.447155 
L 23.732453 54.548462 
L 24.025331 54.697596 
L 24.31821 54.846731 
L 24.829072 55.128978 
L 25.308328 55.34997 
L 25.741204 55.488031 
L 26.192976 55.562009 
" style="fill:none;stroke:#000000;stroke-linecap:square;stroke-width:0.4;"/>
   </g>
   <g id="line2d_23">
    <path clip-path="url(#pf4dfc7f857)" d="M 27.082777 56.26692 
L 27.478549 56.417939 
L 27.874322 56.568958 
L 28.244328 56.614664 
L 28.614334 56.660371 
L 29.088952 56.83707 
L 29.563569 57.013769 
L 30.008642 57.232169 
L 30.453714 57.450569 
L 30.875253 57.671796 
L 31.296792 57.893024 
L 31.732245 58.088335 
L 32.167697 58.283647 
L 32.609506 58.486733 
L 33.051314 58.689819 
L 33.542423 58.919764 
L 34.033531 59.149708 
L 34.532026 59.36104 
L 35.03052 59.572372 
L 35.462709 59.738705 
L 35.894899 59.905038 
L 36.327088 60.071371 
L 36.759277 60.237704 
L 37.093296 60.391432 
L 37.427314 60.54516 
L 37.761333 60.698888 
L 38.095352 60.852617 
L 38.429371 61.006345 
L 38.76339 61.160073 
L 39.097409 61.313801 
L 39.431428 61.46753 
" style="fill:none;stroke:#4169e1;stroke-linecap:square;stroke-width:0.4;"/>
   </g>
   <g id="line2d_24">
    <path clip-path="url(#pf4dfc7f857)" d="M 26.380555 46.429726 
L 26.707617 46.947572 
L 26.891933 47.260919 
L 27.076249 47.574265 
L 27.260565 47.878188 
L 27.444881 48.18211 
L 27.675233 48.523022 
L 27.905585 48.863933 
L 28.163593 49.214033 
L 28.421601 49.564133 
L 28.642849 49.914233 
L 28.864096 50.264333 
L 29.112828 50.577679 
L 29.36156 50.891026 
L 29.619568 51.250314 
L 29.877576 51.609602 
L 30.015856 51.922713 
L 30.154136 52.235824 
L 30.28314 52.585924 
L 30.412144 52.936024 
L 30.541148 53.313924 
L 30.670152 53.691825 
L 30.845192 53.977371 
L 31.020232 54.262917 
L 31.300399 54.605713 
L 31.580566 54.948509 
L 31.900242 55.260207 
L 32.219917 55.571904 
L 32.553507 55.859806 
L 32.887096 56.147707 
L 33.254869 56.375296 
L 33.622642 56.602884 
L 33.981998 56.889844 
L 34.341354 57.176803 
L 34.634404 57.451983 
L 34.927455 57.727162 
L 35.189585 58.070194 
L 35.451716 58.413226 
L 35.736005 58.753666 
L 36.020295 59.094107 
L 36.303211 59.285884 
L 36.586126 59.477662 
L 36.938096 59.653183 
L 37.290065 59.828704 
L 37.634648 59.951215 
L 37.979232 60.073727 
L 38.276405 60.286001 
L 38.573577 60.498276 
L 38.827463 60.746126 
L 39.081348 60.993976 
L 39.431428 61.46753 
" style="fill:none;stroke:#4169e1;stroke-linecap:square;stroke-width:0.4;"/>
   </g>
   <g id="line2d_25">
    <path clip-path="url(#pf4dfc7f857)" d="M 35.399152 46.98998 
L 35.60786 47.329478 
L 35.816569 47.668976 
L 36.092098 48.009416 
L 36.367627 48.349856 
L 36.673045 48.662261 
L 36.978463 48.974665 
L 37.300028 49.252436 
L 37.621593 49.530207 
L 37.982839 49.778057 
L 38.344084 50.025907 
L 38.766139 50.238181 
L 39.188193 50.450456 
L 39.556309 50.625035 
L 39.924426 50.799613 
L 40.308689 50.920711 
L 40.692953 51.041809 
L 41.21292 51.181284 
L 41.732886 51.320758 
" style="fill:none;stroke:#4169e1;stroke-linecap:square;stroke-width:0.4;"/>
   </g>
   <g id="line2d_26">
    <path clip-path="url(#pf4dfc7f857)" d="M 28.960635 46.885845 
L 29.188754 47.165501 
L 29.416872 47.445157 
L 29.69326 47.77688 
L 29.969648 48.108603 
L 30.195448 48.343495 
L 30.421248 48.578387 
L 30.647048 48.813279 
L 30.872848 49.048171 
L 31.136353 49.325471 
L 31.399858 49.602771 
L 31.664307 49.828004 
L 31.928757 50.053236 
L 32.193206 50.278469 
L 32.457656 50.503701 
L 32.918531 50.881602 
L 33.379407 51.259502 
L 33.701917 51.508295 
L 34.024427 51.757087 
L 34.346937 52.00588 
L 34.669447 52.254672 
L 35.019784 52.522077 
L 35.370122 52.789481 
L 35.72046 53.056886 
L 36.070797 53.324291 
L 36.398632 53.554353 
L 36.726467 53.784415 
L 37.054302 54.014478 
L 37.382137 54.24454 
L 37.654231 54.465649 
L 37.926325 54.686759 
L 38.198418 54.907868 
L 38.470512 55.128978 
L 38.894799 55.472717 
L 39.319086 55.816455 
L 39.68497 56.099174 
L 40.050853 56.381893 
L 40.410209 56.713616 
L 40.769565 57.045339 
L 41.012113 57.28671 
L 41.254661 57.528081 
L 41.497209 57.769452 
L 41.739757 58.010823 
L 41.995532 58.23959 
L 42.251307 58.468356 
L 42.507082 58.697123 
L 42.762857 58.925889 
L 43.196764 59.321931 
L 43.63067 59.717972 
L 44.08227 60.123909 
L 44.53387 60.529846 
L 44.966402 60.917171 
L 45.398935 61.304495 
L 45.793333 61.653181 
L 46.187732 62.001868 
L 46.639331 62.388721 
L 47.090931 62.775574 
L 47.555414 63.144993 
L 48.019897 63.514412 
L 48.467718 63.872994 
L 48.915539 64.231575 
L 49.354599 64.593691 
L 49.793659 64.955806 
L 50.173284 65.26397 
L 50.598602 65.643519 
L 51.02392 66.023069 
L 51.374 66.325342 
L 51.72408 66.627616 
L 51.990849 66.876408 
L 52.257617 67.125201 
L 52.624531 67.4475 
" style="fill:none;stroke:#4169e1;stroke-linecap:square;stroke-width:0.4;"/>
   </g>
   <g id="line2d_27">
    <path clip-path="url(#pf4dfc7f857)" d="M 32.852054 46.615849 
L 32.785405 46.927546 
L 32.718756 47.239243 
L 32.654168 47.515365 
L 32.55282 47.791958 
L 32.451472 47.985149 
L 32.340848 48.151011 
L 32.184188 48.381427 
L 32.036804 48.648596 
L 31.803532 49.034507 
L 31.601695 49.318639 
L 31.399858 49.602771 
" style="fill:none;stroke:#008000;stroke-linecap:square;stroke-width:0.4;"/>
   </g>
   <g id="line2d_28">
    <path clip-path="url(#pf4dfc7f857)" d="M 6.674727 45.436441 
L 6.524079 45.772405 
L 6.373432 46.108369 
L 6.213164 46.465772 
L 6.052897 46.823176 
L 5.932138 47.161731 
L 5.81138 47.500287 
L 5.675505 47.805859 
L 5.53963 48.11143 
L 5.406847 48.469305 
L 5.274064 48.82718 
" style="fill:none;stroke:#4169e1;stroke-linecap:square;stroke-width:0.4;"/>
   </g>
   <g id="line2d_29">
    <path clip-path="url(#pf4dfc7f857)" d="M 31.399858 49.602771 
L 31.030539 50.06266 
L 30.673931 50.560245 
L 30.393592 51.075264 
L 30.227656 51.683109 
L 30.154136 52.235824 
" style="fill:none;stroke:#008000;stroke-linecap:square;stroke-width:0.4;"/>
   </g>
   <g id="line2d_30">
    <path clip-path="url(#pf4dfc7f857)" d="M 10.904546 28.829078 
L 10.88565 29.386505 
L 10.746855 29.944403 
L 10.658906 30.448584 
L 10.616305 30.825307 
L 10.573704 31.202029 
L 10.55687 31.529512 
L 10.540036 31.856994 
L 10.558588 32.194136 
L 10.57714 32.531278 
L 10.58779 32.867478 
L 10.59844 33.203677 
L 10.651176 33.557547 
L 10.703911 33.911416 
L 10.770217 34.233009 
L 10.836522 34.554601 
L 10.988372 35.094594 
L 11.151903 35.610084 
L 11.375556 36.199552 
" style="fill:none;stroke:#4169e1;stroke-linecap:square;stroke-width:0.4;"/>
   </g>
   <g id="line2d_31">
    <path clip-path="url(#pf4dfc7f857)" d="M 13.131109 26.476859 
L 13.227476 26.78997 
L 13.323842 27.10308 
L 13.466417 27.577576 
L 13.551789 27.957597 
L 13.637162 28.337618 
L 13.685775 28.723765 
L 13.734388 29.109911 
L 13.67564 29.464723 
L 13.616893 29.819535 
L 13.481876 30.271178 
L 13.34686 30.722821 
L 13.190372 31.150904 
L 13.033884 31.578987 
L 12.90488 32.058196 
L 12.775876 32.537404 
L 12.897837 32.925199 
L 13.019798 33.312995 
L 13.211157 33.625399 
L 13.402516 33.937803 
L 13.84484 34.214396 
L 14.287164 34.490989 
L 14.526791 34.822477 
L 14.766419 35.153965 
L 14.951766 35.560608 
L 15.137112 35.967252 
L 15.369182 36.206856 
L 15.601252 36.44646 
L 15.835211 36.960065 
L 15.975724 37.531628 
L 16.218788 37.964423 
L 16.461851 38.397218 
L 16.729478 38.776061 
L 16.997106 39.154904 
L 17.245494 39.439508 
L 17.493883 39.724111 
L 17.733511 40.000469 
L 17.973138 40.276826 
L 18.300716 40.599596 
L 18.628293 40.922367 
L 18.927355 41.299796 
L 19.226418 41.677226 
L 19.449384 42.047351 
L 19.672349 42.417477 
L 19.956123 42.903282 
L 20.182868 43.16197 
L 20.409613 43.420657 
L 20.711767 43.687119 
L 21.013922 43.953582 
L 21.354726 44.183997 
L 21.69553 44.414413 
L 22.064333 44.630693 
L 22.433137 44.846973 
L 22.963239 45.168094 
L 23.49334 45.489215 
" style="fill:none;stroke:#ff0000;stroke-dasharray:1.48,0.64;stroke-dashoffset:0;stroke-width:0.4;"/>
   </g>
   <g id="line2d_32">
    <path clip-path="url(#pf4dfc7f857)" d="M 17.603476 21.830849 
L 17.935176 22.116395 
L 18.266876 22.401941 
L 18.782892 22.64178 
L 19.206835 22.954656 
L 19.594019 23.305227 
L 19.999411 23.655327 
L 20.349491 23.98705 
L 20.589119 24.226418 
L 20.828747 24.465787 
L 21.197379 24.834735 
L 21.566011 25.239965 
L 21.971402 25.626818 
L 22.321482 25.958541 
L 22.782186 26.364242 
L 23.040194 26.594422 
L 23.298202 26.824603 
L 23.685386 27.230304 
L 23.878806 27.497473 
L 24.072226 27.764642 
L 24.294848 28.014377 
L 24.51747 28.264112 
L 24.783723 28.475444 
L 25.049977 28.686776 
L 25.435786 29.010489 
L 25.66631 29.231716 
L 25.896833 29.452943 
L 26.154841 29.723646 
L 26.412849 29.99435 
L 26.689753 30.283194 
L 26.966656 30.572038 
L 27.279976 31.041822 
L 27.592952 31.427733 
" style="fill:none;stroke:#ff0000;stroke-linecap:square;stroke-width:0.4;"/>
   </g>
   <g id="line2d_33">
    <path clip-path="url(#pf4dfc7f857)" d="M 27.592952 31.427733 
L 27.844776 31.711865 
L 28.274217 32.168927 
L 28.578261 32.458007 
L 28.882305 32.747087 
L 29.177245 33.029334 
L 29.472184 33.311581 
L 29.757848 33.597127 
L 30.043512 33.882673 
L 30.338452 34.177407 
L 30.633392 34.472141 
L 30.90978 34.757923 
L 31.186168 35.043704 
L 31.517868 35.412181 
L 31.849568 35.780657 
L 32.115649 36.040052 
L 32.381731 36.299446 
L 32.647812 36.55884 
L 32.913893 36.818235 
L 33.213471 37.144304 
L 33.544999 37.442572 
L 33.876528 37.74084 
L 34.153087 37.989632 
L 34.429647 38.238425 
L 34.706207 38.492871 
L 34.982767 38.747318 
L 35.277535 38.999645 
L 35.572303 39.251971 
L 35.830311 39.500763 
L 36.088319 39.749556 
L 36.419847 40.173163 
L 36.687131 40.44952 
L 36.954414 40.725877 
L 37.221698 41.002235 
L 37.488982 41.278592 
L 37.82051 41.64754 
L 38.06031 41.929788 
L 38.30011 42.212035 
L 38.567222 42.506769 
L 38.834334 42.801503 
L 39.15693 43.142415 
L 39.479525 43.483326 
L 39.709877 43.750496 
L 39.940229 44.017665 
L 40.188961 44.294022 
L 40.437693 44.57038 
L 40.677321 44.82836 
L 40.916949 45.086341 
L 41.156577 45.344322 
L 41.396205 45.602303 
L 41.60852 45.851095 
L 41.820836 46.099887 
" style="fill:none;stroke:#000000;stroke-linecap:square;stroke-width:0.4;"/>
   </g>
   <g id="line2d_34">
    <path clip-path="url(#pf4dfc7f857)" d="M 17.603476 21.830849 
L 17.357836 21.978805 
L 17.109791 22.146552 
L 16.923585 22.384506 
L 16.802311 22.623875 
L 16.710583 22.910363 
L 16.609235 23.232662 
L 16.482121 23.500303 
L 16.27805 23.730718 
L 16.002521 23.942286 
L 15.751041 24.083174 
" style="fill:none;stroke:#008000;stroke-linecap:square;stroke-width:0.4;"/>
   </g>
   <g id="line2d_35">
    <path clip-path="url(#pf4dfc7f857)" d="M 15.529793 24.650496 
L 15.713937 24.917665 
L 15.843113 25.276718 
L 15.907701 25.719173 
L 15.944461 26.050896 
L 16.073293 26.456126 
L 16.248505 26.824603 
L 16.506513 27.184126 
L 16.745969 27.57098 
L 16.911905 27.838149 
L 17.160637 28.160919 
L 17.400436 28.483218 
L 17.685929 28.916249 
L 17.989972 29.404881 
L 18.17446 29.690427 
L 18.441744 30.04948 
L 18.699752 30.362826 
L 18.985244 30.621043 
L 19.243252 30.795857 
L 19.539051 30.962661 
L 19.672693 31.000357 
L 20.0506 31.096952 
L 20.428508 31.193548 
L 20.711595 31.139831 
L 21.062706 31.038052 
L 21.481153 30.928263 
L 21.906815 30.90329 
L 22.420426 30.96643 
L 22.866013 31.073864 
L 23.307478 31.118627 
L 23.789139 31.093654 
L 24.219267 31.063026 
L 24.61126 31.036168 
L 25.043105 31.019676 
L 25.460865 31.039937 
L 25.7041 31.060199 
L 26.111726 31.123104 
L 26.519351 31.186009 
L 26.95257 31.277421 
L 27.272761 31.352577 
L 27.592952 31.427733 
" style="fill:none;stroke:#ff0000;stroke-linecap:square;stroke-width:0.4;"/>
   </g>
   <g id="line2d_36">
    <path clip-path="url(#pf4dfc7f857)" d="M 10.756474 23.922496 
L 10.500184 24.064798 
L 10.288212 24.20333 
L 10.103725 24.369191 
L 9.88282 24.571806 
L 9.661573 24.921906 
L 9.512814 25.369073 
L 9.29191 25.829904 
L 9.13525 26.11545 
L 8.97859 26.400996 
L 8.757342 26.824603 
L 8.517886 27.175174 
L 8.31519 27.562027 
L 8.093942 27.985634 
L 7.854143 28.501595 
L 7.633239 28.907296 
L 7.319919 29.23902 
L 7.024807 29.662626 
L 6.730039 30.012726 
L 6.435271 30.436804 
L 6.250783 30.878788 
L 6.048087 31.357996 
L 5.845391 31.855581 
L 5.698007 32.371542 
L 5.661247 32.85075 
L 5.716559 33.403465 
L 5.827183 33.882673 
L 6.029879 34.453765 
L 6.158711 34.841089 
L 6.294071 35.266581 
L 6.373775 35.630345 
" style="fill:none;stroke:#000000;stroke-linecap:square;stroke-width:0.4;"/>
   </g>
   <g id="line2d_37">
    <path clip-path="url(#pf4dfc7f857)" d="M 41.820836 46.099887 
L 42.202007 46.47072 
L 42.583179 46.841553 
L 42.828046 47.094232 
L 43.072913 47.346912 
L 43.31778 47.599592 
L 43.562647 47.852272 
L 43.963401 48.247607 
L 44.364155 48.642941 
L 44.632126 48.910582 
L 44.900097 49.178222 
L 45.168068 49.445862 
L 45.436039 49.713503 
L 45.684084 49.952518 
L 45.932129 50.191533 
L 46.180174 50.430548 
L 46.428218 50.669563 
L 46.677036 50.927544 
L 46.925854 51.185524 
L 47.174672 51.443505 
L 47.42349 51.701486 
L 47.654787 51.941561 
L 47.886083 52.181636 
L 48.11738 52.421711 
L 48.348677 52.661787 
L 48.59844 52.897621 
L 48.848202 53.133456 
L 49.097965 53.36929 
L 49.347728 53.605125 
L 49.799156 54.018365 
L 50.250584 54.431605 
L 50.517352 54.653186 
L 50.784121 54.874767 
L 51.050889 55.096347 
L 51.317658 55.317928 
L 51.571972 55.543396 
L 51.826287 55.768864 
L 52.080602 55.994333 
L 52.334917 56.219801 
L 52.574974 56.446447 
L 52.815031 56.673093 
L 53.055089 56.899739 
L 53.295146 57.126385 
L 53.748979 57.50405 
L 54.202812 57.881715 
L 54.487101 58.129801 
L 54.771391 58.377886 
L 55.055681 58.625972 
L 55.33997 58.874057 
L 55.587157 59.099054 
L 55.834343 59.324051 
L 56.081529 59.549048 
L 56.328715 59.774045 
L 56.730671 60.149118 
L 57.132627 60.524192 
L 57.374145 60.743299 
L 57.615662 60.962406 
L 58.028956 61.273867 
L 58.374913 61.418525 
L 58.868255 61.64093 
" style="fill:none;stroke:#008000;stroke-linecap:square;stroke-width:0.4;"/>
   </g>
   <g id="line2d_38">
    <path clip-path="url(#pf4dfc7f857)" d="M 36.419847 40.173163 
L 36.291015 40.424311 
L 35.977695 40.921896 
L 35.793551 41.226054 
L 35.609406 41.530212 
L 35.351398 42.027797 
L 35.056287 42.580512 
L 34.899627 42.875246 
L 34.742967 43.16998 
L 34.472248 43.626099 
L 34.101554 44.057245 
L 33.790296 44.502527 
L 33.586569 45.072676 
L 33.593097 45.555654 
L 33.631918 46.068788 
L 33.721242 46.588991 
" style="fill:none;stroke:#4169e1;stroke-linecap:square;stroke-width:0.4;"/>
   </g>
   <g id="line2d_39">
    <path clip-path="url(#pf4dfc7f857)" d="M 19.672693 31.000357 
L 19.843266 31.304515 
L 20.01384 31.608673 
L 20.193862 32.169869 
L 20.308952 32.473556 
L 20.424042 32.777243 
L 20.791987 33.182473 
L 20.948647 33.514196 
L 21.105307 33.84592 
L 21.114411 34.177643 
L 21.123515 34.509366 
L 21.068203 34.933208 
L 21.012891 35.357051 
L 20.865507 35.817646 
L 20.718123 36.278242 
L 20.598395 36.609965 
L 20.478667 36.941689 
L 20.343994 37.284485 
L 20.209322 37.627281 
L 20.077569 38.031805 
L 19.945817 38.436328 
L 19.819561 38.768287 
L 19.693306 39.100245 
L 19.61824 39.504769 
L 19.543173 39.909292 
L 19.472402 40.539754 
L 19.470512 40.879252 
L 19.468622 41.21875 
L 19.542486 41.732827 
L 19.607418 42.075152 
L 19.672349 42.417477 
" style="fill:none;stroke:#ff0000;stroke-dasharray:1.48,0.64;stroke-dashoffset:0;stroke-width:0.4;"/>
   </g>
   <g id="line2d_40">
    <path clip-path="url(#pf4dfc7f857)" d="M 12.724343 20.772539 
L 12.851114 21.241852 
L 12.91261 21.600434 
L 12.905052 21.933099 
L 12.857985 22.273304 
L 12.783778 22.632356 
L 12.691706 22.936279 
L 12.590701 23.277897 
L 12.451906 23.599725 
L 12.350558 23.949825 
L 12.33235 24.263172 
L 12.378386 24.576518 
L 12.4629 24.89976 
L 12.618873 25.24986 
L 12.756637 25.553782 
L 12.896119 25.858647 
L 13.023234 26.198381 
L 13.131109 26.476859 
" style="fill:none;stroke:#4169e1;stroke-linecap:square;stroke-width:0.4;"/>
   </g>
   <g id="line2d_41">
    <path clip-path="url(#pf4dfc7f857)" d="M 35.995903 14.219593 
L 36.474815 14.016978 
L 36.922808 13.350233 
L 37.494135 12.382864 
L 38.023206 11.860777 
L 38.400771 11.482876 
L 38.594534 11.031469 
L 40.115785 9.155631 
L 41.428842 8.107216 
L 42.848058 7.287332 
L 43.533445 7.124297 
L 43.957389 7.078591 
L 44.749964 7.327384 
L 45.477952 8.092137 
L 46.325496 9.170238 
L 46.843917 9.475574 
L 47.560224 9.400654 
L 48.223967 9.142437 
L 49.541491 8.45119 
L 50.433697 8.361663 
L 51.078545 8.628832 
L 52.175165 9.559447 
L 52.765044 10.361426 
L 53.08764 11.273664 
L 53.116842 12.201924 
L 52.960182 13.206046 
L 52.038774 14.96597 
L 51.569138 15.82355 
L 51.587346 16.514325 
L 51.836078 17.223478 
L 52.149398 17.988232 
L 52.785314 19.011202 
L 52.86811 19.684072 
L 53.04504 23.261405 
L 53.745543 26.044299 
L 54.040311 27.336323 
L 54.298319 29.269176 
L 54.390391 30.798684 
L 54.932174 34.647427 
L 54.998479 37.745552 
L 54.803341 39.244903 
L 54.379398 40.525618 
L 54.00149 41.585342 
L 53.900142 42.598888 
L 53.84483 43.833426 
L 53.559338 45.574973 
L 53.715998 46.597472 
L 53.84483 47.611018 
L 53.817346 48.762626 
L 53.550062 49.720571 
L 53.393402 50.42077 
L 53.384126 51.06584 
L 53.642134 51.978079 
L 54.324086 53.350678 
L 56.038069 54.907986 
L 56.443461 55.902685 
L 56.554085 57.091516 
L 56.563361 57.791716 
L 56.830301 59.090337 
L 57.080751 59.6619 
L 57.848247 60.586861 
L 58.868255 61.64093 
L 58.868255 61.64093 
" style="fill:none;stroke:#000000;stroke-linecap:square;stroke-width:0.4;"/>
   </g>
   <g id="line2d_42">
    <path clip-path="url(#pf4dfc7f857)" d="M 10.836179 18.7233 
L 11.398231 18.483932 
L 12.157138 18.614925 
L 13.106374 18.319955 
L 13.683542 18.142785 
L 14.184441 18.17247 
L 15.824561 18.863717 
L 16.282173 19.156331 
L 16.742877 19.147378 
L 17.731965 18.854764 
L 18.567484 18.935339 
L 18.972876 18.649793 
L 21.537839 16.468148 
L 25.809915 14.023103 
L 28.458361 12.837098 
L 29.329954 12.106271 
L 29.88273 11.341517 
L 30.420733 10.054676 
L 31.043937 7.840047 
L 31.578161 7.194977 
L 32.936568 6.340696 
L 33.857976 5.796933 
L 34.383267 5.501964 
L 34.835039 5.529764 
L 34.908559 5.935466 
L 34.83126 7.186024 
L 34.908559 8.672182 
L 35.148015 12.358362 
L 35.673307 13.897293 
L 35.995903 14.219593 
L 35.995903 14.219593 
" style="fill:none;stroke:#4169e1;stroke-linecap:square;stroke-width:0.4;"/>
   </g>
   <g id="line2d_43">
    <path clip-path="url(#pf4dfc7f857)" d="M 17.603476 21.830849 
L 17.789338 21.666401 
L 17.963862 21.45342 
L 18.112277 21.25269 
L 18.241109 21.029813 
L 18.342457 20.799869 
L 18.40464 20.48558 
L 18.464075 20.276839 
L 18.516638 20.015796 
L 18.539656 19.819777 
L 18.562675 19.602084 
L 18.608367 19.38015 
L 18.641348 19.147378 
L 18.773272 18.835917 
" style="fill:none;stroke:#008000;stroke-linecap:square;stroke-width:0.4;"/>
   </g>
   <g id="line2d_44">
    <path clip-path="url(#pf4dfc7f857)" d="M 28.317848 12.933694 
L 28.271812 13.173534 
L 28.243984 13.288506 
L 28.197948 13.435991 
L 28.050564 13.795515 
L 27.893904 14.127238 
L 27.709416 14.541892 
L 27.598793 14.799637 
L 27.451409 15.103559 
L 27.211952 15.518213 
L 26.972496 15.942291 
L 26.778733 16.310768 
L 26.55989 16.707516 
L 26.375402 17.094841 
L 26.145222 17.573578 
L 25.942526 18.025456 
L 25.732959 18.495712 
L 25.556373 18.928742 
L 25.411394 19.335857 
L 25.271568 19.693496 
L 25.153729 20.018152 
L 25.076774 20.446942 
" style="fill:none;stroke:#4169e1;stroke-linecap:square;stroke-width:0.4;"/>
   </g>
   <g id="line2d_45">
    <path clip-path="url(#pf4dfc7f857)" d="M 25.076774 20.446942 
L 25.059252 20.86348 
L 25.049977 21.351641 
L 25.040701 21.61881 
L 25.040701 22.024511 
L 25.08708 22.420789 
L 25.14995 22.779841 
L 25.242022 23.194495 
L 25.363296 23.683127 
L 25.43716 23.950296 
L 25.464644 24.235842 
L 25.501748 24.668873 
L 25.564618 25.101904 
L 25.66734 25.682419 
L 25.796516 26.17058 
L 25.925348 26.613035 
L 26.026696 26.990935 
L 26.165148 27.460719 
L 26.29398 27.949351 
L 26.404604 28.363534 
L 26.487744 28.741435 
L 26.6073 29.183889 
L 26.699372 29.61692 
L 26.80072 30.013197 
L 26.966656 30.572038 
" style="fill:none;stroke:#4169e1;stroke-linecap:square;stroke-width:0.4;"/>
   </g>
   <g id="line2d_46">
    <path clip-path="url(#pf4dfc7f857)" d="M 22.962551 15.626589 
L 23.272092 15.841926 
L 23.506052 16.031819 
L 23.789482 16.331501 
L 24.076349 16.590659 
L 24.330921 16.827672 
L 24.523311 17.03924 
L 24.707798 17.223478 
L 24.891942 17.463318 
L 24.99329 17.71211 
L 25.03005 18.052786 
L 25.021118 18.311002 
L 25.002566 18.614925 
L 24.965806 18.900471 
L 24.947254 19.296748 
L 24.937978 19.591718 
L 24.947254 19.877263 
L 24.99329 20.181186 
L 25.076774 20.446942 
" style="fill:none;stroke:#ff0000;stroke-linecap:square;stroke-width:0.4;"/>
   </g>
   <g id="line2d_47">
    <path clip-path="url(#pf4dfc7f857)" d="M 36.53425 29.331846 
L 36.902194 29.794562 
L 37.199711 30.292147 
L 37.393131 30.771355 
L 37.515779 31.307578 
L 37.588612 31.841916 
L 37.603385 32.18966 
L 37.618158 32.537404 
L 37.691678 33.127343 
L 37.71023 33.680058 
L 37.74699 34.159266 
L 37.820854 34.730358 
L 37.98679 35.319826 
L 38.263006 35.707151 
L 38.631638 35.835788 
L 39.074133 35.983272 
L 39.479525 36.094004 
L 39.866366 36.223112 
L 40.253549 36.40735 
L 40.585077 36.646719 
L 40.898397 36.923312 
L 41.174957 37.255035 
L 41.432965 37.715395 
L 41.617453 38.10272 
L 41.820149 38.45282 
L 42.096365 39.023911 
L 42.299061 39.466366 
L 42.501757 39.908349 
L 42.686245 40.369181 
L 42.741556 40.830012 
L 42.796868 41.235242 
L 43.018116 41.658849 
L 43.294332 41.972195 
L 43.55234 42.41465 
L 43.755036 42.912235 
L 43.976284 43.372595 
L 44.252844 43.796673 
L 44.584372 44.072795 
L 44.953004 44.312634 
L 45.413708 44.552003 
L 45.856203 44.772995 
L 46.261595 44.957704 
L 46.685539 45.141942 
L 46.879646 45.222046 
L 47.100894 45.360107 
L 47.459563 45.657904 
L 47.73681 45.80209 
L 48.030891 45.897272 
L 48.390934 45.977376 
L 48.712843 46.081511 
L 49.109646 46.318052 
L 49.413003 46.615849 
L 49.689562 47.021079 
L 49.892258 47.390027 
L 50.131714 47.702902 
L 50.352962 48.18211 
L 50.629522 48.58734 
L 50.868978 48.88231 
L 51.182298 49.140526 
L 51.532378 49.398271 
L 51.90101 49.619263 
L 52.195778 49.859103 
L 52.509098 50.024964 
L 52.748897 50.338311 
L 53.006905 50.614433 
L 53.209601 50.982909 
L 53.448714 51.434317 
" style="fill:none;stroke:#000000;stroke-linecap:square;stroke-width:0.4;"/>
   </g>
   <g id="line2d_48">
    <path clip-path="url(#pf4dfc7f857)" d="M 25.076774 20.446942 
L 25.307984 20.86348 
L 25.519956 21.121697 
L 25.759756 21.324312 
L 26.119112 21.554727 
L 26.459916 21.830849 
L 26.791788 22.180949 
L 27.049796 22.50372 
L 27.35384 22.90895 
L 27.602572 23.415958 
L 27.731747 23.848989 
L 27.833095 24.36495 
L 27.948185 24.772537 
L 28.104845 25.233368 
L 28.242954 25.611268 
L 28.436374 25.88739 
L 28.758969 26.117806 
L 29.210397 26.200737 
L 29.639151 26.226181 
L 30.098824 26.124403 
L 30.540976 26.014142 
L 30.96492 25.903411 
L 31.407416 25.848281 
L 31.812808 25.866658 
L 32.273512 26.032519 
L 32.734215 26.253511 
L 33.066087 26.419373 
L 33.563551 26.769472 
L 34.024255 27.082819 
L 34.300643 27.267057 
L 34.577031 27.451295 
L 34.982767 27.819772 
L 35.388159 28.133119 
L 35.776029 28.53882 
L 36.060834 28.823423 
L 36.296511 29.060907 
L 36.53425 29.331846 
" style="fill:none;stroke:#000000;stroke-linecap:square;stroke-width:0.4;"/>
   </g>
   <g id="line2d_49">
    <path clip-path="url(#pf4dfc7f857)" d="M 34.835039 5.529764 
L 35.074839 5.133958 
L 35.314295 4.802235 
L 35.524205 4.535537 
L 35.791146 4.268368 
L 36.150845 3.973398 
L 36.436337 3.761359 
L 36.731105 3.577121 
L 37.065038 3.401835 
L 37.413057 3.282151 
L 37.671065 3.272727 
L 37.910865 3.383459 
L 38.048973 3.613874 
L 38.131769 3.936645 
L 38.207694 4.267897 
L 38.318318 4.673598 
L 38.459518 5.089666 
L 38.604841 5.484529 
L 38.762188 5.86243 
L 38.966602 6.242215 
L 39.185101 6.590902 
L 39.425244 6.904719 
L 39.642713 7.173773 
L 39.903469 7.437644 
L 40.19274 7.696803 
L 40.531827 7.872088 
L 40.824877 7.99083 
L 41.130639 8.046902 
L 41.428842 8.107216 
" style="fill:none;stroke:#000000;stroke-linecap:square;stroke-width:0.4;"/>
   </g>
   <g id="line2d_50">
    <path clip-path="url(#pf4dfc7f857)" d="M 36.650027 13.814362 
L 37.250557 13.906246 
L 37.600121 13.924858 
L 37.949686 13.943471 
L 38.309042 13.961847 
L 38.668398 13.980224 
L 39.239726 14.072108 
L 39.748527 14.302995 
L 40.253549 14.367077 
L 40.788117 14.293571 
L 41.377653 14.237969 
L 41.930773 14.237969 
L 42.501757 14.330324 
L 43.036325 14.532939 
L 43.47882 14.809532 
L 43.957732 15.030524 
L 44.225016 15.205574 
L 44.4923 15.380624 
L 45.026868 15.620463 
L 45.598196 15.804702 
L 46.114211 15.93381 
L 46.685539 16.099671 
L 47.201555 16.209932 
L 47.643707 16.375793 
L 48.049099 16.541655 
L 48.528355 16.763118 
L 48.915539 17.075993 
L 49.247067 17.352586 
L 49.597147 17.702686 
L 49.910467 18.071163 
L 50.214854 18.467911 
L 50.64773 18.863717 
L 50.998841 19.177535 
L 51.293609 19.554964 
L 51.617579 20.007314 
L 51.809281 20.439874 
L 51.958727 20.882799 
L 52.159018 21.333264 
L 52.361714 21.775248 
L 52.570594 22.212048 
L 52.753364 22.554138 
L 52.971519 22.948059 
" style="fill:none;stroke:#000000;stroke-linecap:square;stroke-width:0.4;"/>
   </g>
   <g id="line2d_51">
    <path clip-path="url(#pf4dfc7f857)" d="M 35.995903 14.219593 
L 36.108245 14.59231 
L 36.163557 15.145496 
L 36.117521 15.643081 
L 36.016173 16.029934 
L 35.981817 16.283439 
L 36.009302 16.458253 
L 36.037129 16.753223 
L 36.083165 17.002015 
L 36.156686 17.223007 
L 36.217494 17.407716 
L 36.38343 17.886924 
L 36.567574 18.476864 
L 36.714958 18.992825 
L 36.809092 19.54554 
L 36.88536 20.156684 
L 36.960942 20.654268 
L 37.036524 21.207926 
L 37.091664 21.532817 
L 37.146804 21.857707 
L 37.256741 22.403826 
L 37.398628 23.012142 
L 37.489841 23.333734 
L 37.581054 23.655327 
L 37.772069 24.227361 
L 37.930104 24.53411 
L 38.088138 24.84086 
L 38.365385 25.263996 
L 38.672177 25.722942 
L 39.009546 26.148434 
L 39.373368 26.5678 
L 39.706957 27.051249 
L 40.032301 27.469672 
L 40.308861 27.875373 
L 40.566869 28.188249 
L 40.880189 28.53882 
L 41.230269 28.778188 
L 41.709525 28.962427 
L 42.151677 28.99918 
L 42.686245 29.054781 
L 43.1655 29.091535 
L 43.681516 29.257396 
L 44.10546 29.515141 
L 44.4923 29.791735 
L 44.860932 30.141834 
L 45.1557 30.436804 
L 45.487572 30.823658 
L 45.78234 31.210511 
L 46.114211 31.616212 
L 46.427531 31.984689 
L 46.703748 32.334789 
L 47.054171 32.777243 
L 47.385699 33.219227 
L 47.735779 33.60608 
L 48.104411 33.993405 
L 48.362419 34.232773 
L 48.620427 34.472141 
L 48.989059 34.841089 
L 49.413003 35.172812 
L 49.800186 35.541289 
L 50.168475 35.799034 
L 50.555658 35.983272 
L 51.053122 36.204735 
L 51.55093 36.425727 
L 52.066946 36.665096 
L 52.547919 37.01708 
L 52.91449 37.291789 
L 53.209601 37.586758 
L 53.566209 37.976439 
L 53.840707 38.378842 
L 54.131009 38.784543 
L 54.352257 39.153019 
L 54.481089 39.447989 
L 54.637406 39.843795 
" style="fill:none;stroke:#000000;stroke-linecap:square;stroke-width:0.4;"/>
   </g>
   <g id="line2d_52">
    <path clip-path="url(#pf4dfc7f857)" d="M 48.223967 9.142437 
L 48.433878 9.361544 
L 48.590538 9.545782 
L 48.821062 9.910018 
L 48.986997 10.158811 
L 49.20481 10.341635 
L 49.495455 10.530114 
L 49.761021 10.555088 
L 49.981926 10.462733 
L 50.129653 10.407603 
L 50.258485 10.407603 
L 50.479733 10.499487 
L 50.654601 10.564041 
L 50.949713 10.508911 
L 51.244481 10.352002 
L 51.498023 10.183784 
L 51.741945 10.084833 
L 51.963193 10.048079 
L 52.119853 10.029702 
L 52.580557 10.07588 
" style="fill:none;stroke:#000000;stroke-dasharray:1.48,0.64;stroke-dashoffset:0;stroke-width:0.4;"/>
   </g>
   <g id="line2d_53">
    <path clip-path="url(#pf4dfc7f857)" d="M 25.7041 31.060199 
L 26.155528 30.949939 
L 26.3675 30.885384 
L 26.570196 30.802454 
L 26.966656 30.572038 
L 27.132592 30.4156 
L 27.30746 30.203561 
L 27.436636 29.98257 
L 27.54726 29.724353 
L 27.676092 29.411007 
L 27.795992 29.153262 
L 28.071521 28.630703 
L 28.413356 28.137831 
L 28.818748 27.66946 
L 29.021444 27.430092 
L 29.233415 27.162922 
L 29.557729 26.740729 
L 29.828277 26.432566 
L 30.098824 26.124403 
" style="fill:none;stroke:#000000;stroke-linecap:square;stroke-width:0.4;"/>
   </g>
   <g id="line2d_54">
    <path clip-path="url(#pf4dfc7f857)" d="M 37.772069 24.227361 
L 37.727408 24.61657 
L 37.682746 25.005779 
L 37.595827 25.54106 
L 37.466995 26.139952 
L 37.347095 26.582407 
L 37.245747 27.070568 
L 37.208987 27.347161 
L 37.208987 27.651083 
L 37.190435 28.176469 
L 37.135123 28.526569 
L 37.089087 28.775361 
L 37.005947 29.217816 
L 36.902194 29.794562 
" style="fill:none;stroke:#4169e1;stroke-linecap:square;stroke-width:0.4;"/>
   </g>
   <g id="line2d_55">
    <path clip-path="url(#pf4dfc7f857)" d="M 37.98679 35.319826 
L 37.845246 35.626576 
L 37.74218 35.966309 
L 37.673813 36.315938 
L 37.656636 36.620803 
L 37.656292 36.952526 
L 37.738745 37.329013 
L 37.74699 37.660265 
L 37.725003 37.998585 
L 37.660415 38.265754 
L 37.678967 38.597477 
L 37.715727 38.818469 
L 37.715727 39.012131 
L 37.669691 39.389561 
L 37.59995 39.872067 
L 37.538797 40.418185 
L 37.497915 40.857342 
L 37.488982 41.278592 
" style="fill:none;stroke:#4169e1;stroke-linecap:square;stroke-width:0.4;"/>
   </g>
   <g id="line2d_56">
    <path clip-path="url(#pf4dfc7f857)" d="M 54.978897 46.215331 
L 55.569464 46.210619 
L 55.936721 46.279414 
L 56.303979 46.348209 
L 56.610084 46.524437 
L 56.916189 46.700664 
L 57.196356 46.939562 
L 57.476524 47.178459 
L 57.811487 47.506884 
L 58.146451 47.835309 
L 58.398618 48.151482 
L 58.650786 48.467656 
L 58.784428 48.823881 
L 58.91807 49.180107 
L 59.018044 49.515128 
L 58.99743 49.93261 
L 58.906389 50.318285 
L 58.815348 50.70396 
L 58.686172 51.035683 
L 58.529512 51.413113 
L 58.446716 51.910698 
L 58.409956 52.334304 
L 58.346742 52.67875 
L 58.283528 53.023195 
L 58.230449 53.501225 
L 58.177371 53.979256 
" style="fill:none;stroke:#008000;stroke-linecap:square;stroke-width:0.4;"/>
   </g>
   <g id="line2d_57">
    <path clip-path="url(#pf4dfc7f857)" d="M 53.660686 46.265749 
L 54.038937 46.228996 
L 54.520254 46.216273 
L 54.978897 46.215331 
L 55.431699 46.619147 
L 55.884501 47.022964 
L 56.040302 47.390734 
L 56.196103 47.758503 
L 56.326482 48.099886 
L 56.45686 48.441269 
L 56.584489 48.800086 
L 56.712119 49.158903 
L 56.841123 49.545756 
L 56.970127 49.93261 
L 57.099131 50.338075 
L 57.228135 50.743541 
L 57.395445 51.205079 
L 57.562755 51.666617 
L 57.734016 52.193181 
L 57.905277 52.719744 
L 57.9733 53.034622 
L 58.041324 53.3495 
L 58.109347 53.664378 
L 58.177371 53.979256 
L 58.105912 54.494746 
L 58.034453 55.010236 
L 57.910087 55.461644 
L 57.785721 55.913051 
L 57.682827 56.326763 
L 57.579933 56.740474 
L 57.517406 57.144291 
L 57.45488 57.548107 
L 57.449039 57.981373 
L 57.443199 58.41464 
L 57.493529 58.855916 
L 57.54386 59.297193 
L 57.653968 59.677449 
L 57.764077 60.057706 
L 58.007999 60.540684 
L 58.251922 61.023661 
" style="fill:none;stroke:#008000;stroke-linecap:square;stroke-width:0.4;"/>
   </g>
   <g id="line2d_58">
    <path clip-path="url(#pf4dfc7f857)" d="M 32.913893 36.818235 
L 32.921452 36.31688 
L 32.955463 35.835788 
L 33.052002 35.359878 
L 33.268783 34.877843 
L 33.552558 34.457534 
L 33.848356 34.012724 
L 34.003986 33.70032 
L 34.159615 33.387915 
L 34.374335 32.813997 
L 34.503339 32.482273 
L 34.632343 32.15055 
L 34.908903 31.597835 
L 35.065563 31.284489 
L 35.222223 30.971142 
L 35.397263 30.630231 
L 35.572303 30.289319 
L 35.722435 29.956183 
L 35.872568 29.623046 
L 36.08454 29.341976 
L 36.296511 29.060907 
" style="fill:none;stroke:#008000;stroke-linecap:square;stroke-width:0.4;"/>
   </g>
   <g id="line2d_59">
    <path clip-path="url(#pf4dfc7f857)" d="M 58.251922 61.023661 
L 58.374913 61.418525 
L 58.449121 61.868048 
L 58.457366 62.162546 
L 58.472139 62.508877 
L 58.436066 62.870285 
L 58.34365 63.218971 
L 58.2131 63.485669 
L 58.021054 63.835769 
L 57.827634 64.185869 
L 57.637993 64.510053 
L 57.484769 64.81162 
L 57.310244 65.226274 
L 57.181068 65.557997 
L 57.066665 65.966054 
L 57.042273 66.304374 
L 57.070101 66.580496 
L 57.116137 66.820336 
L 57.116137 67.031903 
L 57.026126 67.244414 
L 56.852289 67.373993 
L 56.682917 67.391427 
L 56.492589 67.36504 
L 56.316347 67.26279 
L 56.171024 67.11719 
L 56.010929 66.949444 
L 55.838809 66.756724 
" style="fill:none;stroke:#008000;stroke-linecap:square;stroke-width:0.4;"/>
   </g>
   <g id="line2d_60">
    <path clip-path="url(#pf4dfc7f857)" d="M 13.43962 22.383564 
L 13.587004 22.982456 
L 13.587004 23.39711 
L 13.568452 23.74721 
L 13.614831 24.143488 
L 13.670143 24.336679 
" style="fill:none;stroke:#008000;stroke-linecap:square;stroke-width:0.4;"/>
   </g>
   <g id="line2d_61">
    <path clip-path="url(#pf4dfc7f857)" d="M 37.667973 15.781142 
L 38.017495 16.116635 
L 38.367016 16.452127 
L 38.716538 16.78762 
L 39.06606 17.123113 
L 39.415582 17.458606 
L 39.765103 17.794098 
L 40.114625 18.129591 
L 40.464147 18.465084 
L 40.813669 18.800577 
L 41.16319 19.136069 
L 41.512712 19.471562 
L 41.862234 19.807055 
L 42.211756 20.142548 
L 42.561277 20.478041 
L 42.910799 20.813533 
L 43.260321 21.149026 
L 43.628867 21.535997 
L 43.997413 21.922968 
L 44.365959 22.309939 
L 44.734505 22.696911 
L 45.08467 23.065505 
L 45.434836 23.434099 
L 45.785002 23.802694 
L 46.135168 24.171288 
L 46.354591 24.463696 
L 46.574014 24.756103 
L 46.793436 25.048511 
L 47.012859 25.340919 
L 47.232282 25.633326 
L 47.451704 25.925734 
L 47.671127 26.218142 
L 47.89055 26.510549 
L 48.109972 26.802957 
L 48.329395 27.095365 
L 48.548818 27.387772 
L 48.76824 27.68018 
L 48.987663 27.972587 
L 49.207086 28.264995 
L 49.426509 28.557403 
L 49.645931 28.84981 
L 49.943963 29.326427 
L 50.241995 29.803043 
L 50.540027 30.27966 
L 50.838058 30.756276 
L 51.13609 31.232893 
L 51.434122 31.709509 
L 51.732154 32.186126 
L 52.030186 32.662742 
L 52.195048 32.996115 
L 52.35991 33.329487 
L 52.524772 33.662859 
L 52.689635 33.996232 
L 52.854497 34.329604 
L 53.019359 34.662976 
L 53.184221 34.996349 
L 53.349084 35.329721 
" style="fill:none;stroke:#ff0000;stroke-dasharray:1.48,0.64;stroke-dashoffset:0;stroke-width:0.4;"/>
   </g>
   <g id="line2d_62">
    <path clip-path="url(#pf4dfc7f857)" d="M 27.187904 60.67686 
L 27.452267 61.057352 
L 27.716631 61.437844 
L 28.029522 61.667317 
L 28.342412 61.896791 
L 28.655302 62.126264 
L 28.968193 62.355737 
L 29.363965 62.548693 
L 29.759738 62.741648 
L 30.15551 62.934604 
L 30.551283 63.127559 
L 31.08439 63.318865 
L 31.617498 63.510172 
L 32.150606 63.701478 
L 32.683713 63.892784 
" style="fill:none;stroke:#000000;stroke-dasharray:1.48,0.64;stroke-dashoffset:0;stroke-width:0.4;"/>
   </g>
   <g id="line2d_63">
    <path clip-path="url(#pf4dfc7f857)" d="M 38.208725 30.415129 
L 38.513971 30.601723 
L 38.819217 30.788318 
L 39.090538 30.957831 
L 39.361859 31.127344 
L 39.633179 31.296858 
L 39.9045 31.466371 
L 40.239893 31.754391 
L 40.575286 32.04241 
L 40.910679 32.33043 
L 41.246072 32.61845 
L 41.481921 32.837792 
L 41.71777 33.057135 
L 41.953619 33.276477 
L 42.189468 33.49582 
L 42.520738 33.822831 
L 42.852009 34.149842 
L 43.183279 34.476853 
L 43.51455 34.803865 
L 43.749969 35.068796 
L 43.985388 35.333726 
L 44.220808 35.598657 
L 44.456227 35.863588 
L 44.666825 36.140064 
L 44.877422 36.416539 
L 45.08802 36.693014 
L 45.298618 36.969489 
L 45.510246 37.213099 
L 45.721874 37.456708 
L 45.933503 37.700317 
L 46.145131 37.943926 
L 46.408035 38.215218 
L 46.670938 38.48651 
L 46.933842 38.757802 
L 47.196745 39.029094 
L 47.476569 39.368239 
L 47.756392 39.707384 
L 48.036216 40.046528 
L 48.316039 40.385673 
L 48.655212 40.707854 
L 48.994384 41.030036 
L 49.333556 41.352217 
L 49.672728 41.674398 
L 49.977975 41.88632 
L 50.283221 42.098241 
L 50.588468 42.310162 
L 50.893714 42.522083 
L 51.326161 42.81882 
L 51.758607 43.115557 
L 52.191054 43.412293 
L 52.623501 43.70903 
L 52.923594 43.904813 
L 53.223687 44.100595 
" style="fill:none;stroke:#000000;stroke-dasharray:1.48,0.64;stroke-dashoffset:0;stroke-width:0.4;"/>
   </g>
   <g id="line2d_64">
    <path clip-path="url(#pf4dfc7f857)" d="M 12.021778 60.214144 
L 12.058538 60.739529 
L 12.159886 61.048164 
L 12.261234 61.356798 
L 12.39041 61.623967 
L 12.54707 61.891136 
L 12.795802 62.167729 
L 13.044534 62.370344 
L 13.413166 62.517829 
L 13.625138 62.581912 
L 13.864594 62.581912 
L 14.058358 62.554583 
L 14.251778 62.490029 
L 14.509786 62.407098 
L 14.943005 62.241236 
L 15.283294 62.145465 
L 15.623583 62.049694 
L 15.963872 61.953923 
L 16.30416 61.858152 
L 16.760398 61.577319 
L 17.04881 61.403918 
L 17.337223 61.230517 
L 17.627009 60.952746 
L 17.916796 60.674975 
L 18.174804 60.444677 
L 18.432812 60.214379 
L 18.69082 59.984081 
L 18.948828 59.753783 
L 19.252871 59.403684 
L 19.556915 59.053584 
L 19.933793 58.558826 
L 20.235861 58.419941 
L 20.53793 58.281055 
L 20.839998 58.14217 
L 21.142067 58.003284 
L 21.584391 57.948154 
L 22.026714 57.893024 
L 22.469038 57.856035 
L 22.911362 57.819046 
L 23.307478 58.003284 
L 23.703594 58.187522 
L 24.04457 58.546811 
L 24.385546 58.906099 
L 24.63445 59.357742 
L 24.883354 59.809385 
L 25.040013 60.380476 
L 25.196673 60.951568 
L 25.298021 61.522895 
L 25.399369 62.094223 
L 25.427025 62.619137 
L 25.454681 63.144051 
L 25.587121 63.706661 
L 25.71956 64.269271 
L 26.08699 64.741411 
L 26.454419 65.213551 
L 26.910657 65.373759 
L 27.454329 65.392135 
L 27.998001 65.410512 
L 28.606089 65.36457 
L 29.214176 65.318628 
L 29.767124 65.447501 
L 30.320072 65.576374 
L 30.780776 65.723859 
L 31.24148 65.871343 
L 31.74822 66.23982 
L 32.25496 66.608297 
L 32.605211 66.912219 
L 32.955463 67.216142 
L 33.333199 67.474122 
L 33.710935 67.732103 
L 34.116499 67.805846 
L 34.522063 67.879588 
L 34.991871 67.897965 
L 35.461679 67.916341 
L 35.894899 67.888776 
L 36.328118 67.861211 
L 36.89017 67.861211 
L 37.452222 67.861211 
L 37.958962 67.852023 
L 38.465702 67.842835 
L 38.898922 67.824458 
L 39.332141 67.806081 
L 39.838881 67.842835 
L 40.345621 67.879588 
L 40.668131 67.865806 
L 40.990641 67.852023 
L 41.313151 67.83824 
L 41.635661 67.824458 
L 42.197713 67.8704 
L 42.759765 67.916341 
L 43.082361 67.93943 
L 43.404956 67.962519 
L 43.727552 67.985608 
L 44.050148 68.008696 
L 44.483196 68.063826 
L 44.916244 68.118956 
L 45.404604 68.137569 
L 45.892964 68.156181 
L 46.242442 68.138865 
L 46.591921 68.121548 
L 46.9414 68.104232 
L 47.290879 68.086915 
L 47.846403 68.192935 
L 48.380971 68.432539 
L 48.915539 68.672143 
L 49.293275 68.699708 
L 49.671011 68.727273 
L 50.021262 68.607589 
L 50.371514 68.487904 
L 50.905738 68.192935 
L 51.246714 67.999508 
L 51.58769 67.806081 
L 52.106111 67.62679 
L 52.624531 67.4475 
L 52.981483 67.42394 
L 53.338434 67.40038 
L 53.826793 67.289884 
L 54.315153 67.179388 
L 54.739097 67.084442 
L 55.163041 66.989496 
L 55.500925 66.87311 
L 55.838809 66.756724 
" style="fill:none;stroke:#4169e1;stroke-linecap:square;stroke-width:0.4;"/>
   </g>
   <g id="line2d_65">
    <path clip-path="url(#pf4dfc7f857)" d="M 20.482102 47.45411 
L 20.224094 47.011655 
L 20.186991 46.680403 
L 20.205543 46.284126 
L 20.362203 45.763452 
L 20.518862 45.242779 
" style="fill:none;stroke:#008000;stroke-linecap:square;stroke-width:0.4;"/>
   </g>
   <g id="line2d_66">
    <path clip-path="url(#pf4dfc7f857)" d="M 10.182055 37.337495 
L 9.991727 37.909058 
L 9.918035 38.309811 
L 9.844343 38.710565 
L 9.802773 39.267992 
L 9.761203 39.825419 
L 9.724443 40.323003 
L 9.687683 40.820588 
L 9.664665 41.170688 
L 9.641647 41.520788 
L 9.571046 41.904579 
L 9.500446 42.288369 
L 9.405111 42.719986 
L 9.309775 43.151603 
L 9.199151 43.515604 
L 9.088527 43.879604 
L 8.950419 44.487449 
L 8.922591 45.059012 
L 8.982541 45.372123 
L 9.042491 45.685233 
L 9.199151 46.155253 
L 9.355811 46.625273 
L 9.527072 47.190003 
L 9.698333 47.754734 
" style="fill:none;stroke:#4169e1;stroke-linecap:square;stroke-width:0.4;"/>
   </g>
   <g id="line2d_67">
    <path clip-path="url(#pf4dfc7f857)" d="M 13.830239 25.601844 
L 13.480674 26.039352 
L 13.131109 26.476859 
L 12.759386 26.858058 
L 12.387662 27.239257 
L 12.161862 27.499593 
L 11.936062 27.75993 
L 11.710262 28.020267 
L 11.484462 28.280603 
L 11.194504 28.554841 
L 10.904546 28.829078 
L 10.646366 29.095069 
L 10.388186 29.36106 
L 10.130006 29.627051 
L 9.871827 29.893042 
L 9.494434 30.219111 
L 9.117042 30.54518 
L 8.857316 30.908002 
L 8.59759 31.270824 
L 8.345251 31.671107 
L 8.092912 32.071389 
L 7.816867 32.486043 
L 7.540823 32.900697 
L 7.316311 33.350926 
L 7.0918 33.801156 
L 6.915042 34.249972 
L 6.738284 34.698788 
L 6.55603 35.164566 
L 6.373775 35.630345 
L 6.220035 36.207563 
L 6.066296 36.78478 
L 5.986076 37.192366 
L 5.905857 37.599952 
L 6.038811 38.174342 
L 6.296819 38.556954 
L 6.669917 38.504887 
L 7.043015 38.45282 
L 7.333317 38.296146 
L 7.623619 38.139473 
L 8.019735 37.817174 
L 8.305227 37.393096 
L 8.618547 37.024619 
L 8.895107 36.785015 
L 9.171667 36.545411 
L 9.385013 36.32866 
L 9.753645 36.116621 
L 10.057689 36.052539 
L 10.343524 36.130757 
L 10.518393 36.338084 
" style="fill:none;stroke:#4169e1;stroke-linecap:square;stroke-width:0.4;"/>
   </g>
   <g id="line2d_68">
    <path clip-path="url(#pf4dfc7f857)" d="M 12.436446 49.762036 
L 12.851114 49.817166 
L 13.265782 49.872296 
L 13.625138 49.789601 
L 13.984494 49.706906 
L 14.408438 49.458113 
L 14.832381 49.209321 
L 15.160989 49.001052 
L 15.489597 48.792782 
" style="fill:none;stroke:#008000;stroke-linecap:square;stroke-width:0.4;"/>
   </g>
   <g id="line2d_69">
    <path clip-path="url(#pf4dfc7f857)" d="M 32.155673 46.635168 
L 32.503863 46.625508 
L 32.852054 46.615849 
L 33.286648 46.60242 
L 33.721242 46.588991 
L 34.204448 46.666974 
L 34.687655 46.744957 
L 35.043404 46.867468 
L 35.399152 46.98998 
L 35.728619 47.007414 
L 36.058086 47.024848 
L 36.48014 47.023906 
L 36.902194 47.022964 
L 37.267563 46.961237 
L 37.632931 46.89951 
L 37.978029 46.845322 
L 38.323128 46.791134 
L 38.677846 46.664853 
L 39.032564 46.538572 
L 39.506151 46.398862 
L 39.979738 46.259152 
L 40.457963 46.156902 
L 40.936188 46.054652 
L 41.378512 46.07727 
L 41.820836 46.099887 
" style="fill:none;stroke:#4169e1;stroke-linecap:square;stroke-width:0.4;"/>
   </g>
   <g id="line2d_70">
    <path clip-path="url(#pf4dfc7f857)" d="M 39.431428 61.46753 
L 39.704209 61.753075 
L 39.976989 62.038621 
L 40.328615 62.288356 
L 40.680241 62.538091 
L 41.048873 62.768742 
L 41.417505 62.999393 
L 41.674998 63.219678 
L 41.93249 63.439963 
L 42.393194 63.772629 
L 42.632822 63.983961 
L 42.87245 64.195293 
L 43.139562 64.499451 
L 43.406674 64.803609 
L 43.673099 65.097872 
L 43.939524 65.392135 
L 44.215912 65.567185 
L 44.4923 65.742235 
L 44.854404 65.955452 
L 45.216509 66.168669 
L 45.464382 66.398142 
L 45.712255 66.627616 
L 46.09566 66.976773 
L 46.485592 67.327816 
L 46.948013 67.754249 
L 47.290879 68.086915 
" style="fill:none;stroke:#008000;stroke-linecap:square;stroke-width:0.4;"/>
   </g>
   <g id="line2d_71">
    <path clip-path="url(#pf4dfc7f857)" d="M 39.431428 61.46753 
L 39.836648 61.630564 
L 40.241868 61.793598 
L 40.647089 61.956633 
L 41.052309 62.119667 
L 41.388475 62.247715 
L 41.724641 62.375763 
L 42.060807 62.503811 
L 42.396973 62.631859 
L 42.727986 62.75225 
L 43.058999 62.872641 
L 43.390012 62.993032 
L 43.721025 63.113423 
L 44.05281 63.251602 
L 44.384596 63.389781 
L 44.716382 63.527959 
L 45.048168 63.666138 
L 45.407524 63.813623 
L 45.76688 63.961108 
L 46.15853 64.085268 
L 46.55018 64.209429 
L 47.047644 64.333825 
L 47.545108 64.458221 
L 48.002204 64.557173 
L 48.459301 64.656124 
L 48.79289 64.731045 
L 49.12648 64.805965 
L 49.460069 64.880886 
L 49.793659 64.955806 
" style="fill:none;stroke:#008000;stroke-linecap:square;stroke-width:0.4;"/>
   </g>
   <g id="line2d_72">
    <path clip-path="url(#pf4dfc7f857)" d="M 15.489597 48.792782 
L 15.833322 48.572262 
L 16.177046 48.351741 
L 16.546193 48.074913 
L 16.91534 47.798084 
L 17.182968 47.629395 
L 17.478079 47.435733 
L 17.816994 47.169153 
L 18.155908 46.902573 
L 18.494823 46.635993 
L 18.833737 46.369412 
" style="fill:none;stroke:#4169e1;stroke-linecap:square;stroke-width:0.4;"/>
   </g>
   <g id="line2d_73">
    <path clip-path="url(#pf4dfc7f857)" d="M 18.833737 46.369412 
L 19.265755 46.029443 
L 19.697772 45.689474 
L 20.108317 45.466126 
L 20.518862 45.242779 
L 20.849875 45.233944 
L 21.180888 45.225109 
L 21.511901 45.216274 
L 21.842914 45.207439 
L 22.25552 45.277883 
L 22.668127 45.348327 
L 23.080734 45.418771 
L 23.49334 45.489215 
L 23.82985 45.578507 
L 24.166359 45.667799 
L 24.580168 45.819289 
L 24.993977 45.970779 
L 25.340622 46.085516 
L 25.687266 46.200252 
L 26.033911 46.314989 
L 26.380555 46.429726 
L 26.940374 46.531976 
L 27.500193 46.634226 
L 27.918125 46.719041 
L 28.336056 46.803857 
L 28.960635 46.885845 
L 29.494687 46.880662 
L 30.028739 46.875479 
L 30.393249 46.840139 
L 30.757758 46.804799 
L 31.111617 46.766632 
L 31.465476 46.728465 
L 31.810575 46.681817 
L 32.155673 46.635168 
" style="fill:none;stroke:#4169e1;stroke-linecap:square;stroke-width:0.4;"/>
   </g>
   <g id="line2d_74">
    <path clip-path="url(#pf4dfc7f857)" d="M 25.83362 54.870762 
L 26.013298 55.216385 
L 26.192976 55.562009 
L 26.37712 55.727399 
L 26.544773 55.867816 
L 26.813775 56.067368 
L 27.082777 56.26692 
L 27.236173 56.646941 
L 27.389569 57.026962 
L 27.537125 57.340073 
L 27.684681 57.653184 
L 27.887377 57.975719 
L 28.090073 58.298254 
L 28.412497 58.648354 
L 28.734921 58.998454 
L 29.020585 59.228869 
L 29.306249 59.459285 
L 29.720916 59.698653 
L 30.135584 59.938022 
L 30.535479 60.114485 
L 30.935375 60.290949 
L 31.309503 60.455397 
L 31.683632 60.619845 
L 32.070644 60.831884 
L 32.457656 61.043923 
L 32.780251 61.20036 
L 33.102847 61.356798 
L 33.443823 61.55046 
L 33.784799 61.744123 
L 34.190191 61.928361 
L 34.595583 62.112599 
L 35.056287 62.278461 
L 35.516991 62.444322 
L 35.922555 62.619137 
L 36.328118 62.793951 
L 36.669094 62.959813 
L 37.01007 63.125674 
L 37.323218 63.291536 
L 37.636366 63.457398 
L 37.970471 63.587919 
L 38.304576 63.718441 
L 38.654656 63.874407 
L 39.004736 64.030374 
L 39.390545 64.250659 
L 39.776355 64.470944 
L 40.060988 64.673559 
L 40.345621 64.876174 
L 40.649665 65.060412 
L 40.953709 65.24465 
L 41.389162 65.550222 
L 41.824615 65.855794 
L 42.212142 66.123434 
L 42.599669 66.391074 
L 42.928621 66.665547 
L 43.257572 66.94002 
L 43.478648 67.188812 
L 43.699724 67.437605 
L 43.874936 67.72315 
L 44.050148 68.008696 
" style="fill:none;stroke:#4169e1;stroke-linecap:square;stroke-width:0.4;"/>
   </g>
   <g id="line2d_75">
    <path clip-path="url(#pf4dfc7f857)" d="M 11.375556 36.199552 
L 11.555578 36.613264 
L 11.787475 37.094828 
L 12.001509 37.614088 
L 12.25883 38.176227 
L 12.384742 38.508892 
L 12.510654 38.841558 
L 12.652025 39.227469 
L 12.793397 39.61338 
L 12.922401 39.945103 
L 13.051405 40.276826 
L 13.180409 40.599361 
L 13.309413 40.921896 
L 13.530661 41.511835 
L 13.659665 41.834134 
L 13.788669 42.156434 
L 13.981745 42.690772 
L 14.175165 43.262335 
L 14.23168 43.594765 
L 14.288194 43.927195 
L 14.38353 44.241484 
L 14.478866 44.555772 
L 14.589662 44.890323 
L 14.700457 45.224873 
L 15.004501 45.731411 
L 15.290337 46.044757 
L 15.483757 46.118264 
L 15.704661 46.118264 
L 15.971945 46.035333 
L 16.275989 45.860519 
L 16.598585 45.666857 
L 16.995044 45.436441 
L 17.404215 45.206025 
L 17.837435 44.957233 
L 18.196791 44.782419 
L 18.630011 44.662263 
L 19.090715 44.59818 
L 19.606731 44.643886 
L 20.039607 44.763571 
L 20.251579 44.920479 
L 20.42679 45.05854 
L 20.518862 45.242779 
" style="fill:none;stroke:#000000;stroke-linecap:square;stroke-width:0.4;"/>
   </g>
   <g id="line2d_76">
    <path clip-path="url(#pf4dfc7f857)" d="M 10.518393 36.338084 
L 10.946974 36.268818 
L 11.375556 36.199552 
" style="fill:none;stroke:#008000;stroke-linecap:square;stroke-width:0.4;"/>
   </g>
   <g id="line2d_77">
    <path clip-path="url(#pf4dfc7f857)" d="M 10.518393 36.338084 
L 10.527668 36.591118 
L 10.454148 36.761691 
L 10.338715 36.978442 
L 10.182055 37.337495 
" style="fill:none;stroke:#008000;stroke-linecap:square;stroke-width:0.4;"/>
   </g>
   <g id="line2d_78">
    <path clip-path="url(#pf4dfc7f857)" d="M 8.219339 39.101188 
L 8.072814 39.540697 
L 7.926289 39.980207 
L 7.779764 40.419717 
L 7.633239 40.859226 
L 7.640539 41.394154 
L 7.64784 41.929081 
L 7.65514 42.464008 
L 7.662441 42.998935 
L 7.739396 43.420186 
L 7.816352 43.841437 
L 7.893308 44.262687 
L 7.970264 44.683938 
L 8.047219 45.105189 
L 8.124175 45.52644 
L 8.201131 45.947691 
L 8.278087 46.368941 
" style="fill:none;stroke:#000000;stroke-dasharray:1.48,0.64;stroke-dashoffset:0;stroke-width:0.4;"/>
   </g>
   <g id="line2d_79">
    <path clip-path="url(#pf4dfc7f857)" d="M 51.317658 55.317928 
L 51.143992 55.852384 
L 50.970326 56.38684 
L 50.79666 56.921296 
L 50.622995 57.455752 
L 50.476469 57.836716 
L 50.329944 58.217679 
L 50.183419 58.598642 
L 50.036894 58.979606 
L 50.060256 59.603236 
L 50.083617 60.226866 
" style="fill:none;stroke:#008000;stroke-linecap:square;stroke-width:0.4;"/>
   </g>
  </g>
 </g>
 <defs>
  <clipPath id="pf4dfc7f857">
   <rect height="72" width="62.5101" x="0" y="0"/>
  </clipPath>
 </defs>
</svg>
