<?xml version="1.0" encoding="utf-8" standalone="no"?>
<!DOCTYPE svg PUBLIC "-//W3C//DTD SVG 1.1//EN"
  "http://www.w3.org/Graphics/SVG/1.1/DTD/svg11.dtd">
<svg xmlns:xlink="http://www.w3.org/1999/xlink" width="58.592872pt" height="72pt" viewBox="0 0 58.592872 72" xmlns="http://www.w3.org/2000/svg" version="1.1">
 <metadata>
  <rdf:RDF xmlns:dc="http://purl.org/dc/elements/1.1/" xmlns:cc="http://creativecommons.org/ns#" xmlns:rdf="http://www.w3.org/1999/02/22-rdf-syntax-ns#">
   <cc:Work>
    <dc:type rdf:resource="http://purl.org/dc/dcmitype/StillImage"/>
    <dc:date>2022-05-17T14:54:06.273038</dc:date>
    <dc:format>image/svg+xml</dc:format>
    <dc:creator>
     <cc:Agent>
      <dc:title>Matplotlib v3.5.2, https://matplotlib.org/</dc:title>
     </cc:Agent>
    </dc:creator>
   </cc:Work>
  </rdf:RDF>
 </metadata>
 <defs>
  <style type="text/css">*{stroke-linejoin: round; stroke-linecap: butt}</style>
 </defs>
 <g id="figure_1">
  <g id="patch_1">
   <path d="M 0 72 
L 58.592872 72 
L 58.592872 0 
L 0 0 
z
" style="fill: #ffffff"/>
  </g>
  <g id="axes_1">
   <g id="line2d_1">
    <path d="M 29.822373 59.914252 
L 29.81723 58.205824 
L 29.8108 56.263877 
L 29.803406 53.823599 
L 29.796012 51.383322 
L 29.784439 47.789926 
L 29.774152 44.430049 
L 29.765793 41.812764 
L 29.758078 39.196413 
L 29.752291 37.393644 
L 29.743933 34.676879 
L 29.735574 31.960115 
L 29.727859 29.550662 
L 29.720144 27.141209 
L 29.712428 24.624804 
L 29.709856 23.680452 
L 29.705999 22.436261 
L 29.695711 19.156715 
L 29.685424 15.877169 
L 29.678994 13.860496 
" clip-path="url(#pd394b67835)" style="fill: none; stroke: #808080; stroke-width: 0.4; stroke-linecap: square"/>
   </g>
   <g id="line2d_2">
    <path d="M 24.605437 59.947878 
L 24.320929 56.830862 
L 24.036422 53.713845 
" clip-path="url(#pd394b67835)" style="fill: none; stroke: #808080; stroke-width: 0.4; stroke-linecap: square"/>
   </g>
   <g id="line2d_3">
    <path d="M 14.979758 67.183243 
L 14.782371 64.638816 
L 14.557658 61.747379 
L 14.332945 58.855942 
L 14.129771 56.236322 
L 13.926598 53.616701 
L 13.632124 49.827616 
L 13.337651 46.038531 
L 13.168232 43.855125 
L 12.998814 41.671718 
L 12.818786 39.353805 
L 12.638759 37.035892 
L 12.361645 33.46398 
L 12.281276 32.42622 
L 12.095462 30.034981 
L 11.809347 26.352848 
L 11.732835 25.366462 
L 11.449292 21.71562 
L 11.165749 18.064778 
L 10.938143 15.128973 
L 10.770492 12.967984 
L 10.602842 10.806996 
L 10.435191 8.646008 
L 10.267541 6.48502 
L 10.068225 3.920977 
" clip-path="url(#pd394b67835)" style="fill: none; stroke: #808080; stroke-width: 0.4; stroke-linecap: square"/>
   </g>
   <g id="line2d_4">
    <path d="M 4.35557 68.727273 
L 4.316993 65.825094 
L 4.280666 63.087313 
L 4.244339 60.349532 
L 4.208333 57.621091 
L 4.1794 55.449361 
L 4.125392 51.358102 
L 4.071384 47.266843 
L 4.039236 44.849917 
L 4.007088 42.432992 
L 3.953723 38.402447 
L 3.920289 35.859888 
L 3.889428 33.526563 
L 3.834776 29.391402 
L 3.814202 27.84457 
L 3.774982 24.889615 
L 3.735761 21.934661 
L 3.718401 20.626019 
" clip-path="url(#pd394b67835)" style="fill: none; stroke: #808080; stroke-width: 0.4; stroke-linecap: square"/>
   </g>
   <g id="line2d_5">
    <path d="M 30.363741 12.311795 
L 31.104426 11.879317 
L 31.84511 11.446839 
L 32.66327 11.755552 
L 33.48143 12.064265 
L 34.237867 12.805455 
L 34.994303 13.546645 
L 35.20905 14.187656 
L 35.423797 14.828667 
L 35.638544 15.469678 
L 35.853291 16.110688 
L 36.116903 16.897415 
L 36.380514 17.684142 
L 36.644126 18.470868 
L 36.907737 19.257595 
L 37.301386 20.137263 
L 37.695036 21.01693 
L 38.088685 21.896598 
L 38.482334 22.776265 
L 39.099892 23.578638 
L 39.71745 24.38101 
L 39.979776 25.399855 
L 40.242102 26.4187 
L 40.504427 27.437545 
L 40.766753 28.45639 
L 40.959639 29.544357 
L 41.152526 30.632324 
L 41.345412 31.72029 
L 41.538299 32.808257 
L 41.55373 33.826869 
L 41.569161 34.84548 
L 41.584592 35.864092 
L 41.600023 36.882703 
L 41.492006 37.639072 
L 41.38399 38.395442 
L 41.275973 39.151811 
L 41.167957 39.90818 
L 41.05994 40.664549 
L 40.951924 41.420919 
L 40.843908 42.177288 
L 40.735891 42.933657 
L 40.492774 43.670528 
L 40.249656 44.407398 
L 40.006539 45.144268 
L 39.763422 45.881139 
L 39.520304 46.618009 
L 39.277187 47.354879 
L 39.03407 48.09175 
L 38.790952 48.82862 
L 38.628928 49.546459 
L 38.466903 50.264297 
L 38.304878 50.982136 
L 38.142854 51.699974 
L 37.864936 52.71088 
L 37.587019 53.721785 
L 37.309102 54.73269 
L 37.031185 55.743596 
L 36.553951 56.597109 
L 36.076718 57.450622 
L 35.599485 58.304136 
L 35.122251 59.157649 
" clip-path="url(#pd394b67835)" style="fill: none; stroke: #4169e1; stroke-width: 0.4; stroke-linecap: square"/>
   </g>
   <g id="line2d_6">
    <path d="M 35.853291 16.110688 
L 36.441113 16.42664 
L 37.028934 16.742592 
L 37.616756 17.058543 
L 38.204577 17.374495 
L 39.038168 18.068982 
L 39.87176 18.763468 
L 40.520019 19.087593 
L 41.168278 19.411718 
L 41.816538 19.735843 
L 42.464797 20.059968 
L 43.221073 20.229736 
L 43.977349 20.399505 
L 44.733624 20.569274 
L 45.4899 20.739042 
L 46.323491 21.109404 
L 47.157082 21.479766 
L 47.681894 21.927422 
L 48.206706 22.375079 
L 48.731518 22.822735 
L 49.25633 23.270392 
L 49.689682 24.126941 
L 50.074812 24.886813 
L 50.459942 25.646685 
L 50.544812 26.333699 
L 50.629682 27.020713 
L 50.714552 27.707727 
L 50.799422 28.394741 
L 50.614251 29.143171 
L 50.42908 29.8916 
L 50.243909 30.64003 
L 50.058738 31.388459 
L 49.888998 32.391659 
L 49.719258 33.394858 
L 49.618957 34.282465 
L 49.518656 35.170072 
L 49.418355 36.057679 
L 49.318054 36.945286 
L 49.564949 37.909721 
L 49.811843 38.874156 
L 50.058738 39.838591 
L 50.305633 40.803026 
L 50.629682 41.729164 
L 50.953731 42.655302 
L 51.108041 43.349789 
L 51.26235 44.044275 
" clip-path="url(#pd394b67835)" style="fill: none; stroke: #008000; stroke-width: 0.4; stroke-linecap: square"/>
   </g>
   <g id="line2d_7">
    <path d="M 51.26235 44.044275 
L 50.953731 44.707937 
L 50.645113 45.371599 
L 49.873246 46.066086 
L 49.101378 46.760573 
L 48.422257 47.385704 
L 47.743136 48.010835 
L 47.064015 48.635967 
L 46.384893 49.261098 
L 45.651282 50.100834 
L 45.194141 50.623917 
L 44.737 51.147 
L 44.279859 51.670084 
L 43.822718 52.193167 
L 43.352075 52.679355 
L 42.881432 53.165542 
L 42.410789 53.651729 
L 41.940146 54.137917 
L 41.260864 54.832403 
L 40.581582 55.52689 
L 39.9023 56.221376 
L 39.223018 56.915863 
L 38.474297 57.408822 
L 37.725576 57.901782 
L 36.976855 58.394741 
L 36.228134 58.887701 
" clip-path="url(#pd394b67835)" style="fill: none; stroke: #008000; stroke-width: 0.4; stroke-linecap: square"/>
   </g>
   <g id="line2d_8">
    <path d="M 41.600023 36.882703 
L 41.986117 37.808841 
L 42.372211 38.734979 
L 43.035741 39.784415 
L 43.699271 40.833851 
L 44.208812 41.559629 
L 44.718354 42.285407 
L 44.98068 43.273194 
L 45.243005 44.260981 
L 45.351022 45.017117 
L 45.459038 45.773253 
L 45.567055 46.529388 
L 45.675071 47.285524 
L 45.669124 47.989352 
L 45.663177 48.693179 
L 45.657229 49.397006 
L 45.651282 50.100834 
" clip-path="url(#pd394b67835)" style="fill: none; stroke: #008000; stroke-width: 0.4; stroke-linecap: square"/>
   </g>
   <g id="line2d_9">
    <path d="M 51.26235 44.044275 
L 51.633335 45.248301 
L 51.633335 46.00467 
L 51.633335 46.76104 
L 51.633335 47.517409 
L 51.633335 48.273778 
L 51.409426 48.945146 
L 51.185517 49.616514 
L 50.961608 50.287883 
L 50.737699 50.959251 
L 50.328619 51.614973 
L 49.919538 52.270696 
L 49.510458 52.926418 
L 49.101378 53.58214 
L 48.545865 53.952736 
L 47.990352 54.323331 
L 47.434839 54.693926 
L 46.879326 55.064521 
L 46.169182 55.404059 
L 45.459038 55.743596 
L 44.748895 56.083133 
L 44.038751 56.42267 
L 42.873395 56.846975 
L 41.708039 57.271279 
L 40.542683 57.695584 
L 39.377327 58.119889 
L 38.590029 58.311842 
L 37.80273 58.503795 
L 37.015432 58.695748 
L 36.228134 58.887701 
L 35.122251 59.157649 
L 34.318397 59.353572 
L 33.514542 59.549494 
L 32.710688 59.745417 
L 31.906833 59.94134 
" clip-path="url(#pd394b67835)" style="fill: none; stroke: #008000; stroke-width: 0.4; stroke-linecap: square"/>
   </g>
   <g id="line2d_10">
    <path d="M 21.843302 53.706373 
L 21.912741 54.412419 
L 21.98218 55.118464 
L 22.05162 55.82451 
L 22.121059 56.530556 
L 22.190498 57.236602 
L 22.259937 57.942648 
L 22.329376 58.648693 
L 22.398815 59.354739 
" clip-path="url(#pd394b67835)" style="fill: none; stroke: #008000; stroke-width: 0.4; stroke-linecap: square"/>
   </g>
   <g id="line2d_11">
    <path d="M 30.363741 12.311795 
L 30.518051 11.53978 
L 30.67236 10.767765 
L 30.532196 9.920557 
L 30.392031 9.073348 
L 29.848735 8.454989 
L 29.698926 7.705859 
L 30.298803 7.386405 
L 31.139788 7.370058 
L 31.980773 7.353712 
L 32.821758 7.337365 
L 33.662743 7.321019 
L 34.503729 7.304673 
L 35.344714 7.288326 
L 36.185699 7.27198 
L 37.026684 7.255634 
L 38.066664 7.52745 
L 39.106643 7.799267 
L 39.668907 8.408285 
L 40.231171 9.017304 
L 40.699886 9.75756 
L 41.1686 10.497817 
L 42.077417 11.331948 
L 42.986233 12.166079 
L 43.576466 12.718586 
L 44.166699 13.271093 
L 44.41504 13.964645 
L 44.663382 14.658198 
L 44.911723 15.35175 
L 45.160064 16.045303 
L 45.534907 16.95416 
L 45.90975 17.863018 
L 46.221583 18.767205 
L 46.533416 19.671392 
L 46.845249 20.575579 
L 47.157082 21.479766 
" clip-path="url(#pd394b67835)" style="fill: none; stroke: #008000; stroke-width: 0.4; stroke-linecap: square"/>
   </g>
   <g id="line2d_12">
    <path d="M 49.689682 24.126941 
L 50.494662 24.298344 
L 51.299641 24.469748 
L 52.138055 24.870467 
L 52.976468 25.271186 
L 53.541625 25.818088 
L 54.106783 26.364991 
L 54.67194 26.911893 
L 55.237098 27.458796 
L 55.410213 28.224272 
L 55.583329 28.989748 
L 55.756444 29.755225 
L 55.92956 30.520701 
L 55.92956 31.249982 
L 55.92956 31.979263 
L 55.92956 32.708544 
L 55.92956 33.437825 
L 55.59233 34.185087 
L 55.2551 34.932349 
L 54.91787 35.679611 
L 54.58064 36.426873 
L 54.28906 37.538893 
L 53.99748 38.650912 
L 53.701962 39.475586 
L 53.406444 40.300259 
L 53.110926 41.124933 
L 52.815408 41.949607 
L 52.519889 42.77428 
L 52.224371 43.598954 
L 51.928853 44.423627 
L 51.633335 45.248301 
" clip-path="url(#pd394b67835)" style="fill: none; stroke: #008000; stroke-width: 0.4; stroke-linecap: square"/>
   </g>
   <g id="line2d_13">
    <path d="M 30.363741 12.311795 
L 29.315725 12.693833 
L 28.732243 13.404666 
L 28.148762 14.115499 
L 27.838857 14.917871 
L 27.528953 15.720244 
L 27.620253 16.740723 
L 27.711552 17.761203 
L 28.012294 18.864115 
L 28.313037 19.967027 
L 28.613779 21.069939 
L 28.914521 22.172851 
L 28.923683 23.27553 
L 28.932845 24.378208 
L 28.942007 25.480886 
L 28.951169 26.583565 
L 28.741566 27.777549 
L 28.531963 28.971534 
L 28.322359 30.165519 
L 28.112756 31.359503 
L 28.125937 32.307708 
L 28.139117 33.255914 
L 28.152298 34.204119 
L 28.165478 35.152325 
L 28.178659 36.10053 
L 28.19184 37.048735 
L 28.20502 37.996941 
L 28.218201 38.945146 
L 28.231381 39.893352 
L 28.244562 40.841557 
L 28.257742 41.789763 
L 28.270923 42.737968 
L 28.284104 43.686173 
L 28.297284 44.634379 
L 28.310465 45.582584 
L 28.323645 46.53079 
L 28.3355 47.382493 
L 28.347354 48.234197 
L 28.359209 49.0859 
L 28.371063 49.937604 
L 28.382918 50.789307 
L 28.394772 51.641011 
L 28.406627 52.492714 
L 28.418481 53.344418 
L 28.430336 54.196121 
L 28.44219 55.047825 
L 28.454045 55.899528 
L 28.465899 56.751232 
L 28.477754 57.602935 
L 28.489608 58.454639 
L 28.501463 59.306342 
L 28.513317 60.158046 
" clip-path="url(#pd394b67835)" style="fill: none; stroke: #4169e1; stroke-width: 0.4; stroke-linecap: square"/>
   </g>
   <g id="line2d_14">
    <path d="M 28.914521 22.172851 
L 29.752934 22.865469 
L 30.591348 23.558088 
L 31.120017 23.959041 
L 31.648687 24.359993 
L 32.177357 24.760946 
L 32.706026 25.161899 
L 33.307511 25.94559 
L 33.908995 26.729281 
L 34.059447 27.394578 
L 34.209898 28.059874 
L 34.36035 28.725171 
L 34.510801 29.390468 
L 34.661252 30.055764 
L 34.811704 30.721061 
L 34.962155 31.386358 
L 35.112607 32.051654 
L 35.217409 32.680522 
L 35.32221 33.30939 
L 35.427012 33.938257 
L 35.531814 34.567125 
L 35.636615 35.195993 
L 35.741417 35.82486 
L 35.846219 36.453728 
L 35.95102 37.082596 
L 36.101391 38.007683 
L 36.251762 38.93277 
L 36.402133 39.857857 
L 36.552505 40.782944 
L 36.702876 41.708031 
L 36.853247 42.633118 
L 37.003618 43.558205 
L 37.153989 44.483292 
L 37.277597 45.385377 
L 37.401205 46.287462 
L 37.524813 47.189548 
L 37.648421 48.091633 
L 37.772029 48.993718 
L 37.895637 49.895804 
L 38.019246 50.797889 
L 38.142854 51.699974 
" clip-path="url(#pd394b67835)" style="fill: none; stroke: #4169e1; stroke-width: 0.4; stroke-linecap: square"/>
   </g>
   <g id="line2d_15">
    <path d="M 28.951169 26.583565 
L 29.543652 27.403918 
L 30.136135 28.224272 
L 30.728618 29.044626 
L 31.321101 29.864979 
L 31.521543 30.657777 
L 31.721984 31.450576 
L 31.922425 32.243374 
L 32.122866 33.036172 
L 32.086861 33.69096 
L 32.050855 34.345749 
L 32.01485 35.000537 
L 31.978844 35.655325 
L 31.941553 36.332532 
L 31.904262 37.009738 
L 32.022726 37.665927 
L 32.14119 38.322117 
L 32.259655 38.978306 
L 32.378119 39.634495 
L 32.482921 40.445625 
L 32.587723 41.256755 
L 32.692524 42.067884 
L 32.797326 42.879014 
L 32.902128 43.690143 
L 33.006929 44.501273 
L 33.111731 45.312402 
L 33.216533 46.123532 
L 33.20287 46.807043 
L 33.189207 47.490554 
L 33.175544 48.174065 
L 33.161881 48.857577 
L 33.148219 49.541088 
L 33.134556 50.224599 
L 33.120893 50.90811 
L 33.10723 51.591621 
L 32.957181 52.635336 
L 32.807131 53.679051 
L 32.657081 54.722766 
L 32.507032 55.766481 
L 32.356982 56.810195 
L 32.206933 57.85391 
L 32.056883 58.897625 
L 31.906833 59.94134 
" clip-path="url(#pd394b67835)" style="fill: none; stroke: #4169e1; stroke-width: 0.4; stroke-linecap: square"/>
   </g>
   <g id="line2d_16">
    <path d="M 35.112607 32.051654 
L 34.629426 32.480163 
L 34.146246 32.908671 
L 33.663065 33.337179 
L 33.179884 33.765687 
L 32.579364 34.710506 
L 31.978844 35.655325 
" clip-path="url(#pd394b67835)" style="fill: none; stroke: #008000; stroke-width: 0.4; stroke-linecap: square"/>
   </g>
   <g id="line2d_17">
    <path d="M 31.321101 29.864979 
L 31.785797 30.840156 
L 32.250493 31.815333 
L 32.715189 32.79051 
L 33.179884 33.765687 
L 33.872668 34.594914 
L 34.565452 35.424141 
L 35.258236 36.253369 
L 35.95102 37.082596 
" clip-path="url(#pd394b67835)" style="fill: none; stroke: #008000; stroke-width: 0.4; stroke-linecap: square"/>
   </g>
   <g id="line2d_18">
    <path d="M 11.670469 3.980758 
L 12.581857 4.226887 
L 13.493246 4.473017 
L 14.404635 4.719146 
L 15.316023 4.965276 
L 16.190924 5.202298 
L 17.065825 5.43932 
L 17.940726 5.676342 
L 18.815627 5.913364 
L 19.171181 6.587768 
L 19.526735 7.262172 
L 19.882289 7.936576 
L 20.237844 8.61098 
L 20.492132 9.683301 
L 20.746421 10.755622 
L 20.997013 11.569904 
L 21.247604 12.384186 
L 21.498196 13.198468 
L 21.748788 14.01275 
L 21.827711 14.845714 
L 21.906633 15.678677 
L 21.985556 16.511641 
L 22.064479 17.344605 
L 21.91467 18.22544 
L 21.764862 19.106275 
L 22.0648 19.996451 
L 22.364739 20.886626 
L 22.664516 21.514326 
L 22.964294 22.142026 
L 23.264072 22.769727 
L 23.56385 23.397427 
L 24.365132 23.898793 
L 25.166415 24.400159 
L 25.967698 24.901525 
L 26.76898 25.402891 
L 27.860075 25.993228 
L 28.951169 26.583565 
" clip-path="url(#pd394b67835)" style="fill: none; stroke: #4169e1; stroke-width: 0.4; stroke-linecap: square"/>
   </g>
   <g id="line2d_19">
    <path d="M 11.670469 3.980758 
L 11.939063 4.55288 
L 12.207657 5.125003 
L 12.476252 5.697125 
L 12.744846 6.269248 
L 13.041892 7.109918 
L 13.338937 7.950587 
L 13.536645 8.939775 
L 13.734354 9.928963 
L 13.598369 10.621348 
L 13.462384 11.313733 
L 13.326399 12.006118 
L 13.190414 12.698503 
L 13.227545 13.823599 
L 13.264675 14.948696 
L 13.301806 16.073792 
L 13.338937 17.198888 
L 13.63566 18.188077 
L 13.932384 19.177265 
L 14.229108 20.166453 
L 14.525832 21.155641 
L 14.921249 22.194335 
L 15.316666 23.233029 
L 15.415681 24.419774 
L 15.514696 25.60652 
L 15.558417 26.253369 
L 15.602138 26.900217 
L 15.645859 27.547066 
L 15.68958 28.193914 
L 15.769467 29.376924 
L 15.849354 30.559933 
L 15.929242 31.742942 
L 16.009129 32.925951 
" clip-path="url(#pd394b67835)" style="fill: none; stroke: #000000; stroke-width: 0.4; stroke-linecap: square"/>
   </g>
   <g id="line2d_20">
    <path d="M 16.009129 32.925951 
L 16.503722 33.581206 
L 16.998315 34.236462 
L 17.492908 34.891717 
L 17.987501 35.546972 
L 18.240182 36.140579 
L 18.492864 36.734185 
L 18.745545 37.327791 
L 18.998226 37.921397 
L 19.030696 38.674731 
L 19.063165 39.428064 
L 19.213777 40.22997 
L 19.364389 41.031875 
L 19.515001 41.833781 
L 19.665614 42.635686 
L 19.864769 43.399762 
L 20.063924 44.163837 
L 20.26308 44.927913 
L 20.462235 45.691988 
L 20.682929 46.445321 
L 20.903623 47.198655 
L 21.124318 47.951988 
L 21.345012 48.705322 
L 21.517324 49.50209 
L 21.689636 50.298858 
L 21.538863 51.246013 
L 21.38809 52.193167 
L 20.957632 52.731196 
L 20.527173 53.269224 
L 20.182549 53.462579 
L 19.461154 54.044042 
L 18.739759 54.625505 
L 18.09391 55.51895 
L 17.448062 56.412395 
L 17.276072 57.402517 
L 17.104081 58.392639 
L 17.104081 59.059804 
L 17.104081 59.726969 
L 17.104081 60.394134 
L 17.104081 61.061299 
" clip-path="url(#pd394b67835)" style="fill: none; stroke: #4169e1; stroke-width: 0.4; stroke-linecap: square"/>
   </g>
   <g id="line2d_21">
    <path d="M 28.112756 31.359503 
L 27.505807 32.164678 
L 26.898857 32.969853 
L 26.156244 33.59405 
L 25.413631 34.218247 
L 24.671018 34.842444 
L 23.928405 35.466642 
L 22.916394 35.875768 
L 21.904383 36.284894 
L 21.022892 36.693085 
L 20.301175 37.027018 
L 19.579458 37.360951 
L 18.998226 37.921397 
" clip-path="url(#pd394b67835)" style="fill: none; stroke: #008000; stroke-width: 0.4; stroke-linecap: square"/>
   </g>
   <g id="line2d_22">
    <path d="M 17.987501 35.546972 
L 19.171181 35.894449 
L 20.354861 36.241926 
L 21.022892 36.693085 
L 21.797331 37.231581 
L 22.57177 37.770077 
L 23.249927 38.534386 
L 23.928084 39.298695 
L 24.60624 40.063004 
L 25.284397 40.827312 
L 25.664303 41.540247 
L 26.044209 42.253182 
L 26.424115 42.966116 
L 26.804021 43.679051 
L 27.183927 44.391986 
L 27.563833 45.10492 
L 27.943739 45.817855 
L 28.323645 46.53079 
" clip-path="url(#pd394b67835)" style="fill: none; stroke: #008000; stroke-width: 0.4; stroke-linecap: square"/>
   </g>
   <g id="line2d_23">
    <path d="M 16.009129 32.925951 
L 15.776701 33.712444 
L 15.544272 34.498937 
L 15.108992 35.489527 
L 14.673711 36.480116 
L 14.433568 37.290895 
L 14.193424 38.101674 
L 14.185869 39.182635 
L 14.178314 40.263597 
L 14.17076 41.344558 
L 14.163205 42.425519 
L 14.264551 43.179787 
L 14.365897 43.934054 
L 14.467242 44.688322 
L 14.568588 45.442589 
L 14.669934 46.196857 
L 14.77128 46.951124 
L 14.872625 47.705392 
L 14.973971 48.45966 
L 15.22167 49.360344 
L 15.469368 50.261028 
L 15.717066 51.161712 
L 15.964765 52.062396 
L 16.335589 53.149896 
L 16.706413 54.237396 
L 17.077238 55.324896 
L 17.448062 56.412395 
" clip-path="url(#pd394b67835)" style="fill: none; stroke: #4169e1; stroke-width: 0.4; stroke-linecap: square"/>
   </g>
   <g id="line2d_24">
    <path d="M 11.670469 3.980758 
L 10.860345 3.302618 
L 9.974675 3.287673 
L 9.089004 3.272727 
L 8.24818 3.42288 
L 7.407356 3.573033 
L 6.566531 3.723186 
L 5.725707 3.873339 
L 4.855146 4.353922 
L 3.984585 4.834505 
L 3.503976 5.509843 
L 3.023367 6.185181 
L 3.008258 7.40135 
L 2.993148 8.617519 
L 3.068213 9.338159 
L 3.143278 10.0588 
L 3.218343 10.779441 
L 3.293408 11.500082 
L 3.368473 12.220723 
L 3.443538 12.941363 
L 3.518603 13.662004 
L 3.593668 14.382645 
L 3.713901 15.538566 
L 3.834133 16.694487 
L 3.954366 17.850407 
L 4.074599 19.006328 
L 4.554886 19.486444 
L 4.794708 20.087056 
L 4.794708 20.732504 
L 4.794708 21.377951 
" clip-path="url(#pd394b67835)" style="fill: none; stroke: #000000; stroke-width: 0.4; stroke-linecap: square"/>
   </g>
   <g id="line2d_25">
    <path d="M 13.190414 12.698503 
L 12.850934 13.735796 
L 12.511454 14.773089 
L 12.091283 15.373234 
L 11.671112 15.973379 
L 10.755222 16.453962 
L 9.839333 16.934545 
L 9.208594 17.955491 
L 8.743416 18.781216 
L 8.278238 19.60694 
L 7.902752 20.132359 
L 7.527267 20.657777 
L 6.844127 20.837821 
L 6.160987 21.017864 
L 5.477848 21.197908 
L 4.794708 21.377951 
" clip-path="url(#pd394b67835)" style="fill: none; stroke: #008000; stroke-width: 0.4; stroke-linecap: square"/>
   </g>
   <g id="line2d_26">
    <path d="M 21.764862 19.106275 
L 21.507037 19.957219 
L 21.249212 20.808164 
L 20.738706 21.363473 
L 20.228199 21.918782 
L 19.627679 22.579175 
L 19.027159 23.239568 
L 18.471646 24.035402 
L 17.916133 24.831236 
L 17.540969 25.716741 
L 17.165805 26.602246 
L 16.427692 27.39808 
L 15.68958 28.193914 
" clip-path="url(#pd394b67835)" style="fill: none; stroke: #008000; stroke-width: 0.4; stroke-linecap: square"/>
   </g>
   <g id="line2d_27">
    <path d="M 4.794708 21.377951 
L 4.464551 22.428788 
L 4.134393 23.479625 
L 3.623887 24.050347 
L 3.113381 24.621068 
L 3.000864 25.281461 
L 2.888347 25.941854 
L 2.77583 26.602246 
L 2.663312 27.262639 
L 2.963572 28.133666 
L 3.263832 29.004694 
L 3.609099 29.687738 
L 3.954366 30.370782 
L 4.299633 31.053826 
L 4.6449 31.73687 
L 4.840036 32.622376 
L 5.035173 33.507881 
L 4.982612 34.138384 
L 4.93005 34.768886 
L 4.877489 35.399388 
L 4.824927 36.02989 
L 5.005115 36.885622 
L 5.185303 37.741354 
L 5.365491 38.597086 
L 5.54568 39.452817 
L 5.725868 40.308549 
L 5.906056 41.164281 
L 6.086244 42.020013 
L 6.266432 42.875744 
L 6.619254 43.682554 
L 6.972075 44.489363 
L 7.324897 45.296173 
L 7.677718 46.102982 
L 8.03054 46.909791 
L 8.383361 47.716601 
L 8.736183 48.52341 
L 9.089004 49.33022 
L 9.614459 50.253555 
L 10.139914 51.176891 
L 10.665369 52.100227 
L 11.190824 53.023562 
L 11.543485 54.111762 
L 11.896146 55.199963 
L 12.248807 56.288163 
L 12.601467 57.376363 
L 12.751597 58.472503 
L 12.901727 59.568643 
L 13.097186 60.61948 
L 13.292644 61.670317 
" clip-path="url(#pd394b67835)" style="fill: none; stroke: #4169e1; stroke-width: 0.4; stroke-linecap: square"/>
   </g>
   <g id="line2d_28">
    <path d="M 6.266432 42.875744 
L 6.303884 43.678817 
L 6.341336 44.481891 
L 6.378788 45.284964 
L 6.416241 46.088037 
L 6.183652 47.229012 
L 5.951063 48.369988 
L 5.718474 49.510964 
L 5.485885 50.651939 
L 5.320645 51.312332 
L 5.155406 51.972725 
L 4.990166 52.633118 
L 4.824927 53.29351 
L 4.577229 54.224319 
L 4.32953 55.155127 
L 4.081832 56.085935 
L 3.834133 57.016743 
L 3.804075 57.722205 
L 3.774017 58.427667 
L 3.743959 59.133129 
L 3.713901 59.838591 
L 3.713901 60.874483 
L 3.713901 61.910375 
L 3.803915 63.110665 
" clip-path="url(#pd394b67835)" style="fill: none; stroke: #4169e1; stroke-width: 0.4; stroke-linecap: square"/>
   </g>
  </g>
 </g>
 <defs>
  <clipPath id="pd394b67835">
   <rect x="0" y="0" width="58.592872" height="72"/>
  </clipPath>
 </defs>
</svg>
