<?xml version="1.0" encoding="utf-8" standalone="no"?>
<!DOCTYPE svg PUBLIC "-//W3C//DTD SVG 1.1//EN"
  "http://www.w3.org/Graphics/SVG/1.1/DTD/svg11.dtd">
<svg height="72pt" version="1.1" viewBox="0 0 91.223992 72" width="91.223992pt" xmlns="http://www.w3.org/2000/svg" xmlns:xlink="http://www.w3.org/1999/xlink">
 <metadata>
  <rdf:RDF xmlns:cc="http://creativecommons.org/ns#" xmlns:dc="http://purl.org/dc/elements/1.1/" xmlns:rdf="http://www.w3.org/1999/02/22-rdf-syntax-ns#">
   <cc:Work>
    <dc:type rdf:resource="http://purl.org/dc/dcmitype/StillImage"/>
    <dc:date>2022-04-19T00:46:28.150551</dc:date>
    <dc:format>image/svg+xml</dc:format>
    <dc:creator>
     <cc:Agent>
      <dc:title>Matplotlib v3.4.3, https://matplotlib.org/</dc:title>
     </cc:Agent>
    </dc:creator>
   </cc:Work>
  </rdf:RDF>
 </metadata>
 <defs>
  <style type="text/css">*{stroke-linecap:butt;stroke-linejoin:round;}</style>
 </defs>
 <g id="figure_1">
  <g id="patch_1">
   <path d="M 0 72 
L 91.223992 72 
L 91.223992 0 
L 0 0 
z
" style="fill:#ffffff;"/>
  </g>
  <g id="axes_1">
   <g id="line2d_1">
    <path clip-path="url(#p5a75ee9c51)" d="M 49.806444 68.727273 
L 49.039162 64.226886 
L 48.271881 59.726499 
L 47.504599 55.226112 
L 46.737317 50.725725 
L 46.050917 46.700188 
L 45.364516 42.674652 
L 44.678116 38.649115 
L 43.991716 34.623578 
L 43.305315 30.598041 
L 42.618915 26.572504 
L 41.932514 22.546967 
L 41.246114 18.52143 
L 40.836492 16.118461 
L 40.426871 13.715492 
" style="fill:none;stroke:#808080;stroke-linecap:square;stroke-width:0.422333;"/>
   </g>
   <g id="line2d_2">
    <path clip-path="url(#p5a75ee9c51)" d="M 58.815082 58.672676 
L 57.646144 55.236865 
L 56.477206 51.801055 
L 55.308267 48.365245 
L 54.139329 44.929435 
" style="fill:none;stroke:#808080;stroke-linecap:square;stroke-width:0.422333;"/>
   </g>
   <g id="line2d_3">
    <path clip-path="url(#p5a75ee9c51)" d="M 55.414465 60.090013 
L 54.672738 57.526269 
L 53.93101 54.962525 
L 53.189282 52.398781 
L 52.447554 49.835037 
L 51.705827 47.271293 
L 50.964099 44.70755 
L 50.222371 42.143806 
L 49.480643 39.580062 
L 48.738916 37.016318 
L 47.997188 34.452574 
L 47.25546 31.88883 
L 46.513732 29.325086 
L 45.772004 26.761342 
L 45.030277 24.197598 
L 44.288549 21.633855 
L 43.546821 19.070111 
" style="fill:none;stroke:#808080;stroke-linecap:square;stroke-width:0.422333;"/>
   </g>
   <g id="line2d_4">
    <path clip-path="url(#p5a75ee9c51)" d="M 85.631635 45.637579 
L 84.985154 42.538137 
L 84.338672 39.438695 
L 83.692191 36.339253 
L 83.04571 33.239812 
L 82.399228 30.14037 
L 81.752747 27.040928 
L 81.106266 23.941486 
L 80.459784 20.842045 
" style="fill:none;stroke:#808080;stroke-linecap:square;stroke-width:0.422333;"/>
   </g>
   <g id="line2d_5">
    <path clip-path="url(#p5a75ee9c51)" d="M 67.104607 55.946059 
L 66.723811 52.509986 
L 66.343015 49.073914 
L 65.962218 45.637841 
L 65.581422 42.201769 
" style="fill:none;stroke:#808080;stroke-linecap:square;stroke-width:0.422333;"/>
   </g>
   <g id="line2d_6">
    <path clip-path="url(#p5a75ee9c51)" d="M 41.827928 12.224718 
L 43.048448 12.224718 
L 43.943547 12.469159 
L 44.268969 13.445873 
L 43.699291 14.626113 
L 43.129614 15.806353 
L 42.658739 16.485122 
L 42.187864 17.163892 
L 41.716989 17.842661 
L 41.246114 18.52143 
L 40.478832 19.076405 
L 39.71155 19.63138 
L 38.653741 19.38694 
L 37.595931 19.142499 
L 36.65987 18.552641 
L 35.723809 17.962783 
L 34.787749 17.372925 
L 33.851688 16.783067 
L 33.058236 16.742152 
L 32.264784 16.701238 
L 31.471332 16.660323 
L 30.67788 16.619408 
L 30.055862 16.923647 
L 29.336559 17.274834 
L 28.617256 17.626021 
L 27.897953 17.977208 
L 27.17865 18.328395 
L 26.381026 18.956808 
L 25.583402 19.58522 
L 24.492595 20.444435 
L 23.80079 21.095665 
L 23.108985 21.746895 
L 22.41718 22.398126 
L 21.725375 23.049356 
L 21.175989 23.761434 
L 20.626603 24.473512 
L 20.077217 25.185591 
L 19.527831 25.897669 
L 18.754861 26.518213 
L 17.98189 27.138757 
L 17.208919 27.759301 
L 16.435948 28.379845 
L 16.110337 29.478517 
L 15.784726 30.57719 
L 15.459114 31.675862 
L 15.133503 32.774535 
L 15.214859 33.506939 
L 15.296214 34.239344 
L 15.377569 34.971749 
L 15.458925 35.704153 
L 15.54028 36.436558 
L 15.621636 37.168962 
L 15.702991 37.901367 
L 15.784346 38.633771 
L 16.076771 39.627796 
L 16.369195 40.62182 
L 16.661619 41.615845 
L 16.954043 42.609869 
L 17.183128 43.388303 
L 17.412212 44.166737 
L 18.190493 45.220036 
L 18.968774 46.273335 
L 19.574104 47.092159 
L 20.179433 47.910984 
L 20.769497 48.39921 
L 21.35956 48.887436 
L 21.949624 49.375662 
L 22.539687 49.863888 
L 23.129751 50.352114 
L 23.719814 50.84034 
L 24.309878 51.328566 
L 24.899941 51.816792 
L 25.79504 52.630633 
L 26.690139 53.444474 
L 27.585238 54.258315 
L 28.480336 55.072156 
L 29.212914 56.048608 
L 29.945492 57.02506 
L 30.678069 58.001512 
L 31.410647 58.977964 
L 32.102263 59.506974 
L 32.793878 60.035984 
L 33.485494 60.564994 
L 34.177109 61.094004 
L 34.979095 61.595213 
L 35.781081 62.096421 
L 36.583066 62.59763 
L 37.385052 63.098839 
L 38.385591 63.724104 
L 39.386129 64.349369 
L 40.362773 64.837595 
L 41.339416 65.325821 
L 42.31606 65.814047 
L 43.292704 66.302273 
L 44.269348 66.790499 
L 45.245992 67.278725 
L 46.222635 67.766951 
L 47.199279 68.255177 
" style="fill:none;stroke:#4169e1;stroke-linecap:square;stroke-width:0.422333;"/>
   </g>
   <g id="line2d_7">
    <path clip-path="url(#p5a75ee9c51)" d="M 81.868427 22.031727 
L 82.275394 22.642042 
L 82.68236 23.252357 
L 83.089327 23.862673 
L 83.496293 24.472988 
L 83.90326 25.327482 
L 84.310226 26.181976 
L 84.717193 27.036469 
L 85.124159 27.890963 
L 85.408998 28.948983 
L 85.693837 30.007003 
L 85.978675 31.065022 
L 86.263514 32.123042 
L 86.344869 33.099494 
L 86.426225 34.075946 
L 86.50758 35.052398 
L 86.588935 36.02885 
L 86.649999 37.066544 
L 86.711063 38.104237 
L 86.772127 39.14193 
L 86.833191 40.179624 
L 86.894255 41.217317 
L 86.955319 42.255011 
L 87.016383 43.292704 
L 87.077447 44.330397 
" style="fill:none;stroke:#4169e1;stroke-linecap:square;stroke-width:0.422333;"/>
   </g>
   <g id="line2d_8">
    <path clip-path="url(#p5a75ee9c51)" d="M 80.459784 20.842045 
L 80.12033 21.790433 
L 79.780875 22.738822 
L 79.44142 23.68721 
L 79.101965 24.635599 
L 78.817126 25.937797 
L 78.532288 27.239995 
L 78.247449 28.542194 
L 77.962611 29.844392 
L 77.921838 31.187243 
L 77.881066 32.530094 
L 77.840293 33.872945 
L 77.799521 35.215796 
L 78.043681 35.907548 
L 78.287842 36.5993 
L 78.532003 37.291052 
L 78.776164 37.982803 
L 79.020325 38.674555 
L 79.264486 39.366307 
L 79.508647 40.058059 
L 79.752808 40.749811 
L 80.566552 41.68561 
L 81.380295 42.62141 
L 82.194038 43.557209 
L 83.007782 44.493008 
" style="fill:none;stroke:#008000;stroke-linecap:square;stroke-width:0.422333;"/>
   </g>
   <g id="line2d_9">
    <path clip-path="url(#p5a75ee9c51)" d="M 78.613454 20.444435 
L 77.962231 21.258538 
L 77.311009 22.072642 
L 76.538038 22.560999 
L 75.765067 23.049356 
L 75.113845 23.578103 
L 74.462623 24.106851 
L 73.974111 25.246176 
L 73.282685 26.222891 
L 72.591259 27.199605 
L 72.021392 27.626852 
L 71.451526 28.054099 
L 70.881659 28.481346 
L 70.311792 28.908593 
L 69.783077 29.478255 
L 69.254361 30.047918 
L 68.92894 30.942802 
L 69.050689 31.756905 
L 69.172437 32.571009 
L 69.783077 33.547199 
L 70.393716 34.523388 
L 71.20727 35.174356 
L 72.020824 35.825324 
L 73.079012 36.273291 
L 74.137201 36.721258 
L 75.113845 37.29092 
L 76.090489 37.860583 
L 76.456683 38.552204 
L 76.822877 39.243825 
L 77.189071 39.935445 
L 77.555265 40.627066 
L 78.430072 41.522213 
L 79.304879 42.417359 
L 80.179687 43.312506 
L 81.054494 44.207652 
L 81.909389 44.85862 
L 82.764285 45.509588 
" style="fill:none;stroke:#008000;stroke-linecap:square;stroke-width:0.422333;"/>
   </g>
   <g id="line2d_10">
    <path clip-path="url(#p5a75ee9c51)" d="M 66.242885 42.580495 
L 66.771979 43.71982 
L 67.301074 44.859145 
L 67.565621 45.835597 
L 67.830168 46.812049 
L 68.094715 47.788501 
L 68.359263 48.764953 
L 68.359263 49.599252 
L 68.359263 50.43355 
L 68.359263 51.267849 
L 68.359263 52.102148 
L 68.31849 52.976837 
L 68.277718 53.851526 
L 68.236945 54.726215 
L 68.196173 55.600904 
" style="fill:none;stroke:#008000;stroke-linecap:square;stroke-width:0.422333;"/>
   </g>
   <g id="line2d_11">
    <path clip-path="url(#p5a75ee9c51)" d="M 55.093595 44.614704 
L 56.110822 45.469198 
L 57.128049 46.323692 
L 57.494243 46.934007 
L 57.860437 47.544322 
L 58.226631 48.154638 
L 58.592825 48.764953 
L 59.080957 49.863888 
L 59.569089 50.962822 
L 59.772762 52.142538 
L 59.976435 53.322254 
L 60.05779 54.400469 
L 60.139146 55.478684 
L 60.220501 56.556899 
L 60.301857 57.635113 
" style="fill:none;stroke:#4169e1;stroke-linecap:square;stroke-width:0.422333;"/>
   </g>
   <g id="line2d_12">
    <path clip-path="url(#p5a75ee9c51)" d="M 44.268969 13.445873 
L 45.123484 13.161042 
L 45.978 12.87621 
L 46.466512 12.143937 
L 46.873478 11.533359 
L 47.280445 10.922782 
L 47.768577 9.905677 
L 48.256709 8.888572 
L 48.826387 7.911858 
L 49.396064 6.935144 
L 50.209997 6.812923 
L 51.02393 6.690703 
L 51.837863 6.324566 
L 52.651796 5.958429 
L 53.221473 4.941325 
L 53.791151 3.92422 
L 54.930505 3.598474 
L 56.06986 3.272727 
L 56.842831 3.557559 
L 57.615802 3.84239 
L 58.389152 4.696884 
L 59.162502 5.551378 
L 59.630532 6.18215 
L 60.098563 6.812923 
L 60.566593 7.443696 
L 61.034624 8.074469 
L 61.767012 9.213794 
L 62.4994 10.353119 
L 63.435082 11.045002 
L 64.370763 11.736885 
L 65.347407 12.103022 
L 66.324051 12.469159 
L 67.056439 12.998431 
L 67.788827 13.527703 
L 68.236756 14.503893 
L 68.684684 15.480082 
L 68.806622 16.314381 
L 68.928561 17.14868 
L 69.050499 17.982978 
L 69.172437 18.817277 
L 69.131854 19.915687 
L 69.091271 21.014097 
L 68.684305 21.909506 
L 68.277338 22.804915 
L 68.134919 23.964698 
L 67.9925 25.12448 
L 67.85008 26.284263 
L 67.707661 27.444046 
L 67.727953 28.196777 
L 67.748244 28.949508 
L 67.768535 29.702239 
L 67.788827 30.454969 
" style="fill:none;stroke:#4169e1;stroke-linecap:square;stroke-width:0.422333;"/>
   </g>
   <g id="line2d_13">
    <path clip-path="url(#p5a75ee9c51)" d="M 69.254361 30.047918 
L 68.521594 30.251444 
L 67.788827 30.454969 
L 67.341277 31.024632 
L 66.893728 31.594295 
L 66.608889 32.530094 
L 66.324051 33.465893 
L 65.876501 34.462803 
L 65.428952 35.459712 
L 64.981403 36.456622 
L 64.533853 37.453531 
L 64.228723 38.22672 
L 63.923593 38.999908 
L 63.618463 39.773097 
L 63.313333 40.546285 
L 63.10985 41.807568 
L 62.906366 43.068852 
L 62.702883 44.330135 
L 62.4994 45.591418 
L 62.519691 46.588328 
L 62.539983 47.585237 
L 62.560274 48.582147 
L 62.580566 49.579056 
L 62.499021 50.921907 
L 62.417476 52.264758 
L 62.499021 53.119252 
L 62.580566 53.973746 
L 62.662111 54.82824 
L 62.743656 55.682734 
" style="fill:none;stroke:#008000;stroke-linecap:square;stroke-width:0.422333;"/>
   </g>
   <g id="line2d_14">
    <path clip-path="url(#p5a75ee9c51)" d="M 43.129614 15.806353 
L 44.431679 15.928049 
L 45.733745 16.049745 
L 46.495716 16.346116 
L 47.257688 16.642488 
L 47.960872 16.915779 
L 48.664055 17.18907 
L 49.416735 17.351943 
L 50.169414 17.514816 
L 50.922094 17.67769 
L 51.674773 17.840563 
L 52.732772 17.982978 
L 53.790771 18.125394 
L 54.848771 18.26781 
L 55.90677 18.410225 
L 57.127669 18.857667 
L 58.348569 19.30511 
L 59.203085 19.752814 
L 60.057601 20.200518 
L 60.912117 20.648223 
L 61.766633 21.095927 
L 62.173599 22.113032 
L 62.580566 23.130137 
L 63.150243 24.350767 
L 63.71992 25.571398 
L 64.49327 26.507722 
L 65.266621 27.444046 
L 65.897172 28.196777 
L 66.527724 28.949508 
L 67.158275 29.702239 
L 67.788827 30.454969 
" style="fill:none;stroke:#000000;stroke-linecap:square;stroke-width:0.422333;"/>
   </g>
   <g id="line2d_15">
    <path clip-path="url(#p5a75ee9c51)" d="M 46.466512 12.143937 
L 46.669806 13.405482 
L 46.873099 14.667028 
L 47.065394 15.654758 
L 47.257688 16.642488 
" style="fill:none;stroke:#008000;stroke-linecap:square;stroke-width:0.422333;"/>
   </g>
   <g id="line2d_16">
    <path clip-path="url(#p5a75ee9c51)" d="M 47.257688 16.642488 
L 47.309649 17.485442 
L 47.361611 18.328395 
L 47.605866 19.508635 
L 47.850122 20.688876 
L 48.012454 21.910031 
L 47.80916 22.764525 
L 47.605866 23.619018 
L 47.402573 24.392207 
L 47.199279 25.165395 
L 47.280445 26.222891 
L 47.361611 27.280386 
L 47.80916 27.850048 
L 48.256709 28.419711 
L 48.745221 29.111594 
L 49.233733 29.803477 
L 49.396443 30.861497 
L 49.559154 31.919516 
L 49.559154 33.221452 
L 49.559154 34.523388 
L 49.742156 35.317034 
L 49.925158 36.11068 
L 50.108161 36.904326 
L 50.291163 37.697972 
L 50.616774 38.898145 
L 50.942385 40.098318 
L 51.267996 41.298491 
L 51.593607 42.498665 
L 52.081929 43.780405 
L 52.570251 45.062146 
L 53.058573 46.343887 
L 53.546895 47.625628 
L 53.791151 48.887173 
L 54.035407 50.148719 
L 54.401411 51.410265 
L 54.767415 52.67181 
L 54.930316 53.363431 
L 55.093216 54.055052 
L 55.256116 54.746672 
L 55.419017 55.438293 
L 55.785211 56.33344 
L 56.151405 57.228586 
L 56.517599 58.123733 
L 56.883793 59.018879 
" style="fill:none;stroke:#000000;stroke-linecap:square;stroke-width:0.422333;"/>
   </g>
   <g id="line2d_17">
    <path clip-path="url(#p5a75ee9c51)" d="M 39.71155 19.63138 
L 39.85397 20.424764 
L 39.996389 21.218148 
L 40.138808 22.011531 
L 40.281228 22.804915 
L 40.199872 24.025546 
L 40.118517 25.246176 
L 40.037162 26.466807 
L 39.955806 27.687437 
L 39.508257 28.84722 
L 39.060707 30.007003 
L 38.613158 31.166785 
L 38.165609 32.326568 
L 37.771727 33.476122 
L 37.377846 34.625676 
L 36.983964 35.77523 
L 36.590083 36.924784 
L 36.36024 37.596209 
L 36.130397 38.267635 
L 36.079573 39.284871 
L 36.02875 40.302107 
L 35.977927 41.319342 
L 35.927103 42.336578 
L 35.87628 43.353814 
L 35.825456 44.37105 
L 35.774633 45.388286 
L 35.723809 46.405522 
L 35.947584 47.178448 
L 36.171359 47.951374 
L 36.395134 48.7243 
L 36.618908 49.497226 
L 37.087508 50.066364 
L 37.556107 50.635502 
L 38.024706 51.204641 
L 38.493306 51.773779 
L 38.897617 52.264758 
L 39.406231 52.935922 
L 39.914844 53.607085 
L 40.423457 54.278248 
L 40.932071 54.949411 
L 41.609463 55.649163 
L 42.532249 56.601748 
L 43.455036 57.554333 
L 43.943357 58.225496 
L 44.431679 58.896659 
L 44.920001 59.567822 
L 45.408323 60.238986 
" style="fill:none;stroke:#000000;stroke-linecap:square;stroke-width:0.422333;"/>
   </g>
   <g id="line2d_18">
    <path clip-path="url(#p5a75ee9c51)" d="M 28.480336 55.072156 
L 29.436689 55.367216 
L 30.393041 55.662276 
L 31.349393 55.957337 
L 32.305746 56.252397 
L 33.041927 56.487133 
L 33.778107 56.72187 
L 34.514288 56.956607 
L 35.250469 57.191343 
L 36.130397 57.472503 
L 36.964621 57.716681 
L 37.798846 57.96086 
L 38.63307 58.205038 
L 39.467295 58.449217 
L 40.209923 58.672938 
L 40.952552 58.896659 
L 41.69518 59.12038 
L 42.437809 59.344101 
L 43.180437 59.567822 
L 43.923066 59.791543 
L 44.665695 60.015264 
L 45.408323 60.238986 
L 46.507095 60.462969 
L 47.605866 60.686952 
L 48.704638 60.910936 
L 49.80341 61.134919 
L 50.759573 61.195767 
L 51.715735 61.256615 
L 52.671898 61.317463 
L 53.628061 61.378311 
" style="fill:none;stroke:#4169e1;stroke-linecap:square;stroke-width:0.422333;"/>
   </g>
   <g id="line2d_19">
    <path clip-path="url(#p5a75ee9c51)" d="M 41.246114 18.52143 
L 41.862442 19.767764 
L 42.478771 21.014097 
L 42.76361 22.153422 
L 43.048448 23.292748 
L 42.865256 24.472988 
L 42.682065 25.653228 
L 42.498873 26.833468 
L 42.315681 28.013708 
L 42.193743 28.725786 
L 42.071805 29.437865 
L 41.949866 30.149943 
L 41.827928 30.862021 
L 41.909283 31.838473 
L 41.990639 32.814925 
L 42.071994 33.791377 
L 42.15335 34.767829 
L 42.478771 35.500365 
L 42.804193 36.232901 
L 43.129614 36.965436 
L 43.455036 37.697972 
L 44.126549 38.653967 
L 44.798063 39.609961 
L 45.469577 40.565956 
L 46.14109 41.52195 
L 46.670185 42.661275 
L 47.199279 43.800601 
L 47.260154 44.634899 
L 47.321028 45.469198 
L 47.381902 46.303497 
L 47.442776 47.137795 
L 47.266412 48.034778 
L 47.090047 48.93176 
L 46.913682 49.828743 
L 46.737317 50.725725 
L 45.950692 51.657853 
L 45.164067 52.58998 
L 44.275416 53.354776 
L 43.386765 54.119571 
L 42.498114 54.884367 
L 41.609463 55.649163 
" style="fill:none;stroke:#000000;stroke-linecap:square;stroke-width:0.422333;"/>
   </g>
   <g id="line2d_20">
    <path clip-path="url(#p5a75ee9c51)" d="M 38.493306 51.773779 
L 39.245416 51.937176 
L 39.997527 52.100574 
L 40.749637 52.263972 
L 41.501748 52.427369 
L 42.397036 52.712201 
L 43.292325 52.997032 
L 44.187613 53.281863 
L 45.082902 53.566694 
L 45.794998 53.749763 
L 46.507095 53.932831 
L 47.219191 54.1159 
L 47.931288 54.298968 
L 48.745221 54.990851 
L 49.559154 55.682734 
L 50.535798 56.699839 
L 51.512442 57.716943 
L 51.959991 58.367911 
L 52.40754 59.018879 
L 53.180511 59.628932 
L 53.953482 60.238986 
" style="fill:none;stroke:#008000;stroke-linecap:square;stroke-width:0.422333;"/>
   </g>
   <g id="line2d_21">
    <path clip-path="url(#p5a75ee9c51)" d="M 36.590083 36.924784 
L 35.668435 37.514379 
L 34.746786 38.103975 
L 34.116045 38.653442 
L 33.485304 39.20291 
L 32.854563 39.752377 
L 32.223822 40.301844 
L 31.471142 40.851049 
L 30.718463 41.400254 
L 29.965783 41.949459 
L 29.213104 42.498665 
L 28.968848 43.475379 
L 28.724592 44.452093 
L 28.867011 45.28613 
L 29.009431 46.120166 
L 29.15185 46.954202 
L 29.294269 47.788239 
L 29.863947 48.805868 
L 30.433624 49.823497 
L 30.921946 50.372702 
L 31.410268 50.921907 
L 31.89859 51.471113 
L 32.386912 52.020318 
L 33.078717 52.58998 
L 33.770522 53.159643 
L 34.258654 53.891916 
L 34.746786 54.62419 
L 34.998628 55.907766 
L 35.250469 57.191343 
" style="fill:none;stroke:#4169e1;stroke-linecap:square;stroke-width:0.422333;"/>
   </g>
   <g id="line2d_22">
    <path clip-path="url(#p5a75ee9c51)" d="M 40.525483 10.760171 
L 39.467295 10.922782 
L 38.409106 11.085393 
L 37.737782 11.370224 
L 37.066458 11.655055 
L 36.395134 11.939886 
L 35.723809 12.224718 
L 34.747166 12.835295 
L 33.770522 13.445873 
L 32.997172 14.05645 
L 32.223822 14.667028 
L 31.450851 15.643218 
L 30.67788 16.619408 
" style="fill:none;stroke:#4169e1;stroke-linecap:square;stroke-width:0.422333;"/>
   </g>
   <g id="line2d_23">
    <path clip-path="url(#p5a75ee9c51)" d="M 30.67788 16.619408 
L 30.555752 17.392596 
L 30.433624 18.165784 
L 30.494688 18.89832 
L 30.555752 19.630856 
L 30.616816 20.363392 
L 30.67788 21.095927 
L 30.657588 21.828463 
L 30.637297 22.560999 
L 30.617005 23.293534 
L 30.596714 24.02607 
L 30.271103 25.002522 
L 29.945492 25.978974 
L 29.619881 26.955426 
L 29.294269 27.931878 
L 29.111078 28.745719 
L 28.927886 29.559561 
L 28.744694 30.373402 
L 28.561502 31.187243 
L 28.480336 32.530094 
L 28.399171 33.872945 
L 28.215979 34.768092 
L 28.032787 35.663238 
L 27.849595 36.558385 
L 27.666403 37.453531 
L 27.666403 38.511551 
L 27.666403 39.569571 
L 27.870076 40.424065 
L 28.073749 41.278559 
L 28.643426 41.888612 
L 29.213104 42.498665 
" style="fill:none;stroke:#4169e1;stroke-linecap:square;stroke-width:0.422333;"/>
   </g>
   <g id="line2d_24">
    <path clip-path="url(#p5a75ee9c51)" d="M 25.583402 19.58522 
L 25.860086 20.308838 
L 26.136771 21.032457 
L 26.413455 21.756075 
L 26.690139 22.479693 
L 26.730722 23.781629 
L 26.771305 25.083565 
L 26.791596 25.917602 
L 26.811887 26.751638 
L 26.832179 27.585675 
L 26.85247 28.419711 
L 26.842325 29.213226 
L 26.832179 30.00674 
L 26.822033 30.800255 
L 26.811887 31.59377 
L 26.801742 32.387285 
L 26.791596 33.1808 
L 26.78145 33.974314 
L 26.771305 34.767829 
L 26.751013 35.58167 
L 26.730722 36.395512 
L 26.71043 37.209353 
L 26.690139 38.023194 
L 26.283172 39.284739 
L 25.876206 40.546285 
L 25.082754 40.993727 
L 24.289302 41.441169 
L 23.49585 41.888612 
L 22.702398 42.336054 
L 21.990301 42.458274 
L 21.278205 42.580495 
L 20.566108 42.702715 
L 19.854012 42.824935 
L 19.129019 42.771169 
L 18.404027 42.717402 
L 17.679035 42.663636 
L 16.954043 42.609869 
" style="fill:none;stroke:#4169e1;stroke-linecap:square;stroke-width:0.422333;"/>
   </g>
   <g id="line2d_25">
    <path clip-path="url(#p5a75ee9c51)" d="M 18.968774 46.273335 
L 19.736814 46.135902 
L 20.504855 45.99847 
L 21.35937 45.87625 
L 22.213886 45.754029 
L 22.946274 45.815139 
L 23.678662 45.87625 
L 24.41105 45.93736 
L 25.143438 45.99847 
L 26.181146 46.445912 
L 27.218854 46.893354 
L 28.256562 47.340797 
L 29.294269 47.788239 
" style="fill:none;stroke:#4169e1;stroke-linecap:square;stroke-width:0.422333;"/>
   </g>
   <g id="line2d_26">
    <path clip-path="url(#p5a75ee9c51)" d="M 30.055862 16.923647 
L 29.010948 16.583213 
L 27.966034 16.24278 
L 26.92112 15.902346 
L 25.876206 15.561912 
L 24.818017 15.602303 
L 23.759828 15.642693 
L 22.742602 16.415882 
L 21.725375 17.18907 
L 21.054051 17.697885 
L 20.382727 18.206699 
L 19.711403 18.715514 
L 19.040079 19.224329 
L 18.389046 19.570008 
L 17.738013 19.915687 
L 17.086981 20.261366 
L 16.435948 20.607046 
L 15.825498 21.075208 
L 15.215048 21.543369 
L 14.604599 22.011531 
L 13.994149 22.479693 
L 13.444763 23.018801 
L 12.895377 23.557908 
L 12.345991 24.097016 
L 11.796605 24.636123 
L 11.24722 25.175231 
L 10.697834 25.714338 
L 10.148448 26.253446 
L 9.599062 26.792553 
L 8.459708 27.443521 
L 7.320353 28.094489 
L 6.587965 28.705067 
L 5.855577 29.315644 
L 5.570738 29.98707 
L 5.2859 30.658495 
L 5.001061 31.329921 
L 4.716222 32.001346 
L 4.614576 32.85584 
L 4.512929 33.710334 
L 4.411282 34.564828 
L 4.309635 35.419322 
L 4.22809 36.639952 
L 4.146545 37.860583 
L 4.268673 38.796382 
L 4.390801 39.732182 
L 4.512929 40.667981 
L 4.635057 41.60378 
L 5.245317 42.010832 
L 5.855577 42.417884 
L 6.811929 42.600952 
L 7.768282 42.78402 
L 8.724634 42.967089 
L 9.680986 43.150157 
L 10.616668 44.004651 
L 11.55235 44.859145 
L 12.264446 45.428807 
L 12.976543 45.99847 
L 13.688639 46.568133 
L 14.400736 47.137795 
L 15.092541 48.094052 
L 15.784346 49.050309 
L 16.476151 50.006566 
L 17.167957 50.962822 
L 17.473087 51.654443 
L 17.778217 52.346064 
L 18.083347 53.037685 
L 18.388477 53.729305 
L 18.388477 54.461579 
L 18.388477 55.193852 
L 18.388477 55.926126 
L 18.388477 56.658399 
L 18.571669 57.350282 
L 18.754861 58.042165 
L 18.938052 58.734048 
L 19.121244 59.425931 
L 20.057116 60.056442 
L 20.992987 60.686952 
L 21.928858 61.317463 
L 22.864729 61.947973 
L 23.80079 62.334567 
L 24.736851 62.721162 
L 25.672912 63.107756 
L 26.608973 63.49435 
L 27.748328 63.55546 
L 28.887682 63.616571 
L 30.027037 63.677681 
L 31.166391 63.738791 
L 32.000616 63.718334 
L 32.83484 63.697876 
L 33.669065 63.677419 
L 34.503289 63.656961 
L 35.22373 63.51743 
L 35.944171 63.3779 
L 36.664611 63.238369 
L 37.385052 63.098839 
" style="fill:none;stroke:#008000;stroke-linecap:square;stroke-width:0.422333;"/>
   </g>
  </g>
 </g>
 <defs>
  <clipPath id="p5a75ee9c51">
   <rect height="72" width="91.223992" x="0" y="0"/>
  </clipPath>
 </defs>
</svg>
