<?xml version="1.0" encoding="utf-8" standalone="no"?>
<!DOCTYPE svg PUBLIC "-//W3C//DTD SVG 1.1//EN"
  "http://www.w3.org/Graphics/SVG/1.1/DTD/svg11.dtd">
<svg height="72pt" version="1.1" viewBox="0 0 69.164454 72" width="69.164454pt" xmlns="http://www.w3.org/2000/svg" xmlns:xlink="http://www.w3.org/1999/xlink">
 <metadata>
  <rdf:RDF xmlns:cc="http://creativecommons.org/ns#" xmlns:dc="http://purl.org/dc/elements/1.1/" xmlns:rdf="http://www.w3.org/1999/02/22-rdf-syntax-ns#">
   <cc:Work>
    <dc:type rdf:resource="http://purl.org/dc/dcmitype/StillImage"/>
    <dc:date>2022-04-19T00:46:31.409317</dc:date>
    <dc:format>image/svg+xml</dc:format>
    <dc:creator>
     <cc:Agent>
      <dc:title>Matplotlib v3.4.3, https://matplotlib.org/</dc:title>
     </cc:Agent>
    </dc:creator>
   </cc:Work>
  </rdf:RDF>
 </metadata>
 <defs>
  <style type="text/css">*{stroke-linecap:butt;stroke-linejoin:round;}</style>
 </defs>
 <g id="figure_1">
  <g id="patch_1">
   <path d="M 0 72 
L 69.164454 72 
L 69.164454 0 
L 0 0 
z
" style="fill:#ffffff;"/>
  </g>
  <g id="axes_1">
   <g id="line2d_1">
    <path clip-path="url(#pdc5df99284)" d="M 39.275799 65.100804 
L 38.116367 63.688439 
L 37.006439 62.336424 
L 35.896512 60.984409 
L 35.297628 60.254861 
L 34.698744 59.525314 
L 34.09986 58.795766 
L 33.500976 58.066219 
L 32.808366 57.222467 
L 32.115755 56.378715 
L 31.423145 55.534963 
L 30.730534 54.69121 
L 30.01302 53.817283 
L 29.295507 52.943356 
L 28.577993 52.069428 
L 27.860479 51.195501 
L 27.248012 50.449294 
L 26.635544 49.703088 
" style="fill:none;stroke:#808080;stroke-linecap:square;stroke-width:0.4;"/>
   </g>
   <g id="line2d_2">
    <path clip-path="url(#pdc5df99284)" d="M 45.548082 61.721186 
L 45.874389 60.156268 
L 46.111498 58.976713 
L 46.348606 57.797157 
L 46.67763 56.335128 
L 47.006654 54.8731 
L 47.283004 53.41149 
L 47.559354 51.94988 
L 47.838119 50.737845 
L 48.116883 49.525809 
L 48.395648 48.313773 
L 48.674413 47.101737 
L 48.926313 45.878385 
L 49.178212 44.655034 
L 49.419094 43.584444 
L 49.659976 42.513854 
L 49.900857 41.443265 
L 50.141739 40.372675 
L 50.4442 38.990904 
L 50.74666 37.609133 
L 50.904229 36.526389 
L 51.061799 35.443645 
L 51.321999 34.316058 
L 51.5822 33.188471 
L 51.97733 31.720156 
L 52.372461 30.25184 
L 52.655301 29.002086 
L 52.938141 27.752331 
L 53.257505 26.009296 
L 53.499066 24.929381 
L 53.740627 23.849466 
L 53.982188 22.769552 
L 54.223749 21.689637 
L 54.461612 20.689666 
L 54.699475 19.689694 
" style="fill:none;stroke:#808080;stroke-linecap:square;stroke-width:0.4;"/>
   </g>
   <g id="line2d_3">
    <path clip-path="url(#pdc5df99284)" d="M 4.210903 10.240257 
L 5.980086 10.413764 
L 6.981043 10.512043 
L 7.982 10.610322 
L 8.994956 10.709648 
L 10.007912 10.808975 
L 11.020868 10.908302 
L 12.033824 11.007628 
L 13.077117 11.109993 
L 14.120409 11.212358 
L 15.163702 11.314723 
L 16.206995 11.417088 
L 17.980253 11.591015 
L 19.753511 11.764941 
L 21.602987 11.946411 
L 23.452464 12.127881 
L 24.771126 12.257173 
L 26.089787 12.386466 
L 27.145456 12.490088 
L 28.201125 12.59371 
L 29.256794 12.697333 
L 30.312462 12.800955 
L 32.170995 12.983263 
L 34.003719 13.163057 
L 35.836442 13.342851 
L 37.704634 13.525997 
L 38.810788 13.634544 
L 39.916943 13.743091 
L 41.023097 13.851638 
L 42.129251 13.960184 
L 43.078667 14.053224 
L 44.028082 14.146265 
L 44.977497 14.239305 
L 45.926912 14.332345 
L 46.877082 14.425594 
L 47.827252 14.518844 
L 48.777422 14.612094 
L 49.727591 14.705343 
L 51.371806 14.866697 
" style="fill:none;stroke:#808080;stroke-linecap:square;stroke-width:0.4;"/>
   </g>
   <g id="line2d_4">
    <path clip-path="url(#pdc5df99284)" d="M 41.736234 67.397889 
L 40.134582 67.832076 
" style="fill:none;stroke:#808080;stroke-linecap:square;stroke-width:0.4;"/>
   </g>
   <g id="line2d_5">
    <path clip-path="url(#pdc5df99284)" d="M 58.393901 34.457923 
L 58.4262 34.911389 
L 58.458498 35.364855 
L 58.367413 35.653457 
L 58.276328 35.942059 
L 58.185242 36.230662 
L 58.094157 36.519264 
L 58.003072 36.807867 
L 57.911986 37.096469 
L 57.820901 37.385072 
L 57.729816 37.673674 
L 57.723741 37.967934 
L 57.717666 38.262194 
L 57.711591 38.556455 
L 57.705516 38.850715 
L 57.699442 39.144975 
L 57.693367 39.439236 
L 57.687292 39.733496 
L 57.681217 40.027756 
L 57.54157 40.505372 
L 57.401924 40.982989 
L 57.262277 41.460605 
L 57.122631 41.938221 
L 56.982984 42.415838 
L 56.843338 42.893454 
L 56.703691 43.37107 
L 56.564045 43.848686 
L 56.341425 44.334423 
L 56.118806 44.820159 
L 55.896187 45.305896 
L 55.673567 45.791632 
L 55.566257 46.144933 
L 55.458947 46.498234 
L 55.351637 46.851535 
L 55.244327 47.204835 
L 55.137017 47.558136 
L 55.029707 47.911437 
L 54.922397 48.264738 
L 54.815086 48.618039 
L 54.709852 48.966154 
L 54.604617 49.314268 
L 54.499382 49.662383 
L 54.394147 50.010497 
L 54.288912 50.358612 
L 54.183677 50.706726 
L 54.078443 51.054841 
L 53.973208 51.402955 
L 53.973208 51.74295 
L 53.973208 52.082944 
L 53.973208 52.422939 
L 53.973208 52.762933 
L 53.973208 53.102928 
L 53.973208 53.442922 
L 53.973208 53.782917 
L 53.973208 54.122911 
L 53.967133 54.513879 
L 53.961058 54.904846 
L 53.954983 55.295814 
L 53.948908 55.686781 
L 53.942833 56.077749 
L 53.936759 56.468716 
L 53.930684 56.859684 
L 53.924609 57.250651 
L 53.801149 57.543654 
L 53.67769 57.836657 
L 53.55423 58.12966 
L 53.430771 58.422663 
L 53.307312 58.715666 
L 53.183852 59.008669 
L 53.060393 59.301672 
L 52.936933 59.594675 
L 52.609041 59.955729 
L 52.281149 60.316783 
L 51.953257 60.677838 
L 51.625365 61.038892 
L 51.238611 61.30502 
L 50.851857 61.571148 
L 50.465103 61.837276 
L 50.078349 62.103405 
L 49.712121 62.460582 
L 49.345894 62.81776 
L 48.979666 63.174937 
L 48.613438 63.532115 
L 48.333202 63.604514 
L 48.052965 63.676914 
L 47.772729 63.749313 
L 47.492493 63.821713 
L 47.212256 63.894112 
L 46.93202 63.966512 
L 46.651784 64.038911 
L 46.371547 64.111311 
" style="fill:none;stroke:#000000;stroke-linecap:square;stroke-width:0.4;"/>
   </g>
   <g id="line2d_6">
    <path clip-path="url(#pdc5df99284)" d="M 53.519819 44.424948 
L 53.378135 44.813506 
L 53.236451 45.202064 
L 53.094767 45.590621 
L 52.953083 45.979179 
L 52.811399 46.367737 
L 52.669714 46.756294 
L 52.52803 47.144852 
L 52.386346 47.53341 
L 52.192026 47.879062 
L 51.997706 48.224714 
L 51.803385 48.570367 
L 51.609065 48.916019 
L 51.342884 49.078944 
L 51.076703 49.241869 
L 50.810522 49.404794 
L 50.544341 49.567719 
L 50.278159 49.730644 
L 50.011978 49.893569 
L 49.745797 50.056493 
L 49.479616 50.219418 
L 49.213435 50.382343 
L 48.947254 50.545268 
L 48.681073 50.708193 
L 48.414892 50.871118 
L 48.14871 51.034043 
L 47.882529 51.196968 
L 47.616348 51.359893 
L 47.350167 51.522818 
" style="fill:none;stroke:#4169e1;stroke-dasharray:1.48,0.64;stroke-dashoffset:0;stroke-width:0.4;"/>
   </g>
   <g id="line2d_7">
    <path clip-path="url(#pdc5df99284)" d="M 25.81389 50.90758 
L 25.729068 51.321231 
L 25.644247 51.734882 
L 25.558972 52.151677 
L 25.473697 52.568471 
L 25.429174 53.01125 
L 25.38465 53.454029 
L 25.340126 53.896807 
L 25.295602 54.339586 
L 25.287527 54.719657 
L 25.279453 55.099728 
L 25.271378 55.479799 
L 25.263303 55.859869 
L 25.255229 56.23994 
L 25.247154 56.620011 
L 25.239079 57.000082 
L 25.231005 57.380153 
L 25.293753 57.709618 
L 25.356502 58.039082 
L 25.41925 58.368547 
L 25.481999 58.698011 
L 25.544747 59.027476 
L 25.607495 59.356941 
L 25.670244 59.686405 
L 25.732992 60.01587 
L 25.870601 60.274873 
L 26.00821 60.533877 
L 26.145819 60.79288 
L 26.283428 61.051884 
L 26.421037 61.310887 
L 26.558646 61.569891 
L 26.696255 61.828894 
L 26.833864 62.087898 
L 27.208318 62.106496 
L 27.582771 62.125093 
L 27.957224 62.143691 
L 28.331678 62.162288 
L 28.706131 62.180886 
L 29.080585 62.199483 
L 29.455038 62.218081 
L 29.829491 62.236678 
L 30.185758 62.171927 
L 30.542024 62.107177 
L 30.898291 62.042426 
L 31.254558 61.977675 
L 31.720096 61.956615 
L 32.185635 61.935555 
L 32.651174 61.914496 
L 33.116712 61.893436 
L 33.557951 61.979246 
L 33.999191 62.065057 
L 34.44043 62.150868 
L 34.881669 62.236678 
L 35.160358 62.431769 
L 35.439048 62.62686 
L 35.717737 62.821951 
L 35.996426 63.017042 
L 36.410725 63.306849 
L 36.825023 63.596656 
L 37.241963 63.915591 
L 37.658903 64.234526 
L 38.075843 64.553461 
L 38.492782 64.872395 
" style="fill:none;stroke:#008000;stroke-linecap:square;stroke-width:0.4;"/>
   </g>
   <g id="line2d_8">
    <path clip-path="url(#pdc5df99284)" d="M 56.564045 43.848686 
L 56.183554 43.913437 
L 55.803064 43.978188 
L 55.511621 43.937745 
L 55.220178 43.897302 
L 54.793202 43.685447 
L 54.366225 43.473592 
L 54.154624 43.711431 
L 53.943022 43.94927 
L 53.73142 44.187109 
L 53.519819 44.424948 
L 53.187852 44.782755 
L 52.855885 45.140561 
L 52.523918 45.498367 
L 52.191951 45.856173 
L 51.673813 45.961577 
L 51.155676 46.06698 
" style="fill:none;stroke:#4169e1;stroke-linecap:square;stroke-width:0.4;"/>
   </g>
   <g id="line2d_9">
    <path clip-path="url(#pdc5df99284)" d="M 59.948464 50.519075 
L 59.865453 50.969554 
L 59.782442 51.420034 
L 59.699432 51.870513 
L 59.616421 52.320993 
L 59.53341 52.771473 
L 59.4504 53.221952 
L 59.367389 53.672432 
L 59.284379 54.122911 
L 59.114358 54.519537 
L 58.944337 54.916162 
L 58.774316 55.312787 
L 58.604295 55.709413 
L 58.434274 56.106038 
L 58.264253 56.502663 
L 58.094233 56.899289 
L 57.924212 57.295914 
L 57.798715 57.579173 
L 57.673218 57.862432 
L 57.547721 58.145691 
L 57.422224 58.42895 
L 57.296727 58.712208 
L 57.17123 58.995467 
L 57.045733 59.278726 
L 56.920236 59.561985 
L 56.810926 59.869604 
L 56.701616 60.177223 
L 56.592306 60.484842 
L 56.482996 60.792461 
L 56.373686 61.10008 
L 56.264376 61.407699 
L 56.155067 61.715318 
L 56.045757 62.022938 
" style="fill:none;stroke:#ff0000;stroke-dasharray:1.48,0.64;stroke-dashoffset:0;stroke-width:0.4;"/>
   </g>
   <g id="line2d_10">
    <path clip-path="url(#pdc5df99284)" d="M 61.049335 36.53037 
L 61.373228 36.53037 
L 61.69712 36.53037 
L 62.14251 36.519055 
L 62.5879 36.507739 
L 62.855043 36.745788 
L 63.122186 36.983836 
L 62.97239 37.302037 
L 62.822593 37.620239 
L 62.672797 37.93844 
L 62.523 38.256641 
L 62.312531 38.515645 
L 62.102061 38.774648 
L 61.891591 39.033652 
L 61.681122 39.292655 
L 61.523175 39.654548 
L 61.365229 40.01644 
L 61.207282 40.378333 
L 61.049335 40.740225 
L 60.915764 41.204064 
L 60.782192 41.667902 
L 60.64862 42.13174 
L 60.515049 42.595579 
L 60.389552 43.086973 
L 60.264055 43.578367 
L 60.138558 44.069761 
L 60.013061 44.561156 
" style="fill:none;stroke:#4169e1;stroke-linecap:square;stroke-width:0.4;"/>
   </g>
   <g id="line2d_11">
    <path clip-path="url(#pdc5df99284)" d="M 57.665219 32.0393 
L 57.576171 32.40685 
L 57.487123 32.7744 
L 57.371738 33.095378 
L 57.256353 33.416356 
L 57.140969 33.737334 
L 57.025584 34.058312 
L 56.910199 34.37929 
L 56.794814 34.700268 
L 56.67943 35.021245 
L 56.564045 35.342223 
L 56.434511 35.649842 
L 56.304976 35.957461 
L 56.175442 36.26508 
L 56.045908 36.5727 
L 55.916373 36.880319 
L 55.786839 37.187938 
L 55.657305 37.495557 
L 55.52777 37.803176 
L 55.373937 38.110795 
L 55.220103 38.418414 
L 55.066269 38.726033 
L 54.912435 39.033652 
L 54.758601 39.341271 
L 54.604768 39.64889 
L 54.450934 39.956509 
L 54.2971 40.264128 
L 54.038031 40.749865 
L 53.778963 41.235601 
L 53.519894 41.721337 
L 53.260826 42.207074 
L 52.997682 42.689562 
L 52.734538 43.17205 
L 52.471395 43.654539 
L 52.208251 44.137027 
L 51.945107 44.619515 
L 51.681963 45.102004 
L 51.41882 45.584492 
L 51.155676 46.06698 
L 50.826124 46.417557 
L 50.496572 46.768134 
L 50.16702 47.118711 
L 49.837467 47.469287 
L 49.596208 47.745998 
L 49.354949 48.022708 
L 49.11369 48.299419 
L 48.872431 48.576129 
L 48.682148 48.944465 
L 48.491865 49.312801 
L 48.301582 49.681137 
L 48.111299 50.049474 
L 47.921016 50.41781 
L 47.730733 50.786146 
L 47.54045 51.154482 
L 47.350167 51.522818 
L 47.227538 52.011907 
L 47.104908 52.500996 
L 46.982279 52.990085 
L 46.85965 53.479175 
L 46.711061 53.988066 
L 46.562472 54.496958 
L 46.413883 55.005849 
L 46.265294 55.514741 
L 46.145872 55.788361 
L 46.026449 56.06198 
L 45.907027 56.3356 
L 45.787605 56.609219 
L 45.668183 56.882839 
L 45.548761 57.156459 
L 45.429339 57.430078 
L 45.309917 57.703698 
L 45.127746 58.18451 
L 44.945576 58.665322 
L 44.763405 59.146134 
L 44.581234 59.626946 
L 44.581234 59.999315 
L 44.581234 60.371685 
L 44.581234 60.744055 
L 44.581234 61.116425 
" style="fill:none;stroke:#000000;stroke-linecap:square;stroke-width:0.4;"/>
   </g>
   <g id="line2d_12">
    <path clip-path="url(#pdc5df99284)" d="M 25.644247 51.734882 
L 25.800005 52.013688 
L 25.955763 52.292494 
L 26.111521 52.5713 
L 26.267279 52.850106 
L 26.413 53.351978 
L 26.558722 53.85385 
L 26.704443 54.355721 
L 26.850165 54.857593 
L 27.056635 55.224305 
L 27.263105 55.591017 
L 27.469575 55.957729 
L 27.676045 56.324441 
L 28.145659 56.567309 
L 28.615272 56.810178 
L 29.084886 57.053046 
L 29.5545 57.295914 
L 29.979514 57.624593 
L 30.404529 57.953272 
L 30.829543 58.28195 
L 31.254558 58.610629 
L 31.562225 58.821017 
L 31.869893 59.031405 
L 32.17756 59.241793 
L 32.485228 59.452181 
L 32.75788 59.633442 
L 33.030532 59.814702 
L 33.303184 59.995963 
L 33.575836 60.177223 
L 33.848489 60.358484 
L 34.121141 60.539744 
L 34.393793 60.721005 
L 34.666445 60.902265 
" style="fill:none;stroke:#000000;stroke-linecap:square;stroke-width:0.4;"/>
   </g>
   <g id="line2d_13">
    <path clip-path="url(#pdc5df99284)" d="M 61.624071 53.54162 
L 61.822542 53.778831 
L 62.021013 54.016041 
L 62.336755 54.231249 
L 62.652497 54.446456 
L 62.863042 54.770315 
L 63.073587 55.094175 
L 63.284132 55.418034 
L 63.494678 55.741893 
L 63.956066 55.979732 
L 64.417454 56.217571 
L 64.830394 56.206255 
L 65.243334 56.194939 
L 65.631975 56.194939 
L 66.020615 56.194939 
L 65.955867 56.745427 
L 65.891119 57.295914 
L 65.575377 57.532286 
L 65.259634 57.768658 
L 65.00049 58.059932 
L 64.741346 58.351207 
L 64.547101 58.836943 
L 64.352857 59.322679 
L 63.867018 59.484661 
L 63.381179 59.646643 
L 63.024988 59.517141 
L 62.668797 59.38764 
L 62.182959 59.290409 
L 61.69712 59.193178 
L 61.178983 59.160907 
L 60.660846 59.128636 
" style="fill:none;stroke:#008000;stroke-linecap:square;stroke-width:0.4;"/>
   </g>
   <g id="line2d_14">
    <path clip-path="url(#pdc5df99284)" d="M 26.511783 49.249622 
L 26.84292 49.398612 
L 27.174057 49.547602 
L 27.481725 49.919972 
L 27.789392 50.292342 
L 28.09706 50.664712 
L 28.404727 51.037082 
L 28.607122 51.279897 
L 28.809517 51.522713 
L 29.011912 51.765529 
L 29.214307 52.008345 
L 29.416702 52.251161 
L 29.619097 52.493976 
L 29.821492 52.736792 
L 30.023887 52.979608 
L 30.20202 53.264962 
L 30.380154 53.550317 
L 30.558287 53.835671 
L 30.73642 54.121025 
L 30.914554 54.40638 
L 31.092687 54.691734 
L 31.27082 54.977089 
L 31.448953 55.262443 
L 31.746509 55.612129 
L 32.044064 55.961815 
L 32.341619 56.311502 
L 32.639175 56.661188 
L 32.93673 57.010874 
L 33.234285 57.36056 
L 33.531841 57.710246 
L 33.829396 58.059932 
L 33.920482 58.33109 
L 34.011567 58.602247 
L 34.102652 58.873405 
L 34.193737 59.144562 
L 34.284823 59.415719 
L 34.375908 59.686877 
L 34.466993 59.958034 
L 34.558079 60.229192 
L 34.612262 60.565728 
L 34.666445 60.902265 
L 34.720251 61.235869 
L 34.774057 61.569472 
L 34.827863 61.903075 
L 34.881669 62.236678 
" style="fill:none;stroke:#000000;stroke-linecap:square;stroke-width:0.4;"/>
   </g>
   <g id="line2d_15">
    <path clip-path="url(#pdc5df99284)" d="M 53.147327 54.533629 
L 52.84781 54.946547 
L 52.548293 55.359465 
L 52.248775 55.772382 
L 51.949258 56.1853 
L 51.82776 56.58114 
L 51.706263 56.976979 
L 51.584766 57.372819 
L 51.463268 57.768658 
L 51.333734 58.039816 
L 51.2042 58.310973 
L 51.074665 58.58213 
L 50.945131 58.853288 
L 50.815597 59.124445 
L 50.686062 59.395603 
L 50.556528 59.66676 
L 50.426994 59.937917 
L 50.339833 60.479289 
L 50.252671 61.020661 
L 50.16551 61.562033 
L 50.078349 62.103405 
" style="fill:none;stroke:#ff0000;stroke-dasharray:1.48,0.64;stroke-dashoffset:0;stroke-width:0.4;"/>
   </g>
   <g id="line2d_16">
    <path clip-path="url(#pdc5df99284)" d="M 54.119005 19.254669 
L 54.323286 24.64256 
L 55.09853 27.981631 
L 56.062057 29.795022 
L 57.276427 31.132369 
L 58.138756 33.32384 
L 58.393901 34.457923 
L 60.466601 35.899207 
L 61.049335 36.53037 
L 61.033337 37.608714 
L 59.345278 40.653472 
L 58.895889 41.753608 
L 59.23578 43.201178 
L 60.013061 44.561156 
L 59.997063 45.898502 
L 59.4464 47.16104 
L 59.349278 48.035491 
L 60.029361 50.010497 
L 61.628297 53.195863 
L 61.50695 54.614096 
L 60.693295 58.221914 
L 60.54931 59.40388 
L 60.214701 60.229611 
L 55.770539 62.314421 
L 54.637217 63.383125 
L 53.714215 63.965883 
L 48.410892 64.55828 
L 47.178411 64.405204 
L 45.617811 63.836381 
L 45.617811 63.836381 
" style="fill:none;stroke:#4169e1;stroke-linecap:square;stroke-width:0.4;"/>
   </g>
   <g id="line2d_17">
    <path clip-path="url(#pdc5df99284)" d="M 26.979661 48.964634 
L 27.392601 48.953319 
L 27.805541 48.942003 
L 28.226481 48.942003 
L 28.64742 48.942003 
L 28.991537 49.125778 
L 29.335654 49.309553 
L 29.67977 49.493328 
L 30.023887 49.677104 
L 30.380154 50.033233 
L 30.73642 50.389363 
L 31.092687 50.745493 
L 31.448953 51.101623 
L 31.752546 51.533086 
L 32.056138 51.964549 
L 32.359731 52.396012 
L 32.663323 52.827475 
L 32.987216 53.23222 
L 33.311108 53.636966 
L 33.635 54.041711 
L 33.958893 54.446456 
L 34.130951 54.675966 
L 34.30301 54.905475 
L 34.475068 55.134984 
L 34.647126 55.364494 
L 34.819185 55.594003 
L 34.991243 55.823513 
L 35.163302 56.053022 
L 35.33536 56.282531 
L 35.428407 56.568252 
L 35.521455 56.853974 
L 35.614502 57.139695 
L 35.707549 57.425416 
L 35.7157 57.953272 
L 35.72385 58.481127 
L 35.72385 58.999134 
L 35.72385 59.517141 
L 35.757922 59.954629 
L 35.791994 60.392117 
L 35.826066 60.829604 
L 35.860138 61.267092 
L 35.89421 61.704579 
L 35.928282 62.142067 
L 35.962354 62.579554 
L 35.996426 63.017042 
" style="fill:none;stroke:#ff0000;stroke-linecap:square;stroke-width:0.4;"/>
   </g>
   <g id="line2d_18">
    <path clip-path="url(#pdc5df99284)" d="M 54.766789 19.043862 
L 53.973208 18.632725 
L 52.358953 18.546914 
L 50.880383 18.266851 
L 49.325896 17.00379 
L 48.742935 16.323906 
L 48.289546 16.485678 
L 48.734784 18.903044 
L 49.050527 20.177316 
L 49.584813 21.440273 
L 49.050527 23.231085 
L 49.399624 27.266175 
L 49.423018 27.792145 
L 48.356558 29.124044 
L 48.056814 29.399811 
L 46.296309 29.114404 
L 45.189476 28.699496 
L 44.061135 29.489079 
L 43.609859 31.456332 
L 42.213168 32.655376 
L 41.472411 33.075314 
L 40.128243 34.781887 
L 38.897572 38.084811 
L 38.405017 40.230391 
L 37.675052 41.779906 
L 36.893771 43.167859 
L 36.565728 44.10769 
L 36.428233 51.770296 
L 36.359485 56.555994 
L 36.13679 58.438798 
L 35.996426 63.017042 
L 35.996426 63.017042 
" style="fill:none;stroke:#4169e1;stroke-linecap:square;stroke-width:0.4;"/>
   </g>
   <g id="line2d_19">
    <path clip-path="url(#pdc5df99284)" d="M 33.081999 5.640221 
L 32.945559 6.027049 
L 32.80912 6.413878 
L 32.679624 6.673091 
L 32.550127 6.932304 
L 32.270759 7.315257 
L 31.99139 7.698209 
L 31.712022 8.081161 
L 31.432653 8.464113 
L 31.318627 8.74491 
L 31.2046 9.025707 
L 31.090574 9.306503 
L 30.976547 9.5873 
L 30.862521 9.868097 
L 30.748495 10.148893 
L 30.634468 10.42969 
L 30.520442 10.710487 
" style="fill:none;stroke:#4169e1;stroke-linecap:square;stroke-width:0.4;"/>
   </g>
   <g id="line2d_20">
    <path clip-path="url(#pdc5df99284)" d="M 24.777616 49.806605 
L 23.028657 50.389573 
L 21.466095 51.835257 
L 20.939808 52.244926 
L 19.854935 51.490128 
L 18.830432 49.64148 
L 18.547291 46.657596 
L 18.267469 44.102242 
L 18.786059 38.441045 
L 18.635282 36.628754 
L 18.090657 34.153447 
L 17.222592 31.891148 
L 16.29242 29.277015 
L 14.373516 26.124548 
L 14.025476 25.715088 
L 13.717732 23.885195 
L 13.377691 22.865211 
L 11.952776 21.148789 
L 7.208341 14.616913 
L 5.977671 13.904444 
L 5.56458 13.106479 
L 5.082816 12.22155 
L 4.293611 10.990026 
L 4.293611 10.990026 
" style="fill:none;stroke:#008000;stroke-linecap:square;stroke-width:0.4;"/>
   </g>
   <g id="line2d_21">
    <path clip-path="url(#pdc5df99284)" d="M 48.742935 16.323906 
L 47.252366 14.289597 
L 45.172497 12.403334 
L 44.39729 11.812247 
L 40.581632 9.199214 
L 39.610256 7.450311 
L 37.909746 5.895976 
L 36.080041 4.948497 
L 35.270461 4.58409 
L 34.16657 4.71904 
L 32.803234 5.748663 
L 29.95929 6.737842 
L 27.173944 6.875621 
L 23.579244 6.276414 
L 20.453969 5.653108 
L 17.703299 5.112627 
L 15.361343 4.616779 
L 14.316767 4.616779 
L 11.798904 3.46698 
L 10.754555 3.272727 
L 6.252964 4.535474 
L 4.711683 5.431509 
L 4.099216 6.391247 
L 3.791624 7.32081 
L 3.143839 8.162781 
L 3.451431 10.342517 
L 3.451431 10.342517 
" style="fill:none;stroke:#000000;stroke-linecap:square;stroke-width:0.4;"/>
   </g>
   <g id="line2d_22">
    <path clip-path="url(#pdc5df99284)" d="M 51.560466 15.149589 
L 51.215029 15.107784 
L 50.869591 15.065978 
L 50.524154 15.024173 
L 50.178717 14.982368 
L 49.833279 14.940563 
L 49.487842 14.898758 
L 49.142404 14.856953 
L 48.796967 14.815147 
L 48.410817 14.68376 
L 48.024666 14.552372 
L 47.638516 14.420984 
L 47.252366 14.289597 
L 46.766753 14.217197 
L 46.281141 14.144798 
L 45.795529 14.072398 
L 45.309917 13.999999 
L 44.867319 14.041071 
L 44.424722 14.082142 
L 43.982124 14.123214 
L 43.539527 14.164286 
L 43.096929 14.205358 
L 42.654331 14.246429 
L 42.211734 14.287501 
L 41.769136 14.328573 
L 41.439622 14.290959 
L 41.110107 14.253345 
L 40.780593 14.21573 
L 40.451078 14.178116 
L 40.121564 14.140502 
L 39.79205 14.102888 
L 39.462535 14.065274 
L 39.133021 14.027659 
L 38.855841 13.735128 
L 38.578661 13.442596 
L 38.301481 13.150065 
L 38.024301 12.857534 
L 37.777231 12.643112 
L 37.530161 12.42869 
L 37.283091 12.214268 
L 37.036021 11.999846 
L 36.788951 11.785425 
L 36.541882 11.571003 
L 36.294812 11.356581 
L 36.047742 11.142159 
L 35.772449 10.802165 
L 35.497155 10.46217 
L 35.221862 10.122176 
L 34.946568 9.782181 
L 34.525554 9.749806 
L 34.104539 9.71743 
L 33.683524 9.685055 
L 33.262509 9.652679 
L 32.805045 9.792659 
L 32.347581 9.932638 
L 31.890117 10.072617 
L 31.432653 10.212596 
L 30.976547 10.461542 
L 30.520442 10.710487 
L 30.264165 10.850256 
L 30.007889 10.990026 
L 29.590874 11.270927 
L 29.173858 11.551829 
L 28.756843 11.83273 
L 28.339828 12.113632 
L 27.906663 12.237476 
L 27.473499 12.36132 
L 27.040334 12.485164 
L 26.60717 12.609007 
L 26.273203 12.575427 
L 25.939236 12.541847 
L 25.605269 12.508266 
L 25.271302 12.474686 
L 24.937336 12.441106 
L 24.603369 12.407525 
L 24.269402 12.373945 
L 23.935435 12.340365 
L 23.548832 12.299869 
L 23.162229 12.259374 
L 22.775626 12.218878 
L 22.389023 12.178383 
L 22.002419 12.137887 
L 21.615816 12.097392 
L 21.229213 12.056896 
L 20.84261 12.016401 
L 20.488381 11.99817 
L 20.134152 11.979939 
L 19.779923 11.961708 
L 19.425694 11.943477 
L 19.071465 11.925247 
L 18.717236 11.907016 
L 18.363007 11.888785 
L 18.008778 11.870554 
L 17.595914 11.947564 
L 17.183049 12.024573 
L 16.770184 12.101583 
L 16.357319 12.178592 
" style="fill:none;stroke:#000000;stroke-linecap:square;stroke-width:0.4;"/>
   </g>
   <g id="line2d_23">
    <path clip-path="url(#pdc5df99284)" d="M 45.189476 28.699496 
L 44.144146 28.17604 
L 43.177223 27.085543 
L 41.923234 26.214759 
L 41.033511 25.839141 
L 39.051067 26.259917 
L 38.738796 26.253631 
L 37.316899 27.047982 
L 33.651301 28.305542 
L 32.290832 28.046539 
L 29.75282 26.704582 
L 28.404727 24.923409 
L 24.736865 24.36433 
L 23.870536 23.57768 
L 22.113729 20.036499 
L 21.765537 19.043862 
L 20.988256 17.975367 
L 20.049028 17.165877 
L 19.725287 15.675978 
L 19.417544 15.044604 
L 18.883257 14.316 
L 16.972504 12.76156 
L 16.357319 12.178592 
L 14.65696 11.466123 
L 9.649155 10.992436 
L 5.97752 11.029002 
L 4.957395 10.883156 
L 4.957395 10.883156 
" style="fill:none;stroke:#008000;stroke-linecap:square;stroke-width:0.4;"/>
   </g>
   <g id="line2d_24">
    <path clip-path="url(#pdc5df99284)" d="M 48.558802 17.67634 
L 48.160049 17.942887 
L 47.70666 18.201891 
L 47.253271 18.460894 
L 47.042726 18.671387 
L 46.832181 18.88188 
L 46.621636 19.092372 
L 46.411091 19.302865 
L 46.407015 19.702057 
L 46.40294 20.10125 
L 46.398865 20.500442 
L 46.39479 20.899634 
L 46.265294 21.158638 
L 46.135797 21.417641 
L 46.006301 21.676645 
L 45.876804 21.935648 
L 45.366666 21.914693 
L 44.856528 21.893738 
L 44.305941 21.796507 
L 43.755354 21.699276 
L 43.399163 21.699276 
L 43.042972 21.699276 
L 42.686781 21.699276 
L 42.33059 21.699276 
L 42.051221 21.904111 
L 41.771853 22.108946 
L 41.492485 22.313781 
L 41.213116 22.518616 
L 40.82855 22.848133 
L 40.443985 23.17765 
L 40.059419 23.507167 
L 39.674854 23.836684 
L 39.448159 24.079552 
L 39.221465 24.32242 
L 38.99477 24.565288 
L 38.768076 24.808157 
L 38.760756 25.169525 
L 38.753436 25.530894 
L 38.746116 25.892262 
L 38.738796 26.253631 
" style="fill:none;stroke:#4169e1;stroke-linecap:square;stroke-width:0.4;"/>
   </g>
   <g id="line2d_25">
    <path clip-path="url(#pdc5df99284)" d="M 40.450928 68.727273 
L 40.683697 68.543131 
L 40.916466 68.358989 
L 41.149236 68.174847 
L 41.382005 67.990705 
L 41.614774 67.806563 
L 41.847544 67.622422 
L 42.080313 67.43828 
L 42.313082 67.254138 
" style="fill:none;stroke:#008000;stroke-linecap:square;stroke-width:0.4;"/>
   </g>
  </g>
 </g>
 <defs>
  <clipPath id="pdc5df99284">
   <rect height="72" width="69.164454" x="0" y="0"/>
  </clipPath>
 </defs>
</svg>
