<?xml version="1.0" encoding="utf-8" standalone="no"?>
<!DOCTYPE svg PUBLIC "-//W3C//DTD SVG 1.1//EN"
  "http://www.w3.org/Graphics/SVG/1.1/DTD/svg11.dtd">
<svg height="72pt" version="1.1" viewBox="0 0 74.433219 72" width="74.433219pt" xmlns="http://www.w3.org/2000/svg" xmlns:xlink="http://www.w3.org/1999/xlink">
 <metadata>
  <rdf:RDF xmlns:cc="http://creativecommons.org/ns#" xmlns:dc="http://purl.org/dc/elements/1.1/" xmlns:rdf="http://www.w3.org/1999/02/22-rdf-syntax-ns#">
   <cc:Work>
    <dc:type rdf:resource="http://purl.org/dc/dcmitype/StillImage"/>
    <dc:date>2022-04-19T00:46:40.799722</dc:date>
    <dc:format>image/svg+xml</dc:format>
    <dc:creator>
     <cc:Agent>
      <dc:title>Matplotlib v3.4.3, https://matplotlib.org/</dc:title>
     </cc:Agent>
    </dc:creator>
   </cc:Work>
  </rdf:RDF>
 </metadata>
 <defs>
  <style type="text/css">*{stroke-linecap:butt;stroke-linejoin:round;}</style>
 </defs>
 <g id="figure_1">
  <g id="patch_1">
   <path d="M 0 72 
L 74.433219 72 
L 74.433219 0 
L 0 0 
z
" style="fill:#ffffff;"/>
  </g>
  <g id="axes_1">
   <g id="line2d_1">
    <path clip-path="url(#p5f7c47694e)" d="M 46.032858 53.306936 
L 45.950592 52.570702 
L 45.845613 51.680731 
L 45.769462 51.035245 
L 45.671435 50.203939 
L 45.573408 49.372634 
L 45.475381 48.541328 
L 45.377354 47.710023 
L 45.293633 47.00048 
L 45.209911 46.290936 
L 45.122258 45.54787 
L 45.034605 44.804804 
L 44.946952 44.061737 
L 44.859299 43.318671 
L 44.778927 42.637526 
L 44.698554 41.956382 
L 44.639075 41.45209 
L 44.579596 40.947798 
L 44.520118 40.443505 
L 44.460639 39.939213 
L 44.358717 39.075292 
L 44.256795 38.21137 
L 44.146137 37.272501 
L 44.074355 36.664596 
L 44.043196 36.449363 
L 43.955871 35.848397 
L 43.868545 35.247432 
L 43.78122 34.646466 
L 43.693895 34.0455 
L 43.592228 33.346046 
L 43.49056 32.646592 
L 43.388893 31.947138 
L 43.287226 31.247684 
L 43.199792 30.645651 
L 43.112357 30.043618 
L 43.008251 29.327455 
L 42.904145 28.611293 
L 42.886673 28.491079 
L 42.868181 28.363818 
L 42.817657 28.016199 
L 42.735392 27.449291 
L 42.626335 26.699605 
L 42.496166 25.803655 
L 42.420162 25.287565 
" style="fill:none;stroke:#808080;stroke-linecap:square;stroke-width:0.4;"/>
   </g>
   <g id="line2d_2">
    <path clip-path="url(#p5f7c47694e)" d="M 40.116871 12.860847 
L 40.720249 12.937929 
L 41.322753 13.014798 
L 42.228548 13.130529 
L 42.800039 13.203554 
L 43.37153 13.27658 
L 43.905783 13.344854 
L 44.440036 13.413129 
L 44.974289 13.481403 
L 45.508542 13.549678 
L 46.137401 13.63007 
L 46.766259 13.710462 
L 47.326539 13.781993 
L 47.886818 13.853524 
L 48.764439 13.965731 
L 49.64206 14.077938 
L 50.313143 14.163669 
L 50.984226 14.249399 
L 51.748349 14.347086 
L 52.512473 14.444774 
L 53.177441 14.529757 
L 53.842409 14.61474 
L 54.543195 14.704207 
L 55.243981 14.793674 
L 55.736846 14.856663 
L 56.229712 14.919653 
L 56.815909 14.9946 
L 57.402105 15.069548 
L 57.854784 15.127413 
" style="fill:none;stroke:#808080;stroke-linecap:square;stroke-width:0.4;"/>
   </g>
   <g id="line2d_3">
    <path clip-path="url(#p5f7c47694e)" d="M 45.94171 54.833211 
L 45.430526 54.834466 
L 44.919342 54.83572 
L 44.408158 54.836975 
L 43.896974 54.838229 
L 43.38579 54.839484 
L 42.874606 54.840738 
L 42.363422 54.841993 
L 41.852238 54.843247 
L 41.341054 54.844501 
L 40.82987 54.845756 
L 40.318686 54.84701 
L 39.807502 54.848265 
L 39.296318 54.849519 
L 38.785134 54.850774 
L 38.27395 54.852028 
L 37.762765 54.853283 
" style="fill:none;stroke:#808080;stroke-linecap:square;stroke-width:0.4;"/>
   </g>
   <g id="line2d_4">
    <path clip-path="url(#p5f7c47694e)" d="M 47.721268 53.049852 
L 47.992708 52.422142 
L 48.264148 51.794433 
L 48.535588 51.166723 
L 48.807028 50.539013 
" style="fill:none;stroke:#808080;stroke-linecap:square;stroke-width:0.4;"/>
   </g>
   <g id="line2d_5">
    <path clip-path="url(#p5f7c47694e)" d="M 3.383328 54.231285 
L 3.804994 54.070074 
L 4.226368 53.909076 
L 4.969379 53.624874 
L 5.432687 53.447862 
L 5.974766 53.24053 
L 6.544219 53.022841 
L 7.113671 52.805152 
L 7.748791 52.562375 
L 8.38391 52.319597 
L 9.022815 52.075324 
L 9.66172 51.831052 
L 10.377431 51.55742 
L 11.093141 51.283788 
L 11.685526 51.057238 
L 12.277911 50.830688 
L 12.841175 50.615348 
L 13.40444 50.400009 
L 14.006143 50.170042 
L 14.607846 49.940076 
L 15.206784 49.711071 
L 15.805721 49.482065 
L 16.424896 49.245266 
L 17.044072 49.008467 
L 17.756143 48.73633 
L 18.468213 48.464192 
L 19.25607 48.162909 
L 19.909972 47.912978 
L 20.563874 47.663047 
L 21.172785 47.430198 
L 21.781695 47.197349 
L 22.240854 47.021832 
L 22.700012 46.846315 
L 23.054409 46.710726 
L 23.407059 46.575992 
L 23.972435 46.359478 
" style="fill:none;stroke:#808080;stroke-linecap:square;stroke-width:0.4;"/>
   </g>
   <g id="line2d_6">
    <path clip-path="url(#p5f7c47694e)" d="M 33.989469 34.068988 
L 35.663064 34.302744 
L 36.09252 34.507194 
L 38.117017 35.756261 
L 38.751044 35.817596 
L 39.819987 35.763628 
L 40.79043 35.919821 
L 41.491325 36.213471 
L 42.47105 36.93636 
L 43.441492 37.848912 
L 43.887692 38.276495 
L 43.753883 38.380482 
L 41.783149 38.313648 
L 41.805572 38.536568 
L 42.549166 39.295009 
L 43.750097 39.952879 
L 44.00665 40.038289 
L 43.984372 40.164695 
L 42.578869 40.714949 
L 41.885472 40.547599 
L 40.738377 40.153592 
L 40.150869 40.105229 
L 39.94637 40.127542 
L 39.236266 40.670322 
L 38.890459 40.818935 
L 38.169143 41.138582 
L 36.41048 41.272462 
L 36.101365 41.545987 
L 35.938217 41.971329 
L 35.986594 42.932298 
L 36.54953 44.067876 
L 37.174749 44.857331 
L 37.771356 45.731501 
L 38.400506 47.934437 
L 38.400506 47.934437 
" style="fill:none;stroke:#000000;stroke-linecap:square;stroke-width:0.4;"/>
   </g>
   <g id="line2d_7">
    <path clip-path="url(#p5f7c47694e)" d="M 42.862648 21.565614 
L 42.601146 21.506307 
L 42.339643 21.447001 
L 42.078141 21.387694 
L 41.816638 21.328388 
L 41.668851 21.205745 
L 41.521064 21.083101 
L 41.373278 20.960458 
L 41.225491 20.837815 
L 41.077704 20.715171 
L 40.929917 20.592528 
L 40.78213 20.469885 
L 40.634344 20.347241 
L 40.40107 20.229456 
L 40.167796 20.11167 
L 39.934522 19.993884 
L 39.701248 19.876099 
L 39.467974 19.758313 
L 39.2347 19.640527 
L 39.001427 19.522742 
L 38.768153 19.404956 
" style="fill:none;stroke:#000000;stroke-linecap:square;stroke-width:0.4;"/>
   </g>
   <g id="line2d_8">
    <path clip-path="url(#p5f7c47694e)" d="M 38.768153 19.404956 
L 38.834402 19.256983 
L 38.900651 19.109011 
L 38.9669 18.961038 
L 39.03315 18.813065 
L 39.100345 18.685377 
L 39.167541 18.55769 
L 39.215226 18.358337 
L 39.262911 18.158985 
L 39.310596 17.959633 
L 39.358281 17.760281 
L 39.405966 17.560929 
L 39.453651 17.361577 
L 39.501335 17.162225 
L 39.54902 16.962872 
L 39.57319 16.695299 
L 39.597361 16.427726 
L 39.621531 16.160153 
L 39.645701 15.892579 
L 39.669871 15.625006 
L 39.694041 15.357433 
L 39.718211 15.089859 
L 39.742381 14.822286 
L 39.786444 14.671564 
L 39.830507 14.520842 
L 39.87457 14.37012 
L 39.918633 14.219399 
L 39.962696 14.068677 
L 40.006759 13.917955 
L 40.050822 13.767233 
L 40.094885 13.616511 
L 40.097797 13.468111 
L 40.006504 13.354303 
" style="fill:none;stroke:#008000;stroke-linecap:square;stroke-width:0.4;"/>
   </g>
   <g id="line2d_9">
    <path clip-path="url(#p5f7c47694e)" d="M 58.12546 14.998657 
L 58.04385 14.866539 
L 57.962239 14.73442 
L 57.880629 14.602302 
L 57.799019 14.470183 
L 57.627972 14.317834 
L 57.456925 14.165484 
L 57.285878 14.013134 
L 57.114831 13.860784 
L 56.928933 13.713985 
L 56.743034 13.567187 
L 56.557136 13.420389 
L 56.371238 13.27359 
L 56.159313 13.147237 
L 55.947388 13.020884 
L 55.735463 12.89453 
L 55.523538 12.768177 
L 55.335765 12.714289 
L 55.147992 12.6604 
L 54.960219 12.606512 
L 54.772446 12.552624 
L 54.584673 12.498735 
L 54.3969 12.444847 
L 54.209127 12.390959 
L 54.021354 12.33707 
L 53.8336 12.223689 
L 53.645845 12.110307 
L 53.45809 11.996925 
L 53.270335 11.883544 
L 53.073262 11.736799 
L 52.876189 11.590054 
L 52.679115 11.443309 
L 52.482042 11.296564 
L 52.299856 11.186919 
L 52.117671 11.077274 
L 51.935485 10.967629 
L 51.7533 10.857984 
L 51.593246 10.756079 
L 51.433192 10.654174 
L 51.273138 10.55227 
L 51.113084 10.450365 
" style="fill:none;stroke:#ff0000;stroke-linecap:square;stroke-width:0.4;"/>
   </g>
   <g id="line2d_10">
    <path clip-path="url(#p5f7c47694e)" d="M 68.987719 25.407139 
L 68.839713 25.437673 
L 68.691708 25.468207 
L 68.543703 25.498742 
L 68.395698 25.529276 
L 68.170741 25.611056 
L 67.945785 25.692836 
L 67.720829 25.774616 
L 67.495873 25.856396 
L 67.226325 25.940044 
L 66.956778 26.023692 
L 66.687231 26.107341 
L 66.417684 26.190989 
L 66.291264 26.278321 
L 66.164845 26.365652 
L 66.038425 26.452984 
L 65.912005 26.540316 
L 65.670305 26.597914 
L 65.428604 26.655512 
L 65.186904 26.713111 
L 64.945203 26.770709 
L 64.746273 26.806047 
L 64.547343 26.841386 
L 64.348414 26.876724 
L 64.149484 26.912062 
L 63.93199 27.023522 
L 63.714495 27.134982 
L 63.497001 27.246442 
L 63.279507 27.357902 
L 63.073152 27.463864 
L 62.866796 27.569826 
L 62.660441 27.675787 
L 62.454085 27.781749 
L 62.304405 27.916697 
L 62.154726 28.051645 
L 62.005046 28.186592 
L 61.855366 28.32154 
" style="fill:none;stroke:#ff0000;stroke-dasharray:1.48,0.64;stroke-dashoffset:0;stroke-width:0.4;"/>
   </g>
   <g id="line2d_11">
    <path clip-path="url(#p5f7c47694e)" d="M 49.450155 47.200979 
L 49.39903 47.366408 
L 49.347906 47.531836 
L 49.296781 47.697264 
L 49.245656 47.862693 
L 49.194531 48.028121 
L 49.143406 48.19355 
L 49.092282 48.358978 
L 49.041157 48.524406 
L 49.002845 48.686258 
L 48.964533 48.84811 
L 48.926222 49.009962 
L 48.88791 49.171814 
L 48.849598 49.333665 
L 48.811286 49.495517 
L 48.772975 49.657369 
L 48.734663 49.819221 
L 48.656784 49.99287 
L 48.578904 50.166519 
L 48.501025 50.340168 
L 48.423146 50.513817 
L 48.345267 50.687466 
L 48.267387 50.861115 
L 48.189508 51.034765 
L 48.111629 51.208414 
L 48.023321 51.350621 
L 47.935013 51.492829 
L 47.846704 51.635036 
L 47.758396 51.777244 
L 47.670088 51.919451 
L 47.58178 52.061659 
L 47.493472 52.203866 
L 47.405164 52.346074 
L 47.234117 52.539367 
L 47.06307 52.732661 
L 46.892023 52.925954 
L 46.720977 53.119247 
L 46.548947 53.166169 
L 46.376917 53.213092 
L 46.204888 53.260014 
L 46.032858 53.306936 
L 46.028271 53.492382 
L 46.023685 53.677828 
L 46.019098 53.863275 
L 46.014512 54.048721 
L 45.997622 54.230751 
L 45.980732 54.412781 
L 45.961221 54.622996 
L 45.94171 54.833211 
" style="fill:none;stroke:#008000;stroke-linecap:square;stroke-width:0.4;"/>
   </g>
   <g id="line2d_12">
    <path clip-path="url(#p5f7c47694e)" d="M 69.217043 46.250367 
L 69.168848 46.099645 
L 69.120654 45.948923 
L 69.072459 45.798201 
L 69.024265 45.647479 
L 68.97607 45.496758 
L 68.927876 45.346036 
L 68.879681 45.195314 
L 68.831487 45.044592 
L 68.776649 44.895872 
L 68.721812 44.747152 
L 68.666974 44.598432 
L 68.612136 44.449712 
L 68.557299 44.300992 
L 68.502461 44.152272 
L 68.447623 44.003552 
L 68.392786 43.854832 
L 68.307262 43.722873 
L 68.221739 43.590915 
L 68.136215 43.458957 
L 68.050692 43.326998 
L 67.965168 43.19504 
L 67.879645 43.063081 
L 67.794122 42.931123 
L 67.708598 42.799165 
L 67.613811 42.609608 
L 67.519023 42.420051 
L 67.424236 42.230495 
L 67.329449 42.040938 
L 67.09521 41.929425 
L 66.860972 41.817911 
L 66.626733 41.706398 
L 66.392495 41.594885 
L 66.238174 41.542838 
L 66.083853 41.490791 
L 65.929532 41.438745 
L 65.775212 41.386698 
L 65.620891 41.334651 
L 65.46657 41.282605 
L 65.312249 41.230558 
L 65.157929 41.178511 
L 64.9962 41.07255 
L 64.834472 40.966588 
L 64.672744 40.860626 
L 64.511016 40.754664 
L 64.397627 40.630126 
L 64.284239 40.505588 
L 64.170851 40.381049 
L 64.057463 40.256511 
L 63.944038 40.048378 
L 63.830614 39.840244 
L 63.717189 39.632111 
L 63.603765 39.423978 
L 63.438323 39.210239 
L 63.272882 38.996501 
L 63.107441 38.782762 
L 62.942 38.569024 
L 62.811867 38.470482 
L 62.681735 38.371941 
L 62.551602 38.273399 
L 62.42147 38.174857 
L 62.224397 38.197171 
L 62.027323 38.219484 
" style="fill:none;stroke:#008000;stroke-linecap:square;stroke-width:0.4;"/>
   </g>
   <g id="line2d_13">
    <path clip-path="url(#p5f7c47694e)" d="M 42.603184 24.603645 
L 42.79407 24.665781 
L 42.984955 24.727917 
L 43.17584 24.790053 
L 43.366725 24.852188 
L 43.574009 24.945125 
L 43.781293 25.038062 
L 43.988577 25.130998 
L 44.19586 25.223935 
L 44.403144 25.316872 
L 44.610428 25.409808 
L 44.817712 25.502745 
L 45.024995 25.595682 
L 45.199755 25.735994 
L 45.374515 25.876307 
L 45.549275 26.016619 
L 45.724034 26.156932 
L 45.898794 26.297244 
L 46.073554 26.437557 
L 46.248314 26.577869 
L 46.423073 26.718182 
L 46.579232 26.887294 
L 46.735391 27.056405 
L 46.89155 27.225517 
L 47.047709 27.394629 
L 47.16856 27.560004 
L 47.28941 27.725379 
L 47.41026 27.890754 
L 47.53111 28.056129 
L 47.580379 28.241041 
L 47.629647 28.425954 
L 47.678915 28.610866 
L 47.728184 28.795779 
L 47.777452 28.980691 
L 47.82672 29.165604 
L 47.875989 29.350516 
L 47.925257 29.535429 
L 47.975454 29.747299 
L 48.02565 29.959169 
L 48.075847 30.171039 
L 48.126043 30.382909 
L 48.203195 30.571531 
L 48.280346 30.760154 
L 48.357497 30.948776 
L 48.434648 31.137399 
L 48.5118 31.326021 
L 48.588951 31.514644 
L 48.666102 31.703266 
L 48.743254 31.891889 
L 48.890658 32.078963 
L 49.038063 32.266038 
L 49.185467 32.453112 
L 49.332872 32.640187 
L 49.480277 32.827261 
L 49.627681 33.014336 
L 49.775086 33.20141 
L 49.922491 33.388484 
L 50.026342 33.494927 
L 50.130193 33.601369 
L 50.234044 33.707811 
L 50.337895 33.814253 
L 50.441746 33.920695 
L 50.545598 34.027137 
L 50.649449 34.133579 
L 50.7533 34.240021 
L 50.912353 34.358314 
L 51.071406 34.476607 
L 51.230458 34.5949 
L 51.389511 34.713193 
L 51.548564 34.831485 
L 51.707617 34.949778 
L 51.86667 35.068071 
L 52.025723 35.186364 
L 52.150195 35.269185 
L 52.274667 35.352005 
L 52.399139 35.434826 
L 52.523611 35.517647 
L 52.648084 35.600468 
L 52.772556 35.683289 
L 52.897028 35.76611 
L 53.0215 35.848931 
" style="fill:none;stroke:#ff0000;stroke-linecap:square;stroke-width:0.4;"/>
   </g>
   <g id="line2d_14">
    <path clip-path="url(#p5f7c47694e)" d="M 50.824209 16.592193 
L 50.624332 16.799473 
L 50.424456 17.006752 
L 50.22458 17.214031 
L 50.024704 17.42131 
L 49.854603 17.518864 
L 49.684503 17.616419 
L 49.514402 17.713973 
L 49.344302 17.811527 
L 49.174201 17.909081 
L 49.004101 18.006635 
L 48.834001 18.104189 
L 48.6639 18.201744 
L 48.490069 18.320677 
L 48.316237 18.43961 
L 48.142406 18.558544 
L 47.968574 18.677477 
L 47.794742 18.79641 
L 47.620911 18.915344 
L 47.447079 19.034277 
L 47.273248 19.15321 
L 47.046435 19.272144 
L 46.819622 19.391077 
L 46.59281 19.51001 
L 46.365997 19.628944 
L 46.183812 19.684674 
L 46.001626 19.740404 
L 45.819441 19.796134 
L 45.637255 19.851864 
L 45.45507 19.907594 
L 45.272884 19.963324 
L 45.090699 20.019054 
L 44.908513 20.074784 
L 44.751426 20.136119 
L 44.594339 20.197454 
L 44.437252 20.258789 
L 44.280164 20.320124 
L 44.123077 20.381459 
L 43.96599 20.442794 
L 43.808903 20.504129 
L 43.651816 20.565464 
L 43.477784 20.614681 
L 43.303752 20.663899 
L 43.12972 20.713116 
L 42.955689 20.762334 
" style="fill:none;stroke:#008000;stroke-linecap:square;stroke-width:0.4;"/>
   </g>
   <g id="line2d_15">
    <path clip-path="url(#p5f7c47694e)" d="M 56.254173 15.435743 
L 56.199718 15.668165 
L 56.145262 15.900586 
L 56.095248 16.16066 
L 56.045233 16.420733 
L 55.909859 16.588937 
L 55.774485 16.757141 
L 55.63911 16.925345 
L 55.503736 17.09355 
L 55.427477 17.218408 
L 55.351217 17.343267 
L 55.274958 17.468126 
L 55.198698 17.592984 
L 55.207143 17.792737 
L 55.215588 17.992489 
L 55.224033 18.192242 
L 55.232478 18.391994 
L 55.291957 18.611284 
L 55.351436 18.830574 
L 55.410915 19.049864 
L 55.470393 19.269154 
L 55.49642 19.505153 
L 55.522446 19.741151 
L 55.548473 19.977149 
L 55.574499 20.213148 
L 55.517423 20.4871 
L 55.460347 20.761052 
L 55.33582 20.950609 
L 55.211293 21.140166 
L 55.086766 21.329722 
L 54.96224 21.519279 
L 54.904599 21.66888 
L 54.846959 21.818481 
L 54.789318 21.968082 
L 54.731678 22.117682 
L 54.674037 22.267283 
L 54.616397 22.416884 
L 54.558756 22.566485 
L 54.501116 22.716086 
L 54.486027 22.952164 
L 54.470939 23.188243 
L 54.455851 23.424321 
L 54.440763 23.660399 
L 54.425675 23.896478 
L 54.410587 24.132556 
L 54.395499 24.368635 
L 54.380411 24.604713 
L 54.311614 24.814715 
L 54.242816 25.024716 
L 54.174019 25.234718 
L 54.105222 25.44472 
L 54.036424 25.654721 
L 53.967627 25.864723 
L 53.89883 26.074725 
L 53.830032 26.284726 
L 53.78728 26.528171 
L 53.744527 26.771616 
L 53.701774 27.015062 
L 53.659022 27.258507 
L 53.616269 27.501952 
L 53.573517 27.745397 
L 53.530764 27.988842 
L 53.488011 28.232287 
L 53.443584 28.49615 
L 53.399157 28.760013 
L 53.35473 29.023877 
L 53.310303 29.28774 
L 53.265876 29.551603 
L 53.221449 29.815466 
L 53.177022 30.07933 
L 53.132595 30.343193 
L 53.090516 30.594192 
L 53.048437 30.84519 
L 53.006357 31.096188 
L 52.964278 31.347187 
L 52.922199 31.598185 
L 52.88012 31.849184 
L 52.838041 32.100182 
L 52.795961 32.351181 
L 52.794651 32.548318 
L 52.793341 32.745454 
L 52.79203 32.942591 
L 52.79072 33.139728 
L 52.789409 33.336865 
L 52.788099 33.534002 
L 52.786788 33.731138 
L 52.785478 33.928275 
L 52.814981 34.168357 
L 52.844484 34.408439 
L 52.873986 34.648521 
L 52.903489 34.888603 
L 52.932992 35.128685 
L 52.962495 35.368767 
L 52.991997 35.608849 
L 53.0215 35.848931 
" style="fill:none;stroke:#ff0000;stroke-linecap:square;stroke-width:0.4;"/>
   </g>
   <g id="line2d_16">
    <path clip-path="url(#p5f7c47694e)" d="M 42.420162 25.287565 
L 42.337168 26.068559 
L 42.868727 28.839017 
L 43.670453 30.452518 
L 43.575884 31.540534 
L 43.39712 32.00052 
L 42.910697 33.051863 
L 42.800294 34.479063 
L 42.918596 34.99686 
L 43.482516 36.431907 
L 44.112248 37.35978 
L 44.902307 38.154893 
L 45.445205 39.588605 
L 46.026233 41.941115 
L 46.772902 44.053797 
L 47.845612 46.493785 
L 48.78213 48.143425 
L 49.041157 48.524406 
L 49.041157 48.524406 
" style="fill:none;stroke:#ff0000;stroke-linecap:square;stroke-width:0.4;"/>
   </g>
   <g id="line2d_17">
    <path clip-path="url(#p5f7c47694e)" d="M 60.759851 14.251107 
L 60.667138 14.06438 
L 60.574426 13.877652 
L 60.481713 13.690925 
L 60.389001 13.504197 
L 60.255155 13.262647 
L 60.12131 13.021097 
L 59.987465 12.779547 
L 59.853619 12.537997 
L 59.763455 12.381911 
L 59.67329 12.225824 
L 59.583126 12.069737 
L 59.492961 11.913651 
L 59.402797 11.757564 
L 59.312632 11.601477 
L 59.222468 11.445391 
L 59.132303 11.289304 
L 58.974288 11.172239 
L 58.816272 11.055174 
L 58.658257 10.938109 
L 58.500242 10.821044 
L 58.33662 10.698427 
L 58.172999 10.575811 
L 58.009378 10.453194 
L 57.845757 10.330577 
L 57.693311 10.111287 
L 57.540865 9.891997 
L 57.436759 9.788011 
L 57.332653 9.684024 
L 57.20809 9.609664 
L 57.083526 9.535304 
L 56.958963 9.460944 
L 56.8344 9.386584 
L 56.63922 9.340142 
L 56.444039 9.293701 
L 56.248859 9.247259 
L 56.053678 9.200817 
L 55.895644 9.201752 
L 55.737611 9.202686 
L 55.579577 9.20362 
L 55.421544 9.204554 
L 55.26351 9.205488 
L 55.105476 9.206422 
L 54.947443 9.207357 
L 54.789409 9.208291 
L 54.522628 9.236156 
L 54.255848 9.264021 
L 53.989067 9.291886 
L 53.722286 9.319751 
L 53.455506 9.347616 
L 53.188725 9.375481 
L 52.921944 9.403346 
L 52.655163 9.431211 
L 52.38376 9.498151 
L 52.112356 9.565091 
L 51.98226 9.660536 
L 51.852164 9.755982 
L 51.722068 9.851428 
L 51.591972 9.946873 
" style="fill:none;stroke:#4169e1;stroke-linecap:square;stroke-width:0.4;"/>
   </g>
   <g id="line2d_18">
    <path clip-path="url(#p5f7c47694e)" d="M 37.17817 52.036676 
L 37.323063 52.18182 
L 37.467956 52.326963 
L 37.612849 52.472107 
L 37.757742 52.61725 
L 37.902635 52.762394 
L 38.047528 52.907538 
L 38.192421 53.052681 
L 38.337314 53.197825 
L 38.543852 53.380442 
L 38.750389 53.563059 
L 38.956927 53.745676 
L 39.163464 53.928293 
" style="fill:none;stroke:#ff0000;stroke-linecap:square;stroke-width:0.4;"/>
   </g>
   <g id="line2d_19">
    <path clip-path="url(#p5f7c47694e)" d="M 41.628956 62.907867 
L 41.836877 62.718417 
L 42.044798 62.528967 
L 42.252718 62.339517 
L 42.460639 62.150067 
L 42.594958 62.02665 
L 42.729276 61.903232 
L 42.863595 61.779815 
L 42.997913 61.656398 
L 43.132232 61.53298 
L 43.266551 61.409563 
L 43.400869 61.286146 
L 43.535188 61.162728 
" style="fill:none;stroke:#000000;stroke-linecap:square;stroke-width:0.4;"/>
   </g>
   <g id="line2d_20">
    <path clip-path="url(#p5f7c47694e)" d="M 60.759851 14.251107 
L 60.821878 13.975233 
L 60.777251 13.73 
L 60.732623 13.484766 
L 60.648938 13.29521 
L 60.565253 13.105653 
L 60.481568 12.916096 
L 60.397883 12.72654 
L 60.41652 12.51846 
L 60.435157 12.31038 
L 60.471576 12.15787 
L 60.507995 12.005359 
L 60.544414 11.852849 
L 60.580832 11.700339 
L 60.617251 11.547829 
L 60.65367 11.395319 
L 60.690089 11.242809 
L 60.726508 11.090299 
L 60.755556 10.923643 
L 60.784604 10.756986 
L 60.715806 10.60832 
L 60.647009 10.459653 
L 60.578212 10.310986 
L 60.509414 10.16232 
L 60.34583 9.930058 
L 60.182245 9.697797 
L 60.01866 9.465535 
L 59.855075 9.233273 
L 59.717499 9.064188 
L 59.579923 8.895103 
L 59.442346 8.726018 
L 59.30477 8.556933 
L 59.167193 8.387848 
L 59.029617 8.218763 
L 58.89204 8.049678 
L 58.754464 7.880593 
L 58.653143 7.769574 
L 58.551821 7.658554 
L 58.4505 7.547535 
L 58.349179 7.436515 
L 58.247857 7.325495 
L 58.146536 7.214476 
L 58.045215 7.103456 
L 57.943893 6.992437 
L 57.842572 6.881417 
L 57.741251 6.770398 
L 57.639929 6.659378 
L 57.538608 6.548358 
L 57.437287 6.437339 
L 57.335965 6.326319 
L 57.234644 6.2153 
L 57.133323 6.10428 
L 57.00319 5.992794 
L 56.873058 5.881307 
L 56.742925 5.76982 
L 56.612793 5.658334 
L 56.48266 5.546847 
L 56.352528 5.43536 
L 56.222395 5.323874 
L 56.092263 5.212387 
L 55.884051 5.11203 
L 55.675839 5.011674 
L 55.404435 4.942972 
L 55.133032 4.87427 
L 54.861628 4.805569 
L 54.590224 4.736867 
L 54.441491 4.72571 
L 54.292758 4.714554 
L 54.144025 4.703397 
L 53.995291 4.69224 
L 53.725708 4.727525 
L 53.456124 4.76281 
L 53.186541 4.798095 
L 52.916957 4.83338 
L 52.649267 4.892847 
L 52.381576 4.952314 
L 52.113885 5.01178 
L 51.846194 5.071247 
L 51.608207 5.06751 
L 51.370219 5.063774 
L 51.223342 5.02662 
L 51.076465 4.989467 
L 50.929589 4.952314 
L 50.782712 4.91516 
L 50.619127 4.905872 
L 50.455542 4.896584 
L 50.291958 4.887295 
L 50.128373 4.878007 
L 49.974999 4.808318 
L 49.821624 4.738629 
L 49.66825 4.66894 
L 49.514876 4.59925 
L 49.361501 4.529561 
L 49.208127 4.459872 
L 49.054753 4.390183 
L 48.901378 4.320494 
L 48.73965 4.313074 
L 48.577922 4.305654 
L 48.416193 4.298234 
L 48.254465 4.290814 
L 48.016477 4.275974 
L 47.77849 4.261134 
L 47.608389 4.218402 
L 47.438289 4.17567 
L 47.268188 4.132939 
L 47.098088 4.090207 
L 46.927987 4.047475 
L 46.757887 4.004744 
L 46.587786 3.962012 
L 46.417686 3.91928 
L 46.246639 3.921149 
L 46.075592 3.923017 
L 45.904545 3.924886 
L 45.733499 3.926754 
L 45.47509 3.844974 
L 45.216681 3.763194 
L 44.958273 3.681414 
L 44.699864 3.599634 
L 44.564126 3.517907 
L 44.428388 3.436181 
L 44.29265 3.354454 
L 44.156912 3.272727 
L 43.874369 3.283831 
L 43.591827 3.294934 
L 43.382669 3.320237 
L 43.17351 3.345539 
L 42.907931 3.437995 
" style="fill:none;stroke:#008000;stroke-linecap:square;stroke-width:0.4;"/>
   </g>
   <g id="line2d_21">
    <path clip-path="url(#p5f7c47694e)" d="M 61.508249 30.634441 
L 61.279544 30.713285 
L 61.050838 30.792129 
L 60.822133 30.870973 
L 60.593427 30.949817 
L 60.338367 31.020761 
L 60.083308 31.091704 
L 59.828248 31.162648 
L 59.573188 31.233592 
L 59.339205 31.330852 
L 59.105221 31.428113 
L 58.871237 31.525373 
L 58.637254 31.622634 
L 58.40327 31.775091 
L 58.169286 31.927547 
L 57.935303 32.080004 
L 57.701319 32.232461 
L 57.565908 32.324437 
L 57.430498 32.416413 
L 57.295087 32.508388 
L 57.159677 32.600364 
L 57.024266 32.69234 
L 56.888856 32.784316 
L 56.753445 32.876292 
L 56.618034 32.968268 
L 56.490523 33.090484 
L 56.363011 33.2127 
L 56.235499 33.334916 
L 56.107988 33.457133 
L 55.980476 33.579349 
L 55.852965 33.701565 
L 55.725453 33.823782 
L 55.597941 33.945998 
L 55.455451 34.038961 
L 55.31296 34.131925 
L 55.17047 34.224888 
L 55.027979 34.317851 
L 54.885489 34.410815 
L 54.742998 34.503778 
L 54.600508 34.596741 
L 54.458017 34.689705 
L 54.311832 34.785044 
L 54.165647 34.880382 
L 54.019462 34.975721 
L 53.873276 35.07106 
L 53.766804 35.168294 
L 53.660332 35.265528 
L 53.55386 35.362762 
L 53.447388 35.459996 
L 53.340916 35.55723 
L 53.234444 35.654463 
L 53.127972 35.751697 
L 53.0215 35.848931 
" style="fill:none;stroke:#ff0000;stroke-linecap:square;stroke-width:0.4;"/>
   </g>
   <g id="line2d_22">
    <path clip-path="url(#p5f7c47694e)" d="M 43.670453 30.297499 
L 43.851583 30.417927 
L 44.032712 30.538355 
L 44.213842 30.658783 
L 44.394972 30.779211 
L 44.576102 30.899639 
L 44.757232 31.020067 
L 44.938362 31.140495 
L 45.119492 31.260923 
L 45.349544 31.309553 
L 45.579596 31.358183 
L 45.809649 31.406814 
L 46.039701 31.455444 
L 46.269754 31.504074 
L 46.499806 31.552705 
L 46.729858 31.601335 
L 46.959911 31.649965 
L 47.182829 31.680206 
L 47.405746 31.710446 
L 47.628664 31.740687 
L 47.851582 31.770927 
L 48.0745 31.801167 
L 48.297418 31.831408 
L 48.520336 31.861648 
L 48.743254 31.891889 
" style="fill:none;stroke:#ff0000;stroke-linecap:square;stroke-width:0.4;"/>
   </g>
   <g id="line2d_23">
    <path clip-path="url(#p5f7c47694e)" d="M 42.533295 13.116222 
L 42.333856 12.947965 
L 42.134416 12.779707 
L 41.934977 12.61145 
L 41.735537 12.443192 
L 41.585348 12.419438 
L 41.435159 12.395683 
L 41.28497 12.371928 
L 41.13478 12.348174 
L 40.989796 12.37417 
L 40.844812 12.400167 
L 40.699828 12.426164 
L 40.554844 12.45216 
L 40.445351 12.554332 
L 40.335858 12.656503 
L 40.226365 12.758675 
L 40.116871 12.860847 
" style="fill:none;stroke:#000000;stroke-linecap:square;stroke-width:0.4;"/>
   </g>
   <g id="line2d_24">
    <path clip-path="url(#p5f7c47694e)" d="M 33.864542 31.371742 
L 33.76131 31.53226 
L 33.658077 31.692777 
L 33.554845 31.853294 
L 33.451613 32.013811 
L 33.410698 32.19408 
L 33.369784 32.374348 
L 33.32887 32.554617 
L 33.287955 32.734885 
L 33.298439 32.95599 
L 33.308922 33.177095 
L 33.320716 33.424357 
L 33.33251 33.671618 
L 33.49675 33.770961 
L 33.66099 33.870303 
L 33.825229 33.969646 
L 33.989469 34.068988 
" style="fill:none;stroke:#008000;stroke-linecap:square;stroke-width:0.4;"/>
   </g>
   <g id="line2d_25">
    <path clip-path="url(#p5f7c47694e)" d="M 38.400506 47.934437 
L 38.534387 48.173745 
L 38.668269 48.413053 
L 38.802151 48.652361 
L 38.936033 48.891669 
L 39.069914 49.130977 
L 39.203796 49.370285 
L 39.337678 49.609593 
L 39.47156 49.848901 
L 39.55701 50.00005 
L 39.642461 50.151199 
L 39.727912 50.302348 
L 39.813362 50.453497 
L 39.898813 50.604645 
L 39.984264 50.755794 
L 40.069714 50.906943 
L 40.155165 51.058092 
L 40.297146 51.205317 
L 40.439127 51.352543 
L 40.581108 51.499768 
L 40.723088 51.646994 
L 40.865069 51.794219 
L 41.00705 51.941444 
L 41.149031 52.08867 
L 41.291012 52.235895 
L 41.426213 52.344459 
L 41.561415 52.453023 
L 41.696616 52.561587 
L 41.831817 52.670151 
L 41.967018 52.778715 
L 42.10222 52.887279 
L 42.237421 52.995843 
L 42.372622 53.104407 
L 42.507824 53.212971 
L 42.643025 53.321535 
L 42.778226 53.4301 
L 42.913427 53.538664 
L 43.048629 53.647228 
L 43.18383 53.755792 
L 43.319031 53.864356 
L 43.454233 53.97292 
" style="fill:none;stroke:#ff0000;stroke-linecap:square;stroke-width:0.4;"/>
   </g>
   <g id="line2d_26">
    <path clip-path="url(#p5f7c47694e)" d="M 54.590224 4.736867 
L 54.493235 4.905739 
L 54.396245 5.07461 
L 54.299255 5.243481 
L 54.202266 5.412353 
L 54.105276 5.581224 
L 54.008287 5.750096 
L 53.911297 5.918967 
L 53.814307 6.087839 
L 53.733443 6.261568 
L 53.652579 6.435297 
L 53.571715 6.609026 
L 53.490851 6.782755 
L 53.409987 6.956485 
L 53.329122 7.130214 
L 53.248258 7.303943 
L 53.167394 7.477672 
L 53.067929 7.656045 
L 52.968464 7.834419 
L 52.868999 8.012792 
L 52.769534 8.191165 
L 52.67007 8.369539 
L 52.570605 8.547912 
L 52.47114 8.726285 
L 52.371675 8.904658 
L 52.306845 9.069767 
L 52.242016 9.234875 
L 52.177186 9.399983 
L 52.112356 9.565091 
" style="fill:none;stroke:#000000;stroke-linecap:square;stroke-width:0.4;"/>
   </g>
   <g id="line2d_27">
    <path clip-path="url(#p5f7c47694e)" d="M 55.044505 47.364112 
L 54.79294 47.41397 
L 54.541375 47.463828 
L 54.28981 47.513686 
L 54.038244 47.563545 
L 53.88487 47.598856 
L 53.731496 47.634168 
L 53.578121 47.66948 
L 53.424747 47.704791 
L 53.271373 47.740103 
L 53.117998 47.775415 
L 52.964624 47.810726 
L 52.81125 47.846038 
L 52.599325 47.827461 
L 52.3874 47.808885 
L 52.175475 47.790308 
L 51.96355 47.771731 
L 51.751625 47.753155 
L 51.539701 47.734578 
L 51.327776 47.716001 
L 51.115851 47.697425 
L 50.887182 47.665823 
L 50.658513 47.634221 
L 50.429843 47.60262 
L 50.201174 47.571018 
L 50.013419 47.478508 
L 49.825665 47.385999 
L 49.63791 47.293489 
L 49.450155 47.200979 
" style="fill:none;stroke:#ff0000;stroke-linecap:square;stroke-width:0.4;"/>
   </g>
   <g id="line2d_28">
    <path clip-path="url(#p5f7c47694e)" d="M 60.666083 54.313705 
L 60.401304 54.304524 
L 60.136526 54.295342 
L 59.871747 54.286161 
L 59.606968 54.276979 
L 59.34219 54.267798 
L 59.077411 54.258616 
L 58.812632 54.249434 
L 58.547854 54.240253 
L 58.28757 54.216578 
L 58.027287 54.192904 
L 57.767004 54.169229 
L 57.506721 54.145555 
L 57.246438 54.12188 
L 56.986155 54.098205 
L 56.725871 54.074531 
L 56.465588 54.050856 
L 56.320331 54.046919 
L 56.175074 54.042983 
L 56.029817 54.039046 
L 55.88456 54.035109 
L 55.739303 54.031172 
L 55.594046 54.027235 
L 55.448789 54.023298 
L 55.303532 54.019361 
L 55.158275 54.015425 
L 55.013019 54.011488 
L 54.867762 54.007551 
L 54.722505 54.003614 
L 54.577248 53.999677 
L 54.431991 53.99574 
L 54.286734 53.991803 
L 54.141477 53.987866 
L 53.998185 53.949752 
L 53.854894 53.911638 
L 53.711603 53.873524 
L 53.568311 53.83541 
L 53.42502 53.797296 
L 53.281729 53.759181 
L 53.138437 53.721067 
L 52.995146 53.682953 
L 52.863539 53.614011 
L 52.731933 53.545069 
L 52.600326 53.476127 
L 52.468719 53.407186 
L 52.337112 53.338244 
L 52.205506 53.269302 
L 52.073899 53.20036 
L 51.942292 53.131418 
" style="fill:none;stroke:#000000;stroke-linecap:square;stroke-width:0.4;"/>
   </g>
   <g id="line2d_29">
    <path clip-path="url(#p5f7c47694e)" d="M 60.666083 54.313705 
L 60.47083 54.381473 
L 60.275576 54.44924 
L 60.080323 54.517008 
L 59.88507 54.584775 
L 59.689816 54.652543 
L 59.494563 54.72031 
L 59.29931 54.788077 
L 59.104056 54.855845 
L 58.885834 54.966291 
L 58.667612 55.076736 
L 58.44939 55.187182 
L 58.231168 55.297628 
L 58.028707 55.334407 
L 57.826246 55.371187 
L 57.623786 55.407967 
L 57.421325 55.444746 
L 57.275413 55.436873 
L 57.129501 55.428999 
L 56.983588 55.421125 
L 56.837676 55.413252 
L 56.691764 55.405378 
L 56.545852 55.397504 
L 56.39994 55.38963 
L 56.254027 55.381757 
L 56.025285 55.392273 
L 55.796543 55.402789 
L 55.567802 55.413305 
L 55.33906 55.423821 
L 55.130047 55.475067 
L 54.921034 55.526313 
L 54.712021 55.577559 
L 54.503008 55.628805 
L 54.293996 55.680051 
L 54.084983 55.731297 
L 53.87597 55.782543 
L 53.666957 55.833789 
L 53.480294 55.91661 
L 53.293632 55.999431 
L 53.106969 56.082252 
L 52.920306 56.165072 
L 52.733643 56.247893 
L 52.546981 56.330714 
L 52.360318 56.413535 
L 52.173655 56.496356 
L 52.025104 56.531855 
L 51.876553 56.567353 
L 51.728001 56.602852 
L 51.57945 56.63835 
L 51.430899 56.673849 
L 51.282348 56.709347 
L 51.133796 56.744846 
L 50.985245 56.780344 
L 50.811687 56.680415 
L 50.638128 56.580485 
L 50.656547 56.412228 
L 50.674966 56.24397 
L 50.693384 56.075712 
L 50.711803 55.907455 
L 50.840625 55.655068 
L 50.969447 55.402682 
L 51.098269 55.150296 
L 51.227091 54.897909 
L 51.316492 54.733629 
L 51.405892 54.569348 
L 51.495292 54.405067 
L 51.584692 54.240787 
L 51.674092 54.076506 
L 51.763492 53.912225 
L 51.852892 53.747945 
L 51.942292 53.583664 
L 51.942292 53.357541 
L 51.942292 53.131418 
L 51.763492 52.942235 
L 51.532129 52.957929 
L 51.300766 52.973623 
L 51.136435 52.999914 
L 50.972105 53.026204 
L 50.807774 53.052494 
L 50.643443 53.078784 
L 50.479112 53.105075 
L 50.314781 53.131365 
L 50.15045 53.157655 
L 49.986119 53.183945 
L 49.794214 53.173429 
L 49.60231 53.162913 
L 49.410406 53.152397 
L 49.218501 53.141881 
L 49.123859 53.010456 
L 49.029217 52.879032 
L 49.060759 52.663479 
L 49.0923 52.447925 
L 49.123841 52.232372 
L 49.155382 52.016819 
L 49.186923 51.801265 
L 49.218465 51.585712 
L 49.250006 51.370159 
L 49.281547 51.154605 
L 49.276305 50.981116 
L 49.271064 50.807627 
L 49.265822 50.634139 
L 49.26058 50.46065 
L 49.213187 50.229295 
L 49.165793 49.997941 
L 48.950228 49.908581 
L 48.734663 49.819221 
" style="fill:none;stroke:#4169e1;stroke-linecap:square;stroke-width:0.4;"/>
   </g>
   <g id="line2d_30">
    <path clip-path="url(#p5f7c47694e)" d="M 61.508249 30.634441 
L 61.573661 30.7822 
L 61.639073 30.929959 
L 61.704486 31.077719 
L 61.769898 31.225478 
L 61.601654 31.440924 
L 61.43341 31.656371 
L 61.337821 31.801127 
L 61.242233 31.945884 
L 61.146645 32.09064 
L 61.051057 32.235397 
L 60.955468 32.380153 
L 60.85988 32.52491 
L 60.764292 32.669666 
L 60.668704 32.814423 
L 60.573115 32.959179 
L 60.477527 33.103936 
L 60.381939 33.248692 
L 60.286351 33.393449 
L 60.190763 33.538205 
L 60.095174 33.682962 
L 59.999586 33.827718 
L 59.903998 33.972475 
L 59.760506 34.189843 
L 59.617015 34.407211 
L 59.473523 34.62458 
L 59.330032 34.841948 
L 59.130228 34.978604 
L 58.930425 35.11526 
L 58.730622 35.251916 
L 58.530818 35.388572 
L 58.338895 35.374132 
L 58.146973 35.359692 
L 57.95505 35.345253 
L 57.763127 35.330813 
L 57.571205 35.316374 
L 57.379282 35.301934 
L 57.187359 35.287494 
L 56.995437 35.273055 
L 56.836848 35.236595 
L 56.678259 35.200136 
L 56.519671 35.163677 
L 56.361082 35.127217 
L 56.202493 35.090758 
L 56.043904 35.054298 
L 55.885316 35.017839 
L 55.726727 34.98138 
L 55.568138 34.94492 
L 55.409549 34.908461 
L 55.250961 34.872002 
L 55.092372 34.835542 
L 54.933783 34.799083 
L 54.775195 34.762624 
L 54.616606 34.726164 
L 54.458017 34.689705 
" style="fill:none;stroke:#ff0000;stroke-linecap:square;stroke-width:0.4;"/>
   </g>
   <g id="line2d_31">
    <path clip-path="url(#p5f7c47694e)" d="M 33.989469 34.068988 
L 34.130777 34.219523 
L 34.272084 34.370058 
L 34.413392 34.520593 
L 34.554699 34.671128 
L 34.642061 34.824466 
L 34.729423 34.977803 
L 34.816784 35.131141 
L 34.904146 35.284478 
L 34.991508 35.437816 
L 35.078869 35.591153 
L 35.166231 35.744491 
L 35.253593 35.897828 
L 35.314018 36.118987 
L 35.374443 36.340145 
L 35.434868 36.561303 
L 35.495293 36.782462 
L 35.555719 37.00362 
L 35.616144 37.224778 
L 35.676569 37.445937 
L 35.736994 37.667095 
L 35.743037 37.822701 
L 35.749079 37.978308 
L 35.755122 38.133914 
L 35.761164 38.28952 
L 35.767207 38.445126 
L 35.773249 38.600733 
L 35.779292 38.756339 
L 35.785334 38.911945 
L 35.791377 39.067551 
L 35.797419 39.223157 
L 35.803462 39.378764 
L 35.809504 39.53437 
L 35.815547 39.689976 
L 35.821589 39.845582 
L 35.827632 40.001189 
L 35.833674 40.156795 
L 35.8504 40.32967 
L 35.867126 40.502545 
L 35.883853 40.67542 
L 35.900579 40.848295 
L 35.917305 41.02117 
L 35.934031 41.194045 
L 35.950757 41.36692 
L 35.967483 41.539795 
L 35.974472 41.730259 
" style="fill:none;stroke:#ff0000;stroke-linecap:square;stroke-width:0.4;"/>
   </g>
   <g id="line2d_32">
    <path clip-path="url(#p5f7c47694e)" d="M 50.824209 16.592193 
L 50.677896 16.563901 
L 50.531583 16.535609 
L 50.385271 16.507317 
L 50.238958 16.479025 
L 50.092646 16.450733 
L 49.946333 16.422441 
L 49.80002 16.394149 
L 49.653708 16.365857 
L 49.506831 16.348188 
L 49.359954 16.330519 
L 49.213077 16.312849 
L 49.066201 16.29518 
L 48.919324 16.277511 
L 48.772447 16.259842 
L 48.62557 16.242173 
L 48.478693 16.224504 
L 48.28071 16.221728 
L 48.082727 16.218952 
L 47.884743 16.216176 
L 47.68676 16.2134 
L 47.488776 16.210624 
L 47.290793 16.207849 
L 47.09281 16.205073 
L 46.894826 16.202297 
L 46.677296 16.172564 
L 46.459765 16.14283 
L 46.242235 16.113097 
L 46.024704 16.083364 
L 45.875043 15.998808 
L 45.725381 15.914252 
L 45.57572 15.829696 
L 45.426058 15.74514 
L 45.276397 15.660584 
L 45.126735 15.576029 
L 44.977074 15.491473 
L 44.827412 15.406917 
L 44.717737 15.303784 
L 44.608062 15.200652 
L 44.498387 15.097519 
L 44.388711 14.994387 
L 44.279036 14.891254 
L 44.169361 14.788122 
L 44.059685 14.684989 
L 43.95001 14.581857 
L 43.827158 14.447123 
L 43.704305 14.312389 
L 43.581453 14.177654 
L 43.458601 14.04292 
L 43.335748 13.908186 
L 43.212896 13.773452 
L 43.090044 13.638718 
L 42.967191 13.503984 
" style="fill:none;stroke:#000000;stroke-linecap:square;stroke-width:0.4;"/>
   </g>
   <g id="line2d_33">
    <path clip-path="url(#p5f7c47694e)" d="M 42.907931 3.437995 
L 42.815437 3.637107 
L 42.722943 3.836219 
L 42.630448 4.035331 
L 42.537954 4.234443 
L 42.455398 4.476634 
L 42.372841 4.718824 
L 42.290284 4.961015 
L 42.207727 5.203205 
L 42.120366 5.467069 
L 42.033004 5.730932 
L 41.945642 5.994795 
L 41.85828 6.258659 
L 41.847542 6.470155 
L 41.836804 6.681651 
L 41.826066 6.893148 
L 41.815328 7.104644 
L 41.804589 7.31614 
L 41.793851 7.527637 
L 41.783113 7.739133 
L 41.772375 7.950629 
L 41.786826 8.139813 
L 41.801277 8.328996 
L 41.815728 8.518179 
L 41.830179 8.707362 
L 41.84463 8.896545 
L 41.859081 9.085728 
L 41.873532 9.274911 
L 41.887983 9.464094 
L 41.918214 9.663819 
L 41.948445 9.863545 
L 41.978676 10.063271 
L 42.008907 10.262997 
L 42.039137 10.462723 
L 42.069368 10.662448 
L 42.099599 10.862174 
L 42.12983 11.0619 
L 41.98996 11.168876 
L 41.85009 11.275852 
L 41.710221 11.382828 
L 41.570351 11.489804 
L 41.430481 11.59678 
L 41.290612 11.703756 
L 41.150742 11.810732 
L 41.010872 11.917708 
L 40.876153 12.019239 
L 40.741434 12.12077 
L 40.606715 12.222301 
L 40.471996 12.323832 
L 40.383215 12.458086 
L 40.294434 12.592339 
L 40.205653 12.726593 
L 40.116871 12.860847 
" style="fill:none;stroke:#000000;stroke-linecap:square;stroke-width:0.4;"/>
   </g>
   <g id="line2d_34">
    <path clip-path="url(#p5f7c47694e)" d="M 48.901378 4.320494 
L 48.906838 4.606617 
L 48.912298 4.89274 
L 48.824937 5.136159 
L 48.737575 5.379577 
L 48.650213 5.622995 
L 48.562852 5.866414 
L 48.460602 6.083782 
L 48.358353 6.30115 
L 48.256103 6.518518 
L 48.153854 6.735887 
L 48.03486 6.988593 
L 47.915866 7.2413 
L 47.796872 7.494007 
L 47.677878 7.746713 
L 47.632341 7.919535 
L 47.586803 8.092357 
L 47.541266 8.265178 
L 47.495729 8.438 
L 47.450192 8.610822 
L 47.404654 8.783643 
L 47.359117 8.956465 
L 47.31358 9.129287 
L 47.2355 9.322527 
L 47.157421 9.515767 
L 47.079341 9.709007 
L 47.001262 9.902247 
L 46.892133 10.01029 
L 46.783003 10.118334 
L 46.636563 10.174918 
L 46.490123 10.231502 
L 46.343683 10.288086 
L 46.197243 10.34467 
" style="fill:none;stroke:#ff0000;stroke-linecap:square;stroke-width:0.4;"/>
   </g>
   <g id="line2d_35">
    <path clip-path="url(#p5f7c47694e)" d="M 56.045233 16.420733 
L 56.097286 16.609355 
L 56.149339 16.797978 
L 56.201392 16.9866 
L 56.253445 17.175223 
L 56.305498 17.363845 
L 56.357551 17.552468 
L 56.409604 17.74109 
L 56.461657 17.929713 
L 56.51371 18.118335 
L 56.565763 18.306958 
L 56.617816 18.49558 
L 56.669869 18.684203 
L 56.721922 18.872825 
L 56.773975 19.061448 
L 56.826028 19.250071 
L 56.878081 19.438693 
L 56.894807 19.64309 
L 56.911533 19.847486 
L 56.928259 20.051883 
L 56.944985 20.25628 
L 56.961712 20.460676 
L 56.978438 20.665073 
L 56.995164 20.86947 
L 57.01189 21.073866 
L 57.062086 21.347045 
L 57.112283 21.620223 
L 57.16248 21.893401 
L 57.212676 22.16658 
L 57.262873 22.439758 
L 57.313069 22.712936 
L 57.363266 22.986115 
L 57.413462 23.259293 
L 57.491542 23.48974 
L 57.569621 23.720186 
L 57.647701 23.950633 
L 57.72578 24.18108 
L 57.80386 24.411526 
L 57.881939 24.641973 
L 57.960019 24.87242 
L 58.038098 25.102866 
L 58.127335 25.346311 
L 58.216571 25.589757 
L 58.305807 25.833202 
L 58.395044 26.076647 
L 58.48428 26.320092 
L 58.573516 26.563537 
L 58.662752 26.806982 
L 58.751989 27.050427 
L 58.772446 27.260428 
L 58.792903 27.47043 
L 58.81336 27.680432 
L 58.833817 27.890433 
L 58.854275 28.100435 
L 58.874732 28.310437 
L 58.895189 28.520438 
L 58.915646 28.73044 
L 58.930516 28.955308 
L 58.945386 29.180177 
L 58.960255 29.405045 
L 58.975125 29.629913 
L 58.989995 29.854782 
L 59.004864 30.07965 
L 59.019734 30.304518 
L 59.034604 30.529387 
L 58.984935 30.666043 
L 58.935266 30.802699 
L 58.885597 30.939354 
L 58.835929 31.07601 
L 58.78626 31.212666 
L 58.736591 31.349322 
L 58.686922 31.485978 
L 58.637254 31.622634 
" style="fill:none;stroke:#ff0000;stroke-linecap:square;stroke-width:0.4;"/>
   </g>
   <g id="line2d_36">
    <path clip-path="url(#p5f7c47694e)" d="M 56.847359 15.400084 
L 56.670306 15.369203 
L 56.493253 15.338322 
L 56.3162 15.307441 
L 56.139147 15.27656 
L 55.962094 15.245679 
L 55.785041 15.214798 
L 55.607988 15.183917 
L 55.430935 15.153036 
L 55.161351 15.130723 
L 54.891768 15.108409 
L 54.622184 15.086096 
L 54.352601 15.063783 
L 54.077448 15.009868 
L 53.802295 14.955952 
L 53.527142 14.902037 
L 53.251989 14.848122 
L 53.079104 14.810969 
L 52.906219 14.773816 
L 52.733334 14.736662 
L 52.560449 14.699509 
L 52.387564 14.662356 
L 52.214679 14.625203 
L 52.041794 14.588049 
L 51.868908 14.550896 
L 51.686714 14.523018 
L 51.504519 14.495139 
L 51.322325 14.467261 
L 51.14013 14.439383 
L 50.957936 14.411504 
L 50.775741 14.383626 
L 50.593546 14.355748 
L 50.411352 14.327869 
L 50.229157 14.299991 
L 50.046963 14.272112 
L 49.864768 14.244234 
L 49.682574 14.216356 
L 49.500379 14.188477 
L 49.318184 14.160599 
L 49.13599 14.132721 
L 48.953795 14.104842 
L 48.714907 14.058387 
L 48.476018 14.011932 
L 48.237129 13.965477 
L 47.998241 13.919022 
L 47.759352 13.872567 
L 47.520463 13.826112 
L 47.281575 13.779657 
L 47.042686 13.733202 
L 46.803797 13.686747 
L 46.564909 13.640292 
L 46.32602 13.593837 
L 46.087131 13.547382 
L 45.848243 13.500927 
L 45.609354 13.454473 
L 45.370465 13.408018 
L 45.131577 13.361563 
L 44.868509 13.29932 
L 44.605441 13.237078 
L 44.342373 13.174835 
L 44.079305 13.112593 
L 43.816237 13.05035 
L 43.55317 12.988108 
L 43.290102 12.925865 
L 43.027034 12.863623 
L 42.865597 12.811069 
L 42.70416 12.758515 
L 42.542723 12.705961 
L 42.381286 12.653407 
L 42.219849 12.600854 
L 42.058412 12.5483 
L 41.896974 12.495746 
L 41.735537 12.443192 
" style="fill:none;stroke:#4169e1;stroke-linecap:square;stroke-width:0.4;"/>
   </g>
   <g id="line2d_37">
    <path clip-path="url(#p5f7c47694e)" d="M 40.117745 57.297929 
L 40.294416 57.264031 
L 40.471086 57.230134 
L 40.647757 57.196237 
L 40.824428 57.16234 
L 41.001099 57.128443 
L 41.17777 57.094546 
L 41.35444 57.060649 
L 41.531111 57.026752 
L 41.774668 57.03604 
L 42.018225 57.045329 
L 42.261782 57.054617 
L 42.505339 57.063905 
L 42.654054 57.031369 
L 42.802769 56.998834 
L 42.951484 56.966298 
L 43.100199 56.933762 
L 43.248914 56.901226 
L 43.397629 56.86869 
L 43.546345 56.836154 
L 43.69506 56.803619 
L 43.969958 56.735451 
L 44.244856 56.667283 
L 44.519754 56.599115 
L 44.794652 56.530947 
" style="fill:none;stroke:#ff0000;stroke-linecap:square;stroke-width:0.4;"/>
   </g>
   <g id="line2d_38">
    <path clip-path="url(#p5f7c47694e)" d="M 62.027323 38.219484 
L 61.915773 38.483427 
L 61.804223 38.747371 
L 61.692673 39.011314 
L 61.581124 39.275258 
L 61.469574 39.539201 
L 61.358024 39.803144 
L 61.246474 40.067088 
L 61.134924 40.331031 
L 61.014074 40.503879 
L 60.893223 40.676728 
L 60.772373 40.849576 
L 60.651523 41.022425 
L 60.51209 41.16925 
L 60.372657 41.316075 
L 60.233224 41.4629 
L 60.093791 41.609725 
L 59.954358 41.75655 
L 59.814925 41.903375 
L 59.675493 42.0502 
L 59.53606 42.197025 
L 59.456124 42.347586 
L 59.376188 42.498148 
L 59.296252 42.64871 
L 59.216316 42.799272 
L 59.13638 42.949833 
L 59.056444 43.100395 
L 58.976508 43.250957 
L 58.896572 43.401518 
L 58.762727 43.52232 
L 58.628882 43.643122 
L 58.495036 43.763923 
L 58.361191 43.884725 
L 58.227346 44.005527 
L 58.0935 44.126328 
L 57.959655 44.24713 
L 57.825809 44.367932 
L 57.697533 44.507337 
L 57.569257 44.646742 
L 57.440981 44.786147 
L 57.312705 44.925552 
L 57.184429 45.064957 
L 57.056153 45.204362 
L 56.927877 45.343767 
L 56.799601 45.483172 
L 56.689908 45.600731 
L 56.580214 45.71829 
L 56.470521 45.835848 
L 56.360827 45.953407 
L 56.251134 46.070966 
L 56.14144 46.188525 
L 56.031747 46.306083 
L 55.922053 46.423642 
L 55.81236 46.541201 
L 55.702666 46.65876 
L 55.592973 46.776318 
L 55.483279 46.893877 
L 55.373586 47.011436 
L 55.263892 47.128995 
L 55.154199 47.246554 
L 55.044505 47.364112 
L 54.933902 47.474718 
L 54.823298 47.585324 
L 54.712695 47.69593 
L 54.602091 47.806536 
L 54.491488 47.917142 
L 54.380884 48.027748 
L 54.270281 48.138353 
L 54.159677 48.248959 
L 53.995146 48.372563 
L 53.830615 48.496168 
L 53.666084 48.619772 
L 53.501552 48.743376 
L 53.337021 48.86698 
L 53.17249 48.990584 
L 53.007959 49.114189 
L 52.843428 49.237793 
L 52.734299 49.360116 
L 52.625169 49.482439 
L 52.51604 49.604762 
L 52.406911 49.727085 
L 52.297781 49.849408 
L 52.188652 49.971731 
L 52.079523 50.094054 
L 51.970394 50.216377 
L 51.852346 50.371583 
L 51.734299 50.526789 
L 51.616251 50.681995 
L 51.498204 50.837201 
L 51.380156 50.992407 
L 51.262109 51.147612 
L 51.144061 51.302818 
L 51.026014 51.458024 
L 50.855914 51.621611 
L 50.685813 51.785198 
L 50.515713 51.948784 
L 50.345612 52.112371 
L 50.175512 52.275958 
L 50.005411 52.439544 
L 49.835311 52.603131 
L 49.66521 52.766718 
L 49.553533 52.860509 
L 49.441856 52.954299 
L 49.330178 53.04809 
L 49.218501 53.141881 
" style="fill:none;stroke:#000000;stroke-linecap:square;stroke-width:0.4;"/>
   </g>
   <g id="line2d_39">
    <path clip-path="url(#p5f7c47694e)" d="M 42.279509 53.855268 
L 42.42635 53.869974 
L 42.57319 53.884681 
L 42.720031 53.899387 
L 42.866871 53.914094 
L 43.013711 53.9288 
L 43.160552 53.943507 
L 43.307392 53.958213 
L 43.454233 53.97292 
L 43.634562 54.006363 
L 43.814891 54.039806 
L 43.99522 54.07325 
L 44.175549 54.106693 
L 44.355878 54.140136 
L 44.536207 54.17358 
L 44.716536 54.207023 
L 44.896865 54.240466 
L 45.167832 54.283545 
L 45.438798 54.326624 
L 45.709765 54.369702 
L 45.980732 54.412781 
" style="fill:none;stroke:#4169e1;stroke-linecap:square;stroke-width:0.4;"/>
   </g>
   <g id="line2d_40">
    <path clip-path="url(#p5f7c47694e)" d="M 42.671618 23.464704 
L 42.722178 23.201641 
L 42.772739 22.938579 
L 42.823299 22.675516 
L 42.87386 22.412453 
L 42.868291 22.224765 
L 42.862721 22.037077 
L 42.857152 21.849388 
L 42.851583 21.6617 
L 42.862648 21.565614 
L 42.885909 21.364794 
L 42.909169 21.163974 
L 42.932429 20.963154 
L 42.955689 20.762334 
L 42.974289 20.5988 
L 42.99289 20.435267 
L 43.011491 20.271733 
L 43.030092 20.1082 
L 43.048692 19.944667 
L 43.067293 19.781133 
L 43.085894 19.6176 
L 43.104495 19.454067 
L 43.176968 19.251485 
L 43.249442 19.048903 
L 43.321916 18.846322 
L 43.39439 18.64374 
L 43.400942 18.442279 
L 43.407494 18.240819 
L 43.407003 18.091912 
L 43.406511 17.943005 
L 43.40602 17.794098 
L 43.405528 17.645191 
L 43.405037 17.496284 
L 43.404546 17.347377 
L 43.404054 17.19847 
L 43.403563 17.049564 
L 43.400341 16.773983 
L 43.39712 16.498403 
L 43.393898 16.222822 
L 43.390677 15.947242 
L 43.387456 15.671661 
L 43.384234 15.396081 
L 43.381013 15.1205 
L 43.377791 14.84492 
L 43.326466 14.677303 
L 43.275141 14.509686 
L 43.223816 14.342069 
L 43.172491 14.174452 
L 43.121166 14.006835 
L 43.069841 13.839218 
L 43.018516 13.671601 
L 42.967191 13.503984 
L 42.858717 13.407043 
L 42.750243 13.310103 
L 42.641769 13.213163 
L 42.533295 13.116222 
" style="fill:none;stroke:#4169e1;stroke-linecap:square;stroke-width:0.4;"/>
   </g>
   <g id="line2d_41">
    <path clip-path="url(#p5f7c47694e)" d="M 42.420162 25.287565 
L 42.465917 25.116585 
L 42.511673 24.945605 
L 42.557429 24.774625 
L 42.603184 24.603645 
L 42.641114 24.461545 
L 42.679043 24.319444 
L 42.677187 24.105759 
L 42.675331 23.892074 
L 42.673474 23.678389 
L 42.671618 23.464704 
L 42.578687 23.310432 
L 42.485756 23.156161 
L 42.392825 23.001889 
L 42.299894 22.847617 
L 42.080507 22.711975 
L 41.86112 22.576334 
L 41.641733 22.440692 
L 41.422346 22.30505 
L 41.143516 22.23811 
L 40.864687 22.17117 
L 40.709438 22.21206 
L 40.554189 22.25295 
L 40.39894 22.29384 
L 40.243691 22.33473 
L 40.088442 22.37562 
L 39.933193 22.41651 
L 39.777944 22.4574 
L 39.622695 22.49829 
L 39.438653 22.607935 
L 39.254612 22.71758 
L 39.07057 22.827225 
L 38.886528 22.93687 
L 38.702486 23.046515 
L 38.518444 23.156161 
L 38.334402 23.265806 
L 38.15036 23.375451 
L 37.986757 23.548272 
L 37.823154 23.721094 
L 37.659551 23.893916 
L 37.495948 24.066737 
L 37.332345 24.239559 
L 37.168743 24.412381 
L 37.00514 24.585202 
L 36.841537 24.758024 
L 36.646356 24.942029 
L 36.451176 25.126034 
L 36.255995 25.310039 
L 36.060815 25.494044 
L 35.964134 25.633422 
L 35.867454 25.772801 
L 35.770774 25.912179 
L 35.674094 26.051557 
L 35.577413 26.190936 
L 35.480733 26.330314 
L 35.384053 26.469692 
L 35.287373 26.609071 
L 35.206508 26.780051 
L 35.125644 26.951031 
L 35.04478 27.122011 
L 34.963916 27.292991 
L 34.883052 27.463971 
L 34.802188 27.634951 
L 34.721324 27.805931 
L 34.640459 27.976911 
L 34.573519 28.204555 
L 34.506578 28.432199 
L 34.439637 28.659843 
L 34.372696 28.887488 
L 34.305755 29.115132 
L 34.238814 29.342776 
L 34.171873 29.57042 
L 34.104932 29.798064 
L 34.074884 29.994774 
L 34.044835 30.191484 
L 34.014786 30.388193 
L 33.984737 30.584903 
L 33.954689 30.781613 
L 33.92464 30.978323 
L 33.894591 31.175033 
L 33.864542 31.371742 
" style="fill:none;stroke:#4169e1;stroke-linecap:square;stroke-width:0.4;"/>
   </g>
   <g id="line2d_42">
    <path clip-path="url(#p5f7c47694e)" d="M 42.420162 25.287565 
L 42.294506 25.083115 
L 42.168851 24.878665 
L 41.990051 24.834039 
L 41.811251 24.789412 
L 41.616689 24.778896 
L 41.422127 24.76838 
L 41.227566 24.757864 
L 41.033004 24.747348 
L 40.880521 24.814341 
L 40.728039 24.881334 
L 40.575556 24.948328 
L 40.423074 25.015321 
L 40.297528 25.0955 
L 40.171982 25.175678 
L 40.046436 25.255857 
L 39.92089 25.336036 
L 39.795344 25.416214 
L 39.669798 25.496393 
L 39.544252 25.576571 
L 39.418706 25.65675 
L 39.316384 25.777365 
L 39.214061 25.89798 
L 39.111739 26.018594 
L 39.009416 26.139209 
L 38.907094 26.259824 
L 38.804772 26.380439 
L 38.702449 26.501054 
L 38.600127 26.621669 
L 38.438399 26.753627 
L 38.27667 26.885585 
L 38.114942 27.017544 
L 37.953214 27.149502 
L 37.774741 27.300037 
L 37.596269 27.450572 
L 37.417796 27.601107 
L 37.239323 27.751642 
L 37.111357 27.833395 
L 36.98339 27.915149 
L 36.855424 27.996902 
L 36.727457 28.078655 
L 36.59949 28.160409 
L 36.471524 28.242162 
L 36.343557 28.323915 
L 36.21559 28.405669 
L 36.064418 28.533143 
L 35.913246 28.660617 
L 35.762074 28.788092 
L 35.610902 28.915566 
L 35.509399 29.056653 
L 35.407895 29.197739 
L 35.306392 29.338826 
L 35.204889 29.479912 
L 35.103385 29.620999 
L 35.001882 29.762085 
L 34.900379 29.903172 
L 34.798875 30.044258 
L 34.700011 30.181715 
L 34.601147 30.319172 
L 34.502282 30.456628 
L 34.403418 30.594085 
L 34.268699 30.788499 
L 34.13398 30.982914 
L 33.999261 31.177328 
L 33.864542 31.371742 
" style="fill:none;stroke:#4169e1;stroke-linecap:square;stroke-width:0.4;"/>
   </g>
   <g id="line2d_43">
    <path clip-path="url(#p5f7c47694e)" d="M 36.823919 54.396553 
L 37.06642 54.38198 
L 37.308922 54.367407 
L 37.551423 54.352834 
L 37.793924 54.338261 
L 37.965117 54.287015 
L 38.136309 54.235769 
L 38.307502 54.184523 
L 38.478694 54.133277 
L 38.649887 54.082031 
L 38.821079 54.030785 
L 38.992272 53.979539 
L 39.163464 53.928293 
L 39.413519 53.910624 
L 39.663573 53.892955 
L 39.913628 53.875285 
L 40.163683 53.857616 
L 40.413737 53.839947 
L 40.663792 53.822278 
L 40.913846 53.804609 
L 41.163901 53.78694 
L 41.442803 53.804022 
L 41.721705 53.821104 
L 42.000607 53.838186 
L 42.279509 53.855268 
" style="fill:none;stroke:#ff0000;stroke-linecap:square;stroke-width:0.4;"/>
   </g>
   <g id="line2d_44">
    <path clip-path="url(#p5f7c47694e)" d="M 38.400506 47.934437 
L 37.876918 49.719932 
L 37.747404 51.202221 
L 37.539083 51.681318 
L 37.124516 52.23376 
L 37.105405 52.659742 
L 37.134744 53.479037 
L 36.867891 54.136693 
L 36.823919 54.396553 
L 37.397084 55.080687 
L 39.712969 56.848459 
L 40.171472 57.511507 
L 40.275287 58.33315 
L 39.850564 59.327482 
L 39.578287 59.983003 
L 39.64308 60.308095 
L 40.295562 61.067176 
L 41.127828 62.021792 
L 42.737321 65.054485 
L 43.180499 66.945515 
L 43.063289 68.294458 
L 43.367599 68.604069 
L 43.656984 67.99232 
L 43.906329 66.791243 
L 44.024559 64.589268 
L 44.086585 63.098598 
L 43.737284 61.553692 
L 43.337641 60.598062 
L 43.45598 59.842184 
L 43.682065 59.508338 
L 44.098816 59.065487 
L 45.276633 55.373055 
L 45.588187 55.065526 
L 46.014221 54.876343 
L 46.014221 54.876343 
" style="fill:none;stroke:#000000;stroke-linecap:square;stroke-width:0.4;"/>
   </g>
   <g id="line2d_45">
    <path clip-path="url(#p5f7c47694e)" d="M 57.854784 15.127413 
L 57.990122 15.063035 
L 58.12546 14.998657 
L 58.280272 14.925045 
L 58.435084 14.851432 
L 58.589896 14.777819 
L 58.744709 14.704207 
L 58.964132 14.652107 
L 59.183555 14.600007 
L 59.440107 14.553565 
L 59.69666 14.507123 
L 59.953212 14.460682 
L 60.209764 14.41424 
L 60.484807 14.332673 
L 60.759851 14.251107 
" style="fill:none;stroke:#008000;stroke-linecap:square;stroke-width:0.4;"/>
   </g>
   <g id="line2d_46">
    <path clip-path="url(#p5f7c47694e)" d="M 61.855366 28.32154 
L 61.842226 28.523908 
L 61.829085 28.726276 
L 61.815944 28.928644 
L 61.802804 29.131013 
L 61.789663 29.33605 
L 61.776522 29.541087 
L 61.763382 29.746124 
L 61.750241 29.951162 
L 61.689743 30.121981 
L 61.629245 30.292801 
L 61.568747 30.463621 
L 61.508249 30.634441 
" style="fill:none;stroke:#000000;stroke-linecap:square;stroke-width:0.4;"/>
   </g>
   <g id="line2d_47">
    <path clip-path="url(#p5f7c47694e)" d="M 53.0215 35.848931 
L 52.963659 35.997438 
L 52.905819 36.145944 
L 52.847978 36.294451 
L 52.790137 36.442957 
L 52.732297 36.591464 
L 52.674456 36.73997 
L 52.616615 36.888477 
L 52.558774 37.036983 
L 52.471995 37.299832 
L 52.385216 37.562682 
L 52.298437 37.825531 
L 52.211657 38.08838 
L 52.077557 38.277669 
L 51.943457 38.466959 
L 51.809357 38.656249 
L 51.675257 38.845539 
L 51.629246 38.988787 
L 51.583236 39.132036 
L 51.537225 39.275284 
L 51.491215 39.418533 
L 51.445204 39.561781 
L 51.399194 39.70503 
L 51.353183 39.848278 
L 51.307173 39.991527 
L 51.261162 40.134775 
L 51.215152 40.278024 
L 51.169142 40.421272 
L 51.123131 40.564521 
L 51.077121 40.707769 
L 51.03111 40.851017 
L 50.9851 40.994266 
L 50.939089 41.137514 
L 50.887837 41.389847 
L 50.836585 41.64218 
L 50.785333 41.894513 
L 50.73408 42.146846 
L 50.682828 42.399179 
L 50.631576 42.651512 
L 50.580324 42.903845 
L 50.529072 43.156178 
L 50.526414 43.355931 
L 50.523757 43.555683 
L 50.5211 43.755436 
L 50.518443 43.955188 
L 50.505302 44.131346 
L 50.492161 44.307504 
L 50.479021 44.483662 
L 50.46588 44.65982 
L 50.360718 44.888505 
L 50.255557 45.11719 
L 50.150395 45.345876 
L 50.045234 45.574561 
L 49.970849 45.777863 
L 49.896464 45.981165 
L 49.822079 46.184468 
L 49.747694 46.38777 
L 49.67331 46.591072 
L 49.598925 46.794375 
L 49.52454 46.997677 
L 49.450155 47.200979 
" style="fill:none;stroke:#4169e1;stroke-linecap:square;stroke-width:0.4;"/>
   </g>
   <g id="line2d_48">
    <path clip-path="url(#p5f7c47694e)" d="M 63.987428 17.833413 
L 63.981203 17.980185 
L 63.974979 18.126957 
L 63.968754 18.273728 
L 63.96253 18.4205 
L 63.956305 18.567271 
L 63.950081 18.714043 
L 63.943856 18.860815 
L 63.937632 19.007586 
L 63.76673 19.125826 
L 63.595829 19.244065 
L 63.424928 19.362305 
L 63.254027 19.480544 
L 63.035805 19.622485 
L 62.817582 19.764425 
L 62.59936 19.906366 
L 62.381138 20.048306 
L 62.241796 20.14159 
L 62.102454 20.234874 
L 61.963112 20.328157 
L 61.823771 20.421441 
L 61.684429 20.514725 
L 61.545087 20.608008 
L 61.405745 20.701292 
L 61.266403 20.794576 
L 61.12182 20.941748 
L 60.977236 21.08892 
L 60.832652 21.236092 
L 60.688069 21.383264 
L 60.642058 21.526512 
L 60.596048 21.669761 
L 60.550037 21.813009 
L 60.504027 21.956258 
L 60.458017 22.099506 
L 60.412006 22.242755 
L 60.365996 22.386003 
L 60.319985 22.529252 
L 60.275285 22.726335 
L 60.230585 22.923418 
L 60.185885 23.120502 
L 60.141185 23.317585 
L 60.175365 23.509437 
L 60.209545 23.701289 
L 60.243726 23.893141 
L 60.277906 24.084994 
L 60.372548 24.300494 
L 60.467189 24.515993 
L 60.561831 24.731493 
L 60.656473 24.946993 
L 60.747184 25.086292 
L 60.837894 25.22559 
L 60.928605 25.364888 
L 61.019315 25.504186 
L 61.110026 25.643485 
L 61.200736 25.782783 
L 61.291447 25.922081 
L 61.382157 26.061379 
L 61.47942 26.308428 
L 61.576683 26.555476 
L 61.673945 26.802524 
L 61.771208 27.049572 
L 61.781728 27.208568 
L 61.792248 27.367564 
L 61.802767 27.52656 
L 61.813287 27.685556 
L 61.823807 27.844552 
L 61.834327 28.003548 
L 61.844847 28.162544 
L 61.855366 28.32154 
" style="fill:none;stroke:#ff0000;stroke-linecap:square;stroke-width:0.4;"/>
   </g>
   <g id="line2d_49">
    <path clip-path="url(#p5f7c47694e)" d="M 59.903998 33.972475 
L 59.982114 34.09349 
L 60.06023 34.214505 
L 60.138346 34.33552 
L 60.216461 34.456536 
L 60.294577 34.577551 
L 60.372693 34.698566 
L 60.450809 34.819581 
L 60.528925 34.940596 
L 60.607041 35.061612 
L 60.685157 35.182627 
L 60.763273 35.303642 
L 60.841389 35.424657 
L 60.919505 35.545673 
L 60.99762 35.666688 
L 61.075736 35.787703 
L 61.153852 35.908718 
L 61.208526 36.053194 
L 61.2632 36.197671 
L 61.317874 36.342147 
L 61.372548 36.486623 
L 61.427221 36.631099 
L 61.481895 36.775576 
L 61.536569 36.920052 
L 61.591243 37.064528 
L 61.669359 37.18944 
L 61.747475 37.314352 
L 61.825591 37.439264 
L 61.903707 37.564176 
L 61.934611 37.728003 
L 61.965515 37.89183 
L 61.996419 38.055657 
L 62.027323 38.219484 
" style="fill:none;stroke:#4169e1;stroke-linecap:square;stroke-width:0.4;"/>
   </g>
   <g id="line2d_50">
    <path clip-path="url(#p5f7c47694e)" d="M 69.217043 46.250367 
L 69.057972 46.360439 
L 68.898901 46.470511 
L 68.757593 46.615494 
L 68.616286 46.760478 
L 68.541883 46.935141 
L 68.46748 47.109804 
L 68.426747 47.333044 
L 68.386015 47.556285 
L 68.345283 47.779525 
L 68.30455 48.002765 
L 68.287997 48.165631 
L 68.271444 48.328497 
L 68.254891 48.491363 
L 68.238337 48.654229 
L 68.221784 48.817096 
L 68.205231 48.979962 
L 68.188678 49.142828 
L 68.172125 49.305694 
L 68.155571 49.46856 
L 68.139018 49.631426 
L 68.122465 49.794292 
L 68.105912 49.957158 
L 68.089359 50.120024 
L 68.072805 50.28289 
L 68.056252 50.445756 
L 68.039699 50.608622 
L 67.974614 50.775919 
L 67.90953 50.943216 
L 67.844446 51.110512 
L 67.779361 51.277809 
L 67.619799 51.406244 
L 67.460236 51.53468 
L 67.300674 51.663115 
L 67.141111 51.79155 
L 66.981549 51.919985 
L 66.821986 52.04842 
L 66.662424 52.176856 
L 66.502862 52.305291 
L 66.362191 52.384161 
L 66.221521 52.463032 
L 66.08085 52.541903 
L 65.94018 52.620774 
L 65.799509 52.699644 
L 65.658839 52.778515 
L 65.518168 52.857386 
L 65.377498 52.936257 
L 65.146135 53.083429 
L 64.914772 53.230601 
L 64.683409 53.377773 
L 64.452046 53.524945 
L 64.239102 53.677455 
L 64.026158 53.829965 
L 63.813214 53.982475 
L 63.60027 54.134985 
L 63.460928 54.195413 
L 63.321586 54.25584 
L 63.182245 54.316268 
L 63.042903 54.376695 
L 62.819402 54.38988 
L 62.595902 54.403066 
L 62.372402 54.416251 
L 62.148902 54.429436 
L 61.963549 54.41497 
L 61.778197 54.400503 
L 61.592845 54.386037 
L 61.407492 54.371571 
L 61.22214 54.357104 
L 61.036788 54.342638 
L 60.851435 54.328172 
L 60.666083 54.313705 
" style="fill:none;stroke:#000000;stroke-linecap:square;stroke-width:0.4;"/>
   </g>
   <g id="line2d_51">
    <path clip-path="url(#p5f7c47694e)" d="M 60.759851 14.251107 
L 61.600343 14.51086 
L 61.812268 14.811877 
L 62.161715 15.499533 
L 65.840915 20.016865 
L 67.028779 21.64654 
L 68.209363 23.138812 
L 68.81922 24.847117 
L 69.191708 25.821378 
L 70.849469 29.405926 
L 70.968426 30.134473 
L 70.916373 30.617733 
L 70.641293 31.498683 
L 70.140929 33.553966 
L 69.453356 35.002092 
L 69.608532 36.089013 
L 70.749967 40.193041 
L 70.944784 41.347916 
L 70.99205 42.57806 
L 69.802293 45.804954 
L 69.217043 46.250367 
L 69.217043 46.250367 
" style="fill:none;stroke:#4169e1;stroke-linecap:square;stroke-width:0.4;"/>
   </g>
   <g id="line2d_52">
    <path clip-path="url(#p5f7c47694e)" d="M 48.711367 50.45702 
L 48.635216 50.669797 
L 48.559066 50.882575 
L 48.482916 51.095352 
L 48.406766 51.30813 
L 48.299347 51.558061 
L 48.191929 51.807991 
L 48.08451 52.057922 
L 47.977092 52.307853 
L 47.893152 52.458174 
L 47.809212 52.608496 
L 47.725272 52.758817 
L 47.641332 52.909139 
" style="fill:none;stroke:#008000;stroke-linecap:square;stroke-width:0.4;"/>
   </g>
   <g id="line2d_53">
    <path clip-path="url(#p5f7c47694e)" d="M 57.854784 15.127413 
L 57.602928 15.195581 
L 57.351072 15.263749 
L 57.099215 15.331916 
L 56.847359 15.400084 
L 56.699062 15.408999 
L 56.550766 15.417913 
L 56.402469 15.426828 
L 56.254173 15.435743 
L 55.987065 15.451811 
L 55.719956 15.467878 
L 55.452848 15.483946 
L 55.18574 15.500014 
L 54.971449 15.502629 
L 54.757158 15.505245 
L 54.542867 15.507861 
L 54.328576 15.510477 
L 54.0836 15.55521 
L 53.838623 15.599943 
L 53.593646 15.644677 
L 53.34867 15.68941 
L 53.190891 15.745834 
L 53.033112 15.802258 
L 52.875333 15.858682 
L 52.717554 15.915106 
L 52.559775 15.97153 
L 52.401997 16.027954 
L 52.244218 16.084378 
L 52.086439 16.140802 
L 51.92866 16.197226 
L 51.770881 16.25365 
L 51.613103 16.310074 
L 51.455324 16.366498 
L 51.297545 16.422922 
L 51.139766 16.479345 
L 50.981987 16.535769 
L 50.824209 16.592193 
" style="fill:none;stroke:#4169e1;stroke-linecap:square;stroke-width:0.4;"/>
   </g>
   <g id="line2d_54">
    <path clip-path="url(#p5f7c47694e)" d="M 51.591972 9.946873 
L 51.47225 10.072746 
L 51.352528 10.198619 
L 51.232806 10.324492 
L 51.113084 10.450365 
L 50.889584 10.57912 
L 50.666084 10.707876 
L 50.46275 10.83567 
L 50.259415 10.963465 
L 50.056081 11.09126 
L 49.852747 11.219054 
L 49.718974 11.301021 
L 49.585202 11.382988 
L 49.451429 11.464955 
L 49.317657 11.546922 
L 49.183884 11.628888 
L 49.050111 11.710855 
L 48.916339 11.792822 
L 48.782566 11.874789 
" style="fill:none;stroke:#008000;stroke-linecap:square;stroke-width:0.4;"/>
   </g>
   <g id="line2d_55">
    <path clip-path="url(#p5f7c47694e)" d="M 48.782566 11.874789 
L 48.522884 11.773311 
L 48.263201 11.671834 
L 48.003519 11.570356 
L 47.743836 11.468878 
L 47.550512 11.328352 
L 47.357188 11.187826 
L 47.163864 11.0473 
L 46.97054 10.906774 
L 46.777216 10.766248 
L 46.583892 10.625722 
L 46.390567 10.485196 
L 46.197243 10.34467 
L 46.057465 10.401414 
L 45.917686 10.458158 
L 45.777907 10.514903 
L 45.638129 10.571647 
L 45.44384 10.666425 
L 45.249551 10.761204 
L 45.055263 10.855982 
L 44.860974 10.95076 
L 44.666685 11.045539 
L 44.472396 11.140317 
L 44.278108 11.235095 
L 44.083819 11.329874 
L 43.955015 11.449714 
L 43.826211 11.569555 
L 43.697407 11.689396 
L 43.568604 11.809237 
L 43.4398 11.929078 
L 43.310996 12.048919 
L 43.182192 12.168759 
L 43.053388 12.2886 
L 42.888657 12.307924 
L 42.723925 12.327248 
L 42.559194 12.346572 
L 42.394463 12.365896 
L 42.229731 12.38522 
L 42.065 12.404544 
L 41.900269 12.423868 
L 41.735537 12.443192 
" style="fill:none;stroke:#4169e1;stroke-linecap:square;stroke-width:0.4;"/>
   </g>
   <g id="line2d_56">
    <path clip-path="url(#p5f7c47694e)" d="M 39.937634 12.972093 
L 39.017124 15.766253 
L 38.23278 18.139047 
L 36.172656 21.077803 
L 32.595468 24.464427 
L 31.190183 26.167234 
L 30.33655 27.641837 
L 28.002865 30.02376 
L 25.263149 31.30228 
L 23.335896 32.432534 
L 22.160408 33.396919 
L 21.320772 34.314408 
L 19.434924 35.184095 
L 17.739507 36.293864 
L 15.63451 37.980443 
L 14.927627 38.57192 
L 11.498718 42.493931 
L 9.342959 44.157183 
L 8.866492 44.55933 
L 7.444918 46.09396 
L 5.535228 47.780673 
L 4.992421 48.592894 
L 4.160574 50.396912 
L 3.766118 51.818241 
L 3.575415 53.400833 
L 3.445792 53.918898 
L 3.445792 53.918898 
" style="fill:none;stroke:#008000;stroke-linecap:square;stroke-width:0.4;"/>
   </g>
   <g id="line2d_57">
    <path clip-path="url(#p5f7c47694e)" d="M 24.128667 46.734214 
L 23.624899 48.221895 
L 23.680501 50.071394 
L 24.284844 52.497677 
L 26.428881 59.13208 
L 27.206091 60.815163 
L 27.014769 62.248288 
L 25.534607 65.29059 
L 23.207001 67.243168 
L 21.926024 68.094545 
L 20.473236 68.715556 
L 18.903238 68.539798 
L 17.958166 68.11798 
L 16.927226 67.149431 
L 15.88056 66.196576 
L 13.537302 64.275173 
L 13.238234 63.947733 
L 13.064166 63.854636 
L 13.064166 63.854636 
" style="fill:none;stroke:#4169e1;stroke-linecap:square;stroke-width:0.4;"/>
   </g>
   <g id="line2d_58">
    <path clip-path="url(#p5f7c47694e)" d="M 24.981753 54.489223 
L 24.838771 54.596572 
L 24.69579 54.703922 
L 24.552808 54.811272 
L 24.409826 54.918621 
L 24.26142 54.973284 
L 24.113014 55.027946 
L 23.964609 55.082608 
L 23.816203 55.137271 
L 23.566276 55.168552 
L 23.316349 55.199833 
L 23.152327 55.363821 
L 22.988306 55.527808 
L 22.824284 55.691795 
L 22.660263 55.855782 
L 22.511857 56.074485 
L 22.363451 56.293187 
L 22.215046 56.51189 
L 22.06664 56.730593 
L 21.941677 56.871172 
L 21.816713 57.011752 
L 21.691749 57.152331 
L 21.566786 57.292911 
L 21.441822 57.43349 
L 21.316859 57.57407 
L 21.191895 57.714649 
L 21.066931 57.855228 
L 20.938055 57.952836 
L 20.809178 58.050443 
L 20.680301 58.148051 
L 20.551425 58.245659 
L 20.422548 58.343266 
L 20.293671 58.440874 
L 20.164795 58.538481 
L 20.035918 58.636089 
L 19.856263 58.796206 
L 19.676607 58.956323 
L 19.496951 59.11644 
L 19.317296 59.276556 
L 19.13764 59.436673 
L 18.957984 59.59679 
L 18.778329 59.756907 
L 18.598673 59.917024 
L 18.460032 59.995121 
L 18.321391 60.073218 
L 18.18275 60.151314 
L 18.044109 60.229411 
L 17.905467 60.307508 
L 17.766826 60.385605 
L 17.628185 60.463701 
L 17.489544 60.541798 
L 17.350903 60.619895 
L 17.212262 60.697991 
L 17.07362 60.776088 
L 16.934979 60.854185 
L 16.796338 60.932281 
L 16.657697 61.010378 
L 16.519056 61.088475 
L 16.380415 61.166572 
L 16.232009 61.264206 
L 16.083603 61.36184 
L 15.935198 61.459474 
L 15.786792 61.557109 
L 15.638387 61.654743 
L 15.489981 61.752377 
L 15.341575 61.850011 
L 15.19317 61.947645 
L 14.966648 61.955439 
L 14.740127 61.963233 
L 14.513605 61.971026 
L 14.287084 61.97882 
L 14.084004 62.017895 
L 13.880925 62.05697 
L 13.677845 62.096045 
L 13.474766 62.13512 
L 13.266699 62.164 
L 13.058633 62.192879 
L 12.850567 62.221758 
L 12.6425 62.250637 
L 12.461443 62.310398 
L 12.280386 62.370158 
L 12.099329 62.429918 
L 11.918272 62.489678 
L 11.737215 62.549439 
L 11.556158 62.609199 
L 11.375101 62.668959 
L 11.194044 62.728719 
L 11.014406 62.838044 
L 10.834769 62.947369 
L 10.655131 63.056694 
L 10.475494 63.166018 
L 10.303646 63.173865 
L 10.131799 63.181712 
L 9.959951 63.189559 
L 9.788103 63.197406 
" style="fill:none;stroke:#000000;stroke-linecap:square;stroke-width:0.4;"/>
   </g>
   <g id="line2d_59">
    <path clip-path="url(#p5f7c47694e)" d="M 13.064166 63.854636 
L 12.807541 63.823088 
L 12.550916 63.791539 
L 12.294291 63.759991 
L 12.037666 63.728443 
L 11.818971 63.720649 
L 11.600275 63.712855 
L 11.38158 63.705062 
L 11.162885 63.697268 
L 10.991037 63.634785 
L 10.819189 63.572303 
L 10.647342 63.50982 
L 10.475494 63.447337 
L 10.303646 63.384855 
L 10.131799 63.322372 
L 9.959951 63.259889 
L 9.788103 63.197406 
L 9.639698 63.138821 
L 9.491292 63.080235 
L 9.342886 63.021649 
L 9.194481 62.963063 
L 9.046075 62.904477 
L 8.897669 62.845891 
L 8.749264 62.787305 
L 8.600858 62.728719 
L 8.444645 62.592037 
L 8.288431 62.455354 
L 8.132217 62.318672 
L 7.976004 62.181989 
L 7.81979 62.045306 
L 7.663577 61.908624 
L 7.507363 61.771941 
L 7.35115 61.635259 
L 7.257436 61.482962 
L 7.163722 61.330665 
L 7.070009 61.178369 
L 6.976295 61.026072 
L 6.882582 60.873776 
L 6.788868 60.721479 
L 6.695154 60.569182 
L 6.601441 60.416886 
L 6.484267 60.166955 
L 6.367093 59.917024 
L 6.249919 59.667093 
L 6.132745 59.417163 
L 6.109558 59.243247 
L 6.086371 59.069331 
L 6.063184 58.895415 
L 6.039996 58.721499 
L 6.007818 58.480002 
L 5.96876 58.308168 
L 5.929702 58.136334 
L 5.890644 57.9645 
L 5.851586 57.792666 
L 5.734413 57.620831 
L 5.617239 57.448997 
L 5.500065 57.277163 
L 5.382891 57.105329 
L 5.250101 56.949136 
L 5.117312 56.792942 
L 4.984522 56.636749 
L 4.851732 56.480555 
L 4.804884 56.332156 
L 4.758037 56.183756 
L 4.711189 56.035356 
L 4.664341 55.886956 
L 4.609668 55.730763 
L 4.554994 55.57457 
L 4.50032 55.418376 
L 4.445646 55.262183 
L 4.24253 55.090402 
L 4.039414 54.918621 
L 3.789487 54.778015 
L 3.53956 54.637409 
" style="fill:none;stroke:#4169e1;stroke-linecap:square;stroke-width:0.4;"/>
   </g>
   <g id="line2d_60">
    <path clip-path="url(#p5f7c47694e)" d="M 24.472289 53.106863 
L 24.300478 53.153678 
L 24.128667 53.200494 
L 23.956855 53.247309 
L 23.785044 53.294124 
L 23.636639 53.34884 
L 23.488233 53.403556 
L 23.339827 53.458271 
L 23.191422 53.512987 
L 22.996132 53.536368 
L 22.800842 53.559749 
L 22.605552 53.58313 
L 22.410263 53.606511 
L 22.246241 53.676814 
L 22.08222 53.747117 
L 21.918198 53.81742 
L 21.754177 53.887723 
L 21.621387 53.950233 
L 21.488597 54.012742 
L 21.355807 54.075251 
L 21.223018 54.137761 
L 20.97309 54.247086 
L 20.723163 54.35641 
L 20.457584 54.371998 
L 20.192004 54.387585 
L 20.012367 54.418813 
L 19.832729 54.450041 
L 19.653092 54.481269 
L 19.473455 54.512497 
L 19.285991 54.551572 
L 19.098527 54.590647 
L 18.911064 54.629722 
L 18.7236 54.668797 
L 18.473673 54.707819 
L 18.223746 54.74684 
L 17.973819 54.785862 
L 17.723892 54.824884 
L 17.56766 54.863959 
L 17.411428 54.903034 
L 17.255196 54.942109 
L 17.098964 54.981184 
L 16.942751 55.055357 
L 16.786537 55.12953 
L 16.630324 55.203704 
L 16.47411 55.277877 
L 16.317897 55.35205 
L 16.161683 55.426223 
L 16.005469 55.500396 
L 15.849256 55.57457 
L 15.63056 55.613645 
L 15.411865 55.65272 
L 15.19317 55.691795 
L 14.974474 55.73087 
L 14.771395 55.863629 
L 14.568315 55.996388 
L 14.365236 56.129147 
L 14.162156 56.261906 
L 13.943461 56.441534 
L 13.724766 56.621162 
L 13.50607 56.800789 
L 13.287375 56.980417 
L 13.068679 57.05072 
L 12.849984 57.121023 
L 12.631289 57.191326 
L 12.412593 57.261629 
L 12.233793 57.387289 
L 12.054993 57.512948 
L 11.876193 57.638607 
L 11.697393 57.764267 
L 11.508254 57.93466 
L 11.319116 58.105052 
L 11.147269 58.167562 
L 10.975421 58.230071 
L 10.803573 58.292581 
L 10.631726 58.35509 
L 10.444262 58.35509 
L 10.256799 58.35509 
L 10.069335 58.35509 
L 9.881871 58.35509 
L 9.600676 58.300374 
L 9.319481 58.245659 
L 9.038285 58.190943 
L 8.75709 58.136227 
L 8.600895 58.183096 
L 8.444699 58.229964 
L 8.288504 58.276833 
L 8.132308 58.323702 
L 7.882345 58.362777 
L 7.632381 58.401852 
L 7.382418 58.440927 
L 7.132454 58.480002 
L 6.961189 58.517849 
L 6.789924 58.555697 
L 6.618658 58.593544 
L 6.447393 58.631391 
L 6.243695 58.676445 
L 6.039996 58.721499 
" style="fill:none;stroke:#000000;stroke-linecap:square;stroke-width:0.4;"/>
   </g>
   <g id="line2d_61">
    <path clip-path="url(#p5f7c47694e)" d="M 23.680501 50.071394 
L 23.576395 50.228254 
L 23.472289 50.385115 
L 23.368183 50.541976 
L 23.264077 50.698837 
L 23.159971 50.855697 
L 23.055865 51.012558 
L 22.951759 51.169419 
L 22.847653 51.326279 
L 22.72269 51.439501 
L 22.597726 51.552722 
L 22.472763 51.665944 
L 22.347799 51.779165 
L 22.222836 51.892387 
L 22.097872 52.005609 
L 21.972908 52.11883 
L 21.847945 52.232052 
L 21.703452 52.2711 
L 21.55896 52.310148 
L 21.414467 52.349197 
L 21.269975 52.388245 
L 21.125482 52.427293 
L 20.980989 52.466342 
L 20.836497 52.50539 
L 20.692004 52.544439 
L 20.465483 52.552286 
L 20.238961 52.560133 
L 20.01244 52.56798 
L 19.785918 52.575827 
L 19.633599 52.603158 
L 19.481281 52.630489 
L 19.328962 52.65782 
L 19.176643 52.685151 
L 19.024325 52.712483 
L 18.872006 52.739814 
L 18.719687 52.767145 
L 18.567369 52.794476 
L 18.399452 52.864752 
L 18.231536 52.935029 
L 18.063619 53.005305 
L 17.895703 53.075582 
L 17.727786 53.145858 
L 17.55987 53.216134 
L 17.391954 53.286411 
L 17.224037 53.356687 
L 17.020958 53.348893 
L 16.817878 53.3411 
L 16.614799 53.333306 
L 16.411719 53.325512 
L 16.235977 53.286464 
L 16.060234 53.247416 
L 15.884492 53.208367 
L 15.708749 53.169319 
L 15.533007 53.130271 
L 15.357264 53.091222 
L 15.181521 53.052174 
L 15.005779 53.013126 
L 14.849547 53.020919 
L 14.693315 53.028713 
L 14.537084 53.036507 
L 14.380852 53.0443 
L 14.232446 53.114603 
L 14.08404 53.184906 
L 13.935635 53.255209 
L 13.787229 53.325512 
L 13.57636 53.419196 
L 13.365491 53.51288 
L 13.154622 53.606564 
L 12.943752 53.700248 
L 12.787521 53.770552 
L 12.631289 53.840855 
L 12.475057 53.911158 
L 12.318825 53.981461 
L 12.073703 54.055767 
L 11.828581 54.130074 
L 11.669946 54.163224 
L 11.511312 54.196373 
L 11.352678 54.229523 
L 11.194044 54.262673 
L 11.022232 54.309542 
L 10.850421 54.35641 
L 10.67861 54.403279 
L 10.506799 54.450148 
L 10.272451 54.512604 
L 10.038103 54.57506 
L 9.803756 54.637516 
L 9.569408 54.699972 
L 9.413212 54.785862 
L 9.257017 54.871753 
L 9.100822 54.957643 
L 8.944626 55.043533 
L 8.843087 55.152885 
L 8.741547 55.262236 
L 8.640007 55.371587 
L 8.538467 55.480939 
L 8.436928 55.59029 
L 8.335388 55.699642 
L 8.233848 55.808993 
L 8.132308 55.918345 
L 8.054193 56.039386 
L 7.976077 56.160428 
L 7.897961 56.28147 
L 7.819845 56.402512 
L 7.741729 56.523554 
L 7.663613 56.644596 
L 7.585497 56.765638 
L 7.507381 56.88668 
L 7.374628 57.128817 
L 7.241875 57.370954 
L 7.109121 57.613091 
L 6.976368 57.855228 
L 6.844124 58.049269 
L 6.71188 58.24331 
L 6.579637 58.43735 
L 6.447393 58.631391 
" style="fill:none;stroke:#4169e1;stroke-linecap:square;stroke-width:0.4;"/>
   </g>
   <g id="line2d_62">
    <path clip-path="url(#p5f7c47694e)" d="M 10.506799 54.450148 
L 10.366183 54.387638 
L 10.225567 54.325129 
L 10.084951 54.26262 
L 9.944335 54.20011 
L 9.749082 54.161088 
L 9.553828 54.122067 
L 9.358575 54.083045 
L 9.163322 54.044023 
L 8.92901 54.004948 
L 8.694699 53.965873 
L 8.460388 53.926798 
L 8.226077 53.887723 
L 8.069845 53.895517 
L 7.913613 53.903311 
L 7.757381 53.911104 
L 7.601149 53.918898 
L 7.359012 53.989201 
L 7.116875 54.059504 
L 6.874737 54.129807 
L 6.6326 54.20011 
L 6.495915 54.250876 
L 6.359231 54.301641 
L 6.222546 54.352407 
L 6.085861 54.403172 
L 5.949177 54.453938 
L 5.812492 54.504703 
L 5.675808 54.555469 
L 5.539123 54.606234 
L 5.390717 54.598441 
L 5.242312 54.590647 
L 5.093906 54.582853 
L 4.9455 54.57506 
L 4.672131 54.528191 
L 4.398762 54.481322 
L 4.125393 54.434454 
L 3.852023 54.387585 
" style="fill:none;stroke:#000000;stroke-linecap:square;stroke-width:0.4;"/>
   </g>
   <g id="line2d_63">
    <path clip-path="url(#p5f7c47694e)" d="M 23.503885 46.172003 
L 23.308595 46.195438 
L 23.113306 46.218872 
L 22.918016 46.242306 
L 22.722726 46.265741 
L 22.566513 46.265741 
L 22.410299 46.265741 
L 22.254086 46.265741 
L 22.097872 46.265741 
L 21.941658 46.265741 
L 21.785445 46.265741 
L 21.629231 46.265741 
L 21.473018 46.265741 
L 21.269938 46.304762 
L 21.066859 46.343784 
L 20.863779 46.382806 
L 20.6607 46.421827 
L 20.496678 46.441365 
L 20.332657 46.460902 
L 20.168635 46.48044 
L 20.004614 46.499977 
L 19.840592 46.519515 
L 19.67657 46.539052 
L 19.512549 46.55859 
L 19.348527 46.578127 
L 19.149343 46.601562 
L 18.950158 46.624996 
L 18.750974 46.64843 
L 18.551789 46.671865 
L 18.352604 46.695299 
L 18.15342 46.718734 
L 17.954235 46.742168 
L 17.755051 46.765602 
L 17.606663 46.785113 
L 17.458276 46.804624 
L 17.309888 46.824135 
L 17.161501 46.843646 
L 17.013113 46.863156 
L 16.864726 46.882667 
L 16.716339 46.902178 
L 16.567951 46.921689 
L 16.364872 46.937303 
L 16.161792 46.952917 
L 15.958713 46.968531 
L 15.755633 46.984145 
L 15.552554 46.999759 
L 15.349474 47.015373 
L 15.146395 47.030987 
L 14.943315 47.046601 
L 14.759747 47.101263 
L 14.576178 47.155926 
L 14.392609 47.210588 
L 14.20904 47.26525 
L 14.025472 47.319913 
L 13.841903 47.374575 
L 13.658334 47.429237 
L 13.474766 47.4839 
L 13.326378 47.515154 
L 13.177991 47.546409 
L 13.029603 47.577664 
L 12.881216 47.608919 
L 12.732828 47.640173 
L 12.584441 47.671428 
L 12.436054 47.702683 
L 12.287666 47.733937 
L 12.076761 47.804187 
L 11.865855 47.874437 
L 11.654949 47.944686 
L 11.444044 48.014936 
L 11.31908 48.09693 
L 11.194116 48.178923 
L 11.069153 48.260917 
L 10.944189 48.34291 
L 10.819226 48.424904 
L 10.694262 48.506897 
L 10.569299 48.588891 
L 10.444335 48.670884 
L 10.303737 48.741187 
L 10.16314 48.81149 
L 10.022542 48.881794 
L 9.881944 48.952097 
L 9.741347 49.0224 
L 9.600749 49.092703 
L 9.460151 49.163006 
L 9.319553 49.233309 
L 9.171148 49.34653 
L 9.022742 49.459752 
L 8.874337 49.572973 
L 8.725931 49.686195 
L 8.577525 49.799417 
L 8.42912 49.912638 
L 8.280714 50.02586 
L 8.132308 50.139081 
L 8.015153 50.256226 
L 7.897997 50.373371 
L 7.780842 50.490516 
L 7.663686 50.607661 
L 7.54653 50.724807 
L 7.429375 50.841952 
L 7.312219 50.959097 
L 7.195063 51.076242 
L 7.011495 51.224641 
L 6.827926 51.373041 
L 6.644357 51.521441 
L 6.460789 51.669841 
L 6.27722 51.818241 
L 6.093651 51.96664 
L 5.910082 52.11504 
L 5.726514 52.26344 
L 5.507818 52.380558 
L 5.289123 52.497677 
L 5.070428 52.614795 
L 4.851732 52.731913 
L 4.697593 52.793942 
L 4.543455 52.855971 
L 4.389316 52.918 
L 4.235177 52.980029 
L 4.081038 53.042058 
L 3.9269 53.104087 
L 3.772761 53.166116 
L 3.618622 53.228145 
" style="fill:none;stroke:#4169e1;stroke-linecap:square;stroke-width:0.4;"/>
   </g>
   <g id="line2d_64">
    <path clip-path="url(#p5f7c47694e)" d="M 23.941276 45.765879 
L 23.925624 45.562817 
L 23.909971 45.359755 
L 23.980261 45.219202 
L 24.050551 45.078649 
L 24.120841 44.938096 
L 24.19113 44.797544 
L 24.269246 44.571101 
L 24.347362 44.344658 
L 24.425478 44.118214 
L 24.503594 43.891771 
L 24.636384 43.680916 
L 24.769173 43.47006 
L 24.901963 43.259204 
L 25.034753 43.048348 
L 25.093322 42.896078 
L 25.15189 42.743808 
L 25.210459 42.591539 
L 25.269028 42.439269 
L 25.327596 42.286999 
L 25.386165 42.134729 
L 25.444734 41.982459 
L 25.503303 41.830189 
L 25.589226 41.70525 
L 25.67515 41.580312 
L 25.761074 41.455373 
L 25.846998 41.330434 
L 25.932922 41.205495 
L 26.018846 41.080557 
L 26.104769 40.955618 
L 26.190693 40.830679 
L 26.253193 40.596389 
L 26.315693 40.362099 
L 26.378193 40.127809 
L 26.440693 39.893519 
L 26.620331 39.682716 
L 26.799968 39.471914 
L 26.979606 39.261112 
L 27.159243 39.050309 
L 27.260783 38.937088 
L 27.362322 38.823866 
L 27.463862 38.710644 
L 27.565402 38.597423 
L 27.666942 38.484201 
L 27.768481 38.37098 
L 27.870021 38.257758 
L 27.971561 38.144537 
L 28.143372 37.941475 
L 28.315183 37.738412 
L 28.389386 37.605653 
L 28.463589 37.472894 
L 28.537792 37.340135 
L 28.611995 37.207376 
L 28.686198 37.074617 
L 28.7604 36.941858 
L 28.834603 36.809099 
L 28.908806 36.67634 
L 29.104096 36.488972 
L 29.299385 36.301604 
L 29.494675 36.114236 
L 29.689965 35.926868 
L 29.814929 35.82926 
L 29.939892 35.731653 
L 30.064856 35.634045 
L 30.189819 35.536438 
L 30.314783 35.43883 
L 30.439746 35.341222 
L 30.56471 35.243615 
L 30.689674 35.146007 
L 30.900579 35.060117 
L 31.111485 34.974227 
L 31.32239 34.888336 
L 31.533296 34.802446 
L 31.783223 34.708709 
L 32.03315 34.614971 
L 32.283078 34.521234 
L 32.533005 34.427496 
L 32.715063 34.382683 
L 32.897121 34.337869 
L 33.079179 34.293056 
L 33.261237 34.248242 
L 33.443295 34.203429 
L 33.625353 34.158615 
L 33.807411 34.113802 
L 33.989469 34.068988 
" style="fill:none;stroke:#4169e1;stroke-linecap:square;stroke-width:0.4;"/>
   </g>
   <g id="line2d_65">
    <path clip-path="url(#p5f7c47694e)" d="M 26.190693 40.830679 
L 26.061817 40.760403 
L 25.93294 40.690127 
L 25.804063 40.61985 
L 25.675187 40.549574 
L 25.54631 40.479297 
L 25.417433 40.409021 
L 25.288557 40.338745 
L 25.15968 40.268468 
L 24.948811 40.120069 
L 24.737942 39.971669 
L 24.527072 39.823269 
L 24.316203 39.674869 
L 24.144355 39.573365 
L 23.972508 39.471861 
L 23.80066 39.370356 
L 23.628812 39.268852 
L 23.456965 39.167347 
L 23.285117 39.065843 
L 23.113269 38.964339 
L 22.941422 38.862834 
L 22.70711 38.706641 
L 22.472799 38.550447 
L 22.238488 38.394254 
L 22.004177 38.238061 
L 21.801097 38.089714 
L 21.598018 37.941368 
L 21.394938 37.793021 
L 21.191859 37.644675 
L 21.027837 37.51584 
L 20.863816 37.387004 
L 20.699794 37.258168 
L 20.535772 37.129333 
L 20.371751 37.000497 
L 20.207729 36.871662 
L 20.043708 36.742826 
L 19.879686 36.613991 
L 19.700013 36.496872 
L 19.520339 36.379754 
L 19.340665 36.262636 
L 19.160991 36.145517 
L 18.97906 36.051193 
L 18.79713 35.956868 
L 18.615199 35.862543 
L 18.433268 35.768219 
" style="fill:none;stroke:#ff0000;stroke-linecap:square;stroke-width:0.4;"/>
   </g>
   <g id="line2d_66">
    <path clip-path="url(#p5f7c47694e)" d="M 33.308922 33.177095 
L 33.114306 33.200663 
L 32.919689 33.22423 
L 32.725073 33.247798 
L 32.530457 33.271366 
L 32.33584 33.294934 
L 32.141224 33.318502 
L 31.946608 33.342069 
L 31.751991 33.365637 
L 31.494238 33.256313 
L 31.236485 33.146988 
L 30.978732 33.037663 
L 30.720978 32.928338 
L 30.580381 32.850268 
L 30.439783 32.772198 
L 30.299185 32.694128 
L 30.158587 32.616058 
L 30.01799 32.537988 
L 29.877392 32.459918 
L 29.736794 32.381848 
L 29.596197 32.303778 
L 29.463407 32.194454 
L 29.330617 32.085129 
L 29.197828 31.975804 
L 29.065038 31.866479 
L 28.924458 31.616602 
L 28.783879 31.366724 
L 28.643299 31.116847 
L 28.50272 30.86697 
L 28.377756 30.656167 
L 28.252793 30.445365 
L 28.127829 30.234562 
L 28.002865 30.02376 
" style="fill:none;stroke:#4169e1;stroke-linecap:square;stroke-width:0.4;"/>
   </g>
   <g id="line2d_67">
    <path clip-path="url(#p5f7c47694e)" d="M 34.798875 30.044258 
L 34.537045 30.023493 
L 34.275215 30.002728 
L 34.013385 29.981962 
L 33.751554 29.961197 
L 33.485975 29.914382 
L 33.220396 29.867567 
L 32.954816 29.820751 
L 32.689237 29.773936 
L 32.540831 29.72317 
L 32.392425 29.672405 
L 32.24402 29.621639 
L 32.095614 29.570874 
L 31.947208 29.520108 
L 31.798803 29.469343 
L 31.650397 29.418577 
L 31.501992 29.367812 
L 31.282477 29.230916 
L 31.062963 29.094019 
L 30.843448 28.957123 
L 30.623934 28.820227 
L 30.40442 28.683331 
L 30.184905 28.546435 
L 29.965391 28.409539 
L 29.745876 28.272643 
" style="fill:none;stroke:#4169e1;stroke-linecap:square;stroke-width:0.4;"/>
   </g>
   <g id="line2d_68">
    <path clip-path="url(#p5f7c47694e)" d="M 37.239323 27.751642 
L 37.007669 27.74529 
L 36.776015 27.738937 
L 36.544361 27.732585 
L 36.312707 27.726233 
L 36.160498 27.736242 
L 36.008288 27.746251 
L 35.856079 27.75626 
L 35.703869 27.766269 
L 35.55166 27.776278 
L 35.39945 27.786287 
L 35.247241 27.796296 
L 35.095031 27.806304 
L 34.923184 27.829739 
L 34.751336 27.853173 
L 34.579488 27.876608 
L 34.407641 27.900042 
L 34.188945 27.939064 
L 33.97025 27.978085 
L 33.751554 28.017107 
L 33.532859 28.056129 
L 33.376627 28.017107 
L 33.220396 27.978085 
L 33.064164 27.939064 
L 32.907932 27.900042 
L 32.759526 27.868787 
L 32.611121 27.837533 
L 32.462715 27.806278 
L 32.314309 27.775023 
L 32.165904 27.743768 
L 32.017498 27.712514 
L 31.869093 27.681259 
L 31.720687 27.650004 
L 31.584293 27.599559 
L 31.4479 27.549114 
L 31.311507 27.498669 
L 31.175113 27.448223 
L 31.03872 27.397778 
L 30.902326 27.347333 
L 30.765933 27.296888 
L 30.62954 27.246442 
" style="fill:none;stroke:#000000;stroke-linecap:square;stroke-width:0.4;"/>
   </g>
  </g>
 </g>
 <defs>
  <clipPath id="p5f7c47694e">
   <rect height="72" width="74.433219" x="0" y="0"/>
  </clipPath>
 </defs>
</svg>
