<?xml version="1.0" encoding="utf-8" standalone="no"?>
<!DOCTYPE svg PUBLIC "-//W3C//DTD SVG 1.1//EN"
  "http://www.w3.org/Graphics/SVG/1.1/DTD/svg11.dtd">
<svg xmlns:xlink="http://www.w3.org/1999/xlink" width="68.473642pt" height="72pt" viewBox="0 0 68.473642 72" xmlns="http://www.w3.org/2000/svg" version="1.1">
 <metadata>
  <rdf:RDF xmlns:dc="http://purl.org/dc/elements/1.1/" xmlns:cc="http://creativecommons.org/ns#" xmlns:rdf="http://www.w3.org/1999/02/22-rdf-syntax-ns#">
   <cc:Work>
    <dc:type rdf:resource="http://purl.org/dc/dcmitype/StillImage"/>
    <dc:date>2022-05-17T14:54:44.715649</dc:date>
    <dc:format>image/svg+xml</dc:format>
    <dc:creator>
     <cc:Agent>
      <dc:title>Matplotlib v3.5.2, https://matplotlib.org/</dc:title>
     </cc:Agent>
    </dc:creator>
   </cc:Work>
  </rdf:RDF>
 </metadata>
 <defs>
  <style type="text/css">*{stroke-linejoin: round; stroke-linecap: butt}</style>
 </defs>
 <g id="figure_1">
  <g id="patch_1">
   <path d="M 0 72 
L 68.473642 72 
L 68.473642 0 
L 0 0 
z
" style="fill: #ffffff"/>
  </g>
  <g id="axes_1">
   <g id="line2d_1">
    <path d="M 32.598048 64.646001 
L 32.541087 59.562781 
L 32.484125 54.479562 
L 32.427164 49.396342 
L 32.370202 44.313122 
L 32.339263 41.548807 
L 32.308323 38.784492 
L 32.277383 36.020177 
L 32.246444 33.255863 
L 32.321846 30.683987 
L 32.422349 27.257579 
L 32.522851 23.831172 
L 32.623353 20.404764 
L 32.723856 16.978357 
L 32.824358 13.551949 
L 32.92486 10.125542 
L 33.025363 6.699135 
L 33.125865 3.272727 
" clip-path="url(#p7f8d0eebdb)" style="fill: none; stroke: #808080; stroke-width: 0.4; stroke-linecap: square"/>
   </g>
   <g id="line2d_2">
    <path d="M 14.798988 68.727273 
L 14.515 65.361548 
L 14.231011 61.995824 
L 13.799906 56.893029 
L 13.518787 53.563444 
L 13.237667 50.233858 
L 12.914748 46.409774 
L 12.591829 42.585689 
L 12.400864 40.319788 
L 12.004592 35.629578 
L 11.60832 30.939367 
L 11.298924 27.273089 
L 10.989529 23.60681 
L 10.588339 18.853959 
L 10.187149 14.101108 
L 9.910947 10.834163 
" clip-path="url(#p7f8d0eebdb)" style="fill: none; stroke: #808080; stroke-width: 0.4; stroke-linecap: square"/>
   </g>
   <g id="line2d_3">
    <path d="M 38.484352 67.734661 
L 39.06954 65.426598 
L 40.200576 60.964664 
L 40.344824 60.393672 
L 40.507103 59.75522 
L 41.627484 55.334243 
L 42.401178 52.282023 
L 43.174872 49.229802 
L 43.948566 46.177582 
L 44.72226 43.125361 
L 45.981562 38.157485 
L 47.240863 33.189608 
L 48.161264 29.559167 
L 49.081665 25.928726 
L 50.002066 22.298285 
L 50.922467 18.667845 
L 51.169164 17.692098 
L 51.410123 16.742853 
L 51.916631 14.744378 
" clip-path="url(#p7f8d0eebdb)" style="fill: none; stroke: #808080; stroke-width: 0.4; stroke-linecap: square"/>
   </g>
   <g id="line2d_4">
    <path d="M 52.978001 14.157726 
L 54.404705 13.511444 
L 55.831408 12.865162 
L 57.258111 12.218881 
L 58.684814 11.572599 
L 60.128934 10.918487 
L 61.007536 11.322639 
L 61.886137 11.726791 
L 62.171867 12.507991 
L 62.457597 13.28919 
L 62.743327 14.07039 
L 63.029057 14.85159 
L 63.314787 15.63279 
L 63.600517 16.41399 
L 63.886247 17.19519 
L 64.171977 17.976389 
L 64.37708 19.502349 
L 64.582182 21.028309 
L 64.787285 22.554268 
L 64.992388 24.080228 
L 65.03849 25.097836 
L 65.084592 26.115443 
L 65.130694 27.133051 
L 65.176796 28.150659 
L 65.222898 29.168266 
L 65.269 30.185874 
L 65.315102 31.203481 
L 65.361204 32.221089 
L 64.849164 33.202257 
L 64.337124 34.183424 
L 63.825085 35.164592 
L 63.313045 36.14576 
L 62.607377 37.019113 
L 62.081815 37.66931 
L 61.556252 38.319507 
L 61.030689 38.969704 
L 60.505126 39.6199 
L 59.869533 40.405919 
L 59.23394 41.191937 
L 57.854364 41.705409 
L 56.474787 42.218881 
L 55.09521 42.732352 
L 53.715633 43.245824 
L 52.807936 43.292804 
L 51.900239 43.339785 
L 50.992542 43.386765 
L 50.084845 43.433746 
L 49.177147 43.480726 
L 48.26945 43.527706 
L 47.361753 43.574687 
L 46.454056 43.621667 
L 45.979923 45.056376 
L 45.505789 46.491086 
L 45.066949 47.818809 
L 44.628109 49.146533 
L 44.18927 50.474256 
L 43.75043 51.80198 
L 43.31159 53.129703 
L 42.87275 54.457427 
L 42.43391 55.78515 
L 41.99507 57.112873 
L 41.556231 58.440597 
L 41.117391 59.76832 
L 40.678551 61.096044 
L 40.239711 62.423767 
L 39.800871 63.751491 
L 39.362032 65.079214 
L 38.923192 66.406938 
L 38.484352 67.734661 
" clip-path="url(#p7f8d0eebdb)" style="fill: none; stroke: #4169e1; stroke-width: 0.4; stroke-linecap: square"/>
   </g>
   <g id="line2d_5">
    <path d="M 58.684814 11.572599 
L 59.011319 12.386625 
L 59.337824 13.20065 
L 59.664328 14.014676 
L 59.990833 14.828702 
L 60.317337 15.642728 
L 60.643842 16.456754 
L 60.970347 17.27078 
L 61.296851 18.084806 
L 61.431571 19.09383 
L 61.566292 20.102855 
L 61.701012 21.11188 
L 61.835732 22.120904 
L 61.970453 23.129929 
L 62.105173 24.138954 
L 62.239893 25.147978 
L 62.374614 26.157003 
L 62.74261 27.679048 
L 63.110606 29.201092 
L 63.478603 30.723137 
L 63.846599 32.245181 
L 63.536794 33.438664 
L 63.226988 34.632147 
L 62.917183 35.82563 
L 62.607377 37.019113 
" clip-path="url(#p7f8d0eebdb)" style="fill: none; stroke: #4169e1; stroke-width: 0.4; stroke-linecap: square"/>
   </g>
   <g id="line2d_6">
    <path d="M 58.193879 16.504337 
L 58.490571 17.686526 
L 58.787263 18.868716 
L 59.083955 20.050905 
L 59.380647 21.233095 
L 59.677339 22.415285 
L 59.974031 23.597474 
L 60.270723 24.779664 
L 60.567415 25.961854 
L 60.660848 27.300193 
L 60.754282 28.638532 
L 60.847715 29.976871 
L 60.941149 31.31521 
L 60.612902 32.417443 
L 60.284656 33.519676 
L 59.95641 34.621908 
L 59.628164 35.724141 
L 59.847404 36.698081 
L 60.066645 37.672021 
L 60.285886 38.64596 
L 60.505126 39.6199 
" clip-path="url(#p7f8d0eebdb)" style="fill: none; stroke-dasharray: 1.48,0.64; stroke-dashoffset: 0; stroke: #ff0000; stroke-width: 0.4"/>
   </g>
   <g id="line2d_7">
    <path d="M 54.634395 14.392628 
L 54.928218 15.643933 
L 55.222042 16.895238 
L 55.515865 18.146543 
L 55.809689 19.397848 
L 55.99758 20.19802 
L 56.185471 20.998193 
L 56.373362 21.798366 
L 56.561254 22.598538 
L 56.715337 23.561486 
L 56.86942 24.524434 
L 57.023503 25.487382 
L 57.177586 26.450329 
L 57.331669 27.413277 
L 57.485752 28.376225 
L 57.639836 29.339172 
L 57.793919 30.30212 
L 57.475303 31.169752 
L 57.156687 32.037384 
L 56.838071 32.905015 
L 56.519455 33.772647 
L 55.667694 34.722796 
L 54.815934 35.672944 
L 53.964174 36.623093 
L 53.112414 37.573241 
L 52.013957 37.961131 
L 50.9155 38.34902 
L 49.817043 38.73691 
L 48.718586 39.124799 
L 47.529769 40.101148 
L 46.340952 41.077498 
L 46.397504 42.349582 
L 46.454056 43.621667 
" clip-path="url(#p7f8d0eebdb)" style="fill: none; stroke: #000000; stroke-width: 0.4; stroke-linecap: square"/>
   </g>
   <g id="line2d_8">
    <path d="M 55.809689 19.397848 
L 54.988663 20.418166 
L 54.167638 21.438484 
L 53.346612 22.458802 
L 52.525587 23.47912 
L 51.352752 24.510882 
L 50.179917 25.542644 
L 48.898077 26.144957 
L 47.616236 26.74727 
L 47.137595 27.490524 
L 46.658954 28.233778 
L 46.180313 28.977032 
L 45.701671 29.720286 
L 45.411126 30.611107 
L 45.120581 31.501927 
L 44.830036 32.392748 
L 44.539491 33.283569 
L 44.528017 34.71105 
L 44.516543 36.138532 
L 44.29095 36.936295 
L 44.065358 37.734059 
L 43.839765 38.531822 
L 43.614173 39.329586 
L 43.310104 40.406521 
L 43.859026 41.927662 
L 44.407947 43.448803 
L 44.956868 44.969945 
L 45.505789 46.491086 
" clip-path="url(#p7f8d0eebdb)" style="fill: none; stroke: #000000; stroke-width: 0.4; stroke-linecap: square"/>
   </g>
   <g id="line2d_9">
    <path d="M 48.649741 13.628895 
L 47.755567 14.958802 
L 46.861393 16.288709 
L 46.421477 17.52074 
L 45.981562 18.752771 
L 45.541646 19.984802 
L 45.101731 21.216833 
L 44.654439 22.44796 
L 44.207147 23.679088 
L 43.759855 24.910215 
L 43.312563 26.141343 
" clip-path="url(#p7f8d0eebdb)" style="fill: none; stroke-dasharray: 1.48,0.64; stroke-dashoffset: 0; stroke: #ff0000; stroke-width: 0.4"/>
   </g>
   <g id="line2d_10">
    <path d="M 44.568996 12.461613 
L 44.17047 13.559629 
L 43.771944 14.657645 
L 43.373418 15.755662 
L 42.974892 16.853678 
L 42.505266 18.115222 
L 42.03564 19.376767 
L 41.566015 20.638311 
L 41.096389 21.899855 
L 41.251701 23.051779 
L 41.407014 24.203702 
L 41.562326 25.355626 
L 41.717639 26.507549 
L 41.910653 27.894977 
L 42.103666 29.282404 
L 42.29668 30.669832 
L 42.489694 32.05726 
L 42.630254 32.966301 
L 42.770813 33.875341 
L 42.911373 34.784382 
L 43.051933 35.693423 
L 43.192493 36.602463 
L 43.333053 37.511504 
L 43.473613 38.420545 
L 43.614173 39.329586 
" clip-path="url(#p7f8d0eebdb)" style="fill: none; stroke: #000000; stroke-width: 0.4; stroke-linecap: square"/>
   </g>
   <g id="line2d_11">
    <path d="M 34.965028 4.618294 
L 35.288561 6.137026 
L 35.612095 7.655758 
L 35.935628 9.17449 
L 36.259162 10.693222 
L 36.668138 12.170093 
L 37.077114 13.646964 
L 37.48609 15.123836 
L 37.895066 16.600707 
L 37.886665 17.45313 
L 37.878264 18.305553 
L 37.869863 19.157977 
L 37.861463 20.0104 
L 37.853062 20.862823 
L 37.844661 21.715247 
L 37.83626 22.56767 
L 37.827859 23.420093 
L 37.316025 24.574727 
L 36.80419 25.729361 
L 36.292355 26.883995 
L 35.780521 28.038628 
L 35.41068 29.210127 
L 35.04084 30.381625 
L 34.670999 31.553124 
L 34.301159 32.724623 
L 34.026801 34.26835 
L 33.752443 35.812078 
L 33.478084 37.355806 
L 33.203726 38.899534 
L 32.995345 40.252931 
L 32.786964 41.606328 
L 32.578583 42.959725 
L 32.370202 44.313122 
L 32.049332 45.726751 
L 31.728462 47.140379 
L 31.407592 48.554007 
L 31.086722 49.967636 
L 31.069204 50.870503 
L 31.051685 51.77337 
L 31.034166 52.676237 
L 31.016647 53.579104 
L 30.999129 54.481971 
L 30.98161 55.384838 
L 30.964091 56.287705 
L 30.946572 57.190572 
L 31.03181 57.857934 
L 31.176468 58.984862 
L 31.321125 60.111789 
L 31.321125 60.965869 
L 31.321125 61.819949 
L 31.321125 62.674028 
L 31.321125 63.528108 
" clip-path="url(#p7f8d0eebdb)" style="fill: none; stroke: #4169e1; stroke-width: 0.4; stroke-linecap: square"/>
   </g>
   <g id="line2d_12">
    <path d="M 31.706333 3.299229 
L 30.726922 3.801558 
L 29.747511 4.303887 
L 28.768099 4.806216 
L 27.788688 5.308545 
L 26.719941 5.448583 
L 25.651194 5.58862 
L 24.582447 5.728658 
L 23.5137 5.868696 
L 23.468623 7.074827 
L 23.423545 8.280959 
L 23.378468 9.48709 
L 23.33339 10.693222 
L 23.283395 12.015901 
L 23.360437 13.320511 
L 23.437478 14.62512 
L 23.51452 15.92973 
L 23.591562 17.23434 
L 23.659793 18.39319 
L 23.728024 19.55204 
L 23.796255 20.71089 
L 23.864485 21.86974 
L 23.950952 23.339383 
L 24.037419 24.809027 
L 24.371403 26.162123 
L 24.705386 27.515218 
L 25.039369 28.868314 
L 25.373353 30.22141 
L 25.508585 31.308284 
L 25.643818 32.395157 
L 25.77905 33.482031 
L 25.914283 34.568905 
L 26.049515 35.655778 
L 26.184748 36.742652 
L 26.31998 37.829525 
L 26.455213 38.916399 
L 26.557662 39.737351 
L 26.660111 40.558304 
L 26.963052 41.688996 
L 27.265994 42.819688 
L 27.568935 43.950379 
L 27.871876 45.081071 
L 28.174818 46.211763 
L 28.477759 47.342455 
L 28.7807 48.473147 
L 29.083642 49.603839 
L 29.338535 50.555493 
L 29.593427 51.507147 
L 29.773225 52.300996 
L 29.953023 53.094844 
L 30.132821 53.888693 
L 30.312619 54.682541 
L 30.492416 55.476389 
L 30.672214 56.270238 
L 30.852012 57.064086 
L 31.03181 57.857934 
L 31.104139 59.275478 
L 31.176468 60.693021 
L 31.248797 62.110565 
L 31.321125 63.528108 
" clip-path="url(#p7f8d0eebdb)" style="fill: none; stroke: #000000; stroke-width: 0.4; stroke-linecap: square"/>
   </g>
   <g id="line2d_13">
    <path d="M 32.321846 30.683987 
L 32.013168 31.506746 
L 31.704489 32.329505 
L 31.395811 33.152265 
L 31.087132 33.975024 
L 30.778454 34.797783 
L 30.469775 35.620543 
L 30.161097 36.443302 
L 29.852418 37.266062 
L 29.574577 38.719443 
L 29.296735 40.172824 
L 29.018894 41.626205 
L 28.741053 43.079586 
L 28.783876 43.895117 
L 28.8267 44.710649 
L 28.869524 45.526181 
L 28.912347 46.341712 
L 28.955171 47.157244 
L 28.997994 47.972775 
L 29.040818 48.788307 
L 29.083642 49.603839 
" clip-path="url(#p7f8d0eebdb)" style="fill: none; stroke: #4169e1; stroke-width: 0.4; stroke-linecap: square"/>
   </g>
   <g id="line2d_14">
    <path d="M 30.373678 5.809669 
L 29.966341 6.830288 
L 29.559005 7.850907 
L 29.151668 8.871527 
L 28.744331 9.892146 
L 28.086199 10.676056 
L 27.428068 11.459966 
L 26.769936 12.243876 
L 26.111804 13.027787 
L 25.481744 14.079425 
L 24.851683 15.131063 
L 24.221622 16.182702 
L 23.591562 17.23434 
" clip-path="url(#p7f8d0eebdb)" style="fill: none; stroke: #000000; stroke-width: 0.4; stroke-linecap: square"/>
   </g>
   <g id="line2d_15">
    <path d="M 24.037419 24.809027 
L 24.164609 25.926806 
L 24.2918 27.044586 
L 24.41899 28.162366 
L 24.54618 29.280146 
L 24.673371 30.397926 
L 24.800561 31.515705 
L 24.927751 32.633485 
L 25.054942 33.751265 
L 25.182132 34.869045 
L 25.309322 35.986824 
L 25.436512 37.104604 
L 25.563703 38.222384 
L 25.690893 39.340164 
L 25.818083 40.457944 
L 25.945274 41.575723 
L 26.072464 42.693503 
L 26.199654 43.811283 
L 26.326845 44.929063 
L 26.454035 46.046842 
L 26.581225 47.164622 
L 26.708415 48.282402 
L 26.835606 49.400182 
L 26.962796 50.517961 
L 27.089986 51.635741 
L 27.217177 52.753521 
L 27.344367 53.871301 
L 27.471557 54.989081 
L 27.598748 56.10686 
L 27.725938 57.22464 
L 27.853128 58.34242 
L 27.980318 59.4602 
L 28.107509 60.577979 
" clip-path="url(#p7f8d0eebdb)" style="fill: none; stroke: #008000; stroke-width: 0.4; stroke-linecap: square"/>
   </g>
   <g id="line2d_16">
    <path d="M 21.575367 48.953341 
L 21.74154 50.374197 
L 21.907712 51.795053 
L 22.073884 53.215909 
L 22.240056 54.636765 
L 22.406228 56.057621 
L 22.5724 57.478477 
L 22.738572 58.899333 
L 22.904744 60.32019 
" clip-path="url(#p7f8d0eebdb)" style="fill: none; stroke: #008000; stroke-width: 0.4; stroke-linecap: square"/>
   </g>
   <g id="line2d_17">
    <path d="M 21.422104 42.961532 
L 20.694512 43.665184 
L 19.96692 44.368836 
L 19.239328 45.072488 
L 18.511736 45.77614 
L 17.784144 46.479792 
L 17.056552 47.183444 
L 16.32896 47.887096 
L 15.601368 48.590748 
L 15.843762 49.407936 
L 16.086156 50.225124 
L 16.32855 51.042312 
L 16.570944 51.8595 
L 16.813338 52.676688 
L 17.055732 53.493876 
L 17.298126 54.311064 
L 17.54052 55.128252 
" clip-path="url(#p7f8d0eebdb)" style="fill: none; stroke: #008000; stroke-width: 0.4; stroke-linecap: square"/>
   </g>
   <g id="line2d_18">
    <path d="M 10.619893 8.758593 
L 11.265526 8.167573 
L 11.911159 7.576554 
L 12.556792 6.985534 
L 13.202425 6.394515 
L 13.848057 5.803495 
L 14.49369 5.212476 
L 15.139323 4.621456 
L 15.784956 4.030437 
L 16.72851 4.863285 
L 17.672065 5.696133 
L 18.615619 6.528981 
L 19.559173 7.361829 
L 20.502728 8.194678 
L 21.446282 9.027526 
L 22.389836 9.860374 
L 23.33339 10.693222 
" clip-path="url(#p7f8d0eebdb)" style="fill: none; stroke: #000000; stroke-width: 0.4; stroke-linecap: square"/>
   </g>
   <g id="line2d_19">
    <path d="M 11.914847 12.365243 
L 12.738536 13.157736 
L 13.562225 13.950229 
L 14.385914 14.742722 
L 15.209603 15.535215 
L 16.033292 16.327708 
L 16.856981 17.120202 
L 17.68067 17.912695 
L 18.50436 18.705188 
L 19.574131 18.908469 
L 20.643902 19.111749 
L 21.713673 19.31503 
L 22.783445 19.51831 
L 23.323965 20.694025 
L 23.864485 21.86974 
" clip-path="url(#p7f8d0eebdb)" style="fill: none; stroke: #ff0000; stroke-width: 0.4; stroke-linecap: square"/>
   </g>
   <g id="line2d_20">
    <path d="M 8.411095 11.518391 
L 7.947206 12.40364 
L 7.483318 13.288889 
L 7.019429 14.174139 
L 6.555541 15.059388 
L 6.091652 15.944637 
L 5.627763 16.829887 
L 5.163875 17.715136 
L 4.699986 18.600385 
L 4.530536 19.602032 
L 4.361085 20.603678 
L 4.191635 21.605324 
L 4.022184 22.606971 
L 3.852734 23.608617 
L 3.683283 24.610263 
L 3.513833 25.61191 
L 3.344383 26.613556 
L 3.31539 28.009115 
L 3.286396 29.404674 
L 3.257403 30.800233 
L 3.22841 32.195792 
L 3.199417 33.591351 
L 3.170424 34.98691 
L 3.141431 36.382469 
L 3.112438 37.778028 
L 3.203515 38.983105 
L 3.294592 40.188183 
L 3.385669 41.39326 
L 3.476747 42.598338 
L 3.567824 43.803415 
L 3.658901 45.008493 
L 3.749978 46.21357 
L 3.841055 47.418648 
L 4.489864 48.284171 
L 5.138672 49.149695 
L 5.787481 50.015218 
L 6.43629 50.880742 
L 7.085099 51.746266 
L 7.733908 52.611789 
L 8.382717 53.477313 
L 9.031525 54.342836 
L 9.93369 55.490092 
L 10.835855 56.637347 
L 11.73802 57.784603 
L 12.640185 58.931858 
L 13.54235 60.079114 
L 14.444515 61.226369 
L 15.34668 62.373625 
L 16.248845 63.52088 
L 16.159509 64.63275 
L 16.092303 65.473579 
L 16.025096 66.314407 
" clip-path="url(#p7f8d0eebdb)" style="fill: none; stroke: #000000; stroke-width: 0.4; stroke-linecap: square"/>
   </g>
   <g id="line2d_21">
    <path d="M 3.841055 47.418648 
L 4.022594 48.339584 
L 4.204134 49.26052 
L 4.385673 50.181457 
L 4.567213 51.102393 
L 5.035199 51.990504 
L 5.503186 52.878614 
L 5.971172 53.766724 
L 6.439159 54.654835 
L 6.925279 55.397637 
L 7.411399 56.140439 
L 7.897519 56.883242 
L 8.383639 57.626044 
L 8.869759 58.368846 
L 9.355879 59.111649 
L 9.841999 59.854451 
L 10.328119 60.597253 
L 10.9465 61.524815 
L 11.564882 62.452377 
L 12.183263 63.379939 
L 12.801645 64.307501 
" clip-path="url(#p7f8d0eebdb)" style="fill: none; stroke: #4169e1; stroke-width: 0.4; stroke-linecap: square"/>
   </g>
   <g id="line2d_22">
    <path d="M 4.699986 18.600385 
L 5.723502 19.556181 
L 6.747018 20.511976 
L 7.770533 21.467771 
L 8.794049 22.423566 
L 9.817564 23.379362 
L 10.84108 24.335157 
L 11.864596 25.290952 
L 12.888111 26.246748 
L 13.911627 27.202543 
L 14.935143 28.158338 
L 15.958658 29.114133 
L 16.982174 30.069929 
L 18.00569 31.025724 
L 19.029205 31.981519 
L 20.052721 32.937314 
L 21.076236 33.89311 
L 21.748609 34.521021 
L 22.420981 35.148932 
L 23.093353 35.776843 
L 23.765725 36.404754 
L 24.438097 37.032665 
L 25.110469 37.660577 
L 25.782841 38.288488 
L 26.455213 38.916399 
" clip-path="url(#p7f8d0eebdb)" style="fill: none; stroke: #000000; stroke-width: 0.4; stroke-linecap: square"/>
   </g>
   <g id="line2d_23">
    <path d="M 11.623072 13.674671 
L 12.320749 14.635661 
L 13.018426 15.596651 
L 13.716103 16.557641 
L 14.41378 17.518632 
L 15.331517 18.490765 
L 16.249255 19.462898 
L 17.166992 20.435031 
L 18.084729 21.407164 
L 18.307248 22.512709 
L 18.529767 23.618254 
L 18.752286 24.723799 
L 18.974805 25.829345 
L 19.115775 27.107754 
L 19.256744 28.386163 
L 19.397714 29.664572 
L 19.538684 30.942981 
L 19.923072 31.680513 
L 20.30746 32.418045 
L 20.691848 33.155577 
L 21.076236 33.89311 
" clip-path="url(#p7f8d0eebdb)" style="fill: none; stroke: #4169e1; stroke-width: 0.4; stroke-linecap: square"/>
   </g>
   <g id="line2d_24">
    <path d="M 4.699986 18.600385 
L 5.180267 19.533519 
L 5.660547 20.466652 
L 6.140827 21.399785 
L 6.621108 22.332918 
L 7.101388 23.266052 
L 7.581669 24.199185 
L 8.061949 25.132318 
L 8.542229 26.065451 
L 9.095863 27.045565 
L 9.649497 28.025679 
L 10.203131 29.005792 
L 10.756765 29.985906 
L 11.310398 30.96602 
L 11.864032 31.946133 
L 12.417666 32.926247 
L 12.9713 33.90636 
L 13.344829 35.31246 
L 13.718357 36.718559 
L 14.091886 38.124659 
L 14.465414 39.530758 
L 14.450457 40.654222 
L 14.435499 41.777686 
L 14.420542 42.90115 
L 14.405584 44.024615 
L 14.390627 45.148079 
L 14.375669 46.271543 
L 14.360712 47.395007 
L 14.345754 48.518471 
L 14.767126 49.532615 
L 15.188499 50.54676 
L 15.609871 51.560904 
L 16.031243 52.575048 
L 16.452616 53.589192 
L 16.873988 54.603337 
L 17.29536 55.617481 
L 17.716732 56.631625 
L 17.859136 57.497149 
L 18.00154 58.362673 
L 18.143944 59.228196 
L 18.286348 60.09372 
L 18.428752 60.959243 
L 18.571156 61.824767 
L 18.71356 62.690291 
L 18.855964 63.555814 
L 17.507737 64.094282 
L 16.159509 64.63275 
" clip-path="url(#p7f8d0eebdb)" style="fill: none; stroke: #000000; stroke-width: 0.4; stroke-linecap: square"/>
   </g>
   <g id="line2d_25">
    <path d="M 4.699986 18.600385 
L 4.808889 20.036299 
L 4.917793 21.472213 
L 5.026696 22.908127 
L 5.135599 24.344041 
L 5.244502 25.779955 
L 5.353405 27.215869 
L 5.462308 28.651783 
L 5.571212 30.087697 
L 6.173816 31.392608 
L 6.77642 32.697518 
L 7.379025 34.002429 
L 7.981629 35.30734 
L 8.536697 36.170756 
L 9.091765 37.034171 
L 9.646833 37.897587 
L 10.201901 38.761002 
L 10.297486 39.573823 
L 10.393071 40.386645 
L 10.488656 41.199466 
L 10.584241 42.012287 
L 10.679826 42.825108 
L 10.77541 43.63793 
L 10.870995 44.450751 
L 10.96658 45.263572 
L 11.088494 46.575108 
L 11.210408 47.886645 
L 11.332323 49.198181 
L 11.454237 50.509717 
L 12.215022 51.087034 
L 12.975808 51.664351 
L 13.736593 52.241668 
L 14.497379 52.818985 
L 15.258164 53.396302 
L 16.018949 53.973619 
L 16.779735 54.550936 
L 17.54052 55.128252 
" clip-path="url(#p7f8d0eebdb)" style="fill: none; stroke: #000000; stroke-width: 0.4; stroke-linecap: square"/>
   </g>
  </g>
 </g>
 <defs>
  <clipPath id="p7f8d0eebdb">
   <rect x="0" y="0" width="68.473642" height="72"/>
  </clipPath>
 </defs>
</svg>
