<?xml version="1.0" encoding="utf-8" standalone="no"?>
<!DOCTYPE svg PUBLIC "-//W3C//DTD SVG 1.1//EN"
  "http://www.w3.org/Graphics/SVG/1.1/DTD/svg11.dtd">
<svg height="72pt" version="1.1" viewBox="0 0 52.610436 72" width="52.610436pt" xmlns="http://www.w3.org/2000/svg" xmlns:xlink="http://www.w3.org/1999/xlink">
 <metadata>
  <rdf:RDF xmlns:cc="http://creativecommons.org/ns#" xmlns:dc="http://purl.org/dc/elements/1.1/" xmlns:rdf="http://www.w3.org/1999/02/22-rdf-syntax-ns#">
   <cc:Work>
    <dc:type rdf:resource="http://purl.org/dc/dcmitype/StillImage"/>
    <dc:date>2022-04-19T00:47:21.979663</dc:date>
    <dc:format>image/svg+xml</dc:format>
    <dc:creator>
     <cc:Agent>
      <dc:title>Matplotlib v3.4.3, https://matplotlib.org/</dc:title>
     </cc:Agent>
    </dc:creator>
   </cc:Work>
  </rdf:RDF>
 </metadata>
 <defs>
  <style type="text/css">*{stroke-linecap:butt;stroke-linejoin:round;}</style>
 </defs>
 <g id="figure_1">
  <g id="patch_1">
   <path d="M 0 72 
L 52.610436 72 
L 52.610436 0 
L 0 0 
z
" style="fill:#ffffff;"/>
  </g>
  <g id="axes_1">
   <g id="patch_2">
    <path clip-path="url(#p081f23146e)" d="M 6.004343 8.03055 
L 6.004343 8.03055 
L 6.176632 8.001073 
L 6.34892 7.971596 
L 6.521209 7.94212 
L 6.693497 7.912643 
L 6.865786 7.883166 
L 7.038075 7.85369 
L 7.210363 7.824213 
L 7.382652 7.794736 
L 7.55494 7.76526 
L 7.727229 7.735783 
L 7.899518 7.706306 
L 8.071806 7.67683 
L 8.244095 7.647353 
L 8.416383 7.617876 
L 8.588672 7.5884 
L 8.760961 7.558923 
L 8.875804 7.341613 
L 8.990647 7.124304 
L 9.10549 6.906994 
L 9.220333 6.689684 
L 9.335177 6.472375 
L 9.45002 6.255065 
L 9.564863 6.037755 
L 9.679706 5.820445 
L 9.484147 5.78164 
L 9.288588 5.742835 
L 9.093028 5.70403 
L 8.897469 5.665224 
L 8.70191 5.626419 
L 8.506351 5.587614 
L 8.310791 5.548808 
L 8.115232 5.510003 
L 7.919673 5.471198 
L 7.724114 5.432392 
L 7.528554 5.393587 
L 7.332995 5.354782 
L 7.137436 5.315976 
L 6.941876 5.277171 
L 6.746317 5.238366 
L 6.550758 5.199561 
L 6.476249 5.367199 
L 6.40174 5.534838 
L 6.327231 5.702477 
L 6.252722 5.870116 
L 6.178213 6.037755 
L 6.103704 6.205394 
L 6.029195 6.373033 
L 5.954686 6.540672 
z
" style="fill:#ff0000;opacity:0.1;"/>
   </g>
   <g id="patch_3">
    <path clip-path="url(#p081f23146e)" d="M 6.004343 8.03055 
L 6.004343 8.03055 
L 6.176632 8.001073 
L 6.34892 7.971596 
L 6.521209 7.94212 
L 6.693497 7.912643 
L 6.865786 7.883166 
L 7.038075 7.85369 
L 7.210363 7.824213 
L 7.382652 7.794736 
L 7.55494 7.76526 
L 7.727229 7.735783 
L 7.899518 7.706306 
L 8.071806 7.67683 
L 8.244095 7.647353 
L 8.416383 7.617876 
L 8.588672 7.5884 
L 8.760961 7.558923 
L 8.875804 7.341613 
L 8.990647 7.124304 
L 9.10549 6.906994 
L 9.220333 6.689684 
L 9.335177 6.472375 
L 9.45002 6.255065 
L 9.564863 6.037755 
L 9.679706 5.820445 
L 9.484147 5.78164 
L 9.288588 5.742835 
L 9.093028 5.70403 
L 8.897469 5.665224 
L 8.70191 5.626419 
L 8.506351 5.587614 
L 8.310791 5.548808 
L 8.115232 5.510003 
L 7.919673 5.471198 
L 7.724114 5.432392 
L 7.528554 5.393587 
L 7.332995 5.354782 
L 7.137436 5.315976 
L 6.941876 5.277171 
L 6.746317 5.238366 
L 6.550758 5.199561 
L 6.476249 5.367199 
L 6.40174 5.534838 
L 6.327231 5.702477 
L 6.252722 5.870116 
L 6.178213 6.037755 
L 6.103704 6.205394 
L 6.029195 6.373033 
L 5.954686 6.540672 
z
" style="fill:none;stroke:#ff0000;stroke-dasharray:1.48,0.64;stroke-dashoffset:0;stroke-linejoin:miter;stroke-width:0.4;"/>
   </g>
   <g id="patch_4">
    <path clip-path="url(#p081f23146e)" d="M 6.759849 15.587887 
L 6.759849 15.587887 
L 6.437032 15.575469 
L 6.114216 15.563051 
L 5.791399 15.550634 
L 5.468582 15.538216 
L 5.468582 15.252732 
L 5.468582 14.967248 
L 5.353715 14.756147 
L 5.238848 14.545046 
L 5.123981 14.333945 
L 5.009114 14.122844 
L 4.894247 13.911744 
L 4.77938 13.700643 
L 4.664513 13.489542 
L 4.549646 13.278441 
L 4.673788 13.154325 
L 4.79793 13.03021 
L 4.922072 12.906094 
L 5.046214 12.781979 
L 5.331883 12.794397 
L 5.617553 12.806814 
L 5.915493 12.67022 
L 6.213434 12.533625 
L 6.436985 12.608131 
L 6.660535 12.682637 
L 6.908915 12.583296 
L 7.157294 12.483954 
L 7.210066 12.71986 
L 7.262838 12.955765 
L 7.31561 13.191671 
L 7.368383 13.427576 
L 7.421155 13.663482 
L 7.473927 13.899387 
L 7.526699 14.135293 
L 7.579471 14.371198 
z
" style="fill:#ff0000;opacity:0.1;"/>
   </g>
   <g id="patch_5">
    <path clip-path="url(#p081f23146e)" d="M 6.759849 15.587887 
L 6.759849 15.587887 
L 6.437032 15.575469 
L 6.114216 15.563051 
L 5.791399 15.550634 
L 5.468582 15.538216 
L 5.468582 15.252732 
L 5.468582 14.967248 
L 5.353715 14.756147 
L 5.238848 14.545046 
L 5.123981 14.333945 
L 5.009114 14.122844 
L 4.894247 13.911744 
L 4.77938 13.700643 
L 4.664513 13.489542 
L 4.549646 13.278441 
L 4.673788 13.154325 
L 4.79793 13.03021 
L 4.922072 12.906094 
L 5.046214 12.781979 
L 5.331883 12.794397 
L 5.617553 12.806814 
L 5.915493 12.67022 
L 6.213434 12.533625 
L 6.436985 12.608131 
L 6.660535 12.682637 
L 6.908915 12.583296 
L 7.157294 12.483954 
L 7.210066 12.71986 
L 7.262838 12.955765 
L 7.31561 13.191671 
L 7.368383 13.427576 
L 7.421155 13.663482 
L 7.473927 13.899387 
L 7.526699 14.135293 
L 7.579471 14.371198 
z
" style="fill:none;stroke:#ff0000;stroke-dasharray:1.48,0.64;stroke-dashoffset:0;stroke-linejoin:miter;stroke-width:0.4;"/>
   </g>
   <g id="line2d_1">
    <path clip-path="url(#p081f23146e)" d="M 2.391383 23.697996 
L 2.719955 23.536443 
L 3.449206 23.178174 
L 4.166376 22.825929 
L 4.883545 22.473685 
L 5.636103 22.103981 
L 6.38866 21.734278 
L 7.068349 21.400476 
L 7.748038 21.066673 
L 8.316 20.787644 
L 8.883961 20.508615 
L 9.451922 20.229585 
L 10.019884 19.950556 
L 10.639024 19.646445 
L 11.258164 19.342335 
L 11.877305 19.038224 
L 12.496445 18.734113 
L 13.242058 18.36773 
L 14.12142 17.935938 
L 14.324424 17.836105 
L 15.251636 17.380584 
L 16.178848 16.925064 
L 17.064679 16.489953 
L 17.950511 16.054841 
L 18.852133 15.611862 
L 19.753756 15.168882 
L 20.602202 14.75209 
L 21.450648 14.335298 
L 22.238498 13.948259 
L 22.965371 13.591219 
L 23.692243 13.23418 
L 23.86081 13.151313 
L 24.828452 12.676244 
" style="fill:none;stroke:#808080;stroke-linecap:square;stroke-width:0.4;"/>
   </g>
   <g id="line2d_2">
    <path clip-path="url(#p081f23146e)" d="M 28.725273 43.953351 
L 28.670099 43.298164 
L 28.614924 42.642977 
L 28.558514 41.968855 
L 28.502103 41.294734 
L 28.426666 40.392054 
L 28.35123 39.489373 
L 28.296817 38.838981 
L 28.242403 38.188588 
L 28.18799 37.538196 
L 28.133577 36.887804 
L 28.047581 35.859471 
L 27.961586 34.831138 
L 27.902036 34.118596 
L 27.842485 33.406054 
L 27.782935 32.693511 
L 27.723385 31.980969 
L 27.649185 31.094395 
L 27.574986 30.20782 
L 27.486992 29.155635 
L 27.398999 28.103451 
L 27.330697 27.285727 
L 27.262395 26.468003 
L 27.212929 25.876134 
L 27.151857 25.145949 
L 27.090784 24.415763 
L 27.024861 23.62767 
L 26.958937 22.839576 
L 26.860575 21.781244 
L 26.782665 20.944095 
L 26.704755 20.106945 
L 26.687632 19.922032 
L 26.614193 19.115988 
" style="fill:none;stroke:#808080;stroke-linecap:square;stroke-width:0.4;"/>
   </g>
   <g id="line2d_3">
    <path clip-path="url(#p081f23146e)" d="M 29.424653 42.914199 
L 29.508937 42.33696 
L 29.59322 41.759722 
L 29.713177 40.939047 
L 29.833133 40.118372 
L 29.93863 39.396056 
L 30.044127 38.673739 
L 30.167888 37.826631 
L 30.29165 36.979523 
L 30.399525 36.241223 
L 30.5074 35.502923 
L 30.615275 34.764623 
L 30.72315 34.026324 
L 30.822559 33.345563 
L 30.921967 32.664803 
L 31.053339 31.765934 
L 31.184711 30.867065 
L 31.266521 30.306916 
L 31.348331 29.746767 
L 31.444695 29.087154 
L 31.54106 28.42754 
L 31.649744 27.683278 
L 31.758427 26.939015 
L 31.867111 26.194752 
L 31.975795 25.45049 
L 32.094562 24.637499 
L 32.213329 23.824509 
L 32.332097 23.011518 
L 32.450864 22.198528 
L 32.543233 21.566578 
L 32.635602 20.934628 
L 32.737199 20.239237 
L 32.838796 19.543846 
L 32.937538 18.872552 
" style="fill:none;stroke:#808080;stroke-linecap:square;stroke-width:0.4;"/>
   </g>
   <g id="line2d_4">
    <path clip-path="url(#p081f23146e)" d="M 5.944412 67.001582 
L 6.394748 66.082672 
L 6.647122 65.568874 
L 6.899497 65.055077 
L 7.158625 64.527632 
L 7.417754 64.000187 
L 7.75698 63.309714 
L 8.096206 62.619241 
L 8.394528 62.01188 
L 8.692849 61.404519 
L 9.150224 60.473807 
L 9.306044 60.156356 
L 9.488119 59.78653 
" style="fill:none;stroke:#808080;stroke-linecap:square;stroke-width:0.4;"/>
   </g>
   <g id="line2d_5">
    <path clip-path="url(#p081f23146e)" d="M 8.132736 68.225893 
L 8.672111 67.556198 
L 9.211487 66.886503 
L 9.816025 66.137261 
L 10.420563 65.388019 
L 10.919794 64.769101 
L 11.599008 63.92691 
L 12.278221 63.08472 
L 12.954771 62.246095 
L 13.631321 61.40747 
L 14.186678 60.718964 
L 14.732142 60.042753 
L 15.277606 59.366542 
L 15.752104 58.778238 
L 16.226602 58.189934 
L 16.59684 57.731217 
L 16.967078 57.2725 
" style="fill:none;stroke:#808080;stroke-linecap:square;stroke-width:0.4;"/>
   </g>
   <g id="line2d_6">
    <path clip-path="url(#p081f23146e)" d="M 12.301433 41.838162 
L 11.870883 41.073429 
L 11.570945 40.538607 
L 11.271007 40.003785 
L 10.817151 39.194791 
L 10.363296 38.385796 
L 9.894505 37.549876 
L 9.425715 36.713956 
L 8.939325 35.846684 
L 8.452936 34.979413 
L 7.931064 34.049069 
L 7.409192 33.118725 
L 6.990059 32.370959 
L 6.875144 32.166374 
L 6.649501 31.763844 
L 6.438697 31.388362 
L 6.06142 30.715348 
L 5.774609 30.204009 
L 5.487798 29.69267 
L 5.128024 29.05113 
L 4.972395 28.771302 
" style="fill:none;stroke:#808080;stroke-linecap:square;stroke-width:0.4;"/>
   </g>
   <g id="line2d_7">
    <path clip-path="url(#p081f23146e)" d="M 38.592324 36.042417 
L 39.060163 35.1449 
L 39.405763 34.483443 
L 39.751363 33.821985 
L 40.077652 33.197535 
L 40.403941 32.573084 
L 40.906502 31.611266 
L 41.409063 30.649448 
L 41.777208 29.944958 
L 42.145353 29.240469 
L 42.513498 28.53598 
L 42.881643 27.831491 
L 43.146099 27.325377 
L 43.410555 26.819264 
L 43.67501 26.313151 
L 43.939466 25.807037 
L 44.265755 25.182587 
L 44.592044 24.558137 
L 45.088612 23.607752 
L 45.58518 22.657368 
L 45.847352 22.155619 
L 46.109525 21.653871 
L 46.371697 21.152122 
L 46.63387 20.650373 
L 46.96092 20.02457 
L 47.28797 19.398768 
" style="fill:none;stroke:#808080;stroke-linecap:square;stroke-width:0.4;"/>
   </g>
   <g id="line2d_8">
    <path clip-path="url(#p081f23146e)" d="M 15.353327 67.682465 
L 14.374984 67.943667 
L 13.396641 68.204869 
L 12.418297 68.466071 
L 11.439954 68.727273 
" style="fill:none;stroke:#808080;stroke-linecap:square;stroke-width:0.4;"/>
   </g>
   <g id="line2d_9">
    <path clip-path="url(#p081f23146e)" d="M 11.418835 68.615882 
L 12.398606 68.354496 
L 13.378376 68.09311 
L 14.358146 67.831723 
L 15.337917 67.570337 
" style="fill:none;stroke:#808080;stroke-linecap:square;stroke-width:0.4;"/>
   </g>
   <g id="line2d_10">
    <path clip-path="url(#p081f23146e)" d="M 28.110556 48.762565 
L 28.226041 48.247415 
" style="fill:none;stroke:#808080;stroke-linecap:square;stroke-width:0.4;"/>
   </g>
   <g id="line2d_11">
    <path clip-path="url(#p081f23146e)" d="M 27.906221 46.901632 
L 27.643002 46.240974 
L 27.379783 45.580315 
L 27.116564 44.919657 
L 26.853345 44.258998 
" style="fill:none;stroke:#808080;stroke-linecap:square;stroke-width:0.4;"/>
   </g>
   <g id="line2d_12">
    <path clip-path="url(#p081f23146e)" d="M 30.573609 44.557761 
L 31.090724 44.332275 
L 31.430712 44.184492 
L 32.051422 43.914745 
L 32.672131 43.644999 
L 33.292841 43.375252 
L 33.913551 43.105505 
L 34.699974 42.763711 
L 35.486397 42.421917 
L 36.467927 41.995289 
L 37.457448 41.565219 
L 38.446969 41.135148 
L 39.439153 40.704586 
" style="fill:none;stroke:#808080;stroke-linecap:square;stroke-width:0.4;"/>
   </g>
   <g id="line2d_13">
    <path clip-path="url(#p081f23146e)" d="M 38.069311 33.453634 
L 37.881813 33.605106 
L 37.694316 33.756577 
L 37.546345 33.914749 
L 37.398373 34.072921 
L 37.250402 34.231093 
L 37.10243 34.389265 
L 36.932056 34.578542 
L 36.761682 34.76782 
L 36.591308 34.957098 
L 36.420934 35.146375 
L 36.275768 35.307683 
L 36.152292 35.501632 
L 36.028816 35.695582 
L 35.90534 35.889532 
L 35.781864 36.083481 
L 35.632703 36.317819 
" style="fill:none;stroke:#008000;stroke-linecap:square;stroke-width:0.4;"/>
   </g>
   <g id="line2d_14">
    <path clip-path="url(#p081f23146e)" d="M 18.598712 36.960835 
L 18.486438 37.226125 
L 18.374163 37.491415 
L 18.261888 37.756705 
L 18.149613 38.021995 
L 18.037339 38.287285 
L 17.925064 38.552575 
L 17.812789 38.817865 
L 17.700514 39.083155 
L 17.557632 39.343373 
L 17.41475 39.603591 
L 17.271868 39.86381 
L 17.128986 40.124028 
L 16.99633 40.246484 
L 16.863674 40.368939 
L 16.731018 40.491395 
L 16.598362 40.613851 
L 16.353408 40.777064 
L 16.108453 40.940277 
L 15.863499 41.103489 
L 15.618544 41.266702 
L 15.424626 41.246293 
L 15.230707 41.225884 
L 15.036789 41.205474 
L 14.842871 41.185065 
L 14.567285 41.093346 
L 14.291699 41.001627 
L 14.026293 41.103428 
L 13.898726 41.230986 
L 13.771159 41.358544 
L 13.643593 41.486102 
L 13.516026 41.61366 
L 13.291524 41.695297 
L 13.067022 41.776934 
L 12.875625 41.792241 
L 12.684227 41.807548 
L 12.49283 41.822855 
L 12.301433 41.838162 
" style="fill:none;stroke:#008000;stroke-linecap:square;stroke-width:0.4;"/>
   </g>
   <g id="line2d_15">
    <path clip-path="url(#p081f23146e)" d="M 26.539042 39.675024 
L 26.329808 39.759212 
L 26.120574 39.8434 
L 25.911341 39.927589 
L 25.702107 40.011777 
L 25.492873 40.095965 
L 25.283639 40.180154 
L 25.074405 40.264342 
L 24.865171 40.34853 
L 24.712086 40.440341 
L 24.559002 40.532152 
L 24.405917 40.623963 
L 24.252832 40.715774 
L 24.099748 40.807585 
L 23.946663 40.899396 
L 23.793578 40.991208 
L 23.640494 41.083019 
L 23.40831 41.113633 
L 23.176127 41.144246 
L 22.943943 41.17486 
L 22.71176 41.205474 
L 22.479576 41.236088 
L 22.247392 41.266702 
L 22.015209 41.297316 
L 21.783025 41.32793 
L 21.622283 41.274386 
L 21.461541 41.220843 
L 21.300798 41.167299 
L 21.140056 41.113755 
L 20.979313 41.060212 
L 20.818571 41.006668 
L 20.657828 40.953125 
L 20.497086 40.899581 
L 20.196006 40.777125 
L 19.894926 40.654669 
L 19.593846 40.532214 
L 19.292766 40.409758 
" style="fill:none;stroke:#ff0000;stroke-linecap:square;stroke-width:0.4;"/>
   </g>
   <g id="line2d_16">
    <path clip-path="url(#p081f23146e)" d="M 27.580123 35.573003 
L 27.324942 35.542389 
L 27.069761 35.511775 
L 26.81458 35.481162 
L 26.5594 35.450548 
L 26.25832 35.460752 
L 25.95724 35.470957 
L 25.65616 35.481162 
L 25.35508 35.491366 
L 25.08972 35.65464 
L 24.824361 35.817915 
L 24.559002 35.981189 
L 24.293642 36.144463 
" style="fill:none;stroke:#ff0000;stroke-linecap:square;stroke-width:0.4;"/>
   </g>
   <g id="line2d_17">
    <path clip-path="url(#p081f23146e)" d="M 10.209188 30.184952 
L 10.123716 30.341848 
L 10.038244 30.498745 
L 9.952771 30.655641 
L 9.867299 30.812538 
L 9.781826 30.969434 
L 9.696354 31.12633 
L 9.610881 31.283227 
L 9.525409 31.440123 
L 9.439936 31.597019 
L 9.354464 31.753916 
L 9.268991 31.910812 
L 9.183519 32.067709 
L 9.098046 32.224605 
L 9.012574 32.381501 
L 8.927102 32.538398 
L 8.841629 32.695294 
L 8.777846 32.876426 
L 8.714063 33.057559 
L 8.650279 33.238691 
L 8.586496 33.419824 
L 8.522713 33.600956 
L 8.458929 33.782089 
L 8.395146 33.963221 
L 8.331363 34.144353 
" style="fill:none;stroke:#ff0000;stroke-linecap:square;stroke-width:0.4;"/>
   </g>
   <g id="line2d_18">
    <path clip-path="url(#p081f23146e)" d="M 12.311706 30.348226 
L 12.204545 30.55487 
L 12.097383 30.761514 
L 11.990221 30.968158 
L 11.88306 31.174802 
L 11.775898 31.381446 
L 11.668737 31.58809 
L 11.561575 31.794734 
L 11.454413 32.001378 
L 11.334481 32.248841 
L 11.214548 32.496304 
L 11.094616 32.743766 
L 10.974683 32.991229 
L 10.854751 33.238691 
L 10.734818 33.486154 
L 10.614885 33.733616 
L 10.494953 33.981079 
L 10.413309 34.174967 
L 10.331666 34.368855 
L 10.250022 34.562744 
L 10.168379 34.756632 
L 10.086735 34.95052 
L 10.005091 35.144408 
L 9.923448 35.338297 
L 9.841804 35.532185 
L 9.821399 35.823017 
L 9.800994 36.113849 
L 9.78059 36.404682 
L 9.760185 36.695514 
" style="fill:none;stroke:#ff0000;stroke-linecap:square;stroke-width:0.4;"/>
   </g>
   <g id="line2d_19">
    <path clip-path="url(#p081f23146e)" d="M 13.046475 30.715593 
L 13.015867 30.900553 
L 12.98526 31.085512 
L 12.954652 31.270471 
L 12.924045 31.45543 
L 12.893438 31.640389 
L 12.86283 31.825348 
L 12.832223 32.010307 
L 12.801615 32.195267 
L 12.771008 32.380226 
L 12.7404 32.565185 
L 12.709793 32.750144 
L 12.679186 32.935103 
L 12.648578 33.120062 
L 12.617971 33.305021 
L 12.587363 33.489981 
L 12.556756 33.67494 
L 12.510809 33.891788 
L 12.464862 34.108637 
L 12.418916 34.325486 
L 12.372969 34.542334 
L 12.327022 34.759183 
L 12.281075 34.976032 
L 12.235128 35.19288 
L 12.189182 35.409729 
L 12.156029 35.624027 
L 12.122877 35.838324 
L 12.089725 36.052622 
L 12.056573 36.266919 
L 12.023421 36.481217 
L 11.990269 36.695514 
L 11.957117 36.909812 
L 11.923965 37.124109 
L 11.923965 37.338376 
L 11.923965 37.552643 
L 11.923965 37.766909 
L 11.923965 37.981176 
L 11.923965 38.195443 
L 11.923965 38.40971 
L 11.923965 38.623976 
L 11.923965 38.838243 
L 11.990269 39.098461 
L 12.056573 39.35868 
L 12.122877 39.618898 
L 12.189182 39.879117 
" style="fill:none;stroke:#ff0000;stroke-linecap:square;stroke-width:0.4;"/>
   </g>
   <g id="line2d_20">
    <path clip-path="url(#p081f23146e)" d="M 14.21008 29.817585 
L 14.22794 30.088008 
L 14.2458 30.358431 
L 14.263661 30.628854 
L 14.281521 30.899277 
L 14.299381 31.1697 
L 14.317241 31.440123 
L 14.335102 31.710546 
L 14.352962 31.980969 
L 14.40143 32.248841 
L 14.449897 32.516713 
L 14.498365 32.784585 
L 14.546833 33.052457 
L 14.5953 33.320328 
L 14.643768 33.5882 
L 14.692236 33.856072 
L 14.740703 34.123944 
L 14.766221 34.345895 
L 14.79174 34.567846 
L 14.817258 34.789797 
L 14.842776 35.011748 
L 14.868294 35.233699 
L 14.893812 35.45565 
L 14.91933 35.677601 
L 14.944848 35.899552 
L 14.965277 36.090858 
L 14.985705 36.282165 
L 15.006134 36.473471 
L 15.026563 36.664777 
L 15.046992 36.856083 
L 15.06742 37.04739 
L 15.087849 37.238696 
L 15.108278 37.430002 
L 15.128683 37.6443 
L 15.149088 37.858597 
L 15.169493 38.072895 
L 15.189898 38.287192 
L 15.210303 38.50149 
L 15.230707 38.715787 
L 15.251112 38.930085 
L 15.271517 39.144382 
L 15.279175 39.333168 
L 15.286833 39.521954 
L 15.294491 39.71074 
L 15.302149 39.899526 
L 15.309806 40.088312 
L 15.317464 40.277098 
L 15.325122 40.465884 
L 15.33278 40.654669 
" style="fill:none;stroke:#ff0000;stroke-linecap:square;stroke-width:0.4;"/>
   </g>
   <g id="line2d_21">
    <path clip-path="url(#p081f23146e)" d="M 16.414575 28.81753 
L 16.469428 28.98208 
L 16.524281 29.14663 
L 16.579134 29.311179 
L 16.633987 29.475729 
L 16.688841 29.640279 
L 16.743694 29.804829 
L 16.798547 29.969379 
L 16.8534 30.133929 
L 16.908253 30.298479 
L 16.963106 30.463028 
L 17.017959 30.627578 
L 17.072813 30.792128 
L 17.127666 30.956678 
L 17.182519 31.121228 
L 17.237372 31.285778 
L 17.292225 31.450328 
L 17.358577 31.669727 
L 17.424929 31.889127 
L 17.49128 32.108527 
L 17.557632 32.327927 
" style="fill:none;stroke:#ff0000;stroke-linecap:square;stroke-width:0.4;"/>
   </g>
   <g id="line2d_22">
    <path clip-path="url(#p081f23146e)" d="M 20.007177 25.225496 
L 19.937008 25.393872 
L 19.866839 25.562249 
L 19.796671 25.730625 
L 19.726502 25.899002 
L 19.656333 26.067379 
L 19.586164 26.235755 
L 19.515996 26.404132 
L 19.445827 26.572508 
L 19.375658 26.740885 
L 19.305489 26.909262 
L 19.235321 27.077638 
L 19.165152 27.246015 
L 19.094983 27.414391 
L 19.024814 27.582768 
L 18.954646 27.751145 
L 18.884477 27.919521 
L 18.825783 28.174637 
L 18.767089 28.429753 
L 18.708395 28.684869 
L 18.649701 28.939986 
L 18.591007 29.195102 
L 18.532313 29.450218 
L 18.473619 29.705334 
L 18.414925 29.96045 
L 18.384318 30.182401 
L 18.35371 30.404352 
L 18.323103 30.626303 
L 18.292496 30.848254 
L 18.261888 31.070205 
L 18.231281 31.292156 
L 18.200673 31.514107 
L 18.170066 31.736058 
L 18.124143 32.02689 
L 18.07822 32.317722 
L 18.032297 32.608555 
L 17.986374 32.899387 
L 17.940451 33.190219 
L 17.894528 33.481052 
L 17.848605 33.771884 
L 17.802682 34.062716 
L 17.802682 34.320383 
L 17.802682 34.578051 
L 17.802682 34.835718 
L 17.802682 35.093385 
L 17.802682 35.351052 
L 17.802682 35.60872 
L 17.802682 35.866387 
L 17.802682 36.124054 
" style="fill:none;stroke:#ff0000;stroke-linecap:square;stroke-width:0.4;"/>
   </g>
   <g id="line2d_23">
    <path clip-path="url(#p081f23146e)" d="M 20.456181 26.899057 
L 20.394942 27.110803 
L 20.333704 27.32255 
L 20.272465 27.534296 
L 20.211226 27.746042 
L 20.149988 27.957789 
L 20.088749 28.169535 
L 20.02751 28.381281 
L 19.966272 28.593028 
L 19.943322 28.789467 
L 19.920373 28.985906 
L 19.897423 29.182346 
L 19.874473 29.378785 
L 19.851524 29.575225 
L 19.828574 29.771664 
L 19.805625 29.968103 
L 19.782675 30.164543 
L 19.782675 30.485989 
L 19.782675 30.807435 
L 19.782675 31.128881 
L 19.782675 31.450328 
L 19.790333 31.67483 
L 19.797991 31.899332 
L 19.805648 32.123834 
L 19.813306 32.348336 
L 19.820964 32.572838 
L 19.828622 32.797341 
L 19.83628 33.021843 
L 19.843937 33.246345 
L 19.828622 33.562689 
L 19.813306 33.879033 
L 19.797991 34.195377 
L 19.782675 34.51172 
" style="fill:none;stroke:#ffd700;stroke-linecap:square;stroke-width:0.4;"/>
   </g>
   <g id="line2d_24">
    <path clip-path="url(#p081f23146e)" d="M 21.191139 26.368416 
L 21.129901 26.608225 
L 21.068662 26.848034 
L 21.007423 27.087843 
L 20.946185 27.327652 
L 20.884946 27.567461 
L 20.823708 27.80727 
L 20.762469 28.047079 
L 20.70123 28.286888 
L 20.703775 28.455265 
L 20.70632 28.623642 
L 20.708864 28.792018 
L 20.711409 28.960395 
L 20.713954 29.128771 
L 20.716498 29.297148 
L 20.719043 29.465525 
L 20.721588 29.633901 
L 20.708817 29.881364 
L 20.696046 30.128826 
L 20.683275 30.376289 
L 20.670504 30.623752 
L 20.657733 30.871214 
L 20.644962 31.118677 
L 20.632191 31.366139 
L 20.61942 31.613602 
L 20.593926 31.855962 
L 20.568432 32.098322 
L 20.542937 32.340683 
L 20.517443 32.583043 
L 20.491949 32.825403 
L 20.466455 33.067764 
L 20.44096 33.310124 
L 20.415466 33.552484 
" style="fill:none;stroke:#ff0000;stroke-linecap:square;stroke-width:0.4;"/>
   </g>
   <g id="line2d_25">
    <path clip-path="url(#p081f23146e)" d="M 21.783025 25.184677 
L 21.78557 25.419384 
L 21.788115 25.654091 
L 21.790659 25.888797 
L 21.793204 26.123504 
L 21.795749 26.358211 
L 21.798293 26.592918 
L 21.800838 26.827625 
L 21.803383 27.062331 
L 21.805927 27.297038 
L 21.808472 27.531745 
L 21.811017 27.766452 
L 21.813561 28.001158 
L 21.816106 28.235865 
L 21.818651 28.470572 
L 21.821195 28.705279 
L 21.82374 28.939986 
L 21.859484 29.251227 
L 21.895229 29.562469 
L 21.930973 29.87371 
L 21.966717 30.184952 
L 22.002462 30.496194 
L 22.038206 30.807435 
L 22.07395 31.118677 
L 22.109695 31.429918 
L 22.028027 31.746262 
L 21.94636 32.062606 
L 21.864693 32.37895 
L 21.783025 32.695294 
L 21.665638 32.945308 
L 21.54825 33.195322 
L 21.430862 33.445335 
L 21.313474 33.695349 
L 21.168047 33.856072 
L 21.02262 34.016795 
L 20.877193 34.177518 
L 20.731766 34.338242 
L 20.58634 34.498965 
L 20.440913 34.659688 
L 20.295486 34.820411 
L 20.150059 34.981134 
" style="fill:none;stroke:#ff0000;stroke-linecap:square;stroke-width:0.4;"/>
   </g>
   <g id="line2d_26">
    <path clip-path="url(#p081f23146e)" d="M 23.048608 24.858128 
L 23.051152 25.057119 
L 23.053697 25.25611 
L 23.056242 25.4551 
L 23.058786 25.654091 
L 23.061331 25.853081 
L 23.063876 26.052072 
L 23.06642 26.251062 
L 23.068965 26.450053 
L 23.051105 26.756192 
L 23.033244 27.062331 
L 23.015384 27.368471 
L 22.997524 27.67461 
L 22.979664 27.980749 
L 22.961803 28.286888 
L 22.943943 28.593028 
L 22.926083 28.899167 
L 22.910767 29.128771 
L 22.895452 29.358376 
L 22.880136 29.58798 
L 22.86482 29.817585 
L 22.849505 30.047189 
L 22.834189 30.276794 
L 22.818874 30.506398 
L 22.803558 30.736003 
L 22.788266 30.970709 
L 22.772974 31.205416 
L 22.757683 31.440123 
L 22.742391 31.67483 
L 22.727099 31.909537 
L 22.711807 32.144243 
L 22.696515 32.37895 
L 22.681223 32.613657 
L 22.630187 32.792238 
L 22.579151 32.970819 
L 22.528115 33.149401 
L 22.477079 33.327982 
L 22.426043 33.506563 
L 22.375007 33.685144 
L 22.32397 33.863726 
L 22.272934 34.042307 
" style="fill:none;stroke:#ff0000;stroke-linecap:square;stroke-width:0.4;"/>
   </g>
   <g id="line2d_27">
    <path clip-path="url(#p081f23146e)" d="M 27.253453 32.307518 
L 27.110571 32.447831 
L 26.967689 32.588145 
L 26.824807 32.728459 
L 26.681924 32.868773 
L 26.539042 33.009087 
L 26.39616 33.149401 
L 26.253278 33.289715 
L 26.110396 33.430028 
L 25.9624 33.583098 
L 25.814405 33.736168 
L 25.66641 33.889237 
L 25.518415 34.042307 
L 25.370419 34.195377 
L 25.222424 34.348446 
L 25.074429 34.501516 
L 24.926433 34.654585 
L 24.829498 34.802553 
L 24.732563 34.95052 
L 24.635627 35.098487 
L 24.538692 35.246455 
" style="fill:none;stroke:#ff0000;stroke-linecap:square;stroke-width:0.4;"/>
   </g>
   <g id="line2d_28">
    <path clip-path="url(#p081f23146e)" d="M 26.39616 27.592973 
L 26.365553 27.85064 
L 26.334945 28.108307 
L 26.304338 28.365974 
L 26.27373 28.623642 
L 26.243123 28.881309 
L 26.212516 29.138976 
L 26.181908 29.396643 
L 26.151301 29.654311 
L 26.090062 29.863506 
L 26.028824 30.072701 
L 25.967585 30.281896 
L 25.906346 30.491091 
L 25.845108 30.700286 
L 25.783869 30.909482 
L 25.72263 31.118677 
L 25.661392 31.327872 
L 25.503194 31.572783 
L 25.344996 31.817695 
L 25.186799 32.062606 
L 25.028601 32.307518 
L 24.941844 32.516713 
L 24.855087 32.725908 
L 24.768331 32.935103 
L 24.681574 33.144298 
L 24.594817 33.353494 
L 24.508061 33.562689 
L 24.421304 33.771884 
L 24.334547 33.981079 
L 24.278422 34.231093 
L 24.222296 34.481107 
L 24.166171 34.73112 
L 24.110045 34.981134 
L 24.05392 35.231148 
L 23.997794 35.481162 
L 23.941669 35.731175 
L 23.885543 35.981189 
L 23.796242 36.154637 
L 23.706941 36.328085 
L 23.617639 36.501534 
L 23.528338 36.674982 
L 23.439037 36.84843 
L 23.349735 37.021878 
L 23.260434 37.195326 
L 23.171132 37.368775 
" style="fill:none;stroke:#ff0000;stroke-linecap:square;stroke-width:0.4;"/>
   </g>
   <g id="line2d_29">
    <path clip-path="url(#p081f23146e)" d="M 25.069316 25.184677 
L 25.074429 25.368361 
L 25.079542 25.552044 
L 25.084655 25.735728 
L 25.089768 25.919411 
L 25.094881 26.103095 
L 25.099994 26.286778 
L 25.105107 26.470462 
L 25.110221 26.654146 
L 25.09236 26.832727 
L 25.0745 27.011308 
L 25.05664 27.189889 
L 25.038779 27.368471 
L 25.020919 27.547052 
L 25.003059 27.725633 
L 24.985199 27.904214 
L 24.967338 28.082796 
L 24.946933 28.28944 
L 24.926528 28.496084 
L 24.906124 28.702728 
L 24.885719 28.909372 
L 24.865314 29.116016 
L 24.844909 29.32266 
L 24.824504 29.529304 
L 24.804099 29.735948 
L 24.753063 29.924734 
L 24.702026 30.113519 
L 24.65099 30.302305 
L 24.599954 30.491091 
L 24.548918 30.679877 
L 24.497882 30.868663 
L 24.446846 31.057449 
L 24.39581 31.246235 
L 24.332026 31.429918 
L 24.268243 31.613602 
L 24.20446 31.797286 
L 24.140676 31.980969 
L 24.076893 32.164653 
L 24.01311 32.348336 
L 23.949327 32.53202 
L 23.885543 32.715703 
L 23.770724 32.924899 
L 23.655904 33.134094 
L 23.541085 33.343289 
L 23.426266 33.552484 
L 23.311446 33.761679 
L 23.196627 33.970874 
L 23.081807 34.18007 
L 22.966988 34.389265 
L 22.798588 34.59846 
L 22.630187 34.807655 
L 22.461787 35.01685 
L 22.293387 35.226045 
L 22.124987 35.435241 
L 21.956586 35.644436 
L 21.788186 35.853631 
L 21.619786 36.062826 
L 21.492172 36.210793 
L 21.364558 36.358761 
L 21.236943 36.506728 
L 21.109329 36.654695 
L 20.943497 36.792427 
L 20.777666 36.930159 
L 20.611834 37.067891 
L 20.446002 37.205623 
L 20.28017 37.343355 
L 20.114339 37.481087 
L 19.948507 37.618819 
L 19.782675 37.756551 
" style="fill:none;stroke:#ff0000;stroke-linecap:square;stroke-width:0.4;"/>
   </g>
   <g id="line2d_30">
    <path clip-path="url(#p081f23146e)" d="M 48.961841 22.342623 
L 49.023104 22.500856 
L 49.084366 22.659089 
L 49.089503 22.960065 
L 49.066482 23.225386 
L 49.043461 23.490706 
L 49.058777 23.725413 
L 49.074092 23.96012 
L 49.056303 24.235645 
L 49.038514 24.511171 
L 48.988762 24.680838 
L 48.939011 24.850506 
L 48.889259 25.020173 
L 48.839507 25.189841 
L 48.753987 25.34162 
L 48.668467 25.493398 
L 48.582947 25.645177 
L 48.497427 25.796956 
L 48.369955 26.077768 
L 48.165811 26.251247 
L 47.961666 26.424726 
L 47.90554 26.679719 
L 48.022928 26.858238 
L 48.155537 27.10315 
L 48.109685 27.302325 
L 47.997434 27.47064 
L 47.885183 27.638955 
L 47.770364 27.763993 
L 47.655544 27.88903 
L 47.550903 28.161974 
L 47.446263 28.434917 
L 47.4016 28.599482 
L 47.356938 28.764048 
L 47.312275 28.928613 
L 47.267612 29.093178 
L 47.178382 29.236043 
L 47.089152 29.378908 
L 46.84924 29.531855 
L 46.568612 29.633901 
L 46.287985 29.735948 
L 46.009831 29.878813 
L 45.731677 30.021678 
L 45.479397 30.111429 
" style="fill:none;stroke:#4169e1;stroke-linecap:square;stroke-width:0.4;"/>
   </g>
   <g id="line2d_31">
    <path clip-path="url(#p081f23146e)" d="M 48.49248 21.551824 
L 48.602162 21.727885 
L 48.711845 21.903946 
L 48.836843 22.123284 
L 48.961841 22.342623 
L 48.880221 22.562207 
L 48.803643 22.738145 
L 48.727065 22.914083 
L 48.691392 23.141167 
L 48.655719 23.368251 
L 48.66333 23.620785 
L 48.67094 23.873319 
L 48.645446 24.189786 
L 48.665898 24.381092 
L 48.686351 24.572398 
L 48.538332 24.858128 
L 48.461754 25.039353 
L 48.385176 25.220578 
L 48.313735 25.442498 
L 48.242293 25.664418 
L 48.160674 25.883757 
L 48.079054 26.103095 
L 47.918288 26.279156 
L 47.757521 26.455217 
L 47.665723 26.656727 
L 47.573924 26.858238 
L 47.379863 27.123559 
L 47.175814 27.36343 
L 46.971765 27.6033 
L 46.869692 27.741063 
L 46.76762 27.878826 
L 46.665548 28.016588 
L 46.563475 28.154351 
L 46.47415 28.32783 
L 46.384825 28.501309 
L 46.2955 28.674788 
L 46.206175 28.848267 
L 46.047977 29.062564 
L 45.889779 29.276862 
L 45.746897 29.526814 
L 45.604015 29.776766 
L 45.541706 29.944098 
L 45.479397 30.111429 
L 45.379513 30.378963 
L 45.251946 30.669734 
L 45.12438 30.960505 
L 44.915193 31.139148 
L 44.706007 31.31779 
L 44.501862 31.409632 
L 44.297718 31.501474 
L 44.09871 31.557599 
L 43.899703 31.613725 
L 43.700695 31.66985 
L 43.501687 31.725976 
" style="fill:none;stroke:#4169e1;stroke-linecap:square;stroke-width:0.4;"/>
   </g>
   <g id="line2d_32">
    <path clip-path="url(#p081f23146e)" d="M 39.733289 32.302846 
L 39.582035 32.407351 
L 39.430782 32.511856 
L 39.279528 32.616362 
L 39.128275 32.720867 
L 38.863534 32.904059 
L 38.598793 33.087251 
L 38.334052 33.270442 
L 38.069311 33.453634 
" style="fill:none;stroke:#008000;stroke-linecap:square;stroke-width:0.4;"/>
   </g>
   <g id="line2d_33">
    <path clip-path="url(#p081f23146e)" d="M 42.133938 29.822749 
L 42.218173 29.969425 
L 42.302409 30.116101 
L 42.386645 30.262778 
L 42.470881 30.409454 
L 42.562727 30.667152 
L 42.654573 30.92485 
L 42.746419 31.182548 
L 42.838265 31.440246 
L 42.868325 31.633212 
L 42.898386 31.826178 
L 42.928446 32.019144 
L 42.958507 32.21211 
" style="fill:none;stroke:#008000;stroke-linecap:square;stroke-width:0.4;"/>
   </g>
   <g id="line2d_34">
    <path clip-path="url(#p081f23146e)" d="M 39.733289 32.302846 
L 39.867134 32.539888 
L 40.000979 32.776931 
L 40.069851 33.01422 
L 40.138724 33.251509 
L 40.207597 33.488797 
L 40.276469 33.726086 
L 40.295162 33.915425 
L 40.313855 34.104764 
L 40.332547 34.294103 
L 40.35124 34.483443 
" style="fill:none;stroke:#4169e1;stroke-linecap:square;stroke-width:0.4;"/>
   </g>
   <g id="line2d_35">
    <path clip-path="url(#p081f23146e)" d="M 40.051967 31.858513 
L 39.892628 32.08068 
L 39.733289 32.302846 
L 39.590977 32.480074 
L 39.448666 32.657303 
L 39.306354 32.834532 
L 39.164043 33.011761 
L 39.021161 33.210751 
L 38.878279 33.409742 
L 38.735397 33.608733 
L 38.592514 33.807723 
L 38.536389 34.014336 
L 38.480263 34.22095 
L 38.424138 34.427563 
L 38.368012 34.634176 
L 38.324634 34.919906 
L 38.281256 35.205636 
L 38.237877 35.491366 
L 38.194499 35.777096 
L 38.179183 36.083235 
L 38.163868 36.389375 
L 38.2511 36.535928 
L 38.338332 36.682482 
" style="fill:none;stroke:#008000;stroke-linecap:square;stroke-width:0.4;"/>
   </g>
   <g id="line2d_36">
    <path clip-path="url(#p081f23146e)" d="M 44.302855 27.776656 
L 44.148462 27.971835 
L 43.99407 28.167015 
L 43.839677 28.362194 
L 43.685284 28.557373 
L 43.522045 28.784457 
L 43.358805 29.011541 
L 43.182723 29.172233 
L 43.006641 29.332926 
L 42.802497 29.473209 
L 42.598352 29.613492 
L 42.366145 29.71812 
L 42.133938 29.822749 
L 41.986014 29.917172 
L 41.83809 30.011596 
L 41.679797 30.271753 
L 41.54462 30.519246 
L 41.409443 30.76674 
L 41.138899 30.950423 
L 40.891376 31.047306 
L 40.643853 31.144188 
L 40.472909 31.266644 
L 40.301964 31.3891 
L 40.187144 31.511556 
L 40.072325 31.634011 
L 40.051967 31.858513 
" style="fill:none;stroke:#008000;stroke-linecap:square;stroke-width:0.4;"/>
   </g>
   <g id="line2d_37">
    <path clip-path="url(#p081f23146e)" d="M 48.420373 21.418549 
L 48.49248 21.551824 
L 48.515406 21.837554 
L 48.538332 22.123284 
L 48.482206 22.44221 
L 48.426081 22.761136 
L 48.359729 22.977954 
L 48.293377 23.194772 
L 48.227025 23.41159 
L 48.160674 23.628408 
L 48.043286 23.87086 
L 47.925898 24.113313 
L 47.832768 24.282335 
L 47.739637 24.451357 
L 47.646507 24.620379 
L 47.553377 24.789401 
L 47.460247 24.958423 
L 47.367116 25.127445 
L 47.273986 25.296467 
L 47.180856 25.465489 
L 47.07631 25.725646 
L 46.971765 25.985803 
L 46.885008 26.159282 
L 46.798251 26.332761 
L 46.678295 26.50624 
L 46.558338 26.679719 
L 46.287985 26.81742 
L 46.114471 26.888852 
L 45.940958 26.960285 
L 45.675741 27.075978 
L 45.410525 27.191672 
L 45.253516 27.260154 
L 45.096507 27.328636 
L 44.939499 27.397117 
L 44.78249 27.465599 
L 44.542672 27.621128 
L 44.302855 27.776656 
" style="fill:none;stroke:#008000;stroke-linecap:square;stroke-width:0.4;"/>
   </g>
   <g id="line2d_38">
    <path clip-path="url(#p081f23146e)" d="M 45.719881 26.026867 
L 45.560827 26.188789 
L 45.401773 26.350711 
L 45.242719 26.512633 
L 45.083665 26.674555 
L 44.963709 26.820002 
L 44.843752 26.965449 
L 44.723796 27.110896 
L 44.60384 27.256342 
L 44.453347 27.516499 
L 44.302855 27.776656 
" style="fill:none;stroke:#008000;stroke-linecap:square;stroke-width:0.4;"/>
   </g>
   <g id="line2d_39">
    <path clip-path="url(#p081f23146e)" d="M 35.645831 20.443575 
L 35.877563 20.561851 
L 36.071529 20.648652 
L 36.265494 20.735453 
L 36.50027 20.715044 
L 36.809008 20.641029 
L 37.117746 20.567015 
L 37.426484 20.493 
L 37.735221 20.418986 
L 37.903598 20.301694 
L 38.071974 20.184402 
L 38.181704 20.059365 
L 38.291434 19.934327 
L 38.401164 19.809289 
L 38.510895 19.684252 
" style="fill:none;stroke:#008000;stroke-linecap:square;stroke-width:0.4;"/>
   </g>
   <g id="line2d_40">
    <path clip-path="url(#p081f23146e)" d="M 35.632703 36.317819 
L 35.498739 36.461945 
L 35.364776 36.60607 
L 35.230812 36.750195 
L 35.096848 36.89432 
L 34.962884 37.038445 
L 34.82892 37.182571 
L 34.694956 37.326696 
L 34.560992 37.470821 
L 34.34919 37.712167 
L 34.137387 37.953513 
L 33.925585 38.194859 
L 33.713782 38.436205 
L 33.596442 38.56991 
L 33.479102 38.703616 
L 33.361761 38.837321 
L 33.244421 38.971026 
L 33.109197 39.198049 
L 32.973972 39.425072 
L 32.838748 39.652094 
L 32.703524 39.879117 
" style="fill:none;stroke:#008000;stroke-linecap:square;stroke-width:0.4;"/>
   </g>
   <g id="line2d_41">
    <path clip-path="url(#p081f23146e)" d="M 26.853345 44.258998 
L 26.9167 44.123756 
L 27.197328 44.159657 
L 27.381115 44.394241 
L 27.478074 44.618097 
L 27.575033 44.841954 
L 27.671992 45.065811 
L 27.768952 45.289667 
L 27.865911 45.513524 
L 27.96287 45.737381 
L 28.059829 45.961237 
L 28.156788 46.185094 
L 28.187324 46.452874 
L 28.21786 46.720653 
L 28.095526 46.909501 
L 27.906221 46.901632 
" style="fill:none;stroke:#008000;stroke-linecap:square;stroke-width:0.4;"/>
   </g>
   <g id="line2d_42">
    <path clip-path="url(#p081f23146e)" d="M 28.784442 30.042087 
L 28.725748 30.253864 
L 28.667055 30.465641 
L 28.608361 30.677418 
L 28.549667 30.889195 
L 28.516515 31.093288 
L 28.483362 31.297381 
L 28.45021 31.501474 
L 28.417058 31.705567 
L 28.424716 31.922385 
L 28.432374 32.139203 
L 28.440032 32.35602 
L 28.447689 32.572838 
L 28.469355 32.757813 
L 28.49102 32.942787 
L 28.512686 33.127762 
L 28.534351 33.312736 
L 28.556016 33.497711 
L 28.577682 33.682685 
L 28.599347 33.86766 
L 28.621013 34.052635 
L 28.695022 34.210776 
L 28.769032 34.368917 
L 28.843041 34.527058 
L 28.917051 34.685199 
L 28.99106 34.843341 
L 29.06507 35.001482 
L 29.139079 35.159623 
L 29.213089 35.317764 
L 29.348313 35.606076 
L 29.483538 35.894388 
L 29.618762 36.1827 
L 29.753986 36.471012 
L 29.843288 36.703137 
L 29.932589 36.935262 
L 30.021891 37.167387 
L 30.111192 37.399511 
L 30.200493 37.631636 
L 30.289795 37.863761 
L 30.379096 38.095886 
L 30.468397 38.328011 
L 30.522002 38.636671 
L 30.575607 38.94533 
L 30.629211 39.25399 
L 30.682816 39.56265 
L 30.657274 39.853482 
L 30.631732 40.144314 
L 30.60619 40.435147 
L 30.580648 40.725979 
L 30.562812 40.973411 
L 30.544975 41.220843 
L 30.527139 41.468275 
L 30.509302 41.715706 
L 30.529707 41.945311 
L 30.550112 42.174915 
L 30.570517 42.40452 
L 30.590922 42.634124 
L 30.601767 42.780678 
" style="fill:none;stroke:#000000;stroke-linecap:square;stroke-width:0.4;"/>
   </g>
   <g id="line2d_43">
    <path clip-path="url(#p081f23146e)" d="M 28.018853 25.684827 
L 28.097952 25.947566 
L 28.17705 26.210305 
L 28.256149 26.473044 
L 28.335248 26.735783 
L 28.373537 26.980694 
L 28.411826 27.225606 
L 28.450115 27.470517 
L 28.488404 27.715428 
L 28.467999 27.996056 
L 28.447594 28.276684 
L 28.427189 28.557311 
L 28.406784 28.837939 
L 28.411921 29.139038 
L 28.417058 29.440136 
L 28.508904 29.590624 
L 28.60075 29.741111 
L 28.692596 29.891599 
L 28.784442 30.042087 
L 28.957956 30.261487 
L 29.131469 30.480887 
L 29.304983 30.700286 
L 29.478496 30.919686 
L 29.585658 31.162077 
L 29.692819 31.404468 
L 29.799981 31.646859 
L 29.907142 31.88925 
L 29.945384 32.180083 
L 29.983625 32.470915 
L 30.021867 32.761747 
L 30.060108 33.05258 
L 30.121371 33.307634 
L 30.182633 33.562689 
L 30.243895 33.817743 
L 30.305158 34.072798 
L 30.391914 34.259033 
L 30.478671 34.445267 
L 30.565428 34.631502 
L 30.652185 34.817737 
L 30.738941 35.003972 
L 30.825698 35.190206 
L 30.912455 35.376441 
L 30.999211 35.562676 
L 31.080855 35.759115 
L 31.162498 35.955554 
L 31.244142 36.151994 
L 31.325786 36.348433 
L 31.407429 36.544873 
L 31.489073 36.741312 
L 31.570716 36.937751 
L 31.65236 37.134191 
L 31.696999 37.315323 
L 31.741637 37.496456 
L 31.786276 37.677588 
L 31.830915 37.85872 
L 31.875554 38.039853 
L 31.920193 38.220985 
L 31.964831 38.402118 
L 32.00947 38.58325 
L 32.060506 38.830682 
L 32.111542 39.078114 
L 32.162579 39.325546 
L 32.213615 39.572977 
L 32.235304 39.661008 
" style="fill:none;stroke:#000000;stroke-linecap:square;stroke-width:0.4;"/>
   </g>
   <g id="line2d_44">
    <path clip-path="url(#p081f23146e)" d="M 28.141377 24.603135 
L 28.31998 24.840363 
L 28.498583 25.07759 
L 28.677186 25.314817 
L 28.855788 25.552044 
L 28.965518 25.728105 
L 29.075249 25.904166 
L 29.184979 26.080227 
L 29.294709 26.256287 
L 29.414617 26.411878 
L 29.534526 26.567468 
L 29.654435 26.723058 
L 29.774344 26.878648 
L 29.947857 27.082741 
L 30.121371 27.286833 
L 30.264253 27.547113 
L 30.407135 27.807393 
L 30.437766 28.077755 
L 30.468397 28.348116 
L 30.488802 28.5752 
L 30.509207 28.802284 
L 30.529612 29.029368 
L 30.550017 29.256452 
L 30.581909 29.423538 
L 30.6138 29.590624 
L 30.645692 29.757709 
L 30.677584 29.924795 
L 30.709475 30.091881 
L 30.741367 30.258966 
L 30.773259 30.426052 
L 30.80515 30.593138 
L 30.865128 30.787026 
L 30.925107 30.980914 
L 30.985085 31.174802 
L 31.045063 31.368691 
L 31.105041 31.562579 
L 31.165019 31.756467 
L 31.224997 31.950355 
L 31.284976 32.144243 
L 31.36788 32.308809 
L 31.450784 32.473374 
L 31.533688 32.637939 
L 31.616592 32.802504 
L 31.699496 32.96707 
L 31.7824 33.131635 
L 31.865304 33.2962 
L 31.948208 33.460765 
L 32.091137 33.726024 
L 32.234067 33.991284 
L 32.376997 34.256543 
L 32.519927 34.521802 
L 32.657672 34.812634 
L 32.795417 35.103467 
L 32.933162 35.394299 
L 33.070908 35.685131 
L 33.13217 35.953034 
L 33.193433 36.220937 
L 33.254695 36.488839 
L 33.315957 36.756742 
L 33.363997 36.968519 
L 33.412037 37.180296 
L 33.460076 37.392073 
L 33.508116 37.60385 
" style="fill:none;stroke:#000000;stroke-linecap:square;stroke-width:0.4;"/>
   </g>
   <g id="line2d_45">
    <path clip-path="url(#p081f23146e)" d="M 30.407135 27.807393 
L 30.590875 28.003802 
L 30.774614 28.20021 
L 30.958354 28.396619 
L 31.142093 28.593028 
L 31.254344 28.779293 
L 31.366595 28.965559 
L 31.478846 29.151824 
L 31.591097 29.33809 
L 31.716095 29.572796 
L 31.841094 29.807503 
L 31.966092 30.04221 
L 32.09109 30.276917 
L 32.190641 30.532033 
L 32.290193 30.787149 
L 32.389744 31.042265 
L 32.489295 31.297381 
L 32.614317 31.528246 
L 32.739339 31.75911 
L 32.864361 31.989975 
L 32.989383 32.22084 
L 33.114405 32.451704 
L 33.239427 32.682569 
L 33.364449 32.913434 
L 33.489471 33.144298 
L 33.566001 33.317777 
L 33.642532 33.491256 
L 33.719062 33.664735 
L 33.795592 33.838214 
L 33.872123 34.011693 
L 33.948653 34.185172 
L 34.025184 34.358651 
L 34.101714 34.53213 
L 34.170634 34.784664 
L 34.239555 35.037198 
L 34.308475 35.289732 
L 34.377395 35.542266 
L 34.408026 35.76935 
L 34.438657 35.996435 
L 34.469289 36.223519 
L 34.49992 36.450603 
L 34.516853 36.589533 
" style="fill:none;stroke:#000000;stroke-linecap:square;stroke-width:0.4;"/>
   </g>
   <g id="line2d_46">
    <path clip-path="url(#p081f23146e)" d="M 33.489471 23.174485 
L 33.534109 23.33776 
L 33.578748 23.501034 
L 33.623387 23.664308 
L 33.668026 23.827583 
L 33.712665 23.990857 
L 33.757303 24.154131 
L 33.801942 24.317405 
L 33.846581 24.48068 
L 33.88613 24.694977 
L 33.92568 24.909275 
L 33.965229 25.123572 
L 34.004779 25.33787 
L 34.044328 25.552167 
L 34.083878 25.766465 
L 34.123427 25.980762 
L 34.162977 26.19506 
L 34.221671 26.383846 
L 34.280364 26.572631 
L 34.339058 26.761417 
L 34.397752 26.950203 
L 34.502346 27.177226 
L 34.606939 27.404248 
L 34.711532 27.631271 
L 34.816125 27.858293 
L 34.902882 28.128716 
L 34.989638 28.39914 
L 35.076395 28.669563 
L 35.163152 28.939986 
L 35.249909 29.210409 
L 35.336665 29.480832 
L 35.423422 29.751255 
L 35.510179 30.021678 
L 35.609682 30.274273 
L 35.709186 30.526869 
L 35.80869 30.779465 
L 35.908194 31.03206 
L 36.012835 31.312688 
L 36.117475 31.593316 
L 36.222116 31.873943 
L 36.326757 32.154571 
L 36.421171 32.407105 
L 36.515586 32.659639 
L 36.61 32.912173 
L 36.704415 33.164708 
L 36.791172 33.394312 
L 36.877928 33.623917 
L 36.964685 33.853521 
L 37.051442 34.083125 
" style="fill:none;stroke:#ff0000;stroke-linecap:square;stroke-width:0.4;"/>
   </g>
   <g id="line2d_47">
    <path clip-path="url(#p081f23146e)" d="M 28.417058 24.205031 
L 28.556112 24.338983 
L 28.695165 24.472934 
L 28.834218 24.606885 
L 28.973271 24.740837 
L 29.112325 24.874788 
L 29.251378 25.008739 
L 29.390431 25.14269 
L 29.529484 25.276642 
L 29.676196 25.441176 
L 29.822907 25.605711 
L 29.969618 25.770245 
L 30.116329 25.93478 
L 30.26304 26.099314 
L 30.409751 26.263849 
L 30.556462 26.428383 
L 30.703173 26.592918 
L 30.82565 26.779183 
L 30.948128 26.965449 
L 31.070605 27.151714 
L 31.193082 27.33798 
L 31.301528 27.466798 
L 31.409974 27.595616 
L 31.51842 27.724434 
L 31.626865 27.853253 
L 31.735311 27.982071 
L 31.843757 28.110889 
L 31.952203 28.239707 
L 32.060649 28.368526 
L 32.190736 28.616019 
L 32.320824 28.863512 
L 32.450911 29.111006 
L 32.580999 29.358499 
L 32.769828 29.62382 
L 32.958657 29.88914 
L 33.147486 30.154461 
L 33.336315 30.419782 
L 33.474108 30.626395 
L 33.6119 30.833008 
L 33.749693 31.039622 
L 33.887486 31.246235 
L 33.980616 31.45543 
L 34.073747 31.664625 
L 34.166877 31.87382 
L 34.260007 32.083016 
L 34.353137 32.292211 
L 34.446268 32.501406 
L 34.539398 32.710601 
L 34.632528 32.919796 
L 34.77541 33.205526 
L 34.918292 33.491256 
L 35.061175 33.776986 
L 35.204057 34.062716 
L 35.283156 34.348446 
L 35.362255 34.634176 
L 35.441354 34.919906 
L 35.520452 35.205636 
L 35.586281 35.404565 
L 35.652109 35.603494 
" style="fill:none;stroke:#000000;stroke-linecap:square;stroke-width:0.4;"/>
   </g>
   <g id="line2d_48">
    <path clip-path="url(#p081f23146e)" d="M 31.917196 20.763485 
L 31.913914 21.074481 
L 31.910632 21.385476 
L 31.90735 21.696472 
L 31.904068 22.007468 
L 31.941454 22.254223 
L 31.978839 22.500979 
L 32.045238 22.654049 
L 32.111638 22.807118 
L 32.223888 23.092848 
L 32.336139 23.378578 
L 32.44839 23.664308 
L 32.560641 23.950038 
L 32.629562 24.207675 
L 32.698482 24.465311 
L 32.767402 24.722948 
L 32.836322 24.980584 
L 32.861817 25.202566 
L 32.887311 25.424548 
L 32.912805 25.646529 
L 32.938299 25.868511 
L 32.996993 26.098116 
L 33.055687 26.32772 
L 33.114381 26.557324 
L 33.173075 26.786929 
L 33.28661 26.980817 
L 33.400146 27.174705 
L 33.513681 27.368594 
L 33.627216 27.562482 
L 33.740751 27.75637 
L 33.854286 27.950258 
L 33.967822 28.144146 
L 34.081357 28.338035 
L 34.203834 28.506411 
L 34.326311 28.674788 
L 34.448788 28.843164 
L 34.571266 29.011541 
L 34.612076 29.192643 
L 34.652886 29.373744 
L 34.693695 29.554846 
L 34.734505 29.735948 
L 34.731984 29.919631 
L 34.729464 30.103315 
L 34.726943 30.286998 
L 34.724422 30.470682 
L 34.780547 30.713073 
L 34.836673 30.955464 
L 34.892798 31.197855 
L 34.948924 31.440246 
L 35.096895 31.687678 
L 35.244867 31.93511 
L 35.392838 32.182542 
L 35.54081 32.429973 
L 35.622477 32.580523 
L 35.704144 32.731072 
L 35.785812 32.881621 
L 35.867479 33.03217 
L 35.913402 33.20817 
L 35.959325 33.384169 
L 36.005248 33.560168 
L 36.051171 33.736168 
L 36.097094 33.912167 
L 36.143017 34.088166 
L 36.18894 34.264166 
L 36.234863 34.440165 
L 36.316483 34.746304 
L 36.338933 34.834581 
" style="fill:none;stroke:#4169e1;stroke-linecap:square;stroke-width:0.4;"/>
   </g>
   <g id="line2d_49">
    <path clip-path="url(#p081f23146e)" d="M 33.302449 20.548081 
L 33.356672 20.837499 
L 33.423024 21.000774 
L 33.489376 21.164048 
L 33.555727 21.327322 
L 33.622079 21.490596 
L 33.744556 21.755917 
L 33.867034 22.021238 
L 33.989511 22.286559 
L 34.111988 22.551879 
L 34.25996 22.763656 
L 34.407931 22.975433 
L 34.555903 23.18721 
L 34.703874 23.398988 
L 34.782973 23.62601 
L 34.862072 23.853033 
L 34.941171 24.080055 
L 35.02027 24.307078 
L 35.109595 24.449943 
L 35.19892 24.592808 
L 35.288245 24.735673 
L 35.37757 24.878538 
L 35.483352 25.026812 
" style="fill:none;stroke:#ff0000;stroke-linecap:square;stroke-width:0.4;"/>
   </g>
   <g id="line2d_50">
    <path clip-path="url(#p081f23146e)" d="M 33.305684 18.847471 
L 33.540459 18.885708 
L 33.775235 18.923944 
L 34.083925 18.89333 
L 34.392615 18.862716 
L 34.601849 18.835914 
L 34.811083 18.809111 
L 35.020317 18.782309 
L 35.229551 18.755506 
L 35.478311 18.775916 
L 35.72707 18.796325 
L 35.97583 18.816734 
L 36.224589 18.837143 
L 36.454228 18.907346 
L 36.683867 18.977549 
L 36.913506 19.047752 
L 37.143145 19.117955 
L 37.333258 19.147278 
L 37.523371 19.176601 
L 37.713485 19.205924 
L 37.903598 19.235247 
L 38.116114 19.26082 
L 38.315026 19.284058 
L 38.513939 19.307295 
" style="fill:none;stroke:#4169e1;stroke-linecap:square;stroke-width:0.4;"/>
   </g>
   <g id="line2d_51">
    <path clip-path="url(#p081f23146e)" d="M 38.027074 24.178721 
L 38.0871 24.339167 
L 38.147125 24.499614 
L 38.192121 24.704075 
L 38.237116 24.908537 
L 38.282112 25.112999 
L 38.327107 25.31746 
L 38.426611 25.592986 
L 38.526115 25.868511 
L 38.625619 26.144036 
L 38.725123 26.419562 
L 38.813164 26.652978 
L 38.901205 26.886393 
L 38.989245 27.119809 
L 39.077286 27.353225 
L 39.165327 27.586641 
L 39.253368 27.820057 
L 39.341409 28.053473 
L 39.42945 28.286888 
L 39.480486 28.547107 
L 39.531522 28.807325 
L 39.582558 29.067544 
L 39.633595 29.327762 
L 39.659089 29.51913 
L 39.684583 29.710498 
L 39.710077 29.901865 
L 39.735572 30.093233 
L 39.725346 30.343247 
L 39.715119 30.593261 
L 39.704893 30.843274 
L 39.694667 31.093288 
L 39.679827 31.256808 
" style="fill:none;stroke:#000000;stroke-linecap:square;stroke-width:0.4;"/>
   </g>
   <g id="line2d_52">
    <path clip-path="url(#p081f23146e)" d="M 26.107352 19.421636 
L 26.160576 19.635257 
L 26.2138 19.848878 
L 26.267024 20.0625 
L 26.320248 20.276121 
L 26.373472 20.489742 
L 26.426696 20.703364 
L 26.47992 20.916985 
L 26.533144 21.130606 
L 26.586368 21.344227 
L 26.639593 21.557849 
L 26.692817 21.77147 
L 26.746041 21.985091 
L 26.799265 22.198713 
L 26.852489 22.412334 
L 26.905713 22.625955 
L 26.958937 22.839576 
" style="fill:none;stroke:#4169e1;stroke-linecap:square;stroke-width:0.4;"/>
   </g>
   <g id="line2d_53">
    <path clip-path="url(#p081f23146e)" d="M 27.305583 23.113258 
L 27.471011 23.17301 
L 27.636438 23.232763 
L 27.820226 23.274073 
L 28.004013 23.315383 
L 28.233747 23.329153 
L 28.463481 23.342923 
L 28.667625 23.269155 
L 28.87177 23.195386 
L 29.107782 23.019326 
L 29.343795 22.843265 
L 29.477545 22.706301 
L 29.611295 22.569338 
L 29.745044 22.432374 
L 29.878794 22.295411 
L 29.995944 22.159923 
L 30.113094 22.024434 
L 30.230245 21.888946 
L 30.347395 21.753458 
L 30.465496 21.607888 
L 30.583597 21.462318 
L 30.701699 21.316749 
L 30.8198 21.171179 
L 31.022898 20.97016 
L 31.225996 20.76914 
L 31.358081 20.663774 
L 31.490167 20.558408 
L 31.622252 20.453042 
L 31.754337 20.347676 
L 31.938314 20.258908 
L 32.122292 20.17014 
L 32.346413 20.150715 
L 32.570535 20.131289 
L 32.787831 20.151483 
L 33.005127 20.171677 
L 33.222423 20.191871 
L 33.439719 20.212065 
L 33.657015 20.232259 
L 33.874311 20.252454 
L 34.091607 20.272648 
L 34.308903 20.292842 
L 34.625536 20.373557 
L 34.94217 20.454272 
L 35.258803 20.534987 
L 35.575436 20.615702 
L 35.73996 20.643611 
L 35.904484 20.67152 
L 36.069008 20.699429 
L 36.233531 20.727338 
L 36.398055 20.755247 
L 36.562579 20.783156 
L 36.727103 20.811066 
L 36.891627 20.838975 
" style="fill:none;stroke:#008000;stroke-linecap:square;stroke-width:0.4;"/>
   </g>
   <g id="line2d_54">
    <path clip-path="url(#p081f23146e)" d="M 38.534106 21.35142 
L 38.757181 21.492441 
L 38.980256 21.633461 
L 39.151201 21.758438 
L 39.322146 21.883414 
L 39.493091 22.00839 
L 39.664036 22.133366 
L 39.870749 22.296702 
L 40.077462 22.460037 
L 40.284175 22.623373 
L 40.490888 22.786709 
L 40.684758 23.016252 
L 40.878629 23.245795 
L 40.980701 23.495809 
L 41.082774 23.745822 
L 41.184846 23.995836 
L 41.286918 24.24585 
L 41.373675 24.506068 
L 41.460432 24.766287 
L 41.547188 25.026505 
L 41.633945 25.286723 
L 41.713044 25.484454 
L 41.792143 25.682184 
L 41.871242 25.879914 
L 41.950341 26.077645 
L 42.02944 26.275375 
L 42.108538 26.473105 
L 42.187637 26.670836 
L 42.266736 26.868566 
L 42.307546 27.077761 
L 42.348356 27.286956 
L 42.389166 27.496152 
L 42.429976 27.705347 
L 42.435113 28.001281 
L 42.44025 28.297216 
L 42.380509 28.618232 
L 42.320769 28.939248 
L 42.261029 29.260264 
L 42.201288 29.58128 
" style="fill:none;stroke:#ff0000;stroke-linecap:square;stroke-width:0.4;"/>
   </g>
   <g id="line2d_55">
    <path clip-path="url(#p081f23146e)" d="M 37.000263 21.490596 
L 37.204407 21.689525 
L 37.408552 21.888455 
L 37.467246 22.107916 
L 37.52594 22.327377 
L 37.584634 22.546838 
L 37.643328 22.7663 
L 37.561708 23.006047 
L 37.480088 23.245795 
L 37.316753 23.465195 
L 37.153419 23.684595 
L 36.990084 23.903994 
L 36.826749 24.123394 
L 36.694093 24.363203 
L 36.561438 24.603012 
L 36.428782 24.842822 
L 36.296126 25.082631 
L 36.24509 25.291826 
L 36.194053 25.501021 
L 36.143017 25.710216 
L 36.091981 25.919411 
L 36.089413 26.143913 
L 36.086844 26.368416 
L 36.084276 26.592918 
L 36.081707 26.81742 
L 36.155717 27.062331 
L 36.229726 27.307243 
L 36.303736 27.552154 
L 36.377745 27.797066 
L 36.507881 28.095582 
L 36.638016 28.394099 
L 36.768151 28.692615 
L 36.898286 28.991132 
L 36.981213 29.162059 
L 37.064141 29.332987 
L 37.147069 29.503915 
L 37.229997 29.674843 
L 37.312925 29.845771 
L 37.395852 30.016698 
L 37.47878 30.187626 
L 37.561708 30.358554 
L 37.602518 30.588158 
L 37.643328 30.817763 
L 37.684138 31.047367 
L 37.724947 31.276972 
L 37.773415 31.557599 
L 37.821883 31.838227 
L 37.870351 32.118855 
L 37.918818 32.399482 
L 37.959818 32.625337 
L 38.000819 32.851192 
L 38.041819 33.077046 
L 38.082819 33.302901 
" style="fill:none;stroke:#4169e1;stroke-linecap:square;stroke-width:0.4;"/>
   </g>
   <g id="line2d_56">
    <path clip-path="url(#p081f23146e)" d="M 39.578801 19.605565 
L 39.77486 19.623639 
L 39.970918 19.641712 
L 40.166977 19.659785 
L 40.363036 19.677858 
L 40.533172 19.710532 
L 40.703308 19.743205 
L 40.873445 19.775878 
L 41.043581 19.808552 
L 41.213717 19.841225 
L 41.383854 19.873898 
L 41.55399 19.906572 
L 41.724126 19.939245 
L 41.902135 19.974162 
L 42.080143 20.009079 
L 42.258151 20.043996 
L 42.436159 20.078913 
L 42.614167 20.11383 
L 42.792175 20.148747 
L 42.970184 20.183664 
L 43.148192 20.218582 
L 43.320564 20.259123 
L 43.492935 20.299665 
L 43.665307 20.340207 
L 43.837679 20.380749 
L 44.010051 20.421291 
L 44.182423 20.461833 
L 44.354795 20.502375 
L 44.527167 20.542917 
L 44.682653 20.615026 
L 44.83814 20.687134 
L 44.993626 20.759243 
L 45.149113 20.831352 
" style="fill:none;stroke:#000000;stroke-linecap:square;stroke-width:0.4;"/>
   </g>
   <g id="line2d_57">
    <path clip-path="url(#p081f23146e)" d="M 37.640664 20.789058 
L 37.860219 20.644595 
L 38.079775 20.500131 
L 38.262325 20.320259 
L 38.444876 20.140387 
L 38.603264 19.886992 
L 38.761652 19.633597 
L 38.830953 19.460241 
L 38.900253 19.286885 
L 38.969554 19.113529 
L 39.038855 18.940173 
L 39.166041 18.651247 
L 39.293227 18.36232 
L 39.374133 18.148576 
L 39.455039 17.934832 
L 39.535946 17.721087 
L 39.616852 17.507343 
L 39.801686 17.276202 
L 39.986519 17.045061 
L 40.206075 16.865926 
L 40.42563 16.686792 
L 40.650988 16.672345 
L 40.876346 16.657899 
L 41.101704 16.643453 
L 41.327062 16.629006 
L 41.598653 16.634785 
L 41.870243 16.640563 
L 42.141833 16.646342 
L 42.413424 16.65212 
L 42.725443 16.657899 
L 43.037463 16.663677 
L 43.262821 16.617449 
L 43.488179 16.571221 
L 43.753967 16.397865 
L 43.869547 16.253402 
L 43.985127 16.108938 
L 44.165966 15.955992 
L 44.346804 15.803045 
L 44.573589 15.663008 
L 44.800374 15.522971 
L 45.033818 15.442932 
L 45.267262 15.362893 
L 45.47407 15.326193 
L 45.680878 15.289493 
L 45.887686 15.252793 
L 46.094495 15.216094 
L 46.348011 15.216094 
L 46.601527 15.216094 
L 46.915068 15.256174 
L 47.22861 15.296255 
L 47.542057 15.329574 
L 47.855503 15.362893 
L 48.048993 15.382872 
L 48.242484 15.402851 
L 48.435974 15.42283 
L 48.629464 15.442809 
L 48.795272 15.453013 
L 48.96108 15.463218 
L 49.147721 15.649852 
L 49.253218 15.925747 
L 49.358715 16.201641 
L 49.431773 16.420733 
L 49.504832 16.639826 
L 49.57789 16.858918 
L 49.650948 17.078011 
L 49.715873 17.252535 
L 49.780798 17.427058 
L 49.845723 17.601582 
L 49.910647 17.776106 
L 49.975572 17.960712 
L 50.040497 18.145318 
L 50.105422 18.329923 
L 50.170347 18.514529 
L 50.194699 18.745793 
L 50.219052 18.977058 
L 50.167017 19.247173 
L 50.114982 19.517289 
L 49.974478 19.701956 
L 49.833974 19.886623 
L 49.69347 20.07129 
L 49.552966 20.255958 
L 49.430727 20.393843 
L 49.308487 20.531729 
L 49.186248 20.669614 
L 49.064009 20.8075 
L 48.848829 21.053641 
" style="fill:none;stroke:#4169e1;stroke-linecap:square;stroke-width:0.4;"/>
   </g>
   <g id="line2d_58">
    <path clip-path="url(#p081f23146e)" d="M 48.540995 21.406746 
L 46.471582 24.307078 
L 45.512312 26.572508 
L 45.221505 27.785263 
L 44.333486 30.256384 
L 43.631822 31.524404 
L 43.230097 31.969043 
L 39.171653 35.743839 
L 38.338332 36.682482 
L 36.803824 37.723478 
L 35.803648 38.325491 
L 33.326041 39.358557 
L 32.557597 40.120094 
L 32.029923 41.185188 
L 31.540109 42.338313 
L 29.907 44.32287 
L 29.539568 44.950455 
L 29.437591 45.582897 
L 29.437591 45.582897 
" style="fill:none;stroke:#008000;stroke-linecap:square;stroke-width:0.4;"/>
   </g>
   <g id="line2d_59">
    <path clip-path="url(#p081f23146e)" d="M 25.525359 13.222869 
L 25.573113 13.382086 
L 25.620867 13.541303 
L 25.668622 13.70052 
L 25.716376 13.859737 
L 25.756187 14.042806 
L 25.795998 14.225874 
L 25.835809 14.408943 
L 25.87562 14.592012 
L 25.907488 14.798933 
L 25.939356 15.005853 
L 25.971224 15.212774 
L 26.003091 15.419695 
L 26.018978 15.626677 
L 26.034864 15.833659 
L 26.050751 16.040641 
L 26.066637 16.247623 
L 26.018883 16.526222 
L 25.971128 16.804821 
L 25.923374 17.08342 
L 25.87562 17.362019 
L 25.818496 17.556153 
L 25.761371 17.750287 
L 25.704247 17.944422 
L 25.647123 18.138556 
L 25.555134 18.341911 
L 25.463145 18.545266 
L 25.371156 18.748621 
L 25.279168 18.951976 
L 25.182328 19.19406 
L 25.085487 19.436144 
L 25.085487 19.610483 
L 25.085487 19.784823 
L 25.172624 19.997768 
L 25.259762 20.210713 
L 25.405022 20.394765 
L 25.550282 20.578818 
L 25.589047 20.748301 
L 25.627812 20.917784 
L 25.666576 21.087267 
L 25.705341 21.25675 
L 25.802181 21.469695 
L 25.899021 21.68264 
L 26.092702 21.885996 
L 26.286382 22.089351 
" style="fill:none;stroke:#008000;stroke-linecap:square;stroke-width:0.4;"/>
   </g>
   <g id="line2d_60">
    <path clip-path="url(#p081f23146e)" d="M 25.044202 13.083446 
L 24.890665 13.302785 
L 24.737129 13.522123 
L 24.517764 13.730519 
L 24.298399 13.938915 
L 24.024335 14.015634 
L 23.750271 14.092353 
L 23.580278 14.103296 
L 23.410284 14.114238 
L 23.24029 14.12518 
L 23.070297 14.136123 
L 22.891551 14.084485 
L 22.712806 14.032847 
L 22.558508 13.870556 
L 22.477364 13.647406 
L 22.39622 13.424257 
L 22.312793 13.11406 
L 22.229366 12.803864 
L 22.186035 12.597127 
L 22.142704 12.390391 
L 22.099373 12.183655 
L 22.056043 11.976919 
L 22.012474 11.782416 
L 21.973329 11.607523 
L 21.934184 11.43263 
L 21.895039 11.257737 
L 21.855893 11.082844 
L 21.765807 10.882747 
L 21.675721 10.68265 
L 21.585635 10.482553 
L 21.495549 10.282456 
L 21.37212 10.101232 
L 21.248692 9.920007 
L 21.125263 9.738782 
L 21.001835 9.557558 
L 20.81819 9.408176 
L 20.634546 9.258795 
L 20.450901 9.109414 
L 20.267257 8.960033 
L 20.090985 8.830262 
L 19.914713 8.700491 
L 19.73844 8.57072 
L 19.562168 8.440948 
L 19.417717 8.340562 
L 19.273265 8.240175 
L 19.128813 8.139789 
L 18.984361 8.039402 
L 18.783546 7.917069 
L 18.582731 7.794736 
" style="fill:none;stroke:#4169e1;stroke-linecap:square;stroke-width:0.4;"/>
   </g>
   <g id="line2d_61">
    <path clip-path="url(#p081f23146e)" d="M 25.227038 12.242977 
L 25.141708 11.923068 
L 25.056378 11.603158 
L 24.999492 11.283249 
L 24.942605 10.963339 
L 24.93547 10.650561 
L 24.928336 10.337783 
L 25.010098 10.117399 
L 25.091861 9.897016 
L 25.173623 9.676632 
L 25.255386 9.456249 
L 25.302236 9.220559 
L 25.349087 8.984868 
L 25.395937 8.749178 
L 25.442788 8.513488 
L 25.421194 8.288617 
L 25.3996 8.063746 
L 25.32169 7.786868 
L 25.24378 7.50999 
L 25.101088 7.263603 
L 24.958396 7.017216 
L 24.802291 6.828369 
L 24.646186 6.639522 
L 24.527229 6.505447 
L 24.408271 6.371373 
L 24.289314 6.237299 
L 24.170356 6.103225 
L 23.932537 5.887083 
L 23.694717 5.670941 
L 23.536852 5.577931 
L 23.378987 5.484922 
L 23.221122 5.391912 
L 23.063257 5.298902 
L 22.888127 5.201589 
L 22.712996 5.104276 
L 22.537866 5.006963 
L 22.362735 4.90965 
L 22.130147 4.770228 
L 21.897559 4.630805 
L 21.751871 4.535398 
L 21.606183 4.439991 
L 21.460494 4.344584 
L 21.314806 4.249176 
L 21.048067 4.078894 
L 20.781328 3.908612 
L 20.581274 3.793779 
L 20.38122 3.678946 
L 20.095836 3.553539 
L 19.810452 3.428133 
" style="fill:none;stroke:#008000;stroke-linecap:square;stroke-width:0.4;"/>
   </g>
   <g id="line2d_62">
    <path clip-path="url(#p081f23146e)" d="M 21.748589 5.200052 
L 21.499021 5.344946 
L 21.249453 5.48984 
L 20.999885 5.634733 
L 20.750316 5.779627 
L 20.484672 5.92452 
L 20.219027 6.069414 
L 19.953382 6.214308 
L 19.687737 6.359201 
L 19.414054 6.512148 
L 19.140371 6.665095 
L 18.866688 6.818041 
L 18.593005 6.970988 
L 18.440063 7.0837 
L 18.287121 7.196412 
L 18.134179 7.309125 
L 17.981237 7.421837 
L 17.828295 7.534549 
L 17.675353 7.647261 
L 17.522411 7.759973 
L 17.369469 7.872685 
L 17.208465 8.11815 
L 17.047461 8.363615 
L 16.886457 8.609079 
L 16.725453 8.854544 
L 16.560406 9.120233 
L 16.395359 9.385923 
L 16.230312 9.651613 
L 16.065265 9.917302 
L 15.917531 10.14039 
L 15.769798 10.363479 
L 15.622064 10.586567 
L 15.47433 10.809655 
L 15.323552 10.979599 
L 15.172775 11.149543 
L 15.021997 11.319488 
L 14.871219 11.489432 
L 14.720441 11.659376 
L 14.569663 11.82932 
L 14.418886 11.999264 
L 14.268108 12.169209 
L 14.103608 12.322739 
L 13.939108 12.47627 
L 13.774608 12.629801 
L 13.610108 12.783331 
L 13.445608 12.936862 
L 13.281108 13.090393 
L 13.116608 13.243923 
L 12.952108 13.397454 
L 12.751982 13.633206 
L 12.551857 13.868958 
L 12.351731 14.10471 
L 12.151606 14.340461 
L 11.951481 14.576213 
L 11.751355 14.811965 
L 11.55123 15.047717 
L 11.351104 15.283469 
" style="fill:none;stroke:#000000;stroke-linecap:square;stroke-width:0.4;"/>
   </g>
   <g id="line2d_63">
    <path clip-path="url(#p081f23146e)" d="M 16.041483 5.079072 
L 15.830846 5.171098 
L 15.620209 5.263124 
L 15.409572 5.355151 
L 15.198935 5.447177 
L 14.988298 5.539203 
L 14.777661 5.631229 
L 14.567024 5.723255 
L 14.356386 5.815282 
L 14.189318 5.912103 
L 14.02225 6.008924 
L 13.855181 6.105745 
L 13.688113 6.202566 
L 13.521044 6.299387 
L 13.353976 6.396209 
L 13.186907 6.49303 
L 13.019839 6.589851 
L 12.794671 6.73997 
L 12.569503 6.890089 
L 12.344335 7.040208 
L 12.119167 7.190326 
L 11.894 7.340445 
L 11.668832 7.490564 
L 11.443664 7.640683 
L 11.218496 7.790802 
L 11.032069 7.875544 
L 10.845642 7.960285 
L 10.659215 8.045027 
L 10.472788 8.129768 
L 10.286361 8.21451 
L 10.099934 8.299251 
L 9.913507 8.383993 
L 9.72708 8.468735 
L 9.5334 8.534112 
L 9.339719 8.599489 
L 9.146039 8.664867 
L 8.952358 8.730244 
L 8.758678 8.795621 
L 8.564997 8.860999 
L 8.371317 8.926376 
L 8.177636 8.991753 
L 8.012993 9.013515 
L 7.848351 9.035277 
L 7.683708 9.057038 
L 7.519065 9.0788 
L 7.354423 9.100562 
L 7.18978 9.122324 
L 7.025137 9.144085 
L 6.860494 9.165847 
L 6.670476 9.166185 
L 6.480458 9.166523 
L 6.29044 9.166861 
L 6.100422 9.167199 
L 5.910404 9.167537 
L 5.720386 9.167876 
L 5.530368 9.168214 
L 5.34035 9.168552 
L 5.062386 9.177097 
L 4.784422 9.185642 
L 4.506458 9.194186 
L 4.228494 9.202731 
" style="fill:none;stroke:#000000;stroke-linecap:square;stroke-width:0.4;"/>
   </g>
   <g id="line2d_64">
    <path clip-path="url(#p081f23146e)" d="M 14.751358 3.272727 
L 14.558747 3.278414 
L 14.366137 3.2841 
L 14.173527 3.289786 
L 13.980916 3.295473 
L 13.788306 3.301159 
L 13.595696 3.306845 
L 13.403086 3.312532 
L 13.210475 3.318218 
L 13.04431 3.325748 
L 12.878146 3.333279 
L 12.711981 3.340809 
L 12.545816 3.34834 
L 12.379652 3.355871 
L 12.213487 3.363401 
L 12.047322 3.370932 
L 11.881157 3.378462 
L 11.667762 3.39924 
L 11.454366 3.420018 
L 11.24097 3.440797 
L 11.027574 3.461575 
L 10.814178 3.482353 
L 10.600783 3.503131 
L 10.387387 3.523909 
L 10.173991 3.544687 
L 9.998385 3.56734 
L 9.822779 3.589993 
L 9.647173 3.612646 
L 9.471566 3.635299 
L 9.29596 3.657953 
L 9.120354 3.680606 
L 8.944748 3.703259 
L 8.769142 3.725912 
L 8.483758 3.776105 
L 8.198374 3.826298 
L 7.91299 3.876492 
L 7.627606 3.926685 
L 7.342222 3.976878 
L 7.056839 4.027072 
L 6.771455 4.077265 
L 6.486071 4.127458 
L 6.297194 4.171043 
L 6.108318 4.214628 
L 5.919441 4.258213 
L 5.730565 4.301798 
L 5.546587 4.437286 
L 5.36261 4.572774 
L 5.309338 4.732606 
L 5.256066 4.892438 
L 5.202795 5.052269 
L 5.149523 5.212101 
L 5.083695 5.405067 
L 5.017866 5.598033 
L 4.952038 5.790999 
L 4.886209 5.983966 
L 4.839787 6.14933 
L 4.793364 6.314694 
L 4.746942 6.480059 
L 4.700519 6.645423 
L 4.612098 6.874351 
L 4.523676 7.10328 
L 4.435255 7.332208 
L 4.346834 7.561136 
L 4.276582 7.771868 
L 4.20633 7.9826 
L 4.136078 8.193332 
L 4.065826 8.404064 
" style="fill:none;stroke:#000000;stroke-linecap:square;stroke-width:0.4;"/>
   </g>
   <g id="line2d_65">
    <path clip-path="url(#p081f23146e)" d="M 3.676943 9.502723 
L 3.54324 9.71198 
L 3.409538 9.921236 
L 3.275836 10.130493 
L 3.142133 10.33975 
L 3.074402 10.542982 
L 3.006671 10.746214 
L 2.93894 10.949446 
L 2.871209 11.152679 
L 2.838818 11.355911 
L 2.806427 11.559143 
L 2.774036 11.762375 
L 2.741645 11.965607 
L 2.726329 12.190048 
L 2.711013 12.414489 
L 2.695698 12.638929 
L 2.680382 12.86337 
L 2.699265 13.123035 
L 2.718148 13.3827 
L 2.737031 13.642366 
L 2.755914 13.902031 
L 2.806332 14.165261 
L 2.856749 14.428492 
L 2.907167 14.691722 
L 2.957585 14.954953 
L 2.983983 15.139559 
L 3.010381 15.324164 
L 3.036779 15.50877 
L 3.063177 15.693376 
L 3.072404 15.884805 
L 3.081632 16.076234 
L 3.090859 16.267664 
L 3.100087 16.459093 
L 3.100087 16.662694 
L 3.100087 16.866295 
L 3.100087 17.069896 
L 3.100087 17.273497 
L 3.100087 17.529474 
L 3.100087 17.78545 
L 3.228034 18.041427 
L 3.355981 18.297404 
L 3.518935 18.541823 
L 3.681889 18.786243 
L 3.751713 19.100374 
L 3.821537 19.414505 
L 3.769169 19.57741 
L 3.716801 19.740316 
L 3.664433 19.903221 
L 3.612065 20.066127 
L 3.507329 20.211512 
L 3.402594 20.356897 
L 3.297858 20.502283 
L 3.193122 20.647668 
L 3.105842 20.810574 
L 3.018562 20.973479 
L 2.931282 21.136385 
L 2.844002 21.29929 
" style="fill:none;stroke:#008000;stroke-linecap:square;stroke-width:0.4;"/>
   </g>
   <g id="line2d_66">
    <path clip-path="url(#p081f23146e)" d="M 25.315697 20.698077 
L 25.256718 20.893133 
L 25.197738 21.088189 
L 25.138759 21.283245 
L 25.07978 21.478302 
L 24.94817 21.659834 
L 24.816561 21.841366 
L 24.684951 22.022898 
L 24.553342 22.20443 
L 24.453505 22.358667 
L 24.353668 22.512905 
L 24.253831 22.667143 
L 24.153994 22.82138 
L 23.981623 23.048218 
L 23.809251 23.275056 
L 23.68216 23.388537 
L 23.555069 23.502018 
L 23.427978 23.615498 
L 23.300887 23.728979 
L 23.001424 23.801518 
L 22.701961 23.874057 
L 22.515939 23.878606 
L 22.329916 23.883155 
L 22.143893 23.887704 
L 21.957871 23.892253 
L 21.690133 23.86502 
L 21.422395 23.837787 
L 21.154658 23.810554 
L 20.88692 23.783321 
L 20.681919 23.768998 
L 20.476919 23.754675 
L 20.271918 23.740351 
L 20.066917 23.726028 
L 19.886317 23.703713 
L 19.705716 23.681398 
L 19.525116 23.659083 
L 19.344516 23.636768 
L 19.07264 23.579966 
L 18.800764 23.523165 
L 18.547153 23.433905 
L 18.293542 23.344645 
L 18.039931 23.255385 
L 17.78632 23.166125 
L 17.546883 23.139753 
L 17.307446 23.11338 
L 17.068009 23.087008 
L 16.828572 23.060636 
L 16.546993 23.063833 
L 16.265414 23.067029 
L 15.983835 23.070226 
L 15.702257 23.073423 
L 15.384149 23.111721 
L 15.066041 23.150019 
L 14.747933 23.188317 
L 14.429825 23.226615 
L 14.123466 23.259012 
L 13.817106 23.291408 
L 13.510747 23.323805 
L 13.204387 23.356202 
L 13.011444 23.381252 
L 12.818501 23.406303 
L 12.625557 23.431353 
L 12.432614 23.456404 
L 12.239671 23.481455 
L 12.046727 23.506505 
L 11.853784 23.531556 
L 11.660841 23.556606 
L 11.342733 23.562508 
L 11.024625 23.568409 
L 10.706517 23.574311 
L 10.38841 23.580212 
L 10.143931 23.580212 
L 9.899452 23.580212 
L 9.654973 23.580212 
L 9.410494 23.580212 
L 9.157026 23.530787 
L 8.903557 23.481362 
L 8.650089 23.431937 
L 8.396621 23.382513 
" style="fill:none;stroke:#000000;stroke-linecap:square;stroke-width:0.4;"/>
   </g>
   <g id="line2d_67">
    <path clip-path="url(#p081f23146e)" d="M 18.763855 23.848484 
L 18.499494 23.991963 
L 18.235133 24.135443 
L 18.118079 24.263862 
L 18.001024 24.39228 
L 17.883969 24.520699 
L 17.766914 24.649118 
L 17.630928 24.845465 
L 17.494943 25.041812 
L 17.358957 25.238159 
L 17.222972 25.434506 
L 17.1248 25.630915 
L 17.026628 25.827324 
L 16.928456 26.023732 
L 16.830284 26.220141 
L 16.74719 26.382493 
L 16.664095 26.544845 
L 16.581001 26.707197 
L 16.497907 26.86955 
L 16.383373 27.041184 
L 16.268839 27.212819 
L 16.154305 27.384454 
L 16.039771 27.556088 
L 15.919529 27.69379 
L 15.799287 27.831491 
L 15.679045 27.969192 
L 15.558804 28.106893 
L 15.38158 28.26193 
L 15.204357 28.416967 
L 15.046064 28.448441 
L 14.957405 28.397787 
L 14.913075 28.239677 
L 14.909936 28.038719 
L 14.906797 27.837761 
L 14.903658 27.636804 
L 14.900518 27.435846 
L 14.886249 27.268145 
L 14.87198 27.100445 
L 14.857711 26.932745 
L 14.843442 26.765044 
L 14.802346 26.43911 
L 14.761251 26.113177 
L 14.745365 25.831504 
L 14.729478 25.549831 
L 14.715114 25.230659 
L 14.70075 24.911488 
L 14.680487 24.631536 
L 14.660225 24.351585 
L 14.627691 24.063519 
L 14.595158 23.775453 
L 14.574895 23.548123 
L 14.554633 23.320793 
L 14.538366 23.105758 
L 14.522099 22.890723 
L 14.516677 22.648885 
L 14.511255 22.407047 
L 14.505833 22.165209 
L 14.50041 21.923372 
L 14.497081 21.665797 
L 14.493751 21.408222 
L 14.490422 21.150647 
L 14.487092 20.893072 
L 14.487092 20.68861 
L 14.487092 20.484148 
L 14.487092 20.279686 
L 14.487092 20.075225 
L 14.445712 19.873099 
L 14.404331 19.670973 
L 14.36295 19.468848 
L 14.32157 19.266722 
L 14.256122 19.026728 
L 14.190674 18.786735 
L 14.125226 18.546741 
L 14.059778 18.306748 
L 13.952949 18.047329 
L 13.84612 17.787909 
L 13.769257 17.592177 
L 13.688208 17.434558 
L 13.607159 17.27694 
L 13.459901 16.997603 
L 13.402824 16.777158 
L 13.345747 16.556713 
L 13.358399 16.357292 
L 13.371051 16.157871 
L 13.329766 15.949844 
L 13.22132 15.653541 
L 13.139795 15.485717 
L 13.058271 15.317894 
L 12.944688 15.229126 
" style="fill:none;stroke:#008000;stroke-linecap:square;stroke-width:0.4;"/>
   </g>
   <g id="line2d_68">
    <path clip-path="url(#p081f23146e)" d="M 14.715399 28.908019 
L 14.52286 28.949575 
L 14.330321 28.991132 
L 14.137878 28.876668 
L 13.945434 28.762203 
L 13.825763 28.637412 
L 13.706092 28.51262 
L 13.518785 28.340985 
L 13.331478 28.169351 
L 13.168904 27.99538 
L 13.006331 27.821409 
L 12.893128 27.693667 
L 12.779926 27.565924 
L 12.649886 27.446296 
L 12.519846 27.326668 
L 12.384574 27.154911 
L 12.249302 26.983153 
L 12.020329 26.78029 
L 11.791357 26.577426 
L 11.541646 26.447348 
L 11.291935 26.317269 
L 11.099396 26.192478 
L 10.906857 26.067686 
L 10.677979 25.901215 
L 10.449101 25.734744 
L 10.214991 25.557823 
L 9.980881 25.380901 
L 9.762277 25.183202 
L 9.543673 24.985502 
L 9.325164 24.767024 
L 9.106656 24.548547 
L 8.877778 24.39769 
L 8.6489 24.246834 
L 8.435528 24.132369 
L 8.222156 24.017905 
L 8.031995 23.916105 
L 7.841834 23.814304 
" style="fill:none;stroke:#000000;stroke-linecap:square;stroke-width:0.4;"/>
   </g>
   <g id="line2d_69">
    <path clip-path="url(#p081f23146e)" d="M 48.540424 15.615181 
L 48.423988 15.770341 
L 48.15782 15.89796 
L 47.947207 15.978368 
L 47.736593 16.058776 
L 47.545291 16.12529 
L 47.353989 16.191805 
L 47.123874 16.272213 
L 46.89376 16.35262 
L 46.735657 16.435733 
L 46.577554 16.518845 
L 46.416788 16.690726 
L 46.311481 16.865434 
L 46.206175 17.040143 
L 46.151476 17.20354 
L 46.096778 17.366937 
L 46.016775 17.619963 
L 45.936772 17.872989 
L 45.878364 18.199415 
L 45.819955 18.52584 
L 45.763735 18.717208 
L 45.707514 18.908576 
L 45.651293 19.099944 
L 45.595073 19.291311 
L 45.551266 19.461102 
L 45.50746 19.630892 
L 45.463654 19.800683 
L 45.419847 19.970473 
L 45.413378 20.061701 
L 45.450288 20.309809 
L 45.50708 20.50677 
L 45.563871 20.703732 
" style="fill:none;stroke:#008000;stroke-linecap:square;stroke-width:0.4;"/>
   </g>
   <g id="line2d_70">
    <path clip-path="url(#p081f23146e)" d="M 24.87906 11.845365 
L 24.782505 11.652337 
L 24.68595 11.45931 
L 24.58949 11.289273 
L 24.49303 11.119237 
L 24.378211 10.903341 
L 24.263392 10.687445 
L 24.171498 10.517409 
L 24.079604 10.347372 
L 24.033658 10.094715 
L 23.987711 9.842058 
L 23.978483 9.59395 
L 23.969256 9.345842 
L 23.950896 9.143593 
L 23.932537 8.941345 
L 23.822188 8.748317 
L 23.629269 8.693237 
L 23.408762 8.812742 
L 23.298414 8.941345 
L 23.188065 9.069948 
L 23.128325 9.276746 
L 23.068584 9.483543 
L 23.013505 9.773085 
L 22.958426 10.062626 
L 22.930839 10.365815 
L 22.903252 10.669003 
L 22.871099 10.953872 
L 22.838946 11.238742 
L 22.788338 11.454638 
L 22.737729 11.670533 
L 22.602267 11.902167 
L 22.452155 12.061261 
L 22.322972 12.103309 
L 22.193978 12.064457 
L 22.085723 11.935362 
L 22.012474 11.782416 
" style="fill:none;stroke:#008000;stroke-linecap:square;stroke-width:0.4;"/>
   </g>
   <g id="line2d_71">
    <path clip-path="url(#p081f23146e)" d="M 30.045078 18.083475 
L 30.220018 18.204701 
L 30.394959 18.325928 
L 30.569899 18.447154 
L 30.744839 18.56838 
L 30.907556 18.775608 
L 31.070272 18.982836 
L 31.232988 19.190064 
L 31.395705 19.397292 
L 31.561513 19.605934 
L 31.727321 19.814576 
" style="fill:none;stroke:#000000;stroke-linecap:square;stroke-width:0.4;"/>
   </g>
   <g id="line2d_72">
    <path clip-path="url(#p081f23146e)" d="M 26.119148 23.756765 
L 26.230542 23.889302 
L 26.341937 24.02184 
L 26.453332 24.154377 
L 26.564727 24.286914 
L 26.739477 24.567849 
L 26.914227 24.848784 
L 27.002506 25.013104 
L 27.090784 25.177423 
L 27.179063 25.341742 
L 27.267342 25.506062 
L 27.446563 25.735605 
L 27.625784 25.965148 
" style="fill:none;stroke:#000000;stroke-linecap:square;stroke-width:0.4;"/>
   </g>
  </g>
 </g>
 <defs>
  <clipPath id="p081f23146e">
   <rect height="72" width="52.610436" x="0" y="0"/>
  </clipPath>
 </defs>
</svg>
