<?xml version="1.0" encoding="utf-8" standalone="no"?>
<!DOCTYPE svg PUBLIC "-//W3C//DTD SVG 1.1//EN"
  "http://www.w3.org/Graphics/SVG/1.1/DTD/svg11.dtd">
<svg height="104.0525pt" version="1.1" viewBox="0 0 72 104.0525" width="72pt" xmlns="http://www.w3.org/2000/svg" xmlns:xlink="http://www.w3.org/1999/xlink">
 <metadata>
  <rdf:RDF xmlns:cc="http://creativecommons.org/ns#" xmlns:dc="http://purl.org/dc/elements/1.1/" xmlns:rdf="http://www.w3.org/1999/02/22-rdf-syntax-ns#">
   <cc:Work>
    <dc:type rdf:resource="http://purl.org/dc/dcmitype/StillImage"/>
    <dc:date>2022-04-19T00:47:33.920819</dc:date>
    <dc:format>image/svg+xml</dc:format>
    <dc:creator>
     <cc:Agent>
      <dc:title>Matplotlib v3.4.3, https://matplotlib.org/</dc:title>
     </cc:Agent>
    </dc:creator>
   </cc:Work>
  </rdf:RDF>
 </metadata>
 <defs>
  <style type="text/css">*{stroke-linecap:butt;stroke-linejoin:round;}</style>
 </defs>
 <g id="figure_1">
  <g id="patch_1">
   <path d="M 0 104.0525 
L 72 104.0525 
L 72 0 
L 0 0 
z
" style="fill:#ffffff;"/>
  </g>
  <g id="axes_1">
   <g id="line2d_1">
    <path clip-path="url(#p5c0638d80f)" d="M 54.980179 97.393815 
L 54.604207 93.177601 
L 54.180836 88.431356 
L 53.757466 83.685111 
L 53.265809 78.174467 
L 52.774153 72.663823 
L 52.303384 67.38995 
L 51.832616 62.116077 
L 51.468694 58.035076 
L 51.104772 53.954074 
L 50.774591 50.261281 
L 50.44441 46.568489 
L 49.931063 40.814463 
L 49.417716 35.060437 
L 48.866611 28.871929 
L 48.521166 25.006666 
L 48.143587 20.768819 
L 47.624617 14.94929 
L 47.465551 13.16449 
L 47.237397 10.611686 
" style="fill:none;stroke:#808080;stroke-linecap:square;stroke-width:0.4;"/>
   </g>
   <g id="line2d_2">
    <path clip-path="url(#p5c0638d80f)" d="M 32.831549 93.835032 
L 31.383091 89.802707 
L 29.934633 85.770382 
" style="fill:none;stroke:#808080;stroke-linecap:square;stroke-width:0.4;"/>
   </g>
   <g id="line2d_3">
    <path clip-path="url(#p5c0638d80f)" d="M 66.61283 97.328913 
L 66.548561 95.104223 
" style="fill:none;stroke:#808080;stroke-linecap:square;stroke-width:0.4;"/>
   </g>
   <g id="line2d_4">
    <path clip-path="url(#p5c0638d80f)" d="M 43.111341 98.876941 
L 42.491549 95.026401 
L 41.871757 91.175861 
L 41.251965 87.325321 
L 40.632173 83.474781 
L 39.883441 78.828893 
L 39.13471 74.183006 
L 38.369911 69.429549 
L 37.605113 64.676093 
L 36.890123 60.234526 
L 36.175132 55.792959 
L 35.599927 52.222758 
L 35.024721 48.652558 
L 34.330618 44.346203 
L 33.381047 38.44735 
L 32.431476 32.548497 
L 31.599195 27.373178 
L 30.721926 21.925032 
L 29.844657 16.476886 
L 29.2333 12.682534 
L 28.621943 8.888182 
L 28.411463 7.580531 
" style="fill:none;stroke:#808080;stroke-linecap:square;stroke-width:0.4;"/>
   </g>
   <g id="line2d_5">
    <path clip-path="url(#p5c0638d80f)" d="M 46.785909 97.554868 
L 46.186201 93.241301 
L 45.586493 88.927735 
L 44.986785 84.614168 
L 44.387077 80.300602 
L 43.537925 74.189015 
L 42.688774 68.077428 
L 41.820342 61.831831 
L 40.95191 55.586234 
L 40.222459 50.340606 
L 39.493009 45.094977 
L 38.798102 40.096336 
L 38.103196 35.097695 
L 37.475772 30.580409 
L 36.848348 26.063123 
L 36.294431 22.079174 
L 35.740515 18.095225 
L 35.186598 14.111275 
L 34.632682 10.127326 
" style="fill:none;stroke:#808080;stroke-linecap:square;stroke-width:0.4;"/>
   </g>
   <g id="line2d_6">
    <path clip-path="url(#p5c0638d80f)" d="M 25.511334 98.360131 
L 23.454733 94.10786 
L 21.15391 89.349596 
L 19.382502 85.68625 
L 17.611094 82.022904 
L 16.020441 78.732743 
L 14.429789 75.442582 
L 12.292851 71.023249 
" style="fill:none;stroke:#808080;stroke-linecap:square;stroke-width:0.4;"/>
   </g>
   <g id="line2d_7">
    <path clip-path="url(#p5c0638d80f)" d="M 66.285059 90.866376 
L 66.415203 86.404377 
L 66.545347 81.942377 
" style="fill:none;stroke:#808080;stroke-linecap:square;stroke-width:0.4;"/>
   </g>
   <g id="line2d_8">
    <path clip-path="url(#p5c0638d80f)" d="M 27.299613 13.582746 
L 26.940511 14.838116 
L 26.581409 16.093485 
L 25.50089 17.734058 
L 24.420371 19.374632 
L 24.033554 20.664255 
L 23.646736 21.953878 
L 23.259918 23.2435 
L 22.8731 24.533123 
L 22.35654 26.209152 
L 21.83998 27.885182 
L 21.582101 28.981301 
L 21.324223 30.07742 
L 21.066344 31.17354 
L 20.808466 32.269659 
L 20.486318 34.139793 
L 20.164171 36.009926 
L 20.035633 37.36385 
L 19.907096 38.717774 
L 19.535944 40.239361 
L 19.164791 41.760947 
" style="fill:none;stroke:#008000;stroke-linecap:square;stroke-width:0.4;"/>
   </g>
   <g id="line2d_9">
    <path clip-path="url(#p5c0638d80f)" d="M 26.518747 4.729659 
L 24.840529 5.275615 
L 23.16231 5.821572 
L 21.484091 6.367528 
L 19.805873 6.913485 
L 17.767749 7.449826 
L 15.729625 7.986167 
L 13.691501 8.522509 
L 11.653377 9.05885 
L 10.492924 9.735812 
L 9.33247 10.412774 
L 8.172017 11.089736 
L 7.011564 11.766698 
L 6.399002 12.894967 
L 5.78644 14.023237 
L 5.173878 15.151507 
L 4.561316 16.279777 
L 4.271304 17.956106 
L 3.981291 19.632436 
L 3.691278 21.308766 
L 3.401265 22.985095 
L 3.36913 24.758176 
L 3.336996 26.531258 
L 3.304862 28.304339 
L 3.272727 30.07742 
L 3.304862 31.528096 
L 3.336996 32.978772 
L 3.36913 34.429447 
L 3.401265 35.880123 
L 3.723814 37.169746 
L 4.046363 38.459369 
L 4.368912 39.748991 
L 4.691461 41.038614 
L 4.594656 42.295786 
L 4.497851 43.552958 
L 4.401046 44.810131 
L 4.304241 46.067303 
L 4.271906 47.276249 
L 4.239571 48.485195 
L 4.207236 49.694142 
L 4.1749 50.903088 
L 4.142565 52.112035 
L 4.11023 53.320981 
L 4.077895 54.529927 
L 4.045559 55.738874 
L 5.206414 57.027896 
L 6.367269 58.316918 
L 7.559857 59.058481 
L 8.752445 59.800044 
L 9.945032 60.541607 
L 11.13762 61.283171 
L 12.556353 62.572794 
L 13.975087 63.862417 
L 15.006601 64.571529 
L 16.038115 65.280641 
L 17.069629 65.989754 
L 18.101143 66.698866 
L 18.918562 67.419396 
L 19.73598 68.139926 
L 20.553399 68.860457 
L 21.370818 69.580987 
L 22.326414 70.15008 
L 23.282011 70.719172 
L 24.237607 71.288265 
L 25.193204 71.857358 
L 26.91159 72.934247 
L 28.629977 74.011136 
L 30.368046 74.824512 
L 32.106115 75.637888 
L 33.844184 76.451264 
L 35.582253 77.26464 
" style="fill:none;stroke:#4169e1;stroke-linecap:square;stroke-width:0.4;"/>
   </g>
   <g id="line2d_10">
    <path clip-path="url(#p5c0638d80f)" d="M 26.205437 6.479604 
L 25.191597 8.040853 
L 25.635051 9.537801 
L 26.078506 11.034749 
L 25.483216 12.071376 
L 24.887927 13.108002 
L 23.090008 14.264816 
L 21.292088 15.421631 
L 20.08986 16.002141 
L 18.887632 16.582652 
L 17.685404 17.163163 
L 16.483176 17.743673 
L 15.677406 18.954272 
L 14.871636 20.164871 
L 14.065867 21.37547 
L 13.260097 22.586069 
L 13.082554 24.144614 
L 12.905012 25.703159 
L 12.727469 27.261704 
L 12.549927 28.820248 
L 13.083358 30.288652 
L 13.616788 31.757055 
L 14.150219 33.225458 
L 14.68365 34.693862 
L 15.803936 36.460633 
L 16.924221 38.227405 
L 18.044506 39.994176 
L 19.164791 41.760947 
L 19.392142 43.570987 
L 19.619493 45.381026 
L 19.846844 47.191065 
L 20.074195 49.001105 
L 20.585132 50.211704 
L 21.096068 51.422303 
L 21.607005 52.632902 
L 22.117942 53.843501 
L 23.118928 55.684188 
L 24.119915 57.524875 
L 25.120901 59.365563 
L 26.121888 61.20625 
L 26.89713 62.508493 
L 27.672372 63.810735 
L 28.447614 65.112978 
L 29.222856 66.415221 
L 30.192913 67.306719 
L 31.16297 68.198218 
L 32.133027 69.089716 
L 33.103084 69.981215 
" style="fill:none;stroke:#4169e1;stroke-linecap:square;stroke-width:0.4;"/>
   </g>
   <g id="line2d_11">
    <path clip-path="url(#p5c0638d80f)" d="M 35.169326 8.499973 
L 36.706957 8.904107 
L 38.244587 9.308241 
L 39.782218 9.712375 
L 41.319849 10.116509 
L 41.748843 11.081623 
L 42.540152 12.86462 
L 43.331462 14.647617 
L 44.122771 16.430614 
L 44.914081 18.21361 
L 45.736721 19.875818 
L 46.559362 21.538025 
L 47.540264 23.272346 
L 48.521166 25.006666 
L 49.277931 26.530056 
L 50.034696 28.053445 
L 50.701485 29.001132 
L 51.368274 29.948819 
L 52.46486 31.624848 
L 53.561446 33.300877 
L 54.850838 34.784003 
L 56.140231 36.26713 
L 56.559183 37.298648 
L 56.978135 38.330166 
L 57.397087 39.361684 
L 57.81604 40.393202 
L 57.81604 41.682825 
L 57.81604 42.972448 
L 57.81604 44.262071 
L 57.81604 45.551694 
L 57.81604 47.163422 
L 57.81604 48.77515 
" style="fill:none;stroke:#008000;stroke-linecap:square;stroke-width:0.4;"/>
   </g>
   <g id="line2d_12">
    <path clip-path="url(#p5c0638d80f)" d="M 46.91766 45.027672 
L 46.942163 46.350347 
L 46.966665 47.673021 
L 46.991168 48.995696 
L 47.01567 50.318371 
L 47.040172 51.641046 
L 47.064675 52.963721 
L 47.089177 54.286395 
L 47.11368 55.60907 
L 46.887936 57.317851 
L 46.662192 59.026631 
L 46.436448 60.735411 
L 46.210703 62.444192 
L 46.430824 64.340767 
L 46.643714 66.164628 
L 46.856605 67.988489 
L 47.114483 69.696969 
L 47.372362 71.405449 
L 47.63024 73.113929 
L 47.888119 74.822409 
L 48.113461 76.917896 
L 48.338804 79.013383 
L 48.564146 81.10887 
L 48.789488 83.204357 
L 48.950964 84.751784 
L 49.112439 86.299212 
L 49.273914 87.846639 
L 49.43539 89.394066 
L 49.628598 91.134997 
L 49.821806 92.875928 
L 50.015014 94.616859 
L 50.208222 96.35779 
" style="fill:none;stroke:#008000;stroke-linecap:square;stroke-width:0.4;"/>
   </g>
   <g id="line2d_13">
    <path clip-path="url(#p5c0638d80f)" d="M 33.103084 69.981215 
L 33.66142 71.692699 
L 34.219755 73.404184 
L 34.901004 75.334412 
L 35.582253 77.26464 
L 35.767026 77.788662 
L 36.089173 79.174736 
L 36.41132 80.56081 
L 36.733468 81.946884 
L 37.055615 83.332959 
L 37.249225 84.848236 
L 37.442834 86.363512 
L 37.636444 87.878789 
L 37.830054 89.394066 
L 37.926859 90.554487 
L 38.023663 91.714907 
L 38.120468 92.875327 
L 38.217273 94.035747 
L 38.217273 95.228619 
L 38.217273 96.42149 
L 38.217273 97.614361 
L 38.217273 98.807232 
L 38.602886 99.322841 
" style="fill:none;stroke:#008000;stroke-linecap:square;stroke-width:0.4;"/>
   </g>
   <g id="line2d_14">
    <path clip-path="url(#p5c0638d80f)" d="M 46.91766 45.027672 
L 45.209717 46.11658 
L 43.501774 47.205488 
L 42.600404 47.743933 
L 41.053133 48.77515 
L 39.505862 49.806368 
L 38.990105 51.289494 
L 38.474348 52.772621 
L 38.867995 53.949867 
L 39.261641 55.127114 
L 39.922404 55.996077 
L 40.583168 56.86504 
L 41.243931 57.734003 
L 41.904695 58.602966 
L 43.036227 60.037417 
L 44.167759 61.471867 
L 45.299292 62.906317 
L 46.430824 64.340767 
" style="fill:none;stroke:#008000;stroke-linecap:square;stroke-width:0.4;"/>
   </g>
   <g id="line2d_15">
    <path clip-path="url(#p5c0638d80f)" d="M 33.043636 8.670641 
L 32.129412 9.659793 
L 31.215189 10.648944 
L 31.605622 11.790134 
L 31.996055 12.931324 
L 32.386487 14.072515 
L 32.77692 15.213705 
L 33.473433 16.259044 
L 34.169946 17.304384 
L 34.866459 18.349724 
L 35.562972 19.395064 
L 36.518167 20.184402 
L 37.473362 20.97374 
L 38.428557 21.763078 
L 39.383752 22.552416 
L 40.478329 23.466751 
L 41.572907 24.381085 
L 42.667485 25.295419 
L 43.762063 26.209753 
L 44.664236 27.563677 
L 45.566409 28.917601 
L 46.022316 30.73996 
L 46.478222 32.562318 
L 46.934129 34.384677 
L 47.390036 36.207035 
L 47.398069 37.33831 
L 47.406103 38.469585 
L 47.414136 39.600859 
L 47.42217 40.732134 
L 47.169915 42.879903 
L 46.91766 45.027672 
" style="fill:none;stroke:#008000;stroke-linecap:square;stroke-width:0.4;"/>
   </g>
   <g id="line2d_16">
    <path clip-path="url(#p5c0638d80f)" d="M 13.45933 68.375496 
L 13.932107 69.422638 
L 14.404884 70.469781 
L 14.877662 71.516924 
L 15.350439 72.564066 
L 15.650896 72.759974 
L 16.199189 73.791492 
L 16.747482 74.82301 
L 17.295775 75.854528 
L 17.844068 76.886046 
L 18.327289 78.014316 
L 18.81051 79.142585 
L 19.293731 80.270855 
L 19.776952 81.399125 
L 20.22844 82.463094 
L 20.679928 83.527063 
L 21.131416 84.591032 
L 21.582905 85.655001 
L 22.292271 87.073226 
L 23.001638 88.49145 
L 23.711005 89.909675 
L 24.420371 91.3279 
L 25.258276 93.133131 
L 26.09618 94.938363 
L 27.353438 95.712077 
L 28.610696 96.485791 
L 29.867954 97.259504 
L 31.125213 98.033218 
L 32.156727 98.420225 
" style="fill:none;stroke:#008000;stroke-linecap:square;stroke-width:0.4;"/>
   </g>
   <g id="line2d_17">
    <path clip-path="url(#p5c0638d80f)" d="M 26.078506 11.034749 
L 26.68906 12.308748 
L 27.299613 13.582746 
L 28.159208 15.377161 
L 28.481355 16.537882 
L 28.803503 17.698603 
L 29.12565 18.859323 
L 29.447797 20.020044 
L 29.383528 21.50287 
L 29.31926 22.985696 
L 29.254991 24.468522 
L 29.190722 25.951348 
L 28.997112 27.369873 
L 28.803503 28.788398 
L 28.609893 30.206923 
L 28.416283 31.625449 
L 28.577759 33.108275 
L 28.739234 34.591101 
L 28.900709 36.073927 
L 29.062185 37.556753 
L 29.803686 38.878526 
L 30.545187 40.200299 
L 31.286688 41.522073 
L 32.028189 42.843846 
L 32.777322 44.296024 
L 33.526455 45.748202 
L 34.275588 47.20038 
L 35.024721 48.652558 
L 35.049224 49.940378 
L 35.073726 51.228198 
L 35.098229 52.516018 
L 35.122731 53.803838 
L 34.993792 54.932108 
L 34.864853 56.060378 
L 34.735913 57.188648 
L 34.606974 58.316918 
L 34.73752 59.662729 
L 34.868066 61.00854 
L 34.998612 62.354351 
L 35.129158 63.700162 
L 34.62264 65.270425 
L 34.116121 66.840688 
L 33.609603 68.410951 
L 33.103084 69.981215 
" style="fill:none;stroke:#008000;stroke-linecap:square;stroke-width:0.4;"/>
   </g>
   <g id="line2d_18">
    <path clip-path="url(#p5c0638d80f)" d="M 15.350439 72.564066 
L 16.521938 73.227357 
L 17.693438 73.890647 
L 18.864937 74.553938 
L 20.036437 75.217228 
L 21.207936 75.880518 
L 22.379436 76.543809 
L 23.550935 77.207099 
L 24.722435 77.87039 
L 25.336603 79.066566 
L 25.950772 80.262743 
L 26.56494 81.458919 
L 27.179109 82.655095 
L 27.674782 84.521022 
L 28.170455 86.386949 
L 28.695049 87.943391 
L 29.219643 89.499832 
L 29.964358 90.738375 
L 30.709072 91.976918 
L 31.393535 92.988905 
L 32.077997 94.000893 
" style="fill:none;stroke:#008000;stroke-linecap:square;stroke-width:0.4;"/>
   </g>
   <g id="line2d_19">
    <path clip-path="url(#p5c0638d80f)" d="M 57.81604 48.77515 
L 57.849781 49.868866 
L 57.883522 50.962581 
L 58.092395 52.640113 
L 58.301269 54.317644 
L 58.510142 55.995176 
L 58.719016 57.672707 
L 59.170504 59.671442 
L 59.621992 61.670178 
L 59.766999 63.346507 
L 59.912005 65.022837 
L 60.057012 66.699166 
L 60.202018 68.375496 
L 60.347025 70.051825 
L 60.492031 71.728155 
L 60.637038 73.404485 
L 60.782044 75.080814 
L 60.653105 76.337986 
L 60.524166 77.595158 
L 60.395226 78.85233 
L 60.266287 80.109502 
L 59.960006 81.65693 
L 59.653725 83.204357 
L 59.347444 84.751784 
L 59.041163 86.299212 
L 58.734882 87.846639 
L 58.428601 89.394066 
L 58.12232 90.941494 
L 57.81604 92.488921 
L 57.62243 94.100649 
L 57.42882 95.712377 
" style="fill:none;stroke:#4169e1;stroke-linecap:square;stroke-width:0.4;"/>
   </g>
   <g id="line2d_20">
    <path clip-path="url(#p5c0638d80f)" d="M 67.003263 93.517735 
L 67.951227 94.552558 
L 68.066911 95.988811 
L 67.692545 97.915433 
L 66.887579 98.51878 
" style="fill:none;stroke:#008000;stroke-linecap:square;stroke-width:0.4;"/>
   </g>
   <g id="line2d_21">
    <path clip-path="url(#p5c0638d80f)" d="M 66.974342 81.388308 
L 67.922306 82.710382 
L 68.43967 84.579314 
L 68.583471 86.073858 
L 68.727273 87.568402 
L 68.468591 89.378442 
L 67.994609 90.44211 
L 67.520626 91.505779 
L 67.003263 93.517735 
" style="fill:none;stroke:#008000;stroke-linecap:square;stroke-width:0.4;"/>
   </g>
   <g id="line2d_22">
    <path clip-path="url(#p5c0638d80f)" d="M 46.691113 9.344899 
L 44.737342 9.306438 
L 43.244699 9.804019 
L 41.748843 11.081623 
" style="fill:none;stroke:#008000;stroke-linecap:square;stroke-width:0.4;"/>
   </g>
  </g>
 </g>
 <defs>
  <clipPath id="p5c0638d80f">
   <rect height="104.0525" width="72" x="0" y="0"/>
  </clipPath>
 </defs>
</svg>
