<?xml version="1.0" encoding="utf-8" standalone="no"?>
<!DOCTYPE svg PUBLIC "-//W3C//DTD SVG 1.1//EN"
  "http://www.w3.org/Graphics/SVG/1.1/DTD/svg11.dtd">
<svg xmlns:xlink="http://www.w3.org/1999/xlink" width="72pt" height="84.1674pt" viewBox="0 0 72 84.1674" xmlns="http://www.w3.org/2000/svg" version="1.1">
 <metadata>
  <rdf:RDF xmlns:dc="http://purl.org/dc/elements/1.1/" xmlns:cc="http://creativecommons.org/ns#" xmlns:rdf="http://www.w3.org/1999/02/22-rdf-syntax-ns#">
   <cc:Work>
    <dc:type rdf:resource="http://purl.org/dc/dcmitype/StillImage"/>
    <dc:date>2022-05-17T17:21:45.516122</dc:date>
    <dc:format>image/svg+xml</dc:format>
    <dc:creator>
     <cc:Agent>
      <dc:title>Matplotlib v3.5.2, https://matplotlib.org/</dc:title>
     </cc:Agent>
    </dc:creator>
   </cc:Work>
  </rdf:RDF>
 </metadata>
 <defs>
  <style type="text/css">*{stroke-linejoin: round; stroke-linecap: butt}</style>
 </defs>
 <g id="figure_1">
  <g id="patch_1">
   <path d="M 0 84.1674 
L 72 84.1674 
L 72 0 
L 0 0 
z
" style="fill: #ffffff"/>
  </g>
  <g id="axes_1">
   <g id="line2d_1">
    <path d="M 38.713732 76.955347 
L 41.967919 73.152394 
L 44.49267 70.201282 
L 47.017421 67.250171 
L 49.409026 64.455185 
L 51.800632 61.6602 
L 55.643236 57.168392 
L 57.949657 54.472568 
L 60.256078 51.776744 
L 63.205319 48.330352 
L 66.154561 44.88396 
" clip-path="url(#p18ea05d6d1)" style="fill: none; stroke: #808080; stroke-width: 0.4; stroke-linecap: square"/>
   </g>
   <g id="line2d_2">
    <path d="M 34.831041 70.682849 
L 38.934209 66.917874 
L 42.383103 63.752088 
L 46.64805 59.83837 
L 50.925881 55.913048 
L 54.622455 52.521511 
L 57.001175 50.338374 
L 59.379896 48.155237 
L 62.206013 45.562267 
L 64.287662 43.651824 
" clip-path="url(#p18ea05d6d1)" style="fill: none; stroke: #808080; stroke-width: 0.4; stroke-linecap: square"/>
   </g>
   <g id="line2d_3">
    <path d="M 36.99859 4.561063 
L 40.302886 8.532801 
L 44.013776 12.992963 
L 47.833473 17.584988 
L 49.99959 20.189561 
L 52.165708 22.794135 
L 54.48573 25.583318 
L 56.805752 28.372502 
L 58.944668 30.943846 
L 61.083584 33.51519 
L 63.305536 36.186751 
L 65.527489 38.858311 
L 67.83391 41.629561 
" clip-path="url(#p18ea05d6d1)" style="fill: none; stroke: #808080; stroke-width: 0.4; stroke-linecap: square"/>
   </g>
   <g id="line2d_4">
    <path d="M 11.13403 54.647156 
L 12.793336 52.24196 
L 14.679562 49.509214 
L 16.565788 46.776469 
L 18.827112 43.500445 
L 21.088435 40.22442 
L 23.202297 37.162015 
L 25.316159 34.09961 
L 26.886701 31.824169 
" clip-path="url(#p18ea05d6d1)" style="fill: none; stroke: #808080; stroke-width: 0.4; stroke-linecap: square"/>
   </g>
   <g id="line2d_5">
    <path d="M 4.365092 8.977973 
L 8.264962 11.631073 
L 11.651579 13.935525 
L 15.038196 16.239977 
L 18.807068 18.804464 
L 22.575941 21.368951 
L 25.272493 23.202913 
L 27.969044 25.036875 
" clip-path="url(#p18ea05d6d1)" style="fill: none; stroke: #808080; stroke-width: 0.4; stroke-linecap: square"/>
   </g>
   <g id="line2d_6">
    <path d="M 29.354901 58.996551 
L 32.100129 55.409328 
L 34.845358 51.822106 
" clip-path="url(#p18ea05d6d1)" style="fill: none; stroke: #808080; stroke-width: 0.4; stroke-linecap: square"/>
   </g>
   <g id="line2d_7">
    <path d="M 29.622624 73.743144 
L 29.804446 80.164384 
" clip-path="url(#p18ea05d6d1)" style="fill: none; stroke: #808080; stroke-width: 0.4; stroke-linecap: square"/>
   </g>
   <g id="line2d_8">
    <path d="M 29.861713 65.141405 
L 34.481355 61.141448 
L 39.100998 57.141491 
L 43.720641 53.141535 
L 48.340284 49.141578 
" clip-path="url(#p18ea05d6d1)" style="fill: none; stroke: #808080; stroke-width: 0.4; stroke-linecap: square"/>
   </g>
   <g id="line2d_9">
    <path d="M 22.973946 62.562149 
L 26.246744 57.269136 
L 29.519543 51.976122 
L 32.792342 46.683109 
L 36.065141 41.390096 
" clip-path="url(#p18ea05d6d1)" style="fill: none; stroke: #808080; stroke-width: 0.4; stroke-linecap: square"/>
   </g>
   <g id="line2d_10">
    <path d="M 28.369912 7.643512 
L 24.932113 8.267228 
L 21.494314 8.890943 
L 18.056515 9.514659 
L 14.618716 10.138375 
" clip-path="url(#p18ea05d6d1)" style="fill: none; stroke: #808080; stroke-width: 0.4; stroke-linecap: square"/>
   </g>
   <g id="line2d_11">
    <path d="M 28.060671 80.341609 
L 27.785074 78.588875 
L 27.509478 76.836142 
L 27.653361 75.582381 
L 27.797244 74.32862 
" clip-path="url(#p18ea05d6d1)" style="fill: none; stroke: #008000; stroke-width: 0.4; stroke-linecap: square"/>
   </g>
   <g id="line2d_12">
    <path d="M 32.278372 80.151725 
L 32.345661 78.56514 
L 32.412949 76.978555 
L 32.072212 75.494823 
L 31.731474 74.011091 
" clip-path="url(#p18ea05d6d1)" style="fill: none; stroke: #008000; stroke-width: 0.4; stroke-linecap: square"/>
   </g>
   <g id="line2d_13">
    <path d="M 67.016426 45.703625 
L 66.414319 46.587014 
L 65.812213 47.470402 
L 65.210106 48.353791 
L 64.607999 49.237179 
L 64.005892 50.120568 
L 63.403785 51.003957 
L 62.801678 51.887345 
L 62.199571 52.770734 
L 61.597464 53.654122 
L 60.995357 54.537511 
L 60.39325 55.4209 
L 59.791143 56.304288 
L 59.189036 57.187677 
L 58.586929 58.071065 
L 57.984822 58.954454 
L 57.382715 59.837842 
L 56.780608 60.721231 
L 56.178501 61.60462 
L 55.576395 62.488008 
L 54.974288 63.371397 
L 54.372181 64.254785 
L 53.770074 65.138174 
L 53.167967 66.021563 
L 52.56586 66.904951 
L 51.963753 67.78834 
L 51.361646 68.671728 
L 50.759539 69.555117 
L 50.157432 70.438505 
L 49.555325 71.321894 
L 48.953218 72.205283 
L 48.351111 73.088671 
L 47.749004 73.97206 
L 46.771889 74.490548 
L 45.794774 75.009037 
L 44.817659 75.527525 
L 43.840544 76.046014 
L 42.863429 76.564502 
L 41.886313 77.082991 
L 40.909198 77.601479 
L 39.932083 78.119968 
" clip-path="url(#p18ea05d6d1)" style="fill: none; stroke: #008000; stroke-width: 0.4; stroke-linecap: square"/>
   </g>
   <g id="line2d_14">
    <path d="M 65.045016 44.457776 
L 64.143332 45.397437 
L 63.241648 46.337099 
L 62.339964 47.27676 
L 61.43828 48.216422 
L 60.536596 49.156083 
L 59.634912 50.095745 
L 58.733228 51.035406 
L 57.831544 51.975068 
L 56.92986 52.914729 
L 56.028176 53.85439 
L 55.126492 54.794052 
L 54.224808 55.733713 
L 53.323124 56.673375 
L 52.42144 57.613036 
L 51.519756 58.552698 
L 50.618072 59.492359 
L 49.716388 60.432021 
L 48.814704 61.371682 
L 47.91302 62.311344 
L 47.011336 63.251005 
L 46.109652 64.190667 
L 45.207968 65.130328 
L 44.306284 66.06999 
L 43.4046 67.009651 
L 42.502916 67.949312 
L 41.601232 68.888974 
L 40.699548 69.828635 
L 39.797864 70.768297 
L 38.89618 71.707958 
L 37.994496 72.64762 
L 37.092812 73.587281 
L 36.191128 74.526943 
" clip-path="url(#p18ea05d6d1)" style="fill: none; stroke: #008000; stroke-width: 0.4; stroke-linecap: square"/>
   </g>
   <g id="line2d_15">
    <path d="M 63.451567 42.70135 
L 62.426893 43.613913 
L 61.40222 44.526477 
L 60.377546 45.43904 
L 59.352873 46.351604 
L 58.3282 47.264167 
L 57.303526 48.176731 
L 56.278853 49.089294 
L 55.254179 50.001858 
L 54.229506 50.914421 
L 53.204832 51.826985 
L 52.180159 52.739548 
L 51.155485 53.652111 
L 50.130812 54.564675 
L 49.106138 55.477238 
L 48.081465 56.389802 
L 47.056792 57.302365 
L 46.032118 58.214929 
L 45.007445 59.127492 
L 43.982771 60.040056 
L 42.958098 60.952619 
L 41.933424 61.865182 
L 40.908751 62.777746 
L 39.884077 63.690309 
L 38.859404 64.602873 
L 37.834731 65.515436 
L 36.810057 66.428 
L 35.785384 67.340563 
L 34.76071 68.253127 
L 33.736037 69.16569 
L 32.711363 70.078254 
L 31.68669 70.990817 
L 30.662016 71.90338 
" clip-path="url(#p18ea05d6d1)" style="fill: none; stroke: #008000; stroke-width: 0.4; stroke-linecap: square"/>
   </g>
   <g id="line2d_16">
    <path d="M 63.085059 42.279386 
L 61.896236 43.127006 
L 60.707412 43.974627 
L 59.518589 44.822247 
L 58.329765 45.669868 
L 57.140942 46.517488 
L 55.952119 47.365109 
L 54.763295 48.21273 
L 53.574472 49.06035 
L 52.518973 48.814028 
L 51.463474 48.567707 
L 50.407974 48.321385 
L 49.352475 48.075064 
L 48.009926 47.23641 
L 46.667377 46.397756 
L 45.324828 45.559102 
L 43.982279 44.720449 
L 42.63973 43.881795 
L 41.297181 43.043141 
L 39.954632 42.204487 
L 38.612083 41.365833 
L 37.481063 40.939122 
L 36.350043 40.512411 
" clip-path="url(#p18ea05d6d1)" style="fill: none; stroke: #008000; stroke-width: 0.4; stroke-linecap: square"/>
   </g>
   <g id="line2d_17">
    <path d="M 49.194992 50.352615 
L 48.017085 51.362165 
L 46.839178 52.371714 
L 45.661271 53.381263 
L 44.483364 54.390812 
L 43.305457 55.400362 
L 42.12755 56.409911 
L 40.949643 57.41946 
L 39.771736 58.42901 
L 38.593829 59.438559 
L 37.415922 60.448108 
L 36.238015 61.457657 
L 35.060108 62.467207 
L 33.882201 63.476756 
L 32.704294 64.486305 
L 31.526387 65.495855 
L 30.348481 66.505404 
" clip-path="url(#p18ea05d6d1)" style="fill: none; stroke: #008000; stroke-width: 0.4; stroke-linecap: square"/>
   </g>
   <g id="line2d_18">
    <path d="M 47.253646 48.348286 
L 46.074845 49.36456 
L 44.896043 50.380834 
L 43.717241 51.397109 
L 42.538439 52.413383 
L 41.359638 53.429657 
L 40.180836 54.445932 
L 39.002034 55.462206 
L 37.823232 56.47848 
L 36.644431 57.494755 
L 35.465629 58.511029 
L 34.286827 59.527303 
L 33.108026 60.543578 
L 31.929224 61.559852 
L 30.750422 62.576126 
L 29.57162 63.592401 
L 28.392819 64.608675 
" clip-path="url(#p18ea05d6d1)" style="fill: none; stroke: #008000; stroke-width: 0.4; stroke-linecap: square"/>
   </g>
   <g id="line2d_19">
    <path d="M 35.804577 52.400196 
L 35.120417 53.309529 
L 34.436258 54.218862 
L 33.752098 55.128195 
L 33.067939 56.037528 
L 32.383779 56.94686 
L 31.69962 57.856193 
L 31.01546 58.765526 
L 30.3313 59.674859 
" clip-path="url(#p18ea05d6d1)" style="fill: none; stroke: #008000; stroke-width: 0.4; stroke-linecap: square"/>
   </g>
   <g id="line2d_20">
    <path d="M 33.674251 51.014044 
L 33.038947 51.901092 
L 32.403644 52.78814 
L 31.76834 53.675188 
L 31.133036 54.562235 
L 30.497732 55.449283 
L 29.862428 56.336331 
L 29.227125 57.223379 
L 28.591821 58.110427 
" clip-path="url(#p18ea05d6d1)" style="fill: none; stroke: #008000; stroke-width: 0.4; stroke-linecap: square"/>
   </g>
   <g id="line2d_21">
    <path d="M 37.091649 41.651714 
L 37.386931 42.778358 
L 37.682213 43.905003 
L 37.977495 45.031647 
L 38.272777 46.158291 
L 37.544773 47.35667 
L 36.816768 48.555048 
L 36.088764 49.753426 
L 35.360759 50.951804 
" clip-path="url(#p18ea05d6d1)" style="fill: none; stroke: #008000; stroke-width: 0.4; stroke-linecap: square"/>
   </g>
   <g id="line2d_22">
    <path d="M 35.360759 40.572541 
L 34.47205 41.905684 
L 33.58334 43.238827 
L 32.694631 44.57197 
L 31.805921 45.905113 
L 30.917212 47.238256 
L 30.028502 48.571399 
L 29.139793 49.904542 
L 28.251083 51.237685 
L 27.362374 52.570828 
L 26.473664 53.903971 
L 25.584955 55.237114 
L 24.696245 56.570257 
L 23.807536 57.9034 
L 22.918826 59.236543 
L 22.030117 60.569687 
L 21.141407 61.90283 
" clip-path="url(#p18ea05d6d1)" style="fill: none; stroke: #008000; stroke-width: 0.4; stroke-linecap: square"/>
   </g>
   <g id="line2d_23">
    <path d="M 29.963361 26.757434 
L 30.810194 27.339217 
L 31.657027 27.921 
L 31.867125 28.985141 
L 32.077223 30.049282 
L 32.28732 31.113423 
L 32.497418 32.177564 
L 32.086708 33.379634 
L 31.675997 34.581704 
L 31.265287 35.783775 
L 30.854576 36.985845 
L 30.443866 38.187916 
L 30.033155 39.389986 
L 29.622445 40.592057 
L 29.211734 41.794127 
L 28.562561 42.922552 
L 27.913388 44.050976 
L 27.264215 45.179401 
L 26.615042 46.307825 
L 25.965869 47.43625 
L 25.316695 48.564674 
L 24.667522 49.693099 
L 24.018349 50.821523 
L 23.369176 51.949948 
L 22.720003 53.078372 
L 22.07083 54.206797 
L 21.421657 55.335221 
L 20.772484 56.463646 
L 20.123311 57.59207 
L 19.474137 58.720495 
L 18.824964 59.848919 
" clip-path="url(#p18ea05d6d1)" style="fill: none; stroke: #008000; stroke-width: 0.4; stroke-linecap: square"/>
   </g>
   <g id="line2d_24">
    <path d="M 28.017721 32.33158 
L 27.147086 33.797115 
L 26.276452 35.262649 
L 25.405817 36.728183 
L 24.535182 38.193718 
L 23.664548 39.659252 
L 22.793913 41.124786 
L 21.923278 42.590321 
L 21.052644 44.055855 
L 20.182009 45.521389 
L 19.311374 46.986924 
L 18.44074 48.452458 
L 17.570105 49.917992 
L 16.69947 51.383527 
L 15.828836 52.849061 
L 14.958201 54.314595 
L 14.087567 55.780129 
" clip-path="url(#p18ea05d6d1)" style="fill: none; stroke: #4169e1; stroke-width: 0.4; stroke-linecap: square"/>
   </g>
   <g id="line2d_25">
    <path d="M 25.463621 38.158906 
L 26.020183 39.270518 
L 26.576745 40.382129 
L 27.133306 41.493741 
L 27.689868 42.605353 
" clip-path="url(#p18ea05d6d1)" style="fill: none; stroke: #4169e1; stroke-width: 0.4; stroke-linecap: square"/>
   </g>
   <g id="line2d_26">
    <path d="M 25.327612 30.87053 
L 24.350765 32.215474 
L 23.373919 33.560419 
L 22.397072 34.905364 
L 21.420225 36.250309 
L 20.443378 37.595254 
L 19.466532 38.940199 
L 18.489685 40.285144 
L 17.512838 41.630088 
L 16.535992 42.975033 
L 15.559145 44.319978 
L 14.582298 45.664923 
L 13.605451 47.009868 
L 12.628605 48.354813 
L 11.651758 49.699758 
L 10.674911 51.044703 
L 9.698065 52.389647 
" clip-path="url(#p18ea05d6d1)" style="fill: none; stroke: #4169e1; stroke-width: 0.4; stroke-linecap: square"/>
   </g>
   <g id="line2d_27">
    <path d="M 24.971126 30.330415 
L 23.247395 29.778038 
L 21.523663 29.22566 
L 19.799932 28.673283 
L 18.076201 28.120906 
L 16.352469 27.568528 
L 14.628738 27.016151 
L 12.905007 26.463773 
L 11.181275 25.911396 
L 10.686991 25.025073 
L 10.192707 24.138751 
L 9.698423 23.252428 
L 9.204138 22.366105 
L 8.709854 21.479783 
L 8.21557 20.59346 
L 7.721286 19.707138 
L 7.227001 18.820815 
L 6.732717 17.934493 
L 6.238433 17.04817 
L 5.744149 16.161848 
L 5.249864 15.275525 
L 4.75558 14.389202 
L 4.261296 13.50288 
L 3.767012 12.616557 
L 3.272727 11.730235 
" clip-path="url(#p18ea05d6d1)" style="fill: none; stroke: #4169e1; stroke-width: 0.4; stroke-linecap: square"/>
   </g>
   <g id="line2d_28">
    <path d="M 25.387742 26.688865 
L 24.075974 25.682414 
L 22.764206 24.675964 
L 21.452438 23.669513 
L 20.14067 22.663063 
L 18.828901 21.656612 
L 17.517133 20.650162 
L 16.205365 19.643711 
L 14.893597 18.637261 
L 13.581829 17.63081 
L 12.270061 16.62436 
L 10.958293 15.617909 
L 9.646525 14.611459 
L 8.334756 13.605008 
L 7.022988 12.598558 
L 5.71122 11.592107 
L 4.399452 10.585657 
" clip-path="url(#p18ea05d6d1)" style="fill: none; stroke: #4169e1; stroke-width: 0.4; stroke-linecap: square"/>
   </g>
   <g id="line2d_29">
    <path d="M 28.241062 24.057918 
L 26.846078 23.042303 
L 25.451094 22.026688 
L 24.05611 21.011073 
L 22.661126 19.995458 
L 21.266142 18.979843 
L 19.871158 17.964228 
L 18.476174 16.948613 
L 17.08119 15.932998 
L 15.686206 14.917383 
L 14.291222 13.901768 
L 12.896238 12.886153 
L 11.501254 11.870538 
L 10.10627 10.854923 
L 8.711286 9.839308 
L 7.316302 8.823693 
L 5.921318 7.808078 
" clip-path="url(#p18ea05d6d1)" style="fill: none; stroke: #008000; stroke-width: 0.4; stroke-linecap: square"/>
   </g>
   <g id="line2d_30">
    <path d="M 68.727273 40.687526 
L 67.783981 39.535597 
L 66.840689 38.383668 
L 65.897397 37.231738 
L 64.954105 36.079809 
L 64.010813 34.92788 
L 63.067521 33.775951 
L 62.124229 32.624021 
L 61.180937 31.472092 
L 60.237645 30.320163 
L 59.294353 29.168234 
L 58.351062 28.016305 
L 57.40777 26.864375 
L 56.464478 25.712446 
L 55.521186 24.560517 
L 54.577894 23.408588 
L 53.634602 22.256658 
L 52.69131 21.104729 
L 51.748018 19.9528 
L 50.804726 18.800871 
L 49.861434 17.648942 
L 48.918142 16.497012 
L 47.97485 15.345083 
L 47.031558 14.193154 
L 46.088266 13.041225 
L 45.144975 11.889295 
L 44.201683 10.737366 
L 43.258391 9.585437 
L 42.315099 8.433508 
L 41.371807 7.281579 
L 40.428515 6.129649 
L 39.485223 4.97772 
L 38.541931 3.825791 
" clip-path="url(#p18ea05d6d1)" style="fill: none; stroke: #008000; stroke-width: 0.4; stroke-linecap: square"/>
   </g>
   <g id="line2d_31">
    <path d="M 65.652044 42.791017 
L 64.723382 41.652571 
L 63.79472 40.514125 
L 62.866058 39.375679 
L 61.937396 38.237233 
L 61.008734 37.098787 
L 60.080072 35.96034 
L 59.15141 34.821894 
L 58.222748 33.683448 
L 57.294086 32.545002 
L 56.365424 31.406556 
L 55.436762 30.26811 
L 54.5081 29.129664 
L 53.579438 27.991217 
L 52.650776 26.852771 
L 51.722114 25.714325 
L 50.793452 24.575879 
L 49.86479 23.437433 
L 48.936128 22.298987 
L 48.007466 21.160541 
L 47.078804 20.022094 
L 46.150141 18.883648 
L 45.221479 17.745202 
L 44.292817 16.606756 
L 43.364155 15.46831 
L 42.435493 14.329864 
L 41.506831 13.191418 
L 40.578169 12.052971 
L 39.649507 10.914525 
L 38.720845 9.776079 
L 37.792183 8.637633 
L 36.863521 7.499187 
L 35.934859 6.360741 
" clip-path="url(#p18ea05d6d1)" style="fill: none; stroke: #4169e1; stroke-width: 0.4; stroke-linecap: square"/>
   </g>
   <g id="line2d_32">
    <path d="M 62.6484 41.482928 
L 61.286881 41.521169 
L 59.925362 41.559409 
L 58.563844 41.59765 
L 57.202325 41.63589 
L 55.840806 41.674131 
L 54.479288 41.712371 
L 53.117769 41.750612 
L 51.75625 41.788852 
L 51.199151 40.032031 
L 50.642053 38.27521 
L 50.084954 36.518388 
L 49.527855 34.761567 
L 48.970756 33.004745 
L 48.413657 31.247924 
L 47.856559 29.491102 
L 47.29946 27.734281 
L 46.270804 26.472212 
L 45.242149 25.210144 
L 44.213494 23.948075 
L 43.184839 22.686007 
L 42.156183 21.423939 
L 41.127528 20.16187 
L 40.098873 18.899802 
L 39.070217 17.637733 
L 38.63141 16.355094 
L 38.192603 15.072455 
L 37.753796 13.789815 
L 37.314989 12.507176 
L 36.876182 11.224537 
L 36.437375 9.941898 
L 35.998568 8.659259 
L 35.559761 7.376619 
" clip-path="url(#p18ea05d6d1)" style="fill: none; stroke: #4169e1; stroke-width: 0.4; stroke-linecap: square"/>
   </g>
   <g id="line2d_33">
    <path d="M 28.979804 24.312151 
L 29.645709 22.631152 
L 30.311615 20.950152 
L 30.977521 19.269152 
L 31.643427 17.588152 
L 32.309332 15.907153 
L 32.975238 14.226153 
L 33.641144 12.545153 
L 34.30705 10.864153 
" clip-path="url(#p18ea05d6d1)" style="fill: none; stroke: #000000; stroke-width: 0.4; stroke-linecap: square"/>
   </g>
   <g id="line2d_34">
    <path d="M 28.979804 24.312151 
L 28.522385 22.645129 
L 28.064966 20.978107 
L 27.607547 19.311085 
L 27.150129 17.644063 
L 26.69271 15.97704 
L 26.235291 14.310018 
L 25.777872 12.642996 
L 25.320454 10.975974 
" clip-path="url(#p18ea05d6d1)" style="fill: none; stroke: #000000; stroke-width: 0.4; stroke-linecap: square"/>
   </g>
   <g id="line2d_35">
    <path d="M 30.464446 25.358623 
L 31.648974 24.994283 
L 32.833503 24.629943 
L 34.018031 24.265603 
L 35.20256 23.901264 
L 36.387088 23.536924 
L 37.571616 23.172584 
L 38.756145 22.808245 
L 39.940673 22.443905 
" clip-path="url(#p18ea05d6d1)" style="fill: none; stroke: #ff0000; stroke-width: 0.4; stroke-linecap: square"/>
   </g>
   <g id="line2d_36">
    <path d="M 31.764403 27.085511 
L 32.460195 28.260945 
L 33.155986 29.436379 
L 33.851778 30.611813 
L 34.54757 31.787247 
L 34.29846 33.072391 
L 34.049349 34.357536 
L 33.800238 35.642681 
L 33.551128 36.927825 
L 35.042212 37.996977 
L 36.533297 39.066129 
L 37.596313 38.680031 
L 38.659328 38.293934 
L 39.722343 37.907837 
L 40.785359 37.52174 
L 41.121443 36.174092 
L 41.457528 34.826444 
L 41.793613 33.478796 
L 42.129697 32.131148 
L 42.007648 30.899671 
L 41.885598 29.668195 
L 41.763548 28.436719 
L 41.641498 27.205243 
L 41.519448 25.973767 
L 41.397398 24.742291 
L 41.275348 23.510815 
L 41.153298 22.279339 
" clip-path="url(#p18ea05d6d1)" style="fill: none; stroke: #008000; stroke-width: 0.4; stroke-linecap: square"/>
   </g>
  </g>
 </g>
 <defs>
  <clipPath id="p18ea05d6d1">
   <rect x="0" y="0" width="72" height="84.1674"/>
  </clipPath>
 </defs>
</svg>
