<?xml version="1.0" encoding="utf-8" standalone="no"?>
<!DOCTYPE svg PUBLIC "-//W3C//DTD SVG 1.1//EN"
  "http://www.w3.org/Graphics/SVG/1.1/DTD/svg11.dtd">
<svg height="72pt" version="1.1" viewBox="0 0 72.419492 72" width="72.419492pt" xmlns="http://www.w3.org/2000/svg" xmlns:xlink="http://www.w3.org/1999/xlink">
 <metadata>
  <rdf:RDF xmlns:cc="http://creativecommons.org/ns#" xmlns:dc="http://purl.org/dc/elements/1.1/" xmlns:rdf="http://www.w3.org/1999/02/22-rdf-syntax-ns#">
   <cc:Work>
    <dc:type rdf:resource="http://purl.org/dc/dcmitype/StillImage"/>
    <dc:date>2022-04-19T00:46:44.470932</dc:date>
    <dc:format>image/svg+xml</dc:format>
    <dc:creator>
     <cc:Agent>
      <dc:title>Matplotlib v3.4.3, https://matplotlib.org/</dc:title>
     </cc:Agent>
    </dc:creator>
   </cc:Work>
  </rdf:RDF>
 </metadata>
 <defs>
  <style type="text/css">*{stroke-linecap:butt;stroke-linejoin:round;}</style>
 </defs>
 <g id="figure_1">
  <g id="patch_1">
   <path d="M 0 72 
L 72.419492 72 
L 72.419492 0 
L 0 0 
z
" style="fill:#ffffff;"/>
  </g>
  <g id="axes_1">
   <g id="patch_2">
    <path clip-path="url(#pa7ef642e98)" d="M 35.483544 28.360993 
L 35.483544 28.360993 
L 35.35549 28.862842 
L 35.227436 29.364692 
L 35.099383 29.866542 
L 34.971329 30.368392 
L 34.718686 30.673455 
L 34.466044 30.978518 
L 34.213402 31.283581 
L 33.96076 31.588644 
L 33.858255 31.943805 
L 33.755749 32.298966 
L 33.653244 32.654127 
L 33.550738 33.009288 
L 33.448233 33.364449 
L 33.345728 33.71961 
L 33.243222 34.074771 
L 33.140717 34.429932 
L 32.902382 34.854087 
L 32.664047 35.278241 
L 32.425712 35.702396 
L 32.187377 36.12655 
L 31.882749 36.653138 
L 31.578121 37.179726 
L 31.186761 36.815242 
L 30.795401 36.450757 
L 30.9622 36.145694 
L 31.128999 35.840631 
L 31.295798 35.535568 
L 31.462597 35.230505 
L 31.80597 34.820522 
L 32.149343 34.410539 
L 32.263623 33.876741 
L 32.377903 33.342943 
L 32.497159 32.975972 
L 32.616416 32.609002 
L 32.735672 32.242031 
L 32.854928 31.87506 
L 32.921577 31.483973 
L 32.988225 31.092886 
L 33.426861 30.82636 
L 33.388649 30.340049 
L 33.350438 29.853738 
L 33.678703 29.396143 
L 34.006969 28.938549 
L 34.335235 28.480954 
L 34.663501 28.02336 
z
" style="opacity:0.1;"/>
   </g>
   <g id="patch_3">
    <path clip-path="url(#pa7ef642e98)" d="M 35.483544 28.360993 
L 35.483544 28.360993 
L 35.35549 28.862842 
L 35.227436 29.364692 
L 35.099383 29.866542 
L 34.971329 30.368392 
L 34.718686 30.673455 
L 34.466044 30.978518 
L 34.213402 31.283581 
L 33.96076 31.588644 
L 33.858255 31.943805 
L 33.755749 32.298966 
L 33.653244 32.654127 
L 33.550738 33.009288 
L 33.448233 33.364449 
L 33.345728 33.71961 
L 33.243222 34.074771 
L 33.140717 34.429932 
L 32.902382 34.854087 
L 32.664047 35.278241 
L 32.425712 35.702396 
L 32.187377 36.12655 
L 31.882749 36.653138 
L 31.578121 37.179726 
L 31.186761 36.815242 
L 30.795401 36.450757 
L 30.9622 36.145694 
L 31.128999 35.840631 
L 31.295798 35.535568 
L 31.462597 35.230505 
L 31.80597 34.820522 
L 32.149343 34.410539 
L 32.263623 33.876741 
L 32.377903 33.342943 
L 32.497159 32.975972 
L 32.616416 32.609002 
L 32.735672 32.242031 
L 32.854928 31.87506 
L 32.921577 31.483973 
L 32.988225 31.092886 
L 33.426861 30.82636 
L 33.388649 30.340049 
L 33.350438 29.853738 
L 33.678703 29.396143 
L 34.006969 28.938549 
L 34.335235 28.480954 
L 34.663501 28.02336 
z
" style="fill:none;stroke:#000000;stroke-dasharray:1.48,0.64;stroke-dashoffset:0;stroke-linejoin:miter;stroke-width:0.4;"/>
   </g>
   <g id="patch_4">
    <path clip-path="url(#pa7ef642e98)" d="M 37.211428 13.906424 
L 37.211428 13.906424 
L 37.185213 14.330703 
L 37.158998 14.754982 
L 37.132783 15.179261 
L 37.106568 15.60354 
L 37.035032 15.980082 
L 36.963496 16.356625 
L 36.89196 16.733168 
L 36.820424 17.109711 
L 36.634519 17.476806 
L 36.448614 17.843901 
L 36.26271 18.210996 
L 36.076805 18.578091 
L 35.857576 19.059553 
L 35.638347 19.541016 
L 35.419117 20.022478 
L 35.199888 20.503941 
L 35.209308 20.85674 
L 35.218728 21.209539 
L 35.082232 21.777648 
L 34.945736 22.345756 
L 34.809239 22.913865 
L 34.672743 23.481973 
L 34.060644 23.30346 
L 33.803292 23.026989 
L 33.54594 22.750518 
L 33.288588 22.474047 
L 33.031236 22.197575 
L 32.648051 21.896242 
L 32.875989 21.386063 
L 33.103927 20.875884 
L 33.331865 20.365705 
L 33.559803 19.855527 
L 34.170125 19.645687 
L 34.401306 19.252424 
L 34.632488 18.859161 
L 34.863669 18.465899 
L 35.09485 18.072636 
L 35.326032 17.679373 
L 35.557213 17.28611 
L 35.788394 16.892847 
L 36.019576 16.499585 
L 36.172512 15.994503 
L 36.325448 15.489421 
L 36.478384 14.984339 
L 36.63132 14.479257 
L 36.843884 14.08991 
z
" style="opacity:0.1;"/>
   </g>
   <g id="patch_5">
    <path clip-path="url(#pa7ef642e98)" d="M 37.211428 13.906424 
L 37.211428 13.906424 
L 37.185213 14.330703 
L 37.158998 14.754982 
L 37.132783 15.179261 
L 37.106568 15.60354 
L 37.035032 15.980082 
L 36.963496 16.356625 
L 36.89196 16.733168 
L 36.820424 17.109711 
L 36.634519 17.476806 
L 36.448614 17.843901 
L 36.26271 18.210996 
L 36.076805 18.578091 
L 35.857576 19.059553 
L 35.638347 19.541016 
L 35.419117 20.022478 
L 35.199888 20.503941 
L 35.209308 20.85674 
L 35.218728 21.209539 
L 35.082232 21.777648 
L 34.945736 22.345756 
L 34.809239 22.913865 
L 34.672743 23.481973 
L 34.060644 23.30346 
L 33.803292 23.026989 
L 33.54594 22.750518 
L 33.288588 22.474047 
L 33.031236 22.197575 
L 32.648051 21.896242 
L 32.875989 21.386063 
L 33.103927 20.875884 
L 33.331865 20.365705 
L 33.559803 19.855527 
L 34.170125 19.645687 
L 34.401306 19.252424 
L 34.632488 18.859161 
L 34.863669 18.465899 
L 35.09485 18.072636 
L 35.326032 17.679373 
L 35.557213 17.28611 
L 35.788394 16.892847 
L 36.019576 16.499585 
L 36.172512 15.994503 
L 36.325448 15.489421 
L 36.478384 14.984339 
L 36.63132 14.479257 
L 36.843884 14.08991 
z
" style="fill:none;stroke:#000000;stroke-dasharray:1.48,0.64;stroke-dashoffset:0;stroke-linejoin:miter;stroke-width:0.4;"/>
   </g>
   <g id="patch_6">
    <path clip-path="url(#pa7ef642e98)" d="M 21.6786 17.092804 
L 21.6786 17.092804 
L 21.288129 17.113689 
L 20.897658 17.134573 
L 20.507186 17.155458 
L 20.116715 17.176342 
L 19.840257 17.595897 
L 19.563799 18.015452 
L 19.287342 18.435007 
L 19.010884 18.854562 
L 19.506571 19.293137 
L 20.002258 19.731711 
L 20.456534 20.06462 
L 20.91081 20.397529 
L 20.803106 20.761019 
L 20.326436 20.551428 
L 19.849766 20.341837 
L 19.439833 20.637328 
L 19.029901 20.932819 
L 18.619968 21.22831 
L 18.210036 21.523801 
L 17.971612 21.990968 
L 17.733188 22.458135 
L 17.494764 22.925301 
L 17.25634 23.392468 
L 17.03229 23.683235 
L 16.80824 23.974002 
L 16.58419 24.264769 
L 16.36014 24.555536 
L 16.13609 24.846303 
L 15.91204 25.13707 
L 15.68799 25.427838 
L 15.46394 25.718605 
L 15.23989 26.009372 
L 15.01584 26.300139 
L 14.79179 26.590906 
L 14.56774 26.881673 
L 14.343691 27.17244 
L 14.119641 27.463207 
L 13.895591 27.753974 
L 13.671541 28.044741 
L 13.461798 28.409381 
L 13.252055 28.774021 
L 13.042312 29.138661 
L 12.83257 29.503301 
L 12.622827 29.867941 
L 12.413084 30.232581 
L 12.203341 30.59722 
L 11.993598 30.96186 
L 11.783856 31.3265 
L 11.574113 31.69114 
L 11.36437 32.05578 
L 11.154627 32.42042 
L 10.944885 32.785059 
L 10.735142 33.149699 
L 10.525399 33.514339 
L 10.315656 33.878979 
L 10.040887 34.394627 
L 9.766117 34.910276 
L 9.491348 35.425925 
L 9.216578 35.941573 
L 8.63647 35.657146 
L 8.056362 35.372719 
L 7.575782 34.952418 
L 7.095202 34.532117 
L 6.614622 34.111816 
L 6.134042 33.691516 
L 5.653462 33.271215 
L 5.172882 32.850914 
L 4.692302 32.430613 
L 4.211722 32.010312 
L 4.063851 31.692694 
L 3.91598 31.375075 
L 3.76811 31.057457 
L 3.620239 30.739838 
L 3.538128 30.296291 
L 3.456017 29.852743 
L 3.373906 29.409196 
L 3.291795 28.965649 
L 3.390346 28.440055 
L 3.488897 27.914462 
L 3.587448 27.388868 
L 3.685999 26.863275 
L 4.132543 26.701047 
L 4.579088 26.538819 
L 5.025633 26.376591 
L 5.472178 26.214363 
L 5.777295 25.642339 
L 6.082411 25.070315 
L 6.387528 24.49829 
L 6.692645 23.926266 
L 6.997762 23.354242 
L 7.302878 22.782218 
L 7.607995 22.210193 
L 7.913112 21.638169 
L 8.222983 21.285432 
L 8.532854 20.932695 
L 8.842725 20.579958 
L 9.152596 20.227221 
L 9.462467 19.874484 
L 9.772338 19.521747 
L 10.082209 19.169011 
L 10.39208 18.816274 
L 10.878303 18.592262 
L 11.364526 18.368251 
L 11.850749 18.14424 
L 12.336971 17.920229 
L 12.823194 17.696217 
L 13.309417 17.472206 
L 13.79564 17.248195 
L 14.281863 17.024184 
L 14.930175 16.895458 
L 15.578487 16.766732 
L 16.226799 16.638007 
L 16.875111 16.509281 
L 17.523423 16.380555 
L 18.171735 16.25183 
L 18.820047 16.123104 
L 19.468359 15.994378 
L 19.868783 16.299441 
L 20.269207 16.604504 
L 20.675141 16.595057 
L 21.081074 16.585609 
L 21.487008 16.576161 
L 21.892942 16.566713 
z
" style="fill:#ff0000;opacity:0.1;"/>
   </g>
   <g id="patch_7">
    <path clip-path="url(#pa7ef642e98)" d="M 21.6786 17.092804 
L 21.6786 17.092804 
L 21.288129 17.113689 
L 20.897658 17.134573 
L 20.507186 17.155458 
L 20.116715 17.176342 
L 19.840257 17.595897 
L 19.563799 18.015452 
L 19.287342 18.435007 
L 19.010884 18.854562 
L 19.506571 19.293137 
L 20.002258 19.731711 
L 20.456534 20.06462 
L 20.91081 20.397529 
L 20.803106 20.761019 
L 20.326436 20.551428 
L 19.849766 20.341837 
L 19.439833 20.637328 
L 19.029901 20.932819 
L 18.619968 21.22831 
L 18.210036 21.523801 
L 17.971612 21.990968 
L 17.733188 22.458135 
L 17.494764 22.925301 
L 17.25634 23.392468 
L 17.03229 23.683235 
L 16.80824 23.974002 
L 16.58419 24.264769 
L 16.36014 24.555536 
L 16.13609 24.846303 
L 15.91204 25.13707 
L 15.68799 25.427838 
L 15.46394 25.718605 
L 15.23989 26.009372 
L 15.01584 26.300139 
L 14.79179 26.590906 
L 14.56774 26.881673 
L 14.343691 27.17244 
L 14.119641 27.463207 
L 13.895591 27.753974 
L 13.671541 28.044741 
L 13.461798 28.409381 
L 13.252055 28.774021 
L 13.042312 29.138661 
L 12.83257 29.503301 
L 12.622827 29.867941 
L 12.413084 30.232581 
L 12.203341 30.59722 
L 11.993598 30.96186 
L 11.783856 31.3265 
L 11.574113 31.69114 
L 11.36437 32.05578 
L 11.154627 32.42042 
L 10.944885 32.785059 
L 10.735142 33.149699 
L 10.525399 33.514339 
L 10.315656 33.878979 
L 10.040887 34.394627 
L 9.766117 34.910276 
L 9.491348 35.425925 
L 9.216578 35.941573 
L 8.63647 35.657146 
L 8.056362 35.372719 
L 7.575782 34.952418 
L 7.095202 34.532117 
L 6.614622 34.111816 
L 6.134042 33.691516 
L 5.653462 33.271215 
L 5.172882 32.850914 
L 4.692302 32.430613 
L 4.211722 32.010312 
L 4.063851 31.692694 
L 3.91598 31.375075 
L 3.76811 31.057457 
L 3.620239 30.739838 
L 3.538128 30.296291 
L 3.456017 29.852743 
L 3.373906 29.409196 
L 3.291795 28.965649 
L 3.390346 28.440055 
L 3.488897 27.914462 
L 3.587448 27.388868 
L 3.685999 26.863275 
L 4.132543 26.701047 
L 4.579088 26.538819 
L 5.025633 26.376591 
L 5.472178 26.214363 
L 5.777295 25.642339 
L 6.082411 25.070315 
L 6.387528 24.49829 
L 6.692645 23.926266 
L 6.997762 23.354242 
L 7.302878 22.782218 
L 7.607995 22.210193 
L 7.913112 21.638169 
L 8.222983 21.285432 
L 8.532854 20.932695 
L 8.842725 20.579958 
L 9.152596 20.227221 
L 9.462467 19.874484 
L 9.772338 19.521747 
L 10.082209 19.169011 
L 10.39208 18.816274 
L 10.878303 18.592262 
L 11.364526 18.368251 
L 11.850749 18.14424 
L 12.336971 17.920229 
L 12.823194 17.696217 
L 13.309417 17.472206 
L 13.79564 17.248195 
L 14.281863 17.024184 
L 14.930175 16.895458 
L 15.578487 16.766732 
L 16.226799 16.638007 
L 16.875111 16.509281 
L 17.523423 16.380555 
L 18.171735 16.25183 
L 18.820047 16.123104 
L 19.468359 15.994378 
L 19.868783 16.299441 
L 20.269207 16.604504 
L 20.675141 16.595057 
L 21.081074 16.585609 
L 21.487008 16.576161 
L 21.892942 16.566713 
z
" style="fill:none;stroke:#ff0000;stroke-dasharray:1.48,0.64;stroke-dashoffset:0;stroke-linejoin:miter;stroke-width:0.4;"/>
   </g>
   <g id="line2d_1">
    <path clip-path="url(#pa7ef642e98)" d="M 15.375253 53.999714 
L 15.905387 52.761996 
L 16.43552 51.524278 
L 16.965653 50.28656 
L 17.495786 49.048842 
L 18.025919 47.811124 
L 18.556052 46.573406 
L 19.086185 45.335687 
L 19.616318 44.097969 
L 20.146452 42.860251 
L 20.676585 41.622533 
L 21.206718 40.384815 
L 21.736851 39.147097 
L 22.266984 37.909379 
L 22.797117 36.671661 
L 23.32725 35.433943 
L 23.857383 34.196225 
L 24.387517 32.958507 
L 24.91765 31.720788 
L 25.447783 30.48307 
L 25.977916 29.245352 
L 26.508049 28.007634 
L 27.038182 26.769916 
L 27.568315 25.532198 
L 28.098448 24.29448 
L 28.628582 23.056762 
L 29.158715 21.819044 
L 29.688848 20.581326 
L 30.218981 19.343608 
L 30.749114 18.105889 
L 31.279247 16.868171 
L 31.80938 15.630453 
L 32.339513 14.392735 
" style="fill:none;stroke:#808080;stroke-linecap:square;stroke-width:0.4;"/>
   </g>
   <g id="line2d_2">
    <path clip-path="url(#pa7ef642e98)" d="M 17.168186 53.501967 
L 17.756293 52.285444 
L 18.344399 51.068921 
L 19.011061 49.689797 
L 19.677724 48.310674 
L 20.279338 47.066305 
L 20.880951 45.821936 
L 21.470301 44.60243 
L 22.059652 43.382923 
L 22.913819 41.615945 
L 23.767986 39.848966 
L 24.532932 38.266467 
L 25.297879 36.683968 
L 26.118633 34.986107 
L 26.939387 33.288246 
L 27.60054 31.920559 
L 28.261693 30.552872 
L 28.856197 29.323172 
L 29.450702 28.093472 
L 30.125362 26.697442 
L 30.800022 25.301412 
L 31.535822 23.779329 
L 32.271621 22.257246 
L 33.126232 20.489148 
L 33.980843 18.72105 
L 34.835455 16.952953 
L 35.690066 15.184855 
L 36.402582 13.710756 
L 37.115099 12.236658 
L 37.948472 10.512194 
L 38.781844 8.78773 
L 39.666936 6.957352 
L 40.638404 4.946969 
" style="fill:none;stroke:#808080;stroke-linecap:square;stroke-width:0.4;"/>
   </g>
   <g id="line2d_3">
    <path clip-path="url(#pa7ef642e98)" d="M 45.538045 68.656166 
L 45.996587 66.588599 
L 46.248251 65.453874 
L 46.499916 64.319149 
L 46.821962 62.867178 
L 47.144007 61.415207 
L 47.499288 59.813813 
L 47.854569 58.212418 
L 48.268145 56.34773 
L 48.681721 54.483041 
L 49.14204 52.408016 
L 49.412899 51.185775 
L 49.821854 49.342468 
L 50.230809 47.499161 
L 50.632477 45.687927 
L 51.034146 43.876693 
L 51.278701 42.773792 
L 51.523257 41.670891 
L 51.887602 40.028722 
L 52.251947 38.386553 
L 52.720085 36.275725 
L 53.188224 34.164898 
L 53.448242 32.99263 
L 53.70826 31.820363 
L 54.124502 29.943243 
" style="fill:none;stroke:#808080;stroke-linecap:square;stroke-width:0.4;"/>
   </g>
   <g id="line2d_4">
    <path clip-path="url(#pa7ef642e98)" d="M 48.759922 68.626331 
L 49.215797 67.145022 
L 49.671673 65.663714 
" style="fill:none;stroke:#808080;stroke-linecap:square;stroke-width:0.4;"/>
   </g>
   <g id="line2d_5">
    <path clip-path="url(#pa7ef642e98)" d="M 12.86856 53.722248 
L 12.743572 52.115757 
L 12.618583 50.509266 
L 12.493595 48.902774 
L 12.368607 47.296283 
L 12.243619 45.689792 
L 12.118631 44.0833 
L 11.993643 42.476809 
L 11.868655 40.870318 
" style="fill:none;stroke:#808080;stroke-linecap:square;stroke-width:0.4;"/>
   </g>
   <g id="line2d_6">
    <path clip-path="url(#pa7ef642e98)" d="M 28.149723 19.680495 
L 27.870333 20.138959 
L 27.555752 20.348799 
L 27.241171 20.558639 
L 26.607122 20.572935 
L 25.973073 20.58723 
L 25.339024 20.601526 
L 24.704974 20.615822 
L 24.19107 20.564606 
L 23.677166 20.513389 
L 23.163262 20.462172 
L 22.649357 20.410955 
L 22.227961 20.098682 
L 21.806565 19.786409 
L 21.634968 19.455116 
L 21.46337 19.123823 
L 21.291772 18.79253 
L 21.120175 18.461237 
L 21.259781 18.119129 
L 21.399387 17.777021 
L 21.538994 17.434912 
L 21.6786 17.092804 
L 21.892942 16.566713 
L 22.009177 16.281789 
L 22.297009 15.692174 
L 22.584842 15.10256 
L 22.872674 14.512945 
L 23.160507 13.923331 
L 23.303579 13.274917 
L 23.446651 12.626502 
L 23.427545 11.959192 
L 23.408439 11.291882 
L 23.389333 10.624573 
L 23.370227 9.957263 
L 23.036452 9.487361 
L 22.702676 9.01746 
L 22.045611 9.039339 
L 21.388546 9.061218 
L 20.764272 9.072157 
L 20.139998 9.083097 
L 19.515724 9.094036 
L 18.89145 9.104976 
L 18.519107 9.170675 
L 18.146764 9.236374 
L 17.774421 9.302073 
L 17.402078 9.367773 
L 17.029735 9.433472 
L 16.657393 9.499171 
L 16.28505 9.56487 
L 15.912707 9.630569 
L 15.518414 9.773031 
L 15.124122 9.915494 
L 14.72983 10.057956 
L 14.335537 10.200418 
L 13.798884 10.441336 
L 13.26223 10.682254 
L 12.725576 10.923171 
L 12.188923 11.164089 
L 11.674219 11.514526 
L 11.159515 11.864963 
L 10.644811 12.215401 
L 10.130107 12.565838 
L 9.87271 12.784876 
L 9.615314 13.003915 
L 9.357918 13.222954 
L 9.100521 13.441993 
L 8.843125 13.661031 
L 8.585728 13.88007 
L 8.328332 14.099109 
L 8.070935 14.318148 
L 7.709523 14.778104 
L 7.34811 15.238061 
L 6.986698 15.698017 
L 6.625286 16.157974 
L 6.351494 16.749329 
L 6.077702 17.340683 
L 5.80391 17.932038 
L 5.530118 18.523393 
L 5.368073 18.870474 
L 5.206028 19.217555 
L 5.043984 19.564635 
L 4.881939 19.911716 
L 4.719894 20.258797 
L 4.55785 20.605877 
L 4.395805 20.952958 
L 4.23376 21.300039 
" style="fill:none;stroke:#4169e1;stroke-linecap:square;stroke-width:0.4;"/>
   </g>
   <g id="line2d_7">
    <path clip-path="url(#pa7ef642e98)" d="M 4.23376 21.300039 
L 4.299431 21.666885 
L 4.365102 22.033732 
L 4.430773 22.400578 
L 4.496444 22.767424 
L 4.430773 23.101452 
L 4.365102 23.43548 
L 4.299431 23.769508 
L 4.23376 24.103536 
L 4.08038 24.738773 
L 3.927 25.37401 
L 3.866749 25.746326 
L 3.806499 26.118643 
L 3.746249 26.490959 
L 3.685999 26.863275 
L 3.587448 27.388868 
L 3.488897 27.914462 
L 3.390346 28.440055 
L 3.291795 28.965649 
L 3.373906 29.409196 
L 3.456017 29.852743 
L 3.538128 30.296291 
L 3.620239 30.739838 
L 3.76811 31.057457 
L 3.91598 31.375075 
L 4.063851 31.692694 
L 4.211722 32.010312 
L 4.496444 32.338746 
L 4.781166 32.66718 
L 5.065889 32.995614 
L 5.350611 33.324048 
L 5.744904 33.647136 
L 6.139196 33.970224 
L 6.533488 34.293313 
L 6.927781 34.616401 
L 7.321984 34.922956 
L 7.716188 35.229511 
L 8.091285 35.407526 
L 8.466383 35.585542 
L 8.841481 35.763557 
L 9.216578 35.941573 
L 9.495969 36.275477 
L 9.775359 36.60938 
L 10.136772 37.121299 
L 10.498184 37.633219 
L 10.859597 38.145138 
L 11.221009 38.657057 
L 11.511241 39.034967 
L 11.801473 39.412877 
L 12.173816 39.741311 
L 12.546159 40.069745 
L 12.854697 40.303204 
L 13.163235 40.536663 
L 13.356604 40.682854 
L 13.482614 41.022476 
L 13.608624 41.362098 
L 13.674207 41.947859 
L 13.739789 42.53362 
L 13.906854 43.11677 
L 14.07392 43.699921 
L 14.240985 44.283071 
L 14.408051 44.866221 
L 14.446174 45.404743 
L 14.484297 45.943265 
L 14.52242 46.481787 
L 14.560542 47.020309 
L 14.455682 47.554232 
L 14.350822 48.088154 
L 14.245962 48.622077 
L 14.141101 49.155999 
L 14.19833 49.527694 
L 14.255559 49.899388 
L 14.398542 50.209175 
L 14.541525 50.518962 
L 14.684509 50.828749 
L 14.827492 51.138536 
L 14.860816 51.562815 
L 14.89414 51.987094 
L 14.927465 52.411372 
L 14.960789 52.835651 
" style="fill:none;stroke:#008000;stroke-linecap:square;stroke-width:0.4;"/>
   </g>
   <g id="line2d_8">
    <path clip-path="url(#pa7ef642e98)" d="M 21.806565 19.786409 
L 21.358687 20.091969 
L 20.91081 20.397529 
L 20.818746 20.78812 
L 20.726682 21.17871 
L 20.634618 21.5693 
L 20.542555 21.95989 
L 20.411746 22.422457 
L 20.280937 22.885024 
L 20.150128 23.347591 
L 20.01932 23.810158 
L 19.842212 24.229216 
L 19.665105 24.648273 
L 19.487998 25.067331 
L 19.310891 25.486389 
L 19.098682 25.963252 
L 18.886473 26.440115 
L 18.79121 27.050241 
L 18.982092 27.478871 
L 18.877231 28.084273 
L 18.772371 28.689675 
L 18.800808 29.032778 
" style="fill:none;stroke:#4169e1;stroke-linecap:square;stroke-width:0.4;"/>
   </g>
   <g id="line2d_9">
    <path clip-path="url(#pa7ef642e98)" d="M 18.800808 29.032778 
L 19.030078 29.329885 
L 19.259349 29.626992 
L 19.37274 30.031256 
L 19.385182 30.484251 
L 19.366342 30.987469 
L 19.366342 31.390739 
L 19.185414 32.000865 
L 18.956498 32.410599 
L 18.880075 32.982437 
L 18.946901 33.402116 
L 19.156622 33.783507 
L 19.528431 34.088321 
L 19.967067 34.403081 
L 20.381887 34.732012 
L 20.796707 35.060943 
" style="fill:none;stroke:#4169e1;stroke-linecap:square;stroke-width:0.4;"/>
   </g>
   <g id="line2d_10">
    <path clip-path="url(#pa7ef642e98)" d="M 18.800808 29.032778 
L 18.570293 29.430578 
L 18.339778 29.828378 
L 18.109263 30.226178 
L 17.878748 30.623979 
L 17.587894 30.805102 
L 17.29704 30.986225 
L 17.006186 31.167349 
L 16.715332 31.348472 
L 16.362628 31.796619 
L 16.009925 32.244766 
L 15.657221 32.692913 
L 15.304517 33.14106 
L 15.13523 33.524688 
L 14.965943 33.908317 
L 14.796656 34.291945 
L 14.627369 34.675574 
L 14.431955 35.075985 
L 14.236542 35.476395 
L 14.041129 35.876806 
L 13.845715 36.277217 
L 13.510162 36.853281 
L 13.17461 37.429346 
L 13.004523 37.985272 
L 12.834436 38.541198 
L 12.933964 39.138892 
L 13.149727 39.73609 
L 13.156481 40.136376 
L 13.163235 40.536663 
" style="fill:none;stroke:#ff0000;stroke-linecap:square;stroke-width:0.4;"/>
   </g>
   <g id="line2d_11">
    <path clip-path="url(#pa7ef642e98)" d="M 54.940991 29.356985 
L 55.150711 29.643028 
L 55.360432 29.929071 
L 55.570152 30.215115 
L 55.779873 30.501158 
L 55.868915 30.910643 
L 55.957958 31.320129 
L 56.059619 31.787793 
L 56.16128 32.255457 
L 56.16128 32.693907 
L 56.16128 33.132358 
L 56.16128 33.570808 
L 56.16128 34.009259 
L 56.351983 34.409669 
L 56.542687 34.81008 
L 56.73339 35.210491 
L 56.924094 35.610902 
L 57.21006 36.030332 
L 57.496027 36.449763 
L 57.781993 36.869193 
L 58.06796 37.288624 
L 58.411244 37.727199 
L 58.754528 38.165774 
L 59.097812 38.604348 
L 59.441096 39.042923 
L 59.667523 39.401813 
L 59.89395 39.760704 
L 60.120377 40.119594 
L 60.346804 40.478485 
L 60.573232 40.837375 
L 60.799659 41.196265 
L 61.026086 41.555156 
L 61.252513 41.914046 
L 61.562384 42.283006 
L 61.872255 42.651966 
L 62.182126 43.020925 
L 62.491997 43.389885 
L 62.797069 43.904663 
L 63.102141 44.419442 
L 63.407214 44.93422 
L 63.712286 45.448998 
L 64.012649 45.9189 
L 64.313011 46.388801 
L 64.613374 46.858703 
L 64.913736 47.328604 
L 65.256931 47.767179 
L 65.600126 48.205754 
L 65.943322 48.644329 
L 66.286517 49.082903 
L 66.496238 49.406986 
L 66.705958 49.731069 
L 66.915679 50.055152 
L 67.125399 50.379235 
L 67.339918 50.862562 
L 67.554438 51.345889 
L 67.768957 51.829217 
L 67.983476 52.312544 
L 68.150364 52.649431 
L 68.317252 52.986318 
L 68.574604 53.505945 
L 68.116951 53.69664 
L 67.659298 53.887336 
L 67.28269 53.913068 
L 66.906081 53.938801 
L 66.529473 53.964534 
L 66.152865 53.990266 
L 65.761993 54.104634 
L 65.371122 54.219001 
L 64.980251 54.333369 
L 64.58938 54.447737 
L 64.198509 54.562104 
L 63.807638 54.676472 
L 63.416767 54.790839 
L 63.025896 54.905207 
L 62.625472 54.886187 
L 62.225047 54.867167 
L 61.824623 54.848147 
L 61.424199 54.829128 
L 60.985563 54.962515 
L 60.546928 55.095902 
L 60.108292 55.22929 
L 59.669656 55.362677 
L 59.378891 55.661027 
L 59.088126 55.959377 
L 58.797361 56.257728 
L 58.506595 56.556078 
L 58.087065 56.937469 
L 57.667535 57.31886 
L 57.248006 57.700251 
L 56.828476 58.081642 
L 56.580632 58.405724 
L 56.332789 58.729807 
L 56.084945 59.05389 
L 55.837102 59.377973 
L 55.670214 59.784972 
L 55.503326 60.191972 
L 55.336438 60.598971 
L 55.16955 61.00597 
L 54.750109 61.406257 
L 54.330668 61.806543 
L 53.911227 62.20683 
L 53.491786 62.607116 
L 53.186625 62.931324 
L 52.881464 63.255531 
L 52.576303 63.579738 
L 52.271141 63.903945 
L 51.808779 64.087803 
L 51.346416 64.271662 
L 50.884053 64.45552 
L 50.42169 64.639378 
L 49.756805 64.663992 
L 49.09192 64.688606 
" style="fill:none;stroke:#008000;stroke-linecap:square;stroke-width:0.4;"/>
   </g>
   <g id="line2d_12">
    <path clip-path="url(#pa7ef642e98)" d="M 54.178177 29.356985 
L 53.834981 29.624008 
L 53.491786 29.891032 
L 53.410741 30.28473 
L 53.329697 30.678428 
L 53.248652 31.072125 
L 53.167608 31.465823 
L 53.057949 31.891967 
L 52.94829 32.31811 
L 52.838631 32.744254 
L 52.728972 33.170397 
L 52.63362 33.70432 
L 52.538268 34.238242 
L 52.442917 34.772165 
L 52.347565 35.306087 
L 52.298712 35.804891 
L 52.249858 36.303696 
L 52.201005 36.8025 
L 52.152152 37.301304 
L 52.103298 37.800108 
L 52.054445 38.298912 
L 52.005592 38.797717 
L 51.956738 39.296521 
L 51.907885 39.795325 
L 51.859032 40.294129 
L 51.810178 40.792933 
L 51.761325 41.291737 
L 51.712472 41.790542 
L 51.663618 42.289346 
L 51.614765 42.78815 
L 51.565912 43.286954 
L 51.461007 43.754059 
L 51.356102 44.221163 
L 51.251197 44.688268 
L 51.146293 45.155372 
L 51.041388 45.622477 
L 50.936483 46.089581 
L 50.831579 46.556685 
L 50.726674 47.02379 
L 50.659937 47.376465 
L 50.593199 47.729139 
L 50.526462 48.081814 
L 50.459724 48.434489 
L 50.392987 48.787164 
L 50.32625 49.139839 
L 50.259512 49.492513 
L 50.192775 49.845188 
L 50.055724 50.156684 
L 49.918672 50.46818 
L 49.781621 50.779677 
L 49.644569 51.091173 
L 49.507518 51.402669 
L 49.370466 51.714165 
L 49.233415 52.025662 
L 49.096363 52.337158 
L 48.959312 52.648654 
L 48.82226 52.96015 
L 48.685209 53.271646 
L 48.548157 53.583143 
L 48.411106 53.894639 
L 48.274054 54.206135 
L 48.137003 54.517631 
L 47.999951 54.829128 
L 47.846837 55.212135 
L 47.693724 55.595142 
L 47.54061 55.978149 
L 47.387496 56.361156 
L 47.226651 56.76368 
L 47.065806 57.166204 
L 46.999069 57.518941 
L 46.932331 57.871678 
L 46.865594 58.224415 
L 46.798857 58.577151 
L 46.732119 58.929888 
L 46.665382 59.282625 
L 46.598645 59.635362 
L 46.531907 59.988099 
L 46.436556 60.617121 
L 46.341204 61.246142 
L 46.245852 61.875164 
L 46.1505 62.504186 
L 46.09807 63.006533 
L 46.04564 63.50888 
L 45.99321 64.011227 
L 45.94078 64.513574 
L 45.870221 64.936983 
L 45.799663 65.360391 
L 46.032133 65.833028 
L 46.264603 66.305664 
L 46.479211 66.584994 
L 46.693819 66.864325 
L 46.908427 67.143655 
L 47.123035 67.422985 
L 47.142052 67.813575 
L 47.161069 68.204165 
" style="fill:none;stroke:#008000;stroke-linecap:square;stroke-width:0.4;"/>
   </g>
   <g id="line2d_13">
    <path clip-path="url(#pa7ef642e98)" d="M 55.957958 31.320129 
L 56.441026 31.673177 
L 56.924094 32.026224 
L 57.129016 32.343719 
L 57.333938 32.661213 
L 57.538859 32.978707 
L 57.743781 33.296202 
L 57.996424 33.607978 
L 58.249066 33.919753 
L 58.501708 34.231529 
L 58.75435 34.543305 
L 59.002282 34.829224 
L 59.250215 35.115143 
L 59.498147 35.401062 
L 59.746079 35.686981 
L 60.041643 36.131274 
L 60.337207 36.575567 
L 60.613754 37.122791 
L 60.890301 37.670015 
L 61.023775 38.10859 
L 61.15725 38.547165 
L 61.290725 38.985739 
L 61.424199 39.424314 
L 61.414602 39.944686 
L 61.405005 40.465059 
L 61.619524 40.738671 
L 61.834043 41.012283 
L 62.048562 41.285895 
L 62.263082 41.559507 
L 62.568154 41.84555 
L 62.873226 42.131593 
L 63.178298 42.417636 
L 63.483371 42.70368 
L 63.864778 43.180294 
L 64.246185 43.656908 
L 64.627592 44.133523 
L 65.008999 44.610137 
L 65.333177 45.010424 
L 65.657355 45.41071 
L 65.981534 45.810997 
L 66.305712 46.211283 
L 66.586968 46.566941 
L 66.868225 46.9226 
L 67.149482 47.278258 
L 67.430738 47.633916 
L 67.664274 47.983732 
L 67.897811 48.333547 
L 68.131347 48.683363 
L 68.364883 49.033178 
L 68.555587 49.452609 
L 68.74629 49.87204 
L 68.936994 50.29147 
L 69.127697 50.710901 
L 69.080066 51.078866 
L 69.032434 51.446831 
L 68.853639 51.831703 
L 68.674843 52.216575 
L 68.496047 52.601446 
L 68.317252 52.986318 
" style="fill:none;stroke:#008000;stroke-linecap:square;stroke-width:0.4;"/>
   </g>
   <g id="line2d_14">
    <path clip-path="url(#pa7ef642e98)" d="M 42.624351 5.224932 
L 42.690733 5.766562 
L 42.757115 6.308192 
L 42.823497 6.849821 
L 42.889879 7.391451 
L 43.070985 8.02644 
L 43.252091 8.661429 
L 43.309231 9.119147 
L 43.366371 9.576866 
L 43.423511 10.034585 
L 43.480651 10.492304 
L 43.719164 11.039528 
L 43.957676 11.586752 
" style="fill:none;stroke:#4169e1;stroke-linecap:square;stroke-width:0.4;"/>
   </g>
   <g id="line2d_15">
    <path clip-path="url(#pa7ef642e98)" d="M 41.435343 4.608839 
L 42.029847 4.916885 
L 42.624351 5.224932 
L 42.980165 5.409412 
L 43.486694 5.707265 
L 43.881608 5.939729 
L 44.276523 6.172194 
L 44.806512 6.360651 
L 45.3365 6.549109 
L 45.800907 6.655148 
L 46.265313 6.761187 
L 46.72972 6.867225 
L 47.194127 6.973264 
L 47.576778 7.006331 
L 47.959429 7.039398 
L 48.34208 7.072465 
L 48.724731 7.105532 
L 49.118757 6.835277 
L 49.512783 6.565021 
L 49.678071 6.399934 
L 50.097512 6.018543 
L 50.516953 5.637152 
L 50.965009 5.166256 
L 51.413064 4.69536 
L 51.918526 4.441763 
L 52.423989 4.188165 
L 52.767184 3.730446 
L 53.110379 3.272727 
L 53.443977 3.335629 
L 53.777575 3.398532 
L 54.168579 3.907716 
L 54.559584 4.4169 
L 54.826533 4.64576 
L 55.093482 4.874619 
L 55.360432 5.103478 
L 55.627381 5.332338 
L 55.965866 5.74518 
L 56.304352 6.158022 
L 56.642837 6.570864 
L 56.981323 6.983706 
L 57.42458 7.276338 
L 57.867836 7.56897 
L 58.311093 7.861601 
L 58.75435 8.154233 
L 58.983176 8.421257 
L 59.212003 8.68828 
L 59.440829 8.955303 
L 59.669656 9.222327 
L 59.898571 9.794165 
L 60.127486 10.366002 
L 60.184715 10.747393 
L 60.241944 11.128784 
L 60.299173 11.510175 
L 60.356402 11.891566 
L 60.232347 12.526555 
L 60.108292 13.161543 
L 59.979616 13.492339 
L 59.85094 13.823135 
L 59.722264 14.153931 
L 59.593588 14.484726 
L 59.47442 14.878549 
L 59.355253 15.272371 
L 59.236085 15.666193 
L 59.116918 16.060015 
L 59.116918 16.460426 
L 59.116918 16.860837 
L 59.116918 17.261248 
L 59.116918 17.661658 
L 58.821354 18.018187 
L 58.52579 18.374715 
L 58.163489 18.622595 
L 57.801188 18.870474 
L 57.438887 19.118353 
L 57.076586 19.366232 
L 56.79053 19.575948 
L 56.504475 19.785663 
L 56.21842 19.995378 
L 55.932365 20.205094 
L 55.679722 20.42724 
L 55.42708 20.649387 
L 55.174438 20.871533 
L 54.921796 21.09368 
L 54.597618 21.360579 
L 54.273439 21.627478 
L 53.949261 21.894377 
L 53.625083 22.161276 
L 53.243676 22.695074 
L 52.862269 23.228873 
L 52.671743 23.686591 
L 52.481217 24.14431 
L 52.452603 24.577167 
L 52.423989 25.010023 
L 52.438296 25.403721 
L 52.452603 25.797419 
L 52.46691 26.191117 
L 52.481217 26.584815 
L 52.385866 27.118737 
L 52.290514 27.65266 
L 52.195162 28.186582 
L 52.09981 28.720505 
L 51.99495 29.267729 
L 51.89009 29.814952 
L 51.613543 30.411653 
L 51.336996 31.008353 
" style="fill:none;stroke:#4169e1;stroke-linecap:square;stroke-width:0.4;"/>
   </g>
   <g id="line2d_16">
    <path clip-path="url(#pa7ef642e98)" d="M 57.381569 36.907233 
L 57.381569 37.47932 
L 57.381569 38.051406 
L 57.209971 38.470837 
L 57.038374 38.890267 
L 56.866776 39.309698 
L 56.695179 39.729128 
L 56.523581 40.224887 
L 56.351983 40.720645 
L 56.180386 41.216404 
L 56.008788 41.712163 
L 56.037403 42.346903 
L 56.066017 42.981642 
L 56.237615 43.572749 
L 56.409212 44.163855 
L 56.58081 44.754961 
L 56.752407 45.346068 
L 56.754762 45.721181 
L 56.757117 46.096294 
L 56.759472 46.471407 
L 56.761827 46.84652 
L 56.764182 47.221633 
L 56.766537 47.596747 
L 56.768892 47.97186 
L 56.771247 48.346973 
L 56.618755 48.766404 
L 56.466263 49.185834 
L 56.313772 49.605265 
L 56.16128 50.024695 
L 55.760856 50.253431 
L 55.360432 50.482166 
L 54.960008 50.710901 
L 54.559584 50.939636 
L 54.235405 51.359066 
L 53.911227 51.778497 
L 53.587049 52.197928 
L 53.262871 52.617358 
L 53.014938 52.998625 
L 52.767006 53.379892 
L 52.519074 53.761158 
L 52.271141 54.142425 
L 52.099544 54.48559 
L 51.927946 54.828755 
L 51.756348 55.171919 
L 51.584751 55.515084 
L 51.413153 55.858249 
L 51.241556 56.201414 
L 51.069958 56.544579 
L 50.89836 56.887744 
L 50.626612 57.35777 
L 50.354864 57.827795 
L 50.083116 58.297821 
L 49.811368 58.767847 
L 49.696955 59.10144 
L 49.582542 59.435033 
L 49.468128 59.768625 
L 49.353715 60.102218 
L 49.239302 60.435811 
L 49.124889 60.769404 
L 49.010476 61.102996 
L 48.896062 61.436589 
L 48.920544 61.843091 
L 48.945027 62.249593 
L 48.969509 62.656095 
L 48.993991 63.062598 
L 49.018473 63.4691 
L 49.042956 63.875602 
L 49.067438 64.282104 
L 49.09192 64.688606 
L 48.985816 65.248261 
L 48.879711 65.807916 
L 48.773607 66.367572 
L 48.667502 66.927227 
L 48.438676 67.198974 
L 48.20985 67.470721 
L 47.981023 67.742469 
L 47.752197 68.014216 
L 47.447035 68.370744 
L 47.141874 68.727273 
" style="fill:none;stroke:#008000;stroke-linecap:square;stroke-width:0.4;"/>
   </g>
   <g id="line2d_17">
    <path clip-path="url(#pa7ef642e98)" d="M 51.336996 31.008353 
L 51.13474 31.54787 
L 51.01655 31.863375 
L 50.89836 32.17888 
L 50.706057 32.755691 
L 50.516953 33.323053 
L 50.322873 33.933179 
L 50.128793 34.543305 
L 50.040283 34.821765 
L 50.045082 35.285949 
L 50.049881 35.750132 
L 50.054679 36.214315 
L 50.059478 36.678498 
L 50.059478 37.040745 
L 50.059478 37.402992 
L 50.059478 37.765238 
L 50.059478 38.127485 
L 49.983143 38.508876 
L 49.906809 38.890267 
L 49.830474 39.271658 
L 49.754139 39.653049 
L 49.596849 40.046747 
L 49.439558 40.440445 
L 49.282268 40.834143 
L 49.124978 41.227841 
L 48.629202 41.49474 
L 48.133426 41.761639 
L 47.63765 42.028538 
L 47.141874 42.295437 
L 46.836802 42.657684 
L 46.53173 43.019931 
L 46.226657 43.382178 
L 45.921585 43.744424 
L 45.506854 44.189588 
L 45.092122 44.634751 
L 44.677391 45.079914 
L 44.26266 45.525078 
L 44.164909 45.864948 
L 44.067158 46.204819 
L 43.969407 46.544689 
L 43.871656 46.88456 
L 43.773904 47.22443 
L 43.676153 47.564301 
L 43.578402 47.904172 
L 43.480651 48.244042 
L 43.275729 48.879777 
L 43.070807 49.515511 
L 42.865885 50.151246 
L 42.660964 50.78698 
L 42.372598 51.144876 
L 42.084232 51.502772 
L 41.795866 51.860668 
L 41.507501 52.218564 
L 41.268988 52.514428 
" style="fill:none;stroke:#008000;stroke-linecap:square;stroke-width:0.4;"/>
   </g>
   <g id="line2d_18">
    <path clip-path="url(#pa7ef642e98)" d="M 48.724731 7.105532 
L 48.696117 7.46405 
L 48.667502 7.822567 
L 48.295693 8.293463 
L 47.923883 8.764359 
L 47.304141 9.017957 
L 46.684399 9.271555 
L 46.326808 9.564311 
L 45.969216 9.857067 
L 45.611625 10.149823 
L 45.254034 10.442579 
L 44.929945 10.728622 
L 44.605855 11.014665 
L 44.281766 11.300709 
L 43.957676 11.586752 
L 43.528638 12.031045 
L 43.0996 12.475338 
L 42.878149 12.86916 
L 42.616887 13.333841 
L 42.355625 13.798521 
L 42.012429 14.255991 
L 41.669234 14.713462 
L 41.383268 14.961341 
L 41.097301 15.20922 
L 40.811335 15.457099 
L 40.525369 15.704979 
L 40.143962 16.200737 
L 39.762555 16.696496 
L 39.471789 16.975826 
L 39.181024 17.255156 
L 38.890259 17.534487 
L 38.599494 17.813817 
L 38.141841 18.004513 
L 37.684188 18.195208 
L 37.693608 18.666353 
L 37.703028 19.137497 
L 37.58386 19.512175 
L 37.464693 19.886853 
L 37.345525 20.261532 
L 37.226358 20.63621 
L 37.226358 21.017352 
L 37.226358 21.398494 
L 37.150112 21.932541 
L 37.073866 22.466588 
L 37.387203 22.65691 
L 37.700539 22.847233 
L 38.013876 23.037556 
L 38.327213 23.227878 
L 38.418743 23.840242 
L 38.510274 24.452605 
" style="fill:none;stroke:#008000;stroke-linecap:square;stroke-width:0.4;"/>
   </g>
   <g id="line2d_19">
    <path clip-path="url(#pa7ef642e98)" d="M 49.512783 6.565021 
L 49.701887 6.917572 
L 49.890991 7.270122 
L 50.080095 7.622673 
L 50.269199 7.975223 
L 50.660025 8.026689 
L 51.050852 8.078154 
L 51.432259 7.925498 
L 51.813666 7.772842 
L 51.966158 7.391451 
L 52.11865 7.01006 
L 52.271319 6.628918 
L 52.423989 6.247776 
L 53.034133 6.323855 
L 53.644278 6.399934 
L 53.825384 6.882516 
L 54.00649 7.365097 
L 54.159071 7.765508 
L 54.311651 8.165919 
L 54.464232 8.566329 
L 54.616812 8.96674 
L 55.226779 8.738005 
L 55.42708 8.446119 
L 55.627381 8.154233 
L 55.970576 8.573664 
L 56.313772 8.993094 
L 56.656967 9.336446 
L 57.000162 9.679797 
L 57.152743 10.118372 
L 57.305323 10.556947 
L 57.457904 10.995521 
L 57.610484 11.434096 
L 57.724942 12.006182 
L 57.8394 12.578269 
L 58.258841 12.616309 
L 58.678282 12.654348 
L 59.088303 13.022313 
L 59.498325 13.390279 
L 59.545956 13.937503 
L 59.593588 14.484726 
" style="fill:none;stroke:#008000;stroke-linecap:square;stroke-width:0.4;"/>
   </g>
   <g id="line2d_20">
    <path clip-path="url(#pa7ef642e98)" d="M 37.703028 19.137497 
L 37.779273 19.594968 
L 37.855519 20.052438 
L 38.236926 20.471868 
L 38.618333 20.891299 
L 38.89959 21.075282 
L 39.180847 21.259264 
L 39.462103 21.443247 
L 39.74336 21.627229 
L 40.286856 21.602616 
L 40.830352 21.578002 
L 41.168837 21.533125 
L 41.507323 21.488248 
L 41.845808 21.443371 
L 42.184294 21.398494 
L 42.641947 21.322415 
L 43.0996 21.246336 
L 43.423689 21.360703 
L 43.747778 21.475071 
L 44.071868 21.589438 
L 44.395957 21.703806 
L 44.743951 21.996438 
L 45.091945 22.28907 
L 45.439939 22.581701 
L 45.787933 22.874333 
L 46.112111 23.274744 
L 46.436289 23.675155 
L 46.760467 24.075565 
L 47.084645 24.475976 
L 47.494667 24.767862 
L 47.904688 25.059748 
L 48.20985 25.288483 
L 48.515011 25.517218 
L 48.669635 26.094526 
L 48.82426 26.671833 
L 48.991681 27.297872 
L 49.15848 27.67255 
L 49.325278 28.047228 
L 49.492077 28.421906 
L 49.658876 28.796584 
L 49.811457 29.254178 
L 49.964038 29.711773 
L 50.116618 30.169368 
L 50.269199 30.626962 
L 50.378413 31.159144 
L 50.487628 31.691326 
L 50.596843 32.223508 
L 50.706057 32.755691 
" style="fill:none;stroke:#4169e1;stroke-linecap:square;stroke-width:0.4;"/>
   </g>
   <g id="line2d_21">
    <path clip-path="url(#pa7ef642e98)" d="M 34.060644 23.30346 
L 34.016567 23.7122 
L 33.97249 24.12094 
L 33.928413 24.529679 
L 33.884336 24.938419 
L 33.63276 25.39763 
L 33.381185 25.85684 
L 33.129609 26.316051 
L 32.878033 26.775262 
L 32.714478 27.127501 
L 32.550922 27.479741 
L 32.387367 27.831981 
L 32.223812 28.18422 
L 32.060256 28.53646 
L 31.896701 28.8887 
L 31.733145 29.240939 
L 31.56959 29.593179 
L 31.302818 30.165576 
L 31.036047 30.737973 
L 30.769275 31.31037 
L 30.502504 31.882768 
L 30.235732 32.455165 
L 29.96896 33.027562 
L 29.702189 33.599959 
L 29.435417 34.172357 
L 29.154249 34.775521 
L 28.918358 35.2315 
L 28.682467 35.687478 
L 28.446576 36.143457 
L 28.210684 36.599435 
L 27.974793 37.055414 
L 27.738902 37.511392 
L 27.503011 37.967371 
L 27.26712 38.423349 
L 27.059532 38.951678 
L 26.851944 39.480006 
L 26.644356 40.008334 
L 26.436768 40.536663 
L 26.229181 41.064991 
L 26.021593 41.59332 
L 25.814005 42.121648 
L 25.606417 42.649977 
L 25.414559 42.954977 
L 25.2227 43.259978 
L 25.030841 43.564979 
L 24.838982 43.86998 
L 24.647123 44.174981 
L 24.455265 44.479982 
L 24.263406 44.784983 
L 24.071547 45.089984 
L 23.816817 45.357318 
L 23.562086 45.624652 
L 23.307356 45.891986 
L 23.052625 46.15932 
L 22.797895 46.426655 
L 22.543164 46.693989 
L 22.288434 46.961323 
L 22.033703 47.228657 
L 21.766354 47.697191 
L 21.499005 48.165725 
L 21.231655 48.634259 
L 20.964306 49.102793 
L 20.696957 49.571327 
L 20.429608 50.039862 
L 20.162258 50.508396 
L 19.894909 50.97693 
L 19.562466 51.418239 
L 19.230024 51.859549 
L 18.897581 52.300859 
L 18.565139 52.742168 
L 18.488893 53.133007 
L 18.412647 53.523846 
" style="fill:none;stroke:#000000;stroke-linecap:square;stroke-width:0.4;"/>
   </g>
   <g id="line2d_22">
    <path clip-path="url(#pa7ef642e98)" d="M 34.060644 23.30346 
L 34.672743 23.481973 
L 35.154212 23.622198 
L 35.635681 23.762422 
L 36.117149 23.902647 
L 36.598618 24.042871 
L 37.103014 24.18956 
L 37.454829 24.255321 
L 37.806644 24.321083 
L 38.158459 24.386844 
L 38.510274 24.452605 
L 38.848137 24.515756 
L 39.186001 24.578907 
L 39.797034 24.693275 
L 40.139296 24.917783 
L 40.481558 25.142292 
L 40.82382 25.3668 
L 41.166083 25.591309 
L 41.508345 25.815817 
L 41.850607 26.040326 
L 42.192869 26.264834 
L 42.535131 26.489343 
L 42.825808 26.853578 
L 43.116484 27.217814 
L 43.40716 27.58205 
L 43.697836 27.946286 
L 43.937949 28.247122 
L 44.178061 28.547959 
L 44.282032 29.150253 
L 44.386004 29.752548 
L 44.489976 30.354842 
L 44.593947 30.957136 
L 44.484466 31.376008 
L 44.374985 31.794879 
L 44.265504 32.21375 
L 44.156022 32.632621 
L 44.046541 33.051492 
L 43.93706 33.470364 
L 43.827579 33.889235 
L 43.718097 34.308106 
L 43.400495 34.672217 
L 43.082893 35.036329 
L 42.765291 35.40044 
L 42.447689 35.764552 
L 42.130086 36.128664 
L 41.812484 36.492775 
L 41.494882 36.856887 
L 41.17728 37.220998 
L 40.769302 37.735652 
L 40.361324 38.250306 
L 39.953347 38.76496 
L 39.545369 39.279614 
L 39.137392 39.794268 
L 38.729414 40.308922 
L 38.321437 40.823576 
L 37.913459 41.33823 
" style="fill:none;stroke:#008000;stroke-linecap:square;stroke-width:0.4;"/>
   </g>
   <g id="line2d_23">
    <path clip-path="url(#pa7ef642e98)" d="M 42.535131 26.489343 
L 42.278046 26.705646 
L 42.02096 26.92195 
L 41.763875 27.138254 
L 41.50679 27.354558 
L 41.047982 27.524245 
L 40.589173 27.693931 
L 40.130365 27.863618 
L 39.671557 28.033305 
L 39.40212 28.090489 
L 39.007027 28.173778 
L 38.611935 28.257067 
L 38.216843 28.340357 
L 37.821751 28.423646 
L 37.449675 28.448882 
L 37.077598 28.474117 
L 36.705522 28.499353 
L 36.333446 28.524588 
L 35.908495 28.44279 
L 35.483544 28.360993 
L 35.134129 28.293367 
L 34.663501 28.02336 
L 34.365627 27.852554 
L 34.067753 27.681749 
L 33.769879 27.510943 
L 33.472004 27.340138 
L 33.175019 27.0577 
L 32.878033 26.775262 
" style="fill:none;stroke:#008000;stroke-linecap:square;stroke-width:0.4;"/>
   </g>
   <g id="line2d_24">
    <path clip-path="url(#pa7ef642e98)" d="M 39.186001 24.578907 
L 39.235143 25.063229 
L 39.284285 25.547551 
L 39.333427 26.031872 
L 39.382569 26.516194 
L 39.387457 26.909768 
L 39.392344 27.303341 
L 39.397232 27.696915 
L 39.40212 28.090489 
L 39.357509 28.54224 
L 39.312899 28.993992 
L 39.268289 29.445744 
L 39.223679 29.897496 
L 39.08274 30.312949 
L 38.941801 30.728401 
L 38.800861 31.143854 
L 38.659922 31.559306 
L 38.32037 32.054195 
L 37.980818 32.549083 
L 37.641267 33.043971 
L 37.301715 33.53886 
L 37.175261 33.849517 
L 37.048806 34.160174 
L 36.922352 34.470831 
L 36.795897 34.781488 
L 36.745333 35.13553 
L 36.694769 35.489573 
L 36.644205 35.843615 
L 36.593641 36.197657 
L 36.510553 36.63474 
L 36.427465 37.071823 
L 36.344376 37.508906 
L 36.261288 37.945989 
L 36.221476 38.444482 
L 36.181665 38.942976 
L 36.141854 39.441469 
L 36.102042 39.939963 
" style="fill:none;stroke:#4169e1;stroke-linecap:square;stroke-width:0.4;"/>
   </g>
   <g id="line2d_25">
    <path clip-path="url(#pa7ef642e98)" d="M 29.435417 34.172357 
L 29.689037 34.720078 
L 29.942656 35.267799 
L 30.181702 35.683003 
L 30.420748 36.098207 
L 30.800911 36.453492 
L 31.181074 36.808778 
L 31.578121 37.179726 
L 32.056213 37.462786 
L 32.534305 37.745846 
L 33.012396 38.028905 
L 33.490488 38.311965 
L 33.904242 38.570535 
L 34.317996 38.829105 
L 34.608761 39.01085 
L 34.899526 39.192595 
L 35.200155 39.379437 
L 35.500784 39.566279 
L 35.801413 39.753121 
L 36.102042 39.939963 
L 36.304565 40.432365 
L 36.507087 40.924767 
L 36.70961 41.417169 
L 36.912132 41.909571 
" style="fill:none;stroke:#008000;stroke-linecap:square;stroke-width:0.4;"/>
   </g>
   <g id="line2d_26">
    <path clip-path="url(#pa7ef642e98)" d="M 37.913459 41.33823 
L 37.412796 41.623901 
L 36.912132 41.909571 
L 36.692015 42.525913 
L 36.471897 43.142254 
L 36.251779 43.758596 
L 36.031661 44.374938 
L 35.830383 44.71456 
L 35.629105 45.054182 
L 35.427826 45.393804 
L 35.226548 45.733426 
L 34.959065 46.005173 
L 34.691583 46.27692 
L 34.441606 46.531015 
L 34.19163 46.78511 
L 33.941654 47.039205 
L 33.691678 47.2933 
L 33.364567 47.475666 
L 33.037456 47.658033 
L 32.710346 47.840399 
L 32.383235 48.022766 
L 31.905232 48.117119 
L 31.427229 48.211472 
L 30.949226 48.305825 
L 30.471223 48.400179 
" style="fill:none;stroke:#4169e1;stroke-linecap:square;stroke-width:0.4;"/>
   </g>
   <g id="line2d_27">
    <path clip-path="url(#pa7ef642e98)" d="M 42.158701 51.49407 
L 42.644968 51.760969 
L 43.131235 52.027868 
L 43.617503 52.294767 
L 44.10377 52.561666 
L 44.456474 52.818993 
L 44.809177 53.07632 
L 45.161881 53.333647 
L 45.514585 53.590974 
L 45.753009 53.896037 
L 45.991433 54.2011 
L 46.229856 54.506163 
L 46.46828 54.811227 
L 46.620772 55.192617 
L 46.773264 55.574008 
L 47.08038 55.967582 
L 47.387496 56.361156 
" style="fill:none;stroke:#008000;stroke-linecap:square;stroke-width:0.4;"/>
   </g>
   <g id="line2d_28">
    <path clip-path="url(#pa7ef642e98)" d="M 34.691583 46.27692 
L 34.880331 46.761366 
L 35.06908 47.245812 
L 35.257828 47.730258 
L 35.446577 48.214704 
L 35.749072 48.3737 
L 36.051567 48.532696 
L 36.354062 48.691692 
L 36.656558 48.850687 
L 37.024102 49.028454 
L 37.391646 49.206221 
L 37.649087 49.66133 
L 37.906528 50.116438 
L 38.163969 50.571546 
L 38.421409 51.026655 
L 38.745588 51.179311 
L 39.069766 51.331966 
L 39.513111 51.33669 
L 39.956457 51.341414 
L 40.399803 51.346138 
L 40.843149 51.350862 
L 41.319818 51.693965 
L 41.507501 52.218564 
" style="fill:none;stroke:#008000;stroke-linecap:square;stroke-width:0.4;"/>
   </g>
   <g id="line2d_29">
    <path clip-path="url(#pa7ef642e98)" d="M 41.268988 52.514428 
L 40.94481 52.952878 
L 40.620631 53.391328 
L 40.296453 53.829779 
L 39.972275 54.268229 
L 39.500315 54.522821 
L 39.028355 54.777414 
L 38.556395 55.032006 
L 38.084435 55.286598 
L 37.455184 55.381946 
L 36.825934 55.477293 
L 36.196683 55.572641 
L 35.567433 55.667989 
L 35.014428 55.667989 
L 34.461423 55.667989 
L 33.908419 55.667989 
L 33.355414 55.667989 
L 32.916867 55.667989 
L 32.47832 55.667989 
L 32.039773 55.667989 
L 31.601226 55.667989 
L 31.181696 55.687009 
L 30.762166 55.706028 
L 30.342636 55.725048 
L 29.923106 55.744068 
L 29.332067 55.744068 
L 28.741029 55.744068 
L 28.14999 55.744068 
L 27.558951 55.744068 
L 27.063175 55.6297 
L 26.567399 55.515333 
L 26.071624 55.400965 
L 25.575848 55.286598 
L 24.960905 55.067435 
L 24.345961 54.848272 
L 23.731018 54.629109 
L 23.116075 54.409946 
L 22.706053 54.524313 
L 22.296032 54.638681 
L 22.005977 54.905953 
L 21.715923 55.173225 
L 21.205129 55.153583 
L 20.694335 55.133942 
L 20.193761 55.051025 
L 19.693186 54.968109 
L 19.192612 54.885193 
L 18.692037 54.802276 
" style="fill:none;stroke:#008000;stroke-linecap:square;stroke-width:0.4;"/>
   </g>
   <g id="line2d_30">
    <path clip-path="url(#pa7ef642e98)" d="M 48.82426 26.671833 
L 49.337009 26.713105 
L 49.849758 26.754377 
L 50.345533 26.678173 
L 50.841309 26.60197 
L 51.337085 26.525766 
L 51.832861 26.449563 
L 52.36676 26.525642 
L 52.900658 26.601721 
L 53.196222 26.816285 
L 53.491786 27.030848 
L 53.78735 27.245412 
L 54.082914 27.459975 
L 54.359283 27.717302 
L 54.635652 27.974629 
L 54.616635 28.403756 
L 54.597618 28.832883 
" style="fill:none;stroke:#008000;stroke-linecap:square;stroke-width:0.4;"/>
   </g>
   <g id="line2d_31">
    <path clip-path="url(#pa7ef642e98)" d="M 44.178061 28.547959 
L 44.601767 28.585501 
L 45.025474 28.623044 
L 45.483127 28.875647 
L 45.94078 29.12825 
L 46.398433 29.380853 
L 46.856086 29.633456 
L 47.194482 30.16253 
L 47.532879 30.691605 
L 47.871275 31.220679 
L 48.209672 31.749753 
L 48.448096 32.150164 
L 48.686519 32.550575 
L 48.924943 32.950986 
L 49.163367 33.351396 
L 49.404723 33.649374 
L 49.64608 33.947351 
L 49.887436 34.245328 
L 50.128793 34.543305 
" style="fill:none;stroke:#008000;stroke-linecap:square;stroke-width:0.4;"/>
   </g>
   <g id="line2d_32">
    <path clip-path="url(#pa7ef642e98)" d="M 51.13474 31.54787 
L 50.765774 31.70326 
L 50.396808 31.858651 
L 50.027842 32.014042 
L 49.658876 32.169433 
L 49.337097 32.279076 
L 49.015319 32.38872 
L 48.69354 32.498364 
L 48.371761 32.608007 
L 48.049982 32.717651 
L 47.728203 32.827295 
L 47.406424 32.936938 
L 47.084645 33.046582 
L 46.677068 33.149016 
L 46.26949 33.251449 
L 45.861912 33.353883 
L 45.454335 33.456316 
L 45.046757 33.55875 
L 44.639179 33.661183 
L 44.231602 33.763617 
L 43.824024 33.86605 
" style="fill:none;stroke:#008000;stroke-linecap:square;stroke-width:0.4;"/>
   </g>
   <g id="line2d_33">
    <path clip-path="url(#pa7ef642e98)" d="M 46.074077 23.265172 
L 45.997831 23.627419 
L 45.921585 23.989665 
L 45.845339 24.351912 
L 45.769093 24.714159 
L 45.52596 25.057386 
L 45.282826 25.400613 
L 45.039692 25.74384 
L 44.796559 26.087067 
L 44.521878 26.551872 
L 44.247197 27.016677 
L 43.972517 27.481481 
L 43.697836 27.946286 
" style="fill:none;stroke:#008000;stroke-linecap:square;stroke-width:0.4;"/>
   </g>
   <g id="line2d_34">
    <path clip-path="url(#pa7ef642e98)" d="M 36.598618 24.042871 
L 36.698502 24.484305 
L 36.798386 24.925739 
L 36.898269 25.367173 
L 36.998153 25.808607 
L 37.098037 26.250041 
L 37.197921 26.691475 
L 37.297805 27.132909 
L 37.397689 27.574343 
L 37.254661 28.017641 
L 37.111633 28.46094 
L 36.968606 28.904239 
L 36.825578 29.347537 
L 36.682551 29.790836 
L 36.539523 30.234134 
L 36.396495 30.677433 
L 36.253468 31.120732 
L 36.05801 31.654592 
L 35.862552 32.188452 
L 35.667094 32.722313 
L 35.471636 33.256173 
L 35.276179 33.790033 
L 35.080721 34.323894 
L 34.885263 34.857754 
L 34.689805 35.391614 
L 34.643329 35.821301 
L 34.596853 36.250987 
L 34.550377 36.680673 
L 34.503901 37.11036 
L 34.457424 37.540046 
L 34.410948 37.969733 
L 34.364472 38.399419 
L 34.317996 38.829105 
" style="fill:none;stroke:#4169e1;stroke-linecap:square;stroke-width:0.4;"/>
   </g>
   <g id="line2d_35">
    <path clip-path="url(#pa7ef642e98)" d="M 34.317996 38.829105 
L 34.12316 39.455889 
L 33.928324 40.082673 
L 33.733489 40.709457 
L 33.538653 41.336241 
L 33.343817 41.963025 
L 33.148981 42.589809 
L 32.954146 43.216593 
L 32.75931 43.843377 
L 32.473299 44.412977 
L 32.187288 44.982578 
L 31.901277 45.552178 
L 31.615267 46.121778 
L 31.329256 46.691378 
L 31.043245 47.260978 
L 30.757234 47.830579 
L 30.471223 48.400179 
L 30.147756 48.590999 
L 29.824289 48.781818 
L 29.500821 48.972638 
L 29.177354 49.163458 
L 28.870949 49.344208 
L 28.564543 49.524959 
L 28.26898 49.887206 
L 27.973416 50.249453 
L 27.677852 50.611699 
L 27.382288 50.973946 
L 26.896021 51.345765 
L 26.409754 51.717584 
L 25.923486 52.089403 
L 25.437219 52.461222 
L 25.127348 52.637559 
L 24.817477 52.813896 
L 24.507606 52.990234 
L 24.197735 53.166571 
L 23.887864 53.342909 
L 23.577993 53.519246 
L 23.268122 53.695583 
L 22.958251 53.871921 
L 22.462475 53.986288 
L 21.966699 54.100656 
L 21.470923 54.215023 
L 20.975148 54.329391 
L 20.593829 54.300799 
L 20.212511 54.272207 
L 19.831193 54.243615 
L 19.449875 54.215023 
" style="fill:none;stroke:#4169e1;stroke-linecap:square;stroke-width:0.4;"/>
   </g>
   <g id="line2d_36">
    <path clip-path="url(#pa7ef642e98)" d="M 29.177354 49.163458 
L 29.147318 49.558772 
L 29.117281 49.954086 
L 29.322292 50.292465 
L 29.527303 50.630843 
L 29.732314 50.969222 
L 29.937324 51.307601 
L 30.143224 51.708758 
L 30.349123 52.109914 
L 30.555023 52.511071 
L 30.760922 52.912228 
L 31.036491 53.42626 
L 31.31206 53.940293 
L 31.58763 54.454325 
L 31.863199 54.968358 
L 31.815567 55.320908 
L 31.767936 55.673459 
" style="fill:none;stroke:#008000;stroke-linecap:square;stroke-width:0.4;"/>
   </g>
   <g id="line2d_37">
    <path clip-path="url(#pa7ef642e98)" d="M 26.047541 44.692183 
L 26.104592 45.359245 
L 26.161644 46.026306 
L 26.319023 46.407697 
L 26.476402 46.789088 
L 26.633781 47.170479 
L 26.791161 47.55187 
L 27.134356 48.123708 
L 27.477551 48.695545 
L 27.658657 49.09608 
L 27.839763 49.496616 
L 27.916009 49.86831 
L 27.992255 50.240005 
" style="fill:none;stroke:#008000;stroke-linecap:square;stroke-width:0.4;"/>
   </g>
   <g id="line2d_38">
    <path clip-path="url(#pa7ef642e98)" d="M 36.031661 44.374938 
L 35.406232 44.333169 
L 34.780803 44.2914 
L 34.199095 43.976889 
L 33.617387 43.662378 
L 33.212253 43.548011 
L 32.807119 43.433643 
L 32.401985 43.319275 
L 31.996851 43.204908 
L 31.63455 43.238224 
L 31.272249 43.271539 
L 30.909948 43.304855 
L 30.547647 43.338171 
L 30.16624 43.323875 
L 29.784833 43.309579 
L 29.403426 43.295283 
L 29.022019 43.280987 
" style="fill:none;stroke:#008000;stroke-linecap:square;stroke-width:0.4;"/>
   </g>
   <g id="line2d_39">
    <path clip-path="url(#pa7ef642e98)" d="M 27.496746 37.999692 
L 27.711176 38.333347 
L 27.925607 38.667002 
L 28.140037 39.000657 
L 28.354467 39.334312 
L 28.65483 39.534579 
L 28.955192 39.734847 
L 29.255555 39.935114 
L 29.555917 40.135382 
L 29.794252 40.621444 
L 30.032587 41.107506 
L 29.794252 41.517489 
L 29.555917 41.927472 
L 29.422443 42.265851 
L 29.288968 42.60423 
L 29.155493 42.942608 
L 29.022019 43.280987 
L 28.712148 43.485979 
L 28.402277 43.69097 
L 28.092406 43.895961 
L 27.782535 44.100953 
L 27.348786 44.248761 
L 26.915038 44.396568 
L 26.48129 44.544376 
L 26.047541 44.692183 
L 25.553543 44.791633 
L 25.059544 44.891084 
L 24.565546 44.990534 
L 24.071547 45.089984 
" style="fill:none;stroke:#4169e1;stroke-linecap:square;stroke-width:0.4;"/>
   </g>
   <g id="line2d_40">
    <path clip-path="url(#pa7ef642e98)" d="M 31.181074 36.808778 
L 30.965488 37.114835 
L 30.749903 37.420893 
L 30.534317 37.72695 
L 30.318731 38.033008 
L 30.147045 38.557358 
L 29.975358 39.081709 
L 29.765638 39.608545 
L 29.555917 40.135382 
" style="fill:none;stroke:#000000;stroke-linecap:square;stroke-width:0.4;"/>
   </g>
   <g id="line2d_41">
    <path clip-path="url(#pa7ef642e98)" d="M 43.486694 5.707265 
L 43.799853 5.429923 
L 44.113012 5.152582 
L 44.426171 4.875241 
L 44.73933 4.597899 
L 45.235017 4.31198 
L 45.730704 4.026061 
L 46.27891 3.868682 
L 46.827116 3.711302 
L 47.375322 3.553922 
L 47.923528 3.396543 
L 48.323952 3.382247 
L 48.724376 3.367951 
L 49.1248 3.353655 
L 49.525224 3.339359 
L 49.878017 3.549198 
L 50.230809 3.759038 
L 50.526373 3.993119 
L 50.821937 4.227199 
L 51.117501 4.46128 
L 51.413064 4.69536 
" style="fill:none;stroke:#008000;stroke-linecap:square;stroke-width:0.4;"/>
   </g>
   <g id="line2d_42">
    <path clip-path="url(#pa7ef642e98)" d="M 36.406315 13.31221 
L 36.854548 13.483762 
L 37.302781 13.655313 
L 37.710359 13.562327 
L 38.117937 13.469341 
L 38.525514 13.376356 
L 38.933092 13.28337 
L 39.34067 13.190384 
L 39.748247 13.097398 
L 40.155825 13.004412 
L 40.563403 12.911427 
L 41.044871 12.849519 
L 41.52634 12.787611 
L 42.007809 12.725704 
L 42.489277 12.663796 
L 42.878149 12.86916 
" style="fill:none;stroke:#008000;stroke-linecap:square;stroke-width:0.4;"/>
   </g>
   <g id="line2d_43">
    <path clip-path="url(#pa7ef642e98)" d="M 40.258064 4.655083 
L 40.086555 5.169986 
L 39.915046 5.684888 
L 39.757756 6.128187 
L 39.600465 6.571486 
L 39.443175 7.014784 
L 39.285885 7.458083 
L 39.076075 7.882362 
L 38.866266 8.30664 
L 38.656456 8.730919 
L 38.446647 9.155198 
L 38.236926 9.589049 
L 38.027206 10.0229 
L 37.817485 10.456751 
L 37.607765 10.890601 
L 37.412263 11.267144 
L 37.21676 11.643687 
L 37.021258 12.02023 
L 36.825756 12.396773 
L 36.616035 12.854491 
L 36.406315 13.31221 
L 35.972566 13.440874 
L 35.538818 13.569537 
L 35.10507 13.698201 
L 34.671322 13.826864 
L 34.194563 13.783977 
L 33.717804 13.741089 
L 33.241045 13.698201 
L 32.764286 13.655313 
L 32.440108 13.769681 
L 32.11593 13.884048 
L 31.787042 14.236847 
L 31.458154 14.589646 
L 31.129266 14.942445 
L 30.800378 15.295244 
L 30.283541 15.500112 
L 29.83593 15.67763 
L 29.388319 15.855148 
L 28.940707 16.032667 
L 28.493096 16.210185 
L 28.145102 16.296085 
L 27.797108 16.381985 
L 27.449114 16.467885 
L 27.101121 16.553785 
L 27.015277 16.944624 
L 26.929434 17.335462 
L 27.148752 17.831221 
L 27.36807 18.326979 
L 27.544377 18.632291 
L 27.84705 19.156393 
L 28.149723 19.680495 
L 28.502516 19.790138 
L 28.855309 19.899782 
L 29.208101 20.009426 
L 29.560894 20.119069 
L 29.889693 20.469631 
L 30.132827 20.729195 
L 30.437988 20.877003 
L 30.743149 21.024811 
L 31.04831 21.172618 
L 31.353471 21.320426 
L 31.791929 21.444241 
L 32.230388 21.568057 
L 32.648051 21.896242 
L 33.031236 22.197575 
L 33.288588 22.474047 
L 33.54594 22.750518 
L 33.803292 23.026989 
L 34.060644 23.30346 
" style="fill:none;stroke:#008000;stroke-linecap:square;stroke-width:0.4;"/>
   </g>
   <g id="line2d_44">
    <path clip-path="url(#pa7ef642e98)" d="M 30.283541 15.500112 
L 30.031343 15.787274 
L 29.779145 16.074436 
L 29.526947 16.361598 
L 29.27475 16.64876 
L 28.855309 17.077887 
L 28.435867 17.507014 
L 28.092672 17.831221 
L 27.749477 18.155428 
L 27.544377 18.632291 
" style="fill:none;stroke:#4169e1;stroke-linecap:square;stroke-width:0.4;"/>
   </g>
   <g id="line2d_45">
    <path clip-path="url(#pa7ef642e98)" d="M 27.870333 20.138959 
L 27.741657 20.603764 
L 27.612981 21.068569 
L 27.484305 21.533373 
L 27.355629 21.998178 
L 27.102987 22.308027 
L 26.850345 22.617876 
L 26.597702 22.927725 
L 26.34506 23.237574 
L 26.092418 23.547424 
L 25.839776 23.857273 
L 25.587134 24.167122 
L 25.334491 24.476971 
L 25.038928 24.829708 
L 24.743364 25.182445 
L 24.4478 25.535181 
L 24.152236 25.887918 
L 23.856673 26.240655 
L 23.561109 26.593392 
L 23.265545 26.946129 
L 22.969981 27.298866 
L 22.99042 27.761557 
L 23.010859 28.224249 
L 23.028454 28.619563 
L 23.046049 29.014877 
L 22.988909 29.434307 
L 22.931769 29.853738 
L 22.874629 30.273169 
L 22.817489 30.692599 
L 22.560049 31.140622 
L 22.302608 31.588644 
L 22.045167 32.036667 
L 21.787726 32.484689 
L 21.663849 32.806721 
L 21.539971 33.128753 
L 21.416094 33.450784 
L 21.292217 33.772816 
L 21.168339 34.094848 
L 21.044462 34.416879 
L 20.920585 34.738911 
L 20.796707 35.060943 
L 20.758407 35.60854 
L 20.720106 36.156137 
L 20.681805 36.703733 
L 20.643505 37.25133 
L 20.214466 37.708925 
L 19.785428 38.166519 
L 19.356389 38.624114 
L 18.927351 39.081709 
L 18.526927 39.291424 
L 18.126503 39.501139 
L 17.726079 39.710854 
L 17.325655 39.92057 
L 17.096828 40.292389 
L 16.868002 40.664208 
L 16.639175 41.036026 
L 16.410349 41.407845 
L 16.181522 41.779664 
L 15.952696 42.151483 
L 15.723869 42.523302 
L 15.495043 42.895121 
L 15.223295 43.387896 
L 14.951547 43.880671 
L 14.679799 44.373446 
L 14.408051 44.866221 
" style="fill:none;stroke:#4169e1;stroke-linecap:square;stroke-width:0.4;"/>
   </g>
   <g id="line2d_46">
    <path clip-path="url(#pa7ef642e98)" d="M 14.160296 43.991061 
L 14.522597 44.157888 
L 14.884898 44.324715 
L 15.2472 44.491543 
L 15.609501 44.65837 
L 15.905687 44.920173 
L 16.201872 45.181975 
L 16.498058 45.443777 
L 16.794244 45.705579 
L 16.760831 46.289103 
L 16.727418 46.872626 
L 16.63571 47.443221 
L 16.544001 48.013815 
L 16.467578 48.643085 
L 16.391154 49.272356 
L 16.562841 49.882482 
L 16.734527 50.492608 
L 16.942115 50.747697 
L 17.347871 51.246315 
L 17.753627 51.744933 
L 18.159383 52.24355 
L 18.565139 52.742168 
" style="fill:none;stroke:#008000;stroke-linecap:square;stroke-width:0.4;"/>
   </g>
   <g id="line2d_47">
    <path clip-path="url(#pa7ef642e98)" d="M 23.010859 28.224249 
L 23.501125 28.371808 
L 23.991391 28.519367 
L 24.481658 28.666926 
L 24.971924 28.814485 
L 25.434375 29.05764 
L 25.896827 29.300796 
L 26.359279 29.543951 
L 26.82173 29.787106 
L 27.024341 30.106465 
L 27.226953 30.425824 
L 27.429564 30.745183 
L 27.632176 31.064542 
L 27.834787 31.383901 
L 28.037398 31.70326 
L 28.24001 32.022619 
L 28.442621 32.341978 
L 28.69082 32.799573 
L 28.939019 33.257167 
L 29.187218 33.714762 
L 29.435417 34.172357 
" style="fill:none;stroke:#008000;stroke-linecap:square;stroke-width:0.4;"/>
   </g>
   <g id="line2d_48">
    <path clip-path="url(#pa7ef642e98)" d="M 43.957676 11.586752 
L 44.170996 11.846068 
L 44.384316 12.105384 
L 44.597635 12.3647 
L 44.810955 12.624016 
L 45.024274 12.883332 
L 45.237594 13.142648 
L 45.450913 13.401964 
L 45.664233 13.66128 
L 45.877553 13.920596 
L 46.090872 14.179912 
L 46.304192 14.439228 
L 46.517511 14.698544 
L 46.730831 14.95786 
L 46.94415 15.217176 
L 47.15747 15.476492 
L 47.37079 15.735808 
L 47.652046 16.102841 
L 47.933303 16.469874 
L 48.214559 16.836907 
L 48.495816 17.20394 
L 48.777073 17.570972 
L 49.058329 17.938005 
L 49.339586 18.305038 
L 49.620842 18.672071 
L 49.8973 19.225013 
L 50.173758 19.777956 
L 50.450216 20.330898 
L 50.726674 20.88384 
L 50.945992 21.291399 
L 51.16531 21.698958 
L 51.384628 22.106517 
L 51.603946 22.514075 
L 51.823264 22.921634 
L 52.042581 23.329193 
L 52.261899 23.736752 
L 52.481217 24.14431 
" style="fill:none;stroke:#000000;stroke-linecap:square;stroke-width:0.4;"/>
   </g>
   <g id="line2d_49">
    <path clip-path="url(#pa7ef642e98)" d="M 34.404372 13.80051 
L 33.946719 14.267428 
L 33.489066 14.734346 
L 33.033368 14.959103 
L 32.577671 15.18386 
L 32.097091 15.421049 
L 31.959128 15.736585 
L 31.821166 16.052121 
L 31.683204 16.367658 
L 31.545241 16.683194 
L 31.407279 16.998731 
L 31.269316 17.314267 
L 31.131354 17.629803 
L 30.993392 17.94534 
L 30.855429 18.260876 
L 30.717467 18.576413 
L 30.579505 18.891949 
L 30.441542 19.207485 
L 30.30358 19.523022 
L 30.165618 19.838558 
L 30.027655 20.154094 
L 29.889693 20.469631 
L 29.687387 20.942726 
L 29.485081 21.41582 
L 29.282775 21.888915 
L 29.080469 22.36201 
L 28.878163 22.835105 
L 28.675858 23.3082 
L 28.473552 23.781294 
L 28.271246 24.254389 
L 28.06894 24.727484 
L 27.866634 25.200579 
L 27.664328 25.673673 
L 27.462022 26.146768 
L 27.259716 26.619863 
L 27.05741 27.092958 
L 26.855104 27.566053 
L 26.652798 28.039147 
L 26.450493 28.512242 
L 26.248187 28.985337 
L 26.045881 29.458432 
L 25.843575 29.931527 
L 25.641269 30.404621 
L 25.438963 30.877716 
L 25.236657 31.350811 
L 25.034351 31.823906 
L 24.832045 32.297001 
L 24.629739 32.770095 
L 24.427433 33.24319 
L 24.225128 33.716285 
L 24.022822 34.18938 
L 23.820516 34.662474 
L 23.61821 35.135569 
L 23.415904 35.608664 
L 23.213598 36.081759 
L 23.011292 36.554854 
L 22.808986 37.027948 
L 22.60668 37.501043 
L 22.404374 37.974138 
L 22.202068 38.447233 
L 21.999763 38.920328 
L 21.797457 39.393422 
L 21.595151 39.866517 
L 21.392845 40.339612 
L 21.190539 40.812707 
L 20.988233 41.285802 
L 20.785927 41.758896 
L 20.583621 42.231991 
L 20.381315 42.705086 
L 20.179009 43.178181 
L 19.976703 43.651275 
L 19.774398 44.12437 
L 19.572092 44.597465 
L 19.369786 45.07056 
L 19.16748 45.543655 
L 18.965174 46.016749 
L 18.762868 46.489844 
L 18.560562 46.962939 
L 18.358256 47.436034 
L 18.15595 47.909129 
L 17.953644 48.382223 
L 17.751338 48.855318 
L 17.549033 49.328413 
L 17.346727 49.801508 
L 17.144421 50.274602 
L 16.942115 50.747697 
" style="fill:none;stroke:#000000;stroke-linecap:square;stroke-width:0.4;"/>
   </g>
   <g id="line2d_50">
    <path clip-path="url(#pa7ef642e98)" d="M 32.648051 21.896242 
L 32.455826 22.292457 
L 32.263601 22.688672 
L 32.071375 23.084888 
L 31.87915 23.481103 
L 31.686925 23.877318 
L 31.494699 24.273533 
L 31.302474 24.669748 
L 31.110249 25.065964 
L 30.918023 25.462179 
L 30.725798 25.858394 
L 30.533573 26.254609 
L 30.341347 26.650825 
L 30.149122 27.04704 
L 29.956897 27.443255 
L 29.764672 27.83947 
L 29.572446 28.235686 
L 29.380221 28.631901 
L 29.187996 29.028116 
L 28.99577 29.424331 
L 28.803545 29.820547 
L 28.61132 30.216762 
L 28.419094 30.612977 
L 28.226869 31.009192 
L 28.034644 31.405407 
L 27.842418 31.801623 
L 27.650193 32.197838 
L 27.457968 32.594053 
L 27.265742 32.990268 
L 27.073517 33.386484 
L 26.881292 33.782699 
L 26.689066 34.178914 
L 26.496841 34.575129 
L 26.304616 34.971345 
L 26.11239 35.36756 
L 25.920165 35.763775 
L 25.72794 36.15999 
L 25.535714 36.556206 
L 25.343489 36.952421 
L 25.151264 37.348636 
L 24.959038 37.744851 
L 24.766813 38.141066 
L 24.574588 38.537282 
L 24.382362 38.933497 
L 24.190137 39.329712 
L 23.997912 39.725927 
L 23.805686 40.122143 
L 23.613461 40.518358 
L 23.421236 40.914573 
L 23.22901 41.310788 
L 23.036785 41.707004 
L 22.84456 42.103219 
L 22.652334 42.499434 
L 22.460109 42.895649 
L 22.267884 43.291865 
L 22.075658 43.68808 
L 21.883433 44.084295 
L 21.691208 44.48051 
L 21.498983 44.876725 
L 21.306757 45.272941 
L 21.114532 45.669156 
L 20.922307 46.065371 
L 20.730081 46.461586 
L 20.537856 46.857802 
L 20.345631 47.254017 
L 20.417078 47.868867 
L 20.488525 48.483717 
L 20.559972 49.098567 
L 20.631419 49.713417 
" style="fill:none;stroke:#4169e1;stroke-linecap:square;stroke-width:0.4;"/>
   </g>
   <g id="line2d_51">
    <path clip-path="url(#pa7ef642e98)" d="M 32.577671 15.18386 
L 32.541947 15.598567 
L 32.506223 16.013274 
L 32.4705 16.427981 
L 32.434776 16.842687 
L 32.482497 17.228802 
L 32.530217 17.614917 
L 32.577937 18.001032 
L 32.625658 18.387147 
L 32.859194 18.754242 
L 33.09273 19.121337 
L 33.326266 19.488432 
L 33.559803 19.855527 
L 33.331865 20.365705 
L 33.103927 20.875884 
L 32.875989 21.386063 
L 32.648051 21.896242 
" style="fill:none;stroke:#000000;stroke-linecap:square;stroke-width:0.4;"/>
   </g>
   <g id="line2d_52">
    <path clip-path="url(#pa7ef642e98)" d="M 36.406315 13.31221 
L 36.432263 13.685645 
L 36.458212 14.05908 
L 36.277061 14.421358 
L 36.095911 14.783636 
L 35.91476 15.145914 
L 35.733609 15.508192 
L 35.552459 15.87047 
L 35.371308 16.232748 
L 35.190158 16.595026 
L 35.009007 16.957303 
L 34.827857 17.319581 
L 34.646706 17.681859 
L 34.465555 18.044137 
L 34.284405 18.406415 
L 34.103254 18.768693 
L 33.922104 19.130971 
L 33.740953 19.493249 
L 33.559803 19.855527 
" style="fill:none;stroke:#000000;stroke-linecap:square;stroke-width:0.4;"/>
   </g>
  </g>
 </g>
 <defs>
  <clipPath id="pa7ef642e98">
   <rect height="72" width="72.419492" x="0" y="0"/>
  </clipPath>
 </defs>
</svg>
