<?xml version="1.0" encoding="utf-8" standalone="no"?>
<!DOCTYPE svg PUBLIC "-//W3C//DTD SVG 1.1//EN"
  "http://www.w3.org/Graphics/SVG/1.1/DTD/svg11.dtd">
<svg height="72pt" version="1.1" viewBox="0 0 116.083543 72" width="116.083543pt" xmlns="http://www.w3.org/2000/svg" xmlns:xlink="http://www.w3.org/1999/xlink">
 <metadata>
  <rdf:RDF xmlns:cc="http://creativecommons.org/ns#" xmlns:dc="http://purl.org/dc/elements/1.1/" xmlns:rdf="http://www.w3.org/1999/02/22-rdf-syntax-ns#">
   <cc:Work>
    <dc:type rdf:resource="http://purl.org/dc/dcmitype/StillImage"/>
    <dc:date>2022-04-19T00:47:06.844876</dc:date>
    <dc:format>image/svg+xml</dc:format>
    <dc:creator>
     <cc:Agent>
      <dc:title>Matplotlib v3.4.3, https://matplotlib.org/</dc:title>
     </cc:Agent>
    </dc:creator>
   </cc:Work>
  </rdf:RDF>
 </metadata>
 <defs>
  <style type="text/css">*{stroke-linecap:butt;stroke-linejoin:round;}</style>
 </defs>
 <g id="figure_1">
  <g id="patch_1">
   <path d="M 0 72 
L 116.083543 72 
L 116.083543 0 
L 0 0 
z
" style="fill:#ffffff;"/>
  </g>
  <g id="axes_1">
   <g id="line2d_1">
    <path clip-path="url(#p473e0b4423)" d="M 11.06233 54.298826 
L 12.731031 52.494754 
L 14.399732 50.690682 
L 16.068433 48.88661 
L 17.737134 47.082538 
L 19.405835 45.278466 
L 21.074536 43.474393 
L 22.743237 41.670321 
L 24.411938 39.866249 
L 26.080639 38.062177 
L 27.74934 36.258105 
L 29.418041 34.454033 
L 31.086742 32.64996 
L 32.755443 30.845888 
L 34.424144 29.041816 
L 36.092845 27.237744 
L 37.761546 25.433672 
" style="fill:none;stroke:#808080;stroke-linecap:square;stroke-width:0.537424;"/>
   </g>
   <g id="line2d_2">
    <path clip-path="url(#p473e0b4423)" d="M 61.098403 61.835581 
L 59.80495 59.539688 
L 58.511497 57.243795 
L 57.218044 54.947902 
L 55.924591 52.652008 
L 54.631138 50.356115 
L 53.337685 48.060222 
L 52.044232 45.764329 
L 50.750779 43.468435 
L 49.457326 41.172542 
L 48.163873 38.876649 
L 46.87042 36.580756 
L 45.576966 34.284862 
L 44.283513 31.988969 
L 42.99006 29.693076 
L 41.696607 27.397183 
L 40.403154 25.101289 
" style="fill:none;stroke:#808080;stroke-linecap:square;stroke-width:0.537424;"/>
   </g>
   <g id="line2d_3">
    <path clip-path="url(#p473e0b4423)" d="M 53.130549 26.287189 
L 53.335372 26.95958 
L 53.17401 27.767339 
L 53.070092 28.240492 
L 52.966175 28.713644 
L 52.873876 29.406054 
L 52.781577 30.098465 
L 52.874091 30.906224 
L 53.058689 31.379376 
L 53.243288 31.852529 
L 53.416268 32.452787 
L 53.589249 33.053046 
L 54.212752 33.606593 
L 54.605185 34.033669 
L 54.997618 34.460745 
L 55.228474 34.853185 
L 55.45933 35.245625 
L 55.759248 36.02987 
L 55.759248 36.791871 
L 55.655331 37.426448 
L 55.551414 38.061025 
L 55.493754 38.638087 
L 55.436094 39.215148 
L 55.459115 39.815407 
L 55.482136 40.415665 
L 55.574435 41.096636 
L 55.666734 41.777607 
L 55.63231 42.481457 
L 55.597886 43.185307 
L 55.563247 43.85452 
L 55.528608 44.523734 
L 55.563247 45.25078 
L 55.597886 45.977827 
L 55.528608 46.624161 
L 55.45933 47.270496 
" style="fill:none;stroke:#4169e1;stroke-linecap:square;stroke-width:0.537424;"/>
   </g>
   <g id="line2d_4">
    <path clip-path="url(#p473e0b4423)" d="M 38.137628 24.97037 
L 38.627094 24.949398 
L 39.116559 24.928425 
L 39.531798 25.182637 
L 39.508992 25.644032 
L 39.370436 26.221094 
L 39.162601 26.890307 
L 38.81621 27.398096 
L 38.58557 28.113703 
L 38.38548 28.323428 
L 38.256821 28.458161 
L 38.100622 28.621492 
L 37.754662 29.036494 
L 37.454313 29.359979 
L 37.108352 29.590676 
L 36.923323 29.821374 
" style="fill:none;stroke:#008000;stroke-linecap:square;stroke-width:0.537424;"/>
   </g>
   <g id="line2d_5">
    <path clip-path="url(#p473e0b4423)" d="M 36.923323 29.821374 
L 36.508084 30.190617 
L 35.838538 30.583375 
L 35.076909 30.975497 
L 34.338084 31.183315 
L 33.761053 31.252588 
L 33.207258 31.321861 
L 32.375919 31.321861 
L 31.72961 31.82965 
L 31.337177 32.291045 
L 30.783381 32.452469 
L 30.156865 32.565594 
L 29.644379 32.737823 
" style="fill:none;stroke:#000000;stroke-linecap:square;stroke-width:0.537424;"/>
   </g>
   <g id="line2d_6">
    <path clip-path="url(#p473e0b4423)" d="M 39.832147 24.536303 
L 39.993509 24.051393 
L 40.709097 23.705029 
L 41.540005 23.705029 
L 42.267211 23.936044 
L 42.994417 24.16706 
L 43.490768 24.37456 
L 43.987118 24.582061 
L 44.413975 24.824516 
L 44.840832 25.066971 
L 45.325564 25.447653 
L 45.810296 25.828336 
L 46.272008 26.013276 
L 46.682943 26.135297 
L 47.126152 26.266852 
L 47.749441 26.324685 
L 48.372729 26.382519 
L 49.226873 26.440352 
L 50.081018 26.498185 
L 50.519493 26.440352 
L 50.957968 26.382519 
L 51.538442 26.328181 
L 52.118916 26.273843 
L 52.624733 26.280516 
L 53.130549 26.287189 
" style="fill:none;stroke:#008000;stroke-linecap:square;stroke-width:0.537424;"/>
   </g>
   <g id="line2d_7">
    <path clip-path="url(#p473e0b4423)" d="M 36.923323 29.821374 
L 36.738725 30.306283 
L 36.669447 30.698406 
L 36.392764 31.436892 
L 36.023137 32.060347 
L 35.723218 32.475984 
L 35.307764 32.741318 
L 34.89231 33.006652 
L 34.13025 33.283743 
L 33.299342 33.456607 
L 32.468434 33.629472 
L 31.972083 33.733381 
L 31.475733 33.83729 
L 30.737339 34.045109 
L 30.275628 34.299321 
L 29.767875 34.483942 
L 29.260121 34.668564 
L 28.983009 34.645049 
" style="fill:none;stroke:#4169e1;stroke-linecap:square;stroke-width:0.537424;"/>
   </g>
   <g id="line2d_8">
    <path clip-path="url(#p473e0b4423)" d="M 38.38548 28.323428 
L 38.529416 29.120384 
L 38.673351 29.917339 
L 39.044484 30.611338 
L 39.415617 31.305337 
L 39.747378 31.839183 
L 40.086024 32.383197 
L 40.492657 33.000297 
L 40.747824 33.349203 
L 41.194045 33.791532 
L 41.955674 33.99935 
L 42.405768 34.149336 
L 42.855861 34.299321 
L 43.640727 34.460745 
L 44.217758 34.876382 
L 44.702275 35.429929 
L 45.210244 35.695581 
L 45.718212 35.961233 
L 46.133666 36.226567 
L 46.54912 36.491901 
L 46.999214 36.665083 
L 47.449307 36.838265 
L 47.853358 37.322856 
L 48.257409 37.807448 
L 48.545925 38.280601 
L 48.83444 38.753753 
L 49.076699 39.146193 
L 49.318958 39.538633 
L 49.411257 40.034665 
L 49.503556 40.530696 
L 49.688585 41.015606 
L 49.757755 41.442682 
L 49.826926 41.869759 
L 49.896097 42.296835 
L 49.965267 42.723911 
L 50.034545 43.300973 
L 50.126845 43.727732 
L 50.219144 44.15449 
L 50.3577 44.916491 
L 50.646216 45.33181 
L 50.934732 45.74713 
L 51.350401 46.174206 
L 51.76607 46.601282 
" style="fill:none;stroke:#4169e1;stroke-linecap:square;stroke-width:0.537424;"/>
   </g>
   <g id="line2d_9">
    <path clip-path="url(#p473e0b4423)" d="M 32.976187 25.366941 
L 32.474135 25.47085 
L 31.972083 25.57476 
L 31.470031 25.678669 
L 30.96798 25.782578 
L 30.37933 26.001836 
L 29.790681 26.221094 
L 29.386737 26.382678 
L 28.982793 26.544261 
L 28.57885 26.705845 
L 28.174906 26.867428 
L 27.724813 26.925103 
L 27.27472 26.982777 
L 26.824627 27.040452 
L 26.374534 27.098126 
L 25.658946 27.490566 
L 24.943358 27.883006 
L 24.498966 28.050309 
L 24.054575 28.217613 
L 23.610183 28.384916 
L 23.165791 28.552219 
L 22.427182 28.910023 
L 21.688573 29.267827 
L 21.232671 29.683146 
L 20.776769 30.098465 
L 20.320867 30.513784 
L 19.864965 30.929103 
L 19.287933 31.529362 
L 18.710902 32.12962 
L 18.514685 32.568136 
L 18.318469 33.006652 
L 18.122252 33.445168 
L 17.926036 33.883684 
L 17.545221 34.610731 
L 17.164406 35.337777 
L 16.789292 35.741657 
L 16.414179 36.145536 
L 16.039065 36.549416 
L 15.663952 36.953296 
L 15.23688 37.426448 
L 14.809808 37.8996 
L 14.584761 38.309359 
L 14.359714 38.719117 
L 14.134668 39.128875 
L 13.909621 39.538633 
L 13.597977 40.057862 
L 13.286333 40.57709 
L 12.974688 41.096318 
L 12.663044 41.615546 
L 12.663044 42.06582 
L 12.663044 42.516093 
L 12.830538 42.972245 
L 12.998032 43.428397 
L 13.165526 43.884549 
L 13.33302 44.340701 
" style="fill:none;stroke:#ff0000;stroke-linecap:square;stroke-width:0.537424;"/>
   </g>
   <g id="line2d_10">
    <path clip-path="url(#p473e0b4423)" d="M 29.644379 32.737823 
L 29.282927 32.845227 
L 29.271524 33.410531 
L 29.260121 33.975836 
L 28.983009 34.645049 
L 28.544534 35.245625 
L 28.359828 35.649505 
L 28.175122 36.053385 
L 27.990416 36.457264 
L 27.80571 36.861144 
L 27.447916 37.311099 
L 27.090122 37.761055 
L 26.761158 38.165093 
L 26.432194 38.569132 
L 26.10323 38.97317 
L 25.774266 39.377208 
L 25.419699 39.731834 
L 24.893013 40.258371 
L 24.366327 40.784908 
L 23.962383 41.148432 
L 23.558439 41.511955 
L 23.154496 41.875478 
L 22.750552 42.239002 
L 22.242799 42.838942 
L 21.735046 43.438883 
L 21.261716 43.877717 
L 20.788387 44.316551 
L 20.47685 44.708673 
L 20.165314 45.100795 
L 19.842159 45.493235 
L 19.519004 45.885675 
L 19.057293 46.50913 
L 18.6072 46.670714 
L 18.157106 46.832298 
L 17.707013 46.993881 
L 17.25692 47.155465 
L 16.893317 47.547746 
L 16.529714 47.940027 
L 16.166111 48.332308 
L 15.802508 48.724589 
L 15.265817 49.295931 
L 14.729126 49.867273 
L 14.192435 50.438615 
L 13.655745 51.009957 
L 13.459528 51.575579 
L 13.263312 52.141201 
L 12.963393 52.787535 
L 12.709516 53.548901 
L 12.339889 54.125962 
L 11.92465 54.380174 
L 11.49349 54.3395 
L 11.06233 54.298826 
" style="fill:none;stroke:#000000;stroke-linecap:square;stroke-width:0.537424;"/>
   </g>
   <g id="line2d_11">
    <path clip-path="url(#p473e0b4423)" d="M 51.76607 46.601282 
L 52.135267 46.762707 
L 52.804813 46.624161 
L 53.370226 46.716631 
L 53.93564 46.809101 
L 54.469211 46.995311 
L 54.92834 47.155465 
L 55.45933 47.270496 
L 55.886294 47.437958 
L 56.313259 47.60542 
L 56.740223 47.772883 
L 57.167188 47.940345 
L 57.582857 47.69789 
L 57.998526 47.455435 
L 58.50628 47.062995 
L 59.014033 46.670555 
L 59.371827 46.335948 
L 59.729621 46.001342 
L 60.006518 45.470356 
L 60.283416 44.93937 
L 60.629807 44.477658 
L 60.976198 44.015945 
L 61.46093 43.646702 
L 61.945663 43.277458 
L 62.5455 43.254579 
L 63.30756 43.346731 
" style="fill:none;stroke:#008000;stroke-linecap:square;stroke-width:0.537424;"/>
   </g>
   <g id="line2d_12">
    <path clip-path="url(#p473e0b4423)" d="M 38.137628 24.97037 
L 37.362229 24.951304 
L 36.762068 25.032175 
L 36.161908 25.113047 
L 35.561748 25.193918 
L 34.961588 25.274789 
L 34.465238 25.297827 
L 33.968888 25.320865 
L 33.472537 25.343903 
L 32.976187 25.366941 
L 32.375919 24.997698 
L 31.637526 24.628455 
L 31.175814 24.559182 
L 30.714103 24.489909 
L 30.160093 24.397757 
L 29.606082 24.305605 
L 28.752153 24.37456 
L 27.898224 24.443515 
L 27.332595 24.501349 
L 26.766967 24.559182 
L 26.201338 24.617015 
L 25.63571 24.674849 
L 25.174106 24.640212 
L 24.712502 24.605576 
L 24.250899 24.570939 
L 23.789295 24.536303 
L 23.219794 24.32912 
L 22.650293 24.121937 
L 22.265605 23.98212 
L 21.792491 23.658953 
L 21.319377 23.335786 
L 20.846262 23.012619 
L 20.373148 22.689452 
L 19.65756 22.827997 
L 18.941973 22.966543 
L 18.231979 23.209951 
L 17.778873 23.365338 
L 17.325768 23.520725 
L 16.852654 23.924605 
L 16.37954 24.328484 
L 15.906426 24.732364 
L 15.433311 25.136244 
L 14.994729 25.413176 
L 14.556146 25.690108 
L 14.117563 25.967041 
L 13.678981 26.243973 
L 13.286548 26.659451 
L 12.894115 27.074929 
L 12.501682 27.490407 
L 12.109249 27.905885 
L 11.762965 28.229052 
L 11.416682 28.552219 
L 11.070398 28.875387 
L 10.724115 29.198554 
L 10.585558 29.982798 
L 10.447217 30.767678 
L 10.308876 31.552558 
L 9.916443 32.152499 
L 9.52401 32.75244 
L 8.99302 33.260229 
L 8.462031 33.768017 
L 7.931042 34.391473 
L 7.400052 35.014928 
L 6.938556 35.545596 
L 6.47706 36.076264 
L 6.234694 36.561014 
L 5.992328 37.045765 
L 5.749962 37.530516 
L 5.507595 38.015267 
L 5.449828 38.465381 
L 5.39206 38.915496 
L 5.334292 39.36561 
L 5.276525 39.815724 
L 5.322782 40.600287 
L 5.369039 41.384849 
L 5.39206 41.858001 
L 5.415081 42.331154 
L 5.438102 42.804306 
L 5.461123 43.277458 
L 5.50738 43.969869 
L 5.553637 44.662279 
L 5.796004 45.020083 
L 6.03837 45.377886 
L 6.280736 45.73569 
L 6.523102 46.093494 
L 6.984813 46.624479 
L 7.446524 47.155465 
L 7.815721 47.524708 
L 8.184918 47.893951 
L 8.415774 48.355664 
L 8.646629 48.817377 
L 9.062084 49.232696 
L 9.477538 49.648015 
L 9.985506 50.155804 
L 10.493474 50.663593 
L 10.874289 51.067472 
L 11.255104 51.471352 
L 11.740052 52.071928 
L 12.03997 52.486929 
L 12.374743 53.017915 
L 12.709516 53.548901 
" style="fill:none;stroke:#4169e1;stroke-linecap:square;stroke-width:0.537424;"/>
   </g>
   <g id="line2d_13">
    <path clip-path="url(#p473e0b4423)" d="M 51.76607 46.601282 
L 51.996711 47.062677 
L 52.158288 47.732209 
L 52.319865 48.40174 
L 52.285226 48.944165 
L 52.250587 49.48659 
L 52.296737 50.184879 
L 52.342886 50.883168 
L 52.389036 51.581457 
L 52.435186 52.279746 
L 52.492953 52.74702 
L 52.550721 53.214294 
L 52.608489 53.681568 
L 52.666256 54.148841 
L 53.012432 54.818372 
L 53.358608 55.487904 
L 53.572144 55.984094 
L 53.78568 56.480284 
L 53.999216 56.976475 
L 54.212752 57.472665 
L 54.616588 58.165393 
L 55.020424 58.858121 
L 55.25128 59.256281 
L 55.482136 59.654441 
L 55.712991 60.052601 
L 55.943847 60.450761 
L 56.740331 60.750731 
L 57.536815 61.050701 
L 58.171507 61.581687 
L 58.806198 62.112672 
L 59.483059 62.182581 
L 59.923256 62.227703 
L 60.363452 62.272826 
L 60.784285 62.159702 
L 61.098403 61.835581 
" style="fill:none;stroke:#000000;stroke-linecap:square;stroke-width:0.537424;"/>
   </g>
   <g id="line2d_14">
    <path clip-path="url(#p473e0b4423)" d="M 29.282927 32.845227 
L 28.705896 32.775954 
L 28.151885 32.752757 
L 27.597875 32.729561 
L 27.009225 32.810273 
L 26.420576 32.890985 
L 25.866565 32.972015 
L 25.312555 33.053046 
L 25.127956 33.514441 
L 25.035657 34.045109 
L 24.943358 34.575776 
L 24.66646 35.01461 
L 24.389563 35.453444 
L 23.858573 35.7299 
L 23.142985 36.053385 
L 22.923748 36.526537 
L 22.70451 36.999689 
L 22.450419 37.426766 
L 22.196327 37.853842 
L 21.919429 38.39595 
L 21.642531 38.938057 
L 21.319377 39.503679 
L 20.996222 40.069301 
L 20.742345 40.48462 
L 20.488468 40.899939 
L 20.165314 41.18847 
L 19.842159 41.477001 
L 19.484365 42.100456 
L 19.126571 42.723911 
L 18.757159 43.104594 
L 18.387747 43.485277 
L 18.064592 43.84308 
L 17.741437 44.200884 
L 17.164406 44.547248 
L 16.587374 44.893612 
L 16.021746 45.262855 
L 15.456117 45.632099 
L 15.109941 45.932069 
L 14.763765 46.232039 
L 14.279033 46.693752 
L 13.794301 47.155465 
L 13.293217 47.519624 
L 12.792134 47.883783 
L 12.478445 48.632437 
L 12.524488 48.955922 
L 12.524488 49.48659 
L 12.755558 50.155804 
L 12.986199 50.663593 
L 13.655745 51.009957 
" style="fill:none;stroke:#4169e1;stroke-linecap:square;stroke-width:0.537424;"/>
   </g>
   <g id="line2d_15">
    <path clip-path="url(#p473e0b4423)" d="M 34.961588 25.274789 
L 34.845838 25.55188 
L 34.245785 26.013276 
L 33.645733 26.474671 
L 33.22447 26.78052 
L 32.803207 27.086369 
L 32.381943 27.392218 
L 31.96068 27.698067 
L 31.325774 28.125143 
L 30.690867 28.552219 
L 30.258093 28.713803 
L 29.82532 28.875387 
L 29.392546 29.03697 
L 28.959772 29.198554 
L 28.498169 29.458168 
L 28.036565 29.717782 
L 27.574961 29.977396 
L 27.113358 30.23701 
L 26.743946 30.467867 
L 26.374534 30.698723 
L 26.005122 30.92958 
L 25.63571 31.160436 
L 25.127956 31.345058 
L 24.620203 31.529679 
L 24.11245 31.72574 
L 23.604697 31.921802 
L 23.050686 32.187135 
L 22.496676 32.452469 
L 21.988707 32.741 
L 21.480739 33.029531 
L 21.18082 33.629472 
L 20.926944 34.24117 
L 20.673067 34.852868 
L 20.41919 35.453126 
L 20.165314 36.053385 
L 19.853562 36.549416 
L 19.54181 37.045447 
L 19.149377 37.714979 
L 18.756944 38.38451 
L 18.468428 38.765193 
L 18.179912 39.145875 
L 17.943355 39.538315 
L 17.706798 39.930755 
L 17.470241 40.323195 
L 17.233684 40.715635 
L 16.748737 41.269818 
L 16.37954 41.789046 
L 16.010343 42.308275 
L 15.594889 42.585366 
L 15.179435 42.862457 
L 14.609718 43.275552 
L 14.040002 43.688647 
L 13.686511 44.014674 
L 13.33302 44.340701 
L 12.940372 44.686112 
L 12.547724 45.031522 
L 12.051373 45.366447 
L 11.555023 45.701371 
L 11.128166 46.093811 
L 10.701309 46.486251 
L 10.17032 46.797661 
L 9.63933 47.109071 
L 9.391155 47.536148 
L 9.14298 47.963224 
L 8.894805 48.3903 
L 8.646629 48.817377 
" style="fill:none;stroke:#000000;stroke-linecap:square;stroke-width:0.537424;"/>
   </g>
   <g id="line2d_16">
    <path clip-path="url(#p473e0b4423)" d="M 40.062787 23.451453 
L 40.455221 22.758724 
L 43.617491 21.81242 
L 44.898707 21.824177 
L 45.325779 21.881692 
L 45.510378 22.113026 
L 46.456606 24.028514 
L 46.941553 24.16706 
L 48.693733 23.931278 
L 50.404173 23.243634 
L 51.281123 22.27445 
L 51.119545 19.043096 
L 50.496257 17.173683 
L 48.71912 11.865734 
L 47.934254 9.673154 
L 47.611099 9.349669 
L 47.149388 9.14185 
L 46.710913 9.349669 
L 45.395057 9.603881 
L 43.201821 9.625489 
L 41.032252 9.557487 
L 38.93153 9.603881 
L 37.869982 9.880337 
L 35.88458 10.965187 
L 34.003527 11.254036 
L 33.507176 11.288672 
L 32.860867 11.195885 
L 31.868166 11.450097 
L 31.129772 11.888613 
L 30.20635 13.180646 
L 29.029051 14.63474 
L 28.867688 15.119649 
L 28.405977 15.742469 
L 25.405069 16.50447 
L 24.643439 16.435197 
L 23.673975 15.166043 
L 22.958387 13.804101 
L 21.573253 11.727188 
L 20.857665 11.150126 
L 19.818923 10.850156 
L 18.734138 10.826641 
L 17.071891 11.450097 
L 14.902322 13.088494 
L 14.163498 13.896253 
L 13.147991 14.61186 
L 11.624301 15.119649 
L 10.908713 15.627438 
L 9.985721 17.242956 
L 9.246897 19.204839 
L 9.062299 20.266174 
L 9.246897 22.620179 
L 9.52401 32.75244 
L 9.52401 32.75244 
" style="fill:none;stroke:#008000;stroke-linecap:square;stroke-width:0.537424;"/>
   </g>
   <g id="line2d_17">
    <path clip-path="url(#p473e0b4423)" d="M 53.130549 26.287189 
L 53.76395 26.150232 
L 54.397351 26.013276 
L 54.974382 26.186458 
L 55.551414 26.35964 
L 56.197723 26.728883 
L 56.844033 27.098126 
L 57.294126 27.617354 
L 57.744219 28.136583 
L 58.171292 28.529023 
L 58.598364 28.921463 
L 59.048457 29.359979 
L 59.49855 29.798494 
L 59.798684 30.225571 
L 60.098818 30.652647 
L 60.179714 31.114042 
L 60.26061 31.575437 
L 60.352909 32.325681 
L 60.445209 33.075925 
L 60.560529 33.710502 
L 60.675849 34.345079 
L 60.918323 35.002853 
L 61.160797 35.660627 
L 61.357013 36.076264 
L 61.55323 36.491901 
L 61.72621 36.999689 
L 61.89919 37.507478 
L 62.233963 38.072782 
L 62.568736 38.638087 
L 62.822613 39.365133 
L 63.076489 40.09218 
L 63.065086 40.599969 
L 63.053684 41.107758 
L 62.984405 41.892638 
L 63.145983 42.619684 
L 63.30756 43.346731 
L 63.792292 43.762368 
L 64.277025 44.178005 
L 64.692479 44.535809 
L 65.107933 44.893612 
L 65.62128 45.379157 
L 65.962077 45.701371 
L 66.308253 46.035978 
L 66.654429 46.370585 
L 66.827624 46.843737 
L 67.00082 47.31689 
L 67.023841 47.893951 
L 67.046862 48.471013 
L 67.023841 49.140226 
L 67.00082 49.80944 
L 66.966181 50.340425 
L 66.931542 50.871411 
L 66.885284 51.506306 
L 66.839027 52.141201 
L 66.792985 52.602596 
L 66.746943 53.063991 
L 66.666047 53.548901 
L 66.585151 54.03381 
L 66.492636 54.392885 
L 66.400552 54.749417 
L 66.493067 55.557177 
L 66.481448 56.203511 
L 66.46983 56.849845 
L 66.192718 57.519059 
L 65.731006 57.980454 
L 65.107933 58.396091 
L 64.680861 58.442167 
L 64.253789 58.488243 
L 63.722799 58.973152 
L 63.330366 59.573729 
L 63.145768 59.965851 
L 62.961169 60.357973 
L 62.662972 60.625531 
L 62.291623 60.958549 
L 61.691786 61.397065 
L 61.391437 61.789188 
L 61.098403 61.835581 
" style="fill:none;stroke:#000000;stroke-linecap:square;stroke-width:0.537424;"/>
   </g>
   <g id="line2d_18">
    <path clip-path="url(#p473e0b4423)" d="M 57.998526 47.455435 
L 58.298445 47.824678 
L 58.656239 48.136406 
L 59.014033 48.448134 
L 59.152589 49.140226 
L 59.22176 49.630697 
L 59.290931 50.121167 
L 59.360101 50.611638 
L 59.429272 51.102109 
L 59.625488 51.529185 
L 59.821705 51.956261 
L 60.341076 52.452611 
L 60.860448 52.94896 
L 61.252881 53.318203 
L 61.645314 53.687446 
L 62.072386 53.987416 
L 62.499458 54.287387 
L 62.81121 54.691266 
L 63.122962 55.095146 
L 63.630715 55.74148 
L 63.999912 56.203193 
L 64.369109 56.664906 
L 64.576943 57.265482 
L 64.473026 57.738635 
L 64.369109 58.211787 
L 64.253789 58.488243 
" style="fill:none;stroke:#ff0000;stroke-linecap:square;stroke-width:0.537424;"/>
   </g>
   <g id="line2d_19">
    <path clip-path="url(#p473e0b4423)" d="M 25.63571 24.674849 
L 25.108216 24.901733 
L 24.580723 25.128617 
L 24.05323 25.355502 
L 23.525737 25.582386 
L 22.998243 25.80927 
L 22.47075 26.036155 
L 21.943257 26.263039 
L 21.415764 26.489923 
L 20.74923 27.023133 
L 20.082696 27.556343 
L 19.416162 28.089553 
L 18.749629 28.622763 
L 18.229719 29.262584 
L 17.70981 29.902404 
L 17.189901 30.542224 
L 16.669992 31.182044 
L 16.396698 31.541913 
L 16.123404 31.901782 
L 15.85011 32.261651 
L 15.576816 32.62152 
L 15.303522 32.98139 
L 15.030228 33.341259 
L 14.756934 33.701128 
L 14.483641 34.060997 
L 14.210347 34.554248 
L 13.937053 35.047499 
L 13.663759 35.54075 
L 13.390465 36.034001 
L 13.117171 36.527252 
L 12.843877 37.020503 
L 12.570583 37.513754 
L 12.297289 38.007005 
L 12.05729 38.406912 
L 11.81729 38.80682 
L 11.577291 39.206727 
L 11.337292 39.606635 
L 11.217346 40.139845 
L 11.0974 40.673055 
L 10.977454 41.206265 
L 10.857508 41.739475 
L 11.068785 42.150981 
L 11.280062 42.562487 
L 11.491339 42.973993 
L 11.702616 43.385499 
L 11.913893 43.797005 
L 12.12517 44.20851 
L 12.336447 44.620016 
L 12.547724 45.031522 
" style="fill:none;stroke:#ff0000;stroke-linecap:square;stroke-width:0.537424;"/>
   </g>
   <g id="line2d_20">
    <path clip-path="url(#p473e0b4423)" d="M 22.650293 24.121937 
L 22.122692 24.271287 
L 21.595091 24.420636 
L 21.06749 24.569986 
L 20.539889 24.719336 
L 20.012288 24.868685 
L 19.484688 25.018035 
L 18.957087 25.167385 
L 18.429486 25.316734 
L 17.842988 25.823252 
L 17.25649 26.32977 
L 16.723134 26.86298 
L 16.189778 27.39619 
L 15.736565 28.022664 
L 15.283352 28.649138 
L 14.830139 29.275612 
L 14.376926 29.902086 
L 14.056945 30.275301 
L 13.736964 30.648516 
L 13.416982 31.021732 
L 13.097001 31.394947 
L 12.777019 31.768162 
L 12.457038 32.141377 
L 12.137057 32.514592 
L 11.817075 32.887808 
L 11.550505 33.581012 
L 11.283934 34.274217 
L 11.017364 34.967422 
L 10.750793 35.660627 
L 10.324152 36.233875 
L 9.89751 36.807124 
L 9.470868 37.380372 
L 9.044226 37.95362 
L 8.950959 38.540056 
L 8.857691 39.126492 
L 8.764424 39.712927 
L 8.671157 40.299363 
L 8.83112 40.859265 
L 8.991084 41.419168 
L 9.151048 41.97907 
L 9.311012 42.538972 
L 9.630939 43.258869 
L 9.950867 43.978766 
L 10.270794 44.698663 
L 10.590722 45.41856 
L 10.646016 45.952406 
L 10.701309 46.486251 
" style="fill:none;stroke:#000000;stroke-linecap:square;stroke-width:0.537424;"/>
   </g>
   <g id="line2d_21">
    <path clip-path="url(#p473e0b4423)" d="M 39.747378 31.839183 
L 39.73533 32.602455 
L 39.691869 33.083551 
L 39.648409 33.564648 
L 39.66433 34.294236 
L 39.680251 35.023825 
" style="fill:none;stroke:#008000;stroke-linecap:square;stroke-width:0.537424;"/>
   </g>
   <g id="line2d_22">
    <path clip-path="url(#p473e0b4423)" d="M 39.648409 33.564648 
L 39.210257 34.273105 
L 38.772104 34.981563 
L 38.333952 35.69002 
L 37.8958 36.398478 
L 37.790161 37.021615 
L 37.684523 37.644753 
L 37.578884 38.26789 
L 37.473246 38.891028 
L 37.181718 39.405172 
L 36.89019 39.919316 
L 36.598662 40.43346 
L 36.307134 40.947604 
L 35.773563 41.522759 
L 35.239992 42.097914 
L 34.784305 42.409801 
L 34.328618 42.721687 
L 33.872931 43.033574 
L 33.417244 43.34546 
L 32.877218 43.715339 
L 32.337192 44.085218 
L 31.768229 44.464153 
L 31.199266 44.843088 
L 30.630302 45.222023 
L 30.061339 45.600958 
L 29.54143 45.772233 
L 29.02152 45.943508 
L 28.501611 46.114784 
L 27.981702 46.286059 
L 27.519023 46.383772 
L 27.056343 46.481485 
L 26.593664 46.579198 
L 26.130984 46.67691 
L 25.519421 46.971002 
L 24.907858 47.265094 
L 24.296295 47.559186 
L 23.684732 47.853277 
L 23.160251 48.048385 
L 22.63577 48.243493 
L 22.111289 48.438601 
L 21.586808 48.633709 
L 21.062327 48.828816 
L 20.537845 49.023924 
L 20.013364 49.219032 
L 19.488883 49.41414 
L 19.121838 49.74112 
L 18.754792 50.068101 
L 18.387747 50.395081 
L 18.020702 50.722061 
L 17.669523 51.064692 
L 17.318345 51.407322 
L 16.967167 51.749952 
L 16.615989 52.092583 
L 16.264811 52.435213 
L 15.913633 52.777843 
L 15.562455 53.120474 
L 15.211277 53.463104 
" style="fill:none;stroke:#000000;stroke-linecap:square;stroke-width:0.537424;"/>
   </g>
   <g id="line2d_23">
    <path clip-path="url(#p473e0b4423)" d="M 39.648409 33.564648 
L 39.154694 33.957803 
L 38.66098 34.350958 
L 38.167265 34.744113 
L 37.67355 35.137268 
L 37.179835 35.530422 
L 36.686121 35.923577 
L 36.192406 36.316732 
L 35.698691 36.709887 
L 35.336164 36.957744 
L 34.973637 37.205601 
L 34.611109 37.453458 
L 34.248582 37.701315 
L 33.800103 38.007958 
L 33.351623 38.314602 
L 32.903144 38.621245 
L 32.454664 38.927888 
L 32.104239 39.25471 
L 31.753814 39.581531 
L 31.403389 39.908353 
L 31.052964 40.235174 
L 30.702539 40.561996 
L 30.352114 40.888817 
L 30.001689 41.215639 
L 29.651264 41.54246 
L 29.231722 41.933947 
L 28.81218 42.325434 
L 28.408613 42.510612 
L 28.005046 42.695789 
L 27.601479 42.880967 
L 27.197912 43.066145 
L 26.794345 43.251322 
L 26.390778 43.4365 
L 25.987211 43.621678 
L 25.583644 43.806855 
L 24.918293 44.226305 
L 24.252943 44.645755 
L 23.587592 45.065205 
L 22.922242 45.484655 
L 22.357259 45.739503 
L 21.792276 45.994351 
L 21.227293 46.249199 
L 20.662309 46.504046 
L 20.227384 46.86614 
L 19.792459 47.228233 
L 19.357534 47.590327 
L 18.922609 47.95242 
L 18.585685 48.275587 
L 18.24876 48.598754 
L 17.911836 48.921922 
L 17.574911 49.245089 
L 17.068879 49.816113 
L 16.562847 50.387137 
L 16.356626 50.788951 
L 16.150405 51.190765 
L 15.944184 51.592579 
L 15.737963 51.994393 
L 15.379739 52.700785 
L 15.021515 53.407177 
" style="fill:none;stroke:#ff0000;stroke-dasharray:1.988468,0.859878;stroke-dashoffset:0;stroke-width:0.537424;"/>
   </g>
   <g id="line2d_24">
    <path clip-path="url(#p473e0b4423)" d="M 54.469211 46.995311 
L 54.988797 47.479903 
L 55.508384 47.964495 
L 56.02797 48.449087 
L 56.547557 48.933679 
L 56.736136 49.321194 
L 56.924714 49.708708 
L 57.113293 50.096223 
L 57.301872 50.483737 
L 57.532297 50.860766 
L 57.762722 51.237794 
L 57.993148 51.614823 
L 58.223573 51.991851 
L 58.495952 52.578446 
L 58.768332 53.16504 
L 59.024952 53.536825 
L 59.281572 53.908611 
L 59.538191 54.280396 
L 59.794811 54.652181 
L 60.051431 55.023967 
L 60.308051 55.395752 
L 60.564671 55.767537 
L 60.82129 56.139322 
L 61.041173 56.715431 
L 61.261056 57.291539 
L 61.480939 57.867647 
L 61.700822 58.443756 
L 61.868424 59.093268 
L 62.036026 59.74278 
L 62.349499 60.184156 
L 62.662972 60.625531 
" style="fill:none;stroke:#ff0000;stroke-linecap:square;stroke-width:0.537424;"/>
   </g>
   <g id="line2d_25">
    <path clip-path="url(#p473e0b4423)" d="M 36.503781 45.970201 
L 36.133078 46.319742 
L 35.762375 46.669284 
L 35.391673 47.018826 
L 35.02097 47.368368 
L 34.409084 47.964495 
L 33.797198 48.560623 
L 33.37658 48.81833 
L 32.955963 49.076038 
L 32.535345 49.333745 
L 32.114728 49.591453 
L 31.609771 49.853609 
L 31.104815 50.115765 
L 30.623848 50.421456 
L 30.142881 50.727146 
L 29.661913 51.032836 
L 29.180946 51.338526 
L 28.78023 51.619748 
L 28.379514 51.90097 
L 27.978797 52.182192 
L 27.578081 52.463415 
L 27.196406 52.695701 
L 26.81473 52.927987 
L 26.433054 53.160274 
L 26.051379 53.39256 
L 25.419377 53.666315 
L 24.787374 53.940069 
L 24.155372 54.213824 
L 23.52337 54.487579 
L 23.059938 54.592918 
L 22.596505 54.698257 
L 22.133073 54.803596 
L 21.66964 54.908936 
L 20.862345 54.728207 
L 20.055049 54.547478 
L 19.247754 54.366749 
L 18.440459 54.18602 
L 17.633163 54.005291 
L 16.825868 53.824562 
L 16.018572 53.643833 
L 15.211277 53.463104 
L 15.021515 53.407177 
L 14.506984 53.252267 
L 13.992454 53.097356 
L 13.477923 52.942446 
L 12.963393 52.787535 
" style="fill:none;stroke:#000000;stroke-linecap:square;stroke-width:0.537424;"/>
   </g>
   <g id="line2d_26">
    <path clip-path="url(#p473e0b4423)" d="M 39.680251 35.023825 
L 39.529862 35.707179 
L 39.379472 36.390533 
L 39.229082 37.073887 
L 39.078693 37.757242 
L 39.007909 38.252161 
L 38.937124 38.74708 
L 38.86634 39.241999 
L 38.795556 39.736919 
L 38.724772 40.231838 
L 38.653987 40.726757 
L 38.583203 41.221677 
L 38.512419 41.716596 
L 38.31631 42.181963 
L 38.120201 42.64733 
L 37.924092 43.112697 
L 37.727983 43.578064 
L 37.552851 44.184678 
L 37.377719 44.791292 
L 36.94075 45.380746 
L 36.503781 45.970201 
" style="fill:none;stroke:#000000;stroke-linecap:square;stroke-width:0.537424;"/>
   </g>
   <g id="line2d_27">
    <path clip-path="url(#p473e0b4423)" d="M 22.975599 61.986837 
L 23.154711 62.439653 
L 23.333823 62.892468 
L 23.512935 63.345284 
L 23.692047 63.798099 
L 24.007887 64.556287 
L 24.323727 65.314475 
L 24.766182 65.693727 
L 25.208638 66.07298 
L 25.651093 66.452233 
L 26.093548 66.831486 
L 26.441123 67.168476 
L 26.788697 67.505466 
L 27.136271 67.842456 
L 27.483846 68.179446 
L 27.943728 68.284308 
L 28.403611 68.389171 
L 28.863493 68.494033 
L 29.323375 68.598896 
L 29.884916 68.727273 
L 30.464207 68.611447 
L 31.043497 68.495622 
L 31.622788 68.379796 
L 32.202078 68.263971 
L 32.760284 68.200736 
L 33.31849 68.137501 
L 33.876696 68.074265 
L 34.434902 68.01103 
L 34.869935 67.868671 
L 35.304967 67.726312 
L 35.965262 67.51055 
L 36.625556 67.294787 
L 37.120615 67.284301 
L 37.615675 67.273815 
L 38.110734 67.263328 
L 38.605794 67.252842 
L 39.088805 67.161326 
L 39.571816 67.069809 
L 40.31064 66.929675 
L 41.049464 66.789541 
L 41.533981 66.726305 
L 42.018498 66.66307 
L 42.503015 66.599835 
L 42.987532 66.536599 
L 43.44451 66.503234 
L 43.901488 66.469869 
L 44.602876 66.419026 
L 45.304264 66.368184 
L 46.069121 66.159412 
L 46.833979 65.95064 
L 47.157994 65.862302 
L 47.600449 65.662269 
L 48.042905 65.462235 
L 48.48536 65.262202 
L 48.927815 65.062169 
L 49.53755 64.696103 
L 49.980758 64.429816 
L 50.823499 64.366581 
L 51.666241 64.303346 
L 52.251018 64.303346 
L 52.864409 64.303346 
L 53.477801 64.303346 
L 54.08065 64.098069 
L 54.705875 63.884849 
L 55.331101 63.671629 
L 55.767209 63.52641 
L 56.203317 63.381191 
L 56.65212 63.231524 
L 57.100922 63.081856 
L 57.753901 62.829233 
L 58.40688 62.57661 
L 58.94497 62.379595 
L 59.483059 62.182581 
" style="fill:none;stroke:#000000;stroke-linecap:square;stroke-width:0.537424;"/>
   </g>
   <g id="line2d_28">
    <path clip-path="url(#p473e0b4423)" d="M 39.648409 33.564648 
L 40.099255 33.919274 
L 40.550102 34.273899 
L 41.000948 34.628525 
L 41.451794 34.983151 
L 41.384882 35.576101 
L 41.317971 36.169051 
L 41.463412 36.762001 
L 41.653604 37.537984 
L 42.04991 37.727054 
L 42.446216 37.916124 
L 42.970751 38.229758 
L 43.495286 38.543393 
" style="fill:none;stroke:#4169e1;stroke-linecap:square;stroke-width:0.537424;"/>
   </g>
   <g id="line2d_29">
    <path clip-path="url(#p473e0b4423)" d="M 60.976198 44.015945 
L 61.49245 44.548519 
L 62.008701 45.081094 
L 62.524953 45.613668 
L 63.041205 46.146243 
L 63.241294 46.525495 
L 63.441383 46.904748 
L 63.641473 47.284001 
L 63.841562 47.663254 
L 63.988939 48.273998 
L 64.136317 48.884743 
L 64.304887 49.474515 
L 64.473456 50.064287 
L 64.642026 50.65406 
L 64.810596 51.243832 
L 65.105351 51.707133 
L 65.400106 52.170435 
L 65.695076 52.844733 
L 65.990047 53.519031 
L 66.241341 53.955958 
L 66.492636 54.392885 
" style="fill:none;stroke:#ff0000;stroke-dasharray:1.988468,0.859878;stroke-dashoffset:0;stroke-width:0.537424;"/>
   </g>
   <g id="line2d_30">
    <path clip-path="url(#p473e0b4423)" d="M 41.653604 37.537984 
L 41.270853 37.910245 
L 40.888102 38.282507 
L 40.50535 38.654769 
L 40.122599 39.027031 
L 40.122599 39.480482 
L 40.122599 39.933933 
L 40.122599 40.386113 
L 40.122599 40.838293 
L 40.14363 41.343857 
L 40.164661 41.849422 
L 40.185692 42.354986 
L 40.206723 42.860551 
L 40.227753 43.366115 
L 40.248784 43.871679 
L 40.269815 44.377244 
L 40.290846 44.882808 
L 40.385727 45.440963 
L 40.480608 45.999117 
L 40.575489 46.557272 
L 40.67037 47.115426 
L 40.659828 47.663095 
L 40.649286 48.210763 
L 40.638743 48.758431 
L 40.628201 49.3061 
L 40.691347 49.832637 
L 40.754494 50.359174 
L 40.81764 50.88571 
L 40.880787 51.412247 
L 40.980831 51.912569 
L 41.080876 52.41289 
L 41.18092 52.913211 
L 41.280965 53.413533 
L 41.38101 53.913854 
L 41.481054 54.414175 
L 41.581099 54.914496 
L 41.681143 55.414818 
" style="fill:none;stroke:#ff0000;stroke-linecap:square;stroke-width:0.537424;"/>
   </g>
   <g id="line2d_31">
    <path clip-path="url(#p473e0b4423)" d="M 41.681143 55.414818 
L 41.849713 55.951841 
L 42.018283 56.488864 
L 42.186853 57.025887 
L 42.355423 57.56291 
L 42.597681 57.931518 
L 42.83994 58.300126 
L 43.082198 58.668733 
L 43.324457 59.037341 
L 43.556173 59.490315 
L 43.787889 59.94329 
L 44.019605 60.396264 
L 44.251322 60.849238 
L 44.504123 61.249463 
L 44.756923 61.649689 
L 45.009724 62.049914 
L 45.262525 62.450139 
L 45.409903 63.166382 
L 45.55728 63.882625 
L 45.810081 64.261718 
L 46.062882 64.640812 
L 46.315683 65.019906 
L 46.568484 65.399 
L 46.833979 65.95064 
" style="fill:none;stroke:#ff0000;stroke-linecap:square;stroke-width:0.537424;"/>
   </g>
   <g id="line2d_32">
    <path clip-path="url(#p473e0b4423)" d="M 46.682943 26.135297 
L 46.917564 26.746519 
L 47.152185 27.35774 
L 47.386806 27.968961 
L 47.621426 28.580183 
L 47.737285 29.012026 
L 47.853143 29.443869 
L 47.969001 29.875711 
L 48.084859 30.307554 
L 48.400914 30.918299 
L 48.716969 31.529044 
L 49.138232 31.897651 
L 49.559495 32.266259 
L 49.980758 32.634867 
L 50.402021 33.003474 
L 50.739161 33.656164 
L 51.0763 34.308854 
L 51.623856 34.877653 
L 52.171412 35.446453 
L 52.361174 35.952017 
L 52.550936 36.457582 
L 53.035238 36.899911 
L 53.51954 37.34224 
L 53.81451 38.058483 
L 54.109481 38.774726 
L 54.452644 39.184961 
L 54.795808 39.595195 
L 55.138972 40.00543 
L 55.482136 40.415665 
" style="fill:none;stroke:#000000;stroke-linecap:square;stroke-width:0.537424;"/>
   </g>
   <g id="line2d_33">
    <path clip-path="url(#p473e0b4423)" d="M 24.643439 16.435197 
L 24.099971 16.852741 
L 23.709259 17.21118 
L 23.318548 17.569619 
L 22.740225 17.886113 
L 22.161903 18.202607 
L 21.566153 18.555644 
L 20.970404 18.908681 
L 20.578831 19.439508 
L 20.187259 19.970335 
L 19.795686 20.501162 
L 19.404114 21.031988 
L 19.11108 21.576479 
L 18.818046 22.12097 
L 18.525012 22.66546 
L 18.231979 23.209951 
" style="fill:none;stroke:#008000;stroke-linecap:square;stroke-width:0.537424;"/>
   </g>
   <g id="line2d_34">
    <path clip-path="url(#p473e0b4423)" d="M 40.062787 23.451453 
L 39.999533 22.655451 
L 39.936279 21.859449 
L 39.891528 21.296369 
L 39.868722 21.01038 
L 39.701766 20.639231 
L 39.533089 20.264903 
" style="fill:none;stroke:#008000;stroke-linecap:square;stroke-width:0.537424;"/>
   </g>
   <g id="line2d_35">
    <path clip-path="url(#p473e0b4423)" d="M 39.891528 21.296369 
L 39.376245 21.31607 
L 38.860961 21.335772 
L 38.345678 21.355473 
L 37.830394 21.375175 
L 37.108782 21.385979 
L 36.80327 21.554394 
L 36.256682 21.855636 
L 35.710094 22.156877 
L 35.163506 22.458119 
L 34.616918 22.75936 
L 33.945759 22.860409 
L 33.2746 22.961459 
L 32.60344 23.062508 
L 31.932281 23.163557 
L 31.430121 23.127014 
L 30.927962 23.090471 
L 30.425802 23.053928 
L 29.923643 23.017385 
L 29.339081 22.396472 
L 28.75452 21.775559 
L 28.199111 21.456999 
L 27.643702 21.13844 
L 27.088293 20.81988 
L 26.532884 20.50132 
L 26.151531 20.256165 
L 25.770178 20.011009 
L 25.388825 19.765853 
L 25.007473 19.520697 
L 24.380957 19.457144 
L 23.754441 19.393591 
L 23.127925 19.330038 
L 22.501409 19.266485 
L 21.735906 19.087583 
L 20.970404 18.908681 
" style="fill:none;stroke:#4169e1;stroke-linecap:square;stroke-width:0.537424;"/>
   </g>
   <g id="line2d_36">
    <path clip-path="url(#p473e0b4423)" d="M 36.80327 21.554394 
L 36.224302 21.472729 
L 35.645334 21.391063 
L 35.066366 21.309397 
L 34.487398 21.227732 
L 33.80645 21.218675 
L 33.125501 21.209619 
L 32.444552 21.200563 
L 31.763603 21.191506 
L 31.264079 21.009745 
L 30.764556 20.827983 
L 30.265032 20.646221 
L 29.765508 20.46446 
L 29.265984 20.282698 
L 28.76646 20.100936 
L 28.266937 19.919175 
L 27.767413 19.737413 
L 27.375303 19.472873 
L 26.983192 19.208334 
L 26.591082 18.943794 
L 26.198972 18.679255 
L 25.648834 18.633497 
L 25.098696 18.587739 
L 24.548558 18.54198 
L 23.998421 18.496222 
L 23.539291 18.422818 
L 23.080162 18.349415 
L 22.621032 18.276011 
L 22.161903 18.202607 
" style="fill:none;stroke:#000000;stroke-linecap:square;stroke-width:0.537424;"/>
   </g>
   <g id="line2d_37">
    <path clip-path="url(#p473e0b4423)" d="M 37.830394 21.375175 
L 37.318123 21.183086 
L 36.805851 20.990997 
L 36.29358 20.798908 
L 35.781309 20.606819 
L 34.9859 20.3051 
L 34.190492 20.003382 
L 33.395083 19.701664 
L 32.599675 19.399946 
L 32.156198 19.249087 
L 31.71272 19.098228 
L 31.269243 18.947369 
L 30.825766 18.79651 
L 30.382288 18.645651 
L 29.938811 18.494792 
L 29.495334 18.343933 
L 29.051857 18.193074 
L 28.320348 18.001144 
L 27.588839 17.809214 
L 26.85733 17.617284 
L 26.125821 17.425353 
L 25.321161 17.278864 
L 24.516501 17.132374 
L 24.099971 16.852741 
" style="fill:none;stroke:#000000;stroke-linecap:square;stroke-width:0.537424;"/>
   </g>
   <g id="line2d_38">
    <path clip-path="url(#p473e0b4423)" d="M 39.533089 20.264903 
L 38.70132 20.133348 
L 37.869552 20.001794 
L 37.257666 19.850378 
L 36.64578 19.698963 
L 36.033894 19.547548 
L 35.422009 19.396133 
L 35.034309 19.178146 
L 34.646609 18.960159 
L 34.040963 18.718022 
L 33.435316 18.475885 
L 32.853552 18.402799 
L 32.490164 18.099969 
L 32.126776 17.797139 
L 31.763173 17.37324 
L 31.39957 16.949341 
L 30.903004 16.634436 
L 30.406439 16.319531 
L 29.994427 16.186069 
L 29.582416 16.052608 
L 28.994196 15.897538 
L 28.405977 15.742469 
" style="fill:none;stroke:#000000;stroke-linecap:square;stroke-width:0.537424;"/>
   </g>
   <g id="line2d_39">
    <path clip-path="url(#p473e0b4423)" d="M 39.533089 20.264903 
L 39.016299 19.648756 
L 38.49951 19.03261 
L 38.11181 18.79651 
L 37.72411 18.560411 
L 37.336411 18.324311 
L 36.948711 18.088212 
L 36.336825 18.06994 
L 35.724939 18.051669 
L 35.113054 18.033397 
L 34.501168 18.015126 
L 34.06506 17.324622 
L 33.628951 16.634118 
L 33.392717 16.18591 
L 33.156482 15.737702 
L 32.920248 15.289495 
L 32.684014 14.841287 
L 32.247905 14.629337 
L 31.811797 14.417388 
L 31.375688 14.205439 
L 30.93958 13.993489 
L 30.503902 13.669051 
L 30.068224 13.344613 
L 30.20635 13.180646 
" style="fill:none;stroke:#4169e1;stroke-linecap:square;stroke-width:0.537424;"/>
   </g>
   <g id="line2d_40">
    <path clip-path="url(#p473e0b4423)" d="M 39.891528 21.296369 
L 40.431124 20.842918 
L 40.970719 20.389467 
L 41.649301 19.977643 
L 42.327883 19.56582 
L 42.873073 19.020852 
L 43.418262 18.475885 
L 43.678701 17.979218 
L 43.939139 17.482551 
L 44.199578 16.985884 
L 44.460017 16.489217 
L 44.411393 15.753591 
L 44.362769 15.017964 
L 44.314576 14.284562 
L 44.193339 13.872103 
L 44.072102 13.459644 
L 43.950865 13.047185 
L 43.829628 12.634725 
L 43.975285 11.858425 
L 44.120941 11.082125 
L 43.891161 10.717966 
L 43.661381 10.353807 
L 43.431601 9.989648 
L 43.201821 9.625489 
" style="fill:none;stroke:#4169e1;stroke-linecap:square;stroke-width:0.537424;"/>
   </g>
   <g id="line2d_41">
    <path clip-path="url(#p473e0b4423)" d="M 39.701766 20.639231 
L 39.83645 20.505134 
L 40.222106 20.120479 
L 40.607762 19.735824 
L 40.993417 19.351169 
L 41.379073 18.966515 
L 41.724819 18.645095 
L 42.070564 18.323676 
L 42.41631 18.002256 
L 42.762056 17.680837 
L 42.956121 17.183534 
L 43.150186 16.686232 
L 43.392874 15.873388 
L 43.635563 15.060545 
L 43.562843 14.320787 
L 43.490122 13.58103 
L 43.39309 13.023034 
L 43.296057 12.465039 
L 43.004744 11.66427 
L 42.713432 10.863502 
L 42.155333 10.214943 
L 41.597235 9.566385 
" style="fill:none;stroke:#4169e1;stroke-linecap:square;stroke-width:0.537424;"/>
   </g>
   <g id="line2d_42">
    <path clip-path="url(#p473e0b4423)" d="M 39.83645 20.505134 
L 39.892819 20.310026 
L 40.021694 19.864996 
L 40.150569 19.419966 
L 40.279443 18.974935 
L 40.408318 18.529905 
L 40.529662 17.941563 
L 40.651007 17.353221 
L 40.772351 16.764878 
L 40.893696 16.176536 
L 41.087868 15.612503 
L 41.282041 15.04847 
L 41.476213 14.484437 
L 41.670386 13.920403 
L 41.257729 13.362408 
L 40.845072 12.804412 
L 40.481146 12.495068 
L 40.11722 12.185723 
L 39.753295 11.876379 
L 39.389369 11.567034 
L 39.158944 11.021114 
L 38.928518 10.475193 
L 38.39925 10.177765 
L 37.869982 9.880337 
" style="fill:none;stroke:#4169e1;stroke-linecap:square;stroke-width:0.537424;"/>
   </g>
   <g id="line2d_43">
    <path clip-path="url(#p473e0b4423)" d="M 39.892819 20.310026 
L 39.512219 19.616344 
L 39.13162 18.922663 
L 38.75102 18.228982 
L 38.37042 17.5353 
L 38.333952 17.007651 
L 38.297484 16.480002 
L 38.261016 15.952353 
L 38.224548 15.424704 
L 38.103204 14.623935 
L 37.98186 13.823167 
L 37.61191 13.526057 
L 37.24196 13.228946 
L 36.87201 12.931836 
L 36.50206 12.634725 
L 36.192998 12.245781 
L 35.883935 11.856836 
L 35.574872 11.467892 
L 35.26581 11.078947 
" style="fill:none;stroke:#4169e1;stroke-linecap:square;stroke-width:0.537424;"/>
   </g>
   <g id="line2d_44">
    <path clip-path="url(#p473e0b4423)" d="M 109.826366 42.139859 
L 109.068394 42.221366 
L 108.310421 42.302873 
L 107.552449 42.384379 
L 106.794477 42.465886 
L 106.337283 42.537066 
L 105.88009 42.608245 
L 105.422897 42.679424 
L 104.965704 42.750604 
L 104.390932 42.840055 
L 103.816159 42.929506 
L 103.241387 43.018956 
L 102.666615 43.108407 
L 102.117553 42.966049 
L 101.56849 42.82369 
L 100.879151 42.644788 
L 100.189811 42.465886 
L 99.845572 42.509102 
L 99.39053 42.565982 
L 98.935489 42.622862 
L 98.728945 42.648283 
L 98.086508 42.728996 
L 97.303578 42.826867 
L 96.520648 42.924739 
L 95.930063 43.057565 
L 95.339477 43.190391 
L 94.748891 43.323217 
L 94.158305 43.456042 
L 93.504895 43.603168 
L 92.851486 43.750293 
L 92.200443 44.035328 
L 91.5494 44.320364 
L 91.141153 44.498948 
L 90.732907 44.677532 
L 90.32466 44.856116 
L 89.916413 45.0347 
L 89.474281 45.131936 
L 89.032148 45.229172 
L 88.590016 45.326408 
L 88.147883 45.423645 
L 87.636795 45.536292 
L 87.125707 45.64894 
L 86.614619 45.761588 
L 86.103531 45.874236 
L 85.599005 46.131308 
L 85.094479 46.38838 
L 84.611468 46.634648 
L 84.128456 46.880916 
L 83.645445 47.127184 
L 83.162434 47.373452 
L 82.791731 47.914447 
L 82.421029 48.455442 
L 82.050326 48.996437 
L 81.679623 49.537433 
L 80.984689 49.536797 
L 80.485972 49.609883 
L 79.960361 49.678838 
L 79.434751 49.747793 
L 78.875146 50.02552 
L 78.315542 50.303247 
L 77.799398 50.568581 
L 77.283254 50.833915 
L 76.789916 51.158035 
L 76.296577 51.482156 
L 75.90167 51.803734 
L 75.506763 52.125312 
L 75.111856 52.446891 
L 74.716948 52.768469 
L 74.21651 52.99154 
L 73.716072 53.214612 
L 73.240806 53.465646 
L 72.765541 53.716681 
L 72.263543 54.041357 
L 71.761545 54.366034 
L 71.259547 54.69071 
L 70.757549 55.015387 
L 70.255551 55.340063 
L 69.753553 55.66474 
L 69.251555 55.989417 
L 68.749556 56.314093 
L 68.372238 56.522388 
L 67.994919 56.730683 
L 67.6176 56.938978 
L 67.240281 57.147274 
L 66.862963 57.355569 
L 66.485644 57.563864 
L 66.108325 57.772159 
L 65.731006 57.980454 
" style="fill:none;stroke:#4169e1;stroke-linecap:square;stroke-width:0.537424;"/>
   </g>
   <g id="line2d_45">
    <path clip-path="url(#p473e0b4423)" d="M 51.257887 21.073933 
L 51.695716 20.958187 
L 52.133546 20.842441 
L 52.571375 20.726695 
L 53.009205 20.610949 
L 53.447035 20.495204 
L 53.884864 20.379458 
L 54.322694 20.263712 
L 54.760524 20.147966 
L 55.371333 20.062487 
L 55.982143 19.977008 
L 56.592953 19.891529 
L 57.203763 19.80605 
L 57.655685 20.001476 
L 58.107607 20.196901 
L 58.559529 20.392327 
L 59.011451 20.587753 
L 59.585686 20.807646 
L 60.15992 21.02754 
L 60.734155 21.247433 
L 61.308389 21.467327 
" style="fill:none;stroke:#4169e1;stroke-linecap:square;stroke-width:0.537424;"/>
   </g>
   <g id="line2d_46">
    <path clip-path="url(#p473e0b4423)" d="M 61.308389 21.467327 
L 61.503853 22.01706 
L 61.699316 22.566794 
L 61.89478 23.116528 
L 62.090243 23.666262 
L 62.554429 24.032645 
L 63.018614 24.399028 
L 63.4828 24.765412 
L 63.946985 25.131795 
" style="fill:none;stroke:#008000;stroke-linecap:square;stroke-width:0.537424;"/>
   </g>
   <g id="line2d_47">
    <path clip-path="url(#p473e0b4423)" d="M 63.946985 25.131795 
L 64.380673 25.437167 
L 64.814361 25.74254 
L 65.248049 26.047912 
L 65.681737 26.353284 
L 66.115425 26.658657 
L 66.549113 26.964029 
L 66.982801 27.269401 
L 67.416489 27.574774 
" style="fill:none;stroke:#000000;stroke-linecap:square;stroke-width:0.537424;"/>
   </g>
   <g id="line2d_48">
    <path clip-path="url(#p473e0b4423)" d="M 67.416489 27.574774 
L 67.732867 27.964195 
L 68.049244 28.353616 
L 68.365622 28.743037 
L 68.681999 29.132459 
L 69.059157 29.582573 
L 69.436314 30.032687 
L 69.813472 30.482802 
L 70.190629 30.932916 
L 70.585752 31.268 
L 70.980874 31.603083 
L 71.375996 31.938166 
L 71.771119 32.27325 
L 71.796506 32.294858 
L 71.820818 32.927528 
L 71.84513 33.560199 
L 71.504333 34.071165 
L 71.163536 34.582132 
L 70.932465 35.044321 
L 70.701394 35.506511 
L 70.470324 35.9687 
L 70.239253 36.43089 
L 70.336501 37.136646 
L 70.433748 37.842403 
L 70.433748 38.523691 
L 70.433748 39.302216 
" style="fill:none;stroke:#000000;stroke-linecap:square;stroke-width:0.537424;"/>
   </g>
   <g id="line2d_49">
    <path clip-path="url(#p473e0b4423)" d="M 48.352075 23.97513 
L 48.832934 24.485778 
L 49.313794 24.996427 
L 49.843008 24.978155 
L 50.372223 24.959884 
L 50.901437 24.941612 
L 51.430652 24.923341 
L 51.959866 24.905069 
L 52.489081 24.886798 
L 53.018295 24.868526 
L 53.54751 24.850255 
L 54.350448 25.020577 
L 55.153387 25.190899 
L 55.786142 25.312603 
L 56.418897 25.434307 
L 57.27046 25.410157 
L 58.122022 25.386007 
L 58.487024 25.750801 
L 58.852025 26.115596 
L 59.217027 26.48039 
L 59.582028 26.845185 
L 59.813099 27.27099 
L 60.04417 27.696796 
L 60.27524 28.122601 
L 60.506311 28.548406 
L 60.530623 29.034905 
L 60.554935 29.521403 
L 60.652398 30.00822 
L 60.749861 30.495036 
" style="fill:none;stroke:#008000;stroke-linecap:square;stroke-width:0.537424;"/>
   </g>
   <g id="line2d_50">
    <path clip-path="url(#p473e0b4423)" d="M 60.749861 30.495036 
L 60.956619 30.872064 
L 61.163378 31.249093 
L 61.370137 31.626121 
L 61.576896 32.003149 
L 62.014941 32.11262 
L 62.452986 32.22209 
L 62.89103 32.33156 
L 63.329075 32.44103 
L 63.791324 32.611352 
L 64.253573 32.781674 
L 64.715822 32.951996 
L 65.178072 33.122318 
L 65.895919 33.389877 
L 66.613765 33.657435 
L 67.331612 33.924993 
L 68.049459 34.192552 
L 68.609064 34.6549 
L 69.168668 35.117248 
L 69.217292 35.798537 
L 69.265916 36.479825 
L 69.436099 37.185264 
L 69.606283 37.890703 
L 70.020015 38.207197 
L 70.433748 38.523691 
" style="fill:none;stroke:#4169e1;stroke-linecap:square;stroke-width:0.537424;"/>
   </g>
   <g id="line2d_51">
    <path clip-path="url(#p473e0b4423)" d="M 70.433748 39.302216 
L 70.701394 39.703553 
L 70.969041 40.104891 
L 71.236687 40.506228 
L 71.504333 40.907566 
L 71.674624 41.309062 
L 71.844915 41.710558 
L 72.015206 42.112055 
L 72.185497 42.513551 
L 72.745101 42.610787 
L 73.304706 42.708023 
L 73.54804 43.462398 
L 73.791374 44.216772 
L 73.888837 45.043915 
L 73.9863 45.871058 
L 74.351194 46.382024 
L 74.716088 46.892991 
L 74.764712 47.452575 
L 74.813335 48.01216 
L 74.764712 48.498658 
L 74.716088 48.985157 
L 74.837862 49.520591 
L 74.959637 50.056026 
L 75.446091 50.518056 
L 75.932544 50.980087 
L 76.296577 51.482156 
" style="fill:none;stroke:#000000;stroke-linecap:square;stroke-width:0.537424;"/>
   </g>
   <g id="line2d_52">
    <path clip-path="url(#p473e0b4423)" d="M 65.62128 45.379157 
L 66.191749 45.368353 
L 66.762219 45.357549 
L 67.332688 45.346745 
L 67.903158 45.335941 
L 68.243955 45.700736 
L 68.584752 46.06553 
L 68.99827 46.479261 
L 69.411787 46.892991 
L 69.898456 47.075388 
L 70.385124 47.257785 
L 70.871793 47.440182 
L 71.358462 47.62258 
L 71.771979 48.133546 
L 72.185497 48.644513 
L 72.258648 49.374419 
L 72.331799 50.104326 
L 72.550606 50.712528 
L 72.769413 51.320731 
L 72.818252 51.904783 
L 72.867091 52.488836 
L 72.816316 53.102758 
L 72.765541 53.716681 
" style="fill:none;stroke:#4169e1;stroke-linecap:square;stroke-width:0.537424;"/>
   </g>
   <g id="line2d_53">
    <path clip-path="url(#p473e0b4423)" d="M 41.463412 36.762001 
L 41.155533 37.100103 
L 40.847654 37.438205 
L 40.539774 37.776307 
L 40.231895 38.11441 
L 40.204571 38.56929 
L 40.177247 39.024171 
L 40.149923 39.479052 
L 40.122599 39.933933 
L 40.030515 40.455068 
L 39.938431 40.976203 
L 39.846347 41.497338 
L 39.754263 42.018473 
L 39.722098 42.491466 
L 39.689933 42.96446 
L 39.657768 43.437453 
L 39.625603 43.910447 
L 39.355913 44.719159 
L 39.086223 45.527872 
L 38.816533 46.336584 
L 38.546843 47.145296 
L 38.30254 47.499207 
L 38.058238 47.853118 
L 37.813935 48.207029 
L 37.569633 48.56094 
L 37.32533 48.914851 
L 37.081028 49.268762 
L 36.836725 49.622673 
L 36.592423 49.976584 
L 36.204831 50.313574 
L 35.817239 50.650564 
L 35.429646 50.987554 
L 35.042054 51.324544 
L 34.401661 51.543484 
L 33.761268 51.762425 
L 33.120875 51.981365 
L 32.480482 52.200305 
L 32.172952 52.499402 
L 31.865423 52.798498 
L 31.557893 53.097595 
L 31.250364 53.396691 
L 30.942834 53.695787 
L 30.635304 53.994884 
L 30.327775 54.29398 
L 30.020245 54.593077 
L 29.712716 54.892173 
L 29.405186 55.19127 
L 29.097657 55.490366 
L 28.790127 55.789463 
L 28.482597 56.088559 
L 28.175068 56.387656 
L 27.867538 56.686752 
L 27.560009 56.985849 
L 27.324205 57.727513 
L 27.0884 58.469177 
L 27.004169 59.092632 
L 26.919938 59.716087 
L 26.835707 60.339543 
L 26.751476 60.962998 
L 26.953609 61.636978 
L 27.155742 62.310958 
L 27.357875 62.984938 
L 27.560009 63.658918 
L 27.812809 64.349739 
L 28.06561 65.040561 
L 28.318411 65.731382 
L 28.571212 66.422204 
L 28.759253 66.966377 
L 28.947294 67.51055 
L 29.135335 68.054723 
L 29.323375 68.598896 
" style="fill:none;stroke:#ff0000;stroke-linecap:square;stroke-width:0.537424;"/>
   </g>
   <g id="line2d_54">
    <path clip-path="url(#p473e0b4423)" d="M 71.771119 32.27325 
L 72.27543 32.444366 
L 72.779741 32.615483 
L 73.284051 32.786599 
L 73.788362 32.957716 
L 74.286649 33.598331 
L 74.784936 34.238945 
L 75.034187 34.642348 
L 75.283437 35.045751 
L 75.532688 35.449154 
L 75.781939 35.852557 
L 76.25656 36.18478 
L 76.73118 36.517004 
L 77.2058 36.849227 
L 77.68042 37.181451 
L 78.012611 37.501758 
L 78.344802 37.822066 
L 78.676994 38.142373 
L 79.009185 38.46268 
L 79.032959 38.913589 
L 79.056733 39.364498 
L 79.080507 39.815407 
L 79.104281 40.266315 
L 78.950019 40.72914 
L 78.795756 41.191965 
L 78.641494 41.65479 
L 78.487232 42.117615 
L 78.463458 42.592198 
L 78.439683 43.06678 
L 78.415909 43.541362 
L 78.392135 44.015945 
L 78.131159 44.798918 
L 77.870182 45.581892 
L 78.083718 45.961621 
L 78.297254 46.34135 
L 78.51079 46.72108 
L 78.724327 47.100809 
L 79.163447 47.504212 
L 79.602568 47.907615 
L 80.041688 48.311018 
L 80.480809 48.714421 
L 80.732749 49.125609 
L 80.984689 49.536797 
L 81.240287 50.303088 
L 81.495885 51.069379 
L 81.751483 51.835669 
L 82.007081 52.60196 
L 82.213517 53.083533 
L 82.419953 53.565107 
L 82.626389 54.04668 
L 82.832825 54.528253 
L 83.045393 55.049547 
L 83.257961 55.57084 
L 83.470529 56.092134 
L 83.683097 56.613428 
" style="fill:none;stroke:#000000;stroke-linecap:square;stroke-width:0.537424;"/>
   </g>
   <g id="line2d_55">
    <path clip-path="url(#p473e0b4423)" d="M 63.946985 25.131795 
L 64.655043 25.188993 
L 65.3631 25.24619 
L 66.071158 25.303388 
L 66.779216 25.360586 
L 67.363992 25.509618 
L 67.948769 25.65865 
L 68.533546 25.807681 
L 69.118323 25.956713 
L 69.7031 26.105745 
L 70.287877 26.254777 
L 70.872654 26.403809 
L 71.457431 26.552841 
L 72.191306 26.598758 
L 72.925182 26.644675 
L 73.659057 26.690592 
L 74.392933 26.736509 
L 74.782784 27.08049 
L 75.172635 27.424471 
L 75.562487 27.768452 
L 75.952338 28.112432 
L 76.43395 28.639764 
L 76.915563 29.167095 
L 77.397176 29.694426 
L 77.878788 30.221758 
L 78.216143 30.601169 
L 78.553498 30.980581 
L 79.118588 31.61627 
L 79.683679 32.25196 
L 80.24877 32.887649 
L 80.81386 33.523338 
" style="fill:none;stroke:#008000;stroke-linecap:square;stroke-width:0.537424;"/>
   </g>
   <g id="line2d_56">
    <path clip-path="url(#p473e0b4423)" d="M 80.81386 33.523338 
L 80.928535 33.981953 
L 81.04321 34.440567 
L 81.157885 34.899182 
L 81.272559 35.357797 
L 81.387234 35.816411 
L 81.501909 36.275026 
L 81.616584 36.73364 
L 81.731259 37.192255 
L 81.880304 37.605032 
L 82.029348 38.017809 
L 82.178393 38.430586 
L 82.327438 38.843363 
L 82.476483 39.25614 
L 82.625528 39.668917 
L 82.774573 40.081694 
L 82.923618 40.494471 
L 83.359404 41.159395 
L 83.79519 41.824318 
L 84.230975 42.489242 
L 84.666761 43.154166 
L 84.77369 43.962719 
L 84.88062 44.771273 
L 84.987549 45.579826 
L 85.094479 46.38838 
" style="fill:none;stroke:#4169e1;stroke-linecap:square;stroke-width:0.537424;"/>
   </g>
   <g id="line2d_57">
    <path clip-path="url(#p473e0b4423)" d="M 85.094479 46.38838 
L 85.033591 47.185017 
L 84.972704 47.981654 
L 84.911816 48.778292 
L 84.850929 49.574929 
L 85.057311 49.964747 
L 85.263694 50.354566 
L 85.470076 50.744384 
L 85.676459 51.134203 
L 85.882841 51.524021 
L 86.089223 51.91384 
L 86.295606 52.303658 
L 86.501988 52.693477 
L 86.695623 53.143035 
L 86.889257 53.592593 
L 87.082892 54.042152 
L 87.276527 54.49171 
L 87.470161 54.941268 
L 87.663796 55.390826 
L 87.857431 55.840385 
L 88.051066 56.289943 
" style="fill:none;stroke:#4169e1;stroke-linecap:square;stroke-width:0.537424;"/>
   </g>
   <g id="line2d_58">
    <path clip-path="url(#p473e0b4423)" d="M 78.315542 50.303247 
L 78.490351 50.739618 
L 78.66516 51.175989 
L 78.839969 51.61236 
L 79.014779 52.048731 
L 79.189588 52.485102 
L 79.364397 52.921473 
L 79.539206 53.357844 
L 79.714015 53.794215 
L 79.901733 54.599114 
L 80.089451 55.404014 
L 80.277169 56.208913 
L 80.464888 57.013812 
" style="fill:none;stroke:#4169e1;stroke-linecap:square;stroke-width:0.537424;"/>
   </g>
   <g id="line2d_59">
    <path clip-path="url(#p473e0b4423)" d="M 39.936279 21.859449 
L 40.309994 21.606984 
L 40.683709 21.35452 
L 41.057424 21.102056 
L 41.43114 20.849591 
L 41.804855 20.597127 
L 42.17857 20.344662 
L 42.552285 20.092198 
L 42.926 19.839733 
L 43.570588 19.321299 
L 44.215177 18.802866 
L 44.859765 18.284432 
L 45.504353 17.765998 
L 46.247158 17.681949 
L 46.989962 17.5979 
L 47.732766 17.513851 
L 48.475571 17.429802 
L 49.000536 17.351632 
L 49.525501 17.273462 
L 49.899216 16.908985 
L 50.272931 16.544508 
" style="fill:none;stroke:#008000;stroke-linecap:square;stroke-width:0.537424;"/>
   </g>
   <g id="line2d_60">
    <path clip-path="url(#p473e0b4423)" d="M 44.362769 15.017964 
L 44.564149 14.458062 
L 44.765529 13.89816 
L 44.96691 13.338258 
L 45.16829 12.778355 
L 45.588692 12.161891 
L 46.009095 11.545426 
L 46.017163 11.036843 
L 46.025231 10.52826 
L 46.033299 10.019677 
L 46.041367 9.511094 
" style="fill:none;stroke:#008000;stroke-linecap:square;stroke-width:0.537424;"/>
   </g>
   <g id="line2d_61">
    <path clip-path="url(#p473e0b4423)" d="M 57.203763 19.80605 
L 57.80586 19.526973 
L 58.407956 19.247896 
L 59.010053 18.968818 
L 59.612149 18.689741 
L 60.214245 18.410664 
L 60.816342 18.131587 
L 61.418438 17.852509 
L 62.020535 17.573432 
L 62.60913 17.561913 
L 63.197726 17.550394 
L 63.786322 17.538875 
L 64.374918 17.527356 
L 64.963514 17.515837 
L 65.552109 17.504318 
L 66.140705 17.492799 
L 66.729301 17.48128 
L 67.179448 17.388969 
L 67.629595 17.296659 
L 68.079742 17.204348 
L 68.529889 17.112037 
L 68.980036 17.019726 
L 69.430183 16.927415 
L 69.880329 16.835105 
L 70.330476 16.742794 
L 70.79208 16.927415 
L 71.253684 17.112037 
L 71.715287 17.296659 
L 72.176891 17.48128 
L 72.85784 17.735174 
L 73.538789 17.989069 
L 74.219737 18.242963 
L 74.900686 18.496858 
L 75.581635 18.750752 
L 76.262584 19.004646 
L 76.943533 19.258541 
L 77.624481 19.512435 
L 78.29392 19.720174 
L 78.963358 19.927913 
L 79.632796 20.135652 
L 80.302234 20.343391 
L 80.971673 20.55113 
L 81.641111 20.758869 
L 82.310549 20.966608 
L 82.979987 21.174347 
L 83.349184 21.728212 
L 83.718381 22.282077 
L 83.527974 23.02247 
L 83.337566 23.762862 
L 83.597897 24.503255 
L 83.858228 25.243648 
L 84.260558 25.520739 
L 84.662888 25.797831 
L 85.065218 26.074922 
L 85.467548 26.352013 
L 85.91549 26.871559 
L 86.363431 27.391105 
L 86.811373 27.910651 
L 87.259315 28.430198 
L 87.759108 29.016474 
L 88.2589 29.602751 
L 88.758693 30.189028 
L 89.258486 30.775305 
L 89.881774 31.190783 
L 90.505063 31.606261 
L 91.128352 32.021739 
L 91.75164 32.437217 
L 92.305543 32.968043 
L 92.859446 33.49887 
L 93.413349 34.029697 
L 93.967252 34.560524 
L 94.144966 35.098024 
L 94.322679 35.635523 
L 94.500393 36.173023 
L 94.678106 36.710523 
L 94.712208 37.144272 
L 94.746309 37.578022 
L 94.78041 38.011771 
L 94.814511 38.445521 
L 94.207359 38.934879 
L 93.871941 39.227223 
L 93.536522 39.519567 
L 93.201104 39.811911 
L 92.865685 40.104255 
L 92.306727 40.591548 
L 91.747768 41.078841 
L 91.188809 41.566134 
L 90.62985 42.053427 
L 90.28561 42.520542 
L 90.018394 42.88343 
L 89.751179 43.246317 
L 89.483963 43.609205 
L 89.216747 43.972093 
L 88.949531 44.334981 
L 88.682315 44.697869 
L 88.415099 45.060757 
L 88.147883 45.423645 
" style="fill:none;stroke:#008000;stroke-linecap:square;stroke-width:0.537424;"/>
   </g>
   <g id="line2d_62">
    <path clip-path="url(#p473e0b4423)" d="M 53.780732 12.816487 
L 54.187472 12.675082 
L 54.594213 12.533676 
L 55.000953 12.392271 
L 55.407694 12.250865 
L 55.82261 12.080066 
L 56.237526 11.909267 
L 56.652442 11.738469 
L 57.067359 11.56767 
L 57.48292 11.406086 
L 57.898482 11.244503 
L 58.314043 11.082919 
L 58.729605 10.921335 
L 59.329765 10.990608 
L 59.929925 11.059881 
L 60.530085 11.129154 
L 61.130245 11.198427 
L 61.730405 11.313775 
L 62.330565 11.429124 
L 62.930725 11.544473 
L 63.530886 11.659822 
L 64.061767 11.913716 
L 64.592649 12.167611 
L 65.123531 12.421505 
L 65.654413 12.675399 
L 66.069867 13.044642 
L 66.485321 13.413886 
L 66.900775 13.783129 
L 67.316229 14.152372 
L 67.754812 14.521615 
L 68.193395 14.890858 
L 68.631977 15.260101 
L 69.07056 15.629345 
L 69.700518 16.186069 
L 70.330476 16.742794 
" style="fill:none;stroke:#008000;stroke-linecap:square;stroke-width:0.537424;"/>
   </g>
   <g id="line2d_63">
    <path clip-path="url(#p473e0b4423)" d="M 50.272931 16.544508 
L 50.477431 16.063253 
L 50.681931 15.581998 
L 50.886431 15.100742 
L 51.09093 14.619487 
L 51.124924 13.845411 
L 51.158918 13.071335 
L 51.192911 12.297259 
L 51.226905 11.523183 
L 51.295 10.876689 
L 51.363095 10.230196 
L 51.43119 9.583703 
L 51.499284 8.93721 
L 51.380092 8.409719 
L 51.260899 7.882229 
L 51.048223 7.507981 
L 50.835548 7.133733 
L 50.622872 6.759485 
L 50.410197 6.385237 
L 50.197521 6.010989 
L 49.984846 5.636741 
L 49.77217 5.262493 
L 49.559495 4.888246 
L 49.165986 4.138955 
L 48.772477 3.389665 
" style="fill:none;stroke:#000000;stroke-linecap:square;stroke-width:0.537424;"/>
   </g>
   <g id="line2d_64">
    <path clip-path="url(#p473e0b4423)" d="M 50.410197 3.394749 
L 49.591337 3.392207 
L 48.772477 3.389665 
L 48.099166 3.36043 
L 47.425855 3.331196 
L 46.752544 3.301962 
L 46.079233 3.272727 
L 45.549589 3.338981 
L 45.019944 3.405235 
L 44.490299 3.471489 
L 43.960654 3.537743 
L 43.43101 3.603997 
L 42.901365 3.670252 
L 42.37172 3.736506 
L 41.842075 3.80276 
L 41.420059 3.901982 
L 40.998043 4.001204 
L 40.576027 4.100426 
L 40.154011 4.199648 
L 39.731995 4.298871 
L 39.309979 4.398093 
L 38.887963 4.497315 
L 38.465946 4.596537 
L 38.010851 4.629664 
L 37.555756 4.662791 
L 37.10066 4.695918 
L 36.645565 4.729045 
L 36.19047 4.762172 
L 35.735374 4.795299 
L 35.280279 4.828426 
L 34.825183 4.861553 
L 34.270743 4.878077 
L 33.716302 4.894601 
L 33.161861 4.911125 
L 32.60742 4.927648 
L 32.05298 4.944172 
L 31.498539 4.960696 
L 30.944098 4.97722 
L 30.389657 4.993744 
L 29.959358 5.142696 
L 29.529059 5.291648 
L 29.098759 5.440601 
L 28.66846 5.589553 
L 28.23816 5.738506 
L 27.807861 5.887458 
L 27.377562 6.036411 
L 26.947262 6.185363 
L 26.437573 6.447519 
L 25.927883 6.709676 
L 25.278992 7.043011 
L 24.6301 7.376347 
L 24.199801 7.425998 
L 23.769501 7.475649 
L 23.339202 7.525299 
L 22.908903 7.57495 
L 22.478603 7.624601 
L 22.048304 7.674252 
L 21.618004 7.723903 
L 21.187705 7.773553 
L 20.376806 7.608157 
L 19.565907 7.44276 
L 18.755007 7.277363 
L 17.944108 7.111966 
L 17.232393 7.376665 
L 16.520678 7.641363 
L 15.808963 7.906062 
L 15.097248 8.17076 
L 14.418773 8.53476 
L 13.740298 8.89876 
L 13.061824 9.26276 
L 12.383349 9.62676 
" style="fill:none;stroke:#008000;stroke-linecap:square;stroke-width:0.537424;"/>
   </g>
   <g id="line2d_65">
    <path clip-path="url(#p473e0b4423)" d="M 12.383349 9.62676 
L 12.151633 10.247355 
L 11.919917 10.867951 
L 11.793516 11.462887 
L 11.667116 12.057823 
L 11.540716 12.652759 
L 11.414315 13.247694 
L 11.287915 13.84263 
L 11.161514 14.437566 
L 11.035114 15.032502 
L 10.908713 15.627438 
" style="fill:none;stroke:#008000;stroke-linecap:square;stroke-width:0.537424;"/>
   </g>
   <g id="line2d_66">
    <path clip-path="url(#p473e0b4423)" d="M 31.868166 11.450097 
L 31.299956 11.188735 
L 30.731745 10.927373 
L 30.163535 10.666011 
L 29.595325 10.404649 
L 29.24775 9.9083 
L 28.900176 9.411951 
L 28.552602 8.915602 
L 28.205027 8.419252 
L 27.635741 7.991858 
L 27.066455 7.564464 
L 26.497169 7.13707 
L 25.927883 6.709676 
" style="fill:none;stroke:#008000;stroke-linecap:square;stroke-width:0.537424;"/>
   </g>
   <g id="line2d_67">
    <path clip-path="url(#p473e0b4423)" d="M 50.911926 18.281413 
L 51.390419 17.719286 
L 51.868912 17.15716 
L 52.347405 16.595033 
L 52.825897 16.032906 
L 53.073535 15.422321 
L 53.321172 14.811735 
L 53.568809 14.201149 
L 53.816447 13.590563 
L 53.780732 12.816487 
L 53.755344 12.267389 
L 53.729956 11.718291 
L 53.704569 11.169192 
L 53.679181 10.620094 
L 53.532449 9.973601 
L 53.385717 9.327107 
L 53.238985 8.680614 
L 53.092253 8.034121 
L 52.734351 7.384132 
L 52.37645 6.734144 
L 52.018548 6.084155 
L 51.660647 5.434166 
L 51.348034 4.924312 
L 51.035422 4.414458 
L 50.722809 3.904603 
L 50.410197 3.394749 
" style="fill:none;stroke:#4169e1;stroke-linecap:square;stroke-width:0.537424;"/>
   </g>
   <g id="line2d_68">
    <path clip-path="url(#p473e0b4423)" d="M 82.979987 21.174347 
L 83.51969 21.134468 
L 84.059393 21.094588 
L 84.599096 21.054709 
L 85.138799 21.014829 
L 85.554253 20.760935 
L 85.969708 20.50704 
L 86.385162 20.253146 
L 86.800616 19.999251 
L 87.331605 19.999251 
L 87.862595 19.999251 
L 88.393584 19.999251 
L 88.924573 19.999251 
L 89.270749 20.299222 
L 89.616925 20.599192 
L 89.963101 20.899163 
L 90.309277 21.199133 
L 90.678689 21.453027 
L 91.048101 21.706922 
L 91.417513 21.960816 
L 91.786925 22.21471 
L 92.525534 22.537878 
L 93.264143 22.861045 
L 94.049009 22.630347 
L 94.833875 22.39965 
L 95.249329 22.261104 
L 95.664783 22.122559 
L 96.080237 21.984013 
L 96.495691 21.845467 
L 97.326599 21.891543 
L 98.157507 21.937619 
L 98.59609 22.168476 
L 99.034673 22.399332 
L 99.473255 22.630188 
L 99.911838 22.861045 
L 100.373549 23.068704 
L 100.83526 23.276364 
L 101.296972 23.484023 
L 101.758683 23.691683 
L 102.197265 23.899501 
L 102.635848 24.10732 
L 103.074431 24.315138 
L 103.513013 24.522957 
L 103.928467 25.168973 
L 104.343922 25.81499 
L 104.620927 26.230468 
L 104.897932 26.645946 
L 105.174937 27.061424 
L 105.451942 27.476902 
L 105.4982 28.215388 
L 105.544457 28.953875 
L 105.775097 29.554133 
L 106.005738 30.154392 
L 106.204106 30.868728 
L 106.335777 31.342516 
L 106.467449 31.816303 
L 106.952181 31.95469 
L 107.436913 32.093077 
L 107.921646 32.231464 
L 108.406378 32.36985 
L 108.752661 32.785328 
L 109.098945 33.200806 
L 109.445228 33.616284 
L 109.791512 34.031762 
L 109.976218 34.793446 
L 110.160924 35.555129 
L 110.34563 36.316812 
L 110.530336 37.078495 
L 110.599506 37.632519 
L 110.668677 38.186542 
L 110.737848 38.740566 
L 110.807018 39.29459 
L 110.760869 39.733105 
L 110.714719 40.171621 
L 110.668569 40.610137 
L 110.62242 41.048653 
L 110.224393 41.594256 
L 109.826366 42.139859 
L 109.540647 42.628741 
L 109.254928 43.117623 
L 108.96921 43.606504 
L 108.683491 44.095386 
L 108.545042 44.579978 
L 108.406593 45.06457 
L 108.268144 45.549162 
L 108.129695 46.033754 
L 107.921861 46.472429 
L 107.714026 46.911103 
L 107.506192 47.349778 
L 107.298357 47.788453 
L 106.818788 48.368692 
L 106.33922 48.948932 
L 105.939256 49.432888 
L 105.539293 49.916844 
L 105.355878 50.515673 
L 105.172463 51.114501 
L 104.989048 51.71333 
L 104.805633 52.312158 
L 104.690205 52.819947 
L 104.574777 53.327736 
L 104.459349 53.835525 
L 104.343922 54.343314 
L 104.281582 55.029448 
L 104.219242 55.715582 
L 104.156903 56.401717 
L 104.094563 57.087851 
L 104.032223 57.773986 
L 103.969884 58.46012 
L 103.907544 59.146255 
L 103.845205 59.832389 
" style="fill:none;stroke:#008000;stroke-linecap:square;stroke-width:0.537424;"/>
   </g>
   <g id="line2d_69">
    <path clip-path="url(#p473e0b4423)" d="M 106.467449 31.816303 
L 106.516073 32.323457 
L 106.564697 32.83061 
L 106.61332 33.337763 
L 106.661944 33.844916 
L 106.718098 34.517625 
L 106.774252 35.190334 
L 107.026515 35.862884 
L 107.278778 36.535434 
L 107.531041 37.207984 
L 107.783304 37.880534 
L 107.993506 38.328901 
L 108.203707 38.777268 
L 108.413908 39.225634 
L 108.624109 39.674001 
L 108.924674 40.290466 
L 109.225238 40.90693 
L 109.525802 41.523395 
L 109.826366 42.139859 
" style="fill:none;stroke:#008000;stroke-linecap:square;stroke-width:0.537424;"/>
   </g>
   <g id="line2d_70">
    <path clip-path="url(#p473e0b4423)" d="M 82.979987 21.174347 
L 83.579394 21.691669 
L 84.178801 22.208991 
L 84.778209 22.726312 
L 85.377616 23.243634 
L 86.024033 23.566642 
L 86.67045 23.889651 
L 87.316867 24.212659 
L 87.963285 24.535667 
L 88.228726 24.893471 
L 88.494166 25.251275 
L 88.759607 25.609078 
L 89.025048 25.966882 
L 89.290489 26.324685 
L 89.55593 26.682489 
L 89.821371 27.040293 
L 90.086812 27.398096 
L 90.548416 27.882688 
L 91.010019 28.36728 
L 91.471623 28.851872 
L 91.933227 29.336464 
L 92.625794 29.659631 
L 93.31836 29.982798 
L 94.010927 30.305966 
L 94.703494 30.629133 
L 95.04967 31.159959 
L 95.395846 31.690786 
L 95.742022 32.221613 
L 96.088198 32.75244 
L 96.078193 33.375816 
L 96.068189 33.999191 
L 96.058184 34.622567 
L 96.04818 35.245943 
L 96.038175 35.869319 
L 96.028171 36.492695 
L 96.018166 37.116071 
L 96.008162 37.739447 
" style="fill:none;stroke:#008000;stroke-linecap:square;stroke-width:0.537424;"/>
   </g>
   <g id="line2d_71">
    <path clip-path="url(#p473e0b4423)" d="M 106.204106 30.868728 
L 105.683336 31.40305 
L 105.162566 31.937372 
L 104.641796 32.471694 
L 104.121026 33.006016 
L 103.733972 33.205573 
L 103.346918 33.405129 
L 102.778708 33.697791 
L 102.210497 33.990453 
L 101.642287 34.283115 
L 101.074077 34.575776 
L 100.613333 34.863513 
L 100.15259 35.151249 
L 99.691847 35.438986 
L 99.231104 35.726722 
L 98.828236 35.978313 
L 98.425369 36.229903 
L 98.022501 36.481494 
L 97.619633 36.733084 
L 97.216765 36.984675 
L 96.813897 37.236265 
L 96.41103 37.487856 
L 96.008162 37.739447 
L 95.411337 38.092484 
L 94.814511 38.445521 
" style="fill:none;stroke:#008000;stroke-linecap:square;stroke-width:0.537424;"/>
   </g>
   <g id="line2d_72">
    <path clip-path="url(#p473e0b4423)" d="M 96.008162 37.739447 
L 96.366494 38.290769 
L 96.724825 38.842092 
L 97.083157 39.393414 
L 97.441489 39.944737 
L 97.64459 40.504322 
L 97.847692 41.063906 
L 97.9671 41.896451 
L 98.086508 42.728996 
" style="fill:none;stroke:#008000;stroke-linecap:square;stroke-width:0.537424;"/>
   </g>
   <g id="line2d_73">
    <path clip-path="url(#p473e0b4423)" d="M 90.28561 42.520542 
L 90.601558 42.970497 
L 90.917505 43.420453 
L 91.233452 43.870408 
L 91.5494 44.320364 
L 91.636643 44.888687 
L 91.723886 45.45701 
L 91.811129 46.025333 
L 91.898372 46.593656 
L 91.981205 47.156259 
L 92.064038 47.718863 
L 92.14687 48.281466 
L 92.229703 48.844069 
L 92.163437 49.439879 
L 92.097171 50.035689 
L 92.030905 50.631498 
L 91.964639 51.227308 
L 91.89848 51.773388 
L 91.832321 52.319467 
L 91.766163 52.865546 
L 91.700004 53.411626 
L 91.481843 54.067176 
L 91.263681 54.722725 
L 91.045519 55.378275 
L 90.827357 56.033824 
L 90.718922 56.359851 
" style="fill:none;stroke:#4169e1;stroke-linecap:square;stroke-width:0.537424;"/>
   </g>
   <g id="line2d_74">
    <path clip-path="url(#p473e0b4423)" d="M 92.865685 40.104255 
L 93.104286 40.540229 
L 93.342887 40.976203 
L 93.624088 41.498609 
L 93.905289 42.021015 
L 94.031797 42.738529 
L 94.158305 43.456042 
L 94.470487 43.777144 
L 94.782669 44.098246 
L 95.094851 44.419348 
L 95.407034 44.740449 
L 95.671883 45.170703 
L 95.936732 45.600958 
L 96.201581 46.031212 
L 96.466431 46.461466 
L 96.714713 46.875196 
L 96.962996 47.288926 
L 97.211279 47.702657 
L 97.459562 48.116387 
L 97.409862 48.695514 
L 97.360163 49.274641 
L 97.310463 49.853768 
L 97.260763 50.432895 
L 96.979455 50.879832 
L 96.698147 51.326769 
L 96.416839 51.773705 
L 96.13553 52.220642 
L 95.705231 52.601166 
L 95.274932 52.98169 
L 94.844632 53.362213 
L 94.414333 53.742737 
L 93.950901 53.991071 
L 93.487468 54.239404 
L 93.024036 54.487738 
L 92.560603 54.736071 
L 92.127292 55.06051 
L 91.69398 55.384948 
L 91.260669 55.709386 
L 90.827357 56.033824 
" style="fill:none;stroke:#4169e1;stroke-linecap:square;stroke-width:0.537424;"/>
   </g>
   <g id="line2d_75">
    <path clip-path="url(#p473e0b4423)" d="M 98.935489 42.622862 
L 98.991858 43.317497 
L 99.048227 44.012132 
L 99.048227 44.674036 
L 99.048227 45.335941 
L 98.91591 46.064259 
L 98.783593 46.792577 
L 98.733893 47.255879 
L 98.684194 47.71918 
L 98.634494 48.182482 
L 98.584795 48.645784 
L 98.700653 49.092561 
L 98.816511 49.539339 
L 98.932369 49.986117 
L 99.048227 50.432895 
" style="fill:none;stroke:#008000;stroke-linecap:square;stroke-width:0.537424;"/>
   </g>
   <g id="line2d_76">
    <path clip-path="url(#p473e0b4423)" d="M 101.56849 42.82369 
L 101.434883 43.331796 
L 101.301275 43.839903 
L 101.167667 44.348009 
L 101.034059 44.856116 
L 100.961553 45.557741 
L 100.889048 46.259367 
L 100.835691 46.775418 
L 100.620541 47.255402 
L 100.405391 47.735386 
L 100.190242 48.215371 
L 99.975092 48.695355 
L 99.743376 49.12974 
L 99.511659 49.564125 
L 99.279943 49.99851 
L 99.048227 50.432895 
L 99.048227 51.086538 
L 99.048227 51.740181 
L 99.313076 52.435451 
L 99.577926 53.130722 
L 99.478526 53.825674 
L 99.379127 54.520626 
L 99.279836 54.950881 
L 99.180544 55.381135 
L 99.081252 55.811389 
L 98.981961 56.241643 
L 98.789617 56.759759 
L 98.597273 57.277875 
L 98.404929 57.795991 
L 98.212586 58.314107 
" style="fill:none;stroke:#008000;stroke-linecap:square;stroke-width:0.537424;"/>
   </g>
   <g id="line2d_77">
    <path clip-path="url(#p473e0b4423)" d="M 80.81386 33.523338 
L 81.25212 33.627565 
L 81.69038 33.731792 
L 82.12864 33.836019 
L 82.5669 33.940246 
L 83.262049 34.271357 
L 83.957197 34.602469 
L 84.652346 34.999675 
L 85.347495 35.396882 
L 85.810819 35.84366 
L 86.274144 36.290437 
L 86.737469 36.737215 
L 87.200794 37.183993 
L 87.233927 37.630771 
L 87.26706 38.077549 
L 87.300193 38.524327 
L 87.333326 38.971105 
L 87.333326 39.732152 
L 87.333326 40.4932 
L 87.680901 40.807628 
L 88.028475 41.122057 
L 88.376049 41.436486 
L 88.723624 41.750914 
L 89.11412 41.943321 
L 89.504617 42.135728 
L 89.895114 42.328135 
L 90.28561 42.520542 
" style="fill:none;stroke:#4169e1;stroke-linecap:square;stroke-width:0.537424;"/>
   </g>
   <g id="line2d_78">
    <path clip-path="url(#p473e0b4423)" d="M 87.200794 37.183993 
L 87.69736 37.183993 
L 88.193925 37.183993 
L 88.690491 37.183993 
L 89.187056 37.183993 
L 89.915123 37.481739 
L 90.643189 37.779485 
L 91.305205 38.275834 
L 91.96722 38.772184 
L 92.416453 39.438219 
L 92.865685 40.104255 
" style="fill:none;stroke:#4169e1;stroke-linecap:square;stroke-width:0.537424;"/>
   </g>
   <g id="line2d_79">
    <path clip-path="url(#p473e0b4423)" d="M 96.088198 32.75244 
L 96.513333 33.095149 
L 96.938469 33.437859 
L 97.363605 33.780569 
L 97.788741 34.123279 
L 98.149332 34.52414 
L 98.509922 34.925 
L 98.870513 35.325861 
L 99.231104 35.726722 
L 99.632789 36.185734 
L 100.034473 36.644746 
L 100.436158 37.103757 
L 100.837842 37.562769 
L 101.072355 38.344472 
L 101.306868 39.126174 
L 101.326447 39.732152 
L 101.346026 40.33813 
L 101.365604 40.944109 
L 101.385183 41.550087 
L 101.476837 42.186888 
L 101.56849 42.82369 
" style="fill:none;stroke:#008000;stroke-linecap:square;stroke-width:0.537424;"/>
   </g>
   <g id="line2d_80">
    <path clip-path="url(#p473e0b4423)" d="M 72.176891 17.48128 
L 72.524788 18.206897 
L 72.872685 18.932514 
L 73.220582 19.658131 
L 73.568479 20.383747 
L 74.099469 20.706756 
L 74.630458 21.029764 
L 75.161448 21.352772 
L 75.692437 21.675781 
L 76.20019 22.114297 
L 76.707944 22.552813 
L 77.215697 22.991329 
L 77.72345 23.429845 
L 77.815857 24.099217 
L 77.908264 24.768589 
L 78.000671 25.437962 
L 78.093077 26.107334 
L 78.046928 26.661199 
L 78.000778 27.215063 
L 77.954628 27.768928 
L 77.908479 28.322793 
L 78.069734 28.98724 
L 78.230988 29.651687 
L 78.392243 30.316134 
L 78.553498 30.980581 
" style="fill:none;stroke:#008000;stroke-linecap:square;stroke-width:0.537424;"/>
   </g>
   <g id="line2d_81">
    <path clip-path="url(#p473e0b4423)" d="M 93.264143 22.861045 
L 93.487791 23.326412 
L 93.711439 23.791779 
L 93.935087 24.257146 
L 94.158735 24.722513 
L 94.574189 25.045681 
L 94.989643 25.368848 
L 95.405097 25.692015 
L 95.820551 26.015182 
L 96.559268 26.269077 
L 97.297984 26.522971 
L 98.036701 26.776865 
L 98.775417 27.03076 
L 99.190871 27.469276 
L 99.606325 27.907792 
L 100.021779 28.346308 
L 100.437233 28.784824 
L 100.898945 29.361726 
L 101.360656 29.938629 
L 101.822367 30.515532 
L 102.284078 31.092434 
L 102.549788 31.670608 
L 102.815498 32.248782 
L 103.081208 32.826956 
L 103.346918 33.405129 
" style="fill:none;stroke:#008000;stroke-linecap:square;stroke-width:0.537424;"/>
   </g>
   <g id="line2d_82">
    <path clip-path="url(#p473e0b4423)" d="M 104.121026 33.006016 
L 104.400398 33.72782 
L 104.67977 34.449624 
L 104.959142 35.171427 
L 105.238514 35.893231 
L 105.46937 36.562603 
L 105.700225 37.231976 
L 105.931081 37.901348 
L 106.161936 38.57072 
L 106.241004 39.057616 
L 106.320071 39.544512 
L 106.399139 40.031408 
L 106.478206 40.518303 
L 106.557274 41.005199 
L 106.636341 41.492095 
L 106.715409 41.97899 
L 106.794477 42.465886 
L 106.844069 43.084734 
L 106.893661 43.703582 
L 106.943253 44.322429 
L 106.992845 44.941277 
L 107.069223 45.653071 
L 107.145601 46.364865 
L 107.221979 47.076659 
L 107.298357 47.788453 
" style="fill:none;stroke:#008000;stroke-linecap:square;stroke-width:0.537424;"/>
   </g>
   <g id="line2d_83">
    <path clip-path="url(#p473e0b4423)" d="M 104.965704 42.750604 
L 105.010886 43.228999 
L 105.056067 43.707395 
L 105.101248 44.18579 
L 105.14643 44.664186 
L 105.261858 45.148937 
L 105.377285 45.633687 
L 105.492713 46.118438 
L 105.608141 46.603189 
L 105.790911 47.189625 
L 105.97368 47.77606 
L 106.15645 48.362496 
L 106.33922 48.948932 
" style="fill:none;stroke:#008000;stroke-linecap:square;stroke-width:0.537424;"/>
   </g>
   <g id="line2d_84">
    <path clip-path="url(#p473e0b4423)" d="M 99.845572 42.509102 
L 99.946585 43.035798 
L 100.047597 43.562494 
L 100.14861 44.08919 
L 100.249623 44.615885 
L 100.409479 45.026756 
L 100.569335 45.437626 
L 100.729192 45.848497 
L 100.889048 46.259367 
" style="fill:none;stroke:#008000;stroke-linecap:square;stroke-width:0.537424;"/>
   </g>
   <g id="line2d_85">
    <path clip-path="url(#p473e0b4423)" d="M 41.955674 33.99935 
L 42.180291 34.435006 
L 42.404907 34.870663 
L 42.629523 35.306319 
L 42.85414 35.741975 
L 43.014426 36.442329 
L 43.174713 37.142684 
L 43.334999 37.843038 
L 43.495286 38.543393 
L 43.885029 39.306823 
L 44.274773 40.070254 
L 44.664517 40.833685 
L 45.05426 41.597116 
L 45.44949 42.155906 
L 45.84472 42.714696 
L 46.23995 43.273486 
L 46.63518 43.832276 
L 46.962315 44.432058 
L 47.28945 45.03184 
L 47.616586 45.631622 
L 47.943721 46.231404 
L 48.06641 46.647041 
L 48.189099 47.062677 
L 48.311788 47.478314 
L 48.434477 47.893951 
L 48.557166 48.309588 
L 48.679855 48.725225 
L 48.802544 49.140862 
L 48.925234 49.556499 
L 49.15695 50.183608 
L 49.388666 50.810718 
L 49.620382 51.437827 
L 49.852098 52.064937 
L 50.076984 52.521486 
L 50.301869 52.978035 
L 50.526754 53.434585 
L 50.751639 53.891134 
L 50.976525 54.347683 
L 51.20141 54.804232 
L 51.426295 55.260781 
L 51.65118 55.71733 
L 51.896558 56.398937 
L 52.141937 57.080543 
L 52.387315 57.762149 
L 52.632693 58.443756 
L 52.97349 59.097875 
L 53.314287 59.751995 
L 53.655084 60.406115 
L 53.995882 61.060234 
L 54.54774 61.640473 
L 55.099599 62.220713 
L 55.651458 62.800952 
L 56.203317 63.381191 
" style="fill:none;stroke:#ff0000;stroke-linecap:square;stroke-width:0.537424;"/>
   </g>
   <g id="line2d_86">
    <path clip-path="url(#p473e0b4423)" d="M 41.653604 37.537984 
L 42.00731 38.249936 
L 42.361016 38.961889 
L 42.714723 39.673842 
L 43.068429 40.385795 
L 43.375125 40.842344 
L 43.68182 41.298893 
L 43.988516 41.755443 
L 44.295212 42.211992 
L 44.601908 42.668541 
L 44.908604 43.12509 
L 45.2153 43.581639 
L 45.521996 44.038188 
L 45.736688 44.620851 
L 45.951381 45.203513 
L 46.166073 45.786175 
L 46.380766 46.368837 
L 46.595458 46.951499 
L 46.810151 47.534162 
L 47.024843 48.116824 
L 47.239536 48.699486 
L 47.454228 49.282148 
L 47.668921 49.86481 
L 47.883613 50.447473 
L 48.098306 51.030135 
L 48.312998 51.612797 
L 48.527691 52.195459 
L 48.742383 52.778121 
L 48.957076 53.360784 
" style="fill:none;stroke:#000000;stroke-linecap:square;stroke-width:0.537424;"/>
   </g>
   <g id="line2d_87">
    <path clip-path="url(#p473e0b4423)" d="M 48.957076 53.360784 
L 49.22967 54.069718 
L 49.502265 54.778652 
L 49.665833 55.207953 
L 49.8294 55.637253 
L 49.992968 56.066554 
L 50.156535 56.495855 
L 50.320103 56.925156 
L 50.48367 57.354456 
L 50.647238 57.783757 
L 50.810805 58.213058 
L 51.042522 58.717351 
L 51.274238 59.221645 
L 51.505954 59.725938 
L 51.73767 60.230231 
L 51.969387 60.734525 
L 52.201103 61.238818 
L 52.432819 61.743112 
L 52.664535 62.247405 
L 53.018564 62.710071 
L 53.372593 63.172737 
L 53.726622 63.635403 
L 54.08065 64.098069 
" style="fill:none;stroke:#000000;stroke-linecap:square;stroke-width:0.537424;"/>
   </g>
   <g id="line2d_88">
    <path clip-path="url(#p473e0b4423)" d="M 55.482136 40.415665 
L 56.16728 40.569463 
L 56.852424 40.723262 
L 57.537568 40.87706 
L 58.222712 41.030859 
L 58.566898 41.403994 
L 58.911084 41.77713 
L 59.25527 42.150266 
L 59.599455 42.523402 
L 59.943641 42.896537 
L 60.287827 43.269673 
L 60.632012 43.642809 
L 60.976198 44.015945 
" style="fill:none;stroke:#000000;stroke-linecap:square;stroke-width:0.537424;"/>
   </g>
   <g id="line2d_89">
    <path clip-path="url(#p473e0b4423)" d="M 39.73533 32.602455 
L 39.168195 32.814245 
L 38.60106 33.026036 
L 38.033926 33.237826 
L 37.466791 33.449617 
L 37.032404 33.687782 
L 36.598017 33.925947 
L 36.16363 34.164112 
L 35.729242 34.402277 
L 35.28087 34.640442 
L 34.832498 34.878607 
L 34.384126 35.116772 
L 33.935755 35.354937 
L 33.389167 35.649187 
L 32.842579 35.943438 
L 32.295991 36.237688 
L 31.749403 36.531939 
L 31.441094 36.924379 
L 31.132784 37.316819 
L 30.824475 37.709259 
L 30.516165 38.101699 
L 30.362011 38.536084 
L 30.207856 38.970469 
L 30.053701 39.404854 
L 29.899546 39.839239 
L 29.837476 40.265044 
L 29.775405 40.69085 
L 29.713334 41.116655 
L 29.651264 41.54246 
" style="fill:none;stroke:#000000;stroke-linecap:square;stroke-width:0.537424;"/>
   </g>
   <g id="line2d_90">
    <path clip-path="url(#p473e0b4423)" d="M 30.516165 38.101699 
L 29.871577 38.423913 
L 29.226988 38.746127 
L 28.5824 39.068341 
L 27.937811 39.390555 
L 27.308283 39.475875 
L 26.678755 39.561195 
L 26.049227 39.646514 
L 25.419699 39.731834 
" style="fill:none;stroke:#000000;stroke-linecap:square;stroke-width:0.537424;"/>
   </g>
   <g id="line2d_91">
    <path clip-path="url(#p473e0b4423)" d="M 34.248582 37.701315 
L 34.04419 38.403894 
L 33.839798 39.106473 
L 33.635406 39.809051 
L 33.431013 40.51163 
L 33.427571 41.220088 
L 33.424129 41.928545 
L 33.420686 42.637003 
L 33.417244 43.34546 
" style="fill:none;stroke:#008000;stroke-linecap:square;stroke-width:0.537424;"/>
   </g>
   <g id="line2d_92">
    <path clip-path="url(#p473e0b4423)" d="M 35.239992 42.097914 
L 35.138119 42.710248 
L 35.036245 43.322581 
L 34.934372 43.934915 
L 34.832498 44.547248 
L 34.879616 45.252528 
L 34.926734 45.957808 
L 34.973852 46.663088 
L 35.02097 47.368368 
" style="fill:none;stroke:#008000;stroke-linecap:square;stroke-width:0.537424;"/>
   </g>
   <g id="line2d_93">
    <path clip-path="url(#p473e0b4423)" d="M 13.33302 44.340701 
L 13.265409 44.783586 
L 13.197798 45.226471 
L 13.130188 45.669356 
L 13.062577 46.112242 
L 12.994966 46.555127 
L 12.927355 46.998012 
L 12.859745 47.440897 
L 12.792134 47.883783 
" style="fill:none;stroke:#008000;stroke-linecap:square;stroke-width:0.537424;"/>
   </g>
   <g id="line2d_94">
    <path clip-path="url(#p473e0b4423)" d="M 20.970404 18.908681 
L 20.500947 19.077097 
L 20.031491 19.245512 
L 19.562034 19.413928 
L 19.092577 19.582344 
L 18.716818 19.797868 
L 18.341059 20.013392 
L 17.9653 20.228916 
L 17.589542 20.444441 
L 17.213783 20.659965 
L 16.838024 20.875489 
L 16.462265 21.091013 
L 16.086506 21.306537 
L 15.647923 21.48671 
L 15.209341 21.666883 
L 14.770758 21.847056 
L 14.332175 22.027229 
L 13.829478 22.367714 
L 13.326781 22.7082 
L 12.824083 23.048685 
L 12.321386 23.389171 
L 11.896573 23.695178 
L 11.47176 24.001186 
L 11.046947 24.307194 
L 10.622134 24.613202 
L 10.284134 24.957501 
L 9.946134 25.301799 
L 9.608133 25.646098 
L 9.270133 25.990396 
" style="fill:none;stroke:#008000;stroke-linecap:square;stroke-width:0.537424;"/>
   </g>
   <g id="line2d_95">
    <path clip-path="url(#p473e0b4423)" d="M 24.045323 15.652224 
L 23.537678 15.66843 
L 23.030032 15.684636 
L 22.522386 15.700842 
L 22.01474 15.717048 
L 21.255262 15.550857 
L 20.495784 15.384665 
L 20.068604 15.242307 
L 19.641424 15.099948 
L 19.214244 14.957589 
L 18.787065 14.81523 
L 18.276837 14.957589 
L 17.76661 15.099948 
L 17.256382 15.242307 
L 16.746155 15.384665 
L 16.342642 15.740562 
L 15.939128 16.096459 
L 15.535615 16.452356 
L 15.132102 16.808253 
L 14.633815 16.986361 
L 14.135528 17.164468 
L 13.637242 17.342576 
L 13.138955 17.520683 
L 12.652394 17.579946 
L 12.165833 17.639209 
L 11.679272 17.698473 
L 11.192711 17.757736 
L 10.528329 18.232159 
L 9.863946 18.706583 
L 9.521428 19.151772 
L 9.17891 19.596961 
" style="fill:none;stroke:#008000;stroke-linecap:square;stroke-width:0.537424;"/>
   </g>
   <g id="line2d_96">
    <path clip-path="url(#p473e0b4423)" d="M 40.122599 39.933933 
L 40.098556 40.387146 
L 40.074513 40.840358 
L 40.05047 41.293571 
L 40.026427 41.746784 
L 40.002384 42.199996 
L 39.978341 42.653209 
L 39.954298 43.106421 
L 39.930255 43.559634 
L 39.734039 44.298279 
L 39.537822 45.036924 
L 39.341606 45.77557 
L 39.145389 46.514215 
L 38.903023 47.045041 
L 38.660657 47.575868 
L 38.418291 48.106695 
L 38.175925 48.637522 
L 37.714213 49.203144 
L 37.252502 49.768766 
L 36.790791 50.334388 
L 36.32908 50.90001 
L 35.925136 51.228897 
L 35.521193 51.557784 
L 35.117249 51.886671 
L 34.713306 52.215558 
L 34.309362 52.544445 
L 33.905418 52.873332 
L 33.501475 53.202219 
L 33.097531 53.531106 
L 32.693588 54.033175 
L 32.289644 54.535244 
L 31.885701 55.037313 
L 31.481757 55.539382 
L 31.077814 56.041451 
L 30.67387 56.54352 
L 30.269927 57.045589 
L 29.865983 57.547658 
L 29.871738 58.101602 
L 29.877493 58.655546 
L 29.883249 59.20949 
L 29.889004 59.763434 
L 29.894759 60.317379 
L 29.900514 60.871323 
L 29.90627 61.425267 
L 29.912025 61.979211 
L 30.010133 62.446644 
L 30.108242 62.914076 
L 30.20635 63.381509 
L 30.304458 63.848941 
L 30.402566 64.316374 
L 30.500675 64.783807 
L 30.598783 65.251239 
L 30.696891 65.718672 
L 31.073188 66.354997 
L 31.449485 66.991321 
L 31.825782 67.627646 
L 32.202078 68.263971 
" style="fill:none;stroke:#000000;stroke-linecap:square;stroke-width:0.537424;"/>
   </g>
   <g id="line2d_97">
    <path clip-path="url(#p473e0b4423)" d="M 40.122599 39.933933 
L 40.096136 40.414434 
L 40.069672 40.894934 
L 40.043209 41.375435 
L 40.016745 41.855936 
L 39.990282 42.336437 
L 39.963819 42.816937 
L 39.937355 43.297438 
L 39.910892 43.777939 
L 39.884428 44.258439 
L 39.857965 44.73894 
L 39.831502 45.219441 
L 39.805038 45.699941 
L 39.778575 46.180442 
L 39.752111 46.660943 
L 39.725648 47.141443 
L 39.699184 47.621944 
L 39.370274 48.204805 
L 39.041364 48.787666 
L 38.712454 49.370527 
L 38.383544 49.953387 
L 38.054634 50.536248 
L 37.725724 51.119109 
L 37.396814 51.70197 
L 37.067904 52.284831 
L 36.606246 52.815737 
L 36.144589 53.346643 
L 35.682931 53.877549 
L 35.221274 54.408455 
L 34.759616 54.939362 
L 34.297959 55.470268 
L 33.836302 56.001174 
L 33.374644 56.53208 
" style="fill:none;stroke:#000000;stroke-linecap:square;stroke-width:0.537424;"/>
   </g>
   <g id="line2d_98">
    <path clip-path="url(#p473e0b4423)" d="M 40.122599 39.933933 
L 40.115876 40.785305 
L 40.109152 41.636678 
L 40.102429 42.48805 
L 40.095705 43.339423 
L 40.088982 44.190795 
L 40.082259 45.042167 
L 40.075535 45.89354 
L 40.068812 46.744912 
L 39.941873 47.506595 
L 39.814935 48.268279 
L 39.687997 49.029962 
L 39.561058 49.791645 
L 39.379257 50.186945 
L 39.197455 50.582245 
L 39.015654 50.977545 
L 38.833852 51.372844 
L 38.652051 51.768144 
L 38.470249 52.163444 
L 38.288448 52.558744 
L 38.106646 52.954044 
L 37.924845 53.349344 
L 37.743043 53.744644 
L 37.561242 54.139944 
L 37.379441 54.535244 
L 37.197639 54.930544 
L 37.015838 55.325843 
L 36.834036 55.721143 
L 36.652235 56.116443 
" style="fill:none;stroke:#000000;stroke-linecap:square;stroke-width:0.537424;"/>
   </g>
   <g id="line2d_99">
    <path clip-path="url(#p473e0b4423)" d="M 40.122599 39.933933 
L 40.13653 40.408674 
L 40.150461 40.883415 
L 40.164392 41.358157 
L 40.178323 41.832898 
L 40.192254 42.307639 
L 40.206185 42.78238 
L 40.220116 43.257121 
L 40.234047 43.731863 
L 40.247978 44.206604 
L 40.261909 44.681345 
L 40.275839 45.156086 
L 40.28977 45.630827 
L 40.303701 46.105569 
L 40.317632 46.58031 
L 40.331563 47.055051 
L 40.345494 47.529792 
L 40.270514 48.210684 
L 40.195535 48.891575 
L 40.120555 49.572466 
L 40.045575 50.253358 
L 39.970596 50.934249 
L 39.895616 51.61514 
L 39.820636 52.296032 
L 39.745657 52.976923 
L 39.676379 53.773243 
L 39.6071 54.569562 
L 39.537822 55.365882 
L 39.468544 56.162201 
" style="fill:none;stroke:#ff0000;stroke-linecap:square;stroke-width:0.537424;"/>
   </g>
   <g id="line2d_100">
    <path clip-path="url(#p473e0b4423)" d="M 39.468544 56.162201 
L 39.71091 56.947082 
L 39.953276 57.731962 
L 40.195642 58.516842 
L 40.438009 59.301722 
L 40.582266 59.740317 
L 40.726524 60.178912 
L 40.870782 60.617508 
L 41.01504 61.056103 
L 41.159298 61.494699 
L 41.303556 61.933294 
L 41.447814 62.371889 
L 41.592071 62.810485 
L 41.742138 63.225963 
L 41.892205 63.641441 
L 42.042272 64.056919 
L 42.192339 64.472397 
L 42.619626 64.971765 
L 43.046914 65.471133 
L 43.474201 65.970501 
L 43.901488 66.469869 
" style="fill:none;stroke:#000000;stroke-linecap:square;stroke-width:0.537424;"/>
   </g>
   <g id="line2d_101">
    <path clip-path="url(#p473e0b4423)" d="M 33.374644 56.53208 
L 33.305366 57.247528 
L 33.236088 57.962977 
L 33.16681 58.678425 
L 33.097531 59.393873 
L 33.13217 60.144117 
L 33.16681 60.894361 
L 33.201449 61.644604 
L 33.236088 62.394848 
L 33.305366 62.868 
L 33.374644 63.341153 
L 33.443922 63.814305 
L 33.513201 64.287457 
L 33.755567 64.74917 
L 33.997933 65.210883 
L 34.240299 65.672596 
L 34.482665 66.134309 
L 34.688241 66.53231 
L 34.893816 66.930311 
L 35.099392 67.328311 
L 35.304967 67.726312 
" style="fill:none;stroke:#ff0000;stroke-linecap:square;stroke-width:0.537424;"/>
   </g>
   <g id="line2d_102">
    <path clip-path="url(#p473e0b4423)" d="M 36.652235 56.116443 
L 36.490657 56.601194 
L 36.32908 57.085945 
L 36.167502 57.570696 
L 36.005925 58.055446 
L 36.132917 58.534398 
L 36.259909 59.01335 
L 36.386901 59.492301 
L 36.513893 59.971253 
L 36.640885 60.450204 
L 36.767878 60.929156 
L 36.89487 61.408108 
L 37.021862 61.887059 
L 37.32178 62.602666 
L 37.621699 63.318274 
L 37.852555 63.745191 
L 38.08341 64.172109 
L 38.314266 64.599026 
L 38.545122 65.025944 
L 38.801795 65.53691 
L 39.058469 66.047877 
L 39.315142 66.558843 
L 39.571816 67.069809 
" style="fill:none;stroke:#000000;stroke-linecap:square;stroke-width:0.537424;"/>
   </g>
   <g id="line2d_103">
    <path clip-path="url(#p473e0b4423)" d="M 41.653604 37.537984 
L 41.56905 38.062455 
L 41.484497 38.586926 
L 41.399943 39.111398 
L 41.315389 39.635869 
L 41.28075 40.189893 
L 41.246111 40.743917 
L 41.211472 41.29794 
L 41.176833 41.851964 
L 41.257621 42.694359 
L 41.33841 43.536755 
L 41.419199 44.37915 
L 41.499987 45.221546 
L 41.615415 45.856282 
L 41.730843 46.491018 
L 41.846271 47.125754 
L 41.961699 47.76049 
L 42.019359 48.395226 
L 42.077019 49.029962 
L 42.134679 49.664698 
L 42.192339 50.299434 
L 42.411577 50.968806 
L 42.630814 51.638178 
L 42.850052 52.307551 
L 43.069289 52.976923 
L 43.392659 53.600378 
L 43.716029 54.223834 
" style="fill:none;stroke:#ff0000;stroke-linecap:square;stroke-width:0.537424;"/>
   </g>
   <g id="line2d_104">
    <path clip-path="url(#p473e0b4423)" d="M 41.653604 37.537984 
L 41.799799 38.316349 
L 41.945993 39.094715 
L 42.092187 39.873081 
L 42.238381 40.651447 
L 42.307659 41.182274 
L 42.376938 41.7131 
L 42.446216 42.243927 
L 42.515494 42.774754 
L 42.607793 43.20183 
L 42.700092 43.628907 
L 42.792392 44.055983 
L 42.884691 44.48306 
L 43.080907 45.048523 
L 43.277124 45.613986 
L 43.47334 46.179449 
L 43.669557 46.744912 
L 43.738835 47.229663 
L 43.808113 47.714414 
L 43.877392 48.199165 
L 43.94667 48.683915 
L 44.085119 49.168666 
L 44.223567 49.653417 
L 44.362016 50.138168 
L 44.500465 50.622919 
L 44.731321 51.384602 
L 44.962176 52.146285 
L 45.285331 52.792619 
L 45.608486 53.438954 
" style="fill:none;stroke:#ff0000;stroke-linecap:square;stroke-width:0.537424;"/>
   </g>
   <g id="line2d_105">
    <path clip-path="url(#p473e0b4423)" d="M 43.716029 54.223834 
L 43.958395 54.777699 
L 44.200761 55.331563 
L 44.443128 55.885428 
L 44.685494 56.439293 
L 44.93937 56.947082 
L 45.193247 57.45487 
L 45.447124 57.962659 
L 45.701 58.470448 
L 45.949122 58.960998 
L 46.197243 59.451548 
L 46.445364 59.942098 
L 46.693486 60.432648 
L 46.941607 60.923198 
L 47.189729 61.413748 
L 47.43785 61.904298 
L 47.685971 62.394848 
L 48.043765 62.891038 
L 48.401559 63.387229 
L 48.759353 63.883419 
L 49.117147 64.379609 
L 49.53755 64.696103 
" style="fill:none;stroke:#ff0000;stroke-linecap:square;stroke-width:0.537424;"/>
   </g>
   <g id="line2d_106">
    <path clip-path="url(#p473e0b4423)" d="M 45.608486 53.438954 
L 45.850852 53.87747 
L 46.093218 54.315986 
L 46.335584 54.754502 
L 46.57795 55.193018 
L 46.878084 55.793276 
L 47.178218 56.393535 
L 47.420584 56.866687 
L 47.66295 57.339839 
L 47.905316 57.812992 
L 48.147683 58.286144 
L 48.332281 59.001751 
L 48.516879 59.717358 
L 48.932441 60.213549 
L 49.348003 60.709739 
L 49.763564 61.205929 
L 50.179126 61.70212 
L 50.467642 62.209909 
L 50.756157 62.717697 
L 51.044673 63.225486 
L 51.333189 63.733275 
L 51.666241 64.303346 
" style="fill:none;stroke:#ff0000;stroke-linecap:square;stroke-width:0.537424;"/>
   </g>
  </g>
 </g>
 <defs>
  <clipPath id="p473e0b4423">
   <rect height="72" width="116.083543" x="0" y="0"/>
  </clipPath>
 </defs>
</svg>
