<?xml version="1.0" encoding="utf-8" standalone="no"?>
<!DOCTYPE svg PUBLIC "-//W3C//DTD SVG 1.1//EN"
  "http://www.w3.org/Graphics/SVG/1.1/DTD/svg11.dtd">
<svg height="239.744543pt" version="1.1" viewBox="0 0 72 239.744543" width="72pt" xmlns="http://www.w3.org/2000/svg" xmlns:xlink="http://www.w3.org/1999/xlink">
 <metadata>
  <rdf:RDF xmlns:cc="http://creativecommons.org/ns#" xmlns:dc="http://purl.org/dc/elements/1.1/" xmlns:rdf="http://www.w3.org/1999/02/22-rdf-syntax-ns#">
   <cc:Work>
    <dc:type rdf:resource="http://purl.org/dc/dcmitype/StillImage"/>
    <dc:date>2022-04-19T00:47:17.187897</dc:date>
    <dc:format>image/svg+xml</dc:format>
    <dc:creator>
     <cc:Agent>
      <dc:title>Matplotlib v3.4.3, https://matplotlib.org/</dc:title>
     </cc:Agent>
    </dc:creator>
   </cc:Work>
  </rdf:RDF>
 </metadata>
 <defs>
  <style type="text/css">*{stroke-linecap:butt;stroke-linejoin:round;}</style>
 </defs>
 <g id="figure_1">
  <g id="patch_1">
   <path d="M 0 239.744543 
L 72 239.744543 
L 72 0 
L 0 0 
z
" style="fill:#ffffff;"/>
  </g>
  <g id="axes_1">
   <g id="line2d_1">
    <path clip-path="url(#p3049bbd2c2)" d="M 65.80504 13.414254 
L 65.722042 16.371528 
L 65.313967 26.986031 
L 64.905892 37.600534 
L 64.338737 50.632635 
L 63.771582 63.664736 
L 63.219989 76.613116 
L 62.668396 89.561496 
L 62.239571 100.150239 
L 61.810747 110.738982 
L 61.307569 123.804571 
L 60.804392 136.87016 
L 60.316777 149.14491 
L 59.829162 161.41966 
L 59.227424 174.657842 
L 58.625686 187.896025 
L 58.330005 195.952537 
L 58.034323 204.009049 
" style="fill:none;stroke:#808080;stroke-linecap:square;stroke-width:0.4;"/>
   </g>
   <g id="line2d_2">
    <path clip-path="url(#p3049bbd2c2)" d="M 67.254053 10.897479 
L 68.727273 13.847026 
L 68.491246 16.991062 
L 68.25522 20.135098 
L 68.019193 23.279134 
L 67.783167 26.42317 
L 67.716595 29.419085 
L 67.650024 32.415 
L 67.583452 35.410915 
L 67.516881 38.40683 
L 67.498725 42.089255 
L 67.480569 45.77168 
L 67.462413 49.454105 
L 67.444257 53.13653 
L 67.424804 56.985108 
L 67.405352 60.833687 
L 67.385899 64.682265 
L 67.366446 68.530843 
L 67.346993 72.379422 
L 67.327541 76.228 
L 67.308088 80.076579 
L 67.288635 83.925157 
L 67.269183 86.291235 
L 67.24973 88.657312 
L 67.230277 91.023389 
L 67.210824 93.389466 
L 67.191372 95.755543 
L 67.171919 98.121621 
L 67.152466 100.487698 
L 67.133013 102.853775 
L 67.113561 105.219852 
L 67.094108 107.585929 
L 67.074655 109.952007 
L 67.055203 112.318084 
L 67.03575 114.684161 
L 67.016297 117.050238 
L 66.996844 119.416315 
L 66.977392 121.782393 
L 66.800156 125.77394 
L 66.62292 129.765488 
L 66.445684 133.757036 
L 66.268448 137.748584 
L 66.091212 141.740131 
L 65.913976 145.731679 
L 65.73674 149.723227 
L 65.559504 153.714775 
L 65.425928 156.5162 
L 65.292353 159.317625 
L 65.158778 162.11905 
L 65.025202 164.920475 
L 64.891627 167.7219 
L 64.758051 170.523325 
L 64.624476 173.32475 
L 64.4909 176.126175 
L 64.408767 180.578187 
L 64.326633 185.030199 
L 64.244499 189.482211 
L 64.162365 193.934223 
L 63.472442 197.664304 
L 62.782518 201.394386 
L 61.791726 203.772055 
L 60.800934 206.149724 
" style="fill:none;stroke:#008000;stroke-linecap:square;stroke-width:0.4;"/>
   </g>
   <g id="line2d_3">
    <path clip-path="url(#p3049bbd2c2)" d="M 67.783167 26.42317 
L 65.156616 26.895871 
L 62.530065 27.368571 
L 60.332339 28.874256 
L 58.134613 30.379942 
L 56.69684 32.68677 
L 55.259067 34.993599 
L 53.821294 37.300428 
L 52.383521 39.607256 
L 51.060736 43.184064 
L 49.73795 46.760872 
L 48.415164 50.337681 
L 47.092379 53.914489 
L 46.750011 56.51112 
L 46.407643 59.107751 
L 46.065275 61.704382 
L 45.722907 64.301014 
L 45.543077 67.830165 
L 45.40734 70.497959 
L 45.271603 73.165753 
L 45.135867 75.833547 
L 45.00013 78.501341 
L 44.864393 81.169135 
L 44.728656 83.836929 
L 44.592919 86.504723 
L 44.457182 89.172516 
L 44.096658 91.977162 
L 43.736135 94.781807 
L 43.375611 97.586452 
L 43.015087 100.391097 
L 41.094022 104.28218 
L 39.172956 108.173263 
L 36.959668 110.438875 
L 34.74638 112.704487 
L 32.003977 114.469063 
L 29.261574 116.233639 
L 26.811395 118.683437 
L 24.361216 121.133235 
L 23.381663 123.533444 
L 22.40211 125.933654 
L 21.422557 128.333863 
L 20.443004 130.734073 
L 20.011585 134.383653 
L 19.580167 138.033234 
L 19.148749 141.682815 
L 18.71733 145.332395 
L 18.704362 147.782837 
L 18.691393 150.233279 
L 18.678425 152.683721 
L 18.665456 155.134163 
L 19.13578 159.018806 
L 19.606104 162.903449 
L 21.850517 165.4872 
L 23.991181 166.605194 
L 27.098431 168.041327 
L 30.20568 169.47746 
L 34.333117 171.052698 
L 38.460554 172.627936 
L 40.967795 173.420063 
L 43.475036 174.21219 
L 45.819738 175.224567 
L 48.16444 176.236944 
" style="fill:none;stroke:#008000;stroke-linecap:square;stroke-width:0.4;"/>
   </g>
   <g id="line2d_4">
    <path clip-path="url(#p3049bbd2c2)" d="M 43.015087 100.391097 
L 43.886569 102.831879 
L 44.758051 105.272661 
L 45.722907 108.199023 
L 45.918299 110.893543 
L 46.11369 113.588063 
L 46.309082 116.282583 
L 46.504474 118.977103 
L 46.724938 122.308545 
L 46.945403 125.639987 
L 47.165867 128.971429 
L 47.386331 132.302871 
L 47.606795 135.634313 
L 47.82726 138.965754 
L 48.047724 142.297196 
L 48.268188 145.628638 
L 48.121212 149.694891 
L 47.974236 153.761143 
L 47.82726 157.827395 
L 47.680284 161.893648 
L 47.778844 165.715178 
L 47.877405 169.536708 
L 48.020922 172.886826 
L 48.16444 176.236944 
L 48.288938 179.118226 
L 48.413435 181.999508 
L 48.537933 184.88079 
L 48.66243 187.762072 
L 49.348031 192.171579 
L 50.033632 196.581087 
L 50.719232 200.990594 
L 51.404833 205.400102 
" style="fill:none;stroke:#008000;stroke-linecap:square;stroke-width:0.4;"/>
   </g>
   <g id="line2d_5">
    <path clip-path="url(#p3049bbd2c2)" d="M 67.444257 53.13653 
L 64.673324 54.410373 
L 61.902391 55.684216 
L 59.131457 56.95806 
L 56.360524 58.231903 
L 53.649246 59.823886 
L 50.937967 61.415868 
L 49.163878 62.947313 
L 47.389789 64.478759 
L 45.543077 67.830165 
" style="fill:none;stroke:#008000;stroke-linecap:square;stroke-width:0.4;"/>
   </g>
   <g id="line2d_6">
    <path clip-path="url(#p3049bbd2c2)" d="M 19.606104 162.903449 
L 19.606104 167.146159 
L 19.594 170.618638 
L 19.581896 174.091117 
L 18.77785 177.405171 
L 17.973804 180.719224 
L 17.053041 183.333888 
L 16.132279 185.948551 
L 15.211516 188.563215 
L 14.290753 191.177878 
L 13.329356 193.652792 
L 12.367959 196.127707 
L 11.406562 198.602621 
L 10.445165 201.077535 
L 9.016902 204.449549 
L 7.58864 207.821563 
L 6.71197 210.130324 
L 5.8353 212.439085 
L 4.958631 214.747845 
L 4.081961 217.056606 
L 3.272727 220.601214 
L 4.220291 224.083997 
L 6.813989 225.356552 
L 10.524705 225.356552 
L 13.329356 226.737301 
L 15.321316 228.46066 
" style="fill:none;stroke:#008000;stroke-linecap:square;stroke-width:0.4;"/>
   </g>
   <g id="line2d_7">
    <path clip-path="url(#p3049bbd2c2)" d="M 36.430554 211.21161 
L 34.317987 213.416041 
L 32.205421 215.620473 
L 30.092854 217.824905 
L 27.980288 220.029337 
L 25.867721 222.233768 
L 23.755155 224.4382 
L 21.642589 226.642632 
L 19.530022 228.847064 
" style="fill:none;stroke:#008000;stroke-linecap:square;stroke-width:0.4;"/>
   </g>
  </g>
 </g>
 <defs>
  <clipPath id="p3049bbd2c2">
   <rect height="239.744543" width="72" x="0" y="0"/>
  </clipPath>
 </defs>
</svg>
