<?xml version="1.0" encoding="utf-8" standalone="no"?>
<!DOCTYPE svg PUBLIC "-//W3C//DTD SVG 1.1//EN"
  "http://www.w3.org/Graphics/SVG/1.1/DTD/svg11.dtd">
<svg height="72pt" version="1.1" viewBox="0 0 70.918082 72" width="70.918082pt" xmlns="http://www.w3.org/2000/svg" xmlns:xlink="http://www.w3.org/1999/xlink">
 <metadata>
  <rdf:RDF xmlns:cc="http://creativecommons.org/ns#" xmlns:dc="http://purl.org/dc/elements/1.1/" xmlns:rdf="http://www.w3.org/1999/02/22-rdf-syntax-ns#">
   <cc:Work>
    <dc:type rdf:resource="http://purl.org/dc/dcmitype/StillImage"/>
    <dc:date>2022-04-19T00:47:42.547912</dc:date>
    <dc:format>image/svg+xml</dc:format>
    <dc:creator>
     <cc:Agent>
      <dc:title>Matplotlib v3.4.3, https://matplotlib.org/</dc:title>
     </cc:Agent>
    </dc:creator>
   </cc:Work>
  </rdf:RDF>
 </metadata>
 <defs>
  <style type="text/css">*{stroke-linecap:butt;stroke-linejoin:round;}</style>
 </defs>
 <g id="figure_1">
  <g id="patch_1">
   <path d="M 0 72 
L 70.918082 72 
L 70.918082 0 
L 0 0 
z
" style="fill:#ffffff;"/>
  </g>
  <g id="axes_1">
   <g id="line2d_1">
    <path clip-path="url(#p51490ce0c1)" d="M 61.601181 37.200824 
L 61.213378 36.312394 
L 60.825576 35.423963 
L 60.464305 34.518464 
L 60.214151 33.941015 
L 59.963998 33.363566 
L 59.713845 32.786117 
L 59.463691 32.208668 
L 59.206466 31.638955 
L 58.94924 31.069242 
L 58.692015 30.499529 
L 58.43479 29.929816 
L 58.061177 28.972742 
L 57.687565 28.015669 
L 57.313953 27.058595 
L 56.94034 26.101522 
L 56.536822 25.188164 
L 56.133304 24.274806 
L 55.856435 23.65493 
L 55.579565 23.035055 
L 55.265348 22.318294 
L 54.951131 21.601532 
L 54.636914 20.884771 
L 54.322697 20.16801 
L 54.00848 19.451248 
L 53.694263 18.734487 
L 53.380045 18.017726 
L 53.065828 17.300964 
L 52.804489 16.704912 
L 52.54315 16.108859 
L 52.233232 15.40186 
L 51.923313 14.694861 
L 51.613395 13.987862 
L 51.303476 13.280863 
L 51.050827 12.704457 
L 50.798178 12.128052 
L 50.545528 11.551647 
L 50.292879 10.975241 
L 50.031771 10.379557 
L 49.770663 9.783873 
L 49.509555 9.188188 
L 49.248447 8.592504 
L 48.984982 7.991478 
L 48.721516 7.390452 
L 48.458051 6.789426 
L 48.194586 6.1884 
L 47.961396 5.656508 
L 47.728206 5.124617 
L 47.495016 4.592725 
L 47.261826 4.060833 
L 46.916455 3.272727 
" style="fill:none;stroke:#808080;stroke-linecap:square;stroke-width:0.4;"/>
   </g>
   <g id="line2d_2">
    <path clip-path="url(#p51490ce0c1)" d="M 16.060135 67.654771 
L 15.945504 67.209757 
L 15.77171 66.534378 
L 15.513699 65.532484 
L 15.255687 64.53059 
L 14.996567 63.52096 
L 14.737446 62.511329 
L 14.576525 61.887678 
L 14.415603 61.264027 
L 14.254681 60.640376 
L 14.093759 60.016725 
L 13.932837 59.393074 
L 13.771915 58.769423 
L 13.610993 58.145771 
L 13.450072 57.52212 
L 13.27771 56.859451 
L 13.105348 56.196781 
L 12.932986 55.534111 
L 12.760624 54.871442 
L 12.61068 54.303755 
L 12.460736 53.736068 
L 12.257175 52.965399 
L 12.053613 52.19473 
L 11.834706 51.306177 
L 11.684161 50.695082 
L 11.533616 50.083986 
L 11.383071 49.472891 
L 11.232526 48.861796 
L 11.041536 48.086461 
L 10.850547 47.311126 
L 10.708599 46.73472 
L 10.566652 46.158315 
L 10.424704 45.58191 
L 10.282756 45.005504 
L 10.231542 44.797733 
L 10.069211 44.138809 
" style="fill:none;stroke:#808080;stroke-linecap:square;stroke-width:0.4;"/>
   </g>
   <g id="line2d_3">
    <path clip-path="url(#p51490ce0c1)" d="M 62.182838 37.112656 
L 62.141701 36.322954 
L 62.100563 35.533252 
L 62.06659 34.882555 
L 62.032617 34.231858 
L 61.998644 33.581161 
L 61.96467 32.930464 
L 61.93287 32.319798 
L 61.901069 31.709133 
L 61.861642 30.953077 
L 61.822214 30.19702 
L 61.782787 29.440964 
L 61.74336 28.684908 
L 61.687616 27.783707 
L 61.631872 26.882506 
L 61.600719 26.305118 
L 61.569565 25.72773 
L 61.523204 24.867052 
L 61.476844 24.006373 
L 61.430483 23.145695 
L 61.384122 22.285016 
L 61.354402 21.733231 
L 61.324681 21.181447 
L 61.29496 20.629662 
L 61.265239 20.077877 
L 61.22914 19.407594 
L 61.193041 18.737311 
L 61.156941 18.067028 
L 61.120842 17.396745 
L 61.084326 16.60385 
L 61.047811 15.810955 
" style="fill:none;stroke:#808080;stroke-linecap:square;stroke-width:0.4;"/>
   </g>
   <g id="line2d_4">
    <path clip-path="url(#p51490ce0c1)" d="M 35.066432 51.558155 
L 34.820161 51.152436 
L 34.435594 50.469935 
L 34.00536 49.706757 
L 33.575125 48.943578 
L 33.136201 48.164682 
L 32.697277 47.385786 
L 32.381258 46.825098 
L 32.065238 46.264411 
L 31.749218 45.703723 
L 31.433198 45.143036 
L 31.011654 44.395207 
L 30.590109 43.647378 
L 30.185482 42.929389 
L 29.780855 42.2114 
L 29.244402 41.259606 
L 28.70795 40.307813 
L 28.383194 39.731531 
L 28.058439 39.155248 
L 27.718337 38.551828 
L 27.378236 37.948407 
L 27.020478 37.313796 
L 26.662719 36.679186 
L 26.127469 35.729357 
L 25.592218 34.779529 
L 25.198407 34.080696 
L 24.804595 33.381862 
L 24.510439 32.859979 
" style="fill:none;stroke:#808080;stroke-linecap:square;stroke-width:0.4;"/>
   </g>
   <g id="line2d_5">
    <path clip-path="url(#p51490ce0c1)" d="M 54.65494 21.722118 
L 53.720517 22.027635 
L 53.036431 22.251247 
L 52.352346 22.474859 
L 51.303476 22.817952 
L 50.546638 23.065386 
L 49.789799 23.31282 
L 49.072896 23.547115 
L 48.355993 23.78141 
L 47.611172 24.024915 
L 46.86635 24.26842 
L 46.102301 24.51831 
L 45.338252 24.768201 
L 44.577715 25.01674 
L 43.817178 25.26528 
L 43.115621 25.494663 
L 42.414064 25.724046 
L 41.574765 25.998496 
L 40.735466 26.272945 
L 39.818976 26.572568 
L 38.902487 26.872191 
L 38.341629 27.055525 
L 37.780772 27.23886 
L 36.950902 27.510117 
L 36.121032 27.781374 
L 35.475034 27.992583 
L 34.829035 28.203793 
L 33.781183 28.546394 
L 32.73333 28.888995 
L 32.300323 29.030457 
L 31.867315 29.172163 
L 31.315425 29.352551 
L 30.763534 29.532939 
L 29.924605 29.807142 
L 29.085676 30.081346 
L 28.327543 30.329272 
L 27.56941 30.577197 
L 26.811184 30.825123 
L 26.052959 31.073048 
L 25.452443 31.269277 
L 24.851927 31.465505 
L 24.287279 31.65019 
" style="fill:none;stroke:#808080;stroke-linecap:square;stroke-width:0.4;"/>
   </g>
   <g id="line2d_6">
    <path clip-path="url(#p51490ce0c1)" d="M 24.787956 67.222528 
L 24.515708 66.719309 
L 24.243461 66.216091 
L 23.948287 65.670507 
L 23.653113 65.124924 
L 23.165934 64.224336 
L 22.901174 63.734871 
L 22.636414 63.245405 
L 22.213576 62.46393 
L 21.88392 61.854493 
L 21.554265 61.245055 
L 21.253268 60.688666 
L 20.95227 60.132276 
L 20.469158 59.239302 
L 19.986046 58.346328 
L 19.490361 57.430146 
L 18.994676 56.513963 
L 18.522288 55.64076 
L 18.049899 54.767556 
L 17.702587 54.125455 
L 17.355275 53.483353 
L 16.985314 52.799501 
L 16.615353 52.115649 
L 16.344493 51.614887 
L 16.073632 51.114124 
L 15.557979 50.160734 
L 15.038167 49.199854 
L 14.518354 48.238974 
L 14.07943 47.427536 
L 13.640506 46.616099 
L 13.354207 46.086848 
L 13.067908 45.557596 
L 12.742598 44.956263 
L 12.417288 44.35493 
L 12.004063 43.590892 
L 11.836 43.280218 
L 11.504681 42.65322 
" style="fill:none;stroke:#808080;stroke-linecap:square;stroke-width:0.4;"/>
   </g>
   <g id="line2d_7">
    <path clip-path="url(#p51490ce0c1)" d="M 12.084119 67.581339 
L 11.814368 66.99118 
L 11.544616 66.401022 
L 11.091271 65.408828 
L 10.808577 64.790304 
L 10.525884 64.17178 
L 10.231635 63.527836 
L 9.937385 62.883893 
L 9.647204 62.249037 
L 9.357022 61.614181 
L 9.157528 61.177763 
" style="fill:none;stroke:#808080;stroke-linecap:square;stroke-width:0.4;"/>
   </g>
   <g id="line2d_8">
    <path clip-path="url(#p51490ce0c1)" d="M 63.150912 35.760179 
L 63.919583 34.971827 
L 64.688255 34.183476 
" style="fill:none;stroke:#808080;stroke-linecap:square;stroke-width:0.4;"/>
   </g>
   <g id="line2d_9">
    <path clip-path="url(#p51490ce0c1)" d="M 28.041984 65.752167 
L 27.622935 64.927529 
L 27.203886 64.102891 
L 26.784838 63.278253 
L 26.365789 62.453615 
" style="fill:none;stroke:#808080;stroke-linecap:square;stroke-width:0.4;"/>
   </g>
   <g id="line2d_10">
    <path clip-path="url(#p51490ce0c1)" d="M 28.124813 65.721959 
L 27.70387 64.891734 
L 27.282926 64.061509 
L 26.861982 63.231284 
L 26.441039 62.401059 
" style="fill:none;stroke:#808080;stroke-linecap:square;stroke-width:0.4;"/>
   </g>
   <g id="line2d_11">
    <path clip-path="url(#p51490ce0c1)" d="M 24.610833 33.452593 
L 24.629876 33.688607 
L 24.598908 33.924376 
L 24.567939 34.160145 
L 24.513952 34.350602 
L 24.459964 34.541058 
L 24.347298 34.801847 
L 24.234632 35.062635 
L 24.121966 35.323424 
L 24.0093 35.584212 
L 23.896634 35.845001 
L 23.783968 36.105789 
L 23.671302 36.366577 
L 23.558636 36.627366 
L 23.501621 36.833111 
L 23.444606 37.038856 
L 23.387591 37.244601 
L 23.330576 37.450346 
L 23.273561 37.656091 
L 23.216547 37.861836 
L 23.159532 38.067581 
L 23.102517 38.273326 
L 23.015111 38.470844 
L 22.927705 38.668361 
L 22.8403 38.865879 
L 22.752894 39.063397 
L 22.646214 39.304568 
L 22.472095 39.517712 
L 22.297977 39.730855 
L 22.123859 39.943999 
L 21.949741 40.157142 
L 21.775622 40.370286 
L 21.601504 40.583429 
L 21.427386 40.796573 
L 21.253268 41.009716 
" style="fill:none;stroke:#008000;stroke-linecap:square;stroke-width:0.4;"/>
   </g>
   <g id="line2d_12">
    <path clip-path="url(#p51490ce0c1)" d="M 5.98596 49.5971 
L 6.11351 49.763488 
L 6.241059 49.929877 
L 6.368609 50.096266 
L 6.496158 50.262655 
L 6.623708 50.429044 
L 6.751258 50.595433 
L 6.878807 50.761821 
L 7.006357 50.92821 
L 7.073795 51.201493 
L 7.141232 51.474776 
L 7.20867 51.748059 
L 7.276108 52.021342 
L 7.343546 52.294625 
L 7.410984 52.567908 
L 7.478422 52.841191 
L 7.54586 53.114474 
L 7.541515 53.351501 
L 7.53717 53.588528 
L 7.532825 53.825556 
L 7.52848 54.062583 
L 7.524135 54.29961 
L 7.519791 54.536638 
L 7.515446 54.773665 
L 7.511101 55.010692 
L 7.476388 55.233813 
L 7.441675 55.456934 
L 7.406963 55.680055 
L 7.37225 55.903175 
L 7.371233 56.080616 
L 7.370216 56.258056 
L 7.252258 56.417691 
L 7.134299 56.577326 
L 6.980565 56.765696 
L 6.826831 56.954065 
L 6.673096 57.142434 
L 6.519362 57.330804 
L 6.397058 57.570502 
L 6.274755 57.8102 
L 6.152452 58.049898 
L 6.030148 58.289596 
" style="fill:none;stroke:#4169e1;stroke-linecap:square;stroke-width:0.4;"/>
   </g>
   <g id="line2d_13">
    <path clip-path="url(#p51490ce0c1)" d="M 9.37736 43.427082 
L 9.272713 43.600102 
L 9.168067 43.773122 
L 9.053713 44.077288 
L 8.93936 44.381454 
L 8.862493 44.540107 
L 8.785626 44.698759 
L 8.708759 44.857412 
L 8.631892 45.016065 
L 8.555024 45.174717 
L 8.478157 45.33337 
L 8.40129 45.492023 
L 8.324423 45.650676 
L 8.247556 45.811815 
L 8.170689 45.972954 
L 8.093821 46.134093 
L 8.016954 46.295233 
L 7.940087 46.456372 
L 7.86322 46.617511 
L 7.786353 46.778651 
L 7.709486 46.93979 
L 7.615239 47.093469 
L 7.520992 47.247149 
L 7.426746 47.400828 
L 7.332499 47.554508 
L 7.150246 47.770445 
L 6.967992 47.986382 
L 6.785739 48.202319 
L 6.603486 48.418256 
L 6.526295 48.565612 
L 6.449104 48.712967 
L 6.371914 48.860322 
L 6.294723 49.007678 
L 6.217532 49.155033 
L 6.140342 49.302389 
L 6.063151 49.449744 
L 5.98596 49.5971 
" style="fill:none;stroke:#4169e1;stroke-linecap:square;stroke-width:0.4;"/>
   </g>
   <g id="line2d_14">
    <path clip-path="url(#p51490ce0c1)" d="M 23.802503 32.852611 
L 23.304137 33.030788 
L 22.870113 33.011263 
L 22.632162 32.667189 
L 22.454438 29.358629 
L 22.682821 28.13429 
L 24.740647 26.130809 
L 26.963255 24.762613 
L 28.591101 24.285366 
L 29.964264 24.265105 
L 31.745104 24.711223 
L 33.522478 22.460983 
L 37.865635 19.974974 
L 39.162347 20.088868 
L 41.195005 20.736618 
L 44.183441 22.594954 
L 45.558291 22.759194 
L 47.284937 22.384481 
L 48.134867 22.401243 
L 50.102028 22.893686 
L 53.626963 22.260702 
L 53.626963 22.260702 
" style="fill:none;stroke:#4169e1;stroke-linecap:square;stroke-width:0.4;"/>
   </g>
   <g id="line2d_15">
    <path clip-path="url(#p51490ce0c1)" d="M 11.346047 43.879954 
L 11.362594 44.200207 
L 11.379142 44.520459 
L 11.433684 44.822845 
L 11.488226 45.125231 
L 11.542768 45.427616 
L 11.597309 45.730002 
L 11.622131 45.923344 
L 11.646952 46.116687 
L 11.671773 46.31003 
L 11.696594 46.503372 
L 11.815616 46.741351 
L 11.934638 46.97933 
L 12.053659 47.217309 
L 12.172681 47.455288 
L 12.276819 47.628799 
L 12.380957 47.80231 
L 12.485095 47.975821 
L 12.589233 48.149332 
L 12.688426 48.347648 
L 12.787618 48.545964 
L 12.88681 48.74428 
L 12.986003 48.942596 
L 13.060374 49.215265 
L 13.134745 49.487934 
L 13.209116 49.760603 
L 13.283488 50.033272 
L 13.287509 50.257313 
L 13.29153 50.481355 
L 13.295552 50.705397 
L 13.299573 50.929438 
" style="fill:none;stroke:#4169e1;stroke-linecap:square;stroke-width:0.4;"/>
   </g>
   <g id="line2d_16">
    <path clip-path="url(#p51490ce0c1)" d="M 11.772029 43.755439 
L 11.940646 43.97856 
L 12.109264 44.20168 
L 12.277882 44.424801 
L 12.4465 44.647922 
L 12.706822 44.814065 
L 12.967144 44.980208 
L 13.2136 45.096005 
L 13.460056 45.211802 
L 13.686451 45.44094 
L 13.912846 45.670077 
L 14.032607 45.889453 
L 14.152369 46.108828 
L 14.27213 46.328204 
L 14.391891 46.547579 
L 14.646898 46.710161 
L 14.901904 46.872743 
L 15.156911 47.035325 
L 15.411918 47.197908 
L 15.487121 47.35085 
L 15.562324 47.503793 
L 15.637527 47.656736 
L 15.71273 47.809678 
L 15.787934 47.962621 
L 15.863137 48.115563 
L 15.93834 48.268506 
L 16.013543 48.421449 
" style="fill:none;stroke:#008000;stroke-linecap:square;stroke-width:0.4;"/>
   </g>
   <g id="line2d_17">
    <path clip-path="url(#p51490ce0c1)" d="M 16.238737 44.966946 
L 16.454501 44.990431 
L 16.670265 45.013916 
L 16.886029 45.037401 
L 17.101794 45.060885 
L 17.317558 45.08437 
L 17.533322 45.107855 
L 17.749086 45.13134 
L 17.964851 45.154825 
L 18.143915 45.194488 
L 18.322979 45.234151 
L 18.502043 45.273814 
L 18.681106 45.313477 
L 18.878937 45.382918 
L 19.076767 45.45236 
L 19.274597 45.521801 
L 19.472427 45.591242 
L 19.632055 45.735804 
L 19.791682 45.880366 
L 19.95131 46.024928 
L 20.110937 46.169489 
L 20.270565 46.314051 
L 20.430193 46.458613 
L 20.58982 46.603175 
L 20.749448 46.747737 
L 20.874617 46.863534 
L 20.999786 46.97933 
L 21.08287 47.146302 
L 21.165954 47.313275 
L 21.249038 47.480247 
L 21.332122 47.647219 
L 21.415206 47.814191 
L 21.49829 47.981163 
L 21.581374 48.148135 
L 21.664458 48.315107 
L 21.86044 48.456323 
L 22.056421 48.597539 
" style="fill:none;stroke:#008000;stroke-linecap:square;stroke-width:0.4;"/>
   </g>
   <g id="line2d_18">
    <path clip-path="url(#p51490ce0c1)" d="M 24.304474 33.040489 
L 24.454614 33.171313 
L 24.604755 33.302137 
L 24.754895 33.432961 
L 24.905036 33.563785 
L 25.055176 33.694609 
L 25.205317 33.825433 
L 25.355458 33.956257 
L 25.505598 34.087081 
L 25.655739 34.217905 
L 25.805879 34.348729 
L 25.95602 34.479553 
L 26.10616 34.610377 
L 26.256301 34.741201 
L 26.406442 34.872025 
L 26.556582 35.002849 
L 26.706723 35.133673 
L 26.906448 35.294444 
L 27.106173 35.455215 
L 27.305898 35.615986 
L 27.505624 35.776757 
L 27.705349 35.937527 
L 27.905074 36.098298 
L 28.104799 36.259069 
L 28.304524 36.41984 
L 28.465077 36.539966 
L 28.625629 36.660091 
L 28.786181 36.780216 
L 28.946733 36.900342 
L 29.107285 37.020467 
L 29.267837 37.140592 
L 29.428389 37.260718 
L 29.588941 37.380843 
L 29.670777 37.541982 
L 29.752613 37.703122 
L 29.834449 37.864261 
L 29.916285 38.0254 
L 29.998121 38.18654 
L 30.079957 38.347679 
L 30.161793 38.508818 
L 30.243629 38.669958 
L 30.407255 38.788947 
L 30.570881 38.907937 
L 30.734507 39.026926 
L 30.898133 39.145916 
L 31.07752 39.248819 
L 31.256908 39.351722 
L 31.436295 39.454625 
L 31.615683 39.557528 
L 31.756567 39.743196 
L 31.897452 39.928864 
L 31.862023 40.107425 
L 31.826594 40.285986 
L 31.791165 40.464547 
L 31.755735 40.643108 
L 31.720306 40.821669 
L 31.684877 41.00023 
L 31.649448 41.178791 
L 31.614019 41.357352 
L 31.57859 41.535913 
L 31.54316 41.714474 
L 31.507731 41.893035 
L 31.472302 42.071596 
L 31.436873 42.250157 
L 31.401444 42.428718 
L 31.366015 42.607279 
L 31.330586 42.78584 
L 31.247455 43.057159 
L 31.164325 43.328477 
L 31.081195 43.599795 
L 30.998065 43.871113 
L 30.914934 44.142431 
L 30.831804 44.413749 
L 30.748674 44.685068 
L 30.665544 44.956386 
L 30.622696 45.216652 
L 30.579848 45.476919 
L 30.537 45.737185 
L 30.494152 45.997452 
L 30.545944 46.162797 
L 30.597736 46.328142 
L 30.649528 46.493487 
L 30.701319 46.658832 
L 30.753111 46.824177 
L 30.804903 46.989522 
L 30.856695 47.154867 
L 30.908486 47.320213 
" style="fill:none;stroke:#ff0000;stroke-linecap:square;stroke-width:0.4;"/>
   </g>
   <g id="line2d_19">
    <path clip-path="url(#p51490ce0c1)" d="M 22.752894 39.063397 
L 22.732325 39.327654 
L 22.711756 39.591911 
L 22.691188 39.856169 
L 22.670619 40.120426 
L 22.706626 40.3138 
L 22.742633 40.507173 
L 22.77864 40.700546 
L 22.814646 40.893919 
L 22.850653 41.087293 
L 22.88666 41.280666 
L 22.922667 41.474039 
L 22.958674 41.667413 
L 23.054123 41.89477 
L 23.149571 42.122127 
L 23.245019 42.349484 
L 23.340468 42.576841 
L 23.469404 42.765241 
L 23.59834 42.953641 
L 23.727276 43.142041 
L 23.856213 43.330441 
L 23.985149 43.518842 
L 24.114085 43.707242 
L 24.243021 43.895642 
L 24.371958 44.084042 
L 24.421554 44.260039 
L 24.47115 44.436037 
L 24.520746 44.612035 
L 24.570342 44.788032 
L 24.619939 44.96403 
L 24.669535 45.140028 
L 24.719131 45.316025 
L 24.768727 45.492023 
L 24.902632 45.695312 
L 25.036537 45.898601 
L 25.170443 46.10189 
L 25.304348 46.305179 
L 25.537399 46.448974 
L 25.77045 46.592768 
L 26.003501 46.736562 
L 26.236553 46.880357 
L 26.410116 46.915047 
L 26.58368 46.949736 
L 26.757243 46.984426 
L 26.930807 47.019116 
L 27.104371 47.053806 
L 27.277934 47.088496 
L 27.451498 47.123186 
L 27.625061 47.157876 
L 27.914411 47.254148 
L 28.203761 47.35042 
" style="fill:none;stroke:#000000;stroke-linecap:square;stroke-width:0.4;"/>
   </g>
   <g id="line2d_20">
    <path clip-path="url(#p51490ce0c1)" d="M 21.253268 41.009716 
L 21.23367 41.315602 
L 21.214071 41.621487 
L 21.23397 41.816272 
L 21.253869 42.011058 
L 21.273767 42.205843 
L 21.293666 42.400629 
L 21.313564 42.595414 
L 21.333463 42.7902 
L 21.353361 42.984985 
L 21.37326 43.179771 
L 21.334434 43.39098 
L 21.295607 43.602189 
L 21.256781 43.813399 
L 21.217954 44.024608 
L 21.127498 44.252886 
L 21.037041 44.481165 
L 20.946585 44.709443 
L 20.856128 44.937721 
L 20.842793 45.163973 
L 20.829458 45.390225 
L 20.816123 45.616477 
L 20.802788 45.842729 
L 20.789453 46.068981 
L 20.776118 46.295233 
L 20.762783 46.521485 
L 20.749448 46.747737 
" style="fill:none;stroke:#008000;stroke-linecap:square;stroke-width:0.4;"/>
   </g>
   <g id="line2d_21">
    <path clip-path="url(#p51490ce0c1)" d="M 16.013543 48.421449 
L 16.046823 48.621238 
L 16.080103 48.821028 
L 16.100256 48.942596 
L 16.149251 49.189478 
L 16.198246 49.436359 
L 16.247241 49.683241 
L 16.296237 49.930123 
L 16.311721 50.114563 
L 16.327206 50.299003 
L 16.34269 50.483442 
L 16.358174 50.667882 
L 16.343106 50.872921 
L 16.328038 51.07796 
L 16.312969 51.282999 
L 16.297901 51.488038 
L 16.282832 51.693077 
L 16.267764 51.898116 
L 16.252696 52.103155 
L 16.237627 52.308194 
L 16.225425 52.581108 
L 16.213222 52.854023 
L 16.201019 53.126937 
L 16.188817 53.399852 
L 16.176614 53.672767 
L 16.164412 53.945681 
L 16.152209 54.218596 
L 16.140006 54.49151 
L 16.163626 54.667385 
L 16.187245 54.84326 
L 16.210865 55.019135 
L 16.234484 55.19501 
L 16.258104 55.370884 
L 16.281723 55.546759 
L 16.305343 55.722634 
L 16.328962 55.898509 
L 16.448446 56.200035 
L 16.56793 56.501561 
L 16.687413 56.803087 
L 16.806897 57.104613 
" style="fill:none;stroke:#000000;stroke-linecap:square;stroke-width:0.4;"/>
   </g>
   <g id="line2d_22">
    <path clip-path="url(#p51490ce0c1)" d="M 17.44587 68.604968 
L 17.682896 68.718677 
L 17.854288 68.727273 
L 18.052487 68.678891 
L 18.272966 68.605582 
L 18.493445 68.532272 
L 18.789358 68.427404 
L 19.085272 68.322536 
L 19.271777 68.366559 
L 19.458283 68.410581 
L 19.644789 68.454604 
L 19.831294 68.498626 
L 20.116022 68.557323 
L 20.400749 68.616019 
L 20.627653 68.568006 
L 20.854557 68.519993 
L 21.081461 68.471979 
L 21.308364 68.423966 
L 21.619438 68.402538 
L 21.930512 68.38111 
L 22.241586 68.359682 
L 22.55266 68.338254 
L 22.723866 68.321186 
L 22.895073 68.304117 
L 23.066279 68.287048 
L 23.237485 68.26998 
L 23.42889 68.214537 
L 23.620296 68.159095 
L 23.811701 68.103652 
L 24.003106 68.04821 
L 24.16969 67.986321 
L 24.336274 67.924431 
L 24.502858 67.862542 
L 24.669442 67.800653 
L 24.831219 67.664717 
L 24.992996 67.528782 
" style="fill:none;stroke:#008000;stroke-linecap:square;stroke-width:0.4;"/>
   </g>
   <g id="line2d_23">
    <path clip-path="url(#p51490ce0c1)" d="M 5.98596 49.5971 
L 5.763263 49.734017 
L 5.540565 49.870935 
L 5.317867 50.007853 
L 5.09517 50.144771 
L 4.942129 50.238096 
L 4.789088 50.331421 
L 4.636047 50.424746 
L 4.483006 50.518071 
L 4.329965 50.611396 
L 4.176924 50.704721 
L 4.023883 50.798046 
L 3.870842 50.891371 
L 3.72589 51.128368 
L 3.580938 51.365365 
L 3.435985 51.602361 
L 3.291033 51.839358 
L 3.274162 52.153164 
L 3.257291 52.466969 
L 3.24042 52.780775 
L 3.223549 53.094581 
L 3.254287 53.315921 
L 3.285024 53.537261 
L 3.315762 53.758601 
L 3.3465 53.979941 
L 3.377237 54.201281 
L 3.407975 54.422622 
L 3.438713 54.643962 
L 3.46945 54.865302 
L 3.556024 55.161793 
L 3.642598 55.458285 
L 3.729172 55.754776 
L 3.815745 56.051267 
L 3.906479 56.212499 
L 3.997213 56.37373 
L 4.087947 56.534962 
L 4.17868 56.696193 
L 4.38423 56.915446 
L 4.589779 57.134698 
L 4.795328 57.353951 
L 5.000877 57.573203 
L 5.241647 57.740636 
L 5.482418 57.908069 
L 5.723188 58.075501 
L 5.963958 58.242934 
L 6.030148 58.289596 
L 6.231769 58.43161 
L 6.433389 58.573624 
L 6.635009 58.715638 
L 6.83663 58.857652 
L 7.052116 59.018392 
L 7.267603 59.179132 
L 7.48309 59.339872 
L 7.698577 59.500612 
" style="fill:none;stroke:#4169e1;stroke-linecap:square;stroke-width:0.4;"/>
   </g>
   <g id="line2d_24">
    <path clip-path="url(#p51490ce0c1)" d="M 5.09517 50.144771 
L 5.065403 50.443779 
L 5.035636 50.742788 
L 5.087462 50.932416 
L 5.139289 51.122044 
L 5.191115 51.311672 
L 5.242942 51.5013 
L 5.294768 51.690928 
L 5.346594 51.880556 
L 5.398421 52.070184 
L 5.450247 52.259812 
L 5.502074 52.44944 
L 5.5539 52.639068 
L 5.605726 52.828696 
L 5.657553 53.018324 
L 5.709379 53.207952 
L 5.761206 53.39758 
L 5.813032 53.587208 
L 5.864858 53.776836 
L 5.950277 53.958391 
L 6.035695 54.139945 
L 6.121113 54.321499 
L 6.206531 54.503053 
L 6.29195 54.684607 
L 6.377368 54.866161 
L 6.462786 55.047716 
L 6.548204 55.22927 
L 6.753707 55.486466 
L 6.95921 55.743663 
L 7.164713 56.00086 
L 7.370216 56.258056 
" style="fill:none;stroke:#008000;stroke-linecap:square;stroke-width:0.4;"/>
   </g>
   <g id="line2d_25">
    <path clip-path="url(#p51490ce0c1)" d="M 9.653398 61.15787 
L 9.735222 61.32518 
L 9.817046 61.492489 
L 9.898871 61.659799 
L 9.980695 61.827109 
L 10.06252 61.994419 
L 10.144344 62.161729 
L 10.226169 62.329039 
L 10.307993 62.496348 
L 10.389818 62.663658 
L 10.471642 62.830968 
L 10.553467 62.998278 
L 10.635291 63.165588 
L 10.717116 63.332897 
L 10.79894 63.500207 
L 10.880765 63.667517 
L 10.962589 63.834827 
L 11.056813 63.994692 
L 11.151036 64.154557 
L 11.24526 64.314423 
L 11.339483 64.474288 
L 11.433707 64.634153 
L 11.52793 64.794019 
L 11.622154 64.953884 
L 11.716377 65.113749 
L 11.810601 65.273614 
L 11.904824 65.43348 
L 11.999048 65.593345 
L 12.093271 65.75321 
L 12.187495 65.913076 
L 12.281718 66.072941 
L 12.375942 66.232806 
L 12.470165 66.392672 
L 12.598663 66.641211 
L 12.72716 66.889751 
" style="fill:none;stroke:#008000;stroke-linecap:square;stroke-width:0.4;"/>
   </g>
   <g id="line2d_26">
    <path clip-path="url(#p51490ce0c1)" d="M 11.878154 61.153204 
L 12.011274 61.263413 
L 12.144393 61.373623 
L 12.277512 61.483832 
L 12.410632 61.594042 
L 12.574281 61.695686 
L 12.737929 61.797331 
L 12.901578 61.898976 
L 13.065227 62.00062 
L 13.228876 62.102265 
L 13.392525 62.203909 
L 13.556174 62.305554 
L 13.719823 62.407198 
L 13.918208 62.516241 
L 14.116593 62.625284 
L 14.314977 62.734327 
L 14.513362 62.84337 
L 14.573382 63.008623 
L 14.633401 63.173876 
L 14.69342 63.339129 
L 14.753439 63.504382 
L 14.813459 63.669635 
L 14.873478 63.834888 
L 14.933497 64.000141 
L 14.993516 64.165394 
L 15.05996 64.468609 
L 15.126404 64.771823 
L 15.192849 65.075038 
L 15.259293 65.378252 
L 15.325737 65.681467 
L 15.392181 65.984681 
L 15.458625 66.287896 
L 15.525069 66.59111 
L 15.554744 66.759587 
L 15.584418 66.928063 
" style="fill:none;stroke:#008000;stroke-linecap:square;stroke-width:0.4;"/>
   </g>
   <g id="line2d_27">
    <path clip-path="url(#p51490ce0c1)" d="M 46.449798 3.583402 
L 46.377507 3.734318 
L 46.305216 3.885235 
L 46.232924 4.036151 
L 46.160633 4.187068 
L 46.088342 4.337984 
L 46.016051 4.488901 
L 45.94376 4.639817 
L 45.871468 4.790734 
L 45.785565 4.986133 
L 45.699661 5.181533 
L 45.613758 5.376932 
L 45.527854 5.572332 
L 45.441951 5.767731 
L 45.356047 5.96313 
L 45.270143 6.15853 
L 45.18424 6.353929 
L 45.125099 6.521331 
L 45.065958 6.688733 
L 45.006817 6.856135 
L 44.947676 7.023537 
L 44.888535 7.190939 
L 44.829394 7.358341 
L 44.770253 7.525743 
L 44.711112 7.693145 
L 44.664104 7.97883 
L 44.617096 8.264515 
L 44.570088 8.550201 
L 44.523081 8.835886 
L 44.589686 9.08197 
L 44.656292 9.328053 
L 44.722898 9.574137 
L 44.789504 9.82022 
L 44.910259 9.950599 
L 45.031014 10.080978 
L 45.151769 10.211357 
L 45.272524 10.341736 
L 45.393279 10.472115 
L 45.514034 10.602493 
L 45.634789 10.732872 
L 45.755544 10.863251 
L 45.926634 10.984727 
L 46.097725 11.106203 
L 46.268816 11.227679 
L 46.439906 11.349156 
L 46.610997 11.470632 
L 46.782088 11.592108 
L 46.953178 11.713584 
L 47.124269 11.83506 
L 47.372204 12.053269 
L 47.620139 12.271478 
L 47.868073 12.489687 
L 48.116008 12.707895 
L 48.39371 12.817 
L 48.671412 12.926104 
L 48.949113 13.035209 
L 49.226815 13.144313 
L 49.509509 13.263303 
L 49.792202 13.382292 
L 50.074896 13.501282 
L 50.35759 13.620271 
L 50.422069 13.803729 
L 50.486549 13.987186 
L 50.551029 14.170644 
L 50.615508 14.354101 
L 50.59769 14.541949 
L 50.579871 14.729796 
L 50.562053 14.917644 
L 50.544234 15.105491 
L 50.526415 15.293339 
L 50.508597 15.481186 
L 50.490778 15.669034 
L 50.47296 15.856881 
" style="fill:none;stroke:#4169e1;stroke-linecap:square;stroke-width:0.4;"/>
   </g>
   <g id="line2d_28">
    <path clip-path="url(#p51490ce0c1)" d="M 46.985418 3.940493 
L 47.044929 4.13887 
L 47.10444 4.337247 
L 47.163951 4.535625 
L 47.223462 4.734002 
L 47.282972 4.932379 
L 47.342483 5.130756 
L 47.401994 5.329134 
L 47.461505 5.527511 
L 47.513574 5.73826 
L 47.565643 5.949009 
L 47.617712 6.159758 
L 47.669781 6.370507 
L 47.72185 6.581256 
L 47.773919 6.792005 
L 47.825988 7.002754 
L 47.878057 7.213503 
L 47.999552 7.382102 
L 48.121046 7.550701 
L 48.242541 7.7193 
L 48.364035 7.887899 
L 48.48553 8.056499 
L 48.607024 8.225098 
L 48.728519 8.393697 
L 48.850013 8.562296 
L 48.964078 8.685031 
L 49.078142 8.807766 
L 49.192206 8.9305 
L 49.306271 9.053235 
L 49.420335 9.17597 
L 49.534399 9.298705 
L 49.648463 9.42144 
L 49.762528 9.544174 
L 49.876592 9.666909 
L 49.990656 9.789644 
L 50.104721 9.912379 
L 50.218785 10.035114 
L 50.332849 10.157848 
L 50.446914 10.280583 
L 50.560978 10.403318 
L 50.675042 10.526053 
L 50.962659 10.687223 
L 51.250275 10.848393 
L 51.537891 11.009563 
L 51.825508 11.170733 
L 52.113124 11.331903 
L 52.40074 11.493073 
L 52.688357 11.654243 
L 52.975973 11.815413 
" style="fill:none;stroke:#000000;stroke-linecap:square;stroke-width:0.4;"/>
   </g>
   <g id="line2d_29">
    <path clip-path="url(#p51490ce0c1)" d="M 62.001463 16.793816 
L 62.155198 16.920265 
L 62.308932 17.046715 
L 62.462666 17.173164 
L 62.616401 17.299613 
L 62.770135 17.426063 
L 62.923869 17.552512 
L 63.077604 17.678962 
L 63.231338 17.805411 
L 63.367716 17.949205 
L 63.504094 18.093 
L 63.640472 18.236794 
L 63.77685 18.380588 
L 63.913228 18.524383 
L 64.049606 18.668177 
L 64.185984 18.811971 
L 64.322362 18.955766 
L 64.476096 19.042552 
L 64.62983 19.129338 
L 64.783565 19.216124 
L 64.937299 19.302911 
L 65.091033 19.389697 
L 65.244768 19.476483 
L 65.398502 19.563269 
L 65.552236 19.650055 
L 65.750991 19.778255 
L 65.949745 19.906454 
" style="fill:none;stroke:#008000;stroke-linecap:square;stroke-width:0.4;"/>
   </g>
   <g id="line2d_30">
    <path clip-path="url(#p51490ce0c1)" d="M 65.949745 19.906454 
L 65.996753 20.082666 
L 66.043761 20.258879 
L 66.090769 20.435091 
L 66.137776 20.611304 
L 66.184784 20.787517 
L 66.231792 20.963729 
L 66.2788 21.139942 
L 66.325808 21.316154 
L 66.320862 21.499612 
L 66.315916 21.683069 
L 66.31097 21.866527 
L 66.306024 22.049984 
L 66.167174 22.345002 
L 66.028323 22.64002 
L 65.889472 22.935038 
L 65.750621 23.230056 
L 65.61177 23.525073 
L 65.472919 23.820091 
L 65.334069 24.115109 
L 65.195218 24.410127 
L 65.15824 24.600338 
L 65.121262 24.79055 
L 65.084285 24.980761 
L 65.047307 25.170972 
L 65.01033 25.361184 
L 64.973352 25.551395 
L 64.936375 25.741606 
L 64.899397 25.931817 
L 64.844277 26.131024 
L 64.789158 26.33023 
L 64.734038 26.529436 
L 64.678918 26.728642 
L 64.623798 26.927848 
L 64.568679 27.127054 
L 64.513559 27.32626 
L 64.458439 27.525466 
L 64.401748 27.758319 
L 64.345057 27.991171 
L 64.288365 28.224023 
L 64.231674 28.456876 
L 64.174983 28.689728 
L 64.118292 28.92258 
L 64.0616 29.155432 
L 64.004909 29.388285 
L 63.913181 29.546968 
L 63.821454 29.705651 
L 63.729726 29.864335 
L 63.637999 30.023018 
L 63.546271 30.181702 
L 63.454544 30.340385 
L 63.362816 30.499068 
L 63.271089 30.657752 
L 63.226438 30.885815 
L 63.181788 31.113878 
L 63.137137 31.341941 
L 63.092487 31.570005 
L 63.047837 31.798068 
L 63.003186 32.026131 
L 62.958536 32.254194 
L 62.913885 32.482257 
" style="fill:none;stroke:#4169e1;stroke-linecap:square;stroke-width:0.4;"/>
   </g>
   <g id="line2d_31">
    <path clip-path="url(#p51490ce0c1)" d="M 67.587853 22.459387 
L 67.462684 22.730643 
L 67.337514 23.0019 
L 67.193672 23.220109 
L 67.049829 23.438318 
L 66.905986 23.656527 
L 66.762143 23.874736 
L 66.603463 24.152378 
L 66.444783 24.43002 
L 66.286103 24.707662 
L 66.127423 24.985304 
L 65.97392 25.103618 
L 65.820416 25.221933 
L 65.666913 25.340247 
L 65.51341 25.458561 
L 65.359907 25.576875 
L 65.206403 25.695189 
L 65.0529 25.813503 
L 64.899397 25.931817 
" style="fill:none;stroke:#4169e1;stroke-linecap:square;stroke-width:0.4;"/>
   </g>
   <g id="line2d_32">
    <path clip-path="url(#p51490ce0c1)" d="M 58.688826 33.612719 
L 58.585381 33.888765 
L 58.481936 34.164811 
L 58.382281 34.425998 
L 58.282627 34.687186 
L 58.182972 34.948373 
L 58.083318 35.209561 
L 58.083919 35.435414 
L 58.084519 35.661267 
L 58.08512 35.88712 
L 58.085721 36.112972 
L 58.086322 36.338825 
L 58.086923 36.564678 
L 58.087524 36.790531 
L 58.088125 37.016384 
L 58.139108 37.241408 
L 58.19009 37.466432 
L 58.241073 37.691456 
L 58.292056 37.91648 
L 58.492105 38.009068 
L 58.692154 38.101657 
L 58.898951 38.043881 
L 59.105748 37.986106 
L 59.312545 37.92833 
L 59.519342 37.870554 
L 59.773286 37.821682 
L 60.02723 37.772809 
" style="fill:none;stroke:#4169e1;stroke-linecap:square;stroke-width:0.4;"/>
   </g>
   <g id="line2d_33">
    <path clip-path="url(#p51490ce0c1)" d="M 61.287426 16.516297 
L 61.200979 16.744252 
L 61.114533 16.972208 
L 61.028086 17.200164 
L 60.941639 17.42812 
L 60.855193 17.656075 
L 60.768746 17.884031 
L 60.682299 18.111987 
L 60.595853 18.339943 
L 60.509406 18.567899 
L 60.422959 18.795854 
L 60.336512 19.02381 
L 60.250066 19.251766 
L 60.163619 19.479722 
L 60.077172 19.707678 
L 59.990726 19.935633 
L 59.904279 20.163589 
L 59.883618 20.367799 
L 59.862957 20.572009 
L 59.842295 20.776219 
L 59.821634 20.980429 
L 59.800973 21.184639 
L 59.780312 21.388849 
L 59.759651 21.59306 
L 59.738989 21.79727 
L 59.820271 21.969461 
L 59.901552 22.141652 
L 59.982833 22.313843 
L 60.064115 22.486033 
L 60.145396 22.658224 
L 60.226677 22.830415 
L 60.307959 23.002606 
L 60.38924 23.174797 
" style="fill:none;stroke:#4169e1;stroke-linecap:square;stroke-width:0.4;"/>
   </g>
   <g id="line2d_34">
    <path clip-path="url(#p51490ce0c1)" d="M 47.93944 3.679428 
L 48.151692 3.641853 
L 48.384743 3.597155 
L 48.617794 3.552457 
L 48.858888 3.633257 
L 49.000466 3.858833 
L 49.142044 4.08441 
L 49.283622 4.309987 
L 49.4252 4.535563 
L 49.490916 4.702935 
L 49.556632 4.870306 
L 49.622348 5.037677 
L 49.688064 5.205048 
L 49.75378 5.372419 
L 49.819496 5.539791 
L 49.885213 5.707162 
L 49.950929 5.874533 
L 50.016645 6.041904 
L 50.082361 6.209275 
L 50.148077 6.376647 
L 50.213793 6.544018 
L 50.279509 6.711389 
L 50.345225 6.87876 
L 50.410941 7.046131 
L 50.476658 7.213503 
L 50.580796 7.52344 
L 50.684934 7.833378 
L 50.789072 8.143315 
L 50.89321 8.453253 
L 50.997348 8.763191 
L 51.101486 9.073128 
L 51.205624 9.383066 
L 51.309763 9.693003 
L 51.453559 9.794648 
L 51.597356 9.896292 
L 51.741152 9.997937 
L 51.884949 10.099582 
L 52.028746 10.201226 
L 52.172542 10.302871 
L 52.316339 10.404515 
L 52.460135 10.50616 
L 52.628753 10.607804 
L 52.797371 10.709449 
L 52.965989 10.811093 
L 53.134607 10.912738 
L 53.303225 11.014383 
L 53.471842 11.116027 
L 53.64046 11.217672 
L 53.809078 11.319316 
L 53.853705 11.487915 
L 53.898333 11.656514 
L 53.94296 11.825114 
L 53.987587 11.993713 
L 54.032215 12.162312 
L 54.076842 12.330911 
L 54.121469 12.49951 
L 54.166097 12.66811 
" style="fill:none;stroke:#000000;stroke-linecap:square;stroke-width:0.4;"/>
   </g>
   <g id="line2d_35">
    <path clip-path="url(#p51490ce0c1)" d="M 52.975973 11.815413 
L 53.008213 11.993928 
L 53.040453 12.172443 
L 53.072692 12.350958 
L 53.104932 12.529473 
L 53.137172 12.707988 
L 53.169412 12.886503 
L 53.201652 13.065018 
L 53.233892 13.243532 
L 53.253721 13.449308 
L 53.27355 13.655084 
L 53.293379 13.86086 
L 53.313208 14.066635 
L 53.333038 14.272411 
L 53.352867 14.478187 
L 53.372696 14.683963 
L 53.392525 14.889738 
L 53.451366 15.057109 
L 53.510207 15.224481 
L 53.569047 15.391852 
L 53.627888 15.559223 
L 53.727727 15.843066 
L 53.827567 16.12691 
L 53.927406 16.410753 
L 54.027246 16.694597 
L 54.128911 16.952469 
L 54.230576 17.210341 
L 54.332242 17.468213 
L 54.433907 17.726085 
L 54.535572 17.983957 
L 54.637237 18.241829 
L 54.738903 18.499701 
L 54.840568 18.757573 
L 54.983348 18.984009 
L 55.126127 19.210445 
L 55.268907 19.436881 
L 55.411687 19.663317 
L 55.520124 19.872685 
L 55.62856 20.082052 
L 55.459665 20.358344 
L 55.29077 20.634635 
L 55.22287 20.943836 
L 55.15497 21.253037 
L 55.08707 21.562238 
L 55.01917 21.871439 
L 54.865435 22.129311 
L 54.711701 22.387183 
L 54.557967 22.645055 
L 54.404232 22.902927 
" style="fill:none;stroke:#4169e1;stroke-linecap:square;stroke-width:0.4;"/>
   </g>
   <g id="line2d_36">
    <path clip-path="url(#p51490ce0c1)" d="M 55.62856 20.082052 
L 55.851073 20.107778 
L 56.073586 20.133504 
L 56.296098 20.15923 
L 56.518611 20.184956 
L 56.705764 20.253599 
L 56.892917 20.322242 
L 57.080069 20.390885 
L 57.267222 20.459528 
" style="fill:none;stroke:#008000;stroke-linecap:square;stroke-width:0.4;"/>
   </g>
   <g id="line2d_37">
    <path clip-path="url(#p51490ce0c1)" d="M 64.333085 34.108325 
L 64.176624 34.286318 
L 64.020162 34.464311 
L 63.863701 34.642304 
L 63.707239 34.820297 
L 63.550778 34.99829 
L 63.394317 35.176283 
L 63.237855 35.354276 
L 63.081394 35.532269 
" style="fill:none;stroke:#008000;stroke-linecap:square;stroke-width:0.4;"/>
   </g>
   <g id="line2d_38">
    <path clip-path="url(#p51490ce0c1)" d="M 54.875142 25.979708 
L 54.821224 26.167801 
L 54.767306 26.355894 
L 54.713388 26.543987 
L 54.65947 26.73208 
L 54.605552 26.920173 
L 54.551634 27.108266 
L 54.497716 27.296359 
L 54.443798 27.484452 
L 54.35912 27.774436 
L 54.274441 28.064419 
L 54.189762 28.354402 
L 54.105084 28.644385 
L 54.186088 28.833369 
L 54.267092 29.022352 
L 54.348096 29.211335 
L 54.4291 29.400319 
L 54.510104 29.589302 
L 54.591108 29.778285 
L 54.672112 29.967269 
L 54.753116 30.156252 
L 54.996244 30.380969 
L 55.239371 30.605686 
L 55.482499 30.830403 
L 55.725627 31.05512 
L 55.880909 31.139297 
L 56.036192 31.223474 
L 56.191475 31.307651 
L 56.346758 31.391827 
L 56.50204 31.476004 
L 56.657323 31.560181 
L 56.812606 31.644358 
L 56.967889 31.728534 
L 57.14025 31.822781 
L 57.312612 31.917027 
L 57.484974 32.011273 
L 57.657336 32.105519 
" style="fill:none;stroke:#008000;stroke-linecap:square;stroke-width:0.4;"/>
   </g>
   <g id="line2d_39">
    <path clip-path="url(#p51490ce0c1)" d="M 65.949745 19.906454 
L 66.157837 20.04067 
L 66.365928 20.174886 
L 66.57402 20.309103 
L 66.782111 20.443319 
L 66.935845 20.730907 
L 67.08958 21.018496 
L 67.243314 21.306085 
L 67.397048 21.593674 
L 67.444749 21.810102 
L 67.49245 22.02653 
L 67.540152 22.242958 
L 67.587853 22.459387 
L 67.641193 22.700927 
L 67.694533 22.942467 
L 67.67965 23.215197 
L 67.664766 23.487928 
L 67.649883 23.760658 
L 67.634999 24.033388 
L 67.586651 24.204459 
L 67.538303 24.375529 
L 67.489954 24.5466 
L 67.441606 24.71767 
L 67.393258 24.888741 
L 67.34491 25.059811 
L 67.296562 25.230881 
L 67.248214 25.401952 
L 67.199865 25.573022 
L 67.151517 25.744093 
L 67.103169 25.915163 
L 67.054821 26.086234 
L 67.006473 26.257304 
L 66.958124 26.428375 
L 66.909776 26.599445 
L 66.861428 26.770515 
L 66.799444 27.001065 
L 66.737461 27.231615 
L 66.675477 27.462165 
L 66.613493 27.692715 
L 66.551509 27.923265 
L 66.489526 28.153815 
L 66.427542 28.384364 
L 66.365558 28.614914 
L 66.306048 28.785969 
L 66.246537 28.957024 
L 66.187026 29.128079 
L 66.127515 29.299135 
L 66.068004 29.47019 
L 66.008494 29.641245 
L 65.948983 29.8123 
L 65.889472 29.983355 
L 65.701025 30.221334 
L 65.512578 30.459313 
L 65.324131 30.697292 
L 65.135684 30.935271 
L 64.967066 31.036916 
L 64.798448 31.13856 
L 64.62983 31.240205 
L 64.461212 31.341849 
L 64.292595 31.443494 
L 64.123977 31.545138 
L 63.955359 31.646783 
L 63.786741 31.748427 
L 63.568527 31.931885 
L 63.350313 32.115342 
L 63.132099 32.2988 
L 62.913885 32.482257 
L 62.852271 32.668969 
L 62.790657 32.855681 
L 62.729043 33.042392 
L 62.66743 33.229104 
L 62.605816 33.415816 
L 62.544202 33.602527 
L 62.482588 33.789239 
L 62.420974 33.97595 
L 62.424556 34.183015 
L 62.428138 34.390081 
L 62.431721 34.597146 
L 62.435303 34.804211 
L 62.438885 35.011276 
L 62.442467 35.218341 
L 62.446049 35.425406 
L 62.449632 35.632471 
" style="fill:none;stroke:#4169e1;stroke-linecap:square;stroke-width:0.4;"/>
   </g>
   <g id="line2d_40">
    <path clip-path="url(#p51490ce0c1)" d="M 64.899397 25.931817 
L 64.983891 26.142536 
L 65.068385 26.353254 
L 65.152878 26.563972 
L 65.237372 26.77469 
L 65.17696 27.071673 
L 65.116548 27.368656 
L 65.056136 27.665638 
L 64.995724 27.962621 
L 64.871872 28.140829 
L 64.74802 28.319037 
L 64.624168 28.497245 
L 64.500316 28.675453 
L 64.376464 28.853661 
L 64.252613 29.031869 
L 64.128761 29.210077 
L 64.004909 29.388285 
" style="fill:none;stroke:#008000;stroke-linecap:square;stroke-width:0.4;"/>
   </g>
   <g id="line2d_41">
    <path clip-path="url(#p51490ce0c1)" d="M 22.056421 48.597539 
L 22.264512 48.535833 
L 22.472604 48.474128 
L 22.680695 48.412423 
L 22.888787 48.350718 
L 23.104551 48.295828 
L 23.320315 48.240938 
L 23.538853 48.268445 
L 23.551795 48.464673 
L 23.476176 48.615835 
L 23.400556 48.766997 
L 23.30312 48.992328 
L 23.205684 49.217659 
L 23.380219 49.49788 
L 23.586369 49.497143 
L 23.792519 49.496407 
L 24.002367 49.426413 
L 24.212214 49.356419 
L 24.422062 49.286425 
L 24.63191 49.216431 
L 24.775545 49.118194 
L 24.91918 49.019957 
L 25.062815 48.92172 
L 25.206449 48.823484 
L 25.350084 48.725247 
L 25.493719 48.62701 
L 25.637354 48.528773 
L 25.780989 48.430536 
L 25.924624 48.332299 
L 26.068258 48.234062 
L 26.211893 48.135825 
L 26.355528 48.037588 
L 26.499163 47.939351 
L 26.642798 47.841114 
L 26.786433 47.742877 
L 26.930067 47.64464 
L 27.248491 47.571085 
L 27.566914 47.49753 
L 27.885337 47.423975 
L 28.203761 47.35042 
L 28.386984 47.308179 
L 28.702172 47.309683 
L 29.01736 47.311187 
L 29.332548 47.312691 
L 29.647735 47.314196 
L 29.962923 47.3157 
L 30.278111 47.317204 
L 30.593299 47.318708 
L 30.908486 47.320213 
" style="fill:none;stroke:#4169e1;stroke-linecap:square;stroke-width:0.4;"/>
   </g>
   <g id="line2d_42">
    <path clip-path="url(#p51490ce0c1)" d="M 30.908486 47.320213 
L 31.120276 47.510608 
L 31.332065 47.701004 
L 31.543854 47.891399 
L 31.755643 48.081795 
L 31.957818 48.296995 
L 32.159993 48.512195 
L 32.362168 48.727396 
L 32.564343 48.942596 
L 32.668481 49.093819 
L 32.772619 49.245043 
L 32.876757 49.396266 
L 32.980895 49.54749 
L 33.085034 49.698713 
L 33.189172 49.849937 
L 33.29331 50.00116 
L 33.397448 50.152384 
L 33.541268 50.392819 
L 33.685087 50.633254 
L 33.828907 50.873689 
L 33.972727 51.114124 
L 34.116547 51.354559 
L 34.260366 51.594994 
L 34.404186 51.835429 
L 34.548006 52.075863 
" style="fill:none;stroke:#008000;stroke-linecap:square;stroke-width:0.4;"/>
   </g>
   <g id="line2d_43">
    <path clip-path="url(#p51490ce0c1)" d="M 52.975973 11.815413 
L 53.124738 11.922 
L 53.273504 12.028587 
L 53.422269 12.135174 
L 53.571035 12.241761 
L 53.7198 12.348348 
L 53.868566 12.454935 
L 54.017331 12.561522 
L 54.166097 12.66811 
L 54.3248 12.943326 
L 54.483503 13.218543 
L 54.642206 13.49376 
L 54.800909 13.768977 
L 54.959613 14.044194 
L 55.118316 14.319411 
L 55.277019 14.594628 
L 55.435722 14.869845 
L 55.534891 15.182239 
L 55.634061 15.494632 
L 55.73323 15.807026 
L 55.832399 16.119419 
L 55.931569 16.431813 
L 56.030738 16.744206 
L 56.129907 17.0566 
L 56.229076 17.368993 
L 56.276188 17.531391 
L 56.3233 17.693789 
L 56.370412 17.856187 
L 56.417523 18.018585 
L 56.464635 18.180983 
L 56.511747 18.343381 
L 56.558859 18.505779 
L 56.60597 18.668177 
L 56.653082 18.830575 
L 56.700194 18.992973 
L 56.747306 19.155371 
L 56.794418 19.317769 
L 56.841529 19.480167 
L 56.888641 19.642565 
L 56.935753 19.804963 
L 56.982865 19.967361 
L 57.125043 20.213444 
L 57.267222 20.459528 
" style="fill:none;stroke:#4169e1;stroke-linecap:square;stroke-width:0.4;"/>
   </g>
   <g id="line2d_44">
    <path clip-path="url(#p51490ce0c1)" d="M 50.47296 15.856881 
L 50.371918 16.161845 
L 50.270877 16.46681 
L 50.169836 16.771774 
L 50.068795 17.076738 
L 50.017119 17.263573 
L 49.965442 17.450407 
L 49.913766 17.637242 
L 49.86209 17.824076 
L 49.943626 18.091281 
L 50.025161 18.358485 
L 50.16281 18.58222 
L 50.300459 18.805954 
L 50.438108 19.029689 
L 50.575757 19.253424 
L 50.749321 19.491403 
L 50.922885 19.729382 
L 51.096448 19.967361 
L 51.270012 20.20534 
L 51.453513 20.473097 
L 51.637014 20.740854 
L 51.820516 21.008611 
L 52.004017 21.276368 
L 52.261889 21.400331 
L 52.519762 21.524294 
L 52.777634 21.648256 
L 53.035507 21.772219 
L 53.183371 21.89434 
L 53.331235 22.016461 
L 53.479099 22.138582 
L 53.626963 22.260702 
L 53.821281 22.421258 
L 54.015598 22.581814 
L 54.209915 22.742371 
L 54.404232 22.902927 
L 54.453805 23.077174 
L 54.503378 23.251422 
L 54.552952 23.42567 
L 54.602525 23.599918 
L 54.652098 23.774166 
L 54.701671 23.948413 
L 54.751244 24.122661 
L 54.800817 24.296909 
L 54.796241 24.546185 
L 54.791665 24.795461 
L 54.787089 25.044738 
L 54.782513 25.294014 
L 54.80567 25.465437 
L 54.828827 25.636861 
L 54.851985 25.808284 
L 54.875142 25.979708 
" style="fill:none;stroke:#008000;stroke-linecap:square;stroke-width:0.4;"/>
   </g>
   <g id="line2d_45">
    <path clip-path="url(#p51490ce0c1)" d="M 57.267222 20.459528 
L 57.360614 20.621158 
L 57.454005 20.782789 
L 57.547397 20.944419 
L 57.640788 21.10605 
L 57.73418 21.26768 
L 57.827571 21.429311 
L 57.920963 21.590941 
L 58.014354 21.752572 
L 58.24246 21.965746 
L 58.470565 22.17892 
L 58.698671 22.392094 
L 58.926777 22.605269 
L 59.109584 22.67646 
L 59.292392 22.747651 
L 59.4752 22.818842 
L 59.658008 22.890033 
L 59.840816 22.961224 
L 60.023624 23.032415 
L 60.206432 23.103606 
L 60.38924 23.174797 
L 60.60029 23.256948 
L 60.811339 23.339099 
L 60.965074 23.438287 
L 61.118808 23.537476 
L 61.272542 23.636664 
L 61.426277 23.735853 
L 61.580011 23.835042 
L 61.733745 23.93423 
L 61.88748 24.033419 
L 62.041214 24.132608 
L 62.194948 24.278858 
L 62.348683 24.425108 
L 62.502417 24.571358 
L 62.656151 24.717609 
L 62.809886 24.863859 
L 62.96362 25.010109 
L 63.117354 25.156359 
L 63.271089 25.30261 
L 63.266097 25.585287 
L 63.261105 25.867963 
L 63.256113 26.15064 
L 63.251121 26.433317 
L 63.206494 26.61923 
L 63.161866 26.805144 
L 63.117239 26.991057 
L 63.072612 27.176971 
L 63.027984 27.362884 
L 62.983357 27.548798 
L 62.93873 27.734711 
L 62.894102 27.920625 
L 62.792437 28.121458 
L 62.690772 28.322291 
L 62.589106 28.523124 
L 62.487441 28.723957 
L 62.385776 28.92479 
L 62.284111 29.125624 
L 62.182445 29.326457 
L 62.08078 29.52729 
L 61.979739 29.707923 
L 61.878698 29.888556 
L 61.777656 30.06919 
L 61.676615 30.249823 
L 61.575574 30.430456 
L 61.474533 30.611089 
L 61.373491 30.791722 
L 61.27245 30.972356 
L 61.21666 31.280451 
L 61.16087 31.588547 
L 61.10508 31.896642 
L 61.04929 32.204738 
L 61.036903 32.395625 
L 61.024515 32.586511 
L 61.012128 32.777398 
L 60.99974 32.968285 
L 60.987353 33.159171 
L 60.974965 33.350058 
L 60.962578 33.540945 
L 60.95019 33.731832 
L 61.058026 33.910991 
L 61.165862 34.090151 
L 61.273698 34.26931 
L 61.381534 34.44847 
L 61.599979 34.622043 
L 61.818424 34.795615 
L 62.036869 34.969187 
L 62.255314 35.14276 
L 62.352473 35.387615 
L 62.449632 35.632471 
L 62.471448 35.940689 
L 62.493265 36.248908 
L 62.503249 36.481852 
L 62.513233 36.714797 
" style="fill:none;stroke:#4169e1;stroke-linecap:square;stroke-width:0.4;"/>
   </g>
   <g id="line2d_46">
    <path clip-path="url(#p51490ce0c1)" d="M 22.056421 48.597539 
L 22.05374 48.85934 
L 22.051059 49.121142 
L 21.922192 49.398784 
L 21.793325 49.676426 
L 21.604878 49.81276 
L 21.416431 49.949095 
L 21.227984 50.085429 
L 21.039537 50.221764 
L 20.85109 50.358098 
L 20.662643 50.494433 
L 20.474196 50.630767 
L 20.285749 50.767102 
L 20.12804 51.018036 
L 19.97033 51.26897 
L 19.812621 51.519904 
L 19.654911 51.770838 
L 19.624659 51.967619 
L 19.594407 52.1644 
L 19.564154 52.36118 
L 19.533902 52.557961 
L 19.50365 52.754742 
L 19.473398 52.951523 
L 19.443145 53.148304 
L 19.412893 53.345085 
L 19.343468 53.597922 
L 19.274042 53.85076 
L 19.204617 54.103597 
L 19.135191 54.356434 
L 18.986403 54.648873 
L 18.837614 54.941313 
L 18.688826 55.233752 
L 18.540037 55.526191 
L 18.334811 55.732918 
L 18.129586 55.939646 
L 17.92436 56.146373 
L 17.719134 56.3531 
L 17.491075 56.540979 
L 17.263016 56.728857 
L 17.034957 56.916735 
L 16.806897 57.104613 
L 16.663054 57.219121 
L 16.519212 57.333628 
L 16.375369 57.448135 
L 16.231526 57.562643 
L 16.040814 57.731979 
L 15.850102 57.901315 
L 15.65939 58.070651 
L 15.468678 58.239987 
L 15.387027 58.387219 
L 15.305376 58.534452 
L 15.223725 58.681685 
L 15.142074 58.828917 
L 15.060423 58.97615 
L 14.978771 59.123383 
L 14.89712 59.270615 
L 14.815469 59.417848 
L 14.777706 59.727417 
L 14.739942 60.036986 
L 14.702179 60.346555 
L 14.664416 60.656125 
L 14.688266 60.965817 
L 14.712117 61.275509 
L 14.735967 61.585201 
L 14.759818 61.894893 
L 14.72603 62.070982 
L 14.692241 62.247072 
L 14.658453 62.423162 
L 14.624665 62.599252 
L 14.513362 62.84337 
" style="fill:none;stroke:#4169e1;stroke-linecap:square;stroke-width:0.4;"/>
   </g>
   <g id="line2d_47">
    <path clip-path="url(#p51490ce0c1)" d="M 50.47296 15.856881 
L 50.733837 15.929085 
L 50.994714 16.001289 
L 51.211957 15.849022 
L 51.4292 15.696755 
L 51.590376 15.602079 
L 51.751552 15.507403 
L 51.912728 15.412727 
L 52.073905 15.318051 
L 52.272012 15.31756 
L 52.470119 15.317069 
L 52.668227 15.316578 
L 52.866334 15.316087 
L 53.056723 15.376871 
L 53.247111 15.437655 
L 53.437499 15.498439 
L 53.627888 15.559223 
" style="fill:none;stroke:#008000;stroke-linecap:square;stroke-width:0.4;"/>
   </g>
   <g id="line2d_48">
    <path clip-path="url(#p51490ce0c1)" d="M 17.059639 46.581716 
L 16.927074 46.840079 
L 16.79451 47.098443 
L 16.696889 47.263818 
L 16.599268 47.429194 
L 16.501647 47.59457 
L 16.404026 47.759946 
L 16.306406 47.925321 
L 16.208785 48.090697 
L 16.111164 48.256073 
L 16.013543 48.421449 
L 15.867944 48.649973 
L 15.722345 48.878496 
L 15.494724 49.089092 
L 15.267104 49.299687 
L 15.039484 49.510283 
L 14.811864 49.720878 
L 14.584244 49.931474 
L 14.356623 50.142069 
L 14.129003 50.352665 
L 13.901383 50.56326 
L 13.67998 50.771768 
L 13.458576 50.980276 
L 13.28774 51.116825 
L 13.116904 51.253375 
L 12.946067 51.389924 
L 12.775231 51.526473 
L 12.594826 51.693538 
L 12.414422 51.860602 
L 12.234017 52.027666 
L 12.053613 52.19473 
L 11.872608 52.306291 
L 11.691602 52.417851 
L 11.510597 52.529411 
L 11.329592 52.640972 
L 11.148586 52.752532 
L 10.967581 52.864092 
L 10.786576 52.975653 
L 10.60557 53.087213 
L 10.511347 53.233463 
L 10.417123 53.379713 
L 10.3229 53.525964 
L 10.228676 53.672214 
L 10.134453 53.818464 
L 10.040229 53.964715 
L 9.946006 54.110965 
L 9.851782 54.257215 
L 9.826984 54.485248 
L 9.802186 54.71328 
L 9.777388 54.941313 
L 9.75259 55.169345 
L 9.727792 55.397378 
L 9.702994 55.62541 
L 9.678196 55.853443 
L 9.653398 56.081475 
L 9.693079 56.250044 
L 9.732761 56.418612 
L 9.772442 56.587181 
L 9.812124 56.755749 
L 9.851805 56.924318 
L 9.891487 57.092886 
L 9.931169 57.261455 
L 9.97085 57.430023 
L 9.830751 57.563932 
L 9.690652 57.697842 
L 9.550554 57.831751 
L 9.410455 57.96566 
L 9.14343 58.127567 
L 8.876406 58.289474 
L 8.609381 58.45138 
L 8.342357 58.613287 
L 8.181412 58.835118 
L 8.020467 59.05695 
L 7.859522 59.278781 
L 7.698577 59.500612 
L 7.867472 59.707585 
L 8.036367 59.914558 
L 8.205263 60.121531 
L 8.374158 60.328504 
L 8.69101 60.39813 
L 9.007861 60.467755 
L 9.324713 60.537381 
L 9.641565 60.607006 
L 9.83646 60.646117 
L 10.031355 60.685227 
L 10.22625 60.724338 
L 10.421145 60.763448 
L 10.61604 60.802559 
L 10.810935 60.84167 
L 11.00583 60.88078 
L 11.200725 60.919891 
L 11.370082 60.978219 
L 11.53944 61.036547 
L 11.708797 61.094875 
L 11.878154 61.153204 
" style="fill:none;stroke:#4169e1;stroke-linecap:square;stroke-width:0.4;"/>
   </g>
   <g id="line2d_49">
    <path clip-path="url(#p51490ce0c1)" d="M 13.299573 50.929438 
L 13.315381 51.151577 
L 13.331189 51.373715 
L 13.346997 51.595853 
L 13.362805 51.817991 
L 13.39999 52.02125 
L 13.437176 52.224508 
L 13.474361 52.427767 
L 13.511547 52.631025 
L 13.548732 52.834283 
L 13.585918 53.037542 
L 13.623104 53.2408 
L 13.660289 53.444059 
L 13.759482 53.679551 
L 13.858674 53.915043 
L 13.957866 54.150536 
L 14.057059 54.386028 
L 14.156251 54.621521 
L 14.255444 54.857013 
L 14.354636 55.092505 
L 14.453828 55.327998 
L 14.523254 55.531256 
L 14.592679 55.734515 
L 14.662105 55.937773 
L 14.73153 56.141031 
L 14.800955 56.34429 
L 14.870381 56.547548 
L 14.939806 56.750807 
L 15.009232 56.954065 
L 15.066663 57.114805 
L 15.124093 57.275545 
L 15.181524 57.436286 
L 15.238955 57.597026 
L 15.296386 57.757766 
L 15.353817 57.918506 
L 15.411247 58.079247 
L 15.468678 58.239987 
" style="fill:none;stroke:#4169e1;stroke-linecap:square;stroke-width:0.4;"/>
   </g>
   <g id="line2d_50">
    <path clip-path="url(#p51490ce0c1)" d="M 21.253268 41.009716 
L 21.061909 41.116303 
L 20.934047 41.268325 
L 20.806186 41.420347 
L 20.678324 41.572368 
L 20.550462 41.72439 
L 20.422601 41.876412 
L 20.294739 42.028433 
L 20.166878 42.180455 
L 20.039016 42.332477 
L 19.911154 42.484499 
L 19.783293 42.63652 
L 19.655431 42.788542 
L 19.52757 42.940564 
L 19.399708 43.092585 
L 19.271847 43.244607 
L 19.143985 43.396629 
L 19.016123 43.54865 
L 18.884714 43.749422 
L 18.753305 43.950194 
L 18.621896 44.150966 
L 18.490487 44.351737 
L 18.359078 44.552509 
L 18.227669 44.753281 
L 18.09626 44.954053 
L 17.964851 45.154825 
L 17.868154 45.301105 
L 17.771458 45.447386 
L 17.674761 45.593667 
L 17.578065 45.739948 
L 17.481369 45.886229 
L 17.384672 46.03251 
L 17.287976 46.178791 
L 17.191279 46.325072 
L 17.059639 46.581716 
" style="fill:none;stroke:#008000;stroke-linecap:square;stroke-width:0.4;"/>
   </g>
   <g id="line2d_51">
    <path clip-path="url(#p51490ce0c1)" d="M 9.97085 57.430023 
L 10.111365 57.659161 
L 10.241619 57.775694 
L 10.371872 57.892228 
L 10.502126 58.008762 
L 10.632379 58.125295 
L 10.726603 58.269059 
L 10.820826 58.412822 
L 10.91505 58.556586 
L 11.009273 58.70035 
L 11.103497 58.844113 
L 11.19772 58.987877 
L 11.291944 59.131641 
L 11.386167 59.275404 
L 11.449029 59.447442 
L 11.511891 59.619479 
L 11.574753 59.791517 
L 11.637615 59.963554 
L 11.700477 60.135592 
L 11.763339 60.307629 
L 11.826201 60.479666 
L 11.889063 60.651704 
L 11.883608 60.902454 
L 11.878154 61.153204 
" style="fill:none;stroke:#008000;stroke-linecap:square;stroke-width:0.4;"/>
   </g>
   <g id="line2d_52">
    <path clip-path="url(#p51490ce0c1)" d="M 57.657336 32.105519 
L 57.786272 32.293919 
L 57.915208 32.482319 
L 58.044145 32.670719 
L 58.173081 32.859119 
L 58.302017 33.047519 
L 58.430953 33.235919 
L 58.559889 33.424319 
L 58.688826 33.612719 
L 58.857444 33.741655 
L 59.026061 33.870591 
L 59.100456 34.034217 
L 59.17485 34.197843 
L 59.249244 34.361469 
L 59.323639 34.525095 
L 59.398033 34.688721 
L 59.472427 34.852347 
L 59.546821 35.015973 
L 59.621216 35.179599 
L 59.655928 35.358083 
L 59.690641 35.536567 
L 59.725354 35.715051 
L 59.760067 35.893536 
L 59.794779 36.07202 
L 59.829492 36.250504 
L 59.864205 36.428988 
L 59.898917 36.607473 
L 60.012947 36.776072 
L 60.126977 36.944671 
L 60.241006 37.11327 
L 60.355036 37.281869 
L 60.583188 37.490009 
L 60.811339 37.698149 
" style="fill:none;stroke:#4169e1;stroke-linecap:square;stroke-width:0.4;"/>
   </g>
   <g id="line2d_53">
    <path clip-path="url(#p51490ce0c1)" d="M 54.875142 25.979708 
L 54.984688 26.203719 
L 55.094234 26.42773 
L 55.20378 26.651741 
L 55.313326 26.875752 
L 55.422872 27.099763 
L 55.532419 27.323774 
L 55.641965 27.547785 
L 55.751511 27.771796 
L 55.867436 28.037956 
L 55.98336 28.304117 
L 56.099285 28.570278 
L 56.21521 28.836439 
L 56.305805 29.004454 
L 56.3964 29.17247 
L 56.486995 29.340486 
L 56.57759 29.508502 
L 56.668185 29.676518 
L 56.75878 29.844534 
L 56.849375 30.01255 
L 56.939971 30.180566 
L 57.029641 30.421185 
L 57.119312 30.661804 
L 57.208983 30.902423 
L 57.298653 31.143042 
L 57.388324 31.383661 
L 57.477995 31.62428 
L 57.567665 31.8649 
L 57.657336 32.105519 
" style="fill:none;stroke:#008000;stroke-linecap:square;stroke-width:0.4;"/>
   </g>
   <g id="line2d_54">
    <path clip-path="url(#p51490ce0c1)" d="M 12.071547 43.182963 
L 12.32244 43.200155 
L 12.603285 43.245467 
L 12.88413 43.290778 
L 13.066267 43.357672 
L 13.248405 43.424565 
L 13.430543 43.491458 
L 13.612681 43.558351 
L 13.794818 43.625244 
L 13.976956 43.692138 
L 14.159094 43.759031 
L 14.341232 43.825924 
L 14.499311 43.919955 
L 14.65739 44.013986 
L 14.815469 44.108018 
L 14.973548 44.202049 
L 15.131628 44.29608 
L 15.289707 44.390111 
L 15.447786 44.484142 
L 15.605865 44.578174 
L 15.764083 44.675367 
L 15.922301 44.77256 
L 16.080519 44.869753 
L 16.238737 44.966946 
L 16.40361 45.100303 
L 16.568484 45.23366 
L 16.733358 45.367016 
L 16.898232 45.500373 
L 16.972649 45.733317 
L 17.047067 45.966262 
L 17.053353 46.273989 
L 17.059639 46.581716 
" style="fill:none;stroke:#008000;stroke-linecap:square;stroke-width:0.4;"/>
   </g>
  </g>
 </g>
 <defs>
  <clipPath id="p51490ce0c1">
   <rect height="72" width="70.918082" x="0" y="0"/>
  </clipPath>
 </defs>
</svg>
