<?xml version="1.0" encoding="utf-8" standalone="no"?>
<!DOCTYPE svg PUBLIC "-//W3C//DTD SVG 1.1//EN"
  "http://www.w3.org/Graphics/SVG/1.1/DTD/svg11.dtd">
<svg height="72pt" version="1.1" viewBox="0 0 77.722164 72" width="77.722164pt" xmlns="http://www.w3.org/2000/svg" xmlns:xlink="http://www.w3.org/1999/xlink">
 <metadata>
  <rdf:RDF xmlns:cc="http://creativecommons.org/ns#" xmlns:dc="http://purl.org/dc/elements/1.1/" xmlns:rdf="http://www.w3.org/1999/02/22-rdf-syntax-ns#">
   <cc:Work>
    <dc:type rdf:resource="http://purl.org/dc/dcmitype/StillImage"/>
    <dc:date>2022-04-19T00:47:44.082715</dc:date>
    <dc:format>image/svg+xml</dc:format>
    <dc:creator>
     <cc:Agent>
      <dc:title>Matplotlib v3.4.3, https://matplotlib.org/</dc:title>
     </cc:Agent>
    </dc:creator>
   </cc:Work>
  </rdf:RDF>
 </metadata>
 <defs>
  <style type="text/css">*{stroke-linecap:butt;stroke-linejoin:round;}</style>
 </defs>
 <g id="figure_1">
  <g id="patch_1">
   <path d="M 0 72 
L 77.722164 72 
L 77.722164 0 
L 0 0 
z
" style="fill:#ffffff;"/>
  </g>
  <g id="axes_1">
   <g id="line2d_1">
    <path clip-path="url(#p0fcbad6ffb)" d="M 74.189338 51.522425 
L 71.317729 48.786418 
L 69.875074 47.41106 
L 68.009762 45.633943 
L 66.393797 44.094939 
L 64.124321 41.932611 
L 61.854846 39.770283 
L 59.270604 37.307785 
L 56.686361 34.845288 
L 54.934762 33.176654 
L 53.272558 31.592602 
L 51.610354 30.00855 
L 49.366567 27.871045 
L 47.12278 25.73354 
L 44.504971 23.238864 
L 41.887163 20.744189 
L 40.190023 19.1275 
L 38.492883 17.51081 
L 36.991316 16.080291 
L 36.085033 15.216095 
" style="fill:none;stroke:#808080;stroke-linecap:square;stroke-width:0.4;"/>
   </g>
   <g id="line2d_2">
    <path clip-path="url(#p0fcbad6ffb)" d="M 72.899443 52.216539 
L 70.138807 50.059728 
L 67.956672 48.35524 
L 65.774537 46.650752 
L 63.388609 44.787215 
L 61.00268 42.923678 
L 58.842465 41.236198 
L 56.682251 39.548718 
L 54.384005 37.753214 
L 51.80764 35.739822 
L 50.547201 34.755191 
L 48.613386 33.244687 
L 46.413098 31.525489 
L 43.696646 29.403613 
L 40.980195 27.281737 
L 38.115436 25.043562 
L 35.250677 22.805387 
L 32.594508 20.730858 
L 29.938338 18.656329 
L 28.969033 17.898779 
L 26.447127 15.928597 
L 23.925222 13.958414 
L 21.576969 12.123837 
L 19.228717 10.28926 
L 17.314767 8.794386 
" style="fill:none;stroke:#808080;stroke-linecap:square;stroke-width:0.4;"/>
   </g>
   <g id="line2d_3">
    <path clip-path="url(#p0fcbad6ffb)" d="M 66.939758 55.53266 
L 65.60979 53.934818 
L 64.279821 52.336975 
" style="fill:none;stroke:#808080;stroke-linecap:square;stroke-width:0.4;"/>
   </g>
   <g id="line2d_4">
    <path clip-path="url(#p0fcbad6ffb)" d="M 65.775222 60.163462 
L 64.56205 58.234651 
L 62.94266 55.659531 
L 61.32327 53.084412 
L 60.03543 51.036544 
L 58.74759 48.988677 
L 57.775545 47.443237 
" style="fill:none;stroke:#808080;stroke-linecap:square;stroke-width:0.4;"/>
   </g>
   <g id="line2d_5">
    <path clip-path="url(#p0fcbad6ffb)" d="M 57.835827 60.975254 
L 55.880091 58.914975 
L 54.261729 57.210487 
L 52.643366 55.505999 
L 50.547201 53.147848 
L 48.451036 50.789697 
L 46.610727 48.488546 
L 44.770417 46.187396 
L 42.295436 43.385195 
L 40.355113 40.91948 
L 38.41479 38.453764 
L 36.309378 35.786709 
L 34.203965 33.119654 
L 32.445516 30.927447 
L 30.687066 28.73524 
L 28.618987 25.977169 
L 26.550908 23.219098 
L 26.096739 22.672081 
L 24.306094 20.510672 
L 22.515448 18.349264 
L 20.455589 15.863322 
L 18.957106 14.054487 
L 17.458622 12.245652 
L 16.596865 11.205859 
L 16.067344 10.567826 
" style="fill:none;stroke:#808080;stroke-linecap:square;stroke-width:0.4;"/>
   </g>
   <g id="line2d_6">
    <path clip-path="url(#p0fcbad6ffb)" d="M 57.565243 65.065474 
L 55.009429 62.785468 
L 53.188643 61.160504 
L 51.367856 59.535541 
L 49.666264 58.017223 
L 47.964671 56.498904 
L 45.930158 54.683174 
L 44.769047 53.647059 
L 43.536009 52.546588 
L 42.739329 51.835925 
L 41.580273 50.801649 
L 40.560277 49.891485 
L 38.608651 48.150223 
L 36.657026 46.408961 
L 34.393373 44.389133 
L 32.129721 42.369306 
L 30.418538 40.841794 
L 28.707355 39.314282 
L 25.734363 36.661937 
L 23.707728 34.853562 
L 21.681092 33.045186 
L 19.992515 31.53836 
L 18.303938 30.031534 
L 16.260177 28.207989 
L 14.216416 26.384444 
L 12.72718 25.055054 
L 10.013811 22.633468 
L 7.941965 20.784641 
L 5.870118 18.935814 
L 5.29607 18.423732 
" style="fill:none;stroke:#808080;stroke-linecap:square;stroke-width:0.4;"/>
   </g>
   <g id="line2d_7">
    <path clip-path="url(#p0fcbad6ffb)" d="M 66.162944 68.695095 
L 64.166793 68.727273 
" style="fill:none;stroke:#808080;stroke-linecap:square;stroke-width:0.4;"/>
   </g>
   <g id="line2d_8">
    <path clip-path="url(#p0fcbad6ffb)" d="M 4.250728 18.6407 
L 3.891777 19.274137 
L 3.532826 19.907574 
L 3.659555 20.582842 
L 3.786283 21.258109 
L 4.261174 21.690667 
L 4.736065 22.123224 
L 5.210956 22.555782 
L 5.685847 22.988339 
L 6.530136 23.199792 
L 7.374425 23.411244 
L 7.71214 24.128802 
L 8.049855 24.84636 
L 8.155349 25.458422 
L 8.260842 26.070484 
L 8.366335 26.682546 
L 8.471829 27.294608 
L 8.893802 28.370715 
L 9.315775 29.446823 
L 9.864477 30.502245 
L 10.413179 31.557667 
L 11.510925 32.127208 
L 12.608672 32.69675 
L 13.21012 33.171598 
L 13.811569 33.646446 
L 14.413017 34.121294 
L 15.014466 34.596142 
L 15.462984 35.07099 
L 15.911501 35.545838 
L 16.360019 36.020686 
L 16.808537 36.495533 
L 17.257054 36.970381 
L 17.705572 37.445229 
L 18.154089 37.920077 
L 18.602607 38.394925 
L 19.103871 38.93838 
L 19.605136 39.481835 
L 20.1064 40.02529 
L 20.607664 40.568745 
L 21.108928 41.1122 
L 21.610193 41.655655 
L 22.111457 42.19911 
L 22.612721 42.742565 
L 23.187882 43.317737 
L 23.763043 43.89291 
L 24.338204 44.468083 
L 24.913365 45.043256 
L 25.488526 45.618429 
L 26.063687 46.193601 
L 26.638848 46.768774 
L 27.214009 47.343947 
L 27.683591 47.945321 
L 28.153173 48.546696 
L 28.622755 49.14807 
L 29.092337 49.749445 
L 29.561919 50.350819 
L 30.031501 50.952193 
L 30.501083 51.553568 
L 30.970665 52.154942 
L 31.62486 52.640363 
L 32.279055 53.125783 
L 32.933251 53.611204 
L 33.587446 54.096624 
L 34.685192 54.181205 
L 35.782939 54.265786 
" style="fill:none;stroke:#000000;stroke-linecap:square;stroke-width:0.4;"/>
   </g>
   <g id="line2d_9">
    <path clip-path="url(#p0fcbad6ffb)" d="M 13.866371 27.342415 
L 14.394179 28.334401 
L 14.921988 29.326387 
L 15.385748 29.830195 
L 15.849507 30.334002 
L 16.313266 30.83781 
L 16.777026 31.341618 
L 17.576788 32.140999 
L 18.37655 32.94038 
L 18.984335 33.596341 
L 19.59212 34.252302 
L 20.199905 34.908263 
L 20.80769 35.564225 
L 21.455549 36.259948 
L 22.103408 36.955672 
L 22.751267 37.651395 
L 23.399126 38.347119 
L 23.967008 38.986761 
L 24.534891 39.626404 
L 25.102773 40.266047 
L 25.670656 40.905689 
L 26.174489 41.513614 
L 26.678322 42.121539 
L 27.182155 42.729464 
L 27.685988 43.337389 
L 28.397725 44.128955 
L 29.109462 44.920522 
L 29.821199 45.712088 
L 30.532936 46.503654 
L 31.09277 47.151571 
L 31.652604 47.799488 
L 32.212437 48.447405 
L 32.772271 49.095322 
L 33.380056 49.862985 
L 33.987841 50.630648 
L 34.595626 51.398311 
L 35.203411 52.165975 
" style="fill:none;stroke:#4169e1;stroke-linecap:square;stroke-width:0.4;"/>
   </g>
   <g id="line2d_10">
    <path clip-path="url(#p0fcbad6ffb)" d="M 36.411103 55.202611 
L 37.035158 55.506458 
L 37.659212 55.810306 
L 38.618927 55.986363 
L 39.578641 56.16242 
L 40.554112 56.226315 
L 41.529582 56.29021 
L 42.553346 56.482356 
L 43.57711 56.674502 
L 44.256994 57.3061 
L 44.936877 57.937698 
L 45.616761 58.569297 
L 46.296644 59.200895 
L 46.680428 59.744695 
L 47.064211 60.288494 
L 47.447994 60.832294 
L 47.831777 61.376094 
L 48.215731 61.888176 
L 48.599686 62.400257 
L 49.62345 62.784089 
L 50.647214 63.167921 
L 51.263048 63.515782 
L 51.878882 63.863644 
L 52.494716 64.211506 
L 53.11055 64.559367 
L 53.726384 64.907229 
L 54.342218 65.255091 
L 54.958053 65.602953 
L 55.573887 65.950814 
" style="fill:none;stroke:#008000;stroke-linecap:square;stroke-width:0.4;"/>
   </g>
   <g id="line2d_11">
    <path clip-path="url(#p0fcbad6ffb)" d="M 37.274915 53.539494 
L 38.298679 53.443421 
L 39.322444 53.347348 
L 40.45016 53.683144 
L 41.577876 54.018939 
L 42.705592 54.354734 
L 43.833308 54.690529 
L 44.46113 55.234329 
L 45.088952 55.778128 
L 45.716774 56.321928 
L 46.344596 56.865728 
L 46.972418 57.409528 
L 47.60024 57.953327 
L 48.228062 58.497127 
L 48.855884 59.040927 
L 49.755573 59.756646 
L 50.655263 60.472366 
L 51.554953 61.188085 
L 52.454643 61.903805 
L 53.354332 62.619524 
L 54.254022 63.335244 
L 55.153712 64.050963 
L 56.053401 64.766683 
" style="fill:none;stroke:#008000;stroke-linecap:square;stroke-width:0.4;"/>
   </g>
   <g id="line2d_12">
    <path clip-path="url(#p0fcbad6ffb)" d="M 7.722415 19.172088 
L 8.411375 19.714049 
L 9.100335 20.25601 
L 9.789296 20.797971 
L 10.478256 21.339932 
L 11.286923 21.835925 
L 12.095591 22.331919 
L 12.747902 22.671851 
L 13.400214 23.011783 
L 14.052525 23.351715 
L 14.704836 23.691648 
L 15.090503 24.702481 
L 15.47617 25.713314 
L 15.78854 26.466267 
L 16.10091 27.219221 
L 16.817442 27.954247 
L 17.533974 28.689273 
L 18.053049 29.134816 
L 18.572124 29.580359 
L 19.091198 30.025903 
L 19.610273 30.471446 
L 20.129348 30.91699 
L 20.648423 31.362533 
L 21.167498 31.808077 
L 21.686573 32.25362 
L 22.444463 32.910501 
L 23.202353 33.567381 
L 23.960244 34.224262 
L 24.718134 34.881142 
L 25.476024 35.538023 
L 26.233915 36.194904 
L 26.991805 36.851784 
L 27.749695 37.508665 
L 28.328453 38.041432 
L 28.90721 38.5742 
L 29.485967 39.106967 
L 30.064724 39.639735 
L 30.643482 40.172502 
L 31.222239 40.705269 
L 31.800996 41.238037 
L 32.379754 41.770804 
L 32.8984 42.499969 
L 33.417047 43.229134 
L 33.935694 43.958299 
L 34.45434 44.687465 
L 34.972987 45.41663 
L 35.491634 46.145795 
L 36.01028 46.87496 
L 36.528927 47.604125 
" style="fill:none;stroke:#000000;stroke-linecap:square;stroke-width:0.4;"/>
   </g>
   <g id="line2d_13">
    <path clip-path="url(#p0fcbad6ffb)" d="M 46.758349 54.833949 
L 47.902677 54.864288 
L 49.047005 54.894626 
L 50.016995 54.724545 
L 50.986985 54.554464 
" style="fill:none;stroke:#008000;stroke-linecap:square;stroke-width:0.4;"/>
   </g>
   <g id="line2d_14">
    <path clip-path="url(#p0fcbad6ffb)" d="M 51.811065 55.088611 
L 52.503707 55.877994 
L 53.196349 56.667377 
L 53.888991 57.45676 
L 54.581633 58.246143 
L 55.274275 59.035525 
L 55.966918 59.824908 
L 56.65956 60.614291 
L 57.352202 61.403674 
" style="fill:none;stroke:#008000;stroke-linecap:square;stroke-width:0.4;"/>
   </g>
   <g id="line2d_15">
    <path clip-path="url(#p0fcbad6ffb)" d="M 21.037858 23.174969 
L 21.445702 23.750716 
L 21.853547 24.326464 
L 22.261391 24.902211 
L 22.669236 25.477958 
L 23.07708 26.053706 
L 23.484925 26.629453 
L 23.892769 27.2052 
L 24.300614 27.780948 
L 24.756495 28.244763 
L 25.212377 28.708579 
L 25.668258 29.172395 
L 26.12414 29.63621 
L 26.580022 30.100026 
L 27.035903 30.563842 
L 27.491785 31.027657 
L 27.947666 31.491473 
L 28.699477 32.099398 
L 29.451288 32.707323 
L 30.203099 33.315248 
L 30.95491 33.923172 
L 31.65072 34.123018 
L 32.34653 34.322863 
L 33.04234 34.522708 
L 33.738151 34.722553 
L 34.433961 34.922399 
L 35.129771 35.122244 
L 35.825582 35.322089 
L 36.521392 35.521934 
L 37.624961 35.937943 
L 38.72853 36.353952 
L 39.832099 36.769962 
L 40.935668 37.185971 
L 41.591491 37.817684 
L 42.247313 38.449397 
L 42.903135 39.08111 
L 43.558957 39.712823 
L 44.214779 40.344537 
L 44.870602 40.97625 
L 45.526424 41.607963 
L 46.182246 42.239676 
L 46.686079 42.72751 
L 47.189912 43.215344 
L 47.693745 43.703178 
L 48.197578 44.191012 
L 48.701411 44.678846 
L 49.205244 45.166679 
L 49.709078 45.654513 
L 50.212911 46.142347 
L 50.716744 46.630181 
L 51.220577 47.118015 
L 51.72441 47.605849 
L 52.228243 48.093682 
L 52.732076 48.581516 
L 53.235909 49.06935 
L 53.739742 49.557184 
L 54.243575 50.045018 
" style="fill:none;stroke:#008000;stroke-linecap:square;stroke-width:0.4;"/>
   </g>
   <g id="line2d_16">
    <path clip-path="url(#p0fcbad6ffb)" d="M 34.907482 38.032698 
L 35.466802 38.639474 
L 36.026121 39.24625 
L 36.585441 39.853025 
L 37.144761 40.459801 
L 37.704081 41.066577 
L 38.263401 41.673352 
L 38.822721 42.280128 
L 39.38204 42.886904 
L 40.052162 43.477821 
L 40.722284 44.068737 
L 41.392406 44.659654 
L 42.062528 45.250571 
L 42.73265 45.841488 
L 43.402772 46.432404 
L 44.072894 47.023321 
L 44.743016 47.614238 
L 45.254813 48.178838 
L 45.766609 48.743438 
L 46.278406 49.308038 
L 46.790202 49.872638 
L 47.301999 50.437239 
L 47.813795 51.001839 
L 48.325592 51.566439 
L 48.837388 52.131039 
L 49.427191 52.736895 
L 50.016995 53.342752 
" style="fill:none;stroke:#4169e1;stroke-linecap:square;stroke-width:0.4;"/>
   </g>
   <g id="line2d_17">
    <path clip-path="url(#p0fcbad6ffb)" d="M 20.085678 12.170265 
L 20.684387 13.214425 
L 21.283095 14.258584 
L 21.881804 15.302744 
L 22.480512 16.346904 
L 22.995819 17.18237 
L 23.511127 18.017836 
L 24.026434 18.853301 
L 24.541741 19.688767 
L 25.265808 20.691326 
L 25.989876 21.693885 
L 26.602627 22.362257 
L 27.215379 23.03063 
L 27.82813 23.699002 
L 28.440882 24.367375 
L 28.983932 24.980127 
L 29.526983 25.592878 
L 30.070033 26.20563 
L 30.613084 26.818381 
L 31.211792 27.131652 
L 31.810501 27.444923 
L 32.40921 27.758194 
L 33.007918 28.071465 
L 33.606627 28.384736 
L 34.205335 28.698007 
L 34.804044 29.011277 
L 35.402752 29.324548 
L 36.050268 29.617019 
L 36.697785 29.909489 
L 37.345301 30.20196 
L 37.992817 30.49443 
L 38.640334 30.786901 
L 39.28785 31.079371 
L 39.935366 31.371842 
L 40.582883 31.664312 
L 41.571539 32.290854 
L 42.560196 32.917396 
L 43.548853 33.543938 
L 44.53751 34.170479 
L 45.160794 34.736918 
L 45.784077 35.303357 
L 46.407361 35.869796 
L 47.030645 36.436235 
L 47.653928 37.002674 
L 48.277212 37.569113 
L 48.900496 38.135552 
L 49.523779 38.70199 
" style="fill:none;stroke:#4169e1;stroke-linecap:square;stroke-width:0.4;"/>
   </g>
   <g id="line2d_18">
    <path clip-path="url(#p0fcbad6ffb)" d="M 59.784712 44.655747 
L 60.355592 45.038659 
L 60.926471 45.421571 
L 61.497351 45.804483 
L 62.06823 46.187396 
L 62.63911 46.570308 
L 63.209989 46.95322 
L 63.780869 47.336132 
L 64.351748 47.719044 
L 64.654613 48.30387 
L 64.957478 48.888697 
L 65.260343 49.473523 
L 65.563208 50.058349 
L 65.866073 50.643175 
L 66.168938 51.228001 
L 66.471803 51.812827 
L 66.774668 52.397653 
L 67.077533 52.982479 
L 67.380398 53.567305 
L 67.683263 54.152131 
L 67.986128 54.736957 
L 68.288993 55.321783 
L 68.591858 55.906609 
L 68.894723 56.491435 
L 69.197588 57.076261 
" style="fill:none;stroke:#008000;stroke-linecap:square;stroke-width:0.4;"/>
   </g>
   <g id="line2d_19">
    <path clip-path="url(#p0fcbad6ffb)" d="M 20.741928 12.081087 
L 21.610364 12.757906 
L 22.4788 13.434726 
L 23.347235 14.111545 
L 24.215671 14.788364 
L 25.084107 15.465183 
L 25.952542 16.142002 
L 26.820978 16.818822 
L 27.689413 17.495641 
L 28.557849 18.17246 
L 29.426285 18.849279 
L 30.29472 19.526098 
L 31.163156 20.202917 
L 32.031592 20.879737 
L 32.900027 21.556556 
L 33.768463 22.233375 
L 34.636898 22.910194 
L 35.399092 23.502634 
L 36.161285 24.095073 
L 36.923478 24.687512 
L 37.685671 25.279952 
L 38.447864 25.872391 
L 39.210057 26.464831 
L 39.97225 27.05727 
L 40.734443 27.64971 
L 41.496637 28.242149 
L 42.25883 28.834589 
L 43.021023 29.427028 
L 43.783216 30.019467 
L 44.545409 30.611907 
L 45.307602 31.204346 
L 46.069795 31.796786 
L 46.831989 32.389225 
L 47.594182 32.981665 
L 48.356375 33.574104 
L 49.118568 34.166543 
L 49.880761 34.758983 
L 50.642954 35.351422 
L 51.405147 35.943862 
L 52.16734 36.536301 
L 52.929534 37.128741 
L 53.691727 37.72118 
L 54.45392 38.31362 
L 55.216113 38.906059 
L 55.978306 39.498498 
L 56.740499 40.090938 
L 57.502692 40.683377 
L 58.264885 41.275817 
L 59.027079 41.868256 
" style="fill:none;stroke:#4169e1;stroke-linecap:square;stroke-width:0.4;"/>
   </g>
   <g id="line2d_20">
    <path clip-path="url(#p0fcbad6ffb)" d="M 19.528756 7.748157 
L 20.656643 7.720347 
L 21.784531 7.692536 
L 22.912418 7.664726 
L 24.040305 7.636915 
L 24.844178 7.567963 
L 25.64805 7.499012 
L 26.431714 7.707246 
L 27.215379 7.91548 
L 27.507883 8.486401 
L 27.800387 9.057322 
L 28.092891 9.628243 
L 28.385395 10.199163 
L 28.651868 10.980157 
L 28.918341 11.761151 
L 29.322504 12.900234 
L 29.726666 14.039318 
L 30.076027 14.921441 
L 30.425388 15.803564 
L 31.086776 16.170847 
L 31.748164 16.53813 
L 32.630129 16.648453 
L 33.512094 16.758776 
" style="fill:none;stroke:#4169e1;stroke-linecap:square;stroke-width:0.4;"/>
   </g>
   <g id="line2d_21">
    <path clip-path="url(#p0fcbad6ffb)" d="M 18.776603 6.065734 
L 19.548279 5.367482 
L 20.319955 4.669231 
L 20.852559 3.970979 
L 21.385163 3.272727 
L 22.175335 3.456599 
L 22.965507 3.64047 
L 23.884121 4.265173 
L 24.802734 4.889876 
L 25.501113 5.201998 
L 26.199492 5.51412 
L 26.971169 5.38541 
L 27.742845 5.2567 
L 28.532675 5.330248 
L 29.322504 5.403797 
L 29.763486 5.90002 
L 30.204469 6.396243 
L 30.645451 6.892466 
L 31.086434 7.388689 
L 31.362155 7.967424 
L 31.637876 8.546159 
L 31.913597 9.124895 
L 32.189318 9.70363 
L 32.501687 10.502781 
L 32.814057 11.301932 
L 33.126427 12.101083 
L 33.438796 12.900234 
L 33.684548 13.553897 
L 33.930299 14.20756 
L 34.17605 14.861223 
L 34.421802 15.514886 
" style="fill:none;stroke:#008000;stroke-linecap:square;stroke-width:0.4;"/>
   </g>
   <g id="line2d_22">
    <path clip-path="url(#p0fcbad6ffb)" d="M 36.785125 14.166189 
L 37.464666 13.265679 
L 38.144207 12.365169 
L 38.971028 11.850788 
L 39.797848 11.336408 
L 40.239002 10.546221 
L 40.680156 9.756033 
L 41.341544 9.112943 
L 42.002932 8.469853 
L 42.296806 7.900311 
L 42.59068 7.330769 
L 42.976689 6.541042 
L 43.362699 5.751314 
L 43.701099 5.369781 
L 44.244321 4.758408 
L 45.034493 4.391125 
L 45.824665 4.023842 
L 46.541197 4.519835 
L 47.257729 5.015828 
L 47.478306 5.953113 
L 47.698883 6.890397 
L 47.900964 7.602324 
L 48.103045 8.314252 
L 48.305127 9.026179 
L 48.507208 9.738106 
L 48.709289 10.450033 
L 48.91137 11.16196 
L 49.113452 11.873887 
L 49.315533 12.585814 
L 49.664722 13.513675 
L 50.013912 14.441537 
L 50.363102 15.369398 
L 50.712291 16.297259 
L 50.868476 16.949543 
L 51.024661 17.601826 
L 51.180846 18.25411 
L 51.33703 18.906394 
L 51.54836 19.843449 
L 51.759689 20.780504 
L 51.971018 21.717558 
L 52.182347 22.654613 
L 52.228243 23.3023 
L 52.274139 23.949987 
L 52.320036 24.597674 
L 52.365932 25.245361 
L 52.411829 25.893048 
L 52.457725 26.540735 
L 52.503622 27.188422 
L 52.549518 27.836109 
" style="fill:none;stroke:#008000;stroke-linecap:square;stroke-width:0.4;"/>
   </g>
   <g id="line2d_23">
    <path clip-path="url(#p0fcbad6ffb)" d="M 40.223931 12.280588 
L 40.732217 12.886444 
L 41.240503 13.4923 
L 41.748789 14.098157 
L 42.257074 14.704013 
L 42.918462 15.254018 
L 43.57985 15.804024 
L 44.241238 16.354029 
L 44.902626 16.904034 
L 45.327339 17.572407 
L 45.752053 18.24078 
L 46.176766 18.909152 
L 46.601479 19.577525 
L 46.74756 20.315539 
L 46.89364 21.053553 
L 47.039721 21.791566 
L 47.185802 22.52958 
L 47.464606 23.114291 
L 47.743409 23.699002 
L 48.439391 24.381165 
L 49.135372 25.063328 
L 49.650508 25.940395 
L 50.165644 26.817462 
L 50.750652 27.290931 
L 51.33566 27.764399 
" style="fill:none;stroke:#008000;stroke-linecap:square;stroke-width:0.4;"/>
   </g>
   <g id="line2d_24">
    <path clip-path="url(#p0fcbad6ffb)" d="M 53.146171 29.184806 
L 54.120785 29.783537 
L 55.095399 30.382269 
L 56.070013 30.981 
L 57.044627 31.579731 
L 58.102985 31.886107 
L 59.161343 32.192483 
L 60.2197 32.498858 
L 61.278058 32.805234 
L 62.224929 33.083799 
L 63.171799 33.362365 
L 64.11867 33.64093 
L 65.06554 33.919495 
L 65.928667 34.69911 
L 66.791794 35.478725 
L 66.972811 36.676187 
L 67.153828 37.87365 
L 67.334844 39.071112 
L 67.515861 40.268575 
" style="fill:none;stroke:#008000;stroke-linecap:square;stroke-width:0.4;"/>
   </g>
   <g id="line2d_25">
    <path clip-path="url(#p0fcbad6ffb)" d="M 35.378091 21.777546 
L 36.185731 22.028071 
L 36.993371 22.278596 
L 37.801011 22.529121 
L 38.608651 22.779645 
L 39.652966 23.01638 
L 40.697281 23.253114 
L 41.741596 23.489849 
L 42.785911 23.726583 
L 43.537893 24.227863 
L 44.289875 24.729142 
L 45.041857 25.230422 
L 45.793839 25.731701 
L 46.336889 26.553146 
L 46.87994 27.374592 
L 47.422991 28.196038 
L 47.966041 29.017483 
L 48.509092 29.783308 
L 49.052142 30.549132 
L 49.595193 31.314956 
L 50.138243 32.080781 
L 51.057199 32.805004 
L 51.976155 33.529228 
L 52.895111 34.253451 
L 53.814067 34.977675 
L 54.335368 35.391386 
L 54.856669 35.805096 
L 55.377971 36.218807 
L 55.899272 36.632518 
L 56.611351 37.197463 
L 57.323431 37.762407 
L 58.506976 38.054763 
L 59.690522 38.347119 
L 60.874067 38.639474 
L 62.057612 38.93183 
L 63.1855 39.419089 
L 64.313387 39.906348 
L 65.441275 40.393607 
L 66.569162 40.880867 
L 67.147063 41.30561 
L 67.724964 41.730353 
L 68.302865 42.155096 
L 68.880766 42.579838 
L 69.458667 43.004581 
L 70.036568 43.429324 
L 70.614469 43.854067 
L 71.19237 44.27881 
L 71.651848 45.29516 
L 72.111326 46.311509 
L 72.570804 47.327858 
L 73.030282 48.344207 
" style="fill:none;stroke:#008000;stroke-linecap:square;stroke-width:0.4;"/>
   </g>
  </g>
 </g>
 <defs>
  <clipPath id="p0fcbad6ffb">
   <rect height="72" width="77.722164" x="0" y="0"/>
  </clipPath>
 </defs>
</svg>
