<?xml version="1.0" encoding="utf-8" standalone="no"?>
<!DOCTYPE svg PUBLIC "-//W3C//DTD SVG 1.1//EN"
  "http://www.w3.org/Graphics/SVG/1.1/DTD/svg11.dtd">
<svg height="72pt" version="1.1" viewBox="0 0 58.914268 72" width="58.914268pt" xmlns="http://www.w3.org/2000/svg" xmlns:xlink="http://www.w3.org/1999/xlink">
 <metadata>
  <rdf:RDF xmlns:cc="http://creativecommons.org/ns#" xmlns:dc="http://purl.org/dc/elements/1.1/" xmlns:rdf="http://www.w3.org/1999/02/22-rdf-syntax-ns#">
   <cc:Work>
    <dc:type rdf:resource="http://purl.org/dc/dcmitype/StillImage"/>
    <dc:date>2022-04-19T00:47:45.780443</dc:date>
    <dc:format>image/svg+xml</dc:format>
    <dc:creator>
     <cc:Agent>
      <dc:title>Matplotlib v3.4.3, https://matplotlib.org/</dc:title>
     </cc:Agent>
    </dc:creator>
   </cc:Work>
  </rdf:RDF>
 </metadata>
 <defs>
  <style type="text/css">*{stroke-linecap:butt;stroke-linejoin:round;}</style>
 </defs>
 <g id="figure_1">
  <g id="patch_1">
   <path d="M 0 72 
L 58.914268 72 
L 58.914268 0 
L 0 0 
z
" style="fill:#ffffff;"/>
  </g>
  <g id="axes_1">
   <g id="patch_2">
    <path clip-path="url(#pa36c862482)" d="M 48.371679 59.06668 
L 48.371679 59.06668 
L 48.796334 58.059502 
L 49.220988 57.052324 
L 49.645643 56.045146 
L 50.070298 55.037968 
L 50.494953 54.03079 
L 50.919607 53.023612 
L 51.344262 52.016434 
L 51.768917 51.009257 
L 51.897187 49.699698 
L 51.306571 48.132905 
L 51.178301 46.541427 
L 51.383629 45.656046 
L 51.588956 44.770665 
L 51.858897 43.846309 
L 52.128838 42.921953 
L 52.000568 42.356816 
L 51.730627 41.329826 
L 51.460686 40.302835 
L 51.281683 39.250512 
L 51.692338 38.094904 
L 52.102993 36.939297 
L 52.641918 35.886973 
L 53.180843 34.834649 
L 53.521141 33.955114 
L 53.861439 33.075579 
L 54.201737 32.196044 
L 54.542035 31.316509 
L 54.837343 30.071909 
L 55.132651 28.827308 
L 55.453326 27.376141 
L 55.774001 25.924973 
L 56.005174 24.834324 
L 56.236347 23.743675 
L 55.569152 22.305499 
L 54.77273 20.790672 
L 54.028956 20.48277 
L 53.155955 20.867323 
L 52.975994 22.074247 
L 52.102993 23.281172 
L 51.17878 23.7047 
L 50.254566 24.128228 
L 49.214527 24.372471 
L 48.174488 24.616714 
L 47.291436 24.847316 
L 46.408384 25.077917 
L 46.856371 25.896392 
L 47.746603 25.422846 
L 48.636834 24.9493 
L 49.625182 24.718698 
L 50.613531 24.488096 
L 51.974723 24.025594 
L 52.87357 23.307155 
L 53.334958 22.176881 
L 53.848995 21.277859 
L 54.413766 21.380493 
L 54.863189 22.369158 
L 55.312612 23.357823 
L 55.119729 24.898633 
L 54.926845 26.439443 
L 54.708595 27.511254 
L 54.490345 28.583065 
L 54.272094 29.654877 
L 54.053844 30.726688 
L 53.681718 31.708857 
L 53.309591 32.691026 
L 52.937465 33.673195 
L 52.565339 34.655364 
L 51.987646 35.759005 
L 51.409953 36.862646 
L 51.05051 37.979278 
L 50.691067 39.095911 
L 50.665221 40.662704 
L 50.896394 41.50976 
L 51.127567 42.356816 
L 51.409953 43.127221 
L 51.101722 44.321154 
L 50.793491 45.515087 
L 50.639376 46.696028 
L 50.485261 47.876969 
L 50.7418 49.05791 
L 50.947607 50.393452 
L 50.43357 51.701712 
L 49.714684 52.831985 
L 49.256885 53.59492 
L 48.799086 54.357855 
L 48.341287 55.12079 
L 47.883488 55.883725 
z
" style="fill:#008000;opacity:0.1;"/>
   </g>
   <g id="patch_3">
    <path clip-path="url(#pa36c862482)" d="M 48.371679 59.06668 
L 48.371679 59.06668 
L 48.796334 58.059502 
L 49.220988 57.052324 
L 49.645643 56.045146 
L 50.070298 55.037968 
L 50.494953 54.03079 
L 50.919607 53.023612 
L 51.344262 52.016434 
L 51.768917 51.009257 
L 51.897187 49.699698 
L 51.306571 48.132905 
L 51.178301 46.541427 
L 51.383629 45.656046 
L 51.588956 44.770665 
L 51.858897 43.846309 
L 52.128838 42.921953 
L 52.000568 42.356816 
L 51.730627 41.329826 
L 51.460686 40.302835 
L 51.281683 39.250512 
L 51.692338 38.094904 
L 52.102993 36.939297 
L 52.641918 35.886973 
L 53.180843 34.834649 
L 53.521141 33.955114 
L 53.861439 33.075579 
L 54.201737 32.196044 
L 54.542035 31.316509 
L 54.837343 30.071909 
L 55.132651 28.827308 
L 55.453326 27.376141 
L 55.774001 25.924973 
L 56.005174 24.834324 
L 56.236347 23.743675 
L 55.569152 22.305499 
L 54.77273 20.790672 
L 54.028956 20.48277 
L 53.155955 20.867323 
L 52.975994 22.074247 
L 52.102993 23.281172 
L 51.17878 23.7047 
L 50.254566 24.128228 
L 49.214527 24.372471 
L 48.174488 24.616714 
L 47.291436 24.847316 
L 46.408384 25.077917 
L 46.856371 25.896392 
L 47.746603 25.422846 
L 48.636834 24.9493 
L 49.625182 24.718698 
L 50.613531 24.488096 
L 51.974723 24.025594 
L 52.87357 23.307155 
L 53.334958 22.176881 
L 53.848995 21.277859 
L 54.413766 21.380493 
L 54.863189 22.369158 
L 55.312612 23.357823 
L 55.119729 24.898633 
L 54.926845 26.439443 
L 54.708595 27.511254 
L 54.490345 28.583065 
L 54.272094 29.654877 
L 54.053844 30.726688 
L 53.681718 31.708857 
L 53.309591 32.691026 
L 52.937465 33.673195 
L 52.565339 34.655364 
L 51.987646 35.759005 
L 51.409953 36.862646 
L 51.05051 37.979278 
L 50.691067 39.095911 
L 50.665221 40.662704 
L 50.896394 41.50976 
L 51.127567 42.356816 
L 51.409953 43.127221 
L 51.101722 44.321154 
L 50.793491 45.515087 
L 50.639376 46.696028 
L 50.485261 47.876969 
L 50.7418 49.05791 
L 50.947607 50.393452 
L 50.43357 51.701712 
L 49.714684 52.831985 
L 49.256885 53.59492 
L 48.799086 54.357855 
L 48.341287 55.12079 
L 47.883488 55.883725 
z
" style="fill:none;stroke:#008000;stroke-linejoin:miter;stroke-width:0.4;"/>
   </g>
   <g id="patch_4">
    <path clip-path="url(#pa36c862482)" d="M 46.856371 25.896392 
L 46.856371 25.896392 
L 47.434064 27.179967 
L 48.011758 28.463542 
L 48.294143 30.106337 
L 48.576528 31.749131 
L 48.582989 32.891747 
L 48.589451 34.034363 
L 48.595912 35.176979 
L 48.602373 36.319595 
L 48.602373 37.577511 
L 48.602373 38.835428 
L 48.602373 40.093345 
L 48.602373 41.351262 
L 48.487026 42.738121 
L 48.371679 44.12498 
L 48.371679 45.158141 
L 48.371679 46.191302 
L 48.371679 47.224463 
L 48.371679 48.257624 
L 48.217564 49.6185 
L 48.063448 50.979376 
L 48.018458 52.205463 
L 47.973468 53.43155 
L 47.928478 54.657637 
L 47.883488 55.883725 
L 48.127583 57.475202 
L 48.371679 59.06668 
L 47.935178 60.632823 
L 47.498678 62.198967 
L 46.651522 63.366917 
L 45.804367 64.534866 
L 45.393233 63.661827 
L 44.982099 62.788788 
L 45.50858 61.620839 
L 46.035061 60.452889 
L 46.060906 58.732794 
L 46.086752 57.012699 
L 46.048223 56.120498 
L 46.009694 55.228296 
L 45.971165 54.336094 
L 45.932637 53.443892 
L 46.009694 51.723797 
L 46.086752 50.003703 
L 46.125281 49.008867 
L 46.16381 48.014031 
L 46.202338 47.019195 
L 46.240867 46.024359 
L 46.317925 44.959044 
L 46.394982 43.893728 
L 46.47204 42.828413 
L 46.549098 41.763097 
L 46.658223 40.460034 
L 46.767348 39.156972 
L 46.876473 37.853909 
L 46.985598 36.550846 
L 46.998282 35.658644 
L 47.010965 34.766443 
L 47.023649 33.874241 
L 47.036332 32.982039 
L 46.972197 31.981032 
L 46.908062 30.980025 
L 46.651522 29.593166 
L 46.394982 28.206307 
L 46.009694 27.378414 
L 45.624406 26.550521 
L 45.239118 25.722628 
L 44.853829 24.894735 
L 44.032519 23.739777 
L 44.957211 22.430219 
L 45.682797 23.754068 
L 46.408384 25.077917 
z
" style="fill:#008000;opacity:0.1;"/>
   </g>
   <g id="patch_5">
    <path clip-path="url(#pa36c862482)" d="M 46.856371 25.896392 
L 46.856371 25.896392 
L 47.434064 27.179967 
L 48.011758 28.463542 
L 48.294143 30.106337 
L 48.576528 31.749131 
L 48.582989 32.891747 
L 48.589451 34.034363 
L 48.595912 35.176979 
L 48.602373 36.319595 
L 48.602373 37.577511 
L 48.602373 38.835428 
L 48.602373 40.093345 
L 48.602373 41.351262 
L 48.487026 42.738121 
L 48.371679 44.12498 
L 48.371679 45.158141 
L 48.371679 46.191302 
L 48.371679 47.224463 
L 48.371679 48.257624 
L 48.217564 49.6185 
L 48.063448 50.979376 
L 48.018458 52.205463 
L 47.973468 53.43155 
L 47.928478 54.657637 
L 47.883488 55.883725 
L 48.127583 57.475202 
L 48.371679 59.06668 
L 47.935178 60.632823 
L 47.498678 62.198967 
L 46.651522 63.366917 
L 45.804367 64.534866 
L 45.393233 63.661827 
L 44.982099 62.788788 
L 45.50858 61.620839 
L 46.035061 60.452889 
L 46.060906 58.732794 
L 46.086752 57.012699 
L 46.048223 56.120498 
L 46.009694 55.228296 
L 45.971165 54.336094 
L 45.932637 53.443892 
L 46.009694 51.723797 
L 46.086752 50.003703 
L 46.125281 49.008867 
L 46.16381 48.014031 
L 46.202338 47.019195 
L 46.240867 46.024359 
L 46.317925 44.959044 
L 46.394982 43.893728 
L 46.47204 42.828413 
L 46.549098 41.763097 
L 46.658223 40.460034 
L 46.767348 39.156972 
L 46.876473 37.853909 
L 46.985598 36.550846 
L 46.998282 35.658644 
L 47.010965 34.766443 
L 47.023649 33.874241 
L 47.036332 32.982039 
L 46.972197 31.981032 
L 46.908062 30.980025 
L 46.651522 29.593166 
L 46.394982 28.206307 
L 46.009694 27.378414 
L 45.624406 26.550521 
L 45.239118 25.722628 
L 44.853829 24.894735 
L 44.032519 23.739777 
L 44.957211 22.430219 
L 45.682797 23.754068 
L 46.408384 25.077917 
z
" style="fill:none;stroke:#008000;stroke-linejoin:miter;stroke-width:0.4;"/>
   </g>
   <g id="patch_6">
    <path clip-path="url(#pa36c862482)" d="M 45.154402 17.629803 
L 45.154402 17.629803 
L 45.488478 19.170613 
L 45.822554 20.711423 
L 45.389883 21.570821 
L 44.957211 22.430219 
L 44.032519 23.739777 
L 42.410958 23.534509 
L 40.789397 23.329241 
L 40.28924 22.381175 
L 39.789083 21.433109 
L 39.288926 20.485043 
L 38.788769 19.536977 
L 38.325466 18.657443 
L 37.916725 17.657085 
L 37.507985 16.656728 
L 37.058561 15.532625 
L 36.609138 14.408523 
L 36.159715 13.28442 
L 35.710292 12.160317 
L 34.737498 11.177498 
L 33.764705 10.19468 
L 32.791912 9.211861 
L 31.819119 8.229043 
L 32.86538 8.23424 
L 33.911641 8.239436 
L 35.643285 8.24918 
L 37.374928 8.258924 
L 38.010535 9.671116 
L 38.646141 11.083309 
L 39.281747 12.495502 
L 39.917353 13.907694 
L 40.212421 14.786904 
L 40.50749 15.666115 
L 40.802559 16.545325 
L 41.097627 17.424535 
L 42.047686 17.116633 
L 42.997745 16.80873 
z
" style="fill:#008000;opacity:0.1;"/>
   </g>
   <g id="patch_7">
    <path clip-path="url(#pa36c862482)" d="M 45.154402 17.629803 
L 45.154402 17.629803 
L 45.488478 19.170613 
L 45.822554 20.711423 
L 45.389883 21.570821 
L 44.957211 22.430219 
L 44.032519 23.739777 
L 42.410958 23.534509 
L 40.789397 23.329241 
L 40.28924 22.381175 
L 39.789083 21.433109 
L 39.288926 20.485043 
L 38.788769 19.536977 
L 38.325466 18.657443 
L 37.916725 17.657085 
L 37.507985 16.656728 
L 37.058561 15.532625 
L 36.609138 14.408523 
L 36.159715 13.28442 
L 35.710292 12.160317 
L 34.737498 11.177498 
L 33.764705 10.19468 
L 32.791912 9.211861 
L 31.819119 8.229043 
L 32.86538 8.23424 
L 33.911641 8.239436 
L 35.643285 8.24918 
L 37.374928 8.258924 
L 38.010535 9.671116 
L 38.646141 11.083309 
L 39.281747 12.495502 
L 39.917353 13.907694 
L 40.212421 14.786904 
L 40.50749 15.666115 
L 40.802559 16.545325 
L 41.097627 17.424535 
L 42.047686 17.116633 
L 42.997745 16.80873 
z
" style="fill:none;stroke:#008000;stroke-linejoin:miter;stroke-width:0.4;"/>
   </g>
   <g id="patch_8">
    <path clip-path="url(#pa36c862482)" d="M 44.032519 23.739777 
L 44.032519 23.739777 
L 43.925787 25.225373 
L 43.819055 26.710968 
L 44.151695 27.864627 
L 44.484335 29.018286 
L 44.750448 30.171295 
L 45.01656 31.324304 
L 45.249647 32.344149 
L 45.482735 33.363994 
L 45.316415 34.273409 
L 45.150094 35.182825 
L 44.983774 36.092241 
L 44.817454 37.001656 
L 44.639887 38.67628 
L 44.462319 40.350905 
L 44.528847 41.581864 
L 44.595375 42.812823 
L 44.650895 43.733281 
L 44.706415 44.65374 
L 44.706415 45.884049 
L 44.706415 47.114359 
L 44.550863 48.279061 
L 44.395312 49.443762 
L 44.439824 50.841015 
L 44.484335 52.238267 
L 44.373296 53.834941 
L 44.262256 55.431615 
L 44.317776 56.917211 
L 44.373296 58.402806 
L 44.395552 59.417454 
L 44.417807 60.432102 
L 44.440063 61.44675 
L 44.462319 62.461399 
L 44.982099 62.788788 
L 45.393233 63.661827 
L 45.804367 64.534866 
L 44.761695 65.457923 
L 43.719024 66.38098 
L 42.676352 67.304037 
L 41.63368 68.227094 
L 40.760679 68.477183 
L 39.887678 68.727273 
L 39.932668 67.767839 
L 39.977659 66.808406 
L 40.022649 65.848972 
L 40.067639 64.889538 
L 39.990581 63.156452 
L 39.913524 61.423365 
L 39.403316 61.144045 
L 39.50574 60.029686 
L 39.608165 58.915327 
L 39.710589 57.800968 
L 39.813014 56.686609 
L 39.944873 55.248758 
L 40.076733 53.810906 
L 40.208592 52.373055 
L 40.340452 50.935204 
L 40.421817 50.049498 
L 40.503182 49.163792 
L 40.584548 48.278086 
L 40.665913 47.39238 
L 40.747278 46.506674 
L 40.828643 45.620969 
L 40.910009 44.735263 
L 40.991374 43.849557 
L 41.128737 42.352269 
L 41.266101 40.854981 
L 41.403465 39.357693 
L 41.540828 37.860405 
L 41.683218 36.309689 
L 41.825607 34.758972 
L 41.967996 33.208256 
L 42.110385 31.65754 
L 42.252774 30.106824 
L 42.395163 28.556108 
L 42.537553 27.005392 
L 42.679942 25.454675 
L 42.7637 24.542661 
L 42.847458 23.630647 
z
" style="fill:#008000;opacity:0.1;"/>
   </g>
   <g id="patch_9">
    <path clip-path="url(#pa36c862482)" d="M 44.032519 23.739777 
L 44.032519 23.739777 
L 43.925787 25.225373 
L 43.819055 26.710968 
L 44.151695 27.864627 
L 44.484335 29.018286 
L 44.750448 30.171295 
L 45.01656 31.324304 
L 45.249647 32.344149 
L 45.482735 33.363994 
L 45.316415 34.273409 
L 45.150094 35.182825 
L 44.983774 36.092241 
L 44.817454 37.001656 
L 44.639887 38.67628 
L 44.462319 40.350905 
L 44.528847 41.581864 
L 44.595375 42.812823 
L 44.650895 43.733281 
L 44.706415 44.65374 
L 44.706415 45.884049 
L 44.706415 47.114359 
L 44.550863 48.279061 
L 44.395312 49.443762 
L 44.439824 50.841015 
L 44.484335 52.238267 
L 44.373296 53.834941 
L 44.262256 55.431615 
L 44.317776 56.917211 
L 44.373296 58.402806 
L 44.395552 59.417454 
L 44.417807 60.432102 
L 44.440063 61.44675 
L 44.462319 62.461399 
L 44.982099 62.788788 
L 45.393233 63.661827 
L 45.804367 64.534866 
L 44.761695 65.457923 
L 43.719024 66.38098 
L 42.676352 67.304037 
L 41.63368 68.227094 
L 40.760679 68.477183 
L 39.887678 68.727273 
L 39.932668 67.767839 
L 39.977659 66.808406 
L 40.022649 65.848972 
L 40.067639 64.889538 
L 39.990581 63.156452 
L 39.913524 61.423365 
L 39.403316 61.144045 
L 39.50574 60.029686 
L 39.608165 58.915327 
L 39.710589 57.800968 
L 39.813014 56.686609 
L 39.944873 55.248758 
L 40.076733 53.810906 
L 40.208592 52.373055 
L 40.340452 50.935204 
L 40.421817 50.049498 
L 40.503182 49.163792 
L 40.584548 48.278086 
L 40.665913 47.39238 
L 40.747278 46.506674 
L 40.828643 45.620969 
L 40.910009 44.735263 
L 40.991374 43.849557 
L 41.128737 42.352269 
L 41.266101 40.854981 
L 41.403465 39.357693 
L 41.540828 37.860405 
L 41.683218 36.309689 
L 41.825607 34.758972 
L 41.967996 33.208256 
L 42.110385 31.65754 
L 42.252774 30.106824 
L 42.395163 28.556108 
L 42.537553 27.005392 
L 42.679942 25.454675 
L 42.7637 24.542661 
L 42.847458 23.630647 
z
" style="fill:none;stroke:#008000;stroke-linejoin:miter;stroke-width:0.4;"/>
   </g>
   <g id="patch_10">
    <path clip-path="url(#pa36c862482)" d="M 42.847458 23.630647 
L 42.847458 23.630647 
L 42.629447 25.245185 
L 42.411436 26.859723 
L 42.193425 28.47426 
L 41.975414 30.088798 
L 41.757404 31.703336 
L 41.539393 33.317873 
L 41.321382 34.932411 
L 41.103371 36.546949 
L 40.997117 38.084267 
L 40.890864 39.621586 
L 40.78461 41.158904 
L 40.678357 42.696223 
L 40.572104 44.233541 
L 40.46585 45.77086 
L 40.359597 47.308178 
L 40.253343 48.845497 
L 40.14709 50.382815 
L 40.040836 51.920134 
L 39.934583 53.457452 
L 39.82833 54.994771 
L 39.722076 56.532089 
L 39.615823 58.069408 
L 39.509569 59.606726 
L 39.403316 61.144045 
L 38.770582 61.551983 
L 38.898851 61.872877 
L 38.713147 63.316899 
L 38.527443 64.760921 
L 36.998734 64.738186 
L 35.470025 64.71545 
L 35.893603 63.669297 
L 36.31718 62.623145 
L 36.740758 61.576992 
L 37.164336 60.530839 
L 36.304258 59.208938 
L 35.444179 57.887038 
L 34.13731 57.824678 
L 32.830441 57.762318 
L 31.523572 57.699958 
L 30.216702 57.637598 
L 30.50878 56.745396 
L 30.800857 55.853194 
L 31.092934 54.960993 
L 31.385011 54.068791 
L 31.677089 53.176589 
L 31.969166 52.284387 
L 32.261243 51.392186 
L 32.55332 50.499984 
L 33.150398 49.306376 
L 33.747475 48.112768 
L 34.344552 46.919159 
L 34.941629 45.725551 
L 35.307115 44.325782 
L 35.6726 42.926013 
L 36.038086 41.526243 
L 36.403571 40.126474 
L 36.769057 38.726704 
L 37.134542 37.326935 
L 37.500028 35.927166 
L 37.865513 34.527396 
L 38.230998 33.127627 
L 38.596484 31.727857 
L 38.961969 30.328088 
L 39.327455 28.928319 
L 39.69294 27.528549 
L 40.058426 26.12878 
L 40.423911 24.72901 
L 40.789397 23.329241 
z
" style="fill:#4169e1;opacity:0.1;"/>
   </g>
   <g id="patch_11">
    <path clip-path="url(#pa36c862482)" d="M 42.847458 23.630647 
L 42.847458 23.630647 
L 42.629447 25.245185 
L 42.411436 26.859723 
L 42.193425 28.47426 
L 41.975414 30.088798 
L 41.757404 31.703336 
L 41.539393 33.317873 
L 41.321382 34.932411 
L 41.103371 36.546949 
L 40.997117 38.084267 
L 40.890864 39.621586 
L 40.78461 41.158904 
L 40.678357 42.696223 
L 40.572104 44.233541 
L 40.46585 45.77086 
L 40.359597 47.308178 
L 40.253343 48.845497 
L 40.14709 50.382815 
L 40.040836 51.920134 
L 39.934583 53.457452 
L 39.82833 54.994771 
L 39.722076 56.532089 
L 39.615823 58.069408 
L 39.509569 59.606726 
L 39.403316 61.144045 
L 38.770582 61.551983 
L 38.898851 61.872877 
L 38.713147 63.316899 
L 38.527443 64.760921 
L 36.998734 64.738186 
L 35.470025 64.71545 
L 35.893603 63.669297 
L 36.31718 62.623145 
L 36.740758 61.576992 
L 37.164336 60.530839 
L 36.304258 59.208938 
L 35.444179 57.887038 
L 34.13731 57.824678 
L 32.830441 57.762318 
L 31.523572 57.699958 
L 30.216702 57.637598 
L 30.50878 56.745396 
L 30.800857 55.853194 
L 31.092934 54.960993 
L 31.385011 54.068791 
L 31.677089 53.176589 
L 31.969166 52.284387 
L 32.261243 51.392186 
L 32.55332 50.499984 
L 33.150398 49.306376 
L 33.747475 48.112768 
L 34.344552 46.919159 
L 34.941629 45.725551 
L 35.307115 44.325782 
L 35.6726 42.926013 
L 36.038086 41.526243 
L 36.403571 40.126474 
L 36.769057 38.726704 
L 37.134542 37.326935 
L 37.500028 35.927166 
L 37.865513 34.527396 
L 38.230998 33.127627 
L 38.596484 31.727857 
L 38.961969 30.328088 
L 39.327455 28.928319 
L 39.69294 27.528549 
L 40.058426 26.12878 
L 40.423911 24.72901 
L 40.789397 23.329241 
z
" style="fill:none;stroke:#4169e1;stroke-dasharray:1.48,0.64;stroke-dashoffset:0;stroke-linejoin:miter;stroke-width:0.4;"/>
   </g>
   <g id="patch_12">
    <path clip-path="url(#pa36c862482)" d="M 30.216702 57.637598 
L 30.216702 57.637598 
L 29.983136 58.560005 
L 29.74957 59.482413 
L 29.516004 60.40482 
L 29.282438 61.327227 
L 28.678899 62.700445 
L 28.075361 64.073663 
L 27.631202 65.413102 
L 28.741599 66.312124 
L 29.851995 67.211147 
L 30.378476 68.019228 
L 31.651363 67.193283 
L 32.92425 66.367339 
L 34.197137 65.541395 
L 35.470025 64.71545 
L 35.893603 63.669297 
L 36.31718 62.623145 
L 36.740758 61.576992 
L 37.164336 60.530839 
L 36.304258 59.208938 
L 35.444179 57.887038 
z
" style="fill:#008000;opacity:0.1;"/>
   </g>
   <g id="patch_13">
    <path clip-path="url(#pa36c862482)" d="M 30.216702 57.637598 
L 30.216702 57.637598 
L 29.983136 58.560005 
L 29.74957 59.482413 
L 29.516004 60.40482 
L 29.282438 61.327227 
L 28.678899 62.700445 
L 28.075361 64.073663 
L 27.631202 65.413102 
L 28.741599 66.312124 
L 29.851995 67.211147 
L 30.378476 68.019228 
L 31.651363 67.193283 
L 32.92425 66.367339 
L 34.197137 65.541395 
L 35.470025 64.71545 
L 35.893603 63.669297 
L 36.31718 62.623145 
L 36.740758 61.576992 
L 37.164336 60.530839 
L 36.304258 59.208938 
L 35.444179 57.887038 
z
" style="fill:none;stroke:#008000;stroke-linejoin:miter;stroke-width:0.4;"/>
   </g>
   <g id="patch_14">
    <path clip-path="url(#pa36c862482)" d="M 20.526582 55.11332 
L 20.526582 55.11332 
L 21.2134 55.85157 
L 21.900218 56.589821 
L 22.587037 57.328072 
L 23.273855 58.066322 
L 24.352184 58.656793 
L 25.430512 59.247264 
L 25.213219 60.262886 
L 24.995926 61.278509 
L 24.778633 62.294131 
L 24.56134 63.309753 
L 25.328806 63.835591 
L 26.096271 64.361428 
L 26.863737 64.887265 
L 27.631202 65.413102 
L 28.075361 64.073663 
L 27.20236 64.228263 
L 26.355204 63.842411 
L 26.316915 62.841404 
L 26.278625 61.840398 
L 26.804627 60.877716 
L 27.33063 59.915035 
L 28.820092 59.581149 
L 29.051265 60.454188 
L 29.282438 61.327227 
L 29.516004 60.40482 
L 29.74957 59.482413 
L 29.983136 58.560005 
L 30.216702 57.637598 
L 30.807318 56.148592 
L 31.397934 54.659586 
L 31.98855 53.17058 
L 32.579166 51.681575 
L 33.169782 50.192569 
L 33.760398 48.703563 
L 34.351013 47.214557 
L 34.941629 45.725551 
L 35.307115 44.325782 
L 35.6726 42.926013 
L 36.038086 41.526243 
L 36.403571 40.126474 
L 36.769057 38.726704 
L 37.134542 37.326935 
L 37.500028 35.927166 
L 37.865513 34.527396 
L 38.230998 33.127627 
L 38.596484 31.727857 
L 38.961969 30.328088 
L 39.327455 28.928319 
L 39.69294 27.528549 
L 40.058426 26.12878 
L 40.423911 24.72901 
L 40.789397 23.329241 
L 40.28924 22.381175 
L 39.789083 21.433109 
L 39.288926 20.485043 
L 38.788769 19.536977 
z
" style="fill:#008000;opacity:0.1;"/>
   </g>
   <g id="patch_15">
    <path clip-path="url(#pa36c862482)" d="M 20.526582 55.11332 
L 20.526582 55.11332 
L 21.2134 55.85157 
L 21.900218 56.589821 
L 22.587037 57.328072 
L 23.273855 58.066322 
L 24.352184 58.656793 
L 25.430512 59.247264 
L 25.213219 60.262886 
L 24.995926 61.278509 
L 24.778633 62.294131 
L 24.56134 63.309753 
L 25.328806 63.835591 
L 26.096271 64.361428 
L 26.863737 64.887265 
L 27.631202 65.413102 
L 28.075361 64.073663 
L 27.20236 64.228263 
L 26.355204 63.842411 
L 26.316915 62.841404 
L 26.278625 61.840398 
L 26.804627 60.877716 
L 27.33063 59.915035 
L 28.820092 59.581149 
L 29.051265 60.454188 
L 29.282438 61.327227 
L 29.516004 60.40482 
L 29.74957 59.482413 
L 29.983136 58.560005 
L 30.216702 57.637598 
L 30.807318 56.148592 
L 31.397934 54.659586 
L 31.98855 53.17058 
L 32.579166 51.681575 
L 33.169782 50.192569 
L 33.760398 48.703563 
L 34.351013 47.214557 
L 34.941629 45.725551 
L 35.307115 44.325782 
L 35.6726 42.926013 
L 36.038086 41.526243 
L 36.403571 40.126474 
L 36.769057 38.726704 
L 37.134542 37.326935 
L 37.500028 35.927166 
L 37.865513 34.527396 
L 38.230998 33.127627 
L 38.596484 31.727857 
L 38.961969 30.328088 
L 39.327455 28.928319 
L 39.69294 27.528549 
L 40.058426 26.12878 
L 40.423911 24.72901 
L 40.789397 23.329241 
L 40.28924 22.381175 
L 39.789083 21.433109 
L 39.288926 20.485043 
L 38.788769 19.536977 
z
" style="fill:none;stroke:#008000;stroke-linejoin:miter;stroke-width:0.4;"/>
   </g>
   <g id="patch_16">
    <path clip-path="url(#pa36c862482)" d="M 22.801937 45.044789 
L 22.801937 45.044789 
L 22.255234 46.029069 
L 21.708531 47.013349 
L 21.161829 47.997629 
L 20.615126 48.981909 
L 20.068424 49.966189 
L 19.521721 50.950469 
L 18.975019 51.934749 
L 18.428316 52.91903 
L 17.645295 52.18695 
L 16.862275 51.45487 
L 16.296547 50.616909 
L 15.730819 49.778947 
L 15.165091 48.940985 
L 14.599364 48.103024 
L 15.451784 47.458151 
L 16.304205 46.813277 
L 17.156625 46.168404 
L 18.009046 45.523531 
L 18.861466 44.878658 
L 19.713887 44.233785 
L 20.566307 43.588912 
L 21.418728 42.944038 
z
" style="fill:#008000;opacity:0.1;"/>
   </g>
   <g id="patch_17">
    <path clip-path="url(#pa36c862482)" d="M 22.801937 45.044789 
L 22.801937 45.044789 
L 22.255234 46.029069 
L 21.708531 47.013349 
L 21.161829 47.997629 
L 20.615126 48.981909 
L 20.068424 49.966189 
L 19.521721 50.950469 
L 18.975019 51.934749 
L 18.428316 52.91903 
L 17.645295 52.18695 
L 16.862275 51.45487 
L 16.296547 50.616909 
L 15.730819 49.778947 
L 15.165091 48.940985 
L 14.599364 48.103024 
L 15.451784 47.458151 
L 16.304205 46.813277 
L 17.156625 46.168404 
L 18.009046 45.523531 
L 18.861466 44.878658 
L 19.713887 44.233785 
L 20.566307 43.588912 
L 21.418728 42.944038 
z
" style="fill:none;stroke:#008000;stroke-linejoin:miter;stroke-width:0.4;"/>
   </g>
   <g id="patch_18">
    <path clip-path="url(#pa36c862482)" d="M 20.872145 41.872227 
L 20.872145 41.872227 
L 20.009434 42.511741 
L 19.146723 43.151255 
L 18.284012 43.790769 
L 17.421302 44.430284 
L 16.558591 45.069798 
L 15.69588 45.709312 
L 14.833169 46.348826 
L 13.970458 46.98834 
L 13.312836 45.952256 
L 12.655213 44.916171 
L 13.444815 44.287375 
L 14.234417 43.658579 
L 15.024019 43.029783 
L 15.81362 42.400987 
L 16.603222 41.772191 
L 17.392824 41.143395 
L 18.182425 40.514599 
L 18.972027 39.885803 
z
" style="fill:#008000;opacity:0.1;"/>
   </g>
   <g id="patch_19">
    <path clip-path="url(#pa36c862482)" d="M 20.872145 41.872227 
L 20.872145 41.872227 
L 20.009434 42.511741 
L 19.146723 43.151255 
L 18.284012 43.790769 
L 17.421302 44.430284 
L 16.558591 45.069798 
L 15.69588 45.709312 
L 14.833169 46.348826 
L 13.970458 46.98834 
L 13.312836 45.952256 
L 12.655213 44.916171 
L 13.444815 44.287375 
L 14.234417 43.658579 
L 15.024019 43.029783 
L 15.81362 42.400987 
L 16.603222 41.772191 
L 17.392824 41.143395 
L 18.182425 40.514599 
L 18.972027 39.885803 
z
" style="fill:none;stroke:#008000;stroke-linejoin:miter;stroke-width:0.4;"/>
   </g>
   <g id="patch_20">
    <path clip-path="url(#pa36c862482)" d="M 18.571902 39.185553 
L 18.571902 39.185553 
L 17.77524 39.82864 
L 16.978579 40.471727 
L 16.181918 41.114814 
L 15.385256 41.757901 
L 14.588595 42.400987 
L 13.791934 43.044074 
L 12.995272 43.687161 
L 12.198611 44.330248 
L 11.662558 43.229855 
L 11.126504 42.129462 
L 10.590451 41.029069 
L 10.054398 39.928676 
L 10.826171 39.471532 
L 11.597944 39.014388 
L 12.369717 38.557244 
L 13.14149 38.100101 
L 13.913263 37.642957 
L 14.685037 37.185813 
L 15.45681 36.728669 
L 16.228583 36.271526 
z
" style="fill:#008000;opacity:0.1;"/>
   </g>
   <g id="patch_21">
    <path clip-path="url(#pa36c862482)" d="M 18.571902 39.185553 
L 18.571902 39.185553 
L 17.77524 39.82864 
L 16.978579 40.471727 
L 16.181918 41.114814 
L 15.385256 41.757901 
L 14.588595 42.400987 
L 13.791934 43.044074 
L 12.995272 43.687161 
L 12.198611 44.330248 
L 11.662558 43.229855 
L 11.126504 42.129462 
L 10.590451 41.029069 
L 10.054398 39.928676 
L 10.826171 39.471532 
L 11.597944 39.014388 
L 12.369717 38.557244 
L 13.14149 38.100101 
L 13.913263 37.642957 
L 14.685037 37.185813 
L 15.45681 36.728669 
L 16.228583 36.271526 
z
" style="fill:none;stroke:#008000;stroke-linejoin:miter;stroke-width:0.4;"/>
   </g>
   <g id="patch_22">
    <path clip-path="url(#pa36c862482)" d="M 21.694412 34.639774 
L 21.694412 34.639774 
L 22.747374 35.512813 
L 23.800336 36.385852 
L 25.058147 36.719738 
L 26.078802 36.206242 
L 27.099457 35.692747 
L 28.120112 35.179252 
L 29.140767 34.665757 
L 30.032913 33.183085 
L 30.925059 31.700412 
L 31.817204 30.21774 
L 32.70935 28.735068 
L 33.411365 27.475365 
L 34.113379 26.215661 
L 34.815394 24.955958 
L 35.517408 23.696255 
L 36.219422 22.436552 
L 36.921437 21.176849 
L 37.623451 19.917146 
L 38.325466 18.657443 
L 37.260778 19.663484 
L 36.19609 20.669525 
L 35.131402 21.675566 
L 34.066714 22.681607 
L 33.002026 23.687648 
L 31.937338 24.693689 
L 30.87265 25.69973 
L 29.807962 26.705772 
L 28.870826 28.111468 
L 27.93369 29.517165 
L 26.996554 30.922862 
L 26.059418 32.328559 
z
" style="fill:#4169e1;opacity:0.1;"/>
   </g>
   <g id="patch_23">
    <path clip-path="url(#pa36c862482)" d="M 21.694412 34.639774 
L 21.694412 34.639774 
L 22.747374 35.512813 
L 23.800336 36.385852 
L 25.058147 36.719738 
L 26.078802 36.206242 
L 27.099457 35.692747 
L 28.120112 35.179252 
L 29.140767 34.665757 
L 30.032913 33.183085 
L 30.925059 31.700412 
L 31.817204 30.21774 
L 32.70935 28.735068 
L 33.411365 27.475365 
L 34.113379 26.215661 
L 34.815394 24.955958 
L 35.517408 23.696255 
L 36.219422 22.436552 
L 36.921437 21.176849 
L 37.623451 19.917146 
L 38.325466 18.657443 
L 37.260778 19.663484 
L 36.19609 20.669525 
L 35.131402 21.675566 
L 34.066714 22.681607 
L 33.002026 23.687648 
L 31.937338 24.693689 
L 30.87265 25.69973 
L 29.807962 26.705772 
L 28.870826 28.111468 
L 27.93369 29.517165 
L 26.996554 30.922862 
L 26.059418 32.328559 
z
" style="fill:none;stroke:#4169e1;stroke-linejoin:miter;stroke-width:0.4;"/>
   </g>
   <g id="patch_24">
    <path clip-path="url(#pa36c862482)" d="M 38.325466 18.657443 
L 38.325466 18.657443 
L 37.916725 17.657085 
L 37.507985 16.656728 
L 36.162826 17.591477 
L 34.817667 18.526227 
L 33.472508 19.460976 
L 32.12735 20.395726 
L 31.385969 20.973854 
L 30.644588 21.551983 
L 29.903207 22.130111 
L 29.161826 22.70824 
L 27.88858 23.409221 
L 26.615334 24.110202 
L 25.342087 24.811183 
L 24.068841 25.512163 
L 22.795595 26.213144 
L 21.522349 26.914125 
L 20.249102 27.615106 
L 18.975856 28.316087 
L 17.70261 29.017068 
L 16.429364 29.718049 
L 15.156117 30.41903 
L 13.882871 31.12001 
L 12.609625 31.820991 
L 11.336379 32.521972 
L 10.063132 33.222953 
L 8.789886 33.923934 
L 9.39151 34.959044 
L 9.993134 35.994154 
L 10.594758 37.029264 
L 11.196383 38.064374 
L 12.684409 37.281627 
L 14.172436 36.498879 
L 15.660462 35.716132 
L 17.148489 34.933385 
L 18.28497 34.859982 
L 19.42145 34.78658 
L 20.557931 34.713177 
L 21.694412 34.639774 
L 22.785664 34.06197 
L 23.876915 33.484166 
L 24.968166 32.906363 
L 26.059418 32.328559 
L 26.996554 30.922862 
L 27.93369 29.517165 
L 28.870826 28.111468 
L 29.807962 26.705772 
z
" style="fill:#4169e1;opacity:0.1;"/>
   </g>
   <g id="patch_25">
    <path clip-path="url(#pa36c862482)" d="M 38.325466 18.657443 
L 38.325466 18.657443 
L 37.916725 17.657085 
L 37.507985 16.656728 
L 36.162826 17.591477 
L 34.817667 18.526227 
L 33.472508 19.460976 
L 32.12735 20.395726 
L 31.385969 20.973854 
L 30.644588 21.551983 
L 29.903207 22.130111 
L 29.161826 22.70824 
L 27.88858 23.409221 
L 26.615334 24.110202 
L 25.342087 24.811183 
L 24.068841 25.512163 
L 22.795595 26.213144 
L 21.522349 26.914125 
L 20.249102 27.615106 
L 18.975856 28.316087 
L 17.70261 29.017068 
L 16.429364 29.718049 
L 15.156117 30.41903 
L 13.882871 31.12001 
L 12.609625 31.820991 
L 11.336379 32.521972 
L 10.063132 33.222953 
L 8.789886 33.923934 
L 9.39151 34.959044 
L 9.993134 35.994154 
L 10.594758 37.029264 
L 11.196383 38.064374 
L 12.684409 37.281627 
L 14.172436 36.498879 
L 15.660462 35.716132 
L 17.148489 34.933385 
L 18.28497 34.859982 
L 19.42145 34.78658 
L 20.557931 34.713177 
L 21.694412 34.639774 
L 22.785664 34.06197 
L 23.876915 33.484166 
L 24.968166 32.906363 
L 26.059418 32.328559 
L 26.996554 30.922862 
L 27.93369 29.517165 
L 28.870826 28.111468 
L 29.807962 26.705772 
z
" style="fill:none;stroke:#4169e1;stroke-linejoin:miter;stroke-width:0.4;"/>
   </g>
   <g id="patch_26">
    <path clip-path="url(#pa36c862482)" d="M 37.507985 16.656728 
L 37.507985 16.656728 
L 36.162826 17.591477 
L 34.817667 18.526227 
L 33.472508 19.460976 
L 32.12735 20.395726 
L 31.276844 20.783851 
L 30.426338 21.171977 
L 29.575832 21.560103 
L 28.725326 21.948228 
L 27.907007 22.397577 
L 27.088688 22.846926 
L 26.270369 23.296275 
L 25.45205 23.745623 
L 24.633731 24.194972 
L 23.815412 24.644321 
L 22.997093 25.09367 
L 22.178775 25.543019 
L 20.664424 26.344279 
L 19.150073 27.145539 
L 17.635723 27.946799 
L 16.121372 28.748059 
L 14.940141 28.73117 
L 13.958014 29.324889 
L 12.975888 29.918607 
L 11.993762 30.512326 
L 11.011636 31.106044 
L 10.042432 31.612719 
L 9.073229 32.119393 
L 7.723523 32.526032 
L 6.940502 31.037189 
L 6.157482 29.548345 
L 7.081007 29.004969 
L 8.004532 28.461593 
L 8.928057 27.918218 
L 9.851583 27.374842 
L 10.775108 26.831466 
L 11.698633 26.28809 
L 12.622159 25.744714 
L 13.545684 25.201338 
L 14.469209 24.657962 
L 15.392735 24.114586 
L 16.31626 23.57121 
L 17.239785 23.027835 
L 18.163311 22.484459 
L 19.086836 21.941083 
L 20.010361 21.397707 
L 20.933887 20.854331 
L 21.857412 20.310955 
L 22.780937 19.767579 
L 23.704462 19.224203 
L 24.627988 18.680828 
L 25.551513 18.137452 
L 26.475038 17.594076 
L 27.398564 17.0507 
L 28.322089 16.507324 
L 29.245614 15.963948 
L 30.16914 15.420572 
L 31.092665 14.877196 
L 32.01619 14.333821 
L 32.939716 13.790445 
L 33.863241 13.247069 
L 34.786766 12.703693 
L 35.710292 12.160317 
z
" style="fill:#4169e1;opacity:0.1;"/>
   </g>
   <g id="patch_27">
    <path clip-path="url(#pa36c862482)" d="M 37.507985 16.656728 
L 37.507985 16.656728 
L 36.162826 17.591477 
L 34.817667 18.526227 
L 33.472508 19.460976 
L 32.12735 20.395726 
L 31.276844 20.783851 
L 30.426338 21.171977 
L 29.575832 21.560103 
L 28.725326 21.948228 
L 27.907007 22.397577 
L 27.088688 22.846926 
L 26.270369 23.296275 
L 25.45205 23.745623 
L 24.633731 24.194972 
L 23.815412 24.644321 
L 22.997093 25.09367 
L 22.178775 25.543019 
L 20.664424 26.344279 
L 19.150073 27.145539 
L 17.635723 27.946799 
L 16.121372 28.748059 
L 14.940141 28.73117 
L 13.958014 29.324889 
L 12.975888 29.918607 
L 11.993762 30.512326 
L 11.011636 31.106044 
L 10.042432 31.612719 
L 9.073229 32.119393 
L 7.723523 32.526032 
L 6.940502 31.037189 
L 6.157482 29.548345 
L 7.081007 29.004969 
L 8.004532 28.461593 
L 8.928057 27.918218 
L 9.851583 27.374842 
L 10.775108 26.831466 
L 11.698633 26.28809 
L 12.622159 25.744714 
L 13.545684 25.201338 
L 14.469209 24.657962 
L 15.392735 24.114586 
L 16.31626 23.57121 
L 17.239785 23.027835 
L 18.163311 22.484459 
L 19.086836 21.941083 
L 20.010361 21.397707 
L 20.933887 20.854331 
L 21.857412 20.310955 
L 22.780937 19.767579 
L 23.704462 19.224203 
L 24.627988 18.680828 
L 25.551513 18.137452 
L 26.475038 17.594076 
L 27.398564 17.0507 
L 28.322089 16.507324 
L 29.245614 15.963948 
L 30.16914 15.420572 
L 31.092665 14.877196 
L 32.01619 14.333821 
L 32.939716 13.790445 
L 33.863241 13.247069 
L 34.786766 12.703693 
L 35.710292 12.160317 
z
" style="fill:none;stroke:#4169e1;stroke-linejoin:miter;stroke-width:0.4;"/>
   </g>
   <g id="patch_28">
    <path clip-path="url(#pa36c862482)" d="M 35.710292 12.160317 
L 35.710292 12.160317 
L 34.867354 12.493472 
L 34.024416 12.826626 
L 33.181478 13.159781 
L 32.33854 13.492936 
L 31.495602 13.82609 
L 30.652665 14.159245 
L 29.809727 14.4924 
L 28.966789 14.825555 
L 28.123851 15.158709 
L 27.280913 15.491864 
L 26.437975 15.825019 
L 25.595037 16.158173 
L 24.7521 16.491328 
L 23.909162 16.824483 
L 23.066224 17.157637 
L 22.223286 17.490792 
L 21.380348 17.823947 
L 20.53741 18.157102 
L 19.694473 18.490256 
L 18.851535 18.823411 
L 18.008597 19.156566 
L 17.165659 19.48972 
L 16.322721 19.822875 
L 15.479783 20.15603 
L 14.636846 20.489184 
L 13.793908 20.822339 
L 12.95097 21.155494 
L 12.108032 21.488649 
L 11.265094 21.821803 
L 10.422156 22.154958 
L 9.579219 22.488113 
L 8.736281 22.821267 
L 8.290208 23.255189 
L 6.776815 23.96843 
L 5.263421 24.681672 
L 5.39552 24.988275 
L 4.077403 25.722303 
L 4.597423 26.678814 
L 5.117442 27.635324 
L 5.637462 28.591835 
L 6.157482 29.548345 
z
" style="fill:#4169e1;opacity:0.1;"/>
   </g>
   <g id="patch_29">
    <path clip-path="url(#pa36c862482)" d="M 35.710292 12.160317 
L 35.710292 12.160317 
L 34.867354 12.493472 
L 34.024416 12.826626 
L 33.181478 13.159781 
L 32.33854 13.492936 
L 31.495602 13.82609 
L 30.652665 14.159245 
L 29.809727 14.4924 
L 28.966789 14.825555 
L 28.123851 15.158709 
L 27.280913 15.491864 
L 26.437975 15.825019 
L 25.595037 16.158173 
L 24.7521 16.491328 
L 23.909162 16.824483 
L 23.066224 17.157637 
L 22.223286 17.490792 
L 21.380348 17.823947 
L 20.53741 18.157102 
L 19.694473 18.490256 
L 18.851535 18.823411 
L 18.008597 19.156566 
L 17.165659 19.48972 
L 16.322721 19.822875 
L 15.479783 20.15603 
L 14.636846 20.489184 
L 13.793908 20.822339 
L 12.95097 21.155494 
L 12.108032 21.488649 
L 11.265094 21.821803 
L 10.422156 22.154958 
L 9.579219 22.488113 
L 8.736281 22.821267 
L 8.290208 23.255189 
L 6.776815 23.96843 
L 5.263421 24.681672 
L 5.39552 24.988275 
L 4.077403 25.722303 
L 4.597423 26.678814 
L 5.117442 27.635324 
L 5.637462 28.591835 
L 6.157482 29.548345 
z
" style="fill:none;stroke:#4169e1;stroke-linejoin:miter;stroke-width:0.4;"/>
   </g>
   <g id="patch_30">
    <path clip-path="url(#pa36c862482)" d="M 2.769816 24.449121 
L 2.769816 24.449121 
L 3.934775 24.051252 
L 5.099734 23.653383 
L 6.264692 23.255513 
L 7.429651 22.857644 
L 8.200228 22.818669 
L 8.736281 22.821267 
L 9.579219 22.488113 
L 10.422156 22.154958 
L 11.265094 21.821803 
L 12.108032 21.488649 
L 12.95097 21.155494 
L 13.793908 20.822339 
L 14.636846 20.489184 
L 15.479783 20.15603 
L 16.322721 19.822875 
L 17.165659 19.48972 
L 18.008597 19.156566 
L 18.851535 18.823411 
L 19.694473 18.490256 
L 20.53741 18.157102 
L 21.380348 17.823947 
L 22.223286 17.490792 
L 23.066224 17.157637 
L 23.909162 16.824483 
L 24.7521 16.491328 
L 25.595037 16.158173 
L 26.437975 15.825019 
L 27.280913 15.491864 
L 28.123851 15.158709 
L 28.966789 14.825555 
L 29.809727 14.4924 
L 30.652665 14.159245 
L 31.495602 13.82609 
L 32.33854 13.492936 
L 33.181478 13.159781 
L 34.024416 12.826626 
L 34.867354 12.493472 
L 35.710292 12.160317 
L 34.737498 11.177498 
L 33.764705 10.19468 
L 32.791912 9.211861 
L 31.819119 8.229043 
L 30.843454 8.360583 
L 29.867789 8.492124 
L 28.892124 8.623664 
L 27.916459 8.755205 
L 26.991767 8.781188 
L 26.090049 9.271948 
L 25.188331 9.762707 
L 24.286613 10.253467 
L 23.384895 10.744227 
L 22.165373 10.603917 
L 21.045165 10.953717 
L 19.924958 11.303517 
L 18.80475 11.653318 
L 17.684542 12.003118 
L 16.355896 12.272695 
L 15.027249 12.542272 
L 14.2057 12.888824 
L 13.38415 13.235376 
L 12.562601 13.581929 
L 11.741051 13.928481 
L 10.60816 14.791776 
L 9.475269 15.655072 
L 8.342377 16.518367 
L 7.209486 17.381662 
L 6.076595 18.244958 
L 4.943704 19.108253 
L 3.810812 19.971548 
L 2.677921 20.834844 
z
" style="fill:#4169e1;opacity:0.1;"/>
   </g>
   <g id="patch_31">
    <path clip-path="url(#pa36c862482)" d="M 2.769816 24.449121 
L 2.769816 24.449121 
L 3.934775 24.051252 
L 5.099734 23.653383 
L 6.264692 23.255513 
L 7.429651 22.857644 
L 8.200228 22.818669 
L 8.736281 22.821267 
L 9.579219 22.488113 
L 10.422156 22.154958 
L 11.265094 21.821803 
L 12.108032 21.488649 
L 12.95097 21.155494 
L 13.793908 20.822339 
L 14.636846 20.489184 
L 15.479783 20.15603 
L 16.322721 19.822875 
L 17.165659 19.48972 
L 18.008597 19.156566 
L 18.851535 18.823411 
L 19.694473 18.490256 
L 20.53741 18.157102 
L 21.380348 17.823947 
L 22.223286 17.490792 
L 23.066224 17.157637 
L 23.909162 16.824483 
L 24.7521 16.491328 
L 25.595037 16.158173 
L 26.437975 15.825019 
L 27.280913 15.491864 
L 28.123851 15.158709 
L 28.966789 14.825555 
L 29.809727 14.4924 
L 30.652665 14.159245 
L 31.495602 13.82609 
L 32.33854 13.492936 
L 33.181478 13.159781 
L 34.024416 12.826626 
L 34.867354 12.493472 
L 35.710292 12.160317 
L 34.737498 11.177498 
L 33.764705 10.19468 
L 32.791912 9.211861 
L 31.819119 8.229043 
L 30.843454 8.360583 
L 29.867789 8.492124 
L 28.892124 8.623664 
L 27.916459 8.755205 
L 26.991767 8.781188 
L 26.090049 9.271948 
L 25.188331 9.762707 
L 24.286613 10.253467 
L 23.384895 10.744227 
L 22.165373 10.603917 
L 21.045165 10.953717 
L 19.924958 11.303517 
L 18.80475 11.653318 
L 17.684542 12.003118 
L 16.355896 12.272695 
L 15.027249 12.542272 
L 14.2057 12.888824 
L 13.38415 13.235376 
L 12.562601 13.581929 
L 11.741051 13.928481 
L 10.60816 14.791776 
L 9.475269 15.655072 
L 8.342377 16.518367 
L 7.209486 17.381662 
L 6.076595 18.244958 
L 4.943704 19.108253 
L 3.810812 19.971548 
L 2.677921 20.834844 
z
" style="fill:none;stroke:#4169e1;stroke-linejoin:miter;stroke-width:0.4;"/>
   </g>
   <g id="patch_32">
    <path clip-path="url(#pa36c862482)" d="M 37.374928 8.258924 
L 37.374928 8.258924 
L 36.207337 7.500211 
L 35.039746 6.741499 
L 33.872155 5.982786 
L 32.704564 5.224074 
L 31.651842 4.736237 
L 30.599119 4.2484 
L 29.546396 3.760564 
L 28.493674 3.272727 
L 27.774788 4.634252 
L 28.494153 5.340349 
L 29.213517 6.046445 
L 30.073595 6.283868 
L 30.933674 6.52129 
L 31.793752 6.758713 
L 32.65383 6.996135 
L 33.282736 7.617786 
L 33.911641 8.239436 
z
" style="fill:#008000;opacity:0.1;"/>
   </g>
   <g id="patch_33">
    <path clip-path="url(#pa36c862482)" d="M 37.374928 8.258924 
L 37.374928 8.258924 
L 36.207337 7.500211 
L 35.039746 6.741499 
L 33.872155 5.982786 
L 32.704564 5.224074 
L 31.651842 4.736237 
L 30.599119 4.2484 
L 29.546396 3.760564 
L 28.493674 3.272727 
L 27.774788 4.634252 
L 28.494153 5.340349 
L 29.213517 6.046445 
L 30.073595 6.283868 
L 30.933674 6.52129 
L 31.793752 6.758713 
L 32.65383 6.996135 
L 33.282736 7.617786 
L 33.911641 8.239436 
z
" style="fill:none;stroke:#008000;stroke-linejoin:miter;stroke-width:0.4;"/>
   </g>
   <g id="patch_34">
    <path clip-path="url(#pa36c862482)" d="M 29.213517 6.046445 
L 29.213517 6.046445 
L 27.711132 6.829192 
L 26.208747 7.611939 
L 25.502784 8.395011 
L 24.796821 9.178083 
L 24.090858 9.961155 
L 23.384895 10.744227 
L 22.165373 10.603917 
L 22.666009 9.024132 
L 23.490669 8.315437 
L 24.31533 7.606743 
L 25.13999 6.898048 
L 25.964651 6.189353 
L 26.86972 5.411803 
L 27.774788 4.634252 
z
" style="fill:#4169e1;opacity:0.1;"/>
   </g>
   <g id="patch_35">
    <path clip-path="url(#pa36c862482)" d="M 29.213517 6.046445 
L 29.213517 6.046445 
L 27.711132 6.829192 
L 26.208747 7.611939 
L 25.502784 8.395011 
L 24.796821 9.178083 
L 24.090858 9.961155 
L 23.384895 10.744227 
L 22.165373 10.603917 
L 22.666009 9.024132 
L 23.490669 8.315437 
L 24.31533 7.606743 
L 25.13999 6.898048 
L 25.964651 6.189353 
L 26.86972 5.411803 
L 27.774788 4.634252 
z
" style="fill:none;stroke:#4169e1;stroke-dasharray:1.48,0.64;stroke-dashoffset:0;stroke-linejoin:miter;stroke-width:0.4;"/>
   </g>
   <g id="patch_36">
    <path clip-path="url(#pa36c862482)" d="M 22.165373 10.603917 
L 22.165373 10.603917 
L 21.02291 9.807529 
L 19.880446 9.01114 
L 18.647523 8.677255 
L 17.530905 9.165091 
L 16.414287 9.652928 
L 15.560431 10.205073 
L 14.706574 10.757218 
L 13.242958 10.994966 
L 11.779341 11.232713 
L 12.402024 10.526617 
L 13.024707 9.82052 
L 13.647391 9.114424 
L 14.270074 8.408328 
L 15.271345 8.960473 
L 16.664126 8.292702 
L 18.056908 7.624931 
L 19.622949 7.39368 
L 20.689312 7.882166 
L 21.214836 8.742213 
L 22.666009 9.024132 
z
" style="fill:#4169e1;opacity:0.1;"/>
   </g>
   <g id="patch_37">
    <path clip-path="url(#pa36c862482)" d="M 22.165373 10.603917 
L 22.165373 10.603917 
L 21.02291 9.807529 
L 19.880446 9.01114 
L 18.647523 8.677255 
L 17.530905 9.165091 
L 16.414287 9.652928 
L 15.560431 10.205073 
L 14.706574 10.757218 
L 13.242958 10.994966 
L 11.779341 11.232713 
L 12.402024 10.526617 
L 13.024707 9.82052 
L 13.647391 9.114424 
L 14.270074 8.408328 
L 15.271345 8.960473 
L 16.664126 8.292702 
L 18.056908 7.624931 
L 19.622949 7.39368 
L 20.689312 7.882166 
L 21.214836 8.742213 
L 22.666009 9.024132 
z
" style="fill:none;stroke:#4169e1;stroke-linejoin:miter;stroke-width:0.4;"/>
   </g>
   <g id="line2d_1">
    <path clip-path="url(#pa36c862482)" d="M 38.9582 65.99253 
L 39.362155 61.58706 
L 39.403316 61.144045 
L 39.813014 56.686609 
L 40.340452 50.935204 
L 40.665913 47.39238 
L 40.991374 43.849557 
L 41.266101 40.854981 
L 41.540828 37.860405 
L 41.825607 34.758972 
L 42.110385 31.65754 
L 42.395163 28.556108 
L 42.679942 25.454675 
L 42.847458 23.630647 
L 43.072409 21.176524 
L 43.19015 19.896846 
" style="fill:none;stroke:#808080;stroke-linecap:square;stroke-width:0.4;"/>
   </g>
   <g id="line2d_2">
    <path clip-path="url(#pa36c862482)" d="M 4.102291 24.65439 
L 8.736281 22.821267 
L 8.876038 22.766702 
L 12.017693 21.52535 
L 15.159348 20.283998 
L 19.219473 18.678879 
L 23.279598 17.07376 
L 27.748943 15.308194 
L 32.520774 13.421806 
L 35.710292 12.160317 
L 36.638812 11.793952 
" style="fill:none;stroke:#808080;stroke-linecap:square;stroke-width:0.4;"/>
   </g>
   <g id="line2d_3">
    <path clip-path="url(#pa36c862482)" d="M 27.640775 62.513365 
L 28.053344 61.133652 
L 29.428895 56.526812 
L 30.532112 52.936568 
L 31.635329 49.346325 
L 32.542312 46.39657 
L 33.449295 43.446815 
L 34.634835 39.588295 
L 35.820374 35.729774 
L 36.866156 32.327909 
L 37.911939 28.926045 
L 39.21474 24.688168 
L 40.698459 19.85917 
L 40.967443 18.984832 
" style="fill:none;stroke:#808080;stroke-linecap:square;stroke-width:0.4;"/>
   </g>
   <g id="line2d_4">
    <path clip-path="url(#pa36c862482)" d="M 9.514515 32.294781 
L 12.273275 30.668226 
L 15.02342 29.048167 
L 17.974585 27.308584 
L 22.757904 24.489396 
L 27.130567 21.913151 
L 31.79806 19.161519 
L 34.843034 17.367371 
L 36.90301 16.153951 
L 38.187624 15.396538 
" style="fill:none;stroke:#808080;stroke-linecap:square;stroke-width:0.4;"/>
   </g>
   <g id="line2d_5">
    <path clip-path="url(#pa36c862482)" d="M 14.394515 43.39225 
L 18.203365 40.180714 
" style="fill:none;stroke:#808080;stroke-linecap:square;stroke-width:0.4;"/>
   </g>
   <g id="line2d_6">
    <path clip-path="url(#pa36c862482)" d="M 33.386118 62.310695 
L 34.978004 59.008217 
" style="fill:none;stroke:#808080;stroke-linecap:square;stroke-width:0.4;"/>
   </g>
   <g id="line2d_7">
    <path clip-path="url(#pa36c862482)" d="M 18.820784 53.72711 
L 20.841513 49.776349 
L 22.862243 45.825587 
" style="fill:none;stroke:#808080;stroke-linecap:square;stroke-width:0.4;"/>
   </g>
   <g id="line2d_8">
    <path clip-path="url(#pa36c862482)" d="M 14.241357 47.374192 
L 17.571109 44.837572 
L 20.900862 42.300952 
" style="fill:none;stroke:#808080;stroke-linecap:square;stroke-width:0.4;"/>
   </g>
   <g id="line2d_9">
    <path clip-path="url(#pa36c862482)" d="M 14.44142 47.702881 
L 17.821427 45.173406 
L 21.201435 42.643931 
" style="fill:none;stroke:#808080;stroke-linecap:square;stroke-width:0.4;"/>
   </g>
   <g id="line2d_10">
    <path clip-path="url(#pa36c862482)" d="M 11.565876 39.247913 
L 13.71009 38.066972 
" style="fill:none;stroke:#808080;stroke-linecap:square;stroke-width:0.4;"/>
   </g>
  </g>
 </g>
 <defs>
  <clipPath id="pa36c862482">
   <rect height="72" width="58.914268" x="0" y="0"/>
  </clipPath>
 </defs>
</svg>
