<?xml version="1.0" encoding="utf-8" standalone="no"?>
<!DOCTYPE svg PUBLIC "-//W3C//DTD SVG 1.1//EN"
  "http://www.w3.org/Graphics/SVG/1.1/DTD/svg11.dtd">
<svg height="71.39356pt" version="1.1" viewBox="0 0 72 71.39356" width="72pt" xmlns="http://www.w3.org/2000/svg" xmlns:xlink="http://www.w3.org/1999/xlink">
 <metadata>
  <rdf:RDF xmlns:cc="http://creativecommons.org/ns#" xmlns:dc="http://purl.org/dc/elements/1.1/" xmlns:rdf="http://www.w3.org/1999/02/22-rdf-syntax-ns#">
   <cc:Work>
    <dc:type rdf:resource="http://purl.org/dc/dcmitype/StillImage"/>
    <dc:date>2022-04-19T00:47:46.749920</dc:date>
    <dc:format>image/svg+xml</dc:format>
    <dc:creator>
     <cc:Agent>
      <dc:title>Matplotlib v3.4.3, https://matplotlib.org/</dc:title>
     </cc:Agent>
    </dc:creator>
   </cc:Work>
  </rdf:RDF>
 </metadata>
 <defs>
  <style type="text/css">*{stroke-linecap:butt;stroke-linejoin:round;}</style>
 </defs>
 <g id="figure_1">
  <g id="patch_1">
   <path d="M 0 71.39356 
L 72 71.39356 
L 72 0 
L 0 0 
z
" style="fill:#ffffff;"/>
  </g>
  <g id="axes_1">
   <g id="patch_2">
    <path clip-path="url(#p07de985684)" d="M 11.566818 21.582618 
L 11.566818 21.582618 
L 10.650408 23.17573 
L 10.591579 24.62239 
L 10.53275 26.06905 
L 10.915554 27.406169 
L 11.298358 28.743287 
L 13.492439 28.430142 
L 15.282173 27.557383 
L 17.071907 26.684625 
L 16.803447 24.671207 
L 15.550633 23.10429 
z
" style="fill:#4169e1;opacity:0.1;"/>
   </g>
   <g id="patch_3">
    <path clip-path="url(#p07de985684)" d="M 11.566818 21.582618 
L 11.566818 21.582618 
L 10.650408 23.17573 
L 10.591579 24.62239 
L 10.53275 26.06905 
L 10.915554 27.406169 
L 11.298358 28.743287 
L 13.492439 28.430142 
L 15.282173 27.557383 
L 17.071907 26.684625 
L 16.803447 24.671207 
L 15.550633 23.10429 
z
" style="fill:none;stroke:#4169e1;stroke-dasharray:1.48,0.64;stroke-dashoffset:0;stroke-linejoin:miter;stroke-width:0.4;"/>
   </g>
   <g id="line2d_1">
    <path clip-path="url(#p07de985684)" d="M 56.848743 57.989631 
L 53.720644 54.239478 
L 50.592546 50.489324 
L 47.464447 46.739171 
L 44.336348 42.989018 
L 41.20825 39.238864 
L 38.080151 35.488711 
L 34.952053 31.738558 
L 31.823954 27.988405 
L 27.94454 22.591113 
L 24.065126 17.193821 
L 20.185713 11.796529 
L 16.306299 6.399238 
" style="fill:none;stroke:#808080;stroke-linecap:square;stroke-width:0.4;"/>
   </g>
   <g id="line2d_2">
    <path clip-path="url(#p07de985684)" d="M 55.748388 58.437322 
L 51.955146 53.76842 
L 48.161905 49.099519 
L 44.368663 44.430617 
L 40.575422 39.761716 
L 37.158356 36.040883 
L 33.74129 32.32005 
L 31.234834 29.302305 
L 28.728378 26.284561 
" style="fill:none;stroke:#808080;stroke-linecap:square;stroke-width:0.4;"/>
   </g>
   <g id="line2d_3">
    <path clip-path="url(#p07de985684)" d="M 47.711157 68.148398 
L 41.660033 65.253888 
L 35.60891 62.359377 
" style="fill:none;stroke:#808080;stroke-linecap:square;stroke-width:0.4;"/>
   </g>
   <g id="line2d_4">
    <path clip-path="url(#p07de985684)" d="M 51.159709 23.391241 
L 52.414594 23.696349 
L 53.669479 24.001457 
L 54.924364 24.306566 
L 56.17925 24.611674 
L 57.467692 25.663033 
L 58.756135 26.714391 
L 59.756646 27.562444 
L 60.757157 28.410496 
L 61.757668 29.258548 
L 62.758179 30.1066 
L 63.606231 31.276728 
L 64.454283 32.446856 
L 65.302335 33.616983 
L 66.150387 34.787111 
L 67.234999 36.346884 
L 68.319611 37.906657 
L 68.523442 39.636696 
L 68.727273 41.366734 
" style="fill:none;stroke:#4169e1;stroke-linecap:square;stroke-width:0.4;"/>
   </g>
   <g id="line2d_5">
    <path clip-path="url(#p07de985684)" d="M 51.159709 23.391241 
L 51.532984 24.476533 
L 51.90626 25.561826 
L 52.279535 26.647119 
L 52.652811 27.732411 
L 53.483463 29.105845 
L 54.314115 30.479279 
L 55.144767 31.852713 
L 55.975419 33.226147 
L 56.924972 34.955888 
L 57.874525 36.685629 
L 58.824079 38.41537 
L 59.773632 40.145111 
L 60.689213 41.518842 
L 61.604795 42.892574 
L 62.520376 44.266305 
L 63.435958 45.640037 
L 63.638131 46.792602 
L 63.911563 48.352375 
" style="fill:none;stroke:#4169e1;stroke-linecap:square;stroke-width:0.4;"/>
   </g>
   <g id="line2d_6">
    <path clip-path="url(#p07de985684)" d="M 17.110022 6.907652 
L 18.313949 7.424997 
L 19.517877 7.942342 
L 20.721804 8.459686 
L 21.925732 8.977031 
L 23.129659 9.256838 
L 24.333587 9.536644 
L 25.537514 9.816451 
L 26.741441 10.096257 
L 28.289644 10.529065 
L 29.837847 10.961872 
L 31.386049 11.394679 
L 32.934252 11.827487 
L 34.745529 12.334711 
L 36.135887 13.589673 
L 37.526245 14.844636 
L 39.39138 15.692391 
L 41.256515 16.540145 
L 42.528386 17.235494 
L 43.800257 17.930844 
L 45.072128 18.626193 
L 46.343999 19.321542 
L 47.547926 20.338967 
L 48.751854 21.356392 
L 49.955781 22.373816 
L 51.159709 23.391241 
" style="fill:none;stroke:#008000;stroke-linecap:square;stroke-width:0.4;"/>
   </g>
   <g id="line2d_7">
    <path clip-path="url(#p07de985684)" d="M 17.110022 6.907652 
L 18.568323 6.195634 
L 20.026625 5.483615 
L 21.688343 4.924002 
L 23.350061 4.364388 
L 25.01178 3.804775 
L 26.673498 3.245162 
L 27.894826 3.516634 
L 29.116153 3.788106 
L 30.200765 4.432256 
L 31.285377 5.076407 
L 31.997956 5.958096 
L 32.710535 6.839784 
L 32.788422 8.56387 
L 32.866309 10.287955 
L 32.934252 11.827487 
" style="fill:none;stroke:#008000;stroke-linecap:square;stroke-width:0.4;"/>
   </g>
   <g id="line2d_8">
    <path clip-path="url(#p07de985684)" d="M 17.110022 6.907652 
L 17.904216 7.85959 
L 18.698411 8.811528 
L 19.492605 9.763466 
L 20.286799 10.715404 
L 21.080994 11.667342 
L 21.875188 12.61928 
L 22.669383 13.571218 
L 23.463577 14.523156 
L 24.518826 15.787942 
L 25.574075 17.052727 
L 26.629324 18.317513 
L 27.684573 19.582298 
L 28.739822 20.847084 
L 29.795071 22.11187 
L 30.85032 23.376655 
L 31.905569 24.641441 
L 32.960818 25.906226 
L 34.016068 27.171012 
L 35.071317 28.435798 
L 36.126566 29.700583 
L 37.181815 30.965369 
L 38.237064 32.230154 
L 39.292313 33.49494 
L 40.347562 34.759726 
L 41.402811 36.024511 
L 42.45806 37.289297 
L 43.513309 38.554082 
L 44.568558 39.818868 
L 45.623807 41.083654 
L 46.679056 42.348439 
L 47.734305 43.613225 
L 48.789554 44.87801 
L 49.844803 46.142796 
L 50.900052 47.407582 
L 51.955302 48.672367 
L 53.010551 49.937153 
L 54.0658 51.201938 
L 55.121049 52.466724 
L 56.176298 53.73151 
L 57.231547 54.996295 
L 57.773438 55.645208 
" style="fill:none;stroke:#4169e1;stroke-linecap:square;stroke-width:0.4;"/>
   </g>
   <g id="line2d_9">
    <path clip-path="url(#p07de985684)" d="M 17.110022 6.907652 
L 16.296356 7.857804 
L 15.752807 8.536484 
L 14.498336 9.282437 
L 13.243865 10.028389 
L 11.899907 10.196273 
L 10.671951 10.349869 
L 9.443995 10.503465 
L 8.360212 10.096257 
L 6.766023 11.52089 
L 5.171834 12.945523 
L 4.323367 14.403494 
L 3.474901 15.861465 
L 3.373814 17.286098 
L 3.272727 18.71073 
L 3.475729 20.711646 
L 3.678732 22.712561 
L 4.527198 24.103259 
L 5.375665 25.493958 
L 6.52822 26.681053 
L 7.680776 27.868147 
L 8.902103 28.44443 
L 10.123431 29.020712 
L 12.022537 29.360052 
L 13.243036 29.326118 
L 14.463536 29.292184 
L 15.938823 29.25825 
L 17.414111 29.224316 
L 18.889398 29.190382 
L 20.364686 29.156448 
" style="fill:none;stroke:#008000;stroke-linecap:square;stroke-width:0.4;"/>
   </g>
   <g id="line2d_10">
    <path clip-path="url(#p07de985684)" d="M 17.110022 6.907652 
L 16.872633 8.128681 
L 16.635245 9.34971 
L 16.397857 10.570738 
L 16.160468 11.791767 
L 16.160468 13.385772 
L 16.160468 14.979777 
L 16.160468 16.573781 
L 16.160468 18.167786 
L 16.306299 19.734704 
L 16.452129 21.301621 
L 16.634416 23.255505 
L 17.566984 24.730741 
L 18.499551 26.205977 
L 19.432119 27.681213 
L 20.364686 29.156448 
L 22.043804 29.037679 
L 23.722923 28.91891 
L 25.402041 28.800141 
L 27.081159 28.681372 
" style="fill:none;stroke:#4169e1;stroke-linecap:square;stroke-width:0.4;"/>
   </g>
   <g id="line2d_11">
    <path clip-path="url(#p07de985684)" d="M 23.463577 14.523156 
L 23.616864 15.835866 
L 23.770152 17.148576 
L 23.933382 18.53987 
L 24.096612 19.931164 
L 24.728405 21.783841 
L 25.360198 23.636518 
L 25.99199 25.489195 
L 26.623783 27.341873 
L 27.081159 28.681372 
" style="fill:none;stroke:#4169e1;stroke-linecap:square;stroke-width:0.4;"/>
   </g>
   <g id="line2d_12">
    <path clip-path="url(#p07de985684)" d="M 27.081159 28.681372 
L 28.123514 29.907461 
L 29.165868 31.13355 
L 30.208222 32.359639 
L 31.250577 33.585728 
L 32.291895 34.810552 
L 33.333214 36.035376 
L 34.374532 37.2602 
L 35.415851 38.485024 
L 36.457169 39.709847 
L 37.498488 40.934671 
L 38.539806 42.159495 
L 39.581125 43.384319 
L 40.622443 44.609143 
L 41.663762 45.833967 
L 42.705081 47.058791 
L 43.746399 48.283614 
L 44.787718 49.508438 
L 45.829036 50.733262 
L 46.870355 51.958086 
L 47.911673 53.18291 
L 49.401875 54.841211 
L 50.892077 56.499512 
L 52.382279 58.157813 
L 53.872481 59.816114 
" style="fill:none;stroke:#4169e1;stroke-linecap:square;stroke-width:0.4;"/>
   </g>
   <g id="line2d_13">
    <path clip-path="url(#p07de985684)" d="M 31.250577 33.585728 
L 30.852444 34.954399 
L 30.454311 36.323071 
L 30.056178 37.691742 
L 29.658045 39.060413 
L 29.354784 40.577323 
L 29.051524 42.094232 
L 28.812064 43.290256 
L 28.572604 44.486281 
L 29.996934 46.148452 
L 31.421264 47.810622 
L 32.353831 48.929849 
L 33.286399 50.049075 
L 34.218966 51.168302 
L 35.151534 52.287529 
L 36.406419 52.864109 
L 37.661304 53.440689 
L 38.916189 54.017269 
L 40.171074 54.59385 
L 42.106224 54.241115 
L 44.041374 53.88838 
L 45.976524 53.535645 
L 47.911673 53.18291 
" style="fill:none;stroke:#4169e1;stroke-linecap:square;stroke-width:0.4;"/>
   </g>
   <g id="line2d_14">
    <path clip-path="url(#p07de985684)" d="M 28.572604 44.486281 
L 28.075456 46.043673 
L 27.555108 47.674886 
L 27.352105 48.895915 
L 27.149103 50.116943 
L 27.826882 52.151793 
L 28.708492 52.863811 
L 29.590101 53.57583 
L 31.18429 54.08484 
L 32.778479 54.59385 
L 34.333725 54.59385 
L 35.88897 54.59385 
L 37.444216 54.59385 
L 38.999461 54.59385 
L 40.171074 54.59385 
" style="fill:none;stroke:#000000;stroke-linecap:square;stroke-width:0.4;"/>
   </g>
   <g id="line2d_15">
    <path clip-path="url(#p07de985684)" d="M 35.85417 60.860328 
L 37.377308 61.501353 
L 38.900446 62.142378 
L 40.423584 62.783404 
L 41.946722 63.424429 
L 43.46986 64.065454 
L 44.992998 64.706479 
L 46.516137 65.347504 
L 48.039275 65.988529 
" style="fill:none;stroke:#008000;stroke-linecap:square;stroke-width:0.4;"/>
   </g>
   <g id="line2d_16">
    <path clip-path="url(#p07de985684)" d="M 68.727273 41.366734 
L 68.048665 42.892574 
L 67.370058 44.418413 
L 66.505434 45.401904 
L 65.64081 46.385394 
L 64.776187 47.368885 
L 63.911563 48.352375 
" style="fill:none;stroke:#008000;stroke-linecap:square;stroke-width:0.4;"/>
   </g>
   <g id="line2d_17">
    <path clip-path="url(#p07de985684)" d="M 63.911563 48.352375 
L 63.23337 49.319197 
L 62.555177 50.286018 
L 61.876983 51.252839 
L 61.19879 52.219661 
L 60.342452 53.076048 
L 59.486114 53.932434 
L 58.629776 54.788821 
L 57.773438 55.645208 
L 56.789085 56.628699 
" style="fill:none;stroke:#008000;stroke-linecap:square;stroke-width:0.4;"/>
   </g>
   <g id="line2d_18">
    <path clip-path="url(#p07de985684)" d="M 48.039275 65.988529 
L 48.867027 65.113389 
L 49.694779 64.238249 
L 49.747808 64.182288 
L 50.778976 63.090744 
L 51.810145 61.999201 
L 52.841313 60.907657 
L 53.872481 59.816114 
" style="fill:none;stroke:#008000;stroke-linecap:square;stroke-width:0.4;"/>
   </g>
   <g id="line2d_19">
    <path clip-path="url(#p07de985684)" d="M 11.899907 10.196273 
L 12.045738 10.934487 
L 12.276912 12.1192 
L 12.508086 13.303913 
L 12.798917 14.422545 
L 13.089749 15.541176 
L 13.380581 16.659807 
L 13.671413 17.778438 
L 14.537279 18.875638 
L 15.403146 19.972837 
L 16.452129 21.301621 
" style="fill:none;stroke:#008000;stroke-linecap:square;stroke-width:0.4;"/>
   </g>
  </g>
 </g>
 <defs>
  <clipPath id="p07de985684">
   <rect height="71.39356" width="72" x="0" y="0"/>
  </clipPath>
 </defs>
</svg>
