<?xml version="1.0" encoding="utf-8" standalone="no"?>
<!DOCTYPE svg PUBLIC "-//W3C//DTD SVG 1.1//EN"
  "http://www.w3.org/Graphics/SVG/1.1/DTD/svg11.dtd">
<svg height="72pt" version="1.1" viewBox="0 0 51.058508 72" width="51.058508pt" xmlns="http://www.w3.org/2000/svg" xmlns:xlink="http://www.w3.org/1999/xlink">
 <metadata>
  <rdf:RDF xmlns:cc="http://creativecommons.org/ns#" xmlns:dc="http://purl.org/dc/elements/1.1/" xmlns:rdf="http://www.w3.org/1999/02/22-rdf-syntax-ns#">
   <cc:Work>
    <dc:type rdf:resource="http://purl.org/dc/dcmitype/StillImage"/>
    <dc:date>2022-04-19T00:50:27.615350</dc:date>
    <dc:format>image/svg+xml</dc:format>
    <dc:creator>
     <cc:Agent>
      <dc:title>Matplotlib v3.4.3, https://matplotlib.org/</dc:title>
     </cc:Agent>
    </dc:creator>
   </cc:Work>
  </rdf:RDF>
 </metadata>
 <defs>
  <style type="text/css">*{stroke-linecap:butt;stroke-linejoin:round;}</style>
 </defs>
 <g id="figure_1">
  <g id="patch_1">
   <path d="M 0 72 
L 51.058508 72 
L 51.058508 0 
L 0 0 
z
" style="fill:#ffffff;"/>
  </g>
  <g id="axes_1">
   <g id="patch_2">
    <path clip-path="url(#p04cc387508)" d="M 24.49696 34.53915 
L 24.49696 34.53915 
L 24.058405 34.459721 
L 23.619851 34.380291 
L 23.181296 34.300862 
L 22.742741 34.221433 
L 22.304186 34.142003 
L 21.865631 34.062574 
L 21.427077 33.983144 
L 20.988522 33.903715 
L 20.491252 33.768982 
L 19.993983 33.634249 
L 19.768136 33.573176 
L 19.793646 32.988557 
L 20.225781 32.594614 
L 20.657916 32.200672 
L 21.051956 32.16256 
L 21.445996 32.124448 
L 21.840037 32.086336 
L 22.234077 32.048224 
L 22.653627 32.060811 
L 23.073177 32.073399 
L 23.518067 31.806497 
L 23.962957 31.539595 
L 24.280808 31.488779 
L 24.598659 31.437963 
L 24.763792 32.035403 
L 24.928925 32.632843 
L 24.878076 32.988673 
L 24.827226 33.344503 
L 24.776377 33.700333 
L 24.725527 34.056163 
z
" style="fill:#ff0000;opacity:0.1;"/>
   </g>
   <g id="patch_3">
    <path clip-path="url(#p04cc387508)" d="M 24.49696 34.53915 
L 24.49696 34.53915 
L 24.058405 34.459721 
L 23.619851 34.380291 
L 23.181296 34.300862 
L 22.742741 34.221433 
L 22.304186 34.142003 
L 21.865631 34.062574 
L 21.427077 33.983144 
L 20.988522 33.903715 
L 20.491252 33.768982 
L 19.993983 33.634249 
L 19.768136 33.573176 
L 19.793646 32.988557 
L 20.225781 32.594614 
L 20.657916 32.200672 
L 21.051956 32.16256 
L 21.445996 32.124448 
L 21.840037 32.086336 
L 22.234077 32.048224 
L 22.653627 32.060811 
L 23.073177 32.073399 
L 23.518067 31.806497 
L 23.962957 31.539595 
L 24.280808 31.488779 
L 24.598659 31.437963 
L 24.763792 32.035403 
L 24.928925 32.632843 
L 24.878076 32.988673 
L 24.827226 33.344503 
L 24.776377 33.700333 
L 24.725527 34.056163 
z
" style="fill:none;stroke:#ff0000;stroke-dasharray:1.48,0.64;stroke-dashoffset:0;stroke-linejoin:miter;stroke-width:0.4;"/>
   </g>
   <g id="patch_4">
    <path clip-path="url(#p04cc387508)" d="M 24.025881 41.541998 
L 24.025881 41.541998 
L 23.883281 41.986406 
L 23.740682 42.430815 
L 23.598082 42.875224 
L 23.455483 43.319633 
L 23.426104 43.680183 
L 23.396726 44.040733 
L 23.367347 44.401284 
L 23.337968 44.761834 
L 23.308589 45.122384 
L 23.279211 45.482935 
L 23.249832 45.843485 
L 23.220453 46.204035 
L 23.291753 46.640052 
L 23.363053 47.07607 
L 23.434352 47.512087 
L 23.505652 47.948104 
L 23.576952 48.384121 
L 23.648251 48.820138 
L 23.719551 49.256155 
L 23.790851 49.692172 
L 23.86619 50.256628 
L 23.941528 50.821085 
L 24.016867 51.385541 
L 24.092206 51.949997 
L 24.085828 52.337646 
L 24.079451 52.725294 
L 24.073074 53.112942 
L 24.066696 53.500591 
L 23.634476 53.055716 
L 23.202256 52.610841 
L 22.770036 52.165966 
L 22.337817 51.721091 
L 22.08357 51.498712 
L 21.829323 51.276333 
L 21.575076 51.053953 
L 21.320829 50.831574 
L 21.37644 50.487982 
L 21.432051 50.14439 
L 21.487662 49.800798 
L 21.543274 49.457205 
L 21.53494 48.903822 
L 21.526607 48.350438 
L 21.518274 47.797054 
L 21.509941 47.24367 
L 21.484771 46.899845 
L 21.459602 46.556019 
L 21.434432 46.212194 
L 21.409262 45.868369 
L 21.396678 45.537189 
L 21.384093 45.20601 
L 21.371508 44.87483 
L 21.358923 44.543651 
L 21.346338 44.212471 
L 21.333754 43.881292 
L 21.321169 43.550112 
L 21.308584 43.218933 
L 21.258245 42.665549 
L 21.207906 42.112165 
L 21.602031 42.070206 
L 21.996156 42.028248 
L 22.390282 41.98629 
L 22.784407 41.944331 
z
" style="fill:#ff0000;opacity:0.1;"/>
   </g>
   <g id="patch_5">
    <path clip-path="url(#p04cc387508)" d="M 24.025881 41.541998 
L 24.025881 41.541998 
L 23.883281 41.986406 
L 23.740682 42.430815 
L 23.598082 42.875224 
L 23.455483 43.319633 
L 23.426104 43.680183 
L 23.396726 44.040733 
L 23.367347 44.401284 
L 23.337968 44.761834 
L 23.308589 45.122384 
L 23.279211 45.482935 
L 23.249832 45.843485 
L 23.220453 46.204035 
L 23.291753 46.640052 
L 23.363053 47.07607 
L 23.434352 47.512087 
L 23.505652 47.948104 
L 23.576952 48.384121 
L 23.648251 48.820138 
L 23.719551 49.256155 
L 23.790851 49.692172 
L 23.86619 50.256628 
L 23.941528 50.821085 
L 24.016867 51.385541 
L 24.092206 51.949997 
L 24.085828 52.337646 
L 24.079451 52.725294 
L 24.073074 53.112942 
L 24.066696 53.500591 
L 23.634476 53.055716 
L 23.202256 52.610841 
L 22.770036 52.165966 
L 22.337817 51.721091 
L 22.08357 51.498712 
L 21.829323 51.276333 
L 21.575076 51.053953 
L 21.320829 50.831574 
L 21.37644 50.487982 
L 21.432051 50.14439 
L 21.487662 49.800798 
L 21.543274 49.457205 
L 21.53494 48.903822 
L 21.526607 48.350438 
L 21.518274 47.797054 
L 21.509941 47.24367 
L 21.484771 46.899845 
L 21.459602 46.556019 
L 21.434432 46.212194 
L 21.409262 45.868369 
L 21.396678 45.537189 
L 21.384093 45.20601 
L 21.371508 44.87483 
L 21.358923 44.543651 
L 21.346338 44.212471 
L 21.333754 43.881292 
L 21.321169 43.550112 
L 21.308584 43.218933 
L 21.258245 42.665549 
L 21.207906 42.112165 
L 21.602031 42.070206 
L 21.996156 42.028248 
L 22.390282 41.98629 
L 22.784407 41.944331 
z
" style="fill:none;stroke:#ff0000;stroke-dasharray:1.48,0.64;stroke-dashoffset:0;stroke-linejoin:miter;stroke-width:0.4;"/>
   </g>
   <g id="patch_6">
    <path clip-path="url(#p04cc387508)" d="M 13.09241 46.067904 
L 13.09241 46.067904 
L 12.62048 45.933171 
L 12.14855 45.798438 
L 11.72951 45.605779 
L 11.31047 45.413121 
L 10.89143 45.220462 
L 10.472391 45.027803 
L 10.07733 45.03736 
L 9.682269 45.046918 
L 9.470368 45.470697 
L 9.754547 45.793426 
L 10.038725 46.116156 
L 10.322904 46.438886 
L 10.607082 46.761615 
L 10.838285 46.987957 
L 11.069488 47.214299 
L 11.300692 47.440641 
L 11.531895 47.666983 
L 11.960628 47.970365 
L 12.389362 48.273747 
L 12.818095 48.577129 
L 13.246829 48.880511 
L 13.718759 49.169558 
L 14.190689 49.458604 
L 14.633878 49.651146 
L 14.730135 49.38168 
L 14.604967 48.967458 
L 14.479799 48.553236 
L 14.354631 48.139014 
L 14.229464 47.724792 
L 14.084909 47.223856 
L 13.940353 46.72292 
L 13.670631 46.337836 
z
" style="fill:#008000;opacity:0.1;"/>
   </g>
   <g id="patch_7">
    <path clip-path="url(#p04cc387508)" d="M 13.09241 46.067904 
L 13.09241 46.067904 
L 12.62048 45.933171 
L 12.14855 45.798438 
L 11.72951 45.605779 
L 11.31047 45.413121 
L 10.89143 45.220462 
L 10.472391 45.027803 
L 10.07733 45.03736 
L 9.682269 45.046918 
L 9.470368 45.470697 
L 9.754547 45.793426 
L 10.038725 46.116156 
L 10.322904 46.438886 
L 10.607082 46.761615 
L 10.838285 46.987957 
L 11.069488 47.214299 
L 11.300692 47.440641 
L 11.531895 47.666983 
L 11.960628 47.970365 
L 12.389362 48.273747 
L 12.818095 48.577129 
L 13.246829 48.880511 
L 13.718759 49.169558 
L 14.190689 49.458604 
L 14.633878 49.651146 
L 14.730135 49.38168 
L 14.604967 48.967458 
L 14.479799 48.553236 
L 14.354631 48.139014 
L 14.229464 47.724792 
L 14.084909 47.223856 
L 13.940353 46.72292 
L 13.670631 46.337836 
z
" style="fill:none;stroke:#008000;stroke-dasharray:1.48,0.64;stroke-dashoffset:0;stroke-linejoin:miter;stroke-width:0.4;"/>
   </g>
   <g id="patch_8">
    <path clip-path="url(#p04cc387508)" d="M 29.936655 46.677232 
L 29.936655 46.677232 
L 29.91055 46.189583 
L 29.884445 45.701934 
L 29.85834 45.214285 
L 29.832235 44.726636 
L 29.831853 44.411657 
L 29.83147 44.096678 
L 29.831087 43.781699 
L 29.830705 43.46672 
L 29.830322 43.151741 
L 29.829939 42.836762 
L 29.829557 42.521783 
L 29.829174 42.206804 
L 29.908424 41.61286 
L 30.098897 41.218918 
L 30.670995 41.015653 
L 30.508923 40.570778 
L 30.346852 40.125904 
L 30.18478 39.681029 
L 30.022708 39.236154 
L 29.989545 38.637082 
L 29.956383 38.03801 
L 29.7975 37.761551 
L 29.638616 37.485092 
L 29.479733 37.208633 
L 29.32085 36.932174 
L 29.161967 36.655716 
L 29.003084 36.379257 
L 28.844201 36.102798 
L 28.685318 35.826339 
L 28.522566 35.33869 
L 28.359814 34.851041 
L 28.23252 34.563393 
L 28.105227 34.275745 
L 27.977933 33.988098 
L 27.850639 33.70045 
L 27.795538 33.113965 
L 27.690268 32.704639 
L 27.584998 32.295312 
L 27.414253 31.962442 
L 27.037049 31.583418 
L 27.099633 32.08925 
L 27.162217 32.595081 
L 27.251331 33.148931 
L 27.340445 33.702781 
L 27.429559 34.256631 
L 27.518673 34.810481 
L 27.583723 35.294517 
L 27.648772 35.778553 
L 27.713822 36.262589 
L 27.778872 36.746625 
L 27.833038 37.112654 
L 27.887203 37.478682 
L 27.941369 37.84471 
L 27.995535 38.210738 
L 28.0497 38.576767 
L 28.103866 38.942795 
L 28.158032 39.308823 
L 28.212197 39.674851 
L 28.260326 40.031148 
L 28.308454 40.387444 
L 28.356582 40.74374 
L 28.404711 41.100036 
L 28.544504 41.413092 
L 28.684297 41.726148 
L 28.691525 42.101792 
L 28.698753 42.477435 
L 28.705981 42.853079 
L 28.713208 43.228723 
L 28.816778 43.775347 
L 28.920347 44.321971 
L 29.023917 44.868595 
L 29.127486 45.415219 
L 29.221362 45.723496 
L 29.315238 46.031773 
L 29.409114 46.34005 
L 29.50299 46.648328 
L 29.734278 46.754156 
z
" style="fill:#ff0000;opacity:0.1;"/>
   </g>
   <g id="patch_9">
    <path clip-path="url(#p04cc387508)" d="M 29.936655 46.677232 
L 29.936655 46.677232 
L 29.91055 46.189583 
L 29.884445 45.701934 
L 29.85834 45.214285 
L 29.832235 44.726636 
L 29.831853 44.411657 
L 29.83147 44.096678 
L 29.831087 43.781699 
L 29.830705 43.46672 
L 29.830322 43.151741 
L 29.829939 42.836762 
L 29.829557 42.521783 
L 29.829174 42.206804 
L 29.908424 41.61286 
L 30.098897 41.218918 
L 30.670995 41.015653 
L 30.508923 40.570778 
L 30.346852 40.125904 
L 30.18478 39.681029 
L 30.022708 39.236154 
L 29.989545 38.637082 
L 29.956383 38.03801 
L 29.7975 37.761551 
L 29.638616 37.485092 
L 29.479733 37.208633 
L 29.32085 36.932174 
L 29.161967 36.655716 
L 29.003084 36.379257 
L 28.844201 36.102798 
L 28.685318 35.826339 
L 28.522566 35.33869 
L 28.359814 34.851041 
L 28.23252 34.563393 
L 28.105227 34.275745 
L 27.977933 33.988098 
L 27.850639 33.70045 
L 27.795538 33.113965 
L 27.690268 32.704639 
L 27.584998 32.295312 
L 27.414253 31.962442 
L 27.037049 31.583418 
L 27.099633 32.08925 
L 27.162217 32.595081 
L 27.251331 33.148931 
L 27.340445 33.702781 
L 27.429559 34.256631 
L 27.518673 34.810481 
L 27.583723 35.294517 
L 27.648772 35.778553 
L 27.713822 36.262589 
L 27.778872 36.746625 
L 27.833038 37.112654 
L 27.887203 37.478682 
L 27.941369 37.84471 
L 27.995535 38.210738 
L 28.0497 38.576767 
L 28.103866 38.942795 
L 28.158032 39.308823 
L 28.212197 39.674851 
L 28.260326 40.031148 
L 28.308454 40.387444 
L 28.356582 40.74374 
L 28.404711 41.100036 
L 28.544504 41.413092 
L 28.684297 41.726148 
L 28.691525 42.101792 
L 28.698753 42.477435 
L 28.705981 42.853079 
L 28.713208 43.228723 
L 28.816778 43.775347 
L 28.920347 44.321971 
L 29.023917 44.868595 
L 29.127486 45.415219 
L 29.221362 45.723496 
L 29.315238 46.031773 
L 29.409114 46.34005 
L 29.50299 46.648328 
L 29.734278 46.754156 
z
" style="fill:none;stroke:#ff0000;stroke-dasharray:1.48,0.64;stroke-dashoffset:0;stroke-linejoin:miter;stroke-width:0.4;"/>
   </g>
   <g id="patch_10">
    <path clip-path="url(#p04cc387508)" d="M 44.954063 45.227805 
L 44.954063 45.227805 
L 44.727622 44.775004 
L 44.501181 44.322204 
L 44.274739 43.869403 
L 44.048298 43.416603 
L 43.730447 43.657397 
L 43.412595 43.898191 
L 43.142873 44.370223 
L 42.87315 44.842254 
L 42.714224 45.347969 
L 42.555298 45.853683 
L 42.396373 46.359398 
L 42.237447 46.865112 
L 42.136259 47.375605 
L 42.03507 47.886099 
L 41.933881 48.396592 
L 41.832693 48.907085 
L 41.702678 49.359769 
L 41.572664 49.812453 
L 41.442649 50.265137 
L 41.312634 50.71782 
L 41.062129 51.208966 
L 40.811623 51.700112 
L 40.802015 52.186595 
L 40.792406 52.673079 
L 40.782797 53.159563 
L 40.773189 53.646046 
L 40.734584 53.963881 
L 40.695979 54.281715 
L 40.657374 54.59955 
L 40.61877 54.917384 
L 40.503296 55.379625 
L 40.387822 55.841866 
L 40.214355 56.188722 
L 40.5419 56.323455 
L 40.869445 55.919256 
L 41.148862 55.5724 
L 41.428279 55.225545 
L 41.611268 54.772861 
L 41.794258 54.320177 
L 41.907436 54.019184 
L 42.020614 53.718191 
L 42.133793 53.417199 
L 42.246971 53.116206 
L 42.360149 52.815213 
L 42.473327 52.51422 
L 42.586505 52.213227 
L 42.699683 51.912235 
L 42.738118 51.488455 
L 43.08505 51.228314 
L 43.431983 50.968172 
L 43.711229 50.611759 
L 43.990476 50.255346 
L 44.154248 49.879819 
L 44.318021 49.504292 
L 44.298803 49.099627 
L 44.279586 48.694962 
L 44.322953 48.261626 
L 44.366319 47.828289 
L 44.409686 47.394953 
L 44.453052 46.961617 
L 44.549309 46.460681 
L 44.645566 45.959745 
z
" style="fill:#4169e1;opacity:0.1;"/>
   </g>
   <g id="patch_11">
    <path clip-path="url(#p04cc387508)" d="M 44.954063 45.227805 
L 44.954063 45.227805 
L 44.727622 44.775004 
L 44.501181 44.322204 
L 44.274739 43.869403 
L 44.048298 43.416603 
L 43.730447 43.657397 
L 43.412595 43.898191 
L 43.142873 44.370223 
L 42.87315 44.842254 
L 42.714224 45.347969 
L 42.555298 45.853683 
L 42.396373 46.359398 
L 42.237447 46.865112 
L 42.136259 47.375605 
L 42.03507 47.886099 
L 41.933881 48.396592 
L 41.832693 48.907085 
L 41.702678 49.359769 
L 41.572664 49.812453 
L 41.442649 50.265137 
L 41.312634 50.71782 
L 41.062129 51.208966 
L 40.811623 51.700112 
L 40.802015 52.186595 
L 40.792406 52.673079 
L 40.782797 53.159563 
L 40.773189 53.646046 
L 40.734584 53.963881 
L 40.695979 54.281715 
L 40.657374 54.59955 
L 40.61877 54.917384 
L 40.503296 55.379625 
L 40.387822 55.841866 
L 40.214355 56.188722 
L 40.5419 56.323455 
L 40.869445 55.919256 
L 41.148862 55.5724 
L 41.428279 55.225545 
L 41.611268 54.772861 
L 41.794258 54.320177 
L 41.907436 54.019184 
L 42.020614 53.718191 
L 42.133793 53.417199 
L 42.246971 53.116206 
L 42.360149 52.815213 
L 42.473327 52.51422 
L 42.586505 52.213227 
L 42.699683 51.912235 
L 42.738118 51.488455 
L 43.08505 51.228314 
L 43.431983 50.968172 
L 43.711229 50.611759 
L 43.990476 50.255346 
L 44.154248 49.879819 
L 44.318021 49.504292 
L 44.298803 49.099627 
L 44.279586 48.694962 
L 44.322953 48.261626 
L 44.366319 47.828289 
L 44.409686 47.394953 
L 44.453052 46.961617 
L 44.549309 46.460681 
L 44.645566 45.959745 
z
" style="fill:none;stroke:#4169e1;stroke-dasharray:1.48,0.64;stroke-dashoffset:0;stroke-linejoin:miter;stroke-width:0.4;"/>
   </g>
   <g id="patch_12">
    <path clip-path="url(#p04cc387508)" d="M 46.312201 39.540118 
L 46.312201 39.540118 
L 46.268325 40.142337 
L 46.224448 40.744556 
L 46.180571 41.346775 
L 46.136695 41.948993 
L 46.12581 42.547599 
L 46.114926 43.146205 
L 46.104042 43.74481 
L 46.093158 44.343416 
L 46.326827 44.518709 
L 46.808451 44.197494 
L 47.188206 43.905418 
L 47.56796 43.613341 
L 47.889043 43.482105 
L 48.210125 43.350868 
L 48.371007 42.752263 
L 48.224921 42.445734 
L 48.078835 42.139205 
L 47.786834 41.774167 
L 47.494833 41.409129 
L 47.341519 41.102484 
L 47.188206 40.795838 
L 47.034892 40.489193 
L 46.881579 40.182547 
L 46.757431 39.700726 
L 46.633284 39.218904 
z
" style="fill:#4169e1;opacity:0.1;"/>
   </g>
   <g id="patch_13">
    <path clip-path="url(#p04cc387508)" d="M 46.312201 39.540118 
L 46.312201 39.540118 
L 46.268325 40.142337 
L 46.224448 40.744556 
L 46.180571 41.346775 
L 46.136695 41.948993 
L 46.12581 42.547599 
L 46.114926 43.146205 
L 46.104042 43.74481 
L 46.093158 44.343416 
L 46.326827 44.518709 
L 46.808451 44.197494 
L 47.188206 43.905418 
L 47.56796 43.613341 
L 47.889043 43.482105 
L 48.210125 43.350868 
L 48.371007 42.752263 
L 48.224921 42.445734 
L 48.078835 42.139205 
L 47.786834 41.774167 
L 47.494833 41.409129 
L 47.341519 41.102484 
L 47.188206 40.795838 
L 47.034892 40.489193 
L 46.881579 40.182547 
L 46.757431 39.700726 
L 46.633284 39.218904 
z
" style="fill:none;stroke:#4169e1;stroke-dasharray:1.48,0.64;stroke-dashoffset:0;stroke-linejoin:miter;stroke-width:0.4;"/>
   </g>
   <g id="line2d_1">
    <path clip-path="url(#p04cc387508)" d="M 32.295795 61.438643 
L 32.003879 59.888049 
L 31.711962 58.337455 
L 31.420046 56.786861 
L 31.12813 55.236268 
" style="fill:none;stroke:#808080;stroke-linecap:square;stroke-width:0.4;"/>
   </g>
   <g id="line2d_2">
    <path clip-path="url(#p04cc387508)" d="M 25.5449 67.932861 
L 25.528574 66.140774 
L 25.5182 65.009997 
L 25.507826 63.87922 
L 25.496942 62.691332 
L 25.486057 61.503445 
L 25.471432 59.905298 
L 25.453235 57.90948 
L 25.435038 55.913662 
L 25.422453 54.525074 
L 25.409868 53.136486 
L 25.399665 52.031816 
L 25.389461 50.927146 
L 25.376536 49.498698 
L 25.363611 48.070249 
L 25.351196 46.707535 
L 25.338781 45.344822 
L 25.3347 44.925705 
L 25.319734 43.279073 
L 25.304768 41.632441 
L 25.289462 39.959702 
L 25.274157 38.286963 
L 25.25647 36.365271 
L 25.240144 34.548008 
L 25.231981 33.674809 
L 25.226879 33.111634 
L 25.221777 32.548926 
" style="fill:none;stroke:#808080;stroke-linecap:square;stroke-width:0.4;"/>
   </g>
   <g id="line2d_3">
    <path clip-path="url(#p04cc387508)" d="M 28.974088 62.861963 
L 28.545354 61.265681 
L 28.116621 59.669399 
" style="fill:none;stroke:#808080;stroke-linecap:square;stroke-width:0.4;"/>
   </g>
   <g id="line2d_4">
    <path clip-path="url(#p04cc387508)" d="M 35.652195 65.798581 
L 35.684167 64.609295 
L 35.71733 63.379216 
L 35.750493 62.149137 
L 35.783825 60.916028 
L 35.817158 59.682919 
L 35.851851 58.394798 
L 35.886545 57.106677 
L 35.921578 55.805502 
L 35.956611 54.504328 
L 35.991305 53.220169 
L 36.025998 51.936011 
L 36.05865 50.72458 
L 36.091303 49.51315 
L 36.102867 49.080047 
L 36.143853 47.56232 
L 36.184838 46.044594 
L 36.221913 44.670691 
L 36.258987 43.296789 
L 36.310686 41.375097 
L 36.343339 40.161568 
L 36.362046 39.469255 
" style="fill:none;stroke:#808080;stroke-linecap:square;stroke-width:0.4;"/>
   </g>
   <g id="line2d_5">
    <path clip-path="url(#p04cc387508)" d="M 30.196514 67.82377 
L 30.060973 66.534017 
L 29.925431 65.244264 
L 29.764549 63.714417 
L 29.603668 62.184569 
L 29.4251 60.483391 
L 29.271021 59.017646 
L 29.116942 57.551902 
L 28.969156 56.145365 
L 28.82137 54.738828 
L 28.661849 53.221335 
L 28.502328 51.703841 
L 28.383793 50.575861 
L 28.265258 49.447881 
L 28.146722 48.319901 
L 28.028187 47.191921 
L 27.912883 46.094477 
L 27.762206 44.660901 
L 27.596733 43.086298 
L 27.431259 41.511694 
L 27.311874 40.375323 
L 27.192488 39.238951 
L 26.98603 37.275767 
L 26.80406 35.54382 
L 26.608826 33.685998 
L 26.512229 32.767576 
L 26.316654 30.906024 
" style="fill:none;stroke:#808080;stroke-linecap:square;stroke-width:0.4;"/>
   </g>
   <g id="line2d_6">
    <path clip-path="url(#p04cc387508)" d="M 36.719522 65.889956 
L 36.992987 64.374095 
L 37.266451 62.858233 
L 37.474866 61.606593 
L 37.68328 60.354952 
L 37.891695 59.103311 
L 38.100109 57.851671 
L 38.281908 56.759822 
L 38.463708 55.667972 
L 38.78394 53.743949 
L 39.104172 51.819926 
L 39.422363 49.908957 
L 39.740555 47.997988 
L 40.048712 46.146692 
L 40.35687 44.295397 
L 40.608566 42.783964 
L 40.860262 41.272532 
L 41.098523 39.840587 
L 41.336784 38.408642 
L 41.491543 37.479498 
" style="fill:none;stroke:#808080;stroke-linecap:square;stroke-width:0.4;"/>
   </g>
   <g id="line2d_7">
    <path clip-path="url(#p04cc387508)" d="M 30.653649 58.118806 
L 30.403143 56.317627 
L 30.152638 54.516449 
L 29.920669 52.848605 
L 29.688701 51.180761 
L 29.53071 50.044506 
L 29.37272 48.90825 
L 29.21473 47.771995 
L 29.056739 46.63574 
L 28.82171 44.945285 
L 28.623924 43.522664 
L 28.426139 42.100043 
L 28.225122 40.654579 
L 28.024106 39.209114 
L 27.790096 37.527517 
L 27.599964 36.159908 
L 27.409831 34.792299 
L 27.263916 33.743341 
L 27.118 32.694382 
L 26.879569 30.979218 
" style="fill:none;stroke:#808080;stroke-linecap:square;stroke-width:0.4;"/>
   </g>
   <g id="line2d_8">
    <path clip-path="url(#p04cc387508)" d="M 35.164449 61.182697 
L 35.164449 60.106757 
L 35.164449 59.030817 
L 35.164449 57.954877 
L 35.164449 56.878937 
L 35.164449 55.802997 
L 35.164449 54.727056 
L 35.164449 53.651116 
L 35.164449 52.575176 
" style="fill:none;stroke:#808080;stroke-linecap:square;stroke-width:0.4;"/>
   </g>
   <g id="line2d_9">
    <path clip-path="url(#p04cc387508)" d="M 29.092113 53.620871 
L 28.959292 52.471096 
L 28.826472 51.321321 
L 28.693651 50.171546 
L 28.56083 49.021771 
L 28.42801 47.871996 
L 28.295189 46.722221 
L 28.162368 45.572446 
L 28.029548 44.422671 
" style="fill:none;stroke:#808080;stroke-linecap:square;stroke-width:0.4;"/>
   </g>
   <g id="line2d_10">
    <path clip-path="url(#p04cc387508)" d="M 13.409071 5.149664 
L 15.121284 5.945007 
L 15.307335 6.031255 
L 16.952542 6.795363 
L 18.453535 7.492571 
L 19.954528 8.189779 
L 21.126955 8.734538 
L 22.299382 9.279297 
L 23.995609 10.067181 
L 25.737583 10.876278 
L 27.479558 11.685375 
L 28.984972 12.38468 
L 30.490386 13.083986 
L 31.613325 13.605668 
L 32.736263 14.12735 
L 34.335553 14.870013 
" style="fill:none;stroke:#808080;stroke-linecap:square;stroke-width:0.4;"/>
   </g>
   <g id="line2d_11">
    <path clip-path="url(#p04cc387508)" d="M 25.730271 29.85287 
L 25.237933 29.630491 
L 24.745595 29.408112 
L 24.253257 29.185732 
L 23.760919 28.963353 
L 23.379634 28.606008 
L 22.998349 28.248663 
L 22.617063 27.891318 
L 22.235778 27.533972 
L 21.933998 27.32354 
L 21.632217 27.113107 
L 21.330437 26.902674 
L 21.028657 26.692241 
L 20.726877 26.481809 
L 20.425097 26.271376 
L 20.123317 26.060943 
L 19.821537 25.85051 
L 19.440336 25.655929 
L 19.059136 25.461347 
L 18.677936 25.266765 
L 18.296735 25.072183 
L 17.915535 24.877601 
L 17.534334 24.68302 
L 17.153134 24.488438 
L 16.771934 24.293856 
L 16.438351 24.206501 
L 16.104769 24.119146 
L 15.771187 24.031791 
L 15.437605 23.944436 
L 15.104022 23.857081 
L 14.77044 23.769726 
L 14.436858 23.682371 
L 14.103276 23.595017 
L 13.722075 23.734004 
L 13.340875 23.872991 
L 12.959674 24.011978 
L 12.578474 24.150965 
L 12.197274 24.289952 
L 11.816073 24.428939 
L 11.434873 24.567926 
L 11.053672 24.706913 
L 10.827316 24.961052 
L 10.60096 25.215191 
L 10.374603 25.469331 
L 10.148247 25.72347 
L 9.921891 25.977609 
L 9.695534 26.231749 
L 9.469178 26.485888 
L 9.242822 26.740027 
L 9.052179 27.303784 
L 8.861536 27.867541 
L 8.670893 28.431298 
L 8.480251 28.995055 
L 8.330424 29.402051 
L 8.180596 29.809047 
" style="fill:none;stroke:#008000;stroke-linecap:square;stroke-width:0.4;"/>
   </g>
   <g id="line2d_12">
    <path clip-path="url(#p04cc387508)" d="M 22.79155 29.108809 
L 22.189605 28.940276 
L 21.58766 28.771743 
L 20.985716 28.603211 
L 20.383771 28.434678 
L 19.896238 28.482872 
L 19.408704 28.531066 
L 18.921171 28.57926 
L 18.433637 28.627453 
L 17.946104 28.675647 
L 17.45857 28.723841 
L 16.971037 28.772035 
L 16.483504 28.820229 
L 16.086274 29.030836 
L 15.689045 29.241444 
L 15.291816 29.452051 
L 14.894587 29.662659 
L 14.497358 29.873266 
L 14.100129 30.083874 
L 13.7029 30.294482 
L 13.305671 30.505089 
L 13.107036 30.824089 
L 12.9084 31.143089 
L 12.709764 31.462089 
L 12.511128 31.781089 
L 12.312493 32.100089 
L 12.113857 32.419089 
L 11.915221 32.738089 
L 11.716585 33.057089 
" style="fill:none;stroke:#4169e1;stroke-linecap:square;stroke-width:0.4;"/>
   </g>
   <g id="line2d_13">
    <path clip-path="url(#p04cc387508)" d="M 23.706499 29.830958 
L 23.092564 29.830958 
L 22.47863 29.830958 
L 21.864696 29.830958 
L 21.250762 29.830958 
L 20.709063 30.071694 
L 20.167364 30.31243 
L 19.625665 30.553166 
L 19.083965 30.793902 
L 18.542266 31.034638 
L 18.000567 31.275374 
L 17.458868 31.51611 
L 16.917169 31.756846 
L 16.495833 32.039715 
L 16.074498 32.322585 
L 15.653162 32.605454 
L 15.231826 32.888323 
L 14.81049 33.171192 
L 14.389155 33.454061 
L 13.967819 33.73693 
L 13.546483 34.019799 
L 13.209415 34.417005 
L 12.872346 34.814211 
L 12.535277 35.211416 
L 12.198209 35.608622 
" style="fill:none;stroke:#4169e1;stroke-linecap:square;stroke-width:0.4;"/>
   </g>
   <g id="line2d_14">
    <path clip-path="url(#p04cc387508)" d="M 12.196848 25.134888 
L 12.052633 25.554471 
L 11.908418 25.974054 
L 11.764203 26.393638 
L 11.619988 26.813221 
L 11.508851 27.226161 
L 11.397714 27.639101 
L 11.286576 28.052041 
L 11.175439 28.464981 
L 10.945086 28.766732 
L 10.714733 29.068482 
L 10.48438 29.370232 
L 10.254027 29.671983 
L 10.015766 30.132592 
L 9.777506 30.593202 
L 9.547153 30.998216 
L 9.3168 31.403231 
L 9.086447 31.808245 
L 8.856094 32.21326 
" style="fill:none;stroke:#008000;stroke-linecap:square;stroke-width:0.4;"/>
   </g>
   <g id="line2d_15">
    <path clip-path="url(#p04cc387508)" d="M 23.437796 31.03796 
L 23.080405 31.145187 
L 22.723014 31.252414 
L 22.365622 31.359641 
L 22.008231 31.466867 
L 21.65084 31.574094 
L 21.293448 31.681321 
L 20.936057 31.788548 
L 20.578666 31.895775 
L 20.260984 32.114133 
L 19.943303 32.332491 
L 19.625622 32.55085 
L 19.307941 32.769208 
L 18.99026 32.987566 
L 18.672579 33.205924 
L 18.354897 33.424282 
L 18.037216 33.642641 
L 17.743344 34.055581 
L 17.449472 34.468521 
L 17.1556 34.881461 
L 16.861728 35.294401 
L 16.774357 35.671618 
L 16.686986 36.048835 
L 16.599615 36.426052 
L 16.512244 36.803269 
L 16.424874 37.180486 
L 16.337503 37.557703 
L 16.250132 37.934921 
L 16.162761 38.312138 
L 16.146945 38.939531 
L 16.131129 39.566925 
L 16.115313 40.194319 
L 16.099497 40.821713 
L 16.083511 41.393279 
L 16.067525 41.964844 
L 16.242352 42.47324 
L 16.417178 42.981635 
" style="fill:none;stroke:#4169e1;stroke-linecap:square;stroke-width:0.4;"/>
   </g>
   <g id="line2d_16">
    <path clip-path="url(#p04cc387508)" d="M 20.51132 34.103716 
L 20.138113 34.512926 
L 19.764905 34.922137 
L 19.391698 35.331347 
L 19.01849 35.740558 
L 19.054629 36.083684 
L 19.090768 36.42681 
L 19.126907 36.769936 
L 19.163046 37.113062 
L 19.277414 37.618543 
L 19.391783 38.124024 
L 19.506151 38.629506 
L 19.62052 39.134987 
L 19.578387 39.496062 
L 19.536253 39.857137 
L 19.494119 40.218212 
L 19.451986 40.579287 
L 19.409852 40.940362 
L 19.367719 41.301436 
L 19.325585 41.662511 
L 19.283452 42.023586 
L 19.277414 42.444859 
L 19.271377 42.866133 
L 19.26534 43.287406 
L 19.259302 43.70868 
L 19.253265 44.129953 
L 19.247228 44.551226 
L 19.24119 44.9725 
L 19.235153 45.393773 
L 19.396034 45.744358 
L 19.556916 46.094944 
L 19.717797 46.445529 
L 19.878679 46.796114 
L 20.079185 47.155557 
L 20.279692 47.515 
L 20.480198 47.874444 
L 20.680705 48.233887 
L 20.735976 48.683191 
L 20.791247 49.132494 
L 20.846518 49.581798 
L 20.901789 50.031102 
" style="fill:none;stroke:#4169e1;stroke-linecap:square;stroke-width:0.4;"/>
   </g>
   <g id="line2d_17">
    <path clip-path="url(#p04cc387508)" d="M 7.644552 30.663598 
L 7.267263 31.145653 
L 6.889974 31.627708 
L 6.512685 32.109763 
L 6.135396 32.591817 
L 5.836762 32.990014 
L 5.538128 33.38821 
L 5.239495 33.786406 
L 4.940861 34.184602 
L 4.642227 34.582799 
L 4.343593 34.980995 
L 4.044959 35.379191 
L 3.746325 35.777388 
L 3.48434 36.227974 
L 3.222355 36.67856 
L 2.96037 37.129146 
L 2.698385 37.579732 
L 2.509613 38.124491 
L 2.320841 38.66925 
L 2.624747 39.025546 
L 2.928653 39.381842 
L 3.232559 39.738139 
L 3.536465 40.094435 
L 4.039517 40.471594 
L 4.542569 40.848752 
L 5.045621 41.225911 
L 5.548673 41.60307 
L 5.768736 41.938387 
L 5.9888 42.273704 
L 6.208864 42.609021 
L 6.428928 42.944339 
L 6.674119 43.143408 
L 6.91931 43.342477 
L 7.164501 43.541546 
L 7.409692 43.740615 
L 7.654883 43.939684 
L 7.900074 44.138753 
L 8.145265 44.337822 
L 8.390456 44.536891 
L 8.604823 44.882522 
L 8.81919 45.228154 
L 9.033557 45.573786 
L 9.247924 45.919418 
L 9.46229 46.26505 
L 9.676657 46.610682 
L 9.891024 46.956313 
L 10.105391 47.301945 
" style="fill:none;stroke:#008000;stroke-linecap:square;stroke-width:0.4;"/>
   </g>
   <g id="line2d_18">
    <path clip-path="url(#p04cc387508)" d="M 11.15231 47.977941 
L 11.477304 48.224679 
L 11.802298 48.471417 
L 12.127292 48.718156 
L 12.452286 48.964894 
L 12.77728 49.211633 
L 13.102274 49.458371 
L 13.427268 49.705109 
L 13.752262 49.951848 
L 14.2338 50.288796 
L 14.715339 50.625745 
L 15.196878 50.962694 
L 15.678416 51.299643 
L 15.858983 51.702851 
L 16.039549 52.106059 
L 16.220116 52.509267 
L 16.400682 52.912475 
L 16.581248 53.315683 
L 16.761815 53.718891 
L 16.942381 54.122099 
L 17.122947 54.525307 
L 17.237316 54.910449 
L 17.351685 55.295592 
L 17.466053 55.680735 
L 17.580422 56.065877 
L 17.694791 56.45102 
L 17.809159 56.836162 
L 17.923528 57.221305 
L 18.037896 57.606448 
L 18.326752 58.111929 
L 18.615607 58.617411 
L 18.904462 59.122892 
L 19.193317 59.628373 
L 19.548455 60.025521 
L 19.903593 60.422668 
L 20.258731 60.819815 
L 20.613869 61.216963 
L 20.969007 61.61411 
L 21.324145 62.011258 
L 21.679283 62.408405 
L 22.034421 62.805552 
L 22.239009 63.311034 
L 22.443597 63.816515 
L 22.648185 64.321997 
L 22.852773 64.827478 
L 23.117607 65.314952 
L 23.38244 65.802427 
L 23.647274 66.289901 
L 23.912107 66.777375 
L 24.176941 67.26485 
L 24.441774 67.752324 
L 24.706608 68.239798 
L 24.971441 68.727273 
" style="fill:none;stroke:#008000;stroke-linecap:square;stroke-width:0.4;"/>
   </g>
   <g id="line2d_19">
    <path clip-path="url(#p04cc387508)" d="M 9.473089 35.912121 
L 9.837964 36.331821 
L 10.202838 36.751521 
L 10.567712 37.17122 
L 10.932586 37.59092 
L 11.370503 37.964816 
L 11.80842 38.338711 
L 12.246337 38.712607 
L 12.684254 39.086502 
L 13.01265 39.496995 
L 13.341045 39.907487 
L 13.66944 40.317979 
L 13.997835 40.728472 
L 14.162076 41.097938 
L 14.326316 41.467405 
L 14.490556 41.836871 
L 14.654796 42.206338 
L 14.819036 42.575804 
L 14.983276 42.945271 
L 15.147516 43.314737 
L 15.311757 43.684204 
L 15.562645 44.076398 
L 15.813533 44.468592 
L 16.064421 44.860786 
L 16.315309 45.25298 
L 16.566198 45.645174 
L 16.817086 46.037368 
L 17.067974 46.429561 
L 17.318862 46.821755 
L 17.537778 47.127352 
L 17.756694 47.432949 
L 17.97561 47.738545 
L 18.194526 48.044142 
L 18.413442 48.349738 
L 18.632358 48.655335 
L 18.851274 48.960931 
L 19.07019 49.266528 
L 19.435107 49.640482 
L 19.800024 50.014435 
L 20.16494 50.388389 
L 20.529857 50.762343 
L 20.894774 51.136297 
L 21.25969 51.51025 
L 21.624607 51.884204 
L 21.989524 52.258158 
L 22.331652 52.577449 
L 22.67378 52.89674 
L 23.015908 53.216032 
L 23.358036 53.535323 
L 23.700164 53.854614 
L 24.042292 54.173906 
L 24.38442 54.493197 
L 24.726548 54.812488 
L 25.132408 55.103399 
L 25.538267 55.394311 
L 25.944127 55.685222 
L 26.349987 55.976133 
L 26.737225 56.176601 
L 27.124462 56.377068 
L 27.5117 56.577536 
L 27.898938 56.778003 
L 28.14077 57.002714 
L 28.382602 57.227424 
L 28.624435 57.452134 
L 28.866267 57.676844 
L 29.121704 57.977895 
L 29.377142 58.278947 
L 29.632579 58.579998 
L 29.888017 58.881049 
L 30.088693 59.391775 
L 30.28937 59.902501 
L 30.389708 60.431526 
L 30.490046 60.960551 
L 30.590384 61.489575 
L 30.690723 62.0186 
" style="fill:none;stroke:#008000;stroke-linecap:square;stroke-width:0.4;"/>
   </g>
   <g id="line2d_20">
    <path clip-path="url(#p04cc387508)" d="M 20.112348 51.025981 
L 20.185306 51.637174 
L 20.258263 52.248367 
L 20.331221 52.859561 
L 20.404179 53.470754 
L 20.504517 53.935909 
L 20.604856 54.401063 
L 20.705194 54.866218 
L 20.805532 55.331373 
L 21.047279 55.814826 
L 21.289027 56.29828 
L 21.530774 56.781733 
L 21.772521 57.265186 
L 22.087311 57.798757 
L 22.402101 58.332327 
L 22.716891 58.865897 
L 23.031681 59.399467 
L 23.405654 59.800752 
L 23.779627 60.202037 
L 24.153599 60.603322 
L 24.527572 61.004607 
L 24.856137 61.497151 
L 25.184703 61.989696 
L 25.357999 62.58259 
L 25.531295 63.175485 
L 25.704591 63.76838 
L 25.877887 64.361274 
L 26.003352 64.671358 
L 26.128818 64.981442 
L 26.254283 65.291526 
L 26.379748 65.601609 
L 26.505214 65.911693 
L 26.630679 66.221777 
L 26.756144 66.531861 
L 26.88161 66.841945 
L 27.173441 67.352904 
L 27.465272 67.863863 
" style="fill:none;stroke:#008000;stroke-linecap:square;stroke-width:0.4;"/>
   </g>
   <g id="line2d_21">
    <path clip-path="url(#p04cc387508)" d="M 9.757438 37.129379 
L 9.76271 37.490861 
L 9.767982 37.852344 
L 9.773254 38.213827 
L 9.778526 38.57531 
L 9.783798 38.936792 
L 9.78907 39.298275 
L 9.794342 39.659758 
L 9.799614 40.021241 
L 9.836263 40.398458 
L 9.872912 40.775675 
L 9.909561 41.152892 
L 9.94621 41.530109 
L 9.982859 41.907326 
L 10.019508 42.284544 
L 10.056157 42.661761 
L 10.092806 43.038978 
L 10.375794 43.479074 
L 10.658782 43.919171 
L 10.94177 44.359267 
L 11.224758 44.799363 
L 11.664885 45.029901 
L 12.105013 45.260439 
L 12.545141 45.490977 
L 12.985269 45.721514 
L 13.278716 45.868136 
L 13.572163 46.014757 
L 13.86561 46.161378 
L 14.159057 46.307999 
L 14.28482 46.915695 
L 14.410583 47.523392 
L 14.536346 48.131089 
L 14.662109 48.738785 
L 14.766869 49.042634 
L 14.871629 49.346482 
L 14.976389 49.65033 
L 15.081149 49.954179 
" style="fill:none;stroke:#4169e1;stroke-linecap:square;stroke-width:0.4;"/>
   </g>
   <g id="line2d_22">
    <path clip-path="url(#p04cc387508)" d="M 25.563267 33.219794 
L 25.571217 33.569213 
L 25.579168 33.918633 
L 25.587119 34.268053 
L 25.595069 34.617473 
L 25.60302 34.966892 
L 25.61097 35.316312 
L 25.618921 35.665732 
L 25.626871 36.015152 
L 25.622875 36.531356 
L 25.618878 37.04756 
L 25.614882 37.563764 
L 25.610885 38.079968 
L 25.606889 38.596172 
L 25.602892 39.112376 
L 25.598896 39.628581 
L 25.594899 40.144785 
L 25.606825 40.752248 
L 25.618751 41.359712 
L 25.630676 41.967175 
L 25.642602 42.574639 
L 25.654528 43.182102 
L 25.666454 43.789566 
L 25.67838 44.39703 
L 25.690305 45.004493 
L 25.702231 45.611957 
L 25.714157 46.21942 
L 25.726083 46.826884 
L 25.738009 47.434347 
L 25.749934 48.041811 
L 25.76186 48.649274 
L 25.773786 49.256738 
L 25.785712 49.864201 
L 25.906819 50.193749 
L 26.027927 50.523297 
L 26.149034 50.852845 
L 26.270142 51.182393 
L 26.391249 51.51194 
L 26.512356 51.841488 
L 26.633464 52.171036 
L 26.754571 52.500584 
L 26.875679 52.830132 
L 26.996786 53.159679 
L 27.117894 53.489227 
L 27.239001 53.818775 
L 27.360109 54.148323 
L 27.481216 54.477871 
L 27.602323 54.807418 
L 27.723431 55.136966 
" style="fill:none;stroke:#000000;stroke-linecap:square;stroke-width:0.4;"/>
   </g>
   <g id="line2d_23">
    <path clip-path="url(#p04cc387508)" d="M 28.61185 30.837492 
L 28.791608 31.152063 
L 28.971367 31.466634 
L 29.151125 31.781205 
L 29.330884 32.095776 
L 29.510643 32.410347 
L 29.690401 32.724918 
L 29.87016 33.039489 
L 30.049918 33.35406 
L 30.371426 33.841418 
L 30.692934 34.328776 
L 31.014441 34.816134 
L 31.335949 35.303492 
L 31.657457 35.790849 
L 31.978964 36.278207 
L 32.300472 36.765565 
L 32.621979 37.252923 
L 32.83979 37.688474 
L 33.057601 38.124024 
L 33.275411 38.559575 
L 33.493222 38.995126 
L 33.711032 39.430677 
L 33.928843 39.866228 
L 34.146654 40.301779 
L 34.364464 40.73733 
L 34.3921 41.231622 
L 34.419735 41.725915 
L 34.447371 42.220207 
L 34.475006 42.7145 
L 34.502642 43.208793 
L 34.530277 43.703085 
L 34.557913 44.197378 
L 34.585548 44.69167 
L 34.433425 45.123725 
L 34.281302 45.555779 
L 34.129179 45.987833 
L 33.977056 46.419888 
L 33.824933 46.851942 
L 33.67281 47.283996 
L 33.520687 47.716051 
L 33.368564 48.148105 
L 33.057473 48.68727 
L 32.746382 49.226435 
L 32.435291 49.765599 
L 32.1242 50.304764 
L 31.813108 50.843929 
L 31.502017 51.383093 
L 31.190926 51.922258 
L 30.879835 52.461423 
" style="fill:none;stroke:#4169e1;stroke-linecap:square;stroke-width:0.4;"/>
   </g>
   <g id="line2d_24">
    <path clip-path="url(#p04cc387508)" d="M 27.59078 31.906498 
L 27.763651 32.283307 
L 27.936522 32.660116 
L 28.109393 33.036925 
L 28.282264 33.413734 
L 28.455135 33.790544 
L 28.628006 34.167353 
L 28.800877 34.544162 
L 28.973748 34.920971 
L 29.099915 35.209581 
L 29.226082 35.49819 
L 29.352248 35.786799 
L 29.478415 36.075408 
L 29.604582 36.364018 
L 29.730749 36.652627 
L 29.856916 36.941236 
L 29.983083 37.229846 
L 30.10925 37.518455 
L 30.235417 37.807064 
L 30.361583 38.095673 
L 30.48775 38.384283 
L 30.613917 38.672892 
L 30.740084 38.961501 
L 30.866251 39.250111 
L 30.992418 39.53872 
L 31.013166 39.970774 
L 31.033914 40.402829 
L 31.054662 40.834883 
L 31.07541 41.266937 
L 31.096157 41.698992 
L 31.116905 42.131046 
L 31.137653 42.5631 
L 31.158401 42.995155 
L 31.05126 43.600054 
L 30.944119 44.204954 
L 30.836979 44.809853 
L 30.729838 45.414752 
L 30.622697 46.019652 
L 30.515556 46.624551 
L 30.408415 47.229451 
L 30.301274 47.83435 
L 30.252848 48.173047 
L 30.204422 48.511744 
L 30.155996 48.850441 
L 30.10757 49.189138 
L 30.059144 49.527835 
L 30.010718 49.866532 
L 29.962292 50.205229 
L 29.913866 50.543926 
" style="fill:none;stroke:#000000;stroke-linecap:square;stroke-width:0.4;"/>
   </g>
   <g id="line2d_25">
    <path clip-path="url(#p04cc387508)" d="M 26.928548 32.400674 
L 27.006969 32.941674 
L 27.08539 33.482674 
L 27.163811 34.023675 
L 27.242232 34.564675 
L 27.320654 35.105675 
L 27.399075 35.646676 
L 27.477496 36.187676 
L 27.555917 36.728677 
L 27.634338 37.269677 
L 27.712759 37.810677 
L 27.791181 38.351678 
L 27.869602 38.892678 
L 27.948023 39.433678 
L 28.026444 39.974679 
L 28.104865 40.515679 
L 28.183286 41.056679 
L 28.234901 41.513268 
L 28.286516 41.969856 
L 28.33813 42.426444 
L 28.389745 42.883033 
L 28.44136 43.339621 
L 28.492974 43.796209 
L 28.544589 44.252798 
L 28.596204 44.709386 
" style="fill:none;stroke:#000000;stroke-linecap:square;stroke-width:0.4;"/>
   </g>
   <g id="line2d_26">
    <path clip-path="url(#p04cc387508)" d="M 28.867287 47.397983 
L 28.922877 47.906204 
L 28.978467 48.414424 
L 29.034057 48.922644 
L 29.089647 49.430865 
L 29.145237 49.939085 
L 29.200827 50.447306 
L 29.256417 50.955526 
L 29.312007 51.463747 
L 29.367597 51.971967 
L 29.423187 52.480187 
L 29.478777 52.988408 
L 29.534367 53.496628 
L 29.589957 54.004849 
L 29.645547 54.513069 
L 29.701137 55.021289 
L 29.756726 55.52951 
" style="fill:none;stroke:#008000;stroke-linecap:square;stroke-width:0.4;"/>
   </g>
   <g id="line2d_27">
    <path clip-path="url(#p04cc387508)" d="M 36.562042 40.593739 
L 36.556026 41.051114 
L 36.55001 41.508489 
L 36.543994 41.965864 
L 36.537978 42.423239 
L 36.531962 42.880614 
L 36.525946 43.337989 
L 36.51993 43.795364 
L 36.513914 44.252739 
L 36.507898 44.710114 
L 36.501882 45.16749 
L 36.495866 45.624865 
L 36.48985 46.08224 
L 36.483834 46.539615 
L 36.477818 46.99699 
L 36.471802 47.454365 
L 36.465786 47.91174 
L 36.453754 48.465357 
L 36.441721 49.018974 
L 36.429689 49.572591 
L 36.417657 50.126208 
L 36.405625 50.679825 
L 36.393593 51.233442 
L 36.381561 51.787059 
L 36.369529 52.340676 
" style="fill:none;stroke:#008000;stroke-linecap:square;stroke-width:0.4;"/>
   </g>
   <g id="line2d_28">
    <path clip-path="url(#p04cc387508)" d="M 42.450028 37.915864 
L 42.497179 38.256426 
L 42.544329 38.596988 
L 42.59148 38.93755 
L 42.63863 39.278112 
L 42.685781 39.618674 
L 42.732931 39.959236 
L 42.780082 40.299798 
L 42.827232 40.640359 
L 42.900573 40.980863 
L 42.973913 41.321367 
L 43.047254 41.66187 
L 43.120594 42.002374 
L 43.193935 42.342877 
L 43.267275 42.683381 
L 43.340615 43.023885 
L 43.413956 43.364388 
L 43.131053 43.877912 
L 42.84815 44.391435 
L 42.565247 44.904959 
L 42.282344 45.418482 
L 42.151352 45.842786 
L 42.020359 46.267089 
L 41.889367 46.691393 
L 41.758374 47.115697 
L 41.627382 47.540001 
L 41.49639 47.964304 
L 41.365397 48.388608 
L 41.234405 48.812912 
L 41.124373 49.273987 
L 41.014341 49.735063 
L 40.904309 50.196138 
L 40.794277 50.657214 
L 40.684245 51.118289 
L 40.574213 51.579365 
L 40.464181 52.040441 
L 40.354149 52.501516 
L 40.238887 53.02011 
L 40.123626 53.538703 
L 40.008364 54.057296 
L 39.893103 54.57589 
L 39.777841 55.094483 
L 39.66258 55.613077 
L 39.547319 56.13167 
L 39.432057 56.650264 
" style="fill:none;stroke:#008000;stroke-linecap:square;stroke-width:0.4;"/>
   </g>
   <g id="line2d_29">
    <path clip-path="url(#p04cc387508)" d="M 43.120764 36.909797 
L 43.498053 36.763176 
L 43.875342 36.616555 
L 44.252631 36.469933 
L 44.62992 36.323312 
L 45.007124 36.55385 
L 45.384328 36.784388 
L 45.761531 37.014926 
L 46.138735 37.245463 
L 46.248767 37.565046 
L 46.358799 37.884629 
L 46.468831 38.204212 
L 46.578863 38.523794 
L 46.688895 38.843377 
L 46.798927 39.16296 
L 46.908959 39.482542 
L 47.018991 39.802125 
L 47.144754 40.126952 
L 47.270517 40.45178 
L 47.39628 40.776607 
L 47.522043 41.101435 
L 47.752651 41.331973 
L 47.983259 41.56251 
L 48.213867 41.793048 
L 48.444475 42.023586 
L 48.591071 42.589324 
L 48.737667 43.155063 
L 48.388864 43.501452 
L 48.040061 43.847841 
L 47.718553 44.028437 
L 47.397045 44.209033 
L 47.075538 44.389629 
L 46.75403 44.570224 
L 46.432522 44.75082 
L 46.111015 44.931416 
L 45.789507 45.112011 
L 45.467999 45.292607 
L 45.132632 45.711724 
L 44.797264 46.130841 
L 44.734425 46.654738 
L 44.671586 47.178634 
L 44.608747 47.702531 
L 44.545908 48.226427 
L 44.52499 48.572234 
L 44.504072 48.918041 
L 44.483154 49.263847 
L 44.462236 49.609654 
L 44.325929 49.944855 
L 44.189622 50.280055 
L 44.053315 50.615256 
L 43.917008 50.950456 
L 43.435044 51.28589 
L 42.95308 51.621323 
L 42.785396 52.071793 
L 42.617712 52.522262 
L 42.450028 52.972732 
L 42.282344 53.423201 
L 42.083198 53.978566 
L 41.884052 54.533932 
L 41.684906 55.089297 
L 41.48576 55.644662 
L 41.119016 56.05329 
L 40.752271 56.461917 
L 40.385526 56.870545 
L 40.018781 57.279173 
L 39.704416 57.5202 
L 39.390051 57.761227 
L 39.075686 58.002255 
L 38.761321 58.243282 
L 38.467789 58.725104 
L 38.174257 59.206925 
" style="fill:none;stroke:#008000;stroke-linecap:square;stroke-width:0.4;"/>
   </g>
   <g id="line2d_30">
    <path clip-path="url(#p04cc387508)" d="M 31.646147 55.2703 
L 31.709348 55.64134 
L 31.772548 56.01238 
L 31.835748 56.38342 
L 31.898949 56.75446 
L 31.962149 57.1255 
L 32.025349 57.49654 
L 32.08855 57.86758 
L 32.15175 58.23862 
L 32.21495 58.60966 
L 32.278151 58.9807 
L 32.341351 59.35174 
L 32.404551 59.72278 
L 32.467752 60.09382 
L 32.530952 60.46486 
L 32.594153 60.8359 
L 32.657353 61.206939 
" style="fill:none;stroke:#008000;stroke-linecap:square;stroke-width:0.4;"/>
   </g>
   <g id="line2d_31">
    <path clip-path="url(#p04cc387508)" d="M 34.701193 53.226929 
L 34.705232 53.712247 
L 34.709271 54.197566 
L 34.71331 54.682884 
L 34.717349 55.168202 
L 34.721388 55.65352 
L 34.725427 56.138838 
L 34.729466 56.624156 
L 34.733505 57.109474 
L 34.737544 57.594793 
L 34.741583 58.080111 
L 34.745622 58.565429 
L 34.749661 59.050747 
L 34.7537 59.536065 
L 34.757739 60.021383 
L 34.761778 60.506701 
L 34.765817 60.992019 
" style="fill:none;stroke:#008000;stroke-linecap:square;stroke-width:0.4;"/>
   </g>
   <g id="line2d_32">
    <path clip-path="url(#p04cc387508)" d="M 27.205073 59.895042 
L 27.307452 60.287819 
L 27.409831 60.680595 
L 27.51221 61.073372 
L 27.614589 61.466149 
L 27.716968 61.858925 
L 27.819347 62.251702 
L 27.921727 62.644479 
L 28.024106 63.037256 
" style="fill:none;stroke:#008000;stroke-linecap:square;stroke-width:0.4;"/>
   </g>
   <g id="line2d_33">
    <path clip-path="url(#p04cc387508)" d="M 39.740895 37.828684 
L 39.339542 37.938009 
L 38.938189 38.047334 
L 38.564131 38.211554 
L 38.190073 38.375774 
L 37.816016 38.539995 
L 37.441958 38.704215 
L 37.222914 39.032656 
L 37.003871 39.361096 
L 37.204717 39.707719 
L 37.405564 40.054341 
L 37.806917 40.309588 
L 38.20827 40.564834 
L 38.646187 40.765535 
L 39.084104 40.966236 
L 39.339542 41.422416 
L 39.594979 41.878597 
L 39.594979 42.316362 
L 39.594979 42.754127 
L 39.604078 43.155529 
L 39.613176 43.55693 
L 39.622275 43.958332 
L 39.631373 44.359733 
L 39.540133 44.751927 
L 39.448894 45.144121 
L 39.357654 45.536315 
L 39.266414 45.928509 
L 39.147794 46.220469 
L 39.029173 46.512429 
L 38.910553 46.804389 
L 38.791933 47.096349 
L 38.773736 47.506725 
L 38.755539 47.917101 
L 38.737342 48.327477 
L 38.719145 48.737853 
L 38.637004 49.166644 
L 38.554862 49.595435 
L 38.472721 50.024226 
L 38.39058 50.453017 
L 38.272045 50.763159 
L 38.153509 51.073301 
L 38.034974 51.383443 
L 37.916439 51.693585 
L 37.806917 52.28648 
L 37.697395 52.879374 
L 37.587874 53.472269 
L 37.478352 54.065164 
L 37.450971 54.466449 
L 37.423591 54.867733 
L 37.396211 55.269018 
L 37.36883 55.670303 
L 37.222914 56.153757 
L 37.076999 56.63721 
L 36.931083 57.120663 
L 36.785167 57.604117 
L 36.775984 58.005401 
L 36.7668 58.406686 
L 36.757617 58.807971 
L 36.748433 59.209256 
L 36.702814 59.56497 
L 36.657194 59.920683 
L 36.611574 60.276397 
L 36.565954 60.63211 
L 36.520334 60.987824 
L 36.474714 61.343537 
L 36.429094 61.699251 
L 36.383474 62.054964 
L 36.319615 62.492846 
L 36.255756 62.930728 
L 36.191896 63.36861 
L 36.128037 63.806492 
L 36.10984 64.198686 
L 36.091643 64.59088 
L 36.073446 64.983074 
L 36.055249 65.375268 
" style="fill:none;stroke:#008000;stroke-linecap:square;stroke-width:0.4;"/>
   </g>
   <g id="line2d_34">
    <path clip-path="url(#p04cc387508)" d="M 32.17777 15.238314 
L 32.129599 14.832017 
L 32.081428 14.42572 
L 32.033257 14.019424 
L 31.985086 13.613127 
L 31.936916 13.206831 
L 31.888745 12.800534 
L 31.840574 12.394237 
L 31.792403 11.987941 
L 31.726248 11.620805 
L 31.660093 11.25367 
L 31.593937 10.886534 
L 31.527782 10.519399 
L 31.299045 10.013801 
L 31.070308 9.508203 
L 30.84157 9.002605 
L 30.612833 8.497007 
L 30.414197 8.111806 
L 30.215562 7.726605 
L 30.016926 7.341404 
L 29.81829 6.956203 
L 29.697884 6.558998 
L 29.577478 6.161792 
L 29.360815 5.848736 
L 29.144153 5.53568 
L 28.873325 5.343138 
L 28.602496 5.150596 
L 28.331668 4.958054 
L 28.06084 4.765512 
L 27.543162 4.452456 
L 27.025485 4.1394 
L 26.495903 4.043362 
L 26.170824 4.151638 
L 25.845745 4.259914 
L 25.520666 4.36819 
L 25.195587 4.476465 
L 24.689984 4.548727 
L 24.184381 4.620989 
L 23.865424 4.536722 
L 23.546468 4.452456 
L 23.227511 4.36819 
L 22.908554 4.283923 
L 22.589513 4.08532 
L 22.270471 3.886718 
L 21.951429 3.688115 
L 21.632388 3.489512 
L 21.283414 3.38112 
L 20.934441 3.272727 
L 20.524925 3.29697 
L 20.187857 3.477391 
L 19.850788 3.657812 
L 19.429495 3.973839 
L 19.008202 4.289867 
L 18.586908 4.605895 
L 18.165615 4.921923 
L 17.744322 5.237951 
L 17.323029 5.553979 
L 16.901736 5.870007 
L 16.480442 6.186035 
" style="fill:none;stroke:#008000;stroke-linecap:square;stroke-width:0.4;"/>
   </g>
   <g id="line2d_35">
    <path clip-path="url(#p04cc387508)" d="M 31.57574 13.817791 
L 31.052844 13.579298 
L 30.529948 13.340806 
L 30.007051 13.102314 
L 29.484155 12.863821 
L 28.961259 12.625329 
L 28.438362 12.386836 
L 27.915466 12.148344 
L 27.39257 11.909852 
L 26.869673 11.671359 
L 26.346777 11.432867 
L 25.823881 11.194375 
L 25.300984 10.955882 
L 24.778088 10.71739 
L 24.255192 10.478897 
L 23.732295 10.240405 
L 23.209399 10.001913 
L 22.686503 9.76342 
L 22.163606 9.524928 
L 21.64071 9.286436 
L 21.117814 9.047943 
L 20.594917 8.809451 
L 20.072021 8.570958 
L 19.549125 8.332466 
L 19.026228 8.093974 
L 18.503332 7.855481 
L 17.980436 7.616989 
L 17.457539 7.378497 
L 16.934643 7.140004 
L 16.411747 6.901512 
L 15.88885 6.663019 
L 15.365954 6.424527 
L 14.843058 6.186035 
" style="fill:none;stroke:#008000;stroke-linecap:square;stroke-width:0.4;"/>
   </g>
   <g id="line2d_36">
    <path clip-path="url(#p04cc387508)" d="M 34.223991 16.104987 
L 33.947125 16.261398 
L 33.670259 16.417809 
L 33.092379 16.345548 
L 32.653016 16.13494 
L 32.213654 15.924333 
L 31.774291 15.713725 
L 31.334928 15.503117 
L 30.814317 15.298454 
L 30.293706 15.09379 
L 29.773095 14.889127 
L 29.252484 14.684464 
L 28.731873 14.4798 
L 28.211262 14.275137 
L 27.690651 14.070473 
L 27.17004 13.86581 
L 26.760694 13.769539 
L 26.351348 13.673268 
L 25.797616 13.890052 
L 25.496602 14.227118 
L 25.195587 14.564183 
L 24.858518 14.816865 
L 24.52145 15.069548 
L 23.979793 15.214071 
L 23.438136 15.358594 
L 23.137292 15.575146 
L 22.836447 15.791698 
L 22.553544 16.065534 
L 22.270641 16.33937 
L 21.987738 16.613207 
L 21.704835 16.887043 
L 21.421932 17.16088 
L 21.139029 17.434716 
L 20.856126 17.708553 
L 20.573224 17.982389 
L 20.188027 18.223183 
L 19.80283 18.463978 
L 19.556066 18.95151 
L 19.309301 19.439043 
L 19.062537 19.926575 
L 18.815773 20.414108 
" style="fill:none;stroke:#008000;stroke-linecap:square;stroke-width:0.4;"/>
   </g>
   <g id="line2d_37">
    <path clip-path="url(#p04cc387508)" d="M 25.821766 13.408464 
L 25.412462 13.158695 
L 25.003158 12.908926 
L 24.593855 12.659158 
L 24.184551 12.409389 
L 23.775247 12.15962 
L 23.365944 11.909852 
L 22.95664 11.660083 
L 22.547337 11.410314 
L 22.262946 11.273367 
L 21.978555 11.13642 
L 21.694164 10.999472 
L 21.409773 10.862525 
L 21.125382 10.725578 
L 20.840991 10.58863 
L 20.5566 10.451683 
L 20.272209 10.314735 
L 19.987818 10.177788 
L 19.703427 10.040841 
L 19.419036 9.903893 
L 19.134645 9.766946 
L 18.850254 9.629999 
L 18.565863 9.493051 
L 18.281472 9.356104 
L 17.997081 9.219157 
L 17.650999 9.065717 
L 17.304917 8.912278 
L 16.958835 8.758839 
L 16.612753 8.605399 
L 16.266671 8.45196 
L 15.920589 8.298521 
L 15.574507 8.145081 
L 15.228425 7.991642 
" style="fill:none;stroke:#4169e1;stroke-linecap:square;stroke-width:0.4;"/>
   </g>
   <g id="line2d_38">
    <path clip-path="url(#p04cc387508)" d="M 23.101068 15.09379 
L 22.679732 15.012496 
L 22.258396 14.931202 
L 21.837061 14.849908 
L 21.415725 14.768613 
L 20.994389 14.687319 
L 20.573053 14.606025 
L 20.151718 14.52473 
L 19.730382 14.443436 
L 19.369249 14.347165 
L 19.008117 14.250894 
L 18.646984 14.154623 
L 18.285851 14.058352 
L 17.900654 13.817558 
L 17.515457 13.576763 
L 17.271712 13.326995 
L 17.027966 13.077226 
L 16.784221 12.827457 
L 16.540475 12.577689 
L 16.29673 12.32792 
L 16.052984 12.078151 
L 15.809239 11.828383 
L 15.565493 11.578614 
" style="fill:none;stroke:#4169e1;stroke-linecap:square;stroke-width:0.4;"/>
   </g>
   <g id="line2d_39">
    <path clip-path="url(#p04cc387508)" d="M 17.924973 20.389866 
L 17.645089 19.83619 
L 17.365205 19.282515 
L 17.085321 18.72884 
L 16.805436 18.175164 
L 16.525552 17.621489 
L 16.245668 17.067814 
L 15.965784 16.514139 
L 15.685899 15.960463 
L 15.595595 15.647407 
L 15.50529 15.334352 
L 15.414986 15.021296 
L 15.324681 14.70824 
L 15.278041 14.351652 
L 15.231401 13.995065 
L 15.184761 13.638477 
L 15.13812 13.281889 
L 15.09148 12.925302 
L 15.04484 12.568714 
L 14.998199 12.212127 
L 14.951559 11.855539 
L 14.904919 11.498951 
L 14.858279 11.142364 
L 14.811638 10.785776 
L 14.764998 10.429189 
L 14.718358 10.072601 
L 14.671717 9.716013 
L 14.625077 9.359426 
L 14.578437 9.002838 
L 14.521253 8.692871 
L 14.464068 8.382904 
L 14.406884 8.072936 
L 14.3497 7.762969 
L 14.292515 7.453002 
L 14.235331 7.143035 
L 14.178147 6.833067 
L 14.120962 6.5231 
" style="fill:none;stroke:#008000;stroke-linecap:square;stroke-width:0.4;"/>
   </g>
   <g id="line2d_40">
    <path clip-path="url(#p04cc387508)" d="M 17.371242 20.919473 
L 16.910792 20.967667 
L 16.450341 21.015861 
L 15.98989 21.064054 
L 15.52944 21.112248 
L 15.068989 21.160442 
L 14.608538 21.208636 
L 14.148088 21.25683 
L 13.687637 21.305024 
L 13.278291 21.44943 
L 12.868945 21.593837 
L 12.459599 21.738243 
L 12.050252 21.88265 
L 11.61089 22.195589 
L 11.171527 22.508529 
L 10.732165 22.821468 
L 10.292802 23.134407 
L 10.028011 23.670075 
L 9.76322 24.205744 
L 9.498429 24.741412 
L 9.233638 25.27708 
L 9.197414 25.626266 
L 9.16119 25.975453 
" style="fill:none;stroke:#008000;stroke-linecap:square;stroke-width:0.4;"/>
   </g>
   <g id="line2d_41">
    <path clip-path="url(#p04cc387508)" d="M 25.628912 29.080836 
L 25.568879 28.6475 
L 25.508846 28.214164 
L 25.316163 27.913229 
L 25.123479 27.612295 
L 24.930796 27.31136 
L 24.738112 27.010425 
L 24.470281 26.742591 
L 24.20245 26.474757 
L 23.934619 26.206923 
L 23.666789 25.939089 
L 23.398958 25.671255 
L 23.131127 25.403421 
L 22.863296 25.135587 
L 22.595465 24.867753 
L 22.327634 24.599919 
L 22.059803 24.332085 
L 21.791972 24.064251 
L 21.524141 23.796417 
L 21.25631 23.528583 
L 20.988479 23.260748 
L 20.720648 22.992914 
L 20.452818 22.72508 
L 20.136837 22.433178 
L 19.820857 22.141277 
L 19.504876 21.849375 
L 19.188895 21.557473 
L 18.872915 21.265571 
L 18.556934 20.973669 
L 18.240954 20.681767 
L 17.924973 20.389866 
" style="fill:none;stroke:#008000;stroke-linecap:square;stroke-width:0.4;"/>
   </g>
  </g>
 </g>
 <defs>
  <clipPath id="p04cc387508">
   <rect height="72" width="51.058508" x="0" y="0"/>
  </clipPath>
 </defs>
</svg>
