<?xml version="1.0" encoding="utf-8" standalone="no"?>
<!DOCTYPE svg PUBLIC "-//W3C//DTD SVG 1.1//EN"
  "http://www.w3.org/Graphics/SVG/1.1/DTD/svg11.dtd">
<svg height="58.987353pt" version="1.1" viewBox="0 0 72 58.987353" width="72pt" xmlns="http://www.w3.org/2000/svg" xmlns:xlink="http://www.w3.org/1999/xlink">
 <metadata>
  <rdf:RDF xmlns:cc="http://creativecommons.org/ns#" xmlns:dc="http://purl.org/dc/elements/1.1/" xmlns:rdf="http://www.w3.org/1999/02/22-rdf-syntax-ns#">
   <cc:Work>
    <dc:type rdf:resource="http://purl.org/dc/dcmitype/StillImage"/>
    <dc:date>2022-04-19T00:50:29.623017</dc:date>
    <dc:format>image/svg+xml</dc:format>
    <dc:creator>
     <cc:Agent>
      <dc:title>Matplotlib v3.4.3, https://matplotlib.org/</dc:title>
     </cc:Agent>
    </dc:creator>
   </cc:Work>
  </rdf:RDF>
 </metadata>
 <defs>
  <style type="text/css">*{stroke-linecap:butt;stroke-linejoin:round;}</style>
 </defs>
 <g id="figure_1">
  <g id="patch_1">
   <path d="M 0 58.987353 
L 72 58.987353 
L 72 0 
L 0 0 
z
" style="fill:#ffffff;"/>
  </g>
  <g id="axes_1">
   <g id="line2d_1">
    <path clip-path="url(#p85336abcb4)" d="M 65.952929 28.966167 
L 65.006455 27.680349 
L 64.059981 26.39453 
L 63.10403 25.096281 
L 62.148079 23.798031 
L 61.140002 22.428712 
L 60.131925 21.059393 
L 59.123848 19.690073 
L 58.115771 18.320754 
L 56.904563 16.675132 
L 55.693354 15.02951 
L 54.210145 13.01517 
L 52.726936 11.000831 
L 51.436433 9.247783 
L 50.145931 7.494736 
L 49.118899 6.099616 
L 48.091867 4.704496 
L 46.995651 3.215555 
" style="fill:none;stroke:#808080;stroke-linecap:square;stroke-width:0.4;"/>
   </g>
   <g id="line2d_2">
    <path clip-path="url(#p85336abcb4)" d="M 36.634984 48.360399 
L 35.924181 46.986858 
L 35.213378 45.613317 
L 34.207196 43.669578 
L 33.201015 41.725839 
L 32.502691 40.376691 
L 31.804366 39.027544 
L 31.106041 37.678396 
L 30.407717 36.329248 
L 29.427124 34.434766 
L 28.446532 32.540283 
L 27.398018 30.51445 
L 26.349505 28.488618 
L 25.26245 26.388198 
L 24.175395 24.287777 
L 22.933227 21.888302 
L 22.040458 20.163401 
" style="fill:none;stroke:#808080;stroke-linecap:square;stroke-width:0.4;"/>
   </g>
   <g id="line2d_3">
    <path clip-path="url(#p85336abcb4)" d="M 47.676126 45.020837 
L 47.054411 42.367106 
L 46.63867 40.592949 
L 46.222929 38.818792 
L 45.801186 37.019068 
L 45.379443 35.219345 
" style="fill:none;stroke:#808080;stroke-linecap:square;stroke-width:0.4;"/>
   </g>
   <g id="line2d_4">
    <path clip-path="url(#p85336abcb4)" d="M 18.535724 56.30611 
L 17.38138 53.8358 
L 16.422586 51.783932 
L 15.463791 49.732064 
L 14.733401 48.169004 
L 14.003012 46.605944 
L 12.892895 44.320931 
L 11.782779 42.035918 
L 10.805345 39.970915 
L 9.827912 37.905912 
L 9.215042 36.610477 
L 8.602171 35.315042 
L 7.82629 33.675987 
" style="fill:none;stroke:#808080;stroke-linecap:square;stroke-width:0.4;"/>
   </g>
   <g id="line2d_5">
    <path clip-path="url(#p85336abcb4)" d="M 56.032012 37.161442 
L 54.755726 35.747558 
L 53.744806 34.627333 
L 52.733886 33.507109 
L 50.9196 31.496992 
L 49.105315 29.486874 
L 47.291029 27.476757 
L 45.476744 25.46664 
L 43.97142 23.798852 
L 42.466097 22.131064 
L 40.960774 20.463277 
L 39.455451 18.795489 
L 38.191959 17.395678 
L 36.928467 15.995867 
L 35.664975 14.596056 
L 34.401483 13.196245 
L 32.581195 11.17956 
" style="fill:none;stroke:#808080;stroke-linecap:square;stroke-width:0.4;"/>
   </g>
   <g id="line2d_6">
    <path clip-path="url(#p85336abcb4)" d="M 65.671135 29.264988 
L 64.697493 27.940702 
L 63.72385 26.616417 
L 62.750524 25.291898 
L 61.777197 23.967378 
L 60.784284 22.616823 
L 59.791371 21.266268 
L 58.798458 19.915713 
L 57.805545 18.565158 
L 56.5817 16.900068 
L 55.357855 15.234978 
L 53.889494 13.237526 
L 52.421132 11.240075 
L 51.120837 9.471078 
L 49.820541 7.70208 
L 48.807409 6.324083 
L 47.794278 4.946085 
L 46.729653 3.497956 
" style="fill:none;stroke:#808080;stroke-linecap:square;stroke-width:0.4;"/>
   </g>
   <g id="line2d_7">
    <path clip-path="url(#p85336abcb4)" d="M 52.689658 42.497518 
L 51.996546 41.22331 
L 51.303434 39.949102 
L 50.610322 38.674894 
L 49.91721 37.400686 
" style="fill:none;stroke:#808080;stroke-linecap:square;stroke-width:0.4;"/>
   </g>
   <g id="line2d_8">
    <path clip-path="url(#p85336abcb4)" d="M 47.252172 45.143273 
L 46.654465 42.535515 
L 46.244411 40.744939 
L 45.834357 38.954363 
L 45.451471 37.284347 
" style="fill:none;stroke:#808080;stroke-linecap:square;stroke-width:0.4;"/>
   </g>
   <g id="line2d_9">
    <path clip-path="url(#p85336abcb4)" d="M 44.998452 46.148567 
L 44.626307 45.099646 
" style="fill:none;stroke:#808080;stroke-linecap:square;stroke-width:0.4;"/>
   </g>
   <g id="line2d_10">
    <path clip-path="url(#p85336abcb4)" d="M 36.272317 48.529277 
L 35.56562 47.162304 
L 34.858924 45.79533 
L 33.848004 43.838925 
L 32.837084 41.88252 
L 32.142708 40.539119 
L 31.448333 39.195718 
L 30.753957 37.852317 
L 30.059581 36.508916 
L 29.090993 34.635074 
L 28.122406 32.761231 
L 27.077683 30.739621 
L 26.03296 28.71801 
L 24.928846 26.581704 
L 23.824732 24.445397 
L 22.601518 22.079697 
L 21.693586 20.322897 
" style="fill:none;stroke:#808080;stroke-linecap:square;stroke-width:0.4;"/>
   </g>
   <g id="line2d_11">
    <path clip-path="url(#p85336abcb4)" d="M 6.219559 34.992298 
L 5.677453 35.372977 
L 5.135347 35.753656 
L 4.922738 36.577171 
L 4.710129 37.400686 
L 4.698914 37.988006 
L 4.687699 38.575326 
L 4.676485 39.162646 
L 4.66527 39.749966 
L 4.532113 40.321454 
L 4.398955 40.892942 
L 4.265798 41.46443 
L 4.132641 42.035918 
L 3.945305 42.508659 
L 3.757969 42.9814 
L 3.570633 43.454141 
L 3.383297 43.926882 
L 3.355654 44.391297 
L 3.328012 44.855712 
L 3.30037 45.320126 
L 3.272727 45.784541 
L 3.586744 46.267954 
L 3.900761 46.751367 
L 4.342565 47.02896 
L 4.784369 47.306554 
L 5.226172 47.584147 
L 5.667976 47.86174 
L 6.057654 48.081282 
L 6.447332 48.300823 
L 6.83701 48.520364 
L 7.226688 48.739906 
L 7.511957 49.0657 
L 7.797226 49.391493 
L 8.082495 49.717287 
L 8.367764 50.043081 
L 8.626655 50.475245 
L 8.885545 50.907408 
L 9.144435 51.339572 
L 9.403326 51.771735 
L 10.043996 52.224891 
L 10.684667 52.678047 
L 11.101039 52.859474 
L 11.517412 53.0409 
L 11.933785 53.222327 
L 12.350157 53.403753 
L 12.826553 53.61016 
L 13.30295 53.816566 
" style="fill:none;stroke:#008000;stroke-linecap:square;stroke-width:0.4;"/>
   </g>
   <g id="line2d_12">
    <path clip-path="url(#p85336abcb4)" d="M 7.584933 34.667677 
L 7.870617 35.330449 
L 8.1563 35.993222 
L 8.441984 36.655995 
L 8.727668 37.318768 
L 9.013351 37.981541 
L 9.299035 38.644314 
L 9.584719 39.307087 
L 9.870402 39.96986 
L 10.156086 40.632633 
L 10.441769 41.295405 
L 10.727453 41.958178 
L 11.013137 42.620951 
L 11.29882 43.283724 
L 11.584504 43.946497 
L 11.870188 44.60927 
L 12.155871 45.272043 
L 12.441555 45.934816 
L 12.727239 46.597589 
L 13.012922 47.260361 
L 13.298606 47.923134 
L 13.584289 48.585907 
L 13.869973 49.24868 
L 14.155657 49.911453 
L 14.44134 50.574226 
L 14.727024 51.236999 
L 15.012708 51.899772 
L 15.298391 52.562545 
L 15.584075 53.225317 
L 15.869758 53.88809 
L 16.155442 54.550863 
L 16.441126 55.213636 
L 16.726809 55.876409 
" style="fill:none;stroke:#4169e1;stroke-linecap:square;stroke-width:0.4;"/>
   </g>
   <g id="line2d_13">
    <path clip-path="url(#p85336abcb4)" d="M 10.0143 34.602471 
L 10.435412 34.796387 
L 10.856523 34.990304 
L 11.277634 35.18422 
L 11.698746 35.378137 
L 12.119857 35.572053 
L 12.540969 35.76597 
L 12.96208 35.959886 
L 13.383191 36.153803 
L 14.0395 36.508681 
L 14.695808 36.86356 
L 15.352116 37.218438 
L 16.008424 37.573316 
L 16.419111 38.018615 
L 16.829797 38.463913 
L 17.240483 38.909212 
L 17.651169 39.35451 
L 17.921591 39.831825 
L 18.192012 40.30914 
L 18.462433 40.786455 
L 18.732854 41.26377 
L 18.88544 41.823061 
L 19.038025 42.382352 
L 19.190611 42.941643 
L 19.343197 43.500935 
L 19.326611 44.255374 
L 19.310026 45.009813 
L 19.293441 45.764252 
L 19.276855 46.518691 
L 19.173078 47.346193 
L 19.069301 48.173695 
L 18.965523 49.001198 
L 18.861746 49.8287 
L 18.821309 50.428334 
L 18.780873 51.027968 
L 18.740436 51.627602 
L 18.699999 52.227237 
L 18.815939 52.751345 
L 18.931879 53.275453 
L 19.047819 53.799561 
L 19.163759 54.323669 
" style="fill:none;stroke:#008000;stroke-linecap:square;stroke-width:0.4;"/>
   </g>
   <g id="line2d_14">
    <path clip-path="url(#p85336abcb4)" d="M 22.295715 22.37195 
L 22.552315 22.878232 
L 22.808915 23.384515 
L 23.065515 23.890797 
L 23.322115 24.397079 
L 23.578715 24.903361 
L 23.835315 25.409643 
L 24.091915 25.915926 
L 24.348515 26.422208 
L 24.646795 27.010613 
L 24.945076 27.599018 
L 25.243357 28.187423 
L 25.541637 28.775828 
L 25.839918 29.364233 
L 26.138199 29.952638 
L 26.436479 30.541043 
L 26.73476 31.129448 
L 27.03304 31.717853 
L 27.331321 32.306258 
L 27.629602 32.894663 
L 27.927882 33.483068 
L 28.226163 34.071473 
L 28.524444 34.659878 
L 28.822724 35.248283 
L 29.121005 35.836688 
L 29.419286 36.425093 
L 29.717566 37.013498 
L 30.015847 37.601903 
L 30.314128 38.190308 
L 30.612408 38.778713 
L 30.910689 39.367118 
L 31.20897 39.955523 
L 31.50725 40.543928 
L 31.805531 41.132333 
L 32.103811 41.720738 
L 32.402092 42.309143 
L 32.700373 42.897548 
L 32.998653 43.485953 
L 33.296934 44.074358 
L 33.595215 44.662763 
L 33.893495 45.251168 
L 34.219675 45.986842 
L 34.545855 46.722517 
L 34.872034 47.458192 
L 35.198214 48.193867 
L 35.398187 48.71387 
L 35.598159 49.233874 
" style="fill:none;stroke:#4169e1;stroke-linecap:square;stroke-width:0.4;"/>
   </g>
   <g id="line2d_15">
    <path clip-path="url(#p85336abcb4)" d="M 21.051652 21.21795 
L 20.835015 21.701012 
L 20.618378 22.184073 
L 20.401741 22.667135 
L 20.185104 23.150196 
L 19.968467 23.633258 
L 19.75183 24.116319 
L 19.535193 24.599381 
L 19.318556 25.082442 
L 19.075303 25.822925 
L 18.83205 26.563408 
L 18.656403 27.098072 
L 18.480756 27.632735 
L 18.305108 28.167398 
L 18.129461 28.702061 
L 18.035319 29.221419 
L 17.941177 29.740778 
L 17.847035 30.260136 
L 17.752893 30.779495 
L 17.658751 31.298853 
L 17.564609 31.818212 
L 17.470467 32.33757 
L 17.376326 32.856929 
L 17.353343 33.386608 
L 17.33036 33.916287 
L 17.307378 34.445965 
L 17.284395 34.975644 
L 17.261412 35.505323 
L 17.23843 36.035002 
L 17.215447 36.564681 
L 17.192464 37.09436 
L 17.46257 37.621634 
L 17.732675 38.148909 
L 18.00278 38.676184 
L 18.272885 39.203458 
L 18.522061 39.579271 
L 18.771237 39.955083 
L 19.020413 40.330895 
L 19.269589 40.706707 
L 19.518765 41.082519 
L 19.767941 41.458332 
L 20.017117 41.834144 
L 20.266293 42.209956 
L 20.709045 42.675074 
L 21.151796 43.140192 
L 21.594547 43.605311 
L 22.037299 44.070429 
L 22.723461 44.543639 
L 23.409623 45.016849 
L 24.095785 45.49006 
L 24.781947 45.96327 
L 25.316787 46.191959 
L 25.851626 46.420648 
L 26.587071 46.735418 
L 27.322515 47.050187 
L 27.776718 47.176377 
L 28.230922 47.302566 
L 28.685125 47.428756 
L 29.139328 47.554945 
L 29.593531 47.681134 
L 30.047734 47.807324 
L 30.501938 47.933513 
L 30.956141 48.059703 
L 31.386335 48.161088 
L 31.816529 48.262474 
L 32.246722 48.363859 
L 32.676916 48.465244 
L 33.10711 48.56663 
L 33.537304 48.668015 
L 33.967498 48.769401 
L 34.397692 48.870786 
" style="fill:none;stroke:#008000;stroke-linecap:square;stroke-width:0.4;"/>
   </g>
   <g id="line2d_16">
    <path clip-path="url(#p85336abcb4)" d="M 18.83205 26.563408 
L 18.950123 27.013691 
L 19.068195 27.463974 
L 19.186267 27.914257 
L 19.30434 28.364539 
L 19.422412 28.814822 
L 19.540484 29.265105 
L 19.658556 29.715388 
L 19.776629 30.16567 
L 20.080537 30.8189 
L 20.384444 31.472129 
L 20.688352 32.125359 
L 20.99226 32.778588 
L 21.39647 33.258835 
L 21.80068 33.739082 
L 22.20489 34.219329 
L 22.6091 34.699576 
L 22.685551 35.356793 
L 22.762002 36.01401 
L 22.738625 36.481473 
L 22.715247 36.948937 
L 22.691869 37.416401 
L 22.668492 37.883864 
L 22.645114 38.351328 
L 22.621737 38.818792 
L 22.598359 39.286256 
L 22.574982 39.753719 
L 22.810021 40.235842 
L 23.04506 40.717966 
L 23.280099 41.200089 
L 23.515137 41.682212 
L 23.856639 42.204092 
L 24.19814 42.725972 
L 24.539642 43.247852 
L 24.881143 43.769732 
L 25.181892 44.519597 
L 25.482641 45.269463 
L 25.667134 45.845055 
L 25.851626 46.420648 
" style="fill:none;stroke:#4169e1;stroke-linecap:square;stroke-width:0.4;"/>
   </g>
   <g id="line2d_17">
    <path clip-path="url(#p85336abcb4)" d="M 24.348515 26.422208 
L 24.12627 27.007417 
L 23.904026 27.592626 
L 23.681781 28.177835 
L 23.459537 28.763045 
L 23.38435 29.318348 
L 23.309163 29.873652 
L 23.233975 30.428956 
L 23.158788 30.984259 
L 23.178217 31.463334 
L 23.197645 31.942408 
L 23.217074 32.421482 
L 23.236503 32.900556 
L 23.121195 33.48037 
L 23.005887 34.060185 
L 22.6091 34.699576 
" style="fill:none;stroke:#008000;stroke-linecap:square;stroke-width:0.4;"/>
   </g>
   <g id="line2d_18">
    <path clip-path="url(#p85336abcb4)" d="M 26.425955 32.568429 
L 26.240989 33.042929 
L 26.056022 33.51743 
L 25.871055 33.99193 
L 25.686088 34.46643 
L 25.553405 34.952893 
L 25.420722 35.439355 
L 25.288038 35.925818 
L 25.155355 36.41228 
L 25.100702 36.880917 
L 25.04605 37.349553 
L 24.991397 37.81819 
L 24.936744 38.286826 
L 25.030254 39.049357 
L 25.123764 39.811888 
L 25.325316 40.228571 
L 25.526868 40.645254 
L 25.728421 41.061937 
L 25.929973 41.47862 
L 26.192812 41.958867 
L 26.455651 42.439114 
L 26.71849 42.919361 
L 26.98133 43.399608 
L 27.351737 43.90331 
L 27.722144 44.407012 
L 28.092552 44.910714 
L 28.462959 45.414416 
L 29.084675 45.918001 
L 29.706391 46.421586 
L 30.154355 46.758638 
L 30.602319 47.095691 
" style="fill:none;stroke:#4169e1;stroke-linecap:square;stroke-width:0.4;"/>
   </g>
   <g id="line2d_19">
    <path clip-path="url(#p85336abcb4)" d="M 28.330276 37.72859 
L 28.353022 38.375839 
L 28.375767 39.023087 
L 28.398513 39.670336 
L 28.421259 40.317584 
L 28.486495 40.836532 
L 28.551731 41.35548 
L 28.616967 41.874428 
L 28.682203 42.393376 
L 29.024336 42.893912 
L 29.366469 43.394448 
L 29.852974 43.862029 
L 30.33948 44.32961 
L 30.825985 44.797191 
L 31.31249 45.264772 
L 31.711804 45.53955 
L 32.111117 45.814329 
L 32.51043 46.089107 
L 32.909744 46.363886 
L 33.606015 46.709851 
L 34.302286 47.055817 
" style="fill:none;stroke:#4169e1;stroke-linecap:square;stroke-width:0.4;"/>
   </g>
   <g id="line2d_20">
    <path clip-path="url(#p85336abcb4)" d="M 23.451955 19.449422 
L 24.158967 19.076483 
L 24.795847 18.723012 
L 25.432726 18.369541 
L 26.009583 18.221304 
L 26.586439 18.073067 
L 27.216684 18.034131 
L 27.84693 17.995195 
L 28.629761 18.057117 
L 29.412592 18.119039 
L 29.842233 18.152815 
L 30.364437 18.19996 
L 30.88664 18.247105 
L 31.678317 18.110126 
L 32.469994 17.973147 
L 32.947969 17.949223 
L 33.425945 17.925298 
L 33.967419 18.049142 
L 34.227731 18.68478 
L 34.19993 19.501728 
L 34.17213 20.318675 
L 34.226151 20.836802 
L 34.280172 21.354929 
L 34.334193 21.873056 
L 34.388214 22.391183 
L 34.388214 22.986713 
L 34.388214 23.582243 
L 34.443499 24.159477 
L 34.498784 24.736711 
L 34.586607 25.169227 
L 34.674431 25.601742 
L 35.126186 26.138399 
L 35.521708 26.299537 
L 35.917231 26.460674 
L 36.67321 26.48929 
L 37.429188 26.517905 
L 38.126723 26.458563 
L 38.824258 26.399222 
L 39.521793 26.33988 
L 40.219328 26.280538 
L 40.791761 26.378815 
L 41.364194 26.477093 
L 41.727494 26.989591 
L 42.090793 27.502089 
L 42.250013 27.964392 
L 42.409233 28.426696 
L 42.517591 29.000177 
L 42.625949 29.573659 
L 42.540021 30.08041 
L 42.454093 30.587162 
L 42.368164 31.093913 
L 42.282236 31.600664 
L 42.299611 32.328716 
L 42.316987 33.056768 
" style="fill:none;stroke:#008000;stroke-linecap:square;stroke-width:0.4;"/>
   </g>
   <g id="line2d_21">
    <path clip-path="url(#p85336abcb4)" d="M 23.683203 20.058321 
L 24.341565 20.365937 
L 24.999926 20.673553 
L 25.658288 20.981169 
L 26.31665 21.288785 
L 26.823373 21.730683 
L 27.330097 22.17258 
L 27.836821 22.614478 
L 28.343544 23.056375 
L 28.55331 23.434826 
L 28.763076 23.813277 
L 28.972842 24.191728 
L 29.182608 24.570179 
L 29.175026 24.999528 
L 29.167444 25.428877 
L 29.159862 25.858226 
L 29.15228 26.287574 
L 29.150701 26.984783 
L 29.149121 27.681991 
L 29.147542 28.379199 
L 29.145962 29.076407 
L 29.36947 29.734797 
L 29.592978 30.393186 
L 29.816486 31.051576 
L 30.039995 31.709966 
L 30.413403 32.345956 
L 30.786812 32.981946 
L 31.16022 33.617935 
L 31.533629 34.253925 
L 32.0413 34.797619 
L 32.548972 35.341312 
L 33.056643 35.885005 
L 33.564315 36.428699 
L 33.950439 36.947647 
L 34.336563 37.466595 
L 34.722687 37.985543 
L 35.108811 38.504491 
L 35.494935 39.023439 
L 35.881059 39.542387 
L 36.267183 40.061335 
L 36.653307 40.580283 
L 36.928704 40.99163 
L 37.204101 41.402977 
L 37.479497 41.814324 
L 37.754894 42.225671 
L 38.030291 42.637018 
L 38.305687 43.048365 
L 38.581084 43.459712 
L 38.856481 43.871059 
" style="fill:none;stroke:#4169e1;stroke-linecap:square;stroke-width:0.4;"/>
   </g>
   <g id="line2d_22">
    <path clip-path="url(#p85336abcb4)" d="M 30.076009 25.069776 
L 30.625696 25.662726 
L 31.175384 26.255675 
L 31.725072 26.848625 
L 32.27476 27.441574 
L 32.524804 27.831401 
L 32.774849 28.221228 
L 33.024894 28.611054 
L 33.274939 29.000881 
L 33.524983 29.390708 
L 33.775028 29.780535 
L 34.025073 30.170361 
L 34.275118 30.560188 
L 34.649474 31.013227 
L 35.02383 31.466265 
L 35.398187 31.919304 
L 35.772543 32.372343 
L 35.975675 32.885779 
L 36.178806 33.399215 
L 36.381938 33.912651 
L 36.58507 34.426087 
L 36.695481 35.09468 
L 36.805893 35.763273 
L 36.916304 36.431865 
L 37.026716 37.100458 
" style="fill:none;stroke:#008000;stroke-linecap:square;stroke-width:0.4;"/>
   </g>
   <g id="line2d_23">
    <path clip-path="url(#p85336abcb4)" d="M 29.412592 18.119039 
L 29.738772 18.636228 
L 30.064952 19.153417 
L 30.391131 19.670606 
L 30.717311 20.187795 
L 30.947611 20.548361 
L 31.177911 20.908927 
L 31.408212 21.269493 
L 31.638512 21.63006 
L 31.868812 21.990626 
L 32.099112 22.351192 
L 32.329413 22.711758 
L 32.559713 23.072325 
L 32.762213 23.475756 
L 32.964713 23.879186 
L 33.167212 24.282617 
L 33.369712 24.686048 
L 33.572212 25.089479 
L 33.774712 25.49291 
L 33.977212 25.89634 
L 34.179712 26.299771 
L 34.563388 26.794736 
L 34.947064 27.289701 
L 35.330739 27.784666 
L 35.714415 28.279631 
L 36.098091 28.774596 
L 36.481767 29.269561 
L 36.865442 29.764526 
L 37.249118 30.259491 
L 37.446642 30.640346 
L 37.644167 31.021202 
L 37.841691 31.402057 
L 38.039215 31.782912 
L 38.23674 32.163767 
L 38.434264 32.544622 
L 38.631788 32.925477 
L 38.829312 33.306332 
L 39.091836 33.759371 
L 39.354359 34.21241 
L 39.616882 34.665448 
L 39.879406 35.118487 
L 40.141929 35.571526 
L 40.404452 36.024564 
L 40.666976 36.477603 
L 40.929499 36.930642 
" style="fill:none;stroke:#4169e1;stroke-linecap:square;stroke-width:0.4;"/>
   </g>
   <g id="line2d_24">
    <path clip-path="url(#p85336abcb4)" d="M 29.864979 24.177068 
L 30.315865 24.412208 
L 30.766751 24.647347 
L 31.217637 24.882486 
L 31.668524 25.117625 
L 32.11941 25.352764 
L 32.570296 25.587903 
L 33.021182 25.823043 
L 33.472068 26.058182 
" style="fill:none;stroke:#008000;stroke-dasharray:1.48,0.64;stroke-dashoffset:0;stroke-width:0.4;"/>
   </g>
   <g id="line2d_25">
    <path clip-path="url(#p85336abcb4)" d="M 32.450407 11.643036 
L 32.841507 12.159082 
L 33.232606 12.675127 
L 33.623706 13.191173 
L 34.014806 13.707218 
L 34.405905 14.223264 
L 34.797005 14.739309 
L 35.188105 15.255355 
L 35.579205 15.7714 
L 35.970304 16.287445 
L 36.361404 16.803491 
L 36.752504 17.319536 
L 37.143603 17.835582 
L 37.534703 18.351627 
L 37.925803 18.867673 
L 38.316902 19.383718 
L 38.708002 19.899764 
L 39.09385 20.35075 
L 39.479697 20.801736 
L 39.865545 21.252723 
L 40.251393 21.703709 
L 40.63724 22.154696 
L 41.023088 22.605682 
L 41.408936 23.056668 
L 41.794783 23.507655 
L 42.180631 23.958641 
L 42.566479 24.409627 
L 42.952326 24.860614 
L 43.338174 25.3116 
L 43.724021 25.762587 
L 44.109869 26.213573 
L 44.495717 26.664559 
L 44.881564 27.115546 
L 45.214595 27.446778 
L 45.547626 27.778011 
L 45.880657 28.109243 
L 46.213688 28.440476 
L 46.54672 28.771708 
L 46.879751 29.102941 
L 47.212782 29.434173 
L 47.545813 29.765406 
L 47.878844 30.096638 
L 48.211875 30.427871 
L 48.544906 30.759103 
L 48.877937 31.090336 
L 49.210968 31.421569 
L 49.543999 31.752801 
L 49.87703 32.084034 
L 50.210061 32.415266 
L 50.543092 32.746499 
L 50.876123 33.077731 
L 51.209154 33.408964 
L 51.542185 33.740196 
L 51.875216 34.071429 
L 52.208247 34.402661 
L 52.541278 34.733894 
L 52.874309 35.065126 
L 53.20734 35.396359 
L 53.540371 35.727591 
L 53.873402 36.058824 
L 54.206433 36.390056 
L 54.539464 36.721289 
L 54.872495 37.052521 
L 55.205526 37.383754 
L 55.538557 37.714986 
" style="fill:none;stroke:#008000;stroke-linecap:square;stroke-width:0.4;"/>
   </g>
   <g id="line2d_26">
    <path clip-path="url(#p85336abcb4)" d="M 34.568916 10.695443 
L 35.052973 10.749625 
L 35.53703 10.803806 
L 36.021087 10.857988 
L 36.505144 10.91217 
L 36.989201 10.966352 
L 37.473258 11.020533 
L 37.957315 11.074715 
L 38.441372 11.128897 
L 38.881438 11.296543 
L 39.321504 11.46419 
L 39.76157 11.631836 
L 40.201636 11.799483 
L 40.641703 11.96713 
L 41.081769 12.134776 
L 41.521835 12.302423 
L 41.961901 12.470069 
L 42.596727 12.889919 
L 43.231553 13.309768 
L 43.86638 13.729618 
L 44.501206 14.149467 
L 44.977286 14.487458 
L 45.453366 14.825449 
L 45.929446 15.163439 
L 46.405526 15.50143 
L 46.980487 15.928316 
L 47.555448 16.355202 
L 47.947811 16.832048 
L 48.340175 17.308894 
L 48.505397 17.705522 
L 48.670619 18.102151 
L 48.835841 18.49878 
L 49.001064 18.895409 
L 49.251898 19.614313 
L 49.502733 20.333217 
L 49.993345 21.000989 
L 50.483957 21.668761 
L 50.831777 21.963125 
L 51.179596 22.257488 
L 51.527416 22.551852 
L 51.875236 22.846216 
L 52.117856 23.513049 
L 52.360477 24.179883 
L 52.300612 25.02744 
L 52.240746 25.874996 
L 52.180881 26.722553 
L 52.121016 27.570109 
L 52.062572 28.164114 
L 52.004128 28.758119 
L 51.945684 29.352124 
L 51.88724 29.946129 
L 51.81458 30.717808 
L 51.741921 31.489486 
" style="fill:none;stroke:#008000;stroke-linecap:square;stroke-width:0.4;"/>
   </g>
   <g id="line2d_27">
    <path clip-path="url(#p85336abcb4)" d="M 39.433969 17.642428 
L 39.94322 17.552594 
L 40.452471 17.46276 
L 41.007845 17.434379 
L 41.563219 17.405998 
L 42.21242 17.187395 
L 42.86162 16.968792 
L 43.575266 16.834862 
L 44.288913 16.700933 
L 44.958015 16.753238 
L 45.627118 16.805543 
L 46.193233 17.12219 
L 46.759348 17.438836 
" style="fill:none;stroke:#008000;stroke-linecap:square;stroke-width:0.4;"/>
   </g>
   <g id="line2d_28">
    <path clip-path="url(#p85336abcb4)" d="M 45.924076 3.757841 
L 46.064657 4.229644 
L 46.205238 4.701447 
L 46.345819 5.173249 
L 46.4864 5.645052 
L 46.682266 6.435495 
L 46.878131 7.225938 
L 47.073997 8.016381 
L 47.269863 8.806824 
L 47.420395 9.570528 
L 47.570928 10.334232 
L 47.72146 11.097936 
L 47.871992 11.86164 
L 47.974664 12.552515 
L 48.077335 13.24339 
L 48.180007 13.934265 
L 48.282679 14.625141 
L 48.405884 15.063754 
L 48.600171 15.754512 
L 48.794457 16.44527 
L 49.119373 17.187043 
L 49.444289 17.928817 
L 49.769205 18.67059 
L 50.094121 19.412363 
L 50.390605 19.816146 
L 50.687089 20.219928 
L 50.983573 20.623711 
L 51.280056 21.027494 
L 51.690743 21.480532 
L 52.101429 21.933571 
L 52.512115 22.38661 
L 52.922802 22.839648 
L 53.458747 23.096484 
L 53.994693 23.353319 
L 54.530638 23.610154 
L 55.066584 23.86699 
L 55.648179 24.321905 
L 56.229774 24.77682 
L 56.811369 25.231735 
L 57.392964 25.68665 
L 58.022735 26.071551 
L 58.652507 26.456452 
L 59.282278 26.841354 
L 59.91205 27.226255 
L 60.391368 27.511002 
L 60.870686 27.795749 
L 61.350005 28.080496 
L 61.829323 28.365243 
L 62.308641 28.64999 
L 62.78796 28.934737 
L 63.267278 29.219484 
L 63.746596 29.504231 
" style="fill:none;stroke:#008000;stroke-linecap:square;stroke-width:0.4;"/>
   </g>
   <g id="line2d_29">
    <path clip-path="url(#p85336abcb4)" d="M 48.165159 3.843687 
L 48.526208 4.349735 
L 48.887256 4.855782 
L 49.248305 5.36183 
L 49.609353 5.867878 
L 49.970402 6.373925 
L 50.33145 6.879973 
L 50.692499 7.38602 
L 51.053547 7.892068 
L 51.414596 8.398116 
L 51.775644 8.904163 
L 52.136693 9.410211 
L 52.497741 9.916259 
L 52.85879 10.422306 
L 53.219838 10.928354 
L 53.580887 11.434402 
L 53.941935 11.940449 
L 54.272617 12.655777 
L 54.603298 13.371104 
L 54.93398 14.086431 
L 55.264661 14.801759 
L 55.595342 15.517086 
L 55.926024 16.232414 
L 56.256705 16.947741 
L 56.587387 17.663068 
L 56.839801 18.024338 
L 57.092215 18.385608 
L 57.344629 18.746878 
L 57.597043 19.108148 
L 57.849457 19.469418 
L 58.101871 19.830688 
L 58.354285 20.191958 
L 58.606699 20.553228 
L 58.859114 20.914498 
L 59.111528 21.275768 
L 59.363942 21.637038 
L 59.616356 21.998308 
L 59.86877 22.359577 
L 60.121184 22.720847 
L 60.373598 23.082117 
L 60.626012 23.443387 
L 61.106436 24.054573 
L 61.58686 24.665759 
L 62.067284 25.276945 
L 62.547708 25.888131 
L 63.028132 26.499317 
L 63.508556 27.110503 
L 63.98898 27.721689 
L 64.469404 28.332875 
" style="fill:none;stroke:#008000;stroke-linecap:square;stroke-width:0.4;"/>
   </g>
   <g id="line2d_30">
    <path clip-path="url(#p85336abcb4)" d="M 44.91126 29.116281 
L 44.841917 29.604737 
L 44.772575 30.093193 
L 44.703232 30.58165 
L 44.633889 31.070106 
L 44.3254 31.751247 
L 44.016912 32.432388 
L 43.708423 33.11353 
L 43.399935 33.794671 
L 43.083864 34.314088 
L 42.767794 34.833505 
L 42.451723 35.352922 
L 42.135653 35.87234 
L 41.867127 36.437846 
L 41.598602 37.003353 
" style="fill:none;stroke:#008000;stroke-linecap:square;stroke-width:0.4;"/>
   </g>
   <g id="line2d_31">
    <path clip-path="url(#p85336abcb4)" d="M 46.042859 35.047652 
L 46.182018 35.625444 
L 46.321178 36.203235 
L 46.460337 36.781026 
L 46.599497 37.358818 
L 46.738656 37.936609 
L 46.877816 38.514401 
L 47.016975 39.092192 
L 47.156134 39.669984 
L 47.295294 40.247775 
L 47.434453 40.825567 
L 47.573613 41.403358 
L 47.712772 41.98115 
L 47.851932 42.558941 
L 47.991091 43.136733 
L 48.130251 43.714524 
L 48.26941 44.292316 
" style="fill:none;stroke:#008000;stroke-linecap:square;stroke-width:0.4;"/>
   </g>
   <g id="line2d_32">
    <path clip-path="url(#p85336abcb4)" d="M 47.647694 8.403393 
L 48.05301 9.068233 
L 48.458326 9.733073 
L 48.863642 10.397913 
L 49.268957 11.062753 
L 49.625781 11.520483 
L 49.982604 11.978212 
L 50.339427 12.435942 
L 50.69625 12.893672 
L 51.077872 13.231662 
L 51.459495 13.569653 
L 51.83006 13.830945 
L 52.200626 14.092237 
L 52.552868 14.344029 
L 52.90511 14.595821 
L 53.257353 14.847614 
L 53.609595 15.099406 
" style="fill:none;stroke:#008000;stroke-linecap:square;stroke-width:0.4;"/>
   </g>
   <g id="line2d_33">
    <path clip-path="url(#p85336abcb4)" d="M 48.405884 15.063754 
L 48.93409 15.384857 
L 49.462296 15.70596 
L 50.156198 16.012051 
L 50.8501 16.318143 
L 51.544001 16.624234 
L 52.237903 16.930325 
L 52.672125 17.107295 
L 53.106347 17.284266 
L 53.540568 17.461236 
L 53.97479 17.638206 
L 54.443446 17.754192 
L 54.912103 17.870178 
L 55.380759 17.986165 
L 55.849415 18.102151 
" style="fill:none;stroke:#008000;stroke-linecap:square;stroke-width:0.4;"/>
   </g>
   <g id="line2d_34">
    <path clip-path="url(#p85336abcb4)" d="M 48.187905 2.681243 
L 48.924297 2.768262 
L 49.660689 2.855281 
L 50.319682 3.081859 
L 50.978676 3.308437 
L 51.473079 3.502647 
L 51.967482 3.696857 
L 52.461885 3.891067 
L 52.956288 4.085276 
L 53.624443 4.195047 
L 54.292598 4.304818 
L 54.666639 4.570331 
L 55.040679 4.835845 
L 55.414719 5.101359 
L 55.78876 5.366873 
L 56.123469 5.634498 
L 56.458178 5.902122 
L 56.792888 6.169747 
L 57.127597 6.437372 
L 57.534492 7.06527 
L 57.941388 7.693167 
L 58.532144 8.296906 
L 59.1229 8.900645 
L 59.513052 9.184806 
L 59.903204 9.468967 
L 60.293356 9.753127 
L 60.683508 10.037288 
L 61.24836 10.292012 
L 61.813211 10.546737 
L 62.471257 11.059234 
L 63.129303 11.571732 
L 63.647557 12.14193 
L 64.165812 12.712128 
L 64.684066 13.282326 
L 65.202321 13.852524 
L 65.60969 14.32503 
L 66.017059 14.797537 
L 66.424428 15.270043 
L 66.831798 15.74255 
L 67.121647 16.35485 
L 67.411497 16.96715 
L 67.701347 17.57945 
L 67.991197 18.19175 
L 68.161158 18.808038 
L 68.331118 19.424325 
L 68.501079 20.040613 
L 68.67104 20.6569 
L 68.685098 21.201063 
L 68.699157 21.745225 
L 68.713215 22.289388 
L 68.727273 22.83355 
L 68.582427 23.291397 
L 68.437581 23.749244 
L 68.292735 24.207091 
L 68.147889 24.664938 
" style="fill:none;stroke:#008000;stroke-linecap:square;stroke-width:0.4;"/>
   </g>
   <g id="line2d_35">
    <path clip-path="url(#p85336abcb4)" d="M 52.956288 4.085276 
L 53.2831 4.537729 
L 53.609911 4.990181 
L 53.936723 5.442633 
L 54.263534 5.895086 
L 54.60235 6.477011 
L 54.941167 7.058937 
L 55.279983 7.640862 
L 55.618799 8.222788 
L 55.943083 8.841421 
L 56.267367 9.460054 
L 56.591651 10.078687 
L 56.915936 10.697319 
L 57.308141 11.097936 
L 57.700346 11.498552 
L 58.092552 11.899168 
L 58.484757 12.299784 
L 58.895128 12.681988 
L 59.305498 13.064192 
L 59.715868 13.446395 
L 60.126239 13.828599 
L 60.599002 14.256072 
L 61.071765 14.683544 
L 61.544528 15.111017 
L 62.017291 15.538489 
L 62.263545 15.950598 
L 62.509799 16.362708 
L 62.756052 16.774817 
L 63.002306 17.186926 
L 63.24856 17.599035 
L 63.494814 18.011145 
L 63.741068 18.423254 
L 63.987321 18.835363 
L 64.246922 19.293386 
L 64.506524 19.751409 
L 64.766125 20.209432 
L 65.025726 20.667455 
L 65.285327 21.125478 
L 65.544928 21.583501 
L 65.804529 22.041524 
L 66.06413 22.499547 
L 66.298063 23.156412 
L 66.531997 23.813277 
L 66.76593 24.470142 
L 66.999863 25.127007 
L 67.101271 25.763818 
L 67.202679 26.400629 
" style="fill:none;stroke:#008000;stroke-linecap:square;stroke-width:0.4;"/>
   </g>
  </g>
 </g>
 <defs>
  <clipPath id="p85336abcb4">
   <rect height="58.987353" width="72" x="0" y="0"/>
  </clipPath>
 </defs>
</svg>
