<?xml version="1.0" encoding="utf-8" standalone="no"?>
<!DOCTYPE svg PUBLIC "-//W3C//DTD SVG 1.1//EN"
  "http://www.w3.org/Graphics/SVG/1.1/DTD/svg11.dtd">
<svg height="72pt" version="1.1" viewBox="0 0 98.547764 72" width="98.547764pt" xmlns="http://www.w3.org/2000/svg" xmlns:xlink="http://www.w3.org/1999/xlink">
 <metadata>
  <rdf:RDF xmlns:cc="http://creativecommons.org/ns#" xmlns:dc="http://purl.org/dc/elements/1.1/" xmlns:rdf="http://www.w3.org/1999/02/22-rdf-syntax-ns#">
   <cc:Work>
    <dc:type rdf:resource="http://purl.org/dc/dcmitype/StillImage"/>
    <dc:date>2022-04-19T00:50:32.197028</dc:date>
    <dc:format>image/svg+xml</dc:format>
    <dc:creator>
     <cc:Agent>
      <dc:title>Matplotlib v3.4.3, https://matplotlib.org/</dc:title>
     </cc:Agent>
    </dc:creator>
   </cc:Work>
  </rdf:RDF>
 </metadata>
 <defs>
  <style type="text/css">*{stroke-linecap:butt;stroke-linejoin:round;}</style>
 </defs>
 <g id="figure_1">
  <g id="patch_1">
   <path d="M 0 72 
L 98.547764 72 
L 98.547764 0 
L 0 0 
z
" style="fill:#ffffff;"/>
  </g>
  <g id="axes_1">
   <g id="patch_2">
    <path clip-path="url(#p889247188b)" d="M 37.251235 52.972762 
L 37.251235 52.972762 
L 36.028978 52.90555 
L 34.80672 52.838338 
L 33.584463 52.771126 
L 32.362205 52.703914 
L 32.397571 51.661797 
L 32.432936 50.619681 
L 32.468302 49.577564 
L 32.503667 48.535447 
L 32.539033 47.493331 
L 32.574398 46.451214 
L 32.609764 45.409097 
L 32.64513 44.366981 
L 32.680495 43.324864 
L 32.715861 42.282748 
L 32.751226 41.240631 
L 32.786592 40.198514 
L 32.821957 39.156398 
L 32.857323 38.114281 
L 32.892688 37.072164 
L 32.928054 36.030048 
L 33.945682 36.065103 
L 34.96331 36.100159 
L 35.980938 36.135215 
L 36.998566 36.170271 
z
" style="fill:#008000;opacity:0.1;"/>
   </g>
   <g id="patch_3">
    <path clip-path="url(#p889247188b)" d="M 37.251235 52.972762 
L 37.251235 52.972762 
L 36.028978 52.90555 
L 34.80672 52.838338 
L 33.584463 52.771126 
L 32.362205 52.703914 
L 32.397571 51.661797 
L 32.432936 50.619681 
L 32.468302 49.577564 
L 32.503667 48.535447 
L 32.539033 47.493331 
L 32.574398 46.451214 
L 32.609764 45.409097 
L 32.64513 44.366981 
L 32.680495 43.324864 
L 32.715861 42.282748 
L 32.751226 41.240631 
L 32.786592 40.198514 
L 32.821957 39.156398 
L 32.857323 38.114281 
L 32.892688 37.072164 
L 32.928054 36.030048 
L 33.945682 36.065103 
L 34.96331 36.100159 
L 35.980938 36.135215 
L 36.998566 36.170271 
z
" style="fill:none;stroke:#008000;stroke-linejoin:miter;stroke-width:0.45624;"/>
   </g>
   <g id="patch_4">
    <path clip-path="url(#p889247188b)" d="M 4.479444 44.781851 
L 4.479444 44.781851 
L 5.834782 44.375679 
L 7.19012 43.969507 
L 8.545458 43.563335 
L 9.900797 43.157164 
L 10.929872 42.773923 
L 11.958948 42.390682 
L 12.36417 43.203619 
L 12.769391 44.016556 
L 13.174613 44.829492 
L 13.579835 45.642429 
L 13.985056 46.455365 
L 14.390278 47.268302 
L 14.795499 48.081239 
L 15.200721 48.894175 
L 15.605942 49.707112 
L 16.011164 50.520049 
L 16.416386 51.332985 
L 16.821607 52.145922 
L 17.226829 52.958859 
L 17.63205 53.771795 
L 18.037272 54.584732 
L 18.442494 55.397669 
L 17.60476 55.741373 
L 16.767026 56.085077 
L 15.929292 56.428781 
L 15.091558 56.772485 
L 14.253824 57.116189 
L 13.41609 57.459893 
L 12.578356 57.803597 
L 11.740622 58.147301 
z
" style="fill:#008000;opacity:0.1;"/>
   </g>
   <g id="patch_5">
    <path clip-path="url(#p889247188b)" d="M 4.479444 44.781851 
L 4.479444 44.781851 
L 5.834782 44.375679 
L 7.19012 43.969507 
L 8.545458 43.563335 
L 9.900797 43.157164 
L 10.929872 42.773923 
L 11.958948 42.390682 
L 12.36417 43.203619 
L 12.769391 44.016556 
L 13.174613 44.829492 
L 13.579835 45.642429 
L 13.985056 46.455365 
L 14.390278 47.268302 
L 14.795499 48.081239 
L 15.200721 48.894175 
L 15.605942 49.707112 
L 16.011164 50.520049 
L 16.416386 51.332985 
L 16.821607 52.145922 
L 17.226829 52.958859 
L 17.63205 53.771795 
L 18.037272 54.584732 
L 18.442494 55.397669 
L 17.60476 55.741373 
L 16.767026 56.085077 
L 15.929292 56.428781 
L 15.091558 56.772485 
L 14.253824 57.116189 
L 13.41609 57.459893 
L 12.578356 57.803597 
L 11.740622 58.147301 
z
" style="fill:none;stroke:#008000;stroke-linejoin:miter;stroke-width:0.45624;"/>
   </g>
   <g id="line2d_1">
    <path clip-path="url(#p889247188b)" d="M 59.808315 61.925938 
L 59.469787 58.748256 
L 59.131259 55.570575 
L 58.70769 51.596892 
L 58.329095 48.047567 
L 57.9505 44.498242 
L 57.558004 40.814493 
L 57.165507 37.130744 
L 56.863776 34.298876 
L 56.562045 31.467007 
L 56.260313 28.635138 
L 55.958582 25.803269 
L 55.491675 21.611871 
L 55.024768 17.420474 
L 54.848963 15.396204 
L 54.684605 13.852699 
" style="fill:none;stroke:#808080;stroke-linecap:square;stroke-width:0.45624;"/>
   </g>
   <g id="line2d_2">
    <path clip-path="url(#p889247188b)" d="M 77.110035 68.628168 
L 79.22982 67.546976 
L 81.349606 66.465784 
L 83.469392 65.384592 
L 85.589178 64.3034 
L 87.708963 63.222208 
L 89.828749 62.141016 
L 91.948535 61.059825 
L 94.06832 59.978633 
" style="fill:none;stroke:#808080;stroke-linecap:square;stroke-width:0.45624;"/>
   </g>
   <g id="line2d_3">
    <path clip-path="url(#p889247188b)" d="M 48.81597 62.565902 
L 49.517557 59.913266 
L 49.958297 58.244298 
L 50.734295 55.310161 
L 51.586338 52.085036 
L 52.348026 49.203615 
L 53.109714 46.322193 
L 53.382008 45.291081 
L 54.104855 42.557263 
" style="fill:none;stroke:#808080;stroke-linecap:square;stroke-width:0.45624;"/>
   </g>
   <g id="line2d_4">
    <path clip-path="url(#p889247188b)" d="M 45.562341 64.723014 
L 46.572609 60.223232 
L 47.582878 55.723449 
" style="fill:none;stroke:#808080;stroke-linecap:square;stroke-width:0.45624;"/>
   </g>
   <g id="line2d_5">
    <path clip-path="url(#p889247188b)" d="M 42.281727 64.265445 
L 42.772347 59.79571 
L 43.262967 55.325976 
" style="fill:none;stroke:#808080;stroke-linecap:square;stroke-width:0.45624;"/>
   </g>
   <g id="line2d_6">
    <path clip-path="url(#p889247188b)" d="M 42.850029 53.185732 
L 46.754548 53.034966 
" style="fill:none;stroke:#808080;stroke-linecap:square;stroke-width:0.45624;"/>
   </g>
   <g id="line2d_7">
    <path clip-path="url(#p889247188b)" d="M 38.19159 52.171489 
L 38.144982 51.083444 
L 38.068935 49.297448 
L 38.032957 48.459274 
L 37.890677 43.832974 
L 37.797459 41.905701 
L 37.66908 39.894083 
L 37.502269 35.98893 
L 37.419681 34.064819 
" style="fill:none;stroke:#808080;stroke-linecap:square;stroke-width:0.45624;"/>
   </g>
   <g id="line2d_8">
    <path clip-path="url(#p889247188b)" d="M 31.440657 52.185195 
L 31.636087 48.196751 
L 31.725626 45.821397 
L 31.815164 43.446044 
L 32.009776 40.434943 
L 32.204389 37.423842 
L 32.417809 34.457812 
L 32.631229 31.491783 
L 32.844648 28.525754 
L 33.058068 25.559724 
L 33.179088 22.781625 
L 33.255952 20.920773 
L 33.347125 18.363551 
L 33.438299 15.80633 
L 33.539694 13.260178 
L 33.641088 10.714027 
L 34.044215 6.374499 
L 34.101454 4.793038 
" style="fill:none;stroke:#808080;stroke-linecap:square;stroke-width:0.45624;"/>
   </g>
   <g id="line2d_9">
    <path clip-path="url(#p889247188b)" d="M 24.294774 54.557386 
L 24.558892 52.894744 
L 24.838545 51.134051 
L 25.366779 47.807712 
L 25.899102 44.455015 
L 26.56144 40.286285 
L 27.099895 36.895107 
L 27.638351 33.503928 
L 28.324401 29.184432 
L 28.819928 26.062629 
L 29.497801 21.794794 
L 29.652347 20.821668 
L 29.860042 19.514328 
L 30.190393 17.432071 
" style="fill:none;stroke:#808080;stroke-linecap:square;stroke-width:0.45624;"/>
   </g>
   <g id="line2d_10">
    <path clip-path="url(#p889247188b)" d="M 16.596126 56.526831 
L 15.024915 53.629068 
L 13.453704 50.731305 
L 11.882493 47.833542 
L 10.311282 44.93578 
" style="fill:none;stroke:#808080;stroke-linecap:square;stroke-width:0.45624;"/>
   </g>
   <g id="line2d_11">
    <path clip-path="url(#p889247188b)" d="M 16.29603 56.675489 
L 14.725024 53.779571 
L 13.154017 50.883653 
L 11.58301 47.987735 
L 10.012004 45.091817 
" style="fill:none;stroke:#808080;stroke-linecap:square;stroke-width:0.45624;"/>
   </g>
   <g id="line2d_12">
    <path clip-path="url(#p889247188b)" d="M 77.165638 68.727273 
L 80.224655 67.180077 
L 83.283672 65.632881 
L 86.342688 64.085686 
L 89.401705 62.53849 
" style="fill:none;stroke:#808080;stroke-linecap:square;stroke-width:0.45624;"/>
   </g>
   <g id="line2d_13">
    <path clip-path="url(#p889247188b)" d="M 28.504295 12.462068 
L 27.846864 11.808661 
L 27.189433 11.155254 
L 26.532002 10.501847 
L 25.874571 9.84844 
L 25.21714 9.195034 
L 24.559709 8.541627 
L 23.902278 7.88822 
L 23.244847 7.234813 
L 22.299995 7.119367 
L 21.355142 7.00392 
L 20.614305 7.515786 
L 19.873469 8.027652 
L 19.715653 9.413802 
L 19.557837 10.799953 
L 19.400021 12.186103 
L 19.242204 13.572253 
L 19.066603 14.765201 
L 18.891002 15.95815 
L 18.715401 17.151098 
L 18.5398 18.344047 
L 18.259124 19.361717 
L 17.978449 20.379387 
L 17.697773 21.397056 
L 17.417097 22.414726 
L 17.196932 23.241039 
L 16.976766 24.067353 
L 16.7566 24.893666 
L 16.536434 25.719979 
L 16.291533 26.398689 
L 16.046632 27.077399 
L 15.801731 27.756109 
L 15.556829 28.43482 
L 15.008561 29.73109 
L 14.460293 31.027361 
L 14.166739 31.71266 
L 13.873184 32.39796 
L 13.57963 33.08326 
L 13.286076 33.768559 
L 13.131939 34.515009 
L 12.977803 35.261458 
L 12.823666 36.007907 
L 12.66953 36.754357 
L 12.762339 38.093854 
L 12.855148 39.433351 
L 13.123149 40.183095 
L 13.39115 40.932839 
L 13.659151 41.682583 
L 13.927153 42.432327 
L 14.195154 43.182072 
L 14.463155 43.931816 
L 14.731156 44.68156 
L 14.999158 45.431304 
L 15.267159 46.181048 
L 15.53516 46.930792 
L 15.803162 47.680536 
L 16.071163 48.43028 
L 16.339164 49.180024 
L 16.607165 49.929769 
L 16.875167 50.679513 
L 17.143168 51.429257 
" style="fill:none;stroke:#008000;stroke-linecap:square;stroke-width:0.45624;"/>
   </g>
   <g id="line2d_14">
    <path clip-path="url(#p889247188b)" d="M 28.725892 18.5897 
L 28.572778 19.422866 
L 28.419663 20.256033 
L 28.266549 21.089199 
L 28.113435 21.922365 
L 27.523873 22.906033 
L 26.78692 23.581581 
L 26.049968 24.257128 
L 25.313016 24.932675 
L 24.576063 25.608222 
L 23.839111 26.28377 
L 23.102159 26.959317 
L 22.365206 27.634864 
L 21.628254 28.310411 
L 21.051571 28.901614 
L 20.474888 29.492817 
L 19.898204 30.084019 
L 19.321521 30.675222 
L 18.9325 31.445921 
L 18.54348 32.216619 
L 18.154459 32.987318 
L 17.765438 33.758016 
L 17.599445 35.123344 
L 17.433451 36.488671 
L 17.583908 37.356761 
L 17.734365 38.224851 
L 17.884822 39.092942 
L 18.035279 39.961032 
L 18.185736 40.829122 
L 18.336193 41.697212 
L 18.486649 42.565302 
L 18.637106 43.433392 
L 18.787563 44.301482 
L 18.93802 45.169572 
L 19.088477 46.037662 
L 19.238934 46.905752 
L 19.38939 47.773842 
L 19.539847 48.641932 
L 19.690304 49.510023 
L 19.840761 50.378113 
" style="fill:none;stroke:#4169e1;stroke-linecap:square;stroke-width:0.45624;"/>
   </g>
   <g id="line2d_15">
    <path clip-path="url(#p889247188b)" d="M 31.945178 14.06356 
L 31.831262 15.230876 
L 31.717346 16.398191 
L 31.60343 17.565507 
L 31.489515 18.732822 
L 31.375599 19.900138 
L 31.261683 21.067454 
L 31.147767 22.234769 
L 31.033851 23.402085 
L 30.919935 24.5694 
L 30.806019 25.736716 
L 30.692104 26.904032 
L 30.578188 28.071347 
L 30.464272 29.238663 
L 30.350356 30.405979 
L 30.23644 31.573294 
L 30.122524 32.74061 
L 30.008608 33.907925 
L 29.894692 35.075241 
L 29.780777 36.242557 
L 29.666861 37.409872 
L 29.552945 38.577188 
L 29.439029 39.744503 
L 29.325113 40.911819 
L 29.211197 42.079135 
L 29.097281 43.24645 
L 28.983366 44.413766 
L 28.86945 45.581081 
L 28.755534 46.748397 
L 28.641618 47.915713 
L 28.527702 49.083028 
L 28.413786 50.250344 
L 28.29987 51.417659 
" style="fill:none;stroke:#000000;stroke-linecap:square;stroke-width:0.45624;"/>
   </g>
   <g id="line2d_16">
    <path clip-path="url(#p889247188b)" d="M 33.980434 21.783196 
L 34.910364 22.590268 
L 35.840293 23.397341 
L 36.770223 24.204413 
L 37.700153 25.011485 
L 38.309237 25.828177 
L 38.918322 26.64487 
L 39.527406 27.461562 
L 40.136491 28.278255 
L 40.745575 29.094948 
L 41.354659 29.91164 
L 41.963744 30.728333 
L 42.572828 31.545026 
L 42.86117 32.228875 
L 43.149512 32.912725 
L 43.437853 33.596575 
L 43.726195 34.280425 
L 44.014536 34.964275 
L 44.302878 35.648125 
L 44.591219 36.331975 
L 44.879561 37.015825 
L 45.391237 37.644192 
L 45.902913 38.272559 
L 46.414589 38.900926 
L 46.926265 39.529293 
" style="fill:none;stroke:#4169e1;stroke-linecap:square;stroke-width:0.45624;"/>
   </g>
   <g id="line2d_17">
    <path clip-path="url(#p889247188b)" d="M 50.216691 9.425663 
L 49.619361 10.054557 
L 49.02203 10.683452 
L 48.548991 11.271491 
L 48.075951 11.859531 
L 47.602912 12.447571 
L 47.129872 13.035611 
L 46.292138 14.144742 
L 45.454404 15.253873 
L 45.022658 15.940227 
L 44.590913 16.626581 
L 44.802697 17.970822 
L 44.852986 18.819012 
L 44.903274 19.667202 
L 45.067632 20.547021 
L 45.23199 21.426841 
L 45.396347 22.30666 
L 45.560705 23.186479 
L 45.894123 24.30958 
L 46.22754 25.43268 
L 46.560957 26.555781 
L 46.894374 27.678881 
L 47.333071 28.994657 
L 47.771767 30.310432 
L 48.210463 31.626207 
L 48.649159 32.941982 
L 48.824556 33.696339 
L 48.999953 34.450696 
L 49.175349 35.205052 
L 49.350746 35.959409 
L 49.175349 37.293108 
L 48.999953 38.626806 
L 48.648955 39.907526 
L 48.297957 41.188245 
L 47.946959 42.468965 
L 47.595961 43.749684 
L 47.087147 44.626868 
L 46.578333 45.504051 
L 46.069519 46.381235 
L 45.560705 47.258418 
" style="fill:none;stroke:#008000;stroke-linecap:square;stroke-width:0.45624;"/>
   </g>
   <g id="line2d_18">
    <path clip-path="url(#p889247188b)" d="M 55.01332 10.972332 
L 55.894392 11.608474 
L 56.775464 12.244617 
L 57.656536 12.880759 
L 58.537608 13.516902 
L 59.41868 14.153044 
L 60.299753 14.789187 
L 61.180825 15.425329 
L 62.061897 16.061472 
L 62.844845 16.481218 
L 63.627793 16.900964 
L 64.410741 17.32071 
L 65.193689 17.740456 
L 65.976637 18.160202 
L 66.759585 18.579948 
L 67.542533 18.999694 
L 68.325481 19.41944 
L 69.037289 20.019604 
L 69.749097 20.619769 
L 70.460905 21.219933 
L 71.172713 21.820097 
L 71.945338 22.605029 
L 72.717962 23.38996 
L 73.490587 24.174892 
L 74.263211 24.959824 
L 75.035836 25.744755 
L 75.80846 26.529687 
L 76.581085 27.314618 
L 77.353709 28.09955 
L 78.160984 28.994393 
L 78.968258 29.889236 
L 79.775533 30.784079 
L 80.582808 31.678922 
L 81.638459 32.591689 
L 82.69411 33.504455 
L 83.749761 34.417222 
L 84.805412 35.329988 
L 85.801371 36.289934 
L 86.79733 37.249881 
L 87.299398 38.294436 
L 87.801466 39.33899 
L 88.303534 40.383545 
L 88.805602 41.4281 
L 89.043961 42.672182 
L 89.282321 43.916265 
L 89.314824 44.92919 
L 89.347328 45.942116 
L 89.379832 46.955041 
L 89.412335 47.967967 
L 89.013297 49.003823 
L 88.61426 50.03968 
L 88.076417 50.777431 
L 87.538575 51.515183 
L 87.000733 52.252934 
L 86.46289 52.990685 
" style="fill:none;stroke:#008000;stroke-linecap:square;stroke-width:0.45624;"/>
   </g>
   <g id="line2d_19">
    <path clip-path="url(#p889247188b)" d="M 55.01332 10.972332 
L 55.229398 11.727479 
L 55.445475 12.482627 
L 55.661552 13.237774 
L 55.877629 13.992921 
L 56.202461 14.851391 
L 56.527292 15.709861 
L 56.852124 16.56833 
L 57.176955 17.4268 
L 57.709074 18.294231 
L 58.241192 19.161662 
L 58.773311 20.029093 
L 59.305429 20.896524 
L 60.32183 21.545714 
L 61.338232 22.194903 
L 62.354633 22.844093 
L 63.371035 23.493282 
L 64.333468 24.157232 
L 65.295901 24.821182 
L 66.258334 25.485132 
L 67.220768 26.149082 
L 68.302176 27.051042 
L 69.383585 27.953001 
L 70.014441 28.447735 
L 70.645296 28.942469 
L 71.276152 29.437202 
L 71.907008 29.931936 
L 72.53398 30.50337 
L 73.160951 31.074805 
L 73.787923 31.646239 
L 74.414895 32.217673 
L 74.944764 32.760114 
L 75.474634 33.302555 
L 76.3508 34.199771 
L 77.226966 35.096986 
L 78.103132 35.994201 
L 78.979297 36.891417 
" style="fill:none;stroke:#008000;stroke-linecap:square;stroke-width:0.45624;"/>
   </g>
   <g id="line2d_20">
    <path clip-path="url(#p889247188b)" d="M 36.241375 3.483589 
L 37.525574 3.430873 
L 38.809772 3.378158 
L 40.09397 3.325443 
L 41.378168 3.272727 
L 42.719197 3.740049 
L 44.060225 4.20737 
L 45.401254 4.674692 
L 46.742282 5.142014 
L 47.463903 5.529472 
L 48.185523 5.916929 
L 48.907144 6.304387 
L 49.628764 6.691845 
L 49.922727 8.058754 
L 50.216691 9.425663 
" style="fill:none;stroke:#008000;stroke-linecap:square;stroke-width:0.45624;"/>
   </g>
   <g id="line2d_21">
    <path clip-path="url(#p889247188b)" d="M 75.474634 33.302555 
L 75.429661 34.117271 
L 75.384687 34.931987 
L 75.339714 35.746703 
L 75.29474 36.561419 
L 75.040435 37.448091 
L 74.78613 38.334763 
L 74.531826 39.221435 
L 74.277521 40.108107 
L 74.023216 40.99478 
L 73.768911 41.881452 
L 73.514607 42.768124 
L 73.260302 43.654796 
L 72.923511 44.761292 
L 72.586721 45.867787 
L 72.249931 46.974282 
L 71.913141 48.080777 
L 71.57635 49.187273 
L 71.23956 50.293768 
L 70.90277 51.400263 
L 70.565979 52.506759 
" style="fill:none;stroke:#4169e1;stroke-linecap:square;stroke-width:0.45624;"/>
   </g>
   <g id="line2d_22">
    <path clip-path="url(#p889247188b)" d="M 78.979297 36.891417 
L 79.501399 38.045883 
L 80.023501 39.200349 
L 79.824186 40.093874 
L 79.624872 40.9874 
L 79.425557 41.880925 
L 79.226243 42.77445 
L 79.026928 43.667975 
L 78.827614 44.561501 
L 78.6283 45.455026 
L 78.428985 46.348551 
L 78.250318 47.104489 
L 78.07165 47.860427 
L 77.892983 48.616365 
L 77.714315 49.372304 
L 77.535648 50.128242 
L 77.35698 50.88418 
L 77.178313 51.640118 
L 76.999645 52.396056 
" style="fill:none;stroke:#4169e1;stroke-linecap:square;stroke-width:0.45624;"/>
   </g>
   <g id="line2d_23">
    <path clip-path="url(#p889247188b)" d="M 39.499093 34.692132 
L 39.664064 35.709275 
L 39.829035 36.726418 
L 39.994006 37.74356 
L 40.158977 38.760703 
L 40.255875 39.879982 
L 40.352772 40.999261 
L 40.44967 42.118539 
L 40.546567 43.237818 
L 40.643465 44.357097 
L 40.740362 45.476375 
L 40.83726 46.595654 
L 40.934157 47.714933 
" style="fill:none;stroke:#008000;stroke-linecap:square;stroke-width:0.45624;"/>
   </g>
   <g id="line2d_24">
    <path clip-path="url(#p889247188b)" d="M 45.653105 55.369202 
L 45.430793 56.523537 
L 45.208481 57.677871 
L 44.986169 58.832206 
L 44.763856 59.98654 
L 44.541544 61.140874 
L 44.319232 62.295209 
L 44.09692 63.449543 
L 43.874607 64.603878 
" style="fill:none;stroke:#008000;stroke-linecap:square;stroke-width:0.45624;"/>
   </g>
   <g id="line2d_25">
    <path clip-path="url(#p889247188b)" d="M 69.383585 27.953001 
L 69.212685 28.941941 
L 69.037289 29.819125 
L 68.861892 30.696308 
L 68.686495 31.573492 
L 68.511099 32.450675 
L 68.227868 33.301633 
L 67.944637 34.15259 
L 67.661406 35.003548 
L 67.378175 35.854506 
L 67.094944 36.705463 
L 66.811713 37.556421 
L 66.528482 38.407378 
L 66.245251 39.258336 
L 66.149018 40.015263 
L 66.052785 40.772189 
L 65.956552 41.529116 
L 65.860319 42.286042 
L 65.764086 43.042969 
L 65.667853 43.799895 
L 65.571619 44.556822 
L 65.475386 45.313749 
L 65.379153 46.070675 
L 65.28292 46.827602 
L 65.186687 47.584528 
L 65.090454 48.341455 
L 64.994221 49.098381 
L 64.897988 49.855308 
L 64.801755 50.612235 
L 64.705522 51.369161 
" style="fill:none;stroke:#4169e1;stroke-linecap:square;stroke-width:0.45624;"/>
   </g>
   <g id="line2d_26">
    <path clip-path="url(#p889247188b)" d="M 36.584809 11.708238 
L 37.643322 12.299441 
L 38.701835 12.890643 
L 39.760348 13.481846 
L 40.818861 14.073049 
L 41.761874 14.711432 
L 42.704887 15.349815 
L 43.6479 15.988198 
L 44.590913 16.626581 
" style="fill:none;stroke:#008000;stroke-linecap:square;stroke-width:0.45624;"/>
   </g>
   <g id="line2d_27">
    <path clip-path="url(#p889247188b)" d="M 28.113435 21.922365 
L 28.031869 22.860435 
L 27.950303 23.798504 
L 27.868738 24.736574 
L 27.787172 25.674644 
L 27.553514 26.815668 
L 27.319857 27.956691 
L 27.086199 29.097715 
L 26.852541 30.238739 
L 26.811247 31.063471 
L 26.769953 31.888202 
L 26.728659 32.712934 
L 26.687365 33.537666 
L 26.343727 34.857131 
L 26.000088 36.176596 
L 25.65645 37.496062 
L 25.312811 38.815527 
" style="fill:none;stroke:#000000;stroke-linecap:square;stroke-width:0.45624;"/>
   </g>
   <g id="line2d_28">
    <path clip-path="url(#p889247188b)" d="M 51.577344 43.777096 
L 51.384571 44.727686 
L 51.191798 45.678275 
L 50.999025 46.628865 
L 50.806252 47.579454 
L 50.61348 48.530044 
L 50.420707 49.480634 
L 50.227934 50.431223 
L 50.035161 51.381813 
L 49.809067 52.272702 
L 49.582973 53.163592 
L 49.356879 54.054481 
L 49.130785 54.945371 
" style="fill:none;stroke:#008000;stroke-linecap:square;stroke-width:0.45624;"/>
   </g>
   <g id="line2d_29">
    <path clip-path="url(#p889247188b)" d="M 78.979297 36.891417 
L 78.758927 37.568084 
L 78.538557 38.244752 
L 78.318187 38.921419 
L 78.097817 39.598086 
L 77.877446 40.274754 
L 77.657076 40.951421 
L 77.436706 41.628089 
L 77.216336 42.304756 
L 76.995965 42.981424 
L 76.775595 43.658091 
L 76.555225 44.334759 
L 76.334855 45.011426 
L 76.114485 45.688094 
L 75.894114 46.364761 
L 75.673744 47.041428 
L 75.453374 47.718096 
L 75.00323 49.014894 
L 74.553086 50.311691 
L 74.102942 51.608489 
L 73.652798 52.905287 
" style="fill:none;stroke:#4169e1;stroke-linecap:square;stroke-width:0.45624;"/>
   </g>
   <g id="line2d_30">
    <path clip-path="url(#p889247188b)" d="M 49.798028 37.680038 
L 50.482443 38.62048 
L 51.449783 39.056963 
L 52.313274 39.117059 
L 53.699276 39.322122 
L 55.085278 39.527184 
L 55.949178 39.929402 
L 56.813079 40.331621 
L 57.43126 40.910435 
L 58.049441 41.48925 
L 58.678253 42.452886 
L 59.071567 43.70224 
L 59.448118 44.471884 
L 59.824669 45.241529 
L 60.449392 46.071268 
L 61.074115 46.901008 
L 61.946601 47.42289 
L 62.819087 47.944772 
" style="fill:none;stroke:#008000;stroke-linecap:square;stroke-width:0.45624;"/>
   </g>
   <g id="line2d_31">
    <path clip-path="url(#p889247188b)" d="M 55.01332 10.972332 
L 53.865678 10.288614 
L 52.718036 9.604895 
L 51.467363 9.515279 
L 50.216691 9.425663 
" style="fill:none;stroke:#008000;stroke-linecap:square;stroke-width:0.45624;"/>
   </g>
  </g>
 </g>
 <defs>
  <clipPath id="p889247188b">
   <rect height="72" width="98.547764" x="0" y="0"/>
  </clipPath>
 </defs>
</svg>
