<?xml version="1.0" encoding="utf-8" standalone="no"?>
<!DOCTYPE svg PUBLIC "-//W3C//DTD SVG 1.1//EN"
  "http://www.w3.org/Graphics/SVG/1.1/DTD/svg11.dtd">
<svg height="72pt" version="1.1" viewBox="0 0 36.739007 72" width="36.739007pt" xmlns="http://www.w3.org/2000/svg" xmlns:xlink="http://www.w3.org/1999/xlink">
 <metadata>
  <rdf:RDF xmlns:cc="http://creativecommons.org/ns#" xmlns:dc="http://purl.org/dc/elements/1.1/" xmlns:rdf="http://www.w3.org/1999/02/22-rdf-syntax-ns#">
   <cc:Work>
    <dc:type rdf:resource="http://purl.org/dc/dcmitype/StillImage"/>
    <dc:date>2022-04-19T00:50:37.002786</dc:date>
    <dc:format>image/svg+xml</dc:format>
    <dc:creator>
     <cc:Agent>
      <dc:title>Matplotlib v3.4.3, https://matplotlib.org/</dc:title>
     </cc:Agent>
    </dc:creator>
   </cc:Work>
  </rdf:RDF>
 </metadata>
 <defs>
  <style type="text/css">*{stroke-linecap:butt;stroke-linejoin:round;}</style>
 </defs>
 <g id="figure_1">
  <g id="patch_1">
   <path d="M 0 72 
L 36.739007 72 
L 36.739007 0 
L 0 0 
z
" style="fill:#ffffff;"/>
  </g>
  <g id="axes_1">
   <g id="line2d_1">
    <path clip-path="url(#p55e4b190ba)" d="M 30.290377 50.011276 
L 30.485983 49.272038 
L 30.656393 48.628438 
L 30.826803 47.984837 
L 30.992893 47.357153 
L 31.158984 46.729468 
L 31.422775 45.733159 
L 31.686565 44.736851 
L 31.936061 43.7944 
L 32.185557 42.85195 
L 32.376741 42.129622 
L 32.567925 41.407295 
L 32.759109 40.684968 
L 32.950293 39.96264 
L 33.159783 39.171249 
L 33.369273 38.379858 
L 33.432212 38.141687 
" style="fill:none;stroke:#808080;stroke-linecap:square;stroke-width:0.4;"/>
   </g>
   <g id="line2d_2">
    <path clip-path="url(#p55e4b190ba)" d="M 25.501624 63.826587 
L 25.880495 63.26683 
L 26.259366 62.707072 
L 26.653561 62.12472 
L 27.047756 61.542367 
L 27.73063 60.533695 
L 28.100759 59.986869 
L 28.470889 59.440043 
L 29.094114 58.519477 
L 29.482961 57.945083 
L 29.871808 57.370688 
L 30.246977 56.816331 
L 30.622147 56.261973 
L 31.078047 55.588531 
L 31.533947 54.915088 
L 32.083331 54.103375 
" style="fill:none;stroke:#808080;stroke-linecap:square;stroke-width:0.4;"/>
   </g>
   <g id="line2d_3">
    <path clip-path="url(#p55e4b190ba)" d="M 18.793008 49.956139 
L 18.617251 49.248875 
L 18.441493 48.541611 
L 18.217502 47.640371 
L 17.993512 46.739132 
L 17.825107 46.061639 
L 17.656703 45.384146 
L 17.488298 44.706653 
L 17.319894 44.02916 
L 17.148764 43.340654 
L 16.977634 42.652148 
L 16.806505 41.963642 
L 16.635375 41.275136 
L 16.453138 40.541937 
L 16.270901 39.808739 
L 16.088665 39.07554 
L 15.906428 38.342342 
L 15.627108 37.218421 
L 15.347788 36.094501 
L 15.160666 35.341407 
L 14.973545 34.588314 
L 14.786423 33.83522 
L 14.599301 33.082127 
L 14.312576 31.928648 
L 14.025852 30.77517 
L 13.834616 30.005521 
L 13.643381 29.235872 
L 13.452146 28.466223 
L 13.26091 27.696574 
L 13.060367 26.889835 
L 12.859825 26.083097 
L 12.684427 25.377396 
L 12.509029 24.671695 
L 12.333632 23.965994 
L 12.158234 23.260293 
L 11.980625 22.545355 
L 11.803016 21.830417 
L 11.625407 21.115479 
L 11.447799 20.400541 
L 11.291632 19.772217 
L 11.135466 19.143894 
L 10.9793 18.51557 
L 10.823134 17.887246 
L 10.646965 17.178276 
L 10.470796 16.469307 
L 10.294627 15.760337 
L 10.118458 15.051368 
L 9.853022 13.983295 
L 9.587585 12.915223 
L 9.417227 12.229559 
L 9.246868 11.543895 
L 9.07651 10.858231 
L 8.906152 10.172567 
L 8.616547 9.007294 
L 8.326943 7.84202 
L 8.098839 6.92387 
L 7.870734 6.00572 
L 7.805738 5.744244 
L 7.742181 5.488452 
L 7.668341 5.191734 
L 7.522304 4.603697 
" style="fill:none;stroke:#808080;stroke-linecap:square;stroke-width:0.4;"/>
   </g>
   <g id="line2d_4">
    <path clip-path="url(#p55e4b190ba)" d="M 19.957184 68.15572 
L 19.537382 67.541252 
L 19.117579 66.926783 
L 18.471214 65.98078 
L 17.82485 65.034777 
L 17.445464 64.479567 
L 17.066079 63.924357 
L 16.642471 63.304204 
L 16.218863 62.684051 
L 15.737561 61.979629 
L 15.256258 61.275207 
L 14.581201 60.286998 
L 14.113988 59.603324 
L 13.646775 58.919649 
L 13.046792 58.041431 
L 12.520445 57.27093 
L 11.972501 56.46888 
L 11.424556 55.666831 
L 11.109036 55.204985 
L 10.793515 54.743139 
" style="fill:none;stroke:#808080;stroke-linecap:square;stroke-width:0.4;"/>
   </g>
   <g id="line2d_5">
    <path clip-path="url(#p55e4b190ba)" d="M 23.858202 64.372845 
L 23.924638 63.24054 
L 23.976059 62.366159 
L 24.027481 61.491777 
L 24.072166 60.730655 
L 24.116851 59.969532 
L 24.161536 59.20841 
L 24.206221 58.447287 
L 24.274714 57.280735 
L 24.343207 56.114183 
L 24.384549 55.410471 
L 24.425892 54.70676 
L 24.464175 54.054704 
L 24.502458 53.402648 
L 24.540741 52.750592 
L 24.579024 52.098537 
L 24.617307 51.446481 
L 24.655591 50.794425 
L 24.693874 50.142369 
L 24.732157 49.490314 
L 24.771905 48.813887 
L 24.811654 48.13746 
L 24.851402 47.461033 
L 24.891151 46.784606 
L 24.933368 46.065547 
L 24.975585 45.346488 
L 25.017801 44.627429 
L 25.060018 43.90837 
L 25.103058 43.175171 
L 25.146097 42.441973 
L 25.189137 41.708774 
L 25.232176 40.975575 
L 25.290797 39.976851 
L 25.349417 38.978126 
L 25.410814 37.93407 
L 25.472211 36.890013 
L 25.526306 35.96831 
L 25.580401 35.046607 
L 25.640564 34.021735 
L 25.700726 32.996863 
L 25.747108 32.206751 
L 25.79349 31.416639 
L 25.844294 30.551778 
" style="fill:none;stroke:#808080;stroke-linecap:square;stroke-width:0.4;"/>
   </g>
   <g id="line2d_6">
    <path clip-path="url(#p55e4b190ba)" d="M 26.235301 67.231744 
L 26.865725 66.892109 
L 27.743794 66.418894 
L 28.49228 66.015596 
L 29.549089 65.446033 
" style="fill:none;stroke:#808080;stroke-linecap:square;stroke-width:0.4;"/>
   </g>
   <g id="line2d_7">
    <path clip-path="url(#p55e4b190ba)" d="M 26.067051 66.305209 
L 26.677009 65.941559 
L 27.286968 65.577908 
L 27.896926 65.214258 
L 28.506884 64.850607 
" style="fill:none;stroke:#808080;stroke-linecap:square;stroke-width:0.4;"/>
   </g>
   <g id="line2d_8">
    <path clip-path="url(#p55e4b190ba)" d="M 19.180313 50.586808 
L 19.276882 50.935892 
L 19.373451 51.284977 
L 19.47002 51.634062 
L 19.566589 51.983146 
L 19.654879 52.321218 
L 19.743169 52.659289 
L 19.831459 52.99736 
L 19.91975 53.335432 
L 19.906586 53.696382 
L 19.945049 53.887551 
L 19.983512 54.07872 
L 20.021975 54.269889 
L 20.060438 54.461057 
L 20.098901 54.652226 
L 20.137364 54.843395 
L 20.175827 55.034564 
L 20.21429 55.225733 
L 20.269979 55.49673 
L 20.325669 55.767727 
L 20.381358 56.038724 
L 20.437047 56.309721 
L 20.492787 56.58086 
L 20.548528 56.852 
L 20.620261 57.127757 
L 20.691993 57.403515 
L 20.763726 57.679273 
L 20.835458 57.95503 
L 20.907191 58.230788 
L 20.978923 58.506546 
L 21.050656 58.782303 
L 21.122389 59.058061 
L 21.172036 59.267633 
L 21.221683 59.477204 
L 21.27133 59.686776 
L 21.320977 59.896348 
L 21.370624 60.105919 
L 21.420272 60.315491 
L 21.469919 60.525062 
L 21.519566 60.734634 
L 21.60094 61.041548 
L 21.682314 61.348463 
L 21.763688 61.655377 
L 21.845062 61.962292 
L 21.926436 62.269207 
L 22.00781 62.576121 
L 22.089184 62.883036 
L 22.170558 63.18995 
L 22.227096 63.417711 
L 22.283634 63.645473 
L 22.340171 63.873234 
L 22.396709 64.100995 
L 22.453246 64.328756 
L 22.509784 64.556518 
L 22.566322 64.784279 
L 22.622859 65.01204 
" style="fill:none;stroke:#4169e1;stroke-linecap:square;stroke-width:0.4;"/>
   </g>
   <g id="line2d_9">
    <path clip-path="url(#p55e4b190ba)" d="M 18.099645 45.451931 
L 18.392643 45.522558 
L 18.685641 45.593185 
L 18.876928 45.644485 
L 19.068215 45.695785 
L 19.259501 45.747086 
L 19.450788 45.798386 
L 19.723115 45.879813 
L 19.995442 45.96124 
L 20.272756 45.979927 
L 20.550071 45.998614 
L 20.827385 46.017301 
L 21.1047 46.035988 
L 21.415695 46.075494 
L 21.774512 46.091552 
L 22.133329 46.10761 
L 22.427459 46.206374 
L 22.721588 46.305138 
L 22.752081 46.614362 
L 22.782573 46.923586 
L 22.813066 47.23281 
L 22.843559 47.542033 
L 22.955349 47.77452 
L 23.067138 48.007006 
L 23.178928 48.239492 
L 23.290718 48.471978 
L 23.414797 48.724146 
L 23.538876 48.976314 
L 23.662956 49.228482 
L 23.787035 49.48065 
L 23.922838 49.691394 
L 24.058642 49.902138 
L 24.194445 50.112882 
L 24.330249 50.323626 
L 24.491043 50.493941 
L 24.651837 50.664256 
L 24.812631 50.83457 
L 24.973425 51.004885 
L 25.084135 51.342885 
L 25.194845 51.680886 
L 25.305555 52.018886 
L 25.416264 52.356886 
L 25.490105 52.575659 
L 25.563946 52.794432 
L 25.637787 53.013205 
L 25.711628 53.231978 
L 25.803466 53.568486 
L 25.895304 53.904995 
L 25.926414 54.169668 
L 25.957524 54.434341 
L 25.988634 54.699015 
L 26.019744 54.963688 
L 26.014421 55.27142 
L 26.009099 55.579152 
L 26.003777 55.886883 
L 25.998455 56.194615 
L 25.993133 56.502347 
L 25.987811 56.810078 
L 25.982489 57.11781 
L 25.977167 57.425542 
L 25.9874 57.715084 
L 25.997632 58.004626 
L 26.007865 58.294168 
L 26.018098 58.58371 
L 26.077027 58.77868 
L 26.135955 58.97365 
L 26.194884 59.16862 
L 26.253813 59.36359 
L 26.249648 59.585703 
L 26.245483 59.807815 
L 26.241317 60.029928 
L 26.237152 60.25204 
L 26.110862 60.554763 
L 25.984571 60.857485 
L 25.858281 61.160207 
L 25.731991 61.46293 
L 25.6057 61.765652 
L 25.47941 62.068375 
L 25.353119 62.371097 
L 25.226829 62.673819 
L 25.080638 62.913127 
L 24.934448 63.152434 
L 24.788257 63.391741 
L 24.642067 63.631049 
L 24.567609 63.821898 
L 24.493151 64.012747 
L 24.418693 64.203596 
L 24.344235 64.394445 
" style="fill:none;stroke:#008000;stroke-linecap:square;stroke-width:0.4;"/>
   </g>
   <g id="line2d_10">
    <path clip-path="url(#p55e4b190ba)" d="M 12.489181 58.839217 
L 12.707695 59.120268 
L 12.926209 59.401319 
L 13.144724 59.682371 
L 13.363238 59.963422 
L 13.581753 60.244473 
L 13.800267 60.525524 
L 14.018781 60.806575 
L 14.237296 61.087626 
L 14.351759 61.251156 
L 14.466223 61.414685 
L 14.580687 61.578214 
L 14.69515 61.741743 
L 14.809614 61.905272 
L 14.924077 62.068801 
L 15.038541 62.23233 
L 15.153004 62.395859 
L 15.340589 62.660532 
L 15.528174 62.925206 
L 15.715758 63.189879 
L 15.903343 63.454553 
L 16.104708 63.744663 
L 16.306073 64.034773 
L 16.507439 64.324884 
L 16.708804 64.614994 
L 16.962568 64.901765 
L 17.216332 65.188536 
L 17.470095 65.475307 
L 17.723859 65.762078 
L 17.933503 66.037836 
L 18.143147 66.313594 
L 18.352791 66.589351 
L 18.562436 66.865109 
L 18.761076 67.15188 
L 18.959716 67.438651 
L 19.158356 67.725422 
L 19.356996 68.012193 
" style="fill:none;stroke:#4169e1;stroke-linecap:square;stroke-width:0.4;"/>
   </g>
   <g id="line2d_11">
    <path clip-path="url(#p55e4b190ba)" d="M 10.403537 54.100817 
L 10.177798 54.148778 
L 9.952059 54.196739 
L 9.72632 54.2447 
L 9.500581 54.292661 
L 9.360715 54.436118 
L 9.220849 54.579574 
L 9.080984 54.723031 
L 8.941118 54.866487 
L 8.772971 55.151553 
L 8.604823 55.436619 
L 8.557362 55.62626 
L 8.5099 55.815901 
L 8.462438 56.005542 
L 8.414976 56.195183 
L 8.411788 56.394132 
L 8.4086 56.593082 
L 8.405412 56.792031 
L 8.402224 56.99098 
L 8.698513 57.160371 
L 8.994802 57.329762 
L 9.217353 57.426465 
L 9.439904 57.523169 
L 9.662455 57.619872 
L 9.885006 57.716576 
L 10.232304 57.856266 
L 10.579603 57.995957 
L 10.834035 58.022815 
L 11.088467 58.049673 
L 11.342899 58.076531 
L 11.597331 58.10339 
" style="fill:none;stroke:#4169e1;stroke-linecap:square;stroke-width:0.4;"/>
   </g>
   <g id="line2d_12">
    <path clip-path="url(#p55e4b190ba)" d="M 12.489181 58.839217 
L 12.289564 58.679632 
L 12.089947 58.520046 
L 11.843639 58.311718 
L 11.597331 58.10339 
L 11.389076 57.955315 
L 11.18082 57.80724 
L 10.987785 57.616391 
L 10.794749 57.425542 
L 10.706511 57.204992 
L 10.618272 56.984443 
L 10.502368 56.712025 
L 10.386465 56.439607 
L 10.389242 56.244921 
L 10.392019 56.050235 
L 10.394795 55.855549 
L 10.397572 55.660863 
L 10.411661 55.304886 
L 10.425751 54.948909 
L 10.540934 54.749249 
L 10.656118 54.54959 
" style="fill:none;stroke:#ff0000;stroke-linecap:square;stroke-width:0.4;"/>
   </g>
   <g id="line2d_13">
    <path clip-path="url(#p55e4b190ba)" d="M 10.296992 53.911247 
L 10.28496 53.673929 
L 10.272927 53.436612 
L 10.253181 53.094988 
L 10.248193 52.820225 
L 10.243206 52.545462 
L 10.238218 52.270699 
L 10.23323 51.995936 
L 10.097786 51.742134 
L 9.962343 51.488331 
L 9.964451 51.265579 
L 9.96656 51.042827 
L 9.968668 50.820075 
L 9.970776 50.597323 
L 10.031247 50.415996 
L 10.173376 50.267068 
L 10.408268 50.312542 
L 10.538055 50.494296 
L 10.667842 50.67605 
L 10.914252 50.790872 
L 11.216917 50.872726 
L 11.519583 50.954579 
L 11.782139 51.179534 
L 12.044696 51.404488 
L 12.387264 51.527126 
L 12.729832 51.649764 
L 12.982619 51.611964 
L 13.235405 51.574164 
L 13.496008 51.612817 
L 13.680507 51.730197 
L 13.889688 51.828818 
L 14.09887 51.92744 
L 14.287791 52.046526 
L 14.476713 52.165611 
L 14.606809 52.379339 
L 14.736904 52.593067 
L 14.904743 52.907123 
L 15.072582 53.221178 
L 15.150742 53.589518 
L 15.228902 53.957858 
L 15.307062 54.326198 
L 15.385223 54.694538 
" style="fill:none;stroke:#008000;stroke-linecap:square;stroke-width:0.4;"/>
   </g>
   <g id="line2d_14">
    <path clip-path="url(#p55e4b190ba)" d="M 10.656118 54.54959 
L 10.502677 54.276745 
L 10.403537 54.100817 
L 10.296992 53.911247 
L 10.202326 53.699793 
L 10.107659 53.488338 
L 10.012993 53.276884 
L 9.918326 53.065429 
L 9.8269 52.774679 
L 9.735473 52.48393 
L 9.611239 52.187922 
L 9.487005 51.891914 
L 9.380358 51.695096 
L 9.27371 51.498279 
L 9.261883 51.218897 
L 9.250057 50.939516 
L 9.250057 50.740993 
L 9.250057 50.54247 
L 9.250057 50.343948 
L 9.250057 50.145425 
L 9.294176 49.935818 
L 9.338295 49.72621 
L 9.382415 49.516603 
L 9.426534 49.306996 
L 9.509322 49.012552 
L 9.59211 48.718107 
L 9.597561 48.394815 
L 9.603012 48.071522 
L 9.6858 47.777078 
L 9.768588 47.482633 
L 9.967794 47.209788 
L 10.166999 46.936944 
L 10.309642 46.779063 
L 10.452284 46.621183 
L 10.680594 46.47055 
L 10.908904 46.319917 
L 11.280268 46.300022 
L 11.651632 46.280127 
L 11.982373 46.261654 
L 12.313115 46.24318 
L 12.668641 46.248154 
L 13.024167 46.253127 
L 13.388126 46.22158 
L 13.752085 46.190032 
L 13.936842 46.138092 
L 14.121598 46.086152 
L 14.306354 46.034212 
L 14.491111 45.982272 
L 14.8055 45.835618 
L 15.119889 45.688964 
L 15.318529 45.589703 
L 15.517169 45.490442 
L 15.71581 45.39118 
L 15.91445 45.291919 
L 16.173715 45.195855 
L 16.432981 45.099791 
L 16.719911 45.099791 
L 17.006842 45.099791 
L 17.280042 45.187826 
L 17.553243 45.275861 
L 17.826444 45.363896 
L 18.099645 45.451931 
" style="fill:none;stroke:#008000;stroke-linecap:square;stroke-width:0.4;"/>
   </g>
   <g id="line2d_15">
    <path clip-path="url(#p55e4b190ba)" d="M 10.502677 54.276745 
L 10.706099 54.068417 
L 10.909521 53.860089 
L 11.27528 53.78797 
L 11.641039 53.715851 
L 12.006798 53.643732 
L 12.372557 53.571613 
L 12.642056 53.619503 
L 12.911554 53.667393 
L 13.181053 53.715282 
L 13.450551 53.763172 
L 13.729769 53.878989 
L 14.008986 53.994806 
L 14.288203 54.110623 
L 14.56742 54.22644 
L 14.771871 54.343464 
L 14.976321 54.460489 
L 15.180772 54.577514 
L 15.385223 54.694538 
L 15.510125 54.939388 
L 15.635027 55.184238 
L 15.759929 55.429087 
L 15.884831 55.673937 
L 16.010247 56.005684 
L 16.135664 56.337432 
L 16.26108 56.66918 
L 16.386496 57.000927 
L 16.514175 57.352996 
L 16.641854 57.705065 
L 16.769533 58.057134 
L 16.897212 58.409203 
L 17.002651 58.728445 
L 17.10809 59.047687 
L 17.213529 59.36693 
L 17.318968 59.686172 
L 17.424407 60.005414 
L 17.529847 60.324657 
L 17.635286 60.643899 
L 17.740725 60.963141 
L 17.763684 61.242913 
L 17.786644 61.522686 
L 17.809604 61.802458 
L 17.832563 62.08223 
L 17.855523 62.362002 
L 17.878482 62.641774 
L 17.901442 62.921547 
L 17.924401 63.201319 
L 18.112552 63.467626 
L 18.300702 63.733934 
L 18.488852 64.000242 
L 18.677002 64.266549 
L 18.787995 64.458251 
L 18.898987 64.649953 
L 19.00998 64.841654 
L 19.120973 65.033356 
L 19.231965 65.225058 
L 19.342958 65.416759 
L 19.453951 65.608461 
L 19.564943 65.800163 
L 19.653414 65.986784 
L 19.741884 66.173405 
L 19.830354 66.360027 
L 19.918824 66.546648 
L 20.007294 66.73327 
L 20.095764 66.919891 
L 20.184235 67.106512 
L 20.272705 67.293134 
" style="fill:none;stroke:#000000;stroke-linecap:square;stroke-width:0.4;"/>
   </g>
   <g id="line2d_16">
    <path clip-path="url(#p55e4b190ba)" d="M 4.928208 6.928844 
L 4.988473 7.095961 
L 5.042568 7.43389 
L 5.071981 7.68279 
L 5.101394 7.931689 
L 5.130807 8.180589 
L 5.16022 8.429489 
L 5.101343 8.720025 
L 5.042466 9.010562 
L 4.983588 9.301099 
L 4.924711 9.591636 
L 4.966105 9.951876 
L 5.007499 10.312116 
L 5.048893 10.672356 
L 5.090287 11.032596 
L 5.247533 11.235026 
L 5.404779 11.437457 
L 5.562025 11.639888 
L 5.719271 11.842319 
L 5.793729 12.025991 
L 5.868187 12.209664 
L 5.942645 12.393337 
L 6.017103 12.577009 
L 5.995043 12.863922 
L 5.972984 13.150835 
L 5.950924 13.437748 
L 5.928864 13.724662 
L 5.898063 14.030191 
L 5.867262 14.33572 
L 5.83646 14.641249 
L 5.805659 14.946778 
L 5.785502 15.175072 
L 5.765345 15.403366 
L 5.745188 15.63166 
L 5.725031 15.859954 
L 5.704873 16.088248 
L 5.684716 16.316542 
L 5.664559 16.544836 
L 5.644402 16.77313 
L 5.675615 17.074041 
L 5.706827 17.374952 
L 5.73804 17.675862 
L 5.769253 17.976773 
" style="fill:none;stroke:#000000;stroke-linecap:square;stroke-width:0.4;"/>
   </g>
   <g id="line2d_17">
    <path clip-path="url(#p55e4b190ba)" d="M 5.769253 17.976773 
L 5.790027 18.203433 
L 5.810801 18.430092 
L 5.956992 18.609928 
L 6.103182 18.789764 
L 6.249373 18.9696 
L 6.395563 19.149436 
L 6.576771 19.315771 
L 6.75798 19.482107 
L 6.939188 19.648443 
L 7.120396 19.814778 
L 7.332817 20.017209 
L 7.545238 20.21964 
L 7.757659 20.422071 
L 7.97008 20.624501 
L 7.967303 20.896493 
L 7.964527 21.168485 
L 7.96175 21.440477 
L 7.958973 21.712469 
L 8.094159 21.992134 
L 8.229346 22.2718 
L 8.364532 22.551466 
L 8.499718 22.831131 
L 8.618347 23.147176 
L 8.736976 23.463221 
L 8.855605 23.779266 
L 8.974233 24.095311 
L 8.91078 24.341937 
L 8.847326 24.588563 
L 8.783872 24.835188 
L 8.720418 25.081814 
L 8.662467 25.265487 
L 8.604515 25.44916 
L 8.546563 25.632832 
L 8.488611 25.816505 
L 8.543786 26.125373 
L 8.598961 26.434242 
L 8.654136 26.74311 
L 8.709311 27.051979 
L 8.877561 27.287521 
L 9.045812 27.523062 
L 9.214062 27.758604 
L 9.382312 27.994145 
L 9.467825 28.354385 
L 9.553339 28.714625 
L 9.638852 29.074865 
L 9.724366 29.435105 
L 9.834716 29.710863 
L 9.945065 29.986621 
L 10.055415 30.262378 
L 10.165765 30.538136 
" style="fill:none;stroke:#008000;stroke-linecap:square;stroke-width:0.4;"/>
   </g>
   <g id="line2d_18">
    <path clip-path="url(#p55e4b190ba)" d="M 7.205755 4.343926 
L 6.925613 4.162882 
L 6.488944 4.153219 
L 5.983988 4.638655 
L 5.523202 5.789149 
L 5.055938 6.212058 
L 4.928208 6.928844 
L 4.526711 7.34749 
L 4.066697 7.655008 
L 3.936601 7.797967 
L 3.54832 12.603015 
L 3.545594 12.841896 
L 4.207591 13.967379 
L 4.339949 14.342541 
L 4.173653 16.369193 
L 4.830147 18.905084 
L 5.255709 21.915397 
L 5.145411 23.184124 
L 5.818514 24.382224 
L 6.999042 26.096739 
L 7.250132 27.162893 
L 7.796328 27.894315 
L 9.702357 29.810195 
L 10.678846 31.141662 
L 11.547813 32.296207 
L 12.913303 34.216137 
L 13.950365 35.25323 
L 14.976527 35.921699 
L 15.519123 35.96291 
L 15.519123 35.96291 
" style="fill:none;stroke:#4169e1;stroke-linecap:square;stroke-width:0.4;"/>
   </g>
   <g id="line2d_19">
    <path clip-path="url(#p55e4b190ba)" d="M 4.339949 14.342541 
L 4.1844 14.461342 
L 4.028851 14.580143 
L 3.873302 14.698944 
L 3.717753 14.817745 
L 3.393593 15.01641 
L 3.069434 15.215075 
L 2.814796 15.271065 
L 2.560159 15.327055 
L 2.34275 15.61752 
L 2.443741 15.858391 
L 2.544732 16.099261 
L 2.799473 16.268226 
L 3.054214 16.437191 
L 3.349474 16.633298 
L 3.644735 16.829405 
L 3.842603 16.931935 
L 4.040472 17.034464 
L 4.238341 17.136994 
L 4.43621 17.239524 
" style="fill:none;stroke:#4169e1;stroke-linecap:square;stroke-width:0.4;"/>
   </g>
   <g id="line2d_20">
    <path clip-path="url(#p55e4b190ba)" d="M 11.57738 20.088476 
L 11.627361 20.400684 
L 11.677343 20.712892 
L 11.753215 20.953656 
L 11.829087 21.194419 
L 11.904959 21.435183 
L 11.980831 21.675947 
L 12.056703 21.916711 
L 12.132575 22.157475 
L 12.208447 22.398239 
L 12.284319 22.639003 
L 12.328438 22.837597 
L 12.372557 23.036191 
L 12.416677 23.234785 
L 12.460796 23.433379 
L 12.504916 23.631973 
L 12.549035 23.830566 
L 12.593154 24.02916 
L 12.637274 24.227754 
L 12.692449 24.442903 
L 12.747624 24.658053 
L 12.802799 24.873202 
L 12.857974 25.088351 
L 12.913149 25.3035 
L 12.968323 25.51865 
L 13.023498 25.733799 
L 13.078673 25.948948 
L 13.13453 26.162286 
L 13.190386 26.375623 
L 13.246242 26.58896 
L 13.302098 26.802298 
L 13.357955 27.015635 
L 13.413811 27.228973 
L 13.469667 27.44231 
L 13.525524 27.655647 
L 13.58138 27.868985 
L 13.637236 28.082322 
L 13.693092 28.29566 
L 13.748949 28.508997 
L 13.804805 28.722335 
L 13.860661 28.935672 
L 13.916517 29.149009 
L 13.972374 29.362347 
L 14.033076 29.63814 
L 14.093779 29.913933 
L 14.154482 30.189726 
L 14.215185 30.46552 
L 14.275887 30.741313 
L 14.33659 31.017106 
L 14.397293 31.292899 
L 14.457996 31.568693 
L 14.52906 31.84509 
L 14.600124 32.121487 
L 14.663886 32.369392 
L 14.727648 32.617296 
L 14.791411 32.865201 
L 14.855173 33.113106 
L 14.910348 33.350282 
L 14.965523 33.587458 
L 15.020698 33.824633 
L 15.075873 34.061809 
L 15.131048 34.298985 
L 15.186223 34.536161 
L 15.241398 34.773337 
L 15.296572 35.010512 
L 15.35221 35.248612 
L 15.407848 35.486711 
L 15.463486 35.724811 
L 15.519123 35.96291 
L 15.590599 36.268581 
L 15.662074 36.574252 
L 15.73355 36.879924 
L 15.805025 37.185595 
L 15.876501 37.491266 
L 15.947976 37.796937 
L 16.019452 38.102608 
L 16.090927 38.408279 
L 16.174281 38.657818 
L 16.257635 38.907357 
L 16.340988 39.156896 
L 16.424342 39.406435 
L 16.477293 39.607836 
L 16.530244 39.809236 
L 16.583195 40.010637 
L 16.636146 40.212037 
L 16.689097 40.413438 
L 16.742048 40.614838 
L 16.794999 40.816239 
L 16.84795 41.017639 
L 16.900901 41.219039 
L 16.953852 41.42044 
L 17.006803 41.62184 
L 17.059754 41.823241 
L 17.112705 42.024641 
L 17.165656 42.226042 
L 17.218607 42.427442 
L 17.271558 42.628843 
L 17.328095 42.8128 
L 17.384633 42.996756 
L 17.441171 43.180713 
L 17.497708 43.36467 
L 17.554246 43.548627 
L 17.610784 43.732584 
L 17.667321 43.916541 
L 17.723859 44.100498 
L 17.817805 44.438356 
L 17.911752 44.776214 
L 18.005698 45.114072 
L 18.099645 45.451931 
L 18.168549 45.724242 
L 18.237454 45.996554 
L 18.306358 46.268866 
L 18.375262 46.541177 
L 18.444167 46.813489 
L 18.513071 47.0858 
L 18.581976 47.358112 
L 18.65088 47.630424 
L 18.717059 47.999972 
L 18.783238 48.36952 
L 18.849417 48.739068 
L 18.915596 49.108616 
L 18.981776 49.478164 
L 19.047955 49.847712 
L 19.114134 50.21726 
L 19.180313 50.586808 
" style="fill:none;stroke:#4169e1;stroke-linecap:square;stroke-width:0.4;"/>
   </g>
   <g id="line2d_21">
    <path clip-path="url(#p55e4b190ba)" d="M 7.205755 4.343926 
L 7.000791 4.503228 
L 6.795826 4.662529 
L 6.545302 4.897289 
L 6.468375 5.218592 
L 6.391449 5.539895 
L 6.257857 5.691238 
L 6.124265 5.842582 
L 5.968767 6.104626 
L 5.983988 6.346491 
L 6.10421 6.56228 
L 6.224433 6.778069 
L 6.344656 6.993857 
L 6.464879 7.209646 
L 6.514089 7.401135 
L 6.563299 7.592623 
L 6.612509 7.784112 
L 6.661719 7.9756 
L 6.651435 8.285677 
L 6.641151 8.595753 
L 6.533989 8.816587 
L 6.426827 9.03742 
L 6.516711 9.409171 
L 6.606596 9.780921 
L 6.753146 10.009571 
L 6.899696 10.23822 
L 7.012823 10.418553 
L 7.12595 10.598887 
L 7.239076 10.77922 
L 7.352203 10.959553 
L 7.308084 11.202413 
L 7.263964 11.445273 
L 7.236402 11.72437 
L 7.208841 12.003467 
L 7.385318 12.312407 
L 7.561796 12.621347 
L 7.782496 12.930286 
L 8.003195 13.239226 
L 8.005972 13.45267 
L 8.008749 13.666114 
L 8.011526 13.879558 
L 8.014302 14.093002 
L 7.981187 14.346804 
L 7.948072 14.600606 
L 7.914957 14.854408 
L 7.881841 15.108211 
L 7.857005 15.336007 
L 7.832168 15.563804 
L 7.807332 15.791601 
L 7.782496 16.019398 
L 7.892845 16.262115 
L 8.003195 16.504833 
L 8.113545 16.703427 
L 8.223895 16.902021 
L 8.334245 17.100615 
L 8.444595 17.299209 
L 8.543889 17.641259 
L 8.643184 17.98331 
L 8.742478 18.32536 
L 8.841772 18.66741 
L 8.789374 18.880854 
L 8.736976 19.094298 
L 8.684578 19.307742 
L 8.632179 19.521186 
" style="fill:none;stroke:#000000;stroke-linecap:square;stroke-width:0.4;"/>
   </g>
   <g id="line2d_22">
    <path clip-path="url(#p55e4b190ba)" d="M 4.43621 17.239524 
L 4.68046 17.343262 
L 4.924711 17.447 
L 5.135846 17.579443 
L 5.346982 17.711886 
L 5.558117 17.844329 
L 5.769253 17.976773 
L 5.920791 18.100619 
L 6.072329 18.224464 
L 6.223868 18.34831 
L 6.375406 18.472156 
L 6.705119 18.653342 
L 7.034831 18.834528 
L 7.364544 19.015713 
L 7.694257 19.196899 
L 7.928737 19.277971 
L 8.163218 19.359043 
L 8.397699 19.440115 
L 8.632179 19.521186 
L 8.874888 19.56531 
L 9.117596 19.609434 
L 9.360304 19.653559 
L 9.603012 19.697683 
L 9.845771 19.774917 
L 10.088531 19.852152 
L 10.33129 19.929387 
L 10.57405 20.006622 
L 10.824882 20.027086 
L 11.075715 20.047549 
L 11.326547 20.068012 
L 11.57738 20.088476 
L 11.775609 20.153205 
L 11.973837 20.217935 
L 12.172066 20.282664 
L 12.370295 20.347394 
L 12.658048 20.422 
L 12.945801 20.496605 
L 13.188818 20.55288 
L 13.431834 20.609154 
L 13.718662 20.609154 
L 14.005489 20.609154 
L 14.253751 20.661023 
L 14.502012 20.712892 
L 14.761381 20.771297 
L 15.020749 20.829703 
L 15.233119 20.789416 
L 15.445488 20.749129 
L 15.657858 20.708842 
L 15.870227 20.668554 
L 16.035598 20.533269 
L 16.200969 20.397984 
" style="fill:none;stroke:#008000;stroke-linecap:square;stroke-width:0.4;"/>
   </g>
   <g id="line2d_23">
    <path clip-path="url(#p55e4b190ba)" d="M 8.632179 19.521186 
L 8.79755 19.814778 
L 8.731422 20.18994 
L 8.665295 20.565101 
L 8.731422 20.851872 
L 8.79755 21.138643 
L 8.808606 21.381361 
L 8.819661 21.624079 
L 8.830717 21.866796 
L 8.841772 22.109514 
L 8.985186 22.274997 
L 9.1286 22.44048 
L 9.272013 22.605963 
L 9.415427 22.771447 
L 9.547888 23.102413 
L 9.680349 23.433379 
L 9.713464 23.786442 
L 9.74658 24.139506 
L 9.779695 24.49257 
L 9.81281 24.845633 
L 9.956224 25.077338 
L 10.099638 25.309043 
L 10.243051 25.540747 
L 10.386465 25.772452 
L 10.532656 26.041033 
L 10.678846 26.309615 
L 10.825036 26.578196 
L 10.971227 26.846777 
L 11.111915 27.085658 
L 11.252604 27.324539 
L 11.393292 27.56342 
L 11.533981 27.802301 
L 11.569821 28.137104 
L 11.605662 28.471907 
L 11.641502 28.80671 
L 11.677343 29.141513 
L 11.765633 29.483493 
L 11.853923 29.825472 
L 11.942213 30.167451 
L 12.030504 30.509431 
L 12.226367 30.637966 
L 12.42223 30.766501 
L 12.618094 30.895037 
L 12.813957 31.023572 
L 13.026327 31.237087 
L 13.238696 31.450602 
L 13.451066 31.664117 
L 13.663435 31.877632 
L 13.897607 31.938596 
L 14.131779 31.999559 
L 14.365952 32.060523 
L 14.600124 32.121487 
" style="fill:none;stroke:#008000;stroke-linecap:square;stroke-width:0.4;"/>
   </g>
   <g id="line2d_24">
    <path clip-path="url(#p55e4b190ba)" d="M 7.205755 4.343926 
L 7.247972 4.567176 
L 7.290189 4.790425 
L 7.332406 5.013674 
L 7.374623 5.236924 
L 7.399356 5.615566 
L 7.42409 5.994209 
L 7.448823 6.372852 
L 7.473557 6.751495 
L 7.530532 6.947424 
L 7.587506 7.143354 
L 7.644481 7.339283 
L 7.701456 7.535212 
L 7.75843 7.731142 
L 7.815405 7.927071 
L 7.87238 8.123 
L 7.929355 8.31893 
L 8.032505 8.660696 
L 8.135656 9.002462 
L 8.234951 9.311402 
L 8.334245 9.620341 
L 8.433539 9.929281 
L 8.532834 10.23822 
L 8.590168 10.427648 
L 8.647503 10.617076 
L 8.704838 10.806504 
L 8.762172 10.995932 
L 8.819507 11.18536 
L 8.876842 11.374788 
L 8.934176 11.564216 
L 8.991511 11.753644 
L 9.048845 11.943072 
L 9.10618 12.1325 
L 9.163515 12.321928 
L 9.220849 12.511356 
L 9.278184 12.700784 
L 9.335519 12.890212 
L 9.392853 13.07964 
L 9.450188 13.269068 
L 9.498832 13.460699 
L 9.547477 13.652329 
L 9.596121 13.84396 
L 9.644766 14.035591 
L 9.701535 14.259302 
L 9.758304 14.483013 
L 9.815073 14.706724 
L 9.871842 14.930435 
L 9.928611 15.154146 
L 9.98538 15.377858 
L 10.042149 15.601569 
L 10.098918 15.82528 
L 10.21405 16.090664 
L 10.329182 16.356048 
L 10.444314 16.621432 
L 10.559446 16.886816 
L 10.674578 17.1522 
L 10.78971 17.417584 
L 10.904842 17.682967 
L 11.019974 17.948351 
L 11.079083 18.136643 
L 11.138192 18.324934 
L 11.1973 18.513225 
L 11.256409 18.701516 
L 11.315518 18.889807 
L 11.374626 19.078098 
L 11.433735 19.266389 
L 11.492844 19.45468 
L 11.535112 19.771578 
L 11.57738 20.088476 
" style="fill:none;stroke:#000000;stroke-linecap:square;stroke-width:0.4;"/>
   </g>
   <g id="line2d_25">
    <path clip-path="url(#p55e4b190ba)" d="M 3.936601 7.797967 
L 4.094259 7.921316 
L 4.251916 8.044664 
L 4.478992 8.14087 
L 4.706068 8.237076 
L 4.933144 8.333282 
L 5.16022 8.429489 
L 5.457023 8.531521 
L 5.753826 8.633553 
L 6.038494 8.780776 
L 6.232661 8.909098 
L 6.426827 9.03742 
L 6.159025 9.071099 
L 5.891224 9.104779 
L 5.694898 9.119416 
L 5.498572 9.134053 
L 5.184491 9.21278 
L 4.936589 9.288878 
L 4.688688 9.364976 
L 4.440786 9.441074 
L 4.192885 9.517172 
L 3.959535 9.6796 
L 3.726186 9.842027 
" style="fill:none;stroke:#008000;stroke-linecap:square;stroke-width:0.4;"/>
   </g>
   <g id="line2d_26">
    <path clip-path="url(#p55e4b190ba)" d="M 15.519123 35.96291 
L 15.291945 36.207049 
L 15.064766 36.451188 
L 14.954416 36.616671 
L 14.844066 36.782154 
L 14.733716 36.947637 
L 14.623366 37.11312 
L 14.513068 37.377865 
L 14.402769 37.642609 
L 14.292471 37.907354 
L 14.182172 38.172098 
L 14.218013 38.429737 
L 14.253853 38.687376 
L 14.289694 38.945015 
L 14.325535 39.202655 
L 14.376442 39.457238 
L 14.427349 39.711822 
L 14.478256 39.966406 
L 14.529163 40.22099 
L 14.590251 40.526235 
L 14.717158 40.761279 
L 14.844066 40.996323 
L 14.802723 41.253891 
L 14.761381 41.511459 
L 14.720038 41.769027 
L 14.678695 42.026595 
L 14.695253 42.393941 
L 14.711811 42.761286 
L 14.711811 43.004004 
L 14.711811 43.246722 
L 14.711811 43.48944 
L 14.711811 43.732158 
L 14.722815 44.018929 
L 14.733819 44.3057 
L 14.744823 44.59247 
L 14.755827 44.879241 
L 14.755827 45.188181 
L 14.755827 45.497121 
L 14.888237 45.828016 
L 15.020646 46.158911 
L 15.153056 46.489806 
L 15.285465 46.820701 
L 15.401369 47.15934 
L 15.517272 47.49798 
L 15.577949 47.865326 
L 15.638626 48.232671 
L 15.773761 48.446115 
L 15.908896 48.659559 
L 16.044031 48.873003 
L 16.179166 49.086447 
L 16.355695 49.351191 
L 16.532224 49.615936 
L 16.708753 49.88068 
L 16.885282 50.145425 
L 16.948016 50.378337 
L 17.01075 50.61125 
L 17.073483 50.844162 
L 17.136217 51.077075 
L 17.19422 51.292508 
L 17.423867 51.585674 
L 17.653515 51.87884 
" style="fill:none;stroke:#008000;stroke-linecap:square;stroke-width:0.4;"/>
   </g>
   <g id="line2d_27">
    <path clip-path="url(#p55e4b190ba)" d="M 7.606018 27.713911 
L 7.39622 27.861702 
L 7.283144 28.067472 
L 7.170069 28.273242 
L 7.056994 28.479013 
L 6.943919 28.684783 
L 6.946695 29.03067 
L 6.949472 29.376557 
L 6.952249 29.722445 
L 6.955026 30.068332 
L 6.999145 30.277939 
L 7.043264 30.487546 
L 7.087384 30.697153 
L 7.131503 30.90676 
L 7.308084 31.083257 
L 7.484664 31.259753 
L 7.570177 31.575798 
L 7.655691 31.891843 
L 7.741204 32.207888 
L 7.826718 32.523933 
L 7.859807 32.722526 
L 7.892897 32.92112 
L 7.925986 33.119714 
L 7.959076 33.318308 
L 7.992166 33.516902 
L 8.025255 33.715496 
L 8.058345 33.91409 
L 8.091434 34.112683 
L 8.091434 34.399454 
L 8.091434 34.686225 
L 8.091434 34.972996 
L 8.091434 35.259767 
L 8.047315 35.491472 
L 8.003195 35.723177 
L 7.959076 35.954881 
L 7.914957 36.186586 
L 7.914957 36.429304 
L 7.914957 36.672022 
L 7.914957 36.91474 
L 7.914957 37.157458 
L 7.840447 37.348804 
L 7.765938 37.54015 
L 7.691429 37.731497 
L 7.616919 37.922843 
L 7.589358 38.20194 
L 7.561796 38.481038 
L 7.495617 38.701658 
L 7.429438 38.922278 
L 7.363259 39.142899 
L 7.297079 39.363519 
L 7.24463 39.621158 
L 7.19218 39.878797 
L 7.139731 40.136436 
L 7.087281 40.394076 
L 7.08183 40.761421 
L 7.07638 41.128766 
L 7.170172 41.356989 
L 7.263964 41.585212 
L 7.52323 41.842283 
L 7.782496 42.099354 
L 7.90385 42.286934 
L 8.025204 42.474515 
L 8.146558 42.662096 
L 8.267912 42.849676 
L 8.403098 42.996899 
L 8.538284 43.144121 
L 8.673471 43.291343 
L 8.808657 43.438566 
L 8.943689 43.724342 
L 9.078721 44.010118 
L 9.235144 44.133253 
L 9.391568 44.256389 
L 9.547991 44.379524 
L 9.704414 44.502659 
L 9.966765 44.69095 
L 10.229116 44.879241 
L 10.336072 45.159191 
L 10.443028 45.439141 
L 10.362091 45.790997 
L 10.281154 46.142853 
L 10.366719 46.382018 
L 10.452284 46.621183 
" style="fill:none;stroke:#008000;stroke-linecap:square;stroke-width:0.4;"/>
   </g>
   <g id="line2d_28">
    <path clip-path="url(#p55e4b190ba)" d="M 10.452284 46.621183 
L 10.645474 46.814448 
L 10.838663 47.007713 
L 11.031853 47.200978 
L 11.225042 47.394243 
L 11.453146 47.546297 
L 11.681251 47.69835 
L 11.909355 47.850404 
L 12.13746 48.002458 
L 12.348801 48.257682 
L 12.560142 48.512905 
L 12.682884 48.679809 
L 12.805627 48.846713 
L 12.928369 49.013617 
L 13.051112 49.180521 
L 13.173854 49.347426 
L 13.296596 49.51433 
L 13.419339 49.681234 
L 13.542081 49.848138 
L 13.749309 50.054121 
L 13.956536 50.260105 
L 14.163763 50.466088 
L 14.370991 50.672071 
L 14.624755 50.780712 
L 14.878518 50.889352 
L 15.132282 50.997993 
L 15.386045 51.106633 
L 15.614973 51.169302 
L 15.8439 51.231971 
L 16.072827 51.29464 
L 16.301754 51.357309 
L 16.517003 51.440441 
L 16.732252 51.523574 
L 16.962568 51.61239 
L 17.192883 51.701207 
L 17.423199 51.790023 
L 17.653515 51.87884 
L 17.933349 52.113316 
L 18.213183 52.347791 
L 18.456097 52.55882 
L 18.69901 52.769848 
L 18.941924 52.980876 
L 19.184838 53.191904 
L 19.377462 53.328184 
L 19.570085 53.464464 
L 19.738336 53.580423 
L 19.906586 53.696382 
" style="fill:none;stroke:#4169e1;stroke-linecap:square;stroke-width:0.4;"/>
   </g>
   <g id="line2d_29">
    <path clip-path="url(#p55e4b190ba)" d="M 23.814597 30.81837 
L 23.747955 31.072457 
L 23.681313 31.326543 
L 23.614671 31.580629 
L 23.548029 31.834716 
L 23.53466 32.029118 
L 23.52129 32.223519 
L 23.507921 32.417921 
L 23.494551 32.612323 
L 23.511829 32.833334 
L 23.529106 33.054345 
L 23.546384 33.275356 
L 23.563661 33.496367 
L 23.580939 33.717379 
L 23.598216 33.93839 
L 23.615494 34.159401 
L 23.632772 34.380412 
L 23.555743 34.740794 
L 23.478714 35.101176 
L 23.403279 35.311991 
L 23.327844 35.522806 
L 23.252409 35.733621 
L 23.176974 35.944436 
L 23.101539 36.155251 
L 23.026104 36.366066 
L 22.950669 36.576881 
L 22.875234 36.787696 
L 22.763753 36.986077 
L 22.652272 37.184458 
L 22.571644 37.388096 
L 22.491015 37.591735 
L 22.410387 37.795374 
L 22.329758 37.999012 
L 22.270675 38.244715 
L 22.211592 38.490417 
L 22.152509 38.736119 
L 22.093427 38.981821 
L 21.971301 39.340072 
L 21.849176 39.698322 
L 21.72705 40.056573 
L 21.604925 40.414823 
L 21.544634 40.62713 
L 21.484342 40.839437 
L 21.424051 41.051745 
L 21.36376 41.264052 
L 21.303468 41.476359 
L 21.243177 41.688666 
L 21.182886 41.900973 
L 21.122594 42.11328 
L 21.107631 42.375751 
L 21.092667 42.638222 
L 21.077704 42.900692 
L 21.06274 43.163163 
L 21.045977 43.399735 
L 21.029213 43.636307 
L 21.01245 43.872879 
L 20.995687 44.10945 
L 20.978923 44.346022 
L 20.96216 44.582594 
L 20.945397 44.819166 
L 20.928634 45.055738 
L 20.97265 45.3008 
L 21.016667 45.545863 
L 21.060683 45.790926 
L 21.1047 46.035988 
" style="fill:none;stroke:#4169e1;stroke-linecap:square;stroke-width:0.4;"/>
   </g>
   <g id="line2d_30">
    <path clip-path="url(#p55e4b190ba)" d="M 25.419761 45.821976 
L 25.724792 46.00103 
L 25.930579 46.11635 
L 26.136367 46.231669 
L 26.342154 46.346989 
L 26.547942 46.462308 
L 26.91437 46.558656 
L 27.280797 46.655004 
L 27.486482 46.75725 
L 27.692167 46.859496 
L 27.897851 46.961741 
L 28.103536 47.063987 
L 28.423119 47.247873 
L 28.742702 47.431759 
L 29.062284 47.615645 
L 29.381867 47.79953 
L 29.609149 47.909663 
L 29.836431 48.019795 
L 30.076825 48.102217 
L 30.317219 48.184639 
L 30.557613 48.267061 
L 30.798007 48.349483 
L 31.072082 48.460326 
L 31.346157 48.571169 
L 31.326823 48.930414 
L 31.20444 49.292217 
L 31.0836 49.456919 
L 30.962761 49.62162 
L 30.841921 49.786322 
L 30.721081 49.951023 
L 30.549128 50.128088 
L 30.329457 50.303873 
L 30.109786 50.479659 
L 29.958607 50.694524 
L 29.856382 50.963674 
L 29.837459 51.177118 
L 29.827175 51.433478 
L 29.816891 51.689838 
L 29.777708 51.901435 
L 29.738525 52.113032 
" style="fill:none;stroke:#008000;stroke-linecap:square;stroke-width:0.4;"/>
   </g>
   <g id="line2d_31">
    <path clip-path="url(#p55e4b190ba)" d="M 18.191175 17.269651 
L 18.461136 17.375236 
L 18.731097 17.480821 
L 19.077059 17.624349 
L 19.423021 17.767876 
L 19.633848 18.016847 
L 19.844675 18.265817 
L 20.055502 18.514788 
L 20.266328 18.763759 
L 20.479058 18.865791 
L 20.691787 18.967824 
L 20.904517 19.069856 
L 21.117246 19.171888 
L 21.329976 19.273921 
L 21.542705 19.375953 
L 21.755435 19.477986 
L 21.968164 19.580018 
L 22.16192 19.655512 
L 22.355675 19.731007 
L 22.54943 19.806501 
L 22.743185 19.881995 
L 22.93694 19.957489 
L 23.130695 20.032983 
L 23.32445 20.108477 
L 23.518205 20.183971 
L 23.703013 20.31407 
L 23.887821 20.444168 
L 24.072628 20.574267 
L 24.257436 20.704365 
L 24.265869 21.020978 
L 24.274302 21.337592 
L 24.229797 21.528512 
L 24.185292 21.719432 
L 24.140787 21.910352 
L 24.096282 22.101272 
L 24.051777 22.292192 
L 24.007272 22.483112 
L 23.962767 22.674033 
L 23.918262 22.864953 
L 23.925512 23.068094 
L 23.932763 23.271235 
L 23.940013 23.474376 
L 23.947264 23.677518 
L 23.954514 23.880659 
L 23.961764 24.0838 
L 23.969015 24.286941 
L 23.976265 24.490083 
L 23.984647 24.847978 
L 23.993028 25.205873 
L 24.00141 25.563769 
L 24.009792 25.921664 
L 24.046918 26.117273 
L 24.084044 26.312883 
L 24.12117 26.508493 
L 24.158296 26.704102 
L 24.195422 26.899712 
L 24.232548 27.095321 
L 24.269674 27.290931 
L 24.306801 27.486541 
L 24.339659 27.688119 
L 24.372517 27.889697 
L 24.405375 28.091275 
L 24.438233 28.292853 
L 24.471091 28.494431 
L 24.503949 28.696009 
L 24.536808 28.897587 
L 24.569666 29.099165 
L 24.671171 29.442353 
L 24.772677 29.78554 
L 24.836233 30.138817 
L 24.89979 30.492094 
" style="fill:none;stroke:#000000;stroke-dasharray:1.48,0.64;stroke-dashoffset:0;stroke-width:0.4;"/>
   </g>
   <g id="line2d_32">
    <path clip-path="url(#p55e4b190ba)" d="M 31.088845 37.173942 
L 30.889331 37.494108 
L 30.689817 37.814274 
L 30.535348 37.997591 
L 30.380878 38.180909 
L 30.092817 38.380853 
L 29.804755 38.580796 
L 29.585289 38.83403 
L 29.554951 39.047545 
L 29.524612 39.26106 
L 29.494274 39.474575 
L 29.463935 39.68809 
L 29.383924 39.904803 
L 29.303913 40.121515 
L 29.223901 40.338228 
L 29.14389 40.55494 
L 28.968132 40.797658 
L 28.792375 41.040376 
L 28.643459 41.161735 
L 28.494543 41.283094 
L 28.345627 41.404453 
L 28.196711 41.525812 
L 28.090064 41.834183 
L 27.983416 42.142554 
L 27.927264 42.502581 
L 27.871112 42.862608 
L 27.81496 43.222635 
L 27.758808 43.582662 
L 27.809921 43.942617 
L 27.861034 44.302573 
L 27.951072 44.506212 
L 28.041111 44.70985 
L 28.131149 44.913489 
L 28.221188 45.117128 
L 28.22453 45.326806 
L 28.227873 45.536484 
L 28.231215 45.746162 
L 28.234557 45.95584 
L 28.198048 46.285528 
L 28.161539 46.615215 
L 28.132538 46.839601 
L 28.103536 47.063987 
" style="fill:none;stroke:#4169e1;stroke-linecap:square;stroke-width:0.4;"/>
   </g>
   <g id="line2d_33">
    <path clip-path="url(#p55e4b190ba)" d="M 13.039388 17.570064 
L 13.108703 17.773418 
L 13.178019 17.976773 
L 13.263533 18.160445 
L 13.349046 18.344118 
L 13.434559 18.527791 
L 13.520073 18.711463 
L 13.542133 18.954181 
L 13.564192 19.196899 
L 13.586252 19.439617 
L 13.608312 19.682335 
L 13.668989 19.941608 
L 13.729666 20.200882 
L 13.790343 20.460155 
L 13.85102 20.719428 
L 13.911697 20.978702 
L 13.972374 21.237975 
L 14.033051 21.497248 
L 14.093728 21.756522 
L 14.099256 22.004746 
L 14.104783 22.252971 
L 14.110311 22.501195 
L 14.115839 22.74942 
L 14.121367 22.997645 
L 14.126894 23.245869 
L 14.132422 23.494094 
L 14.13795 23.742318 
L 14.171065 23.974023 
L 14.204181 24.205728 
L 14.237296 24.437432 
L 14.270411 24.669137 
L 14.369705 24.878744 
L 14.469 25.088351 
L 14.568294 25.297958 
L 14.667588 25.507565 
L 14.799998 25.73927 
L 14.932408 25.970975 
L 15.064817 26.202679 
L 15.197227 26.434384 
L 15.351696 26.76535 
L 15.506165 27.096316 
L 15.660635 27.427282 
L 15.815104 27.758248 
L 15.793044 28.07813 
L 15.770984 28.398012 
L 15.748925 28.717894 
L 15.726865 29.037775 
L 15.726865 29.324689 
L 15.726865 29.611602 
L 15.81513 29.79364 
L 15.903394 29.975678 
L 15.991659 30.157717 
L 16.079923 30.339755 
L 16.168188 30.521794 
L 16.256452 30.703832 
L 16.344716 30.885871 
L 16.432981 31.067909 
L 16.499186 31.255419 
L 16.565391 31.442928 
L 16.631595 31.630438 
L 16.6978 31.817947 
L 16.764005 32.005457 
L 16.83021 32.192966 
L 16.896415 32.380476 
L 16.962619 32.567986 
L 16.973675 32.932062 
L 16.98473 33.296139 
L 16.995786 33.660216 
L 17.006842 34.024293 
L 16.852321 34.300122 
L 16.6978 34.575951 
L 16.543279 34.851779 
L 16.388759 35.127608 
L 16.225548 35.284352 
L 16.062337 35.441095 
L 15.899126 35.597839 
L 15.735915 35.754582 
L 15.519123 35.96291 
" style="fill:none;stroke:#000000;stroke-dasharray:1.48,0.64;stroke-dashoffset:0;stroke-width:0.4;"/>
   </g>
   <g id="line2d_34">
    <path clip-path="url(#p55e4b190ba)" d="M 25.89263 30.19367 
L 26.238798 30.330092 
L 26.360923 30.620629 
L 26.483049 30.911166 
L 26.605174 31.201702 
L 26.727299 31.492239 
L 26.856418 31.693533 
L 26.985537 31.894827 
L 27.114655 32.096121 
L 27.243774 32.297415 
L 27.342554 32.551785 
L 27.441334 32.806156 
L 27.540114 33.060527 
L 27.638894 33.314897 
L 27.742251 33.581773 
L 27.845607 33.848649 
L 27.948964 34.115525 
L 28.052321 34.382402 
L 28.099423 34.67173 
L 28.146524 34.961059 
L 28.193626 35.250388 
L 28.240728 35.539717 
L 28.086053 35.759272 
L 27.931378 35.978826 
L 27.810641 36.206481 
L 27.689904 36.434135 
L 27.567933 36.592868 
L 27.445962 36.751601 
L 27.323991 36.910334 
L 27.20202 37.069067 
L 27.063594 37.228724 
L 26.925168 37.388381 
L 26.786742 37.548037 
L 26.648316 37.707694 
L 26.507731 37.97187 
L 26.367145 38.236046 
L 26.22656 38.500222 
L 26.085974 38.764398 
L 25.97529 38.941498 
L 25.864606 39.118599 
L 25.753922 39.295699 
L 25.643238 39.472799 
L 25.532553 39.649899 
L 25.421869 39.827 
L 25.311185 40.0041 
L 25.200501 40.1812 
" style="fill:none;stroke:#4169e1;stroke-linecap:square;stroke-width:0.4;"/>
   </g>
   <g id="line2d_35">
    <path clip-path="url(#p55e4b190ba)" d="M 3.207449 7.066687 
L 3.094682 7.287378 
L 2.981915 7.50807 
L 2.869149 7.728761 
L 2.756382 7.949453 
L 2.846986 8.152381 
L 2.93759 8.355309 
L 2.913114 8.703328 
L 2.888637 9.051347 
L 2.702544 9.290654 
L 2.516451 9.529961 
L 2.330357 9.769269 
L 2.144264 10.008576 
L 1.945572 10.224578 
L 1.746881 10.44058 
L 1.743899 10.64095 
L 1.740916 10.84132 
L 1.83152 11.039701 
L 1.922124 11.238082 
L 1.929992 11.504318 
L 1.937859 11.770555 
L 1.945727 12.036791 
L 1.953594 12.303028 
L 2.118091 12.613104 
L 2.282587 12.923181 
L 2.447083 13.233257 
L 2.61158 13.543334 
L 2.58299 13.824207 
L 2.554399 14.105081 
L 2.525809 14.385954 
L 2.497219 14.666828 
L 2.458602 14.904501 
L 2.419984 15.142174 
L 2.381367 15.379847 
L 2.34275 15.61752 
L 2.359307 15.997726 
L 2.375865 16.377932 
L 2.392423 16.758138 
L 2.40898 17.138344 
L 2.500459 17.332178 
L 2.591937 17.526011 
L 2.683415 17.719844 
L 2.774894 17.913677 
L 3.023978 18.193911 
L 3.273062 18.474145 
L 3.230845 18.776193 
L 3.188629 19.07824 
L 3.146412 19.380288 
L 3.104195 19.682335 
L 3.106972 19.984098 
L 3.109748 20.285861 
L 3.112525 20.587625 
L 3.115302 20.889388 
L 3.082187 21.198256 
L 3.049071 21.507125 
L 3.015956 21.815993 
L 2.982841 22.124862 
L 2.982841 22.45597 
L 2.982841 22.787078 
L 3.175876 23.088202 
L 3.368911 23.389326 
L 3.368911 23.58792 
L 3.368911 23.786513 
L 3.368911 23.985107 
L 3.368911 24.183701 
L 3.346903 24.55872 
L 3.324895 24.933739 
L 3.298361 25.18882 
L 3.271828 25.443902 
L 3.245295 25.698983 
L 3.218761 25.954064 
L 3.427531 26.192519 
L 3.636301 26.430974 
L 3.845072 26.669428 
L 4.053842 26.907883 
L 4.09395 27.187051 
L 4.134059 27.46622 
L 4.174167 27.745388 
L 4.214276 28.024556 
L 4.350285 28.225353 
L 4.486294 28.426149 
L 4.622303 28.626946 
L 4.758312 28.827742 
" style="fill:none;stroke:#000000;stroke-dasharray:1.48,0.64;stroke-dashoffset:0;stroke-width:0.4;"/>
   </g>
   <g id="line2d_36">
    <path clip-path="url(#p55e4b190ba)" d="M 29.605652 36.122069 
L 29.450926 36.295013 
L 29.296199 36.467957 
L 29.141473 36.6409 
L 28.986747 36.813844 
L 28.838345 37.011443 
L 28.689944 37.209042 
L 28.541542 37.406641 
L 28.39314 37.60424 
L 28.337811 37.848522 
L 28.282482 38.092803 
L 28.169767 38.340494 
L 28.057051 38.588186 
L 27.774235 38.75914 
L 27.491418 38.930094 
L 27.147513 38.869415 
L 26.803608 38.808735 
L 26.444791 38.786567 
L 26.085974 38.764398 
" style="fill:none;stroke:#008000;stroke-linecap:square;stroke-width:0.4;"/>
   </g>
   <g id="line2d_37">
    <path clip-path="url(#p55e4b190ba)" d="M 25.89263 30.19367 
L 25.641284 30.269271 
L 25.389937 30.344871 
L 25.144863 30.418482 
L 24.89979 30.492094 
L 24.628492 30.573663 
L 24.357193 30.655232 
L 24.085895 30.736801 
L 23.814597 30.81837 
L 23.547052 30.924879 
L 23.279508 31.031388 
L 23.011963 31.137897 
L 22.744419 31.244405 
L 22.559457 31.392978 
L 22.374495 31.54155 
L 22.189533 31.690123 
L 22.004571 31.838695 
L 21.819609 31.987267 
L 21.634647 32.13584 
L 21.449685 32.284412 
L 21.264722 32.432984 
L 21.179055 32.682026 
L 21.093387 32.931068 
L 21.007719 33.180109 
L 20.922052 33.429151 
L 20.843943 33.633074 
L 20.765834 33.836997 
L 20.687725 34.04092 
L 20.609616 34.244842 
L 20.505437 34.449689 
L 20.401258 34.654536 
L 20.297078 34.859382 
L 20.192899 35.064229 
L 20.091188 35.387237 
L 19.989477 35.710245 
L 19.952711 35.954526 
L 19.915944 36.198807 
L 19.879178 36.443088 
L 19.842412 36.687369 
L 19.721058 37.018335 
L 19.599704 37.349301 
L 19.47835 37.680267 
L 19.356996 38.011234 
L 19.294699 38.252424 
L 19.232402 38.493614 
L 19.170106 38.734804 
L 19.107809 38.975995 
L 19.045512 39.217185 
L 18.983215 39.458375 
L 18.920919 39.699566 
L 18.858622 39.940756 
L 18.873174 40.186103 
L 18.887726 40.43145 
L 18.902278 40.676796 
L 18.916831 40.922143 
L 18.931383 41.16749 
L 18.945935 41.412837 
L 18.960487 41.658184 
L 18.975039 41.903531 
L 18.982778 42.115554 
L 18.990517 42.327577 
L 18.998256 42.5396 
L 19.005995 42.751623 
L 19.013734 42.963646 
L 19.021473 43.175669 
L 19.029212 43.387691 
L 19.03695 43.599714 
L 19.104466 43.887835 
L 19.171983 44.175956 
L 19.239499 44.464077 
L 19.307015 44.752198 
L 19.342958 45.013745 
L 19.378901 45.275292 
L 19.414845 45.536839 
L 19.450788 45.798386 
L 19.336273 46.053965 
L 19.221758 46.309544 
L 19.107243 46.565122 
L 18.992728 46.820701 
L 18.907266 47.023131 
L 18.821804 47.225562 
L 18.736342 47.427993 
L 18.65088 47.630424 
" style="fill:none;stroke:#4169e1;stroke-linecap:square;stroke-width:0.4;"/>
   </g>
   <g id="line2d_38">
    <path clip-path="url(#p55e4b190ba)" d="M 15.434793 16.995385 
L 15.437929 17.230145 
L 15.441066 17.464905 
L 15.444203 17.699665 
L 15.447339 17.934425 
L 15.542057 18.121508 
L 15.636775 18.308591 
L 15.731493 18.495675 
L 15.826211 18.682758 
L 15.859789 18.988287 
L 15.893367 19.293816 
L 15.926945 19.599345 
L 15.960523 19.904874 
L 16.080746 20.151429 
L 16.200969 20.397984 
L 16.347262 20.671396 
L 16.493555 20.944809 
L 16.639848 21.218222 
L 16.786142 21.491635 
L 16.852321 21.72334 
L 16.9185 21.955045 
L 16.984679 22.186749 
L 17.050858 22.418454 
L 17.194426 22.75212 
L 17.337994 23.085786 
L 17.455183 23.276777 
L 17.572372 23.467768 
L 17.689561 23.65876 
L 17.80675 23.849751 
L 18.048738 24.067742 
L 18.290726 24.285734 
L 18.488338 24.392598 
L 18.685949 24.499462 
L 18.883561 24.606326 
L 19.081173 24.71319 
L 19.321721 24.890468 
L 19.562269 25.067746 
L 19.802818 25.245024 
L 20.043366 25.422301 
L 20.159784 25.650667 
L 20.276201 25.879032 
L 20.392619 26.107397 
L 20.509037 26.335762 
L 20.605194 26.672697 
L 20.701352 27.009631 
L 20.879166 27.197638 
L 21.056981 27.385645 
L 21.252433 27.55191 
L 21.447885 27.718174 
L 21.643337 27.884439 
L 21.838789 28.050704 
L 21.866042 28.2569 
L 21.893295 28.463097 
L 21.776775 28.740489 
L 21.660254 29.017881 
L 21.474829 29.332362 
L 21.289405 29.646844 
L 21.304934 29.913649 
L 21.320463 30.180454 
L 21.335992 30.447259 
L 21.351521 30.714064 
L 21.332907 30.906121 
L 21.314293 31.098178 
L 21.295678 31.290235 
L 21.277064 31.482292 
L 21.273978 31.719965 
L 21.270893 31.957638 
L 21.267808 32.195311 
L 21.264722 32.432984 
" style="fill:none;stroke:#008000;stroke-linecap:square;stroke-width:0.4;"/>
   </g>
   <g id="line2d_39">
    <path clip-path="url(#p55e4b190ba)" d="M 33.550275 38.06836 
L 33.713795 38.414816 
L 33.877314 38.761272 
L 33.877314 39.026016 
L 33.877314 39.290761 
L 33.877314 39.555505 
L 33.877314 39.820249 
L 33.841473 40.136294 
L 33.805633 40.452339 
L 33.769792 40.768384 
L 33.733952 41.084429 
L 33.670498 41.419232 
L 33.607044 41.754035 
L 33.54359 42.088838 
L 33.480137 42.423641 
L 33.384982 42.653392 
L 33.289827 42.883142 
L 33.194672 43.112893 
L 33.099517 43.342644 
L 33.004362 43.572394 
L 32.909207 43.802145 
L 32.814052 44.031896 
L 32.718897 44.261647 
L 32.652744 44.443028 
L 32.586591 44.624409 
L 32.520437 44.80579 
L 32.454284 44.987171 
L 32.38813 45.168553 
L 32.321977 45.349934 
L 32.255824 45.531315 
L 32.18967 45.712696 
L 32.123517 45.894077 
L 32.057364 46.075459 
L 31.99121 46.25684 
L 31.925057 46.438221 
L 31.858903 46.619602 
L 31.79275 46.800983 
L 31.726597 46.982365 
L 31.660443 47.163746 
L 31.468642 47.396019 
L 31.276841 47.628292 
L 31.08504 47.860565 
L 30.893239 48.092838 
" style="fill:none;stroke:#000000;stroke-dasharray:1.48,0.64;stroke-dashoffset:0;stroke-width:0.4;"/>
   </g>
   <g id="line2d_40">
    <path clip-path="url(#p55e4b190ba)" d="M 32.674675 37.730999 
L 32.64156 38.09934 
L 32.53954 38.271999 
L 32.437521 38.444658 
L 32.335501 38.617318 
L 32.233481 38.789977 
L 32.056901 38.944447 
L 31.88032 39.098917 
L 31.70374 39.253387 
L 31.52716 39.407856 
L 31.396036 39.662369 
L 31.264911 39.916882 
L 31.213567 40.151677 
L 31.162223 40.386473 
L 31.110879 40.621268 
L 31.059535 40.856064 
L 31.008191 41.090859 
L 30.956847 41.325655 
L 30.905503 41.56045 
L 30.854159 41.795246 
L 30.754608 42.105749 
L 30.655056 42.416251 
L 30.555505 42.726754 
L 30.455953 43.037257 
L 30.356402 43.34776 
L 30.25685 43.658262 
L 30.157299 43.968765 
L 30.057747 44.279268 
L 30.028772 44.537653 
L 29.999796 44.796038 
L 29.97082 45.054423 
L 29.941844 45.312808 
L 29.912868 45.571194 
L 29.883892 45.829579 
L 29.854917 46.087964 
L 29.825941 46.346349 
L 29.827252 46.55553 
L 29.828563 46.764711 
L 29.829874 46.973891 
L 29.831186 47.183072 
L 29.832497 47.392253 
L 29.833808 47.601434 
L 29.835119 47.810615 
L 29.836431 48.019795 
" style="fill:none;stroke:#4169e1;stroke-linecap:square;stroke-width:0.4;"/>
   </g>
   <g id="line2d_41">
    <path clip-path="url(#p55e4b190ba)" d="M 33.550275 38.06836 
L 33.489598 38.2893 
L 33.428921 38.510241 
L 33.368244 38.731181 
L 33.307567 38.952121 
L 33.24689 39.173061 
L 33.186213 39.394001 
L 33.125536 39.614941 
L 33.064859 39.835881 
L 32.994104 40.09519 
L 32.923348 40.354499 
L 32.852592 40.613808 
L 32.781837 40.873117 
L 32.711081 41.132426 
L 32.640326 41.391734 
L 32.56957 41.651043 
L 32.498815 41.910352 
L 32.447188 42.105962 
L 32.395561 42.301571 
L 32.343934 42.497181 
L 32.292307 42.692791 
L 32.24068 42.8884 
L 32.189053 43.08401 
L 32.137426 43.279619 
L 32.0858 43.475229 
L 32.032913 43.682207 
L 31.980026 43.889185 
L 31.927139 44.096163 
L 31.874253 44.303142 
L 31.821366 44.51012 
L 31.768479 44.717098 
L 31.715593 44.924076 
L 31.662706 45.131054 
L 31.609819 45.338032 
L 31.556932 45.54501 
L 31.504046 45.751989 
L 31.451159 45.958967 
L 31.398272 46.165945 
L 31.345386 46.372923 
L 31.292499 46.579901 
L 31.239612 46.786879 
L 31.153019 47.113369 
L 31.066426 47.439859 
L 30.979832 47.766348 
L 30.893239 48.092838 
L 30.798007 48.349483 
" style="fill:none;stroke:#000000;stroke-linecap:square;stroke-width:0.4;"/>
   </g>
   <g id="line2d_42">
    <path clip-path="url(#p55e4b190ba)" d="M 21.1047 46.035988 
L 20.999595 46.352175 
L 20.89449 46.668362 
L 20.830059 46.864754 
L 20.765628 47.061145 
L 20.701198 47.257536 
L 20.636767 47.453927 
L 20.629876 47.656074 
L 20.622986 47.85822 
L 20.616095 48.060367 
L 20.609205 48.262513 
L 20.602315 48.46466 
L 20.595424 48.666806 
L 20.588534 48.868953 
L 20.581643 49.071099 
L 20.736113 49.225498 
L 20.890582 49.379897 
L 21.045051 49.534296 
L 21.19952 49.688694 
L 21.290587 49.96836 
L 21.381654 50.248026 
L 21.472721 50.527691 
L 21.563788 50.807357 
L 21.483777 51.079278 
L 21.403765 51.351198 
L 21.323754 51.623119 
L 21.243743 51.89504 
L 21.199598 52.115625 
L 21.155452 52.33621 
L 21.111307 52.556795 
L 21.067162 52.777379 
L 21.023017 52.997964 
L 20.978872 53.218549 
L 20.934727 53.439134 
L 20.890582 53.659719 
L 20.806045 53.855471 
L 20.721509 54.051222 
L 20.636972 54.246974 
L 20.552436 54.442726 
L 20.4679 54.638477 
L 20.383363 54.834229 
L 20.298827 55.029981 
L 20.21429 55.225733 
" style="fill:none;stroke:#008000;stroke-linecap:square;stroke-width:0.4;"/>
   </g>
   <g id="line2d_43">
    <path clip-path="url(#p55e4b190ba)" d="M 7.671631 4.558507 
L 7.936759 4.440843 
L 8.044744 4.3624 
L 8.221427 4.27401 
L 8.388237 4.529233 
L 8.447063 4.853236 
L 8.671054 5.079754 
L 8.895045 5.306272 
L 9.181461 5.534921 
L 9.467877 5.76357 
L 9.578741 6.090415 
L 9.689605 6.41726 
L 9.800469 6.744105 
L 9.911333 7.07095 
L 10.108791 7.344363 
L 10.306248 7.617776 
L 10.381477 7.842518 
L 10.456706 8.067259 
L 10.531936 8.292 
L 10.607165 8.516742 
L 10.882988 8.759531 
L 11.158811 9.00232 
L 11.434635 9.245109 
L 11.710458 9.487898 
L 11.856649 9.701342 
L 12.002839 9.914786 
L 12.149029 10.12823 
L 12.29522 10.341674 
L 12.416625 10.617574 
L 12.538031 10.893473 
L 12.659436 11.169373 
L 12.780842 11.445273 
L 12.96565 11.761318 
L 13.150457 12.077363 
L 13.335265 12.393408 
L 13.520073 12.709453 
L 13.613865 13.048235 
L 13.707657 13.387016 
L 13.966923 13.622061 
L 14.226189 13.857105 
L 14.402718 14.165973 
L 14.579247 14.474842 
L 14.755776 14.78371 
L 14.932305 15.092579 
L 15.068262 15.301973 
L 15.20422 15.511367 
L 15.340178 15.720761 
L 15.476135 15.930155 
L 15.51974 16.169036 
L 15.563346 16.407917 
L 15.499069 16.701651 
L 15.434793 16.995385 
" style="fill:none;stroke:#ff0000;stroke-linecap:square;stroke-width:0.4;"/>
   </g>
   <g id="line2d_44">
    <path clip-path="url(#p55e4b190ba)" d="M 33.745059 37.746347 
L 33.767067 37.525798 
L 33.789075 37.305248 
L 33.568478 37.305248 
L 33.347881 37.305248 
L 33.17958 37.411686 
L 33.011278 37.518124 
L 32.842977 37.624562 
L 32.674675 37.730999 
L 32.325422 37.78301 
L 31.954984 37.686662 
L 31.738449 37.558482 
L 31.521915 37.430302 
L 31.30538 37.302122 
L 31.088845 37.173942 
L 30.858787 37.027785 
L 30.628728 36.881629 
L 30.39867 36.735472 
L 30.168612 36.589316 
L 29.887132 36.355693 
L 29.605652 36.122069 
L 29.345461 36.01009 
L 29.08527 35.89811 
L 28.789701 35.908483 
L 28.494132 35.918857 
L 28.212755 35.948842 
L 27.931378 35.978826 
L 27.641465 35.924328 
L 27.351553 35.86983 
L 27.06164 35.815333 
L 26.771727 35.760835 
L 26.540023 35.6836 
L 26.308319 35.606365 
L 26.076615 35.52913 
L 25.844911 35.451895 
L 25.613156 35.451895 
L 25.381401 35.451895 
L 25.149645 35.451895 
L 24.91789 35.451895 
L 24.650346 35.370823 
L 24.382801 35.289752 
L 24.115257 35.20868 
L 23.847712 35.127608 
L 23.478714 35.101176 
" style="fill:none;stroke:#008000;stroke-linecap:square;stroke-width:0.4;"/>
   </g>
   <g id="line2d_45">
    <path clip-path="url(#p55e4b190ba)" d="M 11.019974 17.948351 
L 11.387327 17.976915 
L 11.75468 18.005478 
L 12.107738 17.939257 
L 12.460796 17.873035 
L 12.750092 17.721549 
L 13.039388 17.570064 
L 13.32025 17.513221 
L 13.601113 17.456379 
L 13.821864 17.404652 
L 14.042615 17.352925 
L 14.263366 17.301198 
L 14.484118 17.249472 
L 14.721786 17.18595 
L 14.959455 17.122428 
L 15.197124 17.058907 
L 15.434793 16.995385 
L 15.651224 16.994106 
L 15.867656 16.992827 
L 16.084088 16.991548 
L 16.30052 16.990269 
L 16.501885 16.994177 
L 16.703251 16.998085 
L 16.904616 17.001993 
L 17.105982 17.005901 
L 17.40947 16.998085 
L 17.712957 16.990269 
L 17.952066 17.12996 
L 18.191175 17.269651 
L 17.969652 17.500005 
L 17.74813 17.73036 
L 17.589341 17.959009 
L 17.430552 18.187659 
L 17.220548 18.379076 
L 17.010544 18.570494 
L 16.921071 18.840922 
L 16.831598 19.111351 
L 16.742125 19.38178 
L 16.652652 19.652209 
L 16.539731 19.838652 
L 16.42681 20.025096 
L 16.313889 20.21154 
L 16.200969 20.397984 
" style="fill:none;stroke:#008000;stroke-linecap:square;stroke-width:0.4;"/>
   </g>
   <g id="line2d_46">
    <path clip-path="url(#p55e4b190ba)" d="M 12.945801 20.496605 
L 12.973671 20.825298 
L 13.001542 21.15399 
L 13.03188 21.381858 
L 13.062219 21.609726 
L 13.092557 21.837594 
L 13.122896 22.065461 
L 13.192417 22.37774 
L 13.261938 22.69002 
L 13.33146 23.002299 
L 13.400981 23.314578 
L 13.471891 23.672615 
L 13.542801 24.030652 
L 13.613711 24.38869 
L 13.684621 24.746727 
L 13.74247 24.930826 
L 13.800318 25.114925 
L 13.858167 25.299024 
L 13.916016 25.483123 
L 13.973865 25.667222 
L 14.031714 25.851321 
L 14.089563 26.03542 
L 14.147412 26.219519 
L 14.200067 26.445717 
L 14.252722 26.671915 
L 14.305377 26.898113 
L 14.358033 27.124311 
L 14.410688 27.350509 
L 14.463343 27.576707 
L 14.515999 27.802905 
L 14.568654 28.029103 
L 14.634396 28.285819 
L 14.700138 28.542534 
L 14.76588 28.79925 
L 14.831622 29.055965 
L 14.897364 29.312681 
L 14.963106 29.569396 
L 15.028848 29.826111 
L 15.09459 30.082827 
L 15.141898 30.290622 
L 15.189205 30.498417 
L 15.236513 30.706213 
L 15.28382 30.914008 
L 15.331128 31.121803 
L 15.378435 31.329598 
L 15.425743 31.537394 
L 15.47305 31.745189 
L 15.531105 32.02187 
L 15.589159 32.298552 
L 15.647214 32.575233 
L 15.705268 32.851914 
L 15.792067 33.136696 
L 15.878866 33.421477 
L 15.965665 33.706259 
L 16.052464 33.99104 
L 16.136538 34.275182 
L 16.220611 34.559324 
L 16.304685 34.843466 
L 16.388759 35.127608 
" style="fill:none;stroke:#000000;stroke-dasharray:1.48,0.64;stroke-dashoffset:0;stroke-width:0.4;"/>
   </g>
   <g id="line2d_47">
    <path clip-path="url(#p55e4b190ba)" d="M 34.186458 37.613904 
L 34.407055 37.812569 
L 34.627652 38.011234 
L 34.569752 38.228017 
L 34.511852 38.444801 
L 34.453951 38.661584 
L 34.396051 38.878367 
L 34.509126 39.202086 
L 34.622202 39.525805 
L 34.735277 39.849523 
L 34.848352 40.173242 
L 34.903527 40.471097 
L 34.958702 40.768953 
L 35.013877 41.066808 
L 35.069052 41.364663 
L 35.055271 41.59246 
L 35.04149 41.820257 
L 35.027709 42.048053 
L 35.013928 42.27585 
L 34.840125 42.478281 
L 34.666321 42.680712 
L 34.492517 42.883142 
L 34.318714 43.085573 
L 34.161519 43.258232 
L 34.004324 43.430892 
L 33.84713 43.603551 
L 33.689935 43.776211 
L 33.56853 44.085079 
L 33.447124 44.393948 
L 33.325719 44.702816 
L 33.204313 45.011685 
L 33.110521 45.243318 
L 33.016729 45.474952 
L 32.922937 45.706586 
L 32.829144 45.938219 
L 32.735352 46.169853 
L 32.64156 46.401486 
L 32.547768 46.63312 
L 32.453975 46.864754 
L 32.310562 47.096458 
L 32.167148 47.328163 
L 32.023734 47.559868 
L 31.88032 47.791572 
L 31.74678 47.986471 
L 31.613239 48.181371 
L 31.479698 48.37627 
L 31.346157 48.571169 
" style="fill:none;stroke:#4169e1;stroke-linecap:square;stroke-width:0.4;"/>
   </g>
   <g id="line2d_48">
    <path clip-path="url(#p55e4b190ba)" d="M 4.758312 28.827742 
L 4.952067 28.914143 
L 5.204031 29.096608 
L 5.455995 29.279072 
L 5.626199 29.445337 
L 5.796403 29.611602 
L 5.877032 29.804156 
L 5.95766 29.99671 
L 5.943262 30.355671 
L 5.928864 30.714632 
L 5.93159 30.928147 
L 5.934315 31.141662 
L 5.93704 31.355177 
L 5.939765 31.568693 
L 5.935549 31.765581 
L 5.931332 31.96247 
L 5.927116 32.159358 
L 5.922899 32.356247 
L 6.038083 32.559459 
L 6.153266 32.762671 
L 6.20911 32.965884 
L 6.264953 33.169096 
L 6.455726 33.426025 
L 6.646498 33.682953 
L 6.682905 33.951677 
L 6.719311 34.2204 
L 6.642848 34.453526 
L 6.566384 34.686652 
L 6.489921 34.919777 
L 6.413458 35.152903 
L 6.485139 35.399884 
L 6.55682 35.646865 
L 6.402762 35.978684 
L 6.248704 36.310503 
L 6.134138 36.604947 
L 6.019571 36.899392 
L 5.875489 37.118307 
L 5.731407 37.337222 
L 5.587325 37.556137 
L 5.443242 37.775052 
L 5.343948 37.940536 
L 5.244654 38.106019 
L 5.145359 38.271502 
L 5.046065 38.436985 
L 4.89499 38.620586 
L 4.743914 38.804188 
" style="fill:none;stroke:#4169e1;stroke-dasharray:1.48,0.64;stroke-dashoffset:0;stroke-width:0.4;"/>
   </g>
   <g id="line2d_49">
    <path clip-path="url(#p55e4b190ba)" d="M 25.389937 30.344871 
L 25.364046 30.701914 
L 25.338156 31.058956 
L 25.312265 31.415999 
L 25.286374 31.773042 
L 25.260484 32.130084 
L 25.234593 32.487127 
L 25.208703 32.84417 
L 25.182812 33.201212 
L 25.171782 33.482548 
L 25.160752 33.763883 
L 25.149723 34.045218 
L 25.138693 34.326554 
L 25.127663 34.607889 
L 25.116633 34.889224 
L 25.105603 35.17056 
L 25.094573 35.451895 
L 25.093185 35.654042 
L 25.091797 35.856188 
L 25.090408 36.058335 
L 25.08902 36.260481 
L 25.087631 36.462628 
L 25.086243 36.664774 
L 25.084855 36.866921 
L 25.083466 37.069067 
L 25.122032 37.398044 
L 25.160598 37.72702 
L 25.190885 38.079942 
L 25.221172 38.432864 
L 25.251459 38.785785 
L 25.281747 39.138707 
L 25.261435 39.39933 
L 25.241124 39.659953 
L 25.220812 39.920577 
L 25.200501 40.1812 
L 25.159673 40.472554 
L 25.118844 40.763908 
L 25.078016 41.055262 
L 25.037187 41.346616 
L 24.996359 41.637969 
L 24.95553 41.929323 
L 24.914702 42.220677 
L 24.873874 42.512031 
L 24.860093 42.783952 
L 24.846312 43.055873 
L 24.832531 43.327794 
L 24.81875 43.599714 
L 24.890457 43.781717 
L 24.962164 43.96372 
L 25.033871 44.145723 
L 25.105577 44.327726 
L 25.177284 44.509729 
L 25.248991 44.691732 
L 25.320698 44.873735 
L 25.392405 45.055738 
L 25.406083 45.438857 
L 25.419761 45.821976 
" style="fill:none;stroke:#4169e1;stroke-linecap:square;stroke-width:0.4;"/>
   </g>
   <g id="line2d_50">
    <path clip-path="url(#p55e4b190ba)" d="M 8.091434 35.259767 
L 8.284366 35.487067 
L 8.477299 35.714366 
L 8.670231 35.941665 
L 8.863163 36.168965 
L 9.056096 36.396264 
L 9.249028 36.623563 
L 9.44196 36.850863 
L 9.634893 37.078162 
L 9.775658 37.243468 
L 9.916424 37.408773 
L 10.057189 37.574078 
L 10.197955 37.739384 
L 10.33872 37.904689 
L 10.479486 38.069995 
L 10.620252 38.2353 
L 10.761017 38.400605 
L 10.913687 38.586339 
L 11.066356 38.772072 
L 11.219026 38.957805 
L 11.371695 39.143538 
L 11.524365 39.329271 
L 11.677034 39.515005 
L 11.829704 39.700738 
L 11.982373 39.886471 
L 12.139285 40.062079 
L 12.296197 40.237687 
L 12.453109 40.413295 
L 12.610021 40.588904 
L 12.766932 40.764512 
L 12.923844 40.94012 
L 13.080756 41.115728 
L 13.237668 41.291336 
L 13.421936 41.47508 
L 13.606203 41.658824 
L 13.790471 41.842567 
L 13.974739 42.026311 
L 14.159007 42.210055 
L 14.343275 42.393798 
L 14.527543 42.577542 
L 14.711811 42.761286 
" style="fill:none;stroke:#000000;stroke-dasharray:1.48,0.64;stroke-dashoffset:0;stroke-width:0.4;"/>
   </g>
   <g id="line2d_51">
    <path clip-path="url(#p55e4b190ba)" d="M 25.160598 37.72702 
L 25.017236 37.891154 
L 24.873874 38.055287 
L 24.702949 38.227591 
L 24.532025 38.399895 
L 24.361101 38.572199 
L 24.190177 38.744503 
L 24.041107 39.024524 
L 23.892037 39.304545 
L 23.742967 39.584566 
L 23.593897 39.864587 
L 23.572197 40.135015 
L 23.550498 40.405444 
L 23.528798 40.675873 
L 23.507098 40.946302 
L 23.471566 41.228454 
L 23.436034 41.510606 
L 23.400502 41.792759 
L 23.36497 42.074911 
L 23.280999 42.363388 
L 23.197028 42.651864 
L 23.113057 42.94034 
L 23.029087 43.228816 
L 22.945784 43.471463 
L 22.862482 43.71411 
L 22.77918 43.956757 
L 22.695877 44.199404 
L 22.667647 44.465214 
L 22.639417 44.731024 
L 22.611187 44.996835 
L 22.582956 45.262645 
L 22.617614 45.523268 
L 22.652272 45.783892 
L 22.68693 46.044515 
L 22.721588 46.305138 
" style="fill:none;stroke:#4169e1;stroke-linecap:square;stroke-width:0.4;"/>
   </g>
   <g id="line2d_52">
    <path clip-path="url(#p55e4b190ba)" d="M 31.878675 55.418713 
L 31.668362 55.602599 
L 31.45805 55.786485 
L 31.345694 55.997726 
L 31.233339 56.208968 
L 31.120984 56.420209 
L 31.008628 56.63145 
L 30.951036 56.944724 
L 30.893445 57.257998 
L 30.835853 57.571272 
L 30.778261 57.884546 
L 30.654542 58.084347 
L 30.530822 58.284149 
L 30.349614 58.495817 
L 30.168406 58.707484 
L 29.987198 58.919152 
L 29.805989 59.13082 
L 29.484504 59.338011 
L 29.163019 59.545202 
L 28.970652 59.816626 
L 28.778285 60.088049 
L 28.585918 60.359473 
L 28.393552 60.630896 
L 28.256 60.927188 
L 28.118448 61.22348 
L 27.980897 61.519772 
L 27.843345 61.816064 
" style="fill:none;stroke:#4169e1;stroke-linecap:square;stroke-width:0.4;"/>
   </g>
   <g id="line2d_53">
    <path clip-path="url(#p55e4b190ba)" d="M 30.291405 54.409757 
L 30.044172 54.211092 
L 29.888469 54.031469 
L 29.874791 53.831241 
L 29.861113 53.631013 
L 29.868723 53.409185 
L 29.876333 53.187357 
L 29.883944 52.965529 
L 29.891554 52.7437 
L 29.847743 52.418276 
L 29.738525 52.113032 
L 29.549912 52.283559 
L 29.266067 52.437745 
L 28.982222 52.59193 
L 28.734269 52.673855 
L 28.486316 52.755779 
L 28.238363 52.837704 
L 27.99041 52.919628 
L 27.742611 53.0682 
L 27.494812 53.216773 
L 27.247013 53.365345 
L 26.999215 53.513918 
L 26.807156 53.715851 
L 26.615098 53.917784 
L 26.42304 54.119718 
L 26.230982 54.321651 
L 26.125363 54.64267 
L 26.019744 54.963688 
" style="fill:none;stroke:#008000;stroke-linecap:square;stroke-width:0.4;"/>
   </g>
   <g id="line2d_54">
    <path clip-path="url(#p55e4b190ba)" d="M 32.373141 54.008732 
L 32.624848 54.257845 
L 32.876555 54.506958 
L 33.128261 54.756071 
L 33.379968 55.005183 
L 33.507493 55.273907 
L 33.635017 55.54263 
L 33.924107 55.683458 
L 34.213197 55.824285 
L 34.228572 56.048103 
L 34.243947 56.271921 
L 34.259322 56.495739 
L 34.274697 56.719556 
L 34.142288 57.039438 
L 34.009878 57.35932 
L 33.877468 57.679202 
L 33.745059 57.999083 
L 33.590075 58.331897 
L 33.435092 58.66471 
L 33.280108 58.997524 
L 33.125125 59.330337 
L 33.008964 59.519907 
L 32.892804 59.709477 
L 32.776643 59.899048 
L 32.660483 60.088618 
L 32.465442 60.246285 
L 32.270402 60.403952 
L 32.075361 60.561619 
L 31.88032 60.719286 
L 31.651342 60.910633 
L 31.422363 61.101979 
L 31.193385 61.293326 
L 30.964406 61.484672 
L 30.732702 61.738332 
L 30.500998 61.991992 
L 30.269294 62.245652 
L 30.03759 62.499313 
L 29.777039 62.604613 
L 29.516488 62.709914 
L 29.255937 62.815215 
L 28.995385 62.920516 
L 28.788055 63.160392 
L 28.580725 63.400268 
L 28.373395 63.640144 
L 28.166064 63.880019 
L 27.805499 63.932741 
L 27.444933 63.985463 
L 27.222537 64.021771 
L 27.00014 64.058079 
L 26.777743 64.094387 
L 26.555347 64.130695 
" style="fill:none;stroke:#4169e1;stroke-linecap:square;stroke-width:0.4;"/>
   </g>
   <g id="line2d_55">
    <path clip-path="url(#p55e4b190ba)" d="M 32.373141 54.008732 
L 32.220523 54.305309 
L 32.067905 54.601885 
L 32.020597 54.806092 
L 31.97329 55.010299 
L 31.925982 55.214506 
L 31.878675 55.418713 
L 31.948042 55.743924 
L 32.017409 56.069135 
L 32.086777 56.394346 
L 32.156144 56.719556 
L 32.121666 56.927209 
L 32.087188 57.134863 
L 32.05271 57.342516 
L 32.018232 57.550169 
L 31.983754 57.757822 
L 31.949276 57.965475 
L 31.914798 58.173128 
L 31.88032 58.380782 
L 31.747911 58.667552 
L 31.615501 58.954323 
L 31.483092 59.241094 
L 31.350682 59.527865 
L 31.099644 59.77442 
L 30.848605 60.020975 
L 30.597567 60.26753 
L 30.346529 60.514085 
L 30.157582 60.600379 
L 29.968635 60.686673 
L 29.779687 60.772967 
L 29.59074 60.859261 
L 29.401793 60.945555 
L 29.212846 61.03185 
L 29.023899 61.118144 
L 28.834951 61.204438 
L 28.58705 61.357345 
L 28.339148 61.510251 
L 28.091247 61.663158 
L 27.843345 61.816064 
L 27.718443 61.994408 
L 27.593541 62.172752 
L 27.468639 62.351095 
L 27.343737 62.529439 
L 27.176206 62.744162 
L 27.008676 62.958885 
L 26.841146 63.173608 
L 26.673616 63.388331 
L 26.415635 63.588559 
L 26.157655 63.788787 
L 25.899675 63.989015 
L 25.641695 64.189243 
" style="fill:none;stroke:#4169e1;stroke-linecap:square;stroke-width:0.4;"/>
   </g>
   <g id="line2d_56">
    <path clip-path="url(#p55e4b190ba)" d="M 32.129816 53.828257 
L 31.924543 53.807652 
L 31.719269 53.787046 
L 31.486023 53.864921 
L 31.252776 53.942795 
L 31.01953 54.020669 
L 30.786283 54.098544 
L 30.538844 54.25415 
L 30.291405 54.409757 
L 30.164498 54.571901 
L 30.03759 54.734044 
L 29.82409 54.941378 
L 29.610589 55.148711 
L 29.403875 55.396971 
L 29.197162 55.645231 
L 29.032152 55.891786 
L 28.867141 56.138341 
L 28.70213 56.384895 
L 28.53712 56.63145 
L 28.40471 56.907208 
L 28.272301 57.182966 
L 28.139891 57.458723 
L 28.007481 57.734481 
L 27.87502 58.043279 
L 27.742559 58.352076 
L 27.706719 58.579873 
L 27.670878 58.807669 
L 27.635038 59.035466 
L 27.599197 59.263263 
L 27.483139 59.423133 
L 27.367082 59.583003 
L 27.251024 59.742872 
L 27.134967 59.902742 
L 27.018909 60.062612 
L 26.902851 60.222482 
L 26.786794 60.382352 
L 26.670736 60.542222 
L 26.537221 60.790571 
L 26.403706 61.038919 
L 26.270191 61.287268 
L 26.136675 61.535617 
L 26.00316 61.783966 
L 25.869645 62.032315 
L 25.73613 62.280664 
L 25.602615 62.529013 
L 25.4691 62.777362 
L 25.335585 63.025711 
L 25.202069 63.27406 
L 25.068554 63.522408 
L 24.935039 63.770757 
L 24.801524 64.019106 
L 24.668009 64.267455 
L 24.534494 64.515804 
" style="fill:none;stroke:#4169e1;stroke-linecap:square;stroke-width:0.4;"/>
   </g>
   <g id="line2d_57">
    <path clip-path="url(#p55e4b190ba)" d="M 29.066758 65.19081 
L 28.890178 65.03634 
L 28.713597 64.88187 
L 28.360539 64.837817 
L 28.007481 64.793764 
L 27.825965 64.710881 
L 27.644448 64.627997 
L 27.462931 64.545113 
L 27.281414 64.46223 
L 27.099897 64.379346 
L 26.91838 64.296463 
L 26.736864 64.213579 
L 26.555347 64.130695 
L 26.323797 64.20587 
L 26.092247 64.281044 
L 25.860698 64.356218 
L 25.629148 64.431393 
" style="fill:none;stroke:#008000;stroke-linecap:square;stroke-width:0.4;"/>
   </g>
   <g id="line2d_58">
    <path clip-path="url(#p55e4b190ba)" d="M 29.375697 65.278916 
L 29.121882 65.367164 
L 28.868067 65.455412 
L 28.614252 65.54366 
L 28.360437 65.631909 
L 28.148067 65.738346 
L 27.935697 65.844784 
L 27.723328 65.951222 
L 27.510958 66.05766 
L 27.290259 66.234156 
L 27.069559 66.410652 
L 26.848859 66.587149 
L 26.628159 66.763645 
L 26.440575 66.807769 
L 26.25299 66.851893 
L 26.065406 66.896017 
L 25.877821 66.940141 
" style="fill:none;stroke:#008000;stroke-linecap:square;stroke-width:0.4;"/>
   </g>
   <g id="line2d_59">
    <path clip-path="url(#p55e4b190ba)" d="M 29.552174 65.808405 
L 29.496999 66.017941 
L 29.441824 66.227477 
L 29.386649 66.437013 
L 29.331474 66.646549 
L 29.088715 66.812032 
L 28.845955 66.977515 
L 28.603196 67.142998 
L 28.360437 67.308481 
L 28.137011 67.370795 
L 27.913586 67.433109 
L 27.690161 67.495422 
L 27.466736 67.557736 
L 27.160574 67.561573 
L 26.854412 67.56541 
L 26.548251 67.569247 
L 26.242089 67.573084 
" style="fill:none;stroke:#008000;stroke-linecap:square;stroke-width:0.4;"/>
   </g>
   <g id="line2d_60">
    <path clip-path="url(#p55e4b190ba)" d="M 31.582283 54.381336 
L 31.361635 54.646009 
L 31.140986 54.910683 
L 30.920338 55.175356 
L 30.69969 55.440029 
L 30.54936 55.691806 
L 30.39903 55.943584 
L 30.2487 56.195361 
L 30.09837 56.447138 
L 29.94804 56.698915 
L 29.79771 56.950693 
L 29.647381 57.20247 
L 29.497051 57.454247 
L 29.370143 57.658312 
L 29.243236 57.862377 
L 29.116328 58.066442 
L 28.989421 58.270507 
L 28.862513 58.474572 
L 28.735606 58.678637 
L 28.608698 58.882702 
L 28.481791 59.086767 
L 28.305262 59.340462 
L 28.128733 59.594158 
L 27.952204 59.847854 
L 27.775675 60.101549 
L 27.599146 60.355245 
L 27.422617 60.608941 
L 27.246088 60.862636 
L 27.069559 61.116332 
L 26.953707 61.287286 
L 26.837855 61.45824 
L 26.722003 61.629194 
L 26.606151 61.800149 
L 26.490299 61.971103 
L 26.374447 62.142057 
L 26.258595 62.313011 
L 26.142743 62.483965 
L 26.080112 62.697125 
L 26.017481 62.910285 
L 25.95485 63.123444 
L 25.892219 63.336604 
L 25.829588 63.549764 
L 25.766957 63.762924 
L 25.704326 63.976083 
L 25.641695 64.189243 
" style="fill:none;stroke:#4169e1;stroke-linecap:square;stroke-width:0.4;"/>
   </g>
   <g id="line2d_61">
    <path clip-path="url(#p55e4b190ba)" d="M 15.519123 35.96291 
L 15.809807 35.887594 
L 16.100491 35.812277 
L 16.391176 35.736961 
L 16.68186 35.661644 
L 16.953929 35.629244 
L 17.225999 35.596844 
L 17.498068 35.564444 
L 17.770138 35.532043 
L 18.047555 35.554318 
L 18.324973 35.576594 
L 18.60239 35.598869 
L 18.879807 35.621144 
L 19.157225 35.643419 
L 19.434642 35.665694 
L 19.712059 35.68797 
L 19.989477 35.710245 
L 20.200715 35.677773 
L 20.411953 35.645302 
L 20.623192 35.612831 
L 20.83443 35.580359 
L 21.029933 35.701576 
L 21.225437 35.822793 
L 21.42094 35.94401 
L 21.616443 36.065227 
L 21.875401 36.345035 
L 22.134358 36.624842 
L 22.393315 36.90465 
L 22.652272 37.184458 
" style="fill:none;stroke:#008000;stroke-linecap:square;stroke-width:0.4;"/>
   </g>
   <g id="line2d_62">
    <path clip-path="url(#p55e4b190ba)" d="M 31.954984 37.686662 
L 31.723126 37.950625 
L 31.491268 38.214588 
L 31.259409 38.478551 
L 31.027551 38.742514 
L 30.927177 38.915741 
L 30.826803 39.088969 
L 30.726429 39.262197 
L 30.626055 39.435425 
L 30.524703 39.610358 
L 30.423352 39.785291 
L 30.322001 39.960224 
L 30.22065 40.135158 
L 30.102998 40.447223 
L 29.985346 40.759289 
L 29.867695 41.071355 
L 29.750043 41.383421 
L 29.607863 41.664508 
L 29.465684 41.945595 
L 29.323504 42.226681 
L 29.181325 42.507768 
L 29.147875 42.72512 
L 29.114426 42.942472 
L 29.080976 43.159824 
L 29.047527 43.377176 
L 29.014077 43.594527 
L 28.980628 43.811879 
L 28.947178 44.029231 
L 28.913729 44.246583 
L 28.888661 44.463971 
L 28.863593 44.681358 
L 28.838525 44.898746 
L 28.813457 45.116133 
L 28.788389 45.33352 
L 28.763322 45.550908 
L 28.738254 45.768295 
L 28.713186 45.985683 
L 28.575274 46.143066 
L 28.437363 46.300449 
L 28.299451 46.457832 
L 28.161539 46.615215 
" style="fill:none;stroke:#000000;stroke-linecap:square;stroke-width:0.4;"/>
   </g>
   <g id="line2d_63">
    <path clip-path="url(#p55e4b190ba)" d="M 4.758312 28.827742 
L 4.609602 29.078844 
L 4.460892 29.329946 
L 4.312182 29.581049 
L 4.163472 29.832151 
L 4.102769 30.036251 
L 4.042066 30.240352 
L 3.981363 30.444452 
L 3.920661 30.648553 
L 3.859958 30.852653 
L 3.799255 31.056754 
L 3.738553 31.260854 
L 3.67785 31.464955 
L 3.65579 31.751797 
L 3.63373 32.038639 
L 3.611671 32.325481 
L 3.589611 32.612323 
L 3.589611 32.810846 
L 3.589611 33.009368 
L 3.589611 33.207891 
L 3.589611 33.406414 
L 3.688905 33.671229 
L 3.7882 33.936045 
L 3.887494 34.20086 
L 3.986788 34.465676 
L 4.001289 34.83899 
L 4.01579 35.212304 
L 3.889962 35.459711 
L 3.764135 35.707118 
L 3.638307 35.954526 
L 3.512479 36.201933 
L 3.656356 36.496236 
L 3.800232 36.790539 
L 3.915416 36.977764 
L 4.030599 37.164989 
L 4.145783 37.352215 
L 4.260966 37.53944 
L 4.403094 37.817684 
L 4.545223 38.095929 
L 4.644568 38.450058 
L 4.743914 38.804188 
L 4.758466 39.057848 
L 4.773018 39.311508 
L 4.787571 39.565168 
L 4.802123 39.818828 
L 4.877712 40.160026 
L 4.953301 40.501224 
L 5.097641 40.718789 
L 5.24198 40.936354 
L 5.386319 41.153919 
L 5.530658 41.371484 
L 5.691093 41.69904 
L 5.851527 42.026595 
L 6.034021 42.160673 
L 6.216514 42.29475 
L 6.399008 42.428828 
L 6.581502 42.562905 
L 6.763996 42.696983 
L 6.94649 42.83106 
L 7.128984 42.965138 
L 7.311477 43.099215 
L 7.473351 43.378739 
L 7.635225 43.658262 
L 7.797099 43.937786 
L 7.958973 44.217309 
L 8.226775 44.475375 
L 8.494576 44.73344 
L 8.713785 44.891249 
L 8.932993 45.049059 
L 9.152202 45.206868 
L 9.371411 45.364677 
L 9.600955 45.498826 
L 9.830499 45.632974 
L 10.055827 45.887913 
L 10.281154 46.142853 
" style="fill:none;stroke:#4169e1;stroke-dasharray:1.48,0.64;stroke-dashoffset:0;stroke-width:0.4;"/>
   </g>
   <g id="line2d_64">
    <path clip-path="url(#p55e4b190ba)" d="M 28.240728 35.539717 
L 28.36743 35.729287 
L 28.494132 35.918857 
L 28.617285 36.142604 
L 28.740439 36.366351 
L 28.863593 36.590097 
L 28.986747 36.813844 
L 29.058942 37.012722 
L 29.131137 37.2116 
L 29.203333 37.410478 
L 29.275528 37.609356 
L 29.385878 37.892859 
L 29.496228 38.176361 
L 29.650492 38.378579 
L 29.804755 38.580796 
L 30.01008 38.794454 
L 30.215405 39.008111 
L 30.42073 39.221768 
L 30.626055 39.435425 
L 30.785769 39.555789 
L 30.945483 39.676153 
L 31.105197 39.796518 
L 31.264911 39.916882 
" style="fill:none;stroke:#008000;stroke-linecap:square;stroke-width:0.4;"/>
   </g>
   <g id="line2d_65">
    <path clip-path="url(#p55e4b190ba)" d="M 17.740725 60.963141 
L 17.969755 61.081232 
L 18.198785 61.199322 
L 18.374645 61.289986 
L 18.550506 61.38065 
L 18.752643 61.603615 
L 18.954779 61.82658 
L 19.156916 62.049545 
L 19.359053 62.272511 
L 19.513008 62.516721 
L 19.666963 62.760931 
L 19.820918 63.005141 
L 19.974873 63.249351 
L 20.140347 63.43686 
L 20.30582 63.62437 
L 20.471293 63.811879 
L 20.636767 63.999389 
L 20.788511 64.260297 
L 20.940255 64.521204 
L 21.091999 64.782112 
L 21.243743 65.043019 
L 21.320977 65.252555 
L 21.398212 65.462091 
L 21.475447 65.671627 
L 21.552681 65.881163 
" style="fill:none;stroke:#008000;stroke-linecap:square;stroke-width:0.4;"/>
   </g>
   <g id="line2d_66">
    <path clip-path="url(#p55e4b190ba)" d="M 20.437047 56.309721 
L 20.24828 56.594147 
L 20.059512 56.878574 
L 19.870745 57.163 
L 19.681978 57.447426 
L 19.493211 57.731852 
L 19.304444 58.016278 
L 19.115676 58.300704 
L 18.926909 58.585131 
L 18.899502 58.845967 
L 18.872094 59.106804 
L 18.844687 59.36764 
L 18.817279 59.628477 
L 18.789872 59.889313 
L 18.762464 60.15015 
L 18.735057 60.410986 
L 18.707649 60.671823 
L 18.453217 60.935572 
L 18.198785 61.199322 
" style="fill:none;stroke:#008000;stroke-linecap:square;stroke-width:0.4;"/>
   </g>
   <g id="line2d_67">
    <path clip-path="url(#p55e4b190ba)" d="M 25.419761 45.821976 
L 25.428194 46.056594 
L 25.436627 46.291212 
L 25.392456 46.622178 
L 25.348286 46.953144 
L 25.304115 47.28411 
L 25.259944 47.615076 
L 25.259944 47.968069 
L 25.259944 48.321061 
L 25.259944 48.674054 
L 25.259944 49.027046 
L 25.22688 49.335844 
L 25.193816 49.644641 
L 25.160752 49.953439 
L 25.127689 50.262236 
L 25.050557 50.633561 
L 24.973425 51.004885 
" style="fill:none;stroke:#008000;stroke-linecap:square;stroke-width:0.4;"/>
   </g>
   <g id="line2d_68">
    <path clip-path="url(#p55e4b190ba)" d="M 15.385223 54.694538 
L 15.524163 54.408194 
L 15.663103 54.121849 
L 15.736327 53.935761 
L 15.80955 53.749672 
L 15.882774 53.563584 
L 15.955998 53.377495 
L 16.030764 53.132575 
L 16.105531 52.887654 
L 16.180297 52.642734 
L 16.255064 52.397813 
L 16.331373 52.184653 
L 16.407682 51.971493 
L 16.569967 51.747534 
L 16.732252 51.523574 
L 16.974138 51.22714 
L 17.136217 51.077075 
L 17.320048 50.982574 
L 17.503879 50.888073 
L 17.68771 50.793573 
L 17.87154 50.699072 
L 18.148392 50.613097 
L 18.425244 50.527123 
L 18.802778 50.556965 
L 19.180313 50.586808 
" style="fill:none;stroke:#008000;stroke-linecap:square;stroke-width:0.4;"/>
   </g>
   <g id="line2d_69">
    <path clip-path="url(#p55e4b190ba)" d="M 15.385223 54.694538 
L 15.326448 54.946493 
L 15.267674 55.198448 
L 15.208899 55.450403 
L 15.150125 55.702358 
L 14.994216 55.86777 
L 14.838307 56.033182 
L 14.682398 56.198594 
L 14.526489 56.364006 
L 14.386417 56.54846 
L 14.354536 56.764746 
L 14.322655 56.981032 
L 14.185875 57.187797 
L 14.049094 57.394562 
L 13.883621 57.588609 
L 13.718147 57.782655 
L 13.552674 57.976702 
L 13.387201 58.170748 
L 13.198588 58.341844 
L 13.009975 58.512941 
L 12.749578 58.676079 
L 12.489181 58.839217 
L 12.223847 58.915386 
L 12.092415 59.13963 
L 12.058888 59.436065 
L 12.254289 59.58954 
L 12.477045 59.767741 
L 12.731683 59.904448 
L 12.986321 60.041154 
L 13.148606 60.267103 
L 13.310891 60.493053 
L 13.417488 60.675944 
L 13.524084 60.858835 
L 13.63068 61.041726 
L 13.737276 61.224617 
L 13.794559 61.428256 
L 13.851842 61.631894 
L 14.109566 61.851307 
L 14.367289 62.070719 
L 14.529574 62.236131 
L 14.691859 62.401543 
L 14.777733 62.621098 
L 14.863606 62.840652 
L 15.04502 63.012459 
L 15.226434 63.184266 
L 15.28382 63.362183 
L 15.210596 63.553032 
L 15.137372 63.743881 
L 15.111868 64.0811 
L 15.086363 64.418319 
L 15.070473 64.613929 
L 15.054584 64.809538 
L 15.038695 65.005148 
L 15.022806 65.200757 
L 14.955753 65.38848 
L 14.8887 65.576203 
L 14.821646 65.763926 
L 14.754593 65.951648 
L 14.503092 66.216464 
L 14.251591 66.481279 
L 14.00009 66.746095 
L 13.748589 67.01091 
L 13.587589 67.171846 
L 13.426589 67.332781 
L 13.265589 67.493717 
L 13.10459 67.654653 
L 12.876691 67.936024 
L 12.816322 68.123746 
L 12.755954 68.311469 
L 12.930272 68.392043 
L 13.10459 68.472618 
L 13.349406 68.536282 
L 13.594222 68.599945 
L 13.839039 68.663609 
L 14.083855 68.727273 
L 14.419327 68.700557 
L 14.754593 68.606482 
L 15.022857 68.378543 
L 15.291122 68.150604 
L 15.559386 67.922666 
L 15.827651 67.694727 
L 16.156335 67.507004 
L 16.485019 67.319281 
L 16.780177 67.212133 
L 17.03502 67.191954 
L 17.289864 67.171775 
L 17.538023 67.185275 
L 17.786181 67.198775 
L 17.987341 67.319423 
L 18.188501 67.440072 
L 18.480625 67.583102 
L 18.772748 67.726132 
L 19.064872 67.869163 
L 19.356996 68.012193 
" style="fill:none;stroke:#4169e1;stroke-linecap:square;stroke-width:0.4;"/>
   </g>
   <g id="line2d_70">
    <path clip-path="url(#p55e4b190ba)" d="M 2.756382 7.949453 
L 2.625464 8.09028 
L 2.494545 8.231108 
L 2.369386 8.395525 
L 2.244227 8.559942 
L 2.119068 8.72436 
L 1.993908 8.888777 
L 1.91292 9.188195 
L 1.831932 9.487614 
L 1.750943 9.787032 
L 1.669955 10.08645 
L 1.746881 10.44058 
" style="fill:none;stroke:#000000;stroke-dasharray:1.48,0.64;stroke-dashoffset:0;stroke-width:0.4;"/>
   </g>
   <g id="line2d_71">
    <path clip-path="url(#p55e4b190ba)" d="M 7.205755 4.343926 
L 7.140348 4.069519 
L 7.07494 3.795111 
L 6.961608 3.55893 
L 6.80611 3.357991 
L 6.633129 3.280969 
L 6.365944 3.272727 
L 6.229781 3.346907 
L 6.026873 3.576835 
L 5.823965 3.806764 
L 5.638026 4.134745 
L 5.452087 4.462727 
L 5.299983 4.746656 
L 5.147879 5.030585 
L 5.059229 5.229818 
L 4.970579 5.429052 
" style="fill:none;stroke:#008000;stroke-linecap:square;stroke-width:0.4;"/>
   </g>
   <g id="line2d_72">
    <path clip-path="url(#p55e4b190ba)" d="M 7.374623 5.236924 
L 7.699605 5.327303 
L 7.900559 5.382725 
L 8.101513 5.438146 
L 8.325812 5.411288 
L 8.550111 5.38443 
L 8.895045 5.306272 
" style="fill:none;stroke:#008000;stroke-linecap:square;stroke-width:0.4;"/>
   </g>
   <g id="line2d_73">
    <path clip-path="url(#p55e4b190ba)" d="M 5.835278 5.09567 
L 5.58208 5.197702 
L 5.328882 5.299735 
L 4.970579 5.429052 
L 4.779806 5.525968 
L 4.589033 5.622885 
L 4.32694 5.754404 
L 4.064846 5.885924 
L 3.802752 6.017444 
L 3.540658 6.148963 
L 3.37683 6.286522 
L 3.213002 6.424081 
L 3.080953 6.659126 
L 3.144201 6.862906 
L 3.207449 7.066687 
L 3.447894 7.315373 
L 3.692248 7.55667 
L 3.936601 7.797967 
" style="fill:none;stroke:#008000;stroke-linecap:square;stroke-width:0.4;"/>
   </g>
   <g id="line2d_74">
    <path clip-path="url(#p55e4b190ba)" d="M 5.055938 6.212058 
L 4.852413 6.30528 
L 4.648888 6.398502 
L 4.468965 6.466358 
L 4.289042 6.534214 
L 4.109119 6.60207 
L 3.929197 6.669926 
L 3.77555 6.841022 
L 3.491499 6.953854 
L 3.207449 7.066687 
" style="fill:none;stroke:#008000;stroke-linecap:square;stroke-width:0.4;"/>
   </g>
   <g id="line2d_75">
    <path clip-path="url(#p55e4b190ba)" d="M 3.726186 9.842027 
L 3.423829 10.040124 
L 3.121472 10.23822 
L 2.866115 10.396527 
L 2.610757 10.554834 
L 2.355399 10.71314 
L 2.100042 10.871447 
L 1.911634 11.036006 
L 1.922124 11.238082 
L 2.187252 11.454368 
L 2.45238 11.670654 
L 2.589032 11.817059 
L 2.725683 11.963464 
L 2.862335 12.10987 
L 2.998987 12.256275 
L 3.135639 12.40268 
L 3.272291 12.549085 
L 3.408943 12.695491 
L 3.545594 12.841896 
" style="fill:none;stroke:#008000;stroke-linecap:square;stroke-width:0.4;"/>
   </g>
  </g>
 </g>
 <defs>
  <clipPath id="p55e4b190ba">
   <rect height="72" width="36.739007" x="0" y="0"/>
  </clipPath>
 </defs>
</svg>
