<?xml version="1.0" encoding="utf-8" standalone="no"?>
<!DOCTYPE svg PUBLIC "-//W3C//DTD SVG 1.1//EN"
  "http://www.w3.org/Graphics/SVG/1.1/DTD/svg11.dtd">
<svg xmlns:xlink="http://www.w3.org/1999/xlink" width="72pt" height="110.820597pt" viewBox="0 0 72 110.820597" xmlns="http://www.w3.org/2000/svg" version="1.1">
 <metadata>
  <rdf:RDF xmlns:dc="http://purl.org/dc/elements/1.1/" xmlns:cc="http://creativecommons.org/ns#" xmlns:rdf="http://www.w3.org/1999/02/22-rdf-syntax-ns#">
   <cc:Work>
    <dc:type rdf:resource="http://purl.org/dc/dcmitype/StillImage"/>
    <dc:date>2022-05-17T17:40:26.707856</dc:date>
    <dc:format>image/svg+xml</dc:format>
    <dc:creator>
     <cc:Agent>
      <dc:title>Matplotlib v3.5.2, https://matplotlib.org/</dc:title>
     </cc:Agent>
    </dc:creator>
   </cc:Work>
  </rdf:RDF>
 </metadata>
 <defs>
  <style type="text/css">*{stroke-linejoin: round; stroke-linecap: butt}</style>
 </defs>
 <g id="figure_1">
  <g id="patch_1">
   <path d="M 0 110.820597 
L 72 110.820597 
L 72 0 
L 0 0 
z
" style="fill: #ffffff"/>
  </g>
  <g id="axes_1">
   <g id="line2d_1">
    <path d="M 61.662485 16.548928 
L 58.333734 13.779878 
" clip-path="url(#p7605222112)" style="fill: none; stroke: #808080; stroke-width: 0.4; stroke-linecap: square"/>
   </g>
   <g id="line2d_2">
    <path d="M 61.461419 16.705429 
L 56.77161 12.774614 
L 52.081801 8.843798 
" clip-path="url(#p7605222112)" style="fill: none; stroke: #808080; stroke-width: 0.4; stroke-linecap: square"/>
   </g>
   <g id="line2d_3">
    <path d="M 58.605259 27.021847 
L 54.119952 24.232603 
L 49.83657 21.567675 
L 45.553188 18.902748 
L 40.397663 15.695748 
L 35.242138 12.488748 
L 31.877299 10.395552 
L 28.512459 8.302357 
" clip-path="url(#p7605222112)" style="fill: none; stroke: #808080; stroke-width: 0.4; stroke-linecap: square"/>
   </g>
   <g id="line2d_4">
    <path d="M 68.625881 45.674447 
L 63.069943 42.438418 
L 58.251246 39.632136 
L 53.432549 36.825853 
L 48.263275 33.815109 
L 43.094002 30.804366 
L 38.019247 27.848524 
L 33.705791 25.336311 
L 29.392335 22.824098 
" clip-path="url(#p7605222112)" style="fill: none; stroke: #808080; stroke-width: 0.4; stroke-linecap: square"/>
   </g>
   <g id="line2d_5">
    <path d="M 57.768345 63.451148 
L 54.217907 58.925251 
L 51.332531 55.244963 
L 48.155009 51.196141 
L 45.11325 47.317703 
L 42.07149 43.439265 
L 38.374979 38.72784 
L 34.795326 34.162818 
L 32.791545 31.608325 
L 31.320502 29.732842 
L 29.808214 27.805613 
" clip-path="url(#p7605222112)" style="fill: none; stroke: #808080; stroke-width: 0.4; stroke-linecap: square"/>
   </g>
   <g id="line2d_6">
    <path d="M 46.467434 84.578728 
L 44.312425 78.811082 
L 42.157415 73.043435 
L 40.002406 67.275789 
L 37.847396 61.508142 
L 35.692387 55.740496 
L 33.537378 49.972849 
L 31.382368 44.205203 
L 29.227359 38.437556 
" clip-path="url(#p7605222112)" style="fill: none; stroke: #808080; stroke-width: 0.4; stroke-linecap: square"/>
   </g>
   <g id="line2d_7">
    <path d="M 29.682763 103.04075 
L 29.596838 99.872875 
L 29.531535 97.522842 
L 29.364839 91.385242 
L 29.230796 86.460522 
L 29.04176 79.539157 
L 28.863035 73.002733 
L 28.746176 68.717267 
L 28.629318 64.431801 
L 28.443719 57.572279 
L 28.27015 51.227694 
L 28.089706 44.585253 
L 27.941055 39.158847 
L 27.792404 33.732442 
L 27.680701 29.615466 
" clip-path="url(#p7605222112)" style="fill: none; stroke: #808080; stroke-width: 0.4; stroke-linecap: square"/>
   </g>
   <g id="line2d_8">
    <path d="M 19.522942 103.758886 
L 19.727445 100.240147 
L 20.012717 95.300281 
L 20.258464 91.040689 
L 20.633098 84.591349 
L 20.933837 79.376346 
L 21.329094 72.557211 
L 21.676233 66.55718 
L 21.928854 62.189677 
L 22.181474 57.822175 
L 22.518302 52.016507 
L 22.849974 46.302973 
L 23.219454 39.897808 
L 23.62674 32.861592 
L 23.832961 29.307513 
" clip-path="url(#p7605222112)" style="fill: none; stroke: #808080; stroke-width: 0.4; stroke-linecap: square"/>
   </g>
   <g id="line2d_9">
    <path d="M 40.041932 78.438604 
L 37.743427 74.717929 
L 35.444922 70.997253 
L 33.146417 67.276578 
L 30.847912 63.555902 
" clip-path="url(#p7605222112)" style="fill: none; stroke: #808080; stroke-width: 0.4; stroke-linecap: square"/>
   </g>
   <g id="line2d_10">
    <path d="M 60.229249 21.322197 
L 55.484018 18.281163 
L 50.738787 15.240129 
L 45.993556 12.199095 
L 41.248324 9.158062 
" clip-path="url(#p7605222112)" style="fill: none; stroke: #808080; stroke-width: 0.4; stroke-linecap: square"/>
   </g>
   <g id="line2d_11">
    <path d="M 41.043822 9.443297 
L 45.799364 12.494743 
L 50.554906 15.546189 
L 55.310449 18.597635 
L 60.065991 21.649081 
" clip-path="url(#p7605222112)" style="fill: none; stroke: #808080; stroke-width: 0.4; stroke-linecap: square"/>
   </g>
   <g id="line2d_12">
    <path d="M 6.445094 100.507713 
L 6.044681 96.610974 
L 5.644269 92.714235 
L 5.120124 85.782773 
L 4.597697 78.913154 
L 3.935212 71.642187 
L 3.272727 64.37122 
" clip-path="url(#p7605222112)" style="fill: none; stroke: #808080; stroke-width: 0.4; stroke-linecap: square"/>
   </g>
   <g id="line2d_13">
    <path d="M 53.360371 8.250611 
L 54.642164 9.287743 
L 55.923956 10.324874 
L 57.205748 11.362006 
L 58.487541 12.399138 
L 59.769333 13.43627 
L 61.051126 14.473402 
L 62.332918 15.510534 
L 63.61471 16.547666 
" clip-path="url(#p7605222112)" style="fill: none; stroke: #008000; stroke-width: 0.4; stroke-linecap: square"/>
   </g>
   <g id="line2d_14">
    <path d="M 37.321533 10.627148 
L 38.754124 11.483878 
L 40.186716 12.340608 
L 41.619307 13.197339 
L 43.051899 14.054069 
L 44.48449 14.910799 
L 45.917082 15.76753 
L 47.349673 16.62426 
L 48.782265 17.480991 
L 50.214857 18.337721 
L 51.647448 19.194451 
L 53.08004 20.051182 
L 54.512631 20.907912 
L 55.945223 21.764642 
L 57.377814 22.621373 
L 58.810406 23.478103 
L 60.242997 24.334833 
" clip-path="url(#p7605222112)" style="fill: none; stroke: #008000; stroke-width: 0.4; stroke-linecap: square"/>
   </g>
   <g id="line2d_15">
    <path d="M 42.250215 6.107562 
L 43.46853 6.966895 
L 44.686845 7.826229 
L 45.90516 8.685562 
L 47.123475 9.544896 
L 48.34179 10.404229 
L 49.560105 11.263563 
L 50.77842 12.122896 
L 51.996735 12.982229 
L 53.21505 13.841563 
L 54.433365 14.700896 
L 55.65168 15.56023 
L 56.869995 16.419563 
L 58.08831 17.278896 
L 59.306625 18.13823 
L 60.52494 18.997563 
L 61.743255 19.856897 
" clip-path="url(#p7605222112)" style="fill: none; stroke: #008000; stroke-width: 0.4; stroke-linecap: square"/>
   </g>
   <g id="line2d_16">
    <path d="M 25.920949 24.575895 
L 25.436329 22.537285 
L 24.95171 20.498675 
L 24.467091 18.460066 
L 23.982471 16.421456 
L 23.619007 14.161032 
L 23.255542 11.900608 
L 23.538237 10.689622 
L 23.820931 9.478635 
L 24.669015 8.590116 
L 25.517099 7.701596 
L 27.131638 6.652159 
L 28.746176 5.602721 
L 30.885719 5.320011 
L 33.025262 5.0373 
L 34.55946 5.0373 
L 36.093659 5.0373 
L 37.627857 5.0373 
L 39.162055 5.0373 
L 40.706135 5.572431 
L 42.250215 6.107562 
" clip-path="url(#p7605222112)" style="fill: none; stroke: #008000; stroke-width: 0.4; stroke-linecap: square"/>
   </g>
   <g id="line2d_17">
    <path d="M 26.891906 10.237158 
L 28.011944 10.921375 
L 29.131981 11.605592 
L 30.252019 12.289809 
L 31.372057 12.974026 
L 32.492095 13.658243 
L 33.612133 14.342459 
L 34.73217 15.026676 
L 35.852208 15.710893 
L 36.972246 16.39511 
L 38.092284 17.079327 
L 39.212322 17.763543 
L 40.33236 18.44776 
L 41.452397 19.131977 
L 42.572435 19.816194 
L 43.692473 20.500411 
L 44.812511 21.184628 
L 46.528226 22.24432 
L 48.243942 23.304012 
L 49.959658 24.363704 
L 51.675374 25.423396 
L 53.39109 26.483088 
L 55.106805 27.54278 
L 56.822521 28.602472 
L 58.538237 29.662164 
" clip-path="url(#p7605222112)" style="fill: none; stroke: #008000; stroke-width: 0.4; stroke-linecap: square"/>
   </g>
   <g id="line2d_18">
    <path d="M 34.972332 25.617128 
L 34.972332 25.617128 
L 36.49579 24.454733 
L 38.019247 23.292337 
L 39.542705 22.129942 
L 41.066163 20.967546 
L 42.099845 21.80432 
L 43.133528 22.641093 
L 44.167211 23.477866 
L 45.200894 24.31464 
L 46.234576 25.151413 
L 47.268259 25.988186 
L 48.301942 26.82496 
L 49.335625 27.661733 
L 50.172538 28.720005 
L 51.009452 29.778277 
L 51.846365 30.83655 
L 52.683279 31.894822 
L 53.130521 33.128842 
L 53.577763 34.362861 
L 54.025004 35.596881 
L 54.472246 36.830901 
" clip-path="url(#p7605222112)" style="fill: none; stroke: #ff0000; stroke-width: 0.4; stroke-linecap: square"/>
   </g>
   <g id="line2d_19">
    <path d="M 28.565733 24.216196 
L 29.691571 24.973614 
L 30.817408 25.731033 
L 31.943246 26.488452 
L 33.069084 27.245871 
L 34.194922 28.003289 
L 35.32076 28.760708 
L 36.446597 29.518127 
L 37.572435 30.275545 
L 38.698273 31.032964 
L 39.824111 31.790383 
L 40.949948 32.547802 
L 42.075786 33.30522 
L 43.201624 34.062639 
L 44.327462 34.820058 
L 45.4533 35.577476 
L 46.579137 36.334895 
L 47.994114 37.171668 
L 49.409091 38.008442 
L 50.824068 38.845215 
L 52.239045 39.681989 
L 53.654021 40.518762 
L 55.068998 41.355535 
L 56.483975 42.192309 
L 57.898952 43.029082 
L 59.252492 43.642937 
L 60.606032 44.256791 
L 61.959572 44.870646 
L 63.313112 45.484501 
L 64.666652 46.098355 
L 66.020192 46.71221 
L 67.373733 47.326065 
L 68.727273 47.939919 
" clip-path="url(#p7605222112)" style="fill: none; stroke: #4169e1; stroke-width: 0.4; stroke-linecap: square"/>
   </g>
   <g id="line2d_20">
    <path d="M 30.928682 26.480406 
L 31.765381 27.434003 
L 32.602079 28.387599 
L 33.438778 29.341196 
L 34.275477 30.294792 
L 35.112176 31.248389 
L 35.948874 32.201986 
L 36.785573 33.155582 
L 37.622272 34.109179 
L 38.458971 35.062776 
L 39.295669 36.016372 
L 40.132368 36.969969 
L 40.969067 37.923565 
L 41.805766 38.877162 
L 42.642464 39.830759 
L 43.479163 40.784355 
L 44.315862 41.737952 
" clip-path="url(#p7605222112)" style="fill: none; stroke: #008000; stroke-width: 0.4; stroke-linecap: square"/>
   </g>
   <g id="line2d_21">
    <path d="M 44.315862 41.737952 
L 45.398522 42.94531 
L 46.481182 44.152668 
L 47.563843 45.360026 
L 48.646503 46.567384 
L 49.729163 47.774742 
L 50.811823 48.9821 
L 51.894484 50.189458 
L 52.977144 51.396815 
" clip-path="url(#p7605222112)" style="fill: none; stroke: #008000; stroke-width: 0.4; stroke-linecap: square"/>
   </g>
   <g id="line2d_22">
    <path d="M 52.977144 51.396815 
L 53.838546 52.750419 
L 54.699948 54.104023 
L 55.561351 55.457627 
L 56.422753 56.811231 
L 57.284155 58.164835 
L 58.145558 59.518439 
L 59.00696 60.872043 
L 59.868362 62.225647 
" clip-path="url(#p7605222112)" style="fill: none; stroke: #008000; stroke-width: 0.4; stroke-linecap: square"/>
   </g>
   <g id="line2d_23">
    <path d="M 28.663688 27.771536 
L 29.672882 29.420156 
L 30.682076 31.068776 
L 31.69127 32.717396 
L 32.700464 34.366017 
L 33.623303 35.756537 
L 34.546142 37.147057 
L 35.468981 38.537578 
L 36.39182 39.928098 
L 37.314659 41.318619 
L 38.237498 42.709139 
L 39.160337 44.09966 
L 40.083176 45.49018 
L 40.993556 46.720729 
L 41.903935 47.951278 
L 42.814315 49.181827 
L 43.724695 50.412376 
L 44.635075 51.642925 
L 45.545455 52.873474 
L 46.455834 54.104023 
L 47.366214 55.334572 
L 48.69548 57.081952 
L 50.024747 58.829332 
L 51.354013 60.576711 
L 52.683279 62.324091 
L 53.716532 63.283604 
L 54.749785 64.243117 
L 55.783038 65.202629 
L 56.816291 66.162142 
" clip-path="url(#p7605222112)" style="fill: none; stroke: #008000; stroke-width: 0.4; stroke-linecap: square"/>
   </g>
   <g id="line2d_24">
    <path d="M 30.875408 38.678618 
L 31.528441 39.643179 
L 32.181474 40.60774 
L 32.834508 41.572301 
L 33.487541 42.536862 
L 34.373432 44.456519 
L 35.259323 46.376175 
L 36.145214 48.295832 
L 37.031105 50.215488 
L 37.990892 52.282811 
L 38.950679 54.350133 
L 39.910466 56.417456 
L 40.870253 58.484778 
L 41.337902 59.875141 
L 41.805551 61.265503 
L 42.2732 62.655866 
L 42.740849 64.046229 
L 43.208498 65.436591 
L 43.676147 66.826954 
L 44.143796 68.217317 
L 44.611445 69.607679 
L 45.029472 71.281226 
L 45.4475 72.954773 
L 45.865527 74.628319 
L 46.283554 76.301866 
L 46.677522 78.073857 
L 47.07149 79.845847 
L 47.465458 81.617838 
L 47.859426 83.389829 
" clip-path="url(#p7605222112)" style="fill: none; stroke: #4169e1; stroke-width: 0.4; stroke-linecap: square"/>
   </g>
   <g id="line2d_25">
    <path d="M 28.71868 41.605431 
L 29.031664 43.013937 
L 29.344647 44.422442 
L 29.65763 45.830947 
L 29.970614 47.239453 
L 30.283597 48.647958 
L 30.59658 50.056464 
L 30.909563 51.464969 
L 31.222547 52.873474 
L 32.05946 54.990019 
L 32.896374 57.106563 
L 33.733288 59.223107 
L 34.570201 61.339652 
L 35.259323 63.160549 
L 35.948445 64.981446 
L 36.637567 66.802343 
L 37.326688 68.62324 
L 38.114195 70.37062 
L 38.901701 72.117999 
L 39.689208 73.865379 
L 40.476714 75.612759 
L 41.079696 76.867919 
L 41.682677 78.123079 
L 42.285659 79.378239 
L 42.888641 80.633399 
L 43.491622 81.888559 
L 44.094604 83.143719 
L 44.697585 84.398879 
L 45.300567 85.654039 
" clip-path="url(#p7605222112)" style="fill: none; stroke: #008000; stroke-width: 0.4; stroke-linecap: square"/>
   </g>
   <g id="line2d_26">
    <path d="M 29.943977 65.86681 
L 30.682076 67.958744 
L 31.420175 70.050677 
L 32.158275 72.14261 
L 32.896374 74.234544 
L 33.782265 75.538926 
L 34.668156 76.843308 
L 35.554047 78.14769 
L 36.439938 79.452072 
L 38.408489 80.436511 
L 40.377041 81.42095 
" clip-path="url(#p7605222112)" style="fill: none; stroke: #008000; stroke-width: 0.4; stroke-linecap: square"/>
   </g>
   <g id="line2d_27">
    <path d="M 26.005156 28.557825 
L 25.980559 29.886818 
L 25.955963 31.215811 
L 25.931367 32.544804 
L 25.906771 33.873797 
L 25.882175 35.20279 
L 25.857579 36.531783 
L 25.832982 37.860776 
L 25.808386 39.189769 
L 25.78379 40.518762 
L 25.759194 41.847755 
L 25.734598 43.176748 
L 25.710002 44.505741 
L 25.685406 45.834734 
L 25.660809 47.163727 
L 25.636213 48.49272 
L 25.611617 49.821713 
L 25.611617 52.122682 
L 25.611617 54.423651 
L 25.611617 56.72462 
L 25.611617 59.025589 
L 25.611617 61.326558 
L 25.611617 63.627526 
L 25.611617 65.928495 
L 25.611617 68.229464 
L 25.568547 70.512054 
L 25.525477 72.794644 
L 25.482407 75.077233 
L 25.439337 77.359823 
L 25.396267 79.642412 
L 25.353196 81.925002 
L 25.310126 84.207592 
L 25.267056 86.490181 
L 25.223986 88.772771 
L 25.180916 91.05536 
L 25.137846 93.33795 
L 25.094776 95.62054 
L 25.051706 97.903129 
L 25.008636 100.185719 
L 24.965565 102.468309 
L 24.922495 104.750898 
" clip-path="url(#p7605222112)" style="fill: none; stroke: #008000; stroke-width: 0.4; stroke-linecap: square"/>
   </g>
   <g id="line2d_28">
    <path d="M 24.233373 41.955033 
L 22.412614 42.693363 
L 20.591854 43.431692 
L 19.164633 44.317688 
L 17.737412 45.203683 
L 17.04829 46.335788 
L 16.359168 47.467893 
L 16.186888 48.64922 
L 16.014607 49.830547 
L 15.842327 51.011875 
L 15.670046 52.193202 
L 15.866816 53.66986 
L 16.063585 55.146519 
L 16.260354 56.623178 
L 16.457123 58.099837 
L 16.727788 59.92105 
L 16.998453 61.742262 
L 17.269118 63.563475 
L 17.539783 65.384687 
L 17.589191 67.279417 
L 17.638598 69.174147 
L 17.688005 71.068877 
L 17.737412 72.963607 
L 17.712923 74.587932 
L 17.688434 76.212257 
L 17.663946 77.836582 
L 17.639457 79.460906 
L 17.984018 80.81451 
L 18.328579 82.168114 
L 18.67314 83.521718 
L 19.017701 84.875322 
L 19.854185 86.450425 
L 20.690668 88.025528 
L 21.527152 89.600631 
L 22.363636 91.175733 
" clip-path="url(#p7605222112)" style="fill: none; stroke: #008000; stroke-width: 0.4; stroke-linecap: square"/>
   </g>
   <g id="line2d_29">
    <path d="M 7.202956 64.126372 
L 7.437103 66.1115 
L 7.671249 68.096628 
L 7.905396 70.081756 
L 8.139543 72.066884 
L 8.37369 74.052012 
L 8.607836 76.03714 
L 8.841983 78.022268 
L 9.07613 80.007396 
L 9.176448 81.252775 
L 9.276766 82.498154 
L 9.377084 83.743533 
L 9.477402 84.988911 
L 9.57772 86.23429 
L 9.678037 87.479669 
L 9.778355 88.725048 
L 9.878673 89.970426 
L 9.987369 91.692249 
L 10.096065 93.414071 
L 10.20476 95.135893 
L 10.313456 96.857715 
L 10.964771 98.695966 
L 11.616085 100.534217 
L 12.669531 101.82156 
L 13.722976 103.108904 
L 15.427737 104.446101 
L 17.132497 105.783297 
" clip-path="url(#p7605222112)" style="fill: none; stroke: #008000; stroke-width: 0.4; stroke-linecap: square"/>
   </g>
  </g>
 </g>
 <defs>
  <clipPath id="p7605222112">
   <rect x="0" y="0" width="72" height="110.820597"/>
  </clipPath>
 </defs>
</svg>
