<?xml version="1.0" encoding="utf-8" standalone="no"?>
<!DOCTYPE svg PUBLIC "-//W3C//DTD SVG 1.1//EN"
  "http://www.w3.org/Graphics/SVG/1.1/DTD/svg11.dtd">
<svg height="45.203591pt" version="1.1" viewBox="0 0 72 45.203591" width="72pt" xmlns="http://www.w3.org/2000/svg" xmlns:xlink="http://www.w3.org/1999/xlink">
 <metadata>
  <rdf:RDF xmlns:cc="http://creativecommons.org/ns#" xmlns:dc="http://purl.org/dc/elements/1.1/" xmlns:rdf="http://www.w3.org/1999/02/22-rdf-syntax-ns#">
   <cc:Work>
    <dc:type rdf:resource="http://purl.org/dc/dcmitype/StillImage"/>
    <dc:date>2022-04-19T00:50:40.270841</dc:date>
    <dc:format>image/svg+xml</dc:format>
    <dc:creator>
     <cc:Agent>
      <dc:title>Matplotlib v3.4.3, https://matplotlib.org/</dc:title>
     </cc:Agent>
    </dc:creator>
   </cc:Work>
  </rdf:RDF>
 </metadata>
 <defs>
  <style type="text/css">*{stroke-linecap:butt;stroke-linejoin:round;}</style>
 </defs>
 <g id="figure_1">
  <g id="patch_1">
   <path d="M 0 45.203591 
L 72 45.203591 
L 72 0 
L 0 0 
z
" style="fill:#ffffff;"/>
  </g>
  <g id="axes_1">
   <g id="line2d_1">
    <path clip-path="url(#p95a43c9586)" d="M 45.705083 30.080704 
L 46.444518 29.313293 
L 47.183952 28.545883 
L 48.418844 27.264036 
L 49.243208 26.408492 
L 50.067572 25.552948 
L 51.026499 24.557697 
L 51.985426 23.562446 
L 53.193846 22.308345 
L 54.402266 21.054244 
L 55.302956 20.11938 
L 56.203646 19.184517 
L 56.952677 18.407069 
L 57.701708 17.629621 
L 58.450738 16.852173 
L 59.199769 16.074724 
L 60.054796 15.187355 
L 60.909823 14.299985 
L 61.788232 13.388134 
L 62.666642 12.476283 
L 63.815502 11.283875 
L 64.610747 10.458525 
L 65.405992 9.633175 
L 66.223518 8.784486 
L 66.642208 8.350022 
" style="fill:none;stroke:#808080;stroke-linecap:square;stroke-width:0.4;"/>
   </g>
   <g id="line2d_2">
    <path clip-path="url(#p95a43c9586)" d="M 43.591781 30.132605 
L 42.777785 28.881441 
L 41.819961 27.408966 
L 41.187515 26.436564 
L 40.555069 25.464162 
L 39.8699 24.410646 
L 39.184732 23.357129 
L 38.349118 22.072507 
L 37.513503 20.787886 
L 36.857233 19.778762 
L 36.200962 18.769638 
L 35.619915 17.876393 
L 35.038867 16.983148 
L 34.457819 16.089903 
L 33.876772 15.196658 
L 32.923801 13.73169 
L 32.29334 12.762226 
L 31.643026 11.762405 
L 30.992711 10.762584 
L 29.978415 9.203281 
L 28.964118 7.643979 
L 27.989088 6.14539 
L 27.217446 4.958857 
L 26.639928 4.070998 
L 26.06241 3.183139 
L 25.68784 2.607336 
L 25.437243 2.221835 
" style="fill:none;stroke:#808080;stroke-linecap:square;stroke-width:0.4;"/>
   </g>
   <g id="line2d_3">
    <path clip-path="url(#p95a43c9586)" d="M 67.258109 8.780243 
L 67.726653 9.577684 
L 68.010339 10.011494 
L 68.181079 10.759646 
L 67.98475 11.176483 
L 67.963131 12.540261 
L 67.873128 13.461742 
L 67.991809 14.290519 
L 68.081811 14.690056 
L 67.928718 16.250991 
L 68.163873 16.641388 
L 68.232037 17.447152 
L 68.455941 18.889108 
L 68.298877 19.764563 
L 68.360202 20.556782 
L 68.582121 21.399269 
L 68.384468 22.114126 
L 68.727273 22.891003 
L 68.659329 23.250063 
L 68.70036 24.082758 
L 68.689772 24.534522 
L 68.4855 24.848863 
L 68.183285 26.453212 
L 67.487969 27.677935 
L 66.362934 30.184832 
L 66.351904 30.565763 
L 66.419848 31.328603 
L 66.39117 32.057823 
L 66.100426 32.799773 
L 65.952627 34.772649 
L 65.911597 35.410471 
L 66.09072 36.252305 
L 65.972922 36.537922 
L 65.80924 36.665225 
L 65.477906 36.693297 
L 65.180985 36.58003 
L 64.865093 36.205954 
L 64.430962 35.496319 
L 63.438725 34.582346 
L 63.287838 34.272249 
L 62.394869 30.0164 
L 62.267365 29.594666 
L 60.924823 27.106049 
L 60.815408 26.677135 
L 60.539664 26.311219 
L 60.302745 26.400658 
L 60.199506 27.146525 
L 60.022589 29.848947 
L 59.643165 31.663836 
L 59.059471 33.261003 
L 58.865788 33.874344 
L 58.833581 34.49454 
L 58.842405 34.907133 
L 58.753285 35.104617 
L 58.736519 35.664098 
L 58.735637 36.166783 
L 58.882995 36.951494 
L 58.83314 37.389548 
L 59.045353 38.7357 
L 59.268154 39.64804 
L 59.396099 39.792318 
L 59.519191 40.388032 
L 59.939645 41.58044 
L 60.036266 41.914366 
L 59.974499 42.496698 
L 59.89685 42.613556 
L 59.314037 42.754242 
L 58.163854 42.452631 
L 57.063526 42.947809 
L 56.489096 43.124401 
L 56.117173 43.061076 
L 55.920843 42.613229 
L 55.58598 42.422927 
L 55.276264 42.062234 
L 54.62242 41.771395 
L 54.343147 41.459339 
L 54.10711 41.126718 
L 53.879015 41.080693 
L 53.702538 40.80291 
L 53.508415 40.450378 
L 53.193846 40.130161 
L 52.997516 39.935615 
L 52.850159 39.834099 
L 52.660006 39.397351 
L 50.118309 34.972091 
L 49.747709 34.603237 
L 49.275194 34.056812 
L 47.611686 31.848262 
L 46.561433 30.968563 
L 46.298925 30.950937 
L 46.298925 30.950937 
" style="fill:none;stroke:#4169e1;stroke-linecap:square;stroke-width:0.4;"/>
   </g>
   <g id="line2d_4">
    <path clip-path="url(#p95a43c9586)" d="M 25.175176 2.054709 
L 24.655013 3.108226 
L 23.885136 4.118818 
L 23.657041 4.435934 
L 23.243204 5.548043 
L 22.856722 6.043547 
L 22.06302 6.880485 
L 20.55062 9.370734 
L 19.63515 10.064374 
L 17.927303 11.113321 
L 16.827636 11.570389 
L 14.656539 12.16488 
L 13.028106 12.558541 
L 11.618723 13.026788 
L 9.967128 13.791261 
L 7.942285 15.016148 
L 4.337319 17.996515 
L 3.429791 18.821213 
L 3.272727 19.447284 
L 3.430232 19.997626 
L 4.071282 20.226446 
L 6.08708 20.340039 
L 9.663809 19.483027 
L 10.611045 19.484496 
L 12.906558 19.76391 
L 13.671582 20.149084 
L 15.530537 22.571847 
L 16.637704 24.424192 
L 18.145251 28.1328 
L 19.619709 30.257297 
L 23.538802 34.181504 
L 24.555304 34.767099 
L 24.942228 34.956422 
L 26.484188 35.153906 
L 27.588487 35.098578 
L 28.692566 34.885263 
L 31.289191 34.276818 
L 34.566793 33.976513 
L 36.322731 32.732041 
L 38.823838 30.855296 
L 39.443931 30.662219 
L 40.672867 30.482526 
L 41.657603 30.458697 
L 42.733225 30.334005 
L 43.268389 30.474692 
L 44.299009 31.04723 
L 44.945353 31.556444 
L 44.945353 31.556444 
" style="fill:none;stroke:#4169e1;stroke-linecap:square;stroke-width:0.4;"/>
   </g>
   <g id="line2d_5">
    <path clip-path="url(#p95a43c9586)" d="M 60.302745 26.400658 
L 60.268222 26.086806 
L 60.233698 25.772955 
L 60.199175 25.459103 
L 60.164652 25.145251 
L 60.036045 24.650563 
L 59.907438 24.155876 
L 59.778831 23.661188 
L 59.650224 23.1665 
L 59.442313 22.833716 
L 59.234403 22.500932 
L 59.026492 22.168148 
L 58.818581 21.835364 
L 58.610449 21.55697 
L 58.402318 21.278575 
L 58.194186 21.000181 
L 57.986055 20.721786 
L 57.777923 20.443392 
L 57.569792 20.164997 
L 57.36166 19.886603 
L 57.153529 19.608208 
" style="fill:none;stroke:#008000;stroke-linecap:square;stroke-width:0.4;"/>
   </g>
   <g id="line2d_6">
    <path clip-path="url(#p95a43c9586)" d="M 57.153529 19.608208 
L 56.94264 19.826256 
L 56.731751 20.044304 
L 56.520862 20.262352 
L 56.309973 20.4804 
L 56.099084 20.698447 
L 55.888195 20.916495 
L 55.677306 21.134543 
L 55.466417 21.352591 
L 55.109163 21.721934 
L 54.75191 22.091277 
L 54.394656 22.460619 
L 54.037402 22.829962 
L 53.801034 23.031322 
L 53.564667 23.232682 
L 53.328299 23.434041 
L 53.091931 23.635401 
L 52.855564 23.83676 
L 52.619196 24.03812 
L 52.382828 24.23948 
L 52.14646 24.440839 
L 51.879485 24.734168 
L 51.61251 25.027496 
L 51.345535 25.320824 
L 51.078559 25.614152 
L 50.811584 25.90748 
L 50.544609 26.200808 
L 50.277634 26.494136 
L 50.010658 26.787464 
L 49.761165 27.032605 
L 49.511672 27.277746 
L 49.262179 27.522886 
L 49.012686 27.768027 
L 48.763193 28.013167 
L 48.5137 28.258308 
L 48.264207 28.503448 
L 48.014714 28.748589 
L 47.662644 29.09394 
L 47.295463 29.454143 
L 46.928283 29.814346 
L 46.561102 30.17455 
L 46.193922 30.534753 
" style="fill:none;stroke:#000000;stroke-linecap:square;stroke-width:0.4;"/>
   </g>
   <g id="line2d_7">
    <path clip-path="url(#p95a43c9586)" d="M 57.153529 19.608208 
L 57.039702 20.168506 
L 56.925875 20.728804 
L 56.812047 21.289102 
L 56.69822 21.8494 
L 56.623825 22.186468 
L 56.549429 22.523537 
L 56.475033 22.860605 
L 56.400638 23.197673 
L 56.326242 23.534741 
L 56.251846 23.87181 
L 56.17745 24.208878 
L 56.103055 24.545946 
L 55.949851 24.948706 
L 55.796648 25.351466 
L 55.643445 25.754226 
L 55.490241 26.156986 
L 55.337038 26.559746 
L 55.183835 26.962507 
L 55.030631 27.365267 
L 54.877428 27.768027 
L 54.597383 28.267039 
L 54.317337 28.766052 
L 54.037292 29.265065 
L 53.757246 29.764078 
L 53.512055 30.201887 
L 53.266863 30.639696 
L 53.021672 31.077506 
L 52.77648 31.515315 
L 52.548936 31.751642 
L 52.321392 31.987969 
L 52.093849 32.224297 
L 51.866305 32.460624 
L 51.51622 32.548267 
L 51.166136 32.635911 
L 50.815831 32.513341 
L 50.465526 32.39077 
L 50.237982 32.136898 
L 50.010438 31.883026 
L 49.782894 31.629154 
L 49.55535 31.375281 
L 49.33652 31.147604 
L 49.117689 30.919927 
L 48.898859 30.69225 
L 48.680029 30.464573 
L 48.425682 30.121915 
L 48.171336 29.779256 
L 47.91699 29.436598 
L 47.662644 29.09394 
" style="fill:none;stroke:#000000;stroke-linecap:square;stroke-width:0.4;"/>
   </g>
   <g id="line2d_8">
    <path clip-path="url(#p95a43c9586)" d="M 58.163854 42.452631 
L 58.135839 42.136494 
L 58.107823 41.820358 
L 57.763033 41.495816 
L 57.418243 41.171274 
L 57.073453 40.846732 
L 56.728662 40.52219 
L 56.425675 40.187366 
L 56.122688 39.852542 
L 55.8197 39.517718 
L 55.516713 39.182894 
L 55.274279 38.664867 
L 55.031845 38.14684 
L 54.789411 37.628813 
L 54.546977 37.110787 
L 54.277299 36.66547 
L 54.007622 36.220153 
L 53.737944 35.774836 
L 53.468266 35.329519 
L 53.181603 34.981312 
L 52.89494 34.633105 
L 52.608276 34.284897 
L 52.321613 33.93669 
L 52.032744 33.611495 
L 51.743874 33.2863 
L 51.455005 32.961106 
L 51.166136 32.635911 
" style="fill:none;stroke:#4169e1;stroke-linecap:square;stroke-width:0.4;"/>
   </g>
   <g id="line2d_9">
    <path clip-path="url(#p95a43c9586)" d="M 66.607354 8.821698 
L 66.366629 9.062472 
L 66.125905 9.303247 
L 65.88518 9.544022 
L 65.644456 9.784797 
L 65.403731 10.025571 
L 65.163007 10.266346 
L 64.922282 10.507121 
L 64.681558 10.747895 
L 64.340187 11.124338 
L 63.998816 11.50078 
L 63.657445 11.877223 
L 63.316074 12.253665 
L 62.974703 12.630108 
L 62.633332 13.006551 
L 62.291961 13.382993 
L 61.95059 13.759436 
L 61.679203 14.070268 
L 61.407816 14.3811 
L 61.136429 14.691933 
L 60.865042 15.002765 
L 60.593655 15.313597 
L 60.322267 15.62443 
L 60.05088 15.935262 
L 59.779493 16.246094 
L 59.451248 16.666359 
L 59.123002 17.086623 
L 58.794756 17.506887 
L 58.466511 17.927151 
L 58.138265 18.347416 
L 57.81002 18.76768 
L 57.481774 19.187944 
L 57.153529 19.608208 
" style="fill:none;stroke:#000000;stroke-linecap:square;stroke-width:0.4;"/>
   </g>
   <g id="line2d_10">
    <path clip-path="url(#p95a43c9586)" d="M 66.047042 8.22631 
L 65.67942 8.095008 
L 65.311798 7.963706 
L 64.944177 7.832404 
L 64.576555 7.701102 
L 64.112533 7.65728 
L 63.648511 7.613458 
L 63.184489 7.569637 
L 62.720467 7.525815 
L 62.398288 7.579511 
L 62.076109 7.633207 
L 61.75393 7.686903 
L 61.431751 7.740599 
L 61.130859 7.790867 
L 60.829967 7.841136 
L 60.409844 8.007446 
L 59.98972 8.173756 
L 59.569597 8.340067 
L 59.149473 8.506377 
L 58.773028 8.742786 
L 58.396582 8.979195 
L 58.020137 9.215604 
L 57.643691 9.452013 
L 57.223568 9.662145 
L 56.803444 9.872277 
L 56.383321 10.082409 
L 55.963197 10.292541 
L 55.664401 10.403605 
L 55.365605 10.514669 
L 55.066809 10.625733 
L 54.768013 10.736797 
L 54.412193 10.85137 
L 54.056373 10.965943 
L 53.700553 11.080516 
L 53.344733 11.195089 
L 52.868027 11.444147 
L 52.391321 11.693204 
L 52.14646 11.938345 
L 52.286318 12.253665 
L 52.671477 12.411326 
L 53.056636 12.568986 
L 53.319254 12.757207 
L 53.581873 12.945429 
L 53.844491 13.13365 
L 54.10711 13.321871 
L 54.369728 13.510092 
L 54.632347 13.698314 
L 54.894965 13.886535 
L 55.157584 14.074756 
L 55.525206 14.477475 
L 55.892828 14.880195 
L 56.260449 15.282914 
L 56.628071 15.685633 
L 56.838519 16.211167 
L 57.048525 16.736375 
L 57.030878 17.174103 
L 57.01323 17.611831 
L 57.048305 18.110925 
L 57.083379 18.61002 
L 57.118454 19.109114 
L 57.153529 19.608208 
" style="fill:none;stroke:#4169e1;stroke-linecap:square;stroke-width:0.4;"/>
   </g>
   <g id="line2d_11">
    <path clip-path="url(#p95a43c9586)" d="M 61.431751 7.740599 
L 61.490429 8.18616 
L 61.549107 8.631722 
L 61.654772 9.138977 
L 61.760437 9.646232 
L 61.732863 10.059315 
L 61.705289 10.472398 
L 61.477414 10.772377 
L 61.249539 11.072356 
L 60.719008 11.238503 
L 60.188476 11.40465 
L 59.757213 11.408975 
L 59.32595 11.4133 
L 58.894686 11.417625 
L 58.463423 11.42195 
L 58.084661 11.387921 
L 57.705899 11.353892 
L 57.327137 11.319863 
L 56.948375 11.285834 
L 56.404829 11.42195 
L 55.888636 11.544684 
L 55.538331 11.789824 
L 55.521125 11.999712 
L 55.783633 12.236039 
L 56.061583 12.454413 
L 56.339533 12.672787 
L 56.59046 12.978397 
L 56.841387 13.284007 
L 57.092314 13.589616 
L 57.343241 13.895226 
L 57.406551 14.378979 
L 57.469862 14.862731 
L 57.312026 15.19984 
L 57.15419 15.536949 
L 56.996355 15.874058 
L 56.838519 16.211167 
" style="fill:none;stroke:#4169e1;stroke-linecap:square;stroke-width:0.4;"/>
   </g>
   <g id="line2d_12">
    <path clip-path="url(#p95a43c9586)" d="M 66.384552 7.880632 
L 66.089396 7.725828 
L 65.79424 7.571024 
L 65.499084 7.41622 
L 65.203927 7.261416 
L 64.94528 7.058057 
L 64.686632 6.854698 
L 64.427984 6.651339 
L 64.169336 6.44798 
L 63.72969 6.282486 
L 63.290044 6.116991 
L 62.913488 5.924404 
L 62.536932 5.731817 
L 62.04677 5.679264 
L 61.504106 5.644337 
L 60.996296 5.434123 
L 60.681286 5.355456 
L 60.366276 5.276789 
L 59.954866 5.276789 
L 59.543456 5.276789 
L 59.201975 5.311716 
L 58.860494 5.346643 
L 58.545484 5.355456 
L 58.230474 5.364269 
L 57.845315 5.390546 
L 57.460156 5.416823 
L 57.013671 5.488472 
L 56.567187 5.560121 
L 56.21269 5.560447 
L 55.858194 5.560773 
L 55.503698 5.5611 
L 55.149201 5.561426 
L 54.794705 5.561753 
L 54.440209 5.562079 
L 54.085712 5.562406 
L 53.731216 5.562732 
L 53.302158 5.699828 
L 52.873101 5.836924 
L 52.540443 5.942031 
L 52.207786 6.047138 
L 51.8052 6.152244 
L 51.402614 6.257351 
L 50.929878 6.537419 
L 50.457143 6.817486 
L 50.185811 6.99261 
L 49.914479 7.167733 
L 49.660574 7.465427 
L 49.406669 7.763121 
L 49.003862 8.078442 
L 48.425903 8.215212 
L 48.058171 8.381685 
L 47.690439 8.548159 
L 47.568229 8.60365 
L 47.025565 8.69113 
L 46.482901 8.77861 
" style="fill:none;stroke:#008000;stroke-linecap:square;stroke-width:0.4;"/>
   </g>
   <g id="line2d_13">
    <path clip-path="url(#p95a43c9586)" d="M 48.425903 8.215212 
L 48.785032 8.435707 
L 49.144161 8.656203 
L 49.476818 8.80505 
L 49.809476 8.953897 
L 50.185811 9.102744 
L 50.562146 9.251591 
L 50.816051 9.426715 
L 51.069956 9.601839 
L 50.982159 9.93446 
L 50.597 10.26708 
L 50.211841 10.599701 
L 49.813667 10.829826 
L 49.415493 11.059952 
L 48.969008 11.317823 
L 48.540171 11.59789 
L 48.111334 11.877957 
L 47.900887 12.315685 
L 47.953388 12.771039 
L 48.181042 13.17384 
L 48.653778 13.401517 
L 49.126513 13.629194 
L 49.708002 13.737402 
L 50.289491 13.84561 
L 50.702665 13.973322 
L 51.11584 14.101033 
L 51.529015 14.228744 
L 51.942189 14.356456 
L 52.271428 14.487594 
L 52.600666 14.618733 
L 52.929904 14.749872 
L 53.259142 14.881011 
L 53.733201 15.15912 
L 54.20726 15.437228 
L 54.573227 15.776378 
L 54.939195 16.115527 
L 55.245601 16.597158 
L 55.552008 17.078789 
L 55.626349 17.385214 
L 55.700689 17.69164 
L 55.77503 17.998066 
L 55.84937 18.304492 
L 55.84937 18.724756 
L 55.84937 19.14502 
L 55.792457 19.503999 
L 55.735543 19.862978 
L 55.67863 20.221957 
L 55.621716 20.580937 
L 55.544067 20.966764 
L 55.466417 21.352591 
" style="fill:none;stroke:#4169e1;stroke-linecap:square;stroke-width:0.4;"/>
   </g>
   <g id="line2d_14">
    <path clip-path="url(#p95a43c9586)" d="M 46.482901 8.77861 
L 46.416171 9.170435 
L 46.349441 9.56226 
L 46.282711 9.954085 
L 46.215981 10.345911 
L 46.149251 10.737736 
L 46.082521 11.129561 
L 46.015791 11.521386 
L 45.949061 11.913211 
L 45.944649 12.29406 
L 45.940237 12.674909 
L 45.935825 13.055758 
L 45.931413 13.436607 
L 45.927001 13.817457 
L 45.922589 14.198306 
L 45.918178 14.579155 
L 45.913766 14.960004 
L 45.992628 15.546579 
L 46.071491 16.133153 
L 46.150354 16.719728 
L 46.229217 17.306303 
L 46.251717 17.762963 
L 46.266387 18.060453 
L 46.281057 18.357943 
L 46.295726 18.655433 
L 46.310396 18.952923 
L 46.325065 19.250413 
L 46.339735 19.547903 
L 46.354404 19.845392 
L 46.369074 20.142882 
L 46.425988 20.510634 
L 46.482901 20.878386 
L 46.539815 21.246137 
L 46.596728 21.613889 
L 46.653642 21.981641 
L 46.710555 22.349392 
L 46.767469 22.717144 
L 46.824382 23.084895 
L 46.850633 23.67147 
L 46.876884 24.258045 
L 46.903135 24.844619 
L 46.929386 25.431194 
L 46.876884 25.833913 
L 46.824382 26.236633 
L 46.771881 26.639352 
L 46.719379 27.042071 
L 46.596839 27.35731 
L 46.474298 27.672549 
L 46.351757 27.987788 
L 46.229217 28.303027 
L 46.027813 28.539354 
L 45.82641 28.775682 
L 45.625007 29.012009 
L 45.423603 29.248336 
" style="fill:none;stroke:#ff0000;stroke-linecap:square;stroke-width:0.4;"/>
   </g>
   <g id="line2d_15">
    <path clip-path="url(#p95a43c9586)" d="M 53.259142 14.881011 
L 52.849497 15.046342 
L 52.439852 15.211673 
L 52.07576 15.339058 
L 51.711667 15.466443 
L 51.347575 15.593828 
L 50.983483 15.721213 
L 50.588838 15.859206 
L 50.194194 15.9972 
L 49.799549 16.135194 
L 49.404904 16.273187 
L 49.066291 16.391677 
L 48.727677 16.510167 
L 48.389064 16.628657 
L 48.05045 16.747147 
L 47.76147 16.886936 
L 47.472491 17.026725 
L 47.183511 17.166514 
L 46.894532 17.306303 
L 46.573125 17.534633 
L 46.251717 17.762963 
" style="fill:none;stroke:#008000;stroke-linecap:square;stroke-width:0.4;"/>
   </g>
   <g id="line2d_16">
    <path clip-path="url(#p95a43c9586)" d="M 18.554234 10.806977 
L 19.027631 11.098632 
L 19.501029 11.390288 
L 19.92413 11.655013 
L 20.347231 11.919739 
L 20.840482 12.108409 
L 21.333733 12.297079 
L 21.678523 12.429116 
L 22.023313 12.561152 
L 22.42612 12.762389 
L 22.828927 12.963626 
L 23.231733 12.998716 
L 23.63454 13.033806 
L 24.114776 12.970155 
L 24.595011 12.906503 
L 25.087821 12.841219 
L 25.43581 12.74362 
L 25.783798 12.646021 
L 26.131787 12.548422 
L 26.479776 12.450822 
L 26.961115 12.298385 
L 27.276124 12.105798 
" style="fill:none;stroke:#4169e1;stroke-linecap:square;stroke-width:0.4;"/>
   </g>
   <g id="line2d_17">
    <path clip-path="url(#p95a43c9586)" d="M 20.717831 9.141262 
L 20.718493 9.677894 
L 20.719155 10.214527 
L 20.797907 10.774825 
L 20.87666 11.335123 
L 21.105196 11.816101 
L 21.333733 12.297079 
" style="fill:none;stroke:#4169e1;stroke-linecap:square;stroke-width:0.4;"/>
   </g>
   <g id="line2d_18">
    <path clip-path="url(#p95a43c9586)" d="M 22.856722 6.043547 
L 22.812603 6.359602 
L 22.768484 6.675657 
L 22.724365 6.991712 
L 22.680246 7.307767 
L 22.61892 7.69743 
L 22.557595 8.087092 
L 22.496269 8.476755 
L 22.434944 8.866417 
L 22.364905 9.234128 
L 22.294866 9.601839 
L 22.224827 9.96955 
L 22.154788 10.33726 
L 22.189863 10.634954 
L 22.224937 10.932648 
L 22.417517 11.168976 
L 22.610096 11.405303 
L 22.951578 11.72046 
L 23.293059 12.035618 
L 23.669394 12.272108 
L 24.045729 12.508599 
L 24.429565 12.786381 
L 24.595011 12.906503 
" style="fill:none;stroke:#4169e1;stroke-linecap:square;stroke-width:0.4;"/>
   </g>
   <g id="line2d_19">
    <path clip-path="url(#p95a43c9586)" d="M 35.470351 22.611915 
L 35.740222 22.985705 
L 36.010092 23.359495 
L 36.279963 23.733286 
L 36.549833 24.107076 
L 36.819704 24.480866 
L 37.089574 24.854657 
L 37.359445 25.228447 
L 37.629316 25.602238 
L 37.899186 25.976028 
L 38.169057 26.349818 
L 38.438927 26.723609 
L 38.708798 27.097399 
L 38.978668 27.47119 
L 39.248539 27.84498 
L 39.51841 28.21877 
L 39.78828 28.592561 
L 40.109908 29.038449 
L 40.416314 29.362419 
L 40.722721 29.68639 
L 41.079865 30.087559 
L 41.437008 30.488728 
" style="fill:none;stroke:#000000;stroke-linecap:square;stroke-width:0.4;"/>
   </g>
   <g id="line2d_20">
    <path clip-path="url(#p95a43c9586)" d="M 24.429565 12.786381 
L 24.72803 13.006387 
L 25.026495 13.226394 
L 25.367756 13.550364 
L 25.709017 13.874335 
L 26.076749 14.206956 
L 26.444481 14.539577 
L 26.567132 14.82862 
L 26.689783 15.117664 
L 26.82964 15.695426 
L 26.890965 16.141967 
L 26.952291 16.588508 
L 27.02244 17.078789 
L 27.232447 17.393783 
L 27.477748 17.463963 
L 27.84526 17.323929 
L 28.186741 17.166269 
L 28.528222 17.008609 
L 28.825805 17.104902 
L 29.123388 17.201196 
L 29.316188 17.638924 
L 29.49112 17.954244 
L 29.666052 18.269565 
L 29.736091 18.593454 
L 29.80613 18.917343 
L 29.876169 19.241232 
L 29.946208 19.565121 
L 29.968157 20.00293 
L 29.990106 20.44074 
L 30.012056 20.878549 
L 30.034005 21.316358 
L 30.034005 21.749679 
L 30.034005 22.183 
L 30.034005 22.616321 
L 30.034005 23.049642 
L 30.068969 23.417353 
L 30.103933 23.785064 
L 30.138898 24.152775 
L 30.173862 24.520486 
L 30.191399 25.010848 
L 30.208937 25.501211 
L 30.226474 25.991574 
L 30.244011 26.481936 
L 30.187098 26.775224 
L 30.130184 27.068511 
L 30.073271 27.361798 
L 30.016357 27.655086 
L 29.785615 28.162341 
L 29.587961 28.597457 
" style="fill:none;stroke:#000000;stroke-linecap:square;stroke-width:0.4;"/>
   </g>
   <g id="line2d_21">
    <path clip-path="url(#p95a43c9586)" d="M 25.255473 21.148905 
L 25.674163 20.966111 
L 25.997996 20.939834 
L 26.32183 20.913557 
L 26.601986 21.027314 
L 26.882142 21.141071 
L 27.074721 21.377562 
L 27.267301 21.614052 
L 27.24105 21.93786 
L 27.214799 22.261667 
L 27.109796 22.778225 
L 27.004792 23.294783 
L 26.856111 23.715047 
L 26.70743 24.135311 
L 26.470952 24.555739 
" style="fill:none;stroke:#4169e1;stroke-linecap:square;stroke-width:0.4;"/>
   </g>
   <g id="line2d_22">
    <path clip-path="url(#p95a43c9586)" d="M 23.243204 5.548043 
L 23.430159 5.853653 
L 23.617113 6.159262 
L 23.804067 6.464872 
L 23.991022 6.770482 
L 24.149961 7.03027 
L 24.308899 7.290059 
L 24.467838 7.549848 
L 24.626777 7.809636 
L 24.785716 8.069425 
L 24.944655 8.329213 
L 25.103593 8.589002 
L 25.262532 8.84879 
L 25.433273 9.124574 
L 25.604013 9.400357 
L 25.774754 9.67614 
L 25.945495 9.951923 
L 26.116235 10.227706 
L 26.286976 10.503489 
L 26.457717 10.779272 
L 26.628457 11.055055 
L 26.790374 11.317741 
L 26.952291 11.580427 
L 27.114208 11.843112 
L 27.276124 12.105798 
L 27.549718 12.434093 
L 27.823311 12.762389 
L 28.096904 13.090685 
L 28.370497 13.418981 
L 28.64409 13.747276 
L 28.917683 14.075572 
L 29.191276 14.403868 
L 29.464869 14.732164 
L 29.753739 15.108647 
L 30.042608 15.48513 
L 30.331477 15.861614 
L 30.620347 16.238097 
L 30.909216 16.61458 
L 31.198085 16.991064 
L 31.486955 17.367547 
L 31.775824 17.74403 
L 32.095356 18.186165 
L 32.414888 18.628299 
L 32.73442 19.070433 
L 33.053952 19.512568 
L 33.373484 19.954702 
L 33.693016 20.396836 
L 34.012548 20.838971 
L 34.33208 21.281105 
L 34.616648 21.613807 
L 34.901216 21.94651 
L 35.185783 22.279212 
L 35.470351 22.611915 
" style="fill:none;stroke:#000000;stroke-linecap:square;stroke-width:0.4;"/>
   </g>
   <g id="line2d_23">
    <path clip-path="url(#p95a43c9586)" d="M 29.587961 28.597457 
L 29.386337 29.080557 
L 29.184713 29.563657 
L 29.009561 30.106491 
L 28.834408 30.649326 
L 28.729405 31.078403 
L 28.624402 31.507481 
L 28.4755 31.892655 
L 28.326598 32.277829 
L 28.169094 32.733184 
L 28.151887 33.030878 
L 28.344246 33.118358 
L 28.781907 33.013251 
L 29.210964 32.986974 
L 29.640022 32.960698 
L 30.21776 32.951884 
L 30.795499 32.943071 
L 31.346987 32.978161 
L 31.898475 33.013251 
L 32.257383 33.127008 
L 32.616291 33.240765 
L 32.914095 33.398425 
L 33.211898 33.556086 
L 33.606763 33.84007 
L 34.001629 34.124054 
" style="fill:none;stroke:#4169e1;stroke-linecap:square;stroke-width:0.4;"/>
   </g>
   <g id="line2d_24">
    <path clip-path="url(#p95a43c9586)" d="M 21.333733 12.297079 
L 21.678523 12.429116 
L 22.023313 12.561152 
L 22.42612 12.762389 
L 22.828927 12.963626 
L 22.986432 13.506461 
L 23.065184 13.900449 
L 23.143936 14.294436 
L 23.196659 14.802344 
L 23.249381 15.310251 
L 23.380635 15.817996 
L 23.511889 16.325741 
L 23.63443 16.610296 
L 23.75697 16.894852 
L 23.879511 17.179407 
L 24.002052 17.463963 
L 24.203455 17.945431 
L 24.404858 18.426899 
L 24.536112 18.829699 
L 24.667366 19.2325 
L 24.790017 19.687691 
L 24.912668 20.142882 
L 25.084071 20.645894 
L 25.255473 21.148905 
L 25.320328 21.582716 
L 25.385183 22.016527 
L 25.49901 22.428141 
L 25.612837 22.839755 
L 25.752915 23.181189 
L 25.892993 23.522623 
L 26.024247 23.802691 
L 26.155501 24.082758 
L 26.470952 24.555739 
L 26.365949 24.993466 
L 26.19962 25.343714 
L 26.033291 25.693961 
L 25.735488 26.061509 
L 25.525481 26.39413 
L 25.507834 26.691824 
L 25.840491 27.059698 
L 26.313447 27.252285 
L 26.742284 27.418595 
L 27.171121 27.584906 
L 27.547677 27.690013 
L 27.924233 27.795119 
L 28.361894 27.908876 
L 28.799554 28.022633 
L 29.292585 28.092487 
L 29.785615 28.162341 
L 30.071727 27.97873 
L 30.357838 27.795119 
L 30.73285 27.487633 
L 31.107862 27.180146 
L 31.485741 26.909708 
L 31.863621 26.63927 
L 32.117526 26.35039 
L 32.371431 26.061509 
L 32.633939 25.711262 
L 32.896447 25.361014 
L 33.09785 25.115955 
L 33.299254 24.870896 
L 33.500657 24.625837 
L 33.702061 24.380778 
L 33.935781 24.156529 
L 34.169502 23.932279 
L 34.403222 23.708029 
L 34.636943 23.483779 
L 34.845295 23.265813 
L 35.053647 23.047847 
L 35.261999 22.829881 
L 35.470351 22.611915 
" style="fill:none;stroke:#4169e1;stroke-linecap:square;stroke-width:0.4;"/>
   </g>
   <g id="line2d_25">
    <path clip-path="url(#p95a43c9586)" d="M 29.785615 28.162341 
L 29.832381 28.723128 
L 29.868558 29.312314 
L 30.069521 29.735679 
L 30.270483 30.159045 
L 30.524167 30.360445 
L 30.777852 30.561846 
L 31.119333 30.553032 
L 31.460814 30.544219 
L 31.924726 30.570496 
L 32.388637 30.596772 
L 32.879241 30.85954 
L 33.141749 31.017037 
L 33.404257 31.174534 
L 33.929715 31.262014 
L 34.288623 31.095704 
L 34.647531 30.929393 
L 34.980189 30.596772 
L 35.312846 30.264152 
L 35.501014 30.010198 
L 35.689181 29.756244 
L 35.877349 29.50229 
L 36.065517 29.248336 
L 36.323834 29.055749 
L 36.582151 28.863162 
L 36.840467 28.670575 
L 37.098784 28.477988 
L 37.510194 28.451711 
L 37.921604 28.425434 
L 38.385516 28.477988 
L 38.849427 28.530541 
L 39.318854 28.561551 
L 39.78828 28.592561 
" style="fill:none;stroke:#000000;stroke-linecap:square;stroke-width:0.4;"/>
   </g>
   <g id="line2d_26">
    <path clip-path="url(#p95a43c9586)" d="M 25.69181 2.054709 
L 26.234474 2.247296 
L 26.742284 2.282223 
L 27.092369 2.221019 
L 27.442453 2.159816 
L 27.84526 2.186092 
L 28.248067 2.212369 
L 28.647785 2.504514 
L 28.83132 2.622025 
L 29.17589 2.842684 
L 29.43178 3.02352 
L 29.68767 3.204356 
L 30.172538 3.358915 
L 30.657407 3.513475 
L 30.975946 3.773467 
L 31.294485 4.03346 
L 31.522139 4.541041 
L 31.71494 4.926542 
" style="fill:none;stroke:#4169e1;stroke-linecap:square;stroke-width:0.4;"/>
   </g>
   <g id="line2d_27">
    <path clip-path="url(#p95a43c9586)" d="M 23.533066 4.804461 
L 23.852709 4.750439 
L 24.172351 4.696416 
L 24.479419 4.612772 
L 24.786488 4.529127 
L 25.093556 4.445482 
L 25.400625 4.361837 
L 25.91395 4.311405 
L 26.427274 4.260974 
L 26.841773 4.217723 
L 27.256271 4.174473 
L 27.66746 4.130243 
L 28.07865 4.086013 
L 28.43469 4.129753 
L 28.790731 4.173493 
L 29.210964 4.313527 
L 29.631198 4.453561 
L 29.924479 4.554261 
L 30.21776 4.654961 
L 30.511042 4.755661 
L 30.804323 4.856362 
L 31.259631 4.891452 
L 31.71494 4.926542 
L 32.213926 5.110315 
L 32.712912 5.294089 
L 33.102704 5.2794 
L 33.492495 5.264712 
L 33.882287 5.250023 
L 34.272078 5.235334 
L 34.617751 5.238027 
L 34.963423 5.24072 
L 35.309096 5.243413 
L 35.654769 5.246106 
L 36.004743 5.27124 
L 36.354717 5.296374 
L 36.704691 5.321508 
L 37.054665 5.346643 
L 37.569093 5.50006 
L 37.920501 5.604758 
L 38.271909 5.709457 
L 38.623317 5.814156 
L 38.974725 5.918855 
L 39.278209 6.005968 
L 39.581693 6.093081 
L 39.885177 6.180194 
L 40.18866 6.267307 
L 40.492144 6.35442 
L 40.795628 6.441533 
L 41.099112 6.528646 
L 41.402595 6.615759 
L 41.847315 6.751713 
L 42.292035 6.887666 
L 42.736755 7.02362 
L 43.181474 7.159573 
L 43.573472 7.27945 
L 43.96547 7.399328 
L 44.357467 7.519205 
L 44.749465 7.639082 
L 45.130432 7.823672 
L 45.5114 8.008262 
L 45.756261 8.305956 
L 46.119581 8.542283 
L 46.482901 8.77861 
" style="fill:none;stroke:#4169e1;stroke-linecap:square;stroke-width:0.4;"/>
   </g>
   <g id="line2d_28">
    <path clip-path="url(#p95a43c9586)" d="M 37.569093 5.50006 
L 37.685126 5.907104 
L 37.965282 6.187171 
L 38.245438 6.467239 
L 38.648024 6.764933 
L 39.05061 7.062627 
L 39.453417 7.325394 
L 39.856223 7.588161 
L 40.145093 7.728195 
L 40.433962 7.868228 
L 40.722831 8.008262 
L 41.011701 8.148296 
L 41.458185 8.332233 
L 41.90467 8.51617 
L 42.298653 8.621113 
L 42.692636 8.726057 
L 42.955144 8.936271 
L 42.884995 9.321445 
L 42.499835 9.479105 
L 42.114676 9.636766 
L 41.764482 9.698051 
L 41.414287 9.759336 
L 41.064092 9.820621 
L 40.713897 9.881906 
L 40.350687 9.960736 
L 39.987478 10.039566 
L 39.624268 10.118397 
L 39.261058 10.197227 
L 38.97649 10.302252 
L 38.691922 10.407277 
L 38.407355 10.512303 
L 38.122787 10.617328 
L 37.781306 10.757361 
L 37.439824 10.897395 
L 37.317615 11.055055 
L 37.439824 11.212716 
L 37.877706 11.317823 
L 38.315587 11.422929 
L 38.683099 11.5455 
L 39.05061 11.66807 
L 39.55842 11.825567 
L 40.06623 11.983064 
L 40.495288 12.105634 
L 40.924345 12.228205 
L 41.265716 12.420873 
L 41.607087 12.613542 
L 41.948458 12.806211 
L 42.289829 12.99888 
L 42.578698 13.108312 
L 42.867568 13.217743 
L 43.156437 13.327175 
L 43.445306 13.436607 
L 43.751713 13.576641 
L 44.058119 13.716675 
L 44.478133 13.909262 
L 44.828438 14.084549 
L 45.073739 14.277136 
L 44.968295 14.43447 
L 44.565929 14.43447 
L 44.093194 14.46956 
L 43.620459 14.50465 
L 43.226476 14.495918 
L 42.832493 14.487186 
L 42.43851 14.478455 
L 42.044527 14.469723 
L 41.51929 14.478373 
L 40.994053 14.487023 
L 40.652682 14.49143 
L 40.311311 14.495836 
L 39.96994 14.500243 
L 39.628569 14.50465 
L 39.278485 14.636033 
L 38.9284 14.767417 
L 38.508167 14.881174 
L 38.087933 14.994931 
L 37.650272 15.143778 
L 37.212611 15.292625 
L 36.818629 15.502675 
L 36.424646 15.712726 
L 36.214639 15.99312 
L 35.978161 16.290814 
L 35.741683 16.588508 
L 35.409026 17.026235 
" style="fill:none;stroke:#4169e1;stroke-linecap:square;stroke-width:0.4;"/>
   </g>
   <g id="line2d_29">
    <path clip-path="url(#p95a43c9586)" d="M 46.482901 8.77861 
L 46.150244 8.8137 
L 45.817586 8.84879 
L 45.471803 8.905669 
L 45.12602 8.962547 
L 44.780238 9.019426 
L 44.434455 9.076304 
L 44.04709 9.13759 
L 43.659725 9.198875 
L 43.27236 9.26016 
L 42.884995 9.321445 
" style="fill:none;stroke:#008000;stroke-linecap:square;stroke-width:0.4;"/>
   </g>
   <g id="line2d_30">
    <path clip-path="url(#p95a43c9586)" d="M 31.71494 4.926542 
L 31.979764 5.351131 
L 32.244589 5.77572 
L 32.509413 6.20031 
L 32.774237 6.624899 
L 32.923029 6.887544 
L 33.07182 7.150188 
L 33.220612 7.412833 
L 33.369403 7.675478 
L 33.518195 7.938123 
L 33.666986 8.200767 
L 33.815777 8.463412 
L 33.964569 8.726057 
L 34.119978 8.997474 
L 34.275387 9.268892 
L 34.430797 9.540309 
L 34.586206 9.811726 
L 34.741615 10.083143 
L 34.897024 10.354561 
L 35.052434 10.625978 
L 35.207843 10.897395 
L 35.470461 11.422766 
L 35.73308 11.948137 
L 35.995698 12.473509 
L 36.258317 12.99888 
L 36.481559 13.392867 
L 36.704801 13.786855 
L 36.928044 14.180842 
L 37.151286 14.57483 
L 37.374528 14.968817 
L 37.597771 15.362805 
L 37.821013 15.756792 
L 38.044255 16.15078 
L 38.306874 16.531629 
L 38.569492 16.912478 
L 38.832111 17.293328 
L 39.094729 17.674177 
L 39.36391 18.136019 
L 39.633091 18.59786 
L 39.902273 19.059702 
L 40.171454 19.521544 
L 40.440635 19.983386 
L 40.709816 20.445228 
L 40.978998 20.90707 
L 41.248179 21.368912 
L 41.440758 21.832916 
L 41.633338 22.29692 
L 41.825917 22.760925 
L 42.018497 23.224929 
L 42.136626 23.785227 
L 42.254754 24.345525 
L 42.372883 24.905823 
L 42.491012 25.466121 
L 42.565463 25.917069 
L 42.639913 26.368016 
L 42.714364 26.818964 
L 42.788815 27.269911 
L 42.889517 27.589476 
L 42.990218 27.90904 
L 43.09092 28.228604 
L 43.191622 28.548168 
L 43.515455 29.047099 
L 43.839289 29.54603 
" style="fill:none;stroke:#ff0000;stroke-linecap:square;stroke-width:0.4;"/>
   </g>
   <g id="line2d_31">
    <path clip-path="url(#p95a43c9586)" d="M 25.437243 2.221835 
L 25.602579 2.540216 
L 25.767916 2.858597 
L 25.933252 3.176977 
L 26.098588 3.495358 
L 26.263924 3.813739 
L 26.42926 4.13212 
L 26.594596 4.450501 
L 26.759932 4.768881 
L 27.000656 5.158503 
L 27.241381 5.548125 
L 27.482105 5.937746 
L 27.72283 6.327368 
L 27.963554 6.71699 
L 28.204278 7.106612 
L 28.445003 7.496233 
L 28.685727 7.885855 
L 28.90897 8.27107 
L 29.132212 8.656285 
L 29.355454 9.0415 
L 29.578696 9.426715 
L 29.801939 9.81193 
L 30.025181 10.197145 
L 30.248423 10.58236 
L 30.471665 10.967575 
L 30.72557 11.291546 
L 30.979475 11.615517 
L 31.23338 11.939487 
L 31.487285 12.263458 
L 31.846414 12.630516 
L 32.205543 12.997574 
L 32.564672 13.364632 
L 32.923801 13.73169 
L 33.194912 13.986215 
L 33.466024 14.24074 
L 33.737135 14.495265 
L 34.008247 14.74979 
L 34.253438 15.117501 
L 34.49863 15.485212 
L 34.743821 15.852923 
L 34.989013 16.220634 
L 35.199019 16.623434 
L 35.409026 17.026235 
" style="fill:none;stroke:#ff0000;stroke-linecap:square;stroke-width:0.4;"/>
   </g>
   <g id="line2d_32">
    <path clip-path="url(#p95a43c9586)" d="M 35.409026 17.026235 
L 35.591182 17.314953 
L 35.773339 17.60367 
L 35.955495 17.892388 
L 36.137651 18.181105 
L 36.319808 18.469823 
L 36.501964 18.75854 
L 36.684121 19.047258 
L 36.866277 19.335975 
L 37.033268 19.63677 
L 37.200258 19.937565 
L 37.368434 20.240278 
L 37.536611 20.54299 
L 37.704787 20.845703 
L 37.872963 21.148416 
L 38.041139 21.451128 
L 38.209315 21.753841 
L 38.377492 22.056554 
L 38.545668 22.359266 
L 38.713844 22.661979 
L 38.88202 22.964692 
L 39.050196 23.267404 
L 39.218373 23.570117 
L 39.386549 23.87283 
L 39.554725 24.175542 
L 39.722901 24.478255 
L 39.891077 24.780968 
L 40.0793 25.101776 
L 40.267523 25.422585 
L 40.455746 25.743393 
L 40.643969 26.064202 
L 40.832191 26.38501 
L 41.020414 26.705819 
L 41.208637 27.026627 
L 41.39686 27.347436 
L 41.585083 27.668244 
L 41.773305 27.989053 
L 41.961528 28.309862 
L 42.149751 28.63067 
L 42.337974 28.951479 
L 42.526197 29.272287 
L 42.714419 29.593096 
L 42.902642 29.913904 
" style="fill:none;stroke:#4169e1;stroke-linecap:square;stroke-width:0.4;"/>
   </g>
   <g id="line2d_33">
    <path clip-path="url(#p95a43c9586)" d="M 30.471665 10.967575 
L 30.581081 11.444718 
L 30.690496 11.921861 
L 30.799911 12.399003 
L 30.909326 12.876146 
L 31.079515 13.440851 
L 31.249704 14.005555 
L 31.419894 14.57026 
L 31.590083 15.134965 
L 31.901122 15.607374 
L 32.212161 16.079784 
L 32.5232 16.552194 
L 32.834239 17.024603 
L 33.155426 17.420794 
L 33.476612 17.816985 
L 33.797799 18.213176 
L 34.118985 18.609367 
L 34.472158 18.804565 
L 34.825331 18.999764 
L 35.178504 19.194962 
L 35.531677 19.390161 
L 35.948822 19.527012 
L 36.365967 19.663863 
L 36.783113 19.800714 
L 37.200258 19.937565 
" style="fill:none;stroke:#4169e1;stroke-linecap:square;stroke-width:0.4;"/>
   </g>
   <g id="line2d_34">
    <path clip-path="url(#p95a43c9586)" d="M 23.991022 6.770482 
L 24.429785 6.478826 
L 24.868549 6.187171 
L 25.271356 5.880664 
L 25.674163 5.574157 
L 26.059983 5.420332 
L 26.445804 5.266507 
L 26.831625 5.112682 
L 27.217446 4.958857 
L 27.684887 4.952818 
L 28.152328 4.94678 
L 28.577856 4.994763 
L 29.003384 5.042747 
L 29.428912 5.09073 
L 29.85444 5.138714 
L 30.215555 5.093831 
L 30.576669 5.048949 
L 30.804323 4.856362 
" style="fill:none;stroke:#008000;stroke-linecap:square;stroke-width:0.4;"/>
   </g>
   <g id="line2d_35">
    <path clip-path="url(#p95a43c9586)" d="M 26.427274 4.260974 
L 26.628457 3.989556 
L 26.82964 3.718139 
L 27.223623 3.438072 
L 27.617606 3.158004 
L 27.921034 3.024009 
L 28.224463 2.890015 
L 28.527891 2.75602 
L 28.83132 2.622025 
L 29.314423 2.639325 
L 29.770394 2.635897 
L 30.226364 2.63247 
L 30.545896 2.687186 
L 30.865428 2.741902 
L 31.18496 2.796618 
L 31.504492 2.851334 
L 31.824024 2.90605 
L 32.143556 2.960766 
L 32.463088 3.015482 
L 32.78262 3.070198 
L 33.307857 3.210395 
L 33.833094 3.350591 
L 34.288402 3.525634 
L 34.743711 3.700676 
L 35.199019 3.875718 
L 35.654327 4.05076 
L 36.151328 4.224578 
L 36.648329 4.398396 
L 37.077718 4.510194 
L 37.507106 4.621993 
L 37.936494 4.733791 
L 38.365883 4.84559 
L 38.772109 4.949962 
L 39.178335 5.054335 
L 39.584561 5.158707 
L 39.990786 5.26308 
L 40.440801 5.365738 
L 40.890815 5.468397 
L 41.340829 5.571056 
L 41.790843 5.673714 
L 42.217584 5.718923 
L 42.644325 5.764132 
L 43.071067 5.809341 
L 43.497808 5.85455 
L 44.040472 5.994584 
L 44.348423 6.362132 
L 44.553356 6.834949 
L 44.758288 7.307767 
L 45.056092 7.658015 
L 45.546254 7.728195 
L 46.124213 7.763121 
L 46.570477 7.868228 
L 47.016741 7.973335 
L 47.369032 8.033804 
L 47.721322 8.094273 
L 48.073613 8.154742 
L 48.425903 8.215212 
" style="fill:none;stroke:#008000;stroke-linecap:square;stroke-width:0.4;"/>
   </g>
   <g id="line2d_36">
    <path clip-path="url(#p95a43c9586)" d="M 47.690439 8.548159 
L 47.913019 9.036808 
L 48.1356 9.525457 
L 48.300715 9.808135 
L 48.465831 10.090814 
L 48.630946 10.373493 
L 48.796062 10.656172 
L 49.105777 10.858062 
L 49.415493 11.059952 
L 49.826903 11.355198 
L 50.238313 11.650443 
L 50.6934 11.851844 
L 51.148488 12.053244 
L 51.717403 12.153455 
L 52.286318 12.253665 
" style="fill:none;stroke:#000000;stroke-linecap:square;stroke-width:0.4;"/>
   </g>
  </g>
 </g>
 <defs>
  <clipPath id="p95a43c9586">
   <rect height="45.203591" width="72" x="0" y="0"/>
  </clipPath>
 </defs>
</svg>
