<?xml version="1.0" encoding="utf-8" standalone="no"?>
<!DOCTYPE svg PUBLIC "-//W3C//DTD SVG 1.1//EN"
  "http://www.w3.org/Graphics/SVG/1.1/DTD/svg11.dtd">
<svg height="72pt" version="1.1" viewBox="0 0 73.400846 72" width="73.400846pt" xmlns="http://www.w3.org/2000/svg" xmlns:xlink="http://www.w3.org/1999/xlink">
 <metadata>
  <rdf:RDF xmlns:cc="http://creativecommons.org/ns#" xmlns:dc="http://purl.org/dc/elements/1.1/" xmlns:rdf="http://www.w3.org/1999/02/22-rdf-syntax-ns#">
   <cc:Work>
    <dc:type rdf:resource="http://purl.org/dc/dcmitype/StillImage"/>
    <dc:date>2022-04-19T00:51:10.840219</dc:date>
    <dc:format>image/svg+xml</dc:format>
    <dc:creator>
     <cc:Agent>
      <dc:title>Matplotlib v3.4.3, https://matplotlib.org/</dc:title>
     </cc:Agent>
    </dc:creator>
   </cc:Work>
  </rdf:RDF>
 </metadata>
 <defs>
  <style type="text/css">*{stroke-linecap:butt;stroke-linejoin:round;}</style>
 </defs>
 <g id="figure_1">
  <g id="patch_1">
   <path d="M 0 72 
L 73.400846 72 
L 73.400846 0 
L 0 0 
z
" style="fill:#ffffff;"/>
  </g>
  <g id="axes_1">
   <g id="patch_2">
    <path clip-path="url(#pc196db1975)" d="M 32.390889 16.200558 
L 32.390889 16.200558 
L 32.037404 16.563944 
L 31.683918 16.927331 
L 31.330433 17.290717 
L 30.976948 17.654104 
L 30.782793 17.982755 
L 30.588639 18.311406 
L 30.394484 18.640057 
L 30.20033 18.968708 
L 29.802002 19.386869 
L 29.403674 19.805031 
L 28.985471 20.193356 
L 28.567267 20.581681 
L 28.134116 20.671303 
L 27.700965 20.760925 
L 27.267814 20.850547 
L 26.834663 20.940169 
L 26.376708 20.999842 
L 26.625642 20.591589 
L 26.874577 20.183336 
L 27.123511 19.775083 
L 27.372446 19.36683 
L 27.666223 19.287116 
L 27.959999 19.207403 
L 28.253776 19.127689 
L 28.547553 19.047976 
L 28.764128 18.741814 
L 28.980704 18.435652 
L 29.197279 18.12949 
L 29.413855 17.823328 
L 29.63043 17.517166 
L 29.847006 17.211004 
L 30.063581 16.904842 
L 30.280157 16.59868 
L 30.548967 16.319905 
L 30.817778 16.041131 
L 31.086589 15.762356 
L 31.355399 15.483582 
L 31.693937 15.304338 
L 32.032475 15.125094 
L 32.371013 14.94585 
L 32.709552 14.766606 
z
" style="opacity:0.1;"/>
   </g>
   <g id="patch_3">
    <path clip-path="url(#pc196db1975)" d="M 32.390889 16.200558 
L 32.390889 16.200558 
L 32.037404 16.563944 
L 31.683918 16.927331 
L 31.330433 17.290717 
L 30.976948 17.654104 
L 30.782793 17.982755 
L 30.588639 18.311406 
L 30.394484 18.640057 
L 30.20033 18.968708 
L 29.802002 19.386869 
L 29.403674 19.805031 
L 28.985471 20.193356 
L 28.567267 20.581681 
L 28.134116 20.671303 
L 27.700965 20.760925 
L 27.267814 20.850547 
L 26.834663 20.940169 
L 26.376708 20.999842 
L 26.625642 20.591589 
L 26.874577 20.183336 
L 27.123511 19.775083 
L 27.372446 19.36683 
L 27.666223 19.287116 
L 27.959999 19.207403 
L 28.253776 19.127689 
L 28.547553 19.047976 
L 28.764128 18.741814 
L 28.980704 18.435652 
L 29.197279 18.12949 
L 29.413855 17.823328 
L 29.63043 17.517166 
L 29.847006 17.211004 
L 30.063581 16.904842 
L 30.280157 16.59868 
L 30.548967 16.319905 
L 30.817778 16.041131 
L 31.086589 15.762356 
L 31.355399 15.483582 
L 31.693937 15.304338 
L 32.032475 15.125094 
L 32.371013 14.94585 
L 32.709552 14.766606 
z
" style="fill:none;stroke:#000000;stroke-dasharray:1.48,0.64;stroke-dashoffset:0;stroke-linejoin:miter;stroke-width:0.4;"/>
   </g>
   <g id="patch_4">
    <path clip-path="url(#pc196db1975)" d="M 19.151868 27.737633 
L 19.151868 27.737633 
L 18.88128 28.032106 
L 18.610692 28.326578 
L 18.340104 28.62105 
L 18.069516 28.915522 
L 18.015382 29.219346 
L 17.961248 29.52317 
L 17.907114 29.826994 
L 17.852981 30.130818 
L 17.763862 30.630697 
L 17.674743 31.130577 
L 17.585624 31.630456 
L 17.496506 32.130335 
L 17.687509 32.655486 
L 17.878512 33.180637 
L 18.069516 33.705789 
L 18.260519 34.23094 
L 18.292353 34.55319 
L 18.324187 34.875439 
L 18.356021 35.197689 
L 18.387855 35.519938 
L 18.419689 35.842187 
L 18.451522 36.164437 
L 18.483356 36.486686 
L 18.51519 36.808936 
L 18.578858 37.238676 
L 18.642526 37.668416 
L 18.706194 38.098156 
L 18.769861 38.527896 
L 18.809613 38.854098 
L 18.849365 39.1803 
L 18.889117 39.506501 
L 18.928869 39.832703 
L 19.18354 40.373775 
L 19.438212 40.914847 
L 19.366626 41.368412 
L 19.29504 41.821977 
L 19.223454 42.275542 
L 19.151868 42.729107 
L 19.127952 43.111086 
L 19.104036 43.493065 
L 19.080121 43.875044 
L 19.056205 44.257023 
L 19.263125 44.615065 
L 19.470045 44.973108 
L 19.676966 45.33115 
L 19.883886 45.689193 
L 20.154474 45.864206 
L 20.425062 46.03922 
L 20.69565 46.214233 
L 20.966238 46.389246 
L 21.093574 46.962159 
L 21.22091 47.535072 
L 21.121408 47.965313 
L 21.021907 48.395554 
L 20.922406 48.825795 
L 20.822905 49.256036 
L 20.723404 49.686277 
L 20.623903 50.116518 
L 20.524402 50.54676 
L 20.424901 50.977001 
L 20.599987 51.222487 
L 20.775073 51.467973 
L 20.95016 51.71346 
L 21.125246 51.958946 
L 21.300414 51.561269 
L 21.475581 51.163593 
L 21.594917 50.773709 
L 21.714254 50.383826 
L 21.833591 49.993942 
L 21.952928 49.604059 
L 22.303262 49.158287 
L 22.245563 48.833046 
L 22.187864 48.507804 
L 22.130165 48.182563 
L 22.072466 47.857321 
L 22.014767 47.53208 
L 21.957068 47.206838 
L 21.899369 46.881597 
L 21.84167 46.556355 
L 21.783972 46.231114 
L 21.726273 45.905872 
L 21.668574 45.580631 
L 21.610875 45.255389 
L 21.553176 44.930148 
L 21.495477 44.604906 
L 21.437778 44.279665 
L 21.380079 43.954423 
L 21.32238 43.629182 
L 21.264681 43.30394 
L 21.206982 42.978699 
L 21.149283 42.653457 
L 21.091584 42.328216 
L 21.033885 42.002974 
L 20.976187 41.677733 
L 20.918488 41.352491 
L 20.860789 41.02725 
L 20.80309 40.702008 
L 20.745391 40.376767 
L 20.687692 40.051526 
L 20.629993 39.726284 
L 20.572294 39.401043 
L 20.514595 39.075801 
L 20.456896 38.75056 
L 20.414397 38.371141 
L 20.371898 37.991723 
L 20.329399 37.612305 
L 20.2869 37.232887 
L 20.244401 36.853468 
L 20.201902 36.47405 
L 20.159403 36.094632 
L 20.116904 35.715214 
L 20.074405 35.335795 
L 20.031906 34.956377 
L 19.989407 34.576959 
L 19.946907 34.197541 
L 19.904408 33.818122 
L 19.861909 33.438704 
L 19.81941 33.059286 
L 19.776911 32.679868 
z
" style="opacity:0.1;"/>
   </g>
   <g id="patch_5">
    <path clip-path="url(#pc196db1975)" d="M 19.151868 27.737633 
L 19.151868 27.737633 
L 18.88128 28.032106 
L 18.610692 28.326578 
L 18.340104 28.62105 
L 18.069516 28.915522 
L 18.015382 29.219346 
L 17.961248 29.52317 
L 17.907114 29.826994 
L 17.852981 30.130818 
L 17.763862 30.630697 
L 17.674743 31.130577 
L 17.585624 31.630456 
L 17.496506 32.130335 
L 17.687509 32.655486 
L 17.878512 33.180637 
L 18.069516 33.705789 
L 18.260519 34.23094 
L 18.292353 34.55319 
L 18.324187 34.875439 
L 18.356021 35.197689 
L 18.387855 35.519938 
L 18.419689 35.842187 
L 18.451522 36.164437 
L 18.483356 36.486686 
L 18.51519 36.808936 
L 18.578858 37.238676 
L 18.642526 37.668416 
L 18.706194 38.098156 
L 18.769861 38.527896 
L 18.809613 38.854098 
L 18.849365 39.1803 
L 18.889117 39.506501 
L 18.928869 39.832703 
L 19.18354 40.373775 
L 19.438212 40.914847 
L 19.366626 41.368412 
L 19.29504 41.821977 
L 19.223454 42.275542 
L 19.151868 42.729107 
L 19.127952 43.111086 
L 19.104036 43.493065 
L 19.080121 43.875044 
L 19.056205 44.257023 
L 19.263125 44.615065 
L 19.470045 44.973108 
L 19.676966 45.33115 
L 19.883886 45.689193 
L 20.154474 45.864206 
L 20.425062 46.03922 
L 20.69565 46.214233 
L 20.966238 46.389246 
L 21.093574 46.962159 
L 21.22091 47.535072 
L 21.121408 47.965313 
L 21.021907 48.395554 
L 20.922406 48.825795 
L 20.822905 49.256036 
L 20.723404 49.686277 
L 20.623903 50.116518 
L 20.524402 50.54676 
L 20.424901 50.977001 
L 20.599987 51.222487 
L 20.775073 51.467973 
L 20.95016 51.71346 
L 21.125246 51.958946 
L 21.300414 51.561269 
L 21.475581 51.163593 
L 21.594917 50.773709 
L 21.714254 50.383826 
L 21.833591 49.993942 
L 21.952928 49.604059 
L 22.303262 49.158287 
L 22.245563 48.833046 
L 22.187864 48.507804 
L 22.130165 48.182563 
L 22.072466 47.857321 
L 22.014767 47.53208 
L 21.957068 47.206838 
L 21.899369 46.881597 
L 21.84167 46.556355 
L 21.783972 46.231114 
L 21.726273 45.905872 
L 21.668574 45.580631 
L 21.610875 45.255389 
L 21.553176 44.930148 
L 21.495477 44.604906 
L 21.437778 44.279665 
L 21.380079 43.954423 
L 21.32238 43.629182 
L 21.264681 43.30394 
L 21.206982 42.978699 
L 21.149283 42.653457 
L 21.091584 42.328216 
L 21.033885 42.002974 
L 20.976187 41.677733 
L 20.918488 41.352491 
L 20.860789 41.02725 
L 20.80309 40.702008 
L 20.745391 40.376767 
L 20.687692 40.051526 
L 20.629993 39.726284 
L 20.572294 39.401043 
L 20.514595 39.075801 
L 20.456896 38.75056 
L 20.414397 38.371141 
L 20.371898 37.991723 
L 20.329399 37.612305 
L 20.2869 37.232887 
L 20.244401 36.853468 
L 20.201902 36.47405 
L 20.159403 36.094632 
L 20.116904 35.715214 
L 20.074405 35.335795 
L 20.031906 34.956377 
L 19.989407 34.576959 
L 19.946907 34.197541 
L 19.904408 33.818122 
L 19.861909 33.438704 
L 19.81941 33.059286 
L 19.776911 32.679868 
z
" style="fill:none;stroke:#000000;stroke-dasharray:1.48,0.64;stroke-dashoffset:0;stroke-linejoin:miter;stroke-width:0.4;"/>
   </g>
   <g id="patch_6">
    <path clip-path="url(#pc196db1975)" d="M 19.562962 59.216878 
L 19.562962 59.216878 
L 19.484508 58.861062 
L 19.406054 58.505247 
L 19.327601 58.149431 
L 19.249147 57.793615 
L 18.833933 57.547794 
L 18.418719 57.301974 
L 18.003505 57.056154 
L 17.588291 56.810334 
L 17.173077 56.564513 
L 16.757862 56.318693 
L 16.342648 56.072873 
L 15.927434 55.827052 
L 15.927434 55.506807 
L 15.927434 55.186562 
L 15.927434 54.866316 
L 15.927434 54.546071 
L 15.927434 54.225825 
L 15.927434 53.90558 
L 15.927434 53.585334 
L 15.927434 53.265089 
L 16.162593 53.06703 
L 16.397752 52.868971 
L 16.63291 52.670912 
L 16.868069 52.472853 
L 17.103228 52.274794 
L 17.338387 52.076735 
L 17.573545 51.878676 
L 17.808704 51.680617 
L 17.843043 51.308992 
L 17.877381 50.937367 
L 17.91172 50.565742 
L 17.946058 50.194117 
L 17.463702 50.315134 
L 16.981346 50.436152 
L 16.49899 50.557169 
L 16.016634 50.678187 
L 15.637293 50.936476 
L 15.257953 51.194765 
L 14.878612 51.453055 
L 14.499272 51.711344 
L 14.456854 52.034874 
L 14.414435 52.358404 
L 14.372017 52.681934 
L 14.329599 53.005463 
L 14.287181 53.328993 
L 14.244762 53.652523 
L 14.202344 53.976053 
L 14.159926 54.299582 
L 14.223755 54.691915 
L 14.287585 55.084248 
L 14.351414 55.47658 
L 14.415243 55.868913 
L 14.772284 56.252117 
L 15.129324 56.63532 
L 15.486365 57.018524 
L 15.843406 57.401727 
L 16.200446 57.784931 
L 16.557487 58.168134 
L 16.914527 58.551338 
L 17.271568 58.934541 
z
" style="fill:#4169e1;opacity:0.1;"/>
   </g>
   <g id="patch_7">
    <path clip-path="url(#pc196db1975)" d="M 19.562962 59.216878 
L 19.562962 59.216878 
L 19.484508 58.861062 
L 19.406054 58.505247 
L 19.327601 58.149431 
L 19.249147 57.793615 
L 18.833933 57.547794 
L 18.418719 57.301974 
L 18.003505 57.056154 
L 17.588291 56.810334 
L 17.173077 56.564513 
L 16.757862 56.318693 
L 16.342648 56.072873 
L 15.927434 55.827052 
L 15.927434 55.506807 
L 15.927434 55.186562 
L 15.927434 54.866316 
L 15.927434 54.546071 
L 15.927434 54.225825 
L 15.927434 53.90558 
L 15.927434 53.585334 
L 15.927434 53.265089 
L 16.162593 53.06703 
L 16.397752 52.868971 
L 16.63291 52.670912 
L 16.868069 52.472853 
L 17.103228 52.274794 
L 17.338387 52.076735 
L 17.573545 51.878676 
L 17.808704 51.680617 
L 17.843043 51.308992 
L 17.877381 50.937367 
L 17.91172 50.565742 
L 17.946058 50.194117 
L 17.463702 50.315134 
L 16.981346 50.436152 
L 16.49899 50.557169 
L 16.016634 50.678187 
L 15.637293 50.936476 
L 15.257953 51.194765 
L 14.878612 51.453055 
L 14.499272 51.711344 
L 14.456854 52.034874 
L 14.414435 52.358404 
L 14.372017 52.681934 
L 14.329599 53.005463 
L 14.287181 53.328993 
L 14.244762 53.652523 
L 14.202344 53.976053 
L 14.159926 54.299582 
L 14.223755 54.691915 
L 14.287585 55.084248 
L 14.351414 55.47658 
L 14.415243 55.868913 
L 14.772284 56.252117 
L 15.129324 56.63532 
L 15.486365 57.018524 
L 15.843406 57.401727 
L 16.200446 57.784931 
L 16.557487 58.168134 
L 16.914527 58.551338 
L 17.271568 58.934541 
z
" style="fill:none;stroke:#4169e1;stroke-dasharray:1.48,0.64;stroke-dashoffset:0;stroke-linejoin:miter;stroke-width:0.4;"/>
   </g>
   <g id="patch_8">
    <path clip-path="url(#pc196db1975)" d="M 63.220318 38.359563 
L 63.220318 38.359563 
L 63.220318 38.815355 
L 63.220318 39.271146 
L 63.220318 39.751208 
L 63.220318 40.23127 
L 63.220318 40.748963 
L 63.220318 41.266655 
L 62.642784 41.186941 
L 62.065249 41.107228 
L 61.78642 40.957932 
L 61.50759 40.808636 
L 61.228761 40.659341 
L 60.949932 40.510045 
L 60.571642 40.510045 
L 60.193351 40.510045 
L 59.65565 40.609575 
L 59.117948 40.709106 
L 58.580246 40.808636 
L 58.042544 40.908167 
L 58.241627 41.147085 
L 58.44071 41.386002 
L 58.888808 41.395911 
L 59.336907 41.405819 
L 59.785005 41.415728 
L 60.233103 41.425636 
L 60.641369 41.60488 
L 61.049635 41.784124 
L 61.4579 41.963368 
L 61.866166 42.142612 
L 62.06533 42.371621 
L 62.264494 42.600631 
L 62.463657 42.82964 
L 62.662821 43.058649 
L 62.294388 43.476811 
L 61.925956 43.894972 
L 61.557523 44.313134 
L 61.18909 44.731296 
L 60.815688 45.034953 
L 60.442286 45.33861 
L 60.068884 45.642267 
L 59.695482 45.945924 
L 59.32208 46.249581 
L 58.948679 46.553238 
L 58.575277 46.856895 
L 58.201875 47.160552 
L 57.941386 47.603596 
L 57.680898 48.046641 
L 57.420409 48.489685 
L 57.159921 48.932729 
L 56.899432 49.375773 
L 56.638944 49.818818 
L 56.378455 50.261862 
L 56.117967 50.704906 
L 56.438649 50.746322 
L 56.759331 50.787737 
L 57.080013 50.829152 
L 57.400695 50.870568 
L 57.926843 51.029772 
L 58.452991 51.188976 
L 58.567399 50.691435 
L 58.681807 50.193894 
L 58.796215 49.696353 
L 58.910623 49.198812 
L 59.242374 48.810042 
L 59.574126 48.421272 
L 59.905877 48.032501 
L 60.237628 47.643731 
L 60.490683 47.310627 
L 60.743738 46.977523 
L 60.996794 46.644418 
L 61.249849 46.311314 
L 61.502904 45.97821 
L 61.755959 45.645106 
L 62.009015 45.312001 
L 62.26207 44.978897 
L 62.515125 44.645793 
L 62.76818 44.312689 
L 63.021235 43.979584 
L 63.274291 43.64648 
L 63.527346 43.313376 
L 63.780401 42.980271 
L 64.033456 42.647167 
L 64.286511 42.314063 
L 64.266009 41.9487 
L 64.245507 41.583338 
L 64.225005 41.217975 
L 64.204503 40.852612 
L 64.184001 40.48725 
L 64.163498 40.121887 
L 64.142996 39.756524 
L 64.122494 39.391162 
L 64.101992 39.025799 
L 64.08149 38.660437 
L 64.060988 38.295074 
L 64.040486 37.929711 
L 64.019983 37.564349 
L 63.999481 37.198986 
L 63.978979 36.833624 
L 63.958477 36.468261 
z
" style="opacity:0.1;"/>
   </g>
   <g id="patch_9">
    <path clip-path="url(#pc196db1975)" d="M 63.220318 38.359563 
L 63.220318 38.359563 
L 63.220318 38.815355 
L 63.220318 39.271146 
L 63.220318 39.751208 
L 63.220318 40.23127 
L 63.220318 40.748963 
L 63.220318 41.266655 
L 62.642784 41.186941 
L 62.065249 41.107228 
L 61.78642 40.957932 
L 61.50759 40.808636 
L 61.228761 40.659341 
L 60.949932 40.510045 
L 60.571642 40.510045 
L 60.193351 40.510045 
L 59.65565 40.609575 
L 59.117948 40.709106 
L 58.580246 40.808636 
L 58.042544 40.908167 
L 58.241627 41.147085 
L 58.44071 41.386002 
L 58.888808 41.395911 
L 59.336907 41.405819 
L 59.785005 41.415728 
L 60.233103 41.425636 
L 60.641369 41.60488 
L 61.049635 41.784124 
L 61.4579 41.963368 
L 61.866166 42.142612 
L 62.06533 42.371621 
L 62.264494 42.600631 
L 62.463657 42.82964 
L 62.662821 43.058649 
L 62.294388 43.476811 
L 61.925956 43.894972 
L 61.557523 44.313134 
L 61.18909 44.731296 
L 60.815688 45.034953 
L 60.442286 45.33861 
L 60.068884 45.642267 
L 59.695482 45.945924 
L 59.32208 46.249581 
L 58.948679 46.553238 
L 58.575277 46.856895 
L 58.201875 47.160552 
L 57.941386 47.603596 
L 57.680898 48.046641 
L 57.420409 48.489685 
L 57.159921 48.932729 
L 56.899432 49.375773 
L 56.638944 49.818818 
L 56.378455 50.261862 
L 56.117967 50.704906 
L 56.438649 50.746322 
L 56.759331 50.787737 
L 57.080013 50.829152 
L 57.400695 50.870568 
L 57.926843 51.029772 
L 58.452991 51.188976 
L 58.567399 50.691435 
L 58.681807 50.193894 
L 58.796215 49.696353 
L 58.910623 49.198812 
L 59.242374 48.810042 
L 59.574126 48.421272 
L 59.905877 48.032501 
L 60.237628 47.643731 
L 60.490683 47.310627 
L 60.743738 46.977523 
L 60.996794 46.644418 
L 61.249849 46.311314 
L 61.502904 45.97821 
L 61.755959 45.645106 
L 62.009015 45.312001 
L 62.26207 44.978897 
L 62.515125 44.645793 
L 62.76818 44.312689 
L 63.021235 43.979584 
L 63.274291 43.64648 
L 63.527346 43.313376 
L 63.780401 42.980271 
L 64.033456 42.647167 
L 64.286511 42.314063 
L 64.266009 41.9487 
L 64.245507 41.583338 
L 64.225005 41.217975 
L 64.204503 40.852612 
L 64.184001 40.48725 
L 64.163498 40.121887 
L 64.142996 39.756524 
L 64.122494 39.391162 
L 64.101992 39.025799 
L 64.08149 38.660437 
L 64.060988 38.295074 
L 64.040486 37.929711 
L 64.019983 37.564349 
L 63.999481 37.198986 
L 63.978979 36.833624 
L 63.958477 36.468261 
z
" style="fill:none;stroke:#000000;stroke-dasharray:1.48,0.64;stroke-dashoffset:0;stroke-linejoin:miter;stroke-width:0.4;"/>
   </g>
   <g id="line2d_1">
    <path clip-path="url(#pc196db1975)" d="M 29.308334 65.981389 
L 29.415956 65.247936 
L 29.458939 64.955357 
L 29.605343 63.958716 
L 29.819131 62.502943 
L 30.032919 61.047171 
L 30.179323 60.050752 
L 30.325726 59.054334 
L 30.47213 58.057916 
L 30.618533 57.061498 
L 30.774067 56.002511 
L 30.929601 54.943525 
L 31.085134 53.884538 
L 31.240668 52.825551 
L 31.494854 51.09479 
L 31.749041 49.364028 
L 32.00355 47.63193 
L 32.25806 45.899832 
L 32.418684 44.805888 
L 32.579307 43.711943 
L 32.739931 42.617998 
L 32.900555 41.524054 
L 33.157812 39.772361 
L 33.415068 38.020669 
L 33.649863 36.421724 
L 33.884659 34.822779 
L 34.042131 33.750544 
L 34.199604 32.678309 
L 34.357077 31.606074 
L 34.51455 30.533839 
L 34.739083 29.004921 
L 34.963617 27.476004 
L 35.188151 25.947087 
L 35.412685 24.418169 
L 35.561998 23.402045 
L 35.71131 22.385921 
L 35.860622 21.369797 
L 36.009935 20.353673 
L 36.164175 19.302925 
L 36.318416 18.252177 
L 36.472657 17.201429 
L 36.626898 16.150681 
L 36.911302 14.214401 
L 37.128807 12.73369 
" style="fill:none;stroke:#808080;stroke-linecap:square;stroke-width:0.4;"/>
   </g>
   <g id="line2d_2">
    <path clip-path="url(#pc196db1975)" d="M 31.310153 64.616463 
L 32.049766 63.621158 
L 32.789379 62.625853 
L 33.902757 61.127107 
L 35.016135 59.62836 
L 36.149713 58.102671 
L 37.28329 56.576982 
L 37.950105 55.679427 
L 38.61692 54.781871 
L 39.283735 53.884315 
L 39.95055 52.98676 
L 40.643544 52.054023 
L 41.336537 51.121287 
L 42.02953 50.18855 
L 42.722523 49.255814 
L 43.386268 48.362488 
L 44.050013 47.469163 
L 44.713757 46.575838 
L 45.377502 45.682513 
L 46.024522 44.811566 
L 46.671542 43.940618 
L 47.318562 43.069671 
L 47.965581 42.198723 
L 48.778962 41.103888 
L 49.592342 40.009052 
L 50.405722 38.914217 
L 51.219102 37.819382 
L 51.951443 36.833651 
L 52.683785 35.847921 
L 53.754825 34.406176 
L 54.825866 32.964431 
L 55.603615 31.91758 
L 56.381364 30.870728 
L 57.159113 29.823877 
L 57.936862 28.777026 
L 58.67098 27.788846 
L 59.405099 26.800666 
L 60.139218 25.812487 
L 60.873336 24.824307 
L 61.05626 24.577596 
L 61.428894 24.076158 
" style="fill:none;stroke:#808080;stroke-linecap:square;stroke-width:0.4;"/>
   </g>
   <g id="line2d_3">
    <path clip-path="url(#pc196db1975)" d="M 30.47213 66.912122 
L 31.216914 67.819697 
L 31.961697 68.727273 
" style="fill:none;stroke:#808080;stroke-linecap:square;stroke-width:0.4;"/>
   </g>
   <g id="line2d_4">
    <path clip-path="url(#pc196db1975)" d="M 33.203058 68.293079 
L 34.523276 67.899411 
L 35.753971 67.532016 
L 37.48302 67.016105 
L 39.212069 66.500195 
L 41.012865 65.963131 
L 42.152422 65.623124 
L 43.291978 65.283117 
L 44.680065 64.868963 
L 46.076555 64.452138 
L 47.112853 64.143081 
L 48.149151 63.834024 
L 49.616096 63.396268 
L 49.94607 63.297851 
" style="fill:none;stroke:#808080;stroke-linecap:square;stroke-width:0.4;"/>
   </g>
   <g id="line2d_5">
    <path clip-path="url(#pc196db1975)" d="M 37.117495 11.64843 
L 36.857411 11.449035 
L 36.597326 11.24964 
L 36.337242 11.050245 
L 36.077157 10.85085 
L 35.687071 10.443487 
L 35.296985 10.036125 
L 34.906898 9.628762 
L 34.516812 9.2214 
L 34.300115 8.995953 
L 34.083418 8.770507 
L 33.866722 8.54506 
L 33.650025 8.319613 
L 33.207906 8.336981 
L 32.765786 8.354349 
L 32.323667 8.371717 
L 31.881547 8.389084 
L 31.67697 8.856677 
L 31.472393 9.32427 
L 31.267816 9.791863 
L 31.063238 10.259456 
L 30.910694 10.608147 
L 30.624674 11.067612 
L 30.338654 11.527078 
L 30.052633 11.986544 
L 29.766613 12.446009 
L 29.549593 12.749945 
L 29.332573 13.05388 
L 29.115554 13.357816 
L 28.898534 13.661751 
L 28.784126 13.98773 
L 28.669717 14.313709 
L 28.555309 14.639688 
L 28.440901 14.965667 
L 28.463847 15.434596 
L 28.486794 15.903525 
L 28.41238 16.275261 
L 28.337966 16.646998 
L 28.263552 17.018734 
L 28.189139 17.39047 
L 27.989005 17.653547 
L 27.788872 17.916624 
L 27.588739 18.1797 
L 27.388605 18.442777 
L 27.165526 18.745822 
L 26.942446 19.048867 
L 26.719366 19.351911 
L 26.496287 19.654956 
L 26.279671 19.982104 
L 26.063055 20.309252 
L 25.846439 20.6364 
L 25.629823 20.963548 
L 25.413207 21.290696 
L 25.196591 21.617844 
L 24.979975 21.944992 
L 24.763359 22.27214 
L 24.537209 22.606469 
L 24.31106 22.940798 
L 24.08491 23.275127 
L 23.85876 23.609456 
" style="fill:none;stroke:#008000;stroke-linecap:square;stroke-width:0.4;"/>
   </g>
   <g id="line2d_6">
    <path clip-path="url(#pc196db1975)" d="M 31.431025 7.825301 
L 31.145005 7.567902 
L 30.858984 7.310503 
L 30.572964 7.053105 
L 30.286944 6.795706 
L 29.886677 6.549774 
L 29.48641 6.303843 
L 29.086144 6.057911 
L 28.685877 5.811979 
L 28.219034 5.656338 
L 27.75219 5.500696 
L 27.42965 5.393372 
L 27.10711 5.286049 
L 26.69537 4.897056 
L 26.28363 4.508063 
L 26.07776 4.004844 
L 25.87189 3.501625 
L 25.517354 3.444401 
L 25.162818 3.387176 
L 24.808282 3.329952 
L 24.453746 3.272727 
L 24.047662 3.610173 
L 23.641578 3.94762 
L 23.235494 4.285066 
L 22.82941 4.622512 
L 22.40046 4.988571 
L 21.971511 5.354629 
L 21.542561 5.720687 
L 21.113612 6.086746 
L 20.679006 6.36129 
L 20.244401 6.635834 
L 19.809795 6.910377 
L 19.37519 7.184921 
L 19.107915 7.437867 
L 18.840639 7.690812 
L 18.573364 7.943758 
L 18.306088 8.196703 
L 17.98274 8.502865 
L 17.659392 8.809027 
L 17.427748 9.060637 
L 17.196104 9.312246 
L 16.964459 9.563856 
L 16.732815 9.815465 
L 16.501171 10.067075 
L 16.269527 10.318684 
L 16.037883 10.570294 
L 15.806239 10.821903 
L 15.517431 11.024917 
L 15.228624 11.22793 
L 14.939816 11.430943 
L 14.651008 11.633956 
L 14.3622 11.83697 
L 14.073393 12.039983 
L 13.784585 12.242996 
L 13.495777 12.446009 
L 13.355676 12.817746 
L 13.215574 13.189482 
L 13.075473 13.561218 
L 12.935371 13.932955 
L 12.79527 14.304691 
L 12.655168 14.676428 
L 12.515067 15.048164 
L 12.374965 15.4199 
L 12.269162 15.811676 
L 12.163359 16.203452 
L 12.057556 16.595228 
L 11.951752 16.987005 
L 11.845949 17.378781 
L 11.740146 17.770557 
L 11.634343 18.162333 
L 11.528539 18.554109 
L 11.388398 18.822863 
L 11.248256 19.091618 
L 11.108114 19.360372 
L 10.967972 19.629127 
L 10.82783 19.897882 
L 10.687688 20.166636 
L 10.547546 20.435391 
L 10.407405 20.704145 
L 10.136594 21.022637 
L 9.865784 21.341129 
L 9.594974 21.659621 
L 9.324164 21.978113 
L 9.053353 22.296605 
L 8.782543 22.615097 
L 8.511733 22.933589 
L 8.240922 23.252081 
L 7.970112 23.570573 
L 7.699302 23.889065 
L 7.428492 24.207557 
L 7.157681 24.526049 
L 6.886871 24.844541 
L 6.616061 25.163033 
L 6.34525 25.481525 
L 6.07444 25.800017 
" style="fill:none;stroke:#4169e1;stroke-linecap:square;stroke-width:0.4;"/>
   </g>
   <g id="line2d_7">
    <path clip-path="url(#pc196db1975)" d="M 27.75219 5.500696 
L 27.373496 5.799622 
L 26.994802 6.098547 
L 26.616108 6.397473 
L 26.237414 6.696398 
L 25.739545 6.905479 
L 25.241676 7.11456 
L 24.743807 7.32364 
L 24.245937 7.532721 
L 23.897381 7.572578 
L 23.548824 7.612435 
L 23.200267 7.652291 
L 22.85171 7.692148 
L 22.373878 7.732005 
L 21.896047 7.771862 
L 21.487781 7.921157 
L 21.079515 8.070453 
L 20.67125 8.219749 
L 20.262984 8.369045 
L 19.77376 8.325959 
L 19.284536 8.282874 
L 18.795312 8.239789 
L 18.306088 8.196703 
" style="fill:none;stroke:#4169e1;stroke-linecap:square;stroke-width:0.4;"/>
   </g>
   <g id="line2d_8">
    <path clip-path="url(#pc196db1975)" d="M 20.262984 8.369045 
L 20.104138 8.80925 
L 19.945292 9.249455 
L 19.786445 9.689661 
L 19.627599 10.129866 
L 19.627599 10.476887 
L 19.627599 10.823907 
L 19.627599 11.170928 
L 19.627599 11.517949 
L 19.559649 11.865081 
L 19.491699 12.212213 
L 19.423749 12.559345 
L 19.355799 12.906477 
L 19.355799 13.480058 
L 19.129407 13.766848 
L 18.903014 14.053638 
L 19.084322 14.415689 
L 18.993668 14.913787 
L 18.903014 15.411884 
L 18.804927 15.728846 
L 18.70684 16.045807 
L 18.608753 16.362768 
L 18.510666 16.679729 
L 18.148535 16.966519 
L 17.786404 17.25331 
L 17.484548 17.336252 
L 17.182691 17.419194 
L 16.880835 17.502136 
L 16.578979 17.585078 
L 16.111004 17.811527 
L 15.64303 18.037975 
L 15.250681 18.158659 
L 14.858332 18.279342 
L 14.481012 18.671898 
L 14.103691 19.064453 
L 13.971629 19.351188 
L 13.839567 19.637922 
L 13.707505 19.924657 
L 13.575443 20.211392 
L 13.44338 20.498126 
L 13.311318 20.784861 
L 13.179256 21.071596 
L 13.047194 21.35833 
L 12.899094 21.861995 
L 12.750993 22.365659 
L 12.602893 22.869323 
L 12.454793 23.372988 
" style="fill:none;stroke:#008000;stroke-linecap:square;stroke-width:0.4;"/>
   </g>
   <g id="line2d_9">
    <path clip-path="url(#pc196db1975)" d="M 19.285344 25.21085 
L 19.207375 24.838112 
L 19.129407 24.465374 
L 19.051438 24.092635 
L 18.973469 23.719897 
L 18.635335 23.563921 
L 18.297201 23.407946 
L 17.959067 23.25197 
L 17.620933 23.095994 
L 17.256863 23.139302 
L 16.892793 23.18261 
L 16.528723 23.225919 
L 16.164653 23.269227 
L 15.861262 23.468621 
L 15.55787 23.668016 
L 15.254478 23.867411 
L 14.951087 24.066806 
L 14.656341 23.980079 
L 14.361594 23.893352 
L 14.066848 23.806624 
L 13.772102 23.719897 
L 13.442774 23.63317 
L 13.113447 23.546442 
L 12.78412 23.459715 
L 12.454793 23.372988 
L 12.147038 23.451031 
L 11.839283 23.529075 
L 11.531529 23.607118 
L 11.223774 23.685162 
L 10.91602 23.763205 
L 10.608265 23.841248 
L 10.300511 23.919292 
L 9.992756 23.997335 
L 9.502967 24.222671 
L 9.013177 24.448006 
L 8.523388 24.673341 
L 8.033598 24.898676 
L 7.543809 25.124012 
L 7.054019 25.349347 
L 6.56423 25.574682 
L 6.07444 25.800017 
" style="fill:none;stroke:#000000;stroke-linecap:square;stroke-width:0.4;"/>
   </g>
   <g id="line2d_10">
    <path clip-path="url(#pc196db1975)" d="M 6.07444 25.800017 
L 5.733074 26.288207 
L 5.391708 26.776396 
L 5.050342 27.264585 
L 4.708976 27.752774 
L 4.400171 28.130189 
L 4.091366 28.507603 
L 3.782561 28.885017 
L 3.473756 29.262432 
L 3.439418 29.582621 
L 3.405079 29.902811 
L 3.370741 30.223001 
L 3.336402 30.543191 
L 3.542272 30.932072 
L 3.748142 31.320954 
L 3.954012 31.709835 
L 4.159882 32.098717 
L 4.114151 32.579001 
L 4.06842 33.059286 
L 4.171355 33.482458 
L 4.27429 33.905629 
L 4.377225 34.328801 
L 4.48016 34.751972 
L 4.646036 35.02646 
L 4.811911 35.300949 
L 4.977787 35.575437 
L 5.143662 35.849925 
L 5.309538 36.124413 
L 5.475413 36.398901 
L 5.641289 36.673389 
L 5.807165 36.947878 
L 5.83003 37.273857 
L 5.852896 37.599836 
L 5.875761 37.925815 
L 5.898627 38.251794 
L 5.921492 38.577773 
L 5.944357 38.903752 
L 5.967223 39.229731 
L 5.990088 39.55571 
L 5.978656 39.904512 
L 5.967223 40.253314 
L 5.95579 40.602116 
L 5.944357 40.950918 
L 5.932925 41.29972 
L 5.921492 41.648522 
L 5.910059 41.997324 
L 5.898627 42.346126 
L 5.938661 42.780709 
L 5.978696 43.215293 
L 6.018731 43.649876 
L 6.058766 44.084459 
L 6.0988 44.519042 
L 6.138835 44.953625 
L 6.17887 45.388208 
L 6.218905 45.822791 
L 6.247507 46.142981 
L 6.276109 46.463171 
L 6.304711 46.78336 
L 6.333313 47.10355 
L 6.361915 47.42374 
L 6.390517 47.74393 
L 6.419119 48.06412 
L 6.447721 48.384309 
L 6.630725 48.904674 
L 6.81373 49.425038 
L 6.996734 49.945402 
L 7.179739 50.465766 
L 7.362743 50.98613 
L 7.545748 51.506494 
L 7.728752 52.026858 
L 7.911757 52.547222 
L 8.008955 52.850267 
L 8.106154 53.153312 
L 8.203352 53.456356 
L 8.30055 53.759401 
L 8.397749 54.062446 
L 8.494947 54.365491 
L 8.592146 54.668535 
L 8.689344 54.97158 
L 8.963891 55.366139 
L 9.238438 55.760699 
L 9.512985 56.155258 
L 9.787532 56.549818 
L 10.06208 56.944377 
L 10.336627 57.338936 
L 10.611174 57.733496 
L 10.885721 58.128055 
L 11.255851 58.48209 
L 11.62598 58.836124 
L 11.99611 59.190159 
L 12.366239 59.544193 
L 12.842536 59.693378 
L 13.318832 59.842562 
L 13.795129 59.991747 
L 14.271425 60.140931 
L 14.7861 60.140931 
L 15.300775 60.140931 
L 15.81545 60.140931 
L 16.330125 60.140931 
L 16.696134 60.140931 
L 17.062143 60.140931 
L 17.428152 60.140931 
L 17.794161 60.140931 
L 18.16429 60.297074 
L 18.53442 60.453216 
L 18.904549 60.609359 
L 19.274679 60.765502 
L 19.644809 60.921644 
L 20.014938 61.077787 
L 20.385068 61.233929 
L 20.755197 61.390072 
" style="fill:none;stroke:#008000;stroke-linecap:square;stroke-width:0.4;"/>
   </g>
   <g id="line2d_11">
    <path clip-path="url(#pc196db1975)" d="M 31.063238 10.259456 
L 31.255898 10.502771 
L 31.448558 10.746087 
L 31.641217 10.989402 
L 31.833877 11.232717 
L 32.026537 11.476032 
L 32.219197 11.719348 
L 32.411856 11.962663 
L 32.604516 12.205978 
L 32.660872 12.526614 
L 32.717227 12.847249 
L 32.773583 13.167884 
L 32.829939 13.488519 
L 32.886294 13.809154 
L 32.94265 14.129789 
L 32.999006 14.450424 
L 33.055361 14.771059 
" style="fill:none;stroke:#4169e1;stroke-linecap:square;stroke-width:0.4;"/>
   </g>
   <g id="line2d_12">
    <path clip-path="url(#pc196db1975)" d="M 36.156338 13.036512 
L 35.886962 13.259955 
L 35.617586 13.483398 
L 35.34821 13.70684 
L 35.078834 13.930283 
L 34.75694 14.015674 
L 34.435046 14.101066 
L 34.113152 14.186457 
L 33.791258 14.271848 
L 33.423309 14.521454 
L 33.055361 14.771059 
L 32.923986 15.237428 
L 32.792611 15.703796 
L 32.661235 16.170164 
L 32.52986 16.636532 
L 32.405029 17.175266 
L 32.280198 17.714 
L 32.155367 18.252734 
L 32.030536 18.791468 
L 31.840018 19.087053 
L 31.649499 19.382639 
L 31.458981 19.678224 
L 31.268462 19.97381 
L 30.788853 20.282532 
L 30.309244 20.591255 
L 29.829635 20.899978 
L 29.350025 21.2087 
L 29.021668 21.615952 
L 28.69331 22.023203 
L 28.745828 22.575185 
L 28.798346 23.127167 
L 28.712944 23.606673 
L 28.627542 24.086178 
L 28.542139 24.565684 
L 28.456737 25.045189 
L 28.174272 25.235677 
L 27.891807 25.426166 
L 27.609342 25.616654 
L 27.326877 25.807143 
L 27.011527 25.741457 
L 26.696178 25.675771 
L 26.380828 25.610086 
L 26.065479 25.5444 
L 25.730415 25.307932 
L 25.395351 25.071463 
L 25.060287 24.834995 
L 24.725223 24.598526 
L 24.344186 24.440881 
L 23.963149 24.283235 
" style="fill:none;stroke:#4169e1;stroke-linecap:square;stroke-width:0.4;"/>
   </g>
   <g id="line2d_13">
    <path clip-path="url(#pc196db1975)" d="M 28.308395 22.373675 
L 27.959919 22.577857 
L 27.611442 22.782039 
L 27.262966 22.986221 
L 26.91449 23.190404 
L 26.598333 23.287485 
L 26.282175 23.384566 
L 25.966018 23.481647 
L 25.649861 23.578728 
L 25.333703 23.67581 
L 25.017546 23.772891 
L 24.701388 23.869972 
L 24.385231 23.967053 
" style="fill:none;stroke:#4169e1;stroke-linecap:square;stroke-width:0.4;"/>
   </g>
   <g id="line2d_14">
    <path clip-path="url(#pc196db1975)" d="M 32.313325 19.699489 
L 32.388789 20.114533 
L 32.464253 20.529577 
L 32.313325 20.805012 
L 32.162396 21.080446 
L 32.011468 21.355881 
L 31.86054 21.631315 
L 31.58874 22.008507 
L 31.090709 22.295297 
L 30.592678 22.582088 
L 30.328473 22.763113 
L 30.064268 22.944138 
L 30.041645 23.397035 
L 30.019022 23.849932 
L 29.885223 24.128039 
L 29.751423 24.406145 
L 29.304133 24.731679 
L 28.856843 25.057213 
" style="fill:none;stroke:#4169e1;stroke-linecap:square;stroke-width:0.4;"/>
   </g>
   <g id="line2d_15">
    <path clip-path="url(#pc196db1975)" d="M 29.091153 25.37384 
L 29.579165 25.592718 
L 30.067177 25.811596 
L 30.515114 26.120207 
L 30.96305 26.428819 
L 31.271855 26.817143 
L 31.58066 27.205468 
L 31.725044 27.474334 
L 31.869428 27.7432 
L 32.013811 28.012066 
L 32.158195 28.280932 
" style="fill:none;stroke:#000000;stroke-linecap:square;stroke-width:0.4;"/>
   </g>
   <g id="line2d_16">
    <path clip-path="url(#pc196db1975)" d="M 32.533092 19.354806 
L 32.895303 19.547298 
L 33.257515 19.739791 
L 33.619726 19.932283 
L 33.981938 20.124776 
L 34.434722 20.471685 
L 34.887507 20.818594 
L 35.144117 21.165949 
" style="fill:none;stroke:#4169e1;stroke-linecap:square;stroke-width:0.4;"/>
   </g>
   <g id="line2d_17">
    <path clip-path="url(#pc196db1975)" d="M 28.382404 25.723421 
L 28.308839 26.062983 
L 28.235274 26.402544 
L 28.161708 26.742106 
L 28.088143 27.081667 
L 28.014578 27.421229 
L 27.941012 27.76079 
L 27.867447 28.100352 
L 27.793881 28.439913 
L 27.754251 28.853065 
L 27.71462 29.266217 
L 27.674989 29.679369 
L 27.635358 30.09252 
L 27.595728 30.505672 
L 27.556097 30.918824 
L 27.516466 31.331975 
L 27.476835 31.745127 
" style="fill:none;stroke:#000000;stroke-linecap:square;stroke-width:0.4;"/>
   </g>
   <g id="line2d_18">
    <path clip-path="url(#pc196db1975)" d="M 34.265049 28.745407 
L 33.807498 28.76823 
L 33.349946 28.791053 
L 32.892394 28.813876 
L 32.434843 28.836699 
L 31.942953 29.157001 
L 31.451062 29.477302 
L 30.959172 29.797603 
L 30.467282 30.117904 
L 30.238547 30.358046 
L 30.009811 30.598189 
L 29.781076 30.838331 
L 29.55234 31.078473 
L 29.1406 31.353017 
L 28.728861 31.627561 
L 28.385636 31.719076 
L 28.042412 31.81059 
" style="fill:none;stroke:#008000;stroke-linecap:square;stroke-width:0.4;"/>
   </g>
   <g id="line2d_19">
    <path clip-path="url(#pc196db1975)" d="M 20.626246 26.042275 
L 20.79091 26.319714 
L 20.955573 26.597152 
L 21.311079 26.987258 
L 21.666584 27.377364 
L 21.900571 27.879915 
L 22.134558 28.382466 
L 22.368626 28.781256 
L 22.602694 29.180046 
L 22.836762 29.578836 
L 23.07083 29.977626 
L 23.374303 30.341681 
L 23.677775 30.705735 
L 23.946424 30.913703 
L 24.215073 31.12167 
L 24.483722 31.329638 
L 24.752371 31.537605 
L 25.00381 31.741342 
L 25.25525 31.945079 
L 25.506689 32.148816 
L 25.758128 32.352553 
L 26.104908 32.447853 
L 26.451687 32.543152 
L 27.023727 32.36992 
" style="fill:none;stroke:#008000;stroke-linecap:square;stroke-width:0.4;"/>
   </g>
   <g id="line2d_20">
    <path clip-path="url(#pc196db1975)" d="M 22.853649 25.03272 
L 22.722112 25.484504 
L 22.590575 25.936287 
L 22.569123 26.253694 
L 22.547672 26.5711 
L 22.52622 26.888507 
L 22.504769 27.205913 
L 22.483317 27.52332 
L 22.461866 27.840726 
L 22.440414 28.158133 
L 22.418963 28.47554 
" style="fill:none;stroke:#008000;stroke-linecap:square;stroke-width:0.4;"/>
   </g>
   <g id="line2d_21">
    <path clip-path="url(#pc196db1975)" d="M 23.677775 30.705735 
L 23.740635 31.079475 
L 23.803495 31.453216 
L 23.866355 31.826956 
L 23.929214 32.200696 
L 23.992074 32.574437 
L 24.054934 32.948177 
L 24.117794 33.321917 
L 24.180654 33.695658 
L 24.205539 34.133748 
L 24.230424 34.571838 
L 24.25531 35.009928 
L 24.280195 35.448018 
L 24.305081 35.886108 
L 24.329966 36.324198 
L 24.354851 36.762288 
L 24.379737 37.200378 
L 24.357316 37.593657 
L 24.334895 37.986936 
L 24.312473 38.380215 
L 24.290052 38.773494 
L 24.267631 39.166773 
L 24.24521 39.560052 
L 24.222789 39.953331 
L 24.200368 40.34661 
L 24.145588 40.645313 
L 24.090808 40.944016 
L 24.036028 41.242718 
L 23.981247 41.541421 
" style="fill:none;stroke:#4169e1;stroke-linecap:square;stroke-width:0.4;"/>
   </g>
   <g id="line2d_22">
    <path clip-path="url(#pc196db1975)" d="M 27.047643 33.368343 
L 27.021627 33.962019 
L 26.99561 34.555695 
L 26.969594 35.149371 
L 26.943577 35.743047 
L 26.917561 36.336723 
L 26.891544 36.930399 
L 26.865527 37.524075 
L 26.839511 38.117751 
L 26.820009 38.449282 
L 26.800506 38.780814 
L 26.781004 39.112346 
L 26.761502 39.443877 
L 26.741999 39.775409 
L 26.722497 40.106941 
L 26.702995 40.438473 
L 26.683493 40.770004 
L 26.66399 41.101536 
L 26.644488 41.433068 
L 26.624986 41.764599 
L 26.605483 42.096131 
L 26.585981 42.427663 
L 26.566479 42.759195 
L 26.546976 43.090726 
L 26.527474 43.422258 
L 26.507972 43.75379 
L 26.48847 44.085321 
L 26.468967 44.416853 
L 26.449465 44.748385 
L 26.429963 45.079917 
L 26.41046 45.411448 
L 26.390958 45.74298 
L 26.371456 46.074512 
L 26.351953 46.406044 
L 26.332451 46.737575 
L 26.312949 47.069107 
L 26.293447 47.400639 
L 26.273944 47.73217 
L 26.254442 48.063702 
L 26.23494 48.395234 
L 26.215437 48.726766 
L 26.17209 49.186064 
L 26.128743 49.645363 
L 26.085395 50.104662 
L 26.042048 50.56396 
L 25.9987 51.023259 
L 25.955353 51.482558 
L 25.912005 51.941856 
L 25.868658 52.401155 
" style="fill:none;stroke:#4169e1;stroke-linecap:square;stroke-width:0.4;"/>
   </g>
   <g id="line2d_23">
    <path clip-path="url(#pc196db1975)" d="M 23.981247 41.541421 
L 24.026787 41.857436 
L 24.072326 42.173451 
L 24.117865 42.489466 
L 24.163404 42.805481 
L 24.208943 43.121496 
L 24.254482 43.43751 
L 24.300021 43.753525 
L 24.34556 44.06954 
L 24.391099 44.385555 
L 24.436638 44.70157 
L 24.482177 45.017585 
L 24.527716 45.3336 
L 24.573255 45.649615 
L 24.618794 45.965629 
L 24.664333 46.281644 
L 24.709872 46.597659 
L 24.755411 46.913674 
L 24.80095 47.229689 
L 24.846489 47.545704 
L 24.892028 47.861719 
L 24.937567 48.177734 
L 24.983106 48.493748 
L 25.028645 48.809763 
L 25.074184 49.125778 
L 25.119723 49.441793 
L 25.165262 49.757808 
L 25.210801 50.073823 
L 25.25634 50.389838 
L 25.301879 50.705853 
L 25.347418 51.021867 
L 25.392957 51.337882 
L 25.438496 51.653897 
L 25.555874 52.234436 
L 25.673251 52.814975 
L 25.790629 53.395514 
L 25.908006 53.976053 
L 26.025383 54.556591 
L 26.142761 55.13713 
L 26.260138 55.717669 
L 26.377516 56.298208 
L 26.494893 56.878747 
L 26.61227 57.459286 
L 26.729648 58.039825 
L 26.847025 58.620363 
L 26.964402 59.200902 
L 27.08178 59.781441 
L 27.199157 60.36198 
L 27.316535 60.942519 
L 27.339198 61.493276 
L 27.361862 62.044034 
L 27.384525 62.594792 
L 27.407188 63.145549 
L 27.429852 63.696307 
L 27.452515 64.247065 
L 27.475179 64.797822 
L 27.497842 65.34858 
" style="fill:none;stroke:#008000;stroke-linecap:square;stroke-width:0.4;"/>
   </g>
   <g id="line2d_24">
    <path clip-path="url(#pc196db1975)" d="M 19.388764 26.358902 
L 19.145687 26.733311 
L 18.90261 27.107719 
L 18.659534 27.482127 
L 18.416457 27.856536 
L 18.17338 28.230944 
L 17.930303 28.605352 
L 17.687226 28.979761 
L 17.444149 29.354169 
L 17.365292 29.727408 
L 17.286434 30.100648 
L 17.207577 30.473887 
L 17.128719 30.847126 
L 17.049862 31.220366 
L 16.971004 31.593605 
L 16.892146 31.966844 
L 16.813289 32.340084 
L 16.747642 32.689442 
L 16.681994 33.038801 
L 16.616347 33.38816 
L 16.5507 33.737518 
L 16.485052 34.086877 
L 16.419405 34.436236 
L 16.353758 34.785594 
L 16.28811 35.134953 
L 16.30124 35.496224 
L 16.314369 35.857495 
L 16.327499 36.218767 
L 16.340628 36.580038 
L 16.353758 36.941309 
L 16.366887 37.30258 
L 16.380017 37.663851 
L 16.393146 38.025123 
L 16.56395 38.550608 
L 16.734755 39.076093 
L 16.905559 39.601579 
L 17.076363 40.127064 
L 17.050023 40.722243 
L 17.023683 41.317422 
L 16.898853 41.842907 
L 16.774022 42.368393 
L 16.649191 42.893878 
L 16.52436 43.419363 
L 16.66232 43.760929 
L 16.800281 44.102494 
L 16.938241 44.44406 
L 17.076201 44.785625 
L 17.214162 45.127191 
L 17.352122 45.468756 
L 17.490082 45.810322 
L 17.628043 46.151887 
L 17.752874 46.555854 
L 17.877704 46.959821 
L 18.002535 47.363788 
L 18.127366 47.767755 
L 18.252197 48.171722 
L 18.377028 48.575689 
L 18.501859 48.979655 
L 18.62669 49.383622 
L 18.521573 49.836853 
L 18.416457 50.290084 
L 18.31134 50.743316 
L 18.206224 51.196547 
L 18.304796 51.728489 
L 18.403368 52.260432 
L 18.50194 52.792375 
L 18.600512 53.324317 
L 18.718757 53.70201 
L 18.837003 54.079702 
L 18.955249 54.457395 
L 19.073495 54.835088 
L 19.191741 55.21278 
L 19.309987 55.590473 
L 19.428233 55.968165 
L 19.546479 56.345858 
L 19.615439 56.736688 
L 19.684399 57.127517 
L 19.753359 57.518347 
L 19.822319 57.909177 
L 19.891279 58.300007 
L 19.960239 58.690836 
L 20.029199 59.081666 
L 20.098159 59.472496 
L 20.262419 59.95189 
L 20.426678 60.431284 
L 20.590938 60.910678 
L 20.755197 61.390072 
L 21.064002 61.731638 
L 21.372807 62.073203 
L 21.681612 62.414769 
L 21.990417 62.756334 
L 22.292597 63.084762 
L 22.594776 63.413191 
L 22.84771 63.643091 
L 23.100644 63.87299 
L 23.353578 64.10289 
L 23.606512 64.33279 
L 23.859446 64.56269 
L 24.11238 64.79259 
L 24.365315 65.02249 
L 24.618249 65.252389 
" style="fill:none;stroke:#4169e1;stroke-linecap:square;stroke-width:0.4;"/>
   </g>
   <g id="line2d_25">
    <path clip-path="url(#pc196db1975)" d="M 18.62669 49.383622 
L 18.942362 49.833402 
L 19.258035 50.283182 
L 19.573708 50.732962 
L 19.88938 51.182742 
L 20.127003 51.411305 
L 20.364626 51.639869 
L 20.602249 51.868433 
L 20.839872 52.096997 
L 20.812482 52.508256 
L 20.785092 52.919515 
L 20.757702 53.330774 
L 20.730312 53.742033 
L 20.776003 54.048195 
L 20.821693 54.354357 
L 20.867384 54.66052 
L 20.913074 54.966682 
L 20.958765 55.272844 
L 21.004455 55.579006 
L 21.050146 55.885168 
L 21.095836 56.19133 
L 21.223818 56.758008 
L 21.3518 57.324686 
L 21.479782 57.891364 
L 21.607764 58.458042 
L 21.644365 58.979074 
L 21.680966 59.500106 
L 21.717567 60.021138 
L 21.754168 60.54217 
L 21.91867 60.834527 
L 22.083172 61.126884 
L 22.284275 61.474239 
L 22.485378 61.821594 
L 22.686481 62.168948 
L 22.887584 62.516303 
L 23.033987 63.0645 
" style="fill:none;stroke:#008000;stroke-linecap:square;stroke-width:0.4;"/>
   </g>
   <g id="line2d_26">
    <path clip-path="url(#pc196db1975)" d="M 37.749649 13.963682 
L 38.075259 14.397876 
L 38.40087 14.832069 
L 38.22441 15.246 
L 38.04795 15.659931 
L 37.936451 16.121735 
L 38.175124 16.400064 
L 38.413797 16.678393 
L 38.756052 17.084308 
L 39.098307 17.490224 
L 39.352978 17.919964 
L 39.249558 18.246165 
L 39.146139 18.572367 
L 38.939137 18.930632 
L 38.732136 19.288898 
L 38.592197 19.716856 
L 38.477465 20.068664 
L 38.620799 20.410898 
L 38.764132 20.753131 
L 38.867552 21.03558 
L 38.970971 21.318028 
L 39.074391 21.600476 
L 39.177811 21.882925 
L 39.313226 22.312665 
L 39.448641 22.742405 
L 39.647563 23.187954 
L 39.846484 23.633504 
L 39.957822 24.142735 
L 40.06916 24.651966 
L 40.128869 24.962358 
L 40.188577 25.272751 
L 40.248286 25.583143 
L 40.307995 25.893536 
L 40.300077 26.275404 
L 40.292159 26.657271 
L 40.236409 27.214375 
L 40.180659 27.771478 
L 40.196495 28.232837 
L 40.212493 28.686624 
L 40.228491 29.140412 
L 40.132989 29.478526 
L 40.037488 29.81664 
L 39.941986 30.154755 
L 39.846484 30.492869 
L 39.735066 30.982283 
L 39.623647 31.471697 
L 39.512228 31.961111 
L 39.40081 32.450525 
L 39.380934 33.023437 
L 39.361058 33.59635 
L 39.341182 34.169262 
L 39.321306 34.742175 
L 39.309348 35.062476 
L 39.29739 35.382777 
L 39.285432 35.703079 
L 39.273474 36.02338 
L 39.261516 36.343681 
L 39.249558 36.663982 
L 39.2376 36.984283 
L 39.225643 37.304584 
L 39.167954 37.768058 
L 39.110265 38.231531 
L 39.052576 38.695005 
L 38.994887 39.158479 
L 38.937198 39.621952 
L 38.87951 40.085426 
L 38.821821 40.5489 
L 38.764132 41.012373 
L 38.803924 41.324714 
L 38.843717 41.637055 
L 38.883509 41.949396 
L 38.923301 42.261737 
L 38.963094 42.574078 
L 39.002886 42.886419 
L 39.042678 43.19876 
L 39.082471 43.511101 
L 39.114305 43.819434 
L 39.146139 44.127767 
L 39.177972 44.4361 
L 39.209806 44.744433 
L 39.24164 45.052766 
L 39.273474 45.361099 
L 39.305308 45.669432 
L 39.337142 45.977765 
L 39.273474 46.471075 
L 39.209806 46.964386 
L 39.146139 47.457696 
L 39.082471 47.951007 
L 38.823841 48.444317 
L 38.56521 48.937628 
L 38.30658 49.430938 
L 38.04795 49.924249 
L 37.852988 50.266371 
L 37.658025 50.608493 
L 37.463063 50.950615 
L 37.2681 51.292737 
L 37.192475 51.714462 
L 37.116849 52.136186 
L 37.041223 52.55791 
L 36.965598 52.979634 
L 36.911868 53.379426 
L 36.858138 53.779218 
L 36.804408 54.17901 
L 36.750679 54.578802 
L 36.696949 54.978594 
L 36.643219 55.378386 
L 36.589489 55.778178 
L 36.535759 56.17797 
" style="fill:none;stroke:#4169e1;stroke-linecap:square;stroke-width:0.4;"/>
   </g>
   <g id="line2d_27">
    <path clip-path="url(#pc196db1975)" d="M 36.471768 25.423271 
L 36.719006 25.736892 
L 36.966244 26.050514 
L 37.213482 26.364135 
L 37.46072 26.677756 
L 37.418544 27.238645 
L 37.376368 27.799534 
L 37.334192 28.360423 
L 37.292016 28.921311 
L 37.301066 29.322328 
L 37.310115 29.723345 
L 37.319164 30.124361 
L 37.328213 30.525378 
L 37.337262 30.926394 
L 37.346312 31.327411 
L 37.355361 31.728427 
L 37.36441 32.129444 
L 37.442783 32.557626 
L 37.521156 32.985807 
L 37.599528 33.413989 
L 37.677901 33.84217 
L 37.623606 34.258216 
L 37.569311 34.674263 
L 37.515015 35.090309 
L 37.46072 35.506355 
L 37.352169 35.850092 
L 37.243619 36.193828 
L 37.135069 36.537565 
L 37.026518 36.881301 
L 36.917968 37.225038 
L 36.809418 37.568774 
L 36.700867 37.912511 
L 36.592317 38.256247 
L 36.580238 38.57588 
L 36.568159 38.895513 
L 36.55608 39.215147 
L 36.544001 39.53478 
L 36.531921 39.854413 
L 36.519842 40.174046 
L 36.507763 40.493679 
L 36.495684 40.813312 
L 36.589206 41.105781 
L 36.682729 41.398249 
L 36.776251 41.690717 
L 36.869773 41.983185 
L 36.963295 42.275653 
L 37.056817 42.568122 
L 37.150339 42.86059 
L 37.243861 43.153058 
L 37.328294 43.623434 
L 37.412727 44.093811 
L 37.497159 44.564187 
L 37.581592 45.034563 
L 37.533275 45.408415 
L 37.484959 45.782266 
L 37.436642 46.156118 
L 37.388326 46.52997 
L 37.291855 46.873706 
L 37.195383 47.217442 
L 37.098912 47.561179 
L 37.002441 47.904915 
L 36.90597 48.248652 
L 36.809499 48.592388 
L 36.713027 48.936125 
L 36.616556 49.279861 
L 36.420543 49.590365 
L 36.224531 49.900869 
L 36.028518 50.211373 
L 35.832505 50.521877 
L 35.636492 50.832381 
L 35.44048 51.142885 
L 35.244467 51.453389 
L 35.048454 51.763893 
L 34.912756 52.068441 
L 34.777058 52.372988 
L 34.64136 52.677536 
L 34.505662 52.982084 
L 34.369964 53.286631 
L 34.234266 53.591179 
L 34.098568 53.895727 
L 33.96287 54.200274 
L 33.812063 54.522858 
L 33.661256 54.845441 
L 33.510449 55.168025 
L 33.359642 55.490608 
L 33.208835 55.813192 
L 33.058028 56.135775 
L 32.907221 56.458359 
L 32.756414 56.780942 
L 32.666002 57.335708 
L 32.575591 57.890473 
L 32.485179 58.445239 
L 32.394768 59.000004 
L 32.342411 59.452456 
L 32.290055 59.904908 
L 32.237699 60.35736 
L 32.185343 60.809812 
" style="fill:none;stroke:#4169e1;stroke-linecap:square;stroke-width:0.4;"/>
   </g>
   <g id="line2d_28">
    <path clip-path="url(#pc196db1975)" d="M 37.888296 13.555318 
L 38.310458 13.61566 
L 38.732621 13.676001 
L 39.154784 13.736343 
L 39.576947 13.796685 
L 39.962831 13.724319 
L 40.348716 13.651954 
L 40.65033 13.422722 
L 40.951944 13.19349 
L 41.253558 12.964258 
L 41.555173 12.735026 
L 41.796431 12.542089 
L 42.03769 12.349151 
L 42.278949 12.156213 
L 42.520208 11.963275 
L 42.906174 11.878886 
L 43.29214 11.794497 
L 43.678105 11.710107 
L 44.064071 11.625718 
L 44.389763 11.842815 
L 44.715454 12.059911 
L 45.041145 12.277008 
L 45.366837 12.494105 
L 45.463308 12.904139 
L 45.559779 13.314174 
L 45.656251 13.724208 
L 45.752722 14.134242 
L 45.740683 14.508205 
L 45.728644 14.882168 
L 45.716606 15.256131 
L 45.704567 15.630094 
L 45.698548 15.943716 
L 45.692528 16.257337 
L 45.686509 16.570958 
L 45.68049 16.884579 
L 45.67447 17.198201 
L 45.668451 17.511822 
L 45.662432 17.825443 
L 45.656412 18.139064 
L 45.608096 18.476733 
L 45.559779 18.814402 
L 45.511463 19.152071 
L 45.463146 19.48974 
" style="fill:none;stroke:#ff0000;stroke-dasharray:1.48,0.64;stroke-dashoffset:0;stroke-width:0.4;"/>
   </g>
   <g id="line2d_29">
    <path clip-path="url(#pc196db1975)" d="M 61.235629 23.255421 
L 61.187878 22.754095 
L 61.140127 22.252769 
L 61.092376 21.751442 
L 61.044625 21.250116 
L 60.86962 20.772503 
L 60.694614 20.29489 
L 60.388718 19.916585 
L 60.082822 19.53828 
L 59.733053 19.477939 
L 59.383284 19.417597 
L 59.033515 19.357255 
L 58.683746 19.296913 
L 58.336159 19.159308 
L 57.988572 19.021702 
L 57.606726 18.846688 
L 57.224881 18.671675 
L 56.826877 18.639834 
L 56.428872 18.607993 
L 56.023031 18.552327 
L 55.617189 18.496662 
L 55.211347 18.440996 
L 54.805505 18.38533 
L 54.415581 18.329553 
L 54.025656 18.273776 
L 53.635731 18.217998 
L 53.245806 18.162221 
L 52.816049 18.138396 
L 52.386291 18.114571 
L 51.956534 18.090746 
L 51.526776 18.066921 
L 51.104937 18.074826 
L 50.683097 18.082731 
L 50.261258 18.090635 
L 49.839418 18.09854 
L 49.529078 18.233808 
L 49.218738 18.369076 
L 48.908398 18.504343 
L 48.598058 18.639611 
L 48.144465 18.822641 
L 47.690873 19.00567 
L 47.23728 19.188699 
L 46.783687 19.371728 
L 46.453552 19.401231 
L 46.123417 19.430734 
L 45.793282 19.460237 
L 45.463146 19.48974 
" style="fill:none;stroke:#ff0000;stroke-dasharray:1.48,0.64;stroke-dashoffset:0;stroke-width:0.4;"/>
   </g>
   <g id="line2d_30">
    <path clip-path="url(#pc196db1975)" d="M 45.463146 19.48974 
L 45.350112 19.974867 
L 45.237077 20.459995 
L 45.124043 20.945123 
L 45.011008 21.43025 
L 44.897974 21.915378 
L 44.784939 22.400506 
L 44.671905 22.885633 
L 44.55887 23.370761 
L 44.515098 23.679122 
L 44.471327 23.987483 
L 44.427555 24.295843 
L 44.383784 24.604204 
L 44.340012 24.912565 
L 44.29624 25.220926 
L 44.252469 25.529287 
L 44.208697 25.837648 
L 44.164926 26.146008 
L 44.121154 26.454369 
L 44.077382 26.76273 
L 44.033611 27.071091 
L 43.989839 27.379452 
L 43.946068 27.687812 
L 43.902296 27.996173 
L 43.858524 28.304534 
L 43.780071 28.774242 
L 43.701617 29.243951 
L 43.623164 29.713659 
L 43.54471 30.183367 
L 43.466256 30.653075 
L 43.387803 31.122783 
L 43.309349 31.592492 
L 43.230896 32.0622 
L 43.13394 32.630214 
L 43.036984 33.198228 
L 42.940028 33.766242 
L 42.843072 34.334256 
L 42.856928 34.791439 
L 42.870785 35.248623 
L 42.884642 35.705806 
L 42.898498 36.16299 
L 42.912355 36.620173 
L 42.926211 37.077356 
L 42.940068 37.53454 
L 42.953925 37.991723 
L 42.953925 38.552835 
L 42.953925 39.113946 
L 42.953925 39.675058 
L 42.953925 40.236169 
L 42.953925 40.797281 
L 42.953925 41.358392 
L 42.953925 41.919504 
L 42.953925 42.480615 
L 42.960833 42.958562 
L 42.967741 43.436508 
L 42.974649 43.914455 
L 42.981557 44.392402 
L 42.988465 44.870349 
L 42.995373 45.348295 
L 43.002282 45.826242 
L 43.00919 46.304189 
" style="fill:none;stroke:#000000;stroke-dasharray:1.48,0.64;stroke-dashoffset:0;stroke-width:0.4;"/>
   </g>
   <g id="line2d_31">
    <path clip-path="url(#pc196db1975)" d="M 38.592197 19.716856 
L 38.91098 19.961341 
L 39.229763 20.205825 
L 39.548546 20.450309 
L 39.86733 20.694794 
L 40.186113 20.939278 
L 40.504896 21.183762 
L 40.82368 21.428246 
L 41.142463 21.672731 
L 41.373218 22.098463 
L 41.603974 22.524195 
L 41.834729 22.949927 
L 42.065484 23.37566 
L 42.196819 23.699913 
L 42.328154 24.024166 
L 42.459489 24.34842 
L 42.590824 24.672673 
L 42.722159 24.996927 
L 42.853494 25.32118 
L 42.984829 25.645433 
L 43.116164 25.969687 
L 43.208959 26.261543 
L 43.301754 26.553399 
L 43.394549 26.845255 
L 43.487344 27.13711 
L 43.580139 27.428966 
L 43.672934 27.720822 
L 43.765729 28.012678 
L 43.858524 28.304534 
" style="fill:none;stroke:#000000;stroke-dasharray:1.48,0.64;stroke-dashoffset:0;stroke-width:0.4;"/>
   </g>
   <g id="line2d_32">
    <path clip-path="url(#pc196db1975)" d="M 35.73975 13.868828 
L 35.757849 14.459888 
L 35.775947 15.050947 
L 35.794046 15.642007 
L 35.812144 16.233067 
L 35.778977 16.805979 
L 35.74581 17.378892 
L 35.712643 17.951805 
L 35.679476 18.524717 
L 35.646309 19.09763 
L 35.613142 19.670542 
L 35.579975 20.243455 
L 35.546808 20.816368 
L 35.555857 21.371189 
L 35.564906 21.92601 
L 35.573956 22.480831 
L 35.583005 23.035653 
L 35.592054 23.590474 
L 35.601103 24.145295 
L 35.610153 24.700116 
L 35.619202 25.254938 
L 35.543818 25.824844 
L 35.468435 26.394751 
L 35.393052 26.964658 
L 35.317669 27.534564 
L 35.242285 28.104471 
L 35.166902 28.674378 
L 35.091519 29.244285 
L 35.016135 29.814191 
L 34.919624 30.177522 
L 34.823112 30.540853 
L 34.7266 30.904184 
L 34.630089 31.267514 
L 34.533577 31.630845 
L 34.437065 31.994176 
L 34.340554 32.357507 
L 34.244042 32.720838 
L 34.147531 33.084169 
L 34.051019 33.447499 
L 33.954507 33.81083 
L 33.857996 34.174161 
L 33.761484 34.537492 
L 33.664972 34.900823 
L 33.568461 35.264153 
L 33.471949 35.627484 
L 33.42131 35.941022 
L 33.37067 36.25456 
L 33.320031 36.568098 
L 33.269392 36.881635 
L 33.218752 37.195173 
L 33.168113 37.508711 
L 33.117474 37.822249 
L 33.066835 38.135786 
L 33.016195 38.449324 
L 32.965556 38.762862 
L 32.914917 39.076399 
L 32.864277 39.389937 
L 32.813638 39.703475 
L 32.762999 40.017013 
L 32.712359 40.33055 
L 32.66172 40.644088 
" style="fill:none;stroke:#4169e1;stroke-linecap:square;stroke-width:0.4;"/>
   </g>
   <g id="line2d_33">
    <path clip-path="url(#pc196db1975)" d="M 32.66172 40.644088 
L 32.608031 41.019874 
L 32.554341 41.39566 
L 32.500652 41.771446 
L 32.446962 42.147232 
L 32.393273 42.523018 
L 32.339584 42.898804 
L 32.285894 43.274591 
L 32.232205 43.650377 
L 32.178515 44.026163 
L 32.124826 44.401949 
L 32.071137 44.777735 
L 32.017447 45.153521 
L 31.963758 45.529307 
L 31.910068 45.905093 
L 31.856379 46.280879 
L 31.80269 46.656665 
L 31.749 47.032451 
L 31.695311 47.408237 
L 31.641621 47.784023 
L 31.587932 48.159809 
L 31.534243 48.535595 
L 31.480553 48.911381 
L 31.426864 49.287167 
L 31.373174 49.662953 
L 31.319485 50.038739 
L 31.265796 50.414525 
L 31.212106 50.790311 
L 31.158417 51.166098 
L 31.104727 51.541884 
L 31.051038 51.91767 
L 30.997349 52.293456 
L 30.943659 52.669242 
L 30.898635 53.251089 
L 30.853611 53.832936 
L 30.808587 54.414783 
L 30.763563 54.99663 
L 30.71854 55.578477 
L 30.673516 56.160324 
L 30.628492 56.742171 
L 30.583468 57.324018 
L 30.538444 57.905865 
L 30.49342 58.487712 
L 30.448396 59.069559 
L 30.403372 59.651406 
L 30.358348 60.233253 
L 30.313324 60.8151 
L 30.2683 61.396947 
L 30.223276 61.978794 
L 30.174758 62.439373 
L 30.126239 62.899952 
L 30.077721 63.360531 
L 30.029202 63.82111 
L 29.980684 64.281689 
L 29.932166 64.742268 
L 29.883647 65.202847 
L 29.835129 65.663426 
" style="fill:none;stroke:#4169e1;stroke-linecap:square;stroke-width:0.4;"/>
   </g>
   <g id="line2d_34">
    <path clip-path="url(#pc196db1975)" d="M 63.342483 25.664193 
L 63.077066 26.038044 
L 62.811649 26.411896 
L 62.546232 26.785748 
L 62.280815 27.159599 
L 61.894849 27.497324 
L 61.508883 27.835049 
L 61.122917 28.172773 
L 60.736952 28.510498 
L 60.350986 28.848222 
L 59.96502 29.185947 
L 59.579054 29.523671 
L 59.193089 29.861396 
L 58.939771 30.171955 
L 58.686453 30.482515 
L 58.433135 30.793075 
L 58.179817 31.103634 
L 57.9265 31.414194 
L 57.673182 31.724754 
L 57.419864 32.035313 
L 57.166546 32.345873 
L 56.913228 32.656432 
L 56.65991 32.966992 
L 56.406593 33.277552 
L 56.153275 33.588111 
L 55.899957 33.898671 
L 55.646639 34.209231 
L 55.393321 34.51979 
L 55.140004 34.83035 
L 54.781145 35.273589 
L 54.422287 35.716828 
L 54.063428 36.160067 
L 53.70457 36.603306 
L 53.345711 37.046545 
L 52.986853 37.489784 
L 52.627994 37.933024 
L 52.269136 38.376263 
L 51.910277 38.819502 
L 51.551419 39.262741 
L 51.192561 39.70598 
L 50.833702 40.149219 
L 50.474844 40.592458 
L 50.115985 41.035697 
L 49.757127 41.478936 
L 49.398268 41.922175 
L 49.15705 42.187534 
L 48.915831 42.452893 
L 48.674613 42.718252 
L 48.433394 42.983611 
L 48.192176 43.24897 
L 47.950957 43.514329 
L 47.709739 43.779688 
L 47.46852 44.045047 
" style="fill:none;stroke:#000000;stroke-linecap:square;stroke-width:0.4;"/>
   </g>
   <g id="line2d_35">
    <path clip-path="url(#pc196db1975)" d="M 45.538449 44.527336 
L 45.30432 44.836754 
L 45.070192 45.146173 
L 44.836063 45.455591 
L 44.601935 45.76501 
L 44.367806 46.074428 
L 44.133677 46.383847 
L 43.899549 46.693265 
L 43.66542 47.002684 
L 43.431292 47.312102 
L 43.197163 47.621521 
L 42.963035 47.930939 
L 42.728906 48.240358 
L 42.494777 48.549776 
L 42.260649 48.859195 
L 42.02652 49.168613 
L 41.792392 49.478031 
L 41.56705 49.775788 
L 41.341708 50.073544 
L 41.116366 50.371301 
L 40.891024 50.669057 
L 40.665682 50.966814 
L 40.44034 51.26457 
L 40.214998 51.562327 
L 39.989656 51.860083 
L 39.763486 52.206798 
L 39.537316 52.553512 
L 39.311146 52.900227 
L 39.084976 53.246942 
L 38.858805 53.593656 
L 38.632635 53.940371 
L 38.406465 54.287085 
L 38.180295 54.6338 
L 37.954125 54.980514 
L 37.727955 55.327229 
L 37.501785 55.673944 
L 37.275615 56.020658 
L 37.049444 56.367373 
L 36.823274 56.714087 
L 36.597104 57.060802 
L 36.370934 57.407516 
L 36.099538 57.760271 
L 35.828142 58.113025 
L 35.556746 58.465779 
L 35.28535 58.818534 
L 35.013954 59.171288 
L 34.742558 59.524042 
L 34.471162 59.876797 
L 34.199766 60.229551 
L 33.92837 60.582305 
L 33.656974 60.93506 
L 33.385577 61.287814 
L 33.114181 61.640568 
L 32.842785 61.993323 
L 32.571389 62.346077 
L 32.299993 62.698831 
L 32.028597 63.051586 
" style="fill:none;stroke:#4169e1;stroke-linecap:square;stroke-width:0.4;"/>
   </g>
   <g id="line2d_36">
    <path clip-path="url(#pc196db1975)" d="M 64.023761 26.598043 
L 64.186606 27.056339 
L 64.349452 27.514636 
L 64.512298 27.972933 
L 64.675143 28.43123 
L 64.837989 28.889526 
L 65.000835 29.347823 
L 65.163681 29.80612 
L 65.326526 30.264416 
L 65.302368 30.807269 
L 65.27821 31.350123 
L 65.254052 31.892976 
L 65.229894 32.435829 
L 64.940399 32.857943 
L 64.650904 33.280057 
L 64.36141 33.702171 
L 64.071915 34.124284 
L 63.782421 34.546398 
L 63.492926 34.968512 
L 63.203432 35.390626 
L 62.913937 35.81274 
L 62.781229 36.144397 
L 62.64852 36.476054 
L 62.515812 36.807711 
L 62.383103 37.139368 
L 62.250395 37.471025 
L 62.117686 37.802682 
L 61.984978 38.134339 
L 61.852269 38.465996 
L 61.393909 38.851983 
L 60.93555 39.23797 
L 60.47719 39.623956 
L 60.018831 40.009943 
L 59.669021 40.094333 
L 59.319212 40.178722 
L 58.969403 40.263111 
L 58.619594 40.347501 
L 58.269784 40.43189 
L 57.919975 40.516279 
L 57.570166 40.600669 
L 57.220357 40.685058 
L 56.804213 40.974521 
L 56.38807 41.263983 
L 55.971927 41.553445 
L 55.555783 41.842907 
L 55.13964 42.13237 
L 54.723497 42.421832 
L 54.307353 42.711294 
L 53.89121 43.000756 
L 53.469047 43.398767 
L 53.046885 43.796778 
L 52.624722 44.194788 
L 52.202559 44.592799 
L 51.780397 44.99081 
L 51.358234 45.38882 
L 50.936071 45.786831 
L 50.513909 46.184841 
L 50.308847 46.47731 
L 50.103785 46.769778 
L 49.898723 47.062246 
L 49.693661 47.354714 
L 49.488599 47.647183 
L 49.283537 47.939651 
L 49.078475 48.232119 
L 48.873413 48.524587 
L 48.668351 48.817056 
L 48.463289 49.109524 
L 48.258227 49.401992 
L 48.053165 49.69446 
L 47.848103 49.986928 
L 47.643041 50.279397 
L 47.437979 50.571865 
L 47.232917 50.864333 
L 46.96754 51.334654 
L 46.702164 51.804974 
L 46.436787 52.275295 
L 46.17141 52.745615 
L 45.906034 53.215936 
L 45.640657 53.686256 
L 45.37528 54.156577 
L 45.109903 54.626897 
L 44.838507 54.874165 
L 44.567111 55.121433 
L 44.295715 55.3687 
L 44.024319 55.615968 
L 43.752923 55.863235 
L 43.481527 56.110503 
L 43.210131 56.35777 
L 42.938735 56.605038 
L 42.637161 56.689427 
L 42.335588 56.773817 
L 42.034014 56.858206 
L 41.73244 56.942596 
L 41.430867 57.026985 
L 41.129293 57.111374 
L 40.82772 57.195764 
L 40.526146 57.280153 
L 40.023187 57.258666 
L 39.520227 57.237179 
L 39.017268 57.215692 
L 38.514309 57.194205 
" style="fill:none;stroke:#4169e1;stroke-linecap:square;stroke-width:0.4;"/>
   </g>
   <g id="line2d_37">
    <path clip-path="url(#pc196db1975)" d="M 64.393809 25.53772 
L 64.777109 25.679501 
L 65.160408 25.821282 
L 65.543708 25.963063 
L 65.927007 26.104843 
L 66.310307 26.246624 
L 66.693606 26.388405 
L 67.076906 26.530186 
L 67.460205 26.671967 
L 67.901193 27.070979 
L 68.342182 27.469992 
L 68.78317 27.869005 
L 69.224158 28.268017 
L 69.182184 28.630235 
L 69.140211 28.992452 
L 69.098237 29.35467 
L 69.056263 29.716887 
L 69.014289 30.079105 
L 68.972315 30.441322 
L 68.930341 30.80354 
L 68.888367 31.165757 
L 68.851605 31.470249 
L 68.814842 31.774741 
L 68.77808 32.079233 
L 68.741317 32.383726 
L 68.704555 32.688218 
L 68.667792 32.99271 
L 68.63103 33.297202 
L 68.594267 33.601694 
L 68.72027 34.000706 
L 68.846272 34.399719 
L 68.972275 34.798732 
L 69.098277 35.197744 
L 69.22428 35.596757 
L 69.350282 35.995769 
L 69.476284 36.394782 
L 69.602287 36.793795 
L 69.717826 37.224203 
L 69.833365 37.654611 
L 69.948905 38.085019 
L 70.064444 38.515427 
L 69.913495 38.942161 
L 69.762547 39.368896 
L 69.611599 39.79563 
L 69.46065 40.222364 
L 69.309702 40.649098 
L 69.158753 41.075832 
L 69.007805 41.502567 
L 68.856857 41.929301 
L 68.705908 42.356035 
L 68.55496 42.782769 
L 68.404011 43.209503 
L 68.253063 43.636237 
L 68.102115 44.062972 
L 67.951166 44.489706 
L 67.800218 44.91644 
L 67.649269 45.343174 
L 67.47689 45.726155 
L 67.30451 46.109136 
L 67.13213 46.492117 
L 66.959751 46.875098 
L 66.787371 47.258079 
L 66.614991 47.641059 
L 66.442611 48.02404 
L 66.270232 48.407021 
L 66.219895 48.75894 
L 66.169559 49.11086 
L 66.119223 49.462779 
L 66.068886 49.814698 
L 66.237994 50.235087 
L 66.407101 50.655475 
L 66.576209 51.075863 
L 66.745316 51.496252 
L 66.718007 51.94425 
L 66.690698 52.392249 
L 66.44956 52.586856 
L 66.208422 52.781464 
L 65.967284 52.976072 
L 65.726147 53.170679 
L 65.485009 53.365287 
L 65.243871 53.559895 
L 65.002734 53.754503 
L 64.761596 53.94911 
" style="fill:none;stroke:#4169e1;stroke-linecap:square;stroke-width:0.4;"/>
   </g>
   <g id="line2d_38">
    <path clip-path="url(#pc196db1975)" d="M 65.666842 49.284314 
L 65.273685 49.531248 
L 64.880529 49.778182 
L 64.560574 49.970117 
L 64.240619 50.162053 
L 64.094539 50.564183 
L 64.313659 50.783284 
L 64.880529 50.929796 
L 65.337676 51.066734 
L 65.794824 51.203672 
L 66.270232 51.551027 
" style="fill:none;stroke:#008000;stroke-linecap:square;stroke-width:0.4;"/>
   </g>
   <g id="line2d_39">
    <path clip-path="url(#pc196db1975)" d="M 64.761596 53.94911 
L 64.332081 54.059997 
L 63.902566 54.170883 
L 63.47305 54.281769 
L 63.043535 54.392656 
L 62.717925 54.288727 
L 62.392314 54.184799 
L 62.066703 54.080871 
L 61.741093 53.976943 
L 61.415482 53.873015 
L 61.089871 53.769087 
L 60.764261 53.665159 
L 60.43865 53.561231 
L 60.092275 53.284126 
L 59.745899 53.007022 
L 59.399524 52.729917 
L 59.053149 52.452813 
L 58.582023 52.293497 
L 58.110898 52.134182 
L 57.639772 51.974866 
L 57.168647 51.815551 
L 56.759896 51.988783 
L 56.351146 52.162015 
L 55.942396 52.335247 
L 55.533645 52.508479 
L 55.346601 52.979523 
L 55.159556 53.450567 
L 54.972512 53.921611 
L 54.785468 54.392656 
L 54.518718 54.697426 
L 54.251967 55.002196 
L 53.985217 55.306967 
L 53.718467 55.611737 
L 53.451717 55.916507 
L 53.184966 56.221278 
L 52.918216 56.526048 
L 52.651466 56.830819 
L 52.28776 57.073243 
L 51.924053 57.315668 
L 51.560347 57.558093 
L 51.196641 57.800517 
L 50.832934 58.042942 
L 50.469228 58.285367 
L 50.105522 58.527791 
L 49.741816 58.770216 
L 49.329591 58.953746 
L 48.917366 59.137276 
L 48.505142 59.320806 
L 48.092917 59.504337 
L 47.680692 59.687867 
L 47.268468 59.871397 
L 46.856243 60.054927 
L 46.444018 60.238458 
L 46.101077 60.28004 
L 45.758135 60.321622 
L 45.415194 60.363205 
L 45.072252 60.404787 
L 44.729311 60.446369 
L 44.386369 60.487952 
L 44.043428 60.529534 
L 43.700486 60.571116 
L 43.19478 60.508771 
L 42.689073 60.446425 
L 42.183367 60.384079 
L 41.67766 60.321734 
L 41.199586 60.245471 
L 40.721512 60.169209 
L 40.243438 60.092947 
L 39.765364 60.016685 
L 39.321952 60.016685 
L 38.87854 60.016685 
L 38.559878 60.106752 
L 38.241216 60.19682 
L 37.922554 60.286887 
L 37.603891 60.376954 
" style="fill:none;stroke:#4169e1;stroke-linecap:square;stroke-width:0.4;"/>
   </g>
   <g id="line2d_40">
    <path clip-path="url(#pc196db1975)" d="M 49.658757 62.981224 
L 49.132225 63.064361 
L 48.605693 63.147498 
L 48.079161 63.230635 
L 47.55263 63.313772 
L 47.026098 63.396908 
L 46.499566 63.480045 
L 45.973034 63.563182 
L 45.446502 63.646319 
L 44.919971 63.729456 
L 44.393439 63.812593 
L 43.866907 63.89573 
L 43.340375 63.978867 
L 42.813843 64.062004 
L 42.287312 64.145141 
L 41.76078 64.228277 
L 41.234248 64.311414 
L 40.91902 64.467251 
L 40.603792 64.623087 
L 40.288563 64.778924 
L 39.973335 64.93476 
L 39.658107 65.090597 
L 39.342879 65.246433 
L 39.02765 65.40227 
L 38.712422 65.558106 
L 38.397194 65.713943 
L 38.081965 65.869779 
L 37.766737 66.025616 
L 37.451509 66.181452 
L 37.136281 66.337288 
L 36.821052 66.493125 
L 36.505824 66.648961 
L 36.190596 66.804798 
" style="fill:none;stroke:#008000;stroke-linecap:square;stroke-width:0.4;"/>
   </g>
   <g id="line2d_41">
    <path clip-path="url(#pc196db1975)" d="M 30.688019 66.666747 
L 30.887061 66.901935 
L 31.086104 67.137123 
L 31.285146 67.372311 
L 31.484189 67.607499 
L 31.683232 67.842687 
L 31.882274 68.077875 
L 32.081317 68.313063 
L 32.28036 68.548251 
" style="fill:none;stroke:#008000;stroke-linecap:square;stroke-width:0.4;"/>
   </g>
   <g id="line2d_42">
    <path clip-path="url(#pc196db1975)" d="M 68.264617 30.850466 
L 67.906122 30.890323 
L 67.547627 30.93018 
L 67.189132 30.970036 
L 66.830637 31.009893 
L 66.54187 31.199046 
L 66.253103 31.388198 
L 65.964335 31.57735 
L 65.675568 31.766503 
" style="fill:none;stroke:#008000;stroke-linecap:square;stroke-width:0.4;"/>
   </g>
   <g id="line2d_43">
    <path clip-path="url(#pc196db1975)" d="M 19.946261 26.62877 
L 19.998294 27.140172 
L 20.050327 27.651574 
L 20.10236 28.162976 
L 20.154393 28.674378 
L 20.206426 29.18578 
L 20.258459 29.697182 
L 20.310493 30.208584 
L 20.362526 30.719985 
L 20.440535 31.240016 
L 20.518544 31.760046 
L 20.596553 32.280076 
L 20.674562 32.800106 
L 20.752572 33.320136 
L 20.830581 33.840166 
L 20.90859 34.360196 
L 20.986599 34.880226 
L 21.025604 35.179263 
L 21.064608 35.4783 
L 21.103613 35.777337 
L 21.142618 36.076374 
L 21.181622 36.37541 
L 21.220627 36.674447 
L 21.259631 36.973484 
L 21.298636 37.272521 
L 21.337641 37.571557 
L 21.376645 37.870594 
L 21.41565 38.169631 
L 21.454654 38.468668 
L 21.493659 38.767705 
L 21.532664 39.066741 
L 21.571668 39.365778 
L 21.610673 39.664815 
L 21.723384 40.184845 
L 21.836096 40.704875 
L 21.948807 41.224905 
L 22.061518 41.744935 
L 22.17423 42.264966 
L 22.286941 42.784996 
L 22.399652 43.305026 
L 22.512364 43.825056 
L 22.564356 44.206422 
L 22.616349 44.587789 
L 22.668342 44.969156 
L 22.720334 45.350522 
L 22.772327 45.731889 
L 22.82432 46.113255 
L 22.876312 46.494622 
L 22.928305 46.875988 
L 22.988983 47.335343 
L 23.049662 47.794697 
L 23.11034 48.254051 
L 23.171018 48.713406 
L 23.231697 49.17276 
L 23.292375 49.632114 
L 23.353053 50.091469 
L 23.413732 50.550823 
L 23.465724 50.975498 
L 23.517717 51.400172 
L 23.56971 51.824847 
L 23.621702 52.249521 
L 23.673695 52.674196 
L 23.725688 53.098871 
L 23.77768 53.523545 
L 23.829673 53.94822 
L 23.899077 54.433514 
L 23.968482 54.918809 
L 24.037886 55.404104 
L 24.10729 55.889398 
L 24.089919 56.46142 
L 24.072548 57.033442 
L 24.055176 57.605464 
L 24.037805 58.177486 
L 24.089838 58.766876 
L 24.141871 59.356266 
L 24.193904 59.945655 
L 24.245937 60.535045 
L 24.280599 60.838368 
L 24.315261 61.141691 
L 24.349923 61.445014 
L 24.384585 61.748337 
L 24.419246 62.05166 
L 24.453908 62.354983 
L 24.48857 62.658306 
L 24.523232 62.96163 
L 24.627257 63.256269 
L 24.731283 63.550908 
L 24.835309 63.845547 
L 24.939335 64.140186 
L 25.04336 64.434826 
L 25.147386 64.729465 
L 25.251412 65.024104 
L 25.355437 65.318743 
" style="fill:none;stroke:#4169e1;stroke-linecap:square;stroke-width:0.4;"/>
   </g>
   <g id="line2d_44">
    <path clip-path="url(#pc196db1975)" d="M 60.44576 23.854831 
L 60.281056 23.577448 
L 60.116352 23.300065 
L 59.951648 23.022683 
L 59.786944 22.7453 
L 59.62224 22.467917 
L 59.457536 22.190534 
L 59.292832 21.913151 
L 59.128128 21.635769 
L 58.79872 21.575093 
L 58.469312 21.514417 
L 58.139904 21.453741 
L 57.810496 21.393066 
L 57.481088 21.33239 
L 57.15168 21.271714 
L 56.822271 21.211038 
L 56.492863 21.150363 
L 56.198117 21.23709 
L 55.903371 21.323817 
L 55.608624 21.410545 
L 55.313878 21.497272 
L 55.019132 21.583999 
L 54.724386 21.670727 
L 54.429639 21.757454 
L 54.134893 21.844181 
L 53.753492 22.121509 
L 53.372091 22.398836 
L 52.990691 22.676163 
L 52.60929 22.95349 
L 52.227889 23.230817 
L 51.846488 23.508144 
L 51.465088 23.785471 
L 51.083687 24.062798 
L 50.719617 24.461533 
L 50.355547 24.860267 
L 49.991477 25.259001 
L 49.627408 25.657736 
L 49.263338 26.05647 
L 48.899268 26.455204 
L 48.535198 26.853938 
L 48.171128 27.252673 
L 47.919729 27.764075 
L 47.66833 28.275477 
L 47.416931 28.786878 
L 47.165533 29.29828 
L 46.914134 29.809682 
L 46.662735 30.321084 
L 46.411336 30.832486 
L 46.159937 31.343888 
L 46.003919 31.664579 
L 45.8479 31.98527 
L 45.691882 32.30596 
L 45.535864 32.626651 
L 45.379845 32.947342 
L 45.223827 33.268033 
L 45.067808 33.588724 
L 44.91179 33.909414 
L 44.819338 34.222117 
L 44.726887 34.53482 
L 44.634435 34.847523 
L 44.541984 35.160225 
L 44.449532 35.472928 
L 44.35708 35.785631 
L 44.264629 36.098334 
L 44.172177 36.411036 
L 44.079725 36.723739 
L 43.987274 37.036442 
L 43.894822 37.349145 
L 43.802371 37.661847 
L 43.709919 37.97455 
L 43.617467 38.287253 
L 43.525016 38.599956 
L 43.432564 38.912658 
L 43.244712 39.266693 
L 43.05686 39.620728 
L 42.869007 39.974762 
L 42.681155 40.328797 
L 42.493303 40.682832 
L 42.305451 41.036866 
L 42.117598 41.390901 
L 41.929746 41.744935 
L 41.877753 42.117618 
L 41.825761 42.490301 
L 41.773768 42.862984 
L 41.721775 43.235666 
L 41.669783 43.608349 
L 41.61779 43.981032 
L 41.565797 44.353714 
L 41.513805 44.726397 
L 41.487788 45.047088 
L 41.461772 45.367779 
L 41.435755 45.688469 
L 41.409738 46.00916 
L 41.383722 46.329851 
L 41.357705 46.650542 
L 41.331689 46.971233 
L 41.305672 47.291923 
L 41.427352 47.83845 
L 41.549032 48.384977 
L 41.670712 48.931504 
L 41.792392 49.478031 
" style="fill:none;stroke:#000000;stroke-dasharray:1.48,0.64;stroke-dashoffset:0;stroke-width:0.4;"/>
   </g>
  </g>
 </g>
 <defs>
  <clipPath id="pc196db1975">
   <rect height="72" width="73.400846" x="0" y="0"/>
  </clipPath>
 </defs>
</svg>
