<?xml version="1.0" encoding="utf-8" standalone="no"?>
<!DOCTYPE svg PUBLIC "-//W3C//DTD SVG 1.1//EN"
  "http://www.w3.org/Graphics/SVG/1.1/DTD/svg11.dtd">
<svg height="72pt" version="1.1" viewBox="0 0 88.078159 72" width="88.078159pt" xmlns="http://www.w3.org/2000/svg" xmlns:xlink="http://www.w3.org/1999/xlink">
 <metadata>
  <rdf:RDF xmlns:cc="http://creativecommons.org/ns#" xmlns:dc="http://purl.org/dc/elements/1.1/" xmlns:rdf="http://www.w3.org/1999/02/22-rdf-syntax-ns#">
   <cc:Work>
    <dc:type rdf:resource="http://purl.org/dc/dcmitype/StillImage"/>
    <dc:date>2022-04-19T00:51:12.595996</dc:date>
    <dc:format>image/svg+xml</dc:format>
    <dc:creator>
     <cc:Agent>
      <dc:title>Matplotlib v3.4.3, https://matplotlib.org/</dc:title>
     </cc:Agent>
    </dc:creator>
   </cc:Work>
  </rdf:RDF>
 </metadata>
 <defs>
  <style type="text/css">*{stroke-linecap:butt;stroke-linejoin:round;}</style>
 </defs>
 <g id="figure_1">
  <g id="patch_1">
   <path d="M 0 72 
L 88.078159 72 
L 88.078159 0 
L 0 0 
z
" style="fill:#ffffff;"/>
  </g>
  <g id="axes_1">
   <g id="line2d_1">
    <path clip-path="url(#p878b1a2302)" d="M 73.151504 66.650083 
L 73.524937 62.267131 
L 73.817472 58.828038 
L 74.110007 55.388945 
L 74.40791 51.89271 
L 74.705813 48.396474 
L 75.019052 44.716279 
L 75.332291 41.036083 
L 75.581885 38.102754 
L 75.831479 35.169425 
L 75.958001 33.68672 
" style="fill:none;stroke:#808080;stroke-linecap:square;stroke-width:0.407769;"/>
   </g>
   <g id="line2d_2">
    <path clip-path="url(#p878b1a2302)" d="M 13.269594 51.163387 
L 15.017137 49.208503 
L 16.76468 47.253618 
L 19.569644 44.114776 
L 22.206678 41.164404 
L 23.802011 39.379444 
L 25.397343 37.594484 
L 27.44624 35.302257 
L 29.495136 33.010029 
L 31.651001 30.597501 
L 33.806867 28.184973 
L 36.396359 25.287734 
L 38.985851 22.390495 
L 41.125997 19.996514 
" style="fill:none;stroke:#808080;stroke-linecap:square;stroke-width:0.407769;"/>
   </g>
   <g id="line2d_3">
    <path clip-path="url(#p878b1a2302)" d="M 5.236571 43.389965 
L 7.645098 40.749367 
L 9.386123 38.840598 
L 11.127148 36.931828 
L 13.026518 34.849124 
L 14.925888 32.766421 
L 17.208659 30.263667 
L 19.49143 27.760914 
L 21.733177 25.302772 
L 23.974924 22.84463 
L 26.193668 20.412052 
L 28.412411 17.979474 
L 30.404564 15.795517 
L 32.396717 13.61156 
L 35.240787 10.493269 
L 38.084858 7.374977 
L 40.337724 4.904805 
" style="fill:none;stroke:#808080;stroke-linecap:square;stroke-width:0.407769;"/>
   </g>
   <g id="line2d_4">
    <path clip-path="url(#p878b1a2302)" d="M 48.873003 68.202963 
L 48.933197 65.585422 
L 48.993391 62.967882 
L 49.071221 59.572398 
L 49.149051 56.176914 
L 49.229182 52.676669 
L 49.309313 49.176423 
L 49.393661 45.505751 
L 49.47801 41.83508 
L 49.545872 38.881199 
L 49.613734 35.927318 
L 49.7069 31.866171 
L 49.800067 27.805024 
L 49.898218 23.531346 
L 49.996368 19.257667 
L 50.08225 15.518324 
L 50.125191 13.633615 
" style="fill:none;stroke:#808080;stroke-linecap:square;stroke-width:0.407769;"/>
   </g>
   <g id="line2d_5">
    <path clip-path="url(#p878b1a2302)" d="M 60.639587 61.076156 
L 61.345046 57.086186 
L 61.928966 53.782431 
L 62.512886 50.478677 
L 62.937503 48.076926 
L 63.36212 45.675174 
L 63.786737 43.273423 
L 64.211354 40.871672 
L 64.912211 36.907768 
L 65.613069 32.943864 
L 65.896785 31.337851 
" style="fill:none;stroke:#808080;stroke-linecap:square;stroke-width:0.407769;"/>
   </g>
   <g id="line2d_6">
    <path clip-path="url(#p878b1a2302)" d="M 13.600086 57.781925 
L 17.785103 57.594707 
L 21.970119 57.407489 
L 26.155136 57.220271 
L 30.340152 57.033053 
" style="fill:none;stroke:#808080;stroke-linecap:square;stroke-width:0.407769;"/>
   </g>
   <g id="line2d_7">
    <path clip-path="url(#p878b1a2302)" d="M 51.601286 61.553348 
L 52.029929 59.01275 
L 52.458571 56.472152 
L 52.887214 53.931554 
L 53.315856 51.390956 
" style="fill:none;stroke:#808080;stroke-linecap:square;stroke-width:0.407769;"/>
   </g>
   <g id="line2d_8">
    <path clip-path="url(#p878b1a2302)" d="M 61.420959 61.365879 
L 61.825831 57.37591 
" style="fill:none;stroke:#808080;stroke-linecap:square;stroke-width:0.407769;"/>
   </g>
   <g id="line2d_9">
    <path clip-path="url(#p878b1a2302)" d="M 70.149472 67.288678 
L 69.759937 64.76387 
L 69.370401 62.239061 
" style="fill:none;stroke:#808080;stroke-linecap:square;stroke-width:0.407769;"/>
   </g>
   <g id="line2d_10">
    <path clip-path="url(#p878b1a2302)" d="M 40.955 4.29428 
L 41.140949 5.04265 
L 41.326899 5.79102 
L 41.612916 6.661194 
L 41.80155 7.235629 
L 42.2762 8.329362 
L 43.142687 8.927857 
L 43.545259 9.619084 
L 43.94783 10.310311 
L 44.815084 11.156426 
L 45.351462 11.703292 
L 45.88784 12.250158 
L 46.956763 12.972964 
" style="fill:none;stroke:#008000;stroke-linecap:square;stroke-width:0.407769;"/>
   </g>
   <g id="line2d_11">
    <path clip-path="url(#p878b1a2302)" d="M 50.956405 12.513817 
L 51.671448 12.79101 
L 52.386492 13.068202 
L 53.320457 13.761434 
L 54.254423 14.454667 
L 55.166534 15.264691 
L 56.078646 16.074714 
L 56.324598 16.880227 
L 56.57055 17.68574 
L 56.816502 18.491252 
L 57.062454 19.296765 
L 57.196644 20.308042 
L 57.330834 21.319319 
L 57.465025 22.330595 
L 57.599215 23.341872 
L 57.661135 24.322071 
L 57.723054 25.302271 
L 57.784973 26.28247 
L 57.846893 27.262669 
L 57.702542 28.222317 
L 57.558191 29.181964 
L 57.413841 30.141612 
L 57.26949 31.10126 
L 56.918486 31.803013 
L 56.567483 32.504767 
L 56.216479 33.20652 
L 55.865475 33.908274 
L 55.390824 34.434589 
L 54.916173 34.960904 
L 54.441523 35.487219 
L 53.966872 36.013534 
L 53.710376 36.822054 
L 53.453881 37.630574 
" style="fill:none;stroke:#4169e1;stroke-linecap:square;stroke-width:0.407769;"/>
   </g>
   <g id="line2d_12">
    <path clip-path="url(#p878b1a2302)" d="M 66.231111 30.232088 
L 66.917016 30.655145 
L 67.602921 31.078202 
L 68.566025 31.997499 
L 69.529129 32.916796 
L 69.930358 33.741357 
L 70.331588 34.565917 
L 70.732817 35.390477 
L 71.134047 36.215037 
L 71.272838 37.272931 
L 71.411629 38.330824 
L 71.550421 39.388717 
L 71.689212 40.44661 
L 71.543232 41.393351 
L 71.397252 42.340091 
L 71.251272 43.286832 
L 71.105292 44.233572 
L 70.959312 45.180313 
L 70.813332 46.127054 
L 70.667352 47.073794 
L 70.521372 48.020535 
L 70.375391 48.967275 
L 70.229411 49.914016 
L 70.083431 50.860756 
L 69.937451 51.807497 
L 69.791471 52.754237 
L 69.645491 53.700978 
L 69.499511 54.647718 
L 69.353531 55.594459 
L 69.061763 56.798217 
L 68.769995 58.001974 
L 68.478226 59.205732 
L 68.186458 60.40949 
L 67.383616 61.241569 
L 66.580773 62.073648 
L 65.822022 62.525778 
L 65.063271 62.977907 
L 64.202152 63.182418 
L 63.341033 63.386929 
L 62.494866 63.313746 
L 61.648699 63.240564 
L 60.568275 62.628033 
" style="fill:none;stroke:#008000;stroke-linecap:square;stroke-width:0.407769;"/>
   </g>
   <g id="line2d_13">
    <path clip-path="url(#p878b1a2302)" d="M 40.955 4.29428 
L 40.232672 3.499293 
L 39.345481 3.272727 
L 38.53037 3.489268 
L 37.715259 3.705809 
L 36.941172 4.092776 
L 36.167085 4.479743 
L 35.392998 4.86671 
L 34.61891 5.253677 
L 33.999909 5.738889 
L 33.380908 6.224102 
L 32.761906 6.709314 
L 32.142905 7.194526 
L 31.456617 8.019838 
L 30.770328 8.845151 
L 30.08404 9.670463 
L 29.397752 10.495775 
L 28.588967 11.440009 
L 27.780182 12.384243 
L 26.971397 13.328478 
L 26.162612 14.272712 
L 25.353827 15.216946 
L 24.545042 16.161181 
L 23.736257 17.105415 
L 22.927472 18.049649 
L 22.118687 18.993883 
L 21.309902 19.938118 
L 20.501117 20.882352 
L 19.692332 21.826586 
L 18.883547 22.77082 
L 18.074762 23.715055 
L 17.265977 24.659289 
L 16.457193 25.603523 
L 15.74004 26.475452 
L 15.022888 27.34738 
L 14.305736 28.219309 
L 13.588584 29.091238 
L 12.871432 29.963166 
L 12.15428 30.835095 
L 11.437128 31.707024 
L 10.719976 32.578952 
L 10.157526 33.28058 
L 9.595077 33.982208 
L 9.032627 34.683836 
L 8.470177 35.385465 
L 7.907728 36.087093 
L 7.345278 36.788721 
L 6.782828 37.490349 
L 6.220379 38.191977 
L 5.838703 38.89373 
L 5.457027 39.595484 
L 5.075351 40.297237 
L 4.693675 40.998991 
L 4.426828 41.832072 
L 4.220941 42.476181 
L 4.015055 43.120291 
L 4.003553 43.499238 
L 4.291104 43.853122 
L 4.873107 43.937332 
L 5.236571 43.389965 
" style="fill:none;stroke:#ff0000;stroke-linecap:square;stroke-width:0.407769;"/>
   </g>
   <g id="line2d_14">
    <path clip-path="url(#p878b1a2302)" d="M 50.956405 12.513817 
L 50.127491 12.385497 
L 48.893706 12.195021 
L 47.925235 12.583993 
L 46.956763 12.972964 
L 46.73324 14.288752 
L 46.509717 15.60454 
L 46.286194 16.920327 
L 46.062671 18.236115 
L 46.274692 19.47471 
L 46.486713 20.713304 
L 46.647742 21.654657 
L 46.80877 22.596009 
L 46.945357 23.393627 
L 47.081944 24.191245 
L 47.21853 24.988862 
L 47.355117 25.78648 
L 47.491704 26.584098 
L 47.62829 27.381716 
L 47.764877 28.179334 
L 47.901464 28.976952 
L 47.940954 30.289231 
L 47.980444 31.60151 
L 47.957464 32.352981 
L 47.934484 33.104453 
L 47.911504 33.855924 
L 47.888524 34.607395 
L 47.865544 35.358867 
L 47.842564 36.110338 
L 47.819584 36.86181 
L 47.796604 37.613281 
L 47.773623 38.364752 
L 47.750643 39.116224 
L 47.727663 39.867695 
L 47.704683 40.619167 
L 47.681703 41.370638 
L 47.658723 42.122109 
L 47.635743 42.873581 
L 47.612763 43.625052 
L 47.589782 44.376523 
L 47.566802 45.127995 
L 47.543822 45.879466 
L 47.520842 46.630938 
L 47.497862 47.382409 
L 47.474882 48.13388 
L 47.451902 48.885352 
L 47.428922 49.636823 
L 47.405942 50.388295 
L 47.382961 51.139766 
L 47.359981 51.891237 
L 47.337001 52.642709 
L 47.314021 53.39418 
L 47.291041 54.145651 
L 47.268061 54.897123 
L 47.245081 55.648594 
L 47.228019 56.342453 
L 47.210958 57.036312 
L 47.193897 57.73017 
L 47.176835 58.424029 
L 47.159774 59.117888 
L 47.142713 59.811746 
L 47.125651 60.505605 
L 47.10859 61.199464 
L 47.087886 62.045077 
L 47.067183 62.890689 
L 47.046479 63.736302 
L 47.025775 64.581915 
L 47.003921 65.47239 
L 46.982068 66.362865 
L 46.960214 67.25334 
L 46.93836 68.143815 
L 48.105433 68.727273 
L 48.777152 68.6982 
L 48.873003 68.202963 
" style="fill:none;stroke:#4169e1;stroke-linecap:square;stroke-width:0.407769;"/>
   </g>
   <g id="line2d_15">
    <path clip-path="url(#p878b1a2302)" d="M 46.062671 18.236115 
L 45.113753 18.703282 
L 44.164835 19.170449 
L 43.110482 19.149397 
L 42.326043 18.437618 
L 41.428117 17.704787 
L 40.313953 17.219575 
L 39.003487 17.322833 
L 38.403081 17.91381 
L 37.802674 18.504786 
L 37.02207 19.273707 
L 36.560263 20.00892 
L 36.098456 20.744132 
L 35.636649 21.479344 
L 35.174842 22.214556 
L 34.713035 22.949768 
L 34.251229 23.68498 
L 33.789422 24.420192 
L 33.327615 25.155404 
L 32.865808 25.890616 
L 32.404001 26.625828 
L 31.942194 27.36104 
L 31.480388 28.096252 
L 31.018581 28.831464 
L 30.556774 29.566676 
L 30.094967 30.301888 
L 29.63316 31.0371 
L 29.395835 31.857399 
L 29.15851 32.677699 
L 28.921184 33.497998 
L 28.683859 34.318298 
L 28.446533 35.138598 
L 28.209208 35.958897 
L 27.971883 36.779197 
L 27.734557 37.599497 
L 27.430137 38.590222 
L 27.125716 39.580947 
L 26.821295 40.571673 
L 26.516875 41.562398 
L 26.042224 42.676682 
L 25.567573 43.790967 
L 25.092923 44.905251 
L 24.618272 46.019535 
L 23.761753 46.984446 
L 22.905235 47.949357 
L 22.048717 48.914268 
L 21.192198 49.879179 
L 20.531789 50.606496 
L 19.871381 51.333813 
L 19.210972 52.061131 
L 18.550563 52.788448 
L 17.79833 53.654111 
L 17.046097 54.519774 
" style="fill:none;stroke:#4169e1;stroke-linecap:square;stroke-width:0.407769;"/>
   </g>
   <g id="line2d_16">
    <path clip-path="url(#p878b1a2302)" d="M 43.786035 28.100763 
L 42.655001 28.254146 
L 41.523967 28.407529 
L 40.392933 28.560913 
L 39.2619 28.714296 
L 38.53938 28.955148 
L 37.81686 29.195999 
L 37.094341 29.436851 
L 36.371821 29.677703 
L 35.481947 30.626073 
L 34.592072 31.574442 
L 34.300112 32.464667 
L 34.008152 33.354891 
L 33.716192 34.245115 
L 33.424232 35.13534 
L 33.438801 35.81391 
L 33.453371 36.492481 
L 33.46794 37.171051 
L 33.482509 37.849621 
L 33.497078 38.528192 
L 33.511648 39.206762 
L 33.526217 39.885333 
L 33.540786 40.563903 
L 33.570116 41.570669 
L 33.599446 42.577434 
L 33.628777 43.5842 
L 33.658107 44.590965 
L 33.475608 45.452117 
L 33.293109 46.313269 
L 33.11061 47.174421 
L 32.928111 48.035572 
L 32.38809 48.932814 
L 31.848069 49.830056 
L 31.308049 50.727298 
L 30.768028 51.62454 
L 30.155353 52.456619 
L 29.542678 53.288698 
L 28.988088 53.762883 
L 28.433498 54.237067 
L 27.878908 54.711252 
L 27.324318 55.185437 
L 26.474221 55.254735 
L 25.624125 55.324033 
L 24.774029 55.393331 
L 23.923932 55.46263 
L 23.073836 55.531928 
L 22.223739 55.601226 
L 21.373643 55.670524 
L 20.523546 55.739822 
L 19.472643 55.419021 
L 18.421741 55.098219 
L 17.733919 54.808996 
L 17.046097 54.519774 
L 16.332012 54.219273 
L 15.617927 53.918772 
L 14.903842 53.618271 
L 14.189757 53.31777 
L 13.471263 52.603987 
L 12.75277 51.890203 
L 13.269594 51.163387 
" style="fill:none;stroke:#4169e1;stroke-linecap:square;stroke-width:0.407769;"/>
   </g>
   <g id="line2d_17">
    <path clip-path="url(#p878b1a2302)" d="M 54.254423 14.454667 
L 54.915215 14.715819 
L 55.576007 14.976972 
L 56.236799 15.238124 
L 56.897591 15.499277 
L 58.09457 16.035617 
L 59.291549 16.571957 
L 59.83847 17.026092 
L 60.385392 17.480226 
L 60.932314 17.934361 
L 61.479236 18.388496 
L 62.428538 19.193507 
L 63.377839 19.998519 
L 64.203685 20.638117 
L 65.029532 21.277715 
L 65.803236 22.353904 
L 66.576939 23.430093 
L 67.321121 23.969942 
L 68.065303 24.50979 
L 68.751208 24.728838 
L 69.437113 24.947885 
L 70.071834 25.349138 
L 70.706554 25.75039 
L 71.341275 26.151643 
L 71.975996 26.552895 
L 72.457548 27.355401 
L 72.9391 28.157906 
L 73.464743 29.033594 
L 73.990386 29.909282 
L 74.048663 30.959907 
L 73.625388 31.675194 
L 73.202113 32.390481 
L 72.73513 32.959403 
L 72.268148 33.528324 
L 71.479875 34.491731 
L 71.306961 35.353384 
L 71.134047 36.215037 
" style="fill:none;stroke:#4169e1;stroke-linecap:square;stroke-width:0.407769;"/>
   </g>
   <g id="line2d_18">
    <path clip-path="url(#p878b1a2302)" d="M 65.896785 31.337851 
L 66.231111 30.232088 
" style="fill:none;stroke:#008000;stroke-linecap:square;stroke-width:0.407769;"/>
   </g>
   <g id="line2d_19">
    <path clip-path="url(#p878b1a2302)" d="M 60.568275 62.628033 
L 60.603931 61.852094 
L 60.639587 61.076156 
" style="fill:none;stroke:#008000;stroke-linecap:square;stroke-width:0.407769;"/>
   </g>
   <g id="line2d_20">
    <path clip-path="url(#p878b1a2302)" d="M 40.337724 4.904805 
L 40.955 4.29428 
" style="fill:none;stroke:#008000;stroke-linecap:square;stroke-width:0.407769;"/>
   </g>
   <g id="line2d_21">
    <path clip-path="url(#p878b1a2302)" d="M 50.127491 12.385497 
L 50.125191 13.633615 
" style="fill:none;stroke:#008000;stroke-linecap:square;stroke-width:0.407769;"/>
   </g>
   <g id="line2d_22">
    <path clip-path="url(#p878b1a2302)" d="M 41.612916 6.661194 
L 41.197693 7.298286 
L 40.782469 7.935377 
L 40.225195 8.632118 
L 39.667922 9.328859 
L 39.110648 10.0256 
L 38.553374 10.722341 
L 37.970221 11.372465 
L 37.387068 12.02259 
L 36.803914 12.672714 
L 36.220761 13.322839 
L 35.627447 13.895519 
L 35.034134 14.4682 
L 34.44082 15.040881 
L 33.847507 15.613562 
L 33.104475 16.206794 
L 32.361444 16.800027 
L 31.618412 17.393259 
L 30.87538 17.986491 
L 30.153052 19.044134 
L 29.430724 20.101777 
L 28.708397 21.159419 
L 27.986069 22.217062 
L 27.588769 22.776961 
L 27.191469 23.33686 
L 26.79417 23.896759 
L 26.39687 24.456658 
L 25.999571 25.016557 
L 25.602271 25.576456 
L 25.204972 26.136355 
L 24.807672 26.696254 
L 24.080168 27.54738 
L 23.352664 28.398507 
L 22.62516 29.249633 
L 21.897656 30.10076 
L 21.226896 30.786975 
L 20.556135 31.473189 
L 19.885375 32.159404 
L 19.214614 32.845618 
L 18.822587 33.403011 
L 18.430559 33.960404 
L 18.038531 34.517797 
L 17.646503 35.075189 
L 17.274987 35.838597 
L 16.903472 36.602004 
L 16.629915 37.298494 
L 16.356358 37.994985 
L 16.082801 38.691475 
L 15.809244 39.387965 
L 15.597799 40.161899 
L 15.386353 40.935833 
L 15.174907 41.709766 
L 14.963461 42.4837 
L 14.741472 43.154376 
L 14.519483 43.825052 
L 14.297493 44.495728 
L 14.075504 45.166403 
L 13.652612 46.146853 
L 13.229721 47.127303 
L 12.775774 47.694721 
L 12.321826 48.262138 
L 11.423901 48.365396 
L 10.525975 48.468654 
L 9.858473 48.255246 
L 9.190972 48.041838 
L 8.52347 47.82843 
L 7.855969 47.615021 
L 7.188467 47.401613 
L 6.520965 47.188205 
L 5.853464 46.974797 
L 5.185962 46.761389 
L 4.636165 46.49372 
L 4.446765 46.286201 
L 4.584022 45.439586 
L 4.72128 44.59297 
L 4.873107 43.937332 
" style="fill:none;stroke:#000000;stroke-linecap:square;stroke-width:0.407769;"/>
   </g>
   <g id="line2d_23">
    <path clip-path="url(#p878b1a2302)" d="M 12.321826 48.262138 
L 12.012038 49.252613 
L 12.001686 49.954367 
L 11.991335 50.65612 
L 12.239012 51.398976 
L 12.75277 51.890203 
" style="fill:none;stroke:#008000;stroke-linecap:square;stroke-width:0.407769;"/>
   </g>
   <g id="line2d_24">
    <path clip-path="url(#p878b1a2302)" d="M 41.125997 19.996514 
L 41.31463 19.397016 
L 40.675117 18.839623 
L 39.84927 18.385488 
L 38.825972 18.445137 
L 37.802674 18.504786 
" style="fill:none;stroke:#008000;stroke-linecap:square;stroke-width:0.407769;"/>
   </g>
   <g id="line2d_25">
    <path clip-path="url(#p878b1a2302)" d="M 40.049406 50.836571 
L 39.495008 51.537322 
L 38.940609 52.238073 
L 37.860568 52.894713 
L 36.780527 53.551354 
L 35.642208 53.988947 
L 34.50389 54.426541 
L 33.237899 54.68218 
L 32.119901 54.787944 
L 31.001903 54.893708 
L 30.082507 54.96664 
L 29.16311 55.039572 
L 28.243714 55.112505 
L 27.324318 55.185437 
" style="fill:none;stroke:#008000;stroke-linecap:square;stroke-width:0.407769;"/>
   </g>
   <g id="line2d_26">
    <path clip-path="url(#p878b1a2302)" d="M 57.649824 61.810992 
L 56.963919 61.869137 
L 56.278015 61.927282 
L 55.402326 62.30673 
L 54.526638 62.686178 
L 53.490687 63.065626 
L 52.454737 63.445075 
L 51.389265 63.54733 
L 50.323793 63.649586 
L 49.33155 63.635049 
L 48.339308 63.620513 
L 47.682542 64.101214 
L 47.025775 64.581915 
" style="fill:none;stroke:#008000;stroke-linecap:square;stroke-width:0.407769;"/>
   </g>
   <g id="line2d_27">
    <path clip-path="url(#p878b1a2302)" d="M 66.231111 30.232088 
L 65.179825 30.143868 
L 64.421457 30.436599 
L 63.749738 31.369931 
L 63.508962 32.114291 
L 63.268186 32.858651 
L 63.02741 33.603011 
L 62.786634 34.347371 
L 62.64099 35.125941 
L 62.495345 35.904511 
L 62.349701 36.683082 
L 62.204056 37.461652 
L 62.058412 38.240222 
L 61.912767 39.018793 
L 61.767123 39.797363 
L 61.621478 40.575933 
L 61.475833 41.354504 
L 61.330189 42.133074 
L 61.184544 42.911645 
L 61.0389 43.690215 
L 60.893255 44.468785 
L 60.747611 45.247356 
L 60.601966 46.025926 
L 60.456322 46.804496 
L 60.280915 47.742402 
L 60.105509 48.680308 
L 59.930103 49.618214 
L 59.754697 50.55612 
L 59.579291 51.494026 
L 59.403885 52.431932 
L 59.228479 53.369838 
L 59.053073 54.307744 
L 58.877667 55.24565 
L 58.702261 56.183556 
L 58.526855 57.121462 
L 58.351449 58.059368 
L 58.176043 58.997274 
L 58.000636 59.93518 
L 57.82523 60.873086 
L 57.649824 61.810992 
L 58.379437 62.015252 
L 59.109049 62.219512 
L 59.838662 62.423773 
L 60.568275 62.628033 
" style="fill:none;stroke:#008000;stroke-linecap:square;stroke-width:0.407769;"/>
   </g>
   <g id="line2d_28">
    <path clip-path="url(#p878b1a2302)" d="M 46.80877 22.596009 
L 46.430928 23.284103 
L 46.053086 23.972197 
L 45.675244 24.660291 
L 45.297402 25.348386 
L 44.91956 26.03648 
L 44.541718 26.724574 
L 44.163877 27.412669 
L 43.786035 28.100763 
L 43.669265 28.811257 
L 43.552495 29.521751 
L 43.435726 30.232245 
L 43.318956 30.942739 
L 43.202186 31.653233 
L 43.085417 32.363727 
L 42.968647 33.074221 
L 42.851877 33.784715 
L 42.735108 34.495209 
L 42.618338 35.205703 
L 42.501568 35.916197 
L 42.384799 36.626691 
L 42.268029 37.337185 
L 42.15126 38.047679 
L 42.03449 38.758173 
L 41.91772 39.468667 
L 41.800951 40.179161 
L 41.684181 40.889655 
L 41.567411 41.600149 
L 41.450642 42.310643 
L 41.333872 43.021137 
L 41.217102 43.731631 
L 41.100333 44.442125 
L 40.983563 45.152619 
L 40.866793 45.863113 
L 40.750024 46.573607 
L 40.633254 47.284101 
L 40.516484 47.994595 
L 40.399715 48.705089 
L 40.282945 49.415583 
L 40.166176 50.126077 
L 40.049406 50.836571 
L 40.283281 51.522785 
L 40.517155 52.209 
L 41.071554 53.171906 
L 41.625952 54.134812 
L 41.968904 54.755112 
L 42.311857 55.375412 
L 42.654809 55.995712 
L 42.997762 56.616011 
L 43.771082 57.272652 
L 44.544402 57.929293 
L 45.113753 58.366886 
L 45.683104 58.80448 
L 46.039476 59.403226 
L 46.395847 60.001972 
L 46.752218 60.600718 
L 47.10859 61.199464 
" style="fill:none;stroke:#4169e1;stroke-linecap:square;stroke-width:0.407769;"/>
   </g>
   <g id="line2d_29">
    <path clip-path="url(#p878b1a2302)" d="M 47.980444 31.60151 
L 48.836196 32.565168 
L 49.691948 33.528825 
L 50.547699 34.492483 
L 51.403451 35.456141 
L 51.916058 35.999749 
L 52.428666 36.543358 
L 52.941273 37.086966 
L 53.453881 37.630574 
L 54.29353 38.520798 
L 54.738467 39.214031 
L 55.183404 39.907263 
L 55.628341 40.600495 
L 56.073278 41.293727 
L 56.146508 42.417034 
L 56.219738 43.54034 
L 55.650387 44.561893 
L 55.081036 45.583445 
L 54.504592 46.221916 
L 53.928148 46.860386 
L 53.351704 47.498856 
L 52.775261 48.137326 
L 52.198817 48.775797 
L 51.622373 49.414267 
L 51.045929 50.052737 
L 50.469485 50.691208 
L 50.066435 51.310881 
L 49.663384 51.930554 
L 49.260334 52.550228 
L 48.857283 53.169901 
L 48.454233 53.789574 
L 48.051182 54.409248 
L 47.648131 55.028921 
L 47.245081 55.648594 
" style="fill:none;stroke:#008000;stroke-linecap:square;stroke-width:0.407769;"/>
   </g>
   <g id="line2d_30">
    <path clip-path="url(#p878b1a2302)" d="M 75.969503 32.668175 
L 76.896951 32.468677 
L 77.824399 32.269178 
L 78.994539 31.897249 
L 79.194291 31.198503 
L 79.394044 30.499757 
L 79.593796 29.814545 
L 79.793548 29.129333 
L 80.564184 28.886727 
L 81.334821 28.644121 
L 82.533333 28.758406 
L 83.446595 29.643618 
L 83.632161 30.342865 
L 83.817727 31.042112 
L 83.946167 32.055143 
L 84.074606 33.068175 
L 83.974538 34.209526 
L 83.874471 35.350878 
L 83.532093 36.377944 
L 83.189716 37.405011 
L 82.59046 38.432578 
L 81.991204 39.460146 
L 81.449074 40.259142 
L 80.906945 41.058138 
L 80.592939 41.985455 
L 80.278934 42.912772 
L 79.851058 43.654626 
L 79.423182 44.39648 
L 78.858432 44.963396 
L 78.293682 45.530313 
" style="fill:none;stroke:#008000;stroke-linecap:square;stroke-width:0.407769;"/>
   </g>
   <g id="line2d_31">
    <path clip-path="url(#p878b1a2302)" d="M 75.113752 54.669147 
L 74.507211 55.560875 
L 73.90067 56.452603 
L 73.294129 57.344331 
L 72.687589 58.236059 
L 72.216772 59.405982 
L 71.745955 60.575906 
L 71.553296 61.467634 
L 71.360637 62.359362 
L 71.167978 63.25109 
L 70.975319 64.142818 
L 71.103758 65.398455 
L 71.232197 66.654093 
L 71.831837 67.596447 
L 72.559533 67.482162 
L 73.287228 67.367876 
" style="fill:none;stroke:#008000;stroke-linecap:square;stroke-width:0.407769;"/>
   </g>
   <g id="line2d_32">
    <path clip-path="url(#p878b1a2302)" d="M 75.958001 33.68672 
L 75.969503 32.668175 
L 74.913616 33.467171 
L 74.371487 33.99499 
L 73.829358 34.522809 
L 73.401482 35.336342 
L 72.973606 36.149874 
L 72.574102 37.119798 
L 72.174598 38.089721 
L 71.931905 39.268166 
L 71.689212 40.44661 
" style="fill:none;stroke:#008000;stroke-linecap:square;stroke-width:0.407769;"/>
   </g>
   <g id="line2d_33">
    <path clip-path="url(#p878b1a2302)" d="M 77.824399 32.269178 
L 77.740578 33.310718 
L 77.656757 34.352258 
L 77.572935 35.393798 
L 77.489114 36.435338 
L 77.405293 37.476878 
L 77.321472 38.518418 
L 77.237651 39.559957 
L 77.15383 40.601497 
L 77.070009 41.643037 
L 76.986188 42.684577 
L 76.902367 43.726117 
L 76.818546 44.767657 
L 76.734724 45.809197 
L 76.650903 46.850737 
L 76.567082 47.892277 
L 76.483261 48.933817 
L 76.312072 49.650733 
L 76.140884 50.367649 
L 75.969695 51.084565 
L 75.798507 51.801482 
L 75.627318 52.518398 
L 75.456129 53.235314 
L 75.284941 53.952231 
L 75.113752 54.669147 
L 75.020969 55.960373 
L 74.928186 57.251599 
L 74.835403 58.542826 
L 74.742619 59.834052 
L 74.749712 61.018261 
L 74.756805 62.20247 
L 74.763898 63.386679 
L 74.770991 64.570888 
L 74.756805 65.427027 
L 74.742619 66.283166 
L 74.20049 67.111235 
L 73.287228 67.367876 
L 73.151504 66.650083 
" style="fill:none;stroke:#008000;stroke-linecap:square;stroke-width:0.407769;"/>
   </g>
   <g id="line2d_34">
    <path clip-path="url(#p878b1a2302)" d="M 54.846394 51.865141 
L 54.651051 52.996217 
L 54.455708 54.127293 
L 54.260365 55.258369 
L 54.065022 56.389445 
L 53.86968 57.520521 
L 53.674337 58.651598 
L 53.478994 59.782674 
L 53.283651 60.91375 
" style="fill:none;stroke:#008000;stroke-linecap:square;stroke-width:0.407769;"/>
   </g>
  </g>
 </g>
 <defs>
  <clipPath id="p878b1a2302">
   <rect height="72" width="88.078159" x="0" y="0"/>
  </clipPath>
 </defs>
</svg>
