<?xml version="1.0" encoding="utf-8" standalone="no"?>
<!DOCTYPE svg PUBLIC "-//W3C//DTD SVG 1.1//EN"
  "http://www.w3.org/Graphics/SVG/1.1/DTD/svg11.dtd">
<svg height="72pt" version="1.1" viewBox="0 0 67.548856 72" width="67.548856pt" xmlns="http://www.w3.org/2000/svg" xmlns:xlink="http://www.w3.org/1999/xlink">
 <metadata>
  <rdf:RDF xmlns:cc="http://creativecommons.org/ns#" xmlns:dc="http://purl.org/dc/elements/1.1/" xmlns:rdf="http://www.w3.org/1999/02/22-rdf-syntax-ns#">
   <cc:Work>
    <dc:type rdf:resource="http://purl.org/dc/dcmitype/StillImage"/>
    <dc:date>2022-04-19T00:51:34.772130</dc:date>
    <dc:format>image/svg+xml</dc:format>
    <dc:creator>
     <cc:Agent>
      <dc:title>Matplotlib v3.4.3, https://matplotlib.org/</dc:title>
     </cc:Agent>
    </dc:creator>
   </cc:Work>
  </rdf:RDF>
 </metadata>
 <defs>
  <style type="text/css">*{stroke-linecap:butt;stroke-linejoin:round;}</style>
 </defs>
 <g id="figure_1">
  <g id="patch_1">
   <path d="M 0 72 
L 67.548856 72 
L 67.548856 0 
L 0 0 
z
" style="fill:#ffffff;"/>
  </g>
  <g id="axes_1">
   <g id="line2d_1">
    <path clip-path="url(#pa8eed11ed4)" d="M 40.451305 63.706504 
L 40.353487 62.796488 
L 40.253918 61.871282 
L 40.154349 60.946077 
L 40.035391 59.840894 
L 39.916434 58.735711 
L 39.784593 57.510814 
L 39.670263 56.449238 
L 39.543801 55.2735 
L 39.417338 54.097763 
L 39.281744 52.837426 
L 39.14615 51.57709 
L 39.021314 50.417848 
L 38.950765 49.76163 
L 38.8208 48.553882 
L 38.690835 47.346134 
L 38.587513 46.386142 
L 38.515463 45.716205 
" style="fill:none;stroke:#808080;stroke-linecap:square;stroke-width:0.4;"/>
   </g>
   <g id="line2d_2">
    <path clip-path="url(#pa8eed11ed4)" d="M 42.17625 64.271263 
L 42.288578 62.959807 
L 42.367382 62.041951 
L 42.446187 61.124096 
L 42.540502 60.023975 
L 42.634818 58.923855 
L 42.705241 58.102521 
L 42.775665 57.281187 
L 42.870731 56.172411 
L 42.965797 55.063635 
L 43.073371 53.809014 
L 43.18645 52.489556 
L 43.299528 51.170097 
L 43.364198 50.416541 
L 43.428868 49.662985 
L 43.528062 48.506029 
L 43.627255 47.349074 
L 43.680292 46.730746 
L 43.738082 46.056563 
L 43.842154 44.841792 
L 43.915455 43.987141 
L 43.988756 43.13249 
L 44.085323 42.006402 
L 44.18189 40.880314 
L 44.266198 39.896314 
L 44.350506 38.912314 
" style="fill:none;stroke:#808080;stroke-linecap:square;stroke-width:0.4;"/>
   </g>
   <g id="line2d_3">
    <path clip-path="url(#pa8eed11ed4)" d="M 9.819829 27.116724 
L 10.964372 26.590836 
L 12.108916 26.065273 
L 13.387552 25.477813 
L 14.666188 24.890353 
L 15.960334 24.29587 
L 16.787658 23.915825 
L 17.614981 23.535781 
L 18.694729 23.039616 
L 19.774477 22.543451 
L 20.80369 22.070804 
L 21.555461 21.72522 
L 22.30398 21.381433 
L 23.052499 21.037645 
" style="fill:none;stroke:#808080;stroke-linecap:square;stroke-width:0.4;"/>
   </g>
   <g id="line2d_4">
    <path clip-path="url(#pa8eed11ed4)" d="M 20.408667 33.330052 
L 21.413113 32.812003 
L 22.288594 32.360588 
L 23.164076 31.909173 
L 24.164644 31.393083 
L 25.165213 30.876993 
L 26.192549 30.347185 
L 27.219886 29.817376 
L 28.363053 29.227793 
L 29.50622 28.638209 
L 30.531431 28.109381 
L 31.556641 27.580552 
L 32.521435 27.083081 
L 33.486228 26.585609 
L 33.990077 26.325605 
" style="fill:none;stroke:#808080;stroke-linecap:square;stroke-width:0.4;"/>
   </g>
   <g id="line2d_5">
    <path clip-path="url(#pa8eed11ed4)" d="M 17.231215 32.840094 
L 18.24942 32.953764 
L 19.267626 33.067435 
" style="fill:none;stroke:#808080;stroke-linecap:square;stroke-width:0.4;"/>
   </g>
   <g id="line2d_6">
    <path clip-path="url(#pa8eed11ed4)" d="M 50.872776 39.824617 
L 50.622352 40.944825 
L 50.371929 42.065034 
L 50.133514 43.13151 
L 49.870706 44.307248 
L 49.607899 45.482985 
L 49.414265 46.349395 
L 49.220631 47.215805 
L 48.924676 48.54 
L 48.641605 49.806379 
L 48.358534 51.072759 
L 48.111112 52.179739 
L 47.863691 53.286718 
L 47.553476 54.674118 
L 47.243261 56.061517 
L 47.007973 57.114438 
L 46.772685 58.167359 
L 46.583804 59.012211 
L 46.394923 59.857063 
L 46.139246 61.000789 
L 45.883569 62.144516 
L 45.634896 63.257212 
L 45.386224 64.369908 
L 45.140054 65.470028 
L 45.04824 65.881267 
" style="fill:none;stroke:#808080;stroke-linecap:square;stroke-width:0.4;"/>
   </g>
   <g id="line2d_7">
    <path clip-path="url(#pa8eed11ed4)" d="M 37.291115 32.047668 
L 38.448604 32.555918 
L 39.606094 33.064168 
L 40.763583 33.572419 
L 41.921073 34.080669 
" style="fill:none;stroke:#808080;stroke-linecap:square;stroke-width:0.4;"/>
   </g>
   <g id="line2d_8">
    <path clip-path="url(#pa8eed11ed4)" d="M 18.697231 31.678565 
L 19.47552 30.803009 
L 20.253809 29.927453 
" style="fill:none;stroke:#808080;stroke-linecap:square;stroke-width:0.4;"/>
   </g>
   <g id="line2d_9">
    <path clip-path="url(#pa8eed11ed4)" d="M 52.671022 68.081507 
L 52.648756 66.650502 
L 52.628117 65.336759 
L 52.607478 64.023017 
L 52.59597 63.285956 
L 52.584462 62.548895 
L 52.572954 61.811834 
L 52.561446 61.074773 
L 52.549062 60.281204 
L 52.536679 59.487634 
L 52.519917 58.420341 
L 52.503156 57.353048 
L 52.489459 56.477655 
L 52.475762 55.602263 
L 52.462065 54.72687 
L 52.448368 53.851477 
L 52.436609 53.096941 
L 52.424851 52.342405 
L 52.413093 51.587869 
L 52.401335 50.833332 
L 52.387638 49.958185 
L 52.373941 49.083037 
L 52.360244 48.207889 
L 52.346547 47.332742 
L 52.330286 46.296643 
L 52.315713 45.364497 
L 52.301141 44.43235 
L 52.286568 43.500204 
L 52.271995 42.568058 
L 52.399209 41.271628 
L 52.526422 39.975197 
" style="fill:none;stroke:#808080;stroke-linecap:square;stroke-width:0.4;"/>
   </g>
   <g id="line2d_10">
    <path clip-path="url(#pa8eed11ed4)" d="M 16.919249 32.015004 
L 17.443237 31.447142 
L 17.967225 30.87928 
L 18.616425 30.175699 
L 19.265625 29.472119 
L 19.911947 28.771805 
L 20.55827 28.07149 
L 21.181327 27.396164 
L 21.804384 26.720838 
L 22.57817 25.882356 
L 23.351956 25.043873 
L 24.00053 24.340783 
L 24.649105 23.637692 
L 25.240014 22.997479 
" style="fill:none;stroke:#808080;stroke-linecap:square;stroke-width:0.4;"/>
   </g>
   <g id="line2d_11">
    <path clip-path="url(#pa8eed11ed4)" d="M 23.871066 33.839936 
L 24.195541 33.90559 
L 24.866506 34.041472 
L 26.140138 34.299517 
L 27.380998 34.550703 
L 28.621858 34.801888 
L 29.478701 34.975333 
L 30.418102 35.165601 
L 31.357503 35.355868 
L 32.720698 35.632041 
L 34.083892 35.908214 
L 34.937609 36.081006 
L 35.791326 36.253799 
L 36.745737 36.447006 
L 37.700148 36.640213 
L 39.089736 36.921612 
L 40.479324 37.203012 
L 41.380198 37.38544 
L 42.281072 37.567867 
L 42.954789 37.704403 
" style="fill:none;stroke:#808080;stroke-linecap:square;stroke-width:0.4;"/>
   </g>
   <g id="line2d_12">
    <path clip-path="url(#pa8eed11ed4)" d="M 25.11868 42.594516 
L 26.206684 42.371911 
L 27.294688 42.149307 
L 28.258356 41.952017 
L 29.222024 41.754727 
L 30.468512 41.499622 
L 31.715001 41.244517 
L 32.91183 40.999537 
L 34.10866 40.754558 
L 34.841167 40.604631 
L 35.573675 40.454703 
L 36.351339 40.29563 
L 37.129002 40.136557 
L 37.918174 39.975034 
L 38.707346 39.813511 
L 39.933321 39.562652 
L 41.159295 39.311793 
L 42.592038 39.018471 
" style="fill:none;stroke:#808080;stroke-linecap:square;stroke-width:0.4;"/>
   </g>
   <g id="line2d_13">
    <path clip-path="url(#pa8eed11ed4)" d="M 19.871544 34.375624 
L 20.720383 34.989542 
L 21.569221 35.60346 
" style="fill:none;stroke:#808080;stroke-linecap:square;stroke-width:0.4;"/>
   </g>
   <g id="line2d_14">
    <path clip-path="url(#pa8eed11ed4)" d="M 35.170896 26.566991 
L 36.445279 26.918781 
L 37.357161 27.17062 
L 38.269042 27.422459 
L 39.399201 27.734481 
L 40.529359 28.046503 
L 41.659517 28.358524 
L 42.789675 28.670546 
L 43.702182 28.922385 
L 44.614689 29.174224 
L 45.577106 29.440108 
L 45.76999 29.49335 
L 45.960872 29.545939 
" style="fill:none;stroke:#808080;stroke-linecap:square;stroke-width:0.4;"/>
   </g>
   <g id="line2d_15">
    <path clip-path="url(#pa8eed11ed4)" d="M 22.819837 50.009222 
L 22.404425 51.02311 
L 21.989012 52.036997 
L 21.573599 53.050885 
L 21.158186 54.064773 
" style="fill:none;stroke:#808080;stroke-linecap:square;stroke-width:0.4;"/>
   </g>
   <g id="line2d_16">
    <path clip-path="url(#pa8eed11ed4)" d="M 16.090925 17.797386 
L 15.746936 17.839522 
" style="fill:none;stroke:#008000;stroke-linecap:square;stroke-width:0.4;"/>
   </g>
   <g id="line2d_17">
    <path clip-path="url(#pa8eed11ed4)" d="M 22.639462 21.689943 
L 22.432999 21.800378 
L 22.226536 21.910813 
L 22.020072 22.021247 
L 21.813609 22.131682 
L 21.607145 22.242116 
L 21.400682 22.352551 
L 21.194219 22.462986 
L 20.987755 22.57342 
L 20.781292 22.683855 
L 20.574829 22.79429 
L 20.368365 22.904724 
L 20.161902 23.015159 
L 19.955438 23.125593 
L 19.748975 23.236028 
L 19.542512 23.346463 
L 19.336048 23.456897 
L 19.129585 23.567332 
L 18.923122 23.677766 
L 18.716658 23.788201 
L 18.510195 23.898636 
L 18.303731 24.00907 
L 18.097268 24.119505 
L 17.890805 24.22994 
L 17.684341 24.340374 
L 17.477878 24.450809 
L 17.271415 24.561243 
L 17.064951 24.671678 
L 16.858488 24.782113 
L 16.652024 24.892547 
L 16.445561 25.002982 
L 16.239098 25.113417 
L 16.032634 25.223851 
L 15.727798 25.358406 
L 15.422962 25.492961 
L 15.118126 25.627516 
L 14.813289 25.762071 
L 14.508453 25.896626 
L 14.203617 26.03118 
L 13.898781 26.165735 
L 13.593945 26.30029 
L 13.289108 26.434845 
L 12.984272 26.5694 
L 12.679436 26.703955 
L 12.3746 26.83851 
L 12.069763 26.973065 
L 11.764927 27.107619 
L 11.460091 27.242174 
L 11.155255 27.376729 
L 10.821398 27.311728 
L 10.487542 27.246727 
L 10.153686 27.181726 
L 9.819829 27.116724 
" style="fill:none;stroke:#000000;stroke-linecap:square;stroke-width:0.4;"/>
   </g>
   <g id="line2d_18">
    <path clip-path="url(#pa8eed11ed4)" d="M 24.385923 23.023284 
L 24.230049 23.198066 
L 24.074175 23.372849 
L 23.918302 23.547631 
L 23.762428 23.722414 
L 23.606554 23.897196 
L 23.450681 24.071979 
L 23.294807 24.246762 
L 23.138933 24.421544 
L 22.98306 24.596327 
L 22.827186 24.771109 
L 22.671313 24.945892 
L 22.515439 25.120674 
L 22.359565 25.295457 
L 22.203692 25.470239 
L 22.047818 25.645022 
L 21.891944 25.819804 
L 21.736071 25.994587 
L 21.580197 26.169369 
L 21.424324 26.344152 
L 21.26845 26.518934 
L 21.112576 26.693717 
L 20.956703 26.868499 
L 20.800829 27.043282 
L 20.644955 27.218064 
L 20.489082 27.392847 
L 20.333208 27.567629 
L 20.177334 27.742412 
L 20.021461 27.917194 
L 19.865587 28.091977 
L 19.709714 28.266759 
L 19.55384 28.441542 
L 19.397966 28.616324 
L 19.137849 28.907646 
L 18.877731 29.198967 
L 18.617613 29.490288 
L 18.357495 29.781609 
L 18.097378 30.07293 
L 17.83726 30.364252 
L 17.577142 30.655573 
L 17.317024 30.946894 
L 17.21758 31.213921 
L 17.118137 31.480949 
L 17.018693 31.747976 
L 16.919249 32.015004 
" style="fill:none;stroke:#000000;stroke-linecap:square;stroke-width:0.4;"/>
   </g>
   <g id="line2d_19">
    <path clip-path="url(#pa8eed11ed4)" d="M 31.075308 26.466386 
L 30.679534 26.446298 
L 30.283759 26.42621 
L 29.894239 26.311069 
L 29.504719 26.195929 
L 29.208076 26.08969 
L 28.911433 25.98345 
L 28.61479 25.877211 
L 28.318147 25.770972 
L 28.025945 25.655913 
L 27.733742 25.540854 
L 27.44154 25.425796 
L 27.149337 25.310737 
L 26.905856 25.151337 
L 26.662375 24.991937 
L 26.418894 24.832538 
L 26.175413 24.673138 
L 25.840305 24.407417 
L 25.505198 24.141696 
L 25.225379 23.862093 
L 24.94556 23.58249 
L 24.665741 23.302887 
L 24.385923 23.023284 
" style="fill:none;stroke:#008000;stroke-linecap:square;stroke-width:0.4;"/>
   </g>
   <g id="line2d_20">
    <path clip-path="url(#pa8eed11ed4)" d="M 27.149337 25.310737 
L 26.762194 25.412649 
L 26.375051 25.51456 
L 26.103863 25.721731 
L 25.832675 25.928902 
L 25.561487 26.136072 
L 25.290299 26.343243 
" style="fill:none;stroke:#4169e1;stroke-linecap:square;stroke-width:0.4;"/>
   </g>
   <g id="line2d_21">
    <path clip-path="url(#pa8eed11ed4)" d="M 34.269271 26.181557 
L 34.202475 25.94801 
L 33.908021 25.621371 
L 33.648841 25.494308 
L 33.374151 25.562903 
L 33.09946 25.631497 
L 32.898634 25.724344 
L 32.697807 25.817191 
L 32.49698 25.910038 
L 32.296154 26.002885 
L 31.990942 26.118761 
L 31.685731 26.234636 
L 31.380519 26.350511 
L 31.075308 26.466386 
L 30.809373 26.546494 
L 30.543439 26.626603 
L 30.277505 26.706711 
L 30.011571 26.786819 
L 29.727249 26.820708 
L 29.442927 26.854597 
L 29.158605 26.888485 
L 28.874283 26.922374 
L 28.515284 26.976106 
L 28.156285 27.029838 
L 27.797286 27.083571 
L 27.438288 27.137303 
L 27.032757 27.234968 
L 26.92168 27.521104 
L 27.035759 27.740932 
L 27.210129 27.942305 
L 27.3845 28.143678 
L 27.612658 28.385227 
L 27.840817 28.626777 
L 27.954896 28.881719 
L 28.068975 29.13666 
L 28.23509 29.527974 
L 28.401205 29.919287 
L 28.460121 30.332323 
L 28.519036 30.745358 
L 28.406021 30.960041 
L 28.293005 31.174725 
L 28.179989 31.389408 
L 28.066973 31.604092 
" style="fill:none;stroke:#4169e1;stroke-linecap:square;stroke-width:0.4;"/>
   </g>
   <g id="line2d_22">
    <path clip-path="url(#pa8eed11ed4)" d="M 35.46635 27.665151 
L 35.25511 27.763837 
L 35.04387 27.862523 
L 34.83263 27.961209 
L 34.62139 28.059895 
L 34.41015 28.158581 
L 34.19891 28.257266 
L 33.98767 28.355952 
L 33.776429 28.454638 
L 33.454894 28.651724 
L 33.133359 28.84881 
L 32.811824 29.045896 
L 32.490288 29.242981 
L 32.168753 29.440067 
L 31.847218 29.637153 
L 31.525682 29.834239 
L 31.204147 30.031325 
L 30.812 30.227921 
L 30.419854 30.424516 
L 30.027707 30.621112 
L 29.63556 30.817708 
L 29.243413 31.014304 
L 28.851267 31.2109 
L 28.45912 31.407496 
L 28.066973 31.604092 
L 27.788124 31.742015 
L 27.509274 31.879938 
L 27.230425 32.017862 
L 26.951575 32.155785 
L 26.672726 32.293708 
L 26.393876 32.431632 
L 26.115027 32.569555 
L 25.836177 32.707478 
L 25.530841 32.832255 
L 25.225504 32.957031 
L 24.920168 33.081807 
L 24.614831 33.206583 
" style="fill:none;stroke:#4169e1;stroke-linecap:square;stroke-width:0.4;"/>
   </g>
   <g id="line2d_23">
    <path clip-path="url(#pa8eed11ed4)" d="M 42.954789 37.704403 
L 43.596484 37.772017 
L 42.756152 35.779355 
L 42.160082 33.829075 
L 40.574077 30.662473 
L 40.025259 29.901322 
L 39.313516 29.682474 
L 38.217507 29.847754 
L 37.47124 30.421658 
L 35.336385 34.455977 
L 31.29471 40.760764 
L 30.851903 40.949561 
L 30.503912 40.678124 
L 30.173808 39.293502 
L 29.999312 37.798801 
L 29.642315 34.146323 
L 28.662636 33.348344 
L 22.820588 33.114797 
L 22.510873 33.271911 
L 22.484355 33.534528 
L 22.705758 33.746844 
L 23.871066 33.839936 
L 23.871066 33.839936 
" style="fill:none;stroke:#008000;stroke-linecap:square;stroke-width:0.4;"/>
   </g>
   <g id="line2d_24">
    <path clip-path="url(#pa8eed11ed4)" d="M 32.152804 36.038543 
L 31.971929 36.384128 
L 31.791054 36.729712 
L 31.610178 37.075296 
L 31.429303 37.42088 
L 31.248428 37.766464 
L 31.067552 38.112048 
L 30.886677 38.457632 
L 30.705802 38.803216 
L 30.602418 39.095885 
L 30.499033 39.388553 
L 30.395649 39.681222 
L 30.292265 39.973891 
L 30.237665 40.251289 
L 30.183064 40.528687 
L 30.128464 40.806085 
L 30.073864 41.083483 
L 29.965476 41.374927 
L 29.857089 41.666371 
L 29.748701 41.957815 
L 29.640313 42.249258 
L 29.42973 42.346678 
L 29.219147 42.444098 
L 29.008563 42.541519 
L 28.79798 42.638939 
L 28.534172 42.692099 
L 28.270364 42.74526 
L 28.006556 42.79842 
L 27.742749 42.851581 
L 27.517593 42.892043 
L 27.292437 42.932505 
L 27.067281 42.972968 
L 26.842124 43.01343 
L 26.616968 43.053893 
L 26.391812 43.094355 
L 26.166656 43.134818 
L 25.9415 43.17528 
L 25.564739 43.117791 
L 25.187978 43.060303 
L 25.153329 42.827409 
L 25.11868 42.594516 
" style="fill:none;stroke:#4169e1;stroke-linecap:square;stroke-width:0.4;"/>
   </g>
   <g id="line2d_25">
    <path clip-path="url(#pa8eed11ed4)" d="M 42.992565 38.978621 
L 42.833455 38.739195 
L 42.438056 38.762876 
L 42.042657 38.786558 
L 41.828071 38.841229 
L 41.613485 38.8959 
L 41.398899 38.950571 
L 41.184312 39.005243 
L 40.969726 39.059914 
L 40.75514 39.114585 
L 40.540554 39.169256 
L 40.325968 39.223927 
L 39.992831 39.306894 
L 39.659694 39.38986 
L 39.326556 39.472826 
L 38.993419 39.555793 
L 38.660282 39.638759 
L 38.327145 39.721725 
L 37.994008 39.804692 
L 37.660871 39.887658 
L 37.44888 39.962785 
L 37.23689 40.037912 
L 37.024899 40.113039 
L 36.812908 40.188166 
L 36.600918 40.263293 
L 36.388927 40.33842 
L 36.176937 40.413547 
L 35.964946 40.488674 
L 35.683438 40.545591 
L 35.401931 40.602507 
L 35.120423 40.659424 
L 34.838916 40.716341 
L 34.597092 40.774605 
L 34.355268 40.83287 
L 34.113444 40.891134 
L 33.87162 40.949398 
L 33.629797 41.007662 
L 33.387973 41.065927 
L 33.146149 41.124191 
L 32.904325 41.182455 
L 32.679888 41.238596 
L 32.455452 41.294737 
L 32.231015 41.350878 
L 32.006578 41.407019 
L 31.782141 41.463161 
L 31.557705 41.519302 
L 31.333268 41.575443 
L 31.108831 41.631584 
L 30.713307 41.819728 
L 30.317783 42.007872 
L 29.979048 42.128565 
L 29.640313 42.249258 
" style="fill:none;stroke:#4169e1;stroke-linecap:square;stroke-width:0.4;"/>
   </g>
   <g id="line2d_26">
    <path clip-path="url(#pa8eed11ed4)" d="M 43.328548 40.382189 
L 42.972552 40.570007 
L 42.616555 40.757824 
L 42.260558 40.945642 
L 41.904562 41.133459 
L 41.672776 41.274649 
L 41.44099 41.415839 
L 41.209205 41.557028 
L 40.977419 41.698218 
L 40.764647 41.87444 
L 40.551874 42.050662 
L 40.348358 42.219289 
L 40.144842 42.387917 
L 39.941326 42.556544 
L 39.73781 42.725171 
L 39.326087 42.866769 
L 38.914365 43.008367 
L 38.502642 43.149965 
L 38.090919 43.291563 
L 37.758876 43.504042 
L 37.426834 43.716521 
L 37.094791 43.929 
L 36.762749 44.141478 
L 36.457287 44.168018 
L 36.151825 44.194557 
L 35.846364 44.221097 
L 35.540902 44.247636 
L 35.290041 44.061697 
L 35.039179 43.875757 
L 34.788318 43.689818 
L 34.537457 43.503879 
L 34.319055 43.189652 
L 34.100654 42.875425 
L 33.882253 42.561199 
L 33.663851 42.246972 
L 33.47397 41.980843 
L 33.284088 41.714713 
L 33.094207 41.448584 
L 32.904325 41.182455 
L 32.784304 40.930698 
L 32.664284 40.678941 
L 32.544263 40.427184 
L 32.424242 40.175427 
L 32.1468 39.886351 
L 31.845591 39.848135 
" style="fill:none;stroke:#008000;stroke-linecap:square;stroke-width:0.4;"/>
   </g>
   <g id="line2d_27">
    <path clip-path="url(#pa8eed11ed4)" d="M 31.677475 48.580176 
L 31.392621 48.504192 
L 31.107768 48.428207 
L 30.822914 48.352223 
L 30.53806 48.276239 
L 30.253207 48.200254 
L 29.968353 48.12427 
L 29.6835 48.048285 
L 29.398646 47.972301 
L 29.188594 47.814943 
L 28.978542 47.657584 
L 28.768491 47.500226 
L 28.558439 47.342868 
L 28.348387 47.185509 
L 28.138335 47.028151 
L 27.928283 46.870792 
L 27.718232 46.713434 
L 27.524378 46.528434 
L 27.330525 46.343434 
L 27.136672 46.158434 
L 26.942819 45.973433 
L 26.748966 45.788433 
L 26.555113 45.603433 
L 26.36126 45.418433 
L 26.167407 45.233433 
L 25.999353 44.939212 
L 25.831299 44.644992 
L 25.663245 44.350772 
L 25.495191 44.056552 
L 25.418388 43.80749 
L 25.341585 43.558428 
L 25.264782 43.309365 
L 25.187978 43.060303 
" style="fill:none;stroke:#4169e1;stroke-linecap:square;stroke-width:0.4;"/>
   </g>
   <g id="line2d_28">
    <path clip-path="url(#pa8eed11ed4)" d="M 30.511417 50.175155 
L 30.13303 50.175971 
L 29.754643 50.176788 
L 29.444803 50.119626 
L 29.134963 50.062464 
L 28.921378 49.899798 
L 28.707792 49.737132 
L 28.494207 49.574466 
L 28.280621 49.411799 
L 28.112817 49.223696 
L 27.945014 49.035593 
L 27.77721 48.84749 
L 27.609406 48.659386 
L 27.441602 48.471283 
L 27.273799 48.28318 
L 27.105995 48.095076 
L 26.938191 47.906973 
L 26.724543 47.662811 
L 26.510895 47.418648 
L 26.429526 47.144108 
L 26.348157 46.869568 
L 26.266788 46.595027 
L 26.185419 46.320487 
L 26.180916 46.048724 
L 26.176413 45.77696 
L 26.17191 45.505196 
L 26.167407 45.233433 
" style="fill:none;stroke:#4169e1;stroke-linecap:square;stroke-width:0.4;"/>
   </g>
   <g id="line2d_29">
    <path clip-path="url(#pa8eed11ed4)" d="M 38.515463 45.716205 
L 38.496763 45.95849 
L 38.478062 46.200774 
L 38.459362 46.443059 
L 38.440661 46.685343 
L 38.274922 46.901088 
L 38.109182 47.116833 
L 37.943442 47.332578 
L 37.777702 47.548324 
L 37.507953 47.679306 
L 37.238203 47.810288 
L 36.968454 47.94127 
L 36.698704 48.072253 
L 36.488653 48.176287 
L 36.278601 48.280322 
L 36.068549 48.384356 
L 35.858497 48.488391 
L 35.648445 48.592425 
L 35.438394 48.69646 
L 35.228342 48.800494 
L 35.01829 48.904529 
L 34.713829 49.031755 
L 34.409368 49.158981 
L 34.104907 49.286207 
L 33.800446 49.413432 
L 33.576916 49.586796 
L 33.353386 49.76016 
L 33.129856 49.933524 
L 32.906327 50.106887 
L 32.686612 50.380447 
L 32.466897 50.654008 
L 32.247182 50.927568 
L 32.027468 51.201128 
L 31.72851 51.404624 
L 31.429553 51.60812 
L 31.077809 51.775523 
L 30.726066 51.942925 
L 30.484899 51.991594 
L 30.243732 52.040264 
L 29.935518 52.204563 
" style="fill:none;stroke:#008000;stroke-linecap:square;stroke-width:0.4;"/>
   </g>
   <g id="line2d_30">
    <path clip-path="url(#pa8eed11ed4)" d="M 31.429553 51.60812 
L 31.419296 51.876291 
L 31.409039 52.144462 
L 31.585786 52.392381 
L 31.762534 52.6403 
L 31.930713 52.830118 
L 32.098892 53.019936 
L 32.267071 53.209754 
L 32.43525 53.399572 
L 32.603429 53.58939 
L 32.771608 53.779208 
L 32.939787 53.969026 
L 33.107966 54.158845 
L 33.276145 54.348663 
L 33.444324 54.538481 
L 33.612503 54.728299 
L 33.780682 54.918117 
L 33.948861 55.107935 
L 34.11704 55.297753 
L 34.285219 55.487571 
L 34.453399 55.67739 
L 34.616668 55.98541 
L 34.779937 56.293431 
L 34.943207 56.601451 
L 35.106476 56.909472 
L 35.269745 57.217493 
L 35.433015 57.525513 
L 35.596284 57.833534 
L 35.759554 58.141554 
L 35.86694 58.384901 
L 35.974327 58.628247 
L 36.081714 58.871593 
L 36.189101 59.114939 
L 36.404469 59.439822 
L 36.619837 59.764706 
L 36.835205 60.089589 
L 37.050573 60.414472 
L 37.265941 60.739356 
L 37.481309 61.064239 
L 37.696677 61.389122 
L 37.912045 61.714006 
" style="fill:none;stroke:#4169e1;stroke-linecap:square;stroke-width:0.4;"/>
   </g>
   <g id="line2d_31">
    <path clip-path="url(#pa8eed11ed4)" d="M 32.906327 50.106887 
L 33.113595 50.391145 
L 33.320864 50.675402 
L 33.528132 50.95966 
L 33.735401 51.243918 
L 33.883738 51.484732 
L 34.032075 51.725547 
L 34.180412 51.966362 
L 34.32875 52.207176 
L 34.477087 52.447991 
L 34.625424 52.688806 
L 34.773761 52.92962 
L 34.922098 53.170435 
L 35.070435 53.411249 
L 35.218773 53.652064 
L 35.36711 53.892879 
L 35.515447 54.133693 
L 35.663784 54.374508 
L 35.812121 54.615323 
L 35.960458 54.856137 
L 36.108796 55.096952 
L 36.242294 55.352567 
L 36.375793 55.608183 
L 36.509292 55.863798 
L 36.642791 56.119414 
L 36.776289 56.375029 
L 36.909788 56.630645 
L 37.043287 56.88626 
L 37.176786 57.141876 
L 37.310284 57.397491 
L 37.443783 57.653107 
L 37.577282 57.908722 
L 37.710781 58.164338 
L 37.844279 58.419953 
L 37.977778 58.675568 
L 38.111277 58.931184 
L 38.244776 59.186799 
L 38.333681 59.394766 
L 38.422586 59.602733 
L 38.511492 59.8107 
L 38.600397 60.018667 
L 38.689302 60.226634 
L 38.778208 60.434601 
L 38.867113 60.642568 
L 38.956018 60.850535 
L 39.044924 61.058502 
L 39.133829 61.266469 
L 39.222735 61.474436 
L 39.31164 61.682403 
L 39.400545 61.89037 
L 39.489451 62.098337 
L 39.578356 62.306304 
L 39.667261 62.514271 
L 39.729492 62.730343 
L 39.791723 62.946415 
L 39.853953 63.162487 
L 39.916184 63.378558 
" style="fill:none;stroke:#4169e1;stroke-linecap:square;stroke-width:0.4;"/>
   </g>
   <g id="line2d_32">
    <path clip-path="url(#pa8eed11ed4)" d="M 41.903811 42.7856 
L 41.789294 43.143841 
L 41.674777 43.502082 
L 41.56026 43.860324 
L 41.445744 44.218565 
L 41.409625 44.464933 
L 41.373506 44.7113 
L 41.337387 44.957668 
L 41.301269 45.204035 
L 41.26515 45.450403 
L 41.229031 45.69677 
L 41.192912 45.943138 
L 41.156793 46.189505 
L 41.154886 46.453154 
L 41.152978 46.716803 
L 41.151071 46.980451 
L 41.149163 47.2441 
L 41.147256 47.507749 
L 41.145348 47.771398 
L 41.14344 48.035046 
L 41.141533 48.298695 
L 41.139625 48.562344 
L 41.137718 48.825993 
L 41.13581 49.089641 
L 41.133903 49.35329 
L 41.131995 49.616939 
L 41.130087 49.880588 
L 41.12818 50.144236 
L 41.126272 50.407885 
L 41.124365 50.671534 
L 41.122457 50.935183 
L 41.12055 51.198831 
L 41.118642 51.46248 
L 41.116734 51.726129 
L 41.114827 51.989778 
L 41.112919 52.253426 
L 41.111012 52.517075 
L 41.109104 52.780724 
L 41.107197 53.044373 
L 41.105289 53.308021 
L 41.103381 53.57167 
L 41.101474 53.835319 
L 41.099566 54.098968 
L 41.097659 54.362616 
L 41.095751 54.626265 
L 41.095751 54.929835 
L 41.095751 55.233405 
L 41.095751 55.536976 
L 41.095751 55.840546 
L 41.095751 56.144116 
L 41.095751 56.447686 
L 41.095751 56.751256 
L 41.095751 57.054826 
L 41.095751 57.358397 
L 41.095751 57.661967 
L 41.095751 57.965537 
L 41.095751 58.269107 
L 41.095751 58.572677 
L 41.095751 58.876247 
L 41.095751 59.179818 
L 41.095751 59.483388 
L 41.106024 59.760173 
L 41.116297 60.036959 
L 41.126569 60.313745 
L 41.136842 60.590531 
L 41.147115 60.867316 
L 41.157388 61.144102 
L 41.16766 61.420888 
L 41.177933 61.697674 
L 41.188206 61.97446 
L 41.198479 62.251245 
L 41.208751 62.528031 
L 41.219024 62.804817 
L 41.229297 63.081603 
L 41.23957 63.358388 
L 41.249842 63.635174 
L 41.260115 63.91196 
" style="fill:none;stroke:#000000;stroke-linecap:square;stroke-width:0.4;"/>
   </g>
   <g id="line2d_33">
    <path clip-path="url(#pa8eed11ed4)" d="M 51.703602 39.757002 
L 51.478508 40.103893 
L 51.253415 40.450784 
L 51.028321 40.797674 
L 50.803228 41.144565 
L 50.509524 41.318909 
L 50.215821 41.493252 
L 49.922117 41.667596 
L 49.628414 41.841939 
L 49.340589 41.992275 
L 49.052765 42.142611 
L 48.76494 42.292946 
L 48.477116 42.443282 
L 48.11474 42.661313 
L 47.752364 42.879345 
L 47.389988 43.097377 
L 47.027611 43.315408 
L 46.86994 43.553528 
L 46.712268 43.791648 
L 46.554596 44.029768 
L 46.396924 44.267888 
L 46.450086 44.549287 
L 46.503248 44.830687 
L 46.55641 45.112086 
L 46.609572 45.393486 
L 46.625083 45.475472 
L 46.780002 45.666964 
L 46.934922 45.858456 
L 47.089842 46.049949 
L 47.244762 46.241441 
L 47.513698 46.504058 
L 47.782635 46.766676 
L 47.81203 47.049056 
L 47.841425 47.331435 
L 47.615644 47.544077 
L 47.389862 47.756719 
L 47.040871 47.916936 
L 46.691879 48.077152 
L 46.38329 48.21875 
L 46.074701 48.360348 
L 45.833159 48.528077 
L 45.591616 48.695806 
L 45.350074 48.863536 
L 45.108532 49.031265 
L 44.900513 49.326546 
L 44.692493 49.621828 
L 44.738087 49.872442 
L 44.783682 50.123056 
L 44.829276 50.37367 
L 44.87487 50.624283 
L 45.099025 50.968234 
L 45.32318 51.312185 
L 45.400859 51.531033 
L 45.478538 51.749882 
L 45.556217 51.96873 
L 45.633896 52.187578 
L 45.673673 52.465221 
L 45.713451 52.742864 
L 45.753228 53.020507 
L 45.793006 53.298151 
L 45.846668 53.690607 
L 45.90033 54.083064 
L 45.953993 54.475521 
L 46.007655 54.867978 
L 45.880191 55.270397 
L 45.752728 55.672817 
L 45.497676 56.028363 
L 45.242625 56.38391 
L 45.078261 56.659021 
L 44.913897 56.934133 
L 44.749533 57.209245 
L 44.585169 57.484357 
L 44.538136 57.853296 
L 44.491104 58.222234 
L 44.670228 58.549363 
L 44.849352 58.876492 
L 45.088361 59.0786 
L 45.327371 59.280708 
L 45.56638 59.482816 
L 45.80539 59.684924 
L 46.044399 59.887032 
L 46.283408 60.08914 
L 46.522418 60.291248 
L 46.761427 60.493356 
L 47.068327 60.717512 
L 47.375227 60.941668 
L 47.682127 61.165824 
L 47.989028 61.38998 
L 48.118868 61.732134 
L 48.248708 62.074289 
L 48.083468 62.221766 
L 47.918229 62.369244 
L 47.752989 62.516721 
L 47.58775 62.664199 
L 47.239571 62.751248 
L 46.891392 62.838297 
L 46.543213 62.925347 
L 46.195035 63.012396 
L 45.846856 63.099445 
L 45.498677 63.186495 
L 45.150498 63.273544 
L 44.802319 63.360593 
L 44.474061 63.474427 
L 44.145802 63.588261 
L 43.817543 63.702094 
L 43.489285 63.815928 
L 43.161026 63.929762 
L 42.832767 64.043595 
L 42.504509 64.157429 
L 42.17625 64.271263 
" style="fill:none;stroke:#4169e1;stroke-linecap:square;stroke-width:0.4;"/>
   </g>
   <g id="line2d_34">
    <path clip-path="url(#pa8eed11ed4)" d="M 43.328548 40.382189 
L 43.450133 40.628067 
L 43.571717 40.873945 
L 43.693301 41.119822 
L 43.814885 41.3657 
L 44.027595 41.678702 
L 44.240305 41.991703 
L 44.453015 42.304705 
L 44.665725 42.617707 
L 44.796566 43.013512 
L 44.927406 43.409317 
L 45.058247 43.805122 
L 45.189087 44.200927 
L 45.299789 44.405566 
L 45.410491 44.610205 
L 45.521193 44.814845 
L 45.631894 45.019484 
L 45.878815 45.25842 
L 46.125737 45.497357 
L 46.294854 45.66084 
L 46.463971 45.824323 
L 46.659169 45.928602 
L 46.854366 46.032882 
L 47.049564 46.137161 
L 47.244762 46.241441 
" style="fill:none;stroke:#008000;stroke-linecap:square;stroke-width:0.4;"/>
   </g>
   <g id="line2d_35">
    <path clip-path="url(#pa8eed11ed4)" d="M 46.691879 48.077152 
L 46.546778 48.358878 
L 46.401678 48.640605 
L 46.544026 48.976226 
L 46.686375 49.311848 
L 46.67593 49.637915 
L 46.665486 49.963983 
L 46.655041 50.29005 
L 46.644596 50.616117 
L 46.487487 51.001062 
L 46.330378 51.386006 
L 46.041053 51.636048 
L 45.751727 51.88609 
L 45.633896 52.187578 
" style="fill:none;stroke:#4169e1;stroke-linecap:square;stroke-width:0.4;"/>
   </g>
   <g id="line2d_36">
    <path clip-path="url(#pa8eed11ed4)" d="M 50.803228 41.144565 
L 50.717856 41.438622 
L 50.632484 41.732679 
L 50.547113 42.026735 
L 50.461741 42.320792 
L 50.431533 42.608316 
L 50.401324 42.89584 
L 50.371116 43.183364 
L 50.340907 43.470888 
L 50.338687 43.785156 
L 50.336467 44.099423 
L 50.334246 44.413691 
L 50.332026 44.727959 
L 50.329806 45.042226 
L 50.327586 45.356494 
L 50.325365 45.670761 
L 50.323145 45.985029 
L 50.313388 46.05493 
L 50.279208 46.300685 
L 50.245028 46.54644 
L 50.210848 46.792195 
L 50.176668 47.03795 
L 50.142489 47.283705 
L 50.108309 47.52946 
L 50.074129 47.775215 
L 50.039949 48.02097 
L 49.955828 48.341893 
L 49.871707 48.662816 
L 49.787586 48.983739 
L 49.703466 49.304662 
L 49.619345 49.625585 
L 49.535224 49.946507 
L 49.451103 50.26743 
L 49.366982 50.588353 
L 49.350377 50.817388 
L 49.333772 51.046424 
L 49.317167 51.275459 
L 49.300561 51.504494 
L 49.283956 51.733529 
L 49.267351 51.962564 
L 49.250746 52.1916 
L 49.23414 52.420635 
L 49.217535 52.64967 
L 49.20093 52.878705 
L 49.184325 53.107741 
L 49.167719 53.336776 
L 49.151114 53.565811 
L 49.134509 53.794846 
L 49.117904 54.023881 
L 49.101298 54.252917 
L 49.048183 54.521802 
L 48.995068 54.790687 
L 48.941954 55.059572 
L 48.888839 55.328457 
L 48.835724 55.597343 
L 48.782609 55.866228 
L 48.729494 56.135113 
L 48.676379 56.403998 
L 48.623264 56.672883 
L 48.570149 56.941768 
L 48.517034 57.210654 
L 48.463919 57.479539 
L 48.410804 57.748424 
L 48.357689 58.017309 
L 48.304574 58.286194 
L 48.251459 58.55508 
L 48.273225 58.80308 
L 48.29499 59.051081 
L 48.316755 59.299082 
L 48.33852 59.547082 
L 48.618151 59.868332 
L 48.897782 60.189581 
L 49.177414 60.510831 
L 49.457045 60.83208 
L 49.607211 61.22421 
L 49.757378 61.616341 
L 49.907545 62.008471 
L 50.057711 62.400601 
L 50.063997 62.680122 
L 50.070282 62.959644 
L 50.076568 63.239165 
L 50.082853 63.518686 
L 50.089139 63.798208 
L 50.095425 64.077729 
L 50.10171 64.357251 
L 50.107996 64.636772 
L 50.14818 64.854722 
L 50.188364 65.072672 
L 50.228548 65.290622 
L 50.268732 65.508572 
L 50.308916 65.726521 
L 50.3491 65.944471 
L 50.389285 66.162421 
L 50.429469 66.380371 
L 50.530789 66.614245 
L 50.632109 66.848118 
L 50.733429 67.081992 
L 50.834749 67.315865 
" style="fill:none;stroke:#4169e1;stroke-linecap:square;stroke-width:0.4;"/>
   </g>
   <g id="line2d_37">
    <path clip-path="url(#pa8eed11ed4)" d="M 52.864406 40.157462 
L 52.803082 40.370349 
L 52.741758 40.583236 
L 52.680435 40.796123 
L 52.619111 41.00901 
L 52.557787 41.221897 
L 52.496463 41.434784 
L 52.43514 41.647671 
L 52.373816 41.860558 
L 52.308896 42.080631 
L 52.243976 42.300704 
L 52.179056 42.520777 
L 52.114136 42.74085 
L 52.110258 43.083739 
L 52.106381 43.426629 
L 52.102503 43.769518 
L 52.098625 44.112407 
L 52.115981 44.35902 
L 52.133337 44.605632 
L 52.150693 44.852245 
L 52.168048 45.098857 
L 52.185404 45.34547 
L 52.20276 45.592082 
L 52.220116 45.838695 
L 52.237471 46.085307 
L 52.238722 46.261039 
L 52.241537 46.62863 
L 52.244351 46.996222 
L 52.247166 47.363813 
L 52.24998 47.731405 
L 52.252795 48.098996 
L 52.255609 48.466588 
L 52.258423 48.834179 
L 52.261238 49.20177 
L 52.264052 49.569362 
L 52.266867 49.936953 
L 52.269681 50.304545 
L 52.272496 50.672136 
L 52.27531 51.039727 
L 52.278125 51.407319 
L 52.280939 51.77491 
L 52.283754 52.142502 
L 52.293385 52.570195 
L 52.303017 52.997888 
L 52.312649 53.425581 
L 52.32228 53.853274 
L 52.331912 54.280967 
L 52.341544 54.70866 
L 52.351175 55.136353 
L 52.360807 55.564046 
L 52.355366 55.943682 
L 52.349924 56.323318 
L 52.344483 56.702954 
L 52.339042 57.082591 
L 52.333601 57.462227 
L 52.328159 57.841863 
L 52.322718 58.221499 
L 52.317277 58.601136 
L 52.290133 59.005801 
L 52.262989 59.410466 
L 52.235845 59.81513 
L 52.208702 60.219795 
L 52.181558 60.62446 
L 52.154414 61.029125 
L 52.12727 61.43379 
L 52.100126 61.838455 
L 51.980168 62.172403 
L 51.86021 62.50635 
L 51.740252 62.840298 
L 51.620294 63.174246 
L 51.500336 63.508193 
L 51.380378 63.842141 
L 51.260419 64.176088 
L 51.140461 64.510036 
L 51.051587 64.743828 
L 50.962713 64.97762 
L 50.873839 65.211412 
L 50.784965 65.445204 
L 50.696091 65.678995 
L 50.607217 65.912787 
L 50.518343 66.146579 
L 50.429469 66.380371 
" style="fill:none;stroke:#4169e1;stroke-linecap:square;stroke-width:0.4;"/>
   </g>
   <g id="line2d_38">
    <path clip-path="url(#pa8eed11ed4)" d="M 53.455816 41.426454 
L 53.441368 41.791474 
L 53.426921 42.156493 
L 53.412473 42.521512 
L 53.398026 42.886531 
L 53.406813 43.111381 
L 53.4156 43.336231 
L 53.424388 43.561082 
L 53.433175 43.785932 
L 53.441962 44.010782 
L 53.45075 44.235632 
L 53.459537 44.460482 
L 53.468324 44.685332 
L 53.615802 45.036633 
L 53.763279 45.387933 
L 53.888115 45.685338 
L 54.012952 45.982743 
L 54.137788 46.280147 
L 54.262625 46.577552 
L 54.423267 46.930894 
L 54.58391 47.284236 
L 54.744552 47.637578 
L 54.905195 47.990919 
L 55.065838 48.344261 
L 55.22648 48.697603 
L 55.387123 49.050945 
L 55.547765 49.404287 
L 55.626632 49.748891 
L 55.7055 50.093495 
L 55.784367 50.438099 
L 55.863234 50.782703 
L 55.942101 51.127308 
L 56.020968 51.471912 
L 56.099835 51.816516 
L 56.178702 52.16112 
L 56.225422 52.575788 
L 56.272142 52.990457 
L 56.318862 53.405125 
L 56.365582 53.819793 
L 56.412302 54.234462 
L 56.459022 54.64913 
L 56.505742 55.063798 
L 56.552461 55.478466 
L 56.482382 55.726671 
L 56.412302 55.974876 
L 56.342222 56.223081 
L 56.272142 56.471286 
L 56.202062 56.719491 
L 56.131983 56.967695 
L 56.061903 57.2159 
L 55.991823 57.464105 
L 55.763978 57.779393 
L 55.536132 58.094682 
L 55.308287 58.40997 
L 55.080441 58.725258 
L 54.922707 58.976444 
L 54.764973 59.227629 
L 54.607239 59.478815 
L 54.449504 59.73 
L 54.41448 60.057048 
L 54.379456 60.384095 
L 54.344431 60.711142 
L 54.309407 61.03819 
L 54.274383 61.365237 
L 54.239359 61.692284 
L 54.204334 62.019332 
L 54.16931 62.346379 
L 54.183914 62.644192 
L 54.198518 62.942005 
L 54.213122 63.239818 
L 54.227726 63.537632 
L 54.242329 63.835445 
L 54.256933 64.133258 
L 54.271537 64.431071 
L 54.286141 64.728884 
L 54.330109 65.042621 
L 54.374077 65.356358 
L 54.418045 65.670095 
L 54.462013 65.983831 
L 54.461575 66.245551 
L 54.461137 66.50727 
L 54.460699 66.76899 
L 54.460262 67.03071 
" style="fill:none;stroke:#4169e1;stroke-linecap:square;stroke-width:0.4;"/>
   </g>
   <g id="line2d_39">
    <path clip-path="url(#pa8eed11ed4)" d="M 54.504292 42.942713 
L 54.650644 43.281111 
L 54.796995 43.619509 
L 54.877738 43.931286 
L 54.958482 44.243063 
L 55.039225 44.55484 
L 55.119969 44.866617 
L 55.261817 45.077626 
L 55.400726 45.284388 
L 55.539635 45.491151 
L 55.678543 45.697913 
L 55.817452 45.904676 
L 56.045297 46.10907 
L 56.273143 46.313465 
L 56.500988 46.517859 
L 56.728834 46.722253 
L 56.939104 46.926648 
L 57.149375 47.131042 
L 57.359646 47.335437 
L 57.569916 47.539831 
L 57.715642 47.737366 
L 57.861368 47.934901 
L 58.007094 48.132436 
L 58.15282 48.329971 
L 58.15282 48.666409 
L 58.15282 49.002847 
L 57.95806 49.365743 
L 57.7633 49.728639 
L 57.692501 50.109337 
L 57.621702 50.490035 
L 57.719145 50.870733 
L 57.816587 51.25143 
L 57.803266 51.627637 
L 57.789944 52.003843 
L 57.776622 52.38005 
L 57.7633 52.756256 
L 57.767741 53.072729 
L 57.772182 53.389201 
L 57.776622 53.705674 
L 57.781063 54.022146 
L 57.785503 54.338619 
L 57.789944 54.655091 
L 57.794384 54.971563 
L 57.798825 55.288036 
L 57.785503 55.690782 
L 57.772182 56.093528 
L 57.75886 56.496274 
L 57.745538 56.89902 
L 57.652599 57.124727 
L 57.559659 57.350435 
L 57.46672 57.576142 
L 57.373781 57.80185 
L 57.24982 58.169237 
L 57.125859 58.536624 
L 57.001898 58.904012 
L 56.877937 59.271399 
L 57.063816 59.651933 
L 57.249695 60.032468 
L 57.373655 60.324647 
L 57.497616 60.616825 
L 57.497616 60.877973 
L 57.497616 61.139121 
L 57.497616 61.400269 
L 57.497616 61.661417 
L 57.293975 62.033132 
L 57.090334 62.404847 
L 56.961995 62.670405 
L 56.833656 62.935962 
L 56.705317 63.20152 
L 56.576978 63.467078 
L 56.519376 63.701604 
L 56.461774 63.936131 
L 56.404171 64.170658 
L 56.346569 64.405185 
L 56.222733 64.723985 
L 56.098897 65.042784 
L 55.974936 65.396861 
L 55.850975 65.750938 
L 55.709127 65.99853 
" style="fill:none;stroke:#4169e1;stroke-linecap:square;stroke-width:0.4;"/>
   </g>
   <g id="line2d_40">
    <path clip-path="url(#pa8eed11ed4)" d="M 57.951681 43.735466 
L 58.366468 43.61167 
L 58.740352 43.494733 
L 59.114237 43.377796 
L 59.470546 43.424587 
L 59.826855 43.471378 
L 60.183165 43.518169 
L 60.539474 43.56496 
L 60.843247 43.716766 
L 61.14702 43.868571 
L 61.450793 44.020377 
L 61.754566 44.172182 
L 61.838374 44.244696 
L 62.127012 44.495228 
L 62.415649 44.74576 
L 62.704287 44.996293 
L 62.992924 45.246825 
L 63.185745 45.40451 
L 63.378566 45.562195 
L 63.571387 45.71988 
L 63.764209 45.877565 
L 63.898552 46.076161 
L 64.032895 46.274758 
L 64.167238 46.473354 
L 64.301581 46.671951 
L 64.390017 46.898802 
L 64.478454 47.125653 
L 64.413784 47.349564 
L 64.349114 47.573475 
" style="fill:none;stroke:#008000;stroke-linecap:square;stroke-width:0.4;"/>
   </g>
   <g id="line2d_41">
    <path clip-path="url(#pa8eed11ed4)" d="M 57.373781 57.80185 
L 57.558158 58.055485 
L 57.742536 58.30912 
L 58.098658 58.330678 
L 58.45478 58.352237 
L 58.810901 58.373795 
L 59.167023 58.395353 
L 59.452221 58.422301 
L 59.737418 58.449248 
L 60.022616 58.476196 
L 60.307814 58.503144 
L 60.566868 58.642292 
L 60.825923 58.78144 
L 60.878584 59.02495 
L 60.931246 59.268459 
L 60.76413 59.664672 
" style="fill:none;stroke:#008000;stroke-linecap:square;stroke-width:0.4;"/>
   </g>
   <g id="line2d_42">
    <path clip-path="url(#pa8eed11ed4)" d="M 7.096943 9.08037 
L 6.978486 9.407662 
L 6.860028 9.734954 
L 6.87679 9.993326 
L 6.893552 10.251697 
L 6.910313 10.510069 
L 6.927075 10.76844 
L 6.980737 11.06364 
L 7.034399 11.35884 
L 7.088061 11.65404 
L 7.141724 11.94924 
L 7.192071 12.19422 
L 7.242418 12.439199 
L 7.292766 12.684178 
L 7.343113 12.929157 
L 7.571897 13.213497 
L 7.80068 13.497836 
" style="fill:none;stroke:#008000;stroke-linecap:square;stroke-width:0.4;"/>
   </g>
   <g id="line2d_43">
    <path clip-path="url(#pa8eed11ed4)" d="M 38.515463 45.716205 
L 38.23652 45.388749 
L 37.957577 45.061294 
" style="fill:none;stroke:#008000;stroke-linecap:square;stroke-width:0.4;"/>
   </g>
   <g id="line2d_44">
    <path clip-path="url(#pa8eed11ed4)" d="M 41.921073 34.080669 
L 42.287077 34.094388 
" style="fill:none;stroke:#008000;stroke-linecap:square;stroke-width:0.4;"/>
   </g>
   <g id="line2d_45">
    <path clip-path="url(#pa8eed11ed4)" d="M 38.515463 45.716205 
L 38.90098 45.687216 
L 39.286497 45.658227 
L 39.672015 45.629237 
L 40.057532 45.600248 
L 40.332347 45.747562 
L 40.607163 45.894877 
L 40.881978 46.042191 
L 41.156793 46.189505 
" style="fill:none;stroke:#008000;stroke-linecap:square;stroke-width:0.4;"/>
   </g>
   <g id="line2d_46">
    <path clip-path="url(#pa8eed11ed4)" d="M 44.350506 38.912314 
L 44.159624 38.598414 
L 43.917456 38.566076 
L 43.675289 38.533739 
" style="fill:none;stroke:#008000;stroke-linecap:square;stroke-width:0.4;"/>
   </g>
   <g id="line2d_47">
    <path clip-path="url(#pa8eed11ed4)" d="M 42.592038 39.018471 
L 42.992565 38.978621 
L 43.291147 39.103561 
L 43.589729 39.2285 
" style="fill:none;stroke:#008000;stroke-linecap:square;stroke-width:0.4;"/>
   </g>
   <g id="line2d_48">
    <path clip-path="url(#pa8eed11ed4)" d="M 42.664838 35.438507 
L 42.664838 35.438507 
L 42.445687 35.479337 
L 42.226535 35.520167 
L 41.981115 35.321571 
L 41.694916 35.382897 
L 41.408718 35.444224 
L 41.12252 35.50555 
L 40.836321 35.566877 
L 40.485829 35.391471 
L 40.181993 35.362237 
L 39.878157 35.333003 
L 39.653252 35.333003 
L 39.428346 35.333003 
L 39.20344 35.333003 
L 38.978534 35.333003 
L 38.598896 35.280414 
L 38.219258 35.227825 
L 37.868765 35.1754 
L 37.518272 35.122974 
L 37.243707 35.222272 
L 36.969142 35.321571 
L 36.752992 35.490933 
L 36.536842 35.660295 
L 36.478552 35.847133 
L 36.292736 36.036175 
L 36.106919 36.225218 
L 35.921103 36.41426 
L 35.735287 36.603302 
L 35.434453 36.541976 
L 35.13362 36.480649 
L 34.832786 36.419323 
L 34.531953 36.357996 
L 34.115664 36.442923 
L 34.250383 36.219583 
L 34.385101 35.996244 
L 34.51982 35.772904 
L 34.654538 35.549565 
L 34.858429 35.854319 
L 35.044558 35.969623 
L 35.265711 35.863138 
L 35.593438 35.783438 
L 35.779317 35.889923 
L 36.018483 35.83668 
L 36.053757 35.517881 
L 36.080276 35.199408 
L 36.204362 34.871789 
L 36.549601 34.70357 
L 36.797523 34.818547 
L 36.974646 34.898246 
L 37.142762 34.951489 
L 37.302373 34.818547 
L 37.328891 34.641508 
L 37.200427 34.42462 
L 37.071963 34.207732 
L 37.041067 33.968795 
L 37.01017 33.729859 
L 36.912603 33.39342 
L 36.987905 33.180942 
L 37.063207 32.968463 
L 37.196049 32.835521 
L 37.427459 32.823599 
L 37.65887 32.811676 
L 37.600579 33.208869 
L 37.647237 33.500885 
L 37.693894 33.7929 
L 37.699773 34.114149 
L 37.705652 34.435399 
L 37.921802 34.528818 
L 38.137952 34.622236 
L 38.470932 34.631056 
L 38.803913 34.639875 
L 39.136894 34.648694 
L 39.469875 34.657514 
L 39.814488 34.66323 
L 40.159102 34.668946 
L 40.427788 34.540577 
L 40.696474 34.412208 
L 40.888107 34.446831 
L 40.817308 34.809727 
L 41.12277 34.885018 
L 41.428232 34.960308 
L 41.680656 34.973537 
L 41.933081 34.986766 
L 42.00388 34.659147 
L 42.414665 34.556909 
" style="fill:none;stroke:#000000;stroke-linecap:square;stroke-width:0.4;"/>
   </g>
   <g id="line2d_49">
    <path clip-path="url(#pa8eed11ed4)" d="M 43.328548 40.382189 
L 43.150456 40.682616 
L 42.972364 40.983042 
L 42.794272 41.283468 
L 42.61618 41.583895 
L 42.438088 41.884321 
L 42.259995 42.184747 
L 42.081903 42.485173 
L 41.903811 42.7856 
L 41.661893 42.943775 
L 41.419976 43.101949 
L 41.178058 43.260124 
L 40.936141 43.418299 
L 40.694223 43.576474 
L 40.452305 43.734649 
L 40.210388 43.892824 
L 39.96847 44.050999 
L 39.717108 44.177286 
L 39.465747 44.303573 
L 39.214385 44.42986 
L 38.963023 44.556147 
L 38.711662 44.682433 
L 38.4603 44.80872 
L 38.208938 44.935007 
L 37.957577 45.061294 
L 37.744085 45.152671 
L 37.530593 45.244048 
L 37.317102 45.335426 
L 37.10361 45.426803 
L 36.890118 45.51818 
L 36.676627 45.609557 
L 36.463135 45.700935 
L 36.249643 45.792312 
L 35.954689 45.970249 
L 35.659734 46.148185 
L 35.36478 46.326122 
L 35.069826 46.504058 
L 34.774871 46.681995 
L 34.479917 46.859932 
L 34.184962 47.037868 
L 33.890008 47.215805 
L 33.613441 47.386351 
L 33.336875 47.556898 
L 33.060308 47.727444 
L 32.783742 47.897991 
L 32.507175 48.068537 
L 32.230608 48.239083 
L 31.954042 48.40963 
L 31.677475 48.580176 
L 31.531718 48.779549 
L 31.385961 48.978921 
L 31.240203 49.178293 
L 31.094446 49.377666 
L 30.948689 49.577038 
L 30.802932 49.77641 
L 30.657174 49.975782 
L 30.511417 50.175155 
L 30.403655 50.416541 
L 30.295893 50.657927 
L 30.188131 50.899314 
L 30.080368 51.1407 
L 30.044156 51.406666 
L 30.007943 51.672631 
L 29.971731 51.938597 
L 29.935518 52.204563 
L 29.943273 52.52222 
L 29.951029 52.839876 
L 29.989868 53.179907 
L 30.028708 53.519939 
L 30.067547 53.85997 
L 30.106386 54.200001 
L 30.138534 54.637534 
L 30.170681 55.075067 
L 30.202828 55.5126 
L 30.234975 55.950133 
L 30.288919 56.165878 
L 30.342863 56.381623 
L 30.396806 56.597368 
L 30.45075 56.813113 
L 30.504694 57.028859 
L 30.558637 57.244604 
L 30.612581 57.460349 
L 30.666524 57.676094 
L 30.805277 57.86926 
L 30.944029 58.062426 
L 31.082782 58.255592 
L 31.221534 58.448758 
L 31.360286 58.641925 
L 31.499039 58.835091 
L 31.637791 59.028257 
L 31.776544 59.221423 
L 32.000074 59.309534 
L 32.223603 59.397645 
L 32.447133 59.485756 
L 32.670663 59.573867 
L 32.894193 59.661978 
L 33.117723 59.750088 
L 33.341253 59.838199 
L 33.564783 59.92631 
L 33.842288 59.980287 
L 34.119792 60.034264 
L 34.397297 60.088242 
L 34.674802 60.142219 
L 34.921442 60.234657 
L 35.168081 60.327096 
L 35.414721 60.419535 
L 35.661361 60.511974 
L 35.908 60.604413 
L 36.15464 60.696852 
L 36.401279 60.789291 
L 36.647919 60.881729 
L 36.963951 61.089799 
L 37.279982 61.297868 
L 37.596014 61.505937 
L 37.912045 61.714006 
L 38.073907 61.891289 
L 38.235769 62.068572 
L 38.397632 62.245856 
L 38.559494 62.423139 
L 38.898666 62.661994 
L 39.237839 62.900849 
L 39.577011 63.139704 
L 39.916184 63.378558 
L 40.183744 63.542531 
L 40.451305 63.706504 
" style="fill:none;stroke:#4169e1;stroke-linecap:square;stroke-width:0.4;"/>
   </g>
   <g id="line2d_50">
    <path clip-path="url(#pa8eed11ed4)" d="M 54.504292 42.942713 
L 58.164297 43.908585 
L 60.102421 45.389076 
L 62.280305 46.567753 
L 63.659886 47.088661 
L 63.928572 47.176282 
L 64.349114 47.573475 
L 64.123708 48.102303 
L 63.192312 48.939479 
L 62.713168 49.398979 
L 61.303441 50.444877 
L 60.568056 51.064511 
L 59.373416 52.87548 
L 59.095974 53.892634 
L 60.136507 55.657383 
L 61.061523 56.635912 
L 61.878464 57.206224 
L 63.011437 58.342437 
L 63.063973 58.969258 
L 62.549117 59.656833 
L 62.089798 59.895933 
L 61.642739 59.695703 
L 60.76413 59.664672 
L 60.131942 59.926637 
L 59.083715 61.668276 
L 58.609574 62.762517 
L 58.081771 64.380687 
L 57.588429 65.197611 
L 56.154686 65.960477 
L 54.460262 67.03071 
L 53.726753 68.318974 
L 53.518609 68.573752 
L 52.828131 68.727273 
L 52.828131 68.727273 
" style="fill:none;stroke:#4169e1;stroke-linecap:square;stroke-width:0.4;"/>
   </g>
   <g id="line2d_51">
    <path clip-path="url(#pa8eed11ed4)" d="M 42.287077 34.094388 
L 42.287077 34.094388 
L 42.350871 34.325648 
L 42.414665 34.556909 
L 42.00388 34.659147 
L 41.826758 34.375951 
L 41.472512 34.243009 
L 41.18031 34.34492 
L 40.888107 34.446831 
L 40.696474 34.412208 
L 40.953653 34.155143 
L 40.976919 33.87456 
L 40.626426 33.722836 
L 40.275933 33.571112 
L 39.977977 33.40175 
L 39.68002 33.232387 
L 39.460993 33.133089 
L 39.241967 33.033791 
L 39.02294 32.934493 
L 38.803913 32.835194 
L 38.429904 32.683307 
L 38.021121 32.659789 
L 37.65887 32.811676 
L 37.427459 32.823599 
L 37.196049 32.835521 
L 37.12525 32.419383 
L 36.992408 32.384106 
L 36.903846 32.198248 
L 36.73548 32.171464 
L 36.581623 32.185183 
L 36.710588 31.929506 
L 36.839552 31.673829 
L 36.968516 31.418152 
L 37.097481 31.162476 
L 37.455479 31.191547 
L 37.677132 31.163782 
L 37.938563 30.95016 
L 38.220509 30.923376 
L 38.535852 30.9905 
L 38.851196 31.057625 
L 39.05246 31.171622 
L 39.253725 31.285619 
L 39.616226 31.433259 
L 39.871153 31.50708 
L 40.126079 31.5809 
L 40.381131 31.688201 
L 40.636183 31.795502 
L 40.864341 31.862463 
L 41.271123 31.971887 
" style="fill:none;stroke:#008000;stroke-linecap:square;stroke-width:0.4;"/>
   </g>
   <g id="line2d_52">
    <path clip-path="url(#pa8eed11ed4)" d="M 30.726066 51.942925 
L 30.859533 52.23837 
L 30.993001 52.533815 
L 31.126468 52.82926 
L 31.259936 53.124705 
L 31.40391 53.366663 
L 31.547885 53.608621 
L 31.69186 53.850579 
L 31.835835 54.092537 
L 31.997509 54.275046 
L 32.159184 54.457556 
L 32.320858 54.640066 
L 32.482533 54.822575 
L 32.644207 55.005085 
L 32.805882 55.187594 
L 32.967556 55.370104 
L 33.129231 55.552613 
L 33.263824 55.796694 
L 33.398417 56.040775 
L 33.533011 56.284856 
L 33.667604 56.528937 
L 33.802197 56.773019 
L 33.936791 57.0171 
L 34.071384 57.261181 
L 34.205977 57.505262 
L 34.395796 57.763878 
L 34.585615 58.022495 
L 34.775434 58.281111 
L 34.965253 58.539727 
L 35.095656 58.734772 
L 35.226059 58.929816 
L 35.356462 59.12486 
L 35.486865 59.319905 
L 35.617267 59.514949 
L 35.74767 59.709994 
L 35.878073 59.905038 
L 36.008476 60.100082 
L 36.168337 60.295494 
L 36.328198 60.490906 
L 36.488058 60.686318 
L 36.647919 60.881729 
" style="fill:none;stroke:#4169e1;stroke-linecap:square;stroke-width:0.4;"/>
   </g>
   <g id="line2d_53">
    <path clip-path="url(#pa8eed11ed4)" d="M 59.095974 53.892634 
L 58.893396 54.127651 
L 58.690818 54.362667 
L 58.48824 54.597684 
L 58.285662 54.832701 
L 58.042244 55.060368 
L 57.798825 55.288036 
" style="fill:none;stroke:#008000;stroke-linecap:square;stroke-width:0.4;"/>
   </g>
   <g id="line2d_54">
    <path clip-path="url(#pa8eed11ed4)" d="M 40.025259 29.901322 
L 39.802105 29.632498 
L 39.57895 29.363674 
L 39.355795 29.094851 
L 39.132641 28.826027 
L 38.906672 28.639352 
L 38.680703 28.452678 
L 38.454734 28.266004 
L 38.228765 28.07933 
" style="fill:none;stroke:#008000;stroke-linecap:square;stroke-width:0.4;"/>
   </g>
   <g id="line2d_55">
    <path clip-path="url(#pa8eed11ed4)" d="M 35.540902 44.247636 
L 35.253828 44.307778 
L 34.966754 44.367921 
L 34.67968 44.428063 
L 34.392606 44.488206 
L 34.105532 44.548348 
L 33.818459 44.60849 
L 33.531385 44.668633 
L 33.244311 44.728775 
L 32.965492 44.743515 
L 32.686674 44.758254 
L 32.407856 44.772994 
L 32.129038 44.787734 
L 31.85022 44.802473 
L 31.571402 44.817213 
L 31.292583 44.831952 
L 31.013765 44.846692 
L 30.637536 44.778833 
L 30.261306 44.710973 
L 29.885077 44.643114 
L 29.508847 44.575255 
L 29.132618 44.507396 
L 28.756388 44.439536 
L 28.380159 44.371677 
L 28.00393 44.303818 
L 27.78853 44.238939 
L 27.573131 44.174061 
L 27.357732 44.109182 
L 27.142333 44.044303 
L 26.926933 43.979424 
L 26.711534 43.914546 
L 26.496135 43.849667 
L 26.280735 43.784788 
L 26.007546 43.603667 
L 25.734357 43.422546 
L 25.461168 43.241424 
L 25.187978 43.060303 
" style="fill:none;stroke:#ff0000;stroke-dasharray:1.48,0.64;stroke-dashoffset:0;stroke-width:0.4;"/>
   </g>
   <g id="line2d_56">
    <path clip-path="url(#pa8eed11ed4)" d="M 23.052499 21.037645 
L 23.315431 20.960232 
L 23.28591 21.29667 
L 22.962686 21.493307 
L 22.639462 21.689943 
" style="fill:none;stroke:#008000;stroke-linecap:square;stroke-width:0.4;"/>
   </g>
   <g id="line2d_57">
    <path clip-path="url(#pa8eed11ed4)" d="M 21.925968 21.30059 
L 21.679547 21.222441 
L 21.433126 21.144293 
L 21.186706 21.066144 
L 20.940285 20.987996 
L 20.568402 20.793156 
L 20.19652 20.598316 
L 19.824637 20.403475 
L 19.452754 20.208635 
L 19.096382 19.993952 
L 18.74001 19.779268 
L 18.383638 19.564585 
L 18.027266 19.349901 
L 17.670895 19.135218 
L 17.314523 18.920534 
L 16.958151 18.705851 
L 16.601779 18.491167 
L 16.388068 18.328256 
L 16.174358 18.165345 
L 15.960647 18.002433 
L 15.746936 17.839522 
L 15.448354 17.625247 
L 15.149773 17.410972 
L 14.94363 17.272803 
L 14.592261 17.037297 
L 14.240893 16.80179 
L 13.889524 16.566283 
L 13.538156 16.330776 
L 13.234915 16.149288 
L 12.931673 15.967799 
L 12.628432 15.78631 
L 12.32519 15.604821 
L 12.021949 15.423332 
L 11.718708 15.241844 
L 11.415466 15.060355 
L 11.112225 14.878866 
L 10.744783 14.706237 
L 10.377341 14.533608 
L 10.009899 14.36098 
L 9.642456 14.188351 
L 9.275014 14.015722 
L 8.907572 13.843093 
L 8.54013 13.670465 
L 8.172688 13.497836 
L 7.80068 13.497836 
L 7.783168 13.869551 
L 7.924766 14.135109 
L 8.066364 14.400666 
L 8.230165 14.617636 
L 8.393966 14.834606 
L 8.557767 15.051576 
L 8.721568 15.268546 
L 8.86767 15.489844 
L 9.013771 15.711142 
L 9.159872 15.93244 
L 9.305973 16.153738 
L 9.429934 16.423787 
L 9.553895 16.693836 
L 9.677856 16.963885 
L 9.801817 17.233933 
L 9.894756 17.570372 
L 9.987696 17.90681 
L 10.080635 18.243248 
L 10.173574 18.579686 
L 10.217855 18.911715 
L 10.262136 19.243744 
L 10.306417 19.575772 
L 10.350697 19.907801 
L 10.328557 20.213208 
L 10.306417 20.518616 
L 10.284276 20.824023 
L 10.262136 21.129431 
L 10.209037 21.346401 
L 10.155937 21.563371 
L 10.102838 21.780341 
L 10.049739 21.997311 
L 10.009899 22.342568 
L 9.970058 22.687826 
L 9.930218 23.033083 
L 9.890378 23.378341 
L 9.894819 23.701468 
L 9.899259 24.024596 
L 9.9037 24.347724 
L 9.908141 24.670851 
L 9.828836 24.99749 
L 9.749531 25.324129 
" style="fill:none;stroke:#008000;stroke-linecap:square;stroke-width:0.4;"/>
   </g>
   <g id="line2d_58">
    <path clip-path="url(#pa8eed11ed4)" d="M 45.960872 29.545939 
L 46.182276 29.239225 
L 46.543651 29.093871 
L 46.905027 28.948516 
L 47.15545 28.668913 
L 47.405874 28.38931 
L 47.464289 28.018085 
L 47.522705 27.64686 
L 47.47267 27.383915 
L 47.422635 27.120971 
L 47.272281 26.795638 
L 47.062073 26.553435 
L 46.851865 26.311233 
L 46.641657 26.06903 
L 46.431448 25.826827 
L 46.308988 25.502638 
L 46.186529 25.178448 
L 46.062568 24.986711 
L 45.938607 24.794974 
L 45.788128 24.617936 
L 45.637648 24.440897 
L 45.298288 24.240178 
L 44.958928 24.039458 
L 44.705252 23.950939 
L 44.451576 23.86242 
L 44.181577 23.908149 
L 43.911577 23.953879 
L 43.641578 23.999608 
L 43.371578 24.045337 
L 43.046978 24.070489 
L 42.722378 24.09564 
L 42.397778 24.120791 
L 42.073178 24.145942 
L 41.760399 24.262471 
L 41.44762 24.378999 
L 41.134841 24.495528 
L 40.822061 24.612056 
L 40.513723 24.734464 
L 40.205384 24.856872 
L 39.897046 24.97928 
L 39.588707 25.101688 
L 39.258228 25.262476 
L 38.927749 25.423264 
L 38.59727 25.584052 
L 38.266791 25.74484 
L 37.936312 25.974958 
L 37.605833 26.205075 
L 37.340274 26.420493 
L 37.074715 26.635912 
L 36.733228 26.861129 
L 36.391742 27.086347 
" style="fill:none;stroke:#008000;stroke-linecap:square;stroke-width:0.4;"/>
   </g>
   <g id="line2d_59">
    <path clip-path="url(#pa8eed11ed4)" d="M 35.170896 26.566991 
L 35.244759 26.841531 
L 35.318623 27.116071 
L 35.392487 27.390611 
L 35.46635 27.665151 
L 35.551534 27.977582 
L 35.636718 28.290012 
L 35.68275 28.581456 
L 35.728782 28.872899 
L 35.774814 29.164343 
L 35.820846 29.455787 
L 35.747795 29.76593 
L 35.674745 30.076074 
L 35.601694 30.386218 
L 35.528644 30.696362 
L 35.393988 31.018387 
L 35.259332 31.340412 
L 35.124676 31.662438 
L 34.99002 31.984463 
L 34.855365 32.306488 
L 34.720709 32.628513 
L 34.586053 32.950539 
L 34.451397 33.272564 
L 34.27343 33.516645 
L 34.095463 33.760726 
L 33.917496 34.004807 
L 33.739529 34.248888 
L 33.561562 34.492969 
L 33.383595 34.73705 
L 33.205628 34.981131 
L 33.027661 35.225212 
L 32.808947 35.428545 
L 32.590232 35.631878 
L 32.371518 35.835211 
L 32.152804 36.038543 
L 31.982561 35.878817 
L 31.812318 35.71909 
L 31.787301 35.314385 
L 31.762284 34.909679 
L 31.747649 34.550866 
L 31.733013 34.192053 
L 31.718378 33.83324 
L 31.703743 33.474427 
L 31.630755 33.240798 
L 31.557767 33.00717 
L 31.484779 32.773541 
L 31.411791 32.539913 
L 31.198956 32.450168 
L 30.986121 32.360424 
L 30.773286 32.27068 
L 30.560451 32.180936 
L 30.155671 32.214335 
L 29.75089 32.247734 
L 29.34611 32.281133 
L 28.941329 32.314532 
L 28.655068 32.431264 
L 28.368807 32.547997 
L 28.082547 32.66473 
L 27.796286 32.781462 
L 27.510025 32.898195 
L 27.223764 33.014927 
L 26.937503 33.13166 
L 26.651242 33.248393 
" style="fill:none;stroke:#008000;stroke-linecap:square;stroke-width:0.4;"/>
   </g>
   <g id="line2d_60">
    <path clip-path="url(#pa8eed11ed4)" d="M 15.746936 17.839522 
L 15.382934 18.080255 
L 15.124568 18.315109 
L 14.866201 18.549962 
L 14.607835 18.784816 
L 14.349468 19.019669 
L 14.091102 19.254523 
L 13.832735 19.489376 
L 13.574368 19.72423 
L 13.316002 19.959083 
L 13.12143 20.200633 
L 12.926857 20.442182 
L 12.732285 20.683732 
L 12.537713 20.925281 
L 12.34314 21.166831 
L 12.148568 21.40838 
L 11.953996 21.64993 
L 11.759423 21.89148 
L 11.647283 22.231184 
L 11.535143 22.570889 
L 11.423003 22.910593 
L 11.310863 23.250298 
L 11.359396 23.578979 
L 11.40793 23.907659 
L 11.456463 24.23634 
L 11.504997 24.56502 
L 11.474163 24.803222 
L 11.443329 25.041423 
L 11.412495 25.279625 
L 11.381662 25.517826 
L 11.201349 25.7468 
L 11.021037 25.975774 
L 10.840724 26.204748 
L 10.660412 26.433722 
L 10.450266 26.604473 
L 10.240121 26.775223 
L 10.029975 26.945974 
L 9.819829 27.116724 
" style="fill:none;stroke:#4169e1;stroke-linecap:square;stroke-width:0.4;"/>
   </g>
   <g id="line2d_61">
    <path clip-path="url(#pa8eed11ed4)" d="M 46.182276 29.239225 
L 45.911088 29.199538 
L 45.6399 29.159852 
L 45.368712 29.120165 
L 45.097524 29.080478 
L 44.809575 28.959459 
L 44.521625 28.838439 
L 44.191897 28.805122 
L 43.862168 28.771805 
L 43.574344 28.684102 
L 43.286519 28.596399 
L 43.027715 28.50886 
L 42.76891 28.421321 
L 42.410037 28.204269 
L 42.051163 27.987218 
L 41.754958 27.782905 
L 41.458753 27.578592 
L 41.066481 27.52829 
L 40.745133 27.557524 
L 40.423786 27.586758 
L 40.137962 27.655597 
L 39.852139 27.724436 
L 39.566316 27.793276 
L 39.280493 27.862115 
L 39.017561 27.916419 
L 38.754629 27.970722 
L 38.491697 28.025026 
L 38.228765 28.07933 
L 37.970085 27.935609 
L 37.711406 27.791887 
L 37.452727 27.648166 
L 37.194048 27.504445 
L 36.993471 27.399921 
L 36.792895 27.295396 
L 36.592318 27.190872 
L 36.391742 27.086347 
L 36.08653 26.956508 
L 35.781319 26.826669 
L 35.476107 26.69683 
L 35.170896 26.566991 
" style="fill:none;stroke:#008000;stroke-linecap:square;stroke-width:0.4;"/>
   </g>
   <g id="line2d_62">
    <path clip-path="url(#pa8eed11ed4)" d="M 46.431448 25.826827 
L 46.163763 25.905874 
L 45.896077 25.98492 
L 45.589115 26.105777 
L 45.282152 26.226633 
L 44.934036 26.247375 
L 44.58592 26.268116 
L 44.20084 26.331484 
L 43.815761 26.394852 
L 43.430682 26.45822 
L 43.045602 26.521588 
L 42.682726 26.654367 
L 42.319849 26.787146 
L 42.08969 26.987865 
L 41.85953 27.188585 
L 41.659142 27.383589 
L 41.458753 27.578592 
" style="fill:none;stroke:#008000;stroke-linecap:square;stroke-width:0.4;"/>
   </g>
   <g id="line2d_63">
    <path clip-path="url(#pa8eed11ed4)" d="M 22.484355 33.534528 
L 22.224894 33.508969 
L 21.965433 33.483409 
L 21.705972 33.45785 
L 21.446511 33.43229 
L 21.18705 33.406731 
L 20.927589 33.381171 
L 20.668128 33.355612 
L 20.408667 33.330052 
L 20.104706 33.087686 
L 19.800745 32.84532 
L 19.499662 32.700782 
L 19.198578 32.556245 
L 18.988995 32.393823 
L 18.779413 32.231402 
L 18.56983 32.068981 
L 18.360247 31.906559 
L 18.099441 31.666643 
L 17.838636 31.426727 
L 17.57783 31.18681 
L 17.317024 30.946894 
L 17.039019 30.753197 
L 16.761014 30.5595 
L 16.483009 30.365803 
L 16.205004 30.172106 
L 15.917805 30.001437 
L 15.630606 29.830768 
L 15.343407 29.660099 
L 15.056208 29.489431 
L 14.806754 29.415038 
L 14.5573 29.340646 
L 14.307845 29.266254 
L 14.058391 29.191862 
L 13.808937 29.11747 
L 13.559483 29.043078 
L 13.310029 28.968686 
L 13.060575 28.894294 
L 12.712146 28.710723 
L 12.363717 28.527152 
L 12.015288 28.343581 
L 11.666859 28.16001 
L 11.326811 28.001426 
L 10.986763 27.842843 
L 10.646715 27.68426 
L 10.306667 27.525677 
L 10.063248 27.321201 
L 9.819829 27.116724 
" style="fill:none;stroke:#008000;stroke-linecap:square;stroke-width:0.4;"/>
   </g>
   <g id="line2d_64">
    <path clip-path="url(#pa8eed11ed4)" d="M 19.267626 33.067435 
L 19.198578 32.786525 
L 18.948373 32.746961 
L 18.698169 32.707397 
L 18.447964 32.667833 
L 18.19776 32.628268 
L 17.947555 32.588704 
L 17.69735 32.54914 
L 17.447146 32.509576 
L 17.196941 32.470012 
" style="fill:none;stroke:#008000;stroke-linecap:square;stroke-width:0.4;"/>
   </g>
   <g id="line2d_65">
    <path clip-path="url(#pa8eed11ed4)" d="M 23.71871 29.949665 
L 23.492303 30.077503 
L 23.265896 30.205342 
L 23.03949 30.33318 
L 22.813083 30.461018 
L 22.586676 30.588857 
L 22.360269 30.716695 
L 22.133862 30.844533 
L 21.907455 30.972372 
L 21.650809 31.061054 
L 21.394162 31.149737 
L 21.137515 31.238419 
L 20.880869 31.327102 
L 20.624222 31.415784 
L 20.367576 31.504467 
L 20.110929 31.593149 
L 19.854282 31.681832 
L 19.480774 31.738014 
L 19.107265 31.794196 
L 18.733756 31.850378 
L 18.360247 31.906559 
L 17.999998 31.93367 
L 17.639748 31.960782 
L 17.279498 31.987893 
L 16.919249 32.015004 
" style="fill:none;stroke:#4169e1;stroke-linecap:square;stroke-width:0.4;"/>
   </g>
   <g id="line2d_66">
    <path clip-path="url(#pa8eed11ed4)" d="M 25.240014 22.997479 
L 25.403002 23.148713 
L 25.56599 23.299947 
L 25.535594 23.720822 
L 25.505198 24.141696 
L 25.522335 24.414358 
L 25.539472 24.68702 
L 25.556609 24.959682 
L 25.573746 25.232344 
L 25.502884 25.510069 
L 25.432022 25.787793 
L 25.361161 26.065518 
L 25.290299 26.343243 
L 25.192075 26.568645 
L 25.093851 26.794046 
L 24.995626 27.019447 
L 24.897402 27.244849 
L 24.799178 27.47025 
L 24.700953 27.695651 
L 24.602729 27.921053 
L 24.504505 28.146454 
L 24.40628 28.371855 
L 24.308056 28.597257 
L 24.209832 28.822658 
L 24.111607 29.048059 
L 24.013383 29.273461 
L 23.915159 29.498862 
L 23.816935 29.724264 
L 23.71871 29.949665 
L 23.580927 30.311744 
L 23.443144 30.673824 
L 23.305361 31.035903 
L 23.167578 31.397982 
L 23.080831 31.827186 
L 22.994083 32.25639 
L 22.907335 32.685594 
L 22.820588 33.114797 
" style="fill:none;stroke:#4169e1;stroke-linecap:square;stroke-width:0.4;"/>
   </g>
   <g id="line2d_67">
    <path clip-path="url(#pa8eed11ed4)" d="M 25.240014 22.997479 
L 24.861752 22.807376 
L 24.623837 22.91533 
L 24.385923 23.023284 
" style="fill:none;stroke:#008000;stroke-linecap:square;stroke-width:0.4;"/>
   </g>
   <g id="line2d_68">
    <path clip-path="url(#pa8eed11ed4)" d="M 24.385923 23.023284 
L 23.089774 21.981959 
L 21.67961 21.170751 
L 18.560323 19.40886 
L 15.744184 17.440369 
L 14.961392 16.749119 
L 12.838921 14.998008 
L 11.772057 14.163363 
L 10.475096 13.176178 
L 9.487849 12.305767 
L 8.511423 11.235371 
L 8.065551 10.506394 
L 7.79968 9.778071 
L 6.381322 8.444567 
L 5.02976 7.166591 
L 4.731804 6.679573 
L 4.697155 4.929849 
L 4.839628 3.534692 
L 4.63924 3.303431 
L 4.377308 3.272727 
L 4.04414 4.462347 
L 3.110555 6.475586 
L 3.150927 7.589507 
L 3.942757 9.877532 
L 4.204438 11.112228 
L 4.358795 13.473991 
L 3.88897 14.708687 
L 3.68758 15.084322 
L 3.768136 15.755565 
L 4.848635 17.661014 
L 5.512845 18.385663 
L 6.210829 18.707729 
L 6.989118 18.788409 
L 7.789673 19.691239 
L 8.447441 21.066798 
L 8.662152 22.187333 
L 8.702305 23.072933 
L 9.856605 25.676246 
L 9.78443 26.758728 
L 9.819829 27.116724 
L 9.819829 27.116724 
" style="fill:none;stroke:#008000;stroke-linecap:square;stroke-width:0.4;"/>
   </g>
   <g id="line2d_69">
    <path clip-path="url(#pa8eed11ed4)" d="M 36.391742 27.086347 
L 36.160394 27.231048 
L 35.929046 27.375749 
L 35.697698 27.52045 
L 35.46635 27.665151 
" style="fill:none;stroke:#008000;stroke-linecap:square;stroke-width:0.4;"/>
   </g>
  </g>
 </g>
 <defs>
  <clipPath id="pa8eed11ed4">
   <rect height="72" width="67.548856" x="0" y="0"/>
  </clipPath>
 </defs>
</svg>
