<?xml version="1.0" encoding="utf-8" standalone="no"?>
<!DOCTYPE svg PUBLIC "-//W3C//DTD SVG 1.1//EN"
  "http://www.w3.org/Graphics/SVG/1.1/DTD/svg11.dtd">
<svg height="76.845713pt" version="1.1" viewBox="0 0 72 76.845713" width="72pt" xmlns="http://www.w3.org/2000/svg" xmlns:xlink="http://www.w3.org/1999/xlink">
 <metadata>
  <rdf:RDF xmlns:cc="http://creativecommons.org/ns#" xmlns:dc="http://purl.org/dc/elements/1.1/" xmlns:rdf="http://www.w3.org/1999/02/22-rdf-syntax-ns#">
   <cc:Work>
    <dc:type rdf:resource="http://purl.org/dc/dcmitype/StillImage"/>
    <dc:date>2022-04-19T00:51:39.146546</dc:date>
    <dc:format>image/svg+xml</dc:format>
    <dc:creator>
     <cc:Agent>
      <dc:title>Matplotlib v3.4.3, https://matplotlib.org/</dc:title>
     </cc:Agent>
    </dc:creator>
   </cc:Work>
  </rdf:RDF>
 </metadata>
 <defs>
  <style type="text/css">*{stroke-linecap:butt;stroke-linejoin:round;}</style>
 </defs>
 <g id="figure_1">
  <g id="patch_1">
   <path d="M 0 76.845713 
L 72 76.845713 
L 72 0 
L 0 0 
z
" style="fill:#ffffff;"/>
  </g>
  <g id="axes_1">
   <g id="line2d_1">
    <path clip-path="url(#p623f36a904)" d="M 68.727273 33.633942 
L 67.523675 31.939927 
L 66.583046 30.61626 
L 65.642417 29.292594 
L 64.715534 27.988323 
L 63.788652 26.684052 
L 62.697064 25.14813 
L 61.605476 23.612208 
L 60.358602 21.857444 
" style="fill:none;stroke:#808080;stroke-linecap:square;stroke-width:0.4;"/>
   </g>
   <g id="line2d_2">
    <path clip-path="url(#p623f36a904)" d="M 67.616847 35.293192 
L 65.995248 34.710222 
L 64.883549 34.310597 
L 63.77185 33.910972 
L 61.95678 33.258653 
L 60.14171 32.606335 
L 58.675907 32.07954 
L 57.210104 31.552745 
L 55.611671 30.978192 
L 54.013238 30.403639 
L 52.536743 29.872819 
L 51.060248 29.341998 
L 49.743622 28.868815 
L 48.426996 28.395633 
L 46.818889 27.817604 
L 45.210782 27.239575 
L 43.736579 26.709852 
L 42.262375 26.180129 
L 40.29049 25.47127 
L 39.07951 25.035964 
L 37.86853 24.600658 
" style="fill:none;stroke:#808080;stroke-linecap:square;stroke-width:0.4;"/>
   </g>
   <g id="line2d_3">
    <path clip-path="url(#p623f36a904)" d="M 63.399672 41.375032 
L 62.157125 40.847779 
L 60.914578 40.320527 
L 59.672031 39.793274 
L 58.429485 39.266021 
L 56.675256 38.521665 
L 54.921027 37.777308 
L 53.796091 37.300009 
L 52.671155 36.822709 
L 51.546218 36.34541 
L 50.421282 35.86811 
L 49.298382 35.391726 
L 48.175482 34.915341 
L 47.052582 34.438956 
L 45.929683 33.962572 
L 44.43104 33.326721 
L 42.932398 32.690871 
L 41.433756 32.055021 
L 39.935113 31.41917 
L 38.823287 30.947452 
L 37.711461 30.475733 
L 36.599635 30.004014 
L 35.487809 29.532296 
L 33.787294 28.810811 
L 32.086779 28.089327 
L 30.734259 27.515323 
L 29.381739 26.94132 
L 29.104769 26.823847 
L 28.78605 26.688809 
L 28.46784 26.553771 
L 26.689936 25.797338 
L 25.602676 25.334585 
L 24.515416 24.871832 
L 23.428155 24.40908 
L 22.340895 23.946327 
L 21.206412 23.463538 
L 20.07193 22.980749 
L 18.937447 22.49796 
L 17.802964 22.015172 
L 16.32316 21.38536 
L 14.843356 20.755547 
L 13.554223 20.206978 
L 12.26509 19.658408 
L 11.606268 19.378085 
L 10.399106 18.864281 
" style="fill:none;stroke:#808080;stroke-linecap:square;stroke-width:0.4;"/>
   </g>
   <g id="line2d_4">
    <path clip-path="url(#p623f36a904)" d="M 8.671098 18.027338 
L 8.864061 19.404434 
L 9.062624 20.818492 
L 9.451095 23.026311 
L 9.839566 25.23413 
L 10.010635 26.238682 
L 10.323499 28.076335 
L 10.636364 29.913989 
L 10.890677 31.408192 
L 11.144991 32.902394 
L 11.360864 34.171533 
L 11.576738 35.440672 
L 11.896985 37.322058 
L 12.217231 39.203443 
L 12.469763 40.687399 
L 12.722295 42.171355 
L 12.974826 43.655127 
L 13.227358 45.1389 
L 13.57357 47.17289 
L 13.621429 47.455409 
L 13.831957 48.691612 
L 14.042485 49.927814 
L 14.318436 51.549187 
L 14.594388 53.17056 
L 14.94111 55.208392 
L 15.287832 57.246224 
L 15.501414 58.500542 
L 15.714997 59.754859 
L 15.998586 61.421245 
L 16.282175 63.08763 
L 16.607258 64.998292 
L 16.932341 66.908954 
L 17.257425 68.819616 
L 17.582508 70.730278 
L 17.805765 72.041502 
L 18.029021 73.352726 
" style="fill:none;stroke:#808080;stroke-linecap:square;stroke-width:0.4;"/>
   </g>
   <g id="line2d_5">
    <path clip-path="url(#p623f36a904)" d="M 67.872942 35.786868 
L 66.558098 35.246898 
L 65.243254 34.706928 
" style="fill:none;stroke:#808080;stroke-linecap:square;stroke-width:0.4;"/>
   </g>
   <g id="line2d_6">
    <path clip-path="url(#p623f36a904)" d="M 11.832324 17.843627 
L 12.126605 17.608134 
L 12.420886 17.37264 
L 12.803756 17.166424 
L 13.186627 16.960207 
L 13.726566 16.78345 
L 14.266504 16.606692 
L 14.757312 16.557654 
L 15.248119 16.508616 
L 15.856537 16.312463 
L 16.239153 15.900212 
L 16.621768 15.487962 
L 16.945834 15.144328 
L 17.269899 14.800694 
L 17.623239 14.270788 
" style="fill:none;stroke:#4169e1;stroke-linecap:square;stroke-width:0.4;"/>
   </g>
   <g id="line2d_7">
    <path clip-path="url(#p623f36a904)" d="M 10.458166 11.934518 
L 10.193033 11.370121 
L 9.927901 10.805724 
L 9.662768 10.241327 
L 9.397635 9.676929 
L 9.33883 9.304019 
L 9.280025 8.931109 
L 9.309555 8.420599 
L 9.339085 7.910089 
L 9.39789 7.507719 
L 9.456695 7.105349 
L 9.869095 6.673154 
L 10.340046 6.202167 
L 10.870057 6.02541 
L 11.105787 5.554423 
L 11.252928 4.994875 
L 11.400068 4.435326 
L 11.537535 4.111454 
L 11.675001 3.787582 
L 11.930079 3.551906 
L 12.578209 3.492987 
L 12.90202 3.610825 
L 13.22583 3.728663 
L 13.608701 3.856199 
L 13.991571 3.983735 
L 14.344911 4.121152 
L 14.698252 4.258569 
L 15.287323 4.494245 
L 15.836935 4.327369 
L 16.386547 4.160493 
L 16.739888 4.23899 
L 17.093228 4.317488 
L 17.574108 4.484365 
L 18.054987 4.651241 
L 18.408327 5.141989 
L 18.526065 5.510142 
L 18.643803 5.878295 
L 18.76154 6.246448 
L 18.879278 6.614601 
L 19.016745 7.193728 
L 19.154212 7.772855 
L 19.124936 8.155646 
L 19.095661 8.538437 
L 19.075805 9.107683 
L 19.055948 9.676929 
L 19.115008 10.226597 
L 19.174068 10.776264 
L 19.321208 11.188515 
L 19.468349 11.600766 
L 19.763139 12.032595 
" style="fill:none;stroke:#008000;stroke-linecap:square;stroke-width:0.4;"/>
   </g>
   <g id="line2d_8">
    <path clip-path="url(#p623f36a904)" d="M 10.55592 13.308687 
L 10.850455 13.058373 
L 11.144991 12.808058 
L 11.439526 12.557743 
L 11.734061 12.307429 
L 12.077474 12.081816 
L 12.420886 11.856204 
L 12.90202 11.699025 
L 13.383153 11.541847 
L 13.854104 11.669566 
L 14.325055 11.797285 
L 14.796261 12.111276 
L 15.267466 12.425267 
L 15.606042 12.660852 
L 15.944617 12.896437 
L 16.283193 13.132021 
L 16.621768 13.367606 
L 17.152288 13.78004 
L 17.652769 13.672083 
L 18.15325 13.564125 
L 18.712791 13.318568 
L 19.272331 13.073011 
L 19.625672 12.808058 
L 19.979012 12.543105 
" style="fill:none;stroke:#4169e1;stroke-linecap:square;stroke-width:0.4;"/>
   </g>
   <g id="line2d_9">
    <path clip-path="url(#p623f36a904)" d="M 39.647961 20.984637 
L 40.030704 21.151513 
L 40.413447 21.318389 
L 40.79619 21.485266 
L 41.178933 21.652142 
L 41.561676 21.917187 
L 41.944419 22.182231 
L 42.327162 22.447275 
L 42.709906 22.71232 
L 43.10245 22.869315 
L 43.494993 23.026311 
L 43.887537 23.183307 
L 44.280081 23.340302 
L 44.898427 23.517059 
L 45.516773 23.693817 
L 45.924082 23.796834 
L 46.331391 23.89985 
L 46.7387 24.002867 
L 47.146009 24.105884 
L 47.538553 24.032327 
L 47.931097 23.95877 
L 48.323641 23.885212 
L 48.716185 23.811655 
L 49.08429 23.669298 
L 49.452396 23.52694 
L 49.820501 23.384583 
L 50.188607 23.242226 
L 50.556585 23.222647 
L 50.924563 23.203068 
L 51.292541 23.18349 
L 51.660519 23.163911 
L 52.035944 23.328317 
L 52.411368 23.492723 
L 52.786792 23.657129 
L 53.162216 23.821536 
L 53.537641 23.985942 
L 53.913065 24.150348 
L 54.288489 24.314754 
L 54.663914 24.479161 
L 54.950939 24.682816 
L 55.237965 24.886471 
L 55.52499 25.090126 
L 55.812016 25.293781 
L 56.099041 25.497436 
L 56.386067 25.701091 
L 56.673092 25.904746 
L 56.960118 26.108401 
L 57.291374 26.37587 
L 57.622631 26.643339 
L 57.953888 26.910808 
L 58.285145 27.178277 
L 58.616401 27.445746 
L 58.947658 27.713215 
L 59.278915 27.980683 
L 59.610171 28.248152 
L 59.943783 28.522986 
L 60.277394 28.79782 
L 60.611006 29.072654 
L 60.944617 29.347487 
" style="fill:none;stroke:#4169e1;stroke-linecap:square;stroke-width:0.4;"/>
   </g>
   <g id="line2d_10">
    <path clip-path="url(#p623f36a904)" d="M 60.10047 22.299886 
L 60.507778 22.815245 
L 60.915087 23.330604 
L 61.322396 23.845963 
L 61.729705 24.361322 
L 61.940742 24.690135 
L 62.151779 25.018947 
L 62.362816 25.34776 
L 62.573853 25.676572 
L 62.804492 26.128072 
L 63.03513 26.579571 
L 63.265769 27.031071 
L 63.496408 27.48257 
L 63.690198 27.916915 
L 63.883988 28.351261 
L 64.077778 28.785606 
L 64.271568 29.219951 
L 64.465358 29.654297 
L 64.659147 30.088642 
L 64.852937 30.522987 
L 65.046727 30.957332 
" style="fill:none;stroke:#008000;stroke-linecap:square;stroke-width:0.4;"/>
   </g>
   <g id="line2d_11">
    <path clip-path="url(#p623f36a904)" d="M 12.499802 39.300787 
L 12.579545 39.779299 
L 12.659289 40.257811 
L 12.739032 40.736323 
L 12.818776 41.214834 
L 12.898519 41.693346 
L 12.978263 42.171858 
L 13.058006 42.65037 
L 13.13775 43.128881 
L 13.217493 43.607393 
L 13.297237 44.085905 
L 13.37698 44.564416 
L 13.456723 45.042928 
L 13.536467 45.52144 
L 13.61621 45.999952 
L 13.695954 46.478463 
L 13.775697 46.956975 
" style="fill:none;stroke:#000000;stroke-linecap:square;stroke-width:0.4;"/>
   </g>
   <g id="line2d_12">
    <path clip-path="url(#p623f36a904)" d="M 20.783447 58.81435 
L 20.812977 59.167773 
L 20.842507 59.521196 
L 20.872037 59.874619 
L 20.901567 60.228042 
L 20.783447 60.757948 
L 20.567574 61.180079 
L 20.3517 61.602211 
L 20.263365 61.985002 
L 20.17503 62.367793 
L 20.263365 62.91746 
L 20.3517 63.467128 
L 20.268329 63.953027 
L 20.184958 64.438927 
L 20.101587 64.924826 
L 20.018216 65.410726 
L 19.919952 66.009432 
L 19.821689 66.608137 
L 19.752956 66.986079 
L 19.684222 67.364022 
L 19.615489 67.741964 
L 19.546756 68.119906 
L 19.370085 68.679271 
L 19.193415 69.238637 
L 19.046275 69.596909 
L 18.899134 69.955181 
L 18.751994 70.313453 
L 18.604854 70.671724 
" style="fill:none;stroke:#4169e1;stroke-linecap:square;stroke-width:0.4;"/>
   </g>
   <g id="line2d_13">
    <path clip-path="url(#p623f36a904)" d="M 20.3517 12.463692 
L 20.572538 12.78761 
L 20.793376 13.111528 
L 21.014213 13.435446 
L 21.235051 13.759363 
L 21.455889 14.083281 
L 21.676727 14.407199 
L 21.897565 14.731117 
L 22.118402 15.055034 
L 22.383408 15.67341 
L 22.648413 16.291786 
L 22.913419 16.910162 
L 23.178424 17.528538 
L 23.325692 17.926059 
L 23.472959 18.32358 
L 23.620227 18.721101 
L 23.767494 19.118622 
L 23.914762 19.516142 
L 24.06203 19.913663 
L 24.209297 20.311184 
L 24.356565 20.708705 
L 24.503705 21.209334 
L 24.650846 21.709963 
L 24.797986 22.210593 
L 24.945126 22.711222 
L 25.062991 23.123473 
L 25.180856 23.535723 
L 25.298722 23.947974 
L 25.416587 24.360224 
" style="fill:none;stroke:#008000;stroke-linecap:square;stroke-width:0.4;"/>
   </g>
   <g id="line2d_14">
    <path clip-path="url(#p623f36a904)" d="M 22.324603 36.480722 
L 22.306783 37.008798 
L 22.673106 37.516381 
L 23.03943 38.023963 
L 23.439356 38.233931 
L 23.839283 38.443899 
L 24.239209 38.653867 
L 24.639136 38.863835 
L 25.19664 39.183864 
L 25.754144 39.503894 
L 26.311648 39.823923 
L 26.869152 40.143952 
" style="fill:none;stroke:#4169e1;stroke-linecap:square;stroke-width:0.4;"/>
   </g>
   <g id="line2d_15">
    <path clip-path="url(#p623f36a904)" d="M 8.53414 36.374595 
L 8.691209 37.002943 
L 8.848277 37.631291 
L 8.975816 38.10237 
L 9.103355 38.573448 
L 9.230893 39.044526 
L 9.358432 39.515604 
L 9.535102 40.134072 
L 9.711772 40.752539 
L 9.888443 41.371007 
L 10.065113 41.989474 
L 10.536318 42.460644 
L 11.007524 42.931813 
L 11.360864 43.520638 
L 11.714205 44.109463 
L 11.940007 44.502135 
L 12.165809 44.894807 
L 12.391611 45.287479 
L 12.617412 45.680151 
L 12.803884 46.259278 
L 12.990355 46.838405 
L 13.176826 47.417532 
L 13.363297 47.996659 
" style="fill:none;stroke:#000000;stroke-linecap:square;stroke-width:0.4;"/>
   </g>
   <g id="line2d_16">
    <path clip-path="url(#p623f36a904)" d="M 43.789783 28.699743 
L 44.400715 28.909551 
L 45.011646 29.119359 
L 45.622578 29.329167 
L 46.23351 29.538974 
L 46.844441 29.748782 
L 47.455373 29.95859 
L 48.066304 30.168398 
L 48.677236 30.378205 
L 49.288168 30.588013 
L 49.899099 30.797821 
L 50.510031 31.007629 
L 51.120962 31.217436 
L 51.731894 31.427244 
L 52.342825 31.637052 
L 52.953757 31.84686 
L 53.564689 32.056667 
L 53.93639 32.18919 
L 54.308091 32.321712 
L 54.679792 32.454234 
L 55.051493 32.586756 
L 55.423195 32.719278 
L 55.794896 32.851801 
L 56.166597 32.984323 
L 56.538298 33.116845 
L 56.91 33.249367 
L 57.281701 33.381889 
L 57.653402 33.514412 
L 58.025103 33.646934 
L 58.396804 33.779456 
L 58.768506 33.911978 
L 59.140207 34.0445 
L 59.511908 34.177023 
" style="fill:none;stroke:#4169e1;stroke-linecap:square;stroke-width:0.4;"/>
   </g>
   <g id="line2d_17">
    <path clip-path="url(#p623f36a904)" d="M 39.019687 29.622687 
L 39.50553 29.718385 
L 39.991373 29.814083 
L 40.477216 29.90978 
L 40.963059 30.005478 
L 41.448903 30.101176 
L 41.934746 30.196874 
L 42.420589 30.292571 
L 42.906432 30.388269 
L 43.257291 30.518321 
L 43.608149 30.648373 
L 43.959007 30.778425 
L 44.309866 30.908477 
L 44.660724 31.038529 
L 45.011583 31.168581 
L 45.362441 31.298633 
L 45.7133 31.428685 
L 46.064158 31.558737 
L 46.415017 31.688789 
L 46.765875 31.818841 
L 47.116734 31.948893 
L 47.467592 32.078945 
L 47.818451 32.208997 
L 48.169309 32.339049 
L 48.520167 32.469101 
L 48.95322 32.62246 
L 49.386272 32.775819 
L 49.819324 32.929178 
L 50.252376 33.082537 
L 50.685428 33.235895 
L 51.11848 33.389254 
L 51.551532 33.542613 
L 51.984584 33.695972 
L 52.417637 33.849331 
L 52.850689 34.00269 
L 53.283741 34.156049 
L 53.716793 34.309408 
L 54.149845 34.462766 
L 54.582897 34.616125 
L 55.015949 34.769484 
L 55.449002 34.922843 
L 56.057419 35.173158 
L 56.665837 35.423472 
L 57.274255 35.673787 
L 57.882672 35.924102 
L 58.49109 36.174416 
L 59.099508 36.424731 
L 59.707926 36.675046 
L 60.316343 36.92536 
L 60.6525 37.065247 
L 60.988658 37.205134 
L 61.324815 37.345021 
L 61.660972 37.484908 
L 61.997129 37.624796 
L 62.333286 37.764683 
L 62.669443 37.90457 
L 63.0056 38.044457 
" style="fill:none;stroke:#4169e1;stroke-linecap:square;stroke-width:0.4;"/>
   </g>
   <g id="line2d_18">
    <path clip-path="url(#p623f36a904)" d="M 9.018329 22.015538 
L 8.707629 22.534739 
L 8.396928 23.053941 
L 8.086228 23.573142 
L 7.775528 24.092344 
L 7.526433 24.532865 
L 7.277338 24.973386 
L 7.028243 25.413906 
L 6.779148 25.854427 
L 6.645373 26.296046 
L 6.511597 26.737665 
L 6.377821 27.179283 
L 6.244046 27.620902 
L 6.403533 28.196918 
L 6.56302 28.772935 
L 6.722507 29.348951 
L 6.881994 29.924968 
L 6.845845 30.500069 
L 6.809696 31.075171 
L 6.728234 31.38843 
" style="fill:none;stroke:#4169e1;stroke-linecap:square;stroke-width:0.4;"/>
   </g>
   <g id="line2d_19">
    <path clip-path="url(#p623f36a904)" d="M 27.693443 24.164071 
L 27.664041 23.732151 
L 27.634638 23.30023 
L 27.605236 22.868309 
L 27.575833 22.436388 
L 27.575833 21.886721 
L 27.575833 21.337053 
L 27.889715 20.767807 
L 28.203598 20.198561 
L 28.4294 19.874597 
L 28.655202 19.550634 
L 28.881004 19.22667 
L 29.106805 18.902707 
L 29.361883 18.470878 
L 29.61696 18.039048 
L 30.08842 17.567695 
L 30.677236 17.685534 
L 31.266052 17.803372 
L 31.717656 18.058627 
L 32.169259 18.313882 
L 32.699143 18.623024 
L 33.229026 18.932166 
L 33.75891 19.241309 
L 34.288793 19.550451 
L 34.789401 19.790976 
L 35.29001 20.031501 
L 35.790618 20.272027 
L 36.291226 20.512552 
L 36.782033 20.689309 
L 37.27284 20.866066 
" style="fill:none;stroke:#4169e1;stroke-linecap:square;stroke-width:0.4;"/>
   </g>
   <g id="line2d_20">
    <path clip-path="url(#p623f36a904)" d="M 14.148385 47.487247 
L 14.23182 48.062691 
L 14.315254 48.638136 
L 14.398689 49.213581 
L 14.482124 49.789025 
L 14.565558 50.36447 
L 14.648993 50.939914 
L 14.732428 51.515359 
L 14.815862 52.090804 
L 14.899297 52.666248 
L 14.982732 53.241693 
L 15.066166 53.817138 
L 15.149601 54.392582 
L 15.233036 54.968027 
L 15.316471 55.543471 
L 15.399905 56.118916 
L 15.48334 56.694361 
L 15.434272 57.089457 
L 15.385204 57.484553 
L 15.336136 57.87965 
L 15.287068 58.274746 
L 15.238 58.669842 
L 15.188932 59.064939 
L 15.139864 59.460035 
L 15.090796 59.855132 
L 15.193864 60.421976 
L 15.296932 60.988821 
L 15.400001 61.555666 
L 15.503069 62.12251 
L 15.606137 62.689355 
L 15.709205 63.256199 
L 15.812274 63.823044 
L 15.915342 64.389889 
L 16.01841 64.956733 
L 16.121478 65.523578 
L 16.224547 66.090422 
L 16.327615 66.657267 
L 16.430683 67.224112 
L 16.533751 67.790956 
L 16.63682 68.357801 
L 16.739888 68.924645 
L 16.81104 69.295177 
L 16.882192 69.665709 
L 16.953343 70.03624 
L 17.024495 70.406772 
L 17.095647 70.777303 
L 17.166799 71.147835 
L 17.23795 71.518366 
L 17.309102 71.888898 
" style="fill:none;stroke:#4169e1;stroke-linecap:square;stroke-width:0.4;"/>
   </g>
   <g id="line2d_21">
    <path clip-path="url(#p623f36a904)" d="M 28.949992 26.952664 
L 29.3573 27.119541 
L 29.764609 27.286417 
L 30.171918 27.453294 
L 30.579227 27.62017 
L 30.986536 27.787046 
L 31.393845 27.953923 
L 31.801154 28.120799 
L 32.208463 28.287676 
L 32.748275 28.420152 
L 33.288086 28.552629 
L 33.827898 28.685105 
L 34.367709 28.817581 
L 34.806903 28.974623 
L 35.246097 29.131664 
L 35.68529 29.288705 
L 36.124484 29.445747 
L 36.563677 29.602788 
L 37.002871 29.759829 
L 37.442065 29.916871 
L 37.881258 30.073912 
" style="fill:none;stroke:#4169e1;stroke-linecap:square;stroke-width:0.4;"/>
   </g>
   <g id="line2d_22">
    <path clip-path="url(#p623f36a904)" d="M 7.159982 17.999525 
L 6.570911 18.215622 
L 5.981841 18.43172 
L 5.51089 18.667213 
L 5.039939 18.902707 
L 4.902472 19.256038 
L 4.765005 19.60937 
L 4.627539 19.962701 
L 4.490072 20.316033 
L 4.372334 20.816662 
L 4.254596 21.317292 
L 4.136859 21.817921 
L 4.019121 22.31855 
L 3.960188 22.701341 
L 3.901256 23.084132 
L 3.842323 23.466923 
L 3.783391 23.849714 
L 3.655725 24.350344 
L 3.528059 24.850973 
L 3.400393 25.351602 
L 3.272727 25.852231 
L 3.302257 26.264482 
L 3.331787 26.676733 
L 3.361317 27.088983 
L 3.390847 27.501234 
L 3.606721 27.795738 
L 3.822594 28.090242 
L 4.038468 28.384746 
L 4.254342 28.67925 
L 4.391809 29.003122 
L 4.529275 29.326994 
L 4.666742 29.650866 
L 4.804209 29.974738 
L 5.128147 30.36741 
L 5.452085 30.760082 
L 5.776023 31.152753 
L 6.09996 31.545425 
" style="fill:none;stroke:#4169e1;stroke-linecap:square;stroke-width:0.4;"/>
   </g>
   <g id="line2d_23">
    <path clip-path="url(#p623f36a904)" d="M 35.741359 32.371025 
L 36.297113 32.59188 
L 36.852867 32.812735 
L 37.408621 33.03359 
L 37.964375 33.254445 
L 38.520129 33.4753 
L 39.075883 33.696155 
L 39.631636 33.91701 
L 40.18739 34.137865 
L 40.743144 34.35872 
L 41.298898 34.579575 
L 41.854652 34.80043 
L 42.410406 35.021286 
L 42.96616 35.242141 
L 43.521914 35.462996 
L 44.077668 35.683851 
L 44.633422 35.904706 
" style="fill:none;stroke:#000000;stroke-linecap:square;stroke-width:0.4;"/>
   </g>
   <g id="line2d_24">
    <path clip-path="url(#p623f36a904)" d="M 37.488714 23.615136 
L 37.606325 22.996851 
L 37.723935 22.378567 
L 37.930135 21.73064 
L 38.136335 21.082713 
L 38.489676 20.641003 
L 38.843016 20.199293 
L 39.215959 20.066816 
L 39.588901 19.93434 
L 39.961843 19.801863 
L 40.334785 19.669387 
L 40.747058 19.777344 
L 41.159331 19.885302 
L 41.571604 19.993259 
L 41.983877 20.101216 
L 42.582367 20.297552 
L 43.180856 20.493888 
L 43.539161 20.42518 
L 43.897466 20.356471 
L 44.25577 20.287763 
L 44.614075 20.219054 
L 44.996818 20.145406 
L 45.379561 20.071757 
L 45.762304 19.998108 
L 46.145047 19.924459 
L 46.66513 19.53197 
L 47.185212 19.139481 
L 47.523788 19.051102 
L 47.862364 18.962724 
L 48.200939 18.874345 
L 48.539515 18.785967 
L 49.216666 18.678009 
L 49.893817 18.570052 
L 50.394552 18.736928 
L 50.895288 18.903805 
L 51.533235 19.139298 
L 52.171183 19.374791 
L 52.406658 19.698755 
L 52.642134 20.022718 
L 52.877609 20.346682 
L 53.113085 20.670645 
L 53.495955 21.112356 
L 53.878826 21.554066 
L 54.457713 21.907397 
L 55.036601 22.260729 
L 55.527408 22.731716 
" style="fill:none;stroke:#4169e1;stroke-linecap:square;stroke-width:0.4;"/>
   </g>
   <g id="line2d_25">
    <path clip-path="url(#p623f36a904)" d="M 53.172145 28.325735 
L 53.603892 28.011744 
L 53.996436 27.854748 
L 54.320247 27.972495 
L 54.644057 28.090242 
L 54.967868 28.207988 
L 55.291678 28.325735 
L 55.605815 28.473033 
L 55.919952 28.620331 
L 56.234089 28.767628 
L 56.548227 28.914926 
L 56.862109 29.327177 
L 57.175991 29.739427 
" style="fill:none;stroke:#4169e1;stroke-linecap:square;stroke-width:0.4;"/>
   </g>
   <g id="line2d_26">
    <path clip-path="url(#p623f36a904)" d="M 12.656616 37.434772 
L 12.686019 37.847023 
L 12.715421 38.259274 
L 12.744824 38.671524 
L 12.774226 39.083775 
L 12.950897 39.456777 
L 13.127567 39.829778 
L 13.304237 40.20278 
L 13.480907 40.575782 
L 13.804845 41.16479 
L 14.128783 41.753798 
L 14.452721 42.342805 
L 14.776659 42.931813 
L 14.982859 43.383313 
L 15.189059 43.834812 
L 15.395259 44.286312 
L 15.60146 44.737811 
L 15.71907 45.385555 
L 15.83668 46.033299 
L 15.777875 46.661648 
L 15.71907 47.289996 
" style="fill:none;stroke:#000000;stroke-linecap:square;stroke-width:0.4;"/>
   </g>
   <g id="line2d_27">
    <path clip-path="url(#p623f36a904)" d="M 20.312496 58.402282 
L 19.949482 58.598618 
L 19.586468 58.794954 
L 19.301607 59.148286 
L 19.016745 59.501617 
L 18.724755 59.800421 
L 18.432766 60.099225 
L 18.106409 60.359969 
L 17.780053 60.620714 
L 17.426713 60.826748 
L 17.073372 61.032781 
L 16.484811 61.268458 
" style="fill:none;stroke:#008000;stroke-linecap:square;stroke-width:0.4;"/>
   </g>
   <g id="line2d_28">
    <path clip-path="url(#p623f36a904)" d="M 28.556938 37.866602 
L 28.4294 38.200355 
L 28.301861 38.534107 
L 28.174323 38.86786 
L 28.046784 39.201613 
L 27.879915 39.525577 
L 27.713045 39.84954 
L 27.546176 40.173504 
L 27.379306 40.497467 
L 27.349904 40.929296 
L 27.320501 41.361126 
L 27.291099 41.792955 
L 27.261696 42.224784 
L 27.202763 42.87262 
L 27.143831 43.520455 
L 27.084898 44.168291 
L 27.025966 44.816126 
L 26.957233 45.169549 
L 26.888499 45.522972 
L 26.819766 45.876395 
L 26.751032 46.229818 
L 26.397692 46.779486 
L 26.044351 47.329153 
L 25.700939 47.613777 
L 25.357527 47.8984 
L 25.014114 48.183023 
L 24.670702 48.467646 
L 24.346764 48.624733 
L 24.022826 48.78182 
L 23.698888 48.938907 
L 23.374951 49.095994 
L 23.041212 49.439536 
L 22.707473 49.783078 
L 22.373734 50.126621 
L 22.039995 50.470163 
L 21.77499 50.852954 
L 21.509985 51.235745 
L 21.244979 51.618536 
L 20.979974 52.001327 
L 20.754172 52.384118 
L 20.52837 52.766909 
L 20.302568 53.1497 
L 20.076766 53.532492 
L 19.792159 53.738663 
L 19.507552 53.944834 
L 19.222945 54.151005 
L 18.938338 54.357176 
L 18.653731 54.563347 
L 18.369124 54.769518 
L 18.084517 54.975689 
L 17.799909 55.18186 
L 17.338632 55.652938 
L 16.877355 56.124016 
L 16.416077 56.595095 
L 15.9548 57.066173 
" style="fill:none;stroke:#4169e1;stroke-linecap:square;stroke-width:0.4;"/>
   </g>
   <g id="line2d_29">
    <path clip-path="url(#p623f36a904)" d="M 22.039995 13.680866 
L 22.442468 13.661195 
L 22.84494 13.641525 
L 23.247412 13.621855 
L 23.649884 13.602185 
L 24.06203 13.464768 
L 24.474175 13.327351 
L 24.827516 12.934679 
L 25.180856 12.542007 
L 25.671664 12.424352 
L 26.162471 12.306697 
L 26.751287 12.463692 
L 27.340103 12.620688 
L 27.732647 13.091858 
L 28.125191 13.563027 
L 28.478531 14.102906 
L 28.831872 14.642784 
L 29.185212 15.182662 
L 29.538553 15.72254 
L 29.656418 16.046412 
L 29.774283 16.370284 
L 29.892148 16.694156 
L 30.010013 17.018028 
" style="fill:none;stroke:#000000;stroke-linecap:square;stroke-width:0.4;"/>
   </g>
   <g id="line2d_30">
    <path clip-path="url(#p623f36a904)" d="M 45.085026 36.04194 
L 45.691089 36.299619 
L 46.297152 36.557299 
L 46.903215 36.814978 
L 47.509278 37.072658 
L 48.115341 37.330337 
L 48.721404 37.588017 
L 49.327466 37.845696 
L 49.933529 38.103376 
L 50.357003 38.32542 
L 50.780477 38.547465 
L 51.203951 38.769509 
L 51.627425 38.991554 
" style="fill:none;stroke:#008000;stroke-linecap:square;stroke-width:0.4;"/>
   </g>
   <g id="line2d_31">
    <path clip-path="url(#p623f36a904)" d="M 31.737003 32.526922 
L 31.560333 32.880254 
L 31.383662 33.233585 
L 31.501527 33.5871 
L 31.619392 33.940614 
L 32.011936 34.47052 
L 32.40448 35.000426 
L 32.620481 35.353849 
L 32.836482 35.707272 
L 33.052483 36.060695 
L 33.268484 36.414118 
L 33.768965 36.679071 
L 34.269446 36.944024 
L 34.769927 37.208977 
L 35.270408 37.47393 
L 35.839622 37.670266 
L 36.408836 37.866602 
L 36.958449 37.788104 
L 37.508061 37.709606 
L 37.920462 37.788104 
L 38.332862 37.866602 
L 38.686202 38.013899 
L 39.039543 38.161197 
L 39.392883 38.308495 
L 39.746224 38.455793 
L 40.099437 38.681497 
L 40.45265 38.907201 
L 40.805864 39.132905 
L 41.159077 39.358609 
" style="fill:none;stroke:#4169e1;stroke-linecap:square;stroke-width:0.4;"/>
   </g>
   <g id="line2d_32">
    <path clip-path="url(#p623f36a904)" d="M 12.067545 18.392197 
L 12.500645 18.602016 
L 12.933745 18.811835 
L 13.366845 19.021654 
L 13.799945 19.231474 
L 14.233045 19.441293 
L 14.666145 19.651112 
L 15.099244 19.860931 
L 15.532344 20.07075 
L 15.965444 20.280569 
L 16.398544 20.490389 
L 16.831644 20.700208 
L 17.264744 20.910027 
L 17.697844 21.119846 
L 18.130943 21.329665 
L 18.564043 21.539485 
L 18.997143 21.749304 
L 19.430243 21.959123 
L 19.863343 22.168942 
L 20.296443 22.378761 
L 20.729543 22.588581 
L 21.162642 22.7984 
L 21.595742 23.008219 
L 22.028842 23.218038 
L 22.461942 23.427857 
L 22.895042 23.637677 
L 23.328142 23.847496 
L 23.761242 24.057315 
L 24.194342 24.267134 
L 24.627441 24.476953 
L 25.060541 24.686773 
L 25.493641 24.896592 
L 25.926741 25.106411 
" style="fill:none;stroke:#4169e1;stroke-linecap:square;stroke-width:0.4;"/>
   </g>
   <g id="line2d_33">
    <path clip-path="url(#p623f36a904)" d="M 43.295921 38.13375 
L 43.825932 38.398795 
L 44.355943 38.663839 
L 44.885953 38.928884 
L 45.415964 39.193928 
L 45.720173 39.370594 
L 46.024382 39.547259 
L 46.328591 39.723925 
L 46.6328 39.900591 
L 47.094077 40.028219 
L 47.555354 40.155846 
L 48.016632 40.283474 
L 48.477909 40.411101 
L 48.899856 40.411101 
L 49.321802 40.411101 
L 49.743749 40.411101 
L 50.165696 40.411101 
L 50.754766 40.136267 
" style="fill:none;stroke:#4169e1;stroke-linecap:square;stroke-width:0.4;"/>
   </g>
   <g id="line2d_34">
    <path clip-path="url(#p623f36a904)" d="M 48.068564 25.224249 
L 48.500311 25.53824 
L 48.932059 25.852231 
L 49.403264 26.127065 
L 49.87447 26.401899 
L 50.22781 26.931988 
L 50.581151 27.462077 
" style="fill:none;stroke:#008000;stroke-linecap:square;stroke-width:0.4;"/>
   </g>
   <g id="line2d_35">
    <path clip-path="url(#p623f36a904)" d="M 59.845392 20.434969 
L 59.904452 19.905063 
L 60.169457 19.669387 
L 60.434463 19.433711 
L 61.013351 19.355213 
L 61.592239 19.276715 
L 62.038751 19.335634 
L 62.485263 19.394553 
L 62.931776 19.453472 
L 63.378288 19.512391 
" style="fill:none;stroke:#008000;stroke-linecap:square;stroke-width:0.4;"/>
   </g>
   <g id="line2d_36">
    <path clip-path="url(#p623f36a904)" d="M 18.545794 23.221732 
L 18.722464 23.624148 
L 18.899134 24.026563 
L 19.075805 24.428979 
L 19.252475 24.831394 
L 19.429145 25.23381 
L 19.605815 25.636225 
L 19.782486 26.038641 
L 19.959156 26.441056 
L 20.047491 26.804543 
L 20.135826 27.16803 
L 20.224161 27.531517 
L 20.312496 27.895004 
" style="fill:none;stroke:#000000;stroke-linecap:square;stroke-width:0.4;"/>
   </g>
   <g id="line2d_37">
    <path clip-path="url(#p623f36a904)" d="M 28.026928 25.244743 
L 28.336101 25.399314 
L 28.645274 25.553885 
L 28.954446 25.708456 
L 29.263619 25.863027 
L 29.572792 26.017598 
L 29.881965 26.172169 
L 30.191138 26.32674 
L 30.500311 26.481312 
L 30.991118 26.643339 
L 31.481926 26.805367 
L 31.972733 26.967394 
L 32.46354 27.129422 
L 33.023081 27.227498 
L 33.582621 27.325575 
L 34.230243 27.296115 
L 34.877864 27.266655 
L 35.506138 27.256958 
L 36.134412 27.24726 
L 36.605363 27.129422 
L 37.076314 27.011583 
L 37.424818 26.825037 
L 37.773321 26.63849 
L 38.121825 26.451944 
L 38.470329 26.265397 
" style="fill:none;stroke:#4169e1;stroke-linecap:square;stroke-width:0.4;"/>
   </g>
   <g id="line2d_38">
    <path clip-path="url(#p623f36a904)" d="M 56.096623 22.515801 
L 56.282967 22.064393 
L 56.46931 21.612985 
L 56.557646 21.151513 
L 56.645981 20.690041 
L 56.724642 20.032416 
L 56.803304 19.374791 
L 57.077983 18.854583 
L 57.352662 18.334376 
L 57.637269 18.089001 
L 57.921876 17.843627 
L 58.285145 17.755248 
L 58.648413 17.66687 
L 59.158568 17.588372 
L 59.668722 17.509874 
L 60.198733 17.441257 
L 60.728744 17.37264 
L 61.082084 17.225343 
L 61.435425 17.078045 
L 61.857371 17.31363 
L 62.279318 17.549215 
L 62.701264 17.7848 
L 63.123211 18.020384 
L 63.398144 18.501252 
L 63.673078 18.98212 
L 63.800617 19.541668 
L 63.928155 20.101216 
L 64.055694 20.660765 
L 64.183232 21.220313 
L 64.359903 21.858359 
L 64.536573 22.496405 
L 64.67404 23.08523 
L 64.811506 23.674055 
L 64.926794 24.082646 
L 65.042082 24.491237 
L 65.157369 24.899828 
L 65.272657 25.308419 
L 65.387944 25.71701 
L 65.503232 26.125601 
L 65.618519 26.534192 
L 65.733807 26.942783 
L 65.849094 27.351375 
L 65.964382 27.759966 
L 66.079669 28.168557 
L 66.194957 28.577148 
L 66.310244 28.985739 
L 66.425532 29.39433 
L 66.540819 29.802921 
L 66.656107 30.211512 
" style="fill:none;stroke:#008000;stroke-linecap:square;stroke-width:0.4;"/>
   </g>
   <g id="line2d_39">
    <path clip-path="url(#p623f36a904)" d="M 39.039543 24.596999 
L 39.369543 24.700673 
L 39.699542 24.804348 
L 40.029542 24.908022 
L 40.359542 25.011697 
L 40.689542 25.115371 
L 41.019542 25.219046 
L 41.349541 25.32272 
L 41.679541 25.426395 
L 42.009541 25.530069 
L 42.339541 25.633744 
L 42.669541 25.737418 
L 42.99954 25.841093 
L 43.32954 25.944767 
L 43.65954 26.048442 
L 43.98954 26.152116 
L 44.31954 26.255791 
L 44.649539 26.359465 
L 44.979539 26.46314 
L 45.309539 26.566814 
L 45.639539 26.670489 
L 45.969538 26.774163 
L 46.299538 26.877838 
L 46.629538 26.981512 
L 46.959538 27.085186 
L 47.289538 27.188861 
L 47.619537 27.292535 
L 47.949537 27.39621 
L 48.279537 27.499884 
L 48.609537 27.603559 
L 48.939537 27.707233 
L 49.269536 27.810908 
L 49.599536 27.914582 
L 49.929536 28.018257 
L 50.259536 28.121931 
L 50.589535 28.225606 
L 50.919535 28.32928 
L 51.249535 28.432955 
L 51.579535 28.536629 
L 51.909535 28.640304 
L 52.239534 28.743978 
L 52.569534 28.847653 
L 52.899534 28.951327 
L 53.229534 29.055002 
L 53.559534 29.158676 
L 53.889533 29.262351 
L 54.219533 29.366025 
L 54.549533 29.4697 
L 54.879533 29.573374 
L 55.209533 29.677049 
L 55.539532 29.780723 
L 55.869532 29.884398 
L 56.199532 29.988072 
L 56.529532 30.091747 
L 56.859531 30.195421 
L 57.189531 30.299096 
L 57.519531 30.40277 
L 57.849531 30.506445 
L 58.179531 30.610119 
L 58.50953 30.713794 
L 58.83953 30.817468 
L 59.16953 30.921143 
L 59.49953 31.024817 
L 59.82953 31.128492 
L 60.159529 31.232166 
" style="fill:none;stroke:#4169e1;stroke-linecap:square;stroke-width:0.4;"/>
   </g>
   <g id="line2d_40">
    <path clip-path="url(#p623f36a904)" d="M 6.610115 32.016412 
L 6.72798 32.517041 
L 6.845845 33.017671 
L 6.96371 33.5183 
L 7.081575 34.018929 
L 7.375983 34.43118 
L 7.670391 34.84343 
L 7.964799 35.255681 
L 8.259207 35.667932 
L 8.602747 35.874057 
L 8.946286 36.080182 
L 9.289826 36.286308 
L 9.633365 36.492433 
L 10.084842 36.64952 
L 10.536318 36.806607 
L 10.987795 36.963694 
L 11.439271 37.120781 
L 11.900676 37.091322 
L 12.362081 37.061862 
L 12.823485 37.032403 
L 13.28489 37.002943 
L 13.736366 36.934235 
L 14.187843 36.865526 
L 14.639319 36.796818 
L 15.090796 36.728109 
L 15.444136 36.561233 
L 15.797477 36.394356 
L 16.150817 36.22748 
L 16.504158 36.060604 
L 16.945834 35.903517 
L 17.387509 35.746429 
L 17.829185 35.589342 
L 18.27086 35.432255 
L 18.604599 34.961269 
L 18.938338 34.490282 
L 19.429145 34.372444 
L 19.919952 34.254606 
L 20.449963 34.490099 
L 20.979974 34.725592 
L 21.509985 35.137843 
L 22.039995 35.550094 
L 22.334531 35.746429 
L 22.629066 35.942765 
L 23.080543 35.932976 
L 23.532019 35.923187 
L 23.983496 35.913397 
L 24.434972 35.903608 
L 24.945381 35.726851 
L 25.45579 35.550094 
L 25.946597 35.393098 
L 26.437405 35.236102 
" style="fill:none;stroke:#008000;stroke-linecap:square;stroke-width:0.4;"/>
   </g>
   <g id="line2d_41">
    <path clip-path="url(#p623f36a904)" d="M 27.575833 42.14647 
L 27.958576 42.156259 
L 28.341319 42.166048 
L 28.724062 42.175838 
L 29.106805 42.185627 
L 29.725151 42.215086 
L 30.343497 42.244546 
L 30.961843 42.274006 
L 31.580189 42.303465 
L 31.953131 42.362384 
L 32.326073 42.421303 
L 32.699016 42.480222 
L 33.071958 42.539141 
L 33.719834 42.51938 
L 34.367709 42.499618 
L 34.89772 42.342623 
L 35.427731 42.185627 
L 35.839877 41.930372 
L 36.252022 41.675117 
L 36.566159 41.223709 
L 36.880296 40.772301 
" style="fill:none;stroke:#008000;stroke-linecap:square;stroke-width:0.4;"/>
   </g>
   <g id="line2d_42">
    <path clip-path="url(#p623f36a904)" d="M 25.887537 27.933063 
L 25.583329 28.394444 
L 25.27912 28.855824 
L 24.974911 29.317204 
L 24.670702 29.778585 
L 24.454574 30.328252 
L 24.238445 30.87792 
L 24.297378 31.349089 
L 24.35631 31.820259 
L 24.415243 32.291429 
L 24.474175 32.762599 
L 24.798113 33.017762 
L 25.122051 33.272926 
L 25.445989 33.528089 
L 25.769927 33.783253 
L 26.15267 34.293671 
L 26.535413 34.80409 
L 26.918156 35.314509 
L 27.300899 35.824927 
L 27.732774 36.355016 
L 28.164649 36.885105 
L 28.596524 37.415194 
L 29.028398 37.945282 
L 29.308105 38.205386 
L 29.587812 38.46549 
L 29.867519 38.725594 
L 30.147225 38.985698 
L 30.426932 39.245802 
L 30.706639 39.505906 
L 30.986345 39.76601 
L 31.266052 40.026114 
L 31.776461 40.153742 
L 32.28687 40.281369 
L 32.797279 40.408997 
L 33.307688 40.536624 
L 33.67573 40.53173 
L 34.043772 40.526835 
L 34.411813 40.52194 
L 34.779855 40.517046 
L 35.147897 40.512151 
L 35.515939 40.507256 
L 35.883981 40.502362 
L 36.252022 40.497467 
L 36.610263 40.482737 
L 36.968504 40.468007 
L 37.326745 40.453278 
L 37.684986 40.438548 
L 38.043227 40.423818 
L 38.401468 40.409088 
L 38.759709 40.394359 
L 39.11795 40.379629 
L 39.608503 40.222633 
L 40.099055 40.065638 
L 40.511328 40.026297 
L 40.923601 39.986957 
L 41.335874 39.947617 
L 41.748147 39.908276 
L 42.327162 39.967195 
L 42.906178 40.026114 
L 43.485193 40.085033 
L 44.064208 40.143952 
L 44.535286 40.418786 
L 45.006364 40.69362 
L 45.477442 40.968454 
L 45.948521 41.243287 
L 46.282259 41.390494 
L 46.615998 41.5377 
L 46.949737 41.684906 
L 47.283476 41.832112 
L 47.891893 41.881242 
L 48.500311 41.930372 
L 49.108729 41.979502 
L 49.717147 42.028631 
L 50.050885 41.910793 
L 50.384624 41.792955 
L 50.747765 41.734036 
L 51.110907 41.675117 
L 51.474048 41.616198 
L 51.83719 41.557279 
L 52.180729 41.380613 
L 52.524269 41.203947 
L 52.867808 41.027281 
L 53.211348 40.850616 
" style="fill:none;stroke:#4169e1;stroke-linecap:square;stroke-width:0.4;"/>
   </g>
   <g id="line2d_43">
    <path clip-path="url(#p623f36a904)" d="M 27.634384 27.561251 
L 27.928919 27.929312 
L 28.223454 28.297374 
L 28.517989 28.665435 
L 28.812525 29.033496 
L 29.21487 29.283811 
L 29.617214 29.534125 
L 30.019559 29.78444 
L 30.421904 30.034755 
L 30.981318 30.299799 
L 31.540731 30.564843 
L 32.100144 30.829888 
L 32.659558 31.094932 
L 33.253465 31.340306 
L 33.847372 31.585681 
L 34.44128 31.831055 
L 35.035187 32.076429 
" style="fill:none;stroke:#4169e1;stroke-linecap:square;stroke-width:0.4;"/>
   </g>
   <g id="line2d_44">
    <path clip-path="url(#p623f36a904)" d="M 9.495899 20.709803 
L 9.466623 21.151513 
L 9.437348 21.593223 
L 9.574687 22.18214 
L 9.712027 22.771056 
L 9.849366 23.359972 
L 9.986706 23.948889 
L 10.192906 24.395539 
L 10.399106 24.84219 
L 10.605306 25.288841 
L 10.811506 25.735491 
L 10.968448 26.24591 
L 11.125389 26.756328 
L 11.28233 27.266747 
L 11.439271 27.777166 
L 11.665073 28.071669 
L 11.890875 28.366173 
L 12.116677 28.660677 
L 12.342479 28.955181 
L 12.70562 29.102388 
L 13.068762 29.249594 
L 13.431903 29.3968 
L 13.795044 29.544006 
L 14.315382 29.396709 
L 14.835719 29.249411 
L 15.110398 28.954998 
L 15.385077 28.660586 
L 15.826752 28.778424 
L 16.268428 28.896262 
L 16.857498 28.955181 
L 17.269899 28.719505 
L 17.682299 28.483829 
L 18.231912 28.258033 
L 18.781524 28.032238 
L 19.149502 28.042118 
L 19.51748 28.051999 
L 19.885459 28.06188 
L 20.253437 28.071761 
L 20.695112 28.218876 
L 21.136788 28.36599 
L 21.504893 28.606516 
L 21.872999 28.847041 
L 22.241104 29.087566 
L 22.60921 29.328092 
L 22.972351 29.602925 
L 23.335492 29.877759 
L 23.698634 30.152593 
L 24.061775 30.427427 
" style="fill:none;stroke:#4169e1;stroke-linecap:square;stroke-width:0.4;"/>
   </g>
   <g id="line2d_45">
    <path clip-path="url(#p623f36a904)" d="M 20.3517 28.326833 
L 20.3517 28.739084 
L 20.3517 29.151334 
L 20.3517 29.563585 
L 20.3517 29.975836 
L 20.366465 30.461735 
L 20.38123 30.947635 
L 20.395995 31.433534 
L 20.41076 31.919434 
L 20.562864 32.302225 
L 20.714969 32.685016 
L 20.867073 33.067807 
L 21.019177 33.450598 
L 21.195848 34.010146 
L 21.372518 34.569695 
" style="fill:none;stroke:#000000;stroke-dasharray:1.48,0.64;stroke-dashoffset:0;stroke-width:0.4;"/>
   </g>
   <g id="line2d_46">
    <path clip-path="url(#p623f36a904)" d="M 13.033377 29.674653 
L 12.903483 30.159638 
L 12.77359 30.644622 
L 12.643697 31.129607 
L 12.513803 31.614591 
L 12.38391 32.099576 
L 12.254017 32.58456 
L 12.124123 33.069545 
L 11.99423 33.55453 
" style="fill:none;stroke:#4169e1;stroke-linecap:square;stroke-width:0.4;"/>
   </g>
   <g id="line2d_47">
    <path clip-path="url(#p623f36a904)" d="M 8.632404 20.905956 
L 8.190728 21.377126 
L 7.749052 21.848295 
L 7.366182 21.995593 
L 6.983312 22.142891 
L 6.600441 22.231269 
L 6.217571 22.319648 
L 5.628755 22.329529 
L 5.039939 22.33941 
L 4.686598 22.358988 
L 4.333258 22.378567 
" style="fill:none;stroke:#008000;stroke-linecap:square;stroke-width:0.4;"/>
   </g>
   <g id="line2d_48">
    <path clip-path="url(#p623f36a904)" d="M 10.889913 19.846144 
L 11.272657 20.346682 
L 11.6554 20.84722 
L 12.038143 21.347757 
L 12.420886 21.848295 
" style="fill:none;stroke:#008000;stroke-linecap:square;stroke-width:0.4;"/>
   </g>
  </g>
 </g>
 <defs>
  <clipPath id="p623f36a904">
   <rect height="76.845713" width="72" x="0" y="0"/>
  </clipPath>
 </defs>
</svg>
