<?xml version="1.0" encoding="utf-8" standalone="no"?>
<!DOCTYPE svg PUBLIC "-//W3C//DTD SVG 1.1//EN"
  "http://www.w3.org/Graphics/SVG/1.1/DTD/svg11.dtd">
<svg height="72pt" version="1.1" viewBox="0 0 61.688459 72" width="61.688459pt" xmlns="http://www.w3.org/2000/svg" xmlns:xlink="http://www.w3.org/1999/xlink">
 <metadata>
  <rdf:RDF xmlns:cc="http://creativecommons.org/ns#" xmlns:dc="http://purl.org/dc/elements/1.1/" xmlns:rdf="http://www.w3.org/1999/02/22-rdf-syntax-ns#">
   <cc:Work>
    <dc:type rdf:resource="http://purl.org/dc/dcmitype/StillImage"/>
    <dc:date>2022-04-19T00:51:36.837240</dc:date>
    <dc:format>image/svg+xml</dc:format>
    <dc:creator>
     <cc:Agent>
      <dc:title>Matplotlib v3.4.3, https://matplotlib.org/</dc:title>
     </cc:Agent>
    </dc:creator>
   </cc:Work>
  </rdf:RDF>
 </metadata>
 <defs>
  <style type="text/css">*{stroke-linecap:butt;stroke-linejoin:round;}</style>
 </defs>
 <g id="figure_1">
  <g id="patch_1">
   <path d="M 0 72 
L 61.688459 72 
L 61.688459 0 
L 0 0 
z
" style="fill:#ffffff;"/>
  </g>
  <g id="axes_1">
   <g id="patch_2">
    <path clip-path="url(#p7c3d52dbd6)" d="M 6.215722 48.711482 
L 6.215722 48.711482 
L 6.844182 48.604931 
L 7.472641 48.49838 
L 7.372195 47.907409 
L 7.271748 47.316439 
L 7.171302 46.725468 
L 7.070855 46.134498 
L 6.970409 45.543527 
L 6.869963 44.952557 
L 6.769516 44.361586 
L 6.66907 43.770616 
L 6.568623 43.179646 
L 6.468177 42.588675 
L 6.36773 41.997705 
L 6.267284 41.406734 
L 6.166837 40.815764 
L 6.066391 40.224793 
L 5.965945 39.633823 
L 5.865498 39.042852 
L 5.236818 39.149696 
L 4.608137 39.25654 
z
" style="fill:#008000;opacity:0.1;"/>
   </g>
   <g id="patch_3">
    <path clip-path="url(#p7c3d52dbd6)" d="M 6.215722 48.711482 
L 6.215722 48.711482 
L 6.844182 48.604931 
L 7.472641 48.49838 
L 7.372195 47.907409 
L 7.271748 47.316439 
L 7.171302 46.725468 
L 7.070855 46.134498 
L 6.970409 45.543527 
L 6.869963 44.952557 
L 6.769516 44.361586 
L 6.66907 43.770616 
L 6.568623 43.179646 
L 6.468177 42.588675 
L 6.36773 41.997705 
L 6.267284 41.406734 
L 6.166837 40.815764 
L 6.066391 40.224793 
L 5.965945 39.633823 
L 5.865498 39.042852 
L 5.236818 39.149696 
L 4.608137 39.25654 
z
" style="fill:none;stroke:#008000;stroke-linejoin:miter;stroke-width:0.4;"/>
   </g>
   <g id="patch_4">
    <path clip-path="url(#p7c3d52dbd6)" d="M 46.180985 59.934469 
L 46.180985 59.934469 
L 46.626715 59.513973 
L 47.072444 59.093477 
L 47.518173 58.672981 
L 47.963903 58.252485 
L 48.409632 57.831989 
L 48.855361 57.411492 
L 49.301091 56.990996 
L 49.74682 56.5705 
L 49.101136 56.173861 
L 48.455453 55.777222 
L 47.886836 56.244993 
L 47.318219 56.712763 
L 46.803041 56.304123 
L 46.287863 55.895482 
L 45.840698 56.076092 
L 45.393534 56.256702 
L 44.946369 56.437311 
L 44.499204 56.617921 
L 43.930587 57.162678 
L 43.361971 57.707435 
z
" style="fill:#008000;opacity:0.1;"/>
   </g>
   <g id="patch_5">
    <path clip-path="url(#p7c3d52dbd6)" d="M 46.180985 59.934469 
L 46.180985 59.934469 
L 46.626715 59.513973 
L 47.072444 59.093477 
L 47.518173 58.672981 
L 47.963903 58.252485 
L 48.409632 57.831989 
L 48.855361 57.411492 
L 49.301091 56.990996 
L 49.74682 56.5705 
L 49.101136 56.173861 
L 48.455453 55.777222 
L 47.886836 56.244993 
L 47.318219 56.712763 
L 46.803041 56.304123 
L 46.287863 55.895482 
L 45.840698 56.076092 
L 45.393534 56.256702 
L 44.946369 56.437311 
L 44.499204 56.617921 
L 43.930587 57.162678 
L 43.361971 57.707435 
z
" style="fill:none;stroke:#008000;stroke-linejoin:miter;stroke-width:0.4;"/>
   </g>
   <g id="line2d_1">
    <path clip-path="url(#p7c3d52dbd6)" d="M 44.946148 60.686766 
L 43.629165 59.018247 
L 42.662406 57.793496 
L 41.695647 56.568744 
L 40.57365 55.147575 
L 39.451653 53.726407 
L 38.280192 52.242303 
L 37.108731 50.758199 
L 35.900172 49.227259 
L 34.691612 47.69632 
L 33.199738 45.806209 
L 31.707865 43.916099 
L 30.842904 42.820438 
L 29.977944 41.724777 
L 29.112984 40.629116 
L 28.248024 39.533455 
L 26.704036 37.57719 
L 25.160048 35.620924 
L 23.866914 33.982848 
L 22.57378 32.344772 
L 21.651848 31.177101 
L 20.729916 30.009431 
L 19.739749 28.754821 
L 18.682233 27.41503 
L 17.624716 26.075238 
L 16.09221 24.133901 
L 15.241824 23.056389 
L 14.391439 21.978877 
" style="fill:none;stroke:#808080;stroke-linecap:square;stroke-width:0.4;"/>
   </g>
   <g id="line2d_2">
    <path clip-path="url(#p7c3d52dbd6)" d="M 40.391472 66.801158 
L 38.627987 64.930074 
L 36.86406 63.059576 
L 35.240355 61.336903 
L 33.616651 59.614231 
L 32.480521 58.409091 
L 31.344391 57.203952 
L 30.297032 56.092777 
L 29.249673 54.981602 
L 27.803068 53.447149 
L 26.356462 51.912697 
L 24.933043 50.402834 
L 23.509624 48.89297 
L 22.57378 47.900055 
L 21.637936 46.907139 
L 20.702092 45.914224 
L 19.766248 44.921309 
L 18.819915 43.917416 
L 17.873582 42.913524 
L 16.927249 41.909632 
L 15.980916 40.905739 
L 14.412196 39.241611 
L 12.843476 37.577482 
L 11.257973 35.895498 
L 9.672471 34.213514 
L 8.164256 32.613491 
L 6.608785 30.963121 
" style="fill:none;stroke:#808080;stroke-linecap:square;stroke-width:0.4;"/>
   </g>
   <g id="line2d_3">
    <path clip-path="url(#p7c3d52dbd6)" d="M 52.880727 56.258458 
L 52.958898 53.966439 
L 53.015208 52.313434 
L 53.071517 50.66043 
L 53.119878 49.239261 
L 53.168238 47.818092 
L 53.20931 46.606221 
" style="fill:none;stroke:#808080;stroke-linecap:square;stroke-width:0.4;"/>
   </g>
   <g id="line2d_4">
    <path clip-path="url(#p7c3d52dbd6)" d="M 43.259509 62.618736 
L 42.054262 61.481069 
L 40.849015 60.343403 
L 39.643768 59.205736 
L 38.438522 58.068069 
L 36.748791 56.472731 
L 35.05906 54.877392 
L 34.101355 53.973318 
L 33.14365 53.069244 
L 32.185944 52.16517 
L 31.228239 51.261096 
L 30.027519 50.127674 
L 28.826799 48.994252 
L 27.626079 47.86083 
L 26.425359 46.727408 
L 24.932381 45.317948 
L 23.439403 43.908488 
L 22.014217 42.563135 
L 20.813718 41.429859 
L 19.613218 40.296583 
L 18.412719 39.163308 
L 17.21222 38.030032 
L 16.085475 36.966278 
L 14.958731 35.902523 
L 13.831986 34.838769 
L 12.705241 33.775015 
L 11.463338 32.602661 
L 10.221435 31.430306 
L 8.628866 29.926883 
" style="fill:none;stroke:#808080;stroke-linecap:square;stroke-width:0.4;"/>
   </g>
   <g id="line2d_5">
    <path clip-path="url(#p7c3d52dbd6)" d="M 45.265015 60.437367 
L 43.916234 58.730208 
L 42.966257 57.527996 
L 42.016281 56.325784 
L 40.911287 54.927155 
L 39.806293 53.528526 
L 38.469878 51.837175 
L 37.5517 50.675066 
L 36.292793 49.082069 
L 35.033887 47.489072 
L 33.536492 45.593693 
L 32.039098 43.698314 
L 31.168838 42.596798 
L 30.298578 41.495283 
L 29.428318 40.393767 
L 28.558058 39.292252 
L 27.030853 37.359404 
L 25.503647 35.426556 
L 24.206318 33.784675 
L 22.908988 32.142793 
L 21.984406 30.972488 
L 21.059824 29.802183 
L 19.999436 28.460342 
L 18.948986 27.130796 
L 17.898535 25.801249 
L 16.365146 23.860498 
L 15.537947 22.813429 
L 14.710747 21.76636 
" style="fill:none;stroke:#808080;stroke-linecap:square;stroke-width:0.4;"/>
   </g>
   <g id="line2d_6">
    <path clip-path="url(#p7c3d52dbd6)" d="M 50.131051 55.420686 
L 49.837136 54.094359 
L 49.543222 52.768033 
L 49.092083 50.73361 
L 48.640943 48.699188 
L 48.091538 46.22129 
L 47.542133 43.743393 
L 47.041529 41.485037 
L 46.540925 39.226682 
L 46.006094 36.814354 
L 45.471263 34.402027 
L 44.929145 31.956329 
L 44.387027 29.510631 
L 43.841596 27.051175 
L 43.296166 24.591719 
L 42.973213 23.134839 
L 42.650261 21.677958 
L 42.327309 20.221077 
L 42.004356 18.764196 
L 41.675332 17.2798 
L 41.346307 15.795403 
L 41.017282 14.311006 
L 40.688257 12.82661 
L 40.348301 11.292889 
L 40.008346 9.759169 
L 39.66839 8.225448 
L 39.328435 6.691728 
L 38.807736 4.343507 
L 38.614738 3.47295 
" style="fill:none;stroke:#808080;stroke-linecap:square;stroke-width:0.4;"/>
   </g>
   <g id="line2d_7">
    <path clip-path="url(#p7c3d52dbd6)" d="M 51.788983 53.620441 
L 51.800907 52.578348 
" style="fill:none;stroke:#808080;stroke-linecap:square;stroke-width:0.4;"/>
   </g>
   <g id="line2d_8">
    <path clip-path="url(#p7c3d52dbd6)" d="M 53.269374 53.988101 
L 53.340479 52.427596 
L 53.411583 50.867092 
L 53.482688 49.306587 
L 53.553793 47.746083 
" style="fill:none;stroke:#808080;stroke-linecap:square;stroke-width:0.4;"/>
   </g>
   <g id="line2d_9">
    <path clip-path="url(#p7c3d52dbd6)" d="M 57.593512 53.608732 
L 57.916243 51.870545 
L 58.238975 50.132358 
L 58.561706 48.394171 
L 58.884438 46.655983 
" style="fill:none;stroke:#808080;stroke-linecap:square;stroke-width:0.4;"/>
   </g>
   <g id="line2d_10">
    <path clip-path="url(#p7c3d52dbd6)" d="M 58.146451 46.439954 
L 58.041726 47.030742 
L 57.937001 47.621529 
L 57.832276 48.212317 
L 57.727551 48.803104 
L 57.622826 49.393892 
L 57.518101 49.984679 
L 57.413376 50.575467 
L 57.308652 51.166254 
L 57.203927 51.757042 
L 57.099202 52.347829 
L 56.994477 52.938617 
L 56.889752 53.529404 
L 56.785027 54.120192 
L 56.680302 54.710979 
L 56.575577 55.301767 
L 56.470853 55.892555 
" style="fill:none;stroke:#008000;stroke-linecap:square;stroke-width:0.4;"/>
   </g>
   <g id="line2d_11">
    <path clip-path="url(#p7c3d52dbd6)" d="M 55.33406 45.702293 
L 55.277972 46.386569 
L 55.221883 47.070845 
L 55.165794 47.75512 
L 55.109705 48.439396 
L 55.053616 49.123672 
L 54.997528 49.807948 
L 54.941439 50.492224 
L 54.88535 51.1765 
L 54.829261 51.860775 
L 54.773172 52.545051 
L 54.717084 53.229327 
L 54.660995 53.913603 
L 54.604906 54.597879 
L 54.548817 55.282155 
L 54.492728 55.96643 
L 54.43664 56.650706 
" style="fill:none;stroke:#008000;stroke-linecap:square;stroke-width:0.4;"/>
   </g>
   <g id="line2d_12">
    <path clip-path="url(#p7c3d52dbd6)" d="M 37.725708 3.652096 
L 37.833055 4.126645 
L 37.940402 4.601194 
L 38.047749 5.075743 
L 38.155096 5.550293 
L 38.262444 6.024842 
L 38.369791 6.499391 
L 38.477138 6.97394 
L 38.584485 7.448489 
L 38.691832 7.923039 
L 38.799179 8.397588 
L 38.906526 8.872137 
L 39.013873 9.346686 
L 39.121221 9.821235 
L 39.228568 10.295784 
L 39.335915 10.770334 
L 39.443262 11.244883 
L 39.550609 11.719432 
L 39.657956 12.193981 
L 39.765303 12.66853 
L 39.872651 13.14308 
L 39.979998 13.617629 
L 40.087345 14.092178 
L 40.194692 14.566727 
L 40.302039 15.041276 
L 40.409386 15.515826 
L 40.516733 15.990375 
L 40.62408 16.464924 
L 40.731428 16.939473 
L 40.838775 17.414022 
L 40.946122 17.888571 
L 41.053469 18.363121 
L 41.160816 18.83767 
L 41.268163 19.312219 
L 41.37551 19.786768 
L 41.482858 20.261317 
L 41.590205 20.735867 
L 41.697552 21.210416 
L 41.804899 21.684965 
L 41.912246 22.159514 
L 42.019593 22.634063 
L 42.12694 23.108613 
L 42.234287 23.583162 
L 42.341635 24.057711 
L 42.448982 24.53226 
L 42.556329 25.006809 
L 42.663676 25.481358 
L 42.771023 25.955908 
L 42.87837 26.430457 
L 42.985717 26.905006 
L 43.093065 27.379555 
L 43.200412 27.854104 
L 43.307759 28.328654 
L 43.415106 28.803203 
L 43.522453 29.277752 
L 43.6298 29.752301 
L 43.737147 30.22685 
L 43.844494 30.701399 
L 43.951842 31.175949 
L 44.059189 31.650498 
L 44.166536 32.125047 
L 44.273883 32.599596 
L 44.38123 33.074145 
L 44.488577 33.548695 
L 44.595924 34.023244 
L 44.986862 34.633241 
L 45.3778 35.243239 
L 45.768738 35.853236 
L 46.159676 36.463234 
L 46.550614 37.073231 
L 46.941552 37.683229 
L 47.33249 38.293226 
L 47.723428 38.903223 
L 48.114365 39.513221 
L 48.505303 40.123218 
L 48.896241 40.733216 
L 49.287179 41.343213 
L 49.678117 41.953211 
L 50.069055 42.563208 
L 50.459993 43.173206 
L 50.850931 43.783203 
L 50.827192 44.547209 
L 50.803454 45.311215 
L 50.779716 46.075222 
L 50.755977 46.839228 
L 50.732239 47.603234 
L 50.7085 48.36724 
L 50.684762 49.131246 
L 50.661024 49.895252 
" style="fill:none;stroke:#4169e1;stroke-linecap:square;stroke-width:0.4;"/>
   </g>
   <g id="line2d_13">
    <path clip-path="url(#p7c3d52dbd6)" d="M 37.15687 3.272727 
L 36.760053 3.782138 
L 36.363236 4.291549 
L 35.966418 4.800959 
L 35.569601 5.31037 
L 35.172784 5.81978 
L 34.775967 6.329191 
L 34.379149 6.838602 
L 33.982332 7.348012 
L 33.994146 8.135729 
L 34.00596 8.923446 
L 34.017774 9.711162 
L 34.029588 10.498879 
L 34.041402 11.286596 
L 34.053216 12.074313 
L 34.06503 12.862029 
L 34.076844 13.649746 
L 34.278234 14.3012 
L 34.479623 14.952655 
L 34.681013 15.604109 
L 34.882403 16.255563 
" style="fill:none;stroke:#008000;stroke-linecap:square;stroke-width:0.4;"/>
   </g>
   <g id="line2d_14">
    <path clip-path="url(#p7c3d52dbd6)" d="M 15.029173 20.519947 
L 15.668674 20.235713 
L 16.308174 19.95148 
L 16.870884 20.058104 
L 17.433594 20.164728 
L 17.996304 20.271352 
L 18.559014 20.377977 
L 19.121724 20.484601 
L 19.684434 20.591225 
L 20.247143 20.697849 
L 20.809853 20.804473 
L 21.37847 20.449108 
L 21.947087 20.093743 
L 22.515704 19.738377 
L 23.084321 19.383012 
L 23.475231 19.069067 
L 23.866141 18.755122 
L 24.257052 18.441177 
L 24.647962 18.127232 
L 25.038872 17.813287 
L 25.429782 17.499342 
L 25.820693 17.185397 
L 26.211603 16.871452 
L 26.946002 16.646421 
L 27.680401 16.421391 
L 28.4148 16.19636 
L 29.149199 15.971329 
L 29.883598 15.746299 
L 30.617997 15.521268 
L 31.352396 15.296238 
L 32.086795 15.071207 
L 32.418525 15.314021 
L 32.750255 15.556834 
L 33.081985 15.799648 
L 33.413715 16.042461 
L 33.745445 16.285275 
L 34.077175 16.528088 
L 34.408905 16.770901 
L 34.740635 17.013715 
L 34.98641 17.573401 
L 35.232185 18.133086 
L 35.47796 18.692772 
L 35.723735 19.252458 
L 35.96951 19.812144 
L 36.215285 20.371829 
L 36.46106 20.931515 
L 36.706835 21.491201 
L 36.95261 22.050887 
L 37.198385 22.610572 
L 37.44416 23.170258 
L 37.689935 23.729944 
L 37.93571 24.28963 
L 38.181485 24.849315 
L 38.42726 25.409001 
L 38.673035 25.968687 
L 38.93366 26.55501 
L 39.194285 27.141334 
L 39.45491 27.727657 
L 39.715536 28.313981 
L 39.976161 28.900304 
L 40.236786 29.486628 
L 40.497411 30.072951 
L 40.758037 30.659275 
L 41.018662 31.245598 
L 41.279287 31.831922 
L 41.539912 32.418245 
L 41.800538 33.004569 
L 42.061163 33.590892 
L 42.321788 34.177216 
L 42.582413 34.763539 
L 42.843039 35.349863 
L 43.239856 36.025028 
L 43.636673 36.700193 
L 44.033491 37.375357 
L 44.430308 38.050522 
L 44.827125 38.725687 
L 45.223942 39.400852 
L 45.62076 40.076017 
L 46.017577 40.751182 
L 46.207125 41.272338 
L 46.396673 41.793494 
L 46.586221 42.31465 
L 46.77577 42.835806 
L 46.965318 43.356962 
L 47.154866 43.878118 
L 47.344414 44.399275 
L 47.533962 44.920431 
L 47.72351 45.441587 
L 47.913058 45.962743 
L 48.102607 46.483899 
L 48.292155 47.005055 
L 48.481703 47.526211 
L 48.671251 48.047367 
L 48.860799 48.568524 
L 49.050347 49.08968 
" style="fill:none;stroke:#008000;stroke-linecap:square;stroke-width:0.4;"/>
   </g>
   <g id="line2d_15">
    <path clip-path="url(#p7c3d52dbd6)" d="M 49.760953 49.990095 
L 49.920883 50.665186 
L 50.080814 51.340278 
L 50.240744 52.01537 
L 50.400674 52.690461 
L 50.560605 53.365553 
L 50.720535 54.040645 
L 50.880466 54.715736 
L 51.040396 55.390828 
" style="fill:none;stroke:#008000;stroke-linecap:square;stroke-width:0.4;"/>
   </g>
   <g id="line2d_16">
    <path clip-path="url(#p7c3d52dbd6)" d="M 14.12866 20.472526 
L 14.620266 20.667992 
L 15.111871 20.863457 
L 15.603476 21.058923 
L 16.095081 21.254388 
L 16.586686 21.449854 
L 17.078291 21.645319 
L 17.569896 21.840785 
L 18.061502 22.03625 
L 18.487964 22.385688 
L 18.914427 22.735126 
L 19.34089 23.084564 
L 19.767352 23.434001 
L 20.193815 23.783439 
L 20.620277 24.132877 
L 21.04674 24.482314 
L 21.473203 24.831752 
L 21.724912 25.459532 
L 21.976622 26.087313 
L 22.228331 26.715093 
L 22.480041 27.342873 
L 22.731751 27.970654 
L 22.98346 28.598434 
L 23.23517 29.226214 
L 23.486879 29.853995 
L 23.738589 30.481775 
L 23.990298 31.109556 
L 24.242008 31.737336 
L 24.493718 32.365116 
L 24.745427 32.992897 
L 24.997137 33.620677 
L 25.248846 34.248457 
L 25.500556 34.876238 
" style="fill:none;stroke:#000000;stroke-linecap:square;stroke-width:0.4;"/>
   </g>
   <g id="line2d_17">
    <path clip-path="url(#p7c3d52dbd6)" d="M 13.702032 21.893987 
L 13.955246 22.238979 
L 14.20846 22.583971 
L 14.461674 22.928963 
L 14.714888 23.273955 
L 14.968102 23.618947 
L 15.221316 23.963939 
L 15.47453 24.308931 
L 15.727743 24.653923 
L 15.980957 24.998915 
L 16.234171 25.343907 
L 16.487385 25.688899 
L 16.740599 26.033891 
L 16.993813 26.378883 
L 17.247027 26.723875 
L 17.500241 27.068867 
L 17.753455 27.413859 
L 18.006669 27.758851 
L 18.259883 28.103843 
L 18.513097 28.448835 
L 18.766311 28.793826 
L 19.019524 29.138818 
L 19.272738 29.48381 
L 19.525952 29.828802 
L 19.779166 30.173794 
L 20.03238 30.518786 
L 20.285594 30.863778 
L 20.538808 31.20877 
L 20.792022 31.553762 
L 21.045236 31.898754 
L 21.29845 32.243746 
L 21.551664 32.588738 
L 21.804878 32.93373 
L 22.018081 33.306805 
L 22.231285 33.67988 
L 22.444489 34.052955 
L 22.657692 34.42603 
L 22.870896 34.799105 
L 23.0841 35.17218 
L 23.297304 35.545255 
L 23.510507 35.91833 
L 24.002112 36.332899 
L 24.493718 36.747467 
L 24.985323 37.162036 
L 25.476928 37.576604 
L 25.968533 37.991173 
L 26.460138 38.405741 
L 26.951743 38.82031 
L 27.443349 39.234878 
L 27.757247 39.815274 
L 28.071146 40.39567 
L 28.385044 40.976066 
L 28.698943 41.556462 
L 29.012841 42.136858 
L 29.32674 42.717253 
L 29.640639 43.297649 
L 29.954537 43.878045 
L 30.002014 44.328253 
L 30.049491 44.77846 
" style="fill:none;stroke:#4169e1;stroke-linecap:square;stroke-width:0.4;"/>
   </g>
   <g id="line2d_18">
    <path clip-path="url(#p7c3d52dbd6)" d="M 14.460335 23.599975 
L 14.294498 24.038181 
L 14.12866 24.476387 
L 13.962823 24.914592 
L 13.796986 25.352798 
L 14.045742 25.933267 
L 14.294498 26.513736 
L 14.543254 27.094205 
L 14.79201 27.674675 
" style="fill:none;stroke:#008000;stroke-linecap:square;stroke-width:0.4;"/>
   </g>
   <g id="line2d_19">
    <path clip-path="url(#p7c3d52dbd6)" d="M 10.006354 29.806866 
L 10.663796 29.682459 
L 11.321239 29.558052 
L 11.978681 29.433645 
L 12.636124 29.309238 
L 13.293566 29.184831 
L 13.951009 29.060424 
L 14.608452 28.936017 
L 15.265894 28.811609 
L 15.48506 29.427571 
L 15.704226 30.043533 
L 15.923392 30.659494 
L 16.142558 31.275456 
L 16.361724 31.891418 
L 16.58089 32.507379 
L 16.800056 33.123341 
L 17.019221 33.739303 
L 17.40417 34.130161 
L 17.789118 34.521019 
L 18.174066 34.911877 
L 18.559014 35.302735 
L 18.943962 35.693593 
L 19.32891 36.08445 
L 19.713858 36.475308 
L 20.098806 36.866166 
L 20.347562 37.4702 
L 20.596318 38.074233 
L 20.845074 38.678266 
L 21.09383 39.282299 
L 21.505498 39.59028 
L 21.917166 39.898261 
L 22.328833 40.206242 
L 22.740501 40.514223 
L 23.152168 40.822204 
L 23.563836 41.130184 
L 23.975503 41.438165 
L 24.387171 41.746146 
L 24.798838 42.054127 
L 25.210506 42.362108 
L 25.622174 42.670089 
L 26.033841 42.978069 
L 26.445509 43.28605 
L 26.857176 43.594031 
L 27.268844 43.902012 
L 27.680511 44.209993 
" style="fill:none;stroke:#008000;stroke-linecap:square;stroke-width:0.4;"/>
   </g>
   <g id="line2d_20">
    <path clip-path="url(#p7c3d52dbd6)" d="M 8.253026 30.659275 
L 8.805344 31.164167 
L 9.357661 31.669058 
L 9.909979 32.17395 
L 10.462296 32.678842 
L 11.014614 33.183733 
L 11.566931 33.688625 
L 12.119248 34.193517 
L 12.671566 34.698409 
L 13.223883 35.2033 
L 13.776201 35.708192 
L 14.328518 36.213084 
L 14.880836 36.717976 
L 15.433153 37.222867 
L 15.98547 37.727759 
L 16.537788 38.232651 
L 17.090105 38.737542 
L 17.642423 39.242434 
L 18.19474 39.747326 
L 18.747058 40.252218 
L 19.299375 40.757109 
L 19.851692 41.262001 
L 20.40401 41.766893 
L 20.956327 42.271784 
L 21.508645 42.776676 
L 22.060962 43.281568 
L 22.61328 43.78646 
L 23.165597 44.291351 
L 23.717914 44.796243 
L 24.270232 45.301135 
L 24.822549 45.806027 
L 25.374867 46.310918 
L 25.927184 46.81581 
" style="fill:none;stroke:#008000;stroke-linecap:square;stroke-width:0.4;"/>
   </g>
   <g id="line2d_21">
    <path clip-path="url(#p7c3d52dbd6)" d="M 7.068537 32.222999 
L 7.577904 32.760457 
L 8.087272 33.297914 
L 8.596639 33.835371 
L 9.106007 34.372828 
L 9.615375 34.910285 
L 10.124742 35.447742 
L 10.63411 35.985199 
L 11.143477 36.522656 
L 11.652845 37.060113 
L 12.162212 37.597571 
L 12.67158 38.135028 
L 13.180947 38.672485 
L 13.690315 39.209942 
L 14.199682 39.747399 
L 14.70905 40.284856 
L 15.218417 40.822313 
L 15.727785 41.35977 
L 16.237152 41.897228 
L 16.74652 42.434685 
L 17.255887 42.972142 
L 17.765255 43.509599 
L 18.274623 44.047056 
L 18.78399 44.584513 
L 19.293358 45.12197 
L 19.802725 45.659427 
L 20.312093 46.196884 
L 20.82146 46.734342 
L 21.330828 47.271799 
L 21.840195 47.809256 
L 22.349563 48.346713 
L 22.85893 48.88417 
L 23.368298 49.421627 
" style="fill:none;stroke:#008000;stroke-linecap:square;stroke-width:0.4;"/>
   </g>
   <g id="line2d_22">
    <path clip-path="url(#p7c3d52dbd6)" d="M 6.073513 31.796795 
L 6.227536 32.335698 
L 6.381559 32.8746 
L 6.535583 33.413502 
L 6.689606 33.952405 
L 6.84363 34.491307 
L 6.997653 35.03021 
L 7.151676 35.569112 
L 7.3057 36.108015 
L 7.743921 36.629207 
L 8.182143 37.1504 
L 8.620364 37.671593 
L 9.058585 38.192786 
L 9.141504 38.654702 
L 9.224423 39.116618 
L 9.307342 39.578535 
L 9.39026 40.040451 
L 9.473179 40.502367 
L 9.556098 40.964284 
L 9.639016 41.4262 
L 9.721935 41.888117 
L 9.929232 42.228663 
L 10.136528 42.569209 
L 10.343825 42.909755 
L 10.551122 43.250301 
L 10.758419 43.590848 
L 10.965715 43.931394 
L 11.173012 44.27194 
L 11.380309 44.612486 
L 11.587606 44.953033 
L 11.794902 45.293579 
L 12.002199 45.634125 
L 12.209496 45.974671 
L 12.416792 46.315218 
L 12.624089 46.655764 
L 12.831386 46.99631 
L 13.038683 47.336856 
L 13.263811 47.798773 
L 13.488939 48.260689 
L 13.714067 48.722605 
L 13.939195 49.184522 
" style="fill:none;stroke:#008000;stroke-linecap:square;stroke-width:0.4;"/>
   </g>
   <g id="line2d_23">
    <path clip-path="url(#p7c3d52dbd6)" d="M 4.699558 31.180321 
L 4.462615 31.885124 
L 4.225673 32.589927 
L 3.988731 33.29473 
L 3.751789 33.999533 
L 3.514847 34.704336 
L 3.277905 35.409139 
L 3.040963 36.113942 
L 2.804021 36.818745 
L 2.969858 37.53533 
L 3.135696 38.251916 
L 3.301533 38.968501 
L 3.46737 39.685086 
L 3.633208 40.401671 
L 3.799045 41.118256 
L 3.964883 41.834841 
L 4.13072 42.551426 
L 4.296557 43.268011 
L 4.462395 43.984596 
L 4.628232 44.701181 
L 4.794069 45.417766 
L 4.959907 46.134352 
L 5.125744 46.850937 
L 5.291582 47.567522 
L 5.457419 48.284107 
L 5.765466 48.592051 
L 6.073513 48.899995 
L 6.381559 49.20794 
L 6.689606 49.515884 
L 7.12054 49.521592 
L 7.551475 49.5273 
L 7.982409 49.533008 
L 8.413343 49.538716 
L 7.85113 49.510322 
L 7.288917 49.481928 
" style="fill:none;stroke:#008000;stroke-linecap:square;stroke-width:0.4;"/>
   </g>
   <g id="line2d_24">
    <path clip-path="url(#p7c3d52dbd6)" d="M 19.53041 53.519745 
L 19.850271 53.963878 
L 20.170132 54.408011 
L 20.489992 54.852145 
L 20.809853 55.296278 
L 21.129714 55.740412 
L 21.449575 56.184545 
L 21.769436 56.628679 
L 22.089296 57.072812 
L 22.717094 57.481453 
L 23.344891 57.890094 
L 23.972688 58.298735 
L 24.600485 58.707376 
L 25.228282 59.116017 
L 25.856079 59.524657 
L 26.483877 59.933298 
L 27.111674 60.341939 
L 27.165002 60.786073 
L 27.218331 61.230206 
L 27.271659 61.67434 
L 27.324988 62.118473 
L 27.378316 62.562606 
L 27.431645 63.00674 
L 27.484973 63.450873 
L 27.538302 63.895007 
L 27.526433 64.398344 
L 27.514564 64.90168 
L 27.502694 65.405017 
L 27.490825 65.908353 
L 27.478956 66.41169 
L 27.467087 66.915027 
L 27.455218 67.418363 
L 27.443349 67.9217 
L 27.934954 68.022397 
L 28.426559 68.123093 
L 28.918164 68.22379 
L 29.409769 68.324486 
L 29.901374 68.425183 
L 30.392979 68.52588 
L 30.884585 68.626576 
L 31.37619 68.727273 
L 31.864841 68.65325 
L 32.353493 68.579228 
L 32.842145 68.505206 
L 33.330796 68.431184 
L 33.819448 68.357162 
L 34.3081 68.283139 
L 34.796751 68.209117 
L 35.285403 68.135095 
L 35.774055 68.061073 
L 36.262706 67.98705 
L 36.751358 67.913028 
L 37.24001 67.839006 
L 37.728661 67.764984 
L 38.217313 67.690961 
L 38.705965 67.616939 
L 39.194616 67.542917 
" style="fill:none;stroke:#4169e1;stroke-linecap:square;stroke-width:0.4;"/>
   </g>
   <g id="line2d_25">
    <path clip-path="url(#p7c3d52dbd6)" d="M 24.079345 50.013512 
L 24.572427 50.545024 
L 25.065509 51.076535 
L 25.558591 51.608046 
L 26.051673 52.139557 
L 26.544754 52.671068 
L 27.037836 53.20258 
L 27.530918 53.734091 
L 28.024 54.265602 
L 28.517082 54.797113 
L 29.010164 55.328624 
L 29.503246 55.860135 
L 29.996328 56.391647 
L 30.48941 56.923158 
L 30.982492 57.454669 
L 31.475574 57.98618 
L 31.968655 58.517691 
L 32.461737 59.049203 
L 32.954819 59.580714 
L 33.447901 60.112225 
L 33.940983 60.643736 
L 34.434065 61.175247 
L 34.927147 61.706759 
L 35.420229 62.23827 
L 35.913311 62.769781 
L 36.406393 63.301292 
L 36.899474 63.832803 
L 37.392556 64.364315 
L 37.885638 64.895826 
L 38.37872 65.427337 
L 38.871802 65.958848 
L 39.364884 66.490359 
L 39.857966 67.02187 
" style="fill:none;stroke:#4169e1;stroke-linecap:square;stroke-width:0.4;"/>
   </g>
   <g id="line2d_26">
    <path clip-path="url(#p7c3d52dbd6)" d="M 27.632814 48.54463 
L 28.119975 49.015438 
L 28.607136 49.486246 
L 29.094297 49.957054 
L 29.581458 50.427861 
L 30.068619 50.898669 
L 30.555781 51.369477 
L 31.042942 51.840285 
L 31.530103 52.311093 
L 32.017264 52.7819 
L 32.504425 53.252708 
L 32.991586 53.723516 
L 33.478747 54.194324 
L 33.965908 54.665132 
L 34.453069 55.13594 
L 34.940231 55.606747 
L 35.427392 56.077555 
L 35.914553 56.548363 
L 36.401714 57.019171 
L 36.888875 57.489979 
L 37.376036 57.960787 
L 37.863197 58.431594 
L 38.350358 58.902402 
L 38.837519 59.37321 
L 39.324681 59.844018 
L 39.811842 60.314826 
L 40.299003 60.785633 
L 40.786164 61.256441 
L 41.273325 61.727249 
L 41.760486 62.198057 
L 42.247647 62.668865 
L 42.734808 63.139673 
L 43.221969 63.61048 
" style="fill:none;stroke:#4169e1;stroke-linecap:square;stroke-width:0.4;"/>
   </g>
   <g id="line2d_27">
    <path clip-path="url(#p7c3d52dbd6)" d="M 31.281236 47.123754 
L 31.820263 47.692295 
L 32.35929 48.260835 
L 32.898316 48.829376 
L 33.437343 49.397917 
L 33.97637 49.966457 
L 34.515396 50.534998 
L 35.054423 51.103538 
L 35.59345 51.672079 
L 36.096897 52.175452 
L 36.600343 52.678825 
L 37.10379 53.182199 
L 37.607237 53.685572 
L 38.110684 54.188945 
L 38.61413 54.692318 
L 39.117577 55.195692 
L 39.621024 55.699065 
L 40.12447 56.202438 
L 40.627917 56.705811 
L 41.131364 57.209184 
L 41.634811 57.712558 
L 42.138257 58.215931 
L 42.641704 58.719304 
L 43.145151 59.222677 
L 43.648598 59.726051 
" style="fill:none;stroke:#4169e1;stroke-linecap:square;stroke-width:0.4;"/>
   </g>
   <g id="line2d_28">
    <path clip-path="url(#p7c3d52dbd6)" d="M 37.772964 52.335389 
L 38.48368 52.323533 
L 39.194396 52.311678 
L 39.905111 52.299823 
L 40.615827 52.287968 
L 40.941595 52.572201 
L 41.267363 52.856435 
L 41.593131 53.140669 
L 41.918898 53.424902 
L 42.244666 53.709136 
L 42.570434 53.99337 
L 42.896202 54.277604 
L 43.221969 54.561837 
L 43.547737 54.846071 
L 43.873505 55.130305 
L 44.199273 55.414538 
L 44.525041 55.698772 
L 44.850808 55.983006 
L 45.176576 56.26724 
L 45.502344 56.551473 
L 45.828112 56.835707 
" style="fill:none;stroke:#4169e1;stroke-linecap:square;stroke-width:0.4;"/>
   </g>
   <g id="line2d_29">
    <path clip-path="url(#p7c3d52dbd6)" d="M 36.972705 47.475607 
L 37.459507 47.903421 
L 37.946309 48.331235 
L 38.433111 48.759049 
L 38.919914 49.186864 
L 39.432607 49.087265 
L 39.945301 48.987666 
L 40.457995 48.888067 
L 40.970688 48.788468 
L 41.483382 48.688869 
L 41.996076 48.58927 
L 42.508769 48.489671 
L 43.021463 48.390072 
L 43.534157 48.290474 
L 44.04685 48.190875 
L 44.559544 48.091276 
L 45.072238 47.991677 
L 45.584931 47.892078 
L 46.097625 47.792479 
L 46.610319 47.69288 
L 47.123012 47.593281 
L 47.255726 48.198193 
L 47.38844 48.803104 
L 47.521154 49.408016 
L 47.653869 50.012927 
L 47.410467 50.617692 
L 47.167066 51.222457 
L 46.923665 51.827222 
L 46.680264 52.431987 
L 46.436863 53.036752 
L 46.193462 53.641517 
L 45.950061 54.246282 
L 45.706659 54.851047 
L 45.854169 55.411611 
L 46.001678 55.972175 
L 46.149187 56.532739 
L 46.296696 57.093303 
" style="fill:none;stroke:#008000;stroke-linecap:square;stroke-width:0.4;"/>
   </g>
   <g id="line2d_30">
    <path clip-path="url(#p7c3d52dbd6)" d="M 34.435017 48.006606 
L 34.939375 48.485427 
L 35.443732 48.964248 
L 35.94809 49.443069 
L 36.452448 49.92189 
L 36.956805 50.400711 
L 37.461163 50.879532 
L 37.965521 51.358354 
L 38.469878 51.837175 
" style="fill:none;stroke:#008000;stroke-linecap:square;stroke-width:0.4;"/>
   </g>
   <g id="line2d_31">
    <path clip-path="url(#p7c3d52dbd6)" d="M 35.556352 47.239672 
L 36.183376 46.90037 
L 36.8104 46.561068 
L 37.437425 46.221766 
L 38.064449 45.882464 
L 38.691473 45.543162 
L 39.318498 45.203859 
L 39.945522 44.864557 
L 40.572546 44.525255 
L 41.19957 44.185953 
L 41.826595 43.846651 
L 42.453619 43.507349 
L 43.080643 43.168046 
L 43.707668 42.828744 
L 44.334692 42.489442 
L 44.961716 42.15014 
L 45.58874 41.810838 
" style="fill:none;stroke:#008000;stroke-linecap:square;stroke-width:0.4;"/>
   </g>
   <g id="line2d_32">
    <path clip-path="url(#p7c3d52dbd6)" d="M 27.412433 46.708673 
L 27.818139 46.664399 
L 28.223844 46.620125 
L 28.62955 46.575851 
L 29.035255 46.531576 
L 29.44096 46.487302 
L 29.846666 46.443028 
L 30.252371 46.398753 
L 30.658076 46.354479 
L 31.0417 46.546212 
L 31.425323 46.737946 
L 31.808946 46.929679 
L 32.192569 47.121412 
L 32.576192 47.313146 
L 32.959815 47.504879 
L 33.343438 47.696612 
L 33.727062 47.888346 
" style="fill:none;stroke:#008000;stroke-linecap:square;stroke-width:0.4;"/>
   </g>
   <g id="line2d_33">
    <path clip-path="url(#p7c3d52dbd6)" d="M 24.048872 48.714409 
L 24.727458 48.493257 
L 25.406044 48.272105 
L 26.08463 48.050953 
L 26.763217 47.829801 
" style="fill:none;stroke:#008000;stroke-linecap:square;stroke-width:0.4;"/>
   </g>
   <g id="line2d_34">
    <path clip-path="url(#p7c3d52dbd6)" d="M 8.413343 49.538716 
L 8.815157 49.52408 
L 9.21697 49.509444 
L 9.618783 49.494808 
L 10.020597 49.480172 
L 10.42241 49.465536 
L 10.824224 49.450899 
L 11.226037 49.436263 
L 11.62785 49.421627 
L 12.029664 49.406991 
L 12.431477 49.392355 
L 12.83329 49.377719 
L 13.235104 49.363083 
L 13.636917 49.348446 
L 14.038731 49.33381 
L 14.440544 49.319174 
L 14.842357 49.304538 
L 15.211241 49.673369 
L 15.580124 50.042199 
L 15.949007 50.41103 
L 16.31789 50.77986 
L 16.686774 51.148691 
L 17.055657 51.517521 
L 17.42454 51.886352 
L 17.793424 52.255183 
L 18.44253 52.314166 
L 19.091637 52.37315 
L 19.740743 52.432133 
L 20.38985 52.491117 
L 20.773418 52.196053 
L 21.156986 51.900988 
L 21.540554 51.605924 
L 21.924121 51.310859 
L 22.307689 51.015795 
L 22.691257 50.72073 
L 23.074825 50.425666 
L 23.458393 50.130601 
" style="fill:none;stroke:#008000;stroke-linecap:square;stroke-width:0.4;"/>
   </g>
  </g>
 </g>
 <defs>
  <clipPath id="p7c3d52dbd6">
   <rect height="72" width="61.688459" x="0" y="0"/>
  </clipPath>
 </defs>
</svg>
