<?xml version="1.0" encoding="utf-8" standalone="no"?>
<!DOCTYPE svg PUBLIC "-//W3C//DTD SVG 1.1//EN"
  "http://www.w3.org/Graphics/SVG/1.1/DTD/svg11.dtd">
<svg height="72pt" version="1.1" viewBox="0 0 128.062733 72" width="128.062733pt" xmlns="http://www.w3.org/2000/svg" xmlns:xlink="http://www.w3.org/1999/xlink">
 <metadata>
  <rdf:RDF xmlns:cc="http://creativecommons.org/ns#" xmlns:dc="http://purl.org/dc/elements/1.1/" xmlns:rdf="http://www.w3.org/1999/02/22-rdf-syntax-ns#">
   <cc:Work>
    <dc:type rdf:resource="http://purl.org/dc/dcmitype/StillImage"/>
    <dc:date>2022-04-19T00:51:44.967420</dc:date>
    <dc:format>image/svg+xml</dc:format>
    <dc:creator>
     <cc:Agent>
      <dc:title>Matplotlib v3.4.3, https://matplotlib.org/</dc:title>
     </cc:Agent>
    </dc:creator>
   </cc:Work>
  </rdf:RDF>
 </metadata>
 <defs>
  <style type="text/css">*{stroke-linecap:butt;stroke-linejoin:round;}</style>
 </defs>
 <g id="figure_1">
  <g id="patch_1">
   <path d="M 0 72 
L 128.062733 72 
L 128.062733 0 
L 0 0 
z
" style="fill:#ffffff;"/>
  </g>
  <g id="axes_1">
   <g id="line2d_1">
    <path clip-path="url(#p2632008459)" d="M 64.990573 52.071758 
L 63.978247 51.662193 
L 62.962212 51.251099 
L 61.946177 50.840005 
L 60.760846 50.360423 
L 59.575516 49.880842 
L 58.573258 49.475356 
L 57.571 49.06987 
L 56.745587 48.73593 
L 55.920174 48.401991 
L 55.022831 48.038991 
L 54.125488 47.675991 
L 52.926116 47.190801 
L 51.726744 46.705611 
L 50.649906 46.269876 
L 49.573068 45.83414 
L 48.272887 45.308163 
L 46.972707 44.782187 
L 45.77254 44.296488 
L 44.572374 43.810788 
L 43.733118 43.471326 
L 42.893863 43.131863 
L 42.054607 42.7924 
L 41.215351 42.452937 
L 40.415373 42.129194 
L 39.615394 41.805451 
L 38.629429 41.406593 
L 37.643465 41.007735 
L 36.291356 40.460686 
L 34.939248 39.913636 
L 34.181792 39.607058 
L 33.424336 39.300479 
L 32.594486 38.964755 
L 31.764635 38.629031 
L 30.934785 38.293307 
L 30.104935 37.957583 
L 28.898542 37.469504 
L 27.692149 36.981426 
L 26.813087 36.625733 
L 25.934024 36.270041 
L 24.699151 35.770406 
L 24.159738 35.552198 
L 22.794251 34.999881 
L 21.75808 34.580459 
" style="fill:none;stroke:#808080;stroke-linecap:square;stroke-width:0.592883;"/>
   </g>
   <g id="line2d_2">
    <path clip-path="url(#p2632008459)" d="M 64.442152 51.070109 
L 63.253908 50.574553 
L 62.394981 50.216311 
L 61.536053 49.85807 
L 60.691168 49.505776 
L 59.846282 49.153482 
L 58.924433 48.7689 
L 58.002583 48.384317 
L 56.75327 47.863439 
L 55.503958 47.342561 
L 54.402878 46.883033 
L 53.623697 46.5581 
L 52.916843 46.263333 
L 52.20999 45.968565 
L 51.503137 45.673798 
L 50.796284 45.37903 
L 49.701033 44.922221 
L 48.605781 44.465412 
L 47.66777 44.074201 
L 46.729759 43.682991 
L 46.142393 43.437932 
L 45.302409 43.096514 
L 44.462425 42.755097 
L 43.464803 42.339924 
L 42.467181 41.924752 
L 42.290203 41.850996 
L 41.52407 41.532181 
L 40.757937 41.213367 
L 39.991804 40.894552 
L 39.225671 40.575738 
L 38.110417 40.111621 
L 36.995163 39.647504 
L 35.69326 39.105723 
L 34.391358 38.563943 
L 33.170393 38.055641 
L 31.949429 37.547339 
L 31.721848 37.45285 
L 30.748203 37.047534 
L 29.774558 36.642218 
L 28.92742 36.289754 
L 28.080283 35.937291 
L 27.020798 35.496286 
L 25.961313 35.055282 
L 25.821161 34.996822 
L 25.061056 34.680556 
L 24.30095 34.364291 
L 23.548793 34.051254 
L 22.796635 33.738218 
" style="fill:none;stroke:#808080;stroke-linecap:square;stroke-width:0.592883;"/>
   </g>
   <g id="line2d_3">
    <path clip-path="url(#p2632008459)" d="M 69.181883 47.567227 
L 70.364299 46.684538 
L 71.251309 46.022437 
L 72.13832 45.360336 
L 73.274372 44.512316 
L 74.410424 43.664297 
L 75.59986 42.77651 
L 76.789297 41.888724 
L 77.747311 41.1736 
" style="fill:none;stroke:#808080;stroke-linecap:square;stroke-width:0.592883;"/>
   </g>
   <g id="line2d_4">
    <path clip-path="url(#p2632008459)" d="M 70.546311 44.973884 
L 70.603537 43.934337 
L 70.660764 42.894791 
L 70.722362 41.774691 
L 70.78396 40.654592 
L 70.85589 39.346364 
L 70.927821 38.038136 
L 70.981471 37.061639 
L 71.035121 36.085142 
L 71.094467 35.007698 
L 71.156462 33.88199 
L 71.205343 32.997093 
L 71.254224 32.112195 
" style="fill:none;stroke:#808080;stroke-linecap:square;stroke-width:0.592883;"/>
   </g>
   <g id="line2d_5">
    <path clip-path="url(#p2632008459)" d="M 68.429461 45.940184 
L 68.430785 45.309013 
L 68.432905 44.223582 
L 68.435024 43.138151 
L 68.436747 42.237958 
L 68.438469 41.337766 
L 68.441383 39.854836 
L 68.439926 38.678995 
L 68.438469 37.503153 
L 68.441648 36.54467 
L 68.444032 35.755621 
L 68.446417 34.966572 
L 68.448801 34.177522 
L 68.451186 33.388473 
L 68.45569 31.919819 
L 68.458869 30.880442 
L 68.460657 29.967419 
L 68.462445 29.054396 
L 68.464234 28.141372 
L 68.466022 27.228349 
L 68.468274 26.092445 
L 68.470526 24.95654 
L 68.471851 24.182956 
L 68.474368 22.938117 
L 68.476885 21.693279 
L 68.479401 20.378763 
L 68.481918 19.064248 
L 68.484038 17.952305 
L 68.486157 16.840363 
L 68.488409 15.781783 
L 68.490661 14.723203 
" style="fill:none;stroke:#808080;stroke-linecap:square;stroke-width:0.592883;"/>
   </g>
   <g id="line2d_6">
    <path clip-path="url(#p2632008459)" d="M 67.617163 13.569624 
L 67.010588 13.06846 
L 66.404014 12.567295 
L 65.340952 11.688346 
L 64.277891 10.809396 
L 63.201318 9.9194 
L 62.124744 9.029405 
L 61.535656 8.542346 
L 60.946568 8.055287 
L 60.357479 7.568227 
L 59.768391 7.081168 
L 58.698706 6.196611 
L 57.629021 5.312053 
L 56.503037 4.380421 
" style="fill:none;stroke:#808080;stroke-linecap:square;stroke-width:0.592883;"/>
   </g>
   <g id="line2d_7">
    <path clip-path="url(#p2632008459)" d="M 39.167915 7.237857 
L 38.314021 8.384298 
L 37.672475 9.246423 
L 37.030929 10.108548 
L 36.344741 11.030493 
L 35.658553 11.952438 
L 34.979651 12.864867 
L 34.300749 13.777295 
L 33.545412 14.79237 
L 32.790076 15.807444 
L 32.171314 16.638809 
L 31.552553 17.470175 
L 31.095933 18.083672 
L 30.639313 18.697169 
L 30.182694 19.310666 
L 29.726074 19.924164 
L 29.0428 20.84237 
L 28.359527 21.760577 
L 27.5108 22.90107 
L 26.662073 24.041563 
L 25.79586 25.205508 
L 24.929647 26.369453 
L 24.120395 27.456754 
L 23.311144 28.544054 
L 22.594753 29.506616 
L 21.878362 30.469178 
L 21.056526 31.573473 
L 20.23469 32.677768 
" style="fill:none;stroke:#808080;stroke-linecap:square;stroke-width:0.592883;"/>
   </g>
   <g id="line2d_8">
    <path clip-path="url(#p2632008459)" d="M 116.099655 52.12682 
L 115.588723 51.475765 
L 115.077792 50.82471 
L 114.308678 49.844814 
L 113.67455 49.036731 
L 113.040423 48.228648 
L 112.283894 47.264727 
L 111.527365 46.300805 
L 110.813491 45.391096 
L 110.099617 44.481387 
L 109.348122 43.523923 
L 108.596627 42.56646 
L 107.820228 41.577217 
L 107.043828 40.587974 
L 106.269946 39.60179 
L 105.496064 38.615605 
L 104.706153 37.608858 
L 103.916242 36.602111 
L 103.092286 35.552368 
L 102.268331 34.502625 
L 101.605325 33.657664 
L 100.942319 32.812703 
L 100.453178 32.18935 
L 99.964038 31.565996 
L 99.474897 30.942642 
L 98.985756 30.319288 
L 98.491714 29.689731 
L 97.997672 29.060174 
L 97.50363 28.430617 
L 97.009588 27.80106 
L 96.470307 27.113892 
L 95.931027 26.426724 
L 95.391747 25.739556 
L 94.852467 25.052388 
L 94.297026 24.344572 
L 93.741584 23.636756 
L 93.186143 22.92894 
L 92.630702 22.221124 
L 91.809528 21.17461 
L 90.988354 20.128096 
L 90.317533 19.273279 
L 89.646711 18.418461 
L 89.540206 18.282846 
L 88.951515 17.532374 
L 88.532914 16.99909 
" style="fill:none;stroke:#808080;stroke-linecap:square;stroke-width:0.592883;"/>
   </g>
   <g id="line2d_9">
    <path clip-path="url(#p2632008459)" d="M 114.507381 53.704238 
L 113.735089 52.696471 
L 113.157128 51.942261 
L 112.579167 51.18805 
L 111.97544 50.400275 
L 111.371714 49.612501 
L 110.767988 48.824726 
L 110.164262 48.036951 
L 109.434359 47.084416 
L 108.704456 46.131881 
L 107.926865 45.117147 
L 107.149274 44.102412 
L 106.359892 43.072212 
L 105.570511 42.042013 
L 104.805504 41.043763 
L 104.040498 40.045513 
L 103.295626 39.073264 
L 102.550754 38.101016 
L 101.888543 37.237021 
L 101.226332 36.373027 
L 100.67811 35.657478 
L 100.129888 34.94193 
L 99.581667 34.226381 
L 99.033445 33.510833 
L 98.522977 32.844738 
L 98.012508 32.178643 
L 97.50204 31.512548 
L 96.991572 30.846453 
L 96.488555 30.18996 
L 95.985538 29.533467 
L 95.482521 28.876974 
L 94.979504 28.220481 
L 94.476488 27.563988 
L 93.973471 26.907495 
L 93.470454 26.251002 
L 92.967437 25.594509 
L 92.410472 24.86766 
L 91.853508 24.14081 
L 91.296543 23.41396 
L 90.739578 22.68711 
L 89.841705 21.515178 
L 88.923829 20.317414 
L 88.005954 19.119649 
L 87.302015 18.200933 
L 86.564959 17.238881 
L 85.827903 16.276829 
" style="fill:none;stroke:#808080;stroke-linecap:square;stroke-width:0.592883;"/>
   </g>
   <g id="line2d_10">
    <path clip-path="url(#p2632008459)" d="M 66.841956 51.527258 
L 66.469454 51.324685 
L 66.218293 51.18703 
" style="fill:none;stroke:#808080;stroke-linecap:square;stroke-width:0.592883;"/>
   </g>
   <g id="line2d_11">
    <path clip-path="url(#p2632008459)" d="M 64.807236 48.008741 
L 64.072829 47.58728 
L 63.338423 47.165819 
" style="fill:none;stroke:#808080;stroke-linecap:square;stroke-width:0.592883;"/>
   </g>
   <g id="line2d_12">
    <path clip-path="url(#p2632008459)" d="M 72.321922 48.432921 
L 73.302058 48.029134 
L 74.282194 47.625347 
L 75.26233 47.221561 
L 76.242466 46.817774 
" style="fill:none;stroke:#808080;stroke-linecap:square;stroke-width:0.592883;"/>
   </g>
   <g id="line2d_13">
    <path clip-path="url(#p2632008459)" d="M 76.274788 46.311342 
L 77.06099 45.98301 
L 77.847192 45.654679 
" style="fill:none;stroke:#808080;stroke-linecap:square;stroke-width:0.592883;"/>
   </g>
   <g id="line2d_14">
    <path clip-path="url(#p2632008459)" d="M 22.499375 34.182791 
L 23.508522 34.338799 
L 24.456998 33.91326 
L 24.780222 33.70083 
L 25.753867 32.379177 
L 26.688434 31.639581 
L 27.821704 30.858689 
L 28.923181 30.446406 
L 29.616059 30.339766 
L 32.952482 30.147984 
L 36.299404 29.188864 
L 39.063794 28.130071 
L 40.136791 27.352153 
L 41.302185 26.232988 
L 42.133558 25.014236 
L 43.618731 22.431515 
L 45.281611 20.726128 
L 46.047413 19.993331 
L 46.219755 19.815399 
L 46.887927 17.257405 
L 47.086895 16.972919 
L 48.604059 16.894915 
L 50.348573 16.949934 
L 54.550994 16.349459 
L 61.313506 15.068868 
L 62.03811 15.068868 
L 62.862595 15.751023 
L 64.07071 21.975386 
L 63.177043 25.290097 
L 62.322487 27.32407 
L 60.457178 30.84042 
L 58.506427 33.727936 
L 56.946708 36.77078 
L 55.834467 38.708565 
L 54.656787 41.303777 
L 53.635155 43.934422 
L 53.368628 44.438901 
L 52.235292 45.870423 
L 52.152665 46.867143 
L 52.394917 48.621218 
L 52.394917 48.621218 
" style="fill:none;stroke:#4169e1;stroke-linecap:square;stroke-width:0.592883;"/>
   </g>
   <g id="line2d_15">
    <path clip-path="url(#p2632008459)" d="M 22.613298 35.148751 
L 22.488778 35.440715 
L 22.364257 35.732678 
L 22.112037 36.094489 
L 21.859816 36.456299 
L 21.694562 36.751492 
L 21.529307 37.046684 
L 21.364052 37.341876 
L 21.198797 37.637069 
L 21.152599 37.878644 
L 21.106401 38.120219 
L 21.060202 38.361794 
L 21.014004 38.60337 
L 20.967805 38.844945 
L 20.921607 39.08652 
L 20.875408 39.328095 
L 20.82921 39.56967 
L 20.697768 39.807676 
L 20.566326 40.045683 
L 20.434883 40.283689 
L 20.303441 40.521695 
L 20.171999 40.759702 
L 20.040557 40.997708 
L 19.909115 41.235714 
L 19.777673 41.473721 
L 19.681733 41.693968 
L 19.585792 41.914215 
L 19.489852 42.134462 
L 19.393911 42.35471 
L 19.297971 42.574957 
L 19.20203 42.795204 
L 19.10609 43.015451 
L 19.010149 43.235698 
L 18.953287 43.459514 
L 18.896425 43.68333 
L 18.839563 43.907146 
L 18.7827 44.130962 
L 18.725838 44.354779 
L 18.668976 44.578595 
L 18.612114 44.802411 
L 18.555252 45.026227 
L 18.654736 45.466721 
L 18.75422 45.907215 
L 18.892782 46.102608 
L 19.031344 46.298001 
L 19.169907 46.493394 
L 19.308469 46.688787 
L 19.447031 46.88418 
L 19.585593 47.079573 
L 19.724156 47.274966 
L 19.862718 47.470359 
L 20.071522 47.695789 
L 20.280326 47.92122 
L 20.489129 48.14665 
L 20.697933 48.372081 
L 20.906737 48.597511 
L 21.115541 48.822942 
L 21.324345 49.048372 
L 21.533149 49.273803 
" style="fill:none;stroke:#000000;stroke-linecap:square;stroke-width:0.592883;"/>
   </g>
   <g id="line2d_16">
    <path clip-path="url(#p2632008459)" d="M 21.533149 49.273803 
L 21.644952 49.56891 
L 21.756756 49.864018 
L 21.868559 50.159125 
L 21.980363 50.454232 
L 22.182908 50.781119 
L 22.385452 51.108006 
L 22.587997 51.434893 
L 22.790542 51.76178 
L 23.081907 52.095635 
L 23.373272 52.42949 
L 23.664637 52.763344 
L 23.956001 53.097199 
L 24.154969 53.239357 
L 24.353938 53.381515 
L 24.552906 53.523673 
L 24.751874 53.665831 
L 25.036151 53.751058 
L 25.320429 53.836285 
L 25.604707 53.921511 
L 25.888985 54.006738 
L 26.301095 54.205742 
L 26.713205 54.404747 
L 26.954828 54.596528 
L 27.196451 54.78831 
L 27.438074 54.980092 
L 27.679697 55.171873 
L 27.935527 55.434734 
L 28.191358 55.697594 
L 28.447188 55.960455 
L 28.703018 56.223316 
L 28.958848 56.486176 
L 29.214679 56.749037 
L 29.470509 57.011897 
L 29.726339 57.274758 
L 30.017638 57.558989 
L 30.308936 57.84322 
L 30.600235 58.127451 
L 30.891534 58.411682 
L 31.12607 58.653172 
L 31.360606 58.894663 
L 31.595142 59.136153 
L 31.829677 59.377643 
L 32.14237 59.505526 
L 32.455062 59.633409 
L 32.767755 59.761291 
L 33.080447 59.889174 
L 33.47123 59.94602 
L 33.862013 60.002866 
L 34.252795 60.059713 
L 34.643578 60.116559 
L 35.077082 60.180543 
L 35.510586 60.244527 
L 35.94409 60.30851 
L 36.377594 60.372494 
L 36.77553 60.500377 
L 37.173466 60.62826 
L 37.571402 60.756142 
L 37.969338 60.884025 
L 38.232288 60.940871 
L 38.495239 60.997718 
L 38.758189 61.054564 
L 39.021139 61.11141 
L 39.312504 61.104272 
L 39.603869 61.097135 
L 39.895234 61.089997 
L 40.186599 61.082859 
L 40.52764 61.011823 
L 40.868681 60.940786 
L 41.209721 60.86975 
L 41.550762 60.798713 
L 41.813713 60.798713 
L 42.076663 60.798713 
L 42.339613 60.798713 
L 42.602564 60.798713 
L 42.832662 60.803897 
L 43.06276 60.80908 
L 43.292858 60.814263 
L 43.522956 60.819446 
L 43.753055 60.82463 
L 43.983153 60.829813 
L 44.213251 60.834996 
L 44.443349 60.84018 
L 44.80575 60.76379 
L 45.168152 60.6874 
L 45.530553 60.61101 
L 45.892954 60.534621 
L 46.255356 60.458231 
L 46.617757 60.381841 
L 46.980158 60.305451 
L 47.34256 60.229062 
L 47.577857 60.215296 
L 47.813155 60.201531 
L 48.048452 60.187765 
L 48.28375 60.174 
L 48.519047 60.160234 
L 48.754345 60.146469 
L 48.989643 60.132703 
L 49.22494 60.118938 
L 49.464973 60.103813 
L 49.705007 60.088688 
L 49.94504 60.073563 
L 50.185073 60.058438 
L 50.416695 60.030567 
L 50.648317 60.002696 
L 50.879938 59.974826 
L 51.11156 59.946955 
" style="fill:none;stroke:#000000;stroke-linecap:square;stroke-width:0.592883;"/>
   </g>
   <g id="line2d_17">
    <path clip-path="url(#p2632008459)" d="M 51.11156 59.946955 
L 51.499892 59.911267 
L 51.888224 59.875578 
L 52.276556 59.83989 
L 52.664888 59.804202 
L 52.892271 59.772168 
L 53.119653 59.740133 
L 53.347036 59.708099 
L 53.574418 59.676064 
L 53.993682 59.562372 
L 54.412945 59.44868 
" style="fill:none;stroke:#008000;stroke-linecap:square;stroke-width:0.592883;"/>
   </g>
   <g id="line2d_18">
    <path clip-path="url(#p2632008459)" d="M 24.837183 38.830754 
L 25.292081 38.830754 
L 25.572915 38.808662 
L 25.853748 38.786569 
L 26.169819 38.709075 
L 26.485889 38.63158 
L 26.727446 38.610252 
L 26.969003 38.588924 
L 27.210559 38.567596 
L 27.452116 38.546268 
L 27.878533 38.588924 
L 28.30495 38.63158 
L 28.702886 38.830584 
L 29.100822 39.029589 
L 29.399274 39.228593 
L 29.697726 39.427597 
L 29.918021 39.498634 
L 30.138317 39.56967 
L 30.358612 39.640707 
L 30.578908 39.711743 
L 30.955516 39.79697 
L 31.332125 39.882197 
L 31.708733 39.967424 
L 32.085342 40.05265 
L 32.390947 40.116634 
L 32.696553 40.180618 
L 33.002158 40.244602 
L 33.307763 40.308586 
L 33.599128 40.479125 
L 33.890493 40.649663 
L 34.181858 40.820202 
L 34.473223 40.99074 
L 34.679278 41.125676 
L 34.885333 41.260611 
L 35.091389 41.395547 
L 35.297444 41.530482 
L 35.553241 41.800523 
L 35.809038 42.070564 
L 36.064835 42.340604 
L 36.320632 42.610645 
L 36.491186 42.781099 
L 36.661739 42.951552 
L 36.832292 43.122006 
L 37.002846 43.29246 
L 37.123657 43.505654 
L 37.244469 43.718849 
L 37.36528 43.932043 
L 37.486092 44.145238 
L 37.599816 44.429469 
L 37.713541 44.7137 
L 37.827265 44.997931 
L 37.940989 45.282162 
L 37.948077 45.701328 
L 37.955164 46.120495 
L 37.962251 46.539661 
L 37.969338 46.958828 
L 37.94801 47.257249 
L 37.926683 47.555671 
L 37.905355 47.854092 
L 37.884028 48.152513 
L 37.876941 48.593008 
L 37.869854 49.033502 
L 37.862767 49.473996 
L 37.85568 49.914491 
L 37.827265 50.205775 
L 37.798851 50.497058 
L 37.770436 50.788342 
L 37.742021 51.079626 
L 37.713541 51.52012 
L 37.68506 51.960615 
L 37.791697 52.393971 
L 37.898335 52.827328 
L 38.004972 53.260685 
L 38.111609 53.694042 
L 38.246595 54.120346 
L 38.38158 54.54665 
L 38.516566 54.972954 
L 38.651552 55.399258 
L 38.807865 55.690542 
L 38.964178 55.981825 
L 39.120491 56.273109 
L 39.276804 56.564393 
L 39.461598 56.756259 
L 39.646392 56.948126 
L 39.831186 57.139993 
L 40.01598 57.331859 
L 40.300191 57.473932 
L 40.584403 57.616005 
L 40.868614 57.758078 
L 41.152826 57.900151 
L 41.515261 57.94986 
L 41.877695 57.999569 
L 42.240129 58.049277 
L 42.602564 58.098986 
L 42.979172 58.098986 
L 43.355781 58.098986 
L 43.73239 58.098986 
L 44.108998 58.098986 
L 44.443018 58.084795 
L 44.777038 58.070605 
L 45.111058 58.056415 
L 45.445078 58.042224 
L 45.857188 58.05633 
L 46.269298 58.070435 
L 46.667234 58.269439 
L 47.06517 58.468444 
L 47.406277 58.766865 
L 47.747384 59.065286 
L 48.070873 59.320372 
L 48.394361 59.575458 
L 48.602006 59.711328 
L 48.809651 59.847198 
L 49.017295 59.983068 
L 49.22494 60.118938 
" style="fill:none;stroke:#ff0000;stroke-linecap:square;stroke-width:0.592883;"/>
   </g>
   <g id="line2d_19">
    <path clip-path="url(#p2632008459)" d="M 31.318083 30.332883 
L 31.428297 30.566726 
L 31.538511 30.800569 
L 31.772716 31.10001 
L 31.98599 31.291876 
L 32.199265 31.483743 
L 32.433735 31.554779 
L 32.668204 31.625816 
L 33.058987 31.661334 
L 33.44977 31.696852 
L 33.805051 31.938512 
L 33.947322 32.236934 
L 33.954343 32.556768 
L 33.961364 32.876602 
L 33.890361 33.139505 
L 33.819358 33.402409 
L 33.705699 33.842903 
L 33.592041 34.283397 
L 33.464076 34.5463 
L 33.336112 34.809204 
L 33.332535 35.050779 
L 33.328958 35.292354 
L 33.325382 35.533929 
L 33.321805 35.775504 
L 33.44977 35.974423 
L 33.577735 36.173343 
L 33.705699 36.372262 
L 33.833664 36.571181 
L 33.982824 36.763048 
L 34.131984 36.954914 
L 34.480244 37.11823 
L 34.828504 37.281546 
L 35.254789 37.302959 
L 35.681073 37.324372 
L 35.979525 37.352753 
L 36.277977 37.381133 
L 36.508075 37.546191 
L 36.738173 37.711249 
L 36.968272 37.876307 
L 37.19837 38.041365 
L 37.428468 38.206423 
L 37.658566 38.371481 
L 37.888664 38.536539 
L 38.118762 38.701597 
L 38.29998 38.921844 
L 38.481197 39.142091 
L 38.662414 39.362339 
L 38.843631 39.582586 
L 39.024849 39.802833 
L 39.206066 40.02308 
L 39.387283 40.243327 
L 39.5685 40.463575 
" style="fill:none;stroke:#000000;stroke-linecap:square;stroke-width:0.592883;"/>
   </g>
   <g id="line2d_20">
    <path clip-path="url(#p2632008459)" d="M 39.696465 40.634198 
L 39.902553 40.783409 
L 40.108641 40.93262 
L 40.31473 41.08183 
L 40.520818 41.231041 
L 40.726906 41.380252 
L 40.932994 41.529462 
L 41.139082 41.678673 
L 41.345171 41.827884 
L 41.502394 41.997509 
L 41.659618 42.167134 
L 41.816842 42.336759 
L 41.974066 42.506384 
L 42.13129 42.67601 
L 42.288514 42.845635 
L 42.445737 43.01526 
L 42.602961 43.184885 
L 42.760185 43.35451 
L 42.917409 43.524136 
L 43.074633 43.693761 
L 43.231856 43.863386 
L 43.38908 44.033011 
L 43.546304 44.202636 
L 43.703528 44.372261 
L 43.860752 44.541887 
L 44.084591 44.731926 
L 44.30843 44.921966 
L 44.532269 45.112006 
L 44.756108 45.302045 
L 44.979947 45.492085 
L 45.203786 45.682125 
L 45.427625 45.872164 
L 45.651464 46.062204 
L 46.013898 46.119135 
L 46.376333 46.176067 
L 46.646337 45.989553 
L 46.916342 45.80304 
L 47.186346 45.616526 
L 47.45635 45.430013 
L 47.726355 45.2435 
L 47.996359 45.056986 
L 48.266363 44.870473 
L 48.536368 44.68396 
L 48.753997 44.7701 
L 48.971627 44.85624 
L 49.189256 44.942381 
L 49.406886 45.028521 
L 49.624516 45.114661 
L 49.842145 45.200801 
L 50.059775 45.286942 
L 50.277404 45.373082 
L 50.495034 45.459222 
L 50.712663 45.545362 
L 50.930293 45.631503 
L 51.147922 45.717643 
L 51.365552 45.803783 
L 51.583181 45.889924 
L 51.800811 45.976064 
L 52.018441 46.062204 
L 52.286706 46.20432 
L 52.554972 46.346435 
L 52.823238 46.488551 
L 53.091503 46.630666 
L 53.359769 46.772782 
L 53.628035 46.914897 
L 53.896301 47.057013 
L 54.164566 47.199128 
L 54.432832 47.341244 
L 54.701098 47.483359 
L 54.969364 47.625475 
L 55.237629 47.76759 
L 55.505895 47.909706 
L 55.774161 48.051822 
L 56.042426 48.193937 
L 56.310692 48.336053 
L 56.618036 48.5252 
L 56.92538 48.714348 
L 57.232724 48.903495 
L 57.540068 49.092643 
L 57.847412 49.28179 
L 58.154756 49.470937 
L 58.4621 49.660085 
L 58.769444 49.849232 
L 59.076788 50.03838 
L 59.384132 50.227527 
L 59.691476 50.416675 
L 59.99882 50.605822 
L 60.306164 50.79497 
L 60.613508 50.984117 
L 60.920852 51.173265 
L 61.228196 51.362412 
" style="fill:none;stroke:#000000;stroke-linecap:square;stroke-width:0.592883;"/>
   </g>
   <g id="line2d_21">
    <path clip-path="url(#p2632008459)" d="M 22.740998 31.752594 
L 22.943543 31.635375 
L 23.146088 31.518156 
L 23.348632 31.400938 
L 23.551177 31.283719 
L 23.753722 31.1665 
L 23.956266 31.049281 
L 24.158811 30.932063 
L 24.361356 30.814844 
L 24.588738 30.701151 
L 24.816121 30.587459 
L 25.043503 30.473767 
L 25.270886 30.360074 
L 25.498269 30.246382 
L 25.725651 30.132689 
L 25.953034 30.018997 
L 26.180416 29.905304 
L 26.535764 29.67792 
L 26.891111 29.450535 
L 27.246458 29.22315 
L 27.601806 28.995765 
L 27.811437 28.859003 
L 28.021069 28.722241 
L 28.230701 28.585478 
L 28.440333 28.448716 
L 28.649964 28.311954 
L 28.859596 28.175191 
L 29.069228 28.038429 
L 29.27886 27.901667 
L 29.568436 27.764862 
L 29.858013 27.628057 
L 30.14759 27.491252 
L 30.437166 27.354448 
L 30.726743 27.217643 
L 31.016319 27.080838 
L 31.305896 26.944033 
L 31.595473 26.807228 
L 31.908099 26.778848 
L 32.220725 26.750467 
L 32.533351 26.722087 
L 32.845977 26.693706 
L 33.219076 26.576445 
L 33.592174 26.459184 
L 33.965272 26.341922 
L 34.33837 26.224661 
L 34.597744 26.006156 
L 34.857118 25.78765 
L 35.116491 25.569145 
L 35.375865 25.35064 
L 35.635239 25.132135 
L 35.894613 24.913629 
L 36.153986 24.695124 
L 36.41336 24.476619 
L 36.7136 24.24745 
L 37.013841 24.01828 
L 37.314081 23.789111 
L 37.614322 23.559942 
L 37.914562 23.330773 
L 38.214802 23.101603 
L 38.515043 22.872434 
L 38.815283 22.643265 
L 39.131519 22.373267 
L 39.447755 22.103268 
L 39.763991 21.83327 
L 40.080227 21.563272 
L 40.396463 21.293273 
L 40.712699 21.023275 
L 41.028935 20.753277 
L 41.345171 20.483279 
" style="fill:none;stroke:#4169e1;stroke-linecap:square;stroke-width:0.592883;"/>
   </g>
   <g id="line2d_22">
    <path clip-path="url(#p2632008459)" d="M 41.472871 20.554315 
L 41.762447 20.69112 
L 42.052024 20.827925 
L 42.3416 20.96473 
L 42.631177 21.101534 
L 42.920754 21.238339 
L 43.21033 21.375144 
L 43.499907 21.511949 
L 43.789484 21.648753 
" style="fill:none;stroke:#008000;stroke-linecap:square;stroke-width:0.592883;"/>
   </g>
   <g id="line2d_23">
    <path clip-path="url(#p2632008459)" d="M 41.444522 20.397967 
L 41.591993 20.209669 
L 41.739464 20.021371 
L 41.886935 19.833074 
L 42.034405 19.644776 
L 42.181876 19.456478 
L 42.329347 19.26818 
L 42.476818 19.079883 
L 42.624289 18.891585 
L 42.975993 18.603785 
L 43.327698 18.315985 
L 43.679402 18.028185 
L 44.031106 17.740385 
L 44.238983 17.607149 
L 44.44686 17.473913 
L 44.654736 17.340677 
L 44.862613 17.207441 
L 45.070489 17.074206 
L 45.278366 16.94097 
L 45.486242 16.807734 
L 45.694119 16.674498 
L 45.928588 16.617651 
L 46.163058 16.560805 
L 46.397528 16.503959 
L 46.631997 16.447113 
L 46.816924 16.5467 
" style="fill:none;stroke:#4169e1;stroke-linecap:square;stroke-width:0.592883;"/>
   </g>
   <g id="line2d_24">
    <path clip-path="url(#p2632008459)" d="M 49.574128 17.541551 
L 49.723354 17.77072 
L 49.87258 17.99989 
L 50.021806 18.229059 
L 50.171032 18.458228 
L 50.320258 18.687397 
L 50.469484 18.916567 
L 50.61871 19.145736 
L 50.767936 19.374905 
L 51.055724 19.68399 
L 51.343512 19.993076 
L 51.631301 20.302161 
L 51.919089 20.611246 
L 52.206877 20.920332 
L 52.494666 21.229417 
L 52.782454 21.538502 
L 53.070242 21.847588 
L 53.352699 22.130034 
L 53.635155 22.412481 
L 53.917612 22.694928 
L 54.200068 22.977374 
L 54.482524 23.259821 
L 54.764981 23.542268 
L 55.047437 23.824714 
L 55.329894 24.107161 
L 55.41517 24.389608 
L 55.500447 24.672054 
L 55.585724 24.954501 
L 55.671001 25.236947 
L 55.756277 25.519394 
L 55.841554 25.801841 
L 55.926831 26.084287 
L 56.012108 26.366734 
L 56.097384 26.649181 
L 56.182661 26.931627 
L 56.267938 27.214074 
L 56.353215 27.496521 
L 56.438491 27.778967 
L 56.523768 28.061414 
L 56.609045 28.343861 
L 56.694322 28.626307 
L 56.811589 28.990454 
L 56.928857 29.354601 
L 57.046125 29.718749 
L 57.163393 30.082896 
L 57.280661 30.447043 
L 57.397929 30.81119 
L 57.515197 31.175337 
L 57.632465 31.539484 
L 57.698203 31.829026 
L 57.76394 32.118568 
L 57.829678 32.40811 
L 57.895415 32.697652 
L 57.961153 32.987193 
L 58.026891 33.276735 
L 58.092628 33.566277 
L 58.158366 33.855819 
" style="fill:none;stroke:#000000;stroke-linecap:square;stroke-width:0.592883;"/>
   </g>
   <g id="line2d_25">
    <path clip-path="url(#p2632008459)" d="M 56.964293 16.660562 
L 57.053146 16.960768 
L 57.142 17.260974 
L 57.230853 17.56118 
L 57.319706 17.861385 
L 57.40856 18.161591 
L 57.497413 18.461797 
L 57.586267 18.762003 
L 57.67512 19.062208 
L 57.815471 19.426356 
L 57.955821 19.790503 
L 58.096172 20.15465 
L 58.236522 20.518797 
L 58.376873 20.882944 
L 58.517224 21.247091 
L 58.657574 21.611238 
L 58.797925 21.975386 
L 59.051967 22.18858 
L 59.306009 22.401775 
L 59.560051 22.614969 
L 59.814092 22.828164 
L 60.068134 23.041358 
L 60.322176 23.254553 
L 60.576218 23.467747 
L 60.83026 23.680942 
L 61.045224 23.782186 
L 61.260187 23.88343 
L 61.475151 23.984674 
L 61.690114 24.085918 
L 61.905078 24.187162 
L 62.120042 24.288406 
L 62.335005 24.38965 
L 62.549969 24.490894 
" style="fill:none;stroke:#000000;stroke-linecap:square;stroke-width:0.592883;"/>
   </g>
   <g id="line2d_26">
    <path clip-path="url(#p2632008459)" d="M 58.655653 16.120481 
L 58.950595 16.433092 
L 59.245537 16.745704 
L 59.540478 17.058316 
L 59.83542 17.370927 
L 60.178282 17.514827 
L 60.521144 17.658727 
L 60.864006 17.802627 
L 61.206869 17.946527 
L 61.549731 18.090427 
L 61.892593 18.234327 
L 62.235455 18.378227 
L 62.578317 18.522127 
" style="fill:none;stroke:#4169e1;stroke-linecap:square;stroke-width:0.592883;"/>
   </g>
   <g id="line2d_27">
    <path clip-path="url(#p2632008459)" d="M 65.88977 14.414924 
L 65.63394 14.752475 
L 65.37811 15.090026 
L 65.12228 15.427577 
L 64.86645 15.765128 
L 64.610619 16.102679 
L 64.354789 16.44023 
L 64.098959 16.777781 
L 63.843129 17.115332 
" style="fill:none;stroke:#008000;stroke-linecap:square;stroke-width:0.592883;"/>
   </g>
   <g id="line2d_28">
    <path clip-path="url(#p2632008459)" d="M 67.637828 14.45775 
L 67.569441 14.694015 
L 67.501054 14.930279 
L 67.432667 15.166544 
L 67.36428 15.402808 
L 67.295893 15.639072 
L 67.227506 15.875337 
L 67.159119 16.111601 
L 67.090732 16.347866 
L 67.022345 16.58413 
L 66.953958 16.820394 
L 66.885571 17.056659 
L 66.817184 17.292923 
L 66.748797 17.529188 
L 66.68041 17.765452 
L 66.612023 18.001716 
L 66.543636 18.237981 
L 66.458359 18.538187 
L 66.373083 18.838392 
L 66.287806 19.138598 
L 66.202529 19.438804 
L 66.117252 19.73901 
L 66.031976 20.039215 
L 65.946699 20.339421 
L 65.861422 20.639627 
L 65.776145 20.939833 
L 65.690869 21.240039 
L 65.605592 21.540244 
L 65.520315 21.84045 
L 65.435038 22.140656 
L 65.349762 22.440862 
L 65.264485 22.741067 
L 65.179208 23.041273 
L 65.152549 23.346811 
L 65.12589 23.652349 
L 65.09923 23.957887 
L 65.072571 24.263424 
L 65.045912 24.568962 
L 65.019252 24.8745 
L 64.992593 25.180038 
L 64.965934 25.485575 
L 64.939274 25.791113 
L 64.912615 26.096651 
L 64.885956 26.402189 
L 64.859296 26.707726 
L 64.832637 27.013264 
L 64.805978 27.318802 
L 64.779318 27.62434 
L 64.752659 27.929877 
L 64.742028 28.372199 
L 64.731398 28.81452 
L 64.720767 29.256841 
L 64.710136 29.699163 
L 64.699506 30.141484 
L 64.688875 30.583805 
L 64.678245 31.026127 
L 64.667614 31.468448 
" style="fill:none;stroke:#4169e1;stroke-linecap:square;stroke-width:0.592883;"/>
   </g>
   <g id="line2d_29">
    <path clip-path="url(#p2632008459)" d="M 64.667614 31.653007 
L 64.760433 32.042911 
L 64.853252 32.432815 
L 64.946072 32.82272 
L 65.038891 33.212624 
L 65.13171 33.602528 
L 65.224529 33.992432 
L 65.317348 34.382337 
L 65.410167 34.772241 
L 65.502987 35.162145 
L 65.595806 35.552049 
L 65.688625 35.941954 
L 65.781444 36.331858 
L 65.874263 36.721762 
L 65.967082 37.111666 
L 66.059902 37.501571 
L 66.152721 37.891475 
L 66.24554 38.281379 
L 66.338359 38.671283 
L 66.431178 39.061188 
L 66.523998 39.451092 
L 66.616817 39.840996 
L 66.709636 40.2309 
L 66.802455 40.620805 
L 66.895274 41.010709 
L 66.988093 41.400613 
L 67.080913 41.790517 
L 67.173732 42.180422 
L 67.266551 42.570326 
L 67.35937 42.96023 
L 67.452189 43.350134 
L 67.545008 43.740039 
L 67.637828 44.129943 
" style="fill:none;stroke:#000000;stroke-linecap:square;stroke-width:0.592883;"/>
   </g>
   <g id="line2d_30">
    <path clip-path="url(#p2632008459)" d="M 65.648147 31.198577 
L 65.903945 31.155921 
L 66.159742 31.113265 
L 66.415539 31.070609 
L 66.671336 31.027953 
L 66.941373 30.885795 
L 67.211411 30.743637 
L 67.481448 30.601479 
L 67.751486 30.459321 
L 67.996685 30.352767 
L 68.241885 30.246212 
L 68.487085 30.139657 
L 68.732284 30.033102 
L 68.916946 30.203726 
L 68.742882 30.505716 
L 68.568818 30.807706 
L 68.394754 31.109696 
L 68.22069 31.411687 
L 68.021722 31.816663 
L 67.822754 32.221639 
L 68.007415 32.52006 
L 68.320042 32.285538 
L 68.632668 32.051015 
L 68.913369 31.827199 
L 69.19407 31.603383 
L 69.474771 31.379567 
L 69.755473 31.155751 
L 69.904699 30.967453 
L 70.053925 30.779156 
L 70.203151 30.590858 
L 70.352377 30.40256 
L 70.665135 30.111276 
L 70.977894 29.819993 
L 71.102216 30.132604 
L 71.226538 30.445216 
L 71.35086 30.757828 
L 71.475182 31.070439 
" style="fill:none;stroke:#4169e1;stroke-linecap:square;stroke-width:0.592883;"/>
   </g>
   <g id="line2d_31">
    <path clip-path="url(#p2632008459)" d="M 71.58884 31.58197 
L 71.885537 31.701016 
L 72.182233 31.820062 
L 72.47893 31.939107 
L 72.775627 32.058153 
L 73.072324 32.177199 
L 73.369021 32.296244 
L 73.665718 32.41529 
L 73.962414 32.534335 
L 74.328359 32.651512 
L 74.694304 32.768688 
L 75.060249 32.885864 
L 75.426194 33.003041 
L 75.682057 33.258891 
L 75.93792 33.514741 
L 76.193784 33.770592 
L 76.449647 34.026442 
" style="fill:none;stroke:#008000;stroke-linecap:square;stroke-width:0.592883;"/>
   </g>
   <g id="line2d_32">
    <path clip-path="url(#p2632008459)" d="M 71.446833 32.52006 
L 71.45392 32.836241 
L 71.461007 33.152421 
L 71.468095 33.468602 
L 71.475182 33.784782 
L 71.482269 34.100963 
L 71.489356 34.417143 
L 71.496443 34.733324 
L 71.50353 35.049504 
L 71.476887 35.319502 
L 71.450244 35.589501 
L 71.423602 35.859499 
L 71.396959 36.129497 
L 71.370316 36.399495 
L 71.343673 36.669494 
L 71.317031 36.939492 
L 71.290388 37.20949 
L 71.263745 37.479488 
L 71.237102 37.749487 
L 71.210459 38.019485 
L 71.183817 38.289483 
L 71.157174 38.559482 
L 71.130531 38.82948 
L 71.103888 39.099478 
L 71.077246 39.369476 
L 71.041711 39.699847 
L 71.006176 40.030218 
L 70.970641 40.360589 
L 70.935107 40.69096 
L 70.899572 41.02133 
L 70.864037 41.351701 
L 70.828502 41.682072 
L 70.792968 42.012443 
L 70.716599 42.330408 
L 70.640231 42.648373 
L 70.563863 42.966337 
L 70.487495 43.284302 
L 70.411127 43.602267 
L 70.334758 43.920232 
L 70.25839 44.238197 
L 70.182022 44.556162 
" style="fill:none;stroke:#4169e1;stroke-linecap:square;stroke-width:0.592883;"/>
   </g>
   <g id="line2d_33">
    <path clip-path="url(#p2632008459)" d="M 72.441673 32.932004 
L 72.455914 33.248185 
L 72.470154 33.564365 
L 72.484395 33.880546 
L 72.498635 34.196726 
L 72.630044 34.555562 
L 72.761453 34.914399 
L 72.892862 35.273235 
L 73.024271 35.632072 
L 72.9994 35.958916 
L 72.974529 36.285761 
L 72.949658 36.612605 
L 72.924787 36.939449 
L 72.899916 37.266294 
L 72.875045 37.593138 
L 72.850174 37.919983 
L 72.825303 38.246827 
L 72.791556 38.515041 
L 72.75781 38.783255 
L 72.724064 39.051469 
L 72.690317 39.319683 
L 72.656571 39.587897 
L 72.622824 39.85611 
L 72.589078 40.124324 
L 72.555332 40.392538 
L 72.331493 40.698055 
L 72.107654 41.003571 
L 71.883815 41.309088 
L 71.659975 41.614604 
L 71.436136 41.920121 
L 71.212297 42.225637 
L 70.988458 42.531154 
L 70.764619 42.83667 
" style="fill:none;stroke:#4169e1;stroke-linecap:square;stroke-width:0.592883;"/>
   </g>
   <g id="line2d_34">
    <path clip-path="url(#p2632008459)" d="M 68.575971 14.471686 
L 68.872635 14.485919 
L 69.169299 14.500151 
L 69.465962 14.514384 
L 69.762626 14.528617 
L 70.05929 14.54285 
L 70.355953 14.557082 
L 70.652617 14.571315 
L 70.949281 14.585548 
L 71.221107 14.64061 
L 71.492932 14.695672 
L 71.764758 14.750733 
L 72.036584 14.805795 
L 72.30841 14.860857 
L 72.580236 14.915919 
L 72.852062 14.970981 
L 73.123887 15.026042 
L 73.328187 15.136166 
L 73.532487 15.24629 
L 73.736787 15.356413 
L 73.941087 15.466537 
L 74.145387 15.57666 
L 74.349687 15.686784 
L 74.553987 15.796908 
L 74.758286 15.907031 
L 75.015872 15.899936 
L 75.273457 15.892841 
L 75.531043 15.885746 
L 75.788628 15.878651 
L 76.046214 15.871556 
L 76.303799 15.86446 
L 76.561384 15.857365 
L 76.81897 15.85027 
L 77.135239 15.907116 
L 77.451508 15.963962 
L 77.767777 16.020809 
L 78.084046 16.077655 
L 78.489069 15.9711 
L 78.894092 15.864545 
L 79.299116 15.757991 
L 79.704139 15.651436 
L 79.965301 15.694049 
L 80.226463 15.736663 
L 80.487625 15.779276 
L 80.748787 15.821889 
L 81.009949 15.864503 
L 81.271111 15.907116 
L 81.532273 15.94973 
L 81.793435 15.992343 
L 82.184218 16.198485 
L 82.575001 16.404627 
L 82.813047 16.273175 
L 83.051093 16.141724 
L 83.28914 16.010272 
L 83.527186 15.878821 
L 83.825771 15.949857 
L 84.124355 16.020894 
L 84.286 16.207407 
L 84.447645 16.39392 
L 84.60929 16.580434 
L 84.770935 16.766947 
L 84.93258 16.95346 
L 85.094225 17.139974 
L 85.25587 17.326487 
L 85.417515 17.513 
" style="fill:none;stroke:#008000;stroke-linecap:square;stroke-width:0.592883;"/>
   </g>
   <g id="line2d_35">
    <path clip-path="url(#p2632008459)" d="M 85.531173 17.72611 
L 85.35797 17.9464 
L 85.184767 18.166689 
L 85.011564 18.386979 
L 84.838361 18.607269 
L 84.665159 18.827558 
L 84.491956 19.047848 
L 84.318753 19.268138 
L 84.14555 19.488428 
L 83.972347 19.708717 
L 83.799144 19.929007 
L 83.625941 20.149297 
L 83.452739 20.369586 
L 83.279536 20.589876 
L 83.106333 20.810166 
L 82.93313 21.030455 
L 82.759927 21.250745 
L 82.520093 21.607797 
L 82.280258 21.964849 
L 82.040423 22.321901 
L 81.800589 22.678953 
L 81.560754 23.036005 
L 81.320919 23.393057 
L 81.081085 23.750109 
L 80.84125 24.107161 
L 80.731102 24.352305 
L 80.620955 24.597449 
L 80.510807 24.842593 
L 80.400659 25.087737 
L 80.290511 25.332881 
L 80.180364 25.578025 
L 80.070216 25.823169 
L 79.960068 26.068313 
" style="fill:none;stroke:#000000;stroke-linecap:square;stroke-width:0.592883;"/>
   </g>
   <g id="line2d_36">
    <path clip-path="url(#p2632008459)" d="M 79.960068 26.068313 
L 79.848132 26.382709 
L 79.736196 26.697105 
L 79.62426 27.011501 
L 79.512324 27.325897 
L 79.400388 27.640293 
L 79.288452 27.954689 
L 79.176516 28.269085 
L 79.06458 28.583481 
L 78.940225 28.886364 
L 78.81587 29.189246 
L 78.691515 29.492129 
L 78.56716 29.795011 
L 78.442805 30.097893 
L 78.31845 30.400776 
L 78.194095 30.703658 
L 78.06974 31.00654 
L 77.945385 31.309423 
L 77.82103 31.612305 
L 77.696675 31.915188 
L 77.57232 32.21807 
L 77.447965 32.520952 
L 77.323609 32.823835 
L 77.199254 33.126717 
L 77.074899 33.4296 
L 77.044697 33.66939 
L 77.014494 33.909181 
L 76.984291 34.148972 
L 76.954088 34.388763 
L 76.923885 34.628553 
L 76.893682 34.868344 
L 76.863479 35.108135 
L 76.833277 35.347926 
L 76.893682 35.627696 
L 76.954088 35.907466 
L 77.014494 36.187236 
L 77.074899 36.467006 
L 77.135305 36.746776 
L 77.195711 37.026546 
L 77.256117 37.306316 
L 77.316522 37.586086 
L 77.376928 37.865856 
L 77.437334 38.145626 
L 77.49774 38.425396 
L 77.558145 38.705166 
L 77.618551 38.984936 
L 77.678957 39.264706 
L 77.739363 39.544476 
L 77.799768 39.824246 
" style="fill:none;stroke:#008000;stroke-linecap:square;stroke-width:0.592883;"/>
   </g>
   <g id="line2d_37">
    <path clip-path="url(#p2632008459)" d="M 88.018406 17.641138 
L 88.212936 17.936904 
L 88.407466 18.23267 
L 88.601997 18.528436 
L 88.796527 18.824202 
L 88.991057 19.119968 
L 89.185587 19.415734 
L 89.380118 19.7115 
L 89.574648 20.007266 
L 89.769178 20.303032 
L 89.963709 20.598798 
L 90.158239 20.894564 
L 90.352769 21.19033 
L 90.5473 21.486096 
L 90.74183 21.781862 
L 90.93636 22.077628 
L 91.130891 22.373394 
L 91.258789 22.696712 
L 91.386688 23.02003 
L 91.514586 23.343348 
L 91.642485 23.666667 
L 91.770383 23.989985 
L 91.898282 24.313303 
L 92.026181 24.636621 
L 92.154079 24.959939 
L 92.14166 25.34363 
L 92.129241 25.72732 
L 92.116822 26.111011 
L 92.104403 26.494702 
L 92.091984 26.878392 
L 92.079565 27.262083 
L 92.067147 27.645774 
L 92.054728 28.029464 
L 92.109801 28.358093 
L 92.164875 28.686722 
L 92.219949 29.015351 
L 92.275023 29.34398 
L 92.330097 29.672609 
L 92.385171 30.001238 
L 92.440245 30.329867 
L 92.495319 30.658496 
L 92.479323 31.040402 
L 92.463327 31.422308 
L 92.447332 31.804214 
L 92.431336 32.186121 
L 92.415341 32.568027 
L 92.399345 32.949933 
L 92.383349 33.331839 
L 92.367354 33.713746 
L 92.276745 34.06366 
L 92.186137 34.413574 
L 92.095528 34.763489 
L 92.004919 35.113403 
L 91.914311 35.463317 
L 91.823702 35.813232 
L 91.733094 36.163146 
L 91.642485 36.51306 
L 91.585656 36.754636 
L 91.528827 36.996211 
L 91.471998 37.237786 
L 91.415169 37.479361 
L 91.358339 37.720936 
L 91.30151 37.962511 
L 91.244681 38.204086 
L 91.187852 38.445662 
L 91.186064 38.896863 
L 91.184276 39.348063 
L 91.182487 39.799264 
L 91.180699 40.250465 
L 91.178911 40.701666 
L 91.177122 41.152867 
L 91.175334 41.604068 
L 91.173546 42.055269 
" style="fill:none;stroke:#000000;stroke-linecap:square;stroke-width:0.592883;"/>
   </g>
   <g id="line2d_38">
    <path clip-path="url(#p2632008459)" d="M 77.98443 35.106265 
L 82.005303 37.27972 
L 88.038044 40.96287 
L 92.278533 42.932604 
L 93.572786 43.707994 
L 98.578282 46.957638 
L 104.447971 50.396452 
L 107.034556 51.476275 
L 111.099358 51.735524 
L 113.657462 51.660834 
L 113.657462 51.660834 
" style="fill:none;stroke:#4169e1;stroke-linecap:square;stroke-width:0.592883;"/>
   </g>
   <g id="line2d_39">
    <path clip-path="url(#p2632008459)" d="M 80.642282 45.081968 
L 80.91232 45.252464 
L 81.182357 45.42296 
L 81.452395 45.593457 
L 81.722432 45.763953 
L 81.99247 45.934449 
L 82.262507 46.104945 
L 82.532545 46.275441 
L 82.802582 46.445937 
L 83.037085 46.604028 
L 83.271588 46.762118 
L 83.50609 46.920208 
L 83.740593 47.078298 
L 83.975096 47.236389 
L 84.209599 47.394479 
L 84.444101 47.552569 
L 84.678604 47.710659 
L 84.985932 47.982442 
L 85.293259 48.254225 
L 85.600586 48.526007 
L 85.907914 48.79779 
L 86.215241 49.069573 
L 86.522569 49.341355 
L 86.829896 49.613138 
L 87.137224 49.884921 
L 87.369938 50.130022 
L 87.602652 50.375124 
L 87.835367 50.620225 
L 88.068081 50.865327 
L 88.300796 51.110428 
L 88.53351 51.35553 
L 88.766225 51.600631 
L 88.998939 51.845733 
L 89.318719 52.037514 
L 89.638498 52.229296 
L 89.958278 52.421077 
L 90.278057 52.612859 
L 90.564984 52.535598 
L 90.851912 52.458338 
L 91.138839 52.381077 
L 91.425766 52.303816 
L 91.712693 52.226555 
L 91.999621 52.149295 
L 92.286548 52.072034 
L 92.573475 51.994773 
L 92.860402 51.917513 
L 93.14733 51.840252 
L 93.434257 51.762991 
L 93.721184 51.68573 
L 94.008111 51.60847 
L 94.295039 51.531209 
L 94.581966 51.453948 
L 94.868893 51.376688 
L 95.181519 51.287892 
L 95.494145 51.199096 
L 95.806772 51.110301 
L 96.119398 51.021505 
L 96.420499 50.873484 
L 96.721601 50.725463 
L 96.886922 50.353626 
L 97.142719 50.271968 
L 97.398516 50.19031 
L 97.654313 50.108652 
L 97.91011 50.026994 
L 98.240553 50.005666 
L 98.570996 49.984338 
L 98.90144 49.96301 
L 99.231883 49.941682 
L 99.51828 49.804707 
L 99.804678 49.667732 
L 100.091075 49.530758 
L 100.377472 49.393783 
L 100.545906 49.228768 
L 100.71434 49.063752 
L 100.882774 48.898737 
L 101.051208 48.733721 
" style="fill:none;stroke:#4169e1;stroke-linecap:square;stroke-width:0.592883;"/>
   </g>
   <g id="line2d_40">
    <path clip-path="url(#p2632008459)" d="M 91.457823 21.662689 
L 91.648794 21.819016 
L 91.839764 21.975343 
L 92.030734 22.13167 
L 92.221704 22.287997 
L 92.412675 22.444324 
L 92.603645 22.600651 
L 92.794615 22.756978 
L 92.985585 22.913306 
L 93.176555 23.069633 
L 93.367526 23.22596 
L 93.558496 23.382287 
L 93.749466 23.538614 
L 93.940436 23.694941 
L 94.131407 23.851268 
L 94.322377 24.007595 
L 94.513347 24.163922 
L 94.733643 24.412635 
L 94.953938 24.661348 
L 95.174234 24.910061 
L 95.394529 25.158773 
L 95.614824 25.407486 
L 95.83512 25.656199 
L 96.055415 25.904912 
L 96.275711 26.153625 
L 96.377861 26.464473 
L 96.480011 26.775322 
L 96.582161 27.08617 
L 96.684311 27.397019 
L 96.786461 27.707867 
L 96.888611 28.018716 
L 96.990761 28.329564 
L 97.09291 28.640413 
L 97.19506 28.951261 
L 97.29721 29.26211 
L 97.39936 29.572958 
L 97.50151 29.883807 
L 97.60366 30.194655 
L 97.70581 30.505504 
L 97.80796 30.816352 
L 97.91011 31.127201 
L 97.962518 31.412303 
L 98.014926 31.697405 
L 98.067334 31.982507 
L 98.119742 32.267609 
L 98.17215 32.552711 
L 98.224558 32.837813 
L 98.276966 33.122915 
L 98.329374 33.408017 
L 98.381781 33.693119 
L 98.434189 33.978221 
L 98.486597 34.263323 
L 98.539005 34.548425 
L 98.591413 34.833527 
L 98.643821 35.118629 
L 98.696229 35.403731 
L 98.748637 35.688833 
L 98.841017 35.947296 
L 98.933398 36.205759 
L 99.025778 36.464223 
L 99.118159 36.722686 
L 99.210539 36.981149 
L 99.302919 37.239613 
L 99.3953 37.498076 
L 99.48768 37.756539 
L 99.58006 38.015003 
L 99.672441 38.273466 
L 99.764821 38.531929 
L 99.857202 38.790393 
L 99.949582 39.048856 
L 100.041962 39.307319 
L 100.134343 39.565783 
L 100.226723 39.824246 
L 100.372406 40.028518 
L 100.518088 40.232791 
L 100.66377 40.437063 
L 100.809453 40.641336 
L 100.955135 40.845608 
L 101.100818 41.049881 
L 101.2465 41.254153 
L 101.392183 41.458426 
L 101.537865 41.662698 
L 101.683548 41.866971 
L 101.82923 42.071243 
L 101.974913 42.275516 
L 102.120595 42.479788 
L 102.266278 42.684061 
L 102.41196 42.888333 
L 102.557643 43.092606 
L 102.795689 43.45671 
L 103.033735 43.820815 
L 103.271782 44.18492 
L 103.509828 44.549024 
L 103.747874 44.913129 
L 103.98592 45.277234 
L 104.223967 45.641338 
L 104.462013 46.005443 
L 104.774705 45.955734 
L 105.087398 45.906026 
L 105.40009 45.856317 
L 105.712783 45.806609 
L 106.135623 45.749762 
L 106.558463 45.692916 
L 106.981303 45.63607 
L 107.404143 45.579224 
" style="fill:none;stroke:#000000;stroke-linecap:square;stroke-width:0.592883;"/>
   </g>
   <g id="line2d_41">
    <path clip-path="url(#p2632008459)" d="M 88.927936 16.560975 
L 89.192641 16.592925 
L 89.457347 16.624874 
L 89.722053 16.656823 
L 89.986758 16.688773 
L 90.251464 16.720722 
L 90.51617 16.752672 
L 90.780875 16.784621 
L 91.045581 16.816571 
L 91.422223 16.852131 
L 91.798864 16.887692 
L 92.175506 16.923253 
L 92.552148 16.958814 
L 92.928789 16.994374 
L 93.305431 17.029935 
L 93.682073 17.065496 
L 94.058714 17.101057 
L 94.383826 17.22006 
L 94.708937 17.339063 
L 95.034048 17.458066 
L 95.35916 17.577069 
L 95.684271 17.696072 
L 96.009383 17.815076 
L 96.334494 17.934079 
L 96.659605 18.053082 
L 96.881673 18.110374 
L 97.10374 18.167667 
L 97.325807 18.224959 
L 97.547874 18.282251 
L 97.769942 18.339544 
L 97.992009 18.396836 
L 98.214076 18.454128 
L 98.436143 18.51142 
L 98.658211 18.568713 
L 98.880278 18.626005 
L 99.102345 18.683297 
L 99.324412 18.74059 
L 99.54648 18.797882 
L 99.768547 18.855174 
L 99.990614 18.912467 
L 100.212681 18.969759 
L 100.434749 19.027051 
L 100.656816 19.084344 
L 100.878883 19.141636 
L 101.10095 19.198928 
L 101.323018 19.256221 
L 101.545085 19.313513 
L 101.767152 19.370805 
L 101.989219 19.428097 
L 102.211287 19.48539 
L 102.433354 19.542682 
L 102.655421 19.599974 
L 102.877488 19.657267 
L 103.099556 19.714559 
L 103.321623 19.771851 
L 103.54369 19.829144 
L 103.765757 19.886436 
L 104.156573 20.081829 
L 104.547389 20.277222 
L 104.938205 20.472615 
L 105.329021 20.668008 
L 105.719837 20.863401 
L 106.110653 21.058793 
L 106.501468 21.254186 
L 106.892284 21.449579 
L 107.325788 21.588169 
L 107.759292 21.726758 
L 108.192796 21.865347 
L 108.6263 22.003936 
L 108.866134 22.030575 
L 109.105969 22.057213 
L 109.345804 22.083852 
L 109.585638 22.110491 
L 109.825473 22.13713 
L 110.065308 22.163768 
L 110.305142 22.190407 
L 110.544977 22.217046 
L 110.850549 22.55277 
L 111.156121 22.888494 
L 111.461693 23.224218 
L 111.767266 23.559942 
L 112.072838 23.895666 
L 112.37841 24.23139 
L 112.683982 24.567114 
L 112.989555 24.902838 
L 113.156531 25.066281 
L 113.323508 25.229725 
L 113.490485 25.393168 
L 113.657462 25.556612 
L 113.824439 25.720055 
L 113.991416 25.883499 
L 114.158392 26.046942 
L 114.325369 26.210386 
L 114.641638 26.494617 
L 114.957907 26.778848 
L 115.274176 27.063079 
L 115.590446 27.34731 
L 115.828492 27.521417 
L 116.066538 27.695525 
L 116.304584 27.869632 
L 116.542631 28.04374 
L 116.901488 28.171622 
L 117.260346 28.299505 
L 117.619204 28.427388 
L 117.978062 28.555271 
L 118.212565 28.818174 
L 118.447067 29.081077 
L 118.68157 29.34398 
L 118.916073 29.606883 
L 119.150576 29.869786 
L 119.385078 30.132689 
L 119.619581 30.395592 
L 119.854084 30.658496 
L 120.113458 30.91783 
L 120.372831 31.177164 
L 120.632205 31.436498 
L 120.891579 31.695833 
L 121.154529 31.937408 
L 121.41748 32.178983 
L 121.68043 32.420558 
L 121.943381 32.662133 
" style="fill:none;stroke:#000000;stroke-linecap:square;stroke-width:0.592883;"/>
   </g>
   <g id="line2d_42">
    <path clip-path="url(#p2632008459)" d="M 121.943381 32.662133 
L 121.968252 33.004952 
L 121.993123 33.347772 
L 122.017994 33.690591 
L 122.042865 34.03341 
L 122.067736 34.376229 
L 122.092607 34.719048 
L 122.117478 35.061868 
L 122.142349 35.404687 
L 122.129896 35.685349 
L 122.117444 35.966011 
L 122.104992 36.246673 
L 122.09254 36.527336 
L 122.080088 36.807998 
L 122.067636 37.08866 
L 122.055184 37.369322 
L 122.042732 37.649985 
L 121.978783 38.085168 
L 121.914833 38.520352 
L 121.850884 38.955536 
L 121.786935 39.390719 
L 121.722986 39.825903 
L 121.659036 40.261087 
L 121.595087 40.69627 
L 121.531138 41.131454 
L 121.575548 41.358839 
L 121.619958 41.586224 
L 121.664368 41.813608 
L 121.708778 42.040993 
L 121.753189 42.268378 
L 121.797599 42.495763 
L 121.842009 42.723148 
L 121.886419 42.950533 
L 121.975239 43.305715 
L 122.06406 43.660898 
L 122.15288 44.01608 
L 122.2417 44.371263 
L 122.06406 44.674995 
L 121.886419 44.978727 
L 121.708778 45.282459 
L 121.531138 45.586191 
L 121.353497 45.889924 
L 121.175857 46.193656 
L 120.998216 46.497388 
L 120.820576 46.80112 
L 120.635815 46.957426 
L 120.451054 47.113732 
L 120.266293 47.270037 
L 120.081533 47.426343 
L 119.896772 47.582649 
L 119.712011 47.738955 
L 119.52725 47.895261 
L 119.34249 48.051567 
L 118.976512 48.232769 
L 118.610534 48.413972 
L 118.244556 48.595174 
L 117.878578 48.776377 
L 117.5126 48.95758 
L 117.146622 49.138782 
L 116.780644 49.319985 
L 116.414666 49.501187 
" style="fill:none;stroke:#4169e1;stroke-linecap:square;stroke-width:0.592883;"/>
   </g>
   <g id="line2d_43">
    <path clip-path="url(#p2632008459)" d="M 117.054225 28.683068 
L 117.119962 28.995723 
L 117.1857 29.308377 
L 117.251438 29.621031 
L 117.317175 29.933685 
L 117.382913 30.246339 
L 117.448651 30.558993 
L 117.514388 30.871648 
L 117.580126 31.184302 
L 117.555255 31.479154 
L 117.530384 31.774007 
L 117.505513 32.068859 
L 117.480642 32.363712 
L 117.455771 32.658564 
L 117.4309 32.953417 
L 117.406029 33.24827 
L 117.381158 33.543122 
L 117.288761 33.933908 
L 117.196364 34.324694 
L 117.103967 34.71548 
L 117.01157 35.106265 
L 117.05598 35.475723 
L 117.10039 35.845181 
L 117.1448 36.214639 
L 117.189211 36.584097 
L 117.233621 36.953555 
L 117.278031 37.323013 
L 117.322441 37.692471 
L 117.366851 38.061928 
L 117.373971 38.369229 
L 117.381091 38.67653 
L 117.388212 38.983831 
L 117.395332 39.291132 
L 117.402452 39.598433 
L 117.409572 39.905734 
L 117.416692 40.213035 
L 117.423813 40.520336 
L 117.510845 40.776144 
L 117.597877 41.031952 
L 117.684908 41.28776 
L 117.77194 41.543568 
L 117.858972 41.799376 
L 117.946004 42.055184 
L 118.033036 42.310992 
L 118.120068 42.566799 
L 117.951303 42.938042 
L 117.782538 43.309284 
L 117.613773 43.680526 
L 117.445008 44.051769 
L 117.276242 44.423011 
L 117.107477 44.794253 
L 116.938712 45.165496 
L 116.769947 45.536738 
L 116.695334 45.80493 
L 116.620721 46.073123 
L 116.546108 46.341316 
L 116.471495 46.609508 
L 116.396882 46.877701 
L 116.322269 47.145893 
L 116.247656 47.414086 
L 116.173043 47.682279 
L 116.09843 47.950471 
L 116.023817 48.218664 
L 115.949204 48.486856 
L 115.874591 48.755049 
L 115.799978 49.023242 
L 115.725365 49.291434 
L 115.650752 49.559627 
L 115.576139 49.82782 
" style="fill:none;stroke:#4169e1;stroke-linecap:square;stroke-width:0.592883;"/>
   </g>
   <g id="line2d_44">
    <path clip-path="url(#p2632008459)" d="M 104.874256 21.47813 
L 105.076767 21.730369 
L 105.279279 21.982608 
L 105.48179 22.234847 
L 105.684302 22.487086 
L 105.886814 22.739326 
L 106.089325 22.991565 
L 106.291837 23.243804 
L 106.494348 23.496043 
L 106.792833 23.801602 
L 107.091318 24.107161 
L 107.389804 24.41272 
L 107.688289 24.718279 
L 107.986774 25.023838 
L 108.285259 25.329397 
L 108.583744 25.634956 
L 108.882229 25.940515 
L 109.159354 26.217523 
L 109.436479 26.494532 
L 109.527087 26.922663 
L 109.617696 27.350794 
L 109.708304 27.778925 
L 109.798913 28.207056 
L 109.889522 28.635187 
L 109.98013 29.063318 
L 110.070739 29.491449 
L 110.161347 29.91958 
L 110.180887 30.200242 
L 110.200426 30.480904 
L 110.219965 30.761566 
L 110.239504 31.042229 
L 110.259043 31.322891 
L 110.278582 31.603553 
L 110.298121 31.884215 
L 110.31766 32.164878 
L 110.289246 32.580475 
L 110.260831 32.996073 
L 110.232417 33.411671 
L 110.204002 33.827268 
L 110.200426 34.282038 
L 110.196849 34.736808 
L 110.193272 35.191577 
L 110.189696 35.646347 
L 109.990728 35.905681 
L 109.79176 36.165015 
L 109.592792 36.42435 
L 109.393824 36.683684 
" style="fill:none;stroke:#4169e1;stroke-linecap:square;stroke-width:0.592883;"/>
   </g>
   <g id="line2d_45">
    <path clip-path="url(#p2632008459)" d="M 109.393824 36.683684 
L 109.297883 36.91638 
L 109.201943 37.149075 
L 109.106002 37.381771 
L 109.010062 37.614466 
L 108.914121 37.847162 
L 108.818181 38.079858 
L 108.72224 38.312553 
L 108.6263 38.545249 
L 108.565894 38.809894 
L 108.505488 39.074539 
L 108.445083 39.339184 
L 108.384677 39.603829 
L 108.324271 39.868474 
L 108.263865 40.133119 
L 108.20346 40.397764 
L 108.143054 40.662409 
L 108.135967 41.08166 
L 108.12888 41.500912 
L 108.121793 41.920163 
L 108.114706 42.339415 
L 108.185759 42.564994 
L 108.256811 42.790573 
L 108.327864 43.016152 
L 108.398917 43.241731 
L 108.46997 43.467311 
L 108.541023 43.69289 
L 108.612076 43.918469 
L 108.683129 44.144048 
L 108.754182 44.369627 
L 108.825235 44.595207 
L 108.896288 44.820786 
L 108.967341 45.046365 
L 109.038393 45.271944 
L 109.109446 45.497523 
L 109.180499 45.723102 
L 109.251552 45.948682 
L 109.486055 46.270173 
L 109.720558 46.591664 
L 109.95506 46.913155 
L 110.189563 47.234647 
L 110.424066 47.556138 
L 110.658569 47.877629 
L 110.893071 48.19912 
L 111.127574 48.520612 
L 111.452686 48.788825 
L 111.777797 49.057039 
L 112.102908 49.325253 
L 112.42802 49.593467 
L 112.753131 49.861681 
L 113.078242 50.129895 
L 113.403354 50.398109 
L 113.728465 50.666322 
" style="fill:none;stroke:#4169e1;stroke-linecap:square;stroke-width:0.592883;"/>
   </g>
   <g id="line2d_46">
    <path clip-path="url(#p2632008459)" d="M 94.101369 18.948346 
L 94.263014 19.140213 
L 94.424659 19.332079 
L 94.586304 19.523946 
L 94.747949 19.715812 
L 94.909594 19.907679 
L 95.071239 20.099546 
L 95.232884 20.291412 
L 95.394529 20.483279 
L 95.589953 20.605851 
L 95.785378 20.728423 
L 95.980802 20.850995 
L 96.176227 20.973567 
L 96.371651 21.096139 
L 96.567076 21.218711 
L 96.7625 21.341283 
L 96.957925 21.463855 
L 97.359438 21.668127 
L 97.76095 21.8724 
L 98.162463 22.076672 
L 98.563976 22.280945 
L 98.965488 22.485217 
L 99.367001 22.689489 
L 99.768514 22.893762 
L 100.170026 23.098034 
L 100.454271 23.247288 
L 100.738516 23.396541 
L 101.022761 23.545794 
L 101.307005 23.695047 
L 101.59125 23.8443 
L 101.875495 23.993553 
L 102.15974 24.142807 
L 102.443985 24.29206 
L 102.749557 24.551394 
L 103.055129 24.810728 
L 103.360701 25.070063 
L 103.666273 25.329397 
L 103.971846 25.588731 
L 104.277418 25.848065 
L 104.58299 26.1074 
L 104.888562 26.366734 
L 105.062659 26.720217 
L 105.236756 27.0737 
L 105.410853 27.427184 
L 105.58495 27.780667 
L 105.759047 28.13415 
L 105.933144 28.487633 
L 106.107241 28.841116 
L 106.281338 29.194599 
L 106.419901 29.63161 
L 106.558463 30.06862 
L 106.697025 30.505631 
L 106.835588 30.942642 
L 106.97415 31.379652 
L 107.112712 31.816663 
L 107.251274 32.253673 
L 107.389837 32.690684 
L 107.567477 33.070763 
L 107.745118 33.450843 
L 107.922758 33.830922 
L 108.100399 34.211001 
L 108.111063 34.470336 
L 108.121726 34.72967 
L 108.13239 34.989004 
L 108.143054 35.248338 
L 108.384677 35.571657 
L 108.6263 35.894975 
L 108.867923 36.218293 
L 109.109546 36.541611 
" style="fill:none;stroke:#000000;stroke-linecap:square;stroke-width:0.592883;"/>
   </g>
   <g id="line2d_47">
    <path clip-path="url(#p2632008459)" d="M 56.211076 39.525825 
L 56.31056 39.740761 
L 56.410044 39.955698 
L 56.509528 40.170634 
L 56.609012 40.38557 
L 56.708496 40.600507 
L 56.80798 40.815443 
L 56.907464 41.03038 
L 57.006948 41.245316 
L 57.310765 41.419381 
L 57.614582 41.593446 
L 57.918399 41.767511 
L 58.222216 41.941576 
L 58.526033 42.115641 
L 58.82985 42.289706 
L 59.133667 42.463771 
L 59.437484 42.637836 
L 59.63112 42.763934 
L 59.824756 42.890033 
L 60.018392 43.016131 
L 60.212028 43.142229 
L 60.405665 43.268328 
L 60.599301 43.394426 
L 60.792937 43.520524 
L 60.986573 43.646623 
L 61.267274 43.877576 
L 61.547976 44.10853 
L 61.828677 44.339484 
L 62.109378 44.570437 
L 62.347424 44.645043 
L 62.585471 44.719648 
L 62.823517 44.794253 
L 63.061563 44.868859 
L 63.299609 44.943464 
L 63.537656 45.018069 
L 63.775702 45.092675 
L 64.013748 45.16728 
L 64.242919 45.245412 
L 64.47209 45.323543 
L 64.701261 45.401675 
L 64.930432 45.479807 
L 65.159603 45.557938 
L 65.388774 45.63607 
L 65.617945 45.714202 
L 65.847115 45.792333 
L 66.21306 45.856317 
L 66.579005 45.920301 
L 66.94495 45.984285 
L 67.310895 46.048269 
" style="fill:none;stroke:#000000;stroke-linecap:square;stroke-width:0.592883;"/>
   </g>
   <g id="line2d_48">
    <path clip-path="url(#p2632008459)" d="M 62.805634 45.295078 
L 62.844712 45.581051 
L 62.88379 45.867024 
L 62.922868 46.152997 
L 62.961947 46.43897 
L 63.001025 46.724943 
L 63.040103 47.010916 
L 63.079182 47.296889 
L 63.11826 47.582862 
L 63.196483 47.973647 
L 63.274705 48.364433 
L 63.352928 48.755219 
L 63.431151 49.146005 
L 63.331667 49.415961 
L 63.232183 49.685916 
L 63.132699 49.955872 
L 63.033215 50.225828 
" style="fill:none;stroke:#008000;stroke-linecap:square;stroke-width:0.592883;"/>
   </g>
   <g id="line2d_49">
    <path clip-path="url(#p2632008459)" d="M 78.240359 42.779909 
L 77.999639 42.948653 
L 77.758918 43.117396 
L 77.518198 43.28614 
L 77.277477 43.454883 
L 77.036757 43.623627 
L 76.796036 43.792371 
L 76.555316 43.961114 
L 76.314595 44.129858 
L 76.073875 44.298601 
L 75.833154 44.467345 
L 75.592434 44.636089 
L 75.351713 44.804832 
L 75.110993 44.973576 
L 74.870272 45.142319 
L 74.629552 45.311063 
L 74.388831 45.479807 
L 74.148111 45.64855 
L 73.90739 45.817294 
L 73.66667 45.986037 
L 73.425949 46.154781 
L 73.185229 46.323525 
L 72.944508 46.492268 
L 72.703788 46.661012 
L 72.463067 46.829755 
L 72.222347 46.998499 
L 71.981626 47.167243 
L 71.740906 47.335986 
L 71.500185 47.50473 
L 71.259465 47.673473 
L 71.018744 47.842217 
L 70.778024 48.010961 
L 70.537303 48.179704 
" style="fill:none;stroke:#008000;stroke-linecap:square;stroke-width:0.592883;"/>
   </g>
   <g id="line2d_50">
    <path clip-path="url(#p2632008459)" d="M 78.098088 40.733445 
L 78.202904 41.02834 
L 78.30772 41.323236 
L 78.412536 41.618131 
L 78.517351 41.913026 
L 78.622167 42.207921 
L 78.726983 42.502816 
L 78.831799 42.797711 
L 78.936615 43.092606 
L 79.032555 43.339492 
L 79.128496 43.586377 
L 79.224436 43.833263 
L 79.320377 44.080149 
L 79.416317 44.327035 
L 79.512258 44.573921 
L 79.608198 44.820807 
L 79.704139 45.067693 
L 79.615318 45.383873 
L 79.526498 45.700054 
L 79.437678 46.016234 
L 79.348858 46.332415 
" style="fill:none;stroke:#008000;stroke-linecap:square;stroke-width:0.592883;"/>
   </g>
   <g id="line2d_51">
    <path clip-path="url(#p2632008459)" d="M 21.310866 31.072819 
L 20.209687 29.860992 
L 18.258886 28.638161 
L 17.239572 27.279332 
L 16.075437 22.742852 
L 13.22226 20.145855 
L 11.150813 18.387192 
L 10.305365 16.745534 
L 10.09209 15.026042 
L 10.941281 13.144764 
L 13.16192 10.364483 
L 18.090187 9.122895 
L 20.703497 8.646818 
L 26.052451 8.389056 
L 29.886427 7.47769 
L 32.771398 7.653624 
L 33.741466 7.920011 
L 39.767468 6.790225 
L 40.378679 6.854124 
L 42.140877 5.431099 
L 44.066774 4.532181 
L 48.829521 3.350901 
L 49.527697 3.279822 
L 52.954796 3.436171 
L 54.900165 3.745426 
L 55.912756 4.139781 
L 55.912756 4.139781 
" style="fill:none;stroke:#4169e1;stroke-linecap:square;stroke-width:0.592883;"/>
   </g>
   <g id="line2d_52">
    <path clip-path="url(#p2632008459)" d="M 18.737264 28.488653 
L 18.726136 28.089285 
L 18.715009 27.689917 
L 18.679971 27.382403 
L 18.644933 27.07489 
L 18.609895 26.767377 
L 18.574857 26.459863 
L 18.539819 26.15235 
L 18.504781 25.844837 
L 18.469743 25.537323 
L 18.434705 25.22981 
L 18.754485 25.04865 
L 19.074264 24.86749 
L 19.394044 24.686329 
L 19.713823 24.505169 
L 20.076258 24.363011 
L 20.438692 24.220853 
L 20.801126 24.078695 
L 21.163561 23.936537 
L 21.4691 23.620357 
L 21.774639 23.304176 
L 22.080178 22.987996 
L 22.385717 22.671815 
L 22.62734 22.487086 
L 22.868963 22.302357 
L 23.110586 22.117629 
L 23.352209 21.9329 
L 23.531638 21.764145 
L 23.711067 21.595391 
L 23.890496 21.426637 
L 24.069925 21.257883 
L 24.249353 21.089128 
L 24.428782 20.920374 
L 24.608211 20.75162 
L 24.78764 20.582866 
L 24.918221 20.364361 
L 25.048802 20.145855 
L 25.179383 19.92735 
L 25.309964 19.708845 
L 25.440545 19.490339 
L 25.571126 19.271834 
L 25.701707 19.053329 
L 25.832288 18.834824 
L 25.962869 18.616318 
L 26.093451 18.397813 
L 26.224032 18.179308 
L 26.354613 17.960802 
L 26.485194 17.742297 
L 26.615775 17.523792 
L 26.746356 17.305287 
L 26.876937 17.086781 
L 27.102564 16.717281 
L 27.328191 16.347781 
L 27.553819 15.97828 
L 27.779446 15.60878 
L 28.005074 15.239279 
L 28.230701 14.869779 
L 28.456328 14.500279 
L 28.681956 14.130778 
L 28.81873 13.811029 
L 28.955504 13.49128 
L 29.092277 13.17153 
L 29.229051 12.851781 
L 29.365825 12.532032 
L 29.502599 12.212283 
L 29.639373 11.892533 
L 29.776147 11.572784 
L 29.886295 11.306269 
L 29.996443 11.039755 
L 30.10659 10.773241 
L 30.216738 10.506726 
L 30.326886 10.240212 
L 30.437034 9.973697 
L 30.547181 9.707183 
L 30.657329 9.440669 
L 30.813642 9.177765 
L 30.969955 8.914862 
L 31.275561 8.719512 
L 31.581166 8.524162 
L 31.886771 8.328811 
L 32.192377 8.133461 
" style="fill:none;stroke:#4169e1;stroke-linecap:square;stroke-width:0.592883;"/>
   </g>
   <g id="line2d_53">
    <path clip-path="url(#p2632008459)" d="M 16.047089 22.003936 
L 16.240725 21.737464 
L 16.434361 21.470992 
L 16.627997 21.20452 
L 16.821633 20.938048 
L 17.01527 20.671576 
L 17.208906 20.405105 
L 17.402542 20.138633 
L 17.596178 19.872161 
L 17.786271 19.733614 
L 17.976363 19.595067 
L 18.166456 19.456521 
L 18.356549 19.317974 
L 18.546641 19.179427 
L 18.736734 19.04088 
L 18.926826 18.902334 
L 19.116919 18.763787 
L 19.399375 18.717605 
L 19.681832 18.671423 
L 19.964288 18.62524 
L 20.246745 18.579058 
L 20.529201 18.532876 
L 20.811658 18.486694 
L 21.094114 18.440511 
L 21.37657 18.394329 
L 21.556032 18.24155 
L 21.735494 18.08877 
L 21.914956 17.935991 
L 22.094419 17.783211 
L 22.273881 17.630432 
L 22.453343 17.477652 
L 22.632805 17.324873 
L 22.812267 17.172093 
L 22.893967 16.783049 
L 22.975667 16.394005 
L 23.057367 16.004961 
L 23.139067 15.615918 
L 23.220767 15.226874 
L 23.302467 14.83783 
L 23.384167 14.448786 
L 23.465867 14.059742 
L 23.412582 13.754183 
L 23.359296 13.448624 
L 23.306011 13.143065 
L 23.252725 12.837506 
L 23.199439 12.531947 
L 23.146154 12.226388 
L 23.092868 11.920829 
L 23.039583 11.61527 
L 23.119528 11.311495 
L 23.199473 11.007721 
L 23.279417 10.703946 
L 23.359362 10.400171 
L 23.439307 10.096397 
L 23.519252 9.792622 
L 23.599197 9.488848 
L 23.679142 9.185073 
" style="fill:none;stroke:#4169e1;stroke-linecap:square;stroke-width:0.592883;"/>
   </g>
   <g id="line2d_54">
    <path clip-path="url(#p2632008459)" d="M 22.385717 18.067357 
L 22.614011 18.035387 
L 22.842304 18.003416 
L 23.070597 17.971445 
L 23.29889 17.939475 
L 23.527184 17.907504 
L 23.755477 17.875533 
L 23.98377 17.843562 
L 24.212064 17.811592 
L 24.440357 17.779621 
L 24.66865 17.74765 
L 24.896943 17.71568 
L 25.125237 17.683709 
L 25.35353 17.651738 
L 25.581823 17.619768 
L 25.810116 17.587797 
L 26.03841 17.555826 
" style="fill:none;stroke:#008000;stroke-linecap:square;stroke-width:0.592883;"/>
   </g>
   <g id="line2d_55">
    <path clip-path="url(#p2632008459)" d="M 65.818767 14.045467 
L 65.456333 14.02057 
L 65.093898 13.995673 
L 64.731464 13.970776 
L 64.369029 13.945879 
L 64.010172 13.739823 
L 63.651314 13.533766 
L 63.292456 13.327709 
L 62.933598 13.121652 
L 62.81994 12.837506 
L 62.706282 12.55336 
L 62.592591 12.166058 
L 62.4789 11.778756 
L 62.365208 11.391454 
L 62.251517 11.004152 
L 62.137826 10.61685 
L 62.024134 10.229548 
L 61.910443 9.842246 
L 61.796752 9.454944 
L 61.633302 9.254198 
L 61.469852 9.053452 
L 61.306402 8.852705 
L 61.142952 8.651959 
L 60.979503 8.451213 
L 60.816053 8.250467 
L 60.652603 8.049721 
L 60.489153 7.848975 
L 60.325703 7.648229 
L 60.162253 7.447482 
L 59.998804 7.246736 
L 59.835354 7.04599 
L 59.671904 6.845244 
L 59.508454 6.644498 
L 59.345004 6.443752 
L 59.181554 6.243006 
L 59.011001 6.036949 
L 58.840447 5.830892 
L 58.669894 5.624835 
L 58.49934 5.418778 
L 58.328787 5.212721 
L 58.158233 5.006664 
L 57.98768 4.800607 
L 57.817126 4.59455 
L 57.493837 4.45953 
L 57.170547 4.32451 
L 56.847257 4.189489 
L 56.523967 4.054469 
" style="fill:none;stroke:#008000;stroke-linecap:square;stroke-width:0.592883;"/>
   </g>
   <g id="line2d_56">
    <path clip-path="url(#p2632008459)" d="M 6.375282 59.96021 
L 8.748725 61.303022 
L 10.113152 62.248164 
L 10.336958 62.752558 
L 10.667402 63.938935 
L 11.026259 64.567643 
L 11.591371 65.132281 
L 11.882537 66.126962 
L 11.918039 66.439489 
L 12.287626 66.879983 
L 13.698286 67.309856 
L 15.542251 67.476826 
L 16.416412 67.512344 
L 16.736191 67.562138 
L 18.270974 68.286778 
L 21.468901 68.698892 
L 21.767353 68.670511 
L 23.131649 67.974252 
L 23.884866 67.860559 
L 24.517271 67.91732 
L 25.569007 68.173086 
L 27.477053 68.279641 
L 29.406493 68.137398 
L 29.641029 68.101879 
L 31.452936 66.879983 
L 32.739208 66.126962 
L 33.677219 65.31701 
L 34.814198 64.237357 
L 36.69022 63.654619 
L 39.042334 63.043671 
L 40.747803 62.063265 
L 42.602564 60.798713 
L 42.602564 60.798713 
" style="fill:none;stroke:#008000;stroke-linecap:square;stroke-width:0.592883;"/>
   </g>
   <g id="line2d_57">
    <path clip-path="url(#p2632008459)" d="M 52.394917 48.621218 
L 52.352262 48.855656 
L 52.309607 49.090093 
L 52.266952 49.324531 
L 52.224297 49.558968 
L 52.174555 49.85739 
L 52.124813 50.155811 
L 52.075071 50.454232 
L 52.025329 50.752654 
L 51.940085 51.015557 
L 51.854842 51.27846 
L 51.769598 51.541363 
L 51.684354 51.804266 
L 51.595534 52.180777 
L 51.506714 52.557287 
L 51.417894 52.933798 
L 51.329073 53.310308 
L 51.236676 53.527072 
L 51.144279 53.743835 
L 51.051883 53.960599 
L 50.959486 54.177362 
L 50.891993 54.411799 
L 50.8245 54.646237 
L 50.757007 54.880674 
L 50.689514 55.115112 
L 50.675208 55.498675 
L 50.660901 55.882238 
L 50.753364 56.273109 
L 50.845827 56.66398 
L 50.97366 57.047543 
L 51.101492 57.431106 
L 51.179649 57.715253 
L 51.257805 57.999399 
L 51.215283 58.439893 
L 51.17276 58.880387 
L 51.158454 59.228602 
L 51.144147 59.576817 
L 51.11156 59.946955 
L 51.085198 60.244866 
L 51.058837 60.542778 
L 51.012672 60.7773 
L 50.966506 61.011823 
L 50.920341 61.246345 
L 50.874176 61.480868 
L 50.8245 61.871569 
L 50.774824 62.26227 
L 50.831521 62.546416 
L 51.002141 62.617452 
L 51.442732 62.53214 
L 51.663027 62.319031 
L 51.883322 62.105921 
L 52.096465 61.903433 
L 52.309607 61.700945 
L 52.522749 61.498457 
L 52.735891 61.295969 
L 52.945523 61.143274 
L 53.155155 60.99058 
L 53.364786 60.837885 
L 53.574418 60.685191 
L 53.901351 60.41498 
L 54.02925 60.173405 
L 54.157148 59.93183 
L 54.285047 59.690255 
L 54.412945 59.44868 
L 54.62973 59.178724 
L 54.846515 58.908768 
L 55.0633 58.638812 
L 55.280085 58.368856 
" style="fill:none;stroke:#008000;stroke-linecap:square;stroke-width:0.592883;"/>
   </g>
   <g id="line2d_58">
    <path clip-path="url(#p2632008459)" d="M 55.280085 58.368856 
L 55.407984 58.162842 
L 55.535883 57.956828 
L 55.663781 57.750813 
L 55.79168 57.544799 
L 55.919578 57.338784 
L 56.047477 57.13277 
L 56.175375 56.926756 
L 56.303274 56.720741 
L 56.46674 56.418751 
L 56.630207 56.116761 
L 56.793673 55.814771 
L 56.95714 55.51278 
L 57.163195 55.27129 
L 57.36925 55.0298 
L 57.575305 54.78831 
L 57.78136 54.54682 
L 58.122467 54.291054 
L 58.463574 54.035289 
L 58.7762 53.786491 
L 59.088826 53.537693 
" style="fill:none;stroke:#008000;stroke-linecap:square;stroke-width:0.592883;"/>
   </g>
   <g id="line2d_59">
    <path clip-path="url(#p2632008459)" d="M 59.088826 53.537693 
L 59.284284 53.384999 
L 59.479741 53.232304 
L 59.675199 53.07961 
L 59.870657 52.926915 
L 60.073201 52.735049 
L 60.275746 52.543182 
L 60.478291 52.351315 
L 60.680835 52.159449 
L 60.844235 51.978289 
L 61.007636 51.797129 
L 61.171036 51.615968 
L 61.334436 51.434808 
" style="fill:none;stroke:#4169e1;stroke-linecap:square;stroke-width:0.592883;"/>
   </g>
   <g id="line2d_60">
    <path clip-path="url(#p2632008459)" d="M 71.993664 15.950877 
L 72.164218 16.3488 
L 72.334771 16.746724 
L 72.505325 17.144647 
L 72.675878 17.542571 
L 72.832257 17.954769 
L 72.988637 18.366968 
L 73.145016 18.779167 
L 73.301395 19.191366 
L 73.407967 19.560866 
L 73.514538 19.930366 
L 73.621109 20.299867 
L 73.72768 20.669367 
L 73.834251 21.038868 
L 73.940822 21.408368 
L 74.047393 21.777868 
L 74.153964 22.147369 
L 74.189499 22.531059 
L 74.225034 22.91475 
L 74.260568 23.298441 
L 74.296103 23.682131 
L 74.331638 24.065822 
L 74.367173 24.449513 
L 74.402707 24.833203 
L 74.438242 25.216894 
L 74.434698 25.447827 
L 74.431155 25.678759 
L 74.427611 25.909691 
L 74.424068 26.140624 
L 74.420524 26.371556 
L 74.416981 26.602489 
L 74.413437 26.833421 
L 74.409894 27.064353 
L 74.40635 27.295286 
L 74.402807 27.526218 
L 74.399263 27.757151 
L 74.39572 27.988083 
L 74.392176 28.219016 
L 74.388632 28.449948 
L 74.385089 28.68088 
L 74.381545 28.911813 
L 74.346011 29.174716 
L 74.310476 29.437619 
L 74.274941 29.700522 
L 74.239406 29.963425 
L 74.203872 30.226328 
L 74.168337 30.489231 
L 74.132802 30.752135 
L 74.097268 31.015038 
" style="fill:none;stroke:#ff0000;stroke-linecap:square;stroke-width:0.592883;"/>
   </g>
   <g id="line2d_61">
    <path clip-path="url(#p2632008459)" d="M 43.114158 27.83165 
L 43.42685 28.130071 
L 43.739543 28.428493 
L 44.052235 28.726914 
L 44.364928 29.025335 
L 44.67762 29.323757 
L 44.990313 29.622178 
L 45.303005 29.920599 
L 45.615697 30.219021 
L 45.956804 30.332713 
L 46.297911 30.446406 
L 46.639018 30.560098 
L 46.980125 30.67379 
L 47.321232 30.787483 
L 47.662339 30.901175 
L 48.003446 31.014868 
L 48.344553 31.12856 
L 48.564832 31.306194 
L 48.785111 31.483828 
L 49.00539 31.661462 
L 49.225669 31.839095 
L 49.445948 32.016729 
L 49.666227 32.194363 
L 49.886506 32.371997 
L 50.106784 32.54963 
L 50.327063 32.727264 
L 50.547342 32.904898 
L 50.767621 33.082532 
L 50.9879 33.260166 
L 51.208179 33.437799 
L 51.428458 33.615433 
L 51.648737 33.793067 
L 51.869016 33.970701 
L 52.039569 34.169641 
L 52.210123 34.368582 
L 52.380676 34.567522 
L 52.55123 34.766463 
L 52.721783 34.965403 
L 52.892337 35.164344 
L 53.06289 35.363284 
L 53.233444 35.562225 
L 53.403997 35.761165 
L 53.574551 35.960106 
L 53.745104 36.159046 
L 53.915658 36.357987 
L 54.086211 36.556927 
L 54.256765 36.755868 
L 54.427318 36.954808 
L 54.597872 37.153749 
" style="fill:none;stroke:#ff0000;stroke-linecap:square;stroke-width:0.592883;"/>
   </g>
   <g id="line2d_62">
    <path clip-path="url(#p2632008459)" d="M 7.412778 31.242423 
L 7.327501 31.547939 
L 7.242224 31.853456 
L 7.156947 32.158972 
L 7.071671 32.464489 
L 6.986394 32.770005 
L 6.901117 33.075522 
L 6.81584 33.381038 
L 6.730564 33.686555 
L 6.645287 33.992071 
L 6.56001 34.297588 
L 6.474733 34.603104 
L 6.389457 34.908621 
L 6.30418 35.214137 
L 6.218903 35.519654 
L 6.133626 35.82517 
L 6.04835 36.130687 
L 6.034142 36.393569 
L 6.019935 36.656451 
L 6.005728 36.919332 
L 5.991521 37.182214 
L 5.977313 37.445096 
L 5.963106 37.707978 
L 5.948899 37.97086 
L 5.934692 38.233742 
L 5.920484 38.496624 
L 5.906277 38.759505 
L 5.89207 39.022387 
L 5.877862 39.285269 
L 5.863655 39.548151 
L 5.849448 39.811033 
L 5.835241 40.073915 
L 5.821033 40.336797 
L 5.899206 40.670736 
L 5.97738 41.004676 
L 6.055553 41.338615 
L 6.133726 41.672555 
L 6.211899 42.006495 
L 6.290072 42.340434 
L 6.368245 42.674374 
L 6.446418 43.008314 
L 6.524591 43.342253 
L 6.602764 43.676193 
L 6.680937 44.010132 
L 6.759111 44.344072 
L 6.837284 44.678012 
L 6.915457 45.011951 
L 6.99363 45.345891 
L 7.071803 45.679831 
L 7.100218 46.077712 
L 7.128632 46.475593 
L 7.157047 46.873474 
L 7.185461 47.271355 
L 7.213876 47.669235 
L 7.24229 48.067116 
L 7.270705 48.464997 
L 7.299119 48.862878 
L 7.355965 49.104454 
L 7.412811 49.346029 
L 7.469656 49.587604 
L 7.526502 49.829179 
L 7.583348 50.070754 
L 7.640193 50.312329 
L 7.697039 50.553905 
L 7.753884 50.79548 
L 7.81073 51.037055 
L 7.867576 51.27863 
L 7.924421 51.520205 
L 7.981267 51.76178 
L 8.038113 52.003355 
L 8.094958 52.244931 
L 8.151804 52.486506 
L 8.20865 52.728081 
L 8.20865 53.140152 
L 8.20865 53.552224 
L 8.20865 53.964295 
L 8.20865 54.376366 
L 8.20865 54.788437 
L 8.20865 55.200509 
L 8.20865 55.61258 
L 8.20865 56.024651 
" style="fill:none;stroke:#4169e1;stroke-linecap:square;stroke-width:0.592883;"/>
   </g>
   <g id="line2d_63">
    <path clip-path="url(#p2632008459)" d="M 61.334436 51.434808 
L 61.767874 51.335391 
L 62.201311 51.235974 
L 62.474925 51.243027 
L 62.74854 51.250079 
L 63.022154 51.257132 
L 63.295768 51.264185 
L 63.707944 51.342359 
L 64.120121 51.420533 
L 64.532297 51.498707 
L 64.944474 51.576881 
" style="fill:none;stroke:#008000;stroke-linecap:square;stroke-width:0.592883;"/>
   </g>
   <g id="line2d_64">
    <path clip-path="url(#p2632008459)" d="M 22.613298 35.148751 
L 22.78723 35.554407 
L 22.961161 35.960063 
L 23.195631 36.201723 
L 23.430101 36.443383 
L 23.742727 36.748942 
L 24.055353 37.054501 
L 24.318303 37.402546 
L 24.581254 37.750591 
L 24.645236 38.020632 
L 24.709219 38.290673 
L 24.773201 38.560714 
L 24.837183 38.830754 
L 24.858511 39.285354 
L 24.879838 39.739954 
L 24.794528 39.981529 
L 24.709219 40.223104 
L 24.623909 40.464679 
L 24.538599 40.706254 
L 24.442692 40.951398 
L 24.346784 41.196542 
L 24.250877 41.441686 
L 24.154969 41.68683 
L 24.108804 41.949733 
L 24.062639 42.212637 
L 24.016473 42.47554 
L 23.970308 42.738443 
L 23.963155 43.146988 
L 23.956001 43.555533 
L 23.948848 43.964078 
L 23.941695 44.372623 
L 23.920367 44.710131 
L 23.89904 45.04764 
L 23.877712 45.385148 
L 23.856385 45.722656 
L 23.756901 45.996181 
L 23.657417 46.269706 
L 23.557933 46.54323 
L 23.458449 46.816755 
L 23.295115 47.186213 
L 23.131781 47.555671 
L 22.804848 47.868197 
L 22.477915 48.180724 
L 22.241724 48.453994 
L 22.005532 48.727263 
L 21.76934 49.000533 
L 21.533149 49.273803 
" style="fill:none;stroke:#ff0000;stroke-linecap:square;stroke-width:0.592883;"/>
   </g>
  </g>
 </g>
 <defs>
  <clipPath id="p2632008459">
   <rect height="72" width="128.062733" x="0" y="0"/>
  </clipPath>
 </defs>
</svg>
