<?xml version="1.0" encoding="utf-8" standalone="no"?>
<!DOCTYPE svg PUBLIC "-//W3C//DTD SVG 1.1//EN"
  "http://www.w3.org/Graphics/SVG/1.1/DTD/svg11.dtd">
<svg height="72pt" version="1.1" viewBox="0 0 50.81438 72" width="50.81438pt" xmlns="http://www.w3.org/2000/svg" xmlns:xlink="http://www.w3.org/1999/xlink">
 <metadata>
  <rdf:RDF xmlns:cc="http://creativecommons.org/ns#" xmlns:dc="http://purl.org/dc/elements/1.1/" xmlns:rdf="http://www.w3.org/1999/02/22-rdf-syntax-ns#">
   <cc:Work>
    <dc:type rdf:resource="http://purl.org/dc/dcmitype/StillImage"/>
    <dc:date>2022-04-19T00:52:01.755417</dc:date>
    <dc:format>image/svg+xml</dc:format>
    <dc:creator>
     <cc:Agent>
      <dc:title>Matplotlib v3.4.3, https://matplotlib.org/</dc:title>
     </cc:Agent>
    </dc:creator>
   </cc:Work>
  </rdf:RDF>
 </metadata>
 <defs>
  <style type="text/css">*{stroke-linecap:butt;stroke-linejoin:round;}</style>
 </defs>
 <g id="figure_1">
  <g id="patch_1">
   <path d="M 0 72 
L 50.81438 72 
L 50.81438 0 
L 0 0 
z
" style="fill:#ffffff;"/>
  </g>
  <g id="axes_1">
   <g id="line2d_1">
    <path clip-path="url(#p11367cf497)" d="M 34.265832 59.608184 
L 32.045055 52.595657 
L 29.824277 45.583129 
L 27.6035 38.570602 
L 25.382722 31.558074 
L 23.161945 24.545546 
L 20.941167 17.533019 
L 18.72039 10.520491 
L 16.499612 3.507964 
" style="fill:none;stroke:#808080;stroke-linecap:square;stroke-width:0.4;"/>
   </g>
   <g id="line2d_2">
    <path clip-path="url(#p11367cf497)" d="M 43.672278 49.46545 
L 40.116315 42.777751 
L 37.312053 37.503308 
L 34.50779 32.228865 
L 32.012771 27.53792 
L 29.517752 22.846974 
L 27.072348 18.246998 
L 24.626944 13.647023 
L 21.435278 7.644817 
L 19.110852 3.272727 
" style="fill:none;stroke:#808080;stroke-linecap:square;stroke-width:0.4;"/>
   </g>
   <g id="line2d_3">
    <path clip-path="url(#p11367cf497)" d="M 23.252679 63.302132 
L 22.384758 57.109716 
L 21.516836 50.9173 
L 20.648915 44.724884 
L 19.780994 38.532468 
" style="fill:none;stroke:#808080;stroke-linecap:square;stroke-width:0.4;"/>
   </g>
   <g id="line2d_4">
    <path clip-path="url(#p11367cf497)" d="M 16.529517 68.186964 
L 14.640072 61.873714 
L 12.750627 55.560463 
L 10.861182 49.247213 
L 8.971737 42.933962 
" style="fill:none;stroke:#808080;stroke-linecap:square;stroke-width:0.4;"/>
   </g>
   <g id="line2d_5">
    <path clip-path="url(#p11367cf497)" d="M 14.797752 68.727273 
L 12.926318 62.414022 
L 11.054884 56.100772 
L 9.18345 49.787521 
L 7.312016 43.474271 
" style="fill:none;stroke:#808080;stroke-linecap:square;stroke-width:0.4;"/>
   </g>
   <g id="line2d_6">
    <path clip-path="url(#p11367cf497)" d="M 23.616975 62.179245 
L 22.957028 57.374357 
L 22.297082 52.569468 
" style="fill:none;stroke:#808080;stroke-linecap:square;stroke-width:0.4;"/>
   </g>
   <g id="line2d_7">
    <path clip-path="url(#p11367cf497)" d="M 22.91421 35.98346 
L 23.271624 37.588076 
L 23.629039 39.192692 
L 23.986453 40.797308 
L 24.343867 42.401924 
L 24.701282 44.006539 
L 25.058696 45.611155 
L 25.41611 47.215771 
L 25.773525 48.820387 
L 26.130939 50.425003 
L 26.488353 52.029619 
L 26.845768 53.634235 
L 27.203182 55.238851 
L 27.560596 56.843467 
L 27.918011 58.448083 
L 28.275425 60.052698 
L 28.632839 61.657314 
" style="fill:none;stroke:#008000;stroke-linecap:square;stroke-width:0.4;"/>
   </g>
   <g id="line2d_8">
    <path clip-path="url(#p11367cf497)" d="M 15.477409 40.241607 
L 15.719706 41.774779 
L 15.962004 43.307951 
L 16.204302 44.841123 
L 16.446599 46.374296 
L 16.688897 47.907468 
L 16.931194 49.44064 
L 17.173492 50.973812 
L 17.415789 52.506984 
L 17.658087 54.040156 
L 17.900384 55.573328 
L 18.142682 57.1065 
L 18.384979 58.639672 
L 18.627277 60.172844 
L 18.869574 61.706016 
L 19.111872 63.239188 
L 19.354169 64.77236 
" style="fill:none;stroke:#008000;stroke-linecap:square;stroke-width:0.4;"/>
   </g>
   <g id="line2d_9">
    <path clip-path="url(#p11367cf497)" d="M 26.035192 7.330556 
L 26.737363 8.734854 
L 27.439533 10.139151 
L 28.141703 11.543448 
L 28.843873 12.947746 
L 29.546043 14.352043 
L 30.248213 15.75634 
L 30.950383 17.160638 
L 31.652553 18.564935 
L 32.354723 19.969232 
L 33.056893 21.37353 
L 33.759063 22.777827 
L 34.461234 24.182124 
L 35.163404 25.586422 
L 35.865574 26.990719 
L 36.567744 28.395017 
L 37.269914 29.799314 
L 37.972084 31.203611 
L 38.674254 32.607909 
L 39.376424 34.012206 
L 40.078594 35.416503 
L 40.780764 36.820801 
L 41.482934 38.225098 
L 42.185104 39.629395 
L 42.887275 41.033693 
L 43.589445 42.43799 
L 44.291615 43.842287 
L 44.993785 45.246585 
L 45.695955 46.650882 
L 46.398125 48.055179 
L 47.100295 49.459477 
L 47.802465 50.863774 
L 48.504635 52.268072 
" style="fill:none;stroke:#008000;stroke-linecap:square;stroke-width:0.4;"/>
   </g>
   <g id="line2d_10">
    <path clip-path="url(#p11367cf497)" d="M 21.991236 12.90272 
L 22.519245 14.270549 
L 23.047253 15.638378 
L 23.575261 17.006206 
L 24.103269 18.374035 
L 24.631277 19.741864 
L 25.159285 21.109693 
L 25.687293 22.477522 
L 26.215301 23.84535 
L 26.74331 25.213179 
L 27.271318 26.581008 
L 27.799326 27.948837 
L 28.327334 29.316666 
L 28.855342 30.684494 
L 29.38335 32.052323 
L 29.911358 33.420152 
L 30.439366 34.787981 
L 30.967374 36.15581 
L 31.495383 37.523639 
L 32.023391 38.891467 
L 32.551399 40.259296 
L 33.079407 41.627125 
L 33.607415 42.994954 
L 34.135423 44.362783 
L 34.663431 45.730611 
L 35.191439 47.09844 
L 35.719448 48.466269 
L 36.247456 49.834098 
L 36.775464 51.201927 
L 37.303472 52.569755 
L 37.83148 53.937584 
L 38.359488 55.305413 
L 38.887496 56.673242 
" style="fill:none;stroke:#008000;stroke-linecap:square;stroke-width:0.4;"/>
   </g>
   <g id="line2d_11">
    <path clip-path="url(#p11367cf497)" d="M 7.982157 42.779588 
L 8.465733 44.394312 
L 8.949309 46.009036 
L 9.432884 47.623759 
L 9.91646 49.238483 
L 10.400035 50.853207 
L 10.883611 52.467931 
L 11.367186 54.082654 
L 11.850762 55.697378 
L 12.334338 57.312102 
L 12.817913 58.926826 
L 13.301489 60.541549 
L 13.785064 62.156273 
L 14.26864 63.770997 
L 14.752215 65.38572 
L 15.235791 67.000444 
L 15.719367 68.615168 
" style="fill:none;stroke:#008000;stroke-linecap:square;stroke-width:0.4;"/>
   </g>
   <g id="line2d_12">
    <path clip-path="url(#p11367cf497)" d="M 18.726167 13.196765 
L 19.150442 15.603574 
L 19.574718 18.010383 
L 19.998993 20.417192 
L 20.423269 22.824001 
L 20.847545 25.23081 
L 21.27182 27.637619 
L 21.696096 30.044428 
L 22.120371 32.451237 
L 21.50868 33.620069 
L 20.423269 34.704362 
L 19.337858 35.788655 
L 18.781899 36.735114 
L 18.670435 38.238422 
" style="fill:none;stroke:#008000;stroke-linecap:square;stroke-width:0.4;"/>
   </g>
   <g id="line2d_13">
    <path clip-path="url(#p11367cf497)" d="M 16.555344 22.767949 
L 16.81973 25.133178 
L 17.084117 27.498407 
L 17.348503 29.863636 
L 17.61289 32.228865 
L 16.834003 34.232051 
L 16.834003 36.206751 
L 16.834003 38.181451 
" style="fill:none;stroke:#008000;stroke-linecap:square;stroke-width:0.4;"/>
   </g>
   <g id="line2d_14">
    <path clip-path="url(#p11367cf497)" d="M 14.94184 21.933595 
L 13.578449 23.102426 
L 12.215058 24.271257 
L 11.324708 25.66246 
L 10.434358 27.053663 
L 10.23267 28.361247 
L 10.030982 29.668831 
L 9.829294 30.976415 
L 9.627606 32.283999 
L 9.425918 33.591583 
L 9.22423 34.899167 
L 9.022542 36.206751 
L 8.820853 37.514335 
" style="fill:none;stroke:#008000;stroke-linecap:square;stroke-width:0.4;"/>
   </g>
   <g id="line2d_15">
    <path clip-path="url(#p11367cf497)" d="M 14.162953 11.58319 
L 12.577315 12.807155 
L 10.991676 14.03112 
L 9.983066 15.102319 
L 8.974456 16.173518 
L 7.965846 17.244716 
L 6.957235 18.315915 
L 5.948625 19.387114 
L 4.940015 20.458313 
L 3.931405 21.529512 
L 2.922795 22.600711 
L 2.309745 24.159152 
L 2.644136 26.607082 
L 3.297965 27.991393 
L 3.951795 29.375704 
L 4.605624 30.760016 
L 5.259454 32.144327 
L 5.913283 33.528639 
L 6.567113 34.91295 
L 7.220942 36.297262 
L 7.874772 37.681573 
" style="fill:none;stroke:#008000;stroke-linecap:square;stroke-width:0.4;"/>
   </g>
  </g>
 </g>
 <defs>
  <clipPath id="p11367cf497">
   <rect height="72" width="50.81438" x="0" y="0"/>
  </clipPath>
 </defs>
</svg>
