<?xml version="1.0" encoding="utf-8" standalone="no"?>
<!DOCTYPE svg PUBLIC "-//W3C//DTD SVG 1.1//EN"
  "http://www.w3.org/Graphics/SVG/1.1/DTD/svg11.dtd">
<svg height="138.006172pt" version="1.1" viewBox="0 0 72 138.006172" width="72pt" xmlns="http://www.w3.org/2000/svg" xmlns:xlink="http://www.w3.org/1999/xlink">
 <metadata>
  <rdf:RDF xmlns:cc="http://creativecommons.org/ns#" xmlns:dc="http://purl.org/dc/elements/1.1/" xmlns:rdf="http://www.w3.org/1999/02/22-rdf-syntax-ns#">
   <cc:Work>
    <dc:type rdf:resource="http://purl.org/dc/dcmitype/StillImage"/>
    <dc:date>2022-04-19T00:52:01.099095</dc:date>
    <dc:format>image/svg+xml</dc:format>
    <dc:creator>
     <cc:Agent>
      <dc:title>Matplotlib v3.4.3, https://matplotlib.org/</dc:title>
     </cc:Agent>
    </dc:creator>
   </cc:Work>
  </rdf:RDF>
 </metadata>
 <defs>
  <style type="text/css">*{stroke-linecap:butt;stroke-linejoin:round;}</style>
 </defs>
 <g id="figure_1">
  <g id="patch_1">
   <path d="M 0 138.006172 
L 72 138.006172 
L 72 0 
L 0 0 
z
" style="fill:#ffffff;"/>
  </g>
  <g id="axes_1">
   <g id="line2d_1">
    <path clip-path="url(#pa50495b5f0)" d="M 18.996329 119.134238 
L 21.453885 115.068533 
L 23.911441 111.002827 
L 24.794555 109.542804 
L 26.782306 106.253601 
L 28.770057 102.964398 
L 32.020038 97.58921 
L 35.294549 92.17196 
L 38.56906 86.754709 
L 39.58152 85.078838 
L 42.207076 80.73585 
L 44.832632 76.392862 
L 45.769269 74.844285 
L 47.809055 71.46985 
L 49.848841 68.095414 
L 51.106611 66.013304 
L 53.063884 62.775019 
L 55.021157 59.536734 
L 56.632767 56.871279 
" style="fill:none;stroke:#808080;stroke-linecap:square;stroke-width:0.4;"/>
   </g>
   <g id="line2d_2">
    <path clip-path="url(#pa50495b5f0)" d="M 12.47704 115.42496 
L 15.908401 110.053093 
L 17.92217 106.899487 
L 19.935939 103.745881 
L 21.972008 100.559622 
L 24.008078 97.373362 
L 25.882838 94.438372 
L 27.757598 91.503382 
L 29.632358 88.567286 
L 31.507118 85.631189 
L 34.227081 81.423799 
L 36.947044 77.216408 
L 38.664211 74.516638 
L 40.728528 71.272265 
L 42.792846 68.027892 
L 44.645305 65.117255 
L 46.497764 62.206617 
L 48.565798 58.955603 
L 51.649265 54.109521 
L 53.445229 51.286884 
" style="fill:none;stroke:#808080;stroke-linecap:square;stroke-width:0.4;"/>
   </g>
   <g id="line2d_3">
    <path clip-path="url(#pa50495b5f0)" d="M 43.601624 130.914046 
L 44.60219 128.858501 
L 46.023499 125.935134 
L 48.281833 121.293832 
L 50.981726 115.744859 
L 52.322751 112.988636 
L 53.182078 111.22089 
" style="fill:none;stroke:#808080;stroke-linecap:square;stroke-width:0.4;"/>
   </g>
   <g id="line2d_4">
    <path clip-path="url(#pa50495b5f0)" d="M 25.753493 124.171816 
L 29.289668 119.744702 
L 32.825843 115.317589 
" style="fill:none;stroke:#808080;stroke-linecap:square;stroke-width:0.4;"/>
   </g>
   <g id="line2d_5">
    <path clip-path="url(#pa50495b5f0)" d="M 25.044325 123.792143 
L 25.905139 122.070888 
" style="fill:none;stroke:#808080;stroke-linecap:square;stroke-width:0.4;"/>
   </g>
   <g id="line2d_6">
    <path clip-path="url(#pa50495b5f0)" d="M 53.024486 109.683383 
L 51.950327 109.70054 
L 50.876168 109.717697 
L 49.750718 110.212489 
L 48.625267 110.707281 
L 47.461533 111.276236 
L 46.297799 111.845191 
L 45.134065 112.414146 
L 43.970332 112.983101 
L 43.069005 113.441642 
L 42.167678 113.900182 
L 41.266351 114.358722 
L 40.365024 114.817262 
L 39.463697 115.275803 
L 38.56237 115.734343 
L 37.661043 116.192883 
L 36.759716 116.651423 
" style="fill:none;stroke:#4169e1;stroke-linecap:square;stroke-width:0.4;"/>
   </g>
   <g id="line2d_7">
    <path clip-path="url(#pa50495b5f0)" d="M 54.673263 110.094049 
L 55.360502 111.109922 
L 56.04774 112.125794 
L 56.734979 113.141667 
L 57.422217 114.15754 
L 58.41535 115.266671 
L 59.44119 116.413436 
L 60.80749 117.422944 
L 62.17379 118.432453 
L 63.598816 119.382741 
L 65.023841 120.333029 
L 66.033327 121.164323 
L 67.042814 121.995617 
L 66.626531 123.83642 
L 66.210248 125.677223 
L 65.142036 127.102378 
L 64.073824 128.527533 
L 62.766993 129.714701 
L 61.460162 130.901869 
L 59.500659 131.258297 
L 57.541155 131.614724 
L 55.938466 131.673944 
L 54.335777 131.733164 
L 52.969477 131.733164 
L 51.603177 131.733164 
L 49.82208 131.733164 
L 48.040984 131.733164 
L 46.7401 131.585391 
L 45.439216 131.437617 
" style="fill:none;stroke:#008000;stroke-linecap:square;stroke-width:0.4;"/>
   </g>
   <g id="line2d_8">
    <path clip-path="url(#pa50495b5f0)" d="M 59.09627 53.54278 
L 60.063756 54.071609 
L 61.031242 54.600439 
L 61.998728 55.129268 
L 62.966214 55.658098 
L 63.753807 56.299556 
L 64.541399 56.941014 
L 65.328992 57.582473 
L 66.116584 58.223931 
L 67.106743 59.03364 
L 68.096901 59.84335 
L 68.412087 60.945839 
L 68.727273 62.048328 
L 67.917008 63.781206 
L 67.106743 65.514084 
L 66.05154 66.749127 
L 64.996337 67.984169 
L 63.941134 69.219211 
L 62.885931 70.454254 
L 62.069347 71.285548 
L 61.252764 72.116843 
L 60.43618 72.948137 
L 59.619597 73.779432 
L 58.803013 74.610726 
L 57.98643 75.442021 
L 57.169846 76.273315 
L 56.353262 77.104609 
L 54.957971 78.321941 
L 53.56268 79.539273 
L 52.167389 80.756604 
L 50.772097 81.973936 
L 49.495373 83.487921 
L 48.218648 85.001907 
L 46.941923 86.515892 
L 45.665198 88.029878 
L 44.789517 88.935474 
L 43.913836 89.84107 
L 43.038155 90.746666 
L 42.162474 91.652263 
L 41.286793 92.557859 
L 40.411112 93.463455 
L 39.535432 94.369051 
L 38.659751 95.274648 
L 37.694866 96.788771 
L 36.729982 98.302895 
L 35.765097 99.817019 
L 34.800213 101.331142 
L 33.835329 102.845266 
L 32.870444 104.35939 
L 31.90556 105.873514 
L 30.940676 107.387637 
L 29.87172 109.020616 
L 28.802765 110.653595 
L 27.73381 112.286574 
L 26.664855 113.919553 
L 25.536803 115.433815 
L 24.40875 116.948077 
L 23.280698 118.462339 
L 22.152645 119.976601 
" style="fill:none;stroke:#4169e1;stroke-linecap:square;stroke-width:0.4;"/>
   </g>
   <g id="line2d_9">
    <path clip-path="url(#pa50495b5f0)" d="M 58.41535 115.266671 
L 57.99981 116.374141 
L 57.58427 117.481611 
L 56.084165 118.195019 
L 54.58406 118.908427 
L 53.153087 118.907873 
L 51.722115 118.90732 
L 50.059956 119.144753 
L 48.397798 119.382187 
L 47.307285 120.121607 
L 46.216773 120.861028 
L 45.312101 122.256296 
L 44.407429 123.651565 
L 43.937624 124.865853 
L 43.241836 126.662378 
L 42.546049 128.458904 
" style="fill:none;stroke:#008000;stroke-linecap:square;stroke-width:0.4;"/>
   </g>
   <g id="line2d_10">
    <path clip-path="url(#pa50495b5f0)" d="M 55.972661 48.403366 
L 55.6099 46.593557 
L 54.860591 44.758842 
L 54.111281 42.924128 
L 53.930644 41.347325 
L 53.750007 39.770522 
L 53.672326 38.723655 
L 53.594644 37.676789 
L 53.516963 36.629922 
L 53.439282 35.583056 
L 53.594644 33.696316 
L 53.750007 31.809577 
L 53.697972 30.103818 
L 53.645936 28.398059 
L 53.775282 27.105734 
L 53.904627 25.813409 
L 53.981936 24.753536 
L 54.059246 23.693663 
L 54.524591 21.884961 
L 55.170573 20.721592 
L 55.816555 19.558222 
L 55.971917 17.826451 
L 56.12728 16.09468 
L 55.855953 14.880116 
L 55.584626 13.665551 
L 55.313298 12.450987 
L 55.041971 11.236422 
L 54.511954 10.292776 
L 53.981936 9.349129 
L 53.451919 8.405483 
L 52.921902 7.461836 
L 51.449301 6.867422 
L 49.9767 6.273008 
L 48.342789 6.734039 
L 46.708879 7.195069 
L 45.944702 7.410918 
L 44.717039 8.160301 
L 43.489376 8.909683 
L 42.261713 9.659066 
L 41.03405 10.408449 
L 40.079573 11.340473 
L 38.861945 12.528194 
L 38.060601 14.027513 
L 37.259256 15.526832 
L 36.019327 15.940265 
L 34.779399 16.353698 
L 33.124674 17.465043 
L 31.46995 18.576387 
L 29.712641 19.041292 
L 27.98135 18.963808 
L 26.250059 18.886324 
L 24.64737 19.170802 
L 23.04468 19.455279 
L 21.597354 19.817241 
L 20.150027 20.179203 
L 19.012683 21.368031 
L 17.875338 22.55686 
L 17.074737 23.952682 
L 16.274136 25.348504 
L 15.007446 26.743772 
L 13.740756 28.139041 
L 12.164085 29.095417 
L 10.587413 30.051793 
L 9.295449 30.698232 
L 8.003486 31.344672 
L 6.516761 32.649173 
L 5.030036 33.953675 
L 5.000301 34.492743 
L 4.894744 36.418225 
L 4.789187 38.343706 
L 4.816691 40.033968 
L 4.844195 41.72423 
L 4.8717 43.414492 
L 4.899204 45.104754 
" style="fill:none;stroke:#4169e1;stroke-linecap:square;stroke-width:0.4;"/>
   </g>
   <g id="line2d_11">
    <path clip-path="url(#pa50495b5f0)" d="M 53.314397 48.465353 
L 52.15884 47.270436 
L 51.003283 46.07552 
L 49.847726 44.880603 
L 48.69217 43.685686 
L 47.390914 42.782719 
L 46.089658 41.879752 
L 44.788402 40.976784 
L 43.487146 40.073817 
L 42.250934 39.215957 
L 41.014723 38.358096 
L 40.113582 37.701833 
L 39.212441 37.04557 
L 38.3113 36.389306 
L 37.410158 35.733043 
L 36.509017 35.07678 
L 35.607876 34.420517 
L 34.706735 33.764253 
L 33.805594 33.10799 
L 32.121135 32.481199 
L 30.436676 31.854407 
L 28.752217 31.227615 
L 27.067757 30.600824 
L 25.574342 30.575365 
L 24.080927 30.549906 
L 22.524327 30.52334 
L 20.91792 31.110559 
L 19.311514 31.697778 
L 18.136258 32.187589 
L 16.961002 32.6774 
L 15.785746 33.16721 
L 14.61049 33.657021 
L 13.78796 34.30346 
L 12.96543 34.9499 
L 12.142899 35.596339 
L 11.320369 36.242778 
L 10.575891 37.359381 
L 9.831414 38.475983 
L 9.086936 39.592585 
L 8.342459 40.709187 
L 7.662654 41.572859 
L 6.982849 42.436531 
L 6.303044 43.300203 
L 5.623239 44.163874 
L 4.899204 45.104754 
L 4.085966 46.162413 
L 3.272727 47.220072 
L 3.272727 48.904522 
L 3.272727 50.588973 
L 3.272727 52.273423 
L 3.272727 53.957874 
L 3.566541 54.976514 
L 3.860355 55.995154 
L 4.154169 57.013794 
L 4.447983 58.032434 
L 4.741797 59.051074 
L 5.035611 60.069714 
L 5.329425 61.088355 
L 5.623239 62.106995 
L 6.465469 63.752426 
L 7.307698 65.397858 
L 8.149928 67.04329 
L 8.992158 68.688722 
L 10.049591 70.353524 
L 11.107024 72.018327 
L 12.164457 73.68313 
L 13.22189 75.347933 
L 13.966367 76.640811 
L 14.710844 77.93369 
L 15.455322 79.226569 
L 16.199799 80.519448 
L 16.395675 82.105936 
L 16.591551 83.692424 
L 16.787427 85.278913 
L 16.983303 86.865401 
L 16.846153 88.119261 
L 16.709003 89.373121 
L 16.571852 90.626981 
L 16.434702 91.880841 
" style="fill:none;stroke:#008000;stroke-linecap:square;stroke-width:0.4;"/>
   </g>
   <g id="line2d_12">
    <path clip-path="url(#pa50495b5f0)" d="M 50.169974 51.766179 
L 48.36732 51.335034 
L 46.564666 50.90389 
L 45.160455 49.685175 
L 43.756243 48.46646 
L 42.412244 47.29977 
L 41.217661 46.966864 
L 40.023077 46.633959 
L 38.828494 46.301054 
L 37.633911 45.968149 
L 36.164655 45.968149 
L 34.695399 45.968149 
L 33.226143 45.968149 
L 31.756887 45.968149 
L 29.915579 45.772224 
L 28.07427 45.5763 
L 27.193014 45.08649 
L 26.311758 44.596679 
L 25.430502 44.106868 
L 24.549246 43.617058 
L 23.354291 43.323448 
L 22.159336 43.029838 
L 20.964381 42.736229 
L 19.769426 42.442619 
L 18.516117 42.442619 
L 17.262808 42.442619 
L 16.009499 42.442619 
L 14.75619 42.442619 
L 13.614571 42.657776 
L 12.472952 42.872933 
L 11.331333 43.08809 
L 10.189714 43.303247 
L 9.048096 43.518404 
L 7.906477 43.733561 
L 6.764858 43.948717 
L 5.623239 44.163874 
" style="fill:none;stroke:#008000;stroke-linecap:square;stroke-width:0.4;"/>
   </g>
   <g id="line2d_13">
    <path clip-path="url(#pa50495b5f0)" d="M 37.633911 45.968149 
L 37.322442 46.989833 
L 37.010973 48.011517 
L 36.699504 49.033201 
L 36.388035 50.054885 
L 36.763433 51.96487 
L 37.138831 53.874855 
L 37.309061 54.863885 
L 37.479291 55.852915 
L 37.649521 56.841945 
L 37.819751 57.830975 
L 37.530211 58.956433 
L 37.240672 60.08189 
L 36.951132 61.207348 
L 36.661593 62.332806 
L 35.194939 63.628452 
L 33.728285 64.924098 
L 33.421276 66.032675 
L 33.114267 67.141252 
L 32.807259 68.249829 
L 32.50025 69.358406 
L 32.415135 70.569096 
L 32.33002 71.779787 
L 32.244905 72.990477 
L 32.15979 74.201167 
L 31.886976 75.991605 
L 31.614162 77.782042 
L 31.341348 79.57248 
L 31.068534 81.362918 
L 30.600587 83.062589 
L 30.132641 84.762259 
L 29.664694 86.46193 
L 29.196747 88.161601 
L 28.152323 89.435523 
L 27.107899 90.709446 
L 26.063475 91.983369 
L 25.019051 93.257292 
L 23.974627 94.531215 
L 22.930202 95.805137 
L 21.885778 97.07906 
L 20.841354 98.352983 
L 20.283089 99.485082 
L 19.724824 100.617181 
L 19.166559 101.74928 
L 18.608293 102.881379 
L 18.050028 104.013478 
L 17.491763 105.145578 
L 16.933498 106.277677 
L 16.375233 107.409776 
" style="fill:none;stroke:#4169e1;stroke-linecap:square;stroke-width:0.4;"/>
   </g>
   <g id="line2d_14">
    <path clip-path="url(#pa50495b5f0)" d="M 28.07427 45.5763 
L 26.464147 46.612374 
L 24.854024 47.648448 
L 23.949352 48.708321 
L 23.04468 49.768194 
L 22.657388 50.853526 
L 22.270097 51.938858 
L 22.78599 53.748666 
L 23.613352 54.808539 
L 24.440715 55.868412 
L 25.422697 57.134725 
L 26.404678 58.401037 
L 26.896041 59.874344 
L 27.387403 61.34765 
L 27.607067 62.407246 
L 27.82673 63.466842 
L 28.046394 64.526438 
L 28.266058 65.586034 
L 28.188005 67.57627 
L 28.109952 69.566506 
L 27.399297 70.794077 
L 26.688643 72.021648 
L 25.977988 73.249218 
L 25.267334 74.476789 
L 24.724679 75.678901 
L 24.182025 76.881012 
L 23.63937 78.083124 
L 23.096716 79.285235 
L 22.709052 80.667774 
L 22.321389 82.050313 
L 21.933725 83.432852 
L 21.546062 84.815391 
L 21.444407 85.846069 
L 21.342752 86.876747 
L 21.241097 87.907425 
L 21.139442 88.938103 
L 21.037788 89.968781 
L 20.936133 90.999458 
L 20.834478 92.030136 
L 20.732823 93.060814 
L 19.901372 94.392712 
L 19.069921 95.724609 
L 18.238471 97.056507 
L 17.40702 98.388404 
" style="fill:none;stroke:#4169e1;stroke-linecap:square;stroke-width:0.4;"/>
   </g>
   <g id="line2d_15">
    <path clip-path="url(#pa50495b5f0)" d="M 16.434702 91.880841 
L 16.677781 93.507732 
L 16.920861 95.134623 
L 17.16394 96.761513 
L 17.40702 98.388404 
L 17.459055 98.732655 
L 17.207427 100.560175 
L 16.955799 102.387694 
L 16.704171 104.215214 
L 16.452543 106.042734 
L 16.375233 107.409776 
L 16.309817 108.585598 
L 16.244401 109.76142 
L 16.178985 110.937243 
L 16.113569 112.113065 
L 16.048153 113.288887 
L 15.982737 114.464709 
L 15.917322 115.640532 
L 15.851906 116.816354 
" style="fill:none;stroke:#4169e1;stroke-linecap:square;stroke-width:0.4;"/>
   </g>
   <g id="line2d_16">
    <path clip-path="url(#pa50495b5f0)" d="M 43.937624 124.865853 
L 42.104492 125.26711 
L 40.27136 125.668367 
L 38.772742 125.38389 
L 37.274123 125.099412 
L 35.619398 124.479539 
L 34.427045 124.319036 
L 33.234692 124.158533 
L 32.200303 123.979489 
L 31.165914 123.800445 
L 30.131526 123.621401 
L 29.097137 123.442358 
" style="fill:none;stroke:#008000;stroke-linecap:square;stroke-width:0.4;"/>
   </g>
   <g id="line2d_17">
    <path clip-path="url(#pa50495b5f0)" d="M 36.759716 116.651423 
L 35.801894 117.50029 
L 34.844071 118.349157 
L 33.886249 119.198024 
L 32.928427 120.046891 
L 31.970604 120.895757 
L 31.012782 121.744624 
L 30.054959 122.593491 
L 29.097137 123.442358 
L 27.632713 124.740771 
" style="fill:none;stroke:#008000;stroke-linecap:square;stroke-width:0.4;"/>
   </g>
   <g id="line2d_18">
    <path clip-path="url(#pa50495b5f0)" d="M 55.327422 53.895886 
L 54.7069 54.763847 
L 54.086379 55.631808 
L 53.465857 56.49977 
L 52.845335 57.367731 
L 52.224813 58.235692 
L 51.604292 59.103653 
L 50.98377 59.971614 
L 50.363248 60.839575 
L 49.878204 61.763297 
L 49.39316 62.687019 
L 48.908116 63.610741 
L 48.423072 64.534463 
L 47.938028 65.458185 
L 47.452984 66.381907 
L 46.96794 67.305629 
L 46.482896 68.229351 
L 45.808295 69.363111 
L 45.133694 70.49687 
L 44.459092 71.630629 
L 43.784491 72.764389 
L 43.10989 73.898148 
L 42.435288 75.031908 
L 41.760687 76.165667 
L 41.086085 77.299427 
L 40.537298 78.17569 
L 39.988511 79.051953 
L 39.439724 79.928216 
L 38.890936 80.804479 
L 38.342149 81.680742 
L 37.793362 82.557005 
L 37.244574 83.433267 
L 36.695787 84.30953 
L 35.758407 84.791039 
L 34.821027 85.272548 
L 33.883647 85.754057 
L 32.946267 86.235566 
L 32.008887 86.717074 
L 31.071507 87.198583 
L 30.134127 87.680092 
L 29.196747 88.161601 
" style="fill:none;stroke:#000000;stroke-linecap:square;stroke-width:0.4;"/>
   </g>
   <g id="line2d_19">
    <path clip-path="url(#pa50495b5f0)" d="M 43.756243 48.46646 
L 43.833553 47.440901 
L 43.910863 46.415343 
L 43.804933 44.829962 
L 43.699004 43.24458 
L 43.593075 41.659199 
L 43.487146 40.073817 
L 43.45927 38.705115 
L 43.431394 37.336412 
L 43.403518 35.967709 
L 43.375642 34.599007 
L 43.835783 33.188518 
L 44.295924 31.77803 
L 44.756066 30.367541 
L 45.216207 28.957052 
L 44.99357 27.368627 
L 44.770933 25.780201 
L 44.548296 24.191776 
L 44.325659 22.60335 
L 44.5338 21.564509 
L 44.741942 20.525668 
L 45.231818 19.278726 
L 45.721693 18.031784 
L 46.211569 16.784843 
L 46.701445 15.537901 
L 47.191321 14.290959 
L 47.681197 13.044017 
L 48.171072 11.797076 
L 48.660948 10.550134 
L 48.660948 10.252373 
L 48.812594 8.427068 
L 47.760736 7.811069 
L 46.708879 7.195069 
" style="fill:none;stroke:#008000;stroke-linecap:square;stroke-width:0.4;"/>
   </g>
  </g>
 </g>
 <defs>
  <clipPath id="pa50495b5f0">
   <rect height="138.006172" width="72" x="0" y="0"/>
  </clipPath>
 </defs>
</svg>
