<?xml version="1.0" encoding="utf-8" standalone="no"?>
<!DOCTYPE svg PUBLIC "-//W3C//DTD SVG 1.1//EN"
  "http://www.w3.org/Graphics/SVG/1.1/DTD/svg11.dtd">
<svg xmlns:xlink="http://www.w3.org/1999/xlink" width="72pt" height="67.268536pt" viewBox="0 0 72 67.268536" xmlns="http://www.w3.org/2000/svg" version="1.1">
 <metadata>
  <rdf:RDF xmlns:dc="http://purl.org/dc/elements/1.1/" xmlns:cc="http://creativecommons.org/ns#" xmlns:rdf="http://www.w3.org/1999/02/22-rdf-syntax-ns#">
   <cc:Work>
    <dc:type rdf:resource="http://purl.org/dc/dcmitype/StillImage"/>
    <dc:date>2022-05-17T22:22:05.439271</dc:date>
    <dc:format>image/svg+xml</dc:format>
    <dc:creator>
     <cc:Agent>
      <dc:title>Matplotlib v3.5.2, https://matplotlib.org/</dc:title>
     </cc:Agent>
    </dc:creator>
   </cc:Work>
  </rdf:RDF>
 </metadata>
 <defs>
  <style type="text/css">*{stroke-linejoin: round; stroke-linecap: butt}</style>
 </defs>
 <g id="figure_1">
  <g id="patch_1">
   <path d="M 0 67.268536 
L 72 67.268536 
L 72 0 
L 0 0 
z
" style="fill: #ffffff"/>
  </g>
  <g id="axes_1">
   <g id="line2d_1">
    <path d="M 65.20868 17.71944 
L 62.044257 18.137618 
L 58.804979 18.565597 
L 55.565701 18.993576 
L 52.21906 19.435515 
L 48.872419 19.877453 
L 45.56898 20.313748 
L 42.265541 20.750044 
L 40.35675 21.002198 
L 38.447958 21.254352 
L 36.539167 21.506506 
L 34.630375 21.758661 
L 31.86375 22.12427 
L 29.097126 22.489879 
L 25.890784 22.913403 
" clip-path="url(#pf840a174d1)" style="fill: none; stroke: #808080; stroke-width: 0.4; stroke-linecap: square"/>
   </g>
   <g id="line2d_2">
    <path d="M 65.479012 16.668054 
L 63.533649 16.922287 
L 61.588286 17.176521 
L 58.275009 17.608955 
L 55.409148 17.983474 
L 52.543287 18.357993 
L 49.581613 18.744837 
L 46.619938 19.131682 
L 43.658264 19.518527 
L 40.696589 19.905371 
L 37.505218 20.322361 
L 34.313847 20.739351 
L 32.28593 21.004277 
L 30.258013 21.269202 
L 27.913996 21.575114 
" clip-path="url(#pf840a174d1)" style="fill: none; stroke: #808080; stroke-width: 0.4; stroke-linecap: square"/>
   </g>
   <g id="line2d_3">
    <path d="M 65.097468 18.26117 
L 62.829267 18.565857 
L 60.561067 18.870543 
L 58.292867 19.17523 
L 56.024666 19.479916 
L 53.756466 19.784603 
L 51.488266 20.089289 
L 49.220065 20.393976 
L 46.951865 20.698662 
L 44.683665 21.003349 
L 42.415464 21.308035 
L 40.147264 21.612722 
L 37.879064 21.917408 
L 35.610863 22.222095 
L 33.342663 22.526781 
L 31.074462 22.831468 
L 28.806262 23.136154 
" clip-path="url(#pf840a174d1)" style="fill: none; stroke: #808080; stroke-width: 0.4; stroke-linecap: square"/>
   </g>
   <g id="line2d_4">
    <path d="M 43.748945 55.046595 
L 43.241645 54.09322 
L 42.324997 52.37076 
L 41.408349 50.648299 
L 40.491702 48.925839 
L 39.575054 47.203378 
L 37.775123 43.822312 
L 36.676685 41.758152 
L 35.578248 39.693991 
L 34.361754 37.408267 
L 33.410887 35.621802 
L 32.460021 33.835338 
L 31.415051 31.871861 
L 30.370081 29.908384 
L 29.321689 27.938669 
L 28.273298 25.968955 
L 27.34339 24.221398 
" clip-path="url(#pf840a174d1)" style="fill: none; stroke: #808080; stroke-width: 0.4; stroke-linecap: square"/>
   </g>
   <g id="line2d_5">
    <path d="M 41.490476 54.971157 
L 40.588371 53.097077 
L 39.686267 51.222997 
L 38.784162 49.348917 
L 37.882058 47.474838 
L 36.979953 45.600758 
L 36.077849 43.726678 
L 35.175744 41.852598 
L 34.27364 39.978518 
L 33.371535 38.104438 
L 32.469431 36.230359 
L 31.567326 34.356279 
L 30.665222 32.482199 
L 29.763117 30.608119 
L 28.861013 28.734039 
L 27.958908 26.85996 
L 27.056804 24.98588 
" clip-path="url(#pf840a174d1)" style="fill: none; stroke: #808080; stroke-width: 0.4; stroke-linecap: square"/>
   </g>
   <g id="line2d_6">
    <path d="M 31.241816 61.960198 
L 30.989449 60.608246 
L 30.499686 57.979783 
L 30.009924 55.351319 
L 29.647414 53.407295 
L 29.284904 51.463272 
L 28.922394 49.519248 
L 28.559884 47.575224 
L 27.93581 44.229205 
L 27.311737 40.883185 
L 26.768507 37.969006 
L 26.225277 35.054827 
L 25.951523 33.586451 
L 25.427541 30.776519 
L 24.903559 27.966587 
L 24.640926 26.557612 
" clip-path="url(#pf840a174d1)" style="fill: none; stroke: #808080; stroke-width: 0.4; stroke-linecap: square"/>
   </g>
   <g id="line2d_7">
    <path d="M 29.917532 61.792095 
L 29.382001 58.819109 
L 28.832782 55.767121 
L 28.283563 52.715133 
L 27.925331 50.72552 
L 27.567098 48.735906 
L 27.208866 46.746293 
L 26.850633 44.756679 
L 26.387176 42.181973 
L 25.92372 39.607266 
L 25.460263 37.03256 
L 24.996806 34.457853 
L 24.346213 30.843938 
L 23.69562 27.230023 
" clip-path="url(#pf840a174d1)" style="fill: none; stroke: #808080; stroke-width: 0.4; stroke-linecap: square"/>
   </g>
   <g id="line2d_8">
    <path d="M 27.101289 61.056125 
L 25.608689 59.608168 
L 24.116089 58.160211 
L 22.623489 56.712254 
L 21.130889 55.264297 
L 19.638288 53.816341 
L 18.145688 52.368384 
L 16.653088 50.920427 
L 15.160488 49.47247 
" clip-path="url(#pf840a174d1)" style="fill: none; stroke: #808080; stroke-width: 0.4; stroke-linecap: square"/>
   </g>
   <g id="line2d_9">
    <path d="M 35.308772 57.988099 
L 34.557232 55.233706 
L 33.805692 52.479314 
" clip-path="url(#pf840a174d1)" style="fill: none; stroke: #808080; stroke-width: 0.4; stroke-linecap: square"/>
   </g>
   <g id="line2d_10">
    <path d="M 37.077906 64.210875 
L 39.06861 62.872883 
L 41.059313 61.534891 
L 43.050017 60.196899 
L 45.040721 58.858907 
" clip-path="url(#pf840a174d1)" style="fill: none; stroke: #808080; stroke-width: 0.4; stroke-linecap: square"/>
   </g>
   <g id="line2d_11">
    <path d="M 37.682731 61.948912 
L 40.350548 60.045726 
L 43.018364 58.14254 
" clip-path="url(#pf840a174d1)" style="fill: none; stroke: #808080; stroke-width: 0.4; stroke-linecap: square"/>
   </g>
   <g id="line2d_12">
    <path d="M 43.798563 63.828337 
L 45.207967 62.466585 
L 46.617372 61.104833 
" clip-path="url(#pf840a174d1)" style="fill: none; stroke: #808080; stroke-width: 0.4; stroke-linecap: square"/>
   </g>
   <g id="line2d_13">
    <path d="M 25.983176 26.201804 
L 26.414899 27.170772 
L 26.846623 28.139739 
L 27.278347 29.108707 
L 27.71007 30.077674 
L 28.141794 31.046642 
L 28.573518 32.01561 
L 29.005242 32.984577 
L 29.436965 33.953545 
L 29.868689 34.922512 
L 30.300413 35.89148 
L 30.732136 36.860447 
L 31.16386 37.829415 
L 31.595584 38.798383 
L 32.027308 39.76735 
L 32.459031 40.736318 
L 32.890755 41.705285 
L 33.322479 42.674253 
L 33.754203 43.643221 
L 34.185926 44.612188 
L 34.61765 45.581156 
L 35.049374 46.550123 
L 35.481097 47.519091 
L 35.912821 48.488058 
L 36.344545 49.457026 
L 36.776269 50.425994 
L 37.207992 51.394961 
L 37.639716 52.363929 
L 38.07144 53.332896 
L 38.503163 54.301864 
L 38.934887 55.270832 
L 39.366611 56.239799 
L 39.798335 57.208767 
" clip-path="url(#pf840a174d1)" style="fill: none; stroke: #4169e1; stroke-width: 0.4; stroke-linecap: square"/>
   </g>
   <g id="line2d_14">
    <path d="M 28.636877 25.356538 
L 28.915336 26.008159 
L 29.193795 26.65978 
L 29.472254 27.311402 
L 29.750713 27.963023 
L 30.065958 28.72008 
L 30.381202 29.477137 
L 30.518079 30.328344 
L 30.654956 31.17955 
L 30.675915 32.083623 
L 30.696875 32.987696 
L 30.823486 33.76584 
L 31.012547 34.207184 
L 31.412057 34.858805 
L 31.850918 35.396378 
L 32.756872 35.805052 
L 33.3309 36.11037 
L 33.904928 36.415688 
L 34.649196 37.045331 
L 35.311338 37.675568 
L 35.846869 38.348574 
L 36.404215 39.157903 
L 36.96156 39.967232 
L 37.292631 40.482307 
L 37.623703 40.997382 
L 37.954774 41.512457 
L 38.285845 42.027532 
L 38.616916 42.542607 
L 38.947987 43.057682 
L 39.279058 43.572757 
L 39.610129 44.087832 
L 40.182873 45.07061 
L 40.755618 46.053388 
L 41.328362 47.036166 
L 41.901106 48.018944 
L 42.337402 48.90193 
L 42.773697 49.784916 
L 43.209992 50.667901 
L 43.646287 51.550887 
L 43.982491 52.391847 
L 44.318695 53.232807 
L 44.654899 54.073767 
L 44.991103 54.914727 
" clip-path="url(#pf840a174d1)" style="fill: none; stroke: #4169e1; stroke-width: 0.4; stroke-linecap: square"/>
   </g>
   <g id="line2d_15">
    <path d="M 29.499202 25.301295 
L 29.810169 25.932721 
L 30.121136 26.564146 
L 30.432103 27.195571 
L 30.743071 27.826997 
L 31.200753 28.522277 
L 31.658435 29.217558 
L 32.070135 29.629351 
L 32.481835 30.041143 
L 32.893535 30.452936 
L 33.305236 30.864729 
L 33.781097 31.221576 
L 34.256958 31.578423 
L 34.732819 31.935271 
L 35.20868 32.292118 
L 35.766881 32.658172 
L 36.325083 33.024227 
L 36.883284 33.390281 
L 37.441485 33.756336 
L 38.136991 34.360437 
L 38.832497 34.964538 
L 39.189232 35.440335 
L 39.545968 35.916131 
L 39.902703 36.391928 
L 40.259439 36.867724 
L 40.826623 37.837731 
L 41.393806 38.807738 
L 41.80572 39.640382 
L 42.217634 40.473026 
L 42.629548 41.30567 
L 43.041462 42.138314 
L 43.334251 42.888688 
L 43.627039 43.639063 
L 43.919827 44.389437 
L 44.212615 45.139811 
L 44.404671 46.109818 
L 44.596726 47.079826 
L 44.788782 48.049833 
L 44.980837 49.01984 
L 45.063177 49.697003 
L 45.145517 50.374167 
L 45.227857 51.05133 
L 45.310197 51.728494 
L 45.401734 52.43313 
L 45.49327 53.137766 
L 45.584807 53.842403 
L 45.676343 54.547039 
" clip-path="url(#pf840a174d1)" style="fill: none; stroke: #4169e1; stroke-width: 0.4; stroke-linecap: square"/>
   </g>
   <g id="line2d_16">
    <path d="M 24.63066 21.348205 
L 24.662527 20.647132 
L 24.694394 19.94606 
L 24.72626 19.244988 
L 24.758127 18.543916 
L 24.869553 17.747358 
L 24.98098 16.9508 
L 25.092406 16.154241 
L 25.203833 15.357683 
L 25.363166 14.704428 
L 25.522499 14.051173 
L 25.681832 13.397918 
L 25.841166 12.744664 
L 26.080059 12.075519 
L 26.318952 11.406375 
L 26.557845 10.73723 
L 26.796738 10.068085 
L 27.386378 9.382903 
L 27.976018 8.69772 
L 28.565658 8.012538 
L 29.155298 7.327355 
L 29.872191 6.833442 
L 30.589084 6.339528 
L 31.305977 5.845614 
L 32.02287 5.351701 
L 33.058429 5.001239 
L 34.093989 4.650777 
L 35.129548 4.300315 
L 36.165108 3.949853 
L 36.834201 3.838329 
L 37.503294 3.726805 
L 38.172387 3.615281 
L 38.841479 3.503757 
L 39.510572 3.392233 
L 40.179665 3.280709 
L 40.848758 3.169185 
L 41.517851 3.057661 
L 42.147057 3.057661 
L 42.776263 3.057661 
L 43.405469 3.057661 
L 44.034675 3.057661 
L 44.663882 3.057661 
L 45.293088 3.057661 
L 45.922294 3.057661 
L 46.5515 3.057661 
L 47.571233 3.201112 
L 48.590966 3.344564 
L 49.610699 3.488016 
L 50.630432 3.631468 
L 51.379192 3.7669 
L 52.127951 3.902333 
L 52.876711 4.037766 
L 53.625471 4.173199 
L 54.254677 4.444064 
L 54.883883 4.714929 
L 55.449356 5.240622 
L 55.759895 6.021142 
L 56.022742 6.698306 
L 56.285588 7.375469 
L 56.548434 8.052633 
L 56.811281 8.729796 
L 57.289067 9.63773 
L 57.766853 10.545664 
L 58.212986 11.103433 
L 58.659119 11.661202 
L 59.678853 12.107298 
L 60.491345 12.282529 
L 61.303838 12.45776 
L 62.116331 12.632991 
L 62.928824 12.808222 
L 63.916477 13.126905 
L 64.904129 13.445587 
L 65.639843 13.888417 
L 66.375556 14.331246 
L 67.041548 15.099292 
L 67.70754 15.867338 
L 68.217406 16.536482 
L 68.727273 17.205627 
" clip-path="url(#pf840a174d1)" style="fill: none; stroke: #008000; stroke-width: 0.4; stroke-linecap: square"/>
   </g>
   <g id="line2d_17">
    <path d="M 26.220144 21.28821 
L 26.631844 20.784941 
L 27.043544 20.281672 
L 27.455244 19.778403 
L 27.866944 19.275134 
L 28.663397 18.573616 
L 29.404243 17.920807 
L 30.145517 17.60049 
L 30.886791 17.280174 
L 31.628065 16.959858 
L 32.36934 16.639542 
L 33.009881 16.497724 
L 33.650422 16.355905 
L 34.290963 16.214087 
L 34.931505 16.072269 
L 35.572046 15.930451 
L 36.212587 15.788632 
L 36.853128 15.646814 
L 37.493669 15.504996 
L 38.166184 15.39065 
L 38.838699 15.276305 
L 39.511214 15.161959 
L 40.183729 15.047614 
L 40.856244 14.933268 
L 41.528758 14.818922 
L 42.201273 14.704577 
L 42.873788 14.590231 
L 43.491338 14.52155 
L 44.108888 14.452868 
L 44.726439 14.384186 
L 45.343989 14.315505 
L 45.961539 14.246823 
L 46.579089 14.178142 
L 47.196639 14.10946 
L 47.81419 14.040778 
L 48.829859 14.232938 
L 49.845529 14.425098 
L 50.861198 14.617258 
L 51.876868 14.809418 
L 52.691286 14.946782 
L 53.505703 15.084145 
L 54.320121 15.221508 
L 55.134539 15.358871 
L 55.902974 15.395402 
L 56.67141 15.431934 
L 57.439845 15.468465 
L 58.208281 15.504996 
L 58.921966 15.37684 
L 59.635651 15.248684 
L 60.349336 15.120527 
L 61.06302 14.992371 
L 61.776705 14.928367 
L 62.49039 14.864364 
L 63.204075 14.80036 
L 63.91776 14.736356 
L 65.034162 14.992668 
L 66.150565 15.248981 
L 66.929052 15.558159 
L 67.70754 15.867338 
" clip-path="url(#pf840a174d1)" style="fill: none; stroke: #008000; stroke-width: 0.4; stroke-linecap: square"/>
   </g>
   <g id="line2d_18">
    <path d="M 28.663397 18.573616 
L 28.828932 17.79369 
L 28.994468 17.013764 
L 29.313348 16.382636 
L 29.632229 15.751507 
L 29.951109 15.120379 
L 30.26999 14.489251 
L 30.748417 13.983012 
L 31.226845 13.476772 
L 31.705273 12.970533 
L 32.1837 12.464294 
L 32.918772 12.124524 
L 33.653844 11.784754 
L 34.388916 11.444985 
L 35.123988 11.105215 
L 35.98396 10.813856 
L 36.843932 10.522498 
L 37.703904 10.231139 
L 38.563876 9.939781 
L 39.493142 9.801081 
L 40.422408 9.662381 
L 41.351674 9.523682 
L 42.28094 9.384982 
L 43.237795 9.440521 
L 44.19465 9.49606 
L 45.151506 9.5516 
L 46.108361 9.607139 
L 46.711689 9.728464 
L 47.315017 9.849789 
L 47.918344 9.971114 
L 48.521672 10.09244 
L 49.125 10.213765 
L 49.728328 10.33509 
L 50.331656 10.456415 
L 50.934983 10.57774 
L 51.975034 10.903699 
L 53.015085 11.229659 
L 54.055136 11.555618 
L 55.095186 11.881577 
L 55.705358 11.964886 
L 56.31553 12.048195 
L 56.925701 12.131504 
L 57.535873 12.214813 
L 58.607363 12.161055 
L 59.678853 12.107298 
" clip-path="url(#pf840a174d1)" style="fill: none; stroke: #008000; stroke-width: 0.4; stroke-linecap: square"/>
   </g>
   <g id="line2d_19">
    <path d="M 29.511178 24.029535 
L 30.343133 24.140465 
L 31.175088 24.251395 
L 32.007043 24.362325 
L 32.838999 24.473255 
L 33.747198 24.410885 
L 34.655398 24.348514 
L 35.563598 24.286144 
L 36.471798 24.223774 
L 37.379997 24.161403 
L 38.288197 24.099033 
L 39.196397 24.036663 
L 40.104597 23.974292 
L 40.881053 23.911848 
L 41.657508 23.849403 
L 42.433964 23.786959 
L 43.21042 23.724514 
L 43.986875 23.66207 
L 44.763331 23.599625 
L 45.539787 23.53718 
L 46.316243 23.474736 
L 46.905455 23.460925 
L 47.494668 23.447115 
L 48.08388 23.433304 
L 48.673092 23.419493 
L 49.262305 23.405683 
L 49.851517 23.391872 
L 50.440729 23.378062 
L 51.029942 23.364251 
L 51.917289 23.225551 
L 52.804637 23.086852 
L 53.691984 22.948152 
L 54.579332 22.809452 
L 55.286386 22.476662 
L 55.993441 22.143872 
L 56.700496 21.811082 
L 57.407551 21.478291 
L 58.516682 21.173271 
L 59.625813 20.86825 
L 60.734944 20.840332 
L 61.844074 20.812414 
L 62.897599 20.840332 
L 63.951124 20.86825 
L 64.94947 20.50769 
L 65.947816 20.14713 
L 66.724164 19.453929 
L 67.500513 18.760727 
L 68.113893 17.983177 
L 68.727273 17.205627 
" clip-path="url(#pf840a174d1)" style="fill: none; stroke: #008000; stroke-width: 0.4; stroke-linecap: square"/>
   </g>
   <g id="line2d_20">
    <path d="M 29.627524 24.849853 
L 30.653245 24.922321 
L 31.678967 24.99479 
L 32.536158 25.332778 
L 33.39335 25.670765 
L 34.250542 26.262095 
L 35.107734 26.853426 
L 36.08512 27.432876 
L 37.062507 28.012326 
L 38.136991 28.265965 
L 39.211475 28.519604 
L 39.929651 28.507576 
L 40.647827 28.495547 
L 41.366003 28.483519 
L 42.084179 28.47149 
L 43.049589 28.362787 
L 44.014999 28.254085 
L 44.690829 28.061034 
L 45.366659 27.867983 
L 46.042917 27.843629 
L 46.719174 27.819275 
L 47.515627 28.000446 
L 48.312079 28.181616 
L 49.072602 28.181616 
L 49.833124 28.181616 
L 50.7502 27.819572 
L 51.667275 27.457527 
L 52.379463 27.336647 
L 53.091651 27.215767 
L 53.791862 27.215767 
L 54.492073 27.215767 
L 55.457483 26.829665 
L 56.422893 26.443563 
L 56.990076 25.900348 
L 57.55726 25.357132 
L 58.257471 25.091315 
L 58.957682 24.825499 
L 59.742158 24.572157 
L 60.526634 24.318814 
L 61.220643 24.155909 
L 61.914652 23.993004 
L 62.60866 23.830098 
L 63.302669 23.667193 
L 64.256102 23.449788 
L 65.209536 23.232383 
L 65.668287 22.803809 
L 66.127039 22.375236 
L 66.58579 21.946663 
L 67.044542 21.51809 
L 67.370266 20.836174 
L 67.695991 20.154258 
L 68.021715 19.472343 
L 68.347439 18.790427 
L 68.537356 17.998027 
L 68.727273 17.205627 
" clip-path="url(#pf840a174d1)" style="fill: none; stroke: #008000; stroke-width: 0.4; stroke-linecap: square"/>
   </g>
   <g id="line2d_21">
    <path d="M 25.455344 26.335455 
L 25.501112 27.067267 
L 25.54688 27.799078 
L 25.592649 28.53089 
L 25.638417 29.262702 
L 25.501112 30.049459 
L 25.363807 30.836216 
L 25.226503 31.622974 
L 25.089198 32.409731 
L 24.723266 33.278757 
L 24.357334 34.147784 
L 23.991402 35.01681 
L 23.625471 35.885837 
L 23.074113 36.656259 
L 22.522756 37.426681 
L 21.921781 38.266304 
L 21.320805 39.105928 
L 20.808372 39.737205 
L 20.295939 40.368481 
L 19.783506 40.999758 
L 19.271073 41.631035 
L 18.78623 42.253105 
L 18.301386 42.875175 
L 17.816542 43.497244 
L 17.331698 44.119314 
L 16.938605 44.823802 
L 16.545512 45.528289 
L 16.481351 46.232777 
L 16.417189 46.937265 
L 16.627638 47.724022 
L 16.838086 48.510779 
" clip-path="url(#pf840a174d1)" style="fill: none; stroke: #008000; stroke-width: 0.4; stroke-linecap: square"/>
   </g>
   <g id="line2d_22">
    <path d="M 14.038953 50.083699 
L 14.414081 50.824718 
L 14.78921 51.565737 
L 15.164338 52.306756 
L 15.539466 53.047775 
L 16.005917 53.500628 
L 16.472368 53.953481 
L 16.938819 54.406334 
L 17.40527 54.859187 
L 17.871721 55.31204 
L 18.338172 55.764894 
L 18.804622 56.217747 
L 19.271073 56.6706 
L 20.039509 57.310935 
L 20.807945 57.951271 
L 21.57638 58.591606 
L 22.344816 59.231941 
L 23.104055 59.81748 
L 23.863294 60.403018 
L 24.622533 60.988557 
L 25.381773 61.574096 
L 26.150422 61.90347 
L 26.919072 62.232845 
L 27.724079 62.342439 
L 28.529086 62.452032 
" clip-path="url(#pf840a174d1)" style="fill: none; stroke: #008000; stroke-width: 0.4; stroke-linecap: square"/>
   </g>
   <g id="line2d_23">
    <path d="M 22.418387 26.079439 
L 22.057053 26.674037 
L 21.69572 27.268634 
L 21.334386 27.863231 
L 20.973052 28.457828 
L 20.611719 29.052425 
L 20.250385 29.647022 
L 19.889051 30.241619 
L 19.527718 30.836216 
L 19.161786 31.385075 
L 18.795854 31.933934 
L 18.429922 32.482793 
L 18.06399 33.031652 
L 17.698058 33.580511 
L 17.332126 34.12937 
L 16.966194 34.678229 
L 16.600262 35.227087 
L 16.097026 36.132794 
L 15.593789 37.0385 
L 15.090553 37.944206 
L 14.587316 38.849912 
L 14.294742 39.471982 
L 14.002167 40.094052 
L 13.709593 40.716122 
L 13.417018 41.338191 
L 13.407822 42.088417 
L 13.398626 42.838643 
L 13.389429 43.588869 
L 13.380233 44.339095 
L 13.618056 45.080114 
L 13.85588 45.821133 
L 14.093704 46.562152 
L 14.331527 47.303171 
" clip-path="url(#pf840a174d1)" style="fill: none; stroke: #008000; stroke-width: 0.4; stroke-linecap: square"/>
   </g>
   <g id="line2d_24">
    <path d="M 22.522756 37.426681 
L 22.638673 38.207498 
L 22.754591 38.988315 
L 23.038611 39.684784 
L 23.32263 40.381252 
L 23.648355 41.027528 
L 23.974079 41.673803 
L 24.299803 42.320079 
L 24.625528 42.966354 
L 24.951252 43.612629 
L 25.276976 44.258905 
L 25.6027 44.90518 
L 25.928425 45.551456 
L 26.278316 46.159195 
L 26.628208 46.766934 
L 26.9781 47.374674 
L 27.327991 47.982413 
L 27.677883 48.590153 
L 28.027775 49.197892 
L 28.377666 49.805632 
L 28.727558 50.413371 
L 29.324683 51.387239 
L 29.921809 52.361107 
" clip-path="url(#pf840a174d1)" style="fill: none; stroke: #4169e1; stroke-width: 0.4; stroke-linecap: square"/>
   </g>
   <g id="line2d_25">
    <path d="M 22.019733 25.03934 
L 21.389244 24.944745 
L 20.758754 24.85015 
L 20.128265 24.755555 
L 19.497776 24.66096 
L 18.898725 24.597847 
L 18.299675 24.534734 
L 17.700625 24.471622 
L 17.101574 24.408509 
L 16.513431 24.702837 
L 15.925288 24.997166 
L 15.841023 25.669577 
L 15.756758 26.341989 
L 16.072003 27.287939 
L 16.387248 28.233889 
L 16.261492 29.242506 
L 15.672921 29.620886 
L 15.021473 29.473573 
L 14.370024 29.32626 
L 13.466209 29.053316 
L 12.562393 28.780372 
L 11.469089 28.52792 
L 10.670925 29.200332 
L 10.776149 30.041143 
L 10.881373 30.881955 
L 10.986384 31.691135 
L 11.091394 32.500316 
L 11.196404 33.309497 
L 11.301414 34.118678 
L 11.227843 34.92771 
L 11.154272 35.736742 
L 11.0807 36.545774 
L 11.007129 37.354807 
L 10.775721 38.363721 
L 10.544314 39.372635 
L 9.535702 39.876944 
L 8.569009 39.83477 
L 7.833295 39.898031 
L 7.097582 39.961292 
L 6.92948 40.528565 
L 6.761378 41.095838 
L 7.034704 42.167717 
L 7.30803 43.239595 
L 7.70754 44.269597 
L 8.107049 45.299598 
L 8.379948 45.950923 
L 8.652846 46.602247 
L 8.695192 47.611161 
L 8.737538 48.620076 
L 8.779457 49.586816 
L 8.821376 50.553556 
L 9.073742 51.226264 
L 9.326109 51.898973 
L 9.893293 52.277056 
L 10.460477 52.655139 
L 10.796681 53.580002 
L 11.132885 54.504864 
L 11.553353 55.366466 
L 11.973822 56.228068 
L 12.246935 56.953197 
L 12.520047 57.678326 
L 12.793159 58.403455 
L 13.066271 59.128585 
" clip-path="url(#pf840a174d1)" style="fill: none; stroke: #008000; stroke-width: 0.4; stroke-linecap: square"/>
   </g>
   <g id="line2d_26">
    <path d="M 23.995038 20.751826 
L 23.249059 20.510066 
L 22.50308 20.268307 
L 21.7571 20.026548 
L 21.011121 19.784788 
L 20.044214 19.711281 
L 19.077307 19.637773 
L 18.1104 19.564265 
L 17.143493 19.490757 
L 16.565615 19.532783 
L 15.987738 19.574808 
L 15.409861 19.616834 
L 14.831984 19.65886 
L 14.243627 19.79548 
L 13.65527 19.932101 
L 13.066913 20.068722 
L 12.478556 20.205343 
L 11.963557 20.562636 
L 11.448557 20.919928 
L 10.933558 21.277221 
L 10.418558 21.634514 
L 9.956171 22.265048 
L 9.493784 22.895583 
L 9.031396 23.526117 
L 8.569009 24.156651 
L 8.201152 25.070822 
L 7.833295 25.984993 
L 7.465439 26.899164 
L 7.097582 27.813335 
L 6.92948 28.485895 
L 6.761378 29.158455 
L 6.593276 29.831015 
L 6.425174 30.503575 
L 6.257072 31.176135 
L 6.08897 31.848695 
L 5.920868 32.521255 
L 5.752766 33.193815 
L 5.505853 34.102788 
L 5.25894 35.011761 
L 5.012027 35.920735 
L 4.765113 36.829708 
L 4.5182 37.738681 
L 4.271287 38.647654 
L 4.024374 39.556628 
L 3.777461 40.465601 
L 3.651278 41.453428 
L 3.525094 42.441255 
L 3.398911 43.429082 
L 3.272727 44.41691 
L 3.351538 45.015887 
L 3.43035 45.614865 
L 3.509161 46.213843 
L 3.587972 46.812821 
L 3.666783 47.411799 
L 3.745594 48.010777 
L 3.824405 48.609755 
L 3.903217 49.208733 
L 4.171196 49.7394 
L 4.439175 50.270068 
L 4.707155 50.800735 
L 4.975134 51.331403 
L 5.243113 51.86207 
L 5.511093 52.392738 
L 5.779072 52.923405 
L 6.047051 53.454073 
L 6.514679 53.811366 
L 6.982306 54.168659 
L 7.449933 54.525952 
L 7.91756 54.883244 
L 8.385187 55.240537 
L 8.852815 55.59783 
L 9.320442 55.955123 
L 9.788069 56.312416 
L 10.607619 57.016458 
L 11.42717 57.7205 
L 12.246721 58.424543 
L 13.066271 59.128585 
L 13.61271 59.664524 
L 14.159148 60.200463 
L 14.705586 60.736403 
L 15.252025 61.272342 
L 15.830116 61.577066 
L 16.408207 61.881789 
L 16.986298 62.186513 
L 17.564389 62.491236 
L 18.36298 62.617314 
L 19.161572 62.743391 
L 19.960163 62.869468 
L 20.758754 62.995545 
L 21.389244 63.01136 
L 22.019733 63.027176 
L 22.650222 63.042991 
L 23.280712 63.058806 
L 23.911201 63.074622 
L 24.54169 63.090437 
L 25.17218 63.106252 
L 25.802669 63.122068 
L 26.484273 62.954559 
L 27.165878 62.78705 
L 27.847482 62.619541 
L 28.529086 62.452032 
" clip-path="url(#pf840a174d1)" style="fill: none; stroke: #008000; stroke-width: 0.4; stroke-linecap: square"/>
   </g>
   <g id="line2d_27">
    <path d="M 16.838086 48.510779 
L 17.304751 49.004693 
L 17.771416 49.498606 
L 18.361376 49.905721 
L 18.951337 50.312836 
L 19.541298 50.719951 
L 20.131259 51.127066 
L 20.72122 51.534181 
L 21.311181 51.941296 
L 21.901142 52.34841 
L 22.491103 52.755525 
L 23.017117 53.089429 
L 23.54313 53.423333 
L 24.069144 53.757237 
L 24.595158 54.091141 
L 25.121172 54.425045 
L 25.647185 54.758949 
L 26.173199 55.092853 
L 26.699213 55.426757 
L 27.44947 55.84746 
L 28.199726 56.268163 
L 28.949983 56.688865 
L 29.70024 57.109568 
L 30.184869 57.548685 
L 30.669499 57.987802 
L 31.154129 58.426919 
L 31.638759 58.866035 
L 32.004905 59.909105 
L 32.371051 60.952174 
L 32.352658 61.665572 
L 32.334265 62.37897 
" clip-path="url(#pf840a174d1)" style="fill: none; stroke: #008000; stroke-width: 0.4; stroke-linecap: square"/>
   </g>
   <g id="line2d_28">
    <path d="M 29.921809 52.361107 
L 30.268493 53.159744 
L 30.615176 53.958382 
L 30.96186 54.757019 
L 31.308543 55.555656 
L 31.391097 56.383251 
L 31.473651 57.210846 
L 31.556205 58.038441 
L 31.638759 58.866035 
" clip-path="url(#pf840a174d1)" style="fill: none; stroke: #008000; stroke-width: 0.4; stroke-linecap: square"/>
   </g>
   <g id="line2d_29">
    <path d="M 44.101403 58.540522 
L 43.307089 59.056191 
L 42.512775 59.57186 
L 41.718461 60.087529 
L 40.924147 60.603197 
L 40.129833 61.118866 
L 39.33552 61.634535 
L 38.541206 62.150204 
L 37.746892 62.665873 
" clip-path="url(#pf840a174d1)" style="fill: none; stroke: #008000; stroke-width: 0.4; stroke-linecap: square"/>
   </g>
   <g id="line2d_30">
    <path d="M 46.34704 60.754371 
L 45.666077 61.427377 
L 44.985115 62.100382 
L 44.304152 62.773388 
L 43.623189 63.446393 
" clip-path="url(#pf840a174d1)" style="fill: none; stroke: #008000; stroke-width: 0.4; stroke-linecap: square"/>
   </g>
  </g>
 </g>
 <defs>
  <clipPath id="pf840a174d1">
   <rect x="0" y="0" width="72" height="67.268536"/>
  </clipPath>
 </defs>
</svg>
