<?xml version="1.0" encoding="utf-8" standalone="no"?>
<!DOCTYPE svg PUBLIC "-//W3C//DTD SVG 1.1//EN"
  "http://www.w3.org/Graphics/SVG/1.1/DTD/svg11.dtd">
<svg height="70.012693pt" version="1.1" viewBox="0 0 72 70.012693" width="72pt" xmlns="http://www.w3.org/2000/svg" xmlns:xlink="http://www.w3.org/1999/xlink">
 <metadata>
  <rdf:RDF xmlns:cc="http://creativecommons.org/ns#" xmlns:dc="http://purl.org/dc/elements/1.1/" xmlns:rdf="http://www.w3.org/1999/02/22-rdf-syntax-ns#">
   <cc:Work>
    <dc:type rdf:resource="http://purl.org/dc/dcmitype/StillImage"/>
    <dc:date>2022-04-19T00:51:52.408567</dc:date>
    <dc:format>image/svg+xml</dc:format>
    <dc:creator>
     <cc:Agent>
      <dc:title>Matplotlib v3.4.3, https://matplotlib.org/</dc:title>
     </cc:Agent>
    </dc:creator>
   </cc:Work>
  </rdf:RDF>
 </metadata>
 <defs>
  <style type="text/css">*{stroke-linecap:butt;stroke-linejoin:round;}</style>
 </defs>
 <g id="figure_1">
  <g id="patch_1">
   <path d="M 0 70.012693 
L 72 70.012693 
L 72 0 
L 0 0 
z
" style="fill:#ffffff;"/>
  </g>
  <g id="axes_1">
   <g id="patch_2">
    <path clip-path="url(#pa9a31ca247)" d="M 33.408384 43.120365 
L 33.408384 43.120365 
L 32.71055 44.187731 
L 32.012716 45.255097 
L 31.314882 46.322464 
L 30.617048 47.38983 
L 29.919213 48.457196 
L 29.221379 49.524562 
L 28.523545 50.591928 
L 27.825711 51.659294 
L 29.653513 52.746596 
L 31.481316 53.833897 
L 33.309118 54.921199 
L 35.136921 56.008501 
L 36.964723 57.095803 
L 38.792525 58.183105 
L 40.620328 59.270407 
L 42.44813 60.357708 
L 43.234531 59.350441 
L 44.020932 58.343173 
L 44.807333 57.335906 
L 45.593734 56.328638 
L 46.380134 55.321371 
L 47.166535 54.314103 
L 47.952936 53.306835 
L 48.739337 52.299568 
z
" style="fill:#008000;opacity:0.1;"/>
   </g>
   <g id="patch_3">
    <path clip-path="url(#pa9a31ca247)" d="M 33.408384 43.120365 
L 33.408384 43.120365 
L 32.71055 44.187731 
L 32.012716 45.255097 
L 31.314882 46.322464 
L 30.617048 47.38983 
L 29.919213 48.457196 
L 29.221379 49.524562 
L 28.523545 50.591928 
L 27.825711 51.659294 
L 29.653513 52.746596 
L 31.481316 53.833897 
L 33.309118 54.921199 
L 35.136921 56.008501 
L 36.964723 57.095803 
L 38.792525 58.183105 
L 40.620328 59.270407 
L 42.44813 60.357708 
L 43.234531 59.350441 
L 44.020932 58.343173 
L 44.807333 57.335906 
L 45.593734 56.328638 
L 46.380134 55.321371 
L 47.166535 54.314103 
L 47.952936 53.306835 
L 48.739337 52.299568 
z
" style="fill:none;stroke:#008000;stroke-linejoin:miter;stroke-width:0.4;"/>
   </g>
   <g id="line2d_1">
    <path clip-path="url(#pa9a31ca247)" d="M 36.114126 63.354191 
L 31.899382 59.09695 
L 28.45182 55.615023 
L 25.004258 52.133097 
L 22.360334 49.462571 
L 19.71641 46.792046 
L 14.92628 41.953902 
L 10.13615 37.115758 
L 6.563366 33.506941 
" style="fill:none;stroke:#808080;stroke-linecap:square;stroke-width:0.4;"/>
   </g>
   <g id="line2d_2">
    <path clip-path="url(#pa9a31ca247)" d="M 50.669972 54.259971 
L 48.858218 58.173792 
" style="fill:none;stroke:#808080;stroke-linecap:square;stroke-width:0.4;"/>
   </g>
   <g id="line2d_3">
    <path clip-path="url(#pa9a31ca247)" d="M 48.739337 52.299568 
L 44.906599 50.004767 
L 41.073861 47.709967 
L 37.241122 45.415166 
L 33.408384 43.120365 
" style="fill:none;stroke:#808080;stroke-linecap:square;stroke-width:0.4;"/>
   </g>
   <g id="line2d_4">
    <path clip-path="url(#pa9a31ca247)" d="M 42.44813 60.357708 
L 38.792525 58.183105 
L 35.136921 56.008501 
L 31.481316 53.833897 
L 27.825711 51.659294 
" style="fill:none;stroke:#808080;stroke-linecap:square;stroke-width:0.4;"/>
   </g>
   <g id="line2d_5">
    <path clip-path="url(#pa9a31ca247)" d="M 40.88682 58.979373 
L 35.21459 55.593487 
L 29.542359 52.207601 
" style="fill:none;stroke:#808080;stroke-linecap:square;stroke-width:0.4;"/>
   </g>
   <g id="line2d_6">
    <path clip-path="url(#pa9a31ca247)" d="M 54.653293 45.223957 
L 49.07696 41.388133 
L 45.789492 39.127383 
L 42.502023 36.866634 
L 39.070312 34.50635 
L 35.6386 32.146067 
L 31.832016 29.527346 
L 28.025432 26.908625 
L 24.498615 24.482568 
L 20.971799 22.056512 
L 16.316401 18.855141 
" style="fill:none;stroke:#808080;stroke-linecap:square;stroke-width:0.4;"/>
   </g>
   <g id="line2d_7">
    <path clip-path="url(#pa9a31ca247)" d="M 51.754171 41.906173 
L 47.601245 38.954073 
L 43.44832 36.001973 
L 39.295394 33.049872 
L 35.142468 30.097772 
L 30.989543 27.145672 
L 26.836617 24.193572 
L 22.683692 21.241472 
L 18.530766 18.289372 
" style="fill:none;stroke:#808080;stroke-linecap:square;stroke-width:0.4;"/>
   </g>
   <g id="line2d_8">
    <path clip-path="url(#pa9a31ca247)" d="M 56.897775 37.943458 
L 51.686012 33.617534 
" style="fill:none;stroke:#808080;stroke-linecap:square;stroke-width:0.4;"/>
   </g>
   <g id="line2d_9">
    <path clip-path="url(#pa9a31ca247)" d="M 68.514871 27.910945 
L 63.280917 25.526797 
L 59.315031 23.720642 
L 55.349146 21.914487 
L 50.844331 19.8627 
L 46.339517 17.810912 
L 40.171947 15.001855 
L 34.408574 12.376731 
L 28.984409 9.906437 
" style="fill:none;stroke:#808080;stroke-linecap:square;stroke-width:0.4;"/>
   </g>
   <g id="line2d_10">
    <path clip-path="url(#pa9a31ca247)" d="M 28.984409 9.906437 
L 29.722266 8.545564 
L 30.460124 7.18469 
L 32.158643 7.871603 
L 33.857162 8.558515 
L 35.555681 9.245427 
L 37.254199 9.932339 
L 38.952718 10.619252 
L 40.651237 11.306164 
L 42.349756 11.993076 
L 44.048275 12.679988 
L 45.746794 13.366901 
L 47.445312 14.053813 
L 49.143831 14.740725 
L 50.84235 15.427637 
L 52.540869 16.11455 
L 54.239388 16.801462 
L 55.937906 17.488374 
L 57.636425 18.175286 
L 59.536151 18.782383 
L 61.435877 19.389479 
L 63.132711 19.931384 
L 64.829546 20.473288 
L 65.803978 21.272758 
L 66.778409 22.072227 
L 67.752841 22.871697 
L 68.727273 23.671166 
L 68.621072 25.791056 
L 68.514871 27.910945 
" style="fill:none;stroke:#008000;stroke-linecap:square;stroke-width:0.4;"/>
   </g>
   <g id="line2d_11">
    <path clip-path="url(#pa9a31ca247)" d="M 30.460124 7.18469 
L 32.193019 6.184117 
L 33.925915 5.183543 
L 35.65881 4.182969 
L 37.391706 3.182395 
L 39.255767 3.308704 
L 41.119828 3.435012 
L 42.983889 3.561321 
L 44.847951 3.68763 
L 45.896881 4.099733 
L 46.945812 4.511837 
L 47.994743 4.923941 
L 49.043674 5.336044 
L 50.092604 5.748148 
L 51.141535 6.160252 
L 52.190466 6.572355 
L 53.239396 6.984459 
L 54.538374 8.358429 
L 55.837353 9.732399 
L 57.136331 11.106369 
L 58.435309 12.480339 
L 59.185451 14.207624 
L 59.935593 15.934909 
L 60.685735 17.662194 
L 61.435877 19.389479 
" style="fill:none;stroke:#008000;stroke-linecap:square;stroke-width:0.4;"/>
   </g>
   <g id="line2d_12">
    <path clip-path="url(#pa9a31ca247)" d="M 18.530766 18.289372 
L 18.621116 16.156677 
L 20.553336 15.484971 
L 21.519446 16.703238 
L 22.485556 17.921505 
L 23.50437 18.289081 
L 24.523184 18.656656 
L 25.541998 19.024232 
L 26.560812 19.391807 
L 27.579626 19.759383 
L 28.59844 20.126958 
L 29.617255 20.494534 
L 30.636069 20.862109 
L 31.392155 21.663616 
L 32.148241 22.465123 
L 32.904327 23.26663 
L 33.660413 24.068136 
L 34.483469 24.89409 
L 35.306525 25.720044 
L 36.129581 26.545997 
L 36.952637 27.371951 
L 37.770541 28.732824 
L 38.588446 30.093698 
" style="fill:none;stroke:#4169e1;stroke-linecap:square;stroke-width:0.4;"/>
   </g>
   <g id="line2d_13">
    <path clip-path="url(#pa9a31ca247)" d="M 38.588446 30.093698 
L 40.160455 31.188857 
L 41.732464 32.284017 
L 43.304473 33.379177 
L 44.876482 34.474337 
L 46.121567 35.30451 
L 47.366652 36.134684 
L 48.611738 36.964857 
L 49.856823 37.795031 
L 51.101908 38.625205 
L 52.346993 39.455378 
L 53.592078 40.285552 
L 54.837163 41.115725 
" style="fill:none;stroke:#008000;stroke-linecap:square;stroke-width:0.4;"/>
   </g>
   <g id="line2d_14">
    <path clip-path="url(#pa9a31ca247)" d="M 51.686012 33.617534 
L 52.518182 32.487159 
L 54.34539 33.159447 
L 56.172598 33.831734 
L 57.999806 34.504022 
L 59.827014 35.17631 
" style="fill:none;stroke:#008000;stroke-linecap:square;stroke-width:0.4;"/>
   </g>
   <g id="line2d_15">
    <path clip-path="url(#pa9a31ca247)" d="M 28.984409 9.906437 
L 29.826882 10.846476 
L 30.669355 11.786515 
L 31.511829 12.726554 
L 32.354302 13.666593 
L 32.984374 14.948014 
L 33.614445 16.229435 
L 34.244517 17.510856 
L 34.874589 18.792278 
L 35.134345 19.864737 
L 35.394101 20.937196 
L 35.653857 22.009655 
L 35.913613 23.082114 
L 36.173369 24.154573 
L 36.433125 25.227032 
L 36.692881 26.299492 
L 36.952637 27.371951 
" style="fill:none;stroke:#008000;stroke-linecap:square;stroke-width:0.4;"/>
   </g>
   <g id="line2d_16">
    <path clip-path="url(#pa9a31ca247)" d="M 28.984409 9.906437 
L 30.351942 11.077557 
L 31.719475 12.248676 
L 33.087008 13.419796 
L 34.454541 14.590916 
L 36.155735 15.599056 
L 37.856928 16.607197 
L 39.558122 17.615338 
L 41.259316 18.623478 
L 41.952395 19.946808 
L 42.645473 21.270139 
L 43.338552 22.593469 
L 44.031631 23.916799 
L 44.556691 24.903985 
L 45.081751 25.891171 
L 45.606811 26.878358 
L 46.13187 27.865544 
L 47.728448 29.020948 
L 49.325026 30.176351 
L 50.921604 31.331755 
L 52.518182 32.487159 
" style="fill:none;stroke:#4169e1;stroke-linecap:square;stroke-width:0.4;"/>
   </g>
   <g id="line2d_17">
    <path clip-path="url(#pa9a31ca247)" d="M 16.316401 18.855141 
L 17.641533 20.243954 
L 18.966665 21.632767 
L 20.20323 22.482003 
L 21.439795 23.331239 
L 22.676361 24.180475 
L 23.912926 25.029712 
L 25.149491 25.878948 
L 26.386057 26.728184 
L 27.622622 27.577421 
L 28.859187 28.426657 
L 30.307956 29.43829 
L 31.756725 30.449923 
L 33.205493 31.461556 
L 34.654262 32.473189 
L 36.103031 33.484822 
L 37.551799 34.496455 
L 39.000568 35.508088 
L 40.449337 36.519721 
L 41.398605 37.181678 
L 42.347874 37.843634 
L 43.297142 38.50559 
L 44.24641 39.167546 
L 45.195679 39.829502 
L 46.144947 40.491458 
L 47.094216 41.153414 
L 48.043484 41.81537 
L 49.11738 42.589811 
L 50.191276 43.364252 
L 51.265172 44.138692 
L 52.339068 44.913133 
" style="fill:none;stroke:#008000;stroke-linecap:square;stroke-width:0.4;"/>
   </g>
   <g id="line2d_18">
    <path clip-path="url(#pa9a31ca247)" d="M 16.316401 18.855141 
L 15.993043 19.944189 
L 15.669686 21.033237 
L 16.11985 23.031474 
L 16.570015 25.029712 
L 17.668876 26.02883 
L 18.767736 27.027949 
L 19.866597 28.027068 
L 20.965458 29.026186 
L 22.202024 29.975393 
L 23.438589 30.924599 
L 24.675154 31.873805 
L 25.91172 32.823012 
L 27.148285 33.772218 
L 28.38485 34.721424 
L 29.621415 35.670631 
L 30.857981 36.619837 
L 32.115747 37.455104 
L 33.373512 38.29037 
L 34.631278 39.125637 
L 35.889044 39.960904 
L 36.783825 40.554903 
L 37.678606 41.148903 
L 38.573387 41.742903 
L 39.468168 42.336903 
L 40.362949 42.930902 
L 41.257731 43.524902 
L 42.152512 44.118902 
L 43.047293 44.712902 
L 44.720747 45.112782 
L 46.394202 45.512662 
L 48.067657 45.912543 
L 49.741111 46.312423 
" style="fill:none;stroke:#4169e1;stroke-linecap:square;stroke-width:0.4;"/>
   </g>
   <g id="line2d_19">
    <path clip-path="url(#pa9a31ca247)" d="M 15.669686 21.033237 
L 15.420035 22.107151 
L 15.170384 23.181066 
L 14.920732 24.25498 
L 14.671081 25.328894 
L 14.371104 26.652807 
L 14.071126 27.976719 
L 13.771149 29.300631 
L 13.471171 30.624543 
L 14.17059 31.923427 
L 14.87001 33.22231 
L 15.569429 34.521193 
L 16.268848 35.820076 
L 18.09249 36.194928 
L 19.916131 36.569779 
L 21.739773 36.944631 
L 23.563414 37.319482 
L 25.362091 37.843925 
L 27.160767 38.368367 
L 28.959444 38.89281 
L 30.75812 39.417253 
L 32.040851 39.553166 
L 33.323582 39.689078 
L 34.606313 39.824991 
L 35.889044 39.960904 
" style="fill:none;stroke:#008000;stroke-linecap:square;stroke-width:0.4;"/>
   </g>
   <g id="line2d_20">
    <path clip-path="url(#pa9a31ca247)" d="M 6.563366 33.506941 
L 5.740706 35.443188 
L 4.918047 37.379435 
L 4.095387 39.315682 
L 3.272727 41.251929 
L 3.397949 42.350872 
L 3.523171 43.449816 
L 3.648393 44.548759 
L 3.773614 45.647702 
L 4.672755 46.546996 
L 5.571895 47.44629 
L 6.471035 48.345584 
L 7.370175 49.244878 
L 8.269315 50.144172 
L 9.168455 51.043466 
L 10.067595 51.94276 
L 10.966735 52.842055 
L 12.165853 54.065997 
L 13.36497 55.289939 
L 14.564088 56.513881 
L 15.763206 57.737823 
L 16.962323 58.961765 
L 18.161441 60.185707 
L 19.360559 61.40965 
L 20.559676 62.633592 
L 22.233131 63.682768 
L 23.906586 64.731945 
L 25.58004 65.781121 
L 27.253495 66.830298 
L 28.361074 66.395784 
L 29.468653 65.961271 
L 30.576232 65.526758 
L 31.683811 65.092244 
L 32.791389 64.657731 
L 33.898968 64.223218 
L 35.006547 63.788704 
L 36.114126 63.354191 
" style="fill:none;stroke:#4169e1;stroke-linecap:square;stroke-width:0.4;"/>
   </g>
   <g id="line2d_21">
    <path clip-path="url(#pa9a31ca247)" d="M 6.563366 33.506941 
L 7.11458 35.517984 
L 7.665793 37.529026 
L 8.217007 39.540069 
L 8.768221 41.551112 
L 9.342814 42.562745 
L 9.917408 43.574378 
L 10.492002 44.586011 
L 11.066596 45.597644 
L 11.641189 46.609277 
L 12.215783 47.62091 
L 12.790377 48.632543 
L 13.36497 49.644176 
" style="fill:none;stroke:#000000;stroke-dasharray:1.48,0.64;stroke-dashoffset:0;stroke-width:0.4;"/>
   </g>
   <g id="line2d_22">
    <path clip-path="url(#pa9a31ca247)" d="M 13.36497 49.644176 
L 14.551606 50.630926 
L 15.738241 51.617676 
L 16.924876 52.604426 
L 18.111511 53.591175 
L 19.298146 54.577925 
L 20.484781 55.564675 
L 21.671416 56.551424 
L 22.858051 57.538174 
L 24.515061 58.265176 
L 26.17207 58.992178 
L 27.829079 59.71918 
L 29.486089 60.446183 
L 31.143098 61.173185 
L 32.800107 61.900187 
L 34.457117 62.627189 
L 36.114126 63.354191 
" style="fill:none;stroke:#008000;stroke-linecap:square;stroke-width:0.4;"/>
   </g>
   <g id="line2d_23">
    <path clip-path="url(#pa9a31ca247)" d="M 27.825711 51.659294 
L 29.232871 53.126977 
L 30.640031 54.594659 
L 32.047192 56.062342 
L 33.454352 57.530025 
L 35.134543 58.769538 
L 36.814734 60.00905 
L 38.494926 61.248562 
L 40.175117 62.488075 
" style="fill:none;stroke:#008000;stroke-linecap:square;stroke-width:0.4;"/>
   </g>
  </g>
 </g>
 <defs>
  <clipPath id="pa9a31ca247">
   <rect height="70.012693" width="72" x="0" y="0"/>
  </clipPath>
 </defs>
</svg>
