<?xml version="1.0" encoding="utf-8" standalone="no"?>
<!DOCTYPE svg PUBLIC "-//W3C//DTD SVG 1.1//EN"
  "http://www.w3.org/Graphics/SVG/1.1/DTD/svg11.dtd">
<svg height="72pt" version="1.1" viewBox="0 0 54.882814 72" width="54.882814pt" xmlns="http://www.w3.org/2000/svg" xmlns:xlink="http://www.w3.org/1999/xlink">
 <metadata>
  <rdf:RDF xmlns:cc="http://creativecommons.org/ns#" xmlns:dc="http://purl.org/dc/elements/1.1/" xmlns:rdf="http://www.w3.org/1999/02/22-rdf-syntax-ns#">
   <cc:Work>
    <dc:type rdf:resource="http://purl.org/dc/dcmitype/StillImage"/>
    <dc:date>2022-04-19T00:51:54.681692</dc:date>
    <dc:format>image/svg+xml</dc:format>
    <dc:creator>
     <cc:Agent>
      <dc:title>Matplotlib v3.4.3, https://matplotlib.org/</dc:title>
     </cc:Agent>
    </dc:creator>
   </cc:Work>
  </rdf:RDF>
 </metadata>
 <defs>
  <style type="text/css">*{stroke-linecap:butt;stroke-linejoin:round;}</style>
 </defs>
 <g id="figure_1">
  <g id="patch_1">
   <path d="M 0 72 
L 54.882814 72 
L 54.882814 0 
L 0 0 
z
" style="fill:#ffffff;"/>
  </g>
  <g id="axes_1">
   <g id="patch_2">
    <path clip-path="url(#pf6d5ff0f78)" d="M 10.713639 46.733215 
L 10.713639 46.733215 
L 10.440639 46.323679 
L 10.167638 45.914143 
L 9.894637 45.504607 
L 9.621637 45.095071 
L 9.416861 45.424905 
L 9.212086 45.754739 
L 9.007311 46.084573 
L 8.802536 46.414407 
L 9.012972 46.710168 
L 9.223408 47.005929 
L 9.433844 47.30169 
L 9.64428 47.597451 
L 9.854716 47.893212 
L 10.065152 48.188974 
L 10.275588 48.484735 
L 10.486024 48.780496 
L 10.673767 49.099039 
L 10.861511 49.417581 
L 11.049254 49.736124 
L 11.236997 50.054667 
L 11.66358 50.486918 
L 12.090162 50.919169 
L 12.516744 51.35142 
L 12.943326 51.783671 
L 13.176553 52.363769 
L 13.40978 52.943868 
L 13.643007 53.523966 
L 13.876234 54.104064 
L 14.137913 54.39418 
L 14.399592 54.684296 
L 14.661271 54.974411 
L 14.92295 55.264527 
L 15.218791 55.611364 
L 15.514632 55.958201 
L 15.810473 56.305038 
L 16.106314 56.651875 
L 16.629673 56.40161 
L 17.153031 56.151345 
L 16.715028 55.667952 
L 16.277026 55.184559 
L 15.839024 54.701166 
L 15.401022 54.217773 
L 15.09947 53.819661 
L 14.797919 53.421549 
L 14.496368 53.023437 
L 14.194817 52.625325 
L 14.017903 52.245146 
L 13.840989 51.864967 
L 13.664075 51.484788 
L 13.487161 51.104609 
L 13.310248 50.72443 
L 13.133334 50.344251 
L 12.95642 49.964072 
L 12.779506 49.583893 
z
" style="fill:#008000;opacity:0.1;"/>
   </g>
   <g id="patch_3">
    <path clip-path="url(#pf6d5ff0f78)" d="M 10.713639 46.733215 
L 10.713639 46.733215 
L 10.440639 46.323679 
L 10.167638 45.914143 
L 9.894637 45.504607 
L 9.621637 45.095071 
L 9.416861 45.424905 
L 9.212086 45.754739 
L 9.007311 46.084573 
L 8.802536 46.414407 
L 9.012972 46.710168 
L 9.223408 47.005929 
L 9.433844 47.30169 
L 9.64428 47.597451 
L 9.854716 47.893212 
L 10.065152 48.188974 
L 10.275588 48.484735 
L 10.486024 48.780496 
L 10.673767 49.099039 
L 10.861511 49.417581 
L 11.049254 49.736124 
L 11.236997 50.054667 
L 11.66358 50.486918 
L 12.090162 50.919169 
L 12.516744 51.35142 
L 12.943326 51.783671 
L 13.176553 52.363769 
L 13.40978 52.943868 
L 13.643007 53.523966 
L 13.876234 54.104064 
L 14.137913 54.39418 
L 14.399592 54.684296 
L 14.661271 54.974411 
L 14.92295 55.264527 
L 15.218791 55.611364 
L 15.514632 55.958201 
L 15.810473 56.305038 
L 16.106314 56.651875 
L 16.629673 56.40161 
L 17.153031 56.151345 
L 16.715028 55.667952 
L 16.277026 55.184559 
L 15.839024 54.701166 
L 15.401022 54.217773 
L 15.09947 53.819661 
L 14.797919 53.421549 
L 14.496368 53.023437 
L 14.194817 52.625325 
L 14.017903 52.245146 
L 13.840989 51.864967 
L 13.664075 51.484788 
L 13.487161 51.104609 
L 13.310248 50.72443 
L 13.133334 50.344251 
L 12.95642 49.964072 
L 12.779506 49.583893 
z
" style="fill:none;stroke:#008000;stroke-linejoin:miter;stroke-width:0.4;"/>
   </g>
   <g id="line2d_1">
    <path clip-path="url(#pf6d5ff0f78)" d="M 41.191665 58.86653 
L 41.238527 57.646025 
L 41.285389 56.425521 
L 41.35076 54.723084 
L 41.409337 53.198649 
L 41.467915 51.674213 
L 41.526492 50.149778 
L 41.58507 48.625343 
L 41.665208 46.539008 
L 41.745346 44.452672 
L 41.800871 43.007939 
L 41.856397 41.563206 
L 41.945199 39.248392 
L 42.034 36.933577 
L 42.085095 35.602419 
L 42.136191 34.271262 
L 42.187286 32.940104 
L 42.238381 31.608946 
L 42.302177 29.951143 
L 42.388615 27.701684 
L 42.475054 25.452225 
L 42.534518 23.901754 
L 42.593981 22.351283 
L 42.684949 19.983599 
L 42.775916 17.615916 
L 42.865702 15.275862 
L 42.92871 13.639313 
" style="fill:none;stroke:#808080;stroke-linecap:square;stroke-width:0.4;"/>
   </g>
   <g id="line2d_2">
    <path clip-path="url(#pf6d5ff0f78)" d="M 23.23564 63.048233 
L 21.959734 61.29213 
L 20.96874 59.928162 
L 19.977746 58.564193 
L 18.793398 56.934551 
L 17.609049 55.304909 
L 16.350469 53.572451 
L 15.09189 51.839994 
L 13.792749 50.05201 
L 12.493608 48.264026 
L 11.231287 46.526521 
L 9.968967 44.789015 
L 8.65112 42.975527 
L 7.333274 41.162039 
L 5.98924 39.311888 
" style="fill:none;stroke:#808080;stroke-linecap:square;stroke-width:0.4;"/>
   </g>
   <g id="line2d_3">
    <path clip-path="url(#pf6d5ff0f78)" d="M 31.22069 63.217201 
L 32.441465 63.558326 
L 34.251756 64.063638 
L 35.405979 64.3859 
L 36.560203 64.708162 
L 37.727421 65.033878 
" style="fill:none;stroke:#808080;stroke-linecap:square;stroke-width:0.4;"/>
   </g>
   <g id="line2d_4">
    <path clip-path="url(#pf6d5ff0f78)" d="M 28.474734 59.922317 
L 27.80764 58.011592 
L 27.308303 56.582002 
L 26.808967 55.152413 
L 26.169045 53.318999 
L 25.529122 51.485585 
L 24.744873 49.240111 
L 23.960623 46.994638 
L 23.253361 44.968876 
L 22.546099 42.943115 
L 21.977061 41.313207 
L 21.408022 39.683299 
L 20.886239 38.189151 
L 20.364456 36.695002 
L 19.865908 35.266741 
L 19.367359 33.838479 
L 18.970312 32.701263 
L 18.573264 31.564047 
L 18.176217 30.426831 
L 17.77917 29.289615 
L 17.381335 28.150274 
L 16.9835 27.010932 
L 16.585666 25.871591 
L 16.187831 24.73225 
L 15.577443 22.984117 
L 14.967056 21.235985 
L 14.28736 19.289128 
L 13.607664 17.342272 
L 13.18945 16.144349 
L 12.771236 14.946427 
L 12.348297 13.734955 
L 11.925357 12.523483 
L 11.176156 10.377372 
L 10.426954 8.23126 
L 9.750802 6.295031 
" style="fill:none;stroke:#808080;stroke-linecap:square;stroke-width:0.4;"/>
   </g>
   <g id="line2d_5">
    <path clip-path="url(#pf6d5ff0f78)" d="M 33.417691 58.232633 
L 33.266473 55.875576 
L 33.11486 53.517988 
L 33.000856 51.74196 
L 32.886851 49.965932 
L 32.753944 47.898991 
L 32.621037 45.83205 
L 32.504276 44.012983 
L 32.387515 42.193915 
L 32.307672 40.950828 
L 32.22783 39.707741 
L 32.147987 38.464654 
L 32.068144 37.221567 
L 31.990172 36.007306 
L 31.9122 34.793045 
L 31.834228 33.578783 
L 31.756256 32.364522 
L 31.672672 31.063252 
L 31.589089 29.761983 
L 31.505505 28.460714 
L 31.421921 27.159444 
L 31.332627 25.770237 
L 31.243334 24.381029 
L 31.15404 22.991822 
L 31.064746 21.602614 
L 30.917859 19.313304 
L 30.770972 17.023995 
L 30.659528 15.291271 
" style="fill:none;stroke:#808080;stroke-linecap:square;stroke-width:0.4;"/>
   </g>
   <g id="line2d_6">
    <path clip-path="url(#pf6d5ff0f78)" d="M 30.946213 58.507339 
L 30.843234 56.696109 
L 30.740256 54.884879 
L 30.637278 53.073649 
L 30.5343 51.262419 
L 30.431321 49.451189 
L 30.328343 47.639959 
L 30.225365 45.828729 
L 30.122387 44.017499 
" style="fill:none;stroke:#808080;stroke-linecap:square;stroke-width:0.4;"/>
   </g>
   <g id="line2d_7">
    <path clip-path="url(#pf6d5ff0f78)" d="M 30.85052 66.703371 
L 31.835016 67.425472 
" style="fill:none;stroke:#808080;stroke-linecap:square;stroke-width:0.4;"/>
   </g>
   <g id="line2d_8">
    <path clip-path="url(#pf6d5ff0f78)" d="M 31.703881 66.692744 
L 32.929185 67.141201 
L 34.154488 67.589658 
" style="fill:none;stroke:#808080;stroke-linecap:square;stroke-width:0.4;"/>
   </g>
   <g id="line2d_9">
    <path clip-path="url(#pf6d5ff0f78)" d="M 33.968222 68.092844 
L 35.231921 68.410058 
L 36.49562 68.727273 
" style="fill:none;stroke:#808080;stroke-linecap:square;stroke-width:0.4;"/>
   </g>
   <g id="line2d_10">
    <path clip-path="url(#pf6d5ff0f78)" d="M 16.12758 68.708676 
L 16.297307 66.830097 
L 16.467034 64.951519 
" style="fill:none;stroke:#808080;stroke-linecap:square;stroke-width:0.4;"/>
   </g>
   <g id="line2d_11">
    <path clip-path="url(#pf6d5ff0f78)" d="M 17.709074 4.146794 
L 17.658668 4.579842 
L 17.817073 5.150243 
L 17.975479 5.720644 
L 18.133884 6.291045 
L 18.292289 6.861447 
L 18.915475 7.18889 
L 19.538661 7.516332 
L 20.161847 7.843775 
L 20.785033 8.171218 
L 21.080776 8.445792 
L 21.376518 8.720365 
L 21.672261 8.994939 
L 21.968003 9.269513 
L 22.263746 9.544086 
L 22.559489 9.81866 
L 22.855231 10.093234 
L 23.150974 10.367807 
L 23.636872 10.55265 
L 24.12277 10.737492 
L 24.608668 10.922335 
L 25.094566 11.107177 
L 25.580464 11.29202 
L 26.066362 11.476862 
L 26.55226 11.661704 
L 27.038158 11.846547 
L 27.265232 12.221545 
L 27.492306 12.596544 
L 27.71938 12.971542 
L 27.946454 13.34654 
L 28.173528 13.721539 
L 28.400602 14.096537 
L 28.627676 14.471535 
L 28.85475 14.846534 
L 28.902301 15.279582 
L 28.949852 15.71263 
L 28.997403 16.145678 
L 29.044954 16.578726 
L 29.092505 17.011774 
L 29.140056 17.444822 
L 29.187608 17.87787 
L 29.235159 18.310918 
L 29.161223 18.764954 
L 29.087288 19.21899 
L 29.013352 19.673027 
L 28.939416 20.127063 
L 29.237325 20.775572 
L 29.535233 21.424082 
L 29.877444 21.960742 
" style="fill:none;stroke:#4169e1;stroke-linecap:square;stroke-width:0.4;"/>
   </g>
   <g id="line2d_12">
    <path clip-path="url(#pf6d5ff0f78)" d="M 9.704334 5.250402 
L 10.235273 4.892672 
L 10.766212 4.534943 
L 11.29715 4.177213 
L 11.828089 3.819484 
L 12.416424 3.682795 
L 13.004758 3.546105 
L 13.593093 3.409416 
L 14.181428 3.272727 
L 14.828931 3.303678 
L 15.476434 3.334629 
L 16.123937 3.36558 
L 16.77144 3.396531 
L 17.240257 3.771662 
L 17.709074 4.146794 
L 18.190886 4.532286 
L 18.672699 4.917778 
L 19.084612 5.060379 
L 19.496525 5.202979 
L 19.908438 5.345579 
L 20.320351 5.48818 
L 20.732264 5.63078 
L 21.144177 5.77338 
L 21.55609 5.915981 
L 21.968003 6.058581 
L 22.316564 6.259231 
L 22.665125 6.459881 
L 23.013686 6.660531 
L 23.362247 6.861181 
L 23.710807 7.061831 
L 24.059368 7.262481 
L 24.407929 7.463131 
L 24.75649 7.663781 
L 25.179035 8.213061 
L 25.601581 8.762342 
L 26.024127 9.311622 
L 26.446672 9.860902 
L 27.022307 10.114421 
L 27.597942 10.36794 
L 28.173577 10.621459 
L 28.749212 10.874978 
L 29.324846 11.128497 
L 29.900481 11.382017 
L 30.476116 11.635536 
L 31.051751 11.889055 
L 31.289408 12.158381 
L 31.527065 12.427708 
L 31.764723 12.697035 
L 32.00238 12.966361 
L 32.240037 13.235688 
L 32.477695 13.505015 
L 32.715352 13.774341 
L 32.953009 14.043668 
" style="fill:none;stroke:#008000;stroke-linecap:square;stroke-width:0.4;"/>
   </g>
   <g id="line2d_13">
    <path clip-path="url(#pf6d5ff0f78)" d="M 8.792691 5.607467 
L 8.4302 5.854012 
L 8.067708 6.100557 
L 7.511566 6.457224 
L 6.955425 6.813891 
L 6.399283 7.170558 
L 5.843141 7.527225 
L 5.364184 7.994412 
L 4.885226 8.461599 
L 4.406269 8.928786 
L 3.927312 9.395973 
L 3.86391 9.871263 
L 3.800509 10.346554 
L 3.737107 10.821844 
L 3.673706 11.297134 
L 3.378948 11.579943 
L 3.08419 11.862753 
L 2.789431 12.145563 
L 2.494673 12.428372 
L 2.665336 12.806625 
L 2.835998 13.184878 
L 3.006661 13.563131 
L 3.177323 13.941384 
L 3.347985 14.319636 
L 3.518648 14.697889 
L 3.68931 15.076142 
L 3.859972 15.454395 
L 3.942325 15.832581 
L 4.024679 16.210768 
L 4.107032 16.588954 
L 4.189385 16.967141 
L 4.271738 17.345327 
L 4.354091 17.723513 
L 4.436444 18.1017 
L 4.518797 18.479886 
L 4.788155 18.749213 
L 5.057513 19.01854 
L 5.326871 19.287866 
L 5.596229 19.557193 
L 5.865588 19.82652 
L 6.134946 20.095846 
L 6.404304 20.365173 
L 6.673662 20.634499 
L 6.94302 20.903826 
L 7.212378 21.173153 
L 7.481736 21.442479 
L 7.751094 21.711806 
L 8.020452 21.981133 
L 8.28981 22.250459 
L 8.559168 22.519786 
L 8.828527 22.789113 
L 9.050334 23.296018 
L 9.27214 23.802923 
L 9.493947 24.309829 
L 9.715754 24.816734 
L 9.65762 25.450432 
L 9.599485 26.08413 
L 9.541351 26.717828 
L 9.483216 27.351526 
L 9.425082 27.985224 
L 9.366947 28.618922 
L 9.308813 29.25262 
L 9.250678 29.886318 
L 9.406475 30.292932 
L 9.562271 30.699545 
L 9.718068 31.106159 
L 9.873864 31.512772 
L 10.029661 31.919386 
L 10.185457 32.325999 
L 10.341254 32.732613 
L 10.49705 33.139226 
L 10.652847 33.54584 
L 10.808643 33.952453 
L 10.96444 34.359067 
L 11.120236 34.76568 
L 11.276033 35.172294 
L 11.431829 35.578907 
L 11.587626 35.985521 
L 11.743422 36.392134 
L 12.105323 36.956425 
L 12.467224 37.520716 
" style="fill:none;stroke:#4169e1;stroke-linecap:square;stroke-width:0.4;"/>
   </g>
   <g id="line2d_14">
    <path clip-path="url(#pf6d5ff0f78)" d="M 33.81464 15.946954 
L 33.683801 16.326601 
L 33.552961 16.706249 
L 33.422122 17.085897 
L 33.291282 17.465544 
L 33.069377 18.025319 
L 32.847471 18.585093 
L 32.625566 19.144867 
L 32.403661 19.704642 
L 32.087884 19.986654 
L 31.772106 20.268667 
L 31.456329 20.550679 
L 31.140552 20.832692 
L 30.824775 21.114705 
L 30.508998 21.396717 
L 30.193221 21.67873 
L 29.877444 21.960742 
L 29.495066 22.336803 
L 29.112688 22.712864 
L 28.730309 23.088925 
L 28.347931 23.464986 
L 27.997254 23.725479 
L 27.646576 23.985972 
L 27.295899 24.246465 
L 26.945221 24.506958 
L 26.672713 24.837855 
L 26.400204 25.168751 
L 26.127696 25.499648 
L 25.855187 25.830544 
L 25.41684 26.205476 
L 24.978494 26.580408 
L 24.540147 26.95534 
L 24.1018 27.330272 
L 23.663453 27.705204 
L 23.225106 28.080136 
L 22.786759 28.455068 
L 22.348413 28.83 
L 21.841397 28.808879 
L 21.334382 28.787758 
L 20.827366 28.766637 
L 20.320351 28.745516 
L 20.109078 29.077475 
L 19.897805 29.409434 
L 19.686532 29.741393 
L 19.47526 30.073352 
L 19.263987 30.405312 
L 19.052714 30.737271 
L 18.841441 31.06923 
L 18.630168 31.401189 
L 18.281657 31.93081 
L 17.933145 32.46043 
L 17.584634 32.990051 
L 17.236122 33.519671 
L 16.692139 33.799558 
L 16.148156 34.079445 
L 15.604172 34.359332 
L 15.060189 34.63922 
L 14.516206 34.919107 
L 13.972223 35.198994 
L 13.428239 35.478881 
L 12.884256 35.758768 
L 12.723094 36.411396 
L 12.561932 37.064023 
L 12.40077 37.71665 
L 12.239608 38.369278 
L 12.005249 38.873759 
L 11.77089 39.37824 
L 11.53653 39.882721 
L 11.302171 40.387202 
L 11.067812 40.891683 
L 10.833453 41.396164 
L 10.599093 41.900645 
L 10.364734 42.405126 
L 10.130375 42.909607 
L 9.896016 43.414088 
L 9.661656 43.918569 
L 9.427297 44.42305 
L 9.192938 44.927531 
L 8.958578 45.432012 
L 8.724219 45.936493 
L 8.48986 46.440974 
" style="fill:none;stroke:#008000;stroke-linecap:square;stroke-width:0.4;"/>
   </g>
   <g id="line2d_15">
    <path clip-path="url(#pf6d5ff0f78)" d="M 8.067708 6.100557 
L 7.898769 6.734455 
L 7.95267 7.332287 
L 8.006571 7.930119 
L 8.060472 8.527951 
L 8.114373 9.125783 
L 8.168274 9.723615 
L 8.222176 10.321447 
L 8.276077 10.919279 
L 8.329978 11.517112 
L 8.770737 12.059219 
L 9.211496 12.601326 
L 9.652254 13.143433 
L 10.093013 13.68554 
L 10.362716 13.925709 
L 10.632419 14.165878 
L 10.902121 14.406047 
L 11.171824 14.646216 
L 11.441527 14.886385 
L 11.711229 15.126554 
L 11.980932 15.366723 
L 12.250635 15.606892 
L 12.573549 15.808007 
L 12.896464 16.009121 
L 13.064013 16.452913 
L 13.231562 16.896704 
L 13.399111 17.340495 
L 13.566659 17.784286 
L 13.734208 18.228077 
L 13.901757 18.671869 
L 14.069306 19.11566 
L 14.236855 19.559451 
L 14.404404 20.003242 
L 14.571953 20.447034 
L 14.739502 20.890825 
L 14.907051 21.334616 
L 15.0746 21.778407 
L 15.242149 22.222198 
L 15.409697 22.66599 
L 15.577246 23.109781 
L 15.744795 23.553572 
L 15.912344 23.997363 
L 16.079893 24.441154 
L 16.247442 24.884946 
L 16.414991 25.328737 
L 16.58254 25.772528 
L 16.750089 26.216319 
L 16.917638 26.66011 
L 17.085187 27.103902 
L 17.252735 27.547693 
L 17.420284 27.991484 
L 17.587833 28.435275 
L 17.755382 28.879066 
L 17.922931 29.322858 
L 18.09048 29.766649 
L 18.258029 30.21044 
L 18.444099 30.805815 
L 18.630168 31.401189 
" style="fill:none;stroke:#4169e1;stroke-linecap:square;stroke-width:0.4;"/>
   </g>
   <g id="line2d_16">
    <path clip-path="url(#pf6d5ff0f78)" d="M 45.438781 18.131854 
L 45.346238 18.753597 
L 45.253696 19.375339 
L 45.161153 19.997082 
L 45.06861 20.618825 
L 44.976068 21.240567 
L 44.883525 21.86231 
L 44.790983 22.484053 
L 44.69844 23.105796 
L 44.5295 23.449046 
L 44.360561 23.792296 
L 44.191621 24.135547 
L 44.022682 24.478797 
L 43.853742 24.822047 
L 43.684803 25.165298 
L 43.515863 25.508548 
L 43.346924 25.851798 
L 43.156719 26.258412 
L 42.966515 26.665025 
L 42.77631 27.071639 
L 42.586105 27.478252 
L 42.433016 28.138451 
L 42.279927 28.79865 
L 42.126838 29.458849 
L 41.973749 30.119048 
L 42.075497 30.675635 
L 42.177244 31.232221 
L 42.278992 31.788807 
L 42.38074 32.345393 
L 42.482487 32.90198 
L 42.584235 33.458566 
L 42.685983 34.015152 
L 42.78773 34.571739 
L 42.695089 35.132576 
L 42.602448 35.693413 
L 42.509807 36.25425 
L 42.417166 36.815087 
L 42.596738 37.475153 
L 42.77631 38.135219 
L 42.955882 38.795285 
L 43.135454 39.455351 
L 43.315026 40.115417 
L 43.494598 40.775484 
L 43.67417 41.43555 
L 43.853742 42.095616 
L 44.160019 42.692319 
L 44.466296 43.289022 
L 44.772572 43.885725 
L 45.078849 44.482428 
L 45.189753 44.965555 
L 45.300656 45.448683 
L 45.41156 45.93181 
L 45.522463 46.414938 
L 45.633367 46.898065 
L 45.74427 47.381193 
L 45.855173 47.86432 
L 45.966077 48.347448 
L 45.712569 48.991707 
L 45.459061 49.635965 
L 45.205554 50.280224 
L 44.952046 50.924482 
L 44.698538 51.568741 
L 44.445031 52.212999 
L 44.191523 52.857258 
L 43.938015 53.501517 
L 43.584187 53.871069 
L 43.23036 54.240621 
L 42.876532 54.610173 
L 42.522704 54.979725 
L 41.920586 55.317662 
L 41.318468 55.655598 
L 40.716351 55.993535 
L 40.114233 56.331472 
L 39.618047 56.70129 
L 39.121861 57.071108 
L 39.206134 57.736354 
L 39.290407 58.401601 
L 39.818687 58.728911 
L 40.346968 59.056221 
" style="fill:none;stroke:#4169e1;stroke-linecap:square;stroke-width:0.4;"/>
   </g>
   <g id="line2d_17">
    <path clip-path="url(#pf6d5ff0f78)" d="M 43.491842 14.257269 
L 43.629376 14.595804 
L 43.76691 14.934339 
L 43.904444 15.272873 
L 44.041978 15.611408 
L 44.179512 15.949943 
L 44.317046 16.288477 
L 44.45458 16.627012 
L 44.592114 16.965547 
L 44.803781 17.257123 
L 45.015448 17.5487 
L 45.227114 17.840277 
L 45.438781 18.131854 
L 45.739643 18.546172 
L 46.040505 18.96049 
L 46.341367 19.374808 
L 46.642229 19.789126 
L 46.821788 20.264416 
L 47.001348 20.739706 
L 47.180908 21.214996 
L 47.360468 21.690287 
L 47.540028 22.165577 
L 47.719587 22.640867 
L 47.899147 23.116157 
L 48.078707 23.591447 
L 48.258267 24.066737 
L 48.437826 24.542027 
L 48.617386 25.017317 
L 48.796946 25.492608 
L 48.976506 25.967898 
L 49.156065 26.443188 
L 49.335625 26.918478 
L 49.515185 27.393768 
L 49.694745 27.869058 
L 49.874304 28.344348 
L 50.053864 28.819639 
L 50.233424 29.294929 
L 50.412984 29.770219 
L 50.592543 30.245509 
L 50.772103 30.720799 
L 50.951663 31.196089 
L 51.131223 31.671379 
L 51.310782 32.14667 
L 51.490342 32.62196 
L 51.669902 33.09725 
L 51.849462 33.57254 
L 52.029021 34.04783 
L 52.208581 34.52312 
L 52.388141 34.99841 
L 52.256883 35.334521 
L 52.125625 35.670631 
L 51.994367 36.006741 
L 51.863109 36.342852 
L 51.731851 36.678962 
L 51.600593 37.015073 
L 51.469335 37.351183 
L 51.338078 37.687293 
L 51.20682 38.023404 
L 51.075562 38.359514 
L 50.944304 38.695624 
L 50.813046 39.031735 
L 50.681788 39.367845 
L 50.55053 39.703955 
L 50.419272 40.040066 
L 50.288014 40.376176 
L 50.165764 40.884974 
L 50.043515 41.393773 
L 49.921265 41.902571 
L 49.799015 42.411369 
L 49.676765 42.920167 
L 49.554515 43.428966 
L 49.432266 43.937764 
L 49.310016 44.446562 
L 49.187766 44.95536 
L 49.065516 45.464158 
L 48.943267 45.972957 
L 48.821017 46.481755 
L 48.698767 46.990553 
L 48.576517 47.499351 
L 48.454267 48.00815 
L 48.332018 48.516948 
L 48.437654 49.097777 
L 48.54329 49.678606 
L 48.648927 50.259435 
L 48.754563 50.840264 
L 48.8602 51.421093 
L 48.965836 52.001922 
L 49.071473 52.582751 
L 49.177109 53.16358 
L 48.8919 53.681046 
L 48.606692 54.198511 
L 48.321483 54.715977 
L 48.036275 55.233443 
L 47.751067 55.750909 
L 47.465858 56.268375 
L 47.18065 56.78584 
L 46.895441 57.303306 
L 46.388475 57.588441 
L 45.881509 57.873575 
L 45.374543 58.158709 
L 44.867576 58.443843 
L 44.36061 58.728977 
L 43.853644 59.014112 
L 43.346678 59.299246 
L 42.839712 59.58438 
L 42.416575 59.691181 
L 41.993439 59.797982 
" style="fill:none;stroke:#4169e1;stroke-linecap:square;stroke-width:0.4;"/>
   </g>
   <g id="line2d_18">
    <path clip-path="url(#pf6d5ff0f78)" d="M 36.332981 39.307105 
L 36.407581 39.862231 
L 36.482181 40.417356 
L 36.556781 40.972481 
L 36.631382 41.527606 
L 36.705982 42.082731 
L 36.780582 42.637856 
L 36.855182 43.192981 
L 36.929782 43.748106 
L 37.004382 44.303231 
L 37.078983 44.858356 
L 37.153583 45.413481 
L 37.228183 45.968606 
L 37.302783 46.523731 
L 37.377383 47.078856 
L 37.451984 47.633981 
L 37.526584 48.189106 
L 37.601184 48.744232 
L 37.675784 49.299357 
L 37.750384 49.854482 
L 37.824984 50.409607 
L 37.899585 50.964732 
L 37.974185 51.519857 
L 38.048785 52.074982 
L 38.123385 52.630107 
L 38.197985 53.185232 
L 38.272586 53.740357 
L 38.347186 54.295482 
L 38.421786 54.850607 
L 38.496386 55.405732 
L 38.570986 55.960857 
L 38.645586 56.515982 
L 38.720187 57.071108 
L 38.371675 57.47254 
L 38.023164 57.873973 
" style="fill:none;stroke:#4169e1;stroke-linecap:square;stroke-width:0.4;"/>
   </g>
   <g id="line2d_19">
    <path clip-path="url(#pf6d5ff0f78)" d="M 28.208526 38.246536 
L 28.552903 38.776821 
L 28.89728 39.307105 
L 29.023984 39.761275 
L 29.150689 40.215444 
L 29.277394 40.669613 
L 29.404098 41.123782 
L 29.530803 41.577951 
L 29.657508 42.03212 
L 29.784212 42.486289 
L 29.910917 42.940458 
L 29.682514 43.403262 
L 29.454111 43.866065 
L 29.225708 44.328869 
L 28.997305 44.791672 
L 28.852682 45.482423 
L 28.70806 46.173175 
L 28.563437 46.863926 
L 28.418815 47.554678 
" style="fill:none;stroke:#008000;stroke-linecap:square;stroke-width:0.4;"/>
   </g>
   <g id="line2d_20">
    <path clip-path="url(#pf6d5ff0f78)" d="M 35.587127 14.773208 
L 35.744646 15.292666 
L 35.902165 15.812124 
L 36.059685 16.331583 
L 36.217204 16.851041 
L 36.374723 17.3705 
L 36.532243 17.889958 
L 36.689762 18.409416 
L 36.847282 18.928875 
L 37.004801 19.448333 
L 37.16232 19.967791 
L 37.31984 20.48725 
L 37.477359 21.006708 
L 37.634878 21.526167 
L 37.792398 22.045625 
L 37.949917 22.565083 
L 38.107436 23.084542 
L 38.360944 23.697119 
L 38.614452 24.309696 
L 38.86796 24.922273 
L 39.121467 25.53485 
L 39.374975 26.147427 
L 39.628483 26.760004 
L 39.88199 27.372581 
L 40.135498 27.985158 
L 40.209434 28.523811 
L 40.283369 29.062464 
L 40.357305 29.601118 
L 40.431241 30.139771 
L 40.505176 30.678424 
L 40.579112 31.217078 
L 40.653048 31.755731 
L 40.726983 32.294384 
L 40.980491 32.674563 
L 41.233999 33.054742 
L 41.487506 33.434921 
L 41.741014 33.8151 
L 42.264372 34.193419 
L 42.78773 34.571739 
" style="fill:none;stroke:#008000;stroke-linecap:square;stroke-width:0.4;"/>
   </g>
   <g id="line2d_21">
    <path clip-path="url(#pf6d5ff0f78)" d="M 12.467224 37.520716 
L 12.793289 37.90395 
L 13.119354 38.287184 
L 13.445419 38.670419 
L 13.771484 39.053653 
L 13.940522 39.623988 
L 14.10956 40.194323 
L 14.278598 40.764657 
L 14.447636 41.334992 
L 14.616674 41.905327 
L 14.785712 42.475662 
L 14.95475 43.045997 
L 15.123788 43.616332 
L 15.609636 44.102116 
L 16.095485 44.5879 
L 16.581334 45.073685 
L 17.067183 45.559469 
L 17.204471 46.203727 
L 17.341758 46.847986 
L 17.479046 47.492245 
L 17.616334 48.136503 
L 17.753622 48.780762 
L 17.89091 49.42502 
L 18.028198 50.069279 
L 18.165486 50.713537 
L 18.41353 51.007439 
L 18.661574 51.30134 
L 18.909618 51.595242 
L 19.157661 51.889143 
L 19.405705 52.183045 
L 19.653749 52.476946 
L 19.901793 52.770848 
L 20.149836 53.064749 
L 20.39788 53.358651 
L 20.645924 53.652552 
L 20.893968 53.946453 
L 21.142011 54.240355 
L 21.390055 54.534256 
L 21.638099 54.828158 
L 21.886143 55.122059 
L 22.134186 55.415961 
L 22.307458 56.107509 
L 22.480729 56.799058 
L 22.654 57.490606 
L 22.827272 58.182155 
L 23.199313 58.752157 
L 23.571354 59.32216 
L 23.943395 59.892163 
L 24.315436 60.462166 
" style="fill:none;stroke:#008000;stroke-linecap:square;stroke-width:0.4;"/>
   </g>
   <g id="line2d_22">
    <path clip-path="url(#pf6d5ff0f78)" d="M 6.090446 38.628575 
L 6.625323 38.491089 
L 7.1602 38.353603 
L 7.695076 38.216117 
L 8.229953 38.078631 
L 8.761581 38.143721 
L 9.293209 38.208811 
L 9.483339 38.604864 
L 9.67347 39.000917 
L 9.863601 39.39697 
L 10.053732 39.793023 
L 10.243863 40.189076 
L 10.433993 40.585128 
L 10.624124 40.981181 
L 10.814255 41.377234 
L 11.004386 41.773287 
L 11.194516 42.16934 
L 11.384647 42.565393 
L 11.574778 42.961446 
L 11.764909 43.357499 
L 11.95504 43.753552 
L 12.14517 44.149605 
L 12.335301 44.545658 
L 12.530699 44.883628 
L 12.726097 45.221598 
L 12.921495 45.559568 
L 13.116893 45.897539 
L 13.31229 46.235509 
L 13.507688 46.573479 
L 13.703086 46.911449 
L 13.898484 47.249419 
L 14.093882 47.587389 
L 14.28928 47.925359 
L 14.484677 48.263329 
L 14.680075 48.601299 
L 14.875473 48.939269 
L 15.070871 49.277239 
L 15.266269 49.615209 
L 15.461667 49.953179 
L 15.767992 50.417843 
L 16.074318 50.882506 
L 16.380644 51.347169 
L 16.68697 51.811832 
L 16.993296 52.276495 
L 17.299622 52.741159 
L 17.605948 53.205822 
L 17.912274 53.670485 
L 18.197433 53.96618 
L 18.482592 54.261875 
L 18.767752 54.557569 
L 19.052911 54.853264 
L 19.33807 55.148959 
L 19.623229 55.444654 
L 19.908389 55.740348 
L 20.193548 56.036043 
L 20.236669 56.733835 
L 20.27979 57.431627 
L 20.322911 58.129418 
L 20.366032 58.82721 
L 20.669946 59.099393 
L 20.973859 59.371576 
L 21.277773 59.643758 
L 21.581687 59.915941 
L 22.068914 60.15332 
L 22.556141 60.3907 
L 23.043368 60.628079 
L 23.530595 60.865458 
L 23.891315 61.165935 
L 24.252034 61.466412 
L 24.056119 62.083306 
L 23.860205 62.700201 
" style="fill:none;stroke:#4169e1;stroke-linecap:square;stroke-width:0.4;"/>
   </g>
   <g id="line2d_23">
    <path clip-path="url(#pf6d5ff0f78)" d="M 43.092924 13.198826 
L 43.029621 12.607303 
L 42.966318 12.015781 
L 42.903015 11.424259 
L 42.839712 10.832736 
L 42.611505 10.211392 
L 42.383299 9.590048 
L 42.155093 8.968704 
L 41.926887 8.347359 
L 41.698681 7.726015 
L 41.470475 7.104671 
L 41.242268 6.483327 
L 41.014062 5.861983 
L 40.477709 5.552473 
L 39.941355 5.242963 
L 39.532987 5.475693 
L 39.124618 5.708423 
L 38.94854 6.276566 
L 38.772463 6.844709 
L 38.596386 7.412852 
L 38.420309 7.980995 
L 38.244232 8.549139 
L 38.068155 9.117282 
L 37.892078 9.685425 
L 37.716001 10.253568 
L 37.423212 10.682498 
L 37.130423 11.111428 
L 36.837633 11.540358 
L 36.544844 11.969288 
L 36.42513 12.319778 
L 36.305415 12.670268 
L 36.1857 13.020758 
L 36.065986 13.371248 
L 35.946271 13.721738 
L 35.826556 14.072228 
L 35.706841 14.422718 
L 35.587127 14.773208 
L 35.403617 15.310931 
L 35.139575 15.580258 
L 34.875533 15.849584 
L 34.611491 16.118911 
L 34.347449 16.388238 
L 34.083408 16.657564 
L 33.819366 16.926891 
L 33.555324 17.196218 
L 33.291282 17.465544 
" style="fill:none;stroke:#008000;stroke-linecap:square;stroke-width:0.4;"/>
   </g>
   <g id="line2d_24">
    <path clip-path="url(#pf6d5ff0f78)" d="M 32.403661 19.704642 
L 32.783873 20.15363 
L 33.164085 20.602619 
L 33.544298 21.051607 
L 33.92451 21.500596 
L 33.892858 21.871542 
L 33.861207 22.242489 
L 33.829555 22.613436 
L 33.797904 22.984383 
L 33.766252 23.35533 
L 33.734601 23.726276 
L 33.702949 24.097223 
L 33.671298 24.46817 
L 33.771667 24.815406 
L 33.872036 25.162641 
L 33.972406 25.509876 
L 34.072775 25.857112 
L 34.173144 26.204347 
L 34.273514 26.551583 
L 34.373883 26.898818 
L 34.474252 27.246054 
L 34.497979 27.803171 
L 34.521705 28.360289 
L 34.545432 28.917406 
L 34.569158 29.474524 
L 34.592884 30.031642 
L 34.616611 30.588759 
L 34.640337 31.145877 
L 34.664063 31.702995 
L 34.75412 32.100376 
L 34.844177 32.497757 
L 34.934234 32.895139 
L 35.02429 33.29252 
L 35.114347 33.689901 
L 35.204404 34.087283 
L 35.294461 34.484664 
L 35.384517 34.882045 
L 35.474574 35.279427 
L 35.564631 35.676808 
L 35.654688 36.074189 
L 35.744745 36.471571 
L 35.834801 36.868952 
L 35.924858 37.266333 
L 36.014915 37.663715 
L 36.104972 38.061096 
L 36.218976 38.684101 
L 36.332981 39.307105 
" style="fill:none;stroke:#008000;stroke-linecap:square;stroke-width:0.4;"/>
   </g>
   <g id="line2d_25">
    <path clip-path="url(#pf6d5ff0f78)" d="M 29.877444 21.960742 
L 29.815815 22.600484 
L 29.754185 23.240227 
L 29.705883 23.709174 
L 29.657581 24.178121 
L 29.60928 24.647068 
L 29.560978 25.116015 
L 29.512676 25.584962 
L 29.464374 26.05391 
L 29.416072 26.522857 
L 29.36777 26.991804 
L 29.319469 27.460751 
L 29.271167 27.929698 
L 29.222865 28.398646 
L 29.174563 28.867593 
L 29.126261 29.33654 
L 29.077959 29.805487 
L 29.029658 30.274434 
L 28.981356 30.743381 
L 28.933054 31.212329 
L 28.884752 31.681276 
L 28.83645 32.150223 
L 28.788148 32.61917 
L 28.739847 33.088117 
L 28.691545 33.557064 
L 28.643243 34.026012 
L 28.594941 34.494959 
L 28.546639 34.963906 
L 28.498337 35.432853 
L 28.450036 35.9018 
L 28.401734 36.370748 
L 28.353432 36.839695 
L 28.30513 37.308642 
L 28.256828 37.777589 
L 28.208526 38.246536 
L 28.130087 38.597989 
L 28.051647 38.949442 
L 27.973207 39.300895 
L 27.894768 39.652348 
L 27.816328 40.003801 
L 27.737888 40.355254 
L 27.659448 40.706707 
L 27.581009 41.05816 
L 27.502569 41.409613 
L 27.424129 41.761066 
L 27.34569 42.112519 
L 27.26725 42.463972 
L 27.18881 42.815425 
L 27.11037 43.166878 
L 27.031931 43.518331 
L 26.953491 43.869784 
L 27.136656 44.330396 
L 27.319822 44.791008 
L 27.502987 45.25162 
L 27.686153 45.712231 
L 27.869318 46.172843 
L 28.052484 46.633455 
L 28.235649 47.094066 
L 28.418815 47.554678 
L 28.558909 47.88843 
L 28.699002 48.222183 
L 28.839096 48.555935 
L 28.97919 48.889688 
L 29.119284 49.22344 
L 29.259377 49.557193 
L 29.399471 49.890945 
L 29.539565 50.224698 
L 29.364177 50.771587 
L 29.188789 51.318476 
L 29.013401 51.865365 
L 28.838013 52.412255 
L 28.662625 52.959144 
L 28.487237 53.506033 
L 28.311849 54.052922 
L 28.136461 54.599811 
L 28.474537 55.064475 
L 28.812613 55.529138 
L 29.150689 55.993801 
L 29.488765 56.458464 
L 29.594352 56.891446 
L 29.699939 57.324427 
L 29.805527 57.757409 
L 29.911114 58.190391 
L 30.016701 58.623372 
L 30.122288 59.056354 
L 30.227875 59.489335 
L 30.333462 59.922317 
" style="fill:none;stroke:#008000;stroke-linecap:square;stroke-width:0.4;"/>
   </g>
   <g id="line2d_26">
    <path clip-path="url(#pf6d5ff0f78)" d="M 31.219509 14.895418 
L 31.169201 15.512046 
L 31.118893 16.128675 
L 31.068586 16.745303 
L 31.018278 17.361932 
L 31.070407 18.066 
L 31.122536 18.770068 
L 31.174665 19.474137 
L 31.226794 20.178205 
L 31.278923 20.882273 
L 31.331052 21.586342 
L 31.383181 22.29041 
L 31.43531 22.994478 
L 31.487439 23.698547 
L 31.539568 24.402615 
L 31.591698 25.106683 
L 31.643827 25.810752 
L 31.695956 26.51482 
L 31.748085 27.218889 
L 31.800214 27.922957 
L 31.852343 28.627025 
L 31.897839 29.280699 
L 31.943335 29.934372 
L 31.988831 30.588045 
L 32.034327 31.241719 
L 32.079823 31.895392 
L 32.125319 32.549065 
L 32.170815 33.202739 
L 32.216311 33.856412 
L 32.261807 34.510086 
L 32.307303 35.163759 
L 32.352799 35.817432 
L 32.398295 36.471106 
L 32.443791 37.124779 
L 32.489287 37.778453 
L 32.534783 38.432126 
L 32.580279 39.085799 
L 32.625775 39.739473 
L 32.671271 40.393146 
L 32.716767 41.046819 
L 32.762263 41.700493 
L 32.807759 42.354166 
L 32.853255 43.00784 
L 32.898751 43.661513 
L 32.944247 44.315186 
L 32.989743 44.96886 
L 33.035239 45.622533 
L 33.080735 46.276206 
L 33.126231 46.92988 
L 33.171727 47.583553 
L 33.217223 48.237227 
L 33.262719 48.8909 
L 33.308215 49.544573 
L 33.24378 50.108698 
L 33.179345 50.672823 
L 33.11491 51.236948 
L 33.050474 51.801072 
L 32.986039 52.365197 
L 32.921604 52.929322 
L 32.857169 53.493447 
L 32.792733 54.057571 
L 32.728298 54.621696 
L 32.663863 55.185821 
L 32.599428 55.749946 
L 32.534992 56.314071 
L 32.470557 56.878195 
L 32.406122 57.44232 
L 32.341687 58.006445 
L 32.277251 58.57057 
" style="fill:none;stroke:#4169e1;stroke-linecap:square;stroke-width:0.4;"/>
   </g>
   <g id="line2d_27">
    <path clip-path="url(#pf6d5ff0f78)" d="M 24.315436 60.462166 
L 24.740443 60.522341 
L 25.165449 60.582516 
L 25.590456 60.642691 
L 26.015463 60.702866 
" style="fill:none;stroke:#008000;stroke-linecap:square;stroke-width:0.4;"/>
   </g>
   <g id="line2d_28">
    <path clip-path="url(#pf6d5ff0f78)" d="M 5.638366 39.434097 
L 5.828472 39.90434 
L 6.018578 40.374582 
L 6.208684 40.844824 
L 6.398791 41.315067 
L 6.588897 41.785309 
L 6.779003 42.255551 
L 6.969109 42.725794 
L 7.159215 43.196036 
L 7.325546 43.601653 
L 7.491876 44.007271 
L 7.658207 44.412888 
L 7.824538 44.818505 
L 7.990868 45.224122 
L 8.157199 45.62974 
L 8.323529 46.035357 
L 8.48986 46.440974 
L 8.652991 46.792361 
L 8.816122 47.143747 
L 8.979253 47.495134 
L 9.142384 47.84652 
L 9.305515 48.197907 
L 9.468646 48.549294 
L 9.631777 48.90068 
L 9.794908 49.252067 
L 9.958039 49.603453 
L 10.12117 49.95484 
L 10.284301 50.306227 
L 10.447432 50.657613 
L 10.610563 51.009 
L 10.773694 51.360386 
L 10.936825 51.711773 
L 11.099956 52.063159 
L 11.406232 52.361445 
L 11.712509 52.65973 
L 12.018786 52.958015 
L 12.325062 53.2563 
L 12.631339 53.554585 
L 12.937616 53.85287 
L 13.243892 54.151155 
L 13.550169 54.44944 
L 13.856446 54.747725 
L 14.162723 55.04601 
L 14.468999 55.344295 
L 14.775276 55.64258 
L 15.081553 55.940865 
L 15.387829 56.239151 
L 15.694106 56.537436 
L 16.000383 56.835721 
L 16.310081 57.246319 
L 16.619778 57.656918 
L 16.929476 58.067517 
L 17.239174 58.478115 
L 17.548872 58.888714 
L 17.85857 59.299312 
L 18.168267 59.709911 
L 18.477965 60.12051 
L 18.787663 60.531108 
L 19.097361 60.941707 
L 19.407059 61.352305 
L 19.716757 61.762904 
L 20.026454 62.173503 
L 20.336152 62.584101 
L 20.64585 62.9947 
L 20.955548 63.405298 
L 21.59232 63.565765 
L 22.229092 63.726232 
" style="fill:none;stroke:#008000;stroke-linecap:square;stroke-width:0.4;"/>
   </g>
   <g id="line2d_29">
    <path clip-path="url(#pf6d5ff0f78)" d="M 18.630168 31.401189 
L 18.746733 31.629137 
L 18.831006 31.661018 
L 19.182224 32.042525 
L 19.533443 32.424033 
L 19.884662 32.80554 
L 20.235881 33.187048 
L 20.5871 33.568555 
L 20.938319 33.950062 
L 21.289538 34.33157 
L 21.640757 34.713077 
L 21.560225 35.128923 
L 21.479693 35.544768 
L 21.399162 35.960614 
L 21.31863 36.37646 
L 21.238098 36.792305 
L 21.157566 37.208151 
L 21.077035 37.623997 
L 20.996503 38.039842 
L 21.146934 38.73697 
L 21.297365 39.434097 
L 21.447796 40.131225 
L 21.598227 40.828353 
L 21.746196 41.387994 
L 21.894166 41.947636 
L 22.042136 42.507277 
L 22.190106 43.066919 
L 22.331332 43.691385 
L 22.472558 44.315851 
L 22.613784 44.940316 
L 22.75501 45.564782 
L 22.896235 46.189248 
L 23.037461 46.813714 
L 23.178687 47.43818 
L 23.319913 48.062646 
L 23.457226 48.440533 
L 23.594538 48.818421 
L 23.731851 49.196308 
L 23.869164 49.574196 
L 24.006476 49.952084 
L 24.143789 50.329971 
L 24.281101 50.707859 
L 24.418414 51.085746 
L 24.555726 51.463634 
L 24.693039 51.841521 
L 24.830352 52.219409 
L 24.967664 52.597296 
L 25.104977 52.975184 
L 25.242289 53.353071 
L 25.379602 53.730959 
L 25.516914 54.108846 
L 25.654227 54.486734 
L 25.79154 54.864622 
L 25.928852 55.242509 
L 26.066165 55.620397 
L 26.203477 55.998284 
L 26.34079 56.376172 
L 26.478102 56.754059 
L 26.615415 57.131947 
L 26.752728 57.509834 
L 26.89004 57.887722 
L 27.027353 58.265609 
L 27.164665 58.643497 
L 27.301978 59.021385 
L 27.43929 59.399272 
L 27.576603 59.77716 
L 27.713916 60.155047 
L 27.946454 60.440115 
L 28.178992 60.725183 
" style="fill:none;stroke:#008000;stroke-linecap:square;stroke-width:0.4;"/>
   </g>
   <g id="line2d_30">
    <path clip-path="url(#pf6d5ff0f78)" d="M 38.234239 65.498275 
L 37.832959 65.667244 
L 37.431678 65.836212 
L 37.061976 65.730607 
L 36.692273 65.625002 
L 36.32257 65.519396 
L 35.952867 65.413791 
L 35.583164 65.308186 
L 35.213461 65.202581 
L 34.843758 65.096975 
L 34.474056 64.99137 
L 34.104353 64.885765 
L 33.73465 64.780159 
L 33.364947 64.674554 
L 32.995244 64.568949 
L 32.625541 64.463344 
L 32.255839 64.357738 
L 31.886136 64.252133 
L 31.516433 64.146528 
L 31.030683 63.639623 
L 30.544932 63.132717 
" style="fill:none;stroke:#008000;stroke-linecap:square;stroke-width:0.4;"/>
   </g>
   <g id="line2d_31">
    <path clip-path="url(#pf6d5ff0f78)" d="M 30.757977 44.42823 
L 30.791155 44.807214 
L 30.824332 45.186197 
L 30.85751 45.565181 
L 30.890687 45.944164 
L 30.923865 46.323148 
L 30.957042 46.702131 
L 30.99022 47.081115 
L 31.023397 47.460098 
L 31.047074 48.061716 
L 31.070752 48.663334 
L 31.094429 49.264952 
L 31.118106 49.86657 
L 31.141783 50.468188 
L 31.16546 51.069806 
L 31.189137 51.671424 
L 31.212814 52.273042 
L 31.245992 52.964657 
L 31.279169 53.656271 
L 31.312347 54.347886 
L 31.345524 55.039501 
L 31.378702 55.731116 
L 31.411879 56.422731 
L 31.445057 57.114346 
L 31.478234 57.805961 
L 31.383526 58.241666 
L 31.288817 58.67737 
" style="fill:none;stroke:#008000;stroke-linecap:square;stroke-width:0.4;"/>
   </g>
  </g>
 </g>
 <defs>
  <clipPath id="pf6d5ff0f78">
   <rect height="72" width="54.882814" x="0" y="0"/>
  </clipPath>
 </defs>
</svg>
