<?xml version="1.0" encoding="utf-8" standalone="no"?>
<!DOCTYPE svg PUBLIC "-//W3C//DTD SVG 1.1//EN"
  "http://www.w3.org/Graphics/SVG/1.1/DTD/svg11.dtd">
<svg height="72pt" version="1.1" viewBox="0 0 125.990583 72" width="125.990583pt" xmlns="http://www.w3.org/2000/svg" xmlns:xlink="http://www.w3.org/1999/xlink">
 <metadata>
  <rdf:RDF xmlns:cc="http://creativecommons.org/ns#" xmlns:dc="http://purl.org/dc/elements/1.1/" xmlns:rdf="http://www.w3.org/1999/02/22-rdf-syntax-ns#">
   <cc:Work>
    <dc:type rdf:resource="http://purl.org/dc/dcmitype/StillImage"/>
    <dc:date>2022-04-19T00:51:59.592713</dc:date>
    <dc:format>image/svg+xml</dc:format>
    <dc:creator>
     <cc:Agent>
      <dc:title>Matplotlib v3.4.3, https://matplotlib.org/</dc:title>
     </cc:Agent>
    </dc:creator>
   </cc:Work>
  </rdf:RDF>
 </metadata>
 <defs>
  <style type="text/css">*{stroke-linecap:butt;stroke-linejoin:round;}</style>
 </defs>
 <g id="figure_1">
  <g id="patch_1">
   <path d="M 0 72 
L 125.990583 72 
L 125.990583 0 
L 0 0 
z
" style="fill:#ffffff;"/>
  </g>
  <g id="axes_1">
   <g id="line2d_1">
    <path clip-path="url(#pd37719e426)" d="M 96.247871 40.243175 
L 95.03355 39.781449 
L 93.819228 39.319722 
L 91.88432 38.58374 
L 89.949412 37.847757 
L 88.661467 37.357952 
L 87.373523 36.868148 
L 86.181058 36.414646 
L 84.988593 35.961145 
L 82.640475 35.068322 
L 80.292357 34.1755 
L 78.13566 33.355283 
L 75.978962 32.535066 
L 73.621641 31.638557 
L 71.26432 30.742048 
L 69.539238 30.085761 
L 67.814156 29.429474 
L 65.628469 28.598196 
L 63.442782 27.766918 
L 61.17657 26.905294 
L 58.910358 26.043669 
L 57.674064 25.573434 
L 56.437771 25.103199 
L 55.201477 24.632964 
L 53.965184 24.162729 
L 52.499278 23.605283 
L 51.033373 23.047836 
L 49.567467 22.490389 
L 48.101561 21.932942 
L 45.798307 21.056853 
L 43.495054 20.180764 
L 41.859009 19.558511 
L 40.222965 18.936258 
L 38.864043 18.41951 
L 37.505121 17.902762 
L 36.146199 17.386014 
L 34.787277 16.869267 
L 32.56892 16.02551 
L 30.350563 15.181753 
L 29.017294 14.674648 
L 27.684025 14.167543 
L 27.276797 14.012689 
" style="fill:none;stroke:#808080;stroke-linecap:square;stroke-width:0.58329;"/>
   </g>
   <g id="line2d_2">
    <path clip-path="url(#pd37719e426)" d="M 118.857537 60.591471 
L 118.132119 59.044631 
L 117.406701 57.497791 
L 116.70452 55.997747 
L 116.002339 54.497703 
L 115.23965 52.868047 
L 114.47696 51.238391 
L 113.592792 49.349794 
L 112.708624 47.461196 
L 111.83458 45.593303 
L 110.960535 43.72541 
L 109.879885 41.416777 
L 108.799236 39.108145 
L 107.878486 37.140986 
L 106.957737 35.173827 
L 106.33194 33.836579 
L 105.706144 32.499331 
L 105.144882 31.300345 
L 104.583621 30.10136 
L 104.02236 28.902374 
L 103.461098 27.703388 
L 102.455222 25.554148 
L 101.449346 23.404908 
L 100.394695 21.151297 
L 99.340043 18.897686 
L 98.554576 17.219816 
L 97.769109 15.541945 
L 96.690646 13.237425 
L 95.612182 10.932905 
L 94.533718 8.628385 
L 93.455254 6.323866 
L 92.884214 5.104318 
" style="fill:none;stroke:#808080;stroke-linecap:square;stroke-width:0.58329;"/>
   </g>
   <g id="line2d_3">
    <path clip-path="url(#pd37719e426)" d="M 111.778212 58.342398 
L 110.613816 56.716996 
L 109.44942 55.091594 
" style="fill:none;stroke:#808080;stroke-linecap:square;stroke-width:0.58329;"/>
   </g>
   <g id="line2d_4">
    <path clip-path="url(#pd37719e426)" d="M 116.123357 59.824574 
L 115.517807 58.878432 
L 114.676663 57.560328 
L 113.835518 56.242224 
L 112.994374 54.924119 
L 112.15323 53.606015 
L 111.179564 52.079879 
L 110.205898 50.553742 
L 109.19312 48.966629 
L 108.180341 47.379515 
L 107.100382 45.686896 
L 106.020423 43.994277 
L 105.176747 42.672061 
L 104.333072 41.349844 
L 103.674605 40.31805 
" style="fill:none;stroke:#808080;stroke-linecap:square;stroke-width:0.58329;"/>
   </g>
   <g id="line2d_5">
    <path clip-path="url(#pd37719e426)" d="M 114.010373 61.293704 
L 113.114472 60.136835 
L 112.21857 58.979966 
L 110.702854 57.021883 
L 109.544095 55.524959 
L 108.385336 54.028035 
L 107.226577 52.531111 
L 106.067817 51.034188 
L 105.094151 49.776068 
L 104.120485 48.517949 
L 103.772616 48.068701 
L 102.247697 46.098706 
L 100.722778 44.128711 
L 99.288737 42.276133 
L 97.854696 40.423555 
L 96.770596 39.022777 
L 95.686495 37.621998 
L 94.826485 36.493775 
L 93.966474 35.365552 
L 93.106464 34.237328 
L 92.246454 33.109105 
L 91.383683 31.979179 
L 90.520912 30.849254 
L 89.070076 28.949312 
L 87.61924 27.04937 
L 86.432067 25.538833 
L 85.386848 24.174358 
L 84.34163 22.809882 
L 83.22693 21.354933 
L 82.112229 19.899984 
L 80.983725 18.426884 
L 79.85522 16.953784 
L 78.691284 15.434171 
L 77.527348 13.914558 
L 76.750164 12.900064 
L 75.97298 11.88557 
L 75.195796 10.871077 
L 74.418611 9.856583 
" style="fill:none;stroke:#808080;stroke-linecap:square;stroke-width:0.58329;"/>
   </g>
   <g id="line2d_6">
    <path clip-path="url(#pd37719e426)" d="M 92.23541 39.242579 
L 90.906053 39.29051 
L 89.576695 39.338441 
L 87.713109 39.405374 
L 85.419519 39.487907 
L 83.125928 39.570439 
L 80.672667 39.658643 
L 78.219406 39.746848 
L 76.67378 39.802436 
L 75.128154 39.858025 
L 73.582529 39.913614 
L 72.036903 39.969202 
L 69.758037 40.051167 
L 67.479171 40.133132 
L 64.96287 40.223606 
L 62.446569 40.314079 
L 60.7147 40.376333 
L 58.982831 40.438587 
L 57.250961 40.50084 
L 55.519092 40.563094 
L 53.460405 40.637401 
L 52.178672 40.683347 
L 50.89694 40.729293 
L 49.154142 40.791972 
L 47.411344 40.854651 
L 44.94865 40.943139 
L 42.621239 41.027089 
L 40.129786 41.116712 
L 37.638333 41.206334 
L 37.093982 41.22562 
L 35.517527 41.282343 
L 33.941071 41.339067 
L 32.427656 41.393521 
L 30.91424 41.447975 
L 29.400824 41.502429 
L 27.887409 41.556883 
L 25.671582 41.636579 
L 23.455756 41.716276 
L 21.81396 41.775409 
L 20.172164 41.834543 
L 18.530368 41.893677 
L 16.888572 41.952811 
L 15.045118 42.019035 
L 13.201664 42.08526 
L 11.358209 42.151484 
L 9.514755 42.217708 
L 7.415575 42.29315 
L 7.127525 42.30336 
L 6.22058 42.33626 
" style="fill:none;stroke:#808080;stroke-linecap:square;stroke-width:0.58329;"/>
   </g>
   <g id="line2d_7">
    <path clip-path="url(#pd37719e426)" d="M 119.619076 68.727273 
L 119.941407 67.255591 
L 120.263739 65.783908 
" style="fill:none;stroke:#808080;stroke-linecap:square;stroke-width:0.58329;"/>
   </g>
   <g id="line2d_8">
    <path clip-path="url(#pd37719e426)" d="M 111.883125 58.113804 
L 110.776477 56.609506 
L 109.669829 55.105208 
" style="fill:none;stroke:#808080;stroke-linecap:square;stroke-width:0.58329;"/>
   </g>
   <g id="line2d_9">
    <path clip-path="url(#pd37719e426)" d="M 109.44942 55.091594 
L 109.697898 54.819323 
L 110.039786 54.961698 
L 110.312536 55.327066 
L 110.585287 55.692434 
L 110.858038 56.057802 
L 111.130788 56.42317 
L 111.403539 56.788538 
L 111.67629 57.153906 
L 111.949041 57.519274 
L 112.221791 57.884642 
L 112.079147 58.212502 
L 111.778212 58.342398 
" style="fill:none;stroke:#008000;stroke-linecap:square;stroke-width:0.58329;"/>
   </g>
   <g id="line2d_10">
    <path clip-path="url(#pd37719e426)" d="M 103.024421 39.542644 
L 102.835302 39.552287 
L 102.70416 39.785419 
L 102.791588 40.145044 
L 103.02931 40.526649 
L 103.267032 40.908254 
L 103.504754 41.289859 
L 103.742477 41.671464 
L 103.980199 42.053069 
L 104.217921 42.434674 
L 104.455643 42.816279 
L 104.693365 43.197884 
L 104.931088 43.579489 
L 105.16881 43.961094 
L 105.406532 44.342699 
L 105.644254 44.724304 
L 105.881977 45.105909 
L 106.119699 45.487514 
L 106.357421 45.869119 
L 106.595143 46.250724 
L 106.830335 46.628252 
L 107.065526 47.00578 
L 107.300717 47.383308 
L 107.535909 47.760836 
L 107.7711 48.138364 
L 108.006292 48.515892 
L 108.241483 48.89342 
L 108.476674 49.270948 
L 108.711866 49.648476 
L 108.947057 50.026004 
L 109.182249 50.403532 
L 109.41744 50.78106 
L 109.652631 51.158588 
L 109.887823 51.536116 
L 110.123014 51.913645 
L 110.358206 52.291173 
L 110.593397 52.668701 
L 110.828589 53.046229 
L 111.06378 53.423757 
L 111.298971 53.801285 
L 111.534163 54.178813 
L 111.769354 54.556341 
L 112.004546 54.933869 
L 112.239737 55.311397 
L 112.474928 55.688925 
L 112.71012 56.066453 
L 112.945311 56.443981 
L 113.180503 56.821509 
L 113.415694 57.199037 
L 113.650885 57.576565 
L 113.886077 57.954093 
L 114.121268 58.331621 
" style="fill:none;stroke:#008000;stroke-linecap:square;stroke-width:0.58329;"/>
   </g>
   <g id="line2d_11">
    <path clip-path="url(#pd37719e426)" d="M 92.125896 4.271622 
L 91.607773 4.382232 
L 91.08965 4.492842 
L 90.599136 4.858139 
L 90.144053 4.985199 
" style="fill:none;stroke:#008000;stroke-linecap:square;stroke-width:0.58329;"/>
   </g>
   <g id="line2d_12">
    <path clip-path="url(#pd37719e426)" d="M 112.221791 57.884642 
L 112.684237 58.232639 
L 113.146682 58.580636 
L 113.609127 58.928632 
L 114.071573 59.276629 
L 114.672291 59.728428 
L 115.27301 60.180228 
L 115.570034 60.528934 
L 115.867057 60.877639 
L 116.16408 61.226345 
L 116.461104 61.575051 
L 116.774922 61.659568 
" style="fill:none;stroke:#008000;stroke-linecap:square;stroke-width:0.58329;"/>
   </g>
   <g id="line2d_13">
    <path clip-path="url(#pd37719e426)" d="M 90.470296 24.800865 
L 90.875223 25.00677 
L 91.28015 25.212675 
L 91.919579 25.450699 
L 92.559007 25.688724 
L 93.198436 25.926748 
L 93.837864 26.164773 
L 94.477293 26.402797 
L 95.116721 26.640822 
L 95.756149 26.878846 
L 96.395578 27.116871 
L 96.979961 27.371274 
L 97.564345 27.625678 
L 98.148729 27.880081 
L 98.733112 28.134484 
L 99.246749 28.386051 
L 99.760385 28.637619 
L 100.274022 28.889186 
L 100.787658 29.140753 
L 101.203859 29.552847 
L 101.62006 29.96494 
" style="fill:none;stroke:#008000;stroke-linecap:square;stroke-width:0.58329;"/>
   </g>
   <g id="line2d_14">
    <path clip-path="url(#pd37719e426)" d="M 116.774922 61.659568 
L 117.474342 61.735577 
L 117.877889 61.820945 
L 118.281436 61.906314 
L 118.723635 61.99934 
" style="fill:none;stroke:#008000;stroke-linecap:square;stroke-width:0.58329;"/>
   </g>
   <g id="line2d_15">
    <path clip-path="url(#pd37719e426)" d="M 90.144053 4.985199 
L 89.468791 5.020935 
L 88.793529 5.05667 
L 88.302555 5.242722 
L 87.81158 5.428774 
L 87.584729 5.864975 
L 87.357878 6.301176 
L 86.833083 6.477585 
L 86.308288 6.653994 
L 86.312199 7.234556 
L 86.31611 7.815117 
L 86.320022 8.395679 
L 86.323933 8.97624 
L 86.355338 9.390177 
L 86.386743 9.804114 
L 86.418147 10.218052 
L 86.449552 10.631989 
L 86.480957 11.045926 
L 86.512362 11.459863 
L 86.543767 11.8738 
L 86.575172 12.287738 
L 86.570915 12.698697 
L 86.566659 13.109656 
L 86.562403 13.520615 
L 86.558146 13.931575 
L 86.617735 14.444352 
L 86.677324 14.957129 
" style="fill:none;stroke:#4169e1;stroke-linecap:square;stroke-width:0.58329;"/>
   </g>
   <g id="line2d_16">
    <path clip-path="url(#pd37719e426)" d="M 100.226282 21.307853 
L 100.723698 21.549919 
L 101.221114 21.791985 
L 101.718531 22.034051 
L 102.215947 22.276117 
L 102.739822 22.464296 
L 103.263696 22.652475 
L 103.787571 22.840654 
L 104.311445 23.028833 
L 104.779643 23.461773 
L 105.24784 23.894712 
L 105.716037 24.327652 
L 106.184234 24.760591 
L 106.578923 25.189986 
L 106.973612 25.61938 
L 107.368301 26.048774 
L 107.76299 26.478168 
L 108.28836 27.017889 
L 108.81373 27.55761 
L 109.3391 28.097331 
L 109.864471 28.637051 
L 110.266177 29.148411 
L 110.667883 29.65977 
L 111.069589 30.171129 
L 111.471295 30.682488 
L 111.767399 31.186048 
L 112.063502 31.689608 
L 112.359605 32.193168 
L 112.655708 32.696727 
L 112.970217 33.364926 
L 113.284725 34.033125 
" style="fill:none;stroke:#4169e1;stroke-linecap:square;stroke-width:0.58329;"/>
   </g>
   <g id="line2d_17">
    <path clip-path="url(#pd37719e426)" d="M 100.114927 37.999775 
L 100.574036 38.156189 
L 101.033145 38.312603 
L 101.492255 38.469017 
L 101.951364 38.625431 
L 102.354105 38.792481 
L 102.756847 38.95953 
L 103.159588 39.12658 
L 103.56233 39.29363 
L 104.014192 39.764999 
L 104.466054 40.236369 
L 104.917916 40.707738 
L 105.369778 41.179107 
L 105.87076 41.572057 
L 106.371743 41.965007 
L 106.872725 42.357956 
L 107.373708 42.750906 
L 107.904139 43.114218 
L 108.434571 43.477529 
L 108.965003 43.840841 
L 109.495435 44.204153 
L 110.035644 44.47926 
L 110.575854 44.754367 
L 111.116064 45.029475 
L 111.656274 45.304582 
L 112.09042 45.366694 
L 112.524566 45.428806 
" style="fill:none;stroke:#008000;stroke-linecap:square;stroke-width:0.58329;"/>
   </g>
   <g id="line2d_18">
    <path clip-path="url(#pd37719e426)" d="M 92.125896 4.271622 
L 92.61411 4.327494 
L 93.102323 4.383367 
" style="fill:none;stroke:#008000;stroke-linecap:square;stroke-width:0.58329;"/>
   </g>
   <g id="line2d_19">
    <path clip-path="url(#pd37719e426)" d="M 116.026727 54.583355 
L 116.237818 55.143496 
L 116.44891 55.703637 
L 116.660001 56.263778 
L 116.871092 56.82392 
L 117.05331 57.249201 
L 117.235527 57.674483 
L 117.417744 58.099765 
L 117.599961 58.525047 
L 117.666797 58.96848 
L 117.733633 59.411913 
L 117.800469 59.855347 
L 117.867305 60.29878 
L 117.970838 60.700663 
L 118.074371 61.102547 
L 118.177903 61.50443 
L 118.281436 61.906314 
" style="fill:none;stroke:#008000;stroke-linecap:square;stroke-width:0.58329;"/>
   </g>
   <g id="line2d_20">
    <path clip-path="url(#pd37719e426)" d="M 90.144053 4.985199 
L 89.451076 4.471855 
L 88.824819 4.263113 
L 87.010929 4.211495 
L 85.785679 4.866577 
L 81.661288 7.892828 
L 80.022713 9.021619 
L 79.04502 10.200184 
L 78.45592 11.202057 
L 77.040515 16.04905 
L 76.13173 17.788749 
L 75.145525 21.201214 
L 74.084546 24.138338 
L 73.642693 25.817911 
L 72.770604 27.838389 
L 71.580094 29.780874 
L 69.301113 32.486993 
L 66.698075 36.484274 
L 66.315005 37.721831 
L 66.133363 39.598233 
L 66.285786 41.611905 
L 66.61778 43.469021 
L 66.857055 43.867217 
L 67.215508 43.742994 
L 69.03768 42.321512 
L 72.008374 39.596248 
L 72.976518 38.746251 
L 74.684345 38.15789 
L 75.956415 37.95156 
L 79.738918 36.526391 
L 81.733185 35.957174 
L 82.806702 35.766159 
L 88.324872 35.295498 
L 94.68476 34.938993 
L 97.049903 35.815366 
L 99.774305 37.776711 
L 100.114927 37.999775 
L 101.08123 39.373751 
L 101.661013 40.490488 
L 101.789853 42.108232 
L 101.775589 42.695317 
L 102.548631 44.127009 
L 103.636873 45.072017 
L 106.595143 46.250724 
L 106.595143 46.250724 
" style="fill:none;stroke:#008000;stroke-linecap:square;stroke-width:0.58329;"/>
   </g>
   <g id="line2d_21">
    <path clip-path="url(#pd37719e426)" d="M 94.255905 5.241021 
L 94.217483 5.767979 
L 94.179061 6.294937 
L 94.140639 6.821895 
L 94.102217 7.348853 
L 94.160656 7.882334 
L 94.219094 8.415815 
L 94.488163 9.074371 
L 94.757233 9.732927 
L 95.026303 10.391483 
L 95.295372 11.050038 
" style="fill:none;stroke:#4169e1;stroke-linecap:square;stroke-width:0.58329;"/>
   </g>
   <g id="line2d_22">
    <path clip-path="url(#pd37719e426)" d="M 76.720715 16.601533 
L 77.459937 16.440723 
L 78.19916 16.279913 
L 78.630775 16.151151 
L 79.062391 16.02239 
L 79.698311 15.760896 
L 80.33423 15.499402 
L 81.084726 15.384822 
L 81.835222 15.270241 
L 82.356796 15.270241 
L 82.87837 15.270241 
L 83.366353 15.308529 
L 83.854337 15.346817 
L 84.34232 15.385105 
L 84.830303 15.423393 
L 85.243053 15.421124 
L 85.655803 15.418856 
L 86.230063 15.628448 
L 86.804324 15.83804 
" style="fill:none;stroke:#008000;stroke-linecap:square;stroke-width:0.58329;"/>
   </g>
   <g id="line2d_23">
    <path clip-path="url(#pd37719e426)" d="M 92.125896 4.271622 
L 91.840376 4.828927 
L 91.554857 5.386232 
L 91.772735 5.80258 
L 91.990614 6.218928 
L 92.021616 6.600462 
L 92.052618 6.981996 
L 92.08362 7.36353 
L 92.114623 7.745064 
L 92.145625 8.126598 
L 92.176627 8.508132 
L 92.207629 8.889666 
L 92.238632 9.2712 
L 92.367702 9.983501 
L 92.496773 10.695802 
L 92.625843 11.408103 
L 92.754914 12.120404 
" style="fill:none;stroke:#4169e1;stroke-linecap:square;stroke-width:0.58329;"/>
   </g>
   <g id="line2d_24">
    <path clip-path="url(#pd37719e426)" d="M 116.026727 54.583355 
L 115.971625 55.005659 
L 115.916522 55.427963 
L 115.86142 55.850267 
L 115.806318 56.27257 
L 115.7182 56.713593 
L 115.630082 57.154615 
L 115.321555 57.617193 
L 115.013028 58.07977 
L 114.946768 58.506045 
L 114.880507 58.932319 
L 115.076759 59.556274 
L 115.27301 60.180228 
" style="fill:none;stroke:#008000;stroke-linecap:square;stroke-width:0.58329;"/>
   </g>
   <g id="line2d_25">
    <path clip-path="url(#pd37719e426)" d="M 101.62006 29.96494 
L 101.967354 30.366682 
L 102.314648 30.768424 
L 102.661942 31.170166 
L 103.009236 31.571907 
L 103.323745 32.085535 
L 103.638254 32.599163 
L 103.952763 33.112792 
L 104.267272 33.62642 
L 104.686463 34.097931 
L 105.105655 34.569442 
L 105.524847 35.040953 
L 105.944039 35.512465 
L 106.436623 35.973624 
L 106.929208 36.434783 
L 107.421793 36.895942 
L 107.914378 37.357101 
L 108.331729 37.928304 
L 108.625646 38.330471 
L 108.919564 38.732638 
L 109.213481 39.134805 
L 109.507398 39.536972 
L 109.819952 40.122922 
L 110.132505 40.708872 
L 110.445058 41.294823 
L 110.757611 41.880773 
L 111.032087 42.395252 
L 111.306564 42.909731 
L 111.58104 43.42421 
L 111.855516 43.938689 
L 112.12125 44.530595 
L 112.386983 45.122501 
L 112.524566 45.428806 
L 112.818369 46.083391 
L 113.112171 46.737976 
L 113.405973 47.392561 
L 113.699776 48.047146 
L 113.888435 48.392945 
L 114.077094 48.738743 
L 114.265754 49.084542 
L 114.454413 49.43034 
L 114.643072 49.776139 
L 114.831732 50.121937 
L 115.020391 50.467736 
L 115.20905 50.813534 
L 115.376773 51.463298 
L 115.544496 52.113062 
L 115.712218 52.762826 
L 115.879941 53.412589 
L 115.953334 53.997972 
L 116.026727 54.583355 
" style="fill:none;stroke:#008000;stroke-linecap:square;stroke-width:0.58329;"/>
   </g>
   <g id="line2d_26">
    <path clip-path="url(#pd37719e426)" d="M 76.375146 17.262925 
L 76.525844 17.734295 
L 76.676541 18.205664 
L 76.945956 18.846636 
L 77.21537 19.487607 
L 77.600626 19.893036 
L 77.985883 20.298465 
L 78.371139 20.703893 
L 78.756395 21.109322 
L 79.075965 21.437607 
L 79.395535 21.765893 
L 79.715106 22.094178 
L 80.034676 22.422463 
L 80.34792 22.854977 
L 80.661163 23.287491 
L 80.974407 23.720005 
L 81.28765 24.152519 
L 81.624706 24.658206 
L 81.961762 25.163893 
L 82.327807 25.713824 
L 82.693852 26.263755 
L 82.957975 26.645502 
L 83.235787 26.918056 
L 83.5136 27.190611 
L 83.791412 27.463166 
L 84.069224 27.735721 
L 84.420084 28.021463 
L 84.770945 28.307206 
L 85.121805 28.592949 
L 85.472665 28.878692 
L 85.889211 29.298443 
L 86.305757 29.718195 
L 86.722303 30.137946 
L 87.138849 30.557697 
L 87.442659 30.836917 
L 87.74647 31.116137 
L 88.05028 31.395356 
L 88.354091 31.674576 
L 88.711278 31.871405 
L 89.068465 32.068235 
L 89.425653 32.265064 
L 89.78284 32.461893 
L 90.403115 32.894407 
L 91.02339 33.326922 
L 91.330306 33.570264 
L 91.637223 33.813606 
L 91.944139 34.056948 
L 92.251055 34.300291 
L 92.876622 34.66105 
L 93.502189 35.021809 
" style="fill:none;stroke:#4169e1;stroke-linecap:square;stroke-width:0.58329;"/>
   </g>
   <g id="line2d_27">
    <path clip-path="url(#pd37719e426)" d="M 99.084663 9.08288 
L 99.490395 9.08288 
L 99.896128 9.08288 
L 100.30186 9.08288 
L 100.707593 9.08288 
L 101.045224 9.329767 
L 101.382855 9.576655 
L 101.720486 9.823542 
L 102.058117 10.07043 
L 102.456315 10.463663 
L 102.854513 10.856896 
L 103.25271 11.250129 
L 103.650908 11.643363 
L 104.049106 12.036596 
L 104.447303 12.429829 
L 104.845501 12.823062 
L 105.243698 13.216296 
L 105.544748 13.565143 
L 105.845798 13.91399 
L 106.146847 14.262838 
L 106.447897 14.611685 
L 106.748946 14.960533 
L 107.049996 15.30938 
L 107.351046 15.658227 
L 107.652095 16.007075 
L 107.80262 16.625853 
L 107.953145 17.244632 
L 108.10367 17.863411 
L 108.254194 18.482189 
L 108.404719 19.100968 
L 108.555244 19.719747 
L 108.705769 20.338525 
L 108.856294 20.957304 
L 109.138247 21.602388 
L 109.420201 22.247472 
L 109.702155 22.892556 
L 109.984108 23.53764 
L 110.266062 24.182724 
L 110.548015 24.827808 
L 110.829969 25.472892 
L 111.111923 26.117976 
L 111.379497 26.643516 
L 111.647071 27.169056 
L 111.749424 27.598061 
L 111.851778 28.027065 
L 111.954131 28.456069 
L 112.056484 28.885073 
L 112.158838 29.314078 
L 112.261191 29.743082 
L 112.363545 30.172086 
L 112.465898 30.601091 
L 112.568251 31.030095 
L 112.670605 31.459099 
L 112.772958 31.888103 
L 112.875312 32.317108 
L 112.977665 32.746112 
L 113.080019 33.175116 
L 113.182372 33.60412 
L 113.284725 34.033125 
" style="fill:none;stroke:#000000;stroke-linecap:square;stroke-width:0.58329;"/>
   </g>
   <g id="line2d_28">
    <path clip-path="url(#pd37719e426)" d="M 93.102323 4.383367 
L 93.679114 4.812194 
L 94.255905 5.241021 
L 94.651745 5.573135 
L 95.047584 5.905249 
L 95.443424 6.237363 
L 95.839263 6.569477 
L 96.269498 6.917332 
L 96.699733 7.265186 
L 97.129969 7.613041 
L 97.560204 7.960896 
L 97.941319 8.241392 
L 98.322433 8.521888 
L 98.703548 8.802384 
L 99.084663 9.08288 
L 99.375014 9.664576 
L 99.665365 10.246271 
L 99.119979 10.402827 
L 98.574593 10.559383 
L 98.029206 10.715939 
L 97.48382 10.872495 
L 96.936708 10.916881 
L 96.389596 10.961267 
L 95.842484 11.005653 
L 95.295372 11.050038 
L 94.660258 11.31763 
L 94.025143 11.585221 
L 93.390028 11.852813 
L 92.754914 12.120404 
L 92.272222 12.314965 
L 91.78953 12.509525 
L 91.397545 12.667499 
L 91.005559 12.825473 
L 90.613573 12.983447 
L 90.221588 13.141421 
L 89.829602 13.299395 
L 89.437616 13.457369 
L 89.045631 13.615343 
L 88.653645 13.773317 
L 88.102162 13.976386 
L 87.550678 14.179455 
L 87.114001 14.568292 
L 86.677324 14.957129 
" style="fill:none;stroke:#008000;stroke-linecap:square;stroke-width:0.58329;"/>
   </g>
   <g id="line2d_29">
    <path clip-path="url(#pd37719e426)" d="M 80.022713 9.021619 
L 80.228857 9.353874 
L 80.435002 9.68613 
L 80.641147 10.018386 
L 80.847292 10.350642 
L 81.169163 11.023379 
L 81.491034 11.696115 
L 81.785066 12.265616 
L 82.05103 12.834549 
L 82.330798 13.171201 
L 82.610566 13.507853 
L 83.023546 13.861238 
L 83.436525 14.214623 
L 83.779333 14.391457 
L 84.122141 14.568292 
L 84.464949 14.745126 
L 84.807756 14.921961 
L 85.23178 15.170408 
L 85.655803 15.418856 
" style="fill:none;stroke:#4169e1;stroke-linecap:square;stroke-width:0.58329;"/>
   </g>
   <g id="line2d_30">
    <path clip-path="url(#pd37719e426)" d="M 114.121268 58.331621 
L 114.409204 58.793773 
L 114.697139 59.255925 
L 114.985075 59.718076 
L 115.27301 60.180228 
" style="fill:none;stroke:#008000;stroke-linecap:square;stroke-width:0.58329;"/>
   </g>
   <g id="line2d_31">
    <path clip-path="url(#pd37719e426)" d="M 73.949264 9.322819 
L 73.798797 9.891185 
L 73.692733 10.355464 
L 73.58667 10.819742 
L 73.505685 11.209998 
L 73.424699 11.600253 
" style="fill:none;stroke:#008000;stroke-linecap:square;stroke-width:0.58329;"/>
   </g>
   <g id="line2d_32">
    <path clip-path="url(#pd37719e426)" d="M 114.121268 58.331621 
L 114.09642 58.804125 
L 114.071573 59.276629 
L 114.154514 59.760761 
L 114.237455 60.244893 
L 114.320396 60.729025 
L 114.403337 61.213157 
" style="fill:none;stroke:#008000;stroke-linecap:square;stroke-width:0.58329;"/>
   </g>
   <g id="line2d_33">
    <path clip-path="url(#pd37719e426)" d="M 73.949264 9.322819 
L 74.544461 9.16995 
L 75.139658 9.017081 
L 75.551142 8.796995 
L 75.962627 8.576909 
L 76.374111 8.356823 
L 76.785595 8.136737 
L 77.420365 7.855391 
L 78.055134 7.574044 
L 78.560833 7.329567 
L 79.066532 7.08509 
L 79.512872 7.011776 
L 79.959213 6.938461 
L 80.405553 6.865146 
L 80.851893 6.791832 
L 81.536128 6.718375 
L 82.220363 6.644919 
L 82.760113 6.704478 
L 83.299862 6.764037 
L 84.029652 6.58224 
L 84.759441 6.400442 
L 85.146653 6.46383 
L 85.533864 6.527218 
L 85.921076 6.590606 
L 86.308288 6.653994 
" style="fill:none;stroke:#008000;stroke-linecap:square;stroke-width:0.58329;"/>
   </g>
   <g id="line2d_34">
    <path clip-path="url(#pd37719e426)" d="M 82.693852 26.263755 
L 83.22992 26.007792 
L 83.765989 25.751828 
L 84.302057 25.495865 
L 84.838126 25.239902 
L 85.405024 25.162191 
L 85.971922 25.08448 
L 86.53882 25.00677 
L 87.105718 24.929059 
" style="fill:none;stroke:#008000;stroke-linecap:square;stroke-width:0.58329;"/>
   </g>
   <g id="line2d_35">
    <path clip-path="url(#pd37719e426)" d="M 26.881993 13.304784 
L 27.991862 13.463609 
L 30.905382 13.106536 
L 32.758385 12.571637 
L 37.029102 10.411336 
L 40.31856 6.486661 
L 43.126018 4.271622 
L 45.607117 3.5796 
L 48.913716 4.131516 
L 50.19706 4.242764 
L 57.123271 4.501563 
L 61.388007 4.580196 
L 63.312159 4.820418 
L 66.894327 5.815059 
L 68.142239 6.965688 
L 69.408557 8.168077 
L 71.513373 10.319586 
L 74.045434 12.242926 
L 74.878066 13.236858 
L 76.077893 15.431335 
L 76.720715 16.601533 
L 77.822301 17.186916 
L 87.105718 24.929059 
L 90.726596 25.432193 
L 90.726596 25.432193 
" style="fill:none;stroke:#4169e1;stroke-linecap:square;stroke-width:0.58329;"/>
   </g>
   <g id="line2d_36">
    <path clip-path="url(#pd37719e426)" d="M 92.754914 12.120404 
L 92.961979 12.582698 
L 93.169044 13.044992 
L 93.376109 13.507285 
L 93.583174 13.969579 
L 93.701172 14.444742 
L 93.819171 14.919905 
L 93.937169 15.395067 
L 94.055167 15.87023 
L 94.173166 16.345393 
L 94.291164 16.820556 
L 94.409162 17.295718 
L 94.527161 17.770881 
L 94.645159 18.246044 
L 94.763157 18.721207 
L 94.881156 19.196369 
L 94.999154 19.671532 
L 95.117152 20.146695 
L 95.235151 20.621857 
L 95.353149 21.09702 
L 95.471147 21.572183 
L 95.577556 22.046956 
L 95.683964 22.521729 
L 95.790373 22.996501 
L 95.896781 23.471274 
L 96.00319 23.946047 
L 96.109598 24.42082 
L 96.216006 24.895592 
L 96.322415 25.370365 
L 96.340706 25.806992 
L 96.358996 26.243618 
L 96.377287 26.680245 
L 96.395578 27.116871 
L 96.302974 27.534495 
L 96.21037 27.952119 
L 96.117766 28.369744 
L 96.025161 28.787368 
L 95.887118 29.288233 
L 95.749075 29.789099 
L 95.611031 30.289964 
L 95.472988 30.790829 
L 95.211166 31.33991 
L 94.949343 31.88899 
L 94.687521 32.43807 
L 94.425699 32.98715 
" style="fill:none;stroke:#4169e1;stroke-linecap:square;stroke-width:0.58329;"/>
   </g>
   <g id="line2d_37">
    <path clip-path="url(#pd37719e426)" d="M 91.78953 12.509525 
L 91.766868 13.176731 
L 91.744206 13.843937 
L 91.721544 14.511143 
L 91.698882 15.178349 
L 91.792406 15.583778 
L 91.885931 15.989207 
L 91.979455 16.394636 
L 92.072979 16.800064 
L 92.166504 17.205493 
L 92.260028 17.610922 
L 92.353553 18.01635 
L 92.447077 18.421779 
L 92.374144 18.84621 
L 92.301211 19.270641 
L 92.228278 19.695072 
L 92.155345 20.119503 
L 92.082412 20.543934 
L 92.009479 20.968365 
L 91.936547 21.392796 
L 91.863614 21.817227 
L 91.790681 22.241658 
L 91.717748 22.666089 
L 91.644815 23.09052 
L 91.571882 23.514951 
L 91.498949 23.939382 
L 91.426016 24.363813 
L 91.353083 24.788244 
L 91.28015 25.212675 
" style="fill:none;stroke:#000000;stroke-dasharray:2.158172,0.933264;stroke-dashoffset:0;stroke-width:0.58329;"/>
   </g>
   <g id="line2d_38">
    <path clip-path="url(#pd37719e426)" d="M 95.295372 11.050038 
L 95.513596 11.648326 
L 95.731819 12.246613 
L 95.950043 12.844901 
L 96.168266 13.443188 
L 96.457812 14.053671 
L 96.747358 14.664154 
L 97.036904 15.274637 
L 97.32645 15.88512 
L 97.519481 16.280835 
L 97.712512 16.67655 
L 97.905542 17.072265 
L 98.098573 17.467979 
L 98.291604 17.863694 
L 98.484634 18.259409 
L 98.677665 18.655124 
L 98.870696 19.050839 
L 99.209592 19.615092 
L 99.548489 20.179346 
L 99.887385 20.7436 
L 100.226282 21.307853 
L 100.512492 21.899617 
L 100.798702 22.491382 
L 101.084912 23.083146 
L 101.371121 23.67491 
L 101.627077 24.312337 
L 101.883032 24.949763 
L 102.138988 25.587189 
L 102.394943 26.224616 
L 102.298083 26.692156 
L 102.201222 27.159697 
L 102.104362 27.627238 
L 102.007501 28.094778 
L 101.910641 28.562319 
L 101.813781 29.029859 
L 101.71692 29.4974 
L 101.62006 29.96494 
" style="fill:none;stroke:#4169e1;stroke-linecap:square;stroke-width:0.58329;"/>
   </g>
   <g id="line2d_39">
    <path clip-path="url(#pd37719e426)" d="M 99.665365 10.246271 
L 100.053037 10.876749 
L 100.440709 11.507227 
L 100.623156 12.129409 
L 100.805604 12.751591 
L 100.988051 13.373773 
L 101.170498 13.995955 
L 101.352946 14.618137 
L 101.535393 15.240319 
L 101.71784 15.862502 
L 101.900288 16.484684 
L 102.082447 17.019654 
L 102.264607 17.554624 
L 102.446767 18.089594 
L 102.628927 18.624564 
L 102.811086 19.159535 
L 102.993246 19.694505 
L 103.175406 20.229475 
L 103.357566 20.764445 
L 103.596036 21.330542 
L 103.834506 21.896639 
L 104.072976 22.462736 
L 104.311445 23.028833 
" style="fill:none;stroke:#4169e1;stroke-linecap:square;stroke-width:0.58329;"/>
   </g>
   <g id="line2d_40">
    <path clip-path="url(#pd37719e426)" d="M 66.894327 5.815059 
L 67.339402 5.622767 
L 67.784477 5.430476 
L 68.229552 5.238184 
L 68.674626 5.045893 
L 69.41868 4.917273 
L 70.162734 4.788653 
L 70.906788 4.660034 
L 71.650842 4.531414 
L 72.142966 4.440799 
L 72.635091 4.350184 
L 73.127216 4.259568 
L 73.61934 4.168953 
L 74.076379 4.071956 
L 74.533418 3.97496 
L 74.990456 3.877963 
L 75.447495 3.780967 
L 76.189708 3.652489 
L 76.931921 3.524011 
L 77.424736 3.523869 
L 77.917551 3.523727 
L 78.410366 3.523585 
L 78.903181 3.523444 
L 79.337787 3.524011 
L 79.772394 3.524578 
L 80.207 3.525145 
L 80.641607 3.525713 
L 81.145926 3.462466 
L 81.650244 3.39922 
L 82.154563 3.335974 
L 82.658881 3.272727 
L 83.099239 3.280243 
L 83.539598 3.287759 
L 83.979956 3.295275 
L 84.420315 3.302791 
L 84.878273 3.39766 
L 85.336232 3.492529 
L 85.794191 3.587399 
L 86.25215 3.682268 
L 86.631539 3.946882 
L 87.010929 4.211495 
L 87.317615 4.587003 
L 87.624301 4.96251 
L 87.81158 5.428774 
" style="fill:none;stroke:#008000;stroke-linecap:square;stroke-width:0.58329;"/>
   </g>
   <g id="line2d_41">
    <path clip-path="url(#pd37719e426)" d="M 101.62006 29.96494 
L 101.441063 30.421704 
L 101.262067 30.878467 
L 101.083071 31.33523 
L 100.904075 31.791993 
L 100.576912 32.329445 
L 100.249749 32.866897 
L 99.922586 33.404349 
L 99.595423 33.9418 
L 99.49005 34.337515 
L 99.384677 34.73323 
L 99.279304 35.128945 
L 99.173931 35.52466 
L 99.068558 35.920375 
L 98.963185 36.31609 
L 98.857812 36.711805 
L 98.752439 37.10752 
" style="fill:none;stroke:#4169e1;stroke-linecap:square;stroke-width:0.58329;"/>
   </g>
   <g id="line2d_42">
    <path clip-path="url(#pd37719e426)" d="M 106.184234 24.760591 
L 106.047801 25.129859 
L 105.911368 25.499127 
L 105.774935 25.868394 
L 105.638502 26.237662 
L 105.24899 26.722929 
L 104.859478 27.208195 
L 104.631246 27.498618 
L 104.343886 27.871714 
L 104.056525 28.244811 
L 103.769165 28.617907 
L 103.481805 28.991004 
L 103.387705 29.470882 
L 103.293606 29.95076 
L 103.222513 30.356046 
L 103.151421 30.761333 
L 103.080329 31.16662 
L 103.009236 31.571907 
" style="fill:none;stroke:#008000;stroke-linecap:square;stroke-width:0.58329;"/>
   </g>
   <g id="line2d_43">
    <path clip-path="url(#pd37719e426)" d="M 102.394943 26.224616 
L 102.741202 26.424565 
L 103.087461 26.624514 
L 103.459028 26.884873 
L 103.830594 27.145233 
L 104.23092 27.321925 
L 104.631246 27.498618 
L 105.034793 27.677296 
L 105.43834 27.855974 
L 105.784138 28.111795 
L 106.129937 28.367616 
L 106.475736 28.623438 
L 106.821534 28.879259 
L 107.287891 29.357719 
L 107.754247 29.836179 
L 108.276512 30.340731 
L 108.798776 30.845284 
L 109.186793 31.135564 
L 109.574809 31.425845 
L 109.962826 31.716126 
L 110.350843 32.006407 
L 110.927059 32.178987 
L 111.503276 32.351567 
L 112.079492 32.524147 
L 112.655708 32.696727 
" style="fill:none;stroke:#4169e1;stroke-linecap:square;stroke-width:0.58329;"/>
   </g>
   <g id="line2d_44">
    <path clip-path="url(#pd37719e426)" d="M 37.029102 10.411336 
L 37.401934 10.323982 
L 37.774766 10.236629 
L 38.147598 10.149275 
L 38.52043 10.061921 
L 38.940657 9.970313 
L 39.360884 9.878705 
L 39.781111 9.787098 
L 40.201338 9.69549 
L 40.582166 9.657414 
L 40.962993 9.619339 
L 41.34382 9.581263 
L 41.724647 9.543188 
L 42.105474 9.505113 
L 42.486302 9.467037 
L 42.867129 9.428962 
L 43.247956 9.390886 
L 43.62585 9.47193 
L 44.003743 9.552973 
L 44.381637 9.634016 
L 44.759531 9.715059 
L 45.137425 9.796102 
L 45.515318 9.877146 
L 45.893212 9.958189 
L 46.271106 10.039232 
L 46.787503 10.331498 
L 47.303901 10.623764 
L 47.820298 10.91603 
L 48.336695 11.208296 
L 48.716659 11.300826 
L 49.096624 11.393355 
L 49.476588 11.485885 
L 49.856553 11.578415 
L 50.236517 11.670944 
L 50.616482 11.763474 
L 50.996446 11.856004 
L 51.37641 11.948533 
L 51.763708 12.162876 
L 52.151006 12.377218 
L 52.538304 12.591561 
L 52.925602 12.805904 
L 53.3129 13.020246 
L 53.700198 13.234589 
L 54.087496 13.448931 
L 54.474794 13.663274 
L 54.862092 13.877617 
L 55.24939 14.091959 
L 55.636688 14.306302 
L 56.023986 14.520644 
L 56.411284 14.734987 
L 56.798582 14.94933 
L 57.18588 15.163672 
L 57.573178 15.378015 
L 57.967752 15.684958 
L 58.362326 15.991901 
L 58.7569 16.298844 
L 59.151474 16.605787 
L 59.546048 16.912731 
L 59.940622 17.219674 
L 60.335196 17.526617 
L 60.72977 17.83356 
L 61.2074 18.094274 
L 61.68503 18.354988 
L 62.16266 18.615701 
L 62.64029 18.876415 
L 63.11792 19.137129 
L 63.59555 19.397843 
L 64.07318 19.658557 
L 64.55081 19.91927 
" style="fill:none;stroke:#4169e1;stroke-linecap:square;stroke-width:0.58329;"/>
   </g>
   <g id="line2d_45">
    <path clip-path="url(#pd37719e426)" d="M 86.677324 14.957129 
L 86.740824 15.397584 
L 86.804324 15.83804 
L 86.967215 16.354929 
L 87.130106 16.871819 
L 87.292997 17.388709 
L 87.455889 17.905598 
L 87.684925 18.608824 
L 87.913962 19.312049 
L 88.142999 20.015274 
L 88.372036 20.7185 
L 88.604064 21.210006 
L 88.836092 21.701512 
L 89.06812 22.193018 
L 89.300148 22.684524 
L 89.592685 23.213609 
L 89.885222 23.742694 
L 90.177759 24.27178 
L 90.470296 24.800865 
L 90.726596 25.432193 
" style="fill:none;stroke:#008000;stroke-linecap:square;stroke-width:0.58329;"/>
   </g>
   <g id="line2d_46">
    <path clip-path="url(#pd37719e426)" d="M 90.726596 25.432193 
L 90.901509 25.786217 
L 91.076421 26.14024 
L 91.251334 26.494263 
L 91.426246 26.848287 
L 91.601159 27.20231 
L 91.776071 27.556334 
L 91.950984 27.910357 
L 92.125896 28.26438 
L 92.288787 28.655345 
L 92.451678 29.046309 
L 92.61457 29.437273 
L 92.777461 29.828238 
L 93.004772 30.195945 
L 93.232084 30.563653 
L 93.459395 30.931361 
L 93.686707 31.299069 
L 93.871455 31.721089 
L 94.056203 32.143109 
L 94.240951 32.56513 
L 94.425699 32.98715 
L 94.490464 33.475111 
L 94.55523 33.963072 
L 94.619995 34.451033 
L 94.68476 34.938993 
" style="fill:none;stroke:#4169e1;stroke-linecap:square;stroke-width:0.58329;"/>
   </g>
   <g id="line2d_47">
    <path clip-path="url(#pd37719e426)" d="M 87.357878 6.301176 
L 87.756823 6.754394 
L 88.19304 6.977316 
L 88.629257 7.200238 
L 89.17936 7.626513 
L 89.729463 8.052787 
L 90.215146 8.315699 
L 90.700828 8.578611 
L 91.295795 8.855987 
L 91.767213 9.063594 
L 92.238632 9.2712 
" style="fill:none;stroke:#008000;stroke-linecap:square;stroke-width:0.58329;"/>
   </g>
   <g id="line2d_48">
    <path clip-path="url(#pd37719e426)" d="M 5.755834 43.427046 
L 6.053087 44.001793 
L 6.350341 44.57654 
L 6.647594 45.151288 
L 6.944847 45.726035 
L 7.212422 46.33042 
L 7.479996 46.934805 
L 7.74757 47.539191 
L 8.015144 48.143576 
L 8.282603 48.688543 
L 8.550062 49.233511 
L 8.817521 49.778479 
L 9.08498 50.323446 
L 9.491288 50.838634 
L 9.897595 51.353822 
L 10.303903 51.86901 
L 10.710211 52.384199 
L 10.948106 52.810331 
L 11.186 53.236464 
L 11.423895 53.662597 
L 11.66179 54.088729 
L 11.912454 54.583213 
L 12.163117 55.077697 
L 12.413781 55.572181 
L 12.664445 56.066665 
" style="fill:none;stroke:#4169e1;stroke-linecap:square;stroke-width:0.58329;"/>
   </g>
   <g id="line2d_49">
    <path clip-path="url(#pd37719e426)" d="M 12.664445 56.066665 
L 12.663755 56.622694 
L 12.663064 57.178723 
L 12.662374 57.734752 
L 12.661684 58.29078 
L 12.636721 58.825112 
L 12.611758 59.359444 
L 12.586795 59.893776 
L 12.561833 60.428109 
L 12.557231 60.837082 
L 12.55263 61.246056 
L 12.548028 61.65503 
L 12.543427 62.064004 
L 12.663064 62.686824 
L 13.064771 62.862099 
L 13.741643 62.822393 
L 14.381474 62.524313 
L 15.021306 62.226232 
L 15.661137 61.928152 
L 16.300968 61.630072 
L 16.791252 61.445013 
L 17.281536 61.259954 
L 17.77182 61.074894 
L 18.262104 60.889835 
L 18.77482 60.709739 
L 19.287536 60.529643 
L 19.800252 60.349547 
L 20.312968 60.169451 
L 20.66843 59.956456 
L 21.023892 59.74346 
L 21.379354 59.530465 
L 21.734815 59.317469 
L 21.914962 58.629701 
L 22.095109 57.941933 
L 22.013203 57.31968 
L 21.931297 56.697427 
L 21.68558 56.009659 
L 21.439863 55.32189 
L 21.68558 54.879734 
L 21.931297 54.437577 
L 22.25869 53.847939 
L 22.586083 53.258302 
L 22.766459 52.865211 
L 22.946836 52.472119 
L 22.919458 51.951401 
L 22.892079 51.430682 
L 22.8647 50.909964 
L 22.837322 50.389245 
L 22.978356 49.894619 
L 23.11939 49.399994 
L 23.346472 48.854033 
L 23.573553 48.308073 
L 23.866205 47.884351 
L 24.158857 47.460629 
L 24.584721 47.755448 
L 25.010585 48.050266 
L 25.436449 48.345085 
L 25.862312 48.639903 
L 26.210642 48.984355 
L 26.558971 49.328806 
L 26.907301 49.673257 
L 27.25563 50.017709 
L 27.582563 50.251266 
L 27.909496 50.484824 
L 28.236428 50.718381 
L 28.563361 50.951939 
L 29.030868 51.082119 
L 29.498375 51.212298 
L 29.797009 51.186206 
L 30.296266 51.14338 
L 30.795523 51.100554 
L 31.306513 50.927548 
L 31.817504 50.754542 
L 32.328494 50.581537 
L 32.839485 50.408531 
L 33.42916 50.392223 
L 34.018836 50.375915 
L 34.608511 50.359607 
L 35.198186 50.3433 
L 35.676507 50.527224 
L 36.154827 50.711149 
L 36.633147 50.895074 
L 37.111467 51.078999 
L 37.686418 50.985122 
L 38.261369 50.891245 
L 38.83632 50.797368 
L 39.41127 50.703492 
L 40.000025 50.493758 
L 40.58878 50.284024 
L 41.177535 50.07429 
L 41.76629 49.864556 
L 42.32134 49.634402 
L 42.876389 49.404248 
L 43.431439 49.174094 
L 43.986488 48.943939 
L 44.466994 48.632671 
L 44.9475 48.321403 
L 45.428006 48.010135 
L 45.908512 47.698866 
" style="fill:none;stroke:#4169e1;stroke-linecap:square;stroke-width:0.58329;"/>
   </g>
   <g id="line2d_50">
    <path clip-path="url(#pd37719e426)" d="M 26.161406 14.445486 
L 25.913849 15.135807 
L 25.666291 15.826128 
L 25.5034 16.549348 
L 25.340508 17.272568 
L 25.177617 17.995788 
L 25.014726 18.719008 
L 24.913782 19.139256 
L 24.812838 19.559504 
L 24.711893 19.979751 
L 24.610949 20.399999 
L 24.510005 20.820247 
L 24.409061 21.240494 
L 24.308116 21.660742 
L 24.207172 22.08099 
L 24.076836 22.647725 
L 23.9465 23.21446 
L 23.816164 23.781195 
L 23.685828 24.34793 
L 23.555492 24.914666 
L 23.425156 25.481401 
L 23.294821 26.048136 
L 23.164485 26.614871 
L 23.08603 27.066813 
L 23.007575 27.518754 
L 22.929121 27.970696 
L 22.850666 28.422638 
L 22.772211 28.87458 
L 22.693757 29.326521 
L 22.615302 29.778463 
L 22.536847 30.230405 
L 22.385805 30.649872 
L 22.234762 31.06934 
L 22.08372 31.488808 
L 21.932677 31.908276 
L 21.781635 32.327743 
L 21.630593 32.747211 
L 21.47955 33.166679 
L 21.328508 33.586146 
L 21.120982 33.918828 
L 20.913457 34.251509 
L 20.505539 34.811508 
L 20.097621 35.371507 
L 19.689703 35.931507 
L 19.281784 36.491506 
L 18.728 36.931252 
L 18.174216 37.370999 
L 17.620432 37.810745 
L 17.066648 38.250491 
L 16.512864 38.690237 
L 15.95908 39.129983 
L 15.405296 39.56973 
L 14.851512 40.009476 
L 14.551728 40.341732 
L 14.251944 40.673988 
L 13.95216 41.006243 
L 13.652375 41.338499 
L 13.606821 41.748891 
L 13.561267 42.159283 
L 13.515712 42.569675 
L 13.470158 42.980067 
L 13.470158 43.468595 
L 13.470158 43.957124 
L 13.470158 44.445652 
L 13.470158 44.93418 
L 13.476658 45.471632 
L 13.483157 46.009084 
L 13.489657 46.546535 
L 13.496156 47.083987 
L 13.502656 47.621439 
L 13.509155 48.158891 
L 13.515655 48.696343 
L 13.522154 49.233795 
L 13.444045 49.963396 
L 13.365935 50.692998 
L 13.287826 51.422599 
L 13.209716 52.152201 
L 13.164047 52.653917 
L 13.118378 53.155633 
L 13.072708 53.65735 
L 13.027039 54.159066 
L 12.93639 54.635966 
L 12.845742 55.112866 
L 12.755093 55.589766 
L 12.664445 56.066665 
" style="fill:none;stroke:#008000;stroke-linecap:square;stroke-width:0.58329;"/>
   </g>
   <g id="line2d_51">
    <path clip-path="url(#pd37719e426)" d="M 45.908512 47.698866 
L 46.305847 47.437514 
L 46.703182 47.176162 
L 47.100517 46.91481 
L 47.497851 46.653459 
L 47.750126 46.345877 
L 48.0024 46.038296 
L 48.254674 45.730715 
L 48.506949 45.423133 
L 48.716084 45.097117 
L 48.92522 44.771101 
L 49.134356 44.445085 
L 49.343491 44.119068 
L 49.651098 43.454556 
L 49.958705 42.790045 
L 50.155647 42.451691 
L 50.352589 42.113338 
L 50.54953 41.774984 
L 50.746472 41.43663 
L 51.076626 41.049495 
L 51.40678 40.662359 
L 51.864164 40.126609 
L 52.321547 39.590859 
L 52.853475 39.43487 
L 53.385402 39.278882 
L 53.640782 38.719591 
L 53.896162 38.160301 
L 53.95161 37.773449 
L 54.007057 37.386597 
L 54.062504 36.999746 
L 54.117952 36.612894 
L 54.720971 36.169886 
L 55.323991 35.726878 
L 55.840963 35.517853 
L 56.357936 35.308828 
L 56.960955 35.185739 
L 57.563975 35.06265 
L 57.938072 35.133554 
L 58.464708 35.233387 
L 58.991343 35.333219 
L 59.569745 35.628463 
L 60.148147 35.923707 
L 60.701701 36.15769 
L 61.255255 36.391673 
L 61.612327 36.588503 
L 61.969399 36.785332 
L 62.301624 37.03151 
L 62.633848 37.277689 
L 62.867601 37.794437 
L 63.101355 38.311185 
L 63.088931 38.889477 
L 63.076507 39.46777 
L 63.210409 40.202902 
L 63.461648 40.581245 
L 63.712887 40.959589 
L 64.374805 40.914777 
L 65.036723 40.869966 
L 65.607302 40.867981 
L 66.177882 40.865995 
L 66.664255 40.789136 
L 67.150627 40.712276 
L 67.637 40.635416 
L 68.123373 40.558556 
L 68.791273 40.563661 
L 69.459173 40.568766 
L 69.854437 40.538136 
L 70.249701 40.507505 
L 70.644966 40.476875 
L 71.04023 40.446244 
" style="fill:none;stroke:#4169e1;stroke-linecap:square;stroke-width:0.58329;"/>
   </g>
   <g id="line2d_52">
    <path clip-path="url(#pd37719e426)" d="M 67.455703 6.390232 
L 67.467322 6.811685 
L 67.478941 7.233138 
L 67.490559 7.654591 
L 67.502178 8.076044 
L 67.464216 8.593926 
L 67.426254 9.111808 
L 67.388292 9.629691 
L 67.35033 10.147573 
L 67.246453 10.73324 
L 67.142575 11.318906 
L 67.038697 11.904573 
L 66.93482 12.490239 
L 66.753063 13.049955 
L 66.571305 13.609671 
L 66.389548 14.169386 
L 66.207791 14.729102 
L 65.99647 15.185014 
L 65.785148 15.640927 
L 65.573827 16.096839 
L 65.362506 16.552751 
L 65.243903 17.019725 
L 65.125301 17.486698 
L 65.006699 17.953671 
L 64.888096 18.420645 
L 64.803775 18.795301 
L 64.719453 19.169958 
L 64.635132 19.544614 
L 64.55081 19.91927 
" style="fill:none;stroke:#008000;stroke-linecap:square;stroke-width:0.58329;"/>
   </g>
   <g id="line2d_53">
    <path clip-path="url(#pd37719e426)" d="M 113.284725 34.033125 
L 113.505135 34.406079 
L 113.725544 34.779034 
L 113.945953 35.151989 
L 114.166362 35.524944 
L 114.266559 36.166199 
L 114.366755 36.807454 
L 114.466952 37.448709 
L 114.567148 38.089964 
L 114.879587 38.724555 
L 115.192025 39.359145 
L 115.504463 39.993735 
L 115.816901 40.628325 
L 116.051 41.294964 
L 116.285098 41.961603 
L 116.519197 42.628242 
L 116.753295 43.294881 
L 116.925447 43.685349 
L 117.097599 44.075817 
L 117.26975 44.466285 
L 117.441902 44.856753 
L 117.614053 45.247221 
L 117.786205 45.637689 
L 117.958357 46.028157 
L 118.130508 46.418625 
L 118.208733 47.140994 
L 118.286957 47.863363 
L 118.233466 48.320197 
L 118.179974 48.777032 
L 118.126482 49.233866 
L 118.07299 49.6907 
L 118.019498 50.147534 
L 117.966006 50.604368 
L 117.912515 51.061202 
L 117.859023 51.518036 
L 117.768144 52.182122 
L 117.677266 52.846209 
L 117.586387 53.510295 
L 117.495509 54.174381 
L 117.508565 54.718214 
L 117.521622 55.262048 
L 117.534678 55.805881 
L 117.547735 56.349714 
L 117.560792 56.893547 
L 117.573848 57.43738 
L 117.586905 57.981214 
L 117.599961 58.525047 
" style="fill:none;stroke:#008000;stroke-linecap:square;stroke-width:0.58329;"/>
   </g>
   <g id="line2d_54">
    <path clip-path="url(#pd37719e426)" d="M 79.159941 26.746469 
L 79.500448 27.139277 
L 79.840955 27.532084 
L 80.181462 27.924892 
L 80.521969 28.3177 
L 80.953815 28.749363 
L 81.385661 29.181026 
L 81.936454 29.597942 
L 82.487247 30.014857 
L 83.142493 30.238346 
L 83.797739 30.461835 
L 84.184836 30.543658 
L 84.571932 30.625481 
L 84.959029 30.707305 
L 85.346125 30.789128 
L 85.794306 30.73127 
L 86.242487 30.673413 
L 86.690668 30.615555 
L 87.138849 30.557697 
" style="fill:none;stroke:#4169e1;stroke-linecap:square;stroke-width:0.58329;"/>
   </g>
   <g id="line2d_55">
    <path clip-path="url(#pd37719e426)" d="M 73.819503 25.346541 
L 74.429425 25.589175 
L 75.039347 25.831808 
L 75.649268 26.074441 
L 76.25919 26.317075 
L 76.984378 26.424423 
L 77.709566 26.531772 
L 78.434754 26.63912 
L 79.159941 26.746469 
L 79.845327 26.848003 
L 80.530712 26.949538 
L 81.137528 26.873529 
L 81.744344 26.79752 
L 82.351159 26.721511 
L 82.957975 26.645502 
" style="fill:none;stroke:#4169e1;stroke-linecap:square;stroke-width:0.58329;"/>
   </g>
   <g id="line2d_56">
    <path clip-path="url(#pd37719e426)" d="M 37.111467 51.078999 
L 37.712186 51.397499 
L 38.312905 51.716 
L 38.766608 51.826894 
L 39.22031 51.937787 
L 39.852664 51.833842 
L 40.485018 51.729897 
L 41.117371 51.625952 
L 41.749725 51.522007 
L 42.118243 51.403313 
L 42.486762 51.28462 
L 42.85528 51.165927 
L 43.223798 51.047234 
L 43.592317 50.928541 
L 43.960835 50.809847 
L 44.329353 50.691154 
L 44.697872 50.572461 
L 45.434908 50.38414 
L 46.171945 50.195819 
L 46.908981 50.007498 
L 47.646018 49.819178 
L 48.301149 49.630715 
L 48.95628 49.442252 
L 49.611411 49.25379 
L 50.266542 49.065327 
L 50.643285 48.979391 
L 51.020028 48.893456 
L 51.396772 48.80752 
L 51.773515 48.721585 
L 52.150259 48.635649 
L 52.527002 48.549714 
L 52.903745 48.463778 
L 53.280489 48.377842 
L 53.677651 48.27957 
L 54.074813 48.181297 
L 54.471976 48.083024 
L 54.869138 47.984751 
L 55.2663 47.886478 
L 55.663463 47.788205 
L 56.060625 47.689932 
L 56.457787 47.591659 
L 56.887735 47.460629 
L 57.317682 47.329599 
L 57.74763 47.198568 
L 58.177578 47.067538 
L 58.607525 46.936507 
L 59.037473 46.805477 
L 59.46742 46.674446 
L 59.897368 46.543416 
L 60.290447 46.280929 
L 60.683525 46.018443 
L 61.076604 45.755957 
L 61.469682 45.49347 
L 61.888644 45.367261 
L 62.307606 45.241052 
L 62.726567 45.114843 
L 63.145529 44.988634 
L 63.587613 45.002957 
L 64.029697 45.017279 
L 64.471781 45.031602 
L 64.913865 45.045924 
L 65.419103 44.87377 
L 65.924342 44.701615 
L 66.400822 44.459407 
L 66.877302 44.217199 
L 67.451102 44.31136 
L 68.065395 44.196495 
L 68.679688 44.081631 
L 69.19643 43.995412 
L 69.713173 43.909193 
L 70.168256 43.7827 
L 70.623339 43.656207 
L 71.138471 43.512981 
L 71.653603 43.369755 
L 72.009524 43.186256 
L 72.365446 43.002757 
L 72.750127 42.767356 
L 73.134808 42.531954 
L 73.61704 42.416806 
L 74.036001 42.45708 
L 74.454963 42.497353 
L 74.979528 42.239263 
L 75.504093 41.981173 
L 75.894525 41.872548 
L 76.284958 41.763923 
L 77.013137 41.639132 
L 77.741316 41.514341 
L 78.206292 41.377638 
L 78.671268 41.240936 
L 79.258642 41.089768 
L 79.846017 40.938601 
L 80.413605 40.793957 
L 80.981194 40.649313 
L 81.386581 40.486376 
L 81.791969 40.323439 
L 82.197356 40.160501 
L 82.602743 39.997564 
L 83.010201 39.873766 
L 83.417659 39.749968 
L 83.825118 39.626169 
L 84.232576 39.502371 
L 84.754725 39.445081 
L 85.276874 39.38779 
L 85.799023 39.3305 
L 86.321172 39.273209 
L 86.72863 39.193655 
L 87.136088 39.114101 
L 87.543546 39.034547 
L 87.951004 38.954993 
L 88.500532 38.890754 
L 89.050059 38.826515 
L 89.599587 38.762276 
L 90.149115 38.698037 
L 90.556688 38.631954 
L 90.964261 38.565872 
L 91.371834 38.499789 
L 91.779407 38.433707 
L 92.260833 38.384074 
L 92.74226 38.334441 
L 93.223686 38.284809 
L 93.705112 38.235176 
" style="fill:none;stroke:#4169e1;stroke-linecap:square;stroke-width:0.58329;"/>
   </g>
   <g id="line2d_57">
    <path clip-path="url(#pd37719e426)" d="M 66.315005 37.721831 
L 66.954146 37.625969 
L 67.658627 37.506 
L 68.363108 37.38603 
L 68.746754 37.331151 
L 69.1304 37.276271 
L 69.514045 37.221391 
L 69.897691 37.166512 
L 70.544884 37.150913 
L 71.192078 37.135314 
L 71.787044 37.307469 
L 72.382011 37.479623 
L 72.72643 37.756149 
L 73.070848 38.032674 
L 73.525931 38.523897 
" style="fill:none;stroke:#4169e1;stroke-linecap:square;stroke-width:0.58329;"/>
   </g>
   <g id="line2d_58">
    <path clip-path="url(#pd37719e426)" d="M 71.04023 40.446244 
L 71.459076 40.309967 
L 71.877923 40.173689 
L 72.29677 40.037412 
L 72.715616 39.901135 
L 73.25318 39.794212 
L 73.790744 39.687288 
L 74.328308 39.580365 
L 74.865872 39.473442 
L 75.502712 39.415868 
L 76.139552 39.358294 
L 76.596131 39.415726 
L 77.052709 39.473159 
L 77.509288 39.530591 
L 77.965866 39.588023 
L 78.466964 39.635103 
L 78.968061 39.682183 
L 79.406464 39.69523 
L 79.844867 39.708276 
L 80.283269 39.721322 
L 80.721672 39.734369 
L 81.285119 39.749968 
L 81.848566 39.765566 
L 82.225655 39.881565 
L 82.602743 39.997564 
" style="fill:none;stroke:#008000;stroke-linecap:square;stroke-width:0.58329;"/>
   </g>
   <g id="line2d_59">
    <path clip-path="url(#pd37719e426)" d="M 64.55081 19.91927 
L 65.062089 20.272301 
L 65.573367 20.625332 
L 66.084645 20.978362 
L 66.595923 21.331393 
L 67.107201 21.684424 
L 67.618479 22.037455 
L 68.129758 22.390485 
L 68.641036 22.743516 
L 69.147655 23.016354 
L 69.654274 23.289193 
L 70.160893 23.562031 
L 70.667513 23.834869 
L 71.174132 24.107708 
L 71.680751 24.380546 
L 72.18737 24.653385 
L 72.693989 24.926223 
L 73.256746 25.136382 
L 73.819503 25.346541 
" style="fill:none;stroke:#4169e1;stroke-linecap:square;stroke-width:0.58329;"/>
   </g>
   <g id="line2d_60">
    <path clip-path="url(#pd37719e426)" d="M 93.502189 35.021809 
L 93.495286 35.635554 
L 93.488384 36.249298 
L 93.453413 36.770584 
L 93.418442 37.29187 
L 93.561777 37.763523 
L 93.705112 38.235176 
L 94.275232 38.555662 
L 94.845351 38.876147 
L 95.518542 39.029016 
L 96.191734 39.181885 
L 96.62496 39.458411 
L 97.058186 39.734936 
L 97.222573 40.09768 
L 97.386959 40.460425 
L 97.551346 40.82317 
L 97.715733 41.185914 
L 97.969963 41.767894 
L 98.224193 42.349873 
L 98.478422 42.931853 
L 98.732652 43.513832 
L 99.095591 44.078724 
L 99.45853 44.643616 
L 99.821469 45.208507 
L 100.184409 45.773399 
L 100.547348 46.338291 
L 100.910287 46.903182 
L 101.273226 47.468074 
L 101.636165 48.032966 
L 101.830835 48.372737 
L 102.025505 48.712509 
L 102.220175 49.052281 
L 102.414844 49.392052 
L 102.609514 49.731824 
L 102.804184 50.071596 
L 102.998854 50.411367 
L 103.193524 50.751139 
L 103.388194 51.090911 
L 103.582864 51.430682 
L 103.777534 51.770454 
L 103.972204 52.110226 
L 104.166874 52.449997 
L 104.361544 52.789769 
L 104.556214 53.129541 
L 104.750884 53.469312 
L 105.056391 53.860879 
L 105.361898 54.252446 
L 105.667405 54.644013 
L 105.972913 55.03558 
L 106.27842 55.427147 
L 106.583927 55.818714 
L 106.889434 56.210281 
L 107.194942 56.601848 
L 107.500449 56.993415 
L 107.805956 57.384982 
L 108.111463 57.776549 
L 108.416971 58.168116 
L 108.722478 58.559683 
L 109.027985 58.95125 
L 109.333492 59.342817 
L 109.639 59.734384 
L 110.057731 60.271694 
L 110.476463 60.809004 
L 110.895194 61.346315 
L 111.313926 61.883625 
L 111.732658 62.420935 
L 112.151389 62.958245 
L 112.570121 63.495555 
L 112.988852 64.032865 
L 113.424839 64.631294 
L 113.860826 65.229723 
L 114.123569 65.2734 
L 114.405638 64.991486 
L 114.321891 64.459423 
L 114.066281 64.020953 
L 113.810671 63.582483 
L 113.685051 63.05042 
L 113.883373 62.727098 
L 114.468217 62.382221 
L 114.645373 61.881356 
L 114.60396 61.484861 
" style="fill:none;stroke:#008000;stroke-linecap:square;stroke-width:0.58329;"/>
   </g>
   <g id="line2d_61">
    <path clip-path="url(#pd37719e426)" d="M 104.750884 53.469312 
L 105.262104 53.334311 
L 106.002937 53.459102 
L 106.39452 53.699325 
L 106.786103 53.939547 
L 107.297554 54.351641 
L 107.809005 54.763735 
L 108.231647 55.395347 
L 108.65429 56.026959 
L 109.011823 56.566964 
L 109.369355 57.106968 
L 109.726887 57.646972 
L 110.08442 58.186977 
L 110.525353 58.727123 
L 110.966287 59.267269 
L 111.40722 59.807415 
L 111.848154 60.347562 
L 112.077766 60.67372 
L 112.307378 60.999878 
L 112.53699 61.326036 
L 112.766603 61.652194 
L 112.943988 62.022596 
L 113.121374 62.392998 
L 113.518019 62.632937 
L 113.883373 62.727098 
" style="fill:none;stroke:#008000;stroke-linecap:square;stroke-width:0.58329;"/>
   </g>
   <g id="line2d_62">
    <path clip-path="url(#pd37719e426)" d="M 66.857055 43.867217 
L 66.877302 44.217199 
" style="fill:none;stroke:#008000;stroke-linecap:square;stroke-width:0.58329;"/>
   </g>
   <g id="line2d_63">
    <path clip-path="url(#pd37719e426)" d="M 45.908512 47.698866 
L 46.477021 47.597332 
L 47.045529 47.495797 
L 47.614038 47.394263 
L 48.182547 47.292728 
L 48.805237 47.279257 
L 49.427928 47.265785 
L 50.050619 47.252313 
L 50.673309 47.238841 
L 51.214785 47.1305 
L 51.75626 47.022159 
L 52.297735 46.913818 
L 52.83921 46.805477 
L 53.218197 46.656578 
L 53.597183 46.50768 
L 53.97617 46.358782 
L 54.355156 46.209884 
L 54.734143 46.060985 
L 55.11313 45.912087 
L 55.492116 45.763189 
L 55.871103 45.61429 
L 56.432939 45.377471 
L 56.994776 45.140652 
L 57.556612 44.903833 
L 58.118449 44.667014 
L 58.781747 44.348939 
L 59.445046 44.030864 
L 60.108344 43.712789 
L 60.771643 43.394714 
L 61.103177 43.042746 
L 61.434711 42.690779 
L 61.766245 42.338812 
L 62.09778 41.986845 
L 62.63937 41.648491 
L 63.18096 41.310138 
L 63.712887 40.959589 
" style="fill:none;stroke:#4169e1;stroke-linecap:square;stroke-width:0.58329;"/>
   </g>
   <g id="line2d_64">
    <path clip-path="url(#pd37719e426)" d="M 39.22031 51.937787 
L 39.806189 52.016349 
L 40.392068 52.09491 
L 40.977948 52.173472 
L 41.563827 52.252034 
L 41.962139 52.190595 
L 42.360452 52.129157 
L 42.758765 52.067719 
L 43.157077 52.006281 
L 43.55539 51.944842 
L 43.953703 51.883404 
L 44.352015 51.821966 
L 44.750328 51.760527 
L 45.148641 51.699089 
L 45.546953 51.637651 
L 45.945266 51.576213 
L 46.343579 51.514774 
L 46.741891 51.453336 
L 47.140204 51.391898 
L 47.538517 51.33046 
L 47.936829 51.269021 
L 48.651549 51.131326 
L 49.366269 50.99363 
L 50.080988 50.855935 
L 50.795708 50.71824 
L 51.510427 50.580544 
L 52.225147 50.442849 
L 52.939867 50.305153 
L 53.654586 50.167458 
L 54.391623 49.996225 
L 55.128659 49.824992 
L 55.865696 49.653759 
L 56.602733 49.482526 
L 57.339769 49.311293 
L 58.076806 49.14006 
L 58.813843 48.968827 
L 59.550879 48.797594 
L 59.96035 48.618916 
L 60.369822 48.440238 
L 60.779293 48.26156 
L 61.188764 48.082882 
L 61.598235 47.904204 
L 62.007706 47.725526 
L 62.417177 47.546848 
L 62.826649 47.36817 
L 63.210064 47.338391 
L 63.59348 47.308611 
L 63.976895 47.278831 
L 64.360311 47.249052 
L 64.743726 47.219272 
L 65.127142 47.189492 
L 65.510557 47.159713 
L 65.893973 47.129933 
L 66.26623 47.025775 
L 66.638487 46.921617 
L 67.010744 46.817459 
L 67.383 46.713302 
L 67.755257 46.609144 
L 68.127514 46.504986 
L 68.499771 46.400828 
L 68.872028 46.29667 
L 69.16238 45.887129 
L 69.452731 45.477588 
L 69.743082 45.068047 
L 70.033433 44.658505 
L 70.328386 44.157356 
L 70.623339 43.656207 
" style="fill:none;stroke:#4169e1;stroke-linecap:square;stroke-width:0.58329;"/>
   </g>
   <g id="line2d_65">
    <path clip-path="url(#pd37719e426)" d="M 87.105718 24.929059 
L 87.260787 25.375754 
L 87.415856 25.822449 
L 87.570925 26.269143 
L 87.725993 26.715838 
L 88.004381 27.111447 
L 88.282768 27.507055 
L 88.561156 27.902664 
L 88.839543 28.298272 
L 89.117931 28.693881 
L 89.396318 29.089489 
L 89.674706 29.485098 
L 89.953093 29.880706 
L 90.231481 30.276315 
L 90.509868 30.671924 
L 90.788256 31.067532 
L 91.066643 31.463141 
L 91.345031 31.858749 
L 91.623418 32.254358 
L 91.901806 32.649966 
L 92.180193 33.045575 
L 92.215624 33.672933 
L 92.251055 34.300291 
" style="fill:none;stroke:#4169e1;stroke-linecap:square;stroke-width:0.58329;"/>
   </g>
   <g id="line2d_66">
    <path clip-path="url(#pd37719e426)" d="M 5.726845 42.277267 
L 5.972792 41.935511 
L 6.218739 41.593754 
L 6.574316 41.415926 
L 6.929893 41.238099 
L 7.285469 41.060272 
L 7.641046 40.882445 
L 7.996508 40.732129 
L 8.35197 40.581813 
L 8.707431 40.431496 
L 9.062893 40.28118 
L 9.555018 40.021388 
L 10.047142 39.761596 
L 10.553071 39.406225 
L 11.059 39.050855 
L 11.523746 38.586008 
L 11.988492 38.121162 
L 12.480617 37.711054 
L 12.972742 37.300945 
L 13.328318 37.12326 
L 13.683895 36.945575 
L 14.039472 36.76789 
L 14.395049 36.590204 
L 14.784676 36.45336 
L 15.174304 36.316515 
L 15.563931 36.179671 
L 15.953558 36.042826 
L 16.623529 35.878896 
L 17.2935 35.714966 
L 17.826577 35.551036 
L 18.359655 35.387106 
L 18.933915 35.031452 
L 19.508176 34.675798 
L 20.082436 34.347938 
L 20.497947 34.299724 
L 20.913457 34.251509 
" style="fill:none;stroke:#008000;stroke-linecap:square;stroke-width:0.58329;"/>
   </g>
   <g id="line2d_67">
    <path clip-path="url(#pd37719e426)" d="M 13.470158 42.980067 
L 13.943762 42.904767 
L 14.417366 42.829467 
L 14.89097 42.754167 
L 15.364573 42.678867 
L 15.886492 42.718006 
L 16.408411 42.757145 
L 16.93033 42.796284 
L 17.452249 42.835423 
L 17.895829 43.095074 
L 18.339408 43.354724 
L 18.782988 43.614374 
L 19.226567 43.874024 
L 19.670146 44.133674 
L 20.113726 44.393325 
L 20.557305 44.652975 
L 21.000885 44.912625 
L 21.395631 45.231126 
L 21.790378 45.549626 
L 22.185124 45.868127 
L 22.579871 46.186627 
L 22.974617 46.505128 
L 23.369364 46.823628 
L 23.764111 47.142129 
L 24.158857 47.460629 
" style="fill:none;stroke:#ff0000;stroke-linecap:square;stroke-width:0.58329;"/>
   </g>
   <g id="line2d_68">
    <path clip-path="url(#pd37719e426)" d="M 51.40678 40.662359 
L 51.790886 40.651795 
L 52.174991 40.64123 
L 52.559097 40.630665 
L 52.943203 40.620101 
L 53.327308 40.609536 
L 53.711414 40.598971 
L 54.09552 40.588407 
L 54.479626 40.577842 
L 54.903994 40.555507 
L 55.328362 40.533172 
L 55.752731 40.510838 
L 56.177099 40.488503 
L 56.601467 40.466168 
L 57.025836 40.443833 
L 57.450204 40.421499 
L 57.874572 40.399164 
L 58.269146 40.380516 
L 58.66372 40.361868 
L 59.058294 40.343221 
L 59.452868 40.324573 
L 59.847442 40.305925 
L 60.242016 40.287278 
L 60.63659 40.26863 
L 61.031164 40.249982 
L 61.575976 40.238212 
L 62.120787 40.226442 
L 62.665598 40.214672 
L 63.210409 40.202902 
" style="fill:none;stroke:#000000;stroke-linecap:square;stroke-width:0.58329;"/>
   </g>
   <g id="line2d_69">
    <path clip-path="url(#pd37719e426)" d="M 108.331729 37.928304 
L 108.884363 37.548258 
L 109.436996 37.168213 
L 109.89461 36.854818 
L 110.352224 36.541422 
L 110.737825 36.284467 
L 110.962836 36.316799 
L 111.059006 36.541422 
L 110.946731 37.007687 
L 110.778088 37.497491 
L 110.609445 37.987296 
L 110.577235 38.436827 
L 110.545024 38.886358 
L 110.757841 39.251796 
L 110.970658 39.617235 
L 111.183475 39.982674 
L 111.396292 40.348113 
L 111.236622 40.731278 
L 111.076952 41.114443 
L 110.917281 41.497608 
L 110.757611 41.880773 
" style="fill:none;stroke:#008000;stroke-linecap:square;stroke-width:0.58329;"/>
   </g>
   <g id="line2d_70">
    <path clip-path="url(#pd37719e426)" d="M 111.396292 40.348113 
L 111.773841 40.942288 
L 112.151389 41.536463 
L 112.307953 41.917926 
L 112.464518 42.29939 
L 112.621082 42.680853 
L 112.777646 43.062316 
L 112.67998 43.577362 
L 112.582315 44.092408 
L 112.484649 44.607455 
L 112.386983 45.122501 
" style="fill:none;stroke:#008000;stroke-linecap:square;stroke-width:0.58329;"/>
   </g>
   <g id="line2d_71">
    <path clip-path="url(#pd37719e426)" d="M 21.734815 59.317469 
L 22.304819 59.043213 
L 22.874824 58.768956 
L 23.444828 58.4947 
L 24.014832 58.220443 
L 24.425971 57.809342 
L 24.83711 57.398241 
L 25.248249 56.98714 
L 25.659389 56.576039 
L 26.070528 56.164938 
L 26.481667 55.753837 
L 26.892806 55.342736 
L 27.303945 54.931635 
L 27.615578 54.463457 
L 27.927211 53.995278 
L 28.238844 53.527099 
L 28.550477 53.05892 
L 28.86211 52.590742 
L 29.173743 52.122563 
L 29.485376 51.654384 
L 29.797009 51.186206 
" style="fill:none;stroke:#4169e1;stroke-linecap:square;stroke-width:0.58329;"/>
   </g>
   <g id="line2d_72">
    <path clip-path="url(#pd37719e426)" d="M 22.536847 30.230405 
L 23.119017 30.473605 
L 23.701186 30.716806 
L 24.283355 30.960006 
L 24.865524 31.203207 
L 25.447693 31.446407 
L 26.029863 31.689608 
L 26.612032 31.932808 
L 27.194201 32.176009 
L 27.77637 32.419209 
L 28.358539 32.66241 
L 28.940709 32.90561 
L 29.522878 33.148811 
L 30.105047 33.392011 
L 30.687216 33.635212 
L 31.269385 33.878412 
L 31.851555 34.121613 
L 32.403383 34.224494 
L 32.955211 34.327376 
L 33.50704 34.430258 
L 34.058868 34.533139 
L 34.610697 34.636021 
L 35.162525 34.738903 
L 35.714353 34.841784 
L 36.266182 34.944666 
L 36.663172 34.945658 
L 37.060161 34.946651 
L 37.457151 34.947644 
L 37.854141 34.948636 
L 38.251131 34.949629 
L 38.64812 34.950622 
L 39.04511 34.951614 
L 39.4421 34.952607 
" style="fill:none;stroke:#000000;stroke-linecap:square;stroke-width:0.58329;"/>
   </g>
   <g id="line2d_73">
    <path clip-path="url(#pd37719e426)" d="M 27.909036 13.754031 
L 28.311691 13.902043 
L 28.714346 14.050055 
L 29.117001 14.198067 
L 29.519657 14.346079 
L 29.922312 14.494091 
L 30.324967 14.642103 
L 30.727623 14.790115 
L 31.130278 14.938127 
L 31.532933 15.086139 
L 31.935588 15.234151 
L 32.338244 15.382163 
L 32.740899 15.530175 
L 33.143554 15.678187 
L 33.54621 15.826199 
L 33.948865 15.974211 
L 34.35152 16.122223 
L 34.864495 16.28711 
L 35.37747 16.451997 
L 35.890445 16.616884 
L 36.40342 16.781771 
L 36.916395 16.946658 
L 37.42937 17.111545 
L 37.942345 17.276432 
L 38.45532 17.44132 
L 38.968295 17.606207 
L 39.48127 17.771094 
L 39.994245 17.935981 
L 40.50722 18.100868 
L 41.020195 18.265755 
L 41.53317 18.430642 
L 42.046144 18.595529 
L 42.559119 18.760416 
L 43.096511 18.944625 
L 43.633902 19.128833 
L 44.171294 19.313042 
L 44.708685 19.49725 
L 45.246076 19.681459 
L 45.783468 19.865667 
L 46.320859 20.049875 
L 46.85825 20.234084 
L 47.395642 20.418292 
L 47.933033 20.602501 
L 48.470425 20.786709 
L 49.007816 20.970918 
L 49.545207 21.155126 
L 50.082599 21.339334 
L 50.61999 21.523543 
L 51.157381 21.707751 
L 51.791001 21.898199 
L 52.42462 22.088647 
L 53.058239 22.279095 
L 53.691858 22.469543 
L 54.215733 22.626737 
L 54.739607 22.783931 
L 55.263482 22.941125 
L 55.787356 23.098319 
L 56.311231 23.255513 
L 56.835106 23.412707 
L 57.35898 23.569901 
L 57.882855 23.727095 
L 58.499276 23.933426 
L 59.115697 24.139756 
L 59.732119 24.346087 
L 60.34854 24.552417 
L 60.964961 24.758748 
L 61.581382 24.965078 
L 62.197804 25.171409 
L 62.814225 25.377739 
L 63.339566 25.553439 
L 63.864907 25.729139 
L 64.390249 25.904839 
L 64.91559 26.080539 
L 65.440931 26.256239 
L 65.966273 26.431939 
L 66.491614 26.607639 
L 67.016955 26.783339 
L 67.542297 26.959039 
L 68.067638 27.134739 
L 68.592979 27.310439 
L 69.118321 27.486139 
L 69.643662 27.661839 
L 70.169004 27.837539 
L 70.694345 28.013239 
L 71.219686 28.188939 
L 71.824316 28.316849 
L 72.428946 28.44476 
L 72.821133 28.584831 
L 73.21332 28.724901 
L 73.605507 28.864972 
L 73.997694 29.005043 
L 74.389881 29.145114 
L 74.782068 29.285184 
L 75.174255 29.425255 
L 75.566442 29.565326 
L 75.958629 29.705396 
L 76.350816 29.845467 
L 76.743003 29.985538 
L 77.13519 30.125609 
L 77.527377 30.265679 
L 77.919564 30.40575 
L 78.311751 30.545821 
L 78.703938 30.685892 
L 79.212916 30.860457 
L 79.721893 31.035023 
L 80.230871 31.209588 
L 80.739848 31.384154 
L 81.248825 31.558719 
L 81.757803 31.733285 
L 82.26678 31.90785 
L 82.775758 32.082416 
L 83.284735 32.256981 
L 83.793713 32.431547 
L 84.30269 32.606112 
L 84.811668 32.780678 
L 85.320645 32.955243 
L 85.829622 33.129809 
L 86.3386 33.304374 
L 86.847577 33.47894 
L 87.347467 33.686546 
L 87.847357 33.894153 
L 88.347246 34.10176 
L 88.847136 34.309366 
L 89.347025 34.516973 
L 89.846915 34.72458 
L 90.346804 34.932187 
L 90.846694 35.139793 
" style="fill:none;stroke:#4169e1;stroke-linecap:square;stroke-width:0.58329;"/>
   </g>
   <g id="line2d_74">
    <path clip-path="url(#pd37719e426)" d="M 26.288866 16.271405 
L 26.864105 16.582389 
L 27.439343 16.893374 
L 28.014581 17.204359 
L 28.58982 17.515343 
L 29.165058 17.826328 
L 29.740296 18.137313 
L 30.315534 18.448297 
L 30.890773 18.759282 
L 31.18538 19.107633 
L 31.479988 19.455984 
L 31.774595 19.804335 
L 32.069203 20.152686 
L 32.363811 20.501037 
L 32.658418 20.849388 
L 32.953026 21.197739 
L 33.247633 21.54609 
L 33.415989 21.910891 
L 33.584344 22.275692 
L 33.752699 22.640493 
L 33.921055 23.005293 
L 34.08941 23.370094 
L 34.257766 23.734895 
L 34.426121 24.099696 
L 34.594477 24.464496 
L 34.996643 24.983513 
L 35.398809 25.50253 
L 35.800976 26.021547 
L 36.203142 26.540564 
L 36.502409 26.779014 
L 36.801675 27.017464 
L 37.100942 27.255914 
L 37.400208 27.494364 
L 37.699475 27.732813 
L 37.998741 27.971263 
L 38.298008 28.209713 
L 38.597274 28.448163 
L 39.112751 28.471987 
L 39.628228 28.495811 
L 40.143705 28.519634 
L 40.659182 28.543458 
" style="fill:none;stroke:#000000;stroke-linecap:square;stroke-width:0.58329;"/>
   </g>
   <g id="line2d_75">
    <path clip-path="url(#pd37719e426)" d="M 33.247633 21.54609 
L 33.621731 21.209438 
L 33.995828 20.872787 
L 34.636465 20.980419 
L 35.277101 21.088051 
L 35.917737 21.195683 
L 36.558374 21.303315 
L 36.998042 21.476321 
L 37.43771 21.649326 
L 37.877378 21.822332 
L 38.317046 21.995338 
L 38.382502 22.504995 
L 38.447957 23.014653 
L 38.513413 23.52431 
L 38.578869 24.033968 
L 38.723814 24.571703 
L 38.86876 25.109439 
L 39.013705 25.647174 
L 39.158651 26.18491 
L 39.533784 26.774547 
L 39.908917 27.364184 
L 40.284049 27.953821 
L 40.659182 28.543458 
" style="fill:none;stroke:#ff0000;stroke-linecap:square;stroke-width:0.58329;"/>
   </g>
   <g id="line2d_76">
    <path clip-path="url(#pd37719e426)" d="M 40.659182 28.543458 
L 41.04625 28.773152 
L 41.433318 29.002845 
L 41.820386 29.232538 
L 42.207454 29.462231 
L 42.594522 29.691925 
L 42.98159 29.921618 
L 43.368658 30.151311 
L 43.755725 30.381005 
L 44.142793 30.610698 
L 44.529861 30.840391 
L 44.916929 31.070085 
L 45.303997 31.299778 
L 45.691065 31.529471 
L 46.078133 31.759165 
L 46.465201 31.988858 
L 46.852269 32.218551 
L 47.333005 32.559599 
L 47.813741 32.900647 
L 48.294477 33.241695 
L 48.775213 33.582743 
L 49.255949 33.923791 
L 49.736685 34.264839 
L 50.217421 34.605887 
L 50.698157 34.946935 
L 51.337413 35.301454 
L 51.976669 35.655974 
L 52.615925 36.010494 
L 53.255181 36.365013 
L 53.686566 36.488954 
L 54.117952 36.612894 
" style="fill:none;stroke:#000000;stroke-linecap:square;stroke-width:0.58329;"/>
   </g>
   <g id="line2d_77">
    <path clip-path="url(#pd37719e426)" d="M 27.632029 14.865805 
L 28.206749 14.924797 
L 28.78147 14.983789 
L 29.407381 15.177215 
L 30.033293 15.370641 
L 30.659205 15.564067 
L 31.285117 15.757493 
L 31.729616 15.921281 
L 32.174116 16.085069 
L 32.618616 16.248857 
L 33.063115 16.412645 
L 33.507615 16.576433 
L 33.952115 16.740221 
L 34.396614 16.904009 
L 34.841114 17.067798 
L 35.303099 17.237045 
L 35.765084 17.406293 
L 36.22707 17.575541 
L 36.689055 17.744788 
L 37.15104 17.914036 
L 37.613025 18.083284 
L 38.07501 18.252531 
L 38.536995 18.421779 
L 38.916385 18.571493 
L 39.295774 18.721207 
L 39.675163 18.87092 
L 40.054552 19.020634 
L 40.433942 19.170348 
L 40.813331 19.320061 
L 41.19272 19.469775 
L 41.572109 19.619488 
L 41.951498 19.769202 
L 42.330888 19.918916 
L 42.710277 20.068629 
L 43.089666 20.218343 
L 43.469055 20.368057 
L 43.848445 20.51777 
L 44.227834 20.667484 
L 44.607223 20.817198 
L 45.177975 21.025372 
L 45.748727 21.233546 
L 46.319479 21.44172 
L 46.890231 21.649894 
L 47.460982 21.858068 
L 48.031734 22.066242 
L 48.602486 22.274416 
L 49.173238 22.48259 
L 49.874843 22.758193 
L 50.576449 23.033797 
L 51.278054 23.3094 
L 51.97966 23.585004 
L 52.681265 23.860608 
L 53.382871 24.136211 
L 54.084476 24.411815 
L 54.786082 24.687418 
L 55.227619 24.860672 
L 55.669157 25.033926 
L 56.110694 25.20718 
L 56.552232 25.380434 
L 56.993769 25.553687 
L 57.435307 25.726941 
L 57.876844 25.900195 
L 58.318382 26.073449 
L 58.759919 26.246702 
L 59.201457 26.419956 
L 59.642994 26.59321 
L 60.084532 26.766464 
L 60.526069 26.939717 
L 60.967607 27.112971 
L 61.409144 27.286225 
L 61.850682 27.459479 
L 62.318994 27.628372 
L 62.787306 27.797265 
L 63.255618 27.966158 
L 63.723931 28.135052 
L 64.169121 28.295082 
L 64.61431 28.455112 
L 65.0595 28.615142 
L 65.50469 28.775172 
L 65.94988 28.935202 
L 66.39507 29.095233 
L 66.84026 29.255263 
L 67.28545 29.415293 
L 67.856489 28.964911 
" style="fill:none;stroke:#4169e1;stroke-linecap:square;stroke-width:0.58329;"/>
   </g>
   <g id="line2d_78">
    <path clip-path="url(#pd37719e426)" d="M 49.836306 23.935269 
L 49.909498 24.551106 
L 49.98269 25.166942 
L 50.055882 25.782778 
L 50.129073 26.398614 
L 50.202265 27.01445 
L 50.275457 27.630286 
L 50.348649 28.246123 
L 50.42184 28.861959 
L 50.495032 29.477795 
L 50.568224 30.093631 
L 50.641416 30.709467 
L 50.714607 31.325303 
L 50.787799 31.941139 
L 50.860991 32.556976 
L 50.934183 33.172812 
L 51.007374 33.788648 
" style="fill:none;stroke:#000000;stroke-linecap:square;stroke-width:0.58329;"/>
   </g>
   <g id="line2d_79">
    <path clip-path="url(#pd37719e426)" d="M 53.691858 22.469543 
L 53.965414 23.024012 
L 54.23897 23.578481 
L 54.512526 24.13295 
L 54.786082 24.687418 
L 55.250023 25.18488 
L 55.713963 25.682342 
L 56.177904 26.179805 
L 56.641845 26.677267 
L 56.918277 26.94656 
L 57.194709 27.215853 
L 57.471141 27.485146 
L 57.747572 27.754439 
L 57.875148 28.286077 
L 58.002723 28.817715 
L 58.130298 29.349352 
L 58.257873 29.88099 
L 58.20116 30.462119 
L 58.144447 31.043247 
L 58.087734 31.624376 
L 58.031022 32.205505 
L 58.007784 32.937517 
L 57.984547 33.669529 
L 57.96131 34.401542 
L 57.938072 35.133554 
" style="fill:none;stroke:#ff0000;stroke-linecap:square;stroke-width:0.58329;"/>
   </g>
   <g id="line2d_80">
    <path clip-path="url(#pd37719e426)" d="M 62.814225 25.377739 
L 63.041651 26.067067 
L 63.269078 26.756395 
L 63.496504 27.445723 
L 63.723931 28.135052 
L 63.843568 28.576358 
L 63.878999 28.987459 
L 63.91443 29.39856 
L 63.949862 29.809661 
L 63.985293 30.220762 
L 64.056155 30.894207 
L 64.127017 31.567653 
L 64.19788 32.241099 
L 64.268742 32.914544 
L 64.282431 33.422004 
L 64.29612 33.929463 
L 64.30981 34.436923 
L 64.323499 34.944382 
L 64.337188 35.451842 
L 64.350878 35.959301 
L 64.364567 36.466761 
L 64.378256 36.97422 
" style="fill:none;stroke:#ff0000;stroke-linecap:square;stroke-width:0.58329;"/>
   </g>
   <g id="line2d_81">
    <path clip-path="url(#pd37719e426)" d="M 41.31949 27.962046 
L 41.768418 27.660421 
L 42.217347 27.358795 
L 42.666276 27.05717 
L 43.115204 26.755544 
L 43.564133 26.453919 
L 44.013061 26.152294 
L 44.46199 25.850668 
L 44.910919 25.549043 
L 45.359847 25.247418 
L 45.808776 24.945792 
L 46.257704 24.644167 
L 46.706633 24.342542 
L 47.155561 24.040916 
L 47.60449 23.739291 
L 48.053419 23.437666 
L 48.502347 23.13604 
" style="fill:none;stroke:#4169e1;stroke-linecap:square;stroke-width:0.58329;"/>
   </g>
   <g id="line2d_82">
    <path clip-path="url(#pd37719e426)" d="M 28.112419 54.118225 
L 28.569055 54.151391 
L 29.025691 54.184556 
L 29.482327 54.217721 
L 29.938963 54.250886 
L 30.395599 54.284052 
L 30.852235 54.317217 
L 31.308871 54.350382 
L 31.765507 54.383548 
L 32.222143 54.416713 
L 32.678779 54.449878 
L 33.135415 54.483044 
L 33.592051 54.516209 
L 34.048687 54.549374 
L 34.505323 54.58254 
L 34.961959 54.615705 
L 35.418595 54.64887 
L 35.875231 54.682036 
L 36.331867 54.715201 
L 36.788503 54.748366 
L 37.245139 54.781532 
L 37.701775 54.814697 
L 38.158411 54.847862 
L 38.615047 54.881028 
L 39.071683 54.914193 
L 39.528319 54.947358 
L 39.984955 54.980523 
L 40.441591 55.013689 
L 40.898227 55.046854 
L 41.354863 55.080019 
L 41.811499 55.113185 
L 42.268135 55.14635 
L 42.724771 55.179515 
L 43.281662 55.131691 
L 43.838552 55.083866 
L 44.395442 55.036041 
L 44.952332 54.988217 
L 45.509222 54.940392 
L 46.066112 54.892567 
L 46.623002 54.844742 
L 47.179892 54.796918 
L 47.736782 54.749093 
L 48.293672 54.701268 
L 48.850562 54.653444 
L 49.407452 54.605619 
L 49.964342 54.557794 
L 50.521232 54.509969 
L 51.078122 54.462145 
L 51.635012 54.41432 
L 52.303861 54.148324 
L 52.972709 53.882328 
L 53.641558 53.616332 
L 54.310407 53.350336 
L 54.979256 53.084339 
L 55.648105 52.818343 
L 56.316954 52.552347 
L 56.985803 52.286351 
L 57.654652 52.020355 
L 58.323501 51.754359 
L 58.99235 51.488363 
L 59.661199 51.222367 
L 60.330048 50.95637 
L 60.998897 50.690374 
L 61.667746 50.424378 
L 62.336595 50.158382 
" style="fill:none;stroke:#4169e1;stroke-linecap:square;stroke-width:0.58329;"/>
   </g>
   <g id="line2d_83">
    <path clip-path="url(#pd37719e426)" d="M 6.632409 42.857545 
L 7.022986 42.860027 
L 7.413562 42.862509 
L 7.804139 42.86499 
L 8.194715 42.867472 
L 8.585292 42.869954 
L 8.975868 42.872435 
L 9.366445 42.874917 
L 9.757021 42.877398 
L 10.147598 42.87988 
L 10.538174 42.882362 
L 10.928751 42.884843 
L 11.319327 42.887325 
L 11.709904 42.889807 
L 12.10048 42.892288 
L 12.491057 42.89477 
L 12.881633 42.897252 
" style="fill:none;stroke:#000000;stroke-linecap:square;stroke-width:0.58329;"/>
   </g>
   <g id="line2d_84">
    <path clip-path="url(#pd37719e426)" d="M 11.696301 38.871042 
L 12.115435 39.081911 
L 12.534569 39.292779 
L 12.953703 39.503647 
L 13.372837 39.714516 
L 13.791972 39.925384 
L 14.211106 40.136252 
L 14.63024 40.34712 
L 15.049374 40.557989 
L 15.429224 40.72908 
L 15.809073 40.900171 
L 16.188922 41.071262 
L 16.568772 41.242354 
L 16.948621 41.413445 
L 17.328471 41.584536 
L 17.70832 41.755627 
L 18.088169 41.926718 
L 18.468019 42.09781 
L 18.847868 42.268901 
L 19.227717 42.439992 
L 19.607567 42.611083 
L 19.987416 42.782174 
L 20.367266 42.953266 
L 20.747115 43.124357 
L 21.126964 43.295448 
L 21.714051 43.485506 
L 22.301138 43.675564 
L 22.888225 43.865622 
L 23.475312 44.05568 
L 24.062399 44.245738 
L 24.649486 44.435796 
L 25.236573 44.625854 
L 25.82366 44.815912 
L 26.410747 45.00597 
L 26.997834 45.196028 
L 27.584921 45.386086 
L 28.172008 45.576144 
L 28.759095 45.766202 
L 29.346182 45.95626 
L 29.933269 46.146318 
L 30.520356 46.336376 
L 30.965776 46.140291 
L 31.411196 45.944206 
L 31.856616 45.748122 
L 32.302036 45.552037 
L 32.747456 45.355952 
L 33.192876 45.159867 
L 33.638296 44.963782 
L 34.083716 44.767697 
L 34.529136 44.571613 
L 34.974556 44.375528 
L 35.419976 44.179443 
L 35.865396 43.983358 
L 36.310816 43.787273 
L 36.756236 43.591188 
L 37.201656 43.395104 
L 37.647076 43.199019 
" style="fill:none;stroke:#ff0000;stroke-linecap:square;stroke-width:0.58329;"/>
   </g>
   <g id="line2d_85">
    <path clip-path="url(#pd37719e426)" d="M 40.194896 19.719605 
L 40.366128 20.38596 
L 40.537359 21.052315 
L 40.70859 21.718671 
L 40.879822 22.385026 
L 41.051053 23.051381 
L 41.222284 23.717736 
L 41.393516 24.384091 
L 41.564747 25.050447 
" style="fill:none;stroke:#ff0000;stroke-linecap:square;stroke-width:0.58329;"/>
   </g>
   <g id="line2d_86">
    <path clip-path="url(#pd37719e426)" d="M 39.4421 34.952607 
L 39.7137 35.366757 
L 39.985301 35.780907 
L 40.256901 36.195057 
L 40.528501 36.609207 
L 40.800102 37.023357 
L 41.071702 37.437506 
L 41.343302 37.851656 
L 41.614903 38.265806 
L 41.892025 38.727745 
L 42.169147 39.189685 
L 42.446269 39.651624 
L 42.723391 40.113563 
L 43.000513 40.575502 
L 43.277635 41.037441 
L 43.554757 41.49938 
L 43.831879 41.96132 
L 44.416263 42.394046 
L 45.000647 42.826773 
L 45.58503 43.2595 
L 46.169414 43.692226 
L 46.753798 44.124953 
L 47.338181 44.55768 
L 47.922565 44.990407 
L 48.506949 45.423133 
" style="fill:none;stroke:#000000;stroke-linecap:square;stroke-width:0.58329;"/>
   </g>
   <g id="line2d_87">
    <path clip-path="url(#pd37719e426)" d="M 40.031085 44.17806 
L 40.40501 44.4816 
L 40.778935 44.78514 
L 41.15286 45.08868 
L 41.526785 45.392219 
L 41.90071 45.695759 
L 42.274635 45.999299 
L 42.64856 46.302839 
L 43.022485 46.606378 
L 43.400839 46.518387 
L 43.779193 46.430395 
L 44.157547 46.342403 
L 44.535901 46.254411 
L 44.914255 46.166419 
L 45.292608 46.078428 
L 45.670962 45.990436 
L 46.049316 45.902444 
" style="fill:none;stroke:#4169e1;stroke-linecap:square;stroke-width:0.58329;"/>
   </g>
   <g id="line2d_88">
    <path clip-path="url(#pd37719e426)" d="M 41.157519 38.723562 
L 40.91554 39.066666 
L 40.673562 39.40977 
L 40.431583 39.752875 
L 40.189605 40.095979 
L 39.947626 40.439083 
L 39.705648 40.782187 
L 39.463669 41.125291 
L 39.221691 41.468395 
L 39.116087 41.899491 
L 39.010484 42.330587 
L 38.904881 42.761683 
L 38.799278 43.192779 
L 38.63213 43.593103 
L 38.464983 43.993426 
L 38.297835 44.39375 
L 38.130688 44.794074 
L 37.96354 45.194397 
L 37.796393 45.594721 
L 37.629245 45.995045 
L 37.462098 46.395368 
L 37.743591 47.090369 
L 38.025085 47.785369 
L 38.306578 48.480369 
L 38.588072 49.17537 
" style="fill:none;stroke:#4169e1;stroke-linecap:square;stroke-width:0.58329;"/>
   </g>
  </g>
 </g>
 <defs>
  <clipPath id="pd37719e426">
   <rect height="72" width="125.990583" x="0" y="0"/>
  </clipPath>
 </defs>
</svg>
