<?xml version="1.0" encoding="utf-8" standalone="no"?>
<!DOCTYPE svg PUBLIC "-//W3C//DTD SVG 1.1//EN"
  "http://www.w3.org/Graphics/SVG/1.1/DTD/svg11.dtd">
<svg xmlns:xlink="http://www.w3.org/1999/xlink" width="77.681703pt" height="72pt" viewBox="0 0 77.681703 72" xmlns="http://www.w3.org/2000/svg" version="1.1">
 <metadata>
  <rdf:RDF xmlns:dc="http://purl.org/dc/elements/1.1/" xmlns:cc="http://creativecommons.org/ns#" xmlns:rdf="http://www.w3.org/1999/02/22-rdf-syntax-ns#">
   <cc:Work>
    <dc:type rdf:resource="http://purl.org/dc/dcmitype/StillImage"/>
    <dc:date>2022-05-17T23:15:52.244648</dc:date>
    <dc:format>image/svg+xml</dc:format>
    <dc:creator>
     <cc:Agent>
      <dc:title>Matplotlib v3.5.2, https://matplotlib.org/</dc:title>
     </cc:Agent>
    </dc:creator>
   </cc:Work>
  </rdf:RDF>
 </metadata>
 <defs>
  <style type="text/css">*{stroke-linejoin: round; stroke-linecap: butt}</style>
 </defs>
 <g id="figure_1">
  <g id="patch_1">
   <path d="M 0 72 
L 77.681703 72 
L 77.681703 0 
L 0 0 
z
" style="fill: #ffffff"/>
  </g>
  <g id="axes_1">
   <g id="line2d_1">
    <path d="M 60.882645 54.910479 
L 60.480826 51.995836 
L 59.821843 47.219639 
L 58.876228 40.365024 
L 58.110093 34.799445 
L 57.969456 33.784525 
" clip-path="url(#p9a8430d519)" style="fill: none; stroke: #808080; stroke-width: 0.4; stroke-linecap: square"/>
   </g>
   <g id="line2d_2">
    <path d="M 53.095389 55.2644 
L 51.619373 48.192922 
L 50.632907 43.466169 
L 49.64644 38.739417 
L 48.392764 32.734906 
L 47.139088 26.730396 
L 45.753482 20.484733 
L 44.367875 14.23907 
L 43.702195 10.26093 
" clip-path="url(#p9a8430d519)" style="fill: none; stroke: #808080; stroke-width: 0.4; stroke-linecap: square"/>
   </g>
   <g id="line2d_3">
    <path d="M 22.983056 47.042679 
L 22.953589 42.877169 
L 22.924122 38.711659 
L 22.882601 32.956974 
L 22.843088 27.324601 
L 22.803576 21.692228 
L 22.762725 15.937543 
L 22.721873 10.182859 
L 22.68303 4.761277 
" clip-path="url(#p9a8430d519)" style="fill: none; stroke: #808080; stroke-width: 0.4; stroke-linecap: square"/>
   </g>
   <g id="line2d_4">
    <path d="M 10.294944 45.273074 
L 9.873033 39.909611 
L 9.451123 34.546149 
L 9.029213 29.182686 
L 8.607303 23.819223 
" clip-path="url(#p9a8430d519)" style="fill: none; stroke: #808080; stroke-width: 0.4; stroke-linecap: square"/>
   </g>
   <g id="line2d_5">
    <path d="M 66.40766 67.465996 
L 73.763631 66.116239 
" clip-path="url(#p9a8430d519)" style="fill: none; stroke: #808080; stroke-width: 0.4; stroke-linecap: square"/>
   </g>
   <g id="line2d_6">
    <path d="M 65.554464 56.454545 
L 66.272716 51.48187 
L 66.990968 46.509195 
L 67.709219 41.53652 
L 68.427471 36.563845 
" clip-path="url(#p9a8430d519)" style="fill: none; stroke: #808080; stroke-width: 0.4; stroke-linecap: square"/>
   </g>
   <g id="line2d_7">
    <path d="M 32.854415 28.017696 
L 31.961706 29.694917 
L 31.068998 31.372137 
L 30.176289 33.049358 
L 29.283581 34.726579 
L 28.949234 36.433076 
L 28.614887 38.139573 
L 28.28054 39.84607 
L 27.946193 41.552568 
L 27.611846 43.259065 
L 27.277499 44.965562 
L 26.943151 46.672059 
L 26.608804 48.378557 
L 25.389283 49.14018 
L 24.169762 49.901804 
" clip-path="url(#p9a8430d519)" style="fill: none; stroke: #008000; stroke-width: 0.4; stroke-linecap: square"/>
   </g>
   <g id="line2d_8">
    <path d="M 25.043049 5.885496 
L 24.876126 7.158267 
L 24.709204 8.431037 
L 24.542282 9.703808 
L 24.375359 10.976579 
L 24.208437 12.249349 
L 24.041514 13.52212 
L 23.874592 14.794891 
L 23.70767 16.067661 
L 22.738281 17.714087 
L 21.768892 19.360514 
L 20.799503 21.00694 
L 19.830114 22.653366 
L 19.510835 24.126735 
L 19.191556 25.600104 
L 18.872277 27.073473 
L 18.552998 28.546842 
L 18.23372 30.020212 
L 17.914441 31.493581 
L 17.595162 32.96695 
L 17.275883 34.440319 
L 16.956604 35.913688 
L 16.637325 37.387058 
L 16.318046 38.860427 
L 15.998768 40.333796 
L 15.679489 41.807165 
L 15.36021 43.280534 
L 15.040931 44.753904 
L 14.721652 46.227273 
L 16.403266 47.218772 
L 18.084879 48.210271 
L 19.213991 48.87474 
L 20.452934 49.131506 
L 21.691876 49.388272 
L 22.930819 49.645038 
L 24.169762 49.901804 
" clip-path="url(#p9a8430d519)" style="fill: none; stroke: #4169e1; stroke-width: 0.4; stroke-linecap: square"/>
   </g>
   <g id="line2d_9">
    <path d="M 62.945318 33.645732 
L 63.326041 35.615285 
L 63.706765 37.584837 
L 64.087489 39.554389 
L 64.468212 41.523942 
L 64.266968 43.575035 
L 64.065723 45.626128 
L 63.864479 47.677221 
L 63.663235 49.728314 
L 63.46199 51.779407 
L 63.260746 53.8305 
L 63.059501 55.881593 
L 62.858257 57.932686 
" clip-path="url(#p9a8430d519)" style="fill: none; stroke: #008000; stroke-width: 0.4; stroke-linecap: square"/>
   </g>
   <g id="line2d_10">
    <path d="M 36.362297 37.374046 
L 35.611229 38.949991 
L 34.860162 40.525937 
L 34.109095 42.101882 
L 33.358028 43.677828 
L 32.606961 45.253773 
L 31.855894 46.829719 
L 31.104827 48.405664 
L 30.35376 49.98161 
" clip-path="url(#p9a8430d519)" style="fill: none; stroke: #008000; stroke-width: 0.4; stroke-linecap: square"/>
   </g>
   <g id="line2d_11">
    <path d="M 42.025269 8.444483 
L 40.286396 8.613636 
L 38.547523 8.78279 
L 36.808651 8.951943 
L 35.069778 9.121096 
L 34.162001 10.244448 
L 33.254225 11.3678 
L 32.346448 12.491152 
L 31.438672 13.614504 
" clip-path="url(#p9a8430d519)" style="fill: none; stroke: #4169e1; stroke-width: 0.4; stroke-linecap: square"/>
   </g>
   <g id="line2d_12">
    <path d="M 22.882601 3.272727 
L 23.962825 4.579112 
L 25.043049 5.885496 
L 25.842502 6.851622 
L 26.641954 7.817748 
L 27.441407 8.783874 
L 28.24086 9.75 
L 29.040313 10.716126 
L 29.839766 11.682252 
L 30.639219 12.648378 
L 31.438672 13.614504 
" clip-path="url(#p9a8430d519)" style="fill: none; stroke: #4169e1; stroke-width: 0.4; stroke-linecap: square"/>
   </g>
   <g id="line2d_13">
    <path d="M 31.438672 13.614504 
L 31.615639 15.414903 
L 31.792607 17.215302 
L 31.969575 19.015701 
L 32.146543 20.8161 
L 32.323511 22.616499 
L 32.500479 24.416898 
L 32.677447 26.217297 
L 32.854415 28.017696 
L 33.2929 29.18724 
L 33.731385 30.356783 
L 34.16987 31.526327 
L 34.608356 32.695871 
L 35.046841 33.865415 
L 35.485326 35.034958 
L 35.923811 36.204502 
L 36.362297 37.374046 
L 37.193393 38.974497 
L 38.024489 40.574948 
" clip-path="url(#p9a8430d519)" style="fill: none; stroke: #4169e1; stroke-width: 0.4; stroke-linecap: square"/>
   </g>
   <g id="line2d_14">
    <path d="M 38.024489 40.574948 
L 38.663381 41.761624 
L 39.302274 42.9483 
L 40.841242 43.755031 
L 41.528352 44.941707 
L 42.745195 46.189105 
L 43.962038 47.436502 
L 45.17888 48.6839 
L 46.395723 49.931298 
L 47.103594 51.546929 
L 47.811466 53.162561 
L 48.519337 54.778192 
L 49.227209 56.393824 
" clip-path="url(#p9a8430d519)" style="fill: none; stroke: #008000; stroke-width: 0.4; stroke-linecap: square"/>
   </g>
   <g id="line2d_15">
    <path d="M 53.499887 33.77585 
L 53.771868 35.291074 
L 54.04385 36.806298 
L 54.315831 38.321522 
L 54.587812 39.836745 
L 54.859794 41.351969 
L 55.131775 42.867193 
L 55.403757 44.382417 
L 55.675738 45.897641 
L 55.947719 47.412864 
L 56.219701 48.928088 
L 56.491682 50.443312 
L 56.763664 51.958536 
L 57.035645 53.47376 
L 57.307626 54.988983 
L 57.579608 56.504207 
L 57.851589 58.019431 
" clip-path="url(#p9a8430d519)" style="fill: none; stroke: #008000; stroke-width: 0.4; stroke-linecap: square"/>
   </g>
   <g id="line2d_16">
    <path d="M 24.169762 49.901804 
L 25.715761 49.921756 
L 27.261761 49.941707 
L 28.80776 49.961659 
L 30.35376 49.98161 
L 31.796291 49.999827 
L 33.238822 50.018043 
L 35.050692 50.457842 
L 36.862561 50.897641 
L 38.674431 51.337439 
L 40.486301 51.777238 
L 41.578915 52.354311 
L 42.671528 52.931384 
L 43.764142 53.508458 
L 44.856755 54.085531 
L 45.949369 54.662604 
L 47.041982 55.239677 
L 48.134595 55.816751 
L 49.227209 56.393824 
L 50.906144 57.186676 
L 52.585078 57.979528 
L 54.264013 58.77238 
L 55.942948 59.565232 
" clip-path="url(#p9a8430d519)" style="fill: none; stroke: #008000; stroke-width: 0.4; stroke-linecap: square"/>
   </g>
   <g id="line2d_17">
    <path d="M 73.763631 66.116239 
L 74.150717 68.234559 
L 72.44332 68.357738 
L 70.735923 68.480916 
L 69.028526 68.604094 
L 67.321129 68.727273 
" clip-path="url(#p9a8430d519)" style="fill: none; stroke: #008000; stroke-width: 0.4; stroke-linecap: square"/>
   </g>
   <g id="line2d_18">
    <path d="M 73.763631 66.116239 
L 73.332345 64.211312 
L 71.69895 64.513185 
L 70.065554 64.815059 
L 68.432159 65.116933 
L 66.798764 65.418806 
" clip-path="url(#p9a8430d519)" style="fill: none; stroke: #008000; stroke-width: 0.4; stroke-linecap: square"/>
   </g>
   <g id="line2d_19">
    <path d="M 49.781719 22.108605 
L 48.165736 23.632287 
L 46.549753 25.155968 
L 44.93377 26.67965 
L 43.317787 28.203331 
L 42.45622 30.218858 
L 41.594653 32.234386 
L 40.733085 34.249913 
L 39.871518 36.265441 
L 39.409761 37.342817 
L 38.948003 38.420194 
L 38.486246 39.497571 
L 38.024489 40.574948 
" clip-path="url(#p9a8430d519)" style="fill: none; stroke: #008000; stroke-width: 0.4; stroke-linecap: square"/>
   </g>
   <g id="line2d_20">
    <path d="M 44.795143 9.244275 
L 45.672448 10.5216 
L 46.549753 11.798924 
L 47.427059 13.076249 
L 48.304364 14.353574 
L 48.673703 16.292332 
L 49.043042 18.23109 
L 49.412381 20.169847 
L 49.781719 22.108605 
L 50.24649 23.567011 
L 50.711261 25.025416 
L 51.176032 26.483822 
L 51.640803 27.942228 
L 52.105574 29.400633 
L 52.570345 30.859039 
L 53.035116 32.317444 
L 53.499887 33.77585 
" clip-path="url(#p9a8430d519)" style="fill: none; stroke: #4169e1; stroke-width: 0.4; stroke-linecap: square"/>
   </g>
   <g id="line2d_21">
    <path d="M 41.528352 44.941707 
L 41.26784 46.65059 
L 41.007327 48.359473 
L 40.746814 50.068355 
L 40.486301 51.777238 
" clip-path="url(#p9a8430d519)" style="fill: none; stroke: #4169e1; stroke-width: 0.4; stroke-linecap: square"/>
   </g>
   <g id="line2d_22">
    <path d="M 58.33779 24.816794 
L 57.733052 25.936676 
L 57.128314 27.056558 
L 56.523577 28.17644 
L 55.918839 29.296322 
L 55.314101 30.416204 
L 54.709363 31.536086 
L 54.104625 32.655968 
L 53.499887 33.77585 
" clip-path="url(#p9a8430d519)" style="fill: none; stroke: #008000; stroke-width: 0.4; stroke-linecap: square"/>
   </g>
   <g id="line2d_23">
    <path d="M 48.304364 14.353574 
L 49.950818 15.722849 
L 51.597273 17.092124 
L 53.243727 18.461398 
L 54.890181 19.830673 
L 55.752084 21.077203 
L 56.613986 22.323734 
L 57.475888 23.570264 
L 58.33779 24.816794 
L 59.076468 25.97094 
L 59.815146 27.125087 
L 60.553823 28.279233 
L 61.292501 29.43338 
L 62.118909 31.539556 
L 62.945318 33.645732 
" clip-path="url(#p9a8430d519)" style="fill: none; stroke: #4169e1; stroke-width: 0.4; stroke-linecap: square"/>
   </g>
   <g id="line2d_24">
    <path d="M 5.332476 25.207148 
L 5.49245 27.141677 
L 5.652425 29.076206 
L 5.812399 31.010735 
L 5.972373 32.945264 
L 6.132347 34.879793 
L 6.292322 36.814322 
L 6.452296 38.748851 
L 6.61227 40.68338 
L 6.772245 42.617909 
L 6.932219 44.552438 
L 7.092193 46.486967 
L 7.252167 48.421495 
L 7.412142 50.356024 
L 7.572116 52.290553 
L 7.73209 54.225082 
L 7.892065 56.159611 
" clip-path="url(#p9a8430d519)" style="fill: none; stroke: #008000; stroke-width: 0.4; stroke-linecap: square"/>
   </g>
   <g id="line2d_25">
    <path d="M 4.384183 25.182859 
L 4.544241 27.117497 
L 4.704299 29.052134 
L 4.864357 30.986771 
L 5.024415 32.921409 
L 5.184473 34.856046 
L 5.344531 36.790684 
L 5.504589 38.725321 
L 5.664647 40.659958 
L 5.824705 42.594596 
L 5.984763 44.529233 
L 6.144821 46.463871 
L 6.304879 48.398508 
L 6.464937 50.333145 
L 6.624995 52.267783 
L 6.785053 54.20242 
L 6.945111 56.137058 
" clip-path="url(#p9a8430d519)" style="fill: none; stroke: #008000; stroke-width: 0.4; stroke-linecap: square"/>
   </g>
   <g id="line2d_26">
    <path d="M 3.530987 25.325121 
L 3.691044 27.259759 
L 3.851102 29.194396 
L 4.01116 31.129034 
L 4.171218 33.063671 
L 4.331276 34.998308 
L 4.491334 36.932946 
L 4.651392 38.867583 
L 4.81145 40.802221 
L 4.971508 42.736858 
L 5.131566 44.671495 
L 5.291624 46.606133 
L 5.451682 48.54077 
L 5.61174 50.475408 
L 5.771798 52.410045 
L 5.931856 54.344683 
L 6.091914 56.27932 
" clip-path="url(#p9a8430d519)" style="fill: none; stroke: #008000; stroke-width: 0.4; stroke-linecap: square"/>
   </g>
  </g>
 </g>
 <defs>
  <clipPath id="p9a8430d519">
   <rect x="0" y="0" width="77.681703" height="72"/>
  </clipPath>
 </defs>
</svg>
