<?xml version="1.0" encoding="utf-8" standalone="no"?>
<!DOCTYPE svg PUBLIC "-//W3C//DTD SVG 1.1//EN"
  "http://www.w3.org/Graphics/SVG/1.1/DTD/svg11.dtd">
<svg height="82.471516pt" version="1.1" viewBox="0 0 72 82.471516" width="72pt" xmlns="http://www.w3.org/2000/svg" xmlns:xlink="http://www.w3.org/1999/xlink">
 <metadata>
  <rdf:RDF xmlns:cc="http://creativecommons.org/ns#" xmlns:dc="http://purl.org/dc/elements/1.1/" xmlns:rdf="http://www.w3.org/1999/02/22-rdf-syntax-ns#">
   <cc:Work>
    <dc:type rdf:resource="http://purl.org/dc/dcmitype/StillImage"/>
    <dc:date>2022-04-19T00:53:18.558676</dc:date>
    <dc:format>image/svg+xml</dc:format>
    <dc:creator>
     <cc:Agent>
      <dc:title>Matplotlib v3.4.3, https://matplotlib.org/</dc:title>
     </cc:Agent>
    </dc:creator>
   </cc:Work>
  </rdf:RDF>
 </metadata>
 <defs>
  <style type="text/css">*{stroke-linecap:butt;stroke-linejoin:round;}</style>
 </defs>
 <g id="figure_1">
  <g id="patch_1">
   <path d="M 0 82.471516 
L 72 82.471516 
L 72 0 
L 0 0 
z
" style="fill:#ffffff;"/>
  </g>
  <g id="axes_1">
   <g id="line2d_1">
    <path clip-path="url(#p9aca4d8f7d)" d="M 3.879383 78.110659 
L 4.220183 77.44407 
L 4.560982 76.777482 
L 5.119354 75.685381 
L 5.677726 74.593281 
L 6.236099 73.50118 
L 6.794471 72.40908 
L 7.117645 71.777022 
L 7.44082 71.144964 
L 7.763994 70.512906 
L 8.087169 69.880848 
L 8.410343 69.24879 
L 8.733518 68.616732 
L 9.056693 67.984674 
L 9.379867 67.352617 
L 9.740735 66.646796 
L 10.101604 65.940976 
L 10.462472 65.235156 
L 10.823341 64.529335 
L 11.19117 63.810051 
L 11.559 63.090767 
L 11.926829 62.371482 
L 12.294659 61.652198 
L 12.639753 60.97731 
L 12.984848 60.302423 
L 13.329943 59.627535 
L 13.675037 58.952647 
L 14.035461 58.247698 
L 14.395886 57.542748 
L 14.75631 56.837798 
L 15.116734 56.132848 
L 15.640744 55.107952 
L 16.164755 54.083056 
L 16.535177 53.358549 
L 16.905598 52.634041 
L 17.244176 51.971921 
L 17.582754 51.309801 
L 17.921332 50.647681 
L 18.25991 49.985561 
L 18.635293 49.251478 
L 19.010676 48.517395 
L 19.386059 47.783312 
L 19.761442 47.049228 
L 20.080247 46.42576 
L 20.399053 45.802291 
L 20.717858 45.178822 
L 21.036663 44.555353 
L 21.44189 43.762829 
L 21.847117 42.970305 
L 22.252345 42.17778 
L 22.657572 41.385256 
L 23.018366 40.679726 
L 23.37916 39.974196 
L 23.739955 39.268666 
L 24.100749 38.563136 
L 24.404965 37.968162 
L 24.709182 37.373188 
L 25.068791 36.669806 
L 25.42455 35.974083 
" style="fill:none;stroke:#808080;stroke-linecap:square;stroke-width:0.4;"/>
   </g>
   <g id="line2d_2">
    <path clip-path="url(#p9aca4d8f7d)" d="M 24.878619 9.552426 
L 25.004068 10.669481 
L 25.129516 11.786537 
L 25.24045 12.657408 
L 25.351384 13.52828 
L 25.443804 14.26155 
L 25.536224 14.994821 
L 25.628645 15.728092 
L 25.721065 16.461363 
L 25.811412 17.217209 
L 25.901758 17.973055 
L 25.992105 18.728902 
L 26.082452 19.484748 
L 26.176945 20.232411 
L 26.271439 20.980075 
L 26.365933 21.727738 
L 26.460427 22.475402 
L 26.571212 23.268158 
L 26.681998 24.060915 
L 26.723173 24.315572 
L 26.928452 25.605571 
L 27.018799 26.318297 
L 27.109145 27.031024 
L 27.199492 27.74375 
L 27.289839 28.456477 
L 27.466533 29.655942 
L 27.643228 30.855407 
L 27.729427 31.533254 
L 27.815627 32.211102 
L 27.991285 33.189802 
" style="fill:none;stroke:#808080;stroke-linecap:square;stroke-width:0.4;"/>
   </g>
   <g id="line2d_3">
    <path clip-path="url(#p9aca4d8f7d)" d="M 29.843244 3.908185 
L 30.113395 4.575238 
L 30.383546 5.242291 
L 30.790181 6.243683 
L 31.196815 7.245075 
L 31.603449 8.246467 
L 32.010083 9.247859 
L 32.444636 10.328004 
L 32.879188 11.408149 
L 33.244759 12.252557 
L 33.61033 13.096964 
L 33.975901 13.941372 
L 34.341472 14.785779 
L 34.707043 15.630187 
L 35.072613 16.474595 
L 35.438184 17.319002 
L 35.803755 18.16341 
L 36.123745 18.902484 
L 36.443736 19.641558 
L 36.763726 20.380632 
L 37.083716 21.119707 
L 37.505087 22.09272 
L 37.926458 23.065732 
L 38.201201 23.700402 
L 38.475944 24.335071 
L 38.880726 25.269897 
L 39.285509 26.204723 
L 39.652524 27.022087 
L 39.965923 27.779326 
" style="fill:none;stroke:#808080;stroke-linecap:square;stroke-width:0.4;"/>
   </g>
   <g id="line2d_4">
    <path clip-path="url(#p9aca4d8f7d)" d="M 23.158181 6.273687 
L 22.64987 7.348493 
L 22.239015 8.217623 
L 21.828159 9.086754 
L 21.417156 9.956 
L 21.006153 10.825247 
L 20.570859 11.762162 
L 20.135566 12.699077 
L 19.828832 13.359282 
L 19.522097 14.019487 
L 19.238912 14.629085 
L 18.955727 15.238684 
L 18.413351 16.405649 
L 18.104543 17.070497 
L 17.795735 17.735344 
L 17.259135 18.890239 
L 16.722535 20.045133 
L 16.301016 20.952334 
L 15.879497 21.859535 
L 15.437538 22.811075 
L 15.246477 23.222194 
L 14.751496 24.287251 
L 14.209712 25.453404 
L 13.667928 26.619557 
L 13.304172 27.402563 
L 12.940415 28.18557 
L 12.795564 28.497565 
" style="fill:none;stroke:#808080;stroke-linecap:square;stroke-width:0.4;"/>
   </g>
   <g id="line2d_5">
    <path clip-path="url(#p9aca4d8f7d)" d="M 26.385483 8.825829 
L 26.737095 9.445874 
L 27.088706 10.065918 
L 27.527999 10.840336 
L 27.967291 11.614753 
L 28.341119 12.27403 
L 28.714947 12.933306 
L 29.176752 13.747419 
L 29.638556 14.561533 
L 30.215887 15.579697 
L 30.793217 16.597861 
L 31.308341 17.505991 
L 31.823465 18.41412 
L 32.333702 19.313893 
L 32.843938 20.213666 
L 33.278195 20.979262 
L 33.712452 21.744858 
L 34.263863 22.717059 
L 34.815274 23.689259 
L 35.219316 24.401695 
L 35.623358 25.114132 
L 36.220831 26.167581 
L 36.761726 27.12121 
L 37.302621 28.074839 
L 37.637497 28.665402 
L 37.972372 29.255965 
" style="fill:none;stroke:#808080;stroke-linecap:square;stroke-width:0.4;"/>
   </g>
   <g id="line2d_6">
    <path clip-path="url(#p9aca4d8f7d)" d="M 56.310676 4.754334 
L 56.700796 5.371361 
L 57.090916 5.988388 
L 57.702015 6.955365 
L 58.313114 7.922342 
L 58.6785 8.500253 
L 59.043885 9.078165 
L 59.409271 9.656076 
L 59.774657 10.233987 
L 60.146707 10.822577 
L 60.518758 11.411167 
L 60.890808 11.999757 
L 61.262859 12.588347 
L 61.664383 13.223596 
L 62.065908 13.858846 
L 62.467432 14.494096 
L 62.868957 15.129346 
L 63.309878 15.826867 
L 63.750799 16.524389 
L 64.191721 17.22191 
L 64.632642 17.919431 
L 64.994473 18.491771 
L 65.356305 19.064111 
L 65.718136 19.636451 
L 66.079967 20.208791 
L 66.498746 20.871259 
L 66.917525 21.533728 
L 67.336304 22.196196 
L 67.755083 22.858664 
L 68.433424 23.931845 
" style="fill:none;stroke:#808080;stroke-linecap:square;stroke-width:0.4;"/>
   </g>
   <g id="line2d_7">
    <path clip-path="url(#p9aca4d8f7d)" d="M 33.688458 30.61491 
L 34.506169 30.52101 
L 35.323881 30.427109 
L 36.321545 30.320673 
L 37.31921 30.214237 
L 38.257927 30.09631 
L 38.484534 30.058472 
" style="fill:none;stroke:#808080;stroke-linecap:square;stroke-width:0.4;"/>
   </g>
   <g id="line2d_8">
    <path clip-path="url(#p9aca4d8f7d)" d="M 25.897315 23.79349 
L 26.185536 23.633662 
L 26.473756 23.473834 
L 26.761977 23.314006 
L 27.050198 23.154178 
L 27.16402 22.935328 
L 27.277842 22.716478 
L 27.391664 22.497629 
L 27.505486 22.278779 
L 27.498784 22.023513 
L 27.492082 21.768247 
L 27.48538 21.51298 
L 27.478678 21.257714 
L 27.471976 21.002447 
L 27.465274 20.747181 
L 27.458572 20.491914 
L 27.45187 20.236648 
L 27.488527 19.885595 
L 27.525185 19.534542 
L 27.561842 19.183489 
L 27.598499 18.832436 
L 27.61057 18.483907 
L 27.62264 18.135379 
L 27.634711 17.78685 
L 27.646782 17.438322 
L 27.658853 17.089793 
L 27.670924 16.741265 
L 27.682995 16.392736 
L 27.695066 16.044208 
L 27.657594 15.837139 
L 27.620123 15.630071 
L 27.582651 15.423003 
L 27.545179 15.215934 
L 27.447131 14.982779 
L 27.349083 14.749624 
L 27.251034 14.516469 
L 27.152986 14.283313 
L 27.054937 14.050158 
L 26.956889 13.817003 
L 26.858841 13.583848 
L 26.760792 13.350693 
L 26.724117 13.151387 
L 26.687441 12.95208 
L 26.650766 12.752774 
L 26.61409 12.553468 
L 26.577414 12.354161 
L 26.540739 12.154855 
L 26.504063 11.955549 
L 26.467388 11.756242 
L 26.430712 11.556936 
L 26.394037 11.35763 
L 26.357361 11.158324 
L 26.320685 10.959017 
L 26.28401 10.759711 
L 26.247334 10.560405 
L 26.210659 10.361098 
L 26.173983 10.161792 
L 26.226858 9.827801 
L 26.279733 9.493811 
L 26.332608 9.15982 
L 26.385483 8.825829 
" style="fill:none;stroke:#008000;stroke-linecap:square;stroke-width:0.4;"/>
   </g>
   <g id="line2d_9">
    <path clip-path="url(#p9aca4d8f7d)" d="M 18.755483 23.962255 
L 18.905814 23.649389 
L 19.056145 23.336523 
L 19.206476 23.023657 
L 19.356807 22.710791 
L 19.507138 22.397925 
L 19.657469 22.085059 
L 19.8078 21.772193 
L 19.958131 21.459327 
L 19.92751 21.083754 
L 19.896888 20.708181 
L 19.866266 20.332609 
L 19.835645 19.957036 
L 19.805023 19.581463 
L 19.774402 19.20589 
L 19.74378 18.830318 
L 19.713158 18.454745 
L 19.909107 18.12 
L 20.105056 17.785254 
L 20.301004 17.450509 
L 20.496953 17.115764 
L 20.783396 16.904517 
L 21.025074 16.726408 
L 21.266751 16.548299 
L 21.508428 16.37019 
L 21.750106 16.192081 
L 21.991783 16.013972 
L 22.233461 15.835863 
L 22.475138 15.657754 
L 22.716815 15.479645 
L 22.978376 15.286969 
L 23.137446 15.106045 
L 23.296515 14.925121 
L 23.455585 14.744197 
L 23.614654 14.563274 
L 23.773724 14.38235 
L 23.932793 14.201426 
L 24.091862 14.020502 
L 24.250932 13.839579 
L 24.22642 13.555962 
L 24.201908 13.272346 
L 24.177395 12.988729 
L 24.152883 12.705113 
L 24.072053 12.510638 
L 23.991222 12.316163 
L 23.910391 12.121688 
L 23.829561 11.927213 
L 23.74873 11.732738 
L 23.667899 11.538263 
L 23.587069 11.343789 
L 23.506238 11.149314 
L 23.429221 10.963834 
L 23.434109 10.66066 
L 23.438996 10.357486 
L 23.443884 10.054311 
L 23.448772 9.751137 
L 23.614062 9.502574 
L 23.779352 9.25401 
L 23.944642 9.005447 
L 24.109932 8.756884 
L 24.11356 8.489749 
L 24.117189 8.222614 
L 24.120818 7.95548 
L 24.124446 7.688345 
L 23.99885 7.418077 
L 23.873253 7.147808 
L 23.747656 6.87754 
L 23.62206 6.607272 
L 23.39012 6.440479 
L 23.158181 6.273687 
" style="fill:none;stroke:#008000;stroke-linecap:square;stroke-width:0.4;"/>
   </g>
   <g id="line2d_10">
    <path clip-path="url(#p9aca4d8f7d)" d="M 16.299535 24.093878 
L 16.438406 23.726126 
L 16.577277 23.358373 
L 16.716148 22.990621 
L 16.855019 22.622868 
L 16.99389 22.255116 
L 17.132761 21.887363 
L 17.271632 21.519611 
L 17.410503 21.151858 
L 17.549374 20.784105 
L 17.688245 20.416353 
L 17.827116 20.0486 
L 17.965987 19.680848 
L 18.104858 19.313095 
L 18.243729 18.945343 
L 18.3826 18.57759 
L 18.521471 18.209838 
L 18.624518 17.971024 
L 18.727565 17.732211 
L 18.830612 17.493397 
L 18.933659 17.254583 
L 19.036706 17.01577 
L 19.139753 16.776956 
L 19.2428 16.538143 
L 19.345847 16.299329 
L 19.448894 16.060516 
L 19.551941 15.821702 
L 19.654988 15.582889 
L 19.758035 15.344075 
L 19.861083 15.105262 
L 19.96413 14.866448 
L 20.067177 14.627634 
L 20.170224 14.388821 
L 20.362062 14.20308 
L 20.553901 14.01734 
L 20.745739 13.831599 
L 20.937578 13.645858 
L 21.129417 13.460118 
L 21.321255 13.274377 
L 21.513094 13.088636 
L 21.704932 12.902896 
L 21.79676 12.633469 
L 21.888588 12.364042 
L 21.980416 12.094615 
L 22.072244 11.825188 
L 22.164071 11.555761 
L 22.255899 11.286334 
L 22.347727 11.016907 
L 22.439555 10.74748 
L 22.529309 10.523001 
L 22.619063 10.298522 
L 22.708817 10.074043 
L 22.798572 9.849564 
L 23.123672 9.800351 
L 23.448772 9.751137 
" style="fill:none;stroke:#008000;stroke-linecap:square;stroke-width:0.4;"/>
   </g>
   <g id="line2d_11">
    <path clip-path="url(#p9aca4d8f7d)" d="M 40.240814 27.035318 
L 40.102554 26.728024 
L 39.964294 26.420729 
L 39.826034 26.113434 
L 39.687774 25.80614 
L 39.512635 25.468667 
L 39.337495 25.131194 
L 39.162356 24.793721 
L 38.987217 24.456248 
L 38.893205 24.258117 
L 38.799192 24.059986 
L 38.70518 23.861855 
L 38.611167 23.663724 
L 38.517155 23.465593 
L 38.423143 23.267462 
L 38.32913 23.069331 
L 38.235118 22.871199 
L 38.141105 22.673068 
L 38.047093 22.474937 
L 37.953081 22.276806 
L 37.859068 22.078675 
L 37.765056 21.880544 
L 37.671043 21.682413 
L 37.577031 21.484282 
L 37.483019 21.286151 
L 37.342019 20.932428 
L 37.201018 20.578706 
L 37.060018 20.224983 
L 36.919018 19.87126 
L 36.778018 19.517538 
L 36.637018 19.163815 
L 36.496018 18.810092 
L 36.355018 18.45637 
L 36.296811 18.09371 
L 36.238604 17.73105 
L 36.180397 17.36839 
L 36.12219 17.00573 
L 36.12219 16.750492 
L 36.12219 16.495255 
L 36.12219 16.240018 
L 36.12219 15.98478 
L 36.247491 15.765408 
L 36.372791 15.546036 
L 36.498092 15.326665 
L 36.623392 15.107293 
L 36.511496 14.7267 
L 36.399599 14.346107 
L 36.287702 13.965514 
L 36.175806 13.584922 
L 36.240715 13.349851 
L 36.305624 13.114781 
L 36.370532 12.879711 
L 36.435441 12.64464 
L 36.50035 12.40957 
L 36.565259 12.1745 
L 36.630168 11.93943 
L 36.695077 11.704359 
L 36.766762 11.328177 
L 36.838447 10.951995 
L 36.811565 10.553528 
L 36.784683 10.15506 
L 36.757801 9.756593 
L 36.73092 9.358125 
L 36.667232 9.108111 
L 36.433442 8.96697 
L 36.199651 8.825829 
L 35.965861 8.684688 
L 35.73207 8.543547 
L 35.49828 8.402407 
L 35.264489 8.261266 
L 35.030699 8.120125 
L 34.796908 7.978984 
L 34.474622 7.790951 
L 34.152336 7.602918 
L 33.83005 7.414885 
L 33.507764 7.226852 
L 33.346547 6.962677 
L 33.18533 6.698502 
L 33.024113 6.434328 
L 32.862896 6.170153 
L 32.604668 6.007771 
L 32.346439 5.84539 
L 32.088211 5.683008 
L 31.829982 5.520626 
L 31.59745 5.320348 
L 31.364919 5.12007 
L 31.132387 4.919791 
L 30.899855 4.719513 
L 30.656216 4.50223 
L 30.412576 4.284948 
L 30.11221 4.043058 
L 29.999943 3.879632 
L 29.917002 3.748705 
L 29.855685 3.763562 
L 29.843244 3.908185 
" style="fill:none;stroke:#4169e1;stroke-linecap:square;stroke-width:0.4;"/>
   </g>
   <g id="line2d_12">
    <path clip-path="url(#p9aca4d8f7d)" d="M 39.41703 28.414459 
L 39.276623 28.202168 
L 39.136215 27.989876 
L 39.011636 27.80148 
L 38.887058 27.613085 
L 38.76248 27.424689 
L 38.637901 27.236293 
L 38.513323 27.047898 
L 38.388744 26.859502 
L 38.264166 26.671106 
L 38.139587 26.48271 
L 38.015009 26.294315 
L 37.89043 26.105919 
L 37.765852 25.917523 
L 37.641273 25.729127 
L 37.516695 25.540732 
L 37.392117 25.352336 
L 37.267538 25.16394 
L 37.14296 24.975544 
L 36.88325 24.724834 
L 36.62354 24.474123 
L 36.363831 24.223412 
L 36.104121 23.972702 
L 36.005628 23.780142 
L 35.907135 23.587582 
L 35.808643 23.395022 
L 35.71015 23.202463 
L 35.488579 23.135316 
L 35.267007 23.06817 
L 35.045435 23.001024 
L 34.823864 22.933877 
L 34.602292 22.866731 
L 34.380721 22.799584 
L 34.159149 22.732438 
L 33.937578 22.665292 
L 33.79206 22.495133 
L 33.646543 22.324975 
L 33.501025 22.154817 
L 33.355508 21.984659 
L 33.209991 21.8145 
L 33.064473 21.644342 
L 32.918956 21.474184 
L 32.773438 21.304025 
L 32.650323 21.127164 
L 32.527207 20.950303 
L 32.404091 20.773442 
L 32.280975 20.59658 
L 32.157859 20.419719 
L 32.034743 20.242858 
L 31.911627 20.065996 
L 31.788511 19.889135 
L 31.578122 19.786152 
L 31.367733 19.683169 
L 31.157344 19.580186 
L 30.946954 19.477203 
L 30.736565 19.374221 
L 30.526176 19.271238 
L 30.315786 19.168255 
L 30.105397 19.065272 
L 29.953141 18.921984 
L 29.800884 18.778696 
L 29.648628 18.635407 
L 29.496372 18.492119 
" style="fill:none;stroke:#4169e1;stroke-linecap:square;stroke-width:0.4;"/>
   </g>
   <g id="line2d_13">
    <path clip-path="url(#p9aca4d8f7d)" d="M 35.889362 29.166592 
L 35.667754 28.942722 
L 35.446145 28.718852 
L 35.224537 28.494983 
L 35.002928 28.271113 
L 34.781319 28.047244 
L 34.559711 27.823374 
L 34.338102 27.599505 
L 34.116494 27.375635 
L 33.963164 27.115943 
L 33.809833 26.856252 
L 33.656503 26.59656 
L 33.503173 26.336869 
L 33.349843 26.077177 
L 33.196513 25.817485 
L 33.043183 25.557794 
L 32.889852 25.298102 
L 32.736522 25.038411 
L 32.583192 24.778719 
L 32.429862 24.519027 
L 32.276532 24.259336 
L 32.123201 23.999644 
L 31.969871 23.739953 
L 31.816541 23.480261 
L 31.663211 23.220569 
L 31.571457 22.994437 
L 31.479703 22.768304 
L 31.38795 22.542171 
L 31.296196 22.316038 
L 31.204442 22.089905 
L 31.112689 21.863772 
L 31.020935 21.637639 
L 30.929181 21.411506 
L 30.785885 21.120461 
L 30.64259 20.829416 
L 30.499294 20.538371 
L 30.355998 20.247326 
L 30.16353 20.068231 
L 29.971062 19.889135 
L 29.778594 19.710039 
L 29.586126 19.530944 
L 29.563687 19.271238 
L 29.541249 19.011532 
L 29.51881 18.751825 
L 29.496372 18.492119 
L 29.4158 18.1832 
L 29.335229 17.87428 
L 29.254657 17.56536 
L 29.174086 17.256441 
L 29.167384 17.034805 
L 29.160682 16.81317 
L 29.15398 16.591535 
L 29.147278 16.3699 
L 29.140576 16.148264 
L 29.133874 15.926629 
L 29.127172 15.704994 
L 29.12047 15.483359 
L 29.178677 15.214715 
L 29.236884 14.946072 
L 29.295091 14.677428 
L 29.353298 14.408785 
L 29.250214 14.037013 
L 29.14713 13.665242 
L 29.044046 13.29347 
L 28.940962 12.921699 
" style="fill:none;stroke:#4169e1;stroke-linecap:square;stroke-width:0.4;"/>
   </g>
   <g id="line2d_14">
    <path clip-path="url(#p9aca4d8f7d)" d="M 28.319199 31.098689 
L 28.080891 30.852505 
L 27.842583 30.606321 
L 27.82792 30.307325 
L 27.813257 30.008329 
L 27.790671 29.789262 
L 27.768084 29.570195 
L 27.745497 29.351128 
L 27.72291 29.132061 
L 27.700324 28.912994 
L 27.677737 28.693926 
L 27.65515 28.474859 
L 27.632564 28.255792 
L 27.609977 28.036725 
L 27.58739 27.817658 
L 27.564804 27.598591 
L 27.542217 27.379523 
L 27.51963 27.160456 
L 27.497044 26.941389 
L 27.474457 26.722322 
L 27.45187 26.503255 
L 27.442095 26.21633 
L 27.43232 25.929406 
L 27.422545 25.642481 
L 27.41277 25.355557 
L 27.402994 25.068632 
L 27.393219 24.781708 
L 27.383444 24.494783 
L 27.373669 24.207859 
L 27.390146 23.966724 
L 27.406623 23.725589 
L 27.4231 23.484454 
L 27.439577 23.243319 
L 27.456055 23.002184 
L 27.472532 22.761049 
L 27.489009 22.519914 
L 27.505486 22.278779 
" style="fill:none;stroke:#4169e1;stroke-linecap:square;stroke-width:0.4;"/>
   </g>
   <g id="line2d_15">
    <path clip-path="url(#p9aca4d8f7d)" d="M 32.719823 31.351721 
L 32.560161 31.178371 
L 32.400499 31.005021 
L 32.240837 30.83167 
L 32.081175 30.65832 
L 31.869231 30.437614 
L 31.657287 30.216907 
L 31.445342 29.9962 
L 31.233398 29.775494 
L 31.049853 29.625502 
L 30.866309 29.475511 
L 30.682764 29.32552 
L 30.49922 29.175529 
L 30.315675 29.025538 
L 30.132131 28.875547 
L 29.948586 28.725555 
L 29.765042 28.575564 
L 29.724756 28.333776 
L 29.68447 28.091989 
L 29.644185 27.850201 
L 29.603899 27.608413 
L 29.563613 27.366625 
L 29.523327 27.124837 
L 29.483042 26.883049 
L 29.442756 26.641262 
L 29.40247 26.399474 
L 29.362184 26.157686 
L 29.321899 25.915898 
L 29.281613 25.67411 
L 29.241327 25.432322 
L 29.201042 25.190535 
L 29.160756 24.948747 
L 29.12047 24.706959 
L 28.999613 24.503227 
L 28.878756 24.299496 
L 28.757898 24.095765 
L 28.637041 23.892033 
L 28.516184 23.688302 
L 28.395327 23.48457 
L 28.27447 23.280839 
L 28.153612 23.077107 
L 27.991581 22.877525 
L 27.829549 22.677943 
L 27.667518 22.478361 
L 27.505486 22.278779 
" style="fill:none;stroke:#4169e1;stroke-linecap:square;stroke-width:0.4;"/>
   </g>
   <g id="line2d_16">
    <path clip-path="url(#p9aca4d8f7d)" d="M 21.728926 28.292122 
L 21.984415 28.401111 
L 22.239903 28.510101 
L 22.52768 28.594716 
L 22.815456 28.679331 
L 23.115896 28.64892 
L 23.416336 28.61851 
L 23.716775 28.5881 
L 24.017215 28.55769 
L 24.24286 28.569761 
L 24.468504 28.581832 
L 24.694149 28.593903 
L 24.919793 28.605975 
L 25.187723 28.538306 
L 25.455653 28.470637 
L 25.613834 28.30814 
L 25.772014 28.145642 
L 25.713808 27.850128 
L 25.655601 27.554615 
L 25.597394 27.259101 
L 25.539187 26.963587 
L 25.592876 26.59199 
L 25.646566 26.220393 
L 25.700256 25.848795 
L 25.753945 25.477198 
L 25.771866 25.266734 
L 25.789788 25.056271 
L 25.807709 24.845807 
L 25.82563 24.635344 
L 25.843551 24.42488 
L 25.861473 24.214417 
L 25.879394 24.003953 
L 25.897315 23.79349 
L 25.915977 23.588975 
L 25.934639 23.38446 
L 25.9533 23.179945 
L 25.971962 22.97543 
" style="fill:none;stroke:#4169e1;stroke-linecap:square;stroke-width:0.4;"/>
   </g>
   <g id="line2d_17">
    <path clip-path="url(#p9aca4d8f7d)" d="M 24.017215 28.55769 
L 24.030619 28.284548 
L 24.044023 28.011407 
L 24.057427 27.738266 
L 24.070831 27.465125 
L 24.084235 27.191984 
L 24.097639 26.918842 
L 24.111042 26.645701 
L 24.124446 26.37256 
L 24.346055 26.050176 
L 24.567664 25.727793 
L 24.789272 25.405409 
L 25.010881 25.083025 
L 25.232489 24.760641 
L 25.454098 24.438257 
L 25.675706 24.115874 
L 25.897315 23.79349 
" style="fill:none;stroke:#008000;stroke-linecap:square;stroke-width:0.4;"/>
   </g>
   <g id="line2d_18">
    <path clip-path="url(#p9aca4d8f7d)" d="M 27.991285 33.189802 
L 28.030089 33.39246 
" style="fill:none;stroke:#008000;stroke-linecap:square;stroke-width:0.4;"/>
   </g>
   <g id="line2d_19">
    <path clip-path="url(#p9aca4d8f7d)" d="M 19.074807 54.44798 
L 18.989181 54.781332 
L 18.903556 55.114684 
L 18.81793 55.448037 
L 18.732304 55.781389 
L 18.646679 56.114742 
L 18.561053 56.448094 
L 18.475427 56.781446 
L 18.389802 57.114799 
L 18.304176 57.448151 
L 18.21855 57.781503 
L 18.132924 58.114856 
L 18.047299 58.448208 
L 17.961673 58.781561 
L 17.876047 59.114913 
L 17.790422 59.448265 
L 17.704796 59.781618 
L 17.608617 59.982563 
L 17.512439 60.183509 
L 17.41626 60.384455 
L 17.320082 60.585401 
L 17.223903 60.786347 
L 17.127725 60.987292 
L 17.031546 61.188238 
L 16.935368 61.389184 
L 16.839189 61.59013 
L 16.743011 61.791076 
L 16.646832 61.992021 
L 16.550654 62.192967 
L 16.454476 62.393913 
L 16.358297 62.594859 
L 16.262119 62.795804 
L 16.16594 62.99675 
L 16.104253 63.245256 
L 16.042565 63.493761 
L 15.980877 63.742266 
L 15.91919 63.990772 
L 15.923855 64.262143 
L 15.928521 64.533514 
L 15.933186 64.804885 
L 15.937852 65.076256 
L 15.951996 65.35465 
L 15.966141 65.633043 
L 15.980285 65.911436 
L 15.994429 66.18983 
L 15.947257 66.41396 
L 15.900084 66.638091 
L 15.852911 66.862222 
L 15.805738 67.086352 
L 15.739755 67.362424 
L 15.673773 67.638496 
L 15.60779 67.914568 
L 15.541807 68.19064 
L 15.315348 68.424231 
L 15.088889 68.657821 
L 14.86243 68.891411 
L 14.635971 69.125002 
L 14.332865 69.329082 
L 14.029759 69.533161 
L 13.726654 69.737241 
L 13.423548 69.941321 
L 13.120442 70.1454 
L 12.817336 70.34948 
L 12.514231 70.55356 
L 12.211125 70.757639 
L 12.020064 70.857314 
L 11.829003 70.956989 
L 11.637942 71.056664 
L 11.446881 71.156339 
L 11.25582 71.256014 
L 11.064759 71.355689 
L 10.873698 71.455364 
L 10.682637 71.555039 
L 10.491576 71.654713 
L 10.300515 71.754388 
L 10.109454 71.854063 
L 9.918393 71.953738 
L 9.727332 72.053413 
L 9.536271 72.153088 
L 9.34521 72.252763 
L 9.154148 72.352438 
L 8.990228 72.529415 
L 8.826308 72.706393 
L 8.662389 72.88337 
L 8.498469 73.060347 
L 8.334549 73.237325 
L 8.170629 73.414302 
L 8.006709 73.591279 
L 7.842789 73.768257 
L 7.705973 74.070241 
L 7.569157 74.372226 
L 7.432341 74.67421 
L 7.295525 74.976195 
L 7.158709 75.278179 
L 7.021893 75.580164 
L 6.885077 75.882148 
L 6.748261 76.184133 
L 6.522986 76.501468 
L 6.297712 76.818802 
L 6.072438 77.136137 
L 5.847164 77.453472 
L 5.621889 77.770807 
L 5.396615 78.088141 
L 5.171341 78.405476 
L 4.946066 78.722811 
L 4.673841 78.686829 
L 4.401617 78.650848 
L 4.187302 78.563331 
L 3.972988 78.475814 
L 3.879383 78.110659 
" style="fill:none;stroke:#000000;stroke-linecap:square;stroke-width:0.4;"/>
   </g>
   <g id="line2d_20">
    <path clip-path="url(#p9aca4d8f7d)" d="M 39.687774 25.80614 
L 39.775751 25.581312 
L 39.863728 25.356485 
L 39.951705 25.131658 
L 40.039682 24.906831 
L 40.127659 24.682004 
L 40.215636 24.457177 
L 40.303613 24.23235 
L 40.39159 24.007523 
L 40.634785 23.762267 
L 40.877981 23.517012 
L 41.15376 23.243783 
L 41.42954 22.970555 
L 41.589572 22.838468 
L 41.749604 22.70638 
L 41.909636 22.574293 
L 42.069668 22.442206 
L 42.2297 22.310118 
L 42.389732 22.178031 
L 42.549765 22.045943 
L 42.709797 21.913856 
L 43.074664 21.779505 
L 43.439531 21.645155 
L 43.804399 21.510804 
L 44.169266 21.376453 
L 44.449118 21.327239 
L 44.728971 21.278026 
L 45.008824 21.228812 
L 45.288676 21.179599 
L 45.684869 21.204205 
L 46.081061 21.228812 
L 46.477253 21.253419 
L 46.873446 21.278026 
L 47.079392 21.246687 
L 47.285338 21.215348 
L 47.491284 21.184009 
L 47.69723 21.152671 
L 47.903176 21.121332 
L 48.109122 21.089993 
L 48.315068 21.058654 
L 48.521014 21.027315 
L 48.879216 21.025052 
L 49.237419 21.022788 
L 49.595621 21.020525 
L 49.953824 21.018262 
L 50.205313 20.977405 
L 50.456803 20.936549 
" style="fill:none;stroke:#008000;stroke-linecap:square;stroke-width:0.4;"/>
   </g>
   <g id="line2d_21">
    <path clip-path="url(#p9aca4d8f7d)" d="M 36.667232 9.108111 
L 36.498388 9.253314 
L 36.329543 9.398517 
L 36.160699 9.543721 
L 35.991854 9.688924 
L 35.748881 9.910501 
L 35.505907 10.132078 
L 35.262934 10.353655 
L 35.019961 10.575233 
L 34.658574 10.710686 
L 34.297187 10.846139 
L 34.046882 10.83105 
L 33.796578 10.815961 
L 33.546273 10.800872 
L 33.295968 10.785783 
L 32.950503 10.704302 
L 32.605038 10.622821 
L 32.259573 10.54134 
L 31.914108 10.459859 
L 31.67343 10.468332 
L 31.432753 10.476805 
L 31.181041 10.575581 
L 30.929329 10.674356 
L 30.677617 10.773132 
L 30.425906 10.871907 
L 30.092512 10.930058 
L 29.759117 10.988209 
L 29.476525 10.911138 
L 29.193932 10.834068 
L 28.85491 10.631526 
L 28.515888 10.428985 
L 28.143837 10.381628 
L 27.771787 10.334272 
L 27.565322 10.348258 
L 27.358858 10.362245 
L 27.152393 10.376231 
L 26.945929 10.390217 
L 26.752943 10.333111 
L 26.559956 10.276005 
L 26.36697 10.218898 
L 26.173983 10.161792 
L 25.971296 10.030691 
L 25.768608 9.89959 
L 25.56592 9.76849 
L 25.363233 9.637389 
L 25.196536 9.327599 
L 25.029839 9.017808 
L 24.863142 8.708018 
L 24.696445 8.398228 
L 24.553445 8.220757 
L 24.410445 8.043287 
L 24.267446 7.865816 
L 24.124446 7.688345 
" style="fill:none;stroke:#008000;stroke-linecap:square;stroke-width:0.4;"/>
   </g>
   <g id="line2d_22">
    <path clip-path="url(#p9aca4d8f7d)" d="M 67.741457 24.213198 
L 67.683991 24.035611 
L 67.757749 23.781419 
L 67.91667 23.45828 
L 68.075592 23.135142 
L 68.217629 22.924708 
L 68.359665 22.714273 
L 68.476968 22.453929 
L 68.594271 22.193584 
L 68.627521 21.984136 
L 68.660772 21.774688 
L 68.694022 21.56524 
L 68.727273 21.355793 
L 68.724014 21.126091 
L 68.720756 20.896388 
L 68.717498 20.666686 
L 68.714239 20.436984 
L 68.683951 20.175972 
L 68.653662 19.914961 
L 68.623374 19.653949 
L 68.593086 19.392937 
L 68.562797 19.131925 
L 68.532509 18.870913 
L 68.502221 18.609901 
L 68.471932 18.348889 
L 68.453048 18.044728 
L 68.434164 17.740568 
L 68.41528 17.436407 
L 68.396397 17.132246 
L 68.372033 16.81021 
L 68.347669 16.488175 
L 68.323305 16.166139 
L 68.298941 15.844104 
L 68.235328 15.451846 
L 68.171715 15.059588 
L 68.108102 14.66733 
L 68.044489 14.275073 
L 67.977617 14.080511 
L 67.910746 13.885949 
L 67.843875 13.691387 
L 67.777003 13.496825 
L 67.710132 13.302263 
L 67.643261 13.107701 
L 67.576389 12.913139 
L 67.509518 12.718577 
L 67.40947 12.515107 
L 67.309422 12.311636 
L 67.209374 12.108166 
L 67.109326 11.904696 
L 66.969511 11.700413 
L 66.829696 11.49613 
L 66.689881 11.291847 
L 66.550066 11.087565 
L 66.416027 10.936268 
L 66.281988 10.784971 
L 66.147949 10.633674 
L 66.01391 10.482377 
L 65.803595 10.343557 
L 65.593279 10.204738 
L 65.382964 10.065918 
L 65.172649 9.927099 
L 64.962852 9.821969 
L 64.753055 9.716839 
L 64.543258 9.611708 
L 64.333462 9.506578 
L 64.123665 9.401448 
L 63.913868 9.296318 
L 63.704071 9.191188 
L 63.494274 9.086057 
L 63.284477 8.980927 
L 63.07468 8.875797 
L 62.864884 8.770667 
L 62.655087 8.665537 
L 62.44529 8.560407 
L 62.235493 8.455276 
L 62.025696 8.350146 
L 61.815899 8.245016 
L 61.5299 8.121518 
L 61.243901 7.998019 
L 60.883255 7.914914 
L 60.522609 7.831808 
L 60.292595 7.83587 
L 60.062581 7.839932 
L 59.832567 7.843995 
L 59.602554 7.848057 
L 59.224356 7.784335 
L 58.846159 7.720613 
L 58.467962 7.65689 
L 58.089765 7.593168 
L 57.870563 7.461197 
L 57.651361 7.329225 
L 57.43216 7.197254 
L 57.212958 7.065283 
" style="fill:none;stroke:#4169e1;stroke-linecap:square;stroke-width:0.4;"/>
   </g>
   <g id="line2d_23">
    <path clip-path="url(#p9aca4d8f7d)" d="M 58.795654 23.856168 
L 59.003229 23.621707 
L 59.210804 23.387246 
L 59.41838 23.152785 
L 59.625955 22.918324 
L 59.805574 22.738706 
L 59.985194 22.559088 
L 60.164814 22.37947 
L 60.344433 22.199852 
L 60.524053 22.020234 
L 60.703672 21.840616 
L 60.883292 21.660998 
L 61.062911 21.48138 
L 61.151666 21.295843 
L 61.240421 21.110305 
L 61.329175 20.924768 
L 61.41793 20.73923 
L 61.506684 20.553692 
L 61.595439 20.368155 
L 61.684193 20.182617 
L 61.772948 19.99708 
L 61.796608 19.798107 
L 61.820269 19.599135 
L 61.843929 19.400162 
L 61.867589 19.20119 
L 61.89125 19.002217 
L 61.91491 18.803244 
L 61.938571 18.604272 
L 61.962231 18.405299 
L 61.827304 18.049777 
L 61.692376 17.694256 
L 61.61373 17.479382 
L 61.535084 17.264507 
L 61.456438 17.049633 
L 61.377792 16.834759 
L 61.299146 16.619885 
L 61.2205 16.405011 
L 61.141854 16.190137 
L 61.063208 15.975262 
L 61.014072 15.759895 
L 60.964937 15.544528 
L 60.915802 15.32916 
L 60.866667 15.113793 
L 60.817531 14.898425 
L 60.768396 14.683058 
L 60.719261 14.46769 
L 60.670126 14.252323 
L 60.620953 14.044471 
L 60.571781 13.836619 
L 60.522609 13.628767 
L 60.473436 13.420915 
L 60.424264 13.213063 
L 60.375092 13.005211 
L 60.32592 12.797359 
L 60.276747 12.589507 
" style="fill:none;stroke:#4169e1;stroke-linecap:square;stroke-width:0.4;"/>
   </g>
   <g id="line2d_24">
    <path clip-path="url(#p9aca4d8f7d)" d="M 25.971962 22.97543 
L 25.949551 22.732728 
L 25.92714 22.490026 
L 25.90473 22.247324 
L 25.882319 22.004623 
L 25.859908 21.761921 
L 25.837497 21.519219 
L 25.815087 21.276517 
L 25.792676 21.033815 
L 25.770265 20.791113 
L 25.747854 20.548411 
L 25.725443 20.305709 
L 25.703033 20.063008 
L 25.680622 19.820306 
L 25.658211 19.577604 
L 25.6358 19.334902 
L 25.613389 19.0922 
L 25.590979 18.849498 
L 25.568568 18.606796 
L 25.546157 18.364094 
L 25.523746 18.121392 
L 25.501335 17.878691 
L 25.478925 17.635989 
L 25.456514 17.393287 
L 25.434103 17.150585 
L 25.411692 16.907883 
L 25.389281 16.665181 
L 25.366871 16.422479 
L 25.34446 16.179777 
L 25.322049 15.937076 
L 25.299638 15.694374 
L 25.277228 15.451672 
L 25.254817 15.20897 
L 25.155435 14.954835 
L 25.056054 14.7007 
L 24.956673 14.446566 
L 24.857291 14.192431 
L 24.554112 14.016005 
L 24.250932 13.839579 
" style="fill:none;stroke:#008000;stroke-linecap:square;stroke-width:0.4;"/>
   </g>
   <g id="line2d_25">
    <path clip-path="url(#p9aca4d8f7d)" d="M 67.741457 24.213198 
L 67.555284 23.969452 
L 67.36911 23.725705 
L 67.255149 23.535235 
L 67.141189 23.344764 
L 67.027228 23.154294 
L 66.913267 22.963823 
L 66.799306 22.773353 
L 66.685345 22.582882 
L 66.571384 22.392412 
L 66.457423 22.201941 
L 66.343462 22.011471 
L 66.229502 21.821 
L 66.115541 21.63053 
L 66.00158 21.440059 
L 65.887619 21.249589 
L 65.773658 21.059118 
L 65.659697 20.868648 
L 65.545736 20.678177 
L 65.431775 20.487707 
L 65.317815 20.297236 
L 65.203854 20.106766 
L 65.089893 19.916295 
L 64.975932 19.725825 
L 64.861971 19.535354 
L 64.74801 19.344884 
L 64.634049 19.154413 
L 64.520089 18.963943 
L 64.406128 18.773472 
L 64.292167 18.583002 
L 64.178206 18.392531 
L 64.064245 18.202061 
L 63.950284 18.01159 
L 63.836323 17.82112 
L 63.722362 17.630649 
L 63.582862 17.391183 
L 63.443362 17.151717 
L 63.303861 16.91225 
L 63.164361 16.672784 
L 63.02486 16.433317 
L 62.88536 16.193851 
L 62.745859 15.954384 
L 62.606359 15.714918 
L 62.466858 15.475452 
L 62.327358 15.235985 
L 62.187857 14.996519 
L 62.048357 14.757052 
L 61.908856 14.517586 
L 61.769356 14.278119 
L 61.629855 14.038653 
L 61.490355 13.799186 
L 61.338654 13.647977 
L 61.186953 13.496767 
L 61.035252 13.345557 
L 60.883551 13.194347 
L 60.73185 13.043137 
L 60.580149 12.891927 
L 60.428448 12.740717 
L 60.276747 12.589507 
" style="fill:none;stroke:#4169e1;stroke-linecap:square;stroke-width:0.4;"/>
   </g>
   <g id="line2d_26">
    <path clip-path="url(#p9aca4d8f7d)" d="M 68.714239 20.436984 
L 68.479782 20.35945 
L 68.245325 20.281915 
L 67.928075 20.05999 
L 67.780114 19.868126 
L 67.632152 19.676263 
L 67.489893 19.434838 
L 67.347634 19.193413 
L 67.205375 18.951988 
L 67.063116 18.710563 
L 66.926189 18.452075 
L 66.789262 18.193588 
L 66.652335 17.9351 
L 66.515408 17.676613 
L 66.392329 17.361194 
L 66.26925 17.045774 
L 66.146172 16.730354 
L 66.023093 16.414935 
L 65.931931 16.153662 
L 65.84077 15.892389 
L 65.749609 15.631116 
L 65.658448 15.369843 
L 65.534998 15.103288 
L 65.411549 14.836734 
L 65.2881 14.57018 
L 65.164651 14.303626 
L 65.032538 14.109499 
L 64.900424 13.915372 
L 64.768311 13.721246 
L 64.636197 13.527119 
L 64.458021 13.37646 
L 64.279846 13.225802 
L 64.10167 13.075143 
L 63.923495 12.924485 
L 63.623425 12.728327 
L 63.323356 12.532169 
L 63.136442 12.409019 
L 62.949528 12.285869 
L 62.762614 12.110023 
L 62.5757 11.934177 
L 62.417408 11.653956 
L 62.259116 11.373735 
L 62.100825 11.093513 
L 61.942533 10.813292 
L 61.784241 10.53307 
L 61.625949 10.252849 
L 61.467657 9.972627 
L 61.309365 9.692406 
L 61.096014 9.461862 
L 60.882662 9.231319 
L 60.669311 9.000775 
L 60.455959 8.770232 
L 60.242608 8.539688 
L 60.029257 8.309144 
L 59.815905 8.078601 
L 59.602554 7.848057 
" style="fill:none;stroke:#4169e1;stroke-linecap:square;stroke-width:0.4;"/>
   </g>
   <g id="line2d_27">
    <path clip-path="url(#p9aca4d8f7d)" d="M 68.433424 23.931845 
L 68.534879 24.114771 
L 68.636334 24.297697 
L 68.603157 24.393571 
L 68.469563 24.485034 
L 68.263691 24.543765 
L 68.039157 24.469016 
L 67.741457 24.213198 
" style="fill:none;stroke:#008000;stroke-linecap:square;stroke-width:0.4;"/>
   </g>
   <g id="line2d_28">
    <path clip-path="url(#p9aca4d8f7d)" d="M 14.796521 25.613696 
L 14.63286 25.468957 
L 14.4692 25.324218 
L 14.305539 25.179479 
L 14.141878 25.03474 
L 13.978217 24.890001 
L 13.814556 24.745262 
L 13.650896 24.600523 
L 13.487235 24.455784 
L 13.423696 24.225908 
L 13.360157 23.996032 
L 13.296618 23.766155 
L 13.233079 23.536279 
L 13.303135 23.296653 
L 13.373191 23.057027 
L 13.443246 22.817401 
L 13.513302 22.577775 
L 13.735022 22.290851 
L 13.956741 22.003926 
L 14.031685 21.671328 
L 14.106628 21.33873 
L 14.181571 21.006132 
L 14.256515 20.673535 
L 14.312759 20.480365 
L 14.369004 20.287196 
L 14.425248 20.094027 
L 14.481493 19.900858 
L 14.537737 19.707689 
L 14.593982 19.51452 
L 14.650226 19.321351 
L 14.706471 19.128182 
L 14.90042 18.992844 
L 15.094369 18.857507 
L 15.288318 18.72217 
L 15.482267 18.586832 
L 15.715317 18.360264 
L 15.948367 18.133696 
L 16.181417 17.907128 
L 16.414467 17.680559 
L 16.590495 17.426251 
L 16.766523 17.171942 
L 16.942551 16.917633 
L 17.118579 16.663324 
L 17.228587 16.464438 
L 17.338596 16.265553 
L 17.448604 16.066667 
L 17.558612 15.867782 
L 17.66862 15.668896 
L 17.778628 15.470011 
L 17.888637 15.271125 
L 17.998645 15.07224 
L 18.098063 14.893724 
L 18.197482 14.715209 
L 18.2969 14.536694 
L 18.396318 14.358178 
L 18.495737 14.179663 
L 18.595155 14.001148 
L 18.694573 13.822633 
L 18.793992 13.644117 
L 18.979795 13.313144 
L 19.165598 12.982171 
L 19.351401 12.651198 
L 19.537204 12.320225 
L 19.736041 12.140898 
L 19.934878 11.96157 
L 20.133715 11.782242 
L 20.332552 11.602914 
L 20.572118 11.448077 
L 20.811685 11.29324 
L 21.051252 11.138403 
L 21.290819 10.983566 
L 21.382128 10.75694 
L 21.473438 10.530314 
L 21.564747 10.303687 
L 21.656056 10.077061 
L 21.854893 9.832502 
L 22.05373 9.587943 
L 22.252567 9.343384 
L 22.451403 9.098825 
L 22.602993 8.888565 
L 22.754583 8.678304 
L 22.906173 8.468044 
L 23.057763 8.257784 
L 23.324434 8.115424 
L 23.591105 7.973064 
L 23.857776 7.830705 
L 24.124446 7.688345 
" style="fill:none;stroke:#4169e1;stroke-linecap:square;stroke-width:0.4;"/>
   </g>
   <g id="line2d_29">
    <path clip-path="url(#p9aca4d8f7d)" d="M 25.231415 35.519554 
L 21.534755 37.236342 
L 20.200142 38.254854 
L 19.658358 39.291822 
L 19.191814 39.763993 
L 18.884339 40.464823 
L 17.833355 41.058404 
L 17.286239 42.492562 
L 17.052078 43.261408 
L 16.660625 44.184162 
L 15.652297 45.106685 
L 15.523738 45.836299 
L 16.267247 47.676295 
L 16.3179 48.462726 
L 15.462384 50.351297 
L 15.501522 51.825964 
L 14.767714 53.114454 
L 13.891573 54.361624 
L 13.487235 55.20429 
L 11.210646 57.466548 
L 8.949165 61.101331 
L 7.987751 62.423482 
L 6.410423 67.043175 
L 5.938658 69.707063 
L 5.406983 73.106891 
L 4.656291 74.794081 
L 3.299461 77.013393 
L 3.379662 77.767092 
L 3.879383 78.110659 
L 3.879383 78.110659 
" style="fill:none;stroke:#000000;stroke-linecap:square;stroke-width:0.4;"/>
   </g>
   <g id="line2d_30">
    <path clip-path="url(#p9aca4d8f7d)" d="M 33.688458 30.61491 
L 33.446299 30.799113 
L 33.20414 30.983316 
L 32.961982 31.167518 
L 32.719823 31.351721 
L 32.442858 31.566566 
L 32.165894 31.781411 
L 31.948469 31.777407 
L 31.731045 31.773402 
L 31.513621 31.769398 
L 31.296196 31.765394 
L 30.965949 31.74691 
L 30.635702 31.728425 
L 30.305456 31.709941 
L 29.975209 31.691457 
L 29.644962 31.672973 
L 29.314715 31.654489 
L 28.984469 31.636005 
L 28.654222 31.617521 
L 28.36452 31.517411 
L 28.074818 31.4173 
L 27.785116 31.31719 
L 27.495415 31.21708 
L 27.298263 31.149803 
L 27.101111 31.082526 
L 26.903959 31.015249 
L 26.706806 30.947972 
L 26.509654 30.880695 
L 26.312502 30.813418 
L 26.11535 30.746141 
L 25.918198 30.678865 
L 25.721046 30.611588 
L 25.523894 30.544311 
L 25.326742 30.477034 
L 25.12959 30.409757 
L 24.932438 30.34248 
L 24.735286 30.275203 
L 24.538134 30.207926 
L 24.340982 30.140649 
L 23.973449 30.023593 
L 23.605916 29.906536 
L 23.238382 29.78948 
L 22.870849 29.672424 
L 22.558635 29.446436 
L 22.24642 29.220448 
L 22.117047 28.988366 
L 21.987673 28.756285 
L 21.8583 28.524203 
L 21.728926 28.292122 
L 21.621547 28.04617 
L 21.514168 27.800218 
L 21.416712 27.577364 
L 21.244238 27.384282 
L 21.071765 27.1912 
L 20.899292 26.998118 
L 20.726819 26.805036 
L 20.583078 26.468202 
L 20.439338 26.131367 
L 20.295598 25.794533 
L 20.151858 25.457698 
L 19.975312 25.153711 
L 19.798766 24.849725 
L 19.537945 24.627857 
L 19.277124 24.40599 
L 19.016304 24.184123 
L 18.755483 23.962255 
" style="fill:none;stroke:#008000;stroke-linecap:square;stroke-width:0.4;"/>
   </g>
   <g id="line2d_31">
    <path clip-path="url(#p9aca4d8f7d)" d="M 50.456803 20.936549 
L 50.67008 20.90196 
L 51.010361 20.792216 
L 51.350643 20.682472 
L 51.690924 20.572728 
L 52.031205 20.462984 
L 52.351306 20.334263 
L 52.671408 20.205541 
L 52.991509 20.07682 
L 53.31161 19.948098 
L 53.631711 19.819377 
L 53.951813 19.690656 
L 54.271914 19.561934 
L 54.592015 19.433213 
L 54.878607 19.274255 
L 55.165198 19.115298 
L 55.45179 18.95634 
L 55.738381 18.797383 
L 56.013717 18.729105 
L 56.289052 18.660827 
L 56.564387 18.592549 
L 56.839722 18.524271 
L 57.115057 18.455993 
L 57.390393 18.387715 
L 57.665728 18.319437 
L 57.941063 18.251158 
L 58.227581 18.038461 
L 58.514098 17.825763 
L 58.800616 17.613065 
L 59.087133 17.400367 
L 59.152079 17.198899 
L 59.217025 16.997431 
L 59.281971 16.795963 
L 59.346917 16.594495 
L 59.411863 16.393027 
L 59.476809 16.191558 
L 59.541755 15.99009 
L 59.606701 15.788622 
L 59.678311 15.401297 
L 59.749922 15.013973 
L 59.821533 14.626648 
L 59.893144 14.239323 
L 59.941094 14.033096 
L 59.989045 13.826869 
L 60.036995 13.620642 
L 60.084946 13.414415 
L 60.132896 13.208188 
L 60.180846 13.001961 
L 60.228797 12.795734 
L 60.276747 12.589507 
L 60.216837 12.338565 
L 60.156927 12.087622 
L 60.097017 11.836679 
L 60.037106 11.585736 
L 59.860597 11.303208 
L 59.684088 11.020679 
L 59.507578 10.738151 
L 59.331069 10.455623 
L 59.15456 10.173094 
L 58.978051 9.890566 
L 58.801541 9.608038 
L 58.625032 9.325509 
L 58.448523 9.042981 
L 58.272013 8.760453 
L 58.095504 8.477924 
L 57.918995 8.195396 
L 57.742486 7.912868 
L 57.565976 7.630339 
L 57.389467 7.347811 
L 57.212958 7.065283 
L 57.101876 6.859665 
L 56.990794 6.654048 
L 56.879712 6.44843 
L 56.76863 6.242812 
L 56.657548 6.037195 
L 56.546466 5.831577 
L 56.435384 5.62596 
L 56.324302 5.420342 
L 56.317489 5.087338 
L 56.310676 4.754334 
" style="fill:none;stroke:#008000;stroke-linecap:square;stroke-width:0.4;"/>
   </g>
   <g id="line2d_32">
    <path clip-path="url(#p9aca4d8f7d)" d="M 12.731581 28.642188 
L 12.480684 28.854364 
L 12.22949 28.911934 
L 11.878471 28.876185 
L 11.498719 28.781936 
L 11.149773 28.612939 
L 10.87666 28.408424 
L 10.640574 28.116392 
L 10.517199 27.925341 
L 10.393824 27.734291 
L 10.270448 27.54324 
L 10.147073 27.352189 
L 10.063244 27.158004 
L 9.979414 26.963819 
L 9.895584 26.769635 
L 9.811754 26.57545 
L 9.737181 26.350101 
L 9.662608 26.124751 
L 9.588035 25.899402 
L 9.513462 25.674052 
L 9.469325 25.473948 
L 9.425189 25.273844 
L 9.38668 24.960223 
L 9.405342 24.714155 
L 9.535382 24.531926 
L 9.80109 24.40657 
L 10.10738 24.418177 
L 10.431739 24.518694 
L 10.73092 24.737021 
L 11.030101 24.955348 
L 11.283516 25.164158 
L 11.536931 25.372967 
L 11.758503 25.480448 
L 12.048871 25.58671 
L 12.339239 25.692972 
L 12.629608 25.799233 
L 12.919976 25.905495 
L 13.158136 25.907469 
L 13.396296 25.909442 
L 13.634604 25.883442 
L 13.872912 25.857442 
L 14.103814 25.796506 
L 14.334716 25.735569 
L 14.565619 25.674633 
L 14.796521 25.613696 
" style="fill:none;stroke:#008000;stroke-linecap:square;stroke-width:0.4;"/>
   </g>
   <g id="line2d_33">
    <path clip-path="url(#p9aca4d8f7d)" d="M 39.948743 28.2963 
L 39.749239 28.324157 
L 39.549736 28.352014 
L 39.41703 28.414459 
L 39.164948 28.450731 
L 38.912866 28.487003 
L 38.660784 28.523275 
L 38.408702 28.559547 
L 38.207273 28.573533 
L 38.005845 28.587519 
L 37.804416 28.601506 
L 37.602987 28.615492 
L 37.303732 28.725178 
L 37.004477 28.834864 
L 36.705223 28.94455 
L 36.405968 29.054236 
L 36.202465 29.082209 
L 35.998963 29.110182 
L 35.889362 29.166592 
L 35.537751 29.312085 
L 35.186139 29.457578 
L 34.834528 29.603072 
L 34.482916 29.748565 
L 34.285412 29.806426 
L 34.087909 29.864287 
L 33.890405 29.922148 
L 33.692901 29.980008 
L 33.509394 30.067873 
L 33.325886 30.155738 
L 33.042701 30.251496 
L 32.759516 30.347253 
L 32.420346 30.502787 
L 32.081175 30.65832 
" style="fill:none;stroke:#008000;stroke-linecap:square;stroke-width:0.4;"/>
   </g>
   <g id="line2d_34">
    <path clip-path="url(#p9aca4d8f7d)" d="M 35.71015 23.202463 
L 35.734773 22.951723 
L 35.759396 22.700983 
L 35.78402 22.450243 
L 35.808643 22.199504 
L 35.833266 21.948764 
L 35.857889 21.698024 
L 35.882512 21.447285 
L 35.907135 21.196545 
L 35.963121 20.854023 
L 36.019106 20.511501 
L 36.075091 20.168979 
L 36.131077 19.826457 
L 36.187062 19.483935 
L 36.243047 19.141414 
L 36.299033 18.798892 
L 36.355018 18.45637 
" style="fill:none;stroke:#008000;stroke-linecap:square;stroke-width:0.4;"/>
   </g>
   <g id="line2d_35">
    <path clip-path="url(#p9aca4d8f7d)" d="M 41.42954 22.970555 
L 41.343007 22.764996 
L 41.256474 22.559436 
L 41.169941 22.353877 
L 41.083408 22.148317 
L 40.996875 21.942757 
L 40.910342 21.737198 
L 40.82381 21.531638 
L 40.737277 21.326079 
L 40.609606 21.078676 
L 40.481936 20.831273 
L 40.354266 20.583871 
L 40.226596 20.336468 
L 40.173721 20.04818 
L 40.120846 19.759891 
L 40.067971 19.471603 
L 40.015096 19.183315 
L 39.962221 18.895026 
L 39.909346 18.606738 
L 39.856471 18.31845 
L 39.803596 18.030162 
L 39.733836 17.826633 
L 39.664077 17.623105 
L 39.594317 17.419577 
L 39.524558 17.216048 
L 39.372931 16.92776 
L 39.221304 16.639472 
L 39.069677 16.351183 
L 38.91805 16.062895 
L 38.766423 15.774607 
L 38.614796 15.486319 
L 38.463169 15.19803 
L 38.311542 14.909742 
L 38.157953 14.668317 
L 38.004363 14.426892 
L 37.850774 14.185467 
L 37.697185 13.944042 
L 37.579512 13.59293 
L 37.461839 13.241819 
L 37.344166 12.890708 
L 37.226493 12.539597 
L 37.093639 12.330788 
L 36.960785 12.121978 
L 36.827931 11.913169 
L 36.695077 11.704359 
" style="fill:none;stroke:#ff0000;stroke-dasharray:1.48,0.64;stroke-dashoffset:0;stroke-width:0.4;"/>
   </g>
   <g id="line2d_36">
    <path clip-path="url(#p9aca4d8f7d)" d="M 40.39159 24.007523 
L 40.233853 23.884372 
L 40.076117 23.761222 
L 39.852768 23.449923 
L 39.80093 23.154642 
L 39.749091 22.85936 
L 39.745092 22.643819 
L 39.741093 22.428277 
L 39.621421 22.132996 
L 39.501749 21.837714 
L 39.358083 21.570406 
L 39.214417 21.303097 
L 39.056828 21.097595 
L 38.89924 20.892094 
L 38.741652 20.686592 
L 38.584063 20.481091 
L 38.464391 20.253652 
L 38.344719 20.026213 
L 38.225046 19.798775 
L 38.105374 19.571336 
L 37.9937 19.188306 
L 37.985702 18.861105 
L 37.977704 18.533904 
L 37.969706 18.206704 
L 37.961708 17.879503 
L 37.923792 17.578244 
L 37.885876 17.276985 
L 37.84796 16.975726 
L 37.810044 16.674467 
L 37.678375 16.443024 
L 37.546706 16.211581 
L 37.415036 15.980137 
L 37.283367 15.748694 
L 37.083864 15.52526 
L 36.884361 15.301826 
L 36.623392 15.107293 
" style="fill:none;stroke:#4169e1;stroke-linecap:square;stroke-width:0.4;"/>
   </g>
   <g id="line2d_37">
    <path clip-path="url(#p9aca4d8f7d)" d="M 50.456803 20.936549 
L 50.252708 20.846536 
L 50.048614 20.756524 
L 49.844519 20.666512 
L 49.640424 20.5765 
L 49.43633 20.486488 
L 49.232235 20.396476 
L 49.02814 20.306464 
L 48.824046 20.216452 
L 48.508943 20.032539 
L 48.193841 19.848627 
L 47.878738 19.664714 
L 47.563635 19.480802 
L 47.395865 19.325906 
L 47.228094 19.171011 
L 47.060323 19.016116 
L 46.892552 18.861221 
L 46.724781 18.706326 
L 46.55701 18.551431 
L 46.38924 18.396536 
L 46.221469 18.241641 
L 46.012264 18.092143 
L 45.80306 17.942645 
L 45.593855 17.793147 
L 45.384651 17.643649 
L 45.175447 17.494151 
L 44.966242 17.344654 
L 44.757038 17.195156 
L 44.547833 17.045658 
L 44.336518 16.82086 
L 44.125203 16.596062 
L 43.913888 16.371263 
L 43.702573 16.146465 
L 43.491258 15.921667 
L 43.279943 15.696869 
L 43.068629 15.472071 
L 42.857314 15.247273 
L 42.743343 15.027901 
L 42.629373 14.808529 
L 42.515403 14.589157 
L 42.401433 14.369785 
L 42.212149 14.240716 
L 42.022866 14.111646 
L 41.833582 13.982577 
L 41.644298 13.853507 
L 41.455014 13.724438 
L 41.265731 13.595368 
L 41.076447 13.466298 
L 40.887163 13.337229 
L 40.752199 13.086083 
L 40.617234 12.834937 
L 40.482269 12.583791 
L 40.347305 12.332645 
L 40.21234 12.081499 
L 40.077376 11.830353 
L 39.942411 11.579207 
L 39.807446 11.328061 
L 39.713915 11.007534 
L 39.620384 10.687008 
L 39.526853 10.366481 
L 39.433322 10.045954 
L 39.192422 9.842658 
L 38.951523 9.639362 
L 38.710623 9.436066 
L 38.469723 9.23277 
L 38.149288 9.159646 
L 37.828854 9.086522 
L 37.508419 9.013398 
L 37.187985 8.940274 
L 36.927609 9.024192 
L 36.667232 9.108111 
" style="fill:none;stroke:#008000;stroke-linecap:square;stroke-width:0.4;"/>
   </g>
   <g id="line2d_38">
    <path clip-path="url(#p9aca4d8f7d)" d="M 23.739955 36.181848 
L 23.647534 36.470804 
L 23.555114 36.75976 
L 23.462694 37.048715 
L 23.370274 37.337671 
L 23.309549 37.580489 
L 23.248824 37.823307 
L 23.188099 38.066125 
L 23.127374 38.308943 
L 22.903285 38.545551 
L 22.679196 38.782159 
L 22.455106 39.018768 
L 22.231017 39.255376 
L 22.053582 39.490417 
L 21.876147 39.725458 
L 21.698712 39.9605 
L 21.521277 40.195541 
L 21.362578 40.469524 
L 21.203879 40.743506 
L 21.04518 41.017489 
L 20.88648 41.291472 
L 20.825756 41.602771 
L 20.765031 41.91407 
L 20.704306 42.225369 
L 20.643581 42.536668 
L 20.774325 42.768604 
L 20.905068 43.000541 
L 21.035812 43.232477 
L 21.166555 43.464414 
L 21.297299 43.69635 
L 21.428042 43.928287 
L 21.558786 44.160223 
L 21.689529 44.392159 
L 21.857559 44.624125 
L 22.025589 44.85609 
L 22.193619 45.088056 
L 22.361649 45.320021 
L 22.403712 45.576883 
L 22.445775 45.833746 
L 22.487838 46.090608 
L 22.529901 46.347471 
L 22.455976 46.568511 
L 22.382051 46.789551 
L 22.308126 47.010592 
L 22.234201 47.231632 
L 22.160276 47.452672 
L 22.086351 47.673713 
L 22.012426 47.894753 
L 21.938501 48.115794 
L 21.864576 48.336834 
L 21.790651 48.557874 
L 21.716726 48.778915 
L 21.642801 48.999955 
L 21.568876 49.220995 
L 21.494951 49.442036 
L 21.421025 49.663076 
L 21.3471 49.884116 
L 21.215579 50.24991 
L 21.084058 50.615704 
L 20.952537 50.981498 
L 20.821016 51.347292 
L 20.689495 51.713086 
L 20.557974 52.07888 
L 20.426453 52.444674 
L 20.294932 52.810467 
L 20.142416 53.015157 
L 19.989901 53.219846 
L 19.837385 53.424535 
L 19.684869 53.629224 
L 19.532354 53.833913 
L 19.379838 54.038602 
L 19.227323 54.243291 
L 19.074807 54.44798 
L 18.83935 54.417773 
L 18.603894 54.387565 
L 18.368437 54.357358 
L 18.13298 54.327151 
L 17.897523 54.296944 
L 17.662066 54.266737 
L 17.42661 54.23653 
L 17.191153 54.206322 
L 17.002536 54.104268 
L 16.813918 54.002214 
L 16.625301 53.900159 
L 16.436684 53.798105 
L 16.248067 53.696051 
L 16.059449 53.593996 
L 15.870832 53.491942 
L 15.682215 53.389888 
L 15.51537 53.240506 
L 15.348525 53.091124 
L 15.18168 52.941742 
L 15.014834 52.792361 
" style="fill:none;stroke:#4169e1;stroke-linecap:square;stroke-width:0.4;"/>
   </g>
   <g id="line2d_39">
    <path clip-path="url(#p9aca4d8f7d)" d="M 38.484534 30.058472 
L 38.334203 30.226773 
L 38.183872 30.395074 
L 37.870769 30.626517 
L 37.557666 30.85796 
L 37.255819 30.982039 
L 36.953972 31.106117 
L 36.733882 31.154054 
L 36.513791 31.201991 
L 36.218757 31.22329 
L 35.923724 31.244589 
L 35.62869 31.265887 
L 35.333656 31.287186 
L 35.120231 31.279177 
L 34.906805 31.271169 
L 34.69338 31.26316 
L 34.479954 31.255151 
L 34.180625 31.151385 
L 33.881296 31.047618 
L 33.73763 30.912049 
L 33.688458 30.61491 
" style="fill:none;stroke:#008000;stroke-linecap:square;stroke-width:0.4;"/>
   </g>
   <g id="line2d_40">
    <path clip-path="url(#p9aca4d8f7d)" d="M 34.482916 29.748565 
L 34.224391 29.498261 
L 33.965867 29.247956 
L 33.707342 28.997652 
L 33.448817 28.747348 
L 33.190292 28.497043 
L 32.931767 28.246739 
L 32.673242 27.996434 
L 32.414718 27.74613 
L 32.264211 27.467577 
L 32.113704 27.189024 
L 31.963197 26.910471 
L 31.81269 26.631918 
L 31.662183 26.353365 
L 31.511677 26.074812 
L 31.36117 25.796259 
L 31.210663 25.517706 
L 31.060156 25.239153 
L 30.909649 24.9606 
L 30.759142 24.682047 
L 30.608636 24.403495 
L 30.458129 24.124942 
L 30.307622 23.846389 
L 30.157115 23.567836 
L 30.006608 23.289283 
L 29.856101 23.01073 
L 29.705594 22.732177 
L 29.555088 22.453624 
L 29.404581 22.175071 
L 29.254074 21.896518 
L 29.103567 21.617965 
L 28.95306 21.339412 
L 28.802553 21.060859 
L 28.652047 20.782306 
L 28.50154 20.503753 
L 28.351033 20.225201 
L 28.200526 19.946648 
L 28.050019 19.668095 
L 27.899512 19.389542 
L 27.749006 19.110989 
L 27.598499 18.832436 
" style="fill:none;stroke:#4169e1;stroke-linecap:square;stroke-width:0.4;"/>
   </g>
   <g id="line2d_41">
    <path clip-path="url(#p9aca4d8f7d)" d="M 27.695066 16.044208 
L 27.847322 15.693329 
L 27.999579 15.34245 
L 28.117252 15.03916 
L 28.234924 14.735869 
L 28.352597 14.432579 
L 28.47027 14.129289 
L 28.587943 13.827391 
L 28.705616 13.525494 
L 28.823289 13.223596 
L 28.940962 12.921699 
L 28.896381 12.545865 
L 28.8518 12.170031 
L 28.937333 11.83604 
L 29.022866 11.50205 
L 29.108399 11.168059 
L 29.193932 10.834068 
L 29.247178 10.626245 
L 29.300423 10.418422 
L 29.353668 10.210599 
L 29.406913 10.002776 
L 29.438276 9.693828 
L 29.469638 9.384879 
L 29.501 9.07593 
L 29.532362 8.766982 
L 29.563724 8.458033 
L 29.595086 8.149084 
L 29.626449 7.840136 
L 29.657811 7.531187 
L 29.604047 7.141657 
L 29.550283 6.752127 
L 29.49652 6.362596 
L 29.442756 5.973066 
L 29.427945 5.59671 
L 29.413134 5.220354 
L 29.398323 4.843998 
L 29.383512 4.467641 
L 29.38055 4.223431 
L 29.377588 3.97922 
L 29.443052 3.885668 
L 29.716758 3.800937 
L 29.843244 3.908185 
" style="fill:none;stroke:#008000;stroke-linecap:square;stroke-width:0.4;"/>
   </g>
   <g id="line2d_42">
    <path clip-path="url(#p9aca4d8f7d)" d="M 67.741457 24.213198 
L 67.583276 24.182324 
L 67.378589 24.196484 
L 67.12236 24.232698 
L 66.777858 24.323232 
L 66.573023 24.377147 
L 66.368187 24.431061 
L 66.163352 24.484976 
L 65.958517 24.53889 
L 65.741352 24.635808 
L 65.524186 24.732726 
L 65.307021 24.829645 
L 65.089856 24.926563 
L 64.872691 25.023481 
L 64.655525 25.120399 
L 64.43836 25.217318 
L 64.221195 25.314236 
L 63.899797 25.448064 
L 63.5784 25.581893 
L 63.257003 25.715721 
L 62.935606 25.84955 
L 62.61954 25.774801 
L 62.303475 25.700052 
L 62.098418 25.639347 
L 61.89336 25.578643 
L 61.688303 25.517938 
L 61.483246 25.457234 
L 61.278188 25.396529 
L 61.073131 25.335825 
L 60.868074 25.27512 
L 60.663016 25.214416 
L 60.34858 25.047856 
L 60.034144 24.881296 
L 59.838788 24.701504 
L 59.643432 24.521712 
L 59.448076 24.34192 
L 59.252719 24.162127 
L 59.024187 24.009147 
L 58.795654 23.856168 
L 58.46848 23.637144 
L 58.141307 23.41812 
L 58.00201 23.262471 
L 57.862713 23.106821 
L 57.723417 22.951172 
L 57.58412 22.795522 
L 57.393059 22.72469 
L 57.201998 22.653859 
L 57.010937 22.583027 
L 56.819876 22.512196 
L 56.628815 22.441364 
L 56.437754 22.370533 
L 56.246693 22.299701 
L 56.055632 22.228869 
L 55.85872 22.191509 
L 55.661809 22.154149 
L 55.464897 22.11679 
L 55.267986 22.07943 
L 55.071075 22.04207 
L 54.874163 22.00471 
L 54.677252 21.96735 
L 54.480341 21.92999 
L 54.283429 21.89263 
L 54.086518 21.85527 
L 53.889607 21.81791 
L 53.692695 21.78055 
L 53.495784 21.74319 
L 53.298873 21.70583 
L 53.101961 21.66847 
L 52.90505 21.63111 
L 52.664595 21.568461 
L 52.424139 21.505813 
L 52.183684 21.443164 
L 51.943228 21.380515 
L 51.702773 21.317867 
L 51.462317 21.255218 
L 51.221862 21.192569 
L 50.981406 21.129921 
L 50.719104 21.033235 
L 50.456803 20.936549 
" style="fill:none;stroke:#008000;stroke-linecap:square;stroke-width:0.4;"/>
   </g>
   <g id="line2d_43">
    <path clip-path="url(#p9aca4d8f7d)" d="M 12.795564 28.497565 
L 12.731581 28.642188 
L 12.718251 28.748044 
L 12.743726 28.793775 
L 12.825482 28.810722 
L 12.944858 28.786579 
" style="fill:none;stroke:#008000;stroke-linecap:square;stroke-width:0.4;"/>
   </g>
   <g id="line2d_44">
    <path clip-path="url(#p9aca4d8f7d)" d="M 12.944858 28.786579 
L 13.171318 28.750452 
L 13.397777 28.714326 
L 13.624236 28.678199 
L 13.850695 28.642072 
L 14.077154 28.605946 
L 14.303613 28.569819 
L 14.530073 28.533692 
L 14.756532 28.497565 
L 14.976918 28.436745 
L 15.235665 28.307791 
L 15.494412 28.178838 
L 15.753159 28.049884 
L 16.011906 27.920931 
L 16.27406 27.808053 
L 16.536213 27.695175 
L 16.798367 27.582297 
L 17.06052 27.469419 
L 17.3637 27.409295 
L 17.66688 27.349171 
L 17.961617 27.342091 
L 18.256355 27.335011 
L 18.503549 27.269547 
L 18.750744 27.204084 
L 19.086656 27.196888 
L 19.469074 27.25028 
L 19.79136 27.39351 
L 20.113646 27.53674 
L 20.315556 27.631163 
L 20.517466 27.725585 
L 20.719376 27.820008 
L 20.921286 27.914431 
L 21.123196 28.008854 
L 21.325106 28.103276 
L 21.527016 28.197699 
L 21.728926 28.292122 
" style="fill:none;stroke:#008000;stroke-linecap:square;stroke-width:0.4;"/>
   </g>
   <g id="line2d_45">
    <path clip-path="url(#p9aca4d8f7d)" d="M 12.944858 28.786579 
L 13.084229 28.59135 
L 13.2236 28.39612 
L 13.306245 28.337389 
L 13.509784 28.257301 
L 13.713324 28.177213 
L 13.916863 28.097125 
L 14.120402 28.017037 
L 14.323941 27.936948 
L 14.527481 27.85686 
L 14.73102 27.776772 
L 14.934559 27.696684 
L 15.188974 27.584299 
L 15.443389 27.471915 
L 15.697803 27.35953 
L 15.952218 27.247146 
L 16.206633 27.134761 
L 16.461048 27.022377 
L 16.715463 26.909992 
L 16.969877 26.797608 
L 16.926926 26.570575 
L 16.721054 26.466112 
L 16.515182 26.36165 
L 16.278207 26.282606 
L 16.041232 26.203563 
L 15.702802 26.155626 
L 15.364372 26.107689 
L 15.141468 25.941245 
L 14.918563 25.774801 
L 14.796521 25.613696 
L 14.979214 25.31795 
L 15.161907 25.022204 
L 15.3446 24.726459 
L 15.527293 24.430713 
L 15.720353 24.346504 
L 15.913414 24.262296 
L 16.106474 24.178087 
L 16.299535 24.093878 
L 16.513108 24.08053 
L 16.726682 24.067182 
L 16.940256 24.053834 
L 17.153829 24.040486 
L 17.367403 24.027138 
L 17.580977 24.01379 
L 17.79455 24.000442 
L 18.008124 23.987094 
L 18.381804 23.974675 
L 18.755483 23.962255 
" style="fill:none;stroke:#008000;stroke-linecap:square;stroke-width:0.4;"/>
   </g>
   <g id="line2d_46">
    <path clip-path="url(#p9aca4d8f7d)" d="M 28.030089 33.39246 
L 28.02298 33.461173 
L 27.994839 33.50319 
L 27.964032 33.525476 
L 27.919896 33.531975 
L 27.877833 33.526404 
L 27.843471 33.512708 
L 27.656854 33.39333 
L 27.470236 33.273952 
L 27.283618 33.154575 
L 27.097 33.035197 
L 26.743352 32.851604 
L 26.389704 32.66801 
L 26.036056 32.484417 
L 25.682408 32.300823 
L 25.32876 32.11723 
L 24.975112 31.933637 
L 24.621464 31.750043 
L 24.267816 31.56645 
L 23.927609 31.432157 
L 23.587402 31.297865 
L 23.247195 31.163572 
L 22.906988 31.029279 
L 22.624951 30.852418 
L 22.342913 30.675557 
L 22.060876 30.498695 
L 21.778839 30.321834 
L 21.496802 30.144973 
L 21.214765 29.968111 
L 20.932728 29.79125 
L 20.65069 29.614389 
L 20.516392 29.383787 
L 20.382094 29.153185 
L 20.247796 28.922584 
L 20.113498 28.691982 
L 19.9792 28.461381 
L 19.844902 28.230779 
L 19.710603 28.000177 
L 19.576305 27.769576 
L 19.52269 27.509928 
L 19.469074 27.25028 
" style="fill:none;stroke:#008000;stroke-linecap:square;stroke-width:0.4;"/>
   </g>
   <g id="line2d_47">
    <path clip-path="url(#p9aca4d8f7d)" d="M 28.030089 33.39246 
L 28.053194 33.420084 
L 28.086667 33.432155 
L 28.119547 33.420084 
L 28.158056 33.391531 
L 28.241589 33.310282 
L 28.289873 33.226248 
L 28.388958 32.919824 
L 28.488043 32.613399 
L 28.587128 32.306975 
L 28.686214 32.000551 
L 28.654222 31.617521 
L 28.48671 31.358105 
L 28.319199 31.098689 
L 28.3152 30.80747 
L 28.311201 30.516251 
L 28.492709 30.220969 
L 28.674217 29.925688 
L 28.855725 29.630406 
L 29.037233 29.335125 
L 29.232737 29.103682 
L 29.428241 28.872239 
L 29.596642 28.723901 
L 29.765042 28.575564 
" style="fill:none;stroke:#4169e1;stroke-linecap:square;stroke-width:0.4;"/>
   </g>
  </g>
 </g>
 <defs>
  <clipPath id="p9aca4d8f7d">
   <rect height="82.471516" width="72" x="0" y="0"/>
  </clipPath>
 </defs>
</svg>
