<?xml version="1.0" encoding="utf-8" standalone="no"?>
<!DOCTYPE svg PUBLIC "-//W3C//DTD SVG 1.1//EN"
  "http://www.w3.org/Graphics/SVG/1.1/DTD/svg11.dtd">
<svg xmlns:xlink="http://www.w3.org/1999/xlink" width="72pt" height="102.359969pt" viewBox="0 0 72 102.359969" xmlns="http://www.w3.org/2000/svg" version="1.1">
 <metadata>
  <rdf:RDF xmlns:dc="http://purl.org/dc/elements/1.1/" xmlns:cc="http://creativecommons.org/ns#" xmlns:rdf="http://www.w3.org/1999/02/22-rdf-syntax-ns#">
   <cc:Work>
    <dc:type rdf:resource="http://purl.org/dc/dcmitype/StillImage"/>
    <dc:date>2022-05-17T17:47:09.202455</dc:date>
    <dc:format>image/svg+xml</dc:format>
    <dc:creator>
     <cc:Agent>
      <dc:title>Matplotlib v3.5.2, https://matplotlib.org/</dc:title>
     </cc:Agent>
    </dc:creator>
   </cc:Work>
  </rdf:RDF>
 </metadata>
 <defs>
  <style type="text/css">*{stroke-linejoin: round; stroke-linecap: butt}</style>
 </defs>
 <g id="figure_1">
  <g id="patch_1">
   <path d="M 0 102.359969 
L 72 102.359969 
L 72 0 
L 0 0 
z
" style="fill: #ffffff"/>
  </g>
  <g id="axes_1">
   <g id="line2d_1">
    <path d="M 41.853404 82.593571 
L 41.427141 79.480513 
L 41.096594 77.063727 
L 40.766047 74.646941 
L 40.4355 72.230156 
L 40.104953 69.81337 
L 39.809366 67.652148 
L 39.513778 65.490927 
L 39.218191 63.329706 
L 38.922603 61.168484 
L 38.446191 57.686792 
L 37.96978 54.205099 
L 37.467329 50.534957 
L 36.964879 46.864815 
L 36.555492 43.871935 
L 36.146106 40.879055 
L 35.73672 37.886175 
L 35.327334 34.893295 
L 34.770877 30.82807 
L 34.454073 28.51179 
L 34.137268 26.195511 
L 33.57165 22.060196 
L 33.006031 17.92488 
L 32.693567 15.642654 
L 32.381103 13.360428 
L 31.799572 9.106092 
L 31.439852 6.47573 
" clip-path="url(#pa8112be410)" style="fill: none; stroke: #808080; stroke-width: 0.4; stroke-linecap: square"/>
   </g>
   <g id="line2d_2">
    <path d="M 48.9205 81.298227 
L 49.309152 77.71173 
L 49.564235 75.361067 
L 49.819318 73.010404 
L 50.120209 70.23887 
L 50.421101 67.467335 
L 50.743692 64.495119 
L 51.066282 61.522902 
L 51.458791 57.907311 
L 51.826226 54.520174 
L 52.193662 51.133037 
L 52.626193 47.144184 
L 53.058725 43.15533 
L 53.490775 39.177387 
L 53.847601 35.88712 
" clip-path="url(#pa8112be410)" style="fill: none; stroke: #808080; stroke-width: 0.4; stroke-linecap: square"/>
   </g>
   <g id="line2d_3">
    <path d="M 63.74713 86.91403 
L 63.164635 82.852772 
L 62.787797 80.224559 
L 62.410959 77.596346 
L 62.034121 74.968132 
L 61.657283 72.339919 
L 61.215589 69.260914 
L 60.773896 66.181909 
L 60.233352 62.413906 
L 59.692808 58.645902 
L 59.166729 54.978735 
L 58.640651 51.311569 
L 58.112644 47.627541 
L 57.584637 43.943513 
L 57.103886 40.591091 
L 56.623134 37.238668 
L 56.354067 35.36475 
" clip-path="url(#pa8112be410)" style="fill: none; stroke: #808080; stroke-width: 0.4; stroke-linecap: square"/>
   </g>
   <g id="line2d_4">
    <path d="M 18.935489 96.618863 
L 19.166944 93.658549 
L 19.402739 90.639385 
L 19.638534 87.620221 
L 19.823215 85.255011 
L 20.007897 82.889801 
L 20.192579 80.524591 
L 20.377261 78.159381 
L 20.660311 74.53288 
L 20.943362 70.906379 
L 21.226412 67.279877 
L 21.509462 63.653376 
L 21.739471 60.708601 
L 21.96948 57.763825 
L 22.199488 54.819049 
L 22.429497 51.874273 
L 22.730388 48.018326 
L 23.03128 44.162379 
L 23.343744 40.164268 
L 23.656209 36.166158 
L 23.961922 32.247063 
L 24.267636 28.327969 
L 24.503431 25.310458 
L 24.739226 22.292948 
L 24.913541 20.06081 
L 25.087855 17.828672 
L 25.26217 15.596534 
L 25.436484 13.364396 
L 25.684817 10.184553 
L 25.933149 7.004711 
L 26.116384 4.652726 
" clip-path="url(#pa8112be410)" style="fill: none; stroke: #808080; stroke-width: 0.4; stroke-linecap: square"/>
   </g>
   <g id="line2d_5">
    <path d="M 17.769533 78.687701 
L 17.925283 76.270585 
L 18.081033 73.853469 
L 18.291272 70.59494 
L 18.50151 67.336412 
L 18.73827 63.667923 
L 18.975029 59.999434 
L 19.176588 56.870507 
L 19.378147 53.741579 
L 19.606708 50.200707 
L 19.83527 46.659835 
L 20.040687 43.47305 
L 20.246103 40.286265 
L 20.497328 36.394612 
L 20.748554 32.502958 
L 20.897553 30.191638 
L 21.046552 27.880318 
L 21.196998 25.544864 
" clip-path="url(#pa8112be410)" style="fill: none; stroke: #808080; stroke-width: 0.4; stroke-linecap: square"/>
   </g>
   <g id="line2d_6">
    <path d="M 34.951219 26.525464 
L 34.554852 23.993707 
L 34.158485 21.46195 
L 33.762118 18.930194 
L 33.365751 16.398437 
L 32.969384 13.86668 
L 32.573018 11.334924 
L 32.176651 8.803167 
L 31.780284 6.27141 
" clip-path="url(#pa8112be410)" style="fill: none; stroke: #808080; stroke-width: 0.4; stroke-linecap: square"/>
   </g>
   <g id="line2d_7">
    <path d="M 17.465749 25.039686 
L 16.84757 25.846053 
L 16.229392 26.652419 
L 15.611214 27.458786 
L 14.993036 28.265153 
L 14.898767 29.421143 
L 14.804497 30.577134 
L 14.710227 31.733124 
L 14.615957 32.889115 
L 14.186078 33.426693 
L 13.756198 33.964271 
L 13.326318 34.501848 
L 12.896439 35.039426 
L 12.560346 35.738509 
L 12.224254 36.437591 
L 11.888162 37.136674 
L 11.55207 37.835757 
L 11.55207 38.978192 
L 11.55207 40.120627 
L 11.55207 41.263063 
L 11.55207 42.405498 
L 11.148711 43.547934 
L 10.745352 44.690369 
L 10.341994 45.832805 
L 9.938635 46.97524 
L 9.925374 48.184956 
L 9.912114 49.394671 
L 9.898854 50.604386 
L 9.885593 51.814102 
L 10.019885 52.943147 
L 10.154178 54.072193 
L 10.28847 55.201238 
L 10.422762 56.330284 
L 10.247965 57.21732 
L 10.073168 58.104357 
L 9.898371 58.991393 
L 9.723575 59.87843 
L 9.414486 60.953751 
L 9.105396 62.029071 
L 8.796307 63.104392 
L 8.487218 64.179713 
L 8.635012 64.986245 
L 8.782806 65.792777 
L 8.9306 66.599309 
L 9.078393 67.405841 
L 8.823069 68.198818 
L 8.567745 68.991795 
L 8.312422 69.784772 
L 8.057098 70.577749 
L 8.155948 71.714564 
L 8.254799 72.851379 
L 8.35365 73.988194 
L 8.4525 75.125009 
L 8.523865 75.942947 
L 8.595231 76.760885 
L 9.199907 77.580642 
L 9.804584 78.400398 
L 10.40926 79.220155 
L 11.013937 80.039911 
L 11.363531 80.631379 
L 11.713124 81.222847 
L 12.062718 81.814315 
L 12.412312 82.405782 
L 13.111258 83.239094 
L 13.810204 84.072406 
L 14.50915 84.905718 
L 15.208097 85.739029 
L 16.148865 86.491836 
L 17.089634 87.244644 
" clip-path="url(#pa8112be410)" style="fill: none; stroke: #008000; stroke-width: 0.4; stroke-linecap: square"/>
   </g>
   <g id="line2d_8">
    <path d="M 21.588543 22.916485 
L 20.869585 23.917914 
L 20.150628 24.919343 
L 19.972456 25.910688 
L 19.794284 26.902033 
L 19.616111 27.893378 
L 19.437939 28.884723 
L 19.411177 29.825484 
L 19.384415 30.766245 
L 19.357653 31.707006 
L 19.330891 32.647767 
L 19.035304 33.743421 
L 18.739716 34.839074 
L 18.501149 35.554812 
L 18.262581 36.270549 
L 18.024013 36.986286 
L 17.785446 37.702023 
L 17.546878 38.417761 
L 17.308311 39.133498 
L 17.069743 39.849235 
L 16.831176 40.564972 
L 16.592608 41.280709 
L 16.354041 41.996447 
L 16.115473 42.712184 
L 15.876906 43.427921 
L 15.638338 44.143658 
L 15.39977 44.859396 
L 15.161203 45.575133 
L 14.922635 46.29087 
L 15.072117 47.293869 
L 15.221598 48.296868 
L 15.37108 49.299867 
L 15.520561 50.302867 
L 15.670043 51.305866 
L 15.819524 52.308865 
L 15.969005 53.311864 
L 16.118487 54.314863 
L 15.832784 55.070977 
L 15.547082 55.82709 
L 15.26138 56.583203 
L 14.975677 57.339317 
L 14.921912 58.105431 
L 14.868147 58.871546 
L 14.814382 59.63766 
L 14.760617 60.403775 
L 14.706852 61.169889 
L 14.653087 61.936004 
L 14.599321 62.702118 
L 14.545556 63.468233 
L 14.290232 64.395604 
L 14.034908 65.322975 
L 13.779585 66.250347 
L 13.524261 67.177718 
L 13.581401 67.967388 
L 13.638542 68.757059 
L 13.695682 69.54673 
L 13.752823 70.336401 
L 13.809963 71.126071 
L 13.867104 71.915742 
L 13.924244 72.705413 
L 13.981384 73.495083 
L 13.981384 74.190694 
L 13.981384 74.886306 
L 13.981384 75.581917 
L 13.981384 76.277528 
L 14.710468 76.852134 
L 15.439552 77.426741 
L 16.168635 78.001347 
L 16.897719 78.575954 
" clip-path="url(#pa8112be410)" style="fill: none; stroke: #008000; stroke-width: 0.4; stroke-linecap: square"/>
   </g>
   <g id="line2d_9">
    <path d="M 25.464452 5.429007 
L 25.42009 6.475399 
L 25.375727 7.521791 
L 25.331365 8.568183 
L 25.287003 9.614576 
L 25.198279 10.802966 
L 25.109554 11.991357 
L 25.02083 13.179748 
L 24.932105 14.368139 
L 25.158256 15.055319 
L 25.384407 15.742499 
L 25.610558 16.42968 
L 25.836709 17.11686 
L 25.375486 18.314012 
L 24.914264 19.511164 
L 24.453041 20.708316 
L 23.991819 21.905468 
L 23.193781 22.747872 
L 22.395743 23.590276 
" clip-path="url(#pa8112be410)" style="fill: none; stroke: #008000; stroke-width: 0.4; stroke-linecap: square"/>
   </g>
   <g id="line2d_10">
    <path d="M 30.910398 5.395284 
L 30.89111 6.294636 
L 30.871822 7.193988 
L 30.852534 8.093339 
L 30.833246 8.992691 
L 30.813959 9.892043 
L 30.794671 10.791395 
L 30.775383 11.690747 
L 30.756095 12.590098 
L 30.86037 13.280998 
L 30.964645 13.971898 
L 31.068921 14.662798 
L 31.173196 15.353698 
L 31.277472 16.044598 
L 31.381747 16.735498 
L 31.486022 17.426397 
L 31.590298 18.117297 
L 31.648161 18.83911 
L 31.706025 19.560922 
L 31.763889 20.282734 
L 31.821753 21.004546 
L 31.879617 21.726359 
L 31.93748 22.448171 
L 31.995344 23.169983 
L 32.053208 23.891795 
L 32.327217 24.887686 
L 32.601226 25.883577 
L 32.875235 26.879468 
L 33.149244 27.875359 
L 33.423253 28.87125 
L 33.697263 29.867141 
L 33.971272 30.863032 
L 34.245281 31.858923 
" clip-path="url(#pa8112be410)" style="fill: none; stroke: #008000; stroke-width: 0.4; stroke-linecap: square"/>
   </g>
   <g id="line2d_11">
    <path d="M 23.221266 24.996706 
L 23.126544 26.109789 
L 23.031822 27.222872 
L 22.937101 28.335956 
L 22.842379 29.449039 
L 22.747657 30.562122 
L 22.652935 31.675205 
L 22.558213 32.788288 
L 22.463492 33.901371 
L 22.36877 35.014455 
L 22.274048 36.127538 
L 22.179326 37.240621 
L 22.084604 38.353704 
L 21.989883 39.466787 
L 21.895161 40.57987 
L 21.800439 41.692954 
L 21.705717 42.806037 
L 21.610995 43.91912 
L 21.516274 45.032203 
L 21.421552 46.145286 
L 21.32683 47.258369 
L 21.232108 48.371453 
L 21.137386 49.484536 
L 21.042664 50.597619 
L 20.947943 51.710702 
L 20.853221 52.823785 
L 20.758499 53.936868 
L 20.663777 55.049952 
L 20.569055 56.163035 
L 20.474334 57.276118 
L 20.379612 58.389201 
L 20.28489 59.502284 
L 20.190168 60.615367 
L 20.095446 61.728451 
L 20.000725 62.841534 
L 19.906003 63.954617 
L 19.811281 65.0677 
L 19.716559 66.180783 
L 19.621837 67.293866 
L 19.527116 68.40695 
L 19.432394 69.520033 
L 19.337672 70.633116 
L 19.24295 71.746199 
L 19.148228 72.859282 
L 19.053507 73.972366 
L 18.958785 75.085449 
L 18.864063 76.198532 
L 18.769341 77.311615 
L 18.674619 78.424698 
L 18.579898 79.537781 
L 18.485176 80.650865 
L 18.390454 81.763948 
L 18.295732 82.877031 
L 18.20101 83.990114 
L 18.106289 85.103197 
L 18.011567 86.21628 
L 17.916845 87.329364 
L 17.822123 88.442447 
L 17.727401 89.55553 
L 17.63268 90.668613 
L 17.537958 91.781696 
L 17.443236 92.894779 
L 17.348514 94.007863 
L 17.253792 95.120946 
L 17.15907 96.234029 
" clip-path="url(#pa8112be410)" style="fill: none; stroke: #008000; stroke-width: 0.4; stroke-linecap: square"/>
   </g>
   <g id="line2d_12">
    <path d="M 28.35957 27.084862 
L 28.239864 27.856845 
L 28.120158 28.628828 
L 28.000453 29.400811 
L 27.880747 30.172793 
L 27.761041 30.944776 
L 27.641336 31.716759 
L 27.52163 32.488742 
L 27.401924 33.260725 
L 27.031596 34.387787 
L 26.661268 35.514849 
L 26.29094 36.641911 
L 25.920611 37.768973 
L 25.908918 38.872892 
L 25.897225 39.97681 
L 25.885532 41.080729 
L 25.873838 42.184648 
L 25.862145 43.288567 
L 25.850452 44.392486 
L 25.838758 45.496405 
L 25.827065 46.600324 
L 25.90048 47.619358 
L 25.973894 48.638392 
L 26.047309 49.657426 
L 26.120724 50.67646 
L 26.194138 51.695494 
L 26.267553 52.714528 
L 26.340968 53.733562 
L 26.414382 54.752596 
L 26.522395 55.489864 
L 26.630407 56.227133 
L 26.73842 56.964401 
L 26.846432 57.701669 
L 26.954444 58.438938 
L 27.062457 59.176206 
L 27.170469 59.913475 
L 27.278482 60.650743 
L 27.197472 61.445869 
L 27.116463 62.240995 
L 27.035454 63.036121 
L 26.954444 63.831246 
L 26.873435 64.626372 
L 26.792426 65.421498 
L 26.711416 66.216624 
L 26.630407 67.01175 
L 26.205832 67.652479 
L 25.781256 68.293208 
L 25.356681 68.933937 
L 24.932105 69.574667 
L 24.480527 70.757106 
L 24.028948 71.939546 
L 23.577369 73.121986 
L 23.125791 74.304426 
L 22.944243 75.075086 
L 22.762696 75.845746 
L 22.581148 76.616407 
L 22.3996 77.387067 
L 21.96731 77.896543 
L 21.535019 78.406019 
L 21.102728 78.915494 
L 20.670438 79.42497 
" clip-path="url(#pa8112be410)" style="fill: none; stroke: #008000; stroke-width: 0.4; stroke-linecap: square"/>
   </g>
   <g id="line2d_13">
    <path d="M 34.380296 34.742535 
L 34.287714 35.885136 
L 34.195132 37.027737 
L 34.10255 38.170338 
L 34.009968 39.312938 
L 33.917386 40.455539 
L 33.824804 41.59814 
L 33.732222 42.740741 
L 33.63964 43.883341 
L 33.547058 44.994947 
L 33.454476 46.106553 
L 33.361894 47.218159 
L 33.269312 48.329764 
L 33.17673 49.44137 
L 33.084148 50.552976 
L 32.991566 51.664582 
L 32.898983 52.776187 
L 33.041714 53.575198 
L 33.184445 54.374208 
L 33.327175 55.173219 
L 33.469906 55.972229 
L 33.612637 56.77124 
L 33.755367 57.57025 
L 33.898098 58.369261 
L 34.040829 59.168272 
L 34.029256 59.990425 
L 34.017683 60.812579 
L 34.006111 61.634732 
L 33.994538 62.456886 
L 33.982965 63.279039 
L 33.971392 64.101192 
L 33.959819 64.923346 
L 33.948247 65.745499 
L 34.458171 66.715685 
L 34.968096 67.685871 
L 35.47802 68.656057 
L 35.987945 69.626242 
L 36.163224 70.547001 
L 36.338503 71.46776 
L 36.513782 72.388519 
L 36.689061 73.309279 
L 36.436148 74.583464 
L 36.183235 75.857649 
L 35.930322 77.131834 
L 35.677409 78.406019 
" clip-path="url(#pa8112be410)" style="fill: none; stroke: #008000; stroke-width: 0.4; stroke-linecap: square"/>
   </g>
   <g id="line2d_14">
    <path d="M 27.000735 68.679365 
L 27.409881 69.628887 
L 27.819026 70.57841 
L 28.228171 71.527932 
L 28.637316 72.477455 
L 29.347594 73.172239 
L 30.057872 73.867024 
L 30.76815 74.561808 
L 31.478428 75.256593 
L 31.926149 75.897322 
L 32.37387 76.538051 
L 32.821591 77.178781 
L 33.269312 77.81951 
L 34.473361 78.112764 
L 35.677409 78.406019 
" clip-path="url(#pa8112be410)" style="fill: none; stroke: #008000; stroke-width: 0.4; stroke-linecap: square"/>
   </g>
   <g id="line2d_15">
    <path d="M 39.86964 39.833324 
L 39.812018 40.631426 
L 39.754395 41.429527 
L 39.696772 42.227628 
L 39.63915 43.02573 
L 39.581527 43.823831 
L 39.523904 44.621932 
L 39.466282 45.420034 
L 39.408659 46.218135 
L 39.342116 47.140382 
L 39.275572 48.062628 
L 39.209029 48.984875 
L 39.142486 49.907122 
L 39.075942 50.829369 
L 39.009399 51.751616 
L 38.942855 52.673862 
L 38.876312 53.596109 
L 38.783248 54.425288 
L 38.690184 55.254467 
L 38.597119 56.083646 
L 38.504055 56.912825 
L 38.410991 57.742004 
L 38.317927 58.571183 
L 38.224862 59.400362 
L 38.131798 60.229541 
L 38.078515 61.382226 
L 38.025232 62.53491 
L 37.971949 63.687595 
L 37.918667 64.840279 
L 37.714697 65.913286 
L 37.510727 66.986292 
L 37.306757 68.059299 
L 37.102787 69.132306 
L 36.924615 70.29152 
L 36.746443 71.450734 
L 36.568271 72.609948 
L 36.390098 73.769162 
L 36.211926 74.928376 
L 36.033754 76.08759 
L 35.855582 77.246804 
L 35.677409 78.406019 
" clip-path="url(#pa8112be410)" style="fill: none; stroke: #008000; stroke-width: 0.4; stroke-linecap: square"/>
   </g>
   <g id="line2d_16">
    <path d="M 56.007849 33.129141 
L 54.806332 33.067068 
L 53.604814 33.004995 
L 52.403297 32.942922 
L 51.20178 32.88085 
L 50.000263 32.818777 
L 48.798745 32.756704 
L 47.597228 32.694632 
L 46.395711 32.632559 
" clip-path="url(#pa8112be410)" style="fill: none; stroke: #008000; stroke-width: 0.4; stroke-linecap: square"/>
   </g>
   <g id="line2d_17">
    <path d="M 35.677409 78.406019 
L 35.351926 79.426953 
L 35.026442 80.447888 
L 34.935789 81.176396 
L 34.845135 81.904903 
L 34.754482 82.63341 
L 34.663829 83.361917 
L 34.096282 84.403019 
L 33.528734 85.444122 
L 33.034481 85.962028 
L 32.540228 86.479934 
L 32.045975 86.997841 
L 31.551722 87.515747 
L 30.890628 87.989516 
L 30.229534 88.463286 
L 29.568441 88.937055 
L 28.907347 89.410824 
L 27.877854 89.761936 
L 26.848361 90.113048 
L 26.377253 90.698069 
L 25.906145 91.283089 
L 25.435038 91.86811 
L 24.96393 92.453131 
L 24.425797 93.401001 
L 23.887664 94.34887 
L 23.349531 95.296739 
L 22.811398 96.244609 
L 21.98057 96.975926 
L 21.149743 97.707243 
L 20.377743 97.631202 
L 19.605744 97.555161 
" clip-path="url(#pa8112be410)" style="fill: none; stroke: #008000; stroke-width: 0.4; stroke-linecap: square"/>
   </g>
   <g id="line2d_18">
    <path d="M 36.337057 35.371362 
L 36.392509 36.284683 
L 36.447962 37.198003 
L 36.503415 38.111323 
L 36.558868 39.024643 
L 36.629751 39.9092 
L 36.700634 40.793757 
L 36.771517 41.678314 
L 36.8424 42.56287 
" clip-path="url(#pa8112be410)" style="fill: none; stroke: #4169e1; stroke-width: 0.4; stroke-linecap: square"/>
   </g>
   <g id="line2d_19">
    <path d="M 43.245028 35.760825 
L 42.667113 36.607692 
L 42.089199 37.454559 
L 41.511284 38.301426 
L 40.93337 39.148293 
" clip-path="url(#pa8112be410)" style="fill: none; stroke: #008000; stroke-width: 0.4; stroke-linecap: square"/>
   </g>
   <g id="line2d_20">
    <path d="M 51.793437 36.057055 
L 51.107992 36.69547 
L 50.422548 37.333885 
L 49.737103 37.9723 
L 49.051658 38.610715 
L 48.366213 39.343189 
L 47.680769 40.075664 
L 46.995324 40.808139 
L 46.309879 41.540613 
L 46.061306 42.380702 
L 45.812733 43.220792 
L 45.56416 44.060881 
L 45.315587 44.90097 
L 45.328968 45.586498 
L 45.342349 46.272025 
L 45.35573 46.957552 
L 45.369111 47.64308 
L 45.382492 48.328607 
L 45.395873 49.014135 
L 45.409254 49.699662 
L 45.422635 50.385189 
L 45.469649 51.460345 
L 45.516663 52.535501 
L 45.563678 53.610656 
L 45.610692 54.685812 
L 45.671208 55.734188 
L 45.731724 56.782563 
L 45.79224 57.830939 
L 45.852755 58.879315 
L 45.711712 60.129365 
L 45.570669 61.379416 
L 45.429627 62.629466 
L 45.288584 63.879516 
L 44.972744 64.887557 
L 44.656904 65.895598 
L 44.341064 66.903639 
L 44.025224 67.91168 
L 44.139505 68.624152 
L 44.253786 69.336625 
L 44.368067 70.049097 
L 44.482348 70.76157 
L 44.81832 71.34626 
L 45.154291 71.93095 
L 45.490263 72.51564 
L 45.826235 73.100331 
L 46.162206 73.685021 
L 46.498178 74.269711 
L 46.834149 74.854401 
L 47.170121 75.439092 
L 47.26415 76.433743 
L 47.358178 77.428394 
L 47.452207 78.423045 
L 47.546235 79.417696 
" clip-path="url(#pa8112be410)" style="fill: none; stroke: #4169e1; stroke-width: 0.4; stroke-linecap: square"/>
   </g>
   <g id="line2d_21">
    <path d="M 53.244854 35.841495 
L 53.167566 36.550093 
L 53.090279 37.258691 
L 53.012992 37.967289 
L 52.935704 38.675887 
L 52.858417 39.384485 
L 52.78113 40.093083 
L 52.703842 40.801681 
L 52.626555 41.510279 
L 52.549268 42.218877 
L 52.47198 42.927475 
L 52.394693 43.636073 
L 52.317406 44.344671 
L 52.240118 45.053269 
L 52.162831 45.761867 
L 52.085544 46.470465 
L 52.008256 47.179064 
L 51.930969 47.887662 
L 51.853682 48.59626 
L 51.776394 49.304858 
L 51.699107 50.013456 
L 51.62182 50.722054 
L 51.544532 51.430652 
L 51.467245 52.13925 
L 51.389958 52.847848 
L 51.31267 53.556446 
L 51.235383 54.265044 
L 51.158096 54.973642 
L 51.080808 55.68224 
L 51.003521 56.390838 
L 50.926234 57.099436 
L 50.848946 57.808034 
L 50.771659 58.516632 
L 50.694372 59.22523 
L 50.617084 59.933828 
L 50.539797 60.642426 
L 50.46251 61.351024 
L 50.385222 62.059622 
L 50.307935 62.76822 
L 50.230648 63.476818 
L 50.15336 64.185416 
L 50.076073 64.894014 
L 49.998786 65.602612 
L 49.921498 66.31121 
L 49.844211 67.019808 
L 49.766924 67.728406 
L 49.689636 68.437005 
L 49.612349 69.145603 
L 49.535062 69.854201 
L 49.457775 70.562799 
L 49.380487 71.271397 
L 49.3032 71.979995 
L 49.225913 72.688593 
L 49.148625 73.397191 
L 49.071338 74.105789 
L 48.994051 74.814387 
L 48.916763 75.522985 
L 48.839476 76.231583 
L 48.762189 76.940181 
L 48.684901 77.648779 
L 48.607614 78.357377 
L 48.530327 79.065975 
L 48.453039 79.774573 
L 48.375752 80.483171 
L 48.298465 81.191769 
" clip-path="url(#pa8112be410)" style="fill: none; stroke: #4169e1; stroke-width: 0.4; stroke-linecap: square"/>
   </g>
   <g id="line2d_22">
    <path d="M 55.126391 37.508449 
L 55.052494 38.711387 
L 54.978597 39.914325 
L 54.9047 41.117262 
L 54.830803 42.3202 
L 54.756906 43.523138 
L 54.68301 44.726076 
L 54.609113 45.929013 
L 54.535216 47.131951 
L 54.770287 48.361834 
L 55.005359 49.591717 
L 55.240431 50.821599 
L 55.475502 52.051482 
L 55.710815 53.113413 
L 55.946128 54.175344 
L 56.18144 55.237275 
L 56.416753 56.299206 
L 56.44026 56.9544 
L 56.463767 57.609594 
L 56.487275 58.264787 
L 56.510782 58.919981 
L 56.534289 59.575174 
L 56.557796 60.230368 
L 56.581303 60.885561 
L 56.60481 61.540755 
L 56.436764 62.21281 
L 56.268718 62.884865 
L 56.100672 63.55692 
L 55.932626 64.228975 
L 55.76458 64.90103 
L 55.596534 65.573084 
L 55.428488 66.245139 
L 55.260442 66.917194 
L 54.951353 67.911845 
L 54.642264 68.906497 
L 54.333175 69.901148 
L 54.024086 70.895799 
L 53.815776 71.789613 
L 53.607467 72.683427 
L 53.399157 73.577241 
L 53.190847 74.471055 
L 53.00942 75.129637 
L 52.827993 75.78822 
L 52.646566 76.446802 
L 52.465139 77.105384 
L 52.283712 77.763967 
L 52.102285 78.422549 
L 51.920858 79.081132 
L 51.739431 79.739714 
L 51.080748 80.519301 
L 50.422065 81.298888 
" clip-path="url(#pa8112be410)" style="fill: none; stroke: #4169e1; stroke-width: 0.4; stroke-linecap: square"/>
   </g>
   <g id="line2d_23">
    <path d="M 58.943472 34.874119 
L 58.997176 35.682263 
L 59.050881 36.490407 
L 59.104586 37.298551 
L 59.158291 38.106694 
L 59.211996 38.914838 
L 59.265701 39.722982 
L 59.319405 40.531126 
L 59.37311 41.339269 
L 59.426815 42.147413 
L 59.48052 42.955557 
L 59.534225 43.763701 
L 59.58793 44.571844 
L 59.641634 45.379988 
L 59.695339 46.188132 
L 59.749044 46.996275 
L 59.802749 47.804419 
L 60.011058 48.859407 
L 60.219368 49.914396 
L 60.427678 50.969384 
L 60.635987 52.024372 
L 60.716635 52.686343 
L 60.797283 53.348314 
L 60.87793 54.010285 
L 60.958578 54.672257 
L 61.039225 55.334228 
L 61.119873 55.996199 
L 61.200521 56.65817 
L 61.281168 57.320141 
L 61.348435 58.617304 
L 61.415702 59.914467 
L 61.482968 61.211629 
L 61.550235 62.508792 
L 61.577238 63.610892 
L 61.604241 64.712993 
L 61.631244 65.815094 
L 61.658247 66.917194 
L 61.120596 67.737116 
L 60.582945 68.557038 
L 60.045294 69.37696 
L 59.507644 70.196882 
L 59.050761 70.801739 
L 58.593878 71.406597 
L 58.136995 72.011455 
L 57.680112 72.616312 
L 57.283504 73.201003 
L 56.886896 73.785693 
L 56.490288 74.370383 
L 56.09368 74.955073 
L 55.609795 75.694325 
L 55.125909 76.433577 
L 54.642023 77.17283 
L 54.158137 77.912082 
L 53.526457 78.604221 
L 52.894778 79.296361 
L 52.263098 79.988501 
L 51.631418 80.68064 
" clip-path="url(#pa8112be410)" style="fill: none; stroke: #4169e1; stroke-width: 0.4; stroke-linecap: square"/>
   </g>
   <g id="line2d_24">
    <path d="M 62.249422 67.723892 
L 62.390465 68.805907 
L 62.531508 69.887923 
L 62.672551 70.969939 
L 62.813594 72.051955 
L 62.954637 73.133971 
L 63.09568 74.215986 
L 63.236723 75.298002 
L 63.377766 76.380018 
L 63.431531 77.105798 
L 63.485296 77.831577 
L 63.539061 78.557357 
L 63.592826 79.283137 
L 63.646592 80.008916 
L 63.700357 80.734696 
L 63.754122 81.460475 
L 63.807887 82.186255 
L 63.922168 83.080069 
L 64.036449 83.973883 
L 64.15073 84.867697 
L 64.265011 85.761511 
" clip-path="url(#pa8112be410)" style="fill: none; stroke: #4169e1; stroke-width: 0.4; stroke-linecap: square"/>
   </g>
   <g id="line2d_25">
    <path d="M 61.604241 35.358138 
L 62.127065 36.2765 
L 62.649888 37.194862 
L 63.172711 38.113224 
L 63.695535 39.031586 
L 64.218358 39.949948 
L 64.741181 40.86831 
L 65.264005 41.786672 
L 65.786828 42.705034 
L 66.145584 43.40858 
L 66.504339 44.112126 
L 66.863095 44.815672 
L 67.22185 45.519218 
L 67.282366 46.493701 
L 67.342882 47.468185 
L 67.403398 48.442669 
L 67.463913 49.417153 
L 67.621833 50.230297 
L 67.779753 51.043441 
L 67.937673 51.856585 
L 68.095593 52.66973 
L 68.253513 53.482874 
L 68.411433 54.296018 
L 68.569353 55.109162 
L 68.727273 55.922307 
L 68.666757 57.111855 
L 68.606241 58.301403 
L 68.545725 59.49095 
L 68.485209 60.680498 
L 68.458327 61.507115 
L 68.431444 62.333732 
L 68.404562 63.160349 
L 68.377679 63.986965 
L 68.350796 64.813582 
L 68.323914 65.640199 
L 68.297031 66.466816 
L 68.270149 67.293433 
L 68.313788 68.096576 
L 68.357427 68.899719 
L 68.401066 69.702862 
L 68.444705 70.506005 
L 68.488344 71.309149 
L 68.531982 72.112292 
L 68.575621 72.915435 
L 68.61926 73.718578 
L 68.424452 74.961851 
L 68.229644 76.205123 
L 68.034836 77.448396 
L 67.840028 78.691669 
L 67.551071 79.357029 
L 67.262114 80.022389 
L 66.973156 80.687749 
L 66.684199 81.353109 
L 66.395242 82.018469 
L 66.106285 82.683828 
L 65.817327 83.349188 
L 65.52837 84.014548 
L 65.205779 84.72669 
L 64.883189 85.438832 
" clip-path="url(#pa8112be410)" style="fill: none; stroke: #4169e1; stroke-width: 0.4; stroke-linecap: square"/>
   </g>
   <g id="line2d_26">
    <path d="M 32.282734 6.949168 
L 32.481641 7.626348 
L 32.680548 8.303527 
L 32.879454 8.980706 
L 33.078361 9.657886 
L 33.277268 10.335065 
L 33.476175 11.012245 
L 33.675081 11.689424 
L 33.873988 12.366604 
L 34.023108 13.456223 
L 34.172228 14.545843 
L 34.321348 15.635463 
L 34.470467 16.725083 
L 34.619587 17.814703 
L 34.768707 18.904323 
L 34.917827 19.993943 
L 35.066947 21.083563 
L 35.10504 21.917371 
L 35.143134 22.751178 
L 35.181227 23.584986 
L 35.219321 24.418793 
L 35.178334 25.179205 
L 35.137347 25.939616 
" clip-path="url(#pa8112be410)" style="fill: none; stroke: #008000; stroke-width: 0.4; stroke-linecap: square"/>
   </g>
   <g id="line2d_27">
    <path d="M 16.541857 24.161576 
L 15.69367 24.79933 
L 14.845484 25.437083 
L 13.997297 26.074837 
L 13.14911 26.712591 
" clip-path="url(#pa8112be410)" style="fill: none; stroke: #008000; stroke-width: 0.4; stroke-linecap: square"/>
   </g>
   <g id="line2d_28">
    <path d="M 13.14911 26.712591 
L 12.165908 27.25083 
L 11.182706 27.789069 
L 10.708947 28.298049 
L 10.235187 28.807028 
L 9.761427 29.316008 
L 9.287667 29.824988 
L 8.994973 30.714339 
L 8.702279 31.603689 
L 8.655506 32.481138 
L 8.608732 33.358586 
L 7.789478 33.967246 
L 6.970223 34.575906 
L 6.537691 35.289701 
L 6.105159 36.003496 
L 6.28068 36.798952 
L 6.4562 37.594409 
L 6.514546 38.460286 
L 6.572892 39.326163 
L 6.526118 40.215514 
L 6.479345 41.104864 
L 6.057904 41.900651 
L 5.636463 42.696438 
L 5.48457 43.550413 
L 5.332678 44.404388 
L 5.566544 45.586332 
L 5.80041 46.768276 
L 5.344251 47.529018 
L 4.888091 48.28976 
L 4.806117 48.945036 
L 4.724144 49.600313 
L 4.607452 50.606039 
L 5.145585 51.753269 
L 4.630597 52.806273 
L 4.11561 53.859278 
L 3.694168 54.526125 
L 3.272727 55.192973 
L 3.366274 55.860151 
L 3.45982 56.52733 
L 4.185528 57.568432 
L 4.911237 58.609534 
L 4.747289 59.498885 
L 4.583342 60.388236 
L 4.571769 61.464714 
L 4.560196 62.541192 
L 4.852891 63.290032 
L 5.145585 64.038872 
L 4.95801 64.799614 
L 4.770435 65.560356 
L 4.443022 66.508225 
L 4.11561 67.456094 
L 4.033636 68.275024 
L 3.951662 69.093954 
L 3.869689 69.912884 
L 3.787715 70.731815 
L 4.496064 71.515369 
L 5.204413 72.298923 
L 5.912762 73.082478 
L 6.621111 73.866032 
L 7.536806 74.49552 
L 8.4525 75.125009 
" clip-path="url(#pa8112be410)" style="fill: none; stroke: #008000; stroke-width: 0.4; stroke-linecap: square"/>
   </g>
  </g>
 </g>
 <defs>
  <clipPath id="pa8112be410">
   <rect x="0" y="0" width="72" height="102.359969"/>
  </clipPath>
 </defs>
</svg>
