<?xml version="1.0" encoding="utf-8" standalone="no"?>
<!DOCTYPE svg PUBLIC "-//W3C//DTD SVG 1.1//EN"
  "http://www.w3.org/Graphics/SVG/1.1/DTD/svg11.dtd">
<svg height="72pt" version="1.1" viewBox="0 0 90.990859 72" width="90.990859pt" xmlns="http://www.w3.org/2000/svg" xmlns:xlink="http://www.w3.org/1999/xlink">
 <metadata>
  <rdf:RDF xmlns:cc="http://creativecommons.org/ns#" xmlns:dc="http://purl.org/dc/elements/1.1/" xmlns:rdf="http://www.w3.org/1999/02/22-rdf-syntax-ns#">
   <cc:Work>
    <dc:type rdf:resource="http://purl.org/dc/dcmitype/StillImage"/>
    <dc:date>2022-04-19T00:55:01.348941</dc:date>
    <dc:format>image/svg+xml</dc:format>
    <dc:creator>
     <cc:Agent>
      <dc:title>Matplotlib v3.4.3, https://matplotlib.org/</dc:title>
     </cc:Agent>
    </dc:creator>
   </cc:Work>
  </rdf:RDF>
 </metadata>
 <defs>
  <style type="text/css">*{stroke-linecap:butt;stroke-linejoin:round;}</style>
 </defs>
 <g id="figure_1">
  <g id="patch_1">
   <path d="M 0 72 
L 90.990859 72 
L 90.990859 0 
L 0 0 
z
" style="fill:#ffffff;"/>
  </g>
  <g id="axes_1">
   <g id="line2d_1">
    <path clip-path="url(#p3eec711a14)" d="M 22.719324 63.449535 
L 25.03717 60.328841 
L 27.216261 57.395263 
L 29.395352 54.461685 
L 31.41275 51.745371 
L 33.430148 49.029057 
L 35.071328 46.819257 
L 36.712509 44.609458 
L 38.35369 42.399659 
L 39.99487 40.18986 
L 42.647758 36.618006 
L 45.300646 33.046151 
L 46.930358 30.852205 
L 48.56007 28.658259 
L 50.417655 26.157129 
L 52.29329 23.63105 
L 53.889159 21.482324 
" style="fill:none;stroke:#808080;stroke-linecap:square;stroke-width:0.421254;"/>
   </g>
   <g id="line2d_2">
    <path clip-path="url(#p3eec711a14)" d="M 11.218087 53.299481 
L 11.703165 51.002101 
L 12.205353 48.625716 
L 12.70754 46.24933 
L 13.209727 43.872945 
L 13.711915 41.49656 
L 14.212786 39.124333 
L 14.713657 36.752106 
L 15.525881 32.908412 
L 16.338104 29.064718 
L 16.951408 26.159728 
L 17.564713 23.254737 
L 18.390473 19.347112 
L 19.216234 15.439487 
L 20.044251 11.519387 
L 20.278141 10.411239 
" style="fill:none;stroke:#808080;stroke-linecap:square;stroke-width:0.421254;"/>
   </g>
   <g id="line2d_3">
    <path clip-path="url(#p3eec711a14)" d="M 4.135948 52.522946 
L 4.657313 49.71931 
L 5.178678 46.915675 
L 5.700043 44.112039 
L 6.221408 41.308404 
" style="fill:none;stroke:#808080;stroke-linecap:square;stroke-width:0.421254;"/>
   </g>
   <g id="line2d_4">
    <path clip-path="url(#p3eec711a14)" d="M 55.588812 23.38364 
L 59.461916 26.450279 
L 64.302919 25.804726 
L 68.336963 23.868065 
L 71.242167 21.285851 
L 73.823985 20.156913 
L 77.212763 20.156913 
L 84.312951 22.41583 
L 86.249503 23.868065 
L 86.854911 25.845268 
L 86.330726 29.071995 
L 83.990506 33.469763 
L 82.538092 35.648116 
L 79.794581 38.552587 
L 78.58433 45.208752 
L 78.342356 46.459317 
L 76.244863 51.300448 
L 72.492277 56.423424 
L 69.950882 60.659414 
L 67.04643 64.209438 
L 63.980286 67.113909 
L 60.914142 68.727273 
L 58.170631 68.727273 
L 51.251688 67.557662 
L 45.745113 66.145059 
L 40.096774 63.321152 
L 37.676273 62.3128 
L 35.255395 61.466096 
L 30.414392 61.304967 
L 26.863921 61.950521 
L 26.863921 61.950521 
" style="fill:none;stroke:#008000;stroke-linecap:square;stroke-width:0.421254;"/>
   </g>
   <g id="line2d_5">
    <path clip-path="url(#p3eec711a14)" d="M 64.302919 25.804726 
L 65.139961 25.986125 
L 65.977002 26.167525 
L 66.814044 26.348924 
L 67.651086 26.530323 
L 68.766013 26.870253 
L 69.88094 27.210182 
L 70.959393 27.539715 
L 72.169832 27.922785 
L 73.380271 28.305855 
L 73.400388 29.107599 
L 73.420506 29.909344 
L 73.440623 30.711088 
L 73.460741 31.512832 
L 73.480859 32.314576 
L 73.500976 33.11632 
L 73.521094 33.918064 
L 73.541211 34.719808 
L 73.622058 36.051457 
L 73.702904 37.383106 
L 73.823985 38.088953 
L 73.945067 38.794799 
L 74.066148 39.500646 
L 74.18723 40.206493 
L 74.348547 40.93261 
L 74.509863 41.658728 
L 74.67118 42.384846 
L 74.832496 43.110964 
L 74.993813 43.796799 
L 75.15513 44.482635 
L 75.316446 45.16847 
L 75.477763 45.854306 
L 76.042559 46.620965 
L 76.607356 47.387625 
L 76.994666 48.0311 
L 77.381976 48.674574 
" style="fill:none;stroke:#4169e1;stroke-linecap:square;stroke-width:0.421254;"/>
   </g>
   <g id="line2d_6">
    <path clip-path="url(#p3eec711a14)" d="M 73.380271 28.305855 
L 74.509863 28.729467 
L 75.639456 29.153079 
L 76.688202 29.879197 
L 77.736948 30.605315 
L 78.422826 31.08922 
L 79.108704 31.573125 
L 79.512183 32.158125 
L 79.915663 32.743126 
L 80.319142 33.328126 
L 80.722622 33.913126 
L 81.630357 34.780621 
L 82.538092 35.648116 
" style="fill:none;stroke:#008000;stroke-linecap:square;stroke-width:0.421254;"/>
   </g>
   <g id="line2d_7">
    <path clip-path="url(#p3eec711a14)" d="M 59.461916 26.450279 
L 59.873668 27.026183 
L 60.28542 27.602088 
L 60.755081 28.258037 
L 61.224742 28.913985 
L 61.866248 29.810068 
L 62.507755 30.70615 
L 62.991893 31.230597 
L 63.47603 31.755044 
L 63.960168 32.279491 
L 64.444306 32.803939 
L 64.585505 33.772009 
L 64.726704 34.740079 
L 64.867904 35.70815 
L 65.009103 36.67622 
L 64.867904 37.705103 
L 64.726704 38.733986 
L 64.585505 39.76287 
L 64.444306 40.791753 
L 64.444306 41.961754 
L 64.444306 43.131754 
L 64.605623 43.857872 
L 64.76694 44.58399 
L 65.250514 45.794013 
L 65.896156 46.31846 
L 66.541799 46.842907 
L 67.227676 47.770695 
L 67.913554 48.698483 
L 68.317034 49.384059 
L 68.720513 50.069635 
L 69.123993 51.3202 
L 69.527473 52.570764 
L 69.305615 53.659941 
L 69.083758 54.749117 
L 68.861901 55.838294 
L 68.640043 56.927471 
L 67.994401 57.69413 
L 67.348758 58.46079 
L 66.461328 59.388578 
L 65.573899 60.316366 
" style="fill:none;stroke:#4169e1;stroke-linecap:square;stroke-width:0.421254;"/>
   </g>
   <g id="line2d_8">
    <path clip-path="url(#p3eec711a14)" d="M 61.224742 28.913985 
L 61.969092 29.24092 
L 62.713443 29.567855 
L 63.457793 29.89479 
L 64.202143 30.221725 
L 65.238105 30.664049 
L 66.274066 31.106372 
L 67.077641 31.931246 
L 67.881216 32.75612 
L 68.583263 33.95003 
L 69.28531 35.14394 
L 69.406391 36.172563 
L 69.527473 37.201187 
L 69.648554 38.22981 
L 69.769636 39.258434 
L 69.829988 40.206493 
L 69.890341 41.154552 
L 69.950694 42.102611 
L 70.011047 43.05067 
L 70.011047 44.301235 
L 70.011047 45.5518 
L 70.212974 46.842907 
L 70.414902 48.134014 
L 70.293821 49.344037 
L 70.172739 50.55406 
L 69.850106 51.562412 
L 69.527473 52.570764 
" style="fill:none;stroke:#000000;stroke-dasharray:1.55864,0.674006;stroke-dashoffset:0;stroke-width:0.421254;"/>
   </g>
   <g id="line2d_9">
    <path clip-path="url(#p3eec711a14)" d="M 60.28542 27.602088 
L 60.129932 28.776506 
L 59.974444 29.950925 
L 59.818956 31.125344 
L 59.663468 32.299762 
L 59.824784 33.570598 
L 59.986101 34.841434 
L 60.147418 36.11227 
L 60.308734 37.383106 
L 60.490357 38.432 
L 60.671979 39.480895 
L 60.853601 40.529789 
L 61.035223 41.578684 
L 61.115882 42.445919 
L 61.19654 43.313154 
L 61.277198 44.180389 
L 61.357856 45.047624 
L 61.902535 45.894848 
L 62.447214 46.742072 
L 62.991893 47.589296 
L 63.536571 48.43652 
L 64.020709 49.182648 
L 64.504847 49.928777 
L 64.988985 50.674906 
L 65.473123 51.421035 
L 65.957073 51.945482 
L 66.441023 52.469929 
L 66.924973 52.994376 
L 67.408923 53.518824 
L 67.691321 54.366048 
L 67.973719 55.213271 
L 68.306881 56.070371 
L 68.640043 56.927471 
" style="fill:none;stroke:#4169e1;stroke-linecap:square;stroke-width:0.421254;"/>
   </g>
   <g id="line2d_10">
    <path clip-path="url(#p3eec711a14)" d="M 53.934283 25.521971 
L 53.732731 26.490301 
L 53.531179 27.458631 
L 53.450333 28.770009 
L 53.369486 30.081387 
L 53.530803 31.371974 
L 53.69212 32.662561 
L 54.085635 33.570338 
L 54.479149 34.478116 
L 54.872664 35.385893 
L 55.266179 36.29367 
L 55.709894 36.979245 
L 56.153609 37.664821 
L 56.758264 38.915386 
L 57.343366 40.044845 
L 57.928468 41.174303 
L 58.089784 42.102611 
L 58.251101 43.030919 
L 58.533499 43.968843 
L 58.815897 44.906766 
L 59.098295 45.84469 
L 59.380694 46.782614 
L 59.723632 47.831508 
L 60.066571 48.880403 
L 60.40951 49.60652 
L 60.752449 50.332638 
L 61.216469 51.018214 
L 61.68049 51.703789 
L 62.265592 52.470449 
L 62.850693 53.237109 
L 63.41549 53.922684 
L 63.980286 54.60826 
L 64.545082 55.193 
L 65.109879 55.777741 
L 65.512982 56.907719 
L 65.553593 57.997156 
L 65.563746 59.156761 
L 65.573899 60.316366 
L 64.847598 60.78026 
L 64.121297 61.244154 
L 63.394996 61.708048 
L 62.668695 62.171943 
L 61.801383 62.51473 
L 60.934071 62.857518 
L 60.066759 63.200306 
L 59.199447 63.543094 
L 58.331947 63.745024 
L 57.464447 63.946955 
L 56.596947 64.148885 
L 55.729447 64.350815 
L 55.013393 64.209568 
L 54.297339 64.068321 
L 53.581285 63.927073 
L 52.865231 63.785826 
L 52.149177 63.644579 
L 51.433123 63.503332 
L 50.717069 63.362084 
L 50.001014 63.220837 
L 49.194149 63.049443 
L 48.387284 62.878049 
L 47.580419 62.706655 
L 46.773554 62.535261 
L 45.966688 62.363867 
L 45.159823 62.192473 
L 44.352958 62.02108 
L 43.546093 61.849686 
L 42.456735 61.708308 
L 41.367378 61.566931 
L 40.278021 61.425554 
L 39.188663 61.284177 
L 38.205346 61.329656 
L 37.222029 61.375136 
L 36.238712 61.420616 
L 35.255395 61.466096 
" style="fill:none;stroke:#4169e1;stroke-linecap:square;stroke-width:0.421254;"/>
   </g>
   <g id="line2d_11">
    <path clip-path="url(#p3eec711a14)" d="M 53.69212 32.662561 
L 53.409722 33.348657 
L 53.127323 34.034752 
L 52.966383 35.002563 
L 52.905842 35.849787 
L 52.845301 36.697011 
L 52.764455 37.564506 
L 52.683609 38.432 
L 52.966007 39.158118 
L 53.248405 39.884236 
L 53.954588 40.630105 
L 54.660772 41.375974 
L 55.205262 41.860399 
L 55.749753 42.344824 
L 56.475866 42.566765 
L 57.201979 42.788707 
L 58.251101 43.030919 
" style="fill:none;stroke:#4169e1;stroke-linecap:square;stroke-width:0.421254;"/>
   </g>
   <g id="line2d_12">
    <path clip-path="url(#p3eec711a14)" d="M 52.845301 36.697011 
L 52.280505 37.947575 
L 51.877025 38.552587 
L 51.473546 39.157598 
L 50.384189 39.661775 
L 49.294831 40.165951 
L 48.165239 40.770962 
L 47.035646 41.375974 
L 45.906054 42.102611 
L 44.776461 42.829249 
L 43.849172 43.091992 
L 42.921884 43.354735 
L 41.994595 43.617479 
L 41.067306 43.880222 
" style="fill:none;stroke:#ff0000;stroke-linecap:square;stroke-width:0.421254;"/>
   </g>
   <g id="line2d_13">
    <path clip-path="url(#p3eec711a14)" d="M 54.660772 41.375974 
L 54.095975 42.505952 
L 53.69212 43.070422 
L 52.885913 43.998729 
L 52.118812 45.128708 
L 51.473546 46.176563 
L 50.666587 46.984284 
L 50.081485 47.66986 
L 49.496383 48.355436 
L 48.911657 48.879883 
L 48.326931 49.40433 
L 47.782065 49.848213 
L 47.237198 50.292096 
L 46.269298 50.897107 
L 45.50295 51.259906 
L 44.453828 51.502119 
L 43.445317 51.622705 
L 42.597746 51.784873 
L 41.428295 51.90546 
L 40.338561 51.90546 
" style="fill:none;stroke:#ff0000;stroke-linecap:square;stroke-width:0.421254;"/>
   </g>
   <g id="line2d_14">
    <path clip-path="url(#p3eec711a14)" d="M 53.833507 23.525018 
L 53.107394 24.695018 
L 52.381281 25.865019 
L 51.695403 26.954455 
L 51.009526 28.043892 
L 50.444729 28.749738 
L 49.879933 29.455585 
L 49.315137 30.161432 
L 48.75034 30.867278 
L 48.246085 31.492561 
L 47.741829 32.117843 
L 47.237574 32.743126 
L 46.733318 33.368408 
L 46.087864 34.17535 
L 45.442409 34.982292 
L 44.796955 35.789234 
L 44.1515 36.596175 
L 43.768138 37.221458 
L 43.384776 37.84674 
L 43.001414 38.472023 
L 42.618052 39.097305 
L 42.396195 39.783141 
L 42.174337 40.468976 
L 41.95248 41.154812 
L 41.730622 41.840647 
L 41.398964 42.860435 
L 41.067306 43.880222 
L 40.6815 45.067375 
L 40.580724 46.055716 
L 40.479948 47.044058 
L 40.379172 48.032399 
L 40.278397 49.02074 
L 40.293438 49.74192 
L 40.308479 50.4631 
L 40.32352 51.18428 
L 40.338561 51.90546 
L 39.864764 52.722537 
L 39.390967 53.539614 
L 38.745324 54.22519 
L 38.099682 54.910766 
L 37.454039 55.596341 
L 36.808397 56.281917 
L 35.678804 56.766342 
L 34.549212 57.250767 
L 33.782675 57.512991 
L 33.016139 57.775214 
L 32.249603 58.037438 
L 31.483067 58.299661 
L 30.353475 58.703002 
L 29.223882 59.106343 
L 27.973208 59.711355 
L 26.722534 60.316366 
" style="fill:none;stroke:#ff0000;stroke-linecap:square;stroke-width:0.421254;"/>
   </g>
   <g id="line2d_15">
    <path clip-path="url(#p3eec711a14)" d="M 60.066571 48.880403 
L 59.814632 49.838337 
L 59.562692 50.796272 
L 58.916673 51.684038 
L 58.351877 52.49072 
L 57.544918 53.45853 
L 57.343366 54.265212 
L 57.141814 55.071894 
L 57.262896 55.878576 
L 57.383977 56.685258 
L 57.70661 57.89632 
L 57.948773 58.581896 
L 58.190936 59.267472 
L 58.190936 59.99359 
L 58.190936 60.719707 
L 57.868303 61.768602 
L 57.222284 62.817496 
L 56.475866 63.584156 
L 55.729447 64.350815 
" style="fill:none;stroke:#4169e1;stroke-linecap:square;stroke-width:0.421254;"/>
   </g>
   <g id="line2d_16">
    <path clip-path="url(#p3eec711a14)" d="M 51.332159 22.718336 
L 50.081485 22.314995 
L 48.830811 21.911654 
L 48.306438 21.346924 
L 47.782065 20.782195 
L 47.257691 20.217466 
L 46.733318 19.652736 
L 45.765043 19.349971 
L 44.796767 19.047205 
L 43.828491 18.74444 
L 42.860215 18.441674 
L 41.831398 18.522498 
L 40.802582 18.603322 
L 39.773765 18.684146 
L 38.744948 18.76497 
L 37.917872 19.450806 
L 37.090795 20.136642 
L 36.263718 20.822477 
L 35.436641 21.508313 
L 35.194666 22.274842 
L 34.952691 23.041372 
L 34.710716 23.807902 
L 34.468741 24.574432 
L 34.226766 25.340961 
L 33.984791 26.107491 
L 33.742816 26.874021 
L 33.500841 27.640551 
L 33.319219 28.770009 
L 33.137597 29.899468 
L 32.955975 31.028927 
L 32.774352 32.158385 
L 32.532189 33.187009 
L 32.290027 34.215632 
L 32.047864 35.244255 
L 31.805701 36.272879 
L 31.755313 37.049544 
L 31.704925 37.826209 
L 31.654537 38.602875 
L 31.604149 39.37954 
L 31.553761 40.156205 
L 31.503373 40.93287 
L 31.452985 41.709536 
L 31.402597 42.486201 
L 30.999117 43.272872 
L 30.595638 44.059542 
L 30.192158 44.846213 
L 29.788678 45.632884 
L 29.223882 46.500119 
L 28.659086 47.367354 
L 28.09429 48.234589 
L 27.529493 49.101824 
L 26.803381 50.191001 
L 26.077268 51.280177 
L 25.351155 52.369354 
L 24.625042 53.45853 
L 24.423302 54.325765 
L 24.221562 55.193 
L 24.019822 56.060235 
L 23.818083 56.927471 
L 23.616155 58.138013 
L 23.414227 59.348556 
" style="fill:none;stroke:#000000;stroke-linecap:square;stroke-width:0.421254;"/>
   </g>
   <g id="line2d_17">
    <path clip-path="url(#p3eec711a14)" d="M 48.830811 21.911654 
L 47.8223 22.557207 
L 46.813789 23.202761 
L 46.26911 23.646384 
L 45.724431 24.090007 
L 45.179753 24.53363 
L 44.635074 24.977253 
L 44.05016 25.683359 
L 43.465246 26.389466 
L 42.880332 27.095573 
L 42.295419 27.801679 
L 41.670082 28.668914 
L 41.044745 29.536149 
L 40.419408 30.403384 
L 39.794071 31.270619 
L 39.229274 32.158385 
L 38.664478 33.046151 
L 37.897754 34.17561 
L 37.13103 35.305068 
L 36.606657 35.930351 
L 36.082284 36.555633 
L 35.557911 37.180916 
L 35.033538 37.806198 
L 34.226578 38.935657 
L 33.419619 40.065116 
L 32.915364 40.670387 
L 32.411108 41.275658 
L 31.906852 41.88093 
L 31.402597 42.486201 
" style="fill:none;stroke:#000000;stroke-linecap:square;stroke-width:0.421254;"/>
   </g>
   <g id="line2d_18">
    <path clip-path="url(#p3eec711a14)" d="M 42.860215 18.441674 
L 42.093679 18.17945 
L 41.327143 17.917227 
L 40.560607 17.655003 
L 39.794071 17.39278 
L 38.987111 17.271933 
L 38.180152 17.151087 
L 37.373193 17.03024 
L 36.566234 16.909394 
L 35.194854 17.111065 
L 33.823475 17.312735 
L 33.238373 17.736347 
L 32.653271 18.159959 
L 32.068169 18.583571 
L 31.483067 19.007183 
L 30.958882 20.056077 
L 30.434697 21.104972 
L 30.010912 21.871372 
L 29.587127 22.637771 
L 29.163341 23.404171 
L 28.739556 24.170571 
L 28.437041 24.836136 
L 28.134525 25.5017 
L 27.832009 26.167265 
L 27.529493 26.832829 
L 27.166437 27.518665 
L 26.803381 28.2045 
L 26.440324 28.890336 
L 26.077268 29.576171 
L 25.895645 30.32256 
L 25.714023 31.068949 
L 25.532401 31.815338 
L 25.350779 32.561726 
L 25.028145 33.892855 
L 24.705512 35.223984 
L 24.705512 36.272879 
L 24.705512 37.321773 
L 24.705512 38.209539 
L 24.705512 39.097305 
L 24.826594 40.307328 
L 24.947675 41.517351 
L 25.39139 42.405117 
L 25.835105 43.292883 
L 26.238584 44.220671 
L 26.642064 45.148459 
L 26.863921 46.1368 
L 27.085779 47.125142 
L 27.307636 48.113483 
L 27.529493 49.101824 
" style="fill:none;stroke:#4169e1;stroke-linecap:square;stroke-width:0.421254;"/>
   </g>
   <g id="line2d_19">
    <path clip-path="url(#p3eec711a14)" d="M 53.268711 18.76497 
L 53.046853 17.958029 
L 52.824996 17.151087 
L 52.603138 16.344145 
L 52.381281 15.537203 
L 52.098883 14.851628 
L 51.816485 14.166052 
L 51.45324 13.35885 
L 51.089996 12.551648 
L 50.78748 11.80552 
L 50.484964 11.059391 
L 50.182449 10.313262 
L 49.879933 9.567133 
L 49.698311 8.820745 
L 49.516689 8.074356 
L 49.335066 7.327967 
L 49.153444 6.581579 
L 48.588648 5.734355 
L 48.023852 4.887131 
L 47.096187 4.201035 
L 46.168522 3.51494 
L 45.079165 3.393834 
L 43.989807 3.272727 
L 42.658287 3.272727 
L 41.326767 3.272727 
L 39.955387 3.272727 
L 38.584008 3.272727 
L 37.454415 3.676588 
L 36.324823 4.080449 
L 35.517863 4.463519 
L 34.710904 4.846589 
L 33.903945 5.229659 
L 33.096986 5.612729 
L 32.370873 6.076883 
L 31.64476 6.541037 
L 30.918647 7.00519 
L 30.192534 7.469344 
" style="fill:none;stroke:#4169e1;stroke-linecap:square;stroke-width:0.421254;"/>
   </g>
   <g id="line2d_20">
    <path clip-path="url(#p3eec711a14)" d="M 30.192534 7.469344 
L 29.607432 8.013803 
L 29.02233 8.558261 
L 28.437229 9.102719 
L 27.852127 9.647178 
L 26.964697 10.696072 
L 26.077268 11.744967 
L 25.85541 12.531637 
L 25.633553 13.318308 
L 25.411695 14.104979 
L 25.189838 14.89165 
L 25.008216 15.638038 
L 24.826594 16.384427 
L 24.644971 17.130816 
L 24.463349 17.877205 
L 24.261797 18.724428 
L 24.060246 19.571652 
L 23.697001 20.782195 
L 23.333757 21.992738 
L 22.789078 23.182749 
L 22.244399 24.372761 
L 21.699721 25.562773 
L 21.155042 26.752785 
L 20.892949 27.418349 
L 20.630857 28.083914 
L 20.368764 28.749478 
L 20.106672 29.415043 
L 20.106672 30.181703 
L 20.106672 30.948362 
L 20.106672 31.916433 
L 20.106672 32.884503 
L 20.106672 33.852573 
L 20.106672 34.820644 
L 20.146907 35.748432 
L 20.187142 36.67622 
L 20.267988 37.765656 
L 20.348835 38.855093 
L 20.348835 39.944529 
L 20.348835 41.033965 
L 20.308224 42.405117 
L 20.267612 43.776268 
L 20.106296 44.482375 
L 19.944979 45.188481 
L 19.783662 45.894588 
L 19.622346 46.600694 
L 19.622346 47.347083 
L 19.622346 48.093472 
L 19.622346 48.839861 
L 19.622346 49.586249 
L 19.702816 50.675166 
L 19.783286 51.764082 
L 20.025449 53.095212 
L 20.267612 54.426341 
L 20.429117 55.293836 
L 20.590622 56.161331 
L 20.752126 57.028826 
L 20.913631 57.89632 
" style="fill:none;stroke:#008000;stroke-linecap:square;stroke-width:0.421254;"/>
   </g>
   <g id="line2d_21">
    <path clip-path="url(#p3eec711a14)" d="M 30.192534 7.469344 
L 29.385575 7.751579 
L 28.578616 8.033814 
L 27.650575 8.477697 
L 26.722534 8.92158 
L 25.996421 9.163532 
L 25.270308 9.405485 
L 24.544195 9.647438 
L 23.818083 9.88939 
L 22.446327 9.68772 
L 21.074572 9.486049 
" style="fill:none;stroke:#008000;stroke-linecap:square;stroke-width:0.421254;"/>
   </g>
   <g id="line2d_22">
    <path clip-path="url(#p3eec711a14)" d="M 21.074572 9.486049 
L 20.267612 9.284379 
L 19.460653 9.082708 
L 18.613459 8.92106 
L 17.766264 8.759412 
L 17.120998 9.042166 
L 16.475731 9.324921 
L 15.890629 10.071309 
L 15.305527 10.817698 
L 14.720426 11.564087 
L 14.135324 12.310476 
L 13.489869 12.97604 
L 12.844415 13.641605 
L 12.19896 14.307169 
L 11.553505 14.972734 
L 11.004502 15.636999 
L 10.375217 16.398721 
L 9.745932 17.160443 
L 9.116646 17.922165 
L 8.487361 18.683886 
L 7.841907 19.571392 
L 7.196452 20.458899 
L 6.550997 21.346405 
L 5.905543 22.233911 
L 5.905543 22.980299 
L 5.905543 23.726688 
L 5.905543 24.473077 
L 5.905543 25.219465 
L 6.149586 25.90712 
L 6.393629 26.594775 
L 6.715322 27.501512 
L 7.037015 28.40825 
L 7.358709 29.314987 
L 7.680402 30.221725 
L 7.721013 31.351703 
L 7.761624 32.481682 
L 7.88233 33.368928 
L 8.003035 34.256174 
L 8.144234 35.506739 
L 8.285433 36.757304 
L 8.426632 38.007869 
L 8.567831 39.258434 
L 8.769759 40.589563 
L 8.971687 41.920692 
L 9.092769 42.929564 
L 9.21385 43.938436 
L 9.052533 44.906247 
L 8.891217 45.874057 
L 8.245574 46.721281 
L 7.599932 47.568505 
L 7.559696 48.697964 
L 7.519461 49.827422 
L 7.519461 50.634624 
L 7.519461 51.441826 
L 7.842095 52.086859 
L 8.164728 52.731893 
L 9.011922 53.619659 
L 9.859117 54.507425 
L 10.706311 55.072414 
L 11.553505 55.637403 
" style="fill:none;stroke:#008000;stroke-linecap:square;stroke-width:0.421254;"/>
   </g>
   <g id="line2d_23">
    <path clip-path="url(#p3eec711a14)" d="M 21.074572 12.068263 
L 21.195653 12.996051 
L 21.316735 13.923839 
L 21.35697 15.053298 
L 21.397205 16.182757 
L 21.397205 17.231651 
L 21.316735 18.159439 
L 21.236264 19.087227 
L 20.832785 19.853887 
L 20.429305 20.620547 
L 19.823898 21.709983 
L 19.21849 22.79942 
L 19.13802 23.525537 
L 19.05755 24.251655 
L 18.936468 25.219985 
L 18.815387 26.188315 
L 18.694305 27.317774 
L 18.573224 28.447233 
L 18.210355 29.576691 
L 17.847487 30.70615 
L 17.585206 31.492821 
L 17.322926 32.279491 
L 17.060645 33.066162 
L 16.798364 33.852833 
L 16.697401 34.659775 
L 16.596437 35.466717 
L 16.495473 36.273659 
L 16.394509 37.0806 
L 16.192957 38.451752 
L 15.991405 39.822903 
L 15.910559 41.194574 
L 15.829713 42.566245 
L 15.668396 43.413469 
L 15.507079 44.260693 
L 15.305527 44.986811 
L 15.103976 45.712929 
L 14.942659 46.721801 
L 14.781342 47.730673 
L 14.61965 48.779048 
L 14.457957 49.827422 
L 14.457957 50.715188 
L 14.457957 51.602954 
L 14.457957 52.369614 
L 14.457957 53.136273 
L 14.861813 54.185168 
" style="fill:none;stroke:#008000;stroke-linecap:square;stroke-width:0.421254;"/>
   </g>
   <g id="line2d_24">
    <path clip-path="url(#p3eec711a14)" d="M 17.847487 30.70615 
L 18.129885 32.077821 
L 18.412283 33.449492 
L 18.412283 34.336738 
L 18.412283 35.223984 
L 18.331437 36.393985 
L 18.25059 37.563986 
L 18.210355 38.61288 
L 18.17012 39.661775 
L 18.089274 40.912339 
L 18.008427 42.162904 
L 17.766264 43.211799 
L 17.524101 44.260693 
L 17.443631 45.148459 
L 17.363161 46.036225 
L 17.161233 47.125142 
L 16.959305 48.214058 
L 16.91907 49.061282 
L 16.878835 49.908506 
L 16.8386 50.796272 
L 16.798364 51.684038 
L 16.8386 52.450178 
L 16.878835 53.216318 
L 17.040527 54.588509 
" style="fill:none;stroke:#008000;stroke-linecap:square;stroke-width:0.421254;"/>
   </g>
   <g id="line2d_25">
    <path clip-path="url(#p3eec711a14)" d="M 18.815387 10.938285 
L 18.573224 11.866073 
L 18.331061 12.793861 
L 18.331061 13.842755 
L 18.331061 14.89165 
L 17.927581 15.658309 
L 17.524101 16.424969 
L 17.140927 17.03024 
L 16.757753 17.635512 
L 16.374579 18.240783 
L 15.991405 18.846054 
L 16.03164 19.572172 
L 16.071876 20.29829 
L 16.394885 21.145514 
L 16.717894 21.992738 
L 16.758129 22.879984 
L 16.798364 23.76723 
L 16.596437 24.614454 
L 16.394509 25.461678 
L 16.03164 26.430008 
L 15.668772 27.398338 
L 15.063364 28.447233 
L 14.457957 29.496127 
L 14.054853 30.545021 
L 13.65175 31.593916 
L 13.65175 32.481682 
L 13.65175 33.207799 
L 13.65175 33.933917 
L 13.974383 35.14394 
L 14.054853 36.232857 
L 14.135324 37.321773 
L 13.893161 38.61288 
L 13.610763 39.298976 
L 13.328365 39.985071 
L 13.086578 40.791753 
L 12.844791 41.598435 
L 12.642863 42.485681 
L 12.440935 43.372927 
L 12.239195 44.058763 
L 12.037455 44.744598 
L 11.835716 45.430434 
L 11.633976 46.11627 
L 11.432236 46.802105 
L 11.230496 47.487941 
L 11.028756 48.173776 
L 10.827016 48.859612 
L 10.746546 50.231803 
" style="fill:none;stroke:#4169e1;stroke-linecap:square;stroke-width:0.421254;"/>
   </g>
   <g id="line2d_26">
    <path clip-path="url(#p3eec711a14)" d="M 18.331061 14.89165 
L 17.726029 15.416097 
L 17.120998 15.940544 
L 16.515966 16.62664 
L 15.910935 17.312735 
L 15.527573 17.958289 
L 15.144211 18.603842 
L 14.760849 19.249395 
L 14.377487 19.894949 
L 13.570527 20.539983 
L 12.763568 21.185016 
L 12.037455 21.366676 
L 11.311342 21.548335 
L 10.58523 21.729994 
L 9.859117 21.911654 
L 9.29432 22.355537 
L 8.729524 22.79942 
L 8.285809 23.76723 
L 7.842095 24.73504 
L 7.117862 25.664908 
L 6.393629 26.594775 
" style="fill:none;stroke:#008000;stroke-linecap:square;stroke-width:0.421254;"/>
   </g>
   <g id="line2d_27">
    <path clip-path="url(#p3eec711a14)" d="M 7.0953 42.26374 
L 7.135911 43.110964 
L 7.135911 43.878143 
L 7.135911 44.603741 
L 7.0953 45.652635 
L 6.853889 46.418775 
L 6.651585 47.629838 
L 6.490269 48.315413 
L 6.328952 49.000989 
L 6.1274 49.726587 
L 5.885237 50.412682 
L 5.643074 51.380493 
L 5.400911 51.986544 
L 5.239971 52.308801 
" style="fill:none;stroke:#008000;stroke-linecap:square;stroke-width:0.421254;"/>
   </g>
  </g>
 </g>
 <defs>
  <clipPath id="p3eec711a14">
   <rect height="72" width="90.990859" x="0" y="0"/>
  </clipPath>
 </defs>
</svg>
