<?xml version="1.0" encoding="utf-8" standalone="no"?>
<!DOCTYPE svg PUBLIC "-//W3C//DTD SVG 1.1//EN"
  "http://www.w3.org/Graphics/SVG/1.1/DTD/svg11.dtd">
<svg height="68.230601pt" version="1.1" viewBox="0 0 72 68.230601" width="72pt" xmlns="http://www.w3.org/2000/svg" xmlns:xlink="http://www.w3.org/1999/xlink">
 <metadata>
  <rdf:RDF xmlns:cc="http://creativecommons.org/ns#" xmlns:dc="http://purl.org/dc/elements/1.1/" xmlns:rdf="http://www.w3.org/1999/02/22-rdf-syntax-ns#">
   <cc:Work>
    <dc:type rdf:resource="http://purl.org/dc/dcmitype/StillImage"/>
    <dc:date>2022-04-19T00:55:35.144088</dc:date>
    <dc:format>image/svg+xml</dc:format>
    <dc:creator>
     <cc:Agent>
      <dc:title>Matplotlib v3.4.3, https://matplotlib.org/</dc:title>
     </cc:Agent>
    </dc:creator>
   </cc:Work>
  </rdf:RDF>
 </metadata>
 <defs>
  <style type="text/css">*{stroke-linecap:butt;stroke-linejoin:round;}</style>
 </defs>
 <g id="figure_1">
  <g id="patch_1">
   <path d="M 0 68.230601 
L 72 68.230601 
L 72 0 
L 0 0 
z
" style="fill:#ffffff;"/>
  </g>
  <g id="axes_1">
   <g id="line2d_1">
    <path clip-path="url(#pf3b2ad7134)" d="M 10.455857 59.949447 
L 10.260102 59.278342 
L 10.064348 58.607238 
" style="fill:none;stroke:#808080;stroke-linecap:square;stroke-width:0.4;"/>
   </g>
   <g id="line2d_2">
    <path clip-path="url(#pf3b2ad7134)" d="M 11.511456 60.963214 
L 11.252976 60.133128 
L 11.037857 59.441964 
L 10.822738 58.7508 
L 10.576782 57.960011 
L 10.330826 57.169222 
L 10.189799 56.715706 
L 10.048772 56.26219 
L 9.945422 55.929707 
" style="fill:none;stroke:#808080;stroke-linecap:square;stroke-width:0.4;"/>
   </g>
   <g id="line2d_3">
    <path clip-path="url(#pf3b2ad7134)" d="M 3.272727 58.734034 
L 3.986915 58.506172 
L 4.701102 58.27831 
L 5.415289 58.050448 
L 6.129477 57.822586 
L 6.843664 57.594725 
L 7.557851 57.366863 
L 8.272039 57.139001 
L 8.986226 56.911139 
" style="fill:none;stroke:#808080;stroke-linecap:square;stroke-width:0.4;"/>
   </g>
   <g id="line2d_4">
    <path clip-path="url(#pf3b2ad7134)" d="M 15.86983 63.084161 
L 16.101683 62.598385 
L 16.333537 62.112609 
L 16.680316 61.384768 
L 17.027096 60.656928 
L 17.359668 59.959177 
L 17.69224 59.261426 
L 18.073539 58.461131 
L 18.454839 57.660836 
L 18.729948 57.083668 
L 19.005056 56.506501 
L 19.280165 55.929333 
L 19.555273 55.352165 
L 19.808806 54.819908 
L 20.06234 54.28765 
L 20.393859 53.592145 
L 20.725378 52.896639 
L 20.996224 52.328229 
L 21.26707 51.759819 
L 21.537916 51.191409 
L 21.808762 50.622998 
L 22.087028 50.039019 
L 22.365294 49.45504 
L 22.64356 48.871061 
L 22.921825 48.287083 
L 23.196829 47.710139 
L 23.471832 47.133196 
L 23.741415 46.567481 
L 24.010998 46.001765 
L 24.280581 45.43605 
L 24.550164 44.870334 
L 24.851215 44.238563 
L 25.152266 43.606793 
L 25.453318 42.975022 
L 25.754369 42.343251 
L 26.060524 41.700665 
L 26.36668 41.058078 
L 26.672835 40.415492 
L 26.978991 39.772906 
L 27.191637 39.326725 
L 27.404283 38.880545 
L 27.616929 38.434365 
L 27.829575 37.988184 
L 28.225398 37.15735 
L 28.621222 36.326516 
L 28.981367 35.570907 
L 29.341513 34.815297 
L 29.615359 34.240599 
L 29.889204 33.665902 
L 30.16305 33.091204 
L 30.436895 32.516506 
L 30.743156 31.873733 
L 31.049417 31.230959 
L 31.355677 30.588186 
L 31.661938 29.945412 
L 31.892107 29.462368 
L 32.122276 28.979324 
L 32.352445 28.49628 
L 32.582615 28.013237 
L 32.96623 27.208076 
L 33.349845 26.402916 
L 33.671682 25.727545 
L 33.993519 25.052174 
L 34.333984 24.337582 
L 34.674449 23.62299 
L 34.972501 22.997544 
L 35.260028 22.393506 
" style="fill:none;stroke:#808080;stroke-linecap:square;stroke-width:0.4;"/>
   </g>
   <g id="line2d_5">
    <path clip-path="url(#pf3b2ad7134)" d="M 32.104806 23.461614 
L 32.058498 22.94253 
L 32.012191 22.423445 
L 31.968409 21.932168 
L 31.924628 21.440891 
L 31.880846 20.949613 
L 31.837064 20.458336 
L 31.75329 19.518371 
L 31.669516 18.578406 
L 31.621472 18.039412 
L 31.573428 17.500417 
L 31.525384 16.961423 
L 31.47734 16.422429 
L 31.395039 15.499679 
L 31.347416 14.964989 
L 31.299793 14.430299 
L 31.25217 13.895608 
L 31.204547 13.360918 
L 31.149504 12.743631 
L 31.094461 12.126344 
L 31.039418 11.509057 
L 30.984376 10.891769 
L 30.90418 9.99125 
L 30.823983 9.090731 
L 30.77836 8.578907 
L 30.732737 8.067084 
L 30.687113 7.55526 
L 30.64149 7.043436 
L 30.565293 6.188351 
L 30.489096 5.333265 
L 30.43037 4.674736 
L 30.371644 4.016207 
L 30.341123 3.672645 
L 30.298394 3.192558 
" style="fill:none;stroke:#808080;stroke-linecap:square;stroke-width:0.4;"/>
   </g>
   <g id="line2d_6">
    <path clip-path="url(#pf3b2ad7134)" d="M 28.45241 65.12921 
L 28.314172 64.292463 
L 28.175933 63.455716 
L 28.037695 62.618969 
L 27.899457 61.782221 
L 27.761218 60.945474 
L 27.62298 60.108727 
L 27.484742 59.27198 
L 27.346503 58.435233 
L 27.208265 57.598486 
L 27.070027 56.761739 
L 26.931789 55.924992 
L 26.79355 55.088245 
L 26.655312 54.251497 
L 26.517074 53.41475 
L 26.378835 52.578003 
L 26.240597 51.741256 
" style="fill:none;stroke:#808080;stroke-linecap:square;stroke-width:0.4;"/>
   </g>
   <g id="line2d_7">
    <path clip-path="url(#pf3b2ad7134)" d="M 67.391092 46.723169 
L 67.015265 46.19892 
L 66.639438 45.674671 
L 66.232563 45.107009 
L 65.825689 44.539348 
L 65.436707 43.996836 
L 65.047724 43.454323 
L 64.745778 43.033031 
L 64.443832 42.611738 
L 64.141887 42.190445 
L 63.839941 41.769153 
L 63.521735 41.325255 
L 63.203529 40.881358 
L 62.885323 40.43746 
L 62.567117 39.993563 
L 62.039844 39.258163 
L 61.51257 38.522762 
L 61.23362 38.133655 
L 60.95467 37.744548 
L 60.675721 37.355441 
L 60.396771 36.966333 
L 59.894756 36.265888 
L 59.392741 35.565443 
L 58.863362 34.826824 
L 58.333984 34.088205 
L 57.913428 33.501531 
L 57.492872 32.914858 
L 57.128306 32.406178 
L 56.76374 31.897498 
L 56.399174 31.388818 
L 56.034608 30.880138 
L 55.693564 30.404392 
L 55.35252 29.928646 
L 55.011476 29.4529 
L 54.670432 28.977154 
L 54.344806 28.522964 
L 54.019181 28.068775 
L 53.693555 27.614586 
L 53.367929 27.160397 
L 53.001206 26.648872 
L 52.634482 26.137348 
L 52.267759 25.625824 
L 51.901035 25.1143 
L 51.366184 24.368271 
L 50.831333 23.622242 
L 50.522546 23.191181 
L 50.21376 22.76012 
" style="fill:none;stroke:#808080;stroke-linecap:square;stroke-width:0.4;"/>
   </g>
   <g id="line2d_8">
    <path clip-path="url(#pf3b2ad7134)" d="M 35.602914 22.76012 
L 36.020312 24.398285 
L 36.486018 25.209396 
L 37.192522 25.618938 
L 37.995325 25.811676 
L 38.324477 25.956211 
L 39.263834 26.775369 
L 39.873988 27.482102 
L 40.548235 28.879362 
L 40.772984 29.192534 
L 41.375086 29.433439 
L 42.025338 29.505744 
L 43.069045 30.252521 
L 44.658548 31.963029 
L 45.766402 32.878518 
L 47.163203 34.396362 
L 49.57156 36.701065 
L 50.839858 36.893841 
L 52.172355 37.696869 
L 51.972391 38.202405 
L 51.209002 38.772911 
L 50.350209 39.447496 
L 49.475156 39.600077 
L 48.592051 40.073914 
L 47.861604 40.716314 
L 47.548555 41.198197 
L 47.612754 41.744302 
L 47.998158 42.097594 
L 47.652852 43.077342 
L 46.858153 44.016858 
L 46.649401 44.346085 
L 45.959051 45.759551 
L 44.425748 47.397753 
L 42.948593 48.048199 
L 42.274345 48.393482 
L 41.587916 48.449769 
L 40.090685 48.04019 
L 38.970703 47.546349 
L 36.881894 47.110854 
L 36.510066 46.94798 
L 33.740222 44.896269 
L 33.001592 44.362253 
L 32.744691 44.249828 
L 32.263093 44.667341 
L 32.519889 46.498319 
L 31.757131 48.449731 
L 31.66078 48.73882 
L 30.207673 50.545753 
L 28.634114 50.907091 
L 27.484163 51.004284 
L 24.159498 52.225909 
L 23.11758 51.874863 
L 22.415601 52.611012 
L 20.410172 52.710188 
L 19.388777 52.52718 
L 17.726418 54.095192 
L 16.534027 55.592883 
L 15.759166 56.873808 
L 15.088602 58.913561 
L 14.972097 60.872926 
L 15.337505 62.784162 
L 15.337505 62.784162 
" style="fill:none;stroke:#4169e1;stroke-linecap:square;stroke-width:0.4;"/>
   </g>
   <g id="line2d_9">
    <path clip-path="url(#pf3b2ad7134)" d="M 34.543104 22.374643 
L 33.150197 26.508332 
L 32.744743 28.453672 
L 28.8892 36.249122 
L 27.452905 37.986126 
L 26.10378 40.28922 
L 24.650567 42.166531 
L 23.888809 43.213812 
L 22.844997 46.820548 
L 21.712938 49.212639 
L 21.223184 49.959491 
L 19.884477 51.761316 
L 19.211572 52.942017 
L 16.208243 60.190164 
L 15.594512 62.912754 
L 15.594512 62.912754 
" style="fill:none;stroke:#4169e1;stroke-linecap:square;stroke-width:0.4;"/>
   </g>
   <g id="line2d_10">
    <path clip-path="url(#pf3b2ad7134)" d="M 35.840134 23.790205 
L 34.848233 25.313756 
L 34.206007 27.506128 
L 33.772427 29.54184 
L 32.985595 31.368833 
L 32.295087 33.039183 
L 30.769756 37.520204 
L 30.617178 38.118461 
L 30.496674 39.367182 
L 30.593078 44.860154 
L 31.042681 45.823772 
L 30.769677 47.714949 
L 29.79822 48.931634 
L 26.373889 51.292699 
L 25.981275 51.702334 
L 25.981275 51.702334 
" style="fill:none;stroke:#000000;stroke-linecap:square;stroke-width:0.4;"/>
   </g>
   <g id="line2d_11">
    <path clip-path="url(#pf3b2ad7134)" d="M 26.352998 39.94027 
L 26.357102 40.197885 
L 26.361207 40.455499 
L 26.365312 40.713114 
L 26.369416 40.970729 
L 26.373521 41.228343 
L 26.377625 41.485958 
L 26.38173 41.743573 
L 26.385834 42.001187 
L 26.43401 42.185898 
L 26.482185 42.370609 
L 26.530361 42.55532 
L 26.578536 42.740031 
L 26.626712 42.924742 
L 26.674887 43.109452 
L 26.723063 43.294163 
L 26.771239 43.478874 
L 26.773251 43.629444 
L 26.775264 43.780014 
L 26.777277 43.930584 
L 26.77929 44.081154 
L 26.781302 44.231724 
L 26.783315 44.382294 
L 26.785328 44.532864 
L 26.787341 44.683434 
L 26.789354 44.834004 
L 26.791366 44.984574 
L 26.793379 45.135144 
L 26.795392 45.285714 
L 26.797405 45.436283 
L 26.799418 45.586853 
L 26.80143 45.737423 
L 26.803443 45.887993 
L 26.811494 46.14499 
L 26.819546 46.401988 
L 26.827597 46.658985 
L 26.835648 46.915982 
L 26.679071 47.136808 
L 26.522494 47.357634 
L 26.365917 47.57846 
L 26.20934 47.799286 
L 26.052762 48.020112 
L 25.896185 48.240938 
L 25.739608 48.461763 
L 25.583031 48.682589 
L 25.478655 48.8673 
L 25.374279 49.052011 
L 25.269903 49.236722 
L 25.165527 49.421433 
L 25.061151 49.606144 
L 24.956775 49.790855 
L 24.852399 49.975565 
L 24.748023 50.160276 
L 24.715898 50.30483 
L 24.683772 50.449384 
L 24.651646 50.593938 
L 24.61952 50.738492 
L 24.587394 50.883046 
L 24.555269 51.0276 
L 24.523143 51.172153 
L 24.491017 51.316707 
L 24.447867 51.560568 
L 24.404717 51.804429 
L 24.361567 52.04829 
L 24.318416 52.292151 
" style="fill:none;stroke:#000000;stroke-linecap:square;stroke-width:0.4;"/>
   </g>
   <g id="line2d_12">
    <path clip-path="url(#pf3b2ad7134)" d="M 24.514171 52.254726 
L 24.395981 52.494022 
L 24.277792 52.733317 
L 24.159603 52.972612 
L 24.041414 53.211907 
L 23.937038 53.412654 
L 23.832662 53.613402 
L 23.728286 53.814149 
L 23.62391 54.014897 
L 23.519534 54.215644 
L 23.415158 54.416392 
L 23.310782 54.617139 
L 23.206406 54.817887 
L 23.053854 54.974491 
L 22.901303 55.131096 
L 22.748751 55.287701 
L 22.5962 55.444306 
L 22.443648 55.60091 
L 22.291097 55.757515 
L 22.138545 55.91412 
L 21.985994 56.070724 
L 21.873567 56.167094 
L 21.761139 56.263463 
L 21.648712 56.359832 
L 21.536285 56.456201 
L 21.423858 56.552571 
L 21.311431 56.64894 
L 21.199004 56.745309 
L 21.086577 56.841678 
L 20.901926 57.050472 
L 20.717275 57.259266 
L 20.532624 57.46806 
L 20.347973 57.676854 
L 20.207445 57.781251 
L 20.066918 57.885648 
L 19.92639 57.990044 
L 19.785863 58.094441 
L 19.645336 58.198838 
L 19.504808 58.303235 
L 19.364281 58.407632 
L 19.223754 58.512029 
L 19.159528 58.640509 
L 19.095303 58.768989 
L 19.031078 58.897469 
L 18.966852 59.025948 
L 18.902627 59.154428 
L 18.838402 59.282908 
L 18.774177 59.411388 
L 18.709951 59.539868 
L 18.537324 59.748662 
L 18.364698 59.957456 
L 18.192071 60.166249 
L 18.019444 60.375043 
L 17.846817 60.583837 
L 17.67419 60.792631 
L 17.501563 61.001425 
L 17.328936 61.210218 
L 17.142023 61.29042 
L 16.955109 61.370622 
L 16.768195 61.450823 
L 16.581281 61.531025 
L 16.394368 61.611227 
L 16.207454 61.691429 
L 16.02054 61.77163 
L 15.833626 61.851832 
" style="fill:none;stroke:#4169e1;stroke-linecap:square;stroke-width:0.4;"/>
   </g>
   <g id="line2d_13">
    <path clip-path="url(#pf3b2ad7134)" d="M 27.29767 51.077337 
L 27.337979 51.291969 
L 27.378287 51.506602 
L 27.418596 51.721234 
L 27.458904 51.935866 
L 27.605799 52.071269 
L 27.752694 52.206673 
L 27.899588 52.342076 
L 28.046483 52.47748 
L 28.193378 52.612883 
L 28.340272 52.748287 
L 28.487167 52.88369 
L 28.634061 53.019094 
L 28.782587 53.131518 
L 28.931113 53.243943 
L 29.079639 53.356367 
L 29.228165 53.468792 
L 29.376691 53.581216 
L 29.525217 53.693641 
L 29.673743 53.806066 
L 29.822269 53.91849 
L 29.926645 54.063044 
L 30.031021 54.207598 
L 30.135397 54.352152 
L 30.239773 54.496706 
L 30.344149 54.64126 
L 30.448525 54.785813 
L 30.552901 54.930367 
L 30.657277 55.074921 
L 30.753628 55.255609 
L 30.849979 55.436297 
L 30.94633 55.616984 
L 31.042681 55.797672 
L 31.139032 55.97836 
L 31.235383 56.159047 
L 31.331734 56.339735 
L 31.428085 56.520423 
L 31.355835 56.777382 
L 31.283585 57.034342 
L 31.211335 57.291302 
L 31.139085 57.548262 
L 31.074833 57.716917 
L 31.010581 57.885573 
L 30.94633 58.054228 
L 30.882078 58.222884 
L 30.817827 58.391539 
L 30.753575 58.560195 
L 30.689323 58.72885 
L 30.625072 58.897506 
L 30.544823 59.130364 
L 30.464574 59.363222 
L 30.384326 59.59608 
L 30.304077 59.828938 
L 30.247876 60.021677 
L 30.191676 60.214415 
L 30.135476 60.407154 
L 30.079275 60.599892 
L 30.033099 60.754485 
L 29.986923 60.909079 
L 29.940747 61.063672 
L 29.894572 61.218265 
L 29.848396 61.372858 
L 29.80222 61.527451 
L 29.756044 61.682044 
L 29.709868 61.836637 
L 29.663692 61.99123 
L 29.617516 62.145824 
L 29.57134 62.300417 
L 29.525164 62.45501 
L 29.478988 62.609603 
L 29.432813 62.764196 
L 29.386637 62.918789 
L 29.340461 63.073382 
L 29.248135 63.294208 
L 29.15581 63.515034 
L 29.063484 63.73586 
L 28.971159 63.956686 
L 28.878833 64.177512 
L 28.786508 64.398338 
L 28.694182 64.619164 
L 28.601857 64.83999 
" style="fill:none;stroke:#4169e1;stroke-linecap:square;stroke-width:0.4;"/>
   </g>
   <g id="line2d_14">
    <path clip-path="url(#pf3b2ad7134)" d="M 20.952706 50.25324 
L 20.716512 50.346016 
L 20.480317 50.438793 
L 20.244123 50.531569 
L 20.007928 50.624346 
L 19.771734 50.717122 
L 19.53554 50.809899 
L 19.299345 50.902675 
L 19.063151 50.995452 
L 18.946724 51.139996 
L 18.830298 51.284541 
L 18.713872 51.429085 
L 18.597445 51.57363 
L 18.481019 51.718174 
L 18.364592 51.862719 
L 18.248166 52.007263 
L 18.131739 52.151808 
L 18.015313 52.296352 
L 17.898887 52.440897 
L 17.78246 52.585441 
L 17.666034 52.729986 
L 17.549607 52.87453 
L 17.433181 53.019075 
L 17.316754 53.163619 
L 17.200328 53.308164 
L 17.079902 53.47682 
L 16.959477 53.645475 
L 16.839051 53.814131 
L 16.718625 53.982786 
L 16.598199 54.151442 
L 16.477774 54.320097 
L 16.357348 54.488753 
L 16.236922 54.657408 
L 16.072294 54.870207 
L 15.907666 55.083005 
L 15.743037 55.295803 
L 15.578409 55.508602 
L 15.413781 55.7214 
L 15.249153 55.934198 
L 15.084524 56.146996 
L 14.919896 56.359795 
L 14.807495 56.480266 
L 14.695094 56.600737 
L 14.582693 56.721208 
L 14.470293 56.841678 
L 14.26554 56.986214 
L 14.060787 57.130749 
L 13.856035 57.275284 
L 13.651282 57.419819 
L 13.446529 57.564354 
L 13.241777 57.708889 
L 13.037024 57.853425 
L 12.832271 57.99796 
L 12.731895 58.150541 
L 12.631518 58.303123 
L 12.531141 58.455704 
L 12.430765 58.608286 
L 12.330388 58.760868 
L 12.230011 58.913449 
L 12.129635 59.066031 
L 12.029258 59.218612 
L 12.001158 59.3993 
L 11.973057 59.579987 
L 11.944957 59.760675 
L 11.916857 59.941363 
L 11.888757 60.12205 
L 11.860657 60.302738 
L 11.832556 60.483426 
L 11.804456 60.664114 
L 11.932907 60.752474 
L 12.061357 60.840834 
L 12.189808 60.929194 
L 12.318259 61.017555 
L 12.567214 61.154044 
L 12.816169 61.290532 
L 13.065124 61.427021 
L 13.314079 61.56351 
L 13.438531 61.679958 
L 13.562982 61.796406 
L 13.687433 61.912853 
L 13.811885 62.029301 
L 13.936336 62.145749 
L 14.060787 62.262196 
L 14.185239 62.378644 
L 14.30969 62.495092 
L 14.438193 62.65572 
L 14.566696 62.816348 
L 14.6952 62.976976 
L 14.823703 63.137604 
" style="fill:none;stroke:#008000;stroke-linecap:square;stroke-width:0.4;"/>
   </g>
   <g id="line2d_15">
    <path clip-path="url(#pf3b2ad7134)" d="M 9.620217 55.974318 
L 9.668419 56.11889 
L 9.716621 56.263463 
L 9.764823 56.408036 
L 9.813025 56.552608 
L 9.885275 56.689097 
L 9.957525 56.825586 
L 10.029775 56.962075 
L 10.102026 57.098563 
L 10.270679 57.23509 
L 10.439333 57.371616 
L 10.607987 57.508142 
L 10.776641 57.644668 
L 10.84084 57.789241 
L 10.905039 57.933813 
L 10.969238 58.078386 
L 11.033437 58.222959 
L 11.073588 58.407651 
L 11.113738 58.592343 
L 11.153889 58.777035 
L 11.19404 58.961727 
L 11.282366 59.214682 
L 11.370692 59.467638 
L 11.459018 59.720593 
L 11.547345 59.973548 
L 11.635671 60.226504 
L 11.723997 60.479459 
L 11.812323 60.732414 
L 11.900649 60.985369 
" style="fill:none;stroke:#008000;stroke-linecap:square;stroke-width:0.4;"/>
   </g>
   <g id="line2d_16">
    <path clip-path="url(#pf3b2ad7134)" d="M 9.813025 56.552608 
L 9.606325 56.642241 
L 9.399626 56.731874 
L 9.192926 56.821506 
L 8.986226 56.911139 
L 8.788446 57.014881 
L 8.590666 57.118623 
L 8.392885 57.222365 
L 8.195105 57.326107 
L 7.997325 57.429849 
L 7.799545 57.533591 
L 7.601765 57.637333 
L 7.403984 57.741075 
L 7.20723 57.797287 
L 7.010476 57.853499 
L 6.813722 57.909712 
L 6.616968 57.965924 
L 6.420214 58.022136 
L 6.22346 58.078349 
L 6.026706 58.134561 
L 5.829952 58.190773 
L 5.693437 58.232932 
L 5.556922 58.275092 
L 5.420407 58.317251 
L 5.283892 58.35941 
L 5.147377 58.401569 
L 5.010862 58.443728 
L 4.874347 58.485888 
L 4.737832 58.528047 
L 4.601317 58.570206 
L 4.464802 58.612365 
L 4.328287 58.654524 
L 4.191773 58.696684 
L 4.055258 58.738843 
L 3.918743 58.781002 
L 3.782228 58.823161 
L 3.645713 58.865321 
" style="fill:none;stroke:#008000;stroke-linecap:square;stroke-width:0.4;"/>
   </g>
   <g id="line2d_17">
    <path clip-path="url(#pf3b2ad7134)" d="M 34.543104 22.374643 
L 34.370504 22.446911 
L 34.197903 22.519179 
L 34.025302 22.591446 
L 33.852702 22.663714 
L 33.680101 22.735981 
L 33.507501 22.808249 
L 33.3349 22.880516 
L 33.1623 22.952784 
L 32.954863 23.052596 
L 32.747427 23.152409 
L 32.539991 23.252221 
L 32.332554 23.352033 
L 32.104806 23.461614 
L 31.92789 23.498402 
L 31.750975 23.535191 
L 31.574059 23.57198 
L 31.397143 23.608769 
L 31.220228 23.645557 
L 31.043312 23.682346 
L 30.866397 23.719135 
L 30.689481 23.755924 
L 30.562978 23.852536 
L 30.436474 23.949149 
L 30.309971 24.045761 
L 30.183467 24.142374 
L 30.056963 24.238986 
L 29.93046 24.335599 
L 29.803956 24.432211 
L 29.677453 24.528824 
L 29.550897 24.621263 
L 29.42434 24.713703 
L 29.297784 24.806143 
L 29.171228 24.898582 
L 29.044672 24.991022 
L 28.918116 25.083461 
L 28.791559 25.175901 
L 28.665003 25.268341 
L 28.496534 25.384452 
L 28.328064 25.500563 
L 28.159594 25.616674 
L 27.991124 25.732784 
L 27.822655 25.848895 
L 27.654185 25.965006 
L 27.485715 26.081117 
L 27.317246 26.197228 
L 27.156696 26.245394 
L 26.996145 26.29356 
L 26.835595 26.341726 
L 26.675045 26.389892 
L 26.514443 26.438058 
L 26.35384 26.486224 
L 26.193237 26.53439 
L 26.032634 26.582555 
L 25.823883 26.598629 
L 25.615131 26.614703 
L 25.406379 26.630777 
L 25.197627 26.646852 
L 24.988875 26.662926 
L 24.780123 26.679 
L 24.571371 26.695074 
L 24.362619 26.711148 
L 24.169917 26.711148 
L 23.977215 26.711148 
L 23.784512 26.711148 
L 23.59181 26.711148 
L 23.399108 26.711148 
L 23.206406 26.711148 
L 23.013704 26.711148 
L 22.821001 26.711148 
L 22.64035 26.779411 
L 22.459698 26.847674 
L 22.279046 26.915937 
L 22.098395 26.9842 
L 21.917743 27.052463 
L 21.737091 27.120726 
L 21.556439 27.188989 
L 21.375788 27.257253 
L 21.215816 27.434422 
L 21.055845 27.611592 
L 20.895874 27.788762 
L 20.735903 27.965931 
L 20.494367 28.101934 
L 20.252832 28.237936 
L 20.011296 28.373938 
L 19.769761 28.509941 
" style="fill:none;stroke:#000000;stroke-linecap:square;stroke-width:0.4;"/>
   </g>
   <g id="line2d_18">
    <path clip-path="url(#pf3b2ad7134)" d="M 19.769761 28.509941 
L 19.705562 28.742836 
L 19.641363 28.975732 
L 19.577164 29.208627 
L 19.512965 29.441523 
L 19.577164 29.714538 
L 19.641363 29.987553 
L 19.705562 30.260568 
L 19.769761 30.533583 
L 19.769761 30.686164 
L 19.769761 30.838746 
L 19.769761 30.991327 
L 19.769761 31.143909 
L 19.769761 31.29649 
L 19.769761 31.449072 
L 19.769761 31.601653 
L 19.769761 31.754235 
L 19.769761 31.902812 
L 19.769761 32.051389 
L 19.769761 32.199966 
L 19.769761 32.348543 
L 19.769761 32.49712 
L 19.769761 32.645697 
L 19.769761 32.794274 
L 19.769761 32.942851 
L 19.725611 33.195807 
L 19.681461 33.448762 
L 19.637311 33.701717 
L 19.593161 33.954673 
L 19.549011 34.207628 
L 19.504861 34.460583 
L 19.460711 34.713538 
L 19.416561 34.966494 
L 19.344285 35.119075 
L 19.272008 35.271657 
L 19.199732 35.424238 
L 19.127455 35.57682 
L 19.055179 35.729401 
L 18.982902 35.881983 
L 18.910626 36.034564 
L 18.838349 36.187146 
L 18.770098 36.448129 
L 18.701847 36.709112 
L 18.633597 36.970095 
L 18.565346 37.231078 
L 18.497095 37.49206 
L 18.428844 37.753043 
L 18.360593 38.014026 
L 18.292342 38.275009 
L 18.280318 38.503881 
L 18.268294 38.732754 
L 18.25627 38.961626 
L 18.244246 39.190498 
L 18.232221 39.419371 
L 18.220197 39.648243 
L 18.208173 39.877115 
L 18.196149 40.105988 
L 18.216224 40.310777 
L 18.2363 40.515566 
L 18.256375 40.720356 
L 18.27645 40.925145 
L 18.296526 41.129934 
L 18.316601 41.334724 
L 18.336676 41.539513 
L 18.356752 41.744302 
L 18.431738 42.013669 
L 18.506725 42.283035 
L 18.581711 42.552401 
L 18.656698 42.821767 
L 18.731684 43.091133 
L 18.806671 43.360499 
L 18.881657 43.629865 
L 18.956644 43.899231 
L 19.009897 44.090548 
L 19.063151 44.281864 
L 19.135427 44.462552 
L 19.207704 44.643239 
L 19.27998 44.823927 
L 19.352257 45.004615 
L 19.424533 45.185302 
L 19.49681 45.36599 
L 19.569086 45.546678 
L 19.641363 45.727365 
L 19.737714 45.984363 
L 19.834065 46.24136 
L 19.930416 46.498357 
L 20.026767 46.755354 
L 20.171267 46.980203 
L 20.315768 47.205052 
L 20.428221 47.30943 
L 20.540675 47.413809 
L 20.653128 47.518187 
L 20.765582 47.622565 
L 20.781579 47.815304 
L 20.797576 48.008042 
L 20.748322 48.143446 
L 20.699067 48.278849 
L 20.619818 48.496812 
L 20.540569 48.714775 
L 20.448244 48.871361 
L 20.355918 49.027947 
L 20.263593 49.184533 
L 20.171267 49.341119 
L 20.078942 49.497705 
L 19.986616 49.654291 
L 19.894291 49.810877 
L 19.801965 49.967463 
L 19.709614 50.095962 
L 19.617262 50.22446 
L 19.52491 50.352959 
L 19.432558 50.481457 
L 19.340206 50.609956 
L 19.247855 50.738454 
L 19.155503 50.866953 
L 19.063151 50.995452 
" style="fill:none;stroke:#000000;stroke-linecap:square;stroke-width:0.4;"/>
   </g>
   <g id="line2d_19">
    <path clip-path="url(#pf3b2ad7134)" d="M 19.769761 30.533583 
L 19.874163 30.734368 
L 19.978565 30.935152 
L 20.082968 31.135937 
L 20.18737 31.336722 
L 20.22752 31.47323 
L 20.267671 31.609737 
L 20.307822 31.746245 
L 20.347973 31.882752 
L 20.388123 32.01926 
L 20.428274 32.155767 
L 20.468425 32.292275 
L 20.508575 32.428782 
L 20.5166 32.585387 
L 20.524625 32.741992 
L 20.53265 32.898596 
L 20.540675 33.055201 
L 20.5487 33.211806 
L 20.556724 33.368411 
L 20.564749 33.525015 
L 20.572774 33.68162 
L 20.572774 33.898423 
L 20.572774 34.115226 
L 20.572774 34.332028 
L 20.572774 34.548831 
L 20.572774 34.749616 
L 20.572774 34.950401 
L 20.572774 35.151186 
L 20.572774 35.351971 
L 20.620976 35.584866 
L 20.669178 35.817762 
L 20.71738 36.050657 
L 20.765582 36.283553 
L 20.737455 36.456194 
L 20.709329 36.628835 
L 20.681202 36.801476 
L 20.653076 36.974118 
L 20.624949 37.146759 
L 20.596823 37.3194 
L 20.568696 37.492042 
L 20.540569 37.664683 
L 20.534676 37.888634 
L 20.528151 38.1298 
L 20.521625 38.370967 
L 20.5151 38.612133 
L 20.508575 38.8533 
L 20.532676 39.046038 
L 20.556777 39.238777 
L 20.580878 39.431515 
L 20.604979 39.624254 
L 20.524678 39.881213 
L 20.444376 40.138173 
L 20.364075 40.395133 
L 20.283774 40.652093 
L 20.207892 40.886972 
L 20.132011 41.121851 
L 20.05613 41.35673 
L 19.980249 41.591609 
L 19.894344 41.772633 
L 19.808438 41.953658 
L 19.722532 42.134682 
L 19.636627 42.315707 
L 19.550721 42.496731 
L 19.464816 42.677756 
L 19.37891 42.85878 
L 19.293004 43.039805 
L 19.208914 43.254661 
L 19.124824 43.469518 
L 19.040734 43.684375 
L 18.956644 43.899231 
" style="fill:none;stroke:#000000;stroke-linecap:square;stroke-width:0.4;"/>
   </g>
   <g id="line2d_20">
    <path clip-path="url(#pf3b2ad7134)" d="M 20.534676 37.888634 
L 20.640551 38.017376 
L 20.746427 38.146118 
L 20.852303 38.274859 
L 20.958179 38.403601 
L 21.05453 38.50798 
L 21.150881 38.612358 
L 21.247232 38.716736 
L 21.343583 38.821114 
L 21.44396 38.94559 
L 21.544336 39.070065 
L 21.644713 39.19454 
L 21.74509 39.319016 
L 21.845466 39.443491 
L 21.945843 39.567966 
L 22.04622 39.692442 
L 22.146596 39.816917 
L 22.234923 39.997605 
L 22.323249 40.178293 
L 22.411575 40.35898 
L 22.499901 40.539668 
L 22.588228 40.720356 
L 22.676554 40.901043 
L 22.76488 41.081731 
L 22.853206 41.262419 
" style="fill:none;stroke:#ff0000;stroke-linecap:square;stroke-width:0.4;"/>
   </g>
   <g id="line2d_21">
    <path clip-path="url(#pf3b2ad7134)" d="M 26.675045 26.389892 
L 26.596533 26.556957 
L 26.513995 26.732817 
L 26.431458 26.908676 
L 26.34892 27.084536 
L 26.266382 27.260396 
L 26.183844 27.436256 
L 26.101306 27.612116 
L 26.018769 27.787976 
L 25.936231 27.963836 
L 25.904131 28.132472 
L 25.872032 28.301109 
L 25.839932 28.469746 
L 25.807833 28.638383 
L 25.775733 28.80702 
L 25.743634 28.975657 
L 25.711534 29.144294 
L 25.679435 29.31293 
L 25.646125 29.53763 
L 25.612815 29.762329 
L 25.579505 29.987029 
L 25.546196 30.211728 
L 25.515254 30.420709 
L 25.484312 30.62969 
L 25.45337 30.838671 
L 25.422428 31.047652 
L 25.370254 31.276505 
L 25.318079 31.505359 
L 25.265904 31.734213 
L 25.213729 31.963066 
L 25.161554 32.19192 
L 25.109379 32.420773 
L 25.057205 32.649627 
L 25.00503 32.878481 
L 24.904653 33.023034 
L 24.804276 33.167588 
L 24.7039 33.312142 
L 24.603523 33.456696 
L 24.503146 33.60125 
L 24.40277 33.745804 
L 24.302393 33.890358 
L 24.202016 34.034912 
L 24.173916 34.243705 
L 24.145816 34.452499 
L 24.117716 34.661293 
L 24.089615 34.870087 
L 24.061515 35.078881 
L 24.033415 35.287675 
L 24.005315 35.496468 
L 23.977215 35.705262 
L 23.94109 35.869895 
L 23.904964 36.034527 
L 23.868839 36.199159 
L 23.832714 36.363792 
L 23.796589 36.528424 
L 23.760464 36.693056 
L 23.724339 36.857689 
L 23.688214 37.022321 
L 23.656062 37.24717 
L 23.62391 37.472019 
L 23.591758 37.696869 
L 23.559606 37.921718 
L 23.551607 38.178677 
L 23.543608 38.435637 
L 23.53561 38.692597 
L 23.527611 38.949557 
L 23.479409 39.206554 
L 23.431208 39.463551 
L 23.383006 39.720548 
L 23.334804 39.977545 
L 23.326805 40.170284 
L 23.318807 40.363022 
L 23.310808 40.555761 
L 23.30281 40.748499 
L 23.190409 40.876979 
L 23.078008 41.005459 
L 22.965607 41.133939 
L 22.853206 41.262419 
L 22.793059 41.503697 
L 22.732912 41.744976 
L 22.672765 41.986255 
L 22.612618 42.227533 
L 22.626615 42.391979 
L 22.640613 42.556424 
L 22.65461 42.720869 
L 22.668608 42.885314 
L 22.682605 43.04976 
L 22.696603 43.214205 
L 22.7106 43.37865 
L 22.724598 43.543095 
L 22.732649 43.808101 
L 22.7407 44.073108 
L 22.748751 44.338114 
L 22.756803 44.60312 
L 22.720677 44.751678 
L 22.684552 44.900236 
L 22.648427 45.048795 
L 22.612302 45.197353 
L 22.576177 45.345912 
L 22.540052 45.49447 
L 22.503927 45.643028 
L 22.467802 45.791587 
L 22.459751 46.008427 
L 22.451699 46.225267 
L 22.443648 46.442107 
L 22.435597 46.658947 
L 22.479694 46.836117 
L 22.523792 47.013287 
L 22.567889 47.190457 
L 22.611986 47.367626 
" style="fill:none;stroke:#ff0000;stroke-linecap:square;stroke-width:0.4;"/>
   </g>
   <g id="line2d_22">
    <path clip-path="url(#pf3b2ad7134)" d="M 25.546196 30.211728 
L 25.65115 30.364403 
L 25.756105 30.517078 
L 25.86106 30.669753 
L 25.966015 30.822428 
L 26.07097 30.975104 
L 26.175925 31.127779 
L 26.280879 31.280454 
L 26.385834 31.433129 
L 26.570538 31.577664 
L 26.755241 31.722199 
L 26.939945 31.866734 
L 27.124649 32.01127 
L 27.253099 32.163851 
L 27.38155 32.316433 
L 27.51 32.469014 
L 27.638451 32.621596 
L 27.694651 32.846445 
L 27.750852 33.071294 
L 27.807052 33.296143 
L 27.863253 33.520992 
L 27.843177 33.741837 
L 27.823102 33.962681 
L 27.803027 34.183526 
L 27.782951 34.404371 
L 27.762876 34.625215 
L 27.742801 34.84606 
L 27.722725 35.066905 
L 27.70265 35.287749 
L 27.7147 35.444335 
L 27.726751 35.600921 
L 27.738801 35.757507 
L 27.750852 35.914093 
L 27.762902 36.070679 
L 27.774953 36.227265 
L 27.787003 36.383851 
L 27.799054 36.540437 
L 27.804579 36.761544 
L 27.810104 36.982651 
L 27.81563 37.203757 
L 27.821155 37.424864 
" style="fill:none;stroke:#000000;stroke-linecap:square;stroke-width:0.4;"/>
   </g>
   <g id="line2d_23">
    <path clip-path="url(#pf3b2ad7134)" d="M 33.711675 24.616997 
L 33.562912 24.611364 
L 33.414149 24.605732 
L 33.265386 24.600099 
L 33.116624 24.594467 
L 32.967861 24.588835 
L 32.819098 24.583202 
L 32.670336 24.57757 
L 32.521573 24.571937 
L 32.272249 24.640949 
L 32.022926 24.70996 
L 31.773602 24.778972 
L 31.524279 24.847984 
L 31.391829 25.068828 
L 31.259379 25.289673 
L 31.126929 25.510518 
L 30.994479 25.731362 
L 30.862029 25.952207 
L 30.729579 26.173052 
L 30.597129 26.393896 
L 30.46468 26.614741 
L 30.392403 26.791405 
L 30.320127 26.96807 
L 30.24785 27.144734 
L 30.175574 27.321399 
L 30.103297 27.498063 
L 30.031021 27.674728 
L 29.958744 27.851392 
L 29.886468 28.028057 
L 29.790117 28.236851 
L 29.693766 28.445644 
L 29.597415 28.654438 
L 29.501063 28.863232 
L 29.404712 29.072026 
L 29.308361 29.28082 
L 29.21201 29.489614 
L 29.115659 29.698407 
L 29.03941 29.911224 
L 28.96316 30.124041 
L 28.886911 30.336858 
L 28.810661 30.549675 
L 28.734412 30.762492 
L 28.658162 30.975309 
L 28.581913 31.188126 
L 28.505663 31.400943 
L 28.425362 31.665949 
L 28.345061 31.930956 
L 28.264759 32.195962 
L 28.184458 32.460968 
L 28.104157 32.725974 
L 28.023855 32.99098 
L 27.943554 33.255986 
L 27.863253 33.520992 
" style="fill:none;stroke:#ff0000;stroke-dasharray:1.48,0.64;stroke-dashoffset:0;stroke-width:0.4;"/>
   </g>
   <g id="line2d_24">
    <path clip-path="url(#pf3b2ad7134)" d="M 20.699067 48.278849 
L 20.498893 48.307517 
L 20.298718 48.336184 
L 20.098544 48.364852 
L 19.898369 48.393519 
L 19.721717 48.32926 
L 19.545064 48.265002 
L 19.368412 48.200743 
L 19.191759 48.136485 
L 18.999057 48.11242 
L 18.806355 48.088356 
L 18.613653 48.064292 
L 18.420951 48.040228 
L 18.155946 48.12855 
L 17.890941 48.216873 
L 17.625936 48.305196 
L 17.360931 48.393519 
L 17.152179 48.465787 
L 16.943427 48.538054 
L 16.734675 48.610322 
L 16.525923 48.682589 
L 16.377371 48.706691 
L 16.228819 48.730793 
L 16.080266 48.754894 
L 15.931714 48.778996 
L 15.783162 48.803098 
L 15.63461 48.827199 
L 15.486057 48.851301 
L 15.337505 48.875403 
L 15.160853 48.891458 
L 14.9842 48.907513 
L 14.807548 48.923569 
L 14.630895 48.939624 
L 14.454243 48.955679 
L 14.27759 48.971735 
L 14.100938 48.98779 
L 13.924286 49.003845 
L 13.763683 49.044002 
L 13.60308 49.084159 
L 13.442477 49.124316 
L 13.281875 49.164473 
L 13.121272 49.20463 
L 12.960669 49.244787 
L 12.800067 49.284944 
L 12.639464 49.325101 
L 12.466837 49.44153 
L 12.29421 49.557959 
L 12.121583 49.674388 
L 11.948957 49.790817 
L 11.77633 49.907246 
L 11.603703 50.023675 
L 11.431076 50.140104 
L 11.258449 50.256533 
L 11.121921 50.413138 
L 10.985393 50.569743 
L 10.848865 50.726347 
L 10.712337 50.882952 
L 10.575809 51.039557 
L 10.439281 51.196162 
L 10.302753 51.352766 
L 10.166224 51.509371 
L 10.069873 51.621796 
L 9.973522 51.73422 
L 9.877171 51.846645 
L 9.78082 51.959069 
L 9.684469 52.071494 
L 9.588118 52.183918 
L 9.491767 52.296343 
L 9.395416 52.408768 
L 9.266939 52.489081 
L 9.138462 52.569395 
L 9.009985 52.649709 
L 8.881508 52.730023 
L 8.753031 52.810337 
L 8.624554 52.890651 
L 8.496077 52.970965 
L 8.367601 53.051279 
L 8.206998 53.147648 
L 8.046395 53.244018 
L 7.885792 53.340387 
L 7.72519 53.436756 
L 7.596687 53.55719 
L 7.468183 53.677623 
L 7.33968 53.798057 
L 7.211177 53.91849 
L 7.082016 54.006551 
L 6.952855 54.094612 
L 6.823694 54.182673 
L 6.694533 54.270734 
L 6.565372 54.358795 
L 6.436211 54.446856 
L 6.30705 54.534917 
L 6.177889 54.622977 
L 5.954403 54.760065 
L 5.730917 54.897153 
L 5.507431 55.03424 
L 5.283945 55.171328 
L 5.175517 55.327914 
L 5.067089 55.4845 
L 4.958661 55.641086 
L 4.850233 55.797672 
L 4.741805 55.954258 
L 4.633377 56.110844 
L 4.524949 56.26743 
L 4.416522 56.424016 
L 4.328222 56.544487 
L 4.239922 56.664958 
L 4.151622 56.785429 
L 4.063322 56.9059 
L 4.055271 57.130749 
L 4.04722 57.355598 
L 4.039168 57.580447 
L 4.031117 57.805296 
L 3.934766 58.070302 
L 3.838415 58.335308 
L 3.742064 58.600314 
L 3.645713 58.865321 
" style="fill:none;stroke:#008000;stroke-linecap:square;stroke-width:0.4;"/>
   </g>
   <g id="line2d_25">
    <path clip-path="url(#pf3b2ad7134)" d="M 30.689481 37.696869 
L 30.78578 37.865505 
L 30.882078 38.034142 
L 30.978377 38.202779 
L 31.074675 38.371416 
L 31.163001 38.511947 
L 31.251328 38.652477 
L 31.339654 38.793008 
L 31.42798 38.933539 
L 31.516306 39.074069 
L 31.604633 39.2146 
L 31.692959 39.355131 
L 31.781285 39.495661 
L 31.869611 39.708478 
L 31.957937 39.921295 
L 32.046264 40.134112 
L 32.13459 40.346929 
L 32.222916 40.559746 
L 32.311242 40.772563 
L 32.399568 40.98538 
L 32.487895 41.198197 
L 32.503944 41.36283 
L 32.519994 41.527462 
L 32.536044 41.692095 
L 32.552094 41.856727 
L 32.568143 42.021359 
L 32.584193 42.185992 
L 32.600243 42.350624 
L 32.616293 42.515256 
L 32.624291 42.756161 
L 32.63229 42.997065 
L 32.640288 43.23797 
L 32.648287 43.478874 
L 32.672388 43.671613 
L 32.696489 43.864351 
L 32.72059 44.05709 
L 32.744691 44.249828 
" style="fill:none;stroke:#ff0000;stroke-linecap:square;stroke-width:0.4;"/>
   </g>
   <g id="line2d_26">
    <path clip-path="url(#pf3b2ad7134)" d="M 40.002333 22.310422 
L 39.942133 22.515193 
L 39.881934 22.719963 
L 39.821734 22.924734 
L 39.761534 23.129505 
L 39.701334 23.334275 
L 39.641135 23.539046 
L 39.580935 23.743817 
L 39.520735 23.948587 
L 39.584934 24.197538 
L 39.649133 24.446489 
L 39.713332 24.69544 
L 39.777531 24.94439 
L 39.749431 25.105 
L 39.721331 25.265609 
L 39.693231 25.426218 
L 39.66513 25.586827 
L 39.63703 25.747436 
L 39.60893 25.908045 
L 39.58083 26.068655 
L 39.55273 26.229264 
L 39.440329 26.438058 
L 39.327928 26.646852 
L 39.215527 26.855645 
L 39.103126 27.064439 
L 38.990725 27.273233 
L 38.878325 27.482027 
L 38.765924 27.690821 
L 38.653523 27.899614 
L 38.629448 28.116436 
L 38.605374 28.333257 
L 38.581299 28.550079 
L 38.557224 28.7669 
L 38.53315 28.983722 
L 38.509075 29.200543 
L 38.485001 29.417365 
L 38.460926 29.634186 
L 38.396701 29.88716 
L 38.332475 30.140134 
L 38.26825 30.393108 
L 38.204025 30.646082 
L 38.139799 30.899056 
L 38.075574 31.15203 
L 38.011349 31.405004 
L 37.947124 31.657978 
L 37.931074 31.858725 
L 37.915024 32.059473 
L 37.898974 32.26022 
L 37.882925 32.460968 
L 37.866875 32.661715 
L 37.850825 32.862463 
L 37.834775 33.06321 
L 37.818726 33.263958 
L 37.762525 33.408511 
L 37.706325 33.553065 
L 37.650124 33.697619 
L 37.593924 33.842173 
L 37.537723 33.986727 
L 37.481523 34.131281 
L 37.425323 34.275835 
L 37.369122 34.420389 
L 37.312922 34.564943 
L 37.256721 34.709496 
L 37.200521 34.85405 
L 37.144321 34.998604 
L 37.08812 35.143158 
L 37.03192 35.287712 
L 36.975719 35.432266 
L 36.919519 35.57682 
L 36.819168 35.81372 
L 36.718818 36.05062 
L 36.618468 36.28752 
L 36.518117 36.52442 
L 36.417767 36.76132 
L 36.317417 36.998219 
L 36.217066 37.235119 
L 36.116716 37.472019 
L 35.964164 37.696869 
L 35.811613 37.921718 
L 35.659061 38.146567 
L 35.50651 38.371416 
L 35.353958 38.596265 
L 35.201407 38.821114 
L 35.048855 39.045963 
L 34.896304 39.270812 
L 34.816029 39.395288 
L 34.735754 39.519763 
L 34.655479 39.644239 
L 34.575204 39.768714 
L 34.494929 39.893189 
L 34.414654 40.017665 
L 34.334378 40.14214 
L 34.254103 40.266616 
L 34.173828 40.391091 
L 34.093553 40.515566 
L 34.013278 40.640042 
L 33.933003 40.764517 
L 33.852728 40.888993 
L 33.772453 41.013468 
L 33.692178 41.137943 
L 33.611903 41.262419 
L 33.487452 41.419023 
L 33.363001 41.575628 
L 33.238549 41.732233 
L 33.114098 41.888838 
L 32.989647 42.045442 
L 32.865195 42.202047 
L 32.740744 42.358652 
L 32.616293 42.515256 
" style="fill:none;stroke:#ff0000;stroke-linecap:square;stroke-width:0.4;"/>
   </g>
   <g id="line2d_27">
    <path clip-path="url(#pf3b2ad7134)" d="M 50.085151 22.47105 
L 49.936652 22.450972 
L 49.788152 22.430893 
L 49.639653 22.410815 
L 49.491153 22.390736 
L 49.342653 22.370658 
L 49.194154 22.350579 
L 49.045654 22.330501 
L 48.897154 22.310422 
L 48.724554 22.302394 
L 48.551953 22.294367 
L 48.379353 22.286339 
L 48.206752 22.278312 
L 48.034152 22.270284 
L 47.861551 22.262256 
L 47.688951 22.254229 
L 47.51635 22.246201 
L 47.351801 22.286339 
L 47.187251 22.326477 
L 47.022702 22.366616 
L 46.858153 22.406754 
L 46.693603 22.446892 
L 46.529054 22.48703 
L 46.364505 22.527169 
L 46.199955 22.567307 
L 46.059454 22.631566 
L 45.918953 22.695824 
L 45.778452 22.760083 
L 45.637951 22.824342 
L 45.49745 22.8886 
L 45.356949 22.952859 
L 45.216448 23.017118 
L 45.075947 23.081376 
L 44.828623 23.038712 
L 44.581299 22.996047 
L 44.363022 22.958398 
L 44.144746 22.920748 
L 43.95207 22.896647 
L 43.759394 22.872545 
L 43.566718 22.848443 
L 43.374042 22.824342 
L 43.181367 22.80024 
L 42.988691 22.776138 
L 42.796015 22.752037 
L 42.603339 22.727935 
L 42.394613 22.703852 
L 42.185888 22.679769 
L 41.977162 22.655686 
L 41.768436 22.631603 
L 41.559711 22.60752 
L 41.350985 22.583437 
L 41.14226 22.559354 
L 40.933534 22.535271 
L 40.700734 22.479059 
L 40.467933 22.422847 
L 40.235133 22.366634 
L 40.002333 22.310422 
L 39.793607 22.306399 
L 39.584882 22.302376 
L 39.376156 22.298353 
L 39.16743 22.294329 
L 38.958705 22.290306 
L 38.749979 22.286283 
L 38.541254 22.28226 
L 38.332528 22.278237 
L 38.131827 22.290287 
L 37.931126 22.302338 
L 37.730426 22.314389 
L 37.529725 22.32644 
L 37.329024 22.338491 
L 37.128323 22.350542 
L 36.927623 22.362592 
L 36.726922 22.374643 
L 36.453918 22.374643 
L 36.180915 22.374643 
L 35.907911 22.374643 
L 35.634908 22.374643 
L 35.361957 22.374643 
L 35.089006 22.374643 
L 34.816055 22.374643 
L 34.543104 22.374643 
" style="fill:none;stroke:#4169e1;stroke-linecap:square;stroke-width:0.4;"/>
   </g>
   <g id="line2d_28">
    <path clip-path="url(#pf3b2ad7134)" d="M 44.581299 22.996047 
L 45.152328 24.860072 
L 45.473454 27.188933 
L 45.533654 28.630411 
L 45.373051 30.814681 
L 44.373678 34.315973 
L 44.176951 34.773718 
L 43.494442 35.809678 
L 42.66759 36.620751 
L 41.752518 38.030138 
L 40.335589 40.724398 
L 39.877934 41.531485 
L 39.472428 42.402794 
L 38.448875 44.008886 
L 38.220074 45.574765 
L 37.845352 46.677248 
L 37.443425 47.214034 
L 37.443425 47.214034 
" style="fill:none;stroke:#4169e1;stroke-linecap:square;stroke-width:0.4;"/>
   </g>
   <g id="line2d_29">
    <path clip-path="url(#pf3b2ad7134)" d="M 30.657277 3.358276 
L 31.283532 3.575228 
L 33.033691 3.551089 
L 34.141703 4.113175 
L 34.824054 4.787797 
L 35.586811 6.16904 
L 36.385694 7.6506 
L 37.565824 8.790994 
L 38.664573 9.744807 
L 39.352029 10.328823 
L 40.235212 10.90309 
L 41.26279 12.420841 
L 41.768542 13.798042 
L 41.165361 14.428165 
L 39.19953 15.468392 
L 38.460926 17.500155 
L 38.388755 19.620185 
L 36.598313 22.888563 
L 35.685846 24.007569 
L 35.685846 24.007569 
" style="fill:none;stroke:#4169e1;stroke-linecap:square;stroke-width:0.4;"/>
   </g>
   <g id="line2d_30">
    <path clip-path="url(#pf3b2ad7134)" d="M 33.033691 3.551089 
L 35.177727 3.528821 
L 35.976136 3.398489 
L 37.553773 3.173696 
L 39.609667 3.158464 
L 41.792537 3.856215 
L 42.458839 4.081101 
L 43.175236 4.269873 
L 43.580084 4.367234 
L 44.979648 5.237458 
L 45.729619 5.679783 
L 46.46175 6.36728 
L 46.906933 7.135576 
L 47.171202 8.144591 
L 47.102372 9.598064 
L 46.725413 11.204062 
L 45.785609 12.38626 
L 44.59427 13.308224 
L 42.796146 13.926484 
L 41.768542 13.798042 
L 41.768542 13.798042 
" style="fill:none;stroke:#4169e1;stroke-linecap:square;stroke-width:0.4;"/>
   </g>
   <g id="line2d_31">
    <path clip-path="url(#pf3b2ad7134)" d="M 42.025338 3.904381 
L 42.153788 4.105166 
L 42.282239 4.305951 
L 42.410689 4.506735 
L 42.53914 4.70752 
L 42.66759 4.884166 
L 42.796041 5.060812 
L 42.924492 5.237458 
L 43.052942 5.414103 
L 43.205494 5.63899 
L 43.358045 5.863876 
L 43.510597 6.088763 
L 43.663148 6.31365 
L 43.775523 6.434102 
L 43.887897 6.554554 
L 44.000272 6.675006 
L 44.112646 6.795458 
L 44.225021 6.915911 
L 44.337395 7.036363 
L 44.44977 7.156815 
L 44.562145 7.277267 
L 44.630395 7.445904 
L 44.698646 7.614541 
L 44.766897 7.783178 
L 44.835148 7.951815 
L 44.903399 8.120451 
L 44.97165 8.289088 
L 45.039901 8.457725 
L 45.108152 8.626362 
L 45.051951 8.811073 
L 44.995751 8.995784 
L 44.93955 9.180495 
L 44.88335 9.365205 
L 44.82715 9.549916 
L 44.770949 9.734627 
L 44.714749 9.919338 
L 44.658548 10.104049 
L 44.586298 10.250605 
L 44.514048 10.397161 
L 44.441798 10.543717 
L 44.369548 10.690273 
L 44.297297 10.836829 
L 44.225047 10.983386 
L 44.152797 11.129942 
L 44.080547 11.276498 
L 44.008297 11.423054 
L 43.936047 11.56961 
L 43.863796 11.716166 
L 43.791546 11.862722 
L 43.719296 12.009278 
L 43.647046 12.155835 
L 43.574796 12.302391 
L 43.502546 12.448947 
L 43.414246 12.633639 
L 43.325946 12.818331 
L 43.237646 13.003023 
L 43.149346 13.187715 
L 43.061046 13.372408 
L 42.972746 13.5571 
L 42.884446 13.741792 
L 42.796146 13.926484 
" style="fill:none;stroke:#4169e1;stroke-linecap:square;stroke-width:0.4;"/>
   </g>
   <g id="line2d_32">
    <path clip-path="url(#pf3b2ad7134)" d="M 34.480589 3.558574 
L 34.680869 3.701238 
L 34.881149 3.843902 
L 35.081428 3.986566 
L 35.281708 4.12923 
L 35.442258 4.273802 
L 35.602808 4.418375 
L 35.763358 4.562948 
L 35.923908 4.70752 
L 36.068461 4.900259 
L 36.213014 5.092997 
L 36.357567 5.285736 
L 36.50212 5.478474 
L 36.570345 5.614982 
L 36.638569 5.751489 
L 36.706794 5.887997 
L 36.775019 6.024504 
L 36.843243 6.161012 
L 36.911468 6.297519 
L 36.979692 6.434027 
L 37.047917 6.570534 
L 37.224569 6.787375 
L 37.401222 7.004215 
L 37.577874 7.221055 
L 37.754527 7.437895 
L 37.832197 7.637894 
L 37.92518 7.876965 
L 38.018163 8.116035 
L 38.111147 8.355106 
L 38.20413 8.594177 
L 38.282695 8.843876 
L 38.36126 9.093575 
L 38.439824 9.343274 
L 38.518389 9.592974 
" style="fill:none;stroke:#000000;stroke-linecap:square;stroke-width:0.4;"/>
   </g>
   <g id="line2d_33">
    <path clip-path="url(#pf3b2ad7134)" d="M 40.069058 3.329683 
L 39.939976 3.521561 
L 39.810894 3.713439 
L 39.681812 3.905316 
L 39.55273 4.097194 
L 39.416254 4.31802 
L 39.279779 4.538846 
L 39.143303 4.759672 
L 39.006828 4.980498 
L 38.870352 5.201324 
L 38.733877 5.42215 
L 38.597401 5.642976 
L 38.460926 5.863802 
L 38.382335 6.085563 
L 38.303744 6.307325 
L 38.225152 6.529086 
L 38.146561 6.750848 
L 38.06797 6.972609 
L 37.989379 7.194371 
L 37.910788 7.416133 
L 37.832197 7.637894 
" style="fill:none;stroke:#000000;stroke-linecap:square;stroke-width:0.4;"/>
   </g>
   <g id="line2d_34">
    <path clip-path="url(#pf3b2ad7134)" d="M 41.094137 3.711717 
L 41.110186 3.952622 
L 41.126236 4.193526 
L 41.142286 4.43443 
L 41.158336 4.675335 
L 41.178411 4.819889 
L 41.198486 4.964443 
L 41.218562 5.108996 
L 41.238637 5.25355 
L 41.258712 5.398104 
L 41.278788 5.542658 
L 41.298863 5.687212 
L 41.318938 5.831766 
L 41.359089 6.112827 
L 41.39924 6.393889 
L 41.43939 6.67495 
L 41.479541 6.956011 
L 41.495591 7.221018 
L 41.51164 7.486024 
L 41.52769 7.75103 
L 41.54374 8.016036 
L 41.549397 8.17352 
L 41.555054 8.331004 
L 41.560711 8.488488 
L 41.566367 8.645973 
L 41.572024 8.803457 
L 41.577681 8.960941 
L 41.583338 9.118425 
L 41.588995 9.27591 
L 41.595389 9.455718 
L 41.601782 9.635526 
L 41.608176 9.815334 
L 41.614569 9.995142 
L 41.620963 10.17495 
L 41.627356 10.354759 
L 41.63375 10.534567 
L 41.640144 10.714375 
L 41.591942 10.939224 
L 41.54374 11.164073 
L 41.495538 11.388922 
L 41.447336 11.613772 
L 41.383137 11.766353 
L 41.318938 11.918935 
L 41.254739 12.071516 
L 41.19054 12.224098 
" style="fill:none;stroke:#000000;stroke-linecap:square;stroke-width:0.4;"/>
   </g>
   <g id="line2d_35">
    <path clip-path="url(#pf3b2ad7134)" d="M 29.982872 3.262019 
L 29.926671 3.51097 
L 29.870471 3.75992 
L 29.81427 4.008871 
L 29.75807 4.257822 
L 29.77412 4.47062 
L 29.790169 4.683419 
L 29.806219 4.896217 
L 29.822269 5.109015 
L 29.838319 5.321813 
L 29.854368 5.534612 
L 29.870418 5.74741 
L 29.886468 5.960208 
L 29.946694 6.136892 
L 30.00692 6.313575 
L 30.067146 6.490258 
L 30.127372 6.666941 
L 30.187598 6.843624 
L 30.247824 7.020308 
L 30.30805 7.196991 
L 30.368276 7.373674 
L 30.476651 7.602528 
L 30.585026 7.831381 
L 30.693402 8.060235 
L 30.801777 8.289088 
L 30.910152 8.517942 
L 31.018527 8.746796 
L 31.126903 8.975649 
L 31.235278 9.204503 
L 31.271403 9.405269 
L 31.307528 9.606035 
L 31.343653 9.806801 
L 31.379778 10.007567 
L 31.415903 10.208334 
L 31.452028 10.4091 
L 31.488153 10.609866 
L 31.524279 10.810632 
L 31.427954 11.039504 
L 31.331629 11.268377 
L 31.235304 11.497249 
L 31.138979 11.726121 
L 31.042655 11.954994 
L 30.94633 12.183866 
L 30.850005 12.412738 
L 30.75368 12.64161 
L 30.639411 12.798552 
L 30.525142 12.955494 
L 30.410873 13.112435 
L 30.296605 13.269377 
L 30.182336 13.426318 
L 30.068067 13.58326 
L 29.953798 13.740201 
L 29.839529 13.897143 
L 29.718261 14.101614 
L 29.596994 14.306085 
L 29.475726 14.510557 
L 29.354458 14.715028 
L 29.233191 14.919499 
L 29.111923 15.12397 
L 28.990655 15.328441 
L 28.869388 15.532913 
L 28.783824 15.677298 
L 28.69826 15.821684 
L 28.614118 16.05544 
L 28.529975 16.289196 
L 28.445832 16.522952 
L 28.361689 16.756709 
L 28.301332 16.924485 
L 28.240974 17.092261 
L 28.180617 17.260037 
L 28.120259 17.427813 
L 28.072084 17.676764 
L 28.023908 17.925715 
L 27.975732 18.174665 
L 27.927557 18.423616 
L 27.879381 18.672567 
L 27.831206 18.921518 
L 27.78303 19.170468 
L 27.734855 19.419419 
L 27.793265 19.592397 
L 27.851676 19.765376 
L 27.929241 19.995165 
L 28.006806 20.224954 
L 28.084371 20.454743 
L 28.161936 20.684532 
L 28.304068 20.882211 
L 28.4462 21.07989 
L 28.588333 21.277568 
L 28.730465 21.475247 
L 28.939217 21.579625 
L 29.147969 21.684003 
L 29.356721 21.788381 
L 29.565473 21.89276 
L 29.701948 21.948972 
L 29.838424 22.005184 
L 29.974899 22.061396 
L 30.111375 22.117609 
L 30.24785 22.173821 
L 30.384326 22.230033 
L 30.520801 22.286246 
L 30.657277 22.342458 
L 30.801777 22.406717 
L 30.946277 22.470975 
L 31.090778 22.535234 
L 31.235278 22.599492 
L 31.492232 22.695862 
L 31.749185 22.792231 
L 32.006139 22.8886 
L 32.263093 22.984969 
L 32.487895 23.14556 
L 32.712696 23.30615 
L 32.937498 23.466741 
L 33.1623 23.627331 
L 33.299643 23.874748 
L 33.436987 24.122164 
L 33.574331 24.36958 
L 33.711675 24.616997 
" style="fill:none;stroke:#4169e1;stroke-linecap:square;stroke-width:0.4;"/>
   </g>
   <g id="line2d_36">
    <path clip-path="url(#pf3b2ad7134)" d="M 31.81349 3.551089 
L 31.917839 3.791994 
L 32.022189 4.032898 
L 32.126539 4.273802 
L 32.230888 4.514707 
L 32.271039 4.735552 
L 32.31119 4.956396 
L 32.35134 5.177241 
L 32.391491 5.398086 
L 32.431642 5.61893 
L 32.471792 5.839775 
L 32.511943 6.060619 
L 32.552094 6.281464 
L 32.628369 6.510336 
L 32.704645 6.739209 
L 32.780921 6.968081 
L 32.857197 7.196953 
L 32.933472 7.425826 
L 33.009748 7.654698 
L 33.086024 7.88357 
L 33.1623 8.112443 
L 33.174324 8.301158 
L 33.186348 8.489873 
L 33.198372 8.678589 
L 33.210396 8.867304 
L 33.222421 9.056019 
L 33.234445 9.244735 
L 33.246469 9.43345 
L 33.258493 9.622165 
L 33.254494 9.887171 
L 33.250494 10.152177 
L 33.246495 10.417183 
L 33.242496 10.68219 
L 33.238497 10.947196 
L 33.234497 11.212202 
L 33.230498 11.477208 
L 33.226499 11.742214 
L 33.190361 11.904835 
L 33.154222 12.067456 
L 33.118084 12.230076 
L 33.081946 12.392697 
L 33.045808 12.555318 
L 33.009669 12.717939 
L 32.973531 12.880559 
L 32.937393 13.04318 
L 32.901255 13.205801 
L 32.865116 13.368422 
L 32.828978 13.531043 
L 32.79284 13.693663 
L 32.756702 13.856284 
L 32.720563 14.018905 
L 32.684425 14.181526 
L 32.648287 14.344146 
L 32.624212 14.613157 
L 32.600138 14.882168 
L 32.576063 15.151178 
L 32.551988 15.420189 
L 32.527914 15.689199 
L 32.503839 15.95821 
L 32.479765 16.22722 
L 32.45569 16.496231 
L 32.42759 16.757233 
L 32.39949 17.018234 
L 32.371389 17.279236 
L 32.343289 17.540238 
L 32.315189 17.801239 
L 32.287089 18.062241 
L 32.258989 18.323242 
L 32.230888 18.584244 
L 32.236914 18.744853 
L 32.242939 18.905462 
L 32.248964 19.066072 
L 32.254989 19.226681 
L 32.261014 19.38729 
L 32.26704 19.547899 
L 32.273065 19.708508 
L 32.27909 19.869118 
L 32.285115 20.029727 
L 32.291141 20.190336 
L 32.297166 20.350945 
L 32.303191 20.511554 
L 32.309216 20.672163 
L 32.315242 20.832773 
L 32.321267 20.993382 
L 32.327292 21.153991 
L 32.32795 21.428746 
L 32.328608 21.703502 
L 32.329265 21.978257 
L 32.329923 22.253012 
L 32.330581 22.527768 
L 32.331239 22.802523 
L 32.331896 23.077278 
L 32.332554 23.352033 
" style="fill:none;stroke:#000000;stroke-linecap:square;stroke-width:0.4;"/>
   </g>
   <g id="line2d_37">
    <path clip-path="url(#pf3b2ad7134)" d="M 29.661666 3.390461 
L 27.955526 5.149172 
L 25.717533 8.554094 
L 24.390719 11.244312 
L 22.82508 14.737558 
L 21.685548 16.901412 
L 21.058476 18.190683 
L 20.926026 20.202368 
L 21.375788 22.446948 
L 21.266913 24.230266 
L 20.781631 26.68306 
L 19.769761 28.509941 
L 19.769761 28.509941 
" style="fill:none;stroke:#000000;stroke-linecap:square;stroke-width:0.4;"/>
   </g>
   <g id="line2d_38">
    <path clip-path="url(#pf3b2ad7134)" d="M 22.666082 14.647139 
L 22.902092 14.748561 
L 23.138102 14.849982 
L 23.374113 14.951404 
L 23.610123 15.052825 
L 23.846133 15.154247 
L 24.082143 15.255669 
L 24.318153 15.35709 
L 24.554164 15.458512 
L 24.678746 15.52801 
L 24.803329 15.597508 
L 24.927912 15.667006 
L 25.052495 15.736504 
L 25.177078 15.806003 
L 25.301661 15.875501 
L 25.426244 15.944999 
L 25.550826 16.014497 
L 25.7279 16.196607 
L 25.904973 16.378717 
L 26.082047 16.560826 
L 26.25912 16.742936 
L 26.427511 16.751918 
L 26.595902 16.7609 
L 26.764292 16.769882 
L 26.932683 16.778864 
L 27.111309 16.776095 
L 27.289935 16.773325 
L 27.46856 16.770556 
L 27.647186 16.767786 
L 27.825812 16.765017 
L 28.004438 16.762248 
L 28.183064 16.759478 
L 28.361689 16.756709 
" style="fill:none;stroke:#008000;stroke-linecap:square;stroke-width:0.4;"/>
   </g>
   <g id="line2d_39">
    <path clip-path="url(#pf3b2ad7134)" d="M 29.661666 3.390461 
L 29.569341 3.627361 
L 29.477015 3.864261 
L 29.38469 4.101161 
L 29.292364 4.338061 
L 29.200039 4.574961 
L 29.107713 4.811861 
L 29.015388 5.048761 
L 28.923062 5.285661 
L 28.869861 5.454186 
L 28.81666 5.62271 
L 28.763459 5.791235 
L 28.710258 5.959759 
L 28.657057 6.128284 
L 28.603856 6.296808 
L 28.550655 6.465333 
L 28.497454 6.633857 
L 28.454304 6.770496 
L 28.411154 6.907134 
L 28.368004 7.043773 
L 28.324854 7.180412 
L 28.281704 7.31705 
L 28.238554 7.453689 
L 28.195403 7.590327 
L 28.152253 7.726966 
L 28.128152 8.008027 
L 28.104051 8.289088 
L 28.079951 8.57015 
L 28.05585 8.851211 
L 28.077938 9.03391 
L 28.100026 9.21661 
L 28.122114 9.399309 
L 28.144202 9.582008 
L 28.16629 9.764707 
L 28.188378 9.947407 
L 28.210467 10.130106 
L 28.232555 10.312805 
L 28.254643 10.495505 
L 28.276731 10.678204 
L 28.298819 10.860903 
L 28.320907 11.043602 
L 28.342995 11.226302 
L 28.365083 11.409001 
L 28.387172 11.5917 
L 28.40926 11.774399 
L 28.44941 11.999249 
L 28.489561 12.224098 
L 28.529712 12.448947 
L 28.569862 12.673796 
L 28.610013 12.898645 
L 28.650164 13.123494 
L 28.690314 13.348343 
L 28.730465 13.573192 
L 28.72644 13.773959 
L 28.722414 13.974725 
L 28.718388 14.175491 
L 28.714363 14.376257 
L 28.710337 14.577023 
L 28.706312 14.777789 
L 28.702286 14.978556 
L 28.69826 15.179322 
L 28.589859 15.4363 
L 28.481457 15.693279 
L 28.373056 15.950257 
L 28.264654 16.207236 
L 28.156253 16.464214 
L 28.047851 16.721192 
L 27.939449 16.978171 
L 27.831048 17.235149 
L 27.794923 17.427869 
L 27.758798 17.620589 
L 27.722673 17.813309 
L 27.686548 18.006028 
L 27.650423 18.198748 
L 27.614297 18.391468 
L 27.578172 18.584188 
L 27.542047 18.776908 
L 27.517999 18.937536 
L 27.493951 19.098163 
L 27.469902 19.258791 
L 27.445854 19.419419 
L 27.486899 19.674957 
L 27.521893 19.891965 
L 27.556887 20.108974 
L 27.59188 20.325983 
L 27.626874 20.542991 
L 27.661868 20.76 
L 27.696862 20.977008 
L 27.731855 21.194017 
L 27.766849 21.411026 
L 27.807 21.643884 
L 27.84715 21.876742 
L 27.887301 22.1096 
L 27.927452 22.342458 
L 27.915401 22.487012 
L 27.903351 22.631566 
L 27.8913 22.77612 
L 27.87925 22.920673 
L 27.867199 23.065227 
L 27.855149 23.209781 
L 27.843098 23.354335 
L 27.831048 23.498889 
L 27.758798 23.679577 
L 27.686548 23.860264 
L 27.614297 24.040952 
L 27.542047 24.22164 
L 27.469797 24.402327 
L 27.397547 24.583015 
L 27.325297 24.763703 
L 27.253047 24.94439 
L 27.180796 25.125078 
L 27.108546 25.305766 
L 27.036296 25.486453 
L 26.964046 25.667141 
L 26.891796 25.847829 
L 26.819546 26.028516 
L 26.747295 26.209204 
L 26.675045 26.389892 
" style="fill:none;stroke:#000000;stroke-linecap:square;stroke-width:0.4;"/>
   </g>
   <g id="line2d_40">
    <path clip-path="url(#pf3b2ad7134)" d="M 28.497454 6.633857 
L 28.619906 6.79471 
L 28.742358 6.955562 
L 28.864809 7.116415 
L 28.987261 7.277267 
L 28.987261 7.55032 
L 28.987261 7.823372 
L 29.011362 8.096387 
L 29.035463 8.369402 
L 29.059564 8.642417 
L 29.083665 8.915432 
L 29.171965 9.124226 
L 29.260265 9.33302 
L 29.348565 9.541814 
L 29.436864 9.750608 
L 29.50109 9.927291 
L 29.565315 10.103974 
L 29.62954 10.280657 
L 29.693766 10.45734 
L 29.757991 10.634024 
L 29.822216 10.810707 
L 29.886441 10.98739 
L 29.950667 11.164073 
L 29.942642 11.388922 
L 29.934617 11.613772 
L 29.926592 11.838621 
L 29.918567 12.06347 
L 29.910542 12.288319 
L 29.902518 12.513168 
L 29.894493 12.738017 
L 29.886468 12.962866 
L 29.908937 13.179594 
L 29.931407 13.396322 
L 29.953877 13.61305 
L 29.976346 13.829778 
" style="fill:none;stroke:#000000;stroke-linecap:square;stroke-width:0.4;"/>
   </g>
   <g id="line2d_41">
    <path clip-path="url(#pf3b2ad7134)" d="M 28.497454 6.633857 
L 28.357953 6.850791 
L 28.218452 7.067725 
L 28.078951 7.284659 
L 27.939449 7.501592 
L 27.799948 7.718526 
L 27.660447 7.93546 
L 27.520946 8.152394 
L 27.381445 8.369327 
L 27.347332 8.513881 
L 27.31322 8.658435 
L 27.279108 8.802989 
L 27.244995 8.947543 
L 27.210883 9.092097 
L 27.176771 9.236651 
L 27.142659 9.381205 
L 27.108546 9.525759 
L 27.074434 9.670312 
L 27.040322 9.814866 
L 27.006209 9.95942 
L 26.972097 10.103974 
L 26.937985 10.248528 
L 26.903873 10.393082 
L 26.86976 10.537636 
L 26.835648 10.68219 
L 26.787472 10.955223 
L 26.739297 11.228257 
L 26.691121 11.501291 
L 26.642946 11.774325 
L 26.59477 12.047358 
L 26.546595 12.320392 
L 26.498419 12.593426 
L 26.450244 12.86646 
L 26.450244 13.095332 
L 26.450244 13.324204 
L 26.450244 13.553076 
L 26.450244 13.781949 
L 26.450244 14.010821 
L 26.450244 14.239693 
L 26.450244 14.468566 
L 26.450244 14.697438 
L 26.39403 14.864073 
L 26.337816 15.030707 
L 26.281603 15.197342 
L 26.225389 15.363976 
L 26.169176 15.530611 
L 26.112962 15.697246 
L 26.056749 15.86388 
L 26.000535 16.030515 
L 25.944321 16.197149 
L 25.888108 16.363784 
L 25.831894 16.530419 
L 25.775681 16.697053 
L 25.719467 16.863688 
L 25.663254 17.030323 
L 25.60704 17.196957 
L 25.550826 17.363592 
L 25.466526 17.486056 
L 25.382225 17.608519 
L 25.297924 17.730983 
L 25.213624 17.853447 
L 25.129323 17.975911 
L 25.045023 18.098375 
L 24.960722 18.220838 
L 24.876421 18.343302 
L 24.792121 18.465766 
L 24.70782 18.58823 
L 24.623519 18.710694 
L 24.539219 18.833157 
L 24.454918 18.955621 
L 24.370618 19.078085 
L 24.286317 19.200549 
L 24.202016 19.323013 
L 24.11369 19.507723 
L 24.025364 19.692434 
L 23.937038 19.877145 
L 23.848711 20.061856 
L 23.760385 20.246567 
L 23.672059 20.431278 
L 23.583733 20.615989 
L 23.495407 20.800699 
L 23.354905 20.997442 
L 23.214404 21.194185 
L 23.073903 21.390928 
L 22.933402 21.587671 
L 22.792901 21.784414 
L 22.6524 21.981157 
L 22.511899 22.1779 
L 22.371398 22.374643 
L 22.239422 22.567457 
L 22.107446 22.76027 
L 21.975469 22.953083 
L 21.843493 23.145897 
L 21.711517 23.33871 
L 21.579541 23.531524 
L 21.447564 23.724337 
L 21.315588 23.91715 
" style="fill:none;stroke:#000000;stroke-linecap:square;stroke-width:0.4;"/>
   </g>
   <g id="line2d_42">
    <path clip-path="url(#pf3b2ad7134)" d="M 25.550826 17.363592 
L 25.565718 17.542839 
L 25.580611 17.722085 
L 25.595503 17.901332 
L 25.610395 18.080579 
L 25.625287 18.259826 
L 25.640179 18.439073 
L 25.655071 18.618319 
L 25.669963 18.797566 
L 25.711271 18.983699 
L 25.75258 19.169832 
L 25.793888 19.355965 
L 25.835196 19.542098 
L 25.876505 19.728231 
L 25.917813 19.914364 
L 25.959121 20.100497 
L 26.00043 20.28663 
L 26.00043 20.567729 
L 26.00043 20.848828 
L 26.00043 21.129927 
L 26.00043 21.411026 
L 25.855929 21.619819 
L 25.711429 21.828613 
L 25.566929 22.037407 
L 25.422428 22.246201 
L 25.277928 22.454995 
L 25.133428 22.663789 
L 24.988927 22.872582 
L 24.844427 23.081376 
L 24.740051 23.250013 
L 24.635675 23.41865 
L 24.531299 23.587287 
L 24.426923 23.755924 
L 24.322547 23.92456 
L 24.218171 24.093197 
L 24.113795 24.261834 
L 24.009419 24.430471 
L 23.913068 24.611159 
L 23.816717 24.791846 
L 23.720366 24.972534 
L 23.624015 25.153222 
L 23.527664 25.333909 
L 23.431313 25.514597 
L 23.334962 25.695285 
L 23.238611 25.875972 
L 23.134208 26.084766 
L 23.029806 26.29356 
L 22.925404 26.502354 
L 22.821001 26.711148 
" style="fill:none;stroke:#ff0000;stroke-dasharray:1.48,0.64;stroke-dashoffset:0;stroke-width:0.4;"/>
   </g>
   <g id="line2d_43">
    <path clip-path="url(#pf3b2ad7134)" d="M 29.501063 3.262019 
L 29.328463 3.298153 
L 29.155862 3.334286 
L 28.983262 3.37042 
L 28.810661 3.406554 
L 28.638061 3.442688 
L 28.46546 3.478822 
L 28.29286 3.514955 
L 28.120259 3.551089 
L 27.929767 3.651641 
L 27.739275 3.752192 
L 27.548783 3.852744 
L 27.358291 3.953295 
L 27.167799 4.053847 
L 26.977307 4.154398 
L 26.786815 4.25495 
L 26.596323 4.355501 
L 26.405831 4.456053 
L 26.215338 4.556604 
L 26.024846 4.657156 
L 25.834354 4.757707 
L 25.643862 4.858259 
L 25.45337 4.95881 
L 25.262878 5.059362 
L 25.072386 5.159913 
L 24.862003 5.27099 
L 24.65162 5.382068 
L 24.470968 5.554728 
L 24.290316 5.727388 
L 24.109664 5.900048 
L 23.929013 6.072708 
L 23.748361 6.245368 
L 23.567709 6.418028 
L 23.387058 6.590688 
L 23.206406 6.763348 
L 23.039791 6.942024 
L 22.873176 7.1207 
L 22.706562 7.299376 
L 22.539947 7.478052 
L 22.373332 7.656728 
L 22.206717 7.835404 
L 22.040102 8.01408 
L 21.873488 8.192757 
L 21.706873 8.371433 
L 21.540258 8.550109 
L 21.373643 8.728785 
L 21.207029 8.907461 
L 21.040414 9.086137 
L 20.873799 9.264813 
L 20.707184 9.443489 
L 20.540569 9.622165 
L 20.476344 9.887171 
L 20.412119 10.152177 
L 20.347894 10.417183 
L 20.283668 10.68219 
L 20.219443 10.947196 
L 20.155218 11.212202 
L 20.090992 11.477208 
L 20.026767 11.742214 
L 20.018742 11.890782 
L 20.010717 12.039349 
L 20.002692 12.187917 
L 19.994668 12.336485 
L 19.986643 12.485053 
L 19.978618 12.63362 
L 19.970593 12.782188 
L 19.962568 12.930756 
L 19.954543 13.079323 
L 19.946518 13.227891 
L 19.938494 13.376459 
L 19.930469 13.525026 
L 19.922444 13.673594 
L 19.914419 13.822162 
L 19.906394 13.97073 
L 19.898369 14.119297 
L 19.928482 14.299985 
L 19.958595 14.480673 
L 19.988708 14.66136 
L 20.018821 14.842048 
L 20.048934 15.022736 
L 20.079047 15.203423 
L 20.10916 15.384111 
L 20.139273 15.564799 
L 20.169386 15.745486 
L 20.199499 15.926174 
L 20.229612 16.106862 
L 20.259725 16.287549 
L 20.289838 16.468237 
L 20.319951 16.648925 
L 20.350064 16.829612 
L 20.380177 17.0103 
L 20.410277 17.19299 
L 20.440377 17.37568 
L 20.470477 17.55837 
L 20.500577 17.74106 
L 20.530677 17.92375 
L 20.560776 18.10644 
L 20.590876 18.28913 
L 20.620976 18.471819 
L 20.651076 18.654509 
L 20.681176 18.837199 
L 20.711276 19.019889 
L 20.741375 19.202579 
L 20.771475 19.385269 
L 20.801575 19.567959 
L 20.831675 19.750649 
L 20.861775 19.933339 
" style="fill:none;stroke:#000000;stroke-linecap:square;stroke-width:0.4;"/>
   </g>
   <g id="line2d_44">
    <path clip-path="url(#pf3b2ad7134)" d="M 25.072386 5.159913 
L 24.995913 5.364525 
L 24.91944 5.569136 
L 24.842967 5.773748 
L 24.766494 5.978359 
L 24.690021 6.182971 
L 24.613548 6.387583 
L 24.537074 6.592194 
L 24.460601 6.796806 
L 24.384128 7.001417 
L 24.307655 7.206029 
L 24.231182 7.41064 
L 24.154709 7.615252 
L 24.078236 7.819864 
L 24.001763 8.024475 
L 23.92529 8.229087 
L 23.848817 8.433698 
L 23.770528 8.558164 
L 23.69224 8.68263 
L 23.613951 8.807096 
L 23.535662 8.931563 
L 23.457374 9.056029 
L 23.379085 9.180495 
L 23.300797 9.304961 
L 23.222508 9.429427 
L 23.14422 9.553893 
L 23.065931 9.678359 
L 22.987643 9.802825 
L 22.909354 9.927291 
L 22.831065 10.051757 
L 22.752777 10.176223 
L 22.674488 10.300689 
L 22.5962 10.425155 
L 22.467723 10.654027 
L 22.339246 10.8829 
L 22.210769 11.111772 
L 22.082292 11.340644 
L 21.953815 11.569517 
L 21.825338 11.798389 
L 21.696862 12.027261 
L 21.568385 12.256133 
L 21.470902 12.491012 
L 21.37342 12.725891 
L 21.275937 12.96077 
L 21.178455 13.195649 
L 21.080972 13.430528 
L 20.98349 13.665407 
L 20.886007 13.900287 
L 20.788525 14.135166 
L 20.801707 14.362054 
L 20.814889 14.588943 
L 20.82807 14.815832 
L 20.841252 15.042721 
L 20.854434 15.269609 
L 20.867616 15.496498 
L 20.880798 15.723387 
L 20.89398 15.950276 
L 20.918054 16.199208 
L 20.942129 16.44814 
L 20.966203 16.697072 
L 20.990278 16.946004 
L 21.014353 17.194936 
L 21.038427 17.443868 
L 21.062502 17.6928 
L 21.086577 17.941732 
" style="fill:none;stroke:#000000;stroke-linecap:square;stroke-width:0.4;"/>
   </g>
   <g id="line2d_45">
    <path clip-path="url(#pf3b2ad7134)" d="M 42.796146 13.926484 
L 42.711846 14.071038 
L 42.627545 14.215592 
L 42.543244 14.360146 
L 42.458944 14.5047 
L 42.374643 14.649253 
L 42.290343 14.793807 
L 42.206042 14.938361 
L 42.121741 15.082915 
L 42.053517 15.30376 
L 41.985292 15.524604 
L 41.917068 15.745449 
L 41.848843 15.966294 
L 41.780618 16.187138 
L 41.712394 16.407983 
L 41.644169 16.628828 
L 41.575945 16.849672 
L 41.579944 17.082549 
L 41.583943 17.315426 
L 41.587943 17.548303 
L 41.591942 17.781179 
L 41.595941 18.014056 
L 41.59994 18.246933 
L 41.60394 18.47981 
L 41.607939 18.712686 
L 41.623989 18.869291 
L 41.640038 19.025896 
L 41.656088 19.182501 
L 41.672138 19.339105 
L 41.688188 19.49571 
L 41.704237 19.652315 
L 41.720287 19.808919 
L 41.736337 19.965524 
L 41.836687 20.09 
L 41.937038 20.214475 
L 42.037388 20.33895 
L 42.137738 20.463426 
L 42.238089 20.587901 
L 42.338439 20.712377 
L 42.43879 20.836852 
L 42.53914 20.961327 
L 42.675615 21.073752 
L 42.812091 21.186177 
L 42.948566 21.298601 
L 43.085042 21.411026 
L 43.221517 21.52345 
L 43.357993 21.635875 
L 43.494468 21.748299 
L 43.630944 21.860724 
L 43.749738 22.002639 
L 43.868532 22.144555 
L 43.987327 22.28647 
L 44.106121 22.428386 
L 44.224916 22.570301 
L 44.34371 22.712216 
L 44.462505 22.854132 
L 44.581299 22.996047 
" style="fill:none;stroke:#4169e1;stroke-linecap:square;stroke-width:0.4;"/>
   </g>
   <g id="line2d_46">
    <path clip-path="url(#pf3b2ad7134)" d="M 45.024377 13.065411 
L 45.03727 13.288725 
L 45.050162 13.51204 
L 45.063054 13.735355 
L 45.075947 13.958669 
L 45.031797 14.103223 
L 44.987647 14.247777 
L 44.943497 14.392331 
L 44.899347 14.536885 
L 44.855197 14.681439 
L 44.811047 14.825993 
L 44.766897 14.970547 
L 44.722747 15.115101 
L 44.646498 15.311843 
L 44.570248 15.508586 
L 44.493999 15.705329 
L 44.417749 15.902072 
L 44.3415 16.098815 
L 44.265251 16.295558 
L 44.189001 16.492301 
L 44.112752 16.689044 
L 44.080652 16.962097 
L 44.048553 17.235149 
L 44.096702 17.476054 
L 44.144851 17.716958 
L 44.193 17.957863 
L 44.24115 18.198767 
L 44.261225 18.355353 
L 44.2813 18.511939 
L 44.301376 18.668525 
L 44.321451 18.825111 
L 44.341526 18.981697 
L 44.361602 19.138283 
L 44.381677 19.294869 
L 44.401752 19.451455 
L 44.413776 19.680327 
L 44.425801 19.9092 
L 44.437825 20.138072 
L 44.449849 20.366944 
L 44.461873 20.595817 
L 44.473897 20.824689 
L 44.485921 21.053561 
L 44.497946 21.282433 
L 44.508365 21.496635 
L 44.518784 21.710837 
L 44.529203 21.925039 
L 44.539622 22.13924 
L 44.550041 22.353442 
L 44.560461 22.567644 
L 44.57088 22.781846 
L 44.581299 22.996047 
" style="fill:none;stroke:#000000;stroke-linecap:square;stroke-width:0.4;"/>
   </g>
   <g id="line2d_47">
    <path clip-path="url(#pf3b2ad7134)" d="M 48.451761 35.733406 
L 48.290158 35.838794 
L 48.128556 35.944183 
L 47.966953 36.049572 
L 47.805351 36.15496 
L 47.656851 36.146933 
L 47.508352 36.138905 
L 47.359852 36.130877 
L 47.211352 36.12285 
L 47.062853 36.114822 
L 46.914353 36.106794 
L 46.765854 36.098767 
L 46.617354 36.090739 
L 46.360453 36.090739 
L 46.103552 36.090739 
L 45.84665 36.090739 
L 45.589749 36.090739 
L 45.413149 36.066638 
L 45.23655 36.042536 
L 45.05995 36.018434 
L 44.88335 35.994333 
L 44.722747 36.058629 
L 44.562145 36.122925 
L 44.449849 36.331681 
L 44.337553 36.540437 
L 44.369653 36.765287 
L 44.401752 36.990136 
L 44.401752 37.263188 
L 44.401752 37.536241 
L 44.393701 37.696869 
L 44.38565 37.857496 
L 44.377599 38.018124 
L 44.369548 38.178752 
L 44.313347 38.395555 
L 44.257147 38.612358 
L 44.200946 38.82916 
L 44.144746 39.045963 
L 44.136747 39.190536 
L 44.128749 39.335108 
L 44.12075 39.479681 
L 44.112752 39.624254 
L 44.20905 39.816992 
L 44.305349 40.009731 
L 44.465951 40.202394 
L 44.626554 40.395058 
L 44.851303 40.475372 
L 45.076052 40.555686 
L 45.300801 40.636 
L 45.52555 40.716314 
L 45.658 40.792605 
L 45.79045 40.868895 
L 45.9229 40.945186 
L 46.05535 41.021477 
L 46.1878 41.097768 
L 46.320249 41.174058 
L 46.452699 41.250349 
L 46.585149 41.32664 
L 46.75375 41.479221 
L 46.922352 41.631803 
L 47.090953 41.784385 
L 47.259554 41.936966 
L 47.526348 41.923269 
L 47.793142 41.909571 
" style="fill:none;stroke:#4169e1;stroke-linecap:square;stroke-width:0.4;"/>
   </g>
   <g id="line2d_48">
    <path clip-path="url(#pf3b2ad7134)" d="M 50.085151 22.47105 
L 47.688951 22.254229 
L 47.187251 22.326477 
L 46.199955 22.567307 
L 45.942949 22.952784 
L 46.007148 23.498889 
L 48.479782 25.719293 
L 49.025658 26.518334 
L 49.603659 27.369602 
L 52.160357 30.662119 
L 52.525555 31.914863 
L 52.670002 33.496853 
L 52.332958 35.657115 
L 52.232581 37.263207 
L 52.224451 37.858058 
L 52.511215 38.522014 
L 54.997952 41.776338 
L 56.988542 43.093397 
L 61.034077 43.551142 
L 62.286273 44.057052 
L 63.45822 44.546945 
L 65.657509 45.020633 
L 66.973746 45.366065 
L 67.423297 45.92815 
L 67.615894 46.530505 
L 67.615894 46.530505 
" style="fill:none;stroke:#000000;stroke-linecap:square;stroke-width:0.4;"/>
   </g>
   <g id="line2d_49">
    <path clip-path="url(#pf3b2ad7134)" d="M 50.534755 22.567307 
L 52.437228 22.872479 
L 57.474244 23.450742 
L 59.814033 24.093197 
L 61.05018 24.470665 
L 63.028719 25.482449 
L 63.273517 25.723353 
L 63.723015 26.542473 
L 64.003964 27.875588 
L 64.164514 29.553947 
L 64.397315 30.284707 
L 66.066751 33.328291 
L 66.492201 34.067097 
L 66.785227 34.862078 
L 67.214597 37.423816 
L 67.367017 38.23895 
L 67.254695 40.105988 
L 67.599897 41.551564 
L 68.71738 44.892714 
L 68.587035 45.735412 
L 68.546884 45.887993 
L 67.615894 46.530505 
L 67.615894 46.530505 
" style="fill:none;stroke:#000000;stroke-linecap:square;stroke-width:0.4;"/>
   </g>
   <g id="line2d_50">
    <path clip-path="url(#pf3b2ad7134)" d="M 50.534755 22.567307 
L 50.59898 23.924486 
L 51.281357 25.145175 
L 52.184458 26.07672 
L 54.291553 27.610544 
L 55.768524 30.688241 
L 57.219355 33.541099 
L 61.788751 39.498712 
L 64.893396 44.108091 
L 65.397766 44.97228 
L 65.397766 44.97228 
" style="fill:none;stroke:#000000;stroke-linecap:square;stroke-width:0.4;"/>
   </g>
   <g id="line2d_51">
    <path clip-path="url(#pf3b2ad7134)" d="M 50.085151 22.47105 
L 49.980802 22.567401 
L 49.876452 22.663751 
L 49.772102 22.760102 
L 49.667753 22.856452 
L 49.563403 22.952803 
L 49.459053 23.049153 
L 49.354704 23.145504 
L 49.250354 23.241854 
L 49.170895 23.480364 
L 49.091435 23.718873 
L 49.011976 23.957382 
L 48.932517 24.195891 
L 48.850637 24.441624 
L 48.768756 24.687356 
L 48.768756 24.860016 
L 48.768756 25.032676 
L 48.768756 25.205336 
L 48.768756 25.377996 
L 48.768756 25.550656 
L 48.768756 25.723316 
L 48.768756 25.895976 
L 48.768756 26.068636 
" style="fill:none;stroke:#ff0000;stroke-linecap:square;stroke-width:0.4;"/>
   </g>
   <g id="line2d_52">
    <path clip-path="url(#pf3b2ad7134)" d="M 48.932517 24.195891 
L 49.052127 24.383016 
L 49.171737 24.570141 
L 49.291347 24.757266 
L 49.410957 24.94439 
L 49.547406 25.048806 
L 49.683855 25.153222 
L 49.820304 25.257637 
L 49.956753 25.362053 
L 50.077179 25.446371 
L 50.197605 25.53069 
L 50.318031 25.615008 
L 50.438456 25.699327 
L 50.558882 25.783645 
L 50.679308 25.867963 
L 50.799733 25.952282 
L 50.920159 26.0366 
L 51.092733 26.157052 
L 51.265308 26.277505 
L 51.437882 26.397957 
L 51.610456 26.518409 
L 51.78303 26.638861 
L 51.955604 26.759313 
L 52.128179 26.879766 
L 52.300753 27.000218 
L 52.523818 27.054391 
L 52.746883 27.108563 
L 52.969948 27.162736 
L 53.193014 27.216908 
L 53.416079 27.271081 
L 53.639144 27.325254 
L 53.862209 27.379426 
L 54.085274 27.433599 
" style="fill:none;stroke:#000000;stroke-linecap:square;stroke-width:0.4;"/>
   </g>
   <g id="line2d_53">
    <path clip-path="url(#pf3b2ad7134)" d="M 51.40302 29.529396 
L 51.563254 29.555594 
L 51.723488 29.581791 
L 51.883723 29.607989 
L 52.043957 29.634186 
L 52.212532 29.734579 
L 52.381107 29.834971 
L 52.549682 29.935363 
L 52.718257 30.035756 
L 52.886832 30.136148 
L 53.055407 30.236541 
L 53.223982 30.336933 
L 53.392557 30.437326 
L 53.545055 30.670184 
L 53.697554 30.903042 
L 53.850053 31.1359 
L 54.002552 31.368758 
L 54.042703 31.549446 
L 54.082854 31.730133 
L 54.123004 31.910821 
L 54.163155 32.091509 
L 54.203306 32.272196 
L 54.243456 32.452884 
L 54.283607 32.633572 
L 54.323758 32.814259 
L 54.375932 33.059206 
L 54.428107 33.304152 
L 54.480282 33.549098 
L 54.532457 33.794045 
L 54.584632 34.038991 
L 54.636807 34.283937 
L 54.688981 34.528884 
L 54.741156 34.77383 
L 54.81338 34.982624 
L 54.885604 35.191418 
L 54.957828 35.400211 
L 55.030052 35.609005 
L 55.102275 35.817799 
L 55.174499 36.026593 
L 55.246723 36.235387 
L 55.318947 36.44418 
L 55.389184 36.570658 
L 55.459422 36.697136 
L 55.529659 36.823613 
L 55.599897 36.950091 
L 55.670134 37.076569 
L 55.740371 37.203046 
L 55.810609 37.329524 
L 55.880846 37.456002 
L 55.951083 37.582479 
L 56.021321 37.708957 
L 56.091558 37.835434 
L 56.161795 37.961912 
L 56.232033 38.08839 
L 56.30227 38.214867 
L 56.372508 38.341345 
L 56.442745 38.467823 
L 56.631395 38.624409 
L 56.820046 38.780995 
L 57.008696 38.937581 
L 57.197346 39.094167 
L 57.385996 39.250753 
L 57.574647 39.407339 
L 57.763297 39.563925 
L 57.951947 39.720511 
L 58.164646 39.893171 
L 58.377344 40.065831 
L 58.590043 40.238491 
L 58.802742 40.411151 
L 59.01544 40.583811 
L 59.228139 40.756471 
L 59.440837 40.929131 
L 59.653536 41.101791 
L 59.783973 41.194146 
L 59.91441 41.286502 
L 60.044847 41.378857 
L 60.175284 41.471213 
L 60.305721 41.563568 
L 60.436158 41.655923 
L 60.566595 41.748279 
L 60.697033 41.840634 
L 60.82747 41.93299 
L 60.957907 42.025345 
L 61.088344 42.117701 
L 61.218781 42.210056 
L 61.349218 42.302411 
L 61.479655 42.394767 
L 61.610092 42.487122 
L 61.740529 42.579478 
L 61.840853 42.683875 
L 61.941177 42.788271 
L 62.041501 42.892668 
L 62.141825 42.997065 
L 62.242149 43.101462 
L 62.342474 43.205859 
L 62.442798 43.310256 
L 62.543122 43.414653 
" style="fill:none;stroke:#4169e1;stroke-linecap:square;stroke-width:0.4;"/>
   </g>
  </g>
 </g>
 <defs>
  <clipPath id="pf3b2ad7134">
   <rect height="68.230601" width="72" x="0" y="0"/>
  </clipPath>
 </defs>
</svg>
