<?xml version="1.0" encoding="utf-8" standalone="no"?>
<!DOCTYPE svg PUBLIC "-//W3C//DTD SVG 1.1//EN"
  "http://www.w3.org/Graphics/SVG/1.1/DTD/svg11.dtd">
<svg height="72pt" version="1.1" viewBox="0 0 42.99564 72" width="42.99564pt" xmlns="http://www.w3.org/2000/svg" xmlns:xlink="http://www.w3.org/1999/xlink">
 <metadata>
  <rdf:RDF xmlns:cc="http://creativecommons.org/ns#" xmlns:dc="http://purl.org/dc/elements/1.1/" xmlns:rdf="http://www.w3.org/1999/02/22-rdf-syntax-ns#">
   <cc:Work>
    <dc:type rdf:resource="http://purl.org/dc/dcmitype/StillImage"/>
    <dc:date>2022-04-19T00:55:41.652333</dc:date>
    <dc:format>image/svg+xml</dc:format>
    <dc:creator>
     <cc:Agent>
      <dc:title>Matplotlib v3.4.3, https://matplotlib.org/</dc:title>
     </cc:Agent>
    </dc:creator>
   </cc:Work>
  </rdf:RDF>
 </metadata>
 <defs>
  <style type="text/css">*{stroke-linecap:butt;stroke-linejoin:round;}</style>
 </defs>
 <g id="figure_1">
  <g id="patch_1">
   <path d="M 0 72 
L 42.99564 72 
L 42.99564 0 
L 0 0 
z
" style="fill:#ffffff;"/>
  </g>
  <g id="axes_1">
   <g id="line2d_1">
    <path clip-path="url(#pc6d38d0f0d)" d="M 19.325637 65.335148 
L 19.501702 64.604929 
L 19.687025 63.836288 
L 19.872348 63.067648 
L 20.064846 62.269517 
L 20.257344 61.471387 
L 20.430323 60.753848 
L 20.603301 60.036309 
L 20.720112 59.551898 
L 20.836922 59.067487 
L 20.95462 58.579426 
L 21.072318 58.091365 
L 21.190016 57.603304 
L 21.307714 57.115243 
L 21.423058 56.636836 
L 21.538403 56.158429 
L 21.653748 55.680021 
L 21.769092 55.201614 
L 21.878573 54.747509 
L 21.988054 54.293403 
L 22.097535 53.839298 
L 22.207016 53.385193 
L 22.331581 52.868699 
L 22.456145 52.352206 
L 22.58071 51.835712 
L 22.705274 51.319218 
L 22.833503 50.787356 
L 22.961733 50.255493 
L 23.089962 49.723631 
L 23.218191 49.191768 
L 23.294573 48.875167 
L 23.457599 48.198836 
L 23.620625 47.522505 
L 23.75981 46.945304 
L 23.898995 46.368103 
L 24.007318 45.918753 
" style="fill:none;stroke:#808080;stroke-linecap:square;stroke-width:0.4;"/>
   </g>
   <g id="line2d_2">
    <path clip-path="url(#pc6d38d0f0d)" d="M 31.030766 47.345378 
L 30.979999 47.103316 
L 30.845752 46.452248 
L 30.765512 46.06226 
L 30.605341 45.285167 
L 30.475491 44.654846 
L 30.345642 44.024526 
L 30.230374 43.465192 
L 30.115107 42.905857 
L 30.011875 42.404732 
L 29.908644 41.903608 
L 29.816715 41.457619 
L 29.724787 41.011631 
L 29.632858 40.565642 
L 29.54093 40.119654 
L 29.446069 39.659257 
L 29.351209 39.19886 
L 29.256349 38.738463 
L 29.161488 38.278066 
L 29.045835 37.716811 
L 28.930182 37.155555 
L 28.837752 36.706925 
L 28.745322 36.258295 
L 28.652892 35.809665 
L 28.560462 35.361035 
L 28.462052 34.883348 
L 28.363643 34.405661 
L 28.265233 33.927974 
L 28.166824 33.450287 
L 28.033117 32.801332 
L 27.89941 32.152377 
L 27.884133 32.078222 
L 27.86469 31.983895 
L 27.82025 31.76796 
" style="fill:none;stroke:#808080;stroke-linecap:square;stroke-width:0.4;"/>
   </g>
   <g id="line2d_3">
    <path clip-path="url(#pc6d38d0f0d)" d="M 25.056762 27.921298 
L 25.146877 28.221185 
L 25.356889 28.918168 
L 25.566902 29.615151 
L 25.714111 30.103885 
L 25.86132 30.592618 
L 26.008529 31.081352 
L 26.155738 31.570085 
L 26.350319 32.213853 
" style="fill:none;stroke:#808080;stroke-linecap:square;stroke-width:0.4;"/>
   </g>
   <g id="line2d_4">
    <path clip-path="url(#pc6d38d0f0d)" d="M 10.898611 34.661939 
L 11.334375 34.430828 
L 11.855702 34.155051 
L 12.377029 33.879273 
L 13.065856 33.515029 
L 13.754684 33.150784 
L 14.454235 32.780776 
L 15.153787 32.410768 
L 15.892147 32.020204 
L 16.297705 31.805711 
L 16.703263 31.591217 
L 17.108821 31.376724 
L 17.514379 31.162231 
L 17.97514 30.918536 
L 18.435902 30.674842 
L 18.841961 30.460109 
L 19.248021 30.245375 
L 19.65408 30.030642 
L 20.06014 29.815908 
L 20.50439 29.580955 
L 20.948641 29.346002 
L 21.573431 29.015569 
L 22.198221 28.685136 
L 22.638999 28.452008 
L 23.079778 28.21888 
L 23.621087 27.932537 
L 24.162397 27.646193 
L 24.473481 27.481745 
" style="fill:none;stroke:#808080;stroke-linecap:square;stroke-width:0.4;"/>
   </g>
   <g id="line2d_5">
    <path clip-path="url(#pc6d38d0f0d)" d="M 3.349439 31.795433 
L 3.901704 31.167994 
L 4.25692 30.765039 
L 4.612135 30.362083 
L 4.975914 29.94933 
L 5.339693 29.536577 
L 5.881389 28.92201 
L 6.423084 28.307444 
L 6.88562 27.782689 
L 7.348156 27.257935 
L 7.675751 26.886294 
L 8.003345 26.514653 
L 8.497977 25.953493 
L 8.992608 25.392333 
L 9.45553 24.867194 
L 9.918452 24.342056 
L 10.251987 23.963595 
L 10.585522 23.585134 
L 11.093656 23.008701 
L 11.601789 22.432268 
L 12.074587 21.895795 
L 12.547384 21.359322 
L 13.085299 20.748981 
L 13.411427 20.378973 
L 13.737555 20.008965 
L 14.164755 19.524266 
L 14.591955 19.039567 
L 15.078794 18.487148 
L 15.565633 17.93473 
L 15.970458 17.475486 
L 16.375283 17.016241 
L 16.944985 16.36988 
L 17.514688 15.723519 
L 18.034086 15.134695 
L 18.553484 14.545871 
" style="fill:none;stroke:#808080;stroke-linecap:square;stroke-width:0.4;"/>
   </g>
   <g id="line2d_6">
    <path clip-path="url(#pc6d38d0f0d)" d="M 36.664523 58.746276 
L 36.607583 58.53745 
L 36.408064 57.793015 
L 36.285081 57.334155 
L 36.162098 56.875295 
L 36.049956 56.456827 
L 35.937813 56.038358 
L 35.82567 55.61989 
L 35.713527 55.201422 
L 35.567206 54.655487 
L 35.420884 54.109552 
L 35.274562 53.563617 
L 35.12824 53.017682 
L 34.937362 52.305618 
L 34.746484 51.593555 
L 34.612352 51.093102 
L 34.478221 50.59265 
L 34.344089 50.092198 
L 34.209958 49.591746 
L 34.0928 49.154594 
L 33.975642 48.717443 
L 33.858484 48.280292 
L 33.741327 47.84314 
L 33.627834 47.419629 
L 33.514341 46.996118 
L 33.400848 46.572606 
L 33.287355 46.149095 
L 33.16904 45.707525 
L 33.050725 45.265955 
L 32.93241 44.824385 
L 32.814095 44.382816 
L 32.699367 43.95479 
L 32.58464 43.526764 
L 32.469912 43.098738 
L 32.355185 42.670712 
L 32.138229 41.861151 
L 31.979485 41.268821 
L 31.820742 40.676491 
L 31.661998 40.084161 
L 31.503255 39.491831 
L 31.368236 38.987921 
L 31.233217 38.484011 
L 31.10113 37.991243 
L 30.969043 37.498475 
L 30.886334 37.189751 
" style="fill:none;stroke:#808080;stroke-linecap:square;stroke-width:0.4;"/>
   </g>
   <g id="line2d_7">
    <path clip-path="url(#pc6d38d0f0d)" d="M 25.203199 68.508073 
L 24.486134 68.230855 
L 23.969513 68.031154 
L 23.452893 67.831454 
L 22.965822 67.643184 
L 22.478751 67.454914 
L 21.996618 67.268565 
L 21.514485 67.082216 
L 21.286882 66.994613 
" style="fill:none;stroke:#808080;stroke-linecap:square;stroke-width:0.4;"/>
   </g>
   <g id="line2d_8">
    <path clip-path="url(#pc6d38d0f0d)" d="M 25.386825 68.409327 
L 24.969424 68.082736 
L 24.379353 67.622339 
L 23.789282 67.161943 
L 23.251367 66.74237 
L 22.713452 66.322797 
L 22.076935 65.826186 
L 21.706598 65.538402 
" style="fill:none;stroke:#808080;stroke-linecap:square;stroke-width:0.4;"/>
   </g>
   <g id="line2d_9">
    <path clip-path="url(#pc6d38d0f0d)" d="M 24.739815 68.480601 
L 25.213075 68.722662 
" style="fill:none;stroke:#808080;stroke-linecap:square;stroke-width:0.4;"/>
   </g>
   <g id="line2d_10">
    <path clip-path="url(#pc6d38d0f0d)" d="M 23.940195 68.529013 
L 24.5494 68.727273 
" style="fill:none;stroke:#808080;stroke-linecap:square;stroke-width:0.4;"/>
   </g>
   <g id="line2d_11">
    <path clip-path="url(#pc6d38d0f0d)" d="M 17.518391 65.021429 
L 17.264016 64.634803 
L 17.00964 64.248177 
L 16.746855 63.848776 
" style="fill:none;stroke:#808080;stroke-linecap:square;stroke-width:0.4;"/>
   </g>
   <g id="line2d_12">
    <path clip-path="url(#pc6d38d0f0d)" d="M 17.971746 64.416275 
L 17.481512 63.955014 
L 16.886194 63.395199 
L 16.32876 62.871021 
L 15.771325 62.346843 
L 15.172613 61.783762 
L 14.573901 61.220681 
L 14.103649 60.778439 
L 13.633398 60.336196 
L 13.407647 60.12276 
" style="fill:none;stroke:#808080;stroke-linecap:square;stroke-width:0.4;"/>
   </g>
   <g id="line2d_13">
    <path clip-path="url(#pc6d38d0f0d)" d="M 14.85582 14.444628 
L 14.850111 14.008533 
L 14.844748 13.568212 
L 14.839386 13.127891 
L 14.834024 12.68757 
L 14.828662 12.247248 
L 14.819095 11.454978 
L 14.809914 10.70574 
L 14.800732 9.956503 
L 14.79294 9.311006 
L 14.785147 8.665509 
L 14.777663 8.052479 
L 14.770179 7.439449 
L 14.763699 6.902495 
L 14.757218 6.365541 
L 14.747033 5.529757 
L 14.736849 4.693973 
L 14.731371 4.24347 
L 14.725893 3.792967 
L 14.720338 3.272727 
" style="fill:none;stroke:#808080;stroke-linecap:square;stroke-width:0.4;"/>
   </g>
   <g id="line2d_14">
    <path clip-path="url(#pc6d38d0f0d)" d="M 18.038561 65.868643 
L 17.612056 65.194522 
" style="fill:none;stroke:#808080;stroke-linecap:square;stroke-width:0.4;"/>
   </g>
   <g id="line2d_15">
    <path clip-path="url(#pc6d38d0f0d)" d="M 36.768372 59.032139 
L 36.107474 58.65118 
L 36.21302 58.572606 
L 35.149997 57.025719 
L 34.972698 56.922939 
L 34.227877 57.184404 
L 33.563179 58.105582 
L 33.543659 58.473861 
L 33.95265 60.760956 
L 33.755407 62.224227 
L 33.356909 62.671032 
L 32.593358 63.112698 
L 30.736811 63.696623 
L 30.167031 63.927638 
L 27.769579 64.306147 
L 25.877098 64.669287 
L 23.693785 64.339022 
L 22.204084 64.193809 
L 20.796455 63.923315 
L 20.082669 63.90468 
L 19.765721 64.052222 
L 19.765721 64.052222 
" style="fill:none;stroke:#008000;stroke-linecap:square;stroke-width:0.4;"/>
   </g>
   <g id="line2d_16">
    <path clip-path="url(#pc6d38d0f0d)" d="M 36.107474 58.65118 
L 35.962965 58.528421 
L 35.818456 58.405661 
L 35.698135 58.336068 
L 35.577814 58.266476 
L 35.457493 58.196883 
L 35.337172 58.12729 
L 35.290031 57.98676 
L 35.24289 57.84623 
L 35.160799 57.740857 
L 35.078707 57.635483 
L 34.878262 57.607435 
L 34.698572 57.644801 
L 34.518881 57.682166 
L 34.345054 57.773228 
L 34.171227 57.864289 
L 34.091334 57.987481 
L 34.011442 58.110673 
L 33.931549 58.233865 
L 33.851656 58.357057 
L 33.822801 58.53793 
L 33.793945 58.718804 
L 33.838386 58.888007 
L 33.882826 59.057209 
L 33.927267 59.226412 
L 33.971707 59.395615 
" style="fill:none;stroke:#008000;stroke-linecap:square;stroke-width:0.4;"/>
   </g>
   <g id="line2d_17">
    <path clip-path="url(#pc6d38d0f0d)" d="M 30.886334 37.189751 
L 31.704549 37.627334 
L 31.940484 38.19834 
L 31.894886 39.799691 
L 32.101832 40.964467 
L 32.375013 41.63686 
L 33.008252 42.687906 
L 33.339318 44.140226 
L 33.885643 45.158036 
L 34.692766 45.91724 
L 35.127276 47.930263 
L 35.421192 48.703995 
L 36.356526 50.979564 
L 36.286161 53.428995 
L 36.315133 53.838626 
L 36.700515 54.750967 
L 37.672689 56.40803 
L 37.995577 57.65748 
L 37.929341 58.733116 
L 37.730631 59.204848 
L 36.768372 59.032139 
L 36.768372 59.032139 
" style="fill:none;stroke:#000000;stroke-linecap:square;stroke-width:0.4;"/>
   </g>
   <g id="line2d_18">
    <path clip-path="url(#pc6d38d0f0d)" d="M 29.966201 37.010702 
L 29.997236 37.215542 
L 30.028271 37.420382 
L 30.059306 37.625221 
L 30.090341 37.830061 
L 30.121376 38.0349 
L 30.152411 38.23974 
L 30.183446 38.44458 
L 30.214481 38.649419 
L 30.317944 38.798354 
L 30.421407 38.947289 
L 30.52487 39.096224 
L 30.628333 39.245159 
L 30.706972 39.356872 
L 30.78561 39.468586 
L 30.864249 39.580299 
L 30.942888 39.692012 
L 31.021527 39.803725 
L 31.100166 39.915439 
L 31.178805 40.027152 
L 31.257443 40.138865 
L 31.331974 40.267148 
L 31.406504 40.395431 
L 31.481035 40.523714 
L 31.555565 40.651997 
L 31.601086 40.800956 
L 31.646606 40.949915 
L 31.692127 41.098874 
L 31.737647 41.247833 
L 31.783168 41.396792 
L 31.828689 41.545751 
L 31.874209 41.69471 
L 31.91973 41.843669 
L 31.946637 42.015393 
L 31.973545 42.187117 
L 32.000452 42.358842 
L 32.027359 42.530566 
L 32.054267 42.70229 
L 32.081174 42.874014 
L 32.108081 43.045739 
L 32.134989 43.217463 
L 32.186238 43.354511 
L 32.237487 43.491559 
L 32.288736 43.628607 
L 32.339986 43.765655 
L 32.391235 43.902703 
L 32.442484 44.039751 
L 32.493734 44.176799 
L 32.544983 44.313847 
" style="fill:none;stroke:#000000;stroke-linecap:square;stroke-width:0.4;"/>
   </g>
   <g id="line2d_19">
    <path clip-path="url(#pc6d38d0f0d)" d="M 32.941552 50.162127 
L 33.083438 50.279603 
L 33.225323 50.39708 
L 33.367209 50.514557 
L 33.509094 50.632033 
L 33.691177 50.731355 
L 33.873259 50.830677 
L 34.055342 50.929999 
L 34.237424 51.029321 
L 34.29745 51.182411 
L 34.357475 51.3355 
L 34.417501 51.488589 
L 34.477526 51.641679 
L 34.537552 51.794768 
L 34.597578 51.947858 
L 34.657603 52.100947 
L 34.717629 52.254036 
L 34.759002 52.479528 
L 34.800376 52.70502 
L 34.841749 52.930511 
L 34.883123 53.156003 
L 34.924497 53.381495 
L 34.96587 53.606986 
L 35.007244 53.832478 
L 35.048618 54.05797 
L 35.189346 54.136544 
L 35.330074 54.215118 
L 35.470802 54.293692 
L 35.61153 54.372265 
L 35.830917 54.384705 
L 36.050303 54.397144 
L 36.269689 54.409583 
L 36.489075 54.422022 
" style="fill:none;stroke:#4169e1;stroke-linecap:square;stroke-width:0.4;"/>
   </g>
   <g id="line2d_20">
    <path clip-path="url(#pc6d38d0f0d)" d="M 30.886334 37.189751 
L 30.656301 37.144989 
L 30.426267 37.100227 
L 30.196234 37.055464 
L 29.966201 37.010702 
L 29.850316 37.242486 
L 29.734431 37.474269 
L 29.775824 37.598373 
L 29.817217 37.722478 
L 29.85861 37.846582 
L 29.900003 37.970687 
L 29.908258 38.136192 
L 29.916514 38.301696 
L 29.924769 38.467201 
L 29.933024 38.632706 
L 29.90822 38.765119 
L 29.883415 38.897532 
L 29.85861 39.029945 
L 29.833805 39.162359 
L 29.866904 39.327912 
L 29.900003 39.493464 
L 29.933102 39.659017 
L 29.966201 39.82457 
L 30.036989 40.065526 
L 30.107777 40.306483 
L 30.178566 40.54744 
L 30.249354 40.788396 
L 30.329845 41.015473 
L 30.410335 41.24255 
L 30.490826 41.469626 
L 30.571316 41.696703 
L 30.651807 41.923779 
L 30.732297 42.150856 
L 30.812788 42.377933 
L 30.893278 42.605009 
L 30.858096 42.772603 
L 30.822914 42.940197 
L 30.787732 43.107791 
L 30.75255 43.275385 
L 30.717368 43.442979 
L 30.682186 43.610573 
L 30.647004 43.778166 
L 30.611822 43.94576 
L 30.506932 44.083481 
L 30.402041 44.221201 
L 30.297151 44.358922 
L 30.192261 44.496642 
L 30.08737 44.634362 
L 29.98248 44.772083 
L 29.87759 44.909803 
L 29.772699 45.047524 
" style="fill:none;stroke:#4169e1;stroke-linecap:square;stroke-width:0.4;"/>
   </g>
   <g id="line2d_21">
    <path clip-path="url(#pc6d38d0f0d)" d="M 27.917155 31.61331 
L 28.107956 31.774973 
L 28.298757 31.936635 
L 28.408488 32.157948 
L 28.51822 32.379261 
L 28.627952 32.600575 
L 28.737684 32.821888 
L 28.847415 33.043201 
L 28.957147 33.264514 
L 29.066879 33.485828 
L 29.17661 33.707141 
L 29.231004 33.923219 
L 29.285397 34.139297 
L 29.33979 34.355376 
L 29.394184 34.571454 
" style="fill:none;stroke:#ff0000;stroke-linecap:square;stroke-width:0.4;"/>
   </g>
   <g id="line2d_22">
    <path clip-path="url(#pc6d38d0f0d)" d="M 26.704763 32.47551 
L 26.638527 32.595532 
L 26.57229 32.715554 
L 26.506054 32.835576 
L 26.439818 32.955598 
L 26.290834 33.121103 
L 26.14185 33.286607 
L 26.046681 33.377621 
L 25.951512 33.468634 
L 25.856343 33.559647 
L 25.761174 33.65066 
L 25.682536 33.795489 
L 25.603897 33.940317 
L 25.525258 34.085146 
L 25.446619 34.229974 
L 25.36798 34.374803 
L 25.289341 34.519631 
L 25.210703 34.66446 
L 25.132064 34.809289 
L 25.101009 34.981013 
L 25.069955 35.152737 
L 25.038901 35.324461 
L 25.007846 35.496186 
L 24.976792 35.66791 
L 24.945738 35.839634 
L 24.914684 36.011359 
L 24.883629 36.183083 
L 24.854658 36.369288 
L 24.825687 36.555492 
L 24.796716 36.741697 
L 24.767744 36.927902 
L 24.738773 37.114107 
L 24.709802 37.300311 
L 24.680831 37.486516 
L 24.65186 37.672721 
L 24.647732 37.883756 
L 24.643604 38.094791 
L 24.639477 38.305827 
L 24.635349 38.516862 
L 24.622927 38.663756 
L 24.610505 38.810649 
L 24.598084 38.957543 
L 24.585662 39.104437 
L 24.57324 39.251331 
L 24.560818 39.398225 
L 24.548397 39.545118 
L 24.535975 39.692012 
L 24.513215 39.886502 
L 24.490454 40.080991 
L 24.467694 40.275481 
L 24.444934 40.46997 
L 24.422173 40.66446 
L 24.399413 40.85895 
L 24.376653 41.053439 
L 24.353892 41.247929 
L 24.353892 41.398953 
L 24.353892 41.549977 
L 24.353892 41.701001 
L 24.353892 41.852026 
L 24.353892 42.00305 
L 24.353892 42.154074 
L 24.353892 42.305098 
L 24.353892 42.456122 
L 24.319713 42.643912 
L 24.285534 42.831702 
L 24.251355 43.019491 
L 24.217176 43.207281 
L 24.222268 43.379221 
L 24.227361 43.551162 
L 24.279131 43.688042 
L 24.330901 43.824922 
" style="fill:none;stroke:#000000;stroke-linecap:square;stroke-width:0.4;"/>
   </g>
   <g id="line2d_23">
    <path clip-path="url(#pc6d38d0f0d)" d="M 24.397716 48.455018 
L 24.764388 48.235578 
L 26.124279 46.920498 
L 27.151791 45.319363 
L 27.797412 44.905553 
L 28.517641 45.03811 
L 29.04869 45.114955 
L 29.772699 45.047524 
L 29.698169 45.155299 
L 28.931725 46.221521 
L 29.049384 46.276754 
L 29.820303 46.758667 
L 30.729404 47.535761 
L 30.574788 47.728257 
L 29.315487 47.744395 
L 28.608374 48.248401 
L 28.464907 48.563705 
L 28.464328 49.045379 
L 29.671589 50.170676 
L 30.282029 50.166617 
L 31.870352 49.532191 
L 32.5277 49.575416 
L 32.877052 49.751679 
L 33.016391 50.017082 
L 32.941552 50.162127 
L 32.284512 50.313895 
L 31.963399 50.582948 
L 31.280397 51.2393 
L 30.703172 51.621123 
L 30.618071 51.915439 
L 30.621698 52.05789 
L 31.116252 52.700313 
L 31.467533 53.244471 
L 31.596148 53.32948 
L 31.832392 53.311806 
L 32.217157 52.87379 
L 32.430178 52.625005 
L 32.581091 52.562569 
L 32.773203 52.766592 
L 32.577464 53.520536 
L 32.393762 55.407366 
L 32.217697 55.696303 
L 32.217697 55.696303 
" style="fill:none;stroke:#008000;stroke-linecap:square;stroke-width:0.4;"/>
   </g>
   <g id="line2d_24">
    <path clip-path="url(#pc6d38d0f0d)" d="M 32.544983 44.313847 
L 32.467289 44.540396 
L 32.389595 44.766944 
L 32.311902 44.993492 
L 32.234208 45.220041 
L 32.16801 45.340063 
L 32.101812 45.460085 
L 32.035615 45.580107 
L 31.969417 45.700129 
L 31.884567 45.919425 
L 31.799718 46.138721 
L 31.714868 46.358017 
L 31.630018 46.577313 
L 31.545168 46.796609 
L 31.460319 47.015905 
L 31.375469 47.235201 
L 31.290619 47.454497 
" style="fill:none;stroke:#000000;stroke-linecap:square;stroke-width:0.4;"/>
   </g>
   <g id="line2d_25">
    <path clip-path="url(#pc6d38d0f0d)" d="M 25.251035 47.79857 
L 25.407927 47.850729 
L 25.564818 47.902887 
L 25.72171 47.955046 
L 25.878602 48.007204 
L 26.035494 48.059363 
L 26.192386 48.111521 
L 26.349278 48.16368 
L 26.50617 48.215838 
L 26.696508 48.224099 
L 26.886846 48.23236 
L 27.085516 48.368903 
L 27.284187 48.505447 
L 27.482857 48.641991 
L 27.681528 48.778535 
L 27.877228 48.845246 
L 28.072928 48.911957 
L 28.268628 48.978668 
L 28.464328 49.045379 
" style="fill:none;stroke:#ff0000;stroke-linecap:square;stroke-width:0.4;"/>
   </g>
   <g id="line2d_26">
    <path clip-path="url(#pc6d38d0f0d)" d="M 26.050809 47.049909 
L 26.206042 47.155187 
L 26.361275 47.260464 
L 26.516508 47.365742 
L 26.671741 47.471019 
L 26.75445 47.620002 
L 26.837159 47.768985 
L 26.862002 48.000672 
L 26.886846 48.23236 
" style="fill:none;stroke:#ff0000;stroke-linecap:square;stroke-width:0.4;"/>
   </g>
   <g id="line2d_27">
    <path clip-path="url(#pc6d38d0f0d)" d="M 27.466269 45.518007 
L 27.561477 45.67525 
L 27.656684 45.832494 
L 27.751892 45.989738 
L 27.847099 46.146982 
L 27.962984 46.370408 
L 28.078869 46.593835 
L 28.132683 46.813131 
L 28.186498 47.032427 
L 28.240313 47.251723 
L 28.294127 47.471019 
L 28.310677 47.615824 
L 28.327226 47.760628 
L 28.343776 47.905433 
L 28.360325 48.050237 
L 28.376875 48.195042 
L 28.393424 48.339846 
L 28.409974 48.484651 
L 28.426523 48.629456 
L 28.445426 48.837417 
L 28.464328 49.045379 
L 28.483848 49.193785 
L 28.503368 49.342192 
L 28.522888 49.490599 
L 28.542408 49.639005 
L 28.60035 49.870741 
L 28.658292 50.102476 
L 28.716235 50.334211 
L 28.774177 50.565947 
L 28.885934 50.747973 
L 28.997691 50.929999 
L 29.109448 51.112025 
L 29.221205 51.294052 
L 29.332962 51.500957 
L 29.444719 51.707861 
L 29.556476 51.914766 
L 29.668233 52.121671 
L 29.775824 52.320267 
L 29.883415 52.518863 
L 29.991005 52.717459 
L 30.098596 52.916055 
L 30.197931 53.118781 
L 30.297267 53.321508 
L 30.396602 53.524234 
L 30.495937 53.726961 
L 30.55388 53.875896 
L 30.611822 54.024831 
L 30.669764 54.173765 
L 30.727707 54.3227 
L 30.798071 54.510946 
L 30.868435 54.699192 
L 30.938799 54.887438 
L 31.009163 55.075684 
L 31.079527 55.26393 
L 31.149891 55.452176 
L 31.220255 55.640422 
L 31.290619 55.828668 
L 31.321654 55.985888 
L 31.352689 56.143108 
L 31.383725 56.300327 
L 31.41476 56.457547 
L 31.445795 56.614767 
L 31.47683 56.771987 
L 31.507865 56.929207 
L 31.5389 57.086426 
" style="fill:none;stroke:#ff0000;stroke-linecap:square;stroke-width:0.4;"/>
   </g>
   <g id="line2d_28">
    <path clip-path="url(#pc6d38d0f0d)" d="M 24.006701 45.733556 
L 23.872145 45.945456 
L 23.737589 46.157356 
L 23.737589 46.317145 
L 23.737589 46.476935 
L 23.737589 46.636724 
L 23.737589 46.796513 
L 23.712341 46.984039 
L 23.687092 47.171564 
L 23.661844 47.35909 
L 23.636595 47.546615 
L 23.611347 47.734141 
L 23.586098 47.921666 
L 23.56085 48.109192 
L 23.535601 48.296717 
L 23.640723 48.437199 
L 23.745845 48.577681 
L 23.850967 48.718163 
L 23.956088 48.858645 
L 24.13061 48.912149 
L 24.305131 48.965652 
L 24.432821 49.137016 
L 24.56051 49.30838 
L 24.630758 49.486804 
L 24.701007 49.665228 
L 24.771255 49.843653 
L 24.841503 50.022077 
L 24.881777 50.26433 
L 24.922052 50.506584 
L 24.962326 50.748837 
L 25.0026 50.991091 
L 25.064574 51.151048 
L 25.126547 51.311006 
L 25.188521 51.470963 
L 25.250495 51.63092 
L 25.312468 51.790878 
L 25.374442 51.950835 
L 25.436416 52.110793 
L 25.498389 52.27075 
L 25.601023 52.46584 
L 25.703656 52.66093 
L 25.80629 52.85602 
L 25.908924 53.05111 
L 26.011557 53.2462 
L 26.114191 53.44129 
L 26.216824 53.63638 
L 26.319458 53.83147 
L 26.391751 53.96847 
L 26.464044 54.10547 
L 26.536337 54.24247 
L 26.60863 54.37947 
L 26.680923 54.51647 
L 26.753215 54.65347 
L 26.825508 54.79047 
L 26.897801 54.92747 
L 26.953159 55.074604 
L 27.008517 55.221737 
L 27.063875 55.368871 
L 27.119232 55.516005 
L 27.17459 55.663139 
L 27.229948 55.810273 
L 27.285305 55.957407 
L 27.340663 56.104541 
L 27.387225 56.306211 
L 27.433788 56.507881 
L 27.48035 56.70955 
L 27.526912 56.91122 
L 27.638129 57.09171 
L 27.749346 57.272199 
L 27.860563 57.452688 
L 27.97178 57.633178 
L 28.054257 57.734565 
L 28.136734 57.835952 
L 28.219211 57.937339 
L 28.301688 58.038727 
L 28.529292 58.147078 
L 28.756895 58.255429 
L 28.964284 58.368007 
L 29.171673 58.480585 
L 29.308852 58.599742 
L 29.446031 58.7189 
L 29.58321 58.838057 
L 29.720389 58.957215 
L 29.88326 58.994197 
L 30.046132 59.031178 
L 30.204837 58.919369 
L 30.363542 58.80756 
L 30.400923 58.675771 
L 30.438303 58.543982 
L 30.475684 58.412193 
L 30.513065 58.280404 
L 30.517193 58.132669 
L 30.521321 57.984935 
L 30.525448 57.837201 
L 30.529576 57.689467 
L 30.612208 57.460133 
L 30.694839 57.230799 
L 30.777471 57.001465 
L 30.860102 56.772131 
L 30.954423 56.628095 
L 31.048743 56.484059 
L 31.143063 56.340023 
L 31.237383 56.195986 
" style="fill:none;stroke:#4169e1;stroke-linecap:square;stroke-width:0.4;"/>
   </g>
   <g id="line2d_29">
    <path clip-path="url(#pc6d38d0f0d)" d="M 24.933316 52.270558 
L 24.751234 52.299519 
L 24.569151 52.32848 
L 24.387069 52.357441 
L 24.204986 52.386402 
L 23.993894 52.357441 
L 23.782801 52.32848 
L 23.571709 52.299519 
L 23.360617 52.270558 
L 23.137103 52.311958 
L 22.913589 52.353358 
L 22.814292 52.551906 
L 22.714995 52.750454 
L 22.806037 52.907698 
L 22.897078 53.064942 
L 22.988119 53.222186 
L 23.07916 53.37943 
L 23.112259 53.536625 
L 23.145358 53.693821 
L 23.178457 53.851017 
L 23.211556 54.008213 
L 23.190879 54.210939 
L 23.170202 54.413666 
L 23.149525 54.616392 
L 23.128847 54.819118 
L 23.17024 55.038414 
L 23.211633 55.257711 
L 23.253026 55.477007 
L 23.294419 55.696303 
L 23.397882 55.779055 
L 23.501345 55.861807 
L 23.604808 55.94456 
L 23.708271 56.027312 
L 23.83245 56.110064 
L 23.956629 56.192817 
L 24.080807 56.275569 
L 24.204986 56.358321 
L 24.271184 56.598269 
L 24.337382 56.838218 
L 24.279439 56.999592 
L 24.221497 57.160966 
L 24.163555 57.32234 
L 24.105612 57.483714 
L 24.113868 57.740184 
L 24.122123 57.996654 
L 24.246263 58.186941 
L 24.370403 58.377228 
L 24.453189 58.580003 
L 24.535975 58.782777 
L 24.618761 58.985552 
L 24.701547 59.188326 
L 24.871246 59.353783 
L 25.040945 59.519239 
L 25.210645 59.684696 
L 25.380344 59.850152 
L 25.494165 59.92462 
L 25.607986 59.999087 
L 25.721807 60.073555 
L 25.835628 60.148022 
L 25.949448 60.22249 
L 26.063269 60.296957 
L 26.17709 60.371425 
L 26.290911 60.445892 
L 26.384035 60.549321 
L 26.47716 60.652749 
L 26.570284 60.756178 
L 26.663409 60.859606 
L 26.756533 60.963034 
L 26.849658 61.066463 
L 26.942782 61.169891 
L 27.035906 61.27332 
L 27.242832 61.401603 
L 27.449758 61.529885 
L 27.656684 61.658168 
L 27.86361 61.786451 
L 28.066409 61.910556 
L 28.269207 62.03466 
L 28.472005 62.158765 
L 28.674803 62.282869 
L 28.881768 62.398713 
L 29.088732 62.514557 
L 29.295697 62.6304 
L 29.502662 62.746244 
L 29.664067 62.940709 
L 29.825472 63.135175 
L 29.986878 63.329641 
L 30.148283 63.524106 
" style="fill:none;stroke:#ff0000;stroke-linecap:square;stroke-width:0.4;"/>
   </g>
   <g id="line2d_30">
    <path clip-path="url(#pc6d38d0f0d)" d="M 25.297635 52.783498 
L 25.264498 53.031755 
L 25.23136 53.280012 
L 25.198223 53.528269 
L 25.165086 53.776525 
L 25.169252 54.020652 
L 25.173418 54.264779 
L 25.177584 54.508905 
L 25.181751 54.753032 
L 25.190025 54.883356 
L 25.1983 55.01368 
L 25.206575 55.144004 
L 25.21485 55.274328 
L 25.223124 55.404652 
L 25.231399 55.534976 
L 25.239674 55.665301 
L 25.247949 55.795625 
L 25.330734 56.023182 
L 25.41352 56.250738 
L 25.496306 56.478295 
L 25.579092 56.705852 
L 25.521111 56.875487 
L 25.46313 57.045122 
L 25.405149 57.214757 
L 25.347168 57.384392 
L 25.239558 57.489886 
L 25.131948 57.59538 
L 25.024338 57.700873 
L 24.916728 57.806367 
L 24.809118 57.911861 
L 24.701508 58.017354 
L 24.593898 58.122848 
L 24.486288 58.228341 
L 24.540103 58.468338 
L 24.593917 58.708334 
L 24.647732 58.94833 
L 24.701547 59.188326 
" style="fill:none;stroke:#000000;stroke-linecap:square;stroke-width:0.4;"/>
   </g>
   <g id="line2d_31">
    <path clip-path="url(#pc6d38d0f0d)" d="M 23.638061 48.84539 
L 23.581122 49.006572 
L 23.524183 49.167754 
L 23.467243 49.328936 
L 23.410304 49.490118 
L 23.335175 49.723198 
L 23.260047 49.956278 
L 23.184919 50.189359 
L 23.10979 50.422439 
L 23.034662 50.655519 
L 22.959534 50.888599 
L 22.884405 51.121679 
L 22.809277 51.354759 
L 22.760786 51.505183 
L 22.712295 51.655607 
L 22.663804 51.806031 
L 22.615313 51.956455 
L 22.573997 52.084641 
L 22.532681 52.212828 
L 22.491366 52.341015 
L 22.45005 52.469202 
L 22.391568 52.712968 
L 22.333085 52.956735 
L 22.274603 53.200501 
L 22.21612 53.444267 
L 22.157638 53.688034 
L 22.099155 53.9318 
L 22.040673 54.175567 
L 21.98219 54.419333 
L 21.940682 54.589892 
L 21.899173 54.760452 
L 21.857665 54.931012 
L 21.816156 55.101571 
L 21.774647 55.272131 
L 21.733139 55.442691 
L 21.69163 55.61325 
L 21.650121 55.78381 
L 21.608613 55.954369 
L 21.567104 56.124929 
L 21.525595 56.295489 
L 21.484087 56.466048 
L 21.442578 56.636608 
L 21.401069 56.807167 
L 21.359561 56.977727 
L 21.318052 57.148287 
L 21.276544 57.318846 
L 21.235035 57.489406 
L 21.193526 57.659965 
L 21.152018 57.830525 
L 21.110509 58.001085 
L 21.069 58.171644 
L 21.027492 58.342204 
L 20.985983 58.512763 
L 20.944474 58.683323 
L 20.902966 58.853883 
L 20.861457 59.024442 
L 20.819948 59.195002 
L 20.77844 59.365561 
L 20.736931 59.536121 
L 20.695423 59.706681 
L 20.653914 59.87724 
L 20.612405 60.0478 
L 20.570897 60.21836 
L 20.529388 60.388919 
L 20.487879 60.559479 
L 20.446371 60.730038 
L 20.404862 60.900598 
L 20.363353 61.071158 
L 20.321845 61.241717 
L 20.280336 61.412277 
L 20.238827 61.582836 
L 20.197319 61.753396 
L 20.15581 61.923956 
L 20.114302 62.094515 
L 20.072793 62.265075 
L 20.031284 62.435634 
L 19.989776 62.606194 
L 19.948267 62.776754 
L 19.906758 62.947313 
L 19.86525 63.117873 
L 19.823741 63.288432 
L 19.782232 63.458992 
L 19.740724 63.629552 
L 19.699215 63.800111 
L 19.657706 63.970671 
L 19.616198 64.14123 
L 19.574689 64.31179 
L 19.53318 64.48235 
L 19.491672 64.652909 
L 19.450163 64.823469 
L 19.408655 64.994029 
L 19.367146 65.164588 
L 19.325637 65.335148 
" style="fill:none;stroke:#ff0000;stroke-linecap:square;stroke-width:0.4;"/>
   </g>
   <g id="line2d_32">
    <path clip-path="url(#pc6d38d0f0d)" d="M 20.960059 60.148119 
L 21.042845 60.309445 
L 21.125631 60.470771 
L 21.208417 60.632097 
L 21.291203 60.793423 
L 21.285339 60.935394 
L 21.279861 61.068672 
L 21.274383 61.20195 
L 21.268905 61.335228 
L 21.263427 61.468506 
L 21.257949 61.601783 
L 21.252472 61.735061 
L 21.246994 61.868339 
L 21.241516 62.001617 
L 21.168972 62.210755 
L 21.096428 62.419893 
L 21.023885 62.629031 
L 20.951341 62.838169 
L 20.878797 63.047308 
L 20.806254 63.256446 
L 20.73371 63.465584 
L 20.661166 63.674722 
" style="fill:none;stroke:#ff0000;stroke-linecap:square;stroke-width:0.4;"/>
   </g>
   <g id="line2d_33">
    <path clip-path="url(#pc6d38d0f0d)" d="M 24.701547 59.188326 
L 24.552563 59.295861 
L 24.403579 59.403396 
L 24.254596 59.51093 
L 24.105612 59.618465 
L 23.985561 59.672257 
L 23.86551 59.726048 
L 23.745459 59.779839 
L 23.625408 59.833631 
L 23.472297 59.961866 
L 23.319185 60.090101 
L 23.166074 60.218336 
L 23.012963 60.34657 
L 22.913627 60.481049 
L 22.814292 60.615527 
L 22.714957 60.750006 
L 22.615622 60.884485 
L 22.516286 61.018963 
L 22.416951 61.153442 
L 22.317616 61.28792 
L 22.21828 61.422399 
L 22.135495 61.558918 
L 22.052709 61.695438 
L 21.969923 61.831958 
L 21.887137 61.968478 
L 21.804351 62.104997 
L 21.721566 62.241517 
L 21.63878 62.378037 
L 21.555994 62.514557 
L 21.44414 62.659577 
L 21.332287 62.804598 
L 21.220434 62.949619 
L 21.10858 63.094639 
L 20.996727 63.23966 
L 20.884873 63.384681 
L 20.77302 63.529701 
L 20.661166 63.674722 
" style="fill:none;stroke:#ff0000;stroke-linecap:square;stroke-width:0.4;"/>
   </g>
   <g id="line2d_34">
    <path clip-path="url(#pc6d38d0f0d)" d="M 23.948219 60.368471 
L 23.859261 60.582292 
L 23.770303 60.796113 
L 23.681344 61.009934 
L 23.592386 61.223755 
L 23.526189 61.389259 
L 23.459991 61.554764 
L 23.470599 61.809553 
L 23.481208 62.064342 
L 23.491817 62.31913 
L 23.502425 62.573919 
L 23.486763 62.763006 
L 23.471101 62.952092 
L 23.455439 63.141178 
L 23.439776 63.330265 
L 23.424114 63.519351 
L 23.408452 63.708438 
L 23.39279 63.897524 
L 23.377128 64.086611 
" style="fill:none;stroke:#ff0000;stroke-linecap:square;stroke-width:0.4;"/>
   </g>
   <g id="line2d_35">
    <path clip-path="url(#pc6d38d0f0d)" d="M 25.380344 59.850152 
L 25.363795 60.023918 
L 25.347245 60.197683 
L 25.330696 60.371449 
L 25.314146 60.545214 
L 25.235488 60.681758 
L 25.15683 60.818302 
L 25.078172 60.954846 
L 24.999514 61.091389 
L 24.846403 61.273416 
L 24.693291 61.455442 
L 24.54018 61.637468 
L 24.387069 61.819495 
L 24.276488 61.913798 
L 24.165908 62.008101 
L 24.055327 62.102404 
L 23.944747 62.196707 
L 23.834166 62.29101 
L 23.723586 62.385313 
L 23.613006 62.479616 
L 23.502425 62.573919 
" style="fill:none;stroke:#ff0000;stroke-linecap:square;stroke-width:0.4;"/>
   </g>
   <g id="line2d_36">
    <path clip-path="url(#pc6d38d0f0d)" d="M 22.499737 49.010222 
L 22.452133 49.136416 
L 22.404529 49.262609 
L 22.356926 49.388803 
L 22.309322 49.514997 
L 22.261718 49.64119 
L 22.214114 49.767384 
L 22.16651 49.893578 
L 22.118907 50.019772 
L 22.050626 50.179057 
L 21.982345 50.338342 
L 21.914064 50.497627 
L 21.845783 50.656912 
L 21.777502 50.816197 
L 21.709221 50.975482 
L 21.64094 51.134767 
L 21.572659 51.294052 
L 21.487809 51.443011 
L 21.40296 51.59197 
L 21.31811 51.740929 
L 21.23326 51.889888 
L 21.148411 52.038847 
L 21.063561 52.187806 
L 20.978711 52.336765 
L 20.893862 52.485724 
L 20.699319 52.655359 
L 20.504776 52.824994 
L 20.310233 52.994629 
L 20.11569 53.164264 
L 19.966707 53.251147 
L 19.817723 53.338029 
L 19.668739 53.424912 
L 19.519756 53.511795 
L 19.370772 53.598678 
L 19.221789 53.68556 
L 19.072805 53.772443 
L 18.923821 53.859326 
L 18.754122 53.933793 
L 18.584423 54.008261 
L 18.414723 54.082728 
L 18.245024 54.157196 
L 18.075324 54.231663 
L 17.905625 54.306131 
L 17.735926 54.380598 
L 17.566226 54.455066 
L 17.388001 54.570477 
L 17.209777 54.685889 
L 17.031552 54.8013 
L 16.853327 54.916711 
L 16.737674 54.991635 
L 16.62202 55.066559 
L 16.506367 55.141483 
L 16.390714 55.216406 
L 16.198273 55.31777 
L 16.005833 55.419133 
L 15.813393 55.520496 
L 15.620952 55.621859 
L 15.428512 55.723222 
L 15.236072 55.824586 
L 15.043631 55.925949 
L 14.851191 56.027312 
L 14.739443 56.099714 
L 14.627696 56.172117 
L 14.515949 56.244519 
L 14.404201 56.316921 
L 14.292454 56.389323 
L 14.180707 56.461726 
L 14.068959 56.534128 
L 13.957212 56.60653 
L 13.845464 56.678932 
L 13.733717 56.751335 
L 13.62197 56.823737 
L 13.510222 56.896139 
L 13.398475 56.968542 
L 13.286728 57.040944 
L 13.17498 57.113346 
L 13.063233 57.185748 
L 12.910083 57.384344 
L 12.756933 57.58294 
L 12.603783 57.781536 
L 12.450633 57.980132 
L 12.409742 58.063701 
" style="fill:none;stroke:#ff0000;stroke-linecap:square;stroke-width:0.4;"/>
   </g>
   <g id="line2d_37">
    <path clip-path="url(#pc6d38d0f0d)" d="M 4.590532 28.819038 
L 5.232296 30.618169 
L 5.521082 31.213381 
L 5.795363 33.038206 
L 5.625663 34.693541 
L 5.61328 35.14049 
L 6.44515 36.1583 
L 7.281129 36.868059 
L 7.95578 38.252083 
L 8.386258 39.994061 
L 8.535242 41.93473 
L 8.597312 42.737471 
L 10.083136 49.352614 
L 9.762447 51.562985 
L 9.023624 52.634611 
L 9.528556 54.604097 
L 10.16596 56.085234 
L 10.331532 56.623052 
L 12.264616 57.936619 
L 16.473268 61.748029 
L 17.769044 62.969382 
L 20.832756 65.460597 
L 20.832756 65.460597 
" style="fill:none;stroke:#008000;stroke-linecap:square;stroke-width:0.4;"/>
   </g>
   <g id="line2d_38">
    <path clip-path="url(#pc6d38d0f0d)" d="M 23.095671 41.231407 
L 23.039793 41.384497 
L 22.983914 41.537586 
L 22.928036 41.690675 
L 22.872157 41.843765 
L 22.816279 41.996854 
L 22.7604 42.149944 
L 22.704522 42.303033 
L 22.648643 42.456122 
L 22.555519 42.55129 
L 22.462395 42.646458 
L 22.36927 42.741625 
L 22.276146 42.836793 
L 22.183021 42.93196 
L 22.089897 43.027128 
L 21.996772 43.122295 
L 21.903648 43.217463 
L 21.787763 43.420189 
L 21.671879 43.622916 
L 21.555994 43.825642 
L 21.440109 44.028369 
L 21.297336 44.218704 
L 21.154564 44.409039 
L 21.011791 44.599374 
L 20.869018 44.789709 
L 20.726245 44.980044 
L 20.583473 45.17038 
L 20.4407 45.360715 
L 20.297927 45.55105 
L 20.115806 45.646217 
L 19.933685 45.741385 
L 19.751564 45.836553 
L 19.569443 45.93172 
L 19.387322 46.026888 
L 19.2052 46.122055 
L 19.023079 46.217223 
L 18.840958 46.31239 
L 18.665067 46.353767 
L 18.489176 46.395143 
L 18.313285 46.436519 
L 18.137395 46.477895 
L 17.961504 46.519271 
L 17.785613 46.560647 
L 17.609722 46.602024 
L 17.433831 46.6434 
L 17.247582 46.742722 
L 17.061333 46.842044 
L 16.875084 46.941366 
L 16.688835 47.040688 
L 16.502587 47.14001 
L 16.316338 47.239332 
L 16.130089 47.338654 
L 15.94384 47.437976 
L 15.819816 47.587775 
L 15.695791 47.737575 
L 15.571767 47.887374 
L 15.447742 48.037174 
L 15.43235 48.236106 
L 15.416958 48.435038 
L 15.401566 48.63397 
L 15.386174 48.832902 
L 15.264001 48.954317 
L 15.141828 49.075732 
L 15.019656 49.197147 
L 14.897483 49.318562 
L 14.781521 49.458612 
L 14.665559 49.598662 
L 14.642722 49.809841 
L 14.619884 50.02102 
L 14.597047 50.2322 
L 14.574209 50.443379 
L 14.43649 50.573295 
L 14.298771 50.703211 
L 14.161052 50.833127 
L 14.023332 50.963042 
L 13.855716 51.054068 
L 13.6881 51.145093 
L 13.520484 51.236118 
L 13.352868 51.327143 
L 13.185251 51.418168 
L 13.017635 51.509193 
L 12.850019 51.600219 
L 12.682403 51.691244 
L 12.514786 51.782269 
L 12.34717 51.873294 
L 12.179554 51.964319 
L 12.011938 52.055344 
L 11.844322 52.146369 
L 11.676705 52.237395 
L 11.509089 52.32842 
L 11.341473 52.419445 
L 11.229716 52.521853 
L 11.117959 52.624261 
L 11.006202 52.726668 
L 10.894445 52.829076 
L 10.782688 52.931484 
L 10.670931 53.033892 
L 10.559174 53.1363 
L 10.447417 53.238707 
L 10.33566 53.341115 
L 10.223903 53.443523 
L 10.112146 53.545931 
L 10.000389 53.648339 
L 9.888632 53.750746 
L 9.776875 53.853154 
L 9.665118 53.955562 
L 9.553361 54.05797 
" style="fill:none;stroke:#ff0000;stroke-linecap:square;stroke-width:0.4;"/>
   </g>
   <g id="line2d_39">
    <path clip-path="url(#pc6d38d0f0d)" d="M 24.17181 39.162359 
L 24.000047 39.183059 
L 23.828283 39.203759 
L 23.65652 39.224459 
L 23.484757 39.245159 
L 23.312994 39.265859 
L 23.141231 39.286559 
L 22.969467 39.307259 
L 22.797704 39.32796 
L 22.609391 39.358986 
L 22.421079 39.390012 
L 22.232766 39.421038 
L 22.044453 39.452064 
L 21.856141 39.48309 
L 21.667828 39.514116 
L 21.479515 39.545142 
L 21.291203 39.576168 
L 21.086321 39.632025 
L 20.88144 39.687882 
L 20.676558 39.743738 
L 20.471677 39.799595 
L 20.266796 39.855452 
L 20.061914 39.911308 
L 19.857033 39.967165 
L 19.652151 40.023021 
L 19.428676 40.080991 
L 19.2052 40.138961 
L 18.981725 40.196931 
L 18.75825 40.254901 
L 18.551285 40.403836 
L 18.34432 40.552771 
L 18.137356 40.701706 
L 17.930391 40.850641 
L 17.840044 40.94516 
L 17.749698 41.039679 
L 17.570971 40.997847 
L 17.392245 40.956014 
L 17.213519 40.914182 
L 17.034792 40.872349 
L 16.79307 40.821104 
L 16.551348 40.769858 
L 16.309625 40.718612 
L 16.067903 40.667366 
L 15.937244 40.557093 
L 15.806584 40.446821 
L 15.675924 40.336549 
L 15.545265 40.226276 
L 15.439333 40.087859 
L 15.333401 39.949442 
L 15.307439 39.801228 
L 15.281476 39.653013 
L 15.255514 39.504799 
L 15.229552 39.356584 
L 15.212887 39.15746 
L 15.196222 38.958336 
L 15.179556 38.759211 
L 15.162891 38.560087 
L 15.143545 38.416219 
L 15.124199 38.272351 
L 15.104853 38.128483 
L 15.085506 37.984615 
L 15.06616 37.840747 
L 15.046814 37.696879 
L 15.027467 37.553011 
L 15.008121 37.409143 
L 14.911486 37.30521 
L 14.814851 37.201278 
L 14.718216 37.097345 
L 14.621582 36.993412 
L 14.475568 36.989618 
L 14.329555 36.985824 
L 14.183542 36.98203 
L 14.037529 36.978235 
L 13.828211 36.940101 
L 13.618893 36.901967 
L 13.465165 36.781524 
L 13.311436 36.661082 
L 13.157708 36.54064 
L 13.003979 36.420197 
L 12.85025 36.299755 
L 12.696522 36.179313 
L 12.542793 36.05887 
L 12.389065 35.938428 
L 12.235336 35.817986 
L 12.081608 35.697543 
L 11.927879 35.577101 
L 11.77415 35.456659 
L 11.620422 35.336216 
L 11.466693 35.215774 
L 11.312965 35.095332 
L 11.159236 34.974889 
L 11.058242 34.892281 
L 10.957248 34.809673 
" style="fill:none;stroke:#ff0000;stroke-linecap:square;stroke-width:0.4;"/>
   </g>
   <g id="line2d_40">
    <path clip-path="url(#pc6d38d0f0d)" d="M 15.002103 14.565274 
L 14.857363 14.753736 
L 14.748885 14.988305 
L 14.685465 15.141995 
L 14.636472 15.27753 
L 14.58748 15.413065 
L 14.541419 15.626406 
L 14.495358 15.839746 
L 14.604608 16.036085 
L 14.812768 16.071626 
L 14.992536 15.943103 
L 15.095768 15.83917 
L 15.198999 15.735237 
L 15.393503 15.693549 
L 15.588008 15.651861 
L 15.795088 15.686825 
L 15.981877 15.718332 
L 16.168666 15.749838 
L 16.267654 15.905833 
L 16.366642 16.061828 
L 16.362399 16.213068 
L 16.358155 16.364309 
L 16.353912 16.515549 
L 16.349668 16.666789 
L 16.316492 16.802036 
L 16.283316 16.937283 
L 16.225297 17.069361 
L 16.167277 17.201438 
L 15.937899 17.24572 
L 15.708522 17.290001 
L 15.552826 17.364925 
L 15.39713 17.439849 
L 15.287109 17.550505 
L 15.177088 17.661162 
L 15.046852 17.703235 
L 14.916617 17.745307 
L 14.719798 17.709574 
L 14.522979 17.673842 
L 14.31019 17.621491 
L 14.0974 17.56914 
L 13.861464 17.570005 
L 13.625528 17.570869 
L 13.43411 17.529085 
L 13.242692 17.487301 
L 13.1319 17.571446 
L 13.176957 17.75376 
L 13.301715 17.901398 
L 13.426472 18.049037 
L 13.544633 18.156667 
L 13.662794 18.264298 
L 13.780954 18.371929 
L 13.899115 18.47956 
L 14.040769 18.589256 
L 14.182423 18.698952 
L 14.407249 18.786555 
L 14.605109 18.901775 
L 14.80297 19.016994 
L 15.00083 19.132213 
L 15.198691 19.247433 
L 15.244134 19.43479 
L 15.289578 19.622147 
L 15.335021 19.809505 
L 15.380464 19.996862 
L 15.370203 20.144212 
L 15.359942 20.291562 
L 15.345514 20.497891 
L 15.331086 20.704219 
L 15.253392 20.930623 
L 15.175699 21.157028 
L 15.120611 21.288625 
L 15.14314 21.48554 
L 15.154231 21.625829 
L 15.165322 21.766119 
L 15.176412 21.906409 
L 15.187503 22.046699 
L 15.198594 22.186989 
L 15.209685 22.327279 
L 15.220776 22.467569 
L 15.231867 22.607859 
L 15.191207 22.836857 
L 15.150547 23.065854 
L 15.109887 23.294852 
L 15.069227 23.52385 
L 15.087551 23.693101 
L 15.105875 23.862352 
L 15.124199 24.031602 
L 15.142523 24.200853 
L 15.127594 24.369528 
L 15.112664 24.538202 
L 15.097735 24.706877 
L 15.082806 24.875551 
L 15.041104 25.114635 
L 14.999403 25.353719 
L 14.957701 25.592802 
L 14.916 25.831886 
L 14.849956 26.063093 
L 14.783913 26.2943 
" style="fill:none;stroke:#008000;stroke-linecap:square;stroke-width:0.4;"/>
   </g>
   <g id="line2d_41">
    <path clip-path="url(#pc6d38d0f0d)" d="M 17.317792 14.148775 
L 17.201907 14.326767 
L 17.086022 14.504759 
L 16.970138 14.682751 
L 16.854253 14.860743 
L 16.779761 14.984895 
L 16.705269 15.109048 
L 16.630777 15.2332 
L 16.556286 15.357353 
L 16.481794 15.481505 
L 16.407302 15.605658 
L 16.33281 15.72981 
L 16.258318 15.853963 
L 16.175532 16.056737 
L 16.092747 16.259512 
L 16.009961 16.462286 
L 15.927175 16.66506 
L 15.920964 16.847159 
L 15.914753 17.029257 
L 15.908542 17.211355 
L 15.902332 17.393454 
L 15.896121 17.575552 
L 15.88991 17.75765 
L 15.883699 17.939749 
L 15.877488 18.121847 
L 15.834031 18.258415 
L 15.790575 18.394983 
L 15.747118 18.53155 
L 15.703661 18.668118 
L 15.660204 18.804686 
L 15.616747 18.941254 
L 15.573291 19.077821 
L 15.529834 19.214389 
L 15.356007 19.379894 
L 15.18218 19.545399 
L 15.008353 19.710903 
L 14.834526 19.876408 
L 14.749676 19.984015 
L 14.664826 20.091622 
L 14.579976 20.199228 
L 14.495127 20.306835 
L 14.410277 20.414442 
L 14.325427 20.522049 
L 14.240578 20.629656 
L 14.155728 20.737263 
L 14.056393 20.927646 
L 13.957058 21.118029 
L 13.857722 21.308412 
L 13.758387 21.498795 
L 13.640438 21.629143 
L 13.52249 21.759492 
L 13.404541 21.88984 
L 13.286593 22.020188 
L 13.168644 22.150536 
L 13.050695 22.280884 
L 12.932747 22.411232 
L 12.814798 22.54158 
L 12.599578 22.603633 
L 12.384358 22.665685 
L 12.169138 22.727737 
L 11.953918 22.789789 
L 11.848372 22.88085 
L 11.742826 22.971912 
L 11.63728 23.062973 
L 11.531734 23.154034 
L 11.426188 23.245095 
L 11.320641 23.336156 
L 11.215095 23.427217 
L 11.109549 23.518279 
L 11.037121 23.658977 
L 10.964693 23.799675 
L 10.892265 23.940373 
L 10.819837 24.081071 
L 10.747409 24.22177 
L 10.674981 24.362468 
L 10.602553 24.503166 
L 10.530126 24.643864 
L 10.451467 24.850769 
L 10.372809 25.057674 
L 10.294151 25.264579 
L 10.215493 25.471483 
" style="fill:none;stroke:#4169e1;stroke-linecap:square;stroke-width:0.4;"/>
   </g>
   <g id="line2d_42">
    <path clip-path="url(#pc6d38d0f0d)" d="M 7.947486 30.834487 
L 7.872994 30.991731 
L 7.798502 31.148975 
L 7.72401 31.306219 
L 7.649518 31.463463 
L 7.57086 31.645537 
L 7.492202 31.827611 
L 7.413544 32.009686 
L 7.334886 32.19176 
L 7.223129 32.344873 
L 7.111372 32.497987 
L 6.999615 32.6511 
L 6.887858 32.804214 
L 6.780248 32.911796 
L 6.672638 33.019379 
L 6.565028 33.126962 
L 6.457418 33.234545 
L 6.349808 33.342128 
L 6.242198 33.449711 
L 6.134588 33.557293 
L 6.026978 33.664876 
" style="fill:none;stroke:#000000;stroke-linecap:square;stroke-width:0.4;"/>
   </g>
   <g id="line2d_43">
    <path clip-path="url(#pc6d38d0f0d)" d="M 14.59072 26.427049 
L 14.39421 26.483819 
L 14.1977 26.540588 
L 14.027229 26.580835 
L 13.856758 26.621083 
L 13.686287 26.66133 
L 13.515816 26.701578 
L 13.345345 26.741825 
L 13.174874 26.782073 
L 13.004403 26.82232 
L 12.833932 26.862568 
L 12.627778 26.830581 
L 12.421623 26.798594 
L 12.240621 26.675835 
L 12.075898 26.586695 
L 11.911175 26.497555 
L 11.784335 26.507929 
L 11.698771 26.627422 
L 11.613208 26.746916 
L 11.487775 26.685704 
L 11.362343 26.624493 
L 11.23691 26.563281 
L 11.111478 26.502069 
L 10.986046 26.440857 
L 10.860613 26.379646 
L 10.735181 26.318434 
L 10.609748 26.257222 
L 10.461285 26.189911 
L 10.312822 26.1226 
L 10.16436 26.055288 
L 10.015897 25.987977 
L 9.867434 25.920666 
L 9.718971 25.853354 
L 9.570508 25.786043 
L 9.422045 25.718732 
L 9.254853 25.630552 
L 9.087662 25.542373 
L 8.857667 25.602312 
L 8.627672 25.662251 
L 8.439726 25.67858 
L 8.223387 25.75994 
L 8.007048 25.841299 
L 7.962916 25.86589 
L 7.852934 25.938844 
L 7.742951 26.011799 
L 7.632969 26.084753 
L 7.522986 26.157708 
L 7.375623 26.163664 
L 7.22826 26.169619 
L 6.99433 26.077597 
L 6.87181 25.957719 
L 6.74929 25.837841 
L 6.679697 25.717243 
L 6.610105 25.596644 
L 6.540512 25.476046 
L 6.47092 25.355448 
L 6.324019 25.201662 
L 6.177119 25.047876 
L 6.063047 24.961858 
L 5.948976 24.875839 
L 5.834904 24.789821 
L 5.720832 24.703803 
L 5.555801 24.58527 
L 5.390769 24.466737 
L 5.296796 24.440801 
L 5.25251 24.579699 
L 5.208224 24.718596 
L 5.253436 24.879874 
L 5.298648 25.041152 
L 5.359638 25.15762 
L 5.420628 25.274088 
L 5.481618 25.390556 
L 5.542607 25.507024 
L 5.639281 25.682999 
L 5.735954 25.858974 
L 5.754818 26.025295 
L 5.773683 26.191616 
L 5.792547 26.357937 
L 5.811411 26.524258 
L 5.803232 26.772851 
L 5.795054 27.021445 
L 5.823099 27.159477 
L 5.851145 27.29751 
L 5.87919 27.435542 
L 5.907235 27.573575 
L 5.945581 27.794888 
L 5.983926 28.016201 
L 5.818817 28.203703 
L 5.681233 28.182523 
L 5.543649 28.161342 
L 5.406065 28.140162 
L 5.268481 28.118981 
L 5.130896 28.097801 
L 4.993312 28.076621 
L 4.855728 28.05544 
L 4.718144 28.03426 
L 4.580386 27.973072 
L 4.442628 27.911885 
L 4.304871 27.850697 
L 4.167113 27.789509 
L 4.020097 27.694414 
L 3.87308 27.599318 
L 3.726064 27.504222 
L 3.579048 27.409127 
L 3.587226 27.529581 
L 3.663531 27.652053 
L 3.739836 27.774524 
L 3.868683 27.949827 
L 3.997529 28.125129 
L 4.100491 28.264266 
L 4.203452 28.403404 
L 4.306414 28.542541 
L 4.409375 28.681678 
" style="fill:none;stroke:#4169e1;stroke-linecap:square;stroke-width:0.4;"/>
   </g>
   <g id="line2d_44">
    <path clip-path="url(#pc6d38d0f0d)" d="M 8.195766 23.849288 
L 8.003306 23.832742 
L 7.810846 23.816197 
L 7.618387 23.799651 
L 7.425927 23.783105 
L 7.233467 23.76656 
L 7.041008 23.750014 
L 6.848548 23.733468 
L 6.656088 23.716923 
L 6.445035 23.576201 
L 6.233981 23.435478 
L 6.022927 23.294756 
L 5.811874 23.154034 
L 5.680095 23.036461 
L 5.514138 22.888343 
L 5.34818 22.740224 
L 5.170226 22.669863 
L 4.992271 22.599502 
L 4.814316 22.529141 
L 4.636361 22.45878 
L 4.458406 22.388419 
L 4.280452 22.318058 
L 4.102497 22.247697 
L 3.924542 22.177336 
L 3.750715 22.193953 
L 3.576888 22.210571 
L 3.365795 22.285062 
L 3.154703 22.359554 
L 2.943611 22.434045 
L 2.732519 22.508537 
L 2.566947 22.649211 
L 2.401375 22.789885 
L 2.235804 22.930559 
L 2.070232 23.071234 
L 2.041261 23.298839 
L 2.01229 23.526443 
L 1.983318 23.754048 
L 1.954347 23.981653 
L 1.979191 24.126506 
L 2.004034 24.271358 
L 2.028878 24.416211 
L 2.053721 24.561064 
L 2.078565 24.705916 
L 2.103408 24.850769 
L 2.128252 24.995621 
L 2.153095 25.140474 
L 2.227587 25.35564 
L 2.302079 25.570805 
L 2.37657 25.785971 
L 2.451062 26.001137 
L 2.517279 26.114939 
L 2.583496 26.228742 
L 2.649713 26.342544 
L 2.715931 26.456347 
L 2.782148 26.570149 
L 2.848365 26.683951 
L 2.914582 26.797754 
L 2.980799 26.911556 
L 3.063585 27.031578 
L 3.146371 27.151601 
L 3.229156 27.271623 
L 3.311942 27.391645 
" style="fill:none;stroke:#ff0000;stroke-linecap:square;stroke-width:0.4;"/>
   </g>
   <g id="line2d_45">
    <path clip-path="url(#pc6d38d0f0d)" d="M 5.680095 23.036461 
L 5.44794 23.095248 
L 5.215785 23.154034 
L 5.046085 23.232656 
L 4.876386 23.311278 
L 4.706687 23.3899 
L 4.536987 23.468522 
L 4.404553 23.470587 
L 4.272119 23.472652 
L 4.139685 23.474717 
L 4.007251 23.476782 
L 3.874816 23.478848 
L 3.742382 23.480913 
L 3.609948 23.482978 
L 3.477514 23.485043 
L 3.249872 23.381591 
L 3.02223 23.278138 
L 2.794589 23.174686 
L 2.566947 23.071234 
L 2.376223 23.013792 
L 2.223228 23.042513 
L 2.070232 23.071234 
" style="fill:none;stroke:#ff0000;stroke-linecap:square;stroke-width:0.4;"/>
   </g>
   <g id="line2d_46">
    <path clip-path="url(#pc6d38d0f0d)" d="M 10.927467 27.722654 
L 10.724668 27.830237 
L 10.52187 27.93782 
L 10.319072 28.045403 
L 10.116274 28.152985 
L 10.00035 28.219216 
L 9.884427 28.285447 
L 9.768504 28.351677 
L 9.65258 28.417908 
L 9.499469 28.47583 
L 9.346358 28.533752 
L 9.193246 28.591674 
L 9.040135 28.649595 
" style="fill:none;stroke:#000000;stroke-linecap:square;stroke-width:0.4;"/>
   </g>
   <g id="line2d_47">
    <path clip-path="url(#pc6d38d0f0d)" d="M 28.445503 28.360274 
L 28.245579 28.328312 
L 28.045654 28.296349 
L 27.84573 28.264386 
L 27.645806 28.232424 
L 27.445881 28.200461 
L 27.245957 28.168498 
L 27.046033 28.136536 
L 26.846108 28.104573 
L 26.660477 28.080271 
L 26.474845 28.055969 
L 26.289214 28.031666 
L 26.103582 28.007364 
L 25.862631 28.084689 
L 25.621681 28.162015 
L 25.463593 28.2598 
L 25.305505 28.357585 
L 25.147417 28.45537 
L 24.98933 28.553155 
" style="fill:none;stroke:#000000;stroke-linecap:square;stroke-width:0.4;"/>
   </g>
   <g id="line2d_48">
    <path clip-path="url(#pc6d38d0f0d)" d="M 26.37362 31.761429 
L 26.133556 31.79039 
L 25.893493 31.819351 
L 25.653429 31.848311 
L 25.413366 31.877272 
L 25.243667 31.879338 
L 25.073967 31.881403 
L 24.904268 31.883468 
L 24.734568 31.885533 
L 24.564869 31.887598 
L 24.39517 31.889664 
L 24.22547 31.891729 
L 24.055771 31.893794 
L 23.799158 31.918673 
L 23.542545 31.943551 
L 23.372865 31.966292 
L 23.203185 31.989034 
L 23.033505 32.011775 
L 22.863825 32.034516 
L 22.694145 32.057257 
L 22.524465 32.079999 
L 22.354785 32.10274 
L 22.185104 32.125481 
L 21.949169 32.199973 
L 21.713233 32.274464 
L 21.477297 32.348956 
L 21.241361 32.423447 
L 21.022014 32.440017 
L 20.802666 32.456587 
L 20.583318 32.473156 
L 20.363971 32.489726 
L 20.225326 32.44213 
L 20.086681 32.394534 
L 19.948035 32.346939 
L 19.80939 32.299343 
L 19.670745 32.251747 
L 19.5321 32.204151 
L 19.393455 32.156555 
L 19.25481 32.10896 
" style="fill:none;stroke:#ff0000;stroke-linecap:square;stroke-width:0.4;"/>
   </g>
   <g id="line2d_49">
    <path clip-path="url(#pc6d38d0f0d)" d="M 22.085731 28.43443 
L 22.002945 28.573063 
L 21.920159 28.711696 
L 21.837373 28.850329 
L 21.754587 28.988962 
L 21.671801 29.127595 
L 21.589016 29.266227 
L 21.50623 29.40486 
L 21.423444 29.543493 
L 21.398678 29.791702 
L 21.373911 30.039911 
L 21.315969 30.184764 
L 21.258027 30.329616 
L 21.200084 30.474469 
L 21.142142 30.619322 
L 21.001414 30.751735 
L 20.860686 30.884148 
L 20.719957 31.016562 
L 20.579229 31.148975 
L 20.450923 31.215206 
L 20.322616 31.281436 
L 20.19431 31.347667 
L 20.066003 31.413898 
L 19.964604 31.50078 
L 19.863205 31.587663 
L 19.761806 31.674546 
L 19.660407 31.761429 
L 19.559008 31.848311 
L 19.457609 31.935194 
L 19.356209 32.022077 
L 19.25481 32.10896 
L 19.085111 32.17519 
L 18.915412 32.241421 
L 18.745712 32.307652 
L 18.576013 32.373882 
L 18.406313 32.485596 
L 18.236614 32.597309 
L 18.066915 32.709022 
L 17.897215 32.820735 
L 17.694417 32.920057 
L 17.491619 33.019379 
L 17.288821 33.118701 
L 17.086022 33.218023 
L 16.895646 33.267684 
L 16.705269 33.317345 
L 16.514893 33.367006 
L 16.324516 33.416667 
L 16.200337 33.458043 
L 16.076159 33.49942 
L 15.95198 33.540796 
L 15.827801 33.582172 
L 15.703622 33.623548 
L 15.579444 33.664924 
L 15.455265 33.7063 
L 15.331086 33.747677 
L 15.161406 33.778703 
L 14.991726 33.809729 
L 14.822046 33.840755 
L 14.652366 33.871781 
L 14.482686 33.902807 
L 14.313006 33.933833 
L 14.143326 33.964859 
L 13.973646 33.995886 
L 13.812202 33.913133 
L 13.650758 33.830381 
L 13.489314 33.747629 
L 13.32787 33.664876 
" style="fill:none;stroke:#000000;stroke-linecap:square;stroke-width:0.4;"/>
   </g>
   <g id="line2d_50">
    <path clip-path="url(#pc6d38d0f0d)" d="M 25.347168 32.721413 
L 25.194018 32.744179 
L 25.040868 32.766944 
L 24.887718 32.789709 
L 24.734568 32.812474 
L 24.581418 32.83524 
L 24.428269 32.858005 
L 24.275119 32.88077 
L 24.121969 32.903536 
L 23.91296 32.903536 
L 23.70395 32.903536 
L 23.494941 32.903536 
L 23.285932 32.903536 
L 23.076923 32.903536 
L 22.867914 32.903536 
L 22.658905 32.903536 
L 22.449896 32.903536 
L 22.255372 32.946977 
L 22.060849 32.990418 
L 21.866325 33.03386 
L 21.671801 33.077301 
L 21.477278 33.120743 
L 21.282754 33.164184 
L 21.088231 33.207625 
L 20.893707 33.251067 
L 20.69712 33.311078 
L 20.500532 33.371089 
L 20.303945 33.4311 
L 20.107358 33.491111 
L 19.91077 33.551122 
L 19.714183 33.611133 
L 19.517595 33.671144 
L 19.321008 33.731155 
L 19.194765 33.791142 
L 19.068523 33.851129 
L 18.94228 33.911116 
L 18.816038 33.971103 
L 18.689795 34.03109 
L 18.563552 34.091077 
L 18.43731 34.151064 
L 18.311067 34.211051 
L 18.149662 34.293828 
L 17.988257 34.376604 
L 17.826851 34.45938 
L 17.665446 34.542157 
L 17.504041 34.624933 
L 17.342635 34.707709 
L 17.18123 34.790486 
L 17.019824 34.873262 
L 16.889454 34.964299 
L 16.759084 35.055336 
L 16.628713 35.146373 
L 16.498343 35.237411 
L 16.367973 35.328448 
L 16.237603 35.419485 
L 16.107232 35.510522 
L 15.976862 35.601559 
L 15.842345 35.711207 
L 15.707827 35.820855 
L 15.57331 35.930503 
L 15.438793 36.040151 
L 15.304275 36.149799 
L 15.169758 36.259448 
L 15.035241 36.369096 
L 14.900723 36.478744 
L 14.685503 36.607027 
L 14.470283 36.735309 
L 14.255063 36.863592 
L 14.039843 36.991875 
" style="fill:none;stroke:#ff0000;stroke-linecap:square;stroke-width:0.4;"/>
   </g>
   <g id="line2d_51">
    <path clip-path="url(#pc6d38d0f0d)" d="M 21.030732 27.058906 
L 21.004577 27.214805 
L 20.978422 27.370704 
L 20.952267 27.526604 
L 20.926112 27.682503 
L 20.899957 27.838402 
L 20.873802 27.994301 
L 20.847647 28.1502 
L 20.821492 28.306099 
L 20.795992 28.466897 
L 20.770493 28.627695 
L 20.744994 28.788492 
L 20.719494 28.94929 
L 20.615395 29.15485 
L 20.511295 29.36041 
L 20.407196 29.565971 
L 20.303096 29.771531 
L 20.198997 29.977091 
L 20.094897 30.182651 
L 19.990798 30.388211 
L 19.886698 30.593771 
L 19.762336 30.651777 
L 19.637974 30.709783 
L 19.513612 30.767788 
L 19.38925 30.825794 
L 19.264888 30.8838 
L 19.140526 30.941806 
L 19.016165 30.999812 
L 18.891803 31.057818 
L 18.767441 31.115824 
L 18.643079 31.17383 
L 18.518717 31.231835 
L 18.394355 31.289841 
L 18.269993 31.347847 
L 18.145631 31.405853 
L 18.021269 31.463859 
L 17.896907 31.521865 
L 17.690058 31.540356 
L 17.483209 31.558846 
L 17.27636 31.577337 
L 17.069511 31.595828 
L 16.850125 31.71172 
L 16.630739 31.827611 
L 16.411352 31.943503 
L 16.191966 32.059395 
L 16.061596 32.119382 
L 15.931226 32.179369 
L 15.800855 32.239356 
L 15.670485 32.299343 
L 15.540115 32.35933 
L 15.409744 32.419317 
L 15.279374 32.479304 
L 15.149004 32.539291 
L 14.97103 32.642743 
L 14.793055 32.746196 
L 14.615081 32.849648 
L 14.437107 32.953101 
L 14.259133 33.056553 
L 14.081159 33.160005 
L 13.903185 33.263458 
L 13.725211 33.36691 
L 13.58863 33.428987 
L 13.452049 33.491063 
L 13.315467 33.553139 
L 13.178886 33.615215 
L 13.042305 33.677292 
L 12.905724 33.739368 
L 12.769143 33.801444 
L 12.632561 33.86352 
L 12.396664 33.84282 
L 12.160767 33.82212 
L 11.92487 33.80142 
L 11.688973 33.78072 
" style="fill:none;stroke:#000000;stroke-linecap:square;stroke-width:0.4;"/>
   </g>
   <g id="line2d_52">
    <path clip-path="url(#pc6d38d0f0d)" d="M 24.448637 26.648555 
L 24.225702 26.67108 
L 24.002766 26.693605 
L 23.779831 26.71613 
L 23.556896 26.738655 
L 23.33396 26.761181 
L 23.111025 26.783706 
L 22.88809 26.806231 
L 22.665154 26.828756 
L 22.592726 27.029465 
L 22.520298 27.230174 
L 22.44787 27.430884 
L 22.375442 27.631593 
L 22.303014 27.832302 
L 22.230586 28.033011 
L 22.158159 28.23372 
L 22.085731 28.43443 
" style="fill:none;stroke:#000000;stroke-linecap:square;stroke-width:0.4;"/>
   </g>
   <g id="line2d_53">
    <path clip-path="url(#pc6d38d0f0d)" d="M 18.509198 26.85008 
L 18.318937 26.977163 
L 18.128676 27.104245 
L 17.938415 27.231327 
L 17.748155 27.358409 
L 17.603299 27.443251 
L 17.458443 27.528092 
L 17.313587 27.612934 
L 17.168731 27.697776 
L 17.023875 27.782617 
L 16.879019 27.867459 
L 16.734163 27.9523 
L 16.589307 28.037142 
L 16.442388 28.113698 
L 16.295468 28.190255 
L 16.148548 28.266812 
L 16.001628 28.343369 
L 15.854708 28.419925 
L 15.707789 28.496482 
L 15.560869 28.573039 
L 15.413949 28.649595 
L 15.194601 28.761309 
L 14.975254 28.873022 
L 14.755906 28.984735 
L 14.536558 29.096448 
L 14.379281 29.115083 
L 14.222003 29.133718 
L 14.064725 29.152353 
L 13.907448 29.170988 
L 13.75017 29.189623 
L 13.592892 29.208258 
L 13.435615 29.226893 
L 13.278337 29.245527 
L 13.129315 29.274488 
L 12.980293 29.303449 
L 12.831271 29.33241 
L 12.682248 29.361371 
L 12.529118 29.408943 
L 12.375987 29.456515 
L 12.222856 29.504086 
L 12.069726 29.551658 
L 11.916595 29.59923 
L 11.763465 29.646802 
L 11.610334 29.694374 
L 11.457203 29.741945 
L 11.337191 29.94472 
L 11.217178 30.147494 
L 11.097166 30.350269 
L 10.977154 30.553043 
" style="fill:none;stroke:#4169e1;stroke-linecap:square;stroke-width:0.4;"/>
   </g>
   <g id="line2d_54">
    <path clip-path="url(#pc6d38d0f0d)" d="M 27.333874 32.045178 
L 27.482857 32.194161 
L 27.631841 32.343144 
L 27.667023 32.492103 
L 27.702205 32.641062 
L 27.737387 32.790021 
L 27.772569 32.93898 
L 27.807751 33.087939 
L 27.842933 33.236898 
L 27.878115 33.385857 
L 27.913297 33.534816 
L 27.985725 33.741721 
L 28.058153 33.948626 
L 28.130581 34.155531 
L 28.203009 34.362436 
L 28.275437 34.56934 
L 28.347865 34.776245 
L 28.420293 34.98315 
L 28.492721 35.190055 
L 28.529967 35.36591 
L 28.567213 35.541764 
L 28.604459 35.717619 
L 28.641704 35.893474 
L 28.67895 36.069328 
L 28.716196 36.245183 
L 28.753442 36.421038 
L 28.790688 36.596893 
L 28.735147 36.820547 
L 28.679606 37.044202 
L 28.624065 37.267856 
L 28.568524 37.491511 
L 28.512983 37.715166 
L 28.457442 37.93882 
L 28.401901 38.162475 
L 28.34636 38.386129 
L 28.290819 38.609784 
L 28.235279 38.833439 
L 28.179738 39.057093 
L 28.124197 39.280748 
L 28.068656 39.504403 
L 28.013115 39.728057 
L 27.957574 39.951712 
L 27.902033 40.175366 
" style="fill:none;stroke:#ff0000;stroke-linecap:square;stroke-width:0.4;"/>
   </g>
   <g id="line2d_55">
    <path clip-path="url(#pc6d38d0f0d)" d="M 30.3961 26.216879 
L 30.274188 26.350841 
L 30.152276 26.484803 
L 30.030363 26.618765 
L 29.908451 26.752728 
L 29.786539 26.88669 
L 29.664626 27.020652 
L 29.542714 27.154614 
L 29.420802 27.288577 
L 29.298889 27.422539 
L 29.176977 27.556501 
L 29.055065 27.690463 
L 28.933152 27.824425 
L 28.81124 27.958388 
L 28.689328 28.09235 
L 28.567415 28.226312 
L 28.445503 28.360274 
" style="fill:none;stroke:#ff0000;stroke-linecap:square;stroke-width:0.4;"/>
   </g>
   <g id="line2d_56">
    <path clip-path="url(#pc6d38d0f0d)" d="M 36.356063 37.149599 
L 40.358329 42.001201 
L 40.87059 44.951324 
L 41.029623 47.541176 
L 40.884459 50.777018 
L 40.763183 52.972788 
L 40.772278 54.728369 
L 40.201071 57.126002 
L 37.919928 59.053583 
L 37.730631 59.204848 
L 37.730631 59.204848 
" style="fill:none;stroke:#ff0000;stroke-linecap:square;stroke-width:0.4;"/>
   </g>
   <g id="line2d_57">
    <path clip-path="url(#pc6d38d0f0d)" d="M 14.720338 3.272727 
L 14.651517 3.390732 
L 14.582696 3.508737 
L 14.513875 3.626742 
L 14.445054 3.744747 
L 14.442469 3.884425 
L 14.439885 4.024102 
L 14.4373 4.16378 
L 14.434716 4.303457 
L 14.432131 4.443135 
L 14.429546 4.582812 
L 14.426962 4.72249 
L 14.424377 4.862168 
L 14.421792 5.001845 
L 14.419208 5.141523 
L 14.416623 5.2812 
L 14.414038 5.420878 
L 14.411454 5.560555 
L 14.408869 5.700233 
L 14.406284 5.839911 
L 14.4037 5.979588 
L 14.385077 6.144108 
L 14.366454 6.308628 
L 14.347831 6.473148 
L 14.329208 6.637668 
L 14.310585 6.802188 
L 14.291962 6.966709 
L 14.273339 7.131229 
L 14.254716 7.295749 
L 14.236093 7.460269 
L 14.21747 7.624789 
L 14.198847 7.789309 
L 14.180224 7.953829 
L 14.161601 8.118349 
L 14.142978 8.282869 
L 14.124355 8.447389 
L 14.105733 8.611909 
L 14.174023 8.775901 
L 14.242314 8.939893 
L 14.310604 9.103885 
L 14.378895 9.267876 
L 14.447185 9.431868 
L 14.515476 9.59586 
L 14.583767 9.759852 
L 14.652057 9.923844 
L 14.720348 10.087835 
L 14.788638 10.251827 
L 14.856929 10.415819 
L 14.92522 10.579811 
L 14.99351 10.743802 
L 15.061801 10.907794 
L 15.130091 11.071786 
L 15.198382 11.235778 
L 15.215973 11.422535 
L 15.233564 11.609292 
L 15.251155 11.796049 
L 15.268746 11.982806 
L 15.286337 12.169563 
L 15.303928 12.35632 
L 15.321519 12.543077 
L 15.33911 12.729834 
L 15.332379 12.866906 
L 15.325647 13.003978 
L 15.318915 13.14105 
L 15.312184 13.278122 
L 15.305452 13.415194 
L 15.29872 13.552267 
L 15.291989 13.689339 
L 15.285257 13.826411 
L 15.177898 13.980965 
L 15.070538 14.135519 
L 14.963179 14.290073 
L 14.85582 14.444628 
" style="fill:none;stroke:#ff0000;stroke-linecap:square;stroke-width:0.4;"/>
   </g>
   <g id="line2d_58">
    <path clip-path="url(#pc6d38d0f0d)" d="M 17.780868 29.842036 
L 17.538335 29.881419 
L 17.295803 29.920802 
L 17.053271 29.960185 
L 16.810738 29.999568 
L 16.568206 30.038951 
L 16.325673 30.078334 
L 16.083141 30.117717 
L 15.840609 30.1571 
L 15.591036 30.200877 
L 15.341463 30.244655 
L 15.091891 30.288432 
L 14.842318 30.33221 
L 14.592745 30.375988 
L 14.343173 30.419765 
L 14.0936 30.463543 
L 13.844027 30.50732 
L 13.749119 30.599222 
L 13.65421 30.691124 
L 13.559302 30.783025 
L 13.464393 30.874927 
L 13.369485 30.966829 
L 13.274576 31.05873 
L 13.179667 31.150632 
L 13.084759 31.242534 
L 12.98985 31.334435 
L 12.894942 31.426337 
L 12.800033 31.518239 
L 12.705124 31.61014 
L 12.610216 31.702042 
L 12.515307 31.793944 
L 12.420399 31.885845 
L 12.32549 31.977747 
L 12.195428 32.144044 
L 12.065367 32.310341 
L 11.935305 32.476638 
L 11.805243 32.642935 
L 11.675182 32.809233 
L 11.54512 32.97553 
L 11.415058 33.141827 
L 11.284996 33.308124 
L 11.20304 33.439625 
L 11.121084 33.571126 
L 11.039127 33.702626 
L 10.957171 33.834127 
L 10.875214 33.965628 
L 10.793258 34.097129 
L 10.711302 34.22863 
L 10.629345 34.36013 
" style="fill:none;stroke:#4169e1;stroke-linecap:square;stroke-width:0.4;"/>
   </g>
   <g id="line2d_59">
    <path clip-path="url(#pc6d38d0f0d)" d="M 31.323795 34.163792 
L 31.43968 34.316905 
L 31.555565 34.470018 
L 31.67145 34.623132 
L 31.787334 34.776245 
L 31.903219 34.929359 
L 32.019104 35.082472 
L 32.134989 35.235586 
L 32.250873 35.388699 
L 32.205333 35.533528 
L 32.159793 35.678356 
L 32.114253 35.823185 
L 32.068714 35.968013 
L 32.023174 36.112842 
L 31.977634 36.25767 
L 31.932094 36.402499 
L 31.886554 36.547328 
L 31.761526 36.627631 
L 31.636499 36.707933 
L 31.511472 36.788236 
L 31.386444 36.868539 
L 31.261417 36.948842 
L 31.136389 37.029145 
L 31.011362 37.109448 
L 30.886334 37.189751 
" style="fill:none;stroke:#000000;stroke-linecap:square;stroke-width:0.4;"/>
   </g>
   <g id="line2d_60">
    <path clip-path="url(#pc6d38d0f0d)" d="M 24.330901 43.824922 
L 24.493116 43.748989 
L 24.655332 43.673057 
L 24.817547 43.597125 
L 24.979763 43.521192 
L 25.141978 43.44526 
L 25.304194 43.369328 
L 25.466409 43.293395 
L 25.628624 43.217463 
L 25.725144 43.083657 
L 25.821663 42.949851 
L 25.970724 42.765423 
L 26.030595 42.628639 
L 26.090466 42.491855 
L 26.150337 42.355071 
L 26.210208 42.218287 
L 26.292724 42.084577 
L 26.37524 41.950867 
L 26.457756 41.817157 
L 26.540272 41.683447 
L 26.622787 41.549737 
L 26.705303 41.416027 
L 26.787819 41.282317 
L 26.870335 41.148607 
L 27.000686 40.972632 
L 27.131037 40.796657 
L 27.261388 40.620682 
L 27.391739 40.444708 
L 27.562017 40.323485 
L 27.732295 40.202262 
L 27.902033 40.175366 
" style="fill:none;stroke:#4169e1;stroke-linecap:square;stroke-width:0.4;"/>
   </g>
   <g id="line2d_61">
    <path clip-path="url(#pc6d38d0f0d)" d="M 31.5389 57.086426 
L 31.626585 57.288336 
L 31.71427 57.490246 
L 31.801955 57.692156 
L 31.88964 57.894066 
L 31.977325 58.095976 
L 32.06501 58.297886 
L 32.152695 58.499796 
L 32.24038 58.701706 
L 32.337488 58.818222 
L 32.434595 58.934738 
L 32.531703 59.051254 
L 32.62881 59.16777 
L 32.725918 59.284286 
L 32.823025 59.400802 
L 32.920133 59.517318 
L 33.01724 59.633834 
L 33.114348 59.75035 
L 33.211455 59.866866 
L 33.308562 59.983382 
L 33.40567 60.099898 
L 33.502777 60.216414 
L 33.599885 60.33293 
L 33.696992 60.449446 
L 33.7941 60.565963 
L 33.826273 60.736558 
L 33.858446 60.907154 
L 33.890619 61.077749 
L 33.922792 61.248345 
" style="fill:none;stroke:#4169e1;stroke-linecap:square;stroke-width:0.4;"/>
   </g>
   <g id="line2d_62">
    <path clip-path="url(#pc6d38d0f0d)" d="M 35.048618 54.05797 
L 35.066035 54.249878 
L 35.083452 54.441786 
L 35.10087 54.633694 
L 35.118287 54.825602 
L 35.135705 55.01751 
L 35.153122 55.209418 
L 35.17054 55.401326 
L 35.187957 55.593234 
L 35.205374 55.785143 
L 35.222792 55.977051 
L 35.240209 56.168959 
L 35.257627 56.360867 
L 35.275044 56.552775 
L 35.292462 56.744683 
L 35.309879 56.936591 
L 35.327296 57.128499 
" style="fill:none;stroke:#ff0000;stroke-dasharray:1.48,0.64;stroke-dashoffset:0;stroke-width:0.4;"/>
   </g>
   <g id="line2d_63">
    <path clip-path="url(#pc6d38d0f0d)" d="M 20.661166 63.674722 
L 20.588353 63.803389 
L 20.515539 63.932056 
L 20.442725 64.060723 
L 20.369911 64.189391 
L 20.297098 64.318058 
L 20.224284 64.446725 
L 20.15147 64.575392 
L 20.078657 64.704059 
" style="fill:none;stroke:#ff0000;stroke-linecap:square;stroke-width:0.4;"/>
   </g>
   <g id="line2d_64">
    <path clip-path="url(#pc6d38d0f0d)" d="M 26.251563 31.189126 
L 26.399235 31.106182 
L 26.546907 31.023238 
L 26.694579 30.940293 
L 26.842251 30.857349 
L 26.989923 30.774404 
L 27.137595 30.69146 
L 27.285267 30.608515 
L 27.432939 30.525571 
L 27.634078 30.38019 
L 27.835218 30.234809 
L 28.036357 30.089428 
L 28.237497 29.944047 
L 28.326995 29.794296 
L 28.416493 29.644544 
L 28.420119 29.484011 
L 28.423745 29.323477 
L 28.427372 29.162943 
L 28.430998 29.002409 
L 28.434624 28.841876 
L 28.43825 28.681342 
L 28.441877 28.520808 
L 28.445503 28.360274 
L 28.324835 28.180169 
L 28.204166 28.000064 
L 28.083498 27.819959 
L 27.96283 27.639854 
L 27.852384 27.485588 
L 27.741939 27.331321 
L 27.631494 27.177055 
L 27.521048 27.022789 
L 27.285884 26.959056 
L 27.05072 26.895323 
L 26.815556 26.83159 
L 26.580391 26.767856 
L 26.330028 26.75412 
L 26.079664 26.740384 
L 25.829301 26.726648 
L 25.578938 26.712912 
L 25.399825 26.560567 
L 25.220713 26.408222 
L 25.041601 26.255877 
L 24.862489 26.103532 
L 24.755959 26.027408 
L 24.649429 25.951284 
L 24.5429 25.875159 
L 24.43637 25.799035 
L 24.32984 25.72291 
L 24.22331 25.646786 
L 24.11678 25.570661 
L 24.01025 25.494537 
L 23.840049 25.470955 
L 23.669849 25.447373 
L 23.499648 25.423791 
L 23.329447 25.40021 
L 23.159246 25.376628 
L 22.989045 25.353046 
L 22.818844 25.329464 
L 22.648643 25.305883 
L 22.472733 25.276922 
L 22.296823 25.247961 
L 22.120913 25.219 
L 21.945002 25.190039 
L 21.769092 25.161078 
L 21.593182 25.132117 
L 21.417272 25.103156 
L 21.241361 25.074195 
L 21.026026 25.180674 
L 20.81069 25.287152 
L 20.595354 25.39363 
L 20.380019 25.500108 
L 20.251751 25.664748 
L 20.123483 25.829388 
L 19.995215 25.994029 
L 19.866947 26.158669 
L 19.778722 26.318266 
L 19.690497 26.477863 
L 19.602272 26.63746 
L 19.514046 26.797057 
L 19.312637 26.817421 
L 19.111227 26.837785 
L 18.909818 26.858149 
L 18.708408 26.878513 
L 18.509198 26.85008 
L 18.261149 26.814636 
L 18.0131 26.779191 
L 17.822724 26.70883 
L 17.632347 26.638469 
L 17.44197 26.568108 
L 17.251594 26.497747 
L 17.121224 26.543253 
L 16.990853 26.58876 
L 16.860483 26.634266 
L 16.730113 26.679773 
L 16.599742 26.72528 
L 16.469372 26.770786 
L 16.339002 26.816293 
L 16.208631 26.861799 
L 16.085764 26.91487 
L 15.962897 26.967941 
L 15.84003 27.021012 
L 15.717163 27.074083 
L 15.5958 27.018323 
L 15.474438 26.962562 
L 15.353075 26.906802 
L 15.231712 26.851041 
L 15.071464 26.745043 
L 14.911216 26.639045 
L 14.750968 26.533047 
L 14.59072 26.427049 
" style="fill:none;stroke:#4169e1;stroke-linecap:square;stroke-width:0.4;"/>
   </g>
   <g id="line2d_65">
    <path clip-path="url(#pc6d38d0f0d)" d="M 33.971707 59.395615 
L 33.953113 59.531775 
L 33.934519 59.667934 
L 33.915925 59.804094 
L 33.897331 59.940253 
" style="fill:none;stroke:#008000;stroke-linecap:square;stroke-width:0.4;"/>
   </g>
   <g id="line2d_66">
    <path clip-path="url(#pc6d38d0f0d)" d="M 10.404211 34.091942 
L 10.296524 33.866966 
L 10.188837 33.641991 
L 10.081149 33.417016 
L 9.973462 33.19204 
L 9.865775 32.967065 
L 9.758088 32.742089 
L 9.650401 32.517114 
L 9.542714 32.292139 
L 9.435026 32.067163 
L 9.327339 31.842188 
L 9.219652 31.617212 
L 9.111965 31.392237 
L 9.004278 31.167262 
L 8.896591 30.942286 
L 8.788904 30.717311 
L 8.681216 30.492336 
L 8.541916 30.436623 
L 8.402615 30.38091 
L 8.263314 30.325198 
L 8.124013 30.269485 
L 7.93545 30.419477 
L 7.746886 30.569469 
L 7.558323 30.71946 
L 7.369759 30.869452 
L 7.241183 30.843709 
L 7.112606 30.817966 
L 6.98403 30.792223 
L 6.855453 30.76648 
L 6.73383 30.666317 
L 6.612207 30.566155 
L 6.490584 30.465992 
L 6.368961 30.36583 
L 6.247338 30.265667 
L 6.125715 30.165505 
L 6.004092 30.065342 
L 5.882469 29.96518 
L 5.760846 29.865017 
L 5.639223 29.764855 
L 5.5176 29.664692 
L 5.395977 29.56453 
L 5.274354 29.464367 
L 5.152731 29.364205 
L 5.031108 29.264042 
L 4.909485 29.16388 
" style="fill:none;stroke:#008000;stroke-linecap:square;stroke-width:0.4;"/>
   </g>
   <g id="line2d_67">
    <path clip-path="url(#pc6d38d0f0d)" d="M 14.783913 26.2943 
L 14.59072 26.427049 
L 14.39149 26.535209 
L 14.19226 26.643368 
L 13.99303 26.751527 
L 13.7938 26.859686 
L 13.594571 26.967845 
L 13.395341 27.076004 
L 13.196111 27.184164 
L 12.996881 27.292323 
L 12.924974 27.341503 
L 12.805656 27.424328 
L 12.686338 27.507152 
L 12.567019 27.589977 
L 12.447701 27.672801 
L 12.328383 27.755625 
L 12.209065 27.83845 
L 12.089747 27.921274 
L 11.970429 28.004098 
L 11.838805 28.111873 
L 11.707181 28.219648 
L 11.575557 28.327423 
L 11.443933 28.435198 
L 11.30876 28.563337 
L 11.173587 28.691476 
L 11.023137 28.895499 
L 10.872688 29.099522 
L 10.814668 29.294804 
L 10.756649 29.490086 
L 10.763072 29.730226 
L 10.769495 29.970367 
L 10.775918 30.210507 
L 10.782341 30.450647 
L 10.788764 30.690787 
L 10.795187 30.930928 
L 10.80161 31.171068 
L 10.808033 31.411208 
L 10.801533 31.582788 
L 10.795032 31.754369 
L 10.788532 31.925949 
L 10.782032 32.097529 
L 10.775532 32.269109 
L 10.769032 32.440689 
L 10.762532 32.61227 
L 10.756031 32.78385 
L 10.748084 32.914774 
L 10.740138 33.045699 
L 10.732191 33.176623 
L 10.724244 33.307548 
L 10.732615 33.487941 
L 10.740986 33.668334 
L 10.749358 33.848728 
L 10.757729 34.029121 
L 10.758192 34.188766 
L 10.629345 34.36013 
L 10.498647 34.34918 
" style="fill:none;stroke:#4169e1;stroke-linecap:square;stroke-width:0.4;"/>
   </g>
   <g id="line2d_68">
    <path clip-path="url(#pc6d38d0f0d)" d="M 18.377728 14.111313 
L 18.200892 14.062853 
L 18.024056 14.014392 
L 17.84722 13.965932 
L 17.670384 13.917472 
L 17.49945 13.855275 
L 17.328516 13.793079 
L 17.157582 13.730883 
L 16.986648 13.668687 
L 16.851938 13.642847 
L 16.717228 13.617008 
L 16.482527 13.658697 
L 16.278031 13.734773 
L 16.073535 13.81085 
L 15.86904 13.886926 
L 15.664544 13.963002 
L 15.531994 14.012279 
L 15.399444 14.061556 
L 15.256864 14.247424 
L 15.114285 14.433293 
L 15.002103 14.565274 
" style="fill:none;stroke:#008000;stroke-linecap:square;stroke-width:0.4;"/>
   </g>
   <g id="line2d_69">
    <path clip-path="url(#pc6d38d0f0d)" d="M 19.514046 26.797057 
L 19.503746 26.931728 
L 19.493446 27.066399 
L 19.483146 27.201069 
L 19.472846 27.33574 
L 19.367098 27.492384 
L 19.261349 27.649027 
L 19.1556 27.805671 
L 19.049852 27.962314 
L 18.944103 28.118957 
L 18.838354 28.275601 
L 18.732606 28.432244 
L 18.626857 28.588888 
L 18.521108 28.745531 
L 18.41536 28.902175 
L 18.309611 29.058818 
L 18.203862 29.215462 
L 18.098114 29.372105 
L 17.992365 29.528749 
L 17.886616 29.685392 
L 17.780868 29.842036 
" style="fill:none;stroke:#4169e1;stroke-linecap:square;stroke-width:0.4;"/>
   </g>
   <g id="line2d_70">
    <path clip-path="url(#pc6d38d0f0d)" d="M 22.648643 25.305883 
L 22.516479 25.452776 
L 22.384315 25.59967 
L 22.252151 25.746564 
L 22.119987 25.893458 
L 21.987823 26.040352 
L 21.855659 26.187245 
L 21.723494 26.334139 
L 21.59133 26.481033 
L 21.451181 26.625501 
L 21.311031 26.76997 
L 21.170882 26.914438 
L 21.030732 27.058906 
L 20.9278 27.165024 
L 20.824867 27.271142 
L 20.721934 27.37726 
L 20.619002 27.483378 
L 20.516069 27.589496 
L 20.413137 27.695614 
L 20.310204 27.801732 
L 20.207272 27.90785 
L 20.104339 28.013968 
L 20.001406 28.120086 
L 19.898474 28.226204 
L 19.795541 28.332322 
L 19.692609 28.43844 
L 19.589676 28.544558 
L 19.486744 28.650676 
L 19.383811 28.756794 
L 19.183443 28.892449 
L 18.983075 29.028104 
L 18.782707 29.16376 
L 18.582339 29.299415 
L 18.381971 29.43507 
L 18.181604 29.570725 
L 17.981236 29.706381 
L 17.780868 29.842036 
" style="fill:none;stroke:#000000;stroke-linecap:square;stroke-width:0.4;"/>
   </g>
   <g id="line2d_71">
    <path clip-path="url(#pc6d38d0f0d)" d="M 10.215493 25.471483 
L 10.13479 25.657688 
L 10.054088 25.843893 
L 9.973385 26.030098 
L 9.892682 26.216302 
L 9.81198 26.402507 
L 9.731277 26.588712 
L 9.650574 26.774917 
L 9.569872 26.961121 
L 9.437438 27.172205 
L 9.305003 27.383288 
L 9.172569 27.594371 
L 9.040135 27.805454 
L 8.980119 27.93477 
L 8.920103 28.064085 
L 8.860087 28.193401 
L 8.800072 28.322716 
L 8.740056 28.452032 
L 8.68004 28.581348 
L 8.620024 28.710663 
L 8.560008 28.839979 
L 8.499992 28.969294 
L 8.439976 29.09861 
L 8.37996 29.227925 
L 8.319945 29.357241 
L 8.259929 29.486556 
L 8.199913 29.615872 
L 8.139897 29.745187 
L 8.079881 29.874503 
" style="fill:none;stroke:#000000;stroke-linecap:square;stroke-width:0.4;"/>
   </g>
   <g id="line2d_72">
    <path clip-path="url(#pc6d38d0f0d)" d="M 24.330901 43.824922 
L 24.360798 44.01653 
L 24.390695 44.208138 
L 24.420592 44.399745 
L 24.450489 44.591353 
L 24.480386 44.782961 
L 24.510283 44.974569 
L 24.54018 45.166177 
L 24.570077 45.357785 
" style="fill:none;stroke:#000000;stroke-linecap:square;stroke-width:0.4;"/>
   </g>
   <g id="line2d_73">
    <path clip-path="url(#pc6d38d0f0d)" d="M 27.902033 40.175366 
L 27.863842 40.385729 
L 27.825651 40.596092 
L 27.847794 40.772739 
L 27.869937 40.949386 
L 27.89208 41.126034 
L 27.914223 41.302681 
L 27.899737 41.441314 
L 27.885252 41.579947 
L 27.870766 41.71858 
L 27.856281 41.857213 
L 27.841795 41.995846 
L 27.827309 42.134479 
L 27.812824 42.273111 
L 27.798338 42.411744 
L 27.815389 42.643816 
L 27.83244 42.875888 
" style="fill:none;stroke:#4169e1;stroke-linecap:square;stroke-width:0.4;"/>
   </g>
   <g id="line2d_74">
    <path clip-path="url(#pc6d38d0f0d)" d="M 27.383561 42.561016 
L 27.531233 42.571102 
L 27.678905 42.581187 
L 27.755672 42.728537 
L 27.83244 42.875888 
" style="fill:none;stroke:#4169e1;stroke-linecap:square;stroke-width:0.4;"/>
   </g>
   <g id="line2d_75">
    <path clip-path="url(#pc6d38d0f0d)" d="M 27.83244 42.875888 
L 27.848025 43.079815 
L 27.86361 43.283742 
L 27.851189 43.465768 
L 27.838767 43.647794 
L 27.826345 43.829821 
L 27.813923 44.011847 
L 27.834639 44.193921 
L 27.855355 44.375996 
L 27.876071 44.55807 
L 27.896786 44.740144 
" style="fill:none;stroke:#008000;stroke-linecap:square;stroke-width:0.4;"/>
   </g>
   <g id="line2d_76">
    <path clip-path="url(#pc6d38d0f0d)" d="M 29.394184 34.571454 
L 29.429935 34.723907 
L 29.465686 34.87636 
L 29.501437 35.028813 
L 29.537188 35.181266 
L 29.572939 35.333719 
L 29.60869 35.486172 
L 29.644441 35.638625 
L 29.680192 35.791078 
L 29.715943 35.943531 
L 29.751694 36.095984 
L 29.787445 36.248437 
L 29.823196 36.40089 
L 29.858947 36.553343 
L 29.894698 36.705796 
L 29.930449 36.858249 
L 29.966201 37.010702 
" style="fill:none;stroke:#ff0000;stroke-linecap:square;stroke-width:0.4;"/>
   </g>
   <g id="line2d_77">
    <path clip-path="url(#pc6d38d0f0d)" d="M 31.5389 57.086426 
L 31.631677 57.262689 
L 31.724454 57.438952 
L 31.817231 57.615215 
L 31.910009 57.791478 
L 32.018274 57.86334 
L 32.12654 57.935202 
L 32.234806 58.007064 
L 32.343072 58.078926 
L 32.451338 58.150788 
L 32.559603 58.22265 
L 32.667869 58.294512 
L 32.776135 58.366374 
L 32.884401 58.438236 
L 32.992667 58.510098 
L 33.100932 58.58196 
L 33.209198 58.653822 
L 33.317464 58.725684 
L 33.42573 58.797546 
L 33.533996 58.869408 
L 33.642261 58.94127 
" style="fill:none;stroke:#4169e1;stroke-linecap:square;stroke-width:0.4;"/>
   </g>
   <g id="line2d_78">
    <path clip-path="url(#pc6d38d0f0d)" d="M 24.495084 45.767944 
L 24.509338 45.952516 
L 24.523592 46.137088 
L 24.537846 46.32166 
L 24.5521 46.506232 
L 24.566354 46.690803 
L 24.580608 46.875375 
L 24.594862 47.059947 
L 24.609117 47.244519 
" style="fill:none;stroke:#008000;stroke-linecap:square;stroke-width:0.4;"/>
   </g>
   <g id="line2d_79">
    <path clip-path="url(#pc6d38d0f0d)" d="M 23.592386 48.745299 
L 23.793719 48.672729 
L 23.995051 48.600158 
L 24.196383 48.527588 
L 24.397716 48.455018 
" style="fill:none;stroke:#008000;stroke-linecap:square;stroke-width:0.4;"/>
   </g>
   <g id="line2d_80">
    <path clip-path="url(#pc6d38d0f0d)" d="M 19.765721 64.052222 
L 19.904154 64.190567 
L 20.042587 64.328912 
L 20.18102 64.467257 
L 20.319453 64.605602 
L 20.457886 64.743946 
L 20.596319 64.882291 
L 20.734752 65.020636 
L 20.873184 65.158981 
L 20.992618 65.313055 
L 21.035053 65.49364 
L 20.832756 65.460597 
L 20.690639 65.447725 
L 20.548522 65.434854 
L 20.393559 65.42083 
L 20.238596 65.406806 
L 20.083633 65.392781 
L 19.92867 65.378757 
L 19.716806 65.360507 
L 19.519679 65.253116 
L 19.322551 65.145725 
L 19.161917 65.236594 
L 19.041635 65.374435 
L 18.921352 65.512275 
L 18.75092 65.643104 
L 18.580488 65.773932 
L 18.380506 65.867971 
L 18.180523 65.96201 
L 18.134694 66.034244 
L 18.119572 66.163151 
L 18.143567 66.299743 
L 18.167562 66.436335 
" style="fill:none;stroke:#008000;stroke-linecap:square;stroke-width:0.4;"/>
   </g>
   <g id="line2d_81">
    <path clip-path="url(#pc6d38d0f0d)" d="M 32.773203 52.766592 
L 32.843143 52.956447 
L 32.913083 53.146301 
L 32.983022 53.336156 
L 33.052962 53.526011 
L 33.087672 53.704063 
L 33.122381 53.882115 
L 33.157091 54.060167 
L 33.1918 54.238219 
L 33.22651 54.416271 
L 33.261219 54.594323 
L 33.295929 54.772375 
L 33.330638 54.950427 
L 33.365348 55.128479 
L 33.400057 55.306531 
L 33.434766 55.484583 
L 33.469476 55.662635 
L 33.504185 55.840687 
L 33.538895 56.018739 
L 33.573604 56.196791 
L 33.608314 56.374843 
" style="fill:none;stroke:#4169e1;stroke-linecap:square;stroke-width:0.4;"/>
   </g>
   <g id="line2d_82">
    <path clip-path="url(#pc6d38d0f0d)" d="M 32.544983 44.313847 
L 32.646864 44.480913 
L 32.748746 44.647978 
L 32.850627 44.815044 
L 32.952508 44.98211 
L 33.05439 45.149175 
L 33.156271 45.316241 
L 33.258152 45.483306 
L 33.360034 45.650372 
L 33.451094 45.80555 
L 33.542155 45.960729 
L 33.633215 46.115908 
L 33.724276 46.271086 
L 33.815336 46.426265 
L 33.906397 46.581444 
L 33.997457 46.736622 
L 34.088518 46.891801 
L 34.138186 47.040736 
L 34.187853 47.189671 
L 34.237521 47.338606 
L 34.287189 47.487541 
L 34.336856 47.636476 
L 34.386524 47.785411 
L 34.436191 47.934346 
L 34.485859 48.083281 
L 34.504472 48.230174 
L 34.523086 48.377068 
L 34.541699 48.523962 
L 34.560312 48.670856 
L 34.578926 48.81775 
L 34.597539 48.964643 
L 34.616152 49.111537 
L 34.634766 49.258431 
L 34.609961 49.498427 
L 34.585156 49.738423 
L 34.560351 49.978419 
L 34.535546 50.218416 
L 34.461016 50.421142 
L 34.386485 50.623868 
L 34.311955 50.826595 
L 34.237424 51.029321 
" style="fill:none;stroke:#4169e1;stroke-linecap:square;stroke-width:0.4;"/>
   </g>
   <g id="line2d_83">
    <path clip-path="url(#pc6d38d0f0d)" d="M 14.720338 3.272727 
L 17.693105 5.449815 
L 20.544163 9.003014 
L 21.621845 12.153498 
L 21.595458 13.108703 
L 21.848358 16.431704 
L 22.043913 17.716683 
L 23.822111 19.313039 
L 25.92311 21.528104 
L 28.603581 23.276121 
L 30.421976 26.387054 
L 30.810107 28.939685 
L 30.810107 28.939685 
" style="fill:none;stroke:#ff0000;stroke-linecap:square;stroke-width:0.4;"/>
   </g>
   <g id="line2d_84">
    <path clip-path="url(#pc6d38d0f0d)" d="M 30.810107 28.939685 
L 30.893915 29.062805 
L 30.977723 29.185925 
L 31.061531 29.309044 
L 31.145339 29.432164 
L 31.229147 29.555284 
L 31.312955 29.678404 
L 31.396763 29.801524 
L 31.480572 29.924644 
L 31.579646 30.030162 
L 31.678721 30.135679 
L 31.777796 30.241197 
L 31.876871 30.346714 
L 31.975946 30.452232 
L 32.075021 30.55775 
L 32.174096 30.663267 
L 32.273171 30.768785 
L 32.372246 30.874303 
L 32.47132 30.97982 
L 32.570395 31.085338 
L 32.66947 31.190855 
L 32.768545 31.296373 
L 32.86762 31.401891 
L 32.966695 31.507408 
L 33.06577 31.612926 
L 33.164845 31.718444 
L 33.263919 31.823961 
L 33.362994 31.929479 
L 33.462069 32.034996 
L 33.561144 32.140514 
L 33.660219 32.246032 
L 33.759294 32.351549 
L 33.858369 32.457067 
L 33.957444 32.562585 
L 34.056519 32.668102 
L 34.155593 32.77362 
L 34.254668 32.879137 
L 34.353743 32.984655 
L 34.452818 33.090173 
L 34.551893 33.19569 
L 34.650968 33.301208 
L 34.704252 33.42147 
L 34.757536 33.541732 
L 34.81082 33.661995 
L 34.864105 33.782257 
L 34.917389 33.902519 
L 34.970673 34.022781 
L 35.023957 34.143044 
L 35.077242 34.263306 
L 35.130526 34.383568 
L 35.18381 34.50383 
L 35.237094 34.624092 
L 35.290378 34.744355 
L 35.343663 34.864617 
L 35.396947 34.984879 
L 35.450231 35.105141 
L 35.503515 35.225404 
L 35.556799 35.345666 
L 35.610084 35.465928 
L 35.663368 35.58619 
L 35.716652 35.706453 
L 35.769936 35.826715 
L 35.823221 35.946977 
L 35.876505 36.067239 
L 35.929789 36.187502 
L 35.983073 36.307764 
L 36.036357 36.428026 
L 36.089642 36.548288 
L 36.142926 36.66855 
L 36.19621 36.788813 
L 36.249494 36.909075 
L 36.302778 37.029337 
L 36.356063 37.149599 
" style="fill:none;stroke:#ff0000;stroke-linecap:square;stroke-width:0.4;"/>
   </g>
  </g>
 </g>
 <defs>
  <clipPath id="pc6d38d0f0d">
   <rect height="72" width="42.99564" x="0" y="0"/>
  </clipPath>
 </defs>
</svg>
