<?xml version="1.0" encoding="utf-8" standalone="no"?>
<!DOCTYPE svg PUBLIC "-//W3C//DTD SVG 1.1//EN"
  "http://www.w3.org/Graphics/SVG/1.1/DTD/svg11.dtd">
<svg height="72pt" version="1.1" viewBox="0 0 40.399452 72" width="40.399452pt" xmlns="http://www.w3.org/2000/svg" xmlns:xlink="http://www.w3.org/1999/xlink">
 <metadata>
  <rdf:RDF xmlns:cc="http://creativecommons.org/ns#" xmlns:dc="http://purl.org/dc/elements/1.1/" xmlns:rdf="http://www.w3.org/1999/02/22-rdf-syntax-ns#">
   <cc:Work>
    <dc:type rdf:resource="http://purl.org/dc/dcmitype/StillImage"/>
    <dc:date>2022-04-19T00:56:21.226542</dc:date>
    <dc:format>image/svg+xml</dc:format>
    <dc:creator>
     <cc:Agent>
      <dc:title>Matplotlib v3.4.3, https://matplotlib.org/</dc:title>
     </cc:Agent>
    </dc:creator>
   </cc:Work>
  </rdf:RDF>
 </metadata>
 <defs>
  <style type="text/css">*{stroke-linecap:butt;stroke-linejoin:round;}</style>
 </defs>
 <g id="figure_1">
  <g id="patch_1">
   <path d="M 0 72 
L 40.399452 72 
L 40.399452 0 
L 0 0 
z
" style="fill:#ffffff;"/>
  </g>
  <g id="axes_1">
   <g id="line2d_1">
    <path clip-path="url(#pbae1a0bd43)" d="M 30.733346 54.578631 
L 30.730804 54.291201 
L 30.728262 54.003771 
L 30.723679 53.492001 
L 30.719096 52.980231 
L 30.716242 52.662559 
L 30.713388 52.344887 
L 30.710533 52.027215 
L 30.707679 51.709543 
L 30.704679 51.37484 
L 30.701679 51.040137 
L 30.699221 50.768287 
L 30.696763 50.496437 
L 30.693013 50.079095 
L 30.689263 49.661753 
L 30.684888 49.174449 
L 30.680513 48.687145 
L 30.676138 48.20067 
L 30.671763 47.714195 
L 30.667721 47.260954 
L 30.66368 46.807712 
L 30.660221 46.423337 
L 30.656763 46.038961 
L 30.653305 45.654586 
L 30.649846 45.270211 
L 30.645596 44.801034 
L 30.642992 44.510316 
L 30.640388 44.219598 
L 30.637784 43.92888 
L 30.63518 43.638163 
L 30.63293 43.384025 
L 30.628638 42.906081 
L 30.624347 42.428137 
L 30.621597 42.122461 
L 30.618847 41.816785 
L 30.614597 41.348438 
L 30.611618 41.015097 
L 30.608638 40.681756 
L 30.605659 40.348416 
L 30.60268 40.015075 
L 30.599889 39.70626 
L 30.597097 39.397444 
L 30.594305 39.088629 
L 30.591514 38.779813 
L 30.58918 38.524728 
" style="fill:none;stroke:#808080;stroke-linecap:square;stroke-width:0.4;"/>
   </g>
   <g id="line2d_2">
    <path clip-path="url(#pbae1a0bd43)" d="M 28.059785 46.788519 
L 28.134784 46.357018 
L 28.206867 45.940387 
L 28.27895 45.523756 
L 28.355324 45.082362 
L 28.431698 44.640969 
L 28.510364 44.186424 
L 28.58903 43.731879 
L 28.673988 43.240666 
L 28.758946 42.749452 
L 28.827945 42.350711 
L 28.896944 41.95197 
L 28.965944 41.553229 
L 29.034943 41.154488 
L 29.082047 40.882252 
L 29.129151 40.610017 
L 29.176255 40.337782 
L 29.223358 40.065547 
L 29.297024 39.639911 
L 29.370691 39.214276 
L 29.443898 38.791306 
L 29.517106 38.368336 
L 29.568231 38.072879 
L 29.619355 37.777422 
L 29.67048 37.481965 
L 29.721604 37.186508 
L 29.766937 36.92381 
L 29.81227 36.661113 
L 29.857603 36.398415 
L 29.902936 36.135718 
" style="fill:none;stroke:#808080;stroke-linecap:square;stroke-width:0.4;"/>
   </g>
   <g id="line2d_3">
    <path clip-path="url(#pbae1a0bd43)" d="M 21.431341 42.087865 
L 21.587423 41.672596 
L 21.68213 41.419821 
L 21.776838 41.167046 
L 21.919378 40.786492 
L 22.061919 40.405937 
L 22.202542 40.030537 
L 22.343166 39.655136 
L 22.482998 39.281927 
L 22.667747 38.788936 
L 22.811537 38.405183 
L 22.955328 38.021429 
L 23.057369 37.748987 
L 23.159409 37.476544 
L 23.301242 37.098063 
L 23.443074 36.719582 
L 23.546531 36.443408 
L 23.649989 36.167233 
L 23.769029 35.849472 
L 23.88807 35.531712 
L 24.008152 35.211226 
L 24.128235 34.89074 
L 24.288067 34.463979 
L 24.42994 34.08538 
L 24.571814 33.70678 
L 24.66673 33.453472 
L 24.761646 33.200164 
L 24.910603 32.802548 
L 25.05956 32.404933 
L 25.176601 32.092563 
L 25.293641 31.780193 
L 25.432057 31.410776 
L 25.570472 31.041358 
L 25.694388 30.710683 
L 25.818304 30.380009 
L 25.945011 30.04181 
L 26.071718 29.703612 
L 26.169884 29.441655 
L 26.26805 29.179698 
L 26.352216 28.953995 
" style="fill:none;stroke:#808080;stroke-linecap:square;stroke-width:0.4;"/>
   </g>
   <g id="line2d_4">
    <path clip-path="url(#pbae1a0bd43)" d="M 28.967527 35.962146 
L 29.01011 35.437639 
L 29.04186 35.045711 
L 29.067776 34.725699 
L 29.093693 34.405688 
L 29.118068 34.104988 
L 29.142442 33.804288 
L 29.172109 33.437833 
L 29.201775 33.071377 
L 29.240192 32.59758 
L 29.274983 32.167975 
L 29.309774 31.73837 
L 29.351107 31.228407 
L 29.39244 30.718444 
L 29.433773 30.208481 
L 29.475106 29.698517 
L 29.499523 29.396988 
L 29.523939 29.095459 
L 29.546793 28.813361 
L 29.569647 28.531262 
L 29.592501 28.249164 
L 29.615355 27.967065 
L 29.654855 27.479584 
L 29.694354 26.992102 
L 29.733854 26.50462 
L 29.773354 26.017138 
L 29.797229 25.72254 
L 29.821103 25.427942 
L 29.844978 25.133344 
L 29.868853 24.838746 
L 29.892415 24.54791 
L 29.915978 24.257074 
L 29.93954 23.966237 
L 29.963102 23.675401 
L 29.985727 23.396354 
L 30.008352 23.117306 
L 30.030977 22.838258 
L 30.053601 22.559211 
L 30.076539 22.275987 
L 30.099476 21.992763 
L 30.122413 21.709539 
L 30.145351 21.426315 
L 30.167038 21.158671 
L 30.188725 20.891026 
L 30.210413 20.623382 
L 30.2321 20.355738 
L 30.2751 19.825308 
L 30.318099 19.294878 
L 30.324099 19.221065 
L 30.356182 18.817526 
" style="fill:none;stroke:#808080;stroke-linecap:square;stroke-width:0.4;"/>
   </g>
   <g id="line2d_5">
    <path clip-path="url(#pbae1a0bd43)" d="M 30.725096 19.628277 
L 30.877136 19.12409 
L 31.029177 18.619903 
L 31.048093 18.557346 
L 31.142696 18.243673 
L 31.2373 17.93 
L 31.331903 17.616327 
L 31.426507 17.302653 
L 31.540881 16.923284 
L 31.655255 16.543914 
L 31.803087 16.053826 
L 31.950919 15.563737 
L 32.095834 15.083305 
L 32.228291 14.644044 
L 32.360749 14.204783 
L 32.487623 13.784124 
L 32.614497 13.363464 
L 32.751704 12.908505 
L 32.888911 12.453545 
L 33.038951 11.956052 
L 33.188992 11.458559 
L 33.272491 11.181733 
L 33.35599 10.904907 
L 33.416406 10.703492 
L 33.531364 10.322819 
L 33.646321 9.942146 
L 33.772403 9.524034 
L 33.915361 9.05 
L 34.058318 8.575965 
L 34.140734 8.302634 
L 34.22315 8.029303 
L 34.351524 7.60349 
L 34.479898 7.177676 
L 34.578522 6.850674 
L 34.677146 6.523672 
L 34.757499 6.257213 
L 34.837853 5.990754 
L 34.918206 5.724294 
L 34.99856 5.457835 
L 35.130934 5.018871 
L 35.263308 4.579906 
L 35.36189 4.253141 
L 35.460473 3.926376 
L 35.582805 3.520704 
L 35.606888 3.440612 
L 35.657471 3.272727 
" style="fill:none;stroke:#808080;stroke-linecap:square;stroke-width:0.4;"/>
   </g>
   <g id="line2d_6">
    <path clip-path="url(#pbae1a0bd43)" d="M 2.029004 68.727273 
L 2.194836 68.501215 
L 2.468583 68.126703 
L 2.666915 67.855504 
L 2.843164 67.6144 
L 3.019412 67.373295 
L 3.226494 67.090012 
L 3.454742 66.777879 
L 3.68299 66.465746 
L 3.995237 66.038748 
L 4.255485 65.682718 
L 4.448858 65.418273 
L 4.642232 65.153828 
L 4.863438 64.851233 
L 5.084645 64.548637 
L 5.260393 64.308362 
L 5.434225 64.070575 
L 5.608057 63.832787 
L 5.819222 63.543995 
L 6.030387 63.255202 
L 6.206969 63.013742 
L 6.414634 62.7288 
" style="fill:none;stroke:#808080;stroke-linecap:square;stroke-width:0.4;"/>
   </g>
   <g id="line2d_7">
    <path clip-path="url(#pbae1a0bd43)" d="M 20.625681 53.550588 
L 20.786929 53.165176 
L 20.908949 52.873007 
L 21.030969 52.580838 
L 21.152989 52.288669 
L 21.275009 51.9965 
L 21.47509 51.517489 
L 21.675172 51.038479 
L 21.833671 50.658872 
L 21.972419 50.326657 
L 22.111168 49.994442 
L 22.249917 49.662227 
L 22.388666 49.330012 
L 22.535852 48.977596 
L 22.683038 48.62518 
L 22.830225 48.272764 
L 22.977411 47.920349 
L 23.115764 47.589111 
L 23.254117 47.257873 
L 23.39247 46.926636 
L 23.530823 46.595398 
L 23.678905 46.24079 
L 23.826987 45.886183 
L 23.908486 45.691166 
L 24.05161 45.34894 
L 24.194734 45.006713 
L 24.337858 44.664487 
L 24.480982 44.32226 
L 24.637855 43.946682 
L 24.794729 43.571103 
L 24.951603 43.195525 
L 25.108476 42.819947 
L 25.252808 42.474314 
L 25.397141 42.128681 
L 25.541473 41.783048 
L 25.685805 41.437415 
L 25.81195 41.135353 
L 25.938094 40.833291 
L 26.064239 40.531229 
L 26.190384 40.229167 
L 26.360424 39.821984 
L 26.530464 39.414801 
L 26.700505 39.007619 
L 26.870545 38.600436 
L 27.045418 38.181702 
L 27.220292 37.762967 
L 27.395165 37.344233 
L 27.570039 36.925499 
L 27.707975 36.595268 
L 27.845912 36.265037 
L 27.983848 35.934807 
L 28.121784 35.604576 
L 28.233825 35.336281 
L 28.345866 35.067985 
L 28.457907 34.799689 
L 28.569947 34.531394 
L 28.673196 34.283536 
" style="fill:none;stroke:#808080;stroke-linecap:square;stroke-width:0.4;"/>
   </g>
   <g id="line2d_8">
    <path clip-path="url(#pbae1a0bd43)" d="M 32.15225 38.15223 
L 32.176167 38.011951 
L 32.234416 37.664689 
L 32.313416 37.194209 
L 32.333249 37.075375 
" style="fill:none;stroke:#808080;stroke-linecap:square;stroke-width:0.4;"/>
   </g>
   <g id="line2d_9">
    <path clip-path="url(#pbae1a0bd43)" d="M 30.920677 37.374771 
L 30.934094 37.140183 
" style="fill:none;stroke:#808080;stroke-linecap:square;stroke-width:0.4;"/>
   </g>
   <g id="line2d_10">
    <path clip-path="url(#pbae1a0bd43)" d="M 28.593114 34.127499 
L 28.511364 34.11414 
L 28.429615 34.100782 
L 28.347866 34.087423 
L 28.266116 34.074065 
L 28.164617 34.044504 
L 28.063118 34.014944 
L 27.928453 33.935741 
L 27.793787 33.856537 
L 27.696455 33.835804 
L 27.633872 33.926085 
L 27.623455 34.026792 
L 27.613039 34.127499 
L 27.672121 34.232575 
L 27.731204 34.337651 
L 27.790287 34.442727 
L 27.84937 34.547803 
L 27.908453 34.652879 
L 27.967536 34.757955 
L 28.026618 34.863031 
L 28.085701 34.968107 
L 28.083951 35.054952 
L 28.082201 35.141797 
L 28.080451 35.228643 
L 28.078701 35.315488 
L 28.042233 35.391107 
L 28.005764 35.466726 
L 27.969296 35.542345 
L 27.932828 35.617965 
L 27.896359 35.693584 
L 27.859891 35.769203 
L 27.823422 35.844822 
L 27.786954 35.920441 
L 27.723371 36.050916 
L 27.659788 36.181391 
L 27.596205 36.311866 
L 27.532623 36.442341 
L 27.489602 36.510941 
L 27.446582 36.57954 
L 27.403561 36.648139 
L 27.360541 36.716739 
L 27.267169 36.783731 
L 27.173798 36.850724 
L 27.080426 36.917716 
L 26.987054 36.984708 
L 26.893683 37.051701 
L 26.800311 37.118693 
L 26.706939 37.185686 
L 26.613568 37.252678 
L 26.520196 37.319671 
L 26.426825 37.386663 
L 26.333453 37.453656 
L 26.240081 37.520648 
L 26.14671 37.587641 
L 26.053338 37.654633 
L 25.959967 37.721626 
L 25.866595 37.788618 
L 25.773223 37.85561 
L 25.679852 37.922603 
L 25.58648 37.989595 
L 25.493109 38.056588 
L 25.399737 38.12358 
L 25.306365 38.190573 
L 25.212994 38.257565 
L 25.119622 38.324558 
L 25.02625 38.39155 
L 24.932879 38.458543 
L 24.839507 38.525535 
L 24.746136 38.592528 
L 24.652764 38.65952 
L 24.559392 38.726512 
L 24.466021 38.793505 
L 24.372649 38.860497 
L 24.289171 38.921692 
L 24.205692 38.982886 
L 24.122214 39.044081 
L 24.038735 39.105275 
L 23.955257 39.166469 
L 23.871778 39.227664 
L 23.7883 39.288858 
L 23.704821 39.350053 
L 23.581031 39.439238 
L 23.45724 39.528423 
L 23.33345 39.617608 
L 23.209659 39.706793 
L 23.085962 39.795889 
L 22.962265 39.884985 
L 22.838568 39.974081 
L 22.714871 40.063178 
L 22.591175 40.152274 
L 22.467478 40.24137 
L 22.343781 40.330466 
L 22.220084 40.419562 
L 22.133035 40.482267 
L 22.045986 40.544972 
L 21.958938 40.607677 
L 21.871889 40.670382 
L 21.78484 40.733087 
L 21.697791 40.795792 
L 21.610743 40.858497 
L 21.523694 40.921202 
L 21.436645 40.983907 
L 21.349597 41.046612 
L 21.262548 41.109317 
L 21.175499 41.172022 
L 21.08845 41.234727 
L 21.001402 41.297432 
L 20.914353 41.360137 
L 20.827304 41.422842 
L 20.740255 41.485547 
L 20.653207 41.548252 
L 20.566158 41.610957 
L 20.479109 41.673662 
L 20.39206 41.736367 
L 20.305012 41.799072 
L 20.217963 41.861777 
L 20.130914 41.924482 
L 20.043865 41.987187 
L 19.956817 42.049892 
L 19.869768 42.112597 
L 19.782719 42.175302 
L 19.69567 42.238007 
L 19.608622 42.300713 
L 19.521573 42.363418 
L 19.434524 42.426123 
" style="fill:none;stroke:#4169e1;stroke-dasharray:1.48,0.64;stroke-dashoffset:0;stroke-width:0.4;"/>
   </g>
   <g id="line2d_11">
    <path clip-path="url(#pbae1a0bd43)" d="M 28.227783 31.315756 
L 28.198825 31.452051 
L 28.169867 31.588346 
L 28.140909 31.724641 
L 28.111951 31.860937 
L 28.082993 31.997232 
L 28.054035 32.133527 
L 28.025077 32.269822 
L 27.996119 32.406118 
L 27.971463 32.523723 
L 27.946807 32.641328 
L 27.922151 32.758933 
L 27.897495 32.876538 
L 27.872839 32.994144 
L 27.848182 33.111749 
L 27.823526 33.229354 
L 27.79887 33.346959 
L 27.773266 33.46917 
L 27.747662 33.591381 
L 27.722059 33.713593 
L 27.696455 33.835804 
" style="fill:none;stroke:#008000;stroke-linecap:square;stroke-width:0.4;"/>
   </g>
   <g id="line2d_12">
    <path clip-path="url(#pbae1a0bd43)" d="M 28.66978 34.155815 
L 28.627051 34.259795 
L 28.584322 34.363776 
L 28.541593 34.467756 
L 28.498865 34.571736 
L 28.456136 34.675716 
L 28.413407 34.779696 
L 28.370678 34.883676 
L 28.327949 34.987656 
L 28.28522 35.091636 
L 28.242492 35.195617 
L 28.199763 35.299597 
L 28.157034 35.403577 
L 28.114305 35.507557 
L 28.071576 35.611537 
L 28.028848 35.715517 
L 27.986119 35.819497 
L 28.050181 35.948091 
L 28.114243 36.076686 
L 28.178305 36.20528 
L 28.242367 36.333874 
L 28.306429 36.462468 
L 28.370491 36.591062 
L 28.434553 36.719656 
L 28.498615 36.84825 
L 28.489677 36.938028 
L 28.48074 37.027805 
L 28.471802 37.117583 
L 28.462865 37.20736 
" style="fill:none;stroke:#008000;stroke-linecap:square;stroke-width:0.4;"/>
   </g>
   <g id="line2d_13">
    <path clip-path="url(#pbae1a0bd43)" d="M 28.799612 34.352727 
L 23.908486 45.691166 
L 23.908486 45.691166 
" style="fill:none;stroke:#4169e1;stroke-linecap:square;stroke-width:0.4;"/>
   </g>
   <g id="line2d_14">
    <path clip-path="url(#pbae1a0bd43)" d="M 26.305466 44.017058 
L 26.226186 44.08274 
L 26.146905 44.148422 
L 26.067625 44.214104 
L 25.988344 44.279785 
L 25.909063 44.345467 
L 25.829783 44.411149 
L 25.750502 44.476831 
L 25.671222 44.542513 
L 25.591941 44.608194 
L 25.51266 44.673876 
L 25.43338 44.739558 
L 25.354099 44.80524 
L 25.274819 44.870922 
L 25.195538 44.936603 
L 25.116258 45.002285 
L 25.036977 45.067967 
L 24.966425 45.106917 
L 24.895874 45.145867 
L 24.825322 45.184817 
L 24.754771 45.223767 
L 24.68422 45.262717 
L 24.613668 45.301667 
L 24.543117 45.340617 
L 24.472565 45.379567 
L 24.402014 45.418517 
L 24.331462 45.457467 
L 24.260911 45.496417 
L 24.190359 45.535367 
L 24.119808 45.574317 
L 24.049256 45.613266 
L 23.978705 45.652216 
L 23.908153 45.691166 
L 23.785352 45.729435 
L 23.662551 45.767704 
L 23.53975 45.805973 
L 23.416949 45.844241 
L 23.294148 45.88251 
L 23.171347 45.920779 
L 23.048546 45.959047 
L 22.925745 45.997316 
L 22.867099 46.05703 
L 22.808454 46.116743 
L 22.749809 46.176456 
L 22.691163 46.23617 
L 22.632518 46.295883 
L 22.573873 46.355597 
L 22.515227 46.41531 
L 22.456582 46.475023 
L 22.384359 46.548851 
L 22.312135 46.622678 
L 22.239912 46.696505 
L 22.167689 46.770332 
L 22.095465 46.844159 
L 22.023242 46.917987 
L 21.951019 46.991814 
L 21.878795 47.065641 
L 21.806572 47.139468 
L 21.734348 47.213296 
L 21.662125 47.287123 
L 21.589902 47.36095 
L 21.517678 47.434777 
L 21.445455 47.508604 
L 21.373232 47.582432 
L 21.301008 47.656259 
L 21.298842 47.795235 
L 21.296675 47.934211 
L 21.294508 48.073186 
L 21.292342 48.212162 
L 21.307545 48.323444 
L 21.322748 48.434725 
L 21.337951 48.546006 
L 21.353154 48.657288 
L 21.368357 48.768569 
L 21.38356 48.879851 
L 21.398763 48.991132 
L 21.413966 49.102413 
L 21.429169 49.213695 
L 21.444372 49.324976 
L 21.459575 49.436258 
L 21.474778 49.547539 
L 21.489981 49.65882 
L 21.505184 49.770102 
L 21.520387 49.881383 
L 21.53559 49.992665 
L 21.565517 50.104361 
L 21.595443 50.216057 
L 21.62537 50.327753 
L 21.655297 50.439449 
L 21.685224 50.551145 
L 21.715151 50.662841 
L 21.745078 50.774537 
L 21.775004 50.886233 
" style="fill:none;stroke:#4169e1;stroke-linecap:square;stroke-width:0.4;"/>
   </g>
   <g id="line2d_15">
    <path clip-path="url(#pbae1a0bd43)" d="M 27.254875 49.363778 
L 27.109418 49.382142 
L 26.963961 49.400507 
L 26.818504 49.418871 
L 26.673047 49.437235 
L 26.60038 49.521947 
L 26.527714 49.60666 
L 26.455048 49.691372 
L 26.382382 49.776085 
L 26.31605 49.865092 
L 26.249717 49.9541 
L 26.183384 50.043107 
L 26.117051 50.132114 
L 26.085051 50.264959 
L 26.053052 50.397803 
L 26.021052 50.530648 
L 25.989052 50.663493 
L 25.90572 50.713254 
L 25.822387 50.763015 
L 25.739054 50.812776 
L 25.655722 50.862537 
L 25.572389 50.912298 
L 25.489056 50.96206 
L 25.405724 51.011821 
L 25.322391 51.061582 
L 25.239059 51.111343 
L 25.155726 51.161104 
L 25.072393 51.210865 
L 24.989061 51.260627 
L 24.905728 51.310388 
L 24.822395 51.360149 
L 24.739063 51.40991 
L 24.65573 51.459671 
L 24.522148 51.516911 
L 24.388566 51.574152 
L 24.254984 51.631392 
L 24.121401 51.688632 
L 23.987819 51.745872 
L 23.854237 51.803112 
L 23.720655 51.860352 
L 23.587072 51.917593 
L 23.47524 51.965517 
L 23.363408 52.013442 
" style="fill:none;stroke:#008000;stroke-linecap:square;stroke-width:0.4;"/>
   </g>
   <g id="line2d_16">
    <path clip-path="url(#pbae1a0bd43)" d="M 27.996619 47.374634 
L 28.007723 47.470558 
L 28.018827 47.566481 
L 28.029931 47.662405 
L 28.041035 47.758329 
L 28.052139 47.854252 
L 28.063243 47.950176 
L 28.074347 48.046099 
L 28.085451 48.142023 
L 28.060452 48.286567 
L 28.035452 48.431111 
L 27.983848 48.518845 
L 27.932244 48.606579 
L 27.880641 48.694313 
L 27.829037 48.782046 
" style="fill:none;stroke:#008000;stroke-linecap:square;stroke-width:0.4;"/>
   </g>
   <g id="line2d_17">
    <path clip-path="url(#pbae1a0bd43)" d="M 28.226367 38.227583 
L 26.816472 39.402746 
L 26.069406 39.740589 
L 24.612543 40.321965 
L 24.318598 40.64953 
L 23.004911 41.339789 
L 22.607237 41.911005 
L 21.165786 42.557775 
L 19.34365 44.820938 
L 18.207711 46.597856 
L 17.918266 46.862657 
L 15.819471 48.344029 
L 14.630356 49.050164 
L 14.093902 49.80997 
L 13.680427 50.341763 
L 13.253493 50.650104 
L 12.793497 50.901043 
L 11.908171 51.98945 
L 11.595757 52.944598 
L 11.32503 53.55669 
L 11.031928 54.213597 
L 11.077761 55.270429 
L 11.138719 56.870014 
L 10.808222 57.765301 
L 10.468099 58.205509 
L 7.961975 60.569906 
L 5.820524 63.065873 
L 4.913084 63.575806 
L 3.937321 63.897832 
L 2.89133 64.326963 
L 2.068753 64.98855 
L 1.89663 66.11721 
L 1.851979 68.098638 
L 1.836339 68.71661 
L 1.836339 68.71661 
" style="fill:none;stroke:#4169e1;stroke-linecap:square;stroke-width:0.4;"/>
   </g>
   <g id="line2d_18">
    <path clip-path="url(#pbae1a0bd43)" d="M 29.88227 36.415447 
L 29.859134 36.537769 
L 29.835999 36.660091 
L 29.812864 36.782413 
L 29.789729 36.904735 
L 29.766593 37.027057 
L 29.743458 37.149379 
L 29.720323 37.271702 
L 29.697188 37.394024 
L 29.674053 37.516346 
L 29.650917 37.638668 
L 29.627782 37.76099 
L 29.604647 37.883312 
L 29.581512 38.005634 
L 29.558376 38.127957 
L 29.535241 38.250279 
L 29.512106 38.372601 
L 29.488971 38.494923 
L 29.465836 38.617245 
L 29.4427 38.739567 
L 29.419565 38.86189 
L 29.39643 38.984212 
L 29.373295 39.106534 
L 29.350159 39.228856 
L 29.327024 39.351178 
L 29.303889 39.4735 
L 29.280754 39.595822 
L 29.257619 39.718145 
L 29.234483 39.840467 
L 29.211348 39.962789 
L 29.188213 40.085111 
L 29.165078 40.207433 
L 29.141942 40.329755 
L 29.123927 40.425016 
L 29.105911 40.520277 
L 29.087896 40.615538 
L 29.069881 40.710799 
L 29.051865 40.806059 
L 29.03385 40.90132 
L 29.015834 40.996581 
L 28.997819 41.091842 
L 28.979803 41.187103 
L 28.961788 41.282363 
L 28.943772 41.377624 
L 28.925757 41.472885 
L 28.907741 41.568146 
L 28.889726 41.663407 
L 28.87171 41.758667 
L 28.853695 41.853928 
L 28.835679 41.949189 
L 28.817664 42.04445 
L 28.799648 42.139711 
L 28.781633 42.234971 
L 28.763617 42.330232 
L 28.745602 42.425493 
L 28.727587 42.520754 
L 28.709571 42.616015 
L 28.691556 42.711276 
L 28.67354 42.806536 
L 28.655525 42.901797 
L 28.637509 42.997058 
L 28.619494 43.092319 
L 28.601478 43.18758 
L 28.583463 43.28284 
L 28.565447 43.378101 
L 28.546958 43.46425 
L 28.528468 43.550399 
L 28.509979 43.636548 
L 28.49149 43.722697 
L 28.473 43.808846 
L 28.454511 43.894995 
L 28.436021 43.981144 
L 28.417532 44.067293 
L 28.388699 44.201086 
L 28.359866 44.334878 
L 28.331033 44.468671 
L 28.302199 44.602463 
" style="fill:none;stroke:#4169e1;stroke-linecap:square;stroke-width:0.4;"/>
   </g>
   <g id="line2d_19">
    <path clip-path="url(#pbae1a0bd43)" d="M 29.88227 36.415447 
L 29.947759 36.481276 
L 30.013248 36.547106 
L 30.078737 36.612936 
L 30.144226 36.678766 
L 30.209715 36.744596 
L 30.275204 36.810426 
L 30.340693 36.876256 
L 30.406182 36.942086 
L 30.45314 37.067199 
L 30.500098 37.192313 
L 30.494973 37.347462 
L 30.489848 37.50261 
L 30.475202 37.648976 
L 30.460556 37.795342 
L 30.445911 37.941708 
L 30.431265 38.088074 
L 30.416619 38.23444 
L 30.401974 38.380806 
L 30.387328 38.527172 
L 30.372682 38.673538 
L 30.355932 38.757302 
L 30.339182 38.841067 
L 30.26985 38.977436 
L 30.225808 39.045177 
L 30.181767 39.112917 
L 30.137726 39.180657 
L 30.093684 39.248398 
L 30.049643 39.316138 
L 30.005602 39.383878 
L 29.961561 39.451619 
L 29.917519 39.519359 
L 29.882665 39.636327 
L 29.847811 39.753296 
L 29.812958 39.870264 
L 29.778104 39.987233 
L 29.740958 40.065369 
L 29.703813 40.143506 
L 29.666667 40.221643 
L 29.629522 40.29978 
" style="fill:none;stroke:#008000;stroke-linecap:square;stroke-width:0.4;"/>
   </g>
   <g id="line2d_20">
    <path clip-path="url(#pbae1a0bd43)" d="M 28.302199 44.602463 
L 28.283845 44.705362 
L 28.265491 44.808261 
L 28.247137 44.91116 
L 28.228783 45.014059 
L 28.205586 45.143942 
L 28.182388 45.273824 
L 28.15919 45.403707 
L 28.135993 45.533589 
L 28.112795 45.663472 
L 28.089597 45.793355 
L 28.066399 45.923237 
L 28.043202 46.05312 
L 28.025754 46.151057 
L 28.008306 46.248995 
L 27.990858 46.346933 
L 27.973411 46.44487 
L 27.955963 46.542808 
L 27.938515 46.640746 
L 27.921067 46.738684 
L 27.90362 46.836621 
" style="fill:none;stroke:#008000;stroke-linecap:square;stroke-width:0.4;"/>
   </g>
   <g id="line2d_21">
    <path clip-path="url(#pbae1a0bd43)" d="M 23.309325 53.485425 
L 23.299783 53.585081 
L 23.290242 53.684736 
L 23.2807 53.784392 
L 23.271158 53.884048 
L 23.261617 53.983703 
L 23.252075 54.083359 
L 23.242534 54.183014 
L 23.232992 54.28267 
L 23.148639 54.377779 
L 23.064285 54.472888 
L 22.979932 54.567997 
L 22.895578 54.663106 
L 22.836089 54.722242 
L 22.7766 54.781378 
L 22.717111 54.840514 
L 22.657622 54.899649 
L 22.598133 54.958785 
L 22.538644 55.017921 
L 22.479155 55.077057 
L 22.419666 55.136193 
L 22.295167 55.158141 
L 22.170668 55.180089 
L 22.046169 55.202037 
L 21.92167 55.223986 
L 21.795108 55.156749 
L 21.668547 55.089512 
L 21.541986 55.022275 
L 21.415424 54.955038 
L 21.374945 54.876694 
L 21.334466 54.79835 
L 21.293988 54.720006 
L 21.253509 54.641661 
" style="fill:none;stroke:#008000;stroke-linecap:square;stroke-width:0.4;"/>
   </g>
   <g id="line2d_22">
    <path clip-path="url(#pbae1a0bd43)" d="M 31.334007 19.270589 
L 32.59008 19.616667 
L 32.889578 20.446671 
L 32.985993 21.689131 
L 32.90277 23.192762 
L 32.9524 24.307546 
L 32.440248 26.11204 
L 32.886036 27.442455 
L 32.708183 28.490787 
L 32.657069 29.319666 
L 32.539518 30.156824 
L 32.511534 31.341673 
L 31.934388 32.913874 
L 30.747137 34.71434 
L 29.87078 35.467215 
L 29.170942 35.938687 
L 29.170942 35.938687 
" style="fill:none;stroke:#4169e1;stroke-linecap:square;stroke-width:0.4;"/>
   </g>
   <g id="line2d_23">
    <path clip-path="url(#pbae1a0bd43)" d="M 30.349432 18.717174 
L 31.33657 19.362825 
L 31.277591 20.167327 
L 31.016073 20.923164 
L 30.735299 24.412437 
L 30.842605 28.06601 
L 30.442234 29.761445 
L 29.831895 33.238136 
L 29.037172 34.589537 
L 28.989277 34.815743 
L 29.201192 35.518916 
L 29.08511 36.289622 
L 29.08511 36.289622 
" style="fill:none;stroke:#4169e1;stroke-linecap:square;stroke-width:0.4;"/>
   </g>
   <g id="line2d_24">
    <path clip-path="url(#pbae1a0bd43)" d="M 30.349432 18.717174 
L 30.203329 18.735953 
L 30.057226 18.754732 
L 29.911123 18.773511 
L 29.765021 18.79229 
L 29.658584 18.805959 
L 29.552147 18.819629 
L 29.445711 18.833298 
L 29.339274 18.846968 
L 29.232838 18.860637 
L 29.126401 18.874307 
L 29.019964 18.887976 
L 28.913528 18.901646 
L 28.902629 18.983633 
L 28.891731 19.065621 
L 28.880833 19.147608 
L 28.869934 19.229596 
L 28.859036 19.311583 
L 28.848138 19.393571 
L 28.837239 19.475558 
L 28.826341 19.557545 
L 28.815443 19.639533 
L 28.804544 19.72152 
L 28.793646 19.803508 
L 28.782748 19.885495 
L 28.771849 19.967483 
L 28.760951 20.04947 
L 28.750053 20.131458 
L 28.739154 20.213445 
L 28.728256 20.295433 
L 28.717357 20.37742 
L 28.706459 20.459408 
L 28.695561 20.541395 
L 28.684662 20.623382 
L 28.673764 20.70537 
L 28.662866 20.787357 
L 28.651967 20.869345 
L 28.641069 20.951332 
L 28.630171 21.03332 
L 28.619272 21.115307 
L 28.608374 21.197295 
L 28.597476 21.279282 
L 28.586577 21.36127 
L 28.575679 21.443257 
L 28.564781 21.525244 
L 28.53914 21.60852 
L 28.5135 21.691796 
L 28.487859 21.775072 
L 28.462219 21.858348 
L 28.436579 21.941624 
L 28.410938 22.0249 
L 28.385298 22.108176 
L 28.359657 22.191452 
L 28.334017 22.274728 
L 28.308377 22.358004 
L 28.282736 22.44128 
L 28.257096 22.524556 
L 28.231455 22.607831 
L 28.205815 22.691107 
L 28.180174 22.774383 
L 28.154534 22.857659 
L 28.185305 22.939661 
L 28.216075 23.021664 
L 28.246846 23.103666 
L 28.277616 23.185668 
L 28.308387 23.267671 
L 28.339158 23.349673 
L 28.369928 23.431675 
L 28.400699 23.513677 
L 28.344288 23.589267 
L 28.287877 23.664857 
L 28.231466 23.740446 
L 28.175055 23.816036 
L 28.118644 23.891625 
L 28.062233 23.967215 
L 28.005822 24.042804 
L 27.949411 24.118394 
L 27.893 24.193984 
L 27.836589 24.269573 
L 27.780178 24.345163 
L 27.723767 24.420752 
L 27.667356 24.496342 
L 27.610945 24.571932 
L 27.554534 24.647521 
L 27.498123 24.723111 
L 27.453254 24.862761 
L 27.408384 25.00241 
L 27.363515 25.14206 
L 27.318645 25.28171 
L 27.273776 25.421359 
L 27.228906 25.561009 
L 27.184037 25.700659 
L 27.139168 25.840308 
L 27.094298 25.979958 
L 27.049429 26.119608 
L 27.004559 26.259258 
L 26.95969 26.398907 
L 26.914821 26.538557 
L 26.869951 26.678207 
L 26.825082 26.817856 
L 26.780212 26.957506 
L 26.693036 26.954944 
L 26.60586 26.952382 
L 26.518683 26.94982 
L 26.431507 26.947258 
L 26.344331 26.944695 
L 26.257154 26.942133 
L 26.169978 26.939571 
L 26.082801 26.937009 
L 26.049234 27.041841 
L 26.015667 27.146673 
L 25.982099 27.251504 
L 25.948532 27.356336 
L 25.914964 27.461168 
L 25.881397 27.565999 
L 25.84783 27.670831 
L 25.814262 27.775663 
L 25.780695 27.880494 
L 25.747127 27.985326 
L 25.71356 28.090158 
L 25.679992 28.194989 
L 25.646425 28.299821 
L 25.612858 28.404653 
L 25.57929 28.509484 
L 25.545723 28.614316 
" style="fill:none;stroke:#4169e1;stroke-linecap:square;stroke-width:0.4;"/>
   </g>
   <g id="line2d_25">
    <path clip-path="url(#pbae1a0bd43)" d="M 25.923136 31.768701 
L 25.910761 31.86538 
L 25.898386 31.962058 
L 25.889871 32.090712 
L 25.881355 32.219365 
L 25.87284 32.348019 
L 25.864324 32.476672 
L 25.855809 32.605325 
L 25.847293 32.733979 
L 25.838778 32.862632 
L 25.830262 32.991285 
L 25.821746 33.119939 
L 25.813231 33.248592 
L 25.804715 33.377245 
L 25.7962 33.505899 
L 25.787684 33.634552 
L 25.779169 33.763206 
L 25.770653 33.891859 
L 25.762138 34.020512 
L 25.714086 34.155667 
L 25.666034 34.290822 
L 25.617982 34.425977 
L 25.569931 34.561132 
L 25.521879 34.696287 
L 25.473827 34.831442 
L 25.425776 34.966597 
L 25.377724 35.101752 
L 25.330787 35.203407 
L 25.28385 35.305062 
L 25.236913 35.406716 
L 25.189976 35.508371 
L 25.143039 35.610026 
L 25.096101 35.711681 
L 25.049164 35.813336 
L 25.002227 35.914991 
L 24.904999 36.033396 
L 24.807771 36.151801 
L 24.710542 36.270206 
L 24.613314 36.388611 
L 24.516086 36.507016 
L 24.418857 36.625421 
L 24.321629 36.743826 
L 24.2244 36.862231 
L 24.185286 36.935954 
L 24.146172 37.009678 
L 24.107058 37.083401 
L 24.067943 37.157125 
L 24.028829 37.230849 
L 23.989715 37.304572 
L 23.950601 37.378296 
L 23.911486 37.452019 
L 23.893601 37.538035 
L 23.875716 37.624051 
L 23.857831 37.710066 
L 23.839945 37.796082 
L 23.82206 37.882098 
L 23.804175 37.968114 
L 23.78629 38.054129 
L 23.768404 38.140145 
L 23.747175 38.238438 
L 23.725946 38.336731 
L 23.704717 38.435025 
L 23.683488 38.533318 
L 23.662259 38.631611 
L 23.64103 38.729904 
L 23.619801 38.828197 
L 23.598572 38.92649 
L 23.528115 39.069465 
L 23.457657 39.212439 
L 23.387199 39.355414 
L 23.316741 39.498388 
L 23.187097 39.583278 
L 23.057452 39.668169 
L 22.927807 39.753059 
L 22.798162 39.837949 
L 22.725903 39.910651 
L 22.653643 39.983352 
L 22.581383 40.056054 
L 22.509123 40.128756 
L 22.436863 40.201457 
L 22.364604 40.274159 
L 22.292344 40.346861 
L 22.220084 40.419562 
" style="fill:none;stroke:#008000;stroke-linecap:square;stroke-width:0.4;"/>
   </g>
   <g id="line2d_26">
    <path clip-path="url(#pbae1a0bd43)" d="M 31.013177 42.817103 
L 30.56668 42.870182 
L 30.403765 42.676706 
L 30.024685 40.383545 
L 29.786062 40.306119 
L 28.767487 40.361448 
L 27.660955 40.544676 
L 27.387624 41.205789 
L 26.765129 41.604826 
L 26.055531 41.603701 
L 23.570156 41.223561 
L 23.297242 41.434453 
L 23.296825 41.645938 
L 23.493802 41.830766 
L 24.587856 42.45589 
L 25.105976 43.371585 
L 24.978477 44.164209 
L 25.487119 45.05917 
L 25.91524 45.6917 
L 26.239884 46.679044 
L 27.649872 47.870202 
L 27.836745 48.7 
L 27.701871 49.053955 
L 27.434873 49.357854 
L 27.02571 49.303354 
L 26.477798 48.834473 
L 26.03926 48.613214 
L 25.630722 48.309907 
L 25.435724 48.372701 
L 25.371141 48.529686 
L 25.46739 48.690817 
L 25.979261 49.242189 
L 26.845816 50.234302 
L 27.713204 50.62084 
L 27.782787 50.973907 
L 27.607372 51.084093 
L 26.716546 50.825216 
L 24.549898 50.665418 
L 23.662405 50.853851 
L 21.642755 50.346087 
L 21.431841 50.511129 
L 21.535173 50.802587 
L 22.71933 51.31797 
L 22.834329 51.513461 
L 22.822037 52.049689 
L 22.835329 53.185081 
L 23.959736 53.994115 
L 24.12786 54.688994 
L 24.086818 55.155505 
L 23.756404 56.116962 
L 23.660989 56.67796 
L 22.924328 57.348551 
L 22.656726 57.127854 
L 22.214917 56.646548 
L 21.660005 56.209138 
L 21.564839 55.480848 
L 21.490882 55.224993 
L 21.274134 54.788042 
L 21.289342 54.186939 
L 21.261675 53.540044 
L 21.113677 53.286913 
L 20.863512 53.106529 
L 20.863512 53.106529 
" style="fill:none;stroke:#008000;stroke-linecap:square;stroke-width:0.4;"/>
   </g>
   <g id="line2d_27">
    <path clip-path="url(#pbae1a0bd43)" d="M 24.372649 38.860497 
L 24.379732 39.01689 
L 24.43169 39.163863 
L 24.483648 39.310836 
L 24.517169 39.395726 
L 24.550689 39.480616 
L 24.58421 39.565507 
L 24.61773 39.650397 
L 24.631168 39.795504 
L 24.644605 39.940611 
L 24.658043 40.085718 
L 24.67148 40.230825 
" style="fill:none;stroke:#008000;stroke-linecap:square;stroke-width:0.4;"/>
   </g>
   <g id="line2d_28">
    <path clip-path="url(#pbae1a0bd43)" d="M 29.629522 40.29978 
L 29.61248 40.403183 
L 29.595439 40.506585 
L 29.578397 40.609988 
L 29.561356 40.71339 
L 29.534522 40.792682 
L 29.507689 40.871974 
L 29.480856 40.951266 
L 29.454023 41.030559 
L 29.442846 41.127756 
L 29.431669 41.224953 
L 29.420492 41.32215 
L 29.409315 41.419347 
L 29.398138 41.516545 
L 29.386961 41.613742 
L 29.375784 41.710939 
L 29.364607 41.808136 
L 29.37642 41.929666 
L 29.388232 42.051196 
L 29.400044 42.172726 
L 29.411857 42.294255 
L 29.322316 42.360663 
L 29.232775 42.42707 
L 29.218067 42.525645 
L 29.203359 42.624219 
L 29.247108 42.721135 
L 29.290858 42.818051 
L 29.293733 42.942098 
L 29.296608 43.066146 
L 29.234457 43.162166 
L 29.172307 43.258186 
L 29.110156 43.354205 
L 29.048006 43.450225 
L 28.985855 43.546245 
L 28.923705 43.642265 
L 28.861554 43.738285 
L 28.799404 43.834305 
L 28.737253 43.930324 
L 28.675103 44.026344 
L 28.612952 44.122364 
L 28.550802 44.218384 
L 28.488651 44.314404 
L 28.426501 44.410423 
L 28.36435 44.506443 
L 28.302199 44.602463 
" style="fill:none;stroke:#4169e1;stroke-linecap:square;stroke-width:0.4;"/>
   </g>
   <g id="line2d_29">
    <path clip-path="url(#pbae1a0bd43)" d="M 26.973961 42.945771 
L 26.972752 43.046923 
L 26.971544 43.148074 
L 26.970336 43.249226 
L 26.969127 43.350377 
L 26.991502 43.488879 
L 27.013877 43.627381 
L 27.087626 43.707828 
L 27.161376 43.788275 
L 27.235125 43.868723 
L 27.308875 43.94917 
L 27.403415 44.025944 
L 27.497956 44.102719 
L 27.594955 44.181507 
L 27.670955 44.210535 
L 27.746954 44.239562 
L 27.822954 44.268589 
L 27.898953 44.297617 
L 27.950369 44.369119 
L 28.001785 44.440621 
L 28.053202 44.512123 
L 28.104618 44.583625 
L 28.135659 44.691233 
L 28.166701 44.798842 
L 28.197742 44.90645 
L 28.228783 45.014059 
" style="fill:none;stroke:#000000;stroke-linecap:square;stroke-width:0.4;"/>
   </g>
   <g id="line2d_30">
    <path clip-path="url(#pbae1a0bd43)" d="M 30.636097 38.542263 
L 30.679513 44.190452 
L 30.607972 45.079756 
L 30.531972 45.95336 
L 30.540931 46.37562 
L 30.510754 46.811341 
L 30.382224 48.692772 
L 30.661638 49.24915 
L 31.085259 49.986267 
L 31.618255 51.304938 
L 31.403715 52.82452 
L 31.390299 53.374232 
L 30.876178 54.701612 
L 30.876178 54.701612 
" style="fill:none;stroke:#000000;stroke-linecap:square;stroke-width:0.4;"/>
   </g>
   <g id="line2d_31">
    <path clip-path="url(#pbae1a0bd43)" d="M 30.768929 43.752495 
L 30.820335 43.821761 
L 30.87174 43.891026 
L 30.923146 43.960292 
L 30.974552 44.029558 
L 31.025958 44.098824 
L 31.077364 44.168089 
L 31.128769 44.237355 
L 31.180175 44.306621 
L 31.189113 44.463013 
L 31.19805 44.619406 
L 31.206988 44.775798 
L 31.215925 44.93219 
L 31.209217 45.072973 
L 31.202508 45.213755 
L 31.1958 45.354538 
L 31.189092 45.495321 
L 31.175696 45.638325 
L 31.1623 45.781329 
L 31.148905 45.924333 
L 31.135509 46.067337 
L 31.160092 46.161173 
L 31.184675 46.255008 
L 31.209258 46.348843 
L 31.233842 46.442679 
L 31.25507 46.551042 
L 31.276299 46.659406 
L 31.297528 46.76777 
L 31.318757 46.876134 
L 31.339986 46.984498 
L 31.361215 47.092862 
L 31.382444 47.201226 
L 31.403673 47.309589 
L 31.403673 47.392288 
L 31.403673 47.474986 
L 31.403673 47.557684 
L 31.403673 47.640383 
L 31.365674 47.783387 
L 31.327674 47.926391 
L 31.289674 48.069395 
L 31.251675 48.212399 
L 31.209217 48.346458 
L 31.166759 48.480517 
L 31.124301 48.614576 
L 31.081843 48.748635 
L 31.051666 48.84136 
L 31.021489 48.934084 
L 30.991312 49.026809 
L 30.961135 49.119534 
L 30.930959 49.212258 
L 30.900782 49.304983 
L 30.870605 49.397707 
L 30.840428 49.490432 
" style="fill:none;stroke:#000000;stroke-linecap:square;stroke-width:0.4;"/>
   </g>
   <g id="line2d_32">
    <path clip-path="url(#pbae1a0bd43)" d="M 27.590955 40.77808 
L 27.632205 40.913946 
L 27.673455 41.049811 
L 27.714704 41.185677 
L 27.755954 41.321543 
L 27.773829 41.469049 
L 27.791704 41.616556 
L 27.769329 41.737167 
L 27.746954 41.857779 
L 27.630788 41.965121 
L 27.501144 42.052232 
L 27.371499 42.139344 
L 27.241854 42.226456 
L 27.11221 42.313567 
L 27.054085 42.40296 
L 26.99596 42.492352 
L 26.987023 42.579494 
L 26.978086 42.666635 
L 26.969148 42.753776 
L 26.960211 42.840917 
L 26.973961 42.945771 
" style="fill:none;stroke:#008000;stroke-linecap:square;stroke-width:0.4;"/>
   </g>
   <g id="line2d_33">
    <path clip-path="url(#pbae1a0bd43)" d="M 22.869662 32.706817 
L 22.878131 32.798046 
L 22.886599 32.889275 
L 22.895068 32.980504 
L 22.903537 33.071733 
L 22.912005 33.162961 
L 22.920474 33.25419 
L 22.928943 33.345419 
L 22.937411 33.436648 
L 22.949057 33.562117 
L 22.960703 33.687586 
L 22.972348 33.813056 
L 22.983994 33.938525 
L 22.99564 34.063994 
L 23.007286 34.189463 
L 23.018931 34.314933 
L 23.030577 34.440402 
L 23.012702 34.565486 
L 22.994827 34.69057 
L 22.976953 34.815654 
L 22.959078 34.940739 
L 22.912141 35.032338 
L 22.865204 35.123937 
L 22.818266 35.215536 
L 22.771329 35.307135 
L 22.724392 35.398734 
L 22.677455 35.490333 
L 22.630518 35.581932 
L 22.583581 35.673531 
L 22.590289 35.767367 
L 22.596997 35.861202 
L 22.603706 35.955037 
L 22.610414 36.048873 
L 22.617122 36.142708 
L 22.623831 36.236543 
L 22.630539 36.330379 
L 22.637247 36.424214 
L 22.614893 36.538146 
L 22.592539 36.652079 
L 22.570185 36.766011 
L 22.547831 36.879943 
L 22.525477 36.993876 
L 22.503123 37.107808 
L 22.480769 37.22174 
L 22.458415 37.335673 
L 22.411478 37.445147 
L 22.364541 37.554622 
L 22.317604 37.664097 
L 22.270667 37.773571 
L 22.22373 37.883046 
L 22.176793 37.99252 
L 22.129856 38.101995 
L 22.082918 38.21147 
L 22.071741 38.303069 
L 22.060564 38.394668 
L 22.049387 38.486267 
L 22.038211 38.577866 
L 22.027034 38.669465 
L 22.015857 38.761064 
L 22.00468 38.852663 
L 21.993503 38.944262 
L 21.982326 39.035861 
L 21.971149 39.12746 
L 21.959972 39.219059 
L 21.948795 39.310658 
L 21.937618 39.402257 
L 21.926441 39.493856 
L 21.915264 39.585456 
L 21.904087 39.677055 
L 21.888441 39.817815 
L 21.872795 39.958575 
L 21.85715 40.099336 
L 21.841504 40.240096 
L 21.825858 40.380857 
L 21.810212 40.521617 
L 21.794567 40.662378 
L 21.778921 40.803138 
L 21.763275 40.943899 
L 21.74763 41.084659 
L 21.731984 41.225419 
L 21.716338 41.36618 
L 21.700693 41.50694 
L 21.685047 41.647701 
L 21.669401 41.788461 
L 21.653755 41.929222 
" style="fill:none;stroke:#008000;stroke-linecap:square;stroke-width:0.4;"/>
   </g>
   <g id="line2d_34">
    <path clip-path="url(#pbae1a0bd43)" d="M 24.937978 48.518549 
L 24.816104 48.579092 
L 24.69423 48.639634 
L 24.572356 48.700177 
L 24.450482 48.76072 
L 24.328608 48.821263 
L 24.206734 48.881806 
L 24.08486 48.942348 
L 23.962986 49.002891 
L 23.860174 49.069935 
L 23.757363 49.13698 
L 23.654551 49.204024 
L 23.551739 49.271068 
L 23.448928 49.338113 
L 23.346116 49.405157 
L 23.243305 49.472201 
L 23.140493 49.539245 
L 23.091316 49.628623 
L 23.04214 49.718001 
L 22.992963 49.807378 
L 22.943786 49.896756 
L 22.89461 49.986133 
L 22.845433 50.075511 
L 22.796256 50.164889 
L 22.74708 50.254266 
L 22.650914 50.313831 
L 22.554748 50.373397 
L 22.458582 50.432962 
L 22.362416 50.492527 
L 22.281167 50.512343 
L 22.199917 50.532159 
L 22.118668 50.551974 
L 22.037419 50.57179 
L 21.95617 50.591605 
L 21.87492 50.611421 
L 21.793671 50.631237 
L 21.712422 50.651052 
" style="fill:none;stroke:#008000;stroke-linecap:square;stroke-width:0.4;"/>
   </g>
   <g id="line2d_35">
    <path clip-path="url(#pbae1a0bd43)" d="M 30.688763 40.517545 
L 30.664945 40.604375 
L 30.641128 40.691205 
L 30.61731 40.778035 
L 30.593493 40.864866 
L 30.569675 40.951696 
L 30.545858 41.038526 
L 30.52204 41.125357 
L 30.498223 41.212187 
L 30.474405 41.299017 
L 30.450588 41.385847 
L 30.42677 41.472678 
L 30.402953 41.559508 
L 30.379135 41.646338 
L 30.355318 41.733169 
L 30.3315 41.819999 
L 30.307683 41.906829 
L 30.262475 42.022909 
L 30.217267 42.138989 
L 30.172059 42.255068 
L 30.126851 42.371148 
L 30.039289 42.461103 
L 29.951727 42.551059 
L 29.864166 42.641014 
L 29.776604 42.730969 
L 29.656605 42.814763 
L 29.536606 42.898557 
L 29.416607 42.982352 
L 29.296608 43.066146 
" style="fill:none;stroke:#000000;stroke-linecap:square;stroke-width:0.4;"/>
   </g>
   <g id="line2d_36">
    <path clip-path="url(#pbae1a0bd43)" d="M 30.590097 44.62841 
L 30.492171 44.649662 
L 30.394244 44.670914 
L 30.296318 44.692166 
L 30.198392 44.713419 
L 30.100466 44.734671 
L 30.002539 44.755923 
L 29.904613 44.777175 
L 29.806687 44.798427 
L 29.671438 44.839776 
L 29.532314 44.882251 
L 29.39319 44.924726 
L 29.263129 44.998538 
L 29.133068 45.072351 
L 29.003006 45.146163 
L 28.872945 45.219975 
L 28.769227 45.324119 
L 28.665509 45.428262 
L 28.561791 45.532405 
L 28.458073 45.636548 
L 28.354355 45.740691 
L 28.250637 45.844834 
L 28.14692 45.948977 
L 28.043202 46.05312 
" style="fill:none;stroke:#000000;stroke-linecap:square;stroke-width:0.4;"/>
   </g>
   <g id="line2d_37">
    <path clip-path="url(#pbae1a0bd43)" d="M 30.649763 49.828097 
L 30.652607 49.98657 
L 30.655451 50.145043 
L 30.658294 50.303516 
L 30.661138 50.461989 
L 30.663982 50.620462 
L 30.666825 50.778935 
L 30.669669 50.937409 
L 30.672513 51.095882 
L 30.675357 51.254355 
L 30.6782 51.412828 
L 30.681044 51.571301 
L 30.683888 51.729774 
L 30.686732 51.888247 
L 30.689575 52.04672 
L 30.692419 52.205193 
L 30.695263 52.363666 
L 30.747794 52.463114 
L 30.800324 52.562563 
L 30.852855 52.662011 
L 30.905386 52.761459 
L 30.957917 52.860907 
L 31.010448 52.960356 
L 31.062978 53.059804 
L 31.115509 53.159252 
L 31.109915 53.246408 
L 31.104322 53.333565 
L 31.098728 53.420721 
L 31.093134 53.507877 
L 31.087541 53.595033 
L 31.081947 53.682189 
L 31.076353 53.769345 
L 31.07076 53.856501 
L 31.046437 53.96214 
L 31.022114 54.067779 
L 30.997791 54.173418 
L 30.973469 54.279057 
L 30.949146 54.384695 
L 30.924823 54.490334 
L 30.900501 54.595973 
L 30.876178 54.701612 
" style="fill:none;stroke:#000000;stroke-linecap:square;stroke-width:0.4;"/>
   </g>
   <g id="line2d_38">
    <path clip-path="url(#pbae1a0bd43)" d="M 28.364866 47.859095 
L 28.383605 47.957743 
L 28.402344 48.056392 
L 28.421084 48.155041 
L 28.439823 48.253689 
L 28.458563 48.352338 
L 28.477302 48.450986 
L 28.496042 48.549635 
L 28.514781 48.648283 
L 28.514781 48.777248 
L 28.514781 48.906212 
L 28.514781 49.035177 
L 28.514781 49.164141 
L 28.511969 49.298703 
L 28.509156 49.433266 
L 28.506344 49.567828 
L 28.503531 49.702391 
L 28.464281 49.842581 
L 28.425032 49.982772 
L 28.385782 50.122962 
L 28.346532 50.263152 
L 28.287637 50.341644 
L 28.228742 50.420137 
L 28.169846 50.498629 
L 28.110951 50.577121 
L 28.071681 50.655614 
L 28.03241 50.734106 
L 27.99314 50.812598 
L 27.953869 50.891091 
L 27.83937 50.977521 
L 27.724871 51.063952 
" style="fill:none;stroke:#008000;stroke-linecap:square;stroke-width:0.4;"/>
   </g>
   <g id="line2d_39">
    <path clip-path="url(#pbae1a0bd43)" d="M 30.006852 49.646469 
L 30.087216 49.669172 
L 30.16758 49.691876 
L 30.247944 49.71458 
L 30.328307 49.737283 
L 30.408671 49.759987 
L 30.489035 49.78269 
L 30.569399 49.805394 
L 30.649763 49.828097 
L 30.739596 49.853511 
L 30.829428 49.878925 
L 30.905428 49.827446 
L 30.981427 49.775966 
" style="fill:none;stroke:#008000;stroke-linecap:square;stroke-width:0.4;"/>
   </g>
   <g id="line2d_40">
    <path clip-path="url(#pbae1a0bd43)" d="M 30.590097 44.62841 
L 30.52166 44.705999 
L 30.453223 44.783588 
L 30.384786 44.861177 
L 30.316349 44.938766 
L 30.247912 45.016355 
L 30.179475 45.093943 
L 30.111038 45.171532 
L 30.042602 45.249121 
L 29.988956 45.325081 
L 29.935311 45.401041 
L 29.881665 45.477001 
L 29.82802 45.552961 
L 29.774375 45.628921 
L 29.720729 45.70488 
L 29.667084 45.78084 
L 29.613438 45.8568 
" style="fill:none;stroke:#000000;stroke-linecap:square;stroke-width:0.4;"/>
   </g>
   <g id="line2d_41">
    <path clip-path="url(#pbae1a0bd43)" d="M 29.671438 44.839776 
L 29.712438 44.911278 
L 29.753437 44.982781 
L 29.794437 45.054283 
L 29.835437 45.125785 
L 29.807687 45.217162 
L 29.779937 45.308539 
L 29.752187 45.399915 
L 29.724438 45.491292 
L 29.696688 45.582669 
L 29.668938 45.674046 
L 29.641188 45.765423 
L 29.613438 45.8568 
L 29.588855 45.975235 
L 29.564272 46.093669 
L 29.539689 46.212104 
L 29.515106 46.330538 
L 29.490523 46.448973 
L 29.46594 46.567407 
L 29.441357 46.685842 
L 29.416773 46.804276 
L 29.421242 46.893654 
L 29.425711 46.983032 
L 29.43018 47.072409 
L 29.434648 47.161787 
L 29.439117 47.251164 
L 29.443586 47.340542 
L 29.448054 47.42992 
L 29.452523 47.519297 
L 29.456992 47.608675 
L 29.461461 47.698052 
L 29.465929 47.78743 
L 29.470398 47.876808 
L 29.474867 47.966185 
L 29.479335 48.055563 
L 29.483804 48.14494 
L 29.488273 48.234318 
L 29.538856 48.371872 
L 29.589439 48.509426 
" style="fill:none;stroke:#008000;stroke-linecap:square;stroke-width:0.4;"/>
   </g>
   <g id="line2d_42">
    <path clip-path="url(#pbae1a0bd43)" d="M 27.746954 41.857779 
L 27.705225 41.964114 
L 27.663497 42.070449 
L 27.621768 42.176783 
L 27.580039 42.283118 
L 27.659913 42.369608 
L 27.739788 42.456098 
L 27.779704 42.560833 
L 27.81962 42.665569 
L 27.87787 42.742106 
L 27.936119 42.818643 
L 27.978546 42.912197 
L 28.020973 43.005751 
L 28.063399 43.099305 
L 28.105826 43.192859 
L 28.148253 43.286413 
L 28.19068 43.379967 
L 28.233106 43.473521 
L 28.275533 43.567075 
L 28.311033 43.69213 
L 28.346532 43.817184 
L 28.382032 43.942239 
L 28.417532 44.067293 
" style="fill:none;stroke:#4169e1;stroke-linecap:square;stroke-width:0.4;"/>
   </g>
   <g id="line2d_43">
    <path clip-path="url(#pbae1a0bd43)" d="M 27.548289 30.958423 
L 27.475571 31.065513 
L 27.402853 31.172603 
L 27.330135 31.279694 
L 27.257417 31.386784 
L 27.184698 31.493874 
L 27.11198 31.600964 
L 27.039262 31.708054 
L 26.966544 31.815144 
L 26.922044 31.951277 
L 26.880847 32.080863 
L 26.839649 32.21045 
L 26.798452 32.340036 
L 26.757254 32.469622 
L 26.716057 32.599209 
L 26.674859 32.728795 
L 26.633661 32.858382 
L 26.592464 32.987968 
L 26.537173 33.119687 
L 26.481881 33.251406 
L 26.42659 33.383125 
L 26.371299 33.514844 
L 26.339414 33.64021 
L 26.307529 33.765575 
L 26.275644 33.890941 
L 26.243758 34.016306 
L 26.211873 34.141672 
L 26.179988 34.267037 
L 26.148103 34.392403 
L 26.116218 34.517769 
L 26.052448 34.613381 
L 25.988677 34.708994 
L 25.924907 34.804606 
L 25.861137 34.900219 
L 25.797366 34.995831 
L 25.733596 35.091444 
L 25.669826 35.187056 
L 25.606056 35.282669 
L 25.546535 35.359147 
L 25.487015 35.435625 
L 25.427495 35.512104 
L 25.367974 35.588582 
L 25.338214 35.686327 
L 25.308454 35.784072 
L 25.278694 35.881817 
L 25.248934 35.979562 
L 25.219173 36.077308 
L 25.189413 36.175053 
L 25.159653 36.272798 
L 25.129893 36.370543 
L 25.063987 36.421533 
L 24.998081 36.472524 
L 24.932176 36.523514 
L 24.86627 36.574505 
L 24.800364 36.625495 
L 24.734459 36.676485 
L 24.668553 36.727476 
L 24.602647 36.778466 
L 24.645189 36.863475 
L 24.68773 36.948484 
L 24.613324 37.029227 
L 24.538919 37.10997 
L 24.464513 37.190714 
L 24.390107 37.271457 
L 24.315702 37.352201 
L 24.241296 37.432944 
L 24.166891 37.513688 
L 24.092485 37.594431 
L 24.105245 37.711296 
L 24.118006 37.82816 
L 24.130766 37.945025 
L 24.143526 38.06189 
L 24.156286 38.178755 
L 24.169047 38.295619 
L 24.181807 38.412484 
L 24.194567 38.529349 
L 24.139297 38.595208 
L 24.084027 38.661068 
L 24.028756 38.726927 
L 23.973486 38.792787 
L 23.918216 38.858646 
L 23.862945 38.924506 
L 23.807675 38.990365 
L 23.752404 39.056225 
L 23.728613 39.203139 
L 23.704821 39.350053 
" style="fill:none;stroke:#008000;stroke-linecap:square;stroke-width:0.4;"/>
   </g>
   <g id="line2d_44">
    <path clip-path="url(#pbae1a0bd43)" d="M 26.600547 29.010391 
L 26.56492 29.104193 
L 26.529293 29.197996 
L 26.493665 29.291798 
L 26.458038 29.3856 
L 26.422411 29.479402 
L 26.386783 29.573204 
L 26.351156 29.667006 
L 26.315529 29.760808 
L 26.279901 29.85461 
L 26.244274 29.948412 
L 26.208647 30.042214 
L 26.173019 30.136016 
L 26.137392 30.229818 
L 26.101765 30.32362 
L 26.066138 30.417422 
L 26.03051 30.511224 
L 25.994883 30.605026 
L 25.959256 30.698828 
L 25.923628 30.79263 
L 25.888001 30.886432 
L 25.852374 30.980234 
L 25.816746 31.074036 
L 25.781119 31.167838 
L 25.745492 31.26164 
L 25.709865 31.355442 
L 25.674237 31.449244 
L 25.63861 31.543046 
L 25.602983 31.636848 
L 25.567355 31.73065 
L 25.531728 31.824452 
L 25.496101 31.918255 
L 25.460473 32.012057 
L 25.409842 32.143424 
L 25.359211 32.274791 
L 25.30858 32.406158 
L 25.257949 32.537526 
L 25.207318 32.668893 
L 25.156687 32.80026 
L 25.106056 32.931628 
L 25.055425 33.062995 
L 25.004794 33.194362 
L 24.954163 33.325729 
L 24.903531 33.457097 
L 24.8529 33.588464 
L 24.802269 33.719831 
L 24.751638 33.851198 
L 24.701007 33.982566 
L 24.650376 34.113933 
L 24.599745 34.2453 
L 24.549114 34.376668 
L 24.498483 34.508035 
L 24.447852 34.639402 
L 24.397221 34.770769 
L 24.34659 34.902137 
L 24.295958 35.033504 
L 24.245327 35.164871 
L 24.194696 35.296239 
L 24.144065 35.427606 
L 24.093434 35.558973 
L 24.042803 35.69034 
L 23.992172 35.821708 
L 23.941541 35.953075 
L 23.89091 36.084442 
L 23.840279 36.215809 
L 23.789648 36.347177 
L 23.739017 36.478544 
L 23.688385 36.609911 
L 23.637754 36.741279 
L 23.587123 36.872646 
L 23.536492 37.004013 
L 23.485861 37.13538 
L 23.43523 37.266748 
L 23.384599 37.398115 
L 23.333968 37.529482 
L 23.283337 37.66085 
L 23.232706 37.792217 
L 23.182075 37.923584 
L 23.131444 38.054951 
L 23.080812 38.186319 
L 23.030181 38.317686 
L 22.97955 38.449053 
L 22.928919 38.58042 
L 22.878288 38.711788 
L 22.827657 38.843155 
L 22.777026 38.974522 
L 22.726395 39.10589 
L 22.675764 39.237257 
L 22.625133 39.368624 
L 22.574502 39.499991 
L 22.52387 39.631359 
L 22.473239 39.762726 
L 22.422608 39.894093 
L 22.371977 40.025461 
L 22.321346 40.156828 
L 22.270715 40.288195 
L 22.220084 40.419562 
L 22.184688 40.513916 
L 22.149293 40.60827 
L 22.113897 40.702624 
L 22.078502 40.796977 
L 22.043106 40.891331 
L 22.007711 40.985685 
L 21.972315 41.080038 
L 21.93692 41.174392 
L 21.901524 41.268746 
L 21.866129 41.363099 
L 21.830733 41.457453 
L 21.795338 41.551807 
L 21.759942 41.646161 
L 21.724546 41.740514 
L 21.689151 41.834868 
L 21.653755 41.929222 
" style="fill:none;stroke:#008000;stroke-linecap:square;stroke-width:0.4;"/>
   </g>
   <g id="line2d_45">
    <path clip-path="url(#pbae1a0bd43)" d="M 28.460365 47.707205 
L 28.514781 47.84861 
L 28.569197 47.990014 
L 28.667155 48.071646 
L 28.765112 48.153278 
L 28.849466 48.166874 
L 28.933819 48.180469 
L 29.018173 48.194065 
L 29.102526 48.20766 
L 29.224254 48.283102 
L 29.345982 48.358543 
L 29.467711 48.433985 
L 29.589439 48.509426 
L 29.641615 48.651556 
L 29.693792 48.793687 
L 29.745969 48.935817 
L 29.798145 49.077947 
L 29.850322 49.220078 
L 29.902499 49.362208 
L 29.954675 49.504339 
L 30.006852 49.646469 
" style="fill:none;stroke:#008000;stroke-linecap:square;stroke-width:0.4;"/>
   </g>
   <g id="line2d_46">
    <path clip-path="url(#pbae1a0bd43)" d="M 27.387624 41.205789 
L 27.332083 41.305637 
L 27.276541 41.405485 
L 27.221 41.505333 
L 27.165459 41.605182 
L 27.109918 41.70503 
L 27.054377 41.804878 
L 26.998835 41.904726 
L 26.943294 42.004574 
L 26.887753 42.104422 
L 26.832212 42.204271 
L 26.776671 42.304119 
L 26.721129 42.403967 
L 26.665588 42.503815 
L 26.610047 42.603663 
L 26.554506 42.703511 
L 26.498965 42.80336 
L 26.473986 42.880445 
L 26.449007 42.95753 
L 26.424028 43.034616 
L 26.399049 43.111701 
L 26.37407 43.188787 
L 26.349091 43.265872 
L 26.324112 43.342957 
L 26.299133 43.420043 
L 26.300716 43.569297 
L 26.3023 43.718551 
L 26.303883 43.867804 
L 26.305466 44.017058 
L 26.322674 44.109731 
L 26.339883 44.202404 
L 26.357091 44.295077 
L 26.374299 44.387749 
L 26.391507 44.480422 
L 26.408715 44.573095 
L 26.425924 44.665768 
L 26.443132 44.758441 
L 26.46034 44.851113 
L 26.477548 44.943786 
L 26.494756 45.036459 
L 26.511965 45.129132 
L 26.529173 45.221805 
L 26.546381 45.314477 
L 26.563589 45.40715 
L 26.580797 45.499823 
L 26.610547 45.575161 
L 26.640297 45.650499 
L 26.670047 45.725836 
L 26.699796 45.801174 
L 26.729546 45.876512 
L 26.759296 45.95185 
L 26.789046 46.027188 
L 26.818795 46.102525 
L 26.836931 46.183136 
L 26.855066 46.263746 
L 26.873201 46.344356 
L 26.891336 46.424966 
L 26.909472 46.505576 
L 26.927607 46.586186 
L 26.945742 46.666796 
L 26.963877 46.747407 
L 27.051168 46.869618 
L 27.138459 46.991829 
L 27.262417 47.068485 
L 27.386374 47.145141 
L 27.484706 47.183143 
L 27.583039 47.221145 
L 27.681371 47.259147 
L 27.779704 47.297149 
" style="fill:none;stroke:#008000;stroke-linecap:square;stroke-width:0.4;"/>
   </g>
   <g id="line2d_47">
    <path clip-path="url(#pbae1a0bd43)" d="M 29.746687 36.28429 
L 29.62523 36.314266 
L 29.503773 36.344241 
L 29.428065 36.390951 
L 29.352357 36.437661 
L 29.27665 36.484372 
L 29.200942 36.531082 
L 29.108682 36.615617 
L 29.016423 36.700152 
L 28.924163 36.784686 
L 28.831903 36.869221 
L 28.739644 36.953756 
L 28.647384 37.038291 
L 28.555124 37.122825 
L 28.462865 37.20736 
L 28.433303 37.334888 
L 28.40374 37.462416 
L 28.374178 37.589944 
L 28.344616 37.717471 
L 28.315054 37.844999 
L 28.285491 37.972527 
L 28.255929 38.100055 
L 28.226367 38.227583 
L 28.205596 38.355303 
L 28.184825 38.483023 
L 28.164055 38.610744 
L 28.143284 38.738464 
L 28.157914 38.843044 
L 28.172544 38.947624 
L 28.187174 39.052204 
L 28.201805 39.156784 
L 28.216435 39.261364 
L 28.231065 39.365944 
L 28.245695 39.470523 
L 28.260325 39.575103 
L 28.274955 39.679683 
L 28.289585 39.784263 
L 28.304215 39.888843 
L 28.318845 39.993423 
L 28.333475 40.098003 
L 28.348105 40.202583 
L 28.362735 40.307163 
L 28.377366 40.411743 
L 28.390157 40.507726 
L 28.402949 40.603708 
L 28.41574 40.699691 
L 28.428532 40.795674 
L 28.441323 40.891657 
L 28.454115 40.98764 
L 28.466906 41.083622 
L 28.479698 41.179605 
L 28.483583 41.294707 
L 28.487469 41.40981 
L 28.491354 41.524912 
L 28.49524 41.640014 
L 28.499125 41.755117 
L 28.50301 41.870219 
L 28.506896 41.985321 
L 28.510781 42.100424 
L 28.509573 42.216518 
L 28.508364 42.332613 
L 28.507156 42.448708 
L 28.505948 42.564802 
L 28.504739 42.680897 
L 28.503531 42.796991 
L 28.502323 42.913086 
L 28.501114 43.029181 
L 28.517198 43.116411 
L 28.533281 43.203641 
L 28.549364 43.290871 
L 28.565447 43.378101 
" style="fill:none;stroke:#4169e1;stroke-linecap:square;stroke-width:0.4;"/>
   </g>
   <g id="line2d_48">
    <path clip-path="url(#pbae1a0bd43)" d="M 28.143284 38.738464 
L 28.083378 38.864703 
L 28.023473 38.990943 
L 27.963567 39.117182 
L 27.903661 39.243421 
L 27.843755 39.369661 
L 27.78385 39.4959 
L 27.723944 39.62214 
L 27.664038 39.748379 
L 27.62658 39.83167 
L 27.589122 39.91496 
L 27.548393 40.047242 
L 27.507665 40.179524 
L 27.466936 40.311806 
L 27.426207 40.444088 
L 27.428915 40.587536 
L 27.431623 40.730984 
L 27.434332 40.874433 
L 27.43704 41.017881 
L 27.412332 41.111835 
L 27.387624 41.205789 
" style="fill:none;stroke:#008000;stroke-linecap:square;stroke-width:0.4;"/>
   </g>
   <g id="line2d_49">
    <path clip-path="url(#pbae1a0bd43)" d="M 26.580797 45.499823 
L 26.51009 45.591851 
L 26.439382 45.68388 
L 26.368674 45.775909 
L 26.297966 45.867937 
L 26.241738 45.977826 
L 26.185509 46.087716 
L 26.12928 46.197605 
L 26.073052 46.307494 
L 26.002109 46.445685 
L 25.931167 46.583876 
L 25.860225 46.722067 
L 25.789283 46.860258 
L 25.718341 46.998449 
L 25.647399 47.13664 
L 25.576457 47.274831 
L 25.505515 47.413022 
L 25.434573 47.551212 
L 25.36363 47.689403 
L 25.292688 47.827594 
L 25.221746 47.965785 
L 25.150804 48.103976 
L 25.079862 48.242167 
L 25.00892 48.380358 
L 24.937978 48.518549 
L 24.924061 48.676955 
L 24.910145 48.835362 
L 24.896228 48.993768 
L 24.882312 49.152175 
L 24.821843 49.223751 
L 24.761375 49.295327 
L 24.700907 49.366903 
L 24.640439 49.438479 
L 24.57997 49.510055 
L 24.519502 49.581631 
L 24.459034 49.653207 
L 24.398566 49.724784 
L 24.473648 49.810977 
L 24.548731 49.89717 
L 24.448628 49.92913 
L 24.348524 49.96109 
L 24.248421 49.99305 
L 24.148318 50.025009 
L 24.098412 50.131626 
L 24.048506 50.238242 
L 23.9986 50.344858 
L 23.948694 50.451474 
L 23.898789 50.558091 
L 23.848883 50.664707 
L 23.798977 50.771323 
L 23.749071 50.877939 
L 23.7243 50.972989 
L 23.69953 51.068039 
L 23.674759 51.163089 
L 23.649989 51.258139 
L 23.628697 51.339771 
L 23.607406 51.421403 
L 23.560364 51.535527 
L 23.513323 51.649652 
L 23.466282 51.763777 
L 23.419241 51.877902 
L 23.363408 52.013442 
L 23.315012 52.10045 
L 23.266617 52.187458 
L 23.218221 52.274466 
L 23.169826 52.361474 
L 23.121431 52.448482 
L 23.073035 52.53549 
L 23.02464 52.622498 
L 22.976244 52.709506 
L 22.908745 52.830829 
L 22.841245 52.952151 
L 22.754663 52.971345 
L 22.669924 52.986888 
L 22.585185 53.002431 
L 22.500446 53.017974 
L 22.415707 53.033517 
L 22.330968 53.04906 
L 22.24623 53.064602 
L 22.161491 53.080145 
L 22.076752 53.095688 
L 21.992013 53.111231 
L 21.907274 53.126774 
L 21.822535 53.142317 
L 21.737796 53.15786 
L 21.653057 53.173403 
L 21.568319 53.188946 
L 21.48358 53.204489 
L 21.398841 53.220032 
L 21.264592 53.244676 
L 21.169384 53.262122 
L 21.074177 53.279568 
L 20.978969 53.297014 
L 20.883762 53.31446 
" style="fill:none;stroke:#4169e1;stroke-linecap:square;stroke-width:0.4;"/>
   </g>
   <g id="line2d_50">
    <path clip-path="url(#pbae1a0bd43)" d="M 26.428132 28.749975 
L 25.48921 28.701332 
L 22.677476 32.832701 
L 22.020315 33.362984 
L 21.791233 33.918413 
L 21.77427 34.307491 
L 20.700972 36.407449 
L 20.235372 37.94775 
L 19.930983 39.595156 
L 19.413587 42.529318 
L 19.004028 45.024248 
L 19.035361 45.325481 
L 18.77055 45.790037 
L 18.452532 47.10237 
L 18.426928 48.488129 
L 18.460991 49.384038 
L 18.450402 49.683034 
L 19.152506 50.838723 
L 19.118589 51.275585 
L 19.262817 51.763303 
L 19.199193 52.15775 
L 20.028014 52.713416 
L 20.961345 53.189109 
L 20.722763 53.574284 
L 20.722763 53.574284 
" style="fill:none;stroke:#4169e1;stroke-linecap:square;stroke-width:0.4;"/>
   </g>
   <g id="line2d_51">
    <path clip-path="url(#pbae1a0bd43)" d="M 26.428132 28.749975 
L 26.51434 28.880183 
L 26.600547 29.010391 
L 26.67338 29.117704 
L 26.746213 29.225016 
L 26.819045 29.332328 
L 26.891878 29.439641 
L 26.964711 29.546953 
L 27.037543 29.654265 
L 27.110376 29.761578 
L 27.183209 29.86889 
L 27.256042 29.976203 
L 27.328874 30.083515 
L 27.401707 30.190827 
L 27.47454 30.29814 
L 27.547373 30.405452 
L 27.620205 30.512764 
L 27.693038 30.620077 
L 27.765871 30.727389 
L 27.82361 30.800935 
L 27.881349 30.874481 
L 27.939088 30.948026 
L 27.996827 31.021572 
L 28.054566 31.095118 
L 28.112305 31.168664 
L 28.170044 31.24221 
L 28.227783 31.315756 
L 28.333689 31.42757 
L 28.439594 31.539385 
L 28.5455 31.651199 
L 28.651405 31.763014 
L 28.75731 31.874828 
L 28.863216 31.986643 
L 28.969121 32.098457 
L 29.075026 32.210272 
L 29.180932 32.322086 
L 29.286837 32.433901 
L 29.392742 32.545716 
L 29.498648 32.65753 
L 29.604553 32.769345 
L 29.710458 32.881159 
L 29.816364 32.992974 
L 29.922269 33.104788 
" style="fill:none;stroke:#008000;stroke-linecap:square;stroke-width:0.4;"/>
   </g>
   <g id="line2d_52">
    <path clip-path="url(#pbae1a0bd43)" d="M 35.755803 3.370946 
L 35.793803 3.888996 
L 34.63987 7.871137 
L 31.114176 19.147016 
L 31.114176 19.147016 
" style="fill:none;stroke:#4169e1;stroke-linecap:square;stroke-width:0.4;"/>
   </g>
   <g id="line2d_53">
    <path clip-path="url(#pbae1a0bd43)" d="M 35.845219 3.692498 
L 38.534643 4.813845 
L 34.81253 15.754385 
L 33.756716 16.751104 
L 32.75537 17.473633 
L 32.08223 18.487384 
L 31.425965 19.074566 
L 31.334007 19.270589 
L 31.334007 19.270589 
" style="fill:none;stroke:#000000;stroke-linecap:square;stroke-width:0.4;"/>
   </g>
   <g id="line2d_54">
    <path clip-path="url(#pbae1a0bd43)" d="M 29.579022 52.855117 
L 29.681959 52.93435 
L 29.784895 53.013582 
L 29.887832 53.092815 
L 29.990769 53.172048 
L 30.053351 53.275969 
L 30.115934 53.37989 
L 30.178517 53.483811 
L 30.2411 53.587732 
L 30.303683 53.691653 
L 30.366265 53.795573 
L 30.428848 53.899494 
L 30.491431 54.003415 
L 30.49591 54.090571 
L 30.500389 54.177727 
L 30.504868 54.264883 
L 30.509348 54.35204 
L 30.513827 54.439196 
L 30.518306 54.526352 
L 30.522785 54.613508 
L 30.527264 54.700664 
" style="fill:none;stroke:#ff0000;stroke-linecap:square;stroke-width:0.4;"/>
   </g>
   <g id="line2d_55">
    <path clip-path="url(#pbae1a0bd43)" d="M 30.006852 49.646469 
L 30.054018 49.768739 
L 30.101184 49.89101 
L 30.148351 50.01328 
L 30.195517 50.13555 
L 30.242683 50.25782 
L 30.289849 50.380091 
L 30.337016 50.502361 
L 30.384182 50.624631 
L 30.381953 50.72519 
L 30.379724 50.825749 
L 30.377495 50.926309 
L 30.375265 51.026868 
L 30.330557 51.172123 
L 30.285849 51.317378 
L 30.241142 51.462633 
L 30.196434 51.607889 
L 30.157845 51.68584 
L 30.119257 51.763792 
L 30.080669 51.841744 
L 30.042081 51.919696 
L 30.003492 51.997647 
L 29.964904 52.075599 
L 29.926316 52.153551 
L 29.887728 52.231503 
L 29.84914 52.309454 
L 29.810551 52.387406 
L 29.771963 52.465358 
L 29.733375 52.54331 
L 29.694787 52.621262 
L 29.656199 52.699213 
L 29.61761 52.777165 
L 29.579022 52.855117 
L 29.518793 52.976824 
L 29.458565 53.098532 
L 29.398336 53.220239 
L 29.338107 53.341947 
L 29.311285 53.431325 
L 29.284462 53.520702 
L 29.257639 53.61008 
L 29.230817 53.699457 
L 29.203994 53.788835 
L 29.177171 53.878212 
L 29.150349 53.96759 
L 29.123526 54.056968 
L 29.116984 54.151099 
L 29.110443 54.245231 
L 29.103568 54.343331 
L 29.096693 54.441432 
L 29.130224 54.577742 
L 29.163755 54.714052 
L 29.197286 54.850362 
L 29.230817 54.986672 
L 29.264348 55.122982 
L 29.297879 55.259292 
L 29.33141 55.395602 
L 29.364941 55.531913 
L 29.503523 55.52747 
L 29.642105 55.523027 
L 29.702969 55.466468 
L 29.763833 55.409909 
L 29.824697 55.35335 
L 29.885561 55.296791 
L 29.946425 55.240232 
L 30.007289 55.183673 
L 30.068153 55.127114 
L 30.129017 55.070555 
L 30.228579 54.978083 
L 30.328141 54.88561 
L 30.427702 54.793137 
L 30.527264 54.700664 
" style="fill:none;stroke:#4169e1;stroke-linecap:square;stroke-width:0.4;"/>
   </g>
   <g id="line2d_56">
    <path clip-path="url(#pbae1a0bd43)" d="M 29.110443 54.245231 
L 29.227713 54.298754 
L 29.344982 54.352277 
L 29.462252 54.405799 
L 29.579522 54.459322 
L 29.648209 54.535726 
L 29.716896 54.612131 
L 29.785583 54.688535 
L 29.85427 54.764939 
L 29.922957 54.841343 
L 29.991644 54.917747 
L 30.060331 54.994151 
L 30.129017 55.070555 
" style="fill:none;stroke:#000000;stroke-linecap:square;stroke-width:0.4;"/>
   </g>
   <g id="line2d_57">
    <path clip-path="url(#pbae1a0bd43)" d="M 23.176909 53.409954 
L 23.103327 53.501272 
L 23.029744 53.592589 
L 22.956161 53.683907 
L 22.882578 53.775225 
L 22.783121 53.774099 
L 22.683663 53.772974 
L 22.584206 53.771848 
L 22.484748 53.770722 
L 22.385291 53.769597 
L 22.285833 53.768471 
L 22.186376 53.767346 
L 22.086918 53.76622 
L 21.9917 53.76197 
L 21.896483 53.757719 
L 21.801265 53.753469 
L 21.706047 53.749218 
L 21.610829 53.744968 
L 21.515611 53.740718 
L 21.420393 53.736467 
L 21.325175 53.732217 
" style="fill:none;stroke:#000000;stroke-linecap:square;stroke-width:0.4;"/>
   </g>
   <g id="line2d_58">
    <path clip-path="url(#pbae1a0bd43)" d="M 29.765021 18.79229 
L 29.753336 18.877243 
L 29.741651 18.962196 
L 29.729966 19.047149 
L 29.718281 19.132102 
L 29.706597 19.217055 
L 29.694912 19.302009 
L 29.683227 19.386962 
L 29.671542 19.471915 
L 29.659857 19.556868 
L 29.648173 19.641821 
L 29.636488 19.726774 
L 29.624803 19.811727 
L 29.613118 19.89668 
L 29.601433 19.981634 
L 29.589749 20.066587 
L 29.578064 20.15154 
L 29.566379 20.236493 
L 29.554694 20.321446 
L 29.543009 20.406399 
L 29.531325 20.491352 
L 29.51964 20.576306 
L 29.507955 20.661259 
L 29.49627 20.746212 
L 29.484585 20.831165 
L 29.472901 20.916118 
L 29.461216 21.001071 
L 29.449531 21.086024 
L 29.437846 21.170978 
L 29.426161 21.255931 
L 29.414477 21.340884 
L 29.402792 21.425837 
L 29.391107 21.51079 
L 29.374261 21.639155 
L 29.357415 21.767519 
L 29.340568 21.895884 
L 29.323722 22.024248 
L 29.306876 22.152613 
L 29.29003 22.280978 
L 29.273184 22.409342 
L 29.256337 22.537707 
L 29.239491 22.666071 
L 29.222645 22.794436 
L 29.205799 22.9228 
L 29.188952 23.051165 
L 29.172106 23.17953 
L 29.15526 23.307894 
L 29.138414 23.436259 
L 29.121568 23.564623 
L 29.104721 23.692988 
L 29.087875 23.821352 
L 29.071029 23.949717 
L 29.054183 24.078082 
L 29.037337 24.206446 
L 29.02049 24.334811 
L 29.003644 24.463175 
L 28.986798 24.59154 
L 28.969952 24.719904 
L 28.953105 24.848269 
L 28.936259 24.976634 
L 28.919413 25.104998 
L 28.902567 25.233363 
L 28.885721 25.361727 
L 28.868874 25.490092 
L 28.852028 25.618457 
L 28.850518 25.719112 
L 28.849007 25.819767 
L 28.847497 25.920422 
L 28.845987 26.021078 
L 28.844476 26.121733 
L 28.842966 26.222388 
L 28.841455 26.323044 
L 28.839945 26.423699 
L 28.838435 26.524354 
L 28.836924 26.62501 
L 28.835414 26.725665 
L 28.833903 26.82632 
L 28.832393 26.926975 
L 28.830883 27.027631 
L 28.829372 27.128286 
L 28.827862 27.228941 
L 28.809109 27.356654 
L 28.790357 27.484367 
L 28.771604 27.61208 
L 28.752852 27.739793 
L 28.7341 27.867506 
L 28.715347 27.995219 
L 28.696595 28.122932 
L 28.677842 28.250645 
L 28.65909 28.378358 
L 28.640337 28.506071 
L 28.621585 28.633784 
L 28.602832 28.761497 
L 28.58408 28.88921 
L 28.565327 29.016923 
L 28.546575 29.144636 
L 28.527823 29.272348 
L 28.50907 29.400061 
L 28.490318 29.527774 
L 28.471565 29.655487 
L 28.452813 29.7832 
L 28.43406 29.910913 
L 28.415308 30.038626 
L 28.396555 30.166339 
L 28.377803 30.294052 
L 28.359051 30.421765 
L 28.340298 30.549478 
L 28.321546 30.677191 
L 28.302793 30.804904 
L 28.284041 30.932617 
L 28.265288 31.06033 
L 28.246536 31.188043 
L 28.227783 31.315756 
" style="fill:none;stroke:#4169e1;stroke-linecap:square;stroke-width:0.4;"/>
   </g>
   <g id="line2d_59">
    <path clip-path="url(#pbae1a0bd43)" d="M 23.908486 45.691166 
L 23.875151 45.772339 
L 23.841815 45.853512 
L 23.808479 45.934685 
L 23.775144 46.015858 
L 23.741808 46.097031 
L 23.708473 46.178204 
L 23.675137 46.259377 
L 23.641801 46.34055 
L 23.608466 46.421723 
L 23.57513 46.502896 
L 23.541794 46.584068 
L 23.508459 46.665241 
L 23.475123 46.746414 
L 23.441787 46.827587 
L 23.408452 46.90876 
L 23.375116 46.989933 
L 23.34178 47.071106 
L 23.308445 47.152279 
L 23.275109 47.233452 
L 23.241773 47.314625 
L 23.208438 47.395798 
L 23.175102 47.476971 
L 23.141766 47.558143 
L 23.108431 47.639316 
L 23.075095 47.720489 
L 23.041759 47.801662 
L 23.008424 47.882835 
L 22.975088 47.964008 
L 22.941752 48.045181 
L 22.908417 48.126354 
L 22.875081 48.207527 
L 22.841745 48.2887 
L 22.80841 48.369873 
L 22.775074 48.451046 
L 22.741738 48.532218 
L 22.708403 48.613391 
L 22.675067 48.694564 
L 22.641731 48.775737 
L 22.608396 48.85691 
L 22.57506 48.938083 
L 22.541725 49.019256 
L 22.508389 49.100429 
L 22.475053 49.181602 
L 22.441718 49.262775 
L 22.408382 49.343948 
L 22.375046 49.425121 
L 22.341711 49.506293 
L 22.308375 49.587466 
L 22.275039 49.668639 
L 22.241704 49.749812 
L 22.208368 49.830985 
L 22.175032 49.912158 
L 22.141697 49.993331 
L 22.108361 50.074504 
L 22.075025 50.155677 
L 22.04169 50.23685 
L 22.008354 50.318023 
L 21.975018 50.399196 
L 21.941683 50.480368 
L 21.908347 50.561541 
L 21.875011 50.642714 
L 21.841676 50.723887 
L 21.80834 50.80506 
L 21.775004 50.886233 
L 21.718036 51.025002 
L 21.661068 51.16377 
L 21.6041 51.302539 
L 21.547131 51.441307 
L 21.490163 51.580076 
L 21.433195 51.718844 
L 21.376226 51.857613 
L 21.319258 51.996381 
L 21.26229 52.13515 
L 21.205322 52.273918 
L 21.148353 52.412687 
L 21.091385 52.551455 
L 21.034417 52.690224 
L 20.977449 52.828992 
L 20.92048 52.967761 
L 20.863512 53.106529 
" style="fill:none;stroke:#4169e1;stroke-linecap:square;stroke-width:0.4;"/>
   </g>
   <g id="line2d_60">
    <path clip-path="url(#pbae1a0bd43)" d="M 4.172069 65.093522 
L 4.100278 65.137893 
L 4.028487 65.182263 
L 3.956696 65.226633 
L 3.884905 65.271004 
L 3.793489 65.393304 
L 3.702073 65.515604 
L 3.610657 65.637904 
L 3.519241 65.760203 
L 3.427825 65.882503 
L 3.336409 66.004803 
L 3.244994 66.127103 
L 3.153578 66.249403 
L 3.089193 66.367586 
L 3.024808 66.485769 
L 2.960423 66.603952 
L 2.896038 66.722134 
L 2.831653 66.840317 
L 2.767268 66.9585 
L 2.702884 67.076683 
L 2.638499 67.194866 
L 2.599525 67.283258 
L 2.560551 67.371651 
L 2.521578 67.460044 
L 2.482604 67.548436 
L 2.44363 67.636829 
L 2.404657 67.725222 
L 2.365683 67.813615 
L 2.32671 67.902007 
L 2.287736 67.9904 
L 2.248762 68.078793 
L 2.209789 68.167186 
L 2.170815 68.255578 
L 2.131841 68.343971 
L 2.092868 68.432364 
L 2.053894 68.520756 
L 2.014921 68.609149 
" style="fill:none;stroke:#008000;stroke-linecap:square;stroke-width:0.4;"/>
   </g>
   <g id="line2d_61">
    <path clip-path="url(#pbae1a0bd43)" d="M 6.300635 62.751074 
L 6.241823 62.809262 
L 6.183011 62.86745 
L 6.124198 62.925638 
L 6.065386 62.983826 
L 6.006574 63.042014 
L 5.947762 63.100202 
L 5.88895 63.15839 
L 5.830138 63.216578 
L 5.73565 63.268738 
L 5.641161 63.320899 
L 5.546672 63.373059 
L 5.452183 63.42522 
L 5.357695 63.47738 
L 5.263206 63.52954 
L 5.168717 63.581701 
L 5.074228 63.633861 
L 4.989729 63.662 
L 4.90523 63.690139 
L 4.801345 63.724675 
L 4.69746 63.759212 
L 4.593576 63.793748 
L 4.489691 63.828285 
L 4.385807 63.862822 
L 4.281922 63.897358 
L 4.178038 63.931895 
L 4.074153 63.966432 
L 3.970269 64.000968 
L 3.866384 64.035505 
L 3.7625 64.070041 
L 3.658615 64.104578 
L 3.554731 64.139115 
L 3.450846 64.173651 
L 3.346961 64.208188 
L 3.243077 64.242725 
L 3.123911 64.315737 
L 3.004746 64.38875 
L 2.88558 64.461763 
L 2.766414 64.534775 
L 2.676894 64.642739 
L 2.587374 64.750703 
L 2.497854 64.858667 
L 2.408334 64.966631 
L 2.369251 65.120891 
L 2.330168 65.27515 
L 2.300001 65.393807 
L 2.269835 65.512464 
L 2.239669 65.631121 
L 2.209502 65.749777 
L 2.202419 65.836363 
L 2.195336 65.922949 
L 2.188252 66.009535 
L 2.181169 66.096121 
L 2.174086 66.182707 
L 2.167003 66.269293 
L 2.159919 66.355879 
L 2.152836 66.442465 
L 2.145753 66.529051 
L 2.13867 66.615637 
L 2.131586 66.702222 
L 2.124503 66.788808 
L 2.11742 66.875394 
L 2.110336 66.96198 
L 2.103253 67.048566 
L 2.09617 67.135152 
L 2.089087 67.221738 
L 2.082003 67.308324 
L 2.07492 67.39491 
L 2.067837 67.481496 
L 2.060754 67.568082 
L 2.05367 67.654668 
L 2.046587 67.741254 
L 2.039504 67.82784 
L 2.03242 67.914425 
L 2.025337 68.001011 
L 2.018254 68.087597 
L 2.011171 68.174183 
L 2.004087 68.260769 
L 1.997004 68.347355 
L 1.989921 68.433941 
L 1.982837 68.520527 
" style="fill:none;stroke:#008000;stroke-linecap:square;stroke-width:0.4;"/>
   </g>
   <g id="line2d_62">
    <path clip-path="url(#pbae1a0bd43)" d="M 26.170801 28.710403 
L 26.138564 28.786066 
L 26.106327 28.86173 
L 26.074091 28.937394 
L 26.041854 29.013057 
L 26.009617 29.088721 
L 25.977381 29.164384 
L 25.945144 29.240048 
L 25.912907 29.315712 
L 25.88067 29.391375 
L 25.848434 29.467039 
L 25.816197 29.542703 
L 25.78396 29.618366 
L 25.751724 29.69403 
L 25.719487 29.769694 
L 25.68725 29.845357 
L 25.655013 29.921021 
L 25.622777 29.996685 
L 25.59054 30.072348 
L 25.558303 30.148012 
L 25.526067 30.223675 
L 25.49383 30.299339 
L 25.461593 30.375003 
L 25.429356 30.450666 
L 25.39712 30.52633 
L 25.364883 30.601994 
L 25.332646 30.677657 
L 25.30041 30.753321 
L 25.268173 30.828985 
L 25.235936 30.904648 
L 25.2037 30.980312 
L 25.171463 31.055976 
L 25.139226 31.131639 
L 25.036081 31.213449 
L 24.932936 31.295259 
L 24.829791 31.377068 
L 24.726646 31.458878 
L 24.623501 31.540688 
L 24.520356 31.622498 
L 24.417211 31.704307 
L 24.314066 31.786117 
L 24.279874 31.858389 
L 24.245682 31.930661 
L 24.211489 32.002934 
L 24.177297 32.075206 
L 24.143104 32.147478 
L 24.108912 32.21975 
L 24.074719 32.292022 
L 24.040527 32.364295 
L 24.006335 32.436567 
L 23.972142 32.508839 
L 23.93795 32.581111 
L 23.903757 32.653383 
L 23.869565 32.725655 
L 23.835372 32.797928 
L 23.80118 32.8702 
L 23.766988 32.942472 
L 23.663291 33.004244 
L 23.559594 33.066016 
L 23.455897 33.127788 
L 23.352199 33.18956 
L 23.248502 33.251332 
L 23.144805 33.313104 
L 23.041108 33.374876 
L 22.937411 33.436648 
" style="fill:none;stroke:#008000;stroke-linecap:square;stroke-width:0.4;"/>
   </g>
   <g id="line2d_63">
    <path clip-path="url(#pbae1a0bd43)" d="M 20.863512 53.106529 
L 20.251267 52.960267 
L 20.015186 53.111742 
L 19.875135 53.537008 
L 19.651731 54.245645 
L 19.011382 55.174906 
L 18.652031 55.438551 
L 18.442199 55.844993 
L 17.988828 56.78696 
L 17.474874 57.159755 
L 16.856046 57.446888 
L 15.490057 57.266208 
L 14.775563 57.144678 
L 14.3269 57.231257 
L 14.037069 57.571439 
L 14.118506 58.073605 
L 14.674606 59.356118 
L 15.019978 59.728201 
L 14.841563 59.960242 
L 14.486107 59.985301 
L 14.167964 59.862497 
L 13.887248 59.525491 
L 12.373 56.596446 
L 12.039753 56.568367 
L 11.731495 56.952831 
L 10.642681 58.641867 
L 10.224602 58.776341 
L 9.97602 58.923018 
L 9.98927 59.211041 
L 10.463766 59.75012 
L 10.349095 60.537265 
L 9.943271 61.798888 
L 9.413192 62.414505 
L 8.525741 62.989306 
L 8.218327 63.329962 
L 8.057161 63.948127 
L 7.888038 64.371037 
L 7.459041 64.700646 
L 4.901907 64.954161 
L 4.172069 65.093522 
L 4.172069 65.093522 
" style="fill:none;stroke:#008000;stroke-linecap:square;stroke-width:0.4;"/>
   </g>
   <g id="line2d_64">
    <path clip-path="url(#pbae1a0bd43)" d="M 4.90523 63.690139 
L 4.859959 63.775592 
L 4.814689 63.861045 
L 4.769418 63.946498 
L 4.724148 64.03195 
L 4.654857 64.112398 
L 4.585566 64.192845 
L 4.516275 64.273292 
L 4.446983 64.353739 
L 4.353109 64.407381 
L 4.259235 64.461022 
L 4.165361 64.514664 
L 4.071487 64.568305 
L 3.964196 64.583974 
L 3.856905 64.599643 
L 3.749614 64.615311 
L 3.642324 64.63098 
L 3.539512 64.66448 
L 3.4367 64.69798 
L 3.333889 64.73148 
L 3.231077 64.76498 
L 3.123786 64.805233 
L 3.016495 64.845486 
L 2.909205 64.88574 
L 2.801914 64.925993 
L 2.683977 65.013282 
L 2.566041 65.100572 
L 2.448104 65.187861 
L 2.330168 65.27515 
" style="fill:none;stroke:#008000;stroke-linecap:square;stroke-width:0.4;"/>
   </g>
   <g id="line2d_65">
    <path clip-path="url(#pbae1a0bd43)" d="M 6.401217 62.820384 
L 6.361488 62.929681 
L 6.321759 63.038978 
L 6.282031 63.148275 
L 6.242302 63.257572 
L 6.228448 63.387662 
L 6.214594 63.517752 
L 6.20074 63.647842 
L 6.186885 63.777932 
L 6.152782 63.893863 
L 6.118678 64.009795 
L 6.084574 64.125727 
L 6.05047 64.241658 
L 5.98572 64.325956 
L 5.920971 64.410254 
L 5.856222 64.494552 
L 5.791472 64.578849 
L 5.70716 64.616496 
L 5.622849 64.654143 
L 5.538537 64.69179 
L 5.454225 64.729436 
L 5.37409 64.752192 
L 5.293955 64.774947 
L 5.213821 64.797702 
L 5.133686 64.820458 
L 5.053551 64.843213 
L 4.973417 64.865969 
L 4.893282 64.888724 
L 4.813147 64.911479 
L 4.733012 64.934235 
L 4.652878 64.95699 
L 4.572743 64.979745 
L 4.492608 65.002501 
L 4.412473 65.025256 
L 4.332339 65.048011 
L 4.252204 65.070767 
L 4.172069 65.093522 
" style="fill:none;stroke:#008000;stroke-linecap:square;stroke-width:0.4;"/>
   </g>
  </g>
 </g>
 <defs>
  <clipPath id="pbae1a0bd43">
   <rect height="72" width="40.399452" x="0" y="0"/>
  </clipPath>
 </defs>
</svg>
