<?xml version="1.0" encoding="utf-8" standalone="no"?>
<!DOCTYPE svg PUBLIC "-//W3C//DTD SVG 1.1//EN"
  "http://www.w3.org/Graphics/SVG/1.1/DTD/svg11.dtd">
<svg height="72pt" version="1.1" viewBox="0 0 98.297844 72" width="98.297844pt" xmlns="http://www.w3.org/2000/svg" xmlns:xlink="http://www.w3.org/1999/xlink">
 <metadata>
  <rdf:RDF xmlns:cc="http://creativecommons.org/ns#" xmlns:dc="http://purl.org/dc/elements/1.1/" xmlns:rdf="http://www.w3.org/1999/02/22-rdf-syntax-ns#">
   <cc:Work>
    <dc:type rdf:resource="http://purl.org/dc/dcmitype/StillImage"/>
    <dc:date>2022-04-20T00:07:05.380457</dc:date>
    <dc:format>image/svg+xml</dc:format>
    <dc:creator>
     <cc:Agent>
      <dc:title>Matplotlib v3.4.3, https://matplotlib.org/</dc:title>
     </cc:Agent>
    </dc:creator>
   </cc:Work>
  </rdf:RDF>
 </metadata>
 <defs>
  <style type="text/css">*{stroke-linecap:butt;stroke-linejoin:round;}</style>
 </defs>
 <g id="figure_1">
  <g id="patch_1">
   <path d="M 0 72 
L 98.297844 72 
L 98.297844 0 
L 0 0 
z
" style="fill:#ffffff;"/>
  </g>
  <g id="axes_1">
   <g id="patch_2">
    <path clip-path="url(#p198abde808)" d="M 31.782326 29.522531 
L 31.782326 29.522531 
L 30.990651 29.481975 
L 30.198975 29.441419 
L 29.712475 29.202109 
L 29.225974 28.962799 
L 28.815287 28.77844 
L 28.404599 28.594082 
L 27.993912 28.409723 
L 27.583224 28.225365 
L 27.172537 28.041006 
L 26.761849 27.856648 
L 26.351161 27.672289 
L 25.940474 27.487931 
L 25.546259 27.301715 
L 25.152045 27.115499 
L 24.757831 26.929283 
L 24.363616 26.743067 
L 23.969402 26.556851 
L 23.575187 26.370635 
L 23.180973 26.184419 
L 22.786759 25.998203 
L 22.171719 25.463083 
L 21.55668 24.927964 
L 20.94164 24.392844 
L 20.326601 23.857725 
L 20.486674 23.136892 
L 20.646746 22.41606 
L 20.806819 21.695227 
L 20.966891 20.974395 
L 21.126964 20.253562 
L 21.287036 19.53273 
L 21.447109 18.811897 
L 21.607182 18.091065 
L 21.767254 17.370232 
L 21.927327 16.6494 
L 22.087399 15.928567 
L 22.247472 15.207735 
L 22.407544 14.486902 
L 22.567617 13.76607 
L 22.72769 13.045237 
L 22.887762 12.324405 
L 23.401918 12.352268 
L 23.916074 12.38013 
L 24.490833 12.347005 
L 25.065591 12.313879 
L 25.725 12.063114 
L 26.384408 11.81235 
L 27.101413 11.49425 
L 27.818418 11.17615 
L 28.535423 10.85805 
L 29.252428 10.539951 
L 29.636241 10.318674 
L 30.020055 10.097397 
L 30.403868 9.876121 
L 30.787682 9.654844 
L 31.171495 9.433568 
L 31.555308 9.212291 
L 31.939122 8.991014 
L 32.322935 8.769738 
L 32.746789 8.98877 
L 33.170644 9.207802 
L 33.594498 9.426834 
L 34.018352 9.645866 
L 34.42453 9.802826 
L 34.830709 9.959786 
L 35.290034 10.027586 
L 35.74936 10.095385 
L 36.310892 10.104054 
L 36.872423 10.112722 
L 37.621533 9.988268 
L 38.370642 9.863815 
L 38.165569 10.275642 
L 37.960496 10.687469 
L 37.755423 11.099295 
L 37.550349 11.511122 
L 37.345276 11.922949 
L 37.140203 12.334776 
L 36.93513 12.746603 
L 36.730056 13.15843 
L 36.668192 13.756395 
L 36.606327 14.354361 
L 36.544462 14.952326 
L 36.482598 15.550292 
L 36.420733 16.148257 
L 36.358868 16.746223 
L 36.297004 17.344188 
L 36.235139 17.942154 
L 36.112311 18.392756 
L 35.989484 18.843359 
L 35.866656 19.293961 
L 35.743829 19.744564 
L 35.621001 20.195167 
L 35.498174 20.645769 
L 35.375346 21.096372 
L 35.252519 21.546974 
L 35.097527 22.13124 
L 34.942534 22.715507 
L 34.787542 23.299773 
L 34.63255 23.884039 
L 34.477557 24.468306 
L 34.322565 25.052572 
L 34.167573 25.636838 
L 34.01258 26.221105 
L 33.795663 26.689818 
L 33.578746 27.158531 
L 33.361829 27.627245 
L 33.144912 28.095958 
z
" style="opacity:0.1;"/>
   </g>
   <g id="patch_3">
    <path clip-path="url(#p198abde808)" d="M 31.782326 29.522531 
L 31.782326 29.522531 
L 30.990651 29.481975 
L 30.198975 29.441419 
L 29.712475 29.202109 
L 29.225974 28.962799 
L 28.815287 28.77844 
L 28.404599 28.594082 
L 27.993912 28.409723 
L 27.583224 28.225365 
L 27.172537 28.041006 
L 26.761849 27.856648 
L 26.351161 27.672289 
L 25.940474 27.487931 
L 25.546259 27.301715 
L 25.152045 27.115499 
L 24.757831 26.929283 
L 24.363616 26.743067 
L 23.969402 26.556851 
L 23.575187 26.370635 
L 23.180973 26.184419 
L 22.786759 25.998203 
L 22.171719 25.463083 
L 21.55668 24.927964 
L 20.94164 24.392844 
L 20.326601 23.857725 
L 20.486674 23.136892 
L 20.646746 22.41606 
L 20.806819 21.695227 
L 20.966891 20.974395 
L 21.126964 20.253562 
L 21.287036 19.53273 
L 21.447109 18.811897 
L 21.607182 18.091065 
L 21.767254 17.370232 
L 21.927327 16.6494 
L 22.087399 15.928567 
L 22.247472 15.207735 
L 22.407544 14.486902 
L 22.567617 13.76607 
L 22.72769 13.045237 
L 22.887762 12.324405 
L 23.401918 12.352268 
L 23.916074 12.38013 
L 24.490833 12.347005 
L 25.065591 12.313879 
L 25.725 12.063114 
L 26.384408 11.81235 
L 27.101413 11.49425 
L 27.818418 11.17615 
L 28.535423 10.85805 
L 29.252428 10.539951 
L 29.636241 10.318674 
L 30.020055 10.097397 
L 30.403868 9.876121 
L 30.787682 9.654844 
L 31.171495 9.433568 
L 31.555308 9.212291 
L 31.939122 8.991014 
L 32.322935 8.769738 
L 32.746789 8.98877 
L 33.170644 9.207802 
L 33.594498 9.426834 
L 34.018352 9.645866 
L 34.42453 9.802826 
L 34.830709 9.959786 
L 35.290034 10.027586 
L 35.74936 10.095385 
L 36.310892 10.104054 
L 36.872423 10.112722 
L 37.621533 9.988268 
L 38.370642 9.863815 
L 38.165569 10.275642 
L 37.960496 10.687469 
L 37.755423 11.099295 
L 37.550349 11.511122 
L 37.345276 11.922949 
L 37.140203 12.334776 
L 36.93513 12.746603 
L 36.730056 13.15843 
L 36.668192 13.756395 
L 36.606327 14.354361 
L 36.544462 14.952326 
L 36.482598 15.550292 
L 36.420733 16.148257 
L 36.358868 16.746223 
L 36.297004 17.344188 
L 36.235139 17.942154 
L 36.112311 18.392756 
L 35.989484 18.843359 
L 35.866656 19.293961 
L 35.743829 19.744564 
L 35.621001 20.195167 
L 35.498174 20.645769 
L 35.375346 21.096372 
L 35.252519 21.546974 
L 35.097527 22.13124 
L 34.942534 22.715507 
L 34.787542 23.299773 
L 34.63255 23.884039 
L 34.477557 24.468306 
L 34.322565 25.052572 
L 34.167573 25.636838 
L 34.01258 26.221105 
L 33.795663 26.689818 
L 33.578746 27.158531 
L 33.361829 27.627245 
L 33.144912 28.095958 
z
" style="fill:none;stroke:#000000;stroke-linejoin:miter;stroke-width:0.455083;"/>
   </g>
   <g id="line2d_1">
    <path clip-path="url(#p198abde808)" d="M 76.736595 68.727273 
L 76.165204 67.366023 
L 75.593812 66.004773 
L 75.044786 64.60111 
L 74.49576 63.197446 
L 73.598271 60.901866 
L 72.700782 58.606285 
L 71.869908 56.480976 
L 71.039034 54.355668 
L 70.483033 52.933739 
L 69.927033 51.51181 
L 69.006939 49.158027 
L 68.086845 46.804244 
L 67.440663 45.151364 
L 66.79448 43.498484 
L 65.939317 41.310949 
L 65.104355 39.175424 
L 64.269392 37.0399 
L 63.720125 35.634998 
L 63.170858 34.230096 
L 62.621591 32.825195 
L 62.072325 31.420293 
L 61.477726 29.899142 
L 60.883128 28.377991 
L 60.28853 26.85684 
L 59.693932 25.335688 
L 58.734879 22.882528 
L 57.775827 20.429368 
L 57.036817 18.539036 
L 56.297808 16.648703 
L 55.78281 15.331414 
L 55.267813 14.014126 
L 54.752815 12.696837 
L 54.237817 11.379548 
L 53.30642 8.996664 
L 52.375023 6.61378 
L 51.539099 4.458442 
" style="fill:none;stroke:#808080;stroke-linecap:square;stroke-width:0.455083;"/>
   </g>
   <g id="line2d_2">
    <path clip-path="url(#p198abde808)" d="M 78.739832 68.080857 
L 78.349075 66.294236 
L 77.958317 64.507615 
L 77.56756 62.720993 
L 77.176802 60.934372 
L 76.786045 59.147751 
L 76.395287 57.36113 
L 76.00453 55.574508 
L 75.613773 53.787887 
L 75.223015 52.001266 
L 74.832258 50.214645 
L 74.4415 48.428023 
L 74.050743 46.641402 
L 73.659985 44.854781 
L 73.269228 43.06816 
L 72.87847 41.281538 
L 72.487713 39.494917 
" style="fill:none;stroke:#808080;stroke-linecap:square;stroke-width:0.455083;"/>
   </g>
   <g id="line2d_3">
    <path clip-path="url(#p198abde808)" d="M 66.91857 67.087705 
L 66.267098 65.560517 
L 65.615625 64.033329 
" style="fill:none;stroke:#808080;stroke-linecap:square;stroke-width:0.455083;"/>
   </g>
   <g id="line2d_4">
    <path clip-path="url(#p198abde808)" d="M 51.539099 4.458442 
L 51.073761 4.091892 
L 50.608423 3.725342 
L 50.108215 3.499035 
L 49.608007 3.272727 
L 49.165996 3.334644 
L 48.723986 3.396562 
L 48.248307 3.782925 
L 47.826016 4.06341 
L 47.403725 4.343895 
L 46.720268 4.320367 
L 46.120018 4.338942 
L 45.519769 4.357517 
L 44.919519 4.376092 
L 44.31927 4.394667 
L 43.853812 4.4377 
L 43.388354 4.480732 
L 42.922896 4.523765 
L 42.457438 4.566797 
L 41.866086 4.816323 
L 41.274734 5.06585 
L 40.980862 5.567689 
L 40.68699 6.069528 
L 40.576848 6.648454 
L 40.466706 7.22738 
L 40.365462 7.736958 
L 40.264218 8.246537 
L 39.965055 8.581509 
L 39.701484 8.886142 
L 39.376589 9.223281 
L 39.051695 9.56042 
" style="fill:none;stroke:#008000;stroke-linecap:square;stroke-width:0.455083;"/>
   </g>
   <g id="line2d_5">
    <path clip-path="url(#p198abde808)" d="M 52.296625 44.247683 
L 52.42817 44.811748 
L 52.559715 45.375814 
L 52.898558 45.920067 
L 53.237401 46.464319 
L 53.564941 46.873127 
L 53.892481 47.281936 
L 54.220021 47.690744 
L 54.547561 48.099553 
L 54.773617 48.460685 
L 54.999672 48.821817 
L 55.225728 49.182949 
L 55.451783 49.544081 
L 55.619641 49.948246 
L 55.7875 50.35241 
L 55.955358 50.756575 
L 56.123216 51.16074 
L 56.295644 51.705921 
L 56.468071 52.251102 
L 56.508713 52.917021 
L 56.549355 53.582941 
" style="fill:none;stroke:#008000;stroke-linecap:square;stroke-width:0.455083;"/>
   </g>
   <g id="line2d_6">
    <path clip-path="url(#p198abde808)" d="M 49.857149 9.014311 
L 49.1179 8.909051 
L 48.60675 9.001618 
L 48.095599 9.094184 
L 47.584449 9.18675 
L 47.073299 9.279316 
L 46.25998 9.225758 
L 45.446661 9.1722 
L 44.844729 9.108889 
L 44.242796 9.045579 
L 43.640863 8.982268 
L 43.03893 8.918958 
L 42.270461 8.834596 
L 41.501992 8.750234 
L 40.733524 8.665871 
L 39.965055 8.581509 
" style="fill:none;stroke:#008000;stroke-linecap:square;stroke-width:0.455083;"/>
   </g>
   <g id="line2d_7">
    <path clip-path="url(#p198abde808)" d="M 72.19817 43.541826 
L 72.226907 44.177097 
L 72.255645 44.812368 
L 72.284383 45.447638 
L 72.313121 46.082909 
L 72.341859 46.718179 
L 72.370597 47.35345 
L 72.399335 47.988721 
L 72.428073 48.623991 
L 72.696213 49.390217 
L 72.964354 50.156442 
L 73.232494 50.922668 
L 73.500634 51.688894 
L 73.596948 52.299862 
L 73.693262 52.91083 
L 73.789576 53.521798 
L 73.885891 54.132766 
L 73.832984 54.919115 
L 73.780077 55.705463 
L 73.6026 56.229283 
L 73.160108 56.827403 
L 73.383759 57.578459 
L 73.564723 57.979528 
L 73.745688 58.380597 
L 73.926653 58.781665 
L 74.107617 59.182734 
L 74.526301 59.686585 
L 74.944985 60.190437 
L 75.363669 60.694288 
L 75.782352 61.198139 
L 75.886963 61.843007 
L 75.991574 62.487875 
L 76.096185 63.132743 
L 76.200795 63.777611 
L 76.305286 64.258553 
L 76.409777 64.739494 
L 76.514267 65.220436 
L 76.618758 65.701378 
L 76.884493 66.323956 
L 77.150229 66.946534 
" style="fill:none;stroke:#008000;stroke-linecap:square;stroke-width:0.455083;"/>
   </g>
   <g id="line2d_8">
    <path clip-path="url(#p198abde808)" d="M 28.560313 31.089655 
L 28.212813 31.323857 
L 27.865313 31.558059 
L 27.517812 31.792261 
L 27.170312 32.026463 
L 26.849025 32.420256 
L 26.527737 32.81405 
L 26.356031 33.618354 
L 26.52437 34.39913 
L 27.0253 34.808868 
L 27.526229 35.218605 
L 28.027159 35.628342 
L 28.528088 36.038079 
L 29.238119 36.402462 
L 29.94815 36.766845 
L 30.658181 37.131228 
L 31.368211 37.49561 
L 31.805533 37.849622 
L 32.242854 38.203634 
L 32.680175 38.557645 
L 33.117496 38.911657 
L 33.658827 39.203132 
L 34.200158 39.494608 
L 34.741489 39.786083 
L 35.28282 40.077558 
L 35.688818 40.223296 
L 36.094816 40.369033 
L 36.500814 40.514771 
L 36.906812 40.660509 
L 37.312811 40.806246 
L 37.718809 40.951984 
L 38.124807 41.097722 
L 38.530805 41.243459 
L 38.947204 41.399568 
L 39.363603 41.555677 
L 39.780002 41.711786 
L 40.196401 41.867894 
L 40.612801 42.024003 
L 41.0292 42.180112 
L 41.445599 42.336221 
L 41.861998 42.49233 
L 42.444933 42.700526 
L 43.027867 42.908723 
L 43.610802 43.116919 
L 44.193737 43.325116 
L 44.558131 43.606143 
L 44.922525 43.88717 
L 45.28692 44.168196 
L 45.651314 44.449223 
L 46.015708 44.73025 
L 46.380103 45.011277 
L 46.744497 45.292303 
L 47.108891 45.57333 
L 47.62942 45.989723 
L 48.149949 46.406117 
L 48.670478 46.82251 
L 49.191007 47.238903 
L 49.711536 47.655297 
L 50.232065 48.07169 
L 50.752594 48.488083 
L 51.273123 48.904476 
L 51.730584 49.315297 
L 52.188046 49.726118 
L 52.645508 50.136939 
L 53.10297 50.547759 
L 53.560432 50.95858 
L 54.017894 51.369401 
L 54.475356 51.780221 
L 54.932817 52.191042 
L 55.336952 52.539017 
L 55.741086 52.886992 
L 56.145221 53.234966 
L 56.549355 53.582941 
L 57.104153 54.09964 
L 57.658951 54.616339 
L 58.213749 55.133039 
L 58.768547 55.649738 
L 59.282703 56.169068 
L 59.796859 56.688399 
L 60.311015 57.20773 
L 60.825171 57.72706 
L 61.343837 58.215742 
L 61.862502 58.704424 
L 62.381167 59.193105 
L 62.899832 59.681787 
L 63.418497 60.170468 
L 63.937162 60.65915 
L 64.455828 61.147832 
L 64.974493 61.636513 
" style="fill:none;stroke:#008000;stroke-linecap:square;stroke-width:0.455083;"/>
   </g>
   <g id="line2d_9">
    <path clip-path="url(#p198abde808)" d="M 39.051695 9.56042 
L 38.732331 10.275564 
L 38.519623 10.721833 
L 38.306914 11.168101 
L 38.094205 11.614369 
L 37.881497 12.060638 
L 37.537604 12.752872 
L 37.296398 13.391548 
L 37.055191 14.030224 
L 37.082486 14.473087 
L 37.109781 14.91595 
L 37.137076 15.358813 
L 37.164371 15.801676 
L 37.197799 16.453045 
L 37.231226 17.104414 
L 37.313472 17.51895 
L 37.395718 17.933485 
L 37.285816 18.559778 
L 37.175915 19.186071 
L 37.033788 19.622587 
L 36.891662 20.059103 
L 36.711779 20.782916 
L 36.531897 21.506728 
L 36.368728 22.050671 
L 36.205559 22.594613 
L 36.042391 23.138556 
L 35.879222 23.682499 
L 35.716053 24.226442 
L 35.552884 24.770384 
L 35.389715 25.314327 
L 35.226547 25.85827 
L 34.883375 26.531 
L 34.540203 27.203731 
L 34.197032 27.876461 
L 33.85386 28.549192 
L 33.434094 28.954595 
L 33.014329 29.359998 
L 32.594563 29.765401 
L 32.174797 30.170804 
L 31.702485 30.294948 
L 31.230173 30.419092 
L 30.757861 30.543236 
L 30.28555 30.66738 
L 29.854241 30.772949 
L 29.422931 30.878518 
L 28.991622 30.984086 
L 28.560313 31.089655 
" style="fill:none;stroke:#000000;stroke-linecap:square;stroke-width:0.455083;"/>
   </g>
   <g id="line2d_10">
    <path clip-path="url(#p198abde808)" d="M 60.343721 41.36296 
L 60.861485 41.949935 
L 61.379248 42.53691 
L 61.458007 42.997729 
L 61.536765 43.458548 
L 61.615524 43.919367 
L 61.694283 44.380185 
L 61.775206 44.951372 
L 61.856129 45.522558 
L 61.937052 46.093744 
L 62.017975 46.664931 
L 62.146634 47.460876 
L 62.275294 48.256822 
L 62.403953 49.052768 
L 62.532612 49.848714 
L 62.746764 50.538472 
L 62.960915 51.228229 
L 63.175067 51.917987 
L 63.389218 52.607745 
L 63.537778 53.097897 
L 63.686337 53.588049 
L 63.834896 54.078201 
L 63.983456 54.568354 
L 64.132015 55.058506 
L 64.280575 55.548658 
L 64.429134 56.03881 
L 64.577693 56.528962 
" style="fill:none;stroke:#008000;stroke-linecap:square;stroke-width:0.455083;"/>
   </g>
   <g id="line2d_11">
    <path clip-path="url(#p198abde808)" d="M 49.857149 9.014311 
L 50.354592 8.911373 
L 50.852034 8.808436 
L 51.349477 8.705499 
L 51.846919 8.602561 
L 52.302397 8.484299 
L 52.893508 8.327958 
L 53.484619 8.171617 
L 54.012964 8.044842 
L 54.541308 7.918066 
L 55.069653 7.791291 
L 55.597998 7.664515 
L 56.152074 7.771168 
L 56.706151 7.87782 
L 57.260228 7.984473 
L 57.814304 8.091125 
L 58.475036 8.368204 
L 59.135767 8.645284 
L 59.796498 8.922364 
L 60.45723 9.199443 
L 61.117961 9.561659 
L 61.778693 9.923875 
L 62.439424 10.28609 
L 63.100156 10.648306 
L 63.451804 11.010676 
L 63.803453 11.373047 
L 64.155102 11.735417 
L 64.50675 12.097788 
L 64.858399 12.460158 
L 65.210048 12.822529 
L 65.561696 13.184899 
L 65.913345 13.54727 
L 66.190503 14.165204 
L 66.467662 14.783138 
L 66.74482 15.401071 
L 67.021979 16.019005 
L 67.085827 16.701023 
L 67.149676 17.383041 
L 67.213525 18.06506 
L 67.277373 18.747078 
L 67.46928 19.450457 
L 67.661187 20.153837 
L 67.853094 20.857216 
L 68.045 21.560596 
L 68.490017 22.199891 
L 68.935034 22.839186 
L 69.380051 23.478482 
L 69.825067 24.117777 
L 70.108118 24.598409 
L 70.391168 25.079042 
L 70.674219 25.559674 
L 70.957269 26.040306 
L 71.098193 26.847707 
L 71.239117 27.655107 
L 71.380041 28.462508 
L 71.520965 29.269908 
L 71.526737 29.854562 
L 71.532508 30.439215 
L 71.53828 31.023868 
L 71.544051 31.608522 
L 71.60285 32.162681 
L 71.661648 32.71684 
L 71.720447 33.270999 
L 71.779245 33.825158 
L 71.930149 34.225143 
L 72.081054 34.625128 
L 72.231958 35.025113 
L 72.382862 35.425099 
L 72.479296 35.834371 
L 72.57573 36.243644 
L 72.672165 36.652917 
L 72.768599 37.06219 
L 73.009565 37.655357 
L 73.25534 38.067725 
L 73.626167 38.686278 
L 73.906332 39.011189 
L 74.186496 39.3361 
L 74.466661 39.66101 
L 74.746825 39.985921 
L 75.080738 40.579088 
L 75.414651 41.172255 
L 75.748564 41.765421 
L 76.082477 42.358588 
L 76.309254 42.726222 
L 76.536031 43.093855 
L 76.762808 43.461489 
L 76.989585 43.829122 
" style="fill:none;stroke:#008000;stroke-linecap:square;stroke-width:0.455083;"/>
   </g>
   <g id="line2d_12">
    <path clip-path="url(#p198abde808)" d="M 33.260344 7.494243 
L 32.788754 7.910946 
L 32.317164 8.327649 
L 32.023291 8.587701 
L 31.391899 8.958121 
L 30.760507 9.32854 
L 30.129114 9.69896 
L 29.497722 10.06938 
L 29.071643 10.268057 
L 28.645565 10.466734 
L 28.219486 10.665411 
L 27.793408 10.864087 
L 27.367329 11.062764 
L 26.94125 11.261441 
L 26.515172 11.460118 
L 26.089093 11.658795 
L 25.563634 11.825971 
L 25.038175 11.993148 
L 24.574641 12.019927 
L 24.111107 12.046706 
L 23.647573 12.073485 
L 23.184039 12.100265 
L 22.566835 12.05909 
L 21.949632 12.017915 
L 21.332428 11.97674 
L 20.715224 11.935565 
L 20.173893 11.938506 
L 19.632562 11.941447 
L 19.091232 11.944388 
L 18.549901 11.947329 
L 17.931374 11.869933 
L 17.312848 11.792536 
L 16.694321 11.71514 
L 16.075795 11.637743 
L 15.402919 11.62536 
L 14.730043 11.612976 
L 14.057167 11.600593 
L 13.384291 11.588209 
L 12.821557 11.613595 
L 12.258823 11.638981 
L 11.696089 11.664367 
L 11.133355 11.689753 
L 10.570621 11.71514 
L 10.007887 11.740526 
L 9.445153 11.765912 
L 8.882419 11.791298 
L 8.07391 11.840212 
L 7.265401 11.889127 
L 6.556452 12.033084 
L 5.847504 12.177042 
L 5.366053 12.386322 
L 4.884603 12.595602 
L 4.676343 13.220347 
L 4.468084 13.845092 
L 4.509808 14.323867 
L 4.551532 14.802641 
L 4.593256 15.281416 
L 4.63498 15.760191 
L 4.930776 16.240669 
L 5.301123 16.843123 
L 5.884057 17.301001 
L 6.466992 17.758879 
L 7.112453 18.112891 
L 7.757913 18.466902 
L 8.403374 18.820914 
L 9.048835 19.174926 
L 9.756701 19.445504 
L 10.464568 19.716082 
L 11.172434 19.98666 
L 11.8803 20.257239 
L 12.546563 20.715271 
L 13.212826 21.173304 
L 13.879088 21.631336 
L 14.545351 22.089369 
L 15.107484 22.422484 
L 15.669617 22.755598 
L 16.231749 23.088713 
L 16.793882 23.421827 
L 17.495977 23.589313 
L 18.198072 23.756799 
L 18.900167 23.924286 
L 19.602261 24.091772 
L 19.969541 24.424422 
L 20.336822 24.757072 
L 20.704102 25.089722 
L 21.071382 25.422373 
L 21.438662 25.755023 
L 21.805942 26.087673 
L 22.173222 26.420323 
L 22.540502 26.752974 
L 22.99093 26.921001 
L 23.441358 27.089029 
L 23.891785 27.257057 
L 24.342213 27.425085 
L 24.792641 27.593113 
L 25.243068 27.761141 
L 25.693496 27.929168 
L 26.143924 28.097196 
L 26.619242 28.280626 
L 27.094559 28.464056 
L 27.569877 28.647486 
L 28.045195 28.830915 
L 28.362635 29.164959 
L 28.680074 29.499002 
L 28.953265 30.167708 
L 28.756789 30.628682 
L 28.560313 31.089655 
" style="fill:none;stroke:#008000;stroke-linecap:square;stroke-width:0.455083;"/>
   </g>
   <g id="line2d_13">
    <path clip-path="url(#p198abde808)" d="M 52.302397 8.484299 
L 52.223999 9.218018 
L 52.145601 9.951737 
L 52.287968 10.445217 
L 52.430335 10.938698 
L 52.572701 11.432178 
L 52.715068 11.925658 
L 52.903849 12.608605 
L 53.092629 13.291552 
L 53.083371 13.781472 
L 53.074112 14.271392 
L 53.064853 14.761312 
L 53.055595 15.251232 
L 53.159724 15.755238 
L 53.263854 16.259244 
L 53.367984 16.76325 
L 53.472114 17.267256 
L 53.571194 17.721729 
L 53.670273 18.176201 
L 53.769353 18.630673 
L 53.868433 19.085146 
L 54.044948 19.539463 
L 54.221464 19.993781 
L 54.39798 20.448098 
L 54.574495 20.902416 
L 54.737063 21.515706 
L 54.899631 22.128996 
L 55.062198 22.742286 
L 55.224766 23.355576 
L 55.432304 23.971033 
L 55.639842 24.58649 
L 55.836799 25.21139 
L 56.033756 25.836289 
L 56.230713 26.461189 
L 56.42767 27.086088 
L 56.564265 27.617647 
L 56.70086 28.149207 
L 56.837456 28.680766 
L 56.974051 29.212325 
L 57.144434 29.874685 
L 57.314818 30.537044 
L 57.485201 31.199404 
L 57.655584 31.861763 
L 57.743 32.354934 
L 57.830417 32.848104 
L 57.917833 33.341275 
L 58.005249 33.834445 
L 58.137876 34.300992 
L 58.270503 34.767538 
L 58.403131 35.234084 
L 58.535758 35.70063 
L 58.758567 36.248133 
L 58.981376 36.795636 
L 59.204185 37.343139 
L 59.426994 37.890642 
L 59.58367 38.545726 
L 59.740345 39.20081 
L 59.897021 39.855895 
L 60.053697 40.510979 
L 60.198709 40.936969 
L 60.343721 41.36296 
" style="fill:none;stroke:#4169e1;stroke-linecap:square;stroke-width:0.455083;"/>
   </g>
   <g id="line2d_14">
    <path clip-path="url(#p198abde808)" d="M 73.160108 56.827403 
L 72.827037 57.153397 
L 72.493966 57.479391 
L 72.151275 58.235401 
L 71.808585 58.99141 
L 71.705777 59.487676 
L 71.60297 59.983943 
L 71.500163 60.480209 
L 71.397356 60.976476 
L 71.186571 61.580014 
L 70.975786 62.183552 
L 70.765002 62.78709 
L 70.554217 63.390628 
L 70.118218 63.837361 
L 69.68222 64.284093 
" style="fill:none;stroke:#008000;stroke-linecap:square;stroke-width:0.455083;"/>
   </g>
   <g id="line2d_15">
    <path clip-path="url(#p198abde808)" d="M 67.530844 39.598319 
L 67.688121 40.273836 
L 67.77662 40.787439 
L 67.865118 41.301042 
L 67.8264 41.941266 
L 67.787682 42.58149 
L 67.783533 43.345084 
L 67.779385 44.108678 
L 67.775237 44.872273 
L 67.771088 45.635867 
L 67.76694 46.399461 
L 67.762792 47.163055 
L 67.758643 47.926649 
L 67.754495 48.690243 
L 67.584292 49.337587 
L 67.414089 49.984932 
L 67.243886 50.632276 
L 67.073683 51.279621 
L 66.90348 51.926965 
L 66.733277 52.57431 
L 66.563074 53.221654 
L 66.392871 53.868999 
L 66.177156 54.487397 
L 65.961442 55.105795 
L 65.745727 55.724193 
L 65.530012 56.342591 
L 65.380431 56.95681 
L 65.333296 57.448278 
L 65.286161 57.939746 
L 65.239026 58.431214 
L 65.191891 58.922682 
L 65.258385 59.346815 
L 65.324879 59.770948 
L 65.391373 60.195081 
L 65.457867 60.619213 
" style="fill:none;stroke:#4169e1;stroke-linecap:square;stroke-width:0.455083;"/>
   </g>
   <g id="line2d_16">
    <path clip-path="url(#p198abde808)" d="M 75.252805 44.056978 
L 75.269158 44.652931 
L 75.285511 45.248884 
L 75.391084 45.865115 
L 75.496657 46.481346 
L 75.602229 47.097577 
L 75.707802 47.713808 
L 75.848726 48.324312 
L 75.98965 48.934816 
L 76.253822 49.691909 
L 76.517995 50.449001 
L 76.782167 51.206094 
L 77.046339 51.963187 
L 77.17548 52.573381 
L 77.30462 53.183575 
L 77.331013 53.802747 
L 77.357406 54.421919 
L 77.383799 55.041092 
L 77.410193 55.660264 
L 77.436586 56.279436 
L 77.462979 56.898608 
L 77.489372 57.51778 
L 77.515765 58.136952 
L 77.62729 58.712086 
L 77.738815 59.287219 
L 77.85034 59.862353 
L 77.961864 60.437486 
L 78.073389 61.01262 
L 78.184914 61.587753 
L 78.296438 62.162887 
L 78.407963 62.738021 
L 78.419747 63.359979 
L 78.431531 63.981937 
L 78.365397 64.571699 
L 78.299264 65.16146 
L 78.233131 65.751222 
L 78.166998 66.340983 
" style="fill:none;stroke:#4169e1;stroke-dasharray:1.683806,0.728132;stroke-dashoffset:0;stroke-width:0.455083;"/>
   </g>
   <g id="line2d_17">
    <path clip-path="url(#p198abde808)" d="M 76.989585 43.829122 
L 77.025056 44.267187 
L 77.060528 44.705251 
L 77.095999 45.143315 
L 77.131471 45.581379 
L 77.166942 46.019444 
L 77.202414 46.457508 
L 77.237885 46.895572 
L 77.273357 47.333637 
L 77.588873 48.092432 
L 77.904388 48.851228 
L 78.219904 49.610023 
L 78.53542 50.368818 
L 78.661915 50.898365 
L 78.78841 51.427912 
L 78.914905 51.957459 
L 79.0414 52.487006 
L 79.143666 53.192785 
L 79.245932 53.898564 
L 79.348198 54.604343 
L 79.450464 55.310122 
L 79.55273 56.015901 
L 79.654996 56.72168 
L 79.757262 57.427458 
L 79.859528 58.133237 
L 79.862474 58.611548 
L 79.86542 59.089858 
L 79.868366 59.568169 
L 79.871312 60.046479 
L 79.874258 60.52479 
L 79.877204 61.0031 
L 79.88015 61.481411 
L 79.883096 61.959721 
L 79.792133 62.455601 
L 79.701169 62.95148 
L 79.610206 63.44736 
L 79.519243 63.943239 
L 79.428279 64.439119 
L 79.337316 64.934998 
L 79.246353 65.430878 
L 79.155389 65.926757 
" style="fill:none;stroke:#008000;stroke-linecap:square;stroke-width:0.455083;"/>
   </g>
   <g id="line2d_18">
    <path clip-path="url(#p198abde808)" d="M 51.539099 4.458442 
L 51.309676 5.033653 
L 51.080254 5.608864 
L 50.702573 6.106833 
L 50.324892 6.604802 
L 49.947211 7.102771 
L 49.56953 7.600741 
L 49.370408 7.98277 
L 49.244154 8.445911 
L 49.1179 8.909051 
L 48.882225 9.258419 
L 48.64655 9.607787 
L 48.410875 9.957155 
L 48.1752 10.306523 
L 47.926178 10.767187 
L 47.677156 11.227851 
L 47.428134 11.688515 
L 47.179113 12.149179 
L 47.054542 12.564334 
L 46.929971 12.979489 
L 46.900872 13.42359 
L 46.871773 13.867692 
L 46.842675 14.311793 
L 46.813576 14.755894 
L 46.693334 15.179253 
L 46.573091 15.602612 
L 46.452849 16.025971 
L 46.332607 16.44933 
L 46.174849 17.217103 
L 46.017091 17.984877 
L 45.859333 18.75265 
L 45.701575 19.520424 
L 45.670432 19.962358 
L 45.63929 20.404292 
L 45.608147 20.846226 
L 45.577004 21.28816 
L 45.545861 21.730094 
L 45.514719 22.172028 
L 45.483576 22.613963 
L 45.452433 23.055897 
L 45.469027 23.520895 
L 45.48562 23.985893 
L 45.552054 24.436186 
L 45.618488 24.886479 
L 45.684922 25.336772 
L 45.751355 25.787065 
L 45.817789 26.237358 
L 45.884223 26.687651 
L 45.950657 27.137944 
L 46.017091 27.588237 
L 46.212124 28.181713 
L 46.407157 28.77519 
L 46.60219 29.368666 
L 46.797223 29.962143 
L 46.905201 30.609487 
L 47.013178 31.256832 
L 47.021475 31.83777 
L 47.029772 32.418708 
L 47.038068 32.999647 
L 47.046365 33.580585 
L 46.963278 33.991406 
L 46.88019 34.402226 
L 46.797103 34.813047 
L 46.714015 35.223868 
L 46.776301 35.867188 
L 46.838586 36.510507 
L 46.900872 37.153827 
L 46.963157 37.797147 
L 47.154102 38.220351 
L 47.345047 38.643555 
L 47.577475 39.029609 
L 47.809904 39.415663 
L 48.042332 39.801717 
L 48.274761 40.187771 
L 48.702222 40.706482 
L 49.129683 41.225194 
L 49.557145 41.743905 
L 49.984606 42.262617 
L 50.275112 42.590468 
L 50.565617 42.91832 
L 50.856122 43.246172 
L 51.146628 43.574023 
L 51.721626 43.910853 
L 52.296625 44.247683 
" style="fill:none;stroke:#000000;stroke-linecap:square;stroke-width:0.455083;"/>
   </g>
   <g id="line2d_19">
    <path clip-path="url(#p198abde808)" d="M 51.539099 4.458442 
L 52.027763 5.111669 
L 52.476027 6.340106 
L 53.057037 6.98776 
L 53.83717 7.369789 
L 55.597998 7.664515 
L 56.161213 7.436041 
L 57.887892 6.057764 
L 59.049914 5.460262 
L 60.477912 5.514595 
L 62.121383 5.77604 
L 63.084284 6.655884 
L 65.092811 9.394792 
L 65.391493 9.71026 
L 66.537162 9.793229 
L 66.935404 9.676825 
L 67.915259 8.838621 
L 70.994544 5.593075 
L 71.467577 5.17792 
L 72.281377 4.862761 
L 73.211091 4.94573 
L 74.5554 5.559949 
L 76.543486 7.083113 
L 78.788891 8.398853 
L 81.47823 9.403151 
L 82.075834 9.693542 
L 83.404031 11.810492 
L 84.11791 13.005804 
L 85.280051 14.77385 
L 86.367523 18.035649 
L 86.90705 19.060688 
L 87.853237 21.015724 
L 88.791367 21.945102 
L 89.131653 22.194009 
L 91.634136 23.410218 
L 93.016441 24.319008 
L 93.497892 25.032913 
L 93.82976 26.310885 
L 92.850026 29.913228 
L 92.86674 31.668736 
L 93.024618 33.673461 
L 92.929025 34.877054 
L 91.294572 43.709932 
L 91.249841 44.342416 
L 92.053541 46.181357 
L 92.053541 46.181357 
" style="fill:none;stroke:#4169e1;stroke-linecap:square;stroke-width:0.455083;"/>
   </g>
   <g id="line2d_20">
    <path clip-path="url(#p198abde808)" d="M 53.484619 8.171617 
L 53.872641 8.463557 
L 54.260663 8.755497 
L 54.648685 9.047436 
L 55.036707 9.339376 
L 55.741026 9.732628 
L 56.445345 10.125879 
L 57.149665 10.519131 
L 57.853984 10.912383 
L 58.558303 11.305635 
L 59.262623 11.698886 
L 59.966942 12.092138 
L 60.671261 12.48539 
L 61.158483 12.872682 
L 61.645705 13.259974 
L 62.132927 13.647266 
L 62.620149 14.034558 
L 62.878309 14.410241 
L 63.136469 14.785924 
L 63.394629 15.161607 
L 63.652789 15.537289 
L 63.799545 16.008286 
L 63.946301 16.479282 
L 64.093057 16.950279 
L 64.239812 17.421275 
L 64.386568 17.892272 
L 64.533324 18.363268 
L 64.68008 18.834265 
L 64.826835 19.305261 
L 64.973591 19.776258 
L 65.120347 20.247254 
L 65.267103 20.718251 
L 65.413858 21.189247 
L 65.560614 21.660244 
L 65.70737 22.13124 
L 65.854125 22.602237 
L 66.000881 23.073233 
L 66.306056 23.63668 
L 66.611231 24.200127 
L 66.916406 24.763573 
L 67.221581 25.32702 
L 67.526756 25.890467 
L 67.831931 26.453913 
L 68.137106 27.01736 
L 68.442281 27.580807 
L 68.442281 28.203075 
L 68.442281 28.825343 
L 68.371578 29.375942 
L 68.300876 29.92654 
L 68.230174 30.477139 
L 68.159471 31.027738 
L 68.041153 31.603568 
L 67.922834 32.179398 
L 67.930289 32.729223 
L 67.937744 33.279048 
L 68.126645 33.775005 
L 68.315546 34.270962 
L 68.504446 34.766919 
L 68.693347 35.262876 
L 68.975856 35.795751 
L 69.258365 36.328626 
L 69.540875 36.861501 
L 69.823384 37.394376 
L 70.105893 37.927251 
L 70.388403 38.460126 
L 70.670912 38.993001 
L 70.953421 39.525876 
L 71.159156 39.949544 
L 71.36489 40.373213 
L 71.570625 40.796881 
L 71.77636 41.22055 
L 71.881812 41.800869 
L 71.987265 42.381188 
L 72.092717 42.961507 
L 72.19817 43.541826 
" style="fill:none;stroke:#4169e1;stroke-linecap:square;stroke-width:0.455083;"/>
   </g>
   <g id="line2d_21">
    <path clip-path="url(#p198abde808)" d="M 53.484619 8.171617 
L 53.475481 8.780264 
L 53.581053 9.208731 
L 53.686626 9.637198 
L 53.792199 10.065665 
L 53.897772 10.494132 
L 54.179499 11.201381 
L 54.461227 11.908631 
L 54.742955 12.61588 
L 55.024683 13.32313 
L 55.30641 14.030379 
L 55.588138 14.737628 
L 55.869866 15.444878 
L 56.151593 16.152127 
L 56.406928 16.730202 
L 56.662263 17.308276 
L 56.917597 17.886351 
L 57.172932 18.464426 
L 57.428266 19.0425 
L 57.683601 19.620575 
L 57.938935 20.198649 
L 58.19427 20.776724 
L 58.367419 21.296209 
L 58.540568 21.815695 
L 58.713716 22.33518 
L 58.886865 22.854666 
L 59.060014 23.374151 
L 59.233163 23.893637 
L 59.406312 24.413122 
L 59.579461 24.932607 
L 59.770226 25.343428 
L 59.96099 25.754249 
L 60.151754 26.16507 
L 60.342519 26.57589 
L 60.533283 26.986711 
L 60.724048 27.397532 
L 60.914812 27.808352 
L 61.105576 28.219173 
L 61.523058 28.755067 
L 61.940539 29.29096 
L 61.969157 29.893724 
L 61.997774 30.496488 
L 62.176815 30.951348 
L 62.355856 31.406207 
L 62.534897 31.861066 
L 62.713938 32.315926 
L 62.892978 32.770785 
L 63.072019 33.225644 
L 63.25106 33.680504 
L 63.430101 34.135363 
L 63.600244 34.851281 
L 63.770386 35.567199 
L 63.940529 36.283116 
L 64.110672 36.999034 
L 64.316166 37.550717 
L 64.52166 38.102399 
L 64.727154 38.654081 
L 64.932649 39.205764 
L 65.202472 39.628039 
L 65.472296 40.050315 
" style="fill:none;stroke:#4169e1;stroke-linecap:square;stroke-width:0.455083;"/>
   </g>
   <g id="line2d_22">
    <path clip-path="url(#p198abde808)" d="M 55.036707 9.339376 
L 55.164645 9.891523 
L 55.292582 10.44367 
L 55.42052 10.995816 
L 55.548458 11.547963 
L 55.814194 12.153823 
L 56.079929 12.759683 
L 56.420215 13.324058 
L 56.7605 13.888434 
L 57.10289 14.255758 
L 57.44528 14.623082 
L 57.78767 14.990405 
L 58.13006 15.357729 
L 58.47245 15.725053 
L 58.81484 16.092377 
L 59.15723 16.459701 
L 59.49962 16.827025 
L 59.716658 17.422514 
L 59.933695 18.018002 
L 60.150732 18.613491 
L 60.36777 19.20898 
L 60.584807 19.804469 
L 60.801844 20.399958 
L 61.018882 20.995447 
L 61.235919 21.590935 
L 61.400411 22.177601 
L 61.564902 22.764267 
L 61.550232 23.225008 
L 61.535563 23.685749 
L 61.520893 24.146491 
L 61.506224 24.607232 
L 61.491554 25.067974 
L 61.476885 25.528715 
L 61.462215 25.989457 
L 61.447546 26.450198 
L 61.570794 27.160389 
L 61.694042 27.870579 
L 61.817291 28.58077 
L 61.940539 29.29096 
L 62.198699 29.824996 
L 62.456859 30.359032 
L 62.71502 30.893068 
L 62.97318 31.427104 
L 63.222653 31.815944 
L 63.472125 32.204784 
L 63.721598 32.593624 
L 63.971071 32.982465 
L 64.220544 33.371305 
L 64.470016 33.760145 
L 64.719489 34.148985 
L 64.968962 34.537825 
L 65.218434 34.926665 
L 65.467907 35.315505 
L 65.71738 35.704345 
L 65.966853 36.093185 
L 66.216325 36.482026 
L 66.465798 36.870866 
L 66.715271 37.259706 
L 66.964743 37.648546 
L 67.106269 38.135989 
L 67.247794 38.623432 
L 67.389319 39.110876 
L 67.530844 39.598319 
" style="fill:none;stroke:#4169e1;stroke-linecap:square;stroke-width:0.455083;"/>
   </g>
   <g id="line2d_23">
    <path clip-path="url(#p198abde808)" d="M 60.343721 41.36296 
L 60.395786 41.83353 
L 60.447851 42.304101 
L 60.499916 42.774672 
L 60.551981 43.245243 
L 60.510858 43.858533 
L 60.469735 44.471823 
L 60.428612 45.085113 
L 60.387489 45.698403 
L 60.346367 46.311693 
L 60.305244 46.924983 
L 60.264121 47.538273 
L 60.222998 48.151563 
L 60.246565 48.738538 
L 60.35809 49.166928 
L 60.469615 49.595318 
L 60.58114 50.023707 
L 60.692664 50.452097 
L 60.804189 50.880487 
L 60.915714 51.308877 
L 61.027239 51.737266 
L 61.138763 52.165656 
L 61.033191 52.752631 
L 60.927618 53.339606 
L 60.822045 53.926582 
L 60.716472 54.513557 
L 60.716472 55.123441 
L 60.87904 55.653917 
L 61.041608 56.184393 
L 61.204175 56.714869 
L 61.366743 57.245344 
" style="fill:none;stroke:#008000;stroke-linecap:square;stroke-width:0.455083;"/>
   </g>
   <g id="line2d_24">
    <path clip-path="url(#p198abde808)" d="M 65.472296 40.050315 
L 65.838795 40.310677 
L 66.205293 40.571038 
L 66.620249 40.753539 
L 67.035205 40.93604 
L 67.450162 41.118541 
L 67.865118 41.301042 
L 68.554106 41.682917 
L 69.243095 42.064791 
L 69.932083 42.446666 
L 70.621072 42.82854 
L 71.015346 43.006862 
L 71.409621 43.185183 
L 71.803895 43.363505 
L 72.19817 43.541826 
L 72.613246 43.674639 
L 73.028322 43.807451 
L 73.526126 43.939335 
L 74.323092 44.073076 
L 74.787948 44.065027 
L 75.252805 44.056978 
L 75.742672 44.023542 
L 76.232539 43.990107 
L 76.989585 43.829122 
L 77.532359 43.726959 
L 78.075133 43.624795 
L 78.772297 43.600029 
L 79.469462 43.575262 
L 80.052577 43.612644 
L 80.635692 43.650027 
L 81.218807 43.687409 
L 81.801923 43.724792 
L 82.385038 43.762174 
L 82.968153 43.799557 
L 83.551268 43.836939 
L 84.134383 43.874322 
L 84.557756 43.973854 
L 84.981129 44.073386 
L 85.404502 44.172918 
L 85.827875 44.27245 
L 86.230447 44.442567 
L 86.633018 44.612685 
L 87.035589 44.782802 
L 87.43816 44.95292 
L 88.114644 45.056631 
L 88.791127 45.160342 
L 89.46761 45.264054 
L 90.144093 45.367765 
L 90.550993 45.475811 
L 90.957893 45.583856 
L 91.505717 45.882607 
L 92.053541 46.181357 
L 92.235828 46.61292 
L 92.310619 47.02792 
L 92.38541 47.44292 
L 92.4602 47.857921 
L 92.534991 48.272921 
L 92.417875 49.038218 
L 92.300759 49.803514 
L 92.09779 50.247151 
L 91.894821 50.690788 
L 91.691852 51.134425 
L 91.488883 51.578062 
L 91.173488 52.162715 
L 90.858092 52.747368 
L 90.542696 53.332022 
L 90.227301 53.916675 
L 89.961686 54.385698 
L 89.69607 54.854721 
L 89.430455 55.323744 
L 89.16484 55.792767 
L 88.857741 56.211791 
L 88.550642 56.630816 
L 88.243543 57.049841 
L 87.936444 57.468866 
L 87.504775 58.112185 
L 87.073105 58.755505 
L 86.641435 59.398825 
L 86.209765 60.042145 
L 85.712443 60.652958 
L 85.215121 61.263772 
" style="fill:none;stroke:#008000;stroke-linecap:square;stroke-width:0.455083;"/>
   </g>
   <g id="line2d_25">
    <path clip-path="url(#p198abde808)" d="M 84.331099 62.40181 
L 83.846763 63.056894 
L 83.516097 63.435982 
L 83.18543 63.81507 
L 82.854764 64.194159 
L 82.524098 64.573247 
L 82.150144 64.890186 
L 81.776191 65.207124 
L 81.402237 65.524063 
L 81.028284 65.841002 
L 80.65433 66.15794 
L 80.280376 66.474879 
L 79.906423 66.791818 
L 79.532469 67.108757 
" style="fill:none;stroke:#008000;stroke-linecap:square;stroke-width:0.455083;"/>
   </g>
   <g id="line2d_26">
    <path clip-path="url(#p198abde808)" d="M 85.215121 61.263772 
L 84.77311 61.832791 
L 84.331099 62.40181 
" style="fill:none;stroke:#008000;stroke-linecap:square;stroke-width:0.455083;"/>
   </g>
   <g id="line2d_27">
    <path clip-path="url(#p198abde808)" d="M 42.457438 4.566797 
L 41.876908 4.486305 
L 41.296378 4.405812 
L 40.509512 4.374235 
L 39.722647 4.342657 
L 38.935781 4.311079 
L 38.148915 4.279501 
L 37.480849 4.263403 
L 36.812783 4.247304 
L 36.244277 4.489091 
L 35.675772 4.730878 
L 35.373843 5.076298 
L 35.071915 5.421719 
L 34.769986 5.76714 
L 34.468058 6.11256 
L 34.16613 6.457981 
L 33.864201 6.803402 
L 33.562273 7.148822 
L 33.260344 7.494243 
" style="fill:none;stroke:#008000;stroke-linecap:square;stroke-width:0.455083;"/>
   </g>
   <g id="line2d_28">
    <path clip-path="url(#p198abde808)" d="M 64.706112 64.403594 
L 65.026197 65.141956 
L 65.346282 65.880319 
L 65.666367 66.618682 
L 65.986452 67.357045 
" style="fill:none;stroke:#008000;stroke-linecap:square;stroke-width:0.455083;"/>
   </g>
   <g id="line2d_29">
    <path clip-path="url(#p198abde808)" d="M 39.051695 9.56042 
L 38.465874 9.574661 
L 37.880054 9.588902 
L 37.146095 9.8149 
L 36.666087 9.857313 
L 36.18608 9.899727 
L 35.36747 9.800659 
L 34.894437 9.666608 
L 34.421404 9.532558 
L 34.012099 9.356094 
L 33.602794 9.17963 
L 33.09441 8.826701 
L 32.705787 8.577175 
L 32.317164 8.327649 
" style="fill:none;stroke:#008000;stroke-linecap:square;stroke-width:0.455083;"/>
   </g>
   <g id="line2d_30">
    <path clip-path="url(#p198abde808)" d="M 72.261658 38.87203 
L 71.684254 39.035027 
L 71.10685 39.198024 
L 70.529447 39.361021 
L 69.952043 39.524018 
L 69.532879 39.617049 
L 69.113714 39.71008 
L 68.694549 39.80311 
L 68.275385 39.896141 
L 67.749204 39.980039 
L 67.223024 40.063936 
L 66.696844 40.147834 
L 66.170663 40.231732 
L 65.700275 40.222444 
L 65.229888 40.213157 
L 64.7595 40.203869 
L 64.289112 40.194582 
L 63.814155 40.255106 
L 63.339197 40.31563 
L 62.86424 40.376154 
L 62.389283 40.436678 
L 61.974808 40.534352 
L 61.560333 40.632027 
L 61.145858 40.729701 
L 60.731382 40.827376 
L 60.284321 40.929849 
L 59.837261 41.032322 
L 59.3902 41.134795 
L 58.943139 41.237268 
L 58.202687 41.279217 
L 57.462235 41.321165 
L 56.721782 41.363114 
L 55.98133 41.405063 
L 55.566855 41.554129 
L 55.15238 41.703195 
L 54.737905 41.85226 
L 54.323429 42.001326 
L 53.773922 42.308435 
L 53.224415 42.615545 
L 52.814629 43.155773 
L 52.404843 43.696 
L 52.296625 44.247683 
" style="fill:none;stroke:#008000;stroke-linecap:square;stroke-width:0.455083;"/>
   </g>
   <g id="line2d_31">
    <path clip-path="url(#p198abde808)" d="M 67.674654 56.723382 
L 67.646277 57.40037 
L 67.6179 58.077357 
L 67.589523 58.754344 
L 67.561145 59.431332 
L 67.532768 60.108319 
L 67.504391 60.785306 
L 67.476014 61.462294 
L 67.447637 62.139281 
" style="fill:none;stroke:#008000;stroke-linecap:square;stroke-width:0.455083;"/>
   </g>
  </g>
 </g>
 <defs>
  <clipPath id="p198abde808">
   <rect height="72" width="98.297844" x="0" y="0"/>
  </clipPath>
 </defs>
</svg>
