<?xml version="1.0" encoding="utf-8" standalone="no"?>
<!DOCTYPE svg PUBLIC "-//W3C//DTD SVG 1.1//EN"
  "http://www.w3.org/Graphics/SVG/1.1/DTD/svg11.dtd">
<svg height="72pt" version="1.1" viewBox="0 0 53.088131 72" width="53.088131pt" xmlns="http://www.w3.org/2000/svg" xmlns:xlink="http://www.w3.org/1999/xlink">
 <metadata>
  <rdf:RDF xmlns:cc="http://creativecommons.org/ns#" xmlns:dc="http://purl.org/dc/elements/1.1/" xmlns:rdf="http://www.w3.org/1999/02/22-rdf-syntax-ns#">
   <cc:Work>
    <dc:type rdf:resource="http://purl.org/dc/dcmitype/StillImage"/>
    <dc:date>2022-04-19T00:56:24.920653</dc:date>
    <dc:format>image/svg+xml</dc:format>
    <dc:creator>
     <cc:Agent>
      <dc:title>Matplotlib v3.4.3, https://matplotlib.org/</dc:title>
     </cc:Agent>
    </dc:creator>
   </cc:Work>
  </rdf:RDF>
 </metadata>
 <defs>
  <style type="text/css">*{stroke-linecap:butt;stroke-linejoin:round;}</style>
 </defs>
 <g id="figure_1">
  <g id="patch_1">
   <path d="M 0 72 
L 53.088131 72 
L 53.088131 0 
L 0 0 
z
" style="fill:#ffffff;"/>
  </g>
  <g id="axes_1">
   <g id="line2d_1">
    <path clip-path="url(#pd4238ca195)" d="M 12.282297 53.277606 
L 13.274519 50.240111 
L 14.26674 47.202616 
L 15.258962 44.165122 
L 16.251183 41.127627 
L 17.243405 38.090133 
L 18.235626 35.052638 
L 19.227848 32.015143 
L 20.220069 28.977649 
L 21.212291 25.940154 
L 22.204512 22.90266 
L 23.196734 19.865165 
L 24.188955 16.827671 
L 25.181177 13.790176 
L 26.173399 10.752681 
L 27.16562 7.715187 
L 28.157842 4.677692 
" style="fill:none;stroke:#808080;stroke-linecap:square;stroke-width:0.4;"/>
   </g>
   <g id="line2d_2">
    <path clip-path="url(#pd4238ca195)" d="M 23.171326 61.3005 
L 24.306865 58.488715 
L 25.442404 55.67693 
L 26.577943 52.865145 
L 27.713481 50.05336 
L 28.84902 47.241575 
L 29.984559 44.42979 
L 31.120098 41.618005 
L 32.255636 38.80622 
L 33.391175 35.994435 
L 34.526714 33.18265 
L 35.662253 30.370865 
L 36.797791 27.55908 
L 37.93333 24.747295 
L 39.068869 21.93551 
L 40.204408 19.123725 
L 41.339946 16.31194 
" style="fill:none;stroke:#808080;stroke-linecap:square;stroke-width:0.4;"/>
   </g>
   <g id="line2d_3">
    <path clip-path="url(#pd4238ca195)" d="M 24.602079 61.695028 
L 28.885757 63.453089 
L 33.169435 65.21115 
L 37.453113 66.969211 
L 41.736791 68.727273 
" style="fill:none;stroke:#808080;stroke-linecap:square;stroke-width:0.4;"/>
   </g>
   <g id="line2d_4">
    <path clip-path="url(#pd4238ca195)" d="M 32.562729 63.286744 
L 31.738242 62.935503 
L 30.913756 62.584261 
L 30.089269 62.23302 
L 29.264783 61.881779 
L 27.751758 61.547852 
L 26.238733 61.213926 
L 24.705029 61.257213 
L 23.171326 61.3005 
" style="fill:none;stroke:#008000;stroke-linecap:square;stroke-width:0.4;"/>
   </g>
   <g id="line2d_5">
    <path clip-path="url(#pd4238ca195)" d="M 41.339946 16.31194 
L 41.339836 17.309545 
L 41.339726 18.307151 
L 41.339616 19.304756 
L 41.339506 20.302362 
L 41.339396 21.299967 
L 41.339287 22.297573 
L 41.339177 23.295178 
L 41.339067 24.292783 
L 41.385262 25.69713 
L 41.431458 27.101477 
L 41.478204 28.521128 
L 41.52495 29.94078 
L 41.571696 31.360431 
L 41.618442 32.780083 
L 41.665187 34.199734 
L 41.711933 35.619386 
L 41.758679 37.039037 
L 41.805425 38.458689 
L 41.852061 39.885915 
L 42.159813 41.476086 
L 42.467566 43.066256 
L 42.775318 44.656427 
L 43.083071 46.246597 
L 42.954822 47.387977 
L 42.826574 48.529356 
L 42.698325 49.670735 
L 42.570077 50.812115 
L 42.441828 51.953494 
L 42.31358 53.094874 
L 42.185331 54.236253 
L 42.057083 55.377632 
L 41.41584 56.711174 
L 40.774597 58.044716 
L 40.133354 59.378258 
L 39.492111 60.711799 
L 38.625938 61.033667 
L 37.759766 61.355536 
L 36.893593 61.677404 
L 36.02742 61.999272 
L 35.161247 62.32114 
L 34.295075 62.643008 
L 33.428902 62.964876 
L 32.562729 63.286744 
L 31.738242 62.935503 
L 30.913756 62.584261 
L 30.089269 62.23302 
L 29.264783 61.881779 
L 27.751758 61.547852 
L 26.238733 61.213926 
L 24.705029 61.257213 
L 23.171326 61.3005 
" style="fill:none;stroke:#008000;stroke-linecap:square;stroke-width:0.4;"/>
   </g>
   <g id="line2d_6">
    <path clip-path="url(#pd4238ca195)" d="M 41.339946 16.31194 
L 42.237466 16.665654 
L 43.134986 17.019369 
L 44.032506 17.373084 
L 44.930026 17.726799 
L 45.725036 18.675707 
L 46.520045 19.624614 
L 47.315054 20.573522 
L 48.110063 21.52243 
L 48.430684 23.125432 
L 48.751306 24.728434 
L 49.071927 26.331436 
L 49.392549 27.934438 
L 49.71317 29.53744 
L 50.033791 31.140442 
L 50.354413 32.743443 
L 50.675034 34.346445 
L 50.418537 35.744299 
L 50.16204 37.142152 
L 49.905543 38.540006 
L 49.649046 39.937859 
L 49.392549 41.335713 
L 49.136051 42.733566 
L 48.879554 44.13142 
L 48.623057 45.529274 
L 47.80231 46.760318 
L 46.981563 47.991363 
L 46.160817 49.222408 
L 45.34007 50.453453 
L 44.519323 51.684498 
L 43.698576 52.915543 
L 42.877829 54.146588 
L 42.057083 55.377632 
" style="fill:none;stroke:#008000;stroke-linecap:square;stroke-width:0.4;"/>
   </g>
   <g id="line2d_7">
    <path clip-path="url(#pd4238ca195)" d="M 41.805425 38.458689 
L 40.688585 39.251455 
L 39.571744 40.044221 
L 38.454904 40.836988 
L 37.338063 41.629754 
L 36.517316 42.989268 
L 35.69657 44.348781 
L 34.875823 45.708295 
L 34.055076 47.067809 
L 33.755683 47.993682 
L 33.456289 48.919555 
L 33.156896 49.845428 
L 32.857503 50.771302 
L 32.558109 51.697175 
L 32.258716 52.623048 
L 31.959323 53.548921 
L 31.659929 54.474794 
L 31.360536 55.400667 
L 31.061143 56.32654 
L 30.76175 57.252413 
L 30.462356 58.178287 
L 30.162963 59.10416 
L 29.86357 60.030033 
L 29.564176 60.955906 
L 29.264783 61.881779 
" style="fill:none;stroke:#4169e1;stroke-linecap:square;stroke-width:0.4;"/>
   </g>
   <g id="line2d_8">
    <path clip-path="url(#pd4238ca195)" d="M 48.623057 45.529274 
L 48.652315 46.976907 
L 48.681572 48.42454 
L 48.710829 49.872173 
L 48.740087 51.319807 
L 48.327953 52.339829 
L 47.91582 53.35985 
L 47.503687 54.379872 
L 47.091554 55.399894 
L 46.67942 56.419916 
L 46.267287 57.439938 
L 45.855154 58.45996 
L 45.443021 59.479982 
L 45.148027 60.30073 
L 44.853033 61.121478 
L 44.55804 61.942226 
L 44.263046 62.762974 
L 43.968052 63.583722 
L 43.673058 64.40447 
L 43.378065 65.225218 
L 43.083071 66.045966 
L 42.236806 66.148618 
L 41.390542 66.251269 
L 40.544277 66.353921 
L 39.698013 66.456572 
L 38.806102 66.060344 
L 37.914192 65.664115 
L 37.022281 65.267887 
L 36.130371 64.871658 
L 35.23846 64.47543 
L 34.34655 64.079201 
L 33.454639 63.682972 
L 32.562729 63.286744 
" style="fill:none;stroke:#008000;stroke-linecap:square;stroke-width:0.4;"/>
   </g>
   <g id="line2d_9">
    <path clip-path="url(#pd4238ca195)" d="M 41.339946 16.31194 
L 40.339476 17.383906 
L 39.339005 18.455872 
L 38.338534 19.527838 
L 37.338063 20.599803 
L 36.914821 21.805185 
L 36.491579 23.010567 
L 36.068336 24.215949 
L 35.645094 25.421331 
L 35.221852 26.626713 
L 34.79861 27.832095 
L 34.375367 29.037477 
L 33.952125 30.242859 
L 33.233999 30.742976 
L 32.515873 31.243093 
L 31.797747 31.74321 
L 31.079621 32.243327 
L 30.361495 32.743443 
L 29.643369 33.24356 
L 28.925243 33.743677 
L 28.207117 34.243794 
" style="fill:none;stroke:#008000;stroke-linecap:square;stroke-width:0.4;"/>
   </g>
   <g id="line2d_10">
    <path clip-path="url(#pd4238ca195)" d="M 30.567067 16.701521 
L 29.951342 18.035062 
L 29.335617 19.368604 
L 28.719892 20.702146 
L 28.104166 22.035688 
L 28.117035 23.561701 
L 28.129904 25.087714 
L 28.142773 26.613727 
L 28.155642 28.139741 
L 28.168511 29.665754 
L 28.18138 31.191767 
L 28.194248 32.717781 
L 28.207117 34.243794 
" style="fill:none;stroke:#008000;stroke-linecap:square;stroke-width:0.4;"/>
   </g>
   <g id="line2d_11">
    <path clip-path="url(#pd4238ca195)" d="M 28.207117 34.243794 
L 27.706992 35.526164 
L 27.206866 36.808535 
L 26.706741 38.090906 
L 26.206616 39.373276 
L 25.70649 40.655647 
L 25.206365 41.938017 
L 24.706239 43.220388 
L 24.206114 44.502759 
L 23.705989 45.785129 
L 23.205863 47.0675 
L 22.705738 48.34987 
L 22.205612 49.632241 
L 21.705487 50.914612 
L 21.205361 52.196982 
L 20.705236 53.479353 
L 20.205111 54.761724 
L 20.410132 55.633643 
L 20.615154 56.505562 
L 20.820176 57.377481 
L 21.025198 58.249401 
L 21.56173 59.012175 
L 22.098262 59.77495 
L 22.634794 60.537725 
L 23.171326 61.3005 
" style="fill:none;stroke:#008000;stroke-linecap:square;stroke-width:0.4;"/>
   </g>
   <g id="line2d_12">
    <path clip-path="url(#pd4238ca195)" d="M 29.202309 8.109715 
L 28.84726 9.261143 
L 28.492212 10.412571 
L 28.137164 11.563999 
L 27.782115 12.715427 
L 27.409661 13.923592 
L 27.037207 15.131757 
L 26.664752 16.339921 
L 26.292298 17.548086 
L 25.919844 18.756251 
L 25.547389 19.964416 
L 25.174935 21.17258 
L 24.802481 22.380745 
L 24.430027 23.58891 
L 24.057572 24.797074 
L 23.685118 26.005239 
L 23.312664 27.213404 
L 22.940209 28.421568 
L 22.567755 29.629733 
L 22.195301 30.837898 
L 21.822846 32.046063 
L 21.450392 33.254227 
L 21.077938 34.462392 
L 20.705484 35.670557 
L 20.333029 36.878721 
L 19.960575 38.086886 
L 19.588121 39.295051 
L 19.215666 40.503216 
L 18.843212 41.71138 
L 18.470758 42.919545 
L 18.098303 44.12771 
L 17.725849 45.335874 
L 17.353395 46.544039 
L 16.980941 47.752204 
L 16.608486 48.960369 
L 16.236032 50.168533 
L 15.863578 51.376698 
" style="fill:none;stroke:#008000;stroke-linecap:square;stroke-width:0.4;"/>
   </g>
   <g id="line2d_13">
    <path clip-path="url(#pd4238ca195)" d="M 27.782115 12.715427 
L 26.974237 13.675002 
L 26.166359 14.634577 
L 25.358481 15.594152 
L 24.550603 16.553727 
L 23.742725 17.513302 
L 22.934847 18.472877 
L 22.126969 19.432452 
L 21.319091 20.392027 
L 20.639352 21.274459 
L 19.959613 22.15689 
L 19.175822 23.17413 
L 18.392032 24.191369 
L 17.608242 25.208608 
L 16.824452 26.225847 
L 16.040662 27.243086 
L 15.256872 28.260325 
L 14.473082 29.277564 
L 13.689292 30.294804 
L 12.971606 31.182955 
L 12.25392 32.071107 
L 11.536234 32.959259 
L 10.818548 33.847411 
L 10.100861 34.735562 
L 9.383175 35.623714 
L 8.665489 36.511866 
L 7.947803 37.400018 
" style="fill:none;stroke:#4169e1;stroke-linecap:square;stroke-width:0.4;"/>
   </g>
   <g id="line2d_14">
    <path clip-path="url(#pd4238ca195)" d="M 28.267832 3.51266 
L 27.512639 4.096722 
L 26.757447 4.680784 
L 26.002254 5.264846 
L 25.247061 5.848909 
L 24.087105 6.541806 
L 22.927148 7.234704 
L 21.767191 7.927601 
L 20.607235 8.620499 
L 19.976331 9.266708 
L 19.345427 9.912918 
L 19.150965 10.831834 
L 18.956502 11.750751 
L 18.660848 12.926296 
L 18.365195 14.101841 
L 18.582535 15.144434 
L 18.567577 16.686679 
L 18.333518 17.870263 
L 18.582535 18.773102 
L 17.912915 19.699439 
L 17.243295 20.625776 
L 16.96304 21.427818 
L 16.682785 22.22986 
L 15.359383 23.156197 
L 14.035981 24.082533 
L 13.420915 25.102246 
L 12.80585 26.121959 
L 12.25326 27.056335 
L 11.700669 27.990711 
L 11.389177 28.964044 
L 11.077684 29.937378 
L 10.686449 30.870208 
L 10.295214 31.803038 
L 9.903979 32.735868 
L 9.512744 33.668698 
L 9.121509 34.601528 
L 8.730274 35.534358 
L 8.339039 36.467188 
L 7.947803 37.400018 
" style="fill:none;stroke:#4169e1;stroke-linecap:square;stroke-width:0.4;"/>
   </g>
   <g id="line2d_15">
    <path clip-path="url(#pd4238ca195)" d="M 28.267832 3.51266 
L 27.226225 3.452677 
L 26.184618 3.392693 
L 25.14301 3.33271 
L 24.101403 3.272727 
L 23.0169 3.882762 
L 21.932397 4.492796 
L 20.847893 5.10283 
L 19.76339 5.712864 
L 18.679107 6.29569 
L 17.594823 6.878515 
L 16.51054 7.461341 
L 15.426257 8.044166 
L 14.178968 8.179901 
L 12.931679 8.315636 
L 11.68439 8.451371 
L 10.437102 8.587106 
L 9.813677 9.22404 
L 9.190253 9.860974 
L 8.566828 10.497908 
L 7.943404 11.134842 
L 7.509603 12.273902 
L 7.075801 13.412963 
L 6.492853 14.429583 
L 5.909905 15.446204 
L 5.326957 16.462825 
L 4.744009 17.479446 
L 4.337485 18.590988 
L 3.930962 19.702531 
L 3.524438 20.814073 
L 3.117914 21.925615 
L 2.94171 22.792897 
L 2.765505 23.660178 
L 2.589301 24.52746 
L 2.413097 25.394741 
L 2.413097 26.262332 
L 2.413097 27.129922 
L 2.413097 27.997513 
L 2.413097 28.865103 
L 3.009244 29.949746 
L 3.605391 31.034389 
L 4.093307 31.955779 
L 4.581224 32.877169 
L 5.422869 34.007881 
L 6.264514 35.138593 
L 7.106158 36.269306 
L 7.947803 37.400018 
" style="fill:none;stroke:#4169e1;stroke-linecap:square;stroke-width:0.4;"/>
   </g>
   <g id="line2d_16">
    <path clip-path="url(#pd4238ca195)" d="M 7.075801 13.412963 
L 6.98209 14.543366 
L 6.888378 15.673769 
L 6.794666 16.804172 
L 6.700955 17.934575 
L 6.721303 18.971603 
L 6.741651 20.00863 
L 6.761999 21.045657 
L 6.782347 22.082685 
L 6.802696 23.119712 
L 6.823044 24.156739 
L 6.843392 25.193767 
L 6.86374 26.230794 
L 6.904436 27.396445 
L 6.945133 28.562096 
L 6.985829 29.727747 
L 7.026526 30.893398 
L 7.134976 31.787888 
L 7.243426 32.682378 
L 7.351877 33.576868 
L 7.460327 34.471359 
L 7.704065 35.935688 
L 7.947803 37.400018 
L 8.54439 38.863729 
L 9.140977 40.32744 
L 9.344239 41.195031 
L 9.547501 42.062622 
L 9.750763 42.930212 
L 9.954025 43.797803 
L 9.926747 45.424149 
L 9.899469 47.050494 
L 9.709846 47.863667 
L 9.520223 48.67684 
L 9.3306 49.490013 
L 9.140977 50.303186 
L 9.764401 51.604263 
L 10.387826 52.905339 
" style="fill:none;stroke:#4169e1;stroke-linecap:square;stroke-width:0.4;"/>
   </g>
   <g id="line2d_17">
    <path clip-path="url(#pd4238ca195)" d="M 19.959613 22.15689 
L 20.053764 23.380051 
L 20.147916 24.603211 
L 19.632722 26.09475 
L 19.117528 27.586288 
L 18.724423 28.616204 
L 18.331318 29.64612 
L 17.938213 30.676036 
L 17.545108 31.705952 
L 16.948521 33.2247 
L 16.474023 34.037872 
L 15.999526 34.851045 
L 15.525028 35.664218 
L 15.05053 36.477391 
" style="fill:none;stroke:#4169e1;stroke-linecap:square;stroke-width:0.4;"/>
   </g>
   <g id="line2d_18">
    <path clip-path="url(#pd4238ca195)" d="M 15.05053 36.477391 
L 14.196566 37.521221 
L 13.342602 38.56505 
L 12.488639 39.60888 
L 11.634675 40.65271 
L 11.214512 41.438983 
L 10.79435 42.225256 
L 10.374187 43.011529 
L 9.954025 43.797803 
" style="fill:none;stroke:#000000;stroke-linecap:square;stroke-width:0.4;"/>
   </g>
   <g id="line2d_19">
    <path clip-path="url(#pd4238ca195)" d="M 16.948521 33.2247 
L 16.684325 34.193705 
L 16.420128 35.16271 
L 16.155932 36.131715 
L 15.891735 37.100721 
L 15.444295 38.375207 
L 14.996855 39.649693 
L 14.400268 40.788135 
L 13.803681 41.926577 
L 13.763205 43.119437 
L 13.722729 44.312297 
L 13.549824 45.139074 
L 13.376919 45.965852 
L 13.204015 46.792629 
L 13.03111 47.619406 
L 12.858206 48.446184 
L 12.685301 49.272961 
L 12.512396 50.099738 
L 12.339492 50.926516 
" style="fill:none;stroke:#000000;stroke-linecap:square;stroke-width:0.4;"/>
   </g>
   <g id="line2d_20">
    <path clip-path="url(#pd4238ca195)" d="M 41.431458 27.101477 
L 40.410309 27.726043 
L 39.38916 28.350609 
L 38.368011 28.975175 
L 37.346862 29.599742 
L 36.775133 31.122508 
L 36.203404 32.645275 
L 35.631675 34.168042 
L 35.059946 35.690809 
L 35.13188 36.677129 
L 35.203813 37.663449 
L 35.275747 38.649769 
L 35.347681 39.636089 
L 35.039488 40.611896 
L 34.731296 41.587704 
L 34.423103 42.563511 
L 34.114911 43.539319 
L 33.436931 44.751348 
L 32.758951 45.963378 
L 32.080972 47.175408 
L 31.402992 48.387437 
L 31.064003 49.342838 
L 30.725013 50.298239 
L 30.386023 51.25364 
L 30.047033 52.209041 
L 29.718273 53.020513 
L 29.389512 53.831985 
L 29.060751 54.643458 
L 28.73199 55.45493 
L 28.40323 56.266403 
L 28.074469 57.077875 
L 27.745708 57.889347 
L 27.416948 58.70082 
L 26.82784 59.957373 
L 26.238733 61.213926 
" style="fill:none;stroke:#4169e1;stroke-linecap:square;stroke-width:0.4;"/>
   </g>
  </g>
 </g>
 <defs>
  <clipPath id="pd4238ca195">
   <rect height="72" width="53.088131" x="0" y="0"/>
  </clipPath>
 </defs>
</svg>
