<?xml version="1.0" encoding="utf-8" standalone="no"?>
<!DOCTYPE svg PUBLIC "-//W3C//DTD SVG 1.1//EN"
  "http://www.w3.org/Graphics/SVG/1.1/DTD/svg11.dtd">
<svg height="72pt" version="1.1" viewBox="0 0 78.104922 72" width="78.104922pt" xmlns="http://www.w3.org/2000/svg" xmlns:xlink="http://www.w3.org/1999/xlink">
 <metadata>
  <rdf:RDF xmlns:cc="http://creativecommons.org/ns#" xmlns:dc="http://purl.org/dc/elements/1.1/" xmlns:rdf="http://www.w3.org/1999/02/22-rdf-syntax-ns#">
   <cc:Work>
    <dc:type rdf:resource="http://purl.org/dc/dcmitype/StillImage"/>
    <dc:date>2022-04-19T00:56:25.960231</dc:date>
    <dc:format>image/svg+xml</dc:format>
    <dc:creator>
     <cc:Agent>
      <dc:title>Matplotlib v3.4.3, https://matplotlib.org/</dc:title>
     </cc:Agent>
    </dc:creator>
   </cc:Work>
  </rdf:RDF>
 </metadata>
 <defs>
  <style type="text/css">*{stroke-linecap:butt;stroke-linejoin:round;}</style>
 </defs>
 <g id="figure_1">
  <g id="patch_1">
   <path d="M 0 72 
L 78.104922 72 
L 78.104922 0 
L 0 0 
z
" style="fill:#ffffff;"/>
  </g>
  <g id="axes_1">
   <g id="patch_2">
    <path clip-path="url(#p82c1ed18d6)" d="M 59.462152 39.835849 
L 59.462152 39.835849 
L 58.779408 39.064166 
L 58.096663 38.292483 
L 57.413919 37.520799 
L 56.731174 36.749116 
L 55.789196 37.58286 
L 56.472178 38.35423 
L 57.15516 39.1256 
L 57.838141 39.89697 
L 58.521123 40.668339 
z
" style="fill:#008000;opacity:0.1;"/>
   </g>
   <g id="patch_3">
    <path clip-path="url(#p82c1ed18d6)" d="M 59.462152 39.835849 
L 59.462152 39.835849 
L 58.779408 39.064166 
L 58.096663 38.292483 
L 57.413919 37.520799 
L 56.731174 36.749116 
L 55.789196 37.58286 
L 56.472178 38.35423 
L 57.15516 39.1256 
L 57.838141 39.89697 
L 58.521123 40.668339 
z
" style="fill:none;stroke:#008000;stroke-linejoin:miter;stroke-width:0.4;"/>
   </g>
   <g id="patch_4">
    <path clip-path="url(#p82c1ed18d6)" d="M 62.504591 40.293468 
L 62.504591 40.293468 
L 63.736189 39.330588 
L 63.100686 38.517844 
L 62.465183 37.705101 
L 61.82968 36.892357 
L 61.194177 36.079613 
L 60.558674 35.266869 
L 59.923171 34.454126 
L 59.287668 33.641382 
L 58.652165 32.828638 
L 57.418667 33.794026 
z
" style="fill:#008000;opacity:0.1;"/>
   </g>
   <g id="patch_5">
    <path clip-path="url(#p82c1ed18d6)" d="M 62.504591 40.293468 
L 62.504591 40.293468 
L 63.736189 39.330588 
L 63.100686 38.517844 
L 62.465183 37.705101 
L 61.82968 36.892357 
L 61.194177 36.079613 
L 60.558674 35.266869 
L 59.923171 34.454126 
L 59.287668 33.641382 
L 58.652165 32.828638 
L 57.418667 33.794026 
z
" style="fill:none;stroke:#008000;stroke-linejoin:miter;stroke-width:0.4;"/>
   </g>
   <g id="line2d_1">
    <path clip-path="url(#p82c1ed18d6)" d="M 71.484722 68.727273 
L 68.379611 65.942693 
L 64.461665 62.428431 
L 60.979573 59.305339 
L 59.740378 58.194516 
L 58.984516 57.516237 
" style="fill:none;stroke:#808080;stroke-linecap:square;stroke-width:0.4;"/>
   </g>
   <g id="line2d_2">
    <path clip-path="url(#p82c1ed18d6)" d="M 59.900856 52.973899 
L 56.900199 48.938077 
L 54.365783 45.527876 
L 52.635182 43.199661 
L 50.904582 40.871447 
L 49.287456 38.69619 
L 48.235326 37.280706 
L 46.325731 34.711771 
L 44.416136 32.142837 
L 42.432948 29.474856 
L 40.449761 26.806875 
L 38.213511 23.798501 
L 35.977262 20.790127 
L 34.279422 18.505794 
L 32.581582 16.221461 
L 31.531352 14.807231 
L 30.44029 13.340343 
" style="fill:none;stroke:#808080;stroke-linecap:square;stroke-width:0.4;"/>
   </g>
   <g id="line2d_3">
    <path clip-path="url(#p82c1ed18d6)" d="M 72.910034 41.969732 
L 71.084891 39.668003 
L 69.259749 37.366274 
L 67.434606 35.064546 
L 65.609464 32.762817 
L 63.784321 30.461088 
L 61.959178 28.159359 
L 60.134036 25.85763 
L 58.308893 23.555901 
L 56.483751 21.254172 
L 54.658608 18.952443 
L 52.833466 16.650714 
L 51.008323 14.348985 
L 49.18318 12.047256 
L 47.358038 9.745527 
L 45.532895 7.443798 
L 43.707753 5.142069 
" style="fill:none;stroke:#808080;stroke-linecap:square;stroke-width:0.4;"/>
   </g>
   <g id="line2d_4">
    <path clip-path="url(#p82c1ed18d6)" d="M 49.531496 51.316441 
L 45.880143 50.167066 
L 42.228789 49.01769 
L 38.577436 47.868314 
L 34.926082 46.718939 
" style="fill:none;stroke:#808080;stroke-linecap:square;stroke-width:0.4;"/>
   </g>
   <g id="line2d_5">
    <path clip-path="url(#p82c1ed18d6)" d="M 61.987072 54.360547 
L 62.537648 55.149626 
L 63.088223 55.938706 
L 63.638799 56.727785 
L 64.189374 57.516864 
L 64.73995 58.305943 
L 65.290525 59.095022 
L 65.841101 59.884101 
L 66.391676 60.67318 
L 66.942252 61.46226 
L 67.492827 62.251339 
L 68.043403 63.040418 
L 68.593978 63.829497 
L 69.144554 64.618576 
L 69.695129 65.407655 
L 70.245704 66.196734 
L 70.79628 66.985813 
" style="fill:none;stroke:#008000;stroke-linecap:square;stroke-width:0.4;"/>
   </g>
   <g id="line2d_6">
    <path clip-path="url(#p82c1ed18d6)" d="M 31.834266 41.045718 
L 32.917256 40.470874 
L 34.000247 39.896029 
L 35.13214 39.611428 
L 36.264034 39.326827 
L 37.321386 39.121212 
L 38.378737 38.915596 
L 39.964053 38.827834 
L 41.549368 38.740071 
L 42.415618 38.88676 
L 43.281868 39.033449 
L 44.148118 39.180138 
L 45.014368 39.326827 
L 46.629595 39.620831 
L 48.244822 39.914836 
L 49.213863 40.076256 
L 50.182905 40.237676 
L 51.151946 40.399097 
L 52.120987 40.560517 
L 53.119228 40.883358 
L 54.117469 41.206198 
L 55.11571 41.529039 
L 56.113951 41.85188 
" style="fill:none;stroke:#008000;stroke-linecap:square;stroke-width:0.4;"/>
   </g>
   <g id="line2d_7">
    <path clip-path="url(#p82c1ed18d6)" d="M 26.867989 24.528811 
L 27.690083 25.453765 
L 28.512178 26.37872 
L 29.334272 27.303674 
L 30.156367 28.228628 
L 30.758398 29.417811 
L 31.360428 30.606993 
L 31.962459 31.796175 
L 32.564489 32.985357 
L 33.092928 33.719428 
L 33.621366 34.453499 
L 34.149805 35.18757 
L 34.678243 35.921641 
L 35.603367 36.67013 
L 36.52849 37.418619 
L 37.453614 38.167108 
L 38.378737 38.915596 
L 39.347541 39.928627 
L 40.316345 40.941657 
L 41.285149 41.954687 
L 42.253953 42.967718 
" style="fill:none;stroke:#4169e1;stroke-linecap:square;stroke-width:0.4;"/>
   </g>
   <g id="line2d_8">
    <path clip-path="url(#p82c1ed18d6)" d="M 36.748317 8.638779 
L 36.792947 9.552763 
L 36.044207 10.580525 
L 35.295467 11.608287 
L 34.546727 12.636048 
L 33.797987 13.66381 
L 33.225394 14.603496 
L 32.6528 15.543182 
L 32.080206 16.482868 
L 31.507612 17.422554 
L 31.02143 18.245014 
L 30.535247 19.067474 
L 30.049065 19.889935 
L 29.562883 20.712395 
L 28.889159 21.666499 
L 28.215436 22.620603 
L 27.541712 23.574707 
L 26.867989 24.528811 
L 26.163167 25.336226 
L 25.458344 26.143641 
L 24.753522 26.951057 
L 24.0487 27.758472 
L 23.160373 28.581246 
L 22.272045 29.404019 
L 21.383718 30.226793 
L 20.49539 31.049567 
L 20.054788 31.458289 
L 19.394121 32.089553 
L 18.733454 32.720816 
L 18.072787 33.352079 
L 17.41212 33.983343 
L 16.266933 35.09918 
L 15.121745 36.215018 
L 14.769453 37.154077 
L 15.709532 37.624234 
L 17.030866 37.59477 
L 18.3522 37.565307 
L 19.879116 37.624234 
L 21.406033 37.68316 
L 22.69793 38.182153 
L 23.989827 38.681145 
L 25.281723 39.209601 
L 26.57362 39.738057 
L 27.888782 40.064972 
L 29.203943 40.391888 
L 30.519105 40.718803 
L 31.834266 41.045718 
L 32.857908 41.382977 
L 34.017814 41.60301 
L 35.17772 41.823044 
L 36.337626 42.043077 
L 37.497532 42.26311 
L 38.686637 42.439262 
L 39.875742 42.615414 
L 41.064848 42.791566 
L 42.253953 42.967718 
L 43.839743 43.14387 
L 45.425534 43.320022 
L 47.011324 43.496173 
L 48.597114 43.672325 
L 50.124031 43.848477 
L 51.650948 44.024629 
L 52.708062 44.142168 
L 53.765177 44.259707 
L 54.822291 44.377247 
L 55.879406 44.494786 
L 56.686782 44.773745 
L 57.494158 45.052705 
L 58.301534 45.331664 
L 59.10891 45.610623 
" style="fill:none;stroke:#008000;stroke-linecap:square;stroke-width:0.4;"/>
   </g>
   <g id="line2d_9">
    <path clip-path="url(#p82c1ed18d6)" d="M 33.797987 13.66381 
L 34.480257 15.121922 
L 35.162527 16.580034 
L 35.718147 17.247029 
L 36.273767 17.914024 
L 36.829387 18.581019 
L 37.385007 19.248014 
L 37.940627 19.91501 
L 38.496247 20.582005 
L 39.051867 21.249 
L 39.607487 21.915995 
L 40.584125 22.915234 
L 41.560763 23.914473 
L 42.470338 25.035561 
L 43.379912 26.156649 
L 44.289486 27.277737 
L 45.19906 28.398825 
L 46.108634 29.519913 
L 47.018209 30.641001 
L 47.927783 31.762089 
L 48.837357 32.883177 
L 49.746931 34.004264 
L 50.656505 35.125352 
L 51.56608 36.24644 
L 52.475654 37.367528 
L 53.385228 38.488616 
L 54.294802 39.609704 
L 55.204376 40.730792 
L 56.113951 41.85188 
" style="fill:none;stroke:#000000;stroke-linecap:square;stroke-width:0.4;"/>
   </g>
   <g id="line2d_10">
    <path clip-path="url(#p82c1ed18d6)" d="M 48.244822 19.242999 
L 48.857298 19.923472 
L 49.469774 20.603945 
L 50.08225 21.284418 
L 50.694726 21.964892 
L 51.44038 22.950339 
L 52.186033 23.935787 
L 52.931687 24.921235 
L 53.677341 25.906683 
L 54.398246 26.83148 
L 55.119152 27.756278 
L 55.840058 28.681076 
L 56.560963 29.605873 
L 57.281869 30.530671 
L 58.002774 31.455468 
L 58.72368 32.380266 
L 59.444585 33.305064 
L 60.165491 34.229861 
L 60.886396 35.154659 
L 61.607302 36.079456 
L 62.328207 37.004254 
L 63.049113 37.929052 
L 63.770018 38.853849 
L 64.490924 39.778647 
L 65.211829 40.703445 
" style="fill:none;stroke:#4169e1;stroke-linecap:square;stroke-width:0.4;"/>
   </g>
   <g id="line2d_11">
    <path clip-path="url(#p82c1ed18d6)" d="M 55.237493 11.488553 
L 55.750263 12.20852 
L 56.263034 12.928486 
L 56.775804 13.648452 
L 57.288575 14.368418 
L 58.044674 15.462159 
L 58.800773 16.555899 
L 59.556872 17.649639 
L 60.312971 18.74338 
L 61.069071 19.83712 
L 61.82517 20.930861 
L 62.581269 22.024601 
L 63.337368 23.118342 
L 64.41656 24.410332 
L 65.495752 25.702321 
L 66.574944 26.994311 
L 67.654136 28.286301 
L 68.733328 29.578291 
L 69.81252 30.87028 
L 70.891712 32.16227 
L 71.970904 33.45426 
L 72.616853 34.379214 
L 73.262801 35.304169 
L 73.90875 36.229123 
L 74.554698 37.154077 
" style="fill:none;stroke:#4169e1;stroke-linecap:square;stroke-width:0.4;"/>
   </g>
   <g id="line2d_12">
    <path clip-path="url(#p82c1ed18d6)" d="M 38.879163 7.670884 
L 39.464517 8.394141 
L 40.049871 9.117398 
L 40.635224 9.840655 
L 41.220578 10.563913 
L 41.805932 11.28717 
L 42.391285 12.010427 
L 42.976639 12.733684 
L 43.561993 13.456942 
L 44.147346 14.180199 
L 44.7327 14.903456 
L 45.318054 15.626713 
L 45.903407 16.34997 
L 46.488761 17.073228 
L 47.074115 17.796485 
L 47.659468 18.519742 
L 48.244822 19.242999 
" style="fill:none;stroke:#000000;stroke-linecap:square;stroke-width:0.4;"/>
   </g>
   <g id="line2d_13">
    <path clip-path="url(#p82c1ed18d6)" d="M 46.546982 3.272727 
L 47.272457 3.806198 
L 47.997933 4.339669 
L 48.723408 4.87314 
L 49.448883 5.40661 
L 50.172459 6.166853 
L 50.896036 6.927096 
L 51.619612 7.687339 
L 52.343188 8.447582 
L 53.066764 9.207825 
L 53.79034 9.968068 
L 54.513917 10.728311 
L 55.237493 11.488553 
" style="fill:none;stroke:#000000;stroke-linecap:square;stroke-width:0.4;"/>
   </g>
   <g id="line2d_14">
    <path clip-path="url(#p82c1ed18d6)" d="M 29.937965 12.397522 
L 28.845004 12.957949 
L 28.545888 14.305731 
L 27.696968 15.352612 
L 26.474865 16.350597 
L 25.252761 17.348583 
L 24.080511 18.446241 
L 22.908261 19.5439 
L 22.438221 19.923786 
L 21.376121 20.781351 
L 20.314022 21.638916 
L 19.528248 22.112834 
L 18.742475 22.586752 
L 17.956702 23.060669 
L 17.170928 23.534587 
L 15.848645 24.432899 
L 14.526362 25.331211 
L 13.70308 26.104148 
L 12.879799 26.877085 
L 11.88227 27.950296 
L 10.884741 29.023506 
L 9.886738 30.370034 
L 9.188326 31.517216 
L 8.489913 32.664397 
L 7.716484 33.587784 
L 6.943055 34.511171 
L 6.119774 35.459007 
L 5.296492 36.406842 
L 4.673096 37.029956 
L 4.0497 37.65307 
L 3.550224 38.651055 
L 3.999373 39.099898 
L 5.247114 39.300498 
L 6.558477 38.969508 
L 7.80527 38.870148 
L 9.052062 38.770788 
L 10.298854 38.671429 
L 11.545646 38.572069 
L 12.443944 38.414723 
L 13.342242 38.257378 
L 14.525887 37.940806 
L 15.709532 37.624234 
" style="fill:none;stroke:#008000;stroke-linecap:square;stroke-width:0.4;"/>
   </g>
   <g id="line2d_15">
    <path clip-path="url(#p82c1ed18d6)" d="M 56.113951 41.85188 
L 56.86269 42.791566 
L 57.61143 43.731252 
L 58.36017 44.670938 
L 59.10891 45.610623 
L 59.872369 46.726461 
L 60.635827 47.842299 
L 61.399285 48.958137 
L 62.162744 50.073975 
" style="fill:none;stroke:#008000;stroke-linecap:square;stroke-width:0.4;"/>
   </g>
   <g id="line2d_16">
    <path clip-path="url(#p82c1ed18d6)" d="M 41.560763 23.914473 
L 42.427013 24.015087 
L 43.293263 24.1157 
L 44.159513 24.216314 
L 45.025763 24.316927 
L 45.885247 25.414351 
L 46.744731 26.511774 
L 47.604215 27.609197 
L 48.463699 28.706621 
L 49.323183 29.804044 
L 50.182667 30.901467 
L 51.042152 31.998891 
L 51.901636 33.096314 
L 52.76112 34.193738 
L 53.620604 35.291161 
L 54.480088 36.388584 
L 55.339572 37.486008 
L 56.199056 38.583431 
L 57.05854 39.680854 
L 57.918024 40.778278 
L 58.777509 41.875701 
L 58.860359 42.809432 
L 58.943209 43.743162 
L 59.02606 44.676893 
L 59.10891 45.610623 
" style="fill:none;stroke:#4169e1;stroke-linecap:square;stroke-width:0.4;"/>
   </g>
   <g id="line2d_17">
    <path clip-path="url(#p82c1ed18d6)" d="M 29.562883 20.712395 
L 30.672936 21.50978 
L 31.789755 21.560557 
L 32.906574 21.611334 
L 34.023393 21.662111 
L 35.140212 21.712888 
L 36.257031 21.763665 
L 37.37385 21.814441 
L 38.490669 21.865218 
L 39.607487 21.915995 
" style="fill:none;stroke:#008000;stroke-linecap:square;stroke-width:0.4;"/>
   </g>
   <g id="line2d_18">
    <path clip-path="url(#p82c1ed18d6)" d="M 48.244822 19.242999 
L 49.234517 19.244567 
L 50.224211 19.246134 
L 51.213906 19.247701 
L 52.203601 19.249268 
L 53.196619 20.420114 
L 54.189637 21.59096 
L 55.182655 22.761807 
L 56.175673 23.932653 
L 57.168691 25.103499 
L 58.161709 26.274345 
L 59.154727 27.445191 
L 60.147745 28.616037 
L 60.67013 29.285853 
L 61.192515 29.955669 
L 61.7149 30.625486 
L 62.237285 31.295302 
L 62.75967 31.965118 
L 63.282055 32.634934 
L 63.80444 33.30475 
L 64.326825 33.974566 
L 64.84921 34.644382 
L 65.371595 35.314199 
L 65.89398 35.984015 
L 66.416365 36.653831 
L 66.93875 37.323647 
L 67.461135 37.993463 
L 67.98352 38.663279 
L 68.505905 39.333095 
" style="fill:none;stroke:#4169e1;stroke-linecap:square;stroke-width:0.4;"/>
   </g>
   <g id="line2d_19">
    <path clip-path="url(#p82c1ed18d6)" d="M 20.49539 31.049567 
L 21.309295 31.577239 
L 22.123199 32.104911 
L 22.937104 32.632583 
L 23.751009 33.160255 
L 24.564913 33.687928 
L 25.378818 34.2156 
L 26.192722 34.743272 
L 27.006627 35.270944 
L 27.610082 35.992791 
L 28.213536 36.714638 
L 28.816991 37.436484 
L 29.420446 38.158331 
L 30.023901 38.880178 
L 30.627356 39.602025 
L 31.230811 40.323872 
L 31.834266 41.045718 
" style="fill:none;stroke:#ff0000;stroke-dasharray:1.48,0.64;stroke-dashoffset:0;stroke-width:0.4;"/>
   </g>
  </g>
 </g>
 <defs>
  <clipPath id="p82c1ed18d6">
   <rect height="72" width="78.104922" x="0" y="0"/>
  </clipPath>
 </defs>
</svg>
