<?xml version="1.0" encoding="utf-8" standalone="no"?>
<!DOCTYPE svg PUBLIC "-//W3C//DTD SVG 1.1//EN"
  "http://www.w3.org/Graphics/SVG/1.1/DTD/svg11.dtd">
<svg height="121.558222pt" version="1.1" viewBox="0 0 72 121.558222" width="72pt" xmlns="http://www.w3.org/2000/svg" xmlns:xlink="http://www.w3.org/1999/xlink">
 <metadata>
  <rdf:RDF xmlns:cc="http://creativecommons.org/ns#" xmlns:dc="http://purl.org/dc/elements/1.1/" xmlns:rdf="http://www.w3.org/1999/02/22-rdf-syntax-ns#">
   <cc:Work>
    <dc:type rdf:resource="http://purl.org/dc/dcmitype/StillImage"/>
    <dc:date>2022-04-19T00:57:15.534491</dc:date>
    <dc:format>image/svg+xml</dc:format>
    <dc:creator>
     <cc:Agent>
      <dc:title>Matplotlib v3.4.3, https://matplotlib.org/</dc:title>
     </cc:Agent>
    </dc:creator>
   </cc:Work>
  </rdf:RDF>
 </metadata>
 <defs>
  <style type="text/css">*{stroke-linecap:butt;stroke-linejoin:round;}</style>
 </defs>
 <g id="figure_1">
  <g id="patch_1">
   <path d="M 0 121.558222 
L 72 121.558222 
L 72 0 
L 0 0 
z
" style="fill:#ffffff;"/>
  </g>
  <g id="axes_1">
   <g id="line2d_1">
    <path clip-path="url(#p9ec5abb496)" d="M 60.939725 104.514824 
L 60.515282 103.449029 
L 60.090839 102.383235 
L 59.610614 101.176893 
L 59.13039 99.97055 
L 58.50336 98.395496 
L 57.876329 96.820443 
L 57.165881 95.036574 
L 56.455433 93.252706 
L 55.666891 91.272253 
L 54.878349 89.291799 
L 54.190721 87.564333 
L 53.564451 85.992017 
L 52.938182 84.419701 
L 52.103747 82.323706 
L 51.269313 80.227711 
L 50.622759 78.604104 
L 49.976206 76.980498 
L 49.216315 75.071961 
L 48.456425 73.163425 
L 47.934618 71.85304 
L 47.412811 70.542655 
L 46.822039 69.059049 
L 46.362098 67.903815 
L 45.902158 66.748581 
L 45.275128 65.173892 
L 44.648097 63.599204 
L 43.990641 61.801098 
L 43.333185 60.002992 
L 42.700323 58.280272 
L 42.067461 56.557551 
L 41.371212 54.662704 
L 40.674962 52.767858 
L 39.977192 50.868356 
L 39.279421 48.968855 
L 38.58165 47.069354 
L 37.88388 45.169853 
L 37.157711 43.193598 
L 36.431543 41.217342 
L 36.011283 40.073425 
L 35.591023 38.929508 
L 35.170763 37.785591 
L 34.750504 36.641674 
L 34.542592 36.075465 
L 34.334681 35.508891 
L 33.734274 33.87488 
" style="fill:none;stroke:#808080;stroke-linecap:square;stroke-width:0.4;"/>
   </g>
   <g id="line2d_2">
    <path clip-path="url(#p9ec5abb496)" d="M 19.169831 64.48119 
L 19.945695 65.305497 
L 21.201277 66.639793 
L 22.208125 67.709603 
L 23.214974 68.779413 
L 24.650323 70.304818 
L 26.085672 71.830224 
L 27.491862 73.324599 
L 28.898053 74.818974 
L 29.979192 75.96782 
L 31.060331 77.116665 
L 32.114594 78.236854 
L 33.168856 79.357042 
L 34.131333 80.379759 
L 35.093811 81.402476 
L 36.026876 82.39398 
L 36.959942 83.385485 
L 38.272319 84.780016 
L 39.584696 86.174547 
L 40.752549 87.415753 
L 41.920402 88.656959 
L 43.45996 90.292795 
L 44.366403 91.25619 
L 45.272846 92.219585 
L 46.536794 93.562825 
L 47.800743 94.906065 
L 49.22164 96.415956 
L 50.454402 97.726158 
L 51.526413 98.865329 
L 52.598424 100.004501 
L 54.024392 101.519867 
L 55.450359 103.035233 
L 56.894582 104.569948 
" style="fill:none;stroke:#808080;stroke-linecap:square;stroke-width:0.4;"/>
   </g>
   <g id="line2d_3">
    <path clip-path="url(#p9ec5abb496)" d="M 58.446818 82.433772 
L 59.144652 84.03803 
L 59.842486 85.642289 
L 60.54032 87.246548 
L 61.238154 88.850806 
L 61.935988 90.455065 
L 62.633822 92.059323 
L 63.331657 93.663582 
L 64.029491 95.26784 
" style="fill:none;stroke:#808080;stroke-linecap:square;stroke-width:0.4;"/>
   </g>
   <g id="line2d_4">
    <path clip-path="url(#p9ec5abb496)" d="M 68.167433 96.798539 
L 67.591177 98.162907 
L 67.01492 99.527275 
L 66.438663 100.891643 
L 65.862407 102.256011 
L 65.28615 103.62038 
L 64.709893 104.984748 
L 64.133637 106.349116 
L 63.55738 107.713484 
" style="fill:none;stroke:#808080;stroke-linecap:square;stroke-width:0.4;"/>
   </g>
   <g id="line2d_5">
    <path clip-path="url(#p9ec5abb496)" d="M 60.289622 53.592894 
L 59.206708 52.721312 
L 58.123795 51.84973 
L 56.946053 50.902033 
L 55.768311 49.954336 
L 54.115416 48.624056 
L 52.462521 47.293775 
L 51.554684 46.563289 
L 50.646847 45.832803 
L 49.739009 45.102317 
L 48.831172 44.37183 
L 47.324829 43.159464 
L 45.818486 41.947098 
L 44.852713 41.169884 
L 43.886939 40.392671 
L 42.689167 39.428911 
L 41.491395 38.465151 
L 40.398085 37.585355 
L 39.501531 36.870932 
L 38.604977 36.156508 
L 37.502033 35.269594 
L 36.399088 34.382679 
L 34.783972 33.083794 
L 33.397051 31.968899 
" style="fill:none;stroke:#808080;stroke-linecap:square;stroke-width:0.4;"/>
   </g>
   <g id="line2d_6">
    <path clip-path="url(#p9ec5abb496)" d="M 46.132381 105.351542 
L 47.25916 106.464794 
L 48.385938 107.578046 
L 49.356529 108.537061 
L 50.327119 109.496075 
L 51.566727 110.720853 
L 52.806335 111.945631 
L 54.29569 113.41719 
L 55.785046 114.888749 
" style="fill:none;stroke:#808080;stroke-linecap:square;stroke-width:0.4;"/>
   </g>
   <g id="line2d_7">
    <path clip-path="url(#p9ec5abb496)" d="M 27.06032 71.031106 
L 27.271274 69.469012 
L 27.482228 67.906918 
L 27.6445 66.707147 
L 27.806772 65.507375 
L 27.979186 64.231124 
L 28.151601 62.954872 
L 28.297646 61.872102 
L 28.494401 60.416332 
L 28.691156 58.960562 
L 28.887911 57.504792 
L 29.084666 56.049022 
L 29.315651 54.339261 
L 29.546635 52.6295 
L 29.798157 50.768239 
L 30.049679 48.906977 
L 30.295623 47.087516 
L 30.474122 45.765997 
L 30.652622 44.444477 
L 30.895016 42.64984 
L 31.106984 41.080262 
L 31.318952 39.510684 
L 31.58518 37.540453 
L 31.788528 36.036403 
L 31.969816 34.694623 
L 32.151105 33.352843 
" style="fill:none;stroke:#808080;stroke-linecap:square;stroke-width:0.4;"/>
   </g>
   <g id="line2d_8">
    <path clip-path="url(#p9ec5abb496)" d="M 64.116205 107.652519 
L 64.894605 106.09079 
L 65.673004 104.529061 
" style="fill:none;stroke:#808080;stroke-linecap:square;stroke-width:0.4;"/>
   </g>
   <g id="line2d_9">
    <path clip-path="url(#p9ec5abb496)" d="M 58.814973 102.386521 
L 58.345778 101.337793 
L 57.876583 100.289065 
L 57.407388 99.240338 
L 56.938193 98.19161 
L 56.468998 97.142882 
L 55.999803 96.094155 
L 55.530608 95.045427 
L 55.061413 93.996699 
L 54.592218 92.947972 
L 54.123023 91.899244 
L 53.653828 90.850516 
L 53.184633 89.801789 
L 52.715438 88.753061 
L 52.246243 87.704333 
L 51.777047 86.655606 
L 51.307852 85.606878 
" style="fill:none;stroke:#808080;stroke-linecap:square;stroke-width:0.4;"/>
   </g>
   <g id="line2d_10">
    <path clip-path="url(#p9ec5abb496)" d="M 56.185655 105.858246 
L 54.998976 105.203191 
L 53.812297 104.548135 
L 52.625617 103.89308 
L 51.438938 103.238024 
L 50.252259 102.582969 
L 49.065579 101.927913 
L 47.8789 101.272858 
L 46.692221 100.617802 
L 44.82254 99.585776 
L 42.952859 98.55375 
L 41.869819 97.955872 
L 40.786778 97.357994 
L 39.703738 96.760116 
L 38.620697 96.162238 
L 37.491257 95.538806 
L 36.361816 94.915374 
L 35.232376 94.291942 
L 34.102936 93.66851 
L 33.021417 93.071545 
L 31.939897 92.474579 
L 30.858378 91.877614 
L 29.776859 91.280649 
L 28.598103 90.63002 
L 27.419347 89.979391 
L 26.240591 89.328762 
L 25.061835 88.678132 
L 23.292053 87.701322 
L 21.522272 86.724511 
L 19.75249 85.7477 
L 17.982708 84.77089 
L 16.411202 83.884523 
L 14.839697 82.998156 
L 13.48878 82.305818 
L 12.137864 81.613481 
L 10.786947 80.921144 
L 9.436031 80.228806 
L 8.261839 79.538659 
L 7.087647 78.848512 
L 5.816852 78.101781 
L 4.546057 77.35505 
L 3.272727 76.651943 
" style="fill:none;stroke:#808080;stroke-linecap:square;stroke-width:0.4;"/>
   </g>
   <g id="line2d_11">
    <path clip-path="url(#p9ec5abb496)" d="M 35.58367 27.458576 
L 35.275258 26.087751 
L 34.966845 24.716926 
L 34.658433 23.3461 
L 34.350021 21.975275 
L 34.041608 20.60445 
L 33.733196 19.233625 
L 33.424784 17.8628 
L 33.116371 16.491975 
L 32.807959 15.12115 
L 32.499546 13.750325 
L 32.191134 12.379499 
L 31.882722 11.008674 
L 31.574309 9.637849 
L 31.265897 8.267024 
L 30.957485 6.896199 
L 30.649072 5.525374 
" style="fill:none;stroke:#808080;stroke-linecap:square;stroke-width:0.4;"/>
   </g>
   <g id="line2d_12">
    <path clip-path="url(#p9ec5abb496)" d="M 29.138926 8.022023 
L 29.291563 7.907394 
L 29.889942 7.654407 
L 30.488321 7.40142 
L 30.735279 7.39996 
L 30.933556 7.580299 
L 31.056908 8.108998 
L 31.18026 8.637697 
L 31.303613 9.166396 
L 31.426965 9.695095 
L 31.524835 10.057418 
L 31.622706 10.41974 
L 31.720576 10.782063 
L 31.818447 11.144386 
L 31.916317 11.643788 
L 32.014188 12.143191 
L 32.112058 12.642594 
L 32.209928 13.141997 
L 32.219817 13.494463 
L 32.229705 13.846929 
L 32.239594 14.199395 
L 32.249482 14.551861 
L 32.210182 15.158956 
L 32.170882 15.766052 
L 32.288276 16.216537 
L 32.405669 16.667021 
L 32.621187 17.273934 
L 32.836705 17.880848 
L 32.90529 18.252936 
L 32.973876 18.625023 
L 33.042461 18.997111 
L 33.111047 19.369199 
L 33.238329 19.927377 
L 33.365611 20.485554 
L 33.492894 21.043732 
L 33.620176 21.60191 
L 33.659349 22.003385 
L 33.698523 22.40486 
L 33.737696 22.806336 
L 33.77687 23.207811 
L 33.77687 23.756132 
L 33.77687 24.304453 
L 33.87474 24.81353 
L 33.972611 25.322607 
L 34.207399 25.910172 
L 34.442186 26.497736 
L 34.59888 27.046057 
L 34.755575 27.594378 
" style="fill:none;stroke:#4169e1;stroke-linecap:square;stroke-width:0.4;"/>
   </g>
   <g id="line2d_13">
    <path clip-path="url(#p9ec5abb496)" d="M 27.588719 39.461766 
L 27.510372 39.011373 
L 27.432025 38.560979 
L 27.353677 38.110586 
L 27.27533 37.660192 
L 27.148048 37.307727 
L 27.020766 36.955261 
L 26.893483 36.602795 
L 26.766201 36.250329 
L 26.589984 35.750926 
L 26.413766 35.251523 
L 26.237549 34.75212 
L 26.061331 34.252717 
L 25.787243 33.958935 
L 25.513155 33.665152 
L 25.239067 33.37137 
L 24.964979 33.077588 
L 24.671241 32.77404 
L 24.377503 32.470492 
L 24.083765 32.166944 
L 23.790026 31.863396 
L 23.437465 31.64801 
L 23.084903 31.432625 
L 22.732341 31.217239 
L 22.379779 31.001853 
L 21.997932 30.874538 
L 21.616085 30.747224 
L 21.234238 30.619909 
L 20.852391 30.492594 
L 20.382562 30.414288 
L 19.912734 30.335983 
L 19.540522 30.404979 
L 19.16831 30.473976 
" style="fill:none;stroke:#4169e1;stroke-linecap:square;stroke-width:0.4;"/>
   </g>
   <g id="line2d_14">
    <path clip-path="url(#p9ec5abb496)" d="M 29.138926 8.022023 
L 28.813874 8.350942 
L 28.637403 8.673291 
L 28.460932 8.995639 
L 28.320972 9.326749 
L 28.160475 9.707325 
L 27.999977 10.0879 
L 27.82376 10.685139 
L 27.647542 11.282378 
L 27.295107 11.536826 
L 26.746931 11.517477 
L 26.355196 11.517477 
L 25.963461 11.517477 
L 25.669849 11.869761 
L 25.474108 12.339959 
L 25.513155 12.682568 
L 25.552202 13.025177 
L 25.706424 13.37527 
L 25.860646 13.725363 
L 26.014868 14.075457 
L 26.16909 14.42555 
L 26.323312 14.775643 
L 26.477534 15.125736 
L 26.631756 15.475829 
L 26.785978 15.825922 
L 27.021019 16.364386 
L 27.256061 16.90285 
L 27.466507 17.284704 
L 27.676954 17.666557 
L 27.887401 18.04841 
L 28.097848 18.430264 
L 28.337707 18.861126 
L 28.577565 19.291989 
L 28.817424 19.722852 
L 29.057283 20.153714 
L 29.262912 20.550261 
L 29.468541 20.946808 
L 29.674171 21.343355 
L 29.8798 21.739902 
L 30.36966 21.99435 
L 30.751507 22.102225 
L 31.133353 22.2101 
L 31.524835 22.679933 
L 31.916317 23.149766 
" style="fill:none;stroke:#4169e1;stroke-linecap:square;stroke-width:0.4;"/>
   </g>
   <g id="line2d_15">
    <path clip-path="url(#p9ec5abb496)" d="M 37.675461 53.893704 
L 38.002921 54.202454 
L 38.330382 54.511204 
L 38.657842 54.819954 
L 38.985303 55.128704 
L 39.288802 55.706412 
L 39.592302 56.284121 
L 39.895802 56.861829 
L 40.199302 57.439537 
L 40.373871 57.746188 
L 40.548441 58.052839 
L 40.72301 58.35949 
L 40.89758 58.666141 
L 41.085207 58.995882 
L 41.272834 59.325623 
L 41.460462 59.655364 
L 41.648089 59.985104 
L 41.846365 60.367505 
L 42.044642 60.749906 
L 42.200068 61.067874 
L 42.355495 61.385842 
L 42.510921 61.703809 
L 42.666347 62.021777 
L 42.888331 62.644479 
L 43.110314 63.267181 
L 43.332298 63.889883 
L 43.554281 64.512585 
L 43.733668 65.016004 
L 43.913055 65.519422 
L 44.092442 66.022841 
L 44.271829 66.526259 
L 44.311002 66.88849 
L 44.350176 67.250722 
L 44.389349 67.612953 
L 44.428523 67.975184 
L 44.457935 68.4452 
L 44.487346 68.915215 
L 44.516758 69.385231 
L 44.54617 69.855246 
L 44.593838 70.21118 
L 44.648351 70.620778 
L 44.702864 71.030376 
L 44.957429 71.598228 
L 45.211993 72.166079 
L 45.495843 72.391322 
L 45.779693 72.616564 
L 46.063543 72.841806 
L 46.347392 73.067049 
L 46.670542 73.390127 
L 46.993692 73.713206 
L 47.316842 74.036284 
L 47.639992 74.359363 
L 48.090298 74.712012 
L 48.540603 75.06466 
L 48.92245 75.152731 
L 49.304297 75.240802 
L 49.686144 75.328873 
L 50.067991 75.416943 
" style="fill:none;stroke:#ff0000;stroke-linecap:square;stroke-width:0.4;"/>
   </g>
   <g id="line2d_16">
    <path clip-path="url(#p9ec5abb496)" d="M 28.627768 14.332459 
L 28.920873 14.579788 
L 29.213977 14.827116 
L 29.801707 15.120625 
" style="fill:none;stroke:#008000;stroke-linecap:square;stroke-width:0.4;"/>
   </g>
   <g id="line2d_17">
    <path clip-path="url(#p9ec5abb496)" d="M 29.866108 21.748664 
L 29.997574 22.21512 
L 30.12904 22.681576 
L 30.260506 23.148032 
L 30.391972 23.614488 
L 30.523438 24.080944 
L 30.654904 24.547401 
L 30.78637 25.013857 
L 30.917836 25.480313 
L 31.054753 25.911084 
L 31.19167 26.341856 
L 31.289794 26.860972 
L 31.387918 27.380088 
L 31.495423 27.771615 
L 31.602929 28.163143 
L 31.818447 28.535322 
L 32.033964 28.907501 
L 32.337464 29.103356 
L 32.640964 29.299211 
" style="fill:none;stroke:#008000;stroke-linecap:square;stroke-width:0.4;"/>
   </g>
   <g id="line2d_18">
    <path clip-path="url(#p9ec5abb496)" d="M 27.627765 39.657804 
L 27.285092 39.990739 
L 26.942419 40.323674 
L 26.599745 40.656609 
L 26.257072 40.989545 
L 26.012396 41.263705 
L 25.76772 41.537865 
L 25.523044 41.812026 
L 25.278367 42.086186 
L 24.89652 42.379878 
L 24.514674 42.673569 
L 24.132827 42.96726 
L 23.75098 43.260951 
L 23.418068 43.662427 
L 23.085156 44.063902 
L 22.752245 44.465377 
L 22.419333 44.866852 
L 22.047248 45.366255 
L 21.675162 45.865658 
L 21.303077 46.365061 
L 20.930992 46.864464 
L 20.686189 47.334479 
L 20.441386 47.804495 
L 20.196583 48.27451 
L 19.95178 48.744525 
L 19.746151 49.234072 
L 19.540522 49.723618 
L 19.334892 50.213164 
L 19.129263 50.70271 
L 19.050916 51.241266 
L 18.972569 51.779821 
L 18.894222 52.318377 
L 18.815875 52.856932 
L 18.766939 53.454263 
L 18.718004 54.051593 
L 18.669069 54.648923 
L 18.620134 55.246254 
L 18.532025 55.657494 
L 18.443916 56.068735 
L 18.355807 56.479976 
L 18.267699 56.891216 
L 18.248175 57.380763 
L 18.228652 57.870309 
L 18.443916 58.340324 
L 18.65918 58.81034 
L 18.718004 59.358661 
L 18.776828 59.906981 
L 18.776828 60.2986 
L 18.776828 60.690219 
L 18.776828 61.081838 
L 18.776828 61.473456 
L 18.972569 61.90441 
L 19.16831 62.335364 
L 19.471936 62.570372 
L 19.775563 62.80538 
L 20.079189 63.040387 
L 20.382816 63.275395 
L 20.656904 63.529934 
L 20.930992 63.784472 
L 21.20508 64.03901 
L 21.479168 64.293549 
L 21.929474 64.802808 
L 22.379779 65.312068 
L 22.556123 65.635146 
L 22.732468 65.958225 
L 22.908812 66.281304 
L 23.085156 66.604382 
L 23.280897 66.947083 
L 23.476638 67.289783 
L 23.672379 67.632484 
L 23.86812 67.975184 
L 24.41655 68.229814 
L 24.964979 68.484444 
L 25.415285 68.876154 
L 25.86559 69.267864 
L 26.061331 69.855246 
L 26.257072 70.442629 
" style="fill:none;stroke:#000000;stroke-linecap:square;stroke-width:0.4;"/>
   </g>
   <g id="line2d_19">
    <path clip-path="url(#p9ec5abb496)" d="M 27.638922 11.296981 
L 27.633344 11.817922 
L 27.627765 12.338864 
L 27.726143 12.769635 
L 27.941407 13.151488 
L 28.156672 13.533342 
L 28.401348 13.934908 
L 28.646024 14.336475 
L 28.783448 15.003075 
L 28.714736 15.580784 
L 28.646024 16.158492 
L 28.602033 16.525743 
L 28.558042 16.892994 
L 28.514051 17.260245 
L 28.47006 17.627496 
L 28.283954 18.02888 
L 28.097848 18.430264 
" style="fill:none;stroke:#4169e1;stroke-linecap:square;stroke-width:0.4;"/>
   </g>
   <g id="line2d_20">
    <path clip-path="url(#p9ec5abb496)" d="M 32.875752 33.625908 
L 32.875752 34.203617 
L 32.875752 34.781325 
L 32.875752 35.359033 
L 32.875752 35.936742 
L 32.910045 36.299064 
L 32.944337 36.661387 
L 32.97863 37.023709 
L 33.012923 37.386032 
L 33.047215 37.748355 
L 33.081508 38.110677 
L 33.115801 38.473 
L 33.150093 38.835322 
L 33.233321 39.202482 
L 33.316549 39.569642 
L 33.399777 39.936801 
L 33.483005 40.303961 
L 33.566233 40.67112 
L 33.649461 41.03828 
L 33.732689 41.40544 
L 33.815917 41.772599 
L 33.918731 42.100652 
L 34.021546 42.428704 
L 34.124361 42.756757 
L 34.227176 43.084809 
L 34.32999 43.412862 
L 34.432805 43.740915 
L 34.53562 44.068967 
L 34.638434 44.39702 
L 34.716655 44.749486 
L 34.794875 45.101951 
L 34.873095 45.454417 
L 34.951316 45.806883 
L 35.088486 46.325817 
L 35.225657 46.84475 
L 35.362828 47.363684 
L 35.499999 47.882618 
L 35.676216 48.479948 
L 35.852434 49.077278 
L 36.028651 49.674608 
L 36.204869 50.271939 
L 36.371325 50.692945 
L 36.53778 51.113951 
L 36.704236 51.534957 
L 36.870692 51.955963 
L 37.076195 52.4456 
L 37.281697 52.935238 
L 37.4872 53.424875 
L 37.692703 53.914513 
" style="fill:none;stroke:#4169e1;stroke-linecap:square;stroke-width:0.4;"/>
   </g>
   <g id="line2d_21">
    <path clip-path="url(#p9ec5abb496)" d="M 31.661752 33.117014 
L 31.55412 33.528255 
L 31.446488 33.939495 
L 31.338856 34.350736 
L 31.231224 34.761977 
L 31.143115 35.173218 
L 31.055006 35.584458 
L 30.966898 35.995699 
L 30.878789 36.40694 
L 30.751507 36.74964 
L 30.624224 37.092341 
L 30.496942 37.435041 
L 30.36966 37.777742 
L 30.056271 38.384838 
L 29.742883 38.991933 
L 29.233754 39.109483 
L 28.724625 39.227032 
L 28.164532 39.389484 
L 27.604439 39.551936 
" style="fill:none;stroke:#008000;stroke-linecap:square;stroke-width:0.4;"/>
   </g>
   <g id="line2d_22">
    <path clip-path="url(#p9ec5abb496)" d="M 29.977671 41.733538 
L 30.256703 41.973428 
L 30.535735 42.213319 
L 30.814767 42.453209 
L 31.0938 42.6931 
L 31.372832 42.93299 
L 31.651864 43.17288 
L 31.930896 43.412771 
L 32.209928 43.652661 
L 32.533078 43.985596 
L 32.856228 44.318532 
L 33.179378 44.651467 
L 33.502528 44.984402 
L 33.864725 45.190022 
L 34.226922 45.395643 
L 34.589119 45.601263 
L 34.951316 45.806883 
" style="fill:none;stroke:#008000;stroke-linecap:square;stroke-width:0.4;"/>
   </g>
   <g id="line2d_23">
    <path clip-path="url(#p9ec5abb496)" d="M 28.460932 8.995639 
L 28.661237 9.326384 
L 28.861542 9.657129 
L 28.969301 10.019269 
L 29.07706 10.381409 
L 29.145518 10.890668 
L 29.213977 11.399928 
L 29.228683 11.772016 
L 29.243389 12.144104 
L 29.258095 12.516192 
L 29.272801 12.88828 
L 29.405027 13.446366 
L 29.537254 14.004452 
L 29.66948 14.562539 
L 29.801707 15.120625 
L 29.919164 15.531911 
L 30.036621 15.943198 
L 30.154078 16.354484 
L 30.271536 16.76577 
L 30.388993 17.177056 
L 30.50645 17.588343 
L 30.623907 17.999629 
L 30.741364 18.410915 
L 30.883353 18.97393 
L 31.025341 19.536945 
L 31.167329 20.099959 
L 31.309317 20.662974 
L 31.461067 21.284672 
L 31.612817 21.90637 
L 31.764567 22.528068 
L 31.916317 23.149766 
L 32.038655 23.565935 
L 32.160993 23.982104 
L 32.283331 24.398273 
L 32.405669 24.814442 
L 32.435081 25.353089 
L 32.464493 25.891736 
L 32.484143 26.41067 
L 32.503793 26.929603 
L 32.523444 27.448537 
L 32.543094 27.96747 
L 32.592029 28.633341 
L 32.640964 29.299211 
" style="fill:none;stroke:#4169e1;stroke-linecap:square;stroke-width:0.4;"/>
   </g>
   <g id="line2d_24">
    <path clip-path="url(#p9ec5abb496)" d="M 31.397046 27.596934 
L 31.010635 27.83112 
L 30.624224 28.065306 
L 30.075541 28.417955 
L 29.78193 28.692115 
L 29.645013 29.220723 
L 29.645013 29.592902 
L 29.645013 29.965081 
L 29.635124 30.405709 
L 29.625236 30.846338 
" style="fill:none;stroke:#008000;stroke-linecap:square;stroke-width:0.4;"/>
   </g>
   <g id="line2d_25">
    <path clip-path="url(#p9ec5abb496)" d="M 30.271282 8.579835 
L 30.154142 9.225992 
L 30.095318 9.735252 
L 30.134365 10.20545 
L 30.271536 10.714527 
L 30.408706 11.223604 
L 30.594559 11.791638 
L 30.780411 12.359672 
L 30.956882 12.712138 
L 31.133353 13.064604 
L 31.358506 13.407213 
L 31.583659 13.749823 
L 31.838224 14.180594 
L 32.249482 14.551861 
" style="fill:none;stroke:#4169e1;stroke-linecap:square;stroke-width:0.4;"/>
   </g>
   <g id="line2d_26">
    <path clip-path="url(#p9ec5abb496)" d="M 29.726149 38.994854 
L 29.832386 39.639551 
L 29.938624 40.284248 
L 29.889689 40.666192 
L 29.840753 41.048137 
L 29.791818 41.430081 
L 29.742883 41.812026 
L 29.649862 42.332203 
L 29.55684 42.85238 
L 29.463819 43.372557 
L 29.370798 43.892734 
L 29.277776 44.412911 
L 29.184755 44.933088 
L 29.091734 45.453265 
L 28.998713 45.973442 
L 28.905691 46.493619 
L 28.81267 47.013796 
L 28.719649 47.533973 
L 28.626627 48.05415 
L 28.533606 48.574327 
L 28.440585 49.094504 
L 28.347563 49.614682 
L 28.254542 50.134859 
L 28.161521 50.655036 
L 28.068499 51.175213 
L 27.975478 51.69539 
L 27.882457 52.215567 
L 27.789436 52.735744 
L 27.696414 53.255921 
L 27.603393 53.776098 
L 27.510372 54.296275 
L 27.41735 54.816452 
L 27.324329 55.336629 
L 27.231308 55.856806 
L 27.138286 56.376983 
L 27.045265 56.89716 
L 26.952244 57.417337 
L 26.859222 57.937514 
L 26.766201 58.457691 
L 26.727059 58.807739 
L 26.687917 59.157786 
L 26.648776 59.507833 
L 26.609634 59.857881 
L 26.570492 60.207928 
L 26.53135 60.557976 
L 26.492208 60.908023 
L 26.453066 61.258071 
L 26.413925 61.608118 
L 26.374783 61.958165 
L 26.335641 62.308213 
L 26.296499 62.65826 
L 26.257357 63.008308 
L 26.218215 63.358355 
L 26.179073 63.708402 
L 26.139932 64.05845 
L 26.105639 64.709627 
L 26.071346 65.360803 
L 26.037054 66.01198 
L 26.002761 66.663157 
L 25.968468 67.314334 
L 25.934175 67.96551 
L 25.899883 68.616687 
L 25.86559 69.267864 
" style="fill:none;stroke:#ff0000;stroke-linecap:square;stroke-width:0.4;"/>
   </g>
   <g id="line2d_27">
    <path clip-path="url(#p9ec5abb496)" d="M 32.366623 32.236488 
L 31.984776 32.089642 
L 31.602929 31.942797 
L 31.221082 31.795951 
L 30.839235 31.649106 
L 30.300694 31.345558 
L 29.762153 31.04201 
L 29.625236 30.846338 
L 29.253277 30.718931 
L 28.881319 30.591525 
L 28.283954 30.307691 
L 27.686589 30.023856 
L 27.373328 29.876919 
L 27.060066 29.729982 
L 26.746805 29.583046 
L 26.433543 29.436109 
L 25.816655 29.210866 
L 25.199767 28.985624 
L 24.783691 28.83385 
L 24.367614 28.682076 
L 23.951538 28.530302 
L 23.535462 28.378528 
L 23.114315 28.280692 
L 22.693167 28.182856 
L 22.11558 28.172999 
L 21.537992 28.163143 
L 21.180612 28.163143 
L 20.823233 28.163143 
L 20.465854 28.163143 
L 20.108474 28.163143 
L 19.579822 28.212243 
L 19.051169 28.261344 
L 18.659434 28.466873 
L 18.267699 28.672402 
L 18.306745 29.064112 
L 18.522136 29.416578 
L 18.737527 29.769044 
L 18.952919 30.12151 
L 19.16831 30.473976 
L 19.481698 30.934317 
L 19.795086 31.394658 
L 19.863672 31.747124 
L 19.932257 32.09959 
L 20.000842 32.452056 
L 20.069428 32.804522 
L 20.069428 33.259844 
L 20.069428 33.715166 
L 20.069428 34.170488 
L 20.069428 34.625809 
L 19.942145 35.281823 
L 19.814863 35.937837 
L 19.667931 36.569392 
L 19.520998 37.200946 
L 19.374066 37.832501 
L 19.227133 38.464056 
L 19.104795 39.041764 
L 18.982457 39.619472 
L 18.860119 40.197181 
L 18.737781 40.774889 
L 18.652081 41.11759 
L 18.566381 41.46029 
L 18.480681 41.802991 
L 18.394981 42.145691 
L 18.309281 42.488392 
L 18.223581 42.831092 
L 18.137881 43.173793 
L 18.052181 43.516494 
L 17.85644 43.942428 
L 17.660699 44.368362 
L 17.464958 44.794297 
L 17.269217 45.220231 
L 17.088055 45.690247 
L 16.906893 46.160262 
L 16.725732 46.630277 
L 16.54457 47.100293 
L 16.500452 47.560543 
L 16.456334 48.020793 
L 16.412217 48.481043 
L 16.368099 48.941293 
L 16.377987 49.298687 
L 16.387876 49.656082 
L 16.397764 50.013476 
L 16.407653 50.37087 
L 16.344012 50.747795 
L 16.28037 51.12472 
L 16.216729 51.501645 
L 16.153088 51.87857 
L 16.006156 52.231127 
L 15.859223 52.583685 
L 15.712291 52.936242 
L 15.565358 53.288799 
L 15.198217 53.753886 
L 14.831076 54.218973 
L 14.463935 54.68406 
L 14.096794 55.149148 
L 13.866697 55.521235 
L 13.6366 55.893323 
L 13.406503 56.265411 
L 13.176406 56.637499 
L 12.941365 57.205351 
L 12.706324 57.773203 
L 12.686674 58.130597 
L 12.667024 58.487991 
L 12.647373 58.845385 
L 12.627723 59.20278 
L 12.676912 59.61402 
L 12.726101 60.025261 
" style="fill:none;stroke:#4169e1;stroke-linecap:square;stroke-width:0.4;"/>
   </g>
   <g id="line2d_28">
    <path clip-path="url(#p9ec5abb496)" d="M 25.435062 42.125248 
L 25.376238 42.605029 
L 25.317414 43.084809 
L 25.25859 43.56459 
L 25.199767 44.044371 
L 25.131308 44.602549 
L 25.06285 45.160726 
L 24.994391 45.718904 
L 24.925932 46.277081 
L 24.886759 46.80578 
L 24.847585 47.334479 
L 24.808412 47.863178 
L 24.769238 48.391877 
L 24.651718 48.82274 
L 24.534197 49.253602 
L 24.416676 49.684465 
L 24.299156 50.115328 
L 24.191397 50.516803 
L 24.083638 50.918278 
L 23.975879 51.319754 
L 23.86812 51.721229 
L 23.838835 52.161857 
L 23.80955 52.602485 
L 23.780265 53.043113 
L 23.75098 53.483741 
L 23.682394 53.983053 
L 23.613809 54.482364 
L 23.545224 54.981676 
L 23.476638 55.480988 
L 23.378768 56.019543 
L 23.280897 56.558099 
L 23.183027 57.096654 
L 23.085156 57.63521 
L 23.016571 58.105225 
L 22.947986 58.575241 
L 22.8794 59.045256 
L 22.810815 59.515272 
L 22.820576 59.985287 
L 22.830338 60.455302 
L 22.8401 60.925318 
L 22.849862 61.395333 
L 22.85975 61.777187 
L 22.869638 62.15904 
L 22.879527 62.540893 
L 22.889415 62.922747 
L 22.82083 63.265447 
L 22.752245 63.608148 
L 22.683659 63.950848 
L 22.615074 64.293549 
L 22.497426 64.802808 
L 22.379779 65.312068 
" style="fill:none;stroke:#000000;stroke-linecap:square;stroke-width:0.4;"/>
   </g>
   <g id="line2d_29">
    <path clip-path="url(#p9ec5abb496)" d="M 46.057838 65.168964 
L 46.451411 65.392472 
L 46.844985 65.615981 
L 47.238559 65.839489 
L 47.632132 66.062997 
L 48.025706 66.286506 
L 48.419279 66.510014 
L 48.812853 66.733522 
L 49.206427 66.957031 
L 49.5491 67.231191 
L 49.891773 67.505351 
L 50.234447 67.779512 
L 50.57712 68.053672 
L 50.919794 68.327833 
L 51.262467 68.601993 
L 51.60514 68.876154 
L 51.947814 69.150314 
" style="fill:none;stroke:#000000;stroke-linecap:square;stroke-width:0.4;"/>
   </g>
   <g id="line2d_30">
    <path clip-path="url(#p9ec5abb496)" d="M 53.703904 71.47867 
L 54.243839 71.640757 
L 54.783775 71.802844 
L 55.323711 71.964931 
L 55.863646 72.127018 
L 56.392299 72.459953 
L 56.920951 72.792888 
L 57.449604 73.125823 
L 57.978257 73.458759 
L 58.183823 73.737802 
L 58.389389 74.016845 
L 58.594955 74.295888 
L 58.800521 74.574931 
L 59.006087 74.853974 
L 59.211653 75.133018 
L 59.417219 75.412061 
L 59.622785 75.691104 
L 59.808891 76.288434 
L 59.994997 76.885764 
L 60.181103 77.483095 
L 60.367209 78.080425 
L 60.494364 78.560206 
L 60.62152 79.039987 
L 60.748675 79.519768 
L 60.875831 79.999548 
L 61.052048 80.410789 
L 61.228266 80.82203 
L 61.404483 81.23327 
L 61.580701 81.644511 
L 61.845027 82.183067 
L 62.109353 82.721622 
L 62.37368 83.260178 
L 62.638006 83.798733 
L 63.029615 84.180587 
L 63.421223 84.56244 
L 63.812832 84.944293 
L 64.204441 85.326147 
L 64.586287 85.728078 
L 64.968134 86.13001 
" style="fill:none;stroke:#000000;stroke-linecap:square;stroke-width:0.4;"/>
   </g>
   <g id="line2d_31">
    <path clip-path="url(#p9ec5abb496)" d="M 50.091318 67.67766 
L 50.308674 68.121209 
L 50.52603 68.564757 
L 50.743386 69.008306 
L 50.960742 69.451854 
L 51.178098 69.895403 
L 51.395454 70.338951 
L 51.61281 70.7825 
L 51.830166 71.226048 
L 52.035796 71.823379 
L 52.241425 72.420709 
L 52.447054 73.018039 
L 52.652684 73.61537 
L 52.828901 74.173456 
L 53.005119 74.731542 
L 53.181336 75.289629 
L 53.357554 75.847715 
L 53.523883 76.415658 
L 53.690212 76.983601 
L 53.856541 77.551544 
L 54.02287 78.119487 
L 54.184445 78.511151 
L 54.34602 78.902815 
L 54.507595 79.29448 
L 54.66917 79.686144 
L 54.830745 80.077808 
L 54.99232 80.469472 
L 55.153895 80.861137 
L 55.31547 81.252801 
L 55.427286 81.842374 
L 55.539102 82.431947 
L 55.64255 82.97826 
L 55.745999 83.524573 
L 55.902693 83.935814 
L 56.059387 84.347054 
L 56.216081 84.758295 
L 56.372775 85.169536 
L 56.842731 85.580776 
L 57.312687 85.992017 
L 57.782643 86.403258 
L 58.252598 86.814498 
L 58.54621 87.206208 
L 58.839821 87.597918 
L 59.133432 87.989628 
L 59.427044 88.381338 
L 59.632673 88.929659 
L 59.838302 89.47798 
L 60.043932 90.026301 
L 60.249561 90.574622 
L 60.401311 90.98098 
L 60.553061 91.387338 
L 60.704811 91.793696 
L 60.856561 92.200054 
L 61.008311 92.606412 
L 61.160061 93.01277 
L 61.311811 93.419128 
L 61.463561 93.825486 
L 61.64954 94.266114 
L 61.835519 94.706742 
L 62.021498 95.14737 
L 62.207477 95.587998 
L 62.295586 95.940464 
L 62.383695 96.29293 
L 62.471804 96.645396 
L 62.559913 96.997862 
L 62.677433 97.389572 
L 62.794954 97.781282 
L 62.912474 98.172992 
L 63.029995 98.564702 
L 63.186182 99.152084 
" style="fill:none;stroke:#000000;stroke-linecap:square;stroke-width:0.4;"/>
   </g>
   <g id="line2d_32">
    <path clip-path="url(#p9ec5abb496)" d="M 43.532983 58.859258 
L 43.962497 58.915568 
L 44.392011 58.971879 
L 44.821526 59.02819 
L 45.25104 59.0845 
L 45.760169 59.534802 
L 46.269299 59.985104 
L 46.548331 60.357192 
L 46.827363 60.72928 
L 47.106395 61.101368 
L 47.385428 61.473456 
L 47.66446 61.845544 
L 47.943492 62.217632 
L 48.222524 62.58972 
L 48.501557 62.961808 
L 48.736471 63.51022 
L 48.971385 64.058632 
L 49.2063 64.607045 
L 49.441214 65.155457 
L 49.754539 65.654814 
L 50.067864 66.154171 
L 50.381189 66.653528 
L 50.694514 67.152886 
L 51.007839 67.652243 
L 51.321164 68.1516 
L 51.634489 68.650957 
L 51.947814 69.150314 
L 52.168086 69.444051 
L 52.388358 69.737788 
L 52.608629 70.031525 
L 52.828901 70.325262 
L 53.049173 70.618998 
L 53.269445 70.912735 
L 53.489717 71.206472 
L 53.709989 71.500209 
L 53.988958 71.935954 
L 54.267927 72.3717 
L 54.546896 72.807445 
L 54.825864 73.24319 
L 55.104833 73.678936 
L 55.383802 74.114681 
L 55.662771 74.550427 
L 55.94174 74.986172 
L 56.304063 75.524728 
L 56.666387 76.063283 
L 57.02871 76.601839 
L 57.391034 77.140394 
L 57.645472 77.571166 
L 57.89991 78.001937 
L 58.154347 78.432708 
L 58.408785 78.86348 
L 58.614415 79.441188 
L 58.820044 80.018897 
L 59.025673 80.596605 
L 59.231303 81.174313 
L 59.701132 81.272332 
L 60.170961 81.370351 
L 60.523396 81.438891 
L 60.875831 81.507431 
L 61.228266 81.575971 
L 61.580701 81.644511 
" style="fill:none;stroke:#000000;stroke-linecap:square;stroke-width:0.4;"/>
   </g>
   <g id="line2d_33">
    <path clip-path="url(#p9ec5abb496)" d="M 41.13896 51.916902 
L 41.197783 52.269367 
L 41.256607 52.621833 
L 41.315431 52.974299 
L 41.374254 53.326765 
L 41.579757 53.875178 
L 41.78526 54.42359 
L 41.990762 54.972002 
L 42.196265 55.520414 
L 42.421544 56.039348 
L 42.646824 56.558281 
L 42.872104 57.077215 
L 43.097383 57.596148 
L 43.292363 58.094593 
L 43.487344 58.593037 
L 43.682324 59.091482 
L 43.877304 59.589926 
L 44.072284 60.088371 
L 44.267265 60.586815 
L 44.462245 61.08526 
L 44.657225 61.583705 
L 44.826312 62.015993 
L 44.995398 62.448282 
L 45.164484 62.880571 
L 45.333571 63.312859 
L 45.502657 63.745148 
L 45.671744 64.177437 
L 45.84083 64.609726 
L 46.009917 65.042014 
L 46.179003 65.474303 
L 46.348089 65.906592 
L 46.517176 66.33888 
L 46.686262 66.771169 
L 46.855349 67.203458 
L 47.024435 67.635747 
L 47.193522 68.068035 
L 47.362608 68.500324 
L 47.531695 68.932613 
L 47.700781 69.364901 
L 47.869867 69.79719 
L 48.038954 70.229479 
L 48.20804 70.661768 
L 48.377127 71.094056 
L 48.546213 71.526345 
L 48.7153 71.958634 
L 48.884386 72.390922 
L 49.053472 72.823211 
L 49.222559 73.2555 
L 49.391645 73.687789 
L 49.560732 74.120077 
L 49.729818 74.552366 
L 49.898905 74.984655 
L 50.067991 75.416943 
" style="fill:none;stroke:#000000;stroke-linecap:square;stroke-width:0.4;"/>
   </g>
   <g id="line2d_34">
    <path clip-path="url(#p9ec5abb496)" d="M 56.881905 66.095123 
L 57.018822 66.604382 
L 57.155739 67.113642 
L 57.175516 67.681493 
L 57.195293 68.249345 
L 57.165881 68.621433 
L 57.136469 68.993521 
L 57.107057 69.365609 
L 57.077646 69.737697 
L 57.048234 70.217477 
L 57.018822 70.697258 
L 56.98941 71.177039 
L 56.959998 71.65682 
L 57.028584 72.234528 
L 57.097169 72.812236 
L 57.165754 73.389945 
L 57.23434 73.967653 
L 57.21469 74.437669 
L 57.195039 74.907684 
L 57.175389 75.377699 
L 57.155739 75.847715 
L 57.273387 76.494055 
L 57.391034 77.140394 
" style="fill:none;stroke:#4169e1;stroke-linecap:square;stroke-width:0.4;"/>
   </g>
   <g id="line2d_35">
    <path clip-path="url(#p9ec5abb496)" d="M 56.137988 56.460445 
L 56.128099 56.812911 
L 56.118211 57.165377 
L 56.108322 57.517843 
L 56.098434 57.870309 
L 56.118084 58.359855 
L 56.137734 58.849401 
L 56.157384 59.338947 
L 56.177035 59.828493 
L 56.204672 60.194467 
L 56.232309 60.56044 
L 56.259946 60.926413 
L 56.287583 61.292386 
L 56.333729 61.904593 
L 56.34349 62.452914 
L 56.353252 63.001235 
L 56.363014 63.549556 
L 56.372775 64.097876 
L 56.490296 64.558035 
L 56.607817 65.018194 
L 56.725337 65.478353 
L 56.842858 65.938512 
" style="fill:none;stroke:#008000;stroke-linecap:square;stroke-width:0.4;"/>
   </g>
   <g id="line2d_36">
    <path clip-path="url(#p9ec5abb496)" d="M 59.897126 81.60545 
L 59.994997 82.212545 
L 60.092867 82.819641 
L 60.229911 83.240647 
L 60.366955 83.661653 
L 60.503999 84.082659 
L 60.641043 84.503665 
L 60.768325 84.831672 
L 60.895608 85.159679 
L 61.02289 85.487686 
L 61.150172 85.815693 
L 61.277455 86.1437 
L 61.404737 86.471707 
L 61.532019 86.799713 
L 61.659301 87.12772 
L 61.874693 87.612429 
L 62.090084 88.097139 
L 62.305475 88.581848 
L 62.520866 89.066557 
L 62.736257 89.551266 
L 62.951648 90.035975 
L 63.167039 90.520684 
L 63.38243 91.005393 
L 63.529236 91.348094 
L 63.676041 91.690795 
L 63.822847 92.033495 
L 63.969653 92.376196 
L 64.116459 92.718896 
L 64.263264 93.061597 
L 64.41007 93.404297 
L 64.556876 93.746998 
L 64.919072 94.158239 
L 65.281269 94.569479 
L 65.643466 94.98072 
L 66.005663 95.391961 
" style="fill:none;stroke:#4169e1;stroke-linecap:square;stroke-width:0.4;"/>
   </g>
   <g id="line2d_37">
    <path clip-path="url(#p9ec5abb496)" d="M 12.726101 60.025261 
L 12.989223 60.252876 
L 13.252345 60.480492 
L 13.515467 60.708107 
L 13.778589 60.935722 
L 14.04171 61.163337 
L 14.304832 61.390953 
L 14.567954 61.618568 
L 14.831076 61.846183 
L 15.094198 62.073798 
L 15.35732 62.301414 
L 15.620442 62.529029 
L 15.883564 62.756644 
L 16.146686 62.984259 
L 16.409808 63.211875 
L 16.67293 63.43949 
L 16.936052 63.667105 
L 17.207763 63.948612 
L 17.479474 64.23012 
L 17.751185 64.511627 
L 18.022896 64.793134 
L 18.294607 65.074642 
L 18.566318 65.356149 
L 18.838028 65.637656 
L 19.109739 65.919163 
L 19.38145 66.200671 
L 19.653161 66.482178 
L 19.924872 66.763685 
L 20.196583 67.045193 
L 20.468294 67.3267 
L 20.740005 67.608207 
L 21.011716 67.889715 
L 21.283427 68.171222 
L 21.601633 68.523733 
L 21.919839 68.876245 
L 22.238044 69.228757 
L 22.55625 69.581268 
L 22.874456 69.93378 
L 23.192662 70.286291 
L 23.510867 70.638803 
L 23.829073 70.991315 
L 24.240332 71.382933 
L 24.651591 71.774552 
L 25.06285 72.166171 
L 25.474108 72.557789 
" style="fill:none;stroke:#000000;stroke-linecap:square;stroke-width:0.4;"/>
   </g>
   <g id="line2d_38">
    <path clip-path="url(#p9ec5abb496)" d="M 50.616167 77.218517 
L 50.342079 77.669002 
L 50.067991 78.119487 
L 49.793903 78.569971 
L 49.519815 79.020456 
L 49.431706 79.441462 
L 49.343597 79.862468 
L 49.255489 80.283474 
L 49.16738 80.70448 
L 49.216315 81.110838 
L 49.26525 81.517196 
L 49.314186 81.923554 
L 49.363121 82.329912 
L 49.412056 82.73627 
L 49.460991 83.142628 
L 49.509926 83.548986 
L 49.558862 83.955344 
L 49.686144 84.523287 
L 49.813426 85.09123 
L 49.940709 85.659173 
L 50.067991 86.227116 
L 50.2956 86.714244 
L 50.523209 87.201371 
L 50.750818 87.688499 
L 50.978427 88.175627 
L 51.206036 88.662754 
L 51.433645 89.149882 
L 51.661254 89.63701 
L 51.888863 90.124137 
L 52.116472 90.611265 
L 52.344081 91.098393 
L 52.57169 91.58552 
L 52.799299 92.072648 
L 53.026908 92.559775 
L 53.254517 93.046903 
L 53.482126 93.534031 
L 53.709735 94.021158 
L 53.937345 94.508286 
L 54.164954 94.995414 
L 54.392563 95.482541 
L 54.620172 95.969669 
L 54.847781 96.456797 
L 55.07539 96.943924 
L 55.302999 97.431052 
L 55.530608 97.91818 
L 55.758217 98.405307 
L 55.985826 98.892435 
L 56.213435 99.379563 
L 56.441044 99.86669 
L 56.668653 100.353818 
L 56.896262 100.840946 
L 57.123871 101.328073 
L 57.35148 101.815201 
" style="fill:none;stroke:#000000;stroke-linecap:square;stroke-width:0.4;"/>
   </g>
   <g id="line2d_39">
    <path clip-path="url(#p9ec5abb496)" d="M 12.726101 60.025261 
L 12.324477 60.455667 
L 11.922853 60.886074 
L 11.570418 61.297315 
L 11.217983 61.708555 
L 11.139636 62.178571 
L 11.061289 62.648586 
L 11.157131 63.032265 
L 11.252973 63.415943 
L 11.374677 63.901839 
L 11.668415 64.264162 
L 11.962153 64.626484 
L 12.255892 64.988807 
L 12.54963 65.351129 
L 13.009824 65.546984 
L 13.470018 65.742839 
L 13.930212 65.938694 
L 14.390406 66.134549 
L 14.96812 66.487015 
L 15.545835 66.839481 
L 16.123549 67.191947 
L 16.701264 67.544413 
L 17.056805 67.835777 
L 17.412346 68.127141 
L 17.767887 68.418505 
L 18.123428 68.709869 
L 18.478969 69.001233 
L 18.83451 69.292597 
L 19.190052 69.583961 
L 19.545593 69.875324 
" style="fill:none;stroke:#4169e1;stroke-linecap:square;stroke-width:0.4;"/>
   </g>
   <g id="line2d_40">
    <path clip-path="url(#p9ec5abb496)" d="M 50.067991 86.227116 
L 49.519815 86.560051 
L 48.971639 86.892986 
L 48.785533 87.2063 
L 48.599427 87.519613 
L 48.413321 87.832926 
L 48.227215 88.146239 
L 48.344736 88.674938 
L 48.462256 89.203637 
L 48.579777 89.732336 
L 48.697297 90.261035 
L 48.863753 90.760438 
L 49.030209 91.259841 
L 49.196665 91.759243 
L 49.363121 92.258646 
L 49.529577 92.758049 
L 49.696032 93.257452 
L 49.862488 93.756855 
L 50.028944 94.256257 
L 50.126815 94.589147 
L 50.224685 94.922037 
L 50.322556 95.254926 
L 50.420426 95.587816 
L 50.518296 95.920705 
L 50.616167 96.253595 
L 50.714037 96.586484 
L 50.811908 96.919374 
L 51.183993 97.340471 
L 51.556078 97.761569 
L 51.928164 98.182666 
L 52.300249 98.603763 
L 52.623272 98.936653 
L 52.946295 99.269542 
L 53.269318 99.602432 
L 53.592342 99.935322 
L 53.915365 100.268211 
L 54.238388 100.601101 
L 54.561411 100.93399 
L 54.884435 101.26688 
" style="fill:none;stroke:#4169e1;stroke-linecap:square;stroke-width:0.4;"/>
   </g>
   <g id="line2d_41">
    <path clip-path="url(#p9ec5abb496)" d="M 50.811908 106.476294 
L 51.262213 106.789607 
L 51.712519 107.10292 
L 52.162824 107.416233 
L 52.61313 107.729547 
L 52.867695 108.013472 
L 53.122259 108.297398 
L 53.376824 108.581324 
L 53.631388 108.86525 
L 53.827129 109.51159 
L 54.02287 110.157929 
L 54.003347 110.530017 
L 53.983823 110.902105 
L 53.9643 111.274193 
L 53.944777 111.646281 
L 54.160041 112.155358 
L 54.375305 112.664435 
L 54.72774 112.801515 
L 55.080175 112.938595 
L 55.569781 112.664435 
L 56.059387 112.390274 
" style="fill:none;stroke:#008000;stroke-linecap:square;stroke-width:0.4;"/>
   </g>
   <g id="line2d_42">
    <path clip-path="url(#p9ec5abb496)" d="M 50.224685 75.534493 
L 50.378265 75.927384 
L 50.531846 76.320274 
L 50.685426 76.713165 
L 50.839006 77.106056 
L 50.992586 77.498946 
L 51.146167 77.891837 
L 51.299747 78.284728 
L 51.453327 78.677618 
L 51.606907 79.070509 
L 51.760487 79.4634 
L 51.914068 79.856291 
L 52.067648 80.249181 
L 52.221228 80.642072 
L 52.374808 81.034963 
L 52.528389 81.427853 
L 52.681969 81.820744 
L 52.835549 82.213635 
L 52.989129 82.606525 
L 53.14271 82.999416 
L 53.29629 83.392307 
L 53.44987 83.785198 
L 53.60345 84.178088 
L 53.757031 84.570979 
L 53.910611 84.96387 
L 54.064191 85.35676 
L 54.217771 85.749651 
L 54.371352 86.142542 
L 54.524932 86.535432 
L 54.678512 86.928323 
L 54.832092 87.321214 
L 54.985672 87.714105 
L 55.139253 88.106995 
L 55.292833 88.499886 
L 55.446413 88.892777 
L 55.599993 89.285667 
L 55.753574 89.678558 
L 55.907154 90.071449 
L 56.060734 90.464339 
L 56.214314 90.85723 
L 56.367895 91.250121 
L 56.521475 91.643011 
L 56.675055 92.035902 
L 56.828635 92.428793 
L 56.982216 92.821684 
L 57.135796 93.214574 
L 57.289376 93.607465 
L 57.442956 94.000356 
L 57.596537 94.393246 
L 57.750117 94.786137 
L 57.903697 95.179028 
L 58.057277 95.571918 
L 58.210857 95.964809 
L 58.364438 96.3577 
L 58.518018 96.750591 
L 58.671598 97.143481 
L 58.825178 97.536372 
L 58.978759 97.929263 
L 59.132339 98.322153 
L 59.285919 98.715044 
L 59.439499 99.107935 
L 59.59308 99.500825 
L 59.74666 99.893716 
L 59.90024 100.286607 
L 60.05382 100.679498 
" style="fill:none;stroke:#4169e1;stroke-linecap:square;stroke-width:0.4;"/>
   </g>
   <g id="line2d_43">
    <path clip-path="url(#p9ec5abb496)" d="M 26.2591 70.575876 
L 26.513158 71.012579 
L 26.767215 71.449283 
L 27.021273 71.885987 
L 27.27533 72.32269 
L 27.583774 72.640932 
L 27.892219 72.959173 
L 28.200663 73.277415 
L 28.509107 73.595656 
L 28.817551 73.913898 
L 29.125995 74.232139 
L 29.434439 74.550381 
L 29.742883 74.868622 
L 30.126758 75.218852 
L 30.510634 75.569082 
L 30.894509 75.919312 
L 31.278384 76.269542 
L 31.66226 76.619772 
L 32.046135 76.970002 
L 32.43001 77.320232 
L 32.813886 77.670462 
L 33.06845 77.902732 
L 33.323015 78.135002 
L 33.577579 78.367271 
L 33.832144 78.599541 
L 34.086709 78.831811 
L 34.341273 79.064081 
L 34.595838 79.29635 
L 34.850402 79.52862 
L 35.247716 79.891125 
L 35.645029 80.25363 
L 36.042343 80.616136 
L 36.439656 80.978641 
L 36.875319 81.340918 
L 37.310982 81.703195 
L 37.746645 82.065472 
L 38.182308 82.427748 
L 38.617971 82.790025 
L 39.053634 83.152302 
L 39.489297 83.514579 
L 39.92496 83.876856 
L 40.213818 84.141251 
L 40.502675 84.405646 
L 40.791532 84.670042 
L 41.08039 84.934437 
L 41.369247 85.198832 
L 41.658104 85.463227 
L 41.946961 85.727622 
L 42.235819 85.992017 
L 42.453048 86.354111 
L 42.670277 86.716206 
L 42.887507 87.0783 
L 43.104736 87.440395 
L 43.321965 87.802489 
L 43.539195 88.164584 
L 43.756424 88.526678 
L 43.973653 88.888772 
L 44.232782 89.321004 
L 44.457966 89.592723 
L 44.683151 89.864442 
L 44.908335 90.136161 
L 45.13352 90.407881 
L 45.358704 90.6796 
L 45.583889 90.951319 
L 45.809073 91.223038 
L 46.034257 91.494757 
L 46.259442 91.766476 
L 46.484626 92.038195 
L 46.709811 92.309914 
L 46.934995 92.581633 
L 47.16018 92.853353 
L 47.385364 93.125072 
L 47.610549 93.396791 
L 47.835733 93.66851 
L 48.207755 94.074868 
L 48.579777 94.481226 
L 48.951799 94.887584 
L 49.32382 95.293942 
L 49.695842 95.7003 
L 50.067864 96.106658 
L 50.439886 96.513016 
L 50.811908 96.919374 
" style="fill:none;stroke:#4169e1;stroke-linecap:square;stroke-width:0.4;"/>
   </g>
   <g id="line2d_44">
    <path clip-path="url(#p9ec5abb496)" d="M 21.214968 70.854052 
L 21.868495 70.888367 
L 22.522021 70.922683 
L 23.175547 70.956999 
L 23.829073 70.991315 
" style="fill:none;stroke:#008000;stroke-linecap:square;stroke-width:0.4;"/>
   </g>
   <g id="line2d_45">
    <path clip-path="url(#p9ec5abb496)" d="M 25.591249 72.636277 
L 25.893544 72.953275 
L 26.19584 73.270273 
L 26.498135 73.587271 
L 26.80043 73.904269 
L 27.102726 74.221267 
L 27.405021 74.538266 
L 27.707317 74.855264 
L 28.009612 75.172262 
L 28.311908 75.48926 
L 28.614203 75.806258 
L 28.916499 76.123256 
L 29.218794 76.440254 
L 29.52109 76.757252 
L 29.823385 77.07425 
L 30.125681 77.391248 
L 30.427976 77.708246 
L 30.730272 78.025244 
L 31.032567 78.342242 
L 31.334863 78.65924 
L 31.637158 78.976238 
L 31.939454 79.293236 
L 32.241749 79.610234 
L 32.544045 79.927232 
L 32.84634 80.24423 
L 33.148635 80.561228 
L 33.450931 80.878226 
L 33.753226 81.195224 
L 34.055522 81.512222 
L 34.357817 81.82922 
L 34.660113 82.146218 
L 34.962408 82.463216 
L 35.264704 82.780214 
L 35.533943 83.118032 
L 35.803181 83.45585 
L 36.07242 83.793668 
L 36.341659 84.131486 
L 36.610898 84.469304 
L 36.880137 84.807122 
L 37.149376 85.14494 
L 37.418615 85.482758 
L 37.687853 85.820575 
L 37.957092 86.158393 
L 38.226331 86.496211 
L 38.49557 86.834029 
L 38.764809 87.171847 
L 39.034048 87.509665 
L 39.303286 87.847483 
L 39.572525 88.185301 
L 39.841796 88.542695 
L 40.111066 88.900089 
L 40.380337 89.257484 
L 40.649607 89.614878 
L 40.918878 89.972272 
L 41.188148 90.329666 
L 41.457419 90.687061 
L 41.72669 91.044455 
L 42.037511 91.318615 
L 42.348332 91.592776 
L 42.659153 91.866936 
L 42.969974 92.141097 
L 43.280795 92.415257 
L 43.591616 92.689418 
L 43.902437 92.963578 
L 44.213258 93.237739 
L 44.52408 93.511899 
L 44.834901 93.786059 
L 45.145722 94.06022 
L 45.456543 94.33438 
L 45.767364 94.608541 
L 46.078185 94.882701 
L 46.389006 95.156862 
L 46.699827 95.431022 
L 47.086555 95.783534 
L 47.473283 96.136045 
L 47.860011 96.488557 
L 48.246738 96.841069 
L 48.633466 97.19358 
L 49.020194 97.546092 
L 49.406922 97.898603 
L 49.793649 98.251115 
L 50.146084 98.628085 
L 50.49852 99.005056 
L 50.850955 99.382027 
L 51.20339 99.758997 
L 51.555825 100.135968 
L 51.90826 100.512939 
L 52.260695 100.889909 
L 52.61313 101.26688 
L 52.857901 101.523928 
L 53.102672 101.780976 
L 53.347444 102.038025 
L 53.592215 102.295073 
L 53.836986 102.552121 
L 54.081757 102.809169 
L 54.326529 103.066218 
L 54.5713 103.323266 
L 54.816071 103.580314 
L 55.060842 103.837362 
L 55.305613 104.094411 
L 55.550385 104.351459 
L 55.795156 104.608507 
L 56.039927 104.865555 
L 56.284698 105.122604 
L 56.52947 105.379652 
" style="fill:none;stroke:#008000;stroke-linecap:square;stroke-width:0.4;"/>
   </g>
   <g id="line2d_46">
    <path clip-path="url(#p9ec5abb496)" d="M 46.817475 105.340225 
L 47.404951 105.418713 
L 47.992427 105.497201 
L 48.36971 105.680097 
L 48.746993 105.862992 
L 49.28452 106.123645 
L 49.666367 106.211807 
L 50.048214 106.29997 
L 50.430061 106.388132 
L 50.811908 106.476294 
L 51.14482 106.319592 
L 51.477731 106.162889 
L 51.810643 106.006187 
L 52.143555 105.849485 
L 52.437166 105.643864 
L 52.730777 105.438244 
L 53.024389 105.232624 
L 53.318 105.027003 
L 53.709609 104.919311 
L 54.101217 104.811618 
L 54.492826 104.703925 
L 54.884435 104.596232 
L 55.295693 104.792087 
L 55.706952 104.987942 
L 56.118211 105.183797 
L 56.52947 105.379652 
" style="fill:none;stroke:#000000;stroke-linecap:square;stroke-width:0.4;"/>
   </g>
   <g id="line2d_47">
    <path clip-path="url(#p9ec5abb496)" d="M 37.635907 53.92802 
L 37.486376 54.40123 
L 37.336845 54.874439 
L 37.187313 55.347649 
L 37.037782 55.820859 
L 36.88825 56.294069 
L 36.738719 56.767278 
L 36.589188 57.240488 
L 36.439656 57.713698 
L 36.281695 58.243036 
L 36.123733 58.772373 
L 36.006846 59.163718 
L 35.889959 59.555063 
L 35.773072 59.946408 
L 35.656186 60.337753 
L 35.479968 60.729417 
L 35.303751 61.121082 
L 35.127533 61.512746 
L 34.951316 61.90441 
L 34.775098 62.296075 
L 34.59888 62.687739 
L 34.422663 63.079403 
L 34.246445 63.471068 
L 33.89401 63.980236 
L 33.541575 64.489404 
L 33.18914 64.998572 
L 32.836705 65.50774 
L 32.48427 66.016908 
L 32.131835 66.526077 
L 31.7794 67.035245 
L 31.426965 67.544413 
L 31.069586 67.94096 
L 30.712206 68.337507 
L 30.354827 68.734054 
L 29.997448 69.130601 
L 29.640068 69.527148 
L 29.282689 69.923695 
L 28.92531 70.320242 
L 28.56793 70.716789 
L 28.381951 71.079112 
L 28.195972 71.441434 
L 28.009993 71.803757 
L 27.824013 72.166079 
L 27.745413 72.557789 
" style="fill:none;stroke:#ff0000;stroke-linecap:square;stroke-width:0.4;"/>
   </g>
   <g id="line2d_48">
    <path clip-path="url(#p9ec5abb496)" d="M 19.545593 69.875324 
L 20.019225 70.124935 
L 20.492857 70.374545 
L 20.966489 70.624155 
L 21.440121 70.873765 
L 21.572284 71.250736 
L 21.704448 71.627706 
L 21.836611 72.004677 
L 21.968774 72.381648 
L 22.100937 72.758618 
L 22.2331 73.135589 
L 22.365263 73.512559 
L 22.497426 73.88953 
L 22.693294 74.408464 
L 22.889162 74.927397 
L 23.08503 75.446331 
L 23.280897 75.965264 
L 23.510994 76.283506 
L 23.741091 76.601747 
L 23.971188 76.919989 
L 24.201285 77.23823 
L 24.431382 77.556472 
L 24.661479 77.874713 
L 24.891576 78.192955 
L 25.121673 78.511197 
L 25.635683 78.92732 
L 26.149693 79.343443 
L 26.663703 79.759567 
L 27.177713 80.17569 
L 27.691724 80.591813 
L 28.205734 81.007937 
L 28.719744 81.42406 
L 29.233754 81.840184 
L 29.527492 82.437514 
L 29.82123 83.034844 
L 30.114968 83.632174 
L 30.408706 84.229505 
L 30.692619 84.635863 
L 30.976533 85.042221 
L 31.260446 85.448579 
L 31.544359 85.854937 
L 31.828272 86.261295 
L 32.112185 86.667653 
L 32.396098 87.074011 
L 32.680011 87.480369 
L 32.890521 87.783917 
L 33.101031 88.087464 
L 33.311542 88.391012 
L 33.522052 88.69456 
L 33.732562 88.998108 
L 33.943072 89.301656 
L 34.153583 89.605204 
L 34.364093 89.908751 
L 34.643125 90.212299 
L 34.922157 90.515847 
L 35.201189 90.819395 
L 35.480222 91.122943 
L 35.759254 91.426491 
L 36.038286 91.730039 
L 36.317318 92.033586 
L 36.596351 92.337134 
L 37.187123 92.484619 
L 37.548559 92.574971 
L 37.909995 92.665324 
L 38.271431 92.755676 
L 38.632867 92.846029 
L 39.220217 92.953813 
L 39.807567 93.061597 
L 40.394916 93.169381 
L 40.982266 93.277165 
L 41.305416 93.561091 
L 41.628566 93.845017 
L 41.951716 94.128943 
L 42.274866 94.412868 
L 42.372736 94.745804 
L 42.470606 95.078739 
L 42.568477 95.411674 
L 42.666347 95.744609 
L 42.764218 96.146085 
L 42.862088 96.54756 
L 42.959959 96.949035 
L 43.057829 97.350511 
L 43.402277 97.68664 
L 43.746726 98.022769 
L 44.091174 98.358899 
L 44.435622 98.695028 
L 44.702864 98.956047 
L 45.055299 99.112749 
L 45.407734 99.269451 
L 45.760169 99.426153 
L 46.112605 99.582856 
L 46.572799 99.906026 
L 47.032993 100.229195 
L 47.493187 100.552365 
L 47.953381 100.875535 
L 48.305816 101.325928 
L 48.658251 101.776322 
L 49.010686 102.226715 
L 49.363121 102.677109 
L 49.666621 103.245052 
L 49.97012 103.812995 
L 50.27362 104.380938 
L 50.57712 104.948881 
L 50.635817 105.330734 
L 50.694514 105.712587 
L 50.753211 106.09444 
L 50.811908 106.476294 
" style="fill:none;stroke:#008000;stroke-linecap:square;stroke-width:0.4;"/>
   </g>
   <g id="line2d_49">
    <path clip-path="url(#p9ec5abb496)" d="M 65.898157 104.715242 
L 65.653481 105.334567 
L 65.408805 105.953892 
L 65.164129 106.573217 
L 64.919453 107.192543 
L 64.615699 107.799638 
L 64.038111 108.103004 
" style="fill:none;stroke:#008000;stroke-linecap:square;stroke-width:0.4;"/>
   </g>
   <g id="line2d_50">
    <path clip-path="url(#p9ec5abb496)" d="M 37.126778 38.752089 
L 37.576703 38.949404 
L 38.026628 39.146719 
L 38.476554 39.344034 
L 38.926479 39.541349 
L 39.229979 39.744506 
L 39.533479 39.947662 
L 39.836978 40.150818 
L 40.140478 40.353974 
L 40.443978 40.55713 
L 40.747478 40.760287 
L 41.050978 40.963443 
L 41.354478 41.166599 
L 41.624002 41.378653 
L 41.893526 41.590708 
L 42.16305 41.802763 
L 42.432574 42.014817 
L 42.702098 42.226872 
L 42.971622 42.438926 
L 43.241146 42.650981 
L 43.51067 42.863035 
L 43.901138 43.170234 
L 44.291606 43.477432 
L 44.577991 43.690399 
L 44.864376 43.903366 
L 45.150761 44.116334 
L 45.437146 44.329301 
L 45.723531 44.542268 
L 46.009917 44.755235 
L 46.296302 44.968202 
L 46.582687 45.18117 
L 46.942475 45.362331 
L 47.302263 45.543492 
L 47.662051 45.724653 
L 48.021839 45.905815 
L 48.381627 46.086976 
L 48.741415 46.268137 
L 49.101203 46.449299 
L 49.460991 46.63046 
L 49.867306 46.982926 
L 50.27362 47.335392 
L 50.679935 47.687858 
L 51.086249 48.040324 
L 51.338342 48.297372 
L 51.590434 48.55442 
L 51.842527 48.811468 
L 52.094619 49.068517 
L 52.346712 49.325565 
L 52.598804 49.582613 
L 52.850897 49.839661 
L 53.102989 50.09671 
L 53.430957 50.645031 
L 53.758924 51.193352 
L 54.086892 51.741672 
L 54.414859 52.289993 
L 54.698709 52.608235 
L 54.982559 52.926476 
L 55.266408 53.244718 
L 55.550258 53.56296 
L 55.858702 53.739192 
L 56.167146 53.915425 
L 56.47559 54.091658 
L 56.784034 54.267891 
L 57.121763 54.483642 
L 57.459493 54.699393 
L 57.830183 55.038899 
" style="fill:none;stroke:#000000;stroke-linecap:square;stroke-width:0.4;"/>
   </g>
   <g id="line2d_51">
    <path clip-path="url(#p9ec5abb496)" d="M 33.013176 29.377334 
L 33.463482 29.416578 
L 33.913787 29.455822 
L 34.246699 29.798431 
L 34.579611 30.141041 
L 34.907578 30.601291 
L 35.235546 31.061541 
L 35.563513 31.521791 
L 35.89148 31.982041 
L 36.087221 32.403047 
L 36.282962 32.824053 
L 36.478703 33.245059 
L 36.674444 33.666065 
L 36.826194 34.111622 
L 36.977944 34.557178 
L 37.129694 35.002734 
L 37.281444 35.448291 
L 37.281444 36.114161 
L 37.281444 36.780031 
L 37.242397 37.264741 
L 37.20335 37.74945 
L 37.164303 38.234159 
L 37.125257 38.718868 
" style="fill:none;stroke:#008000;stroke-linecap:square;stroke-width:0.4;"/>
   </g>
   <g id="line2d_52">
    <path clip-path="url(#p9ec5abb496)" d="M 32.9006 35.332932 
L 33.130063 35.594589 
L 33.359526 35.856246 
L 33.588989 36.117903 
L 33.818452 36.37956 
L 34.047915 36.641217 
L 34.277379 36.902874 
L 34.506842 37.164532 
L 34.736305 37.426189 
L 34.869704 37.83622 
L 35.003103 38.246252 
L 35.136502 38.656283 
L 35.269902 39.066314 
L 35.403301 39.476346 
L 35.5367 39.886377 
L 35.670099 40.296409 
L 35.803498 40.70644 
L 35.936898 41.116472 
L 36.070297 41.526503 
L 36.203696 41.936534 
L 36.337095 42.346566 
L 36.470494 42.756597 
L 36.603894 43.166629 
L 36.737293 43.57666 
L 36.870692 43.986692 
L 37.105607 44.588859 
L 37.340521 45.191026 
L 37.575435 45.793194 
L 37.81035 46.395361 
L 38.045264 46.997528 
L 38.280179 47.599696 
L 38.515093 48.201863 
L 38.750008 48.80403 
L 39.048627 49.193139 
L 39.347246 49.582248 
L 39.645865 49.971357 
L 39.944484 50.360466 
L 40.243103 50.749575 
L 40.541722 51.138684 
L 40.840341 51.527793 
L 41.13896 51.916902 
L 41.472125 52.054894 
" style="fill:none;stroke:#4169e1;stroke-linecap:square;stroke-width:0.4;"/>
   </g>
   <g id="line2d_53">
    <path clip-path="url(#p9ec5abb496)" d="M 34.853445 27.732371 
L 35.269521 27.957614 
L 35.685597 28.182856 
L 36.101674 28.408098 
L 36.51775 28.633341 
L 36.909485 28.995663 
L 37.301221 29.357986 
L 37.692956 29.720308 
L 38.084691 30.082631 
L 38.417476 30.337169 
L 38.750261 30.591708 
L 39.083046 30.846246 
L 39.415831 31.100785 
L 39.68263 31.377409 
L 39.949428 31.654034 
L 40.216226 31.930659 
L 40.483025 32.207283 
L 40.749823 32.483908 
L 41.016622 32.760532 
L 41.28342 33.037157 
L 41.550218 33.313782 
L 41.941827 33.813093 
L 42.333436 34.312405 
L 42.725044 34.811716 
L 43.116653 35.311028 
L 43.390868 35.732125 
L 43.665082 36.153223 
L 43.939297 36.57432 
L 44.213512 36.995417 
L 44.330906 37.367505 
L 44.4483 37.739593 
L 44.565694 38.111681 
L 44.683087 38.483769 
L 44.898605 39.002703 
L 45.114123 39.521636 
L 45.260929 39.903489 
L 45.407734 40.285343 
" style="fill:none;stroke:#4169e1;stroke-linecap:square;stroke-width:0.4;"/>
   </g>
   <g id="line2d_54">
    <path clip-path="url(#p9ec5abb496)" d="M 38.41735 35.507065 
L 38.755079 35.683298 
L 39.092808 35.859531 
L 39.430537 36.035764 
L 39.768266 36.211997 
L 40.316696 36.525402 
L 40.865125 36.838806 
L 41.193093 37.088508 
L 41.52106 37.338209 
L 41.849028 37.58791 
L 42.176995 37.837612 
L 42.500018 38.199752 
L 42.823042 38.561892 
L 43.263712 39.031907 
L 43.704383 39.501923 
L 44.262447 39.844715 
L 44.820512 40.187507 
L 45.407734 40.285343 
L 45.779946 40.618278 
L 45.936641 41.068763 
L 46.071022 41.212597 
L 46.523863 41.695572 
L 47.032993 41.979406 
L 47.542122 42.263241 
L 47.928786 42.591248 
L 48.315451 42.919255 
L 48.702115 43.247261 
L 49.088779 43.575268 
L 49.500038 43.771123 
L 49.911297 43.966978 
L 50.527931 44.133446 
L 51.144566 44.299913 
L 51.634172 44.583931 
L 52.123778 44.867948 
L 52.486101 45.259658 
L 52.848425 45.651368 
L 53.239907 46.199689 
L 53.631388 46.748009 
L 53.988768 47.027007 
L 54.346147 47.306004 
L 54.703526 47.585002 
L 55.060906 47.863999 
L 55.540623 48.334015 
L 56.02034 48.80403 
L 56.362887 49.31329 
L 56.705434 49.822549 
L 56.974704 50.410023 
L 57.243975 50.997497 
L 57.513245 51.58497 
L 57.782516 52.172444 
L 57.988145 52.79907 
L 58.193774 53.425697 
L 58.144586 54.003953 
L 57.987384 54.521426 
L 57.830183 55.038899 
L 57.772881 55.228001 
L 57.731806 55.43791 
L 57.684645 55.678485 
L 57.645091 55.95009 
L 57.616187 56.148318 
L 57.621004 56.525426 
L 57.625822 56.902533 
L 57.684645 57.240214 
L 57.743469 57.577895 
L 57.978257 58.184626 
" style="fill:none;stroke:#000000;stroke-linecap:square;stroke-width:0.4;"/>
   </g>
   <g id="line2d_55">
    <path clip-path="url(#p9ec5abb496)" d="M 45.000532 53.531564 
L 45.282481 54.017277 
L 45.564429 54.50299 
L 45.887452 54.826069 
L 46.210475 55.149148 
L 46.509157 55.433073 
L 46.80784 55.716999 
L 47.106522 56.000925 
L 47.405205 56.284851 
L 47.713585 56.579843 
L 48.021966 56.874834 
L 48.330347 57.169826 
L 48.638727 57.464818 
L 48.947108 57.75981 
L 49.255489 58.054801 
L 49.563869 58.349793 
L 49.87225 58.644785 
L 50.180631 58.939776 
L 50.489011 59.234768 
L 50.797392 59.52976 
L 51.105773 59.824752 
L 51.414153 60.119743 
L 51.722534 60.414735 
L 52.030915 60.709727 
L 52.339296 61.004719 
L 52.672144 61.342536 
L 53.004992 61.680354 
L 53.33784 62.018172 
L 53.670689 62.35599 
L 54.003537 62.693808 
L 54.336385 63.031626 
L 54.669234 63.369444 
L 55.002082 63.707262 
L 55.285995 64.047498 
L 55.569908 64.387735 
L 55.853821 64.727971 
L 56.137734 65.068207 
L 56.421647 65.408444 
L 56.70556 65.74868 
L 56.989473 66.088917 
L 57.273387 66.429153 
L 57.430081 66.884475 
L 57.586775 67.339797 
L 57.743469 67.795118 
L 57.900163 68.25044 
L 58.159545 68.833077 
L 58.418927 69.415713 
L 58.678309 69.99835 
L 58.937691 70.580986 
L 59.255897 71.090155 
L 59.574103 71.599323 
L 59.892309 72.108491 
L 60.210514 72.617659 
L 60.445429 73.0289 
L 60.680343 73.440141 
L 60.915258 73.851381 
L 61.150172 74.262622 
L 61.385087 74.673863 
L 61.620001 75.085103 
L 61.854916 75.496344 
L 62.08983 75.907585 
L 62.300404 76.357978 
L 62.510977 76.808372 
L 62.721551 77.258765 
L 62.932125 77.709159 
L 63.127865 78.16448 
L 63.323606 78.619802 
L 63.519347 79.075124 
L 63.715088 79.530446 
L 63.822847 80.166929 
L 63.930606 80.803412 
L 63.989176 81.439895 
L 64.047746 82.076378 
L 64.135855 82.541465 
L 64.223964 83.006552 
L 64.312073 83.471639 
L 64.400181 83.936726 
L 64.54217 84.485047 
L 64.684158 85.033368 
L 64.826146 85.581689 
L 64.968134 86.13001 
L 65.207993 86.644106 
L 65.447852 87.158203 
L 65.68771 87.672299 
L 65.927569 88.186396 
L 66.167428 88.673524 
L 66.407286 89.160651 
L 66.647145 89.647779 
L 66.887004 90.134906 
L 67.126863 90.622034 
L 67.366721 91.109162 
L 67.60658 91.596289 
L 67.846439 92.083417 
" style="fill:none;stroke:#4169e1;stroke-linecap:square;stroke-width:0.4;"/>
   </g>
   <g id="line2d_56">
    <path clip-path="url(#p9ec5abb496)" d="M 45.564429 105.810423 
L 45.388211 106.231429 
L 45.211993 106.652435 
L 45.035776 107.073442 
L 44.859558 107.494448 
L 44.800735 107.866536 
L 44.741911 108.238624 
L 44.683087 108.610711 
L 44.624264 108.982799 
L 44.683087 109.491968 
L 44.741911 110.001136 
L 44.800735 110.510304 
L 44.859558 111.019472 
L 45.182582 111.32302 
L 45.505605 111.626568 
L 45.828628 111.930116 
L 46.151651 112.233663 
L 46.46504 112.429518 
L 46.778428 112.625373 
L 47.091816 112.821228 
L 47.405205 113.017083 
L 47.796813 113.310866 
L 48.188422 113.604648 
L 48.58003 113.898431 
L 48.971639 114.192213 
L 49.324074 114.466374 
L 49.676509 114.740534 
L 50.028944 115.014695 
L 50.381379 115.288855 
L 50.743576 115.406313 
L 51.105773 115.523772 
L 51.46797 115.64123 
L 51.830166 115.758688 
L 52.202125 115.827228 
L 52.574083 115.895768 
L 52.946042 115.964308 
L 53.318 116.032848 
L 53.650912 115.876238 
L 53.983823 115.719627 
L 54.316735 115.563016 
L 54.649647 115.406405 
" style="fill:none;stroke:#008000;stroke-linecap:square;stroke-width:0.4;"/>
   </g>
   <g id="line2d_57">
    <path clip-path="url(#p9ec5abb496)" d="M 32.613074 29.29337 
L 33.042081 29.387556 
" style="fill:none;stroke:#008000;stroke-linecap:square;stroke-width:0.4;"/>
   </g>
   <g id="line2d_58">
    <path clip-path="url(#p9ec5abb496)" d="M 40.187639 40.407638 
L 40.173947 41.090666 
L 40.160255 41.773695 
L 40.277649 42.322015 
L 40.395043 42.870336 
L 40.737716 43.443208 
L 41.08039 44.016079 
L 41.423063 44.58895 
L 41.765736 45.161821 
L 41.968894 45.467788 
L 42.172051 45.773754 
L 42.375208 46.07972 
L 42.578365 46.385687 
L 42.781523 46.691653 
L 42.98468 46.99762 
L 43.187837 47.303586 
L 43.390994 47.609552 
L 43.748374 47.893478 
L 44.105753 48.177404 
L 44.463132 48.46133 
L 44.820512 48.745256 
L 45.383394 49.014579 
L 45.946275 49.283902 
L 46.509157 49.553226 
L 47.072039 49.822549 
L 47.537051 50.160322 
L 48.002062 50.498094 
L 48.467074 50.835866 
L 48.932085 51.173638 
L 49.28452 51.325412 
L 49.636955 51.477186 
L 49.98939 51.62896 
L 50.341825 51.780734 
L 50.782369 51.912977 
L 51.222913 52.04522 
L 51.663457 52.177464 
L 52.104001 52.309707 
L 52.51526 52.490777 
L 52.926518 52.671847 
L 53.337777 52.852917 
L 53.749036 53.033987 
L 54.028068 53.322841 
L 54.3071 53.611695 
L 54.586132 53.900549 
L 54.865165 54.189403 
L 55.193132 54.419574 
L 55.5211 54.649745 
L 55.849067 54.879915 
L 56.177035 55.110086 
L 56.245493 55.512018 
L 56.206446 56.158175 
L 56.137988 56.460445 
" style="fill:none;stroke:#000000;stroke-linecap:square;stroke-width:0.4;"/>
   </g>
   <g id="line2d_59">
    <path clip-path="url(#p9ec5abb496)" d="M 32.993399 31.395024 
L 33.115864 30.983783 
L 33.238329 30.572542 
L 33.277376 30.082996 
L 33.159728 29.735276 
L 33.042081 29.387556 
" style="fill:none;stroke:#008000;stroke-linecap:square;stroke-width:0.4;"/>
   </g>
   <g id="line2d_60">
    <path clip-path="url(#p9ec5abb496)" d="M 67.905262 96.127923 
L 67.494004 96.274677 
L 67.26378 96.558694 
L 67.033556 96.842711 
L 66.793095 97.398995 
L 66.552634 97.955279 
L 66.312173 98.511563 
L 66.071713 99.067847 
L 65.831252 99.62413 
L 65.590791 100.180414 
L 65.35033 100.736698 
L 65.109869 101.292982 
L 64.869408 101.849266 
L 64.628947 102.405549 
L 64.388486 102.961833 
L 64.148026 103.518117 
L 63.907565 104.074401 
L 63.667104 104.630685 
L 63.426643 105.186968 
L 63.186182 105.743252 
" style="fill:none;stroke:#008000;stroke-linecap:square;stroke-width:0.4;"/>
   </g>
   <g id="line2d_61">
    <path clip-path="url(#p9ec5abb496)" d="M 34.794621 27.888982 
L 35.019901 28.182765 
L 35.24518 28.476547 
L 35.47046 28.77033 
L 35.69574 29.064112 
L 35.959939 29.661351 
L 36.224139 30.25859 
L 36.449418 30.723677 
L 36.674698 31.188764 
L 36.899977 31.653851 
L 37.125257 32.118939 
L 37.335704 32.520414 
L 37.54615 32.921889 
L 37.756597 33.323365 
L 37.967044 33.72484 
L 38.07962 34.170396 
L 38.192197 34.615953 
L 38.304773 35.061509 
L 38.41735 35.507065 
L 38.466285 36.104304 
L 38.51522 36.701543 
L 38.642502 37.269578 
L 38.769785 37.837612 
L 38.808958 38.263546 
L 38.848132 38.689481 
L 38.887305 39.115415 
L 38.926479 39.541349 
" style="fill:none;stroke:#4169e1;stroke-linecap:square;stroke-width:0.4;"/>
   </g>
   <g id="line2d_62">
    <path clip-path="url(#p9ec5abb496)" d="M 32.644007 32.240869 
L 32.740356 32.581653 
L 32.836705 32.922437 
L 32.856228 33.274173 
L 32.875752 33.625908 
" style="fill:none;stroke:#008000;stroke-linecap:square;stroke-width:0.4;"/>
   </g>
   <g id="line2d_63">
    <path clip-path="url(#p9ec5abb496)" d="M 61.390031 74.683537 
L 61.834251 74.862234 
L 62.278472 75.040931 
L 62.722692 75.219628 
L 63.166912 75.398325 
L 63.587806 75.809566 
L 64.0087 76.220807 
L 64.282788 76.583129 
L 64.556876 76.945452 
L 64.830964 77.307774 
L 65.105052 77.670097 
L 65.217628 77.998104 
L 65.330204 78.326111 
L 65.442781 78.654118 
L 65.555357 78.982125 
L 65.741463 79.393365 
L 65.927569 79.804606 
L 66.113675 80.215847 
L 66.299781 80.627087 
L 66.632439 81.136347 
L 66.965097 81.645606 
L 67.126609 81.968685 
L 67.288121 82.291763 
L 67.449632 82.614842 
L 67.611144 82.937921 
L 67.826535 83.447089 
L 68.041926 83.956257 
L 68.257317 84.465425 
L 68.472708 84.974593 
L 68.536349 85.312457 
L 68.59999 85.65032 
L 68.663632 85.988184 
L 68.727273 86.326047 
L 68.722455 86.8009 
L 68.717638 87.275752 
L 68.71282 87.750605 
L 68.708003 88.225457 
L 68.600307 88.707702 
L 68.492612 89.189947 
L 68.384916 89.672192 
L 68.277221 90.154437 
L 68.169525 90.636682 
L 68.06183 91.118927 
L 67.954134 91.601172 
L 67.846439 92.083417 
L 67.675039 92.479964 
L 67.503638 92.876511 
L 67.332238 93.273058 
L 67.160838 93.669605 
L 66.872044 94.100194 
L 66.58325 94.530783 
L 66.294457 94.961372 
L 66.005663 95.391961 
L 65.760986 95.7447 
L 65.51631 96.09744 
L 65.271634 96.45018 
L 65.026958 96.80292 
L 64.703935 97.287629 
L 64.380912 97.772338 
L 64.057888 98.257047 
L 63.734865 98.741756 
L 63.460524 98.94692 
L 63.186182 99.152084 
L 62.873047 99.651852 
L 62.559913 100.15162 
L 62.462042 100.768572 
L 62.364172 101.385525 
L 62.33476 101.733154 
L 62.305348 102.080782 
L 62.275936 102.428411 
L 62.246524 102.77604 
L 62.314983 103.324361 
L 62.383441 103.872682 
L 62.520866 104.40129 
" style="fill:none;stroke:#4169e1;stroke-linecap:square;stroke-width:0.4;"/>
   </g>
   <g id="line2d_64">
    <path clip-path="url(#p9ec5abb496)" d="M 32.934576 31.91414 
L 32.807293 32.080607 
L 32.631329 32.227362 
L 32.366623 32.236488 
" style="fill:none;stroke:#008000;stroke-linecap:square;stroke-width:0.4;"/>
   </g>
   <g id="line2d_65">
    <path clip-path="url(#p9ec5abb496)" d="M 41.472125 52.054894 
L 41.951842 52.485848 
L 42.43156 52.916802 
L 42.979736 53.210494 
L 43.527912 53.504185 
L 43.890235 53.509113 
L 44.252559 53.514041 
L 44.614882 53.51897 
L 44.977206 53.523898 
L 45.437273 53.465123 
L 45.89734 53.406349 
L 46.357407 53.347574 
L 46.817475 53.288799 
L 47.209083 53.274105 
L 47.600692 53.259412 
L 47.992301 53.244718 
L 48.383909 53.230024 
L 48.743951 53.169424 
L 49.236472 53.086647 
L 49.728994 53.003869 
L 50.221516 52.921092 
L 50.714037 52.838314 
L 51.061528 52.706162 
L 51.409019 52.574011 
L 51.75651 52.441859 
L 52.104001 52.309707 
" style="fill:none;stroke:#008000;stroke-linecap:square;stroke-width:0.4;"/>
   </g>
   <g id="line2d_66">
    <path clip-path="url(#p9ec5abb496)" d="M 32.026358 28.897279 
L 32.069842 29.250019 
L 32.113326 29.602759 
L 32.15681 29.955499 
L 32.200294 30.308238 
L 32.249229 30.861488 
L 32.298164 31.414737 
L 32.332393 31.825612 
L 32.366623 32.236488 
L 32.288529 32.432891 
L 32.063376 32.677846 
L 31.661752 33.117014 
" style="fill:none;stroke:#008000;stroke-linecap:square;stroke-width:0.4;"/>
   </g>
   <g id="line2d_67">
    <path clip-path="url(#p9ec5abb496)" d="M 46.073558 106.006096 
L 46.298711 106.407571 
L 46.523863 106.809046 
L 46.749016 107.210522 
L 46.974169 107.611997 
L 47.326604 108.062391 
L 47.679039 108.512784 
L 48.031474 108.963177 
L 48.383909 109.413571 
L 48.75105 109.780776 
L 49.118191 110.147981 
L 49.485332 110.515187 
L 49.852473 110.882392 
L 50.219614 111.249597 
L 50.586755 111.616802 
L 50.953896 111.984008 
L 51.321037 112.351213 
L 51.69794 112.625373 
L 52.074842 112.899534 
L 52.451745 113.173694 
L 52.828648 113.447855 
L 53.205551 113.722015 
L 53.582453 113.996176 
L 53.959356 114.270336 
L 54.336259 114.544497 
" style="fill:none;stroke:#008000;stroke-linecap:square;stroke-width:0.4;"/>
   </g>
   <g id="line2d_68">
    <path clip-path="url(#p9ec5abb496)" d="M 57.731806 55.43791 
L 58.271868 55.472956 
L 58.859091 55.560936 
L 59.427044 55.834731 
L 59.840648 56.133351 
L 60.254252 56.43197 
L 60.667856 56.73059 
L 61.08146 57.029209 
L 61.495064 57.327829 
L 61.908668 57.626448 
L 62.322272 57.925068 
L 62.735877 58.223687 
L 63.054082 58.630091 
L 63.372288 59.036495 
L 63.690494 59.442898 
L 64.0087 59.849302 
L 64.10657 60.285002 
L 64.204441 60.720701 
L 64.302311 61.156401 
L 64.400181 61.592101 
L 64.466295 62.040076 
L 64.532408 62.488051 
L 64.598521 62.936026 
L 64.664635 63.384001 
L 64.730748 63.831975 
L 64.796861 64.27995 
L 64.862974 64.727925 
L 64.929088 65.1759 
L 64.946202 65.5651 
L 64.963317 65.954301 
L 64.980432 66.343501 
L 64.997546 66.732701 
L 65.014661 67.121901 
L 65.031776 67.511101 
L 65.04889 67.900301 
L 65.066005 68.289502 
L 64.977896 68.886832 
L 64.889787 69.484162 
L 64.801679 70.081492 
L 64.71357 70.678823 
" style="fill:none;stroke:#000000;stroke-linecap:square;stroke-width:0.4;"/>
   </g>
   <g id="line2d_69">
    <path clip-path="url(#p9ec5abb496)" d="M 57.978257 58.184626 
L 58.23523 58.480827 
L 58.492203 58.777028 
L 58.749177 59.073229 
L 59.00615 59.36943 
L 59.263123 59.665631 
L 59.520097 59.961832 
L 59.77707 60.258033 
L 60.034043 60.554234 
L 60.234729 60.926322 
L 60.435414 61.29841 
L 60.636099 61.670498 
L 60.836784 62.042586 
L 60.998296 62.556591 
L 61.159807 63.070596 
L 61.321319 63.584601 
L 61.48283 64.098607 
L 61.656639 64.497618 
L 61.830448 64.896629 
L 62.004257 65.29564 
L 62.178066 65.694651 
L 62.351874 66.093662 
L 62.525683 66.492674 
L 62.699492 66.891685 
L 62.873301 67.290696 
L 63.176801 67.814558 
L 63.480301 68.33842 
L 63.7838 68.862281 
L 64.0873 69.386143 
L 64.243868 69.709313 
L 64.400435 70.032483 
L 64.557002 70.355653 
L 64.71357 70.678823 
L 64.850741 71.276062 
L 64.987911 71.873301 
L 65.01707 72.362847 
L 65.046228 72.852393 
L 65.04141 73.395877 
L 65.036593 73.939361 
L 65.031776 74.482845 
L 65.026958 75.026329 
L 65.046481 75.687271 
L 65.066005 76.348213 
L 65.085528 77.009155 
L 65.105052 77.670097 
" style="fill:none;stroke:#4169e1;stroke-linecap:square;stroke-width:0.4;"/>
   </g>
   <g id="line2d_70">
    <path clip-path="url(#p9ec5abb496)" d="M 57.275415 77.034527 
L 57.274908 77.403694 
L 57.274401 77.772862 
L 57.273894 78.142029 
L 57.273387 78.511197 
L 57.097169 79.039987 
L 56.920951 79.568777 
L 56.715322 79.980018 
L 56.509693 80.391258 
L 56.304063 80.802499 
L 56.098434 81.21374 
L 55.818768 81.822843 
L 55.539102 82.431947 
" style="fill:none;stroke:#008000;stroke-linecap:square;stroke-width:0.4;"/>
   </g>
   <g id="line2d_71">
    <path clip-path="url(#p9ec5abb496)" d="M 56.151172 55.113737 
L 56.452897 55.347193 
L 56.754622 55.580649 
L 57.082463 55.776322 
L 57.410304 55.971994 
L 57.645091 55.95009 
" style="fill:none;stroke:#008000;stroke-linecap:square;stroke-width:0.4;"/>
   </g>
   <g id="line2d_72">
    <path clip-path="url(#p9ec5abb496)" d="M 39.768266 36.211997 
L 40.167957 36.566791 
L 40.567647 36.921584 
L 40.967338 37.276377 
L 41.367028 37.63117 
L 41.766719 37.985963 
L 42.166409 38.340757 
L 42.5661 38.69555 
L 42.96579 39.050343 
L 43.365481 39.405136 
L 43.765171 39.759929 
L 44.164862 40.114723 
L 44.564553 40.469516 
L 44.964243 40.824309 
L 45.363934 41.179102 
L 45.763624 41.533895 
L 46.163315 41.888689 
L 46.510425 42.041832 
L 46.857536 42.194974 
L 47.199829 42.229108 
L 47.542122 42.263241 
" style="fill:none;stroke:#4169e1;stroke-linecap:square;stroke-width:0.4;"/>
   </g>
   <g id="line2d_73">
    <path clip-path="url(#p9ec5abb496)" d="M 3.272727 76.651943 
L 3.53718 76.250559 
L 3.801633 75.849175 
L 4.066087 75.447791 
L 4.33054 75.046407 
L 4.800368 74.576209 
L 5.270197 74.106011 
L 5.407368 73.773258 
L 5.544539 73.440506 
L 5.573887 73.014571 
L 5.603236 72.588637 
L 5.632584 72.162703 
L 5.661933 71.736768 
L 5.691281 71.310834 
L 5.72063 70.884899 
L 5.749978 70.458965 
L 5.779327 70.033031 
L 5.661933 69.523771 
L 5.544539 69.014512 
L 5.466192 68.56421 
L 5.387845 68.113907 
L 5.524889 67.741819 
L 5.661933 67.369731 
L 5.798977 66.997644 
L 5.936021 66.625556 
L 6.073065 66.272998 
L 6.210109 65.920441 
L 6.347153 65.567884 
L 6.484197 65.215327 
L 6.680064 64.706159 
L 6.875932 64.19699 
L 7.0718 63.687822 
L 7.267668 63.178654 
L 7.486228 62.663736 
L 7.704788 62.148818 
L 8.171575 61.762949 
L 8.638361 61.37708 
L 9.245361 61.259531 
L 9.85236 61.141981 
L 10.368589 61.424903 
L 10.884818 61.707825 
L 10.973053 62.178206 
L 11.061289 62.648586 
L 11.157131 63.032265 
L 11.252973 63.415943 
L 11.255382 63.944095 
L 11.25779 64.472246 
L 11.260199 65.000397 
L 11.262608 65.528549 
L 11.370303 65.930024 
L 11.477999 66.331499 
L 11.585694 66.732975 
L 11.69339 67.13445 
L 11.801085 67.535925 
L 11.908781 67.937401 
L 12.016477 68.338876 
L 12.124172 68.740351 
L 12.555081 69.269141 
L 12.98599 69.797932 
L 13.416899 70.326722 
L 13.847808 70.855512 
L 14.161196 71.080663 
L 14.474584 71.305814 
L 14.787973 71.530965 
L 15.101361 71.756116 
L 15.541778 71.550496 
L 15.982195 71.344876 
L 16.422612 71.139255 
L 16.863029 70.933635 
L 17.205829 70.826033 
L 17.54863 70.718432 
L 17.89143 70.61083 
L 18.23423 70.503229 
L 18.562071 70.346253 
L 18.889911 70.189277 
L 19.217752 70.032301 
L 19.545593 69.875324 
" style="fill:none;stroke:#4169e1;stroke-linecap:square;stroke-width:0.4;"/>
   </g>
   <g id="line2d_74">
    <path clip-path="url(#p9ec5abb496)" d="M 20.549145 69.276625 
L 20.047369 69.575975 
L 19.545593 69.875324 
L 19.597063 70.320972 
L 19.648534 70.76662 
L 19.700005 71.212267 
L 19.751476 71.657915 
L 19.802946 72.103563 
L 19.854417 72.54921 
L 19.905888 72.994858 
L 19.957358 73.440506 
L 20.109108 73.851746 
L 20.260858 74.262987 
L 20.412608 74.674228 
L 20.564358 75.085468 
L 20.716108 75.496709 
L 20.867858 75.90795 
L 21.019608 76.319191 
L 21.171358 76.730431 
L 21.523793 77.200264 
L 21.749009 77.484236 
L 21.974225 77.768207 
L 22.199441 78.052179 
L 22.424657 78.33615 
L 22.649874 78.620121 
L 22.87509 78.904093 
L 23.100306 79.188064 
L 23.325522 79.472036 
L 23.756304 79.922521 
L 24.187086 80.373005 
L 24.617869 80.82349 
L 25.048651 81.273975 
L 25.53813 81.567757 
L 26.027609 81.86154 
L 26.517088 82.155322 
L 27.006567 82.449105 
L 27.378652 82.870019 
L 27.750737 83.290934 
L 28.122823 83.711849 
L 28.494908 84.132764 
L 28.729822 84.710563 
L 28.964737 85.288363 
L 29.199651 85.866162 
L 29.434566 86.443962 
L 29.689257 86.757184 
L 29.943948 87.070406 
L 30.19864 87.383628 
L 30.453331 87.69685 
L 30.815528 88.010254 
L 31.177725 88.323659 
L 31.539922 88.637063 
L 31.902118 88.950468 
L 32.166571 89.322556 
L 32.431024 89.694643 
L 32.695478 90.066731 
L 32.959931 90.438819 
L 33.297026 90.695183 
L 33.634121 90.951547 
L 33.971216 91.207911 
L 34.308312 91.464274 
L 34.592415 91.978919 
L 34.876518 92.493563 
L 35.160621 93.008207 
L 35.444725 93.522851 
L 35.651241 93.955174 
L 35.857758 94.387497 
L 36.064275 94.81982 
L 36.270792 95.252143 
L 36.430021 95.585443 
L 36.589251 95.918743 
L 36.986438 96.379815 
L 37.383625 96.840886 
L 37.780811 97.301957 
L 38.177998 97.763029 
L 38.433513 98.111069 
L 38.689029 98.459108 
L 38.944544 98.807148 
L 39.20006 99.155187 
L 39.455575 99.503227 
L 39.711091 99.851266 
L 39.966606 100.199306 
L 40.222121 100.547346 
L 40.799709 100.860659 
L 41.377297 101.173972 
L 41.954885 101.487285 
L 42.532473 101.800598 
L 43.088509 101.926727 
L 43.644545 102.052855 
L 43.983098 102.177569 
L 44.321651 102.302283 
L 44.660204 102.426997 
L 44.998758 102.55171 
L 45.337311 102.676424 
L 45.675864 102.801138 
L 46.014417 102.925852 
L 46.35297 103.050566 
L 46.666232 103.265951 
L 46.979493 103.481337 
L 47.292755 103.696723 
L 47.606016 103.912109 
L 47.891261 104.399829 
L 48.176505 104.88755 
L 48.461749 105.375271 
L 48.746993 105.862992 
" style="fill:none;stroke:#4169e1;stroke-linecap:square;stroke-width:0.4;"/>
   </g>
   <g id="line2d_75">
    <path clip-path="url(#p9ec5abb496)" d="M 5.544539 73.440506 
L 6.014495 73.401262 
L 6.48445 73.362018 
L 6.954406 73.322774 
L 7.424362 73.28353 
L 7.830676 73.200341 
L 8.236991 73.117153 
L 8.643305 73.033965 
L 9.04962 72.950777 
L 9.455934 72.867589 
L 9.862249 72.784401 
L 10.268563 72.701212 
L 10.674878 72.618024 
L 11.33094 72.490709 
L 11.987001 72.363395 
L 12.643063 72.23608 
L 13.299125 72.108765 
L 13.749684 72.020603 
L 14.200243 71.932441 
L 14.650802 71.844278 
L 15.101361 71.756116 
L 15.546849 71.981359 
L 15.992337 72.206601 
L 16.437825 72.431843 
L 16.883313 72.657086 
L 17.230804 72.725626 
L 17.578295 72.794166 
L 17.925786 72.862706 
L 18.273277 72.931246 
L 18.694297 73.058561 
L 19.115318 73.185876 
L 19.536338 73.313191 
L 19.957358 73.440506 
" style="fill:none;stroke:#000000;stroke-linecap:square;stroke-width:0.4;"/>
   </g>
   <g id="line2d_76">
    <path clip-path="url(#p9ec5abb496)" d="M 21.171358 76.730431 
L 20.57412 76.730431 
L 19.976882 76.730431 
L 19.379644 76.730431 
L 18.782406 76.730431 
L 18.302688 76.818593 
L 17.822971 76.906755 
L 17.343254 76.994918 
L 16.863536 77.08308 
L 16.315107 77.239782 
L 15.766677 77.396484 
L 15.218248 77.553186 
L 14.669818 77.709889 
L 14.297733 77.847106 
L 13.925648 77.984323 
L 13.553563 78.12154 
L 13.181477 78.258757 
L 12.809392 78.395974 
L 12.437307 78.533191 
L 12.065222 78.670409 
L 11.693136 78.807626 
L 11.012607 78.871146 
L 10.332078 78.934667 
L 9.651548 78.998187 
L 8.971019 79.061708 
L 8.437422 78.919517 
L 7.903826 78.777326 
L 7.370229 78.635135 
L 6.836632 78.492943 
L 6.263988 78.20847 
L 5.691345 77.923997 
L 5.118701 77.639523 
L 4.546057 77.35505 
L 4.227725 77.179273 
L 3.909392 77.003496 
L 3.59106 76.82772 
L 3.272727 76.651943 
" style="fill:none;stroke:#000000;stroke-linecap:square;stroke-width:0.4;"/>
   </g>
   <g id="line2d_77">
    <path clip-path="url(#p9ec5abb496)" d="M 3.272727 76.651943 
L 3.272727 77.043653 
L 3.272727 77.435363 
L 3.429421 77.944623 
L 3.586116 78.453882 
L 3.762333 78.767195 
L 3.938551 79.080508 
L 4.114768 79.393822 
L 4.290986 79.707135 
L 4.663071 79.883368 
L 5.035156 80.059601 
L 5.407241 80.235834 
L 5.779327 80.412067 
L 6.131888 80.509994 
L 6.48445 80.607922 
L 6.837012 80.705849 
L 7.189574 80.803777 
L 7.698703 81.038693 
L 8.207832 81.27361 
L 8.599568 81.743625 
L 8.991303 82.21364 
L 9.461132 82.566289 
L 9.930961 82.918937 
L 10.42044 83.339943 
L 10.909919 83.76095 
L 11.399398 84.181956 
L 11.888877 84.602962 
L 12.231677 84.779195 
L 12.574478 84.955428 
L 12.917278 85.131661 
L 13.260078 85.307894 
L 13.641925 85.650594 
L 14.023772 85.993295 
L 14.405619 86.335995 
L 14.787466 86.678696 
L 15.129505 87.054982 
L 15.471545 87.431268 
L 15.813584 87.807554 
L 16.155624 88.18384 
L 16.354407 88.402147 
L 16.726366 88.637154 
L 17.098324 88.872162 
L 17.470282 89.10717 
L 17.842241 89.342178 
L 18.2535 89.870876 
L 18.664758 90.399575 
L 19.076017 90.928274 
L 19.487276 91.456973 
L 19.774295 91.652281 
L 20.061314 91.847588 
L 20.40741 92.08287 
L 20.753507 92.318151 
L 21.099603 92.553433 
L 21.445699 92.788714 
L 21.66109 93.062875 
L 21.876482 93.337035 
L 22.091873 93.611195 
L 22.307264 93.885356 
L 22.522655 94.159516 
L 22.738046 94.433677 
L 22.953437 94.707837 
L 23.168828 94.981998 
L 23.580087 95.236627 
L 23.991345 95.491257 
L 24.402604 95.745887 
L 24.813863 96.000517 
L 25.097776 96.294253 
L 25.381689 96.58799 
L 25.665602 96.881727 
L 25.949515 97.175464 
L 26.233428 97.469201 
L 26.517341 97.762938 
L 26.801255 98.056674 
L 27.085168 98.350411 
L 27.574773 98.663725 
L 28.064379 98.977038 
L 28.553985 99.290351 
L 29.043591 99.603664 
L 29.650337 99.897355 
L 30.257083 100.191047 
L 30.903383 100.357514 
L 31.549683 100.523982 
L 32.195983 100.690449 
L 32.842283 100.856917 
L 33.30235 101.013619 
L 33.762418 101.170321 
L 34.222485 101.327024 
L 34.682552 101.483726 
L 35.20157 101.385798 
L 35.720587 101.287871 
L 36.239605 101.189943 
L 36.758623 101.092016 
L 37.115115 100.966161 
L 37.471607 100.840307 
L 37.828098 100.714452 
L 38.18459 100.588597 
L 38.541082 100.462743 
L 38.897574 100.336888 
L 39.254066 100.211034 
L 39.610558 100.085179 
" style="fill:none;stroke:#4169e1;stroke-linecap:square;stroke-width:0.4;"/>
   </g>
   <g id="line2d_78">
    <path clip-path="url(#p9ec5abb496)" d="M 20.061314 91.847588 
L 20.524931 91.769556 
L 20.988548 91.691525 
L 21.452165 91.613493 
L 21.915782 91.535461 
L 22.385738 91.594236 
L 22.855693 91.653011 
L 23.325649 91.711785 
L 23.795605 91.77056 
L 24.157865 91.927217 
L 24.520125 92.083873 
L 24.882385 92.24053 
L 25.244645 92.397187 
L 25.606905 92.553843 
L 25.969165 92.7105 
L 26.331426 92.867156 
L 26.693686 93.023813 
L 27.163515 93.141363 
L 27.633344 93.258912 
L 28.103299 93.35684 
L 28.573255 93.454767 
L 29.043211 93.552694 
L 29.513166 93.650622 
L 29.983122 93.846386 
L 30.453078 94.042149 
L 30.923033 94.237913 
L 31.392989 94.433677 
L 31.755313 94.629532 
L 32.117636 94.825387 
L 32.47996 95.021242 
L 32.842283 95.217097 
L 33.361174 95.256249 
L 33.880065 95.295402 
L 34.398956 95.334555 
L 34.917847 95.373708 
L 35.594319 95.312925 
L 36.270792 95.252143 
" style="fill:none;stroke:#4169e1;stroke-linecap:square;stroke-width:0.4;"/>
   </g>
   <g id="line2d_79">
    <path clip-path="url(#p9ec5abb496)" d="M 23.795605 91.77056 
L 24.26556 91.515931 
L 24.735516 91.261301 
L 25.205472 91.006671 
L 25.675427 90.752041 
L 26.262904 90.71298 
L 26.85038 90.673918 
L 27.281162 90.810999 
L 27.711944 90.948079 
L 28.142726 91.085159 
L 28.573508 91.222239 
L 28.886833 91.408283 
L 29.200158 91.594327 
L 29.513483 91.780371 
L 29.826808 91.966415 
L 30.140133 92.152459 
L 30.453458 92.338503 
L 30.766783 92.524547 
L 31.080108 92.710591 
L 31.625685 92.812124 
L 32.171262 92.913656 
L 32.716839 93.015188 
L 33.262416 93.116721 
L 33.807993 93.218253 
L 34.35357 93.319786 
L 34.899148 93.421318 
L 35.444725 93.522851 
L 35.880324 93.263293 
L 36.315924 93.003735 
L 36.751523 92.744177 
L 37.187123 92.484619 
" style="fill:none;stroke:#000000;stroke-linecap:square;stroke-width:0.4;"/>
   </g>
   <g id="line2d_80">
    <path clip-path="url(#p9ec5abb496)" d="M 16.155624 88.18384 
L 16.685798 87.862222 
L 17.215971 87.540604 
L 17.582986 87.515506 
L 17.95 87.490408 
L 18.317014 87.46531 
L 18.684028 87.440212 
L 19.048824 87.452761 
L 19.41362 87.46531 
L 19.778415 87.477859 
L 20.143211 87.490408 
L 20.508007 87.502957 
L 20.872802 87.515506 
L 21.237598 87.528055 
L 21.602394 87.540604 
L 22.047565 87.632097 
L 22.492736 87.72359 
L 22.937907 87.815084 
L 23.383078 87.906577 
L 23.828249 87.99807 
L 24.27342 88.089564 
L 24.718591 88.181057 
L 25.163763 88.27255 
L 25.565767 88.363724 
L 25.967771 88.454898 
L 26.369775 88.546072 
L 26.771779 88.637246 
L 27.104691 88.75475 
L 27.437603 88.872253 
L 27.770514 88.989757 
L 28.103426 89.107261 
L 28.436338 89.224765 
L 28.769249 89.342269 
L 29.102161 89.459773 
L 29.435073 89.577277 
L 30.044228 89.813151 
L 30.653383 90.049026 
L 31.262537 90.284901 
L 31.871692 90.520775 
L 32.480847 90.75665 
L 33.090002 90.992525 
L 33.699157 91.2284 
L 34.308312 91.464274 
" style="fill:none;stroke:#000000;stroke-linecap:square;stroke-width:0.4;"/>
   </g>
   <g id="line2d_81">
    <path clip-path="url(#p9ec5abb496)" d="M 8.207832 81.27361 
L 8.564324 81.317326 
L 8.920816 81.361042 
L 9.277308 81.404758 
L 9.6338 81.448474 
L 9.990292 81.49219 
L 10.346784 81.535906 
L 10.703276 81.579622 
L 11.059767 81.623338 
L 11.579292 81.825901 
L 12.098817 82.028464 
L 12.618342 82.231026 
L 13.137867 82.433589 
L 13.657391 82.636152 
L 14.176916 82.838715 
L 14.696441 83.041278 
L 15.215966 83.243841 
L 15.847813 83.284728 
L 16.355041 83.570205 
L 16.862269 83.855683 
L 17.369496 84.14116 
L 17.876724 84.426637 
L 18.214263 84.596345 
L 18.551802 84.766052 
L 18.889341 84.93576 
L 19.22688 85.105467 
L 19.564419 85.275175 
L 19.901958 85.444883 
L 20.239497 85.61459 
L 20.577036 85.784298 
L 20.923766 85.96377 
L 21.270496 86.143243 
L 21.617226 86.322716 
L 21.963956 86.502189 
L 22.310687 86.681662 
L 22.657417 86.861135 
L 23.004147 87.040608 
L 23.350877 87.220081 
L 23.804099 87.483198 
L 24.25732 87.746315 
L 24.710541 88.009433 
L 25.163763 88.27255 
" style="fill:none;stroke:#4169e1;stroke-linecap:square;stroke-width:0.4;"/>
   </g>
   <g id="line2d_82">
    <path clip-path="url(#p9ec5abb496)" d="M 11.888877 84.602962 
L 12.363524 84.530953 
L 12.83817 84.458945 
L 13.312816 84.386937 
L 13.787463 84.314929 
L 14.144589 84.047157 
L 14.501714 83.779385 
L 14.85884 83.511613 
L 15.215966 83.243841 
L 15.514902 83.536118 
L 15.813838 83.828394 
L 16.112774 84.120671 
L 16.41171 84.412948 
L 16.710645 84.705224 
L 17.009581 84.997501 
L 17.308517 85.289777 
L 17.607453 85.582054 
L 17.876597 86.046594 
L 18.145741 86.511133 
L 18.414885 86.975673 
L 18.684028 87.440212 
" style="fill:none;stroke:#008000;stroke-linecap:square;stroke-width:0.4;"/>
   </g>
   <g id="line2d_83">
    <path clip-path="url(#p9ec5abb496)" d="M 36.270792 95.252143 
L 36.777195 95.414229 
L 37.283599 95.576316 
L 37.790003 95.738403 
L 38.296406 95.90049 
L 38.80281 96.062577 
L 39.309213 96.224664 
L 39.815617 96.386751 
L 40.32202 96.548838 
L 40.836221 96.817111 
L 41.350421 97.085385 
L 41.864621 97.353659 
L 42.378821 97.621933 
L 42.893021 97.890207 
L 43.407222 98.158481 
L 43.921422 98.426755 
L 44.435622 98.695028 
" style="fill:none;stroke:#008000;stroke-linecap:square;stroke-width:0.4;"/>
   </g>
   <g id="line2d_84">
    <path clip-path="url(#p9ec5abb496)" d="M 43.554281 64.512585 
L 43.458185 65.024948 
L 43.36209 65.53731 
L 43.29642 66.084171 
L 43.230751 66.631031 
L 43.230751 67.309131 
L 43.230751 67.987231 
L 43.449565 68.468381 
L 43.668379 68.949531 
L 43.899743 69.264943 
L 44.131108 69.580356 
L 44.362473 69.895768 
L 44.593838 70.21118 
" style="fill:none;stroke:#000000;stroke-linecap:square;stroke-width:0.4;"/>
   </g>
   <g id="line2d_85">
    <path clip-path="url(#p9ec5abb496)" d="M 36.123733 58.772373 
L 35.718813 58.808514 
L 35.313893 58.844655 
L 34.821878 59.008659 
L 34.329863 59.172662 
L 33.837849 59.336666 
L 33.345834 59.500669 
L 32.886401 59.894387 
L 32.426968 60.288105 
L 32.197378 60.703726 
L 31.967788 61.119348 
L 31.738198 61.534969 
L 31.508608 61.95059 
L 31.350076 62.278643 
L 31.191543 62.606695 
L 31.033011 62.934748 
L 30.874478 63.2628 
L 30.715946 63.590853 
L 30.557414 63.918906 
L 30.398881 64.246958 
L 30.240349 64.575011 
L 29.988827 65.176539 
L 29.737305 65.778068 
L 29.485783 66.379596 
L 29.234261 66.981125 
L 29.048345 67.424034 
L 28.862429 67.866944 
L 28.676513 68.309854 
L 28.490598 68.752763 
L 28.304682 69.195673 
L 28.118766 69.638583 
L 27.93285 70.081492 
L 27.746934 70.524402 
" style="fill:none;stroke:#ff0000;stroke-dasharray:1.48,0.64;stroke-dashoffset:0;stroke-width:0.4;"/>
   </g>
   <g id="line2d_86">
    <path clip-path="url(#p9ec5abb496)" d="M 34.246445 63.471068 
L 34.177606 63.893397 
L 34.108767 64.315726 
L 34.039929 64.738056 
L 33.97109 65.160385 
L 33.902251 65.582715 
L 33.833412 66.005044 
L 33.764573 66.427373 
L 33.695734 66.849703 
L 33.608259 67.298088 
L 33.520784 67.746474 
L 33.433309 68.19486 
L 33.345834 68.643245 
L 33.203593 69.277538 
L 33.061351 69.911831 
L 32.919109 70.546123 
L 32.776867 71.180416 
L 32.793285 71.5468 
L 32.809702 71.913184 
L 32.826119 72.279568 
L 32.842537 72.645951 
L 32.858954 73.012335 
L 32.875372 73.378719 
L 32.891789 73.745103 
L 32.908206 74.111487 
L 32.842664 74.625401 
L 32.777121 75.139315 
L 32.711578 75.653229 
L 32.646035 76.167143 
L 32.687998 76.542973 
L 32.72996 76.918802 
L 32.771923 77.294632 
L 32.813886 77.670462 
" style="fill:none;stroke:#ff0000;stroke-dasharray:1.48,0.64;stroke-dashoffset:0;stroke-width:0.4;"/>
   </g>
   <g id="line2d_87">
    <path clip-path="url(#p9ec5abb496)" d="M 44.593838 70.21118 
L 44.613868 70.726919 
L 44.633899 71.242659 
L 44.653929 71.758398 
L 44.67396 72.274137 
L 44.641252 72.941194 
L 44.608544 73.608251 
L 44.575836 74.275308 
L 44.543128 74.942365 
L 44.586865 75.45637 
L 44.630602 75.970375 
L 44.67434 76.48438 
L 44.718077 76.998386 
L 44.652471 77.353818 
L 44.586865 77.70925 
L 44.521259 78.064682 
L 44.455653 78.420114 
L 44.390046 78.775546 
L 44.32444 79.130978 
L 44.258834 79.48641 
L 44.193228 79.841842 
L 44.193228 80.388612 
L 44.193228 80.935381 
L 44.193228 81.48215 
L 44.193228 82.02892 
L 44.083821 82.685116 
L 43.974414 83.341312 
L 43.865007 83.997509 
L 43.7556 84.653705 
L 43.865007 85.123994 
L 43.974414 85.594284 
L 44.083821 86.064573 
L 44.193228 86.534862 
L 44.138334 87.12334 
L 44.083441 87.711817 
L 44.028547 88.300295 
L 43.973653 88.888772 
" style="fill:none;stroke:#ff0000;stroke-dasharray:1.48,0.64;stroke-dashoffset:0;stroke-width:0.4;"/>
   </g>
   <g id="line2d_88">
    <path clip-path="url(#p9ec5abb496)" d="M 40.89758 58.666141 
L 40.659496 59.108138 
L 40.421412 59.550135 
L 40.183328 59.992132 
L 39.945244 60.434129 
L 39.651253 60.813244 
L 39.357261 61.19236 
L 39.063269 61.571475 
L 38.769278 61.95059 
L 38.583425 62.530124 
L 38.397573 63.109658 
L 38.21172 63.689191 
L 38.025868 64.268725 
L 37.850918 64.749966 
L 37.675968 65.231207 
L 37.501018 65.712448 
L 37.326069 66.193689 
L 37.162022 66.838933 
L 36.997974 67.484178 
L 36.833927 68.129422 
L 36.66988 68.774667 
L 36.61524 69.233913 
L 36.5606 69.693159 
L 36.50596 70.152405 
L 36.45132 70.611652 
L 36.298175 71.191276 
L 36.145031 71.770901 
L 35.991886 72.350526 
L 35.838742 72.930151 
L 35.609152 73.422253 
L 35.379562 73.914354 
L 35.149972 74.406456 
L 34.920382 74.898557 
L 34.887548 75.248559 
L 34.854713 75.598561 
L 34.821878 75.948563 
L 34.789043 76.298565 
L 34.734403 76.670379 
L 34.679763 77.042193 
L 34.625123 77.414007 
L 34.570483 77.785821 
L 34.640463 78.221521 
L 34.710443 78.657221 
L 34.780423 79.09292 
L 34.850402 79.52862 
" style="fill:none;stroke:#ff0000;stroke-dasharray:1.48,0.64;stroke-dashoffset:0;stroke-width:0.4;"/>
   </g>
   <g id="line2d_89">
    <path clip-path="url(#p9ec5abb496)" d="M 48.743951 53.169424 
L 49.158886 53.571173 
L 49.573821 53.972922 
L 49.988756 54.374672 
L 50.403692 54.776421 
L 50.709981 55.170139 
L 51.016269 55.563856 
L 51.398877 55.902815 
L 51.781485 56.241774 
L 52.164092 56.580732 
L 52.5467 56.919691 
L 52.787319 57.18217 
L 53.027938 57.444648 
L 53.268558 57.707127 
L 53.509177 57.969605 
L 53.859077 58.2758 
L 54.208976 58.581994 
L 54.558876 58.888189 
L 54.908775 59.194383 
L 55.253477 59.718884 
L 55.598179 60.243385 
L 55.942881 60.767886 
L 56.287583 61.292386 
" style="fill:none;stroke:#000000;stroke-dasharray:1.48,0.64;stroke-dashoffset:0;stroke-width:0.4;"/>
   </g>
   <g id="line2d_90">
    <path clip-path="url(#p9ec5abb496)" d="M 15.847813 83.284728 
L 16.263763 83.123919 
L 16.679712 82.96311 
L 17.095662 82.802301 
L 17.511611 82.641491 
L 17.894346 82.586824 
L 18.27708 82.532156 
L 18.659814 82.477488 
L 19.042549 82.42282 
L 19.534563 82.389965 
L 20.026578 82.357109 
L 20.518592 82.324254 
L 21.010607 82.291398 
L 21.557388 82.357018 
L 22.10417 82.422638 
L 22.650951 82.488257 
L 23.197733 82.553877 
L 23.766446 82.696068 
L 24.33516 82.838259 
L 24.903873 82.98045 
L 25.472587 83.122641 
L 25.850377 83.248907 
L 26.228167 83.375172 
L 26.605957 83.501437 
L 26.983747 83.627702 
L 27.361538 83.753968 
L 27.739328 83.880233 
L 28.117118 84.006498 
L 28.494908 84.132764 
" style="fill:none;stroke:#ff0000;stroke-dasharray:1.48,0.64;stroke-dashoffset:0;stroke-width:0.4;"/>
   </g>
  </g>
 </g>
 <defs>
  <clipPath id="p9ec5abb496">
   <rect height="121.558222" width="72" x="0" y="0"/>
  </clipPath>
 </defs>
</svg>
