<?xml version="1.0" encoding="utf-8" standalone="no"?>
<!DOCTYPE svg PUBLIC "-//W3C//DTD SVG 1.1//EN"
  "http://www.w3.org/Graphics/SVG/1.1/DTD/svg11.dtd">
<svg height="72pt" version="1.1" viewBox="0 0 61.755062 72" width="61.755062pt" xmlns="http://www.w3.org/2000/svg" xmlns:xlink="http://www.w3.org/1999/xlink">
 <metadata>
  <rdf:RDF xmlns:cc="http://creativecommons.org/ns#" xmlns:dc="http://purl.org/dc/elements/1.1/" xmlns:rdf="http://www.w3.org/1999/02/22-rdf-syntax-ns#">
   <cc:Work>
    <dc:type rdf:resource="http://purl.org/dc/dcmitype/StillImage"/>
    <dc:date>2022-04-19T00:57:20.061694</dc:date>
    <dc:format>image/svg+xml</dc:format>
    <dc:creator>
     <cc:Agent>
      <dc:title>Matplotlib v3.4.3, https://matplotlib.org/</dc:title>
     </cc:Agent>
    </dc:creator>
   </cc:Work>
  </rdf:RDF>
 </metadata>
 <defs>
  <style type="text/css">*{stroke-linecap:butt;stroke-linejoin:round;}</style>
 </defs>
 <g id="figure_1">
  <g id="patch_1">
   <path d="M 0 72 
L 61.755062 72 
L 61.755062 0 
L 0 0 
z
" style="fill:#ffffff;"/>
  </g>
  <g id="axes_1">
   <g id="patch_2">
    <path clip-path="url(#pd8b4f03d2a)" d="M 36.195774 43.337863 
L 36.195774 43.337863 
L 36.656359 43.995783 
L 37.116944 44.653703 
L 37.57753 45.311623 
L 38.038115 45.969542 
L 37.782264 46.839196 
L 37.526413 47.708849 
L 37.270563 48.578503 
L 37.014712 49.448156 
L 36.835333 50.000488 
L 36.655954 50.552821 
L 36.476306 49.838848 
L 36.296657 49.124876 
L 35.888267 48.382225 
L 36.019902 47.866765 
L 36.151536 47.351304 
L 36.28317 46.835844 
L 36.414805 46.320383 
L 36.107838 45.816096 
L 35.800871 45.311809 
L 35.340151 44.697651 
L 34.87943 44.083493 
L 34.758856 43.480509 
L 34.638281 42.877524 
L 34.517706 42.27454 
L 34.397131 41.671555 
L 34.430039 41.057398 
L 34.462948 40.44324 
L 34.495857 39.829082 
L 34.528765 39.214924 
L 34.500442 38.509146 
L 34.472119 37.803367 
L 34.346959 36.963509 
L 34.221798 36.123651 
L 34.185653 35.443571 
L 34.149507 34.763491 
L 34.113362 34.083411 
L 34.077216 33.40333 
L 33.975928 32.904164 
L 33.87464 32.404998 
L 33.773351 31.905832 
L 33.672063 31.406666 
L 33.570775 30.9075 
L 33.469486 30.408334 
L 33.368198 29.909167 
L 33.26691 29.410001 
L 32.991907 28.831226 
L 32.716905 28.25245 
L 32.441902 27.673674 
L 32.1669 27.094898 
L 31.660593 26.443869 
L 31.154287 25.792839 
L 31.328001 25.288552 
L 31.501715 24.784265 
L 32.31337 25.3325 
L 33.125025 25.880736 
L 33.585476 26.560816 
L 34.045926 27.240896 
L 34.228137 28.017252 
L 34.410348 28.793609 
L 34.592559 29.569965 
L 34.77477 30.346322 
L 34.875519 31.152474 
L 34.976268 31.958626 
L 35.077017 32.764778 
L 35.177766 33.57093 
L 35.328956 34.188067 
L 35.480147 34.805204 
L 35.631338 35.422342 
L 35.782528 36.039479 
L 35.863856 36.844327 
L 35.945183 37.649176 
L 36.02651 38.454024 
L 36.107838 39.258872 
L 36.052945 39.851056 
L 35.998053 40.44324 
L 35.94316 41.035423 
L 35.888267 41.627607 
z
" style="fill:#ff0000;opacity:0.1;"/>
   </g>
   <g id="patch_3">
    <path clip-path="url(#pd8b4f03d2a)" d="M 36.195774 43.337863 
L 36.195774 43.337863 
L 36.656359 43.995783 
L 37.116944 44.653703 
L 37.57753 45.311623 
L 38.038115 45.969542 
L 37.782264 46.839196 
L 37.526413 47.708849 
L 37.270563 48.578503 
L 37.014712 49.448156 
L 36.835333 50.000488 
L 36.655954 50.552821 
L 36.476306 49.838848 
L 36.296657 49.124876 
L 35.888267 48.382225 
L 36.019902 47.866765 
L 36.151536 47.351304 
L 36.28317 46.835844 
L 36.414805 46.320383 
L 36.107838 45.816096 
L 35.800871 45.311809 
L 35.340151 44.697651 
L 34.87943 44.083493 
L 34.758856 43.480509 
L 34.638281 42.877524 
L 34.517706 42.27454 
L 34.397131 41.671555 
L 34.430039 41.057398 
L 34.462948 40.44324 
L 34.495857 39.829082 
L 34.528765 39.214924 
L 34.500442 38.509146 
L 34.472119 37.803367 
L 34.346959 36.963509 
L 34.221798 36.123651 
L 34.185653 35.443571 
L 34.149507 34.763491 
L 34.113362 34.083411 
L 34.077216 33.40333 
L 33.975928 32.904164 
L 33.87464 32.404998 
L 33.773351 31.905832 
L 33.672063 31.406666 
L 33.570775 30.9075 
L 33.469486 30.408334 
L 33.368198 29.909167 
L 33.26691 29.410001 
L 32.991907 28.831226 
L 32.716905 28.25245 
L 32.441902 27.673674 
L 32.1669 27.094898 
L 31.660593 26.443869 
L 31.154287 25.792839 
L 31.328001 25.288552 
L 31.501715 24.784265 
L 32.31337 25.3325 
L 33.125025 25.880736 
L 33.585476 26.560816 
L 34.045926 27.240896 
L 34.228137 28.017252 
L 34.410348 28.793609 
L 34.592559 29.569965 
L 34.77477 30.346322 
L 34.875519 31.152474 
L 34.976268 31.958626 
L 35.077017 32.764778 
L 35.177766 33.57093 
L 35.328956 34.188067 
L 35.480147 34.805204 
L 35.631338 35.422342 
L 35.782528 36.039479 
L 35.863856 36.844327 
L 35.945183 37.649176 
L 36.02651 38.454024 
L 36.107838 39.258872 
L 36.052945 39.851056 
L 35.998053 40.44324 
L 35.94316 41.035423 
L 35.888267 41.627607 
z
" style="fill:none;stroke:#ff0000;stroke-dasharray:1.48,0.64;stroke-dashoffset:0;stroke-linejoin:miter;stroke-width:0.4;"/>
   </g>
   <g id="patch_4">
    <path clip-path="url(#pd8b4f03d2a)" d="M 31.481214 35.138913 
L 31.481214 35.138913 
L 31.597743 34.73295 
L 31.797892 34.154547 
L 31.998041 33.576144 
L 32.19819 32.997741 
L 32.398339 32.419337 
L 32.384043 31.652478 
L 32.369746 30.885619 
L 32.326318 30.133285 
L 32.282889 29.380951 
L 31.921165 28.599566 
L 31.55944 27.818182 
L 31.15051 27.5206 
L 30.741581 27.223019 
L 30.500431 28.078519 
L 30.259281 28.93402 
L 30.692218 29.70721 
L 31.125154 30.480401 
L 31.096292 31.290836 
L 31.06743 32.101271 
L 30.805779 32.809285 
L 30.544129 33.517298 
L 30.741581 34.043559 
L 30.939032 34.569821 
z
" style="fill:#4169e1;opacity:0.1;"/>
   </g>
   <g id="patch_5">
    <path clip-path="url(#pd8b4f03d2a)" d="M 31.481214 35.138913 
L 31.481214 35.138913 
L 31.597743 34.73295 
L 31.797892 34.154547 
L 31.998041 33.576144 
L 32.19819 32.997741 
L 32.398339 32.419337 
L 32.384043 31.652478 
L 32.369746 30.885619 
L 32.326318 30.133285 
L 32.282889 29.380951 
L 31.921165 28.599566 
L 31.55944 27.818182 
L 31.15051 27.5206 
L 30.741581 27.223019 
L 30.500431 28.078519 
L 30.259281 28.93402 
L 30.692218 29.70721 
L 31.125154 30.480401 
L 31.096292 31.290836 
L 31.06743 32.101271 
L 30.805779 32.809285 
L 30.544129 33.517298 
L 30.741581 34.043559 
L 30.939032 34.569821 
z
" style="fill:none;stroke:#4169e1;stroke-dasharray:1.48,0.64;stroke-dashoffset:0;stroke-linejoin:miter;stroke-width:0.4;"/>
   </g>
   <g id="patch_6">
    <path clip-path="url(#pd8b4f03d2a)" d="M 29.751086 53.80052 
L 29.751086 53.80052 
L 29.239654 53.862345 
L 28.728223 53.924171 
L 28.216791 53.985996 
L 27.705359 54.047822 
L 27.617693 54.596057 
L 27.530026 55.144293 
L 27.44236 55.692528 
L 27.354694 56.240763 
L 27.22306 56.73425 
L 27.091425 57.227736 
L 26.959791 57.721223 
L 26.828157 58.214709 
L 26.597864 58.828774 
L 26.367571 59.442838 
L 26.137279 60.056903 
L 25.906986 60.670968 
L 25.676693 61.285032 
L 25.446401 61.899097 
L 25.216108 62.513162 
L 24.985815 63.127226 
L 25.863557 63.434119 
L 26.093783 62.825548 
L 26.324008 62.216977 
L 26.554233 61.608406 
L 26.784458 60.999834 
L 27.014683 60.391263 
L 27.244909 59.782692 
L 27.475134 59.174121 
L 27.705359 58.56555 
L 27.902811 57.973366 
L 28.100262 57.381183 
L 28.297714 56.788999 
L 28.495165 56.196815 
z
" style="fill:#ff0000;opacity:0.1;"/>
   </g>
   <g id="patch_7">
    <path clip-path="url(#pd8b4f03d2a)" d="M 29.751086 53.80052 
L 29.751086 53.80052 
L 29.239654 53.862345 
L 28.728223 53.924171 
L 28.216791 53.985996 
L 27.705359 54.047822 
L 27.617693 54.596057 
L 27.530026 55.144293 
L 27.44236 55.692528 
L 27.354694 56.240763 
L 27.22306 56.73425 
L 27.091425 57.227736 
L 26.959791 57.721223 
L 26.828157 58.214709 
L 26.597864 58.828774 
L 26.367571 59.442838 
L 26.137279 60.056903 
L 25.906986 60.670968 
L 25.676693 61.285032 
L 25.446401 61.899097 
L 25.216108 62.513162 
L 24.985815 63.127226 
L 25.863557 63.434119 
L 26.093783 62.825548 
L 26.324008 62.216977 
L 26.554233 61.608406 
L 26.784458 60.999834 
L 27.014683 60.391263 
L 27.244909 59.782692 
L 27.475134 59.174121 
L 27.705359 58.56555 
L 27.902811 57.973366 
L 28.100262 57.381183 
L 28.297714 56.788999 
L 28.495165 56.196815 
z
" style="fill:none;stroke:#ff0000;stroke-dasharray:1.48,0.64;stroke-dashoffset:0;stroke-linejoin:miter;stroke-width:0.4;"/>
   </g>
   <g id="patch_8">
    <path clip-path="url(#pd8b4f03d2a)" d="M 31.320987 17.965586 
L 31.320987 17.965586 
L 30.757226 17.50711 
L 30.193464 17.048633 
L 29.889194 17.313812 
L 29.325972 17.803201 
L 28.931608 18.146128 
L 28.537245 18.489054 
L 28.142881 18.831981 
L 27.748518 19.174907 
L 27.354154 19.517834 
L 26.959791 19.86076 
L 26.565427 20.203687 
L 26.171064 20.546613 
L 25.710546 20.829856 
L 25.250028 21.113098 
L 24.78951 21.396341 
L 24.328992 21.679584 
L 23.868474 21.962826 
L 23.407957 22.246069 
L 22.947439 22.529311 
L 22.486921 22.812554 
L 21.662588 23.319821 
L 21.228302 23.708651 
L 20.794017 24.097481 
L 21.508835 24.336589 
L 22.087702 24.073086 
L 22.666569 23.809583 
L 23.245437 23.546079 
L 23.824304 23.282576 
L 24.403172 23.019073 
L 24.982039 22.75557 
L 25.560906 22.492067 
L 26.139774 22.228564 
L 26.729903 21.742992 
L 27.320032 21.25742 
L 27.910161 20.771848 
L 28.50029 20.286276 
L 29.090419 19.800704 
L 29.680549 19.315132 
L 30.270678 18.82956 
L 30.860807 18.343988 
z
" style="opacity:0.1;"/>
   </g>
   <g id="patch_9">
    <path clip-path="url(#pd8b4f03d2a)" d="M 31.320987 17.965586 
L 31.320987 17.965586 
L 30.757226 17.50711 
L 30.193464 17.048633 
L 29.889194 17.313812 
L 29.325972 17.803201 
L 28.931608 18.146128 
L 28.537245 18.489054 
L 28.142881 18.831981 
L 27.748518 19.174907 
L 27.354154 19.517834 
L 26.959791 19.86076 
L 26.565427 20.203687 
L 26.171064 20.546613 
L 25.710546 20.829856 
L 25.250028 21.113098 
L 24.78951 21.396341 
L 24.328992 21.679584 
L 23.868474 21.962826 
L 23.407957 22.246069 
L 22.947439 22.529311 
L 22.486921 22.812554 
L 21.662588 23.319821 
L 21.228302 23.708651 
L 20.794017 24.097481 
L 21.508835 24.336589 
L 22.087702 24.073086 
L 22.666569 23.809583 
L 23.245437 23.546079 
L 23.824304 23.282576 
L 24.403172 23.019073 
L 24.982039 22.75557 
L 25.560906 22.492067 
L 26.139774 22.228564 
L 26.729903 21.742992 
L 27.320032 21.25742 
L 27.910161 20.771848 
L 28.50029 20.286276 
L 29.090419 19.800704 
L 29.680549 19.315132 
L 30.270678 18.82956 
L 30.860807 18.343988 
z
" style="fill:none;stroke:#000000;stroke-dasharray:1.48,0.64;stroke-dashoffset:0;stroke-linejoin:miter;stroke-width:0.4;"/>
   </g>
   <g id="patch_10">
    <path clip-path="url(#pd8b4f03d2a)" d="M 10.99697 33.386198 
L 10.99697 33.386198 
L 10.79291 33.979499 
L 10.588849 34.5728 
L 10.384789 35.166101 
L 10.180729 35.759402 
L 9.950369 36.581755 
L 9.720009 37.404108 
L 9.885091 37.827948 
L 10.092793 38.566129 
L 10.032505 39.34472 
L 9.972218 40.123312 
L 9.911931 40.901903 
L 9.851643 41.680494 
L 8.974441 41.855542 
L 8.996425 41.272483 
L 9.018409 40.689424 
L 9.040393 40.106365 
L 9.062377 39.523307 
L 8.997638 38.99239 
L 8.9329 38.461473 
L 8.868162 37.930556 
L 8.803424 37.399639 
L 8.962437 36.889765 
L 9.12145 36.379891 
L 9.280463 35.870018 
L 9.439477 35.360144 
L 9.59849 34.85027 
L 9.757503 34.340396 
L 9.916516 33.830522 
L 10.075529 33.320648 
z
" style="opacity:0.1;"/>
   </g>
   <g id="patch_11">
    <path clip-path="url(#pd8b4f03d2a)" d="M 10.99697 33.386198 
L 10.99697 33.386198 
L 10.79291 33.979499 
L 10.588849 34.5728 
L 10.384789 35.166101 
L 10.180729 35.759402 
L 9.950369 36.581755 
L 9.720009 37.404108 
L 9.885091 37.827948 
L 10.092793 38.566129 
L 10.032505 39.34472 
L 9.972218 40.123312 
L 9.911931 40.901903 
L 9.851643 41.680494 
L 8.974441 41.855542 
L 8.996425 41.272483 
L 9.018409 40.689424 
L 9.040393 40.106365 
L 9.062377 39.523307 
L 8.997638 38.99239 
L 8.9329 38.461473 
L 8.868162 37.930556 
L 8.803424 37.399639 
L 8.962437 36.889765 
L 9.12145 36.379891 
L 9.280463 35.870018 
L 9.439477 35.360144 
L 9.59849 34.85027 
L 9.757503 34.340396 
L 9.916516 33.830522 
L 10.075529 33.320648 
z
" style="fill:none;stroke:#000000;stroke-dasharray:1.48,0.64;stroke-dashoffset:0;stroke-linejoin:miter;stroke-width:0.4;"/>
   </g>
   <g id="patch_12">
    <path clip-path="url(#pd8b4f03d2a)" d="M 24.13235 39.47191 
L 24.13235 39.47191 
L 24.604939 38.950862 
L 25.077528 38.429815 
L 25.482681 37.88009 
L 25.887834 37.330365 
L 25.482681 36.954198 
L 25.077528 36.578031 
L 24.55652 36.910808 
L 24.035513 37.243586 
L 23.514505 37.576363 
L 22.993497 37.909141 
L 22.327908 38.140614 
L 21.662318 38.372087 
L 20.996728 38.60356 
L 20.331139 38.835033 
L 19.73784 39.399283 
L 19.144542 39.963534 
L 18.551243 40.527784 
L 17.957944 41.092035 
L 17.408074 41.7142 
L 16.858204 42.336365 
L 16.308334 42.958531 
L 15.758464 43.580696 
L 15.527025 44.506774 
L 15.295586 45.432853 
L 15.064147 46.358931 
L 14.832708 47.28501 
L 14.687991 48.008479 
L 14.543274 48.731949 
L 14.398557 49.455419 
L 14.253841 50.178888 
L 14.282703 50.916697 
L 14.311565 51.654506 
L 14.340428 52.392314 
L 14.36929 53.130123 
L 14.354859 53.896982 
L 14.340428 54.663842 
L 14.325997 55.430701 
L 14.311565 56.19756 
L 14.745581 56.776336 
L 15.179597 57.355112 
L 15.790024 57.805395 
L 16.400451 58.255678 
L 16.386425 57.412095 
L 16.372398 56.568513 
L 16.524331 55.837874 
L 16.676263 55.107234 
L 16.828195 54.376595 
L 16.980128 53.645956 
L 17.13206 52.915317 
L 17.283993 52.184678 
L 17.435925 51.454039 
L 17.587858 50.723399 
L 17.690967 50.085685 
L 17.794076 49.44797 
L 17.897185 48.810255 
L 18.000294 48.17254 
L 18.103403 47.534825 
L 18.206512 46.897111 
L 18.309621 46.259396 
L 18.41273 45.621681 
L 18.557582 45.10231 
L 18.702434 44.582939 
L 18.847285 44.063568 
L 18.992137 43.544197 
L 19.371125 43.125106 
L 19.750114 42.706015 
L 20.129102 42.286924 
L 20.50809 41.867833 
L 20.887078 41.448742 
L 21.266066 41.029651 
L 21.645055 40.61056 
L 22.024043 40.191469 
L 22.61316 39.901708 
L 23.202278 39.611948 
z
" style="fill:#ff0000;opacity:0.1;"/>
   </g>
   <g id="patch_13">
    <path clip-path="url(#pd8b4f03d2a)" d="M 24.13235 39.47191 
L 24.13235 39.47191 
L 24.604939 38.950862 
L 25.077528 38.429815 
L 25.482681 37.88009 
L 25.887834 37.330365 
L 25.482681 36.954198 
L 25.077528 36.578031 
L 24.55652 36.910808 
L 24.035513 37.243586 
L 23.514505 37.576363 
L 22.993497 37.909141 
L 22.327908 38.140614 
L 21.662318 38.372087 
L 20.996728 38.60356 
L 20.331139 38.835033 
L 19.73784 39.399283 
L 19.144542 39.963534 
L 18.551243 40.527784 
L 17.957944 41.092035 
L 17.408074 41.7142 
L 16.858204 42.336365 
L 16.308334 42.958531 
L 15.758464 43.580696 
L 15.527025 44.506774 
L 15.295586 45.432853 
L 15.064147 46.358931 
L 14.832708 47.28501 
L 14.687991 48.008479 
L 14.543274 48.731949 
L 14.398557 49.455419 
L 14.253841 50.178888 
L 14.282703 50.916697 
L 14.311565 51.654506 
L 14.340428 52.392314 
L 14.36929 53.130123 
L 14.354859 53.896982 
L 14.340428 54.663842 
L 14.325997 55.430701 
L 14.311565 56.19756 
L 14.745581 56.776336 
L 15.179597 57.355112 
L 15.790024 57.805395 
L 16.400451 58.255678 
L 16.386425 57.412095 
L 16.372398 56.568513 
L 16.524331 55.837874 
L 16.676263 55.107234 
L 16.828195 54.376595 
L 16.980128 53.645956 
L 17.13206 52.915317 
L 17.283993 52.184678 
L 17.435925 51.454039 
L 17.587858 50.723399 
L 17.690967 50.085685 
L 17.794076 49.44797 
L 17.897185 48.810255 
L 18.000294 48.17254 
L 18.103403 47.534825 
L 18.206512 46.897111 
L 18.309621 46.259396 
L 18.41273 45.621681 
L 18.557582 45.10231 
L 18.702434 44.582939 
L 18.847285 44.063568 
L 18.992137 43.544197 
L 19.371125 43.125106 
L 19.750114 42.706015 
L 20.129102 42.286924 
L 20.50809 41.867833 
L 20.887078 41.448742 
L 21.266066 41.029651 
L 21.645055 40.61056 
L 22.024043 40.191469 
L 22.61316 39.901708 
L 23.202278 39.611948 
z
" style="fill:none;stroke:#ff0000;stroke-dasharray:1.48,0.64;stroke-dashoffset:0;stroke-linejoin:miter;stroke-width:0.4;"/>
   </g>
   <g id="line2d_1">
    <path clip-path="url(#pd8b4f03d2a)" d="M 20.14178 64.526121 
L 20.824768 61.986807 
L 21.362095 59.989398 
L 21.899422 57.991988 
L 22.577824 55.469807 
L 23.256226 52.947626 
L 24.016631 50.120042 
L 24.777035 47.292458 
L 25.330007 45.236203 
L 25.882979 43.179948 
L 26.445392 41.089055 
L 27.007805 38.998163 
L 27.627943 36.692371 
L 28.248081 34.386579 
L 28.695854 32.721947 
L 29.143626 31.057315 
L 29.591399 29.392683 
L 30.039171 27.728051 
L 30.54278 25.85541 
L 31.04639 23.982768 
L 31.835926 21.047176 
L 32.625462 18.111584 
" style="fill:none;stroke:#808080;stroke-linecap:square;stroke-width:0.4;"/>
   </g>
   <g id="line2d_2">
    <path clip-path="url(#pd8b4f03d2a)" d="M 27.562396 68.727273 
L 28.227581 66.600626 
" style="fill:none;stroke:#808080;stroke-linecap:square;stroke-width:0.4;"/>
   </g>
   <g id="line2d_3">
    <path clip-path="url(#pd8b4f03d2a)" d="M 25.09641 66.666176 
L 26.719181 65.811047 
L 28.341951 64.955919 
" style="fill:none;stroke:#808080;stroke-linecap:square;stroke-width:0.4;"/>
   </g>
   <g id="line2d_4">
    <path clip-path="url(#pd8b4f03d2a)" d="M 27.334733 63.662799 
L 28.839626 60.957376 
L 30.34452 58.251953 
L 31.849413 55.54653 
L 33.354306 52.841108 
" style="fill:none;stroke:#808080;stroke-linecap:square;stroke-width:0.4;"/>
   </g>
   <g id="line2d_5">
    <path clip-path="url(#pd8b4f03d2a)" d="M 33.180053 15.996855 
L 33.92697 15.897785 
L 34.673887 15.798715 
L 35.189095 15.634282 
L 35.704303 15.469849 
L 36.219511 15.305415 
L 36.734719 15.140982 
L 37.135557 14.835579 
L 37.536394 14.530176 
L 38.223698 13.880636 
L 38.834665 13.804286 
L 39.445631 13.727935 
L 39.808435 14.186039 
L 40.171239 14.644144 
L 40.209407 15.226457 
L 40.247576 15.808771 
L 40.285744 16.391085 
L 40.323913 16.973399 
L 40.514891 17.517538 
L 40.705868 18.061676 
L 40.896846 18.605815 
L 41.087824 19.149954 
L 41.335987 19.875472 
L 41.58415 20.60099 
L 42.023291 20.963749 
L 42.462431 21.326508 
L 43.436202 21.403231 
L 44.409972 21.479954 
L 45.326557 21.65165 
L 46.243142 21.823346 
L 46.701435 22.377168 
L 47.159727 22.930991 
L 47.321977 23.847385 
L 47.484227 24.76378 
L 47.646477 25.680175 
L 47.808727 26.59657 
L 47.831656 27.149647 
L 47.854584 27.702725 
L 47.877512 28.255802 
L 47.90044 28.808879 
" style="fill:none;stroke:#4169e1;stroke-linecap:square;stroke-width:0.4;"/>
   </g>
   <g id="line2d_6">
    <path clip-path="url(#pd8b4f03d2a)" d="M 32.971272 20.159273 
L 33.390924 20.578457 
L 33.810576 20.997641 
L 34.230228 21.416825 
L 34.64988 21.836009 
L 35.069531 22.255194 
L 35.489183 22.674378 
L 35.908835 23.093562 
L 36.328487 23.512746 
L 36.494918 24.055302 
L 36.661349 24.597857 
L 36.82778 25.140413 
L 36.994212 25.682969 
L 37.160643 26.225524 
L 37.327074 26.76808 
L 37.493505 27.310636 
L 37.659936 27.853191 
L 38.000014 28.26921 
L 38.340092 28.685228 
L 38.68017 29.101246 
L 39.020247 29.517265 
L 39.360325 29.933283 
L 39.700403 30.349301 
L 40.040481 30.76532 
L 40.380559 31.181338 
L 40.803582 31.607319 
L 41.226606 32.033301 
L 41.64963 32.459282 
L 42.072653 32.885263 
L 42.495677 33.311244 
L 42.918701 33.737225 
L 43.341724 34.163206 
L 43.764748 34.589188 
L 44.04582 35.341335 
L 44.326891 36.093483 
L 44.607963 36.845631 
L 44.889035 37.597779 
L 44.812428 38.275624 
L 44.070636 38.707657 
L 43.57431 39.089411 
L 43.077984 39.471165 
L 42.111766 39.657386 
L 41.856859 40.205994 
L 41.601953 40.754602 
L 41.347046 41.220155 
L 41.092139 41.685708 
L 41.053971 42.23953 
L 41.015802 42.793352 
L 40.977634 43.347174 
L 40.939465 43.900996 
L 40.767639 44.473627 
L 40.595813 45.046257 
L 40.423987 45.618888 
L 40.252161 46.191518 
L 39.641195 46.726346 
L 39.030228 47.261173 
L 38.724744 48.043861 
L 38.419261 48.826549 
L 38.113778 49.609237 
L 37.808294 50.391925 
L 37.620014 50.911483 
L 37.431734 51.43104 
" style="fill:none;stroke:#000000;stroke-linecap:square;stroke-width:0.4;"/>
   </g>
   <g id="line2d_7">
    <path clip-path="url(#pd8b4f03d2a)" d="M 47.90044 28.808879 
L 47.520373 29.595105 
L 47.140306 30.381332 
L 46.760238 31.167558 
L 46.380171 31.953784 
L 46.081431 32.798111 
L 45.782692 33.642439 
L 45.483952 34.486766 
L 45.185212 35.331093 
L 45.125869 35.497947 
L 45.06666 36.022905 
L 45.007452 36.547863 
L 44.948243 37.072821 
L 44.889035 37.597779 
L 44.812428 38.275624 
L 44.741486 38.904121 
L 44.670543 39.532618 
L 44.599601 40.161115 
L 44.528659 40.789611 
L 44.354945 41.482354 
L 44.18123 42.175098 
L 44.152638 42.805084 
L 44.124045 43.435071 
L 44.095452 44.065057 
L 44.06686 44.695044 
L 43.837713 45.286855 
L 43.608567 45.878666 
L 43.379421 46.470478 
L 43.150275 47.062289 
L 42.759148 47.665646 
L 42.368021 48.269003 
L 42.344014 48.788374 
L 42.320007 49.307745 
L 42.296 49.827116 
L 42.271993 50.346487 
L 42.396884 51.166978 
L 42.521775 51.987469 
L 42.688476 52.843342 
" style="fill:none;stroke:#008000;stroke-linecap:square;stroke-width:0.4;"/>
   </g>
   <g id="line2d_8">
    <path clip-path="url(#pd8b4f03d2a)" d="M 44.241653 50.409803 
L 43.853358 51.018188 
L 43.465064 51.626573 
L 43.07677 52.234957 
L 42.688476 52.843342 
L 42.445707 53.223979 
L 41.844586 53.874822 
L 41.243465 54.525665 
L 40.642344 55.176509 
L 40.041223 55.827352 
L 39.684758 56.244022 
L 39.328293 56.660692 
L 38.971829 57.077363 
L 38.615364 57.494033 
L 38.258899 57.910703 
L 37.902434 58.327373 
L 37.54597 58.744043 
L 37.189505 59.160713 
L 36.444341 59.645261 
L 35.699178 60.129809 
L 34.954014 60.614356 
L 34.208851 61.098904 
L 33.438061 61.557009 
L 32.667272 62.015113 
L 31.896483 62.473217 
L 31.125694 62.931322 
L 30.670369 63.201715 
L 30.215043 63.472108 
L 29.492808 63.806748 
L 28.770572 64.141387 
L 28.048337 64.476027 
L 27.326101 64.810667 
L 26.861739 65.025752 
L 26.397378 65.240838 
L 25.933016 65.455923 
L 25.468654 65.671009 
L 24.48814 65.833766 
L 23.507626 65.996524 
L 22.520908 66.013656 
L 21.829289 66.025574 
L 21.047845 65.909745 
L 20.266401 65.793915 
" style="fill:none;stroke:#008000;stroke-linecap:square;stroke-width:0.4;"/>
   </g>
   <g id="line2d_9">
    <path clip-path="url(#pd8b4f03d2a)" d="M 36.292881 51.597894 
L 36.373939 52.193803 
L 36.454996 52.789711 
L 36.536054 53.385619 
L 36.617112 53.981527 
L 36.397811 54.858629 
L 36.17851 55.735731 
L 35.520339 56.261993 
L 34.862167 56.788254 
L 34.335899 57.621408 
L 33.809632 58.454562 
L 33.436848 59.24414 
L 33.064063 60.033718 
L 32.579471 60.758119 
L 32.094879 61.48252 
L 31.610286 62.206921 
L 31.125694 62.931322 
" style="fill:none;stroke:#008000;stroke-linecap:square;stroke-width:0.4;"/>
   </g>
   <g id="line2d_10">
    <path clip-path="url(#pd8b4f03d2a)" d="M 32.015844 19.262431 
L 31.964593 18.574902 
L 31.929527 18.104135 
L 32.065746 17.59873 
L 32.201966 17.093326 
L 32.69101 16.54509 
L 33.180053 15.996855 
L 33.53328 15.502624 
L 33.886508 15.008392 
L 34.239736 14.514161 
L 34.592964 14.01993 
L 35.014302 13.430726 
L 35.614816 13.083423 
L 36.21533 12.73612 
L 36.815844 12.388818 
L 37.416359 12.041515 
L 38.016873 11.694212 
L 38.617387 11.34691 
L 39.217901 10.999607 
L 39.818415 10.652304 
L 40.33214 10.406306 
L 40.845865 10.160308 
L 41.359589 9.914309 
L 41.873314 9.668311 
L 42.387038 9.422313 
L 42.900763 9.176314 
L 43.414487 8.930316 
L 43.928212 8.684318 
L 44.297152 8.235804 
L 44.666093 7.78729 
L 45.035033 7.338776 
L 45.403973 6.890262 
L 45.772913 6.441748 
L 46.141854 5.993234 
L 46.510794 5.54472 
L 46.879734 5.096206 
L 47.697324 4.640336 
L 48.514913 4.184467 
L 49.332503 3.728597 
L 50.150092 3.272727 
L 50.91697 3.446286 
L 51.683848 3.619844 
L 52.038425 4.303555 
L 52.393001 4.987267 
L 52.747578 5.670978 
L 53.102154 6.354689 
L 53.456731 7.038401 
L 53.811307 7.722112 
L 54.165884 8.405824 
L 54.52046 9.089535 
L 54.708538 9.574269 
L 54.896616 10.059003 
L 55.084694 10.543737 
L 55.272772 11.028471 
L 55.46085 11.513205 
L 55.648928 11.997939 
L 55.837006 12.482673 
L 56.025084 12.967407 
L 56.177016 13.531751 
L 56.328949 14.096094 
L 56.480881 14.660438 
L 56.632814 15.224782 
L 56.784746 15.789125 
L 56.936678 16.353469 
L 57.088611 16.917812 
L 57.240543 17.482156 
L 57.450336 17.959627 
L 57.660128 18.437099 
L 57.86992 18.91457 
L 58.079712 19.392041 
L 58.289504 19.869513 
L 58.499297 20.346984 
L 58.709089 20.824455 
L 58.918881 21.301927 
L 58.926164 21.916829 
L 58.933447 22.531732 
L 58.94073 23.146635 
L 58.948013 23.761537 
L 58.629717 24.622625 
L 58.311421 25.483712 
L 57.993125 26.344799 
L 57.674829 27.205886 
L 57.309463 27.647138 
L 56.944096 28.088389 
L 56.57873 28.52964 
L 56.213364 28.970892 
L 55.847998 29.412143 
L 55.482632 29.853394 
L 55.117265 30.294646 
L 54.751899 30.735897 
L 54.419037 31.278546 
L 54.086175 31.821194 
L 53.753312 32.363843 
L 53.42045 32.906492 
L 53.087588 33.449141 
L 52.754726 33.99179 
L 52.421864 34.534439 
L 52.089001 35.077087 
L 51.821417 35.655863 
L 51.553832 36.234639 
L 51.286248 36.813415 
L 51.018663 37.39219 
L 50.798283 38.001506 
L 50.577904 38.610822 
L 50.357524 39.220138 
L 50.137145 39.829454 
L 49.58687 40.490168 
L 49.106189 41.066709 
L 48.625508 41.64325 
L 48.14685 42.021093 
L 47.668192 42.398936 
L 47.189534 42.776779 
L 46.710876 43.154622 
L 46.534464 43.683862 
L 46.358052 44.213103 
L 46.219405 44.88052 
L 46.080757 45.547937 
L 45.942109 46.215355 
L 45.803462 46.882772 
L 45.41301 47.764529 
L 45.022557 48.646287 
L 44.632105 49.528045 
L 44.241653 50.409803 
" style="fill:none;stroke:#008000;stroke-linecap:square;stroke-width:0.4;"/>
   </g>
   <g id="line2d_11">
    <path clip-path="url(#pd8b4f03d2a)" d="M 47.90044 28.808879 
L 48.346729 29.107578 
L 48.793018 29.406277 
L 49.239307 29.704976 
L 49.685596 30.003675 
L 49.7854 30.860665 
L 49.885205 31.717655 
L 49.796999 32.284513 
L 49.708794 32.851371 
L 49.620588 33.418228 
L 49.532382 33.985086 
L 49.418955 34.53928 
L 49.305529 35.093475 
L 49.192102 35.647669 
L 49.078675 36.201864 
L 49.142199 36.737902 
L 49.205724 37.27394 
L 49.269248 37.809978 
L 49.332773 38.346016 
L 49.396297 38.882054 
L 49.459821 39.418092 
L 49.523346 39.95413 
L 49.58687 40.490168 
" style="fill:none;stroke:#008000;stroke-linecap:square;stroke-width:0.4;"/>
   </g>
   <g id="line2d_12">
    <path clip-path="url(#pd8b4f03d2a)" d="M 28.30203 32.994389 
L 28.717703 33.366272 
L 29.133376 33.738156 
L 29.549049 34.11004 
L 29.964722 34.481924 
L 30.189957 35.447295 
L 30.415192 36.412666 
L 30.450259 37.328503 
L 30.485325 38.244339 
L 30.695185 38.794064 
L 30.905045 39.343789 
L 31.114904 39.893515 
L 31.324764 40.44324 
L 31.396515 41.313638 
L 31.468267 42.184036 
L 31.540018 43.054435 
L 31.61177 43.924833 
L 31.861147 44.3902 
L 32.110524 44.855567 
L 32.359901 45.320934 
L 32.609278 45.786301 
L 32.922179 46.283512 
L 33.23508 46.780722 
L 33.541238 47.245531 
L 33.847396 47.710339 
L 34.318501 48.27999 
L 34.789606 48.849641 
L 35.260711 49.419292 
L 35.731817 49.988943 
L 36.012349 50.793419 
L 36.292881 51.597894 
" style="fill:none;stroke:#000000;stroke-linecap:square;stroke-width:0.4;"/>
   </g>
   <g id="line2d_13">
    <path clip-path="url(#pd8b4f03d2a)" d="M 30.921229 17.627408 
L 31.163458 16.652354 
L 31.209854 15.99611 
L 31.256249 15.339866 
L 30.94146 14.875058 
L 30.62667 14.41025 
L 30.311881 13.945441 
L 29.997091 13.480633 
L 29.646156 12.559583 
L 29.295221 11.638532 
L 28.999179 11.046348 
L 28.703137 10.454165 
L 28.407094 9.861981 
L 28.111052 9.269797 
L 27.562665 8.853034 
L 27.014279 8.436271 
L 26.312409 8.567743 
L 25.610539 8.699215 
L 25.062422 9.510768 
L 24.514305 10.32232 
L 24.075569 10.859568 
L 23.636833 11.396817 
L 23.198097 11.934065 
L 22.759361 12.471314 
L 22.123308 13.063497 
L 21.487255 13.655681 
L 21.191213 14.357549 
L 20.89517 15.059417 
L 20.599128 15.761285 
L 20.303086 16.463153 
L 20.149602 17.285692 
L 19.996119 18.108232 
L 19.842635 18.930771 
L 19.689152 19.753311 
L 19.458792 20.400243 
L 19.228432 21.047176 
L 18.998072 21.694109 
L 18.767711 22.341042 
L 18.043992 22.735831 
L 17.320273 23.13062 
" style="fill:none;stroke:#008000;stroke-linecap:square;stroke-width:0.4;"/>
   </g>
   <g id="line2d_14">
    <path clip-path="url(#pd8b4f03d2a)" d="M 31.964593 18.574902 
L 31.49632 18.114563 
L 31.320987 17.965586 
L 30.921229 17.627408 
L 30.411416 17.19463 
L 30.193464 17.048633 
L 29.746231 16.748444 
L 29.298998 16.448255 
L 28.473855 16.162592 
L 27.648713 15.876928 
L 26.95062 15.845085 
L 26.252526 15.813241 
L 25.554432 15.781397 
L 24.856339 15.749553 
L 24.189805 16.416225 
L 23.523272 17.082897 
L 23.428052 17.685696 
L 23.332833 18.288494 
L 23.237614 18.891292 
L 23.142395 19.494091 
L 23.063765 20.11607 
L 22.985135 20.738049 
L 22.906505 21.360028 
L 22.827875 21.982007 
L 22.524145 22.401005 
L 22.220415 22.820003 
L 21.662588 23.319821 
L 21.228302 23.708651 
L 20.794017 24.097481 
L 20.615987 24.256886 
L 20.272875 24.768808 
L 19.929762 25.280731 
L 19.58665 25.792653 
L 19.243537 26.304575 
" style="fill:none;stroke:#008000;stroke-linecap:square;stroke-width:0.4;"/>
   </g>
   <g id="line2d_15">
    <path clip-path="url(#pd8b4f03d2a)" d="M 30.183753 26.116119 
L 29.360904 26.502808 
L 28.538054 26.889496 
L 27.715205 27.276185 
L 26.892355 27.662873 
L 26.069506 28.049562 
L 25.246656 28.43625 
L 24.423807 28.822939 
L 23.600957 29.209627 
L 22.871034 29.288957 
L 22.141111 29.368288 
L 21.411188 29.447618 
L 20.681265 29.526948 
L 20.070298 29.622294 
L 19.459331 29.717639 
L 18.848364 29.812984 
L 18.237398 29.908329 
L 17.437611 30.2804 
L 16.637825 30.65247 
L 15.838038 31.02454 
L 15.038252 31.39661 
L 14.475029 31.81896 
L 14.043441 32.142985 
L 13.677671 32.508723 
L 13.3119 32.874462 
L 12.958537 33.547838 
" style="fill:none;stroke:#4169e1;stroke-linecap:square;stroke-width:0.4;"/>
   </g>
   <g id="line2d_16">
    <path clip-path="url(#pd8b4f03d2a)" d="M 31.207696 22.373072 
L 30.314713 22.746631 
L 29.421731 23.120191 
L 28.528748 23.493751 
L 27.635766 23.867311 
L 27.184958 24.099808 
L 26.734151 24.332306 
L 26.283344 24.564803 
L 25.832537 24.7973 
L 25.38173 25.029797 
L 24.930923 25.262295 
L 24.480116 25.494792 
L 24.029308 25.727289 
L 23.431087 25.79945 
L 22.832866 25.871611 
L 22.234644 25.943772 
L 21.636423 26.015932 
L 21.038201 26.088093 
L 20.43998 26.160254 
L 19.841759 26.232415 
L 19.243537 26.304575 
L 18.479896 26.715938 
L 17.716255 27.127301 
L 16.952614 27.538664 
L 16.188973 27.950026 
L 15.829676 28.647053 
L 15.470379 29.344079 
L 15.111082 30.041105 
L 14.751785 30.738131 
L 14.562426 31.26551 
L 14.475029 31.81896 
" style="fill:none;stroke:#4169e1;stroke-linecap:square;stroke-width:0.4;"/>
   </g>
   <g id="line2d_17">
    <path clip-path="url(#pd8b4f03d2a)" d="M 23.600957 29.209627 
L 23.491981 29.775367 
L 23.383005 30.341108 
L 22.941707 30.840553 
L 22.500408 31.339999 
L 22.118453 31.721939 
L 21.736497 32.103878 
L 21.354542 32.485818 
L 20.972587 32.867758 
L 20.598858 33.604449 
L 20.22513 34.341141 
L 19.851402 35.077832 
L 19.477674 35.814524 
" style="fill:none;stroke:#008000;stroke-linecap:square;stroke-width:0.4;"/>
   </g>
   <g id="line2d_18">
    <path clip-path="url(#pd8b4f03d2a)" d="M 27.612568 35.419734 
L 26.870506 35.557259 
L 26.128445 35.694783 
L 25.386383 35.832308 
L 24.644321 35.969832 
L 23.90226 36.107357 
L 23.160198 36.244881 
L 22.418137 36.382405 
L 21.676075 36.51993 
L 21.126475 36.343578 
L 20.576874 36.167227 
L 20.027274 35.990875 
L 19.477674 35.814524 
L 18.897525 35.612846 
L 18.317376 35.411168 
L 17.737228 35.209491 
L 17.157079 35.007813 
L 16.57693 34.806135 
L 15.996782 34.604458 
L 15.416633 34.40278 
L 14.836484 34.201102 
L 13.897511 33.87447 
L 12.958537 33.547838 
L 12.111006 33.255098 
L 11.528228 33.053234 
L 10.945449 32.851371 
L 10.36267 32.649507 
L 9.779892 32.447643 
" style="fill:none;stroke:#008000;stroke-linecap:square;stroke-width:0.4;"/>
   </g>
   <g id="line2d_19">
    <path clip-path="url(#pd8b4f03d2a)" d="M 9.779892 32.447643 
L 9.470834 33.054817 
L 9.161777 33.661992 
L 8.852719 34.269166 
L 8.543662 34.876341 
L 8.234604 35.483515 
L 7.925547 36.09069 
L 7.616489 36.697864 
L 7.307432 37.305039 
L 7.181462 38.061097 
L 7.055492 38.817156 
L 7.370417 39.749193 
L 7.685341 40.681231 
L 8.000266 41.613268 
L 8.31519 42.545306 
" style="fill:none;stroke:#008000;stroke-linecap:square;stroke-width:0.4;"/>
   </g>
   <g id="line2d_20">
    <path clip-path="url(#pd8b4f03d2a)" d="M 17.320273 23.13062 
L 16.556362 23.218516 
L 15.792452 23.306413 
L 15.270905 23.318703 
L 14.749358 23.330994 
L 14.22781 23.343284 
L 13.706263 23.355575 
L 13.392013 23.762655 
L 13.077763 24.169734 
L 12.772887 24.810987 
L 12.46801 25.45224 
L 12.163134 26.093493 
L 11.858258 26.734746 
L 11.553381 27.375999 
L 11.248505 28.017252 
L 10.943628 28.658505 
L 10.638752 29.299758 
L 10.444672 29.855629 
L 10.250592 30.411499 
L 10.056513 30.96737 
L 9.862433 31.52324 
L 9.779892 32.447643 
" style="fill:none;stroke:#008000;stroke-linecap:square;stroke-width:0.4;"/>
   </g>
   <g id="line2d_21">
    <path clip-path="url(#pd8b4f03d2a)" d="M 21.676075 36.51993 
L 20.937048 36.762204 
L 20.198021 37.004478 
L 19.458994 37.246751 
L 18.719967 37.489025 
L 17.98094 37.731299 
L 17.241913 37.973573 
L 16.502886 38.215847 
L 15.763859 38.458121 
L 15.106227 39.012315 
L 14.510501 39.513809 
L 13.914774 40.015303 
L 13.319048 40.516797 
L 12.723322 41.018291 
L 12.440632 41.28347 
L 11.998254 41.699116 
L 11.555876 42.114762 
L 11.113499 42.530408 
L 10.671121 42.946054 
L 10.249513 43.486282 
L 9.827906 44.02651 
L 9.406298 44.566738 
L 8.984691 45.106966 
" style="fill:none;stroke:#4169e1;stroke-linecap:square;stroke-width:0.4;"/>
   </g>
   <g id="line2d_22">
    <path clip-path="url(#pd8b4f03d2a)" d="M 8.31519 42.545306 
L 8.619459 43.235814 
L 8.802075 44.17139 
L 8.984691 45.106966 
L 9.082338 45.609018 
L 9.180254 46.307534 
L 9.278171 47.00605 
L 9.376087 47.704566 
L 9.474004 48.403082 
L 9.656552 49.095546 
L 9.8391 49.78801 
L 10.021648 50.480474 
L 10.204197 51.172937 
L 10.386745 51.865401 
L 10.569293 52.557865 
L 10.751841 53.250329 
L 10.934389 53.942793 
L 11.303397 54.637305 
L 11.672405 55.331817 
L 12.041413 56.02633 
L 12.41042 56.720842 
L 12.779428 57.415354 
L 13.148436 58.109866 
L 13.517444 58.804379 
L 13.886451 59.498891 
L 14.199892 60.064259 
L 14.513333 60.629627 
L 14.826774 61.194994 
L 15.140214 61.760362 
L 15.472807 62.425172 
L 15.805399 63.089982 
" style="fill:none;stroke:#4169e1;stroke-linecap:square;stroke-width:0.4;"/>
   </g>
   <g id="line2d_23">
    <path clip-path="url(#pd8b4f03d2a)" d="M 8.31519 42.545306 
L 7.893313 42.913279 
L 7.594168 43.661143 
L 7.295024 44.409008 
L 6.987517 45.156873 
L 6.680011 45.904737 
L 6.372504 46.652602 
L 6.064998 47.400467 
L 5.782443 48.048703 
L 5.499888 48.696939 
L 5.217332 49.345176 
L 4.934777 49.993412 
L 4.622011 50.59472 
L 4.309244 51.196029 
L 3.996478 51.797337 
L 3.683711 52.398646 
L 3.707314 53.095858 
L 3.730916 53.793071 
L 3.754519 54.490283 
L 3.778121 55.187496 
L 3.85837 55.826421 
L 3.938618 56.465346 
L 4.018866 57.104272 
L 4.099115 57.743197 
L 4.472034 58.105025 
L 4.844953 58.466853 
L 5.217872 58.828681 
L 5.590791 59.190509 
L 6.303585 59.541349 
L 7.01638 59.89219 
L 7.729174 60.243031 
L 8.441969 60.593872 
L 9.243913 60.827207 
L 10.045858 61.060543 
L 10.847802 61.293878 
L 11.649747 61.527213 
L 12.20663 61.701702 
L 12.763513 61.876192 
L 13.320397 62.050681 
L 13.87728 62.22517 
L 14.35931 62.441373 
L 14.84134 62.657576 
L 15.32337 62.873779 
L 15.805399 63.089982 
L 16.300107 63.419594 
L 16.794815 63.749205 
L 17.201587 64.020344 
L 18.049117 64.519044 
L 18.896648 65.017745 
L 19.581525 65.40583 
L 20.266401 65.793915 
" style="fill:none;stroke:#008000;stroke-linecap:square;stroke-width:0.4;"/>
   </g>
   <g id="line2d_24">
    <path clip-path="url(#pd8b4f03d2a)" d="M 12.111006 33.255098 
L 11.921917 33.789926 
L 11.732827 34.324753 
L 11.533218 34.814888 
L 11.333608 35.305022 
L 11.225711 35.811917 
L 11.117814 36.318811 
L 11.084366 36.983993 
L 11.516494 37.515841 
L 11.882265 38.081209 
L 11.965345 38.854027 
L 12.048426 39.626846 
L 12.281483 40.552738 
L 12.440632 41.28347 
" style="fill:none;stroke:#008000;stroke-linecap:square;stroke-width:0.4;"/>
   </g>
   <g id="line2d_25">
    <path clip-path="url(#pd8b4f03d2a)" d="M 14.836484 34.201102 
L 14.281894 34.910978 
L 13.727303 35.620853 
L 13.660947 36.020112 
L 13.810384 36.668162 
L 14.280275 37.354201 
L 14.430252 38.205605 
L 14.76824 38.60896 
L 15.106227 39.012315 
" style="fill:none;stroke:#008000;stroke-linecap:square;stroke-width:0.4;"/>
   </g>
   <g id="line2d_26">
    <path clip-path="url(#pd8b4f03d2a)" d="M 26.742378 37.760908 
L 26.275454 38.036516 
L 25.80853 38.312123 
L 25.375054 38.854027 
L 24.941578 39.395931 
L 24.669407 39.971355 
L 24.397237 40.546779 
L 23.892819 41.051066 
L 23.180159 41.577327 
L 22.467499 42.103589 
L 22.522257 42.608062 
L 22.577015 43.112536 
L 22.631773 43.617009 
L 22.68653 44.121482 
L 22.626243 44.724653 
L 22.565955 45.327824 
L 22.505668 45.930995 
L 22.445381 46.534165 
L 22.187642 47.243668 
L 21.929903 47.953172 
L 21.672164 48.662675 
L 21.414425 49.372178 
L 21.34827 49.884472 
L 21.282116 50.396767 
L 21.215962 50.909062 
L 21.149807 51.421357 
L 21.083653 51.933651 
L 21.017499 52.445946 
L 20.951344 52.958241 
L 20.88519 53.470536 
L 20.54518 54.215979 
L 20.205169 54.961423 
L 19.865159 55.706867 
L 19.525148 56.452311 
L 19.349681 57.039094 
L 19.174213 57.625877 
L 18.998746 58.212661 
L 18.823278 58.799444 
L 18.554615 59.380454 
L 18.285951 59.961465 
L 18.017288 60.542475 
L 17.748624 61.123485 
L 17.510172 61.779915 
L 17.27172 62.436345 
L 17.033267 63.092775 
L 16.794815 63.749205 
" style="fill:none;stroke:#000000;stroke-linecap:square;stroke-width:0.4;"/>
   </g>
   <g id="line2d_27">
    <path clip-path="url(#pd8b4f03d2a)" d="M 31.466648 21.682563 
L 31.207696 22.373072 
L 30.95171 23.308834 
L 30.695724 24.244595 
L 30.439739 25.180357 
L 30.183753 26.116119 
L 29.948538 26.975903 
L 29.713322 27.835687 
L 29.478107 28.69547 
L 29.242891 29.555254 
L 29.007676 30.415038 
L 28.77246 31.274821 
L 28.537245 32.134605 
L 28.30203 32.994389 
L 28.084887 33.788809 
L 27.867744 34.583228 
L 27.612568 35.419734 
L 27.376813 36.191435 
L 27.141058 36.963136 
L 26.742378 37.760908 
" style="fill:none;stroke:#008000;stroke-linecap:square;stroke-width:0.4;"/>
   </g>
   <g id="line2d_28">
    <path clip-path="url(#pd8b4f03d2a)" d="M 26.742378 37.760908 
L 26.671976 38.261495 
L 26.601573 38.762081 
L 26.53117 39.262667 
L 26.460767 39.763253 
L 26.390364 40.263839 
L 26.319962 40.764425 
L 26.249559 41.265011 
L 26.179156 41.765597 
L 26.108753 42.266183 
L 26.038351 42.766769 
L 25.967948 43.267355 
L 25.897545 43.767941 
L 25.827142 44.268527 
L 25.756739 44.769114 
L 25.686337 45.2697 
L 25.615934 45.770286 
L 25.545531 46.270872 
L 25.475128 46.771458 
L 25.404725 47.272044 
L 25.334323 47.77263 
L 25.26392 48.273216 
L 25.193517 48.773802 
L 25.123114 49.274388 
L 25.052711 49.774974 
L 24.982309 50.27556 
L 24.911906 50.776147 
L 24.841503 51.276733 
L 24.7711 51.777319 
L 24.700698 52.277905 
L 24.630295 52.778491 
L 24.559892 53.279077 
L 24.489489 53.779663 
" style="fill:none;stroke:#ff0000;stroke-linecap:square;stroke-width:0.4;"/>
   </g>
   <g id="line2d_29">
    <path clip-path="url(#pd8b4f03d2a)" d="M 24.489489 53.779663 
L 24.366453 54.544288 
L 24.243417 55.308912 
L 24.12038 56.073537 
L 23.997344 56.838161 
L 23.874308 57.602786 
L 23.751271 58.36741 
L 23.628235 59.132035 
L 23.505199 59.89666 
L 23.382162 60.661284 
L 23.259126 61.425909 
L 23.13609 62.190533 
L 23.013054 62.955158 
L 22.890017 63.719782 
L 22.766981 64.484407 
L 22.643945 65.249032 
L 22.520908 66.013656 
" style="fill:none;stroke:#4169e1;stroke-linecap:square;stroke-width:0.4;"/>
   </g>
   <g id="line2d_30">
    <path clip-path="url(#pd8b4f03d2a)" d="M 32.015844 19.262431 
L 31.769839 19.353307 
L 31.540018 19.634129 
L 31.481754 20.125753 
L 31.349041 20.676968 
L 31.395976 20.906393 
L 31.393278 21.313845 
L 31.466648 21.682563 
" style="fill:none;stroke:#008000;stroke-linecap:square;stroke-width:0.4;"/>
   </g>
   <g id="line2d_31">
    <path clip-path="url(#pd8b4f03d2a)" d="M 32.015844 19.262431 
L 32.798097 19.502284 
L 32.969654 19.85685 
L 32.971272 20.159273 
L 32.882796 20.539164 
L 32.717175 20.775293 
L 32.09353 21.297457 
L 31.466648 21.682563 
" style="fill:none;stroke:#008000;stroke-linecap:square;stroke-width:0.4;"/>
   </g>
   <g id="line2d_32">
    <path clip-path="url(#pd8b4f03d2a)" d="M 7.055492 38.817156 
L 6.641573 39.533735 
L 6.227653 40.250315 
L 5.813733 40.966894 
L 5.399813 41.683473 
L 5.150571 42.265043 
L 4.901329 42.846612 
L 4.652087 43.428181 
L 4.402845 44.00975 
L 4.244911 44.599885 
L 4.086976 45.19002 
L 3.929042 45.780155 
L 3.771108 46.370291 
L 3.588223 46.943666 
L 3.405337 47.517041 
L 3.222452 48.090417 
L 3.039566 48.663792 
L 2.923307 49.212027 
L 2.807048 49.760263 
L 2.90982 50.469766 
L 3.012592 51.179269 
L 3.348152 51.788957 
L 3.683711 52.398646 
" style="fill:none;stroke:#008000;stroke-linecap:square;stroke-width:0.4;"/>
   </g>
   <g id="line2d_33">
    <path clip-path="url(#pd8b4f03d2a)" d="M 36.292881 51.597894 
L 35.35148 51.776294 
L 34.410078 51.954694 
L 33.761887 52.145757 
L 33.113696 52.33682 
L 32.465505 52.527884 
L 31.817314 52.718947 
L 31.210528 52.893436 
L 30.603742 53.067925 
L 29.996956 53.242415 
L 29.390171 53.416904 
L 28.575818 53.516719 
L 27.761466 53.616533 
L 26.943471 53.657316 
L 26.125477 53.698098 
L 25.307483 53.738881 
L 24.489489 53.779663 
" style="fill:none;stroke:#008000;stroke-linecap:square;stroke-width:0.4;"/>
   </g>
   <g id="line2d_34">
    <path clip-path="url(#pd8b4f03d2a)" d="M 20.88519 53.470536 
L 21.786265 53.547817 
L 22.68734 53.625099 
L 23.588414 53.702381 
L 24.489489 53.779663 
" style="fill:none;stroke:#008000;stroke-linecap:square;stroke-width:0.4;"/>
   </g>
  </g>
 </g>
 <defs>
  <clipPath id="pd8b4f03d2a">
   <rect height="72" width="61.755062" x="0" y="0"/>
  </clipPath>
 </defs>
</svg>
