<?xml version="1.0" encoding="utf-8" standalone="no"?>
<!DOCTYPE svg PUBLIC "-//W3C//DTD SVG 1.1//EN"
  "http://www.w3.org/Graphics/SVG/1.1/DTD/svg11.dtd">
<svg height="72pt" version="1.1" viewBox="0 0 69.261322 72" width="69.261322pt" xmlns="http://www.w3.org/2000/svg" xmlns:xlink="http://www.w3.org/1999/xlink">
 <metadata>
  <rdf:RDF xmlns:cc="http://creativecommons.org/ns#" xmlns:dc="http://purl.org/dc/elements/1.1/" xmlns:rdf="http://www.w3.org/1999/02/22-rdf-syntax-ns#">
   <cc:Work>
    <dc:type rdf:resource="http://purl.org/dc/dcmitype/StillImage"/>
    <dc:date>2022-04-19T00:57:49.653129</dc:date>
    <dc:format>image/svg+xml</dc:format>
    <dc:creator>
     <cc:Agent>
      <dc:title>Matplotlib v3.4.3, https://matplotlib.org/</dc:title>
     </cc:Agent>
    </dc:creator>
   </cc:Work>
  </rdf:RDF>
 </metadata>
 <defs>
  <style type="text/css">*{stroke-linecap:butt;stroke-linejoin:round;}</style>
 </defs>
 <g id="figure_1">
  <g id="patch_1">
   <path d="M 0 72 
L 69.261322 72 
L 69.261322 0 
L 0 0 
z
" style="fill:#ffffff;"/>
  </g>
  <g id="axes_1">
   <g id="patch_2">
    <path clip-path="url(#pc6cab72032)" d="M 3.30813 57.255938 
L 3.30813 57.255938 
L 3.459369 57.515959 
L 3.610607 57.775981 
L 3.761846 58.036003 
L 3.913084 58.296024 
L 4.242209 58.596364 
L 4.571334 58.896703 
L 4.809632 58.987467 
L 5.234885 59.043952 
L 5.642734 59.203154 
L 6.050582 59.362356 
L 6.45843 59.521559 
L 6.866279 59.680761 
L 7.274127 59.839963 
L 7.681975 59.999166 
L 8.089824 60.158368 
L 8.497672 60.31757 
L 8.90552 60.476773 
L 9.313369 60.635975 
L 9.721217 60.795178 
L 10.129065 60.95438 
L 10.536914 61.113582 
L 10.944762 61.272785 
L 11.352611 61.431987 
L 11.760459 61.591189 
L 12.229068 61.685459 
L 12.697676 61.779729 
L 13.166285 61.873999 
L 13.634894 61.968269 
L 14.103503 62.062539 
L 14.572112 62.156809 
L 15.04072 62.251079 
L 15.509329 62.345349 
L 15.929037 62.327211 
L 16.348744 62.309073 
L 16.768452 62.290935 
L 17.188159 62.272797 
L 17.607867 62.254658 
L 18.027574 62.23652 
L 18.447281 62.218382 
L 18.866989 62.200244 
L 19.286696 62.182105 
L 19.706404 62.163967 
L 20.126111 62.145829 
L 20.545819 62.127691 
L 20.965526 62.109553 
L 21.385234 62.091414 
L 21.804941 62.073276 
L 22.224649 62.055138 
L 22.527404 62.238711 
L 22.83016 62.422285 
L 23.132916 62.605858 
L 23.435672 62.789431 
L 23.738428 62.973004 
L 24.041183 63.156578 
L 24.343939 63.340151 
L 24.646695 63.523724 
L 25.066507 63.538722 
L 25.486319 63.553719 
L 25.780076 63.639809 
L 26.073833 63.725898 
L 26.36759 63.811988 
L 26.661347 63.898078 
L 27.086181 63.88347 
L 27.511016 63.868862 
L 27.935851 63.854254 
L 28.360686 63.839646 
L 28.45228 64.196567 
L 28.543874 64.553488 
L 28.635468 64.910409 
L 28.727062 65.26733 
L 28.709971 65.705471 
L 28.69288 66.143612 
L 28.675789 66.581754 
L 28.658698 67.019895 
L 28.488624 67.347308 
L 28.318551 67.674721 
L 28.032258 67.891698 
L 27.745966 68.108675 
L 27.459673 68.325651 
L 27.173381 68.542628 
L 26.826955 68.620537 
L 26.48053 68.698446 
L 26.157021 68.700248 
L 25.833512 68.70205 
L 25.510003 68.703851 
L 25.186493 68.705653 
L 24.862984 68.707455 
L 24.539475 68.709256 
L 24.215966 68.711058 
L 23.892456 68.71286 
L 23.568947 68.714661 
L 23.245438 68.716463 
L 22.921929 68.718264 
L 22.598419 68.720066 
L 22.27491 68.721868 
L 21.951401 68.723669 
L 21.627892 68.725471 
L 21.304382 68.727273 
L 20.953475 68.621207 
L 20.602568 68.515141 
L 20.251661 68.409075 
L 19.900753 68.303009 
L 19.549846 68.196943 
L 19.198939 68.090877 
L 18.848032 67.984811 
L 18.497125 67.878745 
L 18.146217 67.772679 
L 17.79531 67.666613 
L 17.444403 67.560548 
L 17.093496 67.454482 
L 16.742588 67.348416 
L 16.391681 67.24235 
L 16.040774 67.136284 
L 15.689867 67.030218 
L 15.338959 66.924152 
L 14.988052 66.818086 
L 14.637145 66.71202 
L 14.286238 66.605954 
L 13.93533 66.499888 
L 13.584423 66.393822 
L 13.233516 66.287756 
L 12.882609 66.18169 
L 12.531701 66.075625 
L 12.180794 65.969559 
L 11.829887 65.863493 
L 11.47898 65.757427 
L 11.128072 65.651361 
L 10.777165 65.545295 
L 10.426258 65.439229 
L 10.075351 65.333163 
L 9.748598 65.141604 
L 9.421845 64.950045 
L 9.095092 64.758486 
L 8.768339 64.566927 
L 8.441585 64.375368 
L 8.114832 64.183809 
L 7.788079 63.99225 
L 7.461326 63.800691 
L 7.134573 63.609132 
L 6.80782 63.417573 
L 6.481067 63.226014 
L 6.154314 63.034455 
L 5.827561 62.842896 
L 5.500808 62.651337 
L 5.174055 62.459778 
L 4.847302 62.268219 
L 4.653615 61.99992 
L 4.459928 61.73162 
L 4.266241 61.463321 
L 4.072554 61.195022 
L 3.878867 60.926722 
L 3.68518 60.658423 
L 3.491493 60.390123 
L 3.297806 60.121824 
L 3.223024 59.650279 
L 3.148242 59.178734 
z
" style="opacity:0.1;"/>
   </g>
   <g id="patch_3">
    <path clip-path="url(#pc6cab72032)" d="M 3.30813 57.255938 
L 3.30813 57.255938 
L 3.459369 57.515959 
L 3.610607 57.775981 
L 3.761846 58.036003 
L 3.913084 58.296024 
L 4.242209 58.596364 
L 4.571334 58.896703 
L 4.809632 58.987467 
L 5.234885 59.043952 
L 5.642734 59.203154 
L 6.050582 59.362356 
L 6.45843 59.521559 
L 6.866279 59.680761 
L 7.274127 59.839963 
L 7.681975 59.999166 
L 8.089824 60.158368 
L 8.497672 60.31757 
L 8.90552 60.476773 
L 9.313369 60.635975 
L 9.721217 60.795178 
L 10.129065 60.95438 
L 10.536914 61.113582 
L 10.944762 61.272785 
L 11.352611 61.431987 
L 11.760459 61.591189 
L 12.229068 61.685459 
L 12.697676 61.779729 
L 13.166285 61.873999 
L 13.634894 61.968269 
L 14.103503 62.062539 
L 14.572112 62.156809 
L 15.04072 62.251079 
L 15.509329 62.345349 
L 15.929037 62.327211 
L 16.348744 62.309073 
L 16.768452 62.290935 
L 17.188159 62.272797 
L 17.607867 62.254658 
L 18.027574 62.23652 
L 18.447281 62.218382 
L 18.866989 62.200244 
L 19.286696 62.182105 
L 19.706404 62.163967 
L 20.126111 62.145829 
L 20.545819 62.127691 
L 20.965526 62.109553 
L 21.385234 62.091414 
L 21.804941 62.073276 
L 22.224649 62.055138 
L 22.527404 62.238711 
L 22.83016 62.422285 
L 23.132916 62.605858 
L 23.435672 62.789431 
L 23.738428 62.973004 
L 24.041183 63.156578 
L 24.343939 63.340151 
L 24.646695 63.523724 
L 25.066507 63.538722 
L 25.486319 63.553719 
L 25.780076 63.639809 
L 26.073833 63.725898 
L 26.36759 63.811988 
L 26.661347 63.898078 
L 27.086181 63.88347 
L 27.511016 63.868862 
L 27.935851 63.854254 
L 28.360686 63.839646 
L 28.45228 64.196567 
L 28.543874 64.553488 
L 28.635468 64.910409 
L 28.727062 65.26733 
L 28.709971 65.705471 
L 28.69288 66.143612 
L 28.675789 66.581754 
L 28.658698 67.019895 
L 28.488624 67.347308 
L 28.318551 67.674721 
L 28.032258 67.891698 
L 27.745966 68.108675 
L 27.459673 68.325651 
L 27.173381 68.542628 
L 26.826955 68.620537 
L 26.48053 68.698446 
L 26.157021 68.700248 
L 25.833512 68.70205 
L 25.510003 68.703851 
L 25.186493 68.705653 
L 24.862984 68.707455 
L 24.539475 68.709256 
L 24.215966 68.711058 
L 23.892456 68.71286 
L 23.568947 68.714661 
L 23.245438 68.716463 
L 22.921929 68.718264 
L 22.598419 68.720066 
L 22.27491 68.721868 
L 21.951401 68.723669 
L 21.627892 68.725471 
L 21.304382 68.727273 
L 20.953475 68.621207 
L 20.602568 68.515141 
L 20.251661 68.409075 
L 19.900753 68.303009 
L 19.549846 68.196943 
L 19.198939 68.090877 
L 18.848032 67.984811 
L 18.497125 67.878745 
L 18.146217 67.772679 
L 17.79531 67.666613 
L 17.444403 67.560548 
L 17.093496 67.454482 
L 16.742588 67.348416 
L 16.391681 67.24235 
L 16.040774 67.136284 
L 15.689867 67.030218 
L 15.338959 66.924152 
L 14.988052 66.818086 
L 14.637145 66.71202 
L 14.286238 66.605954 
L 13.93533 66.499888 
L 13.584423 66.393822 
L 13.233516 66.287756 
L 12.882609 66.18169 
L 12.531701 66.075625 
L 12.180794 65.969559 
L 11.829887 65.863493 
L 11.47898 65.757427 
L 11.128072 65.651361 
L 10.777165 65.545295 
L 10.426258 65.439229 
L 10.075351 65.333163 
L 9.748598 65.141604 
L 9.421845 64.950045 
L 9.095092 64.758486 
L 8.768339 64.566927 
L 8.441585 64.375368 
L 8.114832 64.183809 
L 7.788079 63.99225 
L 7.461326 63.800691 
L 7.134573 63.609132 
L 6.80782 63.417573 
L 6.481067 63.226014 
L 6.154314 63.034455 
L 5.827561 62.842896 
L 5.500808 62.651337 
L 5.174055 62.459778 
L 4.847302 62.268219 
L 4.653615 61.99992 
L 4.459928 61.73162 
L 4.266241 61.463321 
L 4.072554 61.195022 
L 3.878867 60.926722 
L 3.68518 60.658423 
L 3.491493 60.390123 
L 3.297806 60.121824 
L 3.223024 59.650279 
L 3.148242 59.178734 
z
" style="fill:none;stroke:#000000;stroke-dasharray:1.48,0.64;stroke-dashoffset:0;stroke-linejoin:miter;stroke-width:0.4;"/>
   </g>
   <g id="patch_4">
    <path clip-path="url(#pc6cab72032)" d="M 42.48836 59.981587 
L 42.48836 59.981587 
L 42.220763 59.641125 
L 41.953166 59.300662 
L 41.685569 58.960199 
L 41.417972 58.619737 
L 41.287033 58.378413 
L 41.156095 58.13709 
L 41.025157 57.895766 
L 40.894218 57.654443 
L 40.665966 57.396369 
L 40.437713 57.138295 
L 39.968441 57.258859 
L 39.49917 57.379424 
L 39.029898 57.499988 
L 38.560627 57.620552 
L 38.06666 57.717939 
L 37.572694 57.815325 
L 37.078728 57.912712 
L 36.584761 58.010098 
L 36.193585 57.909084 
L 35.80241 57.80807 
L 35.411234 57.707056 
L 35.020058 57.606042 
L 34.628882 57.505028 
L 34.237706 57.404014 
L 33.84653 57.303 
L 33.455354 57.201986 
L 33.064179 57.100972 
L 32.673003 56.999958 
L 32.281827 56.898944 
L 31.890651 56.79793 
L 31.499475 56.696916 
L 31.108299 56.595902 
L 30.717123 56.494888 
L 30.325948 56.393874 
L 30.153991 56.144662 
L 29.982034 55.89545 
L 29.810077 55.646239 
L 29.63812 55.397027 
L 29.449002 55.607625 
L 29.259884 55.818223 
L 29.070767 56.028821 
L 28.881649 56.239419 
L 28.692531 56.450017 
L 28.503413 56.660615 
L 28.314296 56.871213 
L 28.125178 57.081811 
L 27.737071 56.796128 
L 27.348965 56.510445 
L 26.960859 56.224762 
L 26.572752 55.939079 
L 26.184646 55.653397 
L 25.796539 55.367714 
L 25.408433 55.082031 
L 25.020326 54.796348 
L 24.63222 54.510665 
L 24.244114 54.224982 
L 23.856007 53.939299 
L 23.467901 53.653616 
L 23.079794 53.367933 
L 22.691688 53.08225 
L 22.303581 52.796567 
L 21.915475 52.510885 
L 21.749308 52.765501 
L 21.583141 53.020118 
L 21.416974 53.274735 
L 21.250807 53.529351 
L 21.08464 53.783968 
L 20.918473 54.038584 
L 20.752307 54.293201 
L 20.58614 54.547818 
L 20.419973 54.802434 
L 20.253806 55.057051 
L 20.087639 55.311668 
L 19.921472 55.566284 
L 19.755305 55.820901 
L 19.589138 56.075518 
L 19.422971 56.330134 
L 19.256804 56.584751 
L 19.605741 56.952385 
L 19.954678 57.320018 
L 20.303614 57.687652 
L 20.652551 58.055285 
L 20.914218 58.239151 
L 21.175886 58.423016 
L 21.437553 58.606882 
L 21.699221 58.790747 
L 22.023462 59.10511 
L 22.347704 59.419473 
L 22.721615 59.566527 
L 23.095525 59.71358 
L 23.503896 59.804344 
L 23.912268 59.895108 
L 24.249764 59.914878 
L 24.58726 59.934647 
L 24.924756 59.954417 
L 25.262252 59.974186 
L 25.62242 60.113156 
L 25.982588 60.252127 
L 26.342755 60.391097 
L 26.702923 60.530067 
L 27.094134 60.70809 
L 27.417539 60.983888 
L 27.935014 61.050111 
L 28.452489 61.116333 
L 28.802821 60.988465 
L 29.153153 60.860597 
L 29.503484 60.732729 
L 29.853816 60.60486 
L 30.369757 60.622 
L 30.885697 60.63914 
L 31.233657 60.535911 
L 31.659468 60.720945 
L 31.927903 61.169117 
L 32.196337 61.617289 
L 32.464771 62.065461 
L 32.733205 62.513633 
L 33.131113 62.772876 
L 33.52902 63.032118 
L 33.946042 63.247147 
L 34.363064 63.462176 
L 34.545485 63.657533 
L 34.727906 63.85289 
L 34.910326 64.048247 
L 35.092747 64.243604 
L 35.399689 64.523298 
L 35.70663 64.802992 
L 35.847823 64.861034 
L 35.983435 64.877784 
L 36.134674 64.884407 
L 36.476774 64.750793 
L 36.713677 64.610751 
L 36.95058 64.470709 
L 37.171298 64.313723 
L 37.392017 64.156736 
L 37.708306 63.900317 
L 38.024595 63.643899 
L 38.340885 63.387481 
L 38.657174 63.131063 
L 38.900425 62.852343 
L 39.143676 62.573623 
L 39.386927 62.294903 
L 39.630178 62.016183 
L 39.946467 61.776808 
L 40.262756 61.537432 
L 40.386091 61.223069 
L 40.580859 60.976097 
L 40.947514 60.938701 
L 41.284313 60.9909 
L 41.634087 61.047579 
L 41.98386 61.104258 
L 42.30866 60.909485 
L 42.533285 60.52773 
z
" style="fill:#ff0000;opacity:0.1;"/>
   </g>
   <g id="patch_5">
    <path clip-path="url(#pc6cab72032)" d="M 42.48836 59.981587 
L 42.48836 59.981587 
L 42.220763 59.641125 
L 41.953166 59.300662 
L 41.685569 58.960199 
L 41.417972 58.619737 
L 41.287033 58.378413 
L 41.156095 58.13709 
L 41.025157 57.895766 
L 40.894218 57.654443 
L 40.665966 57.396369 
L 40.437713 57.138295 
L 39.968441 57.258859 
L 39.49917 57.379424 
L 39.029898 57.499988 
L 38.560627 57.620552 
L 38.06666 57.717939 
L 37.572694 57.815325 
L 37.078728 57.912712 
L 36.584761 58.010098 
L 36.193585 57.909084 
L 35.80241 57.80807 
L 35.411234 57.707056 
L 35.020058 57.606042 
L 34.628882 57.505028 
L 34.237706 57.404014 
L 33.84653 57.303 
L 33.455354 57.201986 
L 33.064179 57.100972 
L 32.673003 56.999958 
L 32.281827 56.898944 
L 31.890651 56.79793 
L 31.499475 56.696916 
L 31.108299 56.595902 
L 30.717123 56.494888 
L 30.325948 56.393874 
L 30.153991 56.144662 
L 29.982034 55.89545 
L 29.810077 55.646239 
L 29.63812 55.397027 
L 29.449002 55.607625 
L 29.259884 55.818223 
L 29.070767 56.028821 
L 28.881649 56.239419 
L 28.692531 56.450017 
L 28.503413 56.660615 
L 28.314296 56.871213 
L 28.125178 57.081811 
L 27.737071 56.796128 
L 27.348965 56.510445 
L 26.960859 56.224762 
L 26.572752 55.939079 
L 26.184646 55.653397 
L 25.796539 55.367714 
L 25.408433 55.082031 
L 25.020326 54.796348 
L 24.63222 54.510665 
L 24.244114 54.224982 
L 23.856007 53.939299 
L 23.467901 53.653616 
L 23.079794 53.367933 
L 22.691688 53.08225 
L 22.303581 52.796567 
L 21.915475 52.510885 
L 21.749308 52.765501 
L 21.583141 53.020118 
L 21.416974 53.274735 
L 21.250807 53.529351 
L 21.08464 53.783968 
L 20.918473 54.038584 
L 20.752307 54.293201 
L 20.58614 54.547818 
L 20.419973 54.802434 
L 20.253806 55.057051 
L 20.087639 55.311668 
L 19.921472 55.566284 
L 19.755305 55.820901 
L 19.589138 56.075518 
L 19.422971 56.330134 
L 19.256804 56.584751 
L 19.605741 56.952385 
L 19.954678 57.320018 
L 20.303614 57.687652 
L 20.652551 58.055285 
L 20.914218 58.239151 
L 21.175886 58.423016 
L 21.437553 58.606882 
L 21.699221 58.790747 
L 22.023462 59.10511 
L 22.347704 59.419473 
L 22.721615 59.566527 
L 23.095525 59.71358 
L 23.503896 59.804344 
L 23.912268 59.895108 
L 24.249764 59.914878 
L 24.58726 59.934647 
L 24.924756 59.954417 
L 25.262252 59.974186 
L 25.62242 60.113156 
L 25.982588 60.252127 
L 26.342755 60.391097 
L 26.702923 60.530067 
L 27.094134 60.70809 
L 27.417539 60.983888 
L 27.935014 61.050111 
L 28.452489 61.116333 
L 28.802821 60.988465 
L 29.153153 60.860597 
L 29.503484 60.732729 
L 29.853816 60.60486 
L 30.369757 60.622 
L 30.885697 60.63914 
L 31.233657 60.535911 
L 31.659468 60.720945 
L 31.927903 61.169117 
L 32.196337 61.617289 
L 32.464771 62.065461 
L 32.733205 62.513633 
L 33.131113 62.772876 
L 33.52902 63.032118 
L 33.946042 63.247147 
L 34.363064 63.462176 
L 34.545485 63.657533 
L 34.727906 63.85289 
L 34.910326 64.048247 
L 35.092747 64.243604 
L 35.399689 64.523298 
L 35.70663 64.802992 
L 35.847823 64.861034 
L 35.983435 64.877784 
L 36.134674 64.884407 
L 36.476774 64.750793 
L 36.713677 64.610751 
L 36.95058 64.470709 
L 37.171298 64.313723 
L 37.392017 64.156736 
L 37.708306 63.900317 
L 38.024595 63.643899 
L 38.340885 63.387481 
L 38.657174 63.131063 
L 38.900425 62.852343 
L 39.143676 62.573623 
L 39.386927 62.294903 
L 39.630178 62.016183 
L 39.946467 61.776808 
L 40.262756 61.537432 
L 40.386091 61.223069 
L 40.580859 60.976097 
L 40.947514 60.938701 
L 41.284313 60.9909 
L 41.634087 61.047579 
L 41.98386 61.104258 
L 42.30866 60.909485 
L 42.533285 60.52773 
z
" style="fill:none;stroke:#ff0000;stroke-dasharray:1.48,0.64;stroke-dashoffset:0;stroke-linejoin:miter;stroke-width:0.4;"/>
   </g>
   <g id="patch_6">
    <path clip-path="url(#pc6cab72032)" d="M 43.693524 52.122897 
L 43.693524 52.122897 
L 43.513893 51.90222 
L 43.334263 51.681542 
L 43.154632 51.460865 
L 42.975002 51.240187 
L 42.802138 50.89466 
L 42.629274 50.549134 
L 42.392232 50.183837 
L 42.155189 49.818541 
L 41.918147 49.453245 
L 41.681104 49.087949 
L 41.48236 48.804067 
L 41.283615 48.520186 
L 41.084871 48.236305 
L 40.886126 47.952424 
L 40.687382 47.668542 
L 40.488637 47.384661 
L 40.289893 47.10078 
L 40.091148 46.816898 
L 39.905361 46.510813 
L 39.719575 46.204728 
L 39.533788 45.898642 
L 39.348001 45.592557 
L 39.162214 45.286472 
L 38.976428 44.980386 
L 38.790641 44.674301 
L 38.604854 44.368216 
L 38.419067 44.06213 
L 38.233281 43.756045 
L 38.047494 43.44996 
L 37.861707 43.143874 
L 37.675921 42.837789 
L 37.490134 42.531704 
L 37.304347 42.225618 
L 37.11856 41.919533 
L 36.944511 41.689945 
L 36.770461 41.460356 
L 36.596411 41.230768 
L 36.422361 41.001179 
L 36.248312 40.771591 
L 36.074262 40.542003 
L 35.900212 40.312414 
L 35.726163 40.082826 
L 35.331045 39.79651 
L 34.985597 39.885326 
L 34.886817 40.151776 
L 34.80778 40.480162 
L 34.728743 40.808549 
L 34.649705 41.136936 
L 34.570668 41.465323 
L 34.597002 41.743507 
L 34.623336 42.021691 
L 34.64967 42.299875 
L 34.676005 42.57806 
L 34.702339 42.856244 
L 34.728673 43.134428 
L 34.755007 43.412612 
L 34.781341 43.690796 
L 34.87304 43.965815 
L 34.964739 44.240834 
L 35.056437 44.515853 
L 35.148136 44.790873 
L 35.239835 45.065892 
L 35.331534 45.340911 
L 35.423232 45.61593 
L 35.514931 45.890949 
L 35.960275 46.040534 
L 36.242801 46.064881 
L 36.525326 46.089228 
L 36.819013 45.973143 
L 37.112701 45.857058 
L 37.632827 45.864849 
L 37.901331 46.074327 
L 38.169835 46.283806 
L 38.438338 46.493284 
L 38.706842 46.702762 
L 39.043641 47.101267 
L 39.380439 47.499772 
L 39.518981 47.827185 
L 39.657524 48.154598 
L 39.810855 48.496813 
L 39.964186 48.839029 
L 39.926795 49.102751 
L 39.889404 49.366474 
L 39.917447 49.718233 
L 39.94549 50.069993 
L 40.183649 50.468887 
L 40.421808 50.867782 
L 40.527981 51.185456 
L 40.634155 51.50313 
L 40.919611 51.907868 
L 41.189022 52.048299 
L 41.458432 52.18873 
L 41.926099 52.27482 
L 42.437296 52.214051 
L 42.947935 52.219505 
L 43.169212 52.247941 
L 43.387419 52.244825 
L 43.571863 52.205481 
z
" style="opacity:0.1;"/>
   </g>
   <g id="patch_7">
    <path clip-path="url(#pc6cab72032)" d="M 43.693524 52.122897 
L 43.693524 52.122897 
L 43.513893 51.90222 
L 43.334263 51.681542 
L 43.154632 51.460865 
L 42.975002 51.240187 
L 42.802138 50.89466 
L 42.629274 50.549134 
L 42.392232 50.183837 
L 42.155189 49.818541 
L 41.918147 49.453245 
L 41.681104 49.087949 
L 41.48236 48.804067 
L 41.283615 48.520186 
L 41.084871 48.236305 
L 40.886126 47.952424 
L 40.687382 47.668542 
L 40.488637 47.384661 
L 40.289893 47.10078 
L 40.091148 46.816898 
L 39.905361 46.510813 
L 39.719575 46.204728 
L 39.533788 45.898642 
L 39.348001 45.592557 
L 39.162214 45.286472 
L 38.976428 44.980386 
L 38.790641 44.674301 
L 38.604854 44.368216 
L 38.419067 44.06213 
L 38.233281 43.756045 
L 38.047494 43.44996 
L 37.861707 43.143874 
L 37.675921 42.837789 
L 37.490134 42.531704 
L 37.304347 42.225618 
L 37.11856 41.919533 
L 36.944511 41.689945 
L 36.770461 41.460356 
L 36.596411 41.230768 
L 36.422361 41.001179 
L 36.248312 40.771591 
L 36.074262 40.542003 
L 35.900212 40.312414 
L 35.726163 40.082826 
L 35.331045 39.79651 
L 34.985597 39.885326 
L 34.886817 40.151776 
L 34.80778 40.480162 
L 34.728743 40.808549 
L 34.649705 41.136936 
L 34.570668 41.465323 
L 34.597002 41.743507 
L 34.623336 42.021691 
L 34.64967 42.299875 
L 34.676005 42.57806 
L 34.702339 42.856244 
L 34.728673 43.134428 
L 34.755007 43.412612 
L 34.781341 43.690796 
L 34.87304 43.965815 
L 34.964739 44.240834 
L 35.056437 44.515853 
L 35.148136 44.790873 
L 35.239835 45.065892 
L 35.331534 45.340911 
L 35.423232 45.61593 
L 35.514931 45.890949 
L 35.960275 46.040534 
L 36.242801 46.064881 
L 36.525326 46.089228 
L 36.819013 45.973143 
L 37.112701 45.857058 
L 37.632827 45.864849 
L 37.901331 46.074327 
L 38.169835 46.283806 
L 38.438338 46.493284 
L 38.706842 46.702762 
L 39.043641 47.101267 
L 39.380439 47.499772 
L 39.518981 47.827185 
L 39.657524 48.154598 
L 39.810855 48.496813 
L 39.964186 48.839029 
L 39.926795 49.102751 
L 39.889404 49.366474 
L 39.917447 49.718233 
L 39.94549 50.069993 
L 40.183649 50.468887 
L 40.421808 50.867782 
L 40.527981 51.185456 
L 40.634155 51.50313 
L 40.919611 51.907868 
L 41.189022 52.048299 
L 41.458432 52.18873 
L 41.926099 52.27482 
L 42.437296 52.214051 
L 42.947935 52.219505 
L 43.169212 52.247941 
L 43.387419 52.244825 
L 43.571863 52.205481 
z
" style="fill:none;stroke:#000000;stroke-dasharray:1.48,0.64;stroke-dashoffset:0;stroke-linejoin:miter;stroke-width:0.4;"/>
   </g>
   <g id="patch_8">
    <path clip-path="url(#pc6cab72032)" d="M 57.512862 36.909589 
L 57.512862 36.909589 
L 57.704281 36.640096 
L 57.895701 36.370604 
L 58.087121 36.101111 
L 58.278541 35.831619 
L 58.469961 35.562127 
L 58.66138 35.292634 
L 58.8528 35.023142 
L 59.04422 34.753649 
L 59.23564 34.484157 
L 59.42706 34.214664 
L 59.618479 33.945172 
L 59.809899 33.67568 
L 60.001319 33.406187 
L 60.192739 33.136695 
L 60.384159 32.867202 
L 60.575578 32.59771 
L 61.064522 32.670068 
L 61.553466 32.742426 
L 62.042409 32.814784 
L 62.531353 32.887142 
L 62.974325 32.639586 
L 63.417298 32.39203 
L 63.645411 32.118374 
L 63.873524 31.844719 
L 64.0429 31.649556 
L 64.420717 31.636312 
L 64.720403 31.701366 
L 64.766723 32.199984 
L 64.721798 32.525449 
L 64.676873 32.850914 
L 64.594557 33.18008 
L 64.437459 33.32616 
L 64.422531 33.620462 
L 64.407602 33.914763 
L 64.605858 34.333135 
L 64.804114 34.751507 
L 64.983815 34.848893 
L 65.096267 34.992246 
L 65.238297 34.871487 
L 65.398186 34.776438 
L 65.658807 34.893691 
L 65.769585 35.028474 
L 65.784932 35.171826 
L 65.72466 35.387635 
L 65.604952 35.59721 
L 65.425392 35.818667 
L 65.245831 36.040123 
L 64.991488 36.459079 
L 64.737145 36.878035 
L 64.843319 37.205838 
L 64.949493 37.53364 
L 65.055667 37.861443 
L 65.161841 38.189246 
L 65.26648 38.653194 
L 65.191698 39.019756 
L 64.98214 39.266728 
L 64.707009 39.452541 
L 64.264595 39.632901 
L 63.822181 39.813261 
L 63.522774 40.052441 
L 63.477849 40.404201 
L 63.51524 40.651173 
L 63.71224 40.980534 
L 63.909241 41.309894 
L 64.118798 41.69905 
L 64.126332 41.938621 
L 63.991557 42.043408 
L 63.766932 41.983418 
L 63.677361 41.901224 
L 63.460269 41.448378 
L 63.243178 40.995531 
L 62.831598 40.69636 
L 62.541957 40.598195 
L 62.252315 40.500029 
L 61.809762 40.369921 
L 61.367208 40.239813 
L 60.956465 40.055558 
L 60.545721 39.871303 
L 60.276311 39.639329 
L 60.0069 39.407354 
L 59.737489 39.17538 
L 59.468078 38.943406 
L 59.243523 38.636638 
L 59.018967 38.329871 
L 58.794412 38.023104 
L 58.569856 37.716337 
z
" style="fill:#ff0000;opacity:0.1;"/>
   </g>
   <g id="patch_9">
    <path clip-path="url(#pc6cab72032)" d="M 57.512862 36.909589 
L 57.512862 36.909589 
L 57.704281 36.640096 
L 57.895701 36.370604 
L 58.087121 36.101111 
L 58.278541 35.831619 
L 58.469961 35.562127 
L 58.66138 35.292634 
L 58.8528 35.023142 
L 59.04422 34.753649 
L 59.23564 34.484157 
L 59.42706 34.214664 
L 59.618479 33.945172 
L 59.809899 33.67568 
L 60.001319 33.406187 
L 60.192739 33.136695 
L 60.384159 32.867202 
L 60.575578 32.59771 
L 61.064522 32.670068 
L 61.553466 32.742426 
L 62.042409 32.814784 
L 62.531353 32.887142 
L 62.974325 32.639586 
L 63.417298 32.39203 
L 63.645411 32.118374 
L 63.873524 31.844719 
L 64.0429 31.649556 
L 64.420717 31.636312 
L 64.720403 31.701366 
L 64.766723 32.199984 
L 64.721798 32.525449 
L 64.676873 32.850914 
L 64.594557 33.18008 
L 64.437459 33.32616 
L 64.422531 33.620462 
L 64.407602 33.914763 
L 64.605858 34.333135 
L 64.804114 34.751507 
L 64.983815 34.848893 
L 65.096267 34.992246 
L 65.238297 34.871487 
L 65.398186 34.776438 
L 65.658807 34.893691 
L 65.769585 35.028474 
L 65.784932 35.171826 
L 65.72466 35.387635 
L 65.604952 35.59721 
L 65.425392 35.818667 
L 65.245831 36.040123 
L 64.991488 36.459079 
L 64.737145 36.878035 
L 64.843319 37.205838 
L 64.949493 37.53364 
L 65.055667 37.861443 
L 65.161841 38.189246 
L 65.26648 38.653194 
L 65.191698 39.019756 
L 64.98214 39.266728 
L 64.707009 39.452541 
L 64.264595 39.632901 
L 63.822181 39.813261 
L 63.522774 40.052441 
L 63.477849 40.404201 
L 63.51524 40.651173 
L 63.71224 40.980534 
L 63.909241 41.309894 
L 64.118798 41.69905 
L 64.126332 41.938621 
L 63.991557 42.043408 
L 63.766932 41.983418 
L 63.677361 41.901224 
L 63.460269 41.448378 
L 63.243178 40.995531 
L 62.831598 40.69636 
L 62.541957 40.598195 
L 62.252315 40.500029 
L 61.809762 40.369921 
L 61.367208 40.239813 
L 60.956465 40.055558 
L 60.545721 39.871303 
L 60.276311 39.639329 
L 60.0069 39.407354 
L 59.737489 39.17538 
L 59.468078 38.943406 
L 59.243523 38.636638 
L 59.018967 38.329871 
L 58.794412 38.023104 
L 58.569856 37.716337 
z
" style="fill:none;stroke:#ff0000;stroke-dasharray:1.48,0.64;stroke-dashoffset:0;stroke-linejoin:miter;stroke-width:0.4;"/>
   </g>
   <g id="patch_10">
    <path clip-path="url(#pc6cab72032)" d="M 51.536992 36.184645 
L 51.536992 36.184645 
L 52.062141 36.200226 
L 52.388754 36.27015 
L 52.715368 36.340073 
L 53.033471 36.323907 
L 53.351574 36.307741 
L 53.669676 36.291575 
L 53.987779 36.275409 
L 54.304348 36.295665 
L 54.620916 36.315921 
L 54.937484 36.336178 
L 55.254052 36.356434 
L 55.569434 36.554031 
L 55.884817 36.751628 
L 56.200199 36.949225 
L 56.515581 37.146822 
L 56.754786 37.291635 
L 56.993991 37.436449 
L 57.233196 37.581262 
L 57.472401 37.726076 
L 57.734348 38.060988 
L 57.996294 38.395899 
L 58.258241 38.730811 
L 58.520187 39.065723 
L 58.836407 39.36129 
L 59.152626 39.656858 
L 59.468846 39.952426 
L 59.785065 40.247993 
L 60.110632 40.433222 
L 60.436199 40.618451 
L 60.761766 40.80368 
L 61.087333 40.988909 
L 61.454059 41.088048 
L 61.820784 41.187187 
L 62.187509 41.286327 
L 62.554234 41.385466 
L 62.92089 41.677236 
L 63.091172 41.980302 
L 63.261455 42.283368 
L 63.431738 42.586435 
L 63.60202 42.889501 
L 63.74433 43.233859 
L 63.722704 43.571206 
L 63.701079 43.908552 
L 63.701079 44.367826 
L 63.701079 44.8271 
L 63.701079 45.286374 
L 63.701079 45.745648 
L 63.610113 46.199469 
L 63.519425 46.471761 
L 63.338051 46.596416 
L 63.009066 46.505652 
L 62.66864 46.347107 
L 62.508193 46.204143 
L 62.351095 46.18155 
L 62.059221 46.114158 
L 61.961837 45.822389 
L 62.092845 45.489522 
L 62.223854 45.156656 
L 62.235155 44.875988 
L 62.246456 44.595321 
L 62.104147 44.460538 
L 61.864732 44.430543 
L 61.602716 44.539031 
L 61.3407 44.64752 
L 60.914051 44.677515 
L 60.539862 44.804896 
L 60.061033 44.759709 
L 59.841989 44.907541 
L 59.622944 45.055374 
L 59.369996 45.382787 
L 59.117049 45.7102 
L 58.864101 46.037613 
L 58.611154 46.365026 
L 58.358206 46.692439 
L 58.105258 47.019852 
L 57.852311 47.347265 
L 57.599363 47.674678 
L 57.588202 47.98086 
L 57.69591 48.281589 
L 57.871704 48.601991 
L 58.047498 48.922392 
L 58.2092 49.376017 
L 58.370902 49.829643 
L 58.34244 50.288917 
L 58.172227 50.725598 
L 58.007874 50.879079 
L 57.786597 50.941406 
L 57.29884 50.958156 
L 56.862146 50.833502 
L 56.618267 50.706315 
L 56.374388 50.579129 
L 56.212267 50.233991 
L 56.050146 49.888854 
L 55.888026 49.543717 
L 55.725905 49.198579 
L 55.567132 48.856753 
L 55.40836 48.514927 
L 55.332043 48.137652 
L 55.255726 47.760378 
L 55.262981 47.658317 
L 55.326602 47.594431 
L 55.491234 47.527429 
L 55.588618 47.313958 
L 55.647635 46.976612 
L 55.706651 46.639266 
L 55.64596 46.320228 
L 55.58527 46.00119 
L 55.147181 45.73552 
L 55.1183 45.372172 
L 55.08942 45.008823 
L 55.060539 44.645475 
L 55.031659 44.282126 
L 55.086909 43.822852 
L 55.142158 43.363578 
L 55.197407 42.904304 
L 55.252657 42.44503 
L 55.27219 42.084311 
L 55.107836 41.896939 
L 54.858098 41.863049 
L 54.716905 41.636723 
L 54.575712 41.410397 
L 54.434519 41.184071 
L 54.293326 40.957745 
L 53.936436 40.575991 
L 53.579547 40.194236 
L 53.298626 39.89005 
L 53.017705 39.585863 
L 52.736784 39.281677 
L 52.455863 38.977491 
L 52.174942 38.673304 
L 51.894021 38.369118 
L 51.6131 38.064932 
L 51.332178 37.760746 
L 51.762036 37.613497 
L 52.191893 37.466249 
L 52.278116 37.3973 
L 52.391963 37.361072 
L 52.495207 37.017103 
L 52.663188 36.936857 
L 52.670722 36.839081 
L 52.56971 36.768184 
L 52.33783 36.68599 
z
" style="opacity:0.1;"/>
   </g>
   <g id="patch_11">
    <path clip-path="url(#pc6cab72032)" d="M 51.536992 36.184645 
L 51.536992 36.184645 
L 52.062141 36.200226 
L 52.388754 36.27015 
L 52.715368 36.340073 
L 53.033471 36.323907 
L 53.351574 36.307741 
L 53.669676 36.291575 
L 53.987779 36.275409 
L 54.304348 36.295665 
L 54.620916 36.315921 
L 54.937484 36.336178 
L 55.254052 36.356434 
L 55.569434 36.554031 
L 55.884817 36.751628 
L 56.200199 36.949225 
L 56.515581 37.146822 
L 56.754786 37.291635 
L 56.993991 37.436449 
L 57.233196 37.581262 
L 57.472401 37.726076 
L 57.734348 38.060988 
L 57.996294 38.395899 
L 58.258241 38.730811 
L 58.520187 39.065723 
L 58.836407 39.36129 
L 59.152626 39.656858 
L 59.468846 39.952426 
L 59.785065 40.247993 
L 60.110632 40.433222 
L 60.436199 40.618451 
L 60.761766 40.80368 
L 61.087333 40.988909 
L 61.454059 41.088048 
L 61.820784 41.187187 
L 62.187509 41.286327 
L 62.554234 41.385466 
L 62.92089 41.677236 
L 63.091172 41.980302 
L 63.261455 42.283368 
L 63.431738 42.586435 
L 63.60202 42.889501 
L 63.74433 43.233859 
L 63.722704 43.571206 
L 63.701079 43.908552 
L 63.701079 44.367826 
L 63.701079 44.8271 
L 63.701079 45.286374 
L 63.701079 45.745648 
L 63.610113 46.199469 
L 63.519425 46.471761 
L 63.338051 46.596416 
L 63.009066 46.505652 
L 62.66864 46.347107 
L 62.508193 46.204143 
L 62.351095 46.18155 
L 62.059221 46.114158 
L 61.961837 45.822389 
L 62.092845 45.489522 
L 62.223854 45.156656 
L 62.235155 44.875988 
L 62.246456 44.595321 
L 62.104147 44.460538 
L 61.864732 44.430543 
L 61.602716 44.539031 
L 61.3407 44.64752 
L 60.914051 44.677515 
L 60.539862 44.804896 
L 60.061033 44.759709 
L 59.841989 44.907541 
L 59.622944 45.055374 
L 59.369996 45.382787 
L 59.117049 45.7102 
L 58.864101 46.037613 
L 58.611154 46.365026 
L 58.358206 46.692439 
L 58.105258 47.019852 
L 57.852311 47.347265 
L 57.599363 47.674678 
L 57.588202 47.98086 
L 57.69591 48.281589 
L 57.871704 48.601991 
L 58.047498 48.922392 
L 58.2092 49.376017 
L 58.370902 49.829643 
L 58.34244 50.288917 
L 58.172227 50.725598 
L 58.007874 50.879079 
L 57.786597 50.941406 
L 57.29884 50.958156 
L 56.862146 50.833502 
L 56.618267 50.706315 
L 56.374388 50.579129 
L 56.212267 50.233991 
L 56.050146 49.888854 
L 55.888026 49.543717 
L 55.725905 49.198579 
L 55.567132 48.856753 
L 55.40836 48.514927 
L 55.332043 48.137652 
L 55.255726 47.760378 
L 55.262981 47.658317 
L 55.326602 47.594431 
L 55.491234 47.527429 
L 55.588618 47.313958 
L 55.647635 46.976612 
L 55.706651 46.639266 
L 55.64596 46.320228 
L 55.58527 46.00119 
L 55.147181 45.73552 
L 55.1183 45.372172 
L 55.08942 45.008823 
L 55.060539 44.645475 
L 55.031659 44.282126 
L 55.086909 43.822852 
L 55.142158 43.363578 
L 55.197407 42.904304 
L 55.252657 42.44503 
L 55.27219 42.084311 
L 55.107836 41.896939 
L 54.858098 41.863049 
L 54.716905 41.636723 
L 54.575712 41.410397 
L 54.434519 41.184071 
L 54.293326 40.957745 
L 53.936436 40.575991 
L 53.579547 40.194236 
L 53.298626 39.89005 
L 53.017705 39.585863 
L 52.736784 39.281677 
L 52.455863 38.977491 
L 52.174942 38.673304 
L 51.894021 38.369118 
L 51.6131 38.064932 
L 51.332178 37.760746 
L 51.762036 37.613497 
L 52.191893 37.466249 
L 52.278116 37.3973 
L 52.391963 37.361072 
L 52.495207 37.017103 
L 52.663188 36.936857 
L 52.670722 36.839081 
L 52.56971 36.768184 
L 52.33783 36.68599 
z
" style="fill:none;stroke:#000000;stroke-dasharray:1.48,0.64;stroke-dashoffset:0;stroke-linejoin:miter;stroke-width:0.4;"/>
   </g>
   <g id="patch_12">
    <path clip-path="url(#pc6cab72032)" d="M 60.993019 45.504909 
L 60.993019 45.504909 
L 61.225178 45.609308 
L 61.449524 45.781487 
L 61.53184 46.03586 
L 61.397065 46.425016 
L 61.202576 46.784177 
L 61.008087 47.031148 
L 60.678822 47.21852 
L 60.604877 47.520028 
L 60.297099 47.802059 
L 60.109865 47.899445 
L 59.848965 47.911132 
L 59.51105 47.727266 
L 59.537279 47.411053 
L 59.563509 47.094839 
L 59.589739 46.778626 
L 59.615968 46.462412 
L 59.791832 46.221089 
L 59.967695 45.979765 
L 60.143558 45.738442 
L 60.319422 45.497118 
L 60.678822 45.422326 
z
" style="opacity:0.1;"/>
   </g>
   <g id="patch_13">
    <path clip-path="url(#pc6cab72032)" d="M 60.993019 45.504909 
L 60.993019 45.504909 
L 61.225178 45.609308 
L 61.449524 45.781487 
L 61.53184 46.03586 
L 61.397065 46.425016 
L 61.202576 46.784177 
L 61.008087 47.031148 
L 60.678822 47.21852 
L 60.604877 47.520028 
L 60.297099 47.802059 
L 60.109865 47.899445 
L 59.848965 47.911132 
L 59.51105 47.727266 
L 59.537279 47.411053 
L 59.563509 47.094839 
L 59.589739 46.778626 
L 59.615968 46.462412 
L 59.791832 46.221089 
L 59.967695 45.979765 
L 60.143558 45.738442 
L 60.319422 45.497118 
L 60.678822 45.422326 
z
" style="fill:none;stroke:#000000;stroke-dasharray:1.48,0.64;stroke-dashoffset:0;stroke-linejoin:miter;stroke-width:0.4;"/>
   </g>
   <g id="patch_14">
    <path clip-path="url(#pc6cab72032)" d="M 61.960721 46.402812 
L 61.960721 46.402812 
L 61.672475 46.642382 
L 61.410459 46.947396 
L 61.132538 47.267797 
L 60.854616 47.588199 
L 60.536932 47.979497 
L 60.219247 48.370795 
L 60.230688 48.603354 
L 60.172927 48.823837 
L 60.258592 49.226822 
L 60.344256 49.629806 
L 60.500238 49.944559 
L 60.65622 50.259312 
L 60.65329 50.585361 
L 60.650361 50.911411 
L 60.599297 51.302515 
L 60.729886 51.574807 
L 60.749698 52.068166 
L 60.76951 52.561525 
L 60.735467 52.975612 
L 60.701424 53.389699 
L 60.622038 53.707179 
L 60.542652 54.024658 
L 60.423503 54.251374 
L 60.548233 54.427448 
L 60.78095 54.625727 
L 61.092914 54.552103 
L 61.359116 54.398622 
L 61.625318 54.245141 
L 61.938119 53.854427 
L 62.128144 53.651863 
L 62.130934 53.463323 
L 62.153815 53.21791 
L 62.183951 52.771101 
L 62.140979 52.323903 
L 62.048618 51.986556 
L 61.956257 51.64921 
L 62.029364 51.378476 
L 62.140979 51.232396 
L 62.360303 50.948807 
L 62.317331 50.604839 
L 62.321517 50.278399 
L 62.16693 49.878726 
L 62.123958 49.607992 
L 62.080986 49.337258 
L 62.113215 48.922392 
L 62.145444 48.507526 
L 62.418343 48.223937 
L 62.691242 47.940348 
L 62.949072 47.566384 
L 62.924796 47.23527 
L 62.880429 47.029201 
L 62.695427 46.822742 
L 62.317331 46.534868 
z
" style="fill:#4169e1;opacity:0.1;"/>
   </g>
   <g id="patch_15">
    <path clip-path="url(#pc6cab72032)" d="M 61.960721 46.402812 
L 61.960721 46.402812 
L 61.672475 46.642382 
L 61.410459 46.947396 
L 61.132538 47.267797 
L 60.854616 47.588199 
L 60.536932 47.979497 
L 60.219247 48.370795 
L 60.230688 48.603354 
L 60.172927 48.823837 
L 60.258592 49.226822 
L 60.344256 49.629806 
L 60.500238 49.944559 
L 60.65622 50.259312 
L 60.65329 50.585361 
L 60.650361 50.911411 
L 60.599297 51.302515 
L 60.729886 51.574807 
L 60.749698 52.068166 
L 60.76951 52.561525 
L 60.735467 52.975612 
L 60.701424 53.389699 
L 60.622038 53.707179 
L 60.542652 54.024658 
L 60.423503 54.251374 
L 60.548233 54.427448 
L 60.78095 54.625727 
L 61.092914 54.552103 
L 61.359116 54.398622 
L 61.625318 54.245141 
L 61.938119 53.854427 
L 62.128144 53.651863 
L 62.130934 53.463323 
L 62.153815 53.21791 
L 62.183951 52.771101 
L 62.140979 52.323903 
L 62.048618 51.986556 
L 61.956257 51.64921 
L 62.029364 51.378476 
L 62.140979 51.232396 
L 62.360303 50.948807 
L 62.317331 50.604839 
L 62.321517 50.278399 
L 62.16693 49.878726 
L 62.123958 49.607992 
L 62.080986 49.337258 
L 62.113215 48.922392 
L 62.145444 48.507526 
L 62.418343 48.223937 
L 62.691242 47.940348 
L 62.949072 47.566384 
L 62.924796 47.23527 
L 62.880429 47.029201 
L 62.695427 46.822742 
L 62.317331 46.534868 
z
" style="fill:none;stroke:#4169e1;stroke-dasharray:1.48,0.64;stroke-dashoffset:0;stroke-linejoin:miter;stroke-width:0.4;"/>
   </g>
   <g id="line2d_1">
    <path clip-path="url(#pc6cab72032)" d="M 50.384288 62.159926 
L 49.772916 61.136979 
L 49.161545 60.114033 
L 48.277693 58.635124 
L 47.393841 57.156214 
L 46.532173 55.824553 
L 45.670505 54.492892 
L 44.885014 53.278873 
L 44.099523 52.064855 
L 43.542216 51.20357 
L 42.984908 50.342285 
L 42.4276 49.481 
L 41.870292 48.619715 
L 41.355398 47.824068 
L 40.840504 47.028422 
L 40.325609 46.232775 
L 39.810715 45.437128 
L 39.252361 44.574188 
L 38.694007 43.711247 
L 38.135652 42.848307 
L 37.577298 41.985366 
L 36.639592 40.536062 
L 35.701886 39.086758 
L 34.938718 37.87722 
L 34.375621 36.984966 
L 33.812523 36.092712 
L 33.194454 35.113395 
L 32.576386 34.134077 
L 32.108091 33.391993 
L 31.639796 32.649909 
L 31.171501 31.907825 
L 30.703206 31.165741 
L 29.781964 29.705724 
L 28.860721 28.245708 
L 27.972963 26.839059 
L 27.085205 25.432411 
L 26.500481 24.505682 
L 25.915758 23.578953 
L 25.331035 22.652225 
L 24.746311 21.725496 
L 24.03344 20.636132 
L 23.320569 19.546768 
L 22.607697 18.457404 
L 21.894826 17.36804 
L 21.380909 16.565479 
L 20.866991 15.762918 
L 20.353073 14.960357 
L 19.839156 14.157796 
L 19.335493 13.35319 
L 18.83183 12.548584 
L 18.328167 11.743978 
L 17.824504 10.939372 
L 17.030503 9.7497 
L 16.236501 8.560028 
L 15.67424 7.717441 
L 15.11198 6.874854 
L 14.75537 6.340398 
L 14.075076 5.321347 
" style="fill:none;stroke:#808080;stroke-linecap:square;stroke-width:0.4;"/>
   </g>
   <g id="line2d_2">
    <path clip-path="url(#pc6cab72032)" d="M 47.176192 63.888339 
L 46.421465 63.066301 
L 45.666738 62.244262 
L 44.912011 61.422224 
L 44.157284 60.600186 
L 43.361329 59.733252 
L 42.565375 58.866319 
L 41.509078 57.715796 
L 40.452781 56.565274 
L 39.396902 55.415336 
L 38.341024 54.265397 
L 37.323513 53.156946 
L 36.306003 52.048494 
L 35.227522 50.874015 
L 34.611128 50.202438 
L 33.994734 49.530862 
L 32.81887 48.250036 
L 31.643005 46.969211 
L 30.729855 45.973727 
L 29.816704 44.978244 
L 28.906902 43.988214 
L 27.9971 42.998184 
L 27.186077 42.114695 
L 26.375054 41.231206 
L 25.40205 40.171642 
L 24.780354 39.494418 
L 24.158658 38.817193 
L 23.536962 38.139968 
L 22.915267 37.462743 
L 22.027787 36.495891 
L 21.140308 35.52904 
L 19.968071 34.252499 
L 19.277453 33.500092 
L 18.586835 32.747685 
L 18.186416 32.311394 
" style="fill:none;stroke:#808080;stroke-linecap:square;stroke-width:0.4;"/>
   </g>
   <g id="line2d_3">
    <path clip-path="url(#pc6cab72032)" d="M 53.571455 57.864018 
L 52.946411 56.513464 
L 52.321367 55.16291 
L 51.755478 53.939348 
L 51.319203 52.996648 
L 50.882928 52.053948 
L 50.234723 50.653142 
L 49.586519 49.252337 
L 49.206191 48.430396 
L 48.811283 47.576902 
L 48.416375 46.723408 
L 48.021467 45.869913 
L 47.626559 45.016419 
L 46.923663 43.497582 
L 46.468692 42.514174 
L 46.013721 41.530767 
L 45.633533 40.70902 
L 45.253344 39.887274 
L 44.586723 38.446735 
L 44.181281 37.570453 
L 43.77584 36.69417 
L 43.044203 35.11281 
L 42.312566 33.53145 
L 41.969071 32.789366 
L 41.808346 32.441892 
" style="fill:none;stroke:#808080;stroke-linecap:square;stroke-width:0.4;"/>
   </g>
   <g id="line2d_4">
    <path clip-path="url(#pc6cab72032)" d="M 55.629916 60.276863 
L 55.838357 59.567111 
L 56.177388 58.413667 
L 56.516418 57.260223 
L 56.889631 55.990499 
L 57.262844 54.720776 
L 57.557508 53.717891 
L 57.852171 52.715006 
L 58.130372 51.76919 
L 58.418199 50.789678 
L 58.706026 49.810166 
L 58.993854 48.830654 
L 59.281681 47.851142 
L 59.773903 46.176096 
" style="fill:none;stroke:#808080;stroke-linecap:square;stroke-width:0.4;"/>
   </g>
   <g id="line2d_5">
    <path clip-path="url(#pc6cab72032)" d="M 13.65931 4.10207 
L 13.531929 5.598995 
L 13.734092 6.4074 
L 9.882257 9.961223 
L 9.417938 10.861852 
L 9.339529 11.219455 
L 10.860563 13.301575 
L 10.785501 13.526343 
L 10.314207 13.945494 
L 10.199522 14.227135 
L 11.242007 17.875618 
L 8.9246 21.672907 
L 11.765761 22.619113 
L 11.775527 26.021014 
L 10.854214 28.072263 
L 10.691187 29.494201 
L 9.447237 31.705651 
L 9.901231 32.590309 
L 12.391084 32.437315 
L 13.85073 32.07942 
L 15.115607 31.975995 
L 15.115607 31.975995 
L 16.475637 32.712626 
L 17.141699 32.667828 
L 17.605739 32.173884 
L 17.665453 31.635143 
L 18.887638 30.12955 
L 18.635178 30.269202 
L 17.322655 30.873582 
L 16.76751 31.059005 
L 16.76751 31.059005 
" style="fill:none;stroke:#4169e1;stroke-linecap:square;stroke-width:0.4;"/>
   </g>
   <g id="line2d_6">
    <path clip-path="url(#pc6cab72032)" d="M 19.749864 30.560387 
L 19.749864 30.560387 
L 19.318751 30.344968 
L 18.887638 30.12955 
L 19.159978 29.721111 
L 19.432319 29.312673 
L 19.923146 29.140689 
L 20.413973 28.968704 
L 20.35412 29.231453 
L 20.294266 29.494201 
L 20.251748 29.845815 
L 20.20923 30.197428 
L 20.166711 30.549042 
L 20.124193 30.900655 
L 20.081675 31.252269 
L 20.039156 31.603882 
L 19.996638 31.955496 
L 19.954119 32.307109 
L 19.920077 32.579401 
L 19.886034 32.851694 
L 19.851992 33.123986 
L 19.817949 33.396278 
L 19.738563 33.793225 
L 19.659177 34.190172 
L 19.627087 34.26847 
L 19.515961 34.538133 
L 19.404834 34.807796 
L 19.293707 35.077459 
L 19.18258 35.347122 
L 19.080488 35.710081 
L 18.978395 36.07304 
L 18.876302 36.435999 
L 18.774209 36.798958 
L 18.672116 37.161917 
L 18.570023 37.524876 
L 18.46793 37.887835 
L 18.365837 38.250794 
L 18.314773 38.51734 
L 18.26371 38.783887 
L 18.212646 39.050433 
L 18.161582 39.31698 
L 18.110518 39.583526 
L 18.059454 39.850073 
L 18.00839 40.116619 
L 17.957326 40.383166 
L 17.946025 40.729082 
L 17.934724 41.074998 
L 17.923423 41.420915 
L 17.912122 41.766831 
L 17.736259 41.976699 
L 17.560395 42.186566 
L 17.384532 42.396434 
L 17.208668 42.606302 
L 17.138909 42.711089 
L 16.91812 43.042203 
L 16.697332 43.373317 
L 16.476543 43.70443 
L 16.255755 44.035544 
L 16.094837 44.244024 
L 15.93392 44.452504 
L 15.773002 44.660983 
L 15.612085 44.869463 
L 15.451167 45.077943 
L 15.29025 45.286423 
L 15.129332 45.494903 
L 14.968415 45.703383 
L 14.807497 45.911863 
L 14.64658 46.120342 
L 14.485662 46.328822 
L 14.324745 46.537302 
L 14.163827 46.745782 
L 14.00291 46.954262 
L 13.841992 47.162742 
L 13.681075 47.371222 
L 13.482609 47.640592 
L 13.284144 47.909963 
L 13.085678 48.179334 
L 12.887213 48.448704 
" style="fill:none;stroke:#008000;stroke-linecap:square;stroke-width:0.4;"/>
   </g>
   <g id="line2d_7">
    <path clip-path="url(#pc6cab72032)" d="M 16.475637 32.712626 
L 16.497401 33.044129 
L 16.519166 33.375632 
L 16.411318 33.732845 
L 16.30347 34.090059 
L 16.088542 34.37131 
L 15.873613 34.652562 
L 15.658684 34.933814 
L 15.443755 35.215066 
L 15.373717 35.673171 
L 15.303679 36.131277 
L 15.217456 36.513616 
L 15.131233 36.895955 
L 14.994784 37.270016 
L 14.858334 37.644077 
L 14.721885 38.018138 
L 14.585436 38.392199 
L 14.574135 38.732856 
L 14.562834 39.073514 
L 14.719095 39.337236 
L 14.875356 39.600958 
L 15.06259 40.012513 
L 15.249824 40.424068 
L 15.56123 40.65799 
L 15.872636 40.891912 
L 16.215992 41.151934 
L 16.559348 41.411955 
L 16.704238 41.736739 
L 16.849128 42.061522 
L 16.994019 42.386306 
L 17.138909 42.711089 
" style="fill:none;stroke:#4169e1;stroke-linecap:square;stroke-width:0.4;"/>
   </g>
   <g id="line2d_8">
    <path clip-path="url(#pc6cab72032)" d="M 12.887213 48.448704 
L 13.18798 48.338853 
L 13.488748 48.229001 
L 13.789516 48.119149 
L 14.090283 48.009297 
L 14.391051 47.899445 
L 14.691819 47.789594 
L 14.992586 47.679742 
L 15.293354 47.56989 
L 15.631966 47.435691 
L 15.970578 47.301493 
L 16.282542 47.499966 
L 16.594507 47.69844 
L 16.605947 48.044356 
L 16.617388 48.390273 
L 16.418852 48.826953 
L 16.220317 49.263634 
L 16.021782 49.521707 
L 15.823247 49.779781 
L 15.624711 50.037855 
L 15.426176 50.295929 
L 15.129838 50.611656 
L 14.8335 50.927382 
L 14.608038 51.167342 
L 14.382575 51.407302 
L 14.195341 51.719231 
L 14.008107 52.031159 
L 13.820873 52.343088 
L 13.633638 52.655016 
L 13.437963 52.876181 
L 13.242288 53.097345 
L 13.046613 53.31851 
L 12.850938 53.539674 
L 12.669424 53.74662 
L 12.48791 53.953566 
L 12.306396 54.160512 
L 12.124882 54.367458 
L 11.903675 54.662344 
L 11.682468 54.95723 
L 11.461261 55.252116 
L 11.240054 55.547002 
L 10.913929 55.728433 
L 10.587803 55.909864 
L 10.261678 56.091294 
L 9.935553 56.272725 
L 9.615078 56.417344 
L 9.294603 56.561963 
L 8.974129 56.706581 
L 8.653654 56.8512 
L 8.239562 56.964753 
L 7.82547 57.078305 
L 7.343433 57.066814 
L 6.861395 57.055322 
L 6.492717 56.995819 
L 6.124039 56.936316 
L 5.75536 56.876813 
L 5.386682 56.81731 
L 4.904505 56.743686 
L 4.422328 56.670061 
L 3.93457 56.49983 
L 3.639627 56.545017 
L 3.571542 56.828606 
L 3.504294 57.210361 
L 3.601678 57.554719 
L 3.76631 57.82409 
L 3.930942 58.093461 
L 4.237884 58.467424 
L 4.522223 58.609608 
L 4.806562 58.751792 
L 5.222049 58.85658 
L 5.637536 58.961368 
L 5.985496 59.096053 
L 6.333456 59.230739 
L 6.681416 59.365424 
L 7.029376 59.500109 
L 7.383963 59.627296 
L 7.73855 59.754482 
L 8.093137 59.881669 
L 8.447724 60.008856 
L 8.846818 60.196714 
L 9.245911 60.384572 
L 9.645005 60.572431 
L 10.044099 60.760289 
L 10.380897 60.878126 
L 10.717695 60.995964 
L 11.054494 61.113801 
L 11.391292 61.231639 
L 11.825405 61.32513 
L 12.259518 61.418621 
L 12.69363 61.512112 
L 13.127743 61.605603 
L 13.443963 61.676695 
L 13.760182 61.747787 
L 14.076401 61.818879 
L 14.392621 61.889971 
L 14.70884 61.961063 
L 15.025059 62.032155 
L 15.341279 62.103247 
L 15.657498 62.174339 
L 16.172044 62.146292 
L 16.686589 62.118244 
L 17.201134 62.090197 
L 17.71568 62.06215 
L 18.02719 62.042526 
L 18.338701 62.022903 
L 18.650212 62.00328 
L 18.961722 61.983656 
L 19.273233 61.964033 
L 19.584743 61.94441 
L 19.896254 61.924786 
L 20.207765 61.905163 
L 20.498731 61.899515 
L 20.789698 61.893866 
L 21.080664 61.888218 
L 21.371631 61.882569 
L 21.662597 61.876921 
L 21.953563 61.871273 
L 22.24453 61.865624 
L 22.535496 61.859976 
" style="fill:none;stroke:#008000;stroke-linecap:square;stroke-width:0.4;"/>
   </g>
   <g id="line2d_9">
    <path clip-path="url(#pc6cab72032)" d="M 22.535496 61.859976 
L 22.828591 62.034249 
L 23.121685 62.208522 
L 23.414779 62.382794 
L 23.707873 62.557067 
L 24.000967 62.73134 
L 24.294061 62.905613 
L 24.587155 63.079886 
L 24.88025 63.254159 
L 25.197864 63.299541 
L 25.515479 63.344923 
L 25.833093 63.390305 
L 26.150708 63.435687 
L 26.458626 63.487107 
L 26.766544 63.538527 
L 27.074462 63.589947 
L 27.38238 63.641367 
L 27.750849 63.540864 
L 28.119318 63.440362 
L 28.419981 63.590531 
L 28.720644 63.740701 
L 28.756501 64.086228 
L 28.792357 64.431755 
L 28.88137 64.695867 
L 28.970383 64.959979 
L 29.356013 65.158257 
L 29.744852 65.190395 
L 30.133691 65.222532 
L 30.391521 65.291287 
L 30.649352 65.360042 
L 30.907322 65.635256 
L 31.165293 65.910469 
L 31.439447 65.96598 
L 31.713602 66.02149 
L 31.987756 66.077 
L 32.261911 66.13251 
L 32.538018 66.205842 
L 32.814126 66.279174 
L 33.090234 66.352506 
L 33.366341 66.425838 
L 33.658145 66.547474 
L 33.949949 66.669109 
L 34.241752 66.790745 
L 34.533556 66.91238 
L 34.878446 67.219342 
L 35.223337 67.526304 
L 35.489818 67.629436 
L 35.756299 67.732568 
L 36.02278 67.835701 
L 36.289261 67.938833 
L 36.805062 67.921498 
L 37.320863 67.904163 
L 37.600284 67.758084 
L 37.879705 67.612004 
L 38.159126 67.465925 
L 38.438548 67.319845 
L 38.717969 67.173765 
L 38.99739 67.027686 
L 39.276812 66.881606 
L 39.556233 66.735527 
L 39.924632 66.634927 
L 40.293032 66.534327 
L 40.661431 66.433726 
L 41.029831 66.333126 
L 41.394114 66.18023 
L 41.758398 66.027333 
L 42.106358 65.881059 
L 42.454318 65.734784 
L 42.7088 65.562703 
L 42.963282 65.390621 
L 43.217765 65.218539 
L 43.472247 65.046458 
L 43.750238 64.856749 
L 44.028229 64.66704 
L 44.30622 64.477332 
L 44.584212 64.287623 
L 44.855087 64.167254 
L 45.125963 64.046884 
L 45.396839 63.926514 
L 45.667715 63.806145 
L 45.998793 63.703305 
L 46.329871 63.600465 
" style="fill:none;stroke:#4169e1;stroke-linecap:square;stroke-width:0.4;"/>
   </g>
   <g id="line2d_10">
    <path clip-path="url(#pc6cab72032)" d="M 22.535496 61.859976 
L 22.944635 61.731134 
L 23.353774 61.602291 
L 23.762913 61.473449 
L 24.172052 61.344607 
L 24.581191 61.215765 
L 24.99033 61.086923 
L 25.399469 60.958081 
L 25.808608 60.829238 
L 26.122804 60.730294 
L 26.503132 60.7897 
L 26.883461 60.849105 
L 27.03149 61.194632 
L 27.179519 61.540159 
L 27.535292 61.757136 
L 27.811749 61.697925 
L 28.088205 61.638714 
L 28.364662 61.579503 
L 28.641118 61.520292 
L 28.979382 61.389502 
L 29.317645 61.258712 
L 29.655909 61.127922 
L 29.994172 60.997133 
L 30.433656 60.927988 
L 30.87314 60.858844 
L 31.199056 60.853975 
L 31.524972 60.849105 
L 31.910044 61.056343 
L 31.949528 61.44881 
L 31.989012 61.841278 
L 32.028496 62.233745 
L 32.067979 62.626212 
L 32.307463 62.833547 
L 32.546948 63.040883 
L 32.786432 63.248218 
L 33.025916 63.455554 
L 33.275305 63.608548 
L 33.524695 63.761542 
L 33.774085 63.914536 
L 34.023475 64.06753 
L 34.225917 64.272431 
L 34.428359 64.477332 
L 34.6308 64.682233 
L 34.833242 64.887134 
L 35.203665 65.049964 
L 35.574087 65.212794 
L 36.023338 65.099241 
L 36.472588 64.985689 
L 36.877472 64.743781 
L 37.282355 64.501873 
L 37.519468 64.301355 
L 37.75658 64.100836 
L 37.993692 63.900317 
L 38.230804 63.699799 
L 38.57123 63.361089 
L 38.911656 63.022379 
L 39.180858 62.787581 
L 39.450059 62.552782 
L 39.719261 62.317984 
L 39.988462 62.083185 
L 40.368651 61.786936 
L 40.74884 61.490687 
L 41.124145 61.40674 
L 41.499451 61.322793 
L 41.943679 61.451343 
L 42.109148 61.525356 
L 42.358608 61.636766 
L 42.608067 61.748176 
L 42.857527 61.859586 
L 43.106987 61.970996 
L 43.373537 62.000991 
L 43.640088 62.030986 
L 43.906639 62.060981 
L 44.173189 62.090976 
L 44.454738 62.048029 
L 44.736287 62.005081 
L 45.017836 61.962134 
L 45.299385 61.919187 
L 45.580934 61.876239 
L 45.862483 61.833292 
L 46.144032 61.790344 
L 46.425581 61.747397 
L 46.717943 61.786059 
L 47.010304 61.824722 
L 47.302666 61.863384 
L 47.595028 61.902047 
L 47.781425 62.275621 
" style="fill:none;stroke:#4169e1;stroke-linecap:square;stroke-width:0.4;"/>
   </g>
   <g id="line2d_11">
    <path clip-path="url(#pc6cab72032)" d="M 42.109148 61.525356 
L 42.097428 62.016573 
L 41.909636 62.283022 
L 41.720867 62.605955 
L 41.532098 62.928888 
L 41.394951 63.213257 
L 41.257804 63.497625 
L 41.1344 63.769138 
L 41.010996 64.040651 
L 40.887591 64.312164 
L 40.764187 64.583678 
L 40.71689 65.043731 
L 40.669593 65.503784 
L 40.864082 65.877748 
L 41.223483 66.01253 
L 41.49094 66.019932 
L 41.758398 66.027333 
" style="fill:none;stroke:#008000;stroke-linecap:square;stroke-width:0.4;"/>
   </g>
   <g id="line2d_12">
    <path clip-path="url(#pc6cab72032)" d="M 12.887213 48.448704 
L 12.581876 48.775046 
L 12.276539 49.101388 
L 11.971202 49.42773 
L 11.665865 49.754071 
L 11.512464 49.978547 
L 11.359063 50.203022 
L 11.205662 50.427498 
L 11.052261 50.651974 
L 10.906743 50.94199 
L 10.761225 51.232007 
L 10.615707 51.522023 
L 10.470189 51.81204 
L 10.269282 52.03486 
L 10.068375 52.25768 
L 9.801685 52.462386 
L 9.534994 52.667092 
L 9.268304 52.871798 
L 9.001614 53.076505 
L 8.537574 53.226285 
L 8.073535 53.376065 
L 7.65442 53.323671 
L 7.235306 53.271277 
L 6.913436 53.0543 
L 6.591566 52.837324 
L 6.408029 52.516436 
L 6.224492 52.195547 
L 6.040955 51.874659 
L 5.857418 51.553771 
L 5.66837 51.234539 
L 5.479322 50.915306 
L 5.08839 50.837397 
L 4.906179 51.189157 
L 4.915945 51.687483 
L 4.925712 52.185809 
L 4.935478 52.684135 
L 4.945244 53.182461 
L 4.788704 53.573175 
L 4.37824 53.722955 
L 3.967775 53.872735 
L 3.759334 54.250595 
L 3.811514 54.719607 
L 3.863694 55.18862 
L 3.807678 55.527719 
L 3.751661 55.866819 
L 3.695644 56.205918 
L 3.639627 56.545017 
" style="fill:none;stroke:#008000;stroke-linecap:square;stroke-width:0.4;"/>
   </g>
   <g id="line2d_13">
    <path clip-path="url(#pc6cab72032)" d="M 10.534368 12.82594 
L 10.85247 12.481777 
L 11.170573 12.137613 
L 11.473608 11.946736 
L 11.776643 11.755859 
L 11.967226 11.556412 
L 12.157808 11.356964 
L 12.396665 11.154401 
L 12.44159 11.116225 
L 12.644031 10.940345 
L 12.846473 10.764466 
L 13.289166 10.691231 
L 13.73186 10.617997 
L 14.187528 10.669611 
L 14.643196 10.721226 
L 14.935488 10.850166 
L 15.22778 10.979105 
L 15.520072 11.108045 
L 15.812364 11.236984 
L 15.975741 11.591665 
L 16.139117 11.946347 
L 16.302494 12.301028 
L 16.46587 12.655709 
L 16.414248 13.016818 
L 16.362626 13.377926 
L 16.450802 13.794837 
L 16.538978 14.211748 
L 16.627154 14.628659 
L 16.71533 15.04557 
L 16.943164 15.513999 
L 17.170998 15.982427 
L 17.486939 16.141556 
L 17.802879 16.300686 
L 18.118819 16.459815 
L 18.43476 16.618944 
L 18.903264 16.721979 
L 19.371768 16.825014 
L 19.543655 17.207548 
L 19.715542 17.590081 
L 19.999254 17.691168 
L 20.282965 17.792255 
L 20.566677 17.893342 
L 20.850388 17.994429 
L 21.174979 18.121227 
L 21.499569 18.248024 
L 21.82416 18.374821 
L 22.14875 18.501618 
L 22.269085 18.753069 
L 22.38942 19.004521 
L 22.509755 19.255972 
L 22.63009 19.507424 
L 22.565632 19.812438 
L 22.501175 20.117452 
L 22.458203 20.586075 
L 22.415231 21.054699 
L 22.372259 21.458657 
L 22.329288 21.862616 
L 22.526846 22.060505 
L 22.896571 22.163735 
L 23.266296 22.266964 
L 23.730615 22.490174 
L 23.773586 22.774152 
L 23.666087 23.047029 
L 23.558588 23.319906 
L 23.451089 23.592782 
L 23.343589 23.865659 
L 23.11157 24.106398 
L 22.87955 24.347137 
L 22.724823 24.635206 
L 22.570097 24.923275 
L 22.574283 25.352943 
L 22.578468 25.782612 
L 22.539822 26.087821 
L 22.501175 26.39303 
L 22.492525 26.702524 
L 22.483874 27.012017 
" style="fill:none;stroke:#4169e1;stroke-linecap:square;stroke-width:0.4;"/>
   </g>
   <g id="line2d_14">
    <path clip-path="url(#pc6cab72032)" d="M 9.71902 10.233515 
L 10.164643 10.318047 
L 10.610266 10.402578 
L 10.997291 10.342588 
L 11.427009 10.557617 
L 11.669423 10.706813 
L 11.911837 10.856009 
L 12.154251 11.005205 
L 12.396665 11.154401 
" style="fill:none;stroke:#4169e1;stroke-linecap:square;stroke-width:0.4;"/>
   </g>
   <g id="line2d_15">
    <path clip-path="url(#pc6cab72032)" d="M 22.483874 27.012017 
L 22.410767 27.293561 
L 22.337659 27.575105 
L 22.264551 27.856649 
L 22.191443 28.138193 
L 22.118335 28.419737 
L 22.045227 28.701281 
L 21.972119 28.982825 
L 21.899012 29.264369 
L 21.816696 29.571136 
L 21.734379 29.877903 
L 21.652063 30.184671 
L 21.569747 30.491438 
L 21.764236 30.925586 
L 21.958726 31.359734 
L 22.317987 31.554215 
L 22.677248 31.748696 
L 23.036508 31.943176 
L 23.395769 32.137657 
L 23.590398 32.429524 
L 23.785027 32.721391 
L 23.979656 33.013258 
L 24.174284 33.305124 
L 24.390399 33.538267 
L 24.606514 33.77141 
L 24.822628 34.004553 
L 25.038743 34.237696 
L 25.36438 34.602311 
L 25.697272 34.948227 
L 26.030164 35.294144 
L 25.949522 35.592146 
L 25.814049 36.091933 
L 25.678576 36.59172 
L 25.543103 37.091506 
L 25.407631 37.591293 
L 25.424652 37.869185 
L 25.441673 38.147077 
L 25.458694 38.424969 
L 25.475716 38.702861 
L 25.492737 38.980753 
L 25.509758 39.258645 
L 25.52678 39.536537 
L 25.543801 39.814429 
L 25.604213 40.196379 
L 25.664624 40.578328 
L 25.725594 40.89532 
L 25.786564 41.212313 
L 25.847533 41.529306 
L 25.908503 41.846298 
L 25.997516 42.309857 
L 26.020118 42.786272 
L 26.04272 43.262686 
L 26.314991 43.410129 
L 26.587262 43.557572 
L 26.859533 43.705015 
L 27.131804 43.852457 
L 27.165847 44.306083 
L 27.199889 44.759709 
L 27.233932 45.213335 
L 27.267974 45.66696 
L 27.34743 45.927858 
L 27.426886 46.188756 
L 27.506342 46.449654 
L 27.585798 46.710553 
" style="fill:none;stroke:#000000;stroke-linecap:square;stroke-width:0.4;"/>
   </g>
   <g id="line2d_16">
    <path clip-path="url(#pc6cab72032)" d="M 27.585798 46.710553 
L 27.542687 47.13691 
L 27.499576 47.563268 
L 27.456464 47.989625 
L 27.413353 48.415983 
L 27.499331 48.673813 
L 27.58531 48.931643 
L 27.671288 49.189474 
L 27.757267 49.447304 
L 27.843245 49.705135 
L 27.929224 49.962965 
L 28.015202 50.220795 
L 28.101181 50.478626 
L 28.305541 50.935124 
L 28.509901 51.391623 
L 28.714261 51.848122 
L 28.918621 52.30462 
L 29.122982 52.761119 
L 29.327342 53.217617 
L 29.531702 53.674116 
L 29.736062 54.130615 
L 29.834841 54.446536 
L 29.933621 54.762457 
L 30.0324 55.078379 
L 30.131179 55.3943 
L 30.506345 55.74976 
L 30.881512 56.105221 
L 31.175321 56.169398 
L 31.46913 56.233576 
L 31.762939 56.297753 
L 32.056748 56.361931 
L 32.350557 56.426109 
L 32.644367 56.490286 
L 32.938176 56.554464 
L 33.231985 56.618641 
L 33.525794 56.682819 
L 33.819603 56.746997 
L 34.113412 56.811174 
L 34.407222 56.875352 
L 34.701031 56.93953 
L 34.99484 57.003707 
L 35.288649 57.067885 
L 35.582458 57.132062 
L 35.829337 57.230812 
L 36.076215 57.329562 
L 36.323094 57.428312 
L 36.569972 57.527062 
L 37.058811 57.462884 
L 37.54765 57.398706 
L 38.036489 57.334529 
L 38.525328 57.270351 
L 39.014167 57.206173 
L 39.503006 57.141996 
L 39.991846 57.077818 
L 40.480685 57.013641 
L 40.747375 57.309793 
L 41.014065 57.605944 
L 41.280755 57.902096 
L 41.547445 58.198248 
L 41.863455 58.59315 
L 42.179466 58.988052 
L 42.495476 59.382953 
L 42.811486 59.777855 
L 42.949749 60.212393 
L 43.088012 60.646931 
" style="fill:none;stroke:#4169e1;stroke-linecap:square;stroke-width:0.4;"/>
   </g>
   <g id="line2d_17">
    <path clip-path="url(#pc6cab72032)" d="M 14.8335 50.927382 
L 15.006922 51.386364 
L 15.180344 51.845346 
L 15.353766 52.304328 
L 15.527188 52.76331 
L 15.637966 53.004341 
L 15.748744 53.245373 
L 15.859521 53.486404 
L 15.970299 53.727435 
L 16.081077 53.968466 
L 16.191855 54.209498 
L 16.302633 54.450529 
L 16.413411 54.69156 
L 16.621922 55.004268 
L 16.830433 55.316975 
L 17.038944 55.629683 
L 17.247455 55.942391 
L 17.573231 56.137748 
L 17.899007 56.333105 
L 18.224784 56.528462 
L 18.55056 56.723819 
L 18.876337 56.945275 
L 19.202113 57.166732 
L 19.527889 57.388189 
L 19.853666 57.609645 
L 20.140307 57.961405 
L 20.426949 58.313164 
L 20.71359 58.664924 
L 21.000231 59.016683 
L 21.417253 59.290339 
L 21.834275 59.563995 
L 22.251297 59.83765 
L 22.668318 60.111306 
L 23.060854 60.201048 
L 23.453391 60.290789 
L 23.845927 60.380531 
L 24.238463 60.470272 
L 24.630999 60.560014 
L 25.023535 60.649755 
L 25.416071 60.739497 
L 25.808608 60.829238 
" style="fill:none;stroke:#000000;stroke-linecap:square;stroke-width:0.4;"/>
   </g>
   <g id="line2d_18">
    <path clip-path="url(#pc6cab72032)" d="M 19.033016 56.914306 
L 19.190167 56.673154 
L 19.347317 56.432001 
L 19.504468 56.190848 
L 19.661618 55.949695 
L 19.818769 55.708542 
L 19.975919 55.467389 
L 20.13307 55.226236 
L 20.29022 54.985083 
L 20.447371 54.74393 
L 20.604521 54.502777 
L 20.761672 54.261624 
L 20.918822 54.020471 
L 21.075973 53.779318 
L 21.233123 53.538165 
L 21.390274 53.297012 
L 21.547424 53.055859 
L 21.752308 52.743248 
L 21.957191 52.430638 
L 22.162074 52.118028 
L 22.366958 51.805418 
L 22.580491 51.528938 
L 22.794025 51.252458 
L 23.007558 50.975978 
L 23.221092 50.699498 
L 23.434625 50.423018 
L 23.648159 50.146538 
L 23.861692 49.870058 
L 24.075226 49.593579 
L 24.374006 49.309697 
L 24.672785 49.025816 
L 24.971565 48.741935 
L 25.270344 48.458054 
L 25.510526 48.23947 
L 25.750707 48.020886 
L 25.990889 47.802302 
L 26.231071 47.583719 
L 26.471252 47.365135 
L 26.711434 47.146551 
L 26.951615 46.927968 
L 27.191797 46.709384 
L 27.520678 46.445418 
L 27.849559 46.181452 
L 28.178439 45.917487 
L 28.50732 45.653521 
L 28.836201 45.389555 
L 29.165081 45.125589 
L 29.493962 44.861624 
L 29.822843 44.597658 
L 30.093649 44.362178 
L 30.364455 44.126697 
L 30.556433 43.902514 
L 30.748411 43.678331 
L 30.940388 43.454147 
L 31.132366 43.229964 
L 31.359433 43.08963 
L 31.5865 42.949296 
L 31.813567 42.808963 
L 32.040634 42.668629 
L 32.256609 42.480868 
L 32.438088 42.226446 
L 32.619567 41.972024 
L 32.801046 41.717602 
L 32.982525 41.46318 
L 33.164004 41.208758 
L 33.345483 40.954337 
L 33.526963 40.699915 
L 33.708442 40.445493 
L 33.933067 39.981544 
L 34.157692 39.517596 
L 34.522115 39.196221 
L 34.886538 38.874846 
L 35.165716 38.628653 
L 35.444893 38.38246 
L 35.661984 38.190998 
L 35.879075 37.999537 
L 36.096166 37.808075 
L 36.313258 37.616614 
L 36.513049 37.416777 
L 36.839662 37.090143 
L 37.166276 36.763509 
L 37.3796 36.381852 
L 37.592924 36.000195 
L 37.806249 35.618538 
L 38.019573 35.23688 
L 38.165509 34.982507 
L 38.311446 34.728134 
L 38.457383 34.473761 
L 38.603319 34.219388 
L 39.074893 34.125897 
L 39.546467 34.032406 
L 40.040363 33.882431 
L 40.451944 33.658053 
L 40.669035 33.216503 
L 40.886126 32.774953 
L 41.193068 32.483184 
L 41.671896 32.2888 
" style="fill:none;stroke:#008000;stroke-linecap:square;stroke-width:0.4;"/>
   </g>
   <g id="line2d_19">
    <path clip-path="url(#pc6cab72032)" d="M 20.413973 28.968704 
L 20.652202 28.633987 
L 20.89043 28.29927 
L 21.128659 27.964554 
L 21.366887 27.629837 
L 21.770933 27.423572 
L 22.17498 27.217308 
L 22.579026 27.011044 
L 22.983073 26.804779 
L 23.41293 26.56404 
L 23.842788 26.323301 
L 24.272645 26.082562 
L 24.702503 25.841823 
L 25.152939 25.606245 
L 25.603375 25.370668 
L 26.053812 25.13509 
L 26.504248 24.899512 
L 26.692599 24.801347 
L 27.114922 24.596057 
L 27.537246 24.390766 
L 27.832886 24.517953 
L 28.128526 24.645139 
L 28.450117 24.659455 
L 28.771708 24.673771 
L 29.093299 24.688087 
L 29.41489 24.702402 
L 29.668535 24.713699 
L 30.038295 24.648986 
L 30.408054 24.584273 
L 30.777814 24.51956 
L 31.147574 24.454846 
L 31.517334 24.390133 
L 31.887093 24.32542 
L 32.256853 24.260707 
L 32.626613 24.195993 
L 32.915347 24.231929 
L 33.204081 24.267864 
L 33.492815 24.3038 
L 33.781549 24.339736 
L 34.070284 24.375671 
L 34.359018 24.411607 
L 34.647752 24.447542 
L 34.936486 24.483478 
L 35.203525 24.741941 
L 35.470564 25.000405 
L 35.667565 25.190892 
L 35.864565 25.38138 
" style="fill:none;stroke:#008000;stroke-linecap:square;stroke-width:0.4;"/>
   </g>
   <g id="line2d_20">
    <path clip-path="url(#pc6cab72032)" d="M 26.504248 24.899512 
L 26.718759 25.266951 
L 26.933269 25.63439 
L 27.147779 26.001829 
L 27.362289 26.369267 
L 27.302436 26.698628 
L 27.242582 27.027989 
L 27.033025 27.402147 
L 26.823467 27.776306 
L 26.688762 28.135467 
L 26.554057 28.494628 
L 26.419351 28.853788 
L 26.284646 29.212949 
L 26.217258 29.474919 
L 26.149871 29.736888 
L 26.082483 29.998857 
L 26.015095 30.260827 
L 26.104946 30.619988 
L 26.194796 30.979148 
L 26.314503 31.48809 
L 26.43421 31.997031 
L 26.359358 32.266401 
L 26.284506 32.535772 
L 26.209654 32.805143 
L 26.134803 33.074514 
L 26.360823 33.541189 
L 26.584053 34.002411 
L 26.445581 34.325344 
L 26.307108 34.648277 
L 26.168636 34.97121 
L 26.030164 35.294144 
" style="fill:none;stroke:#4169e1;stroke-linecap:square;stroke-width:0.4;"/>
   </g>
   <g id="line2d_21">
    <path clip-path="url(#pc6cab72032)" d="M 19.627087 34.26847 
L 20.035877 34.529855 
L 20.286732 34.822988 
L 20.537587 35.116121 
L 20.858027 35.457509 
L 21.178467 35.798897 
L 21.498907 36.140285 
L 21.819346 36.481673 
L 22.139786 36.823061 
L 22.460226 37.164449 
L 22.780666 37.505837 
L 23.101106 37.847225 
L 23.421545 38.188613 
L 23.741985 38.53 
L 24.062425 38.871388 
L 24.382865 39.212776 
L 24.703305 39.554164 
L 25.023745 39.895552 
L 25.344184 40.23694 
L 25.664624 40.578328 
" style="fill:none;stroke:#000000;stroke-linecap:square;stroke-width:0.4;"/>
   </g>
   <g id="line2d_22">
    <path clip-path="url(#pc6cab72032)" d="M 26.360823 33.541189 
L 26.699296 33.363946 
L 27.037768 33.186703 
L 27.304249 33.040428 
L 27.57073 32.894154 
L 27.759918 33.100613 
L 27.949105 33.307072 
L 28.017748 33.702461 
L 28.017748 34.071945 
L 28.017748 34.441429 
L 27.974777 34.811107 
L 27.931805 35.180786 
L 28.000588 35.47314 
L 28.06937 35.765494 
L 28.275719 36.074988 
L 28.482067 36.384481 
L 28.886114 36.616456 
L 29.29016 36.84843 
L 29.530969 36.99451 
L 29.771779 37.140589 
L 30.012309 37.433138 
L 29.995288 37.931756 
L 30.003799 38.241055 
L 30.012309 38.550354 
L 30.04677 38.842708 
L 30.081232 39.135062 
L 30.168989 39.397518 
L 30.256746 39.659974 
L 30.344504 39.922431 
L 30.432261 40.184887 
" style="fill:none;stroke:#000000;stroke-linecap:square;stroke-width:0.4;"/>
   </g>
   <g id="line2d_23">
    <path clip-path="url(#pc6cab72032)" d="M 25.908503 41.846298 
L 26.189354 41.737031 
L 26.470206 41.627763 
L 26.775403 41.498824 
L 27.080601 41.369884 
L 27.385798 41.240945 
L 27.690995 41.112005 
L 28.06072 40.836986 
L 28.430445 40.561967 
L 28.79152 40.364273 
L 29.152594 40.166578 
L 29.57143 40.104641 
L 30.081232 40.029069 
L 30.432261 40.184887 
L 30.700137 40.304088 
L 30.829052 40.665196 
L 30.957968 41.026305 
L 31.138505 41.490449 
L 31.319042 41.954592 
L 31.679838 42.31161 
L 32.040634 42.668629 
" style="fill:none;stroke:#4169e1;stroke-linecap:square;stroke-width:0.4;"/>
   </g>
   <g id="line2d_24">
    <path clip-path="url(#pc6cab72032)" d="M 25.949522 35.592146 
L 26.184053 35.756145 
L 26.418584 35.920143 
L 26.577635 36.13936 
L 26.736687 36.358577 
L 26.895738 36.577793 
L 27.05479 36.79701 
L 27.30411 37.054889 
L 27.55343 37.312768 
L 27.863022 37.691017 
L 28.172614 38.069266 
L 28.387473 38.344285 
L 28.602332 38.619304 
L 28.825981 38.773953 
L 29.04963 38.928603 
L 29.221517 39.281141 
L 29.393404 39.63368 
L 29.57143 40.104641 
" style="fill:none;stroke:#000000;stroke-linecap:square;stroke-width:0.4;"/>
   </g>
   <g id="line2d_25">
    <path clip-path="url(#pc6cab72032)" d="M 32.040634 42.668629 
L 32.253016 42.889112 
L 32.465399 43.109594 
L 32.677781 43.330077 
L 32.890164 43.55056 
L 33.102546 43.771042 
L 33.314929 43.991525 
L 33.527311 44.212008 
L 33.739694 44.432491 
L 34.006026 44.770616 
L 34.272359 45.108742 
L 34.538692 45.446867 
L 34.805025 45.784993 
L 35.071357 46.123118 
L 35.33769 46.461243 
L 35.604023 46.799369 
L 35.870355 47.137494 
L 36.136688 47.47562 
L 36.403021 47.813745 
L 36.669353 48.151871 
L 36.935686 48.489996 
L 37.202019 48.828122 
L 37.468351 49.166247 
L 37.734684 49.504373 
L 38.001017 49.842498 
L 38.267349 50.180624 
L 38.533682 50.518749 
L 38.800015 50.856875 
L 39.066348 51.195 
L 39.33268 51.533125 
L 39.599013 51.871251 
L 39.865346 52.209376 
L 40.131678 52.547502 
L 40.398011 52.885627 
L 40.664344 53.223753 
L 40.930676 53.561878 
L 41.197009 53.900004 
L 41.463342 54.238129 
L 41.729674 54.576255 
L 41.996007 54.91438 
L 42.26234 55.252506 
L 42.382884 55.515838 
L 42.503428 55.779171 
L 42.584489 56.077952 
L 42.665549 56.376734 
L 42.852225 56.699083 
L 43.038901 57.021431 
L 43.273921 57.141606 
L 43.50894 57.261781 
L 43.74396 57.381956 
L 43.978979 57.502131 
L 44.204721 57.872588 
L 44.430462 58.243046 
L 44.328613 58.709527 
L 44.226765 59.176007 
L 44.124916 59.642488 
L 44.023067 60.108969 
L 43.717591 60.304131 
L 43.412114 60.499293 
L 43.106638 60.694456 
L 42.801161 60.889618 
L 42.455155 61.207487 
L 42.109148 61.525356 
" style="fill:none;stroke:#4169e1;stroke-linecap:square;stroke-width:0.4;"/>
   </g>
   <g id="line2d_26">
    <path clip-path="url(#pc6cab72032)" d="M 44.023067 60.108969 
L 44.297082 60.216094 
L 44.571097 60.323219 
L 44.845112 60.430344 
L 45.119127 60.537469 
L 45.505036 60.475726 
L 45.890945 60.413983 
L 46.178284 60.618786 
L 46.465623 60.82359 
L 46.752962 61.028394 
L 47.040301 61.233197 
L 47.32764 61.438001 
L 47.614979 61.642804 
L 47.902318 61.847608 
L 48.189657 62.052411 
" style="fill:none;stroke:#000000;stroke-linecap:square;stroke-width:0.4;"/>
   </g>
   <g id="line2d_27">
    <path clip-path="url(#pc6cab72032)" d="M 30.364455 44.126697 
L 30.662048 44.223013 
L 30.959642 44.319328 
L 31.257236 44.415643 
L 31.554829 44.511958 
L 31.899162 44.556756 
L 32.243494 44.601553 
L 32.445587 44.788633 
L 32.64768 44.975712 
L 32.849773 45.162791 
L 33.051866 45.34987 
L 33.43352 45.514551 
L 33.815173 45.679231 
L 34.196827 45.843911 
L 34.578481 46.008592 
L 34.920023 46.07832 
L 35.261565 46.148049 
L 35.578691 46.212908 
L 35.895817 46.277768 
L 36.187691 46.270269 
L 36.479564 46.26277 
L 36.771438 46.255271 
L 37.063311 46.247773 
L 37.512422 46.292765 
L 37.961533 46.337758 
L 38.186088 46.517338 
L 38.410644 46.696918 
L 38.6352 46.876499 
L 38.859755 47.056079 
L 39.106703 47.512529 
L 39.353652 47.968979 
L 39.6006 48.425429 
L 39.847548 48.881879 
L 39.817552 49.166247 
L 39.787555 49.450615 
L 39.697984 49.959362 
L 39.92247 50.378513 
L 40.146956 50.797664 
L 40.356513 51.186625 
L 40.56607 51.575586 
L 40.850409 51.919944 
L 41.134749 52.264302 
L 41.434156 52.324097 
L 41.733563 52.383893 
L 41.853271 52.773049 
L 41.972978 53.162205 
L 42.152608 53.558762 
L 42.332239 53.955319 
L 42.511869 54.351876 
L 42.6915 54.748434 
L 42.597464 55.263802 
L 42.503428 55.779171 
" style="fill:none;stroke:#4169e1;stroke-linecap:square;stroke-width:0.4;"/>
   </g>
   <g id="line2d_28">
    <path clip-path="url(#pc6cab72032)" d="M 41.733563 52.383893 
L 42.020554 52.336368 
L 42.307544 52.288844 
L 42.770188 52.301893 
L 43.232833 52.314943 
L 43.468619 52.286896 
L 43.646366 52.217946 
L 43.863737 52.089396 
L 44.079433 51.933189 
L 44.398931 51.759257 
L 44.718429 51.585325 
L 45.142426 51.682127 
L 45.566424 51.778929 
L 45.917174 51.858785 
L 46.089829 52.063979 
L 46.262483 52.269172 
L 46.435138 52.474365 
L 46.607793 52.679558 
L 46.777168 53.057417 
L 46.946544 53.435276 
L 47.108386 53.743796 
L 47.270228 54.052316 
L 47.545359 54.037124 
L 47.832349 54.021347 
L 48.119339 54.005571 
L 48.534129 53.728993 
L 48.948918 53.452416 
L 49.432839 53.26485 
L 49.91676 53.077284 
L 50.400681 52.889718 
L 50.884602 52.702151 
L 51.170964 52.939092 
L 51.457327 53.176033 
L 51.743689 53.412974 
L 52.030051 53.649915 
L 52.194963 53.657317 
L 52.547108 53.673483 
L 52.899254 53.689649 
" style="fill:none;stroke:#008000;stroke-linecap:square;stroke-width:0.4;"/>
   </g>
   <g id="line2d_29">
    <path clip-path="url(#pc6cab72032)" d="M 14.021501 5.701933 
L 14.173053 5.917108 
L 14.324605 6.132283 
L 14.476158 6.347458 
L 14.62771 6.562634 
L 14.779262 6.777809 
L 14.930815 6.992984 
L 15.082367 7.208159 
L 15.233919 7.423334 
L 15.529559 7.857483 
L 15.8252 8.291631 
L 16.12084 8.725779 
L 16.416481 9.159928 
L 16.6485 9.49669 
L 16.88052 9.833452 
L 17.11254 10.170214 
L 17.34456 10.506976 
L 17.490623 10.730326 
L 17.636686 10.953675 
L 17.782749 11.177025 
L 17.928812 11.400374 
L 18.074875 11.623724 
L 18.220938 11.847073 
L 18.367001 12.070423 
L 18.513065 12.293772 
L 18.659128 12.517122 
L 18.805191 12.740472 
L 18.951254 12.963821 
L 19.097317 13.187171 
L 19.24338 13.41052 
L 19.389443 13.63387 
L 19.535506 13.857219 
L 19.681569 14.080569 
L 19.827633 14.303918 
L 19.973696 14.527268 
L 20.119759 14.750617 
L 20.265822 14.973967 
L 20.411885 15.197317 
L 20.557948 15.420666 
L 20.704011 15.644016 
L 20.850074 15.867365 
L 20.996137 16.090715 
L 21.142201 16.314064 
L 21.288264 16.537414 
L 21.434327 16.760763 
L 21.58039 16.984113 
L 21.726453 17.207462 
L 21.872516 17.430812 
L 22.018579 17.654162 
L 22.164642 17.877511 
L 22.310705 18.100861 
L 22.456769 18.32421 
L 22.602832 18.54756 
L 22.748895 18.770909 
L 22.894958 18.994259 
L 23.041021 19.217608 
L 23.187084 19.440958 
L 23.333147 19.664307 
L 23.47921 19.887657 
L 23.625273 20.111007 
L 23.771337 20.334356 
L 23.9174 20.557706 
L 24.063463 20.781055 
L 24.209526 21.004405 
L 24.355589 21.227754 
L 24.501652 21.451104 
L 24.647715 21.674453 
L 24.793778 21.897803 
L 24.939841 22.121152 
L 25.085905 22.344502 
L 25.231968 22.567852 
L 25.378031 22.791201 
L 25.524094 23.014551 
L 25.670157 23.2379 
L 25.81622 23.46125 
L 25.962283 23.684599 
L 26.108346 23.907949 
L 26.254409 24.131298 
L 26.400473 24.354648 
L 26.546536 24.577997 
L 26.692599 24.801347 
" style="fill:none;stroke:#000000;stroke-linecap:square;stroke-width:0.4;"/>
   </g>
   <g id="line2d_30">
    <path clip-path="url(#pc6cab72032)" d="M 35.444893 38.38246 
L 35.171384 37.95805 
L 34.897874 37.53364 
L 34.624365 37.109231 
L 34.350856 36.684821 
L 34.077347 36.260411 
L 33.803838 35.836001 
L 33.530328 35.411592 
L 33.256819 34.987182 
L 32.98331 34.562772 
L 32.709801 34.138362 
L 32.436292 33.713952 
L 32.162782 33.289543 
L 31.889273 32.865133 
L 31.615764 32.440723 
L 31.342255 32.016313 
L 31.068746 31.591904 
L 30.795237 31.167494 
L 30.521727 30.743084 
L 30.248218 30.318674 
L 29.974709 29.894264 
L 29.7012 29.469855 
L 29.427691 29.045445 
L 29.154181 28.621035 
L 28.880672 28.196625 
L 28.607163 27.772215 
L 28.333654 27.347806 
L 28.060145 26.923396 
L 27.786636 26.498986 
L 27.513126 26.074576 
L 27.239617 25.650167 
L 26.966108 25.225757 
L 26.692599 24.801347 
" style="fill:none;stroke:#ff0000;stroke-linecap:square;stroke-width:0.4;"/>
   </g>
   <g id="line2d_31">
    <path clip-path="url(#pc6cab72032)" d="M 44.079433 51.933189 
L 43.809603 51.509728 
L 43.539774 51.086268 
L 43.269945 50.662808 
L 43.000115 50.239348 
L 42.730286 49.815887 
L 42.460456 49.392427 
L 42.190627 48.968967 
L 41.920798 48.545506 
L 41.650968 48.122046 
L 41.381139 47.698586 
L 41.11131 47.275126 
L 40.84148 46.851665 
L 40.571651 46.428205 
L 40.301821 46.004745 
L 40.031992 45.581285 
L 39.762163 45.157824 
L 39.492333 44.734364 
L 39.222504 44.310904 
L 38.952675 43.887444 
L 38.682845 43.463983 
L 38.413016 43.040523 
L 38.143186 42.617063 
L 37.873357 42.193602 
L 37.603528 41.770142 
L 37.333698 41.346682 
L 37.063869 40.923222 
L 36.79404 40.499761 
L 36.52421 40.076301 
L 36.254381 39.652841 
L 35.984551 39.229381 
L 35.714722 38.80592 
L 35.444893 38.38246 
" style="fill:none;stroke:#4169e1;stroke-linecap:square;stroke-width:0.4;"/>
   </g>
   <g id="line2d_32">
    <path clip-path="url(#pc6cab72032)" d="M 44.079433 51.933189 
L 44.229258 52.186052 
L 44.379084 52.438916 
L 44.52891 52.69178 
L 44.678736 52.944643 
L 44.828561 53.197507 
L 44.978387 53.450371 
L 45.128213 53.703235 
L 45.278039 53.956098 
L 45.427865 54.208962 
L 45.57769 54.461826 
L 45.727516 54.714689 
L 45.877342 54.967553 
L 46.027168 55.220417 
L 46.176993 55.47328 
L 46.326819 55.726144 
L 46.476645 55.979008 
L 46.659484 56.279907 
L 46.842324 56.580807 
L 47.025163 56.881706 
L 47.208002 57.182606 
L 47.390842 57.483505 
L 47.573681 57.784405 
L 47.756521 58.085305 
L 47.93936 58.386204 
L 48.122199 58.687104 
L 48.305039 58.988003 
L 48.487878 59.288903 
L 48.670718 59.589802 
L 48.853557 59.890702 
L 49.036396 60.191601 
L 49.219236 60.492501 
L 49.402075 60.7934 
" style="fill:none;stroke:#4169e1;stroke-linecap:square;stroke-width:0.4;"/>
   </g>
   <g id="line2d_33">
    <path clip-path="url(#pc6cab72032)" d="M 47.545359 54.037124 
L 47.725478 54.409821 
L 47.905596 54.782519 
L 48.085715 55.155217 
L 48.265834 55.527914 
L 48.191052 55.871883 
L 47.906713 55.91707 
L 47.47253 55.752292 
L 47.023559 55.647505 
L 46.750102 55.813256 
L 46.476645 55.979008 
" style="fill:none;stroke:#4169e1;stroke-linecap:square;stroke-width:0.4;"/>
   </g>
   <g id="line2d_34">
    <path clip-path="url(#pc6cab72032)" d="M 14.788296 4.671195 
L 14.933605 4.895963 
L 15.078914 5.120731 
L 15.224223 5.345499 
L 15.369531 5.570266 
L 15.51484 5.795034 
L 15.660149 6.019802 
L 15.805458 6.24457 
L 15.950767 6.469337 
L 16.096076 6.694105 
L 16.241384 6.918873 
L 16.386693 7.143641 
L 16.532002 7.368408 
L 16.677311 7.593176 
L 16.82262 7.817944 
L 16.967929 8.042711 
L 17.113237 8.267479 
L 17.335508 8.609768 
L 17.557779 8.952057 
L 17.78005 9.294345 
L 18.002321 9.636634 
L 18.224592 9.978923 
L 18.446863 10.321212 
L 18.669134 10.6635 
L 18.891405 11.005789 
L 19.113676 11.348078 
L 19.335946 11.690367 
L 19.558217 12.032655 
L 19.780488 12.374944 
L 20.002759 12.717233 
L 20.22503 13.059521 
L 20.447301 13.40181 
L 20.669572 13.744099 
L 20.884187 14.076807 
L 21.098801 14.409516 
L 21.313416 14.742224 
L 21.528031 15.074932 
L 21.742646 15.407641 
L 21.957261 15.740349 
L 22.171876 16.073057 
L 22.38649 16.405766 
L 22.601105 16.738474 
L 22.81572 17.071182 
L 23.030335 17.403891 
L 23.24495 17.736599 
L 23.459564 18.069307 
L 23.674179 18.402016 
L 23.888794 18.734724 
L 24.103409 19.067432 
L 24.318024 19.400141 
L 24.532638 19.732849 
L 24.747253 20.065558 
L 24.961868 20.398266 
L 25.176483 20.730974 
L 25.391098 21.063683 
L 25.605712 21.396391 
L 25.820327 21.729099 
L 26.034942 22.061808 
L 26.249557 22.394516 
L 26.464172 22.727224 
L 26.678786 23.059933 
L 26.893401 23.392641 
L 27.108016 23.725349 
L 27.322631 24.058058 
L 27.537246 24.390766 
" style="fill:none;stroke:#ff0000;stroke-linecap:square;stroke-width:0.4;"/>
   </g>
   <g id="line2d_35">
    <path clip-path="url(#pc6cab72032)" d="M 17.113237 8.267479 
L 17.137235 7.886114 
L 17.161232 7.504749 
L 17.185229 7.123384 
L 17.209226 6.742019 
L 17.417668 6.305533 
L 17.626109 5.869048 
L 17.93891 5.562865 
L 18.251711 5.256682 
L 18.415785 4.84279 
L 18.579859 4.428898 
" style="fill:none;stroke:#008000;stroke-linecap:square;stroke-width:0.4;"/>
   </g>
   <g id="line2d_36">
    <path clip-path="url(#pc6cab72032)" d="M 15.042778 4.236073 
L 15.353417 4.265971 
L 15.664056 4.295868 
L 15.974694 4.325766 
L 16.285333 4.355664 
L 16.572149 4.364818 
L 16.858964 4.373972 
L 17.14578 4.383127 
L 17.432596 4.392281 
L 17.719412 4.401435 
L 18.006228 4.41059 
L 18.293043 4.419744 
L 18.579859 4.428898 
L 19.093009 4.445064 
L 19.60616 4.46123 
L 20.11931 4.477397 
L 20.63246 4.493563 
L 21.019206 4.313008 
L 21.405952 4.132454 
L 21.681083 3.977707 
L 21.956214 3.82296 
L 22.231345 3.668213 
L 22.506477 3.513466 
L 22.747286 3.393097 
L 22.988095 3.272727 
L 23.390014 3.315723 
L 23.791933 3.358719 
L 24.193852 3.401716 
L 24.595771 3.444712 
L 24.997689 3.487708 
L 25.399608 3.530704 
L 25.801527 3.5737 
L 26.203446 3.616696 
L 26.409655 3.633836 
L 26.46016 3.75031 
L 26.51262 3.87029 
L 26.273136 4.229548 
L 26.033651 4.588807 
L 25.794167 4.948065 
L 25.554683 5.307323 
L 25.315199 5.666582 
L 25.075715 6.02584 
L 24.836231 6.385098 
L 24.596747 6.744356 
L 24.463298 7.007933 
L 24.329848 7.271509 
L 24.196398 7.535085 
L 24.062948 7.798661 
L 23.929499 8.062237 
L 23.796049 8.325814 
L 23.662599 8.58939 
L 23.529149 8.852966 
L 23.318302 9.165674 
L 23.107454 9.478381 
L 22.896606 9.791089 
L 22.685758 10.103797 
L 22.47491 10.416504 
L 22.264063 10.729212 
L 22.053215 11.041919 
L 21.842367 11.354627 
L 21.715161 11.58665 
L 21.587954 11.818673 
L 21.460748 12.050696 
L 21.333542 12.282719 
L 21.206336 12.514742 
L 21.079129 12.746765 
L 20.951923 12.978788 
L 20.824717 13.210811 
L 20.811811 13.499075 
L 20.798906 13.787338 
L 20.786 14.075602 
L 20.773095 14.363866 
L 21.028868 14.55299 
L 21.284641 14.742114 
L 21.540413 14.931239 
L 21.796186 15.120363 
L 22.051959 15.309487 
L 22.307732 15.498612 
L 22.563505 15.687736 
L 22.819278 15.87686 
L 22.979341 16.131428 
L 23.139404 16.385996 
L 23.299467 16.640564 
L 23.459529 16.895132 
L 23.619592 17.1497 
L 23.779655 17.404268 
L 23.939718 17.658836 
L 24.099781 17.913404 
L 24.347427 18.102334 
L 24.595073 18.291263 
L 24.842719 18.480193 
L 25.090365 18.669122 
L 25.409584 18.590921 
L 25.728803 18.51272 
L 26.048022 18.434518 
L 26.367241 18.356317 
L 26.803795 18.219489 
L 27.24035 18.082662 
L 27.676904 17.945834 
L 28.113458 17.809006 
L 28.419702 17.919832 
L 28.725946 18.030657 
L 29.03219 18.141483 
L 29.338433 18.252309 
L 29.553432 18.571541 
L 29.76843 18.890774 
L 29.983429 19.210006 
L 30.198427 19.529239 
L 30.100695 20.004776 
L 30.002962 20.480314 
L 29.905229 20.955852 
L 29.807496 21.431389 
L 29.696997 21.7775 
L 29.586498 22.123611 
L 29.501531 22.389866 
L 29.416564 22.65612 
L 29.116878 22.864722 
L 28.817191 23.073323 
L 28.765011 23.412033 
L 28.712831 23.750743 
L 28.973452 24.050498 
L 29.234073 24.350253 
L 29.41489 24.702402 
" style="fill:none;stroke:#4169e1;stroke-linecap:square;stroke-width:0.4;"/>
   </g>
   <g id="line2d_37">
    <path clip-path="url(#pc6cab72032)" d="M 26.46016 3.75031 
L 26.703481 3.652145 
L 26.913039 3.592155 
L 27.332153 3.74213 
L 27.586635 3.906713 
L 27.841118 4.071295 
L 27.945757 4.370856 
L 28.170382 4.610037 
L 28.641886 4.598837 
L 29.11339 4.587638 
L 29.584893 4.576439 
L 30.056397 4.565239 
L 30.58043 4.550436 
L 31.036935 4.51304 
L 31.493441 4.475644 
L 31.815311 4.557838 
L 32.137181 4.640032 
L 32.406592 4.976794 
L 32.676002 5.313556 
L 33.027729 5.388543 
L 33.379456 5.463531 
L 33.723789 5.530922 
L 34.068121 5.598314 
L 34.337392 5.598314 
L 34.606943 5.8075 
L 34.636939 6.13686 
L 34.666936 6.466221 
L 34.801641 6.789933 
L 34.936347 7.113646 
L 35.071052 7.437358 
L 35.205757 7.76107 
L 35.340463 8.084782 
L 35.475168 8.408495 
L 35.609874 8.732207 
L 35.744579 9.055919 
L 36.118769 9.29549 
L 36.496725 9.306689 
L 36.874681 9.317889 
L 37.252638 9.329088 
L 37.630594 9.340287 
L 37.922468 9.519868 
L 38.214341 9.699448 
L 38.525747 10.084904 
L 38.837153 10.470359 
L 39.148559 10.855814 
L 39.459965 11.241269 
L 39.557698 11.690805 
L 39.655431 12.14034 
L 39.753164 12.589876 
L 39.850897 13.039411 
L 39.87308 13.371693 
L 39.895264 13.703976 
L 39.917447 14.036258 
L 39.939631 14.36854 
L 39.955257 14.603047 
L 39.981277 14.886441 
L 40.007297 15.169835 
L 40.033317 15.45323 
L 40.059338 15.736624 
L 39.977929 16.006969 
L 39.896519 16.277313 
L 39.81511 16.547658 
L 39.733701 16.818002 
L 39.55128 17.05952 
L 39.368859 17.301039 
L 39.186438 17.542557 
L 39.004017 17.784075 
L 38.769347 18.094932 
L 38.570602 18.283959 
L 38.371858 18.472986 
L 38.173113 18.662013 
L 37.974369 18.85104 
L 37.63471 19.030328 
L 37.295052 19.209617 
L 36.955393 19.388905 
L 36.615735 19.568193 
L 36.345626 19.710767 
L 36.085005 20.114725 
L 36.12407 20.388381 
L 36.163136 20.662037 
L 36.241249 20.979346 
L 36.319362 21.296655 
L 36.397475 21.613964 
L 36.475588 21.931273 
L 36.553701 22.248582 
L 36.631814 22.565892 
L 36.709927 22.883201 
L 36.78804 23.20051 
L 36.866153 23.517819 
L 36.944266 23.835128 
L 37.02238 24.152437 
L 37.100493 24.469746 
L 37.178606 24.787056 
L 37.256719 25.104365 
L 37.334832 25.421674 
L 37.412945 25.738983 
" style="fill:none;stroke:#4169e1;stroke-linecap:square;stroke-width:0.4;"/>
   </g>
   <g id="line2d_38">
    <path clip-path="url(#pc6cab72032)" d="M 39.004017 17.784075 
L 38.951698 17.458512 
L 38.899378 17.13295 
L 38.847059 16.807387 
L 38.794739 16.481824 
L 38.982392 16.047286 
L 39.170045 15.612749 
L 39.318214 15.247355 
L 39.466383 14.881961 
L 39.703007 14.625251 
L 39.939631 14.36854 
" style="fill:none;stroke:#000000;stroke-linecap:square;stroke-width:0.4;"/>
   </g>
   <g id="line2d_39">
    <path clip-path="url(#pc6cab72032)" d="M 36.615735 19.568193 
L 36.293028 19.5754 
L 35.970321 19.582606 
L 35.673983 19.62195 
L 35.377645 19.661295 
L 35.12093 19.72557 
L 34.864215 19.789845 
L 34.607501 19.85412 
L 34.350786 19.918395 
L 34.103838 20.022014 
L 33.85689 20.125633 
L 33.609941 20.229252 
L 33.362993 20.332871 
L 33.09142 20.431621 
L 32.819846 20.53037 
L 32.548273 20.62912 
L 32.2767 20.72787 
L 31.921206 20.92537 
L 31.565712 21.122869 
L 31.259607 21.271091 
L 30.953503 21.419313 
L 30.716461 21.537735 
L 30.479418 21.656157 
L 30.242376 21.774579 
L 30.005333 21.893001 
L 29.586498 22.123611 
" style="fill:none;stroke:#008000;stroke-linecap:square;stroke-width:0.4;"/>
   </g>
   <g id="line2d_40">
    <path clip-path="url(#pc6cab72032)" d="M 36.313258 37.616614 
L 36.039007 37.203306 
L 35.764757 36.789998 
L 35.490507 36.37669 
L 35.216256 35.963383 
L 34.942006 35.550075 
L 34.667755 35.136767 
L 34.393505 34.72346 
L 34.119255 34.310152 
L 33.845004 33.896844 
L 33.570754 33.483536 
L 33.296504 33.070229 
L 33.022253 32.656921 
L 32.748003 32.243613 
L 32.473752 31.830305 
L 32.199502 31.416998 
L 31.925252 31.00369 
L 31.651001 30.590382 
L 31.376751 30.177074 
L 31.102501 29.763767 
L 30.82825 29.350459 
L 30.554 28.937151 
L 30.279749 28.523843 
L 30.005499 28.110536 
L 29.731249 27.697228 
L 29.456998 27.28392 
L 29.182748 26.870612 
L 28.908498 26.457305 
L 28.634247 26.043997 
L 28.359997 25.630689 
L 28.085746 25.217382 
L 27.811496 24.804074 
L 27.537246 24.390766 
" style="fill:none;stroke:#000000;stroke-linecap:square;stroke-width:0.4;"/>
   </g>
   <g id="line2d_41">
    <path clip-path="url(#pc6cab72032)" d="M 36.513049 37.416777 
L 36.866031 37.580775 
L 37.219014 37.744774 
L 37.468334 37.899521 
L 37.717654 38.054268 
L 37.966974 38.209015 
L 38.216294 38.363762 
L 38.409877 38.662251 
L 38.603459 38.96074 
L 38.797041 39.25923 
L 38.990624 39.557719 
L 38.947373 39.889027 
L 38.904122 40.220336 
L 38.85257 40.529829 
L 38.801018 40.839323 
L 38.749465 41.148817 
L 38.697913 41.458311 
L 38.964394 41.759138 
L 39.230875 42.059964 
L 39.497356 42.360791 
L 39.763837 42.661617 
L 40.026063 43.095717 
L 40.288288 43.529816 
L 40.550514 43.963916 
L 40.812739 44.398016 
L 41.074965 44.832116 
L 41.337191 45.266215 
L 41.599416 45.700315 
L 41.861642 46.134415 
L 42.06799 46.418004 
L 42.274338 46.701593 
L 42.480687 46.985182 
L 42.687035 47.268771 
L 42.979327 47.54379 
L 43.271619 47.818809 
L 43.374723 48.179918 
L 43.477828 48.541027 
L 43.735798 48.859091 
L 43.993768 49.177154 
L 44.251738 49.495218 
L 44.509709 49.813282 
L 44.641798 50.058988 
L 44.773888 50.304694 
L 44.905977 50.5504 
L 45.038066 50.796105 
L 45.170156 51.041811 
L 45.302245 51.287517 
L 45.434335 51.533223 
L 45.566424 51.778929 
" style="fill:none;stroke:#4169e1;stroke-linecap:square;stroke-width:0.4;"/>
   </g>
   <g id="line2d_42">
    <path clip-path="url(#pc6cab72032)" d="M 39.769418 32.410728 
L 40.158536 32.702692 
L 40.547654 32.994657 
L 40.810228 33.407575 
L 40.940678 33.798873 
L 41.071128 34.190172 
L 41.252407 34.487864 
L 41.433685 34.785555 
L 41.614964 35.083247 
L 41.796242 35.380939 
L 41.977521 35.678631 
L 42.158799 35.976323 
L 42.340078 36.274015 
L 42.521356 36.571707 
L 42.702635 36.869399 
L 42.883913 37.16709 
L 43.065192 37.464782 
L 43.246471 37.762474 
L 43.427749 38.060166 
L 43.609028 38.357858 
L 43.790306 38.65555 
L 43.971585 38.953242 
L 44.152863 39.250933 
L 44.334142 39.548625 
L 44.51542 39.846317 
L 44.696699 40.144009 
L 44.877977 40.441701 
L 45.059256 40.739393 
L 45.240534 41.037085 
L 45.421813 41.334776 
L 45.603091 41.632468 
L 45.78437 41.93016 
L 45.965648 42.227852 
L 46.146927 42.525544 
L 46.328206 42.823236 
L 46.509484 43.120928 
L 46.690763 43.418619 
L 46.872041 43.716311 
L 47.05332 44.014003 
L 47.234598 44.311695 
L 47.415877 44.609387 
L 47.597155 44.907079 
L 47.778434 45.204771 
L 47.959712 45.502463 
L 48.140991 45.800154 
L 48.322269 46.097846 
L 48.503548 46.395538 
L 48.684826 46.69323 
L 48.866105 46.990922 
L 49.047384 47.288614 
L 49.228662 47.586306 
L 49.409941 47.883997 
L 49.591219 48.181689 
L 49.772498 48.479381 
L 49.953776 48.777073 
L 50.135055 49.074765 
L 50.316333 49.372457 
L 50.497612 49.670149 
L 50.67889 49.96784 
L 50.860169 50.265532 
L 51.041447 50.563224 
L 51.222726 50.860916 
L 51.404004 51.158608 
L 51.585283 51.4563 
L 51.766561 51.753992 
L 51.94784 52.051683 
L 52.129119 52.349375 
L 52.310397 52.647067 
L 52.491676 52.944759 
L 52.672954 53.242451 
L 52.805811 53.478175 
L 52.938668 53.713898 
L 53.071524 53.949622 
L 53.204381 54.185346 
L 53.337238 54.421069 
L 53.470095 54.656793 
L 53.602952 54.892517 
L 53.735808 55.128241 
L 53.868665 55.363964 
L 54.001522 55.599688 
L 54.134379 55.835412 
L 54.267236 56.071135 
L 54.400092 56.306859 
L 54.532949 56.542583 
L 54.665806 56.778306 
L 54.798663 57.01403 
" style="fill:none;stroke:#4169e1;stroke-linecap:square;stroke-width:0.4;"/>
   </g>
   <g id="line2d_43">
    <path clip-path="url(#pc6cab72032)" d="M 52.194963 53.657317 
L 52.217007 53.981224 
L 52.239051 54.305131 
L 52.403683 54.499904 
L 52.792661 54.694287 
L 53.047144 55.053448 
L 53.092069 55.315417 
L 53.136994 55.577386 
L 53.226844 55.869156 
L 53.316694 56.160926 
L 53.496255 56.400301 
L 53.675815 56.639677 
L 53.982757 56.991436 
L 54.289698 57.343196 
" style="fill:none;stroke:#4169e1;stroke-linecap:square;stroke-width:0.4;"/>
   </g>
   <g id="line2d_44">
    <path clip-path="url(#pc6cab72032)" d="M 42.238342 32.242055 
L 43.788396 32.035985 
L 44.814557 31.943663 
L 47.026628 32.057021 
L 48.932455 31.512436 
L 51.85928 31.898086 
L 52.766711 32.533435 
L 53.265909 32.3745 
L 53.560852 31.875493 
L 54.617149 31.036217 
L 57.223151 29.471802 
L 58.042859 29.122477 
L 60.168742 28.491901 
L 60.51419 28.906377 
L 60.442059 30.308254 
L 60.610737 31.551391 
L 61.092356 32.221799 
L 62.261524 32.496818 
L 63.103938 32.342168 
L 63.757444 31.431021 
L 64.256085 31.241702 
L 64.926612 31.413881 
L 65.253365 32.067149 
L 64.840668 33.322264 
L 64.840668 34.113042 
L 65.322008 34.61166 
L 65.889571 34.66308 
L 66.11308 35.024189 
L 66.027136 35.557087 
L 65.219043 36.451094 
L 65.184443 37.104361 
L 65.691873 38.720391 
L 65.666062 39.029885 
L 65.356609 39.459553 
L 63.997975 40.25072 
L 64.049597 40.869318 
L 64.737424 42.313363 
L 64.70673 43.683395 
L 64.195812 45.132893 
L 63.628389 46.714448 
L 63.252107 47.418746 
L 62.244223 49.258959 
L 62.330167 49.946507 
L 62.502054 50.410845 
L 62.295845 51.579481 
L 62.209902 52.0781 
L 62.23655 53.360678 
L 62.177254 53.69783 
L 61.644013 54.34915 
L 59.198528 55.752877 
L 57.911048 56.6202 
L 57.911048 56.6202 
" style="fill:none;stroke:#4169e1;stroke-linecap:square;stroke-width:0.4;"/>
   </g>
   <g id="line2d_45">
    <path clip-path="url(#pc6cab72032)" d="M 43.788396 32.035985 
L 43.985013 32.365054 
L 44.18163 32.694122 
L 44.378247 33.023191 
L 44.574864 33.352259 
L 44.771481 33.681328 
L 44.968098 34.010397 
L 45.164715 34.339465 
L 45.361331 34.668534 
L 45.677586 34.981485 
L 45.99384 35.294436 
L 46.310094 35.607387 
L 46.626349 35.920338 
L 46.942603 36.233289 
L 47.258857 36.54624 
L 47.575111 36.859191 
L 47.891366 37.172142 
L 47.993458 37.523756 
L 48.095551 37.875369 
L 48.197644 38.226983 
L 48.299737 38.578596 
L 48.40183 38.93021 
L 48.503923 39.281823 
L 48.606016 39.633437 
L 48.708109 39.98505 
L 48.830048 40.359355 
L 48.951988 40.733659 
L 49.073927 41.107964 
L 49.195866 41.482268 
L 49.317806 41.856573 
L 49.439745 42.230877 
L 49.561685 42.605182 
L 49.683624 42.979486 
L 49.799355 43.375508 
L 49.915086 43.771529 
L 50.030817 44.167551 
L 50.146548 44.563573 
L 50.262278 44.959594 
L 50.378009 45.355616 
L 50.49374 45.751638 
L 50.609471 46.147659 
L 50.815122 46.454816 
L 51.020772 46.761973 
L 51.226423 47.069129 
L 51.432074 47.376286 
L 51.637725 47.683442 
L 51.843375 47.990599 
L 52.049026 48.297756 
L 52.254677 48.604912 
L 52.465943 48.901746 
L 52.677209 49.198579 
L 52.888476 49.495413 
L 53.099742 49.792247 
L 53.311009 50.08908 
L 53.522275 50.385914 
L 53.733541 50.682748 
L 53.944808 50.979581 
L 54.131972 51.265946 
L 54.319137 51.552311 
L 54.506301 51.838675 
L 54.693466 52.12504 
L 54.88063 52.411404 
L 55.067794 52.697769 
L 55.254959 52.984134 
L 55.442123 53.270498 
L 55.600617 53.531494 
L 55.75911 53.792489 
L 55.969156 54.138308 
L 56.179201 54.484127 
L 56.389247 54.829946 
L 56.599292 55.175765 
L 56.665982 55.330415 
L 56.791131 55.620723 
L 56.916279 55.911032 
L 57.041428 56.201341 
L 57.166576 56.49165 
" style="fill:none;stroke:#4169e1;stroke-linecap:square;stroke-width:0.4;"/>
   </g>
   <g id="line2d_46">
    <path clip-path="url(#pc6cab72032)" d="M 49.690879 31.609044 
L 49.497227 32.013392 
L 49.134199 32.092859 
L 48.918503 32.467212 
L 48.958266 32.875456 
L 48.998029 33.283699 
L 49.080275 33.731774 
L 49.162521 34.179849 
L 49.244768 34.627923 
L 49.327014 35.075998 
L 49.517039 35.450254 
L 49.707063 35.82451 
L 49.897088 36.198766 
L 50.087113 36.573021 
L 50.328131 36.88495 
L 50.56915 37.196878 
L 50.810169 37.508807 
L 51.051188 37.820736 
L 51.297927 38.148246 
L 51.544666 38.475756 
L 51.791405 38.803267 
L 52.038144 39.130777 
L 52.284883 39.458287 
L 52.531622 39.785798 
L 52.778361 40.113308 
L 53.0251 40.440818 
L 53.206614 40.710189 
L 53.388128 40.97956 
L 53.569642 41.24893 
L 53.751155 41.518301 
L 53.8529 41.76761 
L 53.954644 42.016919 
L 54.056388 42.266228 
L 54.158132 42.515537 
L 54.259876 42.764847 
L 54.36162 43.014156 
L 54.463364 43.263465 
L 54.565108 43.512774 
L 54.552203 43.901735 
L 54.539297 44.290696 
L 54.526392 44.679657 
L 54.513486 45.068618 
L 54.500581 45.45758 
L 54.487675 45.846541 
L 54.47477 46.235502 
L 54.461864 46.624463 
L 54.534972 46.878008 
L 54.60808 47.131554 
L 54.681188 47.385099 
L 54.754296 47.638645 
L 54.827404 47.89219 
L 54.900511 48.145735 
L 54.973619 48.399281 
L 55.046727 48.652826 
L 55.162981 48.916549 
L 55.279235 49.180271 
L 55.395489 49.443993 
L 55.511743 49.707715 
L 55.627997 49.971438 
L 55.744251 50.23516 
L 55.860505 50.498882 
L 55.97676 50.762605 
L 56.044845 51.14806 
L 56.11293 51.533515 
L 55.954157 51.862486 
L 55.795385 52.191457 
L 55.786316 52.591715 
L 55.777248 52.991973 
L 55.768179 53.392231 
L 55.75911 53.792489 
" style="fill:none;stroke:#4169e1;stroke-linecap:square;stroke-width:0.4;"/>
   </g>
   <g id="line2d_47">
    <path clip-path="url(#pc6cab72032)" d="M 52.502462 32.348401 
L 52.468001 32.690616 
L 52.43354 33.032832 
L 52.350945 33.41147 
L 52.084324 33.558913 
L 51.817704 33.706356 
L 51.483138 33.882236 
L 51.148572 34.058116 
L 50.938735 34.239449 
L 50.728899 34.420783 
L 50.513203 34.874603 
L 50.388473 35.215066 
L 50.433956 35.486969 
L 50.745362 35.831327 
L 50.947665 35.952865 
L 51.17508 36.089206 
L 51.40724 36.23548 
L 51.639399 36.381755 
L 51.974662 36.579449 
L 52.309926 36.777143 
L 52.464792 37.035022 
L 52.378848 37.327181 
L 52.086417 37.447551 
L 51.819936 37.542016 
L 51.553455 37.63648 
L 51.302321 37.728608 
L 51.051188 37.820736 
" style="fill:none;stroke:#4169e1;stroke-linecap:square;stroke-width:0.4;"/>
   </g>
   <g id="line2d_48">
    <path clip-path="url(#pc6cab72032)" d="M 50.947665 35.952865 
L 51.218471 35.999221 
L 51.489277 36.045577 
L 51.906298 36.13673 
L 52.32332 36.227884 
L 52.714252 36.306183 
L 53.046585 36.306183 
L 53.378919 36.306183 
L 53.672048 36.280083 
L 53.965177 36.253984 
L 54.353598 36.270345 
L 54.496744 36.276577 
L 55.012964 36.328776 
L 55.254052 36.356434 
L 55.59671 36.396168 
L 55.746553 36.392272 
L 55.888863 36.388766 
L 56.255518 36.579449 
L 56.622174 36.770131 
L 57.022592 37.050799 
L 57.423011 37.331466 
L 57.626988 37.516695 
L 57.830964 37.701924 
L 58.034941 37.887153 
L 58.238917 38.072382 
L 58.43536 38.302506 
L 58.631802 38.53263 
L 58.828245 38.762754 
L 59.024687 38.992878 
L 59.22113 39.206154 
L 59.417572 39.41943 
L 59.614015 39.632706 
L 59.810457 39.845982 
L 60.079938 39.978817 
L 60.349418 40.111652 
L 60.618899 40.244487 
L 60.88838 40.377322 
L 61.320609 40.528856 
L 61.752838 40.680389 
L 62.185067 40.831922 
L 62.617297 40.983455 
L 62.894102 41.200432 
L 63.170907 41.417409 
L 63.305682 41.739173 
L 63.440458 42.060938 
L 63.627552 42.367705 
L 63.814647 42.674472 
L 64.001742 42.981239 
L 64.188837 43.288006 
L 64.447783 43.4857 
L 64.70673 43.683395 
" style="fill:none;stroke:#4169e1;stroke-linecap:square;stroke-width:0.4;"/>
   </g>
   <g id="line2d_49">
    <path clip-path="url(#pc6cab72032)" d="M 53.062212 32.439554 
L 53.208288 32.710678 
L 53.354364 32.981802 
L 53.433332 33.367062 
L 53.512299 33.752323 
L 53.522205 34.097849 
L 53.532111 34.443376 
L 53.709858 34.798837 
L 53.887605 35.154297 
L 54.154225 35.282652 
L 54.420846 35.411007 
L 54.845541 35.61844 
L 55.270236 35.825873 
L 55.508395 36.109073 
L 55.746553 36.392272 
" style="fill:none;stroke:#000000;stroke-linecap:square;stroke-width:0.4;"/>
   </g>
   <g id="line2d_50">
    <path clip-path="url(#pc6cab72032)" d="M 59.514677 45.769021 
L 59.901563 45.541137 
L 60.288449 45.313253 
L 60.762534 45.194831 
L 61.047292 45.235733 
L 61.332049 45.276636 
L 61.736096 45.595673 
L 61.811017 45.852968 
L 61.885939 46.110263 
L 62.08573 46.280884 
L 62.362256 46.359962 
L 62.658594 46.577133 
L 62.954932 46.794305 
L 63.10352 47.106526 
L 63.252107 47.418746 
" style="fill:none;stroke:#008000;stroke-linecap:square;stroke-width:0.4;"/>
   </g>
   <g id="line2d_51">
    <path clip-path="url(#pc6cab72032)" d="M 59.514677 45.769021 
L 59.326327 46.120683 
L 59.137977 46.472346 
L 58.949626 46.824008 
L 58.761276 47.17567 
L 58.630965 47.553529 
L 58.500655 47.931388 
L 58.53972 48.348396 
L 58.578785 48.765405 
L 58.741673 48.986861 
L 58.904562 49.208318 
L 59.06745 49.429775 
L 59.230338 49.651231 
L 59.347604 49.963939 
L 59.464869 50.276647 
L 59.582135 50.589354 
L 59.6994 50.902062 
L 59.696157 51.182145 
L 59.692913 51.462228 
L 59.689669 51.742311 
L 59.686425 52.022395 
L 59.683181 52.302478 
L 59.679937 52.582561 
L 59.676694 52.862644 
L 59.67345 53.142727 
L 59.70097 53.407472 
L 59.72849 53.672217 
L 59.75601 53.936962 
L 59.78353 54.201707 
L 59.81105 54.466451 
L 59.83857 54.731196 
L 59.86609 54.995941 
L 59.893611 55.260686 
" style="fill:none;stroke:#008000;stroke-linecap:square;stroke-width:0.4;"/>
   </g>
   <g id="line2d_52">
    <path clip-path="url(#pc6cab72032)" d="M 35.470564 25.000405 
L 35.175342 25.352359 
L 34.880121 25.704313 
L 34.666657 25.984981 
L 34.453193 26.265648 
L 34.183643 26.669997 
L 34.078864 26.946769 
L 33.974085 27.223541 
L 34.123929 27.627889 
L 34.48305 27.957055 
L 34.759995 28.19643 
L 35.03694 28.435806 
L 35.298886 28.585489 
L 35.560833 28.735172 
L 35.822779 28.884855 
L 36.084726 29.034538 
L 36.346673 29.18422 
L 36.608619 29.333903 
L 36.870566 29.483586 
L 37.132512 29.633269 
L 37.342069 29.880241 
L 37.551627 30.127213 
L 37.589018 30.463975 
L 37.626409 30.800737 
L 37.663939 31.107504 
L 37.70147 31.414271 
L 38.053197 31.638844 
L 38.404924 31.863417 
L 38.711726 31.953207 
L 39.018527 32.042997 
L 39.393973 32.226863 
L 39.769418 32.410728 
" style="fill:none;stroke:#000000;stroke-linecap:square;stroke-width:0.4;"/>
   </g>
   <g id="line2d_53">
    <path clip-path="url(#pc6cab72032)" d="M 48.602911 31.591124 
L 48.268764 31.469781 
L 47.934616 31.348438 
L 47.421187 31.279293 
L 46.907758 31.210149 
L 46.502735 31.131266 
L 46.097712 31.052383 
L 45.732312 30.894422 
L 45.366912 30.736462 
L 45.068202 30.598173 
L 44.769493 30.459884 
L 44.470783 30.321596 
L 44.172073 30.183307 
L 43.873363 30.045018 
L 43.574654 29.90673 
L 43.275944 29.768441 
L 42.977234 29.630153 
L 42.705591 29.556139 
L 42.433948 29.482125 
L 42.162305 29.408112 
L 41.890662 29.334098 
L 41.658642 29.19094 
L 41.426622 29.047782 
L 41.194602 28.904624 
L 40.962583 28.761466 
L 40.755188 28.544197 
L 40.547793 28.326928 
L 40.340398 28.109659 
L 40.133004 27.89239 
L 39.930562 27.61591 
L 39.72812 27.33943 
L 39.525678 27.062951 
L 39.323237 26.786471 
L 38.957837 26.544563 
L 38.592437 26.302655 
L 38.227037 26.060747 
L 37.861637 25.81884 
L 37.412945 25.738983 
L 37.02585 25.649582 
L 36.638755 25.560182 
L 36.25166 25.470781 
L 35.864565 25.38138 
" style="fill:none;stroke:#000000;stroke-linecap:square;stroke-width:0.4;"/>
   </g>
   <g id="line2d_54">
    <path clip-path="url(#pc6cab72032)" d="M 34.886538 38.874846 
L 34.920162 39.194273 
L 34.953786 39.5137 
L 34.823476 39.86546 
L 34.693165 40.217219 
L 34.637776 40.547359 
L 34.582387 40.877499 
L 34.494351 41.222831 
L 34.406315 41.568163 
L 34.415523 41.883597 
L 34.424731 42.199032 
L 34.433939 42.514466 
L 34.443148 42.829901 
L 34.486119 43.135012 
L 34.529091 43.440124 
L 34.572063 43.745235 
L 34.615035 44.050347 
L 34.795572 44.454305 
L 34.976109 44.858264 
L 35.047473 45.18071 
L 35.118837 45.503156 
L 35.190201 45.825603 
L 35.261565 46.148049 
" style="fill:none;stroke:#008000;stroke-linecap:square;stroke-width:0.4;"/>
   </g>
  </g>
 </g>
 <defs>
  <clipPath id="pc6cab72032">
   <rect height="72" width="69.261322" x="0" y="0"/>
  </clipPath>
 </defs>
</svg>
