<?xml version="1.0" encoding="utf-8" standalone="no"?>
<!DOCTYPE svg PUBLIC "-//W3C//DTD SVG 1.1//EN"
  "http://www.w3.org/Graphics/SVG/1.1/DTD/svg11.dtd">
<svg xmlns:xlink="http://www.w3.org/1999/xlink" width="72pt" height="56.548956pt" viewBox="0 0 72 56.548956" xmlns="http://www.w3.org/2000/svg" version="1.1">
 <metadata>
  <rdf:RDF xmlns:dc="http://purl.org/dc/elements/1.1/" xmlns:cc="http://creativecommons.org/ns#" xmlns:rdf="http://www.w3.org/1999/02/22-rdf-syntax-ns#">
   <cc:Work>
    <dc:type rdf:resource="http://purl.org/dc/dcmitype/StillImage"/>
    <dc:date>2022-05-17T17:49:02.651113</dc:date>
    <dc:format>image/svg+xml</dc:format>
    <dc:creator>
     <cc:Agent>
      <dc:title>Matplotlib v3.5.2, https://matplotlib.org/</dc:title>
     </cc:Agent>
    </dc:creator>
   </cc:Work>
  </rdf:RDF>
 </metadata>
 <defs>
  <style type="text/css">*{stroke-linejoin: round; stroke-linecap: butt}</style>
 </defs>
 <g id="figure_1">
  <g id="patch_1">
   <path d="M 0 56.548956 
L 72 56.548956 
L 72 0 
L 0 0 
z
" style="fill: #ffffff"/>
  </g>
  <g id="axes_1">
   <g id="line2d_1">
    <path d="M 57.316673 41.463423 
L 56.084298 39.83348 
L 54.851922 38.203537 
L 52.717516 35.379264 
L 51.201438 33.373711 
L 49.685359 31.368159 
L 48.16928 29.362607 
L 46.653202 27.357054 
L 45.314277 25.586108 
L 43.975352 23.815162 
L 42.176427 21.4355 
L 40.653501 19.420947 
L 39.130576 17.406394 
L 37.876377 15.747351 
L 36.622178 14.088308 
" clip-path="url(#pc42bb5e3b5)" style="fill: none; stroke: #808080; stroke-width: 0.4; stroke-linecap: square"/>
   </g>
   <g id="line2d_2">
    <path d="M 50.773958 44.756909 
L 48.958771 41.660828 
L 47.325873 38.876155 
L 46.328847 37.175711 
L 45.331821 35.475266 
L 44.340786 33.785022 
L 43.349751 32.094778 
L 42.58893 30.796944 
L 41.421597 28.806392 
L 40.254263 26.81584 
L 39.097199 24.842389 
L 37.940136 22.868937 
L 36.284987 20.045863 
" clip-path="url(#pc42bb5e3b5)" style="fill: none; stroke: #808080; stroke-width: 0.4; stroke-linecap: square"/>
   </g>
   <g id="line2d_3">
    <path d="M 39.943602 47.366977 
L 39.258093 44.185094 
L 38.827617 42.186741 
L 38.397142 40.188389 
L 37.961103 38.165136 
L 37.525065 36.141884 
L 37.095017 34.145932 
L 36.664969 32.149979 
L 36.210103 30.040024 
L 35.755237 27.930069 
L 35.165579 25.193398 
L 34.456107 21.899912 
" clip-path="url(#pc42bb5e3b5)" style="fill: none; stroke: #808080; stroke-width: 0.4; stroke-linecap: square"/>
   </g>
   <g id="line2d_4">
    <path d="M 31.762853 49.165824 
L 30.497529 47.520731 
L 29.232204 45.875638 
L 27.96688 44.230545 
L 26.701555 42.585452 
" clip-path="url(#pc42bb5e3b5)" style="fill: none; stroke: #808080; stroke-width: 0.4; stroke-linecap: square"/>
   </g>
   <g id="line2d_5">
    <path d="M 29.836411 52.702916 
L 27.664349 50.248252 
L 26.383192 48.800414 
L 25.102035 47.352576 
L 23.66084 45.723834 
L 22.219645 44.095091 
L 20.801985 42.493049 
L 19.384326 40.891008 
L 16.845119 38.021733 
L 15.396222 36.38369 
" clip-path="url(#pc42bb5e3b5)" style="fill: none; stroke: #808080; stroke-width: 0.4; stroke-linecap: square"/>
   </g>
   <g id="line2d_6">
    <path d="M 20.862321 50.057447 
L 18.871264 49.189524 
L 16.880207 48.321602 
L 13.426988 47.278774 
L 10.245919 46.433352 
L 6.765314 45.775735 
" clip-path="url(#pc42bb5e3b5)" style="fill: none; stroke: #808080; stroke-width: 0.4; stroke-linecap: square"/>
   </g>
   <g id="line2d_7">
    <path d="M 31.930593 49.01222 
L 30.656069 47.376277 
L 29.381544 45.740334 
L 28.10702 44.104392 
L 26.832495 42.468449 
" clip-path="url(#pc42bb5e3b5)" style="fill: none; stroke: #808080; stroke-width: 0.4; stroke-linecap: square"/>
   </g>
   <g id="line2d_8">
    <path d="M 34.29607 49.103422 
L 32.761591 47.051368 
" clip-path="url(#pc42bb5e3b5)" style="fill: none; stroke: #808080; stroke-width: 0.4; stroke-linecap: square"/>
   </g>
   <g id="line2d_9">
    <path d="M 3.272727 43.511876 
L 5.409273 42.236993 
L 7.545818 40.962109 
L 9.682364 39.687226 
L 11.818909 38.412343 
" clip-path="url(#pc42bb5e3b5)" style="fill: none; stroke: #808080; stroke-width: 0.4; stroke-linecap: square"/>
   </g>
   <g id="line2d_10">
    <path d="M 35.58065 13.850102 
L 34.928946 13.468492 
L 34.277242 13.086882 
L 33.90111 12.425364 
L 33.524979 11.763847 
L 33.58403 10.965226 
L 33.643082 10.166605 
L 34.422303 9.514088 
L 35.201523 8.861571 
L 35.866172 8.735268 
L 36.53082 8.608965 
L 37.195468 8.482661 
L 37.860117 8.356358 
L 38.524765 8.230055 
L 39.189414 8.103752 
L 39.854062 7.977448 
L 40.51871 7.851145 
L 41.264554 7.709241 
L 42.010398 7.567338 
L 42.644772 7.489636 
L 43.279146 7.411934 
L 43.91352 7.334231 
L 44.547894 7.256529 
L 45.136909 7.153027 
L 45.725925 7.049524 
L 46.31494 6.946021 
L 46.903956 6.842519 
L 47.887717 6.641813 
L 48.871478 6.441108 
L 49.855239 6.240403 
L 50.839 6.039698 
L 51.744881 5.664388 
L 52.650763 5.289078 
L 53.362802 4.447556 
L 54.074841 3.606034 
L 54.650806 3.347127 
L 55.22677 3.088221 
L 55.802734 2.829314 
L 56.378699 2.570407 
L 56.993603 2.654559 
L 57.608507 2.738712 
L 58.223411 2.822864 
L 58.838315 2.907016 
L 59.446586 3.44418 
L 60.054858 3.981344 
L 60.663129 4.518508 
L 61.271401 5.055672 
L 61.62742 5.780641 
L 61.98344 6.50561 
L 62.33946 7.230579 
L 62.695479 7.955548 
L 62.972175 8.59959 
L 63.248871 9.243631 
L 63.525568 9.887673 
L 63.802264 10.531715 
L 64.07896 11.175757 
L 64.355656 11.819799 
L 64.632352 12.46384 
L 64.909048 13.107882 
L 65.185744 13.751924 
L 65.46244 14.395966 
L 65.739136 15.040008 
L 66.015833 15.684049 
L 66.292529 16.328091 
L 66.569225 16.972133 
L 66.845921 17.616175 
L 67.122617 18.260217 
L 67.394339 18.926984 
L 67.66606 19.593752 
L 67.937782 20.260519 
L 68.209504 20.927286 
L 68.338946 21.555053 
L 68.468388 22.182819 
L 68.597831 22.810586 
L 68.727273 23.438352 
L 68.313058 24.473979 
L 67.944201 25.011293 
L 67.575344 25.548607 
L 67.206487 26.085921 
L 66.83763 26.623235 
L 66.565802 27.147499 
L 66.293973 27.671762 
L 66.022144 28.196026 
L 65.750316 28.72029 
L 65.478487 29.244554 
L 65.206658 29.768817 
L 64.93483 30.293081 
L 64.663001 30.817345 
L 64.164702 31.684667 
L 63.666403 32.55199 
L 63.168104 33.419313 
L 62.669805 34.286635 
L 62.249171 34.772198 
L 61.828537 35.257761 
L 61.407903 35.743323 
L 60.98727 36.228886 
L 60.482338 37.193261 
L 59.977406 38.157636 
L 59.472475 39.122011 
L 58.967543 40.086387 
L 58.531933 40.823206 
L 58.271764 41.444222 
" clip-path="url(#pc42bb5e3b5)" style="fill: none; stroke: #008000; stroke-width: 0.4; stroke-linecap: square"/>
   </g>
   <g id="line2d_11">
    <path d="M 40.51871 7.851145 
L 41.165707 7.996049 
L 41.812705 8.140953 
L 42.541432 8.854671 
L 43.27016 9.56839 
L 43.664049 10.408562 
L 44.057939 11.248734 
L 44.451828 12.088906 
L 44.845718 12.929078 
L 45.31417 13.427241 
L 45.782623 13.925404 
L 46.251075 14.423567 
L 46.719528 14.92173 
L 47.18798 15.419893 
L 47.656433 15.918056 
L 48.124885 16.416219 
L 48.593337 16.914382 
L 49.225144 17.434895 
L 49.85695 17.955409 
L 50.488757 18.475922 
L 51.120563 18.996436 
L 51.730332 19.725155 
L 52.340101 20.453874 
L 52.949871 21.182593 
L 53.55964 21.911312 
" clip-path="url(#pc42bb5e3b5)" style="fill: none; stroke: #008000; stroke-width: 0.4; stroke-linecap: square"/>
   </g>
   <g id="line2d_12">
    <path d="M 53.55964 21.911312 
L 54.175827 22.459426 
L 54.792015 23.007541 
L 55.165151 23.338749 
L 55.752455 23.822062 
L 56.339759 24.305375 
L 56.927063 24.788687 
L 57.514367 25.272 
L 58.243095 25.889116 
L 58.971822 26.506232 
L 59.321209 27.022996 
L 59.670596 27.539759 
L 60.019983 28.056523 
L 60.36937 28.573286 
L 60.860181 29.591813 
L 61.350992 30.610339 
L 61.354629 31.238706 
L 61.358266 31.867072 
L 61.361903 32.495438 
L 61.365541 33.123805 
L 61.268833 34.224234 
L 61.172126 35.324662 
L 60.98727 36.228886 
" clip-path="url(#pc42bb5e3b5)" style="fill: none; stroke: #008000; stroke-width: 0.4; stroke-linecap: square"/>
   </g>
   <g id="line2d_13">
    <path d="M 36.629025 16.185363 
L 37.408246 16.704376 
L 38.187467 17.22339 
L 38.83425 17.558048 
L 39.481033 17.892707 
L 40.127816 18.227366 
L 40.774599 18.562025 
L 41.860202 18.918884 
L 42.945805 19.275743 
L 44.031408 19.632603 
L 45.117011 19.989462 
L 45.676394 20.160466 
L 46.235777 20.331471 
L 46.79516 20.502475 
L 47.354543 20.67348 
L 47.913926 20.844484 
L 48.473309 21.015489 
L 49.032692 21.186493 
L 49.592075 21.357498 
L 50.376431 21.547103 
L 51.160786 21.736708 
L 51.945142 21.926312 
L 52.729498 22.115917 
L 53.760757 22.561729 
L 54.792015 23.007541 
" clip-path="url(#pc42bb5e3b5)" style="fill: none; stroke: #4169e1; stroke-width: 0.4; stroke-linecap: square"/>
   </g>
   <g id="line2d_14">
    <path d="M 34.250711 16.961783 
L 33.59644 17.080586 
L 32.942168 17.199389 
L 32.503562 17.794305 
L 32.064956 18.38922 
L 31.626351 18.984136 
L 31.187745 19.579051 
L 30.927577 20.411798 
L 30.667408 21.244545 
L 30.40724 22.077291 
L 30.147072 22.910038 
L 29.886904 23.742785 
L 29.626736 24.575532 
L 29.366568 25.408278 
L 29.106399 26.241025 
L 28.987441 26.846966 
L 28.868482 27.452907 
L 28.749524 28.058848 
L 28.630565 28.664788 
L 28.511607 29.270729 
L 28.392649 29.87667 
L 28.27369 30.482611 
L 28.154732 31.088552 
L 28.139755 31.861972 
L 28.124778 32.635392 
" clip-path="url(#pc42bb5e3b5)" style="fill: none; stroke: #008000; stroke-width: 0.4; stroke-linecap: square"/>
   </g>
   <g id="line2d_15">
    <path d="M 34.952481 14.765126 
L 34.405614 13.859702 
L 33.88485 13.184984 
L 33.364086 12.510267 
L 32.390167 12.476066 
L 31.570295 12.920077 
L 31.373885 13.466692 
L 31.177475 14.013306 
L 31.023428 14.611521 
L 30.853121 15.32854 
L 30.374719 15.618948 
L 29.964783 15.533746 
L 29.230493 15.396942 
L 29.00798 15.584747 
L 28.87105 16.08036 
L 29.042213 16.541772 
L 29.093562 16.968383 
L 28.905283 17.395594 
L 28.27369 17.822805 
L 27.419585 17.839606 
L 27.163696 17.839606 
L 26.668179 18.472022 
L 26.275359 19.240642 
L 25.891097 20.060564 
L 25.506836 20.880485 
L 25.361347 21.691706 
L 25.215858 22.502928 
L 25.198742 23.596156 
L 25.344231 24.381877 
L 25.48972 25.167597 
L 25.63478 25.757112 
L 25.779841 26.346628 
L 26.172661 27.18365 
L 26.565481 28.020672 
L 27.009649 28.831893 
L 27.453818 29.643114 
L 27.804275 30.365833 
L 28.154732 31.088552 
" clip-path="url(#pc42bb5e3b5)" style="fill: none; stroke: #008000; stroke-width: 0.4; stroke-linecap: square"/>
   </g>
   <g id="line2d_16">
    <path d="M 28.124778 32.635392 
L 28.157299 33.550116 
L 28.18982 34.46484 
L 28.446137 35.369963 
L 28.702454 36.275087 
L 29.300242 37.197611 
L 29.898029 38.120135 
L 30.359101 38.521546 
L 30.820172 38.922956 
L 31.281243 39.324367 
L 31.742314 39.725777 
L 32.459702 40.306592 
L 33.17709 40.887408 
L 33.894478 41.468223 
L 34.611866 42.049038 
L 35.14996 42.493199 
L 35.688055 42.937361 
L 36.226149 43.381523 
L 36.764244 43.825684 
L 37.063138 44.474751 
L 37.362032 45.123818 
L 37.660926 45.772885 
L 37.959819 46.421952 
L 38.156229 47.045368 
L 38.352639 47.668785 
L 38.549049 48.292201 
L 38.745459 48.915617 
L 39.292325 49.299027 
L 39.857164 49.239626 
L 40.169537 48.838215 
" clip-path="url(#pc42bb5e3b5)" style="fill: none; stroke: #008000; stroke-width: 0.4; stroke-linecap: square"/>
   </g>
   <g id="line2d_17">
    <path d="M 34.088962 21.309496 
L 33.821092 21.338897 
L 33.761184 22.171719 
L 33.857892 22.892938 
L 33.954599 23.614157 
L 34.148013 24.379927 
L 34.341428 25.145697 
L 34.534842 25.911467 
L 34.728257 26.677237 
L 34.902843 27.796266 
L 35.07743 28.915295 
L 35.252017 30.034324 
L 35.426603 31.153353 
L 35.701748 31.971325 
L 35.976893 32.789296 
L 36.252038 33.607267 
L 36.527183 34.425239 
L 36.698132 35.098156 
L 36.869081 35.771074 
L 37.040031 36.443992 
L 37.21098 37.116909 
L 37.463874 37.808127 
L 37.716768 38.499345 
L 38.155373 38.908556 
L 38.593979 39.317767 
L 38.980808 40.291592 
L 39.367637 41.265417 
L 39.482745 41.845333 
L 39.597852 42.425248 
L 39.712959 43.005163 
L 39.828066 43.585078 
L 40.032607 44.213444 
L 40.237147 44.841811 
L 40.441687 45.470177 
L 40.646227 46.098544 
L 40.831939 46.841963 
L 41.017651 47.585382 
L 41.033056 48.061195 
L 40.705278 48.299401 
L 40.497315 48.314401 
" clip-path="url(#pc42bb5e3b5)" style="fill: none; stroke: #4169e1; stroke-width: 0.4; stroke-linecap: square"/>
   </g>
   <g id="line2d_18">
    <path d="M 34.723978 21.341297 
L 35.412054 21.390498 
L 35.915274 21.989314 
L 36.413787 22.644231 
L 36.9123 23.299148 
L 37.544321 24.196022 
L 38.176341 25.092895 
L 38.808361 25.989769 
L 39.440382 26.886642 
L 39.820364 27.642512 
L 40.200347 28.398381 
L 40.580329 29.154251 
L 40.960312 29.910121 
L 41.120456 30.501586 
L 41.280601 31.093052 
L 41.440745 31.684517 
L 41.60089 32.275983 
L 41.761035 32.867448 
L 41.921179 33.458914 
L 42.081324 34.050379 
L 42.241469 34.641844 
L 42.420762 35.290911 
L 42.600056 35.939978 
L 42.779349 36.589045 
L 42.958643 37.238112 
L 43.137936 37.887179 
L 43.31723 38.536246 
L 43.496523 39.185313 
L 43.675817 39.83438 
L 43.756905 40.547649 
L 43.837994 41.260917 
L 43.919083 41.974186 
L 44.000171 42.687455 
L 43.863668 43.310871 
L 43.727166 43.934287 
L 43.232076 44.762609 
L 42.736986 45.59093 
L 42.335608 46.205946 
L 41.934231 46.820962 
" clip-path="url(#pc42bb5e3b5)" style="fill: none; stroke: #4169e1; stroke-width: 0.4; stroke-linecap: square"/>
   </g>
   <g id="line2d_19">
    <path d="M 35.830548 19.670254 
L 35.442008 19.92946 
L 35.351291 20.641079 
L 35.697897 21.126792 
L 36.044502 21.612504 
L 36.523974 22.249571 
L 37.003445 22.886638 
L 37.482916 23.523704 
L 37.962387 24.160771 
L 38.771989 24.207572 
L 39.581591 24.254373 
L 39.954941 24.797912 
L 40.328291 25.341452 
L 40.701641 25.884991 
L 41.074991 26.42853 
L 41.448341 26.972069 
L 41.821691 27.515608 
L 42.195041 28.059148 
L 42.56839 28.602687 
L 43.070755 29.584312 
L 43.42763 30.282581 
L 43.784505 30.980849 
L 44.141381 31.679117 
L 44.498256 32.377385 
L 44.773722 32.919724 
L 45.049188 33.462064 
L 45.324654 34.004403 
L 45.60012 34.546742 
L 45.875586 35.089081 
L 46.151052 35.63142 
L 46.426517 36.173759 
L 46.701983 36.716099 
L 47.205631 37.621522 
L 47.709279 38.526946 
L 48.153448 39.569173 
L 48.565309 40.056086 
L 48.977171 40.542999 
L 49.389033 41.029911 
L 49.800894 41.516824 
L 50.347333 42.191542 
L 50.893772 42.866259 
L 51.372173 43.540977 
L 51.850574 44.215694 
L 52.192045 45.035316 
L 51.867691 45.514128 
L 51.52622 45.325723 
L 51.355057 45.18952 
" clip-path="url(#pc42bb5e3b5)" style="fill: none; stroke: #4169e1; stroke-width: 0.4; stroke-linecap: square"/>
   </g>
   <g id="line2d_20">
    <path d="M 43.070755 29.584312 
L 43.834143 29.635914 
L 44.740452 30.063125 
L 45.646762 30.490336 
L 46.319861 31.195654 
L 46.992961 31.900973 
L 47.435418 32.306283 
L 47.877875 32.711594 
L 48.719142 33.098904 
L 49.56041 33.486214 
" clip-path="url(#pc42bb5e3b5)" style="fill: none; stroke: #4169e1; stroke-width: 0.4; stroke-linecap: square"/>
   </g>
   <g id="line2d_21">
    <path d="M 36.287554 19.568251 
L 36.637583 19.696054 
L 37.004728 20.353671 
L 37.466013 20.994488 
L 38.175057 21.233594 
L 38.884101 21.472701 
L 39.81908 21.865411 
L 40.75406 22.258121 
L 41.305633 22.552729 
L 41.857207 22.847337 
L 42.408781 23.141944 
L 42.960354 23.436552 
L 43.880785 23.995767 
L 44.801215 24.554981 
L 45.719506 24.776087 
L 46.637797 24.997193 
L 47.636321 25.109996 
L 48.634845 25.222799 
L 49.633368 25.335601 
L 50.631892 25.448404 
L 51.209461 25.611834 
L 51.78703 25.775263 
L 52.364599 25.938692 
L 52.942168 26.102121 
L 53.519737 26.265551 
L 54.097306 26.42898 
L 54.674875 26.592409 
L 55.252444 26.755839 
L 55.714371 27.155899 
L 56.176298 27.555959 
L 56.638225 27.95602 
L 57.100152 28.35608 
L 57.629902 29.201202 
L 58.159653 30.046324 
L 58.221699 30.666141 
L 58.283746 31.285957 
L 58.345793 31.905773 
L 58.407839 32.525589 
L 58.407839 33.477964 
L 58.407839 34.430339 
L 58.407839 35.382714 
L 58.407839 36.335089 
L 58.38516 37.360515 
L 58.362481 38.385942 
L 58.306211 38.994508 
L 58.249941 39.603074 
L 58.193671 40.21164 
L 58.137401 40.820206 
" clip-path="url(#pc42bb5e3b5)" style="fill: none; stroke: #008000; stroke-width: 0.4; stroke-linecap: square"/>
   </g>
   <g id="line2d_22">
    <path d="M 35.769785 19.955261 
L 35.735553 20.219868 
L 36.043647 20.638079 
L 36.384689 21.120791 
L 36.725732 21.603504 
L 37.648302 21.521302 
L 38.112155 22.388925 
L 38.952138 22.811936 
L 39.792122 23.234947 
L 40.464366 23.479153 
L 41.13661 23.723359 
L 41.868333 24.068368 
L 42.543144 24.49828 
L 43.217955 24.928191 
L 43.968934 25.630809 
L 44.719913 26.333428 
L 45.470892 27.036046 
L 46.22187 27.738664 
L 46.51456 28.198876 
L 46.909519 28.819742 
L 47.304478 29.440609 
L 47.699437 30.061475 
L 48.094397 30.682341 
L 48.4609 31.383309 
L 48.827403 32.084278 
L 49.193907 32.785246 
L 49.56041 33.486214 
L 49.88562 33.996978 
L 50.21083 34.507741 
L 50.536041 35.018504 
L 50.861251 35.529268 
L 51.184963 36.265037 
L 51.508676 37.000806 
L 51.832388 37.736575 
L 52.156101 38.472344 
L 52.598558 39.323167 
L 53.041015 40.173989 
L 53.561779 40.566849 
L 54.082543 40.959709 
L 54.603308 41.35257 
L 55.124072 41.74543 
L 55.910139 41.967436 
L 56.696207 42.189442 
L 57.242217 42.326245 
" clip-path="url(#pc42bb5e3b5)" style="fill: none; stroke: #000000; stroke-width: 0.4; stroke-linecap: square"/>
   </g>
   <g id="line2d_23">
    <path d="M 46.51456 28.198876 
L 46.910803 28.552885 
L 47.958322 28.71069 
L 48.651533 28.637188 
L 49.344744 28.563686 
L 50.358887 28.541485 
L 51.192452 28.620087 
L 52.071375 29.1271 
L 52.624232 29.803318 
L 53.090438 30.593614 
L 53.556644 31.383909 
L 54.02285 32.174205 
L 54.489056 32.964501 
L 54.955262 33.754796 
L 55.421468 34.545092 
L 55.887674 35.335388 
L 56.35388 36.125683 
L 56.792914 36.813301 
L 56.99018 37.619122 
L 57.187445 38.424943 
L 57.362032 39.225064 
L 57.536618 40.025185 
" clip-path="url(#pc42bb5e3b5)" style="fill: none; stroke: #000000; stroke-width: 0.4; stroke-linecap: square"/>
   </g>
   <g id="line2d_24">
    <path d="M 31.577997 47.726386 
L 32.114166 48.418204 
L 32.650335 49.110022 
" clip-path="url(#pc42bb5e3b5)" style="fill: none; stroke: #008000; stroke-width: 0.4; stroke-linecap: square"/>
   </g>
   <g id="line2d_25">
    <path d="M 27.909112 42.088039 
L 28.367723 42.792832 
L 28.826333 43.497626 
L 29.284944 44.202419 
L 29.743555 44.907212 
L 30.202165 45.612006 
L 30.660776 46.316799 
L 31.119386 47.021593 
L 31.577997 47.726386 
" clip-path="url(#pc42bb5e3b5)" style="fill: none; stroke: #008000; stroke-width: 0.4; stroke-linecap: square"/>
   </g>
   <g id="line2d_26">
    <path d="M 26.586876 43.67748 
L 27.175036 44.419325 
L 27.763196 45.161169 
L 28.351355 45.903013 
L 28.939515 46.644858 
L 29.527675 47.386702 
L 30.115835 48.128547 
L 30.703995 48.870391 
L 31.292154 49.612235 
" clip-path="url(#pc42bb5e3b5)" style="fill: none; stroke: #008000; stroke-width: 0.4; stroke-linecap: square"/>
   </g>
   <g id="line2d_27">
    <path d="M 17.314962 36.288887 
L 18.031601 37.14631 
L 18.74824 38.003732 
L 19.464879 38.861155 
L 20.181519 39.718577 
L 20.898158 40.575999 
L 21.614797 41.433422 
L 22.331436 42.290844 
L 23.048075 43.148267 
L 23.764715 44.005689 
L 24.481354 44.863111 
L 25.197993 45.720534 
L 25.914632 46.577956 
L 26.631272 47.435378 
L 27.347911 48.292801 
L 28.06455 49.150223 
L 28.781189 50.007646 
L 29.237767 50.480008 
L 29.694345 50.95237 
L 30.150923 51.424733 
L 30.607501 51.897095 
L 30.777809 52.300906 
L 30.735018 52.746717 
L 30.544171 52.938122 
" clip-path="url(#pc42bb5e3b5)" style="fill: none; stroke: #4169e1; stroke-width: 0.4; stroke-linecap: square"/>
   </g>
   <g id="line2d_28">
    <path d="M 14.70301 38.221538 
L 15.148944 38.683419 
L 15.594878 39.1453 
L 16.040812 39.60718 
L 16.486746 40.069061 
L 16.932679 40.530942 
L 17.378613 40.992823 
L 17.824547 41.454704 
L 18.270481 41.916584 
L 18.716415 42.378465 
L 19.162348 42.840346 
L 19.608282 43.302227 
L 20.054216 43.764108 
L 20.50015 44.225988 
L 20.946084 44.687869 
L 21.392017 45.14975 
L 21.837951 45.611631 
L 22.283885 46.073512 
L 22.729819 46.535392 
L 23.175753 46.997273 
L 23.621686 47.459154 
L 24.06762 47.921035 
L 24.513554 48.382916 
L 24.959488 48.844797 
L 25.405422 49.306677 
L 25.851355 49.768558 
L 26.297289 50.230439 
L 26.743223 50.69232 
L 27.189157 51.154201 
L 27.635091 51.616081 
L 28.081024 52.077962 
L 28.526958 52.539843 
L 28.972892 53.001724 
L 29.471833 53.490137 
L 29.970774 53.978549 
" clip-path="url(#pc42bb5e3b5)" style="fill: none; stroke: #000000; stroke-width: 0.4; stroke-linecap: square"/>
   </g>
   <g id="line2d_29">
    <path d="M 12.799675 38.986558 
L 12.156957 39.427869 
L 11.514239 39.869181 
L 10.871521 40.310492 
L 10.228802 40.751804 
L 9.586084 41.193116 
L 8.943366 41.634427 
L 8.300648 42.075739 
L 7.65793 42.51705 
L 7.182096 42.335245 
L 7.182096 42.979662 
L 6.523118 42.349046 
L 6.579602 43.203468 
L 5.977107 42.88126 
L 6.355378 43.778283 
L 5.528659 43.119466 
L 5.54278 43.729082 
L 5.556901 44.338698 
L 4.828601 43.610279 
L 4.464024 43.750082 
" clip-path="url(#pc42bb5e3b5)" style="fill: none; stroke: #008000; stroke-width: 0.4; stroke-linecap: square"/>
   </g>
   <g id="line2d_30">
    <path d="M 4.238088 47.984993 
L 5.193981 48.174035 
L 6.149875 48.363078 
L 7.105768 48.55212 
L 8.061662 48.741163 
L 9.017555 48.930205 
L 9.973448 49.119247 
L 10.929342 49.30829 
L 11.885235 49.497332 
L 12.841128 49.686375 
L 13.797022 49.875417 
L 14.752915 50.06446 
L 15.708808 50.253502 
L 16.664702 50.442544 
L 17.620595 50.631587 
L 18.576489 50.820629 
L 19.532382 51.009672 
" clip-path="url(#pc42bb5e3b5)" style="fill: none; stroke: #4169e1; stroke-width: 0.4; stroke-linecap: square"/>
   </g>
  </g>
 </g>
 <defs>
  <clipPath id="pc42bb5e3b5">
   <rect x="0" y="0" width="72" height="56.548956"/>
  </clipPath>
 </defs>
</svg>
