<?xml version="1.0" encoding="utf-8" standalone="no"?>
<!DOCTYPE svg PUBLIC "-//W3C//DTD SVG 1.1//EN"
  "http://www.w3.org/Graphics/SVG/1.1/DTD/svg11.dtd">
<svg height="72pt" version="1.1" viewBox="0 0 110.64378 72" width="110.64378pt" xmlns="http://www.w3.org/2000/svg" xmlns:xlink="http://www.w3.org/1999/xlink">
 <metadata>
  <rdf:RDF xmlns:cc="http://creativecommons.org/ns#" xmlns:dc="http://purl.org/dc/elements/1.1/" xmlns:rdf="http://www.w3.org/1999/02/22-rdf-syntax-ns#">
   <cc:Work>
    <dc:type rdf:resource="http://purl.org/dc/dcmitype/StillImage"/>
    <dc:date>2022-04-19T00:57:54.166166</dc:date>
    <dc:format>image/svg+xml</dc:format>
    <dc:creator>
     <cc:Agent>
      <dc:title>Matplotlib v3.4.3, https://matplotlib.org/</dc:title>
     </cc:Agent>
    </dc:creator>
   </cc:Work>
  </rdf:RDF>
 </metadata>
 <defs>
  <style type="text/css">*{stroke-linecap:butt;stroke-linejoin:round;}</style>
 </defs>
 <g id="figure_1">
  <g id="patch_1">
   <path d="M 0 72 
L 110.64378 72 
L 110.64378 0 
L 0 0 
z
" style="fill:#ffffff;"/>
  </g>
  <g id="axes_1">
   <g id="line2d_1">
    <path clip-path="url(#pa3b4d7c30f)" d="M 61.148812 61.611479 
L 61.551249 60.430396 
L 62.016122 59.066095 
L 62.550224 57.498023 
L 62.881005 56.52727 
L 63.211786 55.556517 
L 63.586078 54.458079 
L 63.96037 53.359642 
L 64.366851 52.166534 
L 64.773331 50.973426 
L 65.177224 49.787752 
L 65.581116 48.602078 
L 66.015741 47.326544 
L 66.450367 46.051009 
L 66.843907 44.895726 
L 67.237448 43.740443 
L 67.696659 42.392539 
L 68.15587 41.044636 
L 68.732513 39.352377 
L 69.309156 37.660119 
L 69.902135 35.919323 
L 70.495115 34.178526 
L 71.073375 32.481239 
L 71.651636 30.783952 
L 72.251732 29.022385 
L 72.851829 27.260819 
L 73.477159 25.425134 
L 74.102488 23.589449 
L 74.729759 21.748516 
L 75.35703 19.907584 
L 75.886765 18.352412 
L 76.4165 16.797239 
L 76.986834 15.122691 
L 77.557169 13.448142 
L 77.981927 12.201249 
L 78.406686 10.954356 
L 78.831444 9.707464 
L 79.256202 8.460571 
L 79.615937 7.404986 
L 80.073369 6.061674 
L 80.43828 4.990785 
" style="fill:none;stroke:#808080;stroke-linecap:square;stroke-width:0.51224;"/>
   </g>
   <g id="line2d_2">
    <path clip-path="url(#pa3b4d7c30f)" d="M 59.112042 61.543264 
L 58.152211 60.304898 
L 57.192056 59.066532 
L 56.078885 57.63008 
L 55.372195 56.718578 
L 54.665504 55.807076 
L 53.909317 54.831513 
L 53.153131 53.85595 
L 52.285013 52.736086 
L 51.416895 51.616222 
L 50.758406 50.766595 
L 50.099917 49.916967 
L 49.204625 48.762012 
L 48.309332 47.607056 
L 47.41404 46.452101 
L 46.518747 45.297145 
" style="fill:none;stroke:#808080;stroke-linecap:square;stroke-width:0.51224;"/>
   </g>
   <g id="line2d_3">
    <path clip-path="url(#pa3b4d7c30f)" d="M 54.088699 42.582536 
L 53.263445 41.847912 
L 52.438191 41.113288 
L 51.307551 40.106569 
L 50.17691 39.09985 
L 49.04627 38.093131 
L 47.91563 37.086412 
L 47.12216 36.379884 
L 46.32869 35.673355 
L 45.53522 34.966826 
L 44.74175 34.260297 
L 43.937846 33.544585 
L 43.133943 32.828874 
L 42.33004 32.113162 
L 41.526137 31.397451 
L 40.681716 30.645664 
L 39.837294 29.893877 
L 38.992872 29.14209 
L 38.148451 28.390303 
L 37.26723 27.605611 
L 36.38601 26.820919 
L 35.50479 26.036227 
L 34.62357 25.251535 
L 33.416745 24.177148 
L 32.20992 23.10276 
L 31.278881 22.273685 
L 30.347841 21.44461 
L 29.416802 20.615534 
L 28.485762 19.786459 
L 27.13142 18.58067 
L 25.777078 17.374881 
L 24.915107 16.607243 
L 24.053135 15.839605 
L 23.296787 15.1662 
L 22.540438 14.492794 
" style="fill:none;stroke:#808080;stroke-linecap:square;stroke-width:0.51224;"/>
   </g>
   <g id="line2d_4">
    <path clip-path="url(#pa3b4d7c30f)" d="M 62.78541 61.483794 
L 63.170054 61.037773 
L 63.662748 60.467127 
L 64.673207 59.296321 
L 65.683666 58.125514 
L 66.545153 57.127431 
L 67.406639 56.129349 
L 68.333797 55.054961 
L 69.260954 53.980574 
L 70.436076 52.618896 
L 71.611198 51.257219 
L 72.598688 50.112867 
L 73.586179 48.968516 
L 74.689483 47.690139 
L 75.792788 46.411762 
L 76.762 45.288619 
L 77.731213 44.165475 
L 78.72857 43.183353 
L 79.43332 42.35865 
L 80.13807 41.533948 
L 81.260461 40.220589 
L 82.382852 38.90723 
L 83.436498 37.67433 
L 84.490145 36.44143 
L 85.551232 35.199785 
L 86.61232 33.958139 
L 87.355081 33.088834 
L 88.097842 32.21953 
L 88.951564 31.220791 
" style="fill:none;stroke:#808080;stroke-linecap:square;stroke-width:0.51224;"/>
   </g>
   <g id="line2d_5">
    <path clip-path="url(#pa3b4d7c30f)" d="M 67.928772 51.94724 
L 68.737204 50.420709 
L 69.420441 49.130308 
L 70.103677 47.839906 
L 70.680805 46.749995 
L 71.257933 45.660085 
L 71.879381 44.486436 
L 72.500829 43.312787 
L 73.074884 42.228779 
L 73.648938 41.144772 
L 74.507675 39.522915 
L 75.366412 37.901058 
L 76.260895 36.211423 
L 76.768147 35.25357 
L 77.275398 34.295716 
L 77.948768 33.024118 
L 78.622138 31.752519 
L 79.460656 30.168705 
L 80.183683 28.803092 
L 80.467718 28.266991 
L 80.995512 27.27022 
L 81.523306 26.273449 
L 82.245525 24.909367 
L 82.967744 23.545284 
L 83.527726 22.487732 
L 84.087708 21.430179 
L 84.852063 19.986512 
L 85.616418 18.542845 
L 86.380773 17.099178 
L 87.145128 15.655511 
L 87.474777 15.03283 
L 87.650762 14.700063 
L 87.795044 14.428077 
L 88.593447 12.919912 
" style="fill:none;stroke:#808080;stroke-linecap:square;stroke-width:0.51224;"/>
   </g>
   <g id="line2d_6">
    <path clip-path="url(#pa3b4d7c30f)" d="M 56.585813 60.940697 
L 55.926354 60.029742 
L 55.266895 59.118787 
L 54.607435 58.207831 
L 53.947976 57.296876 
" style="fill:none;stroke:#808080;stroke-linecap:square;stroke-width:0.51224;"/>
   </g>
   <g id="line2d_7">
    <path clip-path="url(#pa3b4d7c30f)" d="M 55.806173 62.557307 
L 54.623449 62.732218 
L 53.64259 62.876956 
L 52.661731 63.021694 
L 51.554383 63.185673 
L 51.224734 63.234211 
" style="fill:none;stroke:#808080;stroke-linecap:square;stroke-width:0.51224;"/>
   </g>
   <g id="line2d_8">
    <path clip-path="url(#pa3b4d7c30f)" d="M 61.870546 68.727273 
L 61.744541 67.720007 
L 61.618537 66.712742 
" style="fill:none;stroke:#808080;stroke-linecap:square;stroke-width:0.51224;"/>
   </g>
   <g id="line2d_9">
    <path clip-path="url(#pa3b4d7c30f)" d="M 63.065886 65.954505 
L 62.908017 64.619938 
L 62.750148 63.285372 
" style="fill:none;stroke:#808080;stroke-linecap:square;stroke-width:0.51224;"/>
   </g>
   <g id="line2d_10">
    <path clip-path="url(#pa3b4d7c30f)" d="M 60.60177 61.541952 
L 61.178251 59.775357 
L 61.780127 57.930926 
L 62.382003 56.086496 
L 62.908988 54.472072 
L 63.435973 52.857649 
L 64.038172 51.012125 
L 64.640372 49.166602 
L 64.954735 48.203173 
L 65.269098 47.239745 
L 65.583462 46.276316 
L 65.897825 45.312887 
L 66.482717 43.520711 
L 67.067609 41.728535 
L 67.379869 40.771666 
L 67.69213 39.814797 
L 68.004391 38.857927 
L 68.316651 37.901058 
L 68.916586 36.062093 
L 69.516521 34.223129 
L 69.831693 33.257404 
L 70.146865 32.29168 
L 70.462037 31.325956 
L 70.777209 30.360232 
L 71.114784 29.325527 
L 71.452358 28.290823 
L 71.789933 27.256118 
L 72.127507 26.221414 
L 72.479235 25.143747 
L 72.830963 24.06608 
L 73.182691 22.988413 
L 73.534419 21.910746 
L 74.135324 20.068939 
L 74.736229 18.227132 
L 75.286345 16.541214 
L 75.83646 14.855296 
L 76.239787 13.619117 
L 76.643113 12.382937 
L 77.04644 11.146758 
L 77.449766 9.910578 
L 77.925476 8.452481 
L 78.401186 6.994384 
L 78.944346 5.330111 
L 79.184708 4.593301 
L 79.615613 3.272727 
" style="fill:none;stroke:#808080;stroke-linecap:square;stroke-width:0.51224;"/>
   </g>
   <g id="line2d_11">
    <path clip-path="url(#pa3b4d7c30f)" d="M 21.547934 14.682572 
L 19.943363 16.563297 
L 18.707139 18.006581 
L 17.023755 20.02215 
L 15.97488 21.028323 
L 12.788868 23.266958 
L 11.861711 24.092207 
L 11.210743 24.940632 
L 10.921209 26.071428 
L 11.026509 28.346575 
L 10.86217 29.260701 
L 9.474507 34.724684 
L 8.014703 37.183706 
L 6.909862 39.162927 
L 6.587654 39.919087 
L 6.088005 41.457534 
L 5.364573 43.002758 
L 5.029263 44.08764 
L 5.108197 45.008106 
L 5.844812 45.481239 
L 8.540879 45.409197 
L 10.237325 45.113052 
L 14.005398 43.05545 
L 16.491149 42.190791 
L 20.153801 41.483879 
L 21.468999 41.168385 
L 25.572463 42.397677 
L 27.308538 42.897484 
L 27.729414 43.009317 
L 31.819776 43.022435 
L 34.390891 43.226097 
L 36.856706 43.640306 
L 40.088979 43.324702 
L 42.11758 42.92372 
L 47.062555 40.984291 
L 48.272776 40.326628 
L 50.645463 41.404568 
L 53.078402 43.057855 
L 53.078402 43.057855 
" style="fill:none;stroke:#4169e1;stroke-linecap:square;stroke-width:0.51224;"/>
   </g>
   <g id="line2d_12">
    <path clip-path="url(#pa3b4d7c30f)" d="M 21.868848 15.624465 
L 21.764761 16.179805 
L 21.660674 16.735146 
L 21.556587 17.290487 
L 21.4525 17.845827 
L 21.586996 18.171215 
L 21.721493 18.496604 
L 21.855989 18.821992 
L 21.990485 19.14738 
L 22.124981 19.472768 
L 22.259477 19.798156 
L 22.393973 20.123544 
L 22.528469 20.448932 
L 22.728029 20.817665 
L 22.92759 21.186398 
L 23.12715 21.555131 
L 23.326711 21.923864 
L 23.526271 22.292597 
L 23.725831 22.66133 
L 23.925392 23.030063 
L 24.124952 23.398796 
L 24.38521 23.893356 
L 24.645467 24.387915 
L 24.905725 24.882474 
L 25.165983 25.377033 
L 25.469751 25.680722 
L 25.77352 25.98441 
L 26.077288 26.288098 
L 26.381057 26.591786 
L 26.567596 26.89542 
L 26.754136 27.199054 
L 26.940675 27.502687 
L 27.127215 27.806321 
L 27.313754 28.109954 
L 27.500294 28.413588 
L 27.686833 28.717221 
L 27.873373 29.020855 
L 28.311556 29.320225 
L 28.74974 29.619595 
L 29.187924 29.918965 
L 29.626108 30.218336 
L 30.064292 30.517706 
L 30.502475 30.817076 
L 30.940659 31.116446 
L 31.378843 31.415816 
L 31.632651 31.574137 
L 31.886458 31.732459 
L 32.140266 31.89078 
L 32.394074 32.049101 
L 32.647881 32.207423 
L 32.901689 32.365744 
L 33.155497 32.524065 
L 33.409305 32.682386 
L 33.663112 32.840708 
L 33.91692 32.999029 
L 34.170728 33.15735 
L 34.424536 33.315671 
L 34.678343 33.473993 
L 34.932151 33.632314 
L 35.185959 33.790635 
L 35.439766 33.948957 
L 35.856235 34.282981 
L 36.272704 34.617005 
L 36.689172 34.951029 
L 37.105641 35.285054 
L 37.52211 35.619078 
L 37.938578 35.953102 
L 38.355047 36.287126 
L 38.771516 36.621151 
L 39.222721 36.924839 
L 39.673925 37.228527 
L 40.12513 37.532215 
L 40.576335 37.835904 
L 40.897411 37.89663 
L 41.218487 37.957357 
L 41.539563 38.018084 
L 41.860639 38.078811 
L 42.181715 38.139537 
L 42.502791 38.200264 
L 42.823867 38.260991 
L 43.144942 38.321717 
L 43.470305 38.295699 
L 43.795667 38.269682 
L 44.12103 38.243664 
L 44.446392 38.217646 
L 44.771754 38.191628 
L 45.097117 38.16561 
L 45.422479 38.139592 
L 45.747841 38.113574 
L 46.320602 38.16561 
L 46.893363 38.217646 
" style="fill:none;stroke:#4169e1;stroke-linecap:square;stroke-width:0.51224;"/>
   </g>
   <g id="line2d_13">
    <path clip-path="url(#pa3b4d7c30f)" d="M 22.760743 15.124221 
L 23.107093 15.427636 
L 23.453443 15.731051 
L 23.799792 16.034466 
L 24.146142 16.337881 
L 24.492491 16.641296 
L 24.838841 16.944711 
L 25.18519 17.248126 
L 25.53154 17.551541 
L 25.784863 17.769058 
L 26.038185 17.986576 
L 26.291507 18.204093 
L 26.54483 18.421611 
L 26.798152 18.639128 
L 27.051475 18.856646 
L 27.304797 19.074163 
L 27.55812 19.291681 
L 27.811442 19.509198 
L 28.064765 19.726716 
L 28.318087 19.944233 
L 28.57141 20.161751 
L 28.824732 20.379268 
L 29.078055 20.596786 
L 29.331377 20.814303 
L 29.5847 21.031821 
L 29.890955 21.309464 
L 30.197211 21.587107 
L 30.503466 21.86475 
L 30.809722 22.142393 
L 31.115977 22.420036 
L 31.422233 22.697679 
L 31.728488 22.975322 
L 32.034744 23.252965 
L 32.340999 23.530608 
L 32.647255 23.808251 
L 32.95351 24.085894 
L 33.259766 24.363537 
L 33.566021 24.64118 
L 33.872277 24.918823 
L 34.178532 25.196466 
L 34.484788 25.474109 
L 34.763869 25.735982 
L 35.04295 25.997856 
L 35.322032 26.25973 
L 35.601113 26.521604 
L 35.880194 26.783477 
L 36.159276 27.045351 
L 36.438357 27.307225 
L 36.717438 27.569098 
L 36.99652 27.830972 
L 37.275601 28.092846 
L 37.554682 28.35472 
L 37.833764 28.616593 
L 38.112845 28.878467 
L 38.391926 29.140341 
L 38.671008 29.402214 
L 38.950089 29.664088 
L 39.279273 29.974609 
L 39.608457 30.28513 
L 39.93764 30.59565 
L 40.266824 30.906171 
L 40.596008 31.216692 
L 40.925192 31.527212 
L 41.254375 31.837733 
L 41.583559 32.148254 
L 41.912743 32.458774 
L 42.241926 32.769295 
L 42.57111 33.079816 
L 42.900294 33.390336 
L 43.229478 33.700857 
L 43.558661 34.011378 
L 43.887845 34.321898 
L 44.217029 34.632419 
L 44.580524 34.915774 
L 44.944019 35.199129 
L 45.307514 35.482484 
L 45.67101 35.765839 
L 46.034505 36.049194 
L 46.398 36.332548 
L 46.761495 36.615903 
L 47.12499 36.899258 
" style="fill:none;stroke:#000000;stroke-linecap:square;stroke-width:0.51224;"/>
   </g>
   <g id="line2d_14">
    <path clip-path="url(#pa3b4d7c30f)" d="M 34.839023 32.733329 
L 35.337378 32.573833 
L 35.835733 32.414336 
L 36.334088 32.25484 
L 36.832443 32.095343 
L 37.280979 31.846205 
L 37.729515 31.597067 
L 38.178051 31.347929 
L 38.626587 31.098791 
" style="fill:none;stroke:#008000;stroke-linecap:square;stroke-width:0.51224;"/>
   </g>
   <g id="line2d_15">
    <path clip-path="url(#pa3b4d7c30f)" d="M 25.589447 15.575927 
L 25.993865 15.802764 
L 26.398283 16.029601 
L 26.802702 16.256438 
L 27.20712 16.483275 
L 27.611538 16.710112 
L 28.015956 16.936949 
L 28.420375 17.163786 
L 28.824793 17.390623 
L 29.245669 17.568157 
L 29.666546 17.745691 
L 30.087422 17.923225 
L 30.508298 18.100759 
L 30.929175 18.278293 
L 31.350051 18.455828 
L 31.770928 18.633362 
L 32.191804 18.810896 
L 32.48607 18.899663 
L 32.780335 18.98843 
L 33.074601 19.077197 
L 33.368867 19.165964 
L 33.663133 19.254731 
L 33.957398 19.343498 
L 34.251664 19.432265 
L 34.54593 19.521032 
L 34.840195 19.609799 
L 35.134461 19.698566 
L 35.428727 19.787333 
L 35.722993 19.8761 
L 36.017258 19.964867 
L 36.311524 20.053634 
L 36.60579 20.142401 
L 36.900055 20.231168 
L 37.222264 20.714468 
L 37.544472 21.197767 
L 37.86668 21.681067 
L 38.188888 22.164366 
L 38.511097 22.647665 
L 38.833305 23.130965 
L 39.155513 23.614264 
L 39.477721 24.097564 
L 39.842713 24.403329 
L 40.207704 24.709094 
L 40.572695 25.014859 
L 40.937687 25.320625 
L 41.302678 25.62639 
L 41.66767 25.932155 
L 42.032661 26.237921 
L 42.397652 26.543686 
L 42.917116 26.777137 
L 43.43658 27.010588 
L 43.956043 27.244038 
L 44.475507 27.477489 
L 44.994971 27.71094 
L 45.514435 27.944391 
L 46.033898 28.177841 
L 46.553362 28.411292 
L 46.760525 28.749908 
L 46.967687 29.088524 
L 47.17485 29.427139 
L 47.382013 29.765755 
L 47.589176 30.104371 
L 47.796338 30.442986 
L 48.003501 30.781602 
L 48.210664 31.120218 
L 48.493445 31.41281 
L 48.776227 31.705402 
L 49.059008 31.997995 
L 49.341789 32.290587 
L 49.624571 32.583179 
L 49.907352 32.875772 
L 50.190134 33.168364 
L 50.472915 33.460956 
" style="fill:none;stroke:#ff0000;stroke-linecap:square;stroke-width:0.51224;"/>
   </g>
   <g id="line2d_16">
    <path clip-path="url(#pa3b4d7c30f)" d="M 23.955761 15.039827 
L 24.293497 15.025506 
L 24.631233 15.011185 
L 24.96897 14.996864 
L 25.306706 14.982544 
L 25.644442 14.968223 
L 25.982179 14.953902 
L 26.319915 14.939581 
L 26.657651 14.92526 
L 26.995428 14.893777 
L 27.333205 14.862293 
L 27.670982 14.830809 
L 28.008758 14.799325 
L 28.346535 14.767841 
L 28.684312 14.736357 
L 29.022089 14.704873 
L 29.359865 14.673389 
L 29.697602 14.656226 
L 30.035338 14.639063 
L 30.373074 14.6219 
L 30.710811 14.604737 
L 31.048547 14.587574 
L 31.386283 14.570411 
L 31.72402 14.553248 
L 32.061756 14.536085 
L 32.39092 14.607634 
L 32.720083 14.679183 
L 33.049247 14.750733 
L 33.37841 14.822282 
L 33.707574 14.893831 
L 34.036737 14.96538 
L 34.365901 15.03693 
L 34.695064 15.108479 
L 35.238912 15.222991 
L 35.78276 15.337502 
L 36.326607 15.452014 
L 36.870455 15.566526 
L 37.414303 15.681037 
L 37.95815 15.795549 
L 38.501998 15.910061 
L 39.045846 16.024572 
L 39.392195 16.150508 
L 39.738545 16.276444 
L 40.084894 16.402379 
L 40.431244 16.528315 
L 40.777594 16.65425 
L 41.123943 16.780186 
L 41.470293 16.906121 
L 41.816642 17.032057 
L 42.125749 17.501472 
L 42.434855 17.970888 
L 42.743961 18.440304 
L 43.053068 18.90972 
L 43.325012 19.273206 
L 43.596956 19.636692 
L 43.8689 20.000177 
L 44.140844 20.363663 
L 44.412788 20.727149 
L 44.684732 21.090635 
L 44.956676 21.45412 
L 45.22862 21.817606 
L 45.417546 22.155347 
L 45.606471 22.493088 
L 45.795396 22.830829 
L 45.984322 23.168571 
L 46.173247 23.506312 
L 46.362172 23.844053 
L 46.551097 24.181794 
L 46.740023 24.519535 
L 46.905979 24.851537 
L 47.071936 25.183539 
L 47.237893 25.515541 
L 47.403849 25.847542 
L 47.652865 26.016386 
L 47.901881 26.185229 
L 48.150897 26.354072 
L 48.399913 26.522915 
L 48.648929 26.691759 
L 48.897944 26.860602 
L 49.14696 27.029445 
L 49.395976 27.198288 
L 49.882604 27.455844 
L 50.369233 27.7134 
L 50.855861 27.970955 
L 51.342489 28.228511 
" style="fill:none;stroke:#000000;stroke-linecap:square;stroke-width:0.51224;"/>
   </g>
   <g id="line2d_17">
    <path clip-path="url(#pa3b4d7c30f)" d="M 78.78486 3.944383 
L 78.443484 4.009155 
L 78.102108 4.073926 
L 77.760733 4.138698 
L 77.419357 4.203469 
L 77.077981 4.268241 
L 76.736605 4.333012 
L 76.39523 4.397784 
L 76.053854 4.462556 
L 75.704997 4.477532 
L 75.35614 4.492509 
L 75.007284 4.507486 
L 74.658427 4.522462 
L 74.30957 4.537439 
L 73.960714 4.552416 
L 73.611857 4.567392 
L 73.263 4.582369 
L 72.924091 4.69699 
L 72.585182 4.811611 
L 72.246273 4.926232 
L 71.907364 5.040853 
L 71.568455 5.155474 
L 71.229546 5.270095 
L 70.890637 5.384716 
L 70.551728 5.499337 
L 70.265186 5.60401 
L 69.978644 5.708683 
L 69.692102 5.813356 
L 69.40556 5.918029 
L 69.119017 6.022702 
L 68.832475 6.127375 
L 68.545933 6.232048 
L 68.259391 6.336721 
L 67.840779 6.496217 
L 67.422167 6.655714 
L 67.003555 6.81521 
L 66.584944 6.974707 
L 66.10155 7.089273 
L 65.618157 7.203839 
L 65.134764 7.318406 
L 64.651371 7.432972 
L 64.292445 7.741908 
L 63.933519 8.050843 
L 64.103034 8.419685 
L 64.27255 8.788528 
L 64.84062 8.91818 
L 65.408689 9.047833 
L 65.857225 9.122497 
L 66.305761 9.197162 
L 66.754297 9.271827 
L 67.202833 9.346492 
L 67.50187 9.408804 
L 67.800908 9.471116 
L 68.099945 9.533428 
L 68.398982 9.595739 
L 68.69802 9.658051 
L 68.997057 9.720363 
L 69.296094 9.782675 
L 69.595132 9.844987 
L 70.143306 10.014431 
L 70.691481 10.183876 
L 70.98053 10.393112 
L 71.269579 10.602349 
L 71.129826 11.001145 
L 70.800986 11.160532 
L 70.472146 11.319919 
L 70.108287 11.369769 
L 69.744428 11.419618 
L 69.380569 11.469468 
L 69.01671 11.519317 
L 68.458669 11.668865 
L 67.900627 11.818414 
L 67.830832 12.202124 
L 67.761036 12.585833 
L 67.69124 12.969543 
L 67.621445 13.353253 
L 67.516792 13.687222 
L 67.412139 14.021192 
L 67.307486 14.355162 
L 67.202833 14.689131 
L 66.853936 15.087708 
L 66.505039 15.486286 
L 66.196094 15.576037 
L 65.887149 15.665787 
L 65.578205 15.755538 
L 65.26926 15.845289 
L 64.850648 15.93996 
L 64.432036 16.03463 
L 64.013424 16.1293 
L 63.594812 16.22397 
L 63.310697 16.388386 
L 63.026581 16.552802 
L 62.742465 16.717218 
L 62.458349 16.881634 
L 62.279129 17.439598 
L 62.677684 17.858508 
L 62.981695 17.933173 
L 63.285706 18.007838 
L 63.589717 18.082503 
L 63.893729 18.157168 
" style="fill:none;stroke:#4169e1;stroke-linecap:square;stroke-width:0.51224;"/>
   </g>
   <g id="line2d_18">
    <path clip-path="url(#pa3b4d7c30f)" d="M 80.50945 5.881079 
L 80.348467 6.285341 
L 80.187485 6.689603 
L 80.026502 7.093864 
L 79.865519 7.498126 
L 79.704536 7.902388 
L 79.543553 8.30665 
L 79.382571 8.710911 
L 79.221588 9.115173 
L 79.281274 9.573657 
L 79.34096 10.032141 
" style="fill:none;stroke:#4169e1;stroke-linecap:square;stroke-width:0.51224;"/>
   </g>
   <g id="line2d_19">
    <path clip-path="url(#pa3b4d7c30f)" d="M 76.919869 5.523387 
L 77.041344 5.796794 
L 77.16282 6.070201 
L 77.284295 6.343608 
L 77.40577 6.617015 
L 77.622759 6.898949 
L 77.839748 7.180882 
L 78.056737 7.462816 
L 78.273726 7.74475 
" style="fill:none;stroke:#008000;stroke-linecap:square;stroke-width:0.51224;"/>
   </g>
   <g id="line2d_20">
    <path clip-path="url(#pa3b4d7c30f)" d="M 75.010883 5.055065 
L 75.136725 5.584278 
L 75.262567 6.113491 
L 75.38841 6.642705 
L 75.514252 7.171918 
L 75.822307 7.471343 
L 76.130362 7.770768 
L 76.438417 8.070193 
L 76.746472 8.369617 
" style="fill:none;stroke:#4169e1;stroke-linecap:square;stroke-width:0.51224;"/>
   </g>
   <g id="line2d_21">
    <path clip-path="url(#pa3b4d7c30f)" d="M 72.080276 5.536506 
L 72.339401 5.965036 
L 72.598527 6.393567 
L 72.997243 6.642814 
L 73.39596 6.892061 
L 73.754724 7.171044 
L 74.113488 7.450026 
L 74.312927 7.699273 
L 74.512366 7.94852 
L 74.851234 8.152838 
L 75.190103 8.357155 
L 75.528972 8.561472 
L 75.86784 8.765789 
" style="fill:none;stroke:#008000;stroke-linecap:square;stroke-width:0.51224;"/>
   </g>
   <g id="line2d_22">
    <path clip-path="url(#pa3b4d7c30f)" d="M 68.133225 6.852269 
L 68.367441 7.076483 
L 68.601657 7.300696 
L 68.835872 7.524909 
L 69.070088 7.749123 
L 69.334227 7.893642 
L 69.598367 8.038162 
L 69.862506 8.182682 
L 70.126646 8.327202 
L 70.510401 8.586397 
L 70.894155 8.845592 
L 71.27791 9.104788 
L 71.661664 9.363983 
L 72.120229 9.702872 
L 72.578793 10.041761 
L 72.857814 10.206177 
L 73.136834 10.370593 
L 73.415855 10.535009 
L 73.694876 10.699424 
" style="fill:none;stroke:#4169e1;stroke-linecap:square;stroke-width:0.51224;"/>
   </g>
   <g id="line2d_23">
    <path clip-path="url(#pa3b4d7c30f)" d="M 72.550325 6.564979 
L 72.270819 6.738578 
L 71.968668 6.74623 
L 71.666517 6.753882 
L 71.319075 6.814226 
L 70.956429 6.867137 
L 70.593783 6.920047 
L 70.250224 7.037018 
L 69.906664 7.15399 
L 69.528976 7.320155 
L 69.151287 7.48632 
" style="fill:none;stroke:#008000;stroke-linecap:square;stroke-width:0.51224;"/>
   </g>
   <g id="line2d_24">
    <path clip-path="url(#pa3b4d7c30f)" d="M 76.155757 9.24417 
L 75.886118 9.517084 
L 75.616479 9.789999 
L 75.34684 10.062914 
L 75.077201 10.335829 
L 74.807562 10.608744 
L 74.537922 10.881659 
L 74.268283 11.154574 
L 73.998644 11.427489 
L 73.738912 11.585291 
L 73.479181 11.743093 
L 73.219449 11.900895 
L 72.959717 12.058697 
L 72.699985 12.216499 
L 72.440253 12.374301 
L 72.180521 12.532103 
L 71.920789 12.689905 
L 71.664333 13.071319 
L 71.407877 13.452733 
L 71.15142 13.834147 
L 70.894964 14.215561 
L 70.615458 14.518047 
L 70.335952 14.820533 
L 70.056446 15.123019 
L 69.77694 15.425504 
L 69.497434 15.72799 
L 69.217928 16.030476 
L 68.938422 16.332961 
L 68.658916 16.635447 
L 68.34334 16.95761 
L 68.027764 17.279773 
L 67.712187 17.601937 
L 67.396611 17.9241 
" style="fill:none;stroke:#000000;stroke-linecap:square;stroke-width:0.51224;"/>
   </g>
   <g id="line2d_25">
    <path clip-path="url(#pa3b4d7c30f)" d="M 78.0311 10.984091 
L 77.846056 11.320192 
L 77.661013 11.656294 
L 77.47597 11.992395 
L 77.290926 12.328496 
L 77.105883 12.664598 
L 76.92084 13.000699 
L 76.735797 13.3368 
L 76.550753 13.672902 
L 76.267487 14.099683 
L 75.98422 14.526465 
L 75.700953 14.953246 
L 75.417687 15.380028 
L 75.13442 15.806809 
L 74.851153 16.23359 
L 74.567887 16.660372 
L 74.28462 17.087153 
L 74.031561 17.532792 
L 73.778501 17.978431 
L 73.525441 18.42407 
L 73.272382 18.869709 
L 73.019322 19.315348 
L 72.766262 19.760987 
L 72.513203 20.206626 
L 72.260143 20.652265 
L 72.109068 20.99979 
L 71.957992 21.347316 
L 71.806917 21.694841 
L 71.655841 22.042366 
" style="fill:none;stroke:#4169e1;stroke-linecap:square;stroke-width:0.51224;"/>
   </g>
   <g id="line2d_26">
    <path clip-path="url(#pa3b4d7c30f)" d="M 74.200186 14.77921 
L 73.796455 15.138105 
L 73.392725 15.496999 
L 72.988994 15.855893 
L 72.585263 16.214788 
L 72.21647 16.473874 
L 71.847678 16.73296 
L 71.478885 16.992046 
L 71.110093 17.251132 
L 70.930711 17.510218 
L 70.751329 17.769304 
L 70.571947 18.02839 
L 70.392565 18.287476 
L 70.113463 18.402152 
L 69.834362 18.516828 
L 69.55526 18.631503 
L 69.276159 18.746179 
" style="fill:none;stroke:#4169e1;stroke-linecap:square;stroke-width:0.51224;"/>
   </g>
   <g id="line2d_27">
    <path clip-path="url(#pa3b4d7c30f)" d="M 74.471281 17.827899 
L 74.429711 18.122459 
L 74.388141 18.417019 
L 74.346571 18.711579 
L 74.305001 19.006139 
L 74.263431 19.3007 
L 74.221861 19.59526 
L 74.180291 19.88982 
L 74.138721 20.18438 
L 73.942355 20.577163 
L 73.745989 20.969946 
L 73.549623 21.36273 
L 73.353257 21.755513 
L 73.205983 22.216293 
L 73.058708 22.677072 
L 72.911434 23.137852 
L 72.76416 23.598632 
L 72.683325 23.898876 
L 72.602489 24.199121 
L 72.521654 24.499366 
L 72.440819 24.79961 
L 72.359984 25.099855 
L 72.279149 25.4001 
L 72.198314 25.700344 
L 72.117479 26.000589 
L 71.982012 26.350191 
L 71.846546 26.699794 
L 71.711079 27.049396 
L 71.575613 27.398998 
L 71.440146 27.7486 
L 71.304679 28.098202 
L 71.169213 28.447805 
L 71.033746 28.797407 
L 70.901353 29.158761 
L 70.76896 29.520115 
L 70.636566 29.881469 
L 70.504173 30.242823 
L 70.37178 30.604177 
L 70.239387 30.965531 
L 70.106993 31.326885 
L 69.9746 31.688239 
L 69.890611 31.991108 
L 69.806621 32.293976 
L 69.722632 32.596844 
L 69.638643 32.899713 
L 69.554654 33.202581 
L 69.470664 33.505449 
L 69.386675 33.808318 
L 69.302686 34.111186 
L 69.160183 34.63548 
L 69.01768 35.159774 
L 68.875178 35.684068 
L 68.732675 36.208362 
L 68.61302 36.633394 
L 68.493364 37.058427 
L 68.373709 37.483459 
L 68.254053 37.908491 
L 68.134398 38.333524 
L 68.014743 38.758556 
L 67.895087 39.183589 
L 67.775432 39.608621 
" style="fill:none;stroke:#000000;stroke-linecap:square;stroke-width:0.51224;"/>
   </g>
   <g id="line2d_28">
    <path clip-path="url(#pa3b4d7c30f)" d="M 83.670714 13.89154 
L 83.493212 14.169128 
L 83.315711 14.446716 
L 83.138209 14.724305 
L 82.960707 15.001893 
L 82.783206 15.279481 
L 82.605704 15.55707 
L 82.428202 15.834658 
L 82.250701 16.112246 
L 82.073199 16.389835 
L 81.895698 16.667423 
L 81.718196 16.945011 
L 81.540694 17.2226 
L 81.363193 17.500188 
L 81.185691 17.777776 
L 81.008189 18.055365 
L 80.830688 18.332953 
L 80.662608 18.682309 
L 80.494529 19.031665 
L 80.326449 19.381022 
L 80.158369 19.730378 
L 79.99029 20.079734 
L 79.82221 20.429091 
L 79.65413 20.778447 
L 79.486051 21.127803 
L 79.317971 21.477159 
L 79.149892 21.826516 
L 78.981812 22.175872 
L 78.813732 22.525228 
L 78.645653 22.874584 
L 78.477573 23.223941 
L 78.309493 23.573297 
L 78.141414 23.922653 
L 77.873271 24.432462 
L 77.605128 24.942272 
L 77.336985 25.452081 
L 77.068842 25.96189 
L 76.800699 26.471699 
L 76.532556 26.981509 
L 76.264413 27.491318 
L 75.99627 28.001127 
" style="fill:none;stroke:#000000;stroke-linecap:square;stroke-width:0.51224;"/>
   </g>
   <g id="line2d_29">
    <path clip-path="url(#pa3b4d7c30f)" d="M 81.420109 15.550128 
L 80.918114 15.506947 
L 80.41612 15.463766 
L 79.914125 15.420585 
L 79.412131 15.377404 
L 78.839693 15.354447 
L 78.267256 15.33149 
L 77.946665 15.136902 
L 77.626075 14.942314 
L 77.334114 15.06825 
L 77.042153 15.194185 
L 76.750192 15.320121 
L 76.458232 15.446056 
L 76.360857 15.812384 
L 76.263483 16.178712 
L 76.166109 16.54504 
L 76.068735 16.911368 
L 75.954296 17.352143 
L 75.839857 17.792917 
L 75.725418 18.233691 
L 75.610979 18.674466 
L 75.416312 19.184002 
L 75.221644 19.693537 
L 75.026977 20.203073 
L 74.832309 20.712609 
L 74.866682 21.130427 
L 74.901054 21.548244 
L 74.935426 21.966061 
L 74.969798 22.383879 
L 75.089979 22.721674 
L 75.21016 23.05947 
L 75.330341 23.397266 
L 75.450522 23.735062 
L 75.58793 24.038422 
L 75.725337 24.341782 
L 75.862745 24.645143 
L 76.000153 24.948503 
L 76.286452 25.257657 
L 76.572751 25.566811 
" style="fill:none;stroke:#000000;stroke-linecap:square;stroke-width:0.51224;"/>
   </g>
   <g id="line2d_30">
    <path clip-path="url(#pa3b4d7c30f)" d="M 88.477634 14.309138 
L 88.234683 14.737724 
L 87.991733 15.166309 
L 87.748783 15.594894 
L 87.505833 16.023479 
L 87.262883 16.452065 
L 87.019932 16.88065 
L 86.776982 17.309235 
L 86.534032 17.73782 
L 86.291082 18.166405 
L 86.048132 18.594991 
L 85.805182 19.023576 
L 85.562231 19.452161 
L 85.319281 19.880746 
L 85.076331 20.309332 
L 84.833381 20.737917 
L 84.590431 21.166502 
" style="fill:none;stroke:#000000;stroke-linecap:square;stroke-width:0.51224;"/>
   </g>
   <g id="line2d_31">
    <path clip-path="url(#pa3b4d7c30f)" d="M 81.28909 5.32224 
L 81.506646 5.614122 
L 81.724201 5.906004 
L 81.941756 6.197886 
L 82.159311 6.489767 
L 82.308122 6.94202 
L 82.456934 7.394273 
L 82.605745 7.846526 
L 82.754556 8.298779 
L 82.874818 8.831162 
L 82.995079 9.363546 
L 83.115341 9.89593 
L 83.235603 10.428313 
L 83.401641 10.914892 
L 83.567678 11.401471 
L 83.733716 11.88805 
L 83.899753 12.374629 
L 84.014192 12.66662 
L 84.128631 12.958611 
L 84.24307 13.250602 
L 84.357509 13.542593 
L 84.826911 13.725812 
L 85.296313 13.909031 
L 85.868912 14.034966 
L 86.44151 14.160902 
L 86.973914 14.143739 
L 87.506318 14.126576 
L 88.038722 14.109413 
L 88.571126 14.092249 
L 88.891716 14.366859 
L 89.212307 14.641468 
L 89.527156 14.927775 
L 89.842004 15.214081 
L 90.156853 15.500388 
L 90.471701 15.786694 
L 90.563252 16.090055 
L 90.654804 16.393415 
L 90.746355 16.696775 
L 90.837906 17.000135 
L 90.683353 17.383681 
L 90.528799 17.767227 
L 90.374246 18.150773 
L 90.219693 18.534319 
L 90.06514 18.917864 
L 89.910587 19.30141 
L 89.756033 19.684956 
L 89.60148 20.068502 
L 89.538519 20.426248 
L 89.475557 20.783995 
L 89.412595 21.141741 
L 89.349634 21.499488 
L 89.286672 21.857234 
L 89.223711 22.214981 
L 89.160749 22.572727 
L 89.097787 22.930474 
L 88.951807 23.402732 
L 88.805827 23.87499 
L 88.659846 24.347248 
L 88.513866 24.819506 
L 88.367885 25.291765 
L 88.221905 25.764023 
L 88.075925 26.236281 
L 87.929944 26.708539 
L 87.806892 27.098589 
L 87.68384 27.48864 
L 87.560788 27.87869 
L 87.437736 28.26874 
L 87.314683 28.65879 
L 87.191631 29.048841 
L 87.068579 29.438891 
L 86.945527 29.828941 
" style="fill:none;stroke:#000000;stroke-linecap:square;stroke-width:0.51224;"/>
   </g>
   <g id="line2d_32">
    <path clip-path="url(#pa3b4d7c30f)" d="M 76.347917 17.594394 
L 76.537813 17.740444 
L 76.835597 17.969358 
L 77.133381 18.198272 
L 77.34487 18.417347 
L 77.55636 18.636423 
L 77.76785 18.855498 
L 77.979339 19.074573 
L 78.341904 19.286105 
L 78.704469 19.497638 
L 79.067035 19.70917 
L 79.4296 19.920702 
L 79.76952 20.071781 
L 80.10944 20.22286 
L 80.44936 20.373939 
L 80.78928 20.525018 
L 81.072546 20.619415 
L 81.355813 20.713812 
L 81.639079 20.808209 
L 81.922346 20.902606 
L 82.205613 20.997003 
L 82.488879 21.0914 
L 82.772146 21.185797 
L 83.055413 21.280194 
L 83.292297 21.749063 
L 83.529182 22.217932 
L 83.766066 22.686802 
L 84.002951 23.155671 
L 84.371662 23.401857 
L 84.740374 23.648044 
L 85.109086 23.89423 
L 85.477797 24.140417 
L 85.964426 24.455255 
L 86.451054 24.770094 
L 86.937682 25.084933 
L 87.42431 25.399772 
" style="fill:none;stroke:#008000;stroke-linecap:square;stroke-width:0.51224;"/>
   </g>
   <g id="line2d_33">
    <path clip-path="url(#pa3b4d7c30f)" d="M 67.735965 18.241125 
L 68.102493 18.458888 
L 68.469021 18.676652 
L 68.75807 18.995645 
L 69.047119 19.314638 
L 69.336168 19.633631 
L 69.625218 19.952624 
L 69.834524 20.356229 
L 70.043829 20.759835 
L 70.253135 21.163441 
L 70.462441 21.567047 
L 70.736529 21.866034 
L 71.010616 22.165022 
L 71.284703 22.464009 
L 71.55879 22.762997 
L 71.852773 23.106915 
L 72.146756 23.450832 
L 72.440738 23.79475 
L 72.734721 24.138668 
L 73.033799 24.522377 
L 73.332877 24.906087 
L 73.631954 25.289797 
L 73.931032 25.673507 
L 74.190158 26.067164 
L 74.449283 26.460822 
L 74.708408 26.85448 
L 74.967533 27.248138 
L 75.191801 27.686616 
L 75.416069 28.125095 
L 75.640337 28.563574 
L 75.864605 29.002052 
L 76.113864 29.301149 
L 76.363122 29.600246 
L 76.45904 29.944491 
L 76.554959 30.288737 
L 76.650877 30.632983 
L 76.746796 30.977228 
L 76.958285 31.362468 
L 77.169775 31.747709 
L 77.381264 32.132949 
L 77.592754 32.518189 
L 77.796722 32.918515 
L 78.00069 33.318842 
L 78.204658 33.719168 
L 78.408627 34.119494 
L 78.514412 34.406457 
L 78.620197 34.693419 
L 78.725982 34.980381 
L 78.831768 35.267344 
L 78.990364 35.592131 
L 79.148961 35.916918 
L 79.307558 36.241704 
L 79.466155 36.566491 
L 79.828721 36.800653 
L 80.191286 37.034814 
L 80.553851 37.268975 
L 80.916416 37.503137 
" style="fill:none;stroke:#008000;stroke-linecap:square;stroke-width:0.51224;"/>
   </g>
   <g id="line2d_34">
    <path clip-path="url(#pa3b4d7c30f)" d="M 66.678436 18.150172 
L 64.850648 18.40729 
L 64.503207 18.513111 
L 63.596753 19.5101 
L 60.688388 20.522066 
L 58.848954 21.39077 
L 53.958085 24.842463 
L 52.688905 25.884711 
L 52.87039 26.8817 
L 56.677486 30.945471 
L 57.946464 32.954591 
L 58.611099 36.776384 
L 58.845234 38.211469 
L 58.2787 42.98483 
L 58.822508 45.582687 
L 60.242682 47.878824 
L 62.47873 49.781849 
L 62.508815 53.739635 
L 61.247399 58.799575 
L 60.454253 60.929328 
L 60.454253 60.929328 
" style="fill:none;stroke:#008000;stroke-linecap:square;stroke-width:0.51224;"/>
   </g>
   <g id="line2d_35">
    <path clip-path="url(#pa3b4d7c30f)" d="M 52.431398 27.954776 
L 52.344618 28.3539 
L 52.257839 28.753023 
L 52.171059 29.152147 
L 52.08428 29.551271 
L 52.010521 29.841896 
L 51.936763 30.13252 
L 51.863004 30.423145 
L 51.789246 30.713769 
L 51.715487 31.004394 
L 51.641729 31.295019 
L 51.56797 31.585643 
L 51.494212 31.876268 
L 51.416126 32.175583 
L 51.338041 32.474899 
L 51.259956 32.774214 
L 51.18187 33.07353 
L 51.103785 33.372845 
L 51.025699 33.672161 
L 50.947614 33.971476 
L 50.869529 34.270792 
L 50.782749 34.791369 
L 50.69597 35.311946 
L 50.60919 35.832523 
L 50.522411 36.3531 
L 50.539799 36.84766 
L 50.557187 37.342219 
L 50.574576 37.836778 
L 50.591964 38.331337 
L 50.583229 38.851915 
L 50.574495 39.372492 
L 50.56576 39.893069 
L 50.557026 40.413646 
L 50.530984 40.977514 
L 50.504942 41.541381 
L 50.4789 42.105249 
L 50.452858 42.669116 
L 50.357425 43.033477 
L 50.261992 43.397837 
L 50.166558 43.762197 
L 50.071125 44.126557 
L 49.75013 44.517045 
L 49.429135 44.907533 
L 49.10814 45.29802 
L 48.787145 45.688508 
" style="fill:none;stroke:#008000;stroke-linecap:square;stroke-width:0.51224;"/>
   </g>
   <g id="line2d_36">
    <path clip-path="url(#pa3b4d7c30f)" d="M 51.023839 36.169444 
L 51.310867 36.365891 
L 51.597894 36.562337 
L 51.884921 36.758783 
L 52.171949 36.95523 
L 52.564761 37.272364 
L 52.957574 37.589499 
L 53.350386 37.906633 
L 53.743199 38.223768 
L 53.924522 38.646723 
L 54.105845 39.069678 
L 54.287168 39.492633 
L 54.468491 39.915589 
L 54.55155 40.2782 
L 54.634609 40.640811 
L 54.717669 41.003422 
L 54.800728 41.366033 
L 54.77048 41.86431 
L 54.740233 42.362586 
" style="fill:none;stroke:#008000;stroke-linecap:square;stroke-width:0.51224;"/>
   </g>
   <g id="line2d_37">
    <path clip-path="url(#pa3b4d7c30f)" d="M 53.289972 43.782858 
L 53.093607 44.198161 
L 52.897241 44.613464 
L 52.700875 45.028767 
L 52.504509 45.44407 
L 52.12682 45.791595 
L 51.749131 46.139121 
L 51.371442 46.486646 
L 50.993754 46.834171 
L 50.495075 47.13611 
L 49.996396 47.438049 
L 49.686724 47.385248 
L 49.377051 47.332447 
L 49.067379 47.279646 
L 48.757706 47.226845 
" style="fill:none;stroke:#008000;stroke-linecap:square;stroke-width:0.51224;"/>
   </g>
   <g id="line2d_38">
    <path clip-path="url(#pa3b4d7c30f)" d="M 61.925217 20.451556 
L 61.68348 20.700803 
L 61.441743 20.95005 
L 61.200006 21.199298 
L 60.958269 21.448545 
L 60.686285 21.765789 
L 60.4143 22.083033 
L 60.142316 22.400276 
L 59.870331 22.71752 
L 59.613551 23.185734 
L 59.356772 23.653947 
L 59.099992 24.12216 
L 58.843212 24.590374 
L 58.880981 24.968071 
L 58.918749 25.345768 
L 58.956518 25.723465 
L 58.994287 26.101163 
L 59.039578 26.425949 
L 59.084868 26.750736 
L 59.130158 27.075523 
L 59.175449 27.40031 
L 59.141481 27.698641 
L 59.107513 27.996973 
L 59.073545 28.295305 
L 59.039578 28.593636 
L 59.00561 28.891968 
L 58.971642 29.1903 
L 58.937674 29.488631 
L 58.903707 29.786963 
L 58.911228 30.247742 
L 58.918749 30.708522 
L 58.926271 31.169302 
L 58.933792 31.630081 
L 58.631641 31.947325 
L 58.32949 32.264569 
L 58.219944 32.619528 
L 58.110398 32.974487 
L 58.000852 33.329446 
L 57.891306 33.684404 
L 57.78176 34.039363 
L 57.672215 34.394322 
L 57.562669 34.749281 
L 57.453123 35.10424 
L 57.181219 35.474394 
L 56.909315 35.844548 
L 56.637412 36.214703 
L 56.365508 36.584857 
L 56.101126 37.05307 
L 55.836744 37.521284 
L 55.572362 37.989497 
L 55.307979 38.45771 
L 55.202194 38.820321 
L 55.096409 39.182933 
L 54.990624 39.545544 
L 54.884838 39.908155 
" style="fill:none;stroke:#008000;stroke-linecap:square;stroke-width:0.51224;"/>
   </g>
   <g id="line2d_39">
    <path clip-path="url(#pa3b4d7c30f)" d="M 66.594972 18.646917 
L 66.330913 18.861182 
L 66.066855 19.075448 
L 65.802796 19.289713 
L 65.538737 19.503978 
L 65.366796 19.745683 
L 65.194855 19.987387 
L 65.022913 20.229091 
L 64.850972 20.470796 
L 64.67903 20.7125 
L 64.507089 20.954204 
L 64.335147 21.195909 
L 64.163206 21.437613 
L 63.941405 21.699268 
L 63.719603 21.960923 
L 63.497802 22.222578 
L 63.276001 22.484233 
L 63.0542 22.745889 
L 62.832399 23.007544 
L 62.610597 23.269199 
L 62.388796 23.530854 
L 62.22939 23.954356 
L 62.069985 24.377858 
L 61.910579 24.801359 
L 61.751173 25.224861 
L 61.781016 25.723247 
L 61.810859 26.221632 
L 61.840703 26.720018 
L 61.870546 27.218403 
L 61.750931 27.582107 
L 61.631316 27.945812 
L 61.511701 28.309516 
L 61.392086 28.673221 
L 61.496739 29.076936 
L 61.601392 29.480651 
L 61.706045 29.884366 
L 61.810698 30.288081 
L 61.730954 30.641837 
L 61.651211 30.995594 
L 61.571468 31.34935 
L 61.491724 31.703107 
L 61.37215 31.99712 
L 61.252575 32.291134 
L 61.133001 32.585147 
L 61.013426 32.879161 
L 60.893852 33.173174 
L 60.774277 33.467188 
L 60.654703 33.761201 
L 60.535128 34.055215 
L 60.440423 34.488665 
L 60.345718 34.922114 
L 60.251013 35.355564 
L 60.156307 35.789014 
L 59.927025 36.217654 
L 59.697743 36.646294 
L 59.468461 37.074934 
L 59.239178 37.503574 
" style="fill:none;stroke:#4169e1;stroke-linecap:square;stroke-width:0.51224;"/>
   </g>
   <g id="line2d_40">
    <path clip-path="url(#pa3b4d7c30f)" d="M 68.941657 20.047512 
L 68.813065 20.433409 
L 68.684473 20.819305 
L 68.555881 21.205201 
L 68.427289 21.591097 
L 68.421385 21.90681 
L 68.415481 22.222524 
L 68.409577 22.538237 
L 68.403673 22.85395 
L 68.204881 23.380212 
L 68.006089 23.906474 
L 67.807297 24.134513 
L 67.608505 24.362553 
L 67.409713 24.590592 
L 67.21092 24.818632 
L 66.824982 25.122757 
L 66.439044 25.426883 
L 66.345471 25.713408 
L 66.251898 25.999933 
L 66.158325 26.286458 
L 66.064752 26.572984 
L 65.865879 26.964674 
L 65.667006 27.356364 
L 65.468133 27.748054 
L 65.26926 28.139744 
L 65.023722 28.478851 
L 64.778184 28.817959 
L 64.602684 29.297432 
L 64.427184 29.776905 
L 64.298592 30.045939 
L 64.169999 30.314974 
L 64.041407 30.584008 
L 63.912815 30.853042 
L 63.830888 31.180452 
L 63.748961 31.507863 
L 63.667034 31.835273 
L 63.585107 32.162684 
L 63.538361 32.71234 
L 63.491615 33.261996 
L 63.579365 33.595309 
L 63.667115 33.928623 
L 63.754865 34.261937 
L 63.842615 34.595251 
L 63.678923 35.121294 
L 63.515231 35.647337 
L 63.187685 35.974857 
L 62.860139 36.302376 
L 62.532593 36.629896 
L 62.205047 36.957416 
L 62.035532 37.273129 
L 61.866017 37.588843 
L 61.696501 37.904556 
L 61.526986 38.220269 
L 61.246267 38.682142 
L 60.965548 39.144015 
L 60.684829 39.605888 
L 60.40411 40.067761 
L 60.322264 40.36008 
L 60.240418 40.652399 
L 60.158572 40.944718 
L 60.076726 41.237037 
L 60.076726 41.751711 
L 60.076726 42.266385 
L 60.246322 42.634681 
L 60.415918 43.002977 
L 60.585514 43.371272 
L 60.75511 43.739568 
L 60.983098 44.213138 
L 61.211086 44.686708 
L 61.439074 45.160278 
L 61.667063 45.633848 
L 61.825013 46.037345 
L 61.982963 46.440841 
L 62.140913 46.844338 
L 62.298863 47.247834 
L 62.310509 47.545947 
L 62.322155 47.84406 
L 62.333801 48.142173 
L 62.345447 48.440286 
L 62.54432 48.972342 
L 62.743193 49.504397 
L 62.942066 50.036453 
L 63.140939 50.568509 
L 63.374831 50.767469 
L 63.608723 50.96643 
" style="fill:none;stroke:#4169e1;stroke-linecap:square;stroke-width:0.51224;"/>
   </g>
   <g id="line2d_41">
    <path clip-path="url(#pa3b4d7c30f)" d="M 71.117533 23.446022 
L 70.918701 23.960587 
L 70.719868 24.475151 
L 70.521036 24.989716 
L 70.322203 25.504281 
L 70.123371 26.018845 
L 69.924538 26.53341 
L 69.725705 27.047975 
L 69.526873 27.562539 
L 69.304667 27.913399 
L 69.082462 28.264258 
L 68.860256 28.615117 
L 68.638051 28.965977 
L 68.415845 29.316836 
L 68.193639 29.667696 
L 67.971434 30.018555 
L 67.749228 30.369414 
L 67.772601 30.667582 
L 67.795974 30.96575 
L 67.819347 31.263917 
L 67.84272 31.562085 
L 67.866093 31.860253 
L 67.889466 32.15842 
L 67.912839 32.456588 
L 67.936212 32.754756 
L 67.801716 33.082221 
L 67.66722 33.409686 
L 67.532724 33.737151 
L 67.398228 34.064616 
L 67.263732 34.392081 
L 67.129236 34.719546 
L 66.99474 35.047011 
L 66.860244 35.374477 
L 66.649725 35.877235 
L 66.439206 36.379993 
L 66.228687 36.882751 
L 66.018168 37.385509 
L 65.953872 37.783103 
L 65.889576 38.180696 
L 65.825279 38.578289 
L 65.760983 38.975882 
L 65.696687 39.373476 
L 65.632391 39.771069 
L 65.568095 40.168662 
L 65.503799 40.566256 
L 65.556409 40.940455 
L 65.609018 41.314654 
L 65.661628 41.688853 
L 65.714237 42.063052 
L 65.766847 42.437251 
L 65.819456 42.81145 
L 65.872066 43.185649 
L 65.924676 43.559848 
L 65.842829 44.015927 
L 65.760983 44.472006 
L 65.679137 44.928084 
L 65.597291 45.384163 
L 65.515445 45.840242 
L 65.433599 46.296321 
L 65.351753 46.7524 
L 65.269907 47.208479 
L 65.147097 47.658655 
L 65.024288 48.108831 
L 64.901478 48.559006 
L 64.778669 49.009182 
L 64.655859 49.459358 
L 64.53305 49.909534 
L 64.41024 50.359709 
L 64.287431 50.809885 
L 64.132069 51.090616 
L 63.976707 51.371348 
L 63.821345 51.652079 
L 63.665983 51.93281 
L 63.510621 52.213541 
L 63.355259 52.494273 
L 63.199897 52.775004 
L 63.044535 53.055735 
" style="fill:none;stroke:#ff0000;stroke-linecap:square;stroke-width:0.51224;"/>
   </g>
   <g id="line2d_42">
    <path clip-path="url(#pa3b4d7c30f)" d="M 65.157975 41.320119 
L 64.767993 41.656931 
L 64.378011 41.993743 
L 63.988029 42.330555 
L 63.598048 42.667367 
L 63.199169 42.942086 
L 62.800291 43.216805 
L 62.401413 43.491523 
L 62.002535 43.766242 
L 61.860679 44.227131 
L 61.718823 44.68802 
" style="fill:none;stroke:#008000;stroke-linecap:square;stroke-width:0.51224;"/>
   </g>
   <g id="line2d_43">
    <path clip-path="url(#pa3b4d7c30f)" d="M 75.412996 28.908475 
L 75.265277 29.187129 
L 75.117558 29.465783 
L 74.969838 29.744438 
L 74.822119 30.023092 
L 74.6744 30.301746 
L 74.526681 30.5804 
L 74.378962 30.859054 
L 74.231242 31.137709 
L 74.211104 31.721691 
L 74.190966 32.305673 
L 74.170828 32.889655 
L 74.15069 33.473637 
L 74.076851 34.010722 
L 74.003011 34.547806 
L 73.929172 35.08489 
L 73.855333 35.621975 
L 73.539756 35.924133 
L 73.22418 36.22629 
L 72.908603 36.528448 
L 72.593027 36.830606 
L 72.39836 37.226669 
L 72.203692 37.622732 
L 72.009025 38.018794 
L 71.814357 38.414857 
L 71.673351 38.763913 
L 71.532344 39.112968 
L 71.391338 39.462024 
L 71.250331 39.81108 
L 71.109324 40.160135 
L 70.968318 40.509191 
L 70.827311 40.858247 
L 70.686305 41.207302 
L 70.508379 41.613477 
L 70.330452 42.019652 
L 70.152526 42.425827 
L 69.9746 42.832002 
L 69.796674 43.238176 
L 69.618748 43.644351 
L 69.440821 44.050526 
L 69.262895 44.456701 
L 69.007733 44.953446 
L 68.75257 45.450192 
L 68.497408 45.946938 
L 68.242246 46.443683 
L 67.832692 46.806185 
L 67.423138 47.168687 
L 67.013584 47.531189 
L 66.60403 47.893691 
L 66.322017 48.182402 
L 66.040004 48.471114 
L 65.757991 48.759826 
L 65.475978 49.048537 
" style="fill:none;stroke:#000000;stroke-linecap:square;stroke-width:0.51224;"/>
   </g>
   <g id="line2d_44">
    <path clip-path="url(#pa3b4d7c30f)" d="M 83.532578 23.50418 
L 83.320503 23.888819 
L 83.108427 24.273458 
L 82.896351 24.658097 
L 82.684275 25.042736 
L 82.472199 25.427375 
L 82.260123 25.812014 
L 82.048047 26.196653 
L 81.835971 26.581292 
L 81.623895 26.965931 
L 81.411819 27.35057 
L 81.199743 27.735209 
L 80.987667 28.119848 
L 80.775591 28.504487 
L 80.563515 28.889126 
L 80.351439 29.273765 
L 80.139364 29.658404 
L 79.92565 30.079227 
L 79.711936 30.500051 
L 79.498223 30.920874 
L 79.284509 31.341698 
L 79.070795 31.762521 
L 78.857082 32.183345 
L 78.643368 32.604169 
L 78.429654 33.024992 
L 78.18634 33.468827 
L 77.943026 33.912663 
L 77.699712 34.356498 
L 77.456398 34.800333 
L 77.213084 35.244168 
L 76.96977 35.688004 
L 76.726455 36.131839 
L 76.483141 36.575674 
L 76.243123 37.034295 
L 76.003104 37.492915 
L 75.763086 37.951536 
L 75.523068 38.410156 
L 75.283049 38.868777 
L 75.043031 39.327398 
L 74.803012 39.786018 
L 74.562994 40.244639 
L 74.322975 40.70326 
L 74.082957 41.16188 
L 73.842939 41.620501 
L 73.60292 42.079121 
L 73.362902 42.537742 
L 73.122883 42.996363 
L 72.882865 43.454983 
L 72.642846 43.913604 
L 72.460371 44.265365 
L 72.277895 44.617127 
L 72.09542 44.968888 
L 71.912944 45.320649 
L 71.730469 45.67241 
L 71.547994 46.024172 
L 71.365518 46.375933 
L 71.183043 46.727694 
L 71.000567 47.079455 
L 70.818092 47.431217 
L 70.635616 47.782978 
L 70.453141 48.134739 
L 70.270665 48.486501 
L 70.08819 48.838262 
L 69.905714 49.190023 
L 69.723239 49.541784 
L 69.191725 49.771464 
L 68.66021 50.001143 
L 68.128696 50.230822 
L 67.597182 50.460502 
L 67.180673 50.811853 
L 66.764164 51.163204 
L 66.347655 51.514556 
L 65.931146 51.865907 
L 65.549332 51.87028 
L 65.167519 51.874652 
L 64.785705 51.879025 
L 64.403892 51.883398 
" style="fill:none;stroke:#000000;stroke-linecap:square;stroke-width:0.51224;"/>
   </g>
   <g id="line2d_45">
    <path clip-path="url(#pa3b4d7c30f)" d="M 88.523571 31.012648 
L 88.050125 30.946838 
L 87.57668 30.881028 
L 87.116336 31.091576 
L 86.655992 31.302124 
L 86.274664 31.722893 
L 85.893336 32.143662 
L 85.512008 32.564431 
L 85.130679 32.9852 
L 84.818298 33.412583 
L 84.505916 33.839965 
L 84.193534 34.267348 
L 83.881152 34.694731 
L 83.56877 35.122114 
L 83.256388 35.549496 
L 82.944007 35.976879 
L 82.631625 36.404262 
L 82.380102 36.695214 
L 82.128579 36.986167 
L 81.877056 37.277119 
L 81.625533 37.568072 
L 81.37401 37.859025 
L 81.122487 38.149977 
L 80.870964 38.44093 
L 80.619441 38.731882 
L 80.367918 39.022835 
L 80.116395 39.313787 
L 79.864872 39.60474 
L 79.613349 39.895693 
L 79.361826 40.186645 
L 79.110303 40.477598 
L 78.85878 40.76855 
L 78.607257 41.059503 
L 78.370514 41.291259 
L 78.133771 41.523016 
L 77.897028 41.754772 
L 77.660285 41.986528 
L 77.423542 42.218285 
L 77.186799 42.450041 
L 76.950056 42.681797 
L 76.713313 42.913554 
L 76.47657 43.14531 
L 76.239827 43.377066 
L 76.003084 43.608823 
L 75.766341 43.840579 
L 75.529598 44.072335 
L 75.292855 44.304092 
L 75.056112 44.535848 
L 74.819369 44.767604 
L 74.595789 44.973069 
L 74.372208 45.178534 
L 74.148628 45.383999 
L 73.925047 45.589465 
L 73.701467 45.79493 
L 73.477886 46.000395 
L 73.254306 46.20586 
L 73.030726 46.411325 
L 72.807145 46.61679 
L 72.583565 46.822255 
L 72.359984 47.02772 
L 72.136404 47.233185 
L 71.912823 47.43865 
L 71.689243 47.644116 
L 71.465662 47.849581 
L 71.242082 48.055046 
L 71.103987 48.318067 
L 70.965892 48.581089 
L 70.827797 48.84411 
L 70.689702 49.107132 
L 70.551607 49.370154 
L 70.413512 49.633175 
L 70.275417 49.896197 
L 70.137322 50.159218 
L 70.025552 50.45837 
L 69.913782 50.757521 
L 69.802012 51.056673 
L 69.690242 51.355824 
L 69.578471 51.654976 
L 69.466701 51.954127 
L 69.354931 52.253279 
L 69.243161 52.55243 
" style="fill:none;stroke:#4169e1;stroke-linecap:square;stroke-width:0.51224;"/>
   </g>
   <g id="line2d_46">
    <path clip-path="url(#pa3b4d7c30f)" d="M 86.135477 31.192368 
L 85.83648 31.426639 
L 85.537484 31.660909 
L 85.238487 31.89518 
L 84.93949 32.129451 
L 84.620516 32.174272 
L 84.301543 32.219092 
L 83.98257 32.263913 
L 83.663597 32.308734 
L 83.359586 32.214064 
L 83.055574 32.119393 
L 82.751563 32.024723 
L 82.447552 31.930053 
L 82.083774 31.855279 
L 81.719995 31.780504 
L 81.356217 31.70573 
L 80.992439 31.630956 
L 80.693442 31.571158 
L 80.394445 31.511361 
L 80.095448 31.451563 
L 79.796451 31.391766 
" style="fill:none;stroke:#008000;stroke-linecap:square;stroke-width:0.51224;"/>
   </g>
   <g id="line2d_47">
    <path clip-path="url(#pa3b4d7c30f)" d="M 87.884654 33.061723 
L 87.64918 33.332671 
L 87.413705 33.603618 
L 87.178231 33.874565 
L 86.942757 34.145512 
L 86.707283 34.416459 
L 86.471808 34.687407 
L 86.236334 34.958354 
L 86.00086 35.229301 
L 85.765386 35.500248 
L 85.529912 35.771195 
L 85.294437 36.042142 
L 85.058963 36.31309 
L 84.823489 36.584037 
L 84.588015 36.854984 
L 84.35254 37.125931 
L 84.117066 37.396878 
L 83.881592 37.667826 
L 83.646118 37.938773 
L 83.410643 38.20972 
L 83.175169 38.480667 
L 82.939695 38.751614 
L 82.704221 39.022562 
L 82.468746 39.293509 
L 82.233272 39.564456 
L 81.997798 39.835403 
L 81.762324 40.10635 
L 81.526849 40.377298 
L 81.291375 40.648245 
L 81.055901 40.919192 
L 80.820427 41.190139 
L 80.584952 41.461086 
L 80.349478 41.732034 
L 80.114004 42.002981 
L 79.87853 42.273928 
L 79.643056 42.544875 
L 79.407581 42.815822 
L 79.172107 43.08677 
L 78.936633 43.357717 
L 78.701159 43.628664 
L 78.465684 43.899611 
L 78.23021 44.170558 
L 77.994736 44.441506 
L 77.759262 44.712453 
L 77.523787 44.9834 
L 77.288313 45.254347 
L 77.052839 45.525294 
L 76.817365 45.796241 
L 76.58189 46.067189 
L 76.346416 46.338136 
L 76.110942 46.609083 
L 75.875468 46.88003 
L 75.639993 47.150977 
L 75.404519 47.421925 
L 75.169045 47.692872 
L 74.933571 47.963819 
L 74.698096 48.234766 
L 74.462622 48.505713 
L 74.227148 48.776661 
L 73.991674 49.047608 
L 73.7562 49.318555 
L 73.520725 49.589502 
L 73.285251 49.860449 
L 73.049777 50.131397 
L 72.814303 50.402344 
" style="fill:none;stroke:#4169e1;stroke-linecap:square;stroke-width:0.51224;"/>
   </g>
   <g id="line2d_48">
    <path clip-path="url(#pa3b4d7c30f)" d="M 88.283532 32.742949 
L 88.567244 33.042483 
L 88.850955 33.342017 
L 88.83106 33.66101 
L 88.811164 33.980003 
L 88.537077 34.169344 
L 88.26299 34.358684 
L 87.988903 34.548025 
L 87.714815 34.737365 
L 87.445702 35.006454 
L 87.176588 35.275543 
L 86.907475 35.544632 
L 86.638362 35.81372 
L 86.369248 36.082809 
L 86.100135 36.351898 
L 85.831021 36.620987 
L 85.561908 36.890075 
L 85.31273 37.238858 
L 85.063553 37.58764 
L 84.814375 37.936422 
L 84.565198 38.285205 
L 84.31602 38.633987 
L 84.066842 38.98277 
L 83.817665 39.331552 
L 83.568487 39.680334 
L 83.473782 40.069073 
L 83.379077 40.457811 
L 83.284371 40.846549 
L 83.189666 41.235288 
L 83.042634 41.56166 
L 82.895603 41.888032 
L 82.748571 42.214404 
L 82.601539 42.540776 
L 82.454507 42.867148 
L 82.307475 43.19352 
L 82.160444 43.519892 
L 82.013412 43.846263 
L 81.644619 44.045443 
L 81.275827 44.244622 
L 80.936958 44.15498 
L 80.59809 44.065339 
L 80.239326 44.329454 
L 79.880562 44.593568 
L 79.521798 44.857683 
L 79.163034 45.121798 
L 78.871477 45.483042 
L 78.579921 45.844287 
L 78.288365 46.205532 
L 77.996808 46.566777 
L 77.705252 46.928021 
L 77.413696 47.289266 
L 77.122139 47.650511 
L 76.830583 48.011755 
L 76.586379 48.229765 
L 76.342175 48.447774 
L 76.097971 48.665784 
L 75.853768 48.883793 
L 75.609564 49.101803 
L 75.36536 49.319812 
L 75.121157 49.537822 
L 74.876953 49.755831 
L 74.632749 49.973841 
L 74.388545 50.19185 
L 74.144342 50.409859 
L 73.900138 50.627869 
L 73.655934 50.845878 
L 73.41173 51.063888 
L 73.167527 51.281897 
L 72.923323 51.499907 
L 72.651702 51.741556 
L 72.380082 51.983206 
L 72.108461 52.224856 
L 71.836841 52.466506 
L 71.56522 52.708155 
L 71.293599 52.949805 
L 71.021979 53.191455 
L 70.750358 53.433104 
L 70.355686 53.662073 
L 69.961013 53.891042 
L 69.56634 54.12001 
L 69.171667 54.348979 
L 68.776995 54.577948 
L 68.382322 54.806916 
L 67.987649 55.035885 
L 67.592977 55.264854 
L 67.362805 55.481852 
L 67.132633 55.69885 
L 66.902461 55.915849 
L 66.672289 56.132847 
L 66.442117 56.349845 
L 66.211946 56.566843 
L 65.981774 56.783842 
L 65.751602 57.00084 
L 65.554306 57.260527 
L 65.35701 57.520215 
L 65.159714 57.779902 
L 64.962418 58.039589 
L 64.765122 58.299277 
L 64.567826 58.558964 
L 64.37053 58.818651 
L 64.173234 59.078339 
L 63.818191 59.347919 
L 63.463147 59.6175 
L 63.108103 59.887081 
L 62.75306 60.156661 
L 62.371651 60.51173 
L 61.990241 60.866798 
" style="fill:none;stroke:#4169e1;stroke-linecap:square;stroke-width:0.51224;"/>
   </g>
   <g id="line2d_49">
    <path clip-path="url(#pa3b4d7c30f)" d="M 89.5054 33.369128 
L 89.774554 33.867623 
L 90.043708 34.366118 
L 90.233118 34.734742 
L 90.422529 35.103365 
L 90.302833 35.452312 
L 90.183137 35.801258 
L 89.744792 36.179939 
L 89.455743 36.299534 
L 89.166693 36.419129 
L 88.642943 36.645638 
L 88.274151 36.92462 
L 87.905358 37.203602 
L 87.7559 37.522595 
L 87.606442 37.841588 
L 87.42706 38.160581 
L 87.247678 38.479574 
L 86.868857 38.918162 
L 86.51996 39.157352 
L 86.171063 39.396542 
L 85.872147 39.854807 
L 85.95189 40.333187 
L 86.031633 40.811567 
L 86.131272 41.100607 
L 86.230911 41.389646 
L 86.151329 41.927496 
L 85.911937 42.226593 
L 85.513383 42.306177 
L 85.204438 42.356027 
L 84.895493 42.405876 
L 84.676159 42.744765 
L 84.745874 43.123446 
L 84.815588 43.502127 
L 84.955179 43.82112 
L 85.094771 44.140113 
L 85.134561 44.468945 
L 85.174352 44.797776 
L 84.984942 45.146504 
L 84.795531 45.495232 
L 84.446715 45.699549 
L 84.097899 45.903866 
L 83.749082 46.108183 
L 83.400266 46.312501 
L 83.139766 46.467406 
L 82.879266 46.622311 
L 82.618766 46.777216 
L 82.358265 46.932121 
L 82.011147 47.296372 
L 82.011147 47.64335 
L 82.011147 47.990329 
L 82.045924 48.484888 
L 82.0807 48.979447 
L 81.998288 49.296145 
L 81.915876 49.612842 
L 81.833464 49.929539 
L 81.751052 50.246236 
L 81.655457 50.580315 
L 81.559862 50.914394 
L 81.27793 51.135437 
L 80.995997 51.35648 
L 80.566548 51.317563 
L 80.137099 51.278645 
L 79.792165 51.26345 
L 79.447231 51.248254 
L 79.102296 51.233059 
L 78.757362 51.217864 
L 78.466695 51.274272 
L 78.176029 51.330681 
L 77.885362 51.38709 
L 77.594695 51.443498 
L 77.152144 51.569215 
L 76.709593 51.694932 
L 76.414559 51.64071 
L 76.119525 51.586487 
L 75.824491 51.532265 
L 75.529457 51.478043 
L 75.191073 51.373971 
L 74.85269 51.2699 
L 74.514307 51.165828 
L 74.175923 51.061756 
" style="fill:none;stroke:#008000;stroke-linecap:square;stroke-width:0.51224;"/>
   </g>
   <g id="line2d_50">
    <path clip-path="url(#pa3b4d7c30f)" d="M 46.035111 45.088565 
L 45.695191 45.503977 
L 45.355271 45.919389 
L 45.015352 46.334802 
L 44.675432 46.750214 
L 44.45634 47.263795 
L 44.237248 47.777375 
L 44.018156 48.290956 
L 43.799064 48.804537 
L 43.595136 49.076413 
L 43.391209 49.34829 
L 43.187281 49.620166 
L 42.983353 49.892043 
L 42.779425 50.163919 
L 42.575498 50.435795 
L 42.37157 50.707672 
L 42.167642 50.979548 
L 41.880534 51.191081 
L 41.593426 51.402613 
L 41.306318 51.614145 
L 41.019209 51.825677 
L 40.685598 52.029557 
L 40.351986 52.233437 
L 40.018374 52.437317 
L 39.684763 52.641197 
L 39.495352 52.999982 
L 39.305942 53.358767 
L 39.392155 53.664642 
L 39.478368 53.970517 
L 39.946638 54.166854 
L 40.414907 54.363191 
L 40.943672 54.31028 
L 41.472436 54.25737 
L 42.0012 54.204459 
L 42.529965 54.151549 
L 42.869885 54.07601 
L 43.209805 54.00047 
L 43.549725 53.924931 
L 43.889645 53.849391 
L 44.229565 53.773852 
L 44.569485 53.698312 
L 44.909405 53.622773 
L 45.249325 53.547233 
L 45.74032 53.619001 
L 46.231316 53.690769 
L 46.722311 53.762537 
L 47.213307 53.834305 
L 47.704302 53.906073 
L 48.195298 53.977841 
L 48.686293 54.049609 
L 49.177289 54.121377 
L 49.588986 54.170461 
L 50.000683 54.219545 
L 50.41238 54.26863 
L 50.824077 54.317714 
L 51.235774 54.366798 
L 51.647471 54.415882 
L 52.059168 54.464967 
L 52.470865 54.514051 
L 52.614419 54.816209 
L 52.757973 55.118366 
L 52.901527 55.420524 
L 53.045081 55.722682 
L 53.097893 56.092727 
L 53.150705 56.462772 
L 53.203516 56.832817 
L 53.256328 57.202861 
L 53.411205 57.508736 
L 53.566082 57.814611 
L 53.720958 58.120485 
L 53.875835 58.42636 
L 54.030712 58.732235 
L 54.185588 59.038109 
L 54.340465 59.343984 
L 54.495342 59.649858 
L 54.725716 59.861281 
L 54.95609 60.072704 
L 55.186464 60.284127 
L 55.416838 60.49555 
L 55.647212 60.706973 
L 55.877586 60.918396 
L 56.10796 61.129819 
L 56.338334 61.341242 
L 56.799163 61.394153 
L 57.259992 61.447063 
L 57.720821 61.499974 
L 58.18165 61.552884 
" style="fill:none;stroke:#008000;stroke-linecap:square;stroke-width:0.51224;"/>
   </g>
   <g id="line2d_51">
    <path clip-path="url(#pa3b4d7c30f)" d="M 45.007345 47.758135 
L 45.376137 47.797927 
L 45.74493 47.83772 
L 46.113722 47.877512 
L 46.482515 47.917304 
L 46.886165 47.882431 
L 47.289815 47.847558 
L 47.693465 47.812686 
L 48.097115 47.777813 
L 48.655237 47.862535 
L 49.213359 47.947257 
L 49.771481 48.031979 
L 50.329604 48.116702 
L 50.718372 48.206343 
L 51.107141 48.295985 
L 51.49591 48.385626 
L 51.884679 48.475268 
L 52.392982 48.315881 
L 52.901285 48.156494 
L 53.409587 47.997107 
L 53.91789 47.83772 
L 54.306659 47.638431 
L 54.695428 47.439142 
L 55.084197 47.239854 
L 55.472965 47.040565 
L 55.911473 47.229906 
L 56.34998 47.419246 
L 56.384837 47.957315 
L 56.419695 48.495383 
L 56.454552 49.033451 
L 56.489409 49.571519 
L 56.489409 49.940252 
L 56.489409 50.308985 
L 56.489409 50.677718 
L 56.489409 51.046451 
L 56.489409 51.415185 
L 56.489409 51.783918 
L 56.489409 52.152651 
L 56.489409 52.521384 
L 56.708744 52.765602 
L 56.928079 53.009821 
L 57.147413 53.25404 
L 57.366748 53.498258 
L 57.780345 53.647698 
L 58.193943 53.797137 
L 58.60754 53.946576 
L 59.021138 54.096015 
L 59.330083 54.275298 
L 59.639027 54.454581 
L 59.683913 54.79839 
L 59.728799 55.142198 
L 59.773685 55.486006 
L 59.818571 55.829815 
L 59.883352 56.268293 
L 59.948134 56.706772 
L 60.012915 57.14525 
L 60.077696 57.583729 
L 60.092658 57.920049 
L 60.10762 58.256369 
L 60.122582 58.592689 
L 60.137544 58.929009 
L 60.152506 59.265329 
L 60.167468 59.601649 
L 60.18243 59.937969 
L 60.197392 60.274289 
" style="fill:none;stroke:#008000;stroke-linecap:square;stroke-width:0.51224;"/>
   </g>
   <g id="line2d_52">
    <path clip-path="url(#pa3b4d7c30f)" d="M 58.96129 60.493801 
L 58.740146 60.180507 
L 58.519002 59.867212 
L 58.297858 59.553917 
L 58.076714 59.240623 
L 57.85557 58.927328 
L 57.634425 58.614033 
L 57.413281 58.300739 
L 57.192137 57.987444 
L 56.970993 57.674149 
L 56.749849 57.360855 
L 56.528705 57.04756 
L 56.307561 56.734266 
L 56.086417 56.420971 
L 55.865273 56.107676 
L 55.644128 55.794382 
L 55.422984 55.481087 
L 55.20184 55.167792 
L 54.980696 54.854498 
L 54.759552 54.541203 
L 54.538408 54.227908 
L 54.317264 53.914614 
L 54.09612 53.601319 
L 53.874976 53.288024 
L 53.653832 52.97473 
L 53.432687 52.661435 
L 53.211543 52.34814 
L 52.990399 52.034846 
L 52.769255 51.721551 
L 52.548111 51.408256 
L 52.326967 51.094962 
L 52.105823 50.781667 
L 51.884679 50.468372 
" style="fill:none;stroke:#4169e1;stroke-linecap:square;stroke-width:0.51224;"/>
   </g>
   <g id="line2d_53">
    <path clip-path="url(#pa3b4d7c30f)" d="M 50.748539 63.28406 
L 50.329846 63.318933 
L 49.911153 63.353806 
L 49.492461 63.388678 
L 49.073768 63.423551 
" style="fill:none;stroke:#008000;stroke-linecap:square;stroke-width:0.51224;"/>
   </g>
   <g id="line2d_54">
    <path clip-path="url(#pa3b4d7c30f)" d="M 51.175238 62.983651 
L 51.713223 62.890402 
L 52.251207 62.797153 
L 52.789191 62.703904 
L 53.327175 62.610655 
L 53.865159 62.517406 
L 54.403144 62.424157 
L 54.941128 62.330907 
L 55.479112 62.237658 
" style="fill:none;stroke:#008000;stroke-linecap:square;stroke-width:0.51224;"/>
   </g>
   <g id="line2d_55">
    <path clip-path="url(#pa3b4d7c30f)" d="M 82.651358 6.948033 
L 83.013034 7.230841 
L 83.374709 7.513649 
L 83.736385 7.796458 
L 84.09806 8.079266 
L 84.387433 8.513263 
L 84.676806 8.947259 
L 84.97928 9.276091 
L 85.281755 9.604922 
L 85.775096 9.84936 
L 86.268437 10.093797 
L 86.708885 10.362284 
L 87.149333 10.630772 
L 87.636042 10.946267 
L 88.122752 11.261761 
L 88.398861 11.617048 
L 88.67497 11.972335 
L 88.924875 12.129973 
L 89.174781 12.287611 
L 89.608759 12.485041 
L 90.042737 12.682471 
L 90.27946 12.925706 
L 90.516183 13.168941 
L 90.752906 13.412176 
L 90.989628 13.655411 
L 91.463074 13.892196 
L 91.936519 14.128981 
L 92.416597 14.280169 
L 92.896674 14.431357 
L 93.376751 14.582545 
L 93.856829 14.733733 
L 94.165935 14.75352 
L 94.475041 14.773307 
L 94.784148 14.793094 
L 95.093254 14.81288 
L 95.579801 14.977296 
L 96.066349 15.141712 
L 96.552896 15.306128 
L 97.039444 15.470544 
L 97.434035 15.63485 
L 97.828627 15.799157 
L 98.223219 15.963463 
L 98.617811 16.12777 
L 98.99922 16.19358 
L 99.380629 16.25939 
L 99.762038 16.3252 
L 100.143447 16.39101 
L 100.551222 16.811888 
L 100.958997 17.232766 
L 101.116704 17.574716 
L 101.274411 17.916666 
L 101.484849 18.127105 
L 101.695288 18.337544 
L 101.905726 18.547983 
L 102.116164 18.758423 
L 102.556774 19.001657 
L 102.997384 19.244892 
L 103.437994 19.488127 
L 103.878604 19.731362 
L 104.141612 19.961478 
L 104.404619 20.191595 
L 104.667626 20.421711 
L 104.930633 20.651828 
L 105.272575 20.967541 
L 105.614517 21.283255 
L 105.56211 21.861771 
L 105.193803 22.164366 
L 104.825495 22.466961 
L 104.588772 22.88773 
L 104.35205 23.308499 
L 104.115327 23.729268 
L 103.878604 24.150037 
L 103.727367 24.557687 
L 103.57613 24.965338 
L 103.424892 25.372989 
L 103.273655 25.780639 
L 103.339326 26.280446 
L 103.404997 26.780252 
L 103.25376 27.056392 
L 103.102522 27.332532 
L 102.951285 27.608672 
L 102.800048 27.884812 
L 102.497573 28.121597 
L 102.195099 28.358382 
L 101.892624 28.595167 
L 101.590149 28.831952 
L 101.202189 28.956794 
L 100.814229 29.081636 
L 100.426269 29.206479 
L 100.038309 29.331321 
L 99.564864 29.541869 
L 99.091418 29.752418 
L 98.821779 30.120604 
L 98.55214 30.488791 
L 98.282501 30.856977 
L 98.012862 31.225164 
L 97.799148 31.435603 
L 97.585434 31.646042 
L 97.371721 31.856481 
L 97.158007 32.06692 
L 96.944293 32.277359 
L 96.73058 32.487798 
L 96.516866 32.698238 
L 96.303152 32.908677 
L 95.915192 33.132234 
L 95.527232 33.355792 
L 95.139272 33.579349 
L 94.751312 33.802906 
L 94.402739 34.026464 
L 94.054165 34.250021 
L 93.705591 34.473579 
L 93.357018 34.697136 
L 92.890123 34.881229 
L 92.423228 35.065322 
L 91.956334 35.249416 
L 91.489439 35.433509 
" style="fill:none;stroke:#000000;stroke-linecap:square;stroke-width:0.51224;"/>
   </g>
  </g>
 </g>
 <defs>
  <clipPath id="pa3b4d7c30f">
   <rect height="72" width="110.64378" x="0" y="0"/>
  </clipPath>
 </defs>
</svg>
