<?xml version="1.0" encoding="utf-8" standalone="no"?>
<!DOCTYPE svg PUBLIC "-//W3C//DTD SVG 1.1//EN"
  "http://www.w3.org/Graphics/SVG/1.1/DTD/svg11.dtd">
<svg height="72pt" version="1.1" viewBox="0 0 67.133772 72" width="67.133772pt" xmlns="http://www.w3.org/2000/svg" xmlns:xlink="http://www.w3.org/1999/xlink">
 <metadata>
  <rdf:RDF xmlns:cc="http://creativecommons.org/ns#" xmlns:dc="http://purl.org/dc/elements/1.1/" xmlns:rdf="http://www.w3.org/1999/02/22-rdf-syntax-ns#">
   <cc:Work>
    <dc:type rdf:resource="http://purl.org/dc/dcmitype/StillImage"/>
    <dc:date>2022-04-19T00:58:20.695028</dc:date>
    <dc:format>image/svg+xml</dc:format>
    <dc:creator>
     <cc:Agent>
      <dc:title>Matplotlib v3.4.3, https://matplotlib.org/</dc:title>
     </cc:Agent>
    </dc:creator>
   </cc:Work>
  </rdf:RDF>
 </metadata>
 <defs>
  <style type="text/css">*{stroke-linecap:butt;stroke-linejoin:round;}</style>
 </defs>
 <g id="figure_1">
  <g id="patch_1">
   <path d="M 0 72 
L 67.133772 72 
L 67.133772 0 
L 0 0 
z
" style="fill:#ffffff;"/>
  </g>
  <g id="axes_1">
   <g id="line2d_1">
    <path clip-path="url(#pd9ad35940d)" d="M 62.66517 68.727273 
L 62.701607 66.205696 
L 62.733802 63.978292 
L 62.765997 61.750889 
L 62.795446 59.734824 
L 62.824896 57.718759 
L 62.864827 54.948993 
L 62.900266 52.496077 
L 62.935705 50.043162 
L 62.957668 48.537019 
" style="fill:none;stroke:#808080;stroke-linecap:square;stroke-width:0.4;"/>
   </g>
   <g id="line2d_2">
    <path clip-path="url(#pd9ad35940d)" d="M 53.593248 53.434661 
L 52.763173 51.480014 
L 51.932599 49.525366 
L 51.343236 48.137648 
L 50.753873 46.749931 
L 50.16451 45.362213 
L 49.575147 43.974495 
L 48.975178 42.56221 
L 48.375208 41.149926 
L 47.775238 39.737641 
L 47.175268 38.325356 
L 46.140545 35.888189 
L 45.158731 33.577636 
L 44.220841 31.369445 
L 43.282952 29.161254 
L 42.594883 27.541095 
L 41.906815 25.920936 
L 41.121913 24.07306 
L 40.337011 22.225185 
L 39.693865 20.710853 
L 39.050719 19.196521 
L 38.047442 16.834314 
" style="fill:none;stroke:#808080;stroke-linecap:square;stroke-width:0.4;"/>
   </g>
   <g id="line2d_3">
    <path clip-path="url(#pd9ad35940d)" d="M 29.349877 30.829287 
L 28.8123 28.922513 
L 28.424965 27.549284 
L 28.03763 26.176054 
L 27.451137 24.094793 
L 26.818973 21.852586 
L 26.186809 19.610379 
L 25.783751 18.180772 
L 25.380693 16.751164 
L 24.761756 14.556517 
L 24.319016 12.986752 
L 23.876276 11.416986 
L 23.286289 9.324386 
L 22.593479 6.867061 
L 21.900668 4.409736 
L 21.634126 3.464224 
" style="fill:none;stroke:#808080;stroke-linecap:square;stroke-width:0.4;"/>
   </g>
   <g id="line2d_4">
    <path clip-path="url(#pd9ad35940d)" d="M 51.820791 55.908364 
L 50.813521 53.629622 
L 49.806251 51.35088 
L 48.728102 48.912137 
L 47.649953 46.473395 
L 47.072944 45.167882 
L 46.495935 43.862369 
L 45.918926 42.556856 
L 45.341916 41.251343 
L 44.3616 39.034018 
" style="fill:none;stroke:#808080;stroke-linecap:square;stroke-width:0.4;"/>
   </g>
   <g id="line2d_5">
    <path clip-path="url(#pd9ad35940d)" d="M 53.149011 47.750876 
L 52.717876 46.270875 
L 52.286741 44.790874 
L 51.855607 43.310873 
L 51.424472 41.830871 
" style="fill:none;stroke:#808080;stroke-linecap:square;stroke-width:0.4;"/>
   </g>
   <g id="line2d_6">
    <path clip-path="url(#pd9ad35940d)" d="M 59.932363 52.971668 
L 59.029163 51.689778 
L 58.125964 50.407887 
L 57.222765 49.125996 
L 56.319566 47.844105 
" style="fill:none;stroke:#808080;stroke-linecap:square;stroke-width:0.4;"/>
   </g>
   <g id="line2d_7">
    <path clip-path="url(#pd9ad35940d)" d="M 53.965109 52.948361 
L 53.113571 50.9471 
L 52.164202 48.715287 
L 51.521555 47.204734 
L 50.878909 45.694182 
L 50.236262 44.183629 
L 49.593616 42.673077 
L 48.600571 40.338272 
L 47.607526 38.003466 
L 46.721547 35.921575 
L 45.936396 34.075274 
L 45.273783 32.517792 
L 44.611171 30.960311 
L 43.948559 29.402829 
L 43.285947 27.845347 
L 42.670005 26.397314 
L 42.054062 24.949282 
L 41.43812 23.501249 
L 40.822177 22.053216 
L 40.168799 20.517467 
L 39.515421 18.981717 
L 38.830597 17.371007 
L 38.487187 16.564077 
" style="fill:none;stroke:#808080;stroke-linecap:square;stroke-width:0.4;"/>
   </g>
   <g id="line2d_8">
    <path clip-path="url(#pd9ad35940d)" d="M 28.510818 30.339838 
L 28.009678 28.525663 
L 27.482084 26.61637 
L 26.839687 24.290698 
L 26.213014 22.02298 
L 25.58634 19.755261 
L 25.181036 18.288173 
L 24.775732 16.821086 
L 24.250633 14.920611 
L 23.815381 13.345492 
L 23.380128 11.770373 
L 22.943628 10.190529 
L 22.507127 8.610685 
L 21.950583 6.596195 
L 21.394038 4.581705 
L 21.098047 3.510838 
" style="fill:none;stroke:#808080;stroke-linecap:square;stroke-width:0.4;"/>
   </g>
   <g id="line2d_9">
    <path clip-path="url(#pd9ad35940d)" d="M 37.706528 36.562835 
L 40.206485 36.941733 
L 42.706442 37.320631 
" style="fill:none;stroke:#808080;stroke-linecap:square;stroke-width:0.4;"/>
   </g>
   <g id="line2d_10">
    <path clip-path="url(#pd9ad35940d)" d="M 37.764428 36.422992 
L 40.439335 36.830867 
L 43.114242 37.238741 
" style="fill:none;stroke:#808080;stroke-linecap:square;stroke-width:0.4;"/>
   </g>
   <g id="line2d_11">
    <path clip-path="url(#pd9ad35940d)" d="M 51.424472 41.830871 
L 51.887676 41.868667 
L 52.266775 42.20032 
L 52.645875 42.531974 
L 53.024974 42.863628 
L 53.404073 43.195282 
L 53.602232 43.591503 
L 53.800392 43.987724 
L 53.903715 44.478748 
L 54.007037 44.969772 
L 54.041478 45.434654 
L 54.024008 45.882528 
L 53.87751 46.287253 
L 53.731011 46.691978 
L 53.440011 47.221427 
L 53.149011 47.750876 
L 52.957839 48.151822 
L 52.766667 48.552767 
L 52.512479 49.185838 
L 52.25829 49.81891 
L 52.004102 50.451981 
L 51.749913 51.085053 
L 51.168412 51.697966 
" style="fill:none;stroke:#008000;stroke-linecap:square;stroke-width:0.4;"/>
   </g>
   <g id="line2d_12">
    <path clip-path="url(#pd9ad35940d)" d="M 56.319566 47.844105 
L 56.281132 48.431822 
L 56.371602 48.879854 
L 56.462072 49.327886 
L 56.552541 49.775918 
L 56.643011 50.223949 
L 56.828193 50.762218 
L 57.013375 51.300486 
L 57.198557 51.838754 
L 57.383739 52.377022 
L 57.676611 53.018755 
L 57.969483 53.660488 
L 58.262355 54.302221 
L 58.555227 54.943954 
L 58.882665 55.236867 
L 59.364837 55.358442 
" style="fill:none;stroke:#008000;stroke-linecap:square;stroke-width:0.4;"/>
   </g>
   <g id="line2d_13">
    <path clip-path="url(#pd9ad35940d)" d="M 40.040021 23.624871 
L 40.170047 24.061092 
L 40.300074 24.497313 
L 40.524064 24.897943 
L 40.748055 25.298573 
L 40.972045 25.699204 
L 41.196036 26.099834 
L 41.441551 26.483141 
L 41.687067 26.866449 
L 41.932583 27.249756 
L 42.178099 27.633064 
L 42.423615 28.016371 
L 42.669131 28.399678 
L 42.914647 28.782986 
L 43.160163 29.166293 
L 43.45316 29.803774 
L 43.746157 30.441255 
L 43.896898 31.104405 
L 44.047639 31.767555 
L 44.19838 32.430706 
L 44.349121 33.093856 
L 44.349121 33.82614 
L 44.349121 34.558424 
L 44.29746 35.032125 
L 44.245799 35.505826 
L 44.231947 36.173543 
L 44.218096 36.841261 
L 44.204245 37.508978 
L 44.190394 38.176695 
L 44.275997 38.605357 
L 44.3616 39.034018 
" style="fill:none;stroke:#008000;stroke-linecap:square;stroke-width:0.4;"/>
   </g>
   <g id="line2d_14">
    <path clip-path="url(#pd9ad35940d)" d="M 45.064892 38.269293 
L 45.471444 38.75827 
L 45.877996 39.247247 
L 46.284548 39.736224 
L 46.6911 40.225201 
L 46.915215 40.673075 
L 47.13933 41.120949 
L 47.356832 41.654966 
L 47.574333 42.188982 
L 47.791835 42.722998 
L 48.009336 43.257014 
L 48.226838 43.79103 
L 48.444339 44.325047 
L 48.661841 44.859063 
L 48.879342 45.393079 
L 49.096844 45.927095 
L 49.314345 46.461112 
L 49.531847 46.995128 
L 49.749348 47.529144 
L 49.96685 48.06316 
L 50.184351 48.597176 
L 50.401853 49.131193 
L 50.619354 49.665209 
L 50.851955 50.294186 
L 51.084556 50.923163 
L 51.168412 51.697966 
" style="fill:none;stroke:#008000;stroke-linecap:square;stroke-width:0.4;"/>
   </g>
   <g id="line2d_15">
    <path clip-path="url(#pd9ad35940d)" d="M 22.481172 3.422019 
L 22.722258 3.784224 
L 23.256341 4.214775 
L 23.790423 4.645327 
L 24.199596 4.869264 
L 24.608768 5.093201 
L 25.017941 5.317139 
L 25.427113 5.541076 
L 25.849263 5.717769 
L 26.271413 5.894462 
L 26.693563 6.071155 
L 27.115713 6.247848 
L 27.675752 6.626746 
L 28.23579 7.005644 
L 28.752653 7.43651 
L 29.269515 7.867377 
L 29.820818 8.448795 
L 30.372122 9.030213 
L 30.923425 9.61163 
L 31.474728 10.193048 
L 31.963576 10.522497 
L 32.452425 10.851947 
L 32.941273 11.181396 
L 33.430121 11.510845 
L 33.918969 11.840294 
L 34.407817 12.169743 
L 34.896665 12.499192 
L 35.385513 12.828641 
L 35.885155 13.276831 
L 36.384797 13.72502 
L 36.681912 14.056516 
L 36.979027 14.388013 
L 37.276142 14.719509 
L 37.573256 15.051005 
L 37.801739 15.429273 
L 38.030222 15.807541 
L 38.258704 16.185809 
L 38.487187 16.564077 
" style="fill:none;stroke:#008000;stroke-linecap:square;stroke-width:0.4;"/>
   </g>
   <g id="line2d_16">
    <path clip-path="url(#pd9ad35940d)" d="M 44.3616 39.034018 
L 44.713246 38.651656 
L 45.064892 38.269293 
L 45.443991 38.054175 
L 45.82309 37.839057 
L 46.275314 37.73134 
L 46.727537 37.623623 
L 47.179761 37.515907 
L 47.631984 37.40819 
L 48.123016 37.561104 
L 48.614048 37.714017 
L 49.10508 37.866931 
L 49.596111 38.019844 
L 50.087143 38.172758 
L 50.578175 38.325671 
L 51.069207 38.478585 
L 51.560239 38.631498 
L 52.378583 38.734806 
L 53.196928 38.838113 
L 54.015273 38.94142 
L 54.833618 39.044727 
L 55.255643 39.199688 
L 55.677668 39.354649 
L 56.005106 39.656066 
L 56.332544 39.957484 
L 56.616806 40.586461 
L 56.901068 41.215438 
L 57.030221 41.982052 
L 57.159374 42.748667 
L 57.288527 43.515282 
L 57.417681 44.281897 
L 57.559812 44.785677 
L 57.701943 45.289457 
L 57.844073 45.793237 
L 57.986204 46.297017 
L 58.055086 46.977647 
L 58.123968 47.658278 
L 58.287687 48.304263 
L 58.451406 48.950248 
L 58.796064 49.639382 
L 59.140722 50.328516 
L 59.48538 51.017651 
L 59.830038 51.706785 
L 60.019463 52.326943 
L 60.208888 52.947101 
L 60.225859 53.377338 
L 60.088095 53.825212 
L 59.950332 54.273087 
L 59.657584 54.815764 
L 59.364837 55.358442 
L 59.356102 56.082222 
L 59.347367 56.806002 
L 59.443702 57.226633 
L 59.540036 57.647263 
L 59.636371 58.067893 
L 59.732705 58.488524 
L 59.560501 59.177658 
L 59.005953 59.412934 
L 58.451406 59.64821 
L 58.049596 59.456084 
L 57.647786 59.263957 
L 57.044821 58.777343 
L 56.441856 58.290728 
L 55.838892 57.804114 
L 55.235927 57.317499 
L 54.738905 56.84868 
L 54.241884 56.37986 
L 53.744862 55.911041 
L 53.247841 55.442222 
" style="fill:none;stroke:#008000;stroke-linecap:square;stroke-width:0.4;"/>
   </g>
   <g id="line2d_17">
    <path clip-path="url(#pd9ad35940d)" d="M 38.047442 16.834314 
L 37.449219 17.140771 
L 36.850997 17.447228 
L 36.57547 17.774157 
L 36.273987 18.377307 
L 35.972505 18.980458 
L 35.785139 19.447781 
L 35.597774 19.915104 
L 35.410408 20.382427 
L 35.223042 20.849751 
L 35.035676 21.317074 
L 34.84831 21.784397 
L 34.660945 22.25172 
L 34.473579 22.719043 
L 34.213026 23.169123 
L 33.952474 23.619202 
L 33.691921 24.069281 
L 33.431369 24.51936 
L 33.170816 24.969439 
L 32.910263 25.419518 
L 32.649711 25.869597 
L 32.389158 26.319677 
L 32.117812 26.849441 
L 31.846465 27.379205 
L 31.575119 27.908969 
L 31.303772 28.438734 
L 31.032425 28.968498 
L 30.761079 29.498262 
L 30.489732 30.028026 
L 30.218386 30.557791 
" style="fill:none;stroke:#4169e1;stroke-linecap:square;stroke-width:0.4;"/>
   </g>
   <g id="line2d_18">
    <path clip-path="url(#pd9ad35940d)" d="M 62.957668 48.537019 
L 63.191516 48.902688 
L 63.425365 49.268358 
L 63.659213 49.634028 
L 63.893061 49.999697 
L 63.987649 50.456076 
L 64.082237 50.912454 
L 64.060773 51.476706 
L 64.03931 52.040959 
L 64.017847 52.605211 
L 63.996384 53.169464 
L 63.811077 53.720645 
L 63.62577 54.271827 
L 63.440464 54.823009 
L 63.255157 55.37419 
L 63.250914 56.16238 
L 63.246671 56.95057 
L 63.242429 57.738759 
L 63.238186 58.526949 
L 63.324288 59.095453 
L 63.41039 59.663958 
L 63.203745 60.042856 
L 62.9971 60.421754 
L 62.523164 60.878132 
L 62.049228 61.33451 
L 61.833847 61.963487 
L 61.618467 62.592464 
L 61.52388 63.255457 
L 61.429292 63.91845 
L 61.429292 64.35782 
L 61.429292 64.797191 
L 61.429292 65.236561 
L 61.429292 65.675931 
L 61.532615 66.339239 
L 61.635937 67.002547 
L 61.902979 67.631209 
L 62.17002 68.259871 
L 62.66517 68.727273 
" style="fill:none;stroke:#008000;stroke-linecap:square;stroke-width:0.4;"/>
   </g>
   <g id="line2d_19">
    <path clip-path="url(#pd9ad35940d)" d="M 48.045774 30.997476 
L 48.416138 31.557476 
L 48.786502 32.117477 
L 49.165601 32.397477 
L 49.5447 32.677477 
L 49.923799 32.957478 
L 50.302898 33.237478 
L 50.70346 33.448502 
L 51.104022 33.659526 
L 51.504584 33.870549 
L 51.905146 34.081573 
L 52.352878 34.27118 
L 52.796553 34.389605 
L 53.240229 34.50803 
L 53.683905 34.626455 
L 54.12758 34.744881 
L 54.571256 34.863306 
L 55.014932 34.981731 
L 55.458607 35.100157 
L 55.902283 35.218582 
L 56.444851 35.545826 
L 56.987419 35.873071 
L 57.383739 36.415748 
L 57.780058 36.958426 
L 58.107496 37.535434 
L 58.434934 38.112443 
L 58.568455 38.53449 
L 58.701975 38.956538 
L 58.835496 39.378586 
L 58.969017 39.800633 
" style="fill:none;stroke:#008000;stroke-linecap:square;stroke-width:0.4;"/>
   </g>
   <g id="line2d_20">
    <path clip-path="url(#pd9ad35940d)" d="M 58.969017 39.800633 
L 59.009884 40.231342 
L 59.050751 40.662051 
L 59.091619 41.09276 
L 59.132486 41.523469 
L 59.173353 41.954178 
L 59.214221 42.384887 
L 59.255088 42.815597 
L 59.295955 43.246306 
L 59.408013 43.69418 
L 59.520071 44.142054 
L 59.778627 44.779535 
L 60.037183 45.417016 
L 60.11455 45.882213 
L 60.191917 46.347411 
L 60.088594 47.001899 
L 59.985272 47.656388 
L 60.105815 48.087255 
L 60.226358 48.518121 
L 60.514987 49.177019 
L 60.803617 49.835918 
L 61.092246 50.494816 
L 61.380875 51.153714 
L 61.475588 51.713557 
L 61.5703 52.2734 
L 61.665012 52.833243 
L 61.759725 53.393086 
L 61.777195 53.823953 
L 61.587645 54.353559 
L 61.398096 54.883166 
L 61.208546 55.412773 
L 61.018997 55.94238 
L 60.950115 56.390254 
L 60.950115 57.010412 
L 60.950115 57.63057 
L 60.950115 58.250728 
L 60.950115 58.870886 
L 60.591231 59.196556 
L 60.232347 59.522225 
L 59.787112 59.553721 
L 59.341877 59.585217 
L 58.896641 59.616714 
L 58.451406 59.64821 
" style="fill:none;stroke:#008000;stroke-linecap:square;stroke-width:0.4;"/>
   </g>
   <g id="line2d_21">
    <path clip-path="url(#pd9ad35940d)" d="M 38.047442 16.834314 
L 37.866752 17.215417 
L 37.797871 17.904551 
L 37.728989 18.593686 
L 37.741842 19.054631 
L 37.754695 19.515576 
L 37.767548 19.976521 
L 37.780401 20.437467 
L 37.728739 21.152428 
L 37.677078 21.867389 
L 37.562962 22.313138 
L 37.448845 22.758886 
L 37.334728 23.204634 
L 37.220612 23.650383 
L 37.106495 24.096131 
L 36.992379 24.54188 
L 36.878262 24.987628 
L 36.764146 25.433377 
L 36.548766 25.919991 
L 36.333385 26.406606 
L 36.118005 26.89322 
L 35.902625 27.379835 
L 35.670024 27.840702 
L 35.437424 28.301568 
L 35.204823 28.762435 
L 34.972223 29.223301 
L 34.739622 29.684168 
L 34.507022 30.145034 
L 34.274421 30.605901 
L 34.04182 31.066767 
L 33.843661 31.626768 
L 33.645501 32.186768 
L 33.717877 32.782044 
" style="fill:none;stroke:#4169e1;stroke-linecap:square;stroke-width:0.4;"/>
   </g>
   <g id="line2d_22">
    <path clip-path="url(#pd9ad35940d)" d="M 38.487187 16.564077 
L 38.876581 16.809117 
L 39.265975 17.054157 
L 39.655369 17.299196 
L 40.044762 17.544236 
L 40.434156 17.789275 
L 40.82355 18.034315 
L 41.212944 18.279355 
L 41.602338 18.524394 
L 42.00864 18.71841 
L 42.414942 18.912426 
L 42.821245 19.106442 
L 43.227547 19.300458 
L 43.544877 19.640616 
L 43.862207 19.980773 
L 44.179537 20.320931 
L 44.496868 20.661089 
L 45.004995 21.341404 
L 45.513122 22.02172 
L 45.737238 22.400933 
L 45.978324 23.15054 
L 46.21941 23.900147 
L 46.391864 24.571959 
L 46.564317 25.24377 
L 46.706448 26.040464 
L 46.848579 26.837157 
L 46.99071 27.633851 
L 47.132841 28.430545 
L 47.270605 28.865663 
L 47.408368 29.300782 
L 47.546131 29.7359 
L 47.683895 30.171019 
L 47.864834 30.584247 
L 48.045774 30.997476 
" style="fill:none;stroke:#008000;stroke-linecap:square;stroke-width:0.4;"/>
   </g>
   <g id="line2d_23">
    <path clip-path="url(#pd9ad35940d)" d="M 43.227547 19.300458 
L 42.710435 19.886285 
L 42.348556 20.092899 
L 42.098735 20.446286 
L 41.848914 20.799672 
L 41.926531 21.230223 
L 42.004148 21.660775 
L 42.383122 22.056996 
L 42.762096 22.453216 
L 43.141071 22.849437 
L 43.520045 23.245658 
L 43.554985 23.676525 
L 43.3134 24.021092 
L 42.598502 23.8918 
L 41.883605 23.762509 
L 41.168707 23.633218 
L 40.45381 23.503926 
L 40.040021 23.624871 
L 39.678142 23.969438 
L 39.316263 24.314006 
L 38.911458 24.822037 
L 38.506654 25.330069 
L 38.218274 25.999991 
L 37.929894 26.669913 
L 37.641514 27.339835 
L 37.353134 28.009757 
L 37.081788 28.483537 
L 36.810441 28.957317 
L 36.539095 29.431097 
L 36.267748 29.904877 
L 35.996402 30.378656 
L 35.725055 30.852436 
L 35.453708 31.326216 
L 35.182362 31.799996 
L 34.816241 32.045508 
L 34.450119 32.29102 
L 34.083998 32.536532 
L 33.717877 32.782044 
L 33.295602 32.859525 
L 32.873327 32.937005 
L 32.046746 32.799052 
L 31.426312 32.566611 
L 30.805877 32.33417 
L 30.091104 31.886296 
L 29.376332 31.438421 
L 29.152216 31.162515 
" style="fill:none;stroke:#4169e1;stroke-linecap:square;stroke-width:0.4;"/>
   </g>
   <g id="line2d_24">
    <path clip-path="url(#pd9ad35940d)" d="M 19.959502 3.65257 
L 20.039115 4.149578 
L 20.118728 4.646587 
L 20.198342 5.143595 
L 20.277955 5.640603 
L 20.326871 6.487533 
L 20.375787 7.334463 
L 20.457896 7.830841 
L 20.540005 8.32722 
L 20.622114 8.823598 
L 20.704223 9.319977 
L 20.877925 9.922969 
L 21.051626 10.525962 
L 21.225328 11.128955 
L 21.39903 11.731947 
L 21.621273 12.304546 
L 21.843517 12.877145 
L 22.06576 13.449744 
L 22.288003 14.022343 
L 22.361377 14.375729 
L 22.536514 14.803604 
L 22.711651 15.231478 
L 22.886788 15.659352 
L 23.061924 16.087227 
L 23.237061 16.515101 
L 23.412198 16.942975 
L 23.587335 17.37085 
L 23.762471 17.798724 
L 24.140073 18.541717 
L 24.517675 19.28471 
L 24.621247 19.754002 
L 24.724819 20.223293 
L 24.699363 20.782349 
L 24.673906 21.341404 
" style="fill:none;stroke:#000000;stroke-linecap:square;stroke-width:0.4;"/>
   </g>
   <g id="line2d_25">
    <path clip-path="url(#pd9ad35940d)" d="M 44.3616 39.034018 
L 43.845486 39.448507 
L 43.329372 39.862996 
L 43.070816 40.242208 
L 42.881392 40.879689 
L 42.691967 41.51717 
L 42.678989 42.098588 
L 42.666011 42.680006 
L 42.653034 43.261424 
L 42.640056 43.842842 
L 42.562564 44.544732 
L 42.485072 45.246622 
L 42.40758 45.948513 
L 42.330088 46.650403 
L 42.41619 47.32253 
L 42.502292 47.994656 
L 42.691717 48.407885 
L 42.881142 48.821114 
L 43.165404 49.169933 
L 43.449666 49.518752 
L 43.733928 49.867571 
L 44.018189 50.21639 
L 44.406024 50.42332 
L 44.793858 50.630249 
L 45.50888 50.725052 
L 46.223902 50.819855 
L 46.822499 50.811194 
L 47.421096 50.802533 
L 48.019693 50.793871 
L 48.61829 50.78521 
L 49.057786 50.836863 
L 49.497281 50.888517 
L 49.915064 51.090879 
L 50.332846 51.293242 
L 50.750629 51.495604 
L 51.168412 51.697966 
L 51.774621 52.13214 
L 52.38083 52.566314 
L 52.987039 53.000487 
L 53.593248 53.434661 
L 53.61546 53.878126 
L 53.637671 54.321591 
L 53.442756 54.881906 
L 53.247841 55.442222 
L 52.534316 55.675293 
L 51.820791 55.908364 
" style="fill:none;stroke:#4169e1;stroke-dasharray:1.48,0.64;stroke-dashoffset:0;stroke-width:0.4;"/>
   </g>
   <g id="line2d_26">
    <path clip-path="url(#pd9ad35940d)" d="M 19.959502 3.65257 
L 19.64579 4.219185 
L 19.332079 4.785799 
L 19.018368 5.352414 
L 18.704656 5.919029 
L 18.58586 6.333202 
L 18.467064 6.747376 
L 18.348268 7.16155 
L 18.229472 7.575723 
L 18.202144 8.136039 
L 18.174816 8.696354 
L 18.147488 9.25667 
L 18.12016 9.816985 
L 18.229722 10.310371 
L 18.339284 10.803757 
L 18.448846 11.297144 
L 18.558408 11.79053 
L 18.738099 12.204704 
L 18.91779 12.618877 
L 19.097482 13.033051 
L 19.277173 13.447224 
L 19.485815 13.826437 
L 19.694457 14.20565 
L 19.903099 14.584863 
L 20.11174 14.964076 
L 20.320382 15.343289 
L 20.529024 15.722502 
L 20.737665 16.101715 
L 20.946307 16.480928 
L 21.337635 16.931637 
L 21.728963 17.382346 
L 22.120291 17.833055 
L 22.511619 18.283764 
L 22.902947 18.734473 
L 23.294275 19.185182 
L 23.685603 19.635891 
L 24.076931 20.0866 
L 24.375419 20.714002 
L 24.673906 21.341404 
L 24.64296 21.868649 
" style="fill:none;stroke:#4169e1;stroke-linecap:square;stroke-width:0.4;"/>
   </g>
   <g id="line2d_27">
    <path clip-path="url(#pd9ad35940d)" d="M 35.385513 12.828641 
L 35.325117 13.385335 
L 35.26472 13.942028 
L 35.204324 14.498721 
L 35.143928 15.055415 
L 35.057576 15.503289 
L 34.885372 15.934156 
L 34.661257 16.330376 
L 34.351289 16.709589 
L 33.847404 17.1877 
L 33.343519 17.665811 
L 32.839635 18.143921 
L 32.33575 18.622032 
L 32.042753 18.931954 
L 31.749756 19.241875 
L 31.456759 19.60408 
L 31.198702 19.982663 
L 30.940146 20.430538 
L 30.750472 20.913058 
L 30.591121 21.374003 
L 30.431769 21.834948 
L 30.272418 22.295894 
L 30.113067 22.756839 
L 30.048677 23.219831 
L 29.984288 23.682824 
L 29.919898 24.145816 
L 29.855509 24.608809 
L 29.849394 25.08692 
L 29.84328 25.56503 
L 29.837165 26.043141 
L 29.831051 26.521252 
L 29.548786 27.322512 
L 29.26652 28.123773 
L 29.271012 28.799049 
L 29.411022 29.426451 
L 29.551032 30.053853 
L 29.57549 30.72409 
" style="fill:none;stroke:#4169e1;stroke-linecap:square;stroke-width:0.4;"/>
   </g>
   <g id="line2d_28">
    <path clip-path="url(#pd9ad35940d)" d="M 44.496868 20.661089 
L 44.477151 21.112428 
L 44.457435 21.563767 
L 44.565125 21.998728 
L 44.672815 22.433689 
L 44.780505 22.86865 
L 44.888196 23.303611 
L 44.952835 23.764399 
L 45.017474 24.225187 
L 45.082113 24.685974 
L 45.146752 25.146762 
L 45.142384 25.814322 
L 45.138017 26.481881 
L 45.133649 27.149441 
L 45.129282 27.817001 
L 45.236972 28.398419 
L 45.344662 28.979836 
L 45.452352 29.561254 
L 45.560042 30.142672 
L 45.58163 30.922358 
L 45.603218 31.702043 
L 45.624806 32.481729 
L 45.646394 33.261415 
L 45.577512 33.915904 
L 45.50863 34.570392 
L 45.344911 35.087243 
L 45.181192 35.604094 
L 45.017474 36.120945 
L 44.853755 36.637796 
L 44.522074 37.407245 
L 44.190394 38.176695 
" style="fill:none;stroke:#008000;stroke-linecap:square;stroke-width:0.4;"/>
   </g>
   <g id="line2d_29">
    <path clip-path="url(#pd9ad35940d)" d="M 48.045774 30.997476 
L 47.780729 31.408815 
L 47.64284 31.830862 
L 47.504952 32.25291 
L 47.367064 32.674958 
L 47.229176 33.097005 
L 46.863054 33.764565 
L 46.496933 34.432125 
L 46.130812 35.099684 
L 45.76469 35.767244 
L 45.589741 36.392756 
L 45.414791 37.018269 
L 45.239842 37.643781 
L 45.064892 38.269293 
" style="fill:none;stroke:#4169e1;stroke-linecap:square;stroke-width:0.4;"/>
   </g>
   <g id="line2d_30">
    <path clip-path="url(#pd9ad35940d)" d="M 21.098047 3.510838 
L 21.634126 3.464224 
L 22.053406 3.381704 
L 22.481172 3.422019 
L 22.914927 3.485011 
L 23.34132 3.618554 
L 23.767712 3.752098 
L 24.194105 3.885641 
L 24.620498 4.019185 
L 25.296712 4.122492 
L 25.972926 4.225799 
L 26.64914 4.329106 
L 27.325353 4.432413 
L 27.738893 4.62202 
L 28.152433 4.811626 
L 28.632671 5.231548 
L 29.112909 5.65147 
L 29.593147 6.071391 
L 30.073385 6.491313 
L 30.553623 6.911234 
L 31.03386 7.331156 
L 31.514098 7.751078 
L 31.994336 8.170999 
L 32.3647 8.433834 
L 32.735064 8.696669 
L 33.105428 8.959504 
L 33.475792 9.222339 
L 33.992655 9.45478 
L 34.509517 9.687221 
L 35.02638 9.919662 
L 35.543242 10.152103 
L 35.845848 10.498836 
L 36.148453 10.845569 
L 36.451058 11.192301 
L 36.753664 11.539034 
L 37.056269 11.885766 
L 37.358874 12.232499 
L 37.66148 12.579231 
L 37.964085 12.925964 
L 38.266691 13.272697 
L 38.569296 13.619429 
L 38.871901 13.966162 
L 39.174507 14.312894 
L 39.477112 14.659627 
L 39.779718 15.00636 
L 40.082323 15.353092 
L 40.384928 15.699825 
L 40.711867 15.992738 
L 41.125407 16.19951 
L 41.538947 16.406282 
L 41.952487 16.613054 
L 42.366026 16.819826 
L 42.788052 17.19022 
L 43.210077 17.560614 
L 43.365311 17.973842 
L 43.468633 18.387701 
L 43.34809 18.844079 
L 43.227547 19.300458 
" style="fill:none;stroke:#008000;stroke-linecap:square;stroke-width:0.4;"/>
   </g>
   <g id="line2d_31">
    <path clip-path="url(#pd9ad35940d)" d="M 31.474728 10.193048 
L 31.510791 10.672419 
L 31.546855 11.151789 
L 31.582918 11.63116 
L 31.618981 12.11053 
L 31.463997 12.756515 
L 31.309013 13.4025 
L 31.065618 13.871949 
L 30.822224 14.341398 
L 30.578829 14.810848 
L 30.335435 15.280297 
L 30.09204 15.749746 
L 29.848646 16.219195 
L 29.605251 16.688645 
L 29.361856 17.158094 
L 29.034544 17.722346 
L 28.707231 18.286599 
L 28.379918 18.850851 
L 28.052605 19.415104 
L 27.841592 20.035262 
L 27.630579 20.65542 
L 27.419567 21.275578 
L 27.208554 21.895736 
L 27.044835 22.498728 
L 26.881116 23.101721 
L 26.717397 23.704714 
L 26.553679 24.307706 
" style="fill:none;stroke:#000000;stroke-linecap:square;stroke-width:0.4;"/>
   </g>
   <g id="line2d_32">
    <path clip-path="url(#pd9ad35940d)" d="M 21.098047 3.510838 
L 20.528774 3.581704 
L 19.959502 3.65257 
L 19.376378 3.617924 
L 18.793254 3.583279 
L 18.210131 3.548633 
L 17.627007 3.513987 
L 17.006822 3.393357 
L 16.386637 3.272727 
L 15.542337 3.281231 
L 14.698036 3.289735 
L 13.991749 3.543909 
L 13.285462 3.798082 
L 12.579175 4.052256 
L 11.872888 4.306429 
L 11.317217 4.586429 
L 10.761546 4.866429 
L 10.205875 5.14643 
L 9.650204 5.42643 
L 9.288388 5.747296 
L 8.926572 6.068163 
L 8.564756 6.389029 
L 8.202939 6.709896 
L 7.841123 7.030762 
L 7.479307 7.351628 
L 7.117491 7.672495 
L 6.755675 7.993361 
L 6.075218 8.497299 
L 5.394761 9.001236 
L 4.714305 9.505174 
L 4.033848 10.009111 
L 3.628794 10.500135 
L 3.223739 10.991159 
L 3.051535 11.421396 
L 3.292621 11.783601 
L 3.973202 11.774782 
L 4.653784 11.765963 
L 5.071566 11.628168 
L 5.489349 11.490372 
L 5.907132 11.352577 
L 6.324914 11.214781 
L 6.75998 11.126514 
L 7.195045 11.038246 
L 7.630111 10.949978 
L 8.065176 10.86171 
L 8.500241 10.773442 
L 8.935307 10.685175 
L 9.370372 10.596907 
L 9.805438 10.508639 
L 10.201632 10.314781 
L 10.597827 10.120922 
L 10.994022 9.927064 
L 11.390216 9.733205 
L 11.756338 9.496355 
L 12.122459 9.259504 
L 12.48858 9.022654 
L 12.854702 8.785803 
L 13.599423 8.740449 
L 14.012713 8.930055 
L 14.391563 9.205961 
L 14.615678 9.636197 
L 14.788007 10.278088 
L 14.960336 10.919978 
L 15.132665 11.561868 
L 15.304994 12.203759 
L 15.459978 12.617145 
L 15.614962 13.030531 
L 15.769946 13.443917 
L 15.92493 13.857303 
L 16.286808 14.460454 
L 16.648687 15.063604 
L 16.988977 15.507226 
L 17.329268 15.950849 
L 17.669559 16.394471 
L 18.00985 16.838093 
L 18.483536 17.363448 
L 18.957223 17.888803 
L 19.508526 18.354 
L 20.059829 18.819198 
L 20.611133 19.284395 
L 21.162436 19.749592 
L 21.666446 20.020931 
L 22.170455 20.29227 
L 22.674465 20.563609 
L 23.178474 20.834947 
L 23.544596 21.093373 
L 23.910717 21.351798 
L 24.276838 21.610224 
L 24.64296 21.868649 
L 25.120639 22.478413 
L 25.598319 23.088178 
L 26.075999 23.697942 
L 26.553679 24.307706 
L 26.919301 24.845974 
L 27.284923 25.384243 
L 27.659654 25.948495 
L 28.034386 26.512748 
L 28.409117 27.077 
L 28.783849 27.641253 
L 29.26652 28.123773 
" style="fill:none;stroke:#008000;stroke-linecap:square;stroke-width:0.4;"/>
   </g>
  </g>
 </g>
 <defs>
  <clipPath id="pd9ad35940d">
   <rect height="72" width="67.133772" x="0" y="0"/>
  </clipPath>
 </defs>
</svg>
