<?xml version="1.0" encoding="utf-8" standalone="no"?>
<!DOCTYPE svg PUBLIC "-//W3C//DTD SVG 1.1//EN"
  "http://www.w3.org/Graphics/SVG/1.1/DTD/svg11.dtd">
<svg height="72pt" version="1.1" viewBox="0 0 86.751284 72" width="86.751284pt" xmlns="http://www.w3.org/2000/svg" xmlns:xlink="http://www.w3.org/1999/xlink">
 <metadata>
  <rdf:RDF xmlns:cc="http://creativecommons.org/ns#" xmlns:dc="http://purl.org/dc/elements/1.1/" xmlns:rdf="http://www.w3.org/1999/02/22-rdf-syntax-ns#">
   <cc:Work>
    <dc:type rdf:resource="http://purl.org/dc/dcmitype/StillImage"/>
    <dc:date>2022-04-19T00:58:22.918084</dc:date>
    <dc:format>image/svg+xml</dc:format>
    <dc:creator>
     <cc:Agent>
      <dc:title>Matplotlib v3.4.3, https://matplotlib.org/</dc:title>
     </cc:Agent>
    </dc:creator>
   </cc:Work>
  </rdf:RDF>
 </metadata>
 <defs>
  <style type="text/css">*{stroke-linecap:butt;stroke-linejoin:round;}</style>
 </defs>
 <g id="figure_1">
  <g id="patch_1">
   <path d="M 0 72 
L 86.751284 72 
L 86.751284 0 
L 0 0 
z
" style="fill:#ffffff;"/>
  </g>
  <g id="axes_1">
   <g id="line2d_1">
    <path clip-path="url(#p762ac0afb5)" d="M 79.149677 22.410036 
L 77.72542 22.324629 
L 76.480258 22.250518 
L 75.235096 22.176406 
L 73.710776 22.099264 
L 72.186456 22.022122 
L 70.56526 21.925419 
L 68.944063 21.828715 
L 67.305871 21.726227 
L 65.667678 21.623738 
L 64.046482 21.529514 
L 62.425285 21.435291 
L 60.573369 21.321506 
L 58.721454 21.207721 
L 57.108755 21.113498 
L 55.496056 21.019274 
L 53.632668 20.908244 
L 51.76928 20.797215 
L 50.455922 20.717593 
L 49.142564 20.637972 
" style="fill:none;stroke:#808080;stroke-linecap:square;stroke-width:0.401626;"/>
   </g>
   <g id="line2d_2">
    <path clip-path="url(#p762ac0afb5)" d="M 11.328384 55.832966 
L 12.775585 54.254858 
L 13.71036 53.223358 
L 14.716092 52.106726 
L 15.721824 50.990093 
L 16.741791 49.876216 
L 17.761757 48.762339 
L 18.719052 47.702736 
L 20.01244 46.25522 
L 21.397181 44.753979 
L 22.781922 43.252738 
L 23.568407 42.36946 
L 24.428824 41.423918 
L 25.596868 40.124624 
L 27.129898 38.449538 
L 28.016022 37.475205 
L 28.902146 36.500873 
L 29.788269 35.52654 
L 30.674393 34.552208 
L 31.702858 33.421249 
L 32.731322 32.29029 
L 33.744171 31.174898 
L 34.757021 30.059505 
L 35.76987 28.944113 
L 36.78272 27.82872 
L 37.688814 26.820087 
L 38.594908 25.811453 
L 39.93121 24.341345 
L 41.267513 22.871236 
L 42.355676 21.680492 
" style="fill:none;stroke:#808080;stroke-linecap:square;stroke-width:0.401626;"/>
   </g>
   <g id="line2d_3">
    <path clip-path="url(#p762ac0afb5)" d="M 32.845195 7.286873 
L 34.389697 9.053428 
L 35.680323 10.529322 
L 36.970949 12.005216 
L 38.230133 13.41554 
L 39.489317 14.825863 
L 40.654811 16.162075 
L 41.820305 17.498287 
L 43.295974 19.213046 
L 43.757413 19.697389 
" style="fill:none;stroke:#808080;stroke-linecap:square;stroke-width:0.401626;"/>
   </g>
   <g id="line2d_4">
    <path clip-path="url(#p762ac0afb5)" d="M 4.199878 10.660188 
L 5.672892 10.380961 
L 7.145905 10.101734 
L 8.618919 9.822507 
L 10.091932 9.54328 
L 12.080665 9.110182 
L 14.069398 8.677084 
L 15.961254 8.28118 
L 17.85311 7.885276 
L 19.821873 7.463473 
L 21.790636 7.041671 
L 24.01285 6.44382 
L 26.377617 5.925039 
L 28.742384 5.406258 
L 30.867721 4.979221 
L 31.791024 4.779754 
" style="fill:none;stroke:#808080;stroke-linecap:square;stroke-width:0.401626;"/>
   </g>
   <g id="line2d_5">
    <path clip-path="url(#p762ac0afb5)" d="M 10.593311 48.742502 
L 12.021923 47.750124 
L 13.450535 46.757745 
L 14.879146 45.765367 
L 16.307758 44.772989 
" style="fill:none;stroke:#808080;stroke-linecap:square;stroke-width:0.401626;"/>
   </g>
   <g id="line2d_6">
    <path clip-path="url(#p762ac0afb5)" d="M 17.916845 59.974396 
L 18.992048 58.012231 
L 20.067251 56.050066 
" style="fill:none;stroke:#808080;stroke-linecap:square;stroke-width:0.401626;"/>
   </g>
   <g id="line2d_7">
    <path clip-path="url(#p762ac0afb5)" d="M 23.480878 65.026655 
L 24.412253 63.368099 
L 25.602816 61.247792 
L 26.326204 59.959794 
L 27.049592 58.671796 
L 28.102807 56.79614 
L 29.156022 54.920485 
L 30.209237 53.044829 
L 31.262451 51.169173 
L 32.225906 49.453312 
L 33.189362 47.73745 
L 33.745552 46.746725 
L 34.639324 45.155118 
L 35.533096 43.56351 
L 36.577494 41.703558 
L 37.621892 39.843607 
L 38.512265 38.25806 
L 39.402638 36.672514 
L 40.340387 35.002387 
L 40.609347 34.523555 
L 41.65587 32.65947 
L 42.501628 31.15327 
L 43.347387 29.64707 
L 43.986432 28.508948 
L 44.625478 27.370826 
L 45.316574 26.140134 
L 46.00767 24.909441 
" style="fill:none;stroke:#808080;stroke-linecap:square;stroke-width:0.401626;"/>
   </g>
   <g id="line2d_8">
    <path clip-path="url(#p762ac0afb5)" d="M 23.135011 64.770984 
L 23.985231 63.255692 
L 24.606432 62.148702 
L 25.227632 61.041713 
L 25.988198 59.686491 
L 26.748765 58.331269 
L 27.518201 56.960136 
L 28.287637 55.589004 
L 29.057074 54.217871 
L 29.82651 52.846739 
L 30.595946 51.475606 
L 31.365383 50.104474 
L 32.134819 48.733342 
L 32.904255 47.362209 
L 34.017487 45.378554 
L 35.130718 43.3949 
L 36.203372 41.483152 
L 37.276026 39.571405 
L 38.152802 38.009277 
L 39.029578 36.447149 
L 40.220141 34.325189 
L 41.269213 32.455044 
L 42.116883 30.944435 
L 42.964554 29.433827 
L 43.681781 28.155748 
L 44.399008 26.877668 
L 45.02297 25.765719 
L 45.646932 24.65377 
" style="fill:none;stroke:#808080;stroke-linecap:square;stroke-width:0.401626;"/>
   </g>
   <g id="line2d_9">
    <path clip-path="url(#p762ac0afb5)" d="M 31.858582 67.603202 
L 33.629768 66.277459 
L 35.400953 64.951717 
" style="fill:none;stroke:#808080;stroke-linecap:square;stroke-width:0.401626;"/>
   </g>
   <g id="line2d_10">
    <path clip-path="url(#p762ac0afb5)" d="M 35.910405 66.054849 
L 37.437699 64.42164 
L 38.964994 62.788431 
" style="fill:none;stroke:#808080;stroke-linecap:square;stroke-width:0.401626;"/>
   </g>
   <g id="line2d_11">
    <path clip-path="url(#p762ac0afb5)" d="M 61.268289 19.330412 
L 61.821081 18.874585 
L 62.373873 18.418758 
L 62.926664 17.96293 
L 63.479456 17.507103 
L 63.861226 17.196468 
L 64.242997 16.885833 
L 64.624767 16.575199 
L 65.006538 16.264564 
L 65.396912 16.030933 
L 65.787287 15.797303 
L 66.177662 15.563672 
L 66.568036 15.330042 
L 67.228964 15.096412 
L 67.889892 14.862781 
L 68.342939 14.811537 
L 68.795986 14.760292 
L 69.249033 14.709048 
L 69.70208 14.657803 
L 70.100953 14.635074 
L 70.499825 14.612345 
L 70.898698 14.589615 
L 71.29757 14.566886 
L 71.986967 14.601049 
L 72.676363 14.635212 
L 73.294695 14.828894 
L 73.913027 15.022576 
L 74.531359 15.216257 
L 75.149691 15.409939 
L 75.802122 15.666299 
L 76.454552 15.922659 
L 77.106982 16.179019 
L 77.759412 16.435379 
L 78.128382 16.617765 
L 78.497353 16.800151 
L 78.866323 16.982537 
L 79.235293 17.164923 
L 79.604264 17.347309 
L 79.973234 17.529695 
L 80.342205 17.712081 
L 80.711175 17.894467 
L 81.235392 18.270535 
L 81.75961 18.646603 
L 82.283827 19.02267 
L 82.808044 19.398738 
" style="fill:none;stroke:#008000;stroke-linecap:square;stroke-width:0.401626;"/>
   </g>
   <g id="line2d_12">
    <path clip-path="url(#p762ac0afb5)" d="M 41.734476 33.529523 
L 42.15762 33.508171 
L 42.580765 33.48682 
L 43.00391 33.465468 
L 43.427055 33.444116 
L 43.8502 33.422764 
L 44.273344 33.401412 
L 44.696489 33.38006 
L 45.119634 33.358709 
L 45.518507 33.367249 
L 45.917379 33.37579 
L 46.316252 33.384331 
L 46.715124 33.392872 
L 47.113997 33.401412 
L 47.512869 33.409953 
L 47.911742 33.418494 
L 48.310615 33.427034 
L 48.943074 33.52112 
L 49.575534 33.615206 
L 50.207994 33.709292 
L 50.840454 33.803378 
" style="fill:none;stroke:#008000;stroke-linecap:square;stroke-width:0.401626;"/>
   </g>
   <g id="line2d_13">
    <path clip-path="url(#p762ac0afb5)" d="M 44.298732 23.296069 
L 43.848553 23.31315 
L 43.398374 23.330232 
L 43.039548 23.455588 
L 42.680722 23.580944 
L 42.190391 24.025613 
L 42.07928 24.678015 
L 41.968169 25.330417 
L 41.857059 25.982819 
L 41.745948 26.635221 
L 41.566429 27.222052 
L 41.386909 27.808883 
L 41.20739 28.395715 
L 41.027871 28.982546 
L 40.760186 29.609326 
L 40.4925 30.236105 
L 40.335819 30.580903 
L 40.179138 30.925701 
L 40.022457 31.270499 
L 39.865776 31.615296 
L 39.540942 32.156393 
L 39.216108 32.69749 
L 38.89701 33.00234 
L 38.577912 33.307189 
L 38.258814 33.612038 
L 37.939716 33.916887 
L 37.66332 34.174762 
L 37.386924 34.432637 
L 37.110528 34.690512 
L 36.834132 34.948387 
L 36.557737 35.206263 
L 36.281341 35.464138 
L 36.004945 35.722013 
L 35.728549 35.979888 
L 35.318311 36.367252 
L 34.908072 36.754615 
L 34.497833 37.141979 
L 34.087595 37.529343 
L 33.597476 37.848381 
L 33.107356 38.167418 
L 32.748318 38.361376 
L 32.389279 38.555333 
L 31.705619 38.543762 
L 31.20424 38.344294 
L 30.702861 38.144827 
L 30.087397 37.854166 
L 29.471933 37.563506 
" style="fill:none;stroke:#008000;stroke-linecap:square;stroke-width:0.401626;"/>
   </g>
   <g id="line2d_14">
    <path clip-path="url(#p762ac0afb5)" d="M 21.425649 51.865105 
L 21.021067 52.357231 
L 20.616485 52.849356 
L 20.211902 53.341482 
L 19.80732 53.833607 
L 19.402738 54.325733 
L 18.998156 54.817858 
L 18.593574 55.309984 
L 18.188992 55.802109 
L 17.78441 56.294234 
L 17.379828 56.78636 
L 16.975246 57.278485 
L 16.570663 57.770611 
L 16.166081 58.262736 
L 15.761499 58.754862 
L 15.356917 59.246987 
L 14.952335 59.739113 
" style="fill:none;stroke:#008000;stroke-linecap:square;stroke-width:0.401626;"/>
   </g>
   <g id="line2d_15">
    <path clip-path="url(#p762ac0afb5)" d="M 31.944837 26.543753 
L 31.598651 26.83152 
L 31.252466 27.119288 
L 30.906281 27.407056 
L 30.560096 27.694823 
L 30.21391 27.982591 
L 29.867725 28.270359 
L 29.52154 28.558126 
L 29.175355 28.845894 
L 28.856257 29.16073 
L 28.537159 29.475567 
L 28.218061 29.790403 
L 27.898962 30.105239 
L 27.579864 30.420076 
L 27.260766 30.734912 
L 26.941668 31.049748 
L 26.62257 31.364585 
" style="fill:none;stroke:#008000;stroke-linecap:square;stroke-width:0.401626;"/>
   </g>
   <g id="line2d_16">
    <path clip-path="url(#p762ac0afb5)" d="M 23.693752 35.854256 
L 23.169428 35.711819 
L 22.645105 35.569382 
L 22.137989 35.335751 
L 21.630874 35.102121 
L 21.249104 34.98255 
L 20.867333 34.86298 
L 20.439886 34.885847 
L 20.01244 34.908714 
L 19.385716 35.102121 
L 19.009681 35.352833 
L 18.633647 35.603545 
L 18.189204 35.979888 
L 17.961034 36.458169 
L 17.909834 37.045 
L 17.858634 37.631832 
L 17.921306 38.349804 
L 17.983979 39.067777 
L 18.11506 39.555012 
L 18.246141 40.042248 
L 18.377221 40.529483 
L 18.508302 41.016718 
L 18.724788 41.671875 
L 18.941273 42.327032 
L 19.157758 42.982189 
L 19.374243 43.637346 
L 19.556949 44.150341 
L 19.567997 44.799988 
L 19.505324 45.375248 
L 19.442652 45.950508 
L 19.408448 46.557314 
L 19.374243 47.164119 
L 19.340039 47.770925 
L 19.305835 48.37773 
L 19.266107 48.930398 
L 19.226379 49.483067 
L 19.07809 49.893573 
L 18.679111 50.383425 
" style="fill:none;stroke:#008000;stroke-linecap:square;stroke-width:0.401626;"/>
   </g>
   <g id="line2d_17">
    <path clip-path="url(#p762ac0afb5)" d="M 40.104994 40.69768 
L 40.230338 41.352837 
L 40.355683 42.007994 
L 40.481028 42.663151 
L 40.606373 43.318308 
L 40.643445 43.791217 
L 40.680517 44.264126 
L 40.71759 44.737035 
L 40.754662 45.209944 
L 40.640577 45.779693 
L 40.526492 46.349443 
L 40.304271 46.771245 
L 40.082049 47.193047 
L 39.765819 47.537707 
L 39.449589 47.882367 
L 39.133359 48.227027 
L 38.817129 48.571687 
L 38.406891 48.885077 
L 37.996652 49.198467 
L 37.586414 49.511857 
L 37.176175 49.825247 
L 36.723128 50.078714 
L 36.270081 50.332181 
L 35.817034 50.585648 
L 35.363987 50.839115 
L 34.836902 51.135423 
L 34.309816 51.431732 
L 33.782731 51.72804 
L 33.255646 52.024349 
L 32.896607 52.20949 
L 32.537569 52.394631 
L 32.17853 52.579772 
L 31.819492 52.764913 
L 31.451956 52.830484 
L 31.084419 52.896055 
L 30.716883 52.961626 
L 30.349346 53.027196 
L 29.933372 53.047171 
L 29.517397 53.067145 
L 29.101422 53.087119 
L 28.685448 53.107094 
" style="fill:none;stroke:#008000;stroke-linecap:square;stroke-width:0.401626;"/>
   </g>
   <g id="line2d_18">
    <path clip-path="url(#p762ac0afb5)" d="M 25.175369 44.925069 
L 24.715205 45.457832 
L 24.255041 45.990594 
L 23.794877 46.523357 
L 23.334713 47.05612 
L 22.874549 47.588883 
L 22.414385 48.121646 
L 21.954221 48.654409 
L 21.494057 49.187171 
" style="fill:none;stroke:#000000;stroke-linecap:square;stroke-width:0.401626;"/>
   </g>
   <g id="line2d_19">
    <path clip-path="url(#p762ac0afb5)" d="M 10.758596 15.387348 
L 10.547741 15.031116 
L 10.336886 14.674885 
L 10.12603 14.318654 
L 9.915175 13.962422 
" style="fill:none;stroke:#008000;stroke-linecap:square;stroke-width:0.401626;"/>
   </g>
   <g id="line2d_20">
    <path clip-path="url(#p762ac0afb5)" d="M 29.528869 33.860132 
L 28.941873 33.438606 
L 28.354878 33.017079 
L 27.654009 32.788959 
L 26.953141 32.560839 
L 26.423293 32.384238 
L 25.893446 32.207638 
L 25.55714 31.985579 
L 25.220833 31.76352 
L 24.730927 31.227933 
L 24.662518 30.703642 
L 24.59411 30.179351 
L 24.485761 29.512622 
L 24.377412 28.845894 
L 24.252067 28.299011 
L 24.126722 27.752129 
L 23.801888 27.296164 
L 23.477054 26.840199 
L 23.04982 26.429968 
L 22.622585 26.019737 
L 22.269283 25.766132 
L 21.91598 25.512528 
L 21.562678 25.258923 
L 21.209376 25.005318 
L 20.838865 24.85737 
L 20.468355 24.709423 
L 19.989708 24.67526 
L 19.51106 24.641097 
L 19.112188 24.646745 
L 18.713315 24.652393 
L 18.314443 24.658041 
L 17.91557 24.663689 
L 17.323051 24.817422 
L 16.730531 24.971155 
L 16.22894 24.988237 
L 15.727348 25.005318 
L 15.242965 24.845799 
L 14.758582 24.68628 
L 14.388284 24.407191 
L 14.017985 24.128102 
L 13.727355 23.729167 
L 13.436726 23.330232 
L 13.206006 22.803186 
L 12.975287 22.27614 
L 12.744567 21.749094 
L 12.513848 21.222048 
L 12.228848 20.592375 
L 11.943848 19.962702 
L 11.658848 19.33303 
L 11.373848 18.703357 
L 11.265605 18.230448 
L 11.157363 17.75754 
L 11.04912 17.284631 
L 10.940877 16.811722 
L 10.849737 16.099535 
L 10.758596 15.387348 
" style="fill:none;stroke:#008000;stroke-linecap:square;stroke-width:0.401626;"/>
   </g>
   <g id="line2d_21">
    <path clip-path="url(#p762ac0afb5)" d="M 9.915175 13.962422 
L 9.521932 13.47257 
L 9.12869 12.982717 
L 8.621574 12.589568 
L 8.114459 12.196419 
L 7.61308 12.071063 
L 7.111701 11.945707 
L 6.473505 11.848728 
L 5.835309 11.751749 
L 5.168645 11.677638 
L 4.50198 11.603526 
" style="fill:none;stroke:#008000;stroke-linecap:square;stroke-width:0.401626;"/>
   </g>
   <g id="line2d_22">
    <path clip-path="url(#p762ac0afb5)" d="M 36.46957 20.33326 
L 36.086313 20.101076 
L 35.703055 19.868892 
L 35.319798 19.636708 
L 34.93654 19.404524 
L 34.553283 19.17234 
L 34.170025 18.940156 
L 33.786767 18.707972 
L 33.40351 18.475788 
L 32.859322 18.139531 
L 32.315135 17.803274 
L 31.770947 17.467017 
L 31.22676 17.13076 
L 30.830755 16.9627 
L 30.434751 16.79464 
L 30.038746 16.626581 
L 29.642742 16.458521 
L 29.144125 16.375869 
L 28.645507 16.293217 
L 28.14689 16.210564 
L 27.648273 16.127912 
L 27.258005 16.070882 
L 26.867736 16.013852 
L 26.477468 15.956822 
L 26.087199 15.899792 
L 25.517306 15.800196 
L 24.947412 15.7006 
L 24.377518 15.601004 
L 23.807624 15.501408 
L 23.246335 15.370266 
L 22.685045 15.239125 
L 22.123755 15.107983 
L 21.562466 14.976841 
L 21.137993 14.897082 
L 20.71352 14.817322 
L 20.289048 14.737563 
L 19.864575 14.657803 
L 19.348856 14.583692 
L 18.833137 14.50958 
L 18.317417 14.435469 
L 17.801698 14.361357 
L 17.337285 14.207486 
L 16.872872 14.053615 
L 16.408459 13.899744 
L 15.944046 13.745873 
L 15.587875 13.555084 
L 15.231705 13.364295 
L 14.875535 13.173506 
L 14.519364 12.982717 
L 14.131858 12.825953 
L 13.744351 12.66919 
L 13.356845 12.512426 
L 12.969338 12.355662 
L 12.590436 12.258821 
L 12.211534 12.16198 
L 11.832631 12.065139 
L 11.453729 11.968298 
L 10.926643 11.956865 
L 10.399558 11.945431 
L 9.872473 11.933998 
L 9.345387 11.922564 
" style="fill:none;stroke:#4169e1;stroke-linecap:square;stroke-width:0.401626;"/>
   </g>
   <g id="line2d_23">
    <path clip-path="url(#p762ac0afb5)" d="M 41.267513 43.580592 
L 41.768892 43.663244 
L 42.270271 43.745896 
L 42.77165 43.828549 
L 43.273029 43.911201 
L 43.780251 44.008042 
L 44.287472 44.104883 
L 44.794694 44.201724 
L 45.301915 44.298565 
L 45.811898 44.381217 
L 46.321882 44.463869 
L 46.831865 44.546521 
L 47.341848 44.629174 
" style="fill:none;stroke:#008000;stroke-linecap:square;stroke-width:0.401626;"/>
   </g>
   <g id="line2d_24">
    <path clip-path="url(#p762ac0afb5)" d="M 40.913998 36.35568 
L 40.802888 36.811508 
L 40.691777 37.267335 
L 40.580666 37.723162 
L 40.469556 38.17899 
L 40.329977 38.566491 
L 40.190398 38.953993 
L 40.050819 39.341494 
L 39.91124 39.728995 
L 39.563674 40.241715 
L 39.216108 40.754435 
L 38.845597 41.09634 
L 38.475087 41.438245 
L 37.956499 41.694742 
L 37.437912 41.95124 
L 36.908065 42.179085 
L 36.378217 42.406929 
L 35.939404 42.512311 
L 35.500592 42.617693 
L 35.061779 42.723074 
L 34.622966 42.828456 
L 33.916361 42.868405 
L 33.209757 42.908353 
L 32.548828 42.81716 
L 31.8879 42.725967 
L 31.437721 42.563555 
L 30.987543 42.401144 
L 30.537364 42.238732 
L 30.087185 42.07632 
L 29.699678 41.817068 
L 29.312172 41.557815 
L 28.924665 41.298562 
L 28.537159 41.03931 
L 28.240899 40.797138 
L 27.944639 40.554967 
L 27.648379 40.312796 
L 27.352119 40.070625 
L 26.984583 39.592068 
L 26.617047 39.113511 
L 26.24951 38.634955 
L 25.881974 38.156398 
L 25.50594 37.774544 
L 25.129905 37.392691 
" style="fill:none;stroke:#008000;stroke-linecap:square;stroke-width:0.401626;"/>
   </g>
   <g id="line2d_25">
    <path clip-path="url(#p762ac0afb5)" d="M 48.299142 19.922754 
L 48.658074 19.538145 
L 49.017007 19.153537 
L 49.375939 18.768928 
L 49.734871 18.384319 
L 50.102514 18.196285 
L 50.470156 18.008251 
L 50.837799 17.820218 
L 51.205441 17.632184 
L 51.669854 17.549531 
L 52.134267 17.466879 
L 52.59868 17.384227 
L 53.063093 17.301574 
L 53.490434 17.238896 
L 53.917775 17.176218 
L 54.345115 17.113541 
L 54.772456 17.050863 
L 55.196929 17.056648 
L 55.621401 17.062434 
L 56.045874 17.06822 
L 56.470347 17.074005 
L 57.103019 17.36439 
L 57.735691 17.654775 
L 58.10599 17.951221 
L 58.476288 18.247668 
L 58.704245 18.692061 
L 58.932203 19.136455 
L 59.103224 19.489656 
L 59.274245 19.842857 
" style="fill:none;stroke:#008000;stroke-linecap:square;stroke-width:0.401626;"/>
   </g>
   <g id="line2d_26">
    <path clip-path="url(#p762ac0afb5)" d="M 23.055556 5.92807 
L 22.685151 6.520686 
L 22.314747 7.113303 
L 21.944342 7.70592 
L 21.573938 8.298537 
L 21.434359 8.711661 
L 21.29478 9.124784 
L 21.155201 9.537908 
L 21.015623 9.951032 
L 20.992784 10.398318 
L 20.969946 10.845605 
L 20.947108 11.292891 
L 20.92427 11.740178 
L 20.838865 12.28155 
L 20.753461 12.822923 
L 20.377427 13.370081 
L 19.967188 13.734853 
L 19.556949 14.099625 
" style="fill:none;stroke:#4169e1;stroke-linecap:square;stroke-width:0.401626;"/>
   </g>
   <g id="line2d_27">
    <path clip-path="url(#p762ac0afb5)" d="M 62.111711 22.293221 
L 62.439413 22.495444 
L 62.767115 22.697666 
L 63.094818 22.899889 
L 63.42252 23.102112 
L 63.798554 23.261768 
L 64.174588 23.421425 
L 64.550623 23.581082 
L 64.926657 23.740738 
L 65.519389 23.860308 
L 66.112121 23.979879 
L 66.670436 23.928634 
L 67.228752 23.87739 
L 67.889892 23.723381 
L 68.551033 23.569372 
L 68.918569 23.478317 
L 69.286106 23.387262 
L 69.653642 23.296207 
L 70.021178 23.205151 
L 70.596702 23.176499 
L 71.172226 23.147846 
L 71.781954 23.273202 
L 72.391682 23.398558 
L 73.05261 23.637974 
L 73.713538 23.87739 
L 74.121014 24.019827 
L 74.528491 24.162265 
L 74.935968 24.304702 
L 75.343445 24.44714 
L 75.998637 24.458435 
L 76.653829 24.469731 
L 77.029969 24.378538 
L 77.40611 24.287345 
L 77.78225 24.196152 
L 78.158391 24.104959 
L 78.842051 23.877114 
L 79.525711 23.64927 
" style="fill:none;stroke:#008000;stroke-linecap:square;stroke-width:0.401626;"/>
   </g>
   <g id="line2d_28">
    <path clip-path="url(#p762ac0afb5)" d="M 62.692971 20.082548 
L 63.071979 20.085303 
L 63.450988 20.088058 
L 63.829996 20.090813 
L 64.209005 20.093569 
L 64.63624 20.013947 
L 65.063474 19.934325 
L 65.70167 19.64945 
L 66.03224 19.467064 
L 66.362811 19.284678 
L 66.693381 19.102292 
L 67.023951 18.919906 
L 67.365781 18.697847 
L 67.707611 18.475788 
L 68.163526 18.407186 
L 68.619441 18.338585 
L 69.092352 18.327289 
L 69.565263 18.315993 
L 69.924302 18.418482 
L 70.28334 18.520971 
L 70.756251 18.714653 
L 71.229162 18.908335 
L 71.759115 19.193347 
L 72.289069 19.47836 
L 72.819022 19.763373 
L 73.348976 20.048385 
L 73.787682 20.267689 
L 74.226389 20.486993 
L 74.665096 20.706297 
L 75.103802 20.925601 
L 75.536985 21.324536 
L 75.970168 21.723471 
L 76.246564 22.090999 
L 76.52296 22.458526 
L 76.799356 22.826053 
L 77.075752 23.19358 
" style="fill:none;stroke:#008000;stroke-linecap:square;stroke-width:0.401626;"/>
   </g>
   <g id="line2d_29">
    <path clip-path="url(#p762ac0afb5)" d="M 54.441886 27.831475 
L 54.760984 28.079432 
L 55.080082 28.327389 
L 55.39918 28.575346 
L 55.718278 28.823302 
L 56.088789 29.307645 
L 56.459299 29.791987 
L 56.578908 30.168055 
L 56.698516 30.544123 
L 56.664312 30.988517 
L 56.630108 31.43291 
L 56.584432 31.996875 
L 56.538755 32.560839 
L 56.618636 33.26724 
L 56.732508 33.677746 
L 56.846381 34.088253 
" style="fill:none;stroke:#008000;stroke-linecap:square;stroke-width:0.401626;"/>
   </g>
   <g id="line2d_30">
    <path clip-path="url(#p762ac0afb5)" d="M 31.922317 3.272727 
L 31.373854 3.375285 
L 30.825391 3.477843 
L 30.276928 3.5804 
L 29.728465 3.682958 
L 29.180002 3.785516 
L 28.631539 3.888074 
L 28.083076 3.990631 
L 27.534613 4.093189 
L 26.98615 4.195747 
L 26.437687 4.298304 
L 25.889224 4.400862 
L 25.340761 4.50342 
L 24.792298 4.605977 
L 24.243835 4.708535 
L 23.695372 4.811093 
L 23.146909 4.913651 
L 22.525071 5.057534 
L 21.903234 5.201418 
L 21.281396 5.345302 
L 20.659558 5.489186 
L 20.037721 5.63307 
L 19.415883 5.776954 
L 18.794046 5.920837 
L 18.172208 6.064721 
L 17.550371 6.208605 
L 16.928533 6.352489 
L 16.306696 6.496373 
L 15.684858 6.640257 
L 15.063021 6.784141 
L 14.441183 6.928024 
L 13.819346 7.071908 
L 13.197508 7.215792 
L 12.619116 7.330472 
L 12.040725 7.445152 
L 11.462333 7.559832 
L 10.883941 7.674512 
L 10.305549 7.789192 
L 9.727158 7.903872 
L 9.148766 8.018552 
L 8.570374 8.133232 
L 7.991982 8.247912 
L 7.413591 8.362592 
L 6.835199 8.477273 
L 6.256807 8.591953 
L 5.678415 8.706633 
L 5.100024 8.821313 
L 4.521632 8.935993 
L 3.94324 9.050673 
" style="fill:none;stroke:#4169e1;stroke-linecap:square;stroke-width:0.401626;"/>
   </g>
   <g id="line2d_31">
    <path clip-path="url(#p762ac0afb5)" d="M 40.104994 23.318661 
L 39.751691 23.660565 
L 39.398389 24.00247 
L 39.045087 24.344375 
L 38.691784 24.68628 
L 38.32701 25.170623 
L 37.962235 25.654965 
L 37.768482 26.093849 
L 37.574729 26.532732 
L 37.45512 27.102482 
L 37.335512 27.672232 
L 37.084822 28.207818 
L 36.834132 28.743405 
L 36.366745 29.307369 
L 35.899358 29.871333 
L 35.594494 30.181968 
L 35.28963 30.492603 
L 34.984766 30.803238 
L 34.679902 31.113873 
L 34.150055 31.635133 
L 33.620208 32.156393 
L 33.09036 32.677654 
L 32.560513 33.198914 
L 32.137368 33.63766 
L 31.714224 34.076406 
L 31.291079 34.515152 
L 30.867934 34.953898 
L 30.444789 35.392643 
L 30.021644 35.831389 
L 29.598499 36.270135 
L 29.175355 36.708881 
" style="fill:none;stroke:#008000;stroke-linecap:square;stroke-width:0.401626;"/>
   </g>
   <g id="line2d_32">
    <path clip-path="url(#p762ac0afb5)" d="M 36.902541 22.555504 
L 36.503668 22.762066 
L 36.104796 22.968628 
L 35.705923 23.17519 
L 35.307051 23.381752 
L 34.908178 23.588314 
L 34.509306 23.794875 
L 34.110433 24.001437 
L 33.711561 24.207999 
L 33.359692 24.350436 
L 33.007824 24.492874 
L 32.655956 24.635311 
L 32.304088 24.777749 
L 31.952219 24.920186 
L 31.600351 25.062624 
L 31.248483 25.205061 
L 30.896614 25.347499 
L 30.536195 25.455773 
L 30.175776 25.564047 
L 29.815357 25.672322 
L 29.454937 25.780596 
L 29.094518 25.888871 
L 28.734099 25.997145 
L 28.373679 26.10542 
L 28.01326 26.213694 
L 27.309523 26.367428 
L 26.605787 26.521161 
L 25.90205 26.674894 
L 25.198314 26.828627 
" style="fill:none;stroke:#4169e1;stroke-linecap:square;stroke-width:0.401626;"/>
   </g>
   <g id="line2d_33">
    <path clip-path="url(#p762ac0afb5)" d="M 59.103012 22.669565 
L 59.122982 23.141027 
L 59.142952 23.612489 
L 59.162922 24.083952 
L 59.182892 24.555414 
L 59.202862 25.026877 
L 59.222833 25.498339 
L 59.242803 25.969801 
L 59.262773 26.441264 
L 59.197233 26.97685 
L 59.131692 27.512437 
L 59.066152 28.048024 
L 59.000611 28.583611 
L 58.86953 29.164794 
L 58.738449 29.745977 
L 58.607369 30.327161 
L 58.476288 30.908344 
L 58.311003 31.395579 
L 58.145717 31.882814 
L 57.980432 32.37005 
L 57.815147 32.857285 
L 57.664202 33.344382 
L 57.513257 33.83148 
L 57.362313 34.318577 
L 57.211368 34.805675 
L 57.177164 35.23588 
L 57.142959 35.666085 
L 57.108755 36.09629 
L 57.074551 36.526495 
L 56.823861 37.210305 
L 56.573172 37.894115 
L 56.242601 38.458217 
L 55.912031 39.022318 
L 55.581461 39.58642 
L 55.250891 40.150522 
L 55.092776 40.489534 
L 54.934661 40.828546 
L 54.776546 41.167558 
L 54.618431 41.50657 
L 54.460316 41.845583 
L 54.302201 42.184595 
L 54.144086 42.523607 
L 53.985971 42.862619 
L 53.815056 43.335528 
L 53.644141 43.808437 
L 53.473226 44.281345 
L 53.302311 44.754254 
L 53.054383 45.138863 
L 52.806455 45.523471 
L 52.558527 45.90808 
L 52.3106 46.292689 
L 52.017208 46.614619 
L 51.723816 46.93655 
L 51.430425 47.25848 
L 51.137033 47.580411 
L 50.71819 48.05332 
L 50.299347 48.526229 
L 49.880505 48.999138 
L 49.461662 49.472046 
L 49.039951 49.808166 
L 48.61824 50.144285 
L 48.19653 50.480404 
L 47.774819 50.816523 
L 47.267704 51.149888 
L 46.760588 51.483252 
L 46.253473 51.816616 
L 45.746358 52.14998 
L 45.16223 52.457584 
L 44.578102 52.765189 
L 43.993974 53.072793 
L 43.409846 53.380397 
L 42.75168 53.702328 
L 42.093514 54.024258 
L 41.435348 54.346189 
L 40.777181 54.66812 
L 40.298534 54.970076 
L 39.819887 55.272032 
L 39.34124 55.573989 
L 38.862593 55.875945 
L 38.32701 56.383155 
L 37.791427 56.890364 
L 37.406788 57.374569 
L 37.02215 57.858773 
L 36.637511 58.342978 
L 36.252873 58.827182 
L 35.991986 59.130792 
L 35.607028 59.579043 
L 35.222071 60.027294 
L 34.837114 60.475544 
L 34.452157 60.923795 
L 34.115957 61.197374 
L 33.779757 61.470953 
L 33.443556 61.744533 
L 33.107356 62.018112 
L 32.622973 62.354231 
L 32.13859 62.69035 
L 31.654207 63.026469 
L 31.169824 63.362589 
L 30.651342 63.727223 
L 30.132861 64.091857 
L 29.61438 64.456492 
L 29.095899 64.821126 
L 28.714128 65.011915 
L 28.332358 65.202704 
L 27.950588 65.393493 
L 27.568817 65.584282 
L 26.924885 65.749587 
L 26.280953 65.914891 
" style="fill:none;stroke:#008000;stroke-linecap:square;stroke-width:0.401626;"/>
   </g>
   <g id="line2d_34">
    <path clip-path="url(#p762ac0afb5)" d="M 44.902936 24.344651 
L 44.78609 24.763422 
L 44.669243 25.182194 
L 44.552396 25.600966 
L 44.435549 26.019737 
L 44.23043 26.447049 
L 44.025311 26.874362 
L 43.820191 27.301674 
L 43.615072 27.728986 
L 43.270374 28.335792 
L 42.925676 28.942597 
L 42.580978 29.549403 
L 42.23628 30.156208 
L 42.019741 30.536546 
L 41.803203 30.916885 
L 41.586664 31.297223 
L 41.370126 31.677561 
L 41.153588 32.057899 
L 40.937049 32.438238 
L 40.720511 32.818576 
L 40.503972 33.198914 
L 40.099257 33.55239 
L 39.694543 33.905867 
L 39.483793 34.264853 
L 39.273044 34.62384 
L 39.144831 35.005555 
L 39.016619 35.387271 
L 38.888406 35.768987 
L 38.760193 36.150703 
L 38.560704 36.546745 
L 38.361214 36.942787 
L 38.161725 37.338829 
L 37.962235 37.734871 
L 37.759984 38.1066 
L 37.557733 38.478329 
L 37.355482 38.850057 
L 37.15323 39.221786 
L 36.950979 39.593515 
L 36.748728 39.965243 
L 36.546477 40.336972 
L 36.344226 40.7087 
L 36.024915 41.295532 
L 35.705605 41.882363 
" style="fill:none;stroke:#008000;stroke-linecap:square;stroke-width:0.401626;"/>
   </g>
   <g id="line2d_35">
    <path clip-path="url(#p762ac0afb5)" d="M 42.053574 35.774359 
L 42.452499 36.267242 
L 42.851425 36.760125 
L 43.250351 37.253009 
L 43.649276 37.745892 
L 44.048202 38.238775 
L 44.447128 38.731658 
L 44.846053 39.224541 
L 45.244979 39.717424 
L 45.472883 40.062153 
L 45.700788 40.406882 
L 45.928692 40.751611 
L 46.156597 41.09634 
L 46.384501 41.441069 
L 46.612405 41.785797 
L 46.84031 42.130526 
L 47.068214 42.475255 
L 47.373078 42.819915 
L 47.677942 43.164575 
L 47.982806 43.509235 
L 48.28767 43.853895 
" style="fill:none;stroke:#4169e1;stroke-linecap:square;stroke-width:0.401626;"/>
   </g>
   <g id="line2d_36">
    <path clip-path="url(#p762ac0afb5)" d="M 72.425673 15.432531 
L 72.696333 15.848547 
L 72.966993 16.264564 
L 73.237653 16.68058 
L 73.508312 17.096597 
L 73.901555 17.447042 
L 74.294798 17.797488 
L 74.68804 18.147934 
L 75.081283 18.498379 
L 75.425981 18.697847 
L 75.770679 18.897314 
L 76.115377 19.096782 
L 76.460075 19.296249 
L 77.012867 19.683613 
L 77.565659 20.070977 
L 78.007233 20.38726 
L 78.448808 20.703542 
L 78.890383 21.019825 
L 79.331958 21.336108 
" style="fill:none;stroke:#008000;stroke-linecap:square;stroke-width:0.401626;"/>
   </g>
   <g id="line2d_37">
    <path clip-path="url(#p762ac0afb5)" d="M 32.685858 44.549276 
L 32.334335 45.139328 
L 31.982812 45.729379 
L 31.631289 46.31943 
L 31.279766 46.909481 
L 30.928243 47.499532 
L 30.57672 48.089584 
L 30.225197 48.679635 
L 29.873674 49.269686 
L 29.522151 49.859737 
L 29.170628 50.449788 
L 28.819105 51.03984 
L 28.467582 51.629891 
L 28.116059 52.219942 
L 27.764536 52.809993 
L 27.413012 53.400044 
L 27.061489 53.990096 
L 26.709966 54.580147 
L 26.358443 55.170198 
L 26.00692 55.760249 
L 25.655397 56.3503 
L 25.303874 56.940351 
L 24.952351 57.530403 
L 24.600828 58.120454 
L 24.249305 58.710505 
L 23.897782 59.300556 
L 23.546259 59.890607 
L 23.194736 60.480659 
L 22.843213 61.07071 
L 22.49169 61.660761 
L 22.140167 62.250812 
L 21.788644 62.840863 
L 21.437121 63.430915 
" style="fill:none;stroke:#000000;stroke-linecap:square;stroke-width:0.401626;"/>
   </g>
   <g id="line2d_38">
    <path clip-path="url(#p762ac0afb5)" d="M 29.448989 44.902477 
L 29.127036 45.416678 
L 28.805083 45.930878 
L 28.48313 46.445079 
L 28.161177 46.959279 
L 27.839225 47.47348 
L 27.517272 47.98768 
L 27.195319 48.501881 
L 26.873366 49.016081 
L 26.551413 49.530282 
L 26.22946 50.044482 
L 25.907508 50.558683 
L 25.585555 51.072883 
L 25.263602 51.587084 
L 24.941649 52.101284 
L 24.619696 52.615485 
L 24.297744 53.129685 
L 23.975791 53.643886 
L 23.653838 54.158086 
L 23.331885 54.672287 
L 23.009932 55.186487 
L 22.687979 55.700688 
L 22.366027 56.214888 
L 22.044074 56.729089 
L 21.722121 57.243289 
L 21.400168 57.75749 
L 21.078215 58.27169 
L 20.756263 58.785891 
L 20.43431 59.300091 
L 20.112357 59.814292 
L 19.790404 60.328492 
L 19.468451 60.842693 
L 19.146498 61.356893 
" style="fill:none;stroke:#000000;stroke-linecap:square;stroke-width:0.401626;"/>
   </g>
   <g id="line2d_39">
    <path clip-path="url(#p762ac0afb5)" d="M 50.213731 23.045357 
L 50.587003 23.270447 
L 50.960275 23.495536 
L 51.333548 23.720626 
L 51.70682 23.945716 
L 51.951774 24.259106 
L 52.196727 24.572496 
L 52.441681 24.885886 
L 52.686634 25.199275 
L 52.948796 25.694914 
L 53.210958 26.190552 
L 53.450387 26.62365 
L 53.689817 27.056748 
L 53.729545 27.649365 
L 53.769273 28.241981 
L 53.609724 28.754701 
L 53.450175 29.267421 
L 53.270762 29.672004 
L 53.091349 30.076587 
L 52.911936 30.481169 
L 52.732523 30.885752 
L 52.607178 31.353013 
L 52.481833 31.820274 
L 52.356489 32.287535 
L 52.231144 32.754796 
L 52.134267 33.34452 
L 52.037391 33.934244 
L 51.940514 34.523968 
L 51.843637 35.113692 
L 51.738157 35.600789 
L 51.632676 36.087887 
L 51.527195 36.574984 
L 51.421714 37.062082 
L 51.314852 37.439596 
L 51.207991 37.81711 
L 51.101129 38.194625 
L 50.994267 38.572139 
L 50.887406 38.949653 
L 50.780544 39.327168 
L 50.673682 39.704682 
L 50.56682 40.082196 
L 50.420124 40.461088 
L 50.273429 40.83998 
L 50.126733 41.218872 
L 49.980037 41.597763 
L 49.833341 41.976655 
L 49.686645 42.355547 
L 49.539949 42.734439 
L 49.393253 43.113331 
L 49.1739 43.808437 
L 48.954547 44.503542 
L 48.735193 45.198648 
L 48.51584 45.893754 
L 48.336321 46.244199 
L 48.156802 46.594645 
L 47.977282 46.945091 
L 47.797763 47.295536 
L 47.432989 47.791174 
L 47.068214 48.286813 
L 46.578095 48.697043 
L 46.087976 49.107274 
L 45.654899 49.409231 
L 45.221822 49.711187 
L 44.788745 50.013143 
L 44.355668 50.3151 
L 44.012351 50.520215 
L 43.669034 50.72533 
L 43.325717 50.930446 
L 42.9824 51.135561 
L 42.639082 51.340677 
L 42.295765 51.545792 
L 41.952448 51.750907 
L 41.609131 51.956023 
L 41.093518 52.226709 
L 40.577905 52.497395 
L 40.062291 52.768082 
L 39.546678 53.038768 
L 39.042325 53.426131 
L 38.537972 53.813495 
L 38.033618 54.200859 
L 37.529265 54.588223 
L 37.121788 54.969938 
L 36.714311 55.351654 
L 36.306835 55.73337 
L 35.899358 56.115086 
L 35.611596 56.41284 
L 35.323834 56.710595 
L 35.036072 57.00835 
L 34.748311 57.306105 
L 34.460549 57.60386 
L 34.172787 57.901615 
L 33.885025 58.19937 
L 33.597263 58.497124 
L 33.158556 58.867407 
L 32.71985 59.237689 
L 32.281143 59.607971 
L 31.842436 59.978253 
L 31.266913 60.251832 
L 30.691389 60.525411 
L 30.144333 60.727634 
L 29.597278 60.929857 
L 29.050222 61.132079 
L 28.503167 61.334302 
L 28.164099 61.513795 
L 27.82503 61.693288 
L 27.485962 61.872781 
L 27.146894 62.052275 
L 26.696715 62.45672 
L 26.246536 62.861165 
L 25.796357 63.26561 
L 25.346178 63.670055 
L 25.118221 63.972011 
L 24.890263 64.273968 
L 24.662306 64.575924 
L 24.434348 64.87788 
" style="fill:none;stroke:#008000;stroke-linecap:square;stroke-width:0.401626;"/>
   </g>
   <g id="line2d_40">
    <path clip-path="url(#p762ac0afb5)" d="M 14.929815 42.566173 
L 14.421957 42.917307 
L 13.914098 43.268442 
L 13.406239 43.619576 
L 12.89838 43.97071 
L 12.390522 44.321845 
L 11.882663 44.672979 
L 11.374804 45.024114 
L 10.866945 45.375248 
L 10.359087 45.726383 
L 9.851228 46.077517 
L 9.343369 46.428652 
L 8.83551 46.779786 
L 8.327652 47.13092 
L 7.819793 47.482055 
L 7.311934 47.833189 
L 6.804075 48.184324 
" style="fill:none;stroke:#008000;stroke-linecap:square;stroke-width:0.401626;"/>
   </g>
   <g id="line2d_41">
    <path clip-path="url(#p762ac0afb5)" d="M 18.679111 50.383425 
L 18.177732 50.816523 
L 17.830166 51.004695 
L 17.4826 51.192867 
L 17.143532 51.369467 
L 16.804463 51.546068 
L 16.465395 51.722668 
L 16.126327 51.899268 
L 15.741688 52.232495 
L 15.35705 52.565721 
L 14.972411 52.898948 
L 14.587773 53.232174 
L 14.329913 53.52986 
L 14.072054 53.827546 
L 13.814194 54.125232 
L 13.556334 54.422918 
L 13.298474 54.720604 
L 13.040615 55.01829 
L 12.782755 55.315976 
L 12.524895 55.613662 
" style="fill:none;stroke:#008000;stroke-linecap:square;stroke-width:0.401626;"/>
   </g>
   <g id="line2d_42">
    <path clip-path="url(#p762ac0afb5)" d="M 38.388408 61.815338 
L 38.066986 62.031336 
L 37.745564 62.247334 
L 37.424142 62.463332 
L 37.102721 62.67933 
L 36.781299 62.895328 
L 36.459877 63.111326 
L 36.138456 63.327324 
L 35.817034 63.543322 
L 35.495612 63.75932 
L 35.174191 63.975318 
L 34.852769 64.191316 
L 34.531347 64.407314 
L 34.209926 64.623311 
L 33.888504 64.839309 
L 33.567082 65.055307 
L 33.24566 65.271305 
L 32.924239 65.487303 
L 32.602817 65.703301 
L 32.281395 65.919299 
L 31.959974 66.135297 
L 31.638552 66.351295 
L 31.31713 66.567293 
L 30.995709 66.783291 
L 30.674287 66.999289 
L 30.352865 67.215287 
L 30.031443 67.431285 
L 29.710022 67.647283 
L 29.3886 67.863281 
L 29.067178 68.079279 
L 28.745757 68.295277 
L 28.424335 68.511275 
L 28.102913 68.727273 
" style="fill:none;stroke:#008000;stroke-linecap:square;stroke-width:0.401626;"/>
   </g>
  </g>
 </g>
 <defs>
  <clipPath id="p762ac0afb5">
   <rect height="72" width="86.751284" x="0" y="0"/>
  </clipPath>
 </defs>
</svg>
