<?xml version="1.0" encoding="utf-8" standalone="no"?>
<!DOCTYPE svg PUBLIC "-//W3C//DTD SVG 1.1//EN"
  "http://www.w3.org/Graphics/SVG/1.1/DTD/svg11.dtd">
<svg height="136.074922pt" version="1.1" viewBox="0 0 72 136.074922" width="72pt" xmlns="http://www.w3.org/2000/svg" xmlns:xlink="http://www.w3.org/1999/xlink">
 <metadata>
  <rdf:RDF xmlns:cc="http://creativecommons.org/ns#" xmlns:dc="http://purl.org/dc/elements/1.1/" xmlns:rdf="http://www.w3.org/1999/02/22-rdf-syntax-ns#">
   <cc:Work>
    <dc:type rdf:resource="http://purl.org/dc/dcmitype/StillImage"/>
    <dc:date>2022-04-19T00:58:30.279035</dc:date>
    <dc:format>image/svg+xml</dc:format>
    <dc:creator>
     <cc:Agent>
      <dc:title>Matplotlib v3.4.3, https://matplotlib.org/</dc:title>
     </cc:Agent>
    </dc:creator>
   </cc:Work>
  </rdf:RDF>
 </metadata>
 <defs>
  <style type="text/css">*{stroke-linecap:butt;stroke-linejoin:round;}</style>
 </defs>
 <g id="figure_1">
  <g id="patch_1">
   <path d="M 0 136.074922 
L 72 136.074922 
L 72 0 
L 0 0 
z
" style="fill:#ffffff;"/>
  </g>
  <g id="axes_1">
   <g id="line2d_1">
    <path clip-path="url(#pf12c2b344d)" d="M 20.589665 118.226204 
L 20.793676 109.51228 
L 20.985687 101.425112 
L 21.188198 92.790936 
L 21.390709 84.15676 
L 21.609721 74.843038 
L 21.828732 65.529316 
L 22.080746 54.782367 
L 22.33276 44.035419 
L 22.559272 34.421797 
L 22.785784 24.808176 
L 22.991295 16.029105 
L 23.196806 7.250034 
" style="fill:none;stroke:#808080;stroke-linecap:square;stroke-width:0.4;"/>
   </g>
   <g id="line2d_2">
    <path clip-path="url(#pf12c2b344d)" d="M 44.200944 129.889698 
L 44.029935 123.716493 
L 43.678916 110.884852 
L 43.357899 99.248315 
L 43.036881 87.611779 
L 42.706863 75.559651 
L 42.508853 68.371057 
L 42.310842 61.182463 
L 42.112831 53.993868 
L 41.91482 46.805274 
L 41.712309 39.395406 
L 41.509798 31.985538 
L 41.158779 19.263972 
" style="fill:none;stroke:#808080;stroke-linecap:square;stroke-width:0.4;"/>
   </g>
   <g id="line2d_3">
    <path clip-path="url(#pf12c2b344d)" d="M 32.692321 122.831397 
L 32.801827 114.284271 
L 32.911333 105.737145 
L 33.020839 97.190019 
L 33.130345 88.642893 
" style="fill:none;stroke:#808080;stroke-linecap:square;stroke-width:0.4;"/>
   </g>
   <g id="line2d_4">
    <path clip-path="url(#pf12c2b344d)" d="M 37.117561 72.571892 
L 34.361911 73.601882 
L 31.606262 74.631873 
L 28.850613 75.661864 
L 26.094963 76.691855 
L 22.263756 77.725215 
L 20.330151 79.571785 
L 18.396546 81.418355 
L 16.462942 83.264925 
L 14.529337 85.111496 
L 12.033202 87.480362 
L 9.537067 89.849228 
L 8.635518 91.849118 
L 7.733969 93.849007 
L 6.83242 95.848897 
L 5.930871 97.848786 
L 6.416898 101.434097 
L 6.902924 105.019409 
L 8.207995 106.834529 
L 9.513065 108.649649 
L 10.70863 110.45466 
L 11.904195 112.259671 
L 13.347273 113.869242 
L 14.790351 115.478813 
L 17.889519 117.673581 
L 20.589665 118.226204 
" style="fill:none;stroke:#008000;stroke-linecap:square;stroke-width:0.4;"/>
   </g>
   <g id="line2d_5">
    <path clip-path="url(#pf12c2b344d)" d="M 33.130345 88.642893 
L 34.492418 90.161483 
L 35.419469 92.130484 
L 36.346519 94.099485 
L 37.155063 97.015358 
L 37.963606 99.931232 
L 38.77215 102.847105 
L 39.580694 105.762979 
L 39.51469 109.161836 
L 39.448687 112.560693 
L 38.472134 115.678746 
L 37.495581 118.796799 
L 35.093951 120.814098 
L 32.692321 122.831397 
" style="fill:none;stroke:#008000;stroke-linecap:square;stroke-width:0.4;"/>
   </g>
   <g id="line2d_6">
    <path clip-path="url(#pf12c2b344d)" d="M 14.529337 85.111496 
L 14.529337 87.48654 
L 14.529337 89.861584 
L 14.529337 92.236628 
L 14.529337 94.611672 
L 14.374829 96.773867 
L 14.22032 98.936061 
L 14.065812 101.098255 
L 13.911304 103.26045 
L 13.911304 107.044571 
L 13.911304 110.828691 
L 14.350827 113.153752 
L 14.790351 115.478813 
" style="fill:none;stroke:#008000;stroke-linecap:square;stroke-width:0.4;"/>
   </g>
   <g id="line2d_7">
    <path clip-path="url(#pf12c2b344d)" d="M 41.158779 19.263972 
L 42.852371 22.892528 
L 44.545963 26.521083 
L 46.239555 30.149638 
L 47.933146 33.778193 
L 48.704938 36.249273 
L 49.47673 38.720352 
L 50.248522 41.191431 
L 51.020314 43.662511 
L 51.406585 47.485382 
L 51.792855 51.308254 
L 52.179126 55.131126 
L 52.565397 58.953998 
L 52.334385 60.885933 
L 51.273827 62.968379 
L 50.21327 65.050825 
L 49.178214 65.868527 
L 46.16305 67.544368 
L 43.147887 69.220209 
L 40.132724 70.89605 
L 37.117561 72.571892 
" style="fill:none;stroke:#008000;stroke-linecap:square;stroke-width:0.4;"/>
   </g>
   <g id="line2d_8">
    <path clip-path="url(#pf12c2b344d)" d="M 41.158779 19.263972 
L 43.714918 20.48828 
L 46.298058 21.188045 
L 48.881198 21.887809 
L 50.058762 23.567582 
L 51.236325 25.247354 
L 52.413889 26.927126 
L 53.591453 28.606898 
L 55.444053 32.197826 
L 57.296654 35.788753 
L 58.33921 38.453026 
L 59.381767 41.117299 
L 60.155808 44.900297 
L 60.088305 47.60332 
L 60.020801 50.306344 
L 59.953297 53.009368 
L 59.885794 55.712392 
L 59.81829 58.415415 
L 59.750787 61.118439 
L 59.683283 63.821463 
L 59.615779 66.524487 
L 60.658336 69.459455 
L 61.700892 72.394423 
L 63.12972 74.943004 
L 64.558547 77.491586 
L 65.987374 80.040167 
L 67.416202 82.588748 
" style="fill:none;stroke:#008000;stroke-linecap:square;stroke-width:0.4;"/>
   </g>
   <g id="line2d_9">
    <path clip-path="url(#pf12c2b344d)" d="M 67.416202 82.588748 
L 67.956231 84.712753 
L 68.49626 86.836758 
L 68.611766 89.694224 
L 68.727273 92.551691 
L 68.688271 96.451503 
L 68.649269 100.351315 
L 67.954731 102.648857 
L 67.260193 104.9464 
L 66.565656 107.243942 
L 65.871118 109.541484 
L 63.823507 111.935061 
L 61.775896 114.328638 
L 59.150754 115.506332 
L 56.525612 116.684026 
L 53.90047 117.86172 
L 51.275327 119.039414 
L 49.652239 120.274954 
L 48.623184 122.21812 
L 47.594128 124.161287 
L 45.897536 127.025493 
L 44.200944 129.889698 
" style="fill:none;stroke:#008000;stroke-linecap:square;stroke-width:0.4;"/>
   </g>
   <g id="line2d_10">
    <path clip-path="url(#pf12c2b344d)" d="M 67.416202 82.588748 
L 64.115273 84.918864 
L 60.814344 87.248979 
L 57.513415 89.579095 
L 54.212487 91.90921 
L 51.178572 94.333114 
L 48.144658 96.757018 
L 45.110743 99.180922 
L 42.076829 101.604826 
" style="fill:none;stroke:#008000;stroke-linecap:square;stroke-width:0.4;"/>
   </g>
   <g id="line2d_11">
    <path clip-path="url(#pf12c2b344d)" d="M 37.117561 72.571892 
L 36.777042 75.735996 
L 36.436524 78.900101 
L 37.28707 82.646032 
L 38.137616 86.391964 
L 39.565693 90.176085 
L 40.99377 93.960206 
L 41.5353 97.782516 
L 42.076829 101.604826 
L 40.828762 103.683903 
L 39.580694 105.762979 
" style="fill:none;stroke:#008000;stroke-linecap:square;stroke-width:0.4;"/>
   </g>
   <g id="line2d_12">
    <path clip-path="url(#pf12c2b344d)" d="M 23.196806 7.250034 
L 24.876897 6.185224 
L 26.652994 7.344385 
L 27.736052 8.966311 
L 27.002513 11.225102 
L 26.268973 13.483893 
L 25.535433 15.742684 
L 24.801893 18.001476 
L 23.739836 20.279361 
L 22.677778 22.557247 
L 21.615721 24.835133 
L 20.553663 27.113019 
L 19.703867 30.878045 
L 18.854071 34.643071 
L 18.004275 38.408097 
L 17.154479 42.173124 
L 16.768958 44.953088 
L 16.383437 47.733052 
L 16.200053 49.92445 
L 16.016668 52.115848 
L 15.833283 54.307246 
L 15.649898 56.498644 
L 15.466513 58.690042 
L 15.283128 60.88144 
L 15.099743 63.072838 
L 14.916358 65.264236 
L 15.031864 68.662532 
L 15.14737 72.060827 
L 15.262877 75.459123 
L 15.378383 78.857419 
L 14.95386 81.984457 
L 14.529337 85.111496 
" style="fill:none;stroke:#008000;stroke-linecap:square;stroke-width:0.4;"/>
   </g>
   <g id="line2d_13">
    <path clip-path="url(#pf12c2b344d)" d="M 20.553663 27.113019 
L 19.226091 29.064048 
L 17.89852 31.015078 
L 16.570948 32.966107 
L 15.243376 34.917136 
L 13.602287 38.508064 
L 11.961198 42.098991 
L 10.320109 45.689919 
L 8.67902 49.280846 
L 7.75197 53.161564 
L 6.82492 57.042282 
L 5.897869 60.922999 
L 4.970819 64.803717 
L 4.546296 67.719029 
L 4.121773 70.634341 
L 3.69725 73.549653 
L 3.272727 76.464965 
L 3.475238 78.675738 
L 3.677749 80.886512 
L 3.88026 83.097285 
L 4.082771 85.308059 
L 4.285282 87.518832 
L 4.487793 89.729606 
L 4.690304 91.940379 
L 4.892815 94.151153 
L 5.930871 97.848786 
" style="fill:none;stroke:#008000;stroke-linecap:square;stroke-width:0.4;"/>
   </g>
   <g id="line2d_14">
    <path clip-path="url(#pf12c2b344d)" d="M 41.158779 19.263972 
L 38.907157 22.20905 
L 36.655536 25.154127 
L 36.597782 27.393823 
L 36.540029 29.63352 
L 36.482276 31.873216 
L 36.424523 34.112912 
L 36.636784 36.661494 
L 36.849046 39.210075 
L 37.061307 41.758656 
L 37.273569 44.307238 
L 37.273569 47.87907 
L 37.273569 51.450903 
L 37.273569 55.022736 
L 37.273569 58.594569 
L 37.234567 62.088899 
L 37.195565 65.58323 
L 37.156563 69.077561 
L 37.117561 72.571892 
" style="fill:none;stroke:#008000;stroke-linecap:square;stroke-width:0.4;"/>
   </g>
   <g id="line2d_15">
    <path clip-path="url(#pf12c2b344d)" d="M 41.158779 19.263972 
L 38.449633 20.134466 
L 35.740486 21.00496 
L 33.848883 22.742578 
L 31.957281 24.480196 
L 30.799218 26.440211 
L 29.641156 28.400226 
L 28.483093 30.360242 
L 27.32503 32.320257 
L 26.513486 35.157505 
L 25.701942 37.994753 
L 25.605187 41.151557 
L 25.508432 44.308361 
L 25.411676 47.465165 
L 25.314921 50.621968 
L 25.677941 52.789779 
L 26.040961 54.957589 
L 26.047711 57.674372 
L 26.054461 60.391156 
L 26.061212 63.107939 
L 26.067962 65.824722 
L 26.074712 68.541505 
L 26.081463 71.258288 
L 26.088213 73.975071 
L 26.094963 76.691855 
L 25.944955 79.135977 
L 25.794947 81.580099 
L 25.644939 84.024221 
L 25.494931 86.468343 
L 25.056907 90.099706 
L 24.618884 93.731069 
L 24.482376 96.652559 
L 24.345869 99.574049 
L 24.209361 102.495538 
L 24.072854 105.417028 
L 24.55063 108.270563 
L 25.028406 111.124098 
L 25.506182 113.977633 
L 25.983957 116.831168 
L 26.721997 118.741761 
L 27.460037 120.652355 
L 28.771108 122.564072 
" style="fill:none;stroke:#008000;stroke-linecap:square;stroke-width:0.4;"/>
   </g>
  </g>
 </g>
 <defs>
  <clipPath id="pf12c2b344d">
   <rect height="136.074922" width="72" x="0" y="0"/>
  </clipPath>
 </defs>
</svg>
